<?xml version="1.0" encoding="UTF-8"?>
<svg  xmlns="http://www.w3.org/2000/svg" xmlns:xlink="http://www.w3.org/1999/xlink" xmlns:go="http://purl.org/svgmap/profile" property="geometry,N03_001,N03_002,N03_003,N03_004,N03_005,N03_007" viewBox="13535.15625 -3410.15625 17.578125 17.578125" go:dataArea="13535.15625 -3410.15625 17.578125 17.578125" >
<metadata>
 <rdf:RDF xmlns:rdf="http://www.w3.org/1999/02/22-rdf-syntax-ns#" xmlns:crs="http://opengis.org/xmldtds/transformations.dtd" xmlns:svg="http://www.w3.org/svg" >
  <rdf:Description>
   <crs:CoordinateReferenceSystem rdf:resource="http://purl.org/crs/84" svg:transform="matrix(100.0,0.0,0.0,-100.0,0.0,0.0)" />
  </rdf:Description>
 </rdf:RDF>
</metadata>
<globalCoordinateSystem srsName="http://purl.org/crs/84" transform="matrix(100.0,0.0,0.0,-100.0,0.0,0.0)" />
<defs>
 <g id="p0" >
  <circle cx="0.0" cy="0.0" r="3" stroke="green" stroke-width="2.0" vector-effect="non-scaling-stroke" />
 </g>
</defs>
<g fill="#0000ff" fill-rule="evenodd" opacity="0.5" >
<path content="和歌山県,,,田辺市,,30206" xlink:title="和歌山県" d="M13552.7344,-3392.5781L13539.8277,-3392.5781L13539.817,-3392.6152L13539.8176,-3392.6333L13539.82,-3392.6561L13539.8164,-3392.672L13539.8077,-3392.6946L13539.8069,-3392.6967L13539.7902,-3392.7186L13539.7867,-3392.7334L13539.7843,-3392.7981L13539.7807,-3392.8556L13539.7753,-3392.9059L13539.7706,-3392.9406L13539.7706,-3392.9525L13539.7713,-3392.9581L13539.7775,-3392.9662L13539.7863,-3392.9713L13539.8206,-3392.9846L13539.8594,-3392.9963L13539.8683,-3392.9977L13539.8955,-3393.0022L13539.9219,-3393.0029L13539.9901,-3393.0081L13540,-3393.0102L13540.0209,-3393.0147L13540.0675,-3393.0323L13540.1127,-3393.0515L13540.1356,-3393.0574L13540.1567,-3393.0596L13540.1963,-3393.061L13540.2263,-3393.061L13540.2631,-3393.057L13540.3142,-3393.0489L13540.3538,-3393.0408L13540.4005,-3393.0225L13540.4383,-3393.0004L13540.4664,-3392.9912L13540.5016,-3392.9839L13540.5023,-3392.9837L13540.5298,-3392.978L13540.5483,-3392.9758L13540.5915,-3392.9816L13540.6276,-3392.9868L13540.6566,-3392.9861L13540.719,-3392.9798L13540.7507,-3392.971L13540.7807,-3392.9666L13540.8071,-3392.9644L13540.8333,-3392.9677L13540.8538,-3392.9702L13540.8933,-3392.9794L13540.9391,-3392.9868L13540.9866,-3392.9934L13541.0192,-3393.0007L13541.0614,-3393.0132L13541.0896,-3393.0261L13541.1036,-3393.0276L13541.1309,-3393.0261L13541.1565,-3393.021L13541.1776,-3393.0136L13541.204,-3392.9968L13541.219,-3392.9924L13541.2419,-3392.9916L13541.2576,-3392.9907L13541.2674,-3392.9902L13541.2824,-3392.9924L13541.3061,-3392.9997L13541.3677,-3393.029L13541.4311,-3393.0547L13541.5164,-3393.0887L13541.5466,-3393.1068L13541.5543,-3393.1114L13541.5904,-3393.1504L13541.6429,-3393.2104L13541.6667,-3393.2381L13541.6843,-3393.2588L13541.7116,-3393.2838L13541.7421,-3393.3052L13541.774,-3393.3256L13541.7877,-3393.3333L13541.8006,-3393.3407L13541.8123,-3393.3513L13541.8229,-3393.3681L13541.8315,-3393.393L13541.8396,-3393.414L13541.8459,-3393.4264L13541.8534,-3393.4415L13541.8555,-3393.461L13541.8534,-3393.4797L13541.8491,-3393.4921L13541.8508,-3393.5097L13541.8561,-3393.546L13541.8593,-3393.5629L13541.8519,-3393.5824L13541.8221,-3393.6462L13541.7799,-3393.7245L13541.7725,-3393.7413L13541.7746,-3393.7564L13541.7912,-3393.7887L13541.821,-3393.8357L13541.8327,-3393.8667L13541.8402,-3393.8836L13541.8466,-3393.8898L13541.8529,-3393.896L13541.8827,-3393.9111L13541.9104,-3393.9235L13541.9424,-3393.9421L13541.9711,-3393.9661L13541.9793,-3393.9814L13541.9825,-3393.9992L13541.9793,-3394.024L13541.9633,-3394.0621L13541.9612,-3394.0727L13541.9644,-3394.0931L13541.975,-3394.1162L13541.9916,-3394.1475L13542.008,-3394.1667L13542.0128,-3394.1723L13542.0448,-3394.2104L13542.0884,-3394.253L13542.1333,-3394.2882L13542.1739,-3394.3429L13542.1975,-3394.3844L13542.2143,-3394.4139L13542.2366,-3394.4441L13542.249,-3394.4607L13542.2703,-3394.4784L13542.3129,-3394.4961L13542.3512,-3394.5147L13542.3906,-3394.5467L13542.42,-3394.5797L13542.4371,-3394.592L13542.453,-3394.6036L13542.4689,-3394.6124L13542.4891,-3394.6142L13542.5,-3394.6118L13542.5094,-3394.6098L13542.5615,-3394.5983L13542.5839,-3394.5903L13542.5934,-3394.5797L13542.6094,-3394.5406L13542.6169,-3394.5309L13542.6286,-3394.5229L13542.6499,-3394.5185L13542.6828,-3394.5158L13542.6981,-3394.5144L13542.7269,-3394.5028L13542.8205,-3394.462L13542.8918,-3394.4328L13542.9432,-3394.4189L13542.9592,-3394.4207L13543.006,-3394.4375L13543.0209,-3394.4393L13543.0687,-3394.4384L13543.0934,-3394.4451L13543.1935,-3394.4912L13543.2701,-3394.5312L13543.3072,-3394.5492L13543.3201,-3394.5524L13543.3333,-3394.5556L13543.3359,-3394.5562L13543.3366,-3394.5562L13543.3604,-3394.5554L13543.3689,-3394.5518L13543.3764,-3394.5456L13543.3806,-3394.5385L13543.3817,-3394.5288L13543.3689,-3394.5057L13543.3374,-3394.4739L13543.3333,-3394.47L13543.2969,-3394.4349L13543.2576,-3394.403L13543.2427,-3394.3808L13543.2235,-3394.3453L13543.198,-3394.3098L13543.1579,-3394.2537L13543.1001,-3394.1667L13543.0919,-3394.1544L13543.0667,-3394.12L13543.0657,-3394.1102L13543.0667,-3394.0996L13543.0763,-3394.0827L13543.0976,-3394.0641L13543.1237,-3394.0486L13543.1317,-3394.0438L13543.1423,-3394.0375L13543.1718,-3394.0133L13543.2016,-3393.9991L13543.2197,-3393.9947L13543.2324,-3393.992L13543.2835,-3393.9947L13543.3314,-3394L13543.3333,-3394.0005L13543.418,-3394.0237L13543.4371,-3394.0307L13543.4435,-3394.0698L13543.485,-3394.1638L13543.4866,-3394.1667L13543.508,-3394.2054L13543.524,-3394.2213L13543.5484,-3394.2328L13543.5581,-3394.2373L13543.6219,-3394.2577L13543.6687,-3394.279L13543.6962,-3394.2955L13543.7579,-3394.3221L13543.8207,-3394.3434L13543.8377,-3394.3532L13543.8494,-3394.3647L13543.8537,-3394.3744L13543.8467,-3394.4146L13543.842,-3394.4418L13543.8383,-3394.4617L13543.8416,-3394.4764L13543.8425,-3394.4803L13543.8606,-3394.5122L13543.8734,-3394.5326L13543.917,-3394.5681L13543.9276,-3394.5805L13543.9489,-3394.6133L13543.9662,-3394.6322L13544.0194,-3394.665L13544.047,-3394.6933L13544.052,-3394.7109L13544.0574,-3394.7313L13544.1404,-3394.7065L13544.1606,-3394.6985L13544.1667,-3394.6946L13544.1859,-3394.6822L13544.2094,-3394.6734L13544.2413,-3394.6672L13544.2796,-3394.6512L13544.3158,-3394.6334L13544.3349,-3394.6237L13544.353,-3394.6202L13544.4137,-3394.6211L13544.49,-3394.6225L13544.5723,-3394.6257L13544.607,-3394.6279L13544.625,-3394.6279L13544.6816,-3394.6107L13544.697,-3394.6064L13544.724,-3394.6086L13544.7369,-3394.6126L13544.7714,-3394.6231L13544.7907,-3394.6285L13544.8177,-3394.6306L13544.8704,-3394.6263L13544.918,-3394.6156L13544.9771,-3394.6038L13545,-3394.6014L13545.0062,-3394.6008L13545.008,-3394.6006L13545.0451,-3394.6087L13545.0618,-3394.6124L13545.1094,-3394.6113L13545.1492,-3394.607L13545.1942,-3394.6027L13545.2392,-3394.6038L13545.2778,-3394.6081L13545.3215,-3394.6167L13545.3771,-3394.6311L13545.4157,-3394.6429L13545.4193,-3394.6434L13545.4504,-3394.6472L13545.4877,-3394.6451L13545.5237,-3394.6397L13545.5878,-3394.6257L13545.6483,-3394.6021L13545.7087,-3394.5722L13545.7692,-3394.5357L13545.7825,-3394.5197L13545.7897,-3394.5111L13545.8286,-3394.4347L13545.8333,-3394.4205L13545.835,-3394.4154L13545.8333,-3394.4086L13545.8196,-3394.3543L13545.8209,-3394.3211L13545.8333,-3394.3023L13545.8415,-3394.29L13545.8524,-3394.2682L13545.8653,-3394.2317L13545.8859,-3394.2039L13545.9026,-3394.19L13545.9347,-3394.1825L13545.9669,-3394.1782L13546.0221,-3394.1667L13546.0337,-3394.1642L13546.1081,-3394.1476L13546.1402,-3394.1315L13546.1647,-3394.1133L13546.1788,-3394.0972L13546.1929,-3394.064L13546.2078,-3394.017L13546.222,-3393.9934L13546.2336,-3393.928L13546.24,-3393.8637L13546.248,-3393.8105L13546.249,-3393.8039L13546.2567,-3393.7804L13546.2671,-3393.7664L13546.2992,-3393.7514L13546.3159,-3393.7439L13546.3416,-3393.7418L13546.3879,-3393.7418L13546.4111,-3393.7375L13546.4316,-3393.7193L13546.4676,-3393.6914L13546.4803,-3393.6849L13546.5163,-3393.6784L13546.5806,-3393.6667L13546.6051,-3393.6624L13546.6667,-3393.6467L13546.6681,-3393.6463L13546.7298,-3393.6184L13546.7526,-3393.6097L13546.7706,-3393.6076L13546.8246,-3393.6097L13546.8451,-3393.6134L13546.8722,-3393.6183L13546.9134,-3393.6344L13546.9416,-3393.6504L13546.9987,-3393.6731L13547.0321,-3393.6839L13547.0772,-3393.6946L13547.1312,-3393.7106L13547.1839,-3393.7278L13547.2275,-3393.7505L13547.2456,-3393.7599L13547.269,-3393.7875L13547.2838,-3393.8184L13547.2863,-3393.842L13547.285,-3393.8606L13547.2875,-3393.8729L13547.3048,-3393.8955L13547.3311,-3393.9258L13547.3557,-3393.9649L13547.3727,-3393.989L13547.3977,-3394.0246L13547.4174,-3394.0437L13547.4273,-3394.0534L13547.4557,-3394.0708L13547.4693,-3394.0791L13547.4829,-3394.0955L13547.4989,-3394.1243L13547.5,-3394.1254L13547.5269,-3394.1509L13547.5471,-3394.1667L13547.5702,-3394.1848L13547.6035,-3394.2105L13547.622,-3394.2249L13547.6479,-3394.2054L13547.6739,-3394.1931L13547.7134,-3394.191L13547.7298,-3394.1921L13547.7718,-3394.2054L13547.7952,-3394.2178L13547.8125,-3394.2198L13547.8261,-3394.2157L13547.8458,-3394.2096L13547.8693,-3394.2096L13547.9026,-3394.2209L13547.9544,-3394.2599L13547.9599,-3394.2626L13547.9715,-3394.2683L13547.9875,-3394.2714L13548.0122,-3394.2725L13548.0628,-3394.2632L13548.1048,-3394.257L13548.1319,-3394.256L13548.1665,-3394.257L13548.1826,-3394.255L13548.2023,-3394.2457L13548.2184,-3394.2292L13548.236,-3394.208L13548.2583,-3394.1926L13548.2817,-3394.1802L13548.2959,-3394.1697L13548.2999,-3394.1667L13548.3074,-3394.1611L13548.3286,-3394.1453L13548.3333,-3394.1401L13548.3731,-3394.0959L13548.3936,-3394.076L13548.4033,-3394.0711L13548.438,-3394.0534L13548.4886,-3394.0379L13548.5331,-3394.0297L13548.5735,-3394.0283L13548.583,-3394.029L13548.6007,-3394.0303L13548.6353,-3394.0499L13548.6908,-3394.0766L13548.7241,-3394.0869L13548.7698,-3394.09L13548.7901,-3394.0926L13548.8023,-3394.0942L13548.8356,-3394.1045L13548.8714,-3394.1322L13548.8963,-3394.1647L13548.8978,-3394.1667L13548.9084,-3394.1806L13548.9282,-3394.2094L13548.9467,-3394.2279L13548.9907,-3394.2637L13549.0413,-3394.3131L13549.0709,-3394.3337L13549.1006,-3394.3439L13549.1203,-3394.3491L13549.1475,-3394.3501L13549.1633,-3394.3471L13549.1667,-3394.3473L13549.1818,-3394.3482L13549.2089,-3394.3667L13549.2398,-3394.3831L13549.2941,-3394.4088L13549.3324,-3394.4294L13549.3685,-3394.4507L13549.4179,-3394.462L13549.4648,-3394.4641L13549.4944,-3394.461L13549.5104,-3394.4651L13549.5121,-3394.4667L13549.5314,-3394.4857L13549.5632,-3394.5198L13549.5989,-3394.5466L13549.6298,-3394.5754L13549.652,-3394.5877L13549.6792,-3394.597L13549.7206,-3394.6031L13549.764,-3394.6064L13549.7937,-3394.5938L13549.8637,-3394.5861L13549.8835,-3394.5822L13549.9713,-3394.585L13550,-3394.5855L13550.0564,-3394.5866L13550.1521,-3394.6064L13550.1719,-3394.6169L13550.2149,-3394.6663L13550.3118,-3394.6929L13550.4061,-3394.7264L13550.4405,-3394.7517L13550.4781,-3394.7704L13550.4999,-3394.7941L13550.5388,-3394.815L13550.5725,-3394.8183L13550.6335,-3394.8533L13550.6815,-3394.9086L13550.6883,-3394.9165L13550.7075,-3394.927L13550.7372,-3394.9611L13550.7537,-3394.9897L13550.7736,-3395L13550.7781,-3395.0023L13550.8204,-3395.0111L13550.8333,-3395.0153L13550.9131,-3395.0406L13550.9989,-3395.0807L13551.0827,-3395.0961L13551.1679,-3395.0956L13551.297,-3395.089L13551.3723,-3395.1093L13551.3947,-3395.1209L13551.429,-3395.1462L13551.4613,-3395.1792L13551.4953,-3395.2064L13551.5217,-3395.224L13551.5282,-3395.229L13551.6068,-3395.2889L13551.6157,-3395.2903L13551.6438,-3395.2949L13551.6597,-3395.2933L13551.6667,-3395.291L13551.7158,-3395.2751L13551.7455,-3395.2576L13551.7663,-3395.2516L13551.8013,-3395.2472L13551.8528,-3395.2516L13551.868,-3395.2488L13551.8812,-3395.2312L13551.8951,-3395.2207L13551.9604,-3395.2026L13552.1089,-3395.1793L13552.1287,-3395.1762L13552.1761,-3395.1728L13552.1926,-3395.1744L13552.2263,-3395.1942L13552.2441,-3395.1997L13552.3147,-3395.2014L13552.3312,-3395.2069L13552.3391,-3395.2173L13552.3662,-3395.2811L13552.3861,-3395.3067L13552.4237,-3395.3375L13552.4416,-3395.3463L13552.4937,-3395.3535L13552.5,-3395.3572L13552.5102,-3395.3634L13552.5214,-3395.3738L13552.5399,-3395.4061L13552.5485,-3395.4211L13552.5864,-3395.4527L13552.6333,-3395.4779L13552.6689,-3395.4895L13552.7066,-3395.4972L13552.7344,-3395.5025L13552.7344,-3402.2693L13552.7319,-3402.2696L13552.7017,-3402.2652L13552.6699,-3402.2666L13552.6625,-3402.271L13552.6097,-3402.302L13552.5,-3402.3137L13552.4858,-3402.3152L13552.4093,-3402.3123L13552.3173,-3402.3211L13552.2659,-3402.3137L13552.2253,-3402.3285L13552.2005,-3402.3329L13552.1226,-3402.3491L13552.0907,-3402.352L13552.0177,-3402.3373L13551.9062,-3402.3064L13551.777,-3402.3196L13551.7363,-3402.3167L13551.6667,-3402.2932L13551.6531,-3402.2887L13551.6138,-3402.2946L13551.5941,-3402.2989L13551.5323,-3402.3122L13551.4722,-3402.3122L13551.4333,-3402.2872L13551.3589,-3402.2533L13551.3182,-3402.243L13551.2739,-3402.2533L13551.2226,-3402.2754L13551.1726,-3402.2934L13551.0523,-3402.3082L13550.9726,-3402.3627L13550.9124,-3402.3862L13550.8333,-3402.3994L13550.8328,-3402.3995L13550.7956,-3402.454L13550.7903,-3402.4731L13550.7974,-3402.4982L13550.7981,-3402.5L13550.8333,-3402.5832L13550.8416,-3402.6027L13550.8424,-3402.6075L13550.8452,-3402.6248L13550.8452,-3402.6513L13550.8333,-3402.6648L13550.8027,-3402.6997L13550.7797,-3402.7366L13550.7799,-3402.7429L13550.7815,-3402.8014L13550.7691,-3402.875L13550.7957,-3402.9433L13550.8027,-3403.0582L13550.7956,-3403.151L13550.778,-3403.268L13550.7656,-3403.3254L13550.7603,-3403.3333L13550.7319,-3403.3758L13550.762,-3403.4259L13550.7856,-3403.4706L13550.8063,-3403.5098L13550.824,-3403.582L13550.8257,-3403.635L13550.7636,-3403.6664L13550.6592,-3403.7312L13550.5441,-3403.7724L13550.491,-3403.7974L13550.4839,-3403.8328L13550.4822,-3403.8637L13550.4645,-3403.9173L13550.4654,-3403.9331L13550.4663,-3403.9512L13550.4734,-3403.9851L13550.5088,-3404.1044L13550.5176,-3404.1647L13550.517,-3404.1667L13550.5049,-3404.2031L13550.5218,-3404.2919L13550.5624,-3404.3399L13550.5743,-3404.3821L13550.5675,-3404.4089L13550.5811,-3404.4512L13550.6034,-3404.4686L13550.6441,-3404.5109L13550.6678,-3404.5335L13550.7847,-3404.5518L13550.8169,-3404.5673L13550.8333,-3404.5779L13550.8694,-3404.6012L13550.9083,-3404.6364L13550.9168,-3404.6618L13550.9969,-3404.6513L13551.0241,-3404.6477L13551.0427,-3404.6392L13551.0953,-3404.5857L13551.1139,-3404.58L13551.1325,-3404.5814L13551.2308,-3404.5913L13551.3358,-3404.5955L13551.3629,-3404.6026L13551.4154,-3404.6336L13551.504,-3404.6578L13551.5886,-3404.6592L13551.6667,-3404.6722L13551.6734,-3404.6733L13551.7225,-3404.7043L13551.8156,-3404.7903L13551.8397,-3404.8031L13551.9176,-3404.8129L13551.9808,-3404.8052L13552.0328,-3404.7988L13552.1378,-3404.7932L13552.2767,-3404.789L13552.3467,-3404.8059L13552.5,-3404.8114L13552.5043,-3404.8115L13552.6042,-3404.8101L13552.7344,-3404.7832Z"/>
<path content="和歌山県,,有田郡,有田川町,,30366" xlink:title="和歌山県" d="M13552.7344,-3410.1562L13552.7344,-3404.7832L13552.6042,-3404.8101L13552.5043,-3404.8115L13552.5,-3404.8114L13552.3467,-3404.8059L13552.2767,-3404.789L13552.1378,-3404.7932L13552.0328,-3404.7988L13551.9808,-3404.8052L13551.9176,-3404.8129L13551.8397,-3404.8031L13551.8156,-3404.7903L13551.7225,-3404.7043L13551.6734,-3404.6733L13551.6667,-3404.6722L13551.5886,-3404.6592L13551.504,-3404.6578L13551.4154,-3404.6336L13551.3629,-3404.6026L13551.3358,-3404.5955L13551.2308,-3404.5913L13551.1325,-3404.5814L13551.1139,-3404.58L13551.0953,-3404.5857L13551.0427,-3404.6392L13551.0241,-3404.6477L13550.9969,-3404.6513L13550.9168,-3404.6618L13550.9083,-3404.6364L13550.8694,-3404.6012L13550.8333,-3404.5779L13550.8169,-3404.5673L13550.7847,-3404.5518L13550.6678,-3404.5335L13550.6441,-3404.5109L13550.6034,-3404.4686L13550.5811,-3404.4512L13550.5675,-3404.4089L13550.5743,-3404.3821L13550.5624,-3404.3399L13550.5218,-3404.2919L13550.5049,-3404.2031L13550.3609,-3404.1887L13550.3169,-3404.1943L13550.2321,-3404.2394L13550.1746,-3404.2521L13550.1203,-3404.262L13550.0509,-3404.2549L13550.0299,-3404.2537L13550,-3404.2644L13549.9317,-3404.2889L13549.8825,-3404.3157L13549.8639,-3404.3044L13549.8385,-3404.2551L13549.8317,-3404.2029L13549.8198,-3404.1691L13549.8165,-3404.1667L13549.7927,-3404.1493L13549.7639,-3404.1085L13549.7504,-3404.0718L13549.7368,-3403.9966L13549.7335,-3403.9862L13549.7304,-3403.9762L13549.7202,-3403.9669L13549.7165,-3403.9475L13549.6989,-3403.9237L13549.6989,-3403.9237L13549.6819,-3403.9126L13549.6492,-3403.9014L13549.6431,-3403.8954L13549.6262,-3403.8249L13549.625,-3403.8161L13549.6189,-3403.7715L13549.6067,-3403.7421L13549.5826,-3403.7038L13549.5704,-3403.6927L13549.4917,-3403.6513L13549.4748,-3403.6312L13549.453,-3403.5979L13549.4494,-3403.5929L13549.4313,-3403.5909L13549.3851,-3403.5918L13549.2616,-3403.5807L13549.1826,-3403.5595L13549.1667,-3403.5523L13549.1354,-3403.5383L13549.0737,-3403.5252L13548.9757,-3403.5112L13548.9503,-3403.5051L13548.8717,-3403.4787L13548.8628,-3403.4757L13548.7515,-3403.4314L13548.6509,-3403.384L13548.6206,-3403.381L13548.5976,-3403.384L13548.5323,-3403.4052L13548.4924,-3403.4142L13548.4488,-3403.4223L13548.4026,-3403.4182L13548.3833,-3403.4081L13548.3333,-3403.3673L13548.3167,-3403.3537L13548.2828,-3403.3376L13548.2761,-3403.3333L13548.1651,-3403.262L13548.1204,-3403.2429L13548.1095,-3403.2409L13548.0961,-3403.2449L13548.0756,-3403.2641L13548.0574,-3403.2751L13548.0284,-3403.2832L13548.0187,-3403.2842L13547.9812,-3403.2812L13547.9313,-3403.2731L13547.9107,-3403.2731L13547.8951,-3403.2755L13547.8914,-3403.2761L13547.8587,-3403.2912L13547.8333,-3403.2993L13547.8067,-3403.3013L13547.7801,-3403.2973L13547.7535,-3403.2842L13547.7133,-3403.2549L13547.66,-3403.2227L13547.6394,-3403.2156L13547.6249,-3403.2146L13547.5148,-3403.2247L13547.5,-3403.2235L13547.4761,-3403.2217L13547.448,-3403.2126L13547.4037,-3403.1976L13547.3887,-3403.1925L13547.373,-3403.1904L13547.3355,-3403.2015L13547.3101,-3403.2056L13547.2762,-3403.2086L13547.2435,-3403.2035L13547.2008,-3403.1863L13547.1948,-3403.1853L13547.179,-3403.1853L13547.1282,-3403.2004L13547.0895,-3403.2014L13547.023,-3403.1903L13546.9661,-3403.1732L13546.9431,-3403.1712L13546.8871,-3403.1752L13546.8531,-3403.1738L13546.8157,-3403.1722L13546.7758,-3403.1672L13546.7467,-3403.1621L13546.7298,-3403.1642L13546.708,-3403.1702L13546.6667,-3403.1889L13546.6657,-3403.1893L13546.6109,-3403.2106L13546.5735,-3403.2156L13546.5093,-3403.2146L13546.4912,-3403.2166L13546.4851,-3403.2197L13546.4754,-3403.2317L13546.4536,-3403.2884L13546.45,-3403.2995L13546.45,-3403.3333L13546.45,-3403.3407L13546.4379,-3403.371L13546.4246,-3403.3891L13546.3931,-3403.4173L13546.3384,-3403.4497L13546.3239,-3403.4568L13546.3068,-3403.4748L13546.2924,-3403.49L13546.2513,-3403.5081L13546.2331,-3403.5172L13546.2247,-3403.5272L13546.1979,-3403.5709L13546.1725,-3403.6041L13546.1592,-3403.6172L13546.0987,-3403.6494L13546.0724,-3403.6696L13546.0673,-3403.6736L13545.9704,-3403.7695L13545.917,-3403.8181L13545.8928,-3403.8382L13545.8589,-3403.8553L13545.8333,-3403.8653L13545.8153,-3403.8724L13545.7206,-3403.8917L13545.7049,-3403.8937L13545.6918,-3403.89L13545.6517,-3403.8786L13545.6371,-3403.8796L13545.6275,-3403.8836L13545.5549,-3403.943L13545.5416,-3403.9501L13545.5186,-3403.9551L13545.4823,-3403.9581L13545.4027,-3403.9657L13545.3864,-3403.9672L13545.3392,-3403.9723L13545.2823,-3403.9944L13545.2763,-3403.9984L13545.2703,-3404.0246L13545.2642,-3404.0337L13545.2313,-3404.0539L13545.1853,-3404.0871L13545.1776,-3404.0887L13545.1756,-3404.0891L13545.1321,-3404.0791L13545.0897,-3404.066L13545.0267,-3404.0306L13545,-3404.0162L13544.9855,-3404.0084L13544.9237,-3403.968L13544.9043,-3403.9529L13544.8813,-3403.9308L13544.8692,-3403.9217L13544.7722,-3403.8701L13544.6947,-3403.8359L13544.6754,-3403.8299L13544.6149,-3403.8208L13544.5883,-3403.8117L13544.5313,-3403.7743L13544.4197,-3403.6936L13544.3859,-3403.6634L13544.3581,-3403.6261L13544.3375,-3403.612L13544.2998,-3403.5708L13544.2949,-3403.5655L13544.2598,-3403.5152L13544.2502,-3403.5111L13544.2223,-3403.5051L13544.2018,-3403.4991L13544.1762,-3403.4848L13544.1667,-3403.4809L13544.1229,-3403.4627L13544.077,-3403.4496L13544.0612,-3403.4425L13544.037,-3403.4204L13544.0237,-3403.4103L13544.0177,-3403.4053L13544.0091,-3403.3929L13544.0087,-3403.3921L13543.9983,-3403.3728L13543.9898,-3403.3355L13543.9885,-3403.3333L13543.9789,-3403.3174L13543.9414,-3403.2781L13543.8942,-3403.2439L13543.8286,-3403.2044L13543.779,-3403.1712L13543.7621,-3403.153L13543.722,-3403.0813L13543.7171,-3403.0783L13543.7063,-3403.0773L13543.6699,-3403.0793L13543.647,-3403.0773L13543.6155,-3403.0662L13543.601,-3403.0612L13543.5474,-3403.0602L13543.5281,-3403.0622L13543.4945,-3403.0731L13543.4738,-3403.0797L13543.4688,-3403.0814L13543.4494,-3403.0864L13543.4107,-3403.0874L13543.3732,-3403.0924L13543.3647,-3403.0924L13543.3333,-3403.0867L13543.3151,-3403.0834L13543.2337,-3403.0552L13543.1647,-3403.036L13543.1345,-3403.032L13543.1168,-3403.0332L13543.074,-3403.036L13543.0568,-3403.0317L13543.0217,-3403.0086L13543.0105,-3402.9981L13542.9685,-3402.9592L13542.9588,-3402.9552L13542.9309,-3402.952L13542.9103,-3402.95L13542.8667,-3402.9329L13542.8462,-3402.9238L13542.8243,-3402.9218L13542.811,-3402.9177L13542.8037,-3402.9097L13542.765,-3402.8523L13542.7517,-3402.8412L13542.7263,-3402.8302L13542.7215,-3402.8241L13542.7116,-3402.7958L13542.6983,-3402.7797L13542.6657,-3402.7424L13542.6572,-3402.7213L13542.6512,-3402.7183L13542.6439,-3402.7183L13542.6124,-3402.7253L13542.5949,-3402.7329L13542.5398,-3402.7565L13542.512,-3402.7626L13542.5,-3402.7626L13542.4926,-3402.7626L13542.4039,-3402.7404L13542.3399,-3402.7233L13542.3181,-3402.7202L13542.289,-3402.7243L13542.2684,-3402.7283L13542.2479,-3402.7263L13542.2164,-3402.7172L13542.1939,-3402.7163L13542.1907,-3402.7162L13542.1786,-3402.7172L13542.1569,-3402.7222L13542.1254,-3402.7222L13542.0553,-3402.7323L13542.0323,-3402.7333L13541.9911,-3402.7313L13541.95,-3402.7232L13541.9109,-3402.7192L13541.8722,-3402.7152L13541.8383,-3402.7192L13541.7512,-3402.7202L13541.7415,-3402.7182L13541.7366,-3402.7142L13541.7281,-3402.6919L13541.7257,-3402.6425L13541.716,-3402.5901L13541.7099,-3402.5576L13541.7083,-3402.5338L13541.7075,-3402.5223L13541.7001,-3402.5L13541.6942,-3402.4821L13541.6797,-3402.467L13541.6667,-3402.4587L13541.6639,-3402.4569L13541.6288,-3402.4499L13541.5998,-3402.4378L13541.5671,-3402.4176L13541.5148,-3402.3781L13541.4979,-3402.3671L13541.441,-3402.3459L13541.4095,-3402.3378L13541.3708,-3402.3268L13541.2571,-3402.2815L13541.2302,-3402.2672L13541.212,-3402.2602L13541.1963,-3402.2592L13541.1588,-3402.2602L13541.1334,-3402.2531L13541.0838,-3402.2239L13541.0451,-3402.2088L13541.0109,-3402.1924L13540.9528,-3402.1552L13540.8826,-3402.127L13540.8729,-3402.1179L13540.8547,-3402.0976L13540.8365,-3402.0764L13540.8333,-3402.075L13540.8125,-3402.0656L13540.8075,-3402.0634L13540.7676,-3402.0463L13540.7313,-3402.0201L13540.7216,-3402.0151L13540.7131,-3402.0151L13540.6802,-3402.016L13540.6621,-3402.013L13540.6137,-3401.9969L13540.5628,-3401.9929L13540.4588,-3401.9707L13540.4104,-3401.9566L13540.3628,-3401.9372L13540.3265,-3401.9272L13540.2539,-3401.9231L13540.2454,-3401.9191L13540.2346,-3401.909L13540.2285,-3401.8969L13540.2201,-3401.8536L13540.2128,-3401.8151L13540.2164,-3401.7547L13540.2116,-3401.7305L13540.1995,-3401.7013L13540.1813,-3401.6862L13540.1668,-3401.6678L13540.166,-3401.6667L13540.1353,-3401.6225L13540.1329,-3401.6114L13540.1317,-3401.5641L13540.1275,-3401.5354L13540.1268,-3401.5309L13540.1133,-3401.5086L13540.1012,-3401.4935L13540.0843,-3401.4864L13540.0661,-3401.4834L13540.0093,-3401.4884L13540,-3401.4878L13539.9814,-3401.4864L13539.9657,-3401.4814L13539.9354,-3401.4673L13539.882,-3401.4428L13539.8736,-3401.4328L13539.8445,-3401.3905L13539.8058,-3401.3572L13539.7864,-3401.327L13539.7717,-3401.2895L13539.7681,-3401.2805L13539.7633,-3401.2785L13539.7234,-3401.2704L13539.6312,-3401.2371L13539.5937,-3401.217L13539.5647,-3401.209L13539.5308,-3401.2019L13539.5139,-3401.1939L13539.4836,-3401.1737L13539.4572,-3401.1612L13539.431,-3401.153L13539.3976,-3401.141L13539.3551,-3401.1188L13539.3302,-3401.1027L13539.3104,-3401.0854L13539.2909,-3401.0738L13539.2587,-3401.0607L13539.229,-3401.0486L13539.1697,-3401.0124L13539.1667,-3401.012L13539.1528,-3401.0104L13539.1346,-3401.0144L13539.108,-3401.0274L13539.085,-3401.0365L13539.0681,-3401.044L13539.0306,-3401.0607L13538.919,-3401.1203L13538.9069,-3401.1243L13538.8645,-3401.1263L13538.7919,-3401.1313L13538.7677,-3401.1354L13538.729,-3401.1505L13538.7133,-3401.1535L13538.6597,-3401.1586L13538.6065,-3401.1666L13538.5835,-3401.1696L13538.5012,-3401.1656L13538.4777,-3401.1597L13538.4528,-3401.1535L13538.3993,-3401.1485L13538.3364,-3401.1475L13538.3333,-3401.1476L13538.2807,-3401.1495L13538.2674,-3401.1545L13538.2376,-3401.1863L13538.2201,-3401.205L13538.2007,-3401.2161L13538.1742,-3401.2241L13538.1064,-3401.2342L13538.081,-3401.2342L13538.0032,-3401.2211L13537.9754,-3401.2201L13537.9524,-3401.2221L13537.8725,-3401.2502L13537.8556,-3401.2512L13537.7876,-3401.2371L13537.7538,-3401.2321L13537.7078,-3401.22L13537.6546,-3401.213L13537.6255,-3401.2009L13537.6013,-3401.1959L13537.5844,-3401.1949L13537.5,-3401.2237L13537.4981,-3401.2243L13537.3977,-3401.2475L13537.3832,-3401.2545L13537.3178,-3401.3018L13537.2791,-3401.3219L13537.2231,-3401.3464L13537.2219,-3401.3435L13537.2214,-3401.3423L13537.1636,-3401.3668L13537.1503,-3401.3677L13537.1313,-3401.3612L13537.045,-3401.3347L13537.0207,-3401.33L13536.9063,-3401.3152L13536.8256,-3401.3066L13536.8105,-3401.3079L13536.7994,-3401.3089L13536.7356,-3401.2996L13536.7034,-3401.2922L13536.6762,-3401.2789L13536.6668,-3401.2664L13536.6667,-3401.2661L13536.6388,-3401.2058L13536.6275,-3401.1814L13536.5956,-3401.1354L13536.5872,-3401.12L13536.5534,-3401.0582L13536.5373,-3401.0234L13536.5194,-3401.0015L13536.5007,-3400.9898L13536.4763,-3400.9774L13536.4229,-3400.9524L13536.4266,-3400.9384L13536.4276,-3400.9212L13536.4163,-3400.8892L13536.4115,-3400.8623L13536.4098,-3400.8526L13536.4107,-3400.8385L13536.4129,-3400.8333L13536.4257,-3400.8034L13536.4199,-3400.7857L13536.3834,-3400.7717L13536.3506,-3400.7506L13536.2924,-3400.7327L13536.2606,-3400.7187L13536.2277,-3400.7202L13536.194,-3400.7147L13536.1659,-3400.7023L13536.1509,-3400.6906L13536.1209,-3400.6602L13536.0665,-3400.6406L13536.0559,-3400.6286L13536.054,-3400.6137L13536.0484,-3400.5506L13536.0405,-3400.533L13536.0334,-3400.517L13535.9284,-3400.5116L13535.8609,-3400.5014L13535.8333,-3400.5014L13535.7962,-3400.5014L13535.7362,-3400.4921L13535.7156,-3400.4968L13535.6481,-3400.5248L13535.6017,-3400.5331L13535.596,-3400.5341L13535.5651,-3400.5607L13535.5435,-3400.5653L13535.5238,-3400.5607L13535.5013,-3400.5529L13535.4704,-3400.5513L13535.4544,-3400.5529L13535.445,-3400.5483L13535.4254,-3400.5388L13535.3888,-3400.5139L13535.3738,-3400.5154L13535.3495,-3400.5326L13535.3279,-3400.5372L13535.2998,-3400.5279L13535.2683,-3400.5256L13535.2224,-3400.5061L13535.2064,-3400.5092L13535.1886,-3400.5216L13535.1562,-3400.5452L13535.1563,-3410.1563Z"/>
<path content="和歌山県,,日高郡,日高川町,,30392" xlink:title="和歌山県" d="M13550,-3404.2644L13550.0299,-3404.2537L13550.0509,-3404.2549L13550.1203,-3404.262L13550.1746,-3404.2521L13550.2321,-3404.2394L13550.3169,-3404.1943L13550.3609,-3404.1887L13550.5049,-3404.2031L13550.517,-3404.1667L13550.5176,-3404.1647L13550.5088,-3404.1044L13550.4734,-3403.9851L13550.4663,-3403.9512L13550.4654,-3403.9331L13550.4645,-3403.9173L13550.4822,-3403.8637L13550.4839,-3403.8328L13550.491,-3403.7974L13550.5441,-3403.7724L13550.6592,-3403.7312L13550.7636,-3403.6664L13550.8257,-3403.635L13550.824,-3403.582L13550.8063,-3403.5098L13550.7856,-3403.4706L13550.762,-3403.4259L13550.7319,-3403.3758L13550.7603,-3403.3333L13550.7656,-3403.3254L13550.778,-3403.268L13550.7956,-3403.151L13550.8027,-3403.0582L13550.7957,-3402.9433L13550.7691,-3402.875L13550.7815,-3402.8014L13550.7799,-3402.7429L13550.7797,-3402.7366L13550.8027,-3402.6997L13550.8333,-3402.6648L13550.8452,-3402.6513L13550.8452,-3402.6248L13550.8424,-3402.6075L13550.8416,-3402.6027L13550.8333,-3402.5832L13550.7981,-3402.5L13550.7974,-3402.4982L13550.7903,-3402.4731L13550.7956,-3402.454L13550.8328,-3402.3995L13550.8333,-3402.3994L13550.9124,-3402.3862L13550.9726,-3402.3627L13551.0523,-3402.3082L13551.1726,-3402.2934L13551.2226,-3402.2754L13551.2739,-3402.2533L13551.3182,-3402.243L13551.3589,-3402.2533L13551.4333,-3402.2872L13551.4722,-3402.3122L13551.5323,-3402.3122L13551.5941,-3402.2989L13551.6138,-3402.2946L13551.6531,-3402.2887L13551.6667,-3402.2932L13551.7363,-3402.3167L13551.777,-3402.3196L13551.9062,-3402.3064L13552.0177,-3402.3373L13552.0907,-3402.352L13552.1226,-3402.3491L13552.2005,-3402.3329L13552.2253,-3402.3285L13552.2659,-3402.3137L13552.3173,-3402.3211L13552.4093,-3402.3123L13552.4858,-3402.3152L13552.5,-3402.3137L13552.6097,-3402.302L13552.6625,-3402.271L13552.6699,-3402.2666L13552.7017,-3402.2652L13552.7319,-3402.2696L13552.7344,-3402.2693L13552.7344,-3395.5025L13552.7066,-3395.4972L13552.6689,-3395.4895L13552.6333,-3395.4779L13552.5864,-3395.4527L13552.5485,-3395.4211L13552.5399,-3395.4061L13552.5214,-3395.3738L13552.5102,-3395.3634L13552.5,-3395.3572L13552.4937,-3395.3535L13552.4416,-3395.3463L13552.4237,-3395.3375L13552.3861,-3395.3067L13552.3662,-3395.2811L13552.3391,-3395.2173L13552.3312,-3395.2069L13552.3147,-3395.2014L13552.2441,-3395.1997L13552.2263,-3395.1942L13552.1926,-3395.1744L13552.1761,-3395.1728L13552.1287,-3395.1762L13552.1089,-3395.1793L13551.9604,-3395.2026L13551.8951,-3395.2207L13551.8812,-3395.2312L13551.868,-3395.2488L13551.8528,-3395.2516L13551.8013,-3395.2472L13551.7663,-3395.2516L13551.7455,-3395.2576L13551.7158,-3395.2751L13551.6667,-3395.291L13551.6597,-3395.2933L13551.6438,-3395.2949L13551.6157,-3395.2903L13551.6068,-3395.2889L13551.5282,-3395.229L13551.5217,-3395.224L13551.4953,-3395.2064L13551.4613,-3395.1792L13551.429,-3395.1462L13551.3947,-3395.1209L13551.3723,-3395.1093L13551.297,-3395.089L13551.1679,-3395.0956L13551.0827,-3395.0961L13550.9989,-3395.0807L13550.9131,-3395.0406L13550.8333,-3395.0153L13550.8204,-3395.0111L13550.7781,-3395.0023L13550.7736,-3395L13550.7537,-3394.9897L13550.7372,-3394.9611L13550.7075,-3394.927L13550.6883,-3394.9165L13550.6815,-3394.9086L13550.6335,-3394.8533L13550.5725,-3394.8183L13550.5388,-3394.815L13550.4999,-3394.7941L13550.4781,-3394.7704L13550.4405,-3394.7517L13550.4061,-3394.7264L13550.3118,-3394.6929L13550.2149,-3394.6663L13550.1719,-3394.6169L13550.1521,-3394.6064L13550.0564,-3394.5866L13550,-3394.5855L13549.9713,-3394.585L13549.8835,-3394.5822L13549.8637,-3394.5861L13549.7937,-3394.5938L13549.764,-3394.6064L13549.7206,-3394.6031L13549.6792,-3394.597L13549.652,-3394.5877L13549.6298,-3394.5754L13549.5989,-3394.5466L13549.5632,-3394.5198L13549.5314,-3394.4857L13549.5121,-3394.4667L13549.5104,-3394.4651L13549.4944,-3394.461L13549.4648,-3394.4641L13549.4179,-3394.462L13549.3685,-3394.4507L13549.3324,-3394.4294L13549.2941,-3394.4088L13549.2398,-3394.3831L13549.2089,-3394.3667L13549.1818,-3394.3482L13549.1667,-3394.3473L13549.1633,-3394.3471L13549.1475,-3394.3501L13549.1203,-3394.3491L13549.1006,-3394.3439L13549.0709,-3394.3337L13549.0413,-3394.3131L13548.9907,-3394.2637L13548.9467,-3394.2279L13548.9282,-3394.2094L13548.9084,-3394.1806L13548.8978,-3394.1667L13548.8963,-3394.1647L13548.8714,-3394.1322L13548.8356,-3394.1045L13548.8023,-3394.0942L13548.7901,-3394.0926L13548.7698,-3394.09L13548.7241,-3394.0869L13548.6908,-3394.0766L13548.6353,-3394.0499L13548.6007,-3394.0303L13548.583,-3394.029L13548.5735,-3394.0283L13548.5331,-3394.0297L13548.4886,-3394.0379L13548.438,-3394.0534L13548.4033,-3394.0711L13548.3936,-3394.076L13548.3731,-3394.0959L13548.3333,-3394.1401L13548.3286,-3394.1453L13548.3074,-3394.1611L13548.2999,-3394.1667L13548.2959,-3394.1697L13548.2817,-3394.1802L13548.2583,-3394.1926L13548.236,-3394.208L13548.2184,-3394.2292L13548.2023,-3394.2457L13548.1826,-3394.255L13548.1665,-3394.257L13548.1319,-3394.256L13548.1048,-3394.257L13548.0628,-3394.2632L13548.0122,-3394.2725L13547.9875,-3394.2714L13547.9715,-3394.2683L13547.9599,-3394.2626L13547.9544,-3394.2599L13547.9026,-3394.2209L13547.8693,-3394.2096L13547.8458,-3394.2096L13547.8261,-3394.2157L13547.8125,-3394.2198L13547.7952,-3394.2178L13547.7718,-3394.2054L13547.7298,-3394.1921L13547.7134,-3394.191L13547.6739,-3394.1931L13547.6479,-3394.2054L13547.622,-3394.2249L13547.6035,-3394.2105L13547.5702,-3394.1848L13547.5471,-3394.1667L13547.5269,-3394.1509L13547.5,-3394.1254L13547.4989,-3394.1243L13547.4829,-3394.0955L13547.4693,-3394.0791L13547.4557,-3394.0708L13547.4273,-3394.0534L13547.4174,-3394.0437L13547.3977,-3394.0246L13547.3727,-3393.989L13547.3557,-3393.9649L13547.3311,-3393.9258L13547.3048,-3393.8955L13547.2875,-3393.8729L13547.285,-3393.8606L13547.2863,-3393.842L13547.2838,-3393.8184L13547.269,-3393.7875L13547.2456,-3393.7599L13547.2275,-3393.7505L13547.1839,-3393.7278L13547.1312,-3393.7106L13547.0772,-3393.6946L13547.0321,-3393.6839L13546.9987,-3393.6731L13546.9416,-3393.6504L13546.9134,-3393.6344L13546.8722,-3393.6183L13546.8451,-3393.6134L13546.8246,-3393.6097L13546.7706,-3393.6076L13546.7526,-3393.6097L13546.7298,-3393.6184L13546.6681,-3393.6463L13546.6667,-3393.6467L13546.6051,-3393.6624L13546.5806,-3393.6667L13546.5163,-3393.6784L13546.4803,-3393.6849L13546.4676,-3393.6914L13546.4316,-3393.7193L13546.4111,-3393.7375L13546.3879,-3393.7418L13546.3416,-3393.7418L13546.3159,-3393.7439L13546.2992,-3393.7514L13546.2671,-3393.7664L13546.2567,-3393.7804L13546.249,-3393.8039L13546.248,-3393.8105L13546.24,-3393.8637L13546.2336,-3393.928L13546.222,-3393.9934L13546.2078,-3394.017L13546.1929,-3394.064L13546.1788,-3394.0972L13546.1647,-3394.1133L13546.1402,-3394.1315L13546.1081,-3394.1476L13546.0337,-3394.1642L13546.0221,-3394.1667L13545.9669,-3394.1782L13545.9347,-3394.1825L13545.9026,-3394.19L13545.8859,-3394.2039L13545.8653,-3394.2317L13545.8524,-3394.2682L13545.8415,-3394.29L13545.8333,-3394.3023L13545.8209,-3394.3211L13545.8196,-3394.3543L13545.8333,-3394.4086L13545.835,-3394.4154L13545.8333,-3394.4205L13545.8286,-3394.4347L13545.7897,-3394.5111L13545.7825,-3394.5197L13545.7692,-3394.5357L13545.7087,-3394.5722L13545.6483,-3394.6021L13545.5878,-3394.6257L13545.5237,-3394.6397L13545.4877,-3394.6451L13545.4504,-3394.6472L13545.4193,-3394.6434L13545.4157,-3394.6429L13545.3771,-3394.6311L13545.3215,-3394.6167L13545.2778,-3394.6081L13545.2392,-3394.6038L13545.1942,-3394.6027L13545.1492,-3394.607L13545.1094,-3394.6113L13545.0618,-3394.6124L13545.0451,-3394.6087L13545.008,-3394.6006L13545.0062,-3394.6008L13545,-3394.6014L13544.9771,-3394.6038L13544.918,-3394.6156L13544.8704,-3394.6263L13544.8177,-3394.6306L13544.7907,-3394.6285L13544.7714,-3394.6231L13544.7369,-3394.6126L13544.724,-3394.6086L13544.697,-3394.6064L13544.6816,-3394.6107L13544.625,-3394.6279L13544.607,-3394.6279L13544.5723,-3394.6257L13544.49,-3394.6225L13544.4137,-3394.6211L13544.353,-3394.6202L13544.3349,-3394.6237L13544.3158,-3394.6334L13544.2796,-3394.6512L13544.2413,-3394.6672L13544.2094,-3394.6734L13544.1859,-3394.6822L13544.1667,-3394.6946L13544.1606,-3394.6985L13544.1404,-3394.7065L13544.0574,-3394.7313L13544.052,-3394.7109L13544.047,-3394.6933L13544.0194,-3394.665L13543.9662,-3394.6322L13543.9489,-3394.6133L13543.9276,-3394.5805L13543.917,-3394.5681L13543.8734,-3394.5326L13543.8606,-3394.5122L13543.8425,-3394.4803L13543.8416,-3394.4764L13543.8383,-3394.4617L13543.842,-3394.4418L13543.8467,-3394.4146L13543.8537,-3394.3744L13543.8494,-3394.3647L13543.8377,-3394.3532L13543.8207,-3394.3434L13543.7579,-3394.3221L13543.6962,-3394.2955L13543.6687,-3394.279L13543.6219,-3394.2577L13543.5581,-3394.2373L13543.5484,-3394.2328L13543.524,-3394.2213L13543.508,-3394.2054L13543.4866,-3394.1667L13543.485,-3394.1638L13543.4435,-3394.0698L13543.4371,-3394.0307L13543.418,-3394.0237L13543.3333,-3394.0005L13543.3314,-3394L13543.2835,-3393.9947L13543.2324,-3393.992L13543.2197,-3393.9947L13543.2016,-3393.9991L13543.1718,-3394.0133L13543.1423,-3394.0375L13543.1317,-3394.0438L13543.1237,-3394.0486L13543.0976,-3394.0641L13543.0763,-3394.0827L13543.0667,-3394.0996L13543.0657,-3394.1102L13543.0667,-3394.12L13543.0919,-3394.1544L13543.1001,-3394.1667L13543.1579,-3394.2537L13543.198,-3394.3098L13543.2235,-3394.3453L13543.2427,-3394.3808L13543.2576,-3394.403L13543.2969,-3394.4349L13543.3333,-3394.47L13543.3374,-3394.4739L13543.3689,-3394.5057L13543.3817,-3394.5288L13543.3806,-3394.5385L13543.3764,-3394.5456L13543.3689,-3394.5518L13543.3604,-3394.5554L13543.3366,-3394.5562L13543.3359,-3394.5562L13543.3333,-3394.5556L13543.3201,-3394.5524L13543.3072,-3394.5492L13543.2701,-3394.5312L13543.1935,-3394.4912L13543.0934,-3394.4451L13543.0687,-3394.4384L13543.0209,-3394.4393L13543.006,-3394.4375L13542.9592,-3394.4207L13542.9432,-3394.4189L13542.8918,-3394.4328L13542.8205,-3394.462L13542.7269,-3394.5028L13542.6981,-3394.5144L13542.6828,-3394.5158L13542.6499,-3394.5185L13542.6286,-3394.5229L13542.6169,-3394.5309L13542.6094,-3394.5406L13542.5934,-3394.5797L13542.5839,-3394.5903L13542.5615,-3394.5983L13542.5094,-3394.6098L13542.5,-3394.6118L13542.4891,-3394.6142L13542.4689,-3394.6124L13542.453,-3394.6036L13542.4371,-3394.592L13542.42,-3394.5797L13542.3906,-3394.5467L13542.3512,-3394.5147L13542.3129,-3394.4961L13542.2703,-3394.4784L13542.249,-3394.4607L13542.2366,-3394.4441L13542.2143,-3394.4139L13542.1975,-3394.3844L13542.1739,-3394.3429L13542.1333,-3394.2882L13542.0884,-3394.253L13542.0448,-3394.2104L13542.0128,-3394.1723L13542.008,-3394.1667L13541.9916,-3394.1475L13541.975,-3394.1162L13541.9644,-3394.0931L13541.9612,-3394.0727L13541.9633,-3394.0621L13541.9793,-3394.024L13541.9825,-3393.9992L13541.9793,-3393.9814L13541.9711,-3393.9661L13541.9424,-3393.9421L13541.9104,-3393.9235L13541.8827,-3393.9111L13541.8529,-3393.896L13541.8466,-3393.8898L13541.8402,-3393.8836L13541.8327,-3393.8667L13541.821,-3393.8357L13541.7912,-3393.7887L13541.7746,-3393.7564L13541.7725,-3393.7413L13541.7799,-3393.7245L13541.8221,-3393.6462L13541.8519,-3393.5824L13541.8593,-3393.5629L13541.8561,-3393.546L13541.8508,-3393.5097L13541.8491,-3393.4921L13541.8534,-3393.4797L13541.8555,-3393.461L13541.8534,-3393.4415L13541.8459,-3393.4264L13541.8396,-3393.414L13541.8315,-3393.393L13541.8229,-3393.3681L13541.8123,-3393.3513L13541.8006,-3393.3407L13541.7877,-3393.3333L13541.774,-3393.3256L13541.7421,-3393.3052L13541.7116,-3393.2838L13541.6843,-3393.2588L13541.6667,-3393.2381L13541.6429,-3393.2104L13541.5904,-3393.1504L13541.5543,-3393.1114L13541.5466,-3393.1068L13541.5164,-3393.0887L13541.4311,-3393.0547L13541.3677,-3393.029L13541.3061,-3392.9997L13541.2824,-3392.9924L13541.2674,-3392.9902L13541.2576,-3392.9907L13541.2419,-3392.9916L13541.219,-3392.9924L13541.204,-3392.9968L13541.1776,-3393.0136L13541.1565,-3393.021L13541.1309,-3393.0261L13541.1036,-3393.0276L13541.0896,-3393.0261L13541.0614,-3393.0132L13541.0192,-3393.0007L13540.9866,-3392.9934L13540.9391,-3392.9868L13540.8933,-3392.9794L13540.8538,-3392.9702L13540.8333,-3392.9677L13540.8071,-3392.9644L13540.7807,-3392.9666L13540.7507,-3392.971L13540.719,-3392.9798L13540.6566,-3392.9861L13540.6276,-3392.9868L13540.5915,-3392.9816L13540.5483,-3392.9758L13540.5298,-3392.978L13540.5023,-3392.9837L13540.5016,-3392.9839L13540.4664,-3392.9912L13540.4383,-3393.0004L13540.4005,-3393.0225L13540.3538,-3393.0408L13540.3142,-3393.0489L13540.2631,-3393.057L13540.2263,-3393.061L13540.1963,-3393.061L13540.1567,-3393.0596L13540.1356,-3393.0574L13540.1127,-3393.0515L13540.0675,-3393.0323L13540.0209,-3393.0147L13540,-3393.0102L13539.9901,-3393.0081L13539.9219,-3393.0029L13539.8955,-3393.0022L13539.8683,-3392.9977L13539.8594,-3392.9963L13539.8206,-3392.9846L13539.7863,-3392.9713L13539.7775,-3392.9662L13539.7713,-3392.9581L13539.7706,-3392.9525L13539.7706,-3392.9406L13539.7753,-3392.9059L13539.7807,-3392.8556L13539.7843,-3392.7981L13539.7867,-3392.7334L13539.7902,-3392.7186L13539.8069,-3392.6967L13539.8077,-3392.6946L13539.8164,-3392.672L13539.82,-3392.6561L13539.8176,-3392.6333L13539.817,-3392.6152L13539.8277,-3392.5781L13535.1562,-3392.5781L13535.1562,-3400.5452L13535.1886,-3400.5216L13535.2064,-3400.5092L13535.2224,-3400.5061L13535.2683,-3400.5256L13535.2998,-3400.5279L13535.3279,-3400.5372L13535.3495,-3400.5326L13535.3738,-3400.5154L13535.3888,-3400.5139L13535.4254,-3400.5388L13535.445,-3400.5483L13535.4544,-3400.5529L13535.4704,-3400.5513L13535.5013,-3400.5529L13535.5238,-3400.5607L13535.5435,-3400.5653L13535.5651,-3400.5607L13535.596,-3400.5341L13535.6017,-3400.5331L13535.6481,-3400.5248L13535.7156,-3400.4968L13535.7362,-3400.4921L13535.7962,-3400.5014L13535.8333,-3400.5014L13535.8609,-3400.5014L13535.9284,-3400.5116L13536.0334,-3400.517L13536.0405,-3400.533L13536.0484,-3400.5506L13536.054,-3400.6137L13536.0559,-3400.6286L13536.0665,-3400.6406L13536.1209,-3400.6602L13536.1509,-3400.6906L13536.1659,-3400.7023L13536.194,-3400.7147L13536.2277,-3400.7202L13536.2606,-3400.7187L13536.2924,-3400.7327L13536.3506,-3400.7506L13536.3834,-3400.7717L13536.4199,-3400.7857L13536.4257,-3400.8034L13536.4129,-3400.8333L13536.4107,-3400.8385L13536.4098,-3400.8526L13536.4115,-3400.8623L13536.4163,-3400.8892L13536.4276,-3400.9212L13536.4266,-3400.9384L13536.4229,-3400.9524L13536.4763,-3400.9774L13536.5007,-3400.9898L13536.5194,-3401.0015L13536.5373,-3401.0234L13536.5534,-3401.0582L13536.5872,-3401.12L13536.5956,-3401.1354L13536.6275,-3401.1814L13536.6388,-3401.2058L13536.6667,-3401.2661L13536.6668,-3401.2664L13536.6762,-3401.2789L13536.7034,-3401.2922L13536.7356,-3401.2996L13536.7994,-3401.3089L13536.8105,-3401.3079L13536.8256,-3401.3066L13536.9063,-3401.3152L13537.0207,-3401.33L13537.045,-3401.3347L13537.1313,-3401.3612L13537.1503,-3401.3677L13537.1636,-3401.3668L13537.2214,-3401.3423L13537.2219,-3401.3435L13537.2231,-3401.3464L13537.2791,-3401.3219L13537.3178,-3401.3018L13537.3832,-3401.2545L13537.3977,-3401.2475L13537.4981,-3401.2243L13537.5,-3401.2237L13537.5844,-3401.1949L13537.6013,-3401.1959L13537.6255,-3401.2009L13537.6546,-3401.213L13537.7078,-3401.22L13537.7538,-3401.2321L13537.7876,-3401.2371L13537.8556,-3401.2512L13537.8725,-3401.2502L13537.9524,-3401.2221L13537.9754,-3401.2201L13538.0032,-3401.2211L13538.081,-3401.2342L13538.1064,-3401.2342L13538.1742,-3401.2241L13538.2007,-3401.2161L13538.2201,-3401.205L13538.2376,-3401.1863L13538.2674,-3401.1545L13538.2807,-3401.1495L13538.3333,-3401.1476L13538.3364,-3401.1475L13538.3993,-3401.1485L13538.4528,-3401.1535L13538.4777,-3401.1597L13538.5012,-3401.1656L13538.5835,-3401.1696L13538.6065,-3401.1666L13538.6597,-3401.1586L13538.7133,-3401.1535L13538.729,-3401.1505L13538.7677,-3401.1354L13538.7919,-3401.1313L13538.8645,-3401.1263L13538.9069,-3401.1243L13538.919,-3401.1203L13539.0306,-3401.0607L13539.0681,-3401.044L13539.085,-3401.0365L13539.108,-3401.0274L13539.1346,-3401.0144L13539.1528,-3401.0104L13539.1667,-3401.012L13539.1697,-3401.0124L13539.229,-3401.0486L13539.2587,-3401.0607L13539.2909,-3401.0738L13539.3104,-3401.0854L13539.3302,-3401.1027L13539.3551,-3401.1188L13539.3976,-3401.141L13539.431,-3401.153L13539.4572,-3401.1612L13539.4836,-3401.1737L13539.5139,-3401.1939L13539.5308,-3401.2019L13539.5647,-3401.209L13539.5937,-3401.217L13539.6312,-3401.2371L13539.7234,-3401.2704L13539.7633,-3401.2785L13539.7681,-3401.2805L13539.7717,-3401.2895L13539.7864,-3401.327L13539.8058,-3401.3572L13539.8445,-3401.3905L13539.8736,-3401.4328L13539.882,-3401.4428L13539.9354,-3401.4673L13539.9657,-3401.4814L13539.9814,-3401.4864L13540,-3401.4878L13540.0093,-3401.4884L13540.0661,-3401.4834L13540.0843,-3401.4864L13540.1012,-3401.4935L13540.1133,-3401.5086L13540.1268,-3401.5309L13540.1275,-3401.5354L13540.1317,-3401.5641L13540.1329,-3401.6114L13540.1353,-3401.6225L13540.166,-3401.6667L13540.1668,-3401.6678L13540.1813,-3401.6862L13540.1995,-3401.7013L13540.2116,-3401.7305L13540.2164,-3401.7547L13540.2128,-3401.8151L13540.2201,-3401.8536L13540.2285,-3401.8969L13540.2346,-3401.909L13540.2454,-3401.9191L13540.2539,-3401.9231L13540.3265,-3401.9272L13540.3628,-3401.9372L13540.4104,-3401.9566L13540.4588,-3401.9707L13540.5628,-3401.9929L13540.6137,-3401.9969L13540.6621,-3402.013L13540.6802,-3402.016L13540.7131,-3402.0151L13540.7216,-3402.0151L13540.7313,-3402.0201L13540.7676,-3402.0463L13540.8075,-3402.0634L13540.8125,-3402.0656L13540.8333,-3402.075L13540.8365,-3402.0764L13540.8547,-3402.0976L13540.8729,-3402.1179L13540.8826,-3402.127L13540.9528,-3402.1552L13541.0109,-3402.1924L13541.0451,-3402.2088L13541.0838,-3402.2239L13541.1334,-3402.2531L13541.1588,-3402.2602L13541.1963,-3402.2592L13541.212,-3402.2602L13541.2302,-3402.2672L13541.2571,-3402.2815L13541.3708,-3402.3268L13541.4095,-3402.3378L13541.441,-3402.3459L13541.4979,-3402.3671L13541.5148,-3402.3781L13541.5671,-3402.4176L13541.5998,-3402.4378L13541.6288,-3402.4499L13541.6639,-3402.4569L13541.6667,-3402.4587L13541.6797,-3402.467L13541.6942,-3402.4821L13541.7001,-3402.5L13541.7075,-3402.5223L13541.7083,-3402.5338L13541.7099,-3402.5576L13541.716,-3402.5901L13541.7257,-3402.6425L13541.7281,-3402.6919L13541.7366,-3402.7142L13541.7415,-3402.7182L13541.7512,-3402.7202L13541.8383,-3402.7192L13541.8722,-3402.7152L13541.9109,-3402.7192L13541.95,-3402.7232L13541.9911,-3402.7313L13542.0323,-3402.7333L13542.0553,-3402.7323L13542.1254,-3402.7222L13542.1569,-3402.7222L13542.1786,-3402.7172L13542.1907,-3402.7162L13542.1939,-3402.7163L13542.2164,-3402.7172L13542.2479,-3402.7263L13542.2684,-3402.7283L13542.289,-3402.7243L13542.3181,-3402.7202L13542.3399,-3402.7233L13542.4039,-3402.7404L13542.4926,-3402.7626L13542.5,-3402.7626L13542.512,-3402.7626L13542.5398,-3402.7565L13542.5949,-3402.7329L13542.6124,-3402.7253L13542.6439,-3402.7183L13542.6512,-3402.7183L13542.6572,-3402.7213L13542.6657,-3402.7424L13542.6983,-3402.7797L13542.7116,-3402.7958L13542.7215,-3402.8241L13542.7263,-3402.8302L13542.7517,-3402.8412L13542.765,-3402.8523L13542.8037,-3402.9097L13542.811,-3402.9177L13542.8243,-3402.9218L13542.8462,-3402.9238L13542.8667,-3402.9329L13542.9103,-3402.95L13542.9309,-3402.952L13542.9588,-3402.9552L13542.9685,-3402.9592L13543.0105,-3402.9981L13543.0217,-3403.0086L13543.0568,-3403.0317L13543.074,-3403.036L13543.1168,-3403.0332L13543.1345,-3403.032L13543.1647,-3403.036L13543.2337,-3403.0552L13543.3151,-3403.0834L13543.3333,-3403.0867L13543.3647,-3403.0924L13543.3732,-3403.0924L13543.4107,-3403.0874L13543.4494,-3403.0864L13543.4688,-3403.0814L13543.4738,-3403.0797L13543.4945,-3403.0731L13543.5281,-3403.0622L13543.5474,-3403.0602L13543.601,-3403.0612L13543.6155,-3403.0662L13543.647,-3403.0773L13543.6699,-3403.0793L13543.7063,-3403.0773L13543.7171,-3403.0783L13543.722,-3403.0813L13543.7621,-3403.153L13543.779,-3403.1712L13543.8286,-3403.2044L13543.8942,-3403.2439L13543.9414,-3403.2781L13543.9789,-3403.3174L13543.9885,-3403.3333L13543.9898,-3403.3355L13543.9983,-3403.3728L13544.0087,-3403.3921L13544.0091,-3403.3929L13544.0177,-3403.4053L13544.0237,-3403.4103L13544.037,-3403.4204L13544.0612,-3403.4425L13544.077,-3403.4496L13544.1229,-3403.4627L13544.1667,-3403.4809L13544.1762,-3403.4848L13544.2018,-3403.4991L13544.2223,-3403.5051L13544.2502,-3403.5111L13544.2598,-3403.5152L13544.2949,-3403.5655L13544.2998,-3403.5708L13544.3375,-3403.612L13544.3581,-3403.6261L13544.3859,-3403.6634L13544.4197,-3403.6936L13544.5313,-3403.7743L13544.5883,-3403.8117L13544.6149,-3403.8208L13544.6754,-3403.8299L13544.6947,-3403.8359L13544.7722,-3403.8701L13544.8692,-3403.9217L13544.8813,-3403.9308L13544.9043,-3403.9529L13544.9237,-3403.968L13544.9855,-3404.0084L13545,-3404.0162L13545.0267,-3404.0306L13545.0897,-3404.066L13545.1321,-3404.0791L13545.1756,-3404.0891L13545.1776,-3404.0887L13545.1853,-3404.0871L13545.2313,-3404.0539L13545.2642,-3404.0337L13545.2703,-3404.0246L13545.2763,-3403.9984L13545.2823,-3403.9944L13545.3392,-3403.9723L13545.3864,-3403.9672L13545.4027,-3403.9657L13545.4823,-3403.9581L13545.5186,-3403.9551L13545.5416,-3403.9501L13545.5549,-3403.943L13545.6275,-3403.8836L13545.6371,-3403.8796L13545.6517,-3403.8786L13545.6918,-3403.89L13545.7049,-3403.8937L13545.7206,-3403.8917L13545.8153,-3403.8724L13545.8333,-3403.8653L13545.8589,-3403.8553L13545.8928,-3403.8382L13545.917,-3403.8181L13545.9704,-3403.7695L13546.0673,-3403.6736L13546.0724,-3403.6696L13546.0987,-3403.6494L13546.1592,-3403.6172L13546.1725,-3403.6041L13546.1979,-3403.5709L13546.2247,-3403.5272L13546.2331,-3403.5172L13546.2513,-3403.5081L13546.2924,-3403.49L13546.3068,-3403.4748L13546.3239,-3403.4568L13546.3384,-3403.4497L13546.3931,-3403.4173L13546.4246,-3403.3891L13546.4379,-3403.371L13546.45,-3403.3407L13546.45,-3403.3333L13546.45,-3403.2995L13546.4536,-3403.2884L13546.4754,-3403.2317L13546.4851,-3403.2197L13546.4912,-3403.2166L13546.5093,-3403.2146L13546.5735,-3403.2156L13546.6109,-3403.2106L13546.6657,-3403.1893L13546.6667,-3403.1889L13546.708,-3403.1702L13546.7298,-3403.1642L13546.7467,-3403.1621L13546.7758,-3403.1672L13546.8157,-3403.1722L13546.8531,-3403.1738L13546.8871,-3403.1752L13546.9431,-3403.1712L13546.9661,-3403.1732L13547.023,-3403.1903L13547.0895,-3403.2014L13547.1282,-3403.2004L13547.179,-3403.1853L13547.1948,-3403.1853L13547.2008,-3403.1863L13547.2435,-3403.2035L13547.2762,-3403.2086L13547.3101,-3403.2056L13547.3355,-3403.2015L13547.373,-3403.1904L13547.3887,-3403.1925L13547.4037,-3403.1976L13547.448,-3403.2126L13547.4761,-3403.2217L13547.5,-3403.2235L13547.5148,-3403.2247L13547.6249,-3403.2146L13547.6394,-3403.2156L13547.66,-3403.2227L13547.7133,-3403.2549L13547.7535,-3403.2842L13547.7801,-3403.2973L13547.8067,-3403.3013L13547.8333,-3403.2993L13547.8587,-3403.2912L13547.8914,-3403.2761L13547.8951,-3403.2755L13547.9107,-3403.2731L13547.9313,-3403.2731L13547.9812,-3403.2812L13548.0187,-3403.2842L13548.0284,-3403.2832L13548.0574,-3403.2751L13548.0756,-3403.2641L13548.0961,-3403.2449L13548.1095,-3403.2409L13548.1204,-3403.2429L13548.1651,-3403.262L13548.2761,-3403.3333L13548.2828,-3403.3376L13548.3167,-3403.3537L13548.3333,-3403.3673L13548.3833,-3403.4081L13548.4026,-3403.4182L13548.4488,-3403.4223L13548.4924,-3403.4142L13548.5323,-3403.4052L13548.5976,-3403.384L13548.6206,-3403.381L13548.6509,-3403.384L13548.7515,-3403.4314L13548.8628,-3403.4757L13548.8717,-3403.4787L13548.9503,-3403.5051L13548.9757,-3403.5112L13549.0737,-3403.5252L13549.1354,-3403.5383L13549.1667,-3403.5523L13549.1826,-3403.5595L13549.2616,-3403.5807L13549.3851,-3403.5918L13549.4313,-3403.5909L13549.4494,-3403.5929L13549.453,-3403.5979L13549.4748,-3403.6312L13549.4917,-3403.6513L13549.5704,-3403.6927L13549.5826,-3403.7038L13549.6067,-3403.7421L13549.6189,-3403.7715L13549.625,-3403.8161L13549.6262,-3403.8249L13549.6431,-3403.8954L13549.6492,-3403.9014L13549.6819,-3403.9126L13549.6989,-3403.9237L13549.6989,-3403.9237L13549.7165,-3403.9475L13549.7202,-3403.9669L13549.7304,-3403.9762L13549.7335,-3403.9862L13549.7368,-3403.9966L13549.7504,-3404.0718L13549.7639,-3404.1085L13549.7927,-3404.1493L13549.8165,-3404.1667L13549.8198,-3404.1691L13549.8317,-3404.2029L13549.8385,-3404.2551L13549.8639,-3404.3044L13549.8825,-3404.3157L13549.9317,-3404.2889L13550,-3404.2644Z"/>
</g>
</svg>
