<?xml version="1.0" encoding="UTF-8"?>
<svg  xmlns="http://www.w3.org/2000/svg" xmlns:xlink="http://www.w3.org/1999/xlink" xmlns:go="http://purl.org/svgmap/profile" property="geometry,N03_001,N03_002,N03_003,N03_004,N03_005,N03_007" viewBox="13587.890625 -3392.578125 17.578125 17.578125" go:dataArea="13587.890625 -3392.578125 17.578125 17.578125" >
<metadata>
 <rdf:RDF xmlns:rdf="http://www.w3.org/1999/02/22-rdf-syntax-ns#" xmlns:crs="http://opengis.org/xmldtds/transformations.dtd" xmlns:svg="http://www.w3.org/svg" >
  <rdf:Description>
   <crs:CoordinateReferenceSystem rdf:resource="http://purl.org/crs/84" svg:transform="matrix(100.0,0.0,0.0,-100.0,0.0,0.0)" />
  </rdf:Description>
 </rdf:RDF>
</metadata>
<globalCoordinateSystem srsName="http://purl.org/crs/84" transform="matrix(100.0,0.0,0.0,-100.0,0.0,0.0)" />
<defs>
 <g id="p0" >
  <circle cx="0.0" cy="0.0" r="3" stroke="green" stroke-width="2.0" vector-effect="non-scaling-stroke" />
 </g>
</defs>
<g fill="#0000ff" fill-rule="evenodd" opacity="0.5" >
<path content="奈良県,,吉野郡,十津川村,,29449" xlink:title="奈良県" d="M13587.8906,-3392.5781L13589.907,-3392.5781L13589.9088,-3392.5724L13589.9109,-3392.5452L13589.9211,-3392.5257L13589.9511,-3392.5L13589.96,-3392.4924L13589.9865,-3392.4737L13590,-3392.469L13590.0201,-3392.4619L13590.0625,-3392.4553L13590.0751,-3392.4534L13590.1538,-3392.4449L13590.1976,-3392.4347L13590.2231,-3392.4254L13590.2496,-3392.4109L13590.2659,-3392.4058L13590.2791,-3392.4067L13590.3058,-3392.4212L13590.3669,-3392.4761L13590.371,-3392.4798L13590.3921,-3392.5L13590.4376,-3392.5435L13590.462,-3392.5579L13590.4732,-3392.5579L13590.4875,-3392.552L13590.5149,-3392.533L13590.5242,-3392.5265L13590.5651,-3392.5L13590.5792,-3392.4909L13590.6366,-3392.4618L13590.6763,-3392.4371L13590.7089,-3392.4252L13590.7527,-3392.404L13590.7888,-3392.3824L13590.8333,-3392.3557L13590.8876,-3392.3232L13590.9025,-3392.3125L13590.9171,-3392.302L13590.9517,-3392.2824L13590.9731,-3392.2697L13590.9864,-3392.2536L13590.9884,-3392.2296L13590.9864,-3392.2142L13590.9732,-3392.1846L13590.9548,-3392.1549L13590.9456,-3392.1275L13590.9354,-3392.0986L13590.9346,-3392.0869L13590.9324,-3392.0553L13590.9334,-3392.0014L13590.9305,-3391.9892L13590.9289,-3391.9491L13590.9201,-3391.9026L13590.9117,-3391.8633L13590.9084,-3391.8474L13590.8556,-3391.8579L13590.8333,-3391.8641L13590.7719,-3391.8812L13590.6783,-3391.9072L13590.5812,-3391.9456L13590.4838,-3391.988L13590.456,-3392.0014L13590.4262,-3392.0241L13590.3923,-3392.0447L13590.3859,-3392.0477L13590.3178,-3392.0798L13590.2964,-3392.0939L13590.2603,-3392.1079L13590.234,-3392.115L13590.2056,-3392.1137L13590.1703,-3392.1086L13590.1243,-3392.1035L13590.0882,-3392.1022L13590.0558,-3392.1048L13590.0228,-3392.1163L13590,-3392.1285L13589.9929,-3392.1323L13589.9714,-3392.1387L13589.8906,-3392.1515L13589.8537,-3392.1572L13589.8249,-3392.1591L13589.8146,-3392.1598L13589.7586,-3392.1521L13589.6771,-3392.1432L13589.6264,-3392.1336L13589.5627,-3392.1176L13589.5119,-3392.0982L13589.4689,-3392.079L13589.4352,-3392.0592L13589.3945,-3392.0279L13589.3699,-3392.0014L13589.3794,-3391.9646L13589.3992,-3391.9049L13589.4002,-3391.902L13589.434,-3391.8381L13589.4548,-3391.8102L13589.4786,-3391.7672L13589.4964,-3391.7489L13589.5254,-3391.7316L13589.554,-3391.7155L13589.6107,-3391.6667L13589.627,-3391.6526L13589.6573,-3391.6139L13589.6817,-3391.5714L13589.7321,-3391.4981L13589.7393,-3391.4766L13589.763,-3391.3969L13589.7785,-3391.3333L13589.7874,-3391.2609L13589.785,-3391.2292L13589.7713,-3391.1587L13589.7644,-3391.099L13589.7588,-3391.0512L13589.7511,-3391.0041L13589.7357,-3390.9659L13589.7072,-3390.8919L13589.6799,-3390.8409L13589.6761,-3390.8333L13589.63,-3390.7422L13589.5582,-3390.6635L13589.5339,-3390.6452L13589.4967,-3390.6319L13589.4296,-3390.6176L13589.3951,-3390.6151L13589.2854,-3390.6225L13589.1898,-3390.6374L13589.1667,-3390.6415L13589.0903,-3390.6552L13589.0516,-3390.6594L13588.93,-3390.6726L13588.8796,-3390.6819L13588.8285,-3390.6948L13588.7569,-3390.7032L13588.7112,-3390.7057L13588.6827,-3390.7042L13588.6198,-3390.6978L13588.5474,-3390.6884L13588.505,-3390.6919L13588.4629,-3390.7018L13588.3816,-3390.7275L13588.3579,-3390.7341L13588.3333,-3390.7409L13588.3024,-3390.7495L13588.217,-3390.7827L13588.1861,-3390.8064L13588.1671,-3390.8277L13588.1643,-3390.8333L13588.1416,-3390.8792L13588.1208,-3390.9138L13588.1,-3390.9307L13588.0761,-3390.9372L13588.0798,-3390.9471L13588.0835,-3390.9567L13588.0883,-3390.9749L13588.0859,-3390.9901L13588.0835,-3391.0048L13588.0798,-3391.0227L13588.0893,-3391.0431L13588.1165,-3391.0715L13588.1261,-3391.0915L13588.1266,-3391.1168L13588.1186,-3391.1288L13588.0766,-3391.1459L13588.0516,-3391.1614L13588.0297,-3391.1898L13588.0058,-3391.2377L13587.9989,-3391.2679L13587.9989,-3391.2965L13588.0074,-3391.3201L13588.026,-3391.3418L13588.0622,-3391.3906L13588.0816,-3391.4132L13588.1051,-3391.426L13588.1657,-3391.4535L13588.1891,-3391.4668L13588.1987,-3391.4783L13588.2019,-3391.4916L13588.1955,-3391.5227L13588.1753,-3391.5519L13588.1327,-3391.5741L13588.1157,-3391.5919L13588.107,-3391.6133L13588.0926,-3391.6493L13588.0868,-3391.6639L13588.085,-3391.6667L13588.0716,-3391.6881L13588.0715,-3391.6882L13588.0566,-3391.7147L13588.0492,-3391.7608L13588.0428,-3391.7786L13588.0215,-3391.7927L13587.9938,-3391.7954L13587.914,-3391.7945L13587.8906,-3391.7894L13587.8906,-3388.3256L13587.8964,-3388.323L13587.9523,-3388.319L13587.9732,-3388.3042L13588.0152,-3388.2625L13588.0357,-3388.2434L13588.0429,-3388.2367L13588.0658,-3388.1975L13588.0887,-3388.1624L13588.1169,-3388.1358L13588.1559,-3388.1086L13588.166,-3388.0952L13588.1771,-3388.0487L13588.1926,-3388.0152L13588.2182,-3387.9695L13588.2427,-3387.9317L13588.2688,-3387.8871L13588.2661,-3387.8822L13588.2411,-3387.8724L13588.2076,-3387.8573L13588.1949,-3387.8449L13588.1869,-3387.8152L13588.1741,-3387.7939L13588.1512,-3387.7615L13588.1405,-3387.7457L13588.1357,-3387.7227L13588.1251,-3387.6583L13588.1075,-3387.6085L13588.0878,-3387.5845L13588.0314,-3387.5552L13587.9786,-3387.5369L13587.9351,-3387.528L13587.9026,-3387.5213L13587.8906,-3387.5175Z"/>
<path content="和歌山県,,,新宮市,,30207" xlink:title="和歌山県" d="M13587.8906,-3375L13587.8906,-3380.4326L13588.0407,-3380.2963L13588.0955,-3380.2558L13588.1251,-3380.234L13588.1682,-3380.2075L13588.251,-3380.1566L13588.3136,-3380.1333L13588.3167,-3380.1322L13588.3333,-3380.1307L13588.3461,-3380.1296L13588.3816,-3380.1339L13588.5155,-3380.1982L13588.6206,-3380.2389L13588.7322,-3380.2593L13588.7971,-3380.2669L13588.8539,-3380.2627L13588.927,-3380.2482L13589.0021,-3380.2186L13589.0913,-3380.1678L13589.1667,-3380.1077L13589.1681,-3380.1065L13589.2401,-3380.0346L13589.2637,-3380.0069L13589.2696,-3380L13589.2923,-3379.9735L13589.4014,-3379.8457L13589.4706,-3379.7673L13589.5193,-3379.6894L13589.5913,-3379.5557L13589.6455,-3379.4408L13589.7071,-3379.3103L13589.7609,-3379.1936L13589.7733,-3379.1667L13589.8026,-3379.1032L13589.8166,-3379.0605L13589.8229,-3379.0414L13589.8229,-3379.01L13589.8067,-3378.9694L13589.7762,-3378.9113L13589.6839,-3378.7632L13589.6747,-3378.7284L13589.6778,-3378.6937L13589.7012,-3378.6509L13589.7462,-3378.6014L13589.9526,-3378.3333L13590,-3378.2717L13590.007,-3378.2626L13590.028,-3378.2354L13590.1398,-3378.0824L13590.1715,-3378.0401L13590.2242,-3377.9391L13590.2891,-3377.7664L13590.3343,-3377.6309L13590.3674,-3377.5245L13590.3738,-3377.5L13590.4603,-3377.1714L13590.4629,-3377.1612L13590.5309,-3376.9528L13590.5675,-3376.848L13590.5979,-3376.7964L13590.6486,-3376.7431L13590.6913,-3376.71L13590.7795,-3376.6787L13590.8333,-3376.6669L13590.8343,-3376.6667L13590.8571,-3376.6617L13590.9149,-3376.6574L13591.0508,-3376.6659L13591.0543,-3376.6667L13591.1604,-3376.69L13591.2781,-3376.7159L13591.3831,-3376.7278L13591.4876,-3376.7202L13591.586,-3376.7025L13591.6667,-3376.6711L13591.678,-3376.6667L13591.6905,-3376.6618L13591.7777,-3376.6042L13591.8389,-3376.5522L13591.9008,-3376.4649L13591.9282,-3376.4091L13591.9489,-3376.2799L13591.9629,-3376.1924L13591.9934,-3376.0468L13592.0503,-3375.8762L13592.0756,-3375.8432L13592.0879,-3375.8333L13592.1274,-3375.8017L13592.2399,-3375.7475L13592.3336,-3375.6717L13592.4188,-3375.6175L13592.5,-3375.5741L13592.5015,-3375.5733L13592.5102,-3375.5687L13592.7174,-3375.4587L13592.8371,-3375.402L13592.898,-3375.3834L13592.9558,-3375.38L13593.0475,-3375.3952L13593.1074,-3375.4232L13593.2102,-3375.4843L13593.3238,-3375.5681L13593.3333,-3375.5796L13593.391,-3375.6489L13593.4165,-3375.6697L13593.4813,-3375.7225L13593.5474,-3375.7523L13593.6398,-3375.7752L13593.7087,-3375.7769L13593.7554,-3375.7608L13593.799,-3375.7413L13593.8427,-3375.7091L13593.8684,-3375.6843L13593.8884,-3375.6259L13593.8904,-3375.4802L13593.8924,-3375.3367L13593.8698,-3375.2439L13593.8533,-3375.1057L13593.8558,-3375.0536L13593.8613,-3375Z"/>
<path content="和歌山県,,,新宮市,,30207" xlink:title="和歌山県" d="M13587.8906,-3391.7894L13587.914,-3391.7945L13587.9938,-3391.7954L13588.0215,-3391.7927L13588.0428,-3391.7786L13588.0492,-3391.7608L13588.0566,-3391.7147L13588.0715,-3391.6882L13588.0716,-3391.6881L13588.085,-3391.6667L13588.0868,-3391.6639L13588.0926,-3391.6493L13588.107,-3391.6133L13588.1157,-3391.5919L13588.1327,-3391.5741L13588.1753,-3391.5519L13588.1955,-3391.5227L13588.2019,-3391.4916L13588.1987,-3391.4783L13588.1891,-3391.4668L13588.1657,-3391.4535L13588.1051,-3391.426L13588.0816,-3391.4132L13588.0622,-3391.3906L13588.026,-3391.3418L13588.0074,-3391.3201L13587.9989,-3391.2965L13587.9989,-3391.2679L13588.0058,-3391.2377L13588.0297,-3391.1898L13588.0516,-3391.1614L13588.0766,-3391.1459L13588.1186,-3391.1288L13588.1266,-3391.1168L13588.1261,-3391.0915L13588.1165,-3391.0715L13588.0893,-3391.0431L13588.0798,-3391.0227L13588.0835,-3391.0048L13588.0859,-3390.9901L13588.0883,-3390.9749L13588.0835,-3390.9567L13588.0798,-3390.9471L13588.0761,-3390.9372L13588.0367,-3390.9363L13587.9978,-3390.9314L13587.9553,-3390.9212L13587.9233,-3390.9048L13587.9069,-3390.8924L13587.9004,-3390.8875L13587.8925,-3390.8755L13587.8956,-3390.8363L13587.8968,-3390.8333L13587.9121,-3390.7928L13587.9264,-3390.7367L13587.9323,-3390.7096L13587.9573,-3390.6358L13587.9738,-3390.5932L13587.9786,-3390.5346L13587.9861,-3390.5028L13588.01,-3390.4189L13588.0478,-3390.3189L13588.0856,-3390.2318L13588.1171,-3390.1894L13588.1793,-3390.1309L13588.2597,-3390.0708L13588.2965,-3390.0433L13588.3333,-3390.0125L13588.3483,-3390L13588.3636,-3389.9872L13588.3913,-3389.9543L13588.4238,-3389.9019L13588.4494,-3389.8614L13588.4782,-3389.8175L13588.4963,-3389.7988L13588.5564,-3389.7616L13588.6689,-3389.7054L13588.7184,-3389.6788L13588.7919,-3389.6302L13588.8058,-3389.6041L13588.8277,-3389.5253L13588.833,-3389.4934L13588.8202,-3389.4355L13588.8133,-3389.4092L13588.7973,-3389.3772L13588.7913,-3389.3696L13588.7468,-3389.3134L13588.7254,-3389.2866L13588.6717,-3389.2329L13588.6307,-3389.1987L13588.5891,-3389.1684L13588.5853,-3389.1667L13588.5598,-3389.1546L13588.5396,-3389.1382L13588.5188,-3389.0839L13588.5055,-3389.0071L13588.4858,-3388.9186L13588.457,-3388.8025L13588.4331,-3388.7206L13588.4219,-3388.6537L13588.4277,-3388.602L13588.438,-3388.5596L13588.4464,-3388.5248L13588.4709,-3388.4757L13588.5033,-3388.4273L13588.5337,-3388.3863L13588.5841,-3388.3333L13588.6071,-3388.3091L13588.6514,-3388.2698L13588.7275,-3388.2175L13588.8117,-3388.1739L13588.8746,-3388.1503L13588.9634,-3388.1232L13589.0507,-3388.0979L13589.0787,-3388.092L13589.1047,-3388.0974L13589.1667,-3388.1211L13589.1729,-3388.1235L13589.2566,-3388.1682L13589.2734,-3388.1772L13589.2907,-3388.1957L13589.2982,-3388.2241L13589.2955,-3388.2872L13589.2849,-3388.3254L13589.279,-3388.3333L13589.2284,-3388.4011L13589.2189,-3388.4321L13589.2194,-3388.4481L13589.2364,-3388.4827L13589.2551,-3388.5236L13589.2891,-3388.6272L13589.3019,-3388.7192L13589.3089,-3388.8024L13589.3057,-3388.9074L13589.2945,-3388.9354L13589.2594,-3388.9496L13589.1832,-3388.9642L13589.1667,-3388.9674L13589.1463,-3388.9714L13589.0617,-3388.9851L13589.0388,-3388.9926L13589.0266,-3389.0037L13589.0229,-3389.0282L13589.0266,-3389.0638L13589.0325,-3389.0946L13589.0633,-3389.1667L13589.0681,-3389.178L13589.1123,-3389.2505L13589.1618,-3389.342L13589.1667,-3389.3468L13589.2107,-3389.3904L13589.2342,-3389.394L13589.2571,-3389.3896L13589.3103,-3389.3487L13589.4157,-3389.2276L13589.4658,-3389.1679L13589.4669,-3389.1667L13589.4827,-3389.1489L13589.5522,-3389.0706L13589.5974,-3389.0253L13589.7013,-3388.9373L13589.802,-3388.8532L13589.8499,-3388.8049L13589.9298,-3388.7248L13590,-3388.6571L13590.0454,-3388.6132L13590.1313,-3388.5406L13590.1473,-3388.5171L13590.1584,-3388.4821L13590.1603,-3388.4499L13590.1633,-3388.399L13590.1652,-3388.3333L13590.1659,-3388.3091L13590.1638,-3388.1989L13590.1526,-3388.1545L13590.1276,-3388.0873L13590.1004,-3388.0046L13590.0802,-3387.9563L13590.0499,-3387.9291L13590,-3387.8858L13589.9977,-3387.8838L13589.9253,-3387.8268L13589.8773,-3387.7716L13589.8566,-3387.7306L13589.8463,-3387.7008L13589.8342,-3387.6654L13589.8254,-3387.6282L13589.8123,-3387.5725L13589.7976,-3387.5L13589.7958,-3387.4911L13589.7756,-3387.3694L13589.7703,-3387.3133L13589.7729,-3387.1964L13589.7772,-3387.0639L13589.7771,-3387.0057L13589.7718,-3386.9852L13589.7633,-3386.9746L13589.6862,-3386.9377L13589.5439,-3386.8794L13589.4981,-3386.8659L13589.4006,-3386.8371L13589.3328,-3386.8273L13589.2381,-3386.8233L13589.1667,-3386.8298L13589.1508,-3386.8313L13589.0883,-3386.8392L13589.0261,-3386.8637L13588.9755,-3386.8912L13588.8981,-3386.9437L13588.8214,-3387.0011L13588.7863,-3387.0312L13588.7154,-3387.0917L13588.6722,-3387.1544L13588.6413,-3387.202L13588.6259,-3387.2131L13588.6067,-3387.2229L13588.6035,-3387.2237L13588.5322,-3387.2411L13588.3979,-3387.2549L13588.3333,-3387.2545L13588.1933,-3387.2536L13588.1065,-3387.2505L13588.0431,-3387.2367L13587.9558,-3387.2172L13587.8906,-3387.202L13587.8906,-3387.5175L13587.9026,-3387.5213L13587.9351,-3387.528L13587.9786,-3387.5369L13588.0314,-3387.5552L13588.0878,-3387.5845L13588.1075,-3387.6085L13588.1251,-3387.6583L13588.1357,-3387.7227L13588.1405,-3387.7457L13588.1512,-3387.7615L13588.1741,-3387.7939L13588.1869,-3387.8152L13588.1949,-3387.8449L13588.2076,-3387.8573L13588.2411,-3387.8724L13588.2661,-3387.8822L13588.2688,-3387.8871L13588.2427,-3387.9317L13588.2182,-3387.9695L13588.1926,-3388.0152L13588.1771,-3388.0487L13588.166,-3388.0952L13588.1559,-3388.1086L13588.1169,-3388.1358L13588.0887,-3388.1624L13588.0658,-3388.1975L13588.0429,-3388.2367L13588.0357,-3388.2434L13588.0152,-3388.2625L13587.9732,-3388.3042L13587.9523,-3388.319L13587.8964,-3388.323L13587.8906,-3388.3256Z"/>
<path content="和歌山県,,東牟婁郡,北山村,,30427" xlink:title="和歌山県" d="M13591.7538,-3392.5781L13591.7397,-3392.5437L13591.7287,-3392.5056L13591.7285,-3392.5L13591.7277,-3392.4774L13591.7267,-3392.4341L13591.7327,-3392.3861L13591.7367,-3392.3536L13591.7517,-3392.3137L13591.7706,-3392.2789L13591.8041,-3392.246L13591.8045,-3392.2456L13591.8363,-3392.2207L13591.8483,-3392.2099L13591.8602,-3392.1884L13591.8983,-3392.145L13591.9311,-3392.1177L13591.961,-3392.0945L13592.0077,-3392.0721L13592.0925,-3392.0404L13592.1273,-3392.0321L13592.1751,-3392.0263L13592.195,-3392.0205L13592.2308,-3392.0089L13592.2445,-3392.0014L13592.2951,-3391.9912L13592.3686,-3391.9817L13592.4182,-3391.9873L13592.4368,-3391.9909L13592.486,-3392.0014L13592.5,-3392.0084L13592.5439,-3392.0304L13592.6117,-3392.0795L13592.6565,-3392.1201L13592.6923,-3392.1632L13592.7453,-3392.2157L13592.7861,-3392.2489L13592.8438,-3392.2779L13592.9036,-3392.3036L13592.9546,-3392.3212L13593.0034,-3392.3287L13593.0452,-3392.3279L13593.1168,-3392.3154L13593.1815,-3392.2988L13593.2126,-3392.2896L13593.2674,-3392.2664L13593.3042,-3392.2366L13593.3333,-3392.2035L13593.3482,-3392.1866L13593.3644,-3392.1646L13593.375,-3392.1501L13593.398,-3392.1177L13593.4219,-3392.0779L13593.4438,-3392.0289L13593.4557,-3392.0014L13593.4578,-3391.9585L13593.4518,-3391.9343L13593.4217,-3391.8794L13593.3856,-3391.8232L13593.3724,-3391.7972L13593.3615,-3391.7463L13593.3484,-3391.7336L13593.3333,-3391.724L13593.3248,-3391.7185L13593.2487,-3391.6852L13593.1611,-3391.6678L13593.1555,-3391.6667L13593.0971,-3391.655L13593.028,-3391.6417L13592.9957,-3391.6326L13592.9383,-3391.6102L13592.8346,-3391.575L13592.8049,-3391.5674L13592.77,-3391.5586L13592.6993,-3391.5384L13592.6791,-3391.5293L13592.6501,-3391.5234L13592.6465,-3391.5224L13592.5563,-3391.4973L13592.5,-3391.4814L13592.477,-3391.4749L13592.4288,-3391.4558L13592.3516,-3391.4296L13592.2848,-3391.4137L13592.2255,-3391.4114L13592.2031,-3391.4164L13592.19,-3391.4255L13592.1829,-3391.4356L13592.1894,-3391.4661L13592.19,-3391.4949L13592.1883,-3391.5218L13592.1653,-3391.5781L13592.1598,-3391.594L13592.15,-3391.6351L13592.1368,-3391.6611L13592.1322,-3391.6667L13592.1204,-3391.6809L13592.0886,-3391.6973L13592.0443,-3391.7151L13592.0088,-3391.7361L13591.9863,-3391.7603L13591.9621,-3391.8001L13591.9418,-3391.822L13591.9265,-3391.8457L13591.9245,-3391.8478L13591.9047,-3391.8682L13591.8553,-3391.9012L13591.8362,-3391.9235L13591.7863,-3391.956L13591.7584,-3391.9661L13591.7327,-3391.9765L13591.6757,-3391.9899L13591.6667,-3391.9903L13591.6445,-3391.9912L13591.6127,-3391.9908L13591.5788,-3391.9876L13591.5476,-3391.9803L13591.5199,-3391.9708L13591.4701,-3391.9461L13591.4133,-3391.9265L13591.3487,-3391.906L13591.2934,-3391.8955L13591.1685,-3391.8792L13591.0776,-3391.8657L13590.9746,-3391.8479L13590.9379,-3391.8452L13590.9084,-3391.8474L13590.9117,-3391.8633L13590.9201,-3391.9026L13590.9289,-3391.9491L13590.9305,-3391.9892L13590.9334,-3392.0014L13590.9324,-3392.0553L13590.9346,-3392.0869L13590.9354,-3392.0986L13590.9456,-3392.1275L13590.9548,-3392.1549L13590.9732,-3392.1846L13590.9864,-3392.2142L13590.9884,-3392.2296L13590.9864,-3392.2536L13590.9731,-3392.2697L13590.9517,-3392.2824L13590.9171,-3392.302L13590.9025,-3392.3125L13590.8876,-3392.3232L13590.8333,-3392.3557L13590.7888,-3392.3824L13590.7527,-3392.404L13590.7089,-3392.4252L13590.6763,-3392.4371L13590.6366,-3392.4618L13590.5792,-3392.4909L13590.5651,-3392.5L13590.5242,-3392.5265L13590.5149,-3392.533L13590.4875,-3392.552L13590.4732,-3392.5579L13590.462,-3392.5579L13590.4376,-3392.5435L13590.3921,-3392.5L13590.371,-3392.4798L13590.3669,-3392.4761L13590.3058,-3392.4212L13590.2791,-3392.4067L13590.2659,-3392.4058L13590.2496,-3392.4109L13590.2231,-3392.4254L13590.1976,-3392.4347L13590.1538,-3392.4449L13590.0751,-3392.4534L13590.0625,-3392.4553L13590.0201,-3392.4619L13590,-3392.469L13589.9865,-3392.4737L13589.96,-3392.4924L13589.9511,-3392.5L13589.9211,-3392.5257L13589.9109,-3392.5452L13589.9088,-3392.5724L13589.907,-3392.5781Z"/>
</g>
</svg>
