<?xml version="1.0" encoding="UTF-8"?>
<svg  xmlns="http://www.w3.org/2000/svg" xmlns:xlink="http://www.w3.org/1999/xlink" xmlns:go="http://purl.org/svgmap/profile" property="geometry,N03_001,N03_002,N03_003,N03_004,N03_005,N03_007" viewBox="13491.2109375 -3506.8359375 8.7890625 8.7890625" go:dataArea="13491.2109375 -3506.8359375 8.7890625 8.7890625" >
<metadata>
 <rdf:RDF xmlns:rdf="http://www.w3.org/1999/02/22-rdf-syntax-ns#" xmlns:crs="http://opengis.org/xmldtds/transformations.dtd" xmlns:svg="http://www.w3.org/svg" >
  <rdf:Description>
   <crs:CoordinateReferenceSystem rdf:resource="http://purl.org/crs/84" svg:transform="matrix(100.0,0.0,0.0,-100.0,0.0,0.0)" />
  </rdf:Description>
 </rdf:RDF>
</metadata>
<globalCoordinateSystem srsName="http://purl.org/crs/84" transform="matrix(100.0,0.0,0.0,-100.0,0.0,0.0)" />
<defs>
 <g id="p0" >
  <circle cx="0.0" cy="0.0" r="3" stroke="green" stroke-width="2.0" vector-effect="non-scaling-stroke" />
 </g>
</defs>
<g fill="#0000ff" fill-rule="evenodd" opacity="0.5" >
<path content="兵庫県,,,西脇市,,28213" xlink:title="兵庫県" d="M13500,-3506.8359L13500,-3498.0469L13491.2109,-3498.0469L13491.2109,-3498.361L13491.2621,-3498.3619L13491.2934,-3498.363L13491.4005,-3498.3637L13491.4411,-3498.3601L13491.4589,-3498.3606L13491.5012,-3498.3602L13491.5331,-3498.3543L13491.5616,-3498.3396L13491.5756,-3498.3333L13491.5832,-3498.3299L13491.6018,-3498.3277L13491.6046,-3498.3279L13491.6179,-3498.3288L13491.6464,-3498.3292L13491.6653,-3498.3244L13491.6667,-3498.324L13491.6818,-3498.3188L13491.722,-3498.2951L13491.7539,-3498.2795L13491.7769,-3498.2747L13491.7989,-3498.2661L13491.8264,-3498.2632L13491.8532,-3498.2593L13491.8799,-3498.2502L13491.9198,-3498.2206L13491.9349,-3498.2081L13491.9531,-3498.2082L13491.9689,-3498.2108L13491.9823,-3498.2094L13491.9995,-3498.2009L13492.0136,-3498.1918L13492.0203,-3498.1882L13492.0397,-3498.178L13492.0613,-3498.2054L13492.0713,-3498.2187L13492.0829,-3498.2241L13492.0956,-3498.2249L13492.1252,-3498.2293L13492.1437,-3498.2386L13492.1585,-3498.2528L13492.189,-3498.2966L13492.2045,-3498.3317L13492.2054,-3498.3333L13492.2189,-3498.3572L13492.2406,-3498.3844L13492.2526,-3498.4008L13492.2597,-3498.416L13492.2639,-3498.4251L13492.2649,-3498.4437L13492.2687,-3498.4589L13492.29,-3498.4886L13492.3086,-3498.5188L13492.322,-3498.5528L13492.3766,-3498.6267L13492.3971,-3498.6491L13492.4174,-3498.6587L13492.437,-3498.6636L13492.4439,-3498.6679L13492.438,-3498.6823L13492.4246,-3498.7165L13492.4233,-3498.7442L13492.4226,-3498.7651L13492.4161,-3498.7887L13492.3917,-3498.8718L13492.3872,-3498.8912L13492.3872,-3498.8974L13492.3903,-3498.9045L13492.4003,-3498.9215L13492.4024,-3498.9238L13492.4126,-3498.935L13492.425,-3498.9557L13492.4336,-3498.9676L13492.4531,-3498.9842L13492.4991,-3499.0313L13492.5,-3499.0329L13492.5098,-3499.0511L13492.5211,-3499.0641L13492.5613,-3499.1146L13492.5843,-3499.1279L13492.6018,-3499.1386L13492.6286,-3499.1641L13492.6325,-3499.1667L13492.6427,-3499.1734L13492.6739,-3499.2008L13492.7007,-3499.2107L13492.7591,-3499.2411L13492.7704,-3499.247L13492.7739,-3499.2532L13492.767,-3499.2745L13492.743,-3499.3183L13492.7275,-3499.36L13492.7172,-3499.4267L13492.7247,-3499.4766L13492.734,-3499.5366L13492.7426,-3499.5568L13492.7543,-3499.574L13492.7691,-3499.6074L13492.7773,-3499.6178L13492.7866,-3499.6356L13492.7914,-3499.6509L13492.7954,-3499.6807L13492.7955,-3499.6816L13492.7983,-3499.6986L13492.8058,-3499.7198L13492.8247,-3499.7526L13492.8384,-3499.7835L13492.8432,-3499.8025L13492.8436,-3499.8339L13492.8333,-3499.8785L13492.8161,-3499.9157L13492.7983,-3499.9507L13492.7835,-3499.9722L13492.7433,-3499.9892L13492.7307,-3500L13492.723,-3500.0066L13492.7172,-3500.0185L13492.7086,-3500.0583L13492.7031,-3500.0846L13492.7055,-3500.1022L13492.7161,-3500.1181L13492.7344,-3500.1351L13492.7577,-3500.1623L13492.79,-3500.2069L13492.8323,-3500.2611L13492.8394,-3500.2727L13492.8412,-3500.2865L13492.8401,-3500.319L13492.84,-3500.3214L13492.8415,-3500.3372L13492.8434,-3500.3559L13492.8381,-3500.3789L13492.8259,-3500.4019L13492.8163,-3500.4243L13492.8136,-3500.4826L13492.8075,-3500.5113L13492.7917,-3500.5559L13492.7716,-3500.5883L13492.755,-3500.6078L13492.7471,-3500.6178L13492.748,-3500.6265L13492.7541,-3500.6365L13492.7603,-3500.6538L13492.7634,-3500.6794L13492.7637,-3500.6819L13492.7646,-3500.7189L13492.7698,-3500.7319L13492.7812,-3500.7463L13492.7952,-3500.7549L13492.8197,-3500.7607L13492.8678,-3500.7722L13492.8847,-3500.7739L13492.8958,-3500.7751L13492.909,-3500.7801L13492.9274,-3500.7952L13492.9457,-3500.8175L13492.9575,-3500.8333L13492.9624,-3500.8399L13492.9842,-3500.865L13493.0314,-3500.9168L13493.0603,-3500.9499L13493.0936,-3500.9838L13493.1128,-3501.0018L13493.1321,-3501.0161L13493.1461,-3501.0298L13493.1522,-3501.0493L13493.1536,-3501.0572L13493.1557,-3501.0701L13493.1618,-3501.0888L13493.1715,-3501.1054L13493.1933,-3501.1205L13493.2248,-3501.1371L13493.2528,-3501.15L13493.2834,-3501.1558L13493.3149,-3501.1601L13493.3333,-3501.1619L13493.3438,-3501.1629L13493.3666,-3501.1694L13493.3832,-3501.1781L13493.4103,-3501.204L13493.4173,-3501.2184L13493.4243,-3501.2313L13493.4269,-3501.286L13493.4226,-3501.3695L13493.4086,-3501.4903L13493.4051,-3501.521L13493.4007,-3501.5656L13493.4007,-3501.6116L13493.3981,-3501.6527L13493.3989,-3501.6663L13493.3991,-3501.6667L13493.4033,-3501.6764L13493.4226,-3501.6879L13493.5857,-3501.7818L13493.9195,-3501.974L13493.9374,-3501.9843L13494.0921,-3502.0731L13494.1252,-3502.092L13494.1374,-3502.1014L13494.1418,-3502.1129L13494.1409,-3502.1244L13494.1436,-3502.1341L13494.1444,-3502.1346L13494.1576,-3502.142L13494.1667,-3502.1458L13494.2713,-3502.1895L13494.2799,-3502.1926L13494.4314,-3502.2464L13494.4941,-3502.2719L13494.5011,-3502.2748L13494.5145,-3502.2802L13494.5487,-3502.2924L13494.5767,-3502.2982L13494.6204,-3502.3039L13494.665,-3502.3047L13494.7149,-3502.3061L13494.7691,-3502.2982L13494.805,-3502.2924L13494.8295,-3502.2816L13494.854,-3502.2651L13494.8698,-3502.255L13494.8663,-3502.2701L13494.8654,-3502.2989L13494.8619,-3502.3169L13494.8453,-3502.3356L13494.8085,-3502.3637L13494.7779,-3502.3774L13494.7621,-3502.3932L13494.7473,-3502.4306L13494.7446,-3502.4407L13494.7378,-3502.4463L13494.7315,-3502.4515L13494.7193,-3502.4443L13494.6896,-3502.4169L13494.6738,-3502.4148L13494.6528,-3502.4227L13494.609,-3502.4486L13494.5662,-3502.4666L13494.5023,-3502.4867L13494.4813,-3502.4961L13494.4758,-3502.5L13494.4743,-3502.5011L13494.4734,-3502.5061L13494.5067,-3502.5411L13494.5316,-3502.5764L13494.5408,-3502.5893L13494.5565,-3502.6123L13494.5845,-3502.6512L13494.588,-3502.667L13494.5863,-3502.6958L13494.5758,-3502.7979L13494.5688,-3502.8346L13494.5609,-3502.8505L13494.5609,-3502.8642L13494.567,-3502.8854L13494.5863,-3502.9099L13494.6178,-3502.9545L13494.6414,-3502.9739L13494.6527,-3502.9833L13494.6711,-3502.9933L13494.6878,-3503.0142L13494.6965,-3503.0437L13494.7061,-3503.0747L13494.714,-3503.0955L13494.7245,-3503.1121L13494.7455,-3503.1322L13494.7823,-3503.1567L13494.8208,-3503.1855L13494.8811,-3503.2451L13494.9187,-3503.2962L13494.9336,-3503.3243L13494.9345,-3503.3333L13494.9345,-3503.3336L13494.9179,-3503.348L13494.9108,-3503.3528L13494.8846,-3503.3704L13494.8794,-3503.3848L13494.875,-3503.4121L13494.8654,-3503.42L13494.8207,-3503.4373L13494.7823,-3503.4452L13494.7473,-3503.4437L13494.7035,-3503.4452L13494.6186,-3503.4545L13494.5846,-3503.4583L13494.5744,-3503.4595L13494.567,-3503.4603L13494.5521,-3503.4596L13494.5233,-3503.4502L13494.4904,-3503.4357L13494.4664,-3503.425L13494.4393,-3503.407L13494.4174,-3503.3962L13494.3946,-3503.3919L13494.343,-3503.3869L13494.3199,-3503.3869L13494.3089,-3503.3869L13494.2883,-3503.3899L13494.2844,-3503.3905L13494.2823,-3503.3917L13494.2727,-3503.3972L13494.2669,-3503.4006L13494.2476,-3503.4459L13494.2371,-3503.4725L13494.2283,-3503.5059L13494.2257,-3503.5157L13494.2208,-3503.5281L13494.2153,-3503.5423L13494.2152,-3503.5425L13494.2135,-3503.5502L13494.2153,-3503.5538L13494.2397,-3503.5668L13494.2896,-3503.5884L13494.3124,-3503.6085L13494.3301,-3503.6254L13494.3343,-3503.6294L13494.3347,-3503.6314L13494.3378,-3503.6444L13494.3386,-3503.6481L13494.3377,-3503.6542L13494.3363,-3503.6644L13494.336,-3503.6661L13494.3421,-3503.6711L13494.3481,-3503.6748L13494.4358,-3503.7287L13494.4379,-3503.7298L13494.4707,-3503.7467L13494.5434,-3503.7748L13494.5827,-3503.7841L13494.5862,-3503.7845L13494.6037,-3503.7863L13494.6096,-3503.7838L13494.6274,-3503.7762L13494.6286,-3503.7755L13494.652,-3503.7615L13494.6572,-3503.7584L13494.7543,-3503.7006L13494.7674,-3503.7121L13494.8778,-3503.6596L13495,-3503.7233L13495.0284,-3503.7381L13495.0679,-3503.7597L13495.0875,-3503.7705L13495.094,-3503.774L13495.1078,-3503.7814L13495.1088,-3503.7819L13495.1316,-3503.7841L13495.1815,-3503.7784L13495.2231,-3503.773L13495.2427,-3503.7704L13495.3381,-3503.7632L13495.3917,-3503.7548L13495.4196,-3503.7464L13495.4291,-3503.7436L13495.4302,-3503.7433L13495.4468,-3503.7361L13495.4739,-3503.7246L13495.4949,-3503.7095L13495.5334,-3503.6648L13495.5395,-3503.6584L13495.5763,-3503.6195L13495.6166,-3503.5706L13495.6586,-3503.5168L13495.6743,-3503.4851L13495.6839,-3503.457L13495.6892,-3503.4031L13495.6962,-3503.3469L13495.6971,-3503.3446L13495.7012,-3503.3333L13495.7163,-3503.2923L13495.7356,-3503.2296L13495.7475,-3503.2096L13495.7574,-3503.1929L13495.7723,-3503.1708L13495.7867,-3503.1606L13495.7871,-3503.1603L13495.7986,-3503.1521L13495.8333,-3503.1368L13495.8531,-3503.1281L13495.8834,-3503.1147L13495.91,-3503.0987L13495.9906,-3503.0499L13495.9942,-3503.0528L13496.007,-3503.0633L13496.0597,-3503.1061L13496.0904,-3503.137L13496.1123,-3503.1478L13496.1306,-3503.1485L13496.149,-3503.1399L13496.1709,-3503.1291L13496.1875,-3503.1262L13496.1954,-3503.1291L13496.198,-3503.1406L13496.2041,-3503.1824L13496.2155,-3503.2234L13496.2225,-3503.2426L13496.2409,-3503.2678L13496.2444,-3503.2829L13496.2409,-3503.3167L13496.2409,-3503.3333L13496.2409,-3503.352L13496.2416,-3503.3602L13496.2435,-3503.3822L13496.254,-3503.4139L13496.2645,-3503.4391L13496.2811,-3503.4585L13496.3004,-3503.4715L13496.3223,-3503.483L13496.3432,-3503.4873L13496.3712,-3503.4894L13496.3861,-3503.4981L13496.4019,-3503.5168L13496.4036,-3503.5326L13496.3957,-3503.583L13496.3957,-3503.6046L13496.3959,-3503.6209L13496.4056,-3503.6418L13496.4266,-3503.6677L13496.4519,-3503.6857L13496.4712,-3503.6929L13496.5036,-3503.6929L13496.5212,-3503.6885L13496.55,-3503.6814L13496.5972,-3503.6749L13496.6304,-3503.6713L13496.6611,-3503.6735L13496.6667,-3503.6748L13496.7109,-3503.685L13496.7407,-3503.6929L13496.7582,-3503.6922L13496.7676,-3503.6903L13496.8124,-3503.6814L13496.8474,-3503.6749L13496.8755,-3503.6756L13496.9122,-3503.6843L13496.9428,-3503.7001L13496.9734,-3503.7203L13497.0172,-3503.7584L13497.0426,-3503.7764L13497.0778,-3503.7879L13497.0868,-3503.7914L13497.1207,-3503.8044L13497.1557,-3503.8203L13497.1645,-3503.8233L13497.1811,-3503.8289L13497.1743,-3503.8443L13497.1624,-3503.867L13497.1398,-3503.8912L13497.1103,-3503.9381L13497.0877,-3503.9737L13497.0691,-3504.0206L13497.0651,-3504.0465L13497.0681,-3504.0853L13497.0691,-3504.1233L13497.0681,-3504.1504L13497.0659,-3504.1667L13497.0592,-3504.2167L13497.0533,-3504.2409L13497.0553,-3504.2579L13497.07,-3504.3024L13497.0851,-3504.332L13497.0936,-3504.3485L13497.127,-3504.4204L13497.1369,-3504.4608L13497.1359,-3504.4883L13497.129,-3504.511L13497.1192,-3504.5271L13497.1192,-3504.5401L13497.1251,-3504.5611L13497.1418,-3504.5955L13497.1467,-3504.6044L13497.1437,-3504.6149L13497.1192,-3504.6586L13497.1179,-3504.6612L13497.1105,-3504.6775L13497.1103,-3504.6779L13497.1074,-3504.6965L13497.0975,-3504.72L13497.0821,-3504.7601L13497.0789,-3504.7685L13497.0641,-3504.7871L13497.0395,-3504.8081L13497.0218,-3504.8275L13497.0031,-3504.8542L13496.9913,-3504.8857L13496.9717,-3504.9351L13496.953,-3504.9682L13496.9245,-3504.9949L13496.9184,-3505L13496.8999,-3505.0155L13496.8537,-3505.0381L13496.7957,-3505.0729L13496.7482,-3505.1011L13496.7357,-3505.1085L13496.6944,-3505.1246L13496.6667,-3505.1283L13496.6394,-3505.1319L13496.605,-3505.1376L13496.5765,-3505.1521L13496.5647,-3505.1683L13496.5499,-3505.1901L13496.5303,-3505.2532L13496.5175,-3505.2944L13496.4939,-3505.3284L13496.4634,-3505.351L13496.4318,-3505.3589L13496.431,-3505.3591L13496.4123,-3505.3615L13496.4005,-3505.3745L13496.373,-3505.4186L13496.369,-3505.4371L13496.371,-3505.4581L13496.3848,-3505.4921L13496.4064,-3505.5293L13496.4251,-3505.5479L13496.4437,-3505.5568L13496.4732,-3505.5673L13496.4998,-3505.5843L13496.5824,-3505.632L13496.6473,-3505.674L13496.6667,-3505.6891L13496.6971,-3505.7128L13496.717,-3505.7282L13496.7456,-3505.7573L13496.7898,-3505.7848L13496.8311,-3505.8082L13496.8911,-3505.826L13496.9129,-3505.8333L13496.9441,-3505.8438L13497.0434,-3505.8713L13497.1349,-3505.8883L13497.1958,-3505.8919L13497.2194,-3505.9016L13497.242,-3505.9162L13497.2617,-3505.9186L13497.2872,-3505.9308L13497.3669,-3505.9793L13497.4249,-3506.0148L13497.4907,-3506.0642L13497.5,-3506.0677L13497.5222,-3506.0763L13497.5468,-3506.0811L13497.5615,-3506.0916L13497.5763,-3506.1111L13497.6008,-3506.1305L13497.6273,-3506.1544L13497.6392,-3506.1652L13497.6569,-3506.1863L13497.6903,-3506.2541L13497.7188,-3506.3095L13497.7385,-3506.3508L13497.7739,-3506.4122L13497.8015,-3506.4723L13497.8122,-3506.4955L13497.8466,-3506.5893L13497.8515,-3506.6128L13497.8476,-3506.6329L13497.8456,-3506.6596L13497.8474,-3506.6667L13497.8535,-3506.6904L13497.8594,-3506.7171L13497.8594,-3506.7482L13497.8555,-3506.8024L13497.8555,-3506.8359Z"/>
<path content="兵庫県,,,丹波市,,28223" xlink:title="兵庫県" d="M13496.4864,-3506.8359L13496.4706,-3506.8148L13496.4574,-3506.7847L13496.4411,-3506.7547L13496.4107,-3506.7321L13496.3944,-3506.7171L13496.3883,-3506.7037L13496.3812,-3506.6812L13496.3735,-3506.6667L13496.3701,-3506.6603L13496.3569,-3506.6486L13496.3366,-3506.6352L13496.3031,-3506.6177L13496.2789,-3506.6133L13496.2614,-3506.6102L13496.2198,-3506.6085L13496.2025,-3506.6135L13496.1812,-3506.6394L13496.1589,-3506.6503L13496.1284,-3506.6544L13496.104,-3506.6594L13496.0935,-3506.6667L13496.0857,-3506.672L13496.0766,-3506.6828L13496.034,-3506.8014L13496.022,-3506.8359L13494.716,-3506.8359L13494.7089,-3506.8331L13494.6906,-3506.8331L13494.6891,-3506.8359Z"/>
<path content="兵庫県,,多可郡,多可町,,28365" xlink:title="兵庫県" d="M13494.6891,-3506.8359L13494.6906,-3506.8331L13494.7089,-3506.8331L13494.716,-3506.8359L13496.022,-3506.8359L13496.034,-3506.8014L13496.0766,-3506.6828L13496.0857,-3506.672L13496.0935,-3506.6667L13496.104,-3506.6594L13496.1284,-3506.6544L13496.1589,-3506.6503L13496.1812,-3506.6394L13496.2025,-3506.6135L13496.2198,-3506.6085L13496.2614,-3506.6102L13496.2789,-3506.6133L13496.3031,-3506.6177L13496.3366,-3506.6352L13496.3569,-3506.6486L13496.3701,-3506.6603L13496.3735,-3506.6667L13496.3812,-3506.6812L13496.3883,-3506.7037L13496.3944,-3506.7171L13496.4107,-3506.7321L13496.4411,-3506.7547L13496.4574,-3506.7847L13496.4706,-3506.8148L13496.4864,-3506.8359L13497.8555,-3506.8359L13497.8555,-3506.8024L13497.8594,-3506.7482L13497.8594,-3506.7171L13497.8535,-3506.6904L13497.8474,-3506.6667L13497.8456,-3506.6596L13497.8476,-3506.6329L13497.8515,-3506.6128L13497.8466,-3506.5893L13497.8122,-3506.4955L13497.8015,-3506.4723L13497.7739,-3506.4122L13497.7385,-3506.3508L13497.7188,-3506.3095L13497.6903,-3506.2541L13497.6569,-3506.1863L13497.6392,-3506.1652L13497.6273,-3506.1544L13497.6008,-3506.1305L13497.5763,-3506.1111L13497.5615,-3506.0916L13497.5468,-3506.0811L13497.5222,-3506.0763L13497.5,-3506.0677L13497.4907,-3506.0642L13497.4249,-3506.0148L13497.3669,-3505.9793L13497.2872,-3505.9308L13497.2617,-3505.9186L13497.242,-3505.9162L13497.2194,-3505.9016L13497.1958,-3505.8919L13497.1349,-3505.8883L13497.0434,-3505.8713L13496.9441,-3505.8438L13496.9129,-3505.8333L13496.8911,-3505.826L13496.8311,-3505.8082L13496.7898,-3505.7848L13496.7456,-3505.7573L13496.717,-3505.7282L13496.6971,-3505.7128L13496.6667,-3505.6891L13496.6473,-3505.674L13496.5824,-3505.632L13496.4998,-3505.5843L13496.4732,-3505.5673L13496.4437,-3505.5568L13496.4251,-3505.5479L13496.4064,-3505.5293L13496.3848,-3505.4921L13496.371,-3505.4581L13496.369,-3505.4371L13496.373,-3505.4186L13496.4005,-3505.3745L13496.4123,-3505.3615L13496.431,-3505.3591L13496.4318,-3505.3589L13496.4634,-3505.351L13496.4939,-3505.3284L13496.5175,-3505.2944L13496.5303,-3505.2532L13496.5499,-3505.1901L13496.5647,-3505.1683L13496.5765,-3505.1521L13496.605,-3505.1376L13496.6394,-3505.1319L13496.6667,-3505.1283L13496.6944,-3505.1246L13496.7357,-3505.1085L13496.7482,-3505.1011L13496.7957,-3505.0729L13496.8537,-3505.0381L13496.8999,-3505.0155L13496.9184,-3505L13496.9245,-3504.9949L13496.953,-3504.9682L13496.9717,-3504.9351L13496.9913,-3504.8857L13497.0031,-3504.8542L13497.0218,-3504.8275L13497.0395,-3504.8081L13497.0641,-3504.7871L13497.0789,-3504.7685L13497.0821,-3504.7601L13497.0975,-3504.72L13497.1074,-3504.6965L13497.1103,-3504.6779L13497.1105,-3504.6775L13497.1179,-3504.6612L13497.1192,-3504.6586L13497.1437,-3504.6149L13497.1467,-3504.6044L13497.1418,-3504.5955L13497.1251,-3504.5611L13497.1192,-3504.5401L13497.1192,-3504.5271L13497.129,-3504.511L13497.1359,-3504.4883L13497.1369,-3504.4608L13497.127,-3504.4204L13497.0936,-3504.3485L13497.0851,-3504.332L13497.07,-3504.3024L13497.0553,-3504.2579L13497.0533,-3504.2409L13497.0592,-3504.2167L13497.0659,-3504.1667L13497.0681,-3504.1504L13497.0691,-3504.1233L13497.0681,-3504.0853L13497.0651,-3504.0465L13497.0691,-3504.0206L13497.0877,-3503.9737L13497.1103,-3503.9381L13497.1398,-3503.8912L13497.1624,-3503.867L13497.1743,-3503.8443L13497.1811,-3503.8289L13497.1645,-3503.8233L13497.1557,-3503.8203L13497.1207,-3503.8044L13497.0868,-3503.7914L13497.0778,-3503.7879L13497.0426,-3503.7764L13497.0172,-3503.7584L13496.9734,-3503.7203L13496.9428,-3503.7001L13496.9122,-3503.6843L13496.8755,-3503.6756L13496.8474,-3503.6749L13496.8124,-3503.6814L13496.7676,-3503.6903L13496.7582,-3503.6922L13496.7407,-3503.6929L13496.7109,-3503.685L13496.6667,-3503.6748L13496.6611,-3503.6735L13496.6304,-3503.6713L13496.5972,-3503.6749L13496.55,-3503.6814L13496.5212,-3503.6885L13496.5036,-3503.6929L13496.4712,-3503.6929L13496.4519,-3503.6857L13496.4266,-3503.6677L13496.4056,-3503.6418L13496.3959,-3503.6209L13496.3957,-3503.6046L13496.3957,-3503.583L13496.4036,-3503.5326L13496.4019,-3503.5168L13496.3861,-3503.4981L13496.3712,-3503.4894L13496.3432,-3503.4873L13496.3223,-3503.483L13496.3004,-3503.4715L13496.2811,-3503.4585L13496.2645,-3503.4391L13496.254,-3503.4139L13496.2435,-3503.3822L13496.2416,-3503.3602L13496.2409,-3503.352L13496.2409,-3503.3333L13496.2409,-3503.3167L13496.2444,-3503.2829L13496.2409,-3503.2678L13496.2225,-3503.2426L13496.2155,-3503.2234L13496.2041,-3503.1824L13496.198,-3503.1406L13496.1954,-3503.1291L13496.1875,-3503.1262L13496.1709,-3503.1291L13496.149,-3503.1399L13496.1306,-3503.1485L13496.1123,-3503.1478L13496.0904,-3503.137L13496.0597,-3503.1061L13496.007,-3503.0633L13495.9942,-3503.0528L13495.9906,-3503.0499L13495.91,-3503.0987L13495.8834,-3503.1147L13495.8531,-3503.1281L13495.8333,-3503.1368L13495.7986,-3503.1521L13495.7871,-3503.1603L13495.7867,-3503.1606L13495.7723,-3503.1708L13495.7574,-3503.1929L13495.7475,-3503.2096L13495.7356,-3503.2296L13495.7163,-3503.2923L13495.7012,-3503.3333L13495.6971,-3503.3446L13495.6962,-3503.3469L13495.6892,-3503.4031L13495.6839,-3503.457L13495.6743,-3503.4851L13495.6586,-3503.5168L13495.6166,-3503.5706L13495.5763,-3503.6195L13495.5395,-3503.6584L13495.5334,-3503.6648L13495.4949,-3503.7095L13495.4739,-3503.7246L13495.4468,-3503.7361L13495.4302,-3503.7433L13495.4291,-3503.7436L13495.4196,-3503.7464L13495.3917,-3503.7548L13495.3381,-3503.7632L13495.2427,-3503.7704L13495.2231,-3503.773L13495.1815,-3503.7784L13495.1316,-3503.7841L13495.1088,-3503.7819L13495.1078,-3503.7814L13495.094,-3503.774L13495.0875,-3503.7705L13495.0679,-3503.7597L13495.0284,-3503.7381L13495,-3503.7233L13494.8778,-3503.6596L13494.7674,-3503.7121L13494.7543,-3503.7006L13494.6572,-3503.7584L13494.652,-3503.7615L13494.6286,-3503.7755L13494.6274,-3503.7762L13494.6096,-3503.7838L13494.6037,-3503.7863L13494.5862,-3503.7845L13494.5827,-3503.7841L13494.5434,-3503.7748L13494.4707,-3503.7467L13494.4379,-3503.7298L13494.4358,-3503.7287L13494.3481,-3503.6748L13494.3421,-3503.6711L13494.336,-3503.6661L13494.3363,-3503.6644L13494.3377,-3503.6542L13494.3386,-3503.6481L13494.3378,-3503.6444L13494.3347,-3503.6314L13494.3343,-3503.6294L13494.3301,-3503.6254L13494.3124,-3503.6085L13494.2896,-3503.5884L13494.2397,-3503.5668L13494.2153,-3503.5538L13494.2135,-3503.5502L13494.2152,-3503.5425L13494.2153,-3503.5423L13494.2208,-3503.5281L13494.2257,-3503.5157L13494.2283,-3503.5059L13494.2371,-3503.4725L13494.2476,-3503.4459L13494.2669,-3503.4006L13494.2727,-3503.3972L13494.2823,-3503.3917L13494.2844,-3503.3905L13494.2883,-3503.3899L13494.3089,-3503.3869L13494.3199,-3503.3869L13494.343,-3503.3869L13494.3946,-3503.3919L13494.4174,-3503.3962L13494.4393,-3503.407L13494.4664,-3503.425L13494.4904,-3503.4357L13494.5233,-3503.4502L13494.5521,-3503.4596L13494.567,-3503.4603L13494.5744,-3503.4595L13494.5846,-3503.4583L13494.6186,-3503.4545L13494.7035,-3503.4452L13494.7473,-3503.4437L13494.7823,-3503.4452L13494.8207,-3503.4373L13494.8654,-3503.42L13494.875,-3503.4121L13494.8794,-3503.3848L13494.8846,-3503.3704L13494.9108,-3503.3528L13494.9179,-3503.348L13494.9345,-3503.3336L13494.9345,-3503.3333L13494.9336,-3503.3243L13494.9187,-3503.2962L13494.8811,-3503.2451L13494.8208,-3503.1855L13494.7823,-3503.1567L13494.7455,-3503.1322L13494.7245,-3503.1121L13494.714,-3503.0955L13494.7061,-3503.0747L13494.6965,-3503.0437L13494.6878,-3503.0142L13494.6711,-3502.9933L13494.6527,-3502.9833L13494.6414,-3502.9739L13494.6178,-3502.9545L13494.5863,-3502.9099L13494.567,-3502.8854L13494.5609,-3502.8642L13494.5609,-3502.8505L13494.5688,-3502.8346L13494.5758,-3502.7979L13494.5863,-3502.6958L13494.588,-3502.667L13494.5845,-3502.6512L13494.5565,-3502.6123L13494.5408,-3502.5893L13494.5316,-3502.5764L13494.5067,-3502.5411L13494.4734,-3502.5061L13494.4743,-3502.5011L13494.4758,-3502.5L13494.4813,-3502.4961L13494.5023,-3502.4867L13494.5662,-3502.4666L13494.609,-3502.4486L13494.6528,-3502.4227L13494.6738,-3502.4148L13494.6896,-3502.4169L13494.7193,-3502.4443L13494.7315,-3502.4515L13494.7378,-3502.4463L13494.7446,-3502.4407L13494.7473,-3502.4306L13494.7621,-3502.3932L13494.7779,-3502.3774L13494.8085,-3502.3637L13494.8453,-3502.3356L13494.8619,-3502.3169L13494.8654,-3502.2989L13494.8663,-3502.2701L13494.8698,-3502.255L13494.854,-3502.2651L13494.8295,-3502.2816L13494.805,-3502.2924L13494.7691,-3502.2982L13494.7149,-3502.3061L13494.665,-3502.3047L13494.6204,-3502.3039L13494.5767,-3502.2982L13494.5487,-3502.2924L13494.5145,-3502.2802L13494.5011,-3502.2748L13494.4941,-3502.2719L13494.4314,-3502.2464L13494.2799,-3502.1926L13494.2713,-3502.1895L13494.1667,-3502.1458L13494.1576,-3502.142L13494.1444,-3502.1346L13494.1436,-3502.1341L13494.1409,-3502.1244L13494.1418,-3502.1129L13494.1374,-3502.1014L13494.1252,-3502.092L13494.0921,-3502.0731L13493.9374,-3501.9843L13493.9195,-3501.974L13493.5857,-3501.7818L13493.4226,-3501.6879L13493.4033,-3501.6764L13493.3991,-3501.6667L13493.3989,-3501.6663L13493.3981,-3501.6527L13493.4007,-3501.6116L13493.4007,-3501.5656L13493.4051,-3501.521L13493.4086,-3501.4903L13493.4226,-3501.3695L13493.4269,-3501.286L13493.4243,-3501.2313L13493.4173,-3501.2184L13493.4103,-3501.204L13493.3832,-3501.1781L13493.3666,-3501.1694L13493.3438,-3501.1629L13493.3333,-3501.1619L13493.3149,-3501.1601L13493.2834,-3501.1558L13493.2528,-3501.15L13493.2248,-3501.1371L13493.1933,-3501.1205L13493.1715,-3501.1054L13493.1618,-3501.0888L13493.1557,-3501.0701L13493.1536,-3501.0572L13493.1522,-3501.0493L13493.1461,-3501.0298L13493.1321,-3501.0161L13493.1128,-3501.0018L13493.0936,-3500.9838L13493.0603,-3500.9499L13493.0314,-3500.9168L13492.9842,-3500.865L13492.9624,-3500.8399L13492.9575,-3500.8333L13492.9457,-3500.8175L13492.9274,-3500.7952L13492.909,-3500.7801L13492.8958,-3500.7751L13492.8847,-3500.7739L13492.8678,-3500.7722L13492.8197,-3500.7607L13492.7952,-3500.7549L13492.7812,-3500.7463L13492.7698,-3500.7319L13492.7646,-3500.7189L13492.7637,-3500.6819L13492.7634,-3500.6794L13492.7603,-3500.6538L13492.7541,-3500.6365L13492.748,-3500.6265L13492.7471,-3500.6178L13492.755,-3500.6078L13492.7716,-3500.5883L13492.7917,-3500.5559L13492.8075,-3500.5113L13492.8136,-3500.4826L13492.8163,-3500.4243L13492.8259,-3500.4019L13492.8381,-3500.3789L13492.8434,-3500.3559L13492.8415,-3500.3372L13492.84,-3500.3214L13492.8401,-3500.319L13492.8412,-3500.2865L13492.8394,-3500.2727L13492.8323,-3500.2611L13492.79,-3500.2069L13492.7577,-3500.1623L13492.7344,-3500.1351L13492.7161,-3500.1181L13492.7055,-3500.1022L13492.7031,-3500.0846L13492.7086,-3500.0583L13492.7172,-3500.0185L13492.723,-3500.0066L13492.7307,-3500L13492.7433,-3499.9892L13492.7835,-3499.9722L13492.7983,-3499.9507L13492.8161,-3499.9157L13492.8333,-3499.8785L13492.8436,-3499.8339L13492.8432,-3499.8025L13492.8384,-3499.7835L13492.8247,-3499.7526L13492.8058,-3499.7198L13492.7983,-3499.6986L13492.7955,-3499.6816L13492.7954,-3499.6807L13492.7914,-3499.6509L13492.7866,-3499.6356L13492.7773,-3499.6178L13492.7691,-3499.6074L13492.7543,-3499.574L13492.7426,-3499.5568L13492.734,-3499.5366L13492.7247,-3499.4766L13492.7172,-3499.4267L13492.7275,-3499.36L13492.743,-3499.3183L13492.767,-3499.2745L13492.7739,-3499.2532L13492.7704,-3499.247L13492.7591,-3499.2411L13492.7007,-3499.2107L13492.6739,-3499.2008L13492.6427,-3499.1734L13492.6325,-3499.1667L13492.6286,-3499.1641L13492.6018,-3499.1386L13492.5843,-3499.1279L13492.5613,-3499.1146L13492.5211,-3499.0641L13492.5098,-3499.0511L13492.5,-3499.0329L13492.4991,-3499.0313L13492.4531,-3498.9842L13492.4336,-3498.9676L13492.425,-3498.9557L13492.4126,-3498.935L13492.4024,-3498.9238L13492.4003,-3498.9215L13492.3903,-3498.9045L13492.3872,-3498.8974L13492.3872,-3498.8912L13492.3917,-3498.8718L13492.4161,-3498.7887L13492.4226,-3498.7651L13492.4233,-3498.7442L13492.4246,-3498.7165L13492.438,-3498.6823L13492.4439,-3498.6679L13492.437,-3498.6636L13492.4174,-3498.6587L13492.3971,-3498.6491L13492.3766,-3498.6267L13492.322,-3498.5528L13492.3086,-3498.5188L13492.29,-3498.4886L13492.2687,-3498.4589L13492.2649,-3498.4437L13492.2639,-3498.4251L13492.2597,-3498.416L13492.2526,-3498.4008L13492.2406,-3498.3844L13492.2189,-3498.3572L13492.2054,-3498.3333L13492.2045,-3498.3317L13492.189,-3498.2966L13492.1585,-3498.2528L13492.1437,-3498.2386L13492.1252,-3498.2293L13492.0956,-3498.2249L13492.0829,-3498.2241L13492.0713,-3498.2187L13492.0613,-3498.2054L13492.0397,-3498.178L13492.0203,-3498.1882L13492.0136,-3498.1918L13491.9995,-3498.2009L13491.9823,-3498.2094L13491.9689,-3498.2108L13491.9531,-3498.2082L13491.9349,-3498.2081L13491.9198,-3498.2206L13491.8799,-3498.2502L13491.8532,-3498.2593L13491.8264,-3498.2632L13491.7989,-3498.2661L13491.7769,-3498.2747L13491.7539,-3498.2795L13491.722,-3498.2951L13491.6818,-3498.3188L13491.6667,-3498.324L13491.6653,-3498.3244L13491.6464,-3498.3292L13491.6179,-3498.3288L13491.6046,-3498.3279L13491.6018,-3498.3277L13491.5832,-3498.3299L13491.5756,-3498.3333L13491.5616,-3498.3396L13491.5331,-3498.3543L13491.5012,-3498.3602L13491.4589,-3498.3606L13491.4411,-3498.3601L13491.4005,-3498.3637L13491.2934,-3498.363L13491.2621,-3498.3619L13491.2109,-3498.361L13491.2109,-3506.8359Z"/>
</g>
</svg>
