<?xml version="1.0" encoding="UTF-8"?>
<svg  xmlns="http://www.w3.org/2000/svg" xmlns:xlink="http://www.w3.org/1999/xlink" xmlns:go="http://purl.org/svgmap/profile" property="geometry,N03_001,N03_002,N03_003,N03_004,N03_005,N03_007" viewBox="13561.5234375 -3454.1015625 4.39453125 4.39453125" go:dataArea="13561.5234375 -3454.1015625 4.39453125 4.39453125" >
<metadata>
 <rdf:RDF xmlns:rdf="http://www.w3.org/1999/02/22-rdf-syntax-ns#" xmlns:crs="http://opengis.org/xmldtds/transformations.dtd" xmlns:svg="http://www.w3.org/svg" >
  <rdf:Description>
   <crs:CoordinateReferenceSystem rdf:resource="http://purl.org/crs/84" svg:transform="matrix(100.0,0.0,0.0,-100.0,0.0,0.0)" />
  </rdf:Description>
 </rdf:RDF>
</metadata>
<globalCoordinateSystem srsName="http://purl.org/crs/84" transform="matrix(100.0,0.0,0.0,-100.0,0.0,0.0)" />
<defs>
 <g id="p0" >
  <circle cx="0.0" cy="0.0" r="3" stroke="green" stroke-width="2.0" vector-effect="non-scaling-stroke" />
 </g>
</defs>
<g fill="#0000ff" fill-rule="evenodd" opacity="0.5" >
<path content="大阪府,,,富田林市,,27214" xlink:title="大阪府" d="M13561.5234,-3449.707L13561.5234,-3452.5888L13561.5255,-3452.5886L13561.5304,-3452.588L13561.5476,-3452.5902L13561.5758,-3452.5939L13561.6169,-3452.6011L13561.635,-3452.6077L13561.6532,-3452.612L13561.6667,-3452.6152L13561.7027,-3452.6237L13561.7148,-3452.6246L13561.7294,-3452.6256L13561.7734,-3452.6223L13561.7965,-3452.6196L13561.8029,-3452.6189L13561.8519,-3452.6133L13561.9053,-3452.6092L13561.941,-3452.6064L13561.967,-3452.6044L13561.9725,-3452.6039L13561.9745,-3452.6038L13561.9801,-3452.6031L13562.0005,-3452.6005L13562.0127,-3452.599L13562.056,-3452.5966L13562.0999,-3452.5987L13562.1223,-3452.6041L13562.1432,-3452.6142L13562.1506,-3452.6199L13562.1605,-3452.6273L13562.1714,-3452.6357L13562.1931,-3452.6523L13562.2087,-3452.6642L13562.2126,-3452.6581L13562.2183,-3452.6492L13562.2415,-3452.6304L13562.2552,-3452.6149L13562.2913,-3452.594L13562.3271,-3452.5769L13562.3489,-3452.5666L13562.3605,-3452.563L13562.377,-3452.5618L13562.4167,-3452.5606L13562.4289,-3452.56L13562.4477,-3452.5534L13562.4707,-3452.5487L13562.5,-3452.5487L13562.5363,-3452.5487L13562.5507,-3452.5511L13562.5702,-3452.5529L13562.589,-3452.5529L13562.6337,-3452.5487L13562.6999,-3452.5457L13562.7137,-3452.5451L13562.7155,-3452.5L13562.7156,-3452.4996L13562.7158,-3452.4932L13562.7161,-3452.4911L13562.7201,-3452.4497L13562.7237,-3452.3507L13562.725,-3452.3329L13562.7279,-3452.2914L13562.729,-3452.2759L13562.7295,-3452.2689L13562.7298,-3452.2615L13562.7301,-3452.2533L13562.7317,-3452.2093L13562.7245,-3452.1997L13562.7102,-3452.2002L13562.7043,-3452.2003L13562.6996,-3452.2029L13562.6856,-3452.2105L13562.6845,-3452.2131L13562.6798,-3452.2248L13562.6784,-3452.2588L13562.682,-3452.3149L13562.6539,-3452.3507L13562.6293,-3452.3882L13562.6185,-3452.3954L13562.6084,-3452.3966L13562.589,-3452.3924L13562.5846,-3452.3899L13562.5306,-3452.3596L13562.5128,-3452.3507L13562.5,-3452.3443L13562.4859,-3452.3373L13562.4816,-3452.3351L13562.4729,-3452.3351L13562.4527,-3452.3518L13562.4424,-3452.3566L13562.4412,-3452.3572L13562.4318,-3452.353L13562.4318,-3452.3423L13562.4383,-3452.3137L13562.4397,-3452.2761L13562.4391,-3452.2761L13562.4253,-3452.2764L13562.4156,-3452.2765L13562.2232,-3452.2801L13562.2183,-3452.2798L13562.1997,-3452.2793L13562.1981,-3452.2792L13562.1678,-3452.275L13562.1483,-3452.2685L13562.1383,-3452.2554L13562.1339,-3452.2392L13562.1339,-3452.2249L13562.1404,-3452.2082L13562.1556,-3452.1867L13562.17,-3452.1748L13562.1801,-3452.1599L13562.1837,-3452.1405L13562.1721,-3452.1226L13562.1411,-3452.0922L13562.1347,-3452.0761L13562.1325,-3452.0582L13562.1339,-3452.0153L13562.1426,-3451.9592L13562.1404,-3451.9136L13562.1457,-3451.8687L13562.1469,-3451.8581L13562.1534,-3451.8324L13562.1693,-3451.7949L13562.1952,-3451.7215L13562.1996,-3451.7018L13562.1959,-3451.6845L13562.184,-3451.6667L13562.1785,-3451.6584L13562.1642,-3451.6371L13562.1484,-3451.6096L13562.1066,-3451.5694L13562.0957,-3451.5589L13562.0748,-3451.5309L13562.0532,-3451.4933L13562.0398,-3451.4817L13562.0376,-3451.4798L13562.0236,-3451.4677L13562.0054,-3451.4576L13561.9963,-3451.4525L13561.9748,-3451.4422L13561.9328,-3451.4221L13561.9046,-3451.4057L13561.8946,-3451.4L13561.8816,-3451.3874L13561.8744,-3451.3824L13561.855,-3451.3689L13561.8354,-3451.3505L13561.8297,-3451.3451L13561.8196,-3451.326L13561.816,-3451.3111L13561.7959,-3451.2753L13561.7908,-3451.2592L13561.7901,-3451.2336L13561.7865,-3451.2177L13561.7889,-3451.2024L13561.7923,-3451.1814L13561.7894,-3451.1581L13561.7771,-3451.1331L13561.7468,-3451.0203L13561.7497,-3450.9914L13561.7504,-3450.9562L13561.7591,-3450.9287L13561.7628,-3450.8902L13561.7641,-3450.8769L13561.7691,-3450.8333L13561.7735,-3450.7939L13561.7666,-3450.7577L13561.7627,-3450.737L13561.7663,-3450.706L13561.7915,-3450.6636L13561.805,-3450.6367L13561.8088,-3450.629L13561.8521,-3450.5771L13561.8607,-3450.5706L13561.8701,-3450.5695L13561.8816,-3450.5682L13561.9347,-3450.5356L13561.9653,-3450.5169L13561.9642,-3450.5031L13561.9636,-3450.4952L13561.9631,-3450.4894L13561.975,-3450.4644L13561.979,-3450.456L13561.9867,-3450.446L13562.002,-3450.4262L13562.0434,-3450.3701L13562.0641,-3450.344L13562.0771,-3450.3277L13562.0977,-3450.301L13562.1044,-3450.2892L13562.1127,-3450.2744L13562.1201,-3450.2588L13562.1259,-3450.2467L13562.1406,-3450.2157L13562.1589,-3450.1828L13562.1656,-3450.1634L13562.1696,-3450.1516L13562.1814,-3450.1027L13562.183,-3450.0986L13562.1898,-3450.0806L13562.1922,-3450.0743L13562.1922,-3450.0459L13562.1929,-3450.0219L13562.1933,-3450.0129L13562.2156,-3450.0052L13562.2183,-3450.0043L13562.2248,-3450L13562.2475,-3449.985L13562.2677,-3449.9743L13562.3296,-3449.9725L13562.3441,-3449.9712L13562.3563,-3449.9701L13562.3779,-3449.9659L13562.4103,-3449.9671L13562.4182,-3449.9594L13562.4254,-3449.9439L13562.4297,-3449.9272L13562.4441,-3449.9063L13562.4571,-3449.8914L13562.4724,-3449.8829L13562.4765,-3449.8806L13562.4996,-3449.8747L13562.5,-3449.8744L13562.5226,-3449.8621L13562.537,-3449.8496L13562.5485,-3449.8312L13562.5521,-3449.8079L13562.5658,-3449.7983L13562.5866,-3449.7907L13562.6026,-3449.7848L13562.6112,-3449.7816L13562.6256,-3449.7876L13562.6421,-3449.7924L13562.6868,-3449.7942L13562.7278,-3449.7936L13562.7485,-3449.7939L13562.7703,-3449.7942L13562.7729,-3449.707Z"/>
<path content="大阪府,,,羽曳野市,,27222" xlink:title="大阪府" d="M13561.5234,-3454.1016L13565.918,-3454.1016L13565.918,-3454.0673L13565.8803,-3454.051L13565.8547,-3454.0367L13565.8333,-3454.0264L13565.7891,-3454.0051L13565.7495,-3453.9818L13565.7171,-3453.9574L13565.6981,-3453.9452L13565.6788,-3453.9329L13565.6597,-3453.9151L13565.641,-3453.887L13565.6216,-3453.8548L13565.6086,-3453.825L13565.5956,-3453.7838L13565.5866,-3453.767L13565.5819,-3453.7582L13565.5797,-3453.7385L13565.5682,-3453.6997L13565.5509,-3453.6729L13565.5184,-3453.6431L13565.4486,-3453.5786L13565.3736,-3453.5214L13565.3444,-3453.4968L13565.3318,-3453.4862L13565.3001,-3453.4623L13565.2619,-3453.4397L13565.2294,-3453.414L13565.1991,-3453.3914L13565.1487,-3453.3651L13565.1083,-3453.3484L13565.0644,-3453.3341L13565.0626,-3453.3333L13565.0269,-3453.3174L13565.0063,-3453.3103L13565.0009,-3453.3084L13565,-3453.3084L13564.9858,-3453.3079L13564.9839,-3453.3087L13564.9714,-3453.3144L13564.9485,-3453.3333L13564.9425,-3453.3383L13564.9043,-3453.3729L13564.8849,-3453.3932L13564.864,-3453.4152L13564.8452,-3453.4284L13564.8193,-3453.4385L13564.7385,-3453.4612L13564.7205,-3453.4647L13564.7104,-3453.4641L13564.6996,-3453.4552L13564.6895,-3453.4415L13564.6709,-3453.4222L13564.6693,-3453.4206L13564.6405,-3453.3932L13564.6189,-3453.3687L13564.6021,-3453.3581L13564.5915,-3453.3514L13564.5727,-3453.3365L13564.5699,-3453.3333L13564.5641,-3453.3269L13564.5583,-3453.312L13564.554,-3453.2876L13564.5453,-3453.2709L13564.5331,-3453.2363L13564.5172,-3453.2124L13564.4934,-3453.1933L13564.4588,-3453.1701L13564.4373,-3453.1537L13564.4322,-3453.1498L13564.4159,-3453.1308L13564.4004,-3453.1128L13564.3256,-3453.0445L13564.3024,-3453.0234L13564.2547,-3453.0656L13564.2519,-3453.0681L13564.2106,-3453.0354L13564.2044,-3453.0305L13564.1957,-3453.0388L13564.1849,-3453.0472L13564.1669,-3453.0537L13564.1667,-3453.0538L13564.1373,-3453.0639L13564.1215,-3453.0722L13564.102,-3453.083L13564.0854,-3453.086L13564.059,-3453.0847L13564.0364,-3453.0836L13564.0148,-3453.0836L13563.9989,-3453.0877L13563.9716,-3453.1062L13563.9658,-3453.1062L13563.955,-3453.1015L13563.9377,-3453.0866L13563.8915,-3453.0406L13563.8746,-3453.0209L13563.8623,-3453.0061L13563.8529,-3452.9947L13563.8256,-3452.9679L13563.7798,-3452.9333L13563.7337,-3452.9034L13563.6868,-3452.8784L13563.6486,-3452.8557L13563.6043,-3452.8241L13563.5596,-3452.7836L13563.5142,-3452.7507L13563.4904,-3452.7257L13563.4817,-3452.7174L13563.4709,-3452.7167L13563.4428,-3452.7191L13563.4082,-3452.7221L13563.3979,-3452.7227L13563.344,-3452.7257L13563.3333,-3452.7279L13563.3238,-3452.7299L13563.3001,-3452.7311L13563.2806,-3452.734L13563.2727,-3452.7448L13563.2597,-3452.7573L13563.2474,-3452.7651L13563.2266,-3452.7686L13563.2085,-3452.768L13563.1869,-3452.7603L13563.1602,-3452.7472L13563.1126,-3452.7072L13563.0856,-3452.6779L13563.0734,-3452.6767L13563.0149,-3452.6684L13563.0142,-3452.6803L13562.9919,-3452.6762L13562.9919,-3452.6648L13562.9717,-3452.6601L13562.9732,-3452.6326L13563.0085,-3452.6326L13563.0402,-3452.6267L13563.0366,-3452.576L13563.0359,-3452.5658L13563.0222,-3452.5658L13562.9789,-3452.5736L13562.9407,-3452.5837L13562.904,-3452.5933L13562.8701,-3452.5957L13562.8413,-3452.5945L13562.8268,-3452.5873L13562.8174,-3452.5784L13562.8434,-3452.5521L13562.8319,-3452.5408L13562.8009,-3452.5485L13562.7677,-3452.5497L13562.7137,-3452.5451L13562.6999,-3452.5457L13562.6337,-3452.5487L13562.589,-3452.5529L13562.5702,-3452.5529L13562.5507,-3452.5511L13562.5363,-3452.5487L13562.5,-3452.5487L13562.4707,-3452.5487L13562.4477,-3452.5534L13562.4289,-3452.56L13562.4167,-3452.5606L13562.377,-3452.5618L13562.3605,-3452.563L13562.3489,-3452.5666L13562.3271,-3452.5769L13562.2913,-3452.594L13562.2552,-3452.6149L13562.2415,-3452.6304L13562.2183,-3452.6492L13562.2126,-3452.6581L13562.2087,-3452.6642L13562.1931,-3452.6523L13562.1714,-3452.6357L13562.1605,-3452.6273L13562.1506,-3452.6199L13562.1432,-3452.6142L13562.1223,-3452.6041L13562.0999,-3452.5987L13562.056,-3452.5966L13562.0127,-3452.599L13562.0005,-3452.6005L13561.9801,-3452.6031L13561.9745,-3452.6038L13561.9725,-3452.6039L13561.967,-3452.6044L13561.941,-3452.6064L13561.9053,-3452.6092L13561.8519,-3452.6133L13561.8029,-3452.6189L13561.7965,-3452.6196L13561.7734,-3452.6223L13561.7294,-3452.6256L13561.7148,-3452.6246L13561.7027,-3452.6237L13561.6667,-3452.6152L13561.6532,-3452.612L13561.635,-3452.6077L13561.6169,-3452.6011L13561.5758,-3452.5939L13561.5476,-3452.5902L13561.5304,-3452.588L13561.5255,-3452.5886L13561.5234,-3452.5888Z"/>
<path content="大阪府,,南河内郡,太子町,,27381" xlink:title="大阪府" d="M13565.918,-3449.8293L13565.9139,-3449.829L13565.8894,-3449.8218L13565.8333,-3449.8083L13565.808,-3449.8021L13565.7209,-3449.7842L13565.6971,-3449.7807L13565.6954,-3449.7805L13565.6496,-3449.7765L13565.6251,-3449.7711L13565.6028,-3449.764L13565.5761,-3449.7467L13565.5617,-3449.7371L13565.5525,-3449.7279L13565.5446,-3449.7273L13565.5331,-3449.7368L13565.5194,-3449.7511L13565.5028,-3449.7619L13565.4884,-3449.7666L13565.4452,-3449.7708L13565.4299,-3449.7738L13565.4114,-3449.7774L13565.3941,-3449.7816L13565.3638,-3449.7947L13565.3523,-3449.803L13565.3322,-3449.8203L13565.3235,-3449.8275L13565.2947,-3449.8388L13565.2659,-3449.8448L13565.2493,-3449.8454L13565.2378,-3449.8418L13565.2191,-3449.8281L13565.2184,-3449.8275L13565.2097,-3449.8108L13565.1997,-3449.7977L13565.1867,-3449.7917L13565.1795,-3449.7959L13565.1749,-3449.7987L13565.1629,-3449.806L13565.1471,-3449.8108L13565.1334,-3449.8096L13565.1233,-3449.8078L13565.1168,-3449.7989L13565.1176,-3449.7923L13565.1201,-3449.7819L13565.1219,-3449.7744L13565.1192,-3449.7711L13565.1147,-3449.7654L13565.1046,-3449.7654L13565.0916,-3449.7696L13565.0736,-3449.7851L13565.0614,-3449.7935L13565.052,-3449.7941L13565.0383,-3449.7869L13565.0275,-3449.7869L13565.0038,-3449.7977L13565,-3449.7975L13564.9908,-3449.7971L13564.9743,-3449.7923L13564.9677,-3449.7804L13564.9606,-3449.7643L13564.9519,-3449.7565L13564.9361,-3449.7547L13564.921,-3449.7649L13564.9131,-3449.7774L13564.9001,-3449.7869L13564.8907,-3449.7846L13564.8533,-3449.7696L13564.8374,-3449.7666L13564.8288,-3449.7726L13564.8201,-3449.7869L13564.8086,-3449.8209L13564.8093,-3449.8388L13564.8187,-3449.8454L13564.8218,-3449.8457L13564.8403,-3449.8478L13564.8453,-3449.8478L13564.8681,-3449.8355L13564.8763,-3449.8311L13564.8994,-3449.8197L13564.9224,-3449.8162L13564.9397,-3449.8167L13564.9548,-3449.8215L13564.9584,-3449.8275L13564.9569,-3449.8347L13564.9188,-3449.8621L13564.921,-3449.8657L13564.9346,-3449.8758L13564.9469,-3449.8788L13564.9663,-3449.8782L13564.985,-3449.8663L13565,-3449.8623L13565.0031,-3449.8615L13565.0196,-3449.8722L13565.0246,-3449.8812L13565.0232,-3449.8889L13565.0059,-3449.8967L13565,-3449.8982L13564.9669,-3449.9069L13564.9606,-3449.9086L13564.9461,-3449.914L13564.9469,-3449.9205L13564.9474,-3449.9354L13564.9476,-3449.9414L13564.9253,-3449.9748L13564.9188,-3449.9909L13564.9216,-3450L13564.9243,-3450.0087L13564.9293,-3450.0243L13564.9315,-3450.0326L13564.876,-3450.0672L13564.8256,-3450.0911L13564.7464,-3450.1215L13564.7197,-3450.137L13564.7163,-3450.1268L13564.7126,-3450.1161L13564.7197,-3450.0732L13564.6924,-3450.0714L13564.6729,-3450.072L13564.6542,-3450.069L13564.6463,-3450.0744L13564.6413,-3450.0809L13564.6369,-3450.1012L13564.6326,-3450.1465L13564.6304,-3450.158L13564.629,-3450.165L13564.6139,-3450.1782L13564.5952,-3450.1978L13564.5808,-3450.2056L13564.5174,-3450.2074L13564.5131,-3450.2008L13564.503,-3450.1799L13564.4936,-3450.1621L13564.4821,-3450.1555L13564.472,-3450.1549L13564.4612,-3450.1621L13564.4555,-3450.1752L13564.4569,-3450.1853L13564.4605,-3450.2056L13564.4591,-3450.2205L13564.4476,-3450.2289L13564.4331,-3450.2384L13564.4281,-3450.2533L13564.4274,-3450.2772L13564.4223,-3450.2891L13564.4137,-3450.3064L13564.3892,-3450.3277L13564.3797,-3450.3355L13564.3653,-3450.345L13564.3379,-3450.3599L13564.3214,-3450.3706L13564.312,-3450.3766L13564.2724,-3450.3957L13564.263,-3450.3981L13564.2488,-3450.3914L13564.2485,-3450.3879L13564.2484,-3450.3854L13564.2791,-3450.3529L13564.2797,-3450.3527L13564.2969,-3450.3462L13564.3325,-3450.3345L13564.3406,-3450.3277L13564.3453,-3450.3233L13564.3477,-3450.3202L13564.3683,-3450.2939L13564.3683,-3450.2784L13564.359,-3450.2754L13564.3446,-3450.2772L13564.3036,-3450.2921L13564.2776,-3450.3035L13564.2443,-3450.3277L13564.1984,-3450.3703L13564.1801,-3450.3898L13564.1667,-3450.3845L13564.1557,-3450.3802L13564.1498,-3450.3778L13564.1318,-3450.3647L13564.113,-3450.3421L13564.1055,-3450.3277L13564.0817,-3450.2981L13564.0827,-3450.2939L13564.0839,-3450.2891L13564.094,-3450.2796L13564.1012,-3450.2755L13564.1192,-3450.2653L13564.1372,-3450.2492L13564.1451,-3450.239L13564.1458,-3450.2253L13564.139,-3450.2183L13564.1336,-3450.2128L13564.1149,-3450.2086L13564.1012,-3450.2056L13564.0515,-3450.1967L13564.0351,-3450.1941L13564.0292,-3450.1931L13564.0184,-3450.1937L13564.0126,-3450.2038L13564.0097,-3450.2241L13564.0256,-3450.2361L13564.0267,-3450.2431L13564.0277,-3450.2492L13564.0227,-3450.2557L13564.0119,-3450.2683L13564.0097,-3450.2772L13564.0155,-3450.2886L13564.0191,-3450.304L13564.0069,-3450.3277L13563.9637,-3450.4525L13563.9572,-3450.4758L13563.9586,-3450.5331L13563.9586,-3450.548L13563.9536,-3450.5527L13563.952,-3450.5534L13563.9464,-3450.5557L13563.9442,-3450.5617L13563.9522,-3450.6082L13563.9514,-3450.6184L13563.9478,-3450.6213L13563.9392,-3450.6231L13563.9039,-3450.6237L13563.8974,-3450.6273L13563.8938,-3450.6494L13563.8873,-3450.6709L13563.8794,-3450.684L13563.8656,-3450.6935L13563.8512,-3450.6965L13563.8383,-3450.6953L13563.8274,-3450.6911L13563.8209,-3450.712L13563.8195,-3450.7287L13563.8217,-3450.7484L13563.8209,-3450.7711L13563.8152,-3450.7913L13563.8058,-3450.8021L13563.7972,-3450.8056L13563.7892,-3450.8044L13563.7748,-3450.7997L13563.7604,-3450.7859L13563.7366,-3450.7597L13563.7193,-3450.7359L13563.6602,-3450.6929L13563.6487,-3450.6869L13563.6393,-3450.6852L13563.622,-3450.6864L13563.5816,-3450.6995L13563.5802,-3450.7061L13563.581,-3450.707L13563.5867,-3450.7138L13563.6155,-3450.7478L13563.6373,-3450.7797L13563.6415,-3450.7859L13563.653,-3450.8194L13563.656,-3450.8333L13563.6581,-3450.8426L13563.6537,-3450.8569L13563.6393,-3450.8814L13563.5809,-3450.9411L13563.5459,-3450.9804L13563.5315,-3450.9941L13563.52,-3451.0001L13563.4854,-3451.0168L13563.4371,-3451.052L13563.4108,-3451.073L13563.4057,-3451.077L13563.3769,-3451.1063L13563.3546,-3451.1271L13563.3333,-3451.1387L13563.3315,-3451.1397L13563.2969,-3451.1743L13563.2753,-3451.1946L13563.2616,-3451.1999L13563.2313,-3451.2065L13563.2053,-3451.2226L13563.1895,-3451.2434L13563.1758,-3451.2601L13563.157,-3451.281L13563.1415,-3451.2942L13563.13,-3451.327L13563.1185,-3451.3496L13563.1055,-3451.3616L13563.0875,-3451.3753L13563.0781,-3451.386L13563.0615,-3451.4123L13563.0536,-3451.4182L13563.0421,-3451.4212L13563.0262,-3451.4242L13563.0161,-3451.4277L13562.9938,-3451.4409L13562.9884,-3451.4454L13562.9729,-3451.4588L13562.9635,-3451.4647L13562.9504,-3451.4677L13562.9426,-3451.4695L13562.8901,-3451.4703L13562.8633,-3451.4707L13562.7573,-3451.4707L13562.7073,-3451.4722L13562.5821,-3451.4761L13562.536,-3451.4796L13562.5,-3451.4842L13562.4892,-3451.4856L13562.4416,-3451.4868L13562.3904,-3451.488L13562.3779,-3451.4871L13562.3444,-3451.4846L13562.3183,-3451.4826L13562.2245,-3451.484L13562.2183,-3451.4833L13562.201,-3451.4791L13562.1484,-3451.4762L13562.1113,-3451.4742L13562.0778,-3451.473L13562.0571,-3451.4762L13562.0398,-3451.4817L13562.0532,-3451.4933L13562.0748,-3451.5309L13562.0957,-3451.5589L13562.1066,-3451.5694L13562.1484,-3451.6096L13562.1642,-3451.6371L13562.1785,-3451.6584L13562.184,-3451.6667L13562.1959,-3451.6845L13562.1996,-3451.7018L13562.1952,-3451.7215L13562.1693,-3451.7949L13562.1534,-3451.8324L13562.1469,-3451.8581L13562.1457,-3451.8687L13562.1404,-3451.9136L13562.1426,-3451.9592L13562.1339,-3452.0153L13562.1325,-3452.0582L13562.1347,-3452.0761L13562.1411,-3452.0922L13562.1721,-3452.1226L13562.1837,-3452.1405L13562.1801,-3452.1599L13562.17,-3452.1748L13562.1556,-3452.1867L13562.1404,-3452.2082L13562.1339,-3452.2249L13562.1339,-3452.2392L13562.1383,-3452.2554L13562.1483,-3452.2685L13562.1678,-3452.275L13562.1981,-3452.2792L13562.1997,-3452.2793L13562.2183,-3452.2798L13562.2232,-3452.2801L13562.4156,-3452.2765L13562.4253,-3452.2764L13562.4391,-3452.2761L13562.4397,-3452.2761L13562.4383,-3452.3137L13562.4318,-3452.3423L13562.4318,-3452.353L13562.4412,-3452.3572L13562.4424,-3452.3566L13562.4527,-3452.3518L13562.4729,-3452.3351L13562.4816,-3452.3351L13562.4859,-3452.3373L13562.5,-3452.3443L13562.5128,-3452.3507L13562.5306,-3452.3596L13562.5846,-3452.3899L13562.589,-3452.3924L13562.6084,-3452.3966L13562.6185,-3452.3954L13562.6293,-3452.3882L13562.6539,-3452.3507L13562.682,-3452.3149L13562.6784,-3452.2588L13562.6798,-3452.2248L13562.6845,-3452.2131L13562.6856,-3452.2105L13562.6996,-3452.2029L13562.7043,-3452.2003L13562.7102,-3452.2002L13562.7245,-3452.1997L13562.7317,-3452.2093L13562.7301,-3452.2533L13562.7298,-3452.2615L13562.7295,-3452.2689L13562.729,-3452.2759L13562.7279,-3452.2914L13562.725,-3452.3329L13562.7237,-3452.3507L13562.7201,-3452.4497L13562.7161,-3452.4911L13562.7158,-3452.4932L13562.7156,-3452.4996L13562.7155,-3452.5L13562.7137,-3452.5451L13562.7677,-3452.5497L13562.8009,-3452.5485L13562.8319,-3452.5408L13562.8434,-3452.5521L13562.8174,-3452.5784L13562.8268,-3452.5873L13562.8413,-3452.5945L13562.8701,-3452.5957L13562.904,-3452.5933L13562.9407,-3452.5837L13562.9789,-3452.5736L13563.0222,-3452.5658L13563.0359,-3452.5658L13563.0366,-3452.576L13563.0402,-3452.6267L13563.0085,-3452.6326L13562.9732,-3452.6326L13562.9717,-3452.6601L13562.9919,-3452.6648L13562.9919,-3452.6762L13563.0142,-3452.6803L13563.0149,-3452.6684L13563.0734,-3452.6767L13563.0856,-3452.6779L13563.1126,-3452.7072L13563.1602,-3452.7472L13563.1869,-3452.7603L13563.2085,-3452.768L13563.2266,-3452.7686L13563.2474,-3452.7651L13563.2597,-3452.7573L13563.2727,-3452.7448L13563.2806,-3452.734L13563.3001,-3452.7311L13563.3238,-3452.7299L13563.3333,-3452.7279L13563.344,-3452.7257L13563.3979,-3452.7227L13563.4082,-3452.7221L13563.4428,-3452.7191L13563.4709,-3452.7167L13563.4817,-3452.7174L13563.4904,-3452.7257L13563.5142,-3452.7507L13563.5596,-3452.7836L13563.6043,-3452.8241L13563.6486,-3452.8557L13563.6868,-3452.8784L13563.7337,-3452.9034L13563.7798,-3452.9333L13563.8256,-3452.9679L13563.8529,-3452.9947L13563.8623,-3453.0061L13563.8746,-3453.0209L13563.8915,-3453.0406L13563.9377,-3453.0866L13563.955,-3453.1015L13563.9658,-3453.1062L13563.9716,-3453.1062L13563.9989,-3453.0877L13564.0148,-3453.0836L13564.0364,-3453.0836L13564.059,-3453.0847L13564.0854,-3453.086L13564.102,-3453.083L13564.1215,-3453.0722L13564.1373,-3453.0639L13564.1667,-3453.0538L13564.1669,-3453.0537L13564.1849,-3453.0472L13564.1957,-3453.0388L13564.2044,-3453.0305L13564.2106,-3453.0354L13564.2519,-3453.0681L13564.2547,-3453.0656L13564.3024,-3453.0234L13564.3256,-3453.0445L13564.4004,-3453.1128L13564.4159,-3453.1308L13564.4322,-3453.1498L13564.4373,-3453.1537L13564.4588,-3453.1701L13564.4934,-3453.1933L13564.5172,-3453.2124L13564.5331,-3453.2363L13564.5453,-3453.2709L13564.554,-3453.2876L13564.5583,-3453.312L13564.5641,-3453.3269L13564.5699,-3453.3333L13564.5727,-3453.3365L13564.5915,-3453.3514L13564.6021,-3453.3581L13564.6189,-3453.3687L13564.6405,-3453.3932L13564.6693,-3453.4206L13564.6709,-3453.4222L13564.6895,-3453.4415L13564.6996,-3453.4552L13564.7104,-3453.4641L13564.7205,-3453.4647L13564.7385,-3453.4612L13564.8193,-3453.4385L13564.8452,-3453.4284L13564.864,-3453.4152L13564.8849,-3453.3932L13564.9043,-3453.3729L13564.9425,-3453.3383L13564.9485,-3453.3333L13564.9714,-3453.3144L13564.9839,-3453.3087L13564.9858,-3453.3079L13565,-3453.3084L13565.0009,-3453.3084L13565.0063,-3453.3103L13565.0269,-3453.3174L13565.0626,-3453.3333L13565.0644,-3453.3341L13565.1083,-3453.3484L13565.1487,-3453.3651L13565.1991,-3453.3914L13565.2294,-3453.414L13565.2619,-3453.4397L13565.3001,-3453.4623L13565.3318,-3453.4862L13565.3444,-3453.4968L13565.3736,-3453.5214L13565.4486,-3453.5786L13565.5184,-3453.6431L13565.5509,-3453.6729L13565.5682,-3453.6997L13565.5797,-3453.7385L13565.5819,-3453.7582L13565.5866,-3453.767L13565.5956,-3453.7838L13565.6086,-3453.825L13565.6216,-3453.8548L13565.641,-3453.887L13565.6597,-3453.9151L13565.6788,-3453.9329L13565.6981,-3453.9452L13565.7171,-3453.9574L13565.7495,-3453.9818L13565.7891,-3454.0051L13565.8333,-3454.0264L13565.8547,-3454.0367L13565.8803,-3454.051L13565.918,-3454.0673Z"/>
<path content="大阪府,,南河内郡,河南町,,27382" xlink:title="大阪府" d="M13562.5,-3451.4842L13562.536,-3451.4796L13562.5821,-3451.4761L13562.7073,-3451.4722L13562.7573,-3451.4707L13562.8633,-3451.4707L13562.8901,-3451.4703L13562.9426,-3451.4695L13562.9504,-3451.4677L13562.9635,-3451.4647L13562.9729,-3451.4588L13562.9884,-3451.4454L13562.9938,-3451.4409L13563.0161,-3451.4277L13563.0262,-3451.4242L13563.0421,-3451.4212L13563.0536,-3451.4182L13563.0615,-3451.4123L13563.0781,-3451.386L13563.0875,-3451.3753L13563.1055,-3451.3616L13563.1185,-3451.3496L13563.13,-3451.327L13563.1415,-3451.2942L13563.157,-3451.281L13563.1758,-3451.2601L13563.1895,-3451.2434L13563.2053,-3451.2226L13563.2313,-3451.2065L13563.2616,-3451.1999L13563.2753,-3451.1946L13563.2969,-3451.1743L13563.3315,-3451.1397L13563.3333,-3451.1387L13563.3546,-3451.1271L13563.3769,-3451.1063L13563.4057,-3451.077L13563.4108,-3451.073L13563.4371,-3451.052L13563.4854,-3451.0168L13563.52,-3451.0001L13563.5315,-3450.9941L13563.5459,-3450.9804L13563.5809,-3450.9411L13563.6393,-3450.8814L13563.6537,-3450.8569L13563.6581,-3450.8426L13563.656,-3450.8333L13563.653,-3450.8194L13563.6415,-3450.7859L13563.6373,-3450.7797L13563.6155,-3450.7478L13563.5867,-3450.7138L13563.581,-3450.707L13563.5802,-3450.7061L13563.5816,-3450.6995L13563.622,-3450.6864L13563.6393,-3450.6852L13563.6487,-3450.6869L13563.6602,-3450.6929L13563.7193,-3450.7359L13563.7366,-3450.7597L13563.7604,-3450.7859L13563.7748,-3450.7997L13563.7892,-3450.8044L13563.7972,-3450.8056L13563.8058,-3450.8021L13563.8152,-3450.7913L13563.8209,-3450.7711L13563.8217,-3450.7484L13563.8195,-3450.7287L13563.8209,-3450.712L13563.8274,-3450.6911L13563.8383,-3450.6953L13563.8512,-3450.6965L13563.8656,-3450.6935L13563.8794,-3450.684L13563.8873,-3450.6709L13563.8938,-3450.6494L13563.8974,-3450.6273L13563.9039,-3450.6237L13563.9392,-3450.6231L13563.9478,-3450.6213L13563.9514,-3450.6184L13563.9522,-3450.6082L13563.9442,-3450.5617L13563.9464,-3450.5557L13563.952,-3450.5534L13563.9536,-3450.5527L13563.9586,-3450.548L13563.9586,-3450.5331L13563.9572,-3450.4758L13563.9637,-3450.4525L13564.0069,-3450.3277L13564.0191,-3450.304L13564.0155,-3450.2886L13564.0097,-3450.2772L13564.0119,-3450.2683L13564.0227,-3450.2557L13564.0277,-3450.2492L13564.0267,-3450.2431L13564.0256,-3450.2361L13564.0097,-3450.2241L13564.0126,-3450.2038L13564.0184,-3450.1937L13564.0292,-3450.1931L13564.0351,-3450.1941L13564.0515,-3450.1967L13564.1012,-3450.2056L13564.1149,-3450.2086L13564.1336,-3450.2128L13564.139,-3450.2183L13564.1458,-3450.2253L13564.1451,-3450.239L13564.1372,-3450.2492L13564.1192,-3450.2653L13564.1012,-3450.2755L13564.094,-3450.2796L13564.0839,-3450.2891L13564.0827,-3450.2939L13564.0817,-3450.2981L13564.1055,-3450.3277L13564.113,-3450.3421L13564.1318,-3450.3647L13564.1498,-3450.3778L13564.1557,-3450.3802L13564.1667,-3450.3845L13564.1801,-3450.3898L13564.1984,-3450.3703L13564.2443,-3450.3277L13564.2776,-3450.3035L13564.3036,-3450.2921L13564.3446,-3450.2772L13564.359,-3450.2754L13564.3683,-3450.2784L13564.3683,-3450.2939L13564.3477,-3450.3202L13564.3453,-3450.3233L13564.3406,-3450.3277L13564.3325,-3450.3345L13564.2969,-3450.3462L13564.2797,-3450.3527L13564.2791,-3450.3529L13564.2484,-3450.3854L13564.2485,-3450.3879L13564.2488,-3450.3914L13564.263,-3450.3981L13564.2724,-3450.3957L13564.312,-3450.3766L13564.3214,-3450.3706L13564.3379,-3450.3599L13564.3653,-3450.345L13564.3797,-3450.3355L13564.3892,-3450.3277L13564.4137,-3450.3064L13564.4223,-3450.2891L13564.4274,-3450.2772L13564.4281,-3450.2533L13564.4331,-3450.2384L13564.4476,-3450.2289L13564.4591,-3450.2205L13564.4605,-3450.2056L13564.4569,-3450.1853L13564.4555,-3450.1752L13564.4612,-3450.1621L13564.472,-3450.1549L13564.4821,-3450.1555L13564.4936,-3450.1621L13564.503,-3450.1799L13564.5131,-3450.2008L13564.5174,-3450.2074L13564.5808,-3450.2056L13564.5952,-3450.1978L13564.6139,-3450.1782L13564.629,-3450.165L13564.6304,-3450.158L13564.6326,-3450.1465L13564.6369,-3450.1012L13564.6413,-3450.0809L13564.6463,-3450.0744L13564.6542,-3450.069L13564.6729,-3450.072L13564.6924,-3450.0714L13564.7197,-3450.0732L13564.7126,-3450.1161L13564.7163,-3450.1268L13564.7197,-3450.137L13564.7464,-3450.1215L13564.8256,-3450.0911L13564.876,-3450.0672L13564.9315,-3450.0326L13564.9293,-3450.0243L13564.9243,-3450.0087L13564.9216,-3450L13564.9188,-3449.9909L13564.9253,-3449.9748L13564.9476,-3449.9414L13564.9474,-3449.9354L13564.9469,-3449.9205L13564.9461,-3449.914L13564.9606,-3449.9086L13564.9669,-3449.9069L13565,-3449.8982L13565.0059,-3449.8967L13565.0232,-3449.8889L13565.0246,-3449.8812L13565.0196,-3449.8722L13565.0031,-3449.8615L13565,-3449.8623L13564.985,-3449.8663L13564.9663,-3449.8782L13564.9469,-3449.8788L13564.9346,-3449.8758L13564.921,-3449.8657L13564.9188,-3449.8621L13564.9569,-3449.8347L13564.9584,-3449.8275L13564.9548,-3449.8215L13564.9397,-3449.8167L13564.9224,-3449.8162L13564.8994,-3449.8197L13564.8763,-3449.8311L13564.8681,-3449.8355L13564.8453,-3449.8478L13564.8403,-3449.8478L13564.8218,-3449.8457L13564.8187,-3449.8454L13564.8093,-3449.8388L13564.8086,-3449.8209L13564.8201,-3449.7869L13564.8288,-3449.7726L13564.8374,-3449.7666L13564.8533,-3449.7696L13564.8907,-3449.7846L13564.9001,-3449.7869L13564.9131,-3449.7774L13564.921,-3449.7649L13564.9361,-3449.7547L13564.9519,-3449.7565L13564.9606,-3449.7643L13564.9677,-3449.7804L13564.9743,-3449.7923L13564.9908,-3449.7971L13565,-3449.7975L13565.0038,-3449.7977L13565.0275,-3449.7869L13565.0383,-3449.7869L13565.052,-3449.7941L13565.0614,-3449.7935L13565.0736,-3449.7851L13565.0916,-3449.7696L13565.1046,-3449.7654L13565.1147,-3449.7654L13565.1192,-3449.7711L13565.1219,-3449.7744L13565.1201,-3449.7819L13565.1176,-3449.7923L13565.1168,-3449.7989L13565.1233,-3449.8078L13565.1334,-3449.8096L13565.1471,-3449.8108L13565.1629,-3449.806L13565.1749,-3449.7987L13565.1795,-3449.7959L13565.1867,-3449.7917L13565.1997,-3449.7977L13565.2097,-3449.8108L13565.2184,-3449.8275L13565.2191,-3449.8281L13565.2378,-3449.8418L13565.2493,-3449.8454L13565.2659,-3449.8448L13565.2947,-3449.8388L13565.3235,-3449.8275L13565.3322,-3449.8203L13565.3523,-3449.803L13565.3638,-3449.7947L13565.3941,-3449.7816L13565.4114,-3449.7774L13565.4299,-3449.7738L13565.4452,-3449.7708L13565.4884,-3449.7666L13565.5028,-3449.7619L13565.5194,-3449.7511L13565.5331,-3449.7368L13565.5446,-3449.7273L13565.5525,-3449.7279L13565.5617,-3449.7371L13565.5761,-3449.7467L13565.6028,-3449.764L13565.6251,-3449.7711L13565.6496,-3449.7765L13565.6954,-3449.7805L13565.6971,-3449.7807L13565.7209,-3449.7842L13565.808,-3449.8021L13565.8333,-3449.8083L13565.8894,-3449.8218L13565.9139,-3449.829L13565.918,-3449.8293L13565.918,-3449.707L13562.7729,-3449.707L13562.7703,-3449.7942L13562.7485,-3449.7939L13562.7278,-3449.7936L13562.6868,-3449.7942L13562.6421,-3449.7924L13562.6256,-3449.7876L13562.6112,-3449.7816L13562.6026,-3449.7848L13562.5866,-3449.7907L13562.5658,-3449.7983L13562.5521,-3449.8079L13562.5485,-3449.8312L13562.537,-3449.8496L13562.5226,-3449.8621L13562.5,-3449.8744L13562.4996,-3449.8747L13562.4765,-3449.8806L13562.4724,-3449.8829L13562.4571,-3449.8914L13562.4441,-3449.9063L13562.4297,-3449.9272L13562.4254,-3449.9439L13562.4182,-3449.9594L13562.4103,-3449.9671L13562.3779,-3449.9659L13562.3563,-3449.9701L13562.3441,-3449.9712L13562.3296,-3449.9725L13562.2677,-3449.9743L13562.2475,-3449.985L13562.2248,-3450L13562.2183,-3450.0043L13562.2156,-3450.0052L13562.1933,-3450.0129L13562.1929,-3450.0219L13562.1922,-3450.0459L13562.1922,-3450.0743L13562.1898,-3450.0806L13562.183,-3450.0986L13562.1814,-3450.1027L13562.1696,-3450.1516L13562.1656,-3450.1634L13562.1589,-3450.1828L13562.1406,-3450.2157L13562.1259,-3450.2467L13562.1201,-3450.2588L13562.1127,-3450.2744L13562.1044,-3450.2892L13562.0977,-3450.301L13562.0771,-3450.3277L13562.0641,-3450.344L13562.0434,-3450.3701L13562.002,-3450.4262L13561.9867,-3450.446L13561.979,-3450.456L13561.975,-3450.4644L13561.9631,-3450.4894L13561.9636,-3450.4952L13561.9642,-3450.5031L13561.9653,-3450.5169L13561.9347,-3450.5356L13561.8816,-3450.5682L13561.8701,-3450.5695L13561.8607,-3450.5706L13561.8521,-3450.5771L13561.8088,-3450.629L13561.805,-3450.6367L13561.7915,-3450.6636L13561.7663,-3450.706L13561.7627,-3450.737L13561.7666,-3450.7577L13561.7735,-3450.7939L13561.7691,-3450.8333L13561.7641,-3450.8769L13561.7628,-3450.8902L13561.7591,-3450.9287L13561.7504,-3450.9562L13561.7497,-3450.9914L13561.7468,-3451.0203L13561.7771,-3451.1331L13561.7894,-3451.1581L13561.7923,-3451.1814L13561.7889,-3451.2024L13561.7865,-3451.2177L13561.7901,-3451.2336L13561.7908,-3451.2592L13561.7959,-3451.2753L13561.816,-3451.3111L13561.8196,-3451.326L13561.8297,-3451.3451L13561.8354,-3451.3505L13561.855,-3451.3689L13561.8744,-3451.3824L13561.8816,-3451.3874L13561.8946,-3451.4L13561.9046,-3451.4057L13561.9328,-3451.4221L13561.9748,-3451.4422L13561.9963,-3451.4525L13562.0054,-3451.4576L13562.0236,-3451.4677L13562.0376,-3451.4798L13562.0398,-3451.4817L13562.0571,-3451.4762L13562.0778,-3451.473L13562.1113,-3451.4742L13562.1484,-3451.4762L13562.201,-3451.4791L13562.2183,-3451.4833L13562.2245,-3451.484L13562.3183,-3451.4826L13562.3444,-3451.4846L13562.3779,-3451.4871L13562.3904,-3451.488L13562.4416,-3451.4868L13562.4892,-3451.4856L13562.5,-3451.4842Z"/>
</g>
</svg>
