<?xml version="1.0" encoding="UTF-8"?>
<svg  xmlns="http://www.w3.org/2000/svg" xmlns:xlink="http://www.w3.org/1999/xlink" xmlns:go="http://purl.org/svgmap/profile" property="geometry,N03_001,N03_002,N03_003,N03_004,N03_005,N03_007" viewBox="13526.3671875 -3445.3125 8.7890625 8.7890625" go:dataArea="13526.3671875 -3445.3125 8.7890625 8.7890625" >
<metadata>
 <rdf:RDF xmlns:rdf="http://www.w3.org/1999/02/22-rdf-syntax-ns#" xmlns:crs="http://opengis.org/xmldtds/transformations.dtd" xmlns:svg="http://www.w3.org/svg" >
  <rdf:Description>
   <crs:CoordinateReferenceSystem rdf:resource="http://purl.org/crs/84" svg:transform="matrix(100.0,0.0,0.0,-100.0,0.0,0.0)" />
  </rdf:Description>
 </rdf:RDF>
</metadata>
<globalCoordinateSystem srsName="http://purl.org/crs/84" transform="matrix(100.0,0.0,0.0,-100.0,0.0,0.0)" />
<defs>
 <g id="p0" >
  <circle cx="0.0" cy="0.0" r="3" stroke="green" stroke-width="2.0" vector-effect="non-scaling-stroke" />
 </g>
</defs>
<g fill="#0000ff" fill-rule="evenodd" opacity="0.5" >
<path content="大阪府,,,貝塚市,,27208" xlink:title="大阪府" d="M13535.1562,-3445.3125L13535.1562,-3442.0563L13535.1556,-3442.0573L13535.146,-3442.0703L13535.131,-3442.0827L13535.0886,-3442.0968L13535.0631,-3442.1061L13535.0283,-3442.1319L13535.0032,-3442.1436L13535,-3442.1451L13534.9763,-3442.1561L13534.9681,-3442.1599L13534.9407,-3442.1849L13534.869,-3442.2531L13534.8539,-3442.2773L13534.8502,-3442.2929L13534.8455,-3442.367L13534.8341,-3442.4046L13534.8294,-3442.42L13534.8268,-3442.4284L13534.8189,-3442.4532L13534.8033,-3442.4786L13534.7944,-3442.4929L13534.7859,-3442.5L13534.7746,-3442.5093L13534.7313,-3442.5288L13534.7097,-3442.5351L13534.6586,-3442.5378L13534.6523,-3442.5382L13534.6399,-3442.5403L13534.6079,-3442.5458L13534.6023,-3442.5467L13534.5974,-3442.5487L13534.5743,-3442.5578L13534.5422,-3442.5704L13534.5342,-3442.5765L13534.529,-3442.5804L13534.5199,-3442.5874L13534.5047,-3442.5989L13534.4547,-3442.6578L13534.4337,-3442.6895L13534.4241,-3442.704L13534.4188,-3442.7121L13534.41,-3442.7253L13534.3928,-3442.7408L13534.3616,-3442.7667L13534.346,-3442.7745L13534.337,-3442.7785L13534.2277,-3442.8271L13534.1667,-3442.8473L13534.0676,-3442.8801L13533.9916,-3442.9011L13533.9627,-3442.9147L13533.9494,-3442.9341L13533.9437,-3442.9613L13533.9435,-3442.9625L13533.9357,-3443.0001L13533.9324,-3443.0159L13533.9286,-3443.0339L13533.9273,-3443.0404L13533.9267,-3443.0428L13533.9205,-3443.0532L13533.901,-3443.0713L13533.8784,-3443.0882L13533.8712,-3443.0937L13533.8651,-3443.0982L13533.8581,-3443.1036L13533.858,-3443.1036L13533.8509,-3443.1113L13533.8444,-3443.1183L13533.8344,-3443.1292L13533.8225,-3443.1486L13533.8178,-3443.1564L13533.8149,-3443.1611L13533.8098,-3443.1695L13533.7992,-3443.1868L13533.7805,-3443.2094L13533.7625,-3443.2198L13533.7453,-3443.2198L13533.711,-3443.2076L13533.6852,-3443.1984L13533.6374,-3443.1876L13533.5987,-3443.1851L13533.5307,-3443.1861L13533.4026,-3443.2041L13533.3333,-3443.2243L13533.3002,-3443.2339L13533.2639,-3443.2445L13533.2537,-3443.2474L13533.2456,-3443.2497L13533.2327,-3443.2535L13533.1298,-3443.2782L13533.0499,-3443.3333L13532.9433,-3443.4069L13532.905,-3443.4327L13532.9121,-3443.4387L13532.9368,-3443.4595L13532.925,-3443.474L13532.9253,-3443.4762L13532.9271,-3443.4771L13532.9296,-3443.4762L13532.9429,-3443.4627L13532.9574,-3443.4719L13533.0196,-3443.5238L13533.0522,-3443.5285L13533.1015,-3443.5097L13533.0971,-3443.5014L13533.051,-3443.5193L13533.0251,-3443.5158L13532.9809,-3443.4789L13533.0242,-3443.4272L13533.0337,-3443.4326L13533.0519,-3443.443L13533.0649,-3443.4285L13533.0442,-3443.416L13533.0944,-3443.381L13533.0984,-3443.3844L13533.0865,-3443.3929L13533.088,-3443.3943L13533.0996,-3443.3863L13533.1093,-3443.3958L13533.1539,-3443.4403L13533.1716,-3443.4577L13533.1524,-3443.4709L13533.1421,-3443.4793L13533.1433,-3443.4821L13533.1504,-3443.488L13533.1533,-3443.489L13533.1566,-3443.487L13533.1674,-3443.4811L13533.1894,-3443.4661L13533.1929,-3443.4635L13533.1967,-3443.4603L13533.2029,-3443.4566L13533.2115,-3443.461L13533.2217,-3443.468L13533.2312,-3443.4767L13533.2411,-3443.4867L13533.2495,-3443.4962L13533.2577,-3443.5082L13533.2644,-3443.5202L13533.2728,-3443.5338L13533.2802,-3443.5456L13533.286,-3443.5542L13533.2928,-3443.5657L13533.3,-3443.5772L13533.3073,-3443.5894L13533.3158,-3443.6034L13533.324,-3443.6167L13533.3305,-3443.6288L13533.3333,-3443.635L13533.3361,-3443.6412L13533.3426,-3443.6529L13533.3497,-3443.6626L13533.3595,-3443.6753L13533.3667,-3443.6861L13533.3746,-3443.6983L13533.3844,-3443.7117L13533.3919,-3443.7236L13533.3992,-3443.7371L13533.4077,-3443.7498L13533.4157,-3443.7631L13533.4219,-3443.7749L13533.4312,-3443.787L13533.4392,-3443.7992L13533.4465,-3443.8122L13533.4562,-3443.8248L13533.4645,-3443.8385L13533.4726,-3443.8512L13533.4815,-3443.8632L13533.4883,-3443.8747L13533.4952,-3443.8872L13533.5021,-3443.8996L13533.5064,-3443.911L13533.511,-3443.9225L13533.5153,-3443.9362L13533.5192,-3443.9503L13533.5227,-3443.962L13533.5252,-3443.9704L13533.5278,-3443.9808L13533.5285,-3443.9898L13533.5293,-3443.9993L13533.5321,-3444.0101L13533.5363,-3444.02L13533.5405,-3444.0304L13533.5444,-3444.0395L13533.5498,-3444.0504L13533.5548,-3444.0596L13533.5604,-3444.0695L13533.5661,-3444.0797L13533.5717,-3444.0903L13533.5783,-3444.102L13533.5843,-3444.1119L13533.59,-3444.1219L13533.5954,-3444.1312L13533.6004,-3444.1399L13533.6047,-3444.1477L13533.6083,-3444.1531L13533.6091,-3444.1549L13533.6094,-3444.1562L13533.6094,-3444.1575L13533.6092,-3444.1587L13533.6086,-3444.16L13533.6075,-3444.161L13533.6064,-3444.1614L13533.59,-3444.1667L13533.4128,-3444.2238L13533.4118,-3444.2234L13533.4107,-3444.223L13533.4093,-3444.2228L13533.4078,-3444.2228L13533.4069,-3444.2232L13533.406,-3444.2238L13533.4054,-3444.2248L13533.4051,-3444.2259L13533.4051,-3444.227L13533.4053,-3444.2281L13533.4058,-3444.2287L13533.4066,-3444.2295L13533.4077,-3444.2302L13533.4089,-3444.2306L13533.41,-3444.2307L13533.4109,-3444.2306L13533.412,-3444.2301L13533.4128,-3444.2293L13533.4135,-3444.2283L13533.414,-3444.2273L13533.4142,-3444.226L13533.5981,-3444.1667L13533.6081,-3444.1635L13533.7283,-3444.1247L13533.7291,-3444.1279L13533.7297,-3444.13L13533.7311,-3444.1321L13533.7326,-3444.1332L13533.7344,-3444.1341L13533.7418,-3444.1359L13533.7551,-3444.1397L13533.7656,-3444.142L13533.7679,-3444.145L13533.7665,-3444.1484L13533.7716,-3444.15L13533.7764,-3444.1563L13533.7854,-3444.1667L13533.7857,-3444.167L13533.7911,-3444.1734L13533.7955,-3444.1787L13533.8051,-3444.1892L13533.8123,-3444.1963L13533.8117,-3444.1974L13533.8083,-3444.2038L13533.807,-3444.2085L13533.806,-3444.2124L13533.8064,-3444.2205L13533.8089,-3444.2264L13533.8151,-3444.2336L13533.8206,-3444.2392L13533.8272,-3444.2457L13533.8336,-3444.2523L13533.8391,-3444.2586L13533.8449,-3444.2657L13533.8489,-3444.2707L13533.8531,-3444.2753L13533.856,-3444.2733L13533.8563,-3444.2731L13533.8572,-3444.2742L13533.8595,-3444.2766L13533.8606,-3444.2779L13533.8625,-3444.2804L13533.8026,-3444.3224L13533.7094,-3444.3876L13533.6411,-3444.4353L13533.7155,-3444.5764L13533.7253,-3444.5828L13533.7282,-3444.5849L13533.7352,-3444.5899L13533.7381,-3444.592L13533.8029,-3444.6353L13534.1136,-3444.8429L13534.1667,-3444.8783L13534.2336,-3444.923L13534.3368,-3444.9919L13534.34,-3444.9954L13534.3441,-3445L13534.3446,-3445.0006L13534.3494,-3445.006L13534.3521,-3445.009L13534.3566,-3445.0049L13534.3632,-3445L13534.387,-3444.9822L13534.388,-3444.9826L13534.4094,-3444.9669L13534.4152,-3444.9626L13534.4179,-3444.9606L13534.5601,-3444.8645L13534.5655,-3444.8608L13534.5687,-3444.8587L13534.571,-3444.8571L13534.6232,-3444.8218L13534.6502,-3444.8036L13534.6527,-3444.8058L13534.6599,-3444.8125L13534.6743,-3444.8256L13534.6736,-3444.835L13534.6999,-3444.8616L13534.703,-3444.8648L13534.8085,-3444.972L13534.8361,-3445L13534.8417,-3445.0057L13534.889,-3445.0537L13534.9338,-3445.0992L13534.9903,-3445.1565L13535,-3445.1664L13535.0217,-3445.1885L13535.0251,-3445.2002L13535.0296,-3445.216L13535.0435,-3445.2647L13535.0571,-3445.3125Z"/>
<path content="大阪府,,,貝塚市,,27208" xlink:title="大阪府" d="M13534.4437,-3445.3125L13534.4154,-3445.284L13534.3235,-3445.1911L13534.2467,-3445.1128L13534.2438,-3445.1101L13534.2387,-3445.1054L13534.234,-3445.1009L13534.231,-3445.0981L13534.2301,-3445.0973L13534.2127,-3445.0844L13534.1667,-3445.0537L13534.0862,-3445L13533.6346,-3444.6988L13533.6316,-3444.6967L13533.6238,-3444.6916L13533.6208,-3444.6895L13533.54,-3444.6352L13533.5381,-3444.6339L13533.4454,-3444.5715L13533.443,-3444.5697L13533.4434,-3444.5671L13533.442,-3444.5653L13533.4057,-3444.5413L13533.3419,-3444.4972L13533.3333,-3444.492L13533.3239,-3444.4864L13533.3171,-3444.4812L13533.3093,-3444.4768L13533.3009,-3444.4727L13533.2886,-3444.4696L13533.2744,-3444.4693L13533.2608,-3444.4703L13533.2467,-3444.4738L13533.2338,-3444.4778L13533.2209,-3444.4847L13533.211,-3444.4923L13533.2045,-3444.499L13533.2036,-3444.502L13533.2031,-3444.5056L13533.2035,-3444.5079L13533.205,-3444.5111L13533.2068,-3444.513L13533.2096,-3444.5153L13533.212,-3444.5165L13533.2152,-3444.5172L13533.2185,-3444.5176L13533.2217,-3444.5174L13533.2252,-3444.5165L13533.2289,-3444.5146L13533.2368,-3444.509L13533.2434,-3444.5047L13533.246,-3444.5042L13533.2491,-3444.5044L13533.2514,-3444.505L13533.2549,-3444.5063L13533.2597,-3444.5088L13533.2629,-3444.5112L13533.2693,-3444.5173L13533.2732,-3444.5216L13533.271,-3444.5226L13533.275,-3444.5276L13533.2775,-3444.5305L13533.2803,-3444.5344L13533.282,-3444.5382L13533.2802,-3444.5392L13533.265,-3444.546L13533.2664,-3444.5486L13533.2816,-3444.5416L13533.2833,-3444.5414L13533.2846,-3444.5421L13533.2853,-3444.5436L13533.2854,-3444.5447L13533.2855,-3444.5476L13533.285,-3444.5542L13533.2834,-3444.5619L13533.2815,-3444.5677L13533.2784,-3444.5721L13533.2771,-3444.5765L13533.2752,-3444.5823L13533.2706,-3444.587L13533.2667,-3444.5964L13533.2617,-3444.606L13533.2544,-3444.618L13533.2456,-3444.6303L13533.2444,-3444.6323L13533.2382,-3444.6421L13533.2306,-3444.6513L13533.2256,-3444.6551L13533.2226,-3444.6553L13533.2184,-3444.6556L13533.2168,-3444.6568L13533.2137,-3444.6598L13533.2039,-3444.6691L13533.1931,-3444.6794L13533.1848,-3444.6871L13533.1774,-3444.6942L13533.1761,-3444.6977L13533.178,-3444.7001L13533.1707,-3444.7076L13533.1618,-3444.7162L13533.1532,-3444.725L13533.142,-3444.7339L13533.1308,-3444.7426L13533.1184,-3444.7505L13533.1032,-3444.7583L13533.0882,-3444.7634L13533.0721,-3444.7678L13533.0586,-3444.7708L13533.0446,-3444.7724L13533.0326,-3444.7734L13533.0164,-3444.7748L13533.0007,-3444.775L13532.9882,-3444.7748L13532.9791,-3444.7754L13532.9533,-3444.7502L13532.9793,-3444.695L13532.98,-3444.6927L13532.98,-3444.6905L13532.9796,-3444.6889L13532.9789,-3444.6872L13532.978,-3444.6858L13532.9764,-3444.6841L13532.9746,-3444.6831L13532.9724,-3444.6819L13532.9703,-3444.6813L13532.9681,-3444.681L13532.9651,-3444.6809L13532.9622,-3444.6811L13532.9587,-3444.6816L13532.9561,-3444.6827L13532.954,-3444.6838L13532.9517,-3444.6858L13532.9507,-3444.6872L13532.9371,-3444.7108L13532.9286,-3444.7257L13532.9261,-3444.7231L13532.9233,-3444.72L13532.9194,-3444.7148L13532.9156,-3444.7165L13532.9184,-3444.7216L13533.0389,-3444.8405L13533.0332,-3444.8461L13533.0232,-3444.8534L13533.0022,-3444.8686L13532.9792,-3444.885L13532.9718,-3444.8908L13532.9634,-3444.8971L13532.9555,-3444.9028L13532.9468,-3444.9081L13532.9394,-3444.9125L13532.9294,-3444.9175L13532.9187,-3444.9235L13532.9097,-3444.9291L13532.9044,-3444.9331L13532.9002,-3444.9352L13532.8941,-3444.9378L13532.8933,-3444.9382L13532.8918,-3444.9391L13532.8889,-3444.9408L13532.8848,-3444.9449L13532.8797,-3444.9514L13532.8744,-3444.9574L13532.8699,-3444.9638L13532.8603,-3444.97L13532.8526,-3444.9758L13532.8469,-3444.9801L13532.8387,-3444.9863L13532.8322,-3444.9907L13532.8281,-3444.9937L13532.7187,-3444.846L13532.8649,-3444.7441L13532.8618,-3444.7411L13532.8584,-3444.7377L13532.8528,-3444.7415L13532.7073,-3444.8426L13532.8073,-3444.9794L13532.8226,-3445L13532.8997,-3445.1038L13532.9455,-3445.1654L13532.9957,-3445.2331L13532.9977,-3445.2359L13533.0546,-3445.3125Z"/>
<path content="大阪府,,,貝塚市,,27208" xlink:title="大阪府" d="M13533.4543,-3444.0394L13533.4242,-3443.9778L13533.418,-3443.9792L13533.4617,-3444.0675L13533.4987,-3444.1457L13533.504,-3444.144L13533.4543,-3444.0394Z"/>
<path content="大阪府,,,貝塚市,,27208" xlink:title="大阪府" d="M13533.4002,-3444.1985L13533.395,-3444.1882L13533.3913,-3444.1895L13533.3965,-3444.1998L13533.4002,-3444.1985Z"/>
<path content="大阪府,,,泉佐野市,,27213" xlink:title="大阪府" d="M13532.5,-3443.6868L13532.8875,-3443.4179L13532.905,-3443.4327L13532.9433,-3443.4069L13533.0499,-3443.3333L13533.1298,-3443.2782L13533.2327,-3443.2535L13533.2456,-3443.2497L13533.2537,-3443.2474L13533.2639,-3443.2445L13533.3002,-3443.2339L13533.3333,-3443.2243L13533.4026,-3443.2041L13533.5307,-3443.1861L13533.5987,-3443.1851L13533.6374,-3443.1876L13533.6852,-3443.1984L13533.711,-3443.2076L13533.7453,-3443.2198L13533.7625,-3443.2198L13533.7805,-3443.2094L13533.7992,-3443.1868L13533.8098,-3443.1695L13533.8149,-3443.1611L13533.8178,-3443.1564L13533.8225,-3443.1486L13533.8344,-3443.1292L13533.8444,-3443.1183L13533.8509,-3443.1113L13533.858,-3443.1036L13533.8581,-3443.1036L13533.8651,-3443.0982L13533.8712,-3443.0937L13533.8784,-3443.0882L13533.901,-3443.0713L13533.9205,-3443.0532L13533.9267,-3443.0428L13533.9273,-3443.0404L13533.9286,-3443.0339L13533.9324,-3443.0159L13533.9357,-3443.0001L13533.9435,-3442.9625L13533.9437,-3442.9613L13533.9494,-3442.9341L13533.9627,-3442.9147L13533.9916,-3442.9011L13534.0676,-3442.8801L13534.1667,-3442.8473L13534.2277,-3442.8271L13534.337,-3442.7785L13534.346,-3442.7745L13534.3616,-3442.7667L13534.3928,-3442.7408L13534.41,-3442.7253L13534.4188,-3442.7121L13534.4241,-3442.704L13534.4337,-3442.6895L13534.4547,-3442.6578L13534.5047,-3442.5989L13534.5199,-3442.5874L13534.529,-3442.5804L13534.5342,-3442.5765L13534.5422,-3442.5704L13534.5743,-3442.5578L13534.5974,-3442.5487L13534.6023,-3442.5467L13534.6079,-3442.5458L13534.6399,-3442.5403L13534.6523,-3442.5382L13534.6586,-3442.5378L13534.7097,-3442.5351L13534.7313,-3442.5288L13534.7746,-3442.5093L13534.7859,-3442.5L13534.7944,-3442.4929L13534.8033,-3442.4786L13534.8189,-3442.4532L13534.8268,-3442.4284L13534.8294,-3442.42L13534.8341,-3442.4046L13534.8455,-3442.367L13534.8502,-3442.2929L13534.8539,-3442.2773L13534.869,-3442.2531L13534.9407,-3442.1849L13534.9681,-3442.1599L13534.9763,-3442.1561L13535,-3442.1451L13535.0032,-3442.1436L13535.0283,-3442.1319L13535.0631,-3442.1061L13535.0886,-3442.0968L13535.131,-3442.0827L13535.146,-3442.0703L13535.1556,-3442.0573L13535.1562,-3442.0563L13535.1562,-3440.7352L13535.1379,-3440.7437L13535.1011,-3440.7606L13535.0797,-3440.7704L13535.0629,-3440.7844L13535.0059,-3440.8333L13535.0029,-3440.836L13535,-3440.8377L13534.9554,-3440.865L13534.9365,-3440.8731L13534.8742,-3440.8998L13534.8722,-3440.9022L13534.8582,-3440.9196L13534.8392,-3440.9354L13534.8378,-3440.9366L13534.8337,-3440.942L13534.8253,-3440.9535L13534.8116,-3440.9719L13534.8036,-3440.9828L13534.7962,-3440.9928L13534.7924,-3441.0038L13534.7793,-3441.0292L13534.7691,-3441.0419L13534.7407,-3441.0474L13534.7115,-3441.0462L13534.6898,-3441.0329L13534.6763,-3441.0246L13534.6714,-3441.0217L13534.667,-3441.0189L13534.6487,-3440.9853L13534.645,-3440.9784L13534.6364,-3440.9626L13534.6349,-3440.9598L13534.6178,-3440.9283L13534.6136,-3440.9206L13534.5946,-3440.8857L13534.5866,-3440.8553L13534.5774,-3440.8422L13534.5712,-3440.8333L13534.5621,-3440.8204L13534.5565,-3440.8124L13534.5275,-3440.7712L13534.5138,-3440.7796L13534.5016,-3440.7869L13534.4293,-3440.8311L13534.4256,-3440.8333L13534.3657,-3440.8699L13534.3335,-3440.8333L13534.304,-3440.7998L13534.302,-3440.7975L13534.2582,-3440.7479L13534.2553,-3440.7416L13534.2464,-3440.7223L13534.2312,-3440.689L13534.2108,-3440.6992L13534.1692,-3440.7201L13534.1667,-3440.721L13534.1475,-3440.7274L13534.1403,-3440.7345L13534.1165,-3440.7576L13534.0849,-3440.7731L13534.0546,-3440.7827L13534.0449,-3440.7833L13534.0358,-3440.7756L13534.0289,-3440.7697L13534.0249,-3440.7662L13534.0229,-3440.7646L13534.0184,-3440.75L13534.02,-3440.7385L13534.0216,-3440.7276L13534.0274,-3440.7126L13534.0255,-3440.6981L13533.9989,-3440.6778L13533.9809,-3440.6927L13533.9564,-3440.7034L13533.9207,-3440.7082L13533.9007,-3440.7034L13533.8717,-3440.6804L13533.8587,-3440.6777L13533.8355,-3440.6847L13533.8266,-3440.682L13533.8139,-3440.678L13533.8079,-3440.6761L13533.8003,-3440.6737L13533.789,-3440.6702L13533.789,-3440.6671L13533.7955,-3440.6521L13533.8078,-3440.6342L13533.8258,-3440.6192L13533.842,-3440.5973L13533.8524,-3440.5796L13533.8584,-3440.5696L13533.8601,-3440.5666L13533.8636,-3440.5641L13533.8952,-3440.541L13533.8869,-3440.5241L13533.8804,-3440.5046L13533.8755,-3440.4902L13533.8736,-3440.4845L13533.8702,-3440.4742L13533.8645,-3440.4574L13533.8232,-3440.443L13533.8084,-3440.4328L13533.8006,-3440.4021L13533.8084,-3440.3739L13533.809,-3440.3715L13533.8122,-3440.3595L13533.8129,-3440.3571L13533.8066,-3440.3495L13533.7994,-3440.3408L13533.7955,-3440.3361L13533.7754,-3440.3119L13533.7206,-3440.2459L13533.7134,-3440.2372L13533.7013,-3440.2226L13533.6836,-3440.2012L13533.6618,-3440.1749L13533.6485,-3440.1641L13533.6338,-3440.1637L13533.6196,-3440.1634L13533.5954,-3440.1365L13533.5964,-3440.1283L13533.5979,-3440.1155L13533.6303,-3440.0645L13533.6071,-3440.0201L13533.5966,-3440L13533.5898,-3439.987L13533.5881,-3439.9837L13533.5837,-3439.9754L13533.5713,-3439.9516L13533.5669,-3439.9433L13533.5592,-3439.9285L13533.5458,-3439.9028L13533.5589,-3439.8899L13533.5784,-3439.8704L13533.5934,-3439.863L13533.6401,-3439.8397L13533.6388,-3439.8369L13533.6161,-3439.7886L13533.6187,-3439.7782L13533.6209,-3439.7694L13533.6287,-3439.7381L13533.638,-3439.7149L13533.6386,-3439.7136L13533.6647,-3439.6486L13533.6744,-3439.6138L13533.6796,-3439.595L13533.6756,-3439.5604L13533.6796,-3439.5538L13533.691,-3439.5505L13533.7442,-3439.55L13533.7472,-3439.5499L13533.7609,-3439.5431L13533.7664,-3439.5413L13533.7747,-3439.5395L13533.7855,-3439.5382L13533.8046,-3439.5354L13533.8129,-3439.5336L13533.8324,-3439.5294L13533.8724,-3439.5184L13533.9008,-3439.5104L13533.9045,-3439.505L13533.9072,-3439.4981L13533.9072,-3439.4968L13533.9002,-3439.4904L13533.8946,-3439.4852L13533.8946,-3439.4542L13533.8962,-3439.4452L13533.8989,-3439.4323L13533.8989,-3439.413L13533.9029,-3439.4033L13533.9091,-3439.384L13533.9106,-3439.3753L13533.9106,-3439.3591L13533.9039,-3439.3416L13533.8965,-3439.3272L13533.8937,-3439.3159L13533.8962,-3439.3108L13533.9045,-3439.302L13533.9082,-3439.299L13533.9097,-3439.2959L13533.9075,-3439.2887L13533.9017,-3439.2758L13533.9002,-3439.2689L13533.9011,-3439.2653L13533.9075,-3439.2525L13533.9146,-3439.2368L13533.922,-3439.2185L13533.9384,-3439.1954L13533.9492,-3439.1782L13533.9504,-3439.1774L13533.9655,-3439.1795L13533.9776,-3439.1667L13533.9941,-3439.1492L13534.0431,-3439.1666L13534.0814,-3439.1379L13534.1011,-3439.1191L13534.1029,-3439.1163L13534.1082,-3439.1081L13534.1085,-3439.1045L13534.1088,-3439.1039L13534.1032,-3439.1024L13534.0807,-3439.0957L13534.077,-3439.0929L13534.0755,-3439.088L13534.0743,-3439.0831L13534.0773,-3439.0772L13534.0918,-3439.0675L13534.1011,-3439.0641L13534.1202,-3439.0608L13534.1402,-3439.0574L13534.1667,-3439.053L13534.1676,-3439.0528L13534.1849,-3439.0518L13534.2154,-3439.0502L13534.225,-3439.0482L13534.2475,-3439.0343L13534.2992,-3438.9955L13534.3258,-3438.9748L13534.3319,-3438.9638L13534.3314,-3438.9517L13534.2993,-3438.9107L13534.2912,-3438.9002L13534.2858,-3438.8874L13534.2739,-3438.8589L13534.2611,-3438.8142L13534.2632,-3438.7248L13534.2677,-3438.7079L13534.2854,-3438.6867L13534.2962,-3438.6738L13534.3154,-3438.6614L13534.3169,-3438.6605L13534.3279,-3438.6535L13534.3431,-3438.6437L13534.3607,-3438.6309L13534.4162,-3438.5761L13534.4794,-3438.5354L13534.5023,-3438.5177L13534.5523,-3438.4512L13534.565,-3438.4392L13534.5706,-3438.4339L13534.6134,-3438.4158L13534.6766,-3438.3599L13534.6917,-3438.3388L13534.6956,-3438.3333L13534.7026,-3438.3236L13534.7173,-3438.3211L13534.7424,-3438.3159L13534.7689,-3438.2813L13534.7692,-3438.2731L13534.7704,-3438.2461L13534.7847,-3438.2246L13534.8244,-3438.1984L13534.8325,-3438.1836L13534.8325,-3438.1742L13534.804,-3438.1303L13534.803,-3438.1231L13534.8045,-3438.1138L13534.8315,-3438.0881L13534.8744,-3438.0622L13534.9329,-3438.0179L13534.9574,-3438.0099L13534.9707,-3438.0098L13535,-3438.0178L13535.0512,-3438.0318L13535.0792,-3438.0356L13535.0952,-3438.0325L13535.1562,-3438.0116L13535.1562,-3436.5234L13532.2137,-3436.5234L13532.2136,-3436.5249L13532.2067,-3436.5465L13532.192,-3436.5522L13532.1646,-3436.5594L13532.1577,-3436.5651L13532.1499,-3436.5757L13532.1352,-3436.6382L13532.1263,-3436.6549L13532.1163,-3436.6667L13532.1097,-3436.6744L13532.1097,-3436.7093L13532.093,-3436.7272L13532.0646,-3436.7548L13532.0479,-3436.7621L13532.0264,-3436.7799L13532.0225,-3436.8482L13532.0194,-3436.8671L13532.0007,-3436.885L13532.0003,-3436.8853L13531.99,-3436.8923L13531.9723,-3436.9191L13531.9608,-3436.9231L13531.9606,-3436.9232L13531.9461,-3436.9303L13531.9341,-3436.9362L13531.9322,-3436.9492L13531.9203,-3436.9614L13531.9188,-3436.9653L13531.9148,-3436.9755L13531.9085,-3436.9917L13531.9076,-3436.9939L13531.9076,-3437.0029L13531.9027,-3437.0118L13531.8929,-3437.0281L13531.8831,-3437.0362L13531.8606,-3437.0451L13531.8449,-3437.0565L13531.831,-3437.0677L13531.8136,-3437.0819L13531.8008,-3437.0922L13531.791,-3437.1068L13531.7908,-3437.1184L13531.7906,-3437.1271L13531.7899,-3437.1642L13531.791,-3437.1721L13531.7911,-3437.1725L13531.7939,-3437.1934L13531.7061,-3437.2018L13531.6908,-3437.2157L13531.6803,-3437.2233L13531.6667,-3437.234L13531.658,-3437.2407L13531.6211,-3437.2709L13531.6093,-3437.2889L13531.5431,-3437.3644L13531.5696,-3437.3789L13531.4747,-3437.5L13531.4125,-3437.5795L13531.3576,-3437.6507L13531.306,-3437.6267L13531.2451,-3437.657L13531.2229,-3437.6759L13531.2064,-3437.6849L13531.1877,-3437.6951L13531.1641,-3437.7078L13531.1566,-3437.7119L13531.1181,-3437.7328L13531.1083,-3437.7441L13531.0573,-3437.8392L13531.0346,-3437.9134L13531.0264,-3437.9272L13531.0013,-3437.9691L13530.9883,-3437.984L13530.9674,-3438.0031L13530.9022,-3438.0276L13530.8445,-3438.0492L13530.8333,-3438.0538L13530.7601,-3438.084L13530.7108,-3438.1112L13530.6519,-3438.1446L13530.5647,-3438.2087L13530.5455,-3438.2077L13530.5353,-3438.2071L13530.4922,-3438.1919L13530.3168,-3438.1299L13530.2388,-3438.1014L13530.1702,-3438.0827L13530.1065,-3438.0632L13530.0885,-3438.0532L13530.083,-3438.0502L13530.0585,-3438.0437L13530.0438,-3438.0437L13530.0201,-3438.0512L13530,-3438.0576L13529.985,-3438.0624L13529.9245,-3438.1108L13529.9219,-3438.1161L13529.9126,-3438.1346L13529.9028,-3438.1543L13529.9011,-3438.1567L13529.8943,-3438.1664L13529.8872,-3438.1677L13529.83,-3438.1589L13529.7699,-3438.1413L13529.6365,-3438.1023L13529.6355,-3438.0919L13529.637,-3438.0879L13529.6531,-3438.0458L13529.6516,-3438.0279L13529.6498,-3438.021L13529.6486,-3438.0166L13529.6052,-3437.9934L13529.5641,-3437.9801L13529.5548,-3437.9771L13529.4759,-3437.9431L13529.4194,-3437.9251L13529.4114,-3437.9256L13529.3856,-3437.9711L13529.3851,-3437.972L13529.3727,-3437.9812L13529.2657,-3437.9461L13529.1667,-3437.9234L13529.1011,-3437.9084L13529.0824,-3437.9042L13529.0096,-3437.8962L13528.9627,-3437.895L13528.9627,-3437.8956L13528.9608,-3437.9118L13528.9572,-3437.944L13528.9466,-3438.0374L13528.9657,-3438.0729L13528.9859,-3438.1106L13528.9824,-3438.1222L13528.9707,-3438.1612L13528.9678,-3438.1709L13528.9948,-3438.1886L13529.0118,-3438.1998L13529.0561,-3438.2288L13529.0531,-3438.2461L13529.0384,-3438.2712L13529.0173,-3438.2774L13529.0125,-3438.2828L13529.0054,-3438.2908L13528.9977,-3438.2994L13528.9914,-3438.3066L13528.9881,-3438.3103L13528.9817,-3438.3176L13528.9677,-3438.3333L13528.9607,-3438.3412L13528.9709,-3438.3467L13528.9759,-3438.3494L13528.9814,-3438.3523L13528.9881,-3438.3559L13528.9424,-3438.4125L13528.9351,-3438.4216L13529.0072,-3438.4564L13529.0222,-3438.4669L13529.039,-3438.4754L13529.0479,-3438.4799L13529.0533,-3438.4827L13529.0622,-3438.4872L13529.0841,-3438.4983L13529.091,-3438.5018L13529.1083,-3438.5106L13529.131,-3438.5221L13529.1667,-3438.5375L13529.1737,-3438.5405L13529.1848,-3438.5353L13529.1959,-3438.5359L13529.226,-3438.5438L13529.2426,-3438.5431L13529.2854,-3438.5051L13529.3131,-3438.5038L13529.3352,-3438.5097L13529.3534,-3438.5129L13529.39,-3438.5288L13529.4033,-3438.5346L13529.4382,-3438.5556L13529.4707,-3438.5726L13529.5113,-3438.5938L13529.4914,-3438.603L13529.4574,-3438.6096L13529.4471,-3438.6155L13529.5113,-3438.6489L13529.5445,-3438.6067L13529.5952,-3438.5411L13529.6411,-3438.5004L13529.672,-3438.4551L13529.6791,-3438.4479L13529.7053,-3438.4577L13529.8724,-3438.5473L13529.817,-3438.6215L13529.8028,-3438.6482L13529.7933,-3438.6661L13529.7715,-3438.6949L13529.7521,-3438.7208L13529.7289,-3438.7496L13529.68,-3438.8102L13529.6931,-3438.8166L13529.7487,-3438.8439L13529.7619,-3438.8503L13529.7727,-3438.8556L13529.7204,-3438.9246L13529.7326,-3438.9329L13529.7474,-3438.9429L13529.7609,-3438.9514L13529.7727,-3438.9495L13529.7965,-3438.9272L13529.8076,-3438.9252L13529.821,-3438.9265L13529.8337,-3438.9279L13529.8511,-3438.918L13529.8725,-3438.916L13529.9097,-3438.9246L13529.9437,-3438.9436L13529.9685,-3438.9529L13529.9956,-3438.9718L13530,-3438.9748L13530.0381,-3439.0014L13530.0165,-3439.0386L13530.0056,-3439.0574L13530,-3439.0701L13529.9906,-3439.0915L13529.9795,-3439.104L13529.9692,-3439.1079L13529.8884,-3439.1224L13529.8599,-3439.1355L13529.8132,-3439.1322L13529.7966,-3439.1355L13529.7864,-3439.1429L13529.7784,-3439.1486L13529.7622,-3439.1667L13529.7551,-3439.1747L13529.7482,-3439.1823L13529.7336,-3439.1994L13529.7094,-3439.2276L13529.7055,-3439.2375L13529.7102,-3439.2447L13529.7158,-3439.2512L13529.7783,-3439.2676L13529.8237,-3439.2794L13529.8393,-3439.2834L13529.8512,-3439.2913L13529.8575,-3439.3208L13529.8558,-3439.3311L13529.8488,-3439.3729L13529.8409,-3439.4096L13529.8249,-3439.4472L13529.8083,-3439.4656L13529.7942,-3439.4824L13529.7821,-3439.4968L13529.7728,-3439.5078L13529.7456,-3439.5401L13529.7107,-3439.565L13529.6601,-3439.6204L13529.6551,-3439.6259L13529.6537,-3439.6274L13529.6421,-3439.6401L13529.6296,-3439.6537L13529.618,-3439.6663L13529.5293,-3439.7451L13529.5179,-3439.766L13529.5095,-3439.7813L13529.6081,-3439.8647L13529.62,-3439.8748L13529.6283,-3439.8818L13529.6663,-3439.914L13529.6315,-3439.9402L13529.6117,-3439.9402L13529.5579,-3439.9678L13529.5278,-3439.9455L13529.5,-3439.9333L13529.4605,-3439.916L13529.4517,-3439.926L13529.4454,-3439.933L13529.4225,-3439.9659L13529.402,-3439.9832L13529.3819,-3440L13529.3653,-3440.014L13529.3167,-3440.0507L13529.2928,-3440.0688L13529.2591,-3440.0942L13529.1667,-3440.1574L13529.1341,-3440.1797L13529.1055,-3440.1992L13529.069,-3440.2269L13529.0365,-3440.2514L13528.8818,-3440.3624L13528.8821,-3440.3629L13528.8835,-3440.3653L13528.8851,-3440.3691L13528.888,-3440.3728L13528.8916,-3440.3769L13528.8942,-3440.3813L13528.8976,-3440.3857L13528.8994,-3440.3892L13528.9007,-3440.3913L13528.9021,-3440.3928L13528.9034,-3440.3939L13528.8762,-3440.4155L13528.8857,-3440.4233L13528.9103,-3440.4043L13528.9165,-3440.3991L13528.9183,-3440.4005L13528.9207,-3440.402L13528.9241,-3440.4032L13528.9294,-3440.4045L13528.9334,-3440.4052L13528.9378,-3440.4064L13528.9438,-3440.4086L13528.9496,-3440.411L13528.9556,-3440.4139L13528.9633,-3440.4177L13528.9685,-3440.4211L13528.9739,-3440.4239L13528.9786,-3440.4271L13528.9847,-3440.4317L13528.9918,-3440.4369L13528.9973,-3440.4415L13529.0032,-3440.4462L13529.0092,-3440.4507L13529.0159,-3440.4562L13529.0193,-3440.4598L13529.0229,-3440.4651L13529.0276,-3440.4729L13529.0319,-3440.4785L13529.036,-3440.4842L13529.0413,-3440.4916L13529.0448,-3440.4963L13529.046,-3440.4988L13529.0478,-3440.5017L13529.0516,-3440.5069L13529.0565,-3440.5135L13529.06,-3440.5178L13529.063,-3440.5207L13529.0649,-3440.523L13529.067,-3440.5259L13529.0706,-3440.5302L13529.0766,-3440.5371L13529.0822,-3440.5421L13529.0884,-3440.547L13529.0948,-3440.5521L13529.12,-3440.5797L13529.1361,-3440.5992L13529.1425,-3440.6092L13529.1513,-3440.6215L13529.1564,-3440.6282L13529.1667,-3440.6389L13529.1708,-3440.6433L13529.1775,-3440.6523L13529.1804,-3440.6572L13529.1913,-3440.6747L13529.1927,-3440.6757L13529.1921,-3440.6764L13529.2001,-3440.6837L13529.2166,-3440.6716L13529.2221,-3440.672L13529.2366,-3440.6764L13529.2476,-3440.6823L13529.2535,-3440.6845L13529.2624,-3440.6889L13529.266,-3440.6914L13529.2722,-3440.6954L13529.2784,-3440.7025L13529.2808,-3440.7042L13529.2843,-3440.7052L13529.2892,-3440.7064L13529.2939,-3440.7082L13529.2955,-3440.7099L13529.2994,-3440.7672L13529.3035,-3440.8333L13529.3057,-3440.8678L13529.3117,-3440.9651L13529.3232,-3441.1578L13529.3307,-3441.2863L13529.3384,-3441.4052L13529.3473,-3441.413L13529.3829,-3441.4442L13529.4139,-3441.4717L13529.4528,-3441.5067L13529.5236,-3441.5134L13529.6929,-3441.5308L13529.8246,-3441.5443L13529.845,-3441.5464L13530,-3441.562L13530.0023,-3441.5623L13530.0931,-3441.5718L13530.1902,-3441.5797L13530.2103,-3441.5817L13530.2839,-3441.6476L13530.3054,-3441.6667L13530.375,-3441.7283L13530.4713,-3441.8142L13530.5437,-3441.8779L13530.5849,-3441.9129L13530.63,-3441.9535L13530.6344,-3441.9518L13530.8333,-3442.1286L13530.8386,-3442.1333L13531.031,-3442.3038L13531.0398,-3442.297L13531.0272,-3442.2858L13530.9571,-3442.2239L13530.8333,-3442.1145L13530.6441,-3441.9472L13530.649,-3441.9434L13530.6512,-3441.9418L13530.655,-3441.9384L13530.6674,-3441.9499L13530.678,-3441.9417L13530.6651,-3441.9306L13530.6874,-3441.9135L13530.7528,-3441.8626L13530.8269,-3441.8052L13530.8333,-3441.8002L13530.8877,-3441.7583L13530.9542,-3441.7069L13530.9607,-3441.7124L13531.0091,-3441.7547L13531.0584,-3441.7989L13531.1026,-3441.8386L13531.0749,-3441.8607L13531.0743,-3441.8682L13531.0728,-3441.9157L13531.0723,-3441.9293L13531.2579,-3442.0949L13531.2591,-3442.0941L13531.2673,-3442.0881L13531.1875,-3442.0173L13531.1895,-3442.0157L13531.0869,-3441.9241L13531.0872,-3441.9157L13531.0873,-3441.907L13531.088,-3441.8661L13531.1024,-3441.8549L13531.1441,-3441.8227L13531.153,-3441.8231L13531.1667,-3441.812L13531.1684,-3441.8117L13531.2041,-3441.8432L13531.2063,-3441.8416L13531.225,-3441.8586L13531.2907,-3441.9169L13531.3241,-3441.9473L13531.3267,-3441.9492L13531.3701,-3441.9882L13531.3735,-3441.9909L13531.4006,-3442.0152L13531.4043,-3442.0125L13531.4115,-3442.0188L13531.3422,-3442.1031L13531.4864,-3442.2298L13531.4877,-3442.2289L13531.4922,-3442.2253L13531.5459,-3442.2165L13531.5451,-3442.2128L13531.4897,-3442.2223L13531.3523,-3442.1019L13531.4164,-3442.0242L13531.6037,-3442.1905L13531.5883,-3442.1971L13531.5715,-3442.2033L13531.5732,-3442.2066L13531.5903,-3442.2005L13531.6081,-3442.1928L13531.6219,-3442.183L13531.6416,-3442.1506L13531.6375,-3442.149L13531.6183,-3442.1798L13531.5406,-3442.1109L13531.6023,-3442.033L13531.6667,-3442.0669L13531.6818,-3442.0749L13531.6667,-3442.1L13531.6568,-3442.1164L13531.6609,-3442.1183L13531.6667,-3442.1086L13531.6857,-3442.0767L13531.7141,-3442.0404L13531.7108,-3442.0387L13531.6936,-3442.0607L13531.6667,-3442.0464L13531.6141,-3442.0184L13531.6381,-3441.9877L13531.6579,-3441.9624L13531.6667,-3441.9513L13531.675,-3441.9407L13531.7922,-3442.0037L13531.8076,-3442.0123L13531.7437,-3442.0928L13531.7241,-3442.0826L13531.7223,-3442.0848L13531.7443,-3442.0967L13531.7462,-3442.094L13531.7528,-3442.0976L13531.7547,-3442.0956L13531.7481,-3442.0922L13531.7936,-3442.0351L13531.8385,-3442.0586L13531.8097,-3442.0954L13531.8079,-3442.0945L13531.7487,-3442.1699L13531.7442,-3442.1677L13531.7482,-3442.1626L13531.7324,-3442.1543L13531.7285,-3442.1593L13531.7258,-3442.158L13531.7042,-3442.1853L13531.7567,-3442.2135L13531.7611,-3442.2085L13531.746,-3442.2004L13531.8355,-3442.0871L13531.8311,-3442.0844L13531.8683,-3442.0368L13531.902,-3442.0545L13531.8759,-3442.0885L13531.8794,-3442.0906L13531.9,-3442.0641L13531.9214,-3442.0756L13531.9013,-3442.102L13531.9049,-3442.1042L13531.9281,-3442.0737L13531.9654,-3442.0936L13531.9358,-3442.132L13531.9137,-3442.1599L13531.8954,-3442.1502L13531.8931,-3442.1528L13531.9163,-3442.1655L13531.938,-3442.1384L13531.9935,-3442.1684L13531.9913,-3442.1711L13531.987,-3442.169L13531.9772,-3442.1823L13531.9815,-3442.1844L13531.9773,-3442.1899L13531.9556,-3442.1902L13531.9162,-3442.2016L13531.8876,-3442.1866L13531.8597,-3442.2225L13531.8412,-3442.2132L13531.8395,-3442.2156L13531.8563,-3442.2247L13531.6734,-3442.276L13531.6667,-3442.2595L13531.6649,-3442.2553L13531.6609,-3442.2566L13531.6667,-3442.2711L13531.6691,-3442.2772L13531.6667,-3442.2778L13531.5406,-3442.3132L13531.5429,-3442.3193L13531.5492,-3442.3175L13531.6667,-3442.2844L13531.8587,-3442.2304L13531.9571,-3442.2027L13531.9602,-3442.2355L13531.9631,-3442.2654L13531.9159,-3442.2973L13531.914,-3442.2986L13531.8335,-3442.3526L13531.7218,-3442.4282L13531.6667,-3442.4657L13531.6162,-3442.5L13531.6148,-3442.501L13531.5225,-3442.5635L13531.4563,-3442.6085L13531.3772,-3442.6621L13531.3766,-3442.6647L13531.4816,-3442.7707L13531.6,-3442.8905L13531.6667,-3442.9584L13531.6968,-3442.9891L13531.7998,-3443.0926L13531.8383,-3443.0956L13531.838,-3443.0985L13531.8397,-3443.0996L13531.842,-3443.1002L13531.8443,-3443.1002L13531.8469,-3443.0993L13531.8489,-3443.0981L13531.8501,-3443.0964L13531.8505,-3443.0949L13531.8508,-3443.092L13531.8531,-3443.0926L13531.8544,-3443.0929L13531.8561,-3443.0927L13531.858,-3443.0924L13531.8593,-3443.0918L13531.8612,-3443.0907L13531.8621,-3443.0892L13531.8626,-3443.0877L13531.8628,-3443.0866L13531.8627,-3443.085L13531.8642,-3443.0859L13531.8657,-3443.0863L13531.8671,-3443.0861L13531.8685,-3443.0856L13531.8691,-3443.0862L13532.0596,-3442.9589L13532.0593,-3442.9491L13532.0599,-3442.9496L13532.061,-3442.9501L13532.0615,-3442.9504L13532.0627,-3442.9507L13532.0639,-3442.9508L13532.0645,-3442.9509L13532.0658,-3442.9507L13532.0664,-3442.9506L13532.0675,-3442.9502L13532.068,-3442.95L13532.0691,-3442.9494L13532.0699,-3442.9486L13532.0706,-3442.9478L13532.0709,-3442.9473L13532.0713,-3442.9464L13532.0714,-3442.9453L13532.0715,-3442.9448L13532.0713,-3442.9438L13532.0712,-3442.9433L13532.0707,-3442.9424L13532.0704,-3442.9419L13532.0715,-3442.9426L13532.0726,-3442.9431L13532.0737,-3442.9434L13532.0749,-3442.9436L13532.0755,-3442.9436L13532.0767,-3442.9434L13532.0773,-3442.9433L13532.0785,-3442.9429L13532.0795,-3442.9424L13532.0804,-3442.9417L13532.0812,-3442.9409L13532.0817,-3442.94L13532.0821,-3442.9391L13532.0823,-3442.9381L13532.0823,-3442.9376L13532.0822,-3442.9366L13532.082,-3442.9361L13532.0816,-3442.9352L13532.0813,-3442.9347L13532.0816,-3442.935L13532.0825,-3442.9355L13532.0836,-3442.936L13532.0847,-3442.9362L13532.0858,-3442.9363L13532.087,-3442.9362L13532.0875,-3442.9361L13532.0886,-3442.9358L13532.0896,-3442.9354L13532.0901,-3442.9351L13532.0909,-3442.9344L13532.0916,-3442.9337L13532.0921,-3442.9328L13532.0924,-3442.9319L13532.0925,-3442.931L13532.0924,-3442.93L13532.0923,-3442.9296L13532.0919,-3442.9286L13532.0914,-3442.9278L13532.0923,-3442.9284L13532.0933,-3442.9288L13532.0945,-3442.9291L13532.0957,-3442.9292L13532.0963,-3442.9292L13532.0975,-3442.929L13532.0981,-3442.9289L13532.0992,-3442.9285L13532.0997,-3442.9282L13532.1007,-3442.9276L13532.1011,-3442.9273L13532.1018,-3442.9264L13532.1024,-3442.9255L13532.1027,-3442.9246L13532.1028,-3442.9241L13532.1028,-3442.9231L13532.1026,-3442.9221L13532.1025,-3442.9216L13532.102,-3442.9207L13532.1029,-3442.9213L13532.1034,-3442.9216L13532.1044,-3442.922L13532.105,-3442.9222L13532.1061,-3442.9224L13532.1067,-3442.9224L13532.1079,-3442.9223L13532.1085,-3442.9222L13532.1096,-3442.9219L13532.1102,-3442.9217L13532.1111,-3442.9212L13532.1116,-3442.9208L13532.1124,-3442.9201L13532.1127,-3442.9197L13532.1132,-3442.9188L13532.1134,-3442.9183L13532.1136,-3442.9174L13532.1137,-3442.9169L13532.1136,-3442.9159L13532.1135,-3442.9154L13532.1131,-3442.9145L13532.1125,-3442.9136L13532.1137,-3442.9144L13532.1147,-3442.9149L13532.1153,-3442.915L13532.1165,-3442.9152L13532.1171,-3442.9153L13532.1183,-3442.9152L13532.1194,-3442.915L13532.1205,-3442.9146L13532.1216,-3442.9141L13532.1224,-3442.9134L13532.1232,-3442.9126L13532.1237,-3442.9118L13532.1239,-3442.9113L13532.1242,-3442.9103L13532.1242,-3442.9098L13532.1242,-3442.9088L13532.1239,-3442.9078L13532.1234,-3442.9069L13532.1232,-3442.9065L13532.1237,-3442.9068L13532.1247,-3442.9073L13532.1258,-3442.9077L13532.1271,-3442.9079L13532.1277,-3442.9079L13532.1289,-3442.9079L13532.1301,-3442.9076L13532.1306,-3442.9074L13532.1317,-3442.9069L13532.1327,-3442.9063L13532.1335,-3442.9055L13532.1341,-3442.9047L13532.1345,-3442.9037L13532.1348,-3442.9027L13532.1348,-3442.9017L13532.1347,-3442.9012L13532.1344,-3442.9002L13532.1339,-3442.8993L13532.1343,-3442.8996L13532.1353,-3442.9002L13532.1358,-3442.9004L13532.137,-3442.9008L13532.1375,-3442.9009L13532.1388,-3442.901L13532.1393,-3442.901L13532.1405,-3442.9009L13532.1417,-3442.9005L13532.1428,-3442.9001L13532.1437,-3442.8994L13532.1441,-3442.8991L13532.1448,-3442.8982L13532.1451,-3442.8978L13532.1456,-3442.8969L13532.1458,-3442.8959L13532.1458,-3442.8949L13532.1457,-3442.8939L13532.1453,-3442.8929L13532.1447,-3442.8921L13532.1459,-3442.8928L13532.147,-3442.8932L13532.1476,-3442.8934L13532.1488,-3442.8936L13532.1495,-3442.8936L13532.1507,-3442.8935L13532.1513,-3442.8934L13532.1524,-3442.893L13532.153,-3442.8928L13532.154,-3442.8922L13532.1549,-3442.8915L13532.1556,-3442.8906L13532.1561,-3442.8897L13532.1563,-3442.8892L13532.1565,-3442.8882L13532.1565,-3442.8877L13532.1564,-3442.8867L13532.1563,-3442.8862L13532.1558,-3442.8852L13532.1556,-3442.8848L13532.1569,-3442.8856L13532.158,-3442.8861L13532.1591,-3442.8864L13532.1604,-3442.8865L13532.161,-3442.8865L13532.1622,-3442.8864L13532.1634,-3442.886L13532.1645,-3442.8856L13532.1654,-3442.8849L13532.1659,-3442.8846L13532.1666,-3442.8837L13532.1672,-3442.8828L13532.1675,-3442.8818L13532.1676,-3442.8813L13532.1677,-3442.8803L13532.1675,-3442.8793L13532.1671,-3442.8783L13532.1668,-3442.8779L13532.1677,-3442.8784L13532.1687,-3442.8788L13532.1698,-3442.8791L13532.1709,-3442.8792L13532.1721,-3442.8792L13532.1732,-3442.879L13532.1743,-3442.8786L13532.1748,-3442.8784L13532.1757,-3442.8778L13532.1761,-3442.8774L13532.1768,-3442.8767L13532.1774,-3442.8758L13532.1777,-3442.8749L13532.1778,-3442.8744L13532.1778,-3442.8734L13532.1778,-3442.873L13532.1775,-3442.872L13532.1771,-3442.8712L13532.1781,-3442.8717L13532.1786,-3442.8719L13532.1797,-3442.8722L13532.1809,-3442.8723L13532.1814,-3442.8723L13532.1826,-3442.8722L13532.1836,-3442.8719L13532.1842,-3442.8717L13532.1851,-3442.8712L13532.1856,-3442.8708L13532.1863,-3442.8701L13532.1869,-3442.8693L13532.1872,-3442.8689L13532.1875,-3442.868L13532.1877,-3442.8671L13532.1877,-3442.8666L13532.1875,-3442.8657L13532.1872,-3442.8648L13532.1866,-3442.8639L13532.1879,-3442.8648L13532.189,-3442.8652L13532.1895,-3442.8654L13532.1907,-3442.8656L13532.1913,-3442.8656L13532.1919,-3442.8656L13532.1931,-3442.8655L13532.1942,-3442.8651L13532.1953,-3442.8647L13532.1957,-3442.8644L13532.1966,-3442.8637L13532.1973,-3442.8629L13532.1979,-3442.862L13532.1981,-3442.8616L13532.1983,-3442.8606L13532.1983,-3442.8596L13532.1982,-3442.8586L13532.1978,-3442.8577L13532.1972,-3442.8568L13532.1984,-3442.8576L13532.1989,-3442.8578L13532.2,-3442.8582L13532.2012,-3442.8584L13532.2018,-3442.8584L13532.2023,-3442.8584L13532.2035,-3442.8583L13532.2046,-3442.858L13532.2056,-3442.8575L13532.2066,-3442.8569L13532.207,-3442.8566L13532.2076,-3442.8558L13532.2079,-3442.8554L13532.2084,-3442.8545L13532.2086,-3442.8535L13532.2086,-3442.8526L13532.2085,-3442.8516L13532.2081,-3442.8507L13532.2075,-3442.8498L13532.2086,-3442.8505L13532.2096,-3442.8509L13532.2102,-3442.8511L13532.2113,-3442.8513L13532.2119,-3442.8514L13532.2125,-3442.8514L13532.2137,-3442.8513L13532.2142,-3442.8511L13532.2153,-3442.8508L13532.2159,-3442.8505L13532.2168,-3442.8499L13532.2176,-3442.8492L13532.2179,-3442.8488L13532.2185,-3442.8479L13532.2187,-3442.8475L13532.219,-3442.8465L13532.219,-3442.8455L13532.2189,-3442.8446L13532.2187,-3442.8441L13532.2183,-3442.8432L13532.218,-3442.8428L13532.219,-3442.8434L13532.2195,-3442.8437L13532.2206,-3442.844L13532.2217,-3442.8442L13532.2223,-3442.8443L13532.2234,-3442.8442L13532.2245,-3442.844L13532.225,-3442.8439L13532.2261,-3442.8434L13532.227,-3442.8428L13532.2274,-3442.8425L13532.2281,-3442.8418L13532.2284,-3442.8413L13532.2288,-3442.8405L13532.2291,-3442.8395L13532.2291,-3442.8386L13532.2291,-3442.8381L13532.2288,-3442.8372L13532.2286,-3442.8368L13532.2281,-3442.8359L13532.2294,-3442.8365L13532.2306,-3442.8369L13532.2312,-3442.837L13532.2324,-3442.8371L13532.2337,-3442.837L13532.2349,-3442.8367L13532.2355,-3442.8365L13532.2365,-3442.836L13532.237,-3442.8357L13532.2379,-3442.8349L13532.2386,-3442.8341L13532.2389,-3442.8336L13532.2393,-3442.8326L13532.2395,-3442.8321L13532.2396,-3442.8311L13532.2395,-3442.8301L13532.2391,-3442.8291L13532.2389,-3442.8286L13532.2398,-3442.8292L13532.2409,-3442.8297L13532.2421,-3442.83L13532.2433,-3442.8302L13532.2439,-3442.8302L13532.2452,-3442.8301L13532.2458,-3442.8299L13532.2469,-3442.8296L13532.248,-3442.829L13532.2489,-3442.8283L13532.2497,-3442.8275L13532.2503,-3442.8266L13532.2506,-3442.8257L13532.2508,-3442.8246L13532.2508,-3442.8241L13532.2507,-3442.8231L13532.2505,-3442.8226L13532.2501,-3442.8217L13532.2498,-3442.8212L13532.2511,-3442.8221L13532.2516,-3442.8224L13532.2528,-3442.8227L13532.2534,-3442.8229L13532.2546,-3442.823L13532.2558,-3442.8229L13532.257,-3442.8227L13532.2576,-3442.8225L13532.2587,-3442.822L13532.2602,-3442.8211L13532.261,-3442.8199L13532.2617,-3442.8184L13532.2627,-3442.817L13532.2772,-3442.8067L13532.3305,-3442.8623L13532.3292,-3442.8631L13532.3348,-3442.8681L13532.3419,-3442.8635L13532.3362,-3442.8579L13532.3342,-3442.8591L13532.308,-3442.8315L13532.3069,-3442.8303L13532.2779,-3442.7999L13532.2785,-3442.7952L13532.2775,-3442.7939L13532.2867,-3442.7871L13532.2592,-3442.7594L13532.2176,-3442.7171L13532.2087,-3442.7231L13532.2042,-3442.7229L13532.1674,-3442.6856L13532.1656,-3442.6837L13532.1442,-3442.6619L13532.1423,-3442.66L13532.1276,-3442.645L13532.1261,-3442.6435L13532.0888,-3442.6056L13532.0874,-3442.6042L13532.0817,-3442.5984L13532.0814,-3442.5985L13532.0809,-3442.5986L13532.0805,-3442.5986L13532.0801,-3442.5986L13532.0798,-3442.5984L13532.0794,-3442.5983L13532.0791,-3442.5981L13532.0788,-3442.5978L13532.0786,-3442.5976L13532.0784,-3442.5972L13532.0783,-3442.5969L13532.0783,-3442.5966L13532.0784,-3442.5962L13532.0785,-3442.5959L13532.0787,-3442.5956L13532.0788,-3442.5954L13532.0632,-3442.5795L13532.1819,-3442.5L13532.1892,-3442.4951L13532.1919,-3442.4983L13532.2617,-3442.4525L13532.2797,-3442.4401L13532.3099,-3442.471L13532.3075,-3442.4728L13532.3202,-3442.4853L13532.3222,-3442.4839L13532.3382,-3442.5L13532.352,-3442.5139L13532.2696,-3442.5695L13532.2608,-3442.5607L13532.2568,-3442.5567L13532.2298,-3442.5551L13532.2301,-3442.5567L13532.2559,-3442.5585L13532.2608,-3442.5633L13532.2748,-3442.5781L13532.3598,-3442.5217L13532.4703,-3442.6332L13532.482,-3442.6253L13532.5,-3442.6435L13532.5365,-3442.6805L13532.5457,-3442.6747L13532.5726,-3442.7031L13532.5604,-3442.7113L13532.6048,-3442.7559L13532.617,-3442.7474L13532.6359,-3442.7653L13532.6269,-3442.7713L13532.8393,-3442.9876L13532.8139,-3443.0047L13532.8121,-3443.0059L13532.6981,-3443.083L13532.697,-3443.0838L13532.6431,-3443.1202L13532.6422,-3443.1208L13532.6125,-3443.1409L13532.5096,-3443.0361L13532.5101,-3443.0362L13532.5112,-3443.0362L13532.5123,-3443.0361L13532.5134,-3443.0358L13532.5144,-3443.0354L13532.5153,-3443.0348L13532.516,-3443.0341L13532.5166,-3443.0334L13532.5171,-3443.0325L13532.5173,-3443.0316L13532.5174,-3443.0307L13532.5172,-3443.0297L13532.5169,-3443.0289L13532.5164,-3443.028L13532.5157,-3443.0273L13532.5149,-3443.0267L13532.5139,-3443.0262L13532.5129,-3443.0258L13532.5118,-3443.0256L13532.5107,-3443.0256L13532.5096,-3443.0257L13532.5085,-3443.026L13532.5075,-3443.0264L13532.5066,-3443.027L13532.5058,-3443.0276L13532.5052,-3443.0284L13532.5026,-3443.028L13532.5,-3443.0255L13532.4895,-3443.0153L13532.4878,-3443.0134L13532.4512,-3442.9772L13532.4531,-3442.9759L13532.4462,-3442.9686L13532.4383,-3442.9739L13532.4443,-3442.98L13532.4458,-3442.9792L13532.4975,-3443.0311L13532.4959,-3443.0323L13532.4945,-3443.0336L13532.4938,-3443.0353L13532.4936,-3443.0372L13532.4937,-3443.0388L13532.4915,-3443.0384L13532.4894,-3443.0386L13532.4873,-3443.0392L13532.4858,-3443.0408L13532.4846,-3443.0427L13532.4847,-3443.0447L13532.4835,-3443.0457L13532.4825,-3443.0457L13532.4805,-3443.0455L13532.4782,-3443.0456L13532.476,-3443.0468L13532.4745,-3443.0487L13532.4739,-3443.0507L13532.4741,-3443.052L13532.4726,-3443.0532L13532.4708,-3443.0528L13532.4687,-3443.0525L13532.4664,-3443.0528L13532.4645,-3443.0542L13532.463,-3443.0561L13532.4626,-3443.0581L13532.4631,-3443.0597L13532.462,-3443.0606L13532.4609,-3443.0602L13532.4589,-3443.0598L13532.4561,-3443.0603L13532.4538,-3443.0618L13532.453,-3443.0639L13532.4524,-3443.0658L13532.4528,-3443.0671L13532.4506,-3443.0683L13532.4485,-3443.0679L13532.4466,-3443.0676L13532.4446,-3443.0681L13532.4429,-3443.069L13532.4415,-3443.0709L13532.4408,-3443.0727L13532.4408,-3443.0747L13532.4401,-3443.0751L13532.4392,-3443.0749L13532.4376,-3443.0745L13532.4353,-3443.0747L13532.4333,-3443.0758L13532.4316,-3443.0773L13532.4308,-3443.0794L13532.4309,-3443.0813L13532.43,-3443.082L13532.4275,-3443.0815L13532.4258,-3443.0812L13532.424,-3443.0813L13532.422,-3443.0821L13532.4205,-3443.0832L13532.4195,-3443.085L13532.4192,-3443.0878L13532.4199,-3443.0892L13532.4192,-3443.0897L13532.4184,-3443.0893L13532.417,-3443.0887L13532.4152,-3443.0885L13532.4128,-3443.0888L13532.4106,-3443.0902L13532.409,-3443.0921L13532.4087,-3443.0949L13532.409,-3443.0962L13532.4069,-3443.0958L13532.4045,-3443.0953L13532.4021,-3443.096L13532.4001,-3443.0974L13532.3988,-3443.0995L13532.3984,-3443.1012L13532.3992,-3443.1031L13532.3983,-3443.1037L13532.3974,-3443.1034L13532.3958,-3443.1031L13532.3936,-3443.1032L13532.3914,-3443.1039L13532.3895,-3443.1057L13532.3888,-3443.108L13532.3889,-3443.1101L13532.388,-3443.1106L13532.3859,-3443.1101L13532.3838,-3443.1099L13532.3817,-3443.1105L13532.3801,-3443.1118L13532.379,-3443.1131L13532.3781,-3443.115L13532.3783,-3443.117L13532.3777,-3443.1177L13532.3757,-3443.117L13532.3742,-3443.1167L13532.3718,-3443.1169L13532.3696,-3443.1179L13532.368,-3443.1198L13532.3671,-3443.122L13532.3677,-3443.1241L13532.3663,-3443.1252L13532.3644,-3443.1245L13532.3624,-3443.1245L13532.36,-3443.1249L13532.3581,-3443.1264L13532.3569,-3443.1281L13532.3568,-3443.1295L13532.3567,-3443.1316L13532.3564,-3443.1321L13532.3546,-3443.1316L13532.3531,-3443.1314L13532.351,-3443.1318L13532.3487,-3443.1331L13532.3474,-3443.1346L13532.3471,-3443.1367L13532.3471,-3443.1387L13532.3458,-3443.1396L13532.3436,-3443.1389L13532.3416,-3443.139L13532.3394,-3443.1396L13532.3378,-3443.1408L13532.3368,-3443.1425L13532.3362,-3443.1441L13532.3366,-3443.1455L13532.3355,-3443.1464L13532.3334,-3443.1462L13532.3315,-3443.1458L13532.3288,-3443.1462L13532.3274,-3443.1475L13532.3258,-3443.1494L13532.3254,-3443.1514L13532.3256,-3443.153L13532.3246,-3443.154L13532.3237,-3443.1536L13532.3223,-3443.1532L13532.3197,-3443.153L13532.3178,-3443.1536L13532.316,-3443.1549L13532.3149,-3443.1566L13532.3145,-3443.1589L13532.3151,-3443.1604L13532.3142,-3443.1609L13532.3132,-3443.1608L13532.3115,-3443.1605L13532.3097,-3443.1605L13532.3078,-3443.1615L13532.3065,-3443.1628L13532.3056,-3443.1644L13532.3053,-3443.1661L13532.3055,-3443.1674L13532.3042,-3443.1681L13532.3032,-3443.1677L13532.3011,-3443.1672L13532.2993,-3443.167L13532.2974,-3443.1677L13532.2954,-3443.169L13532.2945,-3443.1704L13532.2938,-3443.1725L13532.2943,-3443.1743L13532.2932,-3443.1752L13532.2914,-3443.1746L13532.2901,-3443.1742L13532.2884,-3443.1744L13532.2867,-3443.175L13532.2849,-3443.1763L13532.284,-3443.1778L13532.2836,-3443.1796L13532.2838,-3443.1813L13532.2809,-3443.1808L13532.2785,-3443.1809L13532.2766,-3443.1817L13532.2751,-3443.1831L13532.2742,-3443.1854L13532.2742,-3443.1886L13532.2729,-3443.1895L13532.2709,-3443.1885L13532.2695,-3443.1882L13532.2672,-3443.1884L13532.265,-3443.1891L13532.2639,-3443.1905L13532.2627,-3443.1925L13532.2625,-3443.1943L13532.2628,-3443.1952L13532.2633,-3443.196L13532.2621,-3443.1968L13532.2557,-3443.1906L13532.2354,-3443.1698L13532.1512,-3443.2266L13532.158,-3443.2336L13532.2319,-3443.1838L13532.2352,-3443.1837L13532.2524,-3443.2019L13532.252,-3443.2016L13532.251,-3443.2011L13532.2499,-3443.2007L13532.2487,-3443.2005L13532.2475,-3443.2004L13532.2463,-3443.2005L13532.2452,-3443.2008L13532.2441,-3443.2012L13532.2431,-3443.2018L13532.2423,-3443.2025L13532.2416,-3443.2033L13532.2411,-3443.2042L13532.2409,-3443.2052L13532.2408,-3443.2061L13532.2409,-3443.2071L13532.2412,-3443.2081L13532.2418,-3443.209L13532.2425,-3443.2098L13532.2413,-3443.2089L13532.2403,-3443.2083L13532.2392,-3443.208L13532.238,-3443.2077L13532.2368,-3443.2077L13532.2356,-3443.2078L13532.2345,-3443.2081L13532.2334,-3443.2086L13532.2325,-3443.2092L13532.2317,-3443.2099L13532.231,-3443.2108L13532.2306,-3443.2117L13532.2303,-3443.2126L13532.2303,-3443.2136L13532.2304,-3443.2146L13532.2308,-3443.2155L13532.2314,-3443.2164L13532.2321,-3443.2172L13532.231,-3443.2163L13532.2301,-3443.2157L13532.229,-3443.2153L13532.2278,-3443.215L13532.2266,-3443.215L13532.2254,-3443.215L13532.2242,-3443.2153L13532.2231,-3443.2157L13532.2221,-3443.2163L13532.2213,-3443.217L13532.2206,-3443.2178L13532.2201,-3443.2187L13532.2198,-3443.2196L13532.2197,-3443.2206L13532.2198,-3443.2216L13532.2201,-3443.2226L13532.2206,-3443.2235L13532.2213,-3443.2243L13532.2209,-3443.224L13532.22,-3443.2233L13532.2189,-3443.2228L13532.2177,-3443.2224L13532.2165,-3443.2222L13532.2152,-3443.2222L13532.214,-3443.2224L13532.2128,-3443.2228L13532.2117,-3443.2233L13532.2108,-3443.2239L13532.2099,-3443.2247L13532.2093,-3443.2256L13532.2089,-3443.2266L13532.2086,-3443.2276L13532.2087,-3443.2286L13532.2089,-3443.2296L13532.2093,-3443.2306L13532.2099,-3443.2315L13532.2089,-3443.2306L13532.2079,-3443.2301L13532.2068,-3443.2296L13532.2056,-3443.2293L13532.2044,-3443.2292L13532.2031,-3443.2293L13532.2019,-3443.2296L13532.2008,-3443.23L13532.1998,-3443.2306L13532.1989,-3443.2313L13532.1982,-3443.2321L13532.1976,-3443.233L13532.1973,-3443.234L13532.1972,-3443.235L13532.1973,-3443.236L13532.1976,-3443.237L13532.1981,-3443.238L13532.1988,-3443.2388L13532.198,-3443.2382L13532.1969,-3443.2376L13532.1957,-3443.2372L13532.1945,-3443.237L13532.1932,-3443.2369L13532.192,-3443.2371L13532.1907,-3443.2374L13532.1896,-3443.2379L13532.1886,-3443.2385L13532.1878,-3443.2393L13532.1871,-3443.2402L13532.1866,-3443.2411L13532.1863,-3443.2421L13532.1863,-3443.2432L13532.1864,-3443.2442L13532.1868,-3443.2452L13532.1874,-3443.2461L13532.1863,-3443.2452L13532.1854,-3443.2446L13532.1843,-3443.2442L13532.1831,-3443.244L13532.182,-3443.2439L13532.1808,-3443.244L13532.1797,-3443.2443L13532.1786,-3443.2447L13532.1777,-3443.2453L13532.1768,-3443.2459L13532.1762,-3443.2467L13532.1757,-3443.2476L13532.1754,-3443.2486L13532.1753,-3443.2495L13532.1754,-3443.2505L13532.1757,-3443.2514L13532.1762,-3443.2523L13532.1769,-3443.253L13532.1765,-3443.2527L13532.1757,-3443.2521L13532.1747,-3443.2516L13532.1736,-3443.2512L13532.1725,-3443.2511L13532.1714,-3443.251L13532.1702,-3443.2512L13532.1691,-3443.2515L13532.1681,-3443.2519L13532.1672,-3443.2525L13532.1665,-3443.2532L13532.1659,-3443.254L13532.1654,-3443.2549L13532.1652,-3443.2558L13532.1652,-3443.2568L13532.1654,-3443.2577L13532.1657,-3443.2586L13532.1662,-3443.2594L13532.1659,-3443.259L13532.165,-3443.2584L13532.164,-3443.258L13532.1628,-3443.2577L13532.1617,-3443.2576L13532.1605,-3443.2576L13532.1594,-3443.2578L13532.1583,-3443.2581L13532.1573,-3443.2586L13532.1565,-3443.2593L13532.1557,-3443.26L13532.1552,-3443.2609L13532.1548,-3443.2618L13532.1547,-3443.2627L13532.1547,-3443.2636L13532.1549,-3443.2646L13532.1554,-3443.2655L13532.156,-3443.2663L13532.1553,-3443.2658L13532.1543,-3443.2653L13532.1532,-3443.265L13532.1521,-3443.2648L13532.1509,-3443.2648L13532.1498,-3443.265L13532.1487,-3443.2653L13532.1477,-3443.2658L13532.1469,-3443.2663L13532.1461,-3443.2671L13532.1455,-3443.2679L13532.1452,-3443.2688L13532.1449,-3443.2697L13532.1449,-3443.2714L13532.1454,-3443.2728L13532.146,-3443.274L13532.1464,-3443.2745L13532.1459,-3443.2748L13532.1447,-3443.2741L13532.1446,-3443.2739L13532.1437,-3443.2733L13532.1426,-3443.2729L13532.1411,-3443.2729L13532.1397,-3443.2732L13532.1376,-3443.2739L13532.1373,-3443.2741L13532.1363,-3443.2748L13532.1354,-3443.2758L13532.1348,-3443.2768L13532.1345,-3443.2782L13532.1345,-3443.2796L13532.135,-3443.2807L13532.1358,-3443.2818L13532.1354,-3443.2821L13532.1342,-3443.2813L13532.1331,-3443.2808L13532.1313,-3443.2804L13532.1296,-3443.2804L13532.1282,-3443.2807L13532.1268,-3443.2813L13532.1258,-3443.2821L13532.1248,-3443.2831L13532.1243,-3443.2841L13532.124,-3443.2854L13532.124,-3443.2868L13532.1245,-3443.288L13532.1253,-3443.289L13532.1248,-3443.2894L13532.1236,-3443.2886L13532.1225,-3443.2881L13532.1207,-3443.2877L13532.119,-3443.2877L13532.1176,-3443.288L13532.1162,-3443.2886L13532.1152,-3443.2894L13532.1143,-3443.2904L13532.1137,-3443.2914L13532.1134,-3443.2927L13532.1134,-3443.2941L13532.1139,-3443.2953L13532.1147,-3443.2964L13532.1141,-3443.2968L13532.1136,-3443.2964L13532.1126,-3443.2958L13532.1119,-3443.2954L13532.1109,-3443.2951L13532.1098,-3443.2949L13532.1086,-3443.2949L13532.1076,-3443.2951L13532.1066,-3443.2953L13532.1056,-3443.2957L13532.1045,-3443.2964L13532.1037,-3443.2972L13532.1031,-3443.298L13532.1026,-3443.2992L13532.1025,-3443.3004L13532.1028,-3443.3018L13532.1033,-3443.303L13532.1042,-3443.3041L13532.1052,-3443.3047L13532.1063,-3443.3053L13532.1073,-3443.3056L13532.1087,-3443.3058L13532.1098,-3443.3058L13532.1106,-3443.3056L13532.1112,-3443.3062L13532.1092,-3443.3076L13532.1086,-3443.3083L13532.1078,-3443.3093L13532.1076,-3443.3106L13532.1076,-3443.3117L13532.1079,-3443.3129L13532.1084,-3443.3138L13532.109,-3443.3145L13532.11,-3443.3153L13532.1112,-3443.316L13532.1126,-3443.3163L13532.1144,-3443.3164L13532.116,-3443.3162L13532.1168,-3443.3159L13532.1175,-3443.3155L13532.1351,-3443.3333L13532.2536,-3443.4537L13532.49,-3443.6937L13532.5,-3443.6868Z"/>
<path content="大阪府,,,泉佐野市,,27213" xlink:title="大阪府" d="M13526.3672,-3443.9291L13526.3672,-3443.9291L13526.3707,-3443.9249L13526.3703,-3443.9231L13526.374,-3443.9197L13526.3763,-3443.9199L13526.3794,-3443.9167L13526.3788,-3443.9149L13526.3826,-3443.9107L13526.3849,-3443.9111L13526.3891,-3443.9067L13526.3884,-3443.905L13526.392,-3443.9011L13526.3945,-3443.901L13526.3975,-3443.8975L13526.3971,-3443.8958L13526.4003,-3443.8925L13526.4026,-3443.8926L13526.4063,-3443.8886L13526.4056,-3443.8866L13526.409,-3443.8836L13526.4115,-3443.8837L13526.4151,-3443.88L13526.4144,-3443.8783L13526.4172,-3443.8753L13526.4195,-3443.8755L13526.4242,-3443.8704L13526.4237,-3443.8685L13526.4267,-3443.8656L13526.4288,-3443.8656L13526.4325,-3443.862L13526.432,-3443.8601L13526.4352,-3443.8571L13526.4373,-3443.8571L13526.442,-3443.8523L13526.4412,-3443.8511L13526.4447,-3443.8477L13526.4472,-3443.8478L13526.4506,-3443.8442L13526.45,-3443.8425L13526.4528,-3443.8396L13526.4552,-3443.8398L13526.4596,-3443.8349L13526.4592,-3443.8325L13526.4626,-3443.8292L13526.4649,-3443.8295L13526.4685,-3443.8257L13526.4678,-3443.8237L13526.471,-3443.8208L13526.4731,-3443.821L13526.4772,-3443.8164L13526.4768,-3443.8149L13526.4799,-3443.8119L13526.4819,-3443.8119L13526.4862,-3443.8074L13526.4855,-3443.8058L13526.4878,-3443.8034L13526.49,-3443.8037L13526.495,-3443.7982L13526.4947,-3443.7966L13526.4974,-3443.7938L13526.4993,-3443.7937L13526.5031,-3443.7898L13526.5029,-3443.7884L13526.5062,-3443.7854L13526.5074,-3443.7854L13526.5133,-3443.7799L13526.514,-3443.7734L13526.5128,-3443.7721L13526.5132,-3443.7681L13526.5148,-3443.7671L13526.515,-3443.7626L13526.5136,-3443.7611L13526.5141,-3443.7571L13526.5157,-3443.7562L13526.5161,-3443.7508L13526.5134,-3443.7459L13526.5081,-3443.7423L13526.5053,-3443.7427L13526.5023,-3443.7403L13526.5023,-3443.7383L13526.4992,-3443.7361L13526.4964,-3443.7364L13526.4923,-3443.7337L13526.4923,-3443.7313L13526.4863,-3443.7272L13526.4638,-3443.7124L13526.4494,-3443.7029L13526.4428,-3443.6984L13526.4402,-3443.699L13526.4368,-3443.6966L13526.4368,-3443.6941L13526.4333,-3443.692L13526.4303,-3443.6924L13526.4272,-3443.6899L13526.4273,-3443.6877L13526.4221,-3443.6845L13526.4147,-3443.6834L13526.4083,-3443.6849L13526.4073,-3443.6868L13526.4027,-3443.6878L13526.4007,-3443.6867L13526.3955,-3443.688L13526.3944,-3443.69L13526.3904,-3443.691L13526.3885,-3443.6901L13526.3815,-3443.6918L13526.3761,-3443.697L13526.3764,-3443.6994L13526.3741,-3443.7016L13526.3718,-3443.7015L13526.3683,-3443.7049L13526.3689,-3443.707L13526.3672,-3443.7088Z"/>
<path content="大阪府,,,泉佐野市,,27213" xlink:title="大阪府" d="M13531.7886,-3443.5882L13531.7798,-3443.5785L13531.7767,-3443.5804L13531.6667,-3443.4689L13531.54,-3443.3406L13531.5449,-3443.3333L13531.5863,-3443.2708L13531.6064,-3443.2431L13531.6667,-3443.1511L13531.6869,-3443.1204L13531.6884,-3443.121L13531.6937,-3443.1127L13531.6838,-3443.1082L13531.6835,-3443.1086L13531.6667,-3443.1341L13531.5765,-3443.2708L13531.5335,-3443.3333L13531.5281,-3443.3412L13531.6667,-3443.4815L13531.7783,-3443.5945L13531.7886,-3443.5882Z"/>
<path content="大阪府,,,泉佐野市,,27213" xlink:title="大阪府" d="M13531.291,-3442.1732L13531.3571,-3442.1245L13531.3534,-3442.1206L13531.2871,-3442.1698L13531.2741,-3442.1587L13531.2726,-3442.1597L13531.2221,-3442.1285L13531.2228,-3442.1279L13531.2046,-3442.1167L13531.1982,-3442.1238L13531.2641,-3442.1644L13531.3007,-3442.1954L13531.3092,-3442.1885L13531.291,-3442.1732Z"/>
<path content="大阪府,,,泉佐野市,,27213" xlink:title="大阪府" d="M13531.4491,-3442.3192L13531.367,-3442.2475L13531.3617,-3442.2516L13531.4513,-3442.3295L13531.4565,-3442.3256L13531.4491,-3442.3192Z"/>
<path content="大阪府,,,泉佐野市,,27213" xlink:title="大阪府" d="M13532.5221,-3443.0181L13532.5211,-3443.018L13532.5201,-3443.0181L13532.5191,-3443.0184L13532.5181,-3443.0187L13532.5173,-3443.0193L13532.5166,-3443.0199L13532.516,-3443.0206L13532.5156,-3443.0214L13532.5152,-3443.0227L13532.5152,-3443.0233L13532.5153,-3443.0242L13532.5156,-3443.025L13532.5161,-3443.0258L13532.5167,-3443.0265L13532.5175,-3443.0271L13532.5183,-3443.0276L13532.5193,-3443.0279L13532.5203,-3443.0281L13532.5213,-3443.0281L13532.5224,-3443.028L13532.5234,-3443.0278L13532.5243,-3443.0274L13532.5251,-3443.0269L13532.5259,-3443.0263L13532.5264,-3443.0255L13532.5268,-3443.0248L13532.5271,-3443.0239L13532.5271,-3443.0231L13532.5271,-3443.0229L13532.527,-3443.022L13532.5267,-3443.0212L13532.5263,-3443.0204L13532.5257,-3443.0197L13532.5249,-3443.0191L13532.5241,-3443.0187L13532.5231,-3443.0183L13532.5221,-3443.0181Z"/>
<path content="大阪府,,,泉南市,,27228" xlink:title="大阪府" d="M13527.9247,-3439.5761L13527.9377,-3439.5103L13527.9385,-3439.5109L13527.9411,-3439.5136L13527.9431,-3439.5159L13527.9452,-3439.5176L13527.9479,-3439.519L13527.9507,-3439.5203L13527.954,-3439.5228L13527.9573,-3439.5255L13527.9606,-3439.5275L13527.9632,-3439.5295L13527.9665,-3439.5323L13527.9686,-3439.5346L13527.9705,-3439.5363L13527.9729,-3439.5375L13527.9739,-3439.5381L13527.9756,-3439.538L13527.9801,-3439.5393L13528.0131,-3439.5152L13528.0884,-3439.4629L13528.1333,-3439.4318L13528.1651,-3439.4083L13528.2216,-3439.3699L13528.2571,-3439.3435L13528.2673,-3439.3281L13528.2742,-3439.3176L13528.2894,-3439.2894L13528.2912,-3439.2861L13528.2968,-3439.2757L13528.299,-3439.2716L13528.304,-3439.2623L13528.307,-3439.2568L13528.3205,-3439.2317L13528.325,-3439.2235L13528.3333,-3439.208L13528.3419,-3439.1922L13528.3471,-3439.1808L13528.3517,-3439.1711L13528.3537,-3439.1667L13528.3587,-3439.156L13528.3656,-3439.1412L13528.3684,-3439.1366L13528.3759,-3439.1244L13528.3797,-3439.1183L13528.3854,-3439.1091L13528.3896,-3439.1021L13528.3979,-3439.0887L13528.3988,-3439.0872L13528.4005,-3439.0845L13528.4121,-3439.0656L13528.3529,-3439.0417L13528.3333,-3439.0337L13528.3076,-3439.0234L13528.2676,-3439.0089L13528.255,-3439.0044L13528.1538,-3438.9676L13528.1319,-3438.9596L13528.1693,-3438.8833L13528.2177,-3438.7971L13528.2489,-3438.7641L13528.3016,-3438.7044L13528.3333,-3438.6619L13528.3353,-3438.6592L13528.4016,-3438.5754L13528.4233,-3438.5452L13528.4451,-3438.515L13528.4996,-3438.417L13528.5248,-3438.3819L13528.5626,-3438.4039L13528.5773,-3438.4124L13528.6071,-3438.4343L13528.6288,-3438.4476L13528.6367,-3438.4524L13528.6481,-3438.4594L13528.681,-3438.4795L13528.7274,-3438.5021L13528.7546,-3438.5234L13528.8164,-3438.4683L13528.8283,-3438.4577L13528.8284,-3438.4576L13528.8683,-3438.4132L13528.8976,-3438.4048L13528.9167,-3438.3877L13528.9607,-3438.3412L13528.9677,-3438.3333L13528.9817,-3438.3176L13528.9881,-3438.3103L13528.9914,-3438.3066L13528.9977,-3438.2994L13529.0054,-3438.2908L13529.0125,-3438.2828L13529.0173,-3438.2774L13529.0384,-3438.2712L13529.0531,-3438.2461L13529.0561,-3438.2288L13529.0118,-3438.1998L13528.9948,-3438.1886L13528.9678,-3438.1709L13528.9707,-3438.1612L13528.9824,-3438.1222L13528.9859,-3438.1106L13528.9657,-3438.0729L13528.9466,-3438.0374L13528.9572,-3437.944L13528.9608,-3437.9118L13528.9627,-3437.8956L13528.9627,-3437.895L13529.0096,-3437.8962L13529.0824,-3437.9042L13529.1011,-3437.9084L13529.1667,-3437.9234L13529.2657,-3437.9461L13529.3727,-3437.9812L13529.3851,-3437.972L13529.3856,-3437.9711L13529.4114,-3437.9256L13529.4194,-3437.9251L13529.4759,-3437.9431L13529.5548,-3437.9771L13529.5641,-3437.9801L13529.6052,-3437.9934L13529.6486,-3438.0166L13529.6498,-3438.021L13529.6516,-3438.0279L13529.6531,-3438.0458L13529.637,-3438.0879L13529.6355,-3438.0919L13529.6365,-3438.1023L13529.7699,-3438.1413L13529.83,-3438.1589L13529.8872,-3438.1677L13529.8943,-3438.1664L13529.9011,-3438.1567L13529.9028,-3438.1543L13529.9126,-3438.1346L13529.9219,-3438.1161L13529.9245,-3438.1108L13529.985,-3438.0624L13530,-3438.0576L13530.0201,-3438.0512L13530.0438,-3438.0437L13530.0585,-3438.0437L13530.083,-3438.0502L13530.0885,-3438.0532L13530.1065,-3438.0632L13530.1702,-3438.0827L13530.2388,-3438.1014L13530.3168,-3438.1299L13530.4922,-3438.1919L13530.5353,-3438.2071L13530.5455,-3438.2077L13530.5647,-3438.2087L13530.6519,-3438.1446L13530.7108,-3438.1112L13530.7601,-3438.084L13530.8333,-3438.0538L13530.8445,-3438.0492L13530.9022,-3438.0276L13530.9674,-3438.0031L13530.9883,-3437.984L13531.0013,-3437.9691L13531.0264,-3437.9272L13531.0346,-3437.9134L13531.0573,-3437.8392L13531.1083,-3437.7441L13531.1181,-3437.7328L13531.1566,-3437.7119L13531.1641,-3437.7078L13531.1877,-3437.6951L13531.2064,-3437.6849L13531.2229,-3437.6759L13531.2451,-3437.657L13531.306,-3437.6267L13531.3576,-3437.6507L13531.4125,-3437.5795L13531.4747,-3437.5L13531.5696,-3437.3789L13531.5431,-3437.3644L13531.6093,-3437.2889L13531.6211,-3437.2709L13531.658,-3437.2407L13531.6667,-3437.234L13531.6803,-3437.2233L13531.6908,-3437.2157L13531.7061,-3437.2018L13531.7939,-3437.1934L13531.7911,-3437.1725L13531.791,-3437.1721L13531.7899,-3437.1642L13531.7906,-3437.1271L13531.7908,-3437.1184L13531.791,-3437.1068L13531.8008,-3437.0922L13531.8136,-3437.0819L13531.831,-3437.0677L13531.8449,-3437.0565L13531.8606,-3437.0451L13531.8831,-3437.0362L13531.8929,-3437.0281L13531.9027,-3437.0118L13531.9076,-3437.0029L13531.9076,-3436.9939L13531.9085,-3436.9917L13531.9148,-3436.9755L13531.9188,-3436.9653L13531.9203,-3436.9614L13531.9322,-3436.9492L13531.9341,-3436.9362L13531.9461,-3436.9303L13531.9606,-3436.9232L13531.9608,-3436.9231L13531.9723,-3436.9191L13531.99,-3436.8923L13532.0003,-3436.8853L13532.0007,-3436.885L13532.0194,-3436.8671L13532.0225,-3436.8482L13532.0264,-3436.7799L13532.0479,-3436.7621L13532.0646,-3436.7548L13532.093,-3436.7272L13532.1097,-3436.7093L13532.1097,-3436.6744L13532.1163,-3436.6667L13532.1263,-3436.6549L13532.1352,-3436.6382L13532.1499,-3436.5757L13532.1577,-3436.5651L13532.1646,-3436.5594L13532.192,-3436.5522L13532.2067,-3436.5465L13532.2136,-3436.5249L13532.2137,-3436.5234L13526.3672,-3436.5234L13526.3672,-3438.103L13526.369,-3438.1036L13526.379,-3438.1079L13526.3863,-3438.1128L13526.3945,-3438.1189L13526.4079,-3438.131L13526.4331,-3438.1552L13526.4397,-3438.1625L13526.3731,-3438.2142L13526.3793,-3438.2196L13526.3987,-3438.2051L13526.4021,-3438.2073L13526.4035,-3438.209L13526.4052,-3438.2104L13526.4071,-3438.2113L13526.4104,-3438.2119L13526.4055,-3438.2157L13526.4109,-3438.2197L13526.4462,-3438.1921L13526.4528,-3438.1917L13526.4552,-3438.192L13526.4589,-3438.1941L13526.4638,-3438.1983L13526.467,-3438.2011L13526.4757,-3438.2055L13526.4849,-3438.2101L13526.4924,-3438.2154L13526.5,-3438.2227L13526.5106,-3438.2337L13526.5223,-3438.2444L13526.5308,-3438.2513L13526.5331,-3438.2536L13526.5353,-3438.2582L13526.5361,-3438.2624L13526.5362,-3438.2678L13526.5386,-3438.2737L13526.5429,-3438.279L13526.5585,-3438.2931L13526.5747,-3438.3088L13526.5907,-3438.3229L13526.5985,-3438.3288L13526.6006,-3438.3295L13526.6029,-3438.33L13526.6038,-3438.3293L13526.6038,-3438.3282L13526.6028,-3438.3259L13526.6028,-3438.3245L13526.6043,-3438.3237L13526.6071,-3438.3242L13526.6096,-3438.3253L13526.6121,-3438.3275L13526.6168,-3438.3333L13526.6185,-3438.3355L13526.6243,-3438.3416L13526.632,-3438.347L13526.6449,-3438.3537L13526.6525,-3438.3581L13526.6586,-3438.3635L13526.6633,-3438.3704L13526.6667,-3438.3734L13526.6671,-3438.3738L13526.672,-3438.3774L13526.6755,-3438.3819L13526.6772,-3438.3851L13526.6835,-3438.3922L13526.6906,-3438.4033L13526.6931,-3438.4067L13526.6963,-3438.4088L13526.6988,-3438.4102L13526.7007,-3438.412L13526.7045,-3438.4194L13526.7077,-3438.4241L13526.7122,-3438.4282L13526.718,-3438.4314L13526.7229,-3438.4338L13526.7247,-3438.4358L13526.7259,-3438.4388L13526.6882,-3438.4683L13526.6978,-3438.4765L13526.7029,-3438.4728L13526.7439,-3438.4413L13526.7475,-3438.443L13526.7516,-3438.4465L13526.7563,-3438.4514L13526.7628,-3438.4567L13526.7675,-3438.4597L13526.7721,-3438.4615L13526.7785,-3438.4668L13526.7874,-3438.4751L13526.7892,-3438.4764L13526.7909,-3438.4789L13526.7948,-3438.4834L13526.8038,-3438.4924L13526.8106,-3438.4979L13526.8339,-3438.5191L13526.8422,-3438.5273L13526.8502,-3438.5346L13526.8545,-3438.5387L13526.858,-3438.5429L13526.8604,-3438.548L13526.8619,-3438.5519L13526.8637,-3438.5548L13526.867,-3438.5576L13526.8799,-3438.5698L13526.8939,-3438.585L13526.8997,-3438.5935L13526.9076,-3438.61L13526.9176,-3438.6293L13526.924,-3438.6398L13526.9284,-3438.645L13526.9061,-3438.6625L13526.9097,-3438.6652L13526.9515,-3438.633L13526.9611,-3438.6391L13526.9678,-3438.6433L13526.9717,-3438.6457L13526.9747,-3438.6495L13526.9767,-3438.6526L13526.9801,-3438.6547L13526.9871,-3438.6577L13526.9958,-3438.662L13527.0057,-3438.6683L13527.014,-3438.6756L13527.0179,-3438.6799L13527.0215,-3438.6862L13527.0283,-3438.6939L13527.0365,-3438.7009L13527.041,-3438.707L13527.0448,-3438.7115L13527.051,-3438.7154L13527.0556,-3438.7187L13527.0634,-3438.7273L13527.0701,-3438.7354L13527.0841,-3438.7461L13527.0964,-3438.7579L13527.1241,-3438.7875L13527.1351,-3438.7994L13527.146,-3438.8101L13527.1502,-3438.8136L13527.1551,-3438.8167L13527.1606,-3438.8204L13527.1693,-3438.8282L13527.1735,-3438.8342L13527.1829,-3438.8439L13527.1865,-3438.8482L13527.1954,-3438.8601L13527.2082,-3438.8742L13527.2225,-3438.8909L13527.2284,-3438.8964L13527.2318,-3438.9025L13527.2412,-3438.916L13527.2479,-3438.9249L13527.2508,-3438.9318L13527.2529,-3438.9369L13527.2537,-3438.9398L13527.2559,-3438.9497L13527.2184,-3438.9783L13527.2297,-3438.9896L13527.2389,-3438.999L13527.2456,-3439.0055L13527.2608,-3439.0203L13527.2821,-3439.0392L13527.3025,-3439.0574L13527.3138,-3439.0675L13527.3802,-3439.126L13527.4099,-3439.1528L13527.4306,-3439.1494L13527.4304,-3439.1485L13527.4292,-3439.1432L13527.4126,-3439.1459L13527.3193,-3439.0631L13527.2708,-3439.0199L13527.317,-3438.9838L13527.3504,-3438.9581L13527.3917,-3438.9945L13527.429,-3439.0278L13527.4544,-3439.05L13527.4561,-3439.0529L13527.4442,-3439.0642L13527.4541,-3439.0693L13527.4351,-3439.0877L13527.4381,-3439.0905L13527.4399,-3439.0916L13527.4685,-3439.064L13527.4896,-3439.0429L13527.4892,-3439.0426L13527.5,-3439.0336L13527.5103,-3439.0251L13527.5213,-3439.016L13527.5411,-3439.0417L13527.5562,-3439.0601L13527.5538,-3439.0607L13527.5512,-3439.0613L13527.5486,-3439.062L13527.5461,-3439.0627L13527.5435,-3439.0634L13527.5409,-3439.0642L13527.5384,-3439.0649L13527.5367,-3439.0655L13527.5342,-3439.0664L13527.5317,-3439.0673L13527.5299,-3439.068L13527.5275,-3439.0691L13527.5251,-3439.0703L13527.5229,-3439.0716L13527.5222,-3439.072L13527.5202,-3439.0734L13527.5182,-3439.075L13527.5163,-3439.0766L13527.5145,-3439.0783L13527.5127,-3439.08L13527.5109,-3439.0817L13527.5092,-3439.0835L13527.5074,-3439.0852L13527.5069,-3439.0859L13527.5095,-3439.0871L13527.512,-3439.0891L13527.5141,-3439.0877L13527.5216,-3439.0805L13527.5274,-3439.0761L13527.5363,-3439.0718L13527.5604,-3439.0649L13527.5666,-3439.0659L13527.5702,-3439.0681L13527.5737,-3439.0702L13527.5782,-3439.0756L13527.5902,-3439.0894L13527.6223,-3439.1302L13527.6299,-3439.1399L13527.6408,-3439.1551L13527.6433,-3439.1643L13527.6434,-3439.1667L13527.6435,-3439.1678L13527.6435,-3439.1722L13527.6456,-3439.1811L13527.6475,-3439.1914L13527.6472,-3439.1962L13527.6468,-3439.2003L13527.6454,-3439.2046L13527.644,-3439.2067L13527.6425,-3439.2094L13527.6397,-3439.2126L13527.642,-3439.2132L13527.6402,-3439.2163L13527.6252,-3439.2122L13527.6236,-3439.2148L13527.6394,-3439.219L13527.6399,-3439.2201L13527.6395,-3439.2211L13527.6354,-3439.2201L13527.6451,-3439.2349L13527.6512,-3439.2459L13527.6579,-3439.2546L13527.6627,-3439.2626L13527.666,-3439.27L13527.6682,-3439.2745L13527.6622,-3439.2755L13527.6623,-3439.2766L13527.6684,-3439.2756L13527.7006,-3439.3379L13527.7218,-3439.3789L13527.7232,-3439.38L13527.7263,-3439.3815L13527.7308,-3439.3827L13527.7372,-3439.3845L13527.7412,-3439.3862L13527.7445,-3439.3866L13527.7476,-3439.3858L13527.7502,-3439.3841L13527.7549,-3439.381L13527.7582,-3439.3796L13527.7616,-3439.3788L13527.7665,-3439.3772L13527.77,-3439.3747L13527.7747,-3439.3721L13527.7804,-3439.3706L13527.7933,-3439.3683L13527.8026,-3439.3659L13527.811,-3439.3643L13527.827,-3439.3604L13527.8298,-3439.36L13527.8326,-3439.3596L13527.8354,-3439.3593L13527.8382,-3439.3591L13527.8411,-3439.3589L13527.8439,-3439.3588L13527.8467,-3439.3587L13527.8496,-3439.3587L13527.8524,-3439.3587L13527.8553,-3439.3588L13527.8581,-3439.359L13527.8609,-3439.3592L13527.8638,-3439.3594L13527.8666,-3439.3598L13527.8694,-3439.3602L13527.8722,-3439.3606L13527.875,-3439.3611L13527.8777,-3439.3616L13527.8805,-3439.3623L13527.8848,-3439.3634L13527.8874,-3439.3641L13527.8979,-3439.3659L13527.9055,-3439.3671L13527.9361,-3439.3801L13527.9534,-3439.3881L13527.9587,-3439.3905L13527.9378,-3439.4873L13527.9368,-3439.4911L13527.9297,-3439.5256L13527.9193,-3439.5756L13527.9202,-3439.5758L13527.9247,-3439.5761Z"/>
<path content="大阪府,,泉南郡,熊取町,,27361" xlink:title="大阪府" d="M13535.1562,-3438.0116L13535.0952,-3438.0325L13535.0792,-3438.0356L13535.0512,-3438.0318L13535,-3438.0178L13534.9707,-3438.0098L13534.9574,-3438.0099L13534.9329,-3438.0179L13534.8744,-3438.0622L13534.8315,-3438.0881L13534.8045,-3438.1138L13534.803,-3438.1231L13534.804,-3438.1303L13534.8325,-3438.1742L13534.8325,-3438.1836L13534.8244,-3438.1984L13534.7847,-3438.2246L13534.7704,-3438.2461L13534.7692,-3438.2731L13534.7689,-3438.2813L13534.7424,-3438.3159L13534.7173,-3438.3211L13534.7026,-3438.3236L13534.6956,-3438.3333L13534.6917,-3438.3388L13534.6766,-3438.3599L13534.6134,-3438.4158L13534.5706,-3438.4339L13534.565,-3438.4392L13534.5523,-3438.4512L13534.5023,-3438.5177L13534.4794,-3438.5354L13534.4162,-3438.5761L13534.3607,-3438.6309L13534.3431,-3438.6437L13534.3279,-3438.6535L13534.3169,-3438.6605L13534.3154,-3438.6614L13534.2962,-3438.6738L13534.2854,-3438.6867L13534.2677,-3438.7079L13534.2632,-3438.7248L13534.2611,-3438.8142L13534.2739,-3438.8589L13534.2858,-3438.8874L13534.2912,-3438.9002L13534.2993,-3438.9107L13534.3314,-3438.9517L13534.3319,-3438.9638L13534.3258,-3438.9748L13534.2992,-3438.9955L13534.2475,-3439.0343L13534.225,-3439.0482L13534.2154,-3439.0502L13534.1849,-3439.0518L13534.1676,-3439.0528L13534.1667,-3439.053L13534.1402,-3439.0574L13534.1202,-3439.0608L13534.1011,-3439.0641L13534.0918,-3439.0675L13534.0773,-3439.0772L13534.0743,-3439.0831L13534.0755,-3439.088L13534.077,-3439.0929L13534.0807,-3439.0957L13534.1032,-3439.1024L13534.1088,-3439.1039L13534.1085,-3439.1045L13534.1082,-3439.1081L13534.1029,-3439.1163L13534.1011,-3439.1191L13534.0814,-3439.1379L13534.0431,-3439.1666L13533.9941,-3439.1492L13533.9776,-3439.1667L13533.9655,-3439.1795L13533.9504,-3439.1774L13533.9492,-3439.1782L13533.9384,-3439.1954L13533.922,-3439.2185L13533.9146,-3439.2368L13533.9075,-3439.2525L13533.9011,-3439.2653L13533.9002,-3439.2689L13533.9017,-3439.2758L13533.9075,-3439.2887L13533.9097,-3439.2959L13533.9082,-3439.299L13533.9045,-3439.302L13533.8962,-3439.3108L13533.8937,-3439.3159L13533.8965,-3439.3272L13533.9039,-3439.3416L13533.9106,-3439.3591L13533.9106,-3439.3753L13533.9091,-3439.384L13533.9029,-3439.4033L13533.8989,-3439.413L13533.8989,-3439.4323L13533.8962,-3439.4452L13533.8946,-3439.4542L13533.8946,-3439.4852L13533.9002,-3439.4904L13533.9072,-3439.4968L13533.9072,-3439.4981L13533.9045,-3439.505L13533.9008,-3439.5104L13533.8724,-3439.5184L13533.8324,-3439.5294L13533.8129,-3439.5336L13533.8046,-3439.5354L13533.7855,-3439.5382L13533.7747,-3439.5395L13533.7664,-3439.5413L13533.7609,-3439.5431L13533.7472,-3439.5499L13533.7442,-3439.55L13533.691,-3439.5505L13533.6796,-3439.5538L13533.6756,-3439.5604L13533.6796,-3439.595L13533.6744,-3439.6138L13533.6647,-3439.6486L13533.6386,-3439.7136L13533.638,-3439.7149L13533.6287,-3439.7381L13533.6209,-3439.7694L13533.6187,-3439.7782L13533.6161,-3439.7886L13533.6388,-3439.8369L13533.6401,-3439.8397L13533.5934,-3439.863L13533.5784,-3439.8704L13533.5589,-3439.8899L13533.5458,-3439.9028L13533.5592,-3439.9285L13533.5669,-3439.9433L13533.5713,-3439.9516L13533.5837,-3439.9754L13533.5881,-3439.9837L13533.5898,-3439.987L13533.5966,-3440L13533.6071,-3440.0201L13533.6303,-3440.0645L13533.5979,-3440.1155L13533.5964,-3440.1283L13533.5954,-3440.1365L13533.6196,-3440.1634L13533.6338,-3440.1637L13533.6485,-3440.1641L13533.6618,-3440.1749L13533.6836,-3440.2012L13533.7013,-3440.2226L13533.7134,-3440.2372L13533.7206,-3440.2459L13533.7754,-3440.3119L13533.7955,-3440.3361L13533.7994,-3440.3408L13533.8066,-3440.3495L13533.8129,-3440.3571L13533.8122,-3440.3595L13533.809,-3440.3715L13533.8084,-3440.3739L13533.8006,-3440.4021L13533.8084,-3440.4328L13533.8232,-3440.443L13533.8645,-3440.4574L13533.8702,-3440.4742L13533.8736,-3440.4845L13533.8755,-3440.4902L13533.8804,-3440.5046L13533.8869,-3440.5241L13533.8952,-3440.541L13533.8636,-3440.5641L13533.8601,-3440.5666L13533.8584,-3440.5696L13533.8524,-3440.5796L13533.842,-3440.5973L13533.8258,-3440.6192L13533.8078,-3440.6342L13533.7955,-3440.6521L13533.789,-3440.6671L13533.789,-3440.6702L13533.8003,-3440.6737L13533.8079,-3440.6761L13533.8139,-3440.678L13533.8266,-3440.682L13533.8355,-3440.6847L13533.8587,-3440.6777L13533.8717,-3440.6804L13533.9007,-3440.7034L13533.9207,-3440.7082L13533.9564,-3440.7034L13533.9809,-3440.6927L13533.9989,-3440.6778L13534.0255,-3440.6981L13534.0274,-3440.7126L13534.0216,-3440.7276L13534.02,-3440.7385L13534.0184,-3440.75L13534.0229,-3440.7646L13534.0249,-3440.7662L13534.0289,-3440.7697L13534.0358,-3440.7756L13534.0449,-3440.7833L13534.0546,-3440.7827L13534.0849,-3440.7731L13534.1165,-3440.7576L13534.1403,-3440.7345L13534.1475,-3440.7274L13534.1667,-3440.721L13534.1692,-3440.7201L13534.2108,-3440.6992L13534.2312,-3440.689L13534.2464,-3440.7223L13534.2553,-3440.7416L13534.2582,-3440.7479L13534.302,-3440.7975L13534.304,-3440.7998L13534.3335,-3440.8333L13534.3657,-3440.8699L13534.4256,-3440.8333L13534.4293,-3440.8311L13534.5016,-3440.7869L13534.5138,-3440.7796L13534.5275,-3440.7712L13534.5565,-3440.8124L13534.5621,-3440.8204L13534.5712,-3440.8333L13534.5774,-3440.8422L13534.5866,-3440.8553L13534.5946,-3440.8857L13534.6136,-3440.9206L13534.6178,-3440.9283L13534.6349,-3440.9598L13534.6364,-3440.9626L13534.645,-3440.9784L13534.6487,-3440.9853L13534.667,-3441.0189L13534.6714,-3441.0217L13534.6763,-3441.0246L13534.6898,-3441.0329L13534.7115,-3441.0462L13534.7407,-3441.0474L13534.7691,-3441.0419L13534.7793,-3441.0292L13534.7924,-3441.0038L13534.7962,-3440.9928L13534.8036,-3440.9828L13534.8116,-3440.9719L13534.8253,-3440.9535L13534.8337,-3440.942L13534.8378,-3440.9366L13534.8392,-3440.9354L13534.8582,-3440.9196L13534.8722,-3440.9022L13534.8742,-3440.8998L13534.9365,-3440.8731L13534.9554,-3440.865L13535,-3440.8377L13535.0029,-3440.836L13535.0059,-3440.8333L13535.0629,-3440.7844L13535.0797,-3440.7704L13535.1011,-3440.7606L13535.1379,-3440.7437L13535.1562,-3440.7352Z"/>
<path content="大阪府,,泉南郡,田尻町,,27362" xlink:title="大阪府" d="M13529.1667,-3440.1574L13529.2591,-3440.0942L13529.2928,-3440.0688L13529.3167,-3440.0507L13529.3653,-3440.014L13529.3819,-3440L13529.402,-3439.9832L13529.4225,-3439.9659L13529.4454,-3439.933L13529.4517,-3439.926L13529.4605,-3439.916L13529.5,-3439.9333L13529.5278,-3439.9455L13529.5579,-3439.9678L13529.6117,-3439.9402L13529.6315,-3439.9402L13529.6663,-3439.914L13529.6283,-3439.8818L13529.62,-3439.8748L13529.6081,-3439.8647L13529.5095,-3439.7813L13529.5179,-3439.766L13529.5293,-3439.7451L13529.618,-3439.6663L13529.6296,-3439.6537L13529.6421,-3439.6401L13529.6537,-3439.6274L13529.6551,-3439.6259L13529.6601,-3439.6204L13529.7107,-3439.565L13529.7456,-3439.5401L13529.7728,-3439.5078L13529.7821,-3439.4968L13529.7942,-3439.4824L13529.8083,-3439.4656L13529.8249,-3439.4472L13529.8409,-3439.4096L13529.8488,-3439.3729L13529.8558,-3439.3311L13529.8575,-3439.3208L13529.8512,-3439.2913L13529.8393,-3439.2834L13529.8237,-3439.2794L13529.7783,-3439.2676L13529.7158,-3439.2512L13529.7102,-3439.2447L13529.7055,-3439.2375L13529.7094,-3439.2276L13529.7336,-3439.1994L13529.7482,-3439.1823L13529.7551,-3439.1747L13529.7622,-3439.1667L13529.7784,-3439.1486L13529.7864,-3439.1429L13529.7966,-3439.1355L13529.8132,-3439.1322L13529.8599,-3439.1355L13529.8884,-3439.1224L13529.9692,-3439.1079L13529.9795,-3439.104L13529.9906,-3439.0915L13530,-3439.0701L13530.0056,-3439.0574L13530.0165,-3439.0386L13530.0381,-3439.0014L13530,-3438.9748L13529.9956,-3438.9718L13529.9685,-3438.9529L13529.9437,-3438.9436L13529.9097,-3438.9246L13529.8725,-3438.916L13529.8511,-3438.918L13529.8337,-3438.9279L13529.821,-3438.9265L13529.8076,-3438.9252L13529.7965,-3438.9272L13529.7727,-3438.9495L13529.7609,-3438.9514L13529.7474,-3438.9429L13529.7326,-3438.9329L13529.7204,-3438.9246L13529.7727,-3438.8556L13529.7619,-3438.8503L13529.7487,-3438.8439L13529.6931,-3438.8166L13529.68,-3438.8102L13529.7289,-3438.7496L13529.7521,-3438.7208L13529.7715,-3438.6949L13529.7933,-3438.6661L13529.8028,-3438.6482L13529.817,-3438.6215L13529.8724,-3438.5473L13529.7053,-3438.4577L13529.6791,-3438.4479L13529.672,-3438.4551L13529.6411,-3438.5004L13529.5952,-3438.5411L13529.5445,-3438.6067L13529.5113,-3438.6489L13529.4471,-3438.6155L13529.4574,-3438.6096L13529.4914,-3438.603L13529.5113,-3438.5938L13529.4707,-3438.5726L13529.4382,-3438.5556L13529.4033,-3438.5346L13529.39,-3438.5288L13529.3534,-3438.5129L13529.3352,-3438.5097L13529.3131,-3438.5038L13529.2854,-3438.5051L13529.2426,-3438.5431L13529.226,-3438.5438L13529.1959,-3438.5359L13529.1848,-3438.5353L13529.1737,-3438.5405L13529.1667,-3438.5375L13529.131,-3438.5221L13529.1083,-3438.5106L13529.091,-3438.5018L13529.0841,-3438.4983L13529.0622,-3438.4872L13529.0533,-3438.4827L13529.0479,-3438.4799L13529.039,-3438.4754L13529.0222,-3438.4669L13529.0072,-3438.4564L13528.9351,-3438.4216L13528.9424,-3438.4125L13528.9881,-3438.3559L13528.9814,-3438.3523L13528.9759,-3438.3494L13528.9709,-3438.3467L13528.9607,-3438.3412L13528.9167,-3438.3877L13528.8976,-3438.4048L13528.8683,-3438.4132L13528.8284,-3438.4576L13528.8283,-3438.4577L13528.8164,-3438.4683L13528.7546,-3438.5234L13528.7274,-3438.5021L13528.681,-3438.4795L13528.6481,-3438.4594L13528.6367,-3438.4524L13528.6288,-3438.4476L13528.6071,-3438.4343L13528.5773,-3438.4124L13528.5626,-3438.4039L13528.5248,-3438.3819L13528.4996,-3438.417L13528.4451,-3438.515L13528.4233,-3438.5452L13528.4016,-3438.5754L13528.3353,-3438.6592L13528.3333,-3438.6619L13528.3016,-3438.7044L13528.2489,-3438.7641L13528.2177,-3438.7971L13528.1693,-3438.8833L13528.1319,-3438.9596L13528.1538,-3438.9676L13528.255,-3439.0044L13528.2676,-3439.0089L13528.3076,-3439.0234L13528.3333,-3439.0337L13528.3529,-3439.0417L13528.4121,-3439.0656L13528.4005,-3439.0845L13528.3988,-3439.0872L13528.3979,-3439.0887L13528.3896,-3439.1021L13528.3854,-3439.1091L13528.3797,-3439.1183L13528.3759,-3439.1244L13528.3684,-3439.1366L13528.3656,-3439.1412L13528.3587,-3439.156L13528.3537,-3439.1667L13528.3517,-3439.1711L13528.3471,-3439.1808L13528.3419,-3439.1922L13528.3333,-3439.208L13528.325,-3439.2235L13528.3205,-3439.2317L13528.307,-3439.2568L13528.304,-3439.2623L13528.299,-3439.2716L13528.2968,-3439.2757L13528.2912,-3439.2861L13528.2894,-3439.2894L13528.2742,-3439.3176L13528.2673,-3439.3281L13528.2571,-3439.3435L13528.2216,-3439.3699L13528.1651,-3439.4083L13528.1333,-3439.4318L13528.0884,-3439.4629L13528.0131,-3439.5152L13527.9801,-3439.5393L13527.9872,-3439.5412L13528.0335,-3439.5632L13528.0631,-3439.5882L13528.1041,-3439.6238L13528.1507,-3439.6689L13528.2087,-3439.7352L13528.2387,-3439.774L13528.2727,-3439.8277L13528.2833,-3439.8601L13528.2456,-3439.8822L13528.2401,-3439.8854L13528.2417,-3439.8872L13528.2425,-3439.8882L13528.3333,-3439.8357L13528.3767,-3439.8106L13528.4199,-3439.7857L13528.4403,-3439.7721L13528.4632,-3439.759L13528.558,-3439.7044L13528.6077,-3439.6755L13528.6951,-3439.6253L13528.7055,-3439.5999L13528.7056,-3439.5998L13528.7065,-3439.5997L13528.7064,-3439.5997L13528.708,-3439.5991L13528.7083,-3439.5986L13528.7113,-3439.5988L13528.7198,-3439.5998L13528.7337,-3439.6017L13528.7453,-3439.6033L13528.7498,-3439.6039L13528.7523,-3439.6039L13528.7545,-3439.6034L13528.7566,-3439.6027L13528.7586,-3439.6016L13528.7634,-3439.5975L13528.7708,-3439.5911L13528.7771,-3439.5854L13528.7788,-3439.5867L13528.7798,-3439.5857L13528.7839,-3439.5885L13528.7838,-3439.5886L13528.7831,-3439.5894L13528.7839,-3439.59L13528.7847,-3439.5892L13528.7848,-3439.5891L13528.7888,-3439.5919L13528.7888,-3439.5919L13528.7881,-3439.5929L13528.7881,-3439.5929L13528.7761,-3439.6049L13528.7683,-3439.6134L13528.7652,-3439.6175L13528.7626,-3439.6222L13528.7612,-3439.6276L13528.761,-3439.6317L13528.762,-3439.6371L13528.7636,-3439.641L13528.7644,-3439.6424L13528.7131,-3439.6927L13528.7197,-3439.6975L13528.7159,-3439.7012L13528.7139,-3439.701L13528.6781,-3439.7373L13528.5613,-3439.8783L13528.5457,-3439.8973L13528.484,-3439.9719L13528.4891,-3439.9747L13528.5498,-3439.9009L13528.5655,-3439.882L13528.667,-3439.7588L13528.6816,-3439.7407L13528.7183,-3439.778L13528.7252,-3439.7735L13528.6868,-3439.7354L13528.7581,-3439.6657L13528.7679,-3439.6737L13528.756,-3439.6841L13528.7577,-3439.6856L13528.7737,-3439.6722L13528.8217,-3439.7141L13528.8067,-3439.7268L13528.8098,-3439.7296L13528.8251,-3439.717L13528.8351,-3439.7257L13528.7876,-3439.7648L13528.7762,-3439.7626L13528.7744,-3439.767L13528.7828,-3439.7688L13528.6687,-3439.8626L13528.6553,-3439.8512L13528.6505,-3439.8551L13528.6634,-3439.8658L13528.619,-3439.9011L13528.6208,-3439.9027L13528.6653,-3439.8674L13528.6737,-3439.8743L13528.6784,-3439.8704L13528.6731,-3439.8661L13528.7899,-3439.7706L13528.8224,-3439.8L13528.8169,-3439.8041L13528.8152,-3439.8028L13528.6746,-3439.911L13528.6765,-3439.9129L13528.8231,-3439.8006L13528.8375,-3439.8135L13528.8245,-3439.8241L13528.7854,-3439.856L13528.7436,-3439.89L13528.7036,-3439.9226L13528.6575,-3439.9601L13528.6357,-3439.9769L13528.6073,-3440L13528.5771,-3440.0245L13528.5842,-3440.0507L13528.5856,-3440.0505L13528.5917,-3440.0494L13528.5851,-3440.0264L13528.6096,-3440.0082L13528.6468,-3440.0407L13528.6187,-3440.0619L13528.6207,-3440.0637L13528.6315,-3440.0551L13528.6542,-3440.0748L13528.5745,-3440.1571L13528.5774,-3440.1591L13528.5793,-3440.1604L13528.6099,-3440.1285L13528.6342,-3440.1037L13528.7268,-3440.1879L13528.7626,-3440.2229L13528.8246,-3440.281L13528.8546,-3440.3141L13528.8607,-3440.3262L13528.869,-3440.3465L13528.875,-3440.3546L13528.8817,-3440.3623L13528.8818,-3440.3624L13529.0365,-3440.2514L13529.069,-3440.2269L13529.1055,-3440.1992L13529.1341,-3440.1797L13529.1667,-3440.1574Z"/>
</g>
</svg>
