<?xml version="1.0" encoding="UTF-8"?>
<svg  xmlns="http://www.w3.org/2000/svg" xmlns:xlink="http://www.w3.org/1999/xlink" xmlns:go="http://purl.org/svgmap/profile" property="geometry,N03_001,N03_002,N03_003,N03_004,N03_005,N03_007" viewBox="13456.0546875 -3550.78125 8.7890625 8.7890625" go:dataArea="13456.0546875 -3550.78125 8.7890625 8.7890625" >
<metadata>
 <rdf:RDF xmlns:rdf="http://www.w3.org/1999/02/22-rdf-syntax-ns#" xmlns:crs="http://opengis.org/xmldtds/transformations.dtd" xmlns:svg="http://www.w3.org/svg" >
  <rdf:Description>
   <crs:CoordinateReferenceSystem rdf:resource="http://purl.org/crs/84" svg:transform="matrix(100.0,0.0,0.0,-100.0,0.0,0.0)" />
  </rdf:Description>
 </rdf:RDF>
</metadata>
<globalCoordinateSystem srsName="http://purl.org/crs/84" transform="matrix(100.0,0.0,0.0,-100.0,0.0,0.0)" />
<defs>
 <g id="p0" >
  <circle cx="0.0" cy="0.0" r="3" stroke="green" stroke-width="2.0" vector-effect="non-scaling-stroke" />
 </g>
</defs>
<g fill="#0000ff" fill-rule="evenodd" opacity="0.5" >
<path content="兵庫県,,,豊岡市,,28209" xlink:title="兵庫県" d="M13464.8437,-3550.7812L13464.8438,-3542.9724L13464.825,-3542.9768L13464.8077,-3542.9812L13464.7895,-3542.9816L13464.7683,-3542.9779L13464.738,-3542.9743L13464.7032,-3542.972L13464.6844,-3542.9684L13464.6652,-3542.9641L13464.6468,-3542.9574L13464.6283,-3542.9529L13464.6059,-3542.9519L13464.5903,-3542.9529L13464.574,-3542.9534L13464.556,-3542.9553L13464.5395,-3542.9561L13464.4974,-3542.9607L13464.4941,-3542.961L13464.4811,-3542.9592L13464.4712,-3542.9451L13464.4643,-3542.9301L13464.4613,-3542.9216L13464.4613,-3542.9115L13464.4667,-3542.8765L13464.4674,-3542.862L13464.4644,-3542.8461L13464.4629,-3542.8292L13464.4617,-3542.8084L13464.4601,-3542.8011L13464.4499,-3542.8094L13464.4373,-3542.8164L13464.4176,-3542.8229L13464.4002,-3542.8211L13464.3793,-3542.8166L13464.3652,-3542.8122L13464.3541,-3542.8057L13464.3483,-3542.798L13464.3345,-3542.788L13464.3237,-3542.7823L13464.3115,-3542.7746L13464.294,-3542.7698L13464.2688,-3542.7701L13464.2596,-3542.7751L13464.2403,-3542.7908L13464.2231,-3542.8089L13464.212,-3542.8206L13464.1979,-3542.8308L13464.1819,-3542.8445L13464.1667,-3542.8566L13464.1595,-3542.8622L13464.1325,-3542.8804L13464.1209,-3542.8901L13464.1061,-3542.9006L13464.0899,-3542.914L13464.0851,-3542.9179L13464.0423,-3542.9466L13464.0282,-3542.9561L13464.0134,-3542.9673L13464.0015,-3542.979L13463.9831,-3542.9939L13463.9631,-3543.0228L13463.9536,-3543.0355L13463.9453,-3543.0512L13463.9349,-3543.0627L13463.9241,-3543.0679L13463.9118,-3543.0699L13463.8888,-3543.0704L13463.8683,-3543.0706L13463.8514,-3543.0704L13463.8324,-3543.0716L13463.8121,-3543.0821L13463.7848,-3543.1008L13463.759,-3543.116L13463.7427,-3543.1262L13463.728,-3543.1336L13463.712,-3543.1424L13463.6866,-3543.1698L13463.6813,-3543.1752L13463.6562,-3543.2071L13463.6393,-3543.2116L13463.6206,-3543.2147L13463.6199,-3543.2148L13463.616,-3543.2163L13463.608,-3543.2193L13463.6006,-3543.2251L13463.5886,-3543.238L13463.5751,-3543.2534L13463.5669,-3543.2674L13463.5616,-3543.2821L13463.5623,-3543.3L13463.5623,-3543.3142L13463.561,-3543.3252L13463.5578,-3543.3333L13463.5558,-3543.3384L13463.5481,-3543.3503L13463.5392,-3543.3638L13463.5313,-3543.3779L13463.5227,-3543.3926L13463.5113,-3543.4161L13463.5067,-3543.4308L13463.5046,-3543.4415L13463.5015,-3543.4567L13463.4981,-3543.4716L13463.4944,-3543.4903L13463.4944,-3543.504L13463.4935,-3543.5152L13463.4904,-3543.5214L13463.4852,-3543.5289L13463.4742,-3543.5341L13463.464,-3543.5371L13463.4499,-3543.5443L13463.4416,-3543.5578L13463.4444,-3543.5804L13463.4407,-3543.5904L13463.4343,-3543.6039L13463.4207,-3543.6265L13463.4131,-3543.6417L13463.4082,-3543.6569L13463.4002,-3543.6771L13463.3894,-3543.6923L13463.3821,-3543.7042L13463.3769,-3543.7204L13463.3723,-3543.7341L13463.3676,-3543.7496L13463.3646,-3543.769L13463.3652,-3543.7986L13463.3679,-3543.8198L13463.3716,-3543.8387L13463.3738,-3543.8509L13463.3753,-3543.8689L13463.3738,-3543.8798L13463.3683,-3543.8923L13463.3594,-3543.9042L13463.3504,-3543.9169L13463.3489,-3543.9219L13463.3483,-3543.9356L13463.3498,-3543.951L13463.352,-3543.9752L13463.348,-3544.021L13463.3504,-3544.0397L13463.3521,-3544.0535L13463.3526,-3544.0574L13463.3544,-3544.0711L13463.3538,-3544.0836L13463.352,-3544.0948L13463.3489,-3544.103L13463.3385,-3544.1129L13463.3333,-3544.1167L13463.3299,-3544.1192L13463.3124,-3544.1266L13463.2952,-3544.1356L13463.2872,-3544.1578L13463.2846,-3544.1667L13463.2823,-3544.1742L13463.2765,-3544.2083L13463.2722,-3544.2268L13463.2651,-3544.2419L13463.2532,-3544.2522L13463.2326,-3544.2634L13463.2074,-3544.2728L13463.201,-3544.2761L13463.1967,-3544.2805L13463.1869,-3544.2945L13463.1835,-3544.3104L13463.1767,-3544.3343L13463.158,-3544.3754L13463.146,-3544.3911L13463.1337,-3544.4071L13463.1411,-3544.4213L13463.1516,-3544.4459L13463.1531,-3544.4559L13463.1503,-3544.4743L13463.143,-3544.4858L13463.1344,-3544.5022L13463.1313,-3544.5216L13463.1285,-3544.5334L13463.127,-3544.557L13463.127,-3544.5729L13463.1249,-3544.5889L13463.1199,-3544.6036L13463.111,-3544.6183L13463.0923,-3544.6369L13463.0865,-3544.6469L13463.0825,-3544.6574L13463.08,-3544.6671L13463.0853,-3544.6843L13463.0957,-3544.698L13463.0981,-3544.7019L13463.1147,-3544.7284L13463.1341,-3544.7568L13463.1472,-3544.7684L13463.1561,-3544.7819L13463.1856,-3544.819L13463.1966,-3544.8364L13463.2034,-3544.8407L13463.2061,-3544.8418L13463.2206,-3544.8481L13463.2424,-3544.8464L13463.2629,-3544.8484L13463.2746,-3544.8556L13463.2829,-3544.8666L13463.2863,-3544.8793L13463.2851,-3544.8959L13463.2829,-3544.9014L13463.2801,-3544.9139L13463.2761,-3544.9296L13463.27,-3544.9468L13463.2611,-3544.9744L13463.2522,-3544.9963L13463.2512,-3545L13463.2485,-3545.0093L13463.2399,-3545.0235L13463.227,-3545.0394L13463.2099,-3545.0539L13463.1884,-3545.0658L13463.1727,-3545.0703L13463.1534,-3545.0751L13463.1359,-3545.0818L13463.1242,-3545.0965L13463.1172,-3545.1144L13463.1123,-3545.1281L13463.1165,-3545.1624L13463.1313,-3545.1978L13463.1399,-3545.2264L13463.1472,-3545.2633L13463.1494,-3545.2775L13463.1518,-3545.2972L13463.1506,-3545.3196L13463.1503,-3545.3318L13463.1497,-3545.342L13463.1524,-3545.3495L13463.1598,-3545.3644L13463.1672,-3545.3789L13463.1736,-3545.4013L13463.1727,-3545.4105L13463.1687,-3545.4209L13463.1592,-3545.4334L13463.1478,-3545.4476L13463.1433,-3545.4623L13463.138,-3545.4775L13463.1337,-3545.4977L13463.127,-3545.5136L13463.1257,-3545.5243L13463.1276,-3545.5328L13463.1307,-3545.5393L13463.1408,-3545.548L13463.1604,-3545.5505L13463.1816,-3545.5492L13463.2034,-3545.5473L13463.2237,-3545.5502L13463.2268,-3545.5513L13463.2363,-3545.5547L13463.2476,-3545.5604L13463.255,-3545.5669L13463.2605,-3545.5729L13463.2688,-3545.5868L13463.2725,-3545.6025L13463.2703,-3545.6202L13463.2617,-3545.6384L13463.2596,-3545.6471L13463.2608,-3545.6536L13463.266,-3545.6603L13463.2771,-3545.669L13463.2826,-3545.6715L13463.301,-3545.6797L13463.3209,-3545.6825L13463.3333,-3545.6833L13463.3394,-3545.6837L13463.3584,-3545.6879L13463.3786,-3545.6937L13463.3974,-3545.7024L13463.4143,-3545.7141L13463.4443,-3545.7487L13463.4692,-3545.7858L13463.4775,-3545.8013L13463.4882,-3545.8145L13463.5026,-3545.8264L13463.5169,-3545.8333L13463.53,-3545.8396L13463.5361,-3545.8454L13463.5459,-3545.8631L13463.5573,-3545.8765L13463.5674,-3545.8929L13463.5726,-3545.9103L13463.5769,-3545.9313L13463.5843,-3545.9452L13463.5917,-3545.9584L13463.5963,-3545.9716L13463.5993,-3545.9883L13463.6036,-3546.0045L13463.6095,-3546.0306L13463.6086,-3546.0571L13463.6076,-3546.0703L13463.6046,-3546.0862L13463.6018,-3546.1086L13463.5978,-3546.1417L13463.5975,-3546.1596L13463.5984,-3546.1741L13463.6018,-3546.189L13463.603,-3546.209L13463.6024,-3546.2286L13463.6067,-3546.2595L13463.607,-3546.275L13463.6122,-3546.2909L13463.6197,-3546.3019L13463.627,-3546.3123L13463.6561,-3546.34L13463.6613,-3546.3514L13463.6641,-3546.3649L13463.665,-3546.3786L13463.661,-3546.3953L13463.6512,-3546.4097L13463.6408,-3546.4244L13463.6303,-3546.4458L13463.6254,-3546.4593L13463.6184,-3546.4734L13463.6101,-3546.4904L13463.5932,-3546.5131L13463.5776,-3546.536L13463.5696,-3546.5469L13463.5567,-3546.5609L13463.5465,-3546.5781L13463.5423,-3546.591L13463.5432,-3546.5998L13463.545,-3546.6084L13463.5508,-3546.6182L13463.5625,-3546.6286L13463.5757,-3546.6371L13463.5901,-3546.6491L13463.6027,-3546.6648L13463.6044,-3546.6667L13463.6396,-3546.7066L13463.6515,-3546.716L13463.661,-3546.7312L13463.6687,-3546.7549L13463.673,-3546.786L13463.6788,-3546.8005L13463.6889,-3546.8157L13463.7043,-3546.8276L13463.7175,-3546.8398L13463.7307,-3546.8565L13463.7328,-3546.8665L13463.7344,-3546.8934L13463.7347,-3546.9076L13463.7374,-3546.9228L13463.7423,-3546.9407L13463.7647,-3546.9738L13463.7758,-3546.9893L13463.7835,-3547.0002L13463.7908,-3547.0149L13463.7957,-3547.0323L13463.7948,-3547.064L13463.7945,-3547.0784L13463.8136,-3547.0864L13463.8271,-3547.088L13463.8283,-3547.0881L13463.8433,-3547.0884L13463.8568,-3547.0891L13463.871,-3547.0884L13463.8887,-3547.0899L13463.9087,-3547.0929L13463.9231,-3547.0963L13463.9378,-3547.1053L13463.9434,-3547.12L13463.9489,-3547.1392L13463.9658,-3547.191L13463.9701,-3547.2049L13463.9774,-3547.2199L13463.9839,-3547.2381L13463.9937,-3547.2605L13463.9968,-3547.2764L13463.9974,-3547.2884L13464.0005,-3547.3041L13464.0035,-3547.3188L13464.0118,-3547.3324L13464.0232,-3547.3531L13464.0339,-3547.3793L13464.0373,-3547.3843L13464.0443,-3547.3979L13464.0551,-3547.4107L13464.0664,-3547.4246L13464.0851,-3547.447L13464.0897,-3547.4565L13464.0934,-3547.4726L13464.0981,-3547.4878L13464.1041,-3547.5L13464.1054,-3547.5028L13464.114,-3547.5195L13464.1186,-3547.5319L13464.1207,-3547.5588L13464.1201,-3547.5718L13464.1257,-3547.5862L13464.1327,-3547.6009L13464.145,-3547.6161L13464.1597,-3547.6283L13464.1667,-3547.632L13464.1705,-3547.6341L13464.1785,-3547.6356L13464.1892,-3547.6361L13464.2057,-3547.6318L13464.2242,-3547.6219L13464.2407,-3547.6134L13464.2567,-3547.6106L13464.2635,-3547.6116L13464.2681,-3547.6161L13464.2813,-3547.6622L13464.2877,-3547.6771L13464.296,-3547.6901L13464.3178,-3547.7015L13464.3445,-3547.7202L13464.3601,-3547.7334L13464.3611,-3547.7348L13464.3644,-3547.7399L13464.373,-3547.7528L13464.3798,-3547.7668L13464.385,-3547.7837L13464.3933,-3547.7934L13464.4037,-3547.8051L13464.4092,-3547.8176L13464.4129,-3547.8311L13464.4169,-3547.847L13464.4209,-3547.8622L13464.4209,-3547.8761L13464.4086,-3547.8824L13464.377,-3547.8881L13464.3494,-3547.8931L13464.3347,-3547.8998L13464.3169,-3547.906L13464.2932,-3547.9115L13464.273,-3547.9199L13464.2604,-3547.9287L13464.2493,-3547.9409L13464.2466,-3547.9471L13464.2417,-3547.9628L13464.2392,-3547.979L13464.2386,-3547.9982L13464.2334,-3548.0143L13464.2263,-3548.0236L13464.2122,-3548.033L13464.1996,-3548.0405L13464.1901,-3548.05L13464.1754,-3548.0612L13464.1667,-3548.0701L13464.1613,-3548.0756L13464.1533,-3548.0923L13464.1477,-3548.1038L13464.1471,-3548.113L13464.1508,-3548.1234L13464.1594,-3548.1444L13464.1667,-3548.1498L13464.1754,-3548.1563L13464.1932,-3548.167L13464.1963,-3548.1785L13464.1966,-3548.1865L13464.1928,-3548.1989L13464.1861,-3548.2086L13464.1751,-3548.2191L13464.1667,-3548.23L13464.1649,-3548.2323L13464.1551,-3548.2469L13464.1526,-3548.2644L13464.1465,-3548.2806L13464.1382,-3548.2938L13464.1303,-3548.3025L13464.1226,-3548.3095L13464.1081,-3548.3222L13464.0994,-3548.3333L13464.098,-3548.3351L13464.0903,-3548.3536L13464.09,-3548.3645L13464.094,-3548.3775L13464.102,-3548.4056L13464.1014,-3548.4148L13464.0882,-3548.4231L13464.0716,-3548.4305L13464.0569,-3548.4385L13464.0503,-3548.4415L13464.0348,-3548.4487L13464.0225,-3548.4567L13464.0173,-3548.4629L13464.0117,-3548.4776L13464.0099,-3548.494L13464.0084,-3548.5105L13464.0069,-3548.5257L13464.001,-3548.5478L13463.997,-3548.5575L13463.9891,-3548.5685L13463.9783,-3548.577L13463.9651,-3548.5852L13463.9482,-3548.5932L13463.9301,-3548.6034L13463.9105,-3548.6218L13463.8982,-3548.6402L13463.8957,-3548.6502L13463.8871,-3548.6666L13463.8736,-3548.6781L13463.8543,-3548.6831L13463.8328,-3548.6925L13463.8196,-3548.701L13463.8098,-3548.7102L13463.8067,-3548.7214L13463.8058,-3548.7388L13463.8033,-3548.7555L13463.8,-3548.771L13463.7929,-3548.7829L13463.7825,-3548.7936L13463.7601,-3548.8156L13463.7487,-3548.8288L13463.7358,-3548.84L13463.7183,-3548.8517L13463.7014,-3548.8629L13463.6922,-3548.8699L13463.6895,-3548.8743L13463.6928,-3548.8798L13463.7091,-3548.8843L13463.7211,-3548.888L13463.7389,-3548.8958L13463.7573,-3548.9052L13463.7754,-3548.9167L13463.7762,-3548.9178L13463.7831,-3548.9281L13463.788,-3548.9383L13463.7909,-3548.9484L13463.7954,-3548.9642L13463.7938,-3548.9839L13463.7929,-3548.9996L13463.7837,-3549.0133L13463.7736,-3549.0235L13463.7549,-3549.0352L13463.7334,-3549.0497L13463.7217,-3549.0586L13463.7042,-3549.0706L13463.6864,-3549.0845L13463.6692,-3549.1007L13463.6477,-3549.1246L13463.6447,-3549.1279L13463.6354,-3549.1376L13463.6266,-3549.152L13463.6259,-3549.166L13463.626,-3549.1667L13463.6272,-3549.1754L13463.6321,-3549.1837L13463.6385,-3549.1936L13463.6576,-3549.2098L13463.672,-3549.224L13463.6806,-3549.2382L13463.6938,-3549.2581L13463.7021,-3549.2716L13463.703,-3549.2798L13463.7008,-3549.289L13463.6889,-3549.3017L13463.6839,-3549.3064L13463.6741,-3549.3191L13463.6655,-3549.3343L13463.6664,-3549.3513L13463.6754,-3549.3769L13463.6772,-3549.3834L13463.6763,-3549.3961L13463.6747,-3549.4051L13463.66,-3549.42L13463.6437,-3549.4282L13463.6256,-3549.4364L13463.6094,-3549.4484L13463.5956,-3549.4626L13463.5787,-3549.4748L13463.5643,-3549.4833L13463.5455,-3549.4808L13463.5246,-3549.4773L13463.4556,-3549.4711L13463.4396,-3549.4728L13463.4227,-3549.475L13463.4025,-3549.4815L13463.3878,-3549.4945L13463.3697,-3549.5084L13463.3516,-3549.5176L13463.3411,-3549.5273L13463.3333,-3549.531L13463.3242,-3549.5353L13463.3016,-3549.5513L13463.2862,-3549.5622L13463.2693,-3549.5629L13463.245,-3549.559L13463.2257,-3549.553L13463.2058,-3549.5513L13463.1827,-3549.5555L13463.1591,-3549.5592L13463.1361,-3549.5602L13463.1247,-3549.5639L13463.1189,-3549.5682L13463.1094,-3549.5786L13463.102,-3549.5921L13463.0962,-3549.612L13463.0861,-3549.6262L13463.0818,-3549.6316L13463.0775,-3549.6372L13463.0692,-3549.6454L13463.0554,-3549.6516L13463.0388,-3549.6546L13463.0186,-3549.6566L13462.9952,-3549.6576L13462.9793,-3549.6588L13462.9679,-3549.6616L13462.9547,-3549.6663L13462.9363,-3549.6773L13462.9222,-3549.687L13462.9053,-3549.6954L13462.8881,-3549.7047L13462.8694,-3549.7151L13462.8301,-3549.7321L13462.8135,-3549.741L13462.7963,-3549.7495L13462.7782,-3549.7582L13462.7527,-3549.7699L13462.7408,-3549.7746L13462.723,-3549.7786L13462.7052,-3549.7826L13462.6895,-3549.7876L13462.6729,-3549.7948L13462.6677,-3549.8055L13462.6579,-3549.8229L13462.6435,-3549.8419L13462.6303,-3549.8546L13462.6171,-3549.8655L13462.6021,-3549.8765L13462.5941,-3549.8822L13462.5889,-3549.8924L13462.5846,-3549.9036L13462.5757,-3549.9136L13462.5683,-3549.9208L13462.5576,-3549.9316L13462.545,-3549.945L13462.5309,-3549.9636L13462.5131,-3549.9841L13462.5044,-3550L13462.5014,-3550.0055L13462.5,-3550.0079L13462.4937,-3550.0189L13462.4876,-3550.0329L13462.4781,-3550.0533L13462.4655,-3550.0725L13462.4452,-3550.0954L13462.4323,-3550.1051L13462.4148,-3550.1136L13462.3937,-3550.1178L13462.3489,-3550.1206L13462.3274,-3550.1226L13462.3065,-3550.1271L13462.2887,-3550.1343L13462.2746,-3550.1427L13462.257,-3550.1486L13462.2537,-3550.1497L13462.2253,-3550.1556L13462.2137,-3550.1603L13462.2066,-3550.1632L13462.2016,-3550.1644L13462.1956,-3550.1642L13462.1885,-3550.1622L13462.181,-3550.1591L13462.1767,-3550.156L13462.1727,-3550.1519L13462.1704,-3550.1432L13462.1699,-3550.1364L13462.1777,-3550.1126L13462.1813,-3550.1025L13462.1848,-3550.0955L13462.186,-3550.0906L13462.1865,-3550.0856L13462.1843,-3550.0755L13462.1803,-3550.0673L13462.1761,-3550.0631L13462.1667,-3550.0595L13462.1483,-3550.0582L13462.1307,-3550.0582L13462.1103,-3550.0614L13462.0947,-3550.0683L13462.0826,-3550.0788L13462.0706,-3550.0881L13462.0654,-3550.0929L13462.0596,-3550.0967L13462.048,-3550.1039L13462.0242,-3550.1191L13462.0063,-3550.1297L13461.9911,-3550.1341L13461.9829,-3550.1352L13461.9701,-3550.1365L13461.9572,-3550.1371L13461.9421,-3550.1378L13461.9204,-3550.1378L13461.8986,-3550.139L13461.8831,-3550.1434L13461.8785,-3550.1454L13461.8677,-3550.1622L13461.8568,-3550.1784L13461.8497,-3550.1867L13461.8429,-3550.1952L13461.8386,-3550.2061L13461.8351,-3550.2175L13461.8332,-3550.2305L13461.8318,-3550.2477L13461.8321,-3550.2676L13461.8327,-3550.2813L13461.8344,-3550.2949L13461.8361,-3550.3087L13461.8369,-3550.3154L13461.836,-3550.3246L13461.8283,-3550.3476L13461.8144,-3550.377L13461.8066,-3550.3925L13461.8053,-3550.4051L13461.8066,-3550.4148L13461.8079,-3550.4189L13461.8104,-3550.4267L13461.8152,-3550.4344L13461.8224,-3550.445L13461.8353,-3550.4598L13461.8466,-3550.476L13461.8687,-3550.5017L13461.8754,-3550.5122L13461.8799,-3550.5231L13461.8803,-3550.5332L13461.8759,-3550.5419L13461.8709,-3550.5472L13461.8553,-3550.5586L13461.8451,-3550.5703L13461.839,-3550.5793L13461.8328,-3550.5912L13461.8246,-3550.618L13461.8204,-3550.6404L13461.8144,-3550.6575L13461.8098,-3550.6733L13461.8053,-3550.6937L13461.7955,-3550.7225L13461.7801,-3550.7458L13461.7683,-3550.7578L13461.7652,-3550.761L13461.7484,-3550.7804L13461.7476,-3550.7813Z"/>
<path content="兵庫県,,,養父市,,28222" xlink:title="兵庫県" d="M13464.8438,-3542.2832L13464.8341,-3542.2979L13464.8243,-3542.3104L13464.8151,-3542.3173L13464.8074,-3542.3203L13464.7887,-3542.3233L13464.7713,-3542.3275L13464.7541,-3542.3454L13464.7356,-3542.3793L13464.7286,-3542.3935L13464.7258,-3542.4089L13464.7184,-3542.4217L13464.7065,-3542.4354L13464.6988,-3542.4533L13464.6905,-3542.474L13464.6871,-3542.4852L13464.6871,-3542.5L13464.6871,-3542.5019L13464.6853,-3542.518L13464.6877,-3542.5337L13464.6881,-3542.5462L13464.6871,-3542.5626L13464.6825,-3542.5733L13464.6749,-3542.5818L13464.6598,-3542.5997L13464.6479,-3542.6114L13464.635,-3542.6234L13464.6095,-3542.6423L13464.5886,-3542.6623L13464.5785,-3542.6754L13464.5628,-3542.6857L13464.5475,-3542.6983L13464.5229,-3542.7178L13464.5134,-3542.7265L13464.5039,-3542.7382L13464.4971,-3542.7506L13464.4926,-3542.7588L13464.4901,-3542.7633L13464.4787,-3542.7803L13464.4658,-3542.7942L13464.4601,-3542.8011L13464.4617,-3542.8084L13464.4629,-3542.8292L13464.4644,-3542.8461L13464.4674,-3542.862L13464.4667,-3542.8765L13464.4613,-3542.9115L13464.4613,-3542.9216L13464.4643,-3542.9301L13464.4712,-3542.9451L13464.4811,-3542.9592L13464.4941,-3542.961L13464.4974,-3542.9607L13464.5395,-3542.9561L13464.556,-3542.9553L13464.574,-3542.9534L13464.5903,-3542.9529L13464.6059,-3542.9519L13464.6283,-3542.9529L13464.6468,-3542.9574L13464.6652,-3542.9641L13464.6844,-3542.9684L13464.7032,-3542.972L13464.738,-3542.9743L13464.7683,-3542.9779L13464.7895,-3542.9816L13464.8077,-3542.9812L13464.825,-3542.9768L13464.8438,-3542.9724Z"/>
<path content="兵庫県,,美方郡,香美町,,28585" xlink:title="兵庫県" d="M13461.7476,-3550.7813L13461.7484,-3550.7804L13461.7652,-3550.761L13461.7683,-3550.7578L13461.7801,-3550.7458L13461.7955,-3550.7225L13461.8053,-3550.6937L13461.8098,-3550.6733L13461.8144,-3550.6575L13461.8204,-3550.6404L13461.8246,-3550.618L13461.8328,-3550.5912L13461.839,-3550.5793L13461.8451,-3550.5703L13461.8553,-3550.5586L13461.8709,-3550.5472L13461.8759,-3550.5419L13461.8803,-3550.5332L13461.8799,-3550.5231L13461.8754,-3550.5122L13461.8687,-3550.5017L13461.8466,-3550.476L13461.8353,-3550.4598L13461.8224,-3550.445L13461.8152,-3550.4344L13461.8104,-3550.4267L13461.8079,-3550.4189L13461.8066,-3550.4148L13461.8053,-3550.4051L13461.8066,-3550.3925L13461.8144,-3550.377L13461.8283,-3550.3476L13461.836,-3550.3246L13461.8369,-3550.3154L13461.8361,-3550.3087L13461.8344,-3550.2949L13461.8327,-3550.2813L13461.8321,-3550.2676L13461.8318,-3550.2477L13461.8332,-3550.2305L13461.8351,-3550.2175L13461.8386,-3550.2061L13461.8429,-3550.1952L13461.8497,-3550.1867L13461.8568,-3550.1784L13461.8677,-3550.1622L13461.8785,-3550.1454L13461.8831,-3550.1434L13461.8986,-3550.139L13461.9204,-3550.1378L13461.9421,-3550.1378L13461.9572,-3550.1371L13461.9701,-3550.1365L13461.9829,-3550.1352L13461.9911,-3550.1341L13462.0063,-3550.1297L13462.0242,-3550.1191L13462.048,-3550.1039L13462.0596,-3550.0967L13462.0654,-3550.0929L13462.0706,-3550.0881L13462.0826,-3550.0788L13462.0947,-3550.0683L13462.1103,-3550.0614L13462.1307,-3550.0582L13462.1483,-3550.0582L13462.1667,-3550.0595L13462.1761,-3550.0631L13462.1803,-3550.0673L13462.1843,-3550.0755L13462.1865,-3550.0856L13462.186,-3550.0906L13462.1848,-3550.0955L13462.1813,-3550.1025L13462.1777,-3550.1126L13462.1699,-3550.1364L13462.1704,-3550.1432L13462.1727,-3550.1519L13462.1767,-3550.156L13462.181,-3550.1591L13462.1885,-3550.1622L13462.1956,-3550.1642L13462.2016,-3550.1644L13462.2066,-3550.1632L13462.2137,-3550.1603L13462.2253,-3550.1556L13462.2537,-3550.1497L13462.257,-3550.1486L13462.2746,-3550.1427L13462.2887,-3550.1343L13462.3065,-3550.1271L13462.3274,-3550.1226L13462.3489,-3550.1206L13462.3937,-3550.1178L13462.4148,-3550.1136L13462.4323,-3550.1051L13462.4452,-3550.0954L13462.4655,-3550.0725L13462.4781,-3550.0533L13462.4876,-3550.0329L13462.4937,-3550.0189L13462.5,-3550.0079L13462.5014,-3550.0055L13462.5044,-3550L13462.5131,-3549.9841L13462.5309,-3549.9636L13462.545,-3549.945L13462.5576,-3549.9316L13462.5683,-3549.9208L13462.5757,-3549.9136L13462.5846,-3549.9036L13462.5889,-3549.8924L13462.5941,-3549.8822L13462.6021,-3549.8765L13462.6171,-3549.8655L13462.6303,-3549.8546L13462.6435,-3549.8419L13462.6579,-3549.8229L13462.6677,-3549.8055L13462.6729,-3549.7948L13462.6895,-3549.7876L13462.7052,-3549.7826L13462.723,-3549.7786L13462.7408,-3549.7746L13462.7527,-3549.7699L13462.7782,-3549.7582L13462.7963,-3549.7495L13462.8135,-3549.741L13462.8301,-3549.7321L13462.8694,-3549.7151L13462.8881,-3549.7047L13462.9053,-3549.6954L13462.9222,-3549.687L13462.9363,-3549.6773L13462.9547,-3549.6663L13462.9679,-3549.6616L13462.9793,-3549.6588L13462.9952,-3549.6576L13463.0186,-3549.6566L13463.0388,-3549.6546L13463.0554,-3549.6516L13463.0692,-3549.6454L13463.0775,-3549.6372L13463.0818,-3549.6316L13463.0861,-3549.6262L13463.0962,-3549.612L13463.102,-3549.5921L13463.1094,-3549.5786L13463.1189,-3549.5682L13463.1247,-3549.5639L13463.1361,-3549.5602L13463.1591,-3549.5592L13463.1827,-3549.5555L13463.2058,-3549.5513L13463.2257,-3549.553L13463.245,-3549.559L13463.2693,-3549.5629L13463.2862,-3549.5622L13463.3016,-3549.5513L13463.3242,-3549.5353L13463.3333,-3549.531L13463.3411,-3549.5273L13463.3516,-3549.5176L13463.3697,-3549.5084L13463.3878,-3549.4945L13463.4025,-3549.4815L13463.4227,-3549.475L13463.4396,-3549.4728L13463.4556,-3549.4711L13463.5246,-3549.4773L13463.5455,-3549.4808L13463.5643,-3549.4833L13463.5787,-3549.4748L13463.5956,-3549.4626L13463.6094,-3549.4484L13463.6256,-3549.4364L13463.6437,-3549.4282L13463.66,-3549.42L13463.6747,-3549.4051L13463.6763,-3549.3961L13463.6772,-3549.3834L13463.6754,-3549.3769L13463.6664,-3549.3513L13463.6655,-3549.3343L13463.6741,-3549.3191L13463.6839,-3549.3064L13463.6889,-3549.3017L13463.7008,-3549.289L13463.703,-3549.2798L13463.7021,-3549.2716L13463.6938,-3549.2581L13463.6806,-3549.2382L13463.672,-3549.224L13463.6576,-3549.2098L13463.6385,-3549.1936L13463.6321,-3549.1837L13463.6272,-3549.1754L13463.626,-3549.1667L13463.6259,-3549.166L13463.6266,-3549.152L13463.6354,-3549.1376L13463.6447,-3549.1279L13463.6477,-3549.1246L13463.6692,-3549.1007L13463.6864,-3549.0845L13463.7042,-3549.0706L13463.7217,-3549.0586L13463.7334,-3549.0497L13463.7549,-3549.0352L13463.7736,-3549.0235L13463.7837,-3549.0133L13463.7929,-3548.9996L13463.7938,-3548.9839L13463.7954,-3548.9642L13463.7909,-3548.9484L13463.788,-3548.9383L13463.7831,-3548.9281L13463.7762,-3548.9178L13463.7754,-3548.9167L13463.7573,-3548.9052L13463.7389,-3548.8958L13463.7211,-3548.888L13463.7091,-3548.8843L13463.6928,-3548.8798L13463.6895,-3548.8743L13463.6922,-3548.8699L13463.7014,-3548.8629L13463.7183,-3548.8517L13463.7358,-3548.84L13463.7487,-3548.8288L13463.7601,-3548.8156L13463.7825,-3548.7936L13463.7929,-3548.7829L13463.8,-3548.771L13463.8033,-3548.7555L13463.8058,-3548.7388L13463.8067,-3548.7214L13463.8098,-3548.7102L13463.8196,-3548.701L13463.8328,-3548.6925L13463.8543,-3548.6831L13463.8736,-3548.6781L13463.8871,-3548.6666L13463.8957,-3548.6502L13463.8982,-3548.6402L13463.9105,-3548.6218L13463.9301,-3548.6034L13463.9482,-3548.5932L13463.9651,-3548.5852L13463.9783,-3548.577L13463.9891,-3548.5685L13463.997,-3548.5575L13464.001,-3548.5478L13464.0069,-3548.5257L13464.0084,-3548.5105L13464.0099,-3548.494L13464.0117,-3548.4776L13464.0173,-3548.4629L13464.0225,-3548.4567L13464.0348,-3548.4487L13464.0503,-3548.4415L13464.0569,-3548.4385L13464.0716,-3548.4305L13464.0882,-3548.4231L13464.1014,-3548.4148L13464.102,-3548.4056L13464.094,-3548.3775L13464.09,-3548.3645L13464.0903,-3548.3536L13464.098,-3548.3351L13464.0994,-3548.3333L13464.1081,-3548.3222L13464.1226,-3548.3095L13464.1303,-3548.3025L13464.1382,-3548.2938L13464.1465,-3548.2806L13464.1526,-3548.2644L13464.1551,-3548.2469L13464.1649,-3548.2323L13464.1667,-3548.23L13464.1751,-3548.2191L13464.1861,-3548.2086L13464.1928,-3548.1989L13464.1966,-3548.1865L13464.1963,-3548.1785L13464.1932,-3548.167L13464.1754,-3548.1563L13464.1667,-3548.1498L13464.1594,-3548.1444L13464.1508,-3548.1234L13464.1471,-3548.113L13464.1477,-3548.1038L13464.1533,-3548.0923L13464.1613,-3548.0756L13464.1667,-3548.0701L13464.1754,-3548.0612L13464.1901,-3548.05L13464.1996,-3548.0405L13464.2122,-3548.033L13464.2263,-3548.0236L13464.2334,-3548.0143L13464.2386,-3547.9982L13464.2392,-3547.979L13464.2417,-3547.9628L13464.2466,-3547.9471L13464.2493,-3547.9409L13464.2604,-3547.9287L13464.273,-3547.9199L13464.2932,-3547.9115L13464.3169,-3547.906L13464.3347,-3547.8998L13464.3494,-3547.8931L13464.377,-3547.8881L13464.4086,-3547.8824L13464.4209,-3547.8761L13464.4209,-3547.8622L13464.4169,-3547.847L13464.4129,-3547.8311L13464.4092,-3547.8176L13464.4037,-3547.8051L13464.3933,-3547.7934L13464.385,-3547.7837L13464.3798,-3547.7668L13464.373,-3547.7528L13464.3644,-3547.7399L13464.3611,-3547.7348L13464.3601,-3547.7334L13464.3445,-3547.7202L13464.3178,-3547.7015L13464.296,-3547.6901L13464.2877,-3547.6771L13464.2813,-3547.6622L13464.2681,-3547.6161L13464.2635,-3547.6116L13464.2567,-3547.6106L13464.2407,-3547.6134L13464.2242,-3547.6219L13464.2057,-3547.6318L13464.1892,-3547.6361L13464.1785,-3547.6356L13464.1705,-3547.6341L13464.1667,-3547.632L13464.1597,-3547.6283L13464.145,-3547.6161L13464.1327,-3547.6009L13464.1257,-3547.5862L13464.1201,-3547.5718L13464.1207,-3547.5588L13464.1186,-3547.5319L13464.114,-3547.5195L13464.1054,-3547.5028L13464.1041,-3547.5L13464.0981,-3547.4878L13464.0934,-3547.4726L13464.0897,-3547.4565L13464.0851,-3547.447L13464.0664,-3547.4246L13464.0551,-3547.4107L13464.0443,-3547.3979L13464.0373,-3547.3843L13464.0339,-3547.3793L13464.0232,-3547.3531L13464.0118,-3547.3324L13464.0035,-3547.3188L13464.0005,-3547.3041L13463.9974,-3547.2884L13463.9968,-3547.2764L13463.9937,-3547.2605L13463.9839,-3547.2381L13463.9774,-3547.2199L13463.9701,-3547.2049L13463.9658,-3547.191L13463.9489,-3547.1392L13463.9434,-3547.12L13463.9378,-3547.1053L13463.9231,-3547.0963L13463.9087,-3547.0929L13463.8887,-3547.0899L13463.871,-3547.0884L13463.8568,-3547.0891L13463.8433,-3547.0884L13463.8283,-3547.0881L13463.8271,-3547.088L13463.8136,-3547.0864L13463.7945,-3547.0784L13463.7948,-3547.064L13463.7957,-3547.0323L13463.7908,-3547.0149L13463.7835,-3547.0002L13463.7758,-3546.9893L13463.7647,-3546.9738L13463.7423,-3546.9407L13463.7374,-3546.9228L13463.7347,-3546.9076L13463.7344,-3546.8934L13463.7328,-3546.8665L13463.7307,-3546.8565L13463.7175,-3546.8398L13463.7043,-3546.8276L13463.6889,-3546.8157L13463.6788,-3546.8005L13463.673,-3546.786L13463.6687,-3546.7549L13463.661,-3546.7312L13463.6515,-3546.716L13463.6396,-3546.7066L13463.6044,-3546.6667L13463.6027,-3546.6648L13463.5901,-3546.6491L13463.5757,-3546.6371L13463.5625,-3546.6286L13463.5508,-3546.6182L13463.545,-3546.6084L13463.5432,-3546.5998L13463.5423,-3546.591L13463.5465,-3546.5781L13463.5567,-3546.5609L13463.5696,-3546.5469L13463.5776,-3546.536L13463.5932,-3546.5131L13463.6101,-3546.4904L13463.6184,-3546.4734L13463.6254,-3546.4593L13463.6303,-3546.4458L13463.6408,-3546.4244L13463.6512,-3546.4097L13463.661,-3546.3953L13463.665,-3546.3786L13463.6641,-3546.3649L13463.6613,-3546.3514L13463.6561,-3546.34L13463.627,-3546.3123L13463.6197,-3546.3019L13463.6122,-3546.2909L13463.607,-3546.275L13463.6067,-3546.2595L13463.6024,-3546.2286L13463.603,-3546.209L13463.6018,-3546.189L13463.5984,-3546.1741L13463.5975,-3546.1596L13463.5978,-3546.1417L13463.6018,-3546.1086L13463.6046,-3546.0862L13463.6076,-3546.0703L13463.6086,-3546.0571L13463.6095,-3546.0306L13463.6036,-3546.0045L13463.5993,-3545.9883L13463.5963,-3545.9716L13463.5917,-3545.9584L13463.5843,-3545.9452L13463.5769,-3545.9313L13463.5726,-3545.9103L13463.5674,-3545.8929L13463.5573,-3545.8765L13463.5459,-3545.8631L13463.5361,-3545.8454L13463.53,-3545.8396L13463.5169,-3545.8333L13463.5026,-3545.8264L13463.4882,-3545.8145L13463.4775,-3545.8013L13463.4692,-3545.7858L13463.4443,-3545.7487L13463.4143,-3545.7141L13463.3974,-3545.7024L13463.3786,-3545.6937L13463.3584,-3545.6879L13463.3394,-3545.6837L13463.3333,-3545.6833L13463.3209,-3545.6825L13463.301,-3545.6797L13463.2826,-3545.6715L13463.2771,-3545.669L13463.266,-3545.6603L13463.2608,-3545.6536L13463.2596,-3545.6471L13463.2617,-3545.6384L13463.2703,-3545.6202L13463.2725,-3545.6025L13463.2688,-3545.5868L13463.2605,-3545.5729L13463.255,-3545.5669L13463.2476,-3545.5604L13463.2363,-3545.5547L13463.2268,-3545.5513L13463.2237,-3545.5502L13463.2034,-3545.5473L13463.1816,-3545.5492L13463.1604,-3545.5505L13463.1408,-3545.548L13463.1307,-3545.5393L13463.1276,-3545.5328L13463.1257,-3545.5243L13463.127,-3545.5136L13463.1337,-3545.4977L13463.138,-3545.4775L13463.1433,-3545.4623L13463.1478,-3545.4476L13463.1592,-3545.4334L13463.1687,-3545.4209L13463.1727,-3545.4105L13463.1736,-3545.4013L13463.1672,-3545.3789L13463.1598,-3545.3644L13463.1524,-3545.3495L13463.1497,-3545.342L13463.1503,-3545.3318L13463.1506,-3545.3196L13463.1518,-3545.2972L13463.1494,-3545.2775L13463.1472,-3545.2633L13463.1399,-3545.2264L13463.1313,-3545.1978L13463.1165,-3545.1624L13463.1123,-3545.1281L13463.1172,-3545.1144L13463.1242,-3545.0965L13463.1359,-3545.0818L13463.1534,-3545.0751L13463.1727,-3545.0703L13463.1884,-3545.0658L13463.2099,-3545.0539L13463.227,-3545.0394L13463.2399,-3545.0235L13463.2485,-3545.0093L13463.2512,-3545L13463.2522,-3544.9963L13463.2611,-3544.9744L13463.27,-3544.9468L13463.2761,-3544.9296L13463.2801,-3544.9139L13463.2829,-3544.9014L13463.2851,-3544.8959L13463.2863,-3544.8793L13463.2829,-3544.8666L13463.2746,-3544.8556L13463.2629,-3544.8484L13463.2424,-3544.8464L13463.2206,-3544.8481L13463.2061,-3544.8418L13463.2034,-3544.8407L13463.1966,-3544.8364L13463.1856,-3544.819L13463.1561,-3544.7819L13463.1472,-3544.7684L13463.1341,-3544.7568L13463.1147,-3544.7284L13463.0981,-3544.7019L13463.0957,-3544.698L13463.0853,-3544.6843L13463.08,-3544.6671L13463.0825,-3544.6574L13463.0865,-3544.6469L13463.0923,-3544.6369L13463.111,-3544.6183L13463.1199,-3544.6036L13463.1249,-3544.5889L13463.127,-3544.5729L13463.127,-3544.557L13463.1285,-3544.5334L13463.1313,-3544.5216L13463.1344,-3544.5022L13463.143,-3544.4858L13463.1503,-3544.4743L13463.1531,-3544.4559L13463.1516,-3544.4459L13463.1411,-3544.4213L13463.1337,-3544.4071L13463.146,-3544.3911L13463.158,-3544.3754L13463.1767,-3544.3343L13463.1835,-3544.3104L13463.1869,-3544.2945L13463.1967,-3544.2805L13463.201,-3544.2761L13463.2074,-3544.2728L13463.2326,-3544.2634L13463.2532,-3544.2522L13463.2651,-3544.2419L13463.2722,-3544.2268L13463.2765,-3544.2083L13463.2823,-3544.1742L13463.2846,-3544.1667L13463.2872,-3544.1578L13463.2952,-3544.1356L13463.3124,-3544.1266L13463.3299,-3544.1192L13463.3333,-3544.1167L13463.3385,-3544.1129L13463.3489,-3544.103L13463.352,-3544.0948L13463.3538,-3544.0836L13463.3544,-3544.0711L13463.3526,-3544.0574L13463.3521,-3544.0535L13463.3504,-3544.0397L13463.348,-3544.021L13463.352,-3543.9752L13463.3498,-3543.951L13463.3483,-3543.9356L13463.3489,-3543.9219L13463.3504,-3543.9169L13463.3594,-3543.9042L13463.3683,-3543.8923L13463.3738,-3543.8798L13463.3753,-3543.8689L13463.3738,-3543.8509L13463.3716,-3543.8387L13463.3679,-3543.8198L13463.3652,-3543.7986L13463.3646,-3543.769L13463.3676,-3543.7496L13463.3723,-3543.7341L13463.3769,-3543.7204L13463.3821,-3543.7042L13463.3894,-3543.6923L13463.4002,-3543.6771L13463.4082,-3543.6569L13463.4131,-3543.6417L13463.4207,-3543.6265L13463.4343,-3543.6039L13463.4407,-3543.5904L13463.4444,-3543.5804L13463.4416,-3543.5578L13463.4499,-3543.5443L13463.464,-3543.5371L13463.4742,-3543.5341L13463.4852,-3543.5289L13463.4904,-3543.5214L13463.4935,-3543.5152L13463.4944,-3543.504L13463.4944,-3543.4903L13463.4981,-3543.4716L13463.5015,-3543.4567L13463.5046,-3543.4415L13463.5067,-3543.4308L13463.5113,-3543.4161L13463.5227,-3543.3926L13463.5313,-3543.3779L13463.5392,-3543.3638L13463.5481,-3543.3503L13463.5558,-3543.3384L13463.5578,-3543.3333L13463.561,-3543.3252L13463.5623,-3543.3142L13463.5623,-3543.3L13463.5616,-3543.2821L13463.5669,-3543.2674L13463.5751,-3543.2534L13463.5886,-3543.238L13463.6006,-3543.2251L13463.608,-3543.2193L13463.616,-3543.2163L13463.6199,-3543.2148L13463.6206,-3543.2147L13463.6393,-3543.2116L13463.6562,-3543.2071L13463.6813,-3543.1752L13463.6866,-3543.1698L13463.712,-3543.1424L13463.728,-3543.1336L13463.7427,-3543.1262L13463.759,-3543.116L13463.7848,-3543.1008L13463.8121,-3543.0821L13463.8324,-3543.0716L13463.8514,-3543.0704L13463.8683,-3543.0706L13463.8888,-3543.0704L13463.9118,-3543.0699L13463.9241,-3543.0679L13463.9349,-3543.0627L13463.9453,-3543.0512L13463.9536,-3543.0355L13463.9631,-3543.0228L13463.9831,-3542.9939L13464.0015,-3542.979L13464.0134,-3542.9673L13464.0282,-3542.9561L13464.0423,-3542.9466L13464.0851,-3542.9179L13464.0899,-3542.914L13464.1061,-3542.9006L13464.1209,-3542.8901L13464.1325,-3542.8804L13464.1595,-3542.8622L13464.1667,-3542.8566L13464.1819,-3542.8445L13464.1979,-3542.8308L13464.212,-3542.8206L13464.2231,-3542.8089L13464.2403,-3542.7908L13464.2596,-3542.7751L13464.2688,-3542.7701L13464.294,-3542.7698L13464.3115,-3542.7746L13464.3237,-3542.7823L13464.3345,-3542.788L13464.3483,-3542.798L13464.3541,-3542.8057L13464.3652,-3542.8122L13464.3793,-3542.8166L13464.4002,-3542.8211L13464.4176,-3542.8229L13464.4373,-3542.8164L13464.4499,-3542.8094L13464.4601,-3542.8011L13464.4658,-3542.7942L13464.4787,-3542.7803L13464.4901,-3542.7633L13464.4926,-3542.7588L13464.4971,-3542.7506L13464.5039,-3542.7382L13464.5134,-3542.7265L13464.5229,-3542.7178L13464.5475,-3542.6983L13464.5628,-3542.6857L13464.5785,-3542.6754L13464.5886,-3542.6623L13464.6095,-3542.6423L13464.635,-3542.6234L13464.6479,-3542.6114L13464.6598,-3542.5997L13464.6749,-3542.5818L13464.6825,-3542.5733L13464.6871,-3542.5626L13464.6881,-3542.5462L13464.6877,-3542.5337L13464.6853,-3542.518L13464.6871,-3542.5019L13464.6871,-3542.5L13464.6871,-3542.4852L13464.6905,-3542.474L13464.6988,-3542.4533L13464.7065,-3542.4354L13464.7184,-3542.4217L13464.7258,-3542.4089L13464.7286,-3542.3935L13464.7356,-3542.3793L13464.7541,-3542.3454L13464.7713,-3542.3275L13464.7887,-3542.3233L13464.8074,-3542.3203L13464.8151,-3542.3173L13464.8243,-3542.3104L13464.8341,-3542.2979L13464.8438,-3542.2832L13464.8438,-3541.9922L13456.0547,-3541.9922L13456.0547,-3550.7813Z"/>
</g>
</svg>
