<?xml version="1.0" encoding="UTF-8"?>
<svg  xmlns="http://www.w3.org/2000/svg" xmlns:xlink="http://www.w3.org/1999/xlink" xmlns:go="http://purl.org/svgmap/profile" property="geometry,N03_001,N03_002,N03_003,N03_004,N03_005,N03_007" viewBox="13579.1015625 -3462.890625 8.7890625 8.7890625" go:dataArea="13579.1015625 -3462.890625 8.7890625 8.7890625" >
<metadata>
 <rdf:RDF xmlns:rdf="http://www.w3.org/1999/02/22-rdf-syntax-ns#" xmlns:crs="http://opengis.org/xmldtds/transformations.dtd" xmlns:svg="http://www.w3.org/svg" >
  <rdf:Description>
   <crs:CoordinateReferenceSystem rdf:resource="http://purl.org/crs/84" svg:transform="matrix(100.0,0.0,0.0,-100.0,0.0,0.0)" />
  </rdf:Description>
 </rdf:RDF>
</metadata>
<globalCoordinateSystem srsName="http://purl.org/crs/84" transform="matrix(100.0,0.0,0.0,-100.0,0.0,0.0)" />
<defs>
 <g id="p0" >
  <circle cx="0.0" cy="0.0" r="3" stroke="green" stroke-width="2.0" vector-effect="non-scaling-stroke" />
 </g>
</defs>
<g fill="#0000ff" fill-rule="evenodd" opacity="0.5" >
<path content="奈良県,,,奈良市,,29201" xlink:title="奈良県" d="M13587.8906,-3462.8906L13587.8906,-3461.3104L13587.8827,-3461.3064L13587.8821,-3461.306L13587.8762,-3461.3021L13587.8675,-3461.2951L13587.858,-3461.2896L13587.8508,-3461.2865L13587.8457,-3461.2842L13587.8329,-3461.2781L13587.8306,-3461.2754L13587.822,-3461.272L13587.8192,-3461.2684L13587.8195,-3461.2633L13587.8206,-3461.2589L13587.8237,-3461.2547L13587.8248,-3461.2511L13587.8259,-3461.2471L13587.8271,-3461.243L13587.8268,-3461.2396L13587.8254,-3461.2357L13587.8237,-3461.2324L13587.8192,-3461.2287L13587.8147,-3461.2268L13587.8081,-3461.2248L13587.8011,-3461.2243L13587.7882,-3461.2246L13587.7701,-3461.2262L13587.7637,-3461.2273L13587.7463,-3461.2284L13587.7293,-3461.229L13587.7226,-3461.2293L13587.7179,-3461.2294L13587.7135,-3461.2286L13587.709,-3461.2272L13587.7037,-3461.2233L13587.699,-3461.2188L13587.6931,-3461.2141L13587.6889,-3461.2093L13587.6847,-3461.2043L13587.6808,-3461.1956L13587.6769,-3461.1889L13587.673,-3461.1814L13587.6696,-3461.1747L13587.6654,-3461.1666L13587.6632,-3461.1624L13587.6585,-3461.1549L13587.6521,-3461.1471L13587.6456,-3461.1429L13587.6417,-3461.1415L13587.6361,-3461.1407L13587.6241,-3461.1407L13587.6082,-3461.1418L13587.5839,-3461.146L13587.5694,-3461.1482L13587.5579,-3461.1499L13587.5487,-3461.1502L13587.5392,-3461.1521L13587.5258,-3461.1552L13587.5135,-3461.1577L13587.5052,-3461.1583L13587.5,-3461.1581L13587.4976,-3461.158L13587.4944,-3461.1573L13587.4902,-3461.1559L13587.488,-3461.1539L13587.4857,-3461.1511L13587.4854,-3461.1475L13587.4852,-3461.1394L13587.4857,-3461.1232L13587.4838,-3461.1132L13587.483,-3461.1113L13587.4813,-3461.1068L13587.4768,-3461.0976L13587.4712,-3461.0875L13587.4651,-3461.0797L13587.4623,-3461.075L13587.4626,-3461.0705L13587.467,-3461.0647L13587.4746,-3461.058L13587.4796,-3461.0538L13587.486,-3461.0474L13587.4885,-3461.0432L13587.4899,-3461.0387L13587.4907,-3461.0343L13587.491,-3461.0301L13587.4901,-3461.0255L13587.4862,-3461.023L13587.4812,-3461.0221L13587.4748,-3461.0232L13587.4647,-3461.0285L13587.4547,-3461.0349L13587.4466,-3461.0439L13587.4438,-3461.0486L13587.4402,-3461.0553L13587.4371,-3461.0609L13587.4332,-3461.0656L13587.4284,-3461.0695L13587.4239,-3461.0706L13587.4195,-3461.0709L13587.415,-3461.0692L13587.4139,-3461.0667L13587.4117,-3461.0623L13587.4111,-3461.0567L13587.4097,-3461.0492L13587.41,-3461.0369L13587.4106,-3461.0266L13587.4117,-3461.0179L13587.4148,-3461.0104L13587.4178,-3460.9984L13587.4184,-3460.9914L13587.4176,-3460.9859L13587.4167,-3460.9794L13587.4128,-3460.9752L13587.4086,-3460.9722L13587.4058,-3460.9694L13587.4042,-3460.9661L13587.4025,-3460.9607L13587.4022,-3460.9529L13587.4025,-3460.9474L13587.4033,-3460.9394L13587.4052,-3460.9302L13587.4069,-3460.9221L13587.4091,-3460.914L13587.4105,-3460.9084L13587.4116,-3460.9051L13587.413,-3460.9006L13587.4136,-3460.8956L13587.4125,-3460.8908L13587.4102,-3460.888L13587.4052,-3460.8866L13587.3979,-3460.8858L13587.3915,-3460.8858L13587.3817,-3460.8864L13587.3767,-3460.8891L13587.3736,-3460.8928L13587.3689,-3460.9037L13587.3636,-3460.9212L13587.3622,-3460.9338L13587.3594,-3460.9466L13587.3583,-3460.9539L13587.3546,-3460.9635L13587.3541,-3460.9671L13587.3527,-3460.973L13587.3522,-3460.9792L13587.3521,-3460.9799L13587.3505,-3460.9866L13587.3491,-3460.9897L13587.3435,-3460.9975L13587.3401,-3460.9997L13587.3357,-3461.0011L13587.3317,-3461.0014L13587.3259,-3461.0009L13587.3211,-3460.9986L13587.3169,-3460.9947L13587.315,-3460.9894L13587.313,-3460.9799L13587.3116,-3460.9702L13587.3119,-3460.9626L13587.3125,-3460.9565L13587.313,-3460.9523L13587.3133,-3460.9462L13587.3144,-3460.9336L13587.3144,-3460.93L13587.315,-3460.9183L13587.3141,-3460.9099L13587.3133,-3460.9041L13587.3139,-3460.8982L13587.3139,-3460.889L13587.3158,-3460.8767L13587.3175,-3460.8664L13587.3189,-3460.8575L13587.3206,-3460.85L13587.3214,-3460.8382L13587.3227,-3460.8333L13587.3234,-3460.831L13587.3236,-3460.8257L13587.3242,-3460.8215L13587.3242,-3460.8154L13587.3245,-3460.8101L13587.3247,-3460.8059L13587.3239,-3460.8028L13587.3211,-3460.7995L13587.3192,-3460.7978L13587.3164,-3460.7972L13587.3125,-3460.7969L13587.308,-3460.8003L13587.2979,-3460.8117L13587.2918,-3460.8207L13587.2871,-3460.8249L13587.282,-3460.8285L13587.2762,-3460.8313L13587.2711,-3460.8318L13587.2664,-3460.8318L13587.2627,-3460.8296L13587.26,-3460.8257L13587.2597,-3460.8218L13587.2614,-3460.8168L13587.2633,-3460.8123L13587.2667,-3460.8056L13587.2681,-3460.8028L13587.273,-3460.792L13587.2764,-3460.7794L13587.2783,-3460.7727L13587.2806,-3460.7683L13587.2817,-3460.7644L13587.2834,-3460.7591L13587.2839,-3460.7546L13587.2842,-3460.7504L13587.285,-3460.7462L13587.2853,-3460.7421L13587.2853,-3460.7373L13587.2847,-3460.7322L13587.2842,-3460.7278L13587.282,-3460.7236L13587.2789,-3460.7198L13587.2739,-3460.7167L13587.2674,-3460.7161L13587.2638,-3460.7172L13587.2582,-3460.7234L13587.2524,-3460.734L13587.2479,-3460.7421L13587.2446,-3460.7502L13587.2337,-3460.7778L13587.2303,-3460.7887L13587.2272,-3460.7995L13587.225,-3460.8104L13587.2233,-3460.8239L13587.2227,-3460.8315L13587.2224,-3460.8333L13587.2216,-3460.8371L13587.2194,-3460.8407L13587.2159,-3460.8472L13587.2102,-3460.8496L13587.2054,-3460.8536L13587.1944,-3460.8662L13587.1859,-3460.886L13587.1848,-3460.8886L13587.1801,-3460.9087L13587.1673,-3460.9218L13587.1562,-3460.9392L13587.1411,-3460.9535L13587.1181,-3460.9725L13587.0975,-3460.9796L13587.0817,-3460.9796L13587.0793,-3460.9772L13587.0753,-3460.963L13587.0881,-3460.9146L13587.0896,-3460.9091L13587.1039,-3460.8756L13587.1031,-3460.8614L13587.1097,-3460.8349L13587.1096,-3460.8333L13587.1093,-3460.8287L13587.1074,-3460.823L13587.1024,-3460.82L13587.0967,-3460.8178L13587.0928,-3460.8107L13587.0825,-3460.7941L13587.0619,-3460.7925L13587.0533,-3460.8069L13587.0533,-3460.8287L13587.0524,-3460.8333L13587.0507,-3460.8416L13587.0476,-3460.8598L13587.0444,-3460.886L13587.0403,-3460.9027L13587.0316,-3460.9233L13587.0253,-3460.9329L13587.0157,-3460.9416L13587.0038,-3460.9487L13586.9848,-3460.9519L13586.9634,-3460.9503L13586.9269,-3460.9384L13586.9134,-3460.9281L13586.9126,-3460.9209L13586.9118,-3460.9067L13586.9094,-3460.8932L13586.9007,-3460.8774L13586.8864,-3460.8694L13586.8713,-3460.8687L13586.8642,-3460.871L13586.8553,-3460.8751L13586.8446,-3460.8867L13586.8411,-3460.8933L13586.834,-3460.9076L13586.8133,-3460.9663L13586.8014,-3460.9964L13586.7986,-3460.9993L13586.7949,-3461.0012L13586.7879,-3461.0019L13586.7745,-3460.9893L13586.7586,-3460.9726L13586.7483,-3460.9592L13586.7344,-3460.9594L13586.7327,-3460.9594L13586.7297,-3460.9617L13586.7289,-3460.9731L13586.7323,-3460.9869L13586.738,-3460.9987L13586.7483,-3461.01L13586.7697,-3461.0274L13586.784,-3461.0393L13586.7991,-3461.0545L13586.8099,-3461.0622L13586.8163,-3461.0712L13586.8263,-3461.0847L13586.8356,-3461.0925L13586.8516,-3461.1132L13586.8658,-3461.1227L13586.8857,-3461.1339L13586.9063,-3461.1537L13586.9144,-3461.1653L13586.9182,-3461.1751L13586.9222,-3461.1949L13586.9246,-3461.214L13586.9413,-3461.2243L13586.9686,-3461.2397L13586.9733,-3461.2466L13586.9777,-3461.2538L13586.9818,-3461.263L13586.9896,-3461.2791L13586.9912,-3461.2997L13586.9896,-3461.3107L13586.9844,-3461.3467L13586.9841,-3461.3489L13586.9832,-3461.3726L13586.9825,-3461.3932L13586.9777,-3461.4107L13586.9728,-3461.4354L13586.965,-3461.4758L13586.957,-3461.4972L13586.9442,-3461.5233L13586.9276,-3461.5696L13586.9169,-3461.5874L13586.908,-3461.602L13586.8916,-3461.6227L13586.8607,-3461.6667L13586.8586,-3461.6696L13586.8609,-3461.7164L13586.8609,-3461.7283L13586.8521,-3461.757L13586.8506,-3461.7617L13586.8317,-3461.8145L13586.8261,-3461.8326L13586.8187,-3461.8454L13586.8117,-3461.8562L13586.807,-3461.8689L13586.8022,-3461.8855L13586.8014,-3461.895L13586.8022,-3461.9014L13586.8038,-3461.9132L13586.8268,-3461.9616L13586.8593,-3462.0021L13586.8704,-3462.0236L13586.8744,-3462.0379L13586.8696,-3462.0577L13586.8593,-3462.0593L13586.8355,-3462.0617L13586.8188,-3462.0641L13586.7983,-3462.0704L13586.78,-3462.0783L13586.7649,-3462.0823L13586.7156,-3462.0902L13586.6854,-3462.087L13586.6667,-3462.0852L13586.6608,-3462.0846L13586.6431,-3462.0838L13586.6243,-3462.0772L13586.5676,-3462.0648L13586.5088,-3462.0497L13586.4573,-3462.0283L13586.4359,-3462.0212L13586.4183,-3462.0141L13586.4049,-3462.0037L13586.3525,-3461.9759L13586.3152,-3461.9569L13586.308,-3461.9489L13586.2536,-3461.9164L13586.2295,-3461.9046L13586.2257,-3461.9012L13586.2033,-3461.8815L13586.1971,-3461.8764L13586.1739,-3461.8665L13586.1651,-3461.8653L13586.1581,-3461.8673L13586.1517,-3461.8712L13586.1374,-3461.8911L13586.1078,-3461.9117L13586.0199,-3461.9371L13586.0008,-3461.9434L13585.9817,-3461.9442L13585.9555,-3461.9386L13585.9286,-3461.9331L13585.9072,-3461.9259L13585.8865,-3461.9299L13585.8697,-3461.9347L13585.8523,-3461.9418L13585.8427,-3461.9426L13585.8333,-3461.9426L13585.8324,-3461.9426L13585.8102,-3461.9394L13585.7833,-3461.9386L13585.7619,-3461.9394L13585.7531,-3461.9347L13585.728,-3461.9367L13585.7038,-3461.9387L13585.6668,-3461.9447L13585.6103,-3461.9537L13585.5904,-3461.9522L13585.5706,-3461.949L13585.5524,-3461.949L13585.5294,-3461.9529L13585.5067,-3461.9612L13585.4769,-3461.9721L13585.4626,-3461.98L13585.457,-3461.9855L13585.4531,-3461.995L13585.4483,-3462.0037L13585.438,-3462.0141L13585.3983,-3462.0618L13585.3776,-3462.0856L13585.3697,-3462.0904L13585.3618,-3462.0943L13585.3539,-3462.1006L13585.3116,-3462.1394L13585.2952,-3462.1554L13585.2947,-3462.1559L13585.2888,-3462.1616L13585.2482,-3462.2025L13585.2198,-3462.2341L13585.1857,-3462.2769L13585.1682,-3462.3054L13585.1659,-3462.3189L13585.1674,-3462.3371L13585.1769,-3462.3513L13585.1896,-3462.364L13585.1988,-3462.3719L13585.2116,-3462.3802L13585.2238,-3462.3823L13585.2373,-3462.3834L13585.238,-3462.3835L13585.2561,-3462.3851L13585.2804,-3462.3872L13585.2995,-3462.3875L13585.3636,-3462.395L13585.366,-3462.3953L13585.3796,-3462.3969L13585.3916,-3462.4024L13585.395,-3462.4039L13585.4035,-3462.4096L13585.4117,-3462.4216L13585.4137,-3462.4272L13585.4138,-3462.4346L13585.4127,-3462.4399L13585.4103,-3462.4444L13585.4059,-3462.453L13585.3967,-3462.4614L13585.3831,-3462.4751L13585.3729,-3462.4909L13585.3587,-3462.5L13585.3571,-3462.501L13585.3512,-3462.5281L13585.3435,-3462.5634L13585.3394,-3462.5909L13585.339,-3462.5938L13585.3331,-3462.6275L13585.3311,-3462.6391L13585.3243,-3462.6594L13585.3164,-3462.6718L13585.2915,-3462.6888L13585.2802,-3462.6944L13585.2599,-3462.6944L13585.2452,-3462.6933L13585.2283,-3462.691L13585.1989,-3462.6807L13585.1737,-3462.6788L13585.1551,-3462.6732L13585.1382,-3462.669L13585.1189,-3462.6651L13585.0911,-3462.6629L13585.0677,-3462.6628L13585.0417,-3462.6639L13585.0236,-3462.6651L13585,-3462.6618L13584.9987,-3462.6617L13584.975,-3462.6606L13584.9592,-3462.6583L13584.9411,-3462.6526L13584.8822,-3462.6481L13584.8713,-3462.649L13584.8628,-3462.6524L13584.8551,-3462.656L13584.8303,-3462.6696L13584.8043,-3462.6809L13584.7624,-3462.6922L13584.7308,-3462.6956L13584.715,-3462.6956L13584.6969,-3462.6944L13584.6753,-3462.6921L13584.6538,-3462.6899L13584.6414,-3462.6842L13584.6295,-3462.681L13584.6165,-3462.6774L13584.5939,-3462.6628L13584.5826,-3462.6594L13584.5702,-3462.6639L13584.5713,-3462.6819L13584.5739,-3462.6999L13584.5749,-3462.7356L13584.5733,-3462.7555L13584.5712,-3462.7634L13584.5668,-3462.7803L13584.5613,-3462.8103L13584.5613,-3462.8171L13584.5662,-3462.8175L13584.5876,-3462.8132L13584.6182,-3462.8069L13584.6301,-3462.8029L13584.6369,-3462.8006L13584.6583,-3462.8062L13584.6742,-3462.8131L13584.7024,-3462.83L13584.7115,-3462.8412L13584.7183,-3462.8571L13584.7545,-3462.889L13584.7562,-3462.8906Z"/>
<path content="奈良県,,,大和郡山市,,29203" xlink:title="奈良県" d="M13579.1016,-3462.8906L13582.3694,-3462.8906L13582.3692,-3462.8853L13582.3664,-3462.8377L13582.3653,-3462.7852L13582.367,-3462.7547L13582.3681,-3462.736L13582.3681,-3462.6354L13582.3725,-3462.5829L13582.375,-3462.5697L13582.3866,-3462.5449L13582.3893,-3462.5392L13582.3893,-3462.5208L13582.3837,-3462.513L13582.3736,-3462.5041L13582.3654,-3462.5L13582.3613,-3462.498L13582.3451,-3462.4935L13582.2887,-3462.4791L13582.2575,-3462.4762L13582.2244,-3462.4751L13582.2065,-3462.4763L13582.1679,-3462.479L13582.1055,-3462.4824L13582.0894,-3462.4854L13582.0517,-3462.4851L13581.9786,-3462.489L13581.9254,-3462.4941L13581.8594,-3462.4982L13581.826,-3462.5L13581.7884,-3462.502L13581.7553,-3462.5L13581.7383,-3462.499L13581.7111,-3462.4937L13581.6914,-3462.4891L13581.6667,-3462.482L13581.6475,-3462.4766L13581.6255,-3462.4702L13581.5862,-3462.4491L13581.559,-3462.4317L13581.5401,-3462.4203L13581.5037,-3462.3966L13581.4827,-3462.3798L13581.4692,-3462.3649L13581.4493,-3462.3549L13581.4076,-3462.3209L13581.3803,-3462.3036L13581.3531,-3462.3021L13581.3282,-3462.3005L13581.3264,-3462.2455L13581.3271,-3462.1937L13581.3272,-3462.1812L13581.3274,-3462.1643L13581.3267,-3462.0621L13581.3267,-3462.0237L13581.3267,-3461.9909L13581.3274,-3461.9464L13581.3641,-3461.945L13581.3804,-3461.9471L13581.3812,-3461.9316L13581.3827,-3461.9038L13581.3821,-3461.8524L13581.3794,-3461.8409L13581.409,-3461.8324L13581.4273,-3461.832L13581.4277,-3461.786L13581.4259,-3461.7714L13581.4288,-3461.742L13581.4301,-3461.6667L13581.4304,-3461.6504L13581.623,-3461.647L13581.6667,-3461.646L13581.6888,-3461.6456L13581.6881,-3461.6361L13581.6874,-3461.6256L13581.6893,-3461.5611L13581.6899,-3461.5421L13581.8733,-3461.543L13581.8957,-3461.5411L13581.9068,-3461.543L13581.9977,-3461.544L13582.0202,-3461.5414L13582.0389,-3461.5436L13582.0519,-3461.5439L13582.1329,-3461.5439L13582.1349,-3461.5226L13582.132,-3461.4889L13582.1333,-3461.4519L13582.1354,-3461.3884L13582.1354,-3461.3506L13582.0876,-3461.3484L13582.0638,-3461.3464L13582.0458,-3461.3487L13581.9884,-3461.3489L13581.8388,-3461.3481L13581.8189,-3461.346L13581.8002,-3461.3475L13581.7512,-3461.3472L13581.7328,-3461.347L13581.6754,-3461.3463L13581.6745,-3461.2543L13581.6737,-3461.1632L13581.6667,-3461.1632L13581.6298,-3461.1632L13581.5917,-3461.1649L13581.5183,-3461.1708L13581.4964,-3461.1699L13581.455,-3461.1707L13581.428,-3461.1826L13581.4078,-3461.1842L13581.3876,-3461.1826L13581.3626,-3461.1739L13581.3429,-3461.1606L13581.3252,-3461.1623L13581.3059,-3461.1588L13581.2914,-3461.1547L13581.2847,-3461.152L13581.2821,-3461.1458L13581.2796,-3461.1312L13581.2737,-3461.089L13581.2661,-3461.0513L13581.2635,-3461.0387L13581.2322,-3461.0384L13581.2131,-3461.0353L13581.1911,-3461.0351L13581.1745,-3461.0382L13581.1115,-3461.0367L13580.9921,-3461.0361L13580.9838,-3461.036L13580.9832,-3461.0359L13580.868,-3461.0343L13580.8333,-3461.0343L13580.8264,-3461.0343L13580.7986,-3461.0343L13580.7303,-3461.0334L13580.7117,-3461.0326L13580.7108,-3461.0474L13580.7102,-3461.0561L13580.7081,-3461.0886L13580.7087,-3461.1374L13580.7098,-3461.2252L13580.7106,-3461.2468L13580.7116,-3461.2774L13580.6868,-3461.2774L13580.685,-3461.2925L13580.661,-3461.2907L13580.6433,-3461.296L13580.6051,-3461.2898L13580.6051,-3461.2671L13580.6007,-3461.242L13580.5899,-3461.2428L13580.5785,-3461.2437L13580.5298,-3461.2455L13580.4712,-3461.2455L13580.4615,-3461.2461L13580.426,-3461.2482L13580.3796,-3461.2446L13580.3034,-3461.2331L13580.2508,-3461.2264L13580.2367,-3461.2232L13580.2297,-3461.2179L13580.2226,-3461.1914L13580.1388,-3461.1926L13580,-3461.1977L13579.981,-3461.1984L13579.919,-3461.2002L13579.8697,-3461.2018L13579.8431,-3461.2027L13579.8233,-3461.2033L13579.8047,-3461.2039L13579.796,-3461.2042L13579.7866,-3461.2045L13579.7548,-3461.2055L13579.6946,-3461.2091L13579.6861,-3461.2102L13579.6786,-3461.2126L13579.6715,-3461.2161L13579.6653,-3461.2197L13579.6529,-3461.2232L13579.6369,-3461.2277L13579.5836,-3461.2323L13579.5172,-3461.2299L13579.5002,-3461.2303L13579.4898,-3461.2041L13579.4934,-3461.1526L13579.4966,-3461.1394L13579.4987,-3461.1231L13579.4963,-3461.1045L13579.4984,-3461.066L13579.5017,-3461.0401L13579.5031,-3461.0284L13579.5042,-3461.0204L13579.5102,-3460.9615L13579.5108,-3460.9551L13579.5117,-3460.9161L13579.5113,-3460.889L13579.5081,-3460.8707L13579.505,-3460.8333L13579.5037,-3460.8176L13579.5073,-3460.8056L13579.5067,-3460.7869L13579.5037,-3460.7717L13579.5031,-3460.7466L13579.5028,-3460.7332L13579.5031,-3460.7277L13579.5046,-3460.7036L13579.5067,-3460.6917L13579.5076,-3460.6818L13579.5085,-3460.671L13579.5052,-3460.6568L13579.5063,-3460.6206L13579.5126,-3460.522L13579.518,-3460.4769L13579.5142,-3460.4505L13579.5126,-3460.4395L13579.5134,-3460.4127L13579.5143,-3460.3481L13579.5179,-3460.2929L13579.5186,-3460.2306L13579.5187,-3460.2174L13579.5169,-3460.1581L13579.505,-3460.1569L13579.4806,-3460.1545L13579.4442,-3460.1527L13579.3684,-3460.1495L13579.3561,-3460.1461L13579.335,-3460.1461L13579.3137,-3460.1469L13579.1667,-3460.1452L13579.1265,-3460.1447L13579.1257,-3460.1325L13579.1237,-3460.0985L13579.1237,-3460L13579.1237,-3459.9786L13579.1248,-3459.9616L13579.1254,-3459.9521L13579.1201,-3459.9521L13579.1016,-3459.9512Z"/>
<path content="奈良県,,,天理市,,29204" xlink:title="奈良県" d="M13587.8906,-3455.9739L13587.8893,-3455.9751L13587.8801,-3455.9809L13587.8593,-3455.9821L13587.8406,-3455.9812L13587.8211,-3455.9808L13587.8062,-3455.9821L13587.7915,-3455.9886L13587.7798,-3455.9977L13587.7689,-3456.0051L13587.7616,-3456.0133L13587.7572,-3456.0225L13587.7524,-3456.0355L13587.7485,-3456.0459L13587.7348,-3456.0584L13587.7063,-3456.072L13587.699,-3456.073L13587.6988,-3456.0731L13587.6822,-3456.0754L13587.6701,-3456.0799L13587.6534,-3456.0865L13587.639,-3456.0989L13587.6249,-3456.1076L13587.6045,-3456.113L13587.5632,-3456.1282L13587.5472,-3456.1289L13587.5308,-3456.1316L13587.5073,-3456.132L13587.5,-3456.1323L13587.4813,-3456.1329L13587.4658,-3456.1319L13587.4487,-3456.1264L13587.441,-3456.1217L13587.4164,-3456.1051L13587.4074,-3456.1012L13587.3969,-3456.0967L13587.3822,-3456.0821L13587.3752,-3456.07L13587.3723,-3456.0603L13587.3713,-3456.0431L13587.3713,-3456.0372L13587.3763,-3456.0274L13587.3783,-3456.0235L13587.39,-3456.0014L13587.3951,-3455.9811L13587.3969,-3455.9682L13587.3971,-3455.9555L13587.3949,-3455.9466L13587.3907,-3455.9349L13587.3856,-3455.9234L13587.3551,-3455.8934L13587.3202,-3455.8616L13587.3125,-3455.8556L13587.2946,-3455.8449L13587.275,-3455.8345L13587.2732,-3455.8333L13587.2476,-3455.8159L13587.2389,-3455.8052L13587.2343,-3455.797L13587.2326,-3455.7908L13587.2297,-3455.7677L13587.2298,-3455.7546L13587.2324,-3455.7403L13587.2423,-3455.7177L13587.2524,-3455.7019L13587.2855,-3455.6661L13587.2934,-3455.6489L13587.2991,-3455.6432L13587.2978,-3455.6294L13587.2959,-3455.6184L13587.2904,-3455.6074L13587.2803,-3455.5951L13587.2776,-3455.5924L13587.2716,-3455.5736L13587.2733,-3455.5546L13587.2732,-3455.5501L13587.2725,-3455.5271L13587.2716,-3455.5165L13587.2691,-3455.5075L13587.2596,-3455.4944L13587.2485,-3455.4827L13587.241,-3455.4681L13587.2333,-3455.4617L13587.2504,-3455.4445L13587.25,-3455.4341L13587.2509,-3455.3762L13587.2512,-3455.3637L13587.2467,-3455.3479L13587.24,-3455.3278L13587.23,-3455.3149L13587.216,-3455.3026L13587.2063,-3455.2966L13587.1977,-3455.2894L13587.1774,-3455.2686L13587.1574,-3455.2594L13587.1341,-3455.2511L13587.1002,-3455.2438L13587.0844,-3455.2366L13587.0691,-3455.2313L13587.0469,-3455.223L13587.0341,-3455.2116L13587.0263,-3455.1972L13587.0188,-3455.1749L13586.9985,-3455.1486L13586.9777,-3455.1333L13586.9546,-3455.1241L13586.9288,-3455.1174L13586.9101,-3455.1076L13586.8858,-3455.0888L13586.8511,-3455.0641L13586.8297,-3455.0447L13586.8267,-3455.041L13586.8091,-3455.0189L13586.798,-3455L13586.7861,-3454.9797L13586.7752,-3454.9511L13586.7638,-3454.9119L13586.7511,-3454.8922L13586.7455,-3454.8872L13586.738,-3454.8844L13586.7291,-3454.8847L13586.7194,-3454.8877L13586.6733,-3454.9072L13586.6667,-3454.9098L13586.6108,-3454.9316L13586.5847,-3454.9402L13586.5597,-3454.95L13586.5091,-3454.9452L13586.4355,-3454.9405L13586.4116,-3454.9372L13586.3915,-3454.9302L13586.3908,-3454.93L13586.3614,-3454.9122L13586.3286,-3454.8964L13586.3061,-3454.8847L13586.29,-3454.8775L13586.2161,-3454.8483L13586.1878,-3454.8364L13586.1689,-3454.8344L13586.1536,-3454.8361L13586.1192,-3454.8425L13586.0575,-3454.8577L13586.0303,-3454.8652L13586.0078,-3454.87L13585.9614,-3454.8727L13585.9478,-3454.8791L13585.9308,-3454.8883L13585.8925,-3454.908L13585.8799,-3454.9157L13585.8344,-3454.9433L13585.8333,-3454.9438L13585.777,-3454.9691L13585.7047,-3454.9994L13585.7029,-3455L13585.6595,-3455.0147L13585.5839,-3455.0313L13585.5478,-3455.0344L13585.4825,-3455.0413L13585.4323,-3455.0461L13585.3722,-3455.048L13585.3645,-3455.0483L13585.3431,-3455.0486L13585.3264,-3455.0472L13585.2826,-3455.0461L13585.2414,-3455.0427L13585.1998,-3455.0333L13585.1703,-3455.0288L13585.1228,-3455.0127L13585.0885,-3455L13585.0726,-3454.9941L13585.0443,-3454.9816L13585.0148,-3454.9627L13585,-3454.9492L13584.987,-3454.9374L13584.9715,-3454.9188L13584.9465,-3454.9005L13584.9304,-3454.8905L13584.9112,-3454.8855L13584.8698,-3454.8811L13584.8095,-3454.8777L13584.7483,-3454.8759L13584.7348,-3454.8755L13584.6523,-3454.8741L13584.6363,-3454.8763L13584.5958,-3454.8818L13584.5468,-3454.8863L13584.5254,-3454.8861L13584.5015,-3454.8891L13584.4773,-3454.8897L13584.4046,-3454.8952L13584.3873,-3454.8986L13584.3693,-3454.9038L13584.351,-3454.9124L13584.3381,-3454.9219L13584.3318,-3454.9266L13584.3096,-3454.9469L13584.2765,-3454.9705L13584.1726,-3454.9771L13584.1667,-3454.9788L13584.1337,-3454.9877L13584.1336,-3455L13584.1335,-3455.0094L13584.1221,-3455.0652L13584.0751,-3455.0663L13584.0363,-3455.0644L13583.9138,-3455.0669L13583.821,-3455.0707L13583.8174,-3455.0801L13583.8099,-3455.0993L13583.8071,-3455.1835L13583.8047,-3455.2323L13583.8036,-3455.2472L13583.8031,-3455.2492L13583.7998,-3455.25L13583.7924,-3455.2495L13583.7684,-3455.2477L13583.7551,-3455.2482L13583.7464,-3455.2495L13583.7312,-3455.2512L13583.704,-3455.2507L13583.6782,-3455.2502L13583.6453,-3455.25L13583.616,-3455.2484L13583.579,-3455.2497L13583.5455,-3455.2489L13583.5374,-3455.2487L13583.5267,-3455.2477L13583.5151,-3455.2466L13583.494,-3455.2466L13583.4235,-3455.2478L13583.4146,-3455.2479L13583.3622,-3455.2475L13583.3333,-3455.2473L13583.3187,-3455.2471L13583.2676,-3455.2453L13583.2575,-3455.2436L13583.2475,-3455.2412L13583.23,-3455.2389L13583.2246,-3455.2387L13583.2193,-3455.2394L13583.2061,-3455.2407L13583.1688,-3455.2417L13583.1691,-3455.2019L13583.1694,-3455.1888L13583.1683,-3455.1829L13583.1663,-3455.1752L13583.1655,-3455.1684L13583.1665,-3455.1447L13583.1674,-3455.1245L13583.1693,-3455.0794L13583.1695,-3455.0698L13583.1696,-3455.0647L13583.1698,-3455.0523L13583.1706,-3455.0055L13583.1705,-3455L13583.1703,-3454.9599L13583.1699,-3454.9057L13583.1677,-3454.8595L13583.1674,-3454.8546L13583.0675,-3454.8549L13582.9183,-3454.8521L13582.8966,-3454.8521L13582.8741,-3454.8541L13582.7908,-3454.853L13582.7675,-3454.8543L13582.71,-3454.8557L13582.6756,-3454.8565L13582.6153,-3454.8549L13582.6153,-3454.8629L13582.6156,-3454.9104L13582.6108,-3454.9571L13582.6105,-3454.9644L13582.6087,-3455L13582.6069,-3455.0338L13582.6047,-3455.1049L13582.6028,-3455.129L13582.5931,-3455.1415L13582.5633,-3455.1443L13582.5244,-3455.1501L13582.5148,-3455.1514L13582.5,-3455.1536L13582.4842,-3455.156L13582.4653,-3455.1604L13582.4636,-3455.1796L13582.455,-3455.2779L13582.4525,-3455.3498L13582.3828,-3455.3501L13582.2456,-3455.3476L13582.2484,-3455.3918L13582.2537,-3455.4065L13582.2313,-3455.4234L13582.2267,-3455.4268L13582.2266,-3455.4269L13582.2156,-3455.444L13582.1669,-3455.4435L13582.1525,-3455.4434L13582.1422,-3455.4432L13582.1339,-3455.4432L13582.1214,-3455.4543L13582.1162,-3455.5356L13582.1156,-3455.5442L13582.1098,-3455.6399L13582.1076,-3455.6773L13582.097,-3455.8234L13582.0965,-3455.8333L13582.092,-3455.9206L13582.0839,-3456.0603L13581.9786,-3456.0601L13581.9623,-3456.06L13581.7887,-3456.0577L13581.7731,-3456.0575L13581.7523,-3456.0572L13581.6667,-3456.0571L13581.624,-3456.057L13581.6009,-3456.0567L13581.5832,-3456.0584L13581.5125,-3456.0592L13581.4926,-3456.0595L13581.4104,-3456.0556L13581.4043,-3456.0761L13581.3451,-3456.077L13581.3307,-3456.0942L13581.3154,-3456.1331L13581.3565,-3456.132L13581.3743,-3456.1417L13581.3735,-3456.175L13581.3707,-3456.3147L13581.3513,-3456.3172L13581.2912,-3456.3187L13581.2661,-3456.3193L13581.251,-3456.3197L13581.2497,-3456.3351L13581.249,-3456.3434L13581.2483,-3456.3521L13581.2449,-3456.3939L13581.244,-3456.4047L13581.2396,-3456.4127L13581.2335,-3456.418L13581.1689,-3456.4167L13581.1518,-3456.4164L13581.1543,-3456.4569L13581.1526,-3456.4891L13581.1536,-3456.5309L13581.154,-3456.5508L13581.1526,-3456.6619L13581.1528,-3456.6667L13581.1537,-3456.708L13581.1538,-3456.7226L13581.1543,-3456.798L13581.1532,-3456.9055L13581.2863,-3456.9052L13581.2863,-3457.0255L13581.2801,-3457.0471L13581.2793,-3457.0641L13581.2895,-3457.0746L13581.2926,-3457.0777L13581.3021,-3457.0874L13581.3076,-3457.0996L13581.3071,-3457.1071L13581.304,-3457.1216L13581.3021,-3457.1349L13581.2984,-3457.1563L13581.2998,-3457.1763L13581.2986,-3457.187L13581.2979,-3457.1932L13581.2934,-3457.2332L13581.2904,-3457.2488L13581.2843,-3457.2779L13581.2712,-3457.2999L13581.2653,-3457.3156L13581.254,-3457.3452L13581.2562,-3457.3643L13581.249,-3457.3902L13581.2126,-3457.3963L13581.1785,-3457.3991L13581.1382,-3457.3985L13581.109,-3457.3946L13581.0437,-3457.3999L13580.989,-3457.3999L13580.9674,-3457.4037L13580.9399,-3457.4082L13580.9389,-3457.4087L13580.9273,-3457.4146L13580.926,-3457.4152L13580.9099,-3457.4235L13580.9029,-3457.4346L13580.9004,-3457.442L13580.8812,-3457.5L13580.8615,-3457.5596L13580.839,-3457.6182L13580.8349,-3457.6318L13580.8333,-3457.6427L13580.8329,-3457.6457L13580.8196,-3457.6721L13580.8104,-3457.6901L13580.7866,-3457.7251L13580.7641,-3457.7473L13580.7639,-3457.7489L13580.762,-3457.7686L13580.7619,-3457.7694L13580.7599,-3457.7909L13580.7592,-3457.7953L13580.7568,-3457.8107L13580.7571,-3457.8261L13580.7571,-3457.8273L13580.7582,-3457.8979L13580.7537,-3457.9695L13580.7551,-3458.0042L13580.7544,-3458.0933L13580.7543,-3458.1065L13580.7521,-3458.1703L13580.7532,-3458.1889L13580.7518,-3458.2081L13580.7521,-3458.2842L13580.8333,-3458.2882L13580.8546,-3458.2892L13580.8568,-3458.3333L13580.8587,-3458.3709L13580.859,-3458.3875L13580.8593,-3458.4053L13580.8333,-3458.4046L13580.8093,-3458.4039L13580.7518,-3458.4075L13580.7535,-3458.5053L13580.7537,-3458.5326L13580.7537,-3458.5356L13580.7543,-3458.6095L13580.7546,-3458.6603L13580.7526,-3458.6771L13580.7501,-3458.6979L13580.7494,-3458.7304L13580.7483,-3458.7716L13580.747,-3458.7823L13580.7441,-3458.8081L13580.7427,-3458.8363L13580.7434,-3458.8875L13580.7437,-3458.9149L13580.7425,-3458.9477L13580.581,-3458.9439L13580.5697,-3458.9507L13580.5435,-3458.9666L13580.5352,-3458.9715L13580.5148,-3458.9702L13580.5135,-3458.9436L13580.5126,-3458.924L13580.5108,-3458.8876L13580.5119,-3458.8327L13580.5123,-3458.8104L13580.5112,-3458.7815L13580.5092,-3458.7302L13580.5126,-3458.6817L13580.5141,-3458.6603L13580.5132,-3458.6367L13580.5131,-3458.6124L13580.5121,-3458.5981L13580.5132,-3458.5339L13580.511,-3458.5106L13580.5102,-3458.4403L13580.5099,-3458.4047L13580.4063,-3458.4034L13580.405,-3458.3937L13580.4027,-3458.3761L13580.4042,-3458.3333L13580.4046,-3458.3228L13580.391,-3458.3136L13580.3704,-3458.3125L13580.3299,-3458.3114L13580.3104,-3458.3109L13580.2994,-3458.3106L13580.2896,-3458.3103L13580.271,-3458.3097L13580.2574,-3458.3093L13580.2535,-3458.3092L13580.2364,-3458.3195L13580.2299,-3458.3234L13580.216,-3458.3333L13580.2121,-3458.3361L13580.1599,-3458.3617L13580.1465,-3458.364L13580.1374,-3458.3656L13580.1282,-3458.3677L13580.1157,-3458.3706L13580.0969,-3458.3711L13580.0834,-3458.3678L13580.0791,-3458.3667L13580.0562,-3458.3657L13580.0421,-3458.365L13580.0253,-3458.3632L13580.0119,-3458.3617L13580,-3458.3623L13579.9908,-3458.3628L13579.9455,-3458.375L13579.9372,-3458.3759L13579.9367,-3458.3723L13579.9349,-3458.3592L13579.9317,-3458.3462L13579.9286,-3458.3333L13579.9255,-3458.3206L13579.9238,-3458.2936L13579.9602,-3458.2892L13579.9791,-3458.2764L13579.9797,-3458.2597L13579.9793,-3458.2573L13579.9688,-3458.1864L13579.9671,-3458.1681L13579.9658,-3458.1551L13579.9794,-3458.1459L13579.9777,-3458.1331L13579.9619,-3458.0901L13579.9561,-3458.0628L13579.9352,-3457.9987L13579.9083,-3457.997L13579.9033,-3457.9817L13579.9033,-3457.962L13579.9019,-3457.9267L13579.9007,-3457.8915L13579.8999,-3457.8692L13579.8986,-3457.8537L13579.8966,-3457.8084L13579.8966,-3457.7737L13579.8983,-3457.7542L13579.8966,-3457.6948L13579.7536,-3457.6951L13579.7514,-3457.7112L13579.7527,-3457.7284L13579.7489,-3457.7476L13579.7489,-3457.7942L13579.7147,-3457.7979L13579.6933,-3457.7967L13579.6364,-3457.7955L13579.6072,-3457.7948L13579.5641,-3457.7948L13579.5369,-3457.794L13579.5308,-3457.8131L13579.5444,-3457.8098L13579.5453,-3457.8201L13579.5544,-3457.8315L13579.5736,-3457.8387L13579.5758,-3457.8687L13579.5739,-3457.8756L13579.5636,-3457.8828L13579.5483,-3457.8892L13579.5308,-3457.9017L13579.5175,-3457.9142L13579.5179,-3457.928L13579.5183,-3457.9412L13579.5239,-3457.9837L13579.5025,-3457.9853L13579.4906,-3457.9835L13579.4725,-3457.9806L13579.4059,-3457.9802L13579.3903,-3457.9801L13579.3902,-3457.98L13579.3825,-3457.9778L13579.3783,-3457.9576L13579.3646,-3457.9482L13579.3497,-3457.9381L13579.3,-3457.9381L13579.2698,-3457.9384L13579.2264,-3457.9389L13579.2047,-3457.9381L13579.1667,-3457.9371L13579.1417,-3457.9364L13579.1257,-3457.9364L13579.1016,-3457.9362L13579.1016,-3458.5877L13579.1186,-3458.5872L13579.1419,-3458.5894L13579.1575,-3458.5977L13579.1636,-3458.6222L13579.1603,-3458.64L13579.1539,-3458.6477L13579.1531,-3458.6539L13579.1524,-3458.6602L13579.1552,-3458.6917L13579.1667,-3458.6857L13579.1696,-3458.6842L13579.1898,-3458.6671L13579.194,-3458.6602L13579.2025,-3458.6494L13579.2136,-3458.6425L13579.2208,-3458.635L13579.2336,-3458.6108L13579.2433,-3458.5944L13579.2622,-3458.5865L13579.2828,-3458.5778L13579.3056,-3458.5756L13579.3166,-3458.5762L13579.3194,-3458.5764L13579.325,-3458.5817L13579.3297,-3458.5933L13579.3264,-3458.6069L13579.32,-3458.6302L13579.3816,-3458.6455L13579.3948,-3458.6602L13579.408,-3458.6676L13579.4384,-3458.6921L13579.4195,-3458.7032L13579.4,-3458.7299L13579.4057,-3458.7462L13579.4144,-3458.7538L13579.4217,-3458.7538L13579.4267,-3458.7538L13579.4332,-3458.7524L13579.4423,-3458.7505L13579.4461,-3458.751L13579.4491,-3458.7514L13579.4539,-3458.7558L13579.4544,-3458.757L13579.4562,-3458.7607L13579.4566,-3458.7673L13579.4567,-3458.7748L13579.4586,-3458.7795L13579.4644,-3458.7832L13579.4699,-3458.7867L13579.47,-3458.7868L13579.4753,-3458.7904L13579.4833,-3458.7959L13579.4968,-3458.8089L13579.5058,-3458.8176L13579.5089,-3458.8206L13579.5084,-3458.8265L13579.5066,-3458.8444L13579.5069,-3458.8692L13579.5068,-3458.8842L13579.5092,-3458.9049L13579.5081,-3458.9361L13579.5091,-3458.9882L13579.5099,-3459.0665L13579.3772,-3459.0665L13579.3128,-3459.0661L13579.3057,-3459.066L13579.235,-3459.0655L13579.233,-3459.0655L13579.1667,-3459.0673L13579.1351,-3459.0681L13579.1349,-3459.0681L13579.1159,-3459.0686L13579.1016,-3459.0696L13579.1016,-3459.9512L13579.1201,-3459.9521L13579.1254,-3459.9521L13579.1248,-3459.9616L13579.1237,-3459.9786L13579.1237,-3460L13579.1237,-3460.0985L13579.1257,-3460.1325L13579.1265,-3460.1447L13579.1667,-3460.1452L13579.3137,-3460.1469L13579.335,-3460.1461L13579.3561,-3460.1461L13579.3684,-3460.1495L13579.4442,-3460.1527L13579.4806,-3460.1545L13579.505,-3460.1569L13579.5169,-3460.1581L13579.5187,-3460.2174L13579.5186,-3460.2306L13579.5179,-3460.2929L13579.5143,-3460.3481L13579.5134,-3460.4127L13579.5126,-3460.4395L13579.5142,-3460.4505L13579.518,-3460.4769L13579.5126,-3460.522L13579.5063,-3460.6206L13579.5052,-3460.6568L13579.5085,-3460.671L13579.5076,-3460.6818L13579.5067,-3460.6917L13579.5046,-3460.7036L13579.5031,-3460.7277L13579.5028,-3460.7332L13579.5031,-3460.7466L13579.5037,-3460.7717L13579.5067,-3460.7869L13579.5073,-3460.8056L13579.5037,-3460.8176L13579.505,-3460.8333L13579.5081,-3460.8707L13579.5113,-3460.889L13579.5117,-3460.9161L13579.5108,-3460.9551L13579.5102,-3460.9615L13579.5042,-3461.0204L13579.5031,-3461.0284L13579.5017,-3461.0401L13579.4984,-3461.066L13579.4963,-3461.1045L13579.4987,-3461.1231L13579.4966,-3461.1394L13579.4934,-3461.1526L13579.4898,-3461.2041L13579.5002,-3461.2303L13579.5172,-3461.2299L13579.5836,-3461.2323L13579.6369,-3461.2277L13579.6529,-3461.2232L13579.6653,-3461.2197L13579.6715,-3461.2161L13579.6786,-3461.2126L13579.6861,-3461.2102L13579.6946,-3461.2091L13579.7548,-3461.2055L13579.7866,-3461.2045L13579.796,-3461.2042L13579.8047,-3461.2039L13579.8233,-3461.2033L13579.8431,-3461.2027L13579.8697,-3461.2018L13579.919,-3461.2002L13579.981,-3461.1984L13580,-3461.1977L13580.1388,-3461.1926L13580.2226,-3461.1914L13580.2297,-3461.2179L13580.2367,-3461.2232L13580.2508,-3461.2264L13580.3034,-3461.2331L13580.3796,-3461.2446L13580.426,-3461.2482L13580.4615,-3461.2461L13580.4712,-3461.2455L13580.5298,-3461.2455L13580.5785,-3461.2437L13580.5899,-3461.2428L13580.6007,-3461.242L13580.6051,-3461.2671L13580.6051,-3461.2898L13580.6433,-3461.296L13580.661,-3461.2907L13580.685,-3461.2925L13580.6868,-3461.2774L13580.7116,-3461.2774L13580.7106,-3461.2468L13580.7098,-3461.2252L13580.7087,-3461.1374L13580.7081,-3461.0886L13580.7102,-3461.0561L13580.7108,-3461.0474L13580.7117,-3461.0326L13580.7303,-3461.0334L13580.7986,-3461.0343L13580.8264,-3461.0343L13580.8333,-3461.0343L13580.868,-3461.0343L13580.9832,-3461.0359L13580.9838,-3461.036L13580.9921,-3461.0361L13581.1115,-3461.0367L13581.1745,-3461.0382L13581.1911,-3461.0351L13581.2131,-3461.0353L13581.2322,-3461.0384L13581.2635,-3461.0387L13581.2661,-3461.0513L13581.2737,-3461.089L13581.2796,-3461.1312L13581.2821,-3461.1458L13581.2847,-3461.152L13581.2914,-3461.1547L13581.3059,-3461.1588L13581.3252,-3461.1623L13581.3429,-3461.1606L13581.3626,-3461.1739L13581.3876,-3461.1826L13581.4078,-3461.1842L13581.428,-3461.1826L13581.455,-3461.1707L13581.4964,-3461.1699L13581.5183,-3461.1708L13581.5917,-3461.1649L13581.6298,-3461.1632L13581.6667,-3461.1632L13581.6737,-3461.1632L13581.6745,-3461.2543L13581.6754,-3461.3463L13581.7328,-3461.347L13581.7512,-3461.3472L13581.8002,-3461.3475L13581.8189,-3461.346L13581.8388,-3461.3481L13581.9884,-3461.3489L13582.0458,-3461.3487L13582.0638,-3461.3464L13582.0876,-3461.3484L13582.1354,-3461.3506L13582.1354,-3461.3884L13582.1333,-3461.4519L13582.132,-3461.4889L13582.1349,-3461.5226L13582.1329,-3461.5439L13582.0519,-3461.5439L13582.0389,-3461.5436L13582.0202,-3461.5414L13581.9977,-3461.544L13581.9068,-3461.543L13581.8957,-3461.5411L13581.8733,-3461.543L13581.6899,-3461.5421L13581.6893,-3461.5611L13581.6874,-3461.6256L13581.6881,-3461.6361L13581.6888,-3461.6456L13581.6667,-3461.646L13581.623,-3461.647L13581.4304,-3461.6504L13581.4301,-3461.6667L13581.4288,-3461.742L13581.4259,-3461.7714L13581.4277,-3461.786L13581.4273,-3461.832L13581.409,-3461.8324L13581.3794,-3461.8409L13581.3821,-3461.8524L13581.3827,-3461.9038L13581.3812,-3461.9316L13581.3804,-3461.9471L13581.3641,-3461.945L13581.3274,-3461.9464L13581.3267,-3461.9909L13581.3267,-3462.0237L13581.3267,-3462.0621L13581.3274,-3462.1643L13581.3272,-3462.1812L13581.3271,-3462.1937L13581.3264,-3462.2455L13581.3282,-3462.3005L13581.3531,-3462.3021L13581.3803,-3462.3036L13581.4076,-3462.3209L13581.4493,-3462.3549L13581.4692,-3462.3649L13581.4827,-3462.3798L13581.5037,-3462.3966L13581.5401,-3462.4203L13581.559,-3462.4317L13581.5862,-3462.4491L13581.6255,-3462.4702L13581.6475,-3462.4766L13581.6667,-3462.482L13581.6914,-3462.4891L13581.7111,-3462.4937L13581.7383,-3462.499L13581.7553,-3462.5L13581.7884,-3462.502L13581.826,-3462.5L13581.8594,-3462.4982L13581.9254,-3462.4941L13581.9786,-3462.489L13582.0517,-3462.4851L13582.0894,-3462.4854L13582.1055,-3462.4824L13582.1679,-3462.479L13582.2065,-3462.4763L13582.2244,-3462.4751L13582.2575,-3462.4762L13582.2887,-3462.4791L13582.3451,-3462.4935L13582.3613,-3462.498L13582.3654,-3462.5L13582.3736,-3462.5041L13582.3837,-3462.513L13582.3893,-3462.5208L13582.3893,-3462.5392L13582.3866,-3462.5449L13582.375,-3462.5697L13582.3725,-3462.5829L13582.3681,-3462.6354L13582.3681,-3462.736L13582.367,-3462.7547L13582.3653,-3462.7852L13582.3664,-3462.8377L13582.3692,-3462.8853L13582.3694,-3462.8906L13584.7562,-3462.8906L13584.7545,-3462.889L13584.7183,-3462.8571L13584.7115,-3462.8412L13584.7024,-3462.83L13584.6742,-3462.8131L13584.6583,-3462.8062L13584.6369,-3462.8006L13584.6301,-3462.8029L13584.6182,-3462.8069L13584.5876,-3462.8132L13584.5662,-3462.8175L13584.5613,-3462.8171L13584.5613,-3462.8103L13584.5668,-3462.7803L13584.5712,-3462.7634L13584.5733,-3462.7555L13584.5749,-3462.7356L13584.5739,-3462.6999L13584.5713,-3462.6819L13584.5702,-3462.6639L13584.5826,-3462.6594L13584.5939,-3462.6628L13584.6165,-3462.6774L13584.6295,-3462.681L13584.6414,-3462.6842L13584.6538,-3462.6899L13584.6753,-3462.6921L13584.6969,-3462.6944L13584.715,-3462.6956L13584.7308,-3462.6956L13584.7624,-3462.6922L13584.8043,-3462.6809L13584.8303,-3462.6696L13584.8551,-3462.656L13584.8628,-3462.6524L13584.8713,-3462.649L13584.8822,-3462.6481L13584.9411,-3462.6526L13584.9592,-3462.6583L13584.975,-3462.6606L13584.9987,-3462.6617L13585,-3462.6618L13585.0236,-3462.6651L13585.0417,-3462.6639L13585.0677,-3462.6628L13585.0911,-3462.6629L13585.1189,-3462.6651L13585.1382,-3462.669L13585.1551,-3462.6732L13585.1737,-3462.6788L13585.1989,-3462.6807L13585.2283,-3462.691L13585.2452,-3462.6933L13585.2599,-3462.6944L13585.2802,-3462.6944L13585.2915,-3462.6888L13585.3164,-3462.6718L13585.3243,-3462.6594L13585.3311,-3462.6391L13585.3331,-3462.6275L13585.339,-3462.5938L13585.3394,-3462.5909L13585.3435,-3462.5634L13585.3512,-3462.5281L13585.3571,-3462.501L13585.3587,-3462.5L13585.3729,-3462.4909L13585.3831,-3462.4751L13585.3967,-3462.4614L13585.4059,-3462.453L13585.4103,-3462.4444L13585.4127,-3462.4399L13585.4138,-3462.4346L13585.4137,-3462.4272L13585.4117,-3462.4216L13585.4035,-3462.4096L13585.395,-3462.4039L13585.3916,-3462.4024L13585.3796,-3462.3969L13585.366,-3462.3953L13585.3636,-3462.395L13585.2995,-3462.3875L13585.2804,-3462.3872L13585.2561,-3462.3851L13585.238,-3462.3835L13585.2373,-3462.3834L13585.2238,-3462.3823L13585.2116,-3462.3802L13585.1988,-3462.3719L13585.1896,-3462.364L13585.1769,-3462.3513L13585.1674,-3462.3371L13585.1659,-3462.3189L13585.1682,-3462.3054L13585.1857,-3462.2769L13585.2198,-3462.2341L13585.2482,-3462.2025L13585.2888,-3462.1616L13585.2947,-3462.1559L13585.2952,-3462.1554L13585.3116,-3462.1394L13585.3539,-3462.1006L13585.3618,-3462.0943L13585.3697,-3462.0904L13585.3776,-3462.0856L13585.3983,-3462.0618L13585.438,-3462.0141L13585.4483,-3462.0037L13585.4531,-3461.995L13585.457,-3461.9855L13585.4626,-3461.98L13585.4769,-3461.9721L13585.5067,-3461.9612L13585.5294,-3461.9529L13585.5524,-3461.949L13585.5706,-3461.949L13585.5904,-3461.9522L13585.6103,-3461.9537L13585.6668,-3461.9447L13585.7038,-3461.9387L13585.728,-3461.9367L13585.7531,-3461.9347L13585.7619,-3461.9394L13585.7833,-3461.9386L13585.8102,-3461.9394L13585.8324,-3461.9426L13585.8333,-3461.9426L13585.8427,-3461.9426L13585.8523,-3461.9418L13585.8697,-3461.9347L13585.8865,-3461.9299L13585.9072,-3461.9259L13585.9286,-3461.9331L13585.9555,-3461.9386L13585.9817,-3461.9442L13586.0008,-3461.9434L13586.0199,-3461.9371L13586.1078,-3461.9117L13586.1374,-3461.8911L13586.1517,-3461.8712L13586.1581,-3461.8673L13586.1651,-3461.8653L13586.1739,-3461.8665L13586.1971,-3461.8764L13586.2033,-3461.8815L13586.2257,-3461.9012L13586.2295,-3461.9046L13586.2536,-3461.9164L13586.308,-3461.9489L13586.3152,-3461.9569L13586.3525,-3461.9759L13586.4049,-3462.0037L13586.4183,-3462.0141L13586.4359,-3462.0212L13586.4573,-3462.0283L13586.5088,-3462.0497L13586.5676,-3462.0648L13586.6243,-3462.0772L13586.6431,-3462.0838L13586.6608,-3462.0846L13586.6667,-3462.0852L13586.6854,-3462.087L13586.7156,-3462.0902L13586.7649,-3462.0823L13586.78,-3462.0783L13586.7983,-3462.0704L13586.8188,-3462.0641L13586.8355,-3462.0617L13586.8593,-3462.0593L13586.8696,-3462.0577L13586.8744,-3462.0379L13586.8704,-3462.0236L13586.8593,-3462.0021L13586.8268,-3461.9616L13586.8038,-3461.9132L13586.8022,-3461.9014L13586.8014,-3461.895L13586.8022,-3461.8855L13586.807,-3461.8689L13586.8117,-3461.8562L13586.8187,-3461.8454L13586.8261,-3461.8326L13586.8317,-3461.8145L13586.8506,-3461.7617L13586.8521,-3461.757L13586.8609,-3461.7283L13586.8609,-3461.7164L13586.8586,-3461.6696L13586.8607,-3461.6667L13586.8916,-3461.6227L13586.908,-3461.602L13586.9169,-3461.5874L13586.9276,-3461.5696L13586.9442,-3461.5233L13586.957,-3461.4972L13586.965,-3461.4758L13586.9728,-3461.4354L13586.9777,-3461.4107L13586.9825,-3461.3932L13586.9832,-3461.3726L13586.9841,-3461.3489L13586.9844,-3461.3467L13586.9896,-3461.3107L13586.9912,-3461.2997L13586.9896,-3461.2791L13586.9818,-3461.263L13586.9777,-3461.2538L13586.9733,-3461.2466L13586.9686,-3461.2397L13586.9413,-3461.2243L13586.9246,-3461.214L13586.9222,-3461.1949L13586.9182,-3461.1751L13586.9144,-3461.1653L13586.9063,-3461.1537L13586.8857,-3461.1339L13586.8658,-3461.1227L13586.8516,-3461.1132L13586.8356,-3461.0925L13586.8263,-3461.0847L13586.8163,-3461.0712L13586.8099,-3461.0622L13586.7991,-3461.0545L13586.784,-3461.0393L13586.7697,-3461.0274L13586.7483,-3461.01L13586.738,-3460.9987L13586.7323,-3460.9869L13586.7289,-3460.9731L13586.7297,-3460.9617L13586.7327,-3460.9594L13586.7344,-3460.9594L13586.7483,-3460.9592L13586.7586,-3460.9726L13586.7745,-3460.9893L13586.7879,-3461.0019L13586.7949,-3461.0012L13586.7986,-3460.9993L13586.8014,-3460.9964L13586.8133,-3460.9663L13586.834,-3460.9076L13586.8411,-3460.8933L13586.8446,-3460.8867L13586.8553,-3460.8751L13586.8642,-3460.871L13586.8713,-3460.8687L13586.8864,-3460.8694L13586.9007,-3460.8774L13586.9094,-3460.8932L13586.9118,-3460.9067L13586.9126,-3460.9209L13586.9134,-3460.9281L13586.9269,-3460.9384L13586.9634,-3460.9503L13586.9848,-3460.9519L13587.0038,-3460.9487L13587.0157,-3460.9416L13587.0253,-3460.9329L13587.0316,-3460.9233L13587.0403,-3460.9027L13587.0444,-3460.886L13587.0476,-3460.8598L13587.0507,-3460.8416L13587.0524,-3460.8333L13587.0533,-3460.8287L13587.0533,-3460.8069L13587.0619,-3460.7925L13587.0825,-3460.7941L13587.0928,-3460.8107L13587.0967,-3460.8178L13587.1024,-3460.82L13587.1074,-3460.823L13587.1093,-3460.8287L13587.1096,-3460.8333L13587.1097,-3460.8349L13587.1031,-3460.8614L13587.1039,-3460.8756L13587.0896,-3460.9091L13587.0881,-3460.9146L13587.0753,-3460.963L13587.0793,-3460.9772L13587.0817,-3460.9796L13587.0975,-3460.9796L13587.1181,-3460.9725L13587.1411,-3460.9535L13587.1562,-3460.9392L13587.1673,-3460.9218L13587.1801,-3460.9087L13587.1848,-3460.8886L13587.1859,-3460.886L13587.1944,-3460.8662L13587.2054,-3460.8536L13587.2102,-3460.8496L13587.2159,-3460.8472L13587.2194,-3460.8407L13587.2216,-3460.8371L13587.2224,-3460.8333L13587.2227,-3460.8315L13587.2233,-3460.8239L13587.225,-3460.8104L13587.2272,-3460.7995L13587.2303,-3460.7887L13587.2337,-3460.7778L13587.2446,-3460.7502L13587.2479,-3460.7421L13587.2524,-3460.734L13587.2582,-3460.7234L13587.2638,-3460.7172L13587.2674,-3460.7161L13587.2739,-3460.7167L13587.2789,-3460.7198L13587.282,-3460.7236L13587.2842,-3460.7278L13587.2847,-3460.7322L13587.2853,-3460.7373L13587.2853,-3460.7421L13587.285,-3460.7462L13587.2842,-3460.7504L13587.2839,-3460.7546L13587.2834,-3460.7591L13587.2817,-3460.7644L13587.2806,-3460.7683L13587.2783,-3460.7727L13587.2764,-3460.7794L13587.273,-3460.792L13587.2681,-3460.8028L13587.2667,-3460.8056L13587.2633,-3460.8123L13587.2614,-3460.8168L13587.2597,-3460.8218L13587.26,-3460.8257L13587.2627,-3460.8296L13587.2664,-3460.8318L13587.2711,-3460.8318L13587.2762,-3460.8313L13587.282,-3460.8285L13587.2871,-3460.8249L13587.2918,-3460.8207L13587.2979,-3460.8117L13587.308,-3460.8003L13587.3125,-3460.7969L13587.3164,-3460.7972L13587.3192,-3460.7978L13587.3211,-3460.7995L13587.3239,-3460.8028L13587.3247,-3460.8059L13587.3245,-3460.8101L13587.3242,-3460.8154L13587.3242,-3460.8215L13587.3236,-3460.8257L13587.3234,-3460.831L13587.3227,-3460.8333L13587.3214,-3460.8382L13587.3206,-3460.85L13587.3189,-3460.8575L13587.3175,-3460.8664L13587.3158,-3460.8767L13587.3139,-3460.889L13587.3139,-3460.8982L13587.3133,-3460.9041L13587.3141,-3460.9099L13587.315,-3460.9183L13587.3144,-3460.93L13587.3144,-3460.9336L13587.3133,-3460.9462L13587.313,-3460.9523L13587.3125,-3460.9565L13587.3119,-3460.9626L13587.3116,-3460.9702L13587.313,-3460.9799L13587.315,-3460.9894L13587.3169,-3460.9947L13587.3211,-3460.9986L13587.3259,-3461.0009L13587.3317,-3461.0014L13587.3357,-3461.0011L13587.3401,-3460.9997L13587.3435,-3460.9975L13587.3491,-3460.9897L13587.3505,-3460.9866L13587.3521,-3460.9799L13587.3522,-3460.9792L13587.3527,-3460.973L13587.3541,-3460.9671L13587.3546,-3460.9635L13587.3583,-3460.9539L13587.3594,-3460.9466L13587.3622,-3460.9338L13587.3636,-3460.9212L13587.3689,-3460.9037L13587.3736,-3460.8928L13587.3767,-3460.8891L13587.3817,-3460.8864L13587.3915,-3460.8858L13587.3979,-3460.8858L13587.4052,-3460.8866L13587.4102,-3460.888L13587.4125,-3460.8908L13587.4136,-3460.8956L13587.413,-3460.9006L13587.4116,-3460.9051L13587.4105,-3460.9084L13587.4091,-3460.914L13587.4069,-3460.9221L13587.4052,-3460.9302L13587.4033,-3460.9394L13587.4025,-3460.9474L13587.4022,-3460.9529L13587.4025,-3460.9607L13587.4042,-3460.9661L13587.4058,-3460.9694L13587.4086,-3460.9722L13587.4128,-3460.9752L13587.4167,-3460.9794L13587.4176,-3460.9859L13587.4184,-3460.9914L13587.4178,-3460.9984L13587.4148,-3461.0104L13587.4117,-3461.0179L13587.4106,-3461.0266L13587.41,-3461.0369L13587.4097,-3461.0492L13587.4111,-3461.0567L13587.4117,-3461.0623L13587.4139,-3461.0667L13587.415,-3461.0692L13587.4195,-3461.0709L13587.4239,-3461.0706L13587.4284,-3461.0695L13587.4332,-3461.0656L13587.4371,-3461.0609L13587.4402,-3461.0553L13587.4438,-3461.0486L13587.4466,-3461.0439L13587.4547,-3461.0349L13587.4647,-3461.0285L13587.4748,-3461.0232L13587.4812,-3461.0221L13587.4862,-3461.023L13587.4901,-3461.0255L13587.491,-3461.0301L13587.4907,-3461.0343L13587.4899,-3461.0387L13587.4885,-3461.0432L13587.486,-3461.0474L13587.4796,-3461.0538L13587.4746,-3461.058L13587.467,-3461.0647L13587.4626,-3461.0705L13587.4623,-3461.075L13587.4651,-3461.0797L13587.4712,-3461.0875L13587.4768,-3461.0976L13587.4813,-3461.1068L13587.483,-3461.1113L13587.4838,-3461.1132L13587.4857,-3461.1232L13587.4852,-3461.1394L13587.4854,-3461.1475L13587.4857,-3461.1511L13587.488,-3461.1539L13587.4902,-3461.1559L13587.4944,-3461.1573L13587.4976,-3461.158L13587.5,-3461.1581L13587.5052,-3461.1583L13587.5135,-3461.1577L13587.5258,-3461.1552L13587.5392,-3461.1521L13587.5487,-3461.1502L13587.5579,-3461.1499L13587.5694,-3461.1482L13587.5839,-3461.146L13587.6082,-3461.1418L13587.6241,-3461.1407L13587.6361,-3461.1407L13587.6417,-3461.1415L13587.6456,-3461.1429L13587.6521,-3461.1471L13587.6585,-3461.1549L13587.6632,-3461.1624L13587.6654,-3461.1666L13587.6696,-3461.1747L13587.673,-3461.1814L13587.6769,-3461.1889L13587.6808,-3461.1956L13587.6847,-3461.2043L13587.6889,-3461.2093L13587.6931,-3461.2141L13587.699,-3461.2188L13587.7037,-3461.2233L13587.709,-3461.2272L13587.7135,-3461.2286L13587.7179,-3461.2294L13587.7226,-3461.2293L13587.7293,-3461.229L13587.7463,-3461.2284L13587.7637,-3461.2273L13587.7701,-3461.2262L13587.7882,-3461.2246L13587.8011,-3461.2243L13587.8081,-3461.2248L13587.8147,-3461.2268L13587.8192,-3461.2287L13587.8237,-3461.2324L13587.8254,-3461.2357L13587.8268,-3461.2396L13587.8271,-3461.243L13587.8259,-3461.2471L13587.8248,-3461.2511L13587.8237,-3461.2547L13587.8206,-3461.2589L13587.8195,-3461.2633L13587.8192,-3461.2684L13587.822,-3461.272L13587.8306,-3461.2754L13587.8329,-3461.2781L13587.8457,-3461.2842L13587.8508,-3461.2865L13587.858,-3461.2896L13587.8675,-3461.2951L13587.8762,-3461.3021L13587.8821,-3461.306L13587.8827,-3461.3064L13587.8906,-3461.3104Z"/>
<path content="奈良県,,,桜井市,,29206" xlink:title="奈良県" d="M13587.8906,-3454.1016L13581.8255,-3454.1016L13581.8251,-3454.1105L13581.8232,-3454.1667L13581.8206,-3454.2408L13581.8331,-3454.2508L13581.8529,-3454.2508L13581.8904,-3454.2547L13581.8899,-3454.2613L13581.8896,-3454.2647L13581.8868,-3454.2927L13581.8899,-3454.3273L13581.8893,-3454.4457L13581.9689,-3454.4489L13581.982,-3454.4494L13581.9916,-3454.4519L13581.9991,-3454.4538L13582.0098,-3454.4566L13582.0146,-3454.4565L13582.0762,-3454.4552L13582.0934,-3454.4549L13582.1087,-3454.4533L13582.202,-3454.4569L13582.2088,-3454.4574L13582.2194,-3454.4583L13582.2357,-3454.4596L13582.2492,-3454.4607L13582.2502,-3454.4608L13582.2593,-3454.4615L13582.2675,-3454.4622L13582.2673,-3454.4877L13582.2628,-3454.513L13582.2576,-3454.5282L13582.2484,-3454.5505L13582.2349,-3454.5699L13582.3289,-3454.5713L13582.4328,-3454.5732L13582.4853,-3454.5719L13582.5,-3454.5723L13582.5289,-3454.5732L13582.5481,-3454.5769L13582.5386,-3454.5946L13582.5275,-3454.6288L13582.5275,-3454.6541L13582.537,-3454.6655L13582.5575,-3454.6635L13582.6122,-3454.6663L13582.6148,-3454.7709L13582.6158,-3454.8105L13582.6178,-3454.8246L13582.6153,-3454.8549L13582.6756,-3454.8565L13582.71,-3454.8557L13582.7675,-3454.8543L13582.7908,-3454.853L13582.8741,-3454.8541L13582.8966,-3454.8521L13582.9183,-3454.8521L13583.0675,-3454.8549L13583.1674,-3454.8546L13583.1677,-3454.8595L13583.1699,-3454.9057L13583.1703,-3454.9599L13583.1705,-3455L13583.1706,-3455.0055L13583.1698,-3455.0523L13583.1696,-3455.0647L13583.1695,-3455.0698L13583.1693,-3455.0794L13583.1674,-3455.1245L13583.1665,-3455.1447L13583.1655,-3455.1684L13583.1663,-3455.1752L13583.1683,-3455.1829L13583.1694,-3455.1888L13583.1691,-3455.2019L13583.1688,-3455.2417L13583.2061,-3455.2407L13583.2193,-3455.2394L13583.2246,-3455.2387L13583.23,-3455.2389L13583.2475,-3455.2412L13583.2575,-3455.2436L13583.2676,-3455.2453L13583.3187,-3455.2471L13583.3333,-3455.2473L13583.3622,-3455.2475L13583.4146,-3455.2479L13583.4235,-3455.2478L13583.494,-3455.2466L13583.5151,-3455.2466L13583.5267,-3455.2477L13583.5374,-3455.2487L13583.5455,-3455.2489L13583.579,-3455.2497L13583.616,-3455.2484L13583.6453,-3455.25L13583.6782,-3455.2502L13583.704,-3455.2507L13583.7312,-3455.2512L13583.7464,-3455.2495L13583.7551,-3455.2482L13583.7684,-3455.2477L13583.7924,-3455.2495L13583.7998,-3455.25L13583.8031,-3455.2492L13583.8036,-3455.2472L13583.8047,-3455.2323L13583.8071,-3455.1835L13583.8099,-3455.0993L13583.8174,-3455.0801L13583.821,-3455.0707L13583.9138,-3455.0669L13584.0363,-3455.0644L13584.0751,-3455.0663L13584.1221,-3455.0652L13584.1335,-3455.0094L13584.1336,-3455L13584.1337,-3454.9877L13584.1667,-3454.9788L13584.1726,-3454.9771L13584.2765,-3454.9705L13584.3096,-3454.9469L13584.3318,-3454.9266L13584.3381,-3454.9219L13584.351,-3454.9124L13584.3693,-3454.9038L13584.3873,-3454.8986L13584.4046,-3454.8952L13584.4773,-3454.8897L13584.5015,-3454.8891L13584.5254,-3454.8861L13584.5468,-3454.8863L13584.5958,-3454.8818L13584.6363,-3454.8763L13584.6523,-3454.8741L13584.7348,-3454.8755L13584.7483,-3454.8759L13584.8095,-3454.8777L13584.8698,-3454.8811L13584.9112,-3454.8855L13584.9304,-3454.8905L13584.9465,-3454.9005L13584.9715,-3454.9188L13584.987,-3454.9374L13585,-3454.9492L13585.0148,-3454.9627L13585.0443,-3454.9816L13585.0726,-3454.9941L13585.0885,-3455L13585.1228,-3455.0127L13585.1703,-3455.0288L13585.1998,-3455.0333L13585.2414,-3455.0427L13585.2826,-3455.0461L13585.3264,-3455.0472L13585.3431,-3455.0486L13585.3645,-3455.0483L13585.3722,-3455.048L13585.4323,-3455.0461L13585.4825,-3455.0413L13585.5478,-3455.0344L13585.5839,-3455.0313L13585.6595,-3455.0147L13585.7029,-3455L13585.7047,-3454.9994L13585.777,-3454.9691L13585.8333,-3454.9438L13585.8344,-3454.9433L13585.8799,-3454.9157L13585.8925,-3454.908L13585.9308,-3454.8883L13585.9478,-3454.8791L13585.9614,-3454.8727L13586.0078,-3454.87L13586.0303,-3454.8652L13586.0575,-3454.8577L13586.1192,-3454.8425L13586.1536,-3454.8361L13586.1689,-3454.8344L13586.1878,-3454.8364L13586.2161,-3454.8483L13586.29,-3454.8775L13586.3061,-3454.8847L13586.3286,-3454.8964L13586.3614,-3454.9122L13586.3908,-3454.93L13586.3915,-3454.9302L13586.4116,-3454.9372L13586.4355,-3454.9405L13586.5091,-3454.9452L13586.5597,-3454.95L13586.5847,-3454.9402L13586.6108,-3454.9316L13586.6667,-3454.9098L13586.6733,-3454.9072L13586.7194,-3454.8877L13586.7291,-3454.8847L13586.738,-3454.8844L13586.7455,-3454.8872L13586.7511,-3454.8922L13586.7638,-3454.9119L13586.7752,-3454.9511L13586.7861,-3454.9797L13586.798,-3455L13586.8091,-3455.0189L13586.8267,-3455.041L13586.8297,-3455.0447L13586.8511,-3455.0641L13586.8858,-3455.0888L13586.9101,-3455.1076L13586.9288,-3455.1174L13586.9546,-3455.1241L13586.9777,-3455.1333L13586.9985,-3455.1486L13587.0188,-3455.1749L13587.0263,-3455.1972L13587.0341,-3455.2116L13587.0469,-3455.223L13587.0691,-3455.2313L13587.0844,-3455.2366L13587.1002,-3455.2438L13587.1341,-3455.2511L13587.1574,-3455.2594L13587.1774,-3455.2686L13587.1977,-3455.2894L13587.2063,-3455.2966L13587.216,-3455.3026L13587.23,-3455.3149L13587.24,-3455.3278L13587.2467,-3455.3479L13587.2512,-3455.3637L13587.2509,-3455.3762L13587.25,-3455.4341L13587.2504,-3455.4445L13587.2333,-3455.4617L13587.241,-3455.4681L13587.2485,-3455.4827L13587.2596,-3455.4944L13587.2691,-3455.5075L13587.2716,-3455.5165L13587.2725,-3455.5271L13587.2732,-3455.5501L13587.2733,-3455.5546L13587.2716,-3455.5736L13587.2776,-3455.5924L13587.2803,-3455.5951L13587.2904,-3455.6074L13587.2959,-3455.6184L13587.2978,-3455.6294L13587.2991,-3455.6432L13587.2934,-3455.6489L13587.2855,-3455.6661L13587.2524,-3455.7019L13587.2423,-3455.7177L13587.2324,-3455.7403L13587.2298,-3455.7546L13587.2297,-3455.7677L13587.2326,-3455.7908L13587.2343,-3455.797L13587.2389,-3455.8052L13587.2476,-3455.8159L13587.2732,-3455.8333L13587.275,-3455.8345L13587.2946,-3455.8449L13587.3125,-3455.8556L13587.3202,-3455.8616L13587.3551,-3455.8934L13587.3856,-3455.9234L13587.3907,-3455.9349L13587.3949,-3455.9466L13587.3971,-3455.9555L13587.3969,-3455.9682L13587.3951,-3455.9811L13587.39,-3456.0014L13587.3783,-3456.0235L13587.3763,-3456.0274L13587.3713,-3456.0372L13587.3713,-3456.0431L13587.3723,-3456.0603L13587.3752,-3456.07L13587.3822,-3456.0821L13587.3969,-3456.0967L13587.4074,-3456.1012L13587.4164,-3456.1051L13587.441,-3456.1217L13587.4487,-3456.1264L13587.4658,-3456.1319L13587.4813,-3456.1329L13587.5,-3456.1323L13587.5073,-3456.132L13587.5308,-3456.1316L13587.5472,-3456.1289L13587.5632,-3456.1282L13587.6045,-3456.113L13587.6249,-3456.1076L13587.639,-3456.0989L13587.6534,-3456.0865L13587.6701,-3456.0799L13587.6822,-3456.0754L13587.6988,-3456.0731L13587.699,-3456.073L13587.7063,-3456.072L13587.7348,-3456.0584L13587.7485,-3456.0459L13587.7524,-3456.0355L13587.7572,-3456.0225L13587.7616,-3456.0133L13587.7689,-3456.0051L13587.7798,-3455.9977L13587.7915,-3455.9886L13587.8062,-3455.9821L13587.8211,-3455.9808L13587.8406,-3455.9812L13587.8593,-3455.9821L13587.8801,-3455.9809L13587.8893,-3455.9751L13587.8906,-3455.9739Z"/>
<path content="奈良県,,磯城郡,川西町,,29361" xlink:title="奈良県" d="M13579.1016,-3459.0696L13579.1159,-3459.0686L13579.1349,-3459.0681L13579.1351,-3459.0681L13579.1667,-3459.0673L13579.233,-3459.0655L13579.235,-3459.0655L13579.3057,-3459.066L13579.3128,-3459.0661L13579.3772,-3459.0665L13579.5099,-3459.0665L13579.5091,-3458.9882L13579.5081,-3458.9361L13579.5092,-3458.9049L13579.5068,-3458.8842L13579.5069,-3458.8692L13579.5066,-3458.8444L13579.5084,-3458.8265L13579.5089,-3458.8206L13579.5058,-3458.8176L13579.4968,-3458.8089L13579.4833,-3458.7959L13579.4753,-3458.7904L13579.47,-3458.7868L13579.4699,-3458.7867L13579.4644,-3458.7832L13579.4586,-3458.7795L13579.4567,-3458.7748L13579.4566,-3458.7673L13579.4562,-3458.7607L13579.4544,-3458.757L13579.4539,-3458.7558L13579.4491,-3458.7514L13579.4461,-3458.751L13579.4423,-3458.7505L13579.4332,-3458.7524L13579.4267,-3458.7538L13579.4217,-3458.7538L13579.4144,-3458.7538L13579.4057,-3458.7462L13579.4,-3458.7299L13579.4195,-3458.7032L13579.4384,-3458.6921L13579.408,-3458.6676L13579.3948,-3458.6602L13579.3816,-3458.6455L13579.32,-3458.6302L13579.3264,-3458.6069L13579.3297,-3458.5933L13579.325,-3458.5817L13579.3194,-3458.5764L13579.3166,-3458.5762L13579.3056,-3458.5756L13579.2828,-3458.5778L13579.2622,-3458.5865L13579.2433,-3458.5944L13579.2336,-3458.6108L13579.2208,-3458.635L13579.2136,-3458.6425L13579.2025,-3458.6494L13579.194,-3458.6602L13579.1898,-3458.6671L13579.1696,-3458.6842L13579.1667,-3458.6857L13579.1552,-3458.6917L13579.1524,-3458.6602L13579.1531,-3458.6539L13579.1539,-3458.6477L13579.1603,-3458.64L13579.1636,-3458.6222L13579.1575,-3458.5977L13579.1419,-3458.5894L13579.1186,-3458.5872L13579.1016,-3458.5877Z"/>
<path content="奈良県,,磯城郡,三宅町,,29362" xlink:title="奈良県" d="M13579.1016,-3457.3186L13579.1192,-3457.3032L13579.1589,-3457.2618L13579.1667,-3457.2529L13579.2011,-3457.2135L13579.205,-3457.2109L13579.2159,-3457.2037L13579.2307,-3457.2023L13579.2364,-3457.2018L13579.2611,-3457.1937L13579.2797,-3457.1849L13579.2789,-3457.1687L13579.2647,-3457.1532L13579.2584,-3457.1462L13579.2538,-3457.1365L13579.252,-3457.1326L13579.2595,-3457.1104L13579.2836,-3457.0737L13579.2853,-3457.0682L13579.285,-3457.0674L13579.2808,-3457.0554L13579.2659,-3457.0135L13579.2661,-3456.9566L13579.2714,-3456.9355L13579.2784,-3456.9071L13579.2834,-3456.9024L13579.3014,-3456.8924L13579.3287,-3456.8879L13579.3356,-3456.8868L13579.3369,-3456.8866L13579.3444,-3456.8856L13579.3599,-3456.8836L13579.3645,-3456.8829L13579.3959,-3456.8674L13579.3975,-3456.8604L13579.3895,-3456.8402L13579.3828,-3456.8166L13579.3823,-3456.8063L13579.3861,-3456.7918L13579.3989,-3456.7735L13579.4053,-3456.7516L13579.4053,-3456.7463L13579.3917,-3456.7257L13579.3653,-3456.7058L13579.3575,-3456.6999L13579.3537,-3456.6999L13579.3363,-3456.6996L13579.3073,-3456.6991L13579.2884,-3456.7032L13579.2721,-3456.7047L13579.272,-3456.7047L13579.2381,-3456.7077L13579.236,-3456.7039L13579.2332,-3456.6989L13579.2278,-3456.6891L13579.2089,-3456.6954L13579.1667,-3456.7195L13579.1606,-3456.7229L13579.1187,-3456.7252L13579.1016,-3456.7256Z"/>
<path content="奈良県,,磯城郡,田原本町,,29363" xlink:title="奈良県" d="M13580.5697,-3458.9507L13580.581,-3458.9439L13580.7425,-3458.9477L13580.7437,-3458.9149L13580.7434,-3458.8875L13580.7427,-3458.8363L13580.7441,-3458.8081L13580.747,-3458.7823L13580.7483,-3458.7716L13580.7494,-3458.7304L13580.7501,-3458.6979L13580.7526,-3458.6771L13580.7546,-3458.6603L13580.7543,-3458.6095L13580.7537,-3458.5356L13580.7537,-3458.5326L13580.7535,-3458.5053L13580.7518,-3458.4075L13580.8093,-3458.4039L13580.8333,-3458.4046L13580.8593,-3458.4053L13580.859,-3458.3875L13580.8587,-3458.3709L13580.8568,-3458.3333L13580.8546,-3458.2892L13580.8333,-3458.2882L13580.7521,-3458.2842L13580.7518,-3458.2081L13580.7532,-3458.1889L13580.7521,-3458.1703L13580.7543,-3458.1065L13580.7544,-3458.0933L13580.7551,-3458.0042L13580.7537,-3457.9695L13580.7582,-3457.8979L13580.7571,-3457.8273L13580.7571,-3457.8261L13580.7568,-3457.8107L13580.7592,-3457.7953L13580.7599,-3457.7909L13580.7619,-3457.7694L13580.762,-3457.7686L13580.7639,-3457.7489L13580.7641,-3457.7473L13580.7866,-3457.7251L13580.8104,-3457.6901L13580.8196,-3457.6721L13580.8329,-3457.6457L13580.8333,-3457.6427L13580.8349,-3457.6318L13580.839,-3457.6182L13580.8615,-3457.5596L13580.8812,-3457.5L13580.9004,-3457.442L13580.9029,-3457.4346L13580.9099,-3457.4235L13580.926,-3457.4152L13580.9273,-3457.4146L13580.9389,-3457.4087L13580.9399,-3457.4082L13580.9674,-3457.4037L13580.989,-3457.3999L13581.0437,-3457.3999L13581.109,-3457.3946L13581.1382,-3457.3985L13581.1785,-3457.3991L13581.2126,-3457.3963L13581.249,-3457.3902L13581.2562,-3457.3643L13581.254,-3457.3452L13581.2653,-3457.3156L13581.2712,-3457.2999L13581.2843,-3457.2779L13581.2904,-3457.2488L13581.2934,-3457.2332L13581.2979,-3457.1932L13581.2986,-3457.187L13581.2998,-3457.1763L13581.2984,-3457.1563L13581.3021,-3457.1349L13581.304,-3457.1216L13581.3071,-3457.1071L13581.3076,-3457.0996L13581.3021,-3457.0874L13581.2926,-3457.0777L13581.2895,-3457.0746L13581.2793,-3457.0641L13581.2801,-3457.0471L13581.2863,-3457.0255L13581.2863,-3456.9052L13581.1532,-3456.9055L13581.1543,-3456.798L13581.1538,-3456.7226L13581.1537,-3456.708L13581.1528,-3456.6667L13581.1526,-3456.6619L13581.154,-3456.5508L13581.1536,-3456.5309L13581.1526,-3456.4891L13581.1543,-3456.4569L13581.1518,-3456.4164L13581.1689,-3456.4167L13581.2335,-3456.418L13581.2396,-3456.4127L13581.244,-3456.4047L13581.2449,-3456.3939L13581.2483,-3456.3521L13581.249,-3456.3434L13581.2497,-3456.3351L13581.251,-3456.3197L13581.2661,-3456.3193L13581.2912,-3456.3187L13581.3513,-3456.3172L13581.3707,-3456.3147L13581.3735,-3456.175L13581.3743,-3456.1417L13581.3565,-3456.132L13581.3154,-3456.1331L13581.3307,-3456.0942L13581.3451,-3456.077L13581.4043,-3456.0761L13581.4104,-3456.0556L13581.4926,-3456.0595L13581.5125,-3456.0592L13581.5832,-3456.0584L13581.6009,-3456.0567L13581.624,-3456.057L13581.6667,-3456.0571L13581.7523,-3456.0572L13581.7731,-3456.0575L13581.7887,-3456.0577L13581.9623,-3456.06L13581.9786,-3456.0601L13582.0839,-3456.0603L13582.092,-3455.9206L13582.0965,-3455.8333L13582.097,-3455.8234L13582.1076,-3455.6773L13582.1098,-3455.6399L13582.1156,-3455.5442L13582.1162,-3455.5356L13582.1214,-3455.4543L13582.1339,-3455.4432L13582.1422,-3455.4432L13582.1525,-3455.4434L13582.1669,-3455.4435L13582.2156,-3455.444L13582.2266,-3455.4269L13582.2267,-3455.4268L13582.2313,-3455.4234L13582.2537,-3455.4065L13582.2484,-3455.3918L13582.2456,-3455.3476L13582.3828,-3455.3501L13582.4525,-3455.3498L13582.455,-3455.2779L13582.4636,-3455.1796L13582.4653,-3455.1604L13582.4842,-3455.156L13582.5,-3455.1536L13582.5148,-3455.1514L13582.5244,-3455.1501L13582.5633,-3455.1443L13582.5931,-3455.1415L13582.6028,-3455.129L13582.6047,-3455.1049L13582.6069,-3455.0338L13582.6087,-3455L13582.6105,-3454.9644L13582.6108,-3454.9571L13582.6156,-3454.9104L13582.6153,-3454.8629L13582.6153,-3454.8549L13582.6178,-3454.8246L13582.6158,-3454.8105L13582.6148,-3454.7709L13582.6122,-3454.6663L13582.5575,-3454.6635L13582.537,-3454.6655L13582.5275,-3454.6541L13582.5275,-3454.6288L13582.5386,-3454.5946L13582.5481,-3454.5769L13582.5289,-3454.5732L13582.5,-3454.5723L13582.4853,-3454.5719L13582.4328,-3454.5732L13582.3289,-3454.5713L13582.2349,-3454.5699L13582.2484,-3454.5505L13582.2576,-3454.5282L13582.2628,-3454.513L13582.2673,-3454.4877L13582.2675,-3454.4622L13582.2593,-3454.4615L13582.2502,-3454.4608L13582.2492,-3454.4607L13582.2357,-3454.4596L13582.2194,-3454.4583L13582.2088,-3454.4574L13582.202,-3454.4569L13582.1087,-3454.4533L13582.0934,-3454.4549L13582.0762,-3454.4552L13582.0146,-3454.4565L13582.0098,-3454.4566L13581.9991,-3454.4538L13581.9916,-3454.4519L13581.982,-3454.4494L13581.9689,-3454.4489L13581.8893,-3454.4457L13581.8899,-3454.3273L13581.8868,-3454.2927L13581.8896,-3454.2647L13581.8899,-3454.2613L13581.8904,-3454.2547L13581.8529,-3454.2508L13581.8331,-3454.2508L13581.8206,-3454.2408L13581.8232,-3454.1667L13581.8251,-3454.1105L13581.8255,-3454.1016L13579.1016,-3454.1016L13579.1016,-3456.7256L13579.1187,-3456.7252L13579.1606,-3456.7229L13579.1667,-3456.7195L13579.2089,-3456.6954L13579.2278,-3456.6891L13579.2332,-3456.6989L13579.236,-3456.7039L13579.2381,-3456.7077L13579.272,-3456.7047L13579.2721,-3456.7047L13579.2884,-3456.7032L13579.3073,-3456.6991L13579.3363,-3456.6996L13579.3537,-3456.6999L13579.3575,-3456.6999L13579.3653,-3456.7058L13579.3917,-3456.7257L13579.4053,-3456.7463L13579.4053,-3456.7516L13579.3989,-3456.7735L13579.3861,-3456.7918L13579.3823,-3456.8063L13579.3828,-3456.8166L13579.3895,-3456.8402L13579.3975,-3456.8604L13579.3959,-3456.8674L13579.3645,-3456.8829L13579.3599,-3456.8836L13579.3444,-3456.8856L13579.3369,-3456.8866L13579.3356,-3456.8868L13579.3287,-3456.8879L13579.3014,-3456.8924L13579.2834,-3456.9024L13579.2784,-3456.9071L13579.2714,-3456.9355L13579.2661,-3456.9566L13579.2659,-3457.0135L13579.2808,-3457.0554L13579.285,-3457.0674L13579.2853,-3457.0682L13579.2836,-3457.0737L13579.2595,-3457.1104L13579.252,-3457.1326L13579.2538,-3457.1365L13579.2584,-3457.1462L13579.2647,-3457.1532L13579.2789,-3457.1687L13579.2797,-3457.1849L13579.2611,-3457.1937L13579.2364,-3457.2018L13579.2307,-3457.2023L13579.2159,-3457.2037L13579.205,-3457.2109L13579.2011,-3457.2135L13579.1667,-3457.2529L13579.1589,-3457.2618L13579.1192,-3457.3032L13579.1016,-3457.3186L13579.1016,-3457.9362L13579.1257,-3457.9364L13579.1417,-3457.9364L13579.1667,-3457.9371L13579.2047,-3457.9381L13579.2264,-3457.9389L13579.2698,-3457.9384L13579.3,-3457.9381L13579.3497,-3457.9381L13579.3646,-3457.9482L13579.3783,-3457.9576L13579.3825,-3457.9778L13579.3902,-3457.98L13579.3903,-3457.9801L13579.4059,-3457.9802L13579.4725,-3457.9806L13579.4906,-3457.9835L13579.5025,-3457.9853L13579.5239,-3457.9837L13579.5183,-3457.9412L13579.5179,-3457.928L13579.5175,-3457.9142L13579.5308,-3457.9017L13579.5483,-3457.8892L13579.5636,-3457.8828L13579.5739,-3457.8756L13579.5758,-3457.8687L13579.5736,-3457.8387L13579.5544,-3457.8315L13579.5453,-3457.8201L13579.5444,-3457.8098L13579.5308,-3457.8131L13579.5369,-3457.794L13579.5641,-3457.7948L13579.6072,-3457.7948L13579.6364,-3457.7955L13579.6933,-3457.7967L13579.7147,-3457.7979L13579.7489,-3457.7942L13579.7489,-3457.7476L13579.7527,-3457.7284L13579.7514,-3457.7112L13579.7536,-3457.6951L13579.8966,-3457.6948L13579.8983,-3457.7542L13579.8966,-3457.7737L13579.8966,-3457.8084L13579.8986,-3457.8537L13579.8999,-3457.8692L13579.9007,-3457.8915L13579.9019,-3457.9267L13579.9033,-3457.962L13579.9033,-3457.9817L13579.9083,-3457.997L13579.9352,-3457.9987L13579.9561,-3458.0628L13579.9619,-3458.0901L13579.9777,-3458.1331L13579.9794,-3458.1459L13579.9658,-3458.1551L13579.9671,-3458.1681L13579.9688,-3458.1864L13579.9793,-3458.2573L13579.9797,-3458.2597L13579.9791,-3458.2764L13579.9602,-3458.2892L13579.9238,-3458.2936L13579.9255,-3458.3206L13579.9286,-3458.3333L13579.9317,-3458.3462L13579.9349,-3458.3592L13579.9367,-3458.3723L13579.9372,-3458.3759L13579.9455,-3458.375L13579.9908,-3458.3628L13580,-3458.3623L13580.0119,-3458.3617L13580.0253,-3458.3632L13580.0421,-3458.365L13580.0562,-3458.3657L13580.0791,-3458.3667L13580.0834,-3458.3678L13580.0969,-3458.3711L13580.1157,-3458.3706L13580.1282,-3458.3677L13580.1374,-3458.3656L13580.1465,-3458.364L13580.1599,-3458.3617L13580.2121,-3458.3361L13580.216,-3458.3333L13580.2299,-3458.3234L13580.2364,-3458.3195L13580.2535,-3458.3092L13580.2574,-3458.3093L13580.271,-3458.3097L13580.2896,-3458.3103L13580.2994,-3458.3106L13580.3104,-3458.3109L13580.3299,-3458.3114L13580.3704,-3458.3125L13580.391,-3458.3136L13580.4046,-3458.3228L13580.4042,-3458.3333L13580.4027,-3458.3761L13580.405,-3458.3937L13580.4063,-3458.4034L13580.5099,-3458.4047L13580.5102,-3458.4403L13580.511,-3458.5106L13580.5132,-3458.5339L13580.5121,-3458.5981L13580.5131,-3458.6124L13580.5132,-3458.6367L13580.5141,-3458.6603L13580.5126,-3458.6817L13580.5092,-3458.7302L13580.5112,-3458.7815L13580.5123,-3458.8104L13580.5119,-3458.8327L13580.5108,-3458.8876L13580.5126,-3458.924L13580.5135,-3458.9436L13580.5148,-3458.9702L13580.5352,-3458.9715L13580.5435,-3458.9666L13580.5697,-3458.9507Z"/>
</g>
</svg>
