<?xml version="1.0" encoding="UTF-8"?>
<svg  xmlns="http://www.w3.org/2000/svg" xmlns:xlink="http://www.w3.org/1999/xlink" xmlns:go="http://purl.org/svgmap/profile" property="geometry,N03_001,N03_002,N03_003,N03_004,N03_005,N03_007" viewBox="13500.0 -3515.625 8.7890625 8.7890625" go:dataArea="13500.0 -3515.625 8.7890625 8.7890625" >
<metadata>
 <rdf:RDF xmlns:rdf="http://www.w3.org/1999/02/22-rdf-syntax-ns#" xmlns:crs="http://opengis.org/xmldtds/transformations.dtd" xmlns:svg="http://www.w3.org/svg" >
  <rdf:Description>
   <crs:CoordinateReferenceSystem rdf:resource="http://purl.org/crs/84" svg:transform="matrix(100.0,0.0,0.0,-100.0,0.0,0.0)" />
  </rdf:Description>
 </rdf:RDF>
</metadata>
<globalCoordinateSystem srsName="http://purl.org/crs/84" transform="matrix(100.0,0.0,0.0,-100.0,0.0,0.0)" />
<defs>
 <g id="p0" >
  <circle cx="0.0" cy="0.0" r="3" stroke="green" stroke-width="2.0" vector-effect="non-scaling-stroke" />
 </g>
</defs>
<g fill="#0000ff" fill-rule="evenodd" opacity="0.5" >
<path content="兵庫県,,,西脇市,,28213" xlink:title="兵庫県" d="M13502.7089,-3507.1059L13502.6951,-3507.0952L13502.6905,-3507.0912L13502.682,-3507.0838L13502.6639,-3507.066L13502.6544,-3507.0509L13502.6392,-3507.0252L13502.6218,-3507.0043L13502.6131,-3506.9876L13502.6101,-3506.98L13502.608,-3506.9749L13502.6073,-3506.935L13502.6022,-3506.9201L13502.5957,-3506.9069L13502.5681,-3506.8799L13502.5456,-3506.8572L13502.5293,-3506.8359L13500,-3506.8359L13500,-3507.0525L13500.0032,-3507.0555L13500.0141,-3507.0597L13500.0275,-3507.0638L13500.0479,-3507.0668L13500.066,-3507.0668L13500.0863,-3507.0639L13500.1037,-3507.0615L13500.1312,-3507.0555L13500.1595,-3507.0508L13500.2161,-3507.0508L13500.24,-3507.0519L13500.2669,-3507.0513L13500.3017,-3507.0633L13500.3144,-3507.0668L13500.3326,-3507.0674L13500.3521,-3507.0686L13500.371,-3507.0668L13500.3927,-3507.0633L13500.4138,-3507.0615L13500.4319,-3507.0603L13500.4537,-3507.0609L13500.4704,-3507.0555L13500.4849,-3507.0448L13500.5124,-3507.0275L13500.5342,-3507.0185L13500.5451,-3507.0173L13500.5683,-3507.0203L13500.5951,-3507.0287L13500.6111,-3507.04L13500.6212,-3507.0513L13500.6343,-3507.0573L13500.6398,-3507.0598L13500.6553,-3507.0668L13500.6755,-3507.0758L13500.6936,-3507.0824L13500.7154,-3507.0895L13500.7349,-3507.0937L13500.7785,-3507.0961L13500.7908,-3507.1003L13500.8111,-3507.1032L13500.8292,-3507.1068L13500.8333,-3507.1085L13500.8452,-3507.1134L13500.8937,-3507.1283L13500.9356,-3507.1403L13500.9626,-3507.1479L13500.9648,-3507.1486L13500.983,-3507.1528L13501.033,-3507.1629L13501.0512,-3507.1673L13501.0577,-3507.1689L13501.0783,-3507.1713L13501.1124,-3507.1766L13501.1377,-3507.1796L13501.1624,-3507.1814L13501.1836,-3507.1814L13501.2017,-3507.1796L13501.2191,-3507.1766L13501.2771,-3507.1731L13501.2955,-3507.1724L13501.3112,-3507.1719L13501.3315,-3507.1713L13501.3514,-3507.1689L13501.3899,-3507.1647L13501.4116,-3507.1629L13501.4377,-3507.1588L13501.4551,-3507.1558L13501.4647,-3507.154L13501.4747,-3507.1522L13501.4883,-3507.1512L13501.5001,-3507.1504L13501.533,-3507.148L13501.5434,-3507.1472L13501.5976,-3507.1432L13501.6536,-3507.1384L13501.6667,-3507.1374L13501.7079,-3507.1343L13501.7386,-3507.1301L13501.8038,-3507.1218L13501.9,-3507.1104L13501.9254,-3507.1069L13501.9464,-3507.1045L13501.9747,-3507.1027L13502.0301,-3507.1045L13502.0954,-3507.1099L13502.1269,-3507.1118L13502.1739,-3507.1146L13502.2413,-3507.1242L13502.3139,-3507.1349L13502.3831,-3507.1451L13502.4672,-3507.1635L13502.5,-3507.1737L13502.502,-3507.1743L13502.5194,-3507.1779L13502.531,-3507.1832L13502.5368,-3507.1859L13502.5412,-3507.188L13502.5514,-3507.1963L13502.566,-3507.2095L13502.595,-3507.2298L13502.6022,-3507.2315L13502.6099,-3507.2245L13502.6414,-3507.1958L13502.6548,-3507.1827L13502.6914,-3507.1472L13502.7031,-3507.1341L13502.7117,-3507.1233L13502.7132,-3507.1144L13502.7089,-3507.1059Z"/>
<path content="兵庫県,,,丹波市,,28223" xlink:title="兵庫県" d="M13500,-3515.625L13508.7891,-3515.625L13508.7891,-3506.8359L13502.5293,-3506.8359L13502.5456,-3506.8572L13502.5681,-3506.8799L13502.5957,-3506.9069L13502.6022,-3506.9201L13502.6073,-3506.935L13502.608,-3506.9749L13502.6101,-3506.98L13502.6131,-3506.9876L13502.6218,-3507.0043L13502.6392,-3507.0252L13502.6544,-3507.0509L13502.6639,-3507.066L13502.682,-3507.0838L13502.6905,-3507.0912L13502.6951,-3507.0952L13502.7089,-3507.1059L13502.7132,-3507.1144L13502.7117,-3507.1233L13502.7031,-3507.1341L13502.6914,-3507.1472L13502.6548,-3507.1827L13502.6414,-3507.1958L13502.6099,-3507.2245L13502.6022,-3507.2315L13502.595,-3507.2298L13502.566,-3507.2095L13502.5514,-3507.1963L13502.5412,-3507.188L13502.5368,-3507.1859L13502.531,-3507.1832L13502.5194,-3507.1779L13502.502,-3507.1743L13502.5,-3507.1737L13502.4672,-3507.1635L13502.3831,-3507.1451L13502.3139,-3507.1349L13502.2413,-3507.1242L13502.1739,-3507.1146L13502.1269,-3507.1118L13502.0954,-3507.1099L13502.0301,-3507.1045L13501.9747,-3507.1027L13501.9464,-3507.1045L13501.9254,-3507.1069L13501.9,-3507.1104L13501.8038,-3507.1218L13501.7386,-3507.1301L13501.7079,-3507.1343L13501.6667,-3507.1374L13501.6536,-3507.1384L13501.5976,-3507.1432L13501.5434,-3507.1472L13501.533,-3507.148L13501.5001,-3507.1504L13501.4883,-3507.1512L13501.4747,-3507.1522L13501.4647,-3507.154L13501.4551,-3507.1558L13501.4377,-3507.1588L13501.4116,-3507.1629L13501.3899,-3507.1647L13501.3514,-3507.1689L13501.3315,-3507.1713L13501.3112,-3507.1719L13501.2955,-3507.1724L13501.2771,-3507.1731L13501.2191,-3507.1766L13501.2017,-3507.1796L13501.1836,-3507.1814L13501.1624,-3507.1814L13501.1377,-3507.1796L13501.1124,-3507.1766L13501.0783,-3507.1713L13501.0577,-3507.1689L13501.0512,-3507.1673L13501.033,-3507.1629L13500.983,-3507.1528L13500.9648,-3507.1486L13500.9626,-3507.1479L13500.9356,-3507.1403L13500.8937,-3507.1283L13500.8452,-3507.1134L13500.8333,-3507.1085L13500.8292,-3507.1068L13500.8111,-3507.1032L13500.7908,-3507.1003L13500.7785,-3507.0961L13500.7349,-3507.0937L13500.7154,-3507.0895L13500.6936,-3507.0824L13500.6755,-3507.0758L13500.6553,-3507.0668L13500.6398,-3507.0598L13500.6343,-3507.0573L13500.6212,-3507.0513L13500.6111,-3507.04L13500.5951,-3507.0287L13500.5683,-3507.0203L13500.5451,-3507.0173L13500.5342,-3507.0185L13500.5124,-3507.0275L13500.4849,-3507.0448L13500.4704,-3507.0555L13500.4537,-3507.0609L13500.4319,-3507.0603L13500.4138,-3507.0615L13500.3927,-3507.0633L13500.371,-3507.0668L13500.3521,-3507.0686L13500.3326,-3507.0674L13500.3144,-3507.0668L13500.3017,-3507.0633L13500.2669,-3507.0513L13500.24,-3507.0519L13500.2161,-3507.0508L13500.1595,-3507.0508L13500.1312,-3507.0555L13500.1037,-3507.0615L13500.0863,-3507.0639L13500.066,-3507.0668L13500.0479,-3507.0668L13500.0275,-3507.0638L13500.0141,-3507.0597L13500.0032,-3507.0555L13500,-3507.0525Z"/>
</g>
</svg>
