<?xml version="1.0" encoding="UTF-8"?>
<svg  xmlns="http://www.w3.org/2000/svg" xmlns:xlink="http://www.w3.org/1999/xlink" xmlns:go="http://purl.org/svgmap/profile" property="geometry,N03_001,N03_002,N03_003,N03_004,N03_005,N03_007" viewBox="13521.97265625 -3559.5703125 4.39453125 4.39453125" go:dataArea="13521.97265625 -3559.5703125 4.39453125 4.39453125" >
<metadata>
 <rdf:RDF xmlns:rdf="http://www.w3.org/1999/02/22-rdf-syntax-ns#" xmlns:crs="http://opengis.org/xmldtds/transformations.dtd" xmlns:svg="http://www.w3.org/svg" >
  <rdf:Description>
   <crs:CoordinateReferenceSystem rdf:resource="http://purl.org/crs/84" svg:transform="matrix(100.0,0.0,0.0,-100.0,0.0,0.0)" />
  </rdf:Description>
 </rdf:RDF>
</metadata>
<globalCoordinateSystem srsName="http://purl.org/crs/84" transform="matrix(100.0,0.0,0.0,-100.0,0.0,0.0)" />
<defs>
 <g id="p0" >
  <circle cx="0.0" cy="0.0" r="3" stroke="green" stroke-width="2.0" vector-effect="non-scaling-stroke" />
 </g>
</defs>
<g fill="#0000ff" fill-rule="evenodd" opacity="0.5" >
<path content="京都府,,,宮津市,,26205" xlink:title="京都府" d="M13521.9727,-3559.5703L13521.9727,-3556.7159L13521.9993,-3556.7357L13522.0178,-3556.7478L13522.0414,-3556.7592L13522.0754,-3556.7737L13522.09,-3556.7784L13522.0912,-3556.7787L13522.0925,-3556.7791L13522.0948,-3556.7802L13522.1044,-3556.7898L13522.1151,-3556.8003L13522.1162,-3556.7997L13522.1675,-3556.8486L13522.2744,-3556.8097L13522.2734,-3556.8082L13522.1725,-3556.8448L13522.1442,-3556.8171L13522.1774,-3556.7937L13522.1744,-3556.7907L13522.2036,-3556.77L13522.2248,-3556.7557L13522.2456,-3556.7757L13522.2469,-3556.7747L13522.2132,-3556.7432L13522.221,-3556.7387L13522.2285,-3556.7358L13522.2298,-3556.7384L13522.2312,-3556.738L13522.2305,-3556.7351L13522.2443,-3556.7337L13522.2753,-3556.7316L13522.3226,-3556.7307L13522.3576,-3556.7365L13522.4033,-3556.7448L13522.4483,-3556.7567L13522.4884,-3556.7737L13522.4938,-3556.7688L13522.5,-3556.7723L13522.5366,-3556.7931L13522.5524,-3556.8076L13522.5731,-3556.8301L13522.5982,-3556.8572L13522.6211,-3556.8814L13522.6271,-3556.8785L13522.6284,-3556.8801L13522.6229,-3556.8833L13522.6242,-3556.8856L13522.6211,-3556.8877L13522.6309,-3556.8991L13522.652,-3556.9242L13522.6648,-3556.9437L13522.6725,-3556.9613L13522.6769,-3556.9621L13522.6803,-3556.962L13522.681,-3556.9609L13522.6776,-3556.9515L13522.6663,-3556.9275L13522.6711,-3556.9251L13522.6747,-3556.9323L13522.6844,-3556.9554L13522.6901,-3556.971L13522.6845,-3556.974L13522.6842,-3556.9741L13522.6834,-3556.9809L13522.6836,-3556.9849L13522.6865,-3556.9894L13522.6883,-3556.9929L13522.6917,-3556.9944L13522.6928,-3556.9955L13522.6979,-3557.0148L13522.6993,-3557.0185L13522.7061,-3557.0374L13522.7135,-3557.0385L13522.7138,-3557.0395L13522.7141,-3557.0409L13522.7133,-3557.0417L13522.7076,-3557.0446L13522.7074,-3557.0462L13522.7072,-3557.0501L13522.7025,-3557.0519L13522.7109,-3557.0647L13522.7152,-3557.0651L13522.7242,-3557.0805L13522.7318,-3557.0995L13522.728,-3557.1007L13522.7288,-3557.1032L13522.7331,-3557.1028L13522.7428,-3557.1303L13522.7444,-3557.1586L13522.7469,-3557.1719L13522.7492,-3557.1892L13522.7506,-3557.1912L13522.7569,-3557.2004L13522.7708,-3557.2764L13522.7722,-3557.2806L13522.7726,-3557.2969L13522.774,-3557.3076L13522.7756,-3557.3346L13522.7785,-3557.378L13522.7798,-3557.3841L13522.7834,-3557.4034L13522.7856,-3557.4282L13522.7856,-3557.4403L13522.7854,-3557.4441L13522.7845,-3557.4498L13522.783,-3557.4522L13522.7816,-3557.4528L13522.7807,-3557.4536L13522.7793,-3557.456L13522.7793,-3557.458L13522.7804,-3557.4591L13522.7876,-3557.4593L13522.7897,-3557.4602L13522.7914,-3557.4636L13522.7951,-3557.4758L13522.7978,-3557.4885L13522.7992,-3557.5L13522.7997,-3557.5042L13522.7988,-3557.5076L13522.7989,-3557.5102L13522.8004,-3557.5119L13522.8022,-3557.5135L13522.8078,-3557.5196L13522.8136,-3557.5227L13522.8183,-3557.5286L13522.8197,-3557.5328L13522.8193,-3557.5342L13522.818,-3557.5379L13522.819,-3557.5394L13522.8209,-3557.54L13522.8232,-3557.5423L13522.8249,-3557.5442L13522.8257,-3557.5468L13522.827,-3557.548L13522.829,-3557.5488L13522.8335,-3557.5496L13522.8352,-3557.5502L13522.8385,-3557.5527L13522.8417,-3557.5539L13522.8486,-3557.5556L13522.8576,-3557.5581L13522.8649,-3557.5624L13522.8714,-3557.567L13522.8759,-3557.5698L13522.8816,-3557.5703L13522.8894,-3557.5687L13522.8937,-3557.568L13522.8998,-3557.5678L13522.9049,-3557.566L13522.907,-3557.566L13522.9181,-3557.5668L13522.9216,-3557.5675L13522.9329,-3557.5698L13522.9437,-3557.5731L13522.9549,-3557.5784L13522.9636,-3557.5842L13522.9692,-3557.5885L13522.978,-3557.5963L13522.9966,-3557.6294L13523.0029,-3557.6427L13523.0073,-3557.6598L13523.0101,-3557.6877L13523.0111,-3557.7112L13523.0103,-3557.7485L13523.0094,-3557.7912L13523.0054,-3557.8411L13523.0034,-3557.8555L13522.9977,-3557.8889L13522.9914,-3557.9215L13522.9809,-3557.9583L13522.9705,-3557.9973L13522.9603,-3558.0208L13522.9602,-3558.0214L13522.9582,-3558.0325L13522.9579,-3558.0338L13522.9577,-3558.0349L13522.9562,-3558.0415L13522.9442,-3558.0386L13522.9434,-3558.0409L13522.9562,-3558.0438L13522.9525,-3558.0537L13522.9427,-3558.0807L13522.9269,-3558.1205L13522.9162,-3558.1455L13522.8411,-3558.1233L13522.8403,-3558.1256L13522.8844,-3558.1392L13522.8846,-3558.1384L13522.9169,-3558.1487L13522.9078,-3558.1698L13522.8645,-3558.1567L13522.863,-3558.1601L13522.905,-3558.1725L13522.9031,-3558.1758L13522.8906,-3558.203L13522.8798,-3558.2014L13522.8793,-3558.2025L13522.8723,-3558.218L13522.8843,-3558.2221L13522.8755,-3558.2442L13522.8738,-3558.244L13522.8641,-3558.2682L13522.8577,-3558.2807L13522.8535,-3558.2814L13522.8429,-3558.3054L13522.8343,-3558.3235L13522.8308,-3558.3294L13522.8296,-3558.3333L13522.8272,-3558.3413L13522.8265,-3558.3514L13522.8183,-3558.3734L13522.8174,-3558.3779L13522.8171,-3558.3843L13522.8177,-3558.3866L13522.8188,-3558.3914L13522.8206,-3558.3952L13522.8227,-3558.4014L13522.8285,-3558.4091L13522.8374,-3558.4183L13522.8411,-3558.42L13522.8459,-3558.4282L13522.846,-3558.431L13522.8431,-3558.4376L13522.8367,-3558.4436L13522.8287,-3558.4486L13522.8245,-3558.4511L13522.815,-3558.4576L13522.8029,-3558.4638L13522.8005,-3558.4655L13522.7993,-3558.471L13522.8001,-3558.4807L13522.7995,-3558.4899L13522.7975,-3558.4924L13522.7938,-3558.4956L13522.7835,-3558.5054L13522.7812,-3558.509L13522.7805,-3558.513L13522.7804,-3558.5157L13522.7803,-3558.5168L13522.7804,-3558.5204L13522.7814,-3558.5273L13522.783,-3558.5307L13522.7863,-3558.5333L13522.7921,-3558.5348L13522.7965,-3558.5365L13522.7992,-3558.5397L13522.8033,-3558.5449L13522.8032,-3558.5464L13522.8005,-3558.5489L13522.7989,-3558.5509L13522.7989,-3558.5531L13522.8006,-3558.556L13522.8029,-3558.558L13522.807,-3558.5581L13522.8104,-3558.5575L13522.8133,-3558.5587L13522.8171,-3558.5619L13522.8231,-3558.5701L13522.824,-3558.5727L13522.8256,-3558.575L13522.8276,-3558.5765L13522.8311,-3558.5773L13522.8421,-3558.577L13522.8492,-3558.5775L13522.8532,-3558.579L13522.8592,-3558.5822L13522.8725,-3558.5901L13522.8814,-3558.5936L13522.886,-3558.5955L13522.8865,-3558.5963L13522.8859,-3558.5972L13522.8836,-3558.5978L13522.8764,-3558.5976L13522.8701,-3558.597L13522.8675,-3558.5978L13522.8667,-3558.5988L13522.8666,-3558.5998L13522.8673,-3558.601L13522.8694,-3558.6018L13522.8782,-3558.6026L13522.8834,-3558.6033L13522.8861,-3558.6052L13522.8904,-3558.6081L13522.8959,-3558.6103L13522.9036,-3558.6111L13522.9095,-3558.6111L13522.9153,-3558.609L13522.9189,-3558.605L13522.9224,-3558.598L13522.9247,-3558.5968L13522.9303,-3558.5982L13522.9398,-3558.5999L13522.9466,-3558.6002L13522.9523,-3558.5988L13522.957,-3558.5949L13522.9628,-3558.5884L13522.9673,-3558.5803L13522.973,-3558.5656L13522.9744,-3558.5638L13522.9758,-3558.5636L13522.9794,-3558.5672L13522.9847,-3558.5732L13522.9875,-3558.5746L13522.9896,-3558.5746L13522.9922,-3558.5735L13522.9938,-3558.572L13522.9934,-3558.5687L13522.9901,-3558.5645L13522.9775,-3558.555L13522.9433,-3558.5167L13522.9433,-3558.5154L13522.9433,-3558.5082L13522.9454,-3558.5001L13522.9533,-3558.4793L13522.9644,-3558.4611L13522.9745,-3558.4469L13522.9966,-3558.4234L13523.0273,-3558.3952L13523.0534,-3558.3735L13523.0748,-3558.3569L13523.1026,-3558.3386L13523.1111,-3558.3333L13523.1342,-3558.3191L13523.1696,-3558.2995L13523.1978,-3558.2851L13523.2363,-3558.2669L13523.257,-3558.2564L13523.2606,-3558.2541L13523.2639,-3558.2534L13523.2889,-3558.2429L13523.3157,-3558.2301L13523.3333,-3558.2225L13523.348,-3558.2161L13523.3772,-3558.2033L13523.3924,-3558.1953L13523.3963,-3558.1929L13523.4065,-3558.1894L13523.4399,-3558.178L13523.4591,-3558.171L13523.4813,-3558.1646L13523.5059,-3558.1574L13523.5293,-3558.1502L13523.5437,-3558.147L13523.5609,-3558.1439L13523.5863,-3558.14L13523.6108,-3558.1379L13523.6361,-3558.1362L13523.6556,-3558.1353L13523.6647,-3558.1353L13523.6875,-3558.1375L13523.7139,-3558.1406L13523.7341,-3558.1441L13523.7608,-3558.1515L13523.7759,-3558.1566L13523.7802,-3558.1589L13523.783,-3558.1613L13523.7831,-3558.1633L13523.7833,-3558.1678L13523.783,-3558.176L13523.7835,-3558.1792L13523.7946,-3558.1836L13523.8119,-3558.1897L13523.8139,-3558.1904L13523.826,-3558.1952L13523.8324,-3558.2025L13523.8334,-3558.2052L13523.8376,-3558.2109L13523.8508,-3558.2192L13523.8576,-3558.2256L13523.865,-3558.2317L13523.8659,-3558.2324L13523.8708,-3558.2344L13523.8787,-3558.2362L13523.8861,-3558.2364L13523.8975,-3558.2395L13523.9264,-3558.2556L13523.9353,-3558.264L13523.9428,-3558.2717L13523.9529,-3558.2759L13523.9652,-3558.2783L13523.9857,-3558.288L13524.0077,-3558.3015L13524.0311,-3558.316L13524.0516,-3558.3287L13524.0583,-3558.3333L13524.0662,-3558.3387L13524.0787,-3558.3474L13524.1016,-3558.3659L13524.1174,-3558.3802L13524.1066,-3558.3856L13524.0838,-3558.3991L13524.0888,-3558.4048L13524.0937,-3558.4019L13524.1231,-3558.3856L13524.1287,-3558.3916L13524.143,-3558.4067L13524.1614,-3558.4275L13524.1667,-3558.4347L13524.1828,-3558.4566L13524.199,-3558.482L13524.2138,-3558.5092L13524.1933,-3558.5166L13524.1934,-3558.5168L13524.1967,-3558.5246L13524.1979,-3558.5246L13524.2017,-3558.5327L13524.1912,-3558.5363L13524.2154,-3558.5865L13524.1894,-3558.595L13524.1667,-3558.6024L13524.1449,-3558.6094L13524.1085,-3558.5335L13524.1055,-3558.5345L13524.1173,-3558.5598L13524.1416,-3558.6103L13524.1424,-3558.6103L13524.1572,-3558.6397L13524.1539,-3558.6387L13524.1492,-3558.6388L13524.1432,-3558.6403L13524.1402,-3558.6421L13524.1361,-3558.6462L13524.1328,-3558.6498L13524.1316,-3558.6505L13524.1295,-3558.6509L13524.1263,-3558.6511L13524.1232,-3558.6516L13524.1208,-3558.6534L13524.1167,-3558.6566L13524.1156,-3558.6572L13524.1144,-3558.6575L13524.1075,-3558.663L13524.1029,-3558.6673L13524.0982,-3558.6724L13524.094,-3558.6807L13524.0923,-3558.6846L13524.0915,-3558.6881L13524.0905,-3558.6907L13524.0892,-3558.6942L13524.087,-3558.6991L13524.0849,-3558.7028L13524.0825,-3558.7048L13524.0799,-3558.7057L13524.0751,-3558.7064L13524.0698,-3558.7088L13524.0657,-3558.7116L13524.0616,-3558.7181L13524.059,-3558.7224L13524.0574,-3558.7243L13524.0574,-3558.7264L13524.0617,-3558.7324L13524.0749,-3558.7489L13524.0769,-3558.7543L13524.0787,-3558.7579L13524.0825,-3558.7605L13524.0957,-3558.7643L13524.1018,-3558.7667L13524.1062,-3558.77L13524.11,-3558.7746L13524.1143,-3558.7804L13524.1182,-3558.7856L13524.1208,-3558.7882L13524.1248,-3558.7897L13524.1294,-3558.7902L13524.162,-3558.7844L13524.1667,-3558.7831L13524.1724,-3558.7815L13524.1793,-3558.78L13524.1893,-3558.7779L13524.2151,-3558.7745L13524.2312,-3558.7722L13524.2342,-3558.7721L13524.261,-3558.7719L13524.2875,-3558.7721L13524.3153,-3558.7722L13524.3254,-3558.772L13524.3415,-3558.7732L13524.3533,-3558.7746L13524.357,-3558.7752L13524.3732,-3558.7784L13524.3956,-3558.7856L13524.4374,-3558.8013L13524.4589,-3558.8109L13524.4726,-3558.818L13524.478,-3558.8222L13524.4828,-3558.8259L13524.4907,-3558.8339L13524.494,-3558.8406L13524.4917,-3558.8466L13524.4917,-3558.8533L13524.4977,-3558.8602L13524.504,-3558.8672L13524.5067,-3558.8749L13524.5071,-3558.8849L13524.5077,-3558.8935L13524.5104,-3558.8985L13524.5133,-3558.9012L13524.5194,-3558.9034L13524.5221,-3558.9064L13524.5221,-3558.9122L13524.5216,-3558.9161L13524.523,-3558.9185L13524.5239,-3558.9203L13524.5242,-3558.9217L13524.5239,-3558.9228L13524.5236,-3558.9235L13524.5226,-3558.9241L13524.5206,-3558.925L13524.5168,-3558.9294L13524.514,-3558.9348L13524.5138,-3558.9398L13524.5144,-3558.9429L13524.5157,-3558.9453L13524.5192,-3558.9463L13524.5239,-3558.9466L13524.5257,-3558.9479L13524.5273,-3558.9499L13524.5283,-3558.9519L13524.5304,-3558.9619L13524.5298,-3558.9649L13524.5267,-3558.9698L13524.5262,-3558.9736L13524.5261,-3558.9756L13524.5242,-3558.9791L13524.5247,-3558.9798L13524.5272,-3558.9798L13524.5284,-3558.9812L13524.5286,-3558.9836L13524.5297,-3558.9845L13524.5312,-3558.9847L13524.5315,-3558.9823L13524.5319,-3558.981L13524.5326,-3558.9809L13524.5336,-3558.9817L13524.5339,-3558.983L13524.5338,-3558.9859L13524.5343,-3558.9875L13524.5359,-3558.9889L13524.5368,-3558.9899L13524.5375,-3558.9914L13524.5371,-3558.9926L13524.5338,-3558.9948L13524.5315,-3558.9968L13524.5311,-3559.0008L13524.5325,-3559.004L13524.5345,-3559.005L13524.5383,-3559.0043L13524.5404,-3559.0042L13524.5428,-3559.0062L13524.5441,-3559.0083L13524.544,-3559.0098L13524.5425,-3559.0117L13524.5379,-3559.0134L13524.5347,-3559.0146L13524.5325,-3559.0172L13524.531,-3559.0187L13524.5318,-3559.0195L13524.5362,-3559.0204L13524.5417,-3559.02L13524.5426,-3559.0201L13524.5424,-3559.0214L13524.5408,-3559.0224L13524.5371,-3559.0235L13524.5339,-3559.0258L13524.5308,-3559.0286L13524.5306,-3559.0302L13524.5322,-3559.0315L13524.5355,-3559.0318L13524.54,-3559.0316L13524.5442,-3559.0316L13524.5489,-3559.0325L13524.5521,-3559.0336L13524.5545,-3559.0351L13524.5637,-3559.0411L13524.5659,-3559.0434L13524.5671,-3559.047L13524.5665,-3559.0523L13524.5658,-3559.058L13524.5655,-3559.0632L13524.5668,-3559.0669L13524.5716,-3559.0721L13524.5757,-3559.0785L13524.5788,-3559.0841L13524.581,-3559.092L13524.5822,-3559.1021L13524.5839,-3559.1069L13524.5836,-3559.1113L13524.5825,-3559.1149L13524.5814,-3559.12L13524.5819,-3559.1253L13524.5836,-3559.1292L13524.5871,-3559.1332L13524.5903,-3559.1346L13524.5933,-3559.1351L13524.5971,-3559.1352L13524.6039,-3559.1366L13524.6083,-3559.1367L13524.6122,-3559.1368L13524.6171,-3559.1359L13524.6199,-3559.1333L13524.6211,-3559.1297L13524.6213,-3559.1272L13524.6228,-3559.127L13524.6243,-3559.1272L13524.6271,-3559.1286L13524.6296,-3559.1296L13524.6308,-3559.1301L13524.6323,-3559.1298L13524.6333,-3559.1289L13524.634,-3559.1272L13524.6339,-3559.1217L13524.6355,-3559.1041L13524.6377,-3559.0953L13524.6426,-3559.0872L13524.6466,-3559.0796L13524.6504,-3559.0757L13524.6599,-3559.0691L13524.6625,-3559.0677L13524.6671,-3559.0654L13524.6814,-3559.0628L13524.6955,-3559.0624L13524.7067,-3559.0629L13524.7142,-3559.0635L13524.7241,-3559.0642L13524.7393,-3559.0658L13524.7499,-3559.0677L13524.7593,-3559.07L13524.762,-3559.0708L13524.7684,-3559.0726L13524.7767,-3559.0766L13524.7865,-3559.0834L13524.8009,-3559.0935L13524.8035,-3559.0948L13524.8066,-3559.0968L13524.8108,-3559.1019L13524.8114,-3559.1062L13524.8114,-3559.1151L13524.8097,-3559.1267L13524.808,-3559.1339L13524.807,-3559.1446L13524.8055,-3559.1528L13524.806,-3559.1667L13524.8061,-3559.1678L13524.8109,-3559.18L13524.8149,-3559.1857L13524.8183,-3559.189L13524.821,-3559.1933L13524.8233,-3559.2046L13524.8238,-3559.2102L13524.8256,-3559.2131L13524.829,-3559.2153L13524.8334,-3559.2168L13524.8366,-3559.2208L13524.8413,-3559.2262L13524.8472,-3559.2395L13524.8544,-3559.2552L13524.8607,-3559.2656L13524.8643,-3559.2706L13524.8661,-3559.2768L13524.8658,-3559.2793L13524.8658,-3559.2818L13524.8666,-3559.283L13524.8682,-3559.2838L13524.8703,-3559.2832L13524.8715,-3559.2823L13524.8732,-3559.2813L13524.8757,-3559.2807L13524.8796,-3559.281L13524.8908,-3559.2889L13524.9025,-3559.2961L13524.909,-3559.3012L13524.9145,-3559.3054L13524.921,-3559.3072L13524.9249,-3559.308L13524.9292,-3559.3088L13524.9376,-3559.3137L13524.9505,-3559.3217L13524.9582,-3559.3267L13524.9658,-3559.3316L13524.9675,-3559.3341L13524.9676,-3559.337L13524.9659,-3559.3394L13524.9626,-3559.3435L13524.9621,-3559.3464L13524.9628,-3559.3487L13524.9646,-3559.3492L13524.9675,-3559.3491L13524.9718,-3559.3475L13524.9754,-3559.3455L13524.9788,-3559.3441L13524.9811,-3559.3439L13524.9833,-3559.3452L13524.9838,-3559.3478L13524.984,-3559.3504L13524.9854,-3559.3523L13524.9878,-3559.3533L13524.9953,-3559.3541L13524.9974,-3559.3551L13525,-3559.3574L13525.019,-3559.3741L13525.0205,-3559.3764L13525.0204,-3559.3789L13525.0213,-3559.3805L13525.0238,-3559.3815L13525.027,-3559.3821L13525.0301,-3559.3825L13525.0336,-3559.3823L13525.0374,-3559.3815L13525.0408,-3559.3808L13525.0442,-3559.3807L13525.0832,-3559.3896L13525.0865,-3559.3908L13525.0902,-3559.3931L13525.0939,-3559.397L13525.0957,-3559.3996L13525.0966,-3559.4029L13525.0966,-3559.4077L13525.0949,-3559.4172L13525.0943,-3559.4191L13525.0939,-3559.421L13525.0898,-3559.4249L13525.0871,-3559.4269L13525.0853,-3559.4292L13525.0846,-3559.4314L13525.0841,-3559.4344L13525.0835,-3559.4391L13525.0829,-3559.4441L13525.0826,-3559.4482L13525.0819,-3559.4522L13525.0797,-3559.4582L13525.0763,-3559.4631L13525.0734,-3559.4669L13525.071,-3559.4689L13525.0693,-3559.4719L13525.0689,-3559.4754L13525.0687,-3559.4791L13525.0694,-3559.4837L13525.0696,-3559.4867L13525.069,-3559.4895L13525.0698,-3559.4913L13525.0718,-3559.493L13525.0716,-3559.4951L13525.0709,-3559.4968L13525.0697,-3559.4987L13525.068,-3559.501L13525.0633,-3559.5033L13525.0609,-3559.5048L13525.0592,-3559.5067L13525.0581,-3559.5083L13525.0569,-3559.5105L13525.0559,-3559.5131L13525.0555,-3559.5177L13525.0547,-3559.5208L13525.0535,-3559.524L13525.0527,-3559.5276L13525.0534,-3559.532L13525.0558,-3559.5346L13525.0578,-3559.5354L13525.0634,-3559.5379L13525.0637,-3559.5388L13525.0628,-3559.54L13525.0619,-3559.5421L13525.0623,-3559.5447L13525.0639,-3559.5465L13525.0666,-3559.5479L13525.0719,-3559.5501L13525.0743,-3559.5523L13525.0764,-3559.5541L13525.0788,-3559.5554L13525.0823,-3559.5566L13525.0838,-3559.558L13525.0849,-3559.5598L13525.0843,-3559.5621L13525.0839,-3559.5653L13525.0831,-3559.5686L13525.0818,-3559.5698L13525.0816,-3559.5703L13525.6037,-3559.5703L13525.605,-3559.5684L13525.6076,-3559.5658L13525.6099,-3559.5635L13525.6096,-3559.5606L13525.603,-3559.5555L13525.5991,-3559.5536L13525.595,-3559.5528L13525.5917,-3559.5515L13525.5901,-3559.5494L13525.5911,-3559.5457L13525.5924,-3559.541L13525.5924,-3559.5355L13525.591,-3559.5201L13525.5912,-3559.5115L13525.5914,-3559.5047L13525.5917,-3559.4979L13525.5965,-3559.493L13525.6083,-3559.4874L13525.6111,-3559.4852L13525.6107,-3559.4814L13525.6084,-3559.4774L13525.6085,-3559.4736L13525.6139,-3559.4638L13525.6249,-3559.4612L13525.6391,-3559.4619L13525.6435,-3559.4605L13525.6519,-3559.4529L13525.6549,-3559.4494L13525.6573,-3559.4445L13525.658,-3559.4416L13525.6582,-3559.4391L13525.6573,-3559.4375L13525.6552,-3559.4351L13525.6533,-3559.4343L13525.6486,-3559.4322L13525.6453,-3559.4322L13525.6415,-3559.4332L13525.6392,-3559.4333L13525.6431,-3559.4301L13525.6482,-3559.4294L13525.65,-3559.427L13525.6514,-3559.4233L13525.6517,-3559.4202L13525.652,-3559.4183L13525.6489,-3559.4158L13525.6451,-3559.4149L13525.6415,-3559.4144L13525.6407,-3559.414L13525.6326,-3559.4139L13525.6246,-3559.4127L13525.5969,-3559.4112L13525.5895,-3559.409L13525.589,-3559.4036L13525.5906,-3559.4L13525.599,-3559.3967L13525.612,-3559.3966L13525.6154,-3559.3941L13525.6159,-3559.3874L13525.6147,-3559.3842L13525.6106,-3559.3834L13525.6056,-3559.3809L13525.603,-3559.3734L13525.6053,-3559.3671L13525.6182,-3559.3631L13525.6183,-3559.3577L13525.6106,-3559.3528L13525.6032,-3559.3493L13525.6064,-3559.3387L13525.6132,-3559.3276L13525.6224,-3559.3179L13525.6399,-3559.3091L13525.6453,-3559.3015L13525.6504,-3559.2904L13525.6525,-3559.2852L13525.6539,-3559.2804L13525.6518,-3559.2749L13525.6502,-3559.2716L13525.6486,-3559.269L13525.6458,-3559.2682L13525.6421,-3559.268L13525.639,-3559.2683L13525.6289,-3559.2724L13525.6268,-3559.2728L13525.6234,-3559.2718L13525.6199,-3559.2684L13525.6139,-3559.2611L13525.612,-3559.2581L13525.6108,-3559.2545L13525.6094,-3559.2506L13525.6059,-3559.2472L13525.5942,-3559.2437L13525.5786,-3559.2371L13525.5647,-3559.2324L13525.5539,-3559.2294L13525.5529,-3559.2263L13525.5537,-3559.2238L13525.5541,-3559.2209L13525.5542,-3559.2182L13525.553,-3559.217L13525.5505,-3559.2166L13525.5463,-3559.2163L13525.5421,-3559.2181L13525.5407,-3559.2201L13525.542,-3559.2228L13525.5417,-3559.2245L13525.5393,-3559.225L13525.5376,-3559.225L13525.5341,-3559.2236L13525.5296,-3559.2252L13525.5266,-3559.2252L13525.525,-3559.2245L13525.5206,-3559.2205L13525.5151,-3559.2189L13525.5089,-3559.2165L13525.5046,-3559.213L13525.5014,-3559.2099L13525.5009,-3559.2088L13525.4976,-3559.2024L13525.4979,-3559.2006L13525.5,-3559.1982L13525.5079,-3559.1933L13525.5079,-3559.1911L13525.5071,-3559.19L13525.5048,-3559.1901L13525.5003,-3559.192L13525.4973,-3559.1937L13525.4944,-3559.1949L13525.491,-3559.1945L13525.4905,-3559.1928L13525.4913,-3559.1888L13525.4943,-3559.1842L13525.4963,-3559.1785L13525.4962,-3559.1745L13525.4946,-3559.1718L13525.4952,-3559.1691L13525.498,-3559.1667L13525.4988,-3559.166L13525.5036,-3559.1623L13525.5082,-3559.1616L13525.5118,-3559.1597L13525.5137,-3559.1561L13525.5167,-3559.1508L13525.5203,-3559.1473L13525.5206,-3559.1447L13525.5178,-3559.1444L13525.5158,-3559.145L13525.5134,-3559.1452L13525.5119,-3559.1438L13525.512,-3559.1418L13525.5135,-3559.1367L13525.5164,-3559.1272L13525.5163,-3559.1144L13525.5172,-3559.1079L13525.5171,-3559.1039L13525.5154,-3559.1003L13525.5159,-3559.0973L13525.5182,-3559.0947L13525.5272,-3559.0882L13525.5318,-3559.0764L13525.5356,-3559.0627L13525.5396,-3559.0543L13525.5397,-3559.0438L13525.5392,-3559.0431L13525.5365,-3559.0428L13525.5347,-3559.0425L13525.5343,-3559.0405L13525.5347,-3559.0384L13525.536,-3559.0352L13525.5363,-3559.0326L13525.5353,-3559.0305L13525.5321,-3559.0284L13525.5273,-3559.0289L13525.5261,-3559.0322L13525.5242,-3559.0331L13525.5226,-3559.0325L13525.5208,-3559.0297L13525.5211,-3559.0267L13525.5214,-3559.0241L13525.5236,-3559.023L13525.5261,-3559.0224L13525.5286,-3559.0224L13525.5301,-3559.023L13525.532,-3559.0223L13525.533,-3559.0204L13525.5368,-3559.0149L13525.5396,-3559.009L13525.5401,-3559.0025L13525.5402,-3558.9988L13525.5403,-3558.9955L13525.5404,-3558.9924L13525.5402,-3558.9894L13525.5404,-3558.9835L13525.5403,-3558.981L13525.5398,-3558.9795L13525.5392,-3558.978L13525.5389,-3558.9765L13525.5392,-3558.9743L13525.5399,-3558.9725L13525.5405,-3558.9711L13525.5468,-3558.956L13525.5479,-3558.9543L13525.5506,-3558.9519L13525.5522,-3558.9478L13525.5542,-3558.944L13525.5534,-3558.9405L13525.5503,-3558.9331L13525.5491,-3558.9274L13525.5486,-3558.9186L13525.5493,-3558.9124L13525.5516,-3558.9053L13525.556,-3558.9001L13525.561,-3558.8945L13525.5646,-3558.8894L13525.5684,-3558.8843L13525.58,-3558.8661L13525.5862,-3558.8574L13525.5871,-3558.8569L13525.5877,-3558.8573L13525.5872,-3558.8627L13525.5877,-3558.8641L13525.5901,-3558.8652L13525.5935,-3558.865L13525.603,-3558.8623L13525.6048,-3558.8619L13525.6071,-3558.8614L13525.6134,-3558.8591L13525.6157,-3558.8563L13525.6157,-3558.8542L13525.6151,-3558.8521L13525.6165,-3558.8509L13525.6244,-3558.8478L13525.6291,-3558.8426L13525.6307,-3558.8362L13525.631,-3558.8287L13525.6294,-3558.8241L13525.6268,-3558.8213L13525.622,-3558.8192L13525.6164,-3558.8194L13525.6119,-3558.8204L13525.6072,-3558.8268L13525.6053,-3558.8271L13525.604,-3558.8266L13525.602,-3558.8228L13525.5994,-3558.8191L13525.5965,-3558.8182L13525.5937,-3558.8177L13525.5898,-3558.8192L13525.584,-3558.8227L13525.5816,-3558.8274L13525.5799,-3558.8279L13525.5785,-3558.8272L13525.5748,-3558.8229L13525.5722,-3558.8202L13525.5704,-3558.8167L13525.5667,-3558.8154L13525.5629,-3558.8152L13525.558,-3558.8169L13525.554,-3558.82L13525.5519,-3558.8215L13525.5492,-3558.8219L13525.5427,-3558.8215L13525.5382,-3558.8243L13525.535,-3558.8258L13525.5317,-3558.8263L13525.527,-3558.8272L13525.5167,-3558.8287L13525.5155,-3558.8284L13525.5141,-3558.8274L13525.5135,-3558.8263L13525.5124,-3558.8242L13525.5119,-3558.8237L13525.5097,-3558.8228L13525.5075,-3558.8227L13525.5045,-3558.8217L13525.499,-3558.8196L13525.4859,-3558.8115L13525.4834,-3558.8106L13525.4799,-3558.8103L13525.4768,-3558.8106L13525.4724,-3558.8121L13525.47,-3558.8132L13525.4675,-3558.8137L13525.4652,-3558.8137L13525.4612,-3558.8119L13525.458,-3558.8102L13525.4555,-3558.8104L13525.4462,-3558.8135L13525.4403,-3558.8153L13525.4371,-3558.817L13525.4366,-3558.8184L13525.4374,-3558.8208L13525.4376,-3558.8229L13525.4367,-3558.8236L13525.4351,-3558.8241L13525.4327,-3558.8236L13525.4225,-3558.821L13525.4137,-3558.8201L13525.4078,-3558.8223L13525.403,-3558.8249L13525.3978,-3558.8294L13525.393,-3558.8349L13525.3885,-3558.8394L13525.3819,-3558.843L13525.3723,-3558.8469L13525.3661,-3558.8485L13525.3587,-3558.848L13525.3553,-3558.8466L13525.3532,-3558.8455L13525.351,-3558.8425L13525.3485,-3558.8382L13525.345,-3558.8319L13525.3412,-3558.8282L13525.3337,-3558.8257L13525.33,-3558.8251L13525.3255,-3558.8245L13525.319,-3558.8245L13525.3117,-3558.8266L13525.3096,-3558.8284L13525.3029,-3558.8373L13525.301,-3558.8398L13525.299,-3558.8415L13525.2966,-3558.8426L13525.2941,-3558.8428L13525.2928,-3558.8421L13525.292,-3558.8408L13525.2897,-3558.8357L13525.2881,-3558.8347L13525.2854,-3558.8345L13525.2829,-3558.8367L13525.2816,-3558.838L13525.2795,-3558.8379L13525.2779,-3558.8368L13525.2767,-3558.8348L13525.2751,-3558.8344L13525.2731,-3558.8349L13525.2686,-3558.8381L13525.2536,-3558.8489L13525.2517,-3558.8509L13525.2504,-3558.853L13525.2403,-3558.872L13525.2391,-3558.8764L13525.2376,-3558.878L13525.2351,-3558.8789L13525.2321,-3558.8789L13525.2272,-3558.8774L13525.2208,-3558.8766L13525.2137,-3558.8759L13525.2075,-3558.8751L13525.2026,-3558.8741L13525.1969,-3558.8721L13525.1924,-3558.8712L13525.1872,-3558.8716L13525.1815,-3558.8732L13525.1707,-3558.8771L13525.1432,-3558.8876L13525.1162,-3558.9023L13525.1024,-3558.9107L13525.0952,-3558.9155L13525.0854,-3558.9215L13525.0824,-3558.923L13525.0732,-3558.9275L13525.0676,-3558.9301L13525.0612,-3558.9316L13525.0552,-3558.9326L13525.051,-3558.933L13525.0465,-3558.9323L13525.0428,-3558.9318L13525.037,-3558.93L13525.0313,-3558.9277L13525.009,-3558.9144L13525,-3558.9091L13524.9811,-3558.8978L13524.9623,-3558.8857L13524.961,-3558.8848L13524.9453,-3558.8745L13524.939,-3558.8689L13524.9325,-3558.8614L13524.9311,-3558.8591L13524.9246,-3558.8459L13524.9224,-3558.8431L13524.9098,-3558.831L13524.8986,-3558.8203L13524.8979,-3558.8191L13524.8948,-3558.8107L13524.8936,-3558.8082L13524.8922,-3558.8065L13524.8908,-3558.8053L13524.8879,-3558.8048L13524.8851,-3558.8049L13524.8674,-3558.8057L13524.8618,-3558.8058L13524.8561,-3558.8045L13524.8525,-3558.8029L13524.8499,-3558.8007L13524.8433,-3558.791L13524.84,-3558.7854L13524.8351,-3558.7812L13524.83,-3558.7775L13524.8232,-3558.7748L13524.818,-3558.7737L13524.8104,-3558.7733L13524.8037,-3558.773L13524.7967,-3558.7738L13524.7917,-3558.7746L13524.7874,-3558.7748L13524.7835,-3558.7739L13524.7801,-3558.7719L13524.7758,-3558.7687L13524.7707,-3558.7622L13524.7658,-3558.7534L13524.7588,-3558.7335L13524.7466,-3558.6916L13524.7417,-3558.6567L13524.7398,-3558.6315L13524.7402,-3558.6146L13524.7394,-3558.5919L13524.7382,-3558.5712L13524.7373,-3558.556L13524.7388,-3558.5517L13524.7441,-3558.5432L13524.7506,-3558.532L13524.7532,-3558.5281L13524.7573,-3558.522L13524.7626,-3558.5168L13524.7699,-3558.5135L13524.7878,-3558.5094L13524.792,-3558.5097L13524.7969,-3558.5099L13524.8067,-3558.5117L13524.8142,-3558.5133L13524.8262,-3558.5138L13524.8402,-3558.5132L13524.852,-3558.51L13524.8641,-3558.5058L13524.8758,-3558.5004L13524.8881,-3558.4931L13524.902,-3558.483L13524.9131,-3558.4729L13524.9234,-3558.4627L13524.9317,-3558.4548L13524.9389,-3558.4487L13524.9466,-3558.4408L13524.9476,-3558.4382L13524.9509,-3558.4339L13524.9516,-3558.4317L13524.9516,-3558.4274L13524.9512,-3558.4244L13524.9514,-3558.4239L13524.9505,-3558.4234L13524.9494,-3558.4224L13524.9477,-3558.4195L13524.9461,-3558.4167L13524.946,-3558.4146L13524.9457,-3558.4122L13524.9454,-3558.4099L13524.9452,-3558.4014L13524.9441,-3558.3973L13524.9432,-3558.3945L13524.9427,-3558.3929L13524.9422,-3558.3915L13524.9413,-3558.39L13524.94,-3558.3881L13524.9385,-3558.3797L13524.9381,-3558.3773L13524.9374,-3558.3748L13524.9336,-3558.3673L13524.9271,-3558.3622L13524.9224,-3558.3599L13524.9135,-3558.3577L13524.9118,-3558.3574L13524.9101,-3558.3574L13524.8962,-3558.3585L13524.891,-3558.3599L13524.8844,-3558.3628L13524.8795,-3558.3654L13524.8748,-3558.3675L13524.8623,-3558.3707L13524.8491,-3558.3725L13524.8414,-3558.3728L13524.8366,-3558.3731L13524.8319,-3558.3731L13524.811,-3558.3729L13524.8041,-3558.373L13524.7956,-3558.3739L13524.7907,-3558.3743L13524.7847,-3558.3743L13524.7786,-3558.3744L13524.7752,-3558.3744L13524.7633,-3558.3701L13524.7583,-3558.3682L13524.7484,-3558.3644L13524.7418,-3558.3618L13524.7381,-3558.3603L13524.7214,-3558.3453L13524.714,-3558.3348L13524.7133,-3558.3333L13524.7078,-3558.323L13524.7031,-3558.3085L13524.7,-3558.2997L13524.6983,-3558.2916L13524.7025,-3558.2905L13524.7021,-3558.2891L13524.6981,-3558.2903L13524.6978,-3558.289L13524.6957,-3558.2818L13524.692,-3558.271L13524.6915,-3558.2673L13524.6933,-3558.2595L13524.6948,-3558.2549L13524.695,-3558.2536L13524.6976,-3558.2534L13524.6975,-3558.2519L13524.6954,-3558.2521L13524.6948,-3558.2512L13524.6933,-3558.2484L13524.6921,-3558.2377L13524.6919,-3558.2327L13524.6919,-3558.2294L13524.6936,-3558.2209L13524.6953,-3558.2185L13524.6974,-3558.2144L13524.6944,-3558.2027L13524.6948,-3558.1972L13524.6958,-3558.1959L13524.6973,-3558.1937L13524.6978,-3558.1907L13524.6994,-3558.191L13524.6996,-3558.1898L13524.6979,-3558.1895L13524.6985,-3558.1855L13524.7016,-3558.1688L13524.7058,-3558.1581L13524.7075,-3558.154L13524.7136,-3558.1446L13524.7168,-3558.1375L13524.7197,-3558.1311L13524.7237,-3558.1245L13524.7252,-3558.1209L13524.7295,-3558.1108L13524.7344,-3558.1047L13524.7408,-3558.098L13524.743,-3558.0963L13524.7464,-3558.0905L13524.7492,-3558.0822L13524.7504,-3558.079L13524.7577,-3558.0735L13524.7611,-3558.0687L13524.7708,-3558.0557L13524.7748,-3558.0514L13524.778,-3558.0422L13524.7824,-3558.0355L13524.7858,-3558.0302L13524.7896,-3558.018L13524.795,-3558.0088L13524.7972,-3558.0039L13524.7982,-3558.0013L13524.7996,-3557.9982L13524.8099,-3557.9897L13524.8138,-3557.9827L13524.8321,-3557.9624L13524.8471,-3557.9493L13524.858,-3557.9451L13524.8679,-3557.9431L13524.8735,-3557.941L13524.8781,-3557.9385L13524.8809,-3557.9362L13524.8846,-3557.9351L13524.8879,-3557.9351L13524.8905,-3557.9354L13524.8907,-3557.9354L13524.8925,-3557.936L13524.8943,-3557.9371L13524.8953,-3557.9381L13524.8976,-3557.9413L13524.8996,-3557.9424L13524.9029,-3557.9458L13524.905,-3557.9483L13524.9062,-3557.9494L13524.9077,-3557.951L13524.9108,-3557.9514L13524.9112,-3557.9492L13524.9114,-3557.9475L13524.9114,-3557.9455L13524.9089,-3557.9404L13524.9043,-3557.9349L13524.9028,-3557.9332L13524.9018,-3557.9322L13524.9014,-3557.9311L13524.9017,-3557.9306L13524.9041,-3557.9299L13524.9083,-3557.9295L13524.912,-3557.9291L13524.9134,-3557.9285L13524.9184,-3557.9278L13524.9206,-3557.9281L13524.9296,-3557.9302L13524.9311,-3557.9312L13524.9328,-3557.9328L13524.9338,-3557.9335L13524.936,-3557.9355L13524.9394,-3557.9375L13524.9408,-3557.9384L13524.9422,-3557.9391L13524.9442,-3557.9397L13524.9486,-3557.9398L13524.9504,-3557.9397L13524.9519,-3557.9389L13524.9527,-3557.9383L13524.9535,-3557.9373L13524.9537,-3557.9361L13524.9461,-3557.9319L13524.9453,-3557.9309L13524.9451,-3557.9298L13524.9456,-3557.9278L13524.9474,-3557.9268L13524.9484,-3557.9263L13524.9494,-3557.9254L13524.9509,-3557.9233L13524.9539,-3557.9159L13524.955,-3557.9147L13524.9561,-3557.9106L13524.9566,-3557.9074L13524.9574,-3557.9013L13524.9578,-3557.9L13524.9578,-3557.8954L13524.9576,-3557.8901L13524.9566,-3557.8861L13524.9547,-3557.878L13524.9543,-3557.8762L13524.9538,-3557.8715L13524.9547,-3557.8632L13524.9568,-3557.8534L13524.9574,-3557.8521L13524.9605,-3557.8462L13524.9701,-3557.83L13524.9722,-3557.8268L13524.9759,-3557.8213L13524.9775,-3557.82L13524.9824,-3557.8162L13524.983,-3557.8144L13524.9833,-3557.8123L13524.9885,-3557.8137L13524.9908,-3557.8156L13524.9975,-3557.8184L13525,-3557.8201L13525.0006,-3557.8205L13525.0054,-3557.8246L13525.0093,-3557.8287L13525.0116,-3557.8305L13525.0125,-3557.8305L13525.0144,-3557.83L13525.0178,-3557.8285L13525.0194,-3557.828L13525.0221,-3557.8284L13525.0242,-3557.8274L13525.0243,-3557.826L13525.0245,-3557.825L13525.0243,-3557.8238L13525.0214,-3557.8167L13525.0191,-3557.8144L13525.0188,-3557.8133L13525.0188,-3557.8125L13525.0193,-3557.8121L13525.0211,-3557.8105L13525.0246,-3557.8055L13525.0278,-3557.8003L13525.0308,-3557.7982L13525.0336,-3557.7966L13525.0375,-3557.7946L13525.0405,-3557.7937L13525.0489,-3557.7926L13525.0519,-3557.7915L13525.0578,-3557.7894L13525.0594,-3557.7879L13525.0632,-3557.7858L13525.0717,-3557.7782L13525.077,-3557.7753L13525.0843,-3557.7721L13525.087,-3557.7714L13525.0887,-3557.771L13525.0906,-3557.7705L13525.0931,-3557.7706L13525.0995,-3557.7705L13525.1067,-3557.7704L13525.1132,-3557.7702L13525.1209,-3557.7697L13525.1252,-3557.7696L13525.1289,-3557.7691L13525.1345,-3557.7681L13525.1433,-3557.7682L13525.1504,-3557.7679L13525.1638,-3557.7669L13525.1703,-3557.767L13525.1722,-3557.7674L13525.1729,-3557.7691L13525.1732,-3557.7709L13525.1752,-3557.7755L13525.1759,-3557.7763L13525.1792,-3557.7779L13525.1806,-3557.7778L13525.1831,-3557.7751L13525.1833,-3557.774L13525.1824,-3557.7719L13525.1788,-3557.7661L13525.178,-3557.762L13525.1779,-3557.7607L13525.1778,-3557.7596L13525.1783,-3557.7588L13525.18,-3557.758L13525.1817,-3557.7572L13525.1885,-3557.7559L13525.1931,-3557.7561L13525.1958,-3557.7565L13525.1979,-3557.7573L13525.1991,-3557.7583L13525.202,-3557.7619L13525.2034,-3557.7638L13525.2099,-3557.7665L13525.2122,-3557.7662L13525.2177,-3557.7626L13525.2209,-3557.7632L13525.223,-3557.7643L13525.2299,-3557.7663L13525.2329,-3557.7666L13525.2351,-3557.7667L13525.2388,-3557.7668L13525.2422,-3557.7666L13525.2498,-3557.7614L13525.2541,-3557.7585L13525.2583,-3557.757L13525.2597,-3557.7574L13525.2605,-3557.7588L13525.2607,-3557.7598L13525.2629,-3557.7646L13525.2657,-3557.7654L13525.2686,-3557.7667L13525.2698,-3557.7672L13525.2713,-3557.7673L13525.2732,-3557.7667L13525.2738,-3557.7658L13525.2745,-3557.7643L13525.2751,-3557.764L13525.2803,-3557.7654L13525.284,-3557.7663L13525.2859,-3557.767L13525.2887,-3557.7683L13525.2896,-3557.7684L13525.2909,-3557.7689L13525.2922,-3557.7692L13525.2933,-3557.7695L13525.2955,-3557.7714L13525.2956,-3557.7723L13525.2954,-3557.7741L13525.2954,-3557.7748L13525.2953,-3557.7757L13525.2956,-3557.7779L13525.296,-3557.7785L13525.2982,-3557.7788L13525.2991,-3557.7788L13525.3004,-3557.7788L13525.3016,-3557.7787L13525.3044,-3557.7778L13525.3066,-3557.7755L13525.3072,-3557.7742L13525.3081,-3557.7728L13525.3082,-3557.772L13525.31,-3557.7709L13525.3136,-3557.7681L13525.3155,-3557.7674L13525.3176,-3557.7669L13525.3202,-3557.7678L13525.3202,-3557.7705L13525.3202,-3557.7724L13525.3201,-3557.7736L13525.3201,-3557.7743L13525.3198,-3557.7757L13525.3195,-3557.7765L13525.3195,-3557.7774L13525.3197,-3557.7784L13525.3198,-3557.7788L13525.3211,-3557.7793L13525.3221,-3557.7792L13525.3251,-3557.7773L13525.3269,-3557.7754L13525.3294,-3557.7721L13525.3361,-3557.7667L13525.3397,-3557.7622L13525.3412,-3557.7578L13525.3418,-3557.7532L13525.3421,-3557.7499L13525.341,-3557.7477L13525.34,-3557.7454L13525.3402,-3557.7435L13525.3417,-3557.7408L13525.3416,-3557.7378L13525.3409,-3557.7349L13525.3395,-3557.7326L13525.3375,-3557.7317L13525.3354,-3557.7303L13525.3343,-3557.7289L13525.3336,-3557.7263L13525.3344,-3557.7238L13525.3359,-3557.7223L13525.3375,-3557.7215L13525.3387,-3557.7213L13525.3405,-3557.7207L13525.3418,-3557.7192L13525.342,-3557.7179L13525.3403,-3557.7159L13525.3369,-3557.713L13525.3336,-3557.7114L13525.3309,-3557.7108L13525.3272,-3557.7108L13525.3257,-3557.7112L13525.3246,-3557.7123L13525.324,-3557.713L13525.3224,-3557.7145L13525.32,-3557.715L13525.3184,-3557.7148L13525.3165,-3557.7135L13525.3135,-3557.7124L13525.3105,-3557.7113L13525.3095,-3557.7113L13525.3067,-3557.7113L13525.2989,-3557.7109L13525.2971,-3557.7083L13525.2956,-3557.7072L13525.2934,-3557.7071L13525.2923,-3557.7071L13525.2912,-3557.7071L13525.2902,-3557.7073L13525.2893,-3557.7073L13525.2871,-3557.7074L13525.2704,-3557.7043L13525.2669,-3557.7028L13525.2611,-3557.701L13525.259,-3557.7004L13525.2482,-3557.6986L13525.2382,-3557.6965L13525.2337,-3557.6909L13525.2329,-3557.6868L13525.2331,-3557.6788L13525.2318,-3557.6756L13525.2302,-3557.6747L13525.2278,-3557.6716L13525.2225,-3557.6696L13525.2182,-3557.6679L13525.2149,-3557.6672L13525.2077,-3557.6647L13525.2028,-3557.6631L13525.1985,-3557.6619L13525.1871,-3557.6571L13525.1836,-3557.6552L13525.1782,-3557.6523L13525.1742,-3557.6505L13525.1641,-3557.6471L13525.1595,-3557.6445L13525.1565,-3557.6424L13525.1468,-3557.6289L13525.1404,-3557.6223L13525.13,-3557.6128L13525.1197,-3557.6043L13525.1032,-3557.5922L13525.0977,-3557.5877L13525.0949,-3557.5799L13525.0926,-3557.5731L13525.1312,-3557.5L13525.1445,-3557.4748L13525.1432,-3557.4742L13525.156,-3557.4495L13525.1506,-3557.4475L13525.123,-3557.5L13525.0845,-3557.5733L13525.0842,-3557.5732L13525.0643,-3557.5684L13525.0578,-3557.5668L13525.0542,-3557.5659L13525.0568,-3557.5643L13525.0571,-3557.5632L13525.0539,-3557.5588L13525.0438,-3557.5449L13525.0372,-3557.5357L13525.027,-3557.5213L13525.0237,-3557.5132L13525.0226,-3557.502L13525.0261,-3557.5L13525.0395,-3557.4924L13525.0399,-3557.4619L13525.0405,-3557.4203L13525.012,-3557.4194L13525.0119,-3557.418L13525.0036,-3557.4178L13525.0036,-3557.4079L13525.0032,-3557.3989L13525.002,-3557.3842L13525.005,-3557.3842L13525.0042,-3557.3813L13525.0096,-3557.381L13525.0112,-3557.3798L13525.013,-3557.3751L13525.013,-3557.3727L13525.0127,-3557.372L13525.0123,-3557.369L13525.012,-3557.3672L13525.0121,-3557.3651L13525.0123,-3557.3639L13525.0142,-3557.3571L13525.0175,-3557.3516L13525.0188,-3557.3484L13525.0179,-3557.3457L13525.0164,-3557.3441L13525.0161,-3557.3433L13525.0148,-3557.3404L13525.0148,-3557.3396L13525.017,-3557.3351L13525.0189,-3557.3314L13525.022,-3557.326L13525.032,-3557.3026L13525.032,-3557.3002L13525.0321,-3557.294L13525.0321,-3557.2918L13525.0323,-3557.2894L13525.0328,-3557.2873L13525.0334,-3557.2841L13525.0343,-3557.2815L13525.0354,-3557.2783L13525.0393,-3557.2679L13525.0393,-3557.2664L13525.0392,-3557.263L13525.0387,-3557.2591L13525.0381,-3557.2557L13525.0376,-3557.255L13525.0353,-3557.2524L13525.0349,-3557.2506L13525.0341,-3557.2461L13525.0332,-3557.2447L13525.0307,-3557.2439L13525.0276,-3557.2439L13525.0248,-3557.2429L13525.0223,-3557.2375L13525.0228,-3557.2369L13525.0237,-3557.2354L13525.0252,-3557.2336L13525.0272,-3557.2334L13525.0293,-3557.2334L13525.0307,-3557.2334L13525.0322,-3557.2328L13525.0363,-3557.2297L13525.0372,-3557.2282L13525.0385,-3557.2229L13525.0383,-3557.2205L13525.0386,-3557.219L13525.04,-3557.218L13525.0415,-3557.2174L13525.0417,-3557.2157L13525.0439,-3557.2025L13525.0448,-3557.1993L13525.0492,-3557.1963L13525.0545,-3557.193L13525.0606,-3557.1906L13525.0637,-3557.1899L13525.0664,-3557.1884L13525.0696,-3557.1809L13525.0719,-3557.1785L13525.0724,-3557.1781L13525.0734,-3557.1773L13525.0769,-3557.1764L13525.0916,-3557.1735L13525.0997,-3557.1638L13525.0999,-3557.1628L13525.1004,-3557.1606L13525.1012,-3557.1587L13525.1026,-3557.1574L13525.103,-3557.1562L13525.0969,-3557.1508L13525.0954,-3557.1497L13525.0948,-3557.1491L13525.0946,-3557.1476L13525.0933,-3557.1469L13525.0907,-3557.1474L13525.0895,-3557.1476L13525.0885,-3557.1475L13525.0878,-3557.1465L13525.0874,-3557.1436L13525.087,-3557.141L13525.0869,-3557.138L13525.0872,-3557.1371L13525.0875,-3557.1366L13525.0881,-3557.1355L13525.0859,-3557.1274L13525.0849,-3557.1246L13525.0833,-3557.1241L13525.0809,-3557.1241L13525.0778,-3557.1238L13525.0769,-3557.1231L13525.077,-3557.1224L13525.077,-3557.1216L13525.0767,-3557.121L13525.0754,-3557.1199L13525.0738,-3557.1197L13525.0733,-3557.1197L13525.0725,-3557.1196L13525.0715,-3557.1205L13525.0717,-3557.1215L13525.0718,-3557.1226L13525.0712,-3557.1235L13525.0704,-3557.1233L13525.0698,-3557.1225L13525.0691,-3557.1215L13525.0679,-3557.1212L13525.0675,-3557.1212L13525.0669,-3557.1212L13525.0661,-3557.1224L13525.0645,-3557.1228L13525.063,-3557.1228L13525.062,-3557.1224L13525.0613,-3557.1217L13525.061,-3557.1205L13525.061,-3557.1182L13525.0626,-3557.1156L13525.0645,-3557.1127L13525.0656,-3557.1093L13525.0659,-3557.1081L13525.0666,-3557.1037L13525.0667,-3557.0961L13525.0664,-3557.0901L13525.0689,-3557.0826L13525.0792,-3557.0648L13525.098,-3557.0427L13525.1184,-3557.024L13525.1448,-3557.004L13525.1698,-3556.9814L13525.2193,-3556.9447L13525.2519,-3556.919L13525.2868,-3556.8896L13525.3159,-3556.8656L13525.3397,-3556.8474L13525.3636,-3556.8307L13525.3888,-3556.8096L13525.3901,-3556.8086L13525.3922,-3556.8071L13525.3942,-3556.8061L13525.3957,-3556.8053L13525.3974,-3556.8046L13525.3991,-3556.8033L13525.401,-3556.8018L13525.4035,-3556.8002L13525.4061,-3556.7984L13525.4089,-3556.7969L13525.4119,-3556.7958L13525.4147,-3556.7948L13525.4178,-3556.7936L13525.4211,-3556.7922L13525.4243,-3556.791L13525.4274,-3556.7898L13525.4305,-3556.7883L13525.432,-3556.7877L13525.4347,-3556.7862L13525.4371,-3556.7849L13525.4411,-3556.7829L13525.4442,-3556.7814L13525.4458,-3556.7807L13525.4478,-3556.7799L13525.4495,-3556.7793L13525.4517,-3556.7787L13525.4553,-3556.7774L13525.4571,-3556.7768L13525.4592,-3556.776L13525.4609,-3556.7754L13525.4631,-3556.7745L13525.4671,-3556.7728L13525.4706,-3556.7714L13525.4723,-3556.7708L13525.4743,-3556.7699L13525.4759,-3556.7692L13525.4789,-3556.7679L13525.4818,-3556.7669L13525.486,-3556.7658L13525.4893,-3556.7651L13525.4926,-3556.7644L13525.4958,-3556.7637L13525.4988,-3556.763L13525.5023,-3556.762L13525.5056,-3556.7613L13525.5092,-3556.7608L13525.5122,-3556.7605L13525.5156,-3556.7605L13525.5196,-3556.7606L13525.5233,-3556.761L13525.5259,-3556.7612L13525.5292,-3556.7617L13525.5325,-3556.7622L13525.5357,-3556.7626L13525.5386,-3556.763L13525.5413,-3556.7637L13525.5438,-3556.7645L13525.5453,-3556.7652L13525.5455,-3556.7673L13525.5449,-3556.7691L13525.544,-3556.7713L13525.5432,-3556.773L13525.5617,-3556.7696L13525.5641,-3556.7702L13525.5694,-3556.7689L13525.5699,-3556.7689L13525.5724,-3556.7691L13525.574,-3556.7686L13525.5749,-3556.7696L13525.5755,-3556.7704L13525.5755,-3556.7715L13525.5766,-3556.7728L13525.5776,-3556.7738L13525.578,-3556.7749L13525.5781,-3556.7762L13525.5784,-3556.7771L13525.5791,-3556.7778L13525.5794,-3556.7786L13525.5794,-3556.7793L13525.5797,-3556.78L13525.5807,-3556.7801L13525.5817,-3556.7803L13525.5823,-3556.7806L13525.5836,-3556.7806L13525.5838,-3556.7804L13525.5849,-3556.7796L13525.5854,-3556.7786L13525.5853,-3556.7777L13525.5848,-3556.7772L13525.5853,-3556.7767L13525.586,-3556.7763L13525.5866,-3556.7754L13525.5872,-3556.7748L13525.5879,-3556.7737L13525.5886,-3556.7726L13525.5899,-3556.7713L13525.5907,-3556.7699L13525.5911,-3556.7691L13525.5915,-3556.7686L13525.5919,-3556.7683L13525.595,-3556.767L13525.5957,-3556.7669L13525.5974,-3556.7666L13525.5998,-3556.7668L13525.6003,-3556.767L13525.6004,-3556.7674L13525.6008,-3556.7682L13525.6011,-3556.7686L13525.6016,-3556.769L13525.6024,-3556.7691L13525.6033,-3556.769L13525.6035,-3556.7693L13525.6034,-3556.7699L13525.6037,-3556.7704L13525.6044,-3556.7708L13525.6053,-3556.771L13525.6057,-3556.7716L13525.6059,-3556.7723L13525.6066,-3556.7727L13525.6072,-3556.7728L13525.6085,-3556.7729L13525.6088,-3556.7738L13525.6094,-3556.7748L13525.6101,-3556.7754L13525.6107,-3556.7756L13525.6118,-3556.7756L13525.6128,-3556.7754L13525.6138,-3556.7754L13525.6143,-3556.7756L13525.6145,-3556.7763L13525.6146,-3556.7772L13525.6154,-3556.7778L13525.6161,-3556.7781L13525.618,-3556.7781L13525.6192,-3556.778L13525.6195,-3556.7782L13525.6196,-3556.7785L13525.6202,-3556.7791L13525.6211,-3556.7794L13525.6229,-3556.7792L13525.625,-3556.7785L13525.6264,-3556.7783L13525.6279,-3556.7788L13525.6294,-3556.7788L13525.6311,-3556.7785L13525.6329,-3556.778L13525.6339,-3556.7782L13525.6351,-3556.7781L13525.6367,-3556.7773L13525.639,-3556.7759L13525.6405,-3556.7749L13525.6415,-3556.7746L13525.6423,-3556.7744L13525.643,-3556.7747L13525.6435,-3556.7751L13525.6444,-3556.7756L13525.6449,-3556.7758L13525.6445,-3556.7765L13525.6436,-3556.7776L13525.6432,-3556.7791L13525.6423,-3556.7804L13525.6415,-3556.7812L13525.6406,-3556.7819L13525.64,-3556.7833L13525.6398,-3556.7838L13525.6391,-3556.7841L13525.6381,-3556.7846L13525.6376,-3556.7851L13525.6372,-3556.7858L13525.6368,-3556.7864L13525.6355,-3556.7869L13525.6341,-3556.7873L13525.6324,-3556.7875L13525.6313,-3556.7884L13525.6303,-3556.7896L13525.6294,-3556.7903L13525.6283,-3556.7916L13525.6275,-3556.7926L13525.6274,-3556.7934L13525.6284,-3556.7942L13525.6292,-3556.7949L13525.6304,-3556.7951L13525.632,-3556.7953L13525.6344,-3556.7953L13525.637,-3556.7947L13525.639,-3556.794L13525.6404,-3556.7934L13525.6426,-3556.792L13525.6445,-3556.7902L13525.6466,-3556.7881L13525.6489,-3556.7855L13525.651,-3556.7827L13525.6541,-3556.7802L13525.657,-3556.778L13525.6593,-3556.7768L13525.662,-3556.7759L13525.6648,-3556.7756L13525.6668,-3556.7751L13525.6685,-3556.774L13525.6693,-3556.773L13525.6705,-3556.7713L13525.6708,-3556.7701L13525.6703,-3556.7687L13525.6687,-3556.7676L13525.6666,-3556.7669L13525.665,-3556.767L13525.6636,-3556.7663L13525.6634,-3556.7652L13525.6621,-3556.7645L13525.662,-3556.7639L13525.6625,-3556.7627L13525.6615,-3556.7606L13525.6615,-3556.7595L13525.6621,-3556.7585L13525.663,-3556.7581L13525.6648,-3556.7581L13525.6676,-3556.7584L13525.67,-3556.7595L13525.6747,-3556.7628L13525.6775,-3556.7647L13525.6794,-3556.7654L13525.6811,-3556.7656L13525.6828,-3556.7651L13525.6856,-3556.7635L13525.6882,-3556.7621L13525.6912,-3556.7601L13525.6933,-3556.7569L13525.6947,-3556.7538L13525.6958,-3556.7523L13525.6977,-3556.7514L13525.7006,-3556.7509L13525.703,-3556.7504L13525.7044,-3556.7506L13525.7048,-3556.7513L13525.705,-3556.7528L13525.705,-3556.7562L13525.7046,-3556.7591L13525.7038,-3556.7609L13525.7037,-3556.7622L13525.7034,-3556.7632L13525.7035,-3556.7643L13525.7046,-3556.7653L13525.7058,-3556.7657L13525.7104,-3556.7677L13525.7138,-3556.7684L13525.7173,-3556.7673L13525.72,-3556.7657L13525.7223,-3556.7633L13525.7253,-3556.7563L13525.7276,-3556.7539L13525.7305,-3556.7511L13525.7334,-3556.7483L13525.7355,-3556.7466L13525.738,-3556.7459L13525.7407,-3556.7456L13525.7434,-3556.7439L13525.7457,-3556.7414L13525.749,-3556.7395L13525.7522,-3556.7381L13525.7544,-3556.7365L13525.7583,-3556.7328L13525.7619,-3556.7311L13525.7635,-3556.73L13525.7642,-3556.7283L13525.7657,-3556.7271L13525.7682,-3556.7265L13525.7704,-3556.7261L13525.7738,-3556.7254L13525.7771,-3556.7241L13525.7812,-3556.723L13525.7839,-3556.7226L13525.7869,-3556.7218L13525.79,-3556.7207L13525.7921,-3556.72L13525.7953,-3556.7185L13525.7985,-3556.717L13525.8018,-3556.7153L13525.8042,-3556.7154L13525.8064,-3556.7149L13525.8115,-3556.7144L13525.8219,-3556.7162L13525.8299,-3556.7172L13525.8333,-3556.7169L13525.8373,-3556.7167L13525.8445,-3556.7155L13525.8497,-3556.7141L13525.8532,-3556.7134L13525.8568,-3556.713L13525.8721,-3556.7146L13525.8859,-3556.7165L13525.8942,-3556.7181L13525.899,-3556.7208L13525.9023,-3556.7233L13525.9044,-3556.7262L13525.9068,-3556.7283L13525.9078,-3556.73L13525.9162,-3556.7413L13525.9199,-3556.7475L13525.9252,-3556.7522L13525.9276,-3556.7552L13525.9275,-3556.7569L13525.9264,-3556.7589L13525.9245,-3556.7639L13525.9239,-3556.7665L13525.9246,-3556.7695L13525.9261,-3556.7718L13525.928,-3556.774L13525.9312,-3556.7755L13525.935,-3556.776L13525.9398,-3556.7749L13525.9439,-3556.7728L13525.9473,-3556.7715L13525.9497,-3556.7716L13525.9521,-3556.7722L13525.9548,-3556.7735L13525.9572,-3556.7756L13525.9582,-3556.7777L13525.9586,-3556.781L13525.9601,-3556.788L13525.9593,-3556.7897L13525.9581,-3556.7912L13525.9565,-3556.793L13525.9556,-3556.795L13525.9557,-3556.7956L13525.9567,-3556.7974L13525.9582,-3556.7984L13525.962,-3556.801L13525.9658,-3556.8033L13525.9701,-3556.8056L13525.9761,-3556.8082L13525.9799,-3556.8092L13525.9845,-3556.8098L13525.989,-3556.8075L13525.9934,-3556.804L13525.9971,-3556.8025L13526.0034,-3556.801L13526.0112,-3556.8015L13526.0154,-3556.8038L13526.0167,-3556.8073L13526.0181,-3556.8097L13526.0216,-3556.8109L13526.0297,-3556.8127L13526.0328,-3556.813L13526.0333,-3556.8141L13526.0333,-3556.815L13526.0311,-3556.8169L13526.0267,-3556.8207L13526.0259,-3556.8226L13526.0257,-3556.8235L13526.0263,-3556.8246L13526.0281,-3556.8257L13526.0299,-3556.826L13526.0339,-3556.8255L13526.0403,-3556.8227L13526.0434,-3556.8208L13526.046,-3556.8188L13526.0495,-3556.8175L13526.0565,-3556.8156L13526.0635,-3556.812L13526.0716,-3556.8064L13526.0762,-3556.8046L13526.0804,-3556.8018L13526.0834,-3556.7972L13526.0868,-3556.7909L13526.0903,-3556.7879L13526.0962,-3556.7851L13526.1017,-3556.7832L13526.1078,-3556.7835L13526.1143,-3556.7864L13526.1198,-3556.7886L13526.1271,-3556.7882L13526.1312,-3556.7867L13526.1323,-3556.7873L13526.1345,-3556.79L13526.1362,-3556.7948L13526.1388,-3556.7983L13526.1426,-3556.8016L13526.1455,-3556.8029L13526.1487,-3556.8033L13526.1534,-3556.8033L13526.1588,-3556.802L13526.1633,-3556.7996L13526.1673,-3556.7962L13526.1703,-3556.7922L13526.1735,-3556.7885L13526.1761,-3556.787L13526.1795,-3556.7861L13526.1828,-3556.7857L13526.1891,-3556.7851L13526.1979,-3556.7851L13526.2025,-3556.7853L13526.2043,-3556.7865L13526.2073,-3556.7904L13526.212,-3556.796L13526.2157,-3556.7993L13526.2191,-3556.8005L13526.2229,-3556.8009L13526.2256,-3556.8002L13526.2277,-3556.7982L13526.2292,-3556.796L13526.2303,-3556.7954L13526.2324,-3556.7955L13526.2348,-3556.7971L13526.2376,-3556.8011L13526.2391,-3556.8036L13526.2408,-3556.8051L13526.2415,-3556.8055L13526.2431,-3556.8056L13526.2451,-3556.8051L13526.2469,-3556.8035L13526.2491,-3556.8003L13526.251,-3556.796L13526.2535,-3556.7924L13526.257,-3556.7875L13526.2644,-3556.779L13526.2681,-3556.7722L13526.2717,-3556.7679L13526.2755,-3556.7655L13526.2823,-3556.763L13526.2933,-3556.7611L13526.308,-3556.7581L13526.3163,-3556.7547L13526.3244,-3556.7505L13526.3348,-3556.7458L13526.3468,-3556.7357L13526.3577,-3556.7265L13526.3665,-3556.7232L13526.3672,-3556.7231L13526.3672,-3555.4813L13526.3644,-3555.4775L13526.3537,-3555.4665L13526.3473,-3555.4548L13526.3401,-3555.4439L13526.3312,-3555.4377L13526.3272,-3555.4348L13526.3237,-3555.4336L13526.3176,-3555.4315L13526.3085,-3555.4309L13526.2984,-3555.4297L13526.2932,-3555.4266L13526.293,-3555.4249L13526.2947,-3555.4231L13526.2947,-3555.4171L13526.2906,-3555.4147L13526.2873,-3555.4037L13526.2779,-3555.3929L13526.2421,-3555.3849L13526.2389,-3555.3946L13526.2263,-3555.392L13526.2213,-3555.4005L13526.2063,-3555.4014L13526.195,-3555.4023L13526.1715,-3555.4086L13526.1491,-3555.4242L13526.1411,-3555.4258L13526.1401,-3555.4251L13526.1393,-3555.4232L13526.1357,-3555.4139L13526.1238,-3555.3826L13526.1215,-3555.3798L13526.1209,-3555.3797L13526.1363,-3555.3752L13526.1698,-3555.3683L13526.1682,-3555.3617L13526.1116,-3555.3733L13526.1096,-3555.3699L13526.0981,-3555.373L13526.0453,-3555.3876L13525.9787,-3555.405L13525.9048,-3555.4236L13525.8681,-3555.4331L13525.8333,-3555.4418L13525.792,-3555.4522L13525.7151,-3555.4718L13525.6797,-3555.4971L13525.6267,-3555.5346L13525.5921,-3555.5594L13525.5739,-3555.5721L13525.5047,-3555.5715L13525.4534,-3555.5714L13525.4376,-3555.5714L13525.4282,-3555.5714L13525.4228,-3555.5713L13525.4205,-3555.5713L13525.423,-3555.5079L13525.4401,-3555.5086L13525.4408,-3555.5005L13525.4232,-3555.5002L13525.4251,-3555.4551L13525.4261,-3555.4477L13525.4265,-3555.4446L13525.427,-3555.442L13525.4267,-3555.4325L13525.4263,-3555.4292L13525.4257,-3555.4241L13525.425,-3555.4157L13525.425,-3555.4075L13525.4255,-3555.4054L13525.4259,-3555.4041L13525.4282,-3555.4025L13525.4307,-3555.4009L13525.4333,-3555.3987L13525.4354,-3555.3963L13525.4375,-3555.3933L13525.4385,-3555.391L13525.4399,-3555.3877L13525.4403,-3555.3795L13525.4393,-3555.375L13525.4389,-3555.3736L13525.4383,-3555.3715L13525.437,-3555.3669L13525.4365,-3555.363L13525.4373,-3555.3589L13525.4381,-3555.3569L13525.4399,-3555.3512L13525.4412,-3555.3472L13525.4423,-3555.3434L13525.4445,-3555.338L13525.4451,-3555.3352L13525.4466,-3555.3318L13525.4472,-3555.3292L13525.4469,-3555.3255L13525.4429,-3555.3199L13525.4412,-3555.3167L13525.4407,-3555.3132L13525.4412,-3555.3103L13525.4413,-3555.307L13525.4407,-3555.3038L13525.4393,-3555.2992L13525.4384,-3555.2966L13525.4371,-3555.29L13525.4374,-3555.2865L13525.4396,-3555.2804L13525.4408,-3555.2765L13525.4405,-3555.2726L13525.4389,-3555.2693L13525.4312,-3555.2609L13525.4211,-3555.2547L13525.4129,-3555.2512L13525.4042,-3555.2484L13525.3974,-3555.247L13525.3874,-3555.2459L13525.3818,-3555.2456L13525.373,-3555.2459L13525.3656,-3555.2469L13525.3606,-3555.248L13525.3521,-3555.2509L13525.3458,-3555.2536L13525.3392,-3555.257L13525.3342,-3555.2605L13525.326,-3555.2684L13525.3215,-3555.2732L13525.3181,-3555.2773L13525.3141,-3555.2831L13525.311,-3555.2906L13525.3084,-3555.2966L13525.3059,-3555.301L13525.3033,-3555.3066L13525.3021,-3555.3109L13525.2963,-3555.3325L13525.294,-3555.3392L13525.2916,-3555.3457L13525.2888,-3555.3507L13525.2861,-3555.3553L13525.2829,-3555.3597L13525.2808,-3555.3623L13525.277,-3555.3661L13525.2722,-3555.37L13525.2667,-3555.3737L13525.2601,-3555.3777L13525.2529,-3555.3816L13525.2468,-3555.3844L13525.2423,-3555.3861L13525.2389,-3555.3869L13525.2362,-3555.3874L13525.2327,-3555.3878L13525.2297,-3555.3881L13525.2267,-3555.3886L13525.2247,-3555.3889L13525.2211,-3555.39L13525.2182,-3555.3915L13525.2152,-3555.3941L13525.2118,-3555.397L13525.2071,-3555.3999L13525.1997,-3555.4019L13525.1944,-3555.4029L13525.1908,-3555.4032L13525.1883,-3555.4034L13525.1804,-3555.4036L13525.1789,-3555.4036L13525.1724,-3555.4036L13525.1664,-3555.4041L13525.1567,-3555.4047L13525.1469,-3555.4057L13525.1392,-3555.4065L13525.1349,-3555.4066L13525.129,-3555.4063L13525.126,-3555.406L13525.1209,-3555.4056L13525.116,-3555.4053L13525.1118,-3555.405L13525.1055,-3555.4046L13525.1014,-3555.4045L13525.0974,-3555.4044L13525.092,-3555.4042L13525.0871,-3555.4039L13525.0821,-3555.4038L13525.0723,-3555.4043L13525.0662,-3555.4052L13525.0608,-3555.4068L13525.0544,-3555.409L13525.0493,-3555.4115L13525.0421,-3555.415L13525.035,-3555.4197L13525.0298,-3555.4232L13525.0241,-3555.4274L13525.0186,-3555.4304L13525.0141,-3555.4326L13525.0086,-3555.4359L13525.0044,-3555.4402L13525.0018,-3555.4438L13525,-3555.4471L13524.9984,-3555.4502L13524.9962,-3555.4545L13524.9943,-3555.4568L13524.9911,-3555.4608L13524.9878,-3555.4646L13524.9778,-3555.476L13524.974,-3555.4794L13524.9685,-3555.4834L13524.9557,-3555.4933L13524.9517,-3555.4991L13524.9485,-3555.5055L13524.9434,-3555.516L13524.9362,-3555.524L13524.9334,-3555.529L13524.9321,-3555.5335L13524.9316,-3555.5371L13524.9314,-3555.5416L13524.9307,-3555.5464L13524.9299,-3555.5502L13524.9287,-3555.5553L13524.9268,-3555.565L13524.9261,-3555.5753L13524.927,-3555.5856L13524.9285,-3555.5915L13524.9295,-3555.5972L13524.9301,-3555.6042L13524.9305,-3555.6094L13524.9305,-3555.6208L13524.9277,-3555.6333L13524.9182,-3555.675L13524.9172,-3555.6787L13524.911,-3555.6789L13524.9117,-3555.6972L13524.9122,-3555.7044L13524.9126,-3555.7063L13524.9129,-3555.7063L13524.9142,-3555.7064L13524.9161,-3555.7064L13524.946,-3555.7063L13524.9511,-3555.7063L13524.9635,-3555.7065L13524.9674,-3555.7068L13524.9681,-3555.7174L13524.9683,-3555.724L13524.9683,-3555.7264L13524.9683,-3555.7271L13524.9684,-3555.7273L13524.9693,-3555.7273L13524.9918,-3555.7268L13525,-3555.7266L13525.0445,-3555.7255L13525.0724,-3555.7252L13525.0781,-3555.7252L13525.0793,-3555.7255L13525.0797,-3555.7258L13525.0818,-3555.7273L13525.1021,-3555.7425L13525.1266,-3555.7612L13525.1419,-3555.7724L13525.1521,-3555.7802L13525.1528,-3555.7803L13525.1541,-3555.7804L13525.1569,-3555.7803L13525.1747,-3555.7807L13525.1797,-3555.7807L13525.1831,-3555.7809L13525.1833,-3555.781L13525.1834,-3555.7815L13525.1828,-3555.7904L13525.1824,-3555.7999L13525.1819,-3555.8032L13525.1655,-3555.8028L13525.1655,-3555.8037L13525.1389,-3555.8123L13525.0894,-3555.8276L13525.0692,-3555.8333L13525.0689,-3555.8334L13525.0673,-3555.8333L13525.0625,-3555.833L13525.0625,-3555.8333L13525.062,-3555.8384L13525.0687,-3555.8388L13525.0691,-3555.8364L13525.0796,-3555.8333L13525.1242,-3555.8203L13525.1652,-3555.8065L13525.1686,-3555.8066L13525.1685,-3555.806L13525.1817,-3555.8064L13525.1818,-3555.8068L13525.2018,-3555.8073L13525.202,-3555.8073L13525.2021,-3555.8185L13525.2021,-3555.8208L13525.1736,-3555.8206L13525.1736,-3555.8267L13525.1735,-3555.8333L13525.173,-3555.8809L13525.1732,-3555.8811L13525.2014,-3555.8813L13525.201,-3555.8892L13525.2,-3555.8892L13525.1995,-3555.9071L13525.1979,-3555.9433L13525.1977,-3555.9457L13525.1976,-3555.9475L13525.1981,-3555.9485L13525.1987,-3555.9489L13525.1999,-3555.9495L13525.1999,-3555.9504L13525.199,-3555.9542L13525.1939,-3555.9627L13525.1865,-3555.9738L13525.1781,-3555.9847L13525.166,-3556L13525.1551,-3555.9945L13525.14,-3556.014L13525.1489,-3556.0185L13525.1478,-3556.0202L13525.1488,-3556.021L13525.1317,-3556.0417L13525.1279,-3556.0467L13525.1235,-3556.0533L13525.1204,-3556.0606L13525.1187,-3556.0656L13525.1168,-3556.071L13525.1159,-3556.0726L13525.0975,-3556.0844L13525.0746,-3556.0986L13525.0572,-3556.1081L13525.054,-3556.1097L13525.0488,-3556.105L13525.0423,-3556.108L13525.0454,-3556.1138L13525.034,-3556.1186L13525,-3556.1315L13524.9951,-3556.1333L13524.988,-3556.129L13524.9821,-3556.1313L13524.9849,-3556.1371L13524.9366,-3556.1546L13524.9344,-3556.1554L13524.9315,-3556.1493L13524.9215,-3556.1525L13524.9241,-3556.1588L13524.908,-3556.1642L13524.8975,-3556.167L13524.8869,-3556.1691L13524.8862,-3556.1678L13524.8811,-3556.1688L13524.8796,-3556.1676L13524.8704,-3556.1692L13524.8698,-3556.1685L13524.8695,-3556.168L13524.8693,-3556.1669L13524.869,-3556.1663L13524.8685,-3556.166L13524.8625,-3556.1672L13524.8617,-3556.1674L13524.8608,-3556.168L13524.8604,-3556.1685L13524.8604,-3556.1688L13524.8613,-3556.171L13524.8521,-3556.1729L13524.8365,-3556.1742L13524.8148,-3556.1748L13524.8074,-3556.175L13524.8068,-3556.1728L13524.8062,-3556.1722L13524.8054,-3556.1719L13524.8043,-3556.1717L13524.8,-3556.1718L13524.7987,-3556.172L13524.7979,-3556.1724L13524.798,-3556.1753L13524.7389,-3556.175L13524.7374,-3556.175L13524.7371,-3556.1749L13524.7376,-3556.1746L13524.7381,-3556.1739L13524.7382,-3556.1729L13524.7383,-3556.172L13524.738,-3556.1716L13524.7372,-3556.1708L13524.7358,-3556.1708L13524.7315,-3556.1707L13524.7293,-3556.1711L13524.7281,-3556.1718L13524.7278,-3556.1723L13524.7278,-3556.1744L13524.6667,-3556.1693L13524.6675,-3556.1618L13524.6132,-3556.1547L13524.6129,-3556.1559L13524.6113,-3556.1618L13524.5811,-3556.156L13524.5818,-3556.1525L13524.5743,-3556.1511L13524.5726,-3556.1538L13524.5704,-3556.153L13524.5669,-3556.1522L13524.5569,-3556.1502L13524.5559,-3556.1526L13524.5406,-3556.1483L13524.5537,-3556.1194L13524.5386,-3556.1142L13524.5384,-3556.1141L13524.5382,-3556.1143L13524.5249,-3556.1432L13524.5153,-3556.14L13524.52,-3556.1302L13524.5197,-3556.13L13524.4696,-3556.1137L13524.4687,-3556.1135L13524.4682,-3556.1134L13524.4681,-3556.1136L13524.4647,-3556.1189L13524.4641,-3556.1192L13524.4624,-3556.1229L13524.4078,-3556.1016L13524.4049,-3556.1004L13524.3972,-3556.0971L13524.3939,-3556.0958L13524.3916,-3556.0948L13524.385,-3556.092L13524.3844,-3556.0917L13524.3819,-3556.0906L13524.381,-3556.0901L13524.3735,-3556.0877L13524.3712,-3556.0866L13524.3704,-3556.0862L13524.3681,-3556.0854L13524.3617,-3556.0827L13524.3584,-3556.0814L13524.3421,-3556.0747L13524.3412,-3556.0743L13524.337,-3556.0727L13524.3348,-3556.0718L13524.3345,-3556.0717L13524.3333,-3556.0712L13524.3325,-3556.0708L13524.3309,-3556.07L13524.3298,-3556.0694L13524.327,-3556.0681L13524.3257,-3556.0675L13524.322,-3556.0658L13524.3194,-3556.0646L13524.3123,-3556.0605L13524.3084,-3556.0591L13524.3055,-3556.0577L13524.2819,-3556.0433L13524.2786,-3556.0415L13524.2728,-3556.0374L13524.2695,-3556.0352L13524.2565,-3556.0271L13524.2531,-3556.0251L13524.2498,-3556.0229L13524.2466,-3556.0211L13524.2452,-3556.0175L13524.2427,-3556.0159L13524.2434,-3556.0151L13524.2424,-3556.0147L13524.2486,-3556.0082L13524.2353,-3556.0002L13524.2218,-3555.9907L13524.2097,-3555.9813L13524.2012,-3555.9713L13524.1923,-3555.961L13524.1852,-3555.9484L13524.1814,-3555.9409L13524.18,-3555.9404L13524.1738,-3555.9415L13524.1706,-3555.942L13524.1697,-3555.9421L13524.1667,-3555.9419L13524.1664,-3555.9419L13524.1639,-3555.9352L13524.1622,-3555.9299L13524.1617,-3555.9269L13524.1667,-3555.9262L13524.1761,-3555.9249L13524.1753,-3555.9209L13524.1667,-3555.9218L13524.1611,-3555.9224L13524.1622,-3555.9171L13524.1634,-3555.9121L13524.1667,-3555.9037L13524.1667,-3555.9037L13524.1687,-3555.9016L13524.1719,-3555.8983L13524.1976,-3555.8787L13524.1932,-3555.8748L13524.1852,-3555.8808L13524.1732,-3555.873L13524.1667,-3555.871L13524.1647,-3555.8703L13524.1573,-3555.8664L13524.1535,-3555.8638L13524.1565,-3555.8618L13524.1567,-3555.861L13524.1561,-3555.86L13524.1551,-3555.8595L13524.153,-3555.8594L13524.1517,-3555.8599L13524.1481,-3555.8622L13524.1391,-3555.8545L13524.1365,-3555.8523L13524.1149,-3555.8333L13524.1111,-3555.83L13524.1226,-3555.8201L13524.1299,-3555.8139L13524.1259,-3555.8103L13524.1137,-3555.82L13524.1058,-3555.8264L13524.0982,-3555.8199L13524.0824,-3555.8065L13524.0686,-3555.7952L13524.066,-3555.7928L13524.0574,-3555.7851L13524.0531,-3555.7809L13524.052,-3555.7798L13524.046,-3555.7741L13524.0443,-3555.7698L13524.0076,-3555.7361L13523.9841,-3555.7128L13523.9542,-3555.6811L13523.9523,-3555.6788L13523.9474,-3555.6734L13523.9418,-3555.6678L13523.9402,-3555.6651L13523.9282,-3555.6527L13523.9258,-3555.6493L13523.9159,-3555.639L13523.9136,-3555.6365L13523.8949,-3555.6157L13523.8934,-3555.6136L13523.8898,-3555.6096L13523.868,-3555.5843L13523.8772,-3555.5783L13523.8446,-3555.5407L13523.8365,-3555.5442L13523.8332,-3555.5423L13523.8261,-3555.5314L13523.8246,-3555.5291L13523.8149,-3555.5149L13523.8129,-3555.512L13523.7854,-3555.4678L13523.7836,-3555.4658L13523.7757,-3555.453L13523.7725,-3555.4482L13523.7716,-3555.4471L13523.7674,-3555.4398L13523.7484,-3555.4085L13523.73,-3555.3675L13523.718,-3555.3382L13523.7037,-3555.3024L13523.7068,-3555.3018L13523.7395,-3555.293L13523.74,-3555.2935L13523.7837,-3555.2822L13523.782,-3555.2792L13523.7399,-3555.2898L13523.7169,-3555.2301L13523.6989,-3555.231L13523.6972,-3555.1963L13523.6853,-3555.1956L13523.6851,-3555.189L13523.6853,-3555.1822L13523.6853,-3555.1758L13523.7794,-3555.1758L13523.8214,-3555.2688L13523.8115,-3555.2717L13523.8124,-3555.2748L13523.823,-3555.2719L13523.8268,-3555.2802L13523.8322,-3555.2788L13523.7855,-3555.1758L13521.9727,-3555.1758L13521.9727,-3559.5703Z"/>
<path content="京都府,,,宮津市,,26205" xlink:title="京都府" d="M13525.4285,-3557.6446L13525.4362,-3557.6353L13525.4439,-3557.6275L13525.4515,-3557.6202L13525.4564,-3557.6167L13525.4595,-3557.6137L13525.4599,-3557.6104L13525.459,-3557.6085L13525.4557,-3557.6061L13525.4507,-3557.6034L13525.445,-3557.6013L13525.4395,-3557.6009L13525.4303,-3557.6006L13525.4261,-3557.6L13525.4227,-3557.5987L13525.4148,-3557.5993L13525.4084,-3557.6009L13525.4057,-3557.6034L13525.4056,-3557.607L13525.4079,-3557.6123L13525.4134,-3557.6186L13525.4155,-3557.6221L13525.4178,-3557.6281L13525.4195,-3557.6345L13525.4185,-3557.6358L13525.4165,-3557.6359L13525.4142,-3557.6349L13525.4099,-3557.6294L13525.407,-3557.6237L13525.4028,-3557.6181L13525.399,-3557.6145L13525.3936,-3557.6119L13525.3889,-3557.6104L13525.3831,-3557.6112L13525.3709,-3557.6152L13525.3634,-3557.6171L13525.3574,-3557.6218L13525.3531,-3557.6274L13525.3496,-3557.6347L13525.3479,-3557.6435L13525.3466,-3557.6494L13525.3448,-3557.6528L13525.3433,-3557.6579L13525.3439,-3557.6641L13525.3454,-3557.6681L13525.3489,-3557.6755L13525.3538,-3557.6802L13525.3603,-3557.6834L13525.3649,-3557.6846L13525.3685,-3557.6862L13525.3719,-3557.6883L13525.378,-3557.6942L13525.3802,-3557.6956L13525.3837,-3557.6961L13525.3896,-3557.6941L13525.3972,-3557.6906L13525.4031,-3557.6863L13525.4065,-3557.6812L13525.4094,-3557.6734L13525.411,-3557.6659L13525.4129,-3557.6593L13525.4141,-3557.6556L13525.4151,-3557.6535L13525.4195,-3557.6501L13525.4285,-3557.6446Z"/>
<path content="京都府,,,宮津市,,26205" xlink:title="京都府" d="M13523.0712,-3558.6022L13523.0701,-3558.5976L13523.0692,-3558.5937L13523.0687,-3558.5899L13523.0689,-3558.5866L13523.0679,-3558.583L13523.0653,-3558.5806L13523.0603,-3558.5796L13523.0551,-3558.5796L13523.0506,-3558.5806L13523.043,-3558.5811L13523.039,-3558.5823L13523.0375,-3558.5851L13523.0355,-3558.5924L13523.0343,-3558.595L13523.0293,-3558.5962L13523.0264,-3558.5983L13523.0255,-3558.5992L13523.0259,-3558.5999L13523.0265,-3558.6007L13523.0277,-3558.601L13523.03,-3558.6011L13523.0325,-3558.6009L13523.0358,-3558.6011L13523.0367,-3558.6017L13523.0378,-3558.6036L13523.0405,-3558.6061L13523.044,-3558.6082L13523.0486,-3558.61L13523.0531,-3558.6116L13523.0578,-3558.6134L13523.0584,-3558.6136L13523.0636,-3558.6145L13523.0665,-3558.614L13523.0684,-3558.6129L13523.0705,-3558.6091L13523.0712,-3558.6022Z"/>
<path content="京都府,,,宮津市,,26205" xlink:title="京都府" d="M13522.8103,-3558.152L13522.8057,-3558.1106L13522.8011,-3558.111L13522.8051,-3558.1518L13522.8048,-3558.1551L13522.8046,-3558.1572L13522.8015,-3558.1637L13522.7938,-3558.1813L13522.7861,-3558.1979L13522.7814,-3558.2084L13522.7775,-3558.2173L13522.7747,-3558.2229L13522.7691,-3558.2353L13522.7636,-3558.2486L13522.7614,-3558.2535L13522.7471,-3558.2781L13522.7529,-3558.28L13522.7613,-3558.266L13522.763,-3558.2623L13522.7703,-3558.2456L13522.7787,-3558.2269L13522.786,-3558.2107L13522.7929,-3558.1954L13522.8014,-3558.1771L13522.8096,-3558.1593L13522.8103,-3558.152Z"/>
<path content="京都府,,,宮津市,,26205" xlink:title="京都府" d="M13525.0506,-3557.9833L13525.0522,-3557.9821L13525.0539,-3557.9818L13525.0555,-3557.9822L13525.0576,-3557.9827L13525.0596,-3557.9829L13525.0604,-3557.9827L13525.061,-3557.9821L13525.0614,-3557.981L13525.0617,-3557.9796L13525.0619,-3557.9777L13525.0614,-3557.9764L13525.0601,-3557.9749L13525.0592,-3557.9741L13525.0586,-3557.9737L13525.0576,-3557.9727L13525.056,-3557.9714L13525.054,-3557.9695L13525.0523,-3557.9683L13525.0496,-3557.9668L13525.044,-3557.9657L13525.0371,-3557.9663L13525.0332,-3557.9668L13525.0314,-3557.9682L13525.03,-3557.9697L13525.0294,-3557.971L13525.0291,-3557.972L13525.0292,-3557.9733L13525.0299,-3557.974L13525.0311,-3557.9751L13525.0319,-3557.9759L13525.0323,-3557.9764L13525.0325,-3557.9772L13525.0325,-3557.9783L13525.0322,-3557.9793L13525.0317,-3557.9805L13525.0311,-3557.9824L13525.031,-3557.9837L13525.0312,-3557.9847L13525.0323,-3557.9849L13525.0341,-3557.985L13525.0375,-3557.9843L13525.0391,-3557.9838L13525.0407,-3557.9829L13525.0414,-3557.9832L13525.0424,-3557.9849L13525.0441,-3557.9866L13525.0458,-3557.9869L13525.0478,-3557.9852L13525.0506,-3557.9833Z"/>
<path content="京都府,,,宮津市,,26205" xlink:title="京都府" d="M13522.8035,-3558.3516L13522.8028,-3558.3507L13522.8003,-3558.3505L13522.7907,-3558.3512L13522.7887,-3558.3506L13522.7825,-3558.3515L13522.7757,-3558.354L13522.7732,-3558.3556L13522.7733,-3558.3565L13522.7752,-3558.3576L13522.7794,-3558.3582L13522.7822,-3558.3586L13522.7835,-3558.3591L13522.7844,-3558.3598L13522.7842,-3558.3605L13522.7828,-3558.3609L13522.7811,-3558.3611L13522.7802,-3558.3616L13522.78,-3558.3622L13522.78,-3558.3632L13522.7803,-3558.3642L13522.7821,-3558.3656L13522.7837,-3558.3674L13522.7841,-3558.3697L13522.7844,-3558.3707L13522.7848,-3558.3714L13522.7859,-3558.3717L13522.7888,-3558.3717L13522.7925,-3558.371L13522.7977,-3558.369L13522.8014,-3558.3668L13522.8035,-3558.3636L13522.8051,-3558.3587L13522.8042,-3558.3561L13522.8036,-3558.3537L13522.8035,-3558.3516Z"/>
<path content="京都府,,,宮津市,,26205" xlink:title="京都府" d="M13525.4293,-3557.6867L13525.427,-3557.686L13525.4241,-3557.6869L13525.4178,-3557.6939L13525.4119,-3557.7006L13525.4076,-3557.7045L13525.402,-3557.7079L13525.4011,-3557.7093L13525.4014,-3557.7116L13525.4022,-3557.713L13525.4044,-3557.7137L13525.4065,-3557.7133L13525.4098,-3557.711L13525.4131,-3557.7068L13525.4152,-3557.7031L13525.4195,-3557.6993L13525.4245,-3557.6958L13525.4296,-3557.6926L13525.4308,-3557.6901L13525.4306,-3557.688L13525.4293,-3557.6867Z"/>
<path content="京都府,,,宮津市,,26205" xlink:title="京都府" d="M13526.1703,-3555.394L13526.1758,-3555.3883L13526.1758,-3555.3839L13526.1709,-3555.384L13526.1702,-3555.3853L13526.1691,-3555.3857L13526.1682,-3555.3842L13526.1669,-3555.3836L13526.1621,-3555.3838L13526.1601,-3555.3877L13526.1583,-3555.3896L13526.1594,-3555.3902L13526.1598,-3555.3914L13526.1603,-3555.3909L13526.1629,-3555.3909L13526.1638,-3555.3919L13526.1622,-3555.3941L13526.1703,-3555.394Z"/>
<path content="京都府,,,宮津市,,26205" xlink:title="京都府" d="M13524.9908,-3557.9107L13524.9931,-3557.9077L13524.9949,-3557.9056L13524.9955,-3557.9045L13524.9953,-3557.9033L13524.993,-3557.9021L13524.991,-3557.9012L13524.9896,-3557.9007L13524.9846,-3557.9007L13524.9829,-3557.9015L13524.9813,-3557.9028L13524.98,-3557.9059L13524.9788,-3557.9094L13524.9811,-3557.9104L13524.986,-3557.9093L13524.9908,-3557.9107Z"/>
<path content="京都府,,,宮津市,,26205" xlink:title="京都府" d="M13525.6647,-3559.4373L13525.6626,-3559.437L13525.6611,-3559.4375L13525.6602,-3559.4386L13525.6597,-3559.4405L13525.6598,-3559.4467L13525.6593,-3559.4489L13525.6588,-3559.4532L13525.6593,-3559.4536L13525.6599,-3559.4537L13525.6616,-3559.4531L13525.6641,-3559.4529L13525.6651,-3559.4524L13525.6654,-3559.4512L13525.6655,-3559.4503L13525.6668,-3559.4475L13525.6687,-3559.4459L13525.669,-3559.4448L13525.6681,-3559.4428L13525.6676,-3559.4412L13525.6668,-3559.4392L13525.6658,-3559.4377L13525.6647,-3559.4373Z"/>
<path content="京都府,,,宮津市,,26205" xlink:title="京都府" d="M13524.9012,-3558.5152L13524.9061,-3558.515L13524.907,-3558.5153L13524.908,-3558.5153L13524.9096,-3558.5149L13524.9116,-3558.5139L13524.9137,-3558.5131L13524.914,-3558.5113L13524.9147,-3558.5108L13524.9147,-3558.5092L13524.9132,-3558.5094L13524.9107,-3558.5102L13524.9077,-3558.5102L13524.9069,-3558.5096L13524.9043,-3558.5097L13524.9015,-3558.5097L13524.8993,-3558.5102L13524.8965,-3558.5111L13524.8936,-3558.5133L13524.8929,-3558.5147L13524.8948,-3558.5163L13524.8964,-3558.5162L13524.9012,-3558.5152Z"/>
<path content="京都府,,,宮津市,,26205" xlink:title="京都府" d="M13525.0429,-3557.8188L13525.0429,-3557.8177L13525.0399,-3557.8178L13525.0397,-3557.8187L13525.0364,-3557.8233L13525.0388,-3557.8251L13525.041,-3557.8253L13525.0431,-3557.826L13525.0458,-3557.8276L13525.046,-3557.8286L13525.0468,-3557.829L13525.0522,-3557.8245L13525.0509,-3557.8221L13525.0503,-3557.8201L13525.0471,-3557.82L13525.0429,-3557.8188Z"/>
<path content="京都府,,,宮津市,,26205" xlink:title="京都府" d="M13524.8794,-3558.5155L13524.8783,-3558.5147L13524.8774,-3558.514L13524.8755,-3558.5141L13524.8748,-3558.5136L13524.8741,-3558.513L13524.8741,-3558.5123L13524.8748,-3558.5123L13524.8748,-3558.5119L13524.8735,-3558.5119L13524.8735,-3558.5134L13524.8742,-3558.5135L13524.8742,-3558.514L13524.8749,-3558.514L13524.8749,-3558.5147L13524.8734,-3558.5147L13524.8733,-3558.5141L13524.8709,-3558.5141L13524.8707,-3558.5146L13524.8702,-3558.5148L13524.8701,-3558.5153L13524.8694,-3558.5163L13524.8688,-3558.5165L13524.8688,-3558.5212L13524.8702,-3558.5214L13524.8703,-3558.5218L13524.875,-3558.5219L13524.8751,-3558.5228L13524.8787,-3558.5218L13524.8797,-3558.5201L13524.8803,-3558.5185L13524.881,-3558.5184L13524.881,-3558.517L13524.8803,-3558.5169L13524.8796,-3558.5163L13524.8794,-3558.5155Z"/>
<path content="京都府,,,宮津市,,26205" xlink:title="京都府" d="M13525.5536,-3556.7811L13525.5513,-3556.7808L13525.5511,-3556.7847L13525.5511,-3556.7875L13525.5511,-3556.7904L13525.5531,-3556.7913L13525.5541,-3556.7922L13525.5561,-3556.7923L13525.5577,-3556.7913L13525.5605,-3556.791L13525.5611,-3556.7897L13525.5616,-3556.7881L13525.5603,-3556.7864L13525.5585,-3556.7853L13525.5562,-3556.7834L13525.5536,-3556.7811Z"/>
<path content="京都府,,,宮津市,,26205" xlink:title="京都府" d="M13525.5854,-3556.8035L13525.583,-3556.8029L13525.5809,-3556.8029L13525.5796,-3556.8041L13525.5787,-3556.8054L13525.5788,-3556.8086L13525.5803,-3556.8096L13525.5827,-3556.8099L13525.5867,-3556.8104L13525.5882,-3556.8109L13525.5899,-3556.8108L13525.5906,-3556.81L13525.5907,-3556.8086L13525.588,-3556.8066L13525.5878,-3556.8052L13525.5854,-3556.8035Z"/>
<path content="京都府,,,宮津市,,26205" xlink:title="京都府" d="M13524.9309,-3558.8255L13524.928,-3558.8252L13524.9253,-3558.8263L13524.9245,-3558.8286L13524.9246,-3558.8302L13524.9264,-3558.8343L13524.9279,-3558.835L13524.9302,-3558.835L13524.9319,-3558.8344L13524.933,-3558.8326L13524.9329,-3558.8306L13524.9321,-3558.8273L13524.9309,-3558.8255Z"/>
<path content="京都府,,,宮津市,,26205" xlink:title="京都府" d="M13525.6028,-3559.5391L13525.6041,-3559.539L13525.6055,-3559.5393L13525.6079,-3559.5389L13525.6097,-3559.5378L13525.6097,-3559.5363L13525.6093,-3559.5352L13525.607,-3559.5346L13525.6043,-3559.5342L13525.6006,-3559.535L13525.5974,-3559.5389L13525.5966,-3559.5402L13525.5965,-3559.5413L13525.5968,-3559.5419L13525.5975,-3559.5424L13525.5989,-3559.5426L13525.6006,-3559.5421L13525.6021,-3559.5407L13525.6028,-3559.5391Z"/>
<path content="京都府,,,宮津市,,26205" xlink:title="京都府" d="M13522.7819,-3558.3476L13522.7807,-3558.3473L13522.7787,-3558.3473L13522.7735,-3558.3492L13522.7692,-3558.3503L13522.7678,-3558.3508L13522.7677,-3558.3515L13522.768,-3558.3524L13522.7689,-3558.3527L13522.7727,-3558.3522L13522.7773,-3558.3513L13522.7805,-3558.3504L13522.7818,-3558.3496L13522.7823,-3558.3484L13522.7819,-3558.3476Z"/>
<path content="京都府,,,宮津市,,26205" xlink:title="京都府" d="M13526.3185,-3556.7783L13526.3185,-3556.7778L13526.3197,-3556.7778L13526.3207,-3556.7778L13526.3206,-3556.7773L13526.3213,-3556.7772L13526.3214,-3556.7767L13526.3227,-3556.7766L13526.3227,-3556.7761L13526.3235,-3556.7756L13526.3249,-3556.7756L13526.325,-3556.7761L13526.3261,-3556.7761L13526.3262,-3556.7755L13526.3282,-3556.7755L13526.3281,-3556.7736L13526.3275,-3556.7733L13526.3275,-3556.7729L13526.3262,-3556.7729L13526.3261,-3556.7718L13526.3254,-3556.7717L13526.3254,-3556.7697L13526.3218,-3556.7727L13526.3204,-3556.7731L13526.3191,-3556.7742L13526.3181,-3556.7748L13526.3181,-3556.7768L13526.3181,-3556.7776L13526.3181,-3556.7783L13526.3185,-3556.7783Z"/>
<path content="京都府,,,宮津市,,26205" xlink:title="京都府" d="M13525.7116,-3556.7893L13525.7112,-3556.7888L13525.7077,-3556.7889L13525.7069,-3556.7893L13525.7068,-3556.7927L13525.7062,-3556.7927L13525.7062,-3556.7947L13525.7101,-3556.7941L13525.7134,-3556.7939L13525.7142,-3556.7925L13525.7147,-3556.7911L13525.7136,-3556.7904L13525.7116,-3556.7893Z"/>
<path content="京都府,,,宮津市,,26205" xlink:title="京都府" d="M13526.1718,-3556.8049L13526.1698,-3556.8042L13526.1692,-3556.8051L13526.1693,-3556.8084L13526.1696,-3556.8113L13526.1711,-3556.8128L13526.1724,-3556.813L13526.1731,-3556.8122L13526.173,-3556.8096L13526.1744,-3556.8082L13526.1743,-3556.8052L13526.1718,-3556.8049Z"/>
<path content="京都府,,,宮津市,,26205" xlink:title="京都府" d="M13522.77,-3558.3463L13522.7595,-3558.3434L13522.7588,-3558.3452L13522.7693,-3558.3481L13522.77,-3558.3463Z"/>
<path content="京都府,,,宮津市,,26205" xlink:title="京都府" d="M13525.7004,-3556.7801L13525.7004,-3556.7796L13525.6985,-3556.7797L13525.6985,-3556.7824L13525.6978,-3556.7855L13525.698,-3556.7856L13525.6994,-3556.7842L13525.6997,-3556.7818L13525.701,-3556.7816L13525.701,-3556.7803L13525.7004,-3556.7801Z"/>
</g>
</svg>
