<?xml version="1.0" encoding="UTF-8"?>
<svg  xmlns="http://www.w3.org/2000/svg" xmlns:xlink="http://www.w3.org/1999/xlink" xmlns:go="http://purl.org/svgmap/profile" property="geometry,N03_001,N03_002,N03_003,N03_004,N03_005,N03_007" viewBox="13587.890625 -3410.15625 17.578125 17.578125" go:dataArea="13587.890625 -3410.15625 17.578125 17.578125" >
<metadata>
 <rdf:RDF xmlns:rdf="http://www.w3.org/1999/02/22-rdf-syntax-ns#" xmlns:crs="http://opengis.org/xmldtds/transformations.dtd" xmlns:svg="http://www.w3.org/svg" >
  <rdf:Description>
   <crs:CoordinateReferenceSystem rdf:resource="http://purl.org/crs/84" svg:transform="matrix(100.0,0.0,0.0,-100.0,0.0,0.0)" />
  </rdf:Description>
 </rdf:RDF>
</metadata>
<globalCoordinateSystem srsName="http://purl.org/crs/84" transform="matrix(100.0,0.0,0.0,-100.0,0.0,0.0)" />
<defs>
 <g id="p0" >
  <circle cx="0.0" cy="0.0" r="3" stroke="green" stroke-width="2.0" vector-effect="non-scaling-stroke" />
 </g>
</defs>
<g fill="#0000ff" fill-rule="evenodd" opacity="0.5" >
<path content="奈良県,,吉野郡,十津川村,,29449" xlink:title="奈良県" d="M13587.8906,-3392.5781L13587.8906,-3410.1562L13590.5457,-3410.1562L13590.5495,-3410.1476L13590.5536,-3410.1414L13590.5729,-3410.1247L13590.5813,-3410.1104L13590.5813,-3410.094L13590.5813,-3410.0901L13590.5766,-3410.0777L13590.5698,-3410.0664L13590.5691,-3410.0636L13590.5742,-3410.0594L13590.592,-3410.0517L13590.6098,-3410.0404L13590.6159,-3410.0342L13590.6261,-3410.0179L13590.6281,-3410.01L13590.6315,-3410L13590.6416,-3409.97L13590.6457,-3409.9537L13590.6471,-3409.9215L13590.6423,-3409.9019L13590.633,-3409.8893L13590.6247,-3409.8832L13590.6166,-3409.8764L13590.6011,-3409.8566L13590.5963,-3409.8505L13590.5762,-3409.8309L13590.563,-3409.8088L13590.559,-3409.7958L13590.5556,-3409.7744L13590.5502,-3409.7383L13590.5502,-3409.6892L13590.5477,-3409.6814L13590.5365,-3409.6726L13590.5095,-3409.6633L13590.5021,-3409.6599L13590.4682,-3409.6385L13590.4255,-3409.6086L13590.4242,-3409.6081L13590.4079,-3409.5979L13590.3822,-3409.5833L13590.3476,-3409.5557L13590.3435,-3409.5523L13590.3239,-3409.5404L13590.3097,-3409.5342L13590.2575,-3409.5139L13590.2331,-3409.5061L13590.2101,-3409.4999L13590.1973,-3409.4899L13590.1796,-3409.4706L13590.1572,-3409.4519L13590.1403,-3409.4412L13590.1191,-3409.4238L13590.0956,-3409.4125L13590.0827,-3409.404L13590.0773,-3409.3967L13590.0759,-3409.3905L13590.0759,-3409.377L13590.0671,-3409.3319L13590.0657,-3409.3003L13590.0664,-3409.289L13590.0657,-3409.2479L13590.0664,-3409.2321L13590.0732,-3409.2061L13590.0912,-3409.1687L13590.0922,-3409.1667L13590.0922,-3409.1667L13590.1111,-3409.1442L13590.1119,-3409.1361L13590.1093,-3409.1301L13590.0941,-3409.1186L13590.0725,-3409.0889L13590.0664,-3409.0816L13590.0502,-3409.0551L13590.019,-3409.0173L13590,-3408.9961L13589.9872,-3408.9818L13589.9621,-3408.948L13589.9607,-3408.9434L13589.9431,-3408.9198L13589.9364,-3408.9074L13589.9282,-3408.864L13589.9296,-3408.847L13589.9316,-3408.8189L13589.9295,-3408.7982L13589.9262,-3408.7873L13589.9214,-3408.7715L13589.9066,-3408.7473L13589.8815,-3408.6994L13589.8673,-3408.6712L13589.8653,-3408.6661L13589.8601,-3408.6531L13589.8487,-3408.6386L13589.8218,-3408.6158L13589.8151,-3408.6034L13589.8193,-3408.5923L13589.8262,-3408.5766L13589.8488,-3408.5362L13589.8821,-3408.4766L13589.9327,-3408.4119L13589.9764,-3408.3333L13589.9854,-3408.3172L13590,-3408.2855L13590.0098,-3408.2641L13590.0377,-3408.1615L13590.0518,-3408.1218L13590.061,-3408.0959L13590.0651,-3408.0842L13590.0711,-3408.0599L13590.0744,-3408.0406L13590.0781,-3408.0144L13590.0842,-3407.9739L13590.0878,-3407.9395L13590.0926,-3407.9132L13590.1053,-3407.8726L13590.1068,-3407.8564L13590.1074,-3407.8371L13590.1067,-3407.8234L13590.1063,-3407.8164L13590.1016,-3407.7936L13590.0963,-3407.7765L13590.082,-3407.7584L13590.0541,-3407.7334L13590.013,-3407.7001L13590,-3407.6915L13589.9544,-3407.6614L13589.9364,-3407.6445L13589.9043,-3407.6068L13589.8895,-3407.5958L13589.8758,-3407.5884L13589.8426,-3407.5792L13589.8004,-3407.5621L13589.776,-3407.5567L13589.7201,-3407.5549L13589.6885,-3407.551L13589.6205,-3407.526L13589.6029,-3407.5158L13589.5881,-3407.5L13589.5803,-3407.4917L13589.5472,-3407.447L13589.5397,-3407.4368L13589.5038,-3407.3971L13589.4653,-3407.3436L13589.4057,-3407.2835L13589.3571,-3407.2328L13589.3509,-3407.227L13589.3276,-3407.2056L13589.3197,-3407.1885L13589.3097,-3407.1534L13589.2975,-3407.0913L13589.2775,-3406.9974L13589.2637,-3406.9638L13589.2579,-3406.9533L13589.2453,-3406.9441L13589.2089,-3406.9147L13589.1804,-3406.8801L13589.1667,-3406.8653L13589.1413,-3406.8381L13589.0923,-3406.76L13589.0791,-3406.7258L13589.0786,-3406.7153L13589.0807,-3406.6992L13589.0891,-3406.6826L13589.099,-3406.6667L13589.1049,-3406.6571L13589.1381,-3406.6212L13589.1667,-3406.5913L13589.1877,-3406.5694L13589.1935,-3406.5547L13589.1998,-3406.5388L13589.2283,-3406.4686L13589.2346,-3406.4616L13589.2463,-3406.4532L13589.2579,-3406.4462L13589.2782,-3406.4414L13589.2895,-3406.4387L13589.3475,-3406.426L13589.3691,-3406.4177L13589.3849,-3406.4023L13589.4267,-3406.3495L13589.4657,-3406.2907L13589.5106,-3406.2391L13589.5312,-3406.204L13589.5444,-3406.1847L13589.5496,-3406.1602L13589.5586,-3406.108L13589.5919,-3406.0423L13589.5948,-3406.0271L13589.5956,-3406.023L13589.5945,-3405.9984L13589.5993,-3405.9681L13589.6093,-3405.9409L13589.6251,-3405.9064L13589.6441,-3405.8836L13589.681,-3405.8525L13589.6863,-3405.842L13589.6869,-3405.8333L13589.6873,-3405.8279L13589.6852,-3405.8134L13589.6746,-3405.7887L13589.6541,-3405.7536L13589.6446,-3405.7251L13589.6188,-3405.6948L13589.6045,-3405.6796L13589.5787,-3405.6522L13589.5522,-3405.6291L13589.5269,-3405.6028L13589.4716,-3405.5419L13589.424,-3405.4688L13589.3771,-3405.3626L13589.3591,-3405.3307L13589.3138,-3405.2746L13589.2885,-3405.2505L13589.2441,-3405.2165L13589.2119,-3405.1884L13589.2046,-3405.1696L13589.2061,-3405.1454L13589.2084,-3405.1329L13589.2104,-3405.1217L13589.2388,-3405.0602L13589.2478,-3405.0328L13589.2535,-3405L13589.2568,-3404.9811L13589.2831,-3404.8959L13589.2863,-3404.8897L13589.3133,-3404.8364L13589.3328,-3404.8149L13589.3407,-3404.7995L13589.3497,-3404.7837L13589.3655,-3404.7649L13589.3908,-3404.7517L13589.4986,-3404.7031L13589.5307,-3404.6904L13589.536,-3404.6834L13589.537,-3404.6681L13589.5254,-3404.5667L13589.5317,-3404.5448L13589.5529,-3404.5037L13589.5729,-3404.4765L13589.5751,-3404.4639L13589.5777,-3404.4484L13589.5793,-3404.4155L13589.5829,-3404.3931L13589.5983,-3404.3667L13589.6325,-3404.3334L13589.6483,-3404.3013L13589.6615,-3404.2748L13589.6716,-3404.2559L13589.6736,-3404.2274L13589.672,-3404.2202L13589.67,-3404.2111L13589.6716,-3404.2014L13589.6953,-3404.1667L13589.7074,-3404.1488L13589.7288,-3404.1279L13589.7666,-3404.0911L13589.7887,-3404.0683L13589.8016,-3404.0595L13589.8795,-3404.0062L13590,-3403.9233L13590.0445,-3403.8926L13590.0717,-3403.8727L13590.0906,-3403.845L13590.1107,-3403.8174L13590.1165,-3403.8148L13590.1224,-3403.8134L13590.1312,-3403.8112L13590.1391,-3403.8042L13590.1544,-3403.7716L13590.155,-3403.7549L13590.1661,-3403.7422L13590.185,-3403.7233L13590.2011,-3403.7153L13590.2353,-3403.7034L13590.2706,-3403.682L13590.3012,-3403.6631L13590.3207,-3403.6592L13590.3391,-3403.6578L13590.3581,-3403.6521L13590.365,-3403.6394L13590.3829,-3403.5868L13590.4004,-3403.5553L13590.4062,-3403.5365L13590.4125,-3403.5286L13590.4336,-3403.5167L13590.4639,-3403.5072L13590.47,-3403.5053L13590.5849,-3403.4632L13590.6081,-3403.4584L13590.6249,-3403.4584L13590.6811,-3403.4689L13590.6959,-3403.4689L13590.7038,-3403.4672L13590.7227,-3403.443L13590.776,-3403.3414L13590.7804,-3403.3333L13590.7987,-3403.2993L13590.8284,-3403.2455L13590.8333,-3403.242L13590.8474,-3403.2323L13590.8674,-3403.2196L13590.9074,-3403.1924L13590.9269,-3403.1687L13590.9501,-3403.1332L13590.9629,-3403.111L13591.0088,-3403.0597L13591.0415,-3403.0215L13591.0733,-3402.994L13591.0794,-3402.9886L13591.0979,-3402.9715L13591.1037,-3402.961L13591.1042,-3402.9465L13591.1016,-3402.9173L13591.0937,-3402.9002L13591.092,-3402.8773L13591.0916,-3402.8717L13591.0847,-3402.8559L13591.0642,-3402.8305L13591.0451,-3402.8136L13590.9956,-3402.7623L13590.9876,-3402.7523L13590.9866,-3402.7387L13590.9993,-3402.6954L13591.0019,-3402.6853L13591.0019,-3402.6739L13590.9945,-3402.6581L13590.9908,-3402.6371L13590.9913,-3402.6081L13590.9786,-3402.5582L13590.9781,-3402.5407L13590.9744,-3402.5214L13590.9744,-3402.5061L13590.9771,-3402.5L13590.9871,-3402.477L13590.9881,-3402.47L13590.9818,-3402.456L13590.9655,-3402.4314L13590.8979,-3402.3631L13590.8647,-3402.3451L13590.8383,-3402.3381L13590.8333,-3402.3367L13590.7903,-3402.3245L13590.7751,-3402.3166L13590.7507,-3402.2925L13590.7407,-3402.2846L13590.6953,-3402.2675L13590.6784,-3402.2598L13590.6594,-3402.2396L13590.6404,-3402.2172L13590.6318,-3402.2107L13590.6093,-3402.1936L13590.5893,-3402.1782L13590.5774,-3402.1747L13590.5296,-3402.1606L13590.5148,-3402.1535L13590.4984,-3402.1434L13590.4215,-3402.1241L13590.3925,-3402.118L13590.3609,-3402.1211L13590.3414,-3402.1246L13590.3255,-3402.1233L13590.3086,-3402.1152L13590.2938,-3402.1029L13590.2627,-3402.0836L13590.2411,-3402.0722L13590.2263,-3402.0555L13590.2063,-3402.0283L13590.1787,-3402.001L13590.1677,-3401.9844L13590.1682,-3401.9729L13590.1729,-3401.9532L13590.1756,-3401.9418L13590.1793,-3401.9229L13590.1761,-3401.9054L13590.1777,-3401.852L13590.1682,-3401.8283L13590.1677,-3401.795L13590.1777,-3401.7352L13590.1824,-3401.7018L13590.1851,-3401.6751L13590.1875,-3401.6667L13590.2019,-3401.6176L13590.2215,-3401.5826L13590.2458,-3401.5252L13590.2574,-3401.5072L13590.2582,-3401.5063L13590.2969,-3401.4651L13590.3091,-3401.4471L13590.3249,-3401.4205L13590.3376,-3401.41L13590.3739,-3401.3955L13590.3924,-3401.385L13590.4029,-3401.3661L13590.4205,-3401.3351L13590.4563,-3401.2834L13590.4611,-3401.2623L13590.4605,-3401.2417L13590.4568,-3401.1939L13590.4558,-3401.1576L13590.4595,-3401.1471L13590.4647,-3401.1388L13590.4764,-3401.1282L13590.518,-3401.1099L13590.605,-3401.0691L13590.6153,-3401.0625L13590.6229,-3401.0577L13590.6303,-3401.0484L13590.6419,-3401.0313L13590.645,-3401.0217L13590.6419,-3401.0104L13590.633,-3400.9942L13590.6314,-3400.9819L13590.6388,-3400.953L13590.6483,-3400.9201L13590.6599,-3400.8652L13590.6641,-3400.8395L13590.6637,-3400.8333L13590.663,-3400.8215L13590.6546,-3400.8009L13590.6435,-3400.7839L13590.6239,-3400.7539L13590.574,-3400.6777L13590.5502,-3400.6396L13590.538,-3400.6072L13590.5258,-3400.5399L13590.5154,-3400.4897L13590.5113,-3400.4733L13590.5038,-3400.4598L13590.5038,-3400.4516L13590.5096,-3400.4444L13590.5316,-3400.4357L13590.5786,-3400.4265L13590.5931,-3400.4166L13590.6053,-3400.4031L13590.6255,-3400.3772L13590.6597,-3400.3336L13590.6806,-3400.3288L13590.715,-3400.3073L13590.7508,-3400.2825L13590.7782,-3400.2626L13590.8019,-3400.2378L13590.8231,-3400.2105L13590.8333,-3400.1861L13590.8397,-3400.1709L13590.8579,-3400.1191L13590.87,-3400.0618L13590.8741,-3400.0294L13590.8765,-3400L13590.8776,-3399.9869L13590.8741,-3399.9557L13590.8685,-3399.9292L13590.8609,-3399.9077L13590.8523,-3399.8972L13590.8333,-3399.8807L13590.8154,-3399.8652L13590.7842,-3399.8412L13590.7629,-3399.8298L13590.749,-3399.8224L13590.731,-3399.8127L13590.7246,-3399.8092L13590.7167,-3399.8049L13590.7012,-3399.7965L13590.6754,-3399.7899L13590.6699,-3399.7886L13590.6508,-3399.7793L13590.6205,-3399.7604L13590.6053,-3399.7443L13590.5947,-3399.7283L13590.5831,-3399.7061L13590.583,-3399.7056L13590.5756,-3399.6862L13590.5685,-3399.6727L13590.5528,-3399.6547L13590.5331,-3399.6323L13590.5099,-3399.6206L13590.5008,-3399.6147L13590.4947,-3399.6042L13590.4745,-3399.565L13590.4629,-3399.5494L13590.4391,-3399.5257L13590.4129,-3399.4993L13590.3876,-3399.4825L13590.3411,-3399.4512L13590.328,-3399.4403L13590.322,-3399.4294L13590.3225,-3399.4028L13590.3255,-3399.3923L13590.3351,-3399.3696L13590.3366,-3399.3494L13590.3219,-3399.3212L13590.3073,-3399.2926L13590.278,-3399.2508L13590.2503,-3399.2189L13590.2396,-3399.2029L13590.2366,-3399.1864L13590.2407,-3399.1733L13590.2447,-3399.1667L13590.2543,-3399.1506L13590.2674,-3399.1199L13590.278,-3399.0917L13590.2836,-3399.0558L13590.2836,-3399.0294L13590.2836,-3399.0218L13590.2785,-3398.962L13590.2735,-3398.9224L13590.2669,-3398.9034L13590.2644,-3398.8778L13590.2649,-3398.8499L13590.273,-3398.8205L13590.2805,-3398.7805L13590.2805,-3398.7098L13590.2775,-3398.687L13590.2649,-3398.663L13590.2462,-3398.6297L13590.2169,-3398.5901L13590.1841,-3398.5506L13590.1482,-3398.5173L13590.1219,-3398.4929L13590.0769,-3398.4672L13590.0255,-3398.4311L13590,-3398.4101L13589.9886,-3398.4007L13589.9497,-3398.3717L13589.9304,-3398.3539L13589.9182,-3398.3333L13589.9149,-3398.3278L13589.8921,-3398.3098L13589.8623,-3398.2903L13589.8532,-3398.2823L13589.8532,-3398.2731L13589.8607,-3398.2678L13589.8633,-3398.2659L13589.881,-3398.2546L13589.9107,-3398.2369L13589.9249,-3398.2247L13589.9457,-3398.207L13589.9674,-3398.1788L13589.9815,-3398.1666L13590,-3398.1596L13590.0336,-3398.1468L13590.0583,-3398.1367L13590.0856,-3398.1144L13590.1099,-3398.0899L13590.1266,-3398.0781L13590.1543,-3398.0642L13590.181,-3398.0525L13590.2003,-3398.0423L13590.2296,-3398.0242L13590.2457,-3398.0074L13590.2664,-3397.9911L13590.2846,-3397.9797L13590.318,-3397.9632L13590.3422,-3397.9497L13590.3654,-3397.9342L13590.377,-3397.9203L13590.3937,-3397.892L13590.4013,-3397.8798L13590.4144,-3397.8693L13590.4447,-3397.8613L13590.4578,-3397.8563L13590.4679,-3397.8487L13590.491,-3397.817L13590.4978,-3397.8012L13590.4991,-3397.7916L13590.5046,-3397.7803L13590.5227,-3397.7545L13590.5395,-3397.7476L13590.5667,-3397.7449L13590.5992,-3397.7438L13590.6169,-3397.738L13590.6347,-3397.7266L13590.664,-3397.6986L13590.6693,-3397.6935L13590.6965,-3397.6691L13590.7408,-3397.6418L13590.791,-3397.6122L13590.8333,-3397.5969L13590.8371,-3397.5956L13590.8747,-3397.5816L13590.903,-3397.5755L13590.9265,-3397.5791L13590.9617,-3397.587L13590.9698,-3397.5892L13591.0101,-3397.5955L13591.0331,-3397.5955L13591.0593,-3397.5867L13591.0928,-3397.5702L13591.1242,-3397.5519L13591.1686,-3397.5177L13591.1828,-3397.503L13591.1853,-3397.5L13591.1929,-3397.4906L13591.2207,-3397.4515L13591.2396,-3397.4349L13591.2783,-3397.4157L13591.3297,-3397.3945L13591.3936,-3397.3736L13591.4082,-3397.364L13591.4511,-3397.33L13591.4783,-3397.3091L13591.5237,-3397.2827L13591.5674,-3397.2592L13591.5489,-3397.2207L13591.5281,-3397.1758L13591.5174,-3397.1378L13591.5138,-3397.1132L13591.5138,-3397.0939L13591.5273,-3397.0639L13591.5371,-3397.0379L13591.5416,-3397.02L13591.5451,-3397.0007L13591.5425,-3396.9851L13591.538,-3396.959L13591.5391,-3396.9463L13591.5407,-3396.9283L13591.5433,-3396.9015L13591.5541,-3396.871L13591.5765,-3396.8276L13591.5988,-3396.7859L13591.6033,-3396.7673L13591.5987,-3396.7522L13591.5907,-3396.7448L13591.5612,-3396.7247L13591.5469,-3396.6987L13591.5356,-3396.6667L13591.5245,-3396.6352L13591.5022,-3396.6069L13591.4763,-3396.5824L13591.4484,-3396.5678L13591.4332,-3396.5599L13591.3778,-3396.5324L13591.3457,-3396.5108L13591.2973,-3396.4571L13591.2661,-3396.4265L13591.2366,-3396.4146L13591.1979,-3396.4094L13591.1532,-3396.4116L13591.1246,-3396.4206L13591.0764,-3396.4332L13591.0174,-3396.4377L13590.9772,-3396.4347L13590.9108,-3396.4167L13590.8333,-3396.3872L13590.8286,-3396.3854L13590.7893,-3396.3735L13590.784,-3396.3708L13590.7284,-3396.3421L13590.698,-3396.3213L13590.6774,-3396.3109L13590.6667,-3396.3079L13590.6658,-3396.2967L13590.673,-3396.2863L13590.6926,-3396.2742L13590.7016,-3396.2638L13590.7105,-3396.2504L13590.7105,-3396.2355L13590.7043,-3396.2251L13590.6918,-3396.2192L13590.6829,-3396.211L13590.6802,-3396.1954L13590.6777,-3396.1647L13590.6766,-3396.1512L13590.6757,-3396.1237L13590.6811,-3396.1051L13590.6874,-3396.0901L13590.69,-3396.0722L13590.6918,-3396.0551L13590.7007,-3396.029L13590.7061,-3396.0171L13590.7079,-3395.9902L13590.7061,-3395.9492L13590.6981,-3395.9209L13590.6918,-3395.9113L13590.6882,-3395.894L13590.6927,-3395.8642L13590.6882,-3395.8374L13590.6858,-3395.8333L13590.6748,-3395.8151L13590.6641,-3395.8091L13590.6453,-3395.8091L13590.6292,-3395.8037L13590.6185,-3395.7903L13590.6095,-3395.768L13590.6006,-3395.7486L13590.5863,-3395.7322L13590.5809,-3395.7137L13590.5665,-3395.6889L13590.5379,-3395.6591L13590.5138,-3395.6249L13590.4986,-3395.5934L13590.478,-3395.5659L13590.4682,-3395.5532L13590.4423,-3395.5414L13590.409,-3395.53L13590.3671,-3395.5152L13590.3223,-3395.4891L13590.3045,-3395.475L13590.2731,-3395.4443L13590.257,-3395.4258L13590.2427,-3395.4093L13590.2293,-3395.3907L13590.2097,-3395.381L13590.1971,-3395.3751L13590.1811,-3395.3766L13590.1638,-3395.3878L13590.1433,-3395.3959L13590.1245,-3395.3967L13590.1093,-3395.3952L13590.0933,-3395.3878L13590.0486,-3395.3826L13590.0039,-3395.3788L13590,-3395.3787L13589.9539,-3395.3773L13589.9244,-3395.3788L13589.8928,-3395.3833L13589.8696,-3395.3803L13589.8427,-3395.3751L13589.8177,-3395.3736L13589.7972,-3395.3803L13589.7856,-3395.3885L13589.7731,-3395.4019L13589.7597,-3395.4138L13589.7463,-3395.4227L13589.7368,-3395.4247L13589.7356,-3395.425L13589.7257,-3395.4213L13589.7195,-3395.4109L13589.7123,-3395.3885L13589.7087,-3395.3548L13589.7087,-3395.3392L13589.7248,-3395.3169L13589.732,-3395.3013L13589.7297,-3395.2768L13589.7157,-3395.2564L13589.705,-3395.2415L13589.6773,-3395.2207L13589.6532,-3395.2117L13589.6344,-3395.2073L13589.6112,-3395.1991L13589.5951,-3395.1864L13589.5817,-3395.1752L13589.5548,-3395.149L13589.5378,-3395.1386L13589.511,-3395.12L13589.4967,-3395.1073L13589.4954,-3395.1037L13589.4851,-3395.0768L13589.4654,-3395.0439L13589.4475,-3395.029L13589.4135,-3395.0178L13589.3849,-3395.0074L13589.3784,-3395L13589.3697,-3394.9903L13589.3626,-3394.9784L13589.3617,-3394.9546L13589.3731,-3394.9418L13589.3937,-3394.9289L13589.4185,-3394.9255L13589.4412,-3394.9298L13589.4567,-3394.9324L13589.4742,-3394.9306L13589.4845,-3394.9229L13589.4856,-3394.9143L13589.4773,-3394.9014L13589.468,-3394.88L13589.4577,-3394.8439L13589.4443,-3394.8327L13589.4309,-3394.8284L13589.3989,-3394.8241L13589.3784,-3394.8119L13589.3617,-3394.7881L13589.3545,-3394.7584L13589.3522,-3394.7127L13589.3438,-3394.6929L13589.3236,-3394.6819L13589.2986,-3394.6681L13589.2818,-3394.6499L13589.2628,-3394.6211L13589.2497,-3394.5973L13589.2449,-3394.5824L13589.2437,-3394.5546L13589.2521,-3394.5298L13589.2782,-3394.5129L13589.3084,-3394.4842L13589.3236,-3394.4659L13589.3277,-3394.4453L13589.327,-3394.4423L13589.3208,-3394.4167L13589.3222,-3394.388L13589.3291,-3394.3408L13589.3236,-3394.3018L13589.3154,-3394.2789L13589.2879,-3394.2457L13589.27,-3394.2216L13589.2535,-3394.1858L13589.2549,-3394.1744L13589.2561,-3394.1667L13589.2604,-3394.1411L13589.2672,-3394.1022L13589.2837,-3394.0793L13589.3084,-3394.0518L13589.3414,-3394.0209L13589.3611,-3393.9917L13589.3652,-3393.9833L13589.3645,-3393.9726L13589.3632,-3393.9675L13589.3564,-3393.959L13589.3368,-3393.9421L13589.3189,-3393.9277L13589.3067,-3393.9183L13589.3009,-3393.9027L13589.3009,-3393.8942L13589.3077,-3393.888L13589.3158,-3393.8829L13589.326,-3393.8801L13589.3456,-3393.8801L13589.3652,-3393.8812L13589.3771,-3393.8826L13589.3914,-3393.88L13589.3975,-3393.8758L13589.4119,-3393.8604L13589.4179,-3393.8536L13589.4247,-3393.8486L13589.447,-3393.8401L13589.4666,-3393.8271L13589.4691,-3393.8238L13589.4691,-3393.8051L13589.468,-3393.789L13589.466,-3393.7703L13589.466,-3393.7514L13589.4783,-3393.6996L13589.4785,-3393.6967L13589.4823,-3393.6521L13589.4864,-3393.6393L13589.4926,-3393.6348L13589.5058,-3393.6331L13589.5252,-3393.6323L13589.5446,-3393.6263L13589.5568,-3393.6136L13589.5629,-3393.5932L13589.5609,-3393.5856L13589.5527,-3393.5737L13589.5507,-3393.5635L13589.5507,-3393.5567L13589.57,-3393.5406L13589.5996,-3393.5287L13589.6302,-3393.5185L13589.6631,-3393.5106L13589.6794,-3393.5064L13589.6827,-3393.5042L13589.6936,-3393.497L13589.7049,-3393.4707L13589.7161,-3393.4461L13589.7313,-3393.4351L13589.7721,-3393.4257L13589.7915,-3393.4147L13589.8006,-3393.4019L13589.8088,-3393.3782L13589.8119,-3393.3414L13589.8132,-3393.3333L13589.8251,-3393.2624L13589.8282,-3393.2327L13589.8343,-3393.1951L13589.8465,-3393.1365L13589.8547,-3393.0845L13589.8618,-3393.0599L13589.8618,-3393.0454L13589.8587,-3393.0301L13589.8465,-3393.0047L13589.8455,-3392.9953L13589.8537,-3392.9767L13589.8599,-3392.9649L13589.8649,-3392.9554L13589.873,-3392.9313L13589.8771,-3392.8999L13589.8741,-3392.8855L13589.8608,-3392.8728L13589.8425,-3392.8558L13589.8384,-3392.8456L13589.8404,-3392.832L13589.8404,-3392.8133L13589.8404,-3392.7978L13589.8506,-3392.7791L13589.8577,-3392.7621L13589.8618,-3392.7477L13589.8598,-3392.7358L13589.8486,-3392.7222L13589.8404,-3392.7008L13589.8435,-3392.6686L13589.8608,-3392.6422L13589.8853,-3392.6227L13589.8985,-3392.6049L13589.907,-3392.5781Z"/>
<path content="奈良県,,吉野郡,下北山村,,29450" xlink:title="奈良県" d="M13596.7228,-3410.1562L13596.7274,-3410.1502L13596.7319,-3410.1308L13596.7292,-3410.1094L13596.7238,-3410.0598L13596.7224,-3410.0221L13596.7204,-3410.0108L13596.7204,-3410L13596.7204,-3409.9826L13596.7231,-3409.9741L13596.7313,-3409.9369L13596.7319,-3409.9285L13596.7414,-3409.8935L13596.7489,-3409.8603L13596.755,-3409.8417L13596.7563,-3409.8321L13596.7617,-3409.8157L13596.7787,-3409.7797L13596.7902,-3409.7594L13596.797,-3409.7486L13596.7997,-3409.7368L13596.81,-3409.7111L13596.8153,-3409.699L13596.8444,-3409.6697L13596.8526,-3409.659L13596.8568,-3409.6391L13596.8581,-3409.6337L13596.8614,-3409.6201L13596.8674,-3409.6111L13596.8979,-3409.5908L13596.9061,-3409.5796L13596.9169,-3409.5593L13596.9264,-3409.544L13596.9282,-3409.5334L13596.9311,-3409.517L13596.9304,-3409.4944L13596.9243,-3409.4572L13596.923,-3409.4426L13596.9237,-3409.4403L13596.9257,-3409.4121L13596.9249,-3409.3793L13596.9135,-3409.3569L13596.9128,-3409.3546L13596.9054,-3409.3456L13596.8952,-3409.336L13596.8613,-3409.2966L13596.8492,-3409.283L13596.8356,-3409.2712L13596.8261,-3409.2543L13596.8112,-3409.2227L13596.8024,-3409.2092L13596.7916,-3409.1956L13596.7841,-3409.1855L13596.768,-3409.1667L13596.7556,-3409.1523L13596.7401,-3409.141L13596.7286,-3409.1292L13596.7252,-3409.1224L13596.7078,-3409.0902L13596.7035,-3409.0683L13596.7035,-3409.0598L13596.7014,-3409.0266L13596.6981,-3408.9837L13596.696,-3408.9724L13596.6947,-3408.9696L13596.694,-3408.9319L13596.6974,-3408.8868L13596.7028,-3408.8456L13596.7028,-3408.7904L13596.6994,-3408.7791L13596.6926,-3408.7672L13596.6807,-3408.7481L13596.6763,-3408.7332L13596.6757,-3408.725L13596.6777,-3408.721L13596.6831,-3408.7148L13596.7033,-3408.6996L13596.7062,-3408.6973L13596.7123,-3408.6945L13596.7408,-3408.6795L13596.7534,-3408.6664L13596.7703,-3408.6434L13596.7899,-3408.6283L13596.7967,-3408.623L13596.8342,-3408.5949L13596.8813,-3408.5271L13596.9186,-3408.4748L13596.9333,-3408.4528L13596.9981,-3408.385L13597,-3408.3736L13596.9719,-3408.3333L13596.9569,-3408.3119L13596.9147,-3408.2334L13596.9127,-3408.2228L13596.9206,-3408.1894L13596.9245,-3408.1738L13596.9048,-3408.1319L13596.9078,-3408.0853L13596.9048,-3408.0608L13596.8822,-3407.9961L13596.8783,-3407.9756L13596.8822,-3407.9585L13596.9176,-3407.907L13596.9215,-3407.8931L13596.9195,-3407.879L13596.8997,-3407.8156L13596.8979,-3407.8096L13596.8881,-3407.7574L13596.8911,-3407.7149L13596.8969,-3407.6871L13596.9205,-3407.658L13596.9353,-3407.6384L13596.9372,-3407.618L13596.9333,-3407.5731L13596.9254,-3407.5224L13596.9115,-3407.5L13596.9097,-3407.4971L13596.8901,-3407.4645L13596.8725,-3407.3906L13596.8744,-3407.3816L13596.9091,-3407.372L13596.9186,-3407.3693L13596.9529,-3407.3506L13596.9932,-3407.3097L13597.0393,-3407.2359L13597.0894,-3407.1387L13597.1003,-3407.0896L13597.1012,-3407.0856L13597.0982,-3407.0717L13597.0717,-3407.0587L13597.0305,-3407.0391L13597.0267,-3407.0362L13597.0107,-3407.024L13596.9352,-3406.9644L13596.8969,-3406.9399L13596.8744,-3406.8933L13596.8596,-3406.8647L13596.8547,-3406.813L13596.8665,-3406.7346L13596.8803,-3406.6796L13596.8887,-3406.6667L13596.8989,-3406.651L13596.9254,-3406.6183L13596.9588,-3406.5807L13596.9698,-3406.5724L13597.0511,-3406.5249L13597.0816,-3406.5029L13597.1071,-3406.4832L13597.1111,-3406.4776L13597.1159,-3406.471L13597.154,-3406.3824L13597.154,-3406.3578L13597.1416,-3406.3191L13597.1493,-3406.2997L13597.1912,-3406.2894L13597.2858,-3406.2786L13597.3001,-3406.2671L13597.348,-3406.2422L13597.3671,-3406.2371L13597.3932,-3406.2347L13597.4501,-3406.2361L13597.5,-3406.234L13597.5031,-3406.2338L13597.524,-3406.2282L13597.5336,-3406.2216L13597.5383,-3406.2102L13597.5507,-3406.1957L13597.5766,-3406.1764L13597.6081,-3406.1685L13597.6216,-3406.1675L13597.6476,-3406.1736L13597.6707,-3406.1746L13597.6881,-3406.1708L13597.7225,-3406.16L13597.7417,-3406.1572L13597.796,-3406.1561L13597.8181,-3406.1501L13597.8685,-3406.1098L13597.8982,-3406.0845L13597.9175,-3406.0742L13597.9286,-3406.0745L13597.9527,-3406.0753L13597.9776,-3406.0776L13598.0419,-3406.0822L13598.0486,-3406.0829L13598.0598,-3406.0839L13598.0667,-3406.0886L13598.0834,-3406.1087L13598.1021,-3406.1357L13598.1318,-3406.1777L13598.1588,-3406.2027L13598.1837,-3406.2406L13598.1906,-3406.2601L13598.212,-3406.2843L13598.2369,-3406.2987L13598.3074,-3406.3194L13598.3333,-3406.329L13598.3421,-3406.3323L13598.3988,-3406.3656L13598.4251,-3406.3926L13598.4658,-3406.4294L13598.4789,-3406.4392L13598.51,-3406.4495L13598.5862,-3406.4699L13598.6691,-3406.5112L13598.7403,-3406.5526L13598.7591,-3406.5701L13598.7653,-3406.5821L13598.7679,-3406.5875L13598.7881,-3406.6287L13598.8069,-3406.6519L13598.8315,-3406.6667L13598.8366,-3406.6697L13598.858,-3406.6754L13598.8684,-3406.6737L13598.878,-3406.6667L13598.8904,-3406.6576L13598.8987,-3406.6565L13598.9222,-3406.6605L13598.9476,-3406.6667L13598.9623,-3406.6702L13598.992,-3406.6697L13599.0105,-3406.6695L13599.0316,-3406.6692L13599.0503,-3406.6726L13599.0945,-3406.6968L13599.1359,-3406.7152L13599.1667,-3406.724L13599.1843,-3406.729L13599.2292,-3406.7485L13599.2568,-3406.7655L13599.2769,-3406.7742L13599.3357,-3406.7829L13599.3582,-3406.795L13599.4043,-3406.8233L13599.4437,-3406.8467L13599.517,-3406.8728L13599.5813,-3406.8983L13599.6795,-3406.9458L13599.7156,-3406.9557L13599.7505,-3406.963L13599.7987,-3406.9741L13599.807,-3406.9778L13599.8192,-3406.9842L13599.8273,-3406.9934L13599.8565,-3407.0378L13599.8937,-3407.0774L13599.9244,-3407.1042L13599.9545,-3407.1284L13599.9707,-3407.1491L13599.9745,-3407.16L13599.9754,-3407.1691L13599.973,-3407.1819L13599.9719,-3407.2043L13599.9725,-3407.2064L13599.9787,-3407.23L13599.9918,-3407.2615L13600,-3407.273L13600.0207,-3407.3022L13600.0569,-3407.3633L13600.0879,-3407.4383L13600.1585,-3407.4428L13600.1926,-3407.4496L13600.2166,-3407.4569L13600.2408,-3407.4688L13600.2457,-3407.474L13600.2686,-3407.4907L13600.2847,-3407.5L13600.2896,-3407.5028L13600.3438,-3407.517L13600.4004,-3407.5279L13600.4131,-3407.5322L13600.4329,-3407.5389L13600.489,-3407.5713L13600.5178,-3407.5872L13600.5294,-3407.5876L13600.6277,-3407.5642L13600.6881,-3407.5488L13600.7555,-3407.5043L13600.7611,-3407.5L13600.8332,-3407.4447L13600.8333,-3407.4446L13600.9039,-3407.3851L13600.9524,-3407.3521L13600.9738,-3407.3436L13600.9972,-3407.3319L13601.0134,-3407.3192L13601.0286,-3407.3052L13601.0356,-3407.2581L13601.0441,-3407.2407L13601.065,-3407.2201L13601.0704,-3407.2156L13601.0911,-3407.2058L13601.0968,-3407.2001L13601.0929,-3407.1566L13601.0938,-3407.1367L13601.0968,-3407.1275L13601.1077,-3407.1089L13601.1419,-3407.0828L13601.1534,-3407.0729L13601.1585,-3407.0649L13601.1604,-3407.0604L13601.1627,-3407.0548L13601.1619,-3407.0425L13601.1588,-3407.0267L13601.1363,-3406.979L13601.1183,-3406.9543L13601.0679,-3406.9257L13601.0427,-3406.9063L13601.0349,-3406.8923L13601.0275,-3406.8734L13601.0086,-3406.8567L13600.9988,-3406.8329L13600.9916,-3406.8156L13600.9807,-3406.7991L13600.978,-3406.7819L13600.9925,-3406.7428L13601.0448,-3406.6889L13601.0891,-3406.6667L13601.1104,-3406.656L13601.1804,-3406.6193L13601.1943,-3406.6148L13601.2246,-3406.6049L13601.2877,-3406.5622L13601.3118,-3406.5423L13601.3229,-3406.5295L13601.3646,-3406.4963L13601.3794,-3406.474L13601.4048,-3406.4625L13601.4189,-3406.4507L13601.427,-3406.4321L13601.4337,-3406.4181L13601.4486,-3406.4007L13601.4575,-3406.3886L13601.466,-3406.3772L13601.4728,-3406.3715L13601.508,-3406.3384L13601.5435,-3406.3168L13601.5743,-3406.2984L13601.5831,-3406.293L13601.5928,-3406.29L13601.6075,-3406.2892L13601.6317,-3406.2829L13601.6361,-3406.2821L13601.6609,-3406.2742L13601.6667,-3406.2724L13601.6915,-3406.2646L13601.7064,-3406.2589L13601.7381,-3406.2461L13601.7619,-3406.2385L13601.8273,-3406.2179L13601.8713,-3406.2089L13601.8912,-3406.2003L13601.9269,-3406.185L13601.941,-3406.1777L13601.9603,-3406.1633L13601.9721,-3406.1528L13602.0125,-3406.1257L13602.0243,-3406.108L13602.0332,-3406.0891L13602.088,-3406.036L13602.1069,-3406.0262L13602.1178,-3406.0215L13602.124,-3406.016L13602.1279,-3406.0115L13602.1636,-3405.9706L13602.2009,-3405.9408L13602.2292,-3405.9183L13602.2596,-3405.8993L13602.2744,-3405.8923L13602.3273,-3405.8553L13602.3522,-3405.8333L13602.3893,-3405.8007L13602.4014,-3405.7931L13602.4077,-3405.7906L13602.4387,-3405.7887L13602.4783,-3405.7962L13602.5,-3405.7947L13602.5214,-3405.7932L13602.5457,-3405.7857L13602.5783,-3405.7619L13602.5925,-3405.7542L13602.6025,-3405.7521L13602.6304,-3405.7438L13602.6438,-3405.7371L13602.6897,-3405.699L13602.7607,-3405.6578L13602.8247,-3405.6165L13602.8398,-3405.605L13602.8517,-3405.5993L13602.8984,-3405.5813L13602.9176,-3405.5726L13602.9307,-3405.5649L13602.9467,-3405.5497L13602.9558,-3405.5396L13602.9704,-3405.5321L13602.9787,-3405.5277L13602.9913,-3405.5229L13603.0096,-3405.5206L13603.0219,-3405.519L13603.0427,-3405.5151L13603.0667,-3405.5147L13603.0791,-3405.5188L13603.0883,-3405.5244L13603.1036,-3405.5318L13603.1215,-3405.5378L13603.1388,-3405.5407L13603.1862,-3405.5371L13603.2072,-3405.5404L13603.2431,-3405.5423L13603.3333,-3405.5501L13603.3404,-3405.5507L13603.3561,-3405.5539L13603.368,-3405.5581L13603.3896,-3405.5692L13603.4044,-3405.588L13603.4121,-3405.6003L13603.4153,-3405.6083L13603.4355,-3405.6384L13603.4519,-3405.656L13603.4601,-3405.6624L13603.4732,-3405.6691L13603.4912,-3405.684L13603.5092,-3405.6952L13603.5465,-3405.7083L13603.5658,-3405.7236L13603.5793,-3405.7424L13603.5852,-3405.7541L13603.6045,-3405.7785L13603.6147,-3405.7961L13603.6269,-3405.8092L13603.6303,-3405.8168L13603.6305,-3405.8189L13603.6251,-3405.8333L13603.6224,-3405.8406L13603.5901,-3405.8854L13603.5878,-3405.8957L13603.5874,-3405.9101L13603.5919,-3405.9246L13603.5964,-3405.9333L13603.6083,-3405.9494L13603.612,-3405.9501L13603.6197,-3405.9469L13603.6211,-3405.9461L13603.6289,-3405.9419L13603.6365,-3405.9295L13603.6425,-3405.9237L13603.6632,-3405.9034L13603.6822,-3405.8941L13603.7046,-3405.8869L13603.7124,-3405.886L13603.7233,-3405.8847L13603.7499,-3405.8901L13603.7737,-3405.8931L13603.7754,-3405.8923L13603.7856,-3405.8876L13603.8062,-3405.8689L13603.8152,-3405.8333L13603.8159,-3405.8306L13603.8214,-3405.8093L13603.8365,-3405.7969L13603.8722,-3405.7784L13603.895,-3405.7731L13603.9079,-3405.7755L13603.9391,-3405.7936L13603.95,-3405.7976L13603.9635,-3405.7998L13603.971,-3405.7994L13603.9793,-3405.7931L13603.9932,-3405.7841L13604.0408,-3405.749L13604.0561,-3405.7392L13604.0938,-3405.7381L13604.1193,-3405.7432L13604.1318,-3405.7423L13604.136,-3405.7406L13604.1367,-3405.7345L13604.1272,-3405.7236L13604.1262,-3405.7228L13604.1112,-3405.71L13604.0875,-3405.6951L13604.0749,-3405.6902L13604.0613,-3405.6858L13604.0082,-3405.6785L13603.9963,-3405.6749L13603.991,-3405.672L13603.9869,-3405.6675L13603.9873,-3405.6606L13603.9896,-3405.6518L13604.0129,-3405.6209L13604.021,-3405.6067L13604.0215,-3405.5635L13604.0227,-3405.5532L13604.0376,-3405.5213L13604.0427,-3405.5104L13604.0429,-3405.5051L13604.0399,-3405.4968L13604.0248,-3405.4766L13604.0219,-3405.4651L13604.0237,-3405.4561L13604.0683,-3405.4079L13604.0714,-3405.4032L13604.0699,-3405.3952L13604.0664,-3405.3908L13604.0642,-3405.3881L13604.042,-3405.3784L13604.0297,-3405.3706L13604.0247,-3405.3648L13604.0249,-3405.3551L13604.0296,-3405.3438L13604.0309,-3405.3407L13604.0612,-3405.3166L13604.0699,-3405.3073L13604.092,-3405.2795L13604.1119,-3405.2669L13604.1253,-3405.2615L13604.1497,-3405.2571L13604.1653,-3405.259L13604.1667,-3405.2599L13604.1946,-3405.2792L13604.2021,-3405.2803L13604.2178,-3405.2783L13604.2277,-3405.275L13604.2488,-3405.2684L13604.2704,-3405.2567L13604.3224,-3405.2364L13604.3297,-3405.2336L13604.3584,-3405.2156L13604.3801,-3405.1879L13604.3924,-3405.1771L13604.397,-3405.1727L13604.4115,-3405.1633L13604.4354,-3405.1549L13604.4583,-3405.1422L13604.4854,-3405.1154L13604.4969,-3405.0988L13604.5122,-3405.0719L13604.5194,-3405.0599L13604.5293,-3405.0542L13604.5729,-3405.0367L13604.5814,-3405.0309L13604.5959,-3405.0171L13604.6053,-3405L13604.6202,-3404.973L13604.6264,-3404.9526L13604.6296,-3404.9326L13604.6311,-3404.9298L13604.6363,-3404.9207L13604.6696,-3404.8957L13604.6922,-3404.8509L13604.7005,-3404.8184L13604.7084,-3404.7874L13604.7181,-3404.7658L13604.7748,-3404.7064L13604.7929,-3404.6752L13604.8058,-3404.6565L13604.808,-3404.6533L13604.8125,-3404.6466L13604.8142,-3404.6389L13604.8157,-3404.6247L13604.8142,-3404.6188L13604.7879,-3404.5456L13604.782,-3404.5265L13604.7748,-3404.4764L13604.766,-3404.4527L13604.7675,-3404.4445L13604.7715,-3404.4418L13604.7824,-3404.44L13604.8893,-3404.4125L13604.9291,-3404.4045L13604.935,-3404.4041L13604.9554,-3404.4026L13605,-3404.406L13605.0441,-3404.4094L13605.0578,-3404.4079L13605.0649,-3404.4054L13605.0704,-3404.4031L13605.0718,-3404.399L13605.0529,-3404.3684L13605.0498,-3404.3607L13605.0471,-3404.3544L13605.0497,-3404.329L13605.0436,-3404.2914L13605.0461,-3404.2879L13605.0662,-3404.2746L13605.0876,-3404.256L13605.0957,-3404.2394L13605.1069,-3404.2087L13605.1124,-3404.1896L13605.1113,-3404.1839L13605.1083,-3404.1667L13605.1058,-3404.1526L13605.108,-3404.1276L13605.1095,-3404.1007L13605.1152,-3404.0379L13605.1157,-3404.0007L13605.1154,-3403.9911L13605.1177,-3403.985L13605.1252,-3403.9776L13605.1551,-3403.9614L13605.2051,-3403.9418L13605.2492,-3403.9277L13605.2919,-3403.9122L13605.3206,-3403.8869L13605.3368,-3403.8758L13605.3576,-3403.8649L13605.4058,-3403.8521L13605.442,-3403.8428L13605.4474,-3403.8394L13605.4688,-3403.8262L13605.4688,-3403.5632L13605.4442,-3403.5576L13605.4235,-3403.5488L13605.3733,-3403.5218L13605.333,-3403.4878L13605.3211,-3403.474L13605.3161,-3403.4552L13605.3173,-3403.4408L13605.3268,-3403.408L13605.3525,-3403.3684L13605.3565,-3403.3517L13605.3541,-3403.3333L13605.3532,-3403.3268L13605.3209,-3403.2777L13605.294,-3403.2269L13605.2823,-3403.2144L13605.2717,-3403.2127L13605.2522,-3403.2126L13605.1972,-3403.2305L13605.1706,-3403.2487L13605.1489,-3403.2703L13605.1107,-3403.3238L13605.1009,-3403.3333L13605.0895,-3403.3443L13605.0421,-3403.3666L13605.0174,-3403.3726L13605,-3403.3747L13604.978,-3403.3774L13604.9546,-3403.3838L13604.909,-3403.4023L13604.8744,-3403.4164L13604.8329,-3403.4302L13604.6262,-3403.5002L13604.5499,-3403.5225L13604.5039,-3403.5369L13604.4509,-3403.5573L13604.4101,-3403.5833L13604.3999,-3403.5945L13604.3933,-3403.6097L13604.3723,-3403.6782L13604.3605,-3403.7526L13604.3664,-3403.7786L13604.4124,-3403.8304L13604.4221,-3403.8409L13604.4261,-3403.8624L13604.4237,-3403.8708L13604.4209,-3403.8811L13604.4175,-3403.8966L13604.4138,-3403.9467L13604.4087,-3403.9816L13604.3942,-3404.0323L13604.3802,-3404.0526L13604.3604,-3404.0625L13604.3459,-3404.0683L13604.2923,-3404.0607L13604.2423,-3404.0474L13604.1954,-3404.0274L13604.1667,-3404.0031L13604.1478,-3403.9872L13604.1126,-3403.9444L13604.1078,-3403.9317L13604.1048,-3403.891L13604.1211,-3403.8071L13604.1256,-3403.7466L13604.1167,-3403.7109L13604.0855,-3403.6763L13604.0587,-3403.6549L13604.0364,-3403.6426L13604.0009,-3403.6339L13603.9741,-3403.6349L13603.93,-3403.6431L13603.9011,-3403.6514L13603.8997,-3403.6518L13603.8676,-3403.6711L13603.8288,-3403.703L13603.8129,-3403.7217L13603.765,-3403.7881L13603.7591,-3403.8276L13603.7784,-3403.9234L13603.7858,-3403.9777L13603.7917,-3404.0431L13603.7891,-3404.0538L13603.7813,-3404.0677L13603.765,-3404.085L13603.7502,-3404.0924L13603.7368,-3404.0801L13603.7279,-3404.0701L13603.6953,-3404.0337L13603.6771,-3404.0081L13603.5841,-3403.911L13603.5322,-3403.8086L13603.5029,-3403.7734L13603.4419,-3403.6837L13603.3961,-3403.614L13603.3812,-3403.5861L13603.3333,-3403.4973L13603.3253,-3403.4825L13603.2598,-3403.3916L13603.235,-3403.3333L13603.2163,-3403.2892L13603.2115,-3403.278L13603.1728,-3403.1867L13603.0863,-3403.2168L13602.9473,-3403.2595L13602.8435,-3403.2756L13602.7835,-3403.2791L13602.7524,-3403.2914L13602.7379,-3403.3019L13602.7233,-3403.3186L13602.7133,-3403.3333L13602.6921,-3403.3645L13602.6493,-3403.4023L13602.6038,-3403.4436L13602.5813,-3403.4517L13602.5638,-3403.4545L13602.5296,-3403.4708L13602.5139,-3403.479L13602.5019,-3403.4961L13602.5,-3403.4991L13602.4537,-3403.5721L13602.3846,-3403.5977L13602.3845,-3403.5977L13602.3602,-3403.6161L13602.3379,-3403.6334L13602.2983,-3403.6522L13602.2597,-3403.6559L13602.2137,-3403.6547L13602.1927,-3403.6591L13602.1559,-3403.6744L13602.1099,-3403.6769L13601.9631,-3403.6793L13601.9374,-3403.6682L13601.9099,-3403.6407L13601.8894,-3403.615L13601.8766,-3403.6106L13601.859,-3403.5981L13601.8379,-3403.5831L13601.8323,-3403.5718L13601.8247,-3403.5567L13601.817,-3403.5087L13601.7997,-3403.4648L13601.7928,-3403.455L13601.7817,-3403.4481L13601.7634,-3403.4413L13601.7531,-3403.4362L13601.7364,-3403.39L13601.7172,-3403.3717L13601.7044,-3403.3523L13601.6993,-3403.3333L13601.698,-3403.3285L13601.694,-3403.2956L13601.695,-3403.2703L13601.7014,-3403.2511L13601.7093,-3403.2285L13601.7252,-3403.1824L13601.7283,-3403.1686L13601.7262,-3403.1541L13601.7,-3403.1157L13601.6817,-3403.0921L13601.6757,-3403.0784L13601.6807,-3403.0442L13601.6725,-3402.9959L13601.6667,-3402.923L13601.6659,-3402.9134L13601.6584,-3402.8872L13601.6585,-3402.8387L13601.6463,-3402.8124L13601.6347,-3402.8029L13601.6141,-3402.7909L13601.5707,-3402.7673L13601.562,-3402.7628L13601.5562,-3402.7554L13601.5537,-3402.7467L13601.547,-3402.6914L13601.5387,-3402.6227L13601.531,-3402.5746L13601.5236,-3402.5511L13601.5122,-3402.5L13601.5114,-3402.4965L13601.4964,-3402.4598L13601.467,-3402.4249L13601.4341,-3402.4056L13601.434,-3402.4055L13601.4149,-3402.3983L13601.3851,-3402.3854L13601.3732,-3402.3773L13601.3688,-3402.3688L13601.3647,-3402.3264L13601.3569,-3402.3122L13601.3451,-3402.2952L13601.3283,-3402.2817L13601.2853,-3402.2621L13601.2426,-3402.2542L13601.2269,-3402.2493L13601.21,-3402.2356L13601.1795,-3402.206L13601.1674,-3402.1894L13601.1495,-3402.1694L13601.0985,-3402.128L13601.0733,-3402.1095L13601.0466,-3402.0996L13600.9973,-3402.0924L13600.9948,-3402.092L13600.9373,-3402.0898L13600.8959,-3402.0815L13600.8794,-3402.0724L13600.8641,-3402.0584L13600.8598,-3402.0493L13600.8402,-3402.0129L13600.8333,-3402.0089L13600.8194,-3402.0006L13600.7739,-3401.9928L13600.7517,-3401.9855L13600.7377,-3401.9765L13600.7349,-3401.9747L13600.726,-3401.9488L13600.7255,-3401.9163L13600.7336,-3401.9005L13600.7424,-3401.8921L13600.7567,-3401.8687L13600.7616,-3401.8608L13600.7616,-3401.851L13600.7616,-3401.8435L13600.7275,-3401.8139L13600.7122,-3401.7921L13600.7009,-3401.765L13600.69,-3401.7259L13600.6697,-3401.6667L13600.6675,-3401.6604L13600.6547,-3401.6241L13600.6356,-3401.5916L13600.6356,-3401.555L13600.6362,-3401.5181L13600.6277,-3401.4961L13600.6096,-3401.4723L13600.5899,-3401.4568L13600.5623,-3401.4452L13600.4806,-3401.419L13600.4171,-3401.3906L13600.3903,-3401.3712L13600.3676,-3401.3514L13600.361,-3401.3354L13600.3563,-3401.3099L13600.3591,-3401.2369L13600.3746,-3401.117L13600.3775,-3401.0942L13600.378,-3401.0905L13600.3747,-3401.0512L13600.3741,-3401.0434L13600.3705,-3401.0287L13600.3607,-3400.9881L13600.3489,-3400.9632L13600.3383,-3400.9269L13600.3221,-3400.8717L13600.3094,-3400.8333L13600.2931,-3400.7837L13600.2684,-3400.7313L13600.2489,-3400.6991L13600.2147,-3400.6686L13600.1689,-3400.6357L13600.1637,-3400.6319L13600.1458,-3400.6198L13600.1059,-3400.5985L13600.0776,-3400.5972L13600.0364,-3400.606L13600,-3400.6107L13599.9683,-3400.6149L13599.8905,-3400.6189L13599.8396,-3400.6134L13599.8091,-3400.6043L13599.7787,-3400.588L13599.7156,-3400.5304L13599.7022,-3400.5304L13599.6436,-3400.53L13599.5834,-3400.5159L13599.5302,-3400.5177L13599.439,-3400.5129L13599.3834,-3400.5101L13599.3528,-3400.4997L13599.2735,-3400.4356L13599.2338,-3400.4072L13599.2032,-3400.3978L13599.1667,-3400.3885L13599.1624,-3400.3874L13599.0853,-3400.3667L13599.0683,-3400.3535L13599.0533,-3400.3338L13599.0537,-3400.3231L13599.0444,-3400.309L13599.013,-3400.2842L13598.9866,-3400.2672L13598.9543,-3400.2382L13598.9484,-3400.2247L13598.9501,-3400.208L13598.9509,-3400.1581L13598.9514,-3400.1526L13598.9543,-3400.1149L13598.9483,-3400.0886L13598.9305,-3400.066L13598.9076,-3400.0469L13598.8948,-3400.0262L13598.8915,-3400.0036L13598.8916,-3400L13598.8932,-3399.961L13598.8957,-3399.9285L13598.8966,-3399.9122L13598.8974,-3399.8889L13598.8923,-3399.8734L13598.8812,-3399.8434L13598.8668,-3399.8194L13598.8506,-3399.8059L13598.8235,-3399.7954L13598.7979,-3399.7811L13598.7931,-3399.7762L13598.7724,-3399.7556L13598.7095,-3399.706L13598.6761,-3399.6744L13598.6705,-3399.6692L13598.6451,-3399.6466L13598.6093,-3399.6033L13598.5796,-3399.5714L13598.5567,-3399.5446L13598.5065,-3399.4984L13598.4836,-3399.4765L13598.4802,-3399.4631L13598.4802,-3399.4489L13598.4811,-3399.4306L13598.5023,-3399.366L13598.5209,-3399.3264L13598.5311,-3399.2838L13598.5261,-3399.2456L13598.5175,-3399.2051L13598.5022,-3399.1839L13598.4869,-3399.1761L13598.4669,-3399.1667L13598.4615,-3399.1641L13598.4163,-3399.1541L13598.3721,-3399.1435L13598.3333,-3399.1401L13598.3314,-3399.14L13598.2771,-3399.1386L13598.2652,-3399.135L13598.2616,-3399.1318L13598.255,-3399.1258L13598.2491,-3399.111L13598.2364,-3399.0982L13598.2177,-3399.0883L13598.158,-3399.0769L13598.0884,-3399.0741L13598.0117,-3399.0727L13597.9736,-3399.0698L13597.9379,-3399.0571L13597.9099,-3399.0416L13597.8827,-3399.0246L13597.8537,-3398.9969L13597.8206,-3398.9799L13597.7646,-3398.9749L13597.7332,-3398.9721L13597.7232,-3398.9649L13597.7145,-3398.9587L13597.7001,-3398.9361L13597.6753,-3398.8984L13597.6516,-3398.8694L13597.6312,-3398.846L13597.6219,-3398.8213L13597.6066,-3398.7412L13597.5989,-3398.6974L13597.5853,-3398.6681L13597.5666,-3398.6504L13597.5454,-3398.6342L13597.5092,-3398.6154L13597.5046,-3398.613L13597.5,-3398.6113L13597.4603,-3398.5967L13597.3873,-3398.591L13597.3305,-3398.5825L13597.2649,-3398.5747L13597.214,-3398.5726L13597.1731,-3398.5769L13597.1383,-3398.5854L13597.0789,-3398.596L13597.0321,-3398.6009L13596.9837,-3398.6009L13596.8756,-3398.6016L13596.8476,-3398.6016L13596.7958,-3398.5875L13596.7509,-3398.574L13596.6675,-3398.5641L13596.6667,-3398.5639L13596.6183,-3398.5542L13596.5886,-3398.5521L13596.5606,-3398.5542L13596.5345,-3398.5481L13596.518,-3398.5412L13596.4985,-3398.5378L13596.48,-3398.5387L13596.442,-3398.5395L13596.4237,-3398.5395L13596.4081,-3398.5395L13596.3824,-3398.5318L13596.3577,-3398.519L13596.2916,-3398.4871L13596.2576,-3398.4631L13596.2299,-3398.4511L13596.2059,-3398.4486L13596.1774,-3398.458L13596.1517,-3398.464L13596.1302,-3398.4666L13596.1076,-3398.4614L13596.0932,-3398.4529L13596.0632,-3398.4209L13596.0467,-3398.4012L13596.0159,-3398.3721L13595.9902,-3398.3498L13595.9724,-3398.3333L13595.9634,-3398.325L13595.9546,-3398.3113L13595.9314,-3398.2751L13595.9109,-3398.2425L13595.8821,-3398.2066L13595.8521,-3398.1807L13595.8333,-3398.1667L13595.8131,-3398.1516L13595.7617,-3398.125L13595.6689,-3398.0907L13595.599,-3398.0752L13595.5652,-3398.0677L13595.5343,-3398.0607L13595.4661,-3398.0487L13595.4219,-3398.0376L13595.3983,-3398.0329L13595.3808,-3398.0376L13595.3613,-3398.0496L13595.352,-3398.0598L13595.3386,-3398.0752L13595.3211,-3398.0907L13595.2808,-3398.0967L13595.251,-3398.0984L13595.1657,-3398.1036L13595.1379,-3398.101L13595.0937,-3398.0933L13595.0225,-3398.0812L13595,-3398.0786L13594.9793,-3398.0761L13594.9372,-3398.0787L13594.8961,-3398.0838L13594.8734,-3398.0864L13594.8207,-3398.082L13594.7857,-3398.0794L13594.759,-3398.076L13594.7261,-3398.0666L13594.7143,-3398.06L13594.6922,-3398.0478L13594.6634,-3398.0255L13594.6532,-3398.0101L13594.6336,-3397.9853L13594.6191,-3397.973L13594.5893,-3397.9636L13594.5571,-3397.9542L13594.5512,-3397.9525L13594.5276,-3397.9413L13594.5163,-3397.9336L13594.4998,-3397.9114L13594.4864,-3397.8908L13594.4699,-3397.8701L13594.4638,-3397.8409L13594.4556,-3397.8196L13594.4412,-3397.8059L13594.3947,-3397.7739L13594.3783,-3397.7577L13594.3732,-3397.7508L13594.3732,-3397.7388L13594.3824,-3397.708L13594.3824,-3397.7026L13594.3824,-3397.6883L13594.373,-3397.6641L13594.3586,-3397.6521L13594.3288,-3397.647L13594.2959,-3397.6444L13594.2527,-3397.6376L13594.2093,-3397.6213L13594.1784,-3397.605L13594.1667,-3397.5976L13594.1579,-3397.5922L13594.1456,-3397.5733L13594.1404,-3397.569L13594.1353,-3397.569L13594.125,-3397.5759L13594.1178,-3397.593L13594.1085,-3397.6292L13594.0993,-3397.6591L13594.0869,-3397.6831L13594.054,-3397.7227L13594.0324,-3397.7416L13594.018,-3397.7501L13593.9974,-3397.7579L13593.9841,-3397.769L13593.982,-3397.7793L13593.9861,-3397.8111L13593.9964,-3397.8394L13594.0017,-3397.8469L13594.0098,-3397.8582L13594.019,-3397.8762L13594.0365,-3397.9286L13594.0468,-3397.9543L13594.054,-3398.0016L13594.0468,-3398.0213L13594.0221,-3398.041L13593.9974,-3398.0538L13593.9882,-3398.059L13593.9656,-3398.0718L13593.9355,-3398.083L13593.8974,-3398.0941L13593.8543,-3398.1027L13593.8214,-3398.1035L13593.7895,-3398.0992L13593.7607,-3398.0872L13593.7431,-3398.0814L13593.6864,-3398.0623L13593.6547,-3398.0534L13593.5559,-3398.0256L13593.4973,-3398.017L13593.4394,-3398.0136L13593.3583,-3398.0187L13593.3333,-3398.0225L13593.3141,-3398.0255L13593.2781,-3398.029L13593.2524,-3398.0375L13593.2256,-3398.0504L13593.2174,-3398.0529L13593.1801,-3398.0641L13593.139,-3398.071L13593.1112,-3398.0692L13593.0836,-3398.0646L13593.0701,-3398.0624L13592.9989,-3398.0444L13592.9136,-3398.0341L13592.8869,-3398.0341L13592.8489,-3398.0478L13592.8054,-3398.0737L13592.7889,-3398.0822L13592.7684,-3398.0951L13592.7385,-3398.1165L13592.7139,-3398.1285L13592.6789,-3398.1405L13592.6563,-3398.1447L13592.6462,-3398.1423L13592.6305,-3398.1386L13592.6027,-3398.1266L13592.5893,-3398.1163L13592.5708,-3398.1L13592.5544,-3398.0735L13592.5307,-3398.0118L13592.5224,-3397.9867L13592.5111,-3397.9653L13592.5009,-3397.9516L13592.5,-3397.9512L13592.4598,-3397.9302L13592.4163,-3397.9036L13592.3927,-3397.8856L13592.3711,-3397.8796L13592.3392,-3397.8727L13592.3323,-3397.8719L13592.2786,-3397.865L13592.2323,-3397.8547L13592.2107,-3397.8513L13592.1912,-3397.8402L13592.1592,-3397.8006L13592.1304,-3397.7732L13592.0819,-3397.7327L13592.0429,-3397.6959L13591.9863,-3397.6409L13591.9657,-3397.6152L13591.9534,-3397.5896L13591.9275,-3397.5439L13591.9121,-3397.5216L13591.8967,-3397.5079L13591.8863,-3397.5L13591.871,-3397.4882L13591.8184,-3397.4624L13591.7608,-3397.4264L13591.7228,-3397.3939L13591.6667,-3397.3414L13591.663,-3397.338L13591.6384,-3397.3132L13591.6188,-3397.3003L13591.587,-3397.2797L13591.5674,-3397.2592L13591.5237,-3397.2827L13591.4783,-3397.3091L13591.4511,-3397.33L13591.4082,-3397.364L13591.3936,-3397.3736L13591.3297,-3397.3945L13591.2783,-3397.4157L13591.2396,-3397.4349L13591.2207,-3397.4515L13591.1929,-3397.4906L13591.1853,-3397.5L13591.1828,-3397.503L13591.1686,-3397.5177L13591.1242,-3397.5519L13591.0928,-3397.5702L13591.0593,-3397.5867L13591.0331,-3397.5955L13591.0101,-3397.5955L13590.9698,-3397.5892L13590.9617,-3397.587L13590.9265,-3397.5791L13590.903,-3397.5755L13590.8747,-3397.5816L13590.8371,-3397.5956L13590.8333,-3397.5969L13590.791,-3397.6122L13590.7408,-3397.6418L13590.6965,-3397.6691L13590.6693,-3397.6935L13590.664,-3397.6986L13590.6347,-3397.7266L13590.6169,-3397.738L13590.5992,-3397.7438L13590.5667,-3397.7449L13590.5395,-3397.7476L13590.5227,-3397.7545L13590.5046,-3397.7803L13590.4991,-3397.7916L13590.4978,-3397.8012L13590.491,-3397.817L13590.4679,-3397.8487L13590.4578,-3397.8563L13590.4447,-3397.8613L13590.4144,-3397.8693L13590.4013,-3397.8798L13590.3937,-3397.892L13590.377,-3397.9203L13590.3654,-3397.9342L13590.3422,-3397.9497L13590.318,-3397.9632L13590.2846,-3397.9797L13590.2664,-3397.9911L13590.2457,-3398.0074L13590.2296,-3398.0242L13590.2003,-3398.0423L13590.181,-3398.0525L13590.1543,-3398.0642L13590.1266,-3398.0781L13590.1099,-3398.0899L13590.0856,-3398.1144L13590.0583,-3398.1367L13590.0336,-3398.1468L13590,-3398.1596L13589.9815,-3398.1666L13589.9674,-3398.1788L13589.9457,-3398.207L13589.9249,-3398.2247L13589.9107,-3398.2369L13589.881,-3398.2546L13589.8633,-3398.2659L13589.8607,-3398.2678L13589.8532,-3398.2731L13589.8532,-3398.2823L13589.8623,-3398.2903L13589.8921,-3398.3098L13589.9149,-3398.3278L13589.9182,-3398.3333L13589.9304,-3398.3539L13589.9497,-3398.3717L13589.9886,-3398.4007L13590,-3398.4101L13590.0255,-3398.4311L13590.0769,-3398.4672L13590.1219,-3398.4929L13590.1482,-3398.5173L13590.1841,-3398.5506L13590.2169,-3398.5901L13590.2462,-3398.6297L13590.2649,-3398.663L13590.2775,-3398.687L13590.2805,-3398.7098L13590.2805,-3398.7805L13590.273,-3398.8205L13590.2649,-3398.8499L13590.2644,-3398.8778L13590.2669,-3398.9034L13590.2735,-3398.9224L13590.2785,-3398.962L13590.2836,-3399.0218L13590.2836,-3399.0294L13590.2836,-3399.0558L13590.278,-3399.0917L13590.2674,-3399.1199L13590.2543,-3399.1506L13590.2447,-3399.1667L13590.2407,-3399.1733L13590.2366,-3399.1864L13590.2396,-3399.2029L13590.2503,-3399.2189L13590.278,-3399.2508L13590.3073,-3399.2926L13590.3219,-3399.3212L13590.3366,-3399.3494L13590.3351,-3399.3696L13590.3255,-3399.3923L13590.3225,-3399.4028L13590.322,-3399.4294L13590.328,-3399.4403L13590.3411,-3399.4512L13590.3876,-3399.4825L13590.4129,-3399.4993L13590.4391,-3399.5257L13590.4629,-3399.5494L13590.4745,-3399.565L13590.4947,-3399.6042L13590.5008,-3399.6147L13590.5099,-3399.6206L13590.5331,-3399.6323L13590.5528,-3399.6547L13590.5685,-3399.6727L13590.5756,-3399.6862L13590.583,-3399.7056L13590.5831,-3399.7061L13590.5947,-3399.7283L13590.6053,-3399.7443L13590.6205,-3399.7604L13590.6508,-3399.7793L13590.6699,-3399.7886L13590.6754,-3399.7899L13590.7012,-3399.7965L13590.7167,-3399.8049L13590.7246,-3399.8092L13590.731,-3399.8127L13590.749,-3399.8224L13590.7629,-3399.8298L13590.7842,-3399.8412L13590.8154,-3399.8652L13590.8333,-3399.8807L13590.8523,-3399.8972L13590.8609,-3399.9077L13590.8685,-3399.9292L13590.8741,-3399.9557L13590.8776,-3399.9869L13590.8765,-3400L13590.8741,-3400.0294L13590.87,-3400.0618L13590.8579,-3400.1191L13590.8397,-3400.1709L13590.8333,-3400.1861L13590.8231,-3400.2105L13590.8019,-3400.2378L13590.7782,-3400.2626L13590.7508,-3400.2825L13590.715,-3400.3073L13590.6806,-3400.3288L13590.6597,-3400.3336L13590.6255,-3400.3772L13590.6053,-3400.4031L13590.5931,-3400.4166L13590.5786,-3400.4265L13590.5316,-3400.4357L13590.5096,-3400.4444L13590.5038,-3400.4516L13590.5038,-3400.4598L13590.5113,-3400.4733L13590.5154,-3400.4897L13590.5258,-3400.5399L13590.538,-3400.6072L13590.5502,-3400.6396L13590.574,-3400.6777L13590.6239,-3400.7539L13590.6435,-3400.7839L13590.6546,-3400.8009L13590.663,-3400.8215L13590.6637,-3400.8333L13590.6641,-3400.8395L13590.6599,-3400.8652L13590.6483,-3400.9201L13590.6388,-3400.953L13590.6314,-3400.9819L13590.633,-3400.9942L13590.6419,-3401.0104L13590.645,-3401.0217L13590.6419,-3401.0313L13590.6303,-3401.0484L13590.6229,-3401.0577L13590.6153,-3401.0625L13590.605,-3401.0691L13590.518,-3401.1099L13590.4764,-3401.1282L13590.4647,-3401.1388L13590.4595,-3401.1471L13590.4558,-3401.1576L13590.4568,-3401.1939L13590.4605,-3401.2417L13590.4611,-3401.2623L13590.4563,-3401.2834L13590.4205,-3401.3351L13590.4029,-3401.3661L13590.3924,-3401.385L13590.3739,-3401.3955L13590.3376,-3401.41L13590.3249,-3401.4205L13590.3091,-3401.4471L13590.2969,-3401.4651L13590.2582,-3401.5063L13590.2574,-3401.5072L13590.2458,-3401.5252L13590.2215,-3401.5826L13590.2019,-3401.6176L13590.1875,-3401.6667L13590.1851,-3401.6751L13590.1824,-3401.7018L13590.1777,-3401.7352L13590.1677,-3401.795L13590.1682,-3401.8283L13590.1777,-3401.852L13590.1761,-3401.9054L13590.1793,-3401.9229L13590.1756,-3401.9418L13590.1729,-3401.9532L13590.1682,-3401.9729L13590.1677,-3401.9844L13590.1787,-3402.001L13590.2063,-3402.0283L13590.2263,-3402.0555L13590.2411,-3402.0722L13590.2627,-3402.0836L13590.2938,-3402.1029L13590.3086,-3402.1152L13590.3255,-3402.1233L13590.3414,-3402.1246L13590.3609,-3402.1211L13590.3925,-3402.118L13590.4215,-3402.1241L13590.4984,-3402.1434L13590.5148,-3402.1535L13590.5296,-3402.1606L13590.5774,-3402.1747L13590.5893,-3402.1782L13590.6093,-3402.1936L13590.6318,-3402.2107L13590.6404,-3402.2172L13590.6594,-3402.2396L13590.6784,-3402.2598L13590.6953,-3402.2675L13590.7407,-3402.2846L13590.7507,-3402.2925L13590.7751,-3402.3166L13590.7903,-3402.3245L13590.8333,-3402.3367L13590.8383,-3402.3381L13590.8647,-3402.3451L13590.8979,-3402.3631L13590.9655,-3402.4314L13590.9818,-3402.456L13590.9881,-3402.47L13590.9871,-3402.477L13590.9771,-3402.5L13590.9744,-3402.5061L13590.9744,-3402.5214L13590.9781,-3402.5407L13590.9786,-3402.5582L13590.9913,-3402.6081L13590.9908,-3402.6371L13590.9945,-3402.6581L13591.0019,-3402.6739L13591.0019,-3402.6853L13590.9993,-3402.6954L13590.9866,-3402.7387L13590.9876,-3402.7523L13590.9956,-3402.7623L13591.0451,-3402.8136L13591.0642,-3402.8305L13591.0847,-3402.8559L13591.0916,-3402.8717L13591.092,-3402.8773L13591.0937,-3402.9002L13591.1016,-3402.9173L13591.1042,-3402.9465L13591.1037,-3402.961L13591.0979,-3402.9715L13591.0794,-3402.9886L13591.0733,-3402.994L13591.0415,-3403.0215L13591.0088,-3403.0597L13590.9629,-3403.111L13590.9501,-3403.1332L13590.9269,-3403.1687L13590.9074,-3403.1924L13590.8674,-3403.2196L13590.8474,-3403.2323L13590.8333,-3403.242L13590.8284,-3403.2455L13590.7987,-3403.2993L13590.7804,-3403.3333L13590.776,-3403.3414L13590.7227,-3403.443L13590.7038,-3403.4672L13590.6959,-3403.4689L13590.6811,-3403.4689L13590.6249,-3403.4584L13590.6081,-3403.4584L13590.5849,-3403.4632L13590.47,-3403.5053L13590.4639,-3403.5072L13590.4336,-3403.5167L13590.4125,-3403.5286L13590.4062,-3403.5365L13590.4004,-3403.5553L13590.3829,-3403.5868L13590.365,-3403.6394L13590.3581,-3403.6521L13590.3391,-3403.6578L13590.3207,-3403.6592L13590.3012,-3403.6631L13590.2706,-3403.682L13590.2353,-3403.7034L13590.2011,-3403.7153L13590.185,-3403.7233L13590.1661,-3403.7422L13590.155,-3403.7549L13590.1544,-3403.7716L13590.1391,-3403.8042L13590.1312,-3403.8112L13590.1224,-3403.8134L13590.1165,-3403.8148L13590.1107,-3403.8174L13590.0906,-3403.845L13590.0717,-3403.8727L13590.0445,-3403.8926L13590,-3403.9233L13589.8795,-3404.0062L13589.8016,-3404.0595L13589.7887,-3404.0683L13589.7666,-3404.0911L13589.7288,-3404.1279L13589.7074,-3404.1488L13589.6953,-3404.1667L13589.6716,-3404.2014L13589.67,-3404.2111L13589.672,-3404.2202L13589.6736,-3404.2274L13589.6716,-3404.2559L13589.6615,-3404.2748L13589.6483,-3404.3013L13589.6325,-3404.3334L13589.5983,-3404.3667L13589.5829,-3404.3931L13589.5793,-3404.4155L13589.5777,-3404.4484L13589.5751,-3404.4639L13589.5729,-3404.4765L13589.5529,-3404.5037L13589.5317,-3404.5448L13589.5254,-3404.5667L13589.537,-3404.6681L13589.536,-3404.6834L13589.5307,-3404.6904L13589.4986,-3404.7031L13589.3908,-3404.7517L13589.3655,-3404.7649L13589.3497,-3404.7837L13589.3407,-3404.7995L13589.3328,-3404.8149L13589.3133,-3404.8364L13589.2863,-3404.8897L13589.2831,-3404.8959L13589.2568,-3404.9811L13589.2535,-3405L13589.2478,-3405.0328L13589.2388,-3405.0602L13589.2104,-3405.1217L13589.2084,-3405.1329L13589.2061,-3405.1454L13589.2046,-3405.1696L13589.2119,-3405.1884L13589.2441,-3405.2165L13589.2885,-3405.2505L13589.3138,-3405.2746L13589.3591,-3405.3307L13589.3771,-3405.3626L13589.424,-3405.4688L13589.4716,-3405.5419L13589.5269,-3405.6028L13589.5522,-3405.6291L13589.5787,-3405.6522L13589.6045,-3405.6796L13589.6188,-3405.6948L13589.6446,-3405.7251L13589.6541,-3405.7536L13589.6746,-3405.7887L13589.6852,-3405.8134L13589.6873,-3405.8279L13589.6869,-3405.8333L13589.6863,-3405.842L13589.681,-3405.8525L13589.6441,-3405.8836L13589.6251,-3405.9064L13589.6093,-3405.9409L13589.5993,-3405.9681L13589.5945,-3405.9984L13589.5956,-3406.023L13589.5948,-3406.0271L13589.5919,-3406.0423L13589.5586,-3406.108L13589.5496,-3406.1602L13589.5444,-3406.1847L13589.5312,-3406.204L13589.5106,-3406.2391L13589.4657,-3406.2907L13589.4267,-3406.3495L13589.3849,-3406.4023L13589.3691,-3406.4177L13589.3475,-3406.426L13589.2895,-3406.4387L13589.2782,-3406.4414L13589.2579,-3406.4462L13589.2463,-3406.4532L13589.2346,-3406.4616L13589.2283,-3406.4686L13589.1998,-3406.5388L13589.1935,-3406.5547L13589.1877,-3406.5694L13589.1667,-3406.5913L13589.1381,-3406.6212L13589.1049,-3406.6571L13589.099,-3406.6667L13589.0891,-3406.6826L13589.0807,-3406.6992L13589.0786,-3406.7153L13589.0791,-3406.7258L13589.0923,-3406.76L13589.1413,-3406.8381L13589.1667,-3406.8653L13589.1804,-3406.8801L13589.2089,-3406.9147L13589.2453,-3406.9441L13589.2579,-3406.9533L13589.2637,-3406.9638L13589.2775,-3406.9974L13589.2975,-3407.0913L13589.3097,-3407.1534L13589.3197,-3407.1885L13589.3276,-3407.2056L13589.3509,-3407.227L13589.3571,-3407.2328L13589.4057,-3407.2835L13589.4653,-3407.3436L13589.5038,-3407.3971L13589.5397,-3407.4368L13589.5472,-3407.447L13589.5803,-3407.4917L13589.5881,-3407.5L13589.6029,-3407.5158L13589.6205,-3407.526L13589.6885,-3407.551L13589.7201,-3407.5549L13589.776,-3407.5567L13589.8004,-3407.5621L13589.8426,-3407.5792L13589.8758,-3407.5884L13589.8895,-3407.5958L13589.9043,-3407.6068L13589.9364,-3407.6445L13589.9544,-3407.6614L13590,-3407.6915L13590.013,-3407.7001L13590.0541,-3407.7334L13590.082,-3407.7584L13590.0963,-3407.7765L13590.1016,-3407.7936L13590.1063,-3407.8164L13590.1067,-3407.8234L13590.1074,-3407.8371L13590.1068,-3407.8564L13590.1053,-3407.8726L13590.0926,-3407.9132L13590.0878,-3407.9395L13590.0842,-3407.9739L13590.0781,-3408.0144L13590.0744,-3408.0406L13590.0711,-3408.0599L13590.0651,-3408.0842L13590.061,-3408.0959L13590.0518,-3408.1218L13590.0377,-3408.1615L13590.0098,-3408.2641L13590,-3408.2855L13589.9854,-3408.3172L13589.9764,-3408.3333L13589.9327,-3408.4119L13589.8821,-3408.4766L13589.8488,-3408.5362L13589.8262,-3408.5766L13589.8193,-3408.5923L13589.8151,-3408.6034L13589.8218,-3408.6158L13589.8487,-3408.6386L13589.8601,-3408.6531L13589.8653,-3408.6661L13589.8673,-3408.6712L13589.8815,-3408.6994L13589.9066,-3408.7473L13589.9214,-3408.7715L13589.9262,-3408.7873L13589.9295,-3408.7982L13589.9316,-3408.8189L13589.9296,-3408.847L13589.9282,-3408.864L13589.9364,-3408.9074L13589.9431,-3408.9198L13589.9607,-3408.9434L13589.9621,-3408.948L13589.9872,-3408.9818L13590,-3408.9961L13590.019,-3409.0173L13590.0502,-3409.0551L13590.0664,-3409.0816L13590.0725,-3409.0889L13590.0941,-3409.1186L13590.1093,-3409.1301L13590.1119,-3409.1361L13590.1111,-3409.1442L13590.0922,-3409.1667L13590.0922,-3409.1667L13590.0912,-3409.1687L13590.0732,-3409.2061L13590.0664,-3409.2321L13590.0657,-3409.2479L13590.0664,-3409.289L13590.0657,-3409.3003L13590.0671,-3409.3319L13590.0759,-3409.377L13590.0759,-3409.3905L13590.0773,-3409.3967L13590.0827,-3409.404L13590.0956,-3409.4125L13590.1191,-3409.4238L13590.1403,-3409.4412L13590.1572,-3409.4519L13590.1796,-3409.4706L13590.1973,-3409.4899L13590.2101,-3409.4999L13590.2331,-3409.5061L13590.2575,-3409.5139L13590.3097,-3409.5342L13590.3239,-3409.5404L13590.3435,-3409.5523L13590.3476,-3409.5557L13590.3822,-3409.5833L13590.4079,-3409.5979L13590.4242,-3409.6081L13590.4255,-3409.6086L13590.4682,-3409.6385L13590.5021,-3409.6599L13590.5095,-3409.6633L13590.5365,-3409.6726L13590.5477,-3409.6814L13590.5502,-3409.6892L13590.5502,-3409.7383L13590.5556,-3409.7744L13590.559,-3409.7958L13590.563,-3409.8088L13590.5762,-3409.8309L13590.5963,-3409.8505L13590.6011,-3409.8566L13590.6166,-3409.8764L13590.6247,-3409.8832L13590.633,-3409.8893L13590.6423,-3409.9019L13590.6471,-3409.9215L13590.6457,-3409.9537L13590.6416,-3409.97L13590.6315,-3410L13590.6281,-3410.01L13590.6261,-3410.0179L13590.6159,-3410.0342L13590.6098,-3410.0404L13590.592,-3410.0517L13590.5742,-3410.0594L13590.5691,-3410.0636L13590.5698,-3410.0664L13590.5766,-3410.0777L13590.5813,-3410.0901L13590.5813,-3410.094L13590.5813,-3410.1104L13590.5729,-3410.1247L13590.5536,-3410.1414L13590.5495,-3410.1476L13590.5457,-3410.1562Z"/>
<path content="奈良県,,吉野郡,上北山村,,29451" xlink:title="奈良県" d="M13605.4688,-3410.1563L13605.4688,-3403.8262L13605.4474,-3403.8394L13605.442,-3403.8428L13605.4058,-3403.8521L13605.3576,-3403.8649L13605.3368,-3403.8758L13605.3206,-3403.8869L13605.2919,-3403.9122L13605.2492,-3403.9277L13605.2051,-3403.9418L13605.1551,-3403.9614L13605.1252,-3403.9776L13605.1177,-3403.985L13605.1154,-3403.9911L13605.1157,-3404.0007L13605.1152,-3404.0379L13605.1095,-3404.1007L13605.108,-3404.1276L13605.1058,-3404.1526L13605.1083,-3404.1667L13605.1113,-3404.1839L13605.1124,-3404.1896L13605.1069,-3404.2087L13605.0957,-3404.2394L13605.0876,-3404.256L13605.0662,-3404.2746L13605.0461,-3404.2879L13605.0436,-3404.2914L13605.0497,-3404.329L13605.0471,-3404.3544L13605.0498,-3404.3607L13605.0529,-3404.3684L13605.0718,-3404.399L13605.0704,-3404.4031L13605.0649,-3404.4054L13605.0578,-3404.4079L13605.0441,-3404.4094L13605,-3404.406L13604.9554,-3404.4026L13604.935,-3404.4041L13604.9291,-3404.4045L13604.8893,-3404.4125L13604.7824,-3404.44L13604.7715,-3404.4418L13604.7675,-3404.4445L13604.766,-3404.4527L13604.7748,-3404.4764L13604.782,-3404.5265L13604.7879,-3404.5456L13604.8142,-3404.6188L13604.8157,-3404.6247L13604.8142,-3404.6389L13604.8125,-3404.6466L13604.808,-3404.6533L13604.8058,-3404.6565L13604.7929,-3404.6752L13604.7748,-3404.7064L13604.7181,-3404.7658L13604.7084,-3404.7874L13604.7005,-3404.8184L13604.6922,-3404.8509L13604.6696,-3404.8957L13604.6363,-3404.9207L13604.6311,-3404.9298L13604.6296,-3404.9326L13604.6264,-3404.9526L13604.6202,-3404.973L13604.6053,-3405L13604.5959,-3405.0171L13604.5814,-3405.0309L13604.5729,-3405.0367L13604.5293,-3405.0542L13604.5194,-3405.0599L13604.5122,-3405.0719L13604.4969,-3405.0988L13604.4854,-3405.1154L13604.4583,-3405.1422L13604.4354,-3405.1549L13604.4115,-3405.1633L13604.397,-3405.1727L13604.3924,-3405.1771L13604.3801,-3405.1879L13604.3584,-3405.2156L13604.3297,-3405.2336L13604.3224,-3405.2364L13604.2704,-3405.2567L13604.2488,-3405.2684L13604.2277,-3405.275L13604.2178,-3405.2783L13604.2021,-3405.2803L13604.1946,-3405.2792L13604.1667,-3405.2599L13604.1653,-3405.259L13604.1497,-3405.2571L13604.1253,-3405.2615L13604.1119,-3405.2669L13604.092,-3405.2795L13604.0699,-3405.3073L13604.0612,-3405.3166L13604.0309,-3405.3407L13604.0296,-3405.3438L13604.0249,-3405.3551L13604.0247,-3405.3648L13604.0297,-3405.3706L13604.042,-3405.3784L13604.0642,-3405.3881L13604.0664,-3405.3908L13604.0699,-3405.3952L13604.0714,-3405.4032L13604.0683,-3405.4079L13604.0237,-3405.4561L13604.0219,-3405.4651L13604.0248,-3405.4766L13604.0399,-3405.4968L13604.0429,-3405.5051L13604.0427,-3405.5104L13604.0376,-3405.5213L13604.0227,-3405.5532L13604.0215,-3405.5635L13604.021,-3405.6067L13604.0129,-3405.6209L13603.9896,-3405.6518L13603.9873,-3405.6606L13603.9869,-3405.6675L13603.991,-3405.672L13603.9963,-3405.6749L13604.0082,-3405.6785L13604.0613,-3405.6858L13604.0749,-3405.6902L13604.0875,-3405.6951L13604.1112,-3405.71L13604.1262,-3405.7228L13604.1272,-3405.7236L13604.1367,-3405.7345L13604.136,-3405.7406L13604.1318,-3405.7423L13604.1193,-3405.7432L13604.0938,-3405.7381L13604.0561,-3405.7392L13604.0408,-3405.749L13603.9932,-3405.7841L13603.9793,-3405.7931L13603.971,-3405.7994L13603.9635,-3405.7998L13603.95,-3405.7976L13603.9391,-3405.7936L13603.9079,-3405.7755L13603.895,-3405.7731L13603.8722,-3405.7784L13603.8365,-3405.7969L13603.8214,-3405.8093L13603.8159,-3405.8306L13603.8152,-3405.8333L13603.8062,-3405.8689L13603.7856,-3405.8876L13603.7754,-3405.8923L13603.7737,-3405.8931L13603.7499,-3405.8901L13603.7233,-3405.8847L13603.7124,-3405.886L13603.7046,-3405.8869L13603.6822,-3405.8941L13603.6632,-3405.9034L13603.6425,-3405.9237L13603.6365,-3405.9295L13603.6289,-3405.9419L13603.6211,-3405.9461L13603.6197,-3405.9469L13603.612,-3405.9501L13603.6083,-3405.9494L13603.5964,-3405.9333L13603.5919,-3405.9246L13603.5874,-3405.9101L13603.5878,-3405.8957L13603.5901,-3405.8854L13603.6224,-3405.8406L13603.6251,-3405.8333L13603.6305,-3405.8189L13603.6303,-3405.8168L13603.6269,-3405.8092L13603.6147,-3405.7961L13603.6045,-3405.7785L13603.5852,-3405.7541L13603.5793,-3405.7424L13603.5658,-3405.7236L13603.5465,-3405.7083L13603.5092,-3405.6952L13603.4912,-3405.684L13603.4732,-3405.6691L13603.4601,-3405.6624L13603.4519,-3405.656L13603.4355,-3405.6384L13603.4153,-3405.6083L13603.4121,-3405.6003L13603.4044,-3405.588L13603.3896,-3405.5692L13603.368,-3405.5581L13603.3561,-3405.5539L13603.3404,-3405.5507L13603.3333,-3405.5501L13603.2431,-3405.5423L13603.2072,-3405.5404L13603.1862,-3405.5371L13603.1388,-3405.5407L13603.1215,-3405.5378L13603.1036,-3405.5318L13603.0883,-3405.5244L13603.0791,-3405.5188L13603.0667,-3405.5147L13603.0427,-3405.5151L13603.0219,-3405.519L13603.0096,-3405.5206L13602.9913,-3405.5229L13602.9787,-3405.5277L13602.9704,-3405.5321L13602.9558,-3405.5396L13602.9467,-3405.5497L13602.9307,-3405.5649L13602.9176,-3405.5726L13602.8984,-3405.5813L13602.8517,-3405.5993L13602.8398,-3405.605L13602.8247,-3405.6165L13602.7607,-3405.6578L13602.6897,-3405.699L13602.6438,-3405.7371L13602.6304,-3405.7438L13602.6025,-3405.7521L13602.5925,-3405.7542L13602.5783,-3405.7619L13602.5457,-3405.7857L13602.5214,-3405.7932L13602.5,-3405.7947L13602.4783,-3405.7962L13602.4387,-3405.7887L13602.4077,-3405.7906L13602.4014,-3405.7931L13602.3893,-3405.8007L13602.3522,-3405.8333L13602.3273,-3405.8553L13602.2744,-3405.8923L13602.2596,-3405.8993L13602.2292,-3405.9183L13602.2009,-3405.9408L13602.1636,-3405.9706L13602.1279,-3406.0115L13602.124,-3406.016L13602.1178,-3406.0215L13602.1069,-3406.0262L13602.088,-3406.036L13602.0332,-3406.0891L13602.0243,-3406.108L13602.0125,-3406.1257L13601.9721,-3406.1528L13601.9603,-3406.1633L13601.941,-3406.1777L13601.9269,-3406.185L13601.8912,-3406.2003L13601.8713,-3406.2089L13601.8273,-3406.2179L13601.7619,-3406.2385L13601.7381,-3406.2461L13601.7064,-3406.2589L13601.6915,-3406.2646L13601.6667,-3406.2724L13601.6609,-3406.2742L13601.6361,-3406.2821L13601.6317,-3406.2829L13601.6075,-3406.2892L13601.5928,-3406.29L13601.5831,-3406.293L13601.5743,-3406.2984L13601.5435,-3406.3168L13601.508,-3406.3384L13601.4728,-3406.3715L13601.466,-3406.3772L13601.4575,-3406.3886L13601.4486,-3406.4007L13601.4337,-3406.4181L13601.427,-3406.4321L13601.4189,-3406.4507L13601.4048,-3406.4625L13601.3794,-3406.474L13601.3646,-3406.4963L13601.3229,-3406.5295L13601.3118,-3406.5423L13601.2877,-3406.5622L13601.2246,-3406.6049L13601.1943,-3406.6148L13601.1804,-3406.6193L13601.1104,-3406.656L13601.0891,-3406.6667L13601.0448,-3406.6889L13600.9925,-3406.7428L13600.978,-3406.7819L13600.9807,-3406.7991L13600.9916,-3406.8156L13600.9988,-3406.8329L13601.0086,-3406.8567L13601.0275,-3406.8734L13601.0349,-3406.8923L13601.0427,-3406.9063L13601.0679,-3406.9257L13601.1183,-3406.9543L13601.1363,-3406.979L13601.1588,-3407.0267L13601.1619,-3407.0425L13601.1627,-3407.0548L13601.1604,-3407.0604L13601.1585,-3407.0649L13601.1534,-3407.0729L13601.1419,-3407.0828L13601.1077,-3407.1089L13601.0968,-3407.1275L13601.0938,-3407.1367L13601.0929,-3407.1566L13601.0968,-3407.2001L13601.0911,-3407.2058L13601.0704,-3407.2156L13601.065,-3407.2201L13601.0441,-3407.2407L13601.0356,-3407.2581L13601.0286,-3407.3052L13601.0134,-3407.3192L13600.9972,-3407.3319L13600.9738,-3407.3436L13600.9524,-3407.3521L13600.9039,-3407.3851L13600.8333,-3407.4446L13600.8332,-3407.4447L13600.7611,-3407.5L13600.7555,-3407.5043L13600.6881,-3407.5488L13600.6277,-3407.5642L13600.5294,-3407.5876L13600.5178,-3407.5872L13600.489,-3407.5713L13600.4329,-3407.5389L13600.4131,-3407.5322L13600.4004,-3407.5279L13600.3438,-3407.517L13600.2896,-3407.5028L13600.2847,-3407.5L13600.2686,-3407.4907L13600.2457,-3407.474L13600.2408,-3407.4688L13600.2166,-3407.4569L13600.1926,-3407.4496L13600.1585,-3407.4428L13600.0879,-3407.4383L13600.0569,-3407.3633L13600.0207,-3407.3022L13600,-3407.273L13599.9918,-3407.2615L13599.9787,-3407.23L13599.9725,-3407.2064L13599.9719,-3407.2043L13599.973,-3407.1819L13599.9754,-3407.1691L13599.9745,-3407.16L13599.9707,-3407.1491L13599.9545,-3407.1284L13599.9244,-3407.1042L13599.8937,-3407.0774L13599.8565,-3407.0378L13599.8273,-3406.9934L13599.8192,-3406.9842L13599.807,-3406.9778L13599.7987,-3406.9741L13599.7505,-3406.963L13599.7156,-3406.9557L13599.6795,-3406.9458L13599.5813,-3406.8983L13599.517,-3406.8728L13599.4437,-3406.8467L13599.4043,-3406.8233L13599.3582,-3406.795L13599.3357,-3406.7829L13599.2769,-3406.7742L13599.2568,-3406.7655L13599.2292,-3406.7485L13599.1843,-3406.729L13599.1667,-3406.724L13599.1359,-3406.7152L13599.0945,-3406.6968L13599.0503,-3406.6726L13599.0316,-3406.6692L13599.0105,-3406.6695L13598.992,-3406.6697L13598.9623,-3406.6702L13598.9476,-3406.6667L13598.9222,-3406.6605L13598.8987,-3406.6565L13598.8904,-3406.6576L13598.878,-3406.6667L13598.8684,-3406.6737L13598.858,-3406.6754L13598.8366,-3406.6697L13598.8315,-3406.6667L13598.8069,-3406.6519L13598.7881,-3406.6287L13598.7679,-3406.5875L13598.7653,-3406.5821L13598.7591,-3406.5701L13598.7403,-3406.5526L13598.6691,-3406.5112L13598.5862,-3406.4699L13598.51,-3406.4495L13598.4789,-3406.4392L13598.4658,-3406.4294L13598.4251,-3406.3926L13598.3988,-3406.3656L13598.3421,-3406.3323L13598.3333,-3406.329L13598.3074,-3406.3194L13598.2369,-3406.2987L13598.212,-3406.2843L13598.1906,-3406.2601L13598.1837,-3406.2406L13598.1588,-3406.2027L13598.1318,-3406.1777L13598.1021,-3406.1357L13598.0834,-3406.1087L13598.0667,-3406.0886L13598.0598,-3406.0839L13598.0486,-3406.0829L13598.0419,-3406.0822L13597.9776,-3406.0776L13597.9527,-3406.0753L13597.9286,-3406.0745L13597.9175,-3406.0742L13597.8982,-3406.0845L13597.8685,-3406.1098L13597.8181,-3406.1501L13597.796,-3406.1561L13597.7417,-3406.1572L13597.7225,-3406.16L13597.6881,-3406.1708L13597.6707,-3406.1746L13597.6476,-3406.1736L13597.6216,-3406.1675L13597.6081,-3406.1685L13597.5766,-3406.1764L13597.5507,-3406.1957L13597.5383,-3406.2102L13597.5336,-3406.2216L13597.524,-3406.2282L13597.5031,-3406.2338L13597.5,-3406.234L13597.4501,-3406.2361L13597.3932,-3406.2347L13597.3671,-3406.2371L13597.348,-3406.2422L13597.3001,-3406.2671L13597.2858,-3406.2786L13597.1912,-3406.2894L13597.1493,-3406.2997L13597.1416,-3406.3191L13597.154,-3406.3578L13597.154,-3406.3824L13597.1159,-3406.471L13597.1111,-3406.4776L13597.1071,-3406.4832L13597.0816,-3406.5029L13597.0511,-3406.5249L13596.9698,-3406.5724L13596.9588,-3406.5807L13596.9254,-3406.6183L13596.8989,-3406.651L13596.8887,-3406.6667L13596.8803,-3406.6796L13596.8665,-3406.7346L13596.8547,-3406.813L13596.8596,-3406.8647L13596.8744,-3406.8933L13596.8969,-3406.9399L13596.9352,-3406.9644L13597.0107,-3407.024L13597.0267,-3407.0362L13597.0305,-3407.0391L13597.0717,-3407.0587L13597.0982,-3407.0717L13597.1012,-3407.0856L13597.1003,-3407.0896L13597.0894,-3407.1387L13597.0393,-3407.2359L13596.9932,-3407.3097L13596.9529,-3407.3506L13596.9186,-3407.3693L13596.9091,-3407.372L13596.8744,-3407.3816L13596.8725,-3407.3906L13596.8901,-3407.4645L13596.9097,-3407.4971L13596.9115,-3407.5L13596.9254,-3407.5224L13596.9333,-3407.5731L13596.9372,-3407.618L13596.9353,-3407.6384L13596.9205,-3407.658L13596.8969,-3407.6871L13596.8911,-3407.7149L13596.8881,-3407.7574L13596.8979,-3407.8096L13596.8997,-3407.8156L13596.9195,-3407.879L13596.9215,-3407.8931L13596.9176,-3407.907L13596.8822,-3407.9585L13596.8783,-3407.9756L13596.8822,-3407.9961L13596.9048,-3408.0608L13596.9078,-3408.0853L13596.9048,-3408.1319L13596.9245,-3408.1738L13596.9206,-3408.1894L13596.9127,-3408.2228L13596.9147,-3408.2334L13596.9569,-3408.3119L13596.9719,-3408.3333L13597,-3408.3736L13596.9981,-3408.385L13596.9333,-3408.4528L13596.9186,-3408.4748L13596.8813,-3408.5271L13596.8342,-3408.5949L13596.7967,-3408.623L13596.7899,-3408.6283L13596.7703,-3408.6434L13596.7534,-3408.6664L13596.7408,-3408.6795L13596.7123,-3408.6945L13596.7062,-3408.6973L13596.7033,-3408.6996L13596.6831,-3408.7148L13596.6777,-3408.721L13596.6757,-3408.725L13596.6763,-3408.7332L13596.6807,-3408.7481L13596.6926,-3408.7672L13596.6994,-3408.7791L13596.7028,-3408.7904L13596.7028,-3408.8456L13596.6974,-3408.8868L13596.694,-3408.9319L13596.6947,-3408.9696L13596.696,-3408.9724L13596.6981,-3408.9837L13596.7014,-3409.0266L13596.7035,-3409.0598L13596.7035,-3409.0683L13596.7078,-3409.0902L13596.7252,-3409.1224L13596.7286,-3409.1292L13596.7401,-3409.141L13596.7556,-3409.1523L13596.768,-3409.1667L13596.7841,-3409.1855L13596.7916,-3409.1956L13596.8024,-3409.2092L13596.8112,-3409.2227L13596.8261,-3409.2543L13596.8356,-3409.2712L13596.8492,-3409.283L13596.8613,-3409.2966L13596.8952,-3409.336L13596.9054,-3409.3456L13596.9128,-3409.3546L13596.9135,-3409.3569L13596.9249,-3409.3793L13596.9257,-3409.4121L13596.9237,-3409.4403L13596.923,-3409.4426L13596.9243,-3409.4572L13596.9304,-3409.4944L13596.9311,-3409.517L13596.9282,-3409.5334L13596.9264,-3409.544L13596.9169,-3409.5593L13596.9061,-3409.5796L13596.8979,-3409.5908L13596.8674,-3409.6111L13596.8614,-3409.6201L13596.8581,-3409.6337L13596.8568,-3409.6391L13596.8526,-3409.659L13596.8444,-3409.6697L13596.8153,-3409.699L13596.81,-3409.7111L13596.7997,-3409.7368L13596.797,-3409.7486L13596.7902,-3409.7594L13596.7787,-3409.7797L13596.7617,-3409.8157L13596.7563,-3409.8321L13596.755,-3409.8417L13596.7489,-3409.8603L13596.7414,-3409.8935L13596.7319,-3409.9285L13596.7313,-3409.9369L13596.7231,-3409.9741L13596.7204,-3409.9826L13596.7204,-3410L13596.7204,-3410.0108L13596.7224,-3410.0221L13596.7238,-3410.0598L13596.7292,-3410.1094L13596.7319,-3410.1308L13596.7274,-3410.1502L13596.7228,-3410.1562Z"/>
<path content="和歌山県,,東牟婁郡,北山村,,30427" xlink:title="和歌山県" d="M13600.6808,-3400.6992L13600.5974,-3400.5571L13600.5814,-3400.5298L13600.5391,-3400.42L13600.5355,-3400.3897L13600.5283,-3400.3338L13600.4994,-3400.2808L13600.4641,-3400.2264L13600.4321,-3400.1962L13600.3652,-3400.1564L13600.3184,-3400.147L13600.1911,-3400.1391L13600.1019,-3400.1497L13600,-3400.1703L13599.9379,-3400.1829L13599.7789,-3400.2205L13599.7157,-3400.249L13599.6783,-3400.243L13599.6242,-3400.2274L13599.5937,-3400.2104L13599.5615,-3400.1801L13599.5506,-3400.1642L13599.5347,-3400.1339L13599.5292,-3400.1001L13599.5337,-3400.0718L13599.5429,-3400.0433L13599.5565,-3400.005L13599.5593,-3400L13599.5806,-3399.9608L13599.5979,-3399.9236L13599.6097,-3399.9051L13599.6401,-3399.8585L13599.6751,-3399.8172L13599.6813,-3399.8109L13599.6979,-3399.7936L13599.7157,-3399.7762L13599.7795,-3399.733L13599.9418,-3399.6004L13600,-3399.5495L13600.2964,-3399.2901L13600.4042,-3399.177L13600.412,-3399.1667L13600.4313,-3399.1408L13600.4475,-3399.1054L13600.4504,-3399.099L13600.4566,-3399.0753L13600.4609,-3399.039L13600.4522,-3398.9845L13600.4151,-3398.7404L13600.4107,-3398.6132L13600.4153,-3398.5711L13600.4393,-3398.5058L13600.4829,-3398.4108L13600.5346,-3398.3333L13600.5967,-3398.2403L13600.6792,-3398.1166L13600.7599,-3397.9886L13600.8166,-3397.9142L13600.8333,-3397.8997L13600.9169,-3397.827L13601.0303,-3397.7435L13601.2298,-3397.6026L13601.2801,-3397.5449L13601.2927,-3397.5303L13601.3107,-3397.5L13601.3163,-3397.4907L13601.3291,-3397.4572L13601.3364,-3397.4231L13601.3385,-3397.2081L13601.3385,-3397.0659L13601.3472,-3397.0114L13601.345,-3396.9696L13601.333,-3396.9227L13601.2839,-3396.7988L13601.2423,-3396.7347L13601.1954,-3396.6815L13601.1943,-3396.6802L13601.178,-3396.6667L13601.0962,-3396.5985L13601.0351,-3396.5604L13600.9087,-3396.5095L13600.8333,-3396.4783L13600.6619,-3396.4074L13600.426,-3396.3025L13600.3411,-3396.2491L13600.3215,-3396.2291L13600.2953,-3396.1821L13600.28,-3396.1547L13600.2597,-3396.1033L13600.2427,-3396.0422L13600.2414,-3396.0379L13600.2402,-3396.034L13600.2334,-3396.0119L13600.2283,-3395.9928L13600.2167,-3395.9527L13600.1809,-3395.8333L13600.1643,-3395.7777L13600.1441,-3395.7206L13600.1253,-3395.6902L13600.1076,-3395.6651L13600.0661,-3395.6143L13600.0484,-3395.6021L13600,-3395.5827L13599.9914,-3395.5792L13599.9528,-3395.5743L13599.9157,-3395.578L13599.8329,-3395.6106L13599.7693,-3395.6596L13599.7157,-3395.6882L13599.6829,-3395.7192L13599.6502,-3395.7563L13599.6064,-3395.8028L13599.5713,-3395.8333L13599.5664,-3395.8376L13599.5299,-3395.865L13599.5108,-3395.8794L13599.4854,-3395.9127L13599.4755,-3395.9249L13599.4162,-3395.9978L13599.3707,-3396.057L13599.3406,-3396.0957L13599.3196,-3396.1291L13599.2978,-3396.1791L13599.2759,-3396.2589L13599.2614,-3396.3265L13599.245,-3396.3667L13599.225,-3396.4077L13599.2159,-3396.4229L13599.1852,-3396.4616L13599.1841,-3396.4631L13599.1667,-3396.482L13599.1457,-3396.5049L13599.1084,-3396.5352L13599.0109,-3396.6149L13598.9488,-3396.6667L13598.9044,-3396.7037L13598.8151,-3396.7697L13598.7907,-3396.7817L13598.7688,-3396.7925L13598.7151,-3396.8213L13598.6722,-3396.8381L13598.6326,-3396.8446L13598.6122,-3396.848L13598.5843,-3396.8511L13598.5449,-3396.8556L13598.4782,-3396.8556L13598.3963,-3396.848L13598.3333,-3396.8395L13598.2887,-3396.8335L13598.1951,-3396.8222L13598.1613,-3396.8178L13598.1423,-3396.8153L13598.0966,-3396.8031L13598.0384,-3396.7834L13597.9546,-3396.7644L13597.891,-3396.747L13597.8451,-3396.7334L13597.8217,-3396.7265L13597.7607,-3396.6976L13597.7236,-3396.6667L13597.718,-3396.662L13597.7169,-3396.6611L13597.6824,-3396.6255L13597.6581,-3396.5918L13597.6496,-3396.5799L13597.6132,-3396.5132L13597.5836,-3396.4644L13597.5676,-3396.4381L13597.5412,-3396.3909L13597.5075,-3396.2999L13597.5033,-3396.2717L13597.5021,-3396.2631L13597.5,-3396.2491L13597.4965,-3396.2254L13597.495,-3396.1886L13597.4938,-3396.1609L13597.5,-3396.1183L13597.502,-3396.1048L13597.5157,-3396.0637L13597.5367,-3396.028L13597.5576,-3396.0045L13597.6213,-3395.9566L13597.6468,-3395.9339L13597.6832,-3395.8914L13597.7005,-3395.8611L13597.7124,-3395.8333L13597.7187,-3395.8185L13597.7306,-3395.7799L13597.7342,-3395.7221L13597.7287,-3395.6326L13597.7187,-3395.5461L13597.718,-3395.5338L13597.7124,-3395.4398L13597.7105,-3395.382L13597.7105,-3395.3608L13597.7139,-3395.3461L13597.7151,-3395.3411L13597.7515,-3395.2682L13597.7779,-3395.219L13597.7842,-3395.2001L13597.7869,-3395.1877L13597.7961,-3395.146L13597.7943,-3395.1248L13597.7761,-3395.0185L13597.7748,-3395L13597.7697,-3394.9289L13597.7638,-3394.8849L13597.757,-3394.8342L13597.7561,-3394.8272L13597.7461,-3394.7391L13597.7379,-3394.7149L13597.716,-3394.6876L13597.6887,-3394.6632L13597.6605,-3394.6412L13597.6396,-3394.6162L13597.615,-3394.5616L13597.5934,-3394.4943L13597.5867,-3394.4734L13597.5767,-3394.4386L13597.5722,-3394.3748L13597.574,-3394.3263L13597.574,-3394.2617L13597.5713,-3394.2252L13597.5639,-3394.1865L13597.559,-3394.1667L13597.5539,-3394.1463L13597.5,-3394.0491L13597.4857,-3394.0234L13597.4292,-3393.9179L13597.3891,-3393.8389L13597.3463,-3393.7501L13597.3035,-3393.6726L13597.2944,-3393.6469L13597.2926,-3393.6391L13597.2772,-3393.5734L13597.2563,-3393.4882L13597.2444,-3393.4632L13597.2244,-3393.432L13597.1862,-3393.3789L13597.1549,-3393.3515L13597.15,-3393.3472L13597.1339,-3393.3333L13597.1309,-3393.3308L13597.102,-3393.29L13597.0841,-3393.2616L13597.0523,-3393.1928L13597.0143,-3393.0964L13597.0074,-3393.0793L13596.9764,-3393.0024L13596.9556,-3392.9717L13596.9236,-3392.9293L13596.8728,-3392.8846L13596.8378,-3392.857L13596.818,-3392.8444L13596.7911,-3392.8272L13596.6961,-3392.7848L13596.6667,-3392.776L13596.6546,-3392.7724L13596.6177,-3392.7715L13596.562,-3392.7798L13596.5113,-3392.8006L13596.4553,-3392.8362L13596.3936,-3392.8926L13596.3397,-3392.9409L13596.256,-3393.0173L13596.1883,-3393.0712L13596.0856,-3393.1602L13595.9859,-3393.2549L13595.984,-3393.2571L13595.931,-3393.3165L13595.9113,-3393.3333L13595.8952,-3393.3472L13595.8454,-3393.3886L13595.8333,-3393.3967L13595.7586,-3393.4468L13595.7029,-3393.4734L13595.6131,-3393.5142L13595.4856,-3393.5665L13595.4128,-3393.5889L13595.2427,-3393.6503L13595.1668,-3393.6728L13595.1326,-3393.6801L13595.1115,-3393.6847L13595.082,-3393.6911L13595,-3393.7053L13594.9915,-3393.7068L13594.8989,-3393.7192L13594.8747,-3393.7259L13594.7871,-3393.7491L13594.7264,-3393.7657L13594.6606,-3393.7982L13594.573,-3393.8529L13594.534,-3393.8829L13594.4643,-3393.9311L13594.4201,-3393.9549L13594.4194,-3393.9552L13594.3647,-3393.9718L13594.3159,-3393.9834L13594.2658,-3393.9859L13594.1892,-3393.9801L13594.1667,-3393.9765L13594.1424,-3393.9726L13594.0019,-3393.9469L13593.8345,-3393.9236L13593.7656,-3393.9178L13593.683,-3393.9186L13593.6287,-3393.9239L13593.5723,-3393.9294L13593.4519,-3393.946L13593.4254,-3393.9516L13593.3849,-3393.9602L13593.3333,-3393.9753L13593.3332,-3393.9754L13593.3143,-3393.9809L13593.2596,-3394.0066L13593.2197,-3394.0257L13593.1269,-3394.0715L13593.0563,-3394.1055L13593.0161,-3394.1232L13593.0055,-3394.1279L13592.9544,-3394.1431L13592.9096,-3394.1422L13592.8629,-3394.1331L13592.8358,-3394.1214L13592.8278,-3394.1146L13592.804,-3394.0941L13592.795,-3394.0765L13592.79,-3394.0574L13592.786,-3394.0292L13592.7891,-3393.9842L13592.8159,-3393.898L13592.8378,-3393.8331L13592.8657,-3393.7801L13592.8867,-3393.7376L13592.9094,-3393.7021L13592.9186,-3393.6878L13592.9764,-3393.6005L13593.0084,-3393.5541L13593.0422,-3393.5049L13593.0671,-3393.4718L13593.1109,-3393.4136L13593.1328,-3393.3862L13593.1346,-3393.3808L13593.1398,-3393.3655L13593.1398,-3393.3506L13593.1368,-3393.3406L13593.1269,-3393.3348L13593.1157,-3393.3333L13593.1079,-3393.3323L13593.0881,-3393.3323L13593.0816,-3393.3333L13593.0671,-3393.3356L13593.0293,-3393.3464L13592.9806,-3393.368L13592.9218,-3393.4036L13592.8905,-3393.4261L13592.8648,-3393.4444L13592.834,-3393.4627L13592.806,-3393.4752L13592.7987,-3393.4785L13592.7952,-3393.4801L13592.778,-3393.4821L13592.7673,-3393.4834L13592.7305,-3393.4793L13592.6795,-3393.4651L13592.6377,-3393.4577L13592.5481,-3393.4627L13592.5,-3393.4656L13592.4264,-3393.4701L13592.3637,-3393.4701L13592.3259,-3393.4651L13592.2479,-3393.4485L13592.1833,-3393.4327L13592.1602,-3393.4194L13592.0854,-3393.3546L13592.0526,-3393.3333L13592.0227,-3393.3139L13591.9898,-3393.2848L13591.9539,-3393.2433L13591.9002,-3393.1753L13591.8872,-3393.1452L13591.8776,-3393.1175L13591.8673,-3393.0872L13591.8483,-3393.024L13591.8403,-3392.9939L13591.8324,-3392.9376L13591.8274,-3392.8571L13591.8184,-3392.7922L13591.8105,-3392.7365L13591.7896,-3392.6609L13591.7666,-3392.6094L13591.7538,-3392.5781L13589.907,-3392.5781L13589.8985,-3392.6049L13589.8853,-3392.6227L13589.8608,-3392.6422L13589.8435,-3392.6686L13589.8404,-3392.7008L13589.8486,-3392.7222L13589.8598,-3392.7358L13589.8618,-3392.7477L13589.8577,-3392.7621L13589.8506,-3392.7791L13589.8404,-3392.7978L13589.8404,-3392.8133L13589.8404,-3392.832L13589.8384,-3392.8456L13589.8425,-3392.8558L13589.8608,-3392.8728L13589.8741,-3392.8855L13589.8771,-3392.8999L13589.873,-3392.9313L13589.8649,-3392.9554L13589.8599,-3392.9649L13589.8537,-3392.9767L13589.8455,-3392.9953L13589.8465,-3393.0047L13589.8587,-3393.0301L13589.8618,-3393.0454L13589.8618,-3393.0599L13589.8547,-3393.0845L13589.8465,-3393.1365L13589.8343,-3393.1951L13589.8282,-3393.2327L13589.8251,-3393.2624L13589.8132,-3393.3333L13589.8119,-3393.3414L13589.8088,-3393.3782L13589.8006,-3393.4019L13589.7915,-3393.4147L13589.7721,-3393.4257L13589.7313,-3393.4351L13589.7161,-3393.4461L13589.7049,-3393.4707L13589.6936,-3393.497L13589.6827,-3393.5042L13589.6794,-3393.5064L13589.6631,-3393.5106L13589.6302,-3393.5185L13589.5996,-3393.5287L13589.57,-3393.5406L13589.5507,-3393.5567L13589.5507,-3393.5635L13589.5527,-3393.5737L13589.5609,-3393.5856L13589.5629,-3393.5932L13589.5568,-3393.6136L13589.5446,-3393.6263L13589.5252,-3393.6323L13589.5058,-3393.6331L13589.4926,-3393.6348L13589.4864,-3393.6393L13589.4823,-3393.6521L13589.4785,-3393.6967L13589.4783,-3393.6996L13589.466,-3393.7514L13589.466,-3393.7703L13589.468,-3393.789L13589.4691,-3393.8051L13589.4691,-3393.8238L13589.4666,-3393.8271L13589.447,-3393.8401L13589.4247,-3393.8486L13589.4179,-3393.8536L13589.4119,-3393.8604L13589.3975,-3393.8758L13589.3914,-3393.88L13589.3771,-3393.8826L13589.3652,-3393.8812L13589.3456,-3393.8801L13589.326,-3393.8801L13589.3158,-3393.8829L13589.3077,-3393.888L13589.3009,-3393.8942L13589.3009,-3393.9027L13589.3067,-3393.9183L13589.3189,-3393.9277L13589.3368,-3393.9421L13589.3564,-3393.959L13589.3632,-3393.9675L13589.3645,-3393.9726L13589.3652,-3393.9833L13589.3611,-3393.9917L13589.3414,-3394.0209L13589.3084,-3394.0518L13589.2837,-3394.0793L13589.2672,-3394.1022L13589.2604,-3394.1411L13589.2561,-3394.1667L13589.2549,-3394.1744L13589.2535,-3394.1858L13589.27,-3394.2216L13589.2879,-3394.2457L13589.3154,-3394.2789L13589.3236,-3394.3018L13589.3291,-3394.3408L13589.3222,-3394.388L13589.3208,-3394.4167L13589.327,-3394.4423L13589.3277,-3394.4453L13589.3236,-3394.4659L13589.3084,-3394.4842L13589.2782,-3394.5129L13589.2521,-3394.5298L13589.2437,-3394.5546L13589.2449,-3394.5824L13589.2497,-3394.5973L13589.2628,-3394.6211L13589.2818,-3394.6499L13589.2986,-3394.6681L13589.3236,-3394.6819L13589.3438,-3394.6929L13589.3522,-3394.7127L13589.3545,-3394.7584L13589.3617,-3394.7881L13589.3784,-3394.8119L13589.3989,-3394.8241L13589.4309,-3394.8284L13589.4443,-3394.8327L13589.4577,-3394.8439L13589.468,-3394.88L13589.4773,-3394.9014L13589.4856,-3394.9143L13589.4845,-3394.9229L13589.4742,-3394.9306L13589.4567,-3394.9324L13589.4412,-3394.9298L13589.4185,-3394.9255L13589.3937,-3394.9289L13589.3731,-3394.9418L13589.3617,-3394.9546L13589.3626,-3394.9784L13589.3697,-3394.9903L13589.3784,-3395L13589.3849,-3395.0074L13589.4135,-3395.0178L13589.4475,-3395.029L13589.4654,-3395.0439L13589.4851,-3395.0768L13589.4954,-3395.1037L13589.4967,-3395.1073L13589.511,-3395.12L13589.5378,-3395.1386L13589.5548,-3395.149L13589.5817,-3395.1752L13589.5951,-3395.1864L13589.6112,-3395.1991L13589.6344,-3395.2073L13589.6532,-3395.2117L13589.6773,-3395.2207L13589.705,-3395.2415L13589.7157,-3395.2564L13589.7297,-3395.2768L13589.732,-3395.3013L13589.7248,-3395.3169L13589.7087,-3395.3392L13589.7087,-3395.3548L13589.7123,-3395.3885L13589.7195,-3395.4109L13589.7257,-3395.4213L13589.7356,-3395.425L13589.7368,-3395.4247L13589.7463,-3395.4227L13589.7597,-3395.4138L13589.7731,-3395.4019L13589.7856,-3395.3885L13589.7972,-3395.3803L13589.8177,-3395.3736L13589.8427,-3395.3751L13589.8696,-3395.3803L13589.8928,-3395.3833L13589.9244,-3395.3788L13589.9539,-3395.3773L13590,-3395.3787L13590.0039,-3395.3788L13590.0486,-3395.3826L13590.0933,-3395.3878L13590.1093,-3395.3952L13590.1245,-3395.3967L13590.1433,-3395.3959L13590.1638,-3395.3878L13590.1811,-3395.3766L13590.1971,-3395.3751L13590.2097,-3395.381L13590.2293,-3395.3907L13590.2427,-3395.4093L13590.257,-3395.4258L13590.2731,-3395.4443L13590.3045,-3395.475L13590.3223,-3395.4891L13590.3671,-3395.5152L13590.409,-3395.53L13590.4423,-3395.5414L13590.4682,-3395.5532L13590.478,-3395.5659L13590.4986,-3395.5934L13590.5138,-3395.6249L13590.5379,-3395.6591L13590.5665,-3395.6889L13590.5809,-3395.7137L13590.5863,-3395.7322L13590.6006,-3395.7486L13590.6095,-3395.768L13590.6185,-3395.7903L13590.6292,-3395.8037L13590.6453,-3395.8091L13590.6641,-3395.8091L13590.6748,-3395.8151L13590.6858,-3395.8333L13590.6882,-3395.8374L13590.6927,-3395.8642L13590.6882,-3395.894L13590.6918,-3395.9113L13590.6981,-3395.9209L13590.7061,-3395.9492L13590.7079,-3395.9902L13590.7061,-3396.0171L13590.7007,-3396.029L13590.6918,-3396.0551L13590.69,-3396.0722L13590.6874,-3396.0901L13590.6811,-3396.1051L13590.6757,-3396.1237L13590.6766,-3396.1512L13590.6777,-3396.1647L13590.6802,-3396.1954L13590.6829,-3396.211L13590.6918,-3396.2192L13590.7043,-3396.2251L13590.7105,-3396.2355L13590.7105,-3396.2504L13590.7016,-3396.2638L13590.6926,-3396.2742L13590.673,-3396.2863L13590.6658,-3396.2967L13590.6667,-3396.3079L13590.6774,-3396.3109L13590.698,-3396.3213L13590.7284,-3396.3421L13590.784,-3396.3708L13590.7893,-3396.3735L13590.8286,-3396.3854L13590.8333,-3396.3872L13590.9108,-3396.4167L13590.9772,-3396.4347L13591.0174,-3396.4377L13591.0764,-3396.4332L13591.1246,-3396.4206L13591.1532,-3396.4116L13591.1979,-3396.4094L13591.2366,-3396.4146L13591.2661,-3396.4265L13591.2973,-3396.4571L13591.3457,-3396.5108L13591.3778,-3396.5324L13591.4332,-3396.5599L13591.4484,-3396.5678L13591.4763,-3396.5824L13591.5022,-3396.6069L13591.5245,-3396.6352L13591.5356,-3396.6667L13591.5469,-3396.6987L13591.5612,-3396.7247L13591.5907,-3396.7448L13591.5987,-3396.7522L13591.6033,-3396.7673L13591.5988,-3396.7859L13591.5765,-3396.8276L13591.5541,-3396.871L13591.5433,-3396.9015L13591.5407,-3396.9283L13591.5391,-3396.9463L13591.538,-3396.959L13591.5425,-3396.9851L13591.5451,-3397.0007L13591.5416,-3397.02L13591.5371,-3397.0379L13591.5273,-3397.0639L13591.5138,-3397.0939L13591.5138,-3397.1132L13591.5174,-3397.1378L13591.5281,-3397.1758L13591.5489,-3397.2207L13591.5674,-3397.2592L13591.587,-3397.2797L13591.6188,-3397.3003L13591.6384,-3397.3132L13591.663,-3397.338L13591.6667,-3397.3414L13591.7228,-3397.3939L13591.7608,-3397.4264L13591.8184,-3397.4624L13591.871,-3397.4882L13591.8863,-3397.5L13591.8967,-3397.5079L13591.9121,-3397.5216L13591.9275,-3397.5439L13591.9534,-3397.5896L13591.9657,-3397.6152L13591.9863,-3397.6409L13592.0429,-3397.6959L13592.0819,-3397.7327L13592.1304,-3397.7732L13592.1592,-3397.8006L13592.1912,-3397.8402L13592.2107,-3397.8513L13592.2323,-3397.8547L13592.2786,-3397.865L13592.3323,-3397.8719L13592.3392,-3397.8727L13592.3711,-3397.8796L13592.3927,-3397.8856L13592.4163,-3397.9036L13592.4598,-3397.9302L13592.5,-3397.9512L13592.5009,-3397.9516L13592.5111,-3397.9653L13592.5224,-3397.9867L13592.5307,-3398.0118L13592.5544,-3398.0735L13592.5708,-3398.1L13592.5893,-3398.1163L13592.6027,-3398.1266L13592.6305,-3398.1386L13592.6462,-3398.1423L13592.6563,-3398.1447L13592.6789,-3398.1405L13592.7139,-3398.1285L13592.7385,-3398.1165L13592.7684,-3398.0951L13592.7889,-3398.0822L13592.8054,-3398.0737L13592.8489,-3398.0478L13592.8869,-3398.0341L13592.9136,-3398.0341L13592.9989,-3398.0444L13593.0701,-3398.0624L13593.0836,-3398.0646L13593.1112,-3398.0692L13593.139,-3398.071L13593.1801,-3398.0641L13593.2174,-3398.0529L13593.2256,-3398.0504L13593.2524,-3398.0375L13593.2781,-3398.029L13593.3141,-3398.0255L13593.3333,-3398.0225L13593.3583,-3398.0187L13593.4394,-3398.0136L13593.4973,-3398.017L13593.5559,-3398.0256L13593.6547,-3398.0534L13593.6864,-3398.0623L13593.7431,-3398.0814L13593.7607,-3398.0872L13593.7895,-3398.0992L13593.8214,-3398.1035L13593.8543,-3398.1027L13593.8974,-3398.0941L13593.9355,-3398.083L13593.9656,-3398.0718L13593.9882,-3398.059L13593.9974,-3398.0538L13594.0221,-3398.041L13594.0468,-3398.0213L13594.054,-3398.0016L13594.0468,-3397.9543L13594.0365,-3397.9286L13594.019,-3397.8762L13594.0098,-3397.8582L13594.0017,-3397.8469L13593.9964,-3397.8394L13593.9861,-3397.8111L13593.982,-3397.7793L13593.9841,-3397.769L13593.9974,-3397.7579L13594.018,-3397.7501L13594.0324,-3397.7416L13594.054,-3397.7227L13594.0869,-3397.6831L13594.0993,-3397.6591L13594.1085,-3397.6292L13594.1178,-3397.593L13594.125,-3397.5759L13594.1353,-3397.569L13594.1404,-3397.569L13594.1456,-3397.5733L13594.1579,-3397.5922L13594.1667,-3397.5976L13594.1784,-3397.605L13594.2093,-3397.6213L13594.2527,-3397.6376L13594.2959,-3397.6444L13594.3288,-3397.647L13594.3586,-3397.6521L13594.373,-3397.6641L13594.3824,-3397.6883L13594.3824,-3397.7026L13594.3824,-3397.708L13594.3732,-3397.7388L13594.3732,-3397.7508L13594.3783,-3397.7577L13594.3947,-3397.7739L13594.4412,-3397.8059L13594.4556,-3397.8196L13594.4638,-3397.8409L13594.4699,-3397.8701L13594.4864,-3397.8908L13594.4998,-3397.9114L13594.5163,-3397.9336L13594.5276,-3397.9413L13594.5512,-3397.9525L13594.5571,-3397.9542L13594.5893,-3397.9636L13594.6191,-3397.973L13594.6336,-3397.9853L13594.6532,-3398.0101L13594.6634,-3398.0255L13594.6922,-3398.0478L13594.7143,-3398.06L13594.7261,-3398.0666L13594.759,-3398.076L13594.7857,-3398.0794L13594.8207,-3398.082L13594.8734,-3398.0864L13594.8961,-3398.0838L13594.9372,-3398.0787L13594.9793,-3398.0761L13595,-3398.0786L13595.0225,-3398.0812L13595.0937,-3398.0933L13595.1379,-3398.101L13595.1657,-3398.1036L13595.251,-3398.0984L13595.2808,-3398.0967L13595.3211,-3398.0907L13595.3386,-3398.0752L13595.352,-3398.0598L13595.3613,-3398.0496L13595.3808,-3398.0376L13595.3983,-3398.0329L13595.4219,-3398.0376L13595.4661,-3398.0487L13595.5343,-3398.0607L13595.5652,-3398.0677L13595.599,-3398.0752L13595.6689,-3398.0907L13595.7617,-3398.125L13595.8131,-3398.1516L13595.8333,-3398.1667L13595.8521,-3398.1807L13595.8821,-3398.2066L13595.9109,-3398.2425L13595.9314,-3398.2751L13595.9546,-3398.3113L13595.9634,-3398.325L13595.9724,-3398.3333L13595.9902,-3398.3498L13596.0159,-3398.3721L13596.0467,-3398.4012L13596.0632,-3398.4209L13596.0932,-3398.4529L13596.1076,-3398.4614L13596.1302,-3398.4666L13596.1517,-3398.464L13596.1774,-3398.458L13596.2059,-3398.4486L13596.2299,-3398.4511L13596.2576,-3398.4631L13596.2916,-3398.4871L13596.3577,-3398.519L13596.3824,-3398.5318L13596.4081,-3398.5395L13596.4237,-3398.5395L13596.442,-3398.5395L13596.48,-3398.5387L13596.4985,-3398.5378L13596.518,-3398.5412L13596.5345,-3398.5481L13596.5606,-3398.5542L13596.5886,-3398.5521L13596.6183,-3398.5542L13596.6667,-3398.5639L13596.6675,-3398.5641L13596.7509,-3398.574L13596.7958,-3398.5875L13596.8476,-3398.6016L13596.8756,-3398.6016L13596.9837,-3398.6009L13597.0321,-3398.6009L13597.0789,-3398.596L13597.1383,-3398.5854L13597.1731,-3398.5769L13597.214,-3398.5726L13597.2649,-3398.5747L13597.3305,-3398.5825L13597.3873,-3398.591L13597.4603,-3398.5967L13597.5,-3398.6113L13597.5046,-3398.613L13597.5092,-3398.6154L13597.5454,-3398.6342L13597.5666,-3398.6504L13597.5853,-3398.6681L13597.5989,-3398.6974L13597.6066,-3398.7412L13597.6219,-3398.8213L13597.6312,-3398.846L13597.6516,-3398.8694L13597.6753,-3398.8984L13597.7001,-3398.9361L13597.7145,-3398.9587L13597.7232,-3398.9649L13597.7332,-3398.9721L13597.7646,-3398.9749L13597.8206,-3398.9799L13597.8537,-3398.9969L13597.8827,-3399.0246L13597.9099,-3399.0416L13597.9379,-3399.0571L13597.9736,-3399.0698L13598.0117,-3399.0727L13598.0884,-3399.0741L13598.158,-3399.0769L13598.2177,-3399.0883L13598.2364,-3399.0982L13598.2491,-3399.111L13598.255,-3399.1258L13598.2616,-3399.1318L13598.2652,-3399.135L13598.2771,-3399.1386L13598.3314,-3399.14L13598.3333,-3399.1401L13598.3721,-3399.1435L13598.4163,-3399.1541L13598.4615,-3399.1641L13598.4669,-3399.1667L13598.4869,-3399.1761L13598.5022,-3399.1839L13598.5175,-3399.2051L13598.5261,-3399.2456L13598.5311,-3399.2838L13598.5209,-3399.3264L13598.5023,-3399.366L13598.4811,-3399.4306L13598.4802,-3399.4489L13598.4802,-3399.4631L13598.4836,-3399.4765L13598.5065,-3399.4984L13598.5567,-3399.5446L13598.5796,-3399.5714L13598.6093,-3399.6033L13598.6451,-3399.6466L13598.6705,-3399.6692L13598.6761,-3399.6744L13598.7095,-3399.706L13598.7724,-3399.7556L13598.7931,-3399.7762L13598.7979,-3399.7811L13598.8235,-3399.7954L13598.8506,-3399.8059L13598.8668,-3399.8194L13598.8812,-3399.8434L13598.8923,-3399.8734L13598.8974,-3399.8889L13598.8966,-3399.9122L13598.8957,-3399.9285L13598.8932,-3399.961L13598.8916,-3400L13598.8915,-3400.0036L13598.8948,-3400.0262L13598.9076,-3400.0469L13598.9305,-3400.066L13598.9483,-3400.0886L13598.9543,-3400.1149L13598.9514,-3400.1526L13598.9509,-3400.1581L13598.9501,-3400.208L13598.9484,-3400.2247L13598.9543,-3400.2382L13598.9866,-3400.2672L13599.013,-3400.2842L13599.0444,-3400.309L13599.0537,-3400.3231L13599.0533,-3400.3338L13599.0683,-3400.3535L13599.0853,-3400.3667L13599.1624,-3400.3874L13599.1667,-3400.3885L13599.2032,-3400.3978L13599.2338,-3400.4072L13599.2735,-3400.4356L13599.3528,-3400.4997L13599.3834,-3400.5101L13599.439,-3400.5129L13599.5302,-3400.5177L13599.5834,-3400.5159L13599.6436,-3400.53L13599.7022,-3400.5304L13599.7156,-3400.5304L13599.7787,-3400.588L13599.8091,-3400.6043L13599.8396,-3400.6134L13599.8905,-3400.6189L13599.9683,-3400.6149L13600,-3400.6107L13600.0364,-3400.606L13600.0776,-3400.5972L13600.1059,-3400.5985L13600.1458,-3400.6198L13600.1637,-3400.6319L13600.1689,-3400.6357L13600.2147,-3400.6686L13600.2489,-3400.6991L13600.2684,-3400.7313L13600.2931,-3400.7837L13600.3094,-3400.8333L13600.3221,-3400.8717L13600.3383,-3400.9269L13600.3489,-3400.9632L13600.3607,-3400.9881L13600.4446,-3400.9697L13600.5343,-3400.9398L13600.5913,-3400.9141L13600.645,-3400.8667L13600.6662,-3400.8333L13600.6792,-3400.813L13600.6938,-3400.7751L13600.6955,-3400.7398L13600.6808,-3400.6992Z"/>
</g>
</svg>
