<?xml version="1.0" encoding="UTF-8"?>
<svg  xmlns="http://www.w3.org/2000/svg" xmlns:xlink="http://www.w3.org/1999/xlink" xmlns:go="http://purl.org/svgmap/profile" property="geometry,N03_001,N03_002,N03_003,N03_004,N03_005,N03_007" viewBox="13491.2109375 -3489.2578125 8.7890625 8.7890625" go:dataArea="13491.2109375 -3489.2578125 8.7890625 8.7890625" >
<metadata>
 <rdf:RDF xmlns:rdf="http://www.w3.org/1999/02/22-rdf-syntax-ns#" xmlns:crs="http://opengis.org/xmldtds/transformations.dtd" xmlns:svg="http://www.w3.org/svg" >
  <rdf:Description>
   <crs:CoordinateReferenceSystem rdf:resource="http://purl.org/crs/84" svg:transform="matrix(100.0,0.0,0.0,-100.0,0.0,0.0)" />
  </rdf:Description>
 </rdf:RDF>
</metadata>
<globalCoordinateSystem srsName="http://purl.org/crs/84" transform="matrix(100.0,0.0,0.0,-100.0,0.0,0.0)" />
<defs>
 <g id="p0" >
  <circle cx="0.0" cy="0.0" r="3" stroke="green" stroke-width="2.0" vector-effect="non-scaling-stroke" />
 </g>
</defs>
<g fill="#0000ff" fill-rule="evenodd" opacity="0.5" >
<path content="兵庫県,,,加古川市,,28210" xlink:title="兵庫県" d="M13491.2109,-3480.4688L13491.2109,-3482.57L13491.2822,-3482.5299L13491.299,-3482.5242L13491.3181,-3482.5218L13491.3354,-3482.5199L13491.3557,-3482.5203L13491.369,-3482.5242L13491.3962,-3482.5447L13491.4182,-3482.569L13491.4344,-3482.5805L13491.4685,-3482.6139L13491.4801,-3482.6249L13491.4916,-3482.6301L13491.5032,-3482.6316L13491.5182,-3482.6301L13491.5579,-3482.6277L13491.5862,-3482.6229L13491.6105,-3482.6144L13491.6406,-3482.6005L13491.6667,-3482.5851L13491.6834,-3482.5752L13491.6973,-3482.5642L13491.7013,-3482.549L13491.7059,-3482.5332L13491.7436,-3482.5025L13491.7467,-3482.5L13491.7614,-3482.4879L13491.7895,-3482.4657L13491.8092,-3482.4557L13491.8181,-3482.4528L13491.8369,-3482.4466L13491.9226,-3482.4247L13491.9434,-3482.4213L13491.9677,-3482.4213L13492.0053,-3482.4252L13492.0533,-3482.4347L13492.0614,-3482.4342L13492.0666,-3482.4314L13492.0701,-3482.4194L13492.0735,-3482.3975L13492.0735,-3482.3707L13492.0718,-3482.3574L13492.0649,-3482.3412L13492.0556,-3482.3271L13492.0519,-3482.3241L13492.0197,-3482.298L13492.0099,-3482.287L13491.9995,-3482.2579L13491.9752,-3482.1921L13491.9729,-3482.1787L13491.9741,-3482.1658L13491.9839,-3482.1424L13492.0064,-3482.1071L13492.0197,-3482.0826L13492.0226,-3482.0697L13492.0226,-3482.0544L13492.0192,-3482.0429L13491.9891,-3481.9976L13492.0296,-3481.9771L13492.0533,-3481.9632L13492.0614,-3481.9561L13492.0721,-3481.9458L13492.097,-3481.9329L13492.1433,-3481.9096L13492.167,-3481.8948L13492.1716,-3481.8881L13492.1675,-3481.8671L13492.1739,-3481.8595L13492.1784,-3481.8564L13492.1971,-3481.8437L13492.2121,-3481.8361L13492.2231,-3481.8313L13492.2248,-3481.8237L13492.226,-3481.8094L13492.2237,-3481.7712L13492.2266,-3481.7428L13492.2294,-3481.7294L13492.2387,-3481.717L13492.2665,-3481.7003L13492.2867,-3481.6855L13492.2942,-3481.6746L13492.2975,-3481.6667L13492.3203,-3481.6112L13492.3261,-3481.5973L13492.3328,-3481.5832L13492.3467,-3481.5674L13492.3641,-3481.5526L13492.3884,-3481.5364L13492.4214,-3481.5044L13492.441,-3481.4872L13492.4486,-3481.4706L13492.4522,-3481.4639L13492.4572,-3481.4548L13492.4653,-3481.4481L13492.4983,-3481.4281L13492.5,-3481.4269L13492.5162,-3481.4152L13492.5269,-3481.4016L13492.5391,-3481.3779L13492.5506,-3481.3553L13492.5587,-3481.342L13492.5749,-3481.3281L13492.5998,-3481.309L13492.6154,-3481.2962L13492.627,-3481.2756L13492.6461,-3481.2274L13492.6784,-3481.1592L13492.695,-3481.1295L13492.6981,-3481.1239L13492.7079,-3481.1038L13492.7201,-3481.079L13492.7423,-3481.0347L13492.745,-3481.0294L13492.7501,-3481.0134L13492.7519,-3481.0079L13492.7542,-3480.9912L13492.7553,-3480.9711L13492.7564,-3480.9504L13492.7616,-3480.906L13492.7643,-3480.8715L13492.7645,-3480.8692L13492.7668,-3480.8569L13492.7727,-3480.8333L13492.7743,-3480.8268L13492.7824,-3480.8053L13492.7937,-3480.7853L13492.8033,-3480.7686L13492.8166,-3480.7486L13492.8264,-3480.7357L13492.8322,-3480.718L13492.8478,-3480.6747L13492.8484,-3480.6642L13492.8461,-3480.6518L13492.8385,-3480.637L13492.8229,-3480.6179L13492.8014,-3480.5966L13492.7859,-3480.5812L13492.7494,-3480.5392L13492.7298,-3480.5106L13492.7153,-3480.4886L13492.7085,-3480.471L13492.7076,-3480.4688Z"/>
<path content="兵庫県,,,三木市,,28215" xlink:title="兵庫県" d="M13500,-3480.4687L13492.7076,-3480.4688L13492.7085,-3480.471L13492.7153,-3480.4886L13492.7298,-3480.5106L13492.7494,-3480.5392L13492.7859,-3480.5812L13492.8014,-3480.5966L13492.8229,-3480.6179L13492.8385,-3480.637L13492.8461,-3480.6518L13492.8484,-3480.6642L13492.8478,-3480.6747L13492.8322,-3480.718L13492.8264,-3480.7357L13492.8166,-3480.7486L13492.8033,-3480.7686L13492.7937,-3480.7853L13492.7824,-3480.8053L13492.7743,-3480.8268L13492.7727,-3480.8333L13492.7668,-3480.8569L13492.7645,-3480.8692L13492.7643,-3480.8715L13492.7616,-3480.906L13492.7564,-3480.9504L13492.7553,-3480.9711L13492.7542,-3480.9912L13492.7519,-3481.0079L13492.7501,-3481.0134L13492.745,-3481.0294L13492.7423,-3481.0347L13492.8138,-3481.0632L13492.867,-3481.0871L13492.8759,-3481.0903L13492.8948,-3481.0971L13492.9295,-3481.1057L13492.9504,-3481.1114L13493.0361,-3481.0866L13493.0406,-3481.0857L13493.0893,-3481.0761L13493.1253,-3481.0666L13493.1905,-3481.0494L13493.2229,-3481.0399L13493.2327,-3481.0389L13493.2403,-3481.0408L13493.2696,-3481.0612L13493.3004,-3481.0826L13493.3308,-3481.1038L13493.3333,-3481.1041L13493.3418,-3481.1052L13493.3672,-3481.1004L13493.4372,-3481.0809L13493.4621,-3481.0718L13493.5246,-3481.0532L13493.5633,-3481.0446L13493.5941,-3481.0392L13493.6502,-3481.0254L13493.6803,-3481.0144L13493.7046,-3481.0006L13493.748,-3480.9672L13493.7705,-3480.9576L13493.8457,-3480.9214L13493.8787,-3480.9056L13493.9254,-3480.8896L13493.9578,-3480.8772L13493.9804,-3480.8701L13494.0024,-3480.8658L13494.0145,-3480.8572L13494.0244,-3480.8434L13494.0251,-3480.8413L13494.028,-3480.8333L13494.0307,-3480.8257L13494.0394,-3480.7961L13494.0477,-3480.7525L13494.0582,-3480.6981L13494.0663,-3480.667L13494.0749,-3480.647L13494.0859,-3480.6203L13494.105,-3480.5744L13494.1108,-3480.5644L13494.1189,-3480.5587L13494.1276,-3480.5577L13494.1397,-3480.5639L13494.1611,-3480.5802L13494.1667,-3480.5855L13494.1895,-3480.6074L13494.2097,-3480.6374L13494.2224,-3480.6541L13494.2335,-3480.6649L13494.2551,-3480.6859L13494.2739,-3480.7042L13494.3026,-3480.7278L13494.3327,-3480.7449L13494.365,-3480.7587L13494.3969,-3480.7692L13494.4264,-3480.7812L13494.4408,-3480.7936L13494.468,-3480.8237L13494.4744,-3480.8333L13494.4807,-3480.8427L13494.4859,-3480.8521L13494.494,-3480.8671L13494.527,-3480.901L13494.5556,-3480.9362L13494.5776,-3480.9629L13494.5852,-3480.9758L13494.5863,-3480.9877L13494.5788,-3480.9963L13494.5746,-3480.9989L13494.5666,-3481.0039L13494.5626,-3481.0139L13494.5643,-3481.0173L13494.5881,-3481.0144L13494.6176,-3481.0106L13494.6441,-3481.0096L13494.6569,-3481.0125L13494.6754,-3481.0192L13494.7147,-3481.0431L13494.7367,-3481.0574L13494.7436,-3481.0602L13494.7546,-3481.0583L13494.7766,-3481.0431L13494.8061,-3481.0302L13494.8576,-3480.9996L13494.8787,-3480.9925L13494.9042,-3480.9863L13494.9264,-3480.9818L13494.9637,-3480.9744L13494.9863,-3480.9691L13494.9996,-3480.9681L13495,-3480.9684L13495.0065,-3480.9729L13495.0175,-3480.9834L13495.0279,-3481.0006L13495.0337,-3481.0139L13495.0482,-3481.0287L13495.0586,-3481.0536L13495.0781,-3481.1062L13495.0943,-3481.1514L13495.0989,-3481.1644L13495.1153,-3481.2021L13495.1169,-3481.2059L13495.1261,-3481.2341L13495.1325,-3481.2493L13495.1389,-3481.2627L13495.1675,-3481.2949L13495.1901,-3481.3221L13495.2016,-3481.3392L13495.2097,-3481.3617L13495.2143,-3481.3822L13495.2185,-3481.4124L13495.2207,-3481.4285L13495.2327,-3481.4282L13495.3277,-3481.4261L13495.3428,-3481.4199L13495.3775,-3481.3917L13495.3775,-3481.3769L13495.3827,-3481.3636L13495.3954,-3481.3349L13495.3995,-3481.3225L13495.4116,-3481.3068L13495.4237,-3481.2972L13495.4387,-3481.2905L13495.4481,-3481.2863L13495.488,-3481.271L13495.5064,-3481.2672L13495.5441,-3481.2667L13495.5889,-3481.2677L13495.5913,-3481.2679L13495.6106,-3481.2694L13495.6199,-3481.2701L13495.6224,-3481.2703L13495.6319,-3481.2711L13495.6433,-3481.272L13495.6873,-3481.2801L13495.693,-3481.2844L13495.7045,-3481.3012L13495.7178,-3481.3207L13495.7347,-3481.3454L13495.7489,-3481.3564L13495.7651,-3481.3617L13495.8003,-3481.3641L13495.8217,-3481.366L13495.8333,-3481.369L13495.8506,-3481.3736L13495.8783,-3481.3841L13495.8916,-3481.3879L13495.9252,-3481.3951L13495.9527,-3481.401L13495.994,-3481.4099L13496.0223,-3481.408L13496.0324,-3481.4049L13496.1005,-3481.3842L13496.1009,-3481.3841L13496.1201,-3481.3807L13496.1334,-3481.3827L13496.1363,-3481.3831L13496.1386,-3481.3834L13496.1655,-3481.387L13496.1717,-3481.3875L13496.1863,-3481.3889L13496.2486,-3481.4044L13496.2493,-3481.4046L13496.2731,-3481.4104L13496.2906,-3481.4183L13496.2922,-3481.4189L13496.3442,-3481.4538L13496.3844,-3481.4792L13496.3989,-3481.4849L13496.4208,-3481.493L13496.4417,-3481.5045L13496.4781,-3481.5226L13496.5146,-3481.5336L13496.5389,-3481.5398L13496.5655,-3481.5446L13496.5892,-3481.5498L13496.6233,-3481.5603L13496.643,-3481.5608L13496.6667,-3481.5585L13496.6673,-3481.5584L13496.6956,-3481.5508L13496.7086,-3481.5462L13496.7225,-3481.5458L13496.7387,-3481.5496L13496.7532,-3481.5544L13496.785,-3481.5706L13496.8133,-3481.5816L13496.8388,-3481.593L13496.8475,-3481.603L13496.8608,-3481.614L13496.8868,-3481.6297L13496.8974,-3481.6394L13496.9271,-3481.6667L13496.9551,-3481.6922L13496.9828,-3481.7185L13497.001,-3481.7391L13497.0087,-3481.7515L13497.0137,-3481.7597L13497.0271,-3481.7687L13497.0433,-3481.7764L13497.0583,-3481.7802L13497.0641,-3481.7843L13497.0704,-3481.7888L13497.0837,-3481.8026L13497.0999,-3481.8107L13497.13,-3481.8222L13497.1399,-3481.8293L13497.1676,-3481.8542L13497.1945,-3481.8668L13497.2293,-3481.8859L13497.257,-3481.9064L13497.2871,-3481.9317L13497.3114,-3481.9541L13497.3357,-3481.9789L13497.3571,-3482.0037L13497.3709,-3482.0204L13497.386,-3482.0452L13497.3999,-3482.0777L13497.4091,-3482.1037L13497.4172,-3482.1223L13497.434,-3482.1519L13497.4375,-3482.1643L13497.4415,-3482.1801L13497.4491,-3482.1901L13497.467,-3482.2063L13497.4699,-3482.2144L13497.4734,-3482.2354L13497.4788,-3482.2542L13497.4962,-3482.2982L13497.5,-3482.3015L13497.5043,-3482.3053L13497.5228,-3482.3144L13497.5419,-3482.3172L13497.5546,-3482.3163L13497.5673,-3482.313L13497.5777,-3482.3139L13497.5887,-3482.3172L13497.613,-3482.3349L13497.6281,-3482.3469L13497.6449,-3482.3531L13497.6767,-3482.3588L13497.7054,-3482.3693L13497.7274,-3482.3721L13497.7546,-3482.3736L13497.7743,-3482.3693L13497.7786,-3482.3668L13497.798,-3482.3559L13497.8119,-3482.3492L13497.8229,-3482.3492L13497.8385,-3482.3545L13497.8691,-3482.3573L13497.8859,-3482.3602L13497.9073,-3482.3702L13497.9345,-3482.385L13497.9464,-3482.3937L13497.9631,-3482.4047L13497.9799,-3482.4114L13498.0054,-3482.4152L13498.0262,-3482.4205L13498.0638,-3482.4376L13498.0817,-3482.4419L13498.1373,-3482.4477L13498.1621,-3482.4524L13498.1737,-3482.4577L13498.1824,-3482.4691L13498.1965,-3482.4973L13498.1986,-3482.5L13498.2138,-3482.5192L13498.226,-3482.5307L13498.2439,-3482.5402L13498.2711,-3482.5526L13498.3035,-3482.5631L13498.3081,-3482.5712L13498.3151,-3482.5841L13498.3266,-3482.5913L13498.3333,-3482.5936L13498.3434,-3482.597L13498.3689,-3482.6013L13498.3912,-3482.6072L13498.4087,-3482.6118L13498.4406,-3482.5612L13498.4493,-3482.5397L13498.4521,-3482.525L13498.4498,-3482.5059L13498.4483,-3482.5L13498.4411,-3482.4725L13498.4371,-3482.452L13498.4354,-3482.41L13498.4365,-3482.3742L13498.4411,-3482.3618L13498.4487,-3482.357L13498.4626,-3482.3551L13498.474,-3482.3555L13498.5146,-3482.357L13498.5487,-3482.3575L13498.5644,-3482.3608L13498.5739,-3482.3664L13498.5791,-3482.3717L13498.5837,-3482.3874L13498.5901,-3482.3898L13498.6057,-3482.3836L13498.637,-3482.3688L13498.6584,-3482.3626L13498.6943,-3482.355L13498.711,-3482.354L13498.7249,-3482.3564L13498.7486,-3482.365L13498.7677,-3482.375L13498.7758,-3482.3831L13498.7781,-3482.3909L13498.7787,-3482.3932L13498.7793,-3482.3951L13498.7827,-3482.4275L13498.7845,-3482.4624L13498.7908,-3482.4871L13498.7968,-3482.5L13498.8036,-3482.5144L13498.8102,-3482.5241L13498.82,-3482.5332L13498.8501,-3482.5513L13498.8906,-3482.5709L13498.9624,-3482.5991L13498.993,-3482.6081L13499.0202,-3482.6215L13499.052,-3482.6391L13499.0942,-3482.6711L13499.1367,-3482.7022L13499.1651,-3482.7237L13499.1667,-3482.7247L13499.1842,-3482.7347L13499.2287,-3482.7586L13499.2472,-3482.7724L13499.2744,-3482.7905L13499.2859,-3482.7961L13499.2901,-3482.7982L13499.3074,-3482.8015L13499.323,-3482.7991L13499.3485,-3482.7915L13499.369,-3482.7844L13499.3852,-3482.7797L13499.3996,-3482.7777L13499.4112,-3482.7725L13499.4176,-3482.7654L13499.4251,-3482.7672L13499.432,-3482.7763L13499.4453,-3482.7816L13499.4922,-3482.793L13499.5501,-3482.8045L13499.5778,-3482.8074L13499.5986,-3482.8078L13499.6218,-3482.8054L13499.6397,-3482.8059L13499.6591,-3482.8121L13499.6863,-3482.8231L13499.7088,-3482.836L13499.7232,-3482.8456L13499.7417,-3482.8601L13499.7677,-3482.8738L13499.7909,-3482.8774L13499.8083,-3482.8786L13499.8307,-3482.8738L13499.848,-3482.8642L13499.8625,-3482.8446L13499.8733,-3482.8344L13499.882,-3482.8314L13499.8936,-3482.8478L13499.9008,-3482.8687L13499.9043,-3482.8802L13499.9116,-3482.9044L13499.9232,-3482.9337L13499.929,-3482.951L13499.9341,-3482.9719L13499.9507,-3483.0236L13499.9521,-3483.0397L13499.9565,-3483.0552L13499.9594,-3483.0648L13499.9688,-3483.0737L13499.9793,-3483.0789L13500,-3483.0889L13500,-3483.9887L13499.984,-3484.0031L13499.9442,-3484.0311L13499.9254,-3484.0407L13499.8939,-3484.0579L13499.8711,-3484.0705L13499.8175,-3484.111L13499.7423,-3484.1653L13499.7403,-3484.1667L13499.7232,-3484.1785L13499.685,-3484.207L13499.6668,-3484.2319L13499.6692,-3484.2491L13499.6856,-3484.2671L13499.7231,-3484.2912L13499.7232,-3484.2511L13499.8074,-3484.3089L13499.8429,-3484.334L13499.9312,-3484.3841L13499.9382,-3484.3876L13499.9637,-3484.4007L13499.9927,-3484.4169L13500,-3484.4231Z"/>
<path content="兵庫県,,,小野市,,28218" xlink:title="兵庫県" d="M13491.2109,-3489.2578L13493.6696,-3489.2578L13493.6633,-3489.238L13493.651,-3489.1997L13493.6465,-3489.1841L13493.6414,-3489.1667L13493.6284,-3489.1221L13493.6051,-3489.0637L13493.5662,-3488.9932L13493.5366,-3488.9496L13493.4767,-3488.8816L13493.4577,-3488.8646L13493.3973,-3488.8104L13493.3333,-3488.7548L13493.3124,-3488.7366L13493.2777,-3488.7046L13493.2735,-3488.7007L13493.1941,-3488.6327L13493.1319,-3488.5724L13493.0961,-3488.5352L13493.0665,-3488.4877L13493.0515,-3488.4594L13493.0478,-3488.4525L13492.9878,-3488.3333L13492.9754,-3488.3088L13492.9373,-3488.2209L13492.9139,-3488.1587L13492.903,-3488.1061L13492.9029,-3488.1049L13492.8944,-3488.0432L13492.8929,-3487.9874L13492.9732,-3488.0203L13493.0011,-3488.0317L13493.0664,-3488.0503L13493.132,-3488.0687L13493.1373,-3488.0702L13493.1972,-3488.0856L13493.2102,-3488.0894L13493.2229,-3488.0933L13493.261,-3488.1253L13493.3077,-3488.16L13493.3333,-3488.1725L13493.3404,-3488.176L13493.3856,-3488.194L13493.4379,-3488.2082L13493.4541,-3488.2126L13493.5731,-3488.2365L13493.5755,-3488.237L13493.604,-3488.2412L13493.6922,-3488.2543L13493.7615,-3488.2524L13493.7724,-3488.2516L13493.7973,-3488.2498L13493.8486,-3488.2389L13493.865,-3488.2344L13493.8868,-3488.2459L13493.9311,-3488.2998L13493.9701,-3488.3332L13493.9704,-3488.3333L13494.0027,-3488.3479L13494.0401,-3488.3633L13494.0549,-3488.3755L13494.0689,-3488.3928L13494.0829,-3488.4236L13494.1115,-3488.4697L13494.1219,-3488.4865L13494.1662,-3488.4788L13494.1667,-3488.4794L13494.195,-3488.5166L13494.2207,-3488.5359L13494.2579,-3488.5257L13494.2915,-3488.5166L13494.3195,-3488.5192L13494.3398,-3488.5185L13494.3873,-3488.5083L13494.4783,-3488.489L13494.5219,-3488.4781L13494.5325,-3488.4734L13494.5577,-3488.4621L13494.5927,-3488.4441L13494.62,-3488.4268L13494.6425,-3488.4223L13494.6536,-3488.4223L13494.6589,-3488.4223L13494.6752,-3488.4287L13494.6845,-3488.4313L13494.6947,-3488.43L13494.7126,-3488.4621L13494.7429,-3488.4537L13494.7694,-3488.4448L13494.7927,-3488.4307L13494.8371,-3488.4371L13494.8488,-3488.4089L13494.9134,-3488.4095L13494.932,-3488.4121L13494.9509,-3488.4153L13494.9603,-3488.4175L13494.9809,-3488.4224L13494.986,-3488.4236L13495,-3488.424L13495.007,-3488.4242L13495.0246,-3488.419L13495.0264,-3488.4185L13495.0521,-3488.405L13495.0778,-3488.4018L13495.1027,-3488.4018L13495.1237,-3488.4011L13495.1479,-3488.3954L13495.1657,-3488.3845L13495.179,-3488.3774L13495.1922,-3488.3704L13495.2218,-3488.3588L13495.2592,-3488.3499L13495.2828,-3488.3449L13495.3136,-3488.3383L13495.3363,-3488.3333L13495.3529,-3488.3297L13495.3604,-3488.3281L13495.3628,-3488.3333L13495.3703,-3488.3498L13495.3902,-3488.3937L13495.4117,-3488.4409L13495.4459,-3488.5294L13495.4571,-3488.5568L13495.4709,-3488.5904L13495.4926,-3488.618L13495.5152,-3488.6385L13495.5306,-3488.6444L13495.5503,-3488.652L13495.6063,-3488.6654L13495.66,-3488.6654L13495.6927,-3488.6635L13495.7285,-3488.6577L13495.7658,-3488.6501L13495.8094,-3488.6366L13495.8333,-3488.6278L13495.8686,-3488.6147L13495.8782,-3488.6106L13495.9044,-3488.5994L13495.9192,-3488.5904L13495.9487,-3488.5724L13495.9693,-3488.5587L13495.9814,-3488.5506L13496.0211,-3488.5198L13496.0523,-3488.5019L13496.0756,-3488.4832L13496.1013,-3488.4717L13496.1309,-3488.4614L13496.16,-3488.4571L13496.1783,-3488.4544L13496.1878,-3488.4523L13496.2126,-3488.4467L13496.2635,-3488.4351L13496.2663,-3488.4345L13496.3137,-3488.4255L13496.3527,-3488.4153L13496.3869,-3488.4057L13496.3961,-3488.4017L13496.4017,-3488.3992L13496.411,-3488.3961L13496.4139,-3488.4012L13496.4181,-3488.4086L13496.4476,-3488.4608L13496.463,-3488.5083L13496.4663,-3488.5185L13496.4749,-3488.5436L13496.4749,-3488.5666L13496.4741,-3488.5846L13496.4741,-3488.6032L13496.4904,-3488.6244L13496.5122,-3488.6616L13496.5138,-3488.6841L13496.5169,-3488.709L13496.5231,-3488.7341L13496.5208,-3488.7507L13496.5262,-3488.7757L13496.5369,-3488.795L13496.5395,-3488.7995L13496.5535,-3488.8303L13496.5683,-3488.8527L13496.5838,-3488.8784L13496.5868,-3488.8887L13496.5932,-3488.9104L13496.6002,-3488.9291L13496.6064,-3488.9611L13496.6157,-3488.9938L13496.6321,-3489.0188L13496.6492,-3489.0477L13496.6601,-3489.0727L13496.6667,-3489.089L13496.6694,-3489.0958L13496.6772,-3489.1119L13496.6881,-3489.1247L13496.7006,-3489.1401L13496.7083,-3489.1548L13496.717,-3489.1667L13496.7239,-3489.176L13496.7442,-3489.1927L13496.7465,-3489.1946L13496.7605,-3489.201L13496.7768,-3489.2023L13496.7862,-3489.1997L13496.8002,-3489.1901L13496.8089,-3489.1907L13496.8103,-3489.1907L13496.836,-3489.1984L13496.8679,-3489.2023L13496.8983,-3489.1997L13496.9239,-3489.1946L13496.9481,-3489.192L13496.9753,-3489.192L13497.0041,-3489.1972L13497.022,-3489.2087L13497.0461,-3489.226L13497.0804,-3489.2472L13497.1076,-3489.2578L13500,-3489.2578L13500,-3484.4231L13499.9927,-3484.4169L13499.9637,-3484.4007L13499.9382,-3484.3876L13499.9312,-3484.3841L13499.8429,-3484.334L13499.8074,-3484.3089L13499.7232,-3484.2511L13499.7231,-3484.2912L13499.6856,-3484.2671L13499.6692,-3484.2491L13499.6668,-3484.2319L13499.685,-3484.207L13499.7232,-3484.1785L13499.7403,-3484.1667L13499.7423,-3484.1653L13499.8175,-3484.111L13499.8711,-3484.0705L13499.8939,-3484.0579L13499.9254,-3484.0407L13499.9442,-3484.0311L13499.984,-3484.0031L13500,-3483.9887L13500,-3483.0889L13499.9793,-3483.0789L13499.9688,-3483.0737L13499.9594,-3483.0648L13499.9565,-3483.0552L13499.9521,-3483.0397L13499.9507,-3483.0236L13499.9341,-3482.9719L13499.929,-3482.951L13499.9232,-3482.9337L13499.9116,-3482.9044L13499.9043,-3482.8802L13499.9008,-3482.8687L13499.8936,-3482.8478L13499.882,-3482.8314L13499.8733,-3482.8344L13499.8625,-3482.8446L13499.848,-3482.8642L13499.8307,-3482.8738L13499.8083,-3482.8786L13499.7909,-3482.8774L13499.7677,-3482.8738L13499.7417,-3482.8601L13499.7232,-3482.8456L13499.7088,-3482.836L13499.6863,-3482.8231L13499.6591,-3482.8121L13499.6397,-3482.8059L13499.6218,-3482.8054L13499.5986,-3482.8078L13499.5778,-3482.8074L13499.5501,-3482.8045L13499.4922,-3482.793L13499.4453,-3482.7816L13499.432,-3482.7763L13499.4251,-3482.7672L13499.4176,-3482.7654L13499.4112,-3482.7725L13499.3996,-3482.7777L13499.3852,-3482.7797L13499.369,-3482.7844L13499.3485,-3482.7915L13499.323,-3482.7991L13499.3074,-3482.8015L13499.2901,-3482.7982L13499.2859,-3482.7961L13499.2744,-3482.7905L13499.2472,-3482.7724L13499.2287,-3482.7586L13499.1842,-3482.7347L13499.1667,-3482.7247L13499.1651,-3482.7237L13499.1367,-3482.7022L13499.0942,-3482.6711L13499.052,-3482.6391L13499.0202,-3482.6215L13498.993,-3482.6081L13498.9624,-3482.5991L13498.8906,-3482.5709L13498.8501,-3482.5513L13498.82,-3482.5332L13498.8102,-3482.5241L13498.8036,-3482.5144L13498.7968,-3482.5L13498.7908,-3482.4871L13498.7845,-3482.4624L13498.7827,-3482.4275L13498.7793,-3482.3951L13498.7787,-3482.3932L13498.7781,-3482.3909L13498.7758,-3482.3831L13498.7677,-3482.375L13498.7486,-3482.365L13498.7249,-3482.3564L13498.711,-3482.354L13498.6943,-3482.355L13498.6584,-3482.3626L13498.637,-3482.3688L13498.6057,-3482.3836L13498.5901,-3482.3898L13498.5837,-3482.3874L13498.5791,-3482.3717L13498.5739,-3482.3664L13498.5644,-3482.3608L13498.5487,-3482.3575L13498.5146,-3482.357L13498.474,-3482.3555L13498.4626,-3482.3551L13498.4487,-3482.357L13498.4411,-3482.3618L13498.4365,-3482.3742L13498.4354,-3482.41L13498.4371,-3482.452L13498.4411,-3482.4725L13498.4483,-3482.5L13498.4498,-3482.5059L13498.4521,-3482.525L13498.4493,-3482.5397L13498.4406,-3482.5612L13498.4087,-3482.6118L13498.3912,-3482.6072L13498.3689,-3482.6013L13498.3434,-3482.597L13498.3333,-3482.5936L13498.3266,-3482.5913L13498.3151,-3482.5841L13498.3081,-3482.5712L13498.3035,-3482.5631L13498.2711,-3482.5526L13498.2439,-3482.5402L13498.226,-3482.5307L13498.2138,-3482.5192L13498.1986,-3482.5L13498.1965,-3482.4973L13498.1824,-3482.4691L13498.1737,-3482.4577L13498.1621,-3482.4524L13498.1373,-3482.4477L13498.0817,-3482.4419L13498.0638,-3482.4376L13498.0262,-3482.4205L13498.0054,-3482.4152L13497.9799,-3482.4114L13497.9631,-3482.4047L13497.9464,-3482.3937L13497.9345,-3482.385L13497.9073,-3482.3702L13497.8859,-3482.3602L13497.8691,-3482.3573L13497.8385,-3482.3545L13497.8229,-3482.3492L13497.8119,-3482.3492L13497.798,-3482.3559L13497.7786,-3482.3668L13497.7743,-3482.3693L13497.7546,-3482.3736L13497.7274,-3482.3721L13497.7054,-3482.3693L13497.6767,-3482.3588L13497.6449,-3482.3531L13497.6281,-3482.3469L13497.613,-3482.3349L13497.5887,-3482.3172L13497.5777,-3482.3139L13497.5673,-3482.313L13497.5546,-3482.3163L13497.5419,-3482.3172L13497.5228,-3482.3144L13497.5043,-3482.3053L13497.5,-3482.3015L13497.4962,-3482.2982L13497.4788,-3482.2542L13497.4734,-3482.2354L13497.4699,-3482.2144L13497.467,-3482.2063L13497.4491,-3482.1901L13497.4415,-3482.1801L13497.4375,-3482.1643L13497.434,-3482.1519L13497.4172,-3482.1223L13497.4091,-3482.1037L13497.3999,-3482.0777L13497.386,-3482.0452L13497.3709,-3482.0204L13497.3571,-3482.0037L13497.3357,-3481.9789L13497.3114,-3481.9541L13497.2871,-3481.9317L13497.257,-3481.9064L13497.2293,-3481.8859L13497.1945,-3481.8668L13497.1676,-3481.8542L13497.1399,-3481.8293L13497.13,-3481.8222L13497.0999,-3481.8107L13497.0837,-3481.8026L13497.0704,-3481.7888L13497.0641,-3481.7843L13497.0583,-3481.7802L13497.0433,-3481.7764L13497.0271,-3481.7687L13497.0137,-3481.7597L13497.0087,-3481.7515L13497.001,-3481.7391L13496.9828,-3481.7185L13496.9551,-3481.6922L13496.9271,-3481.6667L13496.8974,-3481.6394L13496.8868,-3481.6297L13496.8608,-3481.614L13496.8475,-3481.603L13496.8388,-3481.593L13496.8133,-3481.5816L13496.785,-3481.5706L13496.7532,-3481.5544L13496.7387,-3481.5496L13496.7225,-3481.5458L13496.7086,-3481.5462L13496.6956,-3481.5508L13496.6673,-3481.5584L13496.6667,-3481.5585L13496.643,-3481.5608L13496.6233,-3481.5603L13496.5892,-3481.5498L13496.5655,-3481.5446L13496.5389,-3481.5398L13496.5146,-3481.5336L13496.4781,-3481.5226L13496.4417,-3481.5045L13496.4208,-3481.493L13496.3989,-3481.4849L13496.3844,-3481.4792L13496.3442,-3481.4538L13496.2922,-3481.4189L13496.2906,-3481.4183L13496.2731,-3481.4104L13496.2493,-3481.4046L13496.2486,-3481.4044L13496.1863,-3481.3889L13496.1717,-3481.3875L13496.1655,-3481.387L13496.1386,-3481.3834L13496.1363,-3481.3831L13496.1334,-3481.3827L13496.1201,-3481.3807L13496.1009,-3481.3841L13496.1005,-3481.3842L13496.0324,-3481.4049L13496.0223,-3481.408L13495.994,-3481.4099L13495.9527,-3481.401L13495.9252,-3481.3951L13495.8916,-3481.3879L13495.8783,-3481.3841L13495.8506,-3481.3736L13495.8333,-3481.369L13495.8217,-3481.366L13495.8003,-3481.3641L13495.7651,-3481.3617L13495.7489,-3481.3564L13495.7347,-3481.3454L13495.7178,-3481.3207L13495.7045,-3481.3012L13495.693,-3481.2844L13495.6873,-3481.2801L13495.6433,-3481.272L13495.6319,-3481.2711L13495.6224,-3481.2703L13495.6199,-3481.2701L13495.6106,-3481.2694L13495.5913,-3481.2679L13495.5889,-3481.2677L13495.5441,-3481.2667L13495.5064,-3481.2672L13495.488,-3481.271L13495.4481,-3481.2863L13495.4387,-3481.2905L13495.4237,-3481.2972L13495.4116,-3481.3068L13495.3995,-3481.3225L13495.3954,-3481.3349L13495.3827,-3481.3636L13495.3775,-3481.3769L13495.3775,-3481.3917L13495.3428,-3481.4199L13495.3277,-3481.4261L13495.2327,-3481.4282L13495.2207,-3481.4285L13495.2185,-3481.4124L13495.2143,-3481.3822L13495.2097,-3481.3617L13495.2016,-3481.3392L13495.1901,-3481.3221L13495.1675,-3481.2949L13495.1389,-3481.2627L13495.1325,-3481.2493L13495.1261,-3481.2341L13495.1169,-3481.2059L13495.1153,-3481.2021L13495.0989,-3481.1644L13495.0943,-3481.1514L13495.0781,-3481.1062L13495.0586,-3481.0536L13495.0482,-3481.0287L13495.0337,-3481.0139L13495.0279,-3481.0006L13495.0175,-3480.9834L13495.0065,-3480.9729L13495,-3480.9684L13494.9996,-3480.9681L13494.9863,-3480.9691L13494.9637,-3480.9744L13494.9264,-3480.9818L13494.9042,-3480.9863L13494.8787,-3480.9925L13494.8576,-3480.9996L13494.8061,-3481.0302L13494.7766,-3481.0431L13494.7546,-3481.0583L13494.7436,-3481.0602L13494.7367,-3481.0574L13494.7147,-3481.0431L13494.6754,-3481.0192L13494.6569,-3481.0125L13494.6441,-3481.0096L13494.6176,-3481.0106L13494.5881,-3481.0144L13494.5643,-3481.0173L13494.5626,-3481.0139L13494.5666,-3481.0039L13494.5746,-3480.9989L13494.5788,-3480.9963L13494.5863,-3480.9877L13494.5852,-3480.9758L13494.5776,-3480.9629L13494.5556,-3480.9362L13494.527,-3480.901L13494.494,-3480.8671L13494.4859,-3480.8521L13494.4807,-3480.8427L13494.4744,-3480.8333L13494.468,-3480.8237L13494.4408,-3480.7936L13494.4264,-3480.7812L13494.3969,-3480.7692L13494.365,-3480.7587L13494.3327,-3480.7449L13494.3026,-3480.7278L13494.2739,-3480.7042L13494.2551,-3480.6859L13494.2335,-3480.6649L13494.2224,-3480.6541L13494.2097,-3480.6374L13494.1895,-3480.6074L13494.1667,-3480.5855L13494.1611,-3480.5802L13494.1397,-3480.5639L13494.1276,-3480.5577L13494.1189,-3480.5587L13494.1108,-3480.5644L13494.105,-3480.5744L13494.0859,-3480.6203L13494.0749,-3480.647L13494.0663,-3480.667L13494.0582,-3480.6981L13494.0477,-3480.7525L13494.0394,-3480.7961L13494.0307,-3480.8257L13494.028,-3480.8333L13494.0251,-3480.8413L13494.0244,-3480.8434L13494.0145,-3480.8572L13494.0024,-3480.8658L13493.9804,-3480.8701L13493.9578,-3480.8772L13493.9254,-3480.8896L13493.8787,-3480.9056L13493.8457,-3480.9214L13493.7705,-3480.9576L13493.748,-3480.9672L13493.7046,-3481.0006L13493.6803,-3481.0144L13493.6502,-3481.0254L13493.5941,-3481.0392L13493.5633,-3481.0446L13493.5246,-3481.0532L13493.4621,-3481.0718L13493.4372,-3481.0809L13493.3672,-3481.1004L13493.3418,-3481.1052L13493.3333,-3481.1041L13493.3308,-3481.1038L13493.3004,-3481.0826L13493.2696,-3481.0612L13493.2403,-3481.0408L13493.2327,-3481.0389L13493.2229,-3481.0399L13493.1905,-3481.0494L13493.1253,-3481.0666L13493.0893,-3481.0761L13493.0406,-3481.0857L13493.0361,-3481.0866L13492.9504,-3481.1114L13492.9295,-3481.1057L13492.8948,-3481.0971L13492.8759,-3481.0903L13492.867,-3481.0871L13492.8138,-3481.0632L13492.7423,-3481.0347L13492.7201,-3481.079L13492.7079,-3481.1038L13492.6981,-3481.1239L13492.695,-3481.1295L13492.6784,-3481.1592L13492.6461,-3481.2274L13492.627,-3481.2756L13492.6154,-3481.2962L13492.5998,-3481.309L13492.5749,-3481.3281L13492.5587,-3481.342L13492.5506,-3481.3553L13492.5391,-3481.3779L13492.5269,-3481.4016L13492.5162,-3481.4152L13492.5,-3481.4269L13492.4983,-3481.4281L13492.4653,-3481.4481L13492.4572,-3481.4548L13492.4522,-3481.4639L13492.4486,-3481.4706L13492.441,-3481.4872L13492.4214,-3481.5044L13492.3884,-3481.5364L13492.3641,-3481.5526L13492.3467,-3481.5674L13492.3328,-3481.5832L13492.3261,-3481.5973L13492.3203,-3481.6112L13492.2975,-3481.6667L13492.2942,-3481.6746L13492.2867,-3481.6855L13492.2665,-3481.7003L13492.2387,-3481.717L13492.2294,-3481.7294L13492.2266,-3481.7428L13492.2237,-3481.7712L13492.226,-3481.8094L13492.2248,-3481.8237L13492.2231,-3481.8313L13492.2121,-3481.8361L13492.1971,-3481.8437L13492.1784,-3481.8564L13492.1739,-3481.8595L13492.1675,-3481.8671L13492.1716,-3481.8881L13492.167,-3481.8948L13492.1433,-3481.9096L13492.097,-3481.9329L13492.0721,-3481.9458L13492.0614,-3481.9561L13492.0533,-3481.9632L13492.0296,-3481.9771L13491.9891,-3481.9976L13492.0192,-3482.0429L13492.0226,-3482.0544L13492.0226,-3482.0697L13492.0197,-3482.0826L13492.0064,-3482.1071L13491.9839,-3482.1424L13491.9741,-3482.1658L13491.9729,-3482.1787L13491.9752,-3482.1921L13491.9995,-3482.2579L13492.0099,-3482.287L13492.0197,-3482.298L13492.0519,-3482.3241L13492.0556,-3482.3271L13492.0649,-3482.3412L13492.0718,-3482.3574L13492.0735,-3482.3707L13492.0735,-3482.3975L13492.0701,-3482.4194L13492.0666,-3482.4314L13492.0614,-3482.4342L13492.0533,-3482.4347L13492.0053,-3482.4252L13491.9677,-3482.4213L13491.9434,-3482.4213L13491.9226,-3482.4247L13491.8369,-3482.4466L13491.8181,-3482.4528L13491.8092,-3482.4557L13491.7895,-3482.4657L13491.7614,-3482.4879L13491.7467,-3482.5L13491.7436,-3482.5025L13491.7059,-3482.5332L13491.7013,-3482.549L13491.6973,-3482.5642L13491.6834,-3482.5752L13491.6667,-3482.5851L13491.6406,-3482.6005L13491.6105,-3482.6144L13491.5862,-3482.6229L13491.5579,-3482.6277L13491.5182,-3482.6301L13491.5032,-3482.6316L13491.4916,-3482.6301L13491.4801,-3482.6249L13491.4685,-3482.6139L13491.4344,-3482.5805L13491.4182,-3482.569L13491.3962,-3482.5447L13491.369,-3482.5242L13491.3557,-3482.5203L13491.3354,-3482.5199L13491.3181,-3482.5218L13491.299,-3482.5242L13491.2822,-3482.5299L13491.2109,-3482.57Z"/>
<path content="兵庫県,,,加東市,,28228" xlink:title="兵庫県" d="M13497.1076,-3489.2578L13497.0804,-3489.2472L13497.0461,-3489.226L13497.022,-3489.2087L13497.0041,-3489.1972L13496.9753,-3489.192L13496.9481,-3489.192L13496.9239,-3489.1946L13496.8983,-3489.1997L13496.8679,-3489.2023L13496.836,-3489.1984L13496.8103,-3489.1907L13496.8089,-3489.1907L13496.8002,-3489.1901L13496.7862,-3489.1997L13496.7768,-3489.2023L13496.7605,-3489.201L13496.7465,-3489.1946L13496.7442,-3489.1927L13496.7239,-3489.176L13496.717,-3489.1667L13496.7083,-3489.1548L13496.7006,-3489.1401L13496.6881,-3489.1247L13496.6772,-3489.1119L13496.6694,-3489.0958L13496.6667,-3489.089L13496.6601,-3489.0727L13496.6492,-3489.0477L13496.6321,-3489.0188L13496.6157,-3488.9938L13496.6064,-3488.9611L13496.6002,-3488.9291L13496.5932,-3488.9104L13496.5868,-3488.8887L13496.5838,-3488.8784L13496.5683,-3488.8527L13496.5535,-3488.8303L13496.5395,-3488.7995L13496.5369,-3488.795L13496.5262,-3488.7757L13496.5208,-3488.7507L13496.5231,-3488.7341L13496.5169,-3488.709L13496.5138,-3488.6841L13496.5122,-3488.6616L13496.4904,-3488.6244L13496.4741,-3488.6032L13496.4741,-3488.5846L13496.4749,-3488.5666L13496.4749,-3488.5436L13496.4663,-3488.5185L13496.463,-3488.5083L13496.4476,-3488.4608L13496.4181,-3488.4086L13496.4139,-3488.4012L13496.411,-3488.3961L13496.4017,-3488.3992L13496.3961,-3488.4017L13496.3869,-3488.4057L13496.3527,-3488.4153L13496.3137,-3488.4255L13496.2663,-3488.4345L13496.2635,-3488.4351L13496.2126,-3488.4467L13496.1878,-3488.4523L13496.1783,-3488.4544L13496.16,-3488.4571L13496.1309,-3488.4614L13496.1013,-3488.4717L13496.0756,-3488.4832L13496.0523,-3488.5019L13496.0211,-3488.5198L13495.9814,-3488.5506L13495.9693,-3488.5587L13495.9487,-3488.5724L13495.9192,-3488.5904L13495.9044,-3488.5994L13495.8782,-3488.6106L13495.8686,-3488.6147L13495.8333,-3488.6278L13495.8094,-3488.6366L13495.7658,-3488.6501L13495.7285,-3488.6577L13495.6927,-3488.6635L13495.66,-3488.6654L13495.6063,-3488.6654L13495.5503,-3488.652L13495.5306,-3488.6444L13495.5152,-3488.6385L13495.4926,-3488.618L13495.4709,-3488.5904L13495.4571,-3488.5568L13495.4459,-3488.5294L13495.4117,-3488.4409L13495.3902,-3488.3937L13495.3703,-3488.3498L13495.3628,-3488.3333L13495.3604,-3488.3281L13495.3529,-3488.3297L13495.3363,-3488.3333L13495.3136,-3488.3383L13495.2828,-3488.3449L13495.2592,-3488.3499L13495.2218,-3488.3588L13495.1922,-3488.3704L13495.179,-3488.3774L13495.1657,-3488.3845L13495.1479,-3488.3954L13495.1237,-3488.4011L13495.1027,-3488.4018L13495.0778,-3488.4018L13495.0521,-3488.405L13495.0264,-3488.4185L13495.0246,-3488.419L13495.007,-3488.4242L13495,-3488.424L13494.986,-3488.4236L13494.9809,-3488.4224L13494.9603,-3488.4175L13494.9509,-3488.4153L13494.932,-3488.4121L13494.9134,-3488.4095L13494.8488,-3488.4089L13494.8371,-3488.4371L13494.7927,-3488.4307L13494.7694,-3488.4448L13494.7429,-3488.4537L13494.7126,-3488.4621L13494.6947,-3488.43L13494.6845,-3488.4313L13494.6752,-3488.4287L13494.6589,-3488.4223L13494.6536,-3488.4223L13494.6425,-3488.4223L13494.62,-3488.4268L13494.5927,-3488.4441L13494.5577,-3488.4621L13494.5325,-3488.4734L13494.5219,-3488.4781L13494.4783,-3488.489L13494.3873,-3488.5083L13494.3398,-3488.5185L13494.3195,-3488.5192L13494.2915,-3488.5166L13494.2579,-3488.5257L13494.2207,-3488.5359L13494.195,-3488.5166L13494.1667,-3488.4794L13494.1662,-3488.4788L13494.1219,-3488.4865L13494.1115,-3488.4697L13494.0829,-3488.4236L13494.0689,-3488.3928L13494.0549,-3488.3755L13494.0401,-3488.3633L13494.0027,-3488.3479L13493.9704,-3488.3333L13493.9701,-3488.3332L13493.9311,-3488.2998L13493.8868,-3488.2459L13493.865,-3488.2344L13493.8486,-3488.2389L13493.7973,-3488.2498L13493.7724,-3488.2516L13493.7615,-3488.2524L13493.6922,-3488.2543L13493.604,-3488.2412L13493.5755,-3488.237L13493.5731,-3488.2365L13493.4541,-3488.2126L13493.4379,-3488.2082L13493.3856,-3488.194L13493.3404,-3488.176L13493.3333,-3488.1725L13493.3077,-3488.16L13493.261,-3488.1253L13493.2229,-3488.0933L13493.2102,-3488.0894L13493.1972,-3488.0856L13493.1373,-3488.0702L13493.132,-3488.0687L13493.0664,-3488.0503L13493.0011,-3488.0317L13492.9732,-3488.0203L13492.8929,-3487.9874L13492.8944,-3488.0432L13492.9029,-3488.1049L13492.903,-3488.1061L13492.9139,-3488.1587L13492.9373,-3488.2209L13492.9754,-3488.3088L13492.9878,-3488.3333L13493.0478,-3488.4525L13493.0515,-3488.4594L13493.0665,-3488.4877L13493.0961,-3488.5352L13493.1319,-3488.5724L13493.1941,-3488.6327L13493.2735,-3488.7007L13493.2777,-3488.7046L13493.3124,-3488.7366L13493.3333,-3488.7548L13493.3973,-3488.8104L13493.4577,-3488.8646L13493.4767,-3488.8816L13493.5366,-3488.9496L13493.5662,-3488.9932L13493.6051,-3489.0637L13493.6284,-3489.1221L13493.6414,-3489.1667L13493.6465,-3489.1841L13493.651,-3489.1997L13493.6633,-3489.238L13493.6696,-3489.2578Z"/>
</g>
</svg>
