<?xml version="1.0" encoding="UTF-8"?>
<svg  xmlns="http://www.w3.org/2000/svg" xmlns:xlink="http://www.w3.org/1999/xlink" xmlns:go="http://purl.org/svgmap/profile" property="geometry,N03_001,N03_002,N03_003,N03_004,N03_005,N03_007" viewBox="13535.15625 -3515.625 8.7890625 8.7890625" go:dataArea="13535.15625 -3515.625 8.7890625 8.7890625" >
<metadata>
 <rdf:RDF xmlns:rdf="http://www.w3.org/1999/02/22-rdf-syntax-ns#" xmlns:crs="http://opengis.org/xmldtds/transformations.dtd" xmlns:svg="http://www.w3.org/svg" >
  <rdf:Description>
   <crs:CoordinateReferenceSystem rdf:resource="http://purl.org/crs/84" svg:transform="matrix(100.0,0.0,0.0,-100.0,0.0,0.0)" />
  </rdf:Description>
 </rdf:RDF>
</metadata>
<globalCoordinateSystem srsName="http://purl.org/crs/84" transform="matrix(100.0,0.0,0.0,-100.0,0.0,0.0)" />
<defs>
 <g id="p0" >
  <circle cx="0.0" cy="0.0" r="3" stroke="green" stroke-width="2.0" vector-effect="non-scaling-stroke" />
 </g>
</defs>
<g fill="#0000ff" fill-rule="evenodd" opacity="0.5" >
<path content="京都府,,,南丹市,,26213" xlink:title="京都府" d="M13543.9453,-3506.8359L13538.1274,-3506.8359L13538.1339,-3506.8377L13538.1581,-3506.8477L13538.1805,-3506.8573L13538.2107,-3506.8679L13538.2253,-3506.878L13538.2404,-3506.8885L13538.2612,-3506.9069L13538.2754,-3506.9283L13538.2791,-3506.9342L13538.2879,-3506.9485L13538.2996,-3506.9613L13538.3052,-3506.9687L13538.3091,-3506.9772L13538.3145,-3506.9938L13538.3155,-3506.9971L13538.3224,-3507.0304L13538.3311,-3507.0407L13538.3333,-3507.0429L13538.3375,-3507.047L13538.3401,-3507.0496L13538.4174,-3507.0549L13538.4403,-3507.0627L13538.4584,-3507.0702L13538.5257,-3507.0915L13538.5486,-3507.1025L13538.5736,-3507.1135L13538.5835,-3507.1209L13538.5883,-3507.1273L13538.5934,-3507.1376L13538.5982,-3507.149L13538.6034,-3507.1568L13538.6051,-3507.1593L13538.6267,-3507.1802L13538.6482,-3507.1976L13538.6534,-3507.2026L13538.6582,-3507.2125L13538.662,-3507.2242L13538.6651,-3507.2359L13538.6676,-3507.2437L13538.6746,-3507.2487L13538.6797,-3507.2501L13538.7074,-3507.2544L13538.7099,-3507.2536L13538.7367,-3507.2455L13538.76,-3507.2327L13538.7695,-3507.2281L13538.7794,-3507.2281L13538.7889,-3507.2292L13538.8014,-3507.2324L13538.8325,-3507.2338L13538.8623,-3507.2278L13538.9157,-3507.2125L13538.9266,-3507.21L13538.9313,-3507.2107L13538.9361,-3507.2139L13538.9443,-3507.2309L13538.9429,-3507.2533L13538.9443,-3507.2718L13538.9473,-3507.2824L13538.9473,-3507.2898L13538.9399,-3507.3016L13538.9533,-3507.303L13538.9814,-3507.2991L13539.0154,-3507.292L13539.0444,-3507.2835L13539.0651,-3507.275L13539.0758,-3507.2728L13539.0853,-3507.2743L13539.1069,-3507.2828L13539.1354,-3507.2838L13539.1665,-3507.2693L13539.1667,-3507.2692L13539.182,-3507.2661L13539.1918,-3507.2661L13539.1936,-3507.2661L13539.2023,-3507.2686L13539.2165,-3507.2703L13539.2303,-3507.276L13539.2515,-3507.2909L13539.2787,-3507.3001L13539.3477,-3507.3072L13539.3693,-3507.3196L13539.3852,-3507.3441L13539.4094,-3507.3935L13539.4129,-3507.4166L13539.4154,-3507.4389L13539.4146,-3507.4446L13539.418,-3507.4549L13539.4258,-3507.4769L13539.4314,-3507.4886L13539.4396,-3507.4968L13539.4482,-3507.5L13539.4659,-3507.5067L13539.4905,-3507.5152L13539.4979,-3507.5202L13539.5074,-3507.5262L13539.5147,-3507.534L13539.5276,-3507.5507L13539.5341,-3507.5553L13539.5591,-3507.5738L13539.5906,-3507.5805L13539.617,-3507.5844L13539.6355,-3507.5848L13539.6545,-3507.5826L13539.6795,-3507.5752L13539.7067,-3507.5702L13539.7223,-3507.5688L13539.733,-3507.5709L13539.7447,-3507.5745L13539.7507,-3507.5812L13539.7637,-3507.5936L13539.7827,-3507.6117L13539.8142,-3507.6206L13539.8349,-3507.6241L13539.8513,-3507.6245L13539.8681,-3507.6238L13539.8793,-3507.6213L13539.91,-3507.6156L13539.9406,-3507.6114L13539.9535,-3507.6099L13539.963,-3507.6117L13539.9651,-3507.6134L13539.9686,-3507.6163L13539.9712,-3507.6227L13539.9708,-3507.638L13539.9665,-3507.6589L13539.9707,-3507.6828L13539.9708,-3507.6831L13539.9794,-3507.6987L13540,-3507.7301L13540.0036,-3507.7356L13540.0135,-3507.7611L13540.004,-3507.7853L13540,-3507.7927L13539.9971,-3507.7981L13539.9707,-3507.8358L13539.9557,-3507.857L13539.9531,-3507.8811L13539.9609,-3507.8953L13539.9647,-3507.9052L13539.9652,-3507.9173L13539.966,-3507.9382L13539.9678,-3507.9599L13539.9669,-3507.9851L13539.9609,-3508.0092L13539.9505,-3508.0351L13539.9393,-3508.0614L13539.9337,-3508.0823L13539.9307,-3508.0979L13539.9276,-3508.1047L13539.913,-3508.1164L13539.9084,-3508.1207L13539.8987,-3508.1299L13539.875,-3508.1462L13539.8689,-3508.1707L13539.8845,-3508.1906L13539.897,-3508.2015L13539.9151,-3508.2143L13539.9358,-3508.2296L13539.9518,-3508.2452L13539.9634,-3508.2608L13539.9716,-3508.2757L13539.9781,-3508.2885L13539.9799,-3508.2959L13539.9837,-3508.3165L13539.9837,-3508.3333L13539.9837,-3508.3421L13539.9829,-3508.3964L13539.9824,-3508.4188L13539.985,-3508.4436L13539.9919,-3508.4965L13539.9911,-3508.5077L13539.9902,-3508.5195L13539.9971,-3508.5426L13540,-3508.5556L13540.0057,-3508.5816L13540.0109,-3508.5958L13540.0373,-3508.6093L13540.064,-3508.6224L13540.0817,-3508.6285L13540.0942,-3508.6356L13540.1028,-3508.6413L13540.1063,-3508.6547L13540.1122,-3508.6712L13540.1245,-3508.7064L13540.1417,-3508.7303L13540.1485,-3508.7398L13540.1589,-3508.7632L13540.1742,-3508.7734L13540.1847,-3508.7761L13540.1996,-3508.7799L13540.2257,-3508.7823L13540.2548,-3508.796L13540.2795,-3508.8199L13540.2984,-3508.8216L13540.3267,-3508.8139L13540.3483,-3508.8188L13540.3904,-3508.8438L13540.4253,-3508.8689L13540.4347,-3508.885L13540.4281,-3508.8993L13540.3984,-3508.9202L13540.3123,-3508.9666L13540.2658,-3508.9911L13540.2446,-3509.0043L13540.1961,-3509.0346L13540.1729,-3509.0501L13540.1613,-3509.0614L13540.1542,-3509.0887L13540.1462,-3509.1108L13540.1433,-3509.1323L13540.1404,-3509.1543L13540.142,-3509.1667L13540.144,-3509.1812L13540.1404,-3509.2051L13540.1309,-3509.2235L13540.0951,-3509.3129L13540.0682,-3509.3821L13540.0624,-3509.3921L13540.0442,-3509.4088L13540.044,-3509.4089L13540.0137,-3509.4213L13540,-3509.4245L13539.9825,-3509.4285L13539.9164,-3509.4386L13539.8547,-3509.4529L13539.8032,-3509.4774L13539.7822,-3509.4887L13539.7604,-3509.5042L13539.7567,-3509.5162L13539.7618,-3509.5388L13539.7595,-3509.5641L13539.7319,-3509.585L13539.7109,-3509.5921L13539.6687,-3509.5928L13539.6448,-3509.5969L13539.615,-3509.6154L13539.5838,-3509.6309L13539.5547,-3509.6405L13539.5068,-3509.653L13539.4743,-3509.6704L13539.3712,-3509.7115L13539.3327,-3509.7235L13539.3139,-3509.7229L13539.266,-3509.7157L13539.2326,-3509.7145L13539.205,-3509.7157L13539.1977,-3509.7271L13539.1825,-3509.7628L13539.1667,-3509.7928L13539.1614,-3509.8028L13539.1666,-3509.8086L13539.1667,-3509.8087L13539.1913,-3509.8188L13539.2313,-3509.8236L13539.2871,-3509.8319L13539.3321,-3509.8427L13539.3568,-3509.8516L13539.3714,-3509.8522L13539.4178,-3509.8611L13539.4396,-3509.8844L13539.457,-3509.9136L13539.4861,-3509.9476L13539.5231,-3509.9858L13539.5348,-3510L13539.5463,-3510.0138L13539.5848,-3510.0604L13539.6014,-3510.0755L13539.6124,-3510.0854L13539.6378,-3510.0961L13539.6603,-3510.1003L13539.6828,-3510.0973L13539.7024,-3510.0914L13539.7235,-3510.086L13539.7431,-3510.083L13539.7532,-3510.0878L13539.7677,-3510.1009L13539.7827,-3510.1223L13539.7885,-3510.1348L13539.8023,-3510.1557L13539.8248,-3510.1688L13539.8386,-3510.1861L13539.8495,-3510.2195L13539.8459,-3510.2404L13539.8415,-3510.2624L13539.8437,-3510.2738L13539.8604,-3510.2941L13539.8626,-3510.3137L13539.8647,-3510.3346L13539.8647,-3510.3459L13539.8727,-3510.3764L13539.8996,-3510.3948L13539.9271,-3510.4133L13539.9424,-3510.4366L13539.9526,-3510.4527L13539.9627,-3510.4634L13539.9758,-3510.4682L13540,-3510.4678L13540.0128,-3510.4676L13540.031,-3510.4712L13540.0475,-3510.4742L13540.0635,-3510.4849L13540.086,-3510.4968L13540.0991,-3510.4974L13540.1201,-3510.4909L13540.1404,-3510.4861L13540.1543,-3510.4867L13540.1673,-3510.4939L13540.1804,-3510.5118L13540.1992,-3510.5296L13540.2239,-3510.5338L13540.2755,-3510.5386L13540.3111,-3510.5386L13540.3306,-3510.5375L13540.3314,-3510.5374L13540.38,-3510.5541L13540.4004,-3510.5565L13540.4192,-3510.5541L13540.4323,-3510.5565L13540.4497,-3510.5261L13540.4613,-3510.5255L13540.4838,-3510.5296L13540.518,-3510.5332L13540.5397,-3510.5338L13540.5601,-3510.5326L13540.5804,-3510.5285L13540.5956,-3510.5273L13540.6181,-3510.535L13540.6334,-3510.5416L13540.6639,-3510.5607L13540.6838,-3510.5668L13540.707,-3510.5709L13540.7361,-3510.5781L13540.7527,-3510.5876L13540.7803,-3510.6007L13540.7985,-3510.6031L13540.8333,-3510.6149L13540.8442,-3510.6186L13540.8631,-3510.6306L13540.8791,-3510.6353L13540.8972,-3510.6413L13540.9313,-3510.6431L13540.9575,-3510.6389L13540.9843,-3510.6347L13541.017,-3510.6443L13541.0584,-3510.6556L13541.0787,-3510.6634L13541.0918,-3510.6795L13541.1114,-3510.689L13541.1361,-3510.6974L13541.1484,-3510.7105L13541.1738,-3510.7343L13541.1905,-3510.7367L13541.2181,-3510.7338L13541.2457,-3510.7242L13541.2551,-3510.7153L13541.2667,-3510.7021L13541.2805,-3510.6962L13541.3001,-3510.6926L13541.3104,-3510.6917L13541.3205,-3510.6908L13541.345,-3510.6926L13541.4111,-3510.6986L13541.4365,-3510.7015L13541.4561,-3510.6968L13541.4713,-3510.6854L13541.4859,-3510.6747L13541.4997,-3510.6675L13541.512,-3510.6699L13541.5323,-3510.6783L13541.5584,-3510.6824L13541.5737,-3510.6771L13541.6078,-3510.6455L13541.6296,-3510.6353L13541.647,-3510.6282L13541.6594,-3510.6222L13541.6667,-3510.6177L13541.6804,-3510.6091L13541.7058,-3510.5942L13541.7065,-3510.5941L13541.7283,-3510.5894L13541.7453,-3510.5886L13541.7882,-3510.5868L13541.8179,-3510.5838L13541.8557,-3510.5743L13541.8789,-3510.5618L13541.8913,-3510.5451L13541.9356,-3510.4938L13541.9668,-3510.4747L13541.9936,-3510.4645L13542.0205,-3510.4609L13542.0416,-3510.4556L13542.0575,-3510.4556L13542.0895,-3510.4627L13542.1098,-3510.4651L13542.1246,-3510.4645L13542.1381,-3510.4639L13542.1628,-3510.4717L13542.1671,-3510.477L13542.1679,-3510.5594L13542.1707,-3510.5788L13542.1722,-3510.5886L13542.1816,-3510.5987L13542.2005,-3510.6023L13542.2209,-3510.6095L13542.2376,-3510.6256L13542.2601,-3510.6488L13542.3165,-3510.712L13542.3303,-3510.7335L13542.3601,-3510.7657L13542.3753,-3510.7788L13542.4087,-3510.8087L13542.4131,-3510.8333L13542.416,-3510.8498L13542.4196,-3510.8653L13542.4231,-3510.8872L13542.4319,-3510.9423L13542.4399,-3510.9733L13542.4523,-3511.0001L13542.4849,-3511.027L13542.4907,-3511.0443L13542.4907,-3511.0663L13542.4842,-3511.0783L13542.4653,-3511.1379L13542.4544,-3511.1683L13542.4639,-3511.1761L13542.4842,-3511.1797L13542.5,-3511.1794L13542.5213,-3511.1791L13542.5452,-3511.1797L13542.559,-3511.1844L13542.5844,-3511.2083L13542.604,-3511.2224L13542.6439,-3511.2492L13542.6711,-3511.2687L13542.678,-3511.2737L13542.7006,-3511.2874L13542.7129,-3511.3029L13542.7252,-3511.3327L13542.7303,-3511.353L13542.7521,-3511.3912L13542.7569,-3511.4004L13542.7673,-3511.4203L13542.7717,-3511.4399L13542.763,-3511.4561L13542.7419,-3511.4978L13542.7187,-3511.5336L13542.6998,-3511.5628L13542.6889,-3511.5754L13542.6715,-3511.5998L13542.6773,-3511.6374L13542.6737,-3511.6541L13542.6687,-3511.6667L13542.6649,-3511.6762L13542.6563,-3511.6839L13542.6483,-3511.6911L13542.6185,-3511.7119L13542.5825,-3511.7462L13542.5636,-3511.7742L13542.5629,-3511.7838L13542.5846,-3511.8034L13542.5919,-3511.8398L13542.5999,-3511.8714L13542.6079,-3511.8852L13542.6347,-3511.9019L13542.6594,-3511.9102L13542.6928,-3511.9406L13542.7088,-3511.952L13542.724,-3511.9621L13542.7473,-3511.9919L13542.7516,-3512.0092L13542.7549,-3512.0323L13542.7553,-3512.0349L13542.7639,-3512.0516L13542.7828,-3512.0569L13542.7895,-3512.0669L13542.8024,-3512.0862L13542.8083,-3512.0927L13542.8148,-3512.1053L13542.8271,-3512.1148L13542.8808,-3512.1363L13542.9201,-3512.1554L13542.9287,-3512.1565L13542.9571,-3512.1393L13542.9745,-3512.1273L13542.9897,-3512.1202L13542.9926,-3512.0999L13542.9984,-3512.0909L13543.0195,-3512.0796L13543.0413,-3512.0694L13543.058,-3512.0623L13543.0609,-3512.051L13543.0761,-3512.0241L13543.0906,-3512.0051L13543.1277,-3511.9705L13543.1386,-3511.9579L13543.1502,-3511.9388L13543.1596,-3511.9317L13543.1749,-3511.9341L13543.1916,-3511.94L13543.1996,-3511.9502L13543.2177,-3511.9591L13543.2293,-3511.9591L13543.2526,-3511.9597L13543.2794,-3511.9663L13543.3041,-3511.9716L13543.3333,-3511.9792L13543.3687,-3511.9883L13543.3884,-3511.9937L13543.4283,-3511.9991L13543.4377,-3511.9925L13543.4515,-3511.9818L13543.4624,-3511.9716L13543.4733,-3511.9579L13543.4994,-3511.943L13543.5154,-3511.943L13543.5292,-3511.949L13543.5437,-3511.9597L13543.5669,-3511.9657L13543.5929,-3511.9656L13543.6967,-3511.9654L13543.7098,-3511.966L13543.728,-3511.9726L13543.7527,-3511.9953L13543.765,-3512.0096L13543.7867,-3512.037L13543.7955,-3512.0567L13543.8071,-3512.0704L13543.8216,-3512.0853L13543.8376,-3512.0895L13543.8659,-3512.0967L13543.882,-3512.1064L13543.9205,-3512.1601L13543.9365,-3512.175L13543.9453,-3512.1785Z"/>
<path content="京都府,,船井郡,京丹波町,,26407" xlink:title="京都府" d="M13543.9453,-3515.625L13543.9453,-3512.1785L13543.9365,-3512.175L13543.9205,-3512.1601L13543.882,-3512.1064L13543.8659,-3512.0967L13543.8376,-3512.0895L13543.8216,-3512.0853L13543.8071,-3512.0704L13543.7955,-3512.0567L13543.7867,-3512.037L13543.765,-3512.0096L13543.7527,-3511.9953L13543.728,-3511.9726L13543.7098,-3511.966L13543.6967,-3511.9654L13543.5929,-3511.9656L13543.5669,-3511.9657L13543.5437,-3511.9597L13543.5292,-3511.949L13543.5154,-3511.943L13543.4994,-3511.943L13543.4733,-3511.9579L13543.4624,-3511.9716L13543.4515,-3511.9818L13543.4377,-3511.9925L13543.4283,-3511.9991L13543.3884,-3511.9937L13543.3687,-3511.9883L13543.3333,-3511.9792L13543.3041,-3511.9716L13543.2794,-3511.9663L13543.2526,-3511.9597L13543.2293,-3511.9591L13543.2177,-3511.9591L13543.1996,-3511.9502L13543.1916,-3511.94L13543.1749,-3511.9341L13543.1596,-3511.9317L13543.1502,-3511.9388L13543.1386,-3511.9579L13543.1277,-3511.9705L13543.0906,-3512.0051L13543.0761,-3512.0241L13543.0609,-3512.051L13543.058,-3512.0623L13543.0413,-3512.0694L13543.0195,-3512.0796L13542.9984,-3512.0909L13542.9926,-3512.0999L13542.9897,-3512.1202L13542.9745,-3512.1273L13542.9571,-3512.1393L13542.9287,-3512.1565L13542.9201,-3512.1554L13542.8808,-3512.1363L13542.8271,-3512.1148L13542.8148,-3512.1053L13542.8083,-3512.0927L13542.8024,-3512.0862L13542.7895,-3512.0669L13542.7828,-3512.0569L13542.7639,-3512.0516L13542.7553,-3512.0349L13542.7549,-3512.0323L13542.7516,-3512.0092L13542.7473,-3511.9919L13542.724,-3511.9621L13542.7088,-3511.952L13542.6928,-3511.9406L13542.6594,-3511.9102L13542.6347,-3511.9019L13542.6079,-3511.8852L13542.5999,-3511.8714L13542.5919,-3511.8398L13542.5846,-3511.8034L13542.5629,-3511.7838L13542.5636,-3511.7742L13542.5825,-3511.7462L13542.6185,-3511.7119L13542.6483,-3511.6911L13542.6563,-3511.6839L13542.6649,-3511.6762L13542.6687,-3511.6667L13542.6737,-3511.6541L13542.6773,-3511.6374L13542.6715,-3511.5998L13542.6889,-3511.5754L13542.6998,-3511.5628L13542.7187,-3511.5336L13542.7419,-3511.4978L13542.763,-3511.4561L13542.7717,-3511.4399L13542.7673,-3511.4203L13542.7569,-3511.4004L13542.7521,-3511.3912L13542.7303,-3511.353L13542.7252,-3511.3327L13542.7129,-3511.3029L13542.7006,-3511.2874L13542.678,-3511.2737L13542.6711,-3511.2687L13542.6439,-3511.2492L13542.604,-3511.2224L13542.5844,-3511.2083L13542.559,-3511.1844L13542.5452,-3511.1797L13542.5213,-3511.1791L13542.5,-3511.1794L13542.4842,-3511.1797L13542.4639,-3511.1761L13542.4544,-3511.1683L13542.4653,-3511.1379L13542.4842,-3511.0783L13542.4907,-3511.0663L13542.4907,-3511.0443L13542.4849,-3511.027L13542.4523,-3511.0001L13542.4399,-3510.9733L13542.4319,-3510.9423L13542.4231,-3510.8872L13542.4196,-3510.8653L13542.416,-3510.8498L13542.4131,-3510.8333L13542.4087,-3510.8087L13542.3753,-3510.7788L13542.3601,-3510.7657L13542.3303,-3510.7335L13542.3165,-3510.712L13542.2601,-3510.6488L13542.2376,-3510.6256L13542.2209,-3510.6095L13542.2005,-3510.6023L13542.1816,-3510.5987L13542.1722,-3510.5886L13542.1707,-3510.5788L13542.1679,-3510.5594L13542.1671,-3510.477L13542.1628,-3510.4717L13542.1381,-3510.4639L13542.1246,-3510.4645L13542.1098,-3510.4651L13542.0895,-3510.4627L13542.0575,-3510.4556L13542.0416,-3510.4556L13542.0205,-3510.4609L13541.9936,-3510.4645L13541.9668,-3510.4747L13541.9356,-3510.4938L13541.8913,-3510.5451L13541.8789,-3510.5618L13541.8557,-3510.5743L13541.8179,-3510.5838L13541.7882,-3510.5868L13541.7453,-3510.5886L13541.7283,-3510.5894L13541.7065,-3510.5941L13541.7058,-3510.5942L13541.6804,-3510.6091L13541.6667,-3510.6177L13541.6594,-3510.6222L13541.647,-3510.6282L13541.6296,-3510.6353L13541.6078,-3510.6455L13541.5737,-3510.6771L13541.5584,-3510.6824L13541.5323,-3510.6783L13541.512,-3510.6699L13541.4997,-3510.6675L13541.4859,-3510.6747L13541.4713,-3510.6854L13541.4561,-3510.6968L13541.4365,-3510.7015L13541.4111,-3510.6986L13541.345,-3510.6926L13541.3205,-3510.6908L13541.3104,-3510.6917L13541.3001,-3510.6926L13541.2805,-3510.6962L13541.2667,-3510.7021L13541.2551,-3510.7153L13541.2457,-3510.7242L13541.2181,-3510.7338L13541.1905,-3510.7367L13541.1738,-3510.7343L13541.1484,-3510.7105L13541.1361,-3510.6974L13541.1114,-3510.689L13541.0918,-3510.6795L13541.0787,-3510.6634L13541.0584,-3510.6556L13541.017,-3510.6443L13540.9843,-3510.6347L13540.9575,-3510.6389L13540.9313,-3510.6431L13540.8972,-3510.6413L13540.8791,-3510.6353L13540.8631,-3510.6306L13540.8442,-3510.6186L13540.8333,-3510.6149L13540.7985,-3510.6031L13540.7803,-3510.6007L13540.7527,-3510.5876L13540.7361,-3510.5781L13540.707,-3510.5709L13540.6838,-3510.5668L13540.6639,-3510.5607L13540.6334,-3510.5416L13540.6181,-3510.535L13540.5956,-3510.5273L13540.5804,-3510.5285L13540.5601,-3510.5326L13540.5397,-3510.5338L13540.518,-3510.5332L13540.4838,-3510.5296L13540.4613,-3510.5255L13540.4497,-3510.5261L13540.4323,-3510.5565L13540.4192,-3510.5541L13540.4004,-3510.5565L13540.38,-3510.5541L13540.3314,-3510.5374L13540.3306,-3510.5375L13540.3111,-3510.5386L13540.2755,-3510.5386L13540.2239,-3510.5338L13540.1992,-3510.5296L13540.1804,-3510.5118L13540.1673,-3510.4939L13540.1543,-3510.4867L13540.1404,-3510.4861L13540.1201,-3510.4909L13540.0991,-3510.4974L13540.086,-3510.4968L13540.0635,-3510.4849L13540.0475,-3510.4742L13540.031,-3510.4712L13540.0128,-3510.4676L13540,-3510.4678L13539.9758,-3510.4682L13539.9627,-3510.4634L13539.9526,-3510.4527L13539.9424,-3510.4366L13539.9271,-3510.4133L13539.8996,-3510.3948L13539.8727,-3510.3764L13539.8647,-3510.3459L13539.8647,-3510.3346L13539.8626,-3510.3137L13539.8604,-3510.2941L13539.8437,-3510.2738L13539.8415,-3510.2624L13539.8459,-3510.2404L13539.8495,-3510.2195L13539.8386,-3510.1861L13539.8248,-3510.1688L13539.8023,-3510.1557L13539.7885,-3510.1348L13539.7827,-3510.1223L13539.7677,-3510.1009L13539.7532,-3510.0878L13539.7431,-3510.083L13539.7235,-3510.086L13539.7024,-3510.0914L13539.6828,-3510.0973L13539.6603,-3510.1003L13539.6378,-3510.0961L13539.6124,-3510.0854L13539.6014,-3510.0755L13539.5848,-3510.0604L13539.5463,-3510.0138L13539.5348,-3510L13539.5231,-3509.9858L13539.4861,-3509.9476L13539.457,-3509.9136L13539.4396,-3509.8844L13539.4178,-3509.8611L13539.3714,-3509.8522L13539.3568,-3509.8516L13539.3321,-3509.8427L13539.2871,-3509.8319L13539.2313,-3509.8236L13539.1913,-3509.8188L13539.1667,-3509.8087L13539.1666,-3509.8086L13539.1614,-3509.8028L13539.1322,-3509.8151L13539.109,-3509.8199L13539.0785,-3509.836L13539.0734,-3509.8473L13539.0676,-3509.8724L13539.0509,-3509.8795L13539.0001,-3509.8795L13538.9674,-3509.8729L13538.9456,-3509.8586L13538.918,-3509.8276L13538.9132,-3509.8093L13538.9079,-3509.7894L13538.9035,-3509.7543L13538.8832,-3509.7179L13538.8571,-3509.7L13538.8237,-3509.6881L13538.8128,-3509.6922L13538.8026,-3509.7125L13538.8026,-3509.7383L13538.8026,-3509.7692L13538.8033,-3509.8204L13538.7866,-3509.864L13538.7685,-3509.9153L13538.7683,-3509.9174L13538.7649,-3509.9469L13538.767,-3509.9624L13538.7736,-3509.9821L13538.7803,-3510L13538.7837,-3510.0089L13538.7808,-3510.0328L13538.7873,-3510.0532L13538.8011,-3510.0705L13538.8294,-3510.0943L13538.8353,-3510.1212L13538.838,-3510.1317L13538.8411,-3510.1433L13538.857,-3510.1941L13538.8592,-3510.2376L13538.8541,-3510.301L13538.8607,-3510.3213L13538.8745,-3510.3374L13538.8875,-3510.3568L13538.8926,-3510.3794L13538.9027,-3510.404L13538.9216,-3510.4237L13538.9449,-3510.4356L13538.9688,-3510.4619L13538.9841,-3510.4883L13538.9804,-3510.5109L13538.9521,-3510.5485L13538.9049,-3510.5652L13538.8897,-3510.5758L13538.8861,-3510.5973L13538.8917,-3510.6163L13538.902,-3510.651L13538.902,-3510.6688L13538.8984,-3510.6856L13538.8947,-3510.7191L13538.902,-3510.7322L13538.9151,-3510.7435L13538.9238,-3510.7626L13538.9245,-3510.7839L13538.9173,-3510.8333L13538.9173,-3510.8334L13538.9281,-3510.8405L13538.9506,-3510.8484L13538.9746,-3510.8597L13538.9891,-3510.8693L13539.0058,-3510.9021L13539.0144,-3510.9129L13539.0225,-3510.9233L13539.0487,-3510.9329L13539.0661,-3510.9364L13539.09,-3510.9376L13539.114,-3510.9448L13539.1379,-3510.9543L13539.1667,-3510.9675L13539.1763,-3510.9719L13539.2249,-3510.9857L13539.259,-3510.9923L13539.2844,-3511.0042L13539.3199,-3511.0317L13539.3315,-3511.0508L13539.3344,-3511.0794L13539.3351,-3511.1275L13539.3354,-3511.1324L13539.3366,-3511.1508L13539.3329,-3511.1778L13539.3249,-3511.1968L13539.2967,-3511.2298L13539.2937,-3511.2332L13539.277,-3511.2479L13539.2451,-3511.2798L13539.2371,-3511.2948L13539.2342,-3511.3156L13539.2284,-3511.3434L13539.2175,-3511.3595L13539.1667,-3511.3777L13539.1558,-3511.3816L13539.1398,-3511.4008L13539.1276,-3511.4229L13539.1015,-3511.4509L13539.0688,-3511.4545L13539.0521,-3511.4545L13538.9671,-3511.467L13538.9521,-3511.4723L13538.9457,-3511.4745L13538.9359,-3511.4779L13538.9076,-3511.497L13538.8916,-3511.5107L13538.8909,-3511.5274L13538.8902,-3511.5387L13538.8742,-3511.5507L13538.8572,-3511.5621L13538.7643,-3511.6128L13538.7222,-3511.6487L13538.7141,-3511.6667L13538.7098,-3511.6761L13538.7055,-3511.7054L13538.696,-3511.7359L13538.6684,-3511.7574L13538.6546,-3511.7705L13538.6539,-3511.7926L13538.6597,-3511.821L13538.6539,-3511.8746L13538.65,-3511.8896L13538.6481,-3511.8968L13538.6242,-3511.9278L13538.6082,-3511.9618L13538.5966,-3511.9986L13538.5915,-3512.0311L13538.5966,-3512.0544L13538.6074,-3512.0736L13538.6416,-3512.0999L13538.6822,-3512.1386L13538.7004,-3512.1503L13538.7272,-3512.1634L13538.757,-3512.1778L13538.7736,-3512.1899L13538.7766,-3512.1921L13538.8056,-3512.222L13538.8165,-3512.2441L13538.8376,-3512.2638L13538.8608,-3512.2709L13538.8688,-3512.2757L13538.8942,-3512.3059L13538.9254,-3512.3498L13538.9305,-3512.3617L13538.9349,-3512.4092L13538.9414,-3512.4537L13538.9486,-3512.4759L13538.9595,-3512.5L13538.9639,-3512.5099L13538.9603,-3512.5254L13538.9508,-3512.5498L13538.9566,-3512.5639L13538.9682,-3512.5812L13538.9951,-3512.5937L13539.025,-3512.5941L13539.0388,-3512.5971L13539.07,-3512.6138L13539.0874,-3512.6263L13539.1085,-3512.6406L13539.1204,-3512.6484L13539.0659,-3512.7159L13539.0071,-3512.7816L13539.0021,-3512.8025L13538.981,-3512.8765L13538.9636,-3512.8843L13538.9309,-3512.8884L13538.9226,-3512.8906L13538.8503,-3512.9091L13538.7973,-3512.9186L13538.724,-3512.9288L13538.6978,-3512.9431L13538.6826,-3512.9509L13538.6383,-3512.9503L13538.6142,-3512.9479L13538.5866,-3512.9413L13538.5213,-3512.9198L13538.5061,-3512.9157L13538.4705,-3512.9091L13538.4138,-3512.9103L13538.3928,-3512.9139L13538.3397,-3512.921L13538.3333,-3512.9227L13538.3128,-3512.9282L13538.2903,-3512.9264L13538.2649,-3512.9306L13538.2431,-3512.9494L13538.2315,-3512.9721L13538.222,-3512.9798L13538.1839,-3512.974L13538.1712,-3512.9721L13538.1512,-3512.9697L13538.0611,-3512.9476L13538.035,-3512.9429L13537.9595,-3512.9363L13537.9341,-3512.9381L13537.9181,-3512.956L13537.9058,-3512.9667L13537.896,-3512.9693L13537.8833,-3512.9727L13537.831,-3512.95L13537.7896,-3512.9316L13537.7578,-3512.9238L13537.7477,-3512.9244L13537.6693,-3512.9572L13537.646,-3512.9644L13537.625,-3512.9602L13537.572,-3512.9459L13537.5451,-3512.9435L13537.5204,-3512.9435L13537.5001,-3512.9405L13537.5,-3512.9405L13537.4733,-3512.9298L13537.4493,-3512.9262L13537.4144,-3512.9399L13537.3948,-3512.95L13537.3571,-3512.9316L13537.3266,-3512.9166L13537.2968,-3512.9047L13537.2736,-3512.8958L13537.2562,-3512.8969L13537.2424,-3512.9184L13537.2373,-3512.9549L13537.2373,-3513.0085L13537.2344,-3513.0258L13537.2193,-3513.0294L13537.2053,-3513.0357L13537.1914,-3513.0512L13537.1777,-3513.0661L13537.1631,-3513.0768L13537.1559,-3513.0792L13537.1399,-3513.081L13537.1247,-3513.084L13537.1072,-3513.0929L13537.1014,-3513.099L13537.0963,-3513.1043L13537.0876,-3513.1234L13537.0811,-3513.1621L13537.076,-3513.1812L13537.0687,-3513.1926L13537.0557,-3513.2063L13537.0433,-3513.2128L13537.0254,-3513.2181L13537.0004,-3513.2188L13536.9423,-3513.2176L13536.9169,-3513.2146L13536.9031,-3513.2093L13536.89,-3513.1973L13536.8726,-3513.1639L13536.8495,-3513.1341L13536.8284,-3513.1174L13536.8154,-3513.1102L13536.7973,-3513.1061L13536.7718,-3513.1061L13536.7239,-3513.1096L13536.7,-3513.1132L13536.6667,-3513.1244L13536.6448,-3513.1317L13536.586,-3513.155L13536.5722,-3513.1579L13536.5547,-3513.1591L13536.5417,-3513.1586L13536.5243,-3513.155L13536.4981,-3513.1448L13536.4859,-3513.1436L13536.4743,-3513.146L13536.4482,-3513.1615L13536.4134,-3513.1824L13536.3974,-3513.1896L13536.3799,-3513.1937L13536.2507,-3513.2051L13536.176,-3513.214L13536.1527,-3513.2152L13536.1092,-3513.2146L13536.0736,-3513.214L13536.021,-3513.2074L13536.0205,-3513.2075L13536.0029,-3513.2081L13535.9876,-3513.2158L13535.9608,-3513.2528L13535.9448,-3513.2719L13535.9252,-3513.2832L13535.8671,-3513.3029L13535.8504,-3513.3124L13535.8403,-3513.3249L13535.8367,-3513.3333L13535.8333,-3513.3412L13535.8301,-3513.3488L13535.8147,-3513.3971L13535.8067,-3513.4329L13535.7987,-3513.4508L13535.7733,-3513.4878L13535.7616,-3513.5014L13535.7457,-3513.52L13535.7173,-3513.545L13535.6947,-3513.5635L13535.6628,-3513.5826L13535.6251,-3513.6029L13535.551,-3513.6363L13535.5111,-3513.6542L13535.4915,-3513.6613L13535.4712,-3513.6655L13535.4131,-3513.6619L13535.346,-3513.6613L13535.3017,-3513.6584L13535.2807,-3513.6554L13535.2262,-3513.6417L13535.2017,-3513.6368L13535.1841,-3513.6333L13535.1562,-3513.6289L13535.1562,-3515.625Z"/>
<path content="兵庫県,,,丹波篠山市,,28221" xlink:title="兵庫県" d="M13535.1562,-3506.8359L13535.1562,-3513.6289L13535.1841,-3513.6333L13535.2017,-3513.6368L13535.2262,-3513.6417L13535.2807,-3513.6554L13535.3017,-3513.6584L13535.346,-3513.6613L13535.4131,-3513.6619L13535.4712,-3513.6655L13535.4915,-3513.6613L13535.5111,-3513.6542L13535.551,-3513.6363L13535.6251,-3513.6029L13535.6628,-3513.5826L13535.6947,-3513.5635L13535.7173,-3513.545L13535.7457,-3513.52L13535.7616,-3513.5014L13535.7733,-3513.4878L13535.7987,-3513.4508L13535.8067,-3513.4329L13535.8147,-3513.3971L13535.8301,-3513.3488L13535.8333,-3513.3412L13535.8367,-3513.3333L13535.8403,-3513.3249L13535.8504,-3513.3124L13535.8671,-3513.3029L13535.9252,-3513.2832L13535.9448,-3513.2719L13535.9608,-3513.2528L13535.9876,-3513.2158L13536.0029,-3513.2081L13536.0205,-3513.2075L13536.021,-3513.2074L13536.0736,-3513.214L13536.1092,-3513.2146L13536.1527,-3513.2152L13536.176,-3513.214L13536.2507,-3513.2051L13536.3799,-3513.1937L13536.3974,-3513.1896L13536.4134,-3513.1824L13536.4482,-3513.1615L13536.4743,-3513.146L13536.4859,-3513.1436L13536.4981,-3513.1448L13536.5243,-3513.155L13536.5417,-3513.1586L13536.5547,-3513.1591L13536.5722,-3513.1579L13536.586,-3513.155L13536.6448,-3513.1317L13536.6667,-3513.1244L13536.7,-3513.1132L13536.7239,-3513.1096L13536.7718,-3513.1061L13536.7973,-3513.1061L13536.8154,-3513.1102L13536.8284,-3513.1174L13536.8495,-3513.1341L13536.8726,-3513.1639L13536.89,-3513.1973L13536.9031,-3513.2093L13536.9169,-3513.2146L13536.9423,-3513.2176L13537.0004,-3513.2188L13537.0254,-3513.2181L13537.0433,-3513.2128L13537.0557,-3513.2063L13537.0687,-3513.1926L13537.076,-3513.1812L13537.0811,-3513.1621L13537.0876,-3513.1234L13537.0963,-3513.1043L13537.1014,-3513.099L13537.1072,-3513.0929L13537.1247,-3513.084L13537.1399,-3513.081L13537.1559,-3513.0792L13537.1631,-3513.0768L13537.1777,-3513.0661L13537.1914,-3513.0512L13537.2053,-3513.0357L13537.2193,-3513.0294L13537.2344,-3513.0258L13537.2373,-3513.0085L13537.2373,-3512.9549L13537.2424,-3512.9184L13537.2562,-3512.8969L13537.2736,-3512.8958L13537.2968,-3512.9047L13537.3266,-3512.9166L13537.3571,-3512.9316L13537.3948,-3512.95L13537.4144,-3512.9399L13537.4493,-3512.9262L13537.4733,-3512.9298L13537.5,-3512.9405L13537.5001,-3512.9405L13537.5204,-3512.9435L13537.5451,-3512.9435L13537.572,-3512.9459L13537.625,-3512.9602L13537.646,-3512.9644L13537.6693,-3512.9572L13537.7477,-3512.9244L13537.7578,-3512.9238L13537.7896,-3512.9316L13537.831,-3512.95L13537.8833,-3512.9727L13537.896,-3512.9693L13537.9058,-3512.9667L13537.9181,-3512.956L13537.9341,-3512.9381L13537.9595,-3512.9363L13538.035,-3512.9429L13538.0611,-3512.9476L13538.1512,-3512.9697L13538.1712,-3512.9721L13538.1839,-3512.974L13538.222,-3512.9798L13538.2315,-3512.9721L13538.2431,-3512.9494L13538.2649,-3512.9306L13538.2903,-3512.9264L13538.3128,-3512.9282L13538.3333,-3512.9227L13538.3397,-3512.921L13538.3928,-3512.9139L13538.4138,-3512.9103L13538.4705,-3512.9091L13538.5061,-3512.9157L13538.5213,-3512.9198L13538.5866,-3512.9413L13538.6142,-3512.9479L13538.6383,-3512.9503L13538.6826,-3512.9509L13538.6978,-3512.9431L13538.724,-3512.9288L13538.7973,-3512.9186L13538.8503,-3512.9091L13538.9226,-3512.8906L13538.9309,-3512.8884L13538.9636,-3512.8843L13538.981,-3512.8765L13539.0021,-3512.8025L13539.0071,-3512.7816L13539.0659,-3512.7159L13539.1204,-3512.6484L13539.1085,-3512.6406L13539.0874,-3512.6263L13539.07,-3512.6138L13539.0388,-3512.5971L13539.025,-3512.5941L13538.9951,-3512.5937L13538.9682,-3512.5812L13538.9566,-3512.5639L13538.9508,-3512.5498L13538.9603,-3512.5254L13538.9639,-3512.5099L13538.9595,-3512.5L13538.9486,-3512.4759L13538.9414,-3512.4537L13538.9349,-3512.4092L13538.9305,-3512.3617L13538.9254,-3512.3498L13538.8942,-3512.3059L13538.8688,-3512.2757L13538.8608,-3512.2709L13538.8376,-3512.2638L13538.8165,-3512.2441L13538.8056,-3512.222L13538.7766,-3512.1921L13538.7736,-3512.1899L13538.757,-3512.1778L13538.7272,-3512.1634L13538.7004,-3512.1503L13538.6822,-3512.1386L13538.6416,-3512.0999L13538.6074,-3512.0736L13538.5966,-3512.0544L13538.5915,-3512.0311L13538.5966,-3511.9986L13538.6082,-3511.9618L13538.6242,-3511.9278L13538.6481,-3511.8968L13538.65,-3511.8896L13538.6539,-3511.8746L13538.6597,-3511.821L13538.6539,-3511.7926L13538.6546,-3511.7705L13538.6684,-3511.7574L13538.696,-3511.7359L13538.7055,-3511.7054L13538.7098,-3511.6761L13538.7141,-3511.6667L13538.7222,-3511.6487L13538.7643,-3511.6128L13538.8572,-3511.5621L13538.8742,-3511.5507L13538.8902,-3511.5387L13538.8909,-3511.5274L13538.8916,-3511.5107L13538.9076,-3511.497L13538.9359,-3511.4779L13538.9457,-3511.4745L13538.9521,-3511.4723L13538.9671,-3511.467L13539.0521,-3511.4545L13539.0688,-3511.4545L13539.1015,-3511.4509L13539.1276,-3511.4229L13539.1398,-3511.4008L13539.1558,-3511.3816L13539.1667,-3511.3777L13539.2175,-3511.3595L13539.2284,-3511.3434L13539.2342,-3511.3156L13539.2371,-3511.2948L13539.2451,-3511.2798L13539.277,-3511.2479L13539.2937,-3511.2332L13539.2967,-3511.2298L13539.3249,-3511.1968L13539.3329,-3511.1778L13539.3366,-3511.1508L13539.3354,-3511.1324L13539.3351,-3511.1275L13539.3344,-3511.0794L13539.3315,-3511.0508L13539.3199,-3511.0317L13539.2844,-3511.0042L13539.259,-3510.9923L13539.2249,-3510.9857L13539.1763,-3510.9719L13539.1667,-3510.9675L13539.1379,-3510.9543L13539.114,-3510.9448L13539.09,-3510.9376L13539.0661,-3510.9364L13539.0487,-3510.9329L13539.0225,-3510.9233L13539.0144,-3510.9129L13539.0058,-3510.9021L13538.9891,-3510.8693L13538.9746,-3510.8597L13538.9506,-3510.8484L13538.9281,-3510.8405L13538.9173,-3510.8334L13538.9173,-3510.8333L13538.9245,-3510.7839L13538.9238,-3510.7626L13538.9151,-3510.7435L13538.902,-3510.7322L13538.8947,-3510.7191L13538.8984,-3510.6856L13538.902,-3510.6688L13538.902,-3510.651L13538.8917,-3510.6163L13538.8861,-3510.5973L13538.8897,-3510.5758L13538.9049,-3510.5652L13538.9521,-3510.5485L13538.9804,-3510.5109L13538.9841,-3510.4883L13538.9688,-3510.4619L13538.9449,-3510.4356L13538.9216,-3510.4237L13538.9027,-3510.404L13538.8926,-3510.3794L13538.8875,-3510.3568L13538.8745,-3510.3374L13538.8607,-3510.3213L13538.8541,-3510.301L13538.8592,-3510.2376L13538.857,-3510.1941L13538.8411,-3510.1433L13538.838,-3510.1317L13538.8353,-3510.1212L13538.8294,-3510.0943L13538.8011,-3510.0705L13538.7873,-3510.0532L13538.7808,-3510.0328L13538.7837,-3510.0089L13538.7803,-3510L13538.7736,-3509.9821L13538.767,-3509.9624L13538.7649,-3509.9469L13538.7683,-3509.9174L13538.7685,-3509.9153L13538.7866,-3509.864L13538.8033,-3509.8204L13538.8026,-3509.7692L13538.8026,-3509.7383L13538.8026,-3509.7125L13538.8128,-3509.6922L13538.8237,-3509.6881L13538.8571,-3509.7L13538.8832,-3509.7179L13538.9035,-3509.7543L13538.9079,-3509.7894L13538.9132,-3509.8093L13538.918,-3509.8276L13538.9456,-3509.8586L13538.9674,-3509.8729L13539.0001,-3509.8795L13539.0509,-3509.8795L13539.0676,-3509.8724L13539.0734,-3509.8473L13539.0785,-3509.836L13539.109,-3509.8199L13539.1322,-3509.8151L13539.1614,-3509.8028L13539.1667,-3509.7928L13539.1825,-3509.7628L13539.1977,-3509.7271L13539.205,-3509.7157L13539.2326,-3509.7145L13539.266,-3509.7157L13539.3139,-3509.7229L13539.3327,-3509.7235L13539.3712,-3509.7115L13539.4743,-3509.6704L13539.5068,-3509.653L13539.5547,-3509.6405L13539.5838,-3509.6309L13539.615,-3509.6154L13539.6448,-3509.5969L13539.6687,-3509.5928L13539.7109,-3509.5921L13539.7319,-3509.585L13539.7595,-3509.5641L13539.7618,-3509.5388L13539.7567,-3509.5162L13539.7604,-3509.5042L13539.7822,-3509.4887L13539.8032,-3509.4774L13539.8547,-3509.4529L13539.9164,-3509.4386L13539.9825,-3509.4285L13540,-3509.4245L13540.0137,-3509.4213L13540.044,-3509.4089L13540.0442,-3509.4088L13540.0624,-3509.3921L13540.0682,-3509.3821L13540.0951,-3509.3129L13540.1309,-3509.2235L13540.1404,-3509.2051L13540.144,-3509.1812L13540.142,-3509.1667L13540.1404,-3509.1543L13540.1433,-3509.1323L13540.1462,-3509.1108L13540.1542,-3509.0887L13540.1613,-3509.0614L13540.1729,-3509.0501L13540.1961,-3509.0346L13540.2446,-3509.0043L13540.2658,-3508.9911L13540.3123,-3508.9666L13540.3984,-3508.9202L13540.4281,-3508.8993L13540.4347,-3508.885L13540.4253,-3508.8689L13540.3904,-3508.8438L13540.3483,-3508.8188L13540.3267,-3508.8139L13540.2984,-3508.8216L13540.2795,-3508.8199L13540.2548,-3508.796L13540.2257,-3508.7823L13540.1996,-3508.7799L13540.1847,-3508.7761L13540.1742,-3508.7734L13540.1589,-3508.7632L13540.1485,-3508.7398L13540.1417,-3508.7303L13540.1245,-3508.7064L13540.1122,-3508.6712L13540.1063,-3508.6547L13540.1028,-3508.6413L13540.0942,-3508.6356L13540.0817,-3508.6285L13540.064,-3508.6224L13540.0373,-3508.6093L13540.0109,-3508.5958L13540.0057,-3508.5816L13540,-3508.5556L13539.9971,-3508.5426L13539.9902,-3508.5195L13539.9911,-3508.5077L13539.9919,-3508.4965L13539.985,-3508.4436L13539.9824,-3508.4188L13539.9829,-3508.3964L13539.9837,-3508.3421L13539.9837,-3508.3333L13539.9837,-3508.3165L13539.9799,-3508.2959L13539.9781,-3508.2885L13539.9716,-3508.2757L13539.9634,-3508.2608L13539.9518,-3508.2452L13539.9358,-3508.2296L13539.9151,-3508.2143L13539.897,-3508.2015L13539.8845,-3508.1906L13539.8689,-3508.1707L13539.875,-3508.1462L13539.8987,-3508.1299L13539.9084,-3508.1207L13539.913,-3508.1164L13539.9276,-3508.1047L13539.9307,-3508.0979L13539.9337,-3508.0823L13539.9393,-3508.0614L13539.9505,-3508.0351L13539.9609,-3508.0092L13539.9669,-3507.9851L13539.9678,-3507.9599L13539.966,-3507.9382L13539.9652,-3507.9173L13539.9647,-3507.9052L13539.9609,-3507.8953L13539.9531,-3507.8811L13539.9557,-3507.857L13539.9707,-3507.8358L13539.9971,-3507.7981L13540,-3507.7927L13540.004,-3507.7853L13540.0135,-3507.7611L13540.0036,-3507.7356L13540,-3507.7301L13539.9794,-3507.6987L13539.9708,-3507.6831L13539.9707,-3507.6828L13539.9665,-3507.6589L13539.9708,-3507.638L13539.9712,-3507.6227L13539.9686,-3507.6163L13539.9651,-3507.6134L13539.963,-3507.6117L13539.9535,-3507.6099L13539.9406,-3507.6114L13539.91,-3507.6156L13539.8793,-3507.6213L13539.8681,-3507.6238L13539.8513,-3507.6245L13539.8349,-3507.6241L13539.8142,-3507.6206L13539.7827,-3507.6117L13539.7637,-3507.5936L13539.7507,-3507.5812L13539.7447,-3507.5745L13539.733,-3507.5709L13539.7223,-3507.5688L13539.7067,-3507.5702L13539.6795,-3507.5752L13539.6545,-3507.5826L13539.6355,-3507.5848L13539.617,-3507.5844L13539.5906,-3507.5805L13539.5591,-3507.5738L13539.5341,-3507.5553L13539.5276,-3507.5507L13539.5147,-3507.534L13539.5074,-3507.5262L13539.4979,-3507.5202L13539.4905,-3507.5152L13539.4659,-3507.5067L13539.4482,-3507.5L13539.4396,-3507.4968L13539.4314,-3507.4886L13539.4258,-3507.4769L13539.418,-3507.4549L13539.4146,-3507.4446L13539.4154,-3507.4389L13539.4129,-3507.4166L13539.4094,-3507.3935L13539.3852,-3507.3441L13539.3693,-3507.3196L13539.3477,-3507.3072L13539.2787,-3507.3001L13539.2515,-3507.2909L13539.2303,-3507.276L13539.2165,-3507.2703L13539.2023,-3507.2686L13539.1936,-3507.2661L13539.1918,-3507.2661L13539.182,-3507.2661L13539.1667,-3507.2692L13539.1665,-3507.2693L13539.1354,-3507.2838L13539.1069,-3507.2828L13539.0853,-3507.2743L13539.0758,-3507.2728L13539.0651,-3507.275L13539.0444,-3507.2835L13539.0154,-3507.292L13538.9814,-3507.2991L13538.9533,-3507.303L13538.9399,-3507.3016L13538.9473,-3507.2898L13538.9473,-3507.2824L13538.9443,-3507.2718L13538.9429,-3507.2533L13538.9443,-3507.2309L13538.9361,-3507.2139L13538.9313,-3507.2107L13538.9266,-3507.21L13538.9157,-3507.2125L13538.8623,-3507.2278L13538.8325,-3507.2338L13538.8014,-3507.2324L13538.7889,-3507.2292L13538.7794,-3507.2281L13538.7695,-3507.2281L13538.76,-3507.2327L13538.7367,-3507.2455L13538.7099,-3507.2536L13538.7074,-3507.2544L13538.6797,-3507.2501L13538.6746,-3507.2487L13538.6676,-3507.2437L13538.6651,-3507.2359L13538.662,-3507.2242L13538.6582,-3507.2125L13538.6534,-3507.2026L13538.6482,-3507.1976L13538.6267,-3507.1802L13538.6051,-3507.1593L13538.6034,-3507.1568L13538.5982,-3507.149L13538.5934,-3507.1376L13538.5883,-3507.1273L13538.5835,-3507.1209L13538.5736,-3507.1135L13538.5486,-3507.1025L13538.5257,-3507.0915L13538.4584,-3507.0702L13538.4403,-3507.0627L13538.4174,-3507.0549L13538.3401,-3507.0496L13538.3375,-3507.047L13538.3333,-3507.0429L13538.3311,-3507.0407L13538.3224,-3507.0304L13538.3155,-3506.9971L13538.3145,-3506.9938L13538.3091,-3506.9772L13538.3052,-3506.9687L13538.2996,-3506.9613L13538.2879,-3506.9485L13538.2791,-3506.9342L13538.2754,-3506.9283L13538.2612,-3506.9069L13538.2404,-3506.8885L13538.2253,-3506.878L13538.2107,-3506.8679L13538.1805,-3506.8573L13538.1581,-3506.8477L13538.1339,-3506.8377L13538.1274,-3506.8359Z"/>
</g>
</svg>
