<?xml version="1.0" encoding="UTF-8"?>
<svg  xmlns="http://www.w3.org/2000/svg" xmlns:xlink="http://www.w3.org/1999/xlink" xmlns:go="http://purl.org/svgmap/profile" property="geometry,N03_001,N03_002,N03_003,N03_004,N03_005,N03_007" viewBox="13535.15625 -3357.421875 8.7890625 8.7890625" go:dataArea="13535.15625 -3357.421875 8.7890625 8.7890625" >
<metadata>
 <rdf:RDF xmlns:rdf="http://www.w3.org/1999/02/22-rdf-syntax-ns#" xmlns:crs="http://opengis.org/xmldtds/transformations.dtd" xmlns:svg="http://www.w3.org/svg" >
  <rdf:Description>
   <crs:CoordinateReferenceSystem rdf:resource="http://purl.org/crs/84" svg:transform="matrix(100.0,0.0,0.0,-100.0,0.0,0.0)" />
  </rdf:Description>
 </rdf:RDF>
</metadata>
<globalCoordinateSystem srsName="http://purl.org/crs/84" transform="matrix(100.0,0.0,0.0,-100.0,0.0,0.0)" />
<defs>
 <g id="p0" >
  <circle cx="0.0" cy="0.0" r="3" stroke="green" stroke-width="2.0" vector-effect="non-scaling-stroke" />
 </g>
</defs>
<g fill="#0000ff" fill-rule="evenodd" opacity="0.5" >
<path content="和歌山県,,西牟婁郡,白浜町,,30401" xlink:title="和歌山県" d="M13543.9453,-3357.4219L13543.9453,-3356.5876L13543.9423,-3356.589L13543.9258,-3356.5971L13543.9134,-3356.6065L13543.8983,-3356.6168L13543.8891,-3356.6211L13543.8871,-3356.622L13543.8847,-3356.6225L13543.8682,-3356.626L13543.8628,-3356.6273L13543.8558,-3356.63L13543.843,-3356.6354L13543.832,-3356.641L13543.8272,-3356.6438L13543.8006,-3356.6564L13543.7771,-3356.6667L13543.7719,-3356.6689L13543.7426,-3356.6804L13543.7294,-3356.6856L13543.7139,-3356.6881L13543.7087,-3356.689L13543.7083,-3356.6889L13543.7079,-3356.6887L13543.7078,-3356.6887L13543.7075,-3356.6884L13543.7074,-3356.6882L13543.7073,-3356.6878L13543.7072,-3356.6874L13543.7072,-3356.6869L13543.7071,-3356.686L13543.707,-3356.6852L13543.7063,-3356.6848L13543.6896,-3356.6868L13543.6595,-3356.6974L13543.638,-3356.7052L13543.6176,-3356.713L13543.6056,-3356.7172L13543.5845,-3356.724L13543.5747,-3356.7275L13543.5611,-3356.731L13543.5485,-3356.7336L13543.5312,-3356.7366L13543.5165,-3356.7388L13543.5066,-3356.7418L13543.4999,-3356.7454L13543.4942,-3356.7478L13543.4901,-3356.7492L13543.4837,-3356.7506L13543.476,-3356.7519L13543.4618,-3356.7527L13543.4478,-3356.7543L13543.4384,-3356.7562L13543.423,-3356.7614L13543.4145,-3356.7641L13543.4117,-3356.7643L13543.408,-3356.763L13543.4063,-3356.7627L13543.404,-3356.764L13543.4016,-3356.7665L13543.3992,-3356.7673L13543.3967,-3356.7664L13543.3933,-3356.7652L13543.3908,-3356.7646L13543.3857,-3356.7642L13543.3789,-3356.7639L13543.3707,-3356.7646L13543.3629,-3356.7659L13543.353,-3356.768L13543.3466,-3356.7694L13543.3356,-3356.7696L13543.3333,-3356.7695L13543.3239,-3356.7692L13543.3164,-3356.7678L13543.308,-3356.7664L13543.2969,-3356.7647L13543.2888,-3356.7629L13543.2807,-3356.7607L13543.2718,-3356.7562L13543.2645,-3356.7512L13543.261,-3356.7485L13543.2612,-3356.7441L13543.2585,-3356.7415L13543.2551,-3356.7404L13543.2561,-3356.7366L13543.2537,-3356.7342L13543.2487,-3356.7322L13543.2505,-3356.7287L13543.2474,-3356.7252L13543.2453,-3356.7222L13543.2467,-3356.7202L13543.2478,-3356.717L13543.2461,-3356.7144L13543.2431,-3356.7113L13543.2435,-3356.7082L13543.2415,-3356.7051L13543.2396,-3356.7034L13543.2389,-3356.6985L13543.2365,-3356.6954L13543.2342,-3356.6941L13543.2335,-3356.6903L13543.2315,-3356.6885L13543.2313,-3356.686L13543.231,-3356.6822L13543.2292,-3356.6809L13543.2257,-3356.6796L13543.2247,-3356.6777L13543.2208,-3356.6762L13543.2194,-3356.6741L13543.216,-3356.672L13543.2136,-3356.671L13543.2119,-3356.6681L13543.2105,-3356.6667L13543.2071,-3356.6669L13543.2052,-3356.6678L13543.2029,-3356.6667L13543.2017,-3356.666L13543.1977,-3356.6659L13543.1963,-3356.6667L13543.1938,-3356.6681L13543.1928,-3356.6697L13543.1904,-3356.6702L13543.1886,-3356.6737L13543.1878,-3356.6756L13543.184,-3356.6744L13543.181,-3356.6749L13543.1802,-3356.679L13543.1773,-3356.6819L13543.1754,-3356.6861L13543.1765,-3356.6884L13543.1744,-3356.6898L13543.174,-3356.6923L13543.1757,-3356.6955L13543.1766,-3356.6973L13543.1751,-3356.6995L13543.1741,-3356.7021L13543.1767,-3356.705L13543.1763,-3356.7069L13543.1717,-3356.708L13543.1684,-3356.7103L13543.1674,-3356.7132L13543.1641,-3356.7125L13543.1607,-3356.714L13543.1599,-3356.7169L13543.1572,-3356.7165L13543.1532,-3356.7176L13543.1533,-3356.7212L13543.1535,-3356.723L13543.1515,-3356.7235L13543.1467,-3356.724L13543.1445,-3356.7258L13543.143,-3356.7297L13543.1411,-3356.7321L13543.1415,-3356.7353L13543.1413,-3356.7374L13543.1405,-3356.7405L13543.1409,-3356.7421L13543.1426,-3356.7448L13543.1404,-3356.747L13543.1388,-3356.7483L13543.1394,-3356.7512L13543.142,-3356.7533L13543.1431,-3356.755L13543.1435,-3356.758L13543.1471,-3356.7601L13543.1498,-3356.7607L13543.1516,-3356.7628L13543.1522,-3356.7636L13543.1526,-3356.7648L13543.1547,-3356.7667L13543.1579,-3356.7677L13543.1591,-3356.7709L13543.1606,-3356.7733L13543.1644,-3356.7737L13543.1649,-3356.7756L13543.1664,-3356.7796L13543.1669,-3356.7874L13543.166,-3356.7946L13543.1652,-3356.8022L13543.1661,-3356.809L13543.166,-3356.8147L13543.1648,-3356.8235L13543.1634,-3356.8309L13543.1612,-3356.839L13543.1595,-3356.8437L13543.1538,-3356.857L13543.1466,-3356.8716L13543.1409,-3356.8826L13543.1348,-3356.8917L13543.1267,-3356.9028L13543.1139,-3356.9167L13543.1023,-3356.9296L13543.0917,-3356.9386L13543.0786,-3356.9496L13543.0694,-3356.9573L13543.0564,-3356.9687L13543.0434,-3356.9786L13543.0351,-3356.9849L13543.0249,-3356.9918L13543.0102,-3357.0007L13542.9964,-3357.009L13542.9861,-3357.0159L13542.9786,-3357.0196L13542.9687,-3357.0229L13542.958,-3357.0252L13542.9464,-3357.03L13542.9314,-3357.0362L13542.9223,-3357.0403L13542.9111,-3357.0445L13542.897,-3357.0498L13542.8794,-3357.0566L13542.8603,-3357.0624L13542.8355,-3357.0701L13542.8263,-3357.0717L13542.8153,-3357.0716L13542.8003,-3357.0706L13542.7874,-3357.0704L13542.7725,-3357.0708L13542.7648,-3357.071L13542.7544,-3357.0725L13542.7396,-3357.0723L13542.7317,-3357.0717L13542.7199,-3357.0704L13542.708,-3357.0693L13542.7004,-3357.0685L13542.7035,-3357.0655L13542.7029,-3357.0629L13542.702,-3357.0618L13542.7044,-3357.0591L13542.7042,-3357.0569L13542.702,-3357.0544L13542.7019,-3357.0515L13542.7009,-3357.0497L13542.6996,-3357.0471L13542.697,-3357.0454L13542.6949,-3357.0456L13542.6935,-3357.0466L13542.6934,-3357.0484L13542.6909,-3357.048L13542.6889,-3357.0501L13542.6896,-3357.0524L13542.6893,-3357.0543L13542.6866,-3357.0548L13542.6856,-3357.0568L13542.686,-3357.0589L13542.6872,-3357.0607L13542.684,-3357.0625L13542.6845,-3357.0644L13542.685,-3357.0679L13542.6844,-3357.071L13542.6815,-3357.0703L13542.6814,-3357.0664L13542.6776,-3357.0663L13542.6765,-3357.06L13542.6726,-3357.0605L13542.6736,-3357.0559L13542.672,-3357.0539L13542.6746,-3357.0518L13542.6744,-3357.0447L13542.6802,-3357.0444L13542.6793,-3357.0386L13542.6825,-3357.0353L13542.6818,-3357.0299L13542.686,-3357.0253L13542.6859,-3357.0228L13542.6879,-3357.0192L13542.6853,-3357.0144L13542.6869,-3357.0107L13542.6854,-3357.0096L13542.6888,-3357.0085L13542.6882,-3357.0041L13542.6915,-3357.0005L13542.6899,-3356.9979L13542.6915,-3356.994L13542.6899,-3356.9908L13542.6893,-3356.9876L13542.6916,-3356.9855L13542.6905,-3356.9831L13542.6886,-3356.9813L13542.6909,-3356.9773L13542.6887,-3356.9735L13542.6867,-3356.9733L13542.6899,-3356.9694L13542.6902,-3356.9644L13542.6879,-3356.9613L13542.6858,-3356.9592L13542.6849,-3356.957L13542.6802,-3356.9556L13542.6768,-3356.9576L13542.676,-3356.9537L13542.6735,-3356.9526L13542.6688,-3356.9537L13542.6665,-3356.9549L13542.6651,-3356.9515L13542.6625,-3356.9499L13542.6592,-3356.9502L13542.656,-3356.9519L13542.6536,-3356.9474L13542.6514,-3356.9476L13542.6486,-3356.9481L13542.6475,-3356.9453L13542.644,-3356.9423L13542.6398,-3356.9423L13542.6378,-3356.9446L13542.6378,-3356.9479L13542.6354,-3356.9497L13542.6349,-3356.9525L13542.6348,-3356.9537L13542.6316,-3356.9542L13542.6304,-3356.9559L13542.6271,-3356.9538L13542.6247,-3356.9538L13542.6253,-3356.951L13542.6245,-3356.9486L13542.6212,-3356.9468L13542.6207,-3356.9435L13542.6198,-3356.9413L13542.6174,-3356.9403L13542.613,-3356.942L13542.6106,-3356.9414L13542.609,-3356.9443L13542.6098,-3356.9469L13542.6074,-3356.9494L13542.6079,-3356.9523L13542.6094,-3356.9542L13542.6073,-3356.956L13542.6077,-3356.9586L13542.6076,-3356.9604L13542.6037,-3356.9592L13542.6027,-3356.9554L13542.5988,-3356.953L13542.5995,-3356.95L13542.5973,-3356.946L13542.5968,-3356.9414L13542.594,-3356.9396L13542.5942,-3356.9364L13542.5933,-3356.9353L13542.593,-3356.9316L13542.5898,-3356.9304L13542.5867,-3356.9316L13542.5851,-3356.9337L13542.5824,-3356.9319L13542.5796,-3356.9325L13542.5778,-3356.9346L13542.5781,-3356.9365L13542.5736,-3356.9356L13542.5718,-3356.9385L13542.5719,-3356.9402L13542.5692,-3356.9403L13542.5672,-3356.9439L13542.568,-3356.9457L13542.5636,-3356.9443L13542.5604,-3356.9454L13542.5586,-3356.9459L13542.5555,-3356.9424L13542.5526,-3356.9415L13542.5504,-3356.9416L13542.5483,-3356.9446L13542.5431,-3356.9444L13542.5405,-3356.9471L13542.537,-3356.9466L13542.5323,-3356.9455L13542.5332,-3356.942L13542.5305,-3356.9397L13542.5332,-3356.9376L13542.5361,-3356.937L13542.5372,-3356.9349L13542.537,-3356.9323L13542.5407,-3356.9291L13542.5413,-3356.9252L13542.5393,-3356.9238L13542.5407,-3356.9183L13542.5372,-3356.9164L13542.5331,-3356.9169L13542.5295,-3356.9166L13542.5272,-3356.9182L13542.5264,-3356.9201L13542.5215,-3356.9199L13542.5189,-3356.9226L13542.5183,-3356.9237L13542.5151,-3356.9244L13542.5119,-3356.9269L13542.5127,-3356.9309L13542.5153,-3356.9332L13542.5141,-3356.9373L13542.5151,-3356.9394L13542.5172,-3356.9409L13542.5145,-3356.9448L13542.5155,-3356.9479L13542.5177,-3356.9488L13542.5161,-3356.9508L13542.5148,-3356.955L13542.5154,-3356.9582L13542.5168,-3356.9593L13542.5139,-3356.9614L13542.5135,-3356.964L13542.516,-3356.9667L13542.5128,-3356.9687L13542.5123,-3356.9703L13542.5098,-3356.9683L13542.5071,-3356.9664L13542.5037,-3356.966L13542.5052,-3356.9626L13542.5031,-3356.9606L13542.5015,-3356.9597L13542.5025,-3356.9575L13542.5016,-3356.9555L13542.5,-3356.955L13542.4978,-3356.9543L13542.5,-3356.9513L13542.5003,-3356.9509L13542.5015,-3356.9486L13542.5007,-3356.9463L13542.5,-3356.9459L13542.4984,-3356.945L13542.498,-3356.9428L13542.4967,-3356.9406L13542.4964,-3356.9378L13542.4951,-3356.9364L13542.4914,-3356.9349L13542.4931,-3356.9311L13542.4927,-3356.9285L13542.491,-3356.9272L13542.4915,-3356.9253L13542.4908,-3356.9217L13542.4881,-3356.9204L13542.4874,-3356.9196L13542.488,-3356.9167L13542.4866,-3356.9146L13542.4831,-3356.9141L13542.4807,-3356.9117L13542.4787,-3356.9117L13542.4758,-3356.9132L13542.4739,-3356.9149L13542.475,-3356.9176L13542.4757,-3356.9188L13542.4754,-3356.9211L13542.4765,-3356.9234L13542.4792,-3356.9249L13542.4781,-3356.9268L13542.4786,-3356.9299L13542.4844,-3356.9327L13542.4817,-3356.9356L13542.4797,-3356.9378L13542.4808,-3356.9413L13542.484,-3356.9437L13542.4837,-3356.9461L13542.4858,-3356.9485L13542.4891,-3356.9494L13542.4865,-3356.9526L13542.4869,-3356.956L13542.489,-3356.9582L13542.4925,-3356.96L13542.4917,-3356.9629L13542.4932,-3356.9651L13542.4914,-3356.9682L13542.4926,-3356.9701L13542.496,-3356.9717L13542.496,-3356.9749L13542.4967,-3356.9763L13542.4999,-3356.9772L13542.5,-3356.9798L13542.5,-3356.9799L13542.5007,-3356.9836L13542.5035,-3356.9848L13542.5062,-3356.9845L13542.5081,-3356.9867L13542.5106,-3356.987L13542.5128,-3356.9861L13542.5126,-3356.9892L13542.5133,-3356.9916L13542.5166,-3356.9929L13542.5178,-3356.9932L13542.5178,-3356.9958L13542.5201,-3356.997L13542.5229,-3356.9969L13542.5271,-3356.9952L13542.5283,-3356.9971L13542.5297,-3356.999L13542.5332,-3357.0003L13542.5361,-3357.001L13542.5357,-3357.004L13542.5371,-3357.0062L13542.5408,-3357.0075L13542.5381,-3357.0105L13542.5393,-3357.0135L13542.5423,-3357.016L13542.5441,-3357.0169L13542.5439,-3357.0196L13542.5454,-3357.021L13542.5444,-3357.024L13542.5444,-3357.0261L13542.5449,-3357.0285L13542.5433,-3357.0308L13542.5438,-3357.0329L13542.5409,-3357.0335L13542.5393,-3357.0354L13542.541,-3357.0391L13542.5376,-3357.0407L13542.5368,-3357.0437L13542.5376,-3357.0468L13542.5343,-3357.0488L13542.5343,-3357.0517L13542.5363,-3357.0554L13542.5404,-3357.0564L13542.5391,-3357.0601L13542.5418,-3357.0618L13542.546,-3357.0617L13542.5472,-3357.0651L13542.5511,-3357.0662L13542.5543,-3357.065L13542.5569,-3357.0647L13542.5591,-3357.0673L13542.5616,-3357.0682L13542.5647,-3357.0677L13542.5676,-3357.0699L13542.5704,-3357.0702L13542.5726,-3357.0677L13542.5755,-3357.0692L13542.578,-3357.0675L13542.5813,-3357.0658L13542.5863,-3357.0675L13542.588,-3357.0684L13542.5914,-3357.0678L13542.5928,-3357.067L13542.5963,-3357.0684L13542.5998,-3357.065L13542.605,-3357.0663L13542.6104,-3357.066L13542.6122,-3357.0688L13542.6154,-3357.0692L13542.6174,-3357.0679L13542.6215,-3357.0675L13542.6227,-3357.0644L13542.6235,-3357.0609L13542.6269,-3357.061L13542.6309,-3357.058L13542.6325,-3357.0608L13542.6345,-3357.0624L13542.6326,-3357.0651L13542.6342,-3357.0675L13542.629,-3357.0701L13542.6248,-3357.0747L13542.6194,-3357.0735L13542.617,-3357.0756L13542.6129,-3357.0744L13542.6108,-3357.0756L13542.612,-3357.0789L13542.6104,-3357.0829L13542.6137,-3357.0852L13542.6161,-3357.0864L13542.6168,-3357.0894L13542.6124,-3357.0911L13542.61,-3357.0926L13542.604,-3357.0901L13542.6034,-3357.0868L13542.5983,-3357.0867L13542.596,-3357.0835L13542.5917,-3357.0836L13542.5865,-3357.0844L13542.5841,-3357.082L13542.579,-3357.0829L13542.5755,-3357.081L13542.5729,-3357.0823L13542.5723,-3357.0845L13542.5674,-3357.0807L13542.5637,-3357.0812L13542.5608,-3357.0821L13542.557,-3357.0802L13542.5528,-3357.0795L13542.5502,-3357.0822L13542.5458,-3357.0828L13542.5432,-3357.085L13542.543,-3357.0881L13542.5402,-3357.0909L13542.5387,-3357.0947L13542.5412,-3357.0982L13542.5402,-3357.1007L13542.5411,-3357.1054L13542.5433,-3357.1093L13542.5404,-3357.1123L13542.5415,-3357.1147L13542.5453,-3357.1167L13542.5454,-3357.119L13542.5451,-3357.1238L13542.5456,-3357.133L13542.5478,-3357.1393L13542.5539,-3357.1457L13542.5628,-3357.1525L13542.567,-3357.1541L13542.573,-3357.1543L13542.5795,-3357.1527L13542.5858,-3357.1504L13542.5904,-3357.1499L13542.5965,-3357.1508L13542.5994,-3357.1524L13542.6013,-3357.1545L13542.6032,-3357.1598L13542.6033,-3357.162L13542.6014,-3357.1639L13542.5961,-3357.1656L13542.5884,-3357.1674L13542.5845,-3357.1683L13542.5793,-3357.171L13542.5751,-3357.1737L13542.572,-3357.1751L13542.5677,-3357.1746L13542.5638,-3357.1714L13542.5582,-3357.1671L13542.5543,-3357.1648L13542.5496,-3357.1627L13542.5415,-3357.1608L13542.5359,-3357.1588L13542.5309,-3357.1551L13542.5264,-3357.1499L13542.5216,-3357.1431L13542.5201,-3357.1393L13542.5191,-3357.1321L13542.5183,-3357.1266L13542.5153,-3357.1222L13542.5133,-3357.1213L13542.5144,-3357.1175L13542.5128,-3357.1144L13542.51,-3357.1129L13542.5103,-3357.1092L13542.5079,-3357.1079L13542.5059,-3357.1051L13542.5041,-3357.1037L13542.5005,-3357.1041L13542.5,-3357.105L13542.4985,-3357.1079L13542.4949,-3357.1093L13542.4935,-3357.1119L13542.49,-3357.1089L13542.4875,-3357.1089L13542.4842,-3357.1112L13542.4832,-3357.1154L13542.4785,-3357.1162L13542.4789,-3357.1199L13542.4806,-3357.1223L13542.4772,-3357.1248L13542.4781,-3357.1288L13542.4752,-3357.1312L13542.4754,-3357.1342L13542.4736,-3357.1351L13542.4689,-3357.1387L13542.4638,-3357.1407L13542.4602,-3357.1415L13542.4526,-3357.1419L13542.4471,-3357.1426L13542.4426,-3357.1445L13542.4369,-3357.1478L13542.4337,-3357.1492L13542.4268,-3357.1492L13542.4216,-3357.147L13542.419,-3357.1447L13542.4177,-3357.1427L13542.4176,-3357.1393L13542.4152,-3357.137L13542.4176,-3357.1352L13542.4176,-3357.1321L13542.4143,-3357.129L13542.4161,-3357.1256L13542.4155,-3357.1225L13542.4125,-3357.1203L13542.4124,-3357.1202L13542.4125,-3357.12L13542.4163,-3357.115L13542.4152,-3357.1121L13542.413,-3357.1093L13542.4146,-3357.1066L13542.4145,-3357.1043L13542.4126,-3357.1029L13542.4116,-3357.1021L13542.4126,-3357.1016L13542.4143,-3357.1009L13542.4146,-3357.0982L13542.4127,-3357.0954L13542.4121,-3357.0946L13542.4127,-3357.0936L13542.4143,-3357.091L13542.4133,-3357.0883L13542.4135,-3357.0865L13542.4152,-3357.0843L13542.4148,-3357.0827L13542.414,-3357.0811L13542.4151,-3357.0788L13542.414,-3357.0767L13542.4128,-3357.0761L13542.4115,-3357.0755L13542.409,-3357.075L13542.4095,-3357.0724L13542.4084,-3357.0702L13542.4062,-3357.0691L13542.4037,-3357.0699L13542.4021,-3357.0719L13542.4001,-3357.0727L13542.3976,-3357.074L13542.3967,-3357.0747L13542.3927,-3357.0745L13542.3908,-3357.0779L13542.3893,-3357.0794L13542.387,-3357.0766L13542.3868,-3357.0743L13542.3873,-3357.0715L13542.3898,-3357.0687L13542.3898,-3357.0655L13542.3928,-3357.0628L13542.3924,-3357.059L13542.3897,-3357.0558L13542.3905,-3357.0526L13542.3872,-3357.0499L13542.3845,-3357.0483L13542.3819,-3357.0455L13542.3786,-3357.0448L13542.376,-3357.0455L13542.375,-3357.0439L13542.3744,-3357.043L13542.3704,-3357.041L13542.367,-3357.0412L13542.3657,-3357.0371L13542.3624,-3357.0346L13542.3582,-3357.0342L13542.3571,-3357.0305L13542.354,-3357.0289L13542.3495,-3357.0285L13542.3445,-3357.0248L13542.3424,-3357.0236L13542.3424,-3357.0198L13542.3475,-3357.0185L13542.3484,-3357.0155L13542.3461,-3357.0123L13542.3497,-3357.0096L13542.3495,-3357.0072L13542.3515,-3357.003L13542.3509,-3356.9998L13542.3467,-3356.9982L13542.3451,-3356.9934L13542.3408,-3356.9914L13542.3407,-3356.9872L13542.3358,-3356.9854L13542.3316,-3356.9843L13542.3278,-3356.9873L13542.3271,-3356.99L13542.3233,-3356.9919L13542.3218,-3356.9951L13542.3256,-3356.9983L13542.3213,-3357.003L13542.3206,-3357.0063L13542.3165,-3357.0045L13542.3107,-3357.0055L13542.3086,-3357.0091L13542.3096,-3357.0108L13542.306,-3357.014L13542.3067,-3357.0179L13542.2981,-3357.0183L13542.2963,-3357.0195L13542.2929,-3357.0186L13542.2873,-3357.0211L13542.2861,-3357.0247L13542.2879,-3357.0275L13542.2913,-3357.0278L13542.2916,-3357.0301L13542.2927,-3357.0334L13542.297,-3357.0357L13542.3002,-3357.0366L13542.2991,-3357.0397L13542.3027,-3357.0416L13542.3064,-3357.042L13542.3104,-3357.0416L13542.3108,-3357.0436L13542.311,-3357.0447L13542.314,-3357.0478L13542.3179,-3357.0487L13542.3196,-3357.0494L13542.319,-3357.0524L13542.3215,-3357.0539L13542.3246,-3357.0549L13542.3247,-3357.0574L13542.3281,-3357.06L13542.3247,-3357.0598L13542.3201,-3357.061L13542.3182,-3357.0626L13542.3154,-3357.0611L13542.3146,-3357.062L13542.3122,-3357.0578L13542.3093,-3357.056L13542.3052,-3357.0572L13542.302,-3357.0526L13542.2963,-3357.0526L13542.2927,-3357.05L13542.2899,-3357.055L13542.2911,-3357.0608L13542.2857,-3357.0626L13542.2844,-3357.0663L13542.2789,-3357.0671L13542.2782,-3357.072L13542.2733,-3357.0764L13542.2747,-3357.0811L13542.2685,-3357.0852L13542.27,-3357.0881L13542.272,-3357.0895L13542.2725,-3357.092L13542.277,-3357.0926L13542.277,-3357.0949L13542.2821,-3357.0959L13542.2832,-3357.1004L13542.2839,-3357.111L13542.2859,-3357.1194L13542.2882,-3357.1293L13542.2886,-3357.1363L13542.2874,-3357.1414L13542.2851,-3357.1482L13542.2804,-3357.1577L13542.2774,-3357.1645L13542.2756,-3357.173L13542.2743,-3357.1785L13542.2733,-3357.1878L13542.2735,-3357.1948L13542.2749,-3357.2012L13542.2767,-3357.2077L13542.2802,-3357.2159L13542.2818,-3357.2194L13542.2818,-3357.2228L13542.2784,-3357.229L13542.2738,-3357.2361L13542.2631,-3357.2474L13542.2547,-3357.2547L13542.2512,-3357.2579L13542.245,-3357.2569L13542.2385,-3357.255L13542.2352,-3357.2506L13542.2331,-3357.2406L13542.2309,-3357.2307L13542.2287,-3357.2157L13542.2263,-3357.2071L13542.2222,-3357.1981L13542.2175,-3357.1898L13542.2125,-3357.1841L13542.2088,-3357.1796L13542.2062,-3357.1748L13542.2057,-3357.1709L13542.2086,-3357.1694L13542.2076,-3357.1651L13542.2071,-3357.1628L13542.2118,-3357.1593L13542.2101,-3357.1544L13542.2123,-3357.1499L13542.2117,-3357.1467L13542.2127,-3357.143L13542.2165,-3357.1413L13542.2142,-3357.1372L13542.2159,-3357.1334L13542.2157,-3357.1299L13542.2132,-3357.1287L13542.2114,-3357.129L13542.2106,-3357.126L13542.2111,-3357.1229L13542.2091,-3357.1205L13542.2076,-3357.1161L13542.2038,-3357.1142L13542.1983,-3357.114L13542.2007,-3357.1084L13542.1969,-3357.1061L13542.1976,-3357.102L13542.1931,-3357.0989L13542.1915,-3357.0975L13542.1911,-3357.0958L13542.1941,-3357.0912L13542.1937,-3357.0887L13542.1899,-3357.0879L13542.1878,-3357.0878L13542.1868,-3357.0854L13542.1845,-3357.0846L13542.18,-3357.0841L13542.1789,-3357.0794L13542.1772,-3357.0764L13542.1734,-3357.0759L13542.1715,-3357.0757L13542.1728,-3357.0705L13542.1707,-3357.0677L13542.1668,-3357.067L13542.1662,-3357.0639L13542.1649,-3357.0608L13542.1604,-3357.0591L13542.1598,-3357.0562L13542.1608,-3357.0523L13542.1586,-3357.0506L13542.1565,-3357.0497L13542.1542,-3357.0452L13542.1513,-3357.0441L13542.1476,-3357.0447L13542.1467,-3357.0428L13542.1462,-3357.0417L13542.1424,-3357.0401L13542.1373,-3357.0406L13542.1344,-3357.0379L13542.1387,-3357.0366L13542.139,-3357.0336L13542.1385,-3357.0308L13542.1404,-3357.0285L13542.1394,-3357.0261L13542.1371,-3357.0252L13542.1371,-3357.0212L13542.1361,-3357.0199L13542.1312,-3357.0196L13542.1297,-3357.0178L13542.1268,-3357.0157L13542.1249,-3357.0154L13542.1222,-3357.017L13542.1194,-3357.0179L13542.1168,-3357.0155L13542.1146,-3357.0159L13542.1121,-3357.019L13542.1134,-3357.022L13542.1111,-3357.0248L13542.1108,-3357.0278L13542.1121,-3357.0303L13542.1107,-3357.0329L13542.1105,-3357.0363L13542.111,-3357.0395L13542.1099,-3357.0394L13542.106,-3357.0385L13542.1028,-3357.0383L13542.1039,-3357.0349L13542.1031,-3357.0323L13542.1002,-3357.0307L13542.1029,-3357.0277L13542.1029,-3357.0251L13542.0999,-3357.023L13542.0975,-3357.0228L13542.0991,-3357.0183L13542.0982,-3357.0155L13542.0954,-3357.0142L13542.0923,-3357.0147L13542.0949,-3357.0122L13542.0997,-3357.0133L13542.1032,-3357.0102L13542.105,-3357.0075L13542.1097,-3357.007L13542.1107,-3357.0023L13542.1145,-3356.9996L13542.1147,-3356.996L13542.1178,-3356.9939L13542.1178,-3356.9904L13542.1149,-3356.9886L13542.1112,-3356.9881L13542.1105,-3356.9828L13542.1082,-3356.9816L13542.1049,-3356.9812L13542.1052,-3356.9778L13542.1036,-3356.9756L13542.1012,-3356.9735L13542.1,-3356.9679L13542.0984,-3356.9666L13542.0934,-3356.9655L13542.0878,-3356.9673L13542.0866,-3356.964L13542.0842,-3356.9632L13542.0795,-3356.9661L13542.0739,-3356.9653L13542.071,-3356.9686L13542.0655,-3356.9691L13542.0617,-3356.9709L13542.0608,-3356.9759L13542.0614,-3356.9798L13542.0579,-3356.982L13542.0584,-3356.9848L13542.0582,-3356.9875L13542.0528,-3356.9854L13542.0469,-3356.9849L13542.044,-3356.984L13542.045,-3356.9821L13542.0483,-3356.9799L13542.0466,-3356.9743L13542.0489,-3356.9713L13542.0466,-3356.9665L13542.0495,-3356.9632L13542.0476,-3356.9599L13542.0483,-3356.957L13542.0473,-3356.9541L13542.0422,-3356.9522L13542.0416,-3356.9487L13542.0378,-3356.9474L13542.0353,-3356.9452L13542.0325,-3356.9414L13542.0296,-3356.9402L13542.0249,-3356.9407L13542.0244,-3356.9372L13542.0272,-3356.933L13542.0266,-3356.9293L13542.0287,-3356.9262L13542.0262,-3356.9226L13542.022,-3356.9208L13542.0216,-3356.9179L13542.021,-3356.9133L13542.0183,-3356.912L13542.0148,-3356.9129L13542.0121,-3356.9102L13542.0098,-3356.9087L13542.0052,-3356.909L13542.0043,-3356.9122L13542.0007,-3356.9125L13541.9982,-3356.9139L13541.9953,-3356.9134L13541.9929,-3356.9111L13541.988,-3356.9118L13541.9836,-3356.9141L13541.9831,-3356.9138L13541.9785,-3356.9116L13541.9753,-3356.912L13541.974,-3356.9136L13541.9704,-3356.9097L13541.9671,-3356.9096L13541.9647,-3356.9126L13541.9599,-3356.9126L13541.9572,-3356.9163L13541.9562,-3356.9193L13541.9536,-3356.9216L13541.9538,-3356.9251L13541.9501,-3356.9301L13541.9498,-3356.9347L13541.9509,-3356.9375L13541.9505,-3356.9402L13541.9433,-3356.9412L13541.9395,-3356.9432L13541.9401,-3356.9472L13541.9353,-3356.9524L13541.9364,-3356.9561L13541.9375,-3356.9582L13541.9312,-3356.9609L13541.9288,-3356.9646L13541.9311,-3356.9683L13541.9339,-3356.9704L13541.9341,-3356.9732L13541.9369,-3356.9752L13541.9404,-3356.9749L13541.941,-3356.9791L13541.9433,-3356.9824L13541.9451,-3356.9844L13541.9397,-3356.9896L13541.9398,-3356.9927L13541.9427,-3356.9957L13541.9423,-3356.9976L13541.9389,-3357.0014L13541.9391,-3357.0039L13541.9429,-3357.0078L13541.9396,-3357.0125L13541.9408,-3357.0152L13541.9425,-3357.0175L13541.9396,-3357.022L13541.9402,-3357.0246L13541.943,-3357.0263L13541.9444,-3357.0286L13541.9478,-3357.0294L13541.9528,-3357.0286L13541.9563,-3357.0281L13541.958,-3357.0306L13541.9586,-3357.0321L13541.9622,-3357.0321L13541.9662,-3357.0305L13541.9682,-3357.0318L13541.9698,-3357.0325L13541.9734,-3357.0317L13541.9764,-3357.0294L13541.9795,-3357.0306L13541.9821,-3357.0324L13541.9823,-3357.0324L13541.9846,-3357.0318L13541.9901,-3357.0307L13541.991,-3357.0333L13541.991,-3357.0342L13541.9852,-3357.0379L13541.9858,-3357.0404L13541.9832,-3357.042L13541.9822,-3357.0427L13541.9805,-3357.0437L13541.9801,-3357.0459L13541.9822,-3357.0468L13541.9833,-3357.0474L13541.9821,-3357.0514L13541.9821,-3357.0515L13541.9821,-3357.0516L13541.9838,-3357.0538L13541.9883,-3357.0561L13541.9927,-3357.056L13541.9933,-3357.0591L13541.9939,-3357.0608L13541.9964,-3357.0629L13541.9982,-3357.0677L13542.0014,-3357.0703L13542.0049,-3357.0703L13542.0085,-3357.0694L13542.01,-3357.0707L13542.0098,-3357.0736L13542.0115,-3357.076L13542.0142,-3357.078L13542.0166,-3357.079L13542.0188,-3357.0827L13542.0221,-3357.085L13542.0262,-3357.0844L13542.0283,-3357.086L13542.0311,-3357.0881L13542.032,-3357.0905L13542.0321,-3357.0918L13542.0286,-3357.0937L13542.0283,-3357.0966L13542.0278,-3357.0998L13542.0256,-3357.1011L13542.0262,-3357.1041L13542.0258,-3357.1055L13542.0213,-3357.1067L13542.0206,-3357.109L13542.0218,-3357.1115L13542.0191,-3357.1151L13542.0196,-3357.1177L13542.0216,-3357.1211L13542.0207,-3357.1236L13542.0165,-3357.1256L13542.0153,-3357.1283L13542.0165,-3357.1306L13542.0176,-3357.1328L13542.0152,-3357.136L13542.0162,-3357.139L13542.0188,-3357.1421L13542.0159,-3357.1455L13542.0154,-3357.1483L13542.019,-3357.1497L13542.0196,-3357.1513L13542.0191,-3357.1551L13542.0209,-3357.1575L13542.0244,-3357.1572L13542.0263,-3357.1578L13542.027,-3357.1607L13542.0289,-3357.1627L13542.0334,-3357.1636L13542.0352,-3357.1637L13542.0333,-3357.1676L13542.0346,-3357.1703L13542.0369,-3357.1725L13542.0375,-3357.1765L13542.0405,-3357.1777L13542.0439,-3357.1775L13542.0479,-3357.1756L13542.0524,-3357.1765L13542.0561,-3357.1748L13542.0575,-3357.1715L13542.0606,-3357.1699L13542.0635,-3357.1715L13542.0678,-3357.177L13542.0725,-3357.1808L13542.08,-3357.1853L13542.0848,-3357.1885L13542.0859,-3357.1903L13542.0859,-3357.193L13542.0818,-3357.1993L13542.077,-3357.2072L13542.0749,-3357.213L13542.0741,-3357.2179L13542.0739,-3357.2227L13542.0754,-3357.2314L13542.0784,-3357.2393L13542.083,-3357.2454L13542.0846,-3357.2487L13542.0843,-3357.2508L13542.0802,-3357.2519L13542.0664,-3357.2545L13542.0595,-3357.2575L13542.0563,-3357.2612L13542.0517,-3357.2684L13542.05,-3357.2734L13542.0503,-3357.2801L13542.0512,-3357.2859L13542.051,-3357.293L13542.0496,-3357.3033L13542.05,-3357.309L13542.0516,-3357.3128L13542.0521,-3357.3141L13542.0544,-3357.3201L13542.0554,-3357.3254L13542.0557,-3357.3283L13542.0549,-3357.3288L13542.051,-3357.3263L13542.0483,-3357.3217L13542.0448,-3357.3167L13542.0422,-3357.3128L13542.0386,-3357.3076L13542.0347,-3357.3024L13542.0301,-3357.2982L13542.0241,-3357.2934L13542.0218,-3357.291L13542.0205,-3357.2879L13542.0205,-3357.2839L13542.0206,-3357.2792L13542.0196,-3357.2734L13542.0174,-3357.2665L13542.016,-3357.2587L13542.0154,-3357.2519L13542.0143,-3357.246L13542.0125,-3357.2394L13542.0075,-3357.2267L13542.0037,-3357.2198L13541.9963,-3357.2112L13541.9882,-3357.2026L13541.9842,-3357.1972L13541.9824,-3357.1931L13541.9812,-3357.1894L13541.9806,-3357.1876L13541.9775,-3357.1826L13541.9735,-3357.1793L13541.9691,-3357.177L13541.9671,-3357.174L13541.9664,-3357.1706L13541.9672,-3357.1677L13541.9645,-3357.165L13541.964,-3357.1603L13541.9617,-3357.1569L13541.9621,-3357.1536L13541.9602,-3357.1499L13541.9593,-3357.1466L13541.958,-3357.1437L13541.9565,-3357.1424L13541.9579,-3357.1363L13541.9543,-3357.1327L13541.9537,-3357.1279L13541.9495,-3357.1267L13541.9503,-3357.1224L13541.9486,-3357.12L13541.9461,-3357.12L13541.9444,-3357.1158L13541.9342,-3357.1171L13541.9353,-3357.1115L13541.9316,-3357.1094L13541.9321,-3357.1053L13541.9285,-3357.1018L13541.9277,-3357.0965L13541.9233,-3357.0962L13541.919,-3357.0979L13541.9157,-3357.096L13541.9119,-3357.0999L13541.9019,-3357.0997L13541.8986,-3357.1038L13541.8941,-3357.1044L13541.8938,-3357.1068L13541.8905,-3357.1078L13541.8925,-3357.1137L13541.8868,-3357.1154L13541.8869,-3357.1176L13541.8829,-3357.1203L13541.8798,-3357.1235L13541.8806,-3357.129L13541.8741,-3357.1269L13541.8723,-3357.1293L13541.8749,-3357.1342L13541.8733,-3357.1381L13541.8761,-3357.1413L13541.8736,-3357.1454L13541.8746,-3357.1475L13541.8765,-3357.1492L13541.8773,-3357.1511L13541.8837,-3357.1525L13541.8841,-3357.1562L13541.8897,-3357.1564L13541.8911,-3357.1564L13541.8935,-3357.1585L13541.8926,-3357.1601L13541.8892,-3357.1623L13541.8908,-3357.165L13541.8905,-3357.1668L13541.8882,-3357.1688L13541.8895,-3357.1711L13541.8907,-3357.1731L13541.8887,-3357.1765L13541.8891,-3357.1788L13541.8913,-3357.1812L13541.889,-3357.1827L13541.8855,-3357.1824L13541.8864,-3357.1786L13541.8843,-3357.1768L13541.8825,-3357.1754L13541.8825,-3357.172L13541.8801,-3357.1704L13541.8774,-3357.1717L13541.8748,-3357.1702L13541.8719,-3357.1714L13541.8699,-3357.1738L13541.8668,-3357.1708L13541.864,-3357.1714L13541.8644,-3357.1747L13541.8612,-3357.1758L13541.861,-3357.1793L13541.8624,-3357.1818L13541.8647,-3357.1825L13541.8625,-3357.1861L13541.8634,-3357.189L13541.8651,-3357.1903L13541.8638,-3357.1912L13541.8587,-3357.1902L13541.8569,-3357.1908L13541.8553,-3357.186L13541.8534,-3357.1828L13541.8549,-3357.1797L13541.8564,-3357.1765L13541.8534,-3357.1751L13541.8533,-3357.1726L13541.8519,-3357.1698L13541.8502,-3357.1682L13541.8457,-3357.1681L13541.8433,-3357.1662L13541.8407,-3357.166L13541.8375,-3357.1686L13541.8358,-3357.1708L13541.8296,-3357.1703L13541.8275,-3357.1724L13541.8272,-3357.1766L13541.8257,-3357.1803L13541.8279,-3357.1842L13541.823,-3357.1837L13541.8215,-3357.1851L13541.8216,-3357.1873L13541.8184,-3357.1897L13541.8182,-3357.1924L13541.8163,-3357.1938L13541.8118,-3357.1948L13541.8117,-3357.1972L13541.8123,-3357.1999L13541.8101,-3357.2034L13541.8113,-3357.2063L13541.8132,-3357.2089L13541.8185,-3357.2111L13541.8207,-3357.2148L13541.8235,-3357.2163L13541.8261,-3357.2172L13541.8285,-3357.2211L13541.8316,-3357.2222L13541.8346,-3357.2213L13541.8383,-3357.223L13541.8411,-3357.2229L13541.8443,-3357.2204L13541.8515,-3357.2198L13541.8534,-3357.2179L13541.855,-3357.2153L13541.8592,-3357.2155L13541.8608,-3357.2126L13541.8646,-3357.2134L13541.8672,-3357.2156L13541.8708,-3357.2138L13541.8757,-3357.2116L13541.8727,-3357.206L13541.8721,-3357.201L13541.8743,-3357.1978L13541.8787,-3357.2012L13541.8825,-3357.1991L13541.8881,-3357.2002L13541.8919,-3357.1976L13541.8924,-3357.2017L13541.8967,-3357.2028L13541.8978,-3357.2062L13541.9018,-3357.2079L13541.9061,-3357.2093L13541.9039,-3357.2137L13541.905,-3357.216L13541.9025,-3357.22L13541.9036,-3357.2225L13541.9077,-3357.224L13541.9031,-3357.2286L13541.9049,-3357.2331L13541.9094,-3357.2354L13541.9085,-3357.2406L13541.9117,-3357.2429L13541.9109,-3357.2462L13541.9154,-3357.2506L13541.9156,-3357.2553L13541.9203,-3357.2582L13541.9215,-3357.2633L13541.9255,-3357.2652L13541.9323,-3357.2646L13541.9318,-3357.2684L13541.9363,-3357.2708L13541.9392,-3357.2716L13541.9399,-3357.2755L13541.9426,-3357.2772L13541.9429,-3357.281L13541.9469,-3357.2836L13541.9523,-3357.2841L13541.9539,-3357.2873L13541.9575,-3357.288L13541.9602,-3357.2915L13541.9656,-3357.2916L13541.9669,-3357.2937L13541.9698,-3357.2951L13541.974,-3357.2953L13541.9741,-3357.2977L13541.9673,-3357.299L13541.9663,-3357.3024L13541.9623,-3357.3031L13541.9616,-3357.3061L13541.958,-3357.307L13541.957,-3357.3111L13541.9557,-3357.3124L13541.9514,-3357.3164L13541.951,-3357.3192L13541.9483,-3357.3211L13541.9494,-3357.3241L13541.9477,-3357.327L13541.9486,-3357.3295L13541.9463,-3357.3337L13541.9476,-3357.3372L13541.951,-3357.3405L13541.9543,-3357.3454L13541.9576,-3357.3516L13541.9568,-3357.3542L13541.9467,-3357.3623L13541.9381,-3357.3668L13541.9348,-3357.3666L13541.9297,-3357.3651L13541.9239,-3357.3655L13541.919,-3357.3684L13541.9148,-3357.3745L13541.9119,-3357.3767L13541.9077,-3357.3769L13541.9054,-3357.3765L13541.9041,-3357.3729L13541.9015,-3357.3707L13541.9028,-3357.3673L13541.9042,-3357.3645L13541.9001,-3357.3621L13541.9033,-3357.3594L13541.9034,-3357.3552L13541.9023,-3357.3534L13541.9059,-3357.3504L13541.9061,-3357.3484L13541.9054,-3357.3467L13541.9084,-3357.3449L13541.9093,-3357.3411L13541.9088,-3357.3386L13541.9045,-3357.3372L13541.9008,-3357.339L13541.8995,-3357.3406L13541.8949,-3357.3409L13541.8916,-3357.3436L13541.8899,-3357.3404L13541.8866,-3357.3387L13541.8883,-3357.3363L13541.8875,-3357.3322L13541.892,-3357.3301L13541.8922,-3357.3261L13541.8899,-3357.3241L13541.8855,-3357.3229L13541.8826,-3357.3233L13541.8813,-3357.3199L13541.8785,-3357.3185L13541.8743,-3357.3198L13541.8744,-3357.3164L13541.872,-3357.3141L13541.8693,-3357.3133L13541.8656,-3357.3145L13541.866,-3357.318L13541.8618,-3357.3172L13541.8593,-3357.3192L13541.8584,-3357.3211L13541.8552,-3357.3201L13541.8526,-3357.3208L13541.852,-3357.3233L13541.8465,-3357.3222L13541.8427,-3357.3243L13541.8419,-3357.3274L13541.8378,-3357.3277L13541.8344,-3357.3281L13541.8338,-3357.3326L13541.8293,-3357.3313L13541.8251,-3357.3327L13541.8235,-3357.3348L13541.8198,-3357.3349L13541.8144,-3357.3363L13541.813,-3357.3411L13541.8082,-3357.345L13541.8088,-3357.3496L13541.8072,-3357.3545L13541.8079,-3357.3579L13541.8046,-3357.3622L13541.8077,-3357.3665L13541.8051,-3357.3757L13541.8089,-3357.3792L13541.8071,-3357.3821L13541.8093,-3357.3849L13541.8068,-3357.388L13541.8073,-3357.391L13541.8009,-3357.3882L13541.7975,-3357.39L13541.7953,-3357.3861L13541.7898,-3357.3867L13541.7908,-3357.3812L13541.7893,-3357.3781L13541.7934,-3357.3756L13541.7915,-3357.3726L13541.7945,-3357.3698L13541.7915,-3357.3657L13541.7894,-3357.3645L13541.7873,-3357.3614L13541.7823,-3357.3619L13541.7795,-3357.3632L13541.7776,-3357.3603L13541.7717,-3357.3622L13541.7675,-3357.3602L13541.7644,-3357.3622L13541.7641,-3357.3675L13541.7597,-3357.3668L13541.7605,-3357.3711L13541.7565,-3357.3757L13541.7589,-3357.379L13541.7571,-3357.3827L13541.7598,-3357.3853L13541.7644,-3357.3857L13541.7628,-3357.3909L13541.7642,-3357.3933L13541.7627,-3357.3983L13541.7653,-3357.4005L13541.766,-3357.4047L13541.7686,-3357.4069L13541.7731,-3357.4072L13541.7706,-3357.4113L13541.7719,-3357.4128L13541.7753,-3357.4131L13541.7789,-3357.4112L13541.7825,-3357.4112L13541.7858,-3357.4102L13541.7869,-3357.4058L13541.7911,-3357.4053L13541.7952,-3357.4028L13541.7965,-3357.4047L13541.7977,-3357.408L13541.7954,-3357.4103L13541.7972,-3357.4137L13541.7998,-3357.4162L13541.7993,-3357.421L13541.7998,-3357.4219Z"/>
<path content="和歌山県,,西牟婁郡,白浜町,,30401" xlink:title="和歌山県" d="M13541.1223,-3357.3947L13541.1244,-3357.3914L13541.1271,-3357.3886L13541.1331,-3357.3886L13541.1403,-3357.3878L13541.1444,-3357.3855L13541.1446,-3357.3824L13541.1387,-3357.3784L13541.1345,-3357.3694L13541.1308,-3357.367L13541.1271,-3357.3649L13541.123,-3357.3655L13541.1177,-3357.3659L13541.1117,-3357.3638L13541.103,-3357.3533L13541.0885,-3357.3551L13541.0833,-3357.3537L13541.0725,-3357.3523L13541.0691,-3357.3572L13541.0817,-3357.3773L13541.0809,-3357.3827L13541.0819,-3357.3875L13541.0921,-3357.3943L13541.0953,-3357.3954L13541.1024,-3357.3959L13541.1082,-3357.3943L13541.1156,-3357.3948L13541.121,-3357.3971L13541.1223,-3357.3947Z"/>
<path content="和歌山県,,西牟婁郡,白浜町,,30401" xlink:title="和歌山県" d="M13541.1334,-3357.413L13541.1291,-3357.4078L13541.1235,-3357.4075L13541.1156,-3357.4112L13541.1094,-3357.4106L13541.1049,-3357.4106L13541.1001,-3357.414L13541.1025,-3357.4219L13541.1334,-3357.4219L13541.1334,-3357.413Z"/>
<path content="和歌山県,,西牟婁郡,白浜町,,30401" xlink:title="和歌山県" d="M13541.3101,-3357.3679L13541.306,-3357.3674L13541.3005,-3357.3679L13541.2965,-3357.3712L13541.293,-3357.3744L13541.2885,-3357.3764L13541.2859,-3357.3787L13541.2844,-3357.3825L13541.2832,-3357.3887L13541.2841,-3357.391L13541.2884,-3357.3928L13541.2924,-3357.3951L13541.2956,-3357.4001L13541.2989,-3357.4028L13541.302,-3357.4034L13541.3058,-3357.4024L13541.3086,-3357.3984L13541.3126,-3357.3923L13541.3162,-3357.3888L13541.3206,-3357.3857L13541.322,-3357.3823L13541.3208,-3357.3787L13541.3158,-3357.376L13541.313,-3357.3715L13541.3101,-3357.3679Z"/>
<path content="和歌山県,,西牟婁郡,白浜町,,30401" xlink:title="和歌山県" d="M13543.2284,-3356.6262L13543.223,-3356.6239L13543.2163,-3356.6256L13543.2143,-3356.6273L13543.2122,-3356.6318L13543.2116,-3356.6374L13543.2143,-3356.6431L13543.2223,-3356.651L13543.2277,-3356.6538L13543.2311,-3356.6583L13543.2344,-3356.6566L13543.2378,-3356.6425L13543.2378,-3356.6391L13543.2284,-3356.6262Z"/>
<path content="和歌山県,,西牟婁郡,白浜町,,30401" xlink:title="和歌山県" d="M13543.2499,-3356.6741L13543.2452,-3356.6741L13543.2425,-3356.6763L13543.2398,-3356.6814L13543.2398,-3356.6904L13543.2418,-3356.6944L13543.2466,-3356.6966L13543.2526,-3356.6961L13543.254,-3356.6949L13543.2573,-3356.6842L13543.2573,-3356.682L13543.2553,-3356.6786L13543.2499,-3356.6741Z"/>
<path content="和歌山県,,西牟婁郡,白浜町,,30401" xlink:title="和歌山県" d="M13542.145,-3357.0027L13542.145,-3357.0011L13542.1436,-3356.9999L13542.1396,-3356.9999L13542.1329,-3357.0022L13542.1275,-3357.0016L13542.1234,-3357.0044L13542.1208,-3357.0112L13542.1255,-3357.0146L13542.143,-3357.005L13542.145,-3357.0027Z"/>
<path content="和歌山県,,西牟婁郡,白浜町,,30401" xlink:title="和歌山県" d="M13542.4767,-3356.8477L13542.474,-3356.8477L13542.4693,-3356.8505L13542.468,-3356.8528L13542.468,-3356.8551L13542.472,-3356.859L13542.4747,-3356.859L13542.4774,-3356.8567L13542.4794,-3356.8505L13542.4767,-3356.8477Z"/>
<path content="和歌山県,,西牟婁郡,白浜町,,30401" xlink:title="和歌山県" d="M13543.2667,-3356.7152L13543.2627,-3356.7152L13543.2607,-3356.7175L13543.2607,-3356.7209L13543.2641,-3356.7254L13543.2688,-3356.7231L13543.2694,-3356.7181L13543.2667,-3356.7152Z"/>
<path content="和歌山県,,西牟婁郡,白浜町,,30401" xlink:title="和歌山県" d="M13542.6544,-3356.9351L13542.653,-3356.9351L13542.6504,-3356.9374L13542.649,-3356.9402L13542.6497,-3356.9441L13542.6524,-3356.9464L13542.6557,-3356.9436L13542.6571,-3356.9407L13542.6571,-3356.9374L13542.6544,-3356.9351Z"/>
</g>
</svg>
