<?xml version="1.0" encoding="UTF-8"?>
<svg  xmlns="http://www.w3.org/2000/svg" xmlns:xlink="http://www.w3.org/1999/xlink" xmlns:go="http://purl.org/svgmap/profile" property="geometry,N03_001,N03_002,N03_003,N03_004,N03_005,N03_007" viewBox="13631.8359375 -3524.4140625 8.7890625 8.7890625" go:dataArea="13631.8359375 -3524.4140625 8.7890625 8.7890625" >
<metadata>
 <rdf:RDF xmlns:rdf="http://www.w3.org/1999/02/22-rdf-syntax-ns#" xmlns:crs="http://opengis.org/xmldtds/transformations.dtd" xmlns:svg="http://www.w3.org/svg" >
  <rdf:Description>
   <crs:CoordinateReferenceSystem rdf:resource="http://purl.org/crs/84" svg:transform="matrix(100.0,0.0,0.0,-100.0,0.0,0.0)" />
  </rdf:Description>
 </rdf:RDF>
</metadata>
<globalCoordinateSystem srsName="http://purl.org/crs/84" transform="matrix(100.0,0.0,0.0,-100.0,0.0,0.0)" />
<defs>
 <g id="p0" >
  <circle cx="0.0" cy="0.0" r="3" stroke="green" stroke-width="2.0" vector-effect="non-scaling-stroke" />
 </g>
</defs>
<g fill="#0000ff" fill-rule="evenodd" opacity="0.5" >
<path content="滋賀県,,,東近江市,,25213" xlink:title="滋賀県" d="M13640.625,-3515.625L13638.7678,-3515.625L13638.7633,-3515.6286L13638.7484,-3515.6407L13638.7421,-3515.6452L13638.7355,-3515.6495L13638.7306,-3515.6519L13638.7232,-3515.6532L13638.7126,-3515.6523L13638.6927,-3515.6497L13638.6825,-3515.6478L13638.6788,-3515.6478L13638.6741,-3515.6493L13638.6643,-3515.6562L13638.6512,-3515.6763L13638.6439,-3515.6923L13638.6365,-3515.738L13638.6341,-3515.7499L13638.6321,-3515.7538L13638.6181,-3515.7847L13638.6152,-3515.7914L13638.6116,-3515.795L13638.6034,-3515.7986L13638.5929,-3515.8024L13638.5869,-3515.8071L13638.5821,-3515.8139L13638.5779,-3515.821L13638.5724,-3515.8333L13638.5679,-3515.8434L13638.5604,-3515.8603L13638.5535,-3515.8698L13638.5373,-3515.8926L13638.5322,-3515.9061L13638.5306,-3515.9134L13638.533,-3515.9235L13638.5361,-3515.9456L13638.5361,-3515.9518L13638.5346,-3515.9589L13638.5317,-3515.9622L13638.4897,-3515.9818L13638.4694,-3515.9898L13638.4534,-3515.9983L13638.4101,-3516.0267L13638.3888,-3516.0341L13638.3647,-3516.0377L13638.3333,-3516.0391L13638.3117,-3516.0401L13638.2872,-3516.0401L13638.2824,-3516.0418L13638.2764,-3516.0472L13638.2682,-3516.0629L13638.2662,-3516.0668L13638.2599,-3516.0783L13638.2544,-3516.088L13638.2402,-3516.1012L13638.2233,-3516.123L13638.2151,-3516.1305L13638.2086,-3516.134L13638.1915,-3516.1409L13638.1519,-3516.1519L13638.1107,-3516.1627L13638.0891,-3516.1723L13638.0729,-3516.1851L13638.0537,-3516.2035L13638.039,-3516.2182L13638.0274,-3516.2371L13638.0096,-3516.2825L13637.9999,-3516.3223L13637.9979,-3516.3382L13637.9999,-3516.3543L13638.0068,-3516.3931L13638.0073,-3516.4103L13638.0064,-3516.4192L13638.0053,-3516.4297L13638.0024,-3516.4406L13637.9954,-3516.4507L13637.9905,-3516.457L13637.9801,-3516.4675L13637.9649,-3516.4818L13637.9475,-3516.4988L13637.9439,-3516.5058L13637.9432,-3516.5148L13637.9449,-3516.5329L13637.9463,-3516.5532L13637.9457,-3516.5625L13637.9394,-3516.5726L13637.914,-3516.5959L13637.8914,-3516.6152L13637.8861,-3516.6212L13637.8701,-3516.6341L13637.8364,-3516.6504L13637.8197,-3516.6586L13637.8087,-3516.6667L13637.8086,-3516.6667L13637.8023,-3516.6754L13637.7971,-3516.6877L13637.7907,-3516.6998L13637.7855,-3516.7039L13637.7703,-3516.7099L13637.7385,-3516.7226L13637.7293,-3516.7283L13637.7233,-3516.735L13637.7177,-3516.7479L13637.7145,-3516.7583L13637.7117,-3516.7672L13637.7044,-3516.7853L13637.6803,-3516.8172L13637.6642,-3516.8436L13637.6455,-3516.8774L13637.6303,-3516.904L13637.6227,-3516.9118L13637.6067,-3516.9275L13637.5961,-3516.9433L13637.5919,-3516.9513L13637.5851,-3516.9698L13637.5857,-3516.9884L13637.5872,-3517.0059L13637.593,-3517.0408L13637.5981,-3517.0698L13637.6111,-3517.1035L13637.6148,-3517.1202L13637.6136,-3517.1251L13637.5987,-3517.146L13637.5554,-3517.1963L13637.5318,-3517.2239L13637.5263,-3517.2366L13637.5263,-3517.2438L13637.5369,-3517.2683L13637.537,-3517.272L13637.5373,-3517.282L13637.5336,-3517.2974L13637.52,-3517.3224L13637.5112,-3517.3373L13637.5121,-3517.3448L13637.5194,-3517.3539L13637.5306,-3517.3604L13637.5503,-3517.3664L13637.6148,-3517.3975L13637.6251,-3517.4042L13637.6266,-3517.4109L13637.6275,-3517.4318L13637.6239,-3517.4619L13637.62,-3517.5L13637.6199,-3517.501L13637.6154,-3517.5276L13637.6057,-3517.541L13637.5871,-3517.5608L13637.5689,-3517.5837L13637.5642,-3517.592L13637.5557,-3517.607L13637.5429,-3517.6184L13637.5011,-3517.6339L13637.5,-3517.6349L13637.4859,-3517.6474L13637.4699,-3517.6693L13637.4575,-3517.6918L13637.4539,-3517.6983L13637.4484,-3517.7224L13637.4484,-3517.7452L13637.4599,-3517.7812L13637.4706,-3517.8181L13637.4751,-3517.8288L13637.4872,-3517.8413L13637.5,-3517.8521L13637.5297,-3517.8774L13637.5551,-3517.9013L13637.5739,-3517.9249L13637.5839,-3517.9496L13637.5887,-3517.9744L13637.5912,-3517.999L13637.5884,-3518.0251L13637.5861,-3518.0312L13637.5757,-3518.0574L13637.5473,-3518.0847L13637.5275,-3518.1097L13637.5097,-3518.1542L13637.5073,-3518.1799L13637.5109,-3518.1921L13637.5309,-3518.2224L13637.533,-3518.2308L13637.5321,-3518.2663L13637.5351,-3518.2812L13637.5406,-3518.2859L13637.5678,-3518.2996L13637.576,-3518.3103L13637.5903,-3518.3319L13637.5917,-3518.3333L13637.607,-3518.3487L13637.6182,-3518.3596L13637.62,-3518.3758L13637.6324,-3518.3865L13637.6343,-3518.3929L13637.6279,-3518.4118L13637.6336,-3518.4508L13637.6348,-3518.4699L13637.6318,-3518.4899L13637.6303,-3518.5021L13637.6333,-3518.5182L13637.6461,-3518.551L13637.6449,-3518.5929L13637.6461,-3518.6021L13637.6521,-3518.6088L13637.6606,-3518.613L13637.6833,-3518.6203L13637.7139,-3518.6337L13637.7519,-3518.6627L13637.784,-3518.6952L13637.8109,-3518.7143L13637.828,-3518.7239L13637.8416,-3518.7263L13637.8694,-3518.7221L13637.8755,-3518.7226L13637.877,-3518.7298L13637.8778,-3518.7632L13637.8788,-3518.8058L13637.8849,-3518.8376L13637.8874,-3518.868L13637.8979,-3518.8782L13637.9231,-3518.9024L13637.9407,-3518.938L13637.9463,-3518.9449L13637.9575,-3518.9471L13637.9636,-3518.9466L13637.9736,-3518.9414L13637.9905,-3518.9332L13638.012,-3518.9294L13638.0384,-3518.927L13638.1105,-3518.9171L13638.1296,-3518.9261L13638.1569,-3518.9328L13638.1841,-3518.9278L13638.2223,-3518.9151L13638.2468,-3518.9084L13638.2711,-3518.907L13638.2798,-3518.9064L13638.3098,-3518.9109L13638.3333,-3518.9109L13638.3567,-3518.9109L13638.3803,-3518.9174L13638.4018,-3518.9305L13638.4395,-3518.9715L13638.4641,-3518.9881L13638.4983,-3518.9993L13638.5246,-3519.0102L13638.5832,-3519.0434L13638.6044,-3519.062L13638.6185,-3519.0854L13638.6257,-3519.0894L13638.643,-3519.0884L13638.6824,-3519.0762L13638.697,-3519.0734L13638.7053,-3519.0719L13638.7205,-3519.069L13638.7417,-3519.07L13638.7572,-3519.0772L13638.7747,-3519.0926L13638.7793,-3519.1078L13638.7771,-3519.1314L13638.7763,-3519.1404L13638.7781,-3519.1606L13638.7799,-3519.1667L13638.7875,-3519.1917L13638.8021,-3519.2163L13638.8105,-3519.2298L13638.8175,-3519.2587L13638.8357,-3519.3243L13638.8391,-3519.3508L13638.8377,-3519.3595L13638.833,-3519.3911L13638.8218,-3519.4363L13638.8203,-3519.481L13638.8218,-3519.5178L13638.8233,-3519.5539L13638.8327,-3519.5893L13638.8403,-3519.6199L13638.8609,-3519.6475L13638.8782,-3519.6647L13638.9085,-3519.6796L13638.915,-3519.6784L13638.9465,-3519.6598L13638.9637,-3519.6516L13639.0217,-3519.6403L13639.0393,-3519.6333L13639.0657,-3519.6129L13639.0832,-3519.603L13639.1381,-3519.5901L13639.1419,-3519.5888L13639.1667,-3519.5802L13639.1678,-3519.5798L13639.1783,-3519.5743L13639.2087,-3519.558L13639.2226,-3519.5462L13639.2302,-3519.5388L13639.2372,-3519.5189L13639.2799,-3519.4775L13639.2898,-3519.4702L13639.3069,-3519.4576L13639.3314,-3519.4484L13639.3816,-3519.4337L13639.4067,-3519.4251L13639.4401,-3519.4138L13639.4533,-3519.4093L13639.4845,-3519.4011L13639.5083,-3519.3923L13639.5345,-3519.3825L13639.548,-3519.3737L13639.5577,-3519.3638L13639.5634,-3519.3448L13639.5643,-3519.3038L13639.5664,-3519.2805L13639.5704,-3519.2616L13639.5749,-3519.2479L13639.5867,-3519.234L13639.6322,-3519.2004L13639.6792,-3519.18L13639.7038,-3519.1667L13639.7487,-3519.1424L13639.7823,-3519.121L13639.8074,-3519.0971L13639.8666,-3519.0369L13639.8938,-3519.0182L13639.9095,-3519.0119L13639.9208,-3519.0074L13639.9451,-3518.993L13639.9687,-3518.9789L13640,-3518.9572L13640.0033,-3518.9549L13640.0202,-3518.9445L13640.035,-3518.9401L13640.0466,-3518.9366L13640.0835,-3518.9348L13640.1073,-3518.9326L13640.1322,-3518.9229L13640.1552,-3518.9037L13640.1833,-3518.8896L13640.1985,-3518.8786L13640.2204,-3518.8628L13640.2555,-3518.827L13640.2701,-3518.8059L13640.288,-3518.7876L13640.3319,-3518.759L13640.3583,-3518.7488L13640.3694,-3518.7473L13640.3878,-3518.7519L13640.4117,-3518.7713L13640.4271,-3518.7802L13640.4777,-3518.7917L13640.5129,-3518.7939L13640.5857,-3518.7864L13640.625,-3518.7777Z"/>
<path content="滋賀県,,犬上郡,多賀町,,25443" xlink:title="滋賀県" d="M13637.8694,-3524.4141L13637.8125,-3524.372L13637.7859,-3524.3589L13637.7563,-3524.3501L13637.7338,-3524.3413L13637.7267,-3524.3267L13637.729,-3524.3161L13637.7403,-3524.2991L13637.7557,-3524.2879L13637.7926,-3524.2741L13637.8263,-3524.2649L13637.8701,-3524.2387L13637.8939,-3524.1667L13637.8939,-3524.1667L13637.8961,-3524.16L13637.9039,-3524.1379L13637.9374,-3524.1169L13637.9743,-3524.0937L13638.0389,-3524.0738L13638.1139,-3524.0585L13638.1439,-3524.0524L13638.1871,-3524.0538L13638.2046,-3524.0521L13638.2161,-3524.0509L13638.2303,-3524.0446L13638.2616,-3524.0131L13638.2974,-3523.9905L13638.3311,-3523.9832L13638.3333,-3523.982L13638.3333,-3523.982L13638.3613,-3523.9667L13638.3637,-3523.9641L13638.3737,-3523.9531L13638.3761,-3523.9395L13638.3808,-3523.9201L13638.3927,-3523.901L13638.4205,-3523.8714L13638.4489,-3523.8496L13638.4614,-3523.8355L13638.4714,-3523.8057L13638.5076,-3523.7308L13638.533,-3523.7002L13638.5437,-3523.6709L13638.5532,-3523.6243L13638.5532,-3523.5396L13638.5686,-3523.5115L13638.5826,-3523.5074L13638.6082,-3523.4998L13638.6585,-3523.4857L13638.7117,-3523.4667L13638.7144,-3523.4657L13638.7748,-3523.4604L13638.8204,-3523.4555L13638.8357,-3523.4531L13638.8695,-3523.4327L13638.8849,-3523.4273L13638.9541,-3523.439L13638.9899,-3523.4414L13639.0787,-3523.4395L13639.1381,-3523.4379L13639.1667,-3523.4319L13639.1667,-3523.4319L13639.1724,-3523.4307L13639.205,-3523.4181L13639.2411,-3523.3816L13639.2695,-3523.3374L13639.2713,-3523.3333L13639.2713,-3523.3333L13639.2867,-3523.2974L13639.3032,-3523.2381L13639.3311,-3523.1886L13639.3654,-3523.1464L13639.3787,-3523.1144L13639.3829,-3523.0806L13639.3827,-3523.0797L13639.3808,-3523.0651L13639.3609,-3523.0463L13639.3437,-3523.0352L13639.2937,-3523.0232L13639.249,-3523.0007L13639.2419,-3522.9926L13639.2413,-3522.9868L13639.2472,-3522.982L13639.2813,-3522.9653L13639.3242,-3522.9546L13639.3908,-3522.9363L13639.3993,-3522.9339L13639.4366,-3522.9228L13639.4691,-3522.9199L13639.4981,-3522.9138L13639.5312,-3522.8973L13639.5474,-3522.8833L13639.5844,-3522.8753L13639.6214,-3522.8726L13639.643,-3522.8656L13639.6791,-3522.8452L13639.7084,-3522.8352L13639.7519,-3522.8181L13639.7797,-3522.8111L13639.8226,-3522.8096L13639.8519,-3522.8074L13639.8584,-3522.8047L13639.8699,-3522.7969L13639.885,-3522.7693L13639.9046,-3522.7157L13639.9134,-3522.6522L13639.9134,-3522.615L13639.9134,-3522.6059L13639.9191,-3522.5952L13639.9297,-3522.5868L13639.946,-3522.5824L13639.9587,-3522.5824L13639.9929,-3522.587L13640,-3522.5876L13640,-3522.5876L13640.0808,-3522.5943L13640.0864,-3522.5931L13640.1188,-3522.5714L13640.1451,-3522.5427L13640.1591,-3522.5171L13640.1689,-3522.5057L13640.1861,-3522.5016L13640.2046,-3522.5L13640.2047,-3522.5L13640.2085,-3522.4997L13640.2118,-3522.5L13640.2118,-3522.5L13640.2227,-3522.5011L13640.2585,-3522.5179L13640.304,-3522.5398L13640.3146,-3522.5395L13640.3354,-3522.533L13640.3572,-3522.516L13640.3678,-3522.5L13640.3678,-3522.5L13640.3786,-3522.4838L13640.4168,-3522.4481L13640.4512,-3522.4228L13640.4737,-3522.4077L13640.4796,-3522.4056L13640.4911,-3522.4072L13640.5151,-3522.4121L13640.5536,-3522.4186L13640.5972,-3522.4167L13640.625,-3522.4104L13640.625,-3518.7777L13640.5857,-3518.7864L13640.5129,-3518.7939L13640.4777,-3518.7917L13640.4271,-3518.7802L13640.4117,-3518.7713L13640.3878,-3518.7519L13640.3694,-3518.7473L13640.3583,-3518.7488L13640.3319,-3518.759L13640.288,-3518.7876L13640.2701,-3518.8059L13640.2555,-3518.827L13640.2204,-3518.8628L13640.1985,-3518.8786L13640.1833,-3518.8896L13640.1552,-3518.9037L13640.1322,-3518.9229L13640.1073,-3518.9326L13640.0835,-3518.9348L13640.0466,-3518.9366L13640.035,-3518.9401L13640.0202,-3518.9445L13640.0033,-3518.9549L13640,-3518.9572L13639.9687,-3518.9789L13639.9451,-3518.993L13639.9208,-3519.0074L13639.9095,-3519.0119L13639.8938,-3519.0182L13639.8666,-3519.0369L13639.8074,-3519.0971L13639.7823,-3519.121L13639.7487,-3519.1424L13639.7038,-3519.1667L13639.6792,-3519.18L13639.6322,-3519.2004L13639.5867,-3519.234L13639.5749,-3519.2479L13639.5704,-3519.2616L13639.5664,-3519.2805L13639.5643,-3519.3038L13639.5634,-3519.3448L13639.5577,-3519.3638L13639.548,-3519.3737L13639.5345,-3519.3825L13639.5083,-3519.3923L13639.4845,-3519.4011L13639.4533,-3519.4093L13639.4401,-3519.4138L13639.4067,-3519.4251L13639.3816,-3519.4337L13639.3314,-3519.4484L13639.3069,-3519.4576L13639.2898,-3519.4702L13639.2799,-3519.4775L13639.2372,-3519.5189L13639.2302,-3519.5388L13639.2226,-3519.5462L13639.2087,-3519.558L13639.1783,-3519.5743L13639.1678,-3519.5798L13639.1667,-3519.5802L13639.1419,-3519.5888L13639.1381,-3519.5901L13639.0832,-3519.603L13639.0657,-3519.6129L13639.0393,-3519.6333L13639.0217,-3519.6403L13638.9637,-3519.6516L13638.9465,-3519.6598L13638.915,-3519.6784L13638.9085,-3519.6796L13638.8782,-3519.6647L13638.8609,-3519.6475L13638.8403,-3519.6199L13638.8327,-3519.5893L13638.8233,-3519.5539L13638.8218,-3519.5178L13638.8203,-3519.481L13638.8218,-3519.4363L13638.833,-3519.3911L13638.8377,-3519.3595L13638.8391,-3519.3508L13638.8357,-3519.3243L13638.8175,-3519.2587L13638.8105,-3519.2298L13638.8021,-3519.2163L13638.7875,-3519.1917L13638.7799,-3519.1667L13638.7781,-3519.1606L13638.7763,-3519.1404L13638.7771,-3519.1314L13638.7793,-3519.1078L13638.7747,-3519.0926L13638.7572,-3519.0772L13638.7417,-3519.07L13638.7205,-3519.069L13638.7053,-3519.0719L13638.697,-3519.0734L13638.6824,-3519.0762L13638.643,-3519.0884L13638.6257,-3519.0894L13638.6185,-3519.0854L13638.6044,-3519.062L13638.5832,-3519.0434L13638.5246,-3519.0102L13638.4983,-3518.9993L13638.4641,-3518.9881L13638.4395,-3518.9715L13638.4018,-3518.9305L13638.3803,-3518.9174L13638.3567,-3518.9109L13638.3333,-3518.9109L13638.3098,-3518.9109L13638.2798,-3518.9064L13638.2711,-3518.907L13638.2468,-3518.9084L13638.2223,-3518.9151L13638.1841,-3518.9278L13638.1569,-3518.9328L13638.1296,-3518.9261L13638.1105,-3518.9171L13638.0384,-3518.927L13638.012,-3518.9294L13637.9905,-3518.9332L13637.9736,-3518.9414L13637.9636,-3518.9466L13637.9575,-3518.9471L13637.9463,-3518.9449L13637.9407,-3518.938L13637.9231,-3518.9024L13637.8979,-3518.8782L13637.8874,-3518.868L13637.8849,-3518.8376L13637.8788,-3518.8058L13637.8778,-3518.7632L13637.877,-3518.7298L13637.8755,-3518.7226L13637.8694,-3518.7221L13637.8416,-3518.7263L13637.828,-3518.7239L13637.8109,-3518.7143L13637.784,-3518.6952L13637.7519,-3518.6627L13637.7139,-3518.6337L13637.6833,-3518.6203L13637.6606,-3518.613L13637.6521,-3518.6088L13637.6461,-3518.6021L13637.6449,-3518.5929L13637.6461,-3518.551L13637.6333,-3518.5182L13637.6303,-3518.5021L13637.6318,-3518.4899L13637.6348,-3518.4699L13637.6336,-3518.4508L13637.6279,-3518.4118L13637.6343,-3518.3929L13637.6324,-3518.3865L13637.62,-3518.3758L13637.6182,-3518.3596L13637.607,-3518.3487L13637.5917,-3518.3333L13637.5903,-3518.3319L13637.576,-3518.3103L13637.5678,-3518.2996L13637.5406,-3518.2859L13637.5351,-3518.2812L13637.5321,-3518.2663L13637.533,-3518.2308L13637.5309,-3518.2224L13637.5109,-3518.1921L13637.5073,-3518.1799L13637.5097,-3518.1542L13637.5275,-3518.1097L13637.5473,-3518.0847L13637.5757,-3518.0574L13637.5861,-3518.0312L13637.5884,-3518.0251L13637.5912,-3517.999L13637.5887,-3517.9744L13637.5839,-3517.9496L13637.5739,-3517.9249L13637.5551,-3517.9013L13637.5297,-3517.8774L13637.5,-3517.8521L13637.4872,-3517.8413L13637.4751,-3517.8288L13637.4706,-3517.8181L13637.4599,-3517.7812L13637.4484,-3517.7452L13637.4484,-3517.7224L13637.4539,-3517.6983L13637.4575,-3517.6918L13637.4699,-3517.6693L13637.4859,-3517.6474L13637.5,-3517.6349L13637.5011,-3517.6339L13637.5429,-3517.6184L13637.5557,-3517.607L13637.5642,-3517.592L13637.5689,-3517.5837L13637.5871,-3517.5608L13637.6057,-3517.541L13637.6154,-3517.5276L13637.6199,-3517.501L13637.62,-3517.5L13637.6239,-3517.4619L13637.6275,-3517.4318L13637.6266,-3517.4109L13637.6251,-3517.4042L13637.6148,-3517.3975L13637.5503,-3517.3664L13637.5306,-3517.3604L13637.5194,-3517.3539L13637.5121,-3517.3448L13637.5112,-3517.3373L13637.52,-3517.3224L13637.5336,-3517.2974L13637.5373,-3517.282L13637.537,-3517.272L13637.5369,-3517.2683L13637.5263,-3517.2438L13637.5263,-3517.2366L13637.5318,-3517.2239L13637.5554,-3517.1963L13637.5987,-3517.146L13637.6136,-3517.1251L13637.6148,-3517.1202L13637.6111,-3517.1035L13637.5981,-3517.0698L13637.593,-3517.0408L13637.5872,-3517.0059L13637.5857,-3516.9884L13637.5851,-3516.9698L13637.5919,-3516.9513L13637.5961,-3516.9433L13637.6067,-3516.9275L13637.6227,-3516.9118L13637.6303,-3516.904L13637.6455,-3516.8774L13637.6642,-3516.8436L13637.6803,-3516.8172L13637.7044,-3516.7853L13637.7117,-3516.7672L13637.7145,-3516.7583L13637.7177,-3516.7479L13637.7233,-3516.735L13637.7293,-3516.7283L13637.7385,-3516.7226L13637.7703,-3516.7099L13637.7855,-3516.7039L13637.7907,-3516.6998L13637.7971,-3516.6877L13637.8023,-3516.6754L13637.8086,-3516.6667L13637.8087,-3516.6667L13637.8197,-3516.6586L13637.8364,-3516.6504L13637.8701,-3516.6341L13637.8861,-3516.6212L13637.8914,-3516.6152L13637.914,-3516.5959L13637.9394,-3516.5726L13637.9457,-3516.5625L13637.9463,-3516.5532L13637.9449,-3516.5329L13637.9432,-3516.5148L13637.9439,-3516.5058L13637.9475,-3516.4988L13637.9649,-3516.4818L13637.9801,-3516.4675L13637.9905,-3516.457L13637.9954,-3516.4507L13638.0024,-3516.4406L13638.0053,-3516.4297L13638.0064,-3516.4192L13638.0073,-3516.4103L13638.0068,-3516.3931L13637.9999,-3516.3543L13637.9979,-3516.3382L13637.9999,-3516.3223L13638.0096,-3516.2825L13638.0274,-3516.2371L13638.039,-3516.2182L13638.0537,-3516.2035L13638.0729,-3516.1851L13638.0891,-3516.1723L13638.1107,-3516.1627L13638.1519,-3516.1519L13638.1915,-3516.1409L13638.2086,-3516.134L13638.2151,-3516.1305L13638.2233,-3516.123L13638.2402,-3516.1012L13638.2544,-3516.088L13638.2599,-3516.0783L13638.2662,-3516.0668L13638.2682,-3516.0629L13638.2764,-3516.0472L13638.2824,-3516.0418L13638.2872,-3516.0401L13638.3117,-3516.0401L13638.3333,-3516.0391L13638.3647,-3516.0377L13638.3888,-3516.0341L13638.4101,-3516.0267L13638.4534,-3515.9983L13638.4694,-3515.9898L13638.4897,-3515.9818L13638.5317,-3515.9622L13638.5346,-3515.9589L13638.5361,-3515.9518L13638.5361,-3515.9456L13638.533,-3515.9235L13638.5306,-3515.9134L13638.5322,-3515.9061L13638.5373,-3515.8926L13638.5535,-3515.8698L13638.5604,-3515.8603L13638.5679,-3515.8434L13638.5724,-3515.8333L13638.5779,-3515.821L13638.5821,-3515.8139L13638.5869,-3515.8071L13638.5929,-3515.8024L13638.6034,-3515.7986L13638.6116,-3515.795L13638.6152,-3515.7914L13638.6181,-3515.7847L13638.6321,-3515.7538L13638.6341,-3515.7499L13638.6365,-3515.738L13638.6439,-3515.6923L13638.6512,-3515.6763L13638.6643,-3515.6562L13638.6741,-3515.6493L13638.6788,-3515.6478L13638.6825,-3515.6478L13638.6927,-3515.6497L13638.7126,-3515.6523L13638.7232,-3515.6532L13638.7306,-3515.6519L13638.7355,-3515.6495L13638.7421,-3515.6452L13638.7484,-3515.6407L13638.7633,-3515.6286L13638.7678,-3515.625L13631.8359,-3515.625L13631.8359,-3524.4141Z"/>
</g>
</svg>
