<?xml version="1.0" encoding="UTF-8"?>
<svg  xmlns="http://www.w3.org/2000/svg" xmlns:xlink="http://www.w3.org/1999/xlink" xmlns:go="http://purl.org/svgmap/profile" property="geometry,N03_001,N03_002,N03_003,N03_004,N03_005,N03_007" viewBox="13596.6796875 -3467.28515625 4.39453125 4.39453125" go:dataArea="13596.6796875 -3467.28515625 4.39453125 4.39453125" >
<metadata>
 <rdf:RDF xmlns:rdf="http://www.w3.org/1999/02/22-rdf-syntax-ns#" xmlns:crs="http://opengis.org/xmldtds/transformations.dtd" xmlns:svg="http://www.w3.org/svg" >
  <rdf:Description>
   <crs:CoordinateReferenceSystem rdf:resource="http://purl.org/crs/84" svg:transform="matrix(100.0,0.0,0.0,-100.0,0.0,0.0)" />
  </rdf:Description>
 </rdf:RDF>
</metadata>
<globalCoordinateSystem srsName="http://purl.org/crs/84" transform="matrix(100.0,0.0,0.0,-100.0,0.0,0.0)" />
<defs>
 <g id="p0" >
  <circle cx="0.0" cy="0.0" r="3" stroke="green" stroke-width="2.0" vector-effect="non-scaling-stroke" />
 </g>
</defs>
<g fill="#0000ff" fill-rule="evenodd" opacity="0.5" >
<path content="奈良県,,,奈良市,,29201" xlink:title="奈良県" d="M13596.6797,-3462.8906L13596.6797,-3467.2852L13596.6797,-3467.2852L13596.6797,-3465.5525L13596.6816,-3465.5517L13596.6866,-3465.5491L13596.6892,-3465.5469L13596.6921,-3465.5436L13596.6943,-3465.5384L13596.6949,-3465.533L13596.6954,-3465.5267L13596.6957,-3465.5213L13596.6966,-3465.5148L13596.6981,-3465.51L13596.6991,-3465.5048L13596.7014,-3465.4974L13596.7059,-3465.4811L13596.7085,-3465.4731L13596.7108,-3465.4669L13596.7118,-3465.4612L13596.7128,-3465.4537L13596.7141,-3465.4449L13596.7155,-3465.4374L13596.718,-3465.4324L13596.7203,-3465.43L13596.7236,-3465.4287L13596.7341,-3465.4269L13596.7442,-3465.4267L13596.7552,-3465.4279L13596.7651,-3465.4292L13596.7737,-3465.4305L13596.7739,-3465.4305L13596.783,-3465.4337L13596.7887,-3465.4376L13596.7896,-3465.4382L13596.7902,-3465.4386L13596.7942,-3465.4416L13596.7977,-3465.4454L13596.8,-3465.4476L13596.809,-3465.4502L13596.8214,-3465.4532L13596.8343,-3465.4571L13596.8461,-3465.4609L13596.8528,-3465.4629L13596.8719,-3465.4642L13596.8765,-3465.4649L13596.8806,-3465.4639L13596.8849,-3465.4622L13596.8968,-3465.4601L13596.9024,-3465.4597L13596.9137,-3465.4594L13596.9242,-3465.4592L13596.9439,-3465.4576L13596.9447,-3465.4576L13596.9578,-3465.4571L13596.9596,-3465.457L13596.97,-3465.4567L13596.9794,-3465.4571L13596.9795,-3465.4571L13596.9933,-3465.4601L13596.9987,-3465.4623L13597.0025,-3465.4641L13597.0057,-3465.4658L13597.0077,-3465.4673L13597.0095,-3465.4708L13597.0112,-3465.4736L13597.0132,-3465.477L13597.0145,-3465.4797L13597.0176,-3465.4827L13597.0214,-3465.4855L13597.0244,-3465.488L13597.0306,-3465.488L13597.0379,-3465.4872L13597.0453,-3465.4862L13597.0537,-3465.4863L13597.0573,-3465.4872L13597.0752,-3465.49L13597.081,-3465.4917L13597.0875,-3465.4928L13597.0932,-3465.4932L13597.0992,-3465.493L13597.1054,-3465.492L13597.1094,-3465.4905L13597.1138,-3465.4887L13597.1188,-3465.4858L13597.1236,-3465.4835L13597.1278,-3465.4816L13597.138,-3465.4805L13597.1456,-3465.4788L13597.1504,-3465.4776L13597.1631,-3465.477L13597.1773,-3465.4779L13597.1898,-3465.4797L13597.2075,-3465.4827L13597.2166,-3465.4849L13597.2204,-3465.4862L13597.2274,-3465.4909L13597.2328,-3465.4937L13597.2369,-3465.4966L13597.2436,-3465.4984L13597.2552,-3465.4996L13597.2704,-3465.4992L13597.2781,-3465.4987L13597.2854,-3465.4972L13597.2913,-3465.4952L13597.2963,-3465.4932L13597.3025,-3465.4906L13597.3077,-3465.4879L13597.3266,-3465.4772L13597.3474,-3465.4675L13597.3685,-3465.4599L13597.3724,-3465.4594L13597.3799,-3465.4593L13597.3853,-3465.4593L13597.3911,-3465.4611L13597.3994,-3465.4671L13597.4022,-3465.4695L13597.4075,-3465.474L13597.4173,-3465.4795L13597.4224,-3465.4808L13597.4249,-3465.4802L13597.4363,-3465.48L13597.452,-3465.4818L13597.4652,-3465.484L13597.4808,-3465.4875L13597.4925,-3465.4907L13597.5,-3465.4932L13597.502,-3465.4939L13597.5169,-3465.4982L13597.5214,-3465.5002L13597.5431,-3465.5078L13597.5675,-3465.5169L13597.5787,-3465.5207L13597.5881,-3465.5231L13597.5949,-3465.5249L13597.6054,-3465.5299L13597.6108,-3465.5327L13597.6274,-3465.5391L13597.6412,-3465.5424L13597.6596,-3465.5466L13597.6696,-3465.5488L13597.6858,-3465.551L13597.6977,-3465.5525L13597.7077,-3465.555L13597.7119,-3465.5567L13597.7225,-3465.5589L13597.737,-3465.5605L13597.7484,-3465.5619L13597.7566,-3465.5624L13597.7631,-3465.5622L13597.7696,-3465.5619L13597.7781,-3465.561L13597.7846,-3465.561L13597.7967,-3465.5632L13597.8034,-3465.564L13597.8097,-3465.567L13597.8168,-3465.5686L13597.8221,-3465.5697L13597.8313,-3465.5717L13597.8419,-3465.575L13597.86,-3465.5814L13597.8742,-3465.5872L13597.8817,-3465.5916L13597.8904,-3465.5979L13597.9013,-3465.6074L13597.9063,-3465.6122L13597.9103,-3465.6166L13597.9128,-3465.6216L13597.9167,-3465.6278L13597.9195,-3465.6343L13597.9234,-3465.64L13597.9238,-3465.6406L13597.9276,-3465.6461L13597.9283,-3465.6508L13597.9291,-3465.6589L13597.9303,-3465.6625L13597.9321,-3465.6669L13597.9356,-3465.6722L13597.9397,-3465.6782L13597.9418,-3465.6807L13597.9458,-3465.6844L13597.95,-3465.6879L13597.9542,-3465.6906L13597.9592,-3465.6927L13597.9647,-3465.6952L13597.9674,-3465.6968L13597.9739,-3465.7008L13597.9773,-3465.7038L13597.9816,-3465.7073L13597.9848,-3465.7101L13597.9888,-3465.7123L13597.9918,-3465.7143L13597.9973,-3465.7166L13598.0051,-3465.7189L13598.0112,-3465.7202L13598.0158,-3465.7221L13598.019,-3465.7242L13598.0239,-3465.7264L13598.0309,-3465.7289L13598.0351,-3465.7301L13598.0658,-3465.7306L13598.0734,-3465.7313L13598.077,-3465.7321L13598.0797,-3465.7344L13598.081,-3465.7373L13598.081,-3465.7398L13598.0815,-3465.7458L13598.0814,-3465.7476L13598.0809,-3465.7542L13598.0799,-3465.7605L13598.0775,-3465.7662L13598.0762,-3465.7722L13598.0762,-3465.7725L13598.0748,-3465.7771L13598.0733,-3465.7828L13598.0727,-3465.7867L13598.071,-3465.7902L13598.0695,-3465.7938L13598.068,-3465.7967L13598.0658,-3465.7994L13598.0618,-3465.8032L13598.0588,-3465.8049L13598.0564,-3465.8062L13598.0531,-3465.8079L13598.0491,-3465.8089L13598.0441,-3465.8106L13598.0409,-3465.8121L13598.0361,-3465.8139L13598.0312,-3465.8166L13598.0262,-3465.8187L13598.0191,-3465.8237L13598.0082,-3465.8327L13598.0075,-3465.8333L13598.0035,-3465.8372L13597.996,-3465.8452L13597.9875,-3465.8531L13597.9808,-3465.8587L13597.9717,-3465.8686L13597.9672,-3465.8733L13597.9631,-3465.879L13597.9597,-3465.8826L13597.955,-3465.886L13597.9519,-3465.8868L13597.9473,-3465.8866L13597.9381,-3465.8846L13597.934,-3465.8836L13597.9236,-3465.8843L13597.9177,-3465.8848L13597.9114,-3465.8848L13597.9071,-3465.8846L13597.894,-3465.8849L13597.8862,-3465.8852L13597.8806,-3465.8859L13597.8753,-3465.8869L13597.8689,-3465.8886L13597.8629,-3465.8899L13597.8569,-3465.8912L13597.8477,-3465.8921L13597.843,-3465.8922L13597.8398,-3465.8931L13597.8357,-3465.8942L13597.8315,-3465.8957L13597.8251,-3465.8967L13597.8216,-3465.8972L13597.8188,-3465.8977L13597.8066,-3465.8984L13597.8017,-3465.8982L13597.7976,-3465.8981L13597.7941,-3465.8967L13597.789,-3465.8959L13597.786,-3465.8959L13597.7827,-3465.8964L13597.7795,-3465.8966L13597.7737,-3465.8976L13597.7678,-3465.9001L13597.7631,-3465.9032L13597.7594,-3465.9064L13597.7566,-3465.9084L13597.7526,-3465.9101L13597.7404,-3465.9145L13597.7329,-3465.9178L13597.7248,-3465.921L13597.7173,-3465.9234L13597.7078,-3465.9264L13597.7023,-3465.9277L13597.6964,-3465.929L13597.6886,-3465.9297L13597.6832,-3465.9298L13597.676,-3465.9303L13597.6663,-3465.9308L13597.6616,-3465.9307L13597.6576,-3465.9302L13597.6546,-3465.9288L13597.6499,-3465.9268L13597.6456,-3465.9247L13597.6411,-3465.9223L13597.6365,-3465.9202L13597.6337,-3465.9195L13597.6291,-3465.9185L13597.626,-3465.9175L13597.6209,-3465.9158L13597.6149,-3465.9131L13597.6063,-3465.9115L13597.6014,-3465.9103L13597.5955,-3465.9101L13597.5922,-3465.9105L13597.5894,-3465.911L13597.5852,-3465.9116L13597.5805,-3465.9121L13597.5751,-3465.9128L13597.5699,-3465.9147L13597.5673,-3465.9162L13597.5626,-3465.9178L13597.5591,-3465.9185L13597.5504,-3465.919L13597.5437,-3465.9198L13597.5369,-3465.9207L13597.5277,-3465.9223L13597.5171,-3465.924L13597.5109,-3465.9258L13597.5081,-3465.927L13597.5056,-3465.929L13597.5039,-3465.9305L13597.5027,-3465.9322L13597.5019,-3465.934L13597.5017,-3465.9355L13597.5016,-3465.9372L13597.5014,-3465.9391L13597.5014,-3465.9414L13597.5016,-3465.9437L13597.5029,-3465.9469L13597.5051,-3465.9494L13597.5074,-3465.9512L13597.5109,-3465.9542L13597.5128,-3465.9559L13597.5143,-3465.9572L13597.517,-3465.9594L13597.5208,-3465.9607L13597.5265,-3465.9611L13597.5313,-3465.9609L13597.5359,-3465.9599L13597.5444,-3465.9574L13597.5521,-3465.9556L13597.5634,-3465.9527L13597.5781,-3465.9507L13597.5852,-3465.9506L13597.5905,-3465.9512L13597.594,-3465.9541L13597.5979,-3465.9582L13597.6019,-3465.9611L13597.6039,-3465.9626L13597.6066,-3465.9627L13597.6239,-3465.9581L13597.6324,-3465.9546L13597.6409,-3465.9521L13597.648,-3465.9502L13597.6533,-3465.9499L13597.6597,-3465.9499L13597.6642,-3465.9501L13597.6732,-3465.9519L13597.6787,-3465.9521L13597.6859,-3465.9534L13597.6906,-3465.9544L13597.6934,-3465.9551L13597.6975,-3465.9546L13597.7025,-3465.9534L13597.7068,-3465.9521L13597.7115,-3465.9509L13597.7165,-3465.9507L13597.7239,-3465.9507L13597.7294,-3465.9512L13597.7337,-3465.9518L13597.7386,-3465.9529L13597.7454,-3465.9548L13597.75,-3465.9558L13597.7538,-3465.956L13597.7568,-3465.9556L13597.7593,-3465.9541L13597.764,-3465.9521L13597.7722,-3465.9494L13597.7762,-3465.9494L13597.7787,-3465.9498L13597.782,-3465.9511L13597.7869,-3465.9534L13597.7911,-3465.9553L13597.7944,-3465.9568L13597.7967,-3465.9576L13597.7999,-3465.9574L13597.8024,-3465.9563L13597.8043,-3465.9544L13597.8049,-3465.9521L13597.8058,-3465.9494L13597.8068,-3465.9471L13597.8083,-3465.9442L13597.8108,-3465.9424L13597.815,-3465.9406L13597.8178,-3465.9396L13597.8213,-3465.9389L13597.826,-3465.9387L13597.8297,-3465.9381L13597.832,-3465.9377L13597.8342,-3465.9374L13597.8372,-3465.9342L13597.8461,-3465.9297L13597.8503,-3465.9287L13597.8553,-3465.9307L13597.8629,-3465.9321L13597.8686,-3465.9351L13597.8719,-3465.9377L13597.8754,-3465.9399L13597.8793,-3465.9416L13597.8833,-3465.9419L13597.8861,-3465.9409L13597.8886,-3465.9397L13597.8906,-3465.9372L13597.8933,-3465.9346L13597.8962,-3465.9319L13597.8987,-3465.9309L13597.9035,-3465.9297L13597.9194,-3465.9297L13597.9246,-3465.9297L13597.9323,-3465.9312L13597.9418,-3465.9342L13597.9483,-3465.9347L13597.9513,-3465.9336L13597.952,-3465.9301L13597.9527,-3465.9247L13597.9544,-3465.9207L13597.9575,-3465.9166L13597.9647,-3465.9155L13597.9746,-3465.9118L13597.9855,-3465.9058L13597.997,-3465.8991L13598.0041,-3465.8947L13598.0205,-3465.8837L13598.0347,-3465.8745L13598.0407,-3465.8703L13598.0508,-3465.8648L13598.0632,-3465.8593L13598.0779,-3465.8539L13598.0866,-3465.8509L13598.0983,-3465.8484L13598.1194,-3465.8451L13598.1276,-3465.8437L13598.1357,-3465.8432L13598.149,-3465.8431L13598.1559,-3465.8436L13598.1626,-3465.8444L13598.1701,-3465.8466L13598.1793,-3465.8497L13598.1845,-3465.8527L13598.189,-3465.8577L13598.1937,-3465.8614L13598.197,-3465.8636L13598.2086,-3465.8708L13598.2144,-3465.8768L13598.2209,-3465.8828L13598.2276,-3465.8888L13598.2345,-3465.8947L13598.24,-3465.8985L13598.2449,-3465.9013L13598.2515,-3465.9043L13598.2571,-3465.907L13598.2653,-3465.9102L13598.2699,-3465.912L13598.2779,-3465.9124L13598.2842,-3465.9121L13598.3008,-3465.91L13598.307,-3465.9102L13598.3158,-3465.9109L13598.3195,-3465.9114L13598.3224,-3465.9126L13598.3264,-3465.9152L13598.3304,-3465.9179L13598.3333,-3465.9202L13598.3352,-3465.9217L13598.3396,-3465.9264L13598.3447,-3465.9321L13598.3511,-3465.9421L13598.3543,-3465.949L13598.3554,-3465.9513L13598.357,-3465.9591L13598.3571,-3465.9648L13598.3569,-3465.9661L13598.3564,-3465.9681L13598.3551,-3465.9721L13598.3534,-3465.9758L13598.3513,-3465.9789L13598.3483,-3465.9818L13598.3451,-3465.9848L13598.3416,-3465.9873L13598.3377,-3465.99L13598.3339,-3465.993L13598.3333,-3465.9935L13598.3307,-3465.9958L13598.3275,-3465.9995L13598.3262,-3466.0025L13598.3254,-3466.0062L13598.3257,-3466.0115L13598.3259,-3466.0165L13598.3264,-3466.0197L13598.3271,-3466.0233L13598.3287,-3466.0263L13598.3333,-3466.0298L13598.3334,-3466.0299L13598.3379,-3466.032L13598.3416,-3466.0333L13598.3431,-3466.0339L13598.3493,-3466.0355L13598.3612,-3466.0414L13598.369,-3466.0457L13598.3766,-3466.0504L13598.3841,-3466.0579L13598.3896,-3466.0673L13598.3933,-3466.0741L13598.3954,-3466.0795L13598.3973,-3466.0873L13598.3978,-3466.0915L13598.3977,-3466.0946L13598.3972,-3466.0997L13598.3955,-3466.1065L13598.3933,-3466.1124L13598.3905,-3466.1212L13598.388,-3466.1289L13598.3851,-3466.1351L13598.3803,-3466.1462L13598.3784,-3466.1513L13598.3776,-3466.1544L13598.3763,-3466.1631L13598.3733,-3466.1743L13598.3724,-3466.1771L13598.3716,-3466.1803L13598.3709,-3466.1848L13598.3708,-3466.1895L13598.3711,-3466.2005L13598.3711,-3466.2007L13598.3716,-3466.2102L13598.3716,-3466.2224L13598.3714,-3466.2339L13598.3716,-3466.2403L13598.3719,-3466.2464L13598.3731,-3466.2503L13598.3737,-3466.2541L13598.3739,-3466.2579L13598.3734,-3466.2619L13598.3732,-3466.2637L13598.3731,-3466.2655L13598.3724,-3466.2683L13598.3711,-3466.271L13598.3689,-3466.2731L13598.3664,-3466.2753L13598.3639,-3466.2767L13598.3619,-3466.278L13598.3604,-3466.2796L13598.3592,-3466.2811L13598.3574,-3466.2843L13598.356,-3466.2872L13598.3552,-3466.29L13598.3545,-3466.2922L13598.3543,-3466.2947L13598.3538,-3466.3005L13598.3535,-3466.3069L13598.3535,-3466.3107L13598.3526,-3466.3127L13598.3508,-3466.3155L13598.3414,-3466.3284L13598.3333,-3466.3369L13598.3187,-3466.3524L13598.3095,-3466.3621L13598.3064,-3466.3687L13598.3022,-3466.373L13598.2958,-3466.3777L13598.2883,-3466.3832L13598.2833,-3466.3877L13598.2781,-3466.3911L13598.2748,-3466.3932L13598.2719,-3466.3937L13598.2694,-3466.3936L13598.2671,-3466.3922L13598.2639,-3466.3894L13598.2599,-3466.3847L13598.2559,-3466.3784L13598.2484,-3466.3677L13598.2417,-3466.3578L13598.24,-3466.3535L13598.2405,-3466.3492L13598.2415,-3466.3445L13598.243,-3466.338L13598.2444,-3466.3298L13598.2457,-3466.3253L13598.2485,-3466.3181L13598.2493,-3466.3161L13598.2502,-3466.3137L13598.2527,-3466.3071L13598.2539,-3466.3001L13598.2532,-3466.2961L13598.2518,-3466.2921L13598.2485,-3466.2859L13598.2437,-3466.2784L13598.2415,-3466.2747L13598.2366,-3466.2701L13598.2301,-3466.2652L13598.2237,-3466.2616L13598.2181,-3466.258L13598.2077,-3466.2502L13598.203,-3466.2462L13598.1933,-3466.2367L13598.1893,-3466.2328L13598.1865,-3466.232L13598.1813,-3466.2313L13598.1751,-3466.232L13598.1686,-3466.2342L13598.1639,-3466.2363L13598.1584,-3466.238L13598.1463,-3466.2456L13598.1242,-3466.267L13598.1152,-3466.2763L13598.0983,-3466.2927L13598.0911,-3466.3018L13598.0868,-3466.3082L13598.0794,-3466.3172L13598.0763,-3466.3209L13598.0732,-3466.3257L13598.0722,-3466.3281L13598.0715,-3466.3309L13598.0708,-3466.3351L13598.0712,-3466.3376L13598.0715,-3466.3404L13598.0725,-3466.3432L13598.0738,-3466.3459L13598.0747,-3466.3477L13598.0768,-3466.3504L13598.0804,-3466.3539L13598.0882,-3466.3581L13598.0947,-3466.3608L13598.0983,-3466.3629L13598.1101,-3466.3683L13598.122,-3466.3735L13598.1258,-3466.3752L13598.1319,-3466.3778L13598.1372,-3466.3803L13598.1409,-3466.383L13598.1449,-3466.3863L13598.1494,-3466.3912L13598.1518,-3466.3952L13598.156,-3466.402L13598.157,-3466.405L13598.1573,-3466.4082L13598.1571,-3466.4107L13598.1566,-3466.4129L13598.1563,-3466.4146L13598.1555,-3466.4159L13598.1541,-3466.4174L13598.1511,-3466.4197L13598.1416,-3466.4236L13598.1363,-3466.4259L13598.1317,-3466.4271L13598.1209,-3466.4291L13598.1201,-3466.4292L13598.1127,-3466.4301L13598.1065,-3466.4312L13598.1011,-3466.4319L13598.0961,-3466.4336L13598.0931,-3466.4347L13598.0903,-3466.4361L13598.0883,-3466.4369L13598.0857,-3466.4391L13598.0841,-3466.4413L13598.0824,-3466.4438L13598.0812,-3466.4461L13598.0807,-3466.4488L13598.0804,-3466.451L13598.0806,-3466.4536L13598.0814,-3466.4566L13598.0837,-3466.4609L13598.0873,-3466.4686L13598.0893,-3466.4728L13598.0913,-3466.4761L13598.0954,-3466.4806L13598.1008,-3466.4842L13598.1058,-3466.4868L13598.117,-3466.4913L13598.1257,-3466.4954L13598.1321,-3466.4982L13598.1394,-3466.502L13598.1473,-3466.5069L13598.1523,-3466.5124L13598.161,-3466.5202L13598.1663,-3466.5244L13598.1718,-3466.5304L13598.1791,-3466.5376L13598.1807,-3466.5402L13598.1839,-3466.5451L13598.1918,-3466.557L13598.2023,-3466.5725L13598.2085,-3466.581L13598.2117,-3466.5849L13598.2182,-3466.5901L13598.2264,-3466.5979L13598.2333,-3466.6046L13598.2398,-3466.6114L13598.2506,-3466.6214L13598.2561,-3466.6266L13598.2641,-3466.6326L13598.2717,-3466.6366L13598.2765,-3466.6383L13598.2792,-3466.639L13598.2852,-3466.639L13598.2926,-3466.6385L13598.2987,-3466.638L13598.3044,-3466.6386L13598.3131,-3466.6399L13598.32,-3466.642L13598.326,-3466.6445L13598.3314,-3466.6475L13598.3333,-3466.649L13598.338,-3466.6524L13598.3417,-3466.6562L13598.3452,-3466.6616L13598.3458,-3466.6667L13598.3466,-3466.6731L13598.3466,-3466.6779L13598.3474,-3466.6826L13598.3476,-3466.6858L13598.3484,-3466.6903L13598.3497,-3466.6941L13598.3513,-3466.6979L13598.3573,-3466.7023L13598.3644,-3466.7086L13598.3731,-3466.7155L13598.3803,-3466.7232L13598.3866,-3466.7315L13598.3901,-3466.7365L13598.3975,-3466.7459L13598.3998,-3466.7489L13598.4021,-3466.7506L13598.4048,-3466.7511L13598.4147,-3466.7511L13598.4194,-3466.7512L13598.4304,-3466.7512L13598.4556,-3466.7533L13598.4807,-3466.7556L13598.4882,-3466.7573L13598.4957,-3466.7596L13598.5031,-3466.7615L13598.5193,-3466.7636L13598.5332,-3466.7663L13598.5461,-3466.7701L13598.5581,-3466.7757L13598.568,-3466.7798L13598.5766,-3466.7854L13598.58,-3466.7885L13598.5968,-3466.7958L13598.6186,-3466.8045L13598.6447,-3466.8122L13598.6641,-3466.8173L13598.6724,-3466.8209L13598.6808,-3466.8255L13598.688,-3466.829L13598.6973,-3466.83L13598.7075,-3466.8329L13598.7343,-3466.8405L13598.7582,-3466.8495L13598.7669,-3466.8525L13598.7714,-3466.8547L13598.7744,-3466.8574L13598.7764,-3466.86L13598.7812,-3466.8635L13598.7843,-3466.865L13598.7876,-3466.8667L13598.7958,-3466.8684L13598.8048,-3466.8716L13598.8108,-3466.8747L13598.8204,-3466.8789L13598.824,-3466.8799L13598.8275,-3466.8806L13598.8471,-3466.8803L13598.8578,-3466.8804L13598.8603,-3466.8813L13598.8785,-3466.8813L13598.8809,-3466.8811L13598.8837,-3466.8803L13598.8871,-3466.8788L13598.8987,-3466.8731L13598.9085,-3466.8684L13598.933,-3466.8566L13598.9487,-3466.8482L13598.9564,-3466.8464L13598.9658,-3466.8417L13598.9894,-3466.831L13598.9986,-3466.8281L13599.0081,-3466.8252L13599.0144,-3466.8233L13599.0236,-3466.8222L13599.0407,-3466.8209L13599.0477,-3466.8212L13599.0554,-3466.8224L13599.0619,-3466.8224L13599.0677,-3466.8216L13599.0808,-3466.8212L13599.1037,-3466.8231L13599.1348,-3466.8254L13599.1428,-3466.8271L13599.1503,-3466.8301L13599.1552,-3466.8316L13599.1596,-3466.8319L13599.1667,-3466.8319L13599.1675,-3466.8319L13599.1764,-3466.8321L13599.1825,-3466.8321L13599.1884,-3466.8303L13599.1934,-3466.8271L13599.1963,-3466.8247L13599.1989,-3466.8221L13599.2009,-3466.8186L13599.2034,-3466.8124L13599.2051,-3466.8069L13599.2076,-3466.7993L13599.2094,-3466.7938L13599.2151,-3466.784L13599.219,-3466.7803L13599.2238,-3466.7771L13599.2272,-3466.7759L13599.2327,-3466.7751L13599.2414,-3466.7718L13599.2427,-3466.771L13599.2487,-3466.7674L13599.2547,-3466.7641L13599.2586,-3466.7622L13599.2621,-3466.7611L13599.2671,-3466.76L13599.2796,-3466.757L13599.2997,-3466.7532L13599.3054,-3466.753L13599.3153,-3466.7532L13599.3198,-3466.7529L13599.3228,-3466.7517L13599.3385,-3466.747L13599.3566,-3466.7428L13599.3591,-3466.7413L13599.3599,-3466.7397L13599.3607,-3466.738L13599.3597,-3466.7345L13599.3582,-3466.7325L13599.3562,-3466.7307L13599.353,-3466.7277L13599.349,-3466.722L13599.3455,-3466.7168L13599.343,-3466.7108L13599.34,-3466.7031L13599.3358,-3466.6957L13599.3318,-3466.6909L13599.3261,-3466.6827L13599.3191,-3466.6667L13599.3169,-3466.6615L13599.3136,-3466.6537L13599.3087,-3466.6424L13599.3069,-3466.6381L13599.3042,-3466.6273L13599.2982,-3466.6093L13599.2899,-3466.5822L13599.2868,-3466.5695L13599.2807,-3466.5492L13599.2763,-3466.536L13599.2721,-3466.5269L13599.2627,-3466.5066L13599.26,-3466.5007L13599.2495,-3466.4764L13599.2452,-3466.4687L13599.2398,-3466.4606L13599.2366,-3466.4551L13599.2252,-3466.4276L13599.2185,-3466.4127L13599.2184,-3466.4101L13599.2185,-3466.4086L13599.2196,-3466.4067L13599.2216,-3466.4058L13599.2237,-3466.4047L13599.2306,-3466.4027L13599.2388,-3466.3997L13599.2431,-3466.3977L13599.2471,-3466.3949L13599.2518,-3466.3922L13599.2541,-3466.39L13599.2563,-3466.3883L13599.2578,-3466.3862L13599.259,-3466.3833L13599.2602,-3466.3797L13599.2613,-3466.3735L13599.2622,-3466.3693L13599.2628,-3466.3659L13599.263,-3466.3636L13599.2637,-3466.3609L13599.265,-3466.3593L13599.2674,-3466.3566L13599.2723,-3466.3523L13599.296,-3466.3334L13599.3065,-3466.3271L13599.3083,-3466.3257L13599.3166,-3466.3192L13599.3269,-3466.3102L13599.3296,-3466.307L13599.3313,-3466.3038L13599.3314,-3466.3017L13599.3309,-3466.2998L13599.3291,-3466.298L13599.3271,-3466.2963L13599.3241,-3466.2943L13599.3209,-3466.292L13599.3171,-3466.289L13599.3102,-3466.2821L13599.3052,-3466.2776L13599.2983,-3466.2699L13599.2951,-3466.2644L13599.2935,-3466.2606L13599.2906,-3466.2544L13599.2869,-3466.2479L13599.2843,-3466.2441L13599.2788,-3466.2354L13599.2737,-3466.2277L13599.2696,-3466.2228L13599.2664,-3466.2202L13599.2621,-3466.2175L13599.2594,-3466.2157L13599.254,-3466.2138L13599.2483,-3466.2116L13599.2394,-3466.2092L13599.2368,-3466.2085L13599.2296,-3466.206L13599.2258,-3466.2051L13599.2173,-3466.2028L13599.2126,-3466.2013L13599.2058,-3466.2L13599.1973,-3466.1978L13599.1917,-3466.1961L13599.1874,-3466.1936L13599.185,-3466.1913L13599.1834,-3466.1876L13599.1825,-3466.1849L13599.1815,-3466.1804L13599.1805,-3466.1764L13599.1789,-3466.1722L13599.1767,-3466.1687L13599.1727,-3466.1634L13599.1667,-3466.1565L13599.1661,-3466.1559L13599.164,-3466.1516L13599.1626,-3466.1462L13599.1616,-3466.1409L13599.1579,-3466.1343L13599.1491,-3466.1265L13599.1416,-3466.12L13599.1313,-3466.113L13599.1134,-3466.1004L13599.1054,-3466.0948L13599.1017,-3466.0914L13599.099,-3466.0872L13599.0964,-3466.0841L13599.0922,-3466.0806L13599.0826,-3466.0741L13599.0594,-3466.0604L13599.0556,-3466.0572L13599.0541,-3466.0544L13599.0537,-3466.052L13599.0536,-3466.0497L13599.0537,-3466.0475L13599.0544,-3466.0443L13599.0551,-3466.0383L13599.0576,-3466.0248L13599.0602,-3466.0186L13599.0606,-3466.0148L13599.0606,-3466.0052L13599.0604,-3465.9962L13599.0603,-3465.9939L13599.0602,-3465.9886L13599.0616,-3465.966L13599.0612,-3465.9577L13599.0602,-3465.9495L13599.0586,-3465.9395L13599.0562,-3465.9308L13599.0554,-3465.9276L13599.0527,-3465.9169L13599.0514,-3465.9107L13599.0492,-3465.9031L13599.0455,-3465.8847L13599.0447,-3465.8762L13599.0435,-3465.8679L13599.0423,-3465.8598L13599.0398,-3465.8408L13599.0386,-3465.8333L13599.038,-3465.8301L13599.0353,-3465.8226L13599.0329,-3465.8147L13599.0304,-3465.8077L13599.0267,-3465.7999L13599.0232,-3465.7932L13599.0197,-3465.7887L13599.0162,-3465.7845L13599.0133,-3465.7813L13599.0088,-3465.7777L13599.0036,-3465.7735L13598.9771,-3465.7544L13598.9667,-3465.7468L13598.9561,-3465.7379L13598.9538,-3465.7353L13598.9523,-3465.7329L13598.9503,-3465.7292L13598.9486,-3465.7257L13598.9473,-3465.7231L13598.9463,-3465.7204L13598.9451,-3465.7151L13598.9441,-3465.7111L13598.9429,-3465.7065L13598.9419,-3465.7022L13598.9409,-3465.6985L13598.9381,-3465.6958L13598.9361,-3465.6942L13598.9334,-3465.6927L13598.9297,-3465.6908L13598.9257,-3465.6885L13598.9213,-3465.6868L13598.9091,-3465.6828L13598.9039,-3465.6808L13598.8887,-3465.6768L13598.8627,-3465.6715L13598.8565,-3465.6705L13598.8503,-3465.6692L13598.8398,-3465.6675L13598.8357,-3465.6669L13598.816,-3465.6645L13598.7998,-3465.662L13598.7878,-3465.6603L13598.7847,-3465.6597L13598.7784,-3465.6583L13598.7632,-3465.6552L13598.7528,-3465.6525L13598.7461,-3465.6508L13598.7133,-3465.6429L13598.6822,-3465.6344L13598.6718,-3465.6312L13598.6705,-3465.6292L13598.6708,-3465.6263L13598.6727,-3465.6237L13598.6757,-3465.6215L13598.6807,-3465.6185L13598.6876,-3465.6156L13598.6934,-3465.6126L13598.6963,-3465.6113L13598.7029,-3465.61L13598.712,-3465.6093L13598.7198,-3465.6088L13598.7324,-3465.6089L13598.7459,-3465.6085L13598.7647,-3465.6075L13598.7704,-3465.6085L13598.7772,-3465.6101L13598.786,-3465.6109L13598.7917,-3465.6101L13598.8104,-3465.6099L13598.8423,-3465.6125L13598.856,-3465.6134L13598.8671,-3465.6151L13598.8762,-3465.617L13598.8828,-3465.6182L13598.8861,-3465.6182L13598.8883,-3465.6172L13598.8914,-3465.6139L13598.9153,-3465.5916L13598.9222,-3465.586L13598.9414,-3465.5678L13598.9779,-3465.5317L13598.9938,-3465.5185L13598.9986,-3465.5147L13599.0109,-3465.5073L13599.0287,-3465.499L13599.0564,-3465.4884L13599.07,-3465.4834L13599.078,-3465.4812L13599.0837,-3465.4798L13599.0935,-3465.4763L13599.1034,-3465.4725L13599.116,-3465.4696L13599.125,-3465.468L13599.1321,-3465.4668L13599.1425,-3465.4661L13599.1551,-3465.4652L13599.1629,-3465.4649L13599.1667,-3465.4634L13599.1681,-3465.4628L13599.1712,-3465.4593L13599.175,-3465.4545L13599.1779,-3465.4502L13599.1803,-3465.4441L13599.1838,-3465.4375L13599.1926,-3465.423L13599.1999,-3465.4121L13599.2101,-3465.4005L13599.2137,-3465.3976L13599.2184,-3465.3946L13599.2249,-3465.3903L13599.2279,-3465.3867L13599.2317,-3465.3839L13599.2424,-3465.3758L13599.261,-3465.3621L13599.2795,-3465.346L13599.2895,-3465.3382L13599.2961,-3465.3334L13599.299,-3465.3313L13599.3028,-3465.3282L13599.3071,-3465.3264L13599.3147,-3465.3235L13599.3332,-3465.3159L13599.3481,-3465.3111L13599.3564,-3465.3088L13599.3635,-3465.3074L13599.3697,-3465.3062L13599.3797,-3465.3041L13599.3854,-3465.3017L13599.3911,-3465.3003L13599.4153,-3465.2972L13599.4224,-3465.2967L13599.4254,-3465.2962L13599.4269,-3465.2941L13599.4269,-3465.291L13599.425,-3465.2875L13599.4212,-3465.2792L13599.4067,-3465.2579L13599.403,-3465.2521L13599.3973,-3465.2432L13599.3939,-3465.2384L13599.3911,-3465.2344L13599.3889,-3465.2316L13599.3859,-3465.2285L13599.3821,-3465.2249L13599.378,-3465.2219L13599.373,-3465.2181L13599.3424,-3465.1944L13599.332,-3465.1856L13599.3263,-3465.1804L13599.3239,-3465.1768L13599.3234,-3465.1742L13599.3251,-3465.1698L13599.3272,-3465.1674L13599.3298,-3465.1655L13599.3332,-3465.1641L13599.3422,-3465.1605L13599.3576,-3465.1565L13599.3676,-3465.1541L13599.3763,-3465.1527L13599.3827,-3465.1515L13599.3884,-3465.1515L13599.392,-3465.1513L13599.3956,-3465.1508L13599.3994,-3465.1494L13599.402,-3465.148L13599.4034,-3465.1461L13599.4034,-3465.1435L13599.4029,-3465.138L13599.4027,-3465.1316L13599.4022,-3465.1262L13599.4008,-3465.1205L13599.3996,-3465.1131L13599.3974,-3465.1039L13599.396,-3465.0977L13599.3934,-3465.0923L13599.3908,-3465.0875L13599.3887,-3465.0837L13599.3849,-3465.079L13599.383,-3465.0757L13599.3813,-3465.07L13599.3801,-3465.0672L13599.3783,-3465.0615L13599.3747,-3465.0548L13599.3716,-3465.0503L13599.3678,-3465.0468L13599.3636,-3465.0432L13599.3588,-3465.0387L13599.3507,-3465.0304L13599.3441,-3465.0259L13599.3377,-3465.0214L13599.3317,-3465.0191L13599.3218,-3465.0155L13599.3175,-3465.012L13599.3035,-3465L13599.3014,-3464.9982L13599.2796,-3464.9809L13599.2753,-3464.9766L13599.2744,-3464.9743L13599.2746,-3464.9724L13599.2751,-3464.9705L13599.2763,-3464.9688L13599.281,-3464.9669L13599.2881,-3464.9657L13599.2959,-3464.9655L13599.3035,-3464.9643L13599.3256,-3464.9612L13599.3327,-3464.9608L13599.3496,-3464.9601L13599.3554,-3464.9595L13599.3587,-3464.9592L13599.3698,-3464.9573L13599.3817,-3464.9564L13599.386,-3464.9564L13599.3909,-3464.9566L13599.3964,-3464.9566L13599.4019,-3464.9556L13599.4234,-3464.9514L13599.473,-3464.9319L13599.4849,-3464.9246L13599.4927,-3464.9201L13599.4994,-3464.9175L13599.5266,-3464.9045L13599.5379,-3464.8991L13599.5574,-3464.8893L13599.5645,-3464.8862L13599.5716,-3464.8825L13599.5754,-3464.8799L13599.5778,-3464.8763L13599.5818,-3464.8683L13599.5835,-3464.8631L13599.5866,-3464.8533L13599.5892,-3464.8439L13599.5901,-3464.8384L13599.5906,-3464.8358L13599.5911,-3464.8337L13599.5927,-3464.8306L13599.6017,-3464.8158L13599.6074,-3464.8002L13599.6129,-3464.7849L13599.6282,-3464.7529L13599.631,-3464.7459L13599.6342,-3464.7425L13599.6374,-3464.7394L13599.6464,-3464.7325L13599.6539,-3464.7271L13599.6584,-3464.724L13599.6621,-3464.7227L13599.6675,-3464.7209L13599.674,-3464.7183L13599.6783,-3464.7156L13599.6869,-3464.7081L13599.6909,-3464.7037L13599.6931,-3464.6996L13599.6969,-3464.6938L13599.6999,-3464.6892L13599.7017,-3464.686L13599.7041,-3464.6836L13599.7067,-3464.6806L13599.7091,-3464.6787L13599.7126,-3464.6772L13599.7148,-3464.6752L13599.7294,-3464.6666L13599.7604,-3464.6348L13599.792,-3464.6081L13599.8042,-3464.588L13599.8066,-3464.5691L13599.8059,-3464.5405L13599.8099,-3464.5311L13599.8173,-3464.523L13599.8425,-3464.5056L13599.8531,-3464.4928L13599.8604,-3464.4739L13599.8628,-3464.4424L13599.8701,-3464.4148L13599.8628,-3464.3482L13599.8661,-3464.3264L13599.8889,-3464.2982L13599.9279,-3464.2733L13599.9524,-3464.2572L13599.9719,-3464.233L13599.9733,-3464.2298L13599.9856,-3464.2014L13599.9968,-3464.1667L13599.9972,-3464.1654L13600,-3464.1471L13600.0023,-3464.1319L13600.0061,-3464.1123L13600.0004,-3464.0901L13600,-3464.0895L13599.9695,-3464.0451L13599.9663,-3464.0296L13599.9695,-3464.0088L13599.9826,-3463.9661L13599.9834,-3463.9554L13599.9761,-3463.9473L13599.9305,-3463.9246L13599.9184,-3463.9113L13599.9145,-3463.9006L13599.9151,-3463.8919L13599.9157,-3463.8812L13599.9247,-3463.8564L13599.9255,-3463.8261L13599.9239,-3463.7923L13599.9068,-3463.7753L13599.8741,-3463.7544L13599.8588,-3463.7486L13599.8033,-3463.733L13599.7854,-3463.7182L13599.7578,-3463.6947L13599.7149,-3463.6565L13599.7149,-3463.6507L13599.7134,-3463.6503L13599.7032,-3463.6474L13599.6983,-3463.6459L13599.6939,-3463.6434L13599.6898,-3463.6416L13599.6838,-3463.6372L13599.6805,-3463.6341L13599.6785,-3463.6327L13599.6745,-3463.6316L13599.6664,-3463.6274L13599.6569,-3463.6201L13599.6482,-3463.6145L13599.6404,-3463.6094L13599.633,-3463.6058L13599.6294,-3463.6029L13599.6254,-3463.5987L13599.6212,-3463.5931L13599.6183,-3463.5871L13599.6152,-3463.5806L13599.6136,-3463.5757L13599.6118,-3463.5731L13599.6069,-3463.5695L13599.6021,-3463.5678L13599.5932,-3463.5649L13599.5885,-3463.5622L13599.5831,-3463.5584L13599.5771,-3463.5547L13599.5687,-3463.5518L13599.5624,-3463.5498L13599.5555,-3463.5482L13599.5453,-3463.5462L13599.5359,-3463.5449L13599.5234,-3463.5442L13599.5016,-3463.544L13599.462,-3463.5435L13599.4375,-3463.5439L13599.368,-3463.5424L13599.3557,-3463.5397L13599.3484,-3463.5352L13599.3419,-3463.5286L13599.3345,-3463.5159L13599.3296,-3463.5041L13599.3281,-3463.4969L13599.3281,-3463.4849L13599.3294,-3463.4798L13599.3319,-3463.4751L13599.3368,-3463.4684L13599.3414,-3463.4644L13599.3434,-3463.4617L13599.3475,-3463.4575L13599.3517,-3463.4522L13599.3528,-3463.45L13599.358,-3463.4422L13599.3631,-3463.4346L13599.3644,-3463.4299L13599.3655,-3463.4237L13599.3678,-3463.4154L13599.3689,-3463.4112L13599.3713,-3463.4034L13599.3729,-3463.3987L13599.3742,-3463.3936L13599.3753,-3463.3903L13599.3769,-3463.3876L13599.3787,-3463.3841L13599.3816,-3463.3807L13599.3847,-3463.3769L13599.3885,-3463.3738L13599.3927,-3463.3696L13599.3976,-3463.3656L13599.401,-3463.3631L13599.4032,-3463.3609L13599.4077,-3463.3558L13599.4151,-3463.3485L13599.4182,-3463.3436L13599.4202,-3463.3398L13599.4224,-3463.3333L13599.4228,-3463.3322L13599.4235,-3463.3305L13599.4246,-3463.3275L13599.4255,-3463.3226L13599.4264,-3463.3157L13599.426,-3463.3075L13599.4246,-3463.2966L13599.4242,-3463.291L13599.4249,-3463.2854L13599.4257,-3463.281L13599.4262,-3463.2792L13599.4266,-3463.2754L13599.426,-3463.2705L13599.4251,-3463.2654L13599.4244,-3463.2603L13599.4235,-3463.2572L13599.4231,-3463.2541L13599.4212,-3463.2496L13599.4192,-3463.2454L13599.4161,-3463.2389L13599.411,-3463.2316L13599.4061,-3463.2253L13599.4023,-3463.22L13599.3985,-3463.216L13599.3945,-3463.2091L13599.3918,-3463.2028L13599.3903,-3463.1971L13599.3898,-3463.1841L13599.3898,-3463.1761L13599.3894,-3463.1694L13599.3894,-3463.1601L13599.3896,-3463.1541L13599.3896,-3463.1487L13599.39,-3463.1447L13599.3908,-3463.1336L13599.3904,-3463.1243L13599.3906,-3463.1193L13599.3908,-3463.1152L13599.3913,-3463.1109L13599.3908,-3463.1056L13599.3888,-3463.1007L13599.3839,-3463.0987L13599.3712,-3463.0951L13599.3445,-3463.0875L13599.3113,-3463.0793L13599.2825,-3463.0714L13599.2357,-3463.0586L13599.2181,-3463.0541L13599.1667,-3463.0404L13599.1459,-3463.0348L13599.1098,-3463.025L13599.0797,-3463.0163L13599.0795,-3463.0107L13599.083,-3463.0058L13599.0847,-3463.0034L13599.0927,-3462.9989L13599.1032,-3462.9932L13599.1089,-3462.9889L13599.1246,-3462.9716L13599.1451,-3462.9504L13599.1667,-3462.9276L13599.1821,-3462.9112L13599.2018,-3462.8906Z"/>
<path content="奈良県,,山辺郡,山添村,,29322" xlink:title="奈良県" d="M13601.0742,-3467.2852L13601.0742,-3462.8906L13599.2018,-3462.8906L13599.1821,-3462.9112L13599.1667,-3462.9276L13599.1451,-3462.9504L13599.1246,-3462.9716L13599.1089,-3462.9889L13599.1032,-3462.9932L13599.0927,-3462.9989L13599.0847,-3463.0034L13599.083,-3463.0058L13599.0795,-3463.0107L13599.0797,-3463.0163L13599.1098,-3463.025L13599.1459,-3463.0348L13599.1667,-3463.0404L13599.2181,-3463.0541L13599.2357,-3463.0586L13599.2825,-3463.0714L13599.3113,-3463.0793L13599.3445,-3463.0875L13599.3712,-3463.0951L13599.3839,-3463.0987L13599.3888,-3463.1007L13599.3908,-3463.1056L13599.3913,-3463.1109L13599.3908,-3463.1152L13599.3906,-3463.1193L13599.3904,-3463.1243L13599.3908,-3463.1336L13599.39,-3463.1447L13599.3896,-3463.1487L13599.3896,-3463.1541L13599.3894,-3463.1601L13599.3894,-3463.1694L13599.3898,-3463.1761L13599.3898,-3463.1841L13599.3903,-3463.1971L13599.3918,-3463.2028L13599.3945,-3463.2091L13599.3985,-3463.216L13599.4023,-3463.22L13599.4061,-3463.2253L13599.411,-3463.2316L13599.4161,-3463.2389L13599.4192,-3463.2454L13599.4212,-3463.2496L13599.4231,-3463.2541L13599.4235,-3463.2572L13599.4244,-3463.2603L13599.4251,-3463.2654L13599.426,-3463.2705L13599.4266,-3463.2754L13599.4262,-3463.2792L13599.4257,-3463.281L13599.4249,-3463.2854L13599.4242,-3463.291L13599.4246,-3463.2966L13599.426,-3463.3075L13599.4264,-3463.3157L13599.4255,-3463.3226L13599.4246,-3463.3275L13599.4235,-3463.3305L13599.4228,-3463.3322L13599.4224,-3463.3333L13599.4202,-3463.3398L13599.4182,-3463.3436L13599.4151,-3463.3485L13599.4077,-3463.3558L13599.4032,-3463.3609L13599.401,-3463.3631L13599.3976,-3463.3656L13599.3927,-3463.3696L13599.3885,-3463.3738L13599.3847,-3463.3769L13599.3816,-3463.3807L13599.3787,-3463.3841L13599.3769,-3463.3876L13599.3753,-3463.3903L13599.3742,-3463.3936L13599.3729,-3463.3987L13599.3713,-3463.4034L13599.3689,-3463.4112L13599.3678,-3463.4154L13599.3655,-3463.4237L13599.3644,-3463.4299L13599.3631,-3463.4346L13599.358,-3463.4422L13599.3528,-3463.45L13599.3517,-3463.4522L13599.3475,-3463.4575L13599.3434,-3463.4617L13599.3414,-3463.4644L13599.3368,-3463.4684L13599.3319,-3463.4751L13599.3294,-3463.4798L13599.3281,-3463.4849L13599.3281,-3463.4969L13599.3296,-3463.5041L13599.3345,-3463.5159L13599.3419,-3463.5286L13599.3484,-3463.5352L13599.3557,-3463.5397L13599.368,-3463.5424L13599.4375,-3463.5439L13599.462,-3463.5435L13599.5016,-3463.544L13599.5234,-3463.5442L13599.5359,-3463.5449L13599.5453,-3463.5462L13599.5555,-3463.5482L13599.5624,-3463.5498L13599.5687,-3463.5518L13599.5771,-3463.5547L13599.5831,-3463.5584L13599.5885,-3463.5622L13599.5932,-3463.5649L13599.6021,-3463.5678L13599.6069,-3463.5695L13599.6118,-3463.5731L13599.6136,-3463.5757L13599.6152,-3463.5806L13599.6183,-3463.5871L13599.6212,-3463.5931L13599.6254,-3463.5987L13599.6294,-3463.6029L13599.633,-3463.6058L13599.6404,-3463.6094L13599.6482,-3463.6145L13599.6569,-3463.6201L13599.6664,-3463.6274L13599.6745,-3463.6316L13599.6785,-3463.6327L13599.6805,-3463.6341L13599.6838,-3463.6372L13599.6898,-3463.6416L13599.6939,-3463.6434L13599.6983,-3463.6459L13599.7032,-3463.6474L13599.7134,-3463.6503L13599.7149,-3463.6507L13599.7149,-3463.6565L13599.7578,-3463.6947L13599.7854,-3463.7182L13599.8033,-3463.733L13599.8588,-3463.7486L13599.8741,-3463.7544L13599.9068,-3463.7753L13599.9239,-3463.7923L13599.9255,-3463.8261L13599.9247,-3463.8564L13599.9157,-3463.8812L13599.9151,-3463.8919L13599.9145,-3463.9006L13599.9184,-3463.9113L13599.9305,-3463.9246L13599.9761,-3463.9473L13599.9834,-3463.9554L13599.9826,-3463.9661L13599.9695,-3464.0088L13599.9663,-3464.0296L13599.9695,-3464.0451L13600,-3464.0895L13600.0004,-3464.0901L13600.0061,-3464.1123L13600.0023,-3464.1319L13600,-3464.1471L13599.9972,-3464.1654L13599.9968,-3464.1667L13599.9856,-3464.2014L13599.9733,-3464.2298L13599.9719,-3464.233L13599.9524,-3464.2572L13599.9279,-3464.2733L13599.8889,-3464.2982L13599.8661,-3464.3264L13599.8628,-3464.3482L13599.8701,-3464.4148L13599.8628,-3464.4424L13599.8604,-3464.4739L13599.8531,-3464.4928L13599.8425,-3464.5056L13599.8173,-3464.523L13599.8099,-3464.5311L13599.8059,-3464.5405L13599.8066,-3464.5691L13599.8042,-3464.588L13599.792,-3464.6081L13599.7604,-3464.6348L13599.7294,-3464.6666L13599.7148,-3464.6752L13599.7126,-3464.6772L13599.7091,-3464.6787L13599.7067,-3464.6806L13599.7041,-3464.6836L13599.7017,-3464.686L13599.6999,-3464.6892L13599.6969,-3464.6938L13599.6931,-3464.6996L13599.6909,-3464.7037L13599.6869,-3464.7081L13599.6783,-3464.7156L13599.674,-3464.7183L13599.6675,-3464.7209L13599.6621,-3464.7227L13599.6584,-3464.724L13599.6539,-3464.7271L13599.6464,-3464.7325L13599.6374,-3464.7394L13599.6342,-3464.7425L13599.631,-3464.7459L13599.6282,-3464.7529L13599.6129,-3464.7849L13599.6074,-3464.8002L13599.6017,-3464.8158L13599.5927,-3464.8306L13599.5911,-3464.8337L13599.5906,-3464.8358L13599.5901,-3464.8384L13599.5892,-3464.8439L13599.5866,-3464.8533L13599.5835,-3464.8631L13599.5818,-3464.8683L13599.5778,-3464.8763L13599.5754,-3464.8799L13599.5716,-3464.8825L13599.5645,-3464.8862L13599.5574,-3464.8893L13599.5379,-3464.8991L13599.5266,-3464.9045L13599.4994,-3464.9175L13599.4927,-3464.9201L13599.4849,-3464.9246L13599.473,-3464.9319L13599.4234,-3464.9514L13599.4019,-3464.9556L13599.3964,-3464.9566L13599.3909,-3464.9566L13599.386,-3464.9564L13599.3817,-3464.9564L13599.3698,-3464.9573L13599.3587,-3464.9592L13599.3554,-3464.9595L13599.3496,-3464.9601L13599.3327,-3464.9608L13599.3256,-3464.9612L13599.3035,-3464.9643L13599.2959,-3464.9655L13599.2881,-3464.9657L13599.281,-3464.9669L13599.2763,-3464.9688L13599.2751,-3464.9705L13599.2746,-3464.9724L13599.2744,-3464.9743L13599.2753,-3464.9766L13599.2796,-3464.9809L13599.3014,-3464.9982L13599.3035,-3465L13599.3175,-3465.012L13599.3218,-3465.0155L13599.3317,-3465.0191L13599.3377,-3465.0214L13599.3441,-3465.0259L13599.3507,-3465.0304L13599.3588,-3465.0387L13599.3636,-3465.0432L13599.3678,-3465.0468L13599.3716,-3465.0503L13599.3747,-3465.0548L13599.3783,-3465.0615L13599.3801,-3465.0672L13599.3813,-3465.07L13599.383,-3465.0757L13599.3849,-3465.079L13599.3887,-3465.0837L13599.3908,-3465.0875L13599.3934,-3465.0923L13599.396,-3465.0977L13599.3974,-3465.1039L13599.3996,-3465.1131L13599.4008,-3465.1205L13599.4022,-3465.1262L13599.4027,-3465.1316L13599.4029,-3465.138L13599.4034,-3465.1435L13599.4034,-3465.1461L13599.402,-3465.148L13599.3994,-3465.1494L13599.3956,-3465.1508L13599.392,-3465.1513L13599.3884,-3465.1515L13599.3827,-3465.1515L13599.3763,-3465.1527L13599.3676,-3465.1541L13599.3576,-3465.1565L13599.3422,-3465.1605L13599.3332,-3465.1641L13599.3298,-3465.1655L13599.3272,-3465.1674L13599.3251,-3465.1698L13599.3234,-3465.1742L13599.3239,-3465.1768L13599.3263,-3465.1804L13599.332,-3465.1856L13599.3424,-3465.1944L13599.373,-3465.2181L13599.378,-3465.2219L13599.3821,-3465.2249L13599.3859,-3465.2285L13599.3889,-3465.2316L13599.3911,-3465.2344L13599.3939,-3465.2384L13599.3973,-3465.2432L13599.403,-3465.2521L13599.4067,-3465.2579L13599.4212,-3465.2792L13599.425,-3465.2875L13599.4269,-3465.291L13599.4269,-3465.2941L13599.4254,-3465.2962L13599.4224,-3465.2967L13599.4153,-3465.2972L13599.3911,-3465.3003L13599.3854,-3465.3017L13599.3797,-3465.3041L13599.3697,-3465.3062L13599.3635,-3465.3074L13599.3564,-3465.3088L13599.3481,-3465.3111L13599.3332,-3465.3159L13599.3147,-3465.3235L13599.3071,-3465.3264L13599.3028,-3465.3282L13599.299,-3465.3313L13599.2961,-3465.3334L13599.2895,-3465.3382L13599.2795,-3465.346L13599.261,-3465.3621L13599.2424,-3465.3758L13599.2317,-3465.3839L13599.2279,-3465.3867L13599.2249,-3465.3903L13599.2184,-3465.3946L13599.2137,-3465.3976L13599.2101,-3465.4005L13599.1999,-3465.4121L13599.1926,-3465.423L13599.1838,-3465.4375L13599.1803,-3465.4441L13599.1779,-3465.4502L13599.175,-3465.4545L13599.1712,-3465.4593L13599.1681,-3465.4628L13599.1667,-3465.4634L13599.1629,-3465.4649L13599.1551,-3465.4652L13599.1425,-3465.4661L13599.1321,-3465.4668L13599.125,-3465.468L13599.116,-3465.4696L13599.1034,-3465.4725L13599.0935,-3465.4763L13599.0837,-3465.4798L13599.078,-3465.4812L13599.07,-3465.4834L13599.0564,-3465.4884L13599.0287,-3465.499L13599.0109,-3465.5073L13598.9986,-3465.5147L13598.9938,-3465.5185L13598.9779,-3465.5317L13598.9414,-3465.5678L13598.9222,-3465.586L13598.9153,-3465.5916L13598.8914,-3465.6139L13598.8883,-3465.6172L13598.8861,-3465.6182L13598.8828,-3465.6182L13598.8762,-3465.617L13598.8671,-3465.6151L13598.856,-3465.6134L13598.8423,-3465.6125L13598.8104,-3465.6099L13598.7917,-3465.6101L13598.786,-3465.6109L13598.7772,-3465.6101L13598.7704,-3465.6085L13598.7647,-3465.6075L13598.7459,-3465.6085L13598.7324,-3465.6089L13598.7198,-3465.6088L13598.712,-3465.6093L13598.7029,-3465.61L13598.6963,-3465.6113L13598.6934,-3465.6126L13598.6876,-3465.6156L13598.6807,-3465.6185L13598.6757,-3465.6215L13598.6727,-3465.6237L13598.6708,-3465.6263L13598.6705,-3465.6292L13598.6718,-3465.6312L13598.6822,-3465.6344L13598.7133,-3465.6429L13598.7461,-3465.6508L13598.7528,-3465.6525L13598.7632,-3465.6552L13598.7784,-3465.6583L13598.7847,-3465.6597L13598.7878,-3465.6603L13598.7998,-3465.662L13598.816,-3465.6645L13598.8357,-3465.6669L13598.8398,-3465.6675L13598.8503,-3465.6692L13598.8565,-3465.6705L13598.8627,-3465.6715L13598.8887,-3465.6768L13598.9039,-3465.6808L13598.9091,-3465.6828L13598.9213,-3465.6868L13598.9257,-3465.6885L13598.9297,-3465.6908L13598.9334,-3465.6927L13598.9361,-3465.6942L13598.9381,-3465.6958L13598.9409,-3465.6985L13598.9419,-3465.7022L13598.9429,-3465.7065L13598.9441,-3465.7111L13598.9451,-3465.7151L13598.9463,-3465.7204L13598.9473,-3465.7231L13598.9486,-3465.7257L13598.9503,-3465.7292L13598.9523,-3465.7329L13598.9538,-3465.7353L13598.9561,-3465.7379L13598.9667,-3465.7468L13598.9771,-3465.7544L13599.0036,-3465.7735L13599.0088,-3465.7777L13599.0133,-3465.7813L13599.0162,-3465.7845L13599.0197,-3465.7887L13599.0232,-3465.7932L13599.0267,-3465.7999L13599.0304,-3465.8077L13599.0329,-3465.8147L13599.0353,-3465.8226L13599.038,-3465.8301L13599.0386,-3465.8333L13599.0398,-3465.8408L13599.0423,-3465.8598L13599.0435,-3465.8679L13599.0447,-3465.8762L13599.0455,-3465.8847L13599.0492,-3465.9031L13599.0514,-3465.9107L13599.0527,-3465.9169L13599.0554,-3465.9276L13599.0562,-3465.9308L13599.0586,-3465.9395L13599.0602,-3465.9495L13599.0612,-3465.9577L13599.0616,-3465.966L13599.0602,-3465.9886L13599.0603,-3465.9939L13599.0604,-3465.9962L13599.0606,-3466.0052L13599.0606,-3466.0148L13599.0602,-3466.0186L13599.0576,-3466.0248L13599.0551,-3466.0383L13599.0544,-3466.0443L13599.0537,-3466.0475L13599.0536,-3466.0497L13599.0537,-3466.052L13599.0541,-3466.0544L13599.0556,-3466.0572L13599.0594,-3466.0604L13599.0826,-3466.0741L13599.0922,-3466.0806L13599.0964,-3466.0841L13599.099,-3466.0872L13599.1017,-3466.0914L13599.1054,-3466.0948L13599.1134,-3466.1004L13599.1313,-3466.113L13599.1416,-3466.12L13599.1491,-3466.1265L13599.1579,-3466.1343L13599.1616,-3466.1409L13599.1626,-3466.1462L13599.164,-3466.1516L13599.1661,-3466.1559L13599.1667,-3466.1565L13599.1727,-3466.1634L13599.1767,-3466.1687L13599.1789,-3466.1722L13599.1805,-3466.1764L13599.1815,-3466.1804L13599.1825,-3466.1849L13599.1834,-3466.1876L13599.185,-3466.1913L13599.1874,-3466.1936L13599.1917,-3466.1961L13599.1973,-3466.1978L13599.2058,-3466.2L13599.2126,-3466.2013L13599.2173,-3466.2028L13599.2258,-3466.2051L13599.2296,-3466.206L13599.2368,-3466.2085L13599.2394,-3466.2092L13599.2483,-3466.2116L13599.254,-3466.2138L13599.2594,-3466.2157L13599.2621,-3466.2175L13599.2664,-3466.2202L13599.2696,-3466.2228L13599.2737,-3466.2277L13599.2788,-3466.2354L13599.2843,-3466.2441L13599.2869,-3466.2479L13599.2906,-3466.2544L13599.2935,-3466.2606L13599.2951,-3466.2644L13599.2983,-3466.2699L13599.3052,-3466.2776L13599.3102,-3466.2821L13599.3171,-3466.289L13599.3209,-3466.292L13599.3241,-3466.2943L13599.3271,-3466.2963L13599.3291,-3466.298L13599.3309,-3466.2998L13599.3314,-3466.3017L13599.3313,-3466.3038L13599.3296,-3466.307L13599.3269,-3466.3102L13599.3166,-3466.3192L13599.3083,-3466.3257L13599.3065,-3466.3271L13599.296,-3466.3334L13599.2723,-3466.3523L13599.2674,-3466.3566L13599.265,-3466.3593L13599.2637,-3466.3609L13599.263,-3466.3636L13599.2628,-3466.3659L13599.2622,-3466.3693L13599.2613,-3466.3735L13599.2602,-3466.3797L13599.259,-3466.3833L13599.2578,-3466.3862L13599.2563,-3466.3883L13599.2541,-3466.39L13599.2518,-3466.3922L13599.2471,-3466.3949L13599.2431,-3466.3977L13599.2388,-3466.3997L13599.2306,-3466.4027L13599.2237,-3466.4047L13599.2216,-3466.4058L13599.2196,-3466.4067L13599.2185,-3466.4086L13599.2184,-3466.4101L13599.2185,-3466.4127L13599.2252,-3466.4276L13599.2366,-3466.4551L13599.2398,-3466.4606L13599.2452,-3466.4687L13599.2495,-3466.4764L13599.26,-3466.5007L13599.2627,-3466.5066L13599.2721,-3466.5269L13599.2763,-3466.536L13599.2807,-3466.5492L13599.2868,-3466.5695L13599.2899,-3466.5822L13599.2982,-3466.6093L13599.3042,-3466.6273L13599.3069,-3466.6381L13599.3087,-3466.6424L13599.3136,-3466.6537L13599.3169,-3466.6615L13599.3191,-3466.6667L13599.3261,-3466.6827L13599.3318,-3466.6909L13599.3358,-3466.6957L13599.34,-3466.7031L13599.343,-3466.7108L13599.3455,-3466.7168L13599.349,-3466.722L13599.353,-3466.7277L13599.3562,-3466.7307L13599.3582,-3466.7325L13599.3597,-3466.7345L13599.3607,-3466.738L13599.3599,-3466.7397L13599.3591,-3466.7413L13599.3566,-3466.7428L13599.3385,-3466.747L13599.3228,-3466.7517L13599.3198,-3466.7529L13599.3153,-3466.7532L13599.3054,-3466.753L13599.2997,-3466.7532L13599.2796,-3466.757L13599.2671,-3466.76L13599.2621,-3466.7611L13599.2586,-3466.7622L13599.2547,-3466.7641L13599.2487,-3466.7674L13599.2427,-3466.771L13599.2414,-3466.7718L13599.2327,-3466.7751L13599.2272,-3466.7759L13599.2238,-3466.7771L13599.219,-3466.7803L13599.2151,-3466.784L13599.2094,-3466.7938L13599.2076,-3466.7993L13599.2051,-3466.8069L13599.2034,-3466.8124L13599.2009,-3466.8186L13599.1989,-3466.8221L13599.1963,-3466.8247L13599.1934,-3466.8271L13599.1884,-3466.8303L13599.1825,-3466.8321L13599.1764,-3466.8321L13599.1675,-3466.8319L13599.1667,-3466.8319L13599.1596,-3466.8319L13599.1552,-3466.8316L13599.1503,-3466.8301L13599.1428,-3466.8271L13599.1348,-3466.8254L13599.1037,-3466.8231L13599.0808,-3466.8212L13599.0677,-3466.8216L13599.0619,-3466.8224L13599.0554,-3466.8224L13599.0477,-3466.8212L13599.0407,-3466.8209L13599.0236,-3466.8222L13599.0144,-3466.8233L13599.0081,-3466.8252L13598.9986,-3466.8281L13598.9894,-3466.831L13598.9658,-3466.8417L13598.9564,-3466.8464L13598.9487,-3466.8482L13598.933,-3466.8566L13598.9085,-3466.8684L13598.8987,-3466.8731L13598.8871,-3466.8788L13598.8837,-3466.8803L13598.8809,-3466.8811L13598.8785,-3466.8813L13598.8603,-3466.8813L13598.8578,-3466.8804L13598.8471,-3466.8803L13598.8275,-3466.8806L13598.824,-3466.8799L13598.8204,-3466.8789L13598.8108,-3466.8747L13598.8048,-3466.8716L13598.7958,-3466.8684L13598.7876,-3466.8667L13598.7843,-3466.865L13598.7812,-3466.8635L13598.7764,-3466.86L13598.7744,-3466.8574L13598.7714,-3466.8547L13598.7669,-3466.8525L13598.7582,-3466.8495L13598.7343,-3466.8405L13598.7075,-3466.8329L13598.6973,-3466.83L13598.688,-3466.829L13598.6808,-3466.8255L13598.6724,-3466.8209L13598.6641,-3466.8173L13598.6447,-3466.8122L13598.6186,-3466.8045L13598.5968,-3466.7958L13598.58,-3466.7885L13598.5766,-3466.7854L13598.568,-3466.7798L13598.5581,-3466.7757L13598.5461,-3466.7701L13598.5332,-3466.7663L13598.5193,-3466.7636L13598.5031,-3466.7615L13598.4957,-3466.7596L13598.4882,-3466.7573L13598.4807,-3466.7556L13598.4556,-3466.7533L13598.4304,-3466.7512L13598.4194,-3466.7512L13598.4147,-3466.7511L13598.4048,-3466.7511L13598.4021,-3466.7506L13598.3998,-3466.7489L13598.3975,-3466.7459L13598.3901,-3466.7365L13598.3866,-3466.7315L13598.3803,-3466.7232L13598.3731,-3466.7155L13598.3644,-3466.7086L13598.3573,-3466.7023L13598.3513,-3466.6979L13598.3497,-3466.6941L13598.3484,-3466.6903L13598.3476,-3466.6858L13598.3474,-3466.6826L13598.3466,-3466.6779L13598.3466,-3466.6731L13598.3458,-3466.6667L13598.3452,-3466.6616L13598.3417,-3466.6562L13598.338,-3466.6524L13598.3333,-3466.649L13598.3314,-3466.6475L13598.326,-3466.6445L13598.32,-3466.642L13598.3131,-3466.6399L13598.3044,-3466.6386L13598.2987,-3466.638L13598.2926,-3466.6385L13598.2852,-3466.639L13598.2792,-3466.639L13598.2765,-3466.6383L13598.2717,-3466.6366L13598.2641,-3466.6326L13598.2561,-3466.6266L13598.2506,-3466.6214L13598.2398,-3466.6114L13598.2333,-3466.6046L13598.2264,-3466.5979L13598.2182,-3466.5901L13598.2117,-3466.5849L13598.2085,-3466.581L13598.2023,-3466.5725L13598.1918,-3466.557L13598.1839,-3466.5451L13598.1807,-3466.5402L13598.1791,-3466.5376L13598.1718,-3466.5304L13598.1663,-3466.5244L13598.161,-3466.5202L13598.1523,-3466.5124L13598.1473,-3466.5069L13598.1394,-3466.502L13598.1321,-3466.4982L13598.1257,-3466.4954L13598.117,-3466.4913L13598.1058,-3466.4868L13598.1008,-3466.4842L13598.0954,-3466.4806L13598.0913,-3466.4761L13598.0893,-3466.4728L13598.0873,-3466.4686L13598.0837,-3466.4609L13598.0814,-3466.4566L13598.0806,-3466.4536L13598.0804,-3466.451L13598.0807,-3466.4488L13598.0812,-3466.4461L13598.0824,-3466.4438L13598.0841,-3466.4413L13598.0857,-3466.4391L13598.0883,-3466.4369L13598.0903,-3466.4361L13598.0931,-3466.4347L13598.0961,-3466.4336L13598.1011,-3466.4319L13598.1065,-3466.4312L13598.1127,-3466.4301L13598.1201,-3466.4292L13598.1209,-3466.4291L13598.1317,-3466.4271L13598.1363,-3466.4259L13598.1416,-3466.4236L13598.1511,-3466.4197L13598.1541,-3466.4174L13598.1555,-3466.4159L13598.1563,-3466.4146L13598.1566,-3466.4129L13598.1571,-3466.4107L13598.1573,-3466.4082L13598.157,-3466.405L13598.156,-3466.402L13598.1518,-3466.3952L13598.1494,-3466.3912L13598.1449,-3466.3863L13598.1409,-3466.383L13598.1372,-3466.3803L13598.1319,-3466.3778L13598.1258,-3466.3752L13598.122,-3466.3735L13598.1101,-3466.3683L13598.0983,-3466.3629L13598.0947,-3466.3608L13598.0882,-3466.3581L13598.0804,-3466.3539L13598.0768,-3466.3504L13598.0747,-3466.3477L13598.0738,-3466.3459L13598.0725,-3466.3432L13598.0715,-3466.3404L13598.0712,-3466.3376L13598.0708,-3466.3351L13598.0715,-3466.3309L13598.0722,-3466.3281L13598.0732,-3466.3257L13598.0763,-3466.3209L13598.0794,-3466.3172L13598.0868,-3466.3082L13598.0911,-3466.3018L13598.0983,-3466.2927L13598.1152,-3466.2763L13598.1242,-3466.267L13598.1463,-3466.2456L13598.1584,-3466.238L13598.1639,-3466.2363L13598.1686,-3466.2342L13598.1751,-3466.232L13598.1813,-3466.2313L13598.1865,-3466.232L13598.1893,-3466.2328L13598.1933,-3466.2367L13598.203,-3466.2462L13598.2077,-3466.2502L13598.2181,-3466.258L13598.2237,-3466.2616L13598.2301,-3466.2652L13598.2366,-3466.2701L13598.2415,-3466.2747L13598.2437,-3466.2784L13598.2485,-3466.2859L13598.2518,-3466.2921L13598.2532,-3466.2961L13598.2539,-3466.3001L13598.2527,-3466.3071L13598.2502,-3466.3137L13598.2493,-3466.3161L13598.2485,-3466.3181L13598.2457,-3466.3253L13598.2444,-3466.3298L13598.243,-3466.338L13598.2415,-3466.3445L13598.2405,-3466.3492L13598.24,-3466.3535L13598.2417,-3466.3578L13598.2484,-3466.3677L13598.2559,-3466.3784L13598.2599,-3466.3847L13598.2639,-3466.3894L13598.2671,-3466.3922L13598.2694,-3466.3936L13598.2719,-3466.3937L13598.2748,-3466.3932L13598.2781,-3466.3911L13598.2833,-3466.3877L13598.2883,-3466.3832L13598.2958,-3466.3777L13598.3022,-3466.373L13598.3064,-3466.3687L13598.3095,-3466.3621L13598.3187,-3466.3524L13598.3333,-3466.3369L13598.3414,-3466.3284L13598.3508,-3466.3155L13598.3526,-3466.3127L13598.3535,-3466.3107L13598.3535,-3466.3069L13598.3538,-3466.3005L13598.3543,-3466.2947L13598.3545,-3466.2922L13598.3552,-3466.29L13598.356,-3466.2872L13598.3574,-3466.2843L13598.3592,-3466.2811L13598.3604,-3466.2796L13598.3619,-3466.278L13598.3639,-3466.2767L13598.3664,-3466.2753L13598.3689,-3466.2731L13598.3711,-3466.271L13598.3724,-3466.2683L13598.3731,-3466.2655L13598.3732,-3466.2637L13598.3734,-3466.2619L13598.3739,-3466.2579L13598.3737,-3466.2541L13598.3731,-3466.2503L13598.3719,-3466.2464L13598.3716,-3466.2403L13598.3714,-3466.2339L13598.3716,-3466.2224L13598.3716,-3466.2102L13598.3711,-3466.2007L13598.3711,-3466.2005L13598.3708,-3466.1895L13598.3709,-3466.1848L13598.3716,-3466.1803L13598.3724,-3466.1771L13598.3733,-3466.1743L13598.3763,-3466.1631L13598.3776,-3466.1544L13598.3784,-3466.1513L13598.3803,-3466.1462L13598.3851,-3466.1351L13598.388,-3466.1289L13598.3905,-3466.1212L13598.3933,-3466.1124L13598.3955,-3466.1065L13598.3972,-3466.0997L13598.3977,-3466.0946L13598.3978,-3466.0915L13598.3973,-3466.0873L13598.3954,-3466.0795L13598.3933,-3466.0741L13598.3896,-3466.0673L13598.3841,-3466.0579L13598.3766,-3466.0504L13598.369,-3466.0457L13598.3612,-3466.0414L13598.3493,-3466.0355L13598.3431,-3466.0339L13598.3416,-3466.0333L13598.3379,-3466.032L13598.3334,-3466.0299L13598.3333,-3466.0298L13598.3287,-3466.0263L13598.3271,-3466.0233L13598.3264,-3466.0197L13598.3259,-3466.0165L13598.3257,-3466.0115L13598.3254,-3466.0062L13598.3262,-3466.0025L13598.3275,-3465.9995L13598.3307,-3465.9958L13598.3333,-3465.9935L13598.3339,-3465.993L13598.3377,-3465.99L13598.3416,-3465.9873L13598.3451,-3465.9848L13598.3483,-3465.9818L13598.3513,-3465.9789L13598.3534,-3465.9758L13598.3551,-3465.9721L13598.3564,-3465.9681L13598.3569,-3465.9661L13598.3571,-3465.9648L13598.357,-3465.9591L13598.3554,-3465.9513L13598.3543,-3465.949L13598.3511,-3465.9421L13598.3447,-3465.9321L13598.3396,-3465.9264L13598.3352,-3465.9217L13598.3333,-3465.9202L13598.3304,-3465.9179L13598.3264,-3465.9152L13598.3224,-3465.9126L13598.3195,-3465.9114L13598.3158,-3465.9109L13598.307,-3465.9102L13598.3008,-3465.91L13598.2842,-3465.9121L13598.2779,-3465.9124L13598.2699,-3465.912L13598.2653,-3465.9102L13598.2571,-3465.907L13598.2515,-3465.9043L13598.2449,-3465.9013L13598.24,-3465.8985L13598.2345,-3465.8947L13598.2276,-3465.8888L13598.2209,-3465.8828L13598.2144,-3465.8768L13598.2086,-3465.8708L13598.197,-3465.8636L13598.1937,-3465.8614L13598.189,-3465.8577L13598.1845,-3465.8527L13598.1793,-3465.8497L13598.1701,-3465.8466L13598.1626,-3465.8444L13598.1559,-3465.8436L13598.149,-3465.8431L13598.1357,-3465.8432L13598.1276,-3465.8437L13598.1194,-3465.8451L13598.0983,-3465.8484L13598.0866,-3465.8509L13598.0779,-3465.8539L13598.0632,-3465.8593L13598.0508,-3465.8648L13598.0407,-3465.8703L13598.0347,-3465.8745L13598.0205,-3465.8837L13598.0041,-3465.8947L13597.997,-3465.8991L13597.9855,-3465.9058L13597.9746,-3465.9118L13597.9647,-3465.9155L13597.9575,-3465.9166L13597.9544,-3465.9207L13597.9527,-3465.9247L13597.952,-3465.9301L13597.9513,-3465.9336L13597.9483,-3465.9347L13597.9418,-3465.9342L13597.9323,-3465.9312L13597.9246,-3465.9297L13597.9194,-3465.9297L13597.9035,-3465.9297L13597.8987,-3465.9309L13597.8962,-3465.9319L13597.8933,-3465.9346L13597.8906,-3465.9372L13597.8886,-3465.9397L13597.8861,-3465.9409L13597.8833,-3465.9419L13597.8793,-3465.9416L13597.8754,-3465.9399L13597.8719,-3465.9377L13597.8686,-3465.9351L13597.8629,-3465.9321L13597.8553,-3465.9307L13597.8503,-3465.9287L13597.8461,-3465.9297L13597.8372,-3465.9342L13597.8342,-3465.9374L13597.832,-3465.9377L13597.8297,-3465.9381L13597.826,-3465.9387L13597.8213,-3465.9389L13597.8178,-3465.9396L13597.815,-3465.9406L13597.8108,-3465.9424L13597.8083,-3465.9442L13597.8068,-3465.9471L13597.8058,-3465.9494L13597.8049,-3465.9521L13597.8043,-3465.9544L13597.8024,-3465.9563L13597.7999,-3465.9574L13597.7967,-3465.9576L13597.7944,-3465.9568L13597.7911,-3465.9553L13597.7869,-3465.9534L13597.782,-3465.9511L13597.7787,-3465.9498L13597.7762,-3465.9494L13597.7722,-3465.9494L13597.764,-3465.9521L13597.7593,-3465.9541L13597.7568,-3465.9556L13597.7538,-3465.956L13597.75,-3465.9558L13597.7454,-3465.9548L13597.7386,-3465.9529L13597.7337,-3465.9518L13597.7294,-3465.9512L13597.7239,-3465.9507L13597.7165,-3465.9507L13597.7115,-3465.9509L13597.7068,-3465.9521L13597.7025,-3465.9534L13597.6975,-3465.9546L13597.6934,-3465.9551L13597.6906,-3465.9544L13597.6859,-3465.9534L13597.6787,-3465.9521L13597.6732,-3465.9519L13597.6642,-3465.9501L13597.6597,-3465.9499L13597.6533,-3465.9499L13597.648,-3465.9502L13597.6409,-3465.9521L13597.6324,-3465.9546L13597.6239,-3465.9581L13597.6066,-3465.9627L13597.6039,-3465.9626L13597.6019,-3465.9611L13597.5979,-3465.9582L13597.594,-3465.9541L13597.5905,-3465.9512L13597.5852,-3465.9506L13597.5781,-3465.9507L13597.5634,-3465.9527L13597.5521,-3465.9556L13597.5444,-3465.9574L13597.5359,-3465.9599L13597.5313,-3465.9609L13597.5265,-3465.9611L13597.5208,-3465.9607L13597.517,-3465.9594L13597.5143,-3465.9572L13597.5128,-3465.9559L13597.5109,-3465.9542L13597.5074,-3465.9512L13597.5051,-3465.9494L13597.5029,-3465.9469L13597.5016,-3465.9437L13597.5014,-3465.9414L13597.5014,-3465.9391L13597.5016,-3465.9372L13597.5017,-3465.9355L13597.5019,-3465.934L13597.5027,-3465.9322L13597.5039,-3465.9305L13597.5056,-3465.929L13597.5081,-3465.927L13597.5109,-3465.9258L13597.5171,-3465.924L13597.5277,-3465.9223L13597.5369,-3465.9207L13597.5437,-3465.9198L13597.5504,-3465.919L13597.5591,-3465.9185L13597.5626,-3465.9178L13597.5673,-3465.9162L13597.5699,-3465.9147L13597.5751,-3465.9128L13597.5805,-3465.9121L13597.5852,-3465.9116L13597.5894,-3465.911L13597.5922,-3465.9105L13597.5955,-3465.9101L13597.6014,-3465.9103L13597.6063,-3465.9115L13597.6149,-3465.9131L13597.6209,-3465.9158L13597.626,-3465.9175L13597.6291,-3465.9185L13597.6337,-3465.9195L13597.6365,-3465.9202L13597.6411,-3465.9223L13597.6456,-3465.9247L13597.6499,-3465.9268L13597.6546,-3465.9288L13597.6576,-3465.9302L13597.6616,-3465.9307L13597.6663,-3465.9308L13597.676,-3465.9303L13597.6832,-3465.9298L13597.6886,-3465.9297L13597.6964,-3465.929L13597.7023,-3465.9277L13597.7078,-3465.9264L13597.7173,-3465.9234L13597.7248,-3465.921L13597.7329,-3465.9178L13597.7404,-3465.9145L13597.7526,-3465.9101L13597.7566,-3465.9084L13597.7594,-3465.9064L13597.7631,-3465.9032L13597.7678,-3465.9001L13597.7737,-3465.8976L13597.7795,-3465.8966L13597.7827,-3465.8964L13597.786,-3465.8959L13597.789,-3465.8959L13597.7941,-3465.8967L13597.7976,-3465.8981L13597.8017,-3465.8982L13597.8066,-3465.8984L13597.8188,-3465.8977L13597.8216,-3465.8972L13597.8251,-3465.8967L13597.8315,-3465.8957L13597.8357,-3465.8942L13597.8398,-3465.8931L13597.843,-3465.8922L13597.8477,-3465.8921L13597.8569,-3465.8912L13597.8629,-3465.8899L13597.8689,-3465.8886L13597.8753,-3465.8869L13597.8806,-3465.8859L13597.8862,-3465.8852L13597.894,-3465.8849L13597.9071,-3465.8846L13597.9114,-3465.8848L13597.9177,-3465.8848L13597.9236,-3465.8843L13597.934,-3465.8836L13597.9381,-3465.8846L13597.9473,-3465.8866L13597.9519,-3465.8868L13597.955,-3465.886L13597.9597,-3465.8826L13597.9631,-3465.879L13597.9672,-3465.8733L13597.9717,-3465.8686L13597.9808,-3465.8587L13597.9875,-3465.8531L13597.996,-3465.8452L13598.0035,-3465.8372L13598.0075,-3465.8333L13598.0082,-3465.8327L13598.0191,-3465.8237L13598.0262,-3465.8187L13598.0312,-3465.8166L13598.0361,-3465.8139L13598.0409,-3465.8121L13598.0441,-3465.8106L13598.0491,-3465.8089L13598.0531,-3465.8079L13598.0564,-3465.8062L13598.0588,-3465.8049L13598.0618,-3465.8032L13598.0658,-3465.7994L13598.068,-3465.7967L13598.0695,-3465.7938L13598.071,-3465.7902L13598.0727,-3465.7867L13598.0733,-3465.7828L13598.0748,-3465.7771L13598.0762,-3465.7725L13598.0762,-3465.7722L13598.0775,-3465.7662L13598.0799,-3465.7605L13598.0809,-3465.7542L13598.0814,-3465.7476L13598.0815,-3465.7458L13598.081,-3465.7398L13598.081,-3465.7373L13598.0797,-3465.7344L13598.077,-3465.7321L13598.0734,-3465.7313L13598.0658,-3465.7306L13598.0351,-3465.7301L13598.0309,-3465.7289L13598.0239,-3465.7264L13598.019,-3465.7242L13598.0158,-3465.7221L13598.0112,-3465.7202L13598.0051,-3465.7189L13597.9973,-3465.7166L13597.9918,-3465.7143L13597.9888,-3465.7123L13597.9848,-3465.7101L13597.9816,-3465.7073L13597.9773,-3465.7038L13597.9739,-3465.7008L13597.9674,-3465.6968L13597.9647,-3465.6952L13597.9592,-3465.6927L13597.9542,-3465.6906L13597.95,-3465.6879L13597.9458,-3465.6844L13597.9418,-3465.6807L13597.9397,-3465.6782L13597.9356,-3465.6722L13597.9321,-3465.6669L13597.9303,-3465.6625L13597.9291,-3465.6589L13597.9283,-3465.6508L13597.9276,-3465.6461L13597.9238,-3465.6406L13597.9234,-3465.64L13597.9195,-3465.6343L13597.9167,-3465.6278L13597.9128,-3465.6216L13597.9103,-3465.6166L13597.9063,-3465.6122L13597.9013,-3465.6074L13597.8904,-3465.5979L13597.8817,-3465.5916L13597.8742,-3465.5872L13597.86,-3465.5814L13597.8419,-3465.575L13597.8313,-3465.5717L13597.8221,-3465.5697L13597.8168,-3465.5686L13597.8097,-3465.567L13597.8034,-3465.564L13597.7967,-3465.5632L13597.7846,-3465.561L13597.7781,-3465.561L13597.7696,-3465.5619L13597.7631,-3465.5622L13597.7566,-3465.5624L13597.7484,-3465.5619L13597.737,-3465.5605L13597.7225,-3465.5589L13597.7119,-3465.5567L13597.7077,-3465.555L13597.6977,-3465.5525L13597.6858,-3465.551L13597.6696,-3465.5488L13597.6596,-3465.5466L13597.6412,-3465.5424L13597.6274,-3465.5391L13597.6108,-3465.5327L13597.6054,-3465.5299L13597.5949,-3465.5249L13597.5881,-3465.5231L13597.5787,-3465.5207L13597.5675,-3465.5169L13597.5431,-3465.5078L13597.5214,-3465.5002L13597.5169,-3465.4982L13597.502,-3465.4939L13597.5,-3465.4932L13597.4925,-3465.4907L13597.4808,-3465.4875L13597.4652,-3465.484L13597.452,-3465.4818L13597.4363,-3465.48L13597.4249,-3465.4802L13597.4224,-3465.4808L13597.4173,-3465.4795L13597.4075,-3465.474L13597.4022,-3465.4695L13597.3994,-3465.4671L13597.3911,-3465.4611L13597.3853,-3465.4593L13597.3799,-3465.4593L13597.3724,-3465.4594L13597.3685,-3465.4599L13597.3474,-3465.4675L13597.3266,-3465.4772L13597.3077,-3465.4879L13597.3025,-3465.4906L13597.2963,-3465.4932L13597.2913,-3465.4952L13597.2854,-3465.4972L13597.2781,-3465.4987L13597.2704,-3465.4992L13597.2552,-3465.4996L13597.2436,-3465.4984L13597.2369,-3465.4966L13597.2328,-3465.4937L13597.2274,-3465.4909L13597.2204,-3465.4862L13597.2166,-3465.4849L13597.2075,-3465.4827L13597.1898,-3465.4797L13597.1773,-3465.4779L13597.1631,-3465.477L13597.1504,-3465.4776L13597.1456,-3465.4788L13597.138,-3465.4805L13597.1278,-3465.4816L13597.1236,-3465.4835L13597.1188,-3465.4858L13597.1138,-3465.4887L13597.1094,-3465.4905L13597.1054,-3465.492L13597.0992,-3465.493L13597.0932,-3465.4932L13597.0875,-3465.4928L13597.081,-3465.4917L13597.0752,-3465.49L13597.0573,-3465.4872L13597.0537,-3465.4863L13597.0453,-3465.4862L13597.0379,-3465.4872L13597.0306,-3465.488L13597.0244,-3465.488L13597.0214,-3465.4855L13597.0176,-3465.4827L13597.0145,-3465.4797L13597.0132,-3465.477L13597.0112,-3465.4736L13597.0095,-3465.4708L13597.0077,-3465.4673L13597.0057,-3465.4658L13597.0025,-3465.4641L13596.9987,-3465.4623L13596.9933,-3465.4601L13596.9795,-3465.4571L13596.9794,-3465.4571L13596.97,-3465.4567L13596.9596,-3465.457L13596.9578,-3465.4571L13596.9447,-3465.4576L13596.9439,-3465.4576L13596.9242,-3465.4592L13596.9137,-3465.4594L13596.9024,-3465.4597L13596.8968,-3465.4601L13596.8849,-3465.4622L13596.8806,-3465.4639L13596.8765,-3465.4649L13596.8719,-3465.4642L13596.8528,-3465.4629L13596.8461,-3465.4609L13596.8343,-3465.4571L13596.8214,-3465.4532L13596.809,-3465.4502L13596.8,-3465.4476L13596.7977,-3465.4454L13596.7942,-3465.4416L13596.7902,-3465.4386L13596.7896,-3465.4382L13596.7887,-3465.4376L13596.783,-3465.4337L13596.7739,-3465.4305L13596.7737,-3465.4305L13596.7651,-3465.4292L13596.7552,-3465.4279L13596.7442,-3465.4267L13596.7341,-3465.4269L13596.7236,-3465.4287L13596.7203,-3465.43L13596.718,-3465.4324L13596.7155,-3465.4374L13596.7141,-3465.4449L13596.7128,-3465.4537L13596.7118,-3465.4612L13596.7108,-3465.4669L13596.7085,-3465.4731L13596.7059,-3465.4811L13596.7014,-3465.4974L13596.6991,-3465.5048L13596.6981,-3465.51L13596.6966,-3465.5148L13596.6957,-3465.5213L13596.6954,-3465.5267L13596.6949,-3465.533L13596.6943,-3465.5384L13596.6921,-3465.5436L13596.6892,-3465.5469L13596.6866,-3465.5491L13596.6816,-3465.5517L13596.6797,-3465.5525L13596.6797,-3467.2852Z"/>
</g>
</svg>
