<?xml version="1.0" encoding="UTF-8"?>
<svg  xmlns="http://www.w3.org/2000/svg" xmlns:xlink="http://www.w3.org/1999/xlink" xmlns:go="http://purl.org/svgmap/profile" property="geometry,N03_001,N03_002,N03_003,N03_004,N03_005,N03_007" viewBox="13598.876953125 -3370.60546875 2.197265625 2.197265625" go:dataArea="13598.876953125 -3370.60546875 2.197265625 2.197265625" >
<metadata>
 <rdf:RDF xmlns:rdf="http://www.w3.org/1999/02/22-rdf-syntax-ns#" xmlns:crs="http://opengis.org/xmldtds/transformations.dtd" xmlns:svg="http://www.w3.org/svg" >
  <rdf:Description>
   <crs:CoordinateReferenceSystem rdf:resource="http://purl.org/crs/84" svg:transform="matrix(100.0,0.0,0.0,-100.0,0.0,0.0)" />
  </rdf:Description>
 </rdf:RDF>
</metadata>
<globalCoordinateSystem srsName="http://purl.org/crs/84" transform="matrix(100.0,0.0,0.0,-100.0,0.0,0.0)" />
<defs>
 <g id="p0" >
  <circle cx="0.0" cy="0.0" r="3" stroke="green" stroke-width="2.0" vector-effect="non-scaling-stroke" />
 </g>
</defs>
<g fill="#0000ff" fill-rule="evenodd" opacity="0.5" >
<path content="和歌山県,,,新宮市,,30207" xlink:title="和歌山県" d="M13598.877,-3370.6055L13599.594,-3370.6055L13599.5916,-3370.6021L13599.5751,-3370.5783L13599.5648,-3370.5652L13599.5474,-3370.5432L13599.5299,-3370.5213L13599.5164,-3370.5058L13599.5043,-3370.4892L13599.4865,-3370.4656L13599.4709,-3370.4462L13599.4515,-3370.4224L13599.4302,-3370.3923L13599.4073,-3370.3587L13599.3949,-3370.3409L13599.3778,-3370.3162L13599.3528,-3370.278L13599.3429,-3370.264L13599.3208,-3370.2307L13599.3002,-3370.1993L13599.2904,-3370.1854L13599.2807,-3370.1705L13599.2696,-3370.1527L13599.2602,-3370.1374L13599.2526,-3370.1249L13599.2519,-3370.1238L13599.2467,-3370.1137L13599.2426,-3370.1059L13599.2386,-3370.0973L13599.2363,-3370.0919L13599.2345,-3370.0868L13599.234,-3370.0844L13599.2316,-3370.0755L13599.231,-3370.0736L13599.2298,-3370.0697L13599.2279,-3370.0592L13599.2262,-3370.0418L13599.2254,-3370.0277L13599.2257,-3370.0193L13599.2259,-3370.0158L13599.2269,-3370.014L13599.2277,-3370.0113L13599.2282,-3370.0086L13599.2276,-3370.0067L13599.2269,-3370.0037L13599.226,-3370.001L13599.2259,-3370L13599.2257,-3369.9988L13599.225,-3369.9973L13599.2235,-3369.9946L13599.2221,-3369.9911L13599.2215,-3369.9897L13599.2206,-3369.9877L13599.2196,-3369.9867L13599.2169,-3369.9847L13599.2161,-3369.9837L13599.2209,-3369.9698L13599.2267,-3369.9539L13599.2322,-3369.9321L13599.2333,-3369.9341L13599.235,-3369.936L13599.2382,-3369.9389L13599.2395,-3369.9403L13599.2439,-3369.9422L13599.2474,-3369.9438L13599.2504,-3369.9454L13599.2528,-3369.946L13599.2552,-3369.9464L13599.2581,-3369.9462L13599.2609,-3369.9455L13599.2638,-3369.944L13599.2654,-3369.9428L13599.2665,-3369.9413L13599.2669,-3369.9398L13599.2677,-3369.9382L13599.27,-3369.9368L13599.2719,-3369.936L13599.2737,-3369.9354L13599.2771,-3369.9354L13599.2809,-3369.9347L13599.2844,-3369.9342L13599.2868,-3369.9338L13599.2882,-3369.9334L13599.2897,-3369.933L13599.2912,-3369.932L13599.2932,-3369.9303L13599.2956,-3369.9279L13599.2965,-3369.9258L13599.2973,-3369.923L13599.2979,-3369.9197L13599.2988,-3369.9174L13599.2991,-3369.9144L13599.2995,-3369.9122L13599.2993,-3369.9102L13599.2984,-3369.908L13599.2968,-3369.906L13599.2951,-3369.9051L13599.2923,-3369.9046L13599.2898,-3369.9023L13599.288,-3369.9001L13599.2861,-3369.8992L13599.2834,-3369.9002L13599.2809,-3369.9001L13599.2784,-3369.8993L13599.2759,-3369.8989L13599.2701,-3369.8983L13599.268,-3369.8981L13599.2663,-3369.8967L13599.2643,-3369.8951L13599.2628,-3369.8928L13599.2624,-3369.8903L13599.2616,-3369.887L13599.2614,-3369.8827L13599.2609,-3369.88L13599.2601,-3369.8774L13599.26,-3369.8745L13599.2598,-3369.8721L13599.2608,-3369.8673L13599.2613,-3369.8648L13599.2623,-3369.8609L13599.2635,-3369.8587L13599.2639,-3369.8574L13599.2658,-3369.8563L13599.2683,-3369.8556L13599.2704,-3369.854L13599.2716,-3369.8519L13599.2719,-3369.8485L13599.2699,-3369.8451L13599.2685,-3369.8423L13599.2681,-3369.8406L13599.2687,-3369.8377L13599.2696,-3369.8356L13599.2711,-3369.8335L13599.2745,-3369.8308L13599.2762,-3369.83L13599.2797,-3369.8304L13599.2829,-3369.8308L13599.2854,-3369.8307L13599.2876,-3369.8306L13599.2893,-3369.8295L13599.2905,-3369.8284L13599.2909,-3369.8268L13599.2901,-3369.8251L13599.2883,-3369.8232L13599.2859,-3369.8224L13599.2847,-3369.8219L13599.2841,-3369.8207L13599.2841,-3369.8194L13599.2857,-3369.8168L13599.2881,-3369.8141L13599.2893,-3369.8132L13599.2919,-3369.8131L13599.2933,-3369.8129L13599.2941,-3369.8121L13599.2945,-3369.8112L13599.2942,-3369.8102L13599.2935,-3369.8088L13599.2944,-3369.8071L13599.2968,-3369.8044L13599.2993,-3369.8028L13599.3019,-3369.8015L13599.3047,-3369.8007L13599.3056,-3369.7999L13599.3063,-3369.7994L13599.3065,-3369.7966L13599.307,-3369.7935L13599.3077,-3369.792L13599.3092,-3369.7912L13599.3117,-3369.791L13599.3142,-3369.7899L13599.3143,-3369.7881L13599.3126,-3369.7869L13599.3115,-3369.7845L13599.3104,-3369.7823L13599.3103,-3369.7802L13599.3091,-3369.7781L13599.3061,-3369.7764L13599.3027,-3369.7744L13599.2989,-3369.7713L13599.2955,-3369.7677L13599.2922,-3369.7657L13599.2889,-3369.7636L13599.2847,-3369.7628L13599.279,-3369.7608L13599.2742,-3369.7595L13599.269,-3369.758L13599.2654,-3369.7555L13599.2622,-3369.753L13599.2613,-3369.7518L13599.2611,-3369.7469L13599.2594,-3369.7446L13599.257,-3369.7439L13599.2521,-3369.7434L13599.2496,-3369.7432L13599.2442,-3369.7401L13599.2355,-3369.7405L13599.2285,-3369.7239L13599.2265,-3369.7144L13599.2272,-3369.7036L13599.2278,-3369.7008L13599.2447,-3369.6805L13599.2723,-3369.6399L13599.2993,-3369.6101L13599.3054,-3369.5988L13599.3114,-3369.5841L13599.3175,-3369.5729L13599.3175,-3369.5666L13599.3162,-3369.5649L13599.3061,-3369.561L13599.2784,-3369.5571L13599.2595,-3369.5526L13599.2494,-3369.5452L13599.2292,-3369.5137L13599.2224,-3369.4967L13599.2224,-3369.4934L13599.2204,-3369.4872L13599.215,-3369.477L13599.1692,-3369.4206L13599.1667,-3369.4167L13599.1584,-3369.4037L13599.153,-3369.3885L13599.1395,-3369.3558L13599.1301,-3369.3395L13599.1038,-3369.3034L13599.0957,-3369.2955L13599.0876,-3369.2848L13599.0627,-3369.2589L13599.0519,-3369.2498L13599.0242,-3369.2346L13599.0101,-3369.225L13598.9905,-3369.2014L13598.9829,-3369.1884L13598.9822,-3369.1859L13598.9815,-3369.1834L13598.9816,-3369.1831L13598.9813,-3369.1821L13598.9777,-3369.1763L13598.9731,-3369.1717L13598.9668,-3369.1667L13598.9648,-3369.1651L13598.958,-3369.1597L13598.9476,-3369.1532L13598.9351,-3369.1466L13598.9327,-3369.1454L13598.9228,-3369.1407L13598.906,-3369.1339L13598.8971,-3369.1299L13598.8829,-3369.1232L13598.877,-3369.1207L13598.877,-3368.5544L13598.8778,-3368.5543L13598.8785,-3368.5541L13598.8799,-3368.5532L13598.8807,-3368.5527L13598.8821,-3368.5517L13598.8822,-3368.5517L13598.8827,-3368.5499L13598.8829,-3368.5461L13598.8956,-3368.5468L13598.9201,-3368.5481L13598.9491,-3368.5497L13598.9777,-3368.5512L13599.0018,-3368.5523L13599.0171,-3368.5532L13599.0167,-3368.5541L13599.016,-3368.5552L13599.0145,-3368.557L13599.0203,-3368.558L13599.0224,-3368.5587L13599.0254,-3368.56L13599.028,-3368.5613L13599.0293,-3368.562L13599.0316,-3368.5645L13599.0338,-3368.5661L13599.036,-3368.5677L13599.038,-3368.5673L13599.041,-3368.5679L13599.0454,-3368.5688L13599.0467,-3368.569L13599.0512,-3368.569L13599.0538,-3368.5693L13599.056,-3368.5691L13599.0579,-3368.5673L13599.0589,-3368.5659L13599.0611,-3368.5628L13599.0627,-3368.5592L13599.0647,-3368.556L13599.0655,-3368.5536L13599.0665,-3368.5525L13599.0712,-3368.5511L13599.0751,-3368.5512L13599.0806,-3368.5531L13599.0872,-3368.5558L13599.0898,-3368.5583L13599.0908,-3368.559L13599.093,-3368.5621L13599.0935,-3368.5653L13599.0934,-3368.5672L13599.0947,-3368.5679L13599.096,-3368.5678L13599.0987,-3368.5649L13599.1004,-3368.5621L13599.1007,-3368.5599L13599.1024,-3368.558L13599.1028,-3368.5559L13599.1033,-3368.5543L13599.1053,-3368.5532L13599.1065,-3368.5528L13599.1078,-3368.5517L13599.1097,-3368.5529L13599.1113,-3368.5541L13599.1118,-3368.5569L13599.113,-3368.5581L13599.1129,-3368.5611L13599.1125,-3368.5654L13599.1131,-3368.5672L13599.1131,-3368.5698L13599.1154,-3368.5716L13599.117,-3368.5725L13599.1217,-3368.5724L13599.1258,-3368.5707L13599.131,-3368.5673L13599.1347,-3368.5663L13599.1351,-3368.5657L13599.1358,-3368.5629L13599.1376,-3368.561L13599.1388,-3368.5599L13599.1404,-3368.5587L13599.1412,-3368.5562L13599.1426,-3368.553L13599.1434,-3368.5511L13599.1458,-3368.5497L13599.1471,-3368.5482L13599.1487,-3368.5462L13599.1505,-3368.544L13599.1511,-3368.5427L13599.1508,-3368.5417L13599.1503,-3368.5406L13599.1493,-3368.5398L13599.1476,-3368.5378L13599.1459,-3368.5368L13599.1442,-3368.5371L13599.142,-3368.5386L13599.1401,-3368.5396L13599.1372,-3368.5419L13599.136,-3368.5426L13599.1338,-3368.543L13599.1324,-3368.5427L13599.1303,-3368.5426L13599.1283,-3368.541L13599.1269,-3368.5392L13599.1259,-3368.5363L13599.1243,-3368.5331L13599.1235,-3368.5294L13599.1229,-3368.5262L13599.1227,-3368.5234L13599.1227,-3368.5224L13599.1222,-3368.5193L13599.1223,-3368.5151L13599.1223,-3368.5143L13599.1231,-3368.5124L13599.1247,-3368.509L13599.1246,-3368.5078L13599.1238,-3368.5057L13599.1227,-3368.5052L13599.1214,-3368.5053L13599.1205,-3368.5059L13599.1188,-3368.5077L13599.1179,-3368.5078L13599.1167,-3368.5069L13599.1154,-3368.5059L13599.1146,-3368.5053L13599.1134,-3368.5046L13599.1124,-3368.5042L13599.1119,-3368.5014L13599.1105,-3368.499L13599.11,-3368.4961L13599.1103,-3368.4936L13599.1108,-3368.4915L13599.1117,-3368.4902L13599.1143,-3368.4889L13599.1167,-3368.4869L13599.1188,-3368.4866L13599.1223,-3368.4859L13599.1232,-3368.4851L13599.1239,-3368.4835L13599.1236,-3368.4829L13599.1224,-3368.4823L13599.1202,-3368.4812L13599.1178,-3368.481L13599.1167,-3368.4809L13599.1153,-3368.479L13599.1146,-3368.4767L13599.1142,-3368.4754L13599.1153,-3368.474L13599.1166,-3368.4734L13599.1205,-3368.4733L13599.123,-3368.473L13599.1255,-3368.4722L13599.1259,-3368.4714L13599.1244,-3368.4707L13599.1217,-3368.4704L13599.1206,-3368.4701L13599.119,-3368.4697L13599.1163,-3368.4691L13599.1147,-3368.469L13599.1133,-3368.4686L13599.1123,-3368.4674L13599.0997,-3368.4662L13599.0972,-3368.4644L13599.1043,-3368.4373L13599.1104,-3368.4082L13599.0905,-3368.4082L13599.0888,-3368.4157L13599.0869,-3368.4237L13599.0848,-3368.4318L13599.0835,-3368.4371L13599.0834,-3368.4373L13599.0324,-3368.4344L13598.9996,-3368.433L13598.9965,-3368.4733L13598.994,-3368.5135L13598.9916,-3368.543L13598.898,-3368.5386L13598.9008,-3368.5013L13598.8863,-3368.5005L13598.8874,-3368.4867L13598.9043,-3368.4876L13598.9104,-3368.4877L13598.9111,-3368.4802L13598.9133,-3368.4362L13598.9144,-3368.4192L13598.9166,-3368.4082L13598.905,-3368.4082L13598.9028,-3368.4187L13598.8799,-3368.4158L13598.877,-3368.4154Z"/>
<path content="和歌山県,,,新宮市,,30207" xlink:title="和歌山県" d="M13599.2451,-3369.9788L13599.2458,-3369.977L13599.2479,-3369.9754L13599.2505,-3369.9744L13599.2541,-3369.9733L13599.2574,-3369.9729L13599.2612,-3369.9731L13599.264,-3369.9745L13599.2659,-3369.9753L13599.2685,-3369.9765L13599.2697,-3369.9764L13599.2708,-3369.9751L13599.2705,-3369.9729L13599.2721,-3369.9715L13599.2729,-3369.9704L13599.2722,-3369.969L13599.2699,-3369.9681L13599.267,-3369.9682L13599.265,-3369.9682L13599.2617,-3369.9697L13599.2587,-3369.9706L13599.257,-3369.9708L13599.2546,-3369.9704L13599.2518,-3369.9707L13599.2494,-3369.9708L13599.2482,-3369.9699L13599.2478,-3369.9681L13599.2478,-3369.964L13599.2487,-3369.9617L13599.2509,-3369.9589L13599.2502,-3369.9562L13599.2481,-3369.9528L13599.2469,-3369.9504L13599.2453,-3369.9483L13599.2425,-3369.9482L13599.2398,-3369.9465L13599.2377,-3369.9465L13599.2363,-3369.9475L13599.2355,-3369.9506L13599.2361,-3369.9538L13599.2352,-3369.9559L13599.2354,-3369.9579L13599.2359,-3369.9602L13599.2352,-3369.9627L13599.2347,-3369.9648L13599.2354,-3369.9667L13599.2373,-3369.969L13599.2395,-3369.9702L13599.2418,-3369.97L13599.2439,-3369.9691L13599.246,-3369.9688L13599.2473,-3369.9708L13599.247,-3369.9739L13599.2448,-3369.9761L13599.2418,-3369.9777L13599.2404,-3369.9774L13599.2382,-3369.9759L13599.2348,-3369.9753L13599.2315,-3369.9757L13599.2285,-3369.9763L13599.2265,-3369.9774L13599.2245,-3369.9794L13599.2229,-3369.9815L13599.2224,-3369.9836L13599.2225,-3369.9858L13599.223,-3369.9881L13599.224,-3369.9913L13599.2253,-3369.9943L13599.2275,-3369.9969L13599.2312,-3370L13599.2316,-3370.0003L13599.2352,-3370.002L13599.2395,-3370.0017L13599.2422,-3370L13599.244,-3369.9988L13599.2465,-3369.9961L13599.2484,-3369.9926L13599.2497,-3369.9891L13599.2499,-3369.986L13599.2487,-3369.9831L13599.246,-3369.9808L13599.2451,-3369.9788Z"/>
<path content="和歌山県,,,新宮市,,30207" xlink:title="和歌山県" d="M13599.162,-3368.57L13599.1624,-3368.5694L13599.163,-3368.5678L13599.1641,-3368.5666L13599.1647,-3368.5654L13599.1652,-3368.5641L13599.1654,-3368.5626L13599.1649,-3368.5618L13599.1643,-3368.5615L13599.1635,-3368.5616L13599.1629,-3368.5623L13599.1621,-3368.5638L13599.1615,-3368.5642L13599.1603,-3368.5649L13599.1596,-3368.5657L13599.1583,-3368.5666L13599.1575,-3368.5676L13599.1571,-3368.5681L13599.1567,-3368.5687L13599.1562,-3368.5694L13599.1546,-3368.5697L13599.1542,-3368.5693L13599.1533,-3368.5684L13599.153,-3368.5679L13599.1522,-3368.5675L13599.1509,-3368.5668L13599.1488,-3368.5663L13599.1475,-3368.5664L13599.1456,-3368.5667L13599.1444,-3368.5669L13599.143,-3368.568L13599.1418,-3368.5686L13599.1415,-3368.5691L13599.1416,-3368.5704L13599.1419,-3368.5726L13599.1408,-3368.5742L13599.1403,-3368.575L13599.1391,-3368.5759L13599.1379,-3368.5772L13599.1377,-3368.578L13599.1375,-3368.5808L13599.138,-3368.5821L13599.1388,-3368.5832L13599.14,-3368.5847L13599.1417,-3368.5858L13599.143,-3368.5864L13599.1447,-3368.5865L13599.1454,-3368.5864L13599.1469,-3368.5854L13599.148,-3368.584L13599.1487,-3368.5826L13599.1492,-3368.5814L13599.1497,-3368.5804L13599.1501,-3368.5795L13599.1506,-3368.5788L13599.1512,-3368.5782L13599.1525,-3368.5776L13599.1548,-3368.5768L13599.156,-3368.5764L13599.1572,-3368.5759L13599.1579,-3368.5754L13599.1582,-3368.5751L13599.1592,-3368.5739L13599.1596,-3368.5734L13599.1609,-3368.5721L13599.1613,-3368.5718L13599.1617,-3368.5713L13599.162,-3368.57Z"/>
<path content="和歌山県,,,新宮市,,30207" xlink:title="和歌山県" d="M13599.2837,-3369.859L13599.2856,-3369.8581L13599.2881,-3369.8597L13599.29,-3369.8618L13599.2912,-3369.8637L13599.2928,-3369.8646L13599.2947,-3369.865L13599.296,-3369.8637L13599.2955,-3369.8613L13599.2925,-3369.8592L13599.2907,-3369.8571L13599.2882,-3369.8552L13599.2867,-3369.8543L13599.2843,-3369.8548L13599.2816,-3369.856L13599.2804,-3369.8587L13599.2791,-3369.8608L13599.2798,-3369.8633L13599.2801,-3369.8656L13599.2817,-3369.866L13599.2822,-3369.8641L13599.283,-3369.8612L13599.2837,-3369.859Z"/>
<path content="和歌山県,,,新宮市,,30207" xlink:title="和歌山県" d="M13599.1729,-3368.5708L13599.1721,-3368.5705L13599.1714,-3368.5705L13599.1708,-3368.5708L13599.1701,-3368.5712L13599.1691,-3368.5724L13599.1686,-3368.5727L13599.1676,-3368.5734L13599.1672,-3368.5738L13599.1669,-3368.5741L13599.1667,-3368.5743L13599.1658,-3368.575L13599.165,-3368.5762L13599.1641,-3368.5777L13599.1638,-3368.5784L13599.1638,-3368.5787L13599.1641,-3368.5791L13599.1645,-3368.5794L13599.1654,-3368.5799L13599.166,-3368.5801L13599.1667,-3368.5803L13599.1672,-3368.5804L13599.1681,-3368.5804L13599.1686,-3368.5803L13599.1695,-3368.5797L13599.17,-3368.579L13599.1705,-3368.5774L13599.1705,-3368.5769L13599.1711,-3368.576L13599.1721,-3368.5745L13599.1727,-3368.5735L13599.1732,-3368.5724L13599.1734,-3368.5717L13599.1733,-3368.5712L13599.1729,-3368.5708Z"/>
<path content="和歌山県,,,新宮市,,30207" xlink:title="和歌山県" d="M13599.2035,-3368.559L13599.2026,-3368.5588L13599.1994,-3368.5615L13599.1946,-3368.5646L13599.1926,-3368.5659L13599.1912,-3368.5668L13599.1911,-3368.5674L13599.1916,-3368.5679L13599.1927,-3368.5671L13599.1967,-3368.5651L13599.2007,-3368.5625L13599.2029,-3368.5608L13599.2038,-3368.5596L13599.2035,-3368.559Z"/>
<path content="和歌山県,,,新宮市,,30207" xlink:title="和歌山県" d="M13599.1309,-3368.4615L13599.1284,-3368.4611L13599.1263,-3368.4614L13599.1256,-3368.4622L13599.1259,-3368.4631L13599.1283,-3368.4641L13599.1302,-3368.4641L13599.1318,-3368.4633L13599.1321,-3368.4624L13599.1309,-3368.4615Z"/>
<path content="和歌山県,,,新宮市,,30207" xlink:title="和歌山県" d="M13599.26,-3369.9548L13599.2578,-3369.9547L13599.2563,-3369.9552L13599.2569,-3369.9562L13599.2586,-3369.9567L13599.2611,-3369.9574L13599.2626,-3369.958L13599.2634,-3369.957L13599.2628,-3369.956L13599.26,-3369.9548Z"/>
<path content="和歌山県,,,新宮市,,30207" xlink:title="和歌山県" d="M13599.2602,-3369.9618L13599.2574,-3369.9615L13599.2568,-3369.9633L13599.2598,-3369.9637L13599.2611,-3369.9625L13599.2602,-3369.9618Z"/>
</g>
</svg>
