<?xml version="1.0" encoding="UTF-8"?>
<svg  xmlns="http://www.w3.org/2000/svg" xmlns:xlink="http://www.w3.org/1999/xlink" xmlns:go="http://purl.org/svgmap/profile" property="geometry,N03_001,N03_002,N03_003,N03_004,N03_005,N03_007" viewBox="13552.734375 -3498.046875 8.7890625 8.7890625" go:dataArea="13552.734375 -3498.046875 8.7890625 8.7890625" >
<metadata>
 <rdf:RDF xmlns:rdf="http://www.w3.org/1999/02/22-rdf-syntax-ns#" xmlns:crs="http://opengis.org/xmldtds/transformations.dtd" xmlns:svg="http://www.w3.org/svg" >
  <rdf:Description>
   <crs:CoordinateReferenceSystem rdf:resource="http://purl.org/crs/84" svg:transform="matrix(100.0,0.0,0.0,-100.0,0.0,0.0)" />
  </rdf:Description>
 </rdf:RDF>
</metadata>
<globalCoordinateSystem srsName="http://purl.org/crs/84" transform="matrix(100.0,0.0,0.0,-100.0,0.0,0.0)" />
<defs>
 <g id="p0" >
  <circle cx="0.0" cy="0.0" r="3" stroke="green" stroke-width="2.0" vector-effect="non-scaling-stroke" />
 </g>
</defs>
<g fill="#0000ff" fill-rule="evenodd" opacity="0.5" >
<path content="京都府,,,京都市,西京区,26111" xlink:title="京都府" d="M13561.5234,-3492.7644L13561.523,-3492.7641L13561.5199,-3492.7625L13561.4598,-3492.7726L13561.4366,-3492.7732L13561.3178,-3492.8001L13561.2939,-3492.8102L13561.1954,-3492.8406L13561.1635,-3492.8466L13561.1302,-3492.8466L13561.099,-3492.8412L13561.0887,-3492.8391L13561.0722,-3492.8358L13561.0164,-3492.8382L13561.0027,-3492.8364L13560.9758,-3492.8221L13560.949,-3492.8155L13560.9262,-3492.8123L13560.8892,-3492.8129L13560.8602,-3492.8171L13560.8363,-3492.8243L13560.8333,-3492.8253L13560.8095,-3492.8332L13560.7827,-3492.8374L13560.7653,-3492.8338L13560.7124,-3492.8088L13560.6726,-3492.7915L13560.6269,-3492.7616L13560.5951,-3492.7521L13560.5538,-3492.7414L13560.5371,-3492.739L13560.5002,-3492.7396L13560.4676,-3492.7396L13560.448,-3492.7366L13560.434,-3492.737L13560.4277,-3492.7372L13560.4067,-3492.7324L13560.3828,-3492.7288L13560.3458,-3492.7259L13560.3067,-3492.7282L13560.285,-3492.7306L13560.2502,-3492.7396L13560.2241,-3492.7451L13560.1082,-3492.7802L13560.0724,-3492.7897L13560.0561,-3492.794L13560.0395,-3492.7967L13560.0355,-3492.7974L13560.0313,-3492.7981L13560,-3492.8033L13559.9988,-3492.8035L13559.9749,-3492.8053L13559.9604,-3492.8101L13559.9452,-3492.8154L13559.9423,-3492.8186L13559.9322,-3492.8292L13559.9314,-3492.8375L13559.9336,-3492.8494L13559.943,-3492.8632L13559.9691,-3492.8781L13559.9937,-3492.8876L13560,-3492.8937L13560.0213,-3492.9145L13560.0423,-3492.9282L13560.0626,-3492.9413L13560.0822,-3492.9536L13560.1111,-3492.9717L13560.1176,-3492.9842L13560.1147,-3493.0009L13560.1067,-3493.0081L13560.0756,-3493.023L13560.0618,-3493.0361L13560.0524,-3493.0475L13560.0452,-3493.0731L13560.0444,-3493.0821L13560.051,-3493.097L13560.0929,-3493.1422L13560.1124,-3493.1642L13560.1276,-3493.1816L13560.1696,-3493.2227L13560.1928,-3493.2507L13560.195,-3493.2632L13560.1943,-3493.2752L13560.1899,-3493.2895L13560.1863,-3493.305L13560.1899,-3493.3265L13560.1934,-3493.3333L13560.2035,-3493.353L13560.2108,-3493.3583L13560.2492,-3493.3822L13560.2673,-3493.3977L13560.2861,-3493.4257L13560.2955,-3493.4484L13560.3006,-3493.4681L13560.3202,-3493.4949L13560.3317,-3493.5027L13560.3335,-3493.5031L13560.3506,-3493.5068L13560.3623,-3493.5071L13560.3796,-3493.5074L13560.3919,-3493.5146L13560.3955,-3493.5259L13560.3919,-3493.5396L13560.3738,-3493.5623L13560.3586,-3493.5736L13560.3448,-3493.582L13560.3403,-3493.5944L13560.3439,-3493.6034L13560.3555,-3493.6117L13560.3816,-3493.6207L13560.4019,-3493.6236L13560.4207,-3493.6159L13560.4253,-3493.6097L13560.4323,-3493.6004L13560.4446,-3493.5926L13560.4577,-3493.5938L13560.4946,-3493.6057L13560.5091,-3493.6153L13560.51,-3493.6152L13560.533,-3493.6135L13560.5439,-3493.6022L13560.5475,-3493.5902L13560.5511,-3493.5682L13560.5497,-3493.5467L13560.5516,-3493.536L13560.5526,-3493.53L13560.5627,-3493.5121L13560.5707,-3493.4978L13560.5888,-3493.4924L13560.604,-3493.4966L13560.62,-3493.5043L13560.641,-3493.5206L13560.6459,-3493.5302L13560.6562,-3493.5504L13560.6685,-3493.579L13560.6808,-3493.5951L13560.6938,-3493.6059L13560.7199,-3493.6136L13560.7489,-3493.6279L13560.7634,-3493.6506L13560.7685,-3493.6601L13560.7685,-3493.678L13560.7619,-3493.6924L13560.7424,-3493.7091L13560.7214,-3493.7276L13560.7062,-3493.749L13560.6996,-3493.7574L13560.6982,-3493.7681L13560.704,-3493.7776L13560.7156,-3493.783L13560.7373,-3493.7806L13560.767,-3493.7866L13560.7909,-3493.8039L13560.8069,-3493.8218L13560.8119,-3493.8343L13560.8157,-3493.8535L13560.8179,-3493.878L13560.8215,-3493.9036L13560.8302,-3493.9334L13560.8333,-3493.9375L13560.8497,-3493.9585L13560.8758,-3493.9764L13560.8951,-3493.983L13560.9055,-3493.9865L13560.9251,-3493.9895L13560.9468,-3493.9853L13560.9751,-3493.974L13560.9983,-3493.9567L13561.0186,-3493.9382L13561.0316,-3493.9364L13561.0424,-3493.9406L13561.0801,-3493.974L13561.0953,-3493.9991L13561.1069,-3494.0217L13561.1171,-3494.0557L13561.1197,-3494.0828L13561.1161,-3494.1025L13561.1139,-3494.1168L13561.099,-3494.1572L13561.096,-3494.1667L13561.0874,-3494.1936L13561.0888,-3494.2026L13561.0997,-3494.2187L13561.1171,-3494.227L13561.1345,-3494.2282L13561.1642,-3494.2157L13561.191,-3494.2014L13561.2171,-3494.1888L13561.2598,-3494.1721L13561.2777,-3494.1667L13561.2851,-3494.1644L13561.2989,-3494.1644L13561.305,-3494.1667L13561.3149,-3494.1704L13561.3185,-3494.1888L13561.317,-3494.202L13561.3076,-3494.2187L13561.2844,-3494.2413L13561.2598,-3494.2598L13561.2514,-3494.2677L13561.2388,-3494.2795L13561.191,-3494.3189L13561.1678,-3494.3374L13561.1547,-3494.3523L13561.1516,-3494.3696L13561.1521,-3494.3843L13561.1523,-3494.3898L13561.1646,-3494.4036L13561.1928,-3494.4316L13561.2117,-3494.4578L13561.2349,-3494.4954L13561.2537,-3494.5193L13561.2783,-3494.539L13561.3008,-3494.5509L13561.3356,-3494.5622L13561.3598,-3494.5672L13561.3895,-3494.5792L13561.3975,-3494.5971L13561.4011,-3494.6096L13561.4004,-3494.6239L13561.3975,-3494.6358L13561.3859,-3494.643L13561.3721,-3494.6454L13561.3649,-3494.643L13561.3609,-3494.6404L13561.3511,-3494.6341L13561.3424,-3494.6311L13561.3141,-3494.6382L13561.2982,-3494.6382L13561.2913,-3494.6399L13561.2815,-3494.6424L13561.2685,-3494.6514L13561.2627,-3494.6686L13561.2663,-3494.6794L13561.2794,-3494.6889L13561.3511,-3494.7247L13561.3659,-3494.7411L13561.3717,-3494.7566L13561.3804,-3494.7786L13561.3919,-3494.8007L13561.4086,-3494.8323L13561.4137,-3494.8514L13561.4158,-3494.8663L13561.4166,-3494.8979L13561.4144,-3494.914L13561.4137,-3494.9319L13561.4158,-3494.9439L13561.4122,-3494.954L13561.4021,-3494.9784L13561.4006,-3494.9946L13561.4016,-3495L13561.4043,-3495.0148L13561.4115,-3495.0268L13561.4144,-3495.0285L13561.4221,-3495.0331L13561.4296,-3495.0375L13561.4419,-3495.0405L13561.4531,-3495.0391L13561.4719,-3495.0337L13561.4813,-3495.0343L13561.4777,-3495.0444L13561.4748,-3495.0617L13561.4799,-3495.0927L13561.4915,-3495.1118L13561.5053,-3495.1226L13561.5219,-3495.1297L13561.5234,-3495.1301L13561.5234,-3495.1632L13561.5074,-3495.1756L13561.4929,-3495.1941L13561.4821,-3495.2102L13561.477,-3495.2222L13561.4784,-3495.2371L13561.4879,-3495.246L13561.5038,-3495.2574L13561.5234,-3495.2633L13561.5234,-3495.3461L13561.5205,-3495.3504L13561.5184,-3495.3694L13561.5199,-3495.3843L13561.5234,-3495.3897L13561.5234,-3496.6416L13561.507,-3496.6572L13561.4989,-3496.6667L13561.4932,-3496.6734L13561.4577,-3496.6948L13561.4411,-3496.7002L13561.4164,-3496.7044L13561.3954,-3496.7109L13561.3824,-3496.7199L13561.3766,-3496.7318L13561.3766,-3496.7449L13561.3796,-3496.7633L13561.3847,-3496.7896L13561.3854,-3496.814L13561.3861,-3496.8409L13561.3832,-3496.8689L13561.3767,-3496.8915L13561.3709,-3496.9148L13561.363,-3496.9697L13561.3564,-3496.9953L13561.3506,-3497.0168L13561.3412,-3497.0657L13561.334,-3497.0902L13561.3264,-3497.1195L13561.3511,-3497.1244L13561.3787,-3497.1274L13561.4011,-3497.1274L13561.4127,-3497.1256L13561.4511,-3497.1125L13561.4634,-3497.1095L13561.4815,-3497.1131L13561.5047,-3497.1221L13561.5234,-3497.1346Z"/>
<path content="京都府,,,亀岡市,,26206" xlink:title="京都府" d="M13561.5234,-3498.0469L13561.5234,-3497.1346L13561.5047,-3497.1221L13561.4815,-3497.1131L13561.4634,-3497.1095L13561.4511,-3497.1125L13561.4127,-3497.1256L13561.4011,-3497.1274L13561.3787,-3497.1274L13561.3511,-3497.1244L13561.3264,-3497.1195L13561.2966,-3497.1124L13561.2655,-3497.1112L13561.2365,-3497.1124L13561.2053,-3497.1172L13561.193,-3497.1172L13561.1452,-3497.0987L13561.1148,-3497.0897L13561.0829,-3497.0897L13561.0669,-3497.0879L13561.0496,-3497.0796L13561.0307,-3497.0623L13561.009,-3497.0444L13560.9818,-3497.0296L13560.9456,-3497.0165L13560.9231,-3497.0051L13560.8941,-3496.9902L13560.8644,-3496.9801L13560.8333,-3496.9659L13560.8122,-3496.9562L13560.8108,-3496.9556L13560.7861,-3496.9395L13560.7644,-3496.9329L13560.755,-3496.9336L13560.7434,-3496.9401L13560.7391,-3496.9568L13560.7304,-3497.0069L13560.7173,-3497.0486L13560.7079,-3497.0606L13560.6941,-3497.0624L13560.6775,-3497.0558L13560.6563,-3497.0366L13560.6499,-3497.0307L13560.6304,-3497.0141L13560.6014,-3496.995L13560.5833,-3496.9884L13560.5703,-3496.9884L13560.5427,-3496.9914L13560.5101,-3497.0081L13560.5008,-3497.0115L13560.4906,-3497.0152L13560.4573,-3497.02L13560.4495,-3497.02L13560.413,-3497.02L13560.3826,-3497.0236L13560.371,-3497.0337L13560.3638,-3497.0546L13560.3638,-3497.0701L13560.3732,-3497.1006L13560.3696,-3497.1119L13560.3594,-3497.1196L13560.3471,-3497.1208L13560.3319,-3497.1149L13560.3145,-3497.1125L13560.2913,-3497.1119L13560.266,-3497.1137L13560.2529,-3497.1125L13560.2377,-3497.1053L13560.2158,-3497.0802L13560.1956,-3497.0624L13560.1796,-3497.0522L13560.1528,-3497.0439L13560.1231,-3497.0421L13560.109,-3497.0434L13560.0977,-3497.0445L13560.0746,-3497.0427L13560.0536,-3497.0439L13560.0253,-3497.0379L13560.0057,-3497.0266L13560,-3497.0208L13559.9717,-3496.9926L13559.9492,-3496.9801L13559.9239,-3496.9723L13559.8956,-3496.9717L13559.85,-3496.9747L13559.8304,-3496.9717L13559.8043,-3496.9627L13559.7833,-3496.9442L13559.7558,-3496.9168L13559.7384,-3496.9097L13559.7109,-3496.9073L13559.6833,-3496.9079L13559.6623,-3496.9037L13559.6304,-3496.8936L13559.5986,-3496.887L13559.579,-3496.8882L13559.5566,-3496.8971L13559.5552,-3496.899L13559.5384,-3496.921L13559.5276,-3496.9389L13559.5102,-3496.9616L13559.4957,-3496.9723L13559.4761,-3496.9711L13559.4493,-3496.9616L13559.4277,-3496.9482L13559.4147,-3496.9357L13559.3951,-3496.9052L13559.3835,-3496.885L13559.3691,-3496.8629L13559.3582,-3496.8438L13559.3495,-3496.8205L13559.3444,-3496.7877L13559.3372,-3496.7651L13559.3292,-3496.7442L13559.3125,-3496.7179L13559.2944,-3496.6953L13559.2734,-3496.6792L13559.2629,-3496.6667L13559.2589,-3496.6619L13559.2495,-3496.6464L13559.2474,-3496.6303L13559.2416,-3496.6118L13559.2365,-3496.604L13559.2194,-3496.6086L13559.2097,-3496.6112L13559.1944,-3496.638L13559.1706,-3496.6577L13559.1667,-3496.6635L13559.1646,-3496.6667L13559.151,-3496.6869L13559.1263,-3496.7048L13559.101,-3496.7263L13559.0742,-3496.737L13559.0546,-3496.7346L13559.0177,-3496.7203L13558.9851,-3496.7036L13558.972,-3496.7001L13558.9653,-3496.7024L13558.9583,-3496.7048L13558.938,-3496.709L13558.9242,-3496.7221L13558.9141,-3496.7436L13558.9121,-3496.7548L13558.9097,-3496.7681L13558.8909,-3496.8032L13558.8835,-3496.8079L13558.8726,-3496.8151L13558.8639,-3496.8336L13558.8531,-3496.8765L13558.8494,-3496.9135L13558.8328,-3496.9308L13558.8139,-3496.9451L13558.8067,-3496.9522L13558.798,-3496.9737L13558.7741,-3496.9922L13558.7625,-3497.0065L13558.748,-3497.0214L13558.7256,-3497.0274L13558.7074,-3497.0345L13558.6886,-3497.0465L13558.6727,-3497.062L13558.6683,-3497.086L13558.6734,-3497.0961L13558.6843,-3497.1122L13558.6835,-3497.1229L13558.677,-3497.1295L13558.6596,-3497.1337L13558.656,-3497.1402L13558.6517,-3497.1581L13558.6546,-3497.1806L13558.6517,-3497.1907L13558.6456,-3497.1965L13558.6386,-3497.2032L13558.6249,-3497.2146L13558.6183,-3497.2277L13558.6096,-3497.2483L13558.614,-3497.2725L13558.6133,-3497.2862L13558.6046,-3497.2976L13558.572,-3497.3143L13558.5583,-3497.3338L13558.5685,-3497.3595L13558.575,-3497.3756L13558.575,-3497.3965L13558.5714,-3497.4156L13558.5677,-3497.4239L13558.56,-3497.4301L13558.5475,-3497.44L13558.5215,-3497.4537L13558.5008,-3497.4657L13558.4867,-3497.4826L13558.4769,-3497.4943L13558.4764,-3497.4953L13558.474,-3497.5L13558.4667,-3497.514L13558.4609,-3497.5355L13558.4609,-3497.551L13558.4754,-3497.5915L13558.4769,-3497.6088L13558.4552,-3497.6148L13558.4284,-3497.6184L13558.4088,-3497.6184L13558.3834,-3497.6201L13558.3581,-3497.6273L13558.3494,-3497.6319L13558.3333,-3497.6405L13558.3313,-3497.6416L13558.2994,-3497.6667L13558.2856,-3497.6726L13558.2552,-3497.6756L13558.2436,-3497.6726L13558.2277,-3497.6631L13558.2023,-3497.613L13558.1926,-3497.5942L13558.1914,-3497.5921L13558.1755,-3497.5706L13558.1625,-3497.5587L13558.1436,-3497.5456L13558.1096,-3497.5199L13558.091,-3497.5L13558.0907,-3497.4997L13558.0574,-3497.4579L13558.0306,-3497.4347L13557.9973,-3497.4263L13557.9002,-3497.4084L13557.8748,-3497.4001L13557.8492,-3497.393L13557.8282,-3497.3924L13557.7775,-3497.3966L13557.7485,-3497.399L13557.7036,-3497.3924L13557.6999,-3497.3909L13557.6601,-3497.3751L13557.6355,-3497.3632L13557.6079,-3497.3471L13557.5688,-3497.3131L13557.5478,-3497.2928L13557.542,-3497.2773L13557.5369,-3497.2445L13557.5254,-3497.22L13557.5094,-3497.2009L13557.5,-3497.1932L13557.4935,-3497.1878L13557.4746,-3497.1807L13557.4363,-3497.1795L13557.4058,-3497.1759L13557.3754,-3497.1682L13557.3478,-3497.1568L13557.2935,-3497.1366L13557.2731,-3497.1238L13557.2651,-3497.1089L13557.2615,-3497.0939L13557.2557,-3497.0814L13557.2455,-3497.0683L13557.2282,-3497.0558L13557.1992,-3497.0427L13557.1709,-3497.0331L13557.1593,-3497.0266L13557.1601,-3497.0218L13557.1702,-3497.0182L13557.1927,-3497.0086L13557.2043,-3497.0045L13557.2064,-3496.9973L13557.2064,-3496.9919L13557.1905,-3496.9818L13557.1782,-3496.98L13557.1543,-3496.98L13557.1418,-3496.9843L13557.1282,-3496.989L13557.1216,-3496.9883L13557.1043,-3496.9866L13557.0927,-3496.9788L13557.0949,-3496.9466L13557.1086,-3496.9132L13557.1159,-3496.884L13557.1151,-3496.8757L13557.1178,-3496.8546L13557.1182,-3496.8516L13557.1199,-3496.8375L13557.1209,-3496.8297L13557.126,-3496.8087L13557.1267,-3496.7831L13557.1231,-3496.7664L13557.1144,-3496.7491L13557.1101,-3496.7419L13557.1079,-3496.733L13557.1166,-3496.7187L13557.1274,-3496.7109L13557.1347,-3496.6972L13557.1347,-3496.6852L13557.1253,-3496.6667L13557.1238,-3496.6638L13557.1144,-3496.6435L13557.105,-3496.6196L13557.0963,-3496.5964L13557.0927,-3496.5737L13557.0985,-3496.5415L13557.1079,-3496.4616L13557.1137,-3496.4395L13557.118,-3496.4186L13557.1231,-3496.3916L13557.134,-3496.3647L13557.1463,-3496.345L13557.1622,-3496.3206L13557.197,-3496.2729L13557.2122,-3496.2532L13557.2274,-3496.2299L13557.2868,-3496.1643L13557.3194,-3496.1249L13557.3353,-3496.1135L13557.3615,-3496.0945L13557.3832,-3496.0862L13557.4,-3496.0861L13557.4406,-3496.0858L13557.4796,-3496.0856L13557.5,-3496.0844L13557.5296,-3496.0826L13557.6317,-3496.0862L13557.7288,-3496.082L13557.7563,-3496.0808L13557.7889,-3496.0772L13557.8172,-3496.0683L13557.8288,-3496.0587L13557.836,-3496.0462L13557.8411,-3496.0152L13557.8436,-3495.9893L13557.8465,-3495.9738L13557.8566,-3495.9601L13557.8726,-3495.9338L13557.882,-3495.913L13557.8892,-3495.8915L13557.8943,-3495.8646L13557.8964,-3495.8342L13557.8964,-3495.8333L13557.8964,-3495.8169L13557.8877,-3495.7925L13557.8624,-3495.734L13557.8598,-3495.7271L13557.8559,-3495.7167L13557.8501,-3495.6947L13557.8573,-3495.6201L13557.8599,-3495.5939L13557.8578,-3495.5885L13557.8078,-3495.5634L13557.7867,-3495.5503L13557.7612,-3495.5385L13557.7571,-3495.5366L13557.7404,-3495.536L13557.7129,-3495.542L13557.6679,-3495.5622L13557.6441,-3495.5682L13557.623,-3495.5664L13557.5817,-3495.5491L13557.5535,-3495.5414L13557.5259,-3495.5396L13557.5,-3495.5381L13557.4933,-3495.5378L13557.4658,-3495.5223L13557.4535,-3495.5032L13557.4339,-3495.4847L13557.4173,-3495.477L13557.397,-3495.4752L13557.3797,-3495.4803L13557.3506,-3495.4889L13557.3282,-3495.4889L13557.3021,-3495.4794L13557.2767,-3495.4787L13557.2427,-3495.4955L13557.2189,-3495.5058L13557.1877,-3495.5094L13557.1595,-3495.5088L13557.1189,-3495.4999L13557.0878,-3495.4897L13557.0617,-3495.4832L13557.0298,-3495.4599L13557.0233,-3495.4516L13557.0023,-3495.4378L13556.9813,-3495.4342L13556.9595,-3495.4354L13556.9421,-3495.4408L13556.9226,-3495.4468L13556.89,-3495.4677L13556.8654,-3495.476L13556.8458,-3495.4754L13556.7994,-3495.4635L13556.769,-3495.4492L13556.7662,-3495.4476L13556.748,-3495.4372L13556.7349,-3495.4211L13556.7299,-3495.3883L13556.7277,-3495.3645L13556.7052,-3495.34L13556.6842,-3495.3161L13556.677,-3495.3018L13556.6667,-3495.2962L13556.6596,-3495.2923L13556.6407,-3495.2881L13556.6234,-3495.2893L13556.6067,-3495.3096L13556.5835,-3495.3287L13556.5603,-3495.3376L13556.4987,-3495.3448L13556.4785,-3495.3522L13556.4437,-3495.3651L13556.4233,-3495.3747L13556.3957,-3495.3765L13556.3523,-3495.3706L13556.3298,-3495.3682L13556.325,-3495.3677L13556.3131,-3495.3664L13556.303,-3495.3562L13556.2914,-3495.3133L13556.2929,-3495.2829L13556.3074,-3495.2298L13556.3139,-3495.2113L13556.3124,-3495.1916L13556.3103,-3495.1815L13556.2653,-3495.1409L13556.248,-3495.1253L13556.2269,-3495.1063L13556.2124,-3495.0866L13556.2088,-3495.0634L13556.2103,-3495.027L13556.2191,-3495L13556.2192,-3494.9998L13556.2207,-3494.9952L13556.254,-3494.9456L13556.2649,-3494.9248L13556.2642,-3494.9009L13556.2555,-3494.8818L13556.2308,-3494.852L13556.2185,-3494.8341L13556.2026,-3494.8156L13556.1939,-3494.7987L13556.1939,-3494.7849L13556.2026,-3494.7599L13556.2069,-3494.7444L13556.2069,-3494.7372L13556.1925,-3494.7194L13556.1396,-3494.6824L13556.1244,-3494.6663L13556.1178,-3494.6448L13556.1178,-3494.6209L13556.1331,-3494.5679L13556.1454,-3494.5356L13556.1526,-3494.5297L13556.1664,-3494.5243L13556.1881,-3494.5154L13556.2062,-3494.4933L13556.2207,-3494.4545L13556.2186,-3494.4342L13556.2186,-3494.4169L13556.2251,-3494.3949L13556.2383,-3494.3756L13556.231,-3494.3648L13556.1839,-3494.341L13556.1614,-3494.3278L13556.1376,-3494.3123L13556.0716,-3494.2831L13556.0477,-3494.2736L13556.0449,-3494.2717L13556.0289,-3494.261L13555.9897,-3494.2372L13555.9738,-3494.2223L13555.9557,-3494.1972L13555.9564,-3494.1686L13555.9564,-3494.1667L13555.9563,-3494.106L13555.9476,-3494.0833L13555.9389,-3494.0636L13555.9193,-3494.0356L13555.8954,-3494.0105L13555.8751,-3493.9938L13555.8563,-3493.9771L13555.8333,-3493.9599L13555.807,-3493.9402L13555.786,-3493.9241L13555.7621,-3493.9044L13555.7187,-3493.8692L13555.7211,-3493.866L13555.7682,-3493.8047L13555.7771,-3493.7948L13555.7885,-3493.7821L13555.8131,-3493.7684L13555.8312,-3493.7564L13555.8333,-3493.7553L13555.8508,-3493.7457L13555.8595,-3493.7338L13555.8617,-3493.7219L13555.8609,-3493.7034L13555.8551,-3493.6855L13555.8472,-3493.658L13555.8333,-3493.629L13555.8327,-3493.6276L13555.8124,-3493.6067L13555.795,-3493.593L13555.7755,-3493.5805L13555.7566,-3493.556L13555.7512,-3493.5482L13555.7399,-3493.5322L13555.7342,-3493.5079L13555.7313,-3493.4835L13555.7327,-3493.4686L13555.7486,-3493.4316L13555.7595,-3493.4107L13555.7762,-3493.3851L13555.7943,-3493.3666L13555.8052,-3493.3541L13555.8117,-3493.3344L13555.8118,-3493.3333L13555.8146,-3493.3147L13555.8117,-3493.2873L13555.8153,-3493.2825L13555.8333,-3493.2781L13555.8371,-3493.2771L13555.8711,-3493.2765L13555.8885,-3493.2849L13555.9131,-3493.3052L13555.9341,-3493.3314L13555.9348,-3493.3333L13555.9435,-3493.3589L13555.9515,-3493.3726L13555.9551,-3493.3929L13555.9479,-3493.4137L13555.9363,-3493.4298L13555.9051,-3493.4519L13555.8812,-3493.4686L13555.866,-3493.4865L13555.8617,-3493.502L13555.8674,-3493.5312L13555.8819,-3493.5527L13555.9261,-3493.6171L13555.9733,-3493.6786L13555.9916,-3493.6989L13556.0141,-3493.7115L13556.0474,-3493.7258L13556.0629,-3493.7306L13556.0989,-3493.7419L13556.1365,-3493.7526L13556.159,-3493.7616L13556.1844,-3493.7765L13556.2017,-3493.7997L13556.2162,-3493.8326L13556.23,-3493.8666L13556.2351,-3493.8886L13556.2373,-3493.9113L13556.2373,-3493.9375L13556.2387,-3493.9864L13556.2409,-3494.011L13556.2416,-3494.0342L13556.2404,-3494.0423L13556.2387,-3494.0539L13556.238,-3494.0832L13556.2336,-3494.1112L13556.2351,-3494.1464L13556.2394,-3494.1595L13556.2485,-3494.1667L13556.2699,-3494.1834L13556.2829,-3494.2025L13556.3083,-3494.2192L13556.3132,-3494.2194L13556.3466,-3494.2209L13556.3727,-3494.2221L13556.4184,-3494.2287L13556.456,-3494.2341L13556.4713,-3494.2364L13556.4807,-3494.2329L13556.4828,-3494.2233L13556.4734,-3494.1983L13556.4662,-3494.1828L13556.4629,-3494.1667L13556.4618,-3494.1613L13556.464,-3494.1446L13556.4741,-3494.1303L13556.4814,-3494.1118L13556.4836,-3494.0999L13556.483,-3494.0865L13556.4828,-3494.0814L13556.4857,-3494.0682L13556.488,-3494.0651L13556.5002,-3494.048L13556.5336,-3494.0319L13556.5582,-3494.0223L13556.5915,-3494.0199L13556.6017,-3494.0128L13556.5995,-3494.0014L13556.577,-3493.9287L13556.572,-3493.9072L13556.5662,-3493.884L13556.552,-3493.8349L13556.5483,-3493.8152L13556.5389,-3493.7902L13556.5396,-3493.7842L13556.5534,-3493.7651L13556.5578,-3493.7538L13556.5556,-3493.7407L13556.544,-3493.7168L13556.5259,-3493.7007L13556.4919,-3493.6703L13556.4803,-3493.6536L13556.4665,-3493.6333L13556.4513,-3493.6137L13556.4042,-3493.5725L13556.3887,-3493.5541L13556.3756,-3493.5356L13556.3336,-3493.4885L13556.3206,-3493.4688L13556.301,-3493.4474L13556.2851,-3493.4169L13556.2764,-3493.3967L13556.2706,-3493.3716L13556.2735,-3493.3507L13556.28,-3493.3418L13556.3039,-3493.3346L13556.3125,-3493.3333L13556.3216,-3493.3319L13556.359,-3493.3263L13556.393,-3493.3209L13556.4097,-3493.3209L13556.4383,-3493.3127L13556.4387,-3493.3126L13556.4542,-3493.3073L13556.4684,-3493.3024L13556.4916,-3493.3191L13556.5042,-3493.3333L13556.5155,-3493.346L13556.5249,-3493.3674L13556.5278,-3493.3919L13556.5481,-3493.4098L13556.5741,-3493.4312L13556.5952,-3493.4503L13556.6133,-3493.4694L13556.6364,-3493.4831L13556.6667,-3493.5005L13556.6894,-3493.5136L13556.7104,-3493.5297L13556.7299,-3493.5494L13556.7379,-3493.5708L13556.7299,-3493.5977L13556.7176,-3493.6234L13556.7147,-3493.6502L13556.7162,-3493.6604L13556.7263,-3493.6723L13556.7408,-3493.6789L13556.7567,-3493.6807L13556.8017,-3493.6789L13556.8344,-3493.6749L13556.8655,-3493.6726L13556.8836,-3493.6737L13556.9003,-3493.6803L13556.9155,-3493.694L13556.9336,-3493.7137L13556.9539,-3493.7412L13556.9706,-3493.7579L13556.9894,-3493.7752L13557.0191,-3493.7937L13557.0384,-3493.8027L13557.0749,-3493.8199L13557.0981,-3493.8342L13557.1242,-3493.8485L13557.1408,-3493.8629L13557.1517,-3493.8789L13557.1626,-3493.8956L13557.18,-3493.9064L13557.1916,-3493.9082L13557.2242,-3493.9016L13557.2444,-3493.8921L13557.2655,-3493.8861L13557.2843,-3493.8825L13557.3162,-3493.8837L13557.3452,-3493.8849L13557.3865,-3493.8926L13557.4067,-3493.8926L13557.4437,-3493.8825L13557.4741,-3493.873L13557.5,-3493.869L13557.5134,-3493.867L13557.5424,-3493.8694L13557.575,-3493.8742L13557.609,-3493.8759L13557.646,-3493.8766L13557.6612,-3493.8712L13557.6895,-3493.8533L13557.6967,-3493.8414L13557.7141,-3493.8229L13557.7373,-3493.8062L13557.7657,-3493.7922L13557.7873,-3493.7817L13557.8575,-3493.765L13557.9097,-3493.7495L13557.9496,-3493.7328L13557.9778,-3493.7233L13557.9975,-3493.7196L13558.0206,-3493.7153L13558.0358,-3493.7125L13558.0727,-3493.7096L13558.1053,-3493.7036L13558.1191,-3493.6964L13558.1307,-3493.6791L13558.1365,-3493.6666L13558.164,-3493.598L13558.172,-3493.5807L13558.1742,-3493.5556L13558.172,-3493.5437L13558.164,-3493.5276L13558.1546,-3493.4912L13558.1469,-3493.4654L13558.1433,-3493.4445L13558.1339,-3493.4063L13558.1303,-3493.3723L13558.1259,-3493.3472L13558.1239,-3493.3333L13558.1237,-3493.3323L13558.1162,-3493.2977L13558.1107,-3493.2727L13558.1042,-3493.2489L13558.0984,-3493.2298L13558.0897,-3493.1904L13558.0868,-3493.1665L13558.0846,-3493.1457L13558.0694,-3493.0926L13558.0642,-3493.0714L13558.0584,-3493.0434L13558.0587,-3493.0373L13558.0599,-3493.0154L13558.0649,-3492.9927L13558.0714,-3492.9814L13558.0867,-3492.9677L13558.1062,-3492.945L13558.1142,-3492.9313L13558.1149,-3492.9249L13558.1164,-3492.9116L13558.1167,-3492.9087L13558.1178,-3492.9003L13558.1186,-3492.8754L13558.1193,-3492.8544L13558.1164,-3492.8382L13558.1041,-3492.8126L13558.1026,-3492.7953L13558.1171,-3492.775L13558.1446,-3492.7571L13558.1562,-3492.7464L13558.1584,-3492.7321L13558.1569,-3492.7166L13558.1468,-3492.7023L13558.1374,-3492.6856L13558.1367,-3492.6724L13558.1345,-3492.647L13558.1381,-3492.6321L13558.1388,-3492.6172L13558.1186,-3492.5892L13558.1004,-3492.5731L13558.0881,-3492.5516L13558.0816,-3492.5182L13558.0794,-3492.5075L13558.0749,-3492.5L13558.0664,-3492.486L13558.0548,-3492.4705L13558.0497,-3492.4544L13558.0512,-3492.4389L13558.0881,-3492.4013L13558.1048,-3492.3829L13558.1099,-3492.3728L13558.1084,-3492.3579L13558.1012,-3492.337L13558.099,-3492.3119L13558.1033,-3492.2881L13558.1106,-3492.2714L13558.1214,-3492.2505L13558.1258,-3492.2452L13558.0881,-3492.2261L13557.9795,-3492.17L13557.9541,-3492.1581L13557.9444,-3492.1522L13557.8729,-3492.1097L13557.8003,-3492.0705L13557.7616,-3492.0467L13557.7518,-3492.0407L13557.7359,-3492.0246L13557.7149,-3492.0079L13557.6873,-3491.9966L13557.6721,-3491.9897L13557.6598,-3491.9813L13557.6359,-3491.973L13557.5838,-3491.964L13557.5715,-3491.9581L13557.5,-3491.9061L13557.4394,-3491.862L13557.4169,-3491.8501L13557.4036,-3491.8387L13557.3981,-3491.834L13557.3884,-3491.8202L13557.3833,-3491.8084L13557.3826,-3491.7803L13557.3753,-3491.7576L13557.3637,-3491.738L13557.3377,-3491.7064L13557.3116,-3491.6831L13557.2895,-3491.6667L13557.2675,-3491.6503L13557.2451,-3491.6407L13557.2291,-3491.6383L13557.2117,-3491.6401L13557.1784,-3491.6461L13557.1716,-3491.6499L13557.1481,-3491.6628L13557.1433,-3491.6642L13557.1353,-3491.6667L13557.1172,-3491.6722L13557.1148,-3491.6729L13557.096,-3491.6729L13557.0612,-3491.6676L13557.0285,-3491.6667L13556.9968,-3491.6658L13556.9581,-3491.6622L13556.9023,-3491.6562L13556.8256,-3491.6432L13556.7409,-3491.6288L13556.7214,-3491.6294L13556.7058,-3491.633L13556.6827,-3491.6461L13556.6667,-3491.6596L13556.6584,-3491.6667L13556.6552,-3491.6694L13556.6335,-3491.6813L13556.6125,-3491.6825L13556.5784,-3491.6807L13556.5582,-3491.6819L13556.5357,-3491.6896L13556.4442,-3491.732L13556.4225,-3491.7404L13556.4044,-3491.7445L13556.387,-3491.7463L13556.3544,-3491.7475L13556.3334,-3491.7517L13556.2976,-3491.7684L13556.2857,-3491.7737L13556.2737,-3491.7791L13556.2549,-3491.7833L13556.2376,-3491.7851L13556.2035,-3491.7821L13556.1731,-3491.7827L13556.1138,-3491.7904L13556.0826,-3491.7922L13556.0541,-3491.7904L13556.0258,-3491.7874L13555.9889,-3491.7803L13555.9021,-3491.7576L13555.8623,-3491.7511L13555.8333,-3491.7499L13555.8047,-3491.7487L13555.7816,-3491.7469L13555.7555,-3491.7403L13555.7143,-3491.7266L13555.6817,-3491.7121L13555.6661,-3491.7051L13555.6169,-3491.6667L13555.5959,-3491.6502L13555.5735,-3491.6389L13555.5554,-3491.6359L13555.5235,-3491.6371L13555.5062,-3491.6359L13555.4903,-3491.6312L13555.4493,-3491.6109L13555.403,-3491.5775L13555.369,-3491.559L13555.3545,-3491.5554L13555.3408,-3491.5536L13555.3328,-3491.5548L13555.2896,-3491.6005L13555.2641,-3491.6276L13555.2219,-3491.6667L13555.2094,-3491.6783L13555.1906,-3491.6986L13555.158,-3491.7439L13555.1012,-3491.8107L13555.0824,-3491.8268L13555.0672,-3491.8334L13555,-3491.8458L13554.9608,-3491.853L13554.947,-3491.8554L13554.9376,-3491.8542L13554.926,-3491.8459L13554.9159,-3491.8322L13554.9021,-3491.8149L13554.8884,-3491.7802L13554.8834,-3491.7747L13554.8783,-3491.7689L13554.8754,-3491.76L13554.8718,-3491.7057L13554.8703,-3491.6956L13554.8624,-3491.686L13554.853,-3491.6771L13554.8226,-3491.6741L13554.7994,-3491.6741L13554.7286,-3491.6667L13554.6745,-3491.661L13554.6181,-3491.6586L13554.6043,-3491.661L13554.5927,-3491.6664L13554.5924,-3491.6667L13554.5664,-3491.689L13554.5548,-3491.6938L13554.5338,-3491.6968L13554.5021,-3491.7031L13554.4947,-3491.7045L13554.4773,-3491.7117L13554.4484,-3491.7349L13554.431,-3491.7451L13554.4223,-3491.7469L13554.4151,-3491.7457L13554.4114,-3491.7385L13554.4078,-3491.7147L13554.3868,-3491.6813L13554.3749,-3491.6667L13554.3638,-3491.6532L13554.3492,-3491.6353L13554.3174,-3491.5924L13554.2761,-3491.562L13554.2313,-3491.5339L13554.2088,-3491.5238L13554.182,-3491.5178L13554.1667,-3491.517L13554.1603,-3491.5167L13554.1314,-3491.5226L13554.106,-3491.531L13554.0915,-3491.5405L13554.0771,-3491.5554L13554.0583,-3491.5763L13554.0358,-3491.6156L13554.0214,-3491.6341L13553.9824,-3491.6667L13553.97,-3491.6771L13553.9511,-3491.698L13553.9229,-3491.7391L13553.8947,-3491.7857L13553.8831,-3491.8059L13553.8737,-3491.8292L13553.8614,-3491.8513L13553.8433,-3491.8716L13553.823,-3491.8882L13553.8091,-3491.893L13553.8071,-3491.8936L13553.7912,-3491.8954L13553.768,-3491.893L13553.7499,-3491.8924L13553.734,-3491.896L13553.7166,-3491.905L13553.6927,-3491.9372L13553.6696,-3491.9634L13553.6529,-3491.9783L13553.6435,-3491.9897L13553.629,-3492.0027L13553.6065,-3492.0469L13553.6022,-3492.0696L13553.6007,-3492.0916L13553.6087,-3492.1137L13553.6254,-3492.1441L13553.6377,-3492.1614L13553.65,-3492.1835L13553.6666,-3492.2294L13553.671,-3492.2527L13553.6746,-3492.2734L13553.6746,-3492.2736L13553.6766,-3492.2952L13553.6774,-3492.3029L13553.6875,-3492.3471L13553.694,-3492.368L13553.7303,-3492.4371L13553.7636,-3492.4676L13553.794,-3492.4861L13553.8196,-3492.4929L13553.8195,-3492.5L13553.8193,-3492.5048L13553.8189,-3492.5203L13553.8146,-3492.54L13553.8023,-3492.5471L13553.7863,-3492.5495L13553.7566,-3492.5483L13553.6994,-3492.5525L13553.6451,-3492.5646L13553.6241,-3492.5717L13553.5835,-3492.5962L13553.5632,-3492.6039L13553.5335,-3492.6129L13553.5156,-3492.6152L13553.511,-3492.6159L13553.4357,-3492.6361L13553.4096,-3492.6451L13553.3978,-3492.651L13553.3871,-3492.6564L13553.3799,-3492.666L13553.3733,-3492.6922L13553.3582,-3492.7077L13553.3393,-3492.7107L13553.3333,-3492.7097L13553.3176,-3492.7071L13553.2908,-3492.7012L13553.264,-3492.6958L13553.2422,-3492.697L13553.2125,-3492.7101L13553.1683,-3492.722L13553.1364,-3492.7247L13553.0959,-3492.7252L13553.0256,-3492.7252L13553.0068,-3492.733L13552.9727,-3492.7527L13552.9256,-3492.7718L13552.8872,-3492.7849L13552.864,-3492.7891L13552.8459,-3492.7909L13552.8141,-3492.7968L13552.7938,-3492.804L13552.772,-3492.8189L13552.7546,-3492.841L13552.7344,-3492.8607L13552.7344,-3498.0469Z"/>
<path content="大阪府,,,高槻市,,27207" xlink:title="大阪府" d="M13558.3834,-3497.6201L13558.4088,-3497.6184L13558.4284,-3497.6184L13558.4552,-3497.6148L13558.4769,-3497.6088L13558.4754,-3497.5915L13558.4609,-3497.551L13558.4609,-3497.5355L13558.4667,-3497.514L13558.474,-3497.5L13558.4764,-3497.4953L13558.4769,-3497.4943L13558.4867,-3497.4826L13558.5008,-3497.4657L13558.5215,-3497.4537L13558.5475,-3497.44L13558.56,-3497.4301L13558.5677,-3497.4239L13558.5714,-3497.4156L13558.575,-3497.3965L13558.575,-3497.3756L13558.5685,-3497.3595L13558.5583,-3497.3338L13558.572,-3497.3143L13558.6046,-3497.2976L13558.6133,-3497.2862L13558.614,-3497.2725L13558.6096,-3497.2483L13558.6183,-3497.2277L13558.6249,-3497.2146L13558.6386,-3497.2032L13558.6456,-3497.1965L13558.6517,-3497.1907L13558.6546,-3497.1806L13558.6517,-3497.1581L13558.656,-3497.1402L13558.6596,-3497.1337L13558.677,-3497.1295L13558.6835,-3497.1229L13558.6843,-3497.1122L13558.6734,-3497.0961L13558.6683,-3497.086L13558.6727,-3497.062L13558.6886,-3497.0465L13558.7074,-3497.0345L13558.7256,-3497.0274L13558.748,-3497.0214L13558.7625,-3497.0065L13558.7741,-3496.9922L13558.798,-3496.9737L13558.8067,-3496.9522L13558.8139,-3496.9451L13558.8328,-3496.9308L13558.8494,-3496.9135L13558.8531,-3496.8765L13558.8639,-3496.8336L13558.8726,-3496.8151L13558.8835,-3496.8079L13558.8909,-3496.8032L13558.9097,-3496.7681L13558.9121,-3496.7548L13558.9141,-3496.7436L13558.9242,-3496.7221L13558.938,-3496.709L13558.9583,-3496.7048L13558.9653,-3496.7024L13558.972,-3496.7001L13558.9851,-3496.7036L13559.0177,-3496.7203L13559.0546,-3496.7346L13559.0742,-3496.737L13559.101,-3496.7263L13559.1263,-3496.7048L13559.151,-3496.6869L13559.1646,-3496.6667L13559.1667,-3496.6635L13559.1706,-3496.6577L13559.1944,-3496.638L13559.2097,-3496.6112L13559.2194,-3496.6086L13559.2365,-3496.604L13559.2416,-3496.6118L13559.2474,-3496.6303L13559.2495,-3496.6464L13559.2589,-3496.6619L13559.2629,-3496.6667L13559.2734,-3496.6792L13559.2944,-3496.6953L13559.3125,-3496.7179L13559.3292,-3496.7442L13559.3372,-3496.7651L13559.3444,-3496.7877L13559.3495,-3496.8205L13559.3582,-3496.8438L13559.3691,-3496.8629L13559.3835,-3496.885L13559.3951,-3496.9052L13559.4147,-3496.9357L13559.4277,-3496.9482L13559.4493,-3496.9616L13559.4761,-3496.9711L13559.4957,-3496.9723L13559.5102,-3496.9616L13559.5276,-3496.9389L13559.5384,-3496.921L13559.5552,-3496.899L13559.5566,-3496.8971L13559.579,-3496.8882L13559.5986,-3496.887L13559.6304,-3496.8936L13559.6623,-3496.9037L13559.6833,-3496.9079L13559.7109,-3496.9073L13559.7384,-3496.9097L13559.7558,-3496.9168L13559.7833,-3496.9442L13559.8043,-3496.9627L13559.8304,-3496.9717L13559.85,-3496.9747L13559.8956,-3496.9717L13559.9239,-3496.9723L13559.9492,-3496.9801L13559.9717,-3496.9926L13560,-3497.0208L13560.0057,-3497.0266L13560.0253,-3497.0379L13560.0536,-3497.0439L13560.0746,-3497.0427L13560.0977,-3497.0445L13560.109,-3497.0434L13560.1231,-3497.0421L13560.1528,-3497.0439L13560.1796,-3497.0522L13560.1956,-3497.0624L13560.2158,-3497.0802L13560.2377,-3497.1053L13560.2529,-3497.1125L13560.266,-3497.1137L13560.2913,-3497.1119L13560.3145,-3497.1125L13560.3319,-3497.1149L13560.3471,-3497.1208L13560.3594,-3497.1196L13560.3696,-3497.1119L13560.3732,-3497.1006L13560.3638,-3497.0701L13560.3638,-3497.0546L13560.371,-3497.0337L13560.3826,-3497.0236L13560.413,-3497.02L13560.4495,-3497.02L13560.4573,-3497.02L13560.4906,-3497.0152L13560.5008,-3497.0115L13560.5101,-3497.0081L13560.5427,-3496.9914L13560.5703,-3496.9884L13560.5833,-3496.9884L13560.6014,-3496.995L13560.6304,-3497.0141L13560.6499,-3497.0307L13560.6563,-3497.0366L13560.6775,-3497.0558L13560.6941,-3497.0624L13560.7079,-3497.0606L13560.7173,-3497.0486L13560.7304,-3497.0069L13560.7391,-3496.9568L13560.7434,-3496.9401L13560.755,-3496.9336L13560.7644,-3496.9329L13560.7861,-3496.9395L13560.8108,-3496.9556L13560.8122,-3496.9562L13560.8333,-3496.9659L13560.8644,-3496.9801L13560.8941,-3496.9902L13560.9231,-3497.0051L13560.9456,-3497.0165L13560.9818,-3497.0296L13561.009,-3497.0444L13561.0307,-3497.0623L13561.0496,-3497.0796L13561.0669,-3497.0879L13561.0829,-3497.0897L13561.1148,-3497.0897L13561.1452,-3497.0987L13561.193,-3497.1172L13561.2053,-3497.1172L13561.2365,-3497.1124L13561.2655,-3497.1112L13561.2966,-3497.1124L13561.3264,-3497.1195L13561.334,-3497.0902L13561.3412,-3497.0657L13561.3506,-3497.0168L13561.3564,-3496.9953L13561.363,-3496.9697L13561.3709,-3496.9148L13561.3767,-3496.8915L13561.3832,-3496.8689L13561.3861,-3496.8409L13561.3854,-3496.814L13561.3847,-3496.7896L13561.3796,-3496.7633L13561.3766,-3496.7449L13561.3766,-3496.7318L13561.3824,-3496.7199L13561.3954,-3496.7109L13561.4164,-3496.7044L13561.4411,-3496.7002L13561.4577,-3496.6948L13561.4932,-3496.6734L13561.4989,-3496.6667L13561.507,-3496.6572L13561.5234,-3496.6416L13561.5234,-3495.3897L13561.5199,-3495.3843L13561.5184,-3495.3694L13561.5205,-3495.3504L13561.5234,-3495.3461L13561.5234,-3495.2633L13561.5038,-3495.2574L13561.4879,-3495.246L13561.4784,-3495.2371L13561.477,-3495.2222L13561.4821,-3495.2102L13561.4929,-3495.1941L13561.5074,-3495.1756L13561.5234,-3495.1632L13561.5234,-3495.1301L13561.5219,-3495.1297L13561.5053,-3495.1226L13561.4915,-3495.1118L13561.4799,-3495.0927L13561.4748,-3495.0617L13561.4777,-3495.0444L13561.4813,-3495.0343L13561.4719,-3495.0337L13561.4531,-3495.0391L13561.4419,-3495.0405L13561.4296,-3495.0375L13561.4221,-3495.0331L13561.4144,-3495.0285L13561.4115,-3495.0268L13561.4043,-3495.0148L13561.4016,-3495L13561.4006,-3494.9946L13561.4021,-3494.9784L13561.4122,-3494.954L13561.4158,-3494.9439L13561.4137,-3494.9319L13561.4144,-3494.914L13561.4166,-3494.8979L13561.4158,-3494.8663L13561.4137,-3494.8514L13561.4086,-3494.8323L13561.3919,-3494.8007L13561.3804,-3494.7786L13561.3717,-3494.7566L13561.3659,-3494.7411L13561.3511,-3494.7247L13561.2794,-3494.6889L13561.2663,-3494.6794L13561.2627,-3494.6686L13561.2685,-3494.6514L13561.2815,-3494.6424L13561.2913,-3494.6399L13561.2982,-3494.6382L13561.3141,-3494.6382L13561.3424,-3494.6311L13561.3511,-3494.6341L13561.3609,-3494.6404L13561.3649,-3494.643L13561.3721,-3494.6454L13561.3859,-3494.643L13561.3975,-3494.6358L13561.4004,-3494.6239L13561.4011,-3494.6096L13561.3975,-3494.5971L13561.3895,-3494.5792L13561.3598,-3494.5672L13561.3356,-3494.5622L13561.3008,-3494.5509L13561.2783,-3494.539L13561.2537,-3494.5193L13561.2349,-3494.4954L13561.2117,-3494.4578L13561.1928,-3494.4316L13561.1646,-3494.4036L13561.1523,-3494.3898L13561.1521,-3494.3843L13561.1516,-3494.3696L13561.1547,-3494.3523L13561.1678,-3494.3374L13561.191,-3494.3189L13561.2388,-3494.2795L13561.2514,-3494.2677L13561.2598,-3494.2598L13561.2844,-3494.2413L13561.3076,-3494.2187L13561.317,-3494.202L13561.3185,-3494.1888L13561.3149,-3494.1704L13561.305,-3494.1667L13561.2989,-3494.1644L13561.2851,-3494.1644L13561.2777,-3494.1667L13561.2598,-3494.1721L13561.2171,-3494.1888L13561.191,-3494.2014L13561.1642,-3494.2157L13561.1345,-3494.2282L13561.1171,-3494.227L13561.0997,-3494.2187L13561.0888,-3494.2026L13561.0874,-3494.1936L13561.096,-3494.1667L13561.099,-3494.1572L13561.1139,-3494.1168L13561.1161,-3494.1025L13561.1197,-3494.0828L13561.1171,-3494.0557L13561.1069,-3494.0217L13561.0953,-3493.9991L13561.0801,-3493.974L13561.0424,-3493.9406L13561.0316,-3493.9364L13561.0186,-3493.9382L13560.9983,-3493.9567L13560.9751,-3493.974L13560.9468,-3493.9853L13560.9251,-3493.9895L13560.9055,-3493.9865L13560.8951,-3493.983L13560.8758,-3493.9764L13560.8497,-3493.9585L13560.8333,-3493.9375L13560.8302,-3493.9334L13560.8215,-3493.9036L13560.8179,-3493.878L13560.8157,-3493.8535L13560.8119,-3493.8343L13560.8069,-3493.8218L13560.7909,-3493.8039L13560.767,-3493.7866L13560.7373,-3493.7806L13560.7156,-3493.783L13560.704,-3493.7776L13560.6982,-3493.7681L13560.6996,-3493.7574L13560.7062,-3493.749L13560.7214,-3493.7276L13560.7424,-3493.7091L13560.7619,-3493.6924L13560.7685,-3493.678L13560.7685,-3493.6601L13560.7634,-3493.6506L13560.7489,-3493.6279L13560.7199,-3493.6136L13560.6938,-3493.6059L13560.6808,-3493.5951L13560.6685,-3493.579L13560.6562,-3493.5504L13560.6459,-3493.5302L13560.641,-3493.5206L13560.62,-3493.5043L13560.604,-3493.4966L13560.5888,-3493.4924L13560.5707,-3493.4978L13560.5627,-3493.5121L13560.5526,-3493.53L13560.5516,-3493.536L13560.5497,-3493.5467L13560.5511,-3493.5682L13560.5475,-3493.5902L13560.5439,-3493.6022L13560.533,-3493.6135L13560.51,-3493.6152L13560.5091,-3493.6153L13560.4946,-3493.6057L13560.4577,-3493.5938L13560.4446,-3493.5926L13560.4323,-3493.6004L13560.4253,-3493.6097L13560.4207,-3493.6159L13560.4019,-3493.6236L13560.3816,-3493.6207L13560.3555,-3493.6117L13560.3439,-3493.6034L13560.3403,-3493.5944L13560.3448,-3493.582L13560.3586,-3493.5736L13560.3738,-3493.5623L13560.3919,-3493.5396L13560.3955,-3493.5259L13560.3919,-3493.5146L13560.3796,-3493.5074L13560.3623,-3493.5071L13560.3506,-3493.5068L13560.3335,-3493.5031L13560.3317,-3493.5027L13560.3202,-3493.4949L13560.3006,-3493.4681L13560.2955,-3493.4484L13560.2861,-3493.4257L13560.2673,-3493.3977L13560.2492,-3493.3822L13560.2108,-3493.3583L13560.2035,-3493.353L13560.1934,-3493.3333L13560.1899,-3493.3265L13560.1863,-3493.305L13560.1899,-3493.2895L13560.1943,-3493.2752L13560.195,-3493.2632L13560.1928,-3493.2507L13560.1696,-3493.2227L13560.1276,-3493.1816L13560.1124,-3493.1642L13560.0929,-3493.1422L13560.051,-3493.097L13560.0444,-3493.0821L13560.0452,-3493.0731L13560.0524,-3493.0475L13560.0618,-3493.0361L13560.0756,-3493.023L13560.1067,-3493.0081L13560.1147,-3493.0009L13560.1176,-3492.9842L13560.1111,-3492.9717L13560.0822,-3492.9536L13560.0626,-3492.9413L13560.0423,-3492.9282L13560.0213,-3492.9145L13560,-3492.8937L13559.9937,-3492.8876L13559.9691,-3492.8781L13559.943,-3492.8632L13559.9336,-3492.8494L13559.9314,-3492.8375L13559.9322,-3492.8292L13559.9423,-3492.8186L13559.9452,-3492.8154L13559.9604,-3492.8101L13559.9749,-3492.8053L13559.9988,-3492.8035L13560,-3492.8033L13560.0313,-3492.7981L13560.0355,-3492.7974L13560.0395,-3492.7967L13560.0561,-3492.794L13560.0724,-3492.7897L13560.1082,-3492.7802L13560.2241,-3492.7451L13560.2502,-3492.7396L13560.285,-3492.7306L13560.3067,-3492.7282L13560.3458,-3492.7259L13560.3828,-3492.7288L13560.4067,-3492.7324L13560.4277,-3492.7372L13560.434,-3492.737L13560.448,-3492.7366L13560.4676,-3492.7396L13560.5002,-3492.7396L13560.5371,-3492.739L13560.5538,-3492.7414L13560.5951,-3492.7521L13560.6269,-3492.7616L13560.6726,-3492.7915L13560.7124,-3492.8088L13560.7653,-3492.8338L13560.7827,-3492.8374L13560.8095,-3492.8332L13560.8333,-3492.8253L13560.8363,-3492.8243L13560.8602,-3492.8171L13560.8892,-3492.8129L13560.9262,-3492.8123L13560.949,-3492.8155L13560.9758,-3492.8221L13561.0027,-3492.8364L13561.0164,-3492.8382L13561.0722,-3492.8358L13561.0887,-3492.8391L13561.099,-3492.8412L13561.1302,-3492.8466L13561.1635,-3492.8466L13561.1954,-3492.8406L13561.2939,-3492.8102L13561.3178,-3492.8001L13561.4366,-3492.7732L13561.4598,-3492.7726L13561.5199,-3492.7625L13561.523,-3492.7641L13561.5234,-3492.7644L13561.5234,-3489.2578L13556.9534,-3489.2578L13556.9534,-3489.2578L13556.9476,-3489.2805L13556.9462,-3489.2996L13556.9491,-3489.3204L13556.9571,-3489.3456L13556.9614,-3489.3592L13556.9657,-3489.3992L13556.9621,-3489.4207L13556.9527,-3489.4344L13556.9353,-3489.4547L13556.9187,-3489.4821L13556.9172,-3489.4917L13556.9274,-3489.5227L13556.9266,-3489.5382L13556.9129,-3489.571L13556.9086,-3489.5954L13556.9114,-3489.6079L13556.9266,-3489.6384L13556.9404,-3489.6587L13556.9414,-3489.6597L13556.9549,-3489.6736L13556.9744,-3489.6831L13557.0374,-3489.7028L13557.0566,-3489.7135L13557.0841,-3489.7475L13557.0956,-3489.7684L13557.0993,-3489.7839L13557.0949,-3489.7971L13557.0768,-3489.8173L13557.037,-3489.8537L13556.9864,-3489.8871L13556.969,-3489.8979L13556.9494,-3489.9038L13556.9154,-3489.9116L13556.885,-3489.914L13556.8011,-3489.9104L13556.7345,-3489.9056L13556.7202,-3489.9056L13556.7062,-3489.9056L13556.6787,-3489.9104L13556.6667,-3489.9161L13556.6549,-3489.9217L13556.6172,-3489.9629L13556.5817,-3489.9962L13556.5799,-3490L13556.5781,-3490.0034L13556.5796,-3490.0112L13556.5828,-3490.0165L13556.5868,-3490.0231L13556.5944,-3490.0324L13556.6064,-3490.047L13556.6324,-3490.0702L13556.6509,-3490.0822L13556.6667,-3490.0921L13556.7372,-3490.1364L13556.7573,-3490.149L13556.8546,-3490.2074L13556.953,-3490.2611L13556.9769,-3490.2701L13556.9957,-3490.2742L13557.0356,-3490.276L13557.0862,-3490.2766L13557.0949,-3490.2796L13557.1079,-3490.3028L13557.1188,-3490.3207L13557.1387,-3490.338L13557.1821,-3490.3732L13557.206,-3490.3887L13557.2234,-3490.3947L13557.2364,-3490.3947L13557.2603,-3490.3929L13557.2805,-3490.3935L13557.2936,-3490.3959L13557.3037,-3490.4042L13557.324,-3490.4406L13557.3475,-3490.483L13557.3569,-3490.4973L13557.3692,-3490.5045L13557.3847,-3490.5119L13557.3866,-3490.5128L13557.4105,-3490.5301L13557.4249,-3490.5367L13557.4416,-3490.5397L13557.4857,-3490.5432L13557.5,-3490.5462L13557.5002,-3490.5462L13557.5168,-3490.5582L13557.5259,-3490.5707L13557.5389,-3490.6089L13557.5454,-3490.6345L13557.5489,-3490.6417L13557.5621,-3490.6697L13557.5621,-3490.6792L13557.5556,-3490.687L13557.5418,-3490.6935L13557.5259,-3490.6947L13557.5121,-3490.6935L13557.5,-3490.6909L13557.4738,-3490.6852L13557.4419,-3490.6816L13557.4195,-3490.6756L13557.4087,-3490.6768L13557.4,-3490.6822L13557.3913,-3490.6953L13557.3891,-3490.7067L13557.392,-3490.7198L13557.3993,-3490.7329L13557.413,-3490.7448L13557.4549,-3490.7776L13557.4781,-3490.8021L13557.4861,-3490.8146L13557.489,-3490.8301L13557.4886,-3490.8333L13557.4868,-3490.8474L13557.4803,-3490.8594L13557.4653,-3490.8707L13557.4535,-3490.8796L13557.4441,-3490.8957L13557.4441,-3490.9041L13557.4499,-3490.916L13557.4709,-3490.9441L13557.4969,-3490.9637L13557.5,-3490.9664L13557.5179,-3490.9816L13557.531,-3490.9876L13557.5476,-3490.9912L13557.6026,-3490.99L13557.6135,-3491.015L13557.62,-3491.0484L13557.6287,-3491.1117L13557.6518,-3491.2047L13557.6529,-3491.2118L13557.6554,-3491.228L13557.6562,-3491.2608L13557.6539,-3491.2704L13557.6511,-3491.2822L13557.6402,-3491.2996L13557.6163,-3491.3186L13557.5903,-3491.3383L13557.5802,-3491.3556L13557.5761,-3491.3653L13557.5671,-3491.3866L13557.5613,-3491.4021L13557.5491,-3491.4165L13557.5216,-3491.4403L13557.5,-3491.4543L13557.4875,-3491.4624L13557.4513,-3491.4791L13557.4325,-3491.4845L13557.4079,-3491.4874L13557.3913,-3491.4916L13557.3819,-3491.4994L13557.3739,-3491.5137L13557.358,-3491.5572L13557.3427,-3491.6121L13557.3354,-3491.6288L13557.3188,-3491.6667L13557.3116,-3491.6831L13557.3377,-3491.7064L13557.3637,-3491.738L13557.3753,-3491.7576L13557.3826,-3491.7803L13557.3833,-3491.8084L13557.3884,-3491.8202L13557.3981,-3491.834L13557.4036,-3491.8387L13557.4169,-3491.8501L13557.4394,-3491.862L13557.5,-3491.9061L13557.5715,-3491.9581L13557.5838,-3491.964L13557.6359,-3491.973L13557.6598,-3491.9813L13557.6721,-3491.9897L13557.6873,-3491.9966L13557.7149,-3492.0079L13557.7359,-3492.0246L13557.7518,-3492.0407L13557.7616,-3492.0467L13557.8003,-3492.0705L13557.8729,-3492.1097L13557.9444,-3492.1522L13557.9541,-3492.1581L13557.9795,-3492.17L13558.0881,-3492.2261L13558.1258,-3492.2452L13558.1214,-3492.2505L13558.1106,-3492.2714L13558.1033,-3492.2881L13558.099,-3492.3119L13558.1012,-3492.337L13558.1084,-3492.3579L13558.1099,-3492.3728L13558.1048,-3492.3829L13558.0881,-3492.4013L13558.0512,-3492.4389L13558.0497,-3492.4544L13558.0548,-3492.4705L13558.0664,-3492.486L13558.0749,-3492.5L13558.0794,-3492.5075L13558.0816,-3492.5182L13558.0881,-3492.5516L13558.1004,-3492.5731L13558.1186,-3492.5892L13558.1388,-3492.6172L13558.1381,-3492.6321L13558.1345,-3492.647L13558.1367,-3492.6724L13558.1374,-3492.6856L13558.1468,-3492.7023L13558.1569,-3492.7166L13558.1584,-3492.7321L13558.1562,-3492.7464L13558.1446,-3492.7571L13558.1171,-3492.775L13558.1026,-3492.7953L13558.1041,-3492.8126L13558.1164,-3492.8382L13558.1193,-3492.8544L13558.1186,-3492.8754L13558.1178,-3492.9003L13558.1167,-3492.9087L13558.1164,-3492.9116L13558.1149,-3492.9249L13558.1142,-3492.9313L13558.1062,-3492.945L13558.0867,-3492.9677L13558.0714,-3492.9814L13558.0649,-3492.9927L13558.0599,-3493.0154L13558.0587,-3493.0373L13558.0584,-3493.0434L13558.0642,-3493.0714L13558.0694,-3493.0926L13558.0846,-3493.1457L13558.0868,-3493.1665L13558.0897,-3493.1904L13558.0984,-3493.2298L13558.1042,-3493.2489L13558.1107,-3493.2727L13558.1162,-3493.2977L13558.1237,-3493.3323L13558.1239,-3493.3333L13558.1259,-3493.3472L13558.1303,-3493.3723L13558.1339,-3493.4063L13558.1433,-3493.4445L13558.1469,-3493.4654L13558.1546,-3493.4912L13558.164,-3493.5276L13558.172,-3493.5437L13558.1742,-3493.5556L13558.172,-3493.5807L13558.164,-3493.598L13558.1365,-3493.6666L13558.1307,-3493.6791L13558.1191,-3493.6964L13558.1053,-3493.7036L13558.0727,-3493.7096L13558.0358,-3493.7125L13558.0206,-3493.7153L13557.9975,-3493.7196L13557.9778,-3493.7233L13557.9496,-3493.7328L13557.9097,-3493.7495L13557.8575,-3493.765L13557.7873,-3493.7817L13557.7657,-3493.7922L13557.7373,-3493.8062L13557.7141,-3493.8229L13557.6967,-3493.8414L13557.6895,-3493.8533L13557.6612,-3493.8712L13557.646,-3493.8766L13557.609,-3493.8759L13557.575,-3493.8742L13557.5424,-3493.8694L13557.5134,-3493.867L13557.5,-3493.869L13557.4741,-3493.873L13557.4437,-3493.8825L13557.4067,-3493.8926L13557.3865,-3493.8926L13557.3452,-3493.8849L13557.3162,-3493.8837L13557.2843,-3493.8825L13557.2655,-3493.8861L13557.2444,-3493.8921L13557.2242,-3493.9016L13557.1916,-3493.9082L13557.18,-3493.9064L13557.1626,-3493.8956L13557.1517,-3493.8789L13557.1408,-3493.8629L13557.1242,-3493.8485L13557.0981,-3493.8342L13557.0749,-3493.8199L13557.0384,-3493.8027L13557.0191,-3493.7937L13556.9894,-3493.7752L13556.9706,-3493.7579L13556.9539,-3493.7412L13556.9336,-3493.7137L13556.9155,-3493.694L13556.9003,-3493.6803L13556.8836,-3493.6737L13556.8655,-3493.6726L13556.8344,-3493.6749L13556.8017,-3493.6789L13556.7567,-3493.6807L13556.7408,-3493.6789L13556.7263,-3493.6723L13556.7162,-3493.6604L13556.7147,-3493.6502L13556.7176,-3493.6234L13556.7299,-3493.5977L13556.7379,-3493.5708L13556.7299,-3493.5494L13556.7104,-3493.5297L13556.6894,-3493.5136L13556.6667,-3493.5005L13556.6364,-3493.4831L13556.6133,-3493.4694L13556.5952,-3493.4503L13556.5741,-3493.4312L13556.5481,-3493.4098L13556.5278,-3493.3919L13556.5249,-3493.3674L13556.5155,-3493.346L13556.5042,-3493.3333L13556.4916,-3493.3191L13556.4684,-3493.3024L13556.4542,-3493.3073L13556.4387,-3493.3126L13556.4383,-3493.3127L13556.4097,-3493.3209L13556.393,-3493.3209L13556.359,-3493.3263L13556.3216,-3493.3319L13556.3125,-3493.3333L13556.3039,-3493.3346L13556.28,-3493.3418L13556.2735,-3493.3507L13556.2706,-3493.3716L13556.2764,-3493.3967L13556.2851,-3493.4169L13556.301,-3493.4474L13556.3206,-3493.4688L13556.3336,-3493.4885L13556.3756,-3493.5356L13556.3887,-3493.5541L13556.4042,-3493.5725L13556.4513,-3493.6137L13556.4665,-3493.6333L13556.4803,-3493.6536L13556.4919,-3493.6703L13556.5259,-3493.7007L13556.544,-3493.7168L13556.5556,-3493.7407L13556.5578,-3493.7538L13556.5534,-3493.7651L13556.5396,-3493.7842L13556.5389,-3493.7902L13556.5483,-3493.8152L13556.552,-3493.8349L13556.5662,-3493.884L13556.572,-3493.9072L13556.577,-3493.9287L13556.5995,-3494.0014L13556.6017,-3494.0128L13556.5915,-3494.0199L13556.5582,-3494.0223L13556.5336,-3494.0319L13556.5002,-3494.048L13556.488,-3494.0651L13556.4857,-3494.0682L13556.4828,-3494.0814L13556.483,-3494.0865L13556.4836,-3494.0999L13556.4814,-3494.1118L13556.4741,-3494.1303L13556.464,-3494.1446L13556.4618,-3494.1613L13556.4629,-3494.1667L13556.4662,-3494.1828L13556.4734,-3494.1983L13556.4828,-3494.2233L13556.4807,-3494.2329L13556.4713,-3494.2364L13556.456,-3494.2341L13556.4184,-3494.2287L13556.3727,-3494.2221L13556.3466,-3494.2209L13556.3132,-3494.2194L13556.3083,-3494.2192L13556.2829,-3494.2025L13556.2699,-3494.1834L13556.2485,-3494.1667L13556.2394,-3494.1595L13556.2351,-3494.1464L13556.2336,-3494.1112L13556.238,-3494.0832L13556.2387,-3494.0539L13556.2404,-3494.0423L13556.2416,-3494.0342L13556.2409,-3494.011L13556.2387,-3493.9864L13556.2373,-3493.9375L13556.2373,-3493.9113L13556.2351,-3493.8886L13556.23,-3493.8666L13556.2162,-3493.8326L13556.2017,-3493.7997L13556.1844,-3493.7765L13556.159,-3493.7616L13556.1365,-3493.7526L13556.0989,-3493.7419L13556.0629,-3493.7306L13556.0474,-3493.7258L13556.0141,-3493.7115L13555.9916,-3493.6989L13555.9733,-3493.6786L13555.9261,-3493.6171L13555.8819,-3493.5527L13555.8674,-3493.5312L13555.8617,-3493.502L13555.866,-3493.4865L13555.8812,-3493.4686L13555.9051,-3493.4519L13555.9363,-3493.4298L13555.9479,-3493.4137L13555.9551,-3493.3929L13555.9515,-3493.3726L13555.9435,-3493.3589L13555.9348,-3493.3333L13555.9341,-3493.3314L13555.9131,-3493.3052L13555.8885,-3493.2849L13555.8711,-3493.2765L13555.8371,-3493.2771L13555.8333,-3493.2781L13555.8153,-3493.2825L13555.8117,-3493.2873L13555.8146,-3493.3147L13555.8118,-3493.3333L13555.8117,-3493.3344L13555.8052,-3493.3541L13555.7943,-3493.3666L13555.7762,-3493.3851L13555.7595,-3493.4107L13555.7486,-3493.4316L13555.7327,-3493.4686L13555.7313,-3493.4835L13555.7342,-3493.5079L13555.7399,-3493.5322L13555.7512,-3493.5482L13555.7566,-3493.556L13555.7755,-3493.5805L13555.795,-3493.593L13555.8124,-3493.6067L13555.8327,-3493.6276L13555.8333,-3493.629L13555.8472,-3493.658L13555.8551,-3493.6855L13555.8609,-3493.7034L13555.8617,-3493.7219L13555.8595,-3493.7338L13555.8508,-3493.7457L13555.8333,-3493.7553L13555.8312,-3493.7564L13555.8131,-3493.7684L13555.7885,-3493.7821L13555.7771,-3493.7948L13555.7682,-3493.8047L13555.7211,-3493.866L13555.7187,-3493.8692L13555.7621,-3493.9044L13555.786,-3493.9241L13555.807,-3493.9402L13555.8333,-3493.9599L13555.8563,-3493.9771L13555.8751,-3493.9938L13555.8954,-3494.0105L13555.9193,-3494.0356L13555.9389,-3494.0636L13555.9476,-3494.0833L13555.9563,-3494.106L13555.9564,-3494.1667L13555.9564,-3494.1686L13555.9557,-3494.1972L13555.9738,-3494.2223L13555.9897,-3494.2372L13556.0289,-3494.261L13556.0449,-3494.2717L13556.0477,-3494.2736L13556.0716,-3494.2831L13556.1376,-3494.3123L13556.1614,-3494.3278L13556.1839,-3494.341L13556.231,-3494.3648L13556.2383,-3494.3756L13556.2251,-3494.3949L13556.2186,-3494.4169L13556.2186,-3494.4342L13556.2207,-3494.4545L13556.2062,-3494.4933L13556.1881,-3494.5154L13556.1664,-3494.5243L13556.1526,-3494.5297L13556.1454,-3494.5356L13556.1331,-3494.5679L13556.1178,-3494.6209L13556.1178,-3494.6448L13556.1244,-3494.6663L13556.1396,-3494.6824L13556.1925,-3494.7194L13556.2069,-3494.7372L13556.2069,-3494.7444L13556.2026,-3494.7599L13556.1939,-3494.7849L13556.1939,-3494.7987L13556.2026,-3494.8156L13556.2185,-3494.8341L13556.2308,-3494.852L13556.2555,-3494.8818L13556.2642,-3494.9009L13556.2649,-3494.9248L13556.254,-3494.9456L13556.2207,-3494.9952L13556.2192,-3494.9998L13556.2191,-3495L13556.2103,-3495.027L13556.2088,-3495.0634L13556.2124,-3495.0866L13556.2269,-3495.1063L13556.248,-3495.1253L13556.2653,-3495.1409L13556.3103,-3495.1815L13556.3124,-3495.1916L13556.3139,-3495.2113L13556.3074,-3495.2298L13556.2929,-3495.2829L13556.2914,-3495.3133L13556.303,-3495.3562L13556.3131,-3495.3664L13556.325,-3495.3677L13556.3298,-3495.3682L13556.3523,-3495.3706L13556.3957,-3495.3765L13556.4233,-3495.3747L13556.4437,-3495.3651L13556.4785,-3495.3522L13556.4987,-3495.3448L13556.5603,-3495.3376L13556.5835,-3495.3287L13556.6067,-3495.3096L13556.6234,-3495.2893L13556.6407,-3495.2881L13556.6596,-3495.2923L13556.6667,-3495.2962L13556.677,-3495.3018L13556.6842,-3495.3161L13556.7052,-3495.34L13556.7277,-3495.3645L13556.7299,-3495.3883L13556.7349,-3495.4211L13556.748,-3495.4372L13556.7662,-3495.4476L13556.769,-3495.4492L13556.7994,-3495.4635L13556.8458,-3495.4754L13556.8654,-3495.476L13556.89,-3495.4677L13556.9226,-3495.4468L13556.9421,-3495.4408L13556.9595,-3495.4354L13556.9813,-3495.4342L13557.0023,-3495.4378L13557.0233,-3495.4516L13557.0298,-3495.4599L13557.0617,-3495.4832L13557.0878,-3495.4897L13557.1189,-3495.4999L13557.1595,-3495.5088L13557.1877,-3495.5094L13557.2189,-3495.5058L13557.2427,-3495.4955L13557.2767,-3495.4787L13557.3021,-3495.4794L13557.3282,-3495.4889L13557.3506,-3495.4889L13557.3797,-3495.4803L13557.397,-3495.4752L13557.4173,-3495.477L13557.4339,-3495.4847L13557.4535,-3495.5032L13557.4658,-3495.5223L13557.4933,-3495.5378L13557.5,-3495.5381L13557.5259,-3495.5396L13557.5535,-3495.5414L13557.5817,-3495.5491L13557.623,-3495.5664L13557.6441,-3495.5682L13557.6679,-3495.5622L13557.7129,-3495.542L13557.7404,-3495.536L13557.7571,-3495.5366L13557.7612,-3495.5385L13557.7867,-3495.5503L13557.8078,-3495.5634L13557.8578,-3495.5885L13557.8599,-3495.5939L13557.8573,-3495.6201L13557.8501,-3495.6947L13557.8559,-3495.7167L13557.8598,-3495.7271L13557.8624,-3495.734L13557.8877,-3495.7925L13557.8964,-3495.8169L13557.8964,-3495.8333L13557.8964,-3495.8342L13557.8943,-3495.8646L13557.8892,-3495.8915L13557.882,-3495.913L13557.8726,-3495.9338L13557.8566,-3495.9601L13557.8465,-3495.9738L13557.8436,-3495.9893L13557.8411,-3496.0152L13557.836,-3496.0462L13557.8288,-3496.0587L13557.8172,-3496.0683L13557.7889,-3496.0772L13557.7563,-3496.0808L13557.7288,-3496.082L13557.6317,-3496.0862L13557.5296,-3496.0826L13557.5,-3496.0844L13557.4796,-3496.0856L13557.4406,-3496.0858L13557.4,-3496.0861L13557.3832,-3496.0862L13557.3615,-3496.0945L13557.3353,-3496.1135L13557.3194,-3496.1249L13557.2868,-3496.1643L13557.2274,-3496.2299L13557.2122,-3496.2532L13557.197,-3496.2729L13557.1622,-3496.3206L13557.1463,-3496.345L13557.134,-3496.3647L13557.1231,-3496.3916L13557.118,-3496.4186L13557.1137,-3496.4395L13557.1079,-3496.4616L13557.0985,-3496.5415L13557.0927,-3496.5737L13557.0963,-3496.5964L13557.105,-3496.6196L13557.1144,-3496.6435L13557.1238,-3496.6638L13557.1253,-3496.6667L13557.1347,-3496.6852L13557.1347,-3496.6972L13557.1274,-3496.7109L13557.1166,-3496.7187L13557.1079,-3496.733L13557.1101,-3496.7419L13557.1144,-3496.7491L13557.1231,-3496.7664L13557.1267,-3496.7831L13557.126,-3496.8087L13557.1209,-3496.8297L13557.1199,-3496.8375L13557.1182,-3496.8516L13557.1178,-3496.8546L13557.1151,-3496.8757L13557.1159,-3496.884L13557.1086,-3496.9132L13557.0949,-3496.9466L13557.0927,-3496.9788L13557.1043,-3496.9866L13557.1216,-3496.9883L13557.1282,-3496.989L13557.1418,-3496.9843L13557.1543,-3496.98L13557.1782,-3496.98L13557.1905,-3496.9818L13557.2064,-3496.9919L13557.2064,-3496.9973L13557.2043,-3497.0045L13557.1927,-3497.0086L13557.1702,-3497.0182L13557.1601,-3497.0218L13557.1593,-3497.0266L13557.1709,-3497.0331L13557.1992,-3497.0427L13557.2282,-3497.0558L13557.2455,-3497.0683L13557.2557,-3497.0814L13557.2615,-3497.0939L13557.2651,-3497.1089L13557.2731,-3497.1238L13557.2935,-3497.1366L13557.3478,-3497.1568L13557.3754,-3497.1682L13557.4058,-3497.1759L13557.4363,-3497.1795L13557.4746,-3497.1807L13557.4935,-3497.1878L13557.5,-3497.1932L13557.5094,-3497.2009L13557.5254,-3497.22L13557.5369,-3497.2445L13557.542,-3497.2773L13557.5478,-3497.2928L13557.5688,-3497.3131L13557.6079,-3497.3471L13557.6355,-3497.3632L13557.6601,-3497.3751L13557.6999,-3497.3909L13557.7036,-3497.3924L13557.7485,-3497.399L13557.7775,-3497.3966L13557.8282,-3497.3924L13557.8492,-3497.393L13557.8748,-3497.4001L13557.9002,-3497.4084L13557.9973,-3497.4263L13558.0306,-3497.4347L13558.0574,-3497.4579L13558.0907,-3497.4997L13558.091,-3497.5L13558.1096,-3497.5199L13558.1436,-3497.5456L13558.1625,-3497.5587L13558.1755,-3497.5706L13558.1914,-3497.5921L13558.1926,-3497.5942L13558.2023,-3497.613L13558.2277,-3497.6631L13558.2436,-3497.6726L13558.2552,-3497.6756L13558.2856,-3497.6726L13558.2994,-3497.6667L13558.3313,-3497.6416L13558.3333,-3497.6405L13558.3494,-3497.6319L13558.3581,-3497.6273L13558.3834,-3497.6201Z"/>
<path content="大阪府,,,茨木市,,27211" xlink:title="大阪府" d="M13553.0068,-3492.733L13553.0256,-3492.7252L13553.0959,-3492.7252L13553.1364,-3492.7247L13553.1683,-3492.722L13553.2125,-3492.7101L13553.2422,-3492.697L13553.264,-3492.6958L13553.2908,-3492.7012L13553.3176,-3492.7071L13553.3333,-3492.7097L13553.3393,-3492.7107L13553.3582,-3492.7077L13553.3733,-3492.6922L13553.3799,-3492.666L13553.3871,-3492.6564L13553.3978,-3492.651L13553.4096,-3492.6451L13553.4357,-3492.6361L13553.511,-3492.6159L13553.5156,-3492.6152L13553.5335,-3492.6129L13553.5632,-3492.6039L13553.5835,-3492.5962L13553.6241,-3492.5717L13553.6451,-3492.5646L13553.6994,-3492.5525L13553.7566,-3492.5483L13553.7863,-3492.5495L13553.8023,-3492.5471L13553.8146,-3492.54L13553.8189,-3492.5203L13553.8193,-3492.5048L13553.8195,-3492.5L13553.8196,-3492.4929L13553.794,-3492.4861L13553.7636,-3492.4676L13553.7303,-3492.4371L13553.694,-3492.368L13553.6875,-3492.3471L13553.6774,-3492.3029L13553.6766,-3492.2952L13553.6746,-3492.2736L13553.6746,-3492.2734L13553.671,-3492.2527L13553.6666,-3492.2294L13553.65,-3492.1835L13553.6377,-3492.1614L13553.6254,-3492.1441L13553.6087,-3492.1137L13553.6007,-3492.0916L13553.6022,-3492.0696L13553.6065,-3492.0469L13553.629,-3492.0027L13553.6435,-3491.9897L13553.6529,-3491.9783L13553.6696,-3491.9634L13553.6927,-3491.9372L13553.7166,-3491.905L13553.734,-3491.896L13553.7499,-3491.8924L13553.768,-3491.893L13553.7912,-3491.8954L13553.8071,-3491.8936L13553.8091,-3491.893L13553.823,-3491.8882L13553.8433,-3491.8716L13553.8614,-3491.8513L13553.8737,-3491.8292L13553.8831,-3491.8059L13553.8947,-3491.7857L13553.9229,-3491.7391L13553.9511,-3491.698L13553.97,-3491.6771L13553.9824,-3491.6667L13554.0214,-3491.6341L13554.0358,-3491.6156L13554.0583,-3491.5763L13554.0771,-3491.5554L13554.0915,-3491.5405L13554.106,-3491.531L13554.1314,-3491.5226L13554.1603,-3491.5167L13554.1667,-3491.517L13554.182,-3491.5178L13554.2088,-3491.5238L13554.2313,-3491.5339L13554.2761,-3491.562L13554.3174,-3491.5924L13554.3492,-3491.6353L13554.3638,-3491.6532L13554.3749,-3491.6667L13554.3868,-3491.6813L13554.4078,-3491.7147L13554.4114,-3491.7385L13554.4151,-3491.7457L13554.4223,-3491.7469L13554.431,-3491.7451L13554.4484,-3491.7349L13554.4773,-3491.7117L13554.4947,-3491.7045L13554.5021,-3491.7031L13554.5338,-3491.6968L13554.5548,-3491.6938L13554.5664,-3491.689L13554.5924,-3491.6667L13554.5927,-3491.6664L13554.6043,-3491.661L13554.6181,-3491.6586L13554.6745,-3491.661L13554.7286,-3491.6667L13554.7994,-3491.6741L13554.8226,-3491.6741L13554.853,-3491.6771L13554.8624,-3491.686L13554.8703,-3491.6956L13554.8718,-3491.7057L13554.8754,-3491.76L13554.8783,-3491.7689L13554.8834,-3491.7747L13554.8884,-3491.7802L13554.9021,-3491.8149L13554.9159,-3491.8322L13554.926,-3491.8459L13554.9376,-3491.8542L13554.947,-3491.8554L13554.9608,-3491.853L13555,-3491.8458L13555.0672,-3491.8334L13555.0824,-3491.8268L13555.1012,-3491.8107L13555.158,-3491.7439L13555.1906,-3491.6986L13555.2094,-3491.6783L13555.2219,-3491.6667L13555.2641,-3491.6276L13555.2896,-3491.6005L13555.3328,-3491.5548L13555.3408,-3491.5536L13555.3545,-3491.5554L13555.369,-3491.559L13555.403,-3491.5775L13555.4493,-3491.6109L13555.4903,-3491.6312L13555.5062,-3491.6359L13555.5235,-3491.6371L13555.5554,-3491.6359L13555.5735,-3491.6389L13555.5959,-3491.6502L13555.6169,-3491.6667L13555.6661,-3491.7051L13555.6817,-3491.7121L13555.7143,-3491.7266L13555.7555,-3491.7403L13555.7816,-3491.7469L13555.8047,-3491.7487L13555.8333,-3491.7499L13555.8623,-3491.7511L13555.9021,-3491.7576L13555.9889,-3491.7803L13556.0258,-3491.7874L13556.0541,-3491.7904L13556.0826,-3491.7922L13556.1138,-3491.7904L13556.1731,-3491.7827L13556.2035,-3491.7821L13556.2376,-3491.7851L13556.2549,-3491.7833L13556.2737,-3491.7791L13556.2857,-3491.7737L13556.2976,-3491.7684L13556.3334,-3491.7517L13556.3544,-3491.7475L13556.387,-3491.7463L13556.4044,-3491.7445L13556.4225,-3491.7404L13556.4442,-3491.732L13556.5357,-3491.6896L13556.5582,-3491.6819L13556.5784,-3491.6807L13556.6125,-3491.6825L13556.6335,-3491.6813L13556.6552,-3491.6694L13556.6584,-3491.6667L13556.6667,-3491.6596L13556.6827,-3491.6461L13556.7058,-3491.633L13556.7214,-3491.6294L13556.7409,-3491.6288L13556.8256,-3491.6432L13556.9023,-3491.6562L13556.9581,-3491.6622L13556.9968,-3491.6658L13557.0285,-3491.6667L13557.0612,-3491.6676L13557.096,-3491.6729L13557.1148,-3491.6729L13557.1172,-3491.6722L13557.1353,-3491.6667L13557.1433,-3491.6642L13557.1481,-3491.6628L13557.1716,-3491.6499L13557.1784,-3491.6461L13557.2117,-3491.6401L13557.2291,-3491.6383L13557.2451,-3491.6407L13557.2675,-3491.6503L13557.2895,-3491.6667L13557.3116,-3491.6831L13557.3188,-3491.6667L13557.3354,-3491.6288L13557.3427,-3491.6121L13557.358,-3491.5572L13557.3739,-3491.5137L13557.3819,-3491.4994L13557.3913,-3491.4916L13557.4079,-3491.4874L13557.4325,-3491.4845L13557.4513,-3491.4791L13557.4875,-3491.4624L13557.5,-3491.4543L13557.5216,-3491.4403L13557.5491,-3491.4165L13557.5613,-3491.4021L13557.5671,-3491.3866L13557.5761,-3491.3653L13557.5802,-3491.3556L13557.5903,-3491.3383L13557.6163,-3491.3186L13557.6402,-3491.2996L13557.6511,-3491.2822L13557.6539,-3491.2704L13557.6562,-3491.2608L13557.6554,-3491.228L13557.6529,-3491.2118L13557.6518,-3491.2047L13557.6287,-3491.1117L13557.62,-3491.0484L13557.6135,-3491.015L13557.6026,-3490.99L13557.5476,-3490.9912L13557.531,-3490.9876L13557.5179,-3490.9816L13557.5,-3490.9664L13557.4969,-3490.9637L13557.4709,-3490.9441L13557.4499,-3490.916L13557.4441,-3490.9041L13557.4441,-3490.8957L13557.4535,-3490.8796L13557.4653,-3490.8707L13557.4803,-3490.8594L13557.4868,-3490.8474L13557.4886,-3490.8333L13557.489,-3490.8301L13557.4861,-3490.8146L13557.4781,-3490.8021L13557.4549,-3490.7776L13557.413,-3490.7448L13557.3993,-3490.7329L13557.392,-3490.7198L13557.3891,-3490.7067L13557.3913,-3490.6953L13557.4,-3490.6822L13557.4087,-3490.6768L13557.4195,-3490.6756L13557.4419,-3490.6816L13557.4738,-3490.6852L13557.5,-3490.6909L13557.5121,-3490.6935L13557.5259,-3490.6947L13557.5418,-3490.6935L13557.5556,-3490.687L13557.5621,-3490.6792L13557.5621,-3490.6697L13557.5489,-3490.6417L13557.5454,-3490.6345L13557.5389,-3490.6089L13557.5259,-3490.5707L13557.5168,-3490.5582L13557.5002,-3490.5462L13557.5,-3490.5462L13557.4857,-3490.5432L13557.4416,-3490.5397L13557.4249,-3490.5367L13557.4105,-3490.5301L13557.3866,-3490.5128L13557.3847,-3490.5119L13557.3692,-3490.5045L13557.3569,-3490.4973L13557.3475,-3490.483L13557.324,-3490.4406L13557.3037,-3490.4042L13557.2936,-3490.3959L13557.2805,-3490.3935L13557.2603,-3490.3929L13557.2364,-3490.3947L13557.2234,-3490.3947L13557.206,-3490.3887L13557.1821,-3490.3732L13557.1387,-3490.338L13557.1188,-3490.3207L13557.1079,-3490.3028L13557.0949,-3490.2796L13557.0862,-3490.2766L13557.0356,-3490.276L13556.9957,-3490.2742L13556.9769,-3490.2701L13556.953,-3490.2611L13556.8546,-3490.2074L13556.7573,-3490.149L13556.7372,-3490.1364L13556.6667,-3490.0921L13556.6509,-3490.0822L13556.6324,-3490.0702L13556.6064,-3490.047L13556.5944,-3490.0324L13556.5868,-3490.0231L13556.5828,-3490.0165L13556.5796,-3490.0112L13556.5781,-3490.0034L13556.5799,-3490L13556.5817,-3489.9962L13556.6172,-3489.9629L13556.6549,-3489.9217L13556.6667,-3489.9161L13556.6787,-3489.9104L13556.7062,-3489.9056L13556.7202,-3489.9056L13556.7345,-3489.9056L13556.8011,-3489.9104L13556.885,-3489.914L13556.9154,-3489.9116L13556.9494,-3489.9038L13556.969,-3489.8979L13556.9864,-3489.8871L13557.037,-3489.8537L13557.0768,-3489.8173L13557.0949,-3489.7971L13557.0993,-3489.7839L13557.0956,-3489.7684L13557.0841,-3489.7475L13557.0566,-3489.7135L13557.0374,-3489.7028L13556.9744,-3489.6831L13556.9549,-3489.6736L13556.9414,-3489.6597L13556.9404,-3489.6587L13556.9266,-3489.6384L13556.9114,-3489.6079L13556.9086,-3489.5954L13556.9129,-3489.571L13556.9266,-3489.5382L13556.9274,-3489.5227L13556.9172,-3489.4917L13556.9187,-3489.4821L13556.9353,-3489.4547L13556.9527,-3489.4344L13556.9621,-3489.4207L13556.9657,-3489.3992L13556.9614,-3489.3592L13556.9571,-3489.3456L13556.9491,-3489.3204L13556.9462,-3489.2996L13556.9476,-3489.2805L13556.9534,-3489.2578L13556.9534,-3489.2578L13552.7344,-3489.2578L13552.7344,-3492.8607L13552.7546,-3492.841L13552.772,-3492.8189L13552.7938,-3492.804L13552.8141,-3492.7968L13552.8459,-3492.7909L13552.864,-3492.7891L13552.8872,-3492.7849L13552.9256,-3492.7718L13552.9727,-3492.7527L13553.0068,-3492.733Z"/>
</g>
</svg>
