<?xml version="1.0" encoding="UTF-8"?>
<svg  xmlns="http://www.w3.org/2000/svg" xmlns:xlink="http://www.w3.org/1999/xlink" xmlns:go="http://purl.org/svgmap/profile" property="geometry,N03_001,N03_002,N03_003,N03_004,N03_005,N03_007" viewBox="13526.3671875 -3559.5703125 4.39453125 4.39453125" go:dataArea="13526.3671875 -3559.5703125 4.39453125 4.39453125" >
<metadata>
 <rdf:RDF xmlns:rdf="http://www.w3.org/1999/02/22-rdf-syntax-ns#" xmlns:crs="http://opengis.org/xmldtds/transformations.dtd" xmlns:svg="http://www.w3.org/svg" >
  <rdf:Description>
   <crs:CoordinateReferenceSystem rdf:resource="http://purl.org/crs/84" svg:transform="matrix(100.0,0.0,0.0,-100.0,0.0,0.0)" />
  </rdf:Description>
 </rdf:RDF>
</metadata>
<globalCoordinateSystem srsName="http://purl.org/crs/84" transform="matrix(100.0,0.0,0.0,-100.0,0.0,0.0)" />
<defs>
 <g id="p0" >
  <circle cx="0.0" cy="0.0" r="3" stroke="green" stroke-width="2.0" vector-effect="non-scaling-stroke" />
 </g>
</defs>
<g fill="#0000ff" fill-rule="evenodd" opacity="0.5" >
<path content="京都府,,,宮津市,,26205" xlink:title="京都府" d="M13526.3672,-3559.5703L13526.3672,-3556.7231L13526.3794,-3556.7206L13526.3953,-3556.7189L13526.4128,-3556.7201L13526.4209,-3556.7198L13526.426,-3556.7192L13526.4284,-3556.7178L13526.4296,-3556.716L13526.43,-3556.715L13526.4309,-3556.7138L13526.4328,-3556.7131L13526.4356,-3556.7132L13526.4384,-3556.7135L13526.4428,-3556.7133L13526.4463,-3556.7117L13526.4481,-3556.7107L13526.4499,-3556.7113L13526.4523,-3556.7131L13526.4549,-3556.7157L13526.4581,-3556.7179L13526.4603,-3556.7186L13526.4635,-3556.7181L13526.4662,-3556.7154L13526.4686,-3556.7123L13526.4701,-3556.7105L13526.472,-3556.7107L13526.4747,-3556.7113L13526.4769,-3556.7133L13526.4785,-3556.7139L13526.4802,-3556.7127L13526.4802,-3556.7098L13526.4789,-3556.7068L13526.4808,-3556.705L13526.4847,-3556.7019L13526.4881,-3556.6992L13526.4952,-3556.6955L13526.5042,-3556.6922L13526.5284,-3556.6867L13526.54,-3556.6822L13526.5505,-3556.6778L13526.5583,-3556.6737L13526.5673,-3556.6689L13526.5699,-3556.6667L13526.5731,-3556.6638L13526.5781,-3556.6592L13526.5821,-3556.6573L13526.5881,-3556.6567L13526.5958,-3556.6564L13526.6021,-3556.6571L13526.6078,-3556.6585L13526.6199,-3556.6625L13526.6245,-3556.665L13526.6258,-3556.6667L13526.627,-3556.6682L13526.6299,-3556.6713L13526.6334,-3556.6735L13526.6401,-3556.6747L13526.6492,-3556.6753L13526.6631,-3556.6787L13526.6667,-3556.6795L13526.6694,-3556.6801L13526.6778,-3556.682L13526.6871,-3556.6853L13526.7028,-3556.6911L13526.7166,-3556.6976L13526.7233,-3556.7007L13526.7406,-3556.7096L13526.7513,-3556.7154L13526.7536,-3556.7172L13526.7531,-3556.7179L13526.7514,-3556.7189L13526.7485,-3556.7208L13526.7466,-3556.7221L13526.7456,-3556.7232L13526.7459,-3556.7246L13526.7478,-3556.7256L13526.7513,-3556.7259L13526.7572,-3556.7256L13526.7649,-3556.7238L13526.7669,-3556.7252L13526.7681,-3556.7288L13526.7696,-3556.7338L13526.7705,-3556.7362L13526.7723,-3556.7384L13526.7745,-3556.7401L13526.7781,-3556.7408L13526.7819,-3556.7407L13526.7861,-3556.7394L13526.7897,-3556.7383L13526.791,-3556.7383L13526.7937,-3556.7399L13526.7973,-3556.7422L13526.7993,-3556.746L13526.8008,-3556.7486L13526.8028,-3556.749L13526.8075,-3556.7482L13526.8119,-3556.7467L13526.8148,-3556.7463L13526.8163,-3556.7453L13526.8166,-3556.7431L13526.8159,-3556.7397L13526.814,-3556.7349L13526.8128,-3556.7315L13526.8135,-3556.7303L13526.8152,-3556.729L13526.8189,-3556.7279L13526.8248,-3556.7265L13526.829,-3556.7268L13526.8323,-3556.7277L13526.8338,-3556.7274L13526.8364,-3556.7258L13526.8384,-3556.7232L13526.8388,-3556.7189L13526.8391,-3556.7099L13526.8365,-3556.7054L13526.8364,-3556.7042L13526.8382,-3556.7048L13526.8411,-3556.7066L13526.8433,-3556.7066L13526.8446,-3556.7061L13526.8459,-3556.7041L13526.8456,-3556.701L13526.846,-3556.699L13526.8489,-3556.6978L13526.8612,-3556.6949L13526.8735,-3556.6921L13526.8777,-3556.692L13526.8799,-3556.694L13526.8826,-3556.6973L13526.8863,-3556.7008L13526.8886,-3556.7026L13526.8902,-3556.7033L13526.8919,-3556.7032L13526.8937,-3556.702L13526.8949,-3556.6995L13526.8936,-3556.6931L13526.8923,-3556.6865L13526.8901,-3556.6833L13526.8858,-3556.6766L13526.8839,-3556.6734L13526.8836,-3556.6723L13526.8851,-3556.6718L13526.8885,-3556.6727L13526.8935,-3556.6754L13526.8959,-3556.6752L13526.8977,-3556.6736L13526.8989,-3556.6716L13526.8994,-3556.6685L13526.899,-3556.6667L13526.8987,-3556.6655L13526.889,-3556.6468L13526.885,-3556.6333L13526.8866,-3556.6273L13526.8914,-3556.6226L13526.8951,-3556.6214L13526.8973,-3556.6202L13526.9002,-3556.6163L13526.9006,-3556.6109L13526.8988,-3556.6009L13526.8998,-3556.5967L13526.9016,-3556.5926L13526.9037,-3556.5904L13526.9064,-3556.5865L13526.9129,-3556.5812L13526.9187,-3556.5787L13526.9323,-3556.5699L13526.9407,-3556.5639L13526.9464,-3556.5596L13526.9476,-3556.5589L13526.9488,-3556.5588L13526.9508,-3556.559L13526.9542,-3556.5605L13526.9588,-3556.563L13526.9643,-3556.5655L13526.9716,-3556.5675L13526.9798,-3556.5677L13526.9842,-3556.5671L13526.9888,-3556.5656L13526.9934,-3556.5628L13526.996,-3556.5604L13526.9972,-3556.5579L13526.997,-3556.5546L13526.9959,-3556.5508L13526.9946,-3556.5494L13526.9894,-3556.545L13526.9822,-3556.5381L13526.9776,-3556.5311L13526.9741,-3556.5237L13526.9736,-3556.5194L13526.9739,-3556.5137L13526.974,-3556.5115L13526.9737,-3556.5081L13526.9724,-3556.5042L13526.9711,-3556.5021L13526.9694,-3556.5002L13526.9674,-3556.4979L13526.9586,-3556.4921L13526.9562,-3556.4898L13526.9553,-3556.4876L13526.9546,-3556.4852L13526.9548,-3556.4806L13526.9564,-3556.4738L13526.9578,-3556.4696L13526.958,-3556.4663L13526.9571,-3556.4622L13526.9573,-3556.4608L13526.9584,-3556.4594L13526.9602,-3556.4583L13526.9634,-3556.4582L13526.9655,-3556.4582L13526.9664,-3556.4581L13526.9668,-3556.4578L13526.9669,-3556.4574L13526.9667,-3556.4559L13526.9666,-3556.4557L13526.9665,-3556.4556L13526.9617,-3556.4518L13526.9541,-3556.4461L13526.9513,-3556.4421L13526.9509,-3556.4369L13526.9516,-3556.4337L13526.9545,-3556.4298L13526.961,-3556.423L13526.9687,-3556.4125L13526.9737,-3556.3998L13526.9762,-3556.3956L13526.9803,-3556.392L13526.9855,-3556.3904L13526.9922,-3556.3904L13526.9993,-3556.3897L13527.0092,-3556.385L13527.0183,-3556.3792L13527.0241,-3556.3774L13527.0274,-3556.3769L13527.0307,-3556.3767L13527.0333,-3556.3771L13527.0358,-3556.3779L13527.0422,-3556.3806L13527.0431,-3556.3805L13527.0443,-3556.3798L13527.0462,-3556.3768L13527.0462,-3556.3764L13527.0461,-3556.3761L13527.0456,-3556.3755L13527.0448,-3556.3737L13527.0445,-3556.3704L13527.0458,-3556.3681L13527.0476,-3556.3664L13527.0577,-3556.3587L13527.0641,-3556.3561L13527.0684,-3556.3559L13527.0726,-3556.3562L13527.0759,-3556.3575L13527.0892,-3556.3657L13527.0918,-3556.3663L13527.0946,-3556.3645L13527.0968,-3556.3623L13527.0975,-3556.3594L13527.0975,-3556.3568L13527.0964,-3556.3528L13527.0954,-3556.3482L13527.0955,-3556.3461L13527.0956,-3556.3435L13527.0968,-3556.3405L13527.0989,-3556.3392L13527.1016,-3556.3389L13527.1037,-3556.3394L13527.1052,-3556.3394L13527.1065,-3556.3388L13527.1075,-3556.3361L13527.1081,-3556.3302L13527.109,-3556.327L13527.1107,-3556.3248L13527.1155,-3556.3202L13527.1282,-3556.31L13527.1332,-3556.3052L13527.135,-3556.3012L13527.1358,-3556.2956L13527.1361,-3556.2899L13527.1376,-3556.2835L13527.141,-3556.2777L13527.1475,-3556.2711L13527.1537,-3556.2568L13527.1546,-3556.2494L13527.157,-3556.2436L13527.1601,-3556.2394L13527.1646,-3556.2363L13527.1779,-3556.2335L13527.1849,-3556.2302L13527.1877,-3556.2278L13527.1895,-3556.2262L13527.1911,-3556.224L13527.1934,-3556.221L13527.2039,-3556.2206L13527.2233,-3556.2219L13527.2402,-3556.2268L13527.2459,-3556.2275L13527.2543,-3556.2272L13527.2701,-3556.2266L13527.2829,-3556.2243L13527.2898,-3556.2232L13527.3015,-3556.2182L13527.3045,-3556.2164L13527.3078,-3556.2141L13527.318,-3556.2016L13527.3322,-3556.1828L13527.3447,-3556.1697L13527.3595,-3556.16L13527.3681,-3556.1545L13527.3739,-3556.1525L13527.3808,-3556.1517L13527.3924,-3556.15L13527.3981,-3556.15L13527.4034,-3556.15L13527.4086,-3556.1496L13527.4126,-3556.1474L13527.4165,-3556.1438L13527.4179,-3556.1418L13527.4185,-3556.1393L13527.4192,-3556.1352L13527.4206,-3556.1278L13527.4247,-3556.1049L13527.4269,-3556.1014L13527.4285,-3556.0992L13527.4301,-3556.0974L13527.4307,-3556.0961L13527.4315,-3556.0935L13527.4329,-3556.0895L13527.4386,-3556.0827L13527.4448,-3556.0787L13527.4489,-3556.0765L13527.4513,-3556.0747L13527.4538,-3556.0722L13527.456,-3556.0697L13527.4573,-3556.0682L13527.4593,-3556.0647L13527.4609,-3556.0619L13527.464,-3556.0567L13527.4651,-3556.0527L13527.4667,-3556.0474L13527.468,-3556.0425L13527.471,-3556.0381L13527.4767,-3556.0325L13527.4825,-3556.0261L13527.4837,-3556.0223L13527.4843,-3556.0203L13527.4844,-3556.018L13527.483,-3556.0162L13527.481,-3556.015L13527.4756,-3556.011L13527.4676,-3556.0043L13527.4605,-3555.996L13527.4523,-3555.9888L13527.4458,-3555.9839L13527.4406,-3555.9807L13527.4388,-3555.9791L13527.4385,-3555.9776L13527.4383,-3555.976L13527.4334,-3555.9719L13527.4236,-3555.9653L13527.4115,-3555.9612L13527.4045,-3555.9594L13527.3978,-3555.9579L13527.3933,-3555.9576L13527.3869,-3555.9572L13527.3746,-3555.9562L13527.363,-3555.9569L13527.3566,-3555.9575L13527.3471,-3555.959L13527.3404,-3555.9609L13527.3311,-3555.9627L13527.3199,-3555.9627L13527.3079,-3555.9611L13527.2966,-3555.9554L13527.2903,-3555.9516L13527.2872,-3555.9496L13527.284,-3555.9484L13527.279,-3555.9466L13527.2711,-3555.9455L13527.2633,-3555.9434L13527.237,-3555.9286L13527.2226,-3555.908L13527.2127,-3555.8905L13527.2091,-3555.8852L13527.2046,-3555.8818L13527.1983,-3555.8785L13527.1965,-3555.8781L13527.1926,-3555.8773L13527.1881,-3555.8781L13527.1862,-3555.8797L13527.1851,-3555.8818L13527.1839,-3555.8831L13527.1817,-3555.884L13527.1723,-3555.8843L13527.1656,-3555.8836L13527.1595,-3555.8807L13527.1478,-3555.8763L13527.1439,-3555.8751L13527.1375,-3555.8748L13527.1315,-3555.8744L13527.123,-3555.875L13527.1067,-3555.8797L13527.0796,-3555.8896L13527.0741,-3555.8917L13527.0639,-3555.8935L13527.0562,-3555.8942L13527.0478,-3555.8937L13527.0342,-3555.8887L13527.0168,-3555.8793L13527.01,-3555.8776L13527.0032,-3555.8768L13526.9994,-3555.8769L13526.9931,-3555.8768L13526.9835,-3555.8758L13526.9755,-3555.8728L13526.9701,-3555.8688L13526.9611,-3555.8619L13526.9544,-3555.8573L13526.9453,-3555.8509L13526.9362,-3555.8415L13526.93,-3555.8333L13526.9237,-3555.825L13526.916,-3555.8138L13526.9109,-3555.805L13526.9045,-3555.7973L13526.8979,-3555.7908L13526.8932,-3555.7873L13526.8874,-3555.7821L13526.8827,-3555.7779L13526.8753,-3555.7729L13526.8703,-3555.772L13526.867,-3555.7722L13526.8609,-3555.7728L13526.8572,-3555.7738L13526.8526,-3555.7746L13526.8498,-3555.7746L13526.8474,-3555.7739L13526.8427,-3555.7719L13526.8397,-3555.7708L13526.8357,-3555.7708L13526.8216,-3555.7721L13526.8177,-3555.7728L13526.8135,-3555.773L13526.8094,-3555.7711L13526.8031,-3555.7681L13526.798,-3555.7679L13526.7918,-3555.769L13526.7903,-3555.7712L13526.7898,-3555.7735L13526.7896,-3555.7764L13526.7883,-3555.7782L13526.785,-3555.7789L13526.7715,-3555.7789L13526.7669,-3555.7786L13526.763,-3555.7775L13526.7602,-3555.7764L13526.7568,-3555.7749L13526.7438,-3555.7752L13526.7307,-3555.7751L13526.7276,-3555.7751L13526.7241,-3555.7739L13526.7172,-3555.7699L13526.7054,-3555.7623L13526.6929,-3555.7554L13526.6819,-3555.7485L13526.6791,-3555.7445L13526.6783,-3555.7416L13526.6756,-3555.7401L13526.6714,-3555.7396L13526.6678,-3555.7395L13526.6667,-3555.7394L13526.662,-3555.7389L13526.6554,-3555.7377L13526.6484,-3555.7357L13526.6427,-3555.7338L13526.6372,-3555.7321L13526.6289,-3555.7292L13526.6251,-3555.7269L13526.6197,-3555.7209L13526.6136,-3555.7126L13526.6064,-3555.7038L13526.6012,-3555.699L13526.5962,-3555.6954L13526.5921,-3555.6933L13526.5877,-3555.6916L13526.5834,-3555.6902L13526.5741,-3555.6877L13526.5607,-3555.6862L13526.5491,-3555.6854L13526.5435,-3555.6842L13526.5409,-3555.6833L13526.5377,-3555.6813L13526.5352,-3555.6803L13526.533,-3555.6796L13526.5264,-3555.6787L13526.5203,-3555.6792L13526.5129,-3555.6789L13526.506,-3555.6769L13526.5003,-3555.6744L13526.494,-3555.671L13526.4907,-3555.6687L13526.4881,-3555.6663L13526.4712,-3555.646L13526.4556,-3555.6237L13526.4367,-3555.5952L13526.4337,-3555.5826L13526.432,-3555.5747L13526.4301,-3555.5674L13526.4286,-3555.5613L13526.4277,-3555.5513L13526.4165,-3555.5365L13526.405,-3555.5243L13526.3925,-3555.513L13526.377,-3555.4947L13526.3672,-3555.4813L13526.3672,-3555.1758L13526.3672,-3555.1758L13526.3672,-3559.5703Z"/>
<path content="京都府,,,宮津市,,26205" xlink:title="京都府" d="M13527.2001,-3556.3049L13527.1983,-3556.3039L13527.193,-3556.3041L13527.1881,-3556.3031L13527.1828,-3556.3033L13527.1783,-3556.3036L13527.1744,-3556.3045L13527.1727,-3556.3061L13527.1706,-3556.31L13527.1713,-3556.3111L13527.1743,-3556.3148L13527.174,-3556.3158L13527.1711,-3556.3203L13527.1693,-3556.3234L13527.1693,-3556.3253L13527.1703,-3556.3276L13527.1714,-3556.3307L13527.1723,-3556.3335L13527.1734,-3556.3362L13527.1747,-3556.3408L13527.1757,-3556.3429L13527.1776,-3556.3452L13527.1796,-3556.3469L13527.1814,-3556.3488L13527.1846,-3556.3517L13527.1807,-3556.3541L13527.1797,-3556.3561L13527.1795,-3556.3594L13527.1817,-3556.36L13527.1851,-3556.3608L13527.1859,-3556.3617L13527.1893,-3556.3623L13527.1912,-3556.3618L13527.1963,-3556.3603L13527.2003,-3556.3583L13527.202,-3556.3576L13527.2056,-3556.3557L13527.2094,-3556.3537L13527.2114,-3556.3525L13527.2119,-3556.3513L13527.213,-3556.3486L13527.2131,-3556.3441L13527.2116,-3556.3394L13527.2103,-3556.3344L13527.2104,-3556.3281L13527.2109,-3556.3251L13527.2081,-3556.3247L13527.2059,-3556.324L13527.2027,-3556.3238L13527.2027,-3556.3176L13527.2037,-3556.3154L13527.2035,-3556.3131L13527.2009,-3556.3068L13527.2001,-3556.3049Z"/>
<path content="京都府,,,宮津市,,26205" xlink:title="京都府" d="M13527.5081,-3556.142L13527.5057,-3556.1401L13527.5,-3556.1409L13527.4977,-3556.1412L13527.4926,-3556.1405L13527.4881,-3556.1374L13527.4867,-3556.1348L13527.4831,-3556.133L13527.48,-3556.1334L13527.477,-3556.1333L13527.4745,-3556.1352L13527.4747,-3556.1377L13527.4773,-3556.1425L13527.4843,-3556.1507L13527.4884,-3556.1566L13527.4932,-3556.158L13527.498,-3556.1589L13527.5,-3556.1591L13527.5002,-3556.1592L13527.5042,-3556.1575L13527.5073,-3556.1551L13527.5105,-3556.1518L13527.5115,-3556.148L13527.5101,-3556.1438L13527.5081,-3556.142Z"/>
<path content="京都府,,,宮津市,,26205" xlink:title="京都府" d="M13527.348,-3556.2342L13527.3432,-3556.2333L13527.3376,-3556.2354L13527.3356,-3556.241L13527.3366,-3556.2476L13527.3394,-3556.2536L13527.345,-3556.2593L13527.3516,-3556.2615L13527.3572,-3556.2589L13527.3586,-3556.2527L13527.3577,-3556.2462L13527.3523,-3556.2415L13527.348,-3556.2342Z"/>
<path content="京都府,,,宮津市,,26205" xlink:title="京都府" d="M13527.2586,-3555.8837L13527.2529,-3555.8827L13527.2507,-3555.8846L13527.2493,-3555.8859L13527.2456,-3555.8862L13527.2429,-3555.8883L13527.2401,-3555.891L13527.2396,-3555.8939L13527.2409,-3555.8949L13527.2469,-3555.8952L13527.2496,-3555.8952L13527.2539,-3555.8939L13527.2552,-3555.8924L13527.259,-3555.8903L13527.2604,-3555.8886L13527.2609,-3555.8874L13527.2586,-3555.8837Z"/>
<path content="京都府,,,宮津市,,26205" xlink:title="京都府" d="M13526.8517,-3556.7415L13526.8545,-3556.7406L13526.8599,-3556.7413L13526.8601,-3556.7371L13526.8584,-3556.735L13526.8566,-3556.7326L13526.8537,-3556.7305L13526.8514,-3556.7303L13526.8489,-3556.7316L13526.8471,-3556.7324L13526.8464,-3556.7342L13526.8476,-3556.7359L13526.8488,-3556.7399L13526.8517,-3556.7415Z"/>
<path content="京都府,,,宮津市,,26205" xlink:title="京都府" d="M13527.4842,-3556.0395L13527.4825,-3556.0392L13527.4794,-3556.0394L13527.4793,-3556.0397L13527.4742,-3556.0407L13527.4705,-3556.0426L13527.4681,-3556.0442L13527.4684,-3556.0458L13527.4686,-3556.0475L13527.4705,-3556.0483L13527.4735,-3556.0464L13527.4793,-3556.0445L13527.4832,-3556.0439L13527.4857,-3556.0428L13527.488,-3556.0428L13527.4881,-3556.0416L13527.4872,-3556.0406L13527.4857,-3556.0401L13527.4842,-3556.0395Z"/>
<path content="京都府,,,宮津市,,26205" xlink:title="京都府" d="M13527.38,-3556.1756L13527.3769,-3556.1756L13527.3756,-3556.1764L13527.3754,-3556.1785L13527.3772,-3556.1786L13527.3774,-3556.1826L13527.3795,-3556.1833L13527.3819,-3556.1847L13527.3847,-3556.184L13527.3864,-3556.1829L13527.3868,-3556.1812L13527.3867,-3556.1799L13527.3847,-3556.1781L13527.3822,-3556.1768L13527.38,-3556.1756Z"/>
<path content="京都府,,,宮津市,,26205" xlink:title="京都府" d="M13527.362,-3556.1874L13527.3596,-3556.1869L13527.3581,-3556.1892L13527.3582,-3556.1902L13527.3621,-3556.1922L13527.3677,-3556.1956L13527.3698,-3556.1957L13527.3703,-3556.1951L13527.3722,-3556.1947L13527.3715,-3556.1932L13527.3717,-3556.1914L13527.3703,-3556.1906L13527.3674,-3556.1896L13527.3644,-3556.188L13527.362,-3556.1874Z"/>
<path content="京都府,,,宮津市,,26205" xlink:title="京都府" d="M13527.4652,-3555.9853L13527.4623,-3555.9853L13527.4608,-3555.9879L13527.4595,-3555.9904L13527.4618,-3555.9927L13527.4634,-3555.9938L13527.4656,-3555.9939L13527.4661,-3555.9926L13527.4694,-3555.9903L13527.4699,-3555.9889L13527.4671,-3555.9864L13527.4652,-3555.9853Z"/>
<path content="京都府,,,宮津市,,26205" xlink:title="京都府" d="M13526.4894,-3556.7361L13526.4871,-3556.736L13526.4869,-3556.7398L13526.4875,-3556.7429L13526.4883,-3556.7452L13526.4885,-3556.7473L13526.4894,-3556.7488L13526.4907,-3556.7478L13526.4907,-3556.7464L13526.4915,-3556.7453L13526.4916,-3556.7419L13526.4913,-3556.7376L13526.4894,-3556.7361Z"/>
<path content="京都府,,,宮津市,,26205" xlink:title="京都府" d="M13527.4803,-3556.0646L13527.4785,-3556.0625L13527.476,-3556.0627L13527.4754,-3556.0638L13527.4767,-3556.0664L13527.4775,-3556.0681L13527.4777,-3556.0708L13527.479,-3556.0721L13527.4809,-3556.0722L13527.4831,-3556.0696L13527.482,-3556.0661L13527.4803,-3556.0646Z"/>
<path content="京都府,,,宮津市,,26205" xlink:title="京都府" d="M13526.4623,-3556.7314L13526.4596,-3556.7314L13526.4576,-3556.7329L13526.4581,-3556.7357L13526.4593,-3556.7373L13526.4604,-3556.7382L13526.4617,-3556.7383L13526.4629,-3556.7378L13526.4649,-3556.7372L13526.4652,-3556.7346L13526.4653,-3556.7329L13526.4645,-3556.7321L13526.4623,-3556.7314Z"/>
<path content="京都府,,,宮津市,,26205" xlink:title="京都府" d="M13526.5281,-3556.7064L13526.5268,-3556.7063L13526.5268,-3556.7069L13526.5241,-3556.7069L13526.5241,-3556.7101L13526.5247,-3556.7102L13526.5255,-3556.7114L13526.5264,-3556.7133L13526.5272,-3556.7139L13526.5279,-3556.7138L13526.5282,-3556.713L13526.5293,-3556.7119L13526.5295,-3556.7108L13526.5309,-3556.7096L13526.5323,-3556.7096L13526.5323,-3556.7091L13526.5343,-3556.7091L13526.5343,-3556.7086L13526.5316,-3556.7086L13526.5316,-3556.708L13526.5295,-3556.708L13526.5295,-3556.7075L13526.5288,-3556.7074L13526.5281,-3556.7069L13526.5281,-3556.7064Z"/>
<path content="京都府,,,宮津市,,26205" xlink:title="京都府" d="M13527.4427,-3556.1383L13527.4405,-3556.138L13527.4397,-3556.1403L13527.4392,-3556.1434L13527.4402,-3556.1438L13527.4415,-3556.1436L13527.4432,-3556.1431L13527.4446,-3556.1421L13527.4454,-3556.1413L13527.4453,-3556.1401L13527.4446,-3556.1392L13527.4427,-3556.1383Z"/>
<path content="京都府,,,宮津市,,26205" xlink:title="京都府" d="M13526.4316,-3556.7264L13526.4289,-3556.7261L13526.4291,-3556.7272L13526.4298,-3556.7294L13526.4297,-3556.7326L13526.4327,-3556.7326L13526.4336,-3556.7316L13526.4344,-3556.7306L13526.4337,-3556.7294L13526.4327,-3556.7285L13526.4316,-3556.7264Z"/>
<path content="京都府,,,宮津市,,26205" xlink:title="京都府" d="M13526.7557,-3556.7438L13526.7546,-3556.7434L13526.7529,-3556.7479L13526.7517,-3556.7516L13526.7526,-3556.7515L13526.755,-3556.7501L13526.7567,-3556.7479L13526.757,-3556.7453L13526.7557,-3556.7438Z"/>
</g>
</svg>
