<?xml version="1.0" encoding="UTF-8"?>
<svg  xmlns="http://www.w3.org/2000/svg" xmlns:xlink="http://www.w3.org/1999/xlink" xmlns:go="http://purl.org/svgmap/profile" property="geometry,N03_001,N03_002,N03_003,N03_004,N03_005,N03_007" viewBox="13579.1015625 -3353.02734375 4.39453125 4.39453125" go:dataArea="13579.1015625 -3353.02734375 4.39453125 4.39453125" >
<metadata>
 <rdf:RDF xmlns:rdf="http://www.w3.org/1999/02/22-rdf-syntax-ns#" xmlns:crs="http://opengis.org/xmldtds/transformations.dtd" xmlns:svg="http://www.w3.org/svg" >
  <rdf:Description>
   <crs:CoordinateReferenceSystem rdf:resource="http://purl.org/crs/84" svg:transform="matrix(100.0,0.0,0.0,-100.0,0.0,0.0)" />
  </rdf:Description>
 </rdf:RDF>
</metadata>
<globalCoordinateSystem srsName="http://purl.org/crs/84" transform="matrix(100.0,0.0,0.0,-100.0,0.0,0.0)" />
<defs>
 <g id="p0" >
  <circle cx="0.0" cy="0.0" r="3" stroke="green" stroke-width="2.0" vector-effect="non-scaling-stroke" />
 </g>
</defs>
<g fill="#0000ff" fill-rule="evenodd" opacity="0.5" >
<path content="和歌山県,,東牟婁郡,古座川町,,30424" xlink:title="和歌山県" d="M13579.1016,-3353.0273L13582.5901,-3353.0273L13582.602,-3353.0018L13582.6038,-3352.9795L13582.6156,-3352.9316L13582.6865,-3352.8991L13582.6889,-3352.8571L13582.6534,-3352.7746L13582.6245,-3352.7523L13582.6061,-3352.7224L13582.5795,-3352.6977L13582.5476,-3352.6393L13582.5411,-3352.5965L13582.5,-3352.5085L13582.496,-3352.5L13582.4903,-3352.4877L13582.4376,-3352.4435L13582.4187,-3352.4068L13582.4037,-3352.3777L13582.4024,-3352.3751L13582.3909,-3352.3529L13582.3806,-3352.3453L13582.3704,-3352.3378L13582.3537,-3352.3257L13582.3212,-3352.3063L13582.304,-3352.296L13582.2899,-3352.2876L13582.2597,-3352.2751L13582.2581,-3352.2744L13582.2336,-3352.2642L13582.1566,-3352.3134L13581.955,-3352.4472L13581.8944,-3352.5L13581.8829,-3352.51L13581.7688,-3352.6543L13581.6667,-3352.7882L13581.6253,-3352.8425L13581.5952,-3352.8801L13581.5531,-3352.9325L13581.477,-3353.0273L13579.9955,-3353.0273L13579.7974,-3352.8611L13579.66,-3352.7458L13579.6521,-3352.7392L13579.6396,-3352.7307L13579.5942,-3352.7169L13579.5647,-3352.7169L13579.5157,-3352.7349L13579.4553,-3352.7554L13579.4459,-3352.7542L13579.4366,-3352.7494L13579.4315,-3352.7181L13579.3955,-3352.6964L13579.3089,-3352.6624L13579.2556,-3352.6534L13579.1858,-3352.6486L13579.1667,-3352.6459L13579.1426,-3352.6426L13579.1016,-3352.6312Z"/>
<path content="和歌山県,,東牟婁郡,串本町,,30428" xlink:title="和歌山県" d="M13583.4961,-3353.0273L13583.4961,-3351.4189L13583.476,-3351.4238L13583.4589,-3351.3698L13583.4961,-3351.361L13583.4961,-3351.2699L13583.397,-3351.2934L13583.3724,-3351.3219L13583.3601,-3351.3675L13583.3597,-3351.3678L13583.359,-3351.3686L13583.3566,-3351.3676L13583.3546,-3351.3671L13583.3539,-3351.3669L13583.3504,-3351.3662L13583.3475,-3351.3657L13583.3464,-3351.3653L13583.3479,-3351.3627L13583.3483,-3351.3613L13583.3476,-3351.36L13583.3467,-3351.3588L13583.346,-3351.356L13583.3439,-3351.3541L13583.3415,-3351.3536L13583.3391,-3351.3535L13583.3377,-3351.3537L13583.3365,-3351.3545L13583.335,-3351.3529L13583.3368,-3351.3512L13583.3374,-3351.3504L13583.3375,-3351.3481L13583.3372,-3351.3461L13583.3363,-3351.3454L13583.3382,-3351.3434L13583.3391,-3351.3411L13583.3391,-3351.3389L13583.3385,-3351.3374L13583.3387,-3351.3342L13583.338,-3351.3319L13583.3367,-3351.3308L13583.3369,-3351.3294L13583.3386,-3351.3283L13583.339,-3351.3269L13583.3387,-3351.3253L13583.3375,-3351.3242L13583.3375,-3351.3229L13583.3388,-3351.3207L13583.3392,-3351.3174L13583.3388,-3351.3153L13583.3374,-3351.3137L13583.3361,-3351.3116L13583.3378,-3351.31L13583.338,-3351.3089L13583.3375,-3351.3074L13583.337,-3351.3057L13583.3377,-3351.3039L13583.3387,-3351.3013L13583.3392,-3351.2976L13583.3395,-3351.2956L13583.3393,-3351.2945L13583.339,-3351.2935L13583.3382,-3351.2925L13583.3371,-3351.2918L13583.337,-3351.291L13583.3378,-3351.289L13583.3373,-3351.2881L13583.3363,-3351.2852L13583.3368,-3351.2841L13583.3378,-3351.2834L13583.3383,-3351.2825L13583.3387,-3351.2815L13583.3387,-3351.2805L13583.3383,-3351.2794L13583.3371,-3351.2777L13583.3346,-3351.2771L13583.3339,-3351.2765L13583.3339,-3351.2754L13583.3333,-3351.2747L13583.3312,-3351.2721L13583.3302,-3351.2715L13583.3286,-3351.2716L13583.3274,-3351.2719L13583.3261,-3351.2706L13583.3259,-3351.2685L13583.3247,-3351.2668L13583.323,-3351.2655L13583.3218,-3351.265L13583.3194,-3351.2646L13583.3187,-3351.2637L13583.3166,-3351.2627L13583.3153,-3351.2624L13583.314,-3351.2624L13583.3124,-3351.2626L13583.3097,-3351.2639L13583.3079,-3351.2642L13583.3055,-3351.2642L13583.3045,-3351.265L13583.3035,-3351.2671L13583.3027,-3351.2679L13583.3021,-3351.2699L13583.3025,-3351.272L13583.3032,-3351.273L13583.3044,-3351.2737L13583.3047,-3351.2752L13583.3042,-3351.276L13583.3045,-3351.277L13583.3055,-3351.2777L13583.3078,-3351.2785L13583.309,-3351.2785L13583.3102,-3351.2786L13583.3114,-3351.2785L13583.3124,-3351.278L13583.3132,-3351.279L13583.3131,-3351.28L13583.314,-3351.2818L13583.3151,-3351.2822L13583.3163,-3351.2822L13583.3172,-3351.2836L13583.317,-3351.2847L13583.3171,-3351.2868L13583.3168,-3351.2879L13583.3159,-3351.2899L13583.3165,-3351.2908L13583.3173,-3351.2915L13583.3177,-3351.2925L13583.3188,-3351.2942L13583.319,-3351.2957L13583.3173,-3351.2972L13583.3164,-3351.2991L13583.3163,-3351.3002L13583.3164,-3351.3012L13583.3176,-3351.303L13583.3176,-3351.3041L13583.3169,-3351.3048L13583.3171,-3351.3059L13583.3178,-3351.3079L13583.3185,-3351.3088L13583.3193,-3351.3095L13583.3201,-3351.311L13583.3191,-3351.3119L13583.3183,-3351.3132L13583.3184,-3351.3149L13583.3197,-3351.3164L13583.321,-3351.3183L13583.3202,-3351.3191L13583.3195,-3351.3211L13583.3196,-3351.3221L13583.3203,-3351.3231L13583.3207,-3351.3252L13583.3196,-3351.3283L13583.3189,-3351.3292L13583.3185,-3351.3305L13583.3191,-3351.3366L13583.3197,-3351.3414L13583.3192,-3351.3439L13583.3188,-3351.3452L13583.3185,-3351.3448L13583.3185,-3351.3439L13583.318,-3351.3414L13583.3172,-3351.3382L13583.316,-3351.3367L13583.3146,-3351.3362L13583.3143,-3351.3351L13583.3145,-3351.3326L13583.3146,-3351.3289L13583.313,-3351.3243L13583.3118,-3351.3226L13583.3093,-3351.3201L13583.3077,-3351.3194L13583.3052,-3351.3197L13583.3044,-3351.3211L13583.3042,-3351.3228L13583.3032,-3351.3236L13583.3019,-3351.3239L13583.3,-3351.324L13583.2993,-3351.3243L13583.2978,-3351.3256L13583.2972,-3351.3289L13583.2966,-3351.3304L13583.2955,-3351.3306L13583.2945,-3351.3311L13583.2936,-3351.3331L13583.2936,-3351.3341L13583.294,-3351.3351L13583.2947,-3351.336L13583.2947,-3351.3369L13583.293,-3351.3384L13583.2923,-3351.3402L13583.2926,-3351.3413L13583.2926,-3351.3423L13583.2909,-3351.3424L13583.2885,-3351.342L13583.2875,-3351.3425L13583.2861,-3351.3442L13583.2849,-3351.3449L13583.2836,-3351.3446L13583.2812,-3351.3449L13583.2802,-3351.3448L13583.2795,-3351.3436L13583.2795,-3351.3423L13583.2803,-3351.3406L13583.2803,-3351.339L13583.2793,-3351.3369L13583.2786,-3351.3349L13583.2777,-3351.3341L13583.277,-3351.3336L13583.279,-3351.3311L13583.2795,-3351.3302L13583.2798,-3351.3295L13583.2798,-3351.3282L13583.2784,-3351.3265L13583.2769,-3351.3251L13583.2753,-3351.3247L13583.2731,-3351.3245L13583.2727,-3351.3245L13583.2718,-3351.3235L13583.2685,-3351.3222L13583.2665,-3351.3217L13583.2659,-3351.3197L13583.265,-3351.3177L13583.2645,-3351.3143L13583.2636,-3351.3132L13583.2617,-3351.3121L13583.2615,-3351.3083L13583.2609,-3351.3064L13583.2597,-3351.3042L13583.2594,-3351.3018L13583.258,-3351.3006L13583.2567,-3351.2992L13583.2546,-3351.2966L13583.2536,-3351.2961L13583.2512,-3351.2958L13583.2483,-3351.2967L13583.2478,-3351.2979L13583.2474,-3351.2998L13583.2463,-3351.3L13583.2436,-3351.3001L13583.2419,-3351.3015L13583.2402,-3351.3055L13583.2392,-3351.3059L13583.2382,-3351.3064L13583.2375,-3351.3073L13583.2375,-3351.3084L13583.2373,-3351.3094L13583.2385,-3351.3129L13583.2388,-3351.3134L13583.2397,-3351.3142L13583.24,-3351.315L13583.2397,-3351.316L13583.2397,-3351.317L13583.2393,-3351.318L13583.24,-3351.32L13583.2398,-3351.321L13583.2405,-3351.323L13583.2414,-3351.324L13583.2412,-3351.3248L13583.2412,-3351.327L13583.2414,-3351.3279L13583.2414,-3351.3289L13583.2411,-3351.3297L13583.2376,-3351.3279L13583.2376,-3351.3262L13583.2373,-3351.3244L13583.2365,-3351.3233L13583.2342,-3351.3214L13583.231,-3351.3211L13583.23,-3351.3216L13583.2285,-3351.3227L13583.2274,-3351.3234L13583.2262,-3351.3254L13583.2263,-3351.3279L13583.2253,-3351.329L13583.2233,-3351.3293L13583.222,-3351.3307L13583.2217,-3351.3324L13583.2223,-3351.3347L13583.2228,-3351.3362L13583.2219,-3351.3374L13583.2209,-3351.3382L13583.2207,-3351.3393L13583.2207,-3351.342L13583.2218,-3351.3439L13583.2224,-3351.3447L13583.2234,-3351.3465L13583.2227,-3351.3476L13583.2218,-3351.3482L13583.2215,-3351.3492L13583.2222,-3351.3512L13583.2235,-3351.3529L13583.2232,-3351.3539L13583.2225,-3351.3546L13583.2222,-3351.3556L13583.2227,-3351.3565L13583.2243,-3351.3581L13583.2247,-3351.3591L13583.2266,-3351.3605L13583.2271,-3351.3614L13583.2273,-3351.3625L13583.2281,-3351.3632L13583.2285,-3351.3642L13583.2285,-3351.3652L13583.228,-3351.3662L13583.2278,-3351.3673L13583.2285,-3351.3681L13583.2293,-3351.3687L13583.2307,-3351.3688L13583.2327,-3351.3696L13583.2327,-3351.3711L13583.2324,-3351.372L13583.233,-3351.3724L13583.2367,-3351.3739L13583.2367,-3351.3746L13583.2335,-3351.3751L13583.2326,-3351.3757L13583.2315,-3351.3767L13583.229,-3351.3784L13583.2277,-3351.3789L13583.2267,-3351.3785L13583.2244,-3351.378L13583.2214,-3351.3791L13583.219,-3351.3795L13583.2163,-3351.3797L13583.2151,-3351.38L13583.2143,-3351.3808L13583.2132,-3351.3814L13583.212,-3351.3817L13583.2112,-3351.381L13583.2102,-3351.3793L13583.2093,-3351.3785L13583.207,-3351.3784L13583.2047,-3351.3792L13583.203,-3351.3806L13583.2015,-3351.3822L13583.2004,-3351.3825L13583.1996,-3351.3818L13583.1985,-3351.3812L13583.1963,-3351.3808L13583.1955,-3351.3772L13583.1947,-3351.3756L13583.1928,-3351.3745L13583.1919,-3351.3745L13583.1902,-3351.373L13583.1894,-3351.3717L13583.1882,-3351.3705L13583.1865,-3351.3698L13583.1851,-3351.37L13583.1842,-3351.37L13583.1826,-3351.3692L13583.1808,-3351.369L13583.1795,-3351.3691L13583.1789,-3351.3695L13583.1764,-3351.3726L13583.176,-3351.3727L13583.1758,-3351.372L13583.1757,-3351.3707L13583.1755,-3351.3698L13583.1755,-3351.3688L13583.1752,-3351.3678L13583.1762,-3351.3647L13583.1762,-3351.3636L13583.1758,-3351.3618L13583.1752,-3351.3609L13583.1737,-3351.3592L13583.1726,-3351.3587L13583.1724,-3351.3574L13583.1736,-3351.3545L13583.1738,-3351.3534L13583.1738,-3351.3523L13583.1731,-3351.3516L13583.1721,-3351.3511L13583.1716,-3351.3502L13583.1723,-3351.3482L13583.1723,-3351.3471L13583.1718,-3351.3463L13583.1708,-3351.3457L13583.1696,-3351.344L13583.1687,-3351.3431L13583.1675,-3351.3428L13583.1665,-3351.3424L13583.1661,-3351.3415L13583.1659,-3351.3393L13583.1653,-3351.3385L13583.1644,-3351.3378L13583.1634,-3351.3374L13583.1619,-3351.3371L13583.1607,-3351.3372L13583.1595,-3351.337L13583.1584,-3351.3354L13583.1572,-3351.3349L13583.1552,-3351.3337L13583.1539,-3351.3337L13583.1515,-3351.3341L13583.1503,-3351.3344L13583.1492,-3351.3351L13583.1482,-3351.3359L13583.1479,-3351.3369L13583.1475,-3351.3382L13583.1477,-3351.3405L13583.1489,-3351.3419L13583.1495,-3351.343L13583.1497,-3351.3444L13583.1507,-3351.3456L13583.1525,-3351.3462L13583.1546,-3351.3468L13583.1552,-3351.3488L13583.1556,-3351.3504L13583.1565,-3351.3513L13583.1576,-3351.3524L13583.1576,-3351.3533L13583.1574,-3351.3543L13583.1576,-3351.3556L13583.1588,-3351.3567L13583.1596,-3351.3576L13583.1596,-3351.359L13583.1604,-3351.3605L13583.1617,-3351.3617L13583.1606,-3351.3631L13583.1607,-3351.364L13583.1613,-3351.3658L13583.1624,-3351.3674L13583.1628,-3351.3692L13583.1624,-3351.3703L13583.1612,-3351.3715L13583.1604,-3351.3716L13583.1601,-3351.3707L13583.1601,-3351.3689L13583.16,-3351.3674L13583.1587,-3351.366L13583.1577,-3351.3645L13583.1575,-3351.3609L13583.1562,-3351.3579L13583.1552,-3351.3571L13583.1537,-3351.3566L13583.1524,-3351.3564L13583.15,-3351.3568L13583.1489,-3351.355L13583.1485,-3351.354L13583.1478,-3351.3531L13583.1468,-3351.3527L13583.1454,-3351.3528L13583.1443,-3351.3531L13583.1432,-3351.3531L13583.1413,-3351.3517L13583.1403,-3351.3512L13583.139,-3351.3511L13583.1382,-3351.3504L13583.1383,-3351.349L13583.1395,-3351.3476L13583.1405,-3351.3467L13583.1408,-3351.3453L13583.1412,-3351.3422L13583.1423,-3351.3409L13583.1433,-3351.3387L13583.1435,-3351.3361L13583.1442,-3351.3351L13583.145,-3351.3336L13583.1451,-3351.3326L13583.1448,-3351.3306L13583.1443,-3351.3298L13583.1429,-3351.3292L13583.1421,-3351.3285L13583.1408,-3351.3283L13583.138,-3351.3283L13583.1365,-3351.3267L13583.1341,-3351.3261L13583.1334,-3351.3255L13583.1339,-3351.3242L13583.1346,-3351.3236L13583.1353,-3351.3228L13583.1358,-3351.3207L13583.1356,-3351.3197L13583.1361,-3351.3187L13583.1369,-3351.3179L13583.1375,-3351.3159L13583.1377,-3351.3149L13583.1376,-3351.3139L13583.1368,-3351.3119L13583.1361,-3351.311L13583.1365,-3351.3096L13583.1379,-3351.308L13583.1381,-3351.3063L13583.1377,-3351.3046L13583.1377,-3351.3029L13583.1374,-3351.3L13583.1364,-3351.299L13583.1348,-3351.2973L13583.1325,-3351.2961L13583.1311,-3351.2944L13583.1297,-3351.2932L13583.1285,-3351.2926L13583.1273,-3351.2926L13583.127,-3351.2914L13583.1271,-3351.2882L13583.1288,-3351.287L13583.1292,-3351.2857L13583.1287,-3351.2839L13583.1286,-3351.2818L13583.1301,-3351.2802L13583.1318,-3351.2781L13583.1319,-3351.2746L13583.133,-3351.2729L13583.1344,-3351.2719L13583.1344,-3351.2694L13583.1355,-3351.2664L13583.1348,-3351.265L13583.1332,-3351.2645L13583.1328,-3351.2631L13583.1313,-3351.2604L13583.1301,-3351.2594L13583.1272,-3351.2596L13583.1254,-3351.258L13583.1234,-3351.2567L13583.1222,-3351.2565L13583.1213,-3351.2567L13583.1204,-3351.2574L13583.1196,-3351.2579L13583.1188,-3351.2578L13583.1178,-3351.2576L13583.1172,-3351.2569L13583.1168,-3351.2557L13583.1168,-3351.2547L13583.1159,-3351.2527L13583.1142,-3351.2512L13583.1132,-3351.2506L13583.1107,-3351.2509L13583.1096,-3351.2497L13583.1092,-3351.2489L13583.1084,-3351.248L13583.1074,-3351.2476L13583.1062,-3351.2475L13583.1051,-3351.2479L13583.1027,-3351.2485L13583.1,-3351.2487L13583.099,-3351.2493L13583.0981,-3351.25L13583.0978,-3351.2509L13583.0951,-3351.2551L13583.0954,-3351.2569L13583.0957,-3351.2576L13583.0958,-3351.2586L13583.0951,-3351.2599L13583.0943,-3351.2606L13583.0938,-3351.2615L13583.0934,-3351.2633L13583.0932,-3351.2649L13583.0919,-3351.2653L13583.0905,-3351.2668L13583.089,-3351.2714L13583.0879,-3351.2713L13583.0867,-3351.2701L13583.0854,-3351.2686L13583.0845,-3351.2679L13583.0849,-3351.2661L13583.0847,-3351.2643L13583.0841,-3351.2632L13583.0858,-3351.2621L13583.0862,-3351.2604L13583.0862,-3351.2584L13583.0858,-3351.2575L13583.0857,-3351.2567L13583.0866,-3351.2564L13583.0886,-3351.2549L13583.0889,-3351.2536L13583.0895,-3351.2501L13583.0903,-3351.2493L13583.0906,-3351.2473L13583.0905,-3351.2463L13583.0913,-3351.2457L13583.0925,-3351.2453L13583.0932,-3351.2444L13583.0935,-3351.2434L13583.0926,-3351.2415L13583.0927,-3351.2405L13583.0938,-3351.2403L13583.0953,-3351.2389L13583.0959,-3351.238L13583.0966,-3351.236L13583.0965,-3351.235L13583.0959,-3351.2339L13583.0951,-3351.2334L13583.0947,-3351.232L13583.094,-3351.2297L13583.0929,-3351.2289L13583.0911,-3351.2287L13583.0894,-3351.2285L13583.0887,-3351.2275L13583.0871,-3351.2273L13583.085,-3351.2277L13583.0832,-3351.2282L13583.0822,-3351.2278L13583.0807,-3351.228L13583.0785,-3351.2298L13583.0771,-3351.2326L13583.076,-3351.2332L13583.0748,-3351.2334L13583.073,-3351.235L13583.0725,-3351.2359L13583.0729,-3351.2371L13583.072,-3351.2376L13583.0708,-3351.2379L13583.0688,-3351.239L13583.0676,-3351.2408L13583.067,-3351.2427L13583.0665,-3351.2435L13583.0655,-3351.2441L13583.0647,-3351.2447L13583.064,-3351.2467L13583.0645,-3351.2476L13583.0638,-3351.2487L13583.0628,-3351.2492L13583.0621,-3351.2501L13583.0616,-3351.2509L13583.0614,-3351.2522L13583.0625,-3351.255L13583.0612,-3351.2567L13583.0609,-3351.2577L13583.0609,-3351.2587L13583.0612,-3351.2596L13583.0622,-3351.2615L13583.0624,-3351.2627L13583.0612,-3351.2631L13583.0605,-3351.264L13583.0603,-3351.2649L13583.06,-3351.2671L13583.0602,-3351.2683L13583.0597,-3351.2702L13583.0578,-3351.2714L13583.0561,-3351.2729L13583.0541,-3351.2728L13583.0523,-3351.2719L13583.0515,-3351.2708L13583.0499,-3351.2695L13583.0481,-3351.2688L13583.0462,-3351.2688L13583.045,-3351.2698L13583.0431,-3351.271L13583.0424,-3351.2721L13583.0416,-3351.2738L13583.0405,-3351.2772L13583.0396,-3351.2779L13583.0388,-3351.2786L13583.038,-3351.2805L13583.0383,-3351.2831L13583.0384,-3351.2841L13583.0379,-3351.2848L13583.0377,-3351.287L13583.0381,-3351.288L13583.0393,-3351.2897L13583.0396,-3351.2906L13583.0386,-3351.2924L13583.0388,-3351.2945L13583.0399,-3351.2973L13583.0399,-3351.2983L13583.0382,-3351.2985L13583.0368,-3351.2979L13583.0348,-3351.2964L13583.0334,-3351.2967L13583.0318,-3351.2976L13583.0294,-3351.2987L13583.028,-3351.2979L13583.028,-3351.2957L13583.0274,-3351.2918L13583.0266,-3351.2896L13583.0252,-3351.2884L13583.0246,-3351.2876L13583.0246,-3351.2867L13583.0249,-3351.2858L13583.0262,-3351.284L13583.0263,-3351.2825L13583.0258,-3351.2806L13583.0247,-3351.2786L13583.0243,-3351.277L13583.0232,-3351.2755L13583.0235,-3351.2722L13583.0229,-3351.2708L13583.0229,-3351.2689L13583.0238,-3351.2672L13583.0241,-3351.2653L13583.0239,-3351.2633L13583.0224,-3351.2619L13583.0207,-3351.2617L13583.0181,-3351.2617L13583.0168,-3351.2624L13583.016,-3351.2656L13583.015,-3351.268L13583.0134,-3351.268L13583.0097,-3351.2674L13583.0072,-3351.2677L13583.0062,-3351.2682L13583.0054,-3351.2708L13583.0055,-3351.2725L13583.006,-3351.2735L13583.0052,-3351.2755L13583.0058,-3351.277L13583.0054,-3351.2799L13583.0055,-3351.2819L13583.0061,-3351.2831L13583.0072,-3351.2843L13583.0082,-3351.2849L13583.0103,-3351.2853L13583.0111,-3351.287L13583.0112,-3351.2885L13583.0112,-3351.2907L13583.0118,-3351.2926L13583.0126,-3351.2932L13583.0138,-3351.2937L13583.0133,-3351.2948L13583.0123,-3351.2952L13583.0112,-3351.296L13583.0108,-3351.2966L13583.01,-3351.2953L13583.008,-3351.2931L13583.0057,-3351.2919L13583.0043,-3351.2924L13583.0024,-3351.2932L13583.0017,-3351.2936L13583.0009,-3351.293L13582.9975,-3351.2915L13582.9952,-3351.2909L13582.9941,-3351.2911L13582.9928,-3351.2916L13582.9924,-3351.2934L13582.993,-3351.2949L13582.9939,-3351.2956L13582.995,-3351.2974L13582.996,-3351.2979L13582.9965,-3351.2992L13582.995,-3351.3007L13582.9945,-3351.3027L13582.9948,-3351.3037L13582.9958,-3351.3044L13582.997,-3351.3062L13582.9959,-3351.3091L13582.9958,-3351.3111L13582.9967,-3351.3131L13582.9984,-3351.3146L13582.9987,-3351.3156L13582.9977,-3351.3175L13582.9975,-3351.3186L13582.9977,-3351.3196L13582.998,-3351.3204L13582.9999,-3351.3221L13583.002,-3351.3223L13583.0023,-3351.3242L13583.0023,-3351.3256L13583.0027,-3351.3266L13583.0034,-3351.3278L13583.0032,-3351.3287L13583.0025,-3351.331L13583.0027,-3351.3323L13583.0044,-3351.3338L13583.0047,-3351.3349L13583.0046,-3351.3357L13583.0037,-3351.3381L13583.0037,-3351.3399L13583.0018,-3351.3392L13582.9995,-3351.3393L13582.9994,-3351.3355L13582.9979,-3351.332L13582.9954,-3351.3302L13582.9937,-3351.3298L13582.9926,-3351.3288L13582.9927,-3351.3278L13582.9943,-3351.3259L13582.9937,-3351.3244L13582.9927,-3351.3219L13582.9925,-3351.32L13582.9907,-3351.3181L13582.9903,-3351.3163L13582.9898,-3351.3148L13582.9886,-3351.3144L13582.9875,-3351.3142L13582.9866,-3351.3137L13582.9863,-3351.3128L13582.9866,-3351.3118L13582.9866,-3351.3108L13582.9856,-3351.3104L13582.9842,-3351.3102L13582.9832,-3351.3099L13582.9823,-3351.3092L13582.9811,-3351.3088L13582.9799,-3351.3088L13582.9787,-3351.3091L13582.9777,-3351.3098L13582.9768,-3351.3108L13582.9758,-3351.3129L13582.9756,-3351.3148L13582.9757,-3351.3171L13582.9763,-3351.318L13582.9767,-3351.319L13582.9774,-3351.3198L13582.978,-3351.3216L13582.978,-3351.3228L13582.9774,-3351.3238L13582.977,-3351.3249L13582.9768,-3351.3263L13582.9759,-3351.3273L13582.975,-3351.3278L13582.9727,-3351.3296L13582.9724,-3351.3306L13582.9725,-3351.3328L13582.9719,-3351.3337L13582.9707,-3351.334L13582.9698,-3351.3346L13582.9691,-3351.3366L13582.9676,-3351.3383L13582.9662,-3351.34L13582.9657,-3351.341L13582.9655,-3351.342L13582.9637,-3351.3421L13582.9611,-3351.3421L13582.9593,-3351.3417L13582.9573,-3351.3404L13582.9557,-3351.34L13582.9516,-3351.34L13582.9497,-3351.3405L13582.9477,-3351.342L13582.9471,-3351.3428L13582.9467,-3351.3438L13582.9455,-3351.3444L13582.9443,-3351.3441L13582.9431,-3351.3444L13582.9421,-3351.345L13582.9412,-3351.347L13582.9412,-3351.3481L13582.9409,-3351.3491L13582.9397,-3351.3495L13582.9382,-3351.3496L13582.9371,-3351.3493L13582.9359,-3351.3485L13582.9345,-3351.3459L13582.933,-3351.3436L13582.9311,-3351.3429L13582.9294,-3351.3431L13582.9283,-3351.3423L13582.927,-3351.3408L13582.9248,-3351.3403L13582.9241,-3351.3402L13582.9229,-3351.3401L13582.9223,-3351.3392L13582.9207,-3351.3369L13582.9198,-3351.3364L13582.919,-3351.3362L13582.9185,-3351.3366L13582.9162,-3351.3374L13582.9141,-3351.3365L13582.9127,-3351.3363L13582.9117,-3351.3368L13582.9108,-3351.3375L13582.9105,-3351.3388L13582.912,-3351.3419L13582.9149,-3351.3445L13582.9146,-3351.3459L13582.9139,-3351.3466L13582.9136,-3351.3476L13582.9143,-3351.3495L13582.9149,-3351.3505L13582.9159,-3351.3511L13582.9165,-3351.3521L13582.9156,-3351.3528L13582.9154,-3351.3538L13582.9158,-3351.3549L13582.9165,-3351.3558L13582.9173,-3351.3564L13582.918,-3351.3572L13582.9183,-3351.3581L13582.919,-3351.3588L13582.919,-3351.3602L13582.9183,-3351.3611L13582.9178,-3351.3631L13582.918,-3351.3643L13582.9183,-3351.3653L13582.9183,-3351.3664L13582.9181,-3351.3674L13582.9173,-3351.3683L13582.9163,-3351.3688L13582.9157,-3351.3697L13582.9155,-3351.3717L13582.9147,-3351.3726L13582.9126,-3351.3736L13582.912,-3351.3746L13582.9118,-3351.3757L13582.912,-3351.3767L13582.9115,-3351.3778L13582.9084,-3351.3796L13582.9076,-3351.3815L13582.9077,-3351.3826L13582.9075,-3351.3836L13582.9065,-3351.3841L13582.9056,-3351.3849L13582.9051,-3351.3857L13582.9051,-3351.3872L13582.9064,-3351.3898L13582.9061,-3351.3907L13582.9051,-3351.3909L13582.9036,-3351.3904L13582.9025,-3351.3897L13582.9017,-3351.3889L13582.8984,-3351.3873L13582.8974,-3351.3864L13582.8971,-3351.3855L13582.8956,-3351.3838L13582.8937,-3351.3825L13582.8932,-3351.3811L13582.8938,-3351.3803L13582.8938,-3351.3793L13582.8933,-3351.3784L13582.8934,-3351.3771L13582.8951,-3351.3759L13582.8961,-3351.3745L13582.8957,-3351.3731L13582.8942,-3351.3694L13582.8946,-3351.3681L13582.8958,-3351.3665L13582.8969,-3351.3641L13582.897,-3351.3628L13582.8967,-3351.361L13582.8961,-3351.3595L13582.8957,-3351.3582L13582.8951,-3351.3571L13582.894,-3351.3539L13582.8935,-3351.3529L13582.8946,-3351.3511L13582.8948,-3351.3501L13582.8944,-3351.3491L13582.8943,-3351.3479L13582.8947,-3351.3453L13582.8945,-3351.3437L13582.8936,-3351.342L13582.8923,-3351.3406L13582.8897,-3351.3396L13582.8887,-3351.3385L13582.8864,-3351.3382L13582.8851,-3351.3383L13582.8828,-3351.3386L13582.8798,-3351.3397L13582.8773,-3351.3402L13582.8767,-3351.341L13582.8765,-3351.3419L13582.8741,-3351.3426L13582.8731,-3351.3432L13582.8722,-3351.3439L13582.8709,-3351.3456L13582.8705,-3351.3466L13582.8693,-3351.347L13582.8683,-3351.347L13582.8662,-3351.3482L13582.8655,-3351.349L13582.8635,-3351.3495L13582.8626,-3351.3503L13582.8619,-3351.3512L13582.8614,-3351.3522L13582.8607,-3351.3527L13582.8592,-3351.3526L13582.8584,-3351.3519L13582.8573,-3351.3514L13582.855,-3351.3518L13582.8539,-3351.3524L13582.8532,-3351.3531L13582.8521,-3351.355L13582.851,-3351.3556L13582.8502,-3351.3562L13582.8495,-3351.3581L13582.8495,-3351.3593L13582.8498,-3351.3603L13582.8498,-3351.3614L13582.8487,-3351.3618L13582.8462,-3351.3617L13582.8442,-3351.3628L13582.8434,-3351.3635L13582.8425,-3351.3655L13582.8417,-3351.3684L13582.8404,-3351.369L13582.8393,-3351.3689L13582.8371,-3351.37L13582.8363,-3351.3707L13582.8351,-3351.3724L13582.8335,-3351.3727L13582.8323,-3351.3727L13582.8313,-3351.373L13582.8305,-3351.3737L13582.8291,-3351.3754L13582.8279,-3351.3772L13582.8261,-3351.3787L13582.8256,-3351.3796L13582.8236,-3351.3808L13582.8226,-3351.381L13582.8217,-3351.3813L13582.8207,-3351.3801L13582.8195,-3351.3789L13582.8174,-3351.3782L13582.8135,-3351.378L13582.8092,-3351.3777L13582.8082,-3351.3782L13582.8079,-3351.3792L13582.8074,-3351.3803L13582.8052,-3351.3818L13582.8049,-3351.3837L13582.8059,-3351.3851L13582.8059,-3351.3864L13582.8056,-3351.3873L13582.8041,-3351.3889L13582.8027,-3351.3907L13582.8024,-3351.3917L13582.8027,-3351.3927L13582.8036,-3351.3934L13582.8032,-3351.3944L13582.8021,-3351.3949L13582.8012,-3351.3956L13582.8007,-3351.3964L13582.8003,-3351.3974L13582.8002,-3351.3996L13582.7993,-3351.4003L13582.7988,-3351.4013L13582.7994,-3351.4021L13582.8002,-3351.404L13582.7993,-3351.4055L13582.7953,-3351.4207L13582.6598,-3351.4398L13582.5243,-3351.4588L13582.5207,-3351.4576L13582.5165,-3351.4567L13582.5,-3351.4525L13582.4933,-3351.4508L13582.4905,-3351.4501L13582.4639,-3351.4422L13582.4428,-3351.4356L13582.4387,-3351.4342L13582.4259,-3351.4276L13582.4129,-3351.4216L13582.3863,-3351.4084L13582.361,-3351.3939L13582.3348,-3351.3791L13582.3191,-3351.3694L13582.3133,-3351.3649L13582.308,-3351.3613L13582.2883,-3351.3459L13582.2846,-3351.3434L13582.2618,-3351.3259L13582.2431,-3351.308L13582.2246,-3351.2913L13582.2231,-3351.29L13582.2037,-3351.2723L13582.1829,-3351.2546L13582.1642,-3351.2364L13582.1485,-3351.2183L13582.1445,-3351.2135L13582.1335,-3351.2003L13582.1261,-3351.1877L13582.1227,-3351.182L13582.1171,-3351.1704L13582.117,-3351.1698L13582.1172,-3351.1694L13582.1184,-3351.1687L13582.1189,-3351.1681L13582.1189,-3351.1666L13582.1186,-3351.1652L13582.1187,-3351.1645L13582.1207,-3351.1635L13582.1225,-3351.1621L13582.1228,-3351.1609L13582.1224,-3351.1596L13582.1223,-3351.1582L13582.1228,-3351.1575L13582.1237,-3351.1569L13582.1252,-3351.1557L13582.1254,-3351.1546L13582.1253,-3351.1533L13582.1245,-3351.1512L13582.1244,-3351.1504L13582.1252,-3351.1499L13582.1268,-3351.1489L13582.1274,-3351.148L13582.1277,-3351.1466L13582.127,-3351.1444L13582.1272,-3351.1439L13582.128,-3351.1429L13582.1282,-3351.142L13582.1284,-3351.1409L13582.1279,-3351.1398L13582.1267,-3351.1387L13582.1247,-3351.1375L13582.1248,-3351.1368L13582.1256,-3351.1346L13582.1257,-3351.1328L13582.1254,-3351.1319L13582.124,-3351.1302L13582.1226,-3351.1294L13582.1204,-3351.1294L13582.1188,-3351.1298L13582.1176,-3351.1306L13582.1166,-3351.1315L13582.1161,-3351.1324L13582.116,-3351.1336L13582.1161,-3351.1349L13582.1171,-3351.1378L13582.117,-3351.1384L13582.1159,-3351.1398L13582.1157,-3351.1407L13582.1156,-3351.1418L13582.1163,-3351.1432L13582.1161,-3351.144L13582.1156,-3351.1448L13582.1154,-3351.1455L13582.1156,-3351.1473L13582.1151,-3351.1473L13582.1141,-3351.147L13582.1133,-3351.1471L13582.1133,-3351.146L13582.1132,-3351.145L13582.1124,-3351.1439L13582.1115,-3351.1429L13582.1105,-3351.1422L13582.1105,-3351.1398L13582.1104,-3351.1388L13582.1102,-3351.138L13582.1097,-3351.1374L13582.1068,-3351.1361L13582.1068,-3351.1356L13582.1072,-3351.1347L13582.1074,-3351.1336L13582.1074,-3351.1327L13582.107,-3351.1319L13582.1054,-3351.1301L13582.1067,-3351.1293L13582.1076,-3351.128L13582.1081,-3351.1267L13582.1082,-3351.1256L13582.1079,-3351.1246L13582.1074,-3351.1236L13582.105,-3351.122L13582.1051,-3351.1208L13582.1052,-3351.1193L13582.105,-3351.1183L13582.1045,-3351.1176L13582.1024,-3351.1161L13582.1031,-3351.1151L13582.1032,-3351.1142L13582.1029,-3351.1127L13582.1018,-3351.1115L13582.1019,-3351.1101L13582.1018,-3351.1089L13582.1015,-3351.1078L13582.1007,-3351.1066L13582.0993,-3351.1055L13582.1001,-3351.1042L13582.1001,-3351.1033L13582.0998,-3351.1021L13582.0992,-3351.1007L13582.0985,-3351.1001L13582.0977,-3351.0998L13582.0963,-3351.0997L13582.0951,-3351.1L13582.0936,-3351.1007L13582.0925,-3351.102L13582.0914,-3351.1042L13582.0908,-3351.1034L13582.0897,-3351.103L13582.0885,-3351.103L13582.0868,-3351.104L13582.085,-3351.1055L13582.0846,-3351.1063L13582.0843,-3351.1074L13582.0837,-3351.1084L13582.0832,-3351.1094L13582.0831,-3351.1101L13582.0834,-3351.1111L13582.0842,-3351.1122L13582.0862,-3351.1138L13582.0863,-3351.1149L13582.0865,-3351.1153L13582.0877,-3351.1159L13582.0895,-3351.1162L13582.0936,-3351.1162L13582.0938,-3351.1166L13582.0937,-3351.1176L13582.0938,-3351.1185L13582.0942,-3351.1197L13582.0953,-3351.121L13582.0932,-3351.1214L13582.0926,-3351.1217L13582.092,-3351.1225L13582.0917,-3351.1239L13582.0904,-3351.1246L13582.0893,-3351.1254L13582.0889,-3351.1266L13582.0891,-3351.1289L13582.0891,-3351.1302L13582.0883,-3351.1314L13582.0875,-3351.1328L13582.0875,-3351.1338L13582.0876,-3351.1357L13582.0877,-3351.1363L13582.0858,-3351.1372L13582.0847,-3351.1383L13582.0844,-3351.1395L13582.0843,-3351.1409L13582.084,-3351.1434L13582.084,-3351.1447L13582.0794,-3351.1455L13582.0633,-3351.1468L13582.0563,-3351.1474L13582.0506,-3351.1473L13582.0459,-3351.1464L13582.0369,-3351.1429L13582.0231,-3351.1359L13582.004,-3351.1246L13581.9863,-3351.1114L13581.9831,-3351.1084L13581.9697,-3351.0964L13581.9613,-3351.0843L13581.959,-3351.0812L13581.949,-3351.0608L13581.9458,-3351.0535L13581.9377,-3351.0341L13581.9349,-3351.0266L13581.9262,-3351.003L13581.9246,-3350.9992L13581.9171,-3350.9798L13581.9148,-3350.9719L13581.9069,-3350.9449L13581.9061,-3350.9427L13581.8976,-3350.9181L13581.8879,-3350.8917L13581.8781,-3350.8653L13581.8687,-3350.8413L13581.8677,-3350.8381L13581.8661,-3350.8333L13581.8584,-3350.8111L13581.8574,-3350.8L13581.857,-3350.7936L13581.8563,-3350.7902L13581.8539,-3350.7844L13581.8487,-3350.7749L13581.8377,-3350.7592L13581.8345,-3350.7527L13581.8335,-3350.7504L13581.8328,-3350.7477L13581.8327,-3350.7426L13581.8338,-3350.7327L13581.835,-3350.7238L13581.8352,-3350.7211L13581.8352,-3350.7176L13581.8343,-3350.7131L13581.8322,-3350.7087L13581.8338,-3350.7076L13581.8343,-3350.706L13581.8358,-3350.7032L13581.8366,-3350.7015L13581.8371,-3350.6995L13581.8365,-3350.6981L13581.8362,-3350.6973L13581.8368,-3350.6965L13581.8368,-3350.6953L13581.836,-3350.6939L13581.8349,-3350.693L13581.8364,-3350.6916L13581.8369,-3350.6899L13581.8366,-3350.6882L13581.8355,-3350.6873L13581.8341,-3350.687L13581.8319,-3350.687L13581.8314,-3350.6873L13581.831,-3350.6879L13581.8306,-3350.6895L13581.8301,-3350.6905L13581.8289,-3350.6909L13581.8282,-3350.6914L13581.827,-3350.6927L13581.8266,-3350.693L13581.8254,-3350.693L13581.8246,-3350.6931L13581.8242,-3350.6941L13581.8241,-3350.696L13581.8241,-3350.6984L13581.8229,-3350.6984L13581.8218,-3350.6988L13581.8209,-3350.6997L13581.8205,-3350.6976L13581.8193,-3350.6956L13581.8178,-3350.6952L13581.8166,-3350.6952L13581.8161,-3350.6954L13581.8157,-3350.6942L13581.815,-3350.6928L13581.8145,-3350.692L13581.8115,-3350.6907L13581.8103,-3350.6904L13581.8087,-3350.6905L13581.8085,-3350.6896L13581.8071,-3350.6883L13581.8038,-3350.6865L13581.8027,-3350.6866L13581.8022,-3350.6868L13581.8006,-3350.6856L13581.7991,-3350.6849L13581.7972,-3350.6849L13581.7954,-3350.6857L13581.7943,-3350.6863L13581.7931,-3350.6861L13581.7916,-3350.6861L13581.7906,-3350.6861L13581.7898,-3350.6851L13581.7889,-3350.6841L13581.7874,-3350.6832L13581.7861,-3350.683L13581.7841,-3350.683L13581.7808,-3350.6735L13581.7816,-3350.6724L13581.7816,-3350.672L13581.7818,-3350.6711L13581.7818,-3350.6698L13581.7813,-3350.6688L13581.78,-3350.6684L13581.7785,-3350.6682L13581.7781,-3350.6669L13581.7769,-3350.6655L13581.7761,-3350.6636L13581.7752,-3350.6629L13581.7731,-3350.6624L13581.7713,-3350.6624L13581.7682,-3350.6597L13581.7663,-3350.6585L13581.7648,-3350.6585L13581.7636,-3350.659L13581.7623,-3350.6594L13581.76,-3350.6594L13581.7533,-3350.6582L13581.7381,-3350.6528L13581.7279,-3350.6479L13581.7178,-3350.6407L13581.7063,-3350.6311L13581.699,-3350.6211L13581.6969,-3350.6158L13581.6969,-3350.6145L13581.6973,-3350.6136L13581.6991,-3350.6136L13581.7001,-3350.6127L13581.7008,-3350.6115L13581.7006,-3350.6095L13581.6994,-3350.6069L13581.7004,-3350.6055L13581.7004,-3350.6042L13581.6988,-3350.6023L13581.6954,-3350.5995L13581.694,-3350.5992L13581.6938,-3350.5976L13581.6934,-3350.5959L13581.6927,-3350.5948L13581.6944,-3350.5933L13581.6944,-3350.592L13581.6934,-3350.5907L13581.6912,-3350.589L13581.6913,-3350.5868L13581.6906,-3350.5856L13581.6891,-3350.5847L13581.6908,-3350.5839L13581.691,-3350.5819L13581.6899,-3350.58L13581.6889,-3350.579L13581.6897,-3350.578L13581.6892,-3350.577L13581.6889,-3350.5756L13581.6906,-3350.5749L13581.6917,-3350.5739L13581.6918,-3350.5722L13581.6912,-3350.5707L13581.6893,-3350.5695L13581.688,-3350.5688L13581.6862,-3350.5693L13581.6848,-3350.5701L13581.6842,-3350.5681L13581.6829,-3350.5659L13581.6817,-3350.565L13581.6812,-3350.5646L13581.6794,-3350.5648L13581.6782,-3350.5656L13581.676,-3350.5673L13581.6747,-3350.5663L13581.6731,-3350.5661L13581.6716,-3350.5662L13581.6705,-3350.5666L13581.6696,-3350.5672L13581.6681,-3350.5685L13581.6675,-3350.5683L13581.6667,-3350.5678L13581.6667,-3350.5678L13581.6655,-3350.5679L13581.6647,-3350.5685L13581.664,-3350.5688L13581.6631,-3350.5684L13581.662,-3350.568L13581.6603,-3350.5679L13581.6576,-3350.5682L13581.6552,-3350.5697L13581.6542,-3350.5713L13581.6541,-3350.5725L13581.6541,-3350.5735L13581.6547,-3350.5755L13581.6543,-3350.5764L13581.6532,-3350.5779L13581.6532,-3350.5789L13581.6538,-3350.5801L13581.6543,-3350.5809L13581.6541,-3350.5816L13581.6533,-3350.5827L13581.653,-3350.5857L13581.6529,-3350.5875L13581.6518,-3350.5862L13581.6509,-3350.5857L13581.6491,-3350.5857L13581.6471,-3350.5858L13581.6484,-3350.5842L13581.6483,-3350.5824L13581.6473,-3350.5808L13581.6456,-3350.5793L13581.6445,-3350.579L13581.6437,-3350.579L13581.6425,-3350.5767L13581.6415,-3350.5753L13581.6397,-3350.5743L13581.638,-3350.5742L13581.6368,-3350.5744L13581.6364,-3350.575L13581.636,-3350.5763L13581.6359,-3350.5777L13581.6363,-3350.579L13581.6378,-3350.5806L13581.6378,-3350.5816L13581.6369,-3350.5832L13581.6368,-3350.5839L13581.6359,-3350.5834L13581.6339,-3350.5835L13581.6331,-3350.5836L13581.632,-3350.5863L13581.63,-3350.5855L13581.6269,-3350.5865L13581.6257,-3350.5868L13581.6229,-3350.5839L13581.6199,-3350.5834L13581.6179,-3350.5835L13581.6154,-3350.5793L13581.6135,-3350.5783L13581.6105,-3350.5792L13581.6073,-3350.5772L13581.604,-3350.5755L13581.6015,-3350.576L13581.5985,-3350.5755L13581.5964,-3350.5752L13581.5949,-3350.5748L13581.5925,-3350.5728L13581.5901,-3350.5724L13581.5856,-3350.5751L13581.5817,-3350.5738L13581.5783,-3350.5741L13581.5768,-3350.5753L13581.5729,-3350.5746L13581.5684,-3350.5707L13581.566,-3350.5702L13581.5627,-3350.5651L13581.5593,-3350.5649L13581.5571,-3350.5656L13581.5531,-3350.5639L13581.5502,-3350.5636L13581.5461,-3350.5613L13581.5441,-3350.5604L13581.542,-3350.5606L13581.5402,-3350.5587L13581.5379,-3350.5586L13581.5368,-3350.5587L13581.5345,-3350.5558L13581.533,-3350.5535L13581.5319,-3350.5508L13581.5298,-3350.5496L13581.5298,-3350.5465L13581.5273,-3350.5444L13581.5255,-3350.5437L13581.5236,-3350.5399L13581.5202,-3350.5369L13581.5176,-3350.5352L13581.5138,-3350.535L13581.5105,-3350.5348L13581.5021,-3350.5353L13581.4972,-3350.5331L13581.4924,-3350.532L13581.4804,-3350.5284L13581.4682,-3350.5221L13581.4596,-3350.5176L13581.4446,-3350.51L13581.4268,-3350.5012L13581.4198,-3350.4973L13581.4154,-3350.4929L13581.4074,-3350.4876L13581.3977,-3350.4805L13581.3881,-3350.4716L13581.3761,-3350.4594L13581.3667,-3350.4516L13581.3612,-3350.4475L13581.3522,-3350.4387L13581.3462,-3350.4306L13581.3419,-3350.4244L13581.3346,-3350.418L13581.3266,-3350.4119L13581.3174,-3350.4058L13581.3133,-3350.4008L13581.31,-3350.3966L13581.3039,-3350.3877L13581.3003,-3350.3823L13581.2939,-3350.376L13581.2875,-3350.3693L13581.2798,-3350.3633L13581.2744,-3350.3598L13581.2658,-3350.3549L13581.255,-3350.3494L13581.245,-3350.3443L13581.246,-3350.3406L13581.2454,-3350.3382L13581.2436,-3350.3365L13581.2441,-3350.3339L13581.2431,-3350.3323L13581.241,-3350.3299L13581.2414,-3350.3281L13581.2444,-3350.3275L13581.2461,-3350.3253L13581.2462,-3350.3222L13581.2445,-3350.3161L13581.2417,-3350.3136L13581.2393,-3350.3146L13581.2381,-3350.3137L13581.2371,-3350.3109L13581.2353,-3350.3095L13581.2327,-3350.3088L13581.2305,-3350.3048L13581.2273,-3350.303L13581.2256,-3350.2986L13581.2298,-3350.2986L13581.2322,-3350.2972L13581.2338,-3350.2938L13581.2334,-3350.2912L13581.2359,-3350.2896L13581.2345,-3350.2866L13581.2328,-3350.2845L13581.2331,-3350.2819L13581.2318,-3350.2795L13581.2316,-3350.2772L13581.2276,-3350.274L13581.2267,-3350.2724L13581.2295,-3350.2692L13581.2313,-3350.2684L13581.2357,-3350.2688L13581.2373,-3350.2678L13581.2391,-3350.2629L13581.2389,-3350.2609L13581.234,-3350.2568L13581.2352,-3350.2548L13581.2348,-3350.2534L13581.2328,-3350.2485L13581.2288,-3350.2473L13581.2289,-3350.2428L13581.225,-3350.2397L13581.2233,-3350.2353L13581.2194,-3350.2339L13581.2169,-3350.2295L13581.2146,-3350.2288L13581.2127,-3350.2291L13581.209,-3350.2282L13581.2067,-3350.2264L13581.2041,-3350.227L13581.2019,-3350.2275L13581.1959,-3350.228L13581.1892,-3350.2293L13581.186,-3350.2278L13581.1819,-3350.227L13581.1795,-3350.2273L13581.1743,-3350.2256L13581.1685,-3350.2258L13581.1667,-3350.2283L13581.1664,-3350.2319L13581.1637,-3350.2353L13581.1633,-3350.2404L13581.1612,-3350.2431L13581.1617,-3350.2485L13581.161,-3350.2509L13581.1565,-3350.2514L13581.1532,-3350.2495L13581.15,-3350.2499L13581.148,-3350.2479L13581.1447,-3350.2476L13581.1412,-3350.2462L13581.1403,-3350.243L13581.1437,-3350.2414L13581.1446,-3350.238L13581.1443,-3350.2354L13581.1432,-3350.234L13581.1433,-3350.2309L13581.1411,-3350.2278L13581.1392,-3350.2253L13581.1419,-3350.2215L13581.1405,-3350.2181L13581.1394,-3350.2168L13581.1385,-3350.2144L13581.1362,-3350.2128L13581.1344,-3350.2116L13581.1324,-3350.2119L13581.1317,-3350.214L13581.1311,-3350.2159L13581.1289,-3350.2187L13581.1281,-3350.2217L13581.1265,-3350.2247L13581.1253,-3350.2293L13581.1238,-3350.2344L13581.1225,-3350.2336L13581.1211,-3350.2308L13581.1191,-3350.2296L13581.1165,-3350.229L13581.1155,-3350.2258L13581.1188,-3350.223L13581.1218,-3350.2205L13581.1215,-3350.2177L13581.1249,-3350.2167L13581.126,-3350.2149L13581.1253,-3350.2126L13581.1274,-3350.2105L13581.1267,-3350.2087L13581.1244,-3350.2072L13581.1243,-3350.2057L13581.124,-3350.2031L13581.1225,-3350.2016L13581.1196,-3350.1996L13581.1175,-3350.1971L13581.116,-3350.1908L13581.1144,-3350.1892L13581.1151,-3350.1863L13581.1137,-3350.1838L13581.1116,-3350.1823L13581.1115,-3350.1787L13581.1093,-3350.1779L13581.1083,-3350.1744L13581.1055,-3350.1731L13581.1022,-3350.1733L13581.1015,-3350.1708L13581.0997,-3350.1696L13581.1005,-3350.1673L13581.1002,-3350.1653L13581.0979,-3350.164L13581.0966,-3350.1636L13581.0954,-3350.1617L13581.0926,-3350.1608L13581.0877,-3350.1607L13581.0856,-3350.1594L13581.0827,-3350.1597L13581.0793,-3350.1593L13581.076,-3350.1608L13581.0731,-3350.1624L13581.0709,-3350.163L13581.0686,-3350.1656L13581.068,-3350.1674L13581.0666,-3350.1691L13581.0661,-3350.1728L13581.0631,-3350.1753L13581.0637,-3350.1793L13581.0654,-3350.1839L13581.0644,-3350.1865L13581.0657,-3350.1905L13581.0661,-3350.1916L13581.0634,-3350.1936L13581.0619,-3350.1939L13581.0589,-3350.1916L13581.0548,-3350.1919L13581.0525,-3350.1935L13581.052,-3350.1969L13581.0511,-3350.1994L13581.0526,-3350.2031L13581.0506,-3350.2063L13581.051,-3350.2082L13581.0498,-3350.2136L13581.0474,-3350.2091L13581.0489,-3350.204L13581.0473,-3350.2019L13581.0449,-3350.1994L13581.0446,-3350.1946L13581.0408,-3350.1911L13581.042,-3350.189L13581.0409,-3350.1871L13581.0387,-3350.1865L13581.0369,-3350.1867L13581.0338,-3350.1874L13581.0325,-3350.1895L13581.0313,-3350.191L13581.0286,-3350.1913L13581.0227,-3350.1916L13581.0206,-3350.1928L13581.0142,-3350.1929L13581.0119,-3350.1955L13581.0122,-3350.1986L13581.0095,-3350.2033L13581.0095,-3350.2063L13581.0096,-3350.2099L13581.0082,-3350.2126L13581.0089,-3350.2161L13581.0096,-3350.2215L13581.0108,-3350.2232L13581.0073,-3350.2268L13581.0073,-3350.234L13581.0053,-3350.2373L13581.005,-3350.2411L13581.0075,-3350.2472L13581.0069,-3350.2493L13581.0055,-3350.2526L13581.0065,-3350.2579L13581.0054,-3350.261L13581.0024,-3350.2656L13580.9982,-3350.2676L13580.9887,-3350.2697L13580.9803,-3350.2706L13580.9784,-3350.2713L13580.9587,-3350.2662L13580.9503,-3350.2634L13580.9424,-3350.2604L13580.9355,-3350.2563L13580.9274,-3350.2544L13580.9183,-3350.2516L13580.9093,-3350.2476L13580.901,-3350.2432L13580.8918,-3350.2371L13580.8831,-3350.23L13580.8742,-3350.2241L13580.8689,-3350.2201L13580.867,-3350.2192L13580.8635,-3350.2181L13580.8602,-3350.2165L13580.8575,-3350.214L13580.855,-3350.2104L13580.8511,-3350.2083L13580.8483,-3350.2074L13580.8448,-3350.2073L13580.8408,-3350.2083L13580.8389,-3350.209L13580.8371,-3350.2088L13580.8336,-3350.2055L13580.8333,-3350.2053L13580.7913,-3350.1865L13580.7894,-3350.1878L13580.7428,-3350.1432L13580.7359,-3350.1489L13580.7564,-3350.1682L13580.7464,-3350.1749L13580.748,-3350.1774L13580.7584,-3350.1704L13580.7808,-3350.1908L13580.8057,-3350.2779L13580.7756,-3350.285L13580.7725,-3350.2768L13580.6983,-3350.2913L13580.6803,-3350.2347L13580.7443,-3350.1974L13580.7416,-3350.1941L13580.6764,-3350.2339L13580.6944,-3350.2924L13580.6863,-3350.2936L13580.6783,-3350.2947L13580.673,-3350.2939L13580.6682,-3350.2934L13580.6588,-3350.2933L13580.6517,-3350.2932L13580.6444,-3350.2924L13580.6392,-3350.292L13580.6324,-3350.2921L13580.6219,-3350.2917L13580.6192,-3350.2924L13580.6165,-3350.2941L13580.6145,-3350.2944L13580.6128,-3350.2941L13580.6103,-3350.2929L13580.6084,-3350.2922L13580.6064,-3350.2922L13580.6035,-3350.2927L13580.6,-3350.2924L13580.594,-3350.2908L13580.5907,-3350.2894L13580.5831,-3350.2848L13580.5688,-3350.2777L13580.5631,-3350.2749L13580.5565,-3350.2719L13580.5496,-3350.2689L13580.5421,-3350.266L13580.5296,-3350.2594L13580.5194,-3350.2526L13580.5031,-3350.2396L13580.5013,-3350.2384L13580.4989,-3350.2371L13580.4957,-3350.2364L13580.4928,-3350.2367L13580.4902,-3350.2375L13580.4881,-3350.2377L13580.4845,-3350.2371L13580.4648,-3350.22L13580.4393,-3350.1977L13580.4337,-3350.1929L13580.4403,-3350.1856L13580.4394,-3350.1847L13580.4384,-3350.1839L13580.4312,-3350.1904L13580.4274,-3350.1874L13580.4187,-3350.1792L13580.412,-3350.1727L13580.3977,-3350.1585L13580.3769,-3350.1371L13580.3415,-3350.098L13580.3412,-3350.0953L13580.3428,-3350.0927L13580.3449,-3350.0913L13580.3504,-3350.0887L13580.351,-3350.0855L13580.3523,-3350.0821L13580.3488,-3350.0774L13580.3476,-3350.0753L13580.3467,-3350.0728L13580.3466,-3350.0693L13580.3478,-3350.0651L13580.3494,-3350.0638L13580.3519,-3350.0624L13580.3542,-3350.0601L13580.3556,-3350.0562L13580.3559,-3350.0542L13580.3561,-3350.05L13580.355,-3350.0461L13580.3522,-3350.0425L13580.3502,-3350.041L13580.3476,-3350.0371L13580.346,-3350.036L13580.3417,-3350.0376L13580.3394,-3350.0417L13580.3392,-3350.0459L13580.3393,-3350.0494L13580.3389,-3350.0543L13580.3378,-3350.0592L13580.3356,-3350.0623L13580.3335,-3350.0622L13580.331,-3350.0607L13580.3296,-3350.0586L13580.33,-3350.0558L13580.3298,-3350.054L13580.3257,-3350.0532L13580.3194,-3350.0527L13580.3135,-3350.0521L13580.3089,-3350.052L13580.3071,-3350.0495L13580.305,-3350.0462L13580.3004,-3350.0412L13580.2963,-3350.0383L13580.2914,-3350.0364L13580.2868,-3350.0352L13580.2827,-3350.0335L13580.2779,-3350.0291L13580.2747,-3350.0226L13580.2745,-3350.0192L13580.2743,-3350.0164L13580.2728,-3350.0161L13580.2697,-3350.0134L13580.266,-3350.0103L13580.2652,-3350.0072L13580.2647,-3350.0045L13580.262,-3350.0021L13580.2556,-3350.0013L13580.2549,-3350L13580.254,-3349.9983L13580.2572,-3349.9959L13580.2622,-3349.9953L13580.2666,-3349.9929L13580.267,-3349.9882L13580.2662,-3349.9838L13580.2653,-3349.981L13580.2598,-3349.9796L13580.2554,-3349.9796L13580.2522,-3349.9813L13580.2508,-3349.9864L13580.2502,-3349.9935L13580.2485,-3349.9969L13580.2445,-3349.9968L13580.2422,-3349.9948L13580.2422,-3349.99L13580.242,-3349.988L13580.2387,-3349.9876L13580.2361,-3349.9886L13580.2324,-3349.9906L13580.2297,-3349.9879L13580.2271,-3349.9834L13580.2337,-3349.9709L13580.2375,-3349.9689L13580.2407,-3349.9625L13580.2397,-3349.9581L13580.2371,-3349.9577L13580.2328,-3349.9574L13580.2358,-3349.9557L13580.2409,-3349.951L13580.2458,-3349.9466L13580.2473,-3349.9432L13580.2475,-3349.9378L13580.2451,-3349.9341L13580.2385,-3349.933L13580.2343,-3349.9353L13580.2298,-3349.9407L13580.2256,-3349.94L13580.2175,-3349.9406L13580.2129,-3349.9406L13580.2087,-3349.9368L13580.2079,-3349.9307L13580.2066,-3349.9276L13580.2026,-3349.9276L13580.1963,-3349.9279L13580.1911,-3349.9285L13580.1846,-3349.9318L13580.1812,-3349.9399L13580.1804,-3349.9464L13580.1823,-3349.9539L13580.1834,-3349.9583L13580.1801,-3349.9636L13580.1784,-3349.9688L13580.1749,-3349.9715L13580.1709,-3349.9679L13580.1644,-3349.9631L13580.1606,-3349.9637L13580.1564,-3349.9625L13580.1561,-3349.9569L13580.1546,-3349.9513L13580.1528,-3349.9498L13580.1458,-3349.9513L13580.1396,-3349.9536L13580.1278,-3349.9609L13580.1169,-3349.9647L13580.113,-3349.9681L13580.1104,-3349.9746L13580.1108,-3349.983L13580.11,-3349.9882L13580.1088,-3349.9942L13580.1042,-3349.994L13580.1005,-3349.9932L13580.0932,-3349.9881L13580.0888,-3349.9872L13580.0835,-3349.9885L13580.079,-3349.9946L13580.0752,-3349.9959L13580.0704,-3349.9961L13580.069,-3349.9936L13580.0667,-3349.9901L13580.0613,-3349.9878L13580.0576,-3349.9908L13580.0543,-3349.9946L13580.0525,-3350L13580.0524,-3350.0005L13580.0508,-3350.0064L13580.047,-3350.0125L13580.0367,-3350.0167L13580.0324,-3350.0161L13580.0281,-3350.016L13580.0237,-3350.0158L13580.0183,-3350.0165L13580.0117,-3350.0191L13580.0064,-3350.0203L13580.0016,-3350.0191L13580,-3350.0191L13579.998,-3350.0192L13579.9958,-3350.018L13579.9936,-3350.0166L13579.9896,-3350.0151L13579.9856,-3350.016L13579.9825,-3350.0159L13579.9785,-3350.0151L13579.9744,-3350.0132L13579.9746,-3350.0104L13579.9736,-3350.009L13579.9696,-3350.0095L13579.9654,-3350.0106L13579.9617,-3350.0091L13579.9598,-3350.008L13579.9603,-3350.0059L13579.9598,-3350.0031L13579.9584,-3350.0023L13579.9559,-3350.0029L13579.954,-3350.0032L13579.953,-3350.0008L13579.9519,-3350L13579.9504,-3349.9989L13579.9472,-3349.9995L13579.9465,-3349.9967L13579.9425,-3349.9938L13579.9381,-3349.9933L13579.9396,-3349.9892L13579.9365,-3349.9887L13579.9337,-3349.989L13579.9301,-3349.9861L13579.9256,-3349.9835L13579.9245,-3349.981L13579.9223,-3349.9778L13579.9188,-3349.9763L13579.9136,-3349.9753L13579.909,-3349.9714L13579.9062,-3349.9695L13579.9037,-3349.9681L13579.9011,-3349.9659L13579.8978,-3349.9612L13579.8952,-3349.9587L13579.8911,-3349.9572L13579.8876,-3349.9522L13579.8873,-3349.9497L13579.8854,-3349.9458L13579.8811,-3349.9422L13579.8811,-3349.9398L13579.8795,-3349.9369L13579.8742,-3349.935L13579.8717,-3349.9335L13579.871,-3349.9329L13579.8712,-3349.9314L13579.8711,-3349.9305L13579.8712,-3349.929L13579.8705,-3349.9286L13579.8697,-3349.9281L13579.866,-3349.9277L13579.8651,-3349.9269L13579.8652,-3349.9252L13579.8661,-3349.9239L13579.8665,-3349.9211L13579.8611,-3349.9199L13579.858,-3349.9194L13579.8578,-3349.9156L13579.8569,-3349.9128L13579.8542,-3349.9113L13579.8472,-3349.9097L13579.8473,-3349.9069L13579.8476,-3349.9045L13579.8478,-3349.902L13579.8469,-3349.8985L13579.8465,-3349.8983L13579.8447,-3349.8974L13579.8411,-3349.8969L13579.8374,-3349.8961L13579.8365,-3349.8926L13579.8377,-3349.8906L13579.8378,-3349.8888L13579.8359,-3349.8888L13579.8332,-3349.8883L13579.8323,-3349.8859L13579.8332,-3349.8831L13579.8342,-3349.8807L13579.8292,-3349.8791L13579.8262,-3349.8776L13579.8261,-3349.8749L13579.8262,-3349.8724L13579.8248,-3349.8717L13579.8238,-3349.8716L13579.8232,-3349.871L13579.8223,-3349.8705L13579.8222,-3349.8695L13579.8223,-3349.8676L13579.8234,-3349.8668L13579.8246,-3349.864L13579.8226,-3349.8623L13579.8176,-3349.8615L13579.8143,-3349.86L13579.8142,-3349.8572L13579.8146,-3349.8537L13579.8134,-3349.8523L13579.8085,-3349.8514L13579.8084,-3349.8483L13579.8087,-3349.8466L13579.8082,-3349.8438L13579.8053,-3349.8402L13579.8015,-3349.8401L13579.8012,-3349.838L13579.8014,-3349.8341L13579.8003,-3349.8303L13579.7983,-3349.8257L13579.7954,-3349.8235L13579.792,-3349.822L13579.7905,-3349.817L13579.7884,-3349.8138L13579.7874,-3349.8124L13579.7842,-3349.8099L13579.7841,-3349.8071L13579.7849,-3349.8047L13579.7847,-3349.8033L13579.7838,-3349.8015L13579.779,-3349.801L13579.7785,-3349.7986L13579.7789,-3349.7958L13579.7782,-3349.7926L13579.7749,-3349.7918L13579.7739,-3349.7873L13579.7733,-3349.7848L13579.7699,-3349.7837L13579.7666,-3349.7822L13579.7661,-3349.7794L13579.7676,-3349.7749L13579.7669,-3349.7718L13579.7646,-3349.771L13579.7605,-3349.7698L13579.7579,-3349.7684L13579.7568,-3349.7659L13579.7567,-3349.7624L13579.7569,-3349.7583L13579.7556,-3349.7561L13579.7538,-3349.754L13579.7501,-3349.7535L13579.7472,-3349.7479L13579.7486,-3349.7455L13579.7485,-3349.7441L13579.7465,-3349.7426L13579.7432,-3349.7412L13579.7414,-3349.739L13579.7402,-3349.7348L13579.7388,-3349.733L13579.7374,-3349.7326L13579.7345,-3349.7315L13579.7334,-3349.7286L13579.7341,-3349.7224L13579.7347,-3349.72L13579.7317,-3349.7171L13579.729,-3349.7167L13579.7276,-3349.7153L13579.7269,-3349.7125L13579.727,-3349.7114L13579.7266,-3349.7097L13579.7252,-3349.7089L13579.7221,-3349.7088L13579.7207,-3349.7074L13579.7198,-3349.7043L13579.7195,-3349.7022L13579.7202,-3349.7005L13579.7214,-3349.6984L13579.7194,-3349.6959L13579.7173,-3349.6955L13579.7155,-3349.6951L13579.7143,-3349.693L13579.7146,-3349.6913L13579.7139,-3349.6888L13579.7115,-3349.687L13579.7092,-3349.6869L13579.706,-3349.6847L13579.7074,-3349.681L13579.7113,-3349.678L13579.7106,-3349.6771L13579.71,-3349.6763L13579.7058,-3349.6762L13579.7044,-3349.6754L13579.7045,-3349.673L13579.7056,-3349.6717L13579.708,-3349.6697L13579.706,-3349.6675L13579.7037,-3349.6674L13579.7021,-3349.667L13579.7015,-3349.6656L13579.7022,-3349.6635L13579.7034,-3349.6622L13579.7041,-3349.6605L13579.7042,-3349.6587L13579.701,-3349.6586L13579.6999,-3349.6569L13579.6995,-3349.6551L13579.7004,-3349.6538L13579.7011,-3349.6524L13579.7008,-3349.6506L13579.7006,-3349.6471L13579.7016,-3349.6465L13579.7015,-3349.6454L13579.6976,-3349.6432L13579.6984,-3349.6398L13579.6989,-3349.6384L13579.7001,-3349.6353L13579.6975,-3349.6346L13579.6958,-3349.6338L13579.6957,-3349.6317L13579.6972,-3349.6307L13579.6983,-3349.6294L13579.6977,-3349.6287L13579.6961,-3349.6282L13579.6955,-3349.6272L13579.6956,-3349.6248L13579.6982,-3349.6241L13579.6993,-3349.6214L13579.6967,-3349.6196L13579.6972,-3349.6151L13579.6976,-3349.6064L13579.6978,-3349.6019L13579.6982,-3349.5977L13579.6984,-3349.5939L13579.6998,-3349.5908L13579.7014,-3349.5885L13579.7034,-3349.5861L13579.705,-3349.5859L13579.7073,-3349.5859L13579.7086,-3349.5836L13579.7074,-3349.5817L13579.7128,-3349.5784L13579.716,-3349.5761L13579.7188,-3349.5737L13579.7197,-3349.5686L13579.7199,-3349.5648L13579.7191,-3349.5599L13579.7202,-3349.5558L13579.7211,-3349.5544L13579.725,-3349.5504L13579.7295,-3349.5443L13579.7262,-3349.5386L13579.7248,-3349.5376L13579.7225,-3349.5375L13579.7184,-3349.5377L13579.7109,-3349.5364L13579.7108,-3349.5358L13579.7123,-3349.5334L13579.7149,-3349.5314L13579.7185,-3349.5301L13579.722,-3349.5271L13579.723,-3349.524L13579.7237,-3349.5182L13579.7201,-3349.5167L13579.7173,-3349.5173L13579.7142,-3349.5175L13579.7138,-3349.5165L13579.7169,-3349.5141L13579.7169,-3349.5131L13579.7145,-3349.511L13579.7116,-3349.5102L13579.7042,-3349.51L13579.6996,-3349.5088L13579.6977,-3349.506L13579.6968,-3349.5032L13579.6968,-3349.5L13579.6984,-3349.4973L13579.6987,-3349.4953L13579.6998,-3349.4929L13579.6988,-3349.4925L13579.6933,-3349.4883L13579.6941,-3349.4842L13579.6935,-3349.479L13579.6972,-3349.4772L13579.6988,-3349.4747L13579.6987,-3349.4707L13579.7025,-3349.4681L13579.7048,-3349.4656L13579.7076,-3349.4601L13579.7122,-3349.4568L13579.712,-3349.4532L13579.7093,-3349.4483L13579.7091,-3349.4444L13579.7099,-3349.4373L13579.7093,-3349.4344L13579.7077,-3349.4331L13579.7085,-3349.4299L13579.7075,-3349.427L13579.7057,-3349.4245L13579.7054,-3349.4209L13579.702,-3349.4186L13579.6987,-3349.4175L13579.6974,-3349.4107L13579.6943,-3349.4094L13579.6933,-3349.4031L13579.6894,-3349.3996L13579.6886,-3349.3938L13579.6858,-3349.3905L13579.6836,-3349.3888L13579.6834,-3349.3869L13579.6826,-3349.3834L13579.6797,-3349.3799L13579.6792,-3349.3747L13579.6766,-3349.3714L13579.6775,-3349.3664L13579.6768,-3349.3637L13579.6744,-3349.3622L13579.6732,-3349.3567L13579.6702,-3349.3559L13579.6678,-3349.3527L13579.6643,-3349.3519L13579.6628,-3349.3488L13579.6606,-3349.3481L13579.656,-3349.3486L13579.6534,-3349.3479L13579.6506,-3349.3482L13579.6484,-3349.3467L13579.6413,-3349.3473L13579.6381,-3349.345L13579.634,-3349.3444L13579.6285,-3349.3444L13579.6266,-3349.3422L13579.623,-3349.3421L13579.6206,-3349.3423L13579.6159,-3349.3394L13579.6138,-3349.3363L13579.612,-3349.3335L13579.6084,-3349.333L13579.6047,-3349.328L13579.6004,-3349.3265L13579.5986,-3349.3254L13579.598,-3349.3229L13579.5951,-3349.3207L13579.5912,-3349.3199L13579.5911,-3349.3175L13579.5894,-3349.316L13579.589,-3349.3157L13579.5869,-3349.3146L13579.5843,-3349.3144L13579.5832,-3349.312L13579.5807,-3349.3097L13579.5784,-3349.309L13579.5782,-3349.3055L13579.5767,-3349.3029L13579.574,-3349.3016L13579.5716,-3349.2962L13579.5673,-3349.2945L13579.5671,-3349.2905L13579.5638,-3349.2883L13579.562,-3349.2871L13579.5601,-3349.284L13579.558,-3349.2817L13579.5547,-3349.2795L13579.5515,-3349.2787L13579.5499,-3349.277L13579.5485,-3349.2741L13579.5449,-3349.2725L13579.5419,-3349.2724L13579.5371,-3349.2735L13579.5353,-3349.2726L13579.5317,-3349.2655L13579.5174,-3349.2381L13579.5109,-3349.224L13579.5059,-3349.2142L13579.5002,-3349.2028L13579.4965,-3349.191L13579.4938,-3349.1783L13579.492,-3349.1679L13579.4918,-3349.1667L13579.4904,-3349.157L13579.4889,-3349.144L13579.4882,-3349.1318L13579.4878,-3349.1203L13579.4875,-3349.1051L13579.4883,-3349.0965L13579.4913,-3349.082L13579.4953,-3349.0736L13579.4968,-3349.0706L13579.4974,-3349.0714L13579.497,-3349.0728L13579.4971,-3349.074L13579.4979,-3349.075L13579.4989,-3349.0755L13579.5007,-3349.0756L13579.5026,-3349.0747L13579.504,-3349.0725L13579.5065,-3349.0722L13579.5082,-3349.0708L13579.5087,-3349.0679L13579.5115,-3349.0675L13579.5123,-3349.0657L13579.5129,-3349.0632L13579.5151,-3349.0627L13579.5172,-3349.0607L13579.5169,-3349.0568L13579.52,-3349.0556L13579.5204,-3349.0543L13579.5193,-3349.0516L13579.5213,-3349.0514L13579.522,-3349.0505L13579.5211,-3349.0483L13579.5246,-3349.0475L13579.5253,-3349.0464L13579.525,-3349.0454L13579.5246,-3349.0439L13579.5278,-3349.0429L13579.5285,-3349.0414L13579.5275,-3349.0384L13579.5314,-3349.0366L13579.5321,-3349.0346L13579.531,-3349.0325L13579.5333,-3349.0311L13579.534,-3349.0294L13579.5337,-3349.0273L13579.5365,-3349.0254L13579.5366,-3349.0235L13579.5365,-3349.0223L13579.5377,-3349.0208L13579.5371,-3349.0182L13579.5384,-3349.0155L13579.5392,-3349.0137L13579.5412,-3349.0144L13579.5424,-3349.0132L13579.5417,-3349.0108L13579.5442,-3349.0092L13579.5445,-3349.0075L13579.544,-3349.006L13579.5458,-3349.0036L13579.545,-3349.0015L13579.5447,-3349.0004L13579.5463,-3348.9996L13579.5483,-3348.9994L13579.5504,-3348.9988L13579.5503,-3348.9974L13579.5495,-3348.9962L13579.5503,-3348.9941L13579.5498,-3348.9922L13579.5484,-3348.9919L13579.5503,-3348.9902L13579.5505,-3348.9885L13579.5501,-3348.9874L13579.5483,-3348.9858L13579.5511,-3348.9837L13579.5509,-3348.9817L13579.5501,-3348.9803L13579.5528,-3348.9799L13579.5533,-3348.9783L13579.5531,-3348.9765L13579.5501,-3348.9752L13579.5512,-3348.9738L13579.5506,-3348.9724L13579.5496,-3348.9715L13579.55,-3348.9697L13579.5479,-3348.9664L13579.5464,-3348.9655L13579.5475,-3348.9636L13579.5475,-3348.9619L13579.5465,-3348.9603L13579.5456,-3348.9591L13579.5475,-3348.9593L13579.5487,-3348.9584L13579.5489,-3348.956L13579.5486,-3348.9552L13579.55,-3348.9527L13579.5504,-3348.9505L13579.5525,-3348.9495L13579.554,-3348.947L13579.5534,-3348.9425L13579.5514,-3348.9414L13579.5506,-3348.9412L13579.5519,-3348.9389L13579.552,-3348.9375L13579.5512,-3348.9355L13579.5493,-3348.9345L13579.5507,-3348.9326L13579.5505,-3348.93L13579.5498,-3348.9284L13579.5491,-3348.9286L13579.5494,-3348.9262L13579.5487,-3348.9248L13579.5481,-3348.9235L13579.5479,-3348.9225L13579.548,-3348.9204L13579.5478,-3348.9182L13579.5475,-3348.9159L13579.5466,-3348.9128L13579.5454,-3348.9113L13579.5455,-3348.9088L13579.5469,-3348.9076L13579.5453,-3348.9038L13579.5386,-3348.901L13579.524,-3348.8982L13579.5201,-3348.8785L13579.516,-3348.8739L13579.5078,-3348.8648L13579.4896,-3348.8484L13579.4499,-3348.8081L13579.4387,-3348.7817L13579.4191,-3348.7023L13579.4243,-3348.6863L13579.4247,-3348.6853L13579.4142,-3348.682L13579.4188,-3348.6545L13579.4265,-3348.6328L13579.1016,-3348.6328L13579.1016,-3352.6312L13579.1426,-3352.6426L13579.1667,-3352.6459L13579.1858,-3352.6486L13579.2556,-3352.6534L13579.3089,-3352.6624L13579.3955,-3352.6964L13579.4315,-3352.7181L13579.4366,-3352.7494L13579.4459,-3352.7542L13579.4553,-3352.7554L13579.5157,-3352.7349L13579.5647,-3352.7169L13579.5942,-3352.7169L13579.6396,-3352.7307L13579.6521,-3352.7392L13579.66,-3352.7458L13579.7974,-3352.8611L13579.9955,-3353.0273L13581.477,-3353.0273L13581.5531,-3352.9325L13581.5952,-3352.8801L13581.6253,-3352.8425L13581.6667,-3352.7882L13581.7688,-3352.6543L13581.8829,-3352.51L13581.8944,-3352.5L13581.955,-3352.4472L13582.1566,-3352.3134L13582.2336,-3352.2642L13582.2581,-3352.2744L13582.2597,-3352.2751L13582.2899,-3352.2876L13582.304,-3352.296L13582.3212,-3352.3063L13582.3537,-3352.3257L13582.3704,-3352.3378L13582.3806,-3352.3453L13582.3909,-3352.3529L13582.4024,-3352.3751L13582.4037,-3352.3777L13582.4187,-3352.4068L13582.4376,-3352.4435L13582.4903,-3352.4877L13582.496,-3352.5L13582.5,-3352.5085L13582.5411,-3352.5965L13582.5476,-3352.6393L13582.5795,-3352.6977L13582.6061,-3352.7224L13582.6245,-3352.7523L13582.6534,-3352.7746L13582.6889,-3352.8571L13582.6865,-3352.8991L13582.6156,-3352.9316L13582.6038,-3352.9795L13582.602,-3353.0018L13582.5901,-3353.0273Z"/>
<path content="和歌山県,,東牟婁郡,串本町,,30428" xlink:title="和歌山県" d="M13582.5316,-3350.5543L13582.5329,-3350.553L13582.5354,-3350.5524L13582.5368,-3350.5519L13582.5384,-3350.5502L13582.5403,-3350.549L13582.5427,-3350.5484L13582.5437,-3350.5477L13582.5444,-3350.5469L13582.5452,-3350.545L13582.5477,-3350.545L13582.55,-3350.5445L13582.5516,-3350.543L13582.5518,-3350.542L13582.5523,-3350.541L13582.5533,-3350.54L13582.5545,-3350.54L13582.5556,-3350.5395L13582.5566,-3350.5388L13582.558,-3350.5372L13582.559,-3350.5366L13582.5596,-3350.5357L13582.56,-3350.5347L13582.5603,-3350.5325L13582.5602,-3350.5315L13582.5609,-3350.5306L13582.5619,-3350.5303L13582.5629,-3350.5296L13582.5634,-3350.5286L13582.5636,-3350.5276L13582.5636,-3350.5264L13582.5633,-3350.5254L13582.5633,-3350.524L13582.5645,-3350.5237L13582.5655,-3350.5232L13582.5662,-3350.5222L13582.5669,-3350.5203L13582.5692,-3350.5212L13582.5703,-3350.5213L13582.5713,-3350.5208L13582.5723,-3350.5198L13582.5729,-3350.5188L13582.5738,-3350.5174L13582.5762,-3350.5168L13582.5799,-3350.5141L13582.5824,-3350.5141L13582.5836,-3350.5139L13582.5845,-3350.5132L13582.5853,-3350.5112L13582.586,-3350.5106L13582.587,-3350.5112L13582.5879,-3350.512L13582.5899,-3350.513L13582.5923,-3350.5137L13582.5937,-3350.5137L13582.5948,-3350.5133L13582.5966,-3350.5118L13582.5971,-3350.5108L13582.5983,-3350.5092L13582.5996,-3350.5091L13582.602,-3350.5097L13582.6033,-3350.5098L13582.6045,-3350.5095L13582.6058,-3350.5095L13582.6069,-3350.5089L13582.6075,-3350.5079L13582.6082,-3350.5072L13582.6087,-3350.5061L13582.6094,-3350.5041L13582.6096,-3350.502L13582.6101,-3350.5012L13582.6113,-3350.501L13582.6125,-3350.5006L13582.6138,-3350.4999L13582.616,-3350.4959L13582.6161,-3350.4953L13582.6156,-3350.4933L13582.617,-3350.493L13582.6186,-3350.4925L13582.6211,-3350.4893L13582.6216,-3350.4873L13582.6216,-3350.4863L13582.6213,-3350.4852L13582.6214,-3350.4834L13582.6232,-3350.4826L13582.6238,-3350.4811L13582.6242,-3350.4789L13582.6248,-3350.4775L13582.6263,-3350.4763L13582.6274,-3350.4724L13582.6274,-3350.4713L13582.6273,-3350.4708L13582.6273,-3350.4697L13582.6293,-3350.4686L13582.6303,-3350.4678L13582.6314,-3350.4659L13582.6314,-3350.4648L13582.6324,-3350.4636L13582.6357,-3350.4636L13582.6379,-3350.4623L13582.6386,-3350.4614L13582.6403,-3350.4609L13582.6413,-3350.4613L13582.6418,-3350.4622L13582.6418,-3350.4642L13582.6399,-3350.4669L13582.6391,-3350.469L13582.6396,-3350.472L13582.6396,-3350.4731L13582.639,-3350.4753L13582.6391,-3350.4763L13582.6405,-3350.478L13582.6414,-3350.4787L13582.6425,-3350.4792L13582.6428,-3350.4806L13582.6428,-3350.4818L13582.6438,-3350.4839L13582.6442,-3350.4849L13582.6459,-3350.4866L13582.6472,-3350.4871L13582.6491,-3350.4873L13582.6496,-3350.4883L13582.6506,-3350.4892L13582.6517,-3350.4898L13582.6529,-3350.4901L13582.6547,-3350.4898L13582.6554,-3350.4891L13582.6559,-3350.4881L13582.6573,-3350.4864L13582.6595,-3350.4856L13582.6615,-3350.4843L13582.6621,-3350.4835L13582.6628,-3350.4815L13582.6619,-3350.4795L13582.6619,-3350.4785L13582.6637,-3350.4765L13582.6652,-3350.4753L13582.6662,-3350.4737L13582.6665,-3350.4719L13582.6671,-3350.4707L13582.6696,-3350.4719L13582.6708,-3350.4719L13582.6739,-3350.4698L13582.676,-3350.4687L13582.6769,-3350.468L13582.6784,-3350.4663L13582.6785,-3350.4653L13582.6785,-3350.4643L13582.6782,-3350.4633L13582.6782,-3350.4621L13582.6793,-3350.4616L13582.6808,-3350.4607L13582.6816,-3350.4604L13582.6825,-3350.4588L13582.6829,-3350.4573L13582.683,-3350.455L13582.6832,-3350.453L13582.6842,-3350.4523L13582.6848,-3350.4515L13582.6856,-3350.4495L13582.6856,-3350.4483L13582.6852,-3350.4462L13582.6859,-3350.4452L13582.688,-3350.4442L13582.6887,-3350.4435L13582.6894,-3350.4426L13582.6899,-3350.4393L13582.6921,-3350.4378L13582.6928,-3350.4368L13582.6928,-3350.4351L13582.6927,-3350.4339L13582.6926,-3350.4331L13582.6932,-3350.432L13582.6952,-3350.4303L13582.6952,-3350.4287L13582.6949,-3350.4275L13582.6937,-3350.4266L13582.6924,-3350.4262L13582.69,-3350.4263L13582.6872,-3350.428L13582.6864,-3350.4278L13582.6847,-3350.4261L13582.6816,-3350.4256L13582.681,-3350.4261L13582.6798,-3350.4264L13582.6782,-3350.4279L13582.6771,-3350.4284L13582.6759,-3350.428L13582.6747,-3350.4278L13582.6733,-3350.428L13582.6723,-3350.4284L13582.6714,-3350.429L13582.6698,-3350.4308L13582.6687,-3350.4325L13582.6677,-3350.4333L13582.6665,-3350.4335L13582.6643,-3350.4344L13582.6631,-3350.4345L13582.6619,-3350.435L13582.6608,-3350.4355L13582.6602,-3350.4363L13582.6576,-3350.4363L13582.6566,-3350.437L13582.6554,-3350.4374L13582.6538,-3350.4367L13582.6521,-3350.4352L13582.6509,-3350.4352L13582.6499,-3350.434L13582.6513,-3350.4325L13582.6521,-3350.4324L13582.6532,-3350.4318L13582.654,-3350.4311L13582.6546,-3350.4291L13582.6547,-3350.427L13582.6564,-3350.4256L13582.6571,-3350.4247L13582.658,-3350.4228L13582.6574,-3350.4219L13582.658,-3350.4207L13582.6592,-3350.4204L13582.6604,-3350.4204L13582.6615,-3350.4201L13582.6636,-3350.4189L13582.6643,-3350.4181L13582.6648,-3350.4171L13582.665,-3350.4161L13582.665,-3350.4149L13582.6643,-3350.4139L13582.6655,-3350.4131L13582.6693,-3350.4123L13582.67,-3350.4113L13582.6703,-3350.4099L13582.6721,-3350.4093L13582.6736,-3350.4089L13582.6745,-3350.4081L13582.6747,-3350.4072L13582.6752,-3350.4066L13582.6767,-3350.4062L13582.6782,-3350.4058L13582.6801,-3350.4051L13582.6818,-3350.4039L13582.682,-3350.4028L13582.6821,-3350.4022L13582.6822,-3350.4008L13582.6837,-3350.4L13582.6848,-3350.3997L13582.6864,-3350.399L13582.6872,-3350.3984L13582.6879,-3350.3975L13582.6884,-3350.3943L13582.6916,-3350.3933L13582.6927,-3350.3926L13582.6937,-3350.392L13582.6938,-3350.3911L13582.6939,-3350.3892L13582.6939,-3350.3884L13582.696,-3350.3886L13582.6966,-3350.3885L13582.6973,-3350.3881L13582.6983,-3350.3873L13582.7006,-3350.3865L13582.7018,-3350.386L13582.7031,-3350.3856L13582.7039,-3350.3841L13582.7038,-3350.383L13582.7032,-3350.3821L13582.703,-3350.3812L13582.7034,-3350.3805L13582.7054,-3350.3803L13582.706,-3350.3799L13582.7069,-3350.3791L13582.707,-3350.3759L13582.7074,-3350.3749L13582.7086,-3350.3741L13582.7102,-3350.3731L13582.7121,-3350.371L13582.7134,-3350.3697L13582.7142,-3350.3678L13582.7137,-3350.3662L13582.7133,-3350.3654L13582.7133,-3350.3642L13582.7137,-3350.3631L13582.7136,-3350.3614L13582.7133,-3350.3598L13582.7129,-3350.3585L13582.7128,-3350.3552L13582.7119,-3350.3533L13582.711,-3350.3527L13582.7099,-3350.3522L13582.709,-3350.3504L13582.7082,-3350.3484L13582.7073,-3350.3477L13582.7063,-3350.3474L13582.7018,-3350.3456L13582.7005,-3350.3454L13582.6986,-3350.3454L13582.6974,-3350.3458L13582.6959,-3350.3442L13582.6936,-3350.3431L13582.6925,-3350.343L13582.6914,-3350.3425L13582.6903,-3350.343L13582.6884,-3350.344L13582.6866,-3350.3453L13582.6854,-3350.3453L13582.6837,-3350.3448L13582.6831,-3350.3443L13582.6817,-3350.3441L13582.6805,-3350.3442L13582.6782,-3350.3449L13582.6758,-3350.3443L13582.6747,-3350.3438L13582.6733,-3350.3438L13582.6699,-3350.3448L13582.668,-3350.3462L13582.6668,-3350.3467L13582.6658,-3350.3464L13582.6644,-3350.3464L13582.662,-3350.3468L13582.6605,-3350.3484L13582.66,-3350.3495L13582.66,-3350.3507L13582.6603,-3350.3519L13582.6591,-3350.3528L13582.6579,-3350.3529L13582.6571,-3350.3534L13582.6565,-3350.3542L13582.6571,-3350.3552L13582.6564,-3350.3564L13582.6552,-3350.3567L13582.6543,-3350.3575L13582.6532,-3350.3595L13582.6521,-3350.36L13582.6514,-3350.3608L13582.6485,-3350.3591L13582.6472,-3350.3592L13582.6463,-3350.3596L13582.6428,-3350.3616L13582.6411,-3350.3615L13582.6394,-3350.361L13582.6373,-3350.361L13582.6355,-3350.3615L13582.634,-3350.3625L13582.6327,-3350.3623L13582.6316,-3350.3617L13582.6295,-3350.3612L13582.6274,-3350.3616L13582.6255,-3350.3615L13582.6234,-3350.3604L13582.6216,-3350.3603L13582.6204,-3350.3612L13582.6193,-3350.3604L13582.619,-3350.3586L13582.618,-3350.3577L13582.6127,-3350.3557L13582.6104,-3350.3552L13582.6095,-3350.3545L13582.6072,-3350.3537L13582.6044,-3350.354L13582.6034,-3350.3546L13582.6022,-3350.3547L13582.6012,-3350.3543L13582.6,-3350.3542L13582.5988,-3350.3544L13582.5979,-3350.355L13582.5973,-3350.356L13582.5966,-3350.3583L13582.5967,-3350.3598L13582.5982,-3350.3607L13582.5986,-3350.3611L13582.5985,-3350.3617L13582.598,-3350.3628L13582.596,-3350.3641L13582.5959,-3350.3652L13582.5958,-3350.3664L13582.5953,-3350.3672L13582.5938,-3350.3681L13582.5928,-3350.3689L13582.592,-3350.3703L13582.5915,-3350.3722L13582.5919,-3350.3736L13582.5908,-3350.3742L13582.5895,-3350.3749L13582.5886,-3350.3761L13582.5883,-3350.3776L13582.5883,-3350.3792L13582.5882,-3350.38L13582.5869,-3350.381L13582.5858,-3350.3813L13582.5849,-3350.382L13582.5846,-3350.383L13582.5851,-3350.3839L13582.5847,-3350.3848L13582.5837,-3350.3853L13582.5825,-3350.3858L13582.5819,-3350.3866L13582.5816,-3350.3886L13582.58,-3350.3891L13582.5789,-3350.3896L13582.5784,-3350.3907L13582.5774,-3350.393L13582.5761,-3350.3941L13582.5754,-3350.3946L13582.5742,-3350.3955L13582.572,-3350.3972L13582.5696,-3350.4L13582.5686,-3350.4005L13582.5674,-3350.4013L13582.5664,-3350.4023L13582.5663,-3350.4026L13582.5661,-3350.4036L13582.5657,-3350.4057L13582.5649,-3350.406L13582.5633,-3350.4046L13582.5619,-3350.4038L13582.5602,-3350.4036L13582.5576,-3350.4036L13582.5564,-3350.4026L13582.5554,-3350.4018L13582.5531,-3350.4013L13582.5525,-3350.4012L13582.5518,-3350.3994L13582.5506,-3350.3978L13582.5496,-3350.3969L13582.5472,-3350.3961L13582.5447,-3350.3963L13582.5439,-3350.3965L13582.5425,-3350.3973L13582.541,-3350.3961L13582.5399,-3350.3959L13582.5381,-3350.396L13582.537,-3350.3965L13582.5352,-3350.3979L13582.5317,-3350.3986L13582.5307,-3350.3993L13582.5302,-3350.4001L13582.5298,-3350.4012L13582.5298,-3350.4025L13582.5297,-3350.4043L13582.5284,-3350.4051L13582.5269,-3350.4055L13582.5259,-3350.4061L13582.5253,-3350.4066L13582.5241,-3350.4079L13582.5235,-3350.4089L13582.5224,-3350.4096L13582.5204,-3350.4104L13582.5194,-3350.4106L13582.5182,-3350.4101L13582.5168,-3350.4087L13582.5152,-3350.4073L13582.5136,-3350.4061L13582.5117,-3350.4045L13582.5094,-3350.4025L13582.5092,-3350.4023L13582.5078,-3350.3997L13582.507,-3350.3991L13582.5048,-3350.3991L13582.5035,-3350.3982L13582.5021,-3350.3969L13582.5003,-3350.3958L13582.5,-3350.3958L13582.4984,-3350.3958L13582.4961,-3350.3968L13582.4954,-3350.3971L13582.4946,-3350.3975L13582.4928,-3350.3975L13582.4913,-3350.3979L13582.4896,-3350.3986L13582.488,-3350.3999L13582.4873,-3350.4008L13582.4872,-3350.4017L13582.4844,-3350.402L13582.4833,-3350.4024L13582.4831,-3350.4025L13582.4814,-3350.4037L13582.4808,-3350.4046L13582.4803,-3350.4064L13582.4789,-3350.4074L13582.4777,-3350.4077L13582.4769,-3350.4082L13582.4757,-3350.41L13582.4754,-3350.4122L13582.4744,-3350.4127L13582.4714,-3350.4128L13582.4702,-3350.4132L13582.4691,-3350.4136L13582.4673,-3350.4149L13582.4663,-3350.4169L13582.4661,-3350.4178L13582.4662,-3350.4188L13582.4657,-3350.4199L13582.4641,-3350.4216L13582.4627,-3350.4227L13582.4614,-3350.4239L13582.4609,-3350.4249L13582.4608,-3350.4259L13582.461,-3350.427L13582.4607,-3350.4277L13582.4604,-3350.4282L13582.4591,-3350.4295L13582.459,-3350.4302L13582.4601,-3350.4323L13582.4605,-3350.4337L13582.4595,-3350.4342L13582.4581,-3350.4346L13582.457,-3350.4357L13582.4561,-3350.4375L13582.4559,-3350.4391L13582.4555,-3350.4423L13582.4563,-3350.4442L13582.4556,-3350.4451L13582.4535,-3350.4462L13582.4527,-3350.447L13582.4523,-3350.448L13582.4527,-3350.449L13582.4532,-3350.4499L13582.4547,-3350.4537L13582.4553,-3350.4563L13582.4545,-3350.4582L13582.453,-3350.4605L13582.4524,-3350.4618L13582.4519,-3350.4654L13582.4506,-3350.4671L13582.45,-3350.4689L13582.4502,-3350.4712L13582.4508,-3350.4731L13582.4513,-3350.474L13582.4509,-3350.4762L13582.4504,-3350.4772L13582.4504,-3350.4783L13582.4506,-3350.4793L13582.4511,-3350.4803L13582.4516,-3350.4806L13582.4537,-3350.4836L13582.4538,-3350.4846L13582.4526,-3350.4864L13582.4519,-3350.4882L13582.4519,-3350.4895L13582.4528,-3350.4902L13582.4542,-3350.4913L13582.4541,-3350.4934L13582.4548,-3350.4954L13582.4557,-3350.4962L13582.4567,-3350.4967L13582.4597,-3350.497L13582.46,-3350.4977L13582.46,-3350.4994L13582.46,-3350.5012L13582.4606,-3350.5028L13582.4606,-3350.5042L13582.4603,-3350.5055L13582.4607,-3350.5076L13582.4609,-3350.5089L13582.4604,-3350.5099L13582.4601,-3350.5115L13582.4601,-3350.5134L13582.4609,-3350.5154L13582.4614,-3350.5164L13582.4616,-3350.5174L13582.4613,-3350.5184L13582.4612,-3350.5214L13582.4616,-3350.5225L13582.4632,-3350.5236L13582.4651,-3350.5257L13582.4652,-3350.5274L13582.4657,-3350.5285L13582.4668,-3350.529L13582.4689,-3350.5291L13582.47,-3350.5298L13582.4715,-3350.531L13582.4756,-3350.5321L13582.4768,-3350.5316L13582.4784,-3350.5302L13582.4786,-3350.5283L13582.4792,-3350.527L13582.4805,-3350.526L13582.4812,-3350.5243L13582.4814,-3350.5218L13582.4821,-3350.5207L13582.4835,-3350.5202L13582.4844,-3350.5209L13582.4856,-3350.5245L13582.4856,-3350.5271L13582.4893,-3350.5386L13582.4892,-3350.541L13582.4897,-3350.5454L13582.4905,-3350.5475L13582.4927,-3350.5495L13582.4938,-3350.5516L13582.4946,-3350.5526L13582.4951,-3350.5529L13582.496,-3350.5534L13582.4978,-3350.5533L13582.4996,-3350.553L13582.5,-3350.5535L13582.5005,-3350.5541L13582.5016,-3350.5557L13582.5029,-3350.5567L13582.5048,-3350.5569L13582.5068,-3350.5569L13582.5081,-3350.5571L13582.5089,-3350.5588L13582.5099,-3350.5594L13582.5112,-3350.5597L13582.5128,-3350.5598L13582.5138,-3350.5599L13582.5154,-3350.5604L13582.5164,-3350.5613L13582.5184,-3350.5639L13582.5196,-3350.5642L13582.5208,-3350.5639L13582.522,-3350.5629L13582.5248,-3350.5623L13582.5263,-3350.5612L13582.5271,-3350.5592L13582.5277,-3350.5583L13582.5282,-3350.558L13582.5314,-3350.5553L13582.5316,-3350.5543Z"/>
<path content="和歌山県,,東牟婁郡,串本町,,30428" xlink:title="和歌山県" d="M13582.5255,-3350.3216L13582.5295,-3350.3093L13582.5296,-3350.3056L13582.5278,-3350.3016L13582.5254,-3350.2927L13582.5255,-3350.2914L13582.5318,-3350.2867L13582.5338,-3350.2832L13582.534,-3350.2747L13582.5399,-3350.2683L13582.5395,-3350.2648L13582.5394,-3350.2604L13582.5453,-3350.2533L13582.5473,-3350.2466L13582.5516,-3350.2425L13582.5601,-3350.2308L13582.5606,-3350.2214L13582.5627,-3350.2174L13582.5614,-3350.207L13582.5661,-3350.2014L13582.5651,-3350.1963L13582.5654,-3350.1944L13582.5718,-3350.1897L13582.5746,-3350.1851L13582.5779,-3350.1841L13582.5803,-3350.1807L13582.5812,-3350.1773L13582.58,-3350.1724L13582.5753,-3350.168L13582.5709,-3350.1677L13582.5661,-3350.1679L13582.5617,-3350.1696L13582.5588,-3350.1707L13582.5532,-3350.1753L13582.5466,-3350.1827L13582.5445,-3350.1849L13582.5404,-3350.1878L13582.5361,-3350.1945L13582.5315,-3350.2008L13582.5304,-3350.2063L13582.523,-3350.2116L13582.5216,-3350.2154L13582.5214,-3350.2165L13582.5214,-3350.2193L13582.5213,-3350.2241L13582.5212,-3350.2256L13582.5191,-3350.2278L13582.5164,-3350.2304L13582.5154,-3350.2331L13582.5123,-3350.2412L13582.5073,-3350.2431L13582.5001,-3350.2486L13582.5,-3350.2488L13582.4972,-3350.2543L13582.4907,-3350.2598L13582.4886,-3350.2651L13582.4869,-3350.2674L13582.4846,-3350.269L13582.4796,-3350.2741L13582.4772,-3350.2823L13582.4702,-3350.2891L13582.4704,-3350.292L13582.4707,-3350.2972L13582.471,-3350.3L13582.4689,-3350.3038L13582.4694,-3350.3105L13582.4718,-3350.3122L13582.4763,-3350.3121L13582.4842,-3350.3117L13582.4858,-3350.3128L13582.4865,-3350.3193L13582.4944,-3350.326L13582.4952,-3350.3299L13582.4958,-3350.3356L13582.4991,-3350.338L13582.5,-3350.338L13582.505,-3350.338L13582.51,-3350.3353L13582.5135,-3350.3324L13582.516,-3350.3278L13582.5216,-3350.3248L13582.5255,-3350.3216Z"/>
<path content="和歌山県,,東牟婁郡,串本町,,30428" xlink:title="和歌山県" d="M13579.5941,-3348.6328L13579.594,-3348.6344L13579.5967,-3348.6354L13579.6016,-3348.6339L13579.6022,-3348.6328L13579.5306,-3348.6328L13579.5352,-3348.6348L13579.5447,-3348.6358L13579.5547,-3348.6331L13579.555,-3348.6328Z"/>
<path content="和歌山県,,東牟婁郡,串本町,,30428" xlink:title="和歌山県" d="M13582.4751,-3350.7058L13582.4749,-3350.7043L13582.477,-3350.705L13582.4782,-3350.7055L13582.4805,-3350.706L13582.4823,-3350.7057L13582.4833,-3350.7053L13582.4841,-3350.7045L13582.4848,-3350.7025L13582.4848,-3350.7017L13582.4843,-3350.7007L13582.4833,-3350.7L13582.4816,-3350.6985L13582.4812,-3350.6975L13582.4814,-3350.6963L13582.4807,-3350.6943L13582.4806,-3350.6934L13582.4797,-3350.6927L13582.4776,-3350.6916L13582.4767,-3350.6897L13582.4749,-3350.6884L13582.4736,-3350.6882L13582.4731,-3350.6883L13582.4671,-3350.6876L13582.4674,-3350.6876L13582.4664,-3350.6872L13582.465,-3350.6861L13582.4641,-3350.6863L13582.4621,-3350.6873L13582.46,-3350.6879L13582.4573,-3350.6888L13582.4567,-3350.6893L13582.4562,-3350.6912L13582.455,-3350.6918L13582.454,-3350.6919L13582.4529,-3350.6905L13582.452,-3350.6895L13582.4506,-3350.688L13582.4505,-3350.6868L13582.4503,-3350.6847L13582.4503,-3350.683L13582.4493,-3350.6816L13582.4481,-3350.6805L13582.4466,-3350.68L13582.4443,-3350.6801L13582.4424,-3350.6801L13582.4415,-3350.6791L13582.4409,-3350.6775L13582.4411,-3350.6766L13582.4422,-3350.6757L13582.4435,-3350.6739L13582.4434,-3350.6729L13582.4434,-3350.6727L13582.4435,-3350.6716L13582.4452,-3350.6701L13582.4461,-3350.6694L13582.4463,-3350.6684L13582.4461,-3350.6674L13582.4463,-3350.6663L13582.447,-3350.6658L13582.4481,-3350.6659L13582.4499,-3350.6662L13582.4513,-3350.6662L13582.4529,-3350.6649L13582.4525,-3350.6627L13582.4518,-3350.6608L13582.4521,-3350.6598L13582.4518,-3350.6588L13582.4504,-3350.657L13582.4495,-3350.6564L13582.4494,-3350.6553L13582.4501,-3350.6543L13582.4504,-3350.6533L13582.4502,-3350.6523L13582.4495,-3350.6514L13582.4473,-3350.6505L13582.4463,-3350.6471L13582.4467,-3350.6461L13582.4475,-3350.6454L13582.448,-3350.6444L13582.448,-3350.6432L13582.4468,-3350.6415L13582.4467,-3350.6405L13582.4474,-3350.6398L13582.4477,-3350.6388L13582.4477,-3350.6378L13582.4474,-3350.6368L13582.4475,-3350.6358L13582.4484,-3350.6351L13582.4485,-3350.6339L13582.4484,-3350.6329L13582.4479,-3350.6306L13582.4467,-3350.629L13582.4454,-3350.6283L13582.4447,-3350.6272L13582.4452,-3350.6257L13582.4456,-3350.6243L13582.4461,-3350.6235L13582.4473,-3350.6238L13582.4487,-3350.6245L13582.4503,-3350.6248L13582.4549,-3350.6269L13582.4578,-3350.6293L13582.4594,-3350.6303L13582.4599,-3350.6301L13582.4603,-3350.6297L13582.4608,-3350.6262L13582.4616,-3350.6066L13582.4618,-3350.6056L13582.4623,-3350.6046L13582.4623,-3350.6036L13582.4618,-3350.6027L13582.4611,-3350.6007L13582.4599,-3350.5989L13582.4583,-3350.5975L13582.4584,-3350.5966L13582.4577,-3350.5956L13582.457,-3350.5949L13582.4561,-3350.5941L13582.4538,-3350.5934L13582.4529,-3350.5929L13582.4529,-3350.5919L13582.4522,-3350.591L13582.4513,-3350.5903L13582.4498,-3350.5878L13582.4482,-3350.5876L13582.4456,-3350.5879L13582.444,-3350.5872L13582.4431,-3350.5867L13582.441,-3350.5868L13582.4395,-3350.5866L13582.4388,-3350.5861L13582.438,-3350.585L13582.4364,-3350.5834L13582.4352,-3350.583L13582.4334,-3350.5827L13582.4311,-3350.5805L13582.4321,-3350.5787L13582.4324,-3350.5777L13582.4323,-3350.5766L13582.4309,-3350.575L13582.4306,-3350.5741L13582.4305,-3350.5707L13582.4308,-3350.5695L13582.4314,-3350.5682L13582.4321,-3350.5667L13582.4323,-3350.5649L13582.4326,-3350.5623L13582.4338,-3350.5613L13582.4344,-3350.5602L13582.4342,-3350.5593L13582.4335,-3350.5583L13582.4326,-3350.5576L13582.4316,-3350.557L13582.4297,-3350.5565L13582.4285,-3350.5563L13582.4275,-3350.5567L13582.4267,-3350.5575L13582.4263,-3350.5581L13582.4263,-3350.5618L13582.426,-3350.5626L13582.4248,-3350.5632L13582.4241,-3350.5638L13582.4234,-3350.5649L13582.4235,-3350.5663L13582.4238,-3350.5688L13582.4236,-3350.5702L13582.4229,-3350.5717L13582.4225,-3350.5733L13582.4229,-3350.5752L13582.4234,-3350.5769L13582.4235,-3350.578L13582.4219,-3350.579L13582.4214,-3350.5803L13582.4217,-3350.5836L13582.4215,-3350.5845L13582.4218,-3350.5855L13582.4225,-3350.5864L13582.4235,-3350.5869L13582.4242,-3350.5877L13582.4242,-3350.5899L13582.4244,-3350.5908L13582.4252,-3350.5915L13582.4263,-3350.5921L13582.4298,-3350.593L13582.4312,-3350.5933L13582.4324,-3350.594L13582.4331,-3350.5957L13582.4334,-3350.5976L13582.4343,-3350.5983L13582.4368,-3350.6001L13582.4366,-3350.6017L13582.436,-3350.6033L13582.4359,-3350.6046L13582.4379,-3350.6064L13582.4383,-3350.6076L13582.4378,-3350.6091L13582.4372,-3350.6107L13582.4371,-3350.6133L13582.4363,-3350.6143L13582.436,-3350.6161L13582.4359,-3350.6173L13582.4375,-3350.6188L13582.4376,-3350.6202L13582.4362,-3350.6223L13582.4329,-3350.6254L13582.4323,-3350.6263L13582.4322,-3350.6273L13582.4328,-3350.6293L13582.4334,-3350.6303L13582.4342,-3350.631L13582.4348,-3350.6331L13582.4362,-3350.6348L13582.4366,-3350.6358L13582.4363,-3350.6366L13582.4361,-3350.6386L13582.4378,-3350.6402L13582.4394,-3350.6417L13582.4379,-3350.6422L13582.4368,-3350.6434L13582.4361,-3350.6449L13582.4361,-3350.6472L13582.4358,-3350.6491L13582.4356,-3350.6509L13582.435,-3350.653L13582.4332,-3350.6542L13582.4328,-3350.6552L13582.4326,-3350.6562L13582.4328,-3350.6574L13582.4331,-3350.6583L13582.4334,-3350.6603L13582.4328,-3350.6611L13582.4335,-3350.6634L13582.4337,-3350.6653L13582.4331,-3350.667L13582.4326,-3350.6685L13582.4333,-3350.6698L13582.434,-3350.6708L13582.4343,-3350.6721L13582.4337,-3350.6729L13582.4333,-3350.6734L13582.4331,-3350.6748L13582.4347,-3350.6771L13582.4348,-3350.6787L13582.4342,-3350.6804L13582.4337,-3350.682L13582.4338,-3350.6833L13582.4357,-3350.686L13582.436,-3350.6872L13582.4372,-3350.6887L13582.4383,-3350.6895L13582.4399,-3350.6926L13582.4411,-3350.6945L13582.4429,-3350.6962L13582.4445,-3350.6973L13582.4514,-3350.6993L13582.453,-3350.7L13582.4534,-3350.7011L13582.4534,-3350.7023L13582.4534,-3350.7031L13582.4535,-3350.7041L13582.454,-3350.7049L13582.455,-3350.7061L13582.4561,-3350.7078L13582.4561,-3350.7088L13582.4565,-3350.7097L13582.4577,-3350.7115L13582.4585,-3350.7123L13582.4602,-3350.7134L13582.4621,-3350.7138L13582.4634,-3350.7137L13582.4662,-3350.7133L13582.4682,-3350.713L13582.4696,-3350.7112L13582.4695,-3350.7096L13582.4702,-3350.7083L13582.4731,-3350.7079L13582.4743,-3350.7075L13582.475,-3350.7071L13582.4751,-3350.7058Z"/>
<path content="和歌山県,,東牟婁郡,串本町,,30428" xlink:title="和歌山県" d="M13583.4961,-3351.1444L13583.361,-3351.1839L13583.3655,-3351.1945L13583.4961,-3351.1561Z"/>
<path content="和歌山県,,東牟婁郡,串本町,,30428" xlink:title="和歌山県" d="M13579.528,-3348.6884L13579.5107,-3348.6882L13579.5024,-3348.6898L13579.4958,-3348.6961L13579.4958,-3348.7064L13579.5019,-3348.7165L13579.5086,-3348.7227L13579.516,-3348.7261L13579.5187,-3348.7261L13579.5243,-3348.7254L13579.5294,-3348.7233L13579.5422,-3348.7098L13579.5429,-3348.6979L13579.5402,-3348.6946L13579.528,-3348.6884Z"/>
<path content="和歌山県,,東牟婁郡,串本町,,30428" xlink:title="和歌山県" d="M13582.6682,-3349.9705L13582.6617,-3349.9697L13582.653,-3349.9736L13582.6455,-3349.98L13582.6451,-3349.9835L13582.6463,-3349.9864L13582.6501,-3349.9897L13582.6522,-3349.9937L13582.6527,-3349.9971L13582.6519,-3350L13582.6497,-3350.0074L13582.6496,-3350.0165L13582.6519,-3350.02L13582.6547,-3350.0212L13582.6572,-3350.0206L13582.6597,-3350.0182L13582.6622,-3350.0131L13582.665,-3350.0087L13582.6717,-3350.0048L13582.6745,-3350.0002L13582.6745,-3350L13582.6772,-3349.9889L13582.6765,-3349.9804L13582.6718,-3349.9727L13582.6682,-3349.9705Z"/>
<path content="和歌山県,,東牟婁郡,串本町,,30428" xlink:title="和歌山県" d="M13579.5711,-3348.7813L13579.5653,-3348.7811L13579.5623,-3348.7854L13579.5616,-3348.7906L13579.5616,-3348.797L13579.5604,-3348.8035L13579.5607,-3348.8092L13579.5607,-3348.8124L13579.5609,-3348.8148L13579.5618,-3348.8184L13579.5612,-3348.8211L13579.5587,-3348.8297L13579.5607,-3348.8337L13579.5658,-3348.8364L13579.5711,-3348.8377L13579.5745,-3348.8366L13579.5765,-3348.8332L13579.5745,-3348.8248L13579.5719,-3348.8218L13579.5704,-3348.8163L13579.5738,-3348.8118L13579.5738,-3348.8045L13579.5731,-3348.8011L13579.5731,-3348.7977L13579.5752,-3348.7949L13579.577,-3348.7917L13579.5771,-3348.7877L13579.5758,-3348.7821L13579.5711,-3348.7813Z"/>
<path content="和歌山県,,東牟婁郡,串本町,,30428" xlink:title="和歌山県" d="M13582.5358,-3350.3418L13582.5327,-3350.3407L13582.5246,-3350.3411L13582.5194,-3350.3451L13582.5192,-3350.3478L13582.5201,-3350.3519L13582.5168,-3350.3598L13582.5168,-3350.3614L13582.5179,-3350.363L13582.5228,-3350.366L13582.5288,-3350.3656L13582.5322,-3350.3635L13582.5411,-3350.3586L13582.5442,-3350.356L13582.5458,-3350.353L13582.5451,-3350.35L13582.5358,-3350.3418Z"/>
<path content="和歌山県,,東牟婁郡,串本町,,30428" xlink:title="和歌山県" d="M13579.5824,-3348.7139L13579.5776,-3348.7128L13579.5721,-3348.7153L13579.5703,-3348.7208L13579.5705,-3348.7272L13579.571,-3348.7422L13579.5761,-3348.7428L13579.5826,-3348.7357L13579.5853,-3348.7306L13579.5846,-3348.7256L13579.584,-3348.721L13579.5824,-3348.7139Z"/>
<path content="和歌山県,,東牟婁郡,串本町,,30428" xlink:title="和歌山県" d="M13579.5621,-3348.8658L13579.5552,-3348.8657L13579.5507,-3348.8731L13579.5504,-3348.8817L13579.5503,-3348.8863L13579.5516,-3348.8896L13579.5536,-3348.8913L13579.5617,-3348.8902L13579.5637,-3348.8834L13579.5644,-3348.8767L13579.5664,-3348.8716L13579.5646,-3348.8671L13579.5621,-3348.8658Z"/>
<path content="和歌山県,,東牟婁郡,串本町,,30428" xlink:title="和歌山県" d="M13579.5991,-3348.6831L13579.5961,-3348.6799L13579.5917,-3348.6803L13579.5854,-3348.6862L13579.582,-3348.6966L13579.5809,-3348.7018L13579.5809,-3348.7034L13579.5831,-3348.7053L13579.5889,-3348.7056L13579.5934,-3348.7026L13579.5974,-3348.6932L13579.5991,-3348.6831Z"/>
<path content="和歌山県,,東牟婁郡,串本町,,30428" xlink:title="和歌山県" d="M13582.5789,-3350.3223L13582.577,-3350.3217L13582.5743,-3350.322L13582.5628,-3350.3275L13582.5586,-3350.3284L13582.5563,-3350.3308L13582.554,-3350.3373L13582.5546,-3350.3389L13582.5584,-3350.3397L13582.5639,-3350.3393L13582.57,-3350.3368L13582.5776,-3350.3318L13582.5804,-3350.3294L13582.5803,-3350.3251L13582.5789,-3350.3223Z"/>
<path content="和歌山県,,東牟婁郡,串本町,,30428" xlink:title="和歌山県" d="M13582.7569,-3350.4748L13582.7513,-3350.4729L13582.7469,-3350.4729L13582.7434,-3350.4742L13582.741,-3350.4781L13582.7407,-3350.4827L13582.7438,-3350.4863L13582.7481,-3350.4873L13582.7553,-3350.4868L13582.7585,-3350.4834L13582.7593,-3350.4782L13582.7569,-3350.4748Z"/>
<path content="和歌山県,,東牟婁郡,串本町,,30428" xlink:title="和歌山県" d="M13579.58,-3348.7572L13579.5781,-3348.751L13579.572,-3348.7512L13579.5677,-3348.7602L13579.57,-3348.7714L13579.5738,-3348.7729L13579.5765,-3348.7712L13579.5785,-3348.7667L13579.5792,-3348.7645L13579.5792,-3348.7611L13579.58,-3348.7572Z"/>
<path content="和歌山県,,東牟婁郡,串本町,,30428" xlink:title="和歌山県" d="M13579.5671,-3348.8434L13579.5642,-3348.8433L13579.5618,-3348.8435L13579.5594,-3348.8442L13579.5576,-3348.8467L13579.5571,-3348.8495L13579.5574,-3348.8571L13579.559,-3348.8594L13579.5607,-3348.8603L13579.5624,-3348.8608L13579.5646,-3348.8608L13579.566,-3348.86L13579.5671,-3348.8585L13579.5677,-3348.8574L13579.5685,-3348.855L13579.5692,-3348.8541L13579.5693,-3348.8509L13579.5696,-3348.845L13579.5671,-3348.8434Z"/>
<path content="和歌山県,,東牟婁郡,串本町,,30428" xlink:title="和歌山県" d="M13579.601,-3348.6578L13579.5976,-3348.6564L13579.5936,-3348.6567L13579.5906,-3348.6604L13579.5854,-3348.6691L13579.5849,-3348.6714L13579.5862,-3348.6733L13579.5902,-3348.6731L13579.5969,-3348.6687L13579.6004,-3348.6637L13579.601,-3348.6578Z"/>
<path content="和歌山県,,東牟婁郡,串本町,,30428" xlink:title="和歌山県" d="M13579.5969,-3348.638L13579.5929,-3348.6375L13579.5887,-3348.6415L13579.5864,-3348.648L13579.586,-3348.653L13579.5866,-3348.6542L13579.5912,-3348.6551L13579.5946,-3348.6516L13579.5976,-3348.6426L13579.5969,-3348.638Z"/>
<path content="和歌山県,,東牟婁郡,串本町,,30428" xlink:title="和歌山県" d="M13582.8837,-3350.3468L13582.8822,-3350.3455L13582.8801,-3350.3464L13582.8793,-3350.3469L13582.876,-3350.3479L13582.8756,-3350.3482L13582.8753,-3350.3496L13582.8758,-3350.3531L13582.876,-3350.354L13582.8765,-3350.3566L13582.8768,-3350.3584L13582.8773,-3350.3603L13582.8783,-3350.3619L13582.8796,-3350.3626L13582.8823,-3350.3626L13582.8823,-3350.3608L13582.8822,-3350.3603L13582.8826,-3350.3572L13582.8836,-3350.3555L13582.8838,-3350.3549L13582.8831,-3350.352L13582.8831,-3350.3519L13582.8839,-3350.3484L13582.8837,-3350.3468Z"/>
<path content="和歌山県,,東牟婁郡,串本町,,30428" xlink:title="和歌山県" d="M13580.0456,-3349.9688L13580.0422,-3349.9632L13580.0398,-3349.9643L13580.0429,-3349.9693L13580.0419,-3349.9992L13580.0446,-3349.9993L13580.0456,-3349.9688Z"/>
<path content="和歌山県,,東牟婁郡,串本町,,30428" xlink:title="和歌山県" d="M13581.5209,-3349.8293L13581.5189,-3349.8293L13581.5162,-3349.8321L13581.5168,-3349.8344L13581.5195,-3349.8355L13581.5222,-3349.8338L13581.5222,-3349.8304L13581.5209,-3349.8293Z"/>
<path content="和歌山県,,東牟婁郡,串本町,,30428" xlink:title="和歌山県" d="M13581.1754,-3350.0379L13581.174,-3350.0356L13581.172,-3350.0362L13581.172,-3350.0396L13581.1754,-3350.0379Z"/>
</g>
</svg>
