<?xml version="1.0" encoding="UTF-8"?>
<svg  xmlns="http://www.w3.org/2000/svg" xmlns:xlink="http://www.w3.org/1999/xlink" xmlns:go="http://purl.org/svgmap/profile" property="geometry,N03_001,N03_002,N03_003,N03_004,N03_005,N03_007" viewBox="13462.646484375 -3566.162109375 1.0986328125 1.0986328125" go:dataArea="13462.646484375 -3566.162109375 1.0986328125 1.0986328125" >
<metadata>
 <rdf:RDF xmlns:rdf="http://www.w3.org/1999/02/22-rdf-syntax-ns#" xmlns:crs="http://opengis.org/xmldtds/transformations.dtd" xmlns:svg="http://www.w3.org/svg" >
  <rdf:Description>
   <crs:CoordinateReferenceSystem rdf:resource="http://purl.org/crs/84" svg:transform="matrix(100.0,0.0,0.0,-100.0,0.0,0.0)" />
  </rdf:Description>
 </rdf:RDF>
</metadata>
<globalCoordinateSystem srsName="http://purl.org/crs/84" transform="matrix(100.0,0.0,0.0,-100.0,0.0,0.0)" />
<defs>
 <g id="p0" >
  <circle cx="0.0" cy="0.0" r="3" stroke="green" stroke-width="2.0" vector-effect="non-scaling-stroke" />
 </g>
</defs>
<g fill="#0000ff" fill-rule="evenodd" opacity="0.5" >
<path content="兵庫県,,美方郡,香美町,,28585" xlink:title="兵庫県" d="M13463.7451,-3565.0635L13463.0966,-3565.0635L13463.097,-3565.0636L13463.0977,-3565.064L13463.0983,-3565.0647L13463.0991,-3565.0658L13463.0995,-3565.0663L13463.1003,-3565.0671L13463.1012,-3565.0677L13463.1019,-3565.0678L13463.1033,-3565.0675L13463.1047,-3565.0675L13463.1052,-3565.0687L13463.1065,-3565.0694L13463.1079,-3565.0699L13463.1107,-3565.0698L13463.1117,-3565.0707L13463.1131,-3565.0714L13463.1145,-3565.0715L13463.1159,-3565.0714L13463.1173,-3565.0715L13463.1187,-3565.0719L13463.12,-3565.0726L13463.1227,-3565.0729L13463.1237,-3565.0738L13463.1244,-3565.0742L13463.1248,-3565.0745L13463.1251,-3565.0748L13463.1252,-3565.0759L13463.1258,-3565.0769L13463.1277,-3565.0781L13463.1304,-3565.0793L13463.1332,-3565.0796L13463.1346,-3565.0792L13463.1359,-3565.0797L13463.1372,-3565.0806L13463.1386,-3565.0813L13463.14,-3565.0815L13463.1412,-3565.0807L13463.1423,-3565.0797L13463.1423,-3565.0787L13463.1437,-3565.0784L13463.1451,-3565.0777L13463.1459,-3565.0767L13463.1473,-3565.076L13463.1485,-3565.0748L13463.1498,-3565.0725L13463.151,-3565.0716L13463.152,-3565.0705L13463.154,-3565.0686L13463.1548,-3565.0675L13463.1573,-3565.0668L13463.1585,-3565.0668L13463.1599,-3565.0661L13463.1613,-3565.0659L13463.1627,-3565.0662L13463.1645,-3565.0669L13463.1653,-3565.0677L13463.1659,-3565.0684L13463.1664,-3565.069L13463.1665,-3565.0699L13463.167,-3565.0709L13463.1677,-3565.0713L13463.1687,-3565.0719L13463.1689,-3565.0725L13463.1688,-3565.0734L13463.169,-3565.0742L13463.1694,-3565.0746L13463.1702,-3565.0751L13463.1702,-3565.0761L13463.1717,-3565.0771L13463.175,-3565.0771L13463.1761,-3565.0774L13463.1784,-3565.0786L13463.1803,-3565.0792L13463.1821,-3565.0799L13463.1835,-3565.08L13463.1863,-3565.0791L13463.1871,-3565.0793L13463.1892,-3565.0801L13463.1936,-3565.081L13463.1974,-3565.0797L13463.2001,-3565.0807L13463.2015,-3565.081L13463.2029,-3565.0817L13463.2043,-3565.082L13463.2057,-3565.0821L13463.2083,-3565.0807L13463.2089,-3565.0799L13463.2108,-3565.0781L13463.2136,-3565.0776L13463.2147,-3565.0765L13463.2174,-3565.0758L13463.2192,-3565.0737L13463.2206,-3565.0735L13463.222,-3565.0741L13463.2234,-3565.0738L13463.2246,-3565.0731L13463.226,-3565.0725L13463.2271,-3565.0714L13463.2276,-3565.0702L13463.2283,-3565.0694L13463.2279,-3565.0675L13463.2285,-3565.0666L13463.2311,-3565.0636L13463.2312,-3565.0635L13463.2388,-3565.0635L13463.2389,-3565.0639L13463.2393,-3565.0649L13463.2393,-3565.0658L13463.2386,-3565.0672L13463.2384,-3565.0678L13463.2384,-3565.0689L13463.2382,-3565.0698L13463.2379,-3565.0706L13463.2384,-3565.0713L13463.2392,-3565.0718L13463.2401,-3565.0719L13463.2413,-3565.0726L13463.2413,-3565.0733L13463.2408,-3565.0745L13463.2403,-3565.075L13463.2403,-3565.0761L13463.2406,-3565.0782L13463.2427,-3565.0785L13463.2432,-3565.0788L13463.2445,-3565.0782L13463.245,-3565.0776L13463.2462,-3565.0763L13463.2474,-3565.0757L13463.2488,-3565.0759L13463.2502,-3565.0749L13463.2519,-3565.0744L13463.2532,-3565.0748L13463.254,-3565.0753L13463.2559,-3565.0754L13463.258,-3565.0744L13463.2608,-3565.0742L13463.2632,-3565.0739L13463.2647,-3565.0751L13463.2656,-3565.0763L13463.2666,-3565.0784L13463.267,-3565.0791L13463.269,-3565.0798L13463.2697,-3565.0803L13463.2694,-3565.0822L13463.2699,-3565.083L13463.271,-3565.0832L13463.2723,-3565.0835L13463.2725,-3565.0833L13463.2728,-3565.0843L13463.2729,-3565.0856L13463.2724,-3565.0867L13463.2722,-3565.0874L13463.2715,-3565.0883L13463.2712,-3565.0894L13463.2706,-3565.0904L13463.2698,-3565.0913L13463.2685,-3565.0922L13463.2677,-3565.0933L13463.2675,-3565.0943L13463.2677,-3565.0944L13463.2659,-3565.0947L13463.2654,-3565.095L13463.2649,-3565.0951L13463.2643,-3565.0955L13463.2635,-3565.096L13463.2629,-3565.0965L13463.2624,-3565.0974L13463.2624,-3565.0979L13463.2625,-3565.1L13463.2625,-3565.1012L13463.2629,-3565.1017L13463.2625,-3565.1023L13463.2618,-3565.1026L13463.2608,-3565.104L13463.2609,-3565.1054L13463.2617,-3565.1061L13463.2621,-3565.1068L13463.2622,-3565.1074L13463.2624,-3565.108L13463.2628,-3565.1085L13463.263,-3565.1088L13463.2625,-3565.1098L13463.2625,-3565.1103L13463.2629,-3565.1108L13463.2629,-3565.1123L13463.2631,-3565.1134L13463.2642,-3565.1145L13463.2655,-3565.1153L13463.2672,-3565.1159L13463.2679,-3565.1165L13463.2688,-3565.1175L13463.2701,-3565.1183L13463.2728,-3565.1182L13463.2735,-3565.119L13463.2738,-3565.1195L13463.2741,-3565.1202L13463.2755,-3565.1206L13463.2769,-3565.1208L13463.2779,-3565.1215L13463.2777,-3565.1238L13463.2774,-3565.1249L13463.2778,-3565.1267L13463.2781,-3565.1275L13463.2794,-3565.1283L13463.2808,-3565.1283L13463.2818,-3565.1275L13463.2827,-3565.1263L13463.2832,-3565.1252L13463.2857,-3565.1244L13463.2869,-3565.1234L13463.2881,-3565.1229L13463.2895,-3565.1226L13463.2909,-3565.1226L13463.2923,-3565.122L13463.2937,-3565.1219L13463.2958,-3565.1212L13463.2986,-3565.1209L13463.3007,-3565.1203L13463.3019,-3565.1201L13463.3034,-3565.1203L13463.3048,-3565.1207L13463.3062,-3565.1208L13463.309,-3565.1207L13463.3105,-3565.1199L13463.3111,-3565.1194L13463.3126,-3565.1183L13463.3139,-3565.1179L13463.3153,-3565.1178L13463.3169,-3565.1168L13463.3188,-3565.1143L13463.3212,-3565.1123L13463.3235,-3565.1108L13463.3247,-3565.1102L13463.326,-3565.11L13463.3288,-3565.1105L13463.3301,-3565.1105L13463.3303,-3565.1107L13463.3317,-3565.1096L13463.3331,-3565.1093L13463.3333,-3565.1093L13463.3387,-3565.1094L13463.3415,-3565.1087L13463.3429,-3565.1086L13463.3442,-3565.1088L13463.3468,-3565.1094L13463.3496,-3565.1088L13463.3501,-3565.1084L13463.3512,-3565.1084L13463.3526,-3565.1091L13463.354,-3565.1091L13463.3554,-3565.1094L13463.3568,-3565.1094L13463.3582,-3565.109L13463.3596,-3565.1082L13463.361,-3565.1078L13463.3624,-3565.1078L13463.3638,-3565.1085L13463.364,-3565.1094L13463.3627,-3565.1098L13463.3619,-3565.1105L13463.3605,-3565.1114L13463.3602,-3565.1125L13463.3574,-3565.113L13463.3554,-3565.1143L13463.3553,-3565.1149L13463.3555,-3565.1159L13463.3559,-3565.1167L13463.3389,-3565.128L13463.6939,-3565.5011L13463.7198,-3565.5582L13463.7408,-3565.5529L13463.7451,-3565.5518L13463.7451,-3565.5185L13463.7383,-3565.5005L13463.7427,-3565.4995L13463.7344,-3565.4795L13463.4247,-3565.1634L13463.4182,-3565.1672L13463.3878,-3565.1362L13463.3889,-3565.1332L13463.389,-3565.1279L13463.3864,-3565.1278L13463.3865,-3565.1171L13463.3872,-3565.1168L13463.3899,-3565.1147L13463.391,-3565.1143L13463.3922,-3565.1145L13463.3933,-3565.1143L13463.3933,-3565.1144L13463.3945,-3565.114L13463.3972,-3565.1124L13463.4,-3565.1118L13463.4027,-3565.1103L13463.4041,-3565.1103L13463.4055,-3565.11L13463.4067,-3565.109L13463.4078,-3565.1078L13463.4085,-3565.1067L13463.4098,-3565.1064L13463.4123,-3565.1048L13463.413,-3565.104L13463.4136,-3565.1028L13463.4148,-3565.1022L13463.4162,-3565.1021L13463.4172,-3565.1012L13463.4176,-3565.1001L13463.4176,-3565.0994L13463.4178,-3565.0978L13463.4181,-3565.0971L13463.4186,-3565.0961L13463.4204,-3565.0964L13463.4216,-3565.0969L13463.423,-3565.0971L13463.4244,-3565.0969L13463.4258,-3565.0964L13463.4267,-3565.0959L13463.4287,-3565.0962L13463.4332,-3565.0943L13463.4347,-3565.093L13463.4365,-3565.091L13463.4393,-3565.0914L13463.4421,-3565.0906L13463.4435,-3565.0906L13463.4449,-3565.0907L13463.4463,-3565.0911L13463.4477,-3565.091L13463.4519,-3565.0897L13463.4533,-3565.0888L13463.4545,-3565.0878L13463.4552,-3565.0867L13463.4552,-3565.0855L13463.4564,-3565.085L13463.4577,-3565.0838L13463.4595,-3565.0817L13463.4608,-3565.0812L13463.4622,-3565.0804L13463.4631,-3565.0795L13463.4638,-3565.0784L13463.4641,-3565.0772L13463.4638,-3565.0761L13463.4646,-3565.0738L13463.4655,-3565.0726L13463.4667,-3565.0716L13463.4672,-3565.0704L13463.4673,-3565.0681L13463.4679,-3565.067L13463.4703,-3565.0652L13463.4706,-3565.0635L13463.7451,-3565.0635Z"/>
<path content="兵庫県,,美方郡,香美町,,28585" xlink:title="兵庫県" d="M13463.6392,-3566.0864L13463.6401,-3566.0859L13463.6412,-3566.0863L13463.6427,-3566.0863L13463.6451,-3566.0852L13463.6462,-3566.085L13463.6505,-3566.0846L13463.6533,-3566.0839L13463.6547,-3566.0839L13463.6561,-3566.0837L13463.6589,-3566.0835L13463.6603,-3566.0829L13463.6617,-3566.0829L13463.6632,-3566.0821L13463.6655,-3566.0792L13463.665,-3566.0786L13463.6643,-3566.0779L13463.6659,-3566.0773L13463.6671,-3566.0776L13463.6686,-3566.0776L13463.6709,-3566.0767L13463.6723,-3566.077L13463.6737,-3566.0767L13463.6751,-3566.0759L13463.6771,-3566.0741L13463.6783,-3566.0736L13463.6796,-3566.0714L13463.6799,-3566.0703L13463.6809,-3566.0694L13463.6817,-3566.0683L13463.6828,-3566.0656L13463.6839,-3566.0653L13463.6846,-3566.0641L13463.6848,-3566.063L13463.6874,-3566.06L13463.6879,-3566.0588L13463.688,-3566.0577L13463.6872,-3566.0571L13463.6875,-3566.0566L13463.6887,-3566.0562L13463.6888,-3566.0557L13463.6877,-3566.0534L13463.6844,-3566.0509L13463.6815,-3566.0502L13463.6792,-3566.0489L13463.6778,-3566.0485L13463.6756,-3566.0468L13463.6743,-3566.0462L13463.6716,-3566.0447L13463.6701,-3566.0443L13463.6689,-3566.0433L13463.6675,-3566.0426L13463.6662,-3566.0423L13463.6654,-3566.0418L13463.6628,-3566.0399L13463.6622,-3566.039L13463.6629,-3566.0383L13463.6643,-3566.0383L13463.6655,-3566.0378L13463.6669,-3566.0381L13463.6684,-3566.0381L13463.6697,-3566.0384L13463.6708,-3566.038L13463.6735,-3566.0386L13463.6745,-3566.0385L13463.6759,-3566.0391L13463.68,-3566.0395L13463.6814,-3566.0399L13463.6833,-3566.0401L13463.6842,-3566.0404L13463.6865,-3566.0401L13463.6878,-3566.0408L13463.6892,-3566.0411L13463.6916,-3566.0409L13463.6944,-3566.0416L13463.6957,-3566.0416L13463.6972,-3566.0421L13463.6999,-3566.0427L13463.7026,-3566.0435L13463.7032,-3566.0443L13463.7037,-3566.0445L13463.7041,-3566.0446L13463.706,-3566.045L13463.7063,-3566.0455L13463.7072,-3566.0462L13463.7078,-3566.0467L13463.7088,-3566.0471L13463.7097,-3566.0473L13463.7103,-3566.048L13463.7108,-3566.0485L13463.7114,-3566.0489L13463.712,-3566.049L13463.7124,-3566.049L13463.7133,-3566.0495L13463.7143,-3566.0498L13463.7156,-3566.0498L13463.7162,-3566.0497L13463.7168,-3566.0496L13463.718,-3566.0492L13463.7238,-3566.0485L13463.7252,-3566.0475L13463.7271,-3566.0471L13463.7294,-3566.0453L13463.7308,-3566.0458L13463.7338,-3566.0463L13463.7343,-3566.047L13463.7357,-3566.0475L13463.7372,-3566.0478L13463.7399,-3566.0486L13463.7413,-3566.0487L13463.7441,-3566.0484L13463.7451,-3566.0484L13463.7451,-3566.029L13463.7429,-3566.0271L13463.74,-3566.0263L13463.7386,-3566.0258L13463.7364,-3566.0241L13463.7362,-3566.0232L13463.7367,-3566.0218L13463.7368,-3566.0208L13463.738,-3566.0201L13463.74,-3566.018L13463.7404,-3566.0171L13463.7424,-3566.0152L13463.7431,-3566.0139L13463.7442,-3566.013L13463.7451,-3566.0125L13463.7451,-3565.8395L13463.7442,-3565.8398L13463.7432,-3565.8403L13463.7423,-3565.8415L13463.7422,-3565.8425L13463.7433,-3565.8448L13463.7437,-3565.8459L13463.7434,-3565.847L13463.7435,-3565.848L13463.7442,-3565.849L13463.7446,-3565.8502L13463.7443,-3565.8513L13463.7445,-3565.8536L13463.745,-3565.8548L13463.7451,-3565.8558L13463.7451,-3565.8646L13463.7443,-3565.8644L13463.7429,-3565.8642L13463.7417,-3565.8638L13463.7401,-3565.8639L13463.7389,-3565.8635L13463.7346,-3565.8631L13463.7341,-3565.8638L13463.733,-3565.8628L13463.7311,-3565.864L13463.7297,-3565.8655L13463.7283,-3565.866L13463.7269,-3565.8668L13463.7249,-3565.8695L13463.7235,-3565.8708L13463.7214,-3565.8725L13463.7207,-3565.8737L13463.7196,-3565.8746L13463.7184,-3565.8752L13463.717,-3565.8753L13463.7156,-3565.8752L13463.7128,-3565.8743L13463.7097,-3565.8727L13463.7077,-3565.8708L13463.7056,-3565.8695L13463.7042,-3565.8692L13463.7028,-3565.8693L13463.7014,-3565.8699L13463.7001,-3565.8698L13463.6973,-3565.8703L13463.6946,-3565.8713L13463.6932,-3565.8716L13463.6904,-3565.872L13463.6862,-3565.8736L13463.6835,-3565.8741L13463.6821,-3565.8748L13463.6805,-3565.8748L13463.6791,-3565.8754L13463.6779,-3565.8764L13463.6765,-3565.8763L13463.6751,-3565.8768L13463.6737,-3565.8781L13463.6723,-3565.8777L13463.6709,-3565.8787L13463.6695,-3565.8789L13463.6686,-3565.8801L13463.6657,-3565.8819L13463.6646,-3565.883L13463.6632,-3565.8835L13463.6618,-3565.8842L13463.6607,-3565.8853L13463.6579,-3565.8866L13463.6544,-3565.8888L13463.653,-3565.8906L13463.6511,-3565.8919L13463.65,-3565.8921L13463.647,-3565.8914L13463.6429,-3565.8898L13463.6413,-3565.8897L13463.6402,-3565.8889L13463.6387,-3565.8882L13463.6374,-3565.8874L13463.6364,-3565.8862L13463.635,-3565.8855L13463.6337,-3565.8845L13463.6299,-3565.8825L13463.6285,-3565.882L13463.6271,-3565.8817L13463.6258,-3565.8817L13463.6246,-3565.8821L13463.6211,-3565.8842L13463.6211,-3565.8844L13463.6197,-3565.8851L13463.6187,-3565.8863L13463.6182,-3565.8874L13463.6189,-3565.8896L13463.6201,-3565.8917L13463.6196,-3565.8929L13463.6197,-3565.894L13463.621,-3565.8963L13463.6219,-3565.8973L13463.622,-3565.8983L13463.6219,-3565.8994L13463.6221,-3565.9006L13463.623,-3565.9017L13463.6235,-3565.9039L13463.6247,-3565.9058L13463.6242,-3565.9069L13463.6233,-3565.908L13463.6219,-3565.9082L13463.6207,-3565.9087L13463.6195,-3565.9097L13463.6189,-3565.9109L13463.6182,-3565.9118L13463.6174,-3565.9125L13463.6167,-3565.9135L13463.6154,-3565.9141L13463.613,-3565.9175L13463.6137,-3565.9173L13463.6079,-3565.9202L13463.6061,-3565.922L13463.6053,-3565.9229L13463.6042,-3565.9251L13463.6028,-3565.9273L13463.6022,-3565.9296L13463.6009,-3565.9319L13463.6001,-3565.9331L13463.5987,-3565.9336L13463.5973,-3565.9336L13463.5955,-3565.9331L13463.5943,-3565.9323L13463.5929,-3565.9317L13463.5903,-3565.9298L13463.5883,-3565.9289L13463.588,-3565.9277L13463.5869,-3565.9267L13463.5855,-3565.9263L13463.5843,-3565.9256L13463.5837,-3565.9246L13463.5823,-3565.9234L13463.5816,-3565.9223L13463.5802,-3565.9213L13463.5797,-3565.9202L13463.5799,-3565.919L13463.5795,-3565.9176L13463.5807,-3565.9164L13463.5811,-3565.9153L13463.5816,-3565.9143L13463.5821,-3565.9118L13463.5827,-3565.911L13463.5832,-3565.9087L13463.5826,-3565.9077L13463.5816,-3565.9066L13463.5802,-3565.906L13463.5789,-3565.9051L13463.5737,-3565.9046L13463.5709,-3565.9048L13463.5682,-3565.9048L13463.5668,-3565.9044L13463.564,-3565.9043L13463.5625,-3565.9046L13463.5612,-3565.9045L13463.5598,-3565.9045L13463.5584,-3565.9049L13463.557,-3565.905L13463.5547,-3565.907L13463.5542,-3565.9079L13463.5548,-3565.9091L13463.5556,-3565.9101L13463.5569,-3565.9108L13463.5577,-3565.9118L13463.5581,-3565.9128L13463.5586,-3565.9133L13463.5608,-3565.9196L13463.5615,-3565.9202L13463.5622,-3565.9201L13463.5625,-3565.9208L13463.5623,-3565.9218L13463.5625,-3565.9225L13463.5632,-3565.9232L13463.5634,-3565.9241L13463.5639,-3565.9252L13463.5641,-3565.9263L13463.5639,-3565.9275L13463.5644,-3565.9286L13463.5646,-3565.9308L13463.5648,-3565.9319L13463.5657,-3565.9328L13463.5669,-3565.9334L13463.5684,-3565.9351L13463.5696,-3565.9359L13463.5707,-3565.9364L13463.5718,-3565.9377L13463.5729,-3565.9386L13463.5736,-3565.9398L13463.5746,-3565.9405L13463.5753,-3565.9425L13463.5739,-3565.9451L13463.5728,-3565.9459L13463.5717,-3565.9471L13463.5709,-3565.9476L13463.5705,-3565.9486L13463.5706,-3565.9507L13463.5702,-3565.9519L13463.5692,-3565.9562L13463.5705,-3565.9585L13463.57,-3565.9618L13463.5703,-3565.9629L13463.5712,-3565.9652L13463.571,-3565.9697L13463.5699,-3565.9719L13463.5699,-3565.9731L13463.5701,-3565.9733L13463.5693,-3565.9741L13463.568,-3565.9743L13463.5665,-3565.9757L13463.5633,-3565.9786L13463.5631,-3565.9797L13463.5634,-3565.9806L13463.5629,-3565.9816L13463.562,-3565.9824L13463.5621,-3565.9834L13463.5623,-3565.9841L13463.5621,-3565.9849L13463.5617,-3565.9857L13463.5619,-3565.9857L13463.5612,-3565.9867L13463.5612,-3565.9877L13463.5605,-3565.9887L13463.5604,-3565.9899L13463.5605,-3565.9922L13463.5602,-3565.993L13463.5602,-3565.9942L13463.561,-3565.9952L13463.5623,-3565.9955L13463.5637,-3565.9963L13463.5679,-3565.9972L13463.5705,-3565.9984L13463.5716,-3565.9992L13463.5719,-3565.9997L13463.5714,-3566.0006L13463.5727,-3566.0016L13463.5755,-3566.0023L13463.5767,-3566.003L13463.5779,-3566.004L13463.5793,-3566.0049L13463.5801,-3566.0051L13463.5818,-3566.0064L13463.5829,-3566.0071L13463.5845,-3566.0089L13463.5846,-3566.01L13463.5853,-3566.0114L13463.5848,-3566.0123L13463.5853,-3566.0134L13463.5866,-3566.0153L13463.5868,-3566.0163L13463.5882,-3566.0181L13463.59,-3566.0198L13463.5909,-3566.0206L13463.5922,-3566.0211L13463.5931,-3566.0219L13463.5958,-3566.0236L13463.5975,-3566.0257L13463.5971,-3566.0281L13463.5975,-3566.0293L13463.5981,-3566.0301L13463.5994,-3566.0338L13463.6,-3566.0346L13463.601,-3566.0369L13463.6012,-3566.0392L13463.6026,-3566.0411L13463.6031,-3566.0421L13463.6045,-3566.0433L13463.6044,-3566.0443L13463.6052,-3566.0454L13463.6058,-3566.0466L13463.607,-3566.0484L13463.6082,-3566.0487L13463.6096,-3566.0486L13463.6107,-3566.0483L13463.6121,-3566.0483L13463.6135,-3566.048L13463.6151,-3566.048L13463.6165,-3566.0487L13463.6181,-3566.0493L13463.6193,-3566.0501L13463.6205,-3566.0505L13463.621,-3566.0513L13463.6215,-3566.0535L13463.6219,-3566.0545L13463.6219,-3566.0553L13463.6213,-3566.0556L13463.6205,-3566.0561L13463.62,-3566.0566L13463.6199,-3566.057L13463.62,-3566.0575L13463.6182,-3566.0575L13463.6162,-3566.058L13463.6144,-3566.0591L13463.6137,-3566.0598L13463.6135,-3566.0608L13463.6126,-3566.0608L13463.611,-3566.0618L13463.61,-3566.0628L13463.61,-3566.064L13463.6109,-3566.0662L13463.6101,-3566.0676L13463.6111,-3566.0698L13463.6108,-3566.0709L13463.6146,-3566.0729L13463.6159,-3566.0739L13463.6171,-3566.074L13463.6197,-3566.0764L13463.6211,-3566.0767L13463.6213,-3566.0774L13463.6216,-3566.0779L13463.6219,-3566.0782L13463.6222,-3566.0785L13463.6225,-3566.0786L13463.6229,-3566.0788L13463.6241,-3566.079L13463.6253,-3566.079L13463.6256,-3566.0791L13463.6262,-3566.0795L13463.6268,-3566.0796L13463.6282,-3566.0796L13463.6302,-3566.0801L13463.6308,-3566.0807L13463.6332,-3566.0816L13463.6333,-3566.0827L13463.634,-3566.0837L13463.6354,-3566.0838L13463.6355,-3566.0849L13463.6354,-3566.086L13463.6364,-3566.0866L13463.6392,-3566.0864Z"/>
<path content="兵庫県,,美方郡,香美町,,28585" xlink:title="兵庫県" d="M13463.0134,-3565.0892L13463.0147,-3565.0891L13463.0161,-3565.0893L13463.0173,-3565.0891L13463.0187,-3565.0883L13463.0201,-3565.088L13463.0215,-3565.0883L13463.0229,-3565.0882L13463.0254,-3565.087L13463.0263,-3565.0867L13463.0272,-3565.0868L13463.0288,-3565.0872L13463.0298,-3565.0875L13463.0311,-3565.0871L13463.0314,-3565.0865L13463.0327,-3565.0861L13463.0336,-3565.0853L13463.0348,-3565.0846L13463.0372,-3565.0827L13463.0386,-3565.0829L13463.0414,-3565.0826L13463.0427,-3565.0833L13463.0431,-3565.0844L13463.0432,-3565.0846L13463.0434,-3565.0851L13463.0437,-3565.0857L13463.0445,-3565.0861L13463.0452,-3565.0864L13463.0462,-3565.0856L13463.0474,-3565.085L13463.0488,-3565.0853L13463.0502,-3565.0849L13463.0516,-3565.085L13463.053,-3565.0845L13463.0551,-3565.0825L13463.0565,-3565.0827L13463.0593,-3565.0818L13463.0617,-3565.0816L13463.0639,-3565.0796L13463.0651,-3565.0796L13463.0665,-3565.0793L13463.069,-3565.0781L13463.0704,-3565.0778L13463.0718,-3565.0782L13463.0732,-3565.0782L13463.0746,-3565.0779L13463.0758,-3565.0772L13463.0769,-3565.076L13463.0783,-3565.0758L13463.0811,-3565.0765L13463.0825,-3565.0763L13463.0839,-3565.0756L13463.0863,-3565.0737L13463.0872,-3565.0726L13463.0876,-3565.0715L13463.0867,-3565.0693L13463.0875,-3565.0683L13463.0873,-3565.066L13463.0868,-3565.0654L13463.087,-3565.0644L13463.088,-3565.0641L13463.0894,-3565.0643L13463.0904,-3565.0635L13462.9938,-3565.0635L13462.9944,-3565.0645L13462.9944,-3565.067L13462.9958,-3565.0684L13462.9964,-3565.0694L13462.9971,-3565.0716L13462.9958,-3565.0724L13462.9944,-3565.0727L13462.9934,-3565.0734L13462.9934,-3565.0745L13462.9939,-3565.0757L13462.995,-3565.0768L13462.9964,-3565.0778L13462.9973,-3565.0788L13462.9973,-3565.0811L13462.9983,-3565.0821L13462.9998,-3565.0844L13463.0012,-3565.0851L13463.0006,-3565.0857L13463.0013,-3565.0868L13463.0026,-3565.0881L13463.0082,-3565.0893L13463.0107,-3565.09L13463.012,-3565.0898L13463.0134,-3565.0892Z"/>
<path content="兵庫県,,美方郡,香美町,,28585" xlink:title="兵庫県" d="M13463.5798,-3566.0495L13463.577,-3566.0493L13463.576,-3566.0498L13463.5749,-3566.0519L13463.5752,-3566.054L13463.5747,-3566.0558L13463.5751,-3566.057L13463.5751,-3566.0581L13463.5741,-3566.0589L13463.5735,-3566.0622L13463.5741,-3566.063L13463.5744,-3566.065L13463.5747,-3566.0661L13463.5766,-3566.0708L13463.578,-3566.0724L13463.5792,-3566.0731L13463.5806,-3566.0734L13463.5818,-3566.0731L13463.5829,-3566.0714L13463.5829,-3566.0696L13463.5838,-3566.0692L13463.5845,-3566.0682L13463.5852,-3566.0666L13463.5851,-3566.0644L13463.5846,-3566.0632L13463.5839,-3566.0621L13463.5836,-3566.0609L13463.5839,-3566.0584L13463.5835,-3566.0582L13463.5837,-3566.0568L13463.5827,-3566.0546L13463.5818,-3566.0535L13463.5816,-3566.0525L13463.5811,-3566.0514L13463.5809,-3566.0504L13463.5798,-3566.0495Z"/>
<path content="兵庫県,,美方郡,香美町,,28585" xlink:title="兵庫県" d="M13463.6289,-3566.1361L13463.6248,-3566.1361L13463.6214,-3566.1394L13463.6186,-3566.1456L13463.6186,-3566.153L13463.6221,-3566.1558L13463.6248,-3566.1552L13463.6289,-3566.1518L13463.6296,-3566.1473L13463.631,-3566.1394L13463.6303,-3566.1372L13463.6289,-3566.1361Z"/>
<path content="兵庫県,,美方郡,香美町,,28585" xlink:title="兵庫県" d="M13463.5393,-3566.0335L13463.5351,-3566.0335L13463.5317,-3566.0369L13463.531,-3566.0408L13463.5372,-3566.0498L13463.5421,-3566.047L13463.5427,-3566.038L13463.5414,-3566.0352L13463.5393,-3566.0335Z"/>
<path content="兵庫県,,美方郡,香美町,,28585" xlink:title="兵庫県" d="M13463.6793,-3566.0949L13463.6752,-3566.0927L13463.6704,-3566.0938L13463.6648,-3566.0989L13463.6628,-3566.1017L13463.6641,-3566.1045L13463.6683,-3566.1045L13463.6766,-3566.1L13463.6793,-3566.0978L13463.6793,-3566.0949Z"/>
<path content="兵庫県,,美方郡,香美町,,28585" xlink:title="兵庫県" d="M13463.571,-3566.0575L13463.5706,-3566.053L13463.5711,-3566.0521L13463.5712,-3566.0513L13463.5716,-3566.0502L13463.5711,-3566.049L13463.5701,-3566.05L13463.57,-3566.0511L13463.5691,-3566.0515L13463.5687,-3566.0521L13463.5678,-3566.0526L13463.5677,-3566.0531L13463.5676,-3566.0535L13463.5666,-3566.0537L13463.5659,-3566.054L13463.565,-3566.0546L13463.5644,-3566.0556L13463.5643,-3566.0562L13463.5637,-3566.0561L13463.5628,-3566.0566L13463.562,-3566.0576L13463.5618,-3566.0587L13463.5608,-3566.0599L13463.5608,-3566.061L13463.5611,-3566.0621L13463.5625,-3566.0627L13463.5634,-3566.0637L13463.5648,-3566.0644L13463.5669,-3566.0662L13463.5693,-3566.0675L13463.5704,-3566.0677L13463.5711,-3566.0668L13463.5715,-3566.0657L13463.5715,-3566.0646L13463.5711,-3566.0634L13463.5713,-3566.0623L13463.5711,-3566.0611L13463.5704,-3566.06L13463.5704,-3566.0588L13463.571,-3566.0575Z"/>
<path content="兵庫県,,美方郡,香美町,,28585" xlink:title="兵庫県" d="M13463.717,-3566.1L13463.7182,-3566.0997L13463.7196,-3566.0999L13463.721,-3566.0997L13463.7225,-3566.0998L13463.7252,-3566.0998L13463.7266,-3566.1001L13463.728,-3566.0999L13463.7291,-3566.0994L13463.7292,-3566.0984L13463.7292,-3566.0972L13463.7283,-3566.0966L13463.7276,-3566.0958L13463.7264,-3566.0954L13463.7237,-3566.0956L13463.7233,-3566.0951L13463.7204,-3566.0947L13463.7188,-3566.0952L13463.7153,-3566.0945L13463.7134,-3566.0947L13463.7122,-3566.0941L13463.7108,-3566.0938L13463.7101,-3566.094L13463.7075,-3566.098L13463.7075,-3566.0991L13463.7078,-3566.1003L13463.7091,-3566.1005L13463.7106,-3566.1013L13463.7134,-3566.1012L13463.714,-3566.1005L13463.7157,-3566.1005L13463.717,-3566.1Z"/>
<path content="兵庫県,,美方郡,香美町,,28585" xlink:title="兵庫県" d="M13463.5531,-3565.9495L13463.5489,-3565.9495L13463.5462,-3565.9512L13463.5455,-3565.9535L13463.5469,-3565.9546L13463.5496,-3565.9586L13463.5524,-3565.9591L13463.56,-3565.9586L13463.5614,-3565.9569L13463.5607,-3565.9546L13463.5531,-3565.9495Z"/>
<path content="兵庫県,,美方郡,香美町,,28585" xlink:title="兵庫県" d="M13463.6552,-3566.1299L13463.6524,-3566.1299L13463.6462,-3566.1338L13463.6448,-3566.1355L13463.6455,-3566.1417L13463.6497,-3566.1411L13463.6559,-3566.1366L13463.6579,-3566.1327L13463.6573,-3566.131L13463.6552,-3566.1299Z"/>
<path content="兵庫県,,美方郡,香美町,,28585" xlink:title="兵庫県" d="M13463.5672,-3565.4652L13463.5659,-3565.4651L13463.5643,-3565.4652L13463.5634,-3565.4654L13463.5622,-3565.466L13463.5615,-3565.4667L13463.5608,-3565.4679L13463.5605,-3565.4698L13463.5609,-3565.4707L13463.5615,-3565.4717L13463.5626,-3565.4725L13463.5637,-3565.4731L13463.5647,-3565.4734L13463.5661,-3565.4734L13463.5675,-3565.4733L13463.5684,-3565.4729L13463.5694,-3565.4722L13463.5699,-3565.4716L13463.5705,-3565.4708L13463.5707,-3565.4701L13463.5706,-3565.4682L13463.5704,-3565.4674L13463.5698,-3565.4666L13463.5689,-3565.4658L13463.5679,-3565.4654L13463.5672,-3565.4652Z"/>
<path content="兵庫県,,美方郡,香美町,,28585" xlink:title="兵庫県" d="M13462.8032,-3565.072L13462.7977,-3565.072L13462.7935,-3565.0732L13462.7928,-3565.0754L13462.7997,-3565.0788L13462.8059,-3565.0771L13462.8066,-3565.0754L13462.8032,-3565.072Z"/>
<path content="兵庫県,,美方郡,香美町,,28585" xlink:title="兵庫県" d="M13463.5607,-3565.9421L13463.5621,-3565.9417L13463.5635,-3565.9415L13463.5645,-3565.9407L13463.5649,-3565.9396L13463.5635,-3565.9371L13463.5622,-3565.9367L13463.5615,-3565.9354L13463.5593,-3565.9343L13463.5577,-3565.9339L13463.5571,-3565.9344L13463.5575,-3565.9355L13463.5585,-3565.9364L13463.5578,-3565.9371L13463.5567,-3565.9377L13463.5568,-3565.94L13463.5572,-3565.9411L13463.558,-3565.942L13463.5593,-3565.9418L13463.5607,-3565.9421Z"/>
<path content="兵庫県,,美方郡,香美町,,28585" xlink:title="兵庫県" d="M13463.7076,-3566.0874L13463.7089,-3566.0869L13463.7095,-3566.0828L13463.7088,-3566.0819L13463.7078,-3566.0817L13463.7067,-3566.0825L13463.704,-3566.083L13463.7037,-3566.0835L13463.7029,-3566.0834L13463.7024,-3566.0835L13463.7013,-3566.0839L13463.7013,-3566.0844L13463.6988,-3566.0845L13463.6981,-3566.0853L13463.6992,-3566.0861L13463.7004,-3566.0867L13463.7029,-3566.0867L13463.7043,-3566.0868L13463.7055,-3566.0872L13463.7064,-3566.0871L13463.7076,-3566.0874Z"/>
<path content="兵庫県,,美方郡,香美町,,28585" xlink:title="兵庫県" d="M13463.6186,-3566.1072L13463.6197,-3566.1068L13463.6209,-3566.1074L13463.6223,-3566.1075L13463.623,-3566.1063L13463.6225,-3566.1059L13463.6219,-3566.1027L13463.6213,-3566.1022L13463.6188,-3566.1027L13463.6176,-3566.1032L13463.6148,-3566.1036L13463.6141,-3566.1044L13463.6146,-3566.1067L13463.6158,-3566.1077L13463.616,-3566.1085L13463.6174,-3566.1082L13463.6186,-3566.1072Z"/>
<path content="兵庫県,,美方郡,香美町,,28585" xlink:title="兵庫県" d="M13463.6857,-3566.0867L13463.6869,-3566.0862L13463.6873,-3566.0849L13463.6885,-3566.0841L13463.6887,-3566.083L13463.6878,-3566.0821L13463.6866,-3566.0819L13463.6853,-3566.082L13463.6841,-3566.0829L13463.6827,-3566.0827L13463.6813,-3566.0833L13463.6799,-3566.0836L13463.6796,-3566.0846L13463.6787,-3566.0847L13463.6792,-3566.0857L13463.6803,-3566.0866L13463.6817,-3566.087L13463.682,-3566.0867L13463.6844,-3566.0871L13463.6857,-3566.0867Z"/>
<path content="兵庫県,,美方郡,香美町,,28585" xlink:title="兵庫県" d="M13463.5602,-3566.0172L13463.5619,-3566.0169L13463.5629,-3566.017L13463.5637,-3566.0161L13463.5638,-3566.0146L13463.5655,-3566.0137L13463.5663,-3566.0125L13463.566,-3566.0104L13463.565,-3566.0105L13463.5642,-3566.0106L13463.5623,-3566.0113L13463.5614,-3566.0123L13463.5603,-3566.0137L13463.5605,-3566.0154L13463.5593,-3566.0165L13463.5602,-3566.0172Z"/>
<path content="兵庫県,,美方郡,香美町,,28585" xlink:title="兵庫県" d="M13463.7378,-3566.1025L13463.7387,-3566.102L13463.738,-3566.1009L13463.7378,-3566.0998L13463.7373,-3566.099L13463.7378,-3566.0982L13463.7369,-3566.0975L13463.7362,-3566.0975L13463.7354,-3566.0979L13463.7351,-3566.0981L13463.7348,-3566.0985L13463.7341,-3566.0987L13463.7334,-3566.099L13463.7324,-3566.0995L13463.7319,-3566.1002L13463.7317,-3566.1007L13463.7318,-3566.1014L13463.7323,-3566.1018L13463.7328,-3566.1019L13463.7333,-3566.1019L13463.7342,-3566.1023L13463.7352,-3566.1022L13463.7378,-3566.1025Z"/>
<path content="兵庫県,,美方郡,香美町,,28585" xlink:title="兵庫県" d="M13463.5647,-3565.9671L13463.5638,-3565.9666L13463.563,-3565.9671L13463.5627,-3565.9678L13463.5625,-3565.9685L13463.5632,-3565.9691L13463.5634,-3565.9702L13463.5636,-3565.9709L13463.5641,-3565.9713L13463.5646,-3565.9717L13463.5652,-3565.9719L13463.566,-3565.9715L13463.5668,-3565.9712L13463.5677,-3565.9709L13463.5683,-3565.9706L13463.5683,-3565.9696L13463.568,-3565.9688L13463.5672,-3565.9681L13463.5663,-3565.9674L13463.5647,-3565.9671Z"/>
<path content="兵庫県,,美方郡,香美町,,28585" xlink:title="兵庫県" d="M13463.6319,-3566.1033L13463.6298,-3566.103L13463.6285,-3566.1031L13463.6277,-3566.1033L13463.6277,-3566.1038L13463.6283,-3566.1046L13463.6294,-3566.1049L13463.6293,-3566.1052L13463.6293,-3566.1053L13463.6295,-3566.1054L13463.6296,-3566.1055L13463.6299,-3566.1056L13463.6302,-3566.1059L13463.631,-3566.1063L13463.6319,-3566.1063L13463.6326,-3566.106L13463.633,-3566.1054L13463.6331,-3566.1048L13463.6331,-3566.1043L13463.6324,-3566.1038L13463.6319,-3566.1033Z"/>
<path content="兵庫県,,美方郡,香美町,,28585" xlink:title="兵庫県" d="M13463.5682,-3566.0398L13463.567,-3566.0391L13463.5658,-3566.0392L13463.5647,-3566.0401L13463.5645,-3566.0412L13463.5647,-3566.0427L13463.566,-3566.0432L13463.5665,-3566.0432L13463.567,-3566.0428L13463.5674,-3566.0417L13463.5684,-3566.0408L13463.5682,-3566.0398Z"/>
<path content="兵庫県,,美方郡,香美町,,28585" xlink:title="兵庫県" d="M13463.5602,-3566.047L13463.5597,-3566.047L13463.5583,-3566.0476L13463.5576,-3566.0487L13463.5579,-3566.0498L13463.5588,-3566.0508L13463.5602,-3566.0511L13463.5605,-3566.0503L13463.5607,-3566.0491L13463.5609,-3566.0485L13463.561,-3566.0471L13463.5602,-3566.047Z"/>
<path content="兵庫県,,美方郡,香美町,,28585" xlink:title="兵庫県" d="M13463.5619,-3565.9797L13463.5621,-3565.9783L13463.5605,-3565.9783L13463.5591,-3565.9793L13463.5584,-3565.9795L13463.5584,-3565.981L13463.5603,-3565.9811L13463.5616,-3565.9806L13463.5619,-3565.9797Z"/>
</g>
</svg>
