<?xml version="1.0" encoding="UTF-8"?>
<svg  xmlns="http://www.w3.org/2000/svg" xmlns:xlink="http://www.w3.org/1999/xlink" xmlns:go="http://purl.org/svgmap/profile" property="geometry,N03_001,N03_002,N03_003,N03_004,N03_005,N03_007" viewBox="13597.7783203125 -3368.408203125 1.0986328125 1.0986328125" go:dataArea="13597.7783203125 -3368.408203125 1.0986328125 1.0986328125" >
<metadata>
 <rdf:RDF xmlns:rdf="http://www.w3.org/1999/02/22-rdf-syntax-ns#" xmlns:crs="http://opengis.org/xmldtds/transformations.dtd" xmlns:svg="http://www.w3.org/svg" >
  <rdf:Description>
   <crs:CoordinateReferenceSystem rdf:resource="http://purl.org/crs/84" svg:transform="matrix(100.0,0.0,0.0,-100.0,0.0,0.0)" />
  </rdf:Description>
 </rdf:RDF>
</metadata>
<globalCoordinateSystem srsName="http://purl.org/crs/84" transform="matrix(100.0,0.0,0.0,-100.0,0.0,0.0)" />
<defs>
 <g id="p0" >
  <circle cx="0.0" cy="0.0" r="3" stroke="green" stroke-width="2.0" vector-effect="non-scaling-stroke" />
 </g>
</defs>
<g fill="#0000ff" fill-rule="evenodd" opacity="0.5" >
<path content="和歌山県,,,新宮市,,30207" xlink:title="和歌山県" d="M13597.7783,-3368.4082L13598.877,-3368.4082L13598.877,-3368.0874L13598.8766,-3368.088L13598.8699,-3368.0998L13598.8576,-3368.1201L13598.8606,-3368.1236L13598.8544,-3368.1337L13598.8251,-3368.1358L13598.8094,-3368.1369L13598.7942,-3368.138L13598.789,-3368.1382L13598.784,-3368.1363L13598.7707,-3368.1316L13598.7542,-3368.1255L13598.7353,-3368.1184L13598.7151,-3368.1109L13598.6997,-3368.1052L13598.6846,-3368.0997L13598.6767,-3368.0967L13598.6569,-3368.0894L13598.6359,-3368.0815L13598.6191,-3368.0751L13598.596,-3368.0663L13598.5828,-3368.0609L13598.58,-3368.0666L13598.5843,-3368.0682L13598.5855,-3368.066L13598.5948,-3368.0695L13598.6093,-3368.0751L13598.6237,-3368.0805L13598.6384,-3368.0861L13598.6598,-3368.094L13598.6778,-3368.1006L13598.6903,-3368.1053L13598.7043,-3368.1105L13598.7181,-3368.1158L13598.7302,-3368.1203L13598.7473,-3368.1265L13598.7606,-3368.1315L13598.7724,-3368.1358L13598.7724,-3368.1365L13598.7723,-3368.1371L13598.7724,-3368.1377L13598.7727,-3368.1382L13598.7733,-3368.1385L13598.7739,-3368.1387L13598.7749,-3368.1388L13598.7768,-3368.1391L13598.7776,-3368.1388L13598.7786,-3368.1382L13598.787,-3368.1412L13598.7868,-3368.1417L13598.7865,-3368.1426L13598.7861,-3368.1439L13598.7853,-3368.1451L13598.7839,-3368.1463L13598.7836,-3368.1467L13598.7829,-3368.1471L13598.7817,-3368.1477L13598.7805,-3368.1485L13598.7803,-3368.1489L13598.7806,-3368.1494L13598.7808,-3368.1501L13598.7812,-3368.1503L13598.7822,-3368.1497L13598.7833,-3368.149L13598.7844,-3368.1486L13598.7849,-3368.1488L13598.7859,-3368.149L13598.7866,-3368.1494L13598.7872,-3368.1499L13598.7869,-3368.1509L13598.7861,-3368.1528L13598.7828,-3368.161L13598.7874,-3368.1626L13598.7805,-3368.178L13598.7741,-3368.192L13598.7674,-3368.2073L13598.7637,-3368.2152L13598.767,-3368.2165L13598.7695,-3368.2113L13598.777,-3368.1946L13598.7845,-3368.1778L13598.7904,-3368.1644L13598.7927,-3368.1647L13598.7956,-3368.158L13598.7962,-3368.1579L13598.7965,-3368.1577L13598.7968,-3368.1574L13598.797,-3368.1568L13598.7971,-3368.1564L13598.7975,-3368.1559L13598.7978,-3368.1556L13598.7981,-3368.1552L13598.7979,-3368.1549L13598.7973,-3368.1546L13598.798,-3368.1533L13598.7989,-3368.1531L13598.7997,-3368.1527L13598.8005,-3368.1518L13598.8018,-3368.1505L13598.8035,-3368.1489L13598.804,-3368.148L13598.8043,-3368.1466L13598.8041,-3368.1454L13598.8031,-3368.1445L13598.8024,-3368.144L13598.8028,-3368.1429L13598.8045,-3368.1392L13598.8153,-3368.1383L13598.832,-3368.137L13598.8557,-3368.135L13598.8612,-3368.1262L13598.8705,-3368.1291L13598.877,-3368.1316L13598.877,-3368.4082L13598.7319,-3368.4082L13598.7367,-3368.3838L13598.7458,-3368.3396L13598.7269,-3368.3333L13598.717,-3368.33L13598.7189,-3368.3255L13598.743,-3368.2711L13598.7399,-3368.27L13598.7241,-3368.3047L13598.7118,-3368.3332L13598.7117,-3368.3333L13598.6968,-3368.3658L13598.6669,-3368.3566L13598.6273,-3368.3451L13598.5889,-3368.3333L13598.5769,-3368.3297L13598.5274,-3368.3151L13598.5223,-3368.3267L13598.5209,-3368.3264L13598.5121,-3368.3244L13598.5192,-3368.3085L13598.5274,-3368.2903L13598.5279,-3368.2905L13598.5349,-3368.2928L13598.555,-3368.249L13598.5695,-3368.2175L13598.5644,-3368.2156L13598.5625,-3368.2148L13598.5713,-3368.1969L13598.591,-3368.1571L13598.5863,-3368.1557L13598.575,-3368.1787L13598.5589,-3368.2102L13598.528,-3368.2007L13598.5006,-3368.1917L13598.4917,-3368.211L13598.4673,-3368.2659L13598.4529,-3368.2964L13598.4413,-3368.3218L13598.4218,-3368.3154L13598.3826,-3368.3026L13598.3333,-3368.2868L13598.3226,-3368.2834L13598.2794,-3368.2693L13598.254,-3368.2608L13598.2551,-3368.2586L13598.2798,-3368.2049L13598.3036,-3368.1543L13598.3129,-3368.1341L13598.3104,-3368.1265L13598.289,-3368.1196L13598.2413,-3368.1044L13598.1889,-3368.088L13598.1422,-3368.073L13598.0902,-3368.056L13598.0443,-3368.0411L13597.9698,-3368.0172L13597.922,-3368.0018L13597.8956,-3367.9936L13597.8946,-3367.9912L13597.8528,-3367.8905L13597.788,-3367.7331L13597.7783,-3367.7098Z"/>
<path content="和歌山県,,,新宮市,,30207" xlink:title="和歌山県" d="M13598.8033,-3367.5L13598.7634,-3367.4368L13598.7256,-3367.3779L13598.7142,-3367.3605L13598.7111,-3367.3096L13598.6881,-3367.3096L13598.689,-3367.3219L13598.6919,-3367.3701L13598.6999,-3367.3817L13598.7234,-3367.4189L13598.7657,-3367.485L13598.7665,-3367.4845L13598.7694,-3367.4889L13598.7706,-3367.4884L13598.7779,-3367.5L13598.796,-3367.5285L13598.8298,-3367.5815L13598.8693,-3367.6433L13598.877,-3367.6553L13598.877,-3367.6157L13598.8522,-3367.5765L13598.8041,-3367.5011L13598.8033,-3367.5Z"/>
<path content="和歌山県,,,新宮市,,30207" xlink:title="和歌山県" d="M13598.877,-3367.9808L13598.8731,-3367.9814L13598.8659,-3367.9856L13598.8613,-3367.9932L13598.8498,-3367.9965L13598.8391,-3368.007L13598.8383,-3368.0119L13598.842,-3368.0157L13598.8504,-3368.0177L13598.8566,-3368.0189L13598.8679,-3368.0161L13598.8726,-3368.012L13598.874,-3368.0081L13598.8767,-3368.0059L13598.877,-3368.0058Z"/>
<path content="和歌山県,,,新宮市,,30207" xlink:title="和歌山県" d="M13598.8404,-3367.9769L13598.8379,-3367.9735L13598.8249,-3367.9738L13598.8193,-3367.9859L13598.8308,-3367.9929L13598.8369,-3367.9917L13598.8403,-3367.9803L13598.8404,-3367.9769Z"/>
<path content="和歌山県,,,新宮市,,30207" xlink:title="和歌山県" d="M13598.8207,-3368.0427L13598.8195,-3368.0404L13598.8161,-3368.0405L13598.8141,-3368.0421L13598.8146,-3368.0437L13598.8178,-3368.0447L13598.8207,-3368.0427Z"/>
<path content="和歌山県,,,新宮市,,30207" xlink:title="和歌山県" d="M13598.8522,-3368.0278L13598.8505,-3368.0269L13598.8474,-3368.0276L13598.8469,-3368.03L13598.8498,-3368.031L13598.8526,-3368.03L13598.8522,-3368.0278Z"/>
</g>
</svg>
