<?xml version="1.0" encoding="UTF-8"?>
<svg  xmlns="http://www.w3.org/2000/svg" xmlns:xlink="http://www.w3.org/1999/xlink" xmlns:go="http://purl.org/svgmap/profile" property="geometry,N03_001,N03_002,N03_003,N03_004,N03_005,N03_007" viewBox="13596.6796875 -3471.6796875 4.39453125 4.39453125" go:dataArea="13596.6796875 -3471.6796875 4.39453125 4.39453125" >
<metadata>
 <rdf:RDF xmlns:rdf="http://www.w3.org/1999/02/22-rdf-syntax-ns#" xmlns:crs="http://opengis.org/xmldtds/transformations.dtd" xmlns:svg="http://www.w3.org/svg" >
  <rdf:Description>
   <crs:CoordinateReferenceSystem rdf:resource="http://purl.org/crs/84" svg:transform="matrix(100.0,0.0,0.0,-100.0,0.0,0.0)" />
  </rdf:Description>
 </rdf:RDF>
</metadata>
<globalCoordinateSystem srsName="http://purl.org/crs/84" transform="matrix(100.0,0.0,0.0,-100.0,0.0,0.0)" />
<defs>
 <g id="p0" >
  <circle cx="0.0" cy="0.0" r="3" stroke="green" stroke-width="2.0" vector-effect="non-scaling-stroke" />
 </g>
</defs>
<g fill="#0000ff" fill-rule="evenodd" opacity="0.5" >
<path content="京都府,,相楽郡,南山城村,,26367" xlink:title="京都府" d="M13601.0742,-3471.6797L13601.0742,-3471.5476L13601.0298,-3471.5766L13600.9893,-3471.6057L13600.9746,-3471.6203L13600.9721,-3471.6227L13600.9529,-3471.6431L13600.944,-3471.655L13600.9371,-3471.6597L13600.9323,-3471.6614L13600.9059,-3471.6645L13600.8844,-3471.6667L13600.8613,-3471.669L13600.8472,-3471.6704L13600.8333,-3471.6709L13600.7914,-3471.6723L13600.7734,-3471.6716L13600.7347,-3471.6668L13600.7244,-3471.6667L13600.7193,-3471.6666L13600.7064,-3471.6664L13600.7026,-3471.6667L13600.6884,-3471.6678L13600.6604,-3471.6761L13600.6448,-3471.6797L13600.4326,-3471.6797L13600.4237,-3471.6674L13600.423,-3471.6667L13600.4174,-3471.661L13600.4057,-3471.6544L13600.3515,-3471.6362L13600.3001,-3471.6065L13600.2609,-3471.5811L13600.254,-3471.575L13600.2497,-3471.5662L13600.2468,-3471.5364L13600.2448,-3471.5129L13600.2365,-3471.4921L13600.2276,-3471.4748L13600.2182,-3471.4637L13600.196,-3471.4456L13600.1764,-3471.4344L13600.145,-3471.4162L13600.0936,-3471.3871L13600.04,-3471.3608L13600.0268,-3471.3535L13600.0176,-3471.3457L13600,-3471.3256L13599.9934,-3471.3182L13599.9851,-3471.3064L13599.9745,-3471.2981L13599.9685,-3471.2955L13599.9571,-3471.2941L13599.9502,-3471.2947L13599.9453,-3471.2955L13599.9258,-3471.3016L13599.9055,-3471.3097L13599.8873,-3471.3203L13599.8314,-3471.3543L13599.8234,-3471.3555L13599.8168,-3471.3555L13599.8111,-3471.3548L13599.8005,-3471.3512L13599.7779,-3471.3413L13599.7533,-3471.3361L13599.7146,-3471.3281L13599.7026,-3471.3273L13599.6826,-3471.331L13599.6705,-3471.3355L13599.6577,-3471.3279L13599.6453,-3471.3173L13599.6303,-3471.3043L13599.6104,-3471.2924L13599.5998,-3471.2875L13599.5799,-3471.2837L13599.5594,-3471.2807L13599.537,-3471.2719L13599.5239,-3471.2688L13599.4934,-3471.2657L13599.4834,-3471.2639L13599.4579,-3471.2557L13599.4305,-3471.2502L13599.3626,-3471.2458L13599.3377,-3471.2433L13599.3184,-3471.2365L13599.2816,-3471.2246L13599.248,-3471.2178L13599.215,-3471.2153L13599.2031,-3471.2157L13599.1988,-3471.2159L13599.1782,-3471.2215L13599.1689,-3471.229L13599.1667,-3471.2319L13599.1595,-3471.2414L13599.1545,-3471.2545L13599.1533,-3471.2663L13599.1576,-3471.2769L13599.1639,-3471.2875L13599.1667,-3471.2908L13599.1707,-3471.2956L13599.1832,-3471.3043L13599.1925,-3471.3136L13599.1968,-3471.3195L13599.2131,-3471.3422L13599.2305,-3471.3647L13599.2365,-3471.3769L13599.2408,-3471.3925L13599.2427,-3471.408L13599.2514,-3471.4317L13599.252,-3471.4429L13599.2452,-3471.4522L13599.2303,-3471.4616L13599.2178,-3471.4616L13599.2016,-3471.4566L13599.1873,-3471.4516L13599.1723,-3471.4479L13599.1667,-3471.4451L13599.1542,-3471.4391L13599.1418,-3471.4292L13599.1274,-3471.413L13599.1131,-3471.3974L13599.0969,-3471.39L13599.0863,-3471.3812L13599.0707,-3471.3781L13599.0577,-3471.38L13599.0458,-3471.3844L13599.0346,-3471.3931L13599.0253,-3471.4037L13599.0172,-3471.4236L13599.0091,-3471.4547L13599.0053,-3471.4684L13598.9866,-3471.4814L13598.958,-3471.4889L13598.9337,-3471.4908L13598.8635,-3471.4877L13598.8479,-3471.4859L13598.8354,-3471.4821L13598.8251,-3471.4806L13598.823,-3471.4803L13598.8087,-3471.4865L13598.7906,-3471.5021L13598.7725,-3471.5133L13598.7513,-3471.5176L13598.7339,-3471.5195L13598.7165,-3471.5139L13598.671,-3471.5133L13598.6404,-3471.5176L13598.6255,-3471.5195L13598.6192,-3471.5271L13598.6162,-3471.5307L13598.613,-3471.5513L13598.6143,-3471.5849L13598.618,-3471.6061L13598.6211,-3471.6267L13598.6193,-3471.6453L13598.6143,-3471.6667L13598.613,-3471.6721L13598.6115,-3471.6797Z"/>
<path content="奈良県,,,奈良市,,29201" xlink:title="奈良県" d="M13596.6797,-3467.2852L13596.6797,-3471.6797L13598.6115,-3471.6797L13598.613,-3471.6721L13598.6143,-3471.6667L13598.6193,-3471.6453L13598.6211,-3471.6267L13598.618,-3471.6061L13598.6143,-3471.5849L13598.613,-3471.5513L13598.6162,-3471.5307L13598.6192,-3471.5271L13598.6255,-3471.5195L13598.6404,-3471.5176L13598.671,-3471.5133L13598.7165,-3471.5139L13598.7339,-3471.5195L13598.7513,-3471.5176L13598.7725,-3471.5133L13598.7906,-3471.5021L13598.8087,-3471.4865L13598.823,-3471.4803L13598.8251,-3471.4806L13598.8354,-3471.4821L13598.8479,-3471.4859L13598.8635,-3471.4877L13598.9337,-3471.4908L13598.958,-3471.4889L13598.9866,-3471.4814L13599.0053,-3471.4684L13599.0091,-3471.4547L13599.0172,-3471.4236L13599.0253,-3471.4037L13599.0346,-3471.3931L13599.0458,-3471.3844L13599.0577,-3471.38L13599.0707,-3471.3781L13599.0863,-3471.3812L13599.0969,-3471.39L13599.1131,-3471.3974L13599.1274,-3471.413L13599.1418,-3471.4292L13599.1542,-3471.4391L13599.1667,-3471.4451L13599.1723,-3471.4479L13599.1873,-3471.4516L13599.2016,-3471.4566L13599.2178,-3471.4616L13599.2303,-3471.4616L13599.2452,-3471.4522L13599.252,-3471.4429L13599.2514,-3471.4317L13599.2427,-3471.408L13599.2408,-3471.3925L13599.2365,-3471.3769L13599.2305,-3471.3647L13599.2131,-3471.3422L13599.1968,-3471.3195L13599.1925,-3471.3136L13599.1832,-3471.3043L13599.1707,-3471.2956L13599.1667,-3471.2908L13599.1639,-3471.2875L13599.1576,-3471.2769L13599.1533,-3471.2663L13599.1545,-3471.2545L13599.1595,-3471.2414L13599.1667,-3471.2319L13599.1689,-3471.229L13599.1782,-3471.2215L13599.1988,-3471.2159L13599.2031,-3471.2157L13599.215,-3471.2153L13599.248,-3471.2178L13599.2816,-3471.2246L13599.3184,-3471.2365L13599.3377,-3471.2433L13599.3626,-3471.2458L13599.4305,-3471.2502L13599.4579,-3471.2557L13599.4834,-3471.2639L13599.4934,-3471.2657L13599.5239,-3471.2688L13599.537,-3471.2719L13599.5594,-3471.2807L13599.5799,-3471.2837L13599.5998,-3471.2875L13599.6104,-3471.2924L13599.6303,-3471.3043L13599.6453,-3471.3173L13599.6577,-3471.3279L13599.6705,-3471.3355L13599.6826,-3471.331L13599.7026,-3471.3273L13599.7146,-3471.3281L13599.7533,-3471.3361L13599.7779,-3471.3413L13599.8005,-3471.3512L13599.8111,-3471.3548L13599.8168,-3471.3555L13599.8234,-3471.3555L13599.8314,-3471.3543L13599.8873,-3471.3203L13599.9055,-3471.3097L13599.9258,-3471.3016L13599.9453,-3471.2955L13599.9502,-3471.2947L13599.9571,-3471.2941L13599.9685,-3471.2955L13599.9745,-3471.2981L13599.9851,-3471.3064L13599.9934,-3471.3182L13600,-3471.3256L13600.0176,-3471.3457L13600.0268,-3471.3535L13600.04,-3471.3608L13600.0936,-3471.3871L13600.145,-3471.4162L13600.1764,-3471.4344L13600.196,-3471.4456L13600.2182,-3471.4637L13600.2276,-3471.4748L13600.2365,-3471.4921L13600.2448,-3471.5129L13600.2468,-3471.5364L13600.2497,-3471.5662L13600.254,-3471.575L13600.2609,-3471.5811L13600.3001,-3471.6065L13600.3515,-3471.6362L13600.4057,-3471.6544L13600.4174,-3471.661L13600.423,-3471.6667L13600.4237,-3471.6674L13600.4326,-3471.6797L13600.6448,-3471.6797L13600.6604,-3471.6761L13600.6884,-3471.6678L13600.7026,-3471.6667L13600.7064,-3471.6664L13600.7193,-3471.6666L13600.7244,-3471.6667L13600.7347,-3471.6668L13600.7734,-3471.6716L13600.7914,-3471.6723L13600.8333,-3471.6709L13600.8472,-3471.6704L13600.8613,-3471.669L13600.8844,-3471.6667L13600.9059,-3471.6645L13600.9323,-3471.6614L13600.9371,-3471.6597L13600.944,-3471.655L13600.9529,-3471.6431L13600.9721,-3471.6227L13600.9746,-3471.6203L13600.9893,-3471.6057L13601.0298,-3471.5766L13601.0742,-3471.5476L13601.0742,-3468.3714L13601.058,-3468.3663L13601.0434,-3468.3947L13600.955,-3468.3623L13600.9621,-3468.3495L13600.9481,-3468.3446L13600.9374,-3468.3397L13600.9344,-3468.3383L13600.9334,-3468.3379L13600.9278,-3468.3357L13600.921,-3468.3362L13600.9176,-3468.3388L13600.9142,-3468.3432L13600.9131,-3468.3474L13600.9103,-3468.3719L13600.9063,-3468.3812L13600.8973,-3468.3958L13600.8908,-3468.4026L13600.8722,-3468.4124L13600.8381,-3468.4238L13600.8333,-3468.4249L13600.8169,-3468.4287L13600.8067,-3468.4301L13600.7927,-3468.4296L13600.7709,-3468.4277L13600.7497,-3468.4213L13600.7311,-3468.4192L13600.6953,-3468.4189L13600.6823,-3468.418L13600.6509,-3468.4096L13600.6168,-3468.3977L13600.6105,-3468.3982L13600.595,-3468.4008L13600.5701,-3468.4073L13600.5527,-3468.4098L13600.5196,-3468.4092L13600.4933,-3468.4059L13600.4826,-3468.4064L13600.4753,-3468.4082L13600.4705,-3468.4122L13600.4366,-3468.4429L13600.4304,-3468.4448L13600.4151,-3468.446L13600.4126,-3468.4453L13600.4114,-3468.4427L13600.4053,-3468.4197L13600.4013,-3468.4113L13600.3914,-3468.4004L13600.3799,-3468.392L13600.3753,-3468.3905L13600.3711,-3468.3892L13600.3669,-3468.3894L13600.3644,-3468.3901L13600.3611,-3468.3926L13600.3601,-3468.3934L13600.3553,-3468.4083L13600.3559,-3468.4209L13600.3618,-3468.4411L13600.3624,-3468.4621L13600.3578,-3468.4793L13600.3528,-3468.4949L13600.3443,-3468.512L13600.3251,-3468.5383L13600.3169,-3468.5462L13600.3056,-3468.5516L13600.2879,-3468.5583L13600.2657,-3468.5631L13600.2511,-3468.564L13600.2381,-3468.5629L13600.2122,-3468.5549L13600.191,-3468.5433L13600.1443,-3468.5177L13600.1395,-3468.5151L13600.1167,-3468.5039L13600.1032,-3468.4981L13600.0913,-3468.4946L13600.0758,-3468.4923L13600.0592,-3468.4916L13600.0195,-3468.4897L13600.0029,-3468.4843L13600,-3468.4827L13599.9874,-3468.4757L13599.9772,-3468.4682L13599.9642,-3468.4442L13599.9597,-3468.4386L13599.9524,-3468.4325L13599.9202,-3468.4176L13599.8911,-3468.4076L13599.8573,-3468.3966L13599.8494,-3468.3955L13599.8443,-3468.3962L13599.8386,-3468.3982L13599.829,-3468.4087L13599.8171,-3468.4311L13599.8112,-3468.4408L13599.8109,-3468.4499L13599.8129,-3468.4639L13599.8131,-3468.4643L13599.8202,-3468.4781L13599.8284,-3468.4915L13599.8304,-3468.4984L13599.8298,-3468.5059L13599.8264,-3468.5126L13599.8199,-3468.5171L13599.8019,-3468.5245L13599.7686,-3468.525L13599.7384,-3468.5208L13599.7147,-3468.5154L13599.7066,-3468.5166L13599.6914,-3468.5186L13599.6912,-3468.5186L13599.681,-3468.5221L13599.6785,-3468.5275L13599.6776,-3468.5345L13599.6817,-3468.5609L13599.6847,-3468.5801L13599.6938,-3468.5957L13599.6962,-3468.6125L13599.6974,-3468.6293L13599.6986,-3468.6479L13599.6967,-3468.6594L13599.6926,-3468.6666L13599.6824,-3468.6768L13599.6745,-3468.681L13599.6577,-3468.6858L13599.6319,-3468.6882L13599.6156,-3468.6864L13599.6048,-3468.6834L13599.5748,-3468.6726L13599.5562,-3468.666L13599.5375,-3468.6569L13599.5237,-3468.6522L13599.5063,-3468.6504L13599.4642,-3468.6396L13599.4432,-3468.6329L13599.4179,-3468.6293L13599.3999,-3468.6245L13599.3765,-3468.6185L13599.3476,-3468.6179L13599.3117,-3468.6186L13599.2467,-3468.6174L13599.2438,-3468.6174L13599.2144,-3468.6162L13599.1789,-3468.6168L13599.1667,-3468.6152L13599.1177,-3468.6088L13599.1002,-3468.6066L13599.0696,-3468.6084L13599.0527,-3468.612L13599.0455,-3468.6132L13599.0347,-3468.6078L13599.0263,-3468.5994L13599.0113,-3468.5807L13599.0041,-3468.5609L13598.9974,-3468.5561L13598.9918,-3468.5501L13598.9903,-3468.5483L13598.9794,-3468.5345L13598.9692,-3468.5231L13598.9554,-3468.5219L13598.9319,-3468.5243L13598.9247,-3468.5285L13598.9193,-3468.5345L13598.9097,-3468.5513L13598.9079,-3468.5586L13598.9091,-3468.5639L13598.9145,-3468.5729L13598.9271,-3468.5898L13598.9478,-3468.6169L13598.956,-3468.6276L13598.9704,-3468.6486L13598.9698,-3468.654L13598.9632,-3468.6606L13598.9488,-3468.672L13598.939,-3468.6832L13598.9326,-3468.6906L13598.9277,-3468.6977L13598.9211,-3468.7074L13598.9187,-3468.7152L13598.9192,-3468.7321L13598.9193,-3468.738L13598.9186,-3468.7763L13598.9162,-3468.8021L13598.9108,-3468.8159L13598.8994,-3468.8405L13598.8862,-3468.8615L13598.8747,-3468.8759L13598.8597,-3468.8934L13598.8597,-3468.8936L13598.8537,-3468.9114L13598.8537,-3468.9222L13598.8471,-3468.9396L13598.8195,-3468.9606L13598.8093,-3468.9678L13598.8057,-3468.9732L13598.8045,-3468.9816L13598.8056,-3468.9965L13598.8062,-3469.0247L13598.8062,-3469.0415L13598.8096,-3469.0572L13598.8104,-3469.0607L13598.8128,-3469.0859L13598.8128,-3469.1051L13598.8056,-3469.1286L13598.7906,-3469.1484L13598.7804,-3469.1586L13598.772,-3469.1667L13598.7611,-3469.1772L13598.7533,-3469.1886L13598.7449,-3469.2018L13598.7304,-3469.2258L13598.7214,-3469.2407L13598.7202,-3469.2539L13598.7184,-3469.2719L13598.7148,-3469.2869L13598.7064,-3469.3037L13598.6967,-3469.3223L13598.6937,-3469.3374L13598.6955,-3469.3452L13598.7003,-3469.3517L13598.7087,-3469.3668L13598.713,-3469.3806L13598.7142,-3469.3926L13598.7142,-3469.4076L13598.7117,-3469.4328L13598.7087,-3469.4562L13598.6991,-3469.4813L13598.6927,-3469.4935L13598.6829,-3469.512L13598.6696,-3469.5396L13598.6696,-3469.5684L13598.6703,-3469.5918L13598.6744,-3469.605L13598.6847,-3469.6242L13598.6907,-3469.6411L13598.6877,-3469.6735L13598.6877,-3469.6885L13598.6859,-3469.7053L13598.6811,-3469.7251L13598.6769,-3469.7437L13598.6743,-3469.7724L13598.6739,-3469.7764L13598.6735,-3469.7931L13598.6727,-3469.8135L13598.6682,-3469.8326L13598.6617,-3469.8513L13598.6547,-3469.8627L13598.6503,-3469.8757L13598.6421,-3469.8932L13598.6307,-3469.9154L13598.6105,-3469.8921L13598.5941,-3469.8788L13598.5793,-3469.8742L13598.5614,-3469.8711L13598.5419,-3469.8671L13598.5224,-3469.857L13598.4943,-3469.8391L13598.4826,-3469.8329L13598.4631,-3469.8181L13598.4468,-3469.8041L13598.4374,-3469.7908L13598.4304,-3469.7862L13598.4179,-3469.7838L13598.3784,-3469.7837L13598.3496,-3469.7876L13598.3333,-3469.7849L13598.3216,-3469.783L13598.2982,-3469.7757L13598.2966,-3469.7752L13598.2763,-3469.7744L13598.2576,-3469.7783L13598.2366,-3469.7931L13598.2226,-3469.8079L13598.2147,-3469.8258L13598.182,-3469.885L13598.1703,-3469.9095L13598.1562,-3469.9274L13598.1352,-3469.9484L13598.1243,-3469.9508L13598.1103,-3469.9539L13598.0791,-3469.95L13598.0401,-3469.9437L13598.0315,-3469.9391L13598.0265,-3469.915L13598.0257,-3469.9113L13598.0245,-3469.9056L13598.0183,-3469.8784L13598.0105,-3469.8534L13598.0027,-3469.8285L13597.998,-3469.8067L13597.9959,-3469.7805L13597.9925,-3469.7391L13597.9925,-3469.7142L13597.9957,-3469.6962L13598.0105,-3469.6737L13598.0222,-3469.648L13598.0219,-3469.6363L13598.0214,-3469.6083L13598.0206,-3469.6042L13598.0159,-3469.5795L13598.0073,-3469.5467L13597.9988,-3469.5242L13597.9888,-3469.5035L13597.9886,-3469.5031L13597.9801,-3469.4844L13597.9793,-3469.476L13597.9847,-3469.4628L13597.9957,-3469.4503L13598.0003,-3469.441L13597.9957,-3469.4246L13597.9754,-3469.4005L13597.9551,-3469.3826L13597.9117,-3469.3558L13597.9021,-3469.3499L13597.8889,-3469.3444L13597.8748,-3469.3296L13597.8686,-3469.3187L13597.8709,-3469.2954L13597.8779,-3469.2806L13597.8873,-3469.2603L13597.9053,-3469.2081L13597.9084,-3469.1949L13597.9146,-3469.184L13597.9231,-3469.1667L13597.9288,-3469.1549L13597.9325,-3469.1474L13597.9521,-3469.1164L13597.9536,-3469.1086L13597.9427,-3469.0923L13597.9333,-3469.0845L13597.9232,-3469.0814L13597.9022,-3469.0767L13597.8858,-3469.0705L13597.8663,-3469.0596L13597.8445,-3469.0471L13597.8219,-3469.0331L13597.809,-3469.0283L13597.7951,-3469.0263L13597.7926,-3469.0259L13597.7341,-3469.0158L13597.717,-3469.0072L13597.6921,-3469.0002L13597.6367,-3468.9839L13597.6071,-3468.9761L13597.5937,-3468.9677L13597.5884,-3468.9644L13597.5577,-3468.9547L13597.5315,-3468.9465L13597.5,-3468.9341L13597.4979,-3468.9332L13597.4886,-3468.9262L13597.4637,-3468.913L13597.4487,-3468.9056L13597.4381,-3468.8992L13597.4289,-3468.8955L13597.4187,-3468.8946L13597.4008,-3468.9024L13597.3818,-3468.9058L13597.3808,-3468.906L13597.356,-3468.9L13597.3228,-3468.8876L13597.31,-3468.8821L13597.2966,-3468.8683L13597.2777,-3468.8549L13597.2446,-3468.831L13597.2322,-3468.8223L13597.2147,-3468.8154L13597.1972,-3468.8085L13597.1722,-3468.7982L13597.1487,-3468.7848L13597.1303,-3468.7706L13597.1216,-3468.7591L13597.1101,-3468.7485L13597.0939,-3468.737L13597.0548,-3468.7191L13597.0327,-3468.7053L13597.0263,-3468.6924L13597.0189,-3468.6796L13597.0073,-3468.6549L13596.9972,-3468.6264L13596.9912,-3468.6061L13596.987,-3468.5928L13596.9801,-3468.5735L13596.9727,-3468.5634L13596.9626,-3468.5574L13596.9446,-3468.5517L13596.9285,-3468.5489L13596.9046,-3468.5452L13596.8838,-3468.5471L13596.8627,-3468.5457L13596.847,-3468.5439L13596.8424,-3468.5434L13596.8276,-3468.5439L13596.8143,-3468.549L13596.8023,-3468.5531L13596.7908,-3468.5531L13596.7747,-3468.5541L13596.7535,-3468.5582L13596.7401,-3468.5656L13596.7361,-3468.5701L13596.7236,-3468.5844L13596.7147,-3468.5924L13596.6959,-3468.6053L13596.6821,-3468.6103L13596.6797,-3468.6107L13596.6797,-3467.2852Z"/>
<path content="奈良県,,山辺郡,山添村,,29322" xlink:title="奈良県" d="M13601.0742,-3467.2852L13596.6797,-3467.2852L13596.6797,-3468.6107L13596.6821,-3468.6103L13596.6959,-3468.6053L13596.7147,-3468.5924L13596.7236,-3468.5844L13596.7361,-3468.5701L13596.7401,-3468.5656L13596.7535,-3468.5582L13596.7747,-3468.5541L13596.7908,-3468.5531L13596.8023,-3468.5531L13596.8143,-3468.549L13596.8276,-3468.5439L13596.8424,-3468.5434L13596.847,-3468.5439L13596.8627,-3468.5457L13596.8838,-3468.5471L13596.9046,-3468.5452L13596.9285,-3468.5489L13596.9446,-3468.5517L13596.9626,-3468.5574L13596.9727,-3468.5634L13596.9801,-3468.5735L13596.987,-3468.5928L13596.9912,-3468.6061L13596.9972,-3468.6264L13597.0073,-3468.6549L13597.0189,-3468.6796L13597.0263,-3468.6924L13597.0327,-3468.7053L13597.0548,-3468.7191L13597.0939,-3468.737L13597.1101,-3468.7485L13597.1216,-3468.7591L13597.1303,-3468.7706L13597.1487,-3468.7848L13597.1722,-3468.7982L13597.1972,-3468.8085L13597.2147,-3468.8154L13597.2322,-3468.8223L13597.2446,-3468.831L13597.2777,-3468.8549L13597.2966,-3468.8683L13597.31,-3468.8821L13597.3228,-3468.8876L13597.356,-3468.9L13597.3808,-3468.906L13597.3818,-3468.9058L13597.4008,-3468.9024L13597.4187,-3468.8946L13597.4289,-3468.8955L13597.4381,-3468.8992L13597.4487,-3468.9056L13597.4637,-3468.913L13597.4886,-3468.9262L13597.4979,-3468.9332L13597.5,-3468.9341L13597.5315,-3468.9465L13597.5577,-3468.9547L13597.5884,-3468.9644L13597.5937,-3468.9677L13597.6071,-3468.9761L13597.6367,-3468.9839L13597.6921,-3469.0002L13597.717,-3469.0072L13597.7341,-3469.0158L13597.7926,-3469.0259L13597.7951,-3469.0263L13597.809,-3469.0283L13597.8219,-3469.0331L13597.8445,-3469.0471L13597.8663,-3469.0596L13597.8858,-3469.0705L13597.9022,-3469.0767L13597.9232,-3469.0814L13597.9333,-3469.0845L13597.9427,-3469.0923L13597.9536,-3469.1086L13597.9521,-3469.1164L13597.9325,-3469.1474L13597.9288,-3469.1549L13597.9231,-3469.1667L13597.9146,-3469.184L13597.9084,-3469.1949L13597.9053,-3469.2081L13597.8873,-3469.2603L13597.8779,-3469.2806L13597.8709,-3469.2954L13597.8686,-3469.3187L13597.8748,-3469.3296L13597.8889,-3469.3444L13597.9021,-3469.3499L13597.9117,-3469.3558L13597.9551,-3469.3826L13597.9754,-3469.4005L13597.9957,-3469.4246L13598.0003,-3469.441L13597.9957,-3469.4503L13597.9847,-3469.4628L13597.9793,-3469.476L13597.9801,-3469.4844L13597.9886,-3469.5031L13597.9888,-3469.5035L13597.9988,-3469.5242L13598.0073,-3469.5467L13598.0159,-3469.5795L13598.0206,-3469.6042L13598.0214,-3469.6083L13598.0219,-3469.6363L13598.0222,-3469.648L13598.0105,-3469.6737L13597.9957,-3469.6962L13597.9925,-3469.7142L13597.9925,-3469.7391L13597.9959,-3469.7805L13597.998,-3469.8067L13598.0027,-3469.8285L13598.0105,-3469.8534L13598.0183,-3469.8784L13598.0245,-3469.9056L13598.0257,-3469.9113L13598.0265,-3469.915L13598.0315,-3469.9391L13598.0401,-3469.9437L13598.0791,-3469.95L13598.1103,-3469.9539L13598.1243,-3469.9508L13598.1352,-3469.9484L13598.1562,-3469.9274L13598.1703,-3469.9095L13598.182,-3469.885L13598.2147,-3469.8258L13598.2226,-3469.8079L13598.2366,-3469.7931L13598.2576,-3469.7783L13598.2763,-3469.7744L13598.2966,-3469.7752L13598.2982,-3469.7757L13598.3216,-3469.783L13598.3333,-3469.7849L13598.3496,-3469.7876L13598.3784,-3469.7837L13598.4179,-3469.7838L13598.4304,-3469.7862L13598.4374,-3469.7908L13598.4468,-3469.8041L13598.4631,-3469.8181L13598.4826,-3469.8329L13598.4943,-3469.8391L13598.5224,-3469.857L13598.5419,-3469.8671L13598.5614,-3469.8711L13598.5793,-3469.8742L13598.5941,-3469.8788L13598.6105,-3469.8921L13598.6307,-3469.9154L13598.6421,-3469.8932L13598.6503,-3469.8757L13598.6547,-3469.8627L13598.6617,-3469.8513L13598.6682,-3469.8326L13598.6727,-3469.8135L13598.6735,-3469.7931L13598.6739,-3469.7764L13598.6743,-3469.7724L13598.6769,-3469.7437L13598.6811,-3469.7251L13598.6859,-3469.7053L13598.6877,-3469.6885L13598.6877,-3469.6735L13598.6907,-3469.6411L13598.6847,-3469.6242L13598.6744,-3469.605L13598.6703,-3469.5918L13598.6696,-3469.5684L13598.6696,-3469.5396L13598.6829,-3469.512L13598.6927,-3469.4935L13598.6991,-3469.4813L13598.7087,-3469.4562L13598.7117,-3469.4328L13598.7142,-3469.4076L13598.7142,-3469.3926L13598.713,-3469.3806L13598.7087,-3469.3668L13598.7003,-3469.3517L13598.6955,-3469.3452L13598.6937,-3469.3374L13598.6967,-3469.3223L13598.7064,-3469.3037L13598.7148,-3469.2869L13598.7184,-3469.2719L13598.7202,-3469.2539L13598.7214,-3469.2407L13598.7304,-3469.2258L13598.7449,-3469.2018L13598.7533,-3469.1886L13598.7611,-3469.1772L13598.772,-3469.1667L13598.7804,-3469.1586L13598.7906,-3469.1484L13598.8056,-3469.1286L13598.8128,-3469.1051L13598.8128,-3469.0859L13598.8104,-3469.0607L13598.8096,-3469.0572L13598.8062,-3469.0415L13598.8062,-3469.0247L13598.8056,-3468.9965L13598.8045,-3468.9816L13598.8057,-3468.9732L13598.8093,-3468.9678L13598.8195,-3468.9606L13598.8471,-3468.9396L13598.8537,-3468.9222L13598.8537,-3468.9114L13598.8597,-3468.8936L13598.8597,-3468.8934L13598.8747,-3468.8759L13598.8862,-3468.8615L13598.8994,-3468.8405L13598.9108,-3468.8159L13598.9162,-3468.8021L13598.9186,-3468.7763L13598.9193,-3468.738L13598.9192,-3468.7321L13598.9187,-3468.7152L13598.9211,-3468.7074L13598.9277,-3468.6977L13598.9326,-3468.6906L13598.939,-3468.6832L13598.9488,-3468.672L13598.9632,-3468.6606L13598.9698,-3468.654L13598.9704,-3468.6486L13598.956,-3468.6276L13598.9478,-3468.6169L13598.9271,-3468.5898L13598.9145,-3468.5729L13598.9091,-3468.5639L13598.9079,-3468.5586L13598.9097,-3468.5513L13598.9193,-3468.5345L13598.9247,-3468.5285L13598.9319,-3468.5243L13598.9554,-3468.5219L13598.9692,-3468.5231L13598.9794,-3468.5345L13598.9903,-3468.5483L13598.9918,-3468.5501L13598.9974,-3468.5561L13599.0041,-3468.5609L13599.0113,-3468.5807L13599.0263,-3468.5994L13599.0347,-3468.6078L13599.0455,-3468.6132L13599.0527,-3468.612L13599.0696,-3468.6084L13599.1002,-3468.6066L13599.1177,-3468.6088L13599.1667,-3468.6152L13599.1789,-3468.6168L13599.2144,-3468.6162L13599.2438,-3468.6174L13599.2467,-3468.6174L13599.3117,-3468.6186L13599.3476,-3468.6179L13599.3765,-3468.6185L13599.3999,-3468.6245L13599.4179,-3468.6293L13599.4432,-3468.6329L13599.4642,-3468.6396L13599.5063,-3468.6504L13599.5237,-3468.6522L13599.5375,-3468.6569L13599.5562,-3468.666L13599.5748,-3468.6726L13599.6048,-3468.6834L13599.6156,-3468.6864L13599.6319,-3468.6882L13599.6577,-3468.6858L13599.6745,-3468.681L13599.6824,-3468.6768L13599.6926,-3468.6666L13599.6967,-3468.6594L13599.6986,-3468.6479L13599.6974,-3468.6293L13599.6962,-3468.6125L13599.6938,-3468.5957L13599.6847,-3468.5801L13599.6817,-3468.5609L13599.6776,-3468.5345L13599.6785,-3468.5275L13599.681,-3468.5221L13599.6912,-3468.5186L13599.6914,-3468.5186L13599.7066,-3468.5166L13599.7147,-3468.5154L13599.7384,-3468.5208L13599.7686,-3468.525L13599.8019,-3468.5245L13599.8199,-3468.5171L13599.8264,-3468.5126L13599.8298,-3468.5059L13599.8304,-3468.4984L13599.8284,-3468.4915L13599.8202,-3468.4781L13599.8131,-3468.4643L13599.8129,-3468.4639L13599.8109,-3468.4499L13599.8112,-3468.4408L13599.8171,-3468.4311L13599.829,-3468.4087L13599.8386,-3468.3982L13599.8443,-3468.3962L13599.8494,-3468.3955L13599.8573,-3468.3966L13599.8911,-3468.4076L13599.9202,-3468.4176L13599.9524,-3468.4325L13599.9597,-3468.4386L13599.9642,-3468.4442L13599.9772,-3468.4682L13599.9874,-3468.4757L13600,-3468.4827L13600.0029,-3468.4843L13600.0195,-3468.4897L13600.0592,-3468.4916L13600.0758,-3468.4923L13600.0913,-3468.4946L13600.1032,-3468.4981L13600.1167,-3468.5039L13600.1395,-3468.5151L13600.1443,-3468.5177L13600.191,-3468.5433L13600.2122,-3468.5549L13600.2381,-3468.5629L13600.2511,-3468.564L13600.2657,-3468.5631L13600.2879,-3468.5583L13600.3056,-3468.5516L13600.3169,-3468.5462L13600.3251,-3468.5383L13600.3443,-3468.512L13600.3528,-3468.4949L13600.3578,-3468.4793L13600.3624,-3468.4621L13600.3618,-3468.4411L13600.3559,-3468.4209L13600.3553,-3468.4083L13600.3601,-3468.3934L13600.3611,-3468.3926L13600.3644,-3468.3901L13600.3669,-3468.3894L13600.3711,-3468.3892L13600.3753,-3468.3905L13600.3799,-3468.392L13600.3914,-3468.4004L13600.4013,-3468.4113L13600.4053,-3468.4197L13600.4114,-3468.4427L13600.4126,-3468.4453L13600.4151,-3468.446L13600.4304,-3468.4448L13600.4366,-3468.4429L13600.4705,-3468.4122L13600.4753,-3468.4082L13600.4826,-3468.4064L13600.4933,-3468.4059L13600.5196,-3468.4092L13600.5527,-3468.4098L13600.5701,-3468.4073L13600.595,-3468.4008L13600.6105,-3468.3982L13600.6168,-3468.3977L13600.6509,-3468.4096L13600.6823,-3468.418L13600.6953,-3468.4189L13600.7311,-3468.4192L13600.7497,-3468.4213L13600.7709,-3468.4277L13600.7927,-3468.4296L13600.8067,-3468.4301L13600.8169,-3468.4287L13600.8333,-3468.4249L13600.8381,-3468.4238L13600.8722,-3468.4124L13600.8908,-3468.4026L13600.8973,-3468.3958L13600.9063,-3468.3812L13600.9103,-3468.3719L13600.9131,-3468.3474L13600.9142,-3468.3432L13600.9176,-3468.3388L13600.921,-3468.3362L13600.9278,-3468.3357L13600.9334,-3468.3379L13600.9344,-3468.3383L13600.9374,-3468.3397L13600.9481,-3468.3446L13600.9621,-3468.3495L13600.955,-3468.3623L13601.0434,-3468.3947L13601.058,-3468.3663L13601.0742,-3468.3714Z"/>
</g>
</svg>
