<?xml version="1.0" encoding="UTF-8"?>
<svg  xmlns="http://www.w3.org/2000/svg" xmlns:xlink="http://www.w3.org/1999/xlink" xmlns:go="http://purl.org/svgmap/profile" property="geometry,N03_001,N03_002,N03_003,N03_004,N03_005,N03_007" viewBox="13595.03173828125 -3363.189697265625 0.274658203125 0.274658203125" go:dataArea="13595.03173828125 -3363.189697265625 0.274658203125 0.274658203125" >
<metadata>
 <rdf:RDF xmlns:rdf="http://www.w3.org/1999/02/22-rdf-syntax-ns#" xmlns:crs="http://opengis.org/xmldtds/transformations.dtd" xmlns:svg="http://www.w3.org/svg" >
  <rdf:Description>
   <crs:CoordinateReferenceSystem rdf:resource="http://purl.org/crs/84" svg:transform="matrix(100.0,0.0,0.0,-100.0,0.0,0.0)" />
  </rdf:Description>
 </rdf:RDF>
</metadata>
<globalCoordinateSystem srsName="http://purl.org/crs/84" transform="matrix(100.0,0.0,0.0,-100.0,0.0,0.0)" />
<defs>
 <g id="p0" >
  <circle cx="0.0" cy="0.0" r="3" stroke="green" stroke-width="2.0" vector-effect="non-scaling-stroke" />
 </g>
</defs>
<g fill="#0000ff" fill-rule="evenodd" opacity="0.5" >
<path content="和歌山県,,東牟婁郡,那智勝浦町,,30421" xlink:title="和歌山県" d="M13595.0317,-3363.1897L13595.2762,-3363.1897L13595.2758,-3363.1893L13595.2745,-3363.188L13595.273,-3363.187L13595.2796,-3363.1804L13595.2748,-3363.1681L13595.2706,-3363.1546L13595.2712,-3363.154L13595.2719,-3363.1535L13595.2723,-3363.1533L13595.2726,-3363.1533L13595.2728,-3363.1533L13595.273,-3363.1533L13595.2734,-3363.1536L13595.2735,-3363.1537L13595.274,-3363.1541L13595.2744,-3363.1548L13595.2749,-3363.1558L13595.2755,-3363.1578L13595.2759,-3363.1586L13595.2767,-3363.1596L13595.2776,-3363.1607L13595.2781,-3363.1614L13595.2793,-3363.1638L13595.2798,-3363.1648L13595.2804,-3363.1654L13595.2807,-3363.1657L13595.2824,-3363.1666L13595.283,-3363.167L13595.2849,-3363.1684L13595.2858,-3363.1691L13595.2871,-3363.1697L13595.2875,-3363.1699L13595.2885,-3363.1702L13595.2893,-3363.1703L13595.2903,-3363.1703L13595.2916,-3363.17L13595.2924,-3363.1698L13595.293,-3363.1697L13595.2934,-3363.1698L13595.2937,-3363.1699L13595.2941,-3363.1702L13595.2944,-3363.1706L13595.2947,-3363.1711L13595.2948,-3363.1715L13595.2949,-3363.1718L13595.2947,-3363.1727L13595.2947,-3363.1733L13595.2948,-3363.1741L13595.2952,-3363.1749L13595.2956,-3363.1754L13595.2959,-3363.1756L13595.2961,-3363.1757L13595.2962,-3363.1757L13595.2964,-3363.1755L13595.2967,-3363.1752L13595.2971,-3363.1741L13595.2977,-3363.1727L13595.2981,-3363.172L13595.2986,-3363.1716L13595.2994,-3363.1712L13595.3005,-3363.1706L13595.3011,-3363.1702L13595.3013,-3363.1698L13595.3017,-3363.1693L13595.3018,-3363.1687L13595.3018,-3363.1682L13595.3017,-3363.1678L13595.3016,-3363.1676L13595.3014,-3363.1674L13595.3013,-3363.1673L13595.3009,-3363.1671L13595.2998,-3363.1669L13595.2992,-3363.1667L13595.299,-3363.1665L13595.2989,-3363.1665L13595.2988,-3363.1663L13595.2988,-3363.166L13595.2988,-3363.1655L13595.2992,-3363.1642L13595.2994,-3363.1637L13595.2997,-3363.1631L13595.3,-3363.1628L13595.3001,-3363.1627L13595.3005,-3363.1624L13595.3023,-3363.1619L13595.3031,-3363.1616L13595.3038,-3363.1611L13595.3046,-3363.1606L13595.3048,-3363.1605L13595.305,-3363.1605L13595.3052,-3363.1605L13595.3055,-3363.1607L13595.3061,-3363.1611L13595.3064,-3363.1613L13595.3064,-3363.1016L13595.3064,-3363.1016L13595.3061,-3363.1015L13595.3029,-3363.1003L13595.3018,-3363.1L13595.3014,-3363.1L13595.3012,-3363.1L13595.301,-3363.1001L13595.3005,-3363.1003L13595.2996,-3363.101L13595.299,-3363.1014L13595.2986,-3363.1016L13595.2983,-3363.1016L13595.2978,-3363.1016L13595.2972,-3363.1015L13595.2962,-3363.101L13595.2956,-3363.1007L13595.2948,-3363.1004L13595.2944,-3363.1003L13595.2941,-3363.1003L13595.2939,-3363.1004L13595.2935,-3363.1006L13595.293,-3363.1012L13595.2917,-3363.1029L13595.2911,-3363.1036L13595.2905,-3363.1041L13595.2896,-3363.105L13595.2886,-3363.1062L13595.2882,-3363.1066L13595.2881,-3363.1066L13595.2879,-3363.1066L13595.2879,-3363.1065L13595.2877,-3363.1063L13595.2876,-3363.1055L13595.2874,-3363.1041L13595.2872,-3363.1031L13595.287,-3363.1025L13595.2867,-3363.1016L13595.2867,-3363.1014L13595.2867,-3363.1008L13595.2869,-3363.1004L13595.2872,-3363.1L13595.2875,-3363.0998L13595.2881,-3363.0995L13595.29,-3363.099L13595.2908,-3363.0987L13595.2912,-3363.0984L13595.2914,-3363.0981L13595.2916,-3363.0977L13595.2918,-3363.0966L13595.292,-3363.0956L13595.2921,-3363.0946L13595.2921,-3363.0943L13595.292,-3363.0934L13595.2916,-3363.0921L13595.2914,-3363.0918L13595.2912,-3363.0914L13595.2909,-3363.0911L13595.2906,-3363.0909L13595.2897,-3363.0905L13595.2895,-3363.0904L13595.2884,-3363.0902L13595.2875,-3363.0901L13595.2864,-3363.0902L13595.2861,-3363.0902L13595.2858,-3363.0903L13595.2857,-3363.0904L13595.2856,-3363.0905L13595.2856,-3363.0906L13595.2858,-3363.0912L13595.2859,-3363.0915L13595.2858,-3363.0919L13595.2857,-3363.0924L13595.2849,-3363.0936L13595.2841,-3363.0949L13595.2838,-3363.0957L13595.2835,-3363.0966L13595.2835,-3363.0975L13595.2836,-3363.0987L13595.2838,-3363.0996L13595.2838,-3363.1002L13595.2837,-3363.1004L13595.2836,-3363.1005L13595.2834,-3363.1007L13595.2831,-3363.1008L13595.2826,-3363.1009L13595.2821,-3363.1009L13595.2817,-3363.1008L13595.2812,-3363.1006L13595.2807,-3363.1002L13595.2798,-3363.0992L13595.2791,-3363.0984L13595.2783,-3363.0975L13595.2778,-3363.0967L13595.2775,-3363.0959L13595.2774,-3363.0951L13595.2774,-3363.0947L13595.2775,-3363.0945L13595.2777,-3363.0943L13595.2778,-3363.0943L13595.278,-3363.0942L13595.2783,-3363.0943L13595.2799,-3363.0948L13595.2802,-3363.0948L13595.2804,-3363.0948L13595.2806,-3363.0947L13595.2806,-3363.0945L13595.2807,-3363.0941L13595.2805,-3363.0919L13595.2805,-3363.0911L13595.2804,-3363.0903L13595.2803,-3363.09L13595.2801,-3363.0898L13595.2794,-3363.0892L13595.279,-3363.0888L13595.2788,-3363.0884L13595.2787,-3363.088L13595.2788,-3363.0866L13595.2788,-3363.0862L13595.2787,-3363.0852L13595.2783,-3363.0844L13595.2779,-3363.0839L13595.2763,-3363.0823L13595.2757,-3363.0816L13595.275,-3363.0808L13595.2747,-3363.0806L13595.2736,-3363.08L13595.272,-3363.0792L13595.2714,-3363.0788L13595.2695,-3363.0773L13595.2688,-3363.0767L13595.2681,-3363.0764L13595.2675,-3363.0763L13595.2668,-3363.0763L13595.2656,-3363.0764L13595.2651,-3363.0763L13595.2649,-3363.0763L13595.2646,-3363.0761L13595.2642,-3363.0757L13595.2631,-3363.074L13595.2626,-3363.0735L13595.2625,-3363.0733L13595.2621,-3363.0731L13595.2616,-3363.073L13595.2614,-3363.073L13595.2611,-3363.073L13595.2606,-3363.0731L13595.2601,-3363.0733L13595.2597,-3363.0736L13595.2593,-3363.0739L13595.2591,-3363.0742L13595.2591,-3363.0746L13595.2591,-3363.0751L13595.2594,-3363.0758L13595.26,-3363.077L13595.2606,-3363.0777L13595.2619,-3363.0788L13595.2626,-3363.0796L13595.263,-3363.0802L13595.2631,-3363.0804L13595.2635,-3363.0818L13595.2637,-3363.0825L13595.264,-3363.0828L13595.2641,-3363.0829L13595.2647,-3363.0832L13595.266,-3363.0835L13595.2662,-3363.0836L13595.2672,-3363.0839L13595.2677,-3363.0842L13595.2679,-3363.0845L13595.268,-3363.0847L13595.2681,-3363.0851L13595.2679,-3363.0864L13595.2679,-3363.0865L13595.2679,-3363.0875L13595.2682,-3363.0888L13595.2683,-3363.0891L13595.2686,-3363.09L13595.269,-3363.0905L13595.2692,-3363.0907L13595.2704,-3363.0916L13595.2709,-3363.0921L13595.2712,-3363.0926L13595.2712,-3363.0927L13595.2714,-3363.0936L13595.2715,-3363.0944L13595.2719,-3363.0953L13595.2724,-3363.0961L13595.273,-3363.0969L13595.2738,-3363.0977L13595.2751,-3363.0986L13595.2764,-3363.0995L13595.2772,-3363.1002L13595.2776,-3363.1008L13595.2777,-3363.1009L13595.2779,-3363.1017L13595.278,-3363.1033L13595.2781,-3363.1044L13595.2783,-3363.1053L13595.2788,-3363.1063L13595.2796,-3363.1075L13595.2804,-3363.1085L13595.2812,-3363.1098L13595.2816,-3363.1109L13595.2818,-3363.112L13595.2818,-3363.113L13595.2818,-3363.1133L13595.2817,-3363.1133L13595.2816,-3363.1133L13595.2815,-3363.1132L13595.281,-3363.1124L13595.2796,-3363.11L13595.2788,-3363.1088L13595.2778,-3363.1076L13595.2773,-3363.1067L13595.2766,-3363.1057L13595.276,-3363.1051L13595.2742,-3363.1036L13595.2733,-3363.1028L13595.2725,-3363.1016L13595.2716,-3363.1004L13595.271,-3363.0997L13595.2701,-3363.0989L13595.2689,-3363.098L13595.2663,-3363.0965L13595.2649,-3363.0956L13595.2639,-3363.0948L13595.2629,-3363.0937L13595.2626,-3363.0933L13595.2615,-3363.0916L13595.26,-3363.0893L13595.2598,-3363.089L13595.2591,-3363.0878L13595.2588,-3363.0872L13595.2588,-3363.0867L13595.259,-3363.086L13595.2593,-3363.0851L13595.2593,-3363.0844L13595.2592,-3363.0841L13595.2592,-3363.0839L13595.2589,-3363.0836L13595.2585,-3363.0834L13595.2578,-3363.0831L13595.2563,-3363.0827L13595.2559,-3363.0826L13595.2544,-3363.0821L13595.2533,-3363.0817L13595.253,-3363.0815L13595.2521,-3363.0809L13595.2513,-3363.0801L13595.2509,-3363.0794L13595.2496,-3363.0774L13595.2495,-3363.0771L13595.2487,-3363.0761L13595.2479,-3363.0753L13595.2472,-3363.0748L13595.2468,-3363.0746L13595.2465,-3363.0746L13595.246,-3363.0746L13595.2457,-3363.0747L13595.2453,-3363.075L13595.2449,-3363.0753L13595.2447,-3363.0756L13595.2446,-3363.0759L13595.2445,-3363.0762L13595.2446,-3363.0764L13595.2447,-3363.0769L13595.2448,-3363.0775L13595.2448,-3363.0777L13595.2447,-3363.0777L13595.2446,-3363.0777L13595.2441,-3363.0777L13595.2423,-3363.0772L13595.2419,-3363.0771L13595.2418,-3363.0772L13595.2417,-3363.0773L13595.2418,-3363.0774L13595.2423,-3363.0786L13595.2424,-3363.0792L13595.2424,-3363.0799L13595.2423,-3363.0805L13595.2421,-3363.0807L13595.242,-3363.0809L13595.2419,-3363.0809L13595.2417,-3363.0808L13595.2414,-3363.0805L13595.2406,-3363.0794L13595.2398,-3363.0784L13595.2395,-3363.0782L13595.2387,-3363.0774L13595.2375,-3363.0765L13595.2363,-3363.0751L13595.2354,-3363.0742L13595.2346,-3363.0733L13595.2341,-3363.0725L13595.2338,-3363.0717L13595.2338,-3363.071L13595.2339,-3363.0704L13595.2341,-3363.07L13595.2344,-3363.0697L13595.2348,-3363.0694L13595.2352,-3363.0692L13595.2357,-3363.0691L13595.2363,-3363.069L13595.2368,-3363.0691L13595.2371,-3363.0692L13595.2372,-3363.0693L13595.2374,-3363.0695L13595.2376,-3363.0697L13595.2378,-3363.0701L13595.2378,-3363.0702L13595.2378,-3363.0708L13595.2376,-3363.0714L13595.2375,-3363.0723L13595.2375,-3363.0727L13595.2376,-3363.0729L13595.2378,-3363.073L13595.2381,-3363.0732L13595.2383,-3363.0732L13595.2389,-3363.0732L13595.2397,-3363.0731L13595.2417,-3363.0726L13595.2425,-3363.0724L13595.2435,-3363.0725L13595.2448,-3363.0725L13595.2454,-3363.0725L13595.2458,-3363.0723L13595.2466,-3363.0719L13595.2475,-3363.0715L13595.2479,-3363.0714L13595.2484,-3363.0714L13595.2492,-3363.0716L13595.2502,-3363.0718L13595.2505,-3363.0718L13595.2506,-3363.0717L13595.2506,-3363.0717L13595.2507,-3363.0715L13595.2507,-3363.071L13595.2506,-3363.0703L13595.2504,-3363.0697L13595.2501,-3363.0689L13595.2499,-3363.0675L13595.2498,-3363.0672L13595.2496,-3363.067L13595.2493,-3363.0668L13595.2481,-3363.0665L13595.2474,-3363.0662L13595.2459,-3363.0653L13595.2451,-3363.065L13595.2441,-3363.0647L13595.2416,-3363.0644L13595.2402,-3363.0643L13595.2388,-3363.0642L13595.2377,-3363.0644L13595.2365,-3363.0647L13595.2351,-3363.0654L13595.2345,-3363.0657L13595.2337,-3363.0661L13595.2331,-3363.0662L13595.2327,-3363.0662L13595.2324,-3363.0661L13595.232,-3363.0659L13595.2315,-3363.0655L13595.2308,-3363.0646L13595.2305,-3363.064L13595.2302,-3363.0633L13595.2301,-3363.0627L13595.2302,-3363.062L13595.2304,-3363.0616L13595.2306,-3363.0614L13595.2308,-3363.0613L13595.231,-3363.0612L13595.2317,-3363.061L13595.2321,-3363.0609L13595.2323,-3363.0608L13595.2324,-3363.0606L13595.2325,-3363.0604L13595.2324,-3363.0594L13595.2325,-3363.059L13595.2326,-3363.0589L13595.2328,-3363.0588L13595.2333,-3363.0588L13595.2344,-3363.059L13595.2348,-3363.0589L13595.2349,-3363.0589L13595.2352,-3363.0587L13595.2354,-3363.0585L13595.2356,-3363.0581L13595.2356,-3363.0577L13595.2356,-3363.057L13595.2354,-3363.0561L13595.2354,-3363.0552L13595.2356,-3363.0548L13595.2359,-3363.0543L13595.2368,-3363.0537L13595.2376,-3363.053L13595.2382,-3363.0524L13595.2385,-3363.0519L13595.2386,-3363.0517L13595.2385,-3363.0516L13595.2385,-3363.0515L13595.2382,-3363.0515L13595.2368,-3363.0518L13595.2365,-3363.0518L13595.2357,-3363.0518L13595.2352,-3363.0518L13595.2348,-3363.0516L13595.2346,-3363.0514L13595.2344,-3363.0512L13595.2343,-3363.051L13595.2342,-3363.0505L13595.2342,-3363.0495L13595.2342,-3363.0483L13595.2341,-3363.0477L13595.2341,-3363.047L13595.2342,-3363.0466L13595.2344,-3363.0464L13595.2351,-3363.0457L13595.2353,-3363.0453L13595.2354,-3363.0452L13595.2354,-3363.045L13595.2352,-3363.0446L13595.2346,-3363.0436L13595.2335,-3363.0418L13595.2321,-3363.0402L13595.2309,-3363.0387L13595.2303,-3363.0382L13595.2295,-3363.0377L13595.2285,-3363.0371L13595.2282,-3363.0369L13595.2276,-3363.0363L13595.2273,-3363.0358L13595.2272,-3363.0354L13595.2272,-3363.0347L13595.2272,-3363.0338L13595.2271,-3363.0336L13595.227,-3363.0332L13595.2266,-3363.0327L13595.2261,-3363.0324L13595.2258,-3363.0322L13595.2244,-3363.0318L13595.2239,-3363.0315L13595.2238,-3363.0314L13595.2228,-3363.0305L13595.2224,-3363.0302L13595.2221,-3363.0301L13595.2216,-3363.03L13595.2211,-3363.03L13595.2205,-3363.0301L13595.2201,-3363.0302L13595.2197,-3363.0305L13595.2196,-3363.0306L13595.2194,-3363.0309L13595.2192,-3363.0316L13595.2191,-3363.0318L13595.2188,-3363.0327L13595.2185,-3363.0332L13595.2182,-3363.0334L13595.2179,-3363.0336L13595.2169,-3363.034L13595.2159,-3363.0345L13595.2147,-3363.0353L13595.2128,-3363.0369L13595.2111,-3363.0383L13595.2098,-3363.0392L13595.2086,-3363.0398L13595.207,-3363.0403L13595.2061,-3363.0405L13595.205,-3363.0408L13595.2042,-3363.0409L13595.2033,-3363.0411L13595.2029,-3363.0413L13595.2024,-3363.0416L13595.202,-3363.0418L13595.2017,-3363.0419L13595.2014,-3363.0419L13595.2009,-3363.0418L13595.1999,-3363.0413L13595.1992,-3363.0409L13595.1984,-3363.0404L13595.198,-3363.0399L13595.1979,-3363.0398L13595.1977,-3363.0393L13595.1975,-3363.0378L13595.1974,-3363.0374L13595.197,-3363.0358L13595.1959,-3363.0328L13595.1954,-3363.0312L13595.1951,-3363.0301L13595.1947,-3363.0287L13595.1943,-3363.0276L13595.1933,-3363.0258L13595.1931,-3363.0252L13595.1931,-3363.025L13595.1932,-3363.0249L13595.1934,-3363.0248L13595.1937,-3363.0248L13595.1941,-3363.0249L13595.1946,-3363.0251L13595.1954,-3363.0255L13595.1966,-3363.0261L13595.1969,-3363.0262L13595.197,-3363.0262L13595.1971,-3363.0261L13595.1972,-3363.0259L13595.1972,-3363.0245L13595.1973,-3363.0237L13595.1975,-3363.0231L13595.1982,-3363.0222L13595.1985,-3363.0216L13595.1986,-3363.0212L13595.1986,-3363.0193L13595.1986,-3363.0192L13595.1988,-3363.0183L13595.1991,-3363.0177L13595.1995,-3363.0172L13595.1999,-3363.0169L13595.2005,-3363.0167L13595.2011,-3363.0166L13595.2016,-3363.0166L13595.2021,-3363.0166L13595.2022,-3363.0167L13595.2031,-3363.0171L13595.2034,-3363.0172L13595.2043,-3363.0176L13595.2049,-3363.0177L13595.2054,-3363.0176L13595.2058,-3363.0176L13595.2063,-3363.0174L13595.2067,-3363.0172L13595.207,-3363.017L13595.2071,-3363.0167L13595.2071,-3363.0167L13595.2071,-3363.0164L13595.2069,-3363.0161L13595.2064,-3363.0155L13595.2057,-3363.0148L13595.2055,-3363.0145L13595.2055,-3363.0142L13595.2055,-3363.0141L13595.2057,-3363.0139L13595.206,-3363.0136L13595.207,-3363.0129L13595.2072,-3363.0126L13595.2073,-3363.0124L13595.2073,-3363.0121L13595.2072,-3363.0117L13595.2071,-3363.0113L13595.2066,-3363.0106L13595.2049,-3363.009L13595.2044,-3363.0083L13595.2042,-3363.008L13595.2038,-3363.0071L13595.2036,-3363.0064L13595.2035,-3363.0056L13595.2035,-3363.005L13595.2037,-3363.0042L13595.2042,-3363.0032L13595.2048,-3363.0024L13595.2052,-3363.0016L13595.2052,-3363.0013L13595.2051,-3363.0011L13595.205,-3363.001L13595.2047,-3363.0008L13595.2031,-3363.0003L13595.2025,-3363.0001L13595.2021,-3362.9997L13595.2016,-3362.9989L13595.2012,-3362.9985L13595.2006,-3362.998L13595.1998,-3362.9975L13595.1989,-3362.9972L13595.198,-3362.997L13595.1971,-3362.9968L13595.1967,-3362.9966L13595.1965,-3362.9964L13595.1964,-3362.996L13595.1963,-3362.9955L13595.1967,-3362.9933L13595.1968,-3362.992L13595.1969,-3362.9911L13595.1972,-3362.9905L13595.1976,-3362.9899L13595.1981,-3362.9895L13595.1988,-3362.9891L13595.1996,-3362.9886L13595.1999,-3362.9884L13595.2001,-3362.988L13595.2001,-3362.9877L13595.1999,-3362.9861L13595.1999,-3362.9854L13595.2,-3362.9846L13595.2003,-3362.9836L13595.2007,-3362.983L13595.201,-3362.9827L13595.2014,-3362.9825L13595.2021,-3362.9822L13595.2037,-3362.982L13595.2051,-3362.9818L13595.2066,-3362.9814L13595.2081,-3362.9809L13595.209,-3362.9804L13595.2105,-3362.9792L13595.2114,-3362.9787L13595.2124,-3362.978L13595.2134,-3362.9777L13595.2136,-3362.9776L13595.2145,-3362.9775L13595.2158,-3362.9774L13595.2179,-3362.9776L13595.2206,-3362.9779L13595.2235,-3362.9781L13595.2257,-3362.9782L13595.2281,-3362.9783L13595.2294,-3362.9785L13595.2308,-3362.9789L13595.2317,-3362.9793L13595.2321,-3362.9796L13595.2329,-3362.9802L13595.2341,-3362.9813L13595.2347,-3362.9821L13595.2354,-3362.9832L13595.2358,-3362.9842L13595.2363,-3362.9854L13595.2368,-3362.9862L13595.2375,-3362.9872L13595.2391,-3362.9891L13595.2397,-3362.99L13595.24,-3362.9906L13595.2403,-3362.9913L13595.2405,-3362.9923L13595.2405,-3362.9934L13595.2406,-3362.9942L13595.2409,-3362.9952L13595.2416,-3362.9968L13595.2422,-3362.9979L13595.2425,-3362.999L13595.2429,-3363.0005L13595.243,-3363.0007L13595.2437,-3363.0019L13595.2453,-3363.0041L13595.2457,-3363.0046L13595.2463,-3363.0051L13595.2467,-3363.0053L13595.2471,-3363.0055L13595.2479,-3363.0057L13595.2482,-3363.0059L13595.2482,-3363.006L13595.2484,-3363.0062L13595.2487,-3363.0073L13595.2489,-3363.0075L13595.2491,-3363.0079L13595.2496,-3363.0083L13595.2502,-3363.0087L13595.2504,-3363.0087L13595.2523,-3363.0093L13595.253,-3363.0096L13595.2534,-3363.0098L13595.2536,-3363.01L13595.2539,-3363.0104L13595.2546,-3363.0118L13595.255,-3363.0125L13595.2556,-3363.0133L13595.2564,-3363.014L13595.2568,-3363.0142L13595.2577,-3363.0146L13595.2594,-3363.0151L13595.2618,-3363.0155L13595.2645,-3363.0159L13595.2663,-3363.0163L13595.2674,-3363.0164L13595.2677,-3363.0164L13595.2687,-3363.0163L13595.2702,-3363.0159L13595.2719,-3363.0153L13595.2728,-3363.0152L13595.2737,-3363.0151L13595.2748,-3363.0151L13595.2755,-3363.015L13595.2758,-3363.0148L13595.276,-3363.0147L13595.2763,-3363.0144L13595.2765,-3363.014L13595.2765,-3363.0139L13595.2765,-3363.0135L13595.2763,-3363.013L13595.276,-3363.0121L13595.2759,-3363.0119L13595.276,-3363.0115L13595.2761,-3363.011L13595.2768,-3363.0097L13595.2773,-3363.0088L13595.2774,-3363.0086L13595.2777,-3363.0066L13595.2779,-3363.0056L13595.2778,-3363.0052L13595.2776,-3363.0048L13595.2769,-3363.004L13595.2765,-3363.0034L13595.2763,-3363.0026L13595.2763,-3363.0016L13595.2765,-3363.0001L13595.2766,-3362.9986L13595.2765,-3362.9978L13595.2763,-3362.9971L13595.2758,-3362.9964L13595.2749,-3362.9955L13595.2742,-3362.9948L13595.2737,-3362.9942L13595.2735,-3362.9936L13595.2735,-3362.993L13595.2735,-3362.9924L13595.2737,-3362.9917L13595.2739,-3362.9913L13595.2741,-3362.9912L13595.2742,-3362.9912L13595.2744,-3362.9914L13595.2748,-3362.9919L13595.2755,-3362.9927L13595.2765,-3362.9936L13595.277,-3362.994L13595.2778,-3362.9946L13595.2782,-3362.9948L13595.2783,-3362.9948L13595.2787,-3362.9949L13595.2792,-3362.9949L13595.281,-3362.9945L13595.2838,-3362.994L13595.2847,-3362.9937L13595.2852,-3362.9935L13595.2854,-3362.9933L13595.2855,-3362.993L13595.2855,-3362.9927L13595.2853,-3362.9919L13595.2852,-3362.9912L13595.2851,-3362.9909L13595.2853,-3362.99L13595.2854,-3362.9893L13595.2854,-3362.9885L13595.2853,-3362.988L13595.2851,-3362.9877L13595.2844,-3362.987L13595.2838,-3362.9863L13595.2835,-3362.9857L13595.2834,-3362.985L13595.2834,-3362.984L13595.2836,-3362.983L13595.2838,-3362.9818L13595.2838,-3362.9815L13595.2836,-3362.9806L13595.2833,-3362.9797L13595.2828,-3362.979L13595.282,-3362.9781L13595.281,-3362.9772L13595.2803,-3362.9767L13595.2796,-3362.9761L13595.2792,-3362.9757L13595.2791,-3362.9754L13595.2791,-3362.9752L13595.2792,-3362.9749L13595.2796,-3362.9738L13595.2799,-3362.973L13595.2799,-3362.9726L13595.2798,-3362.972L13595.2795,-3362.9715L13595.2791,-3362.971L13595.2788,-3362.9708L13595.2772,-3362.9698L13595.2767,-3362.9694L13595.2764,-3362.9691L13595.2763,-3362.9689L13595.2763,-3362.9688L13595.2763,-3362.9685L13595.2765,-3362.9681L13595.277,-3362.9673L13595.2771,-3362.967L13595.2771,-3362.9665L13595.277,-3362.9661L13595.2767,-3362.9656L13595.2763,-3362.9652L13595.2752,-3362.9643L13595.2747,-3362.9639L13595.2746,-3362.9636L13595.2742,-3362.9624L13595.274,-3362.9617L13595.2738,-3362.9615L13595.2734,-3362.9611L13595.2727,-3362.9607L13595.2716,-3362.9603L13595.2708,-3362.9601L13595.2704,-3362.9601L13595.27,-3362.9602L13595.2689,-3362.9607L13595.2685,-3362.9608L13595.2682,-3362.9608L13595.2681,-3362.9608L13595.2678,-3362.9606L13595.2675,-3362.9603L13595.2672,-3362.9599L13595.267,-3362.9594L13595.267,-3362.9592L13595.2669,-3362.9579L13595.2668,-3362.9576L13595.2664,-3362.9567L13595.2656,-3362.9554L13595.2648,-3362.9545L13595.2642,-3362.9539L13595.2635,-3362.9535L13595.2623,-3362.953L13595.262,-3362.9527L13595.2619,-3362.9525L13595.2618,-3362.9523L13595.2618,-3362.9517L13595.262,-3362.9507L13595.2624,-3362.9495L13595.2629,-3362.9487L13595.2634,-3362.9482L13595.2639,-3362.9475L13595.2641,-3362.947L13595.2642,-3362.9467L13595.2641,-3362.9464L13595.2639,-3362.9461L13595.2628,-3362.945L13595.262,-3362.944L13595.2615,-3362.9435L13595.2613,-3362.9434L13595.2597,-3362.9426L13595.2591,-3362.9421L13595.2588,-3362.9417L13595.2586,-3362.9413L13595.2583,-3362.94L13595.2581,-3362.9393L13595.2578,-3362.939L13595.2576,-3362.9388L13595.2576,-3362.9388L13595.2572,-3362.9387L13595.2567,-3362.9387L13595.2552,-3362.9388L13595.2529,-3362.9391L13595.2507,-3362.9393L13595.2492,-3362.9396L13595.248,-3362.94L13595.2471,-3362.9404L13595.2466,-3362.9409L13595.2463,-3362.9412L13595.246,-3362.9419L13595.2458,-3362.9426L13595.2458,-3362.9427L13595.246,-3362.9444L13595.246,-3362.9452L13595.2458,-3362.9463L13595.2455,-3362.9478L13595.2455,-3362.9485L13595.2455,-3362.9487L13595.2459,-3362.9505L13595.246,-3362.9513L13595.246,-3362.9522L13595.246,-3362.9532L13595.2464,-3362.9545L13595.2466,-3362.9553L13595.2466,-3362.9558L13595.2465,-3362.956L13595.2461,-3362.9572L13595.246,-3362.9577L13595.246,-3362.9579L13595.2461,-3362.958L13595.2462,-3362.9581L13595.2464,-3362.9583L13595.2477,-3362.9587L13595.2481,-3362.959L13595.2483,-3362.9592L13595.2485,-3362.9594L13595.2486,-3362.9598L13595.2486,-3362.9604L13595.2485,-3362.9611L13595.2482,-3362.9618L13595.2477,-3362.9625L13595.2475,-3362.9628L13595.2467,-3362.9635L13595.2458,-3362.9641L13595.2452,-3362.9644L13595.2433,-3362.9652L13595.242,-3362.9656L13595.2408,-3362.9659L13595.2397,-3362.9661L13595.2369,-3362.9661L13595.2354,-3362.9662L13595.2336,-3362.9665L13595.2324,-3362.967L13595.2311,-3362.9675L13595.2305,-3362.9676L13595.2301,-3362.9676L13595.2299,-3362.9675L13595.2295,-3362.9674L13595.2291,-3362.967L13595.2287,-3362.9665L13595.2283,-3362.9658L13595.228,-3362.965L13595.2277,-3362.9641L13595.2274,-3362.9636L13595.2273,-3362.9636L13595.2268,-3362.9633L13595.2253,-3362.9627L13595.2246,-3362.9623L13595.2241,-3362.962L13595.224,-3362.9618L13595.2237,-3362.9614L13595.2235,-3362.9609L13595.2235,-3362.9603L13595.2236,-3362.9598L13595.2237,-3362.9594L13595.224,-3362.9591L13595.2241,-3362.959L13595.2247,-3362.9586L13595.2255,-3362.9581L13595.2257,-3362.9579L13595.2258,-3362.9577L13595.2259,-3362.9574L13595.2258,-3362.957L13595.2255,-3362.9556L13595.2251,-3362.9543L13595.2247,-3362.9534L13595.2243,-3362.9529L13595.2232,-3362.952L13595.2228,-3362.9516L13595.2227,-3362.9512L13595.2226,-3362.9509L13595.2226,-3362.9503L13595.2228,-3362.9497L13595.2233,-3362.9488L13595.2241,-3362.9478L13595.2254,-3362.9468L13595.2268,-3362.9456L13595.2273,-3362.945L13595.2277,-3362.9445L13595.228,-3362.9435L13595.2283,-3362.9423L13595.2284,-3362.942L13595.2289,-3362.9412L13595.2295,-3362.9404L13595.2306,-3362.9395L13595.2335,-3362.9375L13595.235,-3362.9365L13595.2358,-3362.9357L13595.2366,-3362.9348L13595.237,-3362.934L13595.2374,-3362.9329L13595.2377,-3362.9324L13595.2379,-3362.9321L13595.2387,-3362.9316L13595.239,-3362.9313L13595.2393,-3362.9308L13595.24,-3362.9291L13595.2411,-3362.9269L13595.2414,-3362.9261L13595.2415,-3362.9255L13595.2414,-3362.925L13595.2412,-3362.9247L13595.2411,-3362.9245L13595.2405,-3362.924L13595.2399,-3362.9235L13595.2394,-3362.9229L13595.2393,-3362.9228L13595.2388,-3362.9214L13595.2386,-3362.921L13595.2382,-3362.9204L13595.2375,-3362.9197L13595.2368,-3362.9192L13595.2365,-3362.9189L13595.2364,-3362.9186L13595.2364,-3362.9183L13595.2365,-3362.9182L13595.2366,-3362.918L13595.2368,-3362.9179L13595.2371,-3362.9179L13595.2377,-3362.9179L13595.2392,-3362.918L13595.2397,-3362.9181L13595.2408,-3362.9182L13595.2418,-3362.9181L13595.2423,-3362.9179L13595.2429,-3362.9177L13595.2433,-3362.9174L13595.2434,-3362.9173L13595.2436,-3362.9169L13595.2437,-3362.9165L13595.2437,-3362.9161L13595.2436,-3362.9158L13595.2431,-3362.915L13595.0317,-3362.915L13595.0317,-3362.9477L13595.0358,-3362.9456L13595.0492,-3362.9612L13595.0498,-3362.9608L13595.0629,-3362.9773L13595.0732,-3362.99L13595.0812,-3362.9995L13595.0659,-3363.0191L13595.0583,-3363.0275L13595.0522,-3363.0226L13595.0317,-3363.0072Z"/>
<path content="和歌山県,,東牟婁郡,那智勝浦町,,30421" xlink:title="和歌山県" d="M13595.2737,-3362.9299L13595.274,-3362.9298L13595.2749,-3362.9299L13595.2754,-3362.9299L13595.2767,-3362.93L13595.2786,-3362.9299L13595.281,-3362.93L13595.2822,-3362.93L13595.2825,-3362.9299L13595.2827,-3362.9298L13595.2829,-3362.9297L13595.283,-3362.9296L13595.283,-3362.9293L13595.2829,-3362.9289L13595.2827,-3362.9285L13595.2821,-3362.9276L13595.2816,-3362.927L13595.2806,-3362.9258L13595.2798,-3362.9247L13595.2791,-3362.9233L13595.2782,-3362.9212L13595.2771,-3362.9188L13595.2764,-3362.9165L13595.2757,-3362.915L13595.2495,-3362.915L13595.2495,-3362.9151L13595.2499,-3362.9164L13595.2501,-3362.9176L13595.2504,-3362.919L13595.2508,-3362.9201L13595.2513,-3362.9207L13595.2514,-3362.9209L13595.2521,-3362.9214L13595.2529,-3362.9218L13595.2544,-3362.9223L13595.2568,-3362.923L13595.2584,-3362.9237L13595.2595,-3362.9243L13595.2615,-3362.9255L13595.2628,-3362.9261L13595.2649,-3362.9268L13595.2662,-3362.9274L13595.2673,-3362.9281L13595.2684,-3362.9287L13595.2688,-3362.9291L13595.2695,-3362.9299L13595.2699,-3362.9304L13595.2702,-3362.9306L13595.2706,-3362.9308L13595.271,-3362.9309L13595.2714,-3362.9309L13595.2716,-3362.9309L13595.272,-3362.9308L13595.2725,-3362.9305L13595.2733,-3362.93L13595.2737,-3362.9299Z"/>
<path content="和歌山県,,東牟婁郡,那智勝浦町,,30421" xlink:title="和歌山県" d="M13595.2517,-3363.0281L13595.2518,-3363.028L13595.2518,-3363.0278L13595.2516,-3363.0274L13595.2512,-3363.027L13595.2502,-3363.0256L13595.2498,-3363.0248L13595.2496,-3363.0239L13595.2497,-3363.0232L13595.2498,-3363.0227L13595.2502,-3363.0221L13595.2506,-3363.0217L13595.251,-3363.0209L13595.2511,-3363.0202L13595.2511,-3363.0194L13595.251,-3363.019L13595.2506,-3363.0183L13595.2495,-3363.0167L13595.2488,-3363.0154L13595.2487,-3363.0153L13595.248,-3363.0147L13595.2474,-3363.0143L13595.246,-3363.0135L13595.2444,-3363.0124L13595.2418,-3363.0106L13595.2387,-3363.0086L13595.237,-3363.0074L13595.236,-3363.0065L13595.2352,-3363.0056L13595.2345,-3363.0049L13595.2342,-3363.0046L13595.2338,-3363.0044L13595.2328,-3363.0043L13595.2326,-3363.0042L13595.2313,-3363.0042L13595.2307,-3363.0042L13595.2303,-3363.0043L13595.2298,-3363.0046L13595.2293,-3363.0049L13595.229,-3363.0052L13595.2286,-3363.0057L13595.2284,-3363.0065L13595.2283,-3363.0075L13595.2283,-3363.0101L13595.2281,-3363.011L13595.2277,-3363.0118L13595.227,-3363.013L13595.2269,-3363.0133L13595.2268,-3363.0136L13595.2269,-3363.014L13595.2274,-3363.0147L13595.2279,-3363.0155L13595.2284,-3363.0164L13595.2287,-3363.0178L13595.229,-3363.0194L13595.2293,-3363.0201L13595.2296,-3363.0206L13595.2303,-3363.0214L13595.2312,-3363.0223L13595.2321,-3363.0235L13595.2332,-3363.0249L13595.2336,-3363.0253L13595.235,-3363.0265L13595.2351,-3363.0267L13595.2361,-3363.0279L13595.2365,-3363.0283L13595.2369,-3363.0285L13595.2375,-3363.0286L13595.2383,-3363.0287L13595.2391,-3363.0286L13595.2402,-3363.0284L13595.2418,-3363.0281L13595.2427,-3363.028L13595.2436,-3363.0282L13595.2447,-3363.0284L13595.245,-3363.0284L13595.2457,-3363.0283L13595.247,-3363.0281L13595.2476,-3363.0281L13595.2485,-3363.0284L13595.2491,-3363.0286L13595.2493,-3363.0287L13595.2499,-3363.0287L13595.2505,-3363.0287L13595.251,-3363.0286L13595.2513,-3363.0285L13595.2516,-3363.0283L13595.2517,-3363.0281Z"/>
<path content="和歌山県,,東牟婁郡,那智勝浦町,,30421" xlink:title="和歌山県" d="M13595.2993,-3362.9727L13595.2979,-3362.9725L13595.2972,-3362.9726L13595.2968,-3362.9727L13595.2966,-3362.9728L13595.2964,-3362.973L13595.2963,-3362.9734L13595.2962,-3362.9746L13595.296,-3362.976L13595.296,-3362.9764L13595.2961,-3362.9766L13595.2962,-3362.9768L13595.2965,-3362.977L13595.297,-3362.9773L13595.2975,-3362.9776L13595.2987,-3362.978L13595.2988,-3362.9781L13595.2994,-3362.9785L13595.2998,-3362.979L13595.3,-3362.9793L13595.3002,-3362.9802L13595.3003,-3362.9807L13595.3008,-3362.9817L13595.3013,-3362.9824L13595.3019,-3362.9836L13595.3024,-3362.9845L13595.3031,-3362.9854L13595.3038,-3362.9862L13595.3045,-3362.9867L13595.3063,-3362.988L13595.3064,-3362.988L13595.3064,-3362.9746L13595.3059,-3362.9743L13595.3046,-3362.9736L13595.304,-3362.9734L13595.3029,-3362.9732L13595.302,-3362.9732L13595.3005,-3362.9729L13595.2993,-3362.9727Z"/>
<path content="和歌山県,,東牟婁郡,那智勝浦町,,30421" xlink:title="和歌山県" d="M13595.2559,-3363.0548L13595.2552,-3363.0548L13595.2542,-3363.0548L13595.2537,-3363.0549L13595.2532,-3363.0552L13595.2527,-3363.0557L13595.2522,-3363.0561L13595.251,-3363.0574L13595.2506,-3363.0582L13595.2503,-3363.0589L13595.2503,-3363.0596L13595.2503,-3363.0603L13595.2507,-3363.0612L13595.2509,-3363.0615L13595.2516,-3363.0627L13595.2521,-3363.0634L13595.2529,-3363.064L13595.2534,-3363.0643L13595.2537,-3363.0644L13595.2546,-3363.0646L13595.2553,-3363.0648L13595.2559,-3363.0652L13595.2567,-3363.0657L13595.2571,-3363.0659L13595.2573,-3363.0659L13595.2576,-3363.0659L13595.258,-3363.0658L13595.2583,-3363.0657L13595.2585,-3363.0655L13595.2586,-3363.0654L13595.2588,-3363.0651L13595.2589,-3363.0648L13595.2593,-3363.0646L13595.2598,-3363.0643L13595.2617,-3363.0638L13595.2631,-3363.0632L13595.264,-3363.0629L13595.2645,-3363.0628L13595.2661,-3363.0627L13595.2666,-3363.0626L13595.2668,-3363.0625L13595.2671,-3363.0624L13595.2673,-3363.0621L13595.2674,-3363.0617L13595.2674,-3363.0611L13595.2673,-3363.0608L13595.2671,-3363.0602L13595.2669,-3363.0599L13595.2666,-3363.0596L13595.2662,-3363.0594L13595.2656,-3363.0592L13595.2652,-3363.0591L13595.2636,-3363.0589L13595.2627,-3363.0588L13595.2623,-3363.0587L13595.2618,-3363.0584L13595.2611,-3363.0578L13595.2602,-3363.0569L13595.2593,-3363.0561L13595.2583,-3363.0554L13595.2574,-3363.0551L13595.2567,-3363.0549L13595.2559,-3363.0548Z"/>
<path content="和歌山県,,東牟婁郡,那智勝浦町,,30421" xlink:title="和歌山県" d="M13595.2914,-3363.1809L13595.2912,-3363.1805L13595.2911,-3363.1803L13595.2909,-3363.1801L13595.2906,-3363.18L13595.2904,-3363.18L13595.29,-3363.1801L13595.2897,-3363.1802L13595.2889,-3363.1807L13595.2888,-3363.1808L13595.2885,-3363.1809L13595.2879,-3363.1808L13595.2873,-3363.1807L13595.2864,-3363.1807L13595.2858,-3363.1807L13595.2851,-3363.1807L13595.2847,-3363.1808L13595.2845,-3363.1809L13595.2843,-3363.1811L13595.284,-3363.1818L13595.2838,-3363.1822L13595.2831,-3363.1835L13595.2829,-3363.184L13595.2829,-3363.1844L13595.2829,-3363.1848L13595.2831,-3363.1852L13595.2832,-3363.1854L13595.2834,-3363.1855L13595.2839,-3363.1858L13595.2841,-3363.1859L13595.2846,-3363.1862L13595.285,-3363.1867L13595.2857,-3363.1877L13595.2861,-3363.188L13595.2867,-3363.1883L13595.2879,-3363.1887L13595.2895,-3363.1893L13595.29,-3363.1894L13595.2907,-3363.1894L13595.2912,-3363.1894L13595.2916,-3363.1892L13595.2919,-3363.189L13595.2921,-3363.1888L13595.2922,-3363.1885L13595.2923,-3363.1882L13595.2923,-3363.1879L13595.2922,-3363.1877L13595.2921,-3363.1875L13595.2918,-3363.1873L13595.2907,-3363.1869L13595.2906,-3363.1868L13595.2904,-3363.1866L13595.2903,-3363.1864L13595.2903,-3363.186L13595.2904,-3363.1853L13595.2908,-3363.1844L13595.2913,-3363.183L13595.2914,-3363.1825L13595.2914,-3363.1815L13595.2914,-3363.1809Z"/>
<path content="和歌山県,,東牟婁郡,那智勝浦町,,30421" xlink:title="和歌山県" d="M13595.216,-3363.0151L13595.2156,-3363.015L13595.2153,-3363.0151L13595.215,-3363.0152L13595.2147,-3363.0153L13595.2145,-3363.0156L13595.2143,-3363.0158L13595.2142,-3363.0161L13595.2142,-3363.0167L13595.2142,-3363.0171L13595.2142,-3363.0174L13595.2141,-3363.0175L13595.2138,-3363.0176L13595.2131,-3363.0177L13595.2125,-3363.0177L13595.2116,-3363.0178L13595.2111,-3363.0179L13595.2108,-3363.0181L13595.2106,-3363.0183L13595.2106,-3363.0184L13595.2105,-3363.0187L13595.2107,-3363.0191L13595.2109,-3363.0195L13595.211,-3363.0196L13595.2113,-3363.0198L13595.2117,-3363.02L13595.2123,-3363.0201L13595.213,-3363.0202L13595.2142,-3363.0201L13595.2148,-3363.02L13595.2153,-3363.0198L13595.2159,-3363.0192L13595.2164,-3363.0188L13595.2169,-3363.0183L13595.2171,-3363.018L13595.2172,-3363.0177L13595.2173,-3363.0172L13595.2172,-3363.0165L13595.2169,-3363.0159L13595.2166,-3363.0155L13595.2163,-3363.0152L13595.216,-3363.0151Z"/>
<path content="和歌山県,,東牟婁郡,那智勝浦町,,30421" xlink:title="和歌山県" d="M13595.2685,-3363.068L13595.2681,-3363.068L13595.2678,-3363.068L13595.2675,-3363.0681L13595.2672,-3363.0682L13595.2671,-3363.0683L13595.2671,-3363.0685L13595.2671,-3363.0687L13595.2673,-3363.0691L13595.2681,-3363.0699L13595.2683,-3363.0701L13595.2695,-3363.0712L13595.2705,-3363.0719L13595.2713,-3363.0723L13595.2722,-3363.0727L13595.2727,-3363.0729L13595.2731,-3363.0729L13595.2733,-3363.0729L13595.2736,-3363.0727L13595.2746,-3363.0723L13595.2758,-3363.072L13595.2762,-3363.0718L13595.2763,-3363.0717L13595.2763,-3363.0716L13595.2761,-3363.0715L13595.2755,-3363.0712L13595.275,-3363.071L13595.274,-3363.0708L13595.2727,-3363.0706L13595.2718,-3363.0702L13595.271,-3363.0698L13595.2707,-3363.0696L13595.2694,-3363.0684L13595.2689,-3363.0681L13595.2685,-3363.068Z"/>
<path content="和歌山県,,東牟婁郡,那智勝浦町,,30421" xlink:title="和歌山県" d="M13595.2967,-3363.0637L13595.2964,-3363.0636L13595.2962,-3363.0638L13595.2955,-3363.0642L13595.2939,-3363.0655L13595.2938,-3363.0656L13595.2932,-3363.0664L13595.2928,-3363.067L13595.2927,-3363.0674L13595.2927,-3363.0676L13595.2928,-3363.0678L13595.293,-3363.068L13595.2933,-3363.0681L13595.2938,-3363.0682L13595.2944,-3363.0683L13595.2948,-3363.0682L13595.2951,-3363.0681L13595.2952,-3363.0681L13595.2955,-3363.0679L13595.2959,-3363.0673L13595.2963,-3363.0668L13595.2968,-3363.0664L13595.2975,-3363.066L13595.2977,-3363.0658L13595.2978,-3363.0657L13595.2978,-3363.0655L13595.2977,-3363.0653L13595.2973,-3363.0647L13595.297,-3363.0642L13595.2968,-3363.0638L13595.2968,-3363.0637L13595.2967,-3363.0637Z"/>
<path content="和歌山県,,東牟婁郡,那智勝浦町,,30421" xlink:title="和歌山県" d="M13595.3024,-3363.1847L13595.3021,-3363.1846L13595.3019,-3363.1846L13595.3018,-3363.1847L13595.3016,-3363.1848L13595.3015,-3363.185L13595.3014,-3363.1855L13595.3014,-3363.186L13595.3015,-3363.1867L13595.3019,-3363.1875L13595.3024,-3363.1886L13595.3027,-3363.1889L13595.303,-3363.1892L13595.3033,-3363.1893L13595.3038,-3363.1894L13595.3043,-3363.1894L13595.3045,-3363.1894L13595.3049,-3363.1892L13595.3052,-3363.1891L13595.3054,-3363.1889L13595.3056,-3363.1886L13595.3056,-3363.1884L13595.3056,-3363.1882L13595.3055,-3363.188L13595.3053,-3363.1876L13595.3043,-3363.1868L13595.3041,-3363.1866L13595.304,-3363.1862L13595.3036,-3363.1857L13595.3031,-3363.1851L13595.3027,-3363.1848L13595.3024,-3363.1847Z"/>
<path content="和歌山県,,東牟婁郡,那智勝浦町,,30421" xlink:title="和歌山県" d="M13595.2052,-3363.0279L13595.2048,-3363.0278L13595.2045,-3363.0278L13595.2043,-3363.0279L13595.2042,-3363.0279L13595.2041,-3363.0281L13595.204,-3363.0283L13595.204,-3363.029L13595.204,-3363.0298L13595.2037,-3363.0309L13595.2038,-3363.0311L13595.2038,-3363.0312L13595.204,-3363.0314L13595.2043,-3363.0315L13595.2049,-3363.0316L13595.2059,-3363.0317L13595.2066,-3363.0316L13595.2071,-3363.0315L13595.2072,-3363.0314L13595.2073,-3363.0314L13595.2073,-3363.0312L13595.2071,-3363.031L13595.2061,-3363.03L13595.2059,-3363.0297L13595.2058,-3363.0295L13595.2058,-3363.0292L13595.2059,-3363.0286L13595.206,-3363.0284L13595.2059,-3363.0283L13595.2058,-3363.0281L13595.2055,-3363.028L13595.2052,-3363.0279Z"/>
<path content="和歌山県,,東牟婁郡,那智勝浦町,,30421" xlink:title="和歌山県" d="M13595.2144,-3363.0095L13595.2142,-3363.0094L13595.2141,-3363.0094L13595.214,-3363.0094L13595.2138,-3363.0096L13595.2134,-3363.0102L13595.213,-3363.0112L13595.2128,-3363.012L13595.2129,-3363.0124L13595.213,-3363.0128L13595.2131,-3363.013L13595.2133,-3363.0131L13595.2134,-3363.0132L13595.2137,-3363.0133L13595.2142,-3363.0133L13595.2147,-3363.0132L13595.2149,-3363.0132L13595.2152,-3363.013L13595.2154,-3363.0128L13595.2156,-3363.0126L13595.2158,-3363.0122L13595.2158,-3363.0118L13595.2158,-3363.0117L13595.2157,-3363.0113L13595.2153,-3363.0108L13595.2146,-3363.0097L13595.2144,-3363.0095Z"/>
<path content="和歌山県,,東牟婁郡,那智勝浦町,,30421" xlink:title="和歌山県" d="M13595.2241,-3363.0194L13595.2238,-3363.0194L13595.2235,-3363.0194L13595.2232,-3363.0194L13595.2229,-3363.0196L13595.2225,-3363.0199L13595.2222,-3363.0203L13595.222,-3363.0207L13595.222,-3363.0211L13595.222,-3363.0214L13595.2222,-3363.0217L13595.2224,-3363.0218L13595.2226,-3363.0219L13595.2231,-3363.022L13595.224,-3363.0221L13595.2245,-3363.022L13595.2246,-3363.022L13595.2249,-3363.0218L13595.2251,-3363.0216L13595.2253,-3363.0214L13595.2255,-3363.0211L13595.2255,-3363.0208L13595.2255,-3363.0207L13595.2254,-3363.0204L13595.2253,-3363.0201L13595.225,-3363.0199L13595.2246,-3363.0196L13595.2241,-3363.0194Z"/>
<path content="和歌山県,,東牟婁郡,那智勝浦町,,30421" xlink:title="和歌山県" d="M13595.2478,-3362.9173L13595.2473,-3362.9173L13595.2469,-3362.9173L13595.246,-3362.9172L13595.2458,-3362.9173L13595.2456,-3362.9174L13595.2453,-3362.9175L13595.2451,-3362.9179L13595.2449,-3362.9182L13595.2447,-3362.9188L13595.2446,-3362.919L13595.2447,-3362.9193L13595.2448,-3362.9194L13595.2451,-3362.9195L13595.2455,-3362.9195L13595.2464,-3362.9193L13595.2475,-3362.919L13595.2481,-3362.9187L13595.2483,-3362.9185L13595.2484,-3362.9183L13595.2484,-3362.918L13595.2484,-3362.9177L13595.2482,-3362.9175L13595.248,-3362.9174L13595.2478,-3362.9173Z"/>
<path content="和歌山県,,東牟婁郡,那智勝浦町,,30421" xlink:title="和歌山県" d="M13595.206,-3363.0217L13595.2057,-3363.0216L13595.2055,-3363.0216L13595.2054,-3363.0216L13595.2052,-3363.0218L13595.205,-3363.022L13595.2049,-3363.0223L13595.2048,-3363.0226L13595.2048,-3363.0227L13595.2049,-3363.023L13595.205,-3363.0233L13595.2051,-3363.0236L13595.2054,-3363.0238L13595.2057,-3363.0239L13595.2059,-3363.024L13595.2064,-3363.024L13595.2067,-3363.024L13595.207,-3363.0239L13595.2073,-3363.0236L13595.2073,-3363.0234L13595.2073,-3363.0232L13595.2073,-3363.0229L13595.2071,-3363.0226L13595.2067,-3363.0222L13595.2063,-3363.0218L13595.206,-3363.0217Z"/>
</g>
</svg>
