<?xml version="1.0" encoding="UTF-8"?>
<svg  xmlns="http://www.w3.org/2000/svg" xmlns:xlink="http://www.w3.org/1999/xlink" xmlns:go="http://purl.org/svgmap/profile" property="geometry,N03_001,N03_002,N03_003,N03_004,N03_005,N03_007" viewBox="13447.265625 -3563.96484375 4.39453125 4.39453125" go:dataArea="13447.265625 -3563.96484375 4.39453125 4.39453125" >
<metadata>
 <rdf:RDF xmlns:rdf="http://www.w3.org/1999/02/22-rdf-syntax-ns#" xmlns:crs="http://opengis.org/xmldtds/transformations.dtd" xmlns:svg="http://www.w3.org/svg" >
  <rdf:Description>
   <crs:CoordinateReferenceSystem rdf:resource="http://purl.org/crs/84" svg:transform="matrix(100.0,0.0,0.0,-100.0,0.0,0.0)" />
  </rdf:Description>
 </rdf:RDF>
</metadata>
<globalCoordinateSystem srsName="http://purl.org/crs/84" transform="matrix(100.0,0.0,0.0,-100.0,0.0,0.0)" />
<defs>
 <g id="p0" >
  <circle cx="0.0" cy="0.0" r="3" stroke="green" stroke-width="2.0" vector-effect="non-scaling-stroke" />
 </g>
</defs>
<g fill="#0000ff" fill-rule="evenodd" opacity="0.5" >
<path content="兵庫県,,美方郡,新温泉町,,28586" xlink:title="兵庫県" d="M13451.6602,-3563.9648L13451.6602,-3559.5703L13447.2656,-3559.5703L13447.2656,-3563.9032L13447.2682,-3563.9067L13447.2781,-3563.9216L13447.2814,-3563.926L13447.2911,-3563.9365L13447.3007,-3563.9459L13447.3082,-3563.952L13447.3068,-3563.9546L13447.3047,-3563.9603L13447.2993,-3563.9631L13447.2978,-3563.9648L13447.325,-3563.9648L13447.3262,-3563.9637L13447.3296,-3563.9563L13447.3395,-3563.9589L13447.3541,-3563.9612L13447.3679,-3563.9647L13447.3682,-3563.9648Z"/>
<path content="兵庫県,,美方郡,新温泉町,,28586" xlink:title="兵庫県" d="M13447.2813,-3563.9507L13447.2827,-3563.9501L13447.2841,-3563.9501L13447.2861,-3563.9484L13447.2861,-3563.9479L13447.2868,-3563.9473L13447.2868,-3563.9439L13447.2861,-3563.9434L13447.2861,-3563.9428L13447.2848,-3563.9417L13447.2827,-3563.9417L13447.282,-3563.9423L13447.2806,-3563.9423L13447.2799,-3563.9428L13447.2793,-3563.9428L13447.2793,-3563.9434L13447.2786,-3563.9439L13447.2793,-3563.9445L13447.2786,-3563.9451L13447.2793,-3563.9456L13447.2793,-3563.9462L13447.2786,-3563.9468L13447.2786,-3563.949L13447.2799,-3563.9501L13447.2806,-3563.9501L13447.2813,-3563.9507Z"/>
<path content="兵庫県,,美方郡,新温泉町,,28586" xlink:title="兵庫県" d="M13447.2656,-3563.9428L13447.2661,-3563.9428L13447.2661,-3563.9423L13447.2668,-3563.9417L13447.2668,-3563.94L13447.2661,-3563.9394L13447.2661,-3563.9389L13447.2656,-3563.9384Z"/>
</g>
</svg>
