<?xml version="1.0" encoding="UTF-8"?>
<svg  xmlns="http://www.w3.org/2000/svg" xmlns:xlink="http://www.w3.org/1999/xlink" xmlns:go="http://purl.org/svgmap/profile" property="geometry,N03_001,N03_002,N03_003,N03_004,N03_005,N03_007" viewBox="13596.6796875 -3454.1015625 8.7890625 8.7890625" go:dataArea="13596.6796875 -3454.1015625 8.7890625 8.7890625" >
<metadata>
 <rdf:RDF xmlns:rdf="http://www.w3.org/1999/02/22-rdf-syntax-ns#" xmlns:crs="http://opengis.org/xmldtds/transformations.dtd" xmlns:svg="http://www.w3.org/svg" >
  <rdf:Description>
   <crs:CoordinateReferenceSystem rdf:resource="http://purl.org/crs/84" svg:transform="matrix(100.0,0.0,0.0,-100.0,0.0,0.0)" />
  </rdf:Description>
 </rdf:RDF>
</metadata>
<globalCoordinateSystem srsName="http://purl.org/crs/84" transform="matrix(100.0,0.0,0.0,-100.0,0.0,0.0)" />
<defs>
 <g id="p0" >
  <circle cx="0.0" cy="0.0" r="3" stroke="green" stroke-width="2.0" vector-effect="non-scaling-stroke" />
 </g>
</defs>
<g fill="#0000ff" fill-rule="evenodd" opacity="0.5" >
<path content="奈良県,,,宇陀市,,29212" xlink:title="奈良県" d="M13605.4687,-3454.1016L13605.4688,-3447.9165L13605.4195,-3447.9053L13605.3867,-3447.9014L13605.3342,-3447.8826L13605.2598,-3447.8486L13605.252,-3447.8445L13605.1686,-3447.8011L13605.1495,-3447.7863L13605.1287,-3447.7721L13605.1168,-3447.7711L13605.0846,-3447.7686L13605.0397,-3447.7715L13605,-3447.7753L13604.8993,-3447.7848L13604.7859,-3447.7922L13604.7597,-3447.7878L13604.7228,-3447.7912L13604.6514,-3447.8021L13604.5871,-3447.8041L13604.5615,-3447.8036L13604.5381,-3447.8095L13604.4607,-3447.8317L13604.4155,-3447.8415L13604.3953,-3447.842L13604.3397,-3447.8415L13604.2916,-3447.8386L13604.2701,-3447.8406L13604.216,-3447.8558L13604.1879,-3447.8596L13604.1791,-3447.8607L13604.1667,-3447.862L13604.1491,-3447.8638L13604.133,-3447.8678L13604.1128,-3447.8811L13604.0801,-3447.9096L13604.0491,-3447.9225L13603.9913,-3447.9467L13603.9483,-3447.9517L13603.918,-3447.9675L13603.8746,-3447.9887L13603.8561,-3447.9872L13603.843,-3447.9793L13603.8297,-3447.9665L13603.8184,-3447.9636L13603.8041,-3447.9621L13603.7904,-3447.9651L13603.7764,-3447.9642L13603.7717,-3447.9639L13603.763,-3447.9633L13603.7616,-3447.961L13603.7601,-3447.9584L13603.7613,-3447.949L13603.772,-3447.9273L13603.7869,-3447.9052L13603.8143,-3447.8689L13603.8256,-3447.8566L13603.8316,-3447.8468L13603.8334,-3447.8177L13603.8423,-3447.7985L13603.85,-3447.7877L13603.8768,-3447.7709L13603.9262,-3447.7463L13603.9501,-3447.7282L13603.9739,-3447.6869L13603.9853,-3447.6721L13604.0073,-3447.6573L13604.0477,-3447.6248L13604.0769,-3447.6159L13604.0941,-3447.6095L13604.1132,-3447.5947L13604.1294,-3447.5722L13604.1467,-3447.5545L13604.1592,-3447.5382L13604.1667,-3447.5326L13604.1794,-3447.523L13604.2127,-3447.5072L13604.2228,-3447.5L13604.2449,-3447.4841L13604.2574,-3447.4752L13604.2901,-3447.4668L13604.3284,-3447.4513L13604.3814,-3447.4173L13604.4195,-3447.3853L13604.4499,-3447.3484L13604.4591,-3447.339L13604.4707,-3447.3272L13604.4933,-3447.3193L13604.56,-3447.3124L13604.6013,-3447.2988L13604.6608,-3447.2732L13604.7197,-3447.2416L13604.7447,-3447.2081L13604.7978,-3447.1636L13604.8222,-3447.1434L13604.8532,-3447.0991L13604.8728,-3447.0858L13604.9141,-3447.0709L13604.9361,-3447.0689L13604.9718,-3447.0782L13604.9796,-3447.0753L13604.9926,-3447.0551L13604.998,-3447.0359L13604.9974,-3447.0179L13604.9942,-3447.0071L13604.9912,-3446.9975L13604.9831,-3446.9706L13604.9647,-3446.9391L13604.9521,-3446.9216L13604.898,-3446.8807L13604.8605,-3446.8733L13604.8158,-3446.863L13604.7686,-3446.8411L13604.7425,-3446.8278L13604.7368,-3446.8227L13604.7264,-3446.8136L13604.7121,-3446.7924L13604.7104,-3446.7751L13604.6955,-3446.7613L13604.6674,-3446.7482L13604.6288,-3446.7048L13604.6133,-3446.6757L13604.6123,-3446.6667L13604.6109,-3446.6534L13604.6061,-3446.6362L13604.5948,-3446.6234L13604.5823,-3446.613L13604.5639,-3446.6105L13604.5448,-3446.6101L13604.5115,-3446.6125L13604.435,-3446.6086L13604.3714,-3446.5997L13604.3511,-3446.5908L13604.3297,-3446.5696L13604.3188,-3446.5513L13604.3081,-3446.5178L13604.2976,-3446.5029L13604.2837,-3446.4833L13604.2634,-3446.4599L13604.2569,-3446.3772L13604.2533,-3446.3646L13604.245,-3446.3528L13604.217,-3446.3321L13604.2099,-3446.3139L13604.2015,-3446.3055L13604.1843,-3446.2996L13604.1667,-3446.2982L13604.152,-3446.297L13604.1199,-3446.2797L13604.0949,-3446.264L13604.08,-3446.2576L13604.0526,-3446.2541L13604.0288,-3446.2512L13603.9925,-3446.2423L13603.955,-3446.2418L13603.8977,-3446.2507L13603.8685,-3446.2437L13603.7971,-3446.2162L13603.7315,-3446.1884L13603.7053,-3446.1781L13603.691,-3446.1662L13603.6821,-3446.149L13603.6778,-3446.105L13603.6747,-3446.0847L13603.67,-3446.0748L13603.6629,-3446.0674L13603.6562,-3446.0649L13603.58,-3446.0536L13603.5556,-3446.0467L13603.4889,-3446.0166L13603.4764,-3446.0146L13603.4685,-3446.0151L13603.4681,-3446.0151L13603.4573,-3446.0166L13603.4419,-3446.0229L13603.4169,-3446.0318L13603.3943,-3446.0318L13603.377,-3446.0259L13603.3496,-3446.0047L13603.3333,-3445.9881L13603.3293,-3445.9839L13603.2649,-3445.9607L13603.2531,-3445.9543L13603.2047,-3445.9197L13603.1731,-3445.8961L13603.1513,-3445.8896L13603.1219,-3445.8808L13603.091,-3445.8621L13603.0833,-3445.8463L13603.0828,-3445.8333L13603.0827,-3445.8291L13603.1166,-3445.7769L13603.1231,-3445.7632L13603.1226,-3445.7386L13603.1178,-3445.7218L13603.0791,-3445.6695L13603.0767,-3445.6591L13603.0666,-3445.6351L13603.0523,-3445.6009L13603.0374,-3445.5832L13603.0207,-3445.5847L13602.9927,-3445.6004L13602.9755,-3445.6108L13602.9636,-3445.6127L13602.9205,-3445.6122L13602.9008,-3445.6151L13602.8705,-3445.6225L13602.8622,-3445.6216L13602.852,-3445.6166L13602.8467,-3445.6077L13602.8445,-3445.5955L13602.8425,-3445.5846L13602.836,-3445.5777L13602.8139,-3445.5708L13602.7824,-3445.5708L13602.7443,-3445.5861L13602.7324,-3445.5905L13602.7199,-3445.5915L13602.7014,-3445.5895L13602.6699,-3445.5732L13602.6539,-3445.5683L13602.6265,-3445.5614L13602.5649,-3445.5309L13602.5464,-3445.523L13602.5262,-3445.5082L13602.5054,-3445.4979L13602.5,-3445.4975L13602.4834,-3445.4964L13602.4619,-3445.4992L13602.435,-3445.5028L13602.3999,-3445.5117L13602.3327,-3445.5112L13602.2946,-3445.5205L13602.2469,-3445.5245L13602.1806,-3445.5407L13602.1253,-3445.5565L13602.0771,-3445.556L13602.0187,-3445.5457L13601.9878,-3445.5319L13601.9661,-3445.5205L13601.8881,-3445.4993L13601.834,-3445.4904L13601.8231,-3445.4929L13601.8052,-3445.4998L13601.7879,-3445.4998L13601.7866,-3445.4992L13601.7677,-3445.4909L13601.7552,-3445.4791L13601.7463,-3445.4677L13601.7409,-3445.4542L13601.7397,-3445.4109L13601.7384,-3445.3871L13601.7289,-3445.3728L13601.7158,-3445.3679L13601.698,-3445.358L13601.6819,-3445.3427L13601.6667,-3445.3401L13601.6653,-3445.3398L13601.6444,-3445.3457L13601.6295,-3445.36L13601.62,-3445.3674L13601.5974,-3445.3723L13601.5599,-3445.3738L13601.5315,-3445.3838L13601.5307,-3445.3841L13601.4948,-3445.393L13601.4608,-3445.3964L13601.44,-3445.3915L13601.4012,-3445.3772L13601.3922,-3445.3777L13601.3458,-3445.3821L13601.3354,-3445.3767L13601.3136,-3445.3653L13601.2946,-3445.353L13601.2875,-3445.3427L13601.2837,-3445.3338L13601.2848,-3445.3243L13601.2873,-3445.3125L13596.6797,-3445.3125L13596.6797,-3454.1016Z"/>
<path content="奈良県,,吉野郡,東吉野村,,29453" xlink:title="奈良県" d="M13603.918,-3447.9675L13603.9483,-3447.9517L13603.9913,-3447.9467L13604.0491,-3447.9225L13604.0801,-3447.9096L13604.1128,-3447.8811L13604.133,-3447.8678L13604.1491,-3447.8638L13604.1667,-3447.862L13604.1791,-3447.8607L13604.1879,-3447.8596L13604.216,-3447.8558L13604.2701,-3447.8406L13604.2916,-3447.8386L13604.3397,-3447.8415L13604.3953,-3447.842L13604.4155,-3447.8415L13604.4607,-3447.8317L13604.5381,-3447.8095L13604.5615,-3447.8036L13604.5871,-3447.8041L13604.6514,-3447.8021L13604.7228,-3447.7912L13604.7597,-3447.7878L13604.7859,-3447.7922L13604.8993,-3447.7848L13605,-3447.7753L13605.0397,-3447.7715L13605.0846,-3447.7686L13605.1168,-3447.7711L13605.1287,-3447.7721L13605.1495,-3447.7863L13605.1686,-3447.8011L13605.252,-3447.8445L13605.2598,-3447.8486L13605.3342,-3447.8826L13605.3867,-3447.9014L13605.4195,-3447.9053L13605.4688,-3447.9165L13605.4688,-3445.3125L13601.2873,-3445.3125L13601.2848,-3445.3243L13601.2837,-3445.3338L13601.2875,-3445.3427L13601.2946,-3445.353L13601.3136,-3445.3653L13601.3354,-3445.3767L13601.3458,-3445.3821L13601.3922,-3445.3777L13601.4012,-3445.3772L13601.44,-3445.3915L13601.4608,-3445.3964L13601.4948,-3445.393L13601.5307,-3445.3841L13601.5315,-3445.3838L13601.5599,-3445.3738L13601.5974,-3445.3723L13601.62,-3445.3674L13601.6295,-3445.36L13601.6444,-3445.3457L13601.6653,-3445.3398L13601.6667,-3445.3401L13601.6819,-3445.3427L13601.698,-3445.358L13601.7158,-3445.3679L13601.7289,-3445.3728L13601.7384,-3445.3871L13601.7397,-3445.4109L13601.7409,-3445.4542L13601.7463,-3445.4677L13601.7552,-3445.4791L13601.7677,-3445.4909L13601.7866,-3445.4992L13601.7879,-3445.4998L13601.8052,-3445.4998L13601.8231,-3445.4929L13601.834,-3445.4904L13601.8881,-3445.4993L13601.9661,-3445.5205L13601.9878,-3445.5319L13602.0187,-3445.5457L13602.0771,-3445.556L13602.1253,-3445.5565L13602.1806,-3445.5407L13602.2469,-3445.5245L13602.2946,-3445.5205L13602.3327,-3445.5112L13602.3999,-3445.5117L13602.435,-3445.5028L13602.4619,-3445.4992L13602.4834,-3445.4964L13602.5,-3445.4975L13602.5054,-3445.4979L13602.5262,-3445.5082L13602.5464,-3445.523L13602.5649,-3445.5309L13602.6265,-3445.5614L13602.6539,-3445.5683L13602.6699,-3445.5732L13602.7014,-3445.5895L13602.7199,-3445.5915L13602.7324,-3445.5905L13602.7443,-3445.5861L13602.7824,-3445.5708L13602.8139,-3445.5708L13602.836,-3445.5777L13602.8425,-3445.5846L13602.8445,-3445.5955L13602.8467,-3445.6077L13602.852,-3445.6166L13602.8622,-3445.6216L13602.8705,-3445.6225L13602.9008,-3445.6151L13602.9205,-3445.6122L13602.9636,-3445.6127L13602.9755,-3445.6108L13602.9927,-3445.6004L13603.0207,-3445.5847L13603.0374,-3445.5832L13603.0523,-3445.6009L13603.0666,-3445.6351L13603.0767,-3445.6591L13603.0791,-3445.6695L13603.1178,-3445.7218L13603.1226,-3445.7386L13603.1231,-3445.7632L13603.1166,-3445.7769L13603.0827,-3445.8291L13603.0828,-3445.8333L13603.0833,-3445.8463L13603.091,-3445.8621L13603.1219,-3445.8808L13603.1513,-3445.8896L13603.1731,-3445.8961L13603.2047,-3445.9197L13603.2531,-3445.9543L13603.2649,-3445.9607L13603.3293,-3445.9839L13603.3333,-3445.9881L13603.3496,-3446.0047L13603.377,-3446.0259L13603.3943,-3446.0318L13603.4169,-3446.0318L13603.4419,-3446.0229L13603.4573,-3446.0166L13603.4681,-3446.0151L13603.4685,-3446.0151L13603.4764,-3446.0146L13603.4889,-3446.0166L13603.5556,-3446.0467L13603.58,-3446.0536L13603.6562,-3446.0649L13603.6629,-3446.0674L13603.67,-3446.0748L13603.6747,-3446.0847L13603.6778,-3446.105L13603.6821,-3446.149L13603.691,-3446.1662L13603.7053,-3446.1781L13603.7315,-3446.1884L13603.7971,-3446.2162L13603.8685,-3446.2437L13603.8977,-3446.2507L13603.955,-3446.2418L13603.9925,-3446.2423L13604.0288,-3446.2512L13604.0526,-3446.2541L13604.08,-3446.2576L13604.0949,-3446.264L13604.1199,-3446.2797L13604.152,-3446.297L13604.1667,-3446.2982L13604.1843,-3446.2996L13604.2015,-3446.3055L13604.2099,-3446.3139L13604.217,-3446.3321L13604.245,-3446.3528L13604.2533,-3446.3646L13604.2569,-3446.3772L13604.2634,-3446.4599L13604.2837,-3446.4833L13604.2976,-3446.5029L13604.3081,-3446.5178L13604.3188,-3446.5513L13604.3297,-3446.5696L13604.3511,-3446.5908L13604.3714,-3446.5997L13604.435,-3446.6086L13604.5115,-3446.6125L13604.5448,-3446.6101L13604.5639,-3446.6105L13604.5823,-3446.613L13604.5948,-3446.6234L13604.6061,-3446.6362L13604.6109,-3446.6534L13604.6123,-3446.6667L13604.6133,-3446.6757L13604.6288,-3446.7048L13604.6674,-3446.7482L13604.6955,-3446.7613L13604.7104,-3446.7751L13604.7121,-3446.7924L13604.7264,-3446.8136L13604.7368,-3446.8227L13604.7425,-3446.8278L13604.7686,-3446.8411L13604.8158,-3446.863L13604.8605,-3446.8733L13604.898,-3446.8807L13604.9521,-3446.9216L13604.9647,-3446.9391L13604.9831,-3446.9706L13604.9912,-3446.9975L13604.9942,-3447.0071L13604.9974,-3447.0179L13604.998,-3447.0359L13604.9926,-3447.0551L13604.9796,-3447.0753L13604.9718,-3447.0782L13604.9361,-3447.0689L13604.9141,-3447.0709L13604.8728,-3447.0858L13604.8532,-3447.0991L13604.8222,-3447.1434L13604.7978,-3447.1636L13604.7447,-3447.2081L13604.7197,-3447.2416L13604.6608,-3447.2732L13604.6013,-3447.2988L13604.56,-3447.3124L13604.4933,-3447.3193L13604.4707,-3447.3272L13604.4591,-3447.339L13604.4499,-3447.3484L13604.4195,-3447.3853L13604.3814,-3447.4173L13604.3284,-3447.4513L13604.2901,-3447.4668L13604.2574,-3447.4752L13604.2449,-3447.4841L13604.2228,-3447.5L13604.2127,-3447.5072L13604.1794,-3447.523L13604.1667,-3447.5326L13604.1592,-3447.5382L13604.1467,-3447.5545L13604.1294,-3447.5722L13604.1132,-3447.5947L13604.0941,-3447.6095L13604.0769,-3447.6159L13604.0477,-3447.6248L13604.0073,-3447.6573L13603.9853,-3447.6721L13603.9739,-3447.6869L13603.9501,-3447.7282L13603.9262,-3447.7463L13603.8768,-3447.7709L13603.85,-3447.7877L13603.8423,-3447.7985L13603.8334,-3447.8177L13603.8316,-3447.8468L13603.8256,-3447.8566L13603.8143,-3447.8689L13603.7869,-3447.9052L13603.772,-3447.9273L13603.7613,-3447.949L13603.7601,-3447.9584L13603.7616,-3447.961L13603.763,-3447.9633L13603.7717,-3447.9639L13603.7764,-3447.9642L13603.7904,-3447.9651L13603.8041,-3447.9621L13603.8184,-3447.9636L13603.8297,-3447.9665L13603.843,-3447.9793L13603.8561,-3447.9872L13603.8746,-3447.9887L13603.918,-3447.9675Z"/>
</g>
</svg>
