<?xml version="1.0" encoding="UTF-8"?>
<svg  xmlns="http://www.w3.org/2000/svg" xmlns:xlink="http://www.w3.org/1999/xlink" xmlns:go="http://purl.org/svgmap/profile" property="geometry,N03_001,N03_002,N03_003,N03_004,N03_005,N03_007" viewBox="13471.435546875 -3568.359375 2.197265625 2.197265625" go:dataArea="13471.435546875 -3568.359375 2.197265625 2.197265625" >
<metadata>
 <rdf:RDF xmlns:rdf="http://www.w3.org/1999/02/22-rdf-syntax-ns#" xmlns:crs="http://opengis.org/xmldtds/transformations.dtd" xmlns:svg="http://www.w3.org/svg" >
  <rdf:Description>
   <crs:CoordinateReferenceSystem rdf:resource="http://purl.org/crs/84" svg:transform="matrix(100.0,0.0,0.0,-100.0,0.0,0.0)" />
  </rdf:Description>
 </rdf:RDF>
</metadata>
<globalCoordinateSystem srsName="http://purl.org/crs/84" transform="matrix(100.0,0.0,0.0,-100.0,0.0,0.0)" />
<defs>
 <g id="p0" >
  <circle cx="0.0" cy="0.0" r="3" stroke="green" stroke-width="2.0" vector-effect="non-scaling-stroke" />
 </g>
</defs>
<g fill="#0000ff" fill-rule="evenodd" opacity="0.5" >
<path content="兵庫県,,,豊岡市,,28209" xlink:title="兵庫県" d="M13473.5732,-3566.166L13473.5739,-3566.166L13473.5749,-3566.1666L13473.5773,-3566.1666L13473.5786,-3566.1654L13473.5778,-3566.1634L13473.5765,-3566.1623L13473.5762,-3566.1621L13473.5592,-3566.1621L13473.5598,-3566.164L13473.5616,-3566.1647L13473.5618,-3566.1663L13473.563,-3566.1678L13473.5642,-3566.1682L13473.5667,-3566.1704L13473.5685,-3566.1703L13473.5704,-3566.1694L13473.5705,-3566.168L13473.5721,-3566.1677L13473.5732,-3566.166Z"/>
<path content="兵庫県,,,豊岡市,,28209" xlink:title="兵庫県" d="M13473.5387,-3566.1621L13473.5406,-3566.1649L13473.5455,-3566.1649L13473.5495,-3566.1621Z"/>
<path content="兵庫県,,,豊岡市,,28209" xlink:title="兵庫県" d="M13473.5442,-3566.1672L13473.5433,-3566.1664L13473.5412,-3566.1666L13473.5402,-3566.1676L13473.5399,-3566.1688L13473.5401,-3566.1708L13473.5417,-3566.1713L13473.5444,-3566.1691L13473.5442,-3566.1672Z"/>
<path content="兵庫県,,美方郡,香美町,,28585" xlink:title="兵庫県" d="M13471.4355,-3566.1621L13471.4355,-3566.478L13471.4409,-3566.4804L13471.448,-3566.4817L13471.4611,-3566.483L13471.4672,-3566.4867L13471.4717,-3566.487L13471.4774,-3566.4917L13471.4818,-3566.4938L13471.4855,-3566.4946L13471.491,-3566.5003L13471.4954,-3566.5024L13471.4948,-3566.5066L13471.4989,-3566.5127L13471.4991,-3566.513L13471.5033,-3566.514L13471.5055,-3566.5168L13471.5146,-3566.5202L13471.5178,-3566.5219L13471.5207,-3566.5284L13471.5213,-3566.5318L13471.5255,-3566.5318L13471.5372,-3566.5308L13471.5444,-3566.5312L13471.5632,-3566.5384L13471.5689,-3566.5463L13471.5723,-3566.5496L13471.571,-3566.554L13471.5726,-3566.5597L13471.576,-3566.563L13471.582,-3566.5647L13471.5837,-3566.5672L13471.5834,-3566.5716L13471.585,-3566.5787L13471.5893,-3566.5801L13471.5942,-3566.5816L13471.5961,-3566.5847L13471.5985,-3566.5864L13471.6002,-3566.5909L13471.5958,-3566.5949L13471.5952,-3566.6013L13471.5912,-3566.6031L13471.5838,-3566.603L13471.5814,-3566.6034L13471.5788,-3566.6079L13471.5767,-3566.6124L13471.5716,-3566.6141L13471.5689,-3566.617L13471.5667,-3566.6215L13471.5675,-3566.6257L13471.5626,-3566.6301L13471.5626,-3566.634L13471.5642,-3566.6407L13471.5598,-3566.6422L13471.5565,-3566.644L13471.5556,-3566.6524L13471.554,-3566.6556L13471.5544,-3566.6629L13471.5529,-3566.6651L13471.5531,-3566.6667L13471.5536,-3566.6719L13471.5573,-3566.6764L13471.5607,-3566.6816L13471.5619,-3566.6847L13471.5705,-3566.6878L13471.5757,-3566.6874L13471.5808,-3566.6862L13471.5874,-3566.686L13471.5936,-3566.6844L13471.5984,-3566.6824L13471.6017,-3566.6803L13471.6098,-3566.6801L13471.6164,-3566.6772L13471.6218,-3566.6741L13471.6296,-3566.6747L13471.6336,-3566.6719L13471.6355,-3566.6667L13471.637,-3566.6622L13471.6382,-3566.6607L13471.6442,-3566.6607L13471.6508,-3566.6572L13471.6536,-3566.6558L13471.6578,-3566.6584L13471.664,-3566.6574L13471.6667,-3566.6551L13471.6673,-3566.6546L13471.6694,-3566.6561L13471.674,-3566.6553L13471.6805,-3566.6506L13471.6809,-3566.649L13471.6856,-3566.6491L13471.6906,-3566.6444L13471.69,-3566.6388L13471.6927,-3566.6383L13471.6975,-3566.6368L13471.7015,-3566.6324L13471.7036,-3566.6299L13471.7006,-3566.6271L13471.6974,-3566.6271L13471.6929,-3566.6237L13471.6809,-3566.6194L13471.6791,-3566.617L13471.6722,-3566.6132L13471.6682,-3566.6074L13471.6667,-3566.6067L13471.663,-3566.605L13471.6609,-3566.6017L13471.6614,-3566.5951L13471.6595,-3566.5904L13471.6619,-3566.5858L13471.6662,-3566.5783L13471.6649,-3566.5755L13471.6667,-3566.5728L13471.6692,-3566.5688L13471.6688,-3566.5622L13471.6717,-3566.5581L13471.6752,-3566.5541L13471.6837,-3566.5508L13471.6867,-3566.5458L13471.6877,-3566.5443L13471.6925,-3566.5439L13471.698,-3566.5383L13471.7003,-3566.5331L13471.708,-3566.5349L13471.7144,-3566.5315L13471.7195,-3566.5321L13471.7206,-3566.5373L13471.722,-3566.5449L13471.7253,-3566.549L13471.732,-3566.5541L13471.7361,-3566.5503L13471.7316,-3566.5466L13471.7319,-3566.5421L13471.7299,-3566.536L13471.735,-3566.5313L13471.7375,-3566.5282L13471.7457,-3566.524L13471.7495,-3566.5175L13471.7536,-3566.5129L13471.7548,-3566.509L13471.7617,-3566.505L13471.7662,-3566.5038L13471.7679,-3566.4997L13471.7751,-3566.4936L13471.7824,-3566.4923L13471.7897,-3566.4893L13471.7926,-3566.4849L13471.7958,-3566.4839L13471.7999,-3566.484L13471.8085,-3566.4799L13471.8102,-3566.4754L13471.8161,-3566.4742L13471.8214,-3566.4677L13471.8222,-3566.4627L13471.8238,-3566.4592L13471.8281,-3566.4555L13471.8303,-3566.448L13471.8352,-3566.4472L13471.8369,-3566.4469L13471.8392,-3566.4472L13471.8415,-3566.4474L13471.843,-3566.4471L13471.8453,-3566.4467L13471.846,-3566.4471L13471.8537,-3566.4519L13471.8565,-3566.4534L13471.8597,-3566.4535L13471.8641,-3566.457L13471.8728,-3566.4644L13471.876,-3566.4651L13471.8742,-3566.4695L13471.8732,-3566.4715L13471.8716,-3566.4758L13471.8735,-3566.4802L13471.8753,-3566.4841L13471.8824,-3566.4853L13471.8845,-3566.491L13471.8841,-3566.4963L13471.8863,-3566.5016L13471.8891,-3566.5026L13471.9019,-3566.497L13471.9034,-3566.5001L13471.9053,-3566.5048L13471.9019,-3566.5083L13471.9013,-3566.5124L13471.906,-3566.5166L13471.9063,-3566.5234L13471.9114,-3566.5303L13471.9112,-3566.533L13471.9101,-3566.5365L13471.9114,-3566.5395L13471.913,-3566.5412L13471.9138,-3566.5425L13471.9153,-3566.5454L13471.9235,-3566.5504L13471.9292,-3566.5473L13471.9332,-3566.5446L13471.9372,-3566.5439L13471.9386,-3566.5476L13471.9365,-3566.5515L13471.938,-3566.5559L13471.9404,-3566.5596L13471.9409,-3566.5603L13471.9417,-3566.5612L13471.941,-3566.5645L13471.9409,-3566.5649L13471.9375,-3566.5701L13471.9363,-3566.573L13471.9314,-3566.5785L13471.9315,-3566.5828L13471.9353,-3566.5879L13471.9366,-3566.5895L13471.9382,-3566.5942L13471.9411,-3566.5957L13471.9449,-3566.5978L13471.948,-3566.5989L13471.9513,-3566.6018L13471.9527,-3566.6114L13471.9561,-3566.6164L13471.9596,-3566.6183L13471.9622,-3566.6227L13471.9661,-3566.6266L13471.9766,-3566.6323L13471.979,-3566.6377L13471.9856,-3566.6394L13471.9886,-3566.6417L13471.9955,-3566.6427L13471.9974,-3566.6393L13471.998,-3566.6365L13472.0089,-3566.6308L13472.0152,-3566.6312L13472.0157,-3566.635L13472.0204,-3566.6383L13472.0229,-3566.6395L13472.0223,-3566.6432L13472.0245,-3566.6471L13472.0244,-3566.6515L13472.0263,-3566.6556L13472.0293,-3566.6583L13472.029,-3566.6626L13472.0352,-3566.6658L13472.036,-3566.6659L13472.0363,-3566.6667L13472.0371,-3566.6689L13472.0408,-3566.6718L13472.0485,-3566.6731L13472.053,-3566.6707L13472.0612,-3566.6703L13472.0654,-3566.6674L13472.0698,-3566.6683L13472.0731,-3566.6674L13472.0748,-3566.6689L13472.0777,-3566.6718L13472.0835,-3566.6736L13472.085,-3566.6777L13472.0911,-3566.6813L13472.096,-3566.6813L13472.0974,-3566.6835L13472.0999,-3566.6859L13472.1064,-3566.6881L13472.1119,-3566.6875L13472.1148,-3566.6931L13472.1235,-3566.6934L13472.1276,-3566.6923L13472.1291,-3566.6947L13472.1296,-3566.6986L13472.1375,-3566.6998L13472.1405,-3566.7025L13472.1505,-3566.7062L13472.1524,-3566.7048L13472.1529,-3566.708L13472.1604,-3566.7126L13472.1657,-3566.7125L13472.1684,-3566.7156L13472.1727,-3566.7165L13472.1792,-3566.7178L13472.182,-3566.7165L13472.1824,-3566.7163L13472.1826,-3566.7165L13472.1851,-3566.7188L13472.1951,-3566.7194L13472.1975,-3566.7186L13472.2019,-3566.7205L13472.207,-3566.721L13472.2111,-3566.7202L13472.214,-3566.7216L13472.2213,-3566.721L13472.2272,-3566.7174L13472.2278,-3566.7163L13472.229,-3566.7145L13472.2339,-3566.711L13472.2356,-3566.7077L13472.2397,-3566.7037L13472.2408,-3566.7008L13472.2473,-3566.6988L13472.2517,-3566.6963L13472.2569,-3566.6956L13472.2627,-3566.6922L13472.2676,-3566.6881L13472.2681,-3566.6833L13472.2733,-3566.6783L13472.2751,-3566.6725L13472.279,-3566.6702L13472.2798,-3566.6667L13472.2804,-3566.6641L13472.284,-3566.6601L13472.2848,-3566.6579L13472.2912,-3566.6521L13472.2916,-3566.6481L13472.2979,-3566.6424L13472.298,-3566.6379L13472.3048,-3566.6352L13472.3098,-3566.6283L13472.3146,-3566.6257L13472.3191,-3566.6216L13472.3208,-3566.6184L13472.3244,-3566.617L13472.3282,-3566.6129L13472.3291,-3566.6099L13472.3337,-3566.6079L13472.3368,-3566.6032L13472.3407,-3566.6024L13472.3457,-3566.5959L13472.3461,-3566.5898L13472.353,-3566.5822L13472.356,-3566.5759L13472.3611,-3566.573L13472.3663,-3566.57L13472.3672,-3566.5656L13472.3716,-3566.5629L13472.3741,-3566.5561L13472.3795,-3566.5529L13472.3823,-3566.5524L13472.3818,-3566.5593L13472.38,-3566.5665L13472.3807,-3566.5715L13472.3797,-3566.5773L13472.3829,-3566.5804L13472.3833,-3566.5808L13472.3872,-3566.5799L13472.3925,-3566.5751L13472.3937,-3566.5726L13472.396,-3566.5728L13472.397,-3566.5772L13472.3993,-3566.5827L13472.4008,-3566.5856L13472.4024,-3566.5877L13472.4061,-3566.5912L13472.4124,-3566.5925L13472.4147,-3566.594L13472.414,-3566.6007L13472.4074,-3566.6063L13472.4048,-3566.6115L13472.4023,-3566.6162L13472.4018,-3566.6194L13472.402,-3566.6235L13472.4045,-3566.6256L13472.4044,-3566.6283L13472.4102,-3566.6301L13472.4145,-3566.6257L13472.4162,-3566.6221L13472.4241,-3566.62L13472.4279,-3566.6179L13472.4356,-3566.6193L13472.4374,-3566.6222L13472.4376,-3566.6256L13472.4407,-3566.6299L13472.4447,-3566.6316L13472.446,-3566.6384L13472.4498,-3566.6407L13472.4518,-3566.6412L13472.4516,-3566.6442L13472.4546,-3566.6461L13472.4597,-3566.6455L13472.4614,-3566.641L13472.4633,-3566.6381L13472.4668,-3566.6449L13472.4648,-3566.6503L13472.4634,-3566.6537L13472.4641,-3566.6584L13472.4621,-3566.6619L13472.4601,-3566.6667L13472.4569,-3566.6747L13472.4578,-3566.6776L13472.4622,-3566.6805L13472.4623,-3566.6839L13472.4701,-3566.687L13472.4777,-3566.6861L13472.4795,-3566.6833L13472.4896,-3566.6851L13472.4965,-3566.6949L13472.4962,-3566.6977L13472.4981,-3566.6998L13472.5,-3566.7006L13472.5031,-3566.7017L13472.5091,-3566.6964L13472.5198,-3566.6957L13472.5224,-3566.6964L13472.5269,-3566.6984L13472.5307,-3566.6974L13472.5336,-3566.6984L13472.5378,-3566.699L13472.5433,-3566.6959L13472.5444,-3566.6951L13472.5499,-3566.6985L13472.5561,-3566.6974L13472.5636,-3566.6907L13472.5626,-3566.6853L13472.5636,-3566.6736L13472.565,-3566.6683L13472.5645,-3566.6667L13472.5638,-3566.6646L13472.5652,-3566.6573L13472.5669,-3566.6565L13472.5721,-3566.6536L13472.5782,-3566.6472L13472.5785,-3566.6449L13472.5841,-3566.6408L13472.5902,-3566.6368L13472.5943,-3566.633L13472.6004,-3566.6322L13472.6061,-3566.6278L13472.6069,-3566.6234L13472.6053,-3566.6199L13472.5969,-3566.6162L13472.6024,-3566.6114L13472.6044,-3566.6082L13472.6155,-3566.6094L13472.6198,-3566.6044L13472.6209,-3566.5997L13472.622,-3566.5985L13472.6265,-3566.5971L13472.6337,-3566.5896L13472.6342,-3566.5877L13472.6386,-3566.584L13472.6412,-3566.5778L13472.6409,-3566.5722L13472.6399,-3566.567L13472.6397,-3566.5583L13472.6409,-3566.5526L13472.6437,-3566.5501L13472.6499,-3566.5498L13472.6552,-3566.5429L13472.6682,-3566.5376L13472.6695,-3566.5351L13472.6766,-3566.5329L13472.6835,-3566.5283L13472.6887,-3566.5279L13472.6953,-3566.525L13472.6988,-3566.524L13472.7014,-3566.5183L13472.7059,-3566.5119L13472.7043,-3566.5178L13472.7065,-3566.5214L13472.7068,-3566.5245L13472.7084,-3566.5278L13472.7152,-3566.531L13472.7205,-3566.5292L13472.7249,-3566.5291L13472.7279,-3566.5324L13472.7288,-3566.5343L13472.7372,-3566.5344L13472.7427,-3566.5277L13472.7495,-3566.5226L13472.7521,-3566.5187L13472.7469,-3566.5126L13472.7483,-3566.508L13472.752,-3566.5018L13472.752,-3566.4957L13472.7469,-3566.496L13472.7424,-3566.4934L13472.7473,-3566.4856L13472.7529,-3566.4839L13472.7564,-3566.482L13472.7592,-3566.4803L13472.7653,-3566.4786L13472.7683,-3566.475L13472.7708,-3566.4707L13472.7749,-3566.4685L13472.7758,-3566.4622L13472.7743,-3566.4549L13472.7747,-3566.4494L13472.7671,-3566.4459L13472.7668,-3566.4442L13472.7663,-3566.4417L13472.7741,-3566.4356L13472.7753,-3566.4277L13472.7747,-3566.4231L13472.7706,-3566.4206L13472.7647,-3566.4203L13472.7616,-3566.4157L13472.7637,-3566.4088L13472.7678,-3566.4021L13472.7749,-3566.4004L13472.7832,-3566.3971L13472.7883,-3566.395L13472.7902,-3566.3919L13472.7939,-3566.4001L13472.7989,-3566.4064L13472.8018,-3566.407L13472.8045,-3566.4052L13472.8096,-3566.4056L13472.811,-3566.4093L13472.8114,-3566.4199L13472.8163,-3566.4238L13472.8212,-3566.4233L13472.8239,-3566.4208L13472.8258,-3566.419L13472.8239,-3566.4164L13472.8209,-3566.4125L13472.8189,-3566.4091L13472.8185,-3566.4041L13472.8145,-3566.4002L13472.8148,-3566.397L13472.8145,-3566.391L13472.8195,-3566.3891L13472.8149,-3566.3806L13472.8098,-3566.3809L13472.8004,-3566.3791L13472.7986,-3566.3744L13472.7991,-3566.369L13472.8033,-3566.3631L13472.8018,-3566.3587L13472.8027,-3566.3544L13472.8007,-3566.3497L13472.7979,-3566.3464L13472.7986,-3566.3434L13472.8071,-3566.3426L13472.8101,-3566.3402L13472.8108,-3566.3371L13472.8141,-3566.3335L13472.816,-3566.3295L13472.8122,-3566.3255L13472.8106,-3566.3205L13472.8064,-3566.3166L13472.7994,-3566.3144L13472.795,-3566.308L13472.7884,-3566.3048L13472.7845,-3566.3018L13472.776,-3566.2994L13472.763,-3566.3042L13472.7562,-3566.3029L13472.752,-3566.2994L13472.7494,-3566.2933L13472.7456,-3566.2839L13472.7388,-3566.2735L13472.7377,-3566.2686L13472.7374,-3566.2674L13472.7388,-3566.2619L13472.7426,-3566.2509L13472.7497,-3566.238L13472.7526,-3566.2272L13472.7545,-3566.2188L13472.7592,-3566.2122L13472.7697,-3566.2046L13472.7776,-3566.2021L13472.7863,-3566.2018L13472.7913,-3566.2022L13472.7921,-3566.2127L13472.7934,-3566.2197L13472.7927,-3566.2253L13472.7953,-3566.23L13472.8013,-3566.234L13472.8053,-3566.2366L13472.8132,-3566.2384L13472.8169,-3566.2377L13472.823,-3566.2348L13472.8251,-3566.2338L13472.828,-3566.2295L13472.8333,-3566.2302L13472.8381,-3566.2284L13472.8411,-3566.2249L13472.8439,-3566.2259L13472.8519,-3566.2328L13472.8555,-3566.2322L13472.8592,-3566.2262L13472.8582,-3566.2213L13472.8632,-3566.214L13472.862,-3566.2106L13472.8553,-3566.209L13472.8472,-3566.2034L13472.8433,-3566.2019L13472.8369,-3566.2021L13472.8345,-3566.2013L13472.8264,-3566.2033L13472.8228,-3566.2015L13472.821,-3566.2006L13472.82,-3566.1985L13472.8196,-3566.1921L13472.8213,-3566.189L13472.8227,-3566.1888L13472.8275,-3566.1882L13472.8356,-3566.1918L13472.8397,-3566.1923L13472.8441,-3566.1928L13472.8483,-3566.1969L13472.8548,-3566.1995L13472.8576,-3566.1995L13472.8594,-3566.199L13472.8635,-3566.2009L13472.8686,-3566.2039L13472.8722,-3566.2034L13472.8755,-3566.202L13472.8772,-3566.1999L13472.9441,-3566.2249L13472.9475,-3566.2195L13472.8805,-3566.1931L13472.8808,-3566.1901L13472.8789,-3566.1847L13472.8733,-3566.1808L13472.8727,-3566.1779L13472.8719,-3566.1744L13472.87,-3566.1734L13472.8627,-3566.1695L13472.86,-3566.1643L13472.8583,-3566.1621L13472.8563,-3566.1621L13472.852,-3566.1629L13472.8517,-3566.1621L13472.8389,-3566.1621L13472.8362,-3566.1627L13472.836,-3566.1621L13472.9847,-3566.1621L13472.9845,-3566.1716L13472.9845,-3566.173L13472.9845,-3566.1738L13472.9934,-3566.1796L13472.9958,-3566.1832L13473.0027,-3566.1884L13473.0061,-3566.1884L13473.0108,-3566.1944L13473.0135,-3566.1951L13473.0207,-3566.2015L13473.0205,-3566.2077L13473.0259,-3566.2146L13473.0312,-3566.2185L13473.0285,-3566.2213L13473.0215,-3566.2249L13473.0193,-3566.2301L13473.0221,-3566.242L13473.0246,-3566.2441L13473.0256,-3566.2483L13473.0292,-3566.2515L13473.0344,-3566.2534L13473.0417,-3566.2537L13473.0483,-3566.248L13473.0488,-3566.2376L13473.0506,-3566.2323L13473.0533,-3566.2241L13473.0576,-3566.2209L13473.0656,-3566.2191L13473.0711,-3566.2191L13473.0759,-3566.2167L13473.0845,-3566.2166L13473.0874,-3566.2162L13473.0885,-3566.2161L13473.0889,-3566.2156L13473.089,-3566.2146L13473.0898,-3566.214L13473.0911,-3566.2119L13473.0924,-3566.2095L13473.0939,-3566.2084L13473.0948,-3566.208L13473.0964,-3566.2065L13473.0975,-3566.2047L13473.0982,-3566.2047L13473.1006,-3566.2061L13473.1022,-3566.206L13473.103,-3566.2056L13473.1055,-3566.2073L13473.1078,-3566.2077L13473.1087,-3566.2098L13473.1104,-3566.2112L13473.1117,-3566.2117L13473.1129,-3566.213L13473.1145,-3566.2143L13473.1153,-3566.2146L13473.1156,-3566.2162L13473.117,-3566.2175L13473.1177,-3566.2178L13473.1177,-3566.2191L13473.1183,-3566.2213L13473.1177,-3566.2242L13473.1182,-3566.2259L13473.1183,-3566.2271L13473.1203,-3566.229L13473.1246,-3566.2299L13473.1255,-3566.2297L13473.1272,-3566.2283L13473.1288,-3566.2295L13473.1312,-3566.2297L13473.1323,-3566.2292L13473.1336,-3566.23L13473.1361,-3566.23L13473.1375,-3566.2294L13473.1391,-3566.2296L13473.1406,-3566.2287L13473.143,-3566.2258L13473.149,-3566.2255L13473.1498,-3566.2249L13473.1504,-3566.2237L13473.1517,-3566.2239L13473.1545,-3566.2253L13473.1563,-3566.2252L13473.1593,-3566.2259L13473.1607,-3566.2258L13473.163,-3566.224L13473.1649,-3566.224L13473.1665,-3566.2234L13473.1696,-3566.2242L13473.1713,-3566.2241L13473.1725,-3566.2234L13473.1751,-3566.2235L13473.1785,-3566.2217L13473.1809,-3566.2228L13473.1815,-3566.2228L13473.181,-3566.2249L13473.1824,-3566.2268L13473.184,-3566.2278L13473.1866,-3566.2286L13473.1894,-3566.2285L13473.1915,-3566.2276L13473.1922,-3566.2285L13473.1932,-3566.2287L13473.1949,-3566.2301L13473.1971,-3566.2304L13473.199,-3566.2301L13473.2003,-3566.2302L13473.2021,-3566.229L13473.2031,-3566.2276L13473.2041,-3566.2276L13473.2059,-3566.2255L13473.2061,-3566.224L13473.2055,-3566.2221L13473.2041,-3566.221L13473.2041,-3566.2201L13473.2048,-3566.2194L13473.204,-3566.2168L13473.2013,-3566.215L13473.202,-3566.2133L13473.2023,-3566.2113L13473.2019,-3566.2105L13473.2038,-3566.2083L13473.2041,-3566.2075L13473.2067,-3566.2072L13473.21,-3566.2049L13473.2105,-3566.2035L13473.2103,-3566.2009L13473.2095,-3566.1992L13473.2114,-3566.1975L13473.2121,-3566.196L13473.2118,-3566.1946L13473.2163,-3566.1914L13473.217,-3566.1902L13473.2171,-3566.1892L13473.2187,-3566.1892L13473.2199,-3566.1885L13473.2206,-3566.187L13473.2233,-3566.1873L13473.2248,-3566.1867L13473.2253,-3566.1854L13473.2253,-3566.1824L13473.2241,-3566.1798L13473.2225,-3566.1785L13473.2238,-3566.1758L13473.2239,-3566.1743L13473.2254,-3566.1741L13473.2267,-3566.1726L13473.2269,-3566.1722L13473.2283,-3566.1699L13473.2285,-3566.1683L13473.2261,-3566.1657L13473.2258,-3566.1633L13473.2246,-3566.1623L13473.2237,-3566.1621Z"/>
<path content="兵庫県,,美方郡,香美町,,28585" xlink:title="兵庫県" d="M13473.1376,-3566.7201L13473.1394,-3566.7178L13473.1452,-3566.7193L13473.1528,-3566.7188L13473.1565,-3566.7176L13473.1591,-3566.7115L13473.1595,-3566.706L13473.1618,-3566.7019L13473.1621,-3566.6946L13473.1613,-3566.6905L13473.1591,-3566.6879L13473.1561,-3566.6851L13473.1519,-3566.6838L13473.1446,-3566.6834L13473.1384,-3566.68L13473.1315,-3566.6781L13473.1218,-3566.6783L13473.1166,-3566.6815L13473.1132,-3566.6862L13473.1119,-3566.6909L13473.1086,-3566.6917L13473.1033,-3566.6954L13473.1023,-3566.7008L13473.1031,-3566.7086L13473.1075,-3566.7138L13473.1137,-3566.7162L13473.1134,-3566.7201L13473.1169,-3566.7229L13473.1245,-3566.7254L13473.1303,-3566.7248L13473.1352,-3566.7219L13473.1376,-3566.7201Z"/>
<path content="兵庫県,,美方郡,香美町,,28585" xlink:title="兵庫県" d="M13472.6526,-3566.7607L13472.649,-3566.7542L13472.6485,-3566.7488L13472.6453,-3566.7414L13472.6427,-3566.7373L13472.6412,-3566.7339L13472.6365,-3566.7306L13472.6354,-3566.7262L13472.6316,-3566.7242L13472.6272,-3566.718L13472.6232,-3566.7176L13472.6211,-3566.7133L13472.6177,-3566.7119L13472.6148,-3566.7102L13472.6132,-3566.7071L13472.6093,-3566.7056L13472.6065,-3566.7109L13472.6087,-3566.7205L13472.6088,-3566.7299L13472.6031,-3566.7348L13472.6013,-3566.7397L13472.5986,-3566.7422L13472.5953,-3566.7456L13472.5983,-3566.7507L13472.6048,-3566.7517L13472.6098,-3566.753L13472.6129,-3566.7572L13472.6172,-3566.7606L13472.6174,-3566.7621L13472.6236,-3566.7641L13472.6274,-3566.7644L13472.6304,-3566.7658L13472.6351,-3566.7632L13472.6373,-3566.7596L13472.6404,-3566.7589L13472.6437,-3566.7612L13472.6462,-3566.7621L13472.6506,-3566.7675L13472.6527,-3566.7663L13472.6526,-3566.7607Z"/>
<path content="兵庫県,,美方郡,香美町,,28585" xlink:title="兵庫県" d="M13472.0765,-3566.7225L13472.082,-3566.7177L13472.0917,-3566.7179L13472.0928,-3566.7152L13472.0858,-3566.7095L13472.0886,-3566.7015L13472.0916,-3566.6962L13472.0904,-3566.6921L13472.0864,-3566.6894L13472.0799,-3566.691L13472.0761,-3566.6872L13472.0651,-3566.6867L13472.0612,-3566.6854L13472.0531,-3566.6929L13472.0538,-3566.6989L13472.0509,-3566.7053L13472.0539,-3566.7085L13472.0601,-3566.7078L13472.0607,-3566.7107L13472.0579,-3566.7167L13472.0587,-3566.7226L13472.0592,-3566.7281L13472.0673,-3566.7283L13472.0733,-3566.7229L13472.0765,-3566.7225Z"/>
<path content="兵庫県,,美方郡,香美町,,28585" xlink:title="兵庫県" d="M13473.1192,-3566.8252L13473.1122,-3566.8249L13473.1093,-3566.826L13473.1027,-3566.8326L13473.1004,-3566.8378L13473.1012,-3566.8456L13473.1031,-3566.8504L13473.1094,-3566.8549L13473.1209,-3566.861L13473.1267,-3566.8604L13473.1336,-3566.8572L13473.1374,-3566.8549L13473.1397,-3566.8493L13473.1391,-3566.843L13473.1363,-3566.8392L13473.1276,-3566.833L13473.1259,-3566.8301L13473.1222,-3566.8265L13473.1192,-3566.8252Z"/>
<path content="兵庫県,,美方郡,香美町,,28585" xlink:title="兵庫県" d="M13472.702,-3566.6051L13472.701,-3566.5989L13472.6968,-3566.5981L13472.6948,-3566.5944L13472.6988,-3566.5921L13472.7001,-3566.5866L13472.6989,-3566.5771L13472.695,-3566.5759L13472.6939,-3566.5713L13472.6874,-3566.5657L13472.6849,-3566.5648L13472.6825,-3566.5685L13472.684,-3566.5726L13472.6814,-3566.5729L13472.6769,-3566.5793L13472.6707,-3566.5795L13472.6671,-3566.5904L13472.6702,-3566.5941L13472.6732,-3566.5976L13472.6763,-3566.5979L13472.6815,-3566.6001L13472.6883,-3566.5996L13472.6892,-3566.6004L13472.6835,-3566.6064L13472.6863,-3566.6088L13472.6964,-3566.6098L13472.702,-3566.6051Z"/>
<path content="兵庫県,,美方郡,香美町,,28585" xlink:title="兵庫県" d="M13473.0885,-3566.7983L13473.0821,-3566.7983L13473.0795,-3566.7997L13473.0751,-3566.8062L13473.074,-3566.8086L13473.0654,-3566.8143L13473.0636,-3566.8161L13473.0633,-3566.8221L13473.0646,-3566.8251L13473.0706,-3566.8278L13473.0747,-3566.8277L13473.0866,-3566.8215L13473.0921,-3566.819L13473.0951,-3566.8155L13473.0966,-3566.8116L13473.0952,-3566.802L13473.0931,-3566.7993L13473.0885,-3566.7983Z"/>
<path content="兵庫県,,美方郡,香美町,,28585" xlink:title="兵庫県" d="M13471.4763,-3566.6542L13471.4716,-3566.6501L13471.4683,-3566.6513L13471.4656,-3566.6498L13471.4588,-3566.6545L13471.4621,-3566.6621L13471.4594,-3566.6653L13471.4593,-3566.6667L13471.4591,-3566.6727L13471.464,-3566.6779L13471.4594,-3566.6805L13471.4559,-3566.6863L13471.4543,-3566.69L13471.4564,-3566.6915L13471.4629,-3566.6927L13471.467,-3566.6892L13471.4703,-3566.6867L13471.4713,-3566.6837L13471.4766,-3566.6811L13471.4766,-3566.6722L13471.4787,-3566.6689L13471.478,-3566.6667L13471.476,-3566.6601L13471.4763,-3566.6542Z"/>
<path content="兵庫県,,美方郡,香美町,,28585" xlink:title="兵庫県" d="M13472.6748,-3566.7956L13472.6713,-3566.7944L13472.6644,-3566.795L13472.6603,-3566.7984L13472.6589,-3566.8018L13472.6589,-3566.8063L13472.6631,-3566.8119L13472.67,-3566.8153L13472.6789,-3566.8147L13472.6844,-3566.8108L13472.6865,-3566.8068L13472.6865,-3566.8046L13472.6748,-3566.7956Z"/>
<path content="兵庫県,,美方郡,香美町,,28585" xlink:title="兵庫県" d="M13471.7241,-3566.5891L13471.7231,-3566.584L13471.7231,-3566.5769L13471.7198,-3566.5683L13471.7166,-3566.566L13471.7075,-3566.5695L13471.7048,-3566.5758L13471.7064,-3566.5802L13471.7054,-3566.5851L13471.707,-3566.5889L13471.7091,-3566.5907L13471.7158,-3566.589L13471.7183,-3566.5913L13471.7241,-3566.5891Z"/>
<path content="兵庫県,,美方郡,香美町,,28585" xlink:title="兵庫県" d="M13472.1418,-3566.7134L13472.1376,-3566.7098L13472.1337,-3566.7103L13472.1315,-3566.7168L13472.134,-3566.7208L13472.1332,-3566.7252L13472.1349,-3566.7296L13472.1415,-3566.7306L13472.1546,-3566.7369L13472.1589,-3566.7359L13472.1596,-3566.7279L13472.1542,-3566.7269L13472.1451,-3566.7195L13472.1418,-3566.7134Z"/>
<path content="兵庫県,,美方郡,香美町,,28585" xlink:title="兵庫県" d="M13472.7714,-3566.5201L13472.7729,-3566.5189L13472.7759,-3566.5193L13472.7789,-3566.5185L13472.7775,-3566.5088L13472.7756,-3566.5069L13472.7755,-3566.5029L13472.7712,-3566.499L13472.7686,-3566.4952L13472.7627,-3566.4947L13472.7623,-3566.4978L13472.7591,-3566.5055L13472.7622,-3566.5093L13472.7638,-3566.5168L13472.7685,-3566.5206L13472.7714,-3566.5201Z"/>
<path content="兵庫県,,美方郡,香美町,,28585" xlink:title="兵庫県" d="M13472.134,-3566.7511L13472.1317,-3566.7505L13472.1234,-3566.7522L13472.1192,-3566.7543L13472.1169,-3566.7567L13472.1147,-3566.7598L13472.1146,-3566.766L13472.1153,-3566.7681L13472.1207,-3566.7688L13472.1228,-3566.7714L13472.1269,-3566.7699L13472.1289,-3566.7695L13472.1313,-3566.7651L13472.1346,-3566.7641L13472.1373,-3566.7582L13472.1353,-3566.7552L13472.1361,-3566.7529L13472.134,-3566.7511Z"/>
<path content="兵庫県,,美方郡,香美町,,28585" xlink:title="兵庫県" d="M13473.1034,-3566.9158L13473.1007,-3566.9155L13473.0892,-3566.9183L13473.0856,-3566.9218L13473.0853,-3566.9267L13473.0874,-3566.9295L13473.0949,-3566.9337L13473.0981,-3566.9337L13473.1019,-3566.9333L13473.105,-3566.931L13473.1089,-3566.9272L13473.1088,-3566.9233L13473.107,-3566.9195L13473.1034,-3566.9158Z"/>
<path content="兵庫県,,美方郡,香美町,,28585" xlink:title="兵庫県" d="M13473.0339,-3566.8349L13473.0293,-3566.8348L13473.0267,-3566.8359L13473.0247,-3566.8392L13473.0233,-3566.8469L13473.0231,-3566.8493L13473.024,-3566.8524L13473.028,-3566.8564L13473.0331,-3566.8573L13473.0373,-3566.857L13473.0388,-3566.8552L13473.04,-3566.8525L13473.0387,-3566.8398L13473.0374,-3566.8375L13473.0339,-3566.8349Z"/>
<path content="兵庫県,,美方郡,香美町,,28585" xlink:title="兵庫県" d="M13472.4811,-3566.7173L13472.4876,-3566.7131L13472.4912,-3566.7109L13472.4912,-3566.7035L13472.4877,-3566.6994L13472.4813,-3566.7009L13472.4795,-3566.7043L13472.4727,-3566.7062L13472.4683,-3566.7109L13472.4664,-3566.7131L13472.4673,-3566.7149L13472.4697,-3566.7172L13472.4771,-3566.7172L13472.4811,-3566.7173Z"/>
<path content="兵庫県,,美方郡,香美町,,28585" xlink:title="兵庫県" d="M13472.7521,-3566.7195L13472.7459,-3566.7178L13472.741,-3566.7184L13472.7369,-3566.7229L13472.7376,-3566.7274L13472.7479,-3566.7364L13472.7527,-3566.7353L13472.7562,-3566.7324L13472.7576,-3566.7251L13472.7555,-3566.7218L13472.7521,-3566.7195Z"/>
<path content="兵庫県,,美方郡,香美町,,28585" xlink:title="兵庫県" d="M13472.1151,-3566.7165L13472.1191,-3566.7142L13472.1212,-3566.7109L13472.1196,-3566.7063L13472.1195,-3566.7037L13472.1154,-3566.7011L13472.1116,-3566.7042L13472.1103,-3566.7064L13472.105,-3566.7068L13472.101,-3566.7106L13472.1008,-3566.7144L13472.1048,-3566.7161L13472.1104,-3566.7152L13472.1151,-3566.7165Z"/>
<path content="兵庫県,,美方郡,香美町,,28585" xlink:title="兵庫県" d="M13473.0984,-3566.2444L13473.0956,-3566.2427L13473.0908,-3566.2438L13473.0887,-3566.2455L13473.0846,-3566.2574L13473.0894,-3566.2596L13473.0929,-3566.2596L13473.0978,-3566.256L13473.0998,-3566.2506L13473.0998,-3566.2472L13473.0984,-3566.2444Z"/>
<path content="兵庫県,,美方郡,香美町,,28585" xlink:title="兵庫県" d="M13471.6952,-3566.5835L13471.689,-3566.5789L13471.6824,-3566.5838L13471.6826,-3566.5897L13471.6856,-3566.5918L13471.6892,-3566.59L13471.692,-3566.5899L13471.6955,-3566.5863L13471.6952,-3566.5835Z"/>
<path content="兵庫県,,美方郡,香美町,,28585" xlink:title="兵庫県" d="M13471.7427,-3566.5699L13471.7383,-3566.5664L13471.7356,-3566.5677L13471.7352,-3566.5708L13471.7334,-3566.574L13471.7342,-3566.5763L13471.7387,-3566.5819L13471.743,-3566.5801L13471.7437,-3566.5769L13471.7438,-3566.574L13471.7427,-3566.5699Z"/>
<path content="兵庫県,,美方郡,香美町,,28585" xlink:title="兵庫県" d="M13473.0895,-3566.239L13473.0873,-3566.2339L13473.0849,-3566.2341L13473.083,-3566.2369L13473.0817,-3566.2384L13473.0777,-3566.2455L13473.0784,-3566.2487L13473.0811,-3566.2496L13473.0848,-3566.2486L13473.0895,-3566.239Z"/>
<path content="兵庫県,,美方郡,香美町,,28585" xlink:title="兵庫県" d="M13472.8836,-3566.2219L13472.8796,-3566.2184L13472.8737,-3566.2184L13472.8725,-3566.2198L13472.8736,-3566.224L13472.8736,-3566.2267L13472.8812,-3566.228L13472.8836,-3566.228L13472.8847,-3566.2246L13472.8836,-3566.2219Z"/>
<path content="兵庫県,,美方郡,香美町,,28585" xlink:title="兵庫県" d="M13473.0574,-3566.2542L13473.0555,-3566.2541L13473.0524,-3566.2578L13473.0508,-3566.2644L13473.0531,-3566.2674L13473.0564,-3566.2674L13473.0583,-3566.2658L13473.0579,-3566.2593L13473.0597,-3566.2563L13473.0574,-3566.2542Z"/>
<path content="兵庫県,,美方郡,香美町,,28585" xlink:title="兵庫県" d="M13472.1495,-3566.7658L13472.1465,-3566.7653L13472.1421,-3566.7675L13472.1415,-3566.7737L13472.1457,-3566.7748L13472.1507,-3566.7722L13472.1515,-3566.7681L13472.1495,-3566.7658Z"/>
<path content="兵庫県,,美方郡,香美町,,28585" xlink:title="兵庫県" d="M13471.4865,-3566.504L13471.4826,-3566.5018L13471.4765,-3566.5069L13471.4773,-3566.5093L13471.4826,-3566.512L13471.4855,-3566.5105L13471.4875,-3566.5078L13471.4865,-3566.504Z"/>
<path content="兵庫県,,美方郡,香美町,,28585" xlink:title="兵庫県" d="M13473.2244,-3566.2571L13473.2261,-3566.2561L13473.2274,-3566.2561L13473.2304,-3566.2542L13473.2306,-3566.2536L13473.2329,-3566.2528L13473.2334,-3566.2518L13473.233,-3566.2508L13473.2309,-3566.2491L13473.2293,-3566.2491L13473.2264,-3566.2502L13473.2251,-3566.2503L13473.2237,-3566.2509L13473.2226,-3566.2504L13473.2209,-3566.2504L13473.2202,-3566.2516L13473.22,-3566.2546L13473.2215,-3566.2557L13473.2225,-3566.2568L13473.2244,-3566.2571Z"/>
<path content="兵庫県,,美方郡,香美町,,28585" xlink:title="兵庫県" d="M13472.5799,-3566.6875L13472.5777,-3566.6874L13472.5757,-3566.6886L13472.5755,-3566.6908L13472.5773,-3566.6927L13472.579,-3566.6947L13472.5831,-3566.6953L13472.5865,-3566.6942L13472.5866,-3566.6913L13472.5799,-3566.6875Z"/>
<path content="兵庫県,,美方郡,香美町,,28585" xlink:title="兵庫県" d="M13472.589,-3566.7209L13472.5868,-3566.7198L13472.5839,-3566.7201L13472.582,-3566.7234L13472.5825,-3566.7269L13472.5853,-3566.7297L13472.5897,-3566.7289L13472.589,-3566.7209Z"/>
<path content="兵庫県,,美方郡,香美町,,28585" xlink:title="兵庫県" d="M13473.1597,-3566.2498L13473.157,-3566.2475L13473.1568,-3566.247L13473.1559,-3566.247L13473.1544,-3566.2477L13473.1533,-3566.2476L13473.1515,-3566.2489L13473.1515,-3566.2497L13473.1505,-3566.2513L13473.151,-3566.2527L13473.1544,-3566.2537L13473.1594,-3566.2539L13473.1607,-3566.2525L13473.16,-3566.2515L13473.1597,-3566.2498Z"/>
<path content="兵庫県,,美方郡,香美町,,28585" xlink:title="兵庫県" d="M13472.59,-3566.7046L13472.5884,-3566.7036L13472.5845,-3566.7043L13472.582,-3566.7056L13472.5835,-3566.7096L13472.586,-3566.7106L13472.5882,-3566.7113L13472.5911,-3566.7074L13472.59,-3566.7046Z"/>
<path content="兵庫県,,美方郡,香美町,,28585" xlink:title="兵庫県" d="M13472.6042,-3566.642L13472.6031,-3566.6417L13472.5997,-3566.6438L13472.5998,-3566.6465L13472.6061,-3566.6499L13472.6082,-3566.6477L13472.6088,-3566.6453L13472.6042,-3566.642Z"/>
<path content="兵庫県,,美方郡,香美町,,28585" xlink:title="兵庫県" d="M13471.441,-3566.5036L13471.4381,-3566.5036L13471.4361,-3566.5052L13471.4361,-3566.5096L13471.4386,-3566.5115L13471.4405,-3566.5116L13471.4418,-3566.5102L13471.4424,-3566.5089L13471.444,-3566.5066L13471.441,-3566.5036Z"/>
<path content="兵庫県,,美方郡,香美町,,28585" xlink:title="兵庫県" d="M13472.5987,-3566.7006L13472.5948,-3566.7003L13472.5936,-3566.7017L13472.595,-3566.704L13472.5989,-3566.7064L13472.6025,-3566.7065L13472.6033,-3566.7026L13472.6022,-3566.7018L13472.5987,-3566.7006Z"/>
<path content="兵庫県,,美方郡,香美町,,28585" xlink:title="兵庫県" d="M13472.7617,-3566.5661L13472.7589,-3566.5646L13472.7563,-3566.5647L13472.7544,-3566.5659L13472.754,-3566.5677L13472.7544,-3566.5691L13472.7563,-3566.5701L13472.7581,-3566.5703L13472.7604,-3566.5697L13472.7617,-3566.5681L13472.7617,-3566.5661Z"/>
<path content="兵庫県,,美方郡,香美町,,28585" xlink:title="兵庫県" d="M13472.6174,-3566.6703L13472.6148,-3566.6702L13472.6122,-3566.6726L13472.6132,-3566.6753L13472.6159,-3566.6763L13472.6204,-3566.674L13472.6194,-3566.6713L13472.6174,-3566.6703Z"/>
<path content="兵庫県,,美方郡,香美町,,28585" xlink:title="兵庫県" d="M13473.1781,-3566.2457L13473.1774,-3566.245L13473.1759,-3566.245L13473.1743,-3566.2442L13473.1729,-3566.2443L13473.1717,-3566.2451L13473.1713,-3566.2466L13473.1713,-3566.2479L13473.1724,-3566.2486L13473.1739,-3566.2487L13473.1755,-3566.2494L13473.1773,-3566.2493L13473.1784,-3566.2482L13473.1781,-3566.2457Z"/>
<path content="兵庫県,,美方郡,香美町,,28585" xlink:title="兵庫県" d="M13471.4797,-3566.6387L13471.4781,-3566.6387L13471.477,-3566.6394L13471.4771,-3566.6414L13471.4793,-3566.6441L13471.4833,-3566.6462L13471.4838,-3566.6453L13471.4823,-3566.6418L13471.4797,-3566.6387Z"/>
<path content="兵庫県,,美方郡,香美町,,28585" xlink:title="兵庫県" d="M13472.6256,-3566.6319L13472.6238,-3566.6317L13472.6219,-3566.6329L13472.6215,-3566.6359L13472.6242,-3566.638L13472.6268,-3566.637L13472.627,-3566.6331L13472.6256,-3566.6319Z"/>
<path content="兵庫県,,美方郡,香美町,,28585" xlink:title="兵庫県" d="M13471.4902,-3566.5156L13471.4883,-3566.515L13471.4865,-3566.5163L13471.4857,-3566.5185L13471.4871,-3566.5214L13471.4912,-3566.5204L13471.4915,-3566.5179L13471.4902,-3566.5156Z"/>
<path content="兵庫県,,美方郡,香美町,,28585" xlink:title="兵庫県" d="M13471.4991,-3566.6073L13471.4976,-3566.6068L13471.4958,-3566.608L13471.4948,-3566.6104L13471.4949,-3566.6123L13471.4965,-3566.6132L13471.4982,-3566.6123L13471.5001,-3566.6086L13471.4991,-3566.6073Z"/>
<path content="兵庫県,,美方郡,香美町,,28585" xlink:title="兵庫県" d="M13473.1263,-3566.2345L13473.1252,-3566.2341L13473.124,-3566.2342L13473.1225,-3566.2356L13473.1219,-3566.2367L13473.1208,-3566.2372L13473.1203,-3566.2384L13473.1205,-3566.2395L13473.1233,-3566.2396L13473.1247,-3566.2382L13473.1263,-3566.2375L13473.1266,-3566.2367L13473.1263,-3566.2345Z"/>
<path content="兵庫県,,美方郡,香美町,,28585" xlink:title="兵庫県" d="M13473.2097,-3566.255L13473.2089,-3566.2548L13473.207,-3566.2554L13473.2058,-3566.2564L13473.206,-3566.2574L13473.2078,-3566.2581L13473.2093,-3566.258L13473.21,-3566.2571L13473.2097,-3566.255Z"/>
<path content="兵庫県,,美方郡,香美町,,28585" xlink:title="兵庫県" d="M13473.1595,-3566.2424L13473.1593,-3566.2411L13473.1576,-3566.2418L13473.1575,-3566.2428L13473.1579,-3566.2434L13473.159,-3566.2434L13473.1595,-3566.2424Z"/>
<path content="兵庫県,,美方郡,香美町,,28585" xlink:title="兵庫県" d="M13473.1264,-3566.2397L13473.1257,-3566.2392L13473.1252,-3566.2395L13473.1254,-3566.2402L13473.1258,-3566.2403L13473.1262,-3566.2402L13473.1264,-3566.2397Z"/>
</g>
</svg>
