<?xml version="1.0" encoding="UTF-8"?>
<svg  xmlns="http://www.w3.org/2000/svg" xmlns:xlink="http://www.w3.org/1999/xlink" xmlns:go="http://purl.org/svgmap/profile" property="geometry,N03_001,N03_002,N03_003,N03_004,N03_005,N03_007" viewBox="13585.693359375 -3353.02734375 2.197265625 2.197265625" go:dataArea="13585.693359375 -3353.02734375 2.197265625 2.197265625" >
<metadata>
 <rdf:RDF xmlns:rdf="http://www.w3.org/1999/02/22-rdf-syntax-ns#" xmlns:crs="http://opengis.org/xmldtds/transformations.dtd" xmlns:svg="http://www.w3.org/svg" >
  <rdf:Description>
   <crs:CoordinateReferenceSystem rdf:resource="http://purl.org/crs/84" svg:transform="matrix(100.0,0.0,0.0,-100.0,0.0,0.0)" />
  </rdf:Description>
 </rdf:RDF>
</metadata>
<globalCoordinateSystem srsName="http://purl.org/crs/84" transform="matrix(100.0,0.0,0.0,-100.0,0.0,0.0)" />
<defs>
 <g id="p0" >
  <circle cx="0.0" cy="0.0" r="3" stroke="green" stroke-width="2.0" vector-effect="non-scaling-stroke" />
 </g>
</defs>
<g fill="#0000ff" fill-rule="evenodd" opacity="0.5" >
<path content="和歌山県,,東牟婁郡,串本町,,30428" xlink:title="和歌山県" d="M13585.6934,-3353.0273L13587.8906,-3353.0273L13587.8906,-3353.0061L13587.8889,-3353.0068L13587.8882,-3353.0082L13587.8842,-3353.0119L13587.8841,-3353.0152L13587.8841,-3353.0185L13587.883,-3353.0191L13587.8815,-3353.0179L13587.8795,-3353.0192L13587.8784,-3353.0218L13587.8782,-3353.0245L13587.8763,-3353.0246L13587.8745,-3353.0237L13587.8719,-3353.0245L13587.8702,-3353.0273L13587.8477,-3353.0273L13587.8463,-3353.0226L13587.8465,-3353.021L13587.8479,-3353.0127L13587.8512,-3353.0098L13587.856,-3353.0055L13587.8581,-3353.002L13587.8594,-3352.9988L13587.8611,-3352.9945L13587.8613,-3352.9917L13587.8609,-3352.9897L13587.8619,-3352.9829L13587.8596,-3352.981L13587.8544,-3352.9781L13587.8451,-3352.9779L13587.8381,-3352.9761L13587.8362,-3352.9752L13587.8364,-3352.9725L13587.8393,-3352.9717L13587.8443,-3352.9717L13587.8502,-3352.9731L13587.8528,-3352.9732L13587.8591,-3352.9723L13587.8612,-3352.9698L13587.8646,-3352.967L13587.8663,-3352.9652L13587.8697,-3352.9619L13587.8737,-3352.9589L13587.8756,-3352.9563L13587.8786,-3352.9524L13587.8793,-3352.9505L13587.8786,-3352.9493L13587.8747,-3352.9496L13587.8727,-3352.9478L13587.8724,-3352.945L13587.8719,-3352.9426L13587.8695,-3352.9423L13587.8671,-3352.941L13587.867,-3352.94L13587.8681,-3352.9385L13587.8706,-3352.9368L13587.8712,-3352.9343L13587.8711,-3352.9325L13587.8695,-3352.931L13587.8678,-3352.9301L13587.8652,-3352.9296L13587.8634,-3352.9301L13587.8605,-3352.9275L13587.8601,-3352.9268L13587.8594,-3352.9245L13587.8594,-3352.9229L13587.8615,-3352.9214L13587.8626,-3352.921L13587.8653,-3352.9209L13587.8663,-3352.9194L13587.8664,-3352.919L13587.8659,-3352.9162L13587.864,-3352.9114L13587.8611,-3352.9091L13587.8518,-3352.9028L13587.841,-3352.8947L13587.8378,-3352.8905L13587.8357,-3352.8855L13587.8371,-3352.8806L13587.8393,-3352.8644L13587.8383,-3352.8612L13587.8359,-3352.8588L13587.8206,-3352.8567L13587.8075,-3352.856L13587.8076,-3352.8582L13587.8133,-3352.8617L13587.8133,-3352.8627L13587.8097,-3352.8627L13587.7996,-3352.8645L13587.7933,-3352.8674L13587.7883,-3352.8737L13587.7871,-3352.878L13587.7882,-3352.8818L13587.7955,-3352.8843L13587.7964,-3352.886L13587.7951,-3352.8903L13587.7903,-3352.8935L13587.7772,-3352.903L13587.7728,-3352.9083L13587.771,-3352.9153L13587.7672,-3352.915L13587.7655,-3352.9143L13587.7604,-3352.9104L13587.7531,-3352.9112L13587.7489,-3352.9151L13587.7434,-3352.9208L13587.7432,-3352.9257L13587.7452,-3352.932L13587.7446,-3352.9366L13587.7433,-3352.9405L13587.7381,-3352.9469L13587.7373,-3352.9522L13587.7359,-3352.9557L13587.7306,-3352.9589L13587.7269,-3352.9599L13587.7208,-3352.961L13587.7195,-3352.9656L13587.7196,-3352.9677L13587.7131,-3352.9709L13587.7015,-3352.9766L13587.6932,-3352.9826L13587.6867,-3352.9862L13587.6804,-3352.9897L13587.6752,-3352.9925L13587.6705,-3352.9922L13587.6699,-3352.9922L13587.6684,-3352.9859L13587.6637,-3352.9793L13587.6578,-3352.9779L13587.6502,-3352.9783L13587.6479,-3352.9776L13587.6439,-3352.9776L13587.6406,-3352.98L13587.6391,-3352.9813L13587.6394,-3352.9851L13587.6428,-3352.9888L13587.6449,-3352.9919L13587.6453,-3352.9949L13587.6428,-3352.9972L13587.5975,-3352.9886L13587.5589,-3353.0044L13587.5562,-3353.0053L13587.5035,-3353.0273L13587.5285,-3353.0273L13587.5709,-3353.0091L13587.5743,-3353.0142L13587.5775,-3353.0197L13587.5822,-3353.0273L13586.8519,-3353.0273L13586.851,-3353.0263L13586.8476,-3353.0226L13586.8459,-3353.0198L13586.844,-3353.0201L13586.8434,-3353.0214L13586.8431,-3353.0234L13586.8431,-3353.027L13586.843,-3353.0273L13586.8405,-3353.0273L13586.8401,-3353.0258L13586.8402,-3353.023L13586.8384,-3353.0231L13586.8369,-3353.0231L13586.8366,-3353.0206L13586.8377,-3353.0173L13586.8363,-3353.0161L13586.8342,-3353.0166L13586.8316,-3353.0186L13586.8293,-3353.021L13586.8259,-3353.0255L13586.8237,-3353.0273L13586.7414,-3353.0273L13586.7359,-3353.021L13586.7262,-3353.0178L13586.7223,-3353.0171L13586.7204,-3353.0193L13586.7188,-3353.0252L13586.7179,-3353.0273L13586.6851,-3353.0273L13586.6857,-3353.025L13586.6842,-3353.0169L13586.681,-3353.0124L13586.6789,-3353.0103L13586.6718,-3353.0145L13586.6667,-3353.0205L13586.6633,-3353.0244L13586.6619,-3353.0273L13586.6217,-3353.0273L13586.616,-3353.0249L13586.6071,-3353.02L13586.5987,-3353.0147L13586.5954,-3353.0106L13586.5958,-3353.0076L13586.5977,-3353.0054L13586.5997,-3353.005L13586.6026,-3353.0052L13586.6039,-3353.0046L13586.6052,-3353.0038L13586.6056,-3353.0021L13586.6063,-3353.0008L13586.6079,-3353.0002L13586.6096,-3352.9988L13586.6095,-3352.996L13586.6092,-3352.9932L13586.6096,-3352.9906L13586.6103,-3352.9873L13586.6099,-3352.9849L13586.6089,-3352.9834L13586.6082,-3352.9827L13586.6079,-3352.982L13586.6074,-3352.9809L13586.6053,-3352.979L13586.6044,-3352.9784L13586.6007,-3352.9784L13586.5986,-3352.9786L13586.5971,-3352.9785L13586.5955,-3352.9773L13586.5952,-3352.9738L13586.5933,-3352.9691L13586.5907,-3352.9675L13586.5857,-3352.9649L13586.584,-3352.9619L13586.584,-3352.9583L13586.5847,-3352.9564L13586.5847,-3352.9499L13586.5843,-3352.9483L13586.583,-3352.9469L13586.5806,-3352.9455L13586.5809,-3352.9432L13586.5826,-3352.9411L13586.5835,-3352.9388L13586.585,-3352.9365L13586.5855,-3352.9351L13586.5867,-3352.9322L13586.5893,-3352.93L13586.5919,-3352.9276L13586.5947,-3352.9251L13586.5984,-3352.9242L13586.6014,-3352.9224L13586.6024,-3352.9202L13586.6037,-3352.9186L13586.6048,-3352.9163L13586.606,-3352.9135L13586.6065,-3352.9109L13586.6066,-3352.9081L13586.6062,-3352.9045L13586.6061,-3352.9008L13586.606,-3352.898L13586.6057,-3352.8948L13586.6053,-3352.8911L13586.6046,-3352.8892L13586.6021,-3352.8865L13586.5986,-3352.8852L13586.5925,-3352.8834L13586.5881,-3352.8817L13586.5865,-3352.8812L13586.5839,-3352.8789L13586.5785,-3352.8699L13586.5789,-3352.8681L13586.5788,-3352.8644L13586.5796,-3352.8572L13586.5753,-3352.8524L13586.5725,-3352.8501L13586.5679,-3352.8479L13586.5641,-3352.8455L13586.5563,-3352.8435L13586.5513,-3352.8431L13586.5494,-3352.8425L13586.5364,-3352.8425L13586.527,-3352.8429L13586.5217,-3352.8431L13586.517,-3352.843L13586.5163,-3352.8422L13586.5162,-3352.8391L13586.5166,-3352.837L13586.5178,-3352.8354L13586.5205,-3352.8333L13586.5254,-3352.8332L13586.5325,-3352.8334L13586.5392,-3352.8336L13586.5443,-3352.8342L13586.548,-3352.8319L13586.5497,-3352.8304L13586.5526,-3352.8273L13586.5562,-3352.8231L13586.5595,-3352.8201L13586.5646,-3352.8178L13586.5672,-3352.8156L13586.5692,-3352.813L13586.572,-3352.8102L13586.5745,-3352.8084L13586.575,-3352.8059L13586.5758,-3352.8031L13586.5772,-3352.8002L13586.5797,-3352.7991L13586.5814,-3352.7985L13586.5824,-3352.7961L13586.5817,-3352.7939L13586.5805,-3352.7931L13586.5801,-3352.7918L13586.5809,-3352.7871L13586.5815,-3352.7811L13586.5784,-3352.778L13586.5759,-3352.7763L13586.5721,-3352.7758L13586.5692,-3352.7784L13586.5674,-3352.7801L13586.562,-3352.7846L13586.5591,-3352.7866L13586.5566,-3352.7874L13586.555,-3352.7874L13586.5512,-3352.7858L13586.5486,-3352.7852L13586.5445,-3352.785L13586.539,-3352.7862L13586.5345,-3352.7876L13586.5312,-3352.7895L13586.5285,-3352.791L13586.5256,-3352.7924L13586.5189,-3352.7964L13586.5164,-3352.7978L13586.5131,-3352.798L13586.5099,-3352.7979L13586.5057,-3352.7956L13586.5027,-3352.7948L13586.4989,-3352.7943L13586.4942,-3352.7927L13586.4906,-3352.791L13586.4847,-3352.7858L13586.4829,-3352.7828L13586.4819,-3352.7814L13586.4791,-3352.7803L13586.477,-3352.7803L13586.4743,-3352.7803L13586.472,-3352.7799L13586.4687,-3352.7785L13586.4686,-3352.7772L13586.4686,-3352.775L13586.4687,-3352.7723L13586.4692,-3352.7689L13586.4707,-3352.7649L13586.471,-3352.7598L13586.4697,-3352.7579L13586.4675,-3352.7574L13586.4653,-3352.7585L13586.4612,-3352.7587L13586.461,-3352.7583L13586.4616,-3352.757L13586.4635,-3352.7544L13586.4641,-3352.7518L13586.4649,-3352.7478L13586.4667,-3352.7439L13586.4676,-3352.7396L13586.4684,-3352.7358L13586.4677,-3352.734L13586.4665,-3352.7332L13586.4648,-3352.7334L13586.4587,-3352.7358L13586.4557,-3352.7372L13586.4527,-3352.7386L13586.4493,-3352.7401L13586.4478,-3352.7419L13586.4445,-3352.7454L13586.4432,-3352.747L13586.4395,-3352.7509L13586.4375,-3352.7532L13586.4346,-3352.7563L13586.4333,-3352.7592L13586.4327,-3352.7601L13586.4291,-3352.7601L13586.4281,-3352.7593L13586.4282,-3352.7573L13586.4283,-3352.757L13586.4295,-3352.7531L13586.4288,-3352.7518L13586.428,-3352.751L13586.4266,-3352.7488L13586.4255,-3352.7469L13586.4248,-3352.7442L13586.4235,-3352.7416L13586.4223,-3352.7395L13586.4214,-3352.7379L13586.4213,-3352.7355L13586.4213,-3352.732L13586.4234,-3352.7275L13586.4251,-3352.723L13586.4256,-3352.7214L13586.4252,-3352.7201L13586.4244,-3352.7193L13586.4219,-3352.7189L13586.4203,-3352.7173L13586.4187,-3352.7159L13586.4186,-3352.7118L13586.4186,-3352.7081L13586.419,-3352.7062L13586.4176,-3352.7035L13586.4163,-3352.7028L13586.4171,-3352.7007L13586.4154,-3352.699L13586.4147,-3352.698L13586.4145,-3352.6965L13586.4137,-3352.6937L13586.4128,-3352.6934L13586.4108,-3352.6911L13586.4112,-3352.6881L13586.4131,-3352.6856L13586.4131,-3352.6835L13586.4114,-3352.6821L13586.4085,-3352.6781L13586.4053,-3352.676L13586.4022,-3352.6717L13586.398,-3352.6672L13586.3943,-3352.6662L13586.3902,-3352.6663L13586.3881,-3352.6686L13586.3859,-3352.6708L13586.3852,-3352.6736L13586.3851,-3352.6794L13586.3839,-3352.6829L13586.382,-3352.6874L13586.3799,-3352.6902L13586.3755,-3352.6922L13586.3742,-3352.6927L13586.3695,-3352.6938L13586.366,-3352.6927L13586.3627,-3352.6897L13586.3614,-3352.6872L13586.3583,-3352.6786L13586.3597,-3352.6756L13586.3641,-3352.6711L13586.3672,-3352.6684L13586.3711,-3352.6643L13586.3741,-3352.66L13586.3745,-3352.6572L13586.3752,-3352.6548L13586.3752,-3352.6519L13586.3743,-3352.6495L13586.3722,-3352.648L13586.371,-3352.6475L13586.3685,-3352.647L13586.3668,-3352.6473L13586.3632,-3352.6484L13586.3597,-3352.6507L13586.3577,-3352.652L13586.3525,-3352.6538L13586.3506,-3352.6548L13586.3492,-3352.6565L13586.3479,-3352.659L13586.3459,-3352.6625L13586.3454,-3352.6648L13586.3442,-3352.6685L13586.3427,-3352.6712L13586.3411,-3352.674L13586.3399,-3352.6764L13586.3386,-3352.6774L13586.3357,-3352.6781L13586.3334,-3352.6758L13586.3323,-3352.6751L13586.3265,-3352.6727L13586.3238,-3352.6739L13586.321,-3352.6791L13586.3184,-3352.6817L13586.3129,-3352.6851L13586.3114,-3352.6851L13586.3097,-3352.6843L13586.3089,-3352.6831L13586.308,-3352.6814L13586.3037,-3352.6805L13586.3039,-3352.6789L13586.305,-3352.6774L13586.3068,-3352.6759L13586.3093,-3352.6739L13586.3135,-3352.671L13586.3151,-3352.6693L13586.317,-3352.6682L13586.3175,-3352.665L13586.3188,-3352.6621L13586.32,-3352.6606L13586.3214,-3352.6573L13586.3225,-3352.655L13586.3226,-3352.654L13586.3228,-3352.6511L13586.3228,-3352.6479L13586.3199,-3352.6438L13586.3186,-3352.6438L13586.3166,-3352.6435L13586.3138,-3352.6422L13586.3108,-3352.6422L13586.3079,-3352.6427L13586.3041,-3352.6447L13586.3015,-3352.6471L13586.3003,-3352.6499L13586.2986,-3352.652L13586.297,-3352.6534L13586.2948,-3352.6554L13586.2931,-3352.6564L13586.2907,-3352.657L13586.2844,-3352.6612L13586.2823,-3352.6648L13586.2798,-3352.6671L13586.278,-3352.6677L13586.2759,-3352.6685L13586.273,-3352.67L13586.2712,-3352.6711L13586.27,-3352.673L13586.2694,-3352.6749L13586.2688,-3352.6763L13586.2685,-3352.678L13586.2684,-3352.6804L13586.2681,-3352.6826L13586.2681,-3352.6861L13586.2682,-3352.6923L13586.2689,-3352.6957L13586.2685,-3352.6979L13586.2676,-3352.7004L13586.2673,-3352.7033L13586.2668,-3352.7042L13586.2644,-3352.7051L13586.2618,-3352.7054L13586.2595,-3352.705L13586.2569,-3352.7017L13586.2569,-3352.6941L13586.2548,-3352.6881L13586.2547,-3352.6829L13586.2543,-3352.679L13586.2533,-3352.6748L13586.2529,-3352.6716L13586.2516,-3352.6687L13586.2496,-3352.6666L13586.2486,-3352.6663L13586.2459,-3352.6664L13586.2433,-3352.6676L13586.2425,-3352.6682L13586.2391,-3352.673L13586.2375,-3352.6774L13586.2368,-3352.6788L13586.2351,-3352.6813L13586.2332,-3352.6832L13586.2309,-3352.6833L13586.2289,-3352.6841L13586.2272,-3352.6886L13586.2244,-3352.6945L13586.2236,-3352.6988L13586.2235,-3352.7036L13586.2219,-3352.7072L13586.2196,-3352.7113L13586.217,-3352.7139L13586.2141,-3352.7159L13586.2107,-3352.7183L13586.2089,-3352.719L13586.2039,-3352.7208L13586.2006,-3352.7238L13586.1975,-3352.7264L13586.1929,-3352.7279L13586.1893,-3352.7276L13586.1876,-3352.7272L13586.1856,-3352.7273L13586.1837,-3352.7288L13586.1833,-3352.7297L13586.1826,-3352.7317L13586.1789,-3352.7347L13586.1763,-3352.7365L13586.1746,-3352.7395L13586.1737,-3352.7416L13586.1717,-3352.7436L13586.1664,-3352.747L13586.1607,-3352.7482L13586.1569,-3352.7482L13586.1523,-3352.7476L13586.1509,-3352.7472L13586.1506,-3352.7472L13586.146,-3352.7469L13586.1442,-3352.7462L13586.1428,-3352.7457L13586.1386,-3352.7453L13586.1369,-3352.7449L13586.1335,-3352.7434L13586.1318,-3352.743L13586.1271,-3352.7429L13586.1212,-3352.7422L13586.1183,-3352.7417L13586.1129,-3352.7413L13586.1103,-3352.7408L13586.1049,-3352.7407L13586.1023,-3352.7402L13586.0982,-3352.7386L13586.0957,-3352.7369L13586.0911,-3352.736L13586.0877,-3352.7352L13586.0812,-3352.7361L13586.0743,-3352.7373L13586.0675,-3352.7363L13586.0573,-3352.732L13586.0465,-3352.7269L13586.0443,-3352.7252L13586.0415,-3352.7231L13586.0359,-3352.7184L13586.0291,-3352.7091L13586.0207,-3352.697L13586.0194,-3352.6879L13586.0197,-3352.683L13586.0221,-3352.679L13586.0235,-3352.6766L13586.0264,-3352.6739L13586.0329,-3352.672L13586.0355,-3352.6714L13586.0377,-3352.6713L13586.0393,-3352.6702L13586.0415,-3352.6681L13586.0421,-3352.667L13586.043,-3352.6657L13586.0455,-3352.6646L13586.0495,-3352.6646L13586.0505,-3352.6647L13586.0514,-3352.666L13586.0527,-3352.666L13586.0548,-3352.6637L13586.0553,-3352.6618L13586.0565,-3352.6601L13586.058,-3352.659L13586.0589,-3352.6592L13586.0603,-3352.6589L13586.0612,-3352.6567L13586.0616,-3352.655L13586.0624,-3352.6528L13586.0639,-3352.6509L13586.0661,-3352.6483L13586.0691,-3352.6477L13586.0711,-3352.6472L13586.0733,-3352.6449L13586.075,-3352.6432L13586.0745,-3352.6418L13586.0737,-3352.6392L13586.0732,-3352.6388L13586.0723,-3352.6372L13586.0718,-3352.6347L13586.0726,-3352.6314L13586.0757,-3352.6275L13586.078,-3352.6244L13586.0826,-3352.6208L13586.0826,-3352.6183L13586.0807,-3352.6162L13586.0785,-3352.6149L13586.0775,-3352.6153L13586.0735,-3352.6157L13586.0722,-3352.6155L13586.0688,-3352.6127L13586.0652,-3352.6114L13586.0631,-3352.6112L13586.0596,-3352.6119L13586.0569,-3352.614L13586.0529,-3352.6181L13586.0519,-3352.6205L13586.049,-3352.6259L13586.0468,-3352.6315L13586.046,-3352.6333L13586.0444,-3352.6357L13586.0417,-3352.6387L13586.0357,-3352.6439L13586.0325,-3352.6465L13586.0297,-3352.6469L13586.0266,-3352.6447L13586.0212,-3352.6432L13586.0194,-3352.641L13586.0192,-3352.6365L13586.019,-3352.6314L13586.0173,-3352.6283L13586.0169,-3352.6257L13586.0163,-3352.6219L13586.0154,-3352.6182L13586.0166,-3352.6157L13586.0165,-3352.6139L13586.0151,-3352.6127L13586.0124,-3352.6112L13586.0094,-3352.6108L13586.007,-3352.6107L13586.0039,-3352.6107L13586.0014,-3352.6107L13585.9965,-3352.6138L13585.9952,-3352.6163L13585.9965,-3352.6179L13586,-3352.6189L13586.0006,-3352.6211L13585.9999,-3352.6219L13585.9954,-3352.6227L13585.9935,-3352.6234L13585.9939,-3352.6246L13585.9952,-3352.6256L13585.9959,-3352.6262L13585.9983,-3352.6283L13586.0002,-3352.6293L13586.0014,-3352.6301L13586.0024,-3352.631L13586.0035,-3352.633L13586.0038,-3352.6366L13586.0036,-3352.637L13586.0031,-3352.6384L13586.0014,-3352.6385L13586.0003,-3352.639L13585.9991,-3352.64L13585.9987,-3352.642L13585.9992,-3352.6439L13585.9992,-3352.6456L13585.9976,-3352.6464L13585.9944,-3352.6456L13585.9924,-3352.6459L13585.9909,-3352.6468L13585.9903,-3352.6476L13585.9903,-3352.6495L13585.9913,-3352.6509L13585.9912,-3352.6521L13585.9903,-3352.6538L13585.988,-3352.6538L13585.9844,-3352.655L13585.9833,-3352.6556L13585.9809,-3352.6562L13585.9793,-3352.6555L13585.9784,-3352.6553L13585.9758,-3352.6554L13585.9745,-3352.6552L13585.9708,-3352.6571L13585.97,-3352.6574L13585.9646,-3352.6601L13585.9627,-3352.6604L13585.96,-3352.6607L13585.9574,-3352.6609L13585.9569,-3352.6608L13585.9543,-3352.6603L13585.9477,-3352.6613L13585.9456,-3352.6624L13585.9406,-3352.6636L13585.9247,-3352.6587L13585.9123,-3352.6515L13585.8952,-3352.6403L13585.8945,-3352.6398L13585.8936,-3352.6388L13585.8925,-3352.6375L13585.8877,-3352.6336L13585.8857,-3352.6317L13585.8831,-3352.6281L13585.8833,-3352.6259L13585.8847,-3352.623L13585.8861,-3352.6205L13585.8873,-3352.6194L13585.8895,-3352.6177L13585.8907,-3352.6161L13585.8914,-3352.6144L13585.8914,-3352.6127L13585.891,-3352.6093L13585.8899,-3352.6082L13585.8847,-3352.6081L13585.8844,-3352.6081L13585.8821,-3352.6069L13585.8805,-3352.6046L13585.8801,-3352.6028L13585.8802,-3352.6003L13585.8821,-3352.5971L13585.8826,-3352.5955L13585.8836,-3352.5946L13585.8843,-3352.5937L13585.885,-3352.5918L13585.8837,-3352.5896L13585.8831,-3352.5891L13585.8806,-3352.5868L13585.8801,-3352.5851L13585.8804,-3352.5823L13585.882,-3352.5799L13585.882,-3352.5765L13585.8835,-3352.5726L13585.8845,-3352.5693L13585.8882,-3352.567L13585.8901,-3352.5639L13585.8913,-3352.5616L13585.8924,-3352.5591L13585.8931,-3352.5579L13585.8947,-3352.5557L13585.8944,-3352.5545L13585.8932,-3352.5533L13585.8904,-3352.5521L13585.8893,-3352.5513L13585.8865,-3352.5495L13585.8852,-3352.5471L13585.885,-3352.5448L13585.885,-3352.5419L13585.8866,-3352.54L13585.8883,-3352.5387L13585.8916,-3352.5366L13585.8938,-3352.5352L13585.8958,-3352.534L13585.8971,-3352.5321L13585.8975,-3352.5297L13585.897,-3352.5272L13585.8942,-3352.5255L13585.8899,-3352.5222L13585.8876,-3352.5214L13585.8812,-3352.5221L13585.8771,-3352.5228L13585.8736,-3352.5231L13585.8692,-3352.5232L13585.867,-3352.5228L13585.8635,-3352.5223L13585.8614,-3352.5218L13585.86,-3352.5207L13585.8583,-3352.5191L13585.8548,-3352.5184L13585.8498,-3352.5195L13585.8457,-3352.5211L13585.8403,-3352.5216L13585.8333,-3352.5214L13585.8207,-3352.5245L13585.8202,-3352.5235L13585.8222,-3352.5213L13585.828,-3352.5191L13585.8333,-3352.5159L13585.8402,-3352.5118L13585.8475,-3352.5064L13585.8525,-3352.5052L13585.8549,-3352.5058L13585.8579,-3352.5093L13585.8606,-3352.5078L13585.8663,-3352.5038L13585.8686,-3352.5041L13585.8729,-3352.5054L13585.8745,-3352.5082L13585.8785,-3352.5092L13585.893,-3352.5039L13585.8952,-3352.5L13585.8952,-3352.4996L13585.8948,-3352.4989L13585.8935,-3352.4976L13585.892,-3352.4952L13585.8895,-3352.4851L13585.8873,-3352.4758L13585.8777,-3352.4687L13585.877,-3352.4588L13585.8773,-3352.4566L13585.8762,-3352.4551L13585.8732,-3352.4544L13585.8711,-3352.4555L13585.8692,-3352.4563L13585.8653,-3352.4573L13585.8625,-3352.4594L13585.8578,-3352.4667L13585.8543,-3352.4675L13585.8496,-3352.4589L13585.8481,-3352.4551L13585.8469,-3352.4528L13585.8465,-3352.4481L13585.8477,-3352.4405L13585.8441,-3352.435L13585.8333,-3352.4278L13585.8319,-3352.4268L13585.8225,-3352.421L13585.8169,-3352.4102L13585.8083,-3352.4053L13585.8043,-3352.4064L13585.8017,-3352.4096L13585.7974,-3352.4101L13585.791,-3352.4077L13585.7871,-3352.4038L13585.7855,-3352.3996L13585.785,-3352.3977L13585.7829,-3352.397L13585.7792,-3352.3982L13585.7736,-3352.4002L13585.7705,-3352.3998L13585.7683,-3352.3977L13585.7653,-3352.3944L13585.7601,-3352.3917L13585.7554,-3352.3908L13585.7525,-3352.3892L13585.7537,-3352.3837L13585.7535,-3352.3811L13585.7519,-3352.3779L13585.7468,-3352.3751L13585.7393,-3352.3727L13585.7319,-3352.3741L13585.7182,-3352.3893L13585.711,-3352.3971L13585.7088,-3352.3968L13585.7073,-3352.3957L13585.71,-3352.3896L13585.713,-3352.3863L13585.7174,-3352.3829L13585.7174,-3352.3732L13585.7193,-3352.3674L13585.7207,-3352.3542L13585.7188,-3352.3488L13585.7164,-3352.3462L13585.7114,-3352.3467L13585.7087,-3352.345L13585.7077,-3352.3424L13585.7058,-3352.3414L13585.7029,-3352.3432L13585.6934,-3352.3575L13585.6934,-3352.3468L13585.6954,-3352.3444L13585.6978,-3352.3416L13585.701,-3352.337L13585.7014,-3352.333L13585.6999,-3352.3307L13585.6973,-3352.33L13585.6934,-3352.3302Z"/>
<path content="和歌山県,,東牟婁郡,串本町,,30428" xlink:title="和歌山県" d="M13587.808,-3352.7915L13587.8165,-3352.7841L13587.8226,-3352.7756L13587.8215,-3352.7732L13587.8163,-3352.7732L13587.8173,-3352.7686L13587.8171,-3352.7651L13587.8187,-3352.7661L13587.82,-3352.7693L13587.8228,-3352.7717L13587.8253,-3352.7721L13587.8305,-3352.7685L13587.8328,-3352.7632L13587.8295,-3352.7594L13587.8168,-3352.7506L13587.8143,-3352.7478L13587.8155,-3352.746L13587.8223,-3352.7481L13587.8315,-3352.7498L13587.8429,-3352.7466L13587.8523,-3352.7434L13587.8548,-3352.737L13587.8604,-3352.7268L13587.8637,-3352.7229L13587.8671,-3352.7222L13587.8694,-3352.7215L13587.8717,-3352.7179L13587.875,-3352.7042L13587.8747,-3352.6876L13587.8723,-3352.6778L13587.8685,-3352.6753L13587.8647,-3352.6743L13587.8429,-3352.6828L13587.8213,-3352.6967L13587.8062,-3352.7066L13587.7979,-3352.7158L13587.7943,-3352.719L13587.792,-3352.7207L13587.7933,-3352.7246L13587.7975,-3352.7274L13587.7956,-3352.7285L13587.7935,-3352.7288L13587.7895,-3352.7253L13587.7872,-3352.7268L13587.7853,-3352.7313L13587.7816,-3352.7328L13587.7789,-3352.7352L13587.773,-3352.7402L13587.7718,-3352.7455L13587.7731,-3352.7508L13587.7743,-3352.7539L13587.7729,-3352.7536L13587.771,-3352.7501L13587.7682,-3352.7511L13587.7674,-3352.7533L13587.7683,-3352.7578L13587.7729,-3352.7582L13587.7777,-3352.755L13587.7825,-3352.7476L13587.7856,-3352.7398L13587.7873,-3352.7377L13587.789,-3352.7384L13587.7894,-3352.7419L13587.7903,-3352.7465L13587.7897,-3352.7581L13587.7898,-3352.7655L13587.7877,-3352.7733L13587.7829,-3352.7786L13587.7794,-3352.7835L13587.7786,-3352.7871L13587.7817,-3352.7877L13587.7861,-3352.7877L13587.7876,-3352.792L13587.7906,-3352.7976L13587.7913,-3352.8029L13587.7934,-3352.8053L13587.7967,-3352.8046L13587.8005,-3352.8021L13587.808,-3352.7915Z"/>
<path content="和歌山県,,東牟婁郡,串本町,,30428" xlink:title="和歌山県" d="M13587.8522,-3352.8361L13587.8582,-3352.827L13587.8627,-3352.8273L13587.8715,-3352.8347L13587.8747,-3352.8315L13587.8765,-3352.8227L13587.8794,-3352.8071L13587.8776,-3352.799L13587.8694,-3352.7895L13587.8548,-3352.7822L13587.8474,-3352.778L13587.8398,-3352.7717L13587.8343,-3352.7699L13587.8262,-3352.7756L13587.8145,-3352.7876L13587.8086,-3352.7958L13587.8068,-3352.7997L13587.8028,-3352.8032L13587.7992,-3352.8067L13587.7986,-3352.8103L13587.8014,-3352.8102L13587.8049,-3352.8081L13587.8068,-3352.8081L13587.8087,-3352.8113L13587.8058,-3352.8173L13587.8038,-3352.8229L13587.8042,-3352.8293L13587.8051,-3352.8356L13587.8083,-3352.8409L13587.8171,-3352.8433L13587.8315,-3352.8468L13587.839,-3352.8478L13587.8445,-3352.8471L13587.8522,-3352.8361Z"/>
<path content="和歌山県,,東牟婁郡,串本町,,30428" xlink:title="和歌山県" d="M13587.8906,-3352.8661L13587.8848,-3352.8706L13587.8814,-3352.8723L13587.8745,-3352.8671L13587.8729,-3352.8586L13587.8691,-3352.8555L13587.8662,-3352.8565L13587.8583,-3352.865L13587.8484,-3352.8746L13587.8445,-3352.8792L13587.8433,-3352.8876L13587.8437,-3352.8912L13587.8463,-3352.8926L13587.8553,-3352.8999L13587.8623,-3352.9038L13587.8695,-3352.9062L13587.8747,-3352.9069L13587.8783,-3352.9055L13587.8793,-3352.9023L13587.8802,-3352.9023L13587.8835,-3352.9034L13587.8867,-3352.909L13587.8887,-3352.9153L13587.8906,-3352.9183Z"/>
<path content="和歌山県,,東牟婁郡,串本町,,30428" xlink:title="和歌山県" d="M13587.7824,-3352.6017L13587.7773,-3352.5915L13587.7697,-3352.5869L13587.7646,-3352.5834L13587.7595,-3352.5746L13587.7576,-3352.5725L13587.7542,-3352.5725L13587.7528,-3352.5775L13587.7537,-3352.5916L13587.7525,-3352.5933L13587.7516,-3352.5926L13587.747,-3352.5849L13587.7455,-3352.5807L13587.7455,-3352.5782L13587.749,-3352.5729L13587.7489,-3352.5645L13587.7483,-3352.5634L13587.7439,-3352.5655L13587.7412,-3352.5694L13587.7387,-3352.5705L13587.7385,-3352.574L13587.7379,-3352.5768L13587.7305,-3352.5793L13587.727,-3352.585L13587.7247,-3352.5889L13587.7243,-3352.5945L13587.726,-3352.5949L13587.7296,-3352.5945L13587.7342,-3352.5931L13587.7372,-3352.5955L13587.7389,-3352.6008L13587.7414,-3352.6033L13587.7414,-3352.6064L13587.7406,-3352.611L13587.7406,-3352.6149L13587.7426,-3352.6184L13587.7407,-3352.6234L13587.7386,-3352.6272L13587.7376,-3352.6332L13587.7374,-3352.6378L13587.7387,-3352.6417L13587.7425,-3352.6452L13587.7461,-3352.6522L13587.7506,-3352.6575L13587.7537,-3352.6578L13587.7571,-3352.6578L13587.7594,-3352.6532L13587.7656,-3352.6426L13587.7717,-3352.638L13587.7781,-3352.6267L13587.7814,-3352.6179L13587.7835,-3352.6056L13587.7824,-3352.6017Z"/>
<path content="和歌山県,,東牟婁郡,串本町,,30428" xlink:title="和歌山県" d="M13587.7982,-3352.6971L13587.797,-3352.6876L13587.7947,-3352.6851L13587.7993,-3352.6767L13587.7984,-3352.6665L13587.8017,-3352.6597L13587.8073,-3352.6484L13587.8127,-3352.6371L13587.8131,-3352.6354L13587.8112,-3352.6336L13587.8064,-3352.6372L13587.8022,-3352.6421L13587.7995,-3352.6453L13587.7968,-3352.6478L13587.7953,-3352.6481L13587.7907,-3352.6534L13587.7853,-3352.6619L13587.7828,-3352.6655L13587.7814,-3352.6693L13587.7797,-3352.6697L13587.7729,-3352.6662L13587.7681,-3352.6687L13587.7633,-3352.6715L13587.7623,-3352.6736L13587.761,-3352.6779L13587.7627,-3352.6807L13587.7657,-3352.6824L13587.7655,-3352.6846L13587.7649,-3352.686L13587.764,-3352.6863L13587.7564,-3352.6797L13587.7537,-3352.6818L13587.7523,-3352.6839L13587.7537,-3352.685L13587.7622,-3352.6927L13587.7664,-3352.6972L13587.7687,-3352.6972L13587.7696,-3352.6965L13587.7706,-3352.6951L13587.7725,-3352.6972L13587.777,-3352.7039L13587.7799,-3352.7046L13587.7822,-3352.7049L13587.782,-3352.7085L13587.7825,-3352.7134L13587.7831,-3352.7151L13587.784,-3352.7166L13587.7859,-3352.7172L13587.7899,-3352.7165L13587.7924,-3352.7119L13587.7946,-3352.7063L13587.7982,-3352.6971Z"/>
<path content="和歌山県,,東牟婁郡,串本町,,30428" xlink:title="和歌山県" d="M13586.4008,-3352.5632L13586.3985,-3352.5625L13586.3943,-3352.566L13586.3802,-3352.5808L13586.3738,-3352.5889L13586.3659,-3352.5988L13586.3643,-3352.603L13586.3644,-3352.6245L13586.3675,-3352.6269L13586.3732,-3352.6279L13586.3761,-3352.6258L13586.3763,-3352.6205L13586.3771,-3352.6174L13586.3802,-3352.6156L13586.3877,-3352.6152L13586.3927,-3352.6142L13586.3961,-3352.6085L13586.3971,-3352.6022L13586.397,-3352.5969L13586.3914,-3352.5941L13586.3882,-3352.591L13586.3903,-3352.5885L13586.4004,-3352.5748L13586.4033,-3352.5698L13586.4008,-3352.5632Z"/>
<path content="和歌山県,,東牟婁郡,串本町,,30428" xlink:title="和歌山県" d="M13586.7495,-3352.9837L13586.7472,-3352.9835L13586.7454,-3352.9839L13586.7441,-3352.9857L13586.7441,-3352.9876L13586.7453,-3352.9914L13586.7464,-3352.9956L13586.7475,-3353.0023L13586.7492,-3353.0063L13586.7497,-3353.0093L13586.7501,-3353.0119L13586.7501,-3353.0147L13586.7511,-3353.0176L13586.7543,-3353.0213L13586.7593,-3353.0259L13586.7601,-3353.0273L13586.7853,-3353.0273L13586.7823,-3353.0254L13586.7774,-3353.0194L13586.7742,-3353.0181L13586.7719,-3353.0165L13586.7688,-3353.0125L13586.7643,-3353.0086L13586.7613,-3353.0073L13586.7578,-3353.0024L13586.7562,-3353.0015L13586.7546,-3353.0014L13586.7535,-3353.0005L13586.7532,-3352.9985L13586.7531,-3352.9954L13586.752,-3352.9895L13586.7503,-3352.9853L13586.7495,-3352.9837Z"/>
<path content="和歌山県,,東牟婁郡,串本町,,30428" xlink:title="和歌山県" d="M13587.825,-3352.6797L13587.831,-3352.6748L13587.8377,-3352.6681L13587.8381,-3352.6599L13587.8364,-3352.6561L13587.8347,-3352.6536L13587.829,-3352.6533L13587.8256,-3352.6512L13587.8249,-3352.6438L13587.8213,-3352.641L13587.8195,-3352.6413L13587.8149,-3352.6459L13587.8134,-3352.6505L13587.8097,-3352.6579L13587.8105,-3352.6615L13587.8122,-3352.6636L13587.8095,-3352.6692L13587.8066,-3352.6703L13587.8047,-3352.6714L13587.8037,-3352.6731L13587.802,-3352.6791L13587.8012,-3352.6837L13587.8019,-3352.6865L13587.8032,-3352.689L13587.8055,-3352.6907L13587.8095,-3352.6921L13587.8111,-3352.6897L13587.818,-3352.6787L13587.8195,-3352.6787L13587.8195,-3352.6791L13587.8187,-3352.6826L13587.8164,-3352.6872L13587.8153,-3352.6893L13587.8133,-3352.6925L13587.8143,-3352.6939L13587.8173,-3352.6925L13587.821,-3352.6864L13587.8227,-3352.6819L13587.825,-3352.6797Z"/>
<path content="和歌山県,,東牟婁郡,串本町,,30428" xlink:title="和歌山県" d="M13587.7255,-3352.5212L13587.7228,-3352.5177L13587.7175,-3352.5149L13587.7127,-3352.5128L13587.7116,-3352.5089L13587.7091,-3352.5086L13587.7066,-3352.5121L13587.7016,-3352.5185L13587.6984,-3352.5196L13587.6984,-3352.5189L13587.7005,-3352.516L13587.7051,-3352.5104L13587.7032,-3352.5072L13587.6979,-3352.5023L13587.6882,-3352.5L13587.6863,-3352.4995L13587.6855,-3352.5L13587.6824,-3352.5017L13587.6811,-3352.507L13587.6816,-3352.5133L13587.6829,-3352.5207L13587.685,-3352.5256L13587.688,-3352.527L13587.6951,-3352.5291L13587.7004,-3352.5305L13587.7063,-3352.5322L13587.7145,-3352.5329L13587.7212,-3352.5343L13587.7239,-3352.5329L13587.7258,-3352.5283L13587.7255,-3352.5212Z"/>
<path content="和歌山県,,東牟婁郡,串本町,,30428" xlink:title="和歌山県" d="M13586.4897,-3352.5376L13586.4873,-3352.5361L13586.4845,-3352.5399L13586.4842,-3352.546L13586.4846,-3352.5478L13586.4866,-3352.5501L13586.4875,-3352.553L13586.4861,-3352.5558L13586.4848,-3352.5591L13586.479,-3352.5649L13586.4769,-3352.5665L13586.4761,-3352.5687L13586.476,-3352.5707L13586.4755,-3352.5746L13586.4741,-3352.5767L13586.474,-3352.5783L13586.4762,-3352.5798L13586.4807,-3352.5805L13586.4856,-3352.5805L13586.4898,-3352.5788L13586.4935,-3352.5752L13586.4957,-3352.5714L13586.4991,-3352.5709L13586.5031,-3352.5696L13586.5059,-3352.5662L13586.5071,-3352.5585L13586.5074,-3352.555L13586.5045,-3352.5524L13586.5015,-3352.5507L13586.496,-3352.5487L13586.494,-3352.5475L13586.4945,-3352.5445L13586.4968,-3352.5426L13586.4934,-3352.5405L13586.4897,-3352.5376Z"/>
<path content="和歌山県,,東牟婁郡,串本町,,30428" xlink:title="和歌山県" d="M13587.6965,-3352.9421L13587.6982,-3352.9407L13587.6965,-3352.9403L13587.6938,-3352.9417L13587.6906,-3352.9393L13587.6794,-3352.9266L13587.6735,-3352.926L13587.6708,-3352.9267L13587.6683,-3352.9302L13587.6685,-3352.9337L13587.6715,-3352.9365L13587.67,-3352.9397L13587.6696,-3352.9422L13587.67,-3352.9457L13587.6715,-3352.9482L13587.6751,-3352.9478L13587.6776,-3352.9439L13587.6788,-3352.9418L13587.6793,-3352.9418L13587.6797,-3352.9457L13587.6801,-3352.9492L13587.6808,-3352.9548L13587.6831,-3352.9573L13587.6871,-3352.9594L13587.6926,-3352.9601L13587.6977,-3352.9597L13587.7004,-3352.9572L13587.7047,-3352.9509L13587.7047,-3352.9477L13587.7024,-3352.9435L13587.6975,-3352.9428L13587.6965,-3352.9421Z"/>
<path content="和歌山県,,東牟婁郡,串本町,,30428" xlink:title="和歌山県" d="M13587.6312,-3352.9625L13587.6259,-3352.9604L13587.6171,-3352.9614L13587.6022,-3352.9629L13587.5964,-3352.9668L13587.5936,-3352.9718L13587.5944,-3352.9771L13587.5991,-3352.9805L13587.6054,-3352.9829L13587.6121,-3352.984L13587.6196,-3352.9839L13587.6228,-3352.9803L13587.6254,-3352.9755L13587.6287,-3352.9716L13587.6319,-3352.9674L13587.6312,-3352.9625Z"/>
<path content="和歌山県,,東牟婁郡,串本町,,30428" xlink:title="和歌山県" d="M13586.2127,-3352.6781L13586.2074,-3352.678L13586.204,-3352.6797L13586.2015,-3352.6837L13586.1987,-3352.6946L13586.1989,-3352.701L13586.1981,-3352.7023L13586.1953,-3352.7038L13586.1933,-3352.7055L13586.1925,-3352.7089L13586.1941,-3352.7157L13586.198,-3352.7173L13586.2037,-3352.717L13586.208,-3352.7148L13586.2105,-3352.7119L13586.2108,-3352.7035L13586.2117,-3352.7014L13586.2171,-3352.6981L13586.2193,-3352.6948L13586.2195,-3352.686L13586.2167,-3352.6813L13586.2127,-3352.6781Z"/>
<path content="和歌山県,,東牟婁郡,串本町,,30428" xlink:title="和歌山県" d="M13586.3187,-3352.5863L13586.3145,-3352.586L13586.3092,-3352.5885L13586.3002,-3352.5999L13586.3004,-3352.6031L13586.3033,-3352.607L13586.3044,-3352.6102L13586.3041,-3352.6126L13586.2998,-3352.6181L13586.2991,-3352.6215L13586.3011,-3352.6249L13586.3038,-3352.626L13586.3085,-3352.6255L13586.3105,-3352.6243L13586.3132,-3352.6193L13586.3155,-3352.6071L13586.3238,-3352.595L13586.3235,-3352.5901L13586.3221,-3352.5884L13586.3187,-3352.5863Z"/>
<path content="和歌山県,,東牟婁郡,串本町,,30428" xlink:title="和歌山県" d="M13586.4483,-3352.5879L13586.4476,-3352.5833L13586.4469,-3352.582L13586.4479,-3352.5792L13586.4488,-3352.5764L13586.4462,-3352.5746L13586.4418,-3352.5717L13586.438,-3352.5734L13586.4346,-3352.5747L13586.4291,-3352.5759L13586.4246,-3352.5761L13586.4219,-3352.5769L13586.4219,-3352.5783L13586.4251,-3352.582L13586.4251,-3352.5839L13586.4243,-3352.5866L13586.4248,-3352.5916L13586.4256,-3352.5943L13586.4278,-3352.5963L13586.4299,-3352.5946L13586.4331,-3352.5912L13586.435,-3352.5874L13586.4356,-3352.5859L13586.4376,-3352.5869L13586.4376,-3352.589L13586.4381,-3352.5919L13586.4392,-3352.5933L13586.4392,-3352.5994L13586.4371,-3352.5998L13586.4351,-3352.6016L13586.4346,-3352.606L13586.4346,-3352.6079L13586.4365,-3352.6088L13586.4403,-3352.6074L13586.4407,-3352.6053L13586.441,-3352.6013L13586.4415,-3352.6002L13586.4432,-3352.599L13586.4468,-3352.5976L13586.4535,-3352.5956L13586.4534,-3352.5913L13586.4499,-3352.5913L13586.4488,-3352.5903L13586.4483,-3352.5879Z"/>
<path content="和歌山県,,東牟婁郡,串本町,,30428" xlink:title="和歌山県" d="M13585.9365,-3352.4694L13585.9387,-3352.4652L13585.938,-3352.4607L13585.936,-3352.4585L13585.937,-3352.4555L13585.9355,-3352.4506L13585.935,-3352.4481L13585.9324,-3352.4496L13585.9283,-3352.4526L13585.9273,-3352.4541L13585.9277,-3352.4569L13585.9288,-3352.4589L13585.931,-3352.4607L13585.9318,-3352.4623L13585.9308,-3352.4634L13585.9292,-3352.4687L13585.927,-3352.4686L13585.9255,-3352.4677L13585.922,-3352.4681L13585.9196,-3352.4681L13585.918,-3352.4697L13585.9155,-3352.4764L13585.9155,-3352.4844L13585.9176,-3352.4878L13585.9203,-3352.488L13585.9218,-3352.4894L13585.9225,-3352.4917L13585.923,-3352.4938L13585.9265,-3352.4943L13585.9293,-3352.4927L13585.932,-3352.4899L13585.9335,-3352.4879L13585.9335,-3352.4817L13585.934,-3352.4781L13585.9355,-3352.4721L13585.9365,-3352.4694Z"/>
<path content="和歌山県,,東牟婁郡,串本町,,30428" xlink:title="和歌山県" d="M13587.8599,-3352.772L13587.861,-3352.77L13587.862,-3352.7705L13587.8634,-3352.7707L13587.8694,-3352.7668L13587.8731,-3352.7636L13587.8743,-3352.7617L13587.8734,-3352.7588L13587.8725,-3352.7566L13587.8664,-3352.7512L13587.8627,-3352.7502L13587.8599,-3352.7504L13587.8557,-3352.7505L13587.8527,-3352.7532L13587.8533,-3352.7546L13587.852,-3352.7564L13587.8496,-3352.7564L13587.8466,-3352.7586L13587.8447,-3352.7598L13587.8432,-3352.7603L13587.8392,-3352.7638L13587.84,-3352.7675L13587.8414,-3352.7695L13587.8447,-3352.7718L13587.851,-3352.7742L13587.8544,-3352.7754L13587.8599,-3352.772Z"/>
<path content="和歌山県,,東牟婁郡,串本町,,30428" xlink:title="和歌山県" d="M13586.6301,-3352.953L13586.6328,-3352.9505L13586.6349,-3352.949L13586.6361,-3352.9472L13586.6361,-3352.9439L13586.6349,-3352.9422L13586.6333,-3352.9408L13586.6299,-3352.9379L13586.6276,-3352.9362L13586.6199,-3352.9361L13586.6164,-3352.9371L13586.6152,-3352.9362L13586.6152,-3352.9344L13586.612,-3352.9345L13586.6055,-3352.9362L13586.6016,-3352.9382L13586.5991,-3352.9401L13586.5988,-3352.9459L13586.6016,-3352.948L13586.6093,-3352.9514L13586.613,-3352.9512L13586.6155,-3352.9528L13586.6219,-3352.9528L13586.6301,-3352.953Z"/>
<path content="和歌山県,,東牟婁郡,串本町,,30428" xlink:title="和歌山県" d="M13587.7008,-3352.4653L13587.7014,-3352.4579L13587.7003,-3352.4547L13587.6946,-3352.4495L13587.6887,-3352.4481L13587.6873,-3352.4513L13587.6869,-3352.4541L13587.6894,-3352.459L13587.6936,-3352.4593L13587.6955,-3352.4615L13587.6935,-3352.4629L13587.6848,-3352.4615L13587.6817,-3352.4636L13587.6788,-3352.4654L13587.6754,-3352.4714L13587.6744,-3352.4756L13587.674,-3352.4774L13587.677,-3352.4823L13587.6818,-3352.4827L13587.6885,-3352.4791L13587.6952,-3352.4763L13587.7008,-3352.4653Z"/>
<path content="和歌山県,,東牟婁郡,串本町,,30428" xlink:title="和歌山県" d="M13585.9664,-3352.4377L13585.9666,-3352.4339L13585.9566,-3352.436L13585.9498,-3352.4388L13585.9433,-3352.4455L13585.9398,-3352.4512L13585.943,-3352.4585L13585.9435,-3352.4634L13585.9466,-3352.4634L13585.9536,-3352.4587L13585.9619,-3352.4533L13585.9656,-3352.447L13585.9669,-3352.4411L13585.9664,-3352.4377Z"/>
<path content="和歌山県,,東牟婁郡,串本町,,30428" xlink:title="和歌山県" d="M13587.7146,-3352.5458L13587.716,-3352.5448L13587.7172,-3352.5452L13587.7172,-3352.5482L13587.7185,-3352.5509L13587.7209,-3352.5514L13587.7211,-3352.549L13587.7239,-3352.5482L13587.7255,-3352.546L13587.7263,-3352.5436L13587.7255,-3352.5402L13587.7286,-3352.5401L13587.7279,-3352.5374L13587.7271,-3352.5348L13587.7247,-3352.5345L13587.7201,-3352.5355L13587.7181,-3352.5377L13587.7114,-3352.5355L13587.7065,-3352.535L13587.7033,-3352.5362L13587.7017,-3352.537L13587.6995,-3352.5374L13587.6983,-3352.5401L13587.6962,-3352.5431L13587.695,-3352.5438L13587.6948,-3352.5474L13587.7033,-3352.5546L13587.7086,-3352.5546L13587.7124,-3352.5517L13587.7146,-3352.5458Z"/>
<path content="和歌山県,,東牟婁郡,串本町,,30428" xlink:title="和歌山県" d="M13585.9579,-3352.5422L13585.9526,-3352.5386L13585.9416,-3352.5432L13585.9338,-3352.5477L13585.9293,-3352.5512L13585.928,-3352.555L13585.928,-3352.559L13585.93,-3352.5674L13585.9323,-3352.5653L13585.9375,-3352.5611L13585.9436,-3352.558L13585.9496,-3352.5561L13585.9539,-3352.5529L13585.9571,-3352.5498L13585.9584,-3352.547L13585.9579,-3352.5422Z"/>
<path content="和歌山県,,東牟婁郡,串本町,,30428" xlink:title="和歌山県" d="M13585.9837,-3352.43L13585.9865,-3352.4252L13585.987,-3352.4217L13585.9865,-3352.4181L13585.9857,-3352.4154L13585.9832,-3352.4142L13585.9805,-3352.414L13585.9777,-3352.4139L13585.9737,-3352.4131L13585.9708,-3352.4143L13585.9678,-3352.4168L13585.9638,-3352.4217L13585.9576,-3352.4257L13585.9553,-3352.4278L13585.9573,-3352.4296L13585.9616,-3352.43L13585.9656,-3352.4309L13585.9668,-3352.4314L13585.9695,-3352.4302L13585.9735,-3352.4275L13585.9735,-3352.431L13585.9755,-3352.4332L13585.978,-3352.4334L13585.981,-3352.4325L13585.9837,-3352.43Z"/>
<path content="和歌山県,,東牟婁郡,串本町,,30428" xlink:title="和歌山県" d="M13586.6263,-3352.9728L13586.6281,-3352.9712L13586.6287,-3352.972L13586.6285,-3352.9734L13586.6287,-3352.9752L13586.63,-3352.9749L13586.6331,-3352.9731L13586.6333,-3352.971L13586.6346,-3352.9674L13586.6386,-3352.9649L13586.6391,-3352.9634L13586.6401,-3352.9635L13586.6397,-3352.9652L13586.639,-3352.9665L13586.6392,-3352.9678L13586.641,-3352.9684L13586.6428,-3352.9674L13586.6475,-3352.9628L13586.6468,-3352.9619L13586.6438,-3352.9636L13586.6431,-3352.9627L13586.6428,-3352.9616L13586.643,-3352.9606L13586.6411,-3352.9607L13586.6384,-3352.9607L13586.6384,-3352.9595L13586.6371,-3352.9594L13586.6346,-3352.9595L13586.632,-3352.9601L13586.63,-3352.9615L13586.6286,-3352.9616L13586.6214,-3352.959L13586.6179,-3352.9581L13586.6161,-3352.9588L13586.6148,-3352.9598L13586.6141,-3352.9616L13586.6145,-3352.9654L13586.6148,-3352.9679L13586.617,-3352.9699L13586.6204,-3352.9717L13586.6216,-3352.9729L13586.622,-3352.975L13586.6236,-3352.9768L13586.6254,-3352.9769L13586.6258,-3352.9742L13586.6263,-3352.9728Z"/>
<path content="和歌山県,,東牟婁郡,串本町,,30428" xlink:title="和歌山県" d="M13586.4463,-3352.5593L13586.4515,-3352.5517L13586.4532,-3352.5472L13586.4537,-3352.5439L13586.453,-3352.5418L13586.4509,-3352.5415L13586.4489,-3352.5427L13586.4445,-3352.5475L13586.4418,-3352.5495L13586.4407,-3352.5517L13586.4408,-3352.5539L13586.4391,-3352.5568L13586.4361,-3352.5572L13586.4333,-3352.5561L13586.4303,-3352.55L13586.4288,-3352.5458L13586.4273,-3352.5482L13586.4259,-3352.5535L13586.4253,-3352.5566L13586.4283,-3352.5618L13586.4304,-3352.5639L13586.4383,-3352.5653L13586.4463,-3352.5593Z"/>
<path content="和歌山県,,東牟婁郡,串本町,,30428" xlink:title="和歌山県" d="M13587.7883,-3352.5338L13587.7853,-3352.5331L13587.7827,-3352.5353L13587.7782,-3352.5439L13587.777,-3352.551L13587.7778,-3352.5527L13587.7778,-3352.5542L13587.7809,-3352.5548L13587.7855,-3352.555L13587.7916,-3352.5532L13587.7938,-3352.5497L13587.7936,-3352.5474L13587.7942,-3352.5426L13587.7938,-3352.5399L13587.7942,-3352.5369L13587.7938,-3352.5349L13587.7883,-3352.5338Z"/>
<path content="和歌山県,,東牟婁郡,串本町,,30428" xlink:title="和歌山県" d="M13587.7297,-3352.4561L13587.7281,-3352.4561L13587.7249,-3352.459L13587.7218,-3352.4632L13587.7174,-3352.4688L13587.7182,-3352.4731L13587.719,-3352.4769L13587.7208,-3352.4805L13587.7233,-3352.4812L13587.7253,-3352.4832L13587.7269,-3352.4829L13587.7285,-3352.4807L13587.7315,-3352.4781L13587.7313,-3352.4717L13587.7313,-3352.4646L13587.7307,-3352.4614L13587.7297,-3352.4614L13587.7297,-3352.4597L13587.7315,-3352.4587L13587.7313,-3352.457L13587.7297,-3352.4561Z"/>
<path content="和歌山県,,東牟婁郡,串本町,,30428" xlink:title="和歌山県" d="M13587.8034,-3352.4311L13587.8,-3352.4305L13587.7973,-3352.4315L13587.7953,-3352.4342L13587.7967,-3352.4367L13587.7969,-3352.4411L13587.7957,-3352.4421L13587.7963,-3352.4445L13587.7987,-3352.4476L13587.7998,-3352.4504L13587.8028,-3352.4523L13587.8042,-3352.4548L13587.8072,-3352.4553L13587.8107,-3352.4552L13587.8131,-3352.4536L13587.8141,-3352.4514L13587.8139,-3352.4496L13587.8117,-3352.4484L13587.8113,-3352.447L13587.8125,-3352.4452L13587.8115,-3352.4428L13587.8082,-3352.4411L13587.8046,-3352.4394L13587.8036,-3352.4376L13587.8038,-3352.4357L13587.8044,-3352.4332L13587.8034,-3352.4311Z"/>
<path content="和歌山県,,東牟婁郡,串本町,,30428" xlink:title="和歌山県" d="M13586.9642,-3352.9293L13586.9612,-3352.9286L13586.9575,-3352.9296L13586.9552,-3352.9324L13586.9527,-3352.9382L13586.9493,-3352.9491L13586.9496,-3352.9506L13586.9522,-3352.9506L13586.956,-3352.9499L13586.9617,-3352.9466L13586.964,-3352.9422L13586.9665,-3352.9378L13586.9665,-3352.934L13586.9664,-3352.9309L13586.9642,-3352.9293Z"/>
<path content="和歌山県,,東牟婁郡,串本町,,30428" xlink:title="和歌山県" d="M13587.7663,-3352.6992L13587.7601,-3352.6948L13587.7572,-3352.7018L13587.7584,-3352.705L13587.7615,-3352.7065L13587.7629,-3352.7074L13587.7633,-3352.7102L13587.7661,-3352.7126L13587.7724,-3352.718L13587.776,-3352.7177L13587.778,-3352.7163L13587.7788,-3352.7138L13587.7786,-3352.7114L13587.7732,-3352.7048L13587.7663,-3352.6992Z"/>
<path content="和歌山県,,東牟婁郡,串本町,,30428" xlink:title="和歌山県" d="M13586.8159,-3352.9421L13586.8145,-3352.937L13586.8127,-3352.9371L13586.8037,-3352.9429L13586.799,-3352.9463L13586.7983,-3352.9489L13586.7983,-3352.9517L13586.7994,-3352.9532L13586.8083,-3352.957L13586.8114,-3352.9549L13586.8142,-3352.9508L13586.8168,-3352.9466L13586.8159,-3352.9421Z"/>
<path content="和歌山県,,東牟婁郡,串本町,,30428" xlink:title="和歌山県" d="M13585.913,-3352.4737L13585.913,-3352.4688L13585.9154,-3352.4679L13585.9157,-3352.4639L13585.9157,-3352.4596L13585.9155,-3352.4529L13585.9125,-3352.4511L13585.9107,-3352.4525L13585.9098,-3352.4553L13585.9085,-3352.4582L13585.9057,-3352.4589L13585.9021,-3352.4573L13585.9003,-3352.4563L13585.8991,-3352.4584L13585.898,-3352.4601L13585.8981,-3352.4626L13585.8995,-3352.4647L13585.9045,-3352.4704L13585.9069,-3352.4699L13585.9097,-3352.4694L13585.9114,-3352.4704L13585.9114,-3352.4727L13585.9105,-3352.4748L13585.9113,-3352.4755L13585.913,-3352.4737Z"/>
<path content="和歌山県,,東牟婁郡,串本町,,30428" xlink:title="和歌山県" d="M13586.6003,-3352.6946L13586.5995,-3352.6925L13586.5973,-3352.6946L13586.5954,-3352.698L13586.5938,-3352.7009L13586.5908,-3352.7057L13586.5884,-3352.7107L13586.5894,-3352.7152L13586.5916,-3352.7166L13586.5965,-3352.7232L13586.5997,-3352.7238L13586.6027,-3352.7227L13586.6022,-3352.7179L13586.6024,-3352.7145L13586.6014,-3352.7109L13586.5995,-3352.7095L13586.5981,-3352.7077L13586.5949,-3352.7077L13586.5946,-3352.7055L13586.5965,-3352.7036L13586.5989,-3352.7014L13586.5995,-3352.6996L13586.5984,-3352.6977L13586.6003,-3352.6946Z"/>
<path content="和歌山県,,東牟婁郡,串本町,,30428" xlink:title="和歌山県" d="M13586.675,-3352.2967L13586.6714,-3352.2965L13586.6676,-3352.2978L13586.6667,-3352.2986L13586.6659,-3352.2992L13586.6638,-3352.3036L13586.6619,-3352.3063L13586.6599,-3352.3088L13586.6595,-3352.3144L13586.6623,-3352.3162L13586.6662,-3352.3166L13586.6667,-3352.3163L13586.6685,-3352.3152L13586.6714,-3352.3107L13586.6758,-3352.3034L13586.6766,-3352.3003L13586.675,-3352.2967Z"/>
<path content="和歌山県,,東牟婁郡,串本町,,30428" xlink:title="和歌山県" d="M13585.96,-3352.4027L13585.9565,-3352.4019L13585.9543,-3352.4033L13585.9528,-3352.4052L13585.9496,-3352.4122L13585.9504,-3352.4155L13585.9518,-3352.4156L13585.9519,-3352.4167L13585.9519,-3352.4198L13585.9535,-3352.4221L13585.9558,-3352.4194L13585.96,-3352.4169L13585.9627,-3352.4143L13585.9658,-3352.4121L13585.9673,-3352.4096L13585.966,-3352.4068L13585.9633,-3352.4043L13585.96,-3352.4027Z"/>
<path content="和歌山県,,東牟婁郡,串本町,,30428" xlink:title="和歌山県" d="M13587.8882,-3352.8471L13587.8866,-3352.8458L13587.8824,-3352.8467L13587.8789,-3352.8515L13587.8777,-3352.8538L13587.8781,-3352.8561L13587.8799,-3352.8623L13587.88,-3352.865L13587.8812,-3352.8665L13587.8846,-3352.8666L13587.8859,-3352.8663L13587.8879,-3352.8648L13587.8881,-3352.8634L13587.8889,-3352.8629L13587.8898,-3352.8622L13587.8903,-3352.858L13587.8902,-3352.8554L13587.89,-3352.8524L13587.8904,-3352.8503L13587.8898,-3352.8482L13587.8882,-3352.8471Z"/>
<path content="和歌山県,,東牟婁郡,串本町,,30428" xlink:title="和歌山県" d="M13587.7309,-3352.6212L13587.7313,-3352.616L13587.7347,-3352.6161L13587.7355,-3352.6151L13587.7353,-3352.6112L13587.7325,-3352.6099L13587.7303,-3352.6087L13587.7269,-3352.6079L13587.723,-3352.6075L13587.7186,-3352.6111L13587.7194,-3352.6172L13587.725,-3352.6241L13587.7295,-3352.6261L13587.7309,-3352.6244L13587.7309,-3352.6212Z"/>
<path content="和歌山県,,東牟婁郡,串本町,,30428" xlink:title="和歌山県" d="M13585.7952,-3352.379L13585.7935,-3352.379L13585.7907,-3352.3815L13585.79,-3352.3846L13585.7892,-3352.3878L13585.789,-3352.3905L13585.7917,-3352.391L13585.7938,-3352.391L13585.7945,-3352.3941L13585.7958,-3352.3958L13585.7975,-3352.3962L13585.7987,-3352.3965L13585.8015,-3352.3955L13585.8029,-3352.3943L13585.8051,-3352.3923L13585.8061,-3352.3899L13585.8045,-3352.3871L13585.8039,-3352.3845L13585.8039,-3352.3828L13585.8019,-3352.3822L13585.7995,-3352.3821L13585.7979,-3352.3817L13585.7975,-3352.3797L13585.7952,-3352.379Z"/>
<path content="和歌山県,,東牟婁郡,串本町,,30428" xlink:title="和歌山県" d="M13585.7868,-3352.3681L13585.7855,-3352.3674L13585.7833,-3352.3676L13585.7791,-3352.3717L13585.7774,-3352.3759L13585.7764,-3352.3803L13585.7796,-3352.3839L13585.781,-3352.386L13585.7791,-3352.3882L13585.7769,-3352.3912L13585.7783,-3352.3933L13585.7815,-3352.3933L13585.7851,-3352.3888L13585.7856,-3352.3874L13585.7866,-3352.387L13585.7873,-3352.385L13585.7873,-3352.379L13585.7868,-3352.371L13585.7868,-3352.3681Z"/>
<path content="和歌山県,,東牟婁郡,串本町,,30428" xlink:title="和歌山県" d="M13587.7337,-3352.6445L13587.7314,-3352.6389L13587.7159,-3352.6457L13587.7151,-3352.6477L13587.7171,-3352.6503L13587.7205,-3352.6542L13587.7246,-3352.6542L13587.7274,-3352.6526L13587.7324,-3352.6523L13587.7345,-3352.6479L13587.7337,-3352.6445Z"/>
<path content="和歌山県,,東牟婁郡,串本町,,30428" xlink:title="和歌山県" d="M13586.4138,-3352.5292L13586.4105,-3352.5289L13586.4053,-3352.5322L13586.4041,-3352.5373L13586.4011,-3352.5412L13586.3974,-3352.5439L13586.3963,-3352.5461L13586.3979,-3352.5493L13586.4008,-3352.5503L13586.4051,-3352.5489L13586.4097,-3352.545L13586.4127,-3352.5398L13586.4117,-3352.5371L13586.4115,-3352.5356L13586.4133,-3352.5324L13586.4142,-3352.531L13586.4138,-3352.5292Z"/>
<path content="和歌山県,,東牟婁郡,串本町,,30428" xlink:title="和歌山県" d="M13586.1343,-3352.5419L13586.1314,-3352.5392L13586.1266,-3352.5396L13586.1232,-3352.5412L13586.1217,-3352.5434L13586.1215,-3352.5533L13586.1246,-3352.5553L13586.1287,-3352.555L13586.1333,-3352.5509L13586.1342,-3352.546L13586.1343,-3352.5419Z"/>
<path content="和歌山県,,東牟婁郡,串本町,,30428" xlink:title="和歌山県" d="M13585.7769,-3352.3553L13585.7746,-3352.3542L13585.7733,-3352.355L13585.7726,-3352.3578L13585.7702,-3352.363L13585.7707,-3352.3693L13585.7721,-3352.3704L13585.7719,-3352.3746L13585.7726,-3352.3753L13585.7748,-3352.3739L13585.7761,-3352.3723L13585.7798,-3352.3675L13585.7811,-3352.3633L13585.7818,-3352.3597L13585.782,-3352.3554L13585.7769,-3352.3553Z"/>
<path content="和歌山県,,東牟婁郡,串本町,,30428" xlink:title="和歌山県" d="M13586.6041,-3352.6771L13586.6043,-3352.6734L13586.6011,-3352.6737L13586.5968,-3352.675L13586.5938,-3352.68L13586.5927,-3352.6839L13586.5927,-3352.6875L13586.5894,-3352.6927L13586.5867,-3352.6946L13586.5854,-3352.6975L13586.587,-3352.6984L13586.5894,-3352.6973L13586.5916,-3352.6952L13586.5935,-3352.6943L13586.5957,-3352.6925L13586.5976,-3352.6898L13586.5989,-3352.6855L13586.6008,-3352.6823L13586.6041,-3352.6771Z"/>
<path content="和歌山県,,東牟婁郡,串本町,,30428" xlink:title="和歌山県" d="M13586.8353,-3352.9378L13586.8323,-3352.9376L13586.8268,-3352.9378L13586.8252,-3352.9391L13586.8238,-3352.9423L13586.8212,-3352.9476L13586.8183,-3352.9506L13586.816,-3352.9535L13586.8147,-3352.957L13586.8163,-3352.9574L13586.8184,-3352.956L13586.8261,-3352.9502L13586.8279,-3352.9478L13586.8279,-3352.9467L13586.8298,-3352.9463L13586.8317,-3352.9449L13586.8368,-3352.9415L13586.8382,-3352.9401L13586.8374,-3352.9386L13586.8353,-3352.9378Z"/>
<path content="和歌山県,,東牟婁郡,串本町,,30428" xlink:title="和歌山県" d="M13587.7923,-3352.5848L13587.7966,-3352.5846L13587.8049,-3352.5846L13587.8063,-3352.5825L13587.8066,-3352.5803L13587.8055,-3352.5777L13587.803,-3352.5761L13587.8005,-3352.5737L13587.7985,-3352.5736L13587.7968,-3352.5735L13587.7946,-3352.5752L13587.7923,-3352.5765L13587.7903,-3352.5788L13587.7885,-3352.5808L13587.7885,-3352.5825L13587.7898,-3352.584L13587.7923,-3352.5848Z"/>
<path content="和歌山県,,東牟婁郡,串本町,,30428" xlink:title="和歌山県" d="M13587.7596,-3352.4408L13587.7556,-3352.4403L13587.7533,-3352.4408L13587.7531,-3352.4423L13587.7546,-3352.4438L13587.7527,-3352.445L13587.7525,-3352.4487L13587.7535,-3352.4514L13587.7546,-3352.4528L13587.754,-3352.4545L13587.7542,-3352.457L13587.757,-3352.4579L13587.7602,-3352.4579L13587.7612,-3352.4531L13587.7626,-3352.4506L13587.7647,-3352.4475L13587.7647,-3352.446L13587.7628,-3352.4436L13587.7596,-3352.4408Z"/>
<path content="和歌山県,,東牟婁郡,串本町,,30428" xlink:title="和歌山県" d="M13587.7797,-3352.3048L13587.779,-3352.3035L13587.7768,-3352.3038L13587.7748,-3352.3041L13587.7732,-3352.3028L13587.7716,-3352.3004L13587.7706,-3352.2969L13587.7694,-3352.2938L13587.7673,-3352.2921L13587.7655,-3352.292L13587.7645,-3352.2926L13587.7669,-3352.2981L13587.7687,-3352.3026L13587.7681,-3352.3053L13587.7661,-3352.3072L13587.7661,-3352.3089L13587.7718,-3352.3123L13587.7728,-3352.3156L13587.775,-3352.3173L13587.7776,-3352.3168L13587.7754,-3352.3124L13587.776,-3352.3089L13587.7782,-3352.307L13587.7797,-3352.3048Z"/>
<path content="和歌山県,,東牟婁郡,串本町,,30428" xlink:title="和歌山県" d="M13587.7071,-3352.4931L13587.7073,-3352.4913L13587.7077,-3352.4897L13587.7045,-3352.4832L13587.6987,-3352.485L13587.6956,-3352.4874L13587.6948,-3352.4913L13587.6983,-3352.4931L13587.7005,-3352.4921L13587.7023,-3352.494L13587.7045,-3352.495L13587.7061,-3352.4962L13587.7065,-3352.4989L13587.7073,-3352.5L13587.7088,-3352.5023L13587.7114,-3352.5026L13587.7122,-3352.5007L13587.7122,-3352.5L13587.7122,-3352.498L13587.712,-3352.496L13587.7106,-3352.4943L13587.7082,-3352.4931L13587.7071,-3352.4931Z"/>
<path content="和歌山県,,東牟婁郡,串本町,,30428" xlink:title="和歌山県" d="M13587.6169,-3352.9325L13587.6123,-3352.9302L13587.6081,-3352.9383L13587.606,-3352.9426L13587.606,-3352.9457L13587.609,-3352.9464L13587.6148,-3352.9439L13587.6202,-3352.9416L13587.6202,-3352.9383L13587.6169,-3352.9325Z"/>
<path content="和歌山県,,東牟婁郡,串本町,,30428" xlink:title="和歌山県" d="M13585.7177,-3352.2764L13585.7129,-3352.276L13585.7067,-3352.2767L13585.7037,-3352.2789L13585.7025,-3352.282L13585.7038,-3352.2847L13585.7066,-3352.2856L13585.7181,-3352.284L13585.7214,-3352.2812L13585.7215,-3352.279L13585.7177,-3352.2764Z"/>
<path content="和歌山県,,東牟婁郡,串本町,,30428" xlink:title="和歌山県" d="M13587.8033,-3352.4986L13587.8041,-3352.4941L13587.799,-3352.4946L13587.794,-3352.4986L13587.7932,-3352.5L13587.7914,-3352.5032L13587.7914,-3352.5076L13587.7934,-3352.5124L13587.795,-3352.5134L13587.7972,-3352.51L13587.7992,-3352.5086L13587.8011,-3352.5022L13587.8025,-3352.5L13587.8033,-3352.4986Z"/>
<path content="和歌山県,,東牟婁郡,串本町,,30428" xlink:title="和歌山県" d="M13586.5428,-3352.7542L13586.54,-3352.7537L13586.5373,-3352.7548L13586.533,-3352.7605L13586.5326,-3352.7664L13586.5354,-3352.7689L13586.5385,-3352.7689L13586.5424,-3352.7662L13586.5447,-3352.7603L13586.5446,-3352.7572L13586.5428,-3352.7542Z"/>
<path content="和歌山県,,東牟婁郡,串本町,,30428" xlink:title="和歌山県" d="M13587.7641,-3352.4677L13587.766,-3352.4674L13587.7675,-3352.4678L13587.7672,-3352.4661L13587.7663,-3352.4657L13587.7664,-3352.4649L13587.7679,-3352.4647L13587.7687,-3352.4645L13587.7686,-3352.4632L13587.7679,-3352.462L13587.7666,-3352.461L13587.7662,-3352.4605L13587.7678,-3352.4598L13587.7686,-3352.4593L13587.7689,-3352.4581L13587.7689,-3352.457L13587.7676,-3352.4552L13587.7652,-3352.4552L13587.7641,-3352.4559L13587.7632,-3352.4557L13587.7617,-3352.457L13587.7613,-3352.4602L13587.7565,-3352.4645L13587.7554,-3352.4676L13587.7559,-3352.4701L13587.7594,-3352.4716L13587.7613,-3352.4716L13587.7641,-3352.4698L13587.7641,-3352.4677Z"/>
<path content="和歌山県,,東牟婁郡,串本町,,30428" xlink:title="和歌山県" d="M13585.9934,-3352.5463L13585.9931,-3352.5444L13585.9902,-3352.5447L13585.986,-3352.545L13585.9854,-3352.5429L13585.9854,-3352.5414L13585.9862,-3352.5391L13585.9827,-3352.5379L13585.9807,-3352.5426L13585.9792,-3352.551L13585.9763,-3352.5537L13585.979,-3352.5541L13585.986,-3352.552L13585.9924,-3352.5499L13585.9934,-3352.5463Z"/>
<path content="和歌山県,,東牟婁郡,串本町,,30428" xlink:title="和歌山県" d="M13586.5875,-3352.7211L13586.5851,-3352.72L13586.5827,-3352.722L13586.5821,-3352.7261L13586.5802,-3352.73L13586.5802,-3352.7343L13586.5813,-3352.7366L13586.5851,-3352.7384L13586.5873,-3352.735L13586.5886,-3352.7325L13586.5902,-3352.7298L13586.5897,-3352.7268L13586.5902,-3352.7227L13586.5875,-3352.7211Z"/>
<path content="和歌山県,,東牟婁郡,串本町,,30428" xlink:title="和歌山県" d="M13587.7675,-3352.5583L13587.7646,-3352.558L13587.7623,-3352.5594L13587.7587,-3352.5637L13587.7563,-3352.5665L13587.7563,-3352.5681L13587.7571,-3352.5697L13587.7587,-3352.5712L13587.7666,-3352.5725L13587.7673,-3352.5719L13587.7685,-3352.5673L13587.7686,-3352.5631L13587.7675,-3352.5583Z"/>
<path content="和歌山県,,東牟婁郡,串本町,,30428" xlink:title="和歌山県" d="M13586.0251,-3352.5871L13586.0256,-3352.5856L13586.0256,-3352.5817L13586.0269,-3352.5748L13586.0135,-3352.581L13586.0118,-3352.5838L13586.0118,-3352.586L13586.0137,-3352.587L13586.0164,-3352.5867L13586.02,-3352.588L13586.0229,-3352.588L13586.0251,-3352.5871Z"/>
<path content="和歌山県,,東牟婁郡,串本町,,30428" xlink:title="和歌山県" d="M13587.6873,-3352.539L13587.6873,-3352.5374L13587.6857,-3352.5359L13587.6839,-3352.5363L13587.6816,-3352.5376L13587.6808,-3352.5359L13587.6784,-3352.5352L13587.676,-3352.5361L13587.6719,-3352.5385L13587.6711,-3352.541L13587.6734,-3352.5445L13587.6758,-3352.5452L13587.6802,-3352.5451L13587.6849,-3352.5439L13587.6869,-3352.5413L13587.6873,-3352.539Z"/>
<path content="和歌山県,,東牟婁郡,串本町,,30428" xlink:title="和歌山県" d="M13586.6356,-3352.9128L13586.636,-3352.9112L13586.636,-3352.9104L13586.6346,-3352.9108L13586.6327,-3352.912L13586.6314,-3352.9126L13586.6285,-3352.9126L13586.6284,-3352.912L13586.6269,-3352.9123L13586.625,-3352.9137L13586.6221,-3352.9152L13586.6204,-3352.9169L13586.6205,-3352.9173L13586.6232,-3352.9175L13586.6244,-3352.9182L13586.6251,-3352.9197L13586.6275,-3352.9215L13586.6291,-3352.9226L13586.6306,-3352.9226L13586.6347,-3352.9205L13586.6377,-3352.9185L13586.6382,-3352.9172L13586.6372,-3352.9164L13586.6363,-3352.915L13586.6357,-3352.9139L13586.6356,-3352.9128Z"/>
<path content="和歌山県,,東牟婁郡,串本町,,30428" xlink:title="和歌山県" d="M13587.7917,-3352.2814L13587.7876,-3352.2778L13587.7851,-3352.2787L13587.7833,-3352.2797L13587.7821,-3352.2808L13587.7821,-3352.2828L13587.7832,-3352.2839L13587.7847,-3352.284L13587.7849,-3352.2857L13587.7849,-3352.2882L13587.7867,-3352.2915L13587.788,-3352.2919L13587.7917,-3352.2937L13587.7939,-3352.2925L13587.7952,-3352.2909L13587.793,-3352.2871L13587.7917,-3352.2836L13587.7917,-3352.2814Z"/>
<path content="和歌山県,,東牟婁郡,串本町,,30428" xlink:title="和歌山県" d="M13586.6355,-3352.6827L13586.634,-3352.6807L13586.631,-3352.6809L13586.6287,-3352.6836L13586.6275,-3352.685L13586.6247,-3352.6871L13586.6237,-3352.6872L13586.6215,-3352.688L13586.62,-3352.6892L13586.618,-3352.6914L13586.6191,-3352.6932L13586.622,-3352.6942L13586.6247,-3352.6941L13586.6255,-3352.6928L13586.6277,-3352.6924L13586.6294,-3352.692L13586.6317,-3352.6904L13586.6337,-3352.6876L13586.6329,-3352.6857L13586.6347,-3352.684L13586.6355,-3352.6827Z"/>
<path content="和歌山県,,東牟婁郡,串本町,,30428" xlink:title="和歌山県" d="M13586.0497,-3352.5671L13586.0497,-3352.5635L13586.0471,-3352.566L13586.0423,-3352.5705L13586.0401,-3352.5744L13586.0406,-3352.5786L13586.0408,-3352.5811L13586.042,-3352.5832L13586.0438,-3352.5831L13586.0461,-3352.5797L13586.0483,-3352.5775L13586.0498,-3352.5771L13586.0497,-3352.5751L13586.0468,-3352.5734L13586.0468,-3352.5717L13586.0473,-3352.5707L13586.0492,-3352.5686L13586.0497,-3352.5671Z"/>
<path content="和歌山県,,東牟婁郡,串本町,,30428" xlink:title="和歌山県" d="M13587.8756,-3352.7687L13587.8737,-3352.7687L13587.8711,-3352.7709L13587.8686,-3352.7714L13587.8649,-3352.7738L13587.8591,-3352.7787L13587.8591,-3352.7806L13587.8605,-3352.7817L13587.8632,-3352.7819L13587.8667,-3352.7805L13587.8706,-3352.7771L13587.8714,-3352.7756L13587.8777,-3352.7703L13587.8771,-3352.769L13587.8756,-3352.7687Z"/>
<path content="和歌山県,,東牟婁郡,串本町,,30428" xlink:title="和歌山県" d="M13586.6329,-3352.652L13586.6294,-3352.6516L13586.6257,-3352.653L13586.624,-3352.6547L13586.622,-3352.6578L13586.6206,-3352.6606L13586.6206,-3352.6627L13586.624,-3352.6635L13586.6278,-3352.6617L13586.6307,-3352.66L13586.6334,-3352.6575L13586.6337,-3352.6536L13586.6329,-3352.652Z"/>
<path content="和歌山県,,東牟婁郡,串本町,,30428" xlink:title="和歌山県" d="M13585.7183,-3352.3317L13585.7148,-3352.3316L13585.7116,-3352.3328L13585.7099,-3352.3348L13585.7104,-3352.3389L13585.7123,-3352.3433L13585.716,-3352.3435L13585.7193,-3352.3412L13585.7198,-3352.3386L13585.7196,-3352.3358L13585.7193,-3352.3342L13585.7183,-3352.3317Z"/>
<path content="和歌山県,,東牟婁郡,串本町,,30428" xlink:title="和歌山県" d="M13587.7821,-3352.5623L13587.7802,-3352.5621L13587.7788,-3352.5637L13587.7784,-3352.5688L13587.7769,-3352.5721L13587.7772,-3352.5738L13587.7794,-3352.5747L13587.7829,-3352.574L13587.7847,-3352.5721L13587.7877,-3352.5706L13587.7884,-3352.5683L13587.7875,-3352.5666L13587.7854,-3352.5653L13587.7821,-3352.5623Z"/>
<path content="和歌山県,,東牟婁郡,串本町,,30428" xlink:title="和歌山県" d="M13586.5144,-3352.7634L13586.5114,-3352.7621L13586.5089,-3352.7634L13586.5077,-3352.7658L13586.5081,-3352.7706L13586.5096,-3352.7731L13586.513,-3352.7745L13586.5155,-3352.7734L13586.5169,-3352.7699L13586.5166,-3352.7677L13586.5144,-3352.7634Z"/>
<path content="和歌山県,,東牟婁郡,串本町,,30428" xlink:title="和歌山県" d="M13586.0863,-3352.4148L13586.0826,-3352.4134L13586.0798,-3352.4148L13586.0798,-3352.4178L13586.0818,-3352.4226L13586.0846,-3352.4249L13586.0883,-3352.4249L13586.0898,-3352.4203L13586.0888,-3352.4184L13586.0863,-3352.4148Z"/>
<path content="和歌山県,,東牟婁郡,串本町,,30428" xlink:title="和歌山県" d="M13586.0528,-3352.5853L13586.0485,-3352.5849L13586.0473,-3352.5869L13586.0456,-3352.5899L13586.0436,-3352.5925L13586.0436,-3352.5943L13586.0485,-3352.595L13586.051,-3352.5946L13586.054,-3352.5919L13586.0552,-3352.5898L13586.0548,-3352.5869L13586.0528,-3352.5853Z"/>
<path content="和歌山県,,東牟婁郡,串本町,,30428" xlink:title="和歌山県" d="M13585.9749,-3352.4529L13585.9749,-3352.4482L13585.9689,-3352.454L13585.9662,-3352.4617L13585.9645,-3352.4673L13585.9682,-3352.4665L13585.9704,-3352.4624L13585.9739,-3352.4565L13585.9749,-3352.4529Z"/>
<path content="和歌山県,,東牟婁郡,串本町,,30428" xlink:title="和歌山県" d="M13585.9909,-3352.4513L13585.9883,-3352.4477L13585.9843,-3352.4502L13585.9829,-3352.4529L13585.9829,-3352.4557L13585.9841,-3352.4583L13585.9859,-3352.4597L13585.9904,-3352.4596L13585.9918,-3352.455L13585.9909,-3352.4513Z"/>
<path content="和歌山県,,東牟婁郡,串本町,,30428" xlink:title="和歌山県" d="M13586.4603,-3352.5696L13586.4569,-3352.568L13586.4546,-3352.5698L13586.4542,-3352.573L13586.4546,-3352.5764L13586.4561,-3352.5796L13586.4566,-3352.5816L13586.4564,-3352.5844L13586.4593,-3352.5814L13586.4609,-3352.578L13586.4616,-3352.5737L13586.4603,-3352.5696Z"/>
<path content="和歌山県,,東牟婁郡,串本町,,30428" xlink:title="和歌山県" d="M13587.6754,-3352.52L13587.6728,-3352.5191L13587.6711,-3352.52L13587.6691,-3352.5215L13587.6681,-3352.523L13587.6681,-3352.5246L13587.6687,-3352.5264L13587.6707,-3352.5276L13587.6748,-3352.5283L13587.6792,-3352.5283L13587.6802,-3352.5274L13587.68,-3352.5257L13587.6786,-3352.524L13587.6766,-3352.5224L13587.6754,-3352.52Z"/>
<path content="和歌山県,,東牟婁郡,串本町,,30428" xlink:title="和歌山県" d="M13586.3719,-3352.5115L13586.3707,-3352.5108L13586.3687,-3352.511L13586.3665,-3352.5129L13586.3662,-3352.515L13586.3674,-3352.518L13586.371,-3352.5218L13586.3734,-3352.5219L13586.3762,-3352.5202L13586.3763,-3352.5185L13586.3719,-3352.5115Z"/>
<path content="和歌山県,,東牟婁郡,串本町,,30428" xlink:title="和歌山県" d="M13585.9754,-3352.5432L13585.9763,-3352.5389L13585.9739,-3352.5411L13585.9716,-3352.5438L13585.9684,-3352.5491L13585.9671,-3352.5516L13585.9645,-3352.5555L13585.9722,-3352.555L13585.9754,-3352.5432Z"/>
<path content="和歌山県,,東牟婁郡,串本町,,30428" xlink:title="和歌山県" d="M13585.6968,-3352.2996L13585.6935,-3352.2938L13585.6934,-3352.2938L13585.6934,-3352.3041L13585.6961,-3352.3029L13585.6968,-3352.2996Z"/>
<path content="和歌山県,,東牟婁郡,串本町,,30428" xlink:title="和歌山県" d="M13587.7987,-3352.3299L13587.7949,-3352.3251L13587.793,-3352.3255L13587.7957,-3352.335L13587.8011,-3352.3385L13587.8031,-3352.3385L13587.805,-3352.3361L13587.8041,-3352.3339L13587.8009,-3352.3312L13587.7987,-3352.3299Z"/>
<path content="和歌山県,,東牟婁郡,串本町,,30428" xlink:title="和歌山県" d="M13586.6716,-3352.7188L13586.6687,-3352.718L13586.6667,-3352.718L13586.666,-3352.7181L13586.6643,-3352.7195L13586.6643,-3352.7223L13586.6659,-3352.7258L13586.6667,-3352.7264L13586.6682,-3352.7276L13586.6716,-3352.7277L13586.6732,-3352.726L13586.6735,-3352.7227L13586.6716,-3352.7188Z"/>
<path content="和歌山県,,東牟婁郡,串本町,,30428" xlink:title="和歌山県" d="M13586.4435,-3352.5361L13586.4418,-3352.5346L13586.4376,-3352.5365L13586.437,-3352.5388L13586.4373,-3352.5413L13586.4385,-3352.544L13586.4418,-3352.5447L13586.4445,-3352.544L13586.447,-3352.5414L13586.4467,-3352.5395L13586.4447,-3352.5375L13586.4435,-3352.5361Z"/>
<path content="和歌山県,,東牟婁郡,串本町,,30428" xlink:title="和歌山県" d="M13587.8742,-3352.4265L13587.8687,-3352.4255L13587.8671,-3352.427L13587.8667,-3352.4313L13587.8689,-3352.4335L13587.8711,-3352.4351L13587.8734,-3352.4336L13587.8763,-3352.4304L13587.8742,-3352.4265Z"/>
<path content="和歌山県,,東牟婁郡,串本町,,30428" xlink:title="和歌山県" d="M13585.976,-3352.4397L13585.9745,-3352.4394L13585.9692,-3352.4432L13585.9668,-3352.4474L13585.9665,-3352.4518L13585.9672,-3352.4525L13585.9708,-3352.4493L13585.9759,-3352.4436L13585.976,-3352.4397Z"/>
<path content="和歌山県,,東牟婁郡,串本町,,30428" xlink:title="和歌山県" d="M13587.7887,-3352.2676L13587.7864,-3352.2666L13587.784,-3352.2685L13587.7824,-3352.2698L13587.7808,-3352.2717L13587.781,-3352.2747L13587.7836,-3352.2774L13587.7848,-3352.2776L13587.7854,-3352.2752L13587.7856,-3352.2742L13587.7874,-3352.2732L13587.7899,-3352.2722L13587.7887,-3352.2676Z"/>
<path content="和歌山県,,東牟婁郡,串本町,,30428" xlink:title="和歌山県" d="M13586.7521,-3352.6931L13586.7486,-3352.6928L13586.7463,-3352.6945L13586.7467,-3352.6993L13586.7487,-3352.701L13586.7524,-3352.701L13586.7544,-3352.6982L13586.7539,-3352.6947L13586.7521,-3352.6931Z"/>
<path content="和歌山県,,東牟婁郡,串本町,,30428" xlink:title="和歌山県" d="M13586.3251,-3352.4863L13586.323,-3352.485L13586.3183,-3352.4861L13586.3167,-3352.4879L13586.3166,-3352.4901L13586.3195,-3352.4923L13586.3226,-3352.4925L13586.3244,-3352.4914L13586.3255,-3352.4882L13586.3251,-3352.4863Z"/>
<path content="和歌山県,,東牟婁郡,串本町,,30428" xlink:title="和歌山県" d="M13586.0103,-3352.3958L13586.0083,-3352.3944L13586.0053,-3352.3968L13586.0038,-3352.3986L13586.004,-3352.4007L13586.0046,-3352.4024L13586.0065,-3352.4034L13586.0098,-3352.4023L13586.0118,-3352.4003L13586.0117,-3352.3979L13586.0103,-3352.3958Z"/>
<path content="和歌山県,,東牟婁郡,串本町,,30428" xlink:title="和歌山県" d="M13586.0565,-3352.4058L13586.0533,-3352.405L13586.0498,-3352.4055L13586.0488,-3352.4063L13586.0486,-3352.4093L13586.0492,-3352.4108L13586.0523,-3352.4116L13586.0562,-3352.4111L13586.0576,-3352.4094L13586.0574,-3352.407L13586.0565,-3352.4058Z"/>
<path content="和歌山県,,東牟婁郡,串本町,,30428" xlink:title="和歌山県" d="M13586.6227,-3352.6686L13586.6208,-3352.6678L13586.6195,-3352.6683L13586.6195,-3352.6705L13586.6183,-3352.6719L13586.6175,-3352.6733L13586.6161,-3352.6758L13586.6163,-3352.6763L13586.6193,-3352.6761L13586.6242,-3352.6739L13586.6277,-3352.6714L13586.6243,-3352.6701L13586.6227,-3352.6686Z"/>
<path content="和歌山県,,東牟婁郡,串本町,,30428" xlink:title="和歌山県" d="M13587.8876,-3352.7561L13587.8851,-3352.755L13587.8828,-3352.7552L13587.8794,-3352.7598L13587.8797,-3352.7619L13587.8817,-3352.7624L13587.8851,-3352.7621L13587.8876,-3352.7601L13587.8885,-3352.7581L13587.8876,-3352.7561Z"/>
<path content="和歌山県,,東牟婁郡,串本町,,30428" xlink:title="和歌山県" d="M13586.5611,-3352.7253L13586.5583,-3352.7248L13586.5559,-3352.726L13586.5546,-3352.7282L13586.5552,-3352.7307L13586.5569,-3352.732L13586.5606,-3352.732L13586.562,-3352.7307L13586.5625,-3352.7279L13586.5611,-3352.7253Z"/>
<path content="和歌山県,,東牟婁郡,串本町,,30428" xlink:title="和歌山県" d="M13586.0665,-3352.3829L13586.064,-3352.3827L13586.062,-3352.3838L13586.0611,-3352.3852L13586.0616,-3352.3902L13586.0628,-3352.3908L13586.0637,-3352.3907L13586.0654,-3352.3901L13586.0668,-3352.3891L13586.0681,-3352.3875L13586.0681,-3352.3852L13586.0665,-3352.3829Z"/>
<path content="和歌山県,,東牟婁郡,串本町,,30428" xlink:title="和歌山県" d="M13586.4652,-3352.5341L13586.4629,-3352.5337L13586.4617,-3352.5345L13586.4607,-3352.5405L13586.4616,-3352.5417L13586.4634,-3352.5418L13586.4662,-3352.5398L13586.4665,-3352.5351L13586.4652,-3352.5341Z"/>
<path content="和歌山県,,東牟婁郡,串本町,,30428" xlink:title="和歌山県" d="M13585.8406,-3352.3212L13585.8386,-3352.3206L13585.8368,-3352.321L13585.837,-3352.3231L13585.8383,-3352.3258L13585.841,-3352.3261L13585.8428,-3352.3249L13585.8428,-3352.3224L13585.8406,-3352.3212Z"/>
<path content="和歌山県,,東牟婁郡,串本町,,30428" xlink:title="和歌山県" d="M13586.0217,-3352.3949L13586.019,-3352.3916L13586.0174,-3352.3946L13586.0169,-3352.3971L13586.0169,-3352.3993L13586.0194,-3352.3986L13586.0219,-3352.3964L13586.0217,-3352.3949Z"/>
</g>
</svg>
