<?xml version="1.0" encoding="UTF-8"?>
<svg  xmlns="http://www.w3.org/2000/svg" xmlns:xlink="http://www.w3.org/1999/xlink" xmlns:go="http://purl.org/svgmap/profile" property="geometry,N03_001,N03_002,N03_003,N03_004,N03_005,N03_007" viewBox="13579.1015625 -3357.421875 4.39453125 4.39453125" go:dataArea="13579.1015625 -3357.421875 4.39453125 4.39453125" >
<metadata>
 <rdf:RDF xmlns:rdf="http://www.w3.org/1999/02/22-rdf-syntax-ns#" xmlns:crs="http://opengis.org/xmldtds/transformations.dtd" xmlns:svg="http://www.w3.org/svg" >
  <rdf:Description>
   <crs:CoordinateReferenceSystem rdf:resource="http://purl.org/crs/84" svg:transform="matrix(100.0,0.0,0.0,-100.0,0.0,0.0)" />
  </rdf:Description>
 </rdf:RDF>
</metadata>
<globalCoordinateSystem srsName="http://purl.org/crs/84" transform="matrix(100.0,0.0,0.0,-100.0,0.0,0.0)" />
<defs>
 <g id="p0" >
  <circle cx="0.0" cy="0.0" r="3" stroke="green" stroke-width="2.0" vector-effect="non-scaling-stroke" />
 </g>
</defs>
<g fill="#0000ff" fill-rule="evenodd" opacity="0.5" >
<path content="和歌山県,,東牟婁郡,古座川町,,30424" xlink:title="和歌山県" d="M13579.1016,-3353.0273L13579.1016,-3357.4219L13583.4961,-3357.4219L13583.4961,-3356.3452L13583.4873,-3356.3332L13583.4574,-3356.3083L13583.4537,-3356.2969L13583.4347,-3356.2393L13583.4228,-3356.2302L13583.387,-3356.203L13583.3581,-3356.1935L13583.3333,-3356.1901L13583.3256,-3356.1891L13583.252,-3356.1906L13583.2283,-3356.1876L13583.1932,-3356.1568L13583.1467,-3356.1406L13583.1073,-3356.1069L13583.0906,-3356.0995L13583.054,-3356.0953L13583.0299,-3356.087L13583.018,-3356.0762L13582.9922,-3356.0312L13582.9641,-3355.9916L13582.9513,-3355.9736L13582.9094,-3355.9268L13582.9249,-3355.8879L13582.9401,-3355.8498L13582.9467,-3355.8333L13582.9632,-3355.7919L13583.0127,-3355.6679L13583.0381,-3355.6043L13583.1313,-3355.3707L13583.2793,-3355L13583.3333,-3354.8645L13583.3549,-3354.8104L13583.4749,-3354.5099L13583.4761,-3354.5068L13583.4816,-3354.4931L13583.4961,-3354.4567L13583.4961,-3353.6486L13583.4842,-3353.6262L13583.4724,-3353.5793L13583.3333,-3353.5829L13582.9876,-3353.5918L13582.9852,-3353.5919L13582.9657,-3353.5919L13582.9531,-3353.5824L13582.8722,-3353.5844L13582.8338,-3353.5799L13582.8107,-3353.5794L13582.7818,-3353.6096L13582.7651,-3353.6161L13582.7191,-3353.615L13582.6824,-3353.6141L13582.6469,-3353.6052L13582.6274,-3353.5953L13582.6127,-3353.585L13582.5818,-3353.5634L13582.521,-3353.473L13582.5154,-3353.4597L13582.5032,-3353.4307L13582.5,-3353.425L13582.4672,-3353.3669L13582.4683,-3353.3333L13582.4702,-3353.2772L13582.469,-3353.2104L13582.4755,-3353.1877L13582.5,-3353.1675L13582.524,-3353.1478L13582.5736,-3353.0628L13582.5751,-3353.0597L13582.5901,-3353.0273L13581.477,-3353.0273L13581.4608,-3353.0475L13581.2925,-3353.2547L13581.2444,-3353.3143L13581.2351,-3353.3259L13581.2291,-3353.3333L13581.2096,-3353.3576L13581.1494,-3353.4322L13581.1362,-3353.4481L13581.0474,-3353.5549L13581.0354,-3353.5717L13581.0151,-3353.6005L13581.0028,-3353.6332L13580.9925,-3353.6608L13580.9732,-3353.6819L13580.9227,-3353.6958L13580.8674,-3353.7062L13580.855,-3353.6999L13580.8547,-3353.6976L13580.8508,-3353.6715L13580.8491,-3353.6599L13580.8378,-3353.6464L13580.8333,-3353.6201L13580.8301,-3353.6015L13580.8238,-3353.5648L13580.7819,-3353.5118L13580.7542,-3353.4851L13580.7198,-3353.4896L13580.7021,-3353.4864L13580.6785,-3353.4302L13580.6624,-3353.4253L13580.6065,-3353.4239L13580.5899,-3353.4275L13580.5759,-3353.4298L13580.5523,-3353.4262L13580.5498,-3353.4246L13580.4994,-3353.3904L13580.4989,-3353.3845L13580.5242,-3353.3467L13580.5222,-3353.3333L13580.522,-3353.3319L13580.4898,-3353.3041L13580.4651,-3353.2964L13580.4097,-3353.2672L13580.3706,-3353.2676L13580.3351,-3353.2573L13580.3121,-3353.2595L13580.3072,-3353.26L13580.2777,-3353.2641L13580,-3353.0311L13579.9955,-3353.0273Z"/>
<path content="和歌山県,,東牟婁郡,串本町,,30428" xlink:title="和歌山県" d="M13583.4961,-3353.0273L13579.9955,-3353.0273L13580,-3353.0311L13580.2777,-3353.2641L13580.3072,-3353.26L13580.3121,-3353.2595L13580.3351,-3353.2573L13580.3706,-3353.2676L13580.4097,-3353.2672L13580.4651,-3353.2964L13580.4898,-3353.3041L13580.522,-3353.3319L13580.5222,-3353.3333L13580.5242,-3353.3467L13580.4989,-3353.3845L13580.4994,-3353.3904L13580.5498,-3353.4246L13580.5523,-3353.4262L13580.5759,-3353.4298L13580.5899,-3353.4275L13580.6065,-3353.4239L13580.6624,-3353.4253L13580.6785,-3353.4302L13580.7021,-3353.4864L13580.7198,-3353.4896L13580.7542,-3353.4851L13580.7819,-3353.5118L13580.8238,-3353.5648L13580.8301,-3353.6015L13580.8333,-3353.6201L13580.8378,-3353.6464L13580.8491,-3353.6599L13580.8508,-3353.6715L13580.8547,-3353.6976L13580.855,-3353.6999L13580.8674,-3353.7062L13580.9227,-3353.6958L13580.9732,-3353.6819L13580.9925,-3353.6608L13581.0028,-3353.6332L13581.0151,-3353.6005L13581.0354,-3353.5717L13581.0474,-3353.5549L13581.1362,-3353.4481L13581.1494,-3353.4322L13581.2096,-3353.3576L13581.2291,-3353.3333L13581.2351,-3353.3259L13581.2444,-3353.3143L13581.2925,-3353.2547L13581.4608,-3353.0475L13581.477,-3353.0273L13582.5901,-3353.0273L13582.5751,-3353.0597L13582.5736,-3353.0628L13582.524,-3353.1478L13582.5,-3353.1675L13582.4755,-3353.1877L13582.469,-3353.2104L13582.4702,-3353.2772L13582.4683,-3353.3333L13582.4672,-3353.3669L13582.5,-3353.425L13582.5032,-3353.4307L13582.5154,-3353.4597L13582.521,-3353.473L13582.5818,-3353.5634L13582.6127,-3353.585L13582.6274,-3353.5953L13582.6469,-3353.6052L13582.6824,-3353.6141L13582.7191,-3353.615L13582.7651,-3353.6161L13582.7818,-3353.6096L13582.8107,-3353.5794L13582.8338,-3353.5799L13582.8722,-3353.5844L13582.9531,-3353.5824L13582.9657,-3353.5919L13582.9852,-3353.5919L13582.9876,-3353.5918L13583.3333,-3353.5829L13583.4724,-3353.5793L13583.4842,-3353.6262L13583.4961,-3353.6486L13583.4961,-3354.4567L13583.4816,-3354.4931L13583.4761,-3354.5068L13583.4749,-3354.5099L13583.3549,-3354.8104L13583.3333,-3354.8645L13583.2793,-3355L13583.1313,-3355.3707L13583.0381,-3355.6043L13583.0127,-3355.6679L13582.9632,-3355.7919L13582.9467,-3355.8333L13582.9401,-3355.8498L13582.9249,-3355.8879L13582.9094,-3355.9268L13582.9513,-3355.9736L13582.9641,-3355.9916L13582.9922,-3356.0312L13583.018,-3356.0762L13583.0299,-3356.087L13583.054,-3356.0953L13583.0906,-3356.0995L13583.1073,-3356.1069L13583.1467,-3356.1406L13583.1932,-3356.1568L13583.2283,-3356.1876L13583.252,-3356.1906L13583.3256,-3356.1891L13583.3333,-3356.1901L13583.3581,-3356.1935L13583.387,-3356.203L13583.4228,-3356.2302L13583.4347,-3356.2393L13583.4537,-3356.2969L13583.4574,-3356.3083L13583.4873,-3356.3332L13583.4961,-3356.3452Z"/>
</g>
</svg>
