<?xml version="1.0" encoding="UTF-8"?>
<svg  xmlns="http://www.w3.org/2000/svg" xmlns:xlink="http://www.w3.org/1999/xlink" xmlns:go="http://purl.org/svgmap/profile" property="geometry,N03_001,N03_002,N03_003,N03_004,N03_005,N03_007" viewBox="13517.578125 -3568.359375 8.7890625 8.7890625" go:dataArea="13517.578125 -3568.359375 8.7890625 8.7890625" >
<metadata>
 <rdf:RDF xmlns:rdf="http://www.w3.org/1999/02/22-rdf-syntax-ns#" xmlns:crs="http://opengis.org/xmldtds/transformations.dtd" xmlns:svg="http://www.w3.org/svg" >
  <rdf:Description>
   <crs:CoordinateReferenceSystem rdf:resource="http://purl.org/crs/84" svg:transform="matrix(100.0,0.0,0.0,-100.0,0.0,0.0)" />
  </rdf:Description>
 </rdf:RDF>
</metadata>
<globalCoordinateSystem srsName="http://purl.org/crs/84" transform="matrix(100.0,0.0,0.0,-100.0,0.0,0.0)" />
<defs>
 <g id="p0" >
  <circle cx="0.0" cy="0.0" r="3" stroke="green" stroke-width="2.0" vector-effect="non-scaling-stroke" />
 </g>
</defs>
<g fill="#0000ff" fill-rule="evenodd" opacity="0.5" >
<path content="京都府,,,宮津市,,26205" xlink:title="京都府" d="M13526.3672,-3568.3594L13526.3672,-3566.2472L13526.3642,-3566.2412L13526.3598,-3566.2342L13526.3672,-3566.2314L13526.3672,-3566.134L13526.3643,-3566.1293L13526.3467,-3566.0731L13526.3672,-3566.0651L13526.3672,-3565.8634L13526.3629,-3565.8574L13526.3453,-3565.8333L13526.3356,-3565.8199L13526.3311,-3565.8222L13526.3391,-3565.8333L13526.3593,-3565.8616L13526.3672,-3565.8727L13526.3672,-3566.048L13526.3621,-3566.0497L13526.3356,-3566.0577L13526.3326,-3566.0548L13526.3282,-3566.0524L13526.3229,-3566.0505L13526.3203,-3566.0502L13526.3182,-3566.0508L13526.2966,-3566.041L13526.2832,-3566.0352L13526.2774,-3566.0324L13526.2736,-3566.0302L13526.2669,-3566.0258L13526.262,-3566.0222L13526.2603,-3566.0205L13526.2559,-3566.0159L13526.2512,-3566.0102L13526.2752,-3565.9953L13526.2577,-3565.9736L13526.2469,-3565.9603L13526.2267,-3565.9355L13526.2234,-3565.9363L13526.2189,-3565.9381L13526.2147,-3565.9321L13526.2728,-3565.8994L13526.2689,-3565.895L13526.2083,-3565.9294L13526.2051,-3565.9231L13526.1998,-3565.9183L13526.188,-3565.9087L13526.1762,-3565.9008L13526.1592,-3565.8882L13526.1341,-3565.8724L13526.1287,-3565.8674L13526.1265,-3565.8636L13526.1249,-3565.8602L13526.1239,-3565.8575L13526.1147,-3565.8348L13526.114,-3565.8333L13526.1098,-3565.8242L13526.104,-3565.8163L13526.0975,-3565.8088L13526.0863,-3565.797L13526.0772,-3565.7877L13526.0699,-3565.7783L13526.0647,-3565.77L13526.0596,-3565.7609L13526.0563,-3565.748L13526.0541,-3565.7439L13526.0477,-3565.735L13526.038,-3565.7252L13526.0308,-3565.718L13526.0278,-3565.715L13526.0248,-3565.7142L13526.014,-3565.6948L13526.0138,-3565.6944L13526.0294,-3565.6883L13526.0286,-3565.6869L13526.0127,-3565.6924L13526.0125,-3565.692L13526.0053,-3565.679L13526.0033,-3565.6701L13526.0024,-3565.666L13525.9997,-3565.6588L13525.9979,-3565.6527L13525.9949,-3565.6456L13525.9918,-3565.6415L13525.9883,-3565.6384L13525.9863,-3565.6372L13525.9847,-3565.6341L13525.9866,-3565.6336L13525.9861,-3565.6327L13525.9893,-3565.6319L13525.9837,-3565.6182L13525.9819,-3565.6183L13525.9813,-3565.6158L13525.9786,-3565.6135L13525.9752,-3565.6123L13525.9737,-3565.6119L13525.9718,-3565.6114L13525.9702,-3565.6107L13525.9691,-3565.6102L13525.9668,-3565.6084L13525.9611,-3565.6047L13525.9599,-3565.604L13525.96,-3565.6016L13525.96,-3565.5997L13525.9601,-3565.599L13525.96,-3565.5989L13525.9545,-3565.5924L13525.9478,-3565.5878L13525.9421,-3565.582L13525.9344,-3565.5757L13525.9263,-3565.5682L13525.9222,-3565.5644L13525.9127,-3565.5596L13525.9039,-3565.5555L13525.8957,-3565.5512L13525.888,-3565.5467L13525.8823,-3565.5425L13525.8762,-3565.5373L13525.8701,-3565.5318L13525.8624,-3565.5235L13525.8571,-3565.5147L13525.8506,-3565.5066L13525.8434,-3565.5003L13525.8365,-3565.4957L13525.8333,-3565.4944L13525.829,-3565.4925L13525.822,-3565.4894L13525.8167,-3565.486L13525.8131,-3565.4837L13525.8116,-3565.4816L13525.8214,-3565.4744L13525.8187,-3565.4718L13525.7925,-3565.4901L13525.7898,-3565.4891L13525.7868,-3565.4881L13525.7779,-3565.4871L13525.7732,-3565.4852L13525.7687,-3565.4827L13525.7641,-3565.4794L13525.7619,-3565.4783L13525.7596,-3565.4783L13525.7443,-3565.4631L13525.7333,-3565.4514L13525.7219,-3565.439L13525.707,-3565.4227L13525.6971,-3565.4078L13525.6923,-3565.4013L13525.6828,-3565.3913L13525.6795,-3565.3838L13525.6779,-3565.3825L13525.6756,-3565.3816L13525.6746,-3565.3806L13525.6744,-3565.38L13525.6715,-3565.3741L13525.6665,-3565.3682L13525.659,-3565.3571L13525.6525,-3565.3465L13525.6469,-3565.341L13525.6385,-3565.3323L13525.6317,-3565.3242L13525.6292,-3565.3207L13525.6222,-3565.3094L13525.6094,-3565.2936L13525.5982,-3565.2793L13525.5778,-3565.2538L13525.5554,-3565.2246L13525.5459,-3565.2129L13525.5282,-3565.1895L13525.5175,-3565.1763L13525.4891,-3565.1437L13525.4637,-3565.1229L13525.4475,-3565.1056L13525.4336,-3565.0905L13525.4216,-3565.0729L13525.4184,-3565.069L13525.4113,-3565.0588L13525.4086,-3565.0556L13525.4024,-3565.0426L13525.386,-3565.0061L13525.3819,-3565L13525.3767,-3564.9922L13525.4317,-3564.9685L13525.4321,-3564.9688L13525.445,-3564.963L13525.4522,-3564.955L13525.4696,-3564.9069L13525.4631,-3564.9053L13525.4627,-3564.9065L13525.4561,-3564.9241L13525.4455,-3564.9527L13525.4391,-3564.9587L13525.4286,-3564.9633L13525.4287,-3564.9643L13525.365,-3564.9936L13525.3492,-3564.9697L13525.3545,-3564.9665L13525.337,-3564.9433L13525.3402,-3564.9417L13525.3092,-3564.8944L13525.3192,-3564.8903L13525.3203,-3564.8916L13525.3397,-3564.8834L13525.3367,-3564.8794L13525.2884,-3564.8981L13525.2858,-3564.892L13525.2843,-3564.8892L13525.2824,-3564.8869L13525.2777,-3564.8779L13525.2635,-3564.8492L13525.245,-3564.8155L13525.2555,-3564.8117L13525.2548,-3564.8103L13525.2443,-3564.8141L13525.2247,-3564.7771L13525.2233,-3564.7745L13525.2338,-3564.7709L13525.2333,-3564.77L13525.2227,-3564.7736L13525.2112,-3564.7529L13525.2015,-3564.7335L13525.2121,-3564.7298L13525.2115,-3564.729L13525.201,-3564.7326L13525.1958,-3564.722L13525.1892,-3564.7058L13525.1819,-3564.6853L13525.1818,-3564.685L13525.1817,-3564.6845L13525.1814,-3564.6835L13525.1809,-3564.6817L13525.1806,-3564.6808L13525.1797,-3564.6783L13525.1788,-3564.6763L13525.1783,-3564.6752L13525.1772,-3564.673L13525.1762,-3564.671L13525.1756,-3564.6698L13525.1746,-3564.6679L13525.1734,-3564.6652L13525.1731,-3564.6645L13525.1721,-3564.6628L13525.171,-3564.661L13525.1707,-3564.6604L13525.1698,-3564.6588L13525.1694,-3564.6576L13525.1693,-3564.657L13525.1676,-3564.6553L13525.1785,-3564.6515L13525.178,-3564.6504L13525.167,-3564.6542L13525.166,-3564.6535L13525.1655,-3564.6535L13525.1652,-3564.653L13525.165,-3564.6527L13525.1648,-3564.652L13525.1647,-3564.6513L13525.1647,-3564.651L13525.1645,-3564.6503L13525.1643,-3564.6498L13525.1642,-3564.6495L13525.1639,-3564.6489L13525.1631,-3564.6475L13525.1622,-3564.6462L13525.1614,-3564.6448L13525.1602,-3564.6427L13525.1594,-3564.6405L13525.1593,-3564.64L13525.1591,-3564.6394L13525.1591,-3564.6394L13525.159,-3564.6394L13525.1587,-3564.6389L13525.1582,-3564.6378L13525.1579,-3564.637L13525.1571,-3564.6356L13525.1561,-3564.6339L13525.1557,-3564.633L13525.1549,-3564.6316L13525.1538,-3564.6301L13525.1534,-3564.6296L13525.1523,-3564.6279L13525.1514,-3564.6263L13525.1509,-3564.6251L13525.1502,-3564.623L13525.1495,-3564.6205L13525.1493,-3564.6197L13525.1486,-3564.6176L13525.1482,-3564.6159L13525.148,-3564.6149L13525.1479,-3564.6147L13525.1403,-3564.6006L13525.1486,-3564.5982L13525.1482,-3564.597L13525.1398,-3564.5995L13525.1377,-3564.5957L13525.1369,-3564.5946L13525.1367,-3564.5942L13525.1363,-3564.5934L13525.1359,-3564.5925L13525.135,-3564.5909L13525.1345,-3564.5899L13525.1332,-3564.5883L13525.1323,-3564.587L13525.1318,-3564.5862L13525.1308,-3564.5846L13525.1301,-3564.5835L13525.1297,-3564.583L13525.129,-3564.5821L13525.1282,-3564.5811L13525.1279,-3564.5806L13525.1275,-3564.5797L13525.1269,-3564.5788L13525.1267,-3564.5785L13525.126,-3564.5776L13525.1252,-3564.5764L13525.1248,-3564.5756L13525.1242,-3564.5744L13525.1234,-3564.5731L13525.123,-3564.5726L13525.1224,-3564.5715L13525.1217,-3564.57L13525.1213,-3564.5692L13525.1206,-3564.5678L13525.1199,-3564.5659L13525.1197,-3564.5653L13525.1188,-3564.5633L13525.1186,-3564.5628L13525.1183,-3564.5623L13525.118,-3564.5615L13525.1169,-3564.5597L13525.1165,-3564.5591L13525.1161,-3564.5583L13525.1149,-3564.5564L13525.1145,-3564.5556L13525.1141,-3564.5549L13525.1134,-3564.5535L13525.1131,-3564.5527L13525.1127,-3564.5518L13525.1125,-3564.5513L13525.1115,-3564.5491L13525.1114,-3564.5486L13525.1112,-3564.5479L13525.1109,-3564.5468L13525.1108,-3564.5466L13525.1108,-3564.5464L13525.1103,-3564.5454L13525.11,-3564.5444L13525.1098,-3564.5439L13525.1096,-3564.5429L13525.1091,-3564.54L13525.1089,-3564.5389L13525.1087,-3564.5379L13525.1082,-3564.5346L13525.1081,-3564.5339L13525.1078,-3564.5325L13525.1073,-3564.5293L13525.1072,-3564.5281L13525.1071,-3564.5273L13525.1067,-3564.5239L13525.1038,-3564.516L13525.1031,-3564.5117L13525.1011,-3564.4995L13525.101,-3564.4994L13525.1007,-3564.4989L13525.1005,-3564.4985L13525.0998,-3564.4957L13525.0996,-3564.4949L13525.0993,-3564.4935L13525.0988,-3564.4904L13525.0985,-3564.4893L13525.0983,-3564.4884L13525.0977,-3564.4848L13525.0974,-3564.4833L13525.0971,-3564.4819L13525.0961,-3564.4778L13525.0958,-3564.4766L13525.0956,-3564.4756L13525.095,-3564.4716L13525.0949,-3564.4707L13525.0946,-3564.4687L13525.0937,-3564.4642L13525.0933,-3564.4628L13525.0929,-3564.4618L13525.0921,-3564.4583L13525.0917,-3564.4565L13525.0915,-3564.4555L13525.0908,-3564.4513L13525.0903,-3564.4494L13525.0902,-3564.449L13525.089,-3564.4451L13525.0886,-3564.4438L13525.0884,-3564.4429L13525.0876,-3564.4389L13525.0874,-3564.4374L13525.0871,-3564.4361L13525.0865,-3564.4328L13525.0863,-3564.4317L13525.0861,-3564.4306L13525.0854,-3564.4275L13525.0851,-3564.4263L13525.0849,-3564.4251L13525.0843,-3564.4216L13525.0839,-3564.4205L13525.0836,-3564.4196L13525.0826,-3564.4162L13525.0825,-3564.4154L13525.0824,-3564.4145L13525.0801,-3564.4082L13525.0784,-3564.4031L13525.0744,-3564.3899L13525.0729,-3564.3842L13525.0714,-3564.3764L13525.0708,-3564.3581L13525.0702,-3564.353L13525.0664,-3564.3495L13525.0628,-3564.3472L13525.062,-3564.3447L13525.0614,-3564.341L13525.0609,-3564.3336L13525.0587,-3564.3225L13525.0573,-3564.3106L13525.0552,-3564.2905L13525.0552,-3564.2728L13525.0545,-3564.2624L13525.0537,-3564.2501L13525.0532,-3564.2416L13525.0529,-3564.2262L13525.0498,-3564.1911L13525.0493,-3564.1667L13525.049,-3564.1546L13525.0484,-3564.1482L13525.0477,-3564.1385L13525.0473,-3564.1319L13525.0467,-3564.1227L13525.0462,-3564.1164L13525.0454,-3564.1077L13525.043,-3564.1032L13525.0416,-3564.0984L13525.0405,-3564.0901L13525.0401,-3564.086L13525.0393,-3564.0783L13525.0385,-3564.0558L13525.0381,-3564.0339L13525.038,-3564.0276L13525.0379,-3564.0233L13525.0377,-3564.0185L13525.0365,-3564.0111L13525.0354,-3564.0016L13525.0343,-3563.9985L13525.0631,-3563.9917L13525.0628,-3563.991L13525.0341,-3563.9977L13525.0339,-3563.9971L13525.0332,-3563.9938L13525.0325,-3563.9923L13525.0316,-3563.9905L13525.031,-3563.9885L13525.0307,-3563.9875L13525.0284,-3563.9833L13525.0267,-3563.9776L13525.0266,-3563.9748L13525.0274,-3563.9711L13525.0273,-3563.9709L13525.0271,-3563.9699L13525.027,-3563.9692L13525.0265,-3563.9664L13525.0263,-3563.9655L13525.0262,-3563.9649L13525.0255,-3563.9619L13525.0253,-3563.9611L13525.025,-3563.9597L13525.0241,-3563.956L13525.0237,-3563.9548L13525.0232,-3563.9537L13525.0217,-3563.9505L13525.021,-3563.9494L13525.0204,-3563.9485L13525.0182,-3563.9455L13525.0172,-3563.9444L13525.0164,-3563.9434L13525.0133,-3563.94L13525.0126,-3563.9393L13525.0117,-3563.9383L13525.0113,-3563.9379L13525.0091,-3563.9356L13525.0081,-3563.9345L13525.0073,-3563.9336L13525.0041,-3563.9301L13525.0035,-3563.9293L13525.0025,-3563.9281L13525.0001,-3563.925L13525,-3563.9248L13524.9993,-3563.9239L13524.9989,-3563.9235L13524.9984,-3563.9228L13524.9959,-3563.9196L13524.995,-3563.9184L13524.9941,-3563.9172L13524.992,-3563.914L13524.9915,-3563.9132L13524.9908,-3563.912L13524.9887,-3563.9089L13524.9885,-3563.9086L13524.9875,-3563.9074L13524.9856,-3563.9048L13524.9853,-3563.9042L13524.9849,-3563.9033L13524.9838,-3563.9008L13524.9834,-3563.9L13524.9831,-3563.8993L13524.9818,-3563.8965L13524.9814,-3563.8957L13524.9812,-3563.8953L13524.9779,-3563.8958L13524.9749,-3563.8926L13524.9703,-3563.8846L13524.9682,-3563.8801L13524.9664,-3563.8745L13524.9661,-3563.8742L13524.9659,-3563.8737L13524.9658,-3563.8733L13524.9653,-3563.8709L13524.9652,-3563.8704L13524.965,-3563.8696L13524.9644,-3563.8668L13524.9643,-3563.8665L13524.9641,-3563.8654L13524.9635,-3563.8623L13524.9632,-3563.861L13524.963,-3563.8598L13524.9622,-3563.8553L13524.9621,-3563.8545L13524.9618,-3563.8531L13524.9613,-3563.8498L13524.9612,-3563.848L13524.9612,-3563.8476L13524.9608,-3563.844L13524.9607,-3563.8428L13524.9606,-3563.8419L13524.96,-3563.8397L13524.96,-3563.8392L13524.9579,-3563.8357L13524.957,-3563.8313L13524.956,-3563.8263L13524.9537,-3563.8195L13524.9519,-3563.8141L13524.9502,-3563.809L13524.9484,-3563.8036L13524.9442,-3563.7955L13524.9428,-3563.7929L13524.9402,-3563.7877L13524.9362,-3563.7815L13524.9359,-3563.7814L13524.9353,-3563.7811L13524.9347,-3563.7807L13524.9334,-3563.7797L13524.9328,-3563.7792L13524.9323,-3563.7787L13524.9305,-3563.777L13524.9297,-3563.7763L13524.9292,-3563.7758L13524.9276,-3563.7742L13524.9268,-3563.7733L13524.9261,-3563.7725L13524.9256,-3563.7719L13524.9236,-3563.7697L13524.9232,-3563.7692L13524.9224,-3563.7683L13524.9203,-3563.766L13524.9195,-3563.7652L13524.9189,-3563.7646L13524.917,-3563.7627L13524.9168,-3563.7625L13524.8948,-3563.7448L13524.8978,-3563.7426L13524.8908,-3563.7356L13524.8875,-3563.7317L13524.8829,-3563.7238L13524.8787,-3563.7159L13524.8752,-3563.7084L13524.871,-3563.6964L13524.8653,-3563.6979L13524.8599,-3563.6858L13524.8562,-3563.6737L13524.8465,-3563.6493L13524.8376,-3563.6283L13524.8317,-3563.6104L13524.8287,-3563.6035L13524.8304,-3563.6012L13524.8306,-3563.5958L13524.8305,-3563.5915L13524.8291,-3563.5883L13524.8265,-3563.5856L13524.824,-3563.5819L13524.8236,-3563.5796L13524.8234,-3563.5776L13524.8215,-3563.5738L13524.823,-3563.5731L13524.8129,-3563.5514L13524.8061,-3563.5531L13524.7999,-3563.5381L13524.7937,-3563.5275L13524.7876,-3563.5149L13524.7817,-3563.5037L13524.7776,-3563.4919L13524.7735,-3563.4796L13524.7696,-3563.4689L13524.7686,-3563.4641L13524.7725,-3563.4637L13524.7712,-3563.4542L13524.7704,-3563.4467L13524.7695,-3563.4372L13524.7691,-3563.4291L13524.769,-3563.4107L13524.7683,-3563.388L13524.7675,-3563.379L13524.767,-3563.3742L13524.7635,-3563.3743L13524.7622,-3563.3666L13524.7611,-3563.361L13524.7591,-3563.354L13524.7566,-3563.347L13524.753,-3563.3383L13524.751,-3563.3333L13524.7431,-3563.3129L13524.7332,-3563.2874L13524.7245,-3563.2601L13524.7237,-3563.2583L13524.7233,-3563.2574L13524.7226,-3563.2554L13524.7219,-3563.2529L13524.7217,-3563.2521L13524.721,-3563.2496L13524.7208,-3563.249L13524.7203,-3563.2474L13524.7201,-3563.2466L13524.7193,-3563.2445L13524.7188,-3563.2428L13524.7185,-3563.2418L13524.7179,-3563.2396L13524.7177,-3563.2388L13524.7174,-3563.2377L13524.7172,-3563.2366L13524.7167,-3563.2347L13524.7159,-3563.2327L13524.7155,-3563.2317L13524.7148,-3563.2302L13524.7139,-3563.2283L13524.7136,-3563.2277L13524.7126,-3563.2258L13524.7118,-3563.2241L13524.7113,-3563.223L13524.71,-3563.2207L13524.7089,-3563.2189L13524.7082,-3563.218L13524.7068,-3563.2161L13524.7058,-3563.2146L13524.7051,-3563.2137L13524.7039,-3563.2119L13524.7028,-3563.2101L13524.7021,-3563.2091L13524.7008,-3563.2071L13524.6994,-3563.2051L13524.6989,-3563.2044L13524.6974,-3563.2025L13524.6959,-3563.201L13524.6951,-3563.2003L13524.6939,-3563.199L13524.6928,-3563.1973L13524.6925,-3563.1968L13524.6916,-3563.1949L13524.6909,-3563.1934L13524.6904,-3563.1924L13524.6895,-3563.1911L13524.6884,-3563.1897L13524.688,-3563.1892L13524.6868,-3563.1877L13524.6857,-3563.1863L13524.685,-3563.1854L13524.6833,-3563.1836L13524.6821,-3563.1824L13524.6818,-3563.1822L13524.6808,-3563.1813L13524.6791,-3563.1797L13524.6771,-3563.1778L13524.6761,-3563.1769L13524.6743,-3563.1755L13524.6721,-3563.1739L13524.6713,-3563.1733L13524.669,-3563.1718L13524.6671,-3563.1706L13524.6659,-3563.1697L13524.6638,-3563.1682L13524.6616,-3563.1664L13524.6605,-3563.1654L13524.6587,-3563.1637L13524.657,-3563.1622L13524.6558,-3563.1613L13524.6538,-3563.16L13524.6521,-3563.1589L13524.6515,-3563.1585L13524.6503,-3563.1576L13524.6481,-3563.1558L13524.6463,-3563.1543L13524.6454,-3563.1535L13524.6434,-3563.1515L13524.6419,-3563.1499L13524.6411,-3563.1491L13524.6394,-3563.1476L13524.6374,-3563.146L13524.6367,-3563.1455L13524.6346,-3563.1438L13524.6337,-3563.143L13524.6331,-3563.1424L13524.6322,-3563.1415L13524.6307,-3563.1399L13524.6293,-3563.1382L13524.6289,-3563.1377L13524.6279,-3563.1364L13524.627,-3563.1349L13524.6265,-3563.1341L13524.6261,-3563.1334L13524.6259,-3563.1329L13524.6252,-3563.1313L13524.625,-3563.1308L13524.6244,-3563.1292L13524.6241,-3563.1282L13524.6238,-3563.1272L13524.6234,-3563.1258L13524.6231,-3563.1247L13524.6228,-3563.1241L13524.6225,-3563.1229L13524.6221,-3563.1216L13524.6219,-3563.1211L13524.6215,-3563.1198L13524.6211,-3563.1187L13524.6208,-3563.118L13524.6203,-3563.1167L13524.6197,-3563.115L13524.6195,-3563.1144L13524.6191,-3563.1135L13524.6188,-3563.1127L13524.618,-3563.1109L13524.6176,-3563.11L13524.6169,-3563.1085L13524.6163,-3563.1068L13524.6162,-3563.1062L13524.6156,-3563.1046L13524.6153,-3563.1033L13524.615,-3563.1025L13524.6147,-3563.1009L13524.6144,-3563.0996L13524.6143,-3563.0988L13524.6142,-3563.0976L13524.6142,-3563.0961L13524.6142,-3563.0954L13524.6144,-3563.0943L13524.6146,-3563.0928L13524.6147,-3563.0925L13524.6148,-3563.0912L13524.6149,-3563.0901L13524.6149,-3563.0894L13524.6148,-3563.0879L13524.6144,-3563.0868L13524.614,-3563.0862L13524.6133,-3563.0852L13524.6126,-3563.0841L13524.6123,-3563.0835L13524.6119,-3563.0825L13524.6113,-3563.0814L13524.611,-3563.0809L13524.6105,-3563.0799L13524.6098,-3563.0788L13524.6096,-3563.0784L13524.6089,-3563.0773L13524.608,-3563.0762L13524.6076,-3563.0756L13524.6069,-3563.0748L13524.6059,-3563.0739L13524.6055,-3563.0737L13524.6044,-3563.0731L13524.6033,-3563.0725L13524.6026,-3563.072L13524.6014,-3563.071L13524.6006,-3563.0701L13524.6002,-3563.0695L13524.5998,-3563.0685L13524.5993,-3563.0673L13524.599,-3563.0667L13524.5987,-3563.0657L13524.5983,-3563.0644L13524.5981,-3563.064L13524.5978,-3563.0632L13524.5976,-3563.0628L13524.5972,-3563.0617L13524.5969,-3563.061L13524.596,-3563.0596L13524.5956,-3563.0588L13524.5953,-3563.0582L13524.5949,-3563.0574L13524.5942,-3563.0561L13524.5933,-3563.0547L13524.593,-3563.0541L13524.5924,-3563.0532L13524.5916,-3563.0524L13524.5913,-3563.0521L13524.5904,-3563.0513L13524.5892,-3563.0506L13524.5889,-3563.0504L13524.5878,-3563.05L13524.5872,-3563.05L13524.5867,-3563.05L13524.5857,-3563.0502L13524.5849,-3563.0504L13524.5844,-3563.0505L13524.5838,-3563.0508L13524.5831,-3563.0511L13524.5828,-3563.0511L13524.5825,-3563.051L13524.5823,-3563.0508L13524.5823,-3563.0508L13524.5822,-3563.0506L13524.5821,-3563.0504L13524.5821,-3563.0504L13524.5821,-3563.0503L13524.5821,-3563.0502L13524.5821,-3563.0501L13524.5821,-3563.0501L13524.5817,-3563.0488L13524.5809,-3563.0463L13524.5805,-3563.0452L13524.5801,-3563.0439L13524.5791,-3563.0406L13524.5784,-3563.0379L13524.5781,-3563.0367L13524.5777,-3563.035L13524.5774,-3563.0337L13524.577,-3563.0328L13524.5763,-3563.0299L13524.576,-3563.0288L13524.5756,-3563.0271L13524.5754,-3563.0258L13524.575,-3563.0241L13524.5746,-3563.0223L13524.574,-3563.0182L13524.5737,-3563.0172L13524.5735,-3563.016L13524.5732,-3563.0141L13524.573,-3563.0122L13524.5727,-3563.0101L13524.5724,-3563.0087L13524.5723,-3563.0075L13524.5722,-3563.0063L13524.5724,-3563.0035L13524.5727,-3563.0022L13524.573,-3563.001L13524.5732,-3562.999L13524.5732,-3562.9961L13524.5729,-3562.9926L13524.5721,-3562.9866L13524.5718,-3562.9849L13524.5714,-3562.9829L13524.5707,-3562.9787L13524.5703,-3562.9768L13524.5699,-3562.9751L13524.5694,-3562.9726L13524.5691,-3562.9709L13524.5686,-3562.9689L13524.5678,-3562.9656L13524.5671,-3562.9632L13524.5662,-3562.9594L13524.566,-3562.9575L13524.5651,-3562.9531L13524.5647,-3562.9508L13524.5642,-3562.9473L13524.564,-3562.9452L13524.5638,-3562.9436L13524.5635,-3562.941L13524.5634,-3562.9394L13524.5634,-3562.9376L13524.5633,-3562.9358L13524.5632,-3562.9336L13524.5631,-3562.932L13524.563,-3562.9304L13524.563,-3562.9282L13524.563,-3562.9272L13524.563,-3562.9251L13524.563,-3562.9234L13524.5631,-3562.9208L13524.5632,-3562.9192L13524.5633,-3562.9161L13524.5635,-3562.9145L13524.5636,-3562.9128L13524.5639,-3562.9103L13524.5641,-3562.9085L13524.5644,-3562.9066L13524.565,-3562.9024L13524.5653,-3562.9005L13524.5656,-3562.8987L13524.5659,-3562.8962L13524.5661,-3562.8945L13524.5661,-3562.8928L13524.5663,-3562.8914L13524.5666,-3562.8889L13524.5668,-3562.887L13524.567,-3562.8851L13524.5673,-3562.8826L13524.5676,-3562.88L13524.5678,-3562.876L13524.5678,-3562.874L13524.5678,-3562.8721L13524.568,-3562.8694L13524.5684,-3562.8658L13524.5687,-3562.8638L13524.5692,-3562.8603L13524.5696,-3562.8581L13524.5701,-3562.8552L13524.5703,-3562.8536L13524.5705,-3562.8522L13524.5706,-3562.8505L13524.5707,-3562.8493L13524.5708,-3562.8483L13524.571,-3562.8472L13524.5711,-3562.8455L13524.5713,-3562.8432L13524.5716,-3562.8392L13524.5716,-3562.8382L13524.5718,-3562.8365L13524.5721,-3562.8346L13524.5724,-3562.8326L13524.5726,-3562.8311L13524.5735,-3562.8275L13524.574,-3562.8258L13524.5744,-3562.8245L13524.5749,-3562.8225L13524.5752,-3562.821L13524.5753,-3562.8195L13524.5763,-3562.8136L13524.5766,-3562.8127L13524.5771,-3562.8102L13524.5775,-3562.8077L13524.5777,-3562.8031L13524.5786,-3562.798L13524.579,-3562.7947L13524.5795,-3562.7926L13524.5798,-3562.7912L13524.5805,-3562.788L13524.5811,-3562.7858L13524.5814,-3562.7842L13524.5816,-3562.7818L13524.5825,-3562.7759L13524.583,-3562.7727L13524.5834,-3562.7697L13524.5835,-3562.768L13524.5842,-3562.7647L13524.5846,-3562.7633L13524.5853,-3562.7604L13524.5858,-3562.7586L13524.5863,-3562.7566L13524.5867,-3562.7548L13524.5872,-3562.7524L13524.5879,-3562.7491L13524.5887,-3562.7457L13524.5892,-3562.7437L13524.5894,-3562.7428L13524.5898,-3562.7409L13524.59,-3562.7396L13524.5903,-3562.7381L13524.5904,-3562.7366L13524.5905,-3562.7353L13524.5906,-3562.734L13524.5907,-3562.7328L13524.5908,-3562.7293L13524.591,-3562.728L13524.5913,-3562.7258L13524.5916,-3562.7244L13524.5922,-3562.7209L13524.5926,-3562.7189L13524.5927,-3562.718L13524.593,-3562.7163L13524.5933,-3562.7149L13524.5937,-3562.7136L13524.5947,-3562.7105L13524.5956,-3562.708L13524.5959,-3562.7071L13524.5971,-3562.7037L13524.5976,-3562.7028L13524.5982,-3562.7014L13524.5993,-3562.6997L13524.6029,-3562.6975L13524.6039,-3562.6973L13524.6058,-3562.6971L13524.6077,-3562.697L13524.609,-3562.697L13524.6133,-3562.6966L13524.6163,-3562.6959L13524.6184,-3562.6953L13524.6234,-3562.6937L13524.6242,-3562.6934L13524.6272,-3562.6916L13524.6279,-3562.6909L13524.6292,-3562.6893L13524.661,-3562.6835L13524.6932,-3562.6777L13524.6943,-3562.6773L13524.7044,-3562.6096L13524.7184,-3562.5911L13524.7086,-3562.5857L13524.6937,-3562.6064L13524.6831,-3562.6745L13524.659,-3562.6789L13524.6226,-3562.6856L13524.6113,-3562.6523L13524.6142,-3562.6164L13524.6052,-3562.6151L13524.6079,-3562.5805L13524.6077,-3562.5793L13524.6108,-3562.5787L13524.6507,-3562.5715L13524.6692,-3562.5808L13524.6723,-3562.5764L13524.6525,-3562.5663L13524.6339,-3562.57L13524.6091,-3562.5743L13524.6088,-3562.5743L13524.6083,-3562.5741L13524.6082,-3562.5737L13524.608,-3562.573L13524.6074,-3562.5722L13524.6072,-3562.5721L13524.6026,-3562.5709L13524.5992,-3562.57L13524.597,-3562.5684L13524.5953,-3562.5646L13524.5939,-3562.5607L13524.5935,-3562.5576L13524.5931,-3562.553L13524.5907,-3562.5494L13524.5936,-3562.546L13524.5962,-3562.5428L13524.5978,-3562.5424L13524.5991,-3562.542L13524.6009,-3562.5415L13524.6046,-3562.5402L13524.6055,-3562.54L13524.6063,-3562.5397L13524.6091,-3562.5387L13524.6052,-3562.5187L13524.6041,-3562.5123L13524.6026,-3562.5071L13524.5998,-3562.5008L13524.5992,-3562.5L13524.5979,-3562.4983L13524.5982,-3562.4971L13524.5982,-3562.495L13524.5979,-3562.4935L13524.5978,-3562.4925L13524.5977,-3562.4915L13524.5976,-3562.4902L13524.5977,-3562.4893L13524.5977,-3562.4882L13524.5976,-3562.4867L13524.5974,-3562.4855L13524.5972,-3562.4844L13524.597,-3562.483L13524.5961,-3562.481L13524.5945,-3562.4787L13524.5939,-3562.4777L13524.5931,-3562.4764L13524.5928,-3562.4758L13524.5921,-3562.4745L13524.591,-3562.4721L13524.5905,-3562.4711L13524.5901,-3562.4697L13524.5897,-3562.4678L13524.5895,-3562.4667L13524.5894,-3562.4652L13524.5895,-3562.465L13524.5901,-3562.4647L13524.5908,-3562.4646L13524.592,-3562.4645L13524.5931,-3562.4644L13524.5936,-3562.4639L13524.5935,-3562.4633L13524.5932,-3562.4627L13524.5925,-3562.4617L13524.5919,-3562.4609L13524.5914,-3562.4601L13524.5913,-3562.4596L13524.5915,-3562.4592L13524.5922,-3562.4585L13524.5946,-3562.4571L13524.5955,-3562.4568L13524.5961,-3562.4566L13524.5972,-3562.4569L13524.5977,-3562.4572L13524.5986,-3562.4576L13524.5995,-3562.4572L13524.6002,-3562.4565L13524.6006,-3562.4558L13524.6002,-3562.4551L13524.5996,-3562.4547L13524.5994,-3562.454L13524.5999,-3562.4536L13524.6021,-3562.4526L13524.6032,-3562.4521L13524.6042,-3562.4514L13524.605,-3562.4507L13524.6052,-3562.4501L13524.6049,-3562.449L13524.6045,-3562.4484L13524.604,-3562.4479L13524.603,-3562.4472L13524.6019,-3562.4467L13524.6005,-3562.4463L13524.5979,-3562.4468L13524.5963,-3562.4479L13524.5957,-3562.4485L13524.5947,-3562.4497L13524.5936,-3562.451L13524.5927,-3562.4518L13524.5919,-3562.4527L13524.5908,-3562.454L13524.5899,-3562.4549L13524.5886,-3562.456L13524.5872,-3562.4572L13524.5859,-3562.4583L13524.5849,-3562.459L13524.5839,-3562.4598L13524.5827,-3562.4608L13524.5819,-3562.4615L13524.5808,-3562.462L13524.5782,-3562.462L13524.5776,-3562.4619L13524.576,-3562.4615L13524.5746,-3562.461L13524.5736,-3562.4604L13524.5725,-3562.4597L13524.5713,-3562.4586L13524.5705,-3562.4576L13524.569,-3562.4562L13524.566,-3562.4527L13524.5649,-3562.4514L13524.5638,-3562.4501L13524.563,-3562.4492L13524.5621,-3562.4483L13524.5611,-3562.4478L13524.5602,-3562.4479L13524.5588,-3562.4483L13524.5579,-3562.4487L13524.5563,-3562.4494L13524.5554,-3562.4494L13524.5542,-3562.4488L13524.5533,-3562.4482L13524.5521,-3562.4472L13524.5511,-3562.4464L13524.5486,-3562.4441L13524.545,-3562.4405L13524.5431,-3562.4388L13524.5421,-3562.4377L13524.541,-3562.4367L13524.5359,-3562.4316L13524.5351,-3562.4306L13524.5341,-3562.4294L13524.533,-3562.4282L13524.5309,-3562.4259L13524.5296,-3562.4245L13524.5286,-3562.4232L13524.5279,-3562.4223L13524.5269,-3562.4214L13524.5262,-3562.4216L13524.5247,-3562.4221L13524.5241,-3562.4213L13524.5237,-3562.4205L13524.5235,-3562.42L13524.5227,-3562.4188L13524.5218,-3562.4173L13524.521,-3562.4163L13524.5202,-3562.4151L13524.5192,-3562.4133L13524.5174,-3562.4104L13524.5165,-3562.4087L13524.5157,-3562.4069L13524.5151,-3562.4055L13524.5145,-3562.4043L13524.5137,-3562.4024L13524.5132,-3562.4011L13524.5126,-3562.3997L13524.512,-3562.3979L13524.5109,-3562.3949L13524.5103,-3562.3933L13524.5096,-3562.3906L13524.5091,-3562.3889L13524.5088,-3562.3873L13524.5086,-3562.3861L13524.5084,-3562.3849L13524.5082,-3562.3833L13524.5081,-3562.3822L13524.5079,-3562.3809L13524.5077,-3562.3798L13524.5076,-3562.3789L13524.5073,-3562.3779L13524.507,-3562.377L13524.5068,-3562.3763L13524.5069,-3562.3761L13524.5076,-3562.3759L13524.5091,-3562.3754L13524.5119,-3562.3749L13524.5174,-3562.3743L13524.517,-3562.373L13524.5116,-3562.3736L13524.5088,-3562.3741L13524.5052,-3562.3747L13524.5048,-3562.3747L13524.5046,-3562.3735L13524.5039,-3562.3706L13524.5029,-3562.3662L13524.5021,-3562.3631L13524.5015,-3562.3606L13524.5009,-3562.3582L13524.5006,-3562.357L13524.5006,-3562.3569L13524.5006,-3562.3554L13524.5006,-3562.3541L13524.5006,-3562.3533L13524.5005,-3562.3521L13524.5002,-3562.3511L13524.4998,-3562.3506L13524.4992,-3562.3502L13524.4985,-3562.3495L13524.4973,-3562.3466L13524.4963,-3562.3417L13524.4959,-3562.3401L13524.4958,-3562.3392L13524.4955,-3562.338L13524.4953,-3562.3366L13524.4952,-3562.3363L13524.501,-3562.3357L13524.5009,-3562.3348L13524.4951,-3562.3355L13524.4948,-3562.3339L13524.4944,-3562.3323L13524.4941,-3562.3308L13524.4939,-3562.33L13524.4936,-3562.3285L13524.4934,-3562.3271L13524.4933,-3562.3259L13524.4933,-3562.3246L13524.4932,-3562.3232L13524.4932,-3562.3218L13524.4931,-3562.3203L13524.4931,-3562.3193L13524.4931,-3562.3166L13524.4935,-3562.3137L13524.4935,-3562.3129L13524.4936,-3562.3115L13524.4938,-3562.3096L13524.4938,-3562.3087L13524.4939,-3562.3082L13524.4944,-3562.3079L13524.4952,-3562.3078L13524.496,-3562.3074L13524.4962,-3562.3065L13524.4962,-3562.3055L13524.4962,-3562.3042L13524.4961,-3562.3017L13524.496,-3562.2992L13524.496,-3562.2988L13524.496,-3562.2981L13524.4971,-3562.297L13524.5005,-3562.297L13524.5009,-3562.297L13524.5009,-3562.2956L13524.496,-3562.2955L13524.4952,-3562.2952L13524.4944,-3562.2946L13524.4939,-3562.2935L13524.4937,-3562.2926L13524.4936,-3562.2915L13524.4936,-3562.2899L13524.4935,-3562.2887L13524.4935,-3562.2874L13524.4935,-3562.2858L13524.4935,-3562.283L13524.4934,-3562.2796L13524.4933,-3562.2767L13524.4933,-3562.2751L13524.4932,-3562.2727L13524.4932,-3562.2711L13524.4933,-3562.2698L13524.4932,-3562.2689L13524.4932,-3562.2669L13524.4932,-3562.2656L13524.4931,-3562.2627L13524.4931,-3562.262L13524.4931,-3562.2606L13524.4931,-3562.259L13524.4931,-3562.2579L13524.4932,-3562.2568L13524.4932,-3562.2562L13524.4959,-3562.2561L13524.4984,-3562.2561L13524.4983,-3562.2551L13524.494,-3562.2551L13524.4932,-3562.2551L13524.4933,-3562.2537L13524.4933,-3562.2526L13524.4933,-3562.2515L13524.4934,-3562.2503L13524.4934,-3562.2492L13524.4934,-3562.2476L13524.4935,-3562.2466L13524.4936,-3562.2438L13524.4936,-3562.2427L13524.4937,-3562.2404L13524.4937,-3562.2389L13524.4938,-3562.2376L13524.4939,-3562.2359L13524.494,-3562.2339L13524.494,-3562.2324L13524.494,-3562.2314L13524.4941,-3562.2285L13524.4941,-3562.2275L13524.4942,-3562.2247L13524.4942,-3562.2237L13524.4943,-3562.2221L13524.4943,-3562.2208L13524.4944,-3562.2196L13524.4945,-3562.2178L13524.4946,-3562.2165L13524.4946,-3562.216L13524.495,-3562.216L13524.4996,-3562.2163L13524.4997,-3562.2152L13524.4947,-3562.2149L13524.4947,-3562.2133L13524.4948,-3562.2122L13524.495,-3562.2104L13524.495,-3562.2085L13524.495,-3562.2067L13524.495,-3562.2057L13524.495,-3562.204L13524.495,-3562.2011L13524.495,-3562.1993L13524.495,-3562.1966L13524.495,-3562.1947L13524.495,-3562.193L13524.4951,-3562.1922L13524.4951,-3562.1909L13524.4952,-3562.1889L13524.4952,-3562.188L13524.4953,-3562.1863L13524.4953,-3562.1851L13524.4955,-3562.1841L13524.4955,-3562.1829L13524.4957,-3562.1807L13524.4959,-3562.1792L13524.4962,-3562.1767L13524.4962,-3562.1759L13524.4962,-3562.1744L13524.4963,-3562.173L13524.4962,-3562.1719L13524.4959,-3562.1709L13524.4954,-3562.1697L13524.4949,-3562.1687L13524.4946,-3562.1677L13524.4944,-3562.1663L13524.4945,-3562.1653L13524.4945,-3562.1635L13524.4945,-3562.1619L13524.4948,-3562.1596L13524.4948,-3562.1585L13524.4949,-3562.1557L13524.4949,-3562.1527L13524.4949,-3562.1515L13524.4948,-3562.1505L13524.4948,-3562.1489L13524.4948,-3562.1478L13524.4948,-3562.1466L13524.4948,-3562.145L13524.4948,-3562.1439L13524.4948,-3562.1426L13524.4948,-3562.1415L13524.4948,-3562.1389L13524.4947,-3562.1366L13524.4946,-3562.1353L13524.4946,-3562.1344L13524.4944,-3562.1332L13524.4939,-3562.1317L13524.4935,-3562.1307L13524.4927,-3562.1279L13524.4921,-3562.1266L13524.491,-3562.124L13524.4905,-3562.1226L13524.4903,-3562.1215L13524.4901,-3562.1209L13524.4895,-3562.1184L13524.4893,-3562.1172L13524.489,-3562.1153L13524.4889,-3562.1146L13524.4887,-3562.1128L13524.4885,-3562.1117L13524.4882,-3562.1093L13524.4881,-3562.108L13524.488,-3562.1069L13524.4875,-3562.1045L13524.4855,-3562.099L13524.4848,-3562.0974L13524.4843,-3562.0965L13524.4839,-3562.0954L13524.4835,-3562.0938L13524.4832,-3562.0927L13524.4829,-3562.0915L13524.4828,-3562.0904L13524.4834,-3562.089L13524.4838,-3562.0884L13524.4843,-3562.0872L13524.4844,-3562.086L13524.4843,-3562.0853L13524.4836,-3562.0843L13524.4815,-3562.082L13524.4809,-3562.0817L13524.4801,-3562.0813L13524.4789,-3562.0808L13524.4776,-3562.0798L13524.4773,-3562.0794L13524.4767,-3562.0783L13524.4767,-3562.0772L13524.4768,-3562.0761L13524.4769,-3562.075L13524.4769,-3562.0735L13524.4769,-3562.0724L13524.4766,-3562.0708L13524.4762,-3562.0699L13524.4756,-3562.0689L13524.4745,-3562.0679L13524.4733,-3562.0675L13524.4721,-3562.0669L13524.4712,-3562.0662L13524.4704,-3562.0654L13524.4695,-3562.064L13524.4686,-3562.0629L13524.468,-3562.0619L13524.4671,-3562.0605L13524.4664,-3562.0595L13524.4657,-3562.0584L13524.4649,-3562.0572L13524.4644,-3562.0562L13524.4639,-3562.0553L13524.4633,-3562.0541L13524.4628,-3562.0532L13524.4623,-3562.0522L13524.4618,-3562.0512L13524.4609,-3562.0495L13524.4604,-3562.0486L13524.46,-3562.0479L13524.4616,-3562.0473L13524.4621,-3562.0472L13524.4627,-3562.0466L13524.4629,-3562.0455L13524.4628,-3562.0446L13524.4623,-3562.044L13524.46,-3562.0441L13524.459,-3562.0441L13524.4587,-3562.0436L13524.4584,-3562.0428L13524.4578,-3562.0418L13524.4568,-3562.0406L13524.4556,-3562.0399L13524.4542,-3562.0395L13524.4537,-3562.039L13524.4533,-3562.0385L13524.453,-3562.0379L13524.4524,-3562.0369L13524.452,-3562.0361L13524.4519,-3562.0352L13524.4517,-3562.0342L13524.4508,-3562.0326L13524.45,-3562.0317L13524.4491,-3562.0311L13524.4482,-3562.0308L13524.4474,-3562.0304L13524.4466,-3562.0298L13524.4464,-3562.0293L13524.4469,-3562.0289L13524.4479,-3562.0283L13524.4476,-3562.0267L13524.4444,-3562.0255L13524.4431,-3562.0252L13524.4418,-3562.025L13524.4402,-3562.025L13524.4395,-3562.025L13524.4391,-3562.0246L13524.439,-3562.0239L13524.4381,-3562.0224L13524.4374,-3562.0219L13524.4355,-3562.0221L13524.4328,-3562.0229L13524.4319,-3562.0232L13524.431,-3562.0233L13524.4298,-3562.0232L13524.4289,-3562.0227L13524.4281,-3562.022L13524.4272,-3562.0212L13524.4264,-3562.021L13524.4252,-3562.021L13524.424,-3562.0208L13524.4216,-3562.0199L13524.4205,-3562.0193L13524.4195,-3562.0187L13524.4189,-3562.0182L13524.4185,-3562.0176L13524.4182,-3562.0166L13524.4182,-3562.0159L13524.4184,-3562.0152L13524.4188,-3562.0142L13524.4192,-3562.0136L13524.4194,-3562.0127L13524.4187,-3562.0117L13524.4179,-3562.0107L13524.4174,-3562.01L13524.4167,-3562.0093L13524.4157,-3562.0088L13524.4148,-3562.0087L13524.4136,-3562.009L13524.4127,-3562.0095L13524.4114,-3562.0103L13524.4109,-3562.0106L13524.41,-3562.0112L13524.4091,-3562.0113L13524.4085,-3562.0109L13524.4079,-3562.0102L13524.407,-3562.0094L13524.4049,-3562.0085L13524.4036,-3562.0081L13524.4022,-3562.0072L13524.4013,-3562.0063L13524.4004,-3562.0052L13524.3998,-3562.0045L13524.3992,-3562.0038L13524.3984,-3562.0029L13524.3977,-3562.0022L13524.3968,-3562.002L13524.3956,-3562.0023L13524.3948,-3562.0023L13524.3944,-3562.0013L13524.3947,-3562.0005L13524.3946,-3561.9985L13524.3941,-3561.9974L13524.3917,-3561.9956L13524.3905,-3561.9956L13524.3891,-3561.9957L13524.3882,-3561.9955L13524.3871,-3561.994L13524.3867,-3561.9931L13524.3849,-3561.991L13524.3842,-3561.9903L13524.3821,-3561.9905L13524.381,-3561.9908L13524.3803,-3561.9908L13524.3796,-3561.9894L13524.3795,-3561.9885L13524.3794,-3561.9875L13524.3794,-3561.9867L13524.3793,-3561.9859L13524.379,-3561.9853L13524.3785,-3561.985L13524.3774,-3561.9846L13524.3749,-3561.9832L13524.3726,-3561.983L13524.3719,-3561.983L13524.3709,-3561.9826L13524.3701,-3561.9816L13524.3697,-3561.9807L13524.3692,-3561.9796L13524.3682,-3561.9772L13524.3677,-3561.977L13524.3665,-3561.9767L13524.3659,-3561.9767L13524.3644,-3561.9771L13524.3637,-3561.9775L13524.3626,-3561.9788L13524.3623,-3561.9793L13524.3617,-3561.9798L13524.3608,-3561.9797L13524.3596,-3561.9789L13524.359,-3561.9783L13524.3578,-3561.9773L13524.3567,-3561.9763L13524.3563,-3561.9759L13524.3551,-3561.9749L13524.3539,-3561.9739L13524.3536,-3561.9734L13524.3546,-3561.9728L13524.3553,-3561.9723L13524.356,-3561.9708L13524.3549,-3561.9688L13524.3546,-3561.9684L13524.3541,-3561.9674L13524.3538,-3561.9663L13524.3535,-3561.9656L13524.3532,-3561.9649L13524.3525,-3561.9642L13524.352,-3561.9635L13524.3517,-3561.9629L13524.3516,-3561.9621L13524.3518,-3561.9616L13524.3525,-3561.9608L13524.3527,-3561.9599L13524.3513,-3561.9589L13524.35,-3561.9592L13524.3483,-3561.9604L13524.3475,-3561.9615L13524.3467,-3561.9624L13524.3458,-3561.9624L13524.3444,-3561.9616L13524.3427,-3561.9605L13524.3414,-3561.9598L13524.3395,-3561.959L13524.3381,-3561.9584L13524.3369,-3561.9578L13524.3349,-3561.9574L13524.3333,-3561.9573L13524.3296,-3561.9571L13524.328,-3561.9565L13524.3271,-3561.9555L13524.3264,-3561.9547L13524.3256,-3561.9539L13524.3241,-3561.9531L13524.3228,-3561.9525L13524.3215,-3561.9519L13524.3196,-3561.9506L13524.3166,-3561.9485L13524.3135,-3561.9464L13524.3125,-3561.9457L13524.3111,-3561.9447L13524.3089,-3561.9434L13524.3065,-3561.9425L13524.3053,-3561.9419L13524.3044,-3561.9413L13524.303,-3561.9404L13524.3006,-3561.938L13524.2983,-3561.9353L13524.2977,-3561.9346L13524.2966,-3561.9333L13524.2957,-3561.9319L13524.2949,-3561.9307L13524.294,-3561.9298L13524.2927,-3561.9286L13524.2917,-3561.9275L13524.2904,-3561.9264L13524.2895,-3561.9257L13524.2885,-3561.9248L13524.2869,-3561.9235L13524.2856,-3561.9223L13524.2842,-3561.9212L13524.2832,-3561.9202L13524.2824,-3561.9193L13524.2815,-3561.9182L13524.281,-3561.9177L13524.2801,-3561.9163L13524.2797,-3561.9153L13524.2792,-3561.9145L13524.2787,-3561.9134L13524.2785,-3561.9131L13524.2781,-3561.9123L13524.2775,-3561.9113L13524.2768,-3561.9101L13524.2762,-3561.9092L13524.2742,-3561.9065L13524.2734,-3561.9052L13524.2728,-3561.9043L13524.2716,-3561.9022L13524.2707,-3561.9007L13524.2697,-3561.8987L13524.2692,-3561.8976L13524.2684,-3561.8962L13524.2675,-3561.8945L13524.2667,-3561.893L13524.2661,-3561.8919L13524.2657,-3561.8906L13524.2651,-3561.889L13524.2649,-3561.8877L13524.2649,-3561.8864L13524.2649,-3561.8849L13524.2647,-3561.8837L13524.2642,-3561.8824L13524.2631,-3561.8808L13524.2621,-3561.8793L13524.2611,-3561.8781L13524.2595,-3561.8767L13524.2583,-3561.8755L13524.2569,-3561.8745L13524.2551,-3561.8733L13524.2538,-3561.8725L13524.2522,-3561.8713L13524.2504,-3561.8701L13524.2491,-3561.8692L13524.2477,-3561.868L13524.246,-3561.8665L13524.2452,-3561.8658L13524.2438,-3561.8644L13524.2423,-3561.8627L13524.2415,-3561.8619L13524.2399,-3561.8602L13524.2384,-3561.8584L13524.2377,-3561.8577L13524.2362,-3561.8559L13524.2347,-3561.8542L13524.2333,-3561.8529L13524.2321,-3561.852L13524.2303,-3561.8513L13524.2288,-3561.851L13524.2275,-3561.8509L13524.2246,-3561.8497L13524.2199,-3561.8465L13524.2161,-3561.8434L13524.215,-3561.8426L13524.2133,-3561.8415L13524.21,-3561.84L13524.2056,-3561.838L13524.2045,-3561.8374L13524.2022,-3561.8364L13524.1998,-3561.8351L13524.1982,-3561.8341L13524.1943,-3561.8313L13524.1933,-3561.8307L13524.1911,-3561.8293L13524.1891,-3561.8278L13524.1876,-3561.8269L13524.186,-3561.8259L13524.1831,-3561.8237L13524.1811,-3561.8223L13524.179,-3561.8207L13524.1775,-3561.8196L13524.1759,-3561.8186L13524.1737,-3561.8172L13524.1718,-3561.816L13524.1697,-3561.8147L13524.1681,-3561.8136L13524.1667,-3561.8128L13524.1664,-3561.8126L13524.1645,-3561.8117L13524.1617,-3561.8102L13524.16,-3561.809L13524.1583,-3561.808L13524.1562,-3561.8068L13524.1552,-3561.8062L13524.1492,-3561.803L13524.1467,-3561.8011L13524.1449,-3561.8L13524.1432,-3561.7987L13524.1407,-3561.7964L13524.1375,-3561.793L13524.1366,-3561.7919L13524.1343,-3561.7893L13524.1325,-3561.7851L13524.1291,-3561.7821L13524.127,-3561.7827L13524.1262,-3561.783L13524.1248,-3561.7833L13524.1235,-3561.7827L13524.1223,-3561.7819L13524.1211,-3561.7812L13524.1195,-3561.7803L13524.1182,-3561.7796L13524.1168,-3561.779L13524.1133,-3561.7775L13524.1118,-3561.777L13524.106,-3561.7752L13524.1037,-3561.7747L13524.1011,-3561.7743L13524.0997,-3561.7742L13524.0979,-3561.7739L13524.095,-3561.7734L13524.0911,-3561.7726L13524.086,-3561.7714L13524.0835,-3561.7708L13524.0792,-3561.7699L13524.0764,-3561.769L13524.0743,-3561.7684L13524.0691,-3561.7672L13524.0668,-3561.7665L13524.0638,-3561.7656L13524.0619,-3561.765L13524.0598,-3561.7645L13524.0571,-3561.7639L13524.0549,-3561.7634L13524.0529,-3561.7629L13524.0503,-3561.7624L13524.0464,-3561.7614L13524.0439,-3561.7608L13524.0421,-3561.7603L13524.0402,-3561.7599L13524.0377,-3561.7593L13524.0355,-3561.7587L13524.0312,-3561.7575L13524.0297,-3561.757L13524.028,-3561.7566L13524.0258,-3561.756L13524.0242,-3561.7556L13524.0222,-3561.7551L13524.0199,-3561.7543L13524.0181,-3561.7537L13524.0164,-3561.7532L13524.0142,-3561.7525L13524.012,-3561.7518L13524.0098,-3561.7511L13524.0087,-3561.7507L13524.0065,-3561.7498L13524.0041,-3561.7489L13524.0022,-3561.7483L13523.9999,-3561.7476L13523.998,-3561.7471L13523.9963,-3561.7466L13523.9937,-3561.7459L13523.9921,-3561.7455L13523.9902,-3561.7451L13523.9882,-3561.7448L13523.9864,-3561.7445L13523.9847,-3561.7442L13523.9826,-3561.7438L13523.9809,-3561.7435L13523.9779,-3561.7431L13523.9768,-3561.7429L13523.9744,-3561.7426L13523.9723,-3561.7424L13523.9704,-3561.7422L13523.9685,-3561.742L13523.9667,-3561.7419L13523.9633,-3561.7417L13523.9602,-3561.7414L13523.9568,-3561.7409L13523.9546,-3561.7405L13523.9522,-3561.7401L13523.9506,-3561.7398L13523.9486,-3561.7394L13523.9461,-3561.739L13523.9425,-3561.7385L13523.9403,-3561.7383L13523.9378,-3561.7379L13523.9362,-3561.7377L13523.9345,-3561.7375L13523.9322,-3561.7372L13523.9306,-3561.737L13523.9283,-3561.7367L13523.9267,-3561.7364L13523.9228,-3561.7359L13523.9184,-3561.7353L13523.917,-3561.7351L13523.9154,-3561.7349L13523.9131,-3561.7346L13523.9118,-3561.7346L13523.9097,-3561.7345L13523.9083,-3561.7344L13523.9046,-3561.7341L13523.9027,-3561.734L13523.8993,-3561.734L13523.8972,-3561.7341L13523.893,-3561.7343L13523.891,-3561.7343L13523.8889,-3561.7344L13523.8873,-3561.7344L13523.8856,-3561.7344L13523.8836,-3561.7344L13523.8819,-3561.7344L13523.8798,-3561.7344L13523.878,-3561.7344L13523.8762,-3561.7343L13523.8742,-3561.7342L13523.8689,-3561.734L13523.8666,-3561.7339L13523.8646,-3561.7338L13523.8629,-3561.7337L13523.8607,-3561.7336L13523.8588,-3561.7334L13523.8571,-3561.7332L13523.8551,-3561.7329L13523.8529,-3561.7325L13523.8495,-3561.7319L13523.8478,-3561.7317L13523.8457,-3561.7313L13523.8439,-3561.731L13523.8421,-3561.7306L13523.8397,-3561.7301L13523.8339,-3561.7292L13523.8319,-3561.7289L13523.8309,-3561.7287L13523.8298,-3561.7285L13523.8278,-3561.7282L13523.8256,-3561.7277L13523.824,-3561.7274L13523.8223,-3561.727L13523.8199,-3561.7265L13523.8183,-3561.7262L13523.8166,-3561.7259L13523.8143,-3561.7254L13523.8102,-3561.7248L13523.8081,-3561.7244L13523.8057,-3561.724L13523.8042,-3561.7237L13523.8024,-3561.7233L13523.8001,-3561.7228L13523.7985,-3561.7224L13523.7961,-3561.7219L13523.7945,-3561.7216L13523.7906,-3561.7208L13523.7884,-3561.7204L13523.7872,-3561.7202L13523.7851,-3561.7198L13523.7827,-3561.7194L13523.7806,-3561.719L13523.7788,-3561.7186L13523.7772,-3561.7183L13523.7752,-3561.7179L13523.7734,-3561.7176L13523.7714,-3561.7173L13523.7669,-3561.7165L13523.7658,-3561.7162L13523.7634,-3561.7158L13523.7614,-3561.7155L13523.7596,-3561.7153L13523.7579,-3561.715L13523.7555,-3561.7146L13523.7538,-3561.7143L13523.7516,-3561.7139L13523.7499,-3561.7136L13523.7459,-3561.7129L13523.7436,-3561.7124L13523.7414,-3561.7119L13523.7396,-3561.7115L13523.738,-3561.7111L13523.7356,-3561.7105L13523.7342,-3561.71L13523.732,-3561.7094L13523.7303,-3561.7088L13523.7286,-3561.7081L13523.7263,-3561.7073L13523.7243,-3561.7066L13523.7219,-3561.7058L13523.7209,-3561.7054L13523.7187,-3561.7046L13523.7162,-3561.7038L13523.7146,-3561.7032L13523.7123,-3561.7024L13523.7081,-3561.7007L13523.7068,-3561.7003L13523.7048,-3561.6996L13523.7026,-3561.6989L13523.7012,-3561.6983L13523.6996,-3561.6976L13523.6973,-3561.6969L13523.6958,-3561.6963L13523.6936,-3561.6955L13523.6915,-3561.6948L13523.6877,-3561.6935L13523.6861,-3561.6928L13523.6838,-3561.6921L13523.6825,-3561.6916L13523.681,-3561.6911L13523.6788,-3561.6904L13523.675,-3561.689L13523.6729,-3561.6881L13523.6695,-3561.6868L13523.6674,-3561.6859L13523.665,-3561.6849L13523.6641,-3561.6845L13523.6619,-3561.6837L13523.6597,-3561.6829L13523.6583,-3561.6823L13523.6566,-3561.6816L13523.6546,-3561.6807L13523.653,-3561.68L13523.6508,-3561.6791L13523.6488,-3561.6782L13523.6465,-3561.6772L13523.645,-3561.6765L13523.6422,-3561.6754L13523.6387,-3561.674L13523.6377,-3561.6736L13523.6357,-3561.6729L13523.6335,-3561.6721L13523.63,-3561.6709L13523.6278,-3561.6702L13523.6245,-3561.669L13523.6222,-3561.6683L13523.6201,-3561.6676L13523.6184,-3561.6671L13523.617,-3561.6667L13523.6145,-3561.6659L13523.6129,-3561.6655L13523.6107,-3561.6649L13523.6065,-3561.6634L13523.6047,-3561.6629L13523.6028,-3561.6623L13523.6005,-3561.6615L13523.5988,-3561.6609L13523.5968,-3561.6603L13523.595,-3561.6598L13523.5911,-3561.6587L13523.5865,-3561.6575L13523.585,-3561.657L13523.5837,-3561.6566L13523.5665,-3561.6522L13523.5499,-3561.6463L13523.5395,-3561.6398L13523.5293,-3561.6322L13523.5186,-3561.6218L13523.5057,-3561.6089L13523.4919,-3561.5934L13523.4808,-3561.5772L13523.4737,-3561.5636L13523.4656,-3561.5495L13523.4567,-3561.5352L13523.4485,-3561.5181L13523.4418,-3561.504L13523.4395,-3561.4894L13523.4337,-3561.4747L13523.4279,-3561.4636L13523.422,-3561.4486L13523.4167,-3561.4344L13523.4123,-3561.4179L13523.4075,-3561.4007L13523.4032,-3561.3862L13523.4004,-3561.3723L13523.397,-3561.3582L13523.3916,-3561.3431L13523.3872,-3561.33L13523.3832,-3561.3169L13523.38,-3561.3053L13523.378,-3561.2951L13523.377,-3561.2836L13523.3748,-3561.2715L13523.3729,-3561.2617L13523.3724,-3561.2526L13523.3723,-3561.2472L13523.3738,-3561.2446L13523.3741,-3561.2394L13523.3726,-3561.2363L13523.3713,-3561.232L13523.3699,-3561.2255L13523.3696,-3561.2235L13523.3683,-3561.2141L13523.3683,-3561.2051L13523.3683,-3561.1952L13523.3692,-3561.1877L13523.3704,-3561.1793L13523.371,-3561.1747L13523.3692,-3561.1712L13523.3664,-3561.1713L13523.362,-3561.1724L13523.3534,-3561.1608L13523.3448,-3561.1493L13523.3448,-3561.1476L13523.344,-3561.1459L13523.343,-3561.1447L13523.3423,-3561.1431L13523.3423,-3561.1423L13523.3426,-3561.1417L13523.3435,-3561.141L13523.3442,-3561.1405L13523.3448,-3561.1399L13523.3454,-3561.1392L13523.3456,-3561.1384L13523.3457,-3561.1364L13523.3456,-3561.1356L13523.3451,-3561.1345L13523.3446,-3561.1337L13523.3441,-3561.1329L13523.343,-3561.1319L13523.3333,-3561.1331L13523.3301,-3561.1333L13523.3266,-3561.1332L13523.3182,-3561.132L13523.3119,-3561.131L13523.3054,-3561.1301L13523.2999,-3561.128L13523.293,-3561.1236L13523.2825,-3561.1154L13523.2753,-3561.1074L13523.2692,-3561.101L13523.2637,-3561.098L13523.2571,-3561.0923L13523.2495,-3561.0852L13523.2382,-3561.0745L13523.2335,-3561.0684L13523.2257,-3561.0609L13523.2221,-3561.0572L13523.227,-3561.0534L13523.2256,-3561.0522L13523.2208,-3561.0559L13523.2189,-3561.054L13523.215,-3561.0525L13523.2058,-3561.0446L13523.2104,-3561.0405L13523.2091,-3561.0395L13523.2046,-3561.0435L13523.1998,-3561.0392L13523.1923,-3561.0336L13523.1842,-3561.0251L13523.1836,-3561.0247L13523.1876,-3561.0216L13523.1865,-3561.0206L13523.1824,-3561.0238L13523.18,-3561.022L13523.1768,-3561.0207L13523.1728,-3561.0176L13523.1683,-3561.0122L13523.1663,-3561.0081L13523.1695,-3561.005L13523.1681,-3561.004L13523.1652,-3561.0068L13523.1614,-3561.0057L13523.1557,-3561.0033L13523.1497,-3560.9984L13523.1446,-3560.9958L13523.1376,-3560.9912L13523.1313,-3560.9869L13523.1248,-3560.9823L13523.123,-3560.9813L13523.1265,-3560.9775L13523.1246,-3560.9764L13523.1211,-3560.9803L13523.121,-3560.9803L13523.1153,-3560.9795L13523.1074,-3560.9805L13523.1077,-3560.9789L13523.0888,-3560.9654L13523.092,-3560.9626L13523.0906,-3560.9615L13523.0868,-3560.9649L13523.0857,-3560.9648L13523.084,-3560.9648L13523.0828,-3560.9649L13523.0815,-3560.9647L13523.0805,-3560.9645L13523.0693,-3560.9558L13523.0623,-3560.9504L13523.0662,-3560.9474L13523.0648,-3560.9461L13523.0607,-3560.9493L13523.0605,-3560.9491L13523.0593,-3560.9491L13523.0575,-3560.9487L13523.0519,-3560.9459L13523.0419,-3560.9357L13523.0277,-3560.9198L13523.0276,-3560.9198L13523.0322,-3560.9166L13523.031,-3560.9154L13523.0264,-3560.9186L13523.0121,-3560.9045L13523.0157,-3560.902L13523.0147,-3560.9011L13523.0111,-3560.9036L13523.0099,-3560.9023L13523.0016,-3560.8931L13523.0055,-3560.8903L13523.0042,-3560.8891L13523.0003,-3560.8919L13522.9979,-3560.8902L13522.9848,-3560.8798L13522.9826,-3560.8771L13522.9839,-3560.8758L13522.9845,-3560.875L13522.9836,-3560.8744L13522.9821,-3560.8762L13522.9811,-3560.8763L13522.9791,-3560.8762L13522.977,-3560.8761L13522.976,-3560.8758L13522.9753,-3560.8755L13522.9622,-3560.8695L13522.955,-3560.8631L13522.9486,-3560.8567L13522.9489,-3560.8564L13522.9497,-3560.8554L13522.9489,-3560.8549L13522.9478,-3560.856L13522.9452,-3560.8559L13522.9435,-3560.8559L13522.9432,-3560.8559L13522.9367,-3560.8531L13522.9281,-3560.8487L13522.9314,-3560.8449L13522.9305,-3560.8443L13522.9272,-3560.8483L13522.9251,-3560.8472L13522.9142,-3560.8416L13522.9121,-3560.8414L13522.9098,-3560.8414L13522.9061,-3560.8405L13522.9082,-3560.8361L13522.909,-3560.8345L13522.908,-3560.8342L13522.9068,-3560.8366L13522.9051,-3560.8401L13522.9006,-3560.8409L13522.8905,-3560.8397L13522.8814,-3560.8372L13522.8694,-3560.8333L13522.8659,-3560.8322L13522.8491,-3560.8258L13522.8481,-3560.8255L13522.8308,-3560.8141L13522.8279,-3560.8117L13522.8311,-3560.8081L13522.8296,-3560.8072L13522.8266,-3560.8106L13522.8163,-3560.8022L13522.7997,-3560.7914L13522.7879,-3560.7796L13522.7814,-3560.7737L13522.7769,-3560.7687L13522.7763,-3560.7679L13522.78,-3560.7656L13522.7787,-3560.7644L13522.7752,-3560.7665L13522.7739,-3560.7648L13522.7699,-3560.7596L13522.763,-3560.7508L13522.7575,-3560.7431L13522.7631,-3560.7403L13522.7619,-3560.7388L13522.7564,-3560.7414L13522.7463,-3560.7223L13522.7498,-3560.72L13522.749,-3560.7191L13522.7455,-3560.7214L13522.7442,-3560.7193L13522.742,-3560.7142L13522.7405,-3560.7104L13522.7379,-3560.7047L13522.7366,-3560.7026L13522.7363,-3560.7021L13522.7352,-3560.7001L13522.7344,-3560.6984L13522.7344,-3560.6977L13522.7341,-3560.697L13522.7305,-3560.6902L13522.7277,-3560.687L13522.726,-3560.6857L13522.724,-3560.6842L13522.7182,-3560.6824L13522.7075,-3560.6801L13522.691,-3560.674L13522.6845,-3560.6698L13522.6732,-3560.6598L13522.6566,-3560.6455L13522.6475,-3560.6334L13522.6439,-3560.6289L13522.6368,-3560.6183L13522.6293,-3560.6092L13522.6168,-3560.5955L13522.6131,-3560.5911L13522.6002,-3560.5803L13522.5894,-3560.5703L13522.5859,-3560.5667L13522.5877,-3560.5657L13522.5867,-3560.5642L13522.5846,-3560.5654L13522.5788,-3560.5594L13522.5759,-3560.5551L13522.569,-3560.5437L13522.568,-3560.5423L13522.5666,-3560.5407L13522.5703,-3560.5389L13522.5689,-3560.5372L13522.5652,-3560.5391L13522.5632,-3560.5368L13522.5561,-3560.5261L13522.5516,-3560.516L13522.5536,-3560.5155L13522.5584,-3560.5144L13522.5576,-3560.5126L13522.5509,-3560.5143L13522.5508,-3560.5142L13522.5476,-3560.5053L13522.5455,-3560.495L13522.5453,-3560.4906L13522.5519,-3560.4903L13522.5518,-3560.4887L13522.5452,-3560.489L13522.544,-3560.4829L13522.5423,-3560.4702L13522.5405,-3560.4564L13522.5389,-3560.4419L13522.5376,-3560.4302L13522.5369,-3560.418L13522.5374,-3560.4086L13522.5385,-3560.3974L13522.5392,-3560.3853L13522.54,-3560.3758L13522.5408,-3560.3632L13522.541,-3560.3534L13522.5398,-3560.3419L13522.5378,-3560.3339L13522.5322,-3560.3241L13522.524,-3560.3136L13522.5127,-3560.3029L13522.5092,-3560.3008L13522.5,-3560.2958L13522.4875,-3560.2889L13522.4701,-3560.2802L13522.449,-3560.2666L13522.4359,-3560.2563L13522.4211,-3560.2423L13522.4028,-3560.2238L13522.3919,-3560.2141L13522.3904,-3560.2129L13522.3879,-3560.2091L13522.3875,-3560.2081L13522.3867,-3560.2053L13522.3871,-3560.2017L13522.2783,-3560.1371L13522.258,-3560.0976L13522.2533,-3560.0991L13522.273,-3560.1387L13522.3716,-3560.1979L13522.3668,-3560.2385L13522.3487,-3560.2371L13522.3449,-3560.2487L13522.344,-3560.2484L13522.3461,-3560.242L13522.2825,-3560.227L13522.2838,-3560.224L13522.2266,-3560.2098L13522.2245,-3560.2068L13522.2216,-3560.2025L13522.1473,-3560.1704L13522.0778,-3560.1404L13522.0748,-3560.1392L13522.0064,-3560.1086L13521.9568,-3560.0871L13521.9542,-3560.0873L13521.9534,-3560.0882L13521.9523,-3560.0883L13521.9506,-3560.0882L13521.9487,-3560.0879L13521.947,-3560.0873L13521.945,-3560.0859L13521.9436,-3560.0845L13521.9441,-3560.0816L13521.9081,-3560.0642L13521.8902,-3560.0549L13521.8054,-3560.0106L13521.8032,-3560.0129L13521.8014,-3560.0119L13521.8034,-3560.0096L13521.7851,-3560L13521.7357,-3559.974L13521.7341,-3559.9739L13521.7329,-3559.9736L13521.7315,-3559.9731L13521.7301,-3559.9724L13521.7288,-3559.9715L13521.7277,-3559.9707L13521.7265,-3559.9696L13521.6852,-3559.9481L13521.6667,-3559.9385L13521.6379,-3559.9236L13521.6362,-3559.9227L13521.5902,-3559.8991L13521.5467,-3559.8763L13521.5247,-3559.8647L13521.5175,-3559.8552L13521.5122,-3559.8515L13521.5104,-3559.8503L13521.5086,-3559.8485L13521.5086,-3559.8475L13521.5086,-3559.8468L13521.5084,-3559.8462L13521.5083,-3559.8459L13521.5061,-3559.8453L13521.4955,-3559.8436L13521.4816,-3559.84L13521.4788,-3559.8385L13521.4737,-3559.8359L13521.4716,-3559.834L13521.4668,-3559.8301L13521.4663,-3559.8292L13521.4656,-3559.8282L13521.4651,-3559.8273L13521.4655,-3559.827L13521.4647,-3559.8263L13521.4642,-3559.8267L13521.4635,-3559.8267L13521.4624,-3559.8269L13521.4607,-3559.8281L13521.459,-3559.8297L13521.4574,-3559.8308L13521.4556,-3559.8322L13521.4542,-3559.8326L13521.4515,-3559.8321L13521.4479,-3559.8311L13521.438,-3559.8254L13521.431,-3559.8199L13521.4238,-3559.8124L13521.4222,-3559.8103L13521.4199,-3559.8066L13521.4193,-3559.8058L13521.4198,-3559.8055L13521.4189,-3559.8046L13521.4186,-3559.8048L13521.4179,-3559.8039L13521.4168,-3559.8032L13521.4151,-3559.8029L13521.4125,-3559.8033L13521.4098,-3559.8017L13521.4079,-3559.8005L13521.406,-3559.7991L13521.4032,-3559.7973L13521.4015,-3559.7958L13521.4,-3559.7942L13521.3981,-3559.7921L13521.3941,-3559.7878L13521.3911,-3559.7854L13521.3892,-3559.7835L13521.3882,-3559.7818L13521.3867,-3559.7795L13521.3849,-3559.7773L13521.3836,-3559.7756L13521.3826,-3559.7739L13521.3821,-3559.773L13521.3808,-3559.7711L13521.3791,-3559.7687L13521.3782,-3559.7671L13521.3771,-3559.7652L13521.3754,-3559.763L13521.3738,-3559.7608L13521.3718,-3559.7576L13521.3708,-3559.7555L13521.3699,-3559.7536L13521.3685,-3559.7511L13521.3676,-3559.749L13521.3669,-3559.7465L13521.366,-3559.7437L13521.365,-3559.7402L13521.3644,-3559.7376L13521.364,-3559.7348L13521.3634,-3559.733L13521.3629,-3559.7312L13521.3622,-3559.7285L13521.3616,-3559.7259L13521.3609,-3559.7215L13521.3606,-3559.7188L13521.3602,-3559.7167L13521.3595,-3559.7142L13521.3591,-3559.7114L13521.3588,-3559.7095L13521.3586,-3559.7074L13521.358,-3559.7043L13521.3573,-3559.7014L13521.3567,-3559.6995L13521.3562,-3559.6977L13521.3554,-3559.695L13521.3549,-3559.6927L13521.3544,-3559.69L13521.354,-3559.6872L13521.3536,-3559.6851L13521.3531,-3559.6824L13521.3529,-3559.6804L13521.3525,-3559.6775L13521.352,-3559.6748L13521.3518,-3559.6729L13521.3514,-3559.6704L13521.351,-3559.6682L13521.3508,-3559.6663L13521.3515,-3559.6641L13521.3511,-3559.6622L13521.3507,-3559.6601L13521.35,-3559.6571L13521.3487,-3559.6533L13521.3476,-3559.6492L13521.3467,-3559.6451L13521.3456,-3559.6416L13521.3448,-3559.6385L13521.3442,-3559.635L13521.3435,-3559.6317L13521.3423,-3559.6278L13521.3413,-3559.6244L13521.3404,-3559.6204L13521.3398,-3559.6164L13521.3393,-3559.6139L13521.3389,-3559.612L13521.3376,-3559.6066L13521.3368,-3559.6021L13521.3363,-3559.5996L13521.3358,-3559.5977L13521.3352,-3559.5953L13521.3349,-3559.5934L13521.3343,-3559.5893L13521.3335,-3559.5851L13521.3331,-3559.5826L13521.3328,-3559.5807L13521.3325,-3559.5782L13521.3324,-3559.5764L13521.3324,-3559.5723L13521.3324,-3559.5703L13525.0816,-3559.5703L13525.0808,-3559.572L13525.0809,-3559.5741L13525.0823,-3559.5758L13525.0858,-3559.5776L13525.0894,-3559.5785L13525.0962,-3559.5802L13525.099,-3559.5826L13525.1006,-3559.592L13525.1017,-3559.5974L13525.0981,-3559.5995L13525.0963,-3559.6005L13525.0946,-3559.6019L13525.0948,-3559.6036L13525.0948,-3559.6047L13525.096,-3559.6069L13525.1002,-3559.6102L13525.0967,-3559.6168L13525.0981,-3559.6205L13525.0973,-3559.622L13525.0954,-3559.6239L13525.0974,-3559.6258L13525.0989,-3559.6267L13525.1026,-3559.6283L13525.1055,-3559.6311L13525.1051,-3559.6334L13525.1055,-3559.635L13525.1071,-3559.6359L13525.1087,-3559.6365L13525.1129,-3559.6376L13525.1154,-3559.639L13525.1194,-3559.644L13525.1199,-3559.6484L13525.1199,-3559.6506L13525.1192,-3559.6524L13525.1116,-3559.6615L13525.1103,-3559.662L13525.1096,-3559.6623L13525.1091,-3559.6641L13525.1092,-3559.6651L13525.1091,-3559.666L13525.1091,-3559.6665L13525.108,-3559.6674L13525.1068,-3559.6678L13525.1062,-3559.668L13525.1062,-3559.6688L13525.1071,-3559.6702L13525.1082,-3559.6699L13525.109,-3559.6698L13525.1112,-3559.6704L13525.1143,-3559.6714L13525.1141,-3559.6724L13525.1127,-3559.6742L13525.1034,-3559.6765L13525.0941,-3559.6766L13525.0915,-3559.677L13525.091,-3559.6831L13525.0902,-3559.6874L13525.0869,-3559.6873L13525.0857,-3559.6945L13525.094,-3559.6956L13525.1017,-3559.6968L13525.1068,-3559.6983L13525.1126,-3559.6986L13525.1178,-3559.6964L13525.1215,-3559.6958L13525.1266,-3559.6997L13525.1293,-3559.7094L13525.1285,-3559.7151L13525.1256,-3559.7227L13525.1211,-3559.7276L13525.1187,-3559.7286L13525.1174,-3559.7303L13525.1176,-3559.7333L13525.1185,-3559.7344L13525.1202,-3559.7349L13525.121,-3559.7358L13525.1214,-3559.7362L13525.1225,-3559.7382L13525.1225,-3559.7396L13525.1192,-3559.7408L13525.1191,-3559.7412L13525.1192,-3559.7421L13525.1198,-3559.7431L13525.1226,-3559.7432L13525.1245,-3559.7425L13525.1262,-3559.7424L13525.1269,-3559.7429L13525.127,-3559.7438L13525.1267,-3559.7448L13525.1259,-3559.7466L13525.1252,-3559.7484L13525.1248,-3559.7497L13525.1249,-3559.7516L13525.1234,-3559.752L13525.1217,-3559.7525L13525.1208,-3559.7539L13525.1201,-3559.7553L13525.1213,-3559.7561L13525.1261,-3559.7555L13525.1279,-3559.7565L13525.1299,-3559.7586L13525.133,-3559.7698L13525.1348,-3559.7762L13525.1373,-3559.7891L13525.138,-3559.8005L13525.1392,-3559.8078L13525.1398,-3559.8135L13525.1422,-3559.8169L13525.1476,-3559.8214L13525.1514,-3559.8265L13525.1536,-3559.8316L13525.1563,-3559.8345L13525.1593,-3559.8367L13525.1653,-3559.8396L13525.1712,-3559.845L13525.1758,-3559.8501L13525.1793,-3559.8539L13525.1822,-3559.8567L13525.1828,-3559.8598L13525.1827,-3559.8685L13525.1828,-3559.8776L13525.1844,-3559.8787L13525.1871,-3559.8791L13525.1926,-3559.8792L13525.1965,-3559.8788L13525.1995,-3559.8794L13525.2006,-3559.8806L13525.2013,-3559.8843L13525.2014,-3559.8908L13525.203,-3559.8943L13525.2077,-3559.8996L13525.2098,-3559.9001L13525.2113,-3559.8997L13525.2131,-3559.8987L13525.2137,-3559.8972L13525.2164,-3559.8933L13525.2181,-3559.8912L13525.2198,-3559.8901L13525.222,-3559.8901L13525.2237,-3559.8906L13525.2268,-3559.8934L13525.2309,-3559.8987L13525.2349,-3559.905L13525.2351,-3559.908L13525.2347,-3559.911L13525.2339,-3559.9132L13525.233,-3559.9184L13525.2328,-3559.9242L13525.2334,-3559.9282L13525.236,-3559.9324L13525.2398,-3559.9375L13525.2469,-3559.9448L13525.2537,-3559.9497L13525.259,-3559.9523L13525.2624,-3559.953L13525.2669,-3559.9524L13525.2715,-3559.9507L13525.2751,-3559.95L13525.2794,-3559.9491L13525.2855,-3559.9494L13525.2892,-3559.9497L13525.2917,-3559.9512L13525.2929,-3559.954L13525.2933,-3559.9592L13525.2934,-3559.9625L13525.2924,-3559.9654L13525.2923,-3559.9681L13525.2923,-3559.9682L13525.2922,-3559.9683L13525.2905,-3559.9712L13525.2896,-3559.9734L13525.2906,-3559.9759L13525.2924,-3559.9764L13525.2955,-3559.976L13525.2976,-3559.9755L13525.3003,-3559.9753L13525.3046,-3559.9754L13525.3089,-3559.9754L13525.3113,-3559.9752L13525.313,-3559.9743L13525.3146,-3559.9705L13525.3153,-3559.968L13525.3167,-3559.9657L13525.3191,-3559.9641L13525.3267,-3559.963L13525.3346,-3559.9608L13525.3413,-3559.9592L13525.3477,-3559.959L13525.3514,-3559.9598L13525.3526,-3559.9612L13525.3533,-3559.9631L13525.3525,-3559.9666L13525.3532,-3559.9753L13525.3533,-3559.9796L13525.3564,-3559.9823L13525.3607,-3559.9839L13525.3629,-3559.9844L13525.3644,-3559.9855L13525.3647,-3559.9875L13525.3657,-3559.9902L13525.3682,-3559.9917L13525.3709,-3559.9928L13525.3737,-3559.9926L13525.3743,-3559.9913L13525.3739,-3559.9874L13525.3735,-3559.9831L13525.3701,-3559.9768L13525.3688,-3559.9728L13525.3687,-3559.9678L13525.3707,-3559.9647L13525.3735,-3559.9626L13525.3767,-3559.9624L13525.3799,-3559.963L13525.3821,-3559.964L13525.3839,-3559.9655L13525.3849,-3559.9674L13525.3855,-3559.9698L13525.3862,-3559.9751L13525.3872,-3559.9803L13525.39,-3559.9808L13525.3918,-3559.9806L13525.3944,-3559.9782L13525.3963,-3559.9752L13525.3977,-3559.9732L13525.3998,-3559.9712L13525.4016,-3559.9702L13525.4039,-3559.9696L13525.4078,-3559.9699L13525.4121,-3559.9694L13525.4146,-3559.9695L13525.4167,-3559.9702L13525.4179,-3559.9717L13525.4195,-3559.9725L13525.4272,-3559.9729L13525.4336,-3559.972L13525.4406,-3559.9703L13525.4457,-3559.9679L13525.4481,-3559.9661L13525.4505,-3559.9625L13525.4532,-3559.9586L13525.4547,-3559.9556L13525.458,-3559.9507L13525.4614,-3559.9487L13525.4637,-3559.9472L13525.4655,-3559.9456L13525.4664,-3559.9433L13525.4669,-3559.9378L13525.4677,-3559.9333L13525.4745,-3559.9157L13525.4773,-3559.9141L13525.4802,-3559.9135L13525.4816,-3559.9143L13525.484,-3559.9151L13525.486,-3559.915L13525.4873,-3559.9144L13525.489,-3559.9134L13525.4893,-3559.9119L13525.4892,-3559.9097L13525.488,-3559.9073L13525.4859,-3559.9041L13525.4862,-3559.9025L13525.488,-3559.9002L13525.5166,-3559.8779L13525.5287,-3559.8728L13525.5324,-3559.8716L13525.537,-3559.8715L13525.5434,-3559.8721L13525.5486,-3559.8721L13525.5517,-3559.8714L13525.5535,-3559.87L13525.557,-3559.8625L13525.5606,-3559.8563L13525.5638,-3559.8543L13525.5666,-3559.8537L13525.5683,-3559.8546L13525.5711,-3559.8568L13525.5747,-3559.859L13525.5833,-3559.8604L13525.588,-3559.8607L13525.5918,-3559.8603L13525.5998,-3559.8584L13525.6053,-3559.856L13525.6113,-3559.8523L13525.6152,-3559.8498L13525.6181,-3559.8473L13525.6209,-3559.8435L13525.6229,-3559.8395L13525.6244,-3559.8354L13525.6256,-3559.8306L13525.6263,-3559.8256L13525.6263,-3559.8206L13525.626,-3559.8171L13525.6249,-3559.8145L13525.621,-3559.811L13525.613,-3559.8079L13525.6056,-3559.8043L13525.6031,-3559.8024L13525.6012,-3559.7988L13525.6004,-3559.7943L13525.601,-3559.7898L13525.6031,-3559.7847L13525.607,-3559.7796L13525.6112,-3559.7737L13525.6141,-3559.7698L13525.6168,-3559.767L13525.6187,-3559.7651L13525.6204,-3559.7626L13525.6205,-3559.7603L13525.6189,-3559.7557L13525.6161,-3559.7515L13525.6151,-3559.7475L13525.6142,-3559.7442L13525.6105,-3559.7348L13525.6091,-3559.7294L13525.6099,-3559.7267L13525.6126,-3559.7251L13525.6138,-3559.7236L13525.6148,-3559.7224L13525.6152,-3559.7209L13525.6138,-3559.7189L13525.6092,-3559.716L13525.6062,-3559.7133L13525.6053,-3559.7093L13525.6069,-3559.705L13525.6093,-3559.7021L13525.6119,-3559.6978L13525.613,-3559.6931L13525.6136,-3559.6887L13525.6164,-3559.6829L13525.6196,-3559.6793L13525.6256,-3559.6728L13525.6316,-3559.6653L13525.6344,-3559.6608L13525.6356,-3559.6567L13525.6354,-3559.6507L13525.6337,-3559.6456L13525.6306,-3559.6441L13525.6279,-3559.6439L13525.6205,-3559.6462L13525.6176,-3559.6463L13525.615,-3559.6445L13525.6129,-3559.643L13525.611,-3559.6407L13525.6116,-3559.6377L13525.613,-3559.6367L13525.6149,-3559.635L13525.6177,-3559.6325L13525.6193,-3559.6301L13525.6194,-3559.6277L13525.6189,-3559.6261L13525.6174,-3559.625L13525.6155,-3559.6246L13525.6136,-3559.6248L13525.6125,-3559.6229L13525.6139,-3559.6212L13525.6159,-3559.6202L13525.6217,-3559.6182L13525.6256,-3559.6169L13525.6273,-3559.6154L13525.6283,-3559.6137L13525.6282,-3559.6102L13525.6244,-3559.6073L13525.6165,-3559.6069L13525.6134,-3559.607L13525.6098,-3559.6069L13525.6065,-3559.6057L13525.605,-3559.6035L13525.605,-3559.6006L13525.6078,-3559.5977L13525.6126,-3559.5968L13525.6159,-3559.5952L13525.6183,-3559.5934L13525.6193,-3559.5913L13525.6186,-3559.5882L13525.6183,-3559.5864L13525.6161,-3559.5832L13525.6031,-3559.578L13525.6013,-3559.5754L13525.6025,-3559.5722L13525.6037,-3559.5703L13517.9038,-3559.5703L13517.9293,-3559.6108L13517.945,-3559.6346L13517.9562,-3559.6512L13517.9636,-3559.6631L13517.979,-3559.6816L13517.9856,-3559.6881L13518.0016,-3559.708L13518.0089,-3559.72L13518.0224,-3559.7435L13518.0341,-3559.7696L13518.036,-3559.7805L13518.0356,-3559.7859L13518.0323,-3559.7931L13518.0259,-3559.8068L13518.0211,-3559.8251L13518.0219,-3559.844L13518.0301,-3559.8614L13518.0498,-3559.8944L13518.0556,-3559.9082L13518.0624,-3559.9226L13518.0783,-3559.9491L13518.0894,-3559.9747L13518.0949,-3559.9983L13518.0954,-3560L13518.1067,-3560.0446L13518.1122,-3560.0919L13518.1146,-3560.1209L13518.1208,-3560.1576L13518.1289,-3560.1806L13518.1343,-3560.2018L13518.1331,-3560.2223L13518.1347,-3560.2341L13518.1408,-3560.2611L13518.1466,-3560.2826L13518.1563,-3560.2973L13518.1678,-3560.3204L13518.179,-3560.3409L13518.1923,-3560.3742L13518.1957,-3560.3912L13518.1988,-3560.4131L13518.2032,-3560.427L13518.2126,-3560.4566L13518.2174,-3560.4718L13518.2106,-3560.4776L13518.1959,-3560.4852L13518.1767,-3560.5074L13518.1723,-3560.5154L13518.1698,-3560.5258L13518.1686,-3560.5456L13518.1675,-3560.5514L13518.1606,-3560.5753L13518.1562,-3560.5893L13518.1294,-3560.623L13518.1174,-3560.6433L13518.1247,-3560.6514L13518.1345,-3560.6687L13518.1422,-3560.7003L13518.1441,-3560.7107L13518.162,-3560.7307L13518.1682,-3560.7501L13518.1731,-3560.7719L13518.1742,-3560.7852L13518.177,-3560.7984L13518.177,-3560.7985L13518.1839,-3560.8195L13518.1871,-3560.8333L13518.1899,-3560.8453L13518.1933,-3560.8654L13518.1966,-3560.8798L13518.1989,-3560.8926L13518.2058,-3560.9111L13518.2112,-3560.9261L13518.2125,-3560.9353L13518.2142,-3560.9506L13518.2153,-3560.9743L13518.2198,-3560.9861L13518.2303,-3561.0034L13518.2381,-3561.018L13518.2521,-3561.0606L13518.2572,-3561.0774L13518.2596,-3561.0979L13518.2643,-3561.1192L13518.2671,-3561.1304L13518.2686,-3561.1358L13518.2749,-3561.1546L13518.2758,-3561.1678L13518.2782,-3561.1761L13518.2813,-3561.1874L13518.2919,-3561.1935L13518.3015,-3561.1991L13518.3036,-3561.2228L13518.3046,-3561.2434L13518.3039,-3561.2562L13518.3024,-3561.2705L13518.3032,-3561.2853L13518.3041,-3561.3013L13518.3047,-3561.3059L13518.3092,-3561.3138L13518.3126,-3561.3191L13518.3206,-3561.3293L13518.3256,-3561.3426L13518.3259,-3561.3434L13518.3333,-3561.3621L13518.3336,-3561.3626L13518.3337,-3561.3824L13518.3333,-3561.3842L13518.331,-3561.3953L13518.3158,-3561.4114L13518.3112,-3561.4124L13518.2825,-3561.4208L13518.262,-3561.4268L13518.2402,-3561.4341L13518.2226,-3561.4387L13518.2046,-3561.4438L13518.1677,-3561.4438L13518.1463,-3561.4444L13518.121,-3561.4478L13518.1011,-3561.454L13518.0825,-3561.454L13518.0507,-3561.4478L13518.0264,-3561.4463L13518.0012,-3561.4495L13517.9961,-3561.4503L13517.9811,-3561.4528L13517.9203,-3561.4518L13517.87,-3561.447L13517.8523,-3561.4471L13517.8374,-3561.449L13517.8207,-3561.4563L13517.81,-3561.4654L13517.8036,-3561.4744L13517.8016,-3561.4814L13517.8014,-3561.489L13517.8047,-3561.5073L13517.8074,-3561.5262L13517.8092,-3561.5454L13517.8081,-3561.5616L13517.8069,-3561.5697L13517.8052,-3561.574L13517.7992,-3561.5895L13517.7835,-3561.6024L13517.7689,-3561.6162L13517.7497,-3561.6329L13517.7376,-3561.6463L13517.7294,-3561.6598L13517.7269,-3561.6631L13517.724,-3561.6667L13517.714,-3561.6795L13517.7101,-3561.6868L13517.7012,-3561.6928L13517.6836,-3561.6985L13517.6624,-3561.7053L13517.6518,-3561.71L13517.6251,-3561.7183L13517.6092,-3561.7242L13517.5944,-3561.7332L13517.5781,-3561.7423L13517.5781,-3565.5103L13517.5932,-3565.508L13517.608,-3565.5046L13517.6114,-3565.5042L13517.6145,-3565.5051L13517.6158,-3565.5086L13517.6157,-3565.5114L13517.6143,-3565.5174L13517.6093,-3565.5341L13517.6043,-3565.5498L13517.6048,-3565.557L13517.6053,-3565.5658L13517.6059,-3565.576L13517.6099,-3565.5975L13517.6125,-3565.6122L13517.6163,-3565.6283L13517.6203,-3565.6407L13517.6261,-3565.6501L13517.6324,-3565.6588L13517.6423,-3565.6719L13517.6553,-3565.6867L13517.6744,-3565.7036L13517.6835,-3565.7104L13517.6995,-3565.7199L13517.7101,-3565.7274L13517.7245,-3565.7394L13517.7374,-3565.7581L13517.7476,-3565.7733L13517.759,-3565.7874L13517.774,-3565.8116L13517.7916,-3565.8231L13517.8039,-3565.8311L13517.806,-3565.8333L13517.8075,-3565.8349L13517.8171,-3565.8478L13517.8236,-3565.8627L13517.827,-3565.8669L13517.8278,-3565.8704L13517.8274,-3565.8758L13517.8248,-3565.8802L13517.8155,-3565.8833L13517.8051,-3565.8867L13517.8047,-3565.893L13517.8057,-3565.8994L13517.8069,-3565.9045L13517.8097,-3565.9113L13517.8133,-3565.9206L13517.8211,-3565.9375L13517.8333,-3565.9475L13517.8407,-3565.9513L13517.8494,-3565.9543L13517.8684,-3565.9573L13517.8836,-3565.9609L13517.9009,-3565.9629L13517.9167,-3565.9662L13517.9236,-3565.9723L13517.9278,-3565.9924L13517.931,-3566.0109L13517.9314,-3566.0199L13517.9316,-3566.0324L13517.931,-3566.0403L13517.9266,-3566.0626L13517.9134,-3566.0947L13517.9059,-3566.1101L13517.891,-3566.123L13517.8767,-3566.1363L13517.8364,-3566.1701L13517.8247,-3566.1823L13517.8081,-3566.1917L13517.7889,-3566.1966L13517.7522,-3566.2022L13517.7308,-3566.2059L13517.7167,-3566.2141L13517.699,-3566.2221L13517.6975,-3566.2239L13517.6862,-3566.2384L13517.679,-3566.2476L13517.6786,-3566.2549L13517.6796,-3566.2609L13517.6828,-3566.2651L13517.688,-3566.2687L13517.6956,-3566.2717L13517.7124,-3566.2769L13517.7257,-3566.281L13517.7325,-3566.2838L13517.7415,-3566.2935L13517.7485,-3566.3009L13517.7614,-3566.3106L13517.7812,-3566.318L13517.7984,-3566.3247L13517.8043,-3566.3261L13517.8163,-3566.3313L13517.8187,-3566.3366L13517.8201,-3566.343L13517.8193,-3566.3502L13517.8181,-3566.3663L13517.8206,-3566.3807L13517.8211,-3566.3932L13517.8293,-3566.4067L13517.8396,-3566.4198L13517.8504,-3566.4286L13517.8578,-3566.434L13517.8657,-3566.4425L13517.8697,-3566.4521L13517.8719,-3566.4595L13517.8701,-3566.4749L13517.8667,-3566.4929L13517.8664,-3566.5134L13517.8683,-3566.5188L13517.8723,-3566.5268L13517.8781,-3566.5317L13517.8859,-3566.5366L13517.8985,-3566.5446L13517.9115,-3566.5583L13517.9208,-3566.5705L13517.9326,-3566.5824L13517.94,-3566.593L13517.9457,-3566.6028L13517.9516,-3566.6164L13517.9528,-3566.6292L13517.9538,-3566.6419L13517.9634,-3566.6633L13517.9643,-3566.6667L13517.9745,-3566.7038L13517.9797,-3566.7196L13517.9819,-3566.7259L13517.9833,-3566.7299L13517.9919,-3566.7441L13517.9971,-3566.7594L13517.9874,-3566.7661L13517.9741,-3566.7734L13517.9607,-3566.7818L13517.9517,-3566.789L13517.9484,-3566.7954L13517.9517,-3566.8069L13517.9601,-3566.8173L13517.9693,-3566.834L13517.9771,-3566.8463L13517.9813,-3566.8545L13517.9835,-3566.8639L13517.9835,-3566.8734L13517.9809,-3566.8846L13517.9775,-3566.8967L13517.9711,-3566.9281L13517.9711,-3566.9337L13517.9763,-3566.9415L13517.9896,-3566.9548L13517.9943,-3566.9608L13517.996,-3566.9662L13517.9984,-3566.9729L13517.9973,-3566.9812L13517.9959,-3567.0113L13517.9959,-3567.0273L13517.999,-3567.0386L13518.0024,-3567.0406L13518.0342,-3567.0314L13518.0991,-3567.0157L13518.1419,-3567.0075L13518.1801,-3566.9969L13518.2082,-3566.9812L13518.2227,-3566.9682L13518.243,-3566.9598L13518.2541,-3566.951L13518.2588,-3566.9421L13518.2773,-3566.9236L13518.294,-3566.9112L13518.3213,-3566.8927L13518.3333,-3566.8862L13518.3397,-3566.8829L13518.3615,-3566.8725L13518.3853,-3566.8676L13518.4351,-3566.8573L13518.4533,-3566.8472L13518.467,-3566.8319L13518.4718,-3566.8179L13518.4727,-3566.8072L13518.4736,-3566.7986L13518.4757,-3566.7903L13518.4787,-3566.7772L13518.4861,-3566.7595L13518.4941,-3566.7515L13518.4994,-3566.7473L13518.503,-3566.7463L13518.5125,-3566.7438L13518.533,-3566.7425L13518.5597,-3566.7453L13518.574,-3566.7465L13518.5963,-3566.7482L13518.6213,-3566.7471L13518.6473,-3566.744L13518.6614,-3566.7431L13518.6826,-3566.7436L13518.6951,-3566.7451L13518.7172,-3566.7497L13518.7365,-3566.7564L13518.7439,-3566.7608L13518.7704,-3566.7773L13518.7866,-3566.7867L13518.8,-3566.793L13518.8161,-3566.7977L13518.8345,-3566.8022L13518.8948,-3566.8208L13518.9082,-3566.8239L13518.9341,-3566.8304L13518.9532,-3566.8349L13518.9745,-3566.8374L13518.9972,-3566.8406L13519.0099,-3566.8431L13519.0237,-3566.8466L13519.0435,-3566.8502L13519.0658,-3566.8539L13519.0787,-3566.8567L13519.0896,-3566.8592L13519.1156,-3566.8679L13519.1217,-3566.8724L13519.1292,-3566.8802L13519.1342,-3566.8853L13519.1503,-3566.8952L13519.1601,-3566.898L13519.1667,-3566.8997L13519.176,-3566.9021L13519.1904,-3566.9038L13519.2109,-3566.9066L13519.2119,-3566.9068L13519.2228,-3566.9089L13519.2386,-3566.9189L13519.2533,-3566.9288L13519.2575,-3566.9344L13519.2611,-3566.9419L13519.2625,-3566.9446L13519.264,-3566.9475L13519.267,-3566.9507L13519.2711,-3566.9513L13519.2753,-3566.9499L13519.2901,-3566.9436L13519.3137,-3566.9359L13519.3327,-3566.9278L13519.3493,-3566.9165L13519.352,-3566.9147L13519.3667,-3566.8972L13519.3871,-3566.8753L13519.3921,-3566.87L13519.4087,-3566.8579L13519.4339,-3566.8419L13519.4433,-3566.8361L13519.4703,-3566.8133L13519.4777,-3566.8078L13519.4999,-3566.8043L13519.5199,-3566.7908L13519.5275,-3566.7834L13519.5384,-3566.7709L13519.5515,-3566.7481L13519.5639,-3566.73L13519.5703,-3566.7147L13519.5814,-3566.699L13519.5984,-3566.6667L13519.5991,-3566.6653L13519.6035,-3566.657L13519.6157,-3566.6398L13519.6276,-3566.6195L13519.6312,-3566.6112L13519.6329,-3566.5996L13519.6347,-3566.5892L13519.641,-3566.56L13519.6453,-3566.5433L13519.6487,-3566.5296L13519.6566,-3566.5148L13519.6644,-3566.4978L13519.6741,-3566.4759L13519.6809,-3566.4582L13519.6905,-3566.4458L13519.6975,-3566.4384L13519.7067,-3566.4321L13519.7169,-3566.4275L13519.7338,-3566.4236L13519.7551,-3566.4176L13519.7745,-3566.411L13519.7871,-3566.3911L13519.7912,-3566.3842L13519.8017,-3566.3795L13519.8076,-3566.3768L13519.8284,-3566.3699L13519.8624,-3566.3627L13519.8798,-3566.36L13519.8989,-3566.36L13519.9188,-3566.3572L13519.9586,-3566.3501L13519.9873,-3566.347L13520,-3566.3474L13520.007,-3566.3476L13520.0269,-3566.3464L13520.0517,-3566.3425L13520.0719,-3566.3362L13520.0859,-3566.3289L13520.1047,-3566.3208L13520.1206,-3566.3107L13520.1356,-3566.301L13520.1508,-3566.2872L13520.1588,-3566.2765L13520.1627,-3566.2716L13520.1698,-3566.2691L13520.1781,-3566.2671L13520.1921,-3566.2655L13520.2067,-3566.2679L13520.2245,-3566.2722L13520.2333,-3566.275L13520.2433,-3566.2793L13520.2499,-3566.2836L13520.2548,-3566.2868L13520.2617,-3566.2929L13520.2705,-3566.297L13520.2898,-3566.3007L13520.3167,-3566.3045L13520.3368,-3566.3089L13520.3513,-3566.3129L13520.3619,-3566.3181L13520.3707,-3566.3235L13520.3839,-3566.3361L13520.3894,-3566.3441L13520.3996,-3566.3568L13520.4159,-3566.3676L13520.4361,-3566.3729L13520.4563,-3566.3788L13520.4713,-3566.3828L13520.4846,-3566.3887L13520.4999,-3566.4024L13520.5152,-3566.4169L13520.5211,-3566.4232L13520.5254,-3566.4302L13520.5292,-3566.4405L13520.5315,-3566.4501L13520.5405,-3566.4671L13520.5481,-3566.4843L13520.5571,-3566.4989L13520.5713,-3566.511L13520.5793,-3566.5185L13520.5853,-3566.5241L13520.588,-3566.5292L13520.59,-3566.5384L13520.5924,-3566.5478L13520.5924,-3566.5479L13520.5914,-3566.5528L13520.5829,-3566.5671L13520.5737,-3566.5783L13520.5649,-3566.5876L13520.5619,-3566.5895L13520.5558,-3566.5933L13520.5439,-3566.6015L13520.5251,-3566.6146L13520.4965,-3566.6345L13520.479,-3566.6454L13520.4506,-3566.6667L13520.4283,-3566.6834L13520.4076,-3566.7004L13520.4009,-3566.715L13520.3987,-3566.7292L13520.3973,-3566.744L13520.3911,-3566.765L13520.3791,-3566.793L13520.3621,-3566.8199L13520.3493,-3566.8357L13520.3425,-3566.8476L13520.3348,-3566.8634L13520.3264,-3566.8902L13520.319,-3566.9103L13520.3156,-3566.9188L13520.3102,-3566.9289L13520.3055,-3566.9346L13520.2976,-3566.9401L13520.2775,-3566.9511L13520.2447,-3566.9744L13520.2352,-3566.9794L13520.2275,-3566.9812L13520.2149,-3566.9866L13520.194,-3566.9948L13520.1239,-3567.0239L13520.1034,-3567.0361L13520.084,-3567.0557L13520.0778,-3567.0671L13520.077,-3567.0848L13520.0717,-3567.1044L13520.0594,-3567.1193L13520.0454,-3567.1323L13520.0228,-3567.1468L13520.0081,-3567.1527L13520.0038,-3567.1559L13520,-3567.1586L13519.995,-3567.1621L13519.9803,-3567.1771L13519.9683,-3567.1959L13519.9314,-3567.2675L13519.911,-3567.3019L13519.8723,-3567.3558L13519.8359,-3567.3974L13519.8213,-3567.4198L13519.815,-3567.4424L13519.8154,-3567.449L13519.8219,-3567.4537L13519.8351,-3567.4654L13519.8609,-3567.4793L13519.8715,-3567.4854L13519.8834,-3567.4973L13519.8838,-3567.5L13519.8876,-3567.5254L13519.8901,-3567.5381L13519.8937,-3567.5479L13519.8974,-3567.5553L13519.9167,-3567.5746L13519.9273,-3567.5884L13519.9359,-3567.5999L13519.9417,-3567.6151L13519.97,-3567.6573L13520,-3567.6878L13520.0193,-3567.7074L13520.0585,-3567.7386L13520.0897,-3567.7603L13520.1009,-3567.7669L13520.1163,-3567.7775L13520.1341,-3567.7874L13520.1592,-3567.7972L13520.1703,-3567.7993L13520.1863,-3567.7997L13520.2063,-3567.7985L13520.2223,-3567.7989L13520.2354,-3567.8009L13520.2506,-3567.805L13520.2625,-3567.8091L13520.2768,-3567.8181L13520.281,-3567.821L13520.3084,-3567.8398L13520.3242,-3567.8534L13520.3469,-3567.8694L13520.3783,-3567.8939L13520.3951,-3567.9083L13520.3951,-3567.9165L13520.3909,-3567.9254L13520.3799,-3567.9495L13520.3676,-3567.9839L13520.3619,-3568.0391L13520.3643,-3568.0719L13520.3679,-3568.0826L13520.3721,-3568.0902L13520.3852,-3568.1016L13520.4262,-3568.1233L13520.4717,-3568.1405L13520.5033,-3568.1586L13520.5341,-3568.1858L13520.5601,-3568.2198L13520.569,-3568.2329L13520.5698,-3568.2419L13520.5677,-3568.2521L13520.546,-3568.3015L13520.5395,-3568.333L13520.5395,-3568.3333L13520.5403,-3568.3397L13520.5431,-3568.3412L13520.5519,-3568.3424L13520.5678,-3568.3441L13520.5845,-3568.3469L13520.5935,-3568.3522L13520.6046,-3568.3576L13520.6092,-3568.3594Z"/>
<path content="京都府,,,宮津市,,26205" xlink:title="京都府" d="M13525.3742,-3564.8448L13525.3663,-3564.841L13525.3632,-3564.8452L13525.4253,-3564.8754L13525.433,-3564.8792L13525.4355,-3564.8758L13525.3738,-3564.8456L13525.3742,-3564.8448Z"/>
<path content="京都府,,,宮津市,,26205" xlink:title="京都府" d="M13525.6474,-3559.6038L13525.6451,-3559.6034L13525.6431,-3559.6041L13525.6411,-3559.6052L13525.6368,-3559.6086L13525.6366,-3559.611L13525.6373,-3559.6138L13525.638,-3559.6172L13525.6389,-3559.6184L13525.6411,-3559.6191L13525.6441,-3559.6182L13525.6472,-3559.6168L13525.651,-3559.6145L13525.6506,-3559.6132L13525.6505,-3559.6103L13525.6494,-3559.6054L13525.6474,-3559.6038Z"/>
<path content="京都府,,,京丹後市,,26212" xlink:title="京都府" d="M13520.6092,-3568.3594L13520.6046,-3568.3576L13520.5935,-3568.3522L13520.5845,-3568.3469L13520.5678,-3568.3441L13520.5519,-3568.3424L13520.5431,-3568.3412L13520.5403,-3568.3397L13520.5395,-3568.3333L13520.5395,-3568.333L13520.546,-3568.3015L13520.5677,-3568.2521L13520.5698,-3568.2419L13520.569,-3568.2329L13520.5601,-3568.2198L13520.5341,-3568.1858L13520.5033,-3568.1586L13520.4717,-3568.1405L13520.4262,-3568.1233L13520.3852,-3568.1016L13520.3721,-3568.0902L13520.3679,-3568.0826L13520.3643,-3568.0719L13520.3619,-3568.0391L13520.3676,-3567.9839L13520.3799,-3567.9495L13520.3909,-3567.9254L13520.3951,-3567.9165L13520.3951,-3567.9083L13520.3783,-3567.8939L13520.3469,-3567.8694L13520.3242,-3567.8534L13520.3084,-3567.8398L13520.281,-3567.821L13520.2768,-3567.8181L13520.2625,-3567.8091L13520.2506,-3567.805L13520.2354,-3567.8009L13520.2223,-3567.7989L13520.2063,-3567.7985L13520.1863,-3567.7997L13520.1703,-3567.7993L13520.1592,-3567.7972L13520.1341,-3567.7874L13520.1163,-3567.7775L13520.1009,-3567.7669L13520.0897,-3567.7603L13520.0585,-3567.7386L13520.0193,-3567.7074L13520,-3567.6878L13519.97,-3567.6573L13519.9417,-3567.6151L13519.9359,-3567.5999L13519.9273,-3567.5884L13519.9167,-3567.5746L13519.8974,-3567.5553L13519.8937,-3567.5479L13519.8901,-3567.5381L13519.8876,-3567.5254L13519.8838,-3567.5L13519.8834,-3567.4973L13519.8715,-3567.4854L13519.8609,-3567.4793L13519.8351,-3567.4654L13519.8219,-3567.4537L13519.8154,-3567.449L13519.815,-3567.4424L13519.8213,-3567.4198L13519.8359,-3567.3974L13519.8723,-3567.3558L13519.911,-3567.3019L13519.9314,-3567.2675L13519.9683,-3567.1959L13519.9803,-3567.1771L13519.995,-3567.1621L13520,-3567.1586L13520.0038,-3567.1559L13520.0081,-3567.1527L13520.0228,-3567.1468L13520.0454,-3567.1323L13520.0594,-3567.1193L13520.0717,-3567.1044L13520.077,-3567.0848L13520.0778,-3567.0671L13520.084,-3567.0557L13520.1034,-3567.0361L13520.1239,-3567.0239L13520.194,-3566.9948L13520.2149,-3566.9866L13520.2275,-3566.9812L13520.2352,-3566.9794L13520.2447,-3566.9744L13520.2775,-3566.9511L13520.2976,-3566.9401L13520.3055,-3566.9346L13520.3102,-3566.9289L13520.3156,-3566.9188L13520.319,-3566.9103L13520.3264,-3566.8902L13520.3348,-3566.8634L13520.3425,-3566.8476L13520.3493,-3566.8357L13520.3621,-3566.8199L13520.3791,-3566.793L13520.3911,-3566.765L13520.3973,-3566.744L13520.3987,-3566.7292L13520.4009,-3566.715L13520.4076,-3566.7004L13520.4283,-3566.6834L13520.4506,-3566.6667L13520.479,-3566.6454L13520.4965,-3566.6345L13520.5251,-3566.6146L13520.5439,-3566.6015L13520.5558,-3566.5933L13520.5619,-3566.5895L13520.5649,-3566.5876L13520.5737,-3566.5783L13520.5829,-3566.5671L13520.5914,-3566.5528L13520.5924,-3566.5479L13520.5924,-3566.5478L13520.59,-3566.5384L13520.588,-3566.5292L13520.5853,-3566.5241L13520.5793,-3566.5185L13520.5713,-3566.511L13520.5571,-3566.4989L13520.5481,-3566.4843L13520.5405,-3566.4671L13520.5315,-3566.4501L13520.5292,-3566.4405L13520.5254,-3566.4302L13520.5211,-3566.4232L13520.5152,-3566.4169L13520.4999,-3566.4024L13520.4846,-3566.3887L13520.4713,-3566.3828L13520.4563,-3566.3788L13520.4361,-3566.3729L13520.4159,-3566.3676L13520.3996,-3566.3568L13520.3894,-3566.3441L13520.3839,-3566.3361L13520.3707,-3566.3235L13520.3619,-3566.3181L13520.3513,-3566.3129L13520.3368,-3566.3089L13520.3167,-3566.3045L13520.2898,-3566.3007L13520.2705,-3566.297L13520.2617,-3566.2929L13520.2548,-3566.2868L13520.2499,-3566.2836L13520.2433,-3566.2793L13520.2333,-3566.275L13520.2245,-3566.2722L13520.2067,-3566.2679L13520.1921,-3566.2655L13520.1781,-3566.2671L13520.1698,-3566.2691L13520.1627,-3566.2716L13520.1588,-3566.2765L13520.1508,-3566.2872L13520.1356,-3566.301L13520.1206,-3566.3107L13520.1047,-3566.3208L13520.0859,-3566.3289L13520.0719,-3566.3362L13520.0517,-3566.3425L13520.0269,-3566.3464L13520.007,-3566.3476L13520,-3566.3474L13519.9873,-3566.347L13519.9586,-3566.3501L13519.9188,-3566.3572L13519.8989,-3566.36L13519.8798,-3566.36L13519.8624,-3566.3627L13519.8284,-3566.3699L13519.8076,-3566.3768L13519.8017,-3566.3795L13519.7912,-3566.3842L13519.7871,-3566.3911L13519.7745,-3566.411L13519.7551,-3566.4176L13519.7338,-3566.4236L13519.7169,-3566.4275L13519.7067,-3566.4321L13519.6975,-3566.4384L13519.6905,-3566.4458L13519.6809,-3566.4582L13519.6741,-3566.4759L13519.6644,-3566.4978L13519.6566,-3566.5148L13519.6487,-3566.5296L13519.6453,-3566.5433L13519.641,-3566.56L13519.6347,-3566.5892L13519.6329,-3566.5996L13519.6312,-3566.6112L13519.6276,-3566.6195L13519.6157,-3566.6398L13519.6035,-3566.657L13519.5991,-3566.6653L13519.5984,-3566.6667L13519.5814,-3566.699L13519.5703,-3566.7147L13519.5639,-3566.73L13519.5515,-3566.7481L13519.5384,-3566.7709L13519.5275,-3566.7834L13519.5199,-3566.7908L13519.4999,-3566.8043L13519.4777,-3566.8078L13519.4703,-3566.8133L13519.4433,-3566.8361L13519.4339,-3566.8419L13519.4087,-3566.8579L13519.3921,-3566.87L13519.3871,-3566.8753L13519.3667,-3566.8972L13519.352,-3566.9147L13519.3493,-3566.9165L13519.3327,-3566.9278L13519.3137,-3566.9359L13519.2901,-3566.9436L13519.2753,-3566.9499L13519.2711,-3566.9513L13519.267,-3566.9507L13519.264,-3566.9475L13519.2625,-3566.9446L13519.2611,-3566.9419L13519.2575,-3566.9344L13519.2533,-3566.9288L13519.2386,-3566.9189L13519.2228,-3566.9089L13519.2119,-3566.9068L13519.2109,-3566.9066L13519.1904,-3566.9038L13519.176,-3566.9021L13519.1667,-3566.8997L13519.1601,-3566.898L13519.1503,-3566.8952L13519.1342,-3566.8853L13519.1292,-3566.8802L13519.1217,-3566.8724L13519.1156,-3566.8679L13519.0896,-3566.8592L13519.0787,-3566.8567L13519.0658,-3566.8539L13519.0435,-3566.8502L13519.0237,-3566.8466L13519.0099,-3566.8431L13518.9972,-3566.8406L13518.9745,-3566.8374L13518.9532,-3566.8349L13518.9341,-3566.8304L13518.9082,-3566.8239L13518.8948,-3566.8208L13518.8345,-3566.8022L13518.8161,-3566.7977L13518.8,-3566.793L13518.7866,-3566.7867L13518.7704,-3566.7773L13518.7439,-3566.7608L13518.7365,-3566.7564L13518.7172,-3566.7497L13518.6951,-3566.7451L13518.6826,-3566.7436L13518.6614,-3566.7431L13518.6473,-3566.744L13518.6213,-3566.7471L13518.5963,-3566.7482L13518.574,-3566.7465L13518.5597,-3566.7453L13518.533,-3566.7425L13518.5125,-3566.7438L13518.503,-3566.7463L13518.4994,-3566.7473L13518.4941,-3566.7515L13518.4861,-3566.7595L13518.4787,-3566.7772L13518.4757,-3566.7903L13518.4736,-3566.7986L13518.4727,-3566.8072L13518.4718,-3566.8179L13518.467,-3566.8319L13518.4533,-3566.8472L13518.4351,-3566.8573L13518.3853,-3566.8676L13518.3615,-3566.8725L13518.3397,-3566.8829L13518.3333,-3566.8862L13518.3213,-3566.8927L13518.294,-3566.9112L13518.2773,-3566.9236L13518.2588,-3566.9421L13518.2541,-3566.951L13518.243,-3566.9598L13518.2227,-3566.9682L13518.2082,-3566.9812L13518.1801,-3566.9969L13518.1419,-3567.0075L13518.0991,-3567.0157L13518.0342,-3567.0314L13518.0024,-3567.0406L13517.999,-3567.0386L13517.9959,-3567.0273L13517.9959,-3567.0113L13517.9973,-3566.9812L13517.9984,-3566.9729L13517.996,-3566.9662L13517.9943,-3566.9608L13517.9896,-3566.9548L13517.9763,-3566.9415L13517.9711,-3566.9337L13517.9711,-3566.9281L13517.9775,-3566.8967L13517.9809,-3566.8846L13517.9835,-3566.8734L13517.9835,-3566.8639L13517.9813,-3566.8545L13517.9771,-3566.8463L13517.9693,-3566.834L13517.9601,-3566.8173L13517.9517,-3566.8069L13517.9484,-3566.7954L13517.9517,-3566.789L13517.9607,-3566.7818L13517.9741,-3566.7734L13517.9874,-3566.7661L13517.9971,-3566.7594L13517.9919,-3566.7441L13517.9833,-3566.7299L13517.9819,-3566.7259L13517.9797,-3566.7196L13517.9745,-3566.7038L13517.9643,-3566.6667L13517.9634,-3566.6633L13517.9538,-3566.6419L13517.9528,-3566.6292L13517.9516,-3566.6164L13517.9457,-3566.6028L13517.94,-3566.593L13517.9326,-3566.5824L13517.9208,-3566.5705L13517.9115,-3566.5583L13517.8985,-3566.5446L13517.8859,-3566.5366L13517.8781,-3566.5317L13517.8723,-3566.5268L13517.8683,-3566.5188L13517.8664,-3566.5134L13517.8667,-3566.4929L13517.8701,-3566.4749L13517.8719,-3566.4595L13517.8697,-3566.4521L13517.8657,-3566.4425L13517.8578,-3566.434L13517.8504,-3566.4286L13517.8396,-3566.4198L13517.8293,-3566.4067L13517.8211,-3566.3932L13517.8206,-3566.3807L13517.8181,-3566.3663L13517.8193,-3566.3502L13517.8201,-3566.343L13517.8187,-3566.3366L13517.8163,-3566.3313L13517.8043,-3566.3261L13517.7984,-3566.3247L13517.7812,-3566.318L13517.7614,-3566.3106L13517.7485,-3566.3009L13517.7415,-3566.2935L13517.7325,-3566.2838L13517.7257,-3566.281L13517.7124,-3566.2769L13517.6956,-3566.2717L13517.688,-3566.2687L13517.6828,-3566.2651L13517.6796,-3566.2609L13517.6786,-3566.2549L13517.679,-3566.2476L13517.6862,-3566.2384L13517.6975,-3566.2239L13517.699,-3566.2221L13517.7167,-3566.2141L13517.7308,-3566.2059L13517.7522,-3566.2022L13517.7889,-3566.1966L13517.8081,-3566.1917L13517.8247,-3566.1823L13517.8364,-3566.1701L13517.8767,-3566.1363L13517.891,-3566.123L13517.9059,-3566.1101L13517.9134,-3566.0947L13517.9266,-3566.0626L13517.931,-3566.0403L13517.9316,-3566.0324L13517.9314,-3566.0199L13517.931,-3566.0109L13517.9278,-3565.9924L13517.9236,-3565.9723L13517.9167,-3565.9662L13517.9009,-3565.9629L13517.8836,-3565.9609L13517.8684,-3565.9573L13517.8494,-3565.9543L13517.8407,-3565.9513L13517.8333,-3565.9475L13517.8211,-3565.9375L13517.8133,-3565.9206L13517.8097,-3565.9113L13517.8069,-3565.9045L13517.8057,-3565.8994L13517.8047,-3565.893L13517.8051,-3565.8867L13517.8155,-3565.8833L13517.8248,-3565.8802L13517.8274,-3565.8758L13517.8278,-3565.8704L13517.827,-3565.8669L13517.8236,-3565.8627L13517.8171,-3565.8478L13517.8075,-3565.8349L13517.806,-3565.8333L13517.8039,-3565.8311L13517.7916,-3565.8231L13517.774,-3565.8116L13517.759,-3565.7874L13517.7476,-3565.7733L13517.7374,-3565.7581L13517.7245,-3565.7394L13517.7101,-3565.7274L13517.6995,-3565.7199L13517.6835,-3565.7104L13517.6744,-3565.7036L13517.6553,-3565.6867L13517.6423,-3565.6719L13517.6324,-3565.6588L13517.6261,-3565.6501L13517.6203,-3565.6407L13517.6163,-3565.6283L13517.6125,-3565.6122L13517.6099,-3565.5975L13517.6059,-3565.576L13517.6053,-3565.5658L13517.6048,-3565.557L13517.6043,-3565.5498L13517.6093,-3565.5341L13517.6143,-3565.5174L13517.6157,-3565.5114L13517.6158,-3565.5086L13517.6145,-3565.5051L13517.6114,-3565.5042L13517.608,-3565.5046L13517.5932,-3565.508L13517.5781,-3565.5103L13517.5781,-3561.7423L13517.5944,-3561.7332L13517.6092,-3561.7242L13517.6251,-3561.7183L13517.6518,-3561.71L13517.6624,-3561.7053L13517.6836,-3561.6985L13517.7012,-3561.6928L13517.7101,-3561.6868L13517.714,-3561.6795L13517.724,-3561.6667L13517.7269,-3561.6631L13517.7294,-3561.6598L13517.7376,-3561.6463L13517.7497,-3561.6329L13517.7689,-3561.6162L13517.7835,-3561.6024L13517.7992,-3561.5895L13517.8052,-3561.574L13517.8069,-3561.5697L13517.8081,-3561.5616L13517.8092,-3561.5454L13517.8074,-3561.5262L13517.8047,-3561.5073L13517.8014,-3561.489L13517.8016,-3561.4814L13517.8036,-3561.4744L13517.81,-3561.4654L13517.8207,-3561.4563L13517.8374,-3561.449L13517.8523,-3561.4471L13517.87,-3561.447L13517.9203,-3561.4518L13517.9811,-3561.4528L13517.9961,-3561.4503L13518.0012,-3561.4495L13518.0264,-3561.4463L13518.0507,-3561.4478L13518.0825,-3561.454L13518.1011,-3561.454L13518.121,-3561.4478L13518.1463,-3561.4444L13518.1677,-3561.4438L13518.2046,-3561.4438L13518.2226,-3561.4387L13518.2402,-3561.4341L13518.262,-3561.4268L13518.2825,-3561.4208L13518.3112,-3561.4124L13518.3158,-3561.4114L13518.331,-3561.3953L13518.3333,-3561.3842L13518.3337,-3561.3824L13518.3336,-3561.3626L13518.3333,-3561.3621L13518.3259,-3561.3434L13518.3256,-3561.3426L13518.3206,-3561.3293L13518.3126,-3561.3191L13518.3092,-3561.3138L13518.3047,-3561.3059L13518.3041,-3561.3013L13518.3032,-3561.2853L13518.3024,-3561.2705L13518.3039,-3561.2562L13518.3046,-3561.2434L13518.3036,-3561.2228L13518.3015,-3561.1991L13518.2919,-3561.1935L13518.2813,-3561.1874L13518.2782,-3561.1761L13518.2758,-3561.1678L13518.2749,-3561.1546L13518.2686,-3561.1358L13518.2671,-3561.1304L13518.2643,-3561.1192L13518.2596,-3561.0979L13518.2572,-3561.0774L13518.2521,-3561.0606L13518.2381,-3561.018L13518.2303,-3561.0034L13518.2198,-3560.9861L13518.2153,-3560.9743L13518.2142,-3560.9506L13518.2125,-3560.9353L13518.2112,-3560.9261L13518.2058,-3560.9111L13518.1989,-3560.8926L13518.1966,-3560.8798L13518.1933,-3560.8654L13518.1899,-3560.8453L13518.1871,-3560.8333L13518.1839,-3560.8195L13518.177,-3560.7985L13518.177,-3560.7984L13518.1742,-3560.7852L13518.1731,-3560.7719L13518.1682,-3560.7501L13518.162,-3560.7307L13518.1441,-3560.7107L13518.1422,-3560.7003L13518.1345,-3560.6687L13518.1247,-3560.6514L13518.1174,-3560.6433L13518.1024,-3560.6349L13518.0808,-3560.6256L13518.0649,-3560.6211L13517.9551,-3560.6273L13517.9286,-3560.6276L13517.9053,-3560.6269L13517.8776,-3560.6234L13517.8667,-3560.6206L13517.8395,-3560.6203L13517.8232,-3560.6203L13517.8027,-3560.6207L13517.7751,-3560.6265L13517.7654,-3560.6316L13517.7475,-3560.644L13517.7323,-3560.6634L13517.7211,-3560.6824L13517.7166,-3560.6875L13517.7088,-3560.6918L13517.6957,-3560.6969L13517.6837,-3560.699L13517.6714,-3560.7021L13517.6282,-3560.7115L13517.608,-3560.7159L13517.599,-3560.7164L13517.5781,-3560.7168L13517.5781,-3568.3594Z"/>
<path content="京都府,,与謝郡,与謝野町,,26465" xlink:title="京都府" d="M13517.7323,-3560.6634L13517.7475,-3560.644L13517.7654,-3560.6316L13517.7751,-3560.6265L13517.8027,-3560.6207L13517.8232,-3560.6203L13517.8395,-3560.6203L13517.8667,-3560.6206L13517.8776,-3560.6234L13517.9053,-3560.6269L13517.9286,-3560.6276L13517.9551,-3560.6273L13518.0649,-3560.6211L13518.0808,-3560.6256L13518.1024,-3560.6349L13518.1174,-3560.6433L13518.1294,-3560.623L13518.1562,-3560.5893L13518.1606,-3560.5753L13518.1675,-3560.5514L13518.1686,-3560.5456L13518.1698,-3560.5258L13518.1723,-3560.5154L13518.1767,-3560.5074L13518.1959,-3560.4852L13518.2106,-3560.4776L13518.2174,-3560.4718L13518.2126,-3560.4566L13518.2032,-3560.427L13518.1988,-3560.4131L13518.1957,-3560.3912L13518.1923,-3560.3742L13518.179,-3560.3409L13518.1678,-3560.3204L13518.1563,-3560.2973L13518.1466,-3560.2826L13518.1408,-3560.2611L13518.1347,-3560.2341L13518.1331,-3560.2223L13518.1343,-3560.2018L13518.1289,-3560.1806L13518.1208,-3560.1576L13518.1146,-3560.1209L13518.1122,-3560.0919L13518.1067,-3560.0446L13518.0954,-3560L13518.0949,-3559.9983L13518.0894,-3559.9747L13518.0783,-3559.9491L13518.0624,-3559.9226L13518.0556,-3559.9082L13518.0498,-3559.8944L13518.0301,-3559.8614L13518.0219,-3559.844L13518.0211,-3559.8251L13518.0259,-3559.8068L13518.0323,-3559.7931L13518.0356,-3559.7859L13518.036,-3559.7805L13518.0341,-3559.7696L13518.0224,-3559.7435L13518.0089,-3559.72L13518.0016,-3559.708L13517.9856,-3559.6881L13517.979,-3559.6816L13517.9636,-3559.6631L13517.9562,-3559.6512L13517.945,-3559.6346L13517.9293,-3559.6108L13517.9038,-3559.5703L13517.5781,-3559.5703L13517.5781,-3560.7168L13517.599,-3560.7164L13517.608,-3560.7159L13517.6282,-3560.7115L13517.6714,-3560.7021L13517.6837,-3560.699L13517.6957,-3560.6969L13517.7088,-3560.6918L13517.7166,-3560.6875L13517.7211,-3560.6824L13517.7323,-3560.6634Z"/>
</g>
</svg>
