<?xml version="1.0" encoding="UTF-8"?>
<svg  xmlns="http://www.w3.org/2000/svg" xmlns:xlink="http://www.w3.org/1999/xlink" xmlns:go="http://purl.org/svgmap/profile" property="geometry,N03_001,N03_002,N03_003,N03_004,N03_005,N03_007" viewBox="13548.33984375 -3357.421875 4.39453125 4.39453125" go:dataArea="13548.33984375 -3357.421875 4.39453125 4.39453125" >
<metadata>
 <rdf:RDF xmlns:rdf="http://www.w3.org/1999/02/22-rdf-syntax-ns#" xmlns:crs="http://opengis.org/xmldtds/transformations.dtd" xmlns:svg="http://www.w3.org/svg" >
  <rdf:Description>
   <crs:CoordinateReferenceSystem rdf:resource="http://purl.org/crs/84" svg:transform="matrix(100.0,0.0,0.0,-100.0,0.0,0.0)" />
  </rdf:Description>
 </rdf:RDF>
</metadata>
<globalCoordinateSystem srsName="http://purl.org/crs/84" transform="matrix(100.0,0.0,0.0,-100.0,0.0,0.0)" />
<defs>
 <g id="p0" >
  <circle cx="0.0" cy="0.0" r="3" stroke="green" stroke-width="2.0" vector-effect="non-scaling-stroke" />
 </g>
</defs>
<g fill="#0000ff" fill-rule="evenodd" opacity="0.5" >
<path content="和歌山県,,西牟婁郡,すさみ町,,30406" xlink:title="和歌山県" d="M13552.7344,-3357.4219L13552.7344,-3353.0273L13551.443,-3353.0273L13551.4421,-3353.0379L13551.4419,-3353.0504L13551.4426,-3353.0596L13551.4453,-3353.0744L13551.4481,-3353.0896L13551.4489,-3353.1027L13551.4489,-3353.1091L13551.4476,-3353.1162L13551.4441,-3353.1265L13551.4393,-3353.1376L13551.4347,-3353.1455L13551.4253,-3353.1584L13551.412,-3353.1728L13551.4067,-3353.178L13551.4021,-3353.1827L13551.3952,-3353.1885L13551.3914,-3353.1921L13551.3875,-3353.1944L13551.3845,-3353.1937L13551.3845,-3353.1907L13551.3811,-3353.1889L13551.3783,-3353.1878L13551.372,-3353.1899L13551.3643,-3353.1956L13551.3595,-3353.1996L13551.357,-3353.2045L13551.3562,-3353.2092L13551.3506,-3353.2118L13551.3488,-3353.2115L13551.35,-3353.2097L13551.3499,-3353.2069L13551.3486,-3353.2057L13551.3424,-3353.2073L13551.3386,-3353.2079L13551.3347,-3353.2111L13551.3313,-3353.2133L13551.3278,-3353.2142L13551.3277,-3353.2127L13551.3295,-3353.2095L13551.329,-3353.2072L13551.3239,-3353.2075L13551.3193,-3353.2088L13551.312,-3353.2132L13551.3065,-3353.2175L13551.3009,-3353.225L13551.2973,-3353.2294L13551.2963,-3353.2315L13551.2972,-3353.2329L13551.3025,-3353.2346L13551.3061,-3353.2353L13551.3067,-3353.2371L13551.3029,-3353.2416L13551.2992,-3353.2423L13551.2956,-3353.2417L13551.292,-3353.2399L13551.288,-3353.2398L13551.277,-3353.2415L13551.2723,-3353.243L13551.2677,-3353.2437L13551.2604,-3353.2442L13551.2563,-3353.2459L13551.2561,-3353.248L13551.2582,-3353.2497L13551.2618,-3353.2509L13551.2658,-3353.251L13551.2657,-3353.252L13551.2633,-3353.2528L13551.259,-3353.2532L13551.2565,-3353.2544L13551.2555,-3353.2576L13551.2561,-3353.2627L13551.2559,-3353.2651L13551.2529,-3353.269L13551.2523,-3353.2713L13551.2532,-3353.2739L13551.2504,-3353.2806L13551.2491,-3353.2834L13551.2453,-3353.2873L13551.2384,-3353.2912L13551.2326,-3353.2941L13551.2283,-3353.2952L13551.2247,-3353.2977L13551.2238,-3353.3001L13551.2246,-3353.3032L13551.2256,-3353.306L13551.224,-3353.3102L13551.2216,-3353.3111L13551.2194,-3353.3109L13551.2151,-3353.3085L13551.2087,-3353.3059L13551.2007,-3353.3015L13551.1966,-3353.3006L13551.1947,-3353.3012L13551.1934,-3353.3018L13551.1921,-3353.3035L13551.1888,-3353.3052L13551.1853,-3353.3079L13551.1838,-3353.3089L13551.184,-3353.311L13551.1865,-3353.3134L13551.189,-3353.3168L13551.1904,-3353.3185L13551.1864,-3353.3218L13551.1855,-3353.3226L13551.1827,-3353.3224L13551.1783,-3353.32L13551.1712,-3353.315L13551.1692,-3353.3132L13551.1636,-3353.3113L13551.1599,-3353.3101L13551.1579,-3353.31L13551.1546,-3353.3121L13551.1527,-3353.314L13551.1535,-3353.3163L13551.1553,-3353.3192L13551.1576,-3353.3221L13551.1572,-3353.3236L13551.1552,-3353.3249L13551.1525,-3353.3247L13551.1481,-3353.3215L13551.1456,-3353.3204L13551.1434,-3353.3206L13551.1413,-3353.3203L13551.1396,-3353.3176L13551.1377,-3353.3169L13551.132,-3353.3195L13551.1269,-3353.3211L13551.1224,-3353.3239L13551.1177,-3353.3294L13551.1164,-3353.3324L13551.1166,-3353.3333L13551.1166,-3353.3345L13551.1135,-3353.3399L13551.1148,-3353.3427L13551.1202,-3353.346L13551.1222,-3353.3487L13551.1227,-3353.3511L13551.1248,-3353.3523L13551.1304,-3353.3526L13551.1311,-3353.3547L13551.1302,-3353.357L13551.1278,-3353.3592L13551.1276,-3353.3624L13551.1285,-3353.3654L13551.1298,-3353.3674L13551.129,-3353.3716L13551.1267,-3353.377L13551.1227,-3353.3841L13551.1132,-3353.3949L13551.1004,-3353.4068L13551.0929,-3353.4122L13551.0874,-3353.4145L13551.0838,-3353.4149L13551.0808,-3353.4139L13551.0788,-3353.4144L13551.0762,-3353.4151L13551.0709,-3353.4229L13551.067,-3353.4235L13551.0607,-3353.4262L13551.0563,-3353.4274L13551.0432,-3353.4248L13551.0382,-3353.4226L13551.0379,-3353.417L13551.0368,-3353.4142L13551.0335,-3353.4132L13551.03,-3353.4123L13551.0263,-3353.4128L13551.0248,-3353.4153L13551.0212,-3353.4182L13551.0165,-3353.4209L13551.0134,-3353.4216L13551.0117,-3353.4213L13551.0138,-3353.4154L13551.0128,-3353.4145L13551.0082,-3353.4129L13551.0055,-3353.4153L13551.002,-3353.416L13550.9999,-3353.4145L13551.0007,-3353.4117L13551.0022,-3353.4092L13551.0108,-3353.4085L13551.0157,-3353.4071L13551.0165,-3353.4053L13551.0119,-3353.4024L13551.0058,-3353.402L13550.9987,-3353.4006L13550.9934,-3353.4009L13550.9898,-3353.4026L13550.9903,-3353.4043L13550.9934,-3353.4067L13550.9934,-3353.4082L13550.9856,-3353.4071L13550.9796,-3353.4047L13550.9784,-3353.4074L13550.9783,-3353.4108L13550.9817,-3353.4139L13550.986,-3353.4167L13550.9867,-3353.4198L13550.984,-3353.4208L13550.9766,-3353.4189L13550.9724,-3353.4179L13550.9686,-3353.4176L13550.9667,-3353.4216L13550.9669,-3353.4278L13550.9661,-3353.4319L13550.9667,-3353.4342L13550.971,-3353.4397L13550.974,-3353.4421L13550.9757,-3353.4438L13550.9799,-3353.4428L13550.9828,-3353.4402L13550.9857,-3353.4402L13550.9881,-3353.4426L13550.9881,-3353.4453L13550.9895,-3353.4483L13550.9936,-3353.4499L13550.9972,-3353.4494L13550.9985,-3353.4509L13551.0015,-3353.4529L13551.0051,-3353.4513L13551.008,-3353.4531L13551.0175,-3353.4621L13551.0231,-3353.4654L13551.026,-3353.4658L13551.0284,-3353.4645L13551.0299,-3353.4672L13551.0322,-3353.4696L13551.0375,-3353.4717L13551.0423,-3353.4738L13551.0431,-3353.4762L13551.042,-3353.4787L13551.0376,-3353.4817L13551.0293,-3353.4861L13551.0189,-3353.4908L13551.0052,-3353.4953L13550.9959,-3353.4984L13550.9784,-3353.5062L13550.9634,-3353.5129L13550.9549,-3353.516L13550.9449,-3353.5177L13550.9419,-3353.5179L13550.9393,-3353.5166L13550.9347,-3353.5164L13550.9302,-3353.5176L13550.9185,-3353.5239L13550.9077,-3353.5302L13550.8989,-3353.5339L13550.8905,-3353.5363L13550.8792,-3353.5384L13550.8692,-3353.5399L13550.8608,-3353.5407L13550.8548,-3353.5405L13550.8447,-3353.5395L13550.8333,-3353.5381L13550.8253,-3353.5373L13550.8156,-3353.5364L13550.8082,-3353.5355L13550.8055,-3353.5359L13550.8014,-3353.5395L13550.7966,-3353.541L13550.7883,-3353.5415L13550.7718,-3353.5396L13550.7674,-3353.5383L13550.7649,-3353.5348L13550.7607,-3353.5315L13550.7556,-3353.5292L13550.7496,-3353.5281L13550.7482,-3353.5294L13550.7459,-3353.5307L13550.7428,-3353.5291L13550.7396,-3353.5303L13550.7375,-3353.533L13550.7341,-3353.5333L13550.7329,-3353.5301L13550.7299,-3353.5268L13550.7248,-3353.527L13550.7186,-3353.5271L13550.7164,-3353.5266L13550.7157,-3353.5243L13550.7118,-3353.5247L13550.7104,-3353.5276L13550.7051,-3353.5292L13550.6986,-3353.5289L13550.6938,-3353.5304L13550.6912,-3353.5296L13550.6884,-3353.529L13550.6806,-3353.5229L13550.6764,-3353.5242L13550.6762,-3353.5269L13550.6768,-3353.5295L13550.6749,-3353.53L13550.6723,-3353.528L13550.6703,-3353.529L13550.6664,-3353.5263L13550.6647,-3353.5276L13550.6628,-3353.5304L13550.6591,-3353.5325L13550.6581,-3353.5313L13550.6561,-3353.5302L13550.6523,-3353.5326L13550.6512,-3353.5302L13550.6452,-3353.532L13550.6431,-3353.5335L13550.6424,-3353.5366L13550.642,-3353.5382L13550.6385,-3353.5389L13550.6357,-3353.5415L13550.6321,-3353.5407L13550.6265,-3353.5409L13550.6227,-3353.5439L13550.6185,-3353.5452L13550.6164,-3353.5483L13550.6141,-3353.5509L13550.6121,-3353.5485L13550.6113,-3353.5465L13550.6076,-3353.5472L13550.6065,-3353.5496L13550.6038,-3353.5514L13550.6001,-3353.5501L13550.5973,-3353.5508L13550.5952,-3353.5524L13550.5941,-3353.5552L13550.5918,-3353.5535L13550.5883,-3353.552L13550.5827,-3353.5536L13550.5785,-3353.5562L13550.5758,-3353.5554L13550.5762,-3353.5524L13550.5726,-3353.5531L13550.571,-3353.5511L13550.5734,-3353.5493L13550.5786,-3353.5479L13550.5796,-3353.5466L13550.5768,-3353.5453L13550.5727,-3353.5454L13550.5679,-3353.5448L13550.5604,-3353.5455L13550.5595,-3353.5449L13550.5603,-3353.5428L13550.5592,-3353.5424L13550.5551,-3353.5429L13550.551,-3353.5476L13550.5448,-3353.5508L13550.5413,-3353.5515L13550.5365,-3353.5504L13550.5303,-3353.5511L13550.5277,-3353.5513L13550.5266,-3353.554L13550.5254,-3353.5561L13550.5236,-3353.5556L13550.5188,-3353.5551L13550.5136,-3353.5588L13550.5102,-3353.5604L13550.5047,-3353.5584L13550.4993,-3353.5576L13550.4977,-3353.5591L13550.4931,-3353.5593L13550.4902,-3353.5603L13550.4848,-3353.561L13550.48,-3353.5615L13550.475,-3353.5657L13550.4661,-3353.5672L13550.4619,-3353.568L13550.4599,-3353.5657L13550.455,-3353.5642L13550.454,-3353.5613L13550.4537,-3353.56L13550.4487,-3353.5615L13550.4435,-3353.5639L13550.4425,-3353.566L13550.445,-3353.5679L13550.4444,-3353.5699L13550.4409,-3353.573L13550.4302,-3353.5727L13550.4321,-3353.5696L13550.431,-3353.5672L13550.4274,-3353.5656L13550.431,-3353.5626L13550.4308,-3353.5608L13550.4288,-3353.5584L13550.4262,-3353.558L13550.4308,-3353.5534L13550.4307,-3353.5512L13550.4317,-3353.5488L13550.432,-3353.5454L13550.4272,-3353.5421L13550.424,-3353.5406L13550.4184,-3353.542L13550.4153,-3353.5419L13550.4115,-3353.5389L13550.4086,-3353.5351L13550.4053,-3353.5346L13550.4016,-3353.5366L13550.3959,-3353.5437L13550.3938,-3353.5492L13550.3945,-3353.5517L13550.4009,-3353.5566L13550.4022,-3353.5589L13550.4,-3353.5605L13550.3952,-3353.5598L13550.3916,-3353.5598L13550.3872,-3353.5581L13550.3883,-3353.5538L13550.3876,-3353.5515L13550.3831,-3353.5564L13550.3809,-3353.5604L13550.3781,-3353.5641L13550.3794,-3353.5658L13550.3783,-3353.568L13550.3756,-3353.5712L13550.3726,-3353.5715L13550.373,-3353.5684L13550.3724,-3353.5665L13550.3691,-3353.5683L13550.3671,-3353.5688L13550.3663,-3353.5679L13550.3669,-3353.5649L13550.3684,-3353.5626L13550.3654,-3353.5633L13550.362,-3353.5665L13550.36,-3353.5695L13550.3566,-3353.5695L13550.3549,-3353.567L13550.3552,-3353.5625L13550.3572,-3353.559L13550.361,-3353.5563L13550.3642,-3353.5531L13550.3651,-3353.551L13550.3659,-3353.5482L13550.3662,-3353.5467L13550.3665,-3353.5448L13550.3665,-3353.5426L13550.3665,-3353.5403L13550.3668,-3353.5388L13550.3671,-3353.5368L13550.3687,-3353.5332L13550.3703,-3353.5289L13550.3709,-3353.5263L13550.3714,-3353.5241L13550.3712,-3353.5231L13550.3712,-3353.5222L13550.3708,-3353.5218L13550.3704,-3353.5216L13550.3696,-3353.5215L13550.3685,-3353.5214L13550.3608,-3353.5212L13550.3517,-3353.5208L13550.3499,-3353.5209L13550.3484,-3353.5212L13550.3474,-3353.522L13550.3467,-3353.523L13550.346,-3353.5241L13550.3449,-3353.5265L13550.3433,-3353.5299L13550.3422,-3353.5316L13550.3407,-3353.5336L13550.3388,-3353.5354L13550.3371,-3353.5372L13550.3348,-3353.539L13550.3325,-3353.541L13550.3303,-3353.5422L13550.3252,-3353.5446L13550.3207,-3353.5469L13550.3203,-3353.5467L13550.3194,-3353.5467L13550.3189,-3353.5464L13550.3181,-3353.546L13550.3178,-3353.5456L13550.3176,-3353.5453L13550.3171,-3353.5443L13550.3168,-3353.5433L13550.3164,-3353.543L13550.316,-3353.5426L13550.3147,-3353.5426L13550.3125,-3353.5427L13550.3105,-3353.5431L13550.3076,-3353.5437L13550.3041,-3353.5448L13550.2997,-3353.5461L13550.2958,-3353.5475L13550.2907,-3353.5493L13550.2849,-3353.5521L13550.2804,-3353.5541L13550.28,-3353.554L13550.2793,-3353.554L13550.2788,-3353.5539L13550.2784,-3353.5535L13550.2781,-3353.5531L13550.278,-3353.5528L13550.2781,-3353.5521L13550.2783,-3353.5511L13550.2787,-3353.5504L13550.2793,-3353.5496L13550.281,-3353.5486L13550.2829,-3353.5475L13550.288,-3353.545L13550.2922,-3353.5427L13550.2933,-3353.5418L13550.2943,-3353.5409L13550.2954,-3353.5395L13550.2964,-3353.5381L13550.2975,-3353.5353L13550.299,-3353.5323L13550.2996,-3353.5313L13550.3003,-3353.5305L13550.3013,-3353.5298L13550.3026,-3353.5289L13550.3035,-3353.5286L13550.3049,-3353.5281L13550.3074,-3353.5276L13550.3098,-3353.5269L13550.3104,-3353.5265L13550.311,-3353.5263L13550.3117,-3353.5258L13550.3126,-3353.525L13550.313,-3353.5242L13550.3138,-3353.5233L13550.3145,-3353.5215L13550.3154,-3353.5195L13550.3167,-3353.5176L13550.3175,-3353.516L13550.3174,-3353.5157L13550.317,-3353.5153L13550.3162,-3353.5152L13550.3154,-3353.515L13550.3132,-3353.5152L13550.3105,-3353.5154L13550.3096,-3353.5158L13550.3084,-3353.5161L13550.3055,-3353.5167L13550.3022,-3353.5173L13550.3008,-3353.5174L13550.2995,-3353.5174L13550.2936,-3353.5173L13550.2876,-3353.5172L13550.2859,-3353.5173L13550.2842,-3353.5175L13550.2834,-3353.5177L13550.2826,-3353.5181L13550.2819,-3353.5187L13550.2814,-3353.5192L13550.2813,-3353.5196L13550.2811,-3353.5203L13550.2811,-3353.5216L13550.2813,-3353.5226L13550.283,-3353.525L13550.2844,-3353.5274L13550.2843,-3353.5279L13550.2841,-3353.5285L13550.2838,-3353.5289L13550.2833,-3353.5293L13550.2807,-3353.531L13550.2776,-3353.5332L13550.2714,-3353.5385L13550.2652,-3353.5478L13550.2647,-3353.5483L13550.2633,-3353.5495L13550.261,-3353.5488L13550.2581,-3353.5478L13550.2568,-3353.5481L13550.2594,-3353.5446L13550.261,-3353.5407L13550.2614,-3353.5364L13550.2639,-3353.5342L13550.2657,-3353.5313L13550.2675,-3353.5279L13550.2699,-3353.5258L13550.2715,-3353.5234L13550.2704,-3353.5212L13550.2691,-3353.5206L13550.2658,-3353.5206L13550.2629,-3353.5221L13550.2594,-3353.5218L13550.2566,-3353.5223L13550.2534,-3353.5248L13550.2526,-3353.5261L13550.2523,-3353.5271L13550.2524,-3353.5277L13550.2507,-3353.5318L13550.2468,-3353.534L13550.2446,-3353.5354L13550.2438,-3353.5374L13550.2431,-3353.54L13550.2409,-3353.5393L13550.2383,-3353.5396L13550.2357,-3353.541L13550.2342,-3353.5425L13550.2319,-3353.5419L13550.2285,-3353.5427L13550.2269,-3353.5441L13550.2249,-3353.546L13550.2241,-3353.5481L13550.2224,-3353.5491L13550.2196,-3353.5497L13550.2167,-3353.552L13550.2146,-3353.5544L13550.213,-3353.5552L13550.2097,-3353.5551L13550.2058,-3353.5556L13550.2038,-3353.557L13550.2044,-3353.5552L13550.2056,-3353.5525L13550.2062,-3353.5478L13550.2046,-3353.5433L13550.2067,-3353.5403L13550.2088,-3353.538L13550.211,-3353.5372L13550.2115,-3353.5338L13550.2134,-3353.5328L13550.2158,-3353.5323L13550.2173,-3353.5304L13550.2169,-3353.5276L13550.2169,-3353.5266L13550.2183,-3353.5257L13550.2195,-3353.5255L13550.2213,-3353.5241L13550.2218,-3353.5233L13550.2224,-3353.5201L13550.2224,-3353.519L13550.2217,-3353.5181L13550.2211,-3353.5139L13550.2197,-3353.5122L13550.2177,-3353.5111L13550.2146,-3353.5115L13550.2121,-3353.5125L13550.2094,-3353.5156L13550.2065,-3353.5148L13550.2032,-3353.5154L13550.1999,-3353.5181L13550.1991,-3353.52L13550.1986,-3353.5218L13550.1958,-3353.5223L13550.1924,-3353.5228L13550.189,-3353.525L13550.1885,-3353.5257L13550.1882,-3353.5265L13550.1876,-3353.5277L13550.1866,-3353.5284L13550.1856,-3353.5269L13550.1843,-3353.5263L13550.1822,-3353.5261L13550.1795,-3353.5267L13550.1783,-3353.5271L13550.1773,-3353.5256L13550.1742,-3353.5252L13550.1715,-3353.5257L13550.1694,-3353.5268L13550.1685,-3353.5267L13550.1694,-3353.5245L13550.1689,-3353.5222L13550.1675,-3353.5203L13550.164,-3353.5194L13550.1593,-3353.5193L13550.1558,-3353.519L13550.1525,-3353.5192L13550.1502,-3353.5206L13550.149,-3353.5215L13550.1459,-3353.5193L13550.1434,-3353.5193L13550.1402,-3353.5197L13550.1374,-3353.5214L13550.1361,-3353.5202L13550.1331,-3353.5195L13550.1298,-3353.5191L13550.1281,-3353.5207L13550.1262,-3353.522L13550.1249,-3353.523L13550.1241,-3353.5223L13550.1231,-3353.5219L13550.1217,-3353.5217L13550.1207,-3353.522L13550.1185,-3353.5231L13550.1173,-3353.5234L13550.1163,-3353.5239L13550.115,-3353.5257L13550.1145,-3353.5267L13550.1145,-3353.5278L13550.115,-3353.5299L13550.1145,-3353.5316L13550.1136,-3353.5319L13550.1128,-3353.5326L13550.1121,-3353.5334L13550.1121,-3353.5344L13550.1124,-3353.5366L13550.1129,-3353.5376L13550.1136,-3353.5385L13550.1146,-3353.539L13550.1166,-3353.5406L13550.1192,-3353.5438L13550.1204,-3353.5446L13550.1239,-3353.5463L13550.1225,-3353.5469L13550.1193,-3353.5475L13550.1164,-3353.5481L13550.1144,-3353.5488L13550.1131,-3353.5506L13550.1121,-3353.5524L13550.1112,-3353.5533L13550.1096,-3353.5526L13550.107,-3353.5527L13550.1023,-3353.5558L13550.1016,-3353.5569L13550.1004,-3353.5565L13550.095,-3353.5579L13550.0927,-3353.5601L13550.0923,-3353.5608L13550.0921,-3353.5611L13550.0921,-3353.5623L13550.0913,-3353.5631L13550.0891,-3353.5625L13550.0862,-3353.5628L13550.0842,-3353.5642L13550.083,-3353.5631L13550.0798,-3353.563L13550.0765,-3353.5641L13550.0737,-3353.5664L13550.0728,-3353.5682L13550.0728,-3353.5701L13550.0724,-3353.5714L13550.0696,-3353.5738L13550.0688,-3353.5744L13550.068,-3353.5776L13550.0689,-3353.58L13550.0694,-3353.5809L13550.0701,-3353.5817L13550.0706,-3353.5827L13550.0706,-3353.5837L13550.0708,-3353.5847L13550.072,-3353.5865L13550.0729,-3353.5872L13550.0743,-3353.5889L13550.0747,-3353.5898L13550.0735,-3353.5915L13550.0728,-3353.5933L13550.073,-3353.5953L13550.074,-3353.5981L13550.0729,-3353.599L13550.0672,-3353.6009L13550.0622,-3353.6043L13550.0616,-3353.6056L13550.0558,-3353.6052L13550.0529,-3353.6067L13550.0472,-3353.6045L13550.0433,-3353.6051L13550.0404,-3353.6065L13550.0363,-3353.6051L13550.0329,-3353.6052L13550.0284,-3353.6091L13550.0268,-3353.6127L13550.0259,-3353.6142L13550.0226,-3353.616L13550.0225,-3353.617L13550.0205,-3353.6213L13550.0165,-3353.6242L13550.0158,-3353.6274L13550.0128,-3353.6285L13550.0095,-3353.6316L13550.0074,-3353.6352L13550.007,-3353.6365L13550.0025,-3353.638L13550,-3353.6415L13549.9979,-3353.6444L13549.9977,-3353.6472L13550,-3353.6493L13550.0009,-3353.6501L13550.0044,-3353.6518L13550.0057,-3353.6558L13550.0074,-3353.6569L13550.0139,-3353.6573L13550.0153,-3353.6606L13550.0154,-3353.6706L13550.0127,-3353.6777L13550.0082,-3353.6857L13550.0008,-3353.6944L13550,-3353.6952L13549.9877,-3353.7084L13549.9866,-3353.7097L13549.9859,-3353.7102L13549.9815,-3353.7144L13549.9811,-3353.7153L13549.9794,-3353.717L13549.9787,-3353.7178L13549.9784,-3353.7188L13549.9755,-3353.7247L13549.9745,-3353.7315L13549.9747,-3353.7329L13549.9742,-3353.7337L13549.974,-3353.7347L13549.9738,-3353.7369L13549.974,-3353.7379L13549.974,-3353.7392L13549.9735,-3353.74L13549.9735,-3353.7412L13549.9733,-3353.7422L13549.9733,-3353.7433L13549.9734,-3353.7442L13549.9731,-3353.7529L13549.9757,-3353.7712L13549.9779,-3353.7947L13549.9783,-3353.7969L13549.9788,-3353.798L13549.9781,-3353.7987L13549.9785,-3353.8045L13549.9787,-3353.8052L13549.9787,-3353.8062L13549.9785,-3353.8071L13549.9794,-3353.809L13549.9791,-3353.81L13549.979,-3353.8123L13549.9797,-3353.8143L13549.9794,-3353.8153L13549.9797,-3353.8163L13549.9795,-3353.8173L13549.9795,-3353.8185L13549.9798,-3353.8206L13549.9793,-3353.8226L13549.9792,-3353.8261L13549.9786,-3353.8282L13549.9786,-3353.8294L13549.9782,-3353.8304L13549.9783,-3353.8309L13549.9784,-3353.832L13549.9773,-3353.8339L13549.977,-3353.8361L13549.9764,-3353.8369L13549.9756,-3353.8389L13549.9744,-3353.8406L13549.9737,-3353.8426L13549.9717,-3353.845L13549.9708,-3353.8456L13549.9701,-3353.8466L13549.9692,-3353.8471L13549.967,-3353.8486L13549.966,-3353.8489L13549.9651,-3353.8496L13549.9629,-3353.8505L13549.9609,-3353.8517L13549.9492,-3353.8566L13549.927,-3353.8674L13549.9152,-3353.8741L13549.9129,-3353.8763L13549.9087,-3353.8785L13549.905,-3353.8757L13549.9025,-3353.8737L13549.8997,-3353.8734L13549.8977,-3353.8752L13549.8945,-3353.8715L13549.8917,-3353.8707L13549.8868,-3353.8714L13549.8834,-3353.8732L13549.8809,-3353.8708L13549.8777,-3353.8703L13549.8731,-3353.873L13549.8711,-3353.8743L13549.8683,-3353.8703L13549.8629,-3353.8715L13549.8617,-3353.8759L13549.8616,-3353.877L13549.8609,-3353.8778L13549.8604,-3353.8788L13549.8602,-3353.8798L13549.8601,-3353.8809L13549.861,-3353.8828L13549.8621,-3353.8834L13549.8632,-3353.8839L13549.8715,-3353.8853L13549.8761,-3353.8864L13549.8761,-3353.8907L13549.8787,-3353.8943L13549.8834,-3353.8959L13549.887,-3353.8953L13549.8914,-3353.8957L13549.8978,-3353.8949L13549.9014,-3353.8964L13549.9046,-3353.8976L13549.9089,-3353.8964L13549.9125,-3353.896L13549.915,-3353.8973L13549.9189,-3353.8982L13549.9241,-3353.8987L13549.9266,-3353.8992L13549.9267,-3353.9031L13549.9296,-3353.9074L13549.9306,-3353.9088L13549.9261,-3353.911L13549.9252,-3353.9135L13549.925,-3353.9159L13549.9222,-3353.9174L13549.9188,-3353.9198L13549.9186,-3353.9231L13549.9223,-3353.9246L13549.9264,-3353.9238L13549.9268,-3353.9273L13549.9285,-3353.9297L13549.9356,-3353.9337L13549.9375,-3353.9379L13549.9423,-3353.9407L13549.9434,-3353.9439L13549.9483,-3353.9461L13549.9606,-3353.9535L13549.991,-3353.9758L13549.9918,-3353.9766L13549.9929,-3353.9771L13549.9938,-3353.9777L13549.9955,-3353.9793L13549.9965,-3353.98L13549.9974,-3353.9809L13549.9984,-3353.981L13549.9991,-3353.9817L13549.9996,-3353.9827L13550,-3353.983L13550.0006,-3353.9835L13550.0015,-3353.9843L13550.0036,-3353.9865L13550.0043,-3353.9876L13550.0052,-3353.9882L13550.0067,-3353.9899L13550.0072,-3353.9908L13550.0081,-3353.9915L13550.0106,-3353.995L13550.0122,-3353.9965L13550.0123,-3353.9977L13550.013,-3353.9985L13550.0133,-3353.9995L13550.015,-3354.0016L13550.0151,-3354.0024L13550.016,-3354.0044L13550.0175,-3354.0064L13550.0172,-3354.0073L13550.0181,-3354.0088L13550.019,-3354.011L13550.0201,-3354.0129L13550.0206,-3354.0148L13550.0214,-3354.016L13550.0213,-3354.017L13550.0216,-3354.018L13550.022,-3354.0201L13550.0228,-3354.0212L13550.0227,-3354.0223L13550.0228,-3354.0245L13550.0233,-3354.0271L13550.0229,-3354.0279L13550.0229,-3354.029L13550.0226,-3354.0312L13550.0229,-3354.0327L13550.0222,-3354.0334L13550.022,-3354.0345L13550.0217,-3354.0355L13550.0212,-3354.0364L13550.0206,-3354.0388L13550.0199,-3354.0394L13550.0194,-3354.0422L13550.0189,-3354.0431L13550.0182,-3354.0438L13550.0177,-3354.0447L13550.0172,-3354.0469L13550.0165,-3354.0471L13550.0163,-3354.0487L13550.0155,-3354.0493L13550.0142,-3354.051L13550.0132,-3354.0532L13550.0122,-3354.0537L13550.0111,-3354.0555L13550.0111,-3354.0559L13550.0038,-3354.0644L13550,-3354.0677L13549.9975,-3354.0699L13549.9919,-3354.0729L13549.983,-3354.0751L13549.9705,-3354.076L13549.9612,-3354.0764L13549.9544,-3354.0796L13549.9479,-3354.086L13549.9477,-3354.087L13549.9424,-3354.0944L13549.9368,-3354.0991L13549.9264,-3354.1L13549.9075,-3354.0954L13549.8998,-3354.0943L13549.8966,-3354.0928L13549.8925,-3354.0919L13549.8899,-3354.0921L13549.8673,-3354.0942L13549.8646,-3354.0925L13549.8457,-3354.0902L13549.841,-3354.0914L13549.8387,-3354.087L13549.8268,-3354.0821L13549.8155,-3354.0818L13549.8081,-3354.0756L13549.7953,-3354.0744L13549.7872,-3354.0711L13549.7872,-3354.0688L13549.7778,-3354.0609L13549.7677,-3354.0598L13549.7576,-3354.0649L13549.7468,-3354.0581L13549.7428,-3354.0576L13549.7321,-3354.0463L13549.7253,-3354.0463L13549.7168,-3354.0415L13549.7051,-3354.0431L13549.7018,-3354.0397L13549.6984,-3354.0392L13549.6876,-3354.0409L13549.6769,-3354.0386L13549.6708,-3354.0409L13549.6647,-3354.0465L13549.6567,-3354.0414L13549.6547,-3354.0414L13549.6378,-3354.0454L13549.6338,-3354.0505L13549.617,-3354.051L13549.6129,-3354.0539L13549.6089,-3354.0589L13549.6096,-3354.0679L13549.6015,-3354.0747L13549.5974,-3354.0753L13549.5956,-3354.0768L13549.5951,-3354.0796L13549.5974,-3354.0808L13549.6004,-3354.0829L13549.6011,-3354.0837L13549.6016,-3354.0847L13549.6011,-3354.0856L13549.6014,-3354.0866L13549.6014,-3354.0877L13549.6021,-3354.0894L13549.6018,-3354.0902L13549.6019,-3354.0904L13549.6013,-3354.0922L13549.6017,-3354.0941L13549.6007,-3354.0957L13549.6004,-3354.0967L13549.6004,-3354.099L13549.6002,-3354.0998L13549.6002,-3354.1002L13549.5998,-3354.1012L13549.6003,-3354.1017L13549.6002,-3354.1017L13549.5992,-3354.1064L13549.5998,-3354.1107L13549.6,-3354.1137L13549.6,-3354.1159L13549.5994,-3354.1185L13549.5972,-3354.1228L13549.59,-3354.1282L13549.5807,-3354.1336L13549.5771,-3354.1351L13549.5749,-3354.1358L13549.5734,-3354.1371L13549.5733,-3354.1404L13549.5739,-3354.1444L13549.5748,-3354.148L13549.5722,-3354.1554L13549.5704,-3354.159L13549.5691,-3354.1614L13549.568,-3354.1627L13549.5667,-3354.164L13549.5635,-3354.1658L13549.5618,-3354.1667L13549.56,-3354.1676L13549.5577,-3354.1686L13549.5557,-3354.1697L13549.5545,-3354.1701L13549.5525,-3354.1704L13549.5495,-3354.1721L13549.5493,-3354.1723L13549.5483,-3354.1724L13549.5434,-3354.1734L13549.5409,-3354.1745L13549.5399,-3354.1745L13549.5389,-3354.1749L13549.5377,-3354.1752L13549.5362,-3354.1761L13549.5351,-3354.1759L13549.5339,-3354.1761L13549.5303,-3354.177L13549.5281,-3354.1779L13549.5269,-3354.1777L13549.5258,-3354.178L13549.5245,-3354.1783L13549.523,-3354.1792L13549.5222,-3354.179L13549.5187,-3354.1797L13549.511,-3354.1805L13549.4911,-3354.1841L13549.4763,-3354.1739L13549.4656,-3354.1728L13549.4595,-3354.1784L13549.4535,-3354.1762L13549.44,-3354.1756L13549.4313,-3354.1801L13549.4286,-3354.1767L13549.4239,-3354.1751L13549.4151,-3354.1779L13549.4111,-3354.1756L13549.4043,-3354.1756L13549.3996,-3354.1784L13549.3976,-3354.1784L13549.3916,-3354.1711L13549.3868,-3354.17L13549.3794,-3354.1705L13549.3778,-3354.1667L13549.3761,-3354.1626L13549.3714,-3354.1592L13549.3707,-3354.1553L13549.3801,-3354.1429L13549.3801,-3354.1395L13549.3761,-3354.1345L13549.3799,-3354.1285L13549.3816,-3354.124L13549.3795,-3354.1215L13549.3787,-3354.121L13549.3784,-3354.1163L13549.3769,-3354.1141L13549.3785,-3354.112L13549.3799,-3354.1096L13549.38,-3354.1058L13549.3792,-3354.103L13549.3772,-3354.1012L13549.3765,-3354.0994L13549.3765,-3354.0989L13549.3763,-3354.0954L13549.3759,-3354.0944L13549.3741,-3354.093L13549.3739,-3354.0917L13549.3746,-3354.0908L13549.375,-3354.0896L13549.3733,-3354.0863L13549.3721,-3354.0855L13549.3714,-3354.0846L13549.3696,-3354.0831L13549.3675,-3354.0822L13549.3673,-3354.0812L13549.368,-3354.0803L13549.3683,-3354.0793L13549.368,-3354.0783L13549.368,-3354.0773L13549.3674,-3354.0764L13549.3655,-3354.0751L13549.364,-3354.0734L13549.3631,-3354.0727L13549.3621,-3354.0726L13549.3609,-3354.0729L13549.3597,-3354.072L13549.3593,-3354.0711L13549.3587,-3354.0703L13549.3578,-3354.0684L13549.3558,-3354.0672L13549.3549,-3354.0665L13549.3526,-3354.0657L13549.3501,-3354.0654L13549.3491,-3354.0658L13549.3474,-3354.0656L13549.346,-3354.064L13549.3436,-3354.0638L13549.3413,-3354.0631L13549.3392,-3354.062L13549.338,-3354.0617L13549.3367,-3354.0619L13549.3356,-3354.0623L13549.3348,-3354.0629L13549.3334,-3354.0632L13549.3314,-3354.0614L13549.3298,-3354.0606L13549.3286,-3354.0603L13549.3279,-3354.0598L13549.3273,-3354.0584L13549.3274,-3354.0574L13549.3269,-3354.0564L13549.3261,-3354.0555L13549.3251,-3354.055L13549.324,-3354.0548L13549.3238,-3354.0547L13549.323,-3354.0542L13549.3229,-3354.0532L13549.3217,-3354.0528L13549.3205,-3354.0527L13549.3191,-3354.0528L13549.3179,-3354.0531L13549.317,-3354.0536L13549.3158,-3354.0537L13549.3145,-3354.0521L13549.3135,-3354.0516L13549.3123,-3354.0512L13549.3088,-3354.0503L13549.3073,-3354.0507L13549.3046,-3354.0495L13549.3031,-3354.0497L13549.3012,-3354.0509L13549.3001,-3354.0509L13549.2954,-3354.0496L13549.2924,-3354.0491L13549.2891,-3354.0469L13549.2861,-3354.0462L13549.2852,-3354.0452L13549.286,-3354.0428L13549.2858,-3354.0405L13549.2849,-3354.0378L13549.282,-3354.0365L13549.2795,-3354.0356L13549.2783,-3354.0357L13549.278,-3354.0326L13549.2738,-3354.0309L13549.2701,-3354.0303L13549.2667,-3354.0309L13549.2643,-3354.0318L13549.2598,-3354.0309L13549.2527,-3354.0316L13549.2498,-3354.0293L13549.2462,-3354.0287L13549.2423,-3354.0294L13549.2411,-3354.0297L13549.2401,-3354.0303L13549.2387,-3354.0299L13549.2379,-3354.0291L13549.2369,-3354.0287L13549.2333,-3354.0278L13549.2321,-3354.0278L13549.2309,-3354.0275L13549.2285,-3354.0281L13549.2275,-3354.0287L13549.2268,-3354.0295L13549.2256,-3354.0295L13549.2244,-3354.0292L13549.2232,-3354.0291L13549.2208,-3354.0297L13549.2197,-3354.0302L13549.2186,-3354.0301L13549.2173,-3354.0321L13549.2158,-3354.029L13549.2136,-3354.0273L13549.2107,-3354.0268L13549.2109,-3354.0257L13549.21,-3354.0241L13549.2051,-3354.0229L13549.202,-3354.0229L13549.1982,-3354.025L13549.1956,-3354.0256L13549.1922,-3354.0268L13549.1904,-3354.026L13549.1869,-3354.0244L13549.1837,-3354.0255L13549.1835,-3354.024L13549.1834,-3354.021L13549.182,-3354.0189L13549.1788,-3354.0187L13549.178,-3354.0179L13549.1786,-3354.0155L13549.1785,-3354.0143L13549.178,-3354.0131L13549.1771,-3354.0124L13549.1749,-3354.0116L13549.1728,-3354.0125L13549.1718,-3354.0132L13549.1695,-3354.0138L13549.1686,-3354.0144L13549.1677,-3354.0151L13549.1667,-3354.0157L13549.1667,-3354.0157L13549.1663,-3354.0167L13549.1655,-3354.0174L13549.1644,-3354.0171L13549.1618,-3354.017L13549.1581,-3354.0164L13549.1558,-3354.0163L13549.1523,-3354.0175L13549.1512,-3354.018L13549.1513,-3354.0193L13549.1495,-3354.0173L13549.1484,-3354.0165L13549.1464,-3354.0165L13549.1439,-3354.0172L13549.1429,-3354.0155L13549.1416,-3354.0151L13549.1388,-3354.0144L13549.1356,-3354.0134L13549.1332,-3354.014L13549.1312,-3354.0143L13549.1302,-3354.0125L13549.1286,-3354.0117L13549.1258,-3354.0113L13549.1219,-3354.012L13549.1207,-3354.0119L13549.1197,-3354.0115L13549.1185,-3354.0112L13549.1171,-3354.0113L13549.1159,-3354.0116L13549.1149,-3354.012L13549.1112,-3354.0141L13549.1104,-3354.0153L13549.1104,-3354.0168L13549.1125,-3354.0184L13549.1141,-3354.0201L13549.1156,-3354.0212L13549.1175,-3354.0219L13549.1213,-3354.0223L13549.1218,-3354.0241L13549.1231,-3354.0253L13549.1247,-3354.0259L13549.127,-3354.0261L13549.129,-3354.0274L13549.1305,-3354.0282L13549.1332,-3354.0288L13549.1354,-3354.0286L13549.1377,-3354.0287L13549.1376,-3354.0298L13549.1354,-3354.0337L13549.1356,-3354.0354L13549.136,-3354.0374L13549.1343,-3354.0373L13549.1314,-3354.0363L13549.1283,-3354.036L13549.126,-3354.0355L13549.1226,-3354.0361L13549.1211,-3354.0372L13549.1206,-3354.0348L13549.119,-3354.0326L13549.1157,-3354.0302L13549.1126,-3354.0292L13549.1094,-3354.0299L13549.1049,-3354.0315L13549.1024,-3354.0318L13549.0993,-3354.033L13549.0971,-3354.0354L13549.094,-3354.0362L13549.0908,-3354.0357L13549.087,-3354.0353L13549.0851,-3354.0337L13549.0816,-3354.0327L13549.0784,-3354.0325L13549.0751,-3354.0336L13549.0713,-3354.0318L13549.0686,-3354.0314L13549.0625,-3354.0321L13549.0605,-3354.0354L13549.0578,-3354.0365L13549.0549,-3354.0383L13549.0537,-3354.0388L13549.053,-3354.0396L13549.0523,-3354.0416L13549.0525,-3354.0427L13549.0518,-3354.0435L13549.0506,-3354.0435L13549.0494,-3354.0432L13549.0484,-3354.0434L13549.0472,-3354.0438L13549.0463,-3354.0443L13549.044,-3354.0449L13549.0433,-3354.0458L13549.0424,-3354.0465L13549.0414,-3354.0479L13549.0405,-3354.048L13549.039,-3354.0494L13549.0379,-3354.0496L13549.0357,-3354.0495L13549.0345,-3354.0499L13549.0333,-3354.0501L13549.0322,-3354.0498L13549.0302,-3354.0508L13549.0274,-3354.053L13549.0253,-3354.0553L13549.0253,-3354.0566L13549.0255,-3354.0577L13549.0263,-3354.0595L13549.0264,-3354.0606L13549.0269,-3354.0615L13549.028,-3354.0623L13549.0291,-3354.0629L13549.0286,-3354.0639L13549.0278,-3354.0646L13549.0273,-3354.0655L13549.0269,-3354.0665L13549.026,-3354.0675L13549.025,-3354.0679L13549.0242,-3354.0686L13549.0231,-3354.0716L13549.0224,-3354.0729L13549.0212,-3354.0732L13549.0197,-3354.0738L13549.0166,-3354.0743L13549.0149,-3354.0757L13549.0139,-3354.0764L13549.0123,-3354.078L13549.0118,-3354.0795L13549.0106,-3354.0794L13549.0094,-3354.0797L13549.0084,-3354.0804L13549.0062,-3354.0808L13549.0036,-3354.0824L13549.0018,-3354.0826L13548.9992,-3354.0833L13548.9969,-3354.0832L13548.993,-3354.0839L13548.9903,-3354.0843L13548.9888,-3354.0808L13548.9864,-3354.0785L13548.9833,-3354.0776L13548.9805,-3354.0781L13548.9798,-3354.081L13548.979,-3354.081L13548.9762,-3354.0822L13548.9723,-3354.0854L13548.9717,-3354.0864L13548.9719,-3354.0867L13548.9736,-3354.0875L13548.9739,-3354.0872L13548.9733,-3354.088L13548.9701,-3354.0897L13548.9688,-3354.0911L13548.9701,-3354.0934L13548.969,-3354.0956L13548.968,-3354.0973L13548.968,-3354.0973L13548.9669,-3354.0992L13548.9673,-3354.1018L13548.9675,-3354.1037L13548.9669,-3354.1052L13548.9662,-3354.1069L13548.9675,-3354.1107L13548.9688,-3354.1118L13548.9701,-3354.1131L13548.9727,-3354.1132L13548.9746,-3354.1143L13548.9748,-3354.1158L13548.976,-3354.1178L13548.9771,-3354.119L13548.9801,-3354.1207L13548.9829,-3354.1209L13548.9842,-3354.1236L13548.984,-3354.1256L13548.9843,-3354.1266L13548.985,-3354.1274L13548.986,-3354.1282L13548.9872,-3354.1284L13548.9872,-3354.1294L13548.9864,-3354.1303L13548.986,-3354.1334L13548.9863,-3354.1355L13548.9867,-3354.1365L13548.9875,-3354.1373L13548.9897,-3354.1383L13548.9904,-3354.1393L13548.9898,-3354.1403L13548.989,-3354.1422L13548.9887,-3354.1442L13548.9885,-3354.1463L13548.9887,-3354.1472L13548.9895,-3354.1481L13548.9905,-3354.1486L13548.991,-3354.1495L13548.9912,-3354.1506L13548.9907,-3354.1527L13548.9912,-3354.1537L13548.9932,-3354.1547L13548.9956,-3354.1553L13548.9981,-3354.1555L13548.999,-3354.1573L13548.9997,-3354.1581L13549.0021,-3354.1589L13549.0045,-3354.1594L13549.0079,-3354.1596L13549.0097,-3354.1631L13549.0123,-3354.1652L13549.0135,-3354.1655L13549.0149,-3354.1653L13549.0162,-3354.1667L13549.0163,-3354.1668L13549.0165,-3354.1683L13549.018,-3354.1697L13549.0196,-3354.1702L13549.0219,-3354.1705L13549.0233,-3354.1717L13549.0239,-3354.1742L13549.0282,-3354.1779L13549.0298,-3354.1783L13549.0309,-3354.1797L13549.0303,-3354.1817L13549.031,-3354.1837L13549.0326,-3354.1864L13549.0341,-3354.1868L13549.0347,-3354.1868L13549.0347,-3354.1879L13549.0345,-3354.1903L13549.0339,-3354.1932L13549.0339,-3354.1955L13549.0352,-3354.1978L13549.036,-3354.1996L13549.0373,-3354.2037L13549.0386,-3354.206L13549.0397,-3354.208L13549.0416,-3354.2094L13549.0427,-3354.2114L13549.0428,-3354.2138L13549.0402,-3354.2159L13549.0373,-3354.215L13549.0219,-3354.228L13548.9495,-3354.2927L13548.9328,-3354.3073L13548.9322,-3354.305L13548.9286,-3354.3011L13548.925,-3354.3006L13548.9243,-3354.2982L13548.9226,-3354.2955L13548.9187,-3354.2938L13548.9174,-3354.293L13548.9141,-3354.2914L13548.9127,-3354.2886L13548.9103,-3354.2883L13548.9051,-3354.2856L13548.9037,-3354.2855L13548.9013,-3354.2856L13548.901,-3354.2844L13548.901,-3354.2833L13548.8992,-3354.2821L13548.898,-3354.2817L13548.8942,-3354.2799L13548.8923,-3354.28L13548.8918,-3354.2802L13548.8903,-3354.2808L13548.8894,-3354.2798L13548.8893,-3354.2786L13548.8885,-3354.2766L13548.8866,-3354.275L13548.8856,-3354.2732L13548.8847,-3354.2726L13548.8833,-3354.2726L13548.8809,-3354.2722L13548.8801,-3354.2713L13548.8799,-3354.2701L13548.8787,-3354.2684L13548.8775,-3354.2683L13548.8759,-3354.2679L13548.869,-3354.267L13548.8653,-3354.264L13548.8613,-3354.2631L13548.8587,-3354.2631L13548.8565,-3354.263L13548.8533,-3354.2617L13548.8505,-3354.261L13548.8475,-3354.2607L13548.8444,-3354.2611L13548.8402,-3354.261L13548.8378,-3354.2609L13548.8356,-3354.2599L13548.8314,-3354.259L13548.8295,-3354.2591L13548.8285,-3354.2593L13548.8266,-3354.259L13548.8263,-3354.2583L13548.8251,-3354.2579L13548.8239,-3354.2576L13548.8224,-3354.2574L13548.8195,-3354.2566L13548.8181,-3354.2566L13548.8171,-3354.257L13548.8161,-3354.2577L13548.8152,-3354.2586L13548.811,-3354.2572L13548.8075,-3354.2565L13548.805,-3354.2565L13548.8025,-3354.2574L13548.8017,-3354.258L13548.7997,-3354.2558L13548.7963,-3354.2556L13548.7938,-3354.2567L13548.7926,-3354.257L13548.7916,-3354.2576L13548.7908,-3354.2583L13548.7893,-3354.26L13548.7892,-3354.261L13548.7889,-3354.2617L13548.7858,-3354.2621L13548.7827,-3354.2614L13548.7761,-3354.2601L13548.7725,-3354.2604L13548.7707,-3354.2615L13548.7691,-3354.2599L13548.7661,-3354.2598L13548.7626,-3354.2605L13548.759,-3354.2624L13548.7575,-3354.2638L13548.7567,-3354.2649L13548.7555,-3354.2649L13548.7543,-3354.2652L13548.7533,-3354.2656L13548.7524,-3354.2663L13548.7514,-3354.2669L13548.7505,-3354.2678L13548.7495,-3354.2682L13548.7477,-3354.2695L13548.7462,-3354.2693L13548.7415,-3354.2691L13548.7394,-3354.2706L13548.7389,-3354.2727L13548.7386,-3354.2746L13548.7367,-3354.2752L13548.7302,-3354.2759L13548.726,-3354.2768L13548.7247,-3354.278L13548.7217,-3354.2756L13548.7148,-3354.2741L13548.7134,-3354.2742L13548.7122,-3354.2746L13548.7115,-3354.2753L13548.7103,-3354.2757L13548.7093,-3354.2759L13548.7083,-3354.2765L13548.7076,-3354.2773L13548.7054,-3354.2779L13548.7033,-3354.2806L13548.7014,-3354.2817L13548.7004,-3354.2836L13548.7,-3354.2847L13548.7002,-3354.2857L13548.7019,-3354.2873L13548.7029,-3354.2866L13548.7034,-3354.2866L13548.7016,-3354.2898L13548.7024,-3354.2932L13548.7054,-3354.2952L13548.7087,-3354.2968L13548.7109,-3354.2986L13548.7128,-3354.3012L13548.7117,-3354.3036L13548.7094,-3354.3049L13548.7059,-3354.3064L13548.7046,-3354.3094L13548.7045,-3354.3116L13548.7036,-3354.3128L13548.7024,-3354.3128L13548.7014,-3354.3131L13548.6995,-3354.3146L13548.6981,-3354.3166L13548.6981,-3354.3192L13548.696,-3354.3194L13548.6922,-3354.3192L13548.6884,-3354.3203L13548.685,-3354.3222L13548.6826,-3354.3239L13548.6805,-3354.3271L13548.6792,-3354.3283L13548.6761,-3354.3274L13548.6738,-3354.328L13548.6704,-3354.3308L13548.6698,-3354.3318L13548.6698,-3354.333L13548.6693,-3354.3345L13548.6683,-3354.3345L13548.6674,-3354.3353L13548.6667,-3354.3361L13548.6665,-3354.3371L13548.6665,-3354.3383L13548.667,-3354.3393L13548.6682,-3354.3436L13548.6681,-3354.3469L13548.6681,-3354.3493L13548.6725,-3354.3553L13548.674,-3354.3572L13548.6766,-3354.3583L13548.6792,-3354.3591L13548.6795,-3354.3606L13548.6791,-3354.362L13548.6779,-3354.3631L13548.675,-3354.364L13548.6729,-3354.3651L13548.6723,-3354.366L13548.6722,-3354.3665L13548.672,-3354.367L13548.672,-3354.3681L13548.6716,-3354.3688L13548.6696,-3354.37L13548.6691,-3354.371L13548.6684,-3354.373L13548.6684,-3354.3753L13548.6687,-3354.3763L13548.6694,-3354.3772L13548.6702,-3354.3779L13548.6695,-3354.3789L13548.6686,-3354.3794L13548.667,-3354.3822L13548.6659,-3354.3831L13548.6654,-3354.3839L13548.6654,-3354.3869L13548.6644,-3354.3888L13548.6633,-3354.3895L13548.6616,-3354.3909L13548.6616,-3354.3932L13548.6623,-3354.3951L13548.6632,-3354.3971L13548.6624,-3354.4001L13548.6608,-3354.4038L13548.6602,-3354.4071L13548.6586,-3354.4091L13548.6573,-3354.415L13548.6566,-3354.4184L13548.6559,-3354.4212L13548.6556,-3354.4241L13548.6559,-3354.4281L13548.6557,-3354.4306L13548.6543,-3354.4324L13548.6543,-3354.4356L13548.6554,-3354.4374L13548.6574,-3354.4389L13548.6599,-3354.4394L13548.6611,-3354.4401L13548.6622,-3354.442L13548.6677,-3354.4447L13548.67,-3354.445L13548.6714,-3354.4467L13548.673,-3354.4479L13548.6752,-3354.4482L13548.6777,-3354.448L13548.6813,-3354.4467L13548.6825,-3354.4453L13548.6828,-3354.4452L13548.6849,-3354.4458L13548.687,-3354.4468L13548.6909,-3354.4465L13548.6946,-3354.4466L13548.6969,-3354.4478L13548.6996,-3354.4485L13548.7019,-3354.448L13548.7043,-3354.4483L13548.7054,-3354.4488L13548.7064,-3354.4494L13548.7076,-3354.4496L13548.7087,-3354.4497L13548.7112,-3354.4496L13548.7124,-3354.4498L13548.7136,-3354.4494L13548.7141,-3354.4487L13548.7179,-3354.4474L13548.7199,-3354.4467L13548.7226,-3354.4479L13548.7272,-3354.4485L13548.7317,-3354.447L13548.7335,-3354.445L13548.7354,-3354.4461L13548.7376,-3354.4473L13548.7406,-3354.4472L13548.7447,-3354.4474L13548.7457,-3354.4469L13548.7469,-3354.4467L13548.7481,-3354.4466L13548.7497,-3354.4478L13548.7528,-3354.4496L13548.7554,-3354.4499L13548.7604,-3354.4496L13548.7616,-3354.449L13548.7623,-3354.4483L13548.7635,-3354.4482L13548.7656,-3354.4501L13548.7665,-3354.4507L13548.7701,-3354.4516L13548.7715,-3354.4518L13548.7724,-3354.4516L13548.776,-3354.4498L13548.777,-3354.4502L13548.7777,-3354.4511L13548.7788,-3354.4514L13548.7828,-3354.4517L13548.7841,-3354.4517L13548.7853,-3354.4514L13548.7864,-3354.4508L13548.7896,-3354.4499L13548.7913,-3354.45L13548.7933,-3354.4515L13548.7964,-3354.4521L13548.7995,-3354.4511L13548.8014,-3354.451L13548.8029,-3354.4516L13548.8053,-3354.4509L13548.807,-3354.4511L13548.8097,-3354.4536L13548.8106,-3354.4542L13548.8118,-3354.4544L13548.8165,-3354.4544L13548.818,-3354.4546L13548.8211,-3354.4568L13548.8234,-3354.4582L13548.8256,-3354.4585L13548.8296,-3354.4579L13548.8323,-3354.4573L13548.8342,-3354.4586L13548.8365,-3354.4602L13548.8389,-3354.4607L13548.8402,-3354.4609L13548.8424,-3354.46L13548.8448,-3354.4594L13548.8456,-3354.4602L13548.8461,-3354.4612L13548.848,-3354.4623L13548.8501,-3354.4633L13548.854,-3354.4629L13548.8562,-3354.4621L13548.8569,-3354.4626L13548.8574,-3354.4634L13548.8584,-3354.464L13548.8596,-3354.4643L13548.8622,-3354.4645L13548.8646,-3354.4639L13548.8656,-3354.4635L13548.8665,-3354.4629L13548.8672,-3354.462L13548.8679,-3354.4608L13548.8682,-3354.4585L13548.8677,-3354.4576L13548.8673,-3354.4558L13548.8681,-3354.4536L13548.8672,-3354.4481L13548.8702,-3354.4473L13548.8721,-3354.4458L13548.8733,-3354.4432L13548.8749,-3354.4441L13548.8771,-3354.4419L13548.8779,-3354.4403L13548.8802,-3354.4405L13548.8852,-3354.4396L13548.8863,-3354.4392L13548.8873,-3354.4385L13548.8886,-3354.4347L13548.89,-3354.4342L13548.8924,-3354.4289L13548.8934,-3354.4237L13548.8984,-3354.4215L13548.9083,-3354.4082L13548.9137,-3354.4109L13548.92,-3354.4123L13548.9286,-3354.4137L13548.9369,-3354.4122L13548.9447,-3354.4176L13548.9521,-3354.4193L13548.9592,-3354.4182L13548.9657,-3354.4237L13548.9764,-3354.4265L13548.9864,-3354.4261L13548.9925,-3354.4306L13549.0068,-3354.4304L13549.0102,-3354.4281L13549.0124,-3354.4247L13549.0127,-3354.4148L13549.0154,-3354.4121L13549.0161,-3354.4081L13549.0093,-3354.397L13549.0034,-3354.3938L13549.0029,-3354.3889L13548.9945,-3354.3789L13548.9899,-3354.3781L13548.9914,-3354.3749L13548.9869,-3354.3635L13548.9824,-3354.3617L13548.9769,-3354.3621L13548.9757,-3354.3566L13548.9632,-3354.3443L13548.9588,-3354.3443L13548.9553,-3354.3406L13548.9509,-3354.3317L13548.9447,-3354.3311L13548.9362,-3354.3341L13548.9264,-3354.3329L13548.9242,-3354.3304L13548.9227,-3354.3281L13548.9218,-3354.3259L13548.9317,-3354.3184L13548.9344,-3354.3206L13548.9991,-3354.2625L13549.0867,-3354.3041L13549.0977,-3354.2887L13549.1667,-3354.3236L13549.1935,-3354.3372L13549.2219,-3354.3643L13549.1787,-3354.4229L13549.1667,-3354.4164L13549.146,-3354.4053L13549.1428,-3354.4089L13549.1667,-3354.421L13549.1815,-3354.4286L13549.2244,-3354.3672L13549.2382,-3354.3808L13549.3125,-3354.4174L13549.3216,-3354.4298L13549.3318,-3354.4442L13549.3502,-3354.4689L13549.3632,-3354.4781L13549.3687,-3354.4808L13549.3697,-3354.5011L13549.3627,-3354.5279L13549.3497,-3354.5589L13549.3409,-3354.594L13549.3204,-3354.6397L13549.2978,-3354.6604L13549.2758,-3354.6664L13549.2531,-3354.6358L13549.2434,-3354.6412L13549.2832,-3354.6922L13549.3199,-3354.7176L13549.3219,-3354.719L13549.3225,-3354.7257L13549.3214,-3354.7323L13549.3199,-3354.7335L13549.2873,-3354.7489L13549.2857,-3354.7511L13549.2759,-3354.7713L13549.2648,-3354.794L13549.231,-3354.7622L13549.2291,-3354.7641L13549.2638,-3354.797L13549.262,-3354.7991L13549.2503,-3354.8096L13549.242,-3354.8199L13549.23,-3354.8258L13549.2177,-3354.8338L13549.1948,-3354.8533L13549.1693,-3354.879L13549.1667,-3354.8774L13549.1583,-3354.8723L13549.021,-3354.7119L13548.9343,-3354.7634L13548.9097,-3354.759L13548.9088,-3354.7636L13548.9407,-3354.7693L13548.9535,-3354.7846L13548.9575,-3354.7824L13548.9447,-3354.766L13549.0212,-3354.7214L13549.1523,-3354.8735L13549.0901,-3354.9093L13549.0833,-3354.9132L13549.0799,-3354.9092L13549.0366,-3354.8603L13549.0804,-3354.8341L13549.078,-3354.8312L13549.0338,-3354.8569L13548.9887,-3354.8032L13549.0337,-3354.7768L13549.0312,-3354.7737L13548.9765,-3354.8059L13548.9719,-3354.8001L13548.9689,-3354.803L13549.002,-3354.8444L13548.8889,-3354.9084L13548.8881,-3354.9089L13548.8869,-3354.9096L13548.8796,-3354.9134L13548.8625,-3354.8921L13548.8578,-3354.895L13548.875,-3354.9167L13548.7905,-3354.9636L13548.7805,-3354.9597L13548.7779,-3354.9654L13548.7838,-3354.9673L13548.7847,-3354.9654L13548.792,-3354.968L13548.7925,-3355L13548.7933,-3355.0613L13548.7776,-3355.0625L13548.7753,-3355.0626L13548.7585,-3355.0633L13548.7345,-3355.0654L13548.7112,-3355.0667L13548.6978,-3355.0657L13548.6989,-3355.0636L13548.6816,-3355.0561L13548.6778,-3355L13548.6751,-3354.9587L13548.7326,-3354.9525L13548.7315,-3354.9437L13548.7564,-3354.941L13548.7666,-3354.9381L13548.7635,-3354.9314L13548.755,-3354.9338L13548.75,-3354.9344L13548.7311,-3354.9078L13548.724,-3354.898L13548.7126,-3354.9039L13548.672,-3354.8435L13548.6812,-3354.8378L13548.6786,-3354.8343L13548.6662,-3354.8177L13548.8374,-3354.6848L13548.8391,-3354.6803L13548.8749,-3354.6919L13548.8761,-3354.6886L13548.8411,-3354.6765L13548.8576,-3354.641L13548.8487,-3354.6381L13548.8288,-3354.6805L13548.6597,-3354.812L13548.5957,-3354.8591L13548.587,-3354.8512L13548.5805,-3354.8498L13548.5834,-3354.8408L13548.578,-3354.8341L13548.5729,-3354.8289L13548.5659,-3354.8295L13548.5632,-3354.8217L13548.5511,-3354.8155L13548.5464,-3354.8154L13548.5423,-3354.8166L13548.5396,-3354.8117L13548.5276,-3354.8053L13548.5162,-3354.8067L13548.5093,-3354.8004L13548.5036,-3354.7971L13548.5,-3354.7955L13548.4915,-3354.799L13548.4873,-3354.7931L13548.4783,-3354.7883L13548.4843,-3354.7871L13548.4905,-3354.7863L13548.4942,-3354.7831L13548.4953,-3354.7754L13548.4898,-3354.7694L13548.485,-3354.7678L13548.4797,-3354.7672L13548.4799,-3354.7599L13548.4812,-3354.7575L13548.4837,-3354.755L13548.4806,-3354.7505L13548.4734,-3354.7494L13548.4703,-3354.7519L13548.4626,-3354.7554L13548.4579,-3354.7512L13548.4583,-3354.7438L13548.4549,-3354.7405L13548.4449,-3354.7395L13548.4363,-3354.735L13548.4265,-3354.7411L13548.4253,-3354.7439L13548.4272,-3354.7548L13548.4204,-3354.7604L13548.4212,-3354.763L13548.4251,-3354.7769L13548.4192,-3354.7856L13548.4211,-3354.7931L13548.417,-3354.7951L13548.4126,-3354.7981L13548.4003,-3354.7999L13548.3869,-3354.7987L13548.3747,-3354.7937L13548.3687,-3354.788L13548.3579,-3354.7739L13548.3498,-3354.7683L13548.346,-3354.7669L13548.3429,-3354.7636L13548.3411,-3354.7584L13548.3398,-3354.7583L13548.3398,-3357.4219Z"/>
<path content="和歌山県,,西牟婁郡,すさみ町,,30406" xlink:title="和歌山県" d="M13549.8419,-3353.6276L13549.8426,-3353.625L13549.8459,-3353.6259L13549.849,-3353.6253L13549.8528,-3353.6255L13549.8581,-3353.6217L13549.8617,-3353.6233L13549.8706,-3353.6225L13549.8746,-3353.6195L13549.8806,-3353.6182L13549.8878,-3353.6156L13549.8924,-3353.6096L13549.8946,-3353.6076L13549.9002,-3353.6063L13549.9024,-3353.6026L13549.9063,-3353.5993L13549.9115,-3353.5951L13549.9156,-3353.587L13549.9116,-3353.5812L13549.9115,-3353.5771L13549.9073,-3353.5716L13549.8981,-3353.5716L13549.8972,-3353.5654L13549.8952,-3353.5619L13549.8939,-3353.56L13549.8906,-3353.5555L13549.8837,-3353.5551L13549.8815,-3353.5559L13549.8775,-3353.5566L13549.8744,-3353.5599L13549.8722,-3353.5622L13549.8678,-3353.5644L13549.8658,-3353.5666L13549.8649,-3353.5728L13549.8594,-3353.5733L13549.856,-3353.5769L13549.8536,-3353.581L13549.8456,-3353.5831L13549.8429,-3353.5864L13549.8369,-3353.5888L13549.8334,-3353.5929L13549.8339,-3353.597L13549.8281,-3353.5976L13549.8234,-3353.6012L13549.8226,-3353.6047L13549.8166,-3353.6088L13549.8157,-3353.614L13549.8164,-3353.6172L13549.8142,-3353.6208L13549.8145,-3353.6252L13549.8159,-3353.6281L13549.8157,-3353.6325L13549.817,-3353.6348L13549.8195,-3353.6352L13549.8242,-3353.6362L13549.8295,-3353.636L13549.8321,-3353.6332L13549.8377,-3353.632L13549.8419,-3353.6276Z"/>
<path content="和歌山県,,西牟婁郡,すさみ町,,30406" xlink:title="和歌山県" d="M13549.4717,-3353.9454L13549.4751,-3353.9439L13549.4767,-3353.9416L13549.4754,-3353.9393L13549.4738,-3353.9376L13549.4699,-3353.9361L13549.465,-3353.9341L13549.4597,-3353.9332L13549.4578,-3353.9303L13549.4526,-3353.9288L13549.4475,-3353.9296L13549.4455,-3353.9293L13549.442,-3353.9274L13549.4369,-3353.926L13549.4337,-3353.9261L13549.4327,-3353.9239L13549.4282,-3353.9216L13549.4241,-3353.9212L13549.424,-3353.9183L13549.424,-3353.9151L13549.42,-3353.9126L13549.4148,-3353.9124L13549.4121,-3353.9134L13549.4094,-3353.9113L13549.4036,-3353.9108L13549.4005,-3353.9112L13549.3988,-3353.9121L13549.3965,-3353.9083L13549.3898,-3353.9068L13549.3872,-3353.906L13549.3835,-3353.9029L13549.3785,-3353.9009L13549.3748,-3353.9005L13549.3723,-3353.9009L13549.3683,-3353.8965L13549.3637,-3353.896L13549.3594,-3353.8965L13549.3505,-3353.9006L13549.35,-3353.903L13549.3529,-3353.9064L13549.354,-3353.9094L13549.3563,-3353.9118L13549.3611,-3353.9139L13549.3638,-3353.9173L13549.3686,-3353.9199L13549.3711,-3353.9227L13549.373,-3353.9253L13549.3762,-3353.9264L13549.38,-3353.9261L13549.3812,-3353.9284L13549.3845,-3353.9303L13549.3914,-3353.931L13549.3939,-3353.9331L13549.3977,-3353.9338L13549.4012,-3353.9333L13549.4044,-3353.9348L13549.4075,-3353.9364L13549.4103,-3353.9354L13549.4142,-3353.938L13549.4169,-3353.9388L13549.4213,-3353.9379L13549.4255,-3353.9389L13549.4286,-3353.9408L13549.4371,-3353.9416L13549.4408,-3353.9425L13549.4453,-3353.9432L13549.4494,-3353.943L13549.4522,-3353.9448L13549.4559,-3353.9456L13549.4602,-3353.9445L13549.4629,-3353.9444L13549.4648,-3353.9456L13549.4683,-3353.9458L13549.4717,-3353.9454Z"/>
<path content="和歌山県,,西牟婁郡,すさみ町,,30406" xlink:title="和歌山県" d="M13549.4215,-3353.8951L13549.42,-3353.8927L13549.4234,-3353.8898L13549.4221,-3353.8848L13549.4202,-3353.883L13549.4176,-3353.8819L13549.4152,-3353.8816L13549.4107,-3353.8804L13549.4059,-3353.8803L13549.4014,-3353.8834L13549.399,-3353.8801L13549.3928,-3353.879L13549.3912,-3353.877L13549.3913,-3353.8739L13549.3877,-3353.8707L13549.3818,-3353.8695L13549.3771,-3353.8692L13549.3743,-3353.8711L13549.3734,-3353.874L13549.3714,-3353.8774L13549.3725,-3353.8803L13549.3758,-3353.8843L13549.379,-3353.8866L13549.3836,-3353.8881L13549.3858,-3353.8907L13549.3891,-3353.8917L13549.393,-3353.8911L13549.3945,-3353.8908L13549.3973,-3353.8937L13549.4007,-3353.8949L13549.4045,-3353.8943L13549.4064,-3353.8963L13549.4071,-3353.8989L13549.4107,-3353.8999L13549.4126,-3353.9L13549.4182,-3353.903L13549.4218,-3353.9027L13549.4251,-3353.9005L13549.4215,-3353.8951Z"/>
<path content="和歌山県,,西牟婁郡,すさみ町,,30406" xlink:title="和歌山県" d="M13548.981,-3354.5495L13548.9839,-3354.4415L13548.9772,-3354.4417L13548.9747,-3354.5489L13548.981,-3354.5495Z"/>
<path content="和歌山県,,西牟婁郡,すさみ町,,30406" xlink:title="和歌山県" d="M13549.9539,-3353.6372L13549.9622,-3353.634L13549.9683,-3353.632L13549.9723,-3353.6295L13549.9733,-3353.6176L13549.9642,-3353.612L13549.9607,-3353.6118L13549.9481,-3353.6204L13549.9421,-3353.6229L13549.9358,-3353.6267L13549.9355,-3353.6322L13549.9382,-3353.6356L13549.9424,-3353.6359L13549.9476,-3353.6356L13549.9539,-3353.6372Z"/>
<path content="和歌山県,,西牟婁郡,すさみ町,,30406" xlink:title="和歌山県" d="M13549.9083,-3353.8155L13549.901,-3353.8146L13549.8977,-3353.8165L13549.8989,-3353.8279L13549.9015,-3353.8298L13549.909,-3353.8331L13549.9124,-3353.8331L13549.9157,-3353.8339L13549.9198,-3353.8376L13549.9211,-3353.8387L13549.9306,-3353.8382L13549.9353,-3353.8358L13549.9339,-3353.8325L13549.9259,-3353.8246L13549.9178,-3353.8224L13549.9083,-3353.8155Z"/>
<path content="和歌山県,,西牟婁郡,すさみ町,,30406" xlink:title="和歌山県" d="M13549.0524,-3354.032L13549.0515,-3354.0297L13549.0486,-3354.0256L13549.0439,-3354.0257L13549.0342,-3354.0297L13549.0238,-3354.0284L13549.0138,-3354.0303L13549.0101,-3354.0339L13549.0109,-3354.0361L13549.0214,-3354.043L13549.0281,-3354.0425L13549.0313,-3354.0408L13549.0382,-3354.0354L13549.0489,-3354.0344L13549.0524,-3354.032Z"/>
<path content="和歌山県,,西牟婁郡,すさみ町,,30406" xlink:title="和歌山県" d="M13550.4874,-3353.538L13550.4795,-3353.5379L13550.4729,-3353.5397L13550.4679,-3353.5431L13550.4652,-3353.5493L13550.4655,-3353.5542L13550.4655,-3353.556L13550.4677,-3353.5577L13550.4722,-3353.5577L13550.4768,-3353.5569L13550.4812,-3353.5536L13550.4879,-3353.549L13550.4892,-3353.5476L13550.4933,-3353.5429L13550.4951,-3353.5414L13550.4874,-3353.538Z"/>
<path content="和歌山県,,西牟婁郡,すさみ町,,30406" xlink:title="和歌山県" d="M13550.5185,-3353.4985L13550.5116,-3353.4969L13550.5065,-3353.4971L13550.5022,-3353.4961L13550.4982,-3353.4961L13550.4945,-3353.4988L13550.4911,-3353.504L13550.4905,-3353.5081L13550.4911,-3353.5105L13550.5037,-3353.5117L13550.5108,-3353.5119L13550.5128,-3353.51L13550.5159,-3353.5069L13550.5214,-3353.5021L13550.5219,-3353.4997L13550.5185,-3353.4985Z"/>
<path content="和歌山県,,西牟婁郡,すさみ町,,30406" xlink:title="和歌山県" d="M13548.3721,-3354.7027L13548.3681,-3354.7027L13548.3627,-3354.7061L13548.3627,-3354.7123L13548.3647,-3354.7191L13548.3714,-3354.7258L13548.3762,-3354.7258L13548.3849,-3354.7162L13548.3856,-3354.7146L13548.3842,-3354.7123L13548.3748,-3354.7039L13548.3721,-3354.7027Z"/>
<path content="和歌山県,,西牟婁郡,すさみ町,,30406" xlink:title="和歌山県" d="M13550.5792,-3353.5358L13550.5809,-3353.534L13550.5808,-3353.5313L13550.5787,-3353.5281L13550.5769,-3353.5266L13550.574,-3353.5251L13550.5622,-3353.5268L13550.5543,-3353.5282L13550.5506,-3353.5295L13550.5483,-3353.5302L13550.5457,-3353.5323L13550.5434,-3353.5345L13550.5419,-3353.5357L13550.5415,-3353.5374L13550.5425,-3353.5385L13550.5452,-3353.5386L13550.5478,-3353.5358L13550.5515,-3353.5341L13550.555,-3353.5345L13550.5617,-3353.5374L13550.5633,-3353.5396L13550.5695,-3353.5405L13550.574,-3353.5385L13550.5792,-3353.5358Z"/>
<path content="和歌山県,,西牟婁郡,すさみ町,,30406" xlink:title="和歌山県" d="M13550.6069,-3353.5426L13550.6106,-3353.542L13550.6124,-3353.5431L13550.6138,-3353.5431L13550.6151,-3353.5416L13550.6168,-3353.5406L13550.6205,-3353.5392L13550.6218,-3353.539L13550.6227,-3353.5372L13550.6242,-3353.5355L13550.6217,-3353.5322L13550.6182,-3353.5292L13550.6127,-3353.529L13550.6075,-3353.531L13550.6057,-3353.5316L13550.6038,-3353.5316L13550.5986,-3353.5333L13550.5976,-3353.5355L13550.5934,-3353.5379L13550.5924,-3353.5427L13550.5925,-3353.5443L13550.5966,-3353.5445L13550.6013,-3353.5444L13550.6069,-3353.5426Z"/>
<path content="和歌山県,,西牟婁郡,すさみ町,,30406" xlink:title="和歌山県" d="M13548.9258,-3353.6291L13548.9328,-3353.6271L13548.9413,-3353.6275L13548.9443,-3353.6258L13548.9448,-3353.6225L13548.942,-3353.6187L13548.9266,-3353.6158L13548.9222,-3353.616L13548.9198,-3353.6184L13548.9164,-3353.6223L13548.9179,-3353.6268L13548.9258,-3353.6291Z"/>
<path content="和歌山県,,西牟婁郡,すさみ町,,30406" xlink:title="和歌山県" d="M13549.0665,-3354.4383L13549.0652,-3354.4383L13549.0591,-3354.4423L13549.0551,-3354.4473L13549.0544,-3354.4513L13549.0477,-3354.4564L13549.0464,-3354.4609L13549.047,-3354.4637L13549.0497,-3354.4654L13549.0517,-3354.4654L13549.0578,-3354.4609L13549.0645,-3354.4502L13549.0672,-3354.449L13549.0692,-3354.4451L13549.0692,-3354.4428L13549.0679,-3354.4394L13549.0665,-3354.4383Z"/>
<path content="和歌山県,,西牟婁郡,すさみ町,,30406" xlink:title="和歌山県" d="M13550.9409,-3353.4425L13550.9399,-3353.4393L13550.9441,-3353.4398L13550.9466,-3353.4389L13550.9472,-3353.4358L13550.9401,-3353.433L13550.9348,-3353.4318L13550.9285,-3353.4339L13550.9274,-3353.4365L13550.9281,-3353.4382L13550.9262,-3353.4393L13550.9243,-3353.4393L13550.9222,-3353.4405L13550.9226,-3353.4432L13550.9279,-3353.4462L13550.9359,-3353.4487L13550.9405,-3353.4494L13550.9426,-3353.4465L13550.9426,-3353.4443L13550.9409,-3353.4425Z"/>
<path content="和歌山県,,西牟婁郡,すさみ町,,30406" xlink:title="和歌山県" d="M13549.4955,-3353.932L13549.4982,-3353.93L13549.5037,-3353.9296L13549.5053,-3353.9269L13549.5048,-3353.9237L13549.5005,-3353.9223L13549.4974,-3353.9234L13549.4939,-3353.9216L13549.4882,-3353.9212L13549.4836,-3353.9196L13549.48,-3353.9207L13549.4768,-3353.9228L13549.4762,-3353.9255L13549.4776,-3353.9271L13549.4788,-3353.9283L13549.4808,-3353.93L13549.4847,-3353.9311L13549.4873,-3353.9307L13549.4905,-3353.9323L13549.4955,-3353.932Z"/>
<path content="和歌山県,,西牟婁郡,すさみ町,,30406" xlink:title="和歌山県" d="M13549.5449,-3353.9276L13549.5469,-3353.9259L13549.5504,-3353.9264L13549.553,-3353.9261L13549.5553,-3353.9241L13549.5547,-3353.9219L13549.5508,-3353.9208L13549.5482,-3353.9187L13549.5421,-3353.9174L13549.5373,-3353.9165L13549.5303,-3353.9174L13549.5266,-3353.9187L13549.5243,-3353.9203L13549.5253,-3353.9221L13549.5297,-3353.9247L13549.5336,-3353.9245L13549.536,-3353.9274L13549.5388,-3353.9286L13549.5414,-3353.9287L13549.5449,-3353.9276Z"/>
<path content="和歌山県,,西牟婁郡,すさみ町,,30406" xlink:title="和歌山県" d="M13548.3427,-3354.6765L13548.3398,-3354.6759L13548.3398,-3354.6926L13548.3405,-3354.6931L13548.3452,-3354.6937L13548.3486,-3354.692L13548.3499,-3354.6903L13548.3466,-3354.6779L13548.3427,-3354.6765Z"/>
<path content="和歌山県,,西牟婁郡,すさみ町,,30406" xlink:title="和歌山県" d="M13550.4994,-3353.5224L13550.5014,-3353.5188L13550.4997,-3353.516L13550.4971,-3353.5162L13550.4934,-3353.5184L13550.4905,-3353.5193L13550.4882,-3353.5193L13550.4882,-3353.5172L13550.4871,-3353.5155L13550.4837,-3353.5143L13550.4817,-3353.5143L13550.4777,-3353.5188L13550.4771,-3353.5234L13550.4811,-3353.5258L13550.4871,-3353.5267L13550.494,-3353.527L13550.4962,-3353.5265L13550.4994,-3353.5224Z"/>
<path content="和歌山県,,西牟婁郡,すさみ町,,30406" xlink:title="和歌山県" d="M13549.4336,-3353.7185L13549.4287,-3353.7164L13549.4227,-3353.7171L13549.4191,-3353.718L13549.4169,-3353.7205L13549.4173,-3353.7227L13549.4213,-3353.7239L13549.4225,-3353.7239L13549.4281,-3353.7242L13549.4339,-3353.7242L13549.4378,-3353.7254L13549.4422,-3353.7272L13549.4471,-3353.726L13549.4498,-3353.7232L13549.447,-3353.7203L13549.4405,-3353.7188L13549.4336,-3353.7185Z"/>
<path content="和歌山県,,西牟婁郡,すさみ町,,30406" xlink:title="和歌山県" d="M13550.947,-3353.1836L13550.9432,-3353.1828L13550.9355,-3353.1845L13550.931,-3353.1882L13550.9256,-3353.1906L13550.923,-3353.192L13550.9232,-3353.1946L13550.9268,-3353.1989L13550.9319,-3353.199L13550.9342,-3353.196L13550.9352,-3353.1942L13550.9403,-3353.1923L13550.9458,-3353.1909L13550.946,-3353.1895L13550.947,-3353.1836Z"/>
<path content="和歌山県,,西牟婁郡,すさみ町,,30406" xlink:title="和歌山県" d="M13549.515,-3353.7116L13549.5127,-3353.71L13549.5092,-3353.7104L13549.4963,-3353.7189L13549.4958,-3353.7206L13549.5019,-3353.7233L13549.5123,-3353.7225L13549.5165,-3353.7208L13549.5173,-3353.7178L13549.515,-3353.7116Z"/>
<path content="和歌山県,,西牟婁郡,すさみ町,,30406" xlink:title="和歌山県" d="M13550.9865,-3353.2048L13550.982,-3353.2033L13550.9776,-3353.2035L13550.9728,-3353.2022L13550.9669,-3353.2024L13550.9654,-3353.2044L13550.9668,-3353.2065L13550.9736,-3353.2097L13550.9778,-3353.2126L13550.9841,-3353.2126L13550.9886,-3353.2122L13550.9905,-3353.2087L13550.9865,-3353.2048Z"/>
<path content="和歌山県,,西牟婁郡,すさみ町,,30406" xlink:title="和歌山県" d="M13550.9863,-3353.3683L13550.9792,-3353.3641L13550.9695,-3353.369L13550.9703,-3353.3805L13550.9738,-3353.3803L13550.9777,-3353.3781L13550.9823,-3353.374L13550.9863,-3353.3683Z"/>
<path content="和歌山県,,西牟婁郡,すさみ町,,30406" xlink:title="和歌山県" d="M13550.8012,-3353.5194L13550.8027,-3353.5174L13550.8046,-3353.5159L13550.8054,-3353.5144L13550.8067,-3353.5113L13550.8081,-3353.5074L13550.8072,-3353.5062L13550.8044,-3353.5051L13550.796,-3353.5094L13550.7943,-3353.5097L13550.7931,-3353.5144L13550.7942,-3353.5158L13550.7948,-3353.5171L13550.7935,-3353.5177L13550.7931,-3353.5177L13550.7923,-3353.5218L13550.793,-3353.523L13550.7999,-3353.5218L13550.8002,-3353.5205L13550.8012,-3353.5194Z"/>
<path content="和歌山県,,西牟婁郡,すさみ町,,30406" xlink:title="和歌山県" d="M13549.054,-3353.7702L13549.0396,-3353.7648L13549.0317,-3353.7666L13549.0309,-3353.7686L13549.0331,-3353.7716L13549.0478,-3353.7755L13549.0523,-3353.7754L13549.0555,-3353.7745L13549.0561,-3353.7725L13549.054,-3353.7702Z"/>
<path content="和歌山県,,西牟婁郡,すさみ町,,30406" xlink:title="和歌山県" d="M13550.7917,-3353.515L13550.7923,-3353.5136L13550.7925,-3353.5127L13550.7925,-3353.5114L13550.7906,-3353.5096L13550.7893,-3353.5081L13550.7877,-3353.5074L13550.7848,-3353.5073L13550.7834,-3353.5064L13550.7813,-3353.5068L13550.7794,-3353.508L13550.7774,-3353.5086L13550.7751,-3353.5103L13550.7774,-3353.5128L13550.7795,-3353.511L13550.7823,-3353.5107L13550.7835,-3353.5116L13550.7856,-3353.5121L13550.7852,-3353.5133L13550.7831,-3353.5146L13550.7805,-3353.5148L13550.7791,-3353.5148L13550.7793,-3353.5156L13550.7828,-3353.5174L13550.7849,-3353.519L13550.7875,-3353.5208L13550.7885,-3353.5216L13550.7899,-3353.5216L13550.7914,-3353.5205L13550.7916,-3353.5196L13550.7924,-3353.5179L13550.792,-3353.516L13550.7917,-3353.515Z"/>
<path content="和歌山県,,西牟婁郡,すさみ町,,30406" xlink:title="和歌山県" d="M13550.9944,-3353.2467L13550.9923,-3353.244L13550.9881,-3353.2464L13550.9831,-3353.2465L13550.9797,-3353.2467L13550.9749,-3353.247L13550.9727,-3353.2486L13550.9732,-3353.2502L13550.9782,-3353.2519L13550.9822,-3353.2537L13550.985,-3353.2546L13550.9877,-3353.2535L13550.9924,-3353.2495L13550.9944,-3353.2467Z"/>
<path content="和歌山県,,西牟婁郡,すさみ町,,30406" xlink:title="和歌山県" d="M13549.6022,-3354.0397L13549.5934,-3354.0392L13549.5874,-3354.0403L13549.586,-3354.0414L13549.5867,-3354.0437L13549.5921,-3354.0482L13549.6035,-3354.0437L13549.6042,-3354.0414L13549.6022,-3354.0397Z"/>
<path content="和歌山県,,西牟婁郡,すさみ町,,30406" xlink:title="和歌山県" d="M13549.5206,-3353.938L13549.5147,-3353.936L13549.5103,-3353.9401L13549.5101,-3353.943L13549.5145,-3353.9476L13549.5172,-3353.9477L13549.5201,-3353.9469L13549.5212,-3353.9423L13549.5206,-3353.938Z"/>
<path content="和歌山県,,西牟婁郡,すさみ町,,30406" xlink:title="和歌山県" d="M13550.9527,-3353.403L13550.9506,-3353.4029L13550.9498,-3353.4051L13550.951,-3353.4081L13550.9493,-3353.4118L13550.9477,-3353.4136L13550.9466,-3353.4155L13550.9483,-3353.4179L13550.9491,-3353.4201L13550.9483,-3353.4239L13550.9494,-3353.4261L13550.9514,-3353.4247L13550.9523,-3353.421L13550.9542,-3353.4158L13550.9538,-3353.412L13550.9548,-3353.4083L13550.9533,-3353.4069L13550.9527,-3353.403Z"/>
<path content="和歌山県,,西牟婁郡,すさみ町,,30406" xlink:title="和歌山県" d="M13550.935,-3353.3755L13550.934,-3353.3742L13550.9278,-3353.3774L13550.9247,-3353.3815L13550.9236,-3353.3858L13550.9257,-3353.3868L13550.9281,-3353.3868L13550.9312,-3353.3852L13550.9342,-3353.3817L13550.9354,-3353.3787L13550.935,-3353.3755Z"/>
<path content="和歌山県,,西牟婁郡,すさみ町,,30406" xlink:title="和歌山県" d="M13549.062,-3353.9582L13549.0608,-3353.9581L13549.0559,-3353.9611L13549.0551,-3353.965L13549.0595,-3353.9684L13549.0629,-3353.9675L13549.0678,-3353.9633L13549.0671,-3353.9607L13549.062,-3353.9582Z"/>
<path content="和歌山県,,西牟婁郡,すさみ町,,30406" xlink:title="和歌山県" d="M13550.8756,-3353.5033L13550.8741,-3353.5012L13550.8728,-3353.5008L13550.8704,-3353.5029L13550.8697,-3353.5027L13550.8709,-3353.5016L13550.8709,-3353.5003L13550.8699,-3353.4995L13550.8669,-3353.5015L13550.8659,-3353.5029L13550.8659,-3353.5037L13550.8632,-3353.5064L13550.8618,-3353.5078L13550.8628,-3353.5096L13550.8657,-3353.5101L13550.8692,-3353.5099L13550.8729,-3353.5072L13550.8758,-3353.5051L13550.8756,-3353.5033Z"/>
<path content="和歌山県,,西牟婁郡,すさみ町,,30406" xlink:title="和歌山県" d="M13549.6319,-3353.9985L13549.6292,-3353.9963L13549.6265,-3353.9969L13549.6231,-3354.0002L13549.6211,-3354.0042L13549.6225,-3354.0075L13549.6258,-3354.0075L13549.6298,-3354.0053L13549.6319,-3354.0008L13549.6319,-3353.9985Z"/>
<path content="和歌山県,,西牟婁郡,すさみ町,,30406" xlink:title="和歌山県" d="M13549.4677,-3353.9012L13549.4624,-3353.9012L13549.4593,-3353.9033L13549.4592,-3353.9063L13549.4659,-3353.9072L13549.4703,-3353.9073L13549.4732,-3353.9067L13549.4737,-3353.9043L13549.4724,-3353.902L13549.4677,-3353.9012Z"/>
<path content="和歌山県,,西牟婁郡,すさみ町,,30406" xlink:title="和歌山県" d="M13549.1046,-3353.5443L13549.1001,-3353.5436L13549.0964,-3353.5462L13549.0968,-3353.5487L13549.0999,-3353.5517L13549.1058,-3353.5514L13549.1076,-3353.5498L13549.1071,-3353.5461L13549.1046,-3353.5443Z"/>
<path content="和歌山県,,西牟婁郡,すさみ町,,30406" xlink:title="和歌山県" d="M13549.3522,-3353.8637L13549.3444,-3353.8629L13549.3419,-3353.8661L13549.3437,-3353.8684L13549.3461,-3353.8694L13549.354,-3353.8692L13549.3559,-3353.8677L13549.3558,-3353.8661L13549.3541,-3353.8646L13549.3522,-3353.8637Z"/>
<path content="和歌山県,,西牟婁郡,すさみ町,,30406" xlink:title="和歌山県" d="M13549.6412,-3354.02L13549.6387,-3354.016L13549.6357,-3354.0168L13549.634,-3354.0191L13549.6358,-3354.0251L13549.6399,-3354.0274L13549.6432,-3354.0268L13549.6432,-3354.0234L13549.6412,-3354.02Z"/>
<path content="和歌山県,,西牟婁郡,すさみ町,,30406" xlink:title="和歌山県" d="M13549.3274,-3353.8873L13549.3229,-3353.8854L13549.32,-3353.8874L13549.3171,-3353.8911L13549.3181,-3353.8923L13549.3214,-3353.8951L13549.3242,-3353.8945L13549.3258,-3353.8931L13549.3263,-3353.8927L13549.3279,-3353.8908L13549.3274,-3353.8873Z"/>
<path content="和歌山県,,西牟婁郡,すさみ町,,30406" xlink:title="和歌山県" d="M13549.5524,-3353.7316L13549.5511,-3353.7316L13549.5444,-3353.7327L13549.5418,-3353.7343L13549.5418,-3353.736L13549.5442,-3353.7374L13549.5504,-3353.7372L13549.5553,-3353.7364L13549.5568,-3353.7347L13549.5558,-3353.7332L13549.5544,-3353.7323L13549.5524,-3353.7316Z"/>
<path content="和歌山県,,西牟婁郡,すさみ町,,30406" xlink:title="和歌山県" d="M13549.5802,-3353.725L13549.5739,-3353.7243L13549.5721,-3353.726L13549.5728,-3353.7294L13549.5785,-3353.7323L13549.5823,-3353.7312L13549.5832,-3353.7282L13549.5802,-3353.725Z"/>
<path content="和歌山県,,西牟婁郡,すさみ町,,30406" xlink:title="和歌山県" d="M13550.4897,-3353.1583L13550.487,-3353.1577L13550.4809,-3353.1588L13550.4776,-3353.1611L13550.4776,-3353.1622L13550.4809,-3353.1645L13550.4876,-3353.1633L13550.4903,-3353.16L13550.4897,-3353.1583Z"/>
<path content="和歌山県,,西牟婁郡,すさみ町,,30406" xlink:title="和歌山県" d="M13550.0179,-3353.5784L13550.017,-3353.5764L13550.0149,-3353.5778L13550.0139,-3353.5798L13550.0116,-3353.5822L13550.0099,-3353.5841L13550.0108,-3353.5852L13550.013,-3353.5858L13550.0144,-3353.5864L13550.0168,-3353.5847L13550.0205,-3353.5817L13550.02,-3353.5796L13550.0189,-3353.5792L13550.0179,-3353.5784Z"/>
<path content="和歌山県,,西牟婁郡,すさみ町,,30406" xlink:title="和歌山県" d="M13549.5761,-3353.9885L13549.5725,-3353.9882L13549.5695,-3353.9905L13549.5693,-3353.9929L13549.574,-3353.9955L13549.577,-3353.9952L13549.5786,-3353.9925L13549.5787,-3353.9905L13549.5761,-3353.9885Z"/>
<path content="和歌山県,,西牟婁郡,すさみ町,,30406" xlink:title="和歌山県" d="M13550.9146,-3353.3691L13550.9133,-3353.3658L13550.9116,-3353.3661L13550.908,-3353.3696L13550.9068,-3353.3718L13550.9154,-3353.3737L13550.9171,-3353.3729L13550.9146,-3353.3691Z"/>
<path content="和歌山県,,西牟婁郡,すさみ町,,30406" xlink:title="和歌山県" d="M13549.0099,-3353.7338L13549.0048,-3353.7337L13549.0006,-3353.7366L13549.0012,-3353.7385L13549.0026,-3353.7401L13549.0077,-3353.7387L13549.0104,-3353.7357L13549.0099,-3353.7338Z"/>
<path content="和歌山県,,西牟婁郡,すさみ町,,30406" xlink:title="和歌山県" d="M13549.5512,-3354.1307L13549.5476,-3354.1302L13549.546,-3354.1316L13549.5466,-3354.1352L13549.5494,-3354.1373L13549.5528,-3354.1374L13549.5535,-3354.1332L13549.5512,-3354.1307Z"/>
<path content="和歌山県,,西牟婁郡,すさみ町,,30406" xlink:title="和歌山県" d="M13548.7537,-3354.078L13548.7505,-3354.0778L13548.7475,-3354.0797L13548.7476,-3354.0821L13548.7485,-3354.083L13548.751,-3354.0837L13548.7545,-3354.0831L13548.7558,-3354.0814L13548.756,-3354.08L13548.755,-3354.0787L13548.7537,-3354.078Z"/>
<path content="和歌山県,,西牟婁郡,すさみ町,,30406" xlink:title="和歌山県" d="M13550.462,-3353.5043L13550.4606,-3353.5031L13550.4586,-3353.5038L13550.4551,-3353.5064L13550.4546,-3353.5081L13550.4566,-3353.5093L13550.4594,-3353.5083L13550.4617,-3353.5064L13550.462,-3353.5043Z"/>
<path content="和歌山県,,西牟婁郡,すさみ町,,30406" xlink:title="和歌山県" d="M13549.5793,-3353.9591L13549.5771,-3353.9588L13549.5756,-3353.9609L13549.5772,-3353.9641L13549.5789,-3353.964L13549.5812,-3353.9634L13549.5823,-3353.9618L13549.5815,-3353.9603L13549.5793,-3353.9591Z"/>
</g>
</svg>
