<?xml version="1.0" encoding="UTF-8"?>
<svg  xmlns="http://www.w3.org/2000/svg" xmlns:xlink="http://www.w3.org/1999/xlink" xmlns:go="http://purl.org/svgmap/profile" property="geometry,N03_001,N03_002,N03_003,N03_004,N03_005,N03_007" viewBox="13508.7890625 -3467.28515625 4.39453125 4.39453125" go:dataArea="13508.7890625 -3467.28515625 4.39453125 4.39453125" >
<metadata>
 <rdf:RDF xmlns:rdf="http://www.w3.org/1999/02/22-rdf-syntax-ns#" xmlns:crs="http://opengis.org/xmldtds/transformations.dtd" xmlns:svg="http://www.w3.org/svg" >
  <rdf:Description>
   <crs:CoordinateReferenceSystem rdf:resource="http://purl.org/crs/84" svg:transform="matrix(100.0,0.0,0.0,-100.0,0.0,0.0)" />
  </rdf:Description>
 </rdf:RDF>
</metadata>
<globalCoordinateSystem srsName="http://purl.org/crs/84" transform="matrix(100.0,0.0,0.0,-100.0,0.0,0.0)" />
<defs>
 <g id="p0" >
  <circle cx="0.0" cy="0.0" r="3" stroke="green" stroke-width="2.0" vector-effect="non-scaling-stroke" />
 </g>
</defs>
<g fill="#0000ff" fill-rule="evenodd" opacity="0.5" >
<path content="兵庫県,,,神戸市,長田区,28106" xlink:title="兵庫県" d="M13513.1836,-3467.2852L13513.1836,-3466.7388L13513.1824,-3466.74L13513.1836,-3466.7508L13513.1836,-3466.9173L13513.1555,-3466.9518L13513.1514,-3466.965L13513.1497,-3466.9772L13513.1476,-3466.9917L13513.1447,-3467.0391L13513.1402,-3467.0753L13513.1368,-3467.0927L13513.1231,-3467.1053L13513.1186,-3467.1138L13513.122,-3467.1255L13513.1254,-3467.134L13513.126,-3467.1495L13513.1243,-3467.1865L13513.1214,-3467.2325L13513.1202,-3467.2457L13513.1169,-3467.2814L13513.114,-3467.2852L13513.0467,-3467.2852L13513.0441,-3467.2842L13513.0236,-3467.271L13513.0082,-3467.2551L13512.9803,-3467.2377L13512.9621,-3467.2311L13512.9411,-3467.233L13512.9195,-3467.2414L13512.9132,-3467.2522L13512.8962,-3467.2852Z"/>
<path content="兵庫県,,,神戸市,須磨区,28107" xlink:title="兵庫県" d="M13512.8962,-3467.2852L13512.9132,-3467.2522L13512.9195,-3467.2414L13512.9411,-3467.233L13512.9621,-3467.2311L13512.9803,-3467.2377L13513.0082,-3467.2551L13513.0236,-3467.271L13513.0441,-3467.2842L13513.0467,-3467.2852L13513.114,-3467.2852L13513.1169,-3467.2814L13513.1202,-3467.2457L13513.1214,-3467.2325L13513.1243,-3467.1865L13513.126,-3467.1495L13513.1254,-3467.134L13513.122,-3467.1255L13513.1186,-3467.1138L13513.1231,-3467.1053L13513.1368,-3467.0927L13513.1402,-3467.0753L13513.1447,-3467.0391L13513.1476,-3466.9917L13513.1497,-3466.9772L13513.1514,-3466.965L13513.1555,-3466.9518L13513.1836,-3466.9173L13513.1836,-3466.7508L13513.1824,-3466.74L13513.1836,-3466.7388L13513.1836,-3464.1108L13513.1629,-3464.0949L13513.1602,-3464.0975L13513.1641,-3464.1004L13513.1625,-3464.1019L13513.1502,-3464.1135L13513.1318,-3464.1135L13513.1316,-3464.1172L13513.152,-3464.1172L13513.1661,-3464.1039L13513.1672,-3464.1028L13513.1836,-3464.1153L13513.1836,-3464.2407L13513.1423,-3464.2407L13513.134,-3464.2406L13513.1131,-3464.2406L13513.113,-3464.2421L13513.1129,-3464.2483L13513.1015,-3464.2481L13513.1016,-3464.2273L13513.0988,-3464.2273L13513.0984,-3464.2424L13513.087,-3464.2422L13513.087,-3464.2403L13513.0292,-3464.2386L13513.0258,-3464.2386L13513.0224,-3464.2386L13513.0189,-3464.2386L13513.0155,-3464.2388L13513.012,-3464.2389L13513.0086,-3464.2392L13512.9934,-3464.2402L13512.9936,-3464.2048L13512.9938,-3464.1736L13512.9938,-3464.1667L13512.994,-3464.1388L13512.9941,-3464.1316L13512.9957,-3464.1317L13512.996,-3464.0903L13513.1068,-3464.0907L13513.1069,-3464.0923L13513.1069,-3464.1046L13513.1109,-3464.1046L13513.111,-3464.0922L13513.111,-3464.0907L13513.1256,-3464.0907L13513.1262,-3464.0907L13513.1379,-3464.0907L13513.1379,-3464.0863L13513.1284,-3464.0862L13513.1256,-3464.0862L13513.0429,-3464.0859L13513.0427,-3464.0831L13513.0215,-3464.0823L13513.0064,-3464.0672L13513.0705,-3464.0234L13513.163,-3463.96L13513.1556,-3463.9524L13512.9872,-3464.0676L13512.9862,-3464.1667L13512.9862,-3464.1756L13512.9827,-3464.1753L13512.9825,-3464.1798L13512.9861,-3464.1801L13512.9861,-3464.1849L13512.9827,-3464.1848L13512.9823,-3464.2102L13512.9711,-3464.2108L13512.9619,-3464.2111L13512.9548,-3464.2114L13512.9462,-3464.2119L13512.9419,-3464.2124L13512.9389,-3464.2129L13512.9343,-3464.2137L13512.9257,-3464.2156L13512.9167,-3464.2176L13512.9124,-3464.2186L13512.9085,-3464.2197L13512.9022,-3464.2218L13512.8878,-3464.2273L13512.8791,-3464.2304L13512.8612,-3464.2357L13512.8533,-3464.2374L13512.8445,-3464.2397L13512.8343,-3464.242L13512.8271,-3464.2435L13512.8211,-3464.2446L13512.8121,-3464.2459L13512.8036,-3464.2469L13512.7843,-3464.249L13512.7764,-3464.2499L13512.7678,-3464.2504L13512.761,-3464.251L13512.7525,-3464.2519L13512.7457,-3464.2525L13512.7405,-3464.2528L13512.7337,-3464.2529L13512.7264,-3464.2528L13512.7092,-3464.253L13512.7016,-3464.2537L13512.6933,-3464.2544L13512.6827,-3464.2551L13512.6745,-3464.2556L13512.6655,-3464.2558L13512.6569,-3464.2558L13512.6486,-3464.2552L13512.6412,-3464.2547L13512.6334,-3464.254L13512.6247,-3464.2535L13512.6196,-3464.2528L13512.6133,-3464.2516L13512.6065,-3464.2499L13512.5977,-3464.2479L13512.5897,-3464.2465L13512.5837,-3464.2452L13512.5776,-3464.2436L13512.5704,-3464.2412L13512.5637,-3464.2387L13512.5569,-3464.2361L13512.5504,-3464.2334L13512.5447,-3464.2311L13512.5401,-3464.2287L13512.5341,-3464.2257L13512.5288,-3464.2226L13512.5223,-3464.2187L13512.5158,-3464.2145L13512.5048,-3464.207L13512.5,-3464.2039L13512.4992,-3464.2034L13512.4944,-3464.1996L13512.4904,-3464.196L13512.4862,-3464.1922L13512.4822,-3464.1877L13512.4784,-3464.1839L13512.4751,-3464.1809L13512.472,-3464.1787L13512.4687,-3464.1768L13512.4651,-3464.1753L13512.4616,-3464.1747L13512.4617,-3464.1667L13512.4617,-3464.1666L13512.4608,-3464.1666L13512.4608,-3464.1667L13512.4608,-3464.1746L13512.4575,-3464.1667L13512.4536,-3464.1573L13512.454,-3464.1573L13512.454,-3464.1485L13512.4474,-3464.1486L13512.4471,-3464.1575L13512.4443,-3464.1575L13512.4423,-3464.1588L13512.4388,-3464.1619L13512.4356,-3464.1646L13512.4334,-3464.1667L13512.4324,-3464.1677L13512.4294,-3464.1707L13512.4264,-3464.1735L13512.4219,-3464.1763L13512.4176,-3464.1789L13512.4122,-3464.1823L13512.4067,-3464.1852L13512.4034,-3464.1872L13512.4006,-3464.1896L13512.3971,-3464.1918L13512.3939,-3464.1942L13512.3904,-3464.1967L13512.386,-3464.1993L13512.3818,-3464.2021L13512.3783,-3464.2046L13512.374,-3464.2072L13512.3683,-3464.2105L13512.3612,-3464.2137L13512.3551,-3464.2163L13512.3495,-3464.2186L13512.3433,-3464.2205L13512.3359,-3464.2228L13512.3301,-3464.2248L13512.324,-3464.227L13512.3182,-3464.2289L13512.3119,-3464.2304L13512.3036,-3464.2326L13512.2972,-3464.2338L13512.291,-3464.2349L13512.2852,-3464.2359L13512.2811,-3464.2364L13512.2738,-3464.2366L13512.2666,-3464.237L13512.2608,-3464.2367L13512.2549,-3464.236L13512.2489,-3464.2352L13512.2443,-3464.234L13512.2462,-3464.2243L13512.2473,-3464.2244L13512.2487,-3464.2157L13512.243,-3464.2151L13512.2417,-3464.2238L13512.2426,-3464.2238L13512.2404,-3464.236L13512.2375,-3464.2372L13512.2346,-3464.2375L13512.2321,-3464.2372L13512.2288,-3464.2362L13512.2255,-3464.2359L13512.2239,-3464.236L13512.2211,-3464.2363L13512.2169,-3464.2369L13512.2112,-3464.2376L13512.2045,-3464.2382L13512.1979,-3464.2387L13512.1869,-3464.2393L13512.1822,-3464.2392L13512.1759,-3464.2392L13512.1699,-3464.239L13512.1648,-3464.2385L13512.1579,-3464.2375L13512.1507,-3464.2366L13512.1423,-3464.2355L13512.1341,-3464.2347L13512.1286,-3464.2342L13512.1214,-3464.2328L13512.1069,-3464.2296L13512.0999,-3464.2281L13512.0938,-3464.2263L13512.088,-3464.2245L13512.0819,-3464.2224L13512.0777,-3464.2205L13512.0736,-3464.2186L13512.0675,-3464.2155L13512.0609,-3464.2126L13512.0556,-3464.2102L13512.0493,-3464.2073L13512.0445,-3464.2048L13512.0396,-3464.2022L13512.0351,-3464.2003L13512.0304,-3464.1973L13512.0252,-3464.1936L13512.0201,-3464.1891L13512.0133,-3464.184L13512.0071,-3464.1792L13512.0003,-3464.1737L13511.9918,-3464.1667L13511.9856,-3464.1615L13511.9801,-3464.1568L13511.976,-3464.1524L13511.9724,-3464.1486L13511.97,-3464.1471L13511.967,-3464.1458L13511.9636,-3464.1448L13511.9599,-3464.1442L13511.9548,-3464.1441L13511.9586,-3464.1215L13511.9521,-3464.121L13511.9499,-3464.1339L13511.9456,-3464.1358L13511.9378,-3464.1391L13511.9298,-3464.1429L13511.923,-3464.1464L13511.9181,-3464.1491L13511.9124,-3464.1519L13511.9073,-3464.1545L13511.8994,-3464.158L13511.893,-3464.1609L13511.8861,-3464.1645L13511.8813,-3464.1667L13511.8797,-3464.1674L13511.8712,-3464.1711L13511.8707,-3464.1713L13511.8643,-3464.1739L13511.8581,-3464.1758L13511.8517,-3464.1778L13511.8435,-3464.1799L13511.8361,-3464.1815L13511.8287,-3464.1826L13511.8202,-3464.1838L13511.8126,-3464.1848L13511.8036,-3464.1854L13511.7961,-3464.1861L13511.7898,-3464.1863L13511.7847,-3464.1862L13511.778,-3464.1859L13511.7682,-3464.1847L13511.7539,-3464.1826L13511.7376,-3464.1805L13511.7393,-3464.1667L13511.74,-3464.1607L13511.7348,-3464.1603L13511.7342,-3464.1667L13511.7337,-3464.172L13511.7297,-3464.1715L13511.7252,-3464.1706L13511.7191,-3464.1688L13511.7137,-3464.1677L13511.7098,-3464.1667L13511.7088,-3464.1664L13511.7042,-3464.1652L13511.7,-3464.1634L13511.6962,-3464.1622L13511.6918,-3464.1609L13511.6849,-3464.1594L13511.6816,-3464.1587L13511.679,-3464.158L13511.6757,-3464.1563L13511.671,-3464.1542L13511.6667,-3464.1529L13511.6627,-3464.1517L13511.6488,-3464.1471L13511.6328,-3464.1419L13511.6158,-3464.1357L13511.599,-3464.13L13511.5914,-3464.1279L13511.5977,-3464.0976L13511.5987,-3464.0977L13511.6042,-3464.0717L13511.6047,-3464.0717L13511.6086,-3464.0538L13511.602,-3464.0529L13511.5984,-3464.0699L13511.5856,-3464.131L13511.5782,-3464.1653L13511.5779,-3464.1667L13511.5764,-3464.1739L13511.5657,-3464.1726L13511.5669,-3464.1667L13511.5677,-3464.1631L13511.5637,-3464.1627L13511.5629,-3464.1667L13511.5619,-3464.1716L13511.5601,-3464.1731L13511.5571,-3464.1735L13511.5488,-3464.1728L13511.5333,-3464.1708L13511.5217,-3464.1687L13511.5222,-3464.1667L13511.5276,-3464.143L13511.5497,-3464.0368L13511.5395,-3464.0355L13511.532,-3464.0712L13511.5334,-3464.0716L13511.5262,-3464.1073L13511.5272,-3464.1075L13511.5216,-3464.1344L13511.5231,-3464.1348L13511.522,-3464.1402L13511.5216,-3464.1402L13511.5183,-3464.1397L13511.5144,-3464.1391L13511.5085,-3464.1381L13511.5031,-3464.1375L13511.4967,-3464.137L13511.4893,-3464.1367L13511.4782,-3464.1366L13511.461,-3464.1369L13511.4468,-3464.1373L13511.4397,-3464.1373L13511.4334,-3464.137L13511.4239,-3464.1362L13511.4122,-3464.1358L13511.3978,-3464.1353L13511.389,-3464.1345L13511.3802,-3464.1342L13511.3596,-3464.134L13511.3462,-3464.1337L13511.3355,-3464.1332L13511.3286,-3464.1325L13511.321,-3464.1317L13511.313,-3464.1303L13511.3042,-3464.1283L13511.3004,-3464.1272L13511.2977,-3464.1261L13511.3005,-3464.1119L13511.3013,-3464.112L13511.3029,-3464.1029L13511.2974,-3464.1022L13511.2959,-3464.1114L13511.2967,-3464.1115L13511.2948,-3464.1213L13511.291,-3464.1211L13511.2881,-3464.1207L13511.2816,-3464.1195L13511.273,-3464.1182L13511.2625,-3464.1171L13511.2549,-3464.1169L13511.2484,-3464.1165L13511.2382,-3464.1168L13511.2292,-3464.117L13511.2196,-3464.1167L13511.2118,-3464.1164L13511.2033,-3464.1155L13511.1914,-3464.1149L13511.1813,-3464.114L13511.1744,-3464.1134L13511.1682,-3464.1126L13511.1628,-3464.1116L13511.1582,-3464.1104L13511.1543,-3464.1096L13511.1515,-3464.1094L13511.1491,-3464.1095L13511.1532,-3464.0899L13511.1541,-3464.0901L13511.1561,-3464.0813L13511.151,-3464.0805L13511.149,-3464.0892L13511.1496,-3464.0893L13511.1447,-3464.1116L13511.141,-3464.1116L13511.1376,-3464.1112L13511.1307,-3464.11L13511.1201,-3464.108L13511.1128,-3464.1064L13511.1066,-3464.1048L13511.1006,-3464.1027L13511.0903,-3464.0989L13511.0821,-3464.095L13511.0752,-3464.0913L13511.0684,-3464.0883L13511.0618,-3464.0855L13511.0515,-3464.0811L13511.0473,-3464.0795L13511.0433,-3464.0781L13511.042,-3464.0777L13511.0477,-3464.0637L13511.0486,-3464.064L13511.0775,-3463.9953L13511.0768,-3463.9952L13511.0482,-3464.0631L13511.0432,-3464.0616L13511.0452,-3464.0568L13511.0465,-3464.0571L13511.05,-3464.0483L13511.0497,-3464.0482L13511.053,-3464.0398L13511.0523,-3464.0396L13511.0558,-3464.0313L13511.074,-3463.9881L13511.0748,-3463.9883L13511.0888,-3463.9541L13511.0831,-3463.9525L13511.0762,-3463.969L13511.0689,-3463.9865L13511.0617,-3464.0039L13511.0471,-3464.0383L13511.0477,-3464.0385L13511.0462,-3464.0419L13510.9615,-3464.0179L13510.8808,-3463.995L13510.8613,-3464.0038L13510.8525,-3463.9916L13511.044,-3463.9061L13511.0809,-3463.9183L13511.0845,-3463.9102L13511.0742,-3463.9067L13511.0452,-3463.8965L13510.9888,-3463.9224L13510.9033,-3463.9603L13510.8333,-3463.9912L13510.8237,-3463.9954L13510.8152,-3463.9931L13510.8105,-3464.0025L13510.8076,-3464.0041L13510.8037,-3464.0056L13510.7991,-3464.0063L13510.7933,-3464.0066L13510.7833,-3464.006L13510.7746,-3464.0054L13510.7631,-3464.005L13510.7515,-3464.005L13510.7402,-3464.0045L13510.7286,-3464.0032L13510.7194,-3464.0023L13510.713,-3464.0019L13510.7062,-3464.0013L13510.7041,-3464.0008L13510.7011,-3463.9997L13510.7058,-3463.9939L13510.7027,-3463.9921L13510.688,-3464.0099L13510.685,-3464.008L13510.6831,-3464.0072L13510.6815,-3464.0067L13510.6792,-3464.0062L13510.6768,-3464.0056L13510.6756,-3464.0054L13510.6732,-3464.0048L13510.6705,-3464.0044L13510.6644,-3464.003L13510.6616,-3464.0022L13510.6587,-3464.0015L13510.6566,-3464.0011L13510.6509,-3464.0003L13510.6485,-3463.9999L13510.6447,-3463.9993L13510.6406,-3463.9984L13510.637,-3463.9975L13510.6331,-3463.9963L13510.6284,-3463.9944L13510.6245,-3463.9925L13510.6201,-3463.9904L13510.6159,-3463.9884L13510.6116,-3463.9866L13510.6078,-3463.9848L13510.605,-3463.9836L13510.6012,-3463.9817L13510.5974,-3463.9796L13510.5935,-3463.9779L13510.59,-3463.976L13510.5866,-3463.9743L13510.5831,-3463.9728L13510.5788,-3463.9711L13510.5757,-3463.9697L13510.5731,-3463.9685L13510.6031,-3463.9295L13510.6038,-3463.9299L13510.6095,-3463.9225L13510.6049,-3463.92L13510.5994,-3463.9273L13510.5998,-3463.9277L13510.5699,-3463.9667L13510.5706,-3463.9672L13510.57,-3463.9679L13510.5669,-3463.9668L13510.5627,-3463.9655L13510.5588,-3463.9641L13510.555,-3463.9625L13510.5466,-3463.9588L13510.5421,-3463.9568L13510.5326,-3463.953L13510.5292,-3463.9514L13510.5217,-3463.9475L13510.5185,-3463.9458L13510.5155,-3463.9439L13510.5118,-3463.942L13510.5079,-3463.9398L13510.5039,-3463.9372L13510.5005,-3463.9354L13510.497,-3463.9327L13510.4938,-3463.9305L13510.4907,-3463.9285L13510.4869,-3463.9259L13510.484,-3463.9237L13510.481,-3463.9213L13510.4781,-3463.9191L13510.4758,-3463.9171L13510.4736,-3463.9157L13510.5075,-3463.8816L13510.5043,-3463.8796L13510.4707,-3463.9137L13510.4678,-3463.9121L13510.4643,-3463.9096L13510.4611,-3463.9071L13510.458,-3463.9051L13510.4551,-3463.9032L13510.4512,-3463.9008L13510.4481,-3463.8987L13510.4446,-3463.8963L13510.4415,-3463.8941L13510.4379,-3463.8916L13510.4351,-3463.8895L13510.433,-3463.888L13510.4289,-3463.8853L13510.4263,-3463.8834L13510.421,-3463.88L13510.4194,-3463.8783L13510.4119,-3463.8723L13510.4104,-3463.8707L13510.4032,-3463.8648L13510.3992,-3463.8621L13510.3948,-3463.8587L13510.3881,-3463.8526L13510.3848,-3463.8497L13510.3855,-3463.849L13510.3861,-3463.8495L13510.4252,-3463.8176L13510.4226,-3463.8154L13510.3836,-3463.8471L13510.3842,-3463.8477L13510.3833,-3463.8485L13510.3773,-3463.8431L13510.3714,-3463.8382L13510.3673,-3463.8352L13510.3642,-3463.8325L13510.3585,-3463.8272L13510.355,-3463.824L13510.3504,-3463.8202L13510.3469,-3463.8168L13510.3375,-3463.8084L13510.3337,-3463.8053L13510.3174,-3463.7902L13510.3142,-3463.7874L13510.311,-3463.7851L13510.3037,-3463.7775L13510.3265,-3463.7582L13510.3271,-3463.7586L13510.3346,-3463.7523L13510.3308,-3463.7492L13510.3232,-3463.7555L13510.3237,-3463.756L13510.301,-3463.7753L13510.2996,-3463.7737L13510.2965,-3463.7708L13510.2954,-3463.7699L13510.2931,-3463.768L13510.2908,-3463.7662L13510.2882,-3463.7642L13510.2867,-3463.7632L13510.2815,-3463.7601L13510.2719,-3463.7537L13510.268,-3463.751L13510.2635,-3463.7481L13510.2597,-3463.746L13510.252,-3463.7404L13510.2492,-3463.7379L13510.2464,-3463.7349L13510.2436,-3463.732L13510.2411,-3463.7291L13510.2372,-3463.7262L13510.2334,-3463.7239L13510.2316,-3463.7223L13510.2305,-3463.7195L13510.2312,-3463.7169L13510.2344,-3463.7109L13510.2346,-3463.7088L13510.2322,-3463.7075L13510.2259,-3463.7062L13510.2157,-3463.7051L13510.2049,-3463.7038L13510.1913,-3463.7023L13510.1774,-3463.701L13510.1647,-3463.7004L13510.1555,-3463.7002L13510.1469,-3463.7L13510.1272,-3463.6887L13510.0991,-3463.6798L13510.0836,-3463.6747L13510.052,-3463.6643L13510.0149,-3463.6511L13510,-3463.6456L13509.9772,-3463.6372L13509.9399,-3463.6245L13509.8888,-3463.6077L13509.8488,-3463.5944L13509.8247,-3463.5863L13509.7803,-3463.5742L13509.7691,-3463.5708L13509.7451,-3463.5649L13509.731,-3463.5604L13509.69,-3463.5458L13509.6834,-3463.5434L13509.6553,-3463.5332L13509.6494,-3463.5318L13509.6254,-3463.5273L13509.602,-3463.5243L13509.5753,-3463.5218L13509.5674,-3463.5208L13509.5573,-3463.5188L13509.5365,-3463.5142L13509.4933,-3463.5066L13509.487,-3463.5054L13509.4116,-3463.4906L13509.368,-3463.481L13509.3497,-3463.4762L13509.3346,-3463.4682L13509.3291,-3463.4708L13509.3342,-3463.453L13509.3317,-3463.4523L13509.3355,-3463.4373L13509.329,-3463.4356L13509.32,-3463.4704L13509.3176,-3463.4709L13509.3149,-3463.4723L13509.3108,-3463.49L13509.2971,-3463.5467L13509.2943,-3463.5585L13509.2988,-3463.5651L13509.3673,-3463.617L13509.3717,-3463.6234L13509.3743,-3463.6411L13509.3793,-3463.6761L13509.3783,-3463.6873L13509.3684,-3463.727L13509.3603,-3463.773L13509.357,-3463.7829L13509.3302,-3463.8428L13509.3111,-3463.8794L13509.2975,-3463.9195L13509.2882,-3463.9619L13509.2827,-3464.0079L13509.2852,-3464.0236L13509.2904,-3464.0362L13509.3144,-3464.0688L13509.4061,-3464.1585L13509.4133,-3464.1667L13509.4344,-3464.1908L13509.451,-3464.2097L13509.453,-3464.2168L13509.447,-3464.2491L13509.4444,-3464.2797L13509.447,-3464.289L13509.4629,-3464.3136L13509.4675,-3464.3272L13509.4714,-3464.3544L13509.4801,-3464.3716L13509.4814,-3464.3741L13509.4985,-3464.415L13509.5071,-3464.4423L13509.5111,-3464.4516L13509.5283,-3464.4811L13509.5369,-3464.5155L13509.5375,-3464.5286L13509.5402,-3464.5346L13509.5487,-3464.5406L13509.562,-3464.5482L13509.5877,-3464.5537L13509.6214,-3464.5641L13509.6538,-3464.5712L13509.6796,-3464.5827L13509.7007,-3464.6L13509.7317,-3464.6126L13509.7628,-3464.629L13509.7919,-3464.6497L13509.8064,-3464.665L13509.8295,-3464.6781L13509.8553,-3464.6907L13509.8777,-3464.7L13509.8969,-3464.7038L13509.9405,-3464.7147L13509.9458,-3464.7207L13509.9458,-3464.7546L13509.9366,-3464.7911L13509.9306,-3464.813L13509.9266,-3464.8337L13509.9181,-3464.8529L13509.9121,-3464.8702L13509.9134,-3464.9008L13509.924,-3464.9156L13509.9438,-3464.9287L13509.9788,-3464.944L13509.992,-3464.9554L13509.9999,-3464.9702L13510,-3464.9712L13510.0006,-3464.9822L13510,-3464.9844L13509.996,-3464.9986L13509.996,-3465L13509.9966,-3465.0123L13509.9966,-3465.0139L13510,-3465.0209L13510.0029,-3465.0271L13510.0039,-3465.0292L13510.0102,-3465.0361L13510.0178,-3465.0444L13510.043,-3465.0733L13510.0535,-3465.0853L13510.107,-3465.1361L13510.1413,-3465.1771L13510.1486,-3465.1907L13510.1479,-3465.2L13510.1457,-3465.2033L13510.1373,-3465.2159L13510.108,-3465.2451L13510.0761,-3465.2767L13510.0753,-3465.2776L13510.0383,-3465.3098L13510.0158,-3465.2879L13510,-3465.2723L13509.996,-3465.2683L13509.8962,-3465.1858L13509.8764,-3465.1727L13509.848,-3465.1645L13509.7621,-3465.1536L13509.698,-3465.1579L13509.6637,-3465.1634L13509.6221,-3465.1733L13509.6009,-3465.1831L13509.5771,-3465.1913L13509.5615,-3465.1977L13509.5507,-3465.2022L13509.559,-3465.2124L13509.5679,-3465.2234L13509.6013,-3465.2174L13509.6135,-3465.2153L13509.6174,-3465.2185L13509.6161,-3465.224L13509.6082,-3465.2281L13509.6044,-3465.23L13509.595,-3465.2349L13509.5917,-3465.2409L13509.6009,-3465.2748L13509.6062,-3465.2786L13509.6293,-3465.2791L13509.6333,-3465.2819L13509.6379,-3465.295L13509.6339,-3465.3064L13509.626,-3465.3124L13509.5989,-3465.3261L13509.5851,-3465.337L13509.5751,-3465.3485L13509.5501,-3465.3927L13509.5421,-3465.4003L13509.4178,-3465.4629L13509.412,-3465.4658L13509.3697,-3465.4942L13509.3155,-3465.5444L13509.3043,-3465.551L13509.2614,-3465.5646L13509.2514,-3465.5717L13509.2435,-3465.5816L13509.2309,-3465.6094L13509.2177,-3465.6356L13509.2138,-3465.6433L13509.2008,-3465.6628L13509.1986,-3465.6662L13509.188,-3465.6733L13509.1755,-3465.6777L13509.1667,-3465.6794L13509.1469,-3465.6834L13509.118,-3465.6891L13509.0209,-3465.7038L13508.9674,-3465.7186L13508.9132,-3465.7289L13508.9059,-3465.7338L13508.894,-3465.7524L13508.8663,-3465.7955L13508.8346,-3465.8333L13508.8306,-3465.8381L13508.7891,-3465.8969L13508.7891,-3467.2852Z"/>
<path content="兵庫県,,,神戸市,須磨区,28107" xlink:title="兵庫県" d="M13513.1653,-3464.0521L13513.1836,-3464.0508L13513.1836,-3464.0423L13513.1662,-3464.0441L13513.1577,-3464.0288L13513.1539,-3464.0228L13513.1508,-3464.0179L13513.1453,-3464.02L13513.1653,-3464.0521Z"/>
<path content="兵庫県,,,神戸市,須磨区,28107" xlink:title="兵庫県" d="M13512.5975,-3464.1009L13512.5975,-3464.0926L13512.5817,-3464.0928L13512.5351,-3464.0926L13512.5,-3464.0925L13512.4755,-3464.0925L13512.4082,-3464.092L13512.3582,-3464.0918L13512.3313,-3464.0914L13512.3147,-3464.0909L13512.3148,-3464.0992L13512.315,-3464.1002L13512.3153,-3464.1006L13512.3156,-3464.1009L13512.316,-3464.1012L13512.3167,-3464.1015L13512.3261,-3464.1019L13512.3281,-3464.1018L13512.3293,-3464.1013L13512.3304,-3464.1005L13512.332,-3464.0988L13512.3332,-3464.098L13512.3344,-3464.0973L13512.3356,-3464.0969L13512.3366,-3464.0968L13512.4713,-3464.0975L13512.5,-3464.0976L13512.5721,-3464.098L13512.5744,-3464.0982L13512.5761,-3464.0984L13512.577,-3464.0986L13512.5781,-3464.0989L13512.5788,-3464.0993L13512.5796,-3464.0998L13512.5809,-3464.101L13512.582,-3464.1021L13512.5832,-3464.1029L13512.5836,-3464.1032L13512.5842,-3464.1033L13512.5954,-3464.1033L13512.5959,-3464.1031L13512.5963,-3464.1029L13512.5966,-3464.1026L13512.5969,-3464.1023L13512.5972,-3464.1016L13512.5975,-3464.1009Z"/>
<path content="兵庫県,,,神戸市,須磨区,28107" xlink:title="兵庫県" d="M13511.9317,-3464.0547L13511.8917,-3464.0506L13511.8513,-3464.0464L13511.8353,-3464.0445L13511.8339,-3464.0528L13511.834,-3464.0537L13511.8344,-3464.0545L13511.835,-3464.0551L13511.8357,-3464.0556L13511.8466,-3464.0565L13511.8477,-3464.0564L13511.8486,-3464.0559L13511.8497,-3464.0551L13511.8508,-3464.0542L13511.8521,-3464.0536L13511.8528,-3464.0533L13511.8536,-3464.0531L13511.8551,-3464.0528L13511.8566,-3464.0527L13511.8696,-3464.0539L13512.0347,-3464.0703L13512.0674,-3464.0736L13512.0698,-3464.0739L13512.0718,-3464.0744L13512.0734,-3464.0751L13512.0746,-3464.0759L13512.0769,-3464.0789L13512.0772,-3464.0792L13512.0777,-3464.0796L13512.0784,-3464.0798L13512.0896,-3464.0808L13512.0903,-3464.0808L13512.0911,-3464.0807L13512.0917,-3464.0802L13512.092,-3464.0798L13512.0923,-3464.079L13512.0934,-3464.0706L13512.078,-3464.0691L13512.0381,-3464.0654L13511.9862,-3464.0604L13511.9317,-3464.0547Z"/>
<path content="兵庫県,,,神戸市,須磨区,28107" xlink:title="兵庫県" d="M13512.9075,-3464.0944L13512.8399,-3464.094L13512.8397,-3464.1038L13512.9076,-3464.104L13512.9708,-3464.1043L13512.971,-3464.0948L13512.9075,-3464.0944Z"/>
<path content="兵庫県,,,神戸市,須磨区,28107" xlink:title="兵庫県" d="M13511.2827,-3463.8833L13511.2681,-3463.8767L13511.2676,-3463.8774L13511.2337,-3463.8616L13511.1957,-3463.8438L13511.1953,-3463.8444L13511.1524,-3463.8238L13511.1528,-3463.8231L13511.1496,-3463.8215L13511.1381,-3463.816L13511.1338,-3463.8226L13511.2775,-3463.8898L13511.2781,-3463.8901L13511.2827,-3463.8833Z"/>
<path content="兵庫県,,,神戸市,須磨区,28107" xlink:title="兵庫県" d="M13511.5458,-3463.9612L13511.5181,-3463.9527L13511.5024,-3463.948L13511.4992,-3463.9551L13511.499,-3463.9573L13511.4993,-3463.9579L13511.4999,-3463.9583L13511.51,-3463.9617L13511.5113,-3463.9618L13511.5124,-3463.9616L13511.5137,-3463.961L13511.5162,-3463.9599L13511.5192,-3463.9595L13511.5226,-3463.9599L13511.5914,-3463.9802L13511.5921,-3463.9804L13511.5943,-3463.9753L13511.5694,-3463.9678L13511.5458,-3463.9612Z"/>
<path content="兵庫県,,,神戸市,須磨区,28107" xlink:title="兵庫県" d="M13512.7618,-3464.1024L13512.762,-3464.0937L13512.7465,-3464.0936L13512.7464,-3464.0976L13512.6917,-3464.0975L13512.6917,-3464.0933L13512.6755,-3464.0929L13512.6753,-3464.1021L13512.6755,-3464.1025L13512.6761,-3464.1028L13512.6766,-3464.1029L13512.7611,-3464.1031L13512.7617,-3464.1027L13512.7618,-3464.1024Z"/>
<path content="兵庫県,,,神戸市,須磨区,28107" xlink:title="兵庫県" d="M13511.658,-3463.9943L13511.6199,-3463.9827L13511.6176,-3463.9878L13511.6667,-3464.0021L13511.6833,-3464.0069L13511.6864,-3464.0079L13511.6887,-3464.0087L13511.6893,-3464.009L13511.6899,-3464.0095L13511.6904,-3464.01L13511.6913,-3464.011L13511.6924,-3464.013L13511.693,-3464.0142L13511.6935,-3464.0148L13511.6938,-3464.015L13511.6943,-3464.0153L13511.704,-3464.0182L13511.7069,-3464.0189L13511.7076,-3464.0187L13511.7083,-3464.0183L13511.7089,-3464.0175L13511.7124,-3464.0092L13511.6967,-3464.0052L13511.6833,-3464.0015L13511.6667,-3463.9968L13511.658,-3463.9943Z"/>
<path content="兵庫県,,,神戸市,須磨区,28107" xlink:title="兵庫県" d="M13511.4319,-3463.9273L13511.4167,-3463.9227L13511.4156,-3463.9251L13511.3994,-3463.9205L13511.4001,-3463.9188L13511.3846,-3463.9142L13511.3848,-3463.9137L13511.3689,-3463.9093L13511.3691,-3463.9088L13511.3536,-3463.9044L13511.3504,-3463.9119L13511.4277,-3463.9343L13511.429,-3463.9347L13511.4319,-3463.9273Z"/>
<path content="兵庫県,,,神戸市,須磨区,28107" xlink:title="兵庫県" d="M13512.2395,-3464.0927L13512.2406,-3464.0841L13512.2251,-3464.0825L13512.2242,-3464.0867L13512.1843,-3464.0833L13512.1845,-3464.0817L13512.1834,-3464.0816L13512.1838,-3464.0788L13512.1682,-3464.0775L13512.167,-3464.0861L13512.1671,-3464.0865L13512.1673,-3464.0868L13512.1679,-3464.087L13512.2378,-3464.0935L13512.2391,-3464.0934L13512.2393,-3464.093L13512.2395,-3464.0927Z"/>
<path content="兵庫県,,,神戸市,須磨区,28107" xlink:title="兵庫県" d="M13510.4548,-3463.4156L13510.4532,-3463.4154L13510.4506,-3463.4154L13510.4474,-3463.4163L13510.446,-3463.4169L13510.4445,-3463.4181L13510.4435,-3463.4191L13510.4428,-3463.421L13510.4425,-3463.4228L13510.4425,-3463.4246L13510.4428,-3463.426L13510.4436,-3463.4274L13510.4452,-3463.4297L13510.4474,-3463.4308L13510.4491,-3463.4314L13510.4502,-3463.4318L13510.452,-3463.432L13510.4529,-3463.432L13510.4539,-3463.4319L13510.4556,-3463.4315L13510.4571,-3463.4311L13510.4581,-3463.4306L13510.4594,-3463.4295L13510.4603,-3463.4284L13510.4619,-3463.4262L13510.4623,-3463.4247L13510.4622,-3463.4227L13510.4614,-3463.4203L13510.4601,-3463.4184L13510.4575,-3463.4164L13510.4548,-3463.4156Z"/>
<path content="兵庫県,,,神戸市,垂水区,28108" xlink:title="兵庫県" d="M13508.7891,-3465.8969L13508.8306,-3465.8381L13508.8346,-3465.8333L13508.8663,-3465.7955L13508.894,-3465.7524L13508.9059,-3465.7338L13508.9132,-3465.7289L13508.9674,-3465.7186L13509.0209,-3465.7038L13509.118,-3465.6891L13509.1469,-3465.6834L13509.1667,-3465.6794L13509.1755,-3465.6777L13509.188,-3465.6733L13509.1986,-3465.6662L13509.2008,-3465.6628L13509.2138,-3465.6433L13509.2177,-3465.6356L13509.2309,-3465.6094L13509.2435,-3465.5816L13509.2514,-3465.5717L13509.2614,-3465.5646L13509.3043,-3465.551L13509.3155,-3465.5444L13509.3697,-3465.4942L13509.412,-3465.4658L13509.4178,-3465.4629L13509.5421,-3465.4003L13509.5501,-3465.3927L13509.5751,-3465.3485L13509.5851,-3465.337L13509.5989,-3465.3261L13509.626,-3465.3124L13509.6339,-3465.3064L13509.6379,-3465.295L13509.6333,-3465.2819L13509.6293,-3465.2791L13509.6062,-3465.2786L13509.6009,-3465.2748L13509.5917,-3465.2409L13509.595,-3465.2349L13509.6044,-3465.23L13509.6082,-3465.2281L13509.6161,-3465.224L13509.6174,-3465.2185L13509.6135,-3465.2153L13509.6013,-3465.2174L13509.5679,-3465.2234L13509.559,-3465.2124L13509.5507,-3465.2022L13509.5615,-3465.1977L13509.5771,-3465.1913L13509.6009,-3465.1831L13509.6221,-3465.1733L13509.6637,-3465.1634L13509.698,-3465.1579L13509.7621,-3465.1536L13509.848,-3465.1645L13509.8764,-3465.1727L13509.8962,-3465.1858L13509.996,-3465.2683L13510,-3465.2723L13510.0158,-3465.2879L13510.0383,-3465.3098L13510.0753,-3465.2776L13510.0761,-3465.2767L13510.108,-3465.2451L13510.1373,-3465.2159L13510.1457,-3465.2033L13510.1479,-3465.2L13510.1486,-3465.1907L13510.1413,-3465.1771L13510.107,-3465.1361L13510.0535,-3465.0853L13510.043,-3465.0733L13510.0178,-3465.0444L13510.0102,-3465.0361L13510.0039,-3465.0292L13510.0029,-3465.0271L13510,-3465.0209L13509.9966,-3465.0139L13509.9966,-3465.0123L13509.996,-3465L13509.996,-3464.9986L13510,-3464.9844L13510.0006,-3464.9822L13510,-3464.9712L13509.9999,-3464.9702L13509.992,-3464.9554L13509.9788,-3464.944L13509.9438,-3464.9287L13509.924,-3464.9156L13509.9134,-3464.9008L13509.9121,-3464.8702L13509.9181,-3464.8529L13509.9266,-3464.8337L13509.9306,-3464.813L13509.9366,-3464.7911L13509.9458,-3464.7546L13509.9458,-3464.7207L13509.9405,-3464.7147L13509.8969,-3464.7038L13509.8777,-3464.7L13509.8553,-3464.6907L13509.8295,-3464.6781L13509.8064,-3464.665L13509.7919,-3464.6497L13509.7628,-3464.629L13509.7317,-3464.6126L13509.7007,-3464.6L13509.6796,-3464.5827L13509.6538,-3464.5712L13509.6214,-3464.5641L13509.5877,-3464.5537L13509.562,-3464.5482L13509.5487,-3464.5406L13509.5402,-3464.5346L13509.5375,-3464.5286L13509.5369,-3464.5155L13509.5283,-3464.4811L13509.5111,-3464.4516L13509.5071,-3464.4423L13509.4985,-3464.415L13509.4814,-3464.3741L13509.4801,-3464.3716L13509.4714,-3464.3544L13509.4675,-3464.3272L13509.4629,-3464.3136L13509.447,-3464.289L13509.4444,-3464.2797L13509.447,-3464.2491L13509.453,-3464.2168L13509.451,-3464.2097L13509.4344,-3464.1908L13509.4133,-3464.1667L13509.4061,-3464.1585L13509.3144,-3464.0688L13509.2904,-3464.0362L13509.2852,-3464.0236L13509.2827,-3464.0079L13509.2882,-3463.9619L13509.2975,-3463.9195L13509.3111,-3463.8794L13509.3302,-3463.8428L13509.357,-3463.7829L13509.3603,-3463.773L13509.3684,-3463.727L13509.3783,-3463.6873L13509.3793,-3463.6761L13509.3743,-3463.6411L13509.3717,-3463.6234L13509.3673,-3463.617L13509.2988,-3463.5651L13509.2943,-3463.5585L13509.2971,-3463.5467L13509.3108,-3463.49L13509.3149,-3463.4723L13509.3145,-3463.4725L13509.3125,-3463.4759L13509.3115,-3463.4799L13509.3106,-3463.4797L13509.308,-3463.48L13509.3063,-3463.4861L13509.2921,-3463.4834L13509.2934,-3463.4784L13509.2934,-3463.4773L13509.2919,-3463.4763L13509.2899,-3463.4758L13509.2907,-3463.4711L13509.2905,-3463.4687L13509.2874,-3463.4659L13509.292,-3463.4498L13509.2979,-3463.4296L13509.2921,-3463.4285L13509.2879,-3463.4417L13509.2865,-3463.4417L13509.2841,-3463.4414L13509.2825,-3463.4409L13509.2797,-3463.4394L13509.2773,-3463.4388L13509.275,-3463.4388L13509.2715,-3463.4392L13509.2696,-3463.4393L13509.2667,-3463.4391L13509.2609,-3463.4382L13509.2583,-3463.4379L13509.2561,-3463.4379L13509.2516,-3463.4383L13509.2505,-3463.4381L13509.2484,-3463.4371L13509.2475,-3463.4369L13509.2443,-3463.4373L13509.2387,-3463.4369L13509.2309,-3463.4374L13509.2283,-3463.4372L13509.2225,-3463.4363L13509.22,-3463.4362L13509.2089,-3463.4371L13509.2064,-3463.437L13509.2003,-3463.4366L13509.1922,-3463.4368L13509.1897,-3463.4366L13509.1854,-3463.4357L13509.1836,-3463.4355L13509.1816,-3463.4355L13509.1761,-3463.4361L13509.1717,-3463.4361L13509.1667,-3463.4358L13509.1578,-3463.4353L13509.1404,-3463.4345L13509.1344,-3463.434L13509.1287,-3463.4332L13509.1222,-3463.4321L13509.1134,-3463.4302L13509.1155,-3463.4206L13509.1123,-3463.4201L13509.1101,-3463.4298L13509.106,-3463.4303L13509.1025,-3463.4304L13509.0988,-3463.4302L13509.0918,-3463.4293L13509.0895,-3463.4287L13509.0876,-3463.4279L13509.086,-3463.4269L13509.084,-3463.4253L13509.083,-3463.4248L13509.0818,-3463.4247L13509.0777,-3463.425L13509.0756,-3463.425L13509.073,-3463.4248L13509.0699,-3463.4243L13509.0676,-3463.4237L13509.0659,-3463.4231L13509.0644,-3463.4222L13509.0624,-3463.4207L13509.0634,-3463.4165L13509.0604,-3463.4161L13509.0595,-3463.4202L13509.0513,-3463.419L13509.0486,-3463.4206L13509.0475,-3463.4208L13509.0441,-3463.4207L13509.0391,-3463.4204L13509.0364,-3463.4201L13509.0374,-3463.4148L13509.0199,-3463.4127L13509.0187,-3463.4182L13509.0124,-3463.4171L13509.0076,-3463.4159L13509.0046,-3463.4149L13509.0018,-3463.4138L13508.9978,-3463.4121L13508.9944,-3463.4107L13508.9916,-3463.4098L13508.9884,-3463.4093L13508.9806,-3463.4089L13508.9689,-3463.4084L13508.9623,-3463.4079L13508.9321,-3463.4052L13508.8854,-3463.4016L13508.8535,-3463.399L13508.8099,-3463.3952L13508.7891,-3463.3929Z"/>
</g>
</svg>
