<?xml version="1.0" encoding="UTF-8"?>
<svg  xmlns="http://www.w3.org/2000/svg" xmlns:xlink="http://www.w3.org/1999/xlink" xmlns:go="http://purl.org/svgmap/profile" property="geometry,N03_001,N03_002,N03_003,N03_004,N03_005,N03_007" viewBox="13592.28515625 -3357.421875 4.39453125 4.39453125" go:dataArea="13592.28515625 -3357.421875 4.39453125 4.39453125" >
<metadata>
 <rdf:RDF xmlns:rdf="http://www.w3.org/1999/02/22-rdf-syntax-ns#" xmlns:crs="http://opengis.org/xmldtds/transformations.dtd" xmlns:svg="http://www.w3.org/svg" >
  <rdf:Description>
   <crs:CoordinateReferenceSystem rdf:resource="http://purl.org/crs/84" svg:transform="matrix(100.0,0.0,0.0,-100.0,0.0,0.0)" />
  </rdf:Description>
 </rdf:RDF>
</metadata>
<globalCoordinateSystem srsName="http://purl.org/crs/84" transform="matrix(100.0,0.0,0.0,-100.0,0.0,0.0)" />
<defs>
 <g id="p0" >
  <circle cx="0.0" cy="0.0" r="3" stroke="green" stroke-width="2.0" vector-effect="non-scaling-stroke" />
 </g>
</defs>
<g fill="#0000ff" fill-rule="evenodd" opacity="0.5" >
<path content="和歌山県,,東牟婁郡,那智勝浦町,,30421" xlink:title="和歌山県" d="M13592.2852,-3357.4219L13593.9256,-3357.4219L13593.9257,-3357.4217L13593.9329,-3357.4198L13593.9379,-3357.4219L13593.9605,-3357.4219L13593.9607,-3357.4215L13593.9669,-3357.4177L13593.9734,-3357.4087L13593.9791,-3357.3997L13593.9792,-3357.3954L13593.9762,-3357.3916L13593.9694,-3357.3915L13593.9463,-3357.3921L13593.9377,-3357.3938L13593.9284,-3357.3937L13593.921,-3357.3957L13593.9194,-3357.3982L13593.9146,-3357.3987L13593.9075,-3357.3978L13593.9057,-3357.3943L13593.905,-3357.3894L13593.9062,-3357.3858L13593.9151,-3357.3853L13593.9173,-3357.3827L13593.9188,-3357.3786L13593.9202,-3357.3723L13593.9215,-3357.3676L13593.9223,-3357.3649L13593.9194,-3357.3639L13593.9192,-3357.361L13593.9155,-3357.3614L13593.9123,-3357.3634L13593.9098,-3357.3626L13593.906,-3357.3645L13593.9043,-3357.3666L13593.9033,-3357.3699L13593.9033,-3357.3733L13593.9017,-3357.3753L13593.8971,-3357.3752L13593.8942,-3357.3745L13593.892,-3357.3725L13593.8916,-3357.3688L13593.8916,-3357.367L13593.8886,-3357.3648L13593.8854,-3357.3649L13593.8812,-3357.3655L13593.8773,-3357.367L13593.8752,-3357.3684L13593.8755,-3357.3669L13593.8756,-3357.3645L13593.8734,-3357.3637L13593.8714,-3357.3639L13593.8696,-3357.3662L13593.8692,-3357.3689L13593.8688,-3357.3694L13593.8679,-3357.3741L13593.869,-3357.3762L13593.8709,-3357.3774L13593.8719,-3357.3804L13593.8717,-3357.3829L13593.8707,-3357.3846L13593.8634,-3357.3901L13593.8576,-3357.3916L13593.8533,-3357.395L13593.8466,-3357.4005L13593.844,-3357.4052L13593.8368,-3357.4075L13593.8391,-3357.4076L13593.8307,-3357.4113L13593.8248,-3357.4147L13593.8204,-3357.4196L13593.8161,-3357.4219L13593.7639,-3357.4219L13593.7574,-3357.4198L13593.7496,-3357.4185L13593.7373,-3357.4183L13593.7241,-3357.4205L13593.7121,-3357.4207L13593.7055,-3357.4208L13593.6987,-3357.4209L13593.6962,-3357.4219L13593.6464,-3357.4219L13593.643,-3357.4205L13593.6355,-3357.4181L13593.631,-3357.4137L13593.617,-3357.41L13593.5965,-3357.4082L13593.5831,-3357.4037L13593.5766,-3357.3982L13593.5735,-3357.3963L13593.5695,-3357.3972L13593.5641,-3357.3976L13593.5575,-3357.3962L13593.5491,-3357.3923L13593.5455,-3357.3877L13593.5335,-3357.3807L13593.5301,-3357.3761L13593.5278,-3357.3729L13593.5236,-3357.3687L13593.5217,-3357.3658L13593.5212,-3357.3599L13593.5204,-3357.358L13593.523,-3357.3546L13593.5266,-3357.3502L13593.5276,-3357.3481L13593.5296,-3357.3471L13593.5338,-3357.3392L13593.5334,-3357.3349L13593.5288,-3357.3315L13593.5247,-3357.3309L13593.5212,-3357.3328L13593.5175,-3357.3361L13593.5154,-3357.3365L13593.5127,-3357.338L13593.5119,-3357.3348L13593.512,-3357.3323L13593.5085,-3357.3339L13593.5047,-3357.3407L13593.5016,-3357.3479L13593.5014,-3357.3564L13593.5021,-3357.3624L13593.4985,-3357.3675L13593.4943,-3357.3683L13593.492,-3357.3645L13593.4918,-3357.356L13593.4914,-3357.3478L13593.489,-3357.3408L13593.4841,-3357.3416L13593.48,-3357.3481L13593.478,-3357.3563L13593.4738,-3357.3568L13593.4722,-3357.3551L13593.4755,-3357.3479L13593.4775,-3357.3415L13593.4769,-3357.3372L13593.4729,-3357.3324L13593.4699,-3357.3314L13593.4615,-3357.3338L13593.4556,-3357.3357L13593.4484,-3357.3377L13593.4407,-3357.3404L13593.4384,-3357.3415L13593.4339,-3357.3367L13593.4288,-3357.3357L13593.4246,-3357.338L13593.4237,-3357.3419L13593.4207,-3357.3448L13593.4164,-3357.3496L13593.4172,-3357.3527L13593.42,-3357.3541L13593.4263,-3357.3514L13593.4299,-3357.352L13593.4304,-3357.3534L13593.4303,-3357.3595L13593.4286,-3357.3645L13593.4271,-3357.3691L13593.4302,-3357.3712L13593.4364,-3357.3721L13593.442,-3357.374L13593.4466,-3357.3735L13593.4475,-3357.3693L13593.4485,-3357.3675L13593.4515,-3357.3684L13593.4524,-3357.3727L13593.4524,-3357.378L13593.4552,-3357.38L13593.4602,-3357.382L13593.4605,-3357.3845L13593.4597,-3357.3895L13593.4562,-3357.3924L13593.4484,-3357.3944L13593.4393,-3357.3947L13593.4322,-3357.3938L13593.4264,-3357.3964L13593.4242,-3357.3993L13593.4242,-3357.405L13593.4204,-3357.4113L13593.4117,-3357.4165L13593.4026,-3357.4185L13593.3992,-3357.4189L13593.3915,-3357.4187L13593.3859,-3357.4185L13593.372,-3357.4155L13593.3622,-3357.4083L13593.3532,-3357.4035L13593.342,-3357.4018L13593.3333,-3357.3995L13593.3329,-3357.3994L13593.3132,-3357.4L13593.309,-3357.3976L13593.3,-3357.3994L13593.2958,-3357.4024L13593.2927,-3357.4056L13593.296,-3357.4157L13593.2987,-3357.42L13593.3009,-3357.4219L13592.2852,-3357.4219L13592.2852,-3356.2181L13592.2869,-3356.217L13592.2907,-3356.2132L13592.2973,-3356.2046L13592.3059,-3356.2001L13592.3147,-3356.1938L13592.3225,-3356.1855L13592.3296,-3356.1838L13592.3324,-3356.1771L13592.333,-3356.1684L13592.3313,-3356.1631L13592.3299,-3356.1501L13592.3311,-3356.1396L13592.3322,-3356.1291L13592.3309,-3356.1191L13592.3347,-3356.1128L13592.3436,-3356.1081L13592.3606,-3356.1058L13592.3689,-3356.1059L13592.3713,-3356.0993L13592.3721,-3356.0969L13592.3725,-3356.0909L13592.3702,-3356.0888L13592.3692,-3356.0877L13592.3688,-3356.0842L13592.3698,-3356.0793L13592.3732,-3356.0759L13592.3742,-3356.071L13592.3767,-3356.0668L13592.3828,-3356.0647L13592.3874,-3356.0651L13592.3935,-3356.0725L13592.3977,-3356.0736L13592.4036,-3356.0712L13592.4082,-3356.0705L13592.4072,-3356.0673L13592.3967,-3356.0655L13592.3906,-3356.0634L13592.3868,-3356.0609L13592.3843,-3356.0564L13592.3856,-3356.0546L13592.3912,-3356.0543L13592.3954,-3356.0544L13592.3979,-3356.0568L13592.4017,-3356.0596L13592.4057,-3356.06L13592.4097,-3356.06L13592.4145,-3356.0583L13592.4227,-3356.0549L13592.4269,-3356.0528L13592.4256,-3356.0511L13592.4233,-3356.0496L13592.4149,-3356.0492L13592.4082,-3356.0506L13592.4057,-3356.0492L13592.4032,-3356.046L13592.3998,-3356.0432L13592.3998,-3356.0418L13592.3986,-3356.039L13592.3952,-3356.0362L13592.3902,-3356.0358L13592.3854,-3356.0371L13592.3798,-3356.0399L13592.3784,-3356.039L13592.3769,-3356.0355L13592.3773,-3356.0334L13592.3787,-3356.0317L13592.3847,-3356.0312L13592.3984,-3356.0334L13592.4003,-3356.033L13592.4005,-3356.0285L13592.3978,-3356.0243L13592.395,-3356.0209L13592.3929,-3356.016L13592.3915,-3356.0121L13592.3915,-3356.0086L13592.3925,-3356.0044L13592.3929,-3356.0006L13592.3892,-3355.9953L13592.3875,-3355.9872L13592.3888,-3355.9827L13592.3938,-3355.9803L13592.4074,-3355.9765L13592.4102,-3355.9738L13592.4104,-3355.9703L13592.4064,-3355.9666L13592.4039,-3355.9624L13592.4003,-3355.9593L13592.3932,-3355.9564L13592.3846,-3355.957L13592.3766,-3355.9657L13592.371,-3355.9716L13592.3676,-3355.9706L13592.3668,-3355.9667L13592.3835,-3355.9539L13592.3856,-3355.9487L13592.3907,-3355.9442L13592.3972,-3355.9383L13592.401,-3355.9363L13592.4022,-3355.9318L13592.405,-3355.9283L13592.406,-3355.9252L13592.4029,-3355.9192L13592.3922,-3355.9164L13592.3888,-3355.9156L13592.3871,-3355.9212L13592.3836,-3355.9226L13592.3827,-3355.9173L13592.3783,-3355.9149L13592.3656,-3355.9141L13592.3624,-3355.9123L13592.3612,-3355.9067L13592.3639,-3355.9018L13592.3631,-3355.8987L13592.3614,-3355.8983L13592.3566,-3355.8958L13592.3543,-3355.8941L13592.353,-3355.8927L13592.3513,-3355.886L13592.3507,-3355.8815L13592.3486,-3355.8783L13592.3469,-3355.8787L13592.3455,-3355.8856L13592.3442,-3355.886L13592.3352,-3355.8842L13592.3308,-3355.8817L13592.3293,-3355.8775L13592.3279,-3355.8736L13592.3262,-3355.8698L13592.3254,-3355.8666L13592.3241,-3355.8649L13592.3193,-3355.8645L13592.3155,-3355.8659L13592.3132,-3355.8676L13592.3122,-3355.8725L13592.313,-3355.8802L13592.3145,-3355.8837L13592.3174,-3355.8837L13592.3201,-3355.8834L13592.3197,-3355.8869L13592.3205,-3355.89L13592.3323,-3355.8985L13592.3377,-3355.9031L13592.3383,-3355.9069L13592.3337,-3355.91L13592.3268,-3355.9075L13592.3195,-3355.9001L13592.3161,-3355.8987L13592.3121,-3355.899L13592.3111,-3355.9011L13592.3182,-3355.9082L13592.3209,-3355.9117L13592.3188,-3355.9173L13592.315,-3355.9214L13592.3121,-3355.9211L13592.3027,-3355.9213L13592.2964,-3355.9223L13592.2957,-3355.9276L13592.2913,-3355.9345L13592.2852,-3355.938Z"/>
<path content="和歌山県,,東牟婁郡,那智勝浦町,,30421" xlink:title="和歌山県" d="M13593.0979,-3356.4001L13593.1021,-3356.3989L13593.1042,-3356.4021L13593.1098,-3356.4023L13593.1172,-3356.4018L13593.1206,-3356.4009L13593.1233,-3356.3984L13593.1267,-3356.3947L13593.127,-3356.3904L13593.1263,-3356.3857L13593.1264,-3356.3836L13593.1214,-3356.3812L13593.1102,-3356.3797L13593.1083,-3356.3758L13593.1002,-3356.3753L13593.0987,-3356.38L13593.0962,-3356.3786L13593.0931,-3356.3758L13593.0776,-3356.3745L13593.0668,-3356.3719L13593.0525,-3356.3723L13593.0408,-3356.3736L13593.021,-3356.376L13593.0086,-3356.3759L13592.9968,-3356.3816L13592.9896,-3356.3868L13592.9901,-3356.3922L13592.9933,-3356.3968L13592.9996,-3356.3988L13593.0053,-3356.4015L13593.0167,-3356.403L13593.0401,-3356.4013L13593.0478,-3356.4004L13593.0511,-3356.4014L13593.0549,-3356.4016L13593.0594,-3356.4004L13593.0682,-3356.4009L13593.0733,-3356.4015L13593.0791,-3356.401L13593.0852,-3356.3979L13593.0861,-3356.4001L13593.088,-3356.4032L13593.0962,-3356.4012L13593.0979,-3356.4001Z"/>
<path content="和歌山県,,東牟婁郡,那智勝浦町,,30421" xlink:title="和歌山県" d="M13592.4596,-3355.9243L13592.4357,-3355.9213L13592.4284,-3355.9233L13592.4242,-3355.9275L13592.4198,-3355.9327L13592.4143,-3355.9341L13592.4066,-3355.9389L13592.4066,-3355.9449L13592.4091,-3355.9456L13592.4139,-3355.9516L13592.4235,-3355.9551L13592.438,-3355.9587L13592.4646,-3355.9635L13592.4749,-3355.9625L13592.4881,-3355.9542L13592.4927,-3355.9476L13592.4938,-3355.943L13592.4915,-3355.936L13592.4902,-3355.9329L13592.4802,-3355.9297L13592.4596,-3355.9243Z"/>
<path content="和歌山県,,東牟婁郡,那智勝浦町,,30421" xlink:title="和歌山県" d="M13592.3728,-3356.2656L13592.3746,-3356.2645L13592.3754,-3356.263L13592.3746,-3356.2613L13592.3704,-3356.2592L13592.3681,-3356.2584L13592.3652,-3356.2577L13592.3625,-3356.2562L13592.3593,-3356.2557L13592.3572,-3356.2549L13592.3569,-3356.2538L13592.3536,-3356.2533L13592.3505,-3356.2523L13592.3492,-3356.2527L13592.3462,-3356.2521L13592.345,-3356.2512L13592.3457,-3356.2489L13592.3459,-3356.2469L13592.3425,-3356.2449L13592.3393,-3356.2428L13592.3377,-3356.2412L13592.3355,-3356.2407L13592.3346,-3356.2411L13592.3301,-3356.2417L13592.328,-3356.2417L13592.3249,-3356.2411L13592.3231,-3356.2398L13592.3179,-3356.2367L13592.3115,-3356.2355L13592.2985,-3356.239L13592.2948,-3356.2403L13592.2903,-3356.2407L13592.2863,-3356.2411L13592.2852,-3356.2417L13592.2852,-3356.2588L13592.2874,-3356.2603L13592.2893,-3356.2604L13592.2941,-3356.2587L13592.2957,-3356.2578L13592.2975,-3356.2559L13592.2993,-3356.2558L13592.2997,-3356.2568L13592.2982,-3356.2607L13592.2976,-3356.2628L13592.2976,-3356.2639L13592.3043,-3356.2665L13592.3109,-3356.2674L13592.3167,-3356.268L13592.3188,-3356.266L13592.3204,-3356.2651L13592.3222,-3356.2654L13592.3237,-3356.2671L13592.3252,-3356.2686L13592.3417,-3356.2744L13592.345,-3356.2754L13592.3503,-3356.2755L13592.3713,-3356.2755L13592.3739,-3356.2747L13592.3761,-3356.2707L13592.3768,-3356.2683L13592.3736,-3356.2681L13592.3715,-3356.2675L13592.3728,-3356.2656Z"/>
<path content="和歌山県,,東牟婁郡,那智勝浦町,,30421" xlink:title="和歌山県" d="M13592.4798,-3355.8587L13592.4788,-3355.856L13592.4763,-3355.8559L13592.4723,-3355.8577L13592.4694,-3355.8555L13592.4664,-3355.851L13592.4635,-3355.8436L13592.4597,-3355.8405L13592.4522,-3355.8376L13592.4451,-3355.8379L13592.4447,-3355.8344L13592.4396,-3355.8337L13592.4365,-3355.8358L13592.4338,-3355.842L13592.4319,-3355.8455L13592.4308,-3355.8504L13592.431,-3355.8574L13592.4331,-3355.8633L13592.4394,-3355.8669L13592.4459,-3355.8714L13592.4524,-3355.8718L13592.4633,-3355.8677L13592.4785,-3355.8603L13592.4794,-3355.8596L13592.4798,-3355.8587Z"/>
<path content="和歌山県,,東牟婁郡,那智勝浦町,,30421" xlink:title="和歌山県" d="M13592.382,-3355.8265L13592.3721,-3355.8254L13592.36,-3355.8281L13592.3508,-3355.8316L13592.349,-3355.8333L13592.3466,-3355.8357L13592.3443,-3355.8371L13592.3461,-3355.8392L13592.3466,-3355.8409L13592.3472,-3355.8469L13592.3484,-3355.8507L13592.3535,-3355.8539L13592.3591,-3355.8561L13592.3681,-3355.8523L13592.3732,-3355.8495L13592.379,-3355.845L13592.3866,-3355.8437L13592.392,-3355.8413L13592.3931,-3355.836L13592.3919,-3355.8333L13592.3902,-3355.8294L13592.382,-3355.8265Z"/>
<path content="和歌山県,,東牟婁郡,那智勝浦町,,30421" xlink:title="和歌山県" d="M13593.9428,-3357.342L13593.9464,-3357.3415L13593.949,-3357.3448L13593.9522,-3357.3452L13593.9568,-3357.3429L13593.957,-3357.3398L13593.9537,-3357.3364L13593.9544,-3357.3342L13593.9559,-3357.3342L13593.9606,-3357.3404L13593.9636,-3357.342L13593.9669,-3357.3427L13593.9703,-3357.3424L13593.9732,-3357.3408L13593.9735,-3357.3394L13593.9727,-3357.3378L13593.9717,-3357.3368L13593.9651,-3357.3314L13593.9615,-3357.3304L13593.9588,-3357.33L13593.949,-3357.3326L13593.9474,-3357.3335L13593.9403,-3357.3357L13593.9347,-3357.3344L13593.93,-3357.3299L13593.9256,-3357.3285L13593.9236,-3357.3292L13593.9226,-3357.3312L13593.9195,-3357.3346L13593.9179,-3357.3351L13593.914,-3357.3339L13593.9111,-3357.3335L13593.9093,-3357.3318L13593.9057,-3357.3307L13593.9022,-3357.3307L13593.8981,-3357.3291L13593.89,-3357.3186L13593.8869,-3357.316L13593.8816,-3357.3143L13593.8809,-3357.3151L13593.8814,-3357.3197L13593.8826,-3357.3235L13593.8877,-3357.3278L13593.89,-3357.3303L13593.893,-3357.3327L13593.8976,-3357.337L13593.9008,-3357.3394L13593.9039,-3357.3413L13593.9113,-3357.3436L13593.9136,-3357.3424L13593.9152,-3357.341L13593.9169,-3357.3409L13593.9216,-3357.3426L13593.9302,-3357.3452L13593.9364,-3357.3454L13593.9428,-3357.342Z"/>
<path content="和歌山県,,東牟婁郡,那智勝浦町,,30421" xlink:title="和歌山県" d="M13592.4066,-3355.8823L13592.4008,-3355.8802L13592.3957,-3355.8836L13592.3928,-3355.8878L13592.3844,-3355.8975L13592.3825,-3355.9045L13592.3846,-3355.9098L13592.3909,-3355.9119L13592.4011,-3355.9137L13592.4179,-3355.9128L13592.4257,-3355.9093L13592.4253,-3355.9051L13592.4148,-3355.8953L13592.4118,-3355.8928L13592.4112,-3355.8869L13592.4066,-3355.8823Z"/>
<path content="和歌山県,,東牟婁郡,那智勝浦町,,30421" xlink:title="和歌山県" d="M13594.0886,-3357.2361L13594.0608,-3357.2217L13594.0549,-3357.2222L13594.0542,-3357.2265L13594.0499,-3357.2241L13594.0401,-3357.2194L13594.0379,-3357.2173L13594.0296,-3357.2119L13594.0245,-3357.2113L13594.0213,-3357.216L13594.02,-3357.2203L13594.0212,-3357.2242L13594.0491,-3357.2316L13594.0486,-3357.2341L13594.0572,-3357.2377L13594.0636,-3357.2425L13594.072,-3357.2462L13594.0773,-3357.2457L13594.0829,-3357.2416L13594.0882,-3357.2379L13594.0886,-3357.2361Z"/>
<path content="和歌山県,,東牟婁郡,那智勝浦町,,30421" xlink:title="和歌山県" d="M13592.4149,-3356.3013L13592.4107,-3356.3004L13592.4066,-3356.3009L13592.4033,-3356.3015L13592.4008,-3356.3026L13592.3946,-3356.3035L13592.3917,-3356.3071L13592.3903,-3356.3155L13592.3923,-3356.3236L13592.3966,-3356.3271L13592.4011,-3356.329L13592.4098,-3356.3288L13592.4167,-3356.3258L13592.4194,-3356.32L13592.4203,-3356.315L13592.4238,-3356.314L13592.4283,-3356.3136L13592.4321,-3356.3135L13592.4368,-3356.3125L13592.4348,-3356.3086L13592.4321,-3356.3065L13592.429,-3356.3052L13592.4247,-3356.3043L13592.42,-3356.3019L13592.4149,-3356.3013Z"/>
<path content="和歌山県,,東牟婁郡,那智勝浦町,,30421" xlink:title="和歌山県" d="M13593.0146,-3356.4302L13593.0147,-3356.4245L13593.0131,-3356.4206L13593.013,-3356.4181L13593.0102,-3356.4149L13593.0101,-3356.4121L13593.0092,-3356.4092L13593.0059,-3356.4078L13593.0038,-3356.4082L13593.0006,-3356.4083L13592.9953,-3356.4059L13592.9939,-3356.4038L13592.9798,-3356.4005L13592.9759,-3356.3995L13592.9736,-3356.3992L13592.9715,-3356.4035L13592.9716,-3356.4071L13592.9724,-3356.4099L13592.9758,-3356.4131L13592.981,-3356.416L13592.9803,-3356.4216L13592.9813,-3356.4244L13592.9847,-3356.4258L13592.986,-3356.4258L13592.9887,-3356.4232L13592.9896,-3356.4261L13592.9898,-3356.4271L13592.9886,-3356.4289L13592.9912,-3356.4303L13592.9936,-3356.4303L13592.9929,-3356.4285L13592.9974,-3356.4288L13593.0054,-3356.4286L13593.0056,-3356.425L13593.008,-3356.4278L13593.0108,-3356.4303L13593.0145,-3356.4313L13593.0146,-3356.4302Z"/>
<path content="和歌山県,,東牟婁郡,那智勝浦町,,30421" xlink:title="和歌山県" d="M13592.2918,-3356.3058L13592.2943,-3356.3051L13592.2985,-3356.3051L13592.3032,-3356.3036L13592.3057,-3356.3032L13592.3059,-3356.3006L13592.3037,-3356.2967L13592.2972,-3356.2905L13592.2898,-3356.2869L13592.2867,-3356.2851L13592.286,-3356.2832L13592.286,-3356.2811L13592.2867,-3356.2774L13592.2852,-3356.2766L13592.2852,-3356.3059L13592.2876,-3356.3066L13592.2918,-3356.3058Z"/>
<path content="和歌山県,,東牟婁郡,那智勝浦町,,30421" xlink:title="和歌山県" d="M13592.3763,-3356.2944L13592.3781,-3356.2907L13592.3758,-3356.2898L13592.3669,-3356.2881L13592.3644,-3356.2888L13592.3608,-3356.2909L13592.3581,-3356.2918L13592.3547,-3356.2914L13592.352,-3356.2893L13592.3469,-3356.2851L13592.3396,-3356.2847L13592.3337,-3356.2858L13592.3304,-3356.2875L13592.3304,-3356.2902L13592.333,-3356.2912L13592.3466,-3356.2978L13592.3519,-3356.3022L13592.3609,-3356.31L13592.3654,-3356.3145L13592.369,-3356.3131L13592.3672,-3356.3111L13592.367,-3356.3088L13592.367,-3356.3064L13592.3685,-3356.3035L13592.3718,-3356.3008L13592.3736,-3356.2974L13592.3763,-3356.2944Z"/>
<path content="和歌山県,,東牟婁郡,那智勝浦町,,30421" xlink:title="和歌山県" d="M13592.2852,-3357.0608L13592.2864,-3357.0548L13592.2852,-3357.0537Z"/>
<path content="和歌山県,,東牟婁郡,那智勝浦町,,30421" xlink:title="和歌山県" d="M13592.3242,-3355.8293L13592.3258,-3355.8226L13592.3288,-3355.8227L13592.3348,-3355.8241L13592.3401,-3355.8241L13592.3434,-3355.8172L13592.3439,-3355.8123L13592.3422,-3355.8088L13592.3441,-3355.8039L13592.3422,-3355.7994L13592.3391,-3355.7976L13592.3366,-3355.799L13592.3353,-3355.8021L13592.3345,-3355.8049L13592.3319,-3355.8035L13592.3288,-3355.8021L13592.3244,-3355.8034L13592.3246,-3355.8076L13592.3229,-3355.8142L13592.3212,-3355.8163L13592.3156,-3355.8191L13592.3152,-3355.8246L13592.3156,-3355.8299L13592.3171,-3355.8333L13592.3183,-3355.8358L13592.321,-3355.8355L13592.3221,-3355.8333L13592.3242,-3355.8293Z"/>
<path content="和歌山県,,東牟婁郡,那智勝浦町,,30421" xlink:title="和歌山県" d="M13593.0513,-3356.4204L13593.0514,-3356.4179L13593.0494,-3356.4166L13593.0468,-3356.4176L13593.0432,-3356.4186L13593.0427,-3356.4178L13593.0404,-3356.4143L13593.0366,-3356.4121L13593.0281,-3356.409L13593.0228,-3356.4091L13593.0203,-3356.412L13593.0189,-3356.4167L13593.0198,-3356.4213L13593.0217,-3356.4247L13593.0252,-3356.4302L13593.0275,-3356.4323L13593.0298,-3356.4331L13593.0376,-3356.4339L13593.0403,-3356.4331L13593.0424,-3356.4318L13593.0454,-3356.4314L13593.0469,-3356.4307L13593.048,-3356.4281L13593.0493,-3356.4236L13593.0513,-3356.4204Z"/>
<path content="和歌山県,,東牟婁郡,那智勝浦町,,30421" xlink:title="和歌山県" d="M13593.3333,-3356.3885L13593.335,-3356.3872L13593.3344,-3356.3854L13593.3334,-3356.3835L13593.3333,-3356.3833L13593.3332,-3356.3828L13593.3319,-3356.3822L13593.3317,-3356.3812L13593.3319,-3356.3808L13593.332,-3356.3803L13593.3333,-3356.3801L13593.3351,-3356.3798L13593.3376,-3356.3789L13593.3403,-3356.3774L13593.3411,-3356.3757L13593.3401,-3356.3733L13593.341,-3356.3684L13593.3409,-3356.3656L13593.3397,-3356.3647L13593.3378,-3356.3643L13593.3333,-3356.3642L13593.3332,-3356.3642L13593.3326,-3356.363L13593.3281,-3356.3619L13593.326,-3356.3609L13593.322,-3356.3596L13593.3205,-3356.3609L13593.3194,-3356.3623L13593.3198,-3356.3639L13593.3207,-3356.365L13593.3234,-3356.368L13593.3242,-3356.3714L13593.322,-3356.3752L13593.3208,-3356.377L13593.3194,-3356.3782L13593.3183,-3356.3786L13593.3109,-3356.3817L13593.3092,-3356.3841L13593.3093,-3356.3863L13593.3114,-3356.3869L13593.313,-3356.3856L13593.3137,-3356.3858L13593.3139,-3356.3867L13593.3145,-3356.3876L13593.3181,-3356.3885L13593.3194,-3356.3893L13593.3211,-3356.3891L13593.3214,-3356.3887L13593.3217,-3356.3885L13593.3223,-3356.3884L13593.3232,-3356.3883L13593.3246,-3356.3883L13593.3265,-3356.3893L13593.3278,-3356.3897L13593.3305,-3356.3899L13593.3324,-3356.3891L13593.3333,-3356.3885Z"/>
<path content="和歌山県,,東牟婁郡,那智勝浦町,,30421" xlink:title="和歌山県" d="M13593.2917,-3356.3803L13593.2912,-3356.3753L13593.2906,-3356.374L13593.2949,-3356.3701L13593.301,-3356.3693L13593.304,-3356.3699L13593.3092,-3356.3694L13593.3132,-3356.3658L13593.3179,-3356.3636L13593.3187,-3356.3625L13593.319,-3356.3605L13593.319,-3356.3593L13593.3138,-3356.3582L13593.3067,-3356.3623L13593.3032,-3356.3624L13593.3009,-3356.3617L13593.2962,-3356.3619L13593.2941,-3356.364L13593.2921,-3356.3658L13593.2881,-3356.3656L13593.2861,-3356.3661L13593.2844,-3356.3667L13593.2804,-3356.3677L13593.2792,-3356.3688L13593.2793,-3356.3711L13593.2807,-3356.3725L13593.2824,-3356.3737L13593.282,-3356.3744L13593.2807,-3356.3741L13593.279,-3356.3746L13593.2793,-3356.3767L13593.2801,-3356.3777L13593.283,-3356.3782L13593.2837,-3356.3793L13593.2831,-3356.38L13593.2815,-3356.3795L13593.2794,-3356.3792L13593.2747,-3356.3793L13593.273,-3356.384L13593.2744,-3356.3904L13593.2772,-3356.3921L13593.2815,-3356.3927L13593.2858,-3356.388L13593.2851,-3356.3862L13593.285,-3356.3844L13593.2868,-3356.3823L13593.2881,-3356.3822L13593.2917,-3356.3803Z"/>
<path content="和歌山県,,東牟婁郡,那智勝浦町,,30421" xlink:title="和歌山県" d="M13592.3848,-3355.8808L13592.3808,-3355.8751L13592.3733,-3355.873L13592.3658,-3355.8757L13592.3605,-3355.8774L13592.3578,-3355.8774L13592.358,-3355.8813L13592.3592,-3355.8886L13592.3618,-3355.8942L13592.367,-3355.896L13592.371,-3355.8985L13592.3768,-3355.8954L13592.3834,-3355.8895L13592.3852,-3355.8863L13592.3848,-3355.8808Z"/>
<path content="和歌山県,,東牟婁郡,那智勝浦町,,30421" xlink:title="和歌山県" d="M13592.4978,-3356.8764L13592.4907,-3356.876L13592.4849,-3356.877L13592.4818,-3356.8791L13592.4807,-3356.8827L13592.4831,-3356.8848L13592.4879,-3356.8905L13592.4936,-3356.8932L13592.4994,-3356.8951L13592.5,-3356.8955L13592.5036,-3356.8976L13592.5125,-3356.8976L13592.5152,-3356.8963L13592.5176,-3356.8936L13592.5169,-3356.8912L13592.5116,-3356.8874L13592.5072,-3356.8828L13592.5039,-3356.8787L13592.5,-3356.8772L13592.4978,-3356.8764Z"/>
<path content="和歌山県,,東牟婁郡,那智勝浦町,,30421" xlink:title="和歌山県" d="M13592.2852,-3357.0235L13592.286,-3357.0236L13592.2863,-3357.0239L13592.2879,-3357.0265L13592.29,-3357.029L13592.2925,-3357.0293L13592.2959,-3357.029L13592.2976,-3357.0276L13592.2977,-3357.0255L13592.2977,-3357.0244L13592.2991,-3357.0241L13592.3002,-3357.025L13592.3014,-3357.0252L13592.3028,-3357.0246L13592.3033,-3357.0242L13592.3038,-3357.0234L13592.3036,-3357.021L13592.3028,-3357.0208L13592.2993,-3357.0205L13592.2966,-3357.0209L13592.2959,-3357.0219L13592.2948,-3357.0226L13592.294,-3357.0228L13592.2932,-3357.0227L13592.2904,-3357.0208L13592.2881,-3357.0159L13592.2852,-3357.0143Z"/>
<path content="和歌山県,,東牟婁郡,那智勝浦町,,30421" xlink:title="和歌山県" d="M13593.426,-3357.3345L13593.4306,-3357.334L13593.4344,-3357.3343L13593.4367,-3357.3313L13593.4375,-3357.3245L13593.4367,-3357.3214L13593.4333,-3357.3203L13593.4304,-3357.3203L13593.4277,-3357.3229L13593.4264,-3357.324L13593.4248,-3357.325L13593.422,-3357.3256L13593.4193,-3357.324L13593.421,-3357.3214L13593.4229,-3357.3189L13593.4233,-3357.3168L13593.4212,-3357.3161L13593.4187,-3357.3159L13593.4168,-3357.3177L13593.4162,-3357.3187L13593.4137,-3357.3189L13593.4107,-3357.3208L13593.4078,-3357.3247L13593.4057,-3357.3256L13593.4036,-3357.3277L13593.4034,-3357.3324L13593.4036,-3357.3361L13593.4068,-3357.3375L13593.4107,-3357.338L13593.4153,-3357.3371L13593.4179,-3357.3361L13593.422,-3357.335L13593.426,-3357.3345Z"/>
<path content="和歌山県,,東牟婁郡,那智勝浦町,,30421" xlink:title="和歌山県" d="M13594.0452,-3357.2437L13594.0278,-3357.2346L13594.025,-3357.2347L13594.0241,-3357.2376L13594.0262,-3357.2475L13594.0288,-3357.2538L13594.0321,-3357.2608L13594.035,-3357.2607L13594.04,-3357.2584L13594.0511,-3357.2549L13594.0531,-3357.2506L13594.0452,-3357.2437Z"/>
<path content="和歌山県,,東牟婁郡,那智勝浦町,,30421" xlink:title="和歌山県" d="M13593.4039,-3357.3186L13593.4053,-3357.3166L13593.4083,-3357.3123L13593.4083,-3357.3112L13593.4049,-3357.3093L13593.4012,-3357.3081L13593.3972,-3357.3074L13593.3928,-3357.3063L13593.3882,-3357.3065L13593.3832,-3357.3077L13593.3784,-3357.3091L13593.3755,-3357.3091L13593.3736,-3357.3102L13593.3729,-3357.3124L13593.3721,-3357.3147L13593.3721,-3357.3161L13593.3736,-3357.318L13593.3769,-3357.3191L13593.3794,-3357.318L13593.3828,-3357.3177L13593.3851,-3357.3189L13593.3895,-3357.3193L13593.397,-3357.3203L13593.4012,-3357.3205L13593.4039,-3357.3186Z"/>
<path content="和歌山県,,東牟婁郡,那智勝浦町,,30421" xlink:title="和歌山県" d="M13592.4857,-3355.8499L13592.4914,-3355.8461L13592.4924,-3355.8402L13592.4903,-3355.8353L13592.4843,-3355.8345L13592.4811,-3355.8366L13592.4801,-3355.8385L13592.48,-3355.8403L13592.4791,-3355.8407L13592.478,-3355.8404L13592.4777,-3355.8393L13592.4755,-3355.839L13592.4736,-3355.8369L13592.4729,-3355.8341L13592.4722,-3355.8333L13592.4704,-3355.8316L13592.4662,-3355.832L13592.4659,-3355.8333L13592.465,-3355.8365L13592.4654,-3355.8438L13592.4675,-3355.8466L13592.4698,-3355.848L13592.4736,-3355.8481L13592.4759,-3355.8463L13592.478,-3355.8509L13592.4807,-3355.852L13592.4857,-3355.8499Z"/>
<path content="和歌山県,,東牟婁郡,那智勝浦町,,30421" xlink:title="和歌山県" d="M13592.3259,-3356.2721L13592.3149,-3356.2721L13592.3051,-3356.2736L13592.3051,-3356.2753L13592.3087,-3356.2818L13592.3108,-3356.2843L13592.317,-3356.2843L13592.3215,-3356.2825L13592.3236,-3356.2823L13592.3289,-3356.2815L13592.3331,-3356.281L13592.337,-3356.2793L13592.3393,-3356.2781L13592.3379,-3356.2751L13592.3259,-3356.2721Z"/>
<path content="和歌山県,,東牟婁郡,那智勝浦町,,30421" xlink:title="和歌山県" d="M13593.5251,-3357.3146L13593.5229,-3357.3126L13593.5174,-3357.3132L13593.5142,-3357.3125L13593.5118,-3357.3127L13593.5096,-3357.3143L13593.5074,-3357.3161L13593.5061,-3357.318L13593.5045,-3357.32L13593.5025,-3357.3225L13593.4999,-3357.3246L13593.4999,-3357.3257L13593.5026,-3357.3266L13593.5093,-3357.3274L13593.5146,-3357.3277L13593.5188,-3357.3272L13593.5213,-3357.325L13593.5229,-3357.3232L13593.5229,-3357.3214L13593.524,-3357.3189L13593.5244,-3357.3175L13593.5249,-3357.3162L13593.5251,-3357.3146Z"/>
<path content="和歌山県,,東牟婁郡,那智勝浦町,,30421" xlink:title="和歌山県" d="M13593.4596,-3357.3108L13593.4564,-3357.3108L13593.455,-3357.3128L13593.4523,-3357.3161L13593.451,-3357.3205L13593.4508,-3357.3299L13593.4535,-3357.3311L13593.4585,-3357.3311L13593.4661,-3357.3303L13593.4671,-3357.3282L13593.4671,-3357.3254L13593.4654,-3357.3201L13593.4629,-3357.3131L13593.4596,-3357.3108Z"/>
<path content="和歌山県,,東牟婁郡,那智勝浦町,,30421" xlink:title="和歌山県" d="M13593.9765,-3357.3201L13593.9701,-3357.3182L13593.9634,-3357.3201L13593.9614,-3357.3223L13593.9643,-3357.3268L13593.9714,-3357.3291L13593.9959,-3357.3338L13593.9987,-3357.3334L13593.9994,-3357.3323L13593.9855,-3357.3255L13593.979,-3357.3232L13593.9765,-3357.3201Z"/>
<path content="和歌山県,,東牟婁郡,那智勝浦町,,30421" xlink:title="和歌山県" d="M13593.9641,-3357.209L13593.9622,-3357.2089L13593.9594,-3357.2099L13593.9578,-3357.2117L13593.9576,-3357.2139L13593.9576,-3357.2174L13593.9607,-3357.2234L13593.9661,-3357.2316L13593.9716,-3357.2327L13593.9783,-3357.2344L13593.9791,-3357.2335L13593.9727,-3357.2292L13593.9715,-3357.2278L13593.9708,-3357.2255L13593.9691,-3357.2227L13593.9681,-3357.2205L13593.9677,-3357.2186L13593.9671,-3357.2171L13593.9655,-3357.2163L13593.965,-3357.2153L13593.965,-3357.2139L13593.9652,-3357.2129L13593.9656,-3357.212L13593.9655,-3357.2103L13593.9641,-3357.209Z"/>
<path content="和歌山県,,東牟婁郡,那智勝浦町,,30421" xlink:title="和歌山県" d="M13592.2852,-3356.3211L13592.2898,-3356.3211L13592.2911,-3356.3216L13592.2925,-3356.322L13592.2952,-3356.322L13592.2965,-3356.3209L13592.2972,-3356.3197L13592.2983,-3356.3173L13592.2976,-3356.3156L13592.2927,-3356.3147L13592.2865,-3356.3136L13592.2852,-3356.3133Z"/>
<path content="和歌山県,,東牟婁郡,那智勝浦町,,30421" xlink:title="和歌山県" d="M13594.0379,-3357.3434L13594.0318,-3357.3404L13594.0295,-3357.3404L13594.0247,-3357.3409L13594.0241,-3357.3385L13594.0222,-3357.3369L13594.0203,-3357.3376L13594.0176,-3357.3399L13594.0178,-3357.3423L13594.0182,-3357.345L13594.0205,-3357.3485L13594.0272,-3357.35L13594.0333,-3357.35L13594.0374,-3357.3499L13594.0416,-3357.3479L13594.0414,-3357.3457L13594.0379,-3357.3434Z"/>
<path content="和歌山県,,東牟婁郡,那智勝浦町,,30421" xlink:title="和歌山県" d="M13592.4125,-3356.2932L13592.4136,-3356.2928L13592.4161,-3356.2928L13592.4183,-3356.2935L13592.4197,-3356.2936L13592.4207,-3356.2917L13592.4207,-3356.2892L13592.4209,-3356.287L13592.4186,-3356.2865L13592.4159,-3356.2862L13592.4145,-3356.2867L13592.4139,-3356.2875L13592.4124,-3356.2873L13592.4116,-3356.2866L13592.4103,-3356.2857L13592.4088,-3356.2846L13592.4052,-3356.2847L13592.4011,-3356.2849L13592.3991,-3356.2854L13592.397,-3356.2865L13592.397,-3356.2887L13592.3994,-3356.291L13592.4022,-3356.2936L13592.4042,-3356.2948L13592.4058,-3356.2948L13592.4066,-3356.2962L13592.4072,-3356.2978L13592.4082,-3356.2983L13592.41,-3356.2983L13592.4106,-3356.2976L13592.4113,-3356.2964L13592.4116,-3356.2953L13592.4118,-3356.2942L13592.4125,-3356.2932Z"/>
<path content="和歌山県,,東牟婁郡,那智勝浦町,,30421" xlink:title="和歌山県" d="M13592.4717,-3356.0529L13592.4644,-3356.052L13592.4581,-3356.0529L13592.4559,-3356.0559L13592.4559,-3356.0602L13592.4577,-3356.0635L13592.4614,-3356.0635L13592.4646,-3356.0632L13592.4702,-3356.0597L13592.4751,-3356.0559L13592.4753,-3356.0532L13592.4717,-3356.0529Z"/>
<path content="和歌山県,,東牟婁郡,那智勝浦町,,30421" xlink:title="和歌山県" d="M13592.4516,-3355.8219L13592.4467,-3355.8186L13592.4438,-3355.8158L13592.4401,-3355.8165L13592.4381,-3355.8196L13592.4379,-3355.8215L13592.4385,-3355.8226L13592.4398,-3355.8226L13592.4415,-3355.8214L13592.4413,-3355.8238L13592.442,-3355.8263L13592.4452,-3355.8284L13592.4483,-3355.8293L13592.4526,-3355.8268L13592.4529,-3355.8238L13592.4516,-3355.8219Z"/>
<path content="和歌山県,,東牟婁郡,那智勝浦町,,30421" xlink:title="和歌山県" d="M13592.4368,-3355.9711L13592.4315,-3355.9707L13592.429,-3355.9732L13592.429,-3355.975L13592.4312,-3355.978L13592.4362,-3355.9805L13592.4379,-3355.9821L13592.4408,-3355.9825L13592.4429,-3355.9808L13592.4431,-3355.9797L13592.4433,-3355.9775L13592.4431,-3355.9752L13592.4404,-3355.9733L13592.4368,-3355.9711Z"/>
<path content="和歌山県,,東牟婁郡,那智勝浦町,,30421" xlink:title="和歌山県" d="M13593.9918,-3357.2096L13593.9873,-3357.2086L13593.9822,-3357.2183L13593.9832,-3357.2199L13593.9859,-3357.2216L13593.9882,-3357.2228L13593.9903,-3357.2215L13593.9944,-3357.2127L13593.9936,-3357.2107L13593.9918,-3357.2096Z"/>
<path content="和歌山県,,東牟婁郡,那智勝浦町,,30421" xlink:title="和歌山県" d="M13592.5,-3355.8916L13592.4994,-3355.8915L13592.4921,-3355.893L13592.4889,-3355.8939L13592.4874,-3355.8954L13592.4912,-3355.8977L13592.4956,-3355.898L13592.5,-3355.898L13592.5017,-3355.898L13592.5048,-3355.8975L13592.5055,-3355.8943L13592.5046,-3355.8926L13592.5,-3355.8916Z"/>
<path content="和歌山県,,東牟婁郡,那智勝浦町,,30421" xlink:title="和歌山県" d="M13592.3135,-3356.3218L13592.312,-3356.3199L13592.3085,-3356.3202L13592.3077,-3356.3221L13592.3057,-3356.3236L13592.3038,-3356.3254L13592.3033,-3356.3284L13592.3044,-3356.3294L13592.31,-3356.3304L13592.3121,-3356.3296L13592.3132,-3356.3268L13592.3135,-3356.3255L13592.3135,-3356.3218Z"/>
<path content="和歌山県,,東牟婁郡,那智勝浦町,,30421" xlink:title="和歌山県" d="M13593.4329,-3357.2904L13593.4304,-3357.289L13593.4265,-3357.2913L13593.4263,-3357.2939L13593.4263,-3357.297L13593.4283,-3357.2981L13593.4306,-3357.2981L13593.4329,-3357.297L13593.4346,-3357.2949L13593.435,-3357.2928L13593.4348,-3357.2913L13593.4329,-3357.2904Z"/>
<path content="和歌山県,,東牟婁郡,那智勝浦町,,30421" xlink:title="和歌山県" d="M13592.3442,-3357.0119L13592.3362,-3357.0089L13592.3327,-3357.0135L13592.3381,-3357.017L13592.3409,-3357.017L13592.3438,-3357.0159L13592.3442,-3357.0119Z"/>
<path content="和歌山県,,東牟婁郡,那智勝浦町,,30421" xlink:title="和歌山県" d="M13593.5059,-3357.2825L13593.504,-3357.2822L13593.4989,-3357.283L13593.4978,-3357.2847L13593.4986,-3357.2863L13593.5,-3357.2885L13593.5017,-3357.2896L13593.5033,-3357.2901L13593.5053,-3357.2901L13593.5067,-3357.2893L13593.5071,-3357.288L13593.5077,-3357.2861L13593.5078,-3357.2846L13593.5073,-3357.2836L13593.5059,-3357.2825Z"/>
<path content="和歌山県,,東牟婁郡,那智勝浦町,,30421" xlink:title="和歌山県" d="M13592.9582,-3356.4075L13592.9557,-3356.4067L13592.9536,-3356.407L13592.9523,-3356.4082L13592.9511,-3356.4102L13592.9517,-3356.4119L13592.9566,-3356.413L13592.9634,-3356.4152L13592.9642,-3356.4144L13592.9639,-3356.4128L13592.9621,-3356.4115L13592.9582,-3356.4075Z"/>
<path content="和歌山県,,東牟婁郡,那智勝浦町,,30421" xlink:title="和歌山県" d="M13592.3823,-3356.2954L13592.3799,-3356.2945L13592.3782,-3356.2946L13592.3774,-3356.296L13592.3775,-3356.2975L13592.3803,-3356.3038L13592.3826,-3356.3027L13592.3839,-3356.301L13592.3855,-3356.2996L13592.3872,-3356.2992L13592.3878,-3356.299L13592.3876,-3356.2962L13592.3854,-3356.2955L13592.3823,-3356.2954Z"/>
<path content="和歌山県,,東牟婁郡,那智勝浦町,,30421" xlink:title="和歌山県" d="M13592.3781,-3356.3052L13592.3749,-3356.3052L13592.3761,-3356.3143L13592.3776,-3356.3143L13592.3805,-3356.3156L13592.3821,-3356.3156L13592.3832,-3356.3128L13592.3816,-3356.3095L13592.3781,-3356.3052Z"/>
<path content="和歌山県,,東牟婁郡,那智勝浦町,,30421" xlink:title="和歌山県" d="M13593.9997,-3357.2262L13593.9922,-3357.2241L13593.9894,-3357.2275L13593.9907,-3357.2283L13593.9981,-3357.2306L13593.9993,-3357.2311L13594.0013,-3357.2311L13594.0027,-3357.2305L13594.0028,-3357.2291L13594.0028,-3357.2277L13594.0014,-3357.2268L13593.9997,-3357.2262Z"/>
<path content="和歌山県,,東牟婁郡,那智勝浦町,,30421" xlink:title="和歌山県" d="M13593.489,-3357.2765L13593.4858,-3357.2765L13593.4827,-3357.2768L13593.4812,-3357.2784L13593.4799,-3357.28L13593.4792,-3357.2821L13593.4801,-3357.2842L13593.4815,-3357.2842L13593.4834,-3357.2843L13593.4852,-3357.284L13593.4872,-3357.2829L13593.4872,-3357.2817L13593.4869,-3357.2808L13593.4876,-3357.2796L13593.4889,-3357.2782L13593.489,-3357.2765Z"/>
<path content="和歌山県,,東牟婁郡,那智勝浦町,,30421" xlink:title="和歌山県" d="M13593.3759,-3357.1773L13593.3769,-3357.1771L13593.3793,-3357.1774L13593.3815,-3357.1781L13593.3856,-3357.1783L13593.3874,-3357.1783L13593.3876,-3357.1764L13593.3811,-3357.1761L13593.3767,-3357.1751L13593.3709,-3357.1746L13593.3686,-3357.1735L13593.367,-3357.1752L13593.3666,-3357.1767L13593.3684,-3357.1767L13593.3694,-3357.1761L13593.3709,-3357.1761L13593.3719,-3357.1773L13593.3731,-3357.1788L13593.3753,-3357.1793L13593.3755,-3357.1783L13593.3755,-3357.1774L13593.3759,-3357.1773Z"/>
<path content="和歌山県,,東牟婁郡,那智勝浦町,,30421" xlink:title="和歌山県" d="M13592.9696,-3356.4228L13592.964,-3356.4228L13592.9617,-3356.4241L13592.9638,-3356.4259L13592.967,-3356.4268L13592.9704,-3356.4271L13592.9716,-3356.4277L13592.973,-3356.4266L13592.9726,-3356.4254L13592.9717,-3356.425L13592.9708,-3356.4232L13592.9696,-3356.4228Z"/>
<path content="和歌山県,,東牟婁郡,那智勝浦町,,30421" xlink:title="和歌山県" d="M13592.3063,-3355.8644L13592.305,-3355.8627L13592.3012,-3355.8629L13592.2995,-3355.8654L13592.3012,-3355.869L13592.3043,-3355.8688L13592.3063,-3355.8644Z"/>
<path content="和歌山県,,東牟婁郡,那智勝浦町,,30421" xlink:title="和歌山県" d="M13592.8946,-3356.4082L13592.8927,-3356.4079L13592.8897,-3356.4094L13592.8895,-3356.4101L13592.8886,-3356.4108L13592.8882,-3356.4118L13592.8892,-3356.4138L13592.8909,-3356.4145L13592.8921,-3356.4145L13592.8931,-3356.4135L13592.8933,-3356.412L13592.8934,-3356.4112L13592.8934,-3356.4097L13592.894,-3356.4089L13592.8946,-3356.4082Z"/>
<path content="和歌山県,,東牟婁郡,那智勝浦町,,30421" xlink:title="和歌山県" d="M13592.391,-3356.29L13592.3874,-3356.2896L13592.3841,-3356.2921L13592.3859,-3356.2939L13592.3897,-3356.2938L13592.391,-3356.29Z"/>
<path content="和歌山県,,東牟婁郡,那智勝浦町,,30421" xlink:title="和歌山県" d="M13592.3976,-3356.2997L13592.3983,-3356.299L13592.3985,-3356.2974L13592.3985,-3356.2964L13592.3967,-3356.296L13592.3933,-3356.2969L13592.3927,-3356.2977L13592.3931,-3356.2993L13592.3942,-3356.2995L13592.3958,-3356.2993L13592.3976,-3356.2997Z"/>
<path content="和歌山県,,東牟婁郡,那智勝浦町,,30421" xlink:title="和歌山県" d="M13592.5097,-3356.0499L13592.5081,-3356.0487L13592.5051,-3356.0502L13592.5043,-3356.0509L13592.5039,-3356.0522L13592.5049,-3356.0525L13592.5093,-3356.0512L13592.5097,-3356.0499Z"/>
<path content="和歌山県,,東牟婁郡,那智勝浦町,,30421" xlink:title="和歌山県" d="M13592.7571,-3356.3631L13592.7546,-3356.3628L13592.7537,-3356.3637L13592.7532,-3356.3654L13592.7553,-3356.3662L13592.7569,-3356.3658L13592.7575,-3356.3642L13592.7571,-3356.3631Z"/>
</g>
</svg>
