<?xml version="1.0" encoding="UTF-8"?>
<svg  xmlns="http://www.w3.org/2000/svg" xmlns:xlink="http://www.w3.org/1999/xlink" xmlns:go="http://purl.org/svgmap/profile" property="geometry,N03_001,N03_002,N03_003,N03_004,N03_005,N03_007" viewBox="13592.28515625 -3458.49609375 4.39453125 4.39453125" go:dataArea="13592.28515625 -3458.49609375 4.39453125 4.39453125" >
<metadata>
 <rdf:RDF xmlns:rdf="http://www.w3.org/1999/02/22-rdf-syntax-ns#" xmlns:crs="http://opengis.org/xmldtds/transformations.dtd" xmlns:svg="http://www.w3.org/svg" >
  <rdf:Description>
   <crs:CoordinateReferenceSystem rdf:resource="http://purl.org/crs/84" svg:transform="matrix(100.0,0.0,0.0,-100.0,0.0,0.0)" />
  </rdf:Description>
 </rdf:RDF>
</metadata>
<globalCoordinateSystem srsName="http://purl.org/crs/84" transform="matrix(100.0,0.0,0.0,-100.0,0.0,0.0)" />
<defs>
 <g id="p0" >
  <circle cx="0.0" cy="0.0" r="3" stroke="green" stroke-width="2.0" vector-effect="non-scaling-stroke" />
 </g>
</defs>
<g fill="#0000ff" fill-rule="evenodd" opacity="0.5" >
<path content="奈良県,,,奈良市,,29201" xlink:title="奈良県" d="M13596.6797,-3458.4961L13596.6797,-3455.9823L13596.6704,-3455.9839L13596.6667,-3455.983L13596.6616,-3455.9818L13596.6488,-3455.9754L13596.6417,-3455.9701L13596.6301,-3455.962L13596.6225,-3455.96L13596.5894,-3455.95L13596.5786,-3455.9486L13596.5676,-3455.949L13596.5535,-3455.9496L13596.5411,-3455.9538L13596.5227,-3455.9623L13596.5104,-3455.9634L13596.5024,-3455.9608L13596.4865,-3455.9556L13596.4732,-3455.9468L13596.4552,-3455.933L13596.4308,-3455.9158L13596.4133,-3455.9049L13596.3921,-3455.8918L13596.3807,-3455.8855L13596.3653,-3455.8779L13596.3425,-3455.8808L13596.3278,-3455.8824L13596.3149,-3455.8816L13596.3011,-3455.8748L13596.2794,-3455.8594L13596.2659,-3455.8467L13596.2445,-3455.8333L13596.2415,-3455.8314L13596.2219,-3455.8227L13596.2025,-3455.8144L13596.1817,-3455.8122L13596.1619,-3455.8098L13596.1386,-3455.8121L13596.1211,-3455.8134L13596.1024,-3455.8116L13596.08,-3455.8114L13596.0652,-3455.808L13596.0434,-3455.8054L13596.0282,-3455.8048L13595.9982,-3455.8086L13595.9718,-3455.8079L13595.9481,-3455.8072L13595.9268,-3455.8051L13595.9014,-3455.8047L13595.8823,-3455.8072L13595.8691,-3455.81L13595.8512,-3455.8159L13595.8333,-3455.8204L13595.8088,-3455.8265L13595.8001,-3455.8333L13595.7833,-3455.8465L13595.7589,-3455.8717L13595.748,-3455.8816L13595.7374,-3455.8869L13595.7272,-3455.8904L13595.7091,-3455.8947L13595.6928,-3455.8943L13595.6631,-3455.8947L13595.6412,-3455.894L13595.6157,-3455.8954L13595.5976,-3455.8936L13595.5679,-3455.8891L13595.5489,-3455.8863L13595.536,-3455.8844L13595.5114,-3455.8812L13595.4907,-3455.8739L13595.4658,-3455.8625L13595.4481,-3455.8434L13595.4394,-3455.8382L13595.4271,-3455.8333L13595.4254,-3455.8327L13595.4161,-3455.8321L13595.3956,-3455.8321L13595.3865,-3455.8331L13595.3859,-3455.8333L13595.3758,-3455.838L13595.3607,-3455.843L13595.3408,-3455.8623L13595.3249,-3455.8786L13595.3129,-3455.8952L13595.3047,-3455.9018L13595.3017,-3455.9042L13595.2926,-3455.9165L13595.2814,-3455.9231L13595.2537,-3455.9368L13595.2343,-3455.9386L13595.2199,-3455.9394L13595.2001,-3455.9382L13595.1683,-3455.9316L13595.151,-3455.9316L13595.135,-3455.937L13595.1207,-3455.9396L13595.1098,-3455.9396L13595.095,-3455.9384L13595.0535,-3455.9273L13595.0355,-3455.9199L13595.0186,-3455.9167L13595,-3455.9138L13594.9675,-3455.9088L13594.9639,-3455.9082L13594.9513,-3455.9066L13594.938,-3455.9028L13594.9164,-3455.903L13594.8729,-3455.9014L13594.8676,-3455.9024L13594.8624,-3455.9075L13594.8493,-3455.9294L13594.838,-3455.9439L13594.8249,-3455.9577L13594.7754,-3455.9902L13594.7693,-3455.9942L13594.7536,-3456.0094L13594.7335,-3456.0137L13594.714,-3456.0191L13594.695,-3456.0229L13594.672,-3456.0251L13594.6536,-3456.0268L13594.6123,-3456.0298L13594.6055,-3456.0371L13594.5989,-3456.0458L13594.5877,-3456.0545L13594.5728,-3456.0594L13594.5521,-3456.064L13594.5379,-3456.0678L13594.5367,-3456.0681L13594.5256,-3456.0719L13594.5073,-3456.0826L13594.4907,-3456.0954L13594.4858,-3456.1025L13594.4758,-3456.1128L13594.4572,-3456.1339L13594.4427,-3456.1471L13594.4119,-3456.1802L13594.3946,-3456.198L13594.3859,-3456.2104L13594.3788,-3456.2315L13594.3743,-3456.2584L13594.3737,-3456.2664L13594.373,-3456.2762L13594.3672,-3456.2907L13594.3552,-3456.2998L13594.3403,-3456.3056L13594.3279,-3456.3064L13594.3105,-3456.3072L13594.2975,-3456.3153L13594.2921,-3456.3265L13594.2938,-3456.3315L13594.2996,-3456.34L13594.3033,-3456.3489L13594.3161,-3456.3662L13594.3261,-3456.389L13594.329,-3456.3985L13594.3294,-3456.4037L13594.3273,-3456.4072L13594.3226,-3456.4156L13594.3134,-3456.4234L13594.3012,-3456.4275L13594.2817,-3456.4312L13594.2619,-3456.4308L13594.249,-3456.4321L13594.2403,-3456.4411L13594.2362,-3456.4498L13594.2354,-3456.4567L13594.2349,-3456.471L13594.2358,-3456.4877L13594.236,-3456.4885L13594.2426,-3456.5111L13594.247,-3456.5244L13594.2527,-3456.5398L13594.2639,-3456.5547L13594.279,-3456.5678L13594.2956,-3456.5807L13594.3099,-3456.5877L13594.3299,-3456.6034L13594.3548,-3456.6171L13594.3709,-3456.6262L13594.3796,-3456.6351L13594.3968,-3456.6472L13594.402,-3456.6537L13594.4134,-3456.6667L13594.4161,-3456.6698L13594.4284,-3456.6798L13594.4397,-3456.6884L13594.4471,-3456.6971L13594.4494,-3456.7054L13594.4409,-3456.7199L13594.4239,-3456.7348L13594.4166,-3456.7397L13594.4093,-3456.7447L13594.391,-3456.7616L13594.3729,-3456.7722L13594.3655,-3456.7766L13594.3591,-3456.7804L13594.341,-3456.7882L13594.3294,-3456.7959L13594.3045,-3456.812L13594.2954,-3456.8219L13594.295,-3456.8294L13594.2987,-3456.8401L13594.3062,-3456.8501L13594.3095,-3456.8587L13594.3095,-3456.8649L13594.3091,-3456.8716L13594.3021,-3456.8844L13594.2971,-3456.8985L13594.2854,-3456.9121L13594.2733,-3456.9262L13594.2706,-3456.93L13594.261,-3456.9361L13594.2395,-3456.9436L13594.1937,-3456.9629L13594.1697,-3456.9794L13594.1667,-3456.9811L13594.1527,-3456.9889L13594.125,-3457.0076L13594.1138,-3457.0171L13594.1015,-3457.0242L13594.089,-3457.0366L13594.0828,-3457.0425L13594.074,-3457.0571L13594.069,-3457.0719L13594.0653,-3457.0877L13594.0644,-3457.1241L13594.0639,-3457.1254L13594.0591,-3457.1402L13594.0508,-3457.1576L13594.0374,-3457.1767L13594.0249,-3457.1899L13594.0159,-3457.2076L13594.005,-3457.2173L13593.9981,-3457.2273L13593.9977,-3457.2486L13593.9959,-3457.2733L13594.0048,-3457.2847L13594.0017,-3457.3049L13594.004,-3457.3134L13594.006,-3457.3245L13594.0041,-3457.3369L13593.9947,-3457.3539L13593.984,-3457.3699L13593.9776,-3457.3888L13593.972,-3457.3982L13593.9595,-3457.4287L13593.9527,-3457.4411L13593.9392,-3457.4501L13593.916,-3457.4528L13593.9144,-3457.4526L13593.8897,-3457.4494L13593.8686,-3457.4468L13593.8279,-3457.4389L13593.8086,-3457.4378L13593.7933,-3457.4327L13593.7777,-3457.4291L13593.7409,-3457.4253L13593.7178,-3457.4242L13593.702,-3457.4208L13593.6706,-3457.4253L13593.6514,-3457.4339L13593.6474,-3457.442L13593.645,-3457.4481L13593.6431,-3457.4577L13593.6363,-3457.4825L13593.6299,-3457.4997L13593.6298,-3457.5L13593.6228,-3457.5184L13593.6147,-3457.5339L13593.6081,-3457.5466L13593.6018,-3457.5589L13593.6,-3457.5733L13593.6012,-3457.5789L13593.6072,-3457.5924L13593.6073,-3457.5928L13593.6111,-3457.6003L13593.6159,-3457.6081L13593.6197,-3457.6343L13593.622,-3457.6553L13593.6223,-3457.678L13593.6193,-3457.6825L13593.6112,-3457.6867L13593.5986,-3457.6931L13593.5839,-3457.704L13593.5752,-3457.7153L13593.5737,-3457.73L13593.5776,-3457.7539L13593.5832,-3457.7743L13593.59,-3457.7856L13593.6047,-3457.8055L13593.6137,-3457.8179L13593.617,-3457.8268L13593.6198,-3457.8422L13593.6244,-3457.8558L13593.625,-3457.8629L13593.623,-3457.8772L13593.6153,-3457.8859L13593.6091,-3457.9038L13593.5996,-3457.9112L13593.5895,-3457.9176L13593.5746,-3457.9294L13593.5615,-3457.9455L13593.557,-3457.9633L13593.5495,-3457.9795L13593.5371,-3457.9987L13593.5291,-3458.0085L13593.5208,-3458.0157L13593.5107,-3458.0243L13593.4952,-3458.036L13593.4876,-3458.0412L13593.4707,-3458.0527L13593.4586,-3458.0629L13593.4529,-3458.0742L13593.4503,-3458.0844L13593.4496,-3458.1002L13593.4492,-3458.1119L13593.4473,-3458.1231L13593.4405,-3458.1322L13593.4292,-3458.1431L13593.4007,-3458.1554L13593.3925,-3458.1618L13593.3823,-3458.1764L13593.3759,-3458.1968L13593.3695,-3458.2214L13593.3574,-3458.2375L13593.3461,-3458.2469L13593.3333,-3458.2533L13593.3332,-3458.2534L13593.3201,-3458.2578L13593.3119,-3458.2582L13593.2963,-3458.2592L13593.2544,-3458.2755L13593.2182,-3458.2977L13593.2001,-3458.3135L13593.1944,-3458.3135L13593.1794,-3458.3151L13593.1511,-3458.3166L13593.1255,-3458.3213L13593.1029,-3458.3297L13593.0939,-3458.3333L13593.0703,-3458.3428L13593.0619,-3458.3441L13593.0179,-3458.3621L13593.0081,-3458.3643L13592.9908,-3458.3699L13592.984,-3458.3756L13592.9814,-3458.3873L13592.9817,-3458.4027L13592.9851,-3458.4151L13592.9908,-3458.4246L13593.0021,-3458.4415L13593.0176,-3458.4607L13593.0277,-3458.4682L13593.0436,-3458.4788L13593.0512,-3458.4856L13593.0549,-3458.4961Z"/>
<path content="奈良県,,,桜井市,,29206" xlink:title="奈良県" d="M13592.2852,-3454.1016L13592.2852,-3458.4961L13593.0549,-3458.4961L13593.0512,-3458.4856L13593.0436,-3458.4788L13593.0277,-3458.4682L13593.0176,-3458.4607L13593.0021,-3458.4415L13592.9908,-3458.4246L13592.9851,-3458.4151L13592.9817,-3458.4027L13592.9814,-3458.3873L13592.984,-3458.3756L13592.9908,-3458.3699L13593.0081,-3458.3643L13593.0179,-3458.3621L13593.0619,-3458.3441L13593.0703,-3458.3428L13593.0939,-3458.3333L13593.1029,-3458.3297L13593.1255,-3458.3213L13593.1511,-3458.3166L13593.1794,-3458.3151L13593.1944,-3458.3135L13593.2001,-3458.3135L13593.2182,-3458.2977L13593.2544,-3458.2755L13593.2963,-3458.2592L13593.3119,-3458.2582L13593.3201,-3458.2578L13593.3332,-3458.2534L13593.3333,-3458.2533L13593.3461,-3458.2469L13593.3574,-3458.2375L13593.3695,-3458.2214L13593.3759,-3458.1968L13593.3823,-3458.1764L13593.3925,-3458.1618L13593.4007,-3458.1554L13593.4292,-3458.1431L13593.4405,-3458.1322L13593.4473,-3458.1231L13593.4492,-3458.1119L13593.4496,-3458.1002L13593.4503,-3458.0844L13593.4529,-3458.0742L13593.4586,-3458.0629L13593.4707,-3458.0527L13593.4876,-3458.0412L13593.4952,-3458.036L13593.5107,-3458.0243L13593.5208,-3458.0157L13593.5291,-3458.0085L13593.5371,-3457.9987L13593.5495,-3457.9795L13593.557,-3457.9633L13593.5615,-3457.9455L13593.5746,-3457.9294L13593.5895,-3457.9176L13593.5996,-3457.9112L13593.6091,-3457.9038L13593.6153,-3457.8859L13593.623,-3457.8772L13593.625,-3457.8629L13593.6244,-3457.8558L13593.6198,-3457.8422L13593.617,-3457.8268L13593.6137,-3457.8179L13593.6047,-3457.8055L13593.59,-3457.7856L13593.5832,-3457.7743L13593.5776,-3457.7539L13593.5737,-3457.73L13593.5752,-3457.7153L13593.5839,-3457.704L13593.5986,-3457.6931L13593.6112,-3457.6867L13593.6193,-3457.6825L13593.6223,-3457.678L13593.622,-3457.6553L13593.6197,-3457.6343L13593.6159,-3457.6081L13593.6111,-3457.6003L13593.6073,-3457.5928L13593.6072,-3457.5924L13593.6012,-3457.5789L13593.6,-3457.5733L13593.6018,-3457.5589L13593.6081,-3457.5466L13593.6147,-3457.5339L13593.6228,-3457.5184L13593.6298,-3457.5L13593.6299,-3457.4997L13593.6363,-3457.4825L13593.6431,-3457.4577L13593.645,-3457.4481L13593.6474,-3457.442L13593.6514,-3457.4339L13593.6706,-3457.4253L13593.702,-3457.4208L13593.7178,-3457.4242L13593.7409,-3457.4253L13593.7777,-3457.4291L13593.7933,-3457.4327L13593.8086,-3457.4378L13593.8279,-3457.4389L13593.8686,-3457.4468L13593.8897,-3457.4494L13593.9144,-3457.4526L13593.916,-3457.4528L13593.9392,-3457.4501L13593.9527,-3457.4411L13593.9595,-3457.4287L13593.972,-3457.3982L13593.9776,-3457.3888L13593.984,-3457.3699L13593.9947,-3457.3539L13594.0041,-3457.3369L13594.006,-3457.3245L13594.004,-3457.3134L13594.0017,-3457.3049L13594.0048,-3457.2847L13593.9959,-3457.2733L13593.9977,-3457.2486L13593.9981,-3457.2273L13594.005,-3457.2173L13594.0159,-3457.2076L13594.0249,-3457.1899L13594.0374,-3457.1767L13594.0508,-3457.1576L13594.0591,-3457.1402L13594.0639,-3457.1254L13594.0644,-3457.1241L13594.0653,-3457.0877L13594.069,-3457.0719L13594.074,-3457.0571L13594.0828,-3457.0425L13594.089,-3457.0366L13594.1015,-3457.0242L13594.1138,-3457.0171L13594.125,-3457.0076L13594.1527,-3456.9889L13594.1667,-3456.9811L13594.1697,-3456.9794L13594.1937,-3456.9629L13594.2395,-3456.9436L13594.261,-3456.9361L13594.2706,-3456.93L13594.2733,-3456.9262L13594.2854,-3456.9121L13594.2971,-3456.8985L13594.3021,-3456.8844L13594.3091,-3456.8716L13594.3095,-3456.8649L13594.3095,-3456.8587L13594.3062,-3456.8501L13594.2987,-3456.8401L13594.295,-3456.8294L13594.2954,-3456.8219L13594.3045,-3456.812L13594.3294,-3456.7959L13594.341,-3456.7882L13594.3591,-3456.7804L13594.3655,-3456.7766L13594.3729,-3456.7722L13594.391,-3456.7616L13594.4093,-3456.7447L13594.4166,-3456.7397L13594.4239,-3456.7348L13594.4409,-3456.7199L13594.4494,-3456.7054L13594.4471,-3456.6971L13594.4397,-3456.6884L13594.4284,-3456.6798L13594.4161,-3456.6698L13594.4134,-3456.6667L13594.402,-3456.6537L13594.3968,-3456.6472L13594.3796,-3456.6351L13594.3709,-3456.6262L13594.3548,-3456.6171L13594.3299,-3456.6034L13594.3099,-3456.5877L13594.2956,-3456.5807L13594.279,-3456.5678L13594.2639,-3456.5547L13594.2527,-3456.5398L13594.247,-3456.5244L13594.2426,-3456.5111L13594.236,-3456.4885L13594.2358,-3456.4877L13594.2349,-3456.471L13594.2354,-3456.4567L13594.2362,-3456.4498L13594.2403,-3456.4411L13594.249,-3456.4321L13594.2619,-3456.4308L13594.2817,-3456.4312L13594.3012,-3456.4275L13594.3134,-3456.4234L13594.3226,-3456.4156L13594.3273,-3456.4072L13594.3294,-3456.4037L13594.329,-3456.3985L13594.3261,-3456.389L13594.3161,-3456.3662L13594.3033,-3456.3489L13594.2996,-3456.34L13594.2938,-3456.3315L13594.2921,-3456.3265L13594.2975,-3456.3153L13594.3105,-3456.3072L13594.3279,-3456.3064L13594.3403,-3456.3056L13594.3552,-3456.2998L13594.3672,-3456.2907L13594.373,-3456.2762L13594.3737,-3456.2664L13594.3743,-3456.2584L13594.3788,-3456.2315L13594.3859,-3456.2104L13594.3946,-3456.198L13594.4119,-3456.1802L13594.4427,-3456.1471L13594.4572,-3456.1339L13594.4758,-3456.1128L13594.4858,-3456.1025L13594.4907,-3456.0954L13594.5073,-3456.0826L13594.5256,-3456.0719L13594.5367,-3456.0681L13594.5379,-3456.0678L13594.5521,-3456.064L13594.5728,-3456.0594L13594.5877,-3456.0545L13594.5989,-3456.0458L13594.6055,-3456.0371L13594.6123,-3456.0298L13594.6218,-3456.0157L13594.6277,-3456.0037L13594.6293,-3455.9971L13594.6392,-3455.981L13594.6537,-3455.9591L13594.6739,-3455.9301L13594.6973,-3455.903L13594.7051,-3455.8939L13594.7109,-3455.8778L13594.7225,-3455.8356L13594.7229,-3455.8333L13594.7279,-3455.8033L13594.7353,-3455.7879L13594.7334,-3455.7703L13594.7311,-3455.7555L13594.7273,-3455.7507L13594.7273,-3455.7393L13594.7317,-3455.7162L13594.7351,-3455.7031L13594.7415,-3455.685L13594.7455,-3455.6672L13594.7504,-3455.6439L13594.752,-3455.6253L13594.7523,-3455.6107L13594.7463,-3455.5926L13594.7353,-3455.5691L13594.7302,-3455.559L13594.7247,-3455.5482L13594.6952,-3455.503L13594.6877,-3455.4922L13594.6778,-3455.4811L13594.6729,-3455.4695L13594.6687,-3455.455L13594.6654,-3455.4421L13594.6554,-3455.4347L13594.6419,-3455.4279L13594.6308,-3455.4221L13594.6189,-3455.426L13594.6098,-3455.4289L13594.5904,-3455.4272L13594.5767,-3455.4227L13594.5668,-3455.4165L13594.5597,-3455.4117L13594.5554,-3455.4011L13594.5518,-3455.3909L13594.5493,-3455.3843L13594.5444,-3455.3816L13594.5336,-3455.3835L13594.5285,-3455.386L13594.5183,-3455.3894L13594.5011,-3455.3864L13594.4981,-3455.3836L13594.4949,-3455.369L13594.4974,-3455.3192L13594.4871,-3455.3068L13594.4825,-3455.3024L13594.4696,-3455.2974L13594.4674,-3455.2976L13594.456,-3455.2987L13594.4427,-3455.3036L13594.4324,-3455.3061L13594.4081,-3455.3051L13594.3918,-3455.3007L13594.3732,-3455.2933L13594.352,-3455.2887L13594.3286,-3455.2779L13594.3167,-3455.2679L13594.3092,-3455.2588L13594.2967,-3455.2426L13594.2874,-3455.2237L13594.2768,-3455.2118L13594.2664,-3455.1997L13594.2599,-3455.1905L13594.2509,-3455.1809L13594.2441,-3455.1752L13594.2296,-3455.1669L13594.2089,-3455.1609L13594.1977,-3455.1551L13594.1767,-3455.1412L13594.1674,-3455.1315L13594.1667,-3455.1307L13594.1492,-3455.1108L13594.1469,-3455.1075L13594.1381,-3455.0949L13594.1163,-3455.0741L13594.099,-3455.0632L13594.0808,-3455.0599L13594.0526,-3455.0502L13594.0463,-3455.0481L13594.0353,-3455.046L13594.0221,-3455.0409L13594.017,-3455.0365L13594.0134,-3455.0291L13594.0159,-3455.0127L13594.0197,-3455.0067L13594.0249,-3455L13594.0309,-3454.9922L13594.048,-3454.9721L13594.0543,-3454.9554L13594.0583,-3454.9451L13594.0612,-3454.9257L13594.0663,-3454.9056L13594.0671,-3454.885L13594.0703,-3454.8609L13594.075,-3454.8466L13594.0816,-3454.813L13594.0895,-3454.7987L13594.0944,-3454.7899L13594.1029,-3454.778L13594.111,-3454.7626L13594.1162,-3454.7399L13594.1267,-3454.7187L13594.1313,-3454.7045L13594.1374,-3454.6837L13594.1408,-3454.6763L13594.1427,-3454.6708L13594.1342,-3454.6622L13594.1243,-3454.6459L13594.1224,-3454.6442L13594.1149,-3454.6378L13594.106,-3454.6215L13594.1027,-3454.6124L13594.0989,-3454.5971L13594.0948,-3454.576L13594.0911,-3454.5499L13594.0898,-3454.533L13594.0869,-3454.5125L13594.0827,-3454.4959L13594.0782,-3454.4862L13594.0741,-3454.4724L13594.0678,-3454.4607L13594.0612,-3454.4487L13594.0601,-3454.4441L13594.058,-3454.4348L13594.0603,-3454.4267L13594.0803,-3454.4057L13594.0815,-3454.3999L13594.0956,-3454.3887L13594.112,-3454.3777L13594.1279,-3454.37L13594.1432,-3454.363L13594.147,-3454.3535L13594.1487,-3454.3403L13594.1495,-3454.3172L13594.147,-3454.3038L13594.1389,-3454.2874L13594.1287,-3454.2711L13594.1241,-3454.2564L13594.1255,-3454.245L13594.1281,-3454.2397L13594.1296,-3454.2286L13594.1326,-3454.2177L13594.1396,-3454.2061L13594.1549,-3454.1887L13594.1649,-3454.1775L13594.1667,-3454.176L13594.1714,-3454.1718L13594.1773,-3454.1667L13594.1847,-3454.1602L13594.1943,-3454.149L13594.2084,-3454.125L13594.2241,-3454.108L13594.2334,-3454.1016Z"/>
<path content="奈良県,,,宇陀市,,29212" xlink:title="奈良県" d="M13596.6797,-3454.1016L13594.2334,-3454.1016L13594.2241,-3454.108L13594.2084,-3454.125L13594.1943,-3454.149L13594.1847,-3454.1602L13594.1773,-3454.1667L13594.1714,-3454.1718L13594.1667,-3454.176L13594.1649,-3454.1775L13594.1549,-3454.1887L13594.1396,-3454.2061L13594.1326,-3454.2177L13594.1296,-3454.2286L13594.1281,-3454.2397L13594.1255,-3454.245L13594.1241,-3454.2564L13594.1287,-3454.2711L13594.1389,-3454.2874L13594.147,-3454.3038L13594.1495,-3454.3172L13594.1487,-3454.3403L13594.147,-3454.3535L13594.1432,-3454.363L13594.1279,-3454.37L13594.112,-3454.3777L13594.0956,-3454.3887L13594.0815,-3454.3999L13594.0803,-3454.4057L13594.0603,-3454.4267L13594.058,-3454.4348L13594.0601,-3454.4441L13594.0612,-3454.4487L13594.0678,-3454.4607L13594.0741,-3454.4724L13594.0782,-3454.4862L13594.0827,-3454.4959L13594.0869,-3454.5125L13594.0898,-3454.533L13594.0911,-3454.5499L13594.0948,-3454.576L13594.0989,-3454.5971L13594.1027,-3454.6124L13594.106,-3454.6215L13594.1149,-3454.6378L13594.1224,-3454.6442L13594.1243,-3454.6459L13594.1342,-3454.6622L13594.1427,-3454.6708L13594.1408,-3454.6763L13594.1374,-3454.6837L13594.1313,-3454.7045L13594.1267,-3454.7187L13594.1162,-3454.7399L13594.111,-3454.7626L13594.1029,-3454.778L13594.0944,-3454.7899L13594.0895,-3454.7987L13594.0816,-3454.813L13594.075,-3454.8466L13594.0703,-3454.8609L13594.0671,-3454.885L13594.0663,-3454.9056L13594.0612,-3454.9257L13594.0583,-3454.9451L13594.0543,-3454.9554L13594.048,-3454.9721L13594.0309,-3454.9922L13594.0249,-3455L13594.0197,-3455.0067L13594.0159,-3455.0127L13594.0134,-3455.0291L13594.017,-3455.0365L13594.0221,-3455.0409L13594.0353,-3455.046L13594.0463,-3455.0481L13594.0526,-3455.0502L13594.0808,-3455.0599L13594.099,-3455.0632L13594.1163,-3455.0741L13594.1381,-3455.0949L13594.1469,-3455.1075L13594.1492,-3455.1108L13594.1667,-3455.1307L13594.1674,-3455.1315L13594.1767,-3455.1412L13594.1977,-3455.1551L13594.2089,-3455.1609L13594.2296,-3455.1669L13594.2441,-3455.1752L13594.2509,-3455.1809L13594.2599,-3455.1905L13594.2664,-3455.1997L13594.2768,-3455.2118L13594.2874,-3455.2237L13594.2967,-3455.2426L13594.3092,-3455.2588L13594.3167,-3455.2679L13594.3286,-3455.2779L13594.352,-3455.2887L13594.3732,-3455.2933L13594.3918,-3455.3007L13594.4081,-3455.3051L13594.4324,-3455.3061L13594.4427,-3455.3036L13594.456,-3455.2987L13594.4674,-3455.2976L13594.4696,-3455.2974L13594.4825,-3455.3024L13594.4871,-3455.3068L13594.4974,-3455.3192L13594.4949,-3455.369L13594.4981,-3455.3836L13594.5011,-3455.3864L13594.5183,-3455.3894L13594.5285,-3455.386L13594.5336,-3455.3835L13594.5444,-3455.3816L13594.5493,-3455.3843L13594.5518,-3455.3909L13594.5554,-3455.4011L13594.5597,-3455.4117L13594.5668,-3455.4165L13594.5767,-3455.4227L13594.5904,-3455.4272L13594.6098,-3455.4289L13594.6189,-3455.426L13594.6308,-3455.4221L13594.6419,-3455.4279L13594.6554,-3455.4347L13594.6654,-3455.4421L13594.6687,-3455.455L13594.6729,-3455.4695L13594.6778,-3455.4811L13594.6877,-3455.4922L13594.6952,-3455.503L13594.7247,-3455.5482L13594.7302,-3455.559L13594.7353,-3455.5691L13594.7463,-3455.5926L13594.7523,-3455.6107L13594.752,-3455.6253L13594.7504,-3455.6439L13594.7455,-3455.6672L13594.7415,-3455.685L13594.7351,-3455.7031L13594.7317,-3455.7162L13594.7273,-3455.7393L13594.7273,-3455.7507L13594.7311,-3455.7555L13594.7334,-3455.7703L13594.7353,-3455.7879L13594.7279,-3455.8033L13594.7229,-3455.8333L13594.7225,-3455.8356L13594.7109,-3455.8778L13594.7051,-3455.8939L13594.6973,-3455.903L13594.6739,-3455.9301L13594.6537,-3455.9591L13594.6392,-3455.981L13594.6293,-3455.9971L13594.6277,-3456.0037L13594.6218,-3456.0157L13594.6123,-3456.0298L13594.6536,-3456.0268L13594.672,-3456.0251L13594.695,-3456.0229L13594.714,-3456.0191L13594.7335,-3456.0137L13594.7536,-3456.0094L13594.7693,-3455.9942L13594.7754,-3455.9902L13594.8249,-3455.9577L13594.838,-3455.9439L13594.8493,-3455.9294L13594.8624,-3455.9075L13594.8676,-3455.9024L13594.8729,-3455.9014L13594.9164,-3455.903L13594.938,-3455.9028L13594.9513,-3455.9066L13594.9639,-3455.9082L13594.9675,-3455.9088L13595,-3455.9138L13595.0186,-3455.9167L13595.0355,-3455.9199L13595.0535,-3455.9273L13595.095,-3455.9384L13595.1098,-3455.9396L13595.1207,-3455.9396L13595.135,-3455.937L13595.151,-3455.9316L13595.1683,-3455.9316L13595.2001,-3455.9382L13595.2199,-3455.9394L13595.2343,-3455.9386L13595.2537,-3455.9368L13595.2814,-3455.9231L13595.2926,-3455.9165L13595.3017,-3455.9042L13595.3047,-3455.9018L13595.3129,-3455.8952L13595.3249,-3455.8786L13595.3408,-3455.8623L13595.3607,-3455.843L13595.3758,-3455.838L13595.3859,-3455.8333L13595.3865,-3455.8331L13595.3956,-3455.8321L13595.4161,-3455.8321L13595.4254,-3455.8327L13595.4271,-3455.8333L13595.4394,-3455.8382L13595.4481,-3455.8434L13595.4658,-3455.8625L13595.4907,-3455.8739L13595.5114,-3455.8812L13595.536,-3455.8844L13595.5489,-3455.8863L13595.5679,-3455.8891L13595.5976,-3455.8936L13595.6157,-3455.8954L13595.6412,-3455.894L13595.6631,-3455.8947L13595.6928,-3455.8943L13595.7091,-3455.8947L13595.7272,-3455.8904L13595.7374,-3455.8869L13595.748,-3455.8816L13595.7589,-3455.8717L13595.7833,-3455.8465L13595.8001,-3455.8333L13595.8088,-3455.8265L13595.8333,-3455.8204L13595.8512,-3455.8159L13595.8691,-3455.81L13595.8823,-3455.8072L13595.9014,-3455.8047L13595.9268,-3455.8051L13595.9481,-3455.8072L13595.9718,-3455.8079L13595.9982,-3455.8086L13596.0282,-3455.8048L13596.0434,-3455.8054L13596.0652,-3455.808L13596.08,-3455.8114L13596.1024,-3455.8116L13596.1211,-3455.8134L13596.1386,-3455.8121L13596.1619,-3455.8098L13596.1817,-3455.8122L13596.2025,-3455.8144L13596.2219,-3455.8227L13596.2415,-3455.8314L13596.2445,-3455.8333L13596.2659,-3455.8467L13596.2794,-3455.8594L13596.3011,-3455.8748L13596.3149,-3455.8816L13596.3278,-3455.8824L13596.3425,-3455.8808L13596.3653,-3455.8779L13596.3807,-3455.8855L13596.3921,-3455.8918L13596.4133,-3455.9049L13596.4308,-3455.9158L13596.4552,-3455.933L13596.4732,-3455.9468L13596.4865,-3455.9556L13596.5024,-3455.9608L13596.5104,-3455.9634L13596.5227,-3455.9623L13596.5411,-3455.9538L13596.5535,-3455.9496L13596.5676,-3455.949L13596.5786,-3455.9486L13596.5894,-3455.95L13596.6225,-3455.96L13596.6301,-3455.962L13596.6417,-3455.9701L13596.6488,-3455.9754L13596.6616,-3455.9818L13596.6667,-3455.983L13596.6704,-3455.9839L13596.6797,-3455.9823Z"/>
</g>
</svg>
