<?xml version="1.0" encoding="UTF-8"?>
<svg  xmlns="http://www.w3.org/2000/svg" xmlns:xlink="http://www.w3.org/1999/xlink" xmlns:go="http://purl.org/svgmap/profile" property="geometry,N03_001,N03_002,N03_003,N03_004,N03_005,N03_007" viewBox="13482.421875 -3489.2578125 8.7890625 8.7890625" go:dataArea="13482.421875 -3489.2578125 8.7890625 8.7890625" >
<metadata>
 <rdf:RDF xmlns:rdf="http://www.w3.org/1999/02/22-rdf-syntax-ns#" xmlns:crs="http://opengis.org/xmldtds/transformations.dtd" xmlns:svg="http://www.w3.org/svg" >
  <rdf:Description>
   <crs:CoordinateReferenceSystem rdf:resource="http://purl.org/crs/84" svg:transform="matrix(100.0,0.0,0.0,-100.0,0.0,0.0)" />
  </rdf:Description>
 </rdf:RDF>
</metadata>
<globalCoordinateSystem srsName="http://purl.org/crs/84" transform="matrix(100.0,0.0,0.0,-100.0,0.0,0.0)" />
<defs>
 <g id="p0" >
  <circle cx="0.0" cy="0.0" r="3" stroke="green" stroke-width="2.0" vector-effect="non-scaling-stroke" />
 </g>
</defs>
<g fill="#0000ff" fill-rule="evenodd" opacity="0.5" >
<path content="兵庫県,,,加古川市,,28210" xlink:title="兵庫県" d="M13491.2109,-3480.4687L13482.4219,-3480.4687L13482.4219,-3485.3981L13482.4363,-3485.3978L13482.467,-3485.3994L13482.488,-3485.4059L13482.5,-3485.4145L13482.503,-3485.4167L13482.5157,-3485.432L13482.5338,-3485.4449L13482.5583,-3485.4571L13482.5753,-3485.4689L13482.5942,-3485.4808L13482.6236,-3485.4887L13482.6378,-3485.4943L13482.6622,-3485.5108L13482.6863,-3485.5357L13482.6965,-3485.5494L13482.7077,-3485.5763L13482.716,-3485.588L13482.7272,-3485.5964L13482.7404,-3485.6008L13482.758,-3485.5992L13482.7746,-3485.6008L13482.8086,-3485.6129L13482.8374,-3485.6297L13482.8428,-3485.6354L13482.8452,-3485.645L13482.8428,-3485.6707L13482.8433,-3485.6808L13482.8697,-3485.7451L13482.8784,-3485.7491L13482.8967,-3485.7484L13482.9233,-3485.7387L13482.9404,-3485.7358L13482.9607,-3485.7346L13483.0129,-3485.735L13483.0281,-3485.7374L13483.0536,-3485.75L13483.0693,-3485.7586L13483.0813,-3485.7612L13483.0934,-3485.7596L13483.11,-3485.7516L13483.1246,-3485.7475L13483.1367,-3485.7465L13483.1529,-3485.7451L13483.1762,-3485.743L13483.1977,-3485.7351L13483.2329,-3485.727L13483.268,-3485.7218L13483.2967,-3485.7202L13483.3333,-3485.722L13483.3363,-3485.7222L13483.3582,-3485.7218L13483.3757,-3485.7198L13483.4045,-3485.7094L13483.4104,-3485.7046L13483.4247,-3485.6891L13483.4476,-3485.6789L13483.4672,-3485.6735L13483.4839,-3485.6748L13483.5107,-3485.6692L13483.5283,-3485.6672L13483.5536,-3485.6696L13483.5805,-3485.6716L13483.616,-3485.6704L13483.6326,-3485.668L13483.6502,-3485.6628L13483.6648,-3485.6539L13483.6756,-3485.6407L13483.6931,-3485.5804L13483.7016,-3485.5593L13483.701,-3485.5474L13483.697,-3485.5356L13483.6902,-3485.5189L13483.6921,-3485.5105L13483.7028,-3485.4948L13483.7202,-3485.4687L13483.7359,-3485.4537L13483.7486,-3485.445L13483.7784,-3485.4402L13483.8059,-3485.4343L13483.8303,-3485.4307L13483.8314,-3485.4305L13483.8497,-3485.43L13483.8657,-3485.4306L13483.8778,-3485.4337L13483.8876,-3485.4414L13483.9047,-3485.4603L13483.9134,-3485.4659L13483.9295,-3485.4696L13483.971,-3485.4736L13483.9931,-3485.474L13484.0105,-3485.4744L13484.0426,-3485.4774L13484.1023,-3485.4903L13484.1297,-3485.4962L13484.1667,-3485.5028L13484.1743,-3485.5041L13484.1984,-3485.5059L13484.22,-3485.5044L13484.2402,-3485.5029L13484.2441,-3485.4985L13484.2409,-3485.4817L13484.2314,-3485.4495L13484.2177,-3485.4153L13484.1714,-3485.3273L13484.1683,-3485.3168L13484.1736,-3485.313L13484.2143,-3485.3184L13484.2913,-3485.3401L13484.3239,-3485.3518L13484.337,-3485.3529L13484.3455,-3485.3454L13484.3658,-3485.3249L13484.3839,-3485.3097L13484.4123,-3485.2922L13484.4277,-3485.2856L13484.442,-3485.2821L13484.4535,-3485.283L13484.476,-3485.2984L13484.4851,-3485.3026L13484.5167,-3485.3127L13484.5413,-3485.3176L13484.5551,-3485.3176L13484.5757,-3485.3121L13484.5879,-3485.3121L13484.6207,-3485.3222L13484.6397,-3485.3274L13484.6473,-3485.3316L13484.65,-3485.3352L13484.652,-3485.3437L13484.6564,-3485.345L13484.669,-3485.3417L13484.6947,-3485.3404L13484.7083,-3485.3404L13484.7252,-3485.3404L13484.745,-3485.3385L13484.7572,-3485.3355L13484.7631,-3485.3368L13484.7679,-3485.3411L13484.7896,-3485.3652L13484.7948,-3485.3675L13484.8019,-3485.3655L13484.8082,-3485.3593L13484.8126,-3485.3427L13484.8161,-3485.3355L13484.8221,-3485.3229L13484.8351,-3485.2951L13484.8418,-3485.2752L13484.845,-3485.2508L13484.8573,-3485.2176L13484.8632,-3485.2039L13484.8747,-3485.1918L13484.8921,-3485.1784L13484.9103,-3485.1644L13484.9229,-3485.1511L13484.9314,-3485.1374L13484.9435,-3485.1119L13484.9459,-3485.1019L13484.9466,-3485.0804L13484.9518,-3485.0559L13484.9593,-3485.0347L13484.9653,-3485.0155L13484.9743,-3485.0028L13484.9789,-3485L13484.985,-3484.9962L13484.9945,-3484.9956L13485,-3484.9961L13485.0119,-3484.9972L13485.0254,-3485L13485.0309,-3485.0011L13485.0558,-3485.0106L13485.0674,-3485.0183L13485.0792,-3485.0248L13485.0942,-3485.0282L13485.131,-3485.0305L13485.1539,-3485.0298L13485.1777,-3485.0337L13485.1966,-3485.0406L13485.2113,-3485.0526L13485.2137,-3485.056L13485.2227,-3485.0689L13485.233,-3485.092L13485.2354,-3485.1067L13485.233,-3485.1191L13485.2259,-3485.1292L13485.2097,-3485.1455L13485.1974,-3485.1608L13485.1946,-3485.1702L13485.1958,-3485.1833L13485.2104,-3485.2277L13485.2163,-3485.238L13485.2382,-3485.2772L13485.2528,-3485.2994L13485.2663,-3485.3137L13485.2726,-3485.3179L13485.2789,-3485.3186L13485.288,-3485.3144L13485.3224,-3485.3016L13485.3437,-3485.2889L13485.375,-3485.2782L13485.3964,-3485.2749L13485.4189,-3485.2781L13485.4389,-3485.2861L13485.4731,-3485.2866L13485.5128,-3485.2915L13485.5716,-3485.2951L13485.5901,-3485.2994L13485.6052,-3485.3065L13485.6313,-3485.3228L13485.6546,-3485.3319L13485.6724,-3485.3411L13485.6886,-3485.3469L13485.7053,-3485.3492L13485.7203,-3485.3544L13485.7302,-3485.3616L13485.7436,-3485.3779L13485.7559,-3485.3998L13485.7654,-3485.4098L13485.7744,-3485.4141L13485.7816,-3485.4122L13485.7997,-3485.3913L13485.8223,-3485.3685L13485.8316,-3485.3637L13485.8333,-3485.3635L13485.8528,-3485.3603L13485.8627,-3485.3564L13485.8702,-3485.3512L13485.8721,-3485.3484L13485.8998,-3485.3088L13485.9077,-3485.3016L13485.9168,-3485.2971L13485.9283,-3485.2948L13485.9893,-3485.2864L13486.0517,-3485.2854L13486.0723,-3485.2811L13486.0961,-3485.2727L13486.1187,-3485.2657L13486.1339,-3485.2609L13486.1692,-3485.2551L13486.1811,-3485.2508L13486.1921,-3485.2436L13486.1981,-3485.2335L13486.2052,-3485.1984L13486.2112,-3485.1816L13486.2178,-3485.1713L13486.2249,-3485.1651L13486.2388,-3485.1599L13486.2724,-3485.1547L13486.3136,-3485.1511L13486.3274,-3485.1492L13486.3519,-3485.1423L13486.3618,-3485.1417L13486.3918,-3485.1479L13486.4306,-3485.1531L13486.4837,-3485.156L13486.4944,-3485.1547L13486.5015,-3485.1504L13486.5051,-3485.1413L13486.5054,-3485.1218L13486.5071,-3485.1055L13486.5074,-3485.1029L13486.5062,-3485.0941L13486.5011,-3485.0892L13486.4881,-3485.0824L13486.4654,-3485.0742L13486.4556,-3485.067L13486.4472,-3485.0559L13486.4404,-3485.0345L13486.4341,-3485L13486.4338,-3484.9983L13486.4346,-3484.9823L13486.4401,-3484.9634L13486.4508,-3484.9448L13486.4587,-3484.936L13486.4665,-3484.9304L13486.4724,-3484.9262L13486.4781,-3484.9158L13486.4809,-3484.9024L13486.4896,-3484.8757L13486.4955,-3484.8399L13486.4995,-3484.8284L13486.5066,-3484.8171L13486.5343,-3484.7855L13486.537,-3484.7783L13486.5386,-3484.7454L13486.5429,-3484.7137L13486.5448,-3484.6848L13486.5449,-3484.6831L13486.5445,-3484.6769L13486.5437,-3484.6661L13486.5398,-3484.6346L13486.5414,-3484.6267L13486.5528,-3484.6091L13486.5604,-3484.6036L13486.5706,-3484.6029L13486.5845,-3484.6052L13486.6245,-3484.6108L13486.6371,-3484.6108L13486.6497,-3484.6059L13486.6593,-3484.5964L13486.6667,-3484.5775L13486.6857,-3484.529L13486.6988,-3484.5097L13486.7186,-3484.4605L13486.732,-3484.4423L13486.7427,-3484.4325L13486.7498,-3484.4191L13486.7633,-3484.3585L13486.7731,-3484.3386L13486.7985,-3484.3181L13486.8095,-3484.3139L13486.8183,-3484.3158L13486.8705,-3484.3517L13486.8812,-3484.3559L13486.9397,-3484.3608L13486.9654,-3484.3598L13486.9915,-3484.3654L13487.0619,-3484.3725L13487.0864,-3484.3706L13487.1074,-3484.3706L13487.128,-3484.3644L13487.1406,-3484.353L13487.1442,-3484.338L13487.1383,-3484.3247L13487.1272,-3484.3155L13487.0916,-3484.2976L13487.0801,-3484.2917L13487.0627,-3484.2757L13487.0559,-3484.2663L13487.0523,-3484.2572L13487.0378,-3484.2204L13487.04,-3484.2093L13487.0401,-3484.2086L13487.048,-3484.1982L13487.0611,-3484.1809L13487.0737,-3484.1711L13487.0829,-3484.1667L13487.1033,-3484.1567L13487.1331,-3484.1421L13487.1549,-3484.133L13487.1719,-3484.1193L13487.2035,-3484.0777L13487.2181,-3484.0585L13487.2243,-3484.0513L13487.2461,-3484.0271L13487.2623,-3484.0167L13487.2814,-3484.0095L13487.2947,-3484.0095L13487.3249,-3484.0149L13487.3581,-3484.0259L13487.3809,-3484.0338L13487.4266,-3484.0411L13487.476,-3484.0459L13487.5,-3484.0439L13487.5202,-3484.0423L13487.5711,-3484.0386L13487.6175,-3484.0386L13487.6764,-3484.0465L13487.7229,-3484.0502L13487.7583,-3484.052L13487.7877,-3484.0453L13487.8261,-3484.0365L13487.8275,-3484.0362L13487.8556,-3484.035L13487.8693,-3484.0331L13487.8821,-3484.0313L13487.9093,-3484.0222L13487.9329,-3484.0095L13487.9551,-3484.004L13487.9793,-3484.0095L13488.0154,-3484.0174L13488.042,-3484.0186L13488.0663,-3484.0149L13488.1144,-3484.0076L13488.1528,-3484.0016L13488.1786,-3484.0022L13488.225,-3483.9967L13488.2405,-3483.9912L13488.2582,-3483.9803L13488.2626,-3483.9754L13488.2655,-3483.9578L13488.2759,-3483.9366L13488.2913,-3483.8922L13488.2962,-3483.8733L13488.3031,-3483.8467L13488.3097,-3483.8218L13488.3186,-3483.8017L13488.3245,-3483.7795L13488.3333,-3483.7708L13488.3355,-3483.7686L13488.3539,-3483.7613L13488.3694,-3483.7558L13488.3864,-3483.7467L13488.3952,-3483.7261L13488.3996,-3483.6975L13488.4038,-3483.6636L13488.4047,-3483.6564L13488.4047,-3483.642L13488.4076,-3483.6148L13488.4134,-3483.5924L13488.4151,-3483.5785L13488.4134,-3483.5518L13488.4152,-3483.5447L13488.4174,-3483.5356L13488.4238,-3483.5227L13488.4435,-3483.5041L13488.466,-3483.4907L13488.4863,-3483.4855L13488.5025,-3483.4831L13488.5377,-3483.4826L13488.6404,-3483.4829L13488.6578,-3483.4824L13488.6711,-3483.4786L13488.6838,-3483.47L13488.6936,-3483.4576L13488.7052,-3483.4318L13488.7121,-3483.4179L13488.7231,-3483.4074L13488.7411,-3483.3951L13488.7526,-3483.3831L13488.7735,-3483.375L13488.7867,-3483.3716L13488.7903,-3483.3707L13488.8012,-3483.3616L13488.8138,-3483.3442L13488.8197,-3483.3333L13488.8317,-3483.3108L13488.8381,-3483.2946L13488.8358,-3483.2841L13488.8289,-3483.2741L13488.8196,-3483.2545L13488.8202,-3483.2335L13488.8329,-3483.2039L13488.8352,-3483.1915L13488.8335,-3483.1791L13488.8237,-3483.1653L13488.793,-3483.1365L13488.7727,-3483.1198L13488.7687,-3483.106L13488.7704,-3483.0969L13488.7861,-3483.0864L13488.804,-3483.0731L13488.8179,-3483.0592L13488.83,-3483.0592L13488.8462,-3483.0611L13488.8665,-3483.0721L13488.885,-3483.0788L13488.9064,-3483.0836L13488.9601,-3483.085L13488.9734,-3483.084L13488.9844,-3483.0797L13488.9891,-3483.0697L13488.9867,-3483.0449L13488.9855,-3483.0399L13488.9816,-3483.0234L13488.9645,-3482.9941L13488.9529,-3482.976L13488.9483,-3482.9645L13488.9495,-3482.9497L13488.9518,-3482.9411L13488.9599,-3482.9311L13488.9709,-3482.9154L13488.9876,-3482.8963L13489.0102,-3482.87L13489.0229,-3482.8648L13489.0362,-3482.8624L13489.0605,-3482.8662L13489.0773,-3482.8676L13489.0993,-3482.8648L13489.1346,-3482.8552L13489.1667,-3482.8442L13489.1733,-3482.8419L13489.2,-3482.8321L13489.2297,-3482.8212L13489.2465,-3482.8153L13489.2702,-3482.8069L13489.3188,-3482.7964L13489.3414,-3482.794L13489.3645,-3482.7921L13489.3934,-3482.7869L13489.4304,-3482.7816L13489.4825,-3482.7787L13489.5224,-3482.7744L13489.5486,-3482.771L13489.5793,-3482.7676L13489.6134,-3482.7672L13489.6296,-3482.7719L13489.6539,-3482.7858L13489.6903,-3482.8116L13489.7181,-3482.8325L13489.7366,-3482.8435L13489.7476,-3482.8487L13489.7592,-3482.8492L13489.7701,-3482.8473L13489.795,-3482.8349L13489.8014,-3482.8292L13489.8089,-3482.8144L13489.828,-3482.7834L13489.8355,-3482.7547L13489.8436,-3482.7304L13489.8593,-3482.6942L13489.8593,-3482.6794L13489.8556,-3482.6529L13489.8545,-3482.6138L13489.8608,-3482.5866L13489.8678,-3482.5579L13489.8759,-3482.5493L13489.8955,-3482.5374L13489.9192,-3482.5279L13489.9389,-3482.5236L13489.9563,-3482.5241L13489.962,-3482.526L13489.9881,-3482.5346L13490,-3482.5376L13490.0049,-3482.5388L13490.0141,-3482.5384L13490.0251,-3482.5322L13490.0391,-3482.5107L13490.0514,-3482.5L13490.0599,-3482.4926L13490.0744,-3482.4859L13490.0912,-3482.4835L13490.0977,-3482.4833L13490.1051,-3482.483L13490.1288,-3482.4863L13490.1594,-3482.4944L13490.1751,-3482.4968L13490.193,-3482.4964L13490.2011,-3482.494L13490.2104,-3482.4873L13490.2294,-3482.4663L13490.2358,-3482.463L13490.2451,-3482.4634L13490.2786,-3482.4716L13490.3006,-3482.4754L13490.3237,-3482.4749L13490.3272,-3482.4748L13490.3486,-3482.4744L13490.3879,-3482.4758L13490.414,-3482.4768L13490.4371,-3482.4758L13490.4695,-3482.4739L13490.4806,-3482.4711L13490.498,-3482.4606L13490.502,-3482.4578L13490.5125,-3482.4506L13490.5263,-3482.4453L13490.535,-3482.4429L13490.5506,-3482.4425L13490.5576,-3482.4458L13490.5883,-3482.485L13490.6001,-3482.5L13490.6021,-3482.5026L13490.6229,-3482.5322L13490.6276,-3482.5474L13490.6276,-3482.5661L13490.6484,-3482.5727L13490.6704,-3482.5813L13490.6923,-3482.5894L13490.7161,-3482.5923L13490.734,-3482.598L13490.7768,-3482.6085L13490.815,-3482.6157L13490.8333,-3482.6179L13490.8618,-3482.6214L13490.8834,-3482.6225L13490.8943,-3482.6217L13490.9233,-3482.6196L13490.9713,-3482.6182L13491.0292,-3482.6177L13491.0749,-3482.6196L13491.1038,-3482.6177L13491.1356,-3482.6106L13491.1703,-3482.5962L13491.1931,-3482.58L13491.2109,-3482.57Z"/>
<path content="兵庫県,,,小野市,,28218" xlink:title="兵庫県" d="M13491.2109,-3489.2578L13491.2109,-3482.57L13491.1931,-3482.58L13491.1703,-3482.5962L13491.1356,-3482.6106L13491.1038,-3482.6177L13491.0749,-3482.6196L13491.0292,-3482.6177L13490.9713,-3482.6182L13490.9233,-3482.6196L13490.8943,-3482.6217L13490.8834,-3482.6225L13490.8618,-3482.6214L13490.8333,-3482.6179L13490.815,-3482.6157L13490.7768,-3482.6085L13490.734,-3482.598L13490.7161,-3482.5923L13490.6923,-3482.5894L13490.6704,-3482.5813L13490.6484,-3482.5727L13490.6276,-3482.5661L13490.6276,-3482.5474L13490.6229,-3482.5322L13490.6021,-3482.5026L13490.6001,-3482.5L13490.5883,-3482.485L13490.5576,-3482.4458L13490.5506,-3482.4425L13490.535,-3482.4429L13490.5263,-3482.4453L13490.5125,-3482.4506L13490.502,-3482.4578L13490.498,-3482.4606L13490.4806,-3482.4711L13490.4695,-3482.4739L13490.4371,-3482.4758L13490.414,-3482.4768L13490.3879,-3482.4758L13490.3486,-3482.4744L13490.3272,-3482.4748L13490.3237,-3482.4749L13490.3006,-3482.4754L13490.2786,-3482.4716L13490.2451,-3482.4634L13490.2358,-3482.463L13490.2294,-3482.4663L13490.2104,-3482.4873L13490.2011,-3482.494L13490.193,-3482.4964L13490.1751,-3482.4968L13490.1594,-3482.4944L13490.1288,-3482.4863L13490.1051,-3482.483L13490.0977,-3482.4833L13490.0912,-3482.4835L13490.0744,-3482.4859L13490.0599,-3482.4926L13490.0514,-3482.5L13490.0391,-3482.5107L13490.0251,-3482.5322L13490.0141,-3482.5384L13490.0049,-3482.5388L13490,-3482.5376L13489.9881,-3482.5346L13489.962,-3482.526L13489.9563,-3482.5241L13489.9389,-3482.5236L13489.9192,-3482.5279L13489.8955,-3482.5374L13489.8759,-3482.5493L13489.8678,-3482.5579L13489.8608,-3482.5866L13489.8545,-3482.6138L13489.8556,-3482.6529L13489.8593,-3482.6794L13489.8593,-3482.6942L13489.8436,-3482.7304L13489.8355,-3482.7547L13489.828,-3482.7834L13489.8089,-3482.8144L13489.8014,-3482.8292L13489.795,-3482.8349L13489.7701,-3482.8473L13489.7592,-3482.8492L13489.7476,-3482.8487L13489.7366,-3482.8435L13489.7181,-3482.8325L13489.6903,-3482.8116L13489.6539,-3482.7858L13489.6296,-3482.7719L13489.6134,-3482.7672L13489.5793,-3482.7676L13489.5486,-3482.771L13489.5224,-3482.7744L13489.4825,-3482.7787L13489.4304,-3482.7816L13489.3934,-3482.7869L13489.3645,-3482.7921L13489.3414,-3482.794L13489.3188,-3482.7964L13489.2702,-3482.8069L13489.2465,-3482.8153L13489.2297,-3482.8212L13489.2,-3482.8321L13489.1733,-3482.8419L13489.1667,-3482.8442L13489.1346,-3482.8552L13489.0993,-3482.8648L13489.0773,-3482.8676L13489.0605,-3482.8662L13489.0362,-3482.8624L13489.0229,-3482.8648L13489.0102,-3482.87L13488.9876,-3482.8963L13488.9709,-3482.9154L13488.9599,-3482.9311L13488.9518,-3482.9411L13488.9495,-3482.9497L13488.9483,-3482.9645L13488.9529,-3482.976L13488.9645,-3482.9941L13488.9816,-3483.0234L13488.9855,-3483.0399L13488.9867,-3483.0449L13488.9891,-3483.0697L13488.9844,-3483.0797L13488.9734,-3483.084L13488.9601,-3483.085L13488.9064,-3483.0836L13488.885,-3483.0788L13488.8665,-3483.0721L13488.8462,-3483.0611L13488.83,-3483.0592L13488.8179,-3483.0592L13488.804,-3483.0731L13488.7861,-3483.0864L13488.7704,-3483.0969L13488.7687,-3483.106L13488.7727,-3483.1198L13488.793,-3483.1365L13488.8237,-3483.1653L13488.8335,-3483.1791L13488.8352,-3483.1915L13488.8329,-3483.2039L13488.8202,-3483.2335L13488.8196,-3483.2545L13488.8289,-3483.2741L13488.8358,-3483.2841L13488.8381,-3483.2946L13488.8317,-3483.3108L13488.8197,-3483.3333L13488.8138,-3483.3442L13488.8012,-3483.3616L13488.7903,-3483.3707L13488.7867,-3483.3716L13488.7735,-3483.375L13488.7526,-3483.3831L13488.7411,-3483.3951L13488.7231,-3483.4074L13488.7121,-3483.4179L13488.7052,-3483.4318L13488.6936,-3483.4576L13488.6838,-3483.47L13488.6711,-3483.4786L13488.6578,-3483.4824L13488.6404,-3483.4829L13488.5377,-3483.4826L13488.5025,-3483.4831L13488.4863,-3483.4855L13488.466,-3483.4907L13488.4435,-3483.5041L13488.4238,-3483.5227L13488.4174,-3483.5356L13488.4152,-3483.5447L13488.4134,-3483.5518L13488.4151,-3483.5785L13488.4134,-3483.5924L13488.4076,-3483.6148L13488.4047,-3483.642L13488.4047,-3483.6564L13488.4038,-3483.6636L13488.3996,-3483.6975L13488.3952,-3483.7261L13488.3864,-3483.7467L13488.3694,-3483.7558L13488.3539,-3483.7613L13488.3355,-3483.7686L13488.3333,-3483.7708L13488.3245,-3483.7795L13488.3186,-3483.8017L13488.3097,-3483.8218L13488.3031,-3483.8467L13488.2962,-3483.8733L13488.2913,-3483.8922L13488.2759,-3483.9366L13488.2655,-3483.9578L13488.2626,-3483.9754L13488.2744,-3483.9872L13488.2957,-3483.9951L13488.3134,-3484.0091L13488.3274,-3484.017L13488.3333,-3484.0172L13488.3495,-3484.0176L13488.3937,-3484.0134L13488.424,-3484.0146L13488.4594,-3484.0152L13488.48,-3484.0146L13488.5028,-3484.02L13488.5279,-3484.0237L13488.5574,-3484.0231L13488.5994,-3484.0158L13488.6252,-3484.0097L13488.6561,-3484.0079L13488.6834,-3484.014L13488.7092,-3484.02L13488.7424,-3484.0194L13488.7674,-3484.0249L13488.791,-3484.0431L13488.8109,-3484.0668L13488.8426,-3484.0899L13488.8556,-3484.0957L13488.8684,-3484.1014L13488.8905,-3484.1062L13488.9148,-3484.1123L13488.9037,-3484.1336L13488.8927,-3484.15L13488.8855,-3484.1667L13488.8816,-3484.1755L13488.875,-3484.1937L13488.8757,-3484.2083L13488.8824,-3484.2411L13488.8794,-3484.2508L13488.8617,-3484.2593L13488.8367,-3484.2666L13488.8146,-3484.2745L13488.7969,-3484.2848L13488.7777,-3484.3049L13488.7674,-3484.3286L13488.7652,-3484.3522L13488.7696,-3484.3668L13488.7681,-3484.3729L13488.7674,-3484.3759L13488.7578,-3484.3844L13488.7424,-3484.396L13488.7224,-3484.4124L13488.7158,-3484.4215L13488.7143,-3484.4379L13488.7136,-3484.4555L13488.7063,-3484.4871L13488.7011,-3484.5029L13488.6922,-3484.5181L13488.6952,-3484.543L13488.7033,-3484.5594L13488.7224,-3484.6096L13488.7232,-3484.6116L13488.7276,-3484.6243L13488.7291,-3484.645L13488.7269,-3484.6814L13488.7254,-3484.7069L13488.7261,-3484.7501L13488.7593,-3484.7494L13488.7851,-3484.7501L13488.805,-3484.7574L13488.8091,-3484.7589L13488.8499,-3484.7744L13488.8779,-3484.792L13488.9082,-3484.8114L13488.9244,-3484.8302L13488.9354,-3484.8576L13488.9391,-3484.8752L13488.9332,-3484.8976L13488.9214,-3484.9207L13488.9067,-3484.9432L13488.8956,-3484.9608L13488.8883,-3484.9754L13488.8897,-3484.9936L13488.8953,-3485L13488.9008,-3485.0064L13488.9023,-3485.0137L13488.9008,-3485.0294L13488.9015,-3485.0477L13488.9089,-3485.0629L13488.9089,-3485.0811L13488.9037,-3485.0951L13488.8934,-3485.1066L13488.8812,-3485.1203L13488.8794,-3485.1224L13488.8581,-3485.1375L13488.8241,-3485.1679L13488.7939,-3485.1952L13488.7763,-3485.2159L13488.7674,-3485.2281L13488.7564,-3485.2451L13488.7497,-3485.2827L13488.7409,-3485.3234L13488.7335,-3485.3526L13488.7313,-3485.3781L13488.7387,-3485.4072L13488.7409,-3485.4345L13488.7409,-3485.4631L13488.7414,-3485.4761L13488.7465,-3485.6197L13488.7467,-3485.626L13488.747,-3485.634L13488.7475,-3485.6471L13488.8448,-3485.6416L13488.9045,-3485.641L13488.9689,-3485.6381L13489.0106,-3485.6362L13489.0114,-3485.6544L13489.0128,-3485.6898L13489.0128,-3485.6908L13489.0062,-3485.6999L13488.9907,-3485.7054L13488.9679,-3485.7121L13488.9597,-3485.723L13488.9597,-3485.7412L13488.959,-3485.751L13488.948,-3485.7601L13488.9487,-3485.7783L13488.9507,-3485.7914L13488.9553,-3485.822L13488.956,-3485.8333L13488.9576,-3485.8597L13488.9573,-3485.8634L13488.9553,-3485.8986L13488.9597,-3485.9277L13488.9693,-3485.9745L13488.9701,-3485.9982L13488.9664,-3486.0279L13488.9612,-3486.1056L13488.9619,-3486.1121L13488.9671,-3486.1646L13488.9693,-3486.1858L13488.9759,-3486.2539L13488.973,-3486.2678L13488.9671,-3486.2861L13488.9671,-3486.309L13488.9671,-3486.3116L13488.9686,-3486.3425L13488.9782,-3486.399L13488.9848,-3486.4215L13488.9936,-3486.4312L13489.0091,-3486.4427L13489.0246,-3486.4585L13489.0334,-3486.4774L13489.0339,-3486.4789L13489.0401,-3486.5004L13489.0477,-3486.5067L13489.0556,-3486.5132L13489.0754,-3486.5168L13489.0983,-3486.5211L13489.1219,-3486.5369L13489.1528,-3486.5715L13489.1667,-3486.5855L13489.1948,-3486.614L13489.2022,-3486.6195L13489.2147,-3486.6207L13489.2287,-3486.617L13489.2405,-3486.6061L13489.2531,-3486.6018L13489.2626,-3486.6031L13489.2729,-3486.6073L13489.2766,-3486.6207L13489.2796,-3486.6316L13489.2847,-3486.6334L13489.2958,-3486.6255L13489.3172,-3486.6116L13489.3245,-3486.6061L13489.34,-3486.6067L13489.3643,-3486.614L13489.3931,-3486.6267L13489.4189,-3486.6425L13489.4506,-3486.6662L13489.4512,-3486.6667L13489.4764,-3486.6863L13489.4941,-3486.7069L13489.5095,-3486.7355L13489.5235,-3486.7689L13489.539,-3486.7992L13489.5736,-3486.8411L13489.5813,-3486.8502L13489.6223,-3486.8988L13489.6754,-3486.9571L13489.7218,-3487.0118L13489.7631,-3487.0553L13489.7778,-3487.0707L13489.8294,-3487.1254L13489.8802,-3487.1667L13489.9281,-3487.2037L13489.9812,-3487.242L13490,-3487.2594L13490.0107,-3487.2693L13490.0328,-3487.2942L13490.1323,-3487.4017L13490.192,-3487.4625L13490.1998,-3487.5L13490.2846,-3487.9086L13490.2803,-3487.9219L13490.2806,-3487.9368L13490.4697,-3488.0618L13490.4648,-3488.1254L13490.5073,-3488.1823L13490.5172,-3488.3229L13490.5183,-3488.3333L13490.5203,-3488.3518L13490.5097,-3488.3571L13490.4436,-3488.3905L13490.4101,-3488.4116L13490.3828,-3488.4328L13490.3595,-3488.4559L13490.3471,-3488.4829L13490.339,-3488.5106L13490.3361,-3488.5206L13490.3307,-3488.5393L13490.3299,-3488.579L13490.3292,-3488.6156L13490.3221,-3488.6432L13490.2988,-3488.6894L13490.2723,-3488.7253L13490.2326,-3488.7599L13490.2184,-3488.7709L13490.1976,-3488.7869L13490.1611,-3488.8176L13490.1307,-3488.8452L13490.0949,-3488.8888L13490.0513,-3488.9324L13490.0295,-3488.9517L13490.0142,-3488.9602L13490,-3488.968L13489.9903,-3488.9734L13489.9774,-3488.9806L13489.8933,-3489.0267L13489.863,-3489.0466L13489.8194,-3489.0736L13489.8217,-3489.0767L13489.8552,-3489.087L13489.8855,-3489.1037L13489.9244,-3489.1249L13489.9478,-3489.1402L13489.9557,-3489.1544L13489.9571,-3489.1569L13489.9586,-3489.1667L13489.9603,-3489.1781L13489.9525,-3489.207L13489.9367,-3489.2578Z"/>
<path content="兵庫県,,,加西市,,28220" xlink:title="兵庫県" d="M13489.9367,-3489.2578L13489.9525,-3489.207L13489.9603,-3489.1781L13489.9586,-3489.1667L13489.9571,-3489.1569L13489.9557,-3489.1544L13489.9478,-3489.1402L13489.9244,-3489.1249L13489.8855,-3489.1037L13489.8552,-3489.087L13489.8217,-3489.0767L13489.8194,-3489.0736L13489.863,-3489.0466L13489.8933,-3489.0267L13489.9774,-3488.9806L13489.9903,-3488.9734L13490,-3488.968L13490.0142,-3488.9602L13490.0295,-3488.9517L13490.0513,-3488.9324L13490.0949,-3488.8888L13490.1307,-3488.8452L13490.1611,-3488.8176L13490.1976,-3488.7869L13490.2184,-3488.7709L13490.2326,-3488.7599L13490.2723,-3488.7253L13490.2988,-3488.6894L13490.3221,-3488.6432L13490.3292,-3488.6156L13490.3299,-3488.579L13490.3307,-3488.5393L13490.3361,-3488.5206L13490.339,-3488.5106L13490.3471,-3488.4829L13490.3595,-3488.4559L13490.3828,-3488.4328L13490.4101,-3488.4116L13490.4436,-3488.3905L13490.5097,-3488.3571L13490.5203,-3488.3518L13490.5183,-3488.3333L13490.5172,-3488.3229L13490.5073,-3488.1823L13490.4648,-3488.1254L13490.4697,-3488.0618L13490.2806,-3487.9368L13490.2803,-3487.9219L13490.2846,-3487.9086L13490.1998,-3487.5L13490.192,-3487.4625L13490.1323,-3487.4017L13490.0328,-3487.2942L13490.0107,-3487.2693L13490,-3487.2594L13489.9812,-3487.242L13489.9281,-3487.2037L13489.8802,-3487.1667L13489.8294,-3487.1254L13489.7778,-3487.0707L13489.7631,-3487.0553L13489.7218,-3487.0118L13489.6754,-3486.9571L13489.6223,-3486.8988L13489.5813,-3486.8502L13489.5736,-3486.8411L13489.539,-3486.7992L13489.5235,-3486.7689L13489.5095,-3486.7355L13489.4941,-3486.7069L13489.4764,-3486.6863L13489.4512,-3486.6667L13489.4506,-3486.6662L13489.4189,-3486.6425L13489.3931,-3486.6267L13489.3643,-3486.614L13489.34,-3486.6067L13489.3245,-3486.6061L13489.3172,-3486.6116L13489.2958,-3486.6255L13489.2847,-3486.6334L13489.2796,-3486.6316L13489.2766,-3486.6207L13489.2729,-3486.6073L13489.2626,-3486.6031L13489.2531,-3486.6018L13489.2405,-3486.6061L13489.2287,-3486.617L13489.2147,-3486.6207L13489.2022,-3486.6195L13489.1948,-3486.614L13489.1667,-3486.5855L13489.1528,-3486.5715L13489.1219,-3486.5369L13489.0983,-3486.5211L13489.0754,-3486.5168L13489.0556,-3486.5132L13489.0477,-3486.5067L13489.0401,-3486.5004L13489.0339,-3486.4789L13489.0334,-3486.4774L13489.0246,-3486.4585L13489.0091,-3486.4427L13488.9936,-3486.4312L13488.9848,-3486.4215L13488.9782,-3486.399L13488.9686,-3486.3425L13488.9671,-3486.3116L13488.9671,-3486.309L13488.9671,-3486.2861L13488.973,-3486.2678L13488.9759,-3486.2539L13488.9693,-3486.1858L13488.9671,-3486.1646L13488.9619,-3486.1121L13488.9612,-3486.1056L13488.9664,-3486.0279L13488.9701,-3485.9982L13488.9693,-3485.9745L13488.9597,-3485.9277L13488.9553,-3485.8986L13488.9573,-3485.8634L13488.9576,-3485.8597L13488.956,-3485.8333L13488.9553,-3485.822L13488.9507,-3485.7914L13488.9487,-3485.7783L13488.948,-3485.7601L13488.959,-3485.751L13488.9597,-3485.7412L13488.9597,-3485.723L13488.9679,-3485.7121L13488.9907,-3485.7054L13489.0062,-3485.6999L13489.0128,-3485.6908L13489.0128,-3485.6898L13489.0114,-3485.6544L13489.0106,-3485.6362L13488.9689,-3485.6381L13488.9045,-3485.641L13488.8448,-3485.6416L13488.7475,-3485.6471L13488.747,-3485.634L13488.7467,-3485.626L13488.7465,-3485.6197L13488.7414,-3485.4761L13488.7409,-3485.4631L13488.7409,-3485.4345L13488.7387,-3485.4072L13488.7313,-3485.3781L13488.7335,-3485.3526L13488.7409,-3485.3234L13488.7497,-3485.2827L13488.7564,-3485.2451L13488.7674,-3485.2281L13488.7763,-3485.2159L13488.7939,-3485.1952L13488.8241,-3485.1679L13488.8581,-3485.1375L13488.8794,-3485.1224L13488.8812,-3485.1203L13488.8934,-3485.1066L13488.9037,-3485.0951L13488.9089,-3485.0811L13488.9089,-3485.0629L13488.9015,-3485.0477L13488.9008,-3485.0294L13488.9023,-3485.0137L13488.9008,-3485.0064L13488.8953,-3485L13488.8897,-3484.9936L13488.8883,-3484.9754L13488.8956,-3484.9608L13488.9067,-3484.9432L13488.9214,-3484.9207L13488.9332,-3484.8976L13488.9391,-3484.8752L13488.9354,-3484.8576L13488.9244,-3484.8302L13488.9082,-3484.8114L13488.8779,-3484.792L13488.8499,-3484.7744L13488.8091,-3484.7589L13488.805,-3484.7574L13488.7851,-3484.7501L13488.7593,-3484.7494L13488.7261,-3484.7501L13488.7254,-3484.7069L13488.7269,-3484.6814L13488.7291,-3484.645L13488.7276,-3484.6243L13488.7232,-3484.6116L13488.7224,-3484.6096L13488.7033,-3484.5594L13488.6952,-3484.543L13488.6922,-3484.5181L13488.7011,-3484.5029L13488.7063,-3484.4871L13488.7136,-3484.4555L13488.7143,-3484.4379L13488.7158,-3484.4215L13488.7224,-3484.4124L13488.7424,-3484.396L13488.7578,-3484.3844L13488.7674,-3484.3759L13488.7681,-3484.3729L13488.7696,-3484.3668L13488.7652,-3484.3522L13488.7674,-3484.3286L13488.7777,-3484.3049L13488.7969,-3484.2848L13488.8146,-3484.2745L13488.8367,-3484.2666L13488.8617,-3484.2593L13488.8794,-3484.2508L13488.8824,-3484.2411L13488.8757,-3484.2083L13488.875,-3484.1937L13488.8816,-3484.1755L13488.8855,-3484.1667L13488.8927,-3484.15L13488.9037,-3484.1336L13488.9148,-3484.1123L13488.8905,-3484.1062L13488.8684,-3484.1014L13488.8556,-3484.0957L13488.8426,-3484.0899L13488.8109,-3484.0668L13488.791,-3484.0431L13488.7674,-3484.0249L13488.7424,-3484.0194L13488.7092,-3484.02L13488.6834,-3484.014L13488.6561,-3484.0079L13488.6252,-3484.0097L13488.5994,-3484.0158L13488.5574,-3484.0231L13488.5279,-3484.0237L13488.5028,-3484.02L13488.48,-3484.0146L13488.4594,-3484.0152L13488.424,-3484.0146L13488.3937,-3484.0134L13488.3495,-3484.0176L13488.3333,-3484.0172L13488.3274,-3484.017L13488.3134,-3484.0091L13488.2957,-3483.9951L13488.2744,-3483.9872L13488.2626,-3483.9754L13488.2582,-3483.9803L13488.2405,-3483.9912L13488.225,-3483.9967L13488.1786,-3484.0022L13488.1528,-3484.0016L13488.1144,-3484.0076L13488.0663,-3484.0149L13488.042,-3484.0186L13488.0154,-3484.0174L13487.9793,-3484.0095L13487.9551,-3484.004L13487.9329,-3484.0095L13487.9093,-3484.0222L13487.8821,-3484.0313L13487.8693,-3484.0331L13487.8556,-3484.035L13487.8275,-3484.0362L13487.8261,-3484.0365L13487.7877,-3484.0453L13487.7583,-3484.052L13487.7229,-3484.0502L13487.6764,-3484.0465L13487.6175,-3484.0386L13487.5711,-3484.0386L13487.5202,-3484.0423L13487.5,-3484.0439L13487.476,-3484.0459L13487.4266,-3484.0411L13487.3809,-3484.0338L13487.3581,-3484.0259L13487.3249,-3484.0149L13487.2947,-3484.0095L13487.2814,-3484.0095L13487.2623,-3484.0167L13487.2461,-3484.0271L13487.2243,-3484.0513L13487.2181,-3484.0585L13487.2035,-3484.0777L13487.1719,-3484.1193L13487.1549,-3484.133L13487.1331,-3484.1421L13487.1033,-3484.1567L13487.0829,-3484.1667L13487.0737,-3484.1711L13487.0611,-3484.1809L13487.048,-3484.1982L13487.0401,-3484.2086L13487.04,-3484.2093L13487.0378,-3484.2204L13487.0523,-3484.2572L13487.0559,-3484.2663L13487.0627,-3484.2757L13487.0801,-3484.2917L13487.0916,-3484.2976L13487.1272,-3484.3155L13487.1383,-3484.3247L13487.1442,-3484.338L13487.1406,-3484.353L13487.128,-3484.3644L13487.1074,-3484.3706L13487.0864,-3484.3706L13487.0619,-3484.3725L13486.9915,-3484.3654L13486.9654,-3484.3598L13486.9397,-3484.3608L13486.8812,-3484.3559L13486.8705,-3484.3517L13486.8183,-3484.3158L13486.8095,-3484.3139L13486.7985,-3484.3181L13486.7731,-3484.3386L13486.7633,-3484.3585L13486.7498,-3484.4191L13486.7427,-3484.4325L13486.732,-3484.4423L13486.7186,-3484.4605L13486.6988,-3484.5097L13486.6857,-3484.529L13486.6667,-3484.5775L13486.6593,-3484.5964L13486.6497,-3484.6059L13486.6371,-3484.6108L13486.6245,-3484.6108L13486.5845,-3484.6052L13486.5706,-3484.6029L13486.5604,-3484.6036L13486.5528,-3484.6091L13486.5414,-3484.6267L13486.5398,-3484.6346L13486.5437,-3484.6661L13486.5445,-3484.6769L13486.5449,-3484.6831L13486.5448,-3484.6848L13486.5429,-3484.7137L13486.5386,-3484.7454L13486.537,-3484.7783L13486.5343,-3484.7855L13486.5066,-3484.8171L13486.4995,-3484.8284L13486.4955,-3484.8399L13486.4896,-3484.8757L13486.4809,-3484.9024L13486.4781,-3484.9158L13486.4724,-3484.9262L13486.4665,-3484.9304L13486.4587,-3484.936L13486.4508,-3484.9448L13486.4401,-3484.9634L13486.4346,-3484.9823L13486.4338,-3484.9983L13486.4341,-3485L13486.4404,-3485.0345L13486.4472,-3485.0559L13486.4556,-3485.067L13486.4654,-3485.0742L13486.4881,-3485.0824L13486.5011,-3485.0892L13486.5062,-3485.0941L13486.5074,-3485.1029L13486.5071,-3485.1055L13486.5054,-3485.1218L13486.5051,-3485.1413L13486.5015,-3485.1504L13486.4944,-3485.1547L13486.4837,-3485.156L13486.4306,-3485.1531L13486.3918,-3485.1479L13486.3618,-3485.1417L13486.3519,-3485.1423L13486.3274,-3485.1492L13486.3136,-3485.1511L13486.2724,-3485.1547L13486.2388,-3485.1599L13486.2249,-3485.1651L13486.2178,-3485.1713L13486.2112,-3485.1816L13486.2052,-3485.1984L13486.1981,-3485.2335L13486.1921,-3485.2436L13486.1811,-3485.2508L13486.1692,-3485.2551L13486.1339,-3485.2609L13486.1187,-3485.2657L13486.0961,-3485.2727L13486.0723,-3485.2811L13486.0517,-3485.2854L13485.9893,-3485.2864L13485.9283,-3485.2948L13485.9168,-3485.2971L13485.9077,-3485.3016L13485.8998,-3485.3088L13485.8721,-3485.3484L13485.8702,-3485.3512L13485.8627,-3485.3564L13485.8528,-3485.3603L13485.8333,-3485.3635L13485.8316,-3485.3637L13485.8223,-3485.3685L13485.7997,-3485.3913L13485.7816,-3485.4122L13485.7744,-3485.4141L13485.7654,-3485.4098L13485.7559,-3485.3998L13485.7436,-3485.3779L13485.7302,-3485.3616L13485.7203,-3485.3544L13485.7053,-3485.3492L13485.6886,-3485.3469L13485.6724,-3485.3411L13485.6546,-3485.3319L13485.6313,-3485.3228L13485.6052,-3485.3065L13485.5901,-3485.2994L13485.5716,-3485.2951L13485.5128,-3485.2915L13485.4731,-3485.2866L13485.4389,-3485.2861L13485.4189,-3485.2781L13485.3964,-3485.2749L13485.375,-3485.2782L13485.3437,-3485.2889L13485.3224,-3485.3016L13485.288,-3485.3144L13485.2789,-3485.3186L13485.2726,-3485.3179L13485.2663,-3485.3137L13485.2528,-3485.2994L13485.2382,-3485.2772L13485.2163,-3485.238L13485.2104,-3485.2277L13485.1958,-3485.1833L13485.1946,-3485.1702L13485.1974,-3485.1608L13485.2097,-3485.1455L13485.2259,-3485.1292L13485.233,-3485.1191L13485.2354,-3485.1067L13485.233,-3485.092L13485.2227,-3485.0689L13485.2137,-3485.056L13485.2113,-3485.0526L13485.1966,-3485.0406L13485.1777,-3485.0337L13485.1539,-3485.0298L13485.131,-3485.0305L13485.0942,-3485.0282L13485.0792,-3485.0248L13485.0674,-3485.0183L13485.0558,-3485.0106L13485.0309,-3485.0011L13485.0254,-3485L13485.0119,-3484.9972L13485,-3484.9961L13484.9945,-3484.9956L13484.985,-3484.9962L13484.9789,-3485L13484.9743,-3485.0028L13484.9653,-3485.0155L13484.9593,-3485.0347L13484.9518,-3485.0559L13484.9466,-3485.0804L13484.9459,-3485.1019L13484.9435,-3485.1119L13484.9314,-3485.1374L13484.9229,-3485.1511L13484.9103,-3485.1644L13484.8921,-3485.1784L13484.8747,-3485.1918L13484.8632,-3485.2039L13484.8573,-3485.2176L13484.845,-3485.2508L13484.8418,-3485.2752L13484.8351,-3485.2951L13484.8221,-3485.3229L13484.8161,-3485.3355L13484.8126,-3485.3427L13484.8082,-3485.3593L13484.8019,-3485.3655L13484.7948,-3485.3675L13484.7896,-3485.3652L13484.7679,-3485.3411L13484.7631,-3485.3368L13484.7572,-3485.3355L13484.745,-3485.3385L13484.7252,-3485.3404L13484.7083,-3485.3404L13484.6947,-3485.3404L13484.669,-3485.3417L13484.6564,-3485.345L13484.652,-3485.3437L13484.65,-3485.3352L13484.6473,-3485.3316L13484.6397,-3485.3274L13484.6207,-3485.3222L13484.5879,-3485.3121L13484.5757,-3485.3121L13484.5551,-3485.3176L13484.5413,-3485.3176L13484.5167,-3485.3127L13484.4851,-3485.3026L13484.476,-3485.2984L13484.4535,-3485.283L13484.442,-3485.2821L13484.4277,-3485.2856L13484.4123,-3485.2922L13484.3839,-3485.3097L13484.3658,-3485.3249L13484.3455,-3485.3454L13484.337,-3485.3529L13484.3239,-3485.3518L13484.2913,-3485.3401L13484.2143,-3485.3184L13484.1736,-3485.313L13484.1683,-3485.3168L13484.1714,-3485.3273L13484.2177,-3485.4153L13484.2314,-3485.4495L13484.2409,-3485.4817L13484.2441,-3485.4985L13484.2402,-3485.5029L13484.22,-3485.5044L13484.1984,-3485.5059L13484.1743,-3485.5041L13484.1667,-3485.5028L13484.1297,-3485.4962L13484.1023,-3485.4903L13484.0426,-3485.4774L13484.0105,-3485.4744L13483.9931,-3485.474L13483.971,-3485.4736L13483.9295,-3485.4696L13483.9134,-3485.4659L13483.9047,-3485.4603L13483.8876,-3485.4414L13483.8778,-3485.4337L13483.8657,-3485.4306L13483.8497,-3485.43L13483.8314,-3485.4305L13483.8303,-3485.4307L13483.8059,-3485.4343L13483.7784,-3485.4402L13483.7486,-3485.445L13483.7359,-3485.4537L13483.7202,-3485.4687L13483.7028,-3485.4948L13483.6921,-3485.5105L13483.6902,-3485.5189L13483.697,-3485.5356L13483.701,-3485.5474L13483.7016,-3485.5593L13483.6931,-3485.5804L13483.6756,-3485.6407L13483.6648,-3485.6539L13483.6502,-3485.6628L13483.6326,-3485.668L13483.616,-3485.6704L13483.5805,-3485.6716L13483.5536,-3485.6696L13483.5283,-3485.6672L13483.5107,-3485.6692L13483.4839,-3485.6748L13483.4672,-3485.6735L13483.4476,-3485.6789L13483.4247,-3485.6891L13483.4104,-3485.7046L13483.4045,-3485.7094L13483.3757,-3485.7198L13483.3582,-3485.7218L13483.3363,-3485.7222L13483.3333,-3485.722L13483.2967,-3485.7202L13483.268,-3485.7218L13483.2329,-3485.727L13483.1977,-3485.7351L13483.1762,-3485.743L13483.1529,-3485.7451L13483.1367,-3485.7465L13483.1246,-3485.7475L13483.11,-3485.7516L13483.0934,-3485.7596L13483.0813,-3485.7612L13483.0693,-3485.7586L13483.0536,-3485.75L13483.0281,-3485.7374L13483.0129,-3485.735L13482.9607,-3485.7346L13482.9404,-3485.7358L13482.9233,-3485.7387L13482.8967,-3485.7484L13482.8784,-3485.7491L13482.8697,-3485.7451L13482.8433,-3485.6808L13482.8428,-3485.6707L13482.8452,-3485.645L13482.8428,-3485.6354L13482.8374,-3485.6297L13482.8086,-3485.6129L13482.7746,-3485.6008L13482.758,-3485.5992L13482.7404,-3485.6008L13482.7272,-3485.5964L13482.716,-3485.588L13482.7077,-3485.5763L13482.6965,-3485.5494L13482.6863,-3485.5357L13482.6622,-3485.5108L13482.6378,-3485.4943L13482.6236,-3485.4887L13482.5942,-3485.4808L13482.5753,-3485.4689L13482.5583,-3485.4571L13482.5338,-3485.4449L13482.5157,-3485.432L13482.503,-3485.4167L13482.5,-3485.4145L13482.488,-3485.4059L13482.467,-3485.3994L13482.4363,-3485.3978L13482.4219,-3485.3981L13482.4219,-3489.2578Z"/>
</g>
</svg>
