<?xml version="1.0" encoding="UTF-8"?>
<svg  xmlns="http://www.w3.org/2000/svg" xmlns:xlink="http://www.w3.org/1999/xlink" xmlns:go="http://purl.org/svgmap/profile" property="geometry,N03_001,N03_002,N03_003,N03_004,N03_005,N03_007" viewBox="13482.421875 -3585.9375 17.578125 17.578125" go:dataArea="13482.421875 -3585.9375 17.578125 17.578125" >
<metadata>
 <rdf:RDF xmlns:rdf="http://www.w3.org/1999/02/22-rdf-syntax-ns#" xmlns:crs="http://opengis.org/xmldtds/transformations.dtd" xmlns:svg="http://www.w3.org/svg" >
  <rdf:Description>
   <crs:CoordinateReferenceSystem rdf:resource="http://purl.org/crs/84" svg:transform="matrix(100.0,0.0,0.0,-100.0,0.0,0.0)" />
  </rdf:Description>
 </rdf:RDF>
</metadata>
<globalCoordinateSystem srsName="http://purl.org/crs/84" transform="matrix(100.0,0.0,0.0,-100.0,0.0,0.0)" />
<defs>
 <g id="p0" >
  <circle cx="0.0" cy="0.0" r="3" stroke="green" stroke-width="2.0" vector-effect="non-scaling-stroke" />
 </g>
</defs>
<g fill="#0000ff" fill-rule="evenodd" opacity="0.5" >
<path content="京都府,,,京丹後市,,26212" xlink:title="京都府" d="M13500,-3568.3594L13497.9325,-3568.3594L13497.9325,-3568.3596L13497.934,-3568.3611L13497.9354,-3568.3612L13497.9393,-3568.3603L13497.9435,-3568.3594L13497.961,-3568.3594L13497.9637,-3568.3613L13497.9776,-3568.378L13497.984,-3568.3818L13498.0105,-3568.3964L13498.0329,-3568.411L13498.0346,-3568.4123L13498.0407,-3568.4215L13498.0442,-3568.4232L13498.0477,-3568.4237L13498.0597,-3568.4239L13498.0643,-3568.4248L13498.0673,-3568.4258L13498.0694,-3568.427L13498.073,-3568.4314L13498.0812,-3568.4334L13498.0851,-3568.4322L13498.0911,-3568.4308L13498.096,-3568.4305L13498.1198,-3568.438L13498.1424,-3568.4458L13498.163,-3568.4583L13498.1742,-3568.4664L13498.1772,-3568.4729L13498.1801,-3568.479L13498.18,-3568.4864L13498.1802,-3568.492L13498.1841,-3568.503L13498.1963,-3568.5129L13498.2081,-3568.5354L13498.2096,-3568.5437L13498.2095,-3568.5518L13498.2072,-3568.5586L13498.2075,-3568.5643L13498.2145,-3568.5795L13498.219,-3568.5839L13498.2263,-3568.5896L13498.2322,-3568.592L13498.2375,-3568.593L13498.2406,-3568.5968L13498.2456,-3568.6044L13498.2495,-3568.6141L13498.2505,-3568.6199L13498.2483,-3568.624L13498.2467,-3568.626L13498.2434,-3568.6269L13498.2414,-3568.6282L13498.2403,-3568.6301L13498.24,-3568.632L13498.241,-3568.6328L13498.2445,-3568.6336L13498.245,-3568.6404L13498.246,-3568.6473L13498.2478,-3568.6516L13498.2488,-3568.6617L13498.2483,-3568.6697L13498.2494,-3568.6738L13498.2507,-3568.6774L13498.2487,-3568.6791L13498.246,-3568.685L13498.242,-3568.6949L13498.2401,-3568.7005L13498.2382,-3568.7087L13498.2324,-3568.7185L13498.2289,-3568.7279L13498.2261,-3568.7377L13498.2258,-3568.7443L13498.2262,-3568.7547L13498.2294,-3568.7613L13498.2371,-3568.7751L13498.2407,-3568.7777L13498.2406,-3568.7797L13498.2414,-3568.7809L13498.2424,-3568.7811L13498.2455,-3568.78L13498.2478,-3568.7785L13498.25,-3568.778L13498.2509,-3568.7789L13498.2527,-3568.7813L13498.2562,-3568.7838L13498.2574,-3568.7871L13498.2632,-3568.7908L13498.266,-3568.7926L13498.2664,-3568.7948L13498.2664,-3568.7962L13498.2656,-3568.7975L13498.2622,-3568.7982L13498.2629,-3568.8015L13498.2675,-3568.8051L13498.2721,-3568.8097L13498.2753,-3568.8113L13498.2791,-3568.8089L13498.2798,-3568.8095L13498.2778,-3568.8195L13498.2795,-3568.825L13498.2795,-3568.829L13498.2822,-3568.8297L13498.2863,-3568.8309L13498.2887,-3568.8334L13498.2901,-3568.8334L13498.2912,-3568.8315L13498.2916,-3568.8296L13498.2967,-3568.8315L13498.2994,-3568.8333L13498.2986,-3568.836L13498.298,-3568.8385L13498.3004,-3568.8408L13498.304,-3568.8406L13498.3063,-3568.8399L13498.3077,-3568.8414L13498.3067,-3568.8432L13498.3071,-3568.8445L13498.3116,-3568.8456L13498.309,-3568.8463L13498.3063,-3568.8495L13498.3037,-3568.8518L13498.3027,-3568.8561L13498.3043,-3568.8571L13498.3128,-3568.8572L13498.3136,-3568.8584L13498.3119,-3568.8608L13498.3142,-3568.8634L13498.3168,-3568.8648L13498.3201,-3568.8628L13498.3239,-3568.8626L13498.3298,-3568.8671L13498.3301,-3568.8691L13498.3321,-3568.8717L13498.3333,-3568.8726L13498.3359,-3568.8745L13498.3442,-3568.8796L13498.3527,-3568.882L13498.3553,-3568.8828L13498.3603,-3568.8841L13498.3659,-3568.8892L13498.3696,-3568.8916L13498.373,-3568.8922L13498.3744,-3568.892L13498.3756,-3568.8915L13498.3785,-3568.8879L13498.3793,-3568.8875L13498.3808,-3568.8871L13498.3827,-3568.8872L13498.3854,-3568.8876L13498.3884,-3568.8881L13498.3935,-3568.889L13498.405,-3568.8907L13498.4265,-3568.8916L13498.429,-3568.8926L13498.4308,-3568.8935L13498.433,-3568.8962L13498.4345,-3568.8974L13498.4362,-3568.8984L13498.4412,-3568.8999L13498.4447,-3568.9007L13498.4464,-3568.9009L13498.4483,-3568.901L13498.46,-3568.9003L13498.4624,-3568.8997L13498.464,-3568.8993L13498.4721,-3568.8962L13498.4816,-3568.9051L13498.4812,-3568.9054L13498.4803,-3568.9065L13498.4793,-3568.9081L13498.4792,-3568.9093L13498.4777,-3568.9133L13498.4756,-3568.9185L13498.4742,-3568.922L13498.4735,-3568.9242L13498.4704,-3568.9308L13498.4692,-3568.9338L13498.4674,-3568.9379L13498.4656,-3568.9402L13498.465,-3568.9432L13498.4615,-3568.9513L13498.4615,-3568.9533L13498.4615,-3568.9544L13498.4614,-3568.9579L13498.4614,-3568.9589L13498.4616,-3568.9612L13498.4617,-3568.9656L13498.4622,-3568.9675L13498.4635,-3568.9707L13498.4632,-3568.9731L13498.4631,-3568.9744L13498.4563,-3568.9778L13498.4455,-3568.9803L13498.4416,-3568.9813L13498.4384,-3568.9829L13498.4365,-3568.9845L13498.4321,-3568.9918L13498.4312,-3568.9934L13498.429,-3568.9974L13498.4279,-3568.9991L13498.4247,-3569.0031L13498.4227,-3569.0053L13498.4218,-3569.0079L13498.4213,-3569.0096L13498.4215,-3569.0112L13498.4222,-3569.0126L13498.4228,-3569.0136L13498.4243,-3569.014L13498.4272,-3569.0138L13498.4292,-3569.0136L13498.4307,-3569.0136L13498.4313,-3569.0137L13498.4318,-3569.0141L13498.4305,-3569.0198L13498.43,-3569.0205L13498.4293,-3569.0209L13498.4281,-3569.0213L13498.426,-3569.0216L13498.4239,-3569.0217L13498.4213,-3569.0223L13498.419,-3569.0233L13498.4145,-3569.0256L13498.4129,-3569.028L13498.4096,-3569.0297L13498.4067,-3569.0316L13498.4051,-3569.0357L13498.4066,-3569.0388L13498.4075,-3569.0414L13498.4043,-3569.0476L13498.3997,-3569.0499L13498.3986,-3569.0525L13498.3986,-3569.0555L13498.4002,-3569.0599L13498.4029,-3569.0633L13498.4072,-3569.0669L13498.419,-3569.0672L13498.4395,-3569.0605L13498.4408,-3569.0602L13498.4431,-3569.0602L13498.4442,-3569.0604L13498.445,-3569.0608L13498.4454,-3569.0616L13498.4457,-3569.0628L13498.4457,-3569.0648L13498.4449,-3569.0666L13498.4438,-3569.0691L13498.4427,-3569.0789L13498.4427,-3569.08L13498.4436,-3569.0813L13498.4443,-3569.0816L13498.4456,-3569.0818L13498.4482,-3569.0818L13498.4508,-3569.0813L13498.4532,-3569.0814L13498.4557,-3569.082L13498.4572,-3569.0827L13498.4582,-3569.0846L13498.4585,-3569.0861L13498.4584,-3569.0873L13498.4576,-3569.089L13498.4561,-3569.0908L13498.4551,-3569.0926L13498.4546,-3569.0939L13498.4543,-3569.0964L13498.4569,-3569.0992L13498.4607,-3569.1001L13498.4646,-3569.0999L13498.4706,-3569.0982L13498.4739,-3569.0989L13498.4771,-3569.1006L13498.491,-3569.1128L13498.4986,-3569.1223L13498.5051,-3569.1363L13498.5082,-3569.1402L13498.5107,-3569.1432L13498.5157,-3569.1441L13498.5224,-3569.1411L13498.5242,-3569.1405L13498.5258,-3569.1401L13498.5274,-3569.1399L13498.5286,-3569.1399L13498.5297,-3569.1401L13498.5304,-3569.1404L13498.5313,-3569.1409L13498.5319,-3569.1417L13498.5324,-3569.1435L13498.5325,-3569.1459L13498.531,-3569.148L13498.5239,-3569.1521L13498.517,-3569.1578L13498.5155,-3569.1608L13498.5162,-3569.1667L13498.5217,-3569.1722L13498.5202,-3569.1766L13498.5225,-3569.1806L13498.5328,-3569.1814L13498.5422,-3569.1806L13498.5402,-3569.1836L13498.5408,-3569.1901L13498.5429,-3569.1947L13498.5495,-3569.1971L13498.5571,-3569.1981L13498.5618,-3569.1976L13498.5592,-3569.2004L13498.5585,-3569.2034L13498.5577,-3569.2135L13498.5626,-3569.2163L13498.5575,-3569.2181L13498.5546,-3569.2234L13498.5538,-3569.2272L13498.5565,-3569.2314L13498.5632,-3569.2331L13498.5706,-3569.2338L13498.5651,-3569.2417L13498.5628,-3569.2477L13498.565,-3569.2526L13498.5722,-3569.2551L13498.5703,-3569.2604L13498.5712,-3569.2647L13498.5703,-3569.2747L13498.5745,-3569.2784L13498.5821,-3569.2792L13498.5897,-3569.2792L13498.5982,-3569.2757L13498.6053,-3569.2748L13498.6154,-3569.2718L13498.6221,-3569.2676L13498.6222,-3569.2572L13498.6286,-3569.2547L13498.6356,-3569.2415L13498.6364,-3569.2349L13498.6396,-3569.2308L13498.6401,-3569.226L13498.6373,-3569.2174L13498.6449,-3569.2113L13498.6519,-3569.213L13498.6583,-3569.2159L13498.6604,-3569.2175L13498.6744,-3569.2189L13498.6852,-3569.2187L13498.691,-3569.2189L13498.6919,-3569.2193L13498.6922,-3569.2194L13498.6939,-3569.2203L13498.6957,-3569.2206L13498.6974,-3569.2203L13498.6995,-3569.219L13498.7007,-3569.2185L13498.7036,-3569.2177L13498.7058,-3569.2172L13498.7106,-3569.2144L13498.7128,-3569.2093L13498.7182,-3569.2088L13498.7219,-3569.2093L13498.7305,-3569.2112L13498.7379,-3569.21L13498.7407,-3569.2079L13498.7441,-3569.205L13498.7464,-3569.2025L13498.7577,-3569.201L13498.7657,-3569.1967L13498.7663,-3569.1942L13498.775,-3569.1889L13498.7805,-3569.178L13498.7885,-3569.1725L13498.787,-3569.1667L13498.7868,-3569.166L13498.7952,-3569.1636L13498.7993,-3569.1594L13498.8011,-3569.1515L13498.8032,-3569.1456L13498.8156,-3569.1382L13498.8089,-3569.1306L13498.8213,-3569.1288L13498.838,-3569.1196L13498.8408,-3569.1172L13498.841,-3569.1134L13498.8404,-3569.1111L13498.8465,-3569.1117L13498.8508,-3569.109L13498.8542,-3569.1032L13498.8697,-3569.1104L13498.8801,-3569.108L13498.8779,-3569.1147L13498.8809,-3569.1187L13498.8853,-3569.1206L13498.8922,-3569.1268L13498.9013,-3569.1296L13498.9131,-3569.1369L13498.9146,-3569.1445L13498.9194,-3569.1491L13498.9248,-3569.1502L13498.9239,-3569.1541L13498.9244,-3569.1585L13498.9289,-3569.1667L13498.9298,-3569.1683L13498.9383,-3569.1706L13498.9445,-3569.1671L13498.9472,-3569.1667L13498.9497,-3569.1663L13498.955,-3569.1633L13498.9586,-3569.1588L13498.9575,-3569.1552L13498.9668,-3569.1554L13498.9726,-3569.1544L13498.9766,-3569.1493L13498.9843,-3569.1516L13498.9907,-3569.1517L13499.006,-3569.147L13499.0161,-3569.148L13499.0149,-3569.1519L13499.0154,-3569.1565L13499.0182,-3569.1608L13499.0279,-3569.1608L13499.0329,-3569.1574L13499.0384,-3569.1469L13499.0346,-3569.1405L13499.0287,-3569.1361L13499.0313,-3569.1323L13499.0409,-3569.1279L13499.0471,-3569.1244L13499.0599,-3569.1256L13499.0752,-3569.1278L13499.0871,-3569.1323L13499.0936,-3569.139L13499.0964,-3569.1396L13499.1027,-3569.1374L13499.1111,-3569.1298L13499.1156,-3569.1293L13499.1264,-3569.1264L13499.1383,-3569.1059L13499.1367,-3569.1022L13499.1275,-3569.0926L13499.1301,-3569.084L13499.1299,-3569.0767L13499.1229,-3569.0687L13499.129,-3569.0582L13499.1294,-3569.0514L13499.1261,-3569.0469L13499.1327,-3569.0434L13499.1368,-3569.0379L13499.1374,-3569.0296L13499.1396,-3569.0245L13499.1369,-3569.0192L13499.1501,-3569.0199L13499.1561,-3569.0148L13499.1557,-3569.0084L13499.1629,-3569.0082L13499.1667,-3569.0053L13499.167,-3569.005L13499.1678,-3569.0015L13499.1809,-3568.9993L13499.2189,-3568.9914L13499.2575,-3568.9873L13499.2788,-3568.987L13499.3067,-3568.9832L13499.3252,-3568.9823L13499.3451,-3568.9834L13499.3469,-3568.9835L13499.3483,-3568.9839L13499.3493,-3568.9848L13499.3503,-3568.9863L13499.3504,-3568.9874L13499.3541,-3568.9945L13499.3487,-3568.9972L13499.3444,-3569.0058L13499.3467,-3569.0097L13499.3508,-3569.0129L13499.3495,-3569.02L13499.3563,-3569.0232L13499.3653,-3569.0281L13499.3658,-3569.0375L13499.3725,-3569.0426L13499.3797,-3569.0426L13499.3876,-3569.0406L13499.3916,-3569.0375L13499.3973,-3569.0305L13499.4008,-3569.0252L13499.402,-3569.0249L13499.4055,-3569.0247L13499.4096,-3569.0249L13499.4141,-3569.0257L13499.4182,-3569.0274L13499.4203,-3569.029L13499.4208,-3569.0306L13499.4205,-3569.0327L13499.419,-3569.035L13499.4173,-3569.0374L13499.4166,-3569.0386L13499.4166,-3569.0398L13499.4169,-3569.0406L13499.4176,-3569.041L13499.4182,-3569.0411L13499.4189,-3569.0411L13499.4205,-3569.0399L13499.4221,-3569.0374L13499.4233,-3569.0358L13499.4242,-3569.0353L13499.4253,-3569.0357L13499.4284,-3569.0374L13499.4329,-3569.0394L13499.4347,-3569.0409L13499.4349,-3569.0421L13499.4345,-3569.0437L13499.4334,-3569.0453L13499.4299,-3569.0495L13499.4296,-3569.0524L13499.4303,-3569.0542L13499.431,-3569.0561L13499.4323,-3569.0569L13499.4339,-3569.0578L13499.4453,-3569.0607L13499.4415,-3569.0735L13499.4418,-3569.0761L13499.4423,-3569.0769L13499.443,-3569.0775L13499.4486,-3569.0789L13499.4501,-3569.0788L13499.4514,-3569.0782L13499.4563,-3569.072L13499.4578,-3569.0715L13499.4594,-3569.0715L13499.4828,-3569.0796L13499.4853,-3569.08L13499.4874,-3569.0804L13499.5048,-3569.081L13499.5331,-3569.0816L13499.5485,-3569.0812L13499.5508,-3569.082L13499.5522,-3569.083L13499.5524,-3569.0855L13499.552,-3569.0865L13499.5511,-3569.0871L13499.5419,-3569.091L13499.5302,-3569.0945L13499.5292,-3569.0957L13499.5289,-3569.0971L13499.5302,-3569.1109L13499.5324,-3569.1157L13499.5322,-3569.118L13499.5312,-3569.1193L13499.5239,-3569.1235L13499.5131,-3569.1287L13499.5102,-3569.1287L13499.5081,-3569.1271L13499.5001,-3569.1165L13499.4996,-3569.1151L13499.4994,-3569.1138L13499.4999,-3569.1099L13499.4997,-3569.1084L13499.4991,-3569.1071L13499.4976,-3569.1053L13499.4964,-3569.1047L13499.4948,-3569.1043L13499.4848,-3569.1039L13499.4824,-3569.1037L13499.4802,-3569.1031L13499.4679,-3569.0978L13499.4658,-3569.0977L13499.464,-3569.0981L13499.4591,-3569.1022L13499.4581,-3569.1026L13499.4569,-3569.1025L13499.4423,-3569.101L13499.4401,-3569.1014L13499.4388,-3569.1025L13499.4376,-3569.1053L13499.4394,-3569.1114L13499.4384,-3569.1197L13499.4362,-3569.1295L13499.4368,-3569.1365L13499.4395,-3569.1424L13499.4406,-3569.1434L13499.4579,-3569.1522L13499.4761,-3569.1541L13499.4776,-3569.154L13499.4791,-3569.1539L13499.4969,-3569.1482L13499.4975,-3569.1481L13499.4985,-3569.1483L13499.5107,-3569.153L13499.5113,-3569.153L13499.5119,-3569.153L13499.5142,-3569.1524L13499.5146,-3569.152L13499.5149,-3569.1515L13499.5155,-3569.1345L13499.5356,-3569.1235L13499.5653,-3569.1106L13499.5712,-3569.1059L13499.5748,-3569.1077L13499.5814,-3569.1074L13499.588,-3569.1051L13499.5942,-3569.1084L13499.6017,-3569.1078L13499.6086,-3569.1049L13499.6189,-3569.1111L13499.6356,-3569.1179L13499.6493,-3569.1162L13499.6535,-3569.1151L13499.6639,-3569.1224L13499.6701,-3569.1241L13499.6805,-3569.1247L13499.6878,-3569.1286L13499.7012,-3569.13L13499.7079,-3569.1266L13499.7092,-3569.1293L13499.7138,-3569.131L13499.7267,-3569.1329L13499.7327,-3569.1327L13499.7384,-3569.133L13499.7483,-3569.1316L13499.7518,-3569.1302L13499.7554,-3569.1301L13499.757,-3569.1306L13499.7581,-3569.1348L13499.7593,-3569.1363L13499.7673,-3569.1383L13499.7731,-3569.1391L13499.7762,-3569.1411L13499.7802,-3569.1425L13499.7846,-3569.1428L13499.7882,-3569.1412L13499.7922,-3569.1391L13499.7967,-3569.1385L13499.7991,-3569.1373L13499.7994,-3569.1347L13499.8004,-3569.1319L13499.8013,-3569.1302L13499.8036,-3569.1309L13499.8072,-3569.1311L13499.8106,-3569.1302L13499.8143,-3569.1277L13499.8187,-3569.1263L13499.8221,-3569.1263L13499.8252,-3569.1236L13499.8294,-3569.123L13499.831,-3569.121L13499.8309,-3569.116L13499.8337,-3569.1168L13499.8386,-3569.1161L13499.8434,-3569.1157L13499.8507,-3569.1149L13499.8529,-3569.1139L13499.8538,-3569.1126L13499.855,-3569.1089L13499.8562,-3569.1109L13499.8589,-3569.1117L13499.8628,-3569.1111L13499.8691,-3569.1093L13499.8714,-3569.1069L13499.8728,-3569.1041L13499.8744,-3569.1074L13499.8765,-3569.1081L13499.8806,-3569.1081L13499.8845,-3569.1075L13499.8888,-3569.1058L13499.8907,-3569.1086L13499.8933,-3569.1085L13499.8989,-3569.1066L13499.9009,-3569.1049L13499.9046,-3569.1034L13499.9073,-3569.1027L13499.9103,-3569.1011L13499.9119,-3569.099L13499.9137,-3569.0956L13499.9149,-3569.0973L13499.9171,-3569.0973L13499.9213,-3569.0969L13499.9268,-3569.0967L13499.9293,-3569.0956L13499.9293,-3569.0903L13499.9305,-3569.0927L13499.9309,-3569.0951L13499.9346,-3569.0973L13499.9383,-3569.0987L13499.9448,-3569.0999L13499.9489,-3569.101L13499.9555,-3569.1038L13499.9586,-3569.104L13499.9617,-3569.1033L13499.965,-3569.102L13499.9654,-3569.1042L13499.9682,-3569.1097L13499.9718,-3569.1118L13499.9789,-3569.114L13499.9815,-3569.1151L13499.9806,-3569.1174L13499.9809,-3569.121L13499.9863,-3569.1256L13499.99,-3569.1276L13499.9946,-3569.1323L13499.9992,-3569.1348L13500,-3569.1351Z"/>
<path content="京都府,,,京丹後市,,26212" xlink:title="京都府" d="M13498.9802,-3569.3277L13498.9723,-3569.3271L13498.9658,-3569.3345L13498.9583,-3569.341L13498.9578,-3569.3489L13498.9763,-3569.3501L13498.9989,-3569.3474L13499.0162,-3569.3406L13499.0086,-3569.3344L13498.9856,-3569.3282L13498.9802,-3569.3277Z"/>
<path content="京都府,,,京丹後市,,26212" xlink:title="京都府" d="M13498.9962,-3569.1977L13498.9918,-3569.1955L13498.9841,-3569.1971L13498.9736,-3569.2065L13498.9646,-3569.2066L13498.9558,-3569.2083L13498.9516,-3569.2133L13498.9524,-3569.2188L13498.9629,-3569.2205L13498.9702,-3569.2194L13498.9758,-3569.216L13498.9847,-3569.2133L13498.9903,-3569.2081L13498.9951,-3569.2038L13498.9962,-3569.1977Z"/>
<path content="京都府,,,京丹後市,,26212" xlink:title="京都府" d="M13498.7517,-3569.2316L13498.7335,-3569.2313L13498.724,-3569.2393L13498.7251,-3569.2418L13498.7365,-3569.2486L13498.7464,-3569.247L13498.757,-3569.2454L13498.7627,-3569.2319L13498.7517,-3569.2316Z"/>
<path content="京都府,,,京丹後市,,26212" xlink:title="京都府" d="M13499.1071,-3569.4478L13499.1041,-3569.4423L13499.0916,-3569.4439L13499.0854,-3569.4487L13499.0823,-3569.4541L13499.0887,-3569.4568L13499.0973,-3569.4575L13499.1021,-3569.462L13499.1135,-3569.4602L13499.1185,-3569.4523L13499.1071,-3569.4478Z"/>
<path content="京都府,,,京丹後市,,26212" xlink:title="京都府" d="M13498.1843,-3568.576L13498.182,-3568.5753L13498.1732,-3568.5801L13498.1711,-3568.5852L13498.1726,-3568.5941L13498.1717,-3568.6012L13498.1706,-3568.608L13498.1701,-3568.6106L13498.1722,-3568.612L13498.1744,-3568.6116L13498.1811,-3568.6025L13498.1854,-3568.5962L13498.185,-3568.5914L13498.1842,-3568.587L13498.1847,-3568.5821L13498.1848,-3568.5781L13498.1843,-3568.576Z"/>
<path content="京都府,,,京丹後市,,26212" xlink:title="京都府" d="M13498.5081,-3569.359L13498.5018,-3569.3553L13498.4928,-3569.3564L13498.4866,-3569.36L13498.4885,-3569.3663L13498.492,-3569.3706L13498.4969,-3569.3774L13498.5028,-3569.3801L13498.5045,-3569.3771L13498.5031,-3569.3721L13498.5044,-3569.3679L13498.51,-3569.3635L13498.5081,-3569.359Z"/>
<path content="京都府,,,京丹後市,,26212" xlink:title="京都府" d="M13499.5739,-3569.4731L13499.5649,-3569.4713L13499.5566,-3569.4725L13499.5514,-3569.4741L13499.5515,-3569.4816L13499.5558,-3569.4851L13499.567,-3569.4857L13499.5739,-3569.4834L13499.5764,-3569.4774L13499.5739,-3569.4731Z"/>
<path content="京都府,,,京丹後市,,26212" xlink:title="京都府" d="M13498.2057,-3568.7428L13498.2039,-3568.7426L13498.1986,-3568.7462L13498.1919,-3568.7501L13498.1903,-3568.7523L13498.1892,-3568.7548L13498.1891,-3568.757L13498.1904,-3568.7595L13498.1939,-3568.7611L13498.1994,-3568.7609L13498.2052,-3568.7608L13498.2097,-3568.7584L13498.2112,-3568.7546L13498.21,-3568.7511L13498.2074,-3568.745L13498.2057,-3568.7428Z"/>
<path content="京都府,,,京丹後市,,26212" xlink:title="京都府" d="M13498.1548,-3568.5645L13498.1585,-3568.5627L13498.1645,-3568.5519L13498.1685,-3568.5489L13498.1713,-3568.5479L13498.1718,-3568.5473L13498.1745,-3568.5428L13498.1735,-3568.5394L13498.1721,-3568.5374L13498.17,-3568.5388L13498.1687,-3568.5435L13498.1663,-3568.547L13498.1617,-3568.5492L13498.1591,-3568.551L13498.1566,-3568.5537L13498.1477,-3568.5548L13498.1435,-3568.5568L13498.1414,-3568.5606L13498.1433,-3568.5639L13498.1489,-3568.5636L13498.1538,-3568.5637L13498.1548,-3568.5645Z"/>
<path content="京都府,,,京丹後市,,26212" xlink:title="京都府" d="M13498.3998,-3568.9044L13498.3961,-3568.9031L13498.3928,-3568.9045L13498.3882,-3568.9097L13498.3864,-3568.9193L13498.3873,-3568.9212L13498.3894,-3568.9234L13498.3936,-3568.9218L13498.4025,-3568.9154L13498.4031,-3568.9092L13498.403,-3568.9063L13498.3998,-3568.9044Z"/>
<path content="京都府,,,京丹後市,,26212" xlink:title="京都府" d="M13498.3234,-3568.898L13498.32,-3568.8968L13498.3126,-3568.897L13498.3099,-3568.8986L13498.3078,-3568.9046L13498.3094,-3568.9074L13498.3136,-3568.9092L13498.3224,-3568.9081L13498.3279,-3568.9034L13498.3272,-3568.8995L13498.3234,-3568.898Z"/>
<path content="京都府,,,京丹後市,,26212" xlink:title="京都府" d="M13498.1562,-3568.588L13498.1527,-3568.5869L13498.1487,-3568.5887L13498.1448,-3568.5933L13498.1431,-3568.5977L13498.1427,-3568.6052L13498.1449,-3568.6064L13498.1479,-3568.6059L13498.1535,-3568.6003L13498.1555,-3568.5961L13498.155,-3568.5916L13498.1562,-3568.588Z"/>
<path content="京都府,,,京丹後市,,26212" xlink:title="京都府" d="M13499.1667,-3569.5206L13499.1657,-3569.5198L13499.1582,-3569.5253L13499.1599,-3569.5315L13499.1647,-3569.5361L13499.1667,-3569.5357L13499.1735,-3569.5343L13499.1726,-3569.5255L13499.1667,-3569.5206Z"/>
<path content="京都府,,,京丹後市,,26212" xlink:title="京都府" d="M13498.4205,-3569.1329L13498.4166,-3569.1318L13498.4143,-3569.1319L13498.411,-3569.1337L13498.4079,-3569.1372L13498.4069,-3569.1394L13498.4065,-3569.142L13498.407,-3569.1443L13498.4091,-3569.1459L13498.4109,-3569.1466L13498.4137,-3569.1465L13498.4182,-3569.1442L13498.4196,-3569.1428L13498.4208,-3569.1409L13498.4217,-3569.1349L13498.4205,-3569.1329Z"/>
<path content="京都府,,,京丹後市,,26212" xlink:title="京都府" d="M13498.98,-3569.5036L13498.9749,-3569.5015L13498.9701,-3569.5042L13498.9678,-3569.5097L13498.9694,-3569.513L13498.9749,-3569.515L13498.9819,-3569.516L13498.9848,-3569.5118L13498.98,-3569.5036Z"/>
<path content="京都府,,,京丹後市,,26212" xlink:title="京都府" d="M13499.9825,-3569.1538L13499.98,-3569.1507L13499.9751,-3569.1555L13499.9731,-3569.1619L13499.9747,-3569.165L13499.9782,-3569.1664L13499.9811,-3569.1641L13499.9825,-3569.1599L13499.9825,-3569.1538Z"/>
<path content="京都府,,,京丹後市,,26212" xlink:title="京都府" d="M13498.2213,-3568.7554L13498.2177,-3568.7542L13498.2156,-3568.7556L13498.2146,-3568.7582L13498.2153,-3568.7603L13498.2169,-3568.7618L13498.2192,-3568.7621L13498.2216,-3568.7621L13498.2257,-3568.7611L13498.2249,-3568.7583L13498.2213,-3568.7554Z"/>
<path content="京都府,,,京丹後市,,26212" xlink:title="京都府" d="M13498.2143,-3568.7626L13498.2131,-3568.7622L13498.2089,-3568.7642L13498.2077,-3568.7657L13498.2071,-3568.7683L13498.2078,-3568.7698L13498.2097,-3568.7705L13498.2113,-3568.7703L13498.2148,-3568.7693L13498.2167,-3568.7675L13498.2168,-3568.7655L13498.2153,-3568.763L13498.2143,-3568.7626Z"/>
<path content="京都府,,,京丹後市,,26212" xlink:title="京都府" d="M13498.4305,-3569.1184L13498.428,-3569.1177L13498.4226,-3569.1181L13498.421,-3569.1187L13498.421,-3569.1207L13498.4225,-3569.1224L13498.4259,-3569.1239L13498.4283,-3569.124L13498.4309,-3569.1229L13498.4323,-3569.1212L13498.4317,-3569.1192L13498.4305,-3569.1184Z"/>
<path content="京都府,,,京丹後市,,26212" xlink:title="京都府" d="M13498.2197,-3568.7713L13498.2182,-3568.7708L13498.215,-3568.7709L13498.2141,-3568.7724L13498.2134,-3568.7741L13498.214,-3568.7753L13498.2155,-3568.7753L13498.2175,-3568.7749L13498.219,-3568.7741L13498.2204,-3568.7727L13498.2197,-3568.7713Z"/>
<path content="京都府,,,京丹後市,,26212" xlink:title="京都府" d="M13498.2125,-3568.7727L13498.2081,-3568.7721L13498.2064,-3568.7724L13498.2063,-3568.7747L13498.2073,-3568.7758L13498.2097,-3568.7758L13498.2119,-3568.7755L13498.2129,-3568.7741L13498.2125,-3568.7727Z"/>
<path content="京都府,,,京丹後市,,26212" xlink:title="京都府" d="M13498.2656,-3568.8056L13498.2649,-3568.8055L13498.2641,-3568.8063L13498.2649,-3568.8088L13498.2666,-3568.8095L13498.2674,-3568.809L13498.2678,-3568.8081L13498.2671,-3568.8065L13498.2656,-3568.8056Z"/>
</g>
</svg>
