<?xml version="1.0" encoding="UTF-8"?>
<svg  xmlns="http://www.w3.org/2000/svg" xmlns:xlink="http://www.w3.org/1999/xlink" xmlns:go="http://purl.org/svgmap/profile" property="geometry,N03_001,N03_002,N03_003,N03_004,N03_005,N03_007" viewBox="13570.3125 -3462.890625 4.39453125 4.39453125" go:dataArea="13570.3125 -3462.890625 4.39453125 4.39453125" >
<metadata>
 <rdf:RDF xmlns:rdf="http://www.w3.org/1999/02/22-rdf-syntax-ns#" xmlns:crs="http://opengis.org/xmldtds/transformations.dtd" xmlns:svg="http://www.w3.org/svg" >
  <rdf:Description>
   <crs:CoordinateReferenceSystem rdf:resource="http://purl.org/crs/84" svg:transform="matrix(100.0,0.0,0.0,-100.0,0.0,0.0)" />
  </rdf:Description>
 </rdf:RDF>
</metadata>
<globalCoordinateSystem srsName="http://purl.org/crs/84" transform="matrix(100.0,0.0,0.0,-100.0,0.0,0.0)" />
<defs>
 <g id="p0" >
  <circle cx="0.0" cy="0.0" r="3" stroke="green" stroke-width="2.0" vector-effect="non-scaling-stroke" />
 </g>
</defs>
<g fill="#0000ff" fill-rule="evenodd" opacity="0.5" >
<path content="奈良県,,,大和郡山市,,29203" xlink:title="奈良県" d="M13574.707,-3462.8906L13574.707,-3462.5758L13574.6885,-3462.5824L13574.6741,-3462.5848L13574.6532,-3462.583L13574.6229,-3462.5777L13574.6012,-3462.5759L13574.5608,-3462.5765L13574.5139,-3462.5812L13574.4627,-3462.6033L13574.4418,-3462.6069L13574.41,-3462.6185L13574.3783,-3462.6453L13574.3609,-3462.6662L13574.3335,-3462.708L13574.327,-3462.7271L13574.3169,-3462.7467L13574.3068,-3462.7563L13574.2989,-3462.7736L13574.2881,-3462.7933L13574.2779,-3462.7998L13574.2556,-3462.807L13574.2264,-3462.8138L13574.1667,-3462.8277L13574.1452,-3462.8326L13574.1307,-3462.8297L13574.1141,-3462.8385L13574.1077,-3462.8419L13574.0882,-3462.8472L13574.0261,-3462.8508L13574.0037,-3462.8502L13573.9641,-3462.8544L13573.8274,-3462.8668L13573.8068,-3462.8687L13573.7829,-3462.8735L13573.7779,-3462.8794L13573.7745,-3462.8906Z"/>
<path content="奈良県,,生駒郡,平群町,,29342" xlink:title="奈良県" d="M13570.3125,-3462.8906L13571.9369,-3462.8906L13571.9387,-3462.8885L13571.9436,-3462.8828L13572.0027,-3462.8307L13572.0543,-3462.7857L13572.0587,-3462.7816L13572.0877,-3462.7542L13572.1106,-3462.7297L13572.1144,-3462.7191L13572.1144,-3462.7009L13572.0973,-3462.6544L13572.0829,-3462.6236L13572.0696,-3462.6102L13572.0524,-3462.6015L13572.0352,-3462.5904L13572.0276,-3462.5802L13572.019,-3462.5581L13572.0124,-3462.5376L13572.0075,-3462.5226L13571.9979,-3462.5123L13571.9628,-3462.5L13571.9483,-3462.4949L13571.9044,-3462.4792L13571.8786,-3462.4697L13571.8681,-3462.4563L13571.8643,-3462.4436L13571.8662,-3462.4291L13571.8767,-3462.4006L13571.8691,-3462.3699L13571.8596,-3462.3154L13571.8471,-3462.287L13571.8299,-3462.2633L13571.8261,-3462.2491L13571.8261,-3462.2365L13571.8395,-3462.2018L13571.8662,-3462.1225L13571.8729,-3462.1019L13571.8777,-3462.0791L13571.8748,-3462.0641L13571.8605,-3462.0388L13571.8443,-3462.0286L13571.8348,-3462.0164L13571.8204,-3461.9978L13571.8099,-3461.9717L13571.8013,-3461.9315L13571.7927,-3461.8857L13571.765,-3461.8399L13571.7593,-3461.8344L13571.7316,-3461.8376L13571.6791,-3461.8455L13571.6667,-3461.8459L13571.6571,-3461.8463L13571.6304,-3461.8415L13571.6056,-3461.8352L13571.583,-3461.8267L13571.5636,-3461.8194L13571.554,-3461.8143L13571.5502,-3461.7961L13571.5454,-3461.7378L13571.5368,-3461.7133L13571.5235,-3461.6983L13571.4844,-3461.6731L13571.4787,-3461.6667L13571.4691,-3461.6557L13571.4586,-3461.6328L13571.4385,-3461.5807L13571.4242,-3461.5602L13571.4108,-3461.5539L13571.3536,-3461.5349L13571.3393,-3461.5278L13571.3316,-3461.5156L13571.3327,-3461.502L13571.3364,-3461.4549L13571.3326,-3461.4288L13571.3268,-3461.4176L13571.3029,-3461.3704L13571.3029,-3461.3641L13571.3029,-3461.3562L13571.3163,-3461.3475L13571.3417,-3461.3385L13571.3631,-3461.3309L13571.3851,-3461.3199L13571.4061,-3461.3026L13571.4042,-3461.3023L13571.3877,-3461.3002L13571.3548,-3461.296L13571.3192,-3461.2915L13571.2686,-3461.2883L13571.2467,-3461.2797L13571.2381,-3461.2733L13571.2333,-3461.2592L13571.2333,-3461.2426L13571.2514,-3461.2047L13571.2648,-3461.1716L13571.2686,-3461.1518L13571.2667,-3461.1218L13571.2644,-3461.1165L13571.2591,-3461.1045L13571.2447,-3461.0871L13571.2391,-3461.0839L13571.2266,-3461.0769L13571.2085,-3461.0706L13571.1733,-3461.0583L13571.1722,-3461.0579L13571.1311,-3461.0429L13571.1216,-3461.0324L13571.1181,-3461.0286L13571.1029,-3461.0119L13570.9997,-3460.9761L13570.9896,-3460.9726L13570.9773,-3460.994L13570.9564,-3460.9922L13570.9384,-3460.9928L13570.9167,-3460.9907L13570.8727,-3460.9824L13570.8718,-3460.9825L13570.8518,-3460.9841L13570.8333,-3460.9862L13570.8301,-3460.9865L13570.7774,-3460.9895L13570.7544,-3460.9962L13570.7385,-3461.0009L13570.6923,-3461.0229L13570.6396,-3461.0534L13570.6122,-3461.0617L13570.5906,-3461.0763L13570.5711,-3461.0894L13570.5408,-3461.1002L13570.5201,-3461.1075L13570.5155,-3461.1091L13570.4931,-3461.1109L13570.4715,-3461.1103L13570.4479,-3461.1081L13570.426,-3461.1061L13570.3726,-3461.1056L13570.3164,-3461.1097L13570.3125,-3461.1105Z"/>
<path content="奈良県,,生駒郡,三郷町,,29343" xlink:title="奈良県" d="M13570.3125,-3461.1105L13570.3164,-3461.1097L13570.3726,-3461.1056L13570.426,-3461.1061L13570.4479,-3461.1081L13570.4715,-3461.1103L13570.4931,-3461.1109L13570.5155,-3461.1091L13570.5201,-3461.1075L13570.5408,-3461.1002L13570.5711,-3461.0894L13570.5906,-3461.0763L13570.6122,-3461.0617L13570.6396,-3461.0534L13570.6923,-3461.0229L13570.7385,-3461.0009L13570.7544,-3460.9962L13570.7774,-3460.9895L13570.8301,-3460.9865L13570.8333,-3460.9862L13570.8518,-3460.9841L13570.8718,-3460.9825L13570.8727,-3460.9824L13570.9167,-3460.9907L13570.9384,-3460.9928L13570.9564,-3460.9922L13570.9773,-3460.994L13570.9896,-3460.9726L13571.0148,-3460.9103L13570.9801,-3460.8984L13570.9848,-3460.8887L13570.964,-3460.8819L13570.9695,-3460.8681L13570.9381,-3460.859L13570.9456,-3460.8388L13570.9479,-3460.8333L13570.9609,-3460.8023L13570.9319,-3460.7919L13570.9279,-3460.8035L13570.8785,-3460.7858L13570.8845,-3460.7754L13570.9197,-3460.7882L13570.9268,-3460.7723L13570.969,-3460.786L13570.975,-3460.7714L13570.9865,-3460.7747L13570.9934,-3460.7627L13570.9831,-3460.76L13570.9944,-3460.7378L13570.985,-3460.7346L13570.9906,-3460.716L13570.9849,-3460.7144L13571.0489,-3460.5824L13571.02,-3460.5729L13571.0178,-3460.5658L13571.0118,-3460.538L13571.0109,-3460.5159L13571.043,-3460.5113L13571.0765,-3460.5006L13571.0897,-3460.496L13571.1157,-3460.4987L13571.1431,-3460.4948L13571.1743,-3460.4911L13571.1728,-3460.4739L13571.181,-3460.4735L13571.1938,-3460.4602L13571.2126,-3460.4274L13571.2126,-3460.4202L13571.201,-3460.4071L13571.144,-3460.4011L13571.1267,-3460.3916L13571.1173,-3460.3743L13571.0813,-3460.3492L13571.0796,-3460.3157L13571.0768,-3460.2908L13571.0779,-3460.2718L13571.0883,-3460.2552L13571.1066,-3460.2235L13571.1221,-3460.1979L13571.1325,-3460.1865L13571.1566,-3460.1666L13571.1595,-3460.1576L13571.1589,-3460.1481L13571.1557,-3460.132L13571.1471,-3460.0898L13571.1414,-3460.0589L13571.1385,-3460.0305L13571.1362,-3460.0115L13571.1357,-3460L13571.1354,-3459.9907L13571.1327,-3459.9815L13571.1274,-3459.9633L13571.1173,-3459.9484L13571.0986,-3459.9436L13571.0055,-3459.9365L13570.9575,-3459.9111L13570.9326,-3459.898L13570.9296,-3459.8964L13570.8723,-3459.9704L13570.8586,-3459.9897L13570.8514,-3460L13570.8436,-3460.011L13570.8333,-3460.0256L13570.8304,-3460.0298L13570.8247,-3460.0379L13570.8239,-3460.0391L13570.8228,-3460.0402L13570.8102,-3460.0527L13570.7973,-3460.0622L13570.7952,-3460.0629L13570.7516,-3460.0769L13570.7059,-3460.0848L13570.62,-3460.0865L13570.5586,-3460.0868L13570.5109,-3460.0873L13570.4616,-3460.0885L13570.3451,-3460.0913L13570.3125,-3460.092Z"/>
<path content="奈良県,,生駒郡,斑鳩町,,29344" xlink:title="奈良県" d="M13573.7745,-3462.8906L13573.7779,-3462.8794L13573.7829,-3462.8735L13573.8068,-3462.8687L13573.8274,-3462.8668L13573.9641,-3462.8544L13574.0037,-3462.8502L13574.0261,-3462.8508L13574.0882,-3462.8472L13574.1077,-3462.8419L13574.1141,-3462.8385L13574.1307,-3462.8297L13574.1452,-3462.8326L13574.1667,-3462.8277L13574.2264,-3462.8138L13574.2556,-3462.807L13574.2779,-3462.7998L13574.2881,-3462.7933L13574.2989,-3462.7736L13574.3068,-3462.7563L13574.3169,-3462.7467L13574.327,-3462.7271L13574.3335,-3462.708L13574.3609,-3462.6662L13574.3783,-3462.6453L13574.41,-3462.6185L13574.4418,-3462.6069L13574.4627,-3462.6033L13574.5139,-3462.5812L13574.5608,-3462.5765L13574.6012,-3462.5759L13574.6229,-3462.5777L13574.6532,-3462.583L13574.6741,-3462.5848L13574.6885,-3462.5824L13574.707,-3462.5758L13574.707,-3460.6763L13574.7012,-3460.6646L13574.6896,-3460.6359L13574.6856,-3460.6166L13574.6794,-3460.5869L13574.6791,-3460.5645L13574.6787,-3460.5139L13574.6787,-3460.4569L13574.6664,-3460.3972L13574.6507,-3460.3774L13574.6316,-3460.3459L13574.6146,-3460.329L13574.5648,-3460.2926L13574.5153,-3460.2624L13574.5075,-3460.2577L13574.4932,-3460.2481L13574.4543,-3460.2052L13574.4452,-3460.2111L13574.4187,-3460.2283L13574.3786,-3460.2543L13574.3527,-3460.2588L13574.3145,-3460.2571L13574.3145,-3460.2334L13574.2389,-3460.23L13574.2259,-3460.2289L13574.2259,-3460.2221L13574.2307,-3460.2069L13574.2299,-3460.1915L13574.2279,-3460.1548L13574.2259,-3460.0821L13574.1916,-3460.0866L13574.1779,-3460.0883L13574.1721,-3460.0891L13574.1667,-3460.0898L13574.1602,-3460.0907L13574.1541,-3460.0915L13574.1311,-3460.0945L13574.1228,-3460.0509L13574.1214,-3460.0432L13574.1191,-3460.0313L13574.1175,-3460.0229L13574.1156,-3460.0126L13574.1139,-3460.0041L13574.1132,-3460L13574.1004,-3459.933L13574.0965,-3459.9021L13574.0949,-3459.8894L13574.0936,-3459.879L13574.0888,-3459.8417L13574.0089,-3459.8475L13573.9961,-3459.8484L13573.9907,-3459.7191L13574.0773,-3459.7196L13574.0873,-3459.731L13574.0895,-3459.7335L13574.1011,-3459.7467L13574.1667,-3459.7462L13574.1741,-3459.7461L13574.245,-3459.7399L13574.2578,-3459.7374L13574.2709,-3459.7349L13574.2842,-3459.7339L13574.2968,-3459.7329L13574.2967,-3459.7325L13574.2805,-3459.6771L13574.2853,-3459.6528L13574.2845,-3459.6457L13574.2843,-3459.6434L13574.2839,-3459.6393L13574.2655,-3459.595L13574.2436,-3459.5426L13574.221,-3459.4869L13574.2123,-3459.4654L13574.2109,-3459.462L13574.1877,-3459.4028L13574.1809,-3459.3809L13574.1742,-3459.3697L13574.1714,-3459.3651L13574.1713,-3459.3647L13574.169,-3459.3589L13574.1667,-3459.3526L13574.1646,-3459.3471L13574.1537,-3459.3182L13574.1318,-3459.32L13574.1147,-3459.3193L13574.0947,-3459.3185L13574.0889,-3459.3183L13574.0486,-3459.3141L13574.0173,-3459.309L13573.9886,-3459.3011L13573.8897,-3459.2678L13573.8365,-3459.2425L13573.7888,-3459.2272L13573.7152,-3459.2129L13573.6306,-3459.1976L13573.5932,-3459.1902L13573.5113,-3459.174L13573.4602,-3459.1667L13573.3831,-3459.1556L13573.3433,-3459.1505L13573.3333,-3459.1492L13573.2651,-3459.1404L13573.1908,-3459.1342L13573.0673,-3459.1244L13573.0073,-3459.1221L13572.9814,-3459.1187L13572.9718,-3459.1164L13572.9385,-3459.1086L13572.8266,-3459.086L13572.7496,-3459.0745L13572.7312,-3459.0722L13572.6861,-3459.0666L13572.6425,-3459.066L13572.6043,-3459.0705L13572.5784,-3459.0768L13572.5648,-3459.0801L13572.5553,-3459.0824L13572.5,-3459.0974L13572.4973,-3459.0981L13572.4345,-3459.1257L13572.4159,-3459.1391L13572.4093,-3459.1438L13572.4011,-3459.1497L13572.38,-3459.1667L13572.3745,-3459.1711L13572.3582,-3459.1914L13572.3425,-3459.2303L13572.3399,-3459.2412L13572.3198,-3459.3262L13572.3179,-3459.3343L13572.3144,-3459.3561L13572.3131,-3459.3642L13572.3124,-3459.3804L13572.3121,-3459.3858L13572.3111,-3459.4076L13572.3101,-3459.4126L13572.2975,-3459.4724L13572.2866,-3459.5079L13572.2524,-3459.5434L13572.2231,-3459.5626L13572.1952,-3459.575L13572.1672,-3459.5806L13572.1311,-3459.5868L13572.1265,-3459.5867L13572.1099,-3459.5862L13572.0888,-3459.5823L13572.0704,-3459.5744L13572.0281,-3459.5623L13571.9681,-3459.5431L13571.9476,-3459.5347L13571.9122,-3459.5245L13571.8487,-3459.5037L13571.831,-3459.4952L13571.8004,-3459.4873L13571.7845,-3459.4852L13571.7792,-3459.4846L13571.7574,-3459.4817L13571.6974,-3459.4803L13571.6667,-3459.4803L13571.6599,-3459.4803L13571.6165,-3459.4826L13571.5964,-3459.4837L13571.5962,-3459.4837L13571.5713,-3459.4878L13571.4942,-3459.5006L13571.4328,-3459.5158L13571.3619,-3459.5403L13571.3033,-3459.5685L13571.1989,-3459.6305L13571.1512,-3459.6643L13571.1116,-3459.6964L13571.0557,-3459.7446L13571.0271,-3459.7796L13570.9724,-3459.8417L13570.9527,-3459.8641L13570.9414,-3459.8801L13570.9323,-3459.8929L13570.9296,-3459.8964L13570.9326,-3459.898L13570.9575,-3459.9111L13571.0055,-3459.9365L13571.0986,-3459.9436L13571.1173,-3459.9484L13571.1274,-3459.9633L13571.1327,-3459.9815L13571.1354,-3459.9907L13571.1357,-3460L13571.1362,-3460.0115L13571.1385,-3460.0305L13571.1414,-3460.0589L13571.1471,-3460.0898L13571.1557,-3460.132L13571.1589,-3460.1481L13571.1595,-3460.1576L13571.1566,-3460.1666L13571.1325,-3460.1865L13571.1221,-3460.1979L13571.1066,-3460.2235L13571.0883,-3460.2552L13571.0779,-3460.2718L13571.0768,-3460.2908L13571.0796,-3460.3157L13571.0813,-3460.3492L13571.1173,-3460.3743L13571.1267,-3460.3916L13571.144,-3460.4011L13571.201,-3460.4071L13571.2126,-3460.4202L13571.2126,-3460.4274L13571.1938,-3460.4602L13571.181,-3460.4735L13571.1728,-3460.4739L13571.1743,-3460.4911L13571.1431,-3460.4948L13571.1157,-3460.4987L13571.0897,-3460.496L13571.0765,-3460.5006L13571.043,-3460.5113L13571.0109,-3460.5159L13571.0118,-3460.538L13571.0178,-3460.5658L13571.02,-3460.5729L13571.0489,-3460.5824L13570.9849,-3460.7144L13570.9906,-3460.716L13570.985,-3460.7346L13570.9944,-3460.7378L13570.9831,-3460.76L13570.9934,-3460.7627L13570.9865,-3460.7747L13570.975,-3460.7714L13570.969,-3460.786L13570.9268,-3460.7723L13570.9197,-3460.7882L13570.8845,-3460.7754L13570.8785,-3460.7858L13570.9279,-3460.8035L13570.9319,-3460.7919L13570.9609,-3460.8023L13570.9479,-3460.8333L13570.9456,-3460.8388L13570.9381,-3460.859L13570.9695,-3460.8681L13570.964,-3460.8819L13570.9848,-3460.8887L13570.9801,-3460.8984L13571.0148,-3460.9103L13570.9896,-3460.9726L13570.9997,-3460.9761L13571.1029,-3461.0119L13571.1181,-3461.0286L13571.1216,-3461.0324L13571.1311,-3461.0429L13571.1722,-3461.0579L13571.1733,-3461.0583L13571.2085,-3461.0706L13571.2266,-3461.0769L13571.2391,-3461.0839L13571.2447,-3461.0871L13571.2591,-3461.1045L13571.2644,-3461.1165L13571.2667,-3461.1218L13571.2686,-3461.1518L13571.2648,-3461.1716L13571.2514,-3461.2047L13571.2333,-3461.2426L13571.2333,-3461.2592L13571.2381,-3461.2733L13571.2467,-3461.2797L13571.2686,-3461.2883L13571.3192,-3461.2915L13571.3548,-3461.296L13571.3877,-3461.3002L13571.4042,-3461.3023L13571.4061,-3461.3026L13571.3851,-3461.3199L13571.3631,-3461.3309L13571.3417,-3461.3385L13571.3163,-3461.3475L13571.3029,-3461.3562L13571.3029,-3461.3641L13571.3029,-3461.3704L13571.3268,-3461.4176L13571.3326,-3461.4288L13571.3364,-3461.4549L13571.3327,-3461.502L13571.3316,-3461.5156L13571.3393,-3461.5278L13571.3536,-3461.5349L13571.4108,-3461.5539L13571.4242,-3461.5602L13571.4385,-3461.5807L13571.4586,-3461.6328L13571.4691,-3461.6557L13571.4787,-3461.6667L13571.4844,-3461.6731L13571.5235,-3461.6983L13571.5368,-3461.7133L13571.5454,-3461.7378L13571.5502,-3461.7961L13571.554,-3461.8143L13571.5636,-3461.8194L13571.583,-3461.8267L13571.6056,-3461.8352L13571.6304,-3461.8415L13571.6571,-3461.8463L13571.6667,-3461.8459L13571.6791,-3461.8455L13571.7316,-3461.8376L13571.7593,-3461.8344L13571.765,-3461.8399L13571.7927,-3461.8857L13571.8013,-3461.9315L13571.8099,-3461.9717L13571.8204,-3461.9978L13571.8348,-3462.0164L13571.8443,-3462.0286L13571.8605,-3462.0388L13571.8748,-3462.0641L13571.8777,-3462.0791L13571.8729,-3462.1019L13571.8662,-3462.1225L13571.8395,-3462.2018L13571.8261,-3462.2365L13571.8261,-3462.2491L13571.8299,-3462.2633L13571.8471,-3462.287L13571.8596,-3462.3154L13571.8691,-3462.3699L13571.8767,-3462.4006L13571.8662,-3462.4291L13571.8643,-3462.4436L13571.8681,-3462.4563L13571.8786,-3462.4697L13571.9044,-3462.4792L13571.9483,-3462.4949L13571.9628,-3462.5L13571.9979,-3462.5123L13572.0075,-3462.5226L13572.0124,-3462.5376L13572.019,-3462.5581L13572.0276,-3462.5802L13572.0352,-3462.5904L13572.0524,-3462.6015L13572.0696,-3462.6102L13572.0829,-3462.6236L13572.0973,-3462.6544L13572.1144,-3462.7009L13572.1144,-3462.7191L13572.1106,-3462.7297L13572.0877,-3462.7542L13572.0587,-3462.7816L13572.0543,-3462.7857L13572.0027,-3462.8307L13571.9436,-3462.8828L13571.9387,-3462.8885L13571.9369,-3462.8906Z"/>
<path content="奈良県,,生駒郡,安堵町,,29345" xlink:title="奈良県" d="M13574.707,-3459.2918L13574.6923,-3459.2893L13574.6535,-3459.2841L13574.6208,-3459.2797L13574.5185,-3459.2791L13574.4714,-3459.2825L13574.4526,-3459.2852L13574.3773,-3459.2958L13574.3216,-3459.3018L13574.2284,-3459.3118L13574.2102,-3459.3138L13574.1667,-3459.3172L13574.1537,-3459.3182L13574.1646,-3459.3471L13574.1667,-3459.3526L13574.169,-3459.3589L13574.1713,-3459.3647L13574.1714,-3459.3651L13574.1742,-3459.3697L13574.1809,-3459.3809L13574.1877,-3459.4028L13574.2109,-3459.462L13574.2123,-3459.4654L13574.221,-3459.4869L13574.2436,-3459.5426L13574.2655,-3459.595L13574.2839,-3459.6393L13574.2843,-3459.6434L13574.2845,-3459.6457L13574.2853,-3459.6528L13574.2805,-3459.6771L13574.2967,-3459.7325L13574.2968,-3459.7329L13574.2842,-3459.7339L13574.2709,-3459.7349L13574.2578,-3459.7374L13574.245,-3459.7399L13574.1741,-3459.7461L13574.1667,-3459.7462L13574.1011,-3459.7467L13574.0895,-3459.7335L13574.0873,-3459.731L13574.0773,-3459.7196L13573.9907,-3459.7191L13573.9961,-3459.8484L13574.0089,-3459.8475L13574.0888,-3459.8417L13574.0936,-3459.879L13574.0949,-3459.8894L13574.0965,-3459.9021L13574.1004,-3459.933L13574.1132,-3460L13574.1139,-3460.0041L13574.1156,-3460.0126L13574.1175,-3460.0229L13574.1191,-3460.0313L13574.1214,-3460.0432L13574.1228,-3460.0509L13574.1311,-3460.0945L13574.1541,-3460.0915L13574.1602,-3460.0907L13574.1667,-3460.0898L13574.1721,-3460.0891L13574.1779,-3460.0883L13574.1916,-3460.0866L13574.2259,-3460.0821L13574.2279,-3460.1548L13574.2299,-3460.1915L13574.2307,-3460.2069L13574.2259,-3460.2221L13574.2259,-3460.2289L13574.2389,-3460.23L13574.3145,-3460.2334L13574.3145,-3460.2571L13574.3527,-3460.2588L13574.3786,-3460.2543L13574.4187,-3460.2283L13574.4452,-3460.2111L13574.4543,-3460.2052L13574.4932,-3460.2481L13574.5075,-3460.2577L13574.5153,-3460.2624L13574.5648,-3460.2926L13574.6146,-3460.329L13574.6316,-3460.3459L13574.6507,-3460.3774L13574.6664,-3460.3972L13574.6787,-3460.4569L13574.6787,-3460.5139L13574.6791,-3460.5645L13574.6794,-3460.5869L13574.6856,-3460.6166L13574.6896,-3460.6359L13574.7012,-3460.6646L13574.707,-3460.6763Z"/>
<path content="奈良県,,北葛城郡,王寺町,,29425" xlink:title="奈良県" d="M13571.6062,-3459.081L13571.5963,-3459.054L13571.5926,-3459.0339L13571.5833,-3459.0348L13571.5539,-3459.0377L13571.4894,-3459.0408L13571.4454,-3459.0415L13571.4264,-3459.044L13571.3756,-3459.0622L13571.3634,-3459.0666L13571.3445,-3459.0099L13571.3437,-3459.0073L13571.3418,-3459.0017L13571.3393,-3458.9943L13571.3325,-3458.978L13571.3242,-3458.9736L13571.3158,-3458.9755L13571.2984,-3458.9792L13571.2839,-3458.9874L13571.2748,-3458.9855L13571.2657,-3458.9805L13571.246,-3458.9611L13571.2377,-3458.9466L13571.2271,-3458.9291L13571.2187,-3458.9247L13571.2115,-3458.9281L13571.2096,-3458.9291L13571.1959,-3458.951L13571.1891,-3458.9661L13571.1884,-3458.9874L13571.1838,-3459.0062L13571.1664,-3459.0256L13571.1421,-3459.0413L13571.1133,-3459.0664L13571.0996,-3459.0623L13571.0931,-3459.0511L13571.0897,-3459.0454L13571.0844,-3459.0109L13571.0821,-3458.9902L13571.0867,-3458.9664L13571.0829,-3458.9375L13571.0791,-3458.9175L13571.0632,-3458.883L13571.0306,-3458.8711L13570.9828,-3458.8673L13570.9707,-3458.8659L13570.9621,-3458.8648L13570.9541,-3458.8639L13570.9464,-3458.8629L13570.9426,-3458.8303L13570.926,-3458.7648L13570.9168,-3458.7284L13570.9024,-3458.66L13570.9002,-3458.6576L13570.8974,-3458.6543L13570.8949,-3458.6127L13570.8955,-3458.6036L13570.8961,-3458.594L13570.8971,-3458.5781L13570.9029,-3458.553L13570.918,-3458.5101L13570.9227,-3458.4961L13570.3125,-3458.4961L13570.3125,-3460.092L13570.3451,-3460.0913L13570.4616,-3460.0885L13570.5109,-3460.0873L13570.5586,-3460.0868L13570.62,-3460.0865L13570.7059,-3460.0848L13570.7516,-3460.0769L13570.7952,-3460.0629L13570.7973,-3460.0622L13570.8102,-3460.0527L13570.8228,-3460.0402L13570.8239,-3460.0391L13570.8247,-3460.0379L13570.8304,-3460.0298L13570.8333,-3460.0256L13570.8436,-3460.011L13570.8514,-3460L13570.8586,-3459.9897L13570.8723,-3459.9704L13570.9296,-3459.8964L13570.9323,-3459.8929L13570.9414,-3459.8801L13570.9527,-3459.8641L13570.9724,-3459.8417L13571.0271,-3459.7796L13571.0557,-3459.7446L13571.1116,-3459.6964L13571.1512,-3459.6643L13571.1989,-3459.6305L13571.3033,-3459.5685L13571.3619,-3459.5403L13571.4328,-3459.5158L13571.4942,-3459.5006L13571.5713,-3459.4878L13571.5719,-3459.4663L13571.572,-3459.4632L13571.5667,-3459.4519L13571.5709,-3459.4275L13571.5736,-3459.4118L13571.5736,-3459.4116L13571.5743,-3459.3948L13571.5667,-3459.3792L13571.5516,-3459.3578L13571.5447,-3459.3403L13571.5402,-3459.3096L13571.5409,-3459.2832L13571.5442,-3459.2634L13571.5493,-3459.2318L13571.5584,-3459.2171L13571.5728,-3459.2026L13571.591,-3459.1914L13571.6005,-3459.1868L13571.6221,-3459.1763L13571.6309,-3459.1667L13571.6335,-3459.1638L13571.6426,-3459.15L13571.6426,-3459.1349L13571.6343,-3459.1174L13571.6161,-3459.0973L13571.6062,-3459.081Z"/>
<path content="奈良県,,北葛城郡,河合町,,29427" xlink:title="奈良県" d="M13572.2866,-3459.5079L13572.2975,-3459.4724L13572.3101,-3459.4126L13572.3111,-3459.4076L13572.3121,-3459.3858L13572.3124,-3459.3804L13572.3131,-3459.3642L13572.3144,-3459.3561L13572.3179,-3459.3343L13572.3198,-3459.3262L13572.3399,-3459.2412L13572.3425,-3459.2303L13572.3582,-3459.1914L13572.3745,-3459.1711L13572.38,-3459.1667L13572.4011,-3459.1497L13572.4093,-3459.1438L13572.4159,-3459.1391L13572.4345,-3459.1257L13572.4973,-3459.0981L13572.5,-3459.0974L13572.5553,-3459.0824L13572.5648,-3459.0801L13572.5784,-3459.0768L13572.6043,-3459.0705L13572.6425,-3459.066L13572.6861,-3459.0666L13572.7312,-3459.0722L13572.7496,-3459.0745L13572.8266,-3459.086L13572.9385,-3459.1086L13572.9718,-3459.1164L13572.9814,-3459.1187L13573.0073,-3459.1221L13573.0673,-3459.1244L13573.1908,-3459.1342L13573.2651,-3459.1404L13573.3333,-3459.1492L13573.3433,-3459.1505L13573.3831,-3459.1556L13573.4602,-3459.1667L13573.5113,-3459.174L13573.5932,-3459.1902L13573.6306,-3459.1976L13573.7152,-3459.2129L13573.7888,-3459.2272L13573.8365,-3459.2425L13573.8897,-3459.2678L13573.9886,-3459.3011L13574.0173,-3459.309L13574.0486,-3459.3141L13574.0889,-3459.3183L13574.0947,-3459.3185L13574.1147,-3459.3193L13574.1318,-3459.32L13574.1537,-3459.3182L13574.1667,-3459.3172L13574.2102,-3459.3138L13574.2284,-3459.3118L13574.3216,-3459.3018L13574.3773,-3459.2958L13574.4526,-3459.2852L13574.4714,-3459.2825L13574.5185,-3459.2791L13574.6208,-3459.2797L13574.6535,-3459.2841L13574.6923,-3459.2893L13574.707,-3459.2918L13574.707,-3458.4961L13570.9227,-3458.4961L13570.918,-3458.5101L13570.9029,-3458.553L13570.8971,-3458.5781L13570.8961,-3458.594L13570.8955,-3458.6036L13570.8949,-3458.6127L13570.8974,-3458.6543L13570.9002,-3458.6576L13570.9024,-3458.66L13570.9168,-3458.7284L13570.926,-3458.7648L13570.9426,-3458.8303L13570.9464,-3458.8629L13570.9541,-3458.8639L13570.9621,-3458.8648L13570.9707,-3458.8659L13570.9828,-3458.8673L13571.0306,-3458.8711L13571.0632,-3458.883L13571.0791,-3458.9175L13571.0829,-3458.9375L13571.0867,-3458.9664L13571.0821,-3458.9902L13571.0844,-3459.0109L13571.0897,-3459.0454L13571.0931,-3459.0511L13571.0996,-3459.0623L13571.1133,-3459.0664L13571.1421,-3459.0413L13571.1664,-3459.0256L13571.1838,-3459.0062L13571.1884,-3458.9874L13571.1891,-3458.9661L13571.1959,-3458.951L13571.2096,-3458.9291L13571.2115,-3458.9281L13571.2187,-3458.9247L13571.2271,-3458.9291L13571.2377,-3458.9466L13571.246,-3458.9611L13571.2657,-3458.9805L13571.2748,-3458.9855L13571.2839,-3458.9874L13571.2984,-3458.9792L13571.3158,-3458.9755L13571.3242,-3458.9736L13571.3325,-3458.978L13571.3393,-3458.9943L13571.3418,-3459.0017L13571.3437,-3459.0073L13571.3445,-3459.0099L13571.3634,-3459.0666L13571.3756,-3459.0622L13571.4264,-3459.044L13571.4454,-3459.0415L13571.4894,-3459.0408L13571.5539,-3459.0377L13571.5833,-3459.0348L13571.5926,-3459.0339L13571.5963,-3459.054L13571.6062,-3459.081L13571.6161,-3459.0973L13571.6343,-3459.1174L13571.6426,-3459.1349L13571.6426,-3459.15L13571.6335,-3459.1638L13571.6309,-3459.1667L13571.6221,-3459.1763L13571.6005,-3459.1868L13571.591,-3459.1914L13571.5728,-3459.2026L13571.5584,-3459.2171L13571.5493,-3459.2318L13571.5442,-3459.2634L13571.5409,-3459.2832L13571.5402,-3459.3096L13571.5447,-3459.3403L13571.5516,-3459.3578L13571.5667,-3459.3792L13571.5743,-3459.3948L13571.5736,-3459.4116L13571.5736,-3459.4118L13571.5709,-3459.4275L13571.5667,-3459.4519L13571.572,-3459.4632L13571.5719,-3459.4663L13571.5713,-3459.4878L13571.5962,-3459.4837L13571.5964,-3459.4837L13571.6165,-3459.4826L13571.6599,-3459.4803L13571.6667,-3459.4803L13571.6974,-3459.4803L13571.7574,-3459.4817L13571.7792,-3459.4846L13571.7845,-3459.4852L13571.8004,-3459.4873L13571.831,-3459.4952L13571.8487,-3459.5037L13571.9122,-3459.5245L13571.9476,-3459.5347L13571.9681,-3459.5431L13572.0281,-3459.5623L13572.0704,-3459.5744L13572.0888,-3459.5823L13572.1099,-3459.5862L13572.1265,-3459.5867L13572.1311,-3459.5868L13572.1672,-3459.5806L13572.1952,-3459.575L13572.2231,-3459.5626L13572.2524,-3459.5434L13572.2866,-3459.5079Z"/>
</g>
</svg>
