<?xml version="1.0" encoding="UTF-8"?>
<svg  xmlns="http://www.w3.org/2000/svg" xmlns:xlink="http://www.w3.org/1999/xlink" xmlns:go="http://purl.org/svgmap/profile" property="geometry,N03_001,N03_002,N03_003,N03_004,N03_005,N03_007" viewBox="13579.1015625 -3524.4140625 8.7890625 8.7890625" go:dataArea="13579.1015625 -3524.4140625 8.7890625 8.7890625" >
<metadata>
 <rdf:RDF xmlns:rdf="http://www.w3.org/1999/02/22-rdf-syntax-ns#" xmlns:crs="http://opengis.org/xmldtds/transformations.dtd" xmlns:svg="http://www.w3.org/svg" >
  <rdf:Description>
   <crs:CoordinateReferenceSystem rdf:resource="http://purl.org/crs/84" svg:transform="matrix(100.0,0.0,0.0,-100.0,0.0,0.0)" />
  </rdf:Description>
 </rdf:RDF>
</metadata>
<globalCoordinateSystem srsName="http://purl.org/crs/84" transform="matrix(100.0,0.0,0.0,-100.0,0.0,0.0)" />
<defs>
 <g id="p0" >
  <circle cx="0.0" cy="0.0" r="3" stroke="green" stroke-width="2.0" vector-effect="non-scaling-stroke" />
 </g>
</defs>
<g fill="#0000ff" fill-rule="evenodd" opacity="0.5" >
<path content="滋賀県,,,大津市,,25201" xlink:title="滋賀県" d="M13587.8906,-3524.4141L13587.8906,-3515.625L13585.6687,-3515.625L13585.67,-3515.6284L13585.6854,-3515.684L13585.6861,-3515.6972L13585.6803,-3515.712L13585.6655,-3515.7268L13585.6334,-3515.7584L13585.6257,-3515.7891L13585.6127,-3515.8268L13585.6113,-3515.8333L13585.607,-3515.8521L13585.6134,-3515.9054L13585.6153,-3515.9437L13585.6089,-3515.9564L13585.5812,-3515.9712L13585.4707,-3515.997L13585.4519,-3516.004L13585.4459,-3516.0046L13585.3324,-3516.0156L13585.2965,-3516.0184L13585.1863,-3516.0267L13585.079,-3516.0278L13585.0565,-3516.0304L13585.0282,-3516.0336L13585,-3516.0489L13584.9784,-3516.0606L13584.968,-3516.068L13584.9335,-3516.087L13584.8922,-3516.1066L13584.8371,-3516.1328L13584.7696,-3516.1793L13584.6993,-3516.226L13584.6813,-3516.2387L13584.6633,-3516.264L13584.66,-3516.2799L13584.6664,-3516.3132L13584.6639,-3516.3598L13584.6594,-3516.3973L13584.6516,-3516.4152L13584.6276,-3516.4354L13584.6009,-3516.4579L13584.5596,-3516.5047L13584.5391,-3516.5358L13584.5313,-3516.5544L13584.5294,-3516.5682L13584.5326,-3516.5829L13584.5474,-3516.6152L13584.5722,-3516.6667L13584.5731,-3516.6687L13584.5757,-3516.6877L13584.5731,-3516.6956L13584.5628,-3516.7099L13584.5243,-3516.7383L13584.4998,-3516.7654L13584.476,-3516.8008L13584.4669,-3516.8226L13584.4502,-3516.8416L13584.4341,-3516.8606L13584.4174,-3516.8765L13584.4097,-3516.8876L13584.4078,-3516.8965L13584.4091,-3516.9118L13584.4206,-3516.94L13584.4194,-3516.9542L13584.4165,-3516.9874L13584.4142,-3516.9932L13584.4025,-3517.0071L13584.3875,-3517.0284L13584.3807,-3517.0464L13584.3783,-3517.0683L13584.3801,-3517.0922L13584.399,-3517.1709L13584.3996,-3517.1879L13584.3977,-3517.1993L13584.3838,-3517.2267L13584.3486,-3517.2686L13584.2928,-3517.3259L13584.2539,-3517.3529L13584.2436,-3517.3634L13584.2387,-3517.3753L13584.2363,-3517.3908L13584.2405,-3517.4291L13584.2545,-3517.486L13584.2598,-3517.5L13584.2636,-3517.5099L13584.2788,-3517.5428L13584.3091,-3517.6131L13584.3169,-3517.6555L13584.3156,-3517.6615L13584.3136,-3517.6709L13584.2972,-3517.7085L13584.2726,-3517.7477L13584.2661,-3517.7658L13584.2661,-3517.7833L13584.271,-3517.7973L13584.286,-3517.8125L13584.3062,-3517.8329L13584.3349,-3517.8634L13584.3349,-3517.8701L13584.3292,-3517.8781L13584.3136,-3517.8889L13584.2604,-3517.907L13584.1801,-3517.9299L13584.1667,-3517.934L13584.1375,-3517.9427L13584.1113,-3517.9562L13584.0917,-3517.973L13584.063,-3518.0066L13584.0581,-3518.0247L13584.0573,-3518.0617L13584.0639,-3518.094L13584.063,-3518.1161L13584.0549,-3518.1316L13584.0254,-3518.1733L13584.0213,-3518.1914L13584.0213,-3518.2096L13584.0246,-3518.223L13584.0589,-3518.2971L13584.075,-3518.3333L13584.0786,-3518.3414L13584.1015,-3518.4014L13584.104,-3518.4249L13584.1015,-3518.4518L13584.0974,-3518.4875L13584.0844,-3518.5433L13584.0837,-3518.5473L13584.0794,-3518.5749L13584.0794,-3518.5924L13584.0876,-3518.6179L13584.1007,-3518.6555L13584.1171,-3518.6866L13584.1367,-3518.7068L13584.1667,-3518.7253L13584.1769,-3518.7316L13584.2269,-3518.758L13584.2334,-3518.7654L13584.2341,-3518.7743L13584.2344,-3518.778L13584.2324,-3518.7815L13584.2211,-3518.8016L13584.2113,-3518.8743L13584.2007,-3518.9253L13584.1908,-3518.984L13584.1802,-3519.0142L13584.1704,-3519.0323L13584.1667,-3519.0355L13584.1466,-3519.0525L13584.1123,-3519.0686L13584.0459,-3519.0962L13584.0189,-3519.1083L13583.996,-3519.1278L13583.9821,-3519.1439L13583.9732,-3519.1667L13583.9591,-3519.2031L13583.9377,-3519.2617L13583.9164,-3519.3007L13583.896,-3519.3276L13583.8894,-3519.3471L13583.8821,-3519.4016L13583.8779,-3519.4117L13583.8583,-3519.4338L13583.8133,-3519.4924L13583.7977,-3519.5428L13583.7841,-3519.5595L13583.7732,-3519.573L13583.7437,-3519.6034L13583.733,-3519.6262L13583.7306,-3519.6463L13583.7338,-3519.6741L13583.7297,-3519.6835L13583.7207,-3519.6989L13583.7134,-3519.7164L13583.7117,-3519.7352L13583.7199,-3519.8033L13583.7125,-3519.8321L13583.697,-3519.8832L13583.6937,-3519.9022L13583.6937,-3519.9149L13583.7019,-3519.9478L13583.701,-3519.9599L13583.6969,-3519.976L13583.6855,-3519.9881L13583.6658,-3520L13583.6518,-3520.0084L13583.6224,-3520.0313L13583.6002,-3520.0535L13583.5708,-3520.0945L13583.5609,-3520.1119L13583.5552,-3520.1267L13583.5454,-3520.1808L13583.5388,-3520.1941L13583.5241,-3520.221L13583.5241,-3520.2298L13583.529,-3520.2405L13583.5601,-3520.2721L13583.5904,-3520.3153L13583.5994,-3520.3293L13583.6002,-3520.3414L13583.5904,-3520.3716L13583.5884,-3520.3753L13583.5584,-3520.4316L13583.5535,-3520.4732L13583.5412,-3520.5264L13583.5437,-3520.5412L13583.5625,-3520.6057L13583.5633,-3520.6328L13583.5601,-3520.6509L13583.5494,-3520.6697L13583.5019,-3520.7328L13583.4513,-3520.8026L13583.4462,-3520.8096L13583.4264,-3520.8333L13583.3963,-3520.8694L13583.3748,-3520.8918L13583.3585,-3520.9046L13583.3333,-3520.9166L13583.3036,-3520.9309L13583.2708,-3520.953L13583.2044,-3520.9961L13583.1701,-3521.0155L13583.1308,-3521.031L13583.1087,-3521.0417L13583.1046,-3521.0504L13583.1046,-3521.0619L13583.1267,-3521.1063L13583.1341,-3521.1209L13583.166,-3521.2033L13583.1766,-3521.2429L13583.1971,-3521.2979L13583.2085,-3521.3221L13583.2495,-3521.3916L13583.2568,-3521.4138L13583.2544,-3521.4245L13583.2478,-3521.4279L13583.1382,-3521.4675L13583.0791,-3521.4865L13583.0554,-3521.5026L13583.0465,-3521.5109L13583.038,-3521.5188L13583.0267,-3521.5294L13582.9964,-3521.5778L13582.9816,-3521.613L13582.9783,-3521.6371L13582.9799,-3521.664L13582.9805,-3521.6667L13582.9865,-3521.6956L13582.9914,-3521.7172L13582.9988,-3521.7333L13583.0094,-3521.7474L13583.052,-3521.7817L13583.0651,-3521.7978L13583.0749,-3521.8226L13583.0749,-3521.8408L13583.0733,-3521.8461L13583.0692,-3521.8596L13583.0479,-3521.9002L13583.016,-3521.9324L13582.9783,-3521.9655L13582.9578,-3521.9802L13582.9382,-3521.9997L13582.9308,-3522.0151L13582.9308,-3522.0346L13582.9324,-3522.0481L13582.948,-3522.0791L13582.9751,-3522.1114L13582.9775,-3522.1201L13582.9816,-3522.1551L13582.9906,-3522.1705L13583.0151,-3522.2074L13583.0668,-3522.2667L13583.0799,-3522.2748L13583.0864,-3522.2761L13583.1151,-3522.2661L13583.1437,-3522.2614L13583.1707,-3522.2627L13583.1871,-3522.2667L13583.2183,-3522.2876L13583.2355,-3522.3078L13583.2608,-3522.3461L13583.2714,-3522.3548L13583.2984,-3522.3662L13583.3333,-3522.3749L13583.3993,-3522.3912L13583.4476,-3522.396L13583.4648,-3522.4L13583.4844,-3522.4128L13583.4929,-3522.4194L13583.5474,-3522.4624L13583.6028,-3522.5L13583.6507,-3522.5325L13583.7163,-3522.5836L13583.7352,-3522.5957L13583.7581,-3522.6017L13583.8007,-3522.6071L13583.8056,-3522.6105L13583.8032,-3522.6253L13583.7688,-3522.6864L13583.7622,-3522.7107L13583.7639,-3522.7315L13583.7671,-3522.7879L13583.7614,-3522.8358L13583.7679,-3522.866L13583.7729,-3522.8929L13583.7606,-3522.9724L13583.7573,-3523.016L13583.7516,-3523.0362L13583.7328,-3523.0523L13583.7253,-3523.0653L13583.7196,-3523.1015L13583.7073,-3523.1344L13583.6967,-3523.1548L13583.695,-3523.1662L13583.6953,-3523.1673L13583.6967,-3523.1736L13583.7114,-3523.1978L13583.7131,-3523.2092L13583.7057,-3523.2461L13583.7081,-3523.2764L13583.7196,-3523.3047L13583.7344,-3523.3333L13583.7425,-3523.349L13583.7491,-3523.3732L13583.7466,-3523.3866L13583.7303,-3523.4184L13583.7311,-3523.4258L13583.736,-3523.4358L13583.7638,-3523.4654L13583.7884,-3523.5105L13583.7925,-3523.528L13583.7917,-3523.5528L13583.7876,-3523.6153L13583.7769,-3523.6788L13583.7688,-3523.7204L13583.7592,-3523.7416L13583.7532,-3523.7547L13583.7172,-3523.8106L13583.6934,-3523.8482L13583.6656,-3523.8954L13583.6557,-3523.9054L13583.6083,-3523.9249L13583.5558,-3523.9431L13583.5345,-3523.9546L13583.5306,-3523.9576L13583.5223,-3523.964L13583.5149,-3523.9774L13583.51,-3524.0163L13583.5026,-3524.0291L13583.4723,-3524.0546L13583.4551,-3524.0817L13583.451,-3524.1012L13583.4526,-3524.1119L13583.4624,-3524.1213L13583.4763,-3524.1254L13583.5271,-3524.124L13583.6344,-3524.1126L13583.6564,-3524.1153L13583.6744,-3524.1221L13583.708,-3524.1395L13583.7286,-3524.1667L13583.7458,-3524.1893L13583.7638,-3524.2081L13583.7941,-3524.2343L13583.8359,-3524.264L13583.8547,-3524.2828L13583.8577,-3524.2872L13583.876,-3524.315L13583.8875,-3524.3306L13583.899,-3524.34L13583.9162,-3524.3467L13583.9711,-3524.3663L13583.9842,-3524.3744L13583.9924,-3524.3851L13583.9929,-3524.4141Z"/>
<path content="京都府,,,京都市,左京区,26103" xlink:title="京都府" d="M13583.9929,-3524.4141L13583.9924,-3524.3851L13583.9842,-3524.3744L13583.9711,-3524.3663L13583.9162,-3524.3467L13583.899,-3524.34L13583.8875,-3524.3306L13583.876,-3524.315L13583.8577,-3524.2872L13583.8547,-3524.2828L13583.8359,-3524.264L13583.7941,-3524.2343L13583.7638,-3524.2081L13583.7458,-3524.1893L13583.7286,-3524.1667L13583.708,-3524.1395L13583.6744,-3524.1221L13583.6564,-3524.1153L13583.6344,-3524.1126L13583.5271,-3524.124L13583.4763,-3524.1254L13583.4624,-3524.1213L13583.4526,-3524.1119L13583.451,-3524.1012L13583.4551,-3524.0817L13583.4723,-3524.0546L13583.5026,-3524.0291L13583.51,-3524.0163L13583.5149,-3523.9774L13583.5223,-3523.964L13583.5306,-3523.9576L13583.5345,-3523.9546L13583.5558,-3523.9431L13583.6083,-3523.9249L13583.6557,-3523.9054L13583.6656,-3523.8954L13583.6934,-3523.8482L13583.7172,-3523.8106L13583.7532,-3523.7547L13583.7592,-3523.7416L13583.7688,-3523.7204L13583.7769,-3523.6788L13583.7876,-3523.6153L13583.7917,-3523.5528L13583.7925,-3523.528L13583.7884,-3523.5105L13583.7638,-3523.4654L13583.736,-3523.4358L13583.7311,-3523.4258L13583.7303,-3523.4184L13583.7466,-3523.3866L13583.7491,-3523.3732L13583.7425,-3523.349L13583.7344,-3523.3333L13583.7196,-3523.3047L13583.7081,-3523.2764L13583.7057,-3523.2461L13583.7131,-3523.2092L13583.7114,-3523.1978L13583.6967,-3523.1736L13583.6953,-3523.1673L13583.695,-3523.1662L13583.6967,-3523.1548L13583.7073,-3523.1344L13583.7196,-3523.1015L13583.7253,-3523.0653L13583.7328,-3523.0523L13583.7516,-3523.0362L13583.7573,-3523.016L13583.7606,-3522.9724L13583.7729,-3522.8929L13583.7679,-3522.866L13583.7614,-3522.8358L13583.7671,-3522.7879L13583.7639,-3522.7315L13583.7622,-3522.7107L13583.7688,-3522.6864L13583.8032,-3522.6253L13583.8056,-3522.6105L13583.8007,-3522.6071L13583.7581,-3522.6017L13583.7352,-3522.5957L13583.7163,-3522.5836L13583.6507,-3522.5325L13583.6028,-3522.5L13583.5474,-3522.4624L13583.4929,-3522.4194L13583.4844,-3522.4128L13583.4648,-3522.4L13583.4476,-3522.396L13583.3993,-3522.3912L13583.3333,-3522.3749L13583.2984,-3522.3662L13583.2714,-3522.3548L13583.2608,-3522.3461L13583.2355,-3522.3078L13583.2183,-3522.2876L13583.1871,-3522.2667L13583.1707,-3522.2627L13583.1437,-3522.2614L13583.1151,-3522.2661L13583.0864,-3522.2761L13583.0799,-3522.2748L13583.0668,-3522.2667L13583.0151,-3522.2074L13582.9906,-3522.1705L13582.9816,-3522.1551L13582.9775,-3522.1201L13582.9751,-3522.1114L13582.948,-3522.0791L13582.9324,-3522.0481L13582.9308,-3522.0346L13582.9308,-3522.0151L13582.9382,-3521.9997L13582.9578,-3521.9802L13582.9783,-3521.9655L13583.016,-3521.9324L13583.0479,-3521.9002L13583.0692,-3521.8596L13583.0733,-3521.8461L13583.0749,-3521.8408L13583.0749,-3521.8226L13583.0651,-3521.7978L13583.052,-3521.7817L13583.0094,-3521.7474L13582.9988,-3521.7333L13582.9914,-3521.7172L13582.9865,-3521.6956L13582.9805,-3521.6667L13582.9799,-3521.664L13582.9783,-3521.6371L13582.9816,-3521.613L13582.9964,-3521.5778L13583.0267,-3521.5294L13583.038,-3521.5188L13583.0465,-3521.5109L13583.0554,-3521.5026L13583.0791,-3521.4865L13583.1382,-3521.4675L13583.2478,-3521.4279L13583.2544,-3521.4245L13583.2568,-3521.4138L13583.2495,-3521.3916L13583.2085,-3521.3221L13583.1971,-3521.2979L13583.1766,-3521.2429L13583.166,-3521.2033L13583.1341,-3521.1209L13583.1267,-3521.1063L13583.1046,-3521.0619L13583.1046,-3521.0504L13583.1087,-3521.0417L13583.1308,-3521.031L13583.1701,-3521.0155L13583.2044,-3520.9961L13583.2708,-3520.953L13583.3036,-3520.9309L13583.3333,-3520.9166L13583.3585,-3520.9046L13583.3748,-3520.8918L13583.3963,-3520.8694L13583.4264,-3520.8333L13583.4462,-3520.8096L13583.4513,-3520.8026L13583.5019,-3520.7328L13583.5494,-3520.6697L13583.5601,-3520.6509L13583.5633,-3520.6328L13583.5625,-3520.6057L13583.5437,-3520.5412L13583.5412,-3520.5264L13583.5535,-3520.4732L13583.5584,-3520.4316L13583.5884,-3520.3753L13583.5904,-3520.3716L13583.6002,-3520.3414L13583.5994,-3520.3293L13583.5904,-3520.3153L13583.5601,-3520.2721L13583.529,-3520.2405L13583.5241,-3520.2298L13583.5241,-3520.221L13583.5388,-3520.1941L13583.5454,-3520.1808L13583.5552,-3520.1267L13583.5609,-3520.1119L13583.5708,-3520.0945L13583.6002,-3520.0535L13583.6224,-3520.0313L13583.6518,-3520.0084L13583.6658,-3520L13583.6855,-3519.9881L13583.6969,-3519.976L13583.701,-3519.9599L13583.7019,-3519.9478L13583.6937,-3519.9149L13583.6937,-3519.9022L13583.697,-3519.8832L13583.7125,-3519.8321L13583.7199,-3519.8033L13583.7117,-3519.7352L13583.7134,-3519.7164L13583.7207,-3519.6989L13583.7297,-3519.6835L13583.7338,-3519.6741L13583.7306,-3519.6463L13583.733,-3519.6262L13583.7437,-3519.6034L13583.7732,-3519.573L13583.7841,-3519.5595L13583.7977,-3519.5428L13583.8133,-3519.4924L13583.8583,-3519.4338L13583.8779,-3519.4117L13583.8821,-3519.4016L13583.8894,-3519.3471L13583.896,-3519.3276L13583.9164,-3519.3007L13583.9377,-3519.2617L13583.9591,-3519.2031L13583.9732,-3519.1667L13583.9821,-3519.1439L13583.996,-3519.1278L13584.0189,-3519.1083L13584.0459,-3519.0962L13584.1123,-3519.0686L13584.1466,-3519.0525L13584.1667,-3519.0355L13584.1704,-3519.0323L13584.1802,-3519.0142L13584.1908,-3518.984L13584.2007,-3518.9253L13584.2113,-3518.8743L13584.2211,-3518.8016L13584.2324,-3518.7815L13584.2344,-3518.778L13584.2341,-3518.7743L13584.2334,-3518.7654L13584.2269,-3518.758L13584.1769,-3518.7316L13584.1667,-3518.7253L13584.1367,-3518.7068L13584.1171,-3518.6866L13584.1007,-3518.6555L13584.0876,-3518.6179L13584.0794,-3518.5924L13584.0794,-3518.5749L13584.0837,-3518.5473L13584.0844,-3518.5433L13584.0974,-3518.4875L13584.1015,-3518.4518L13584.104,-3518.4249L13584.1015,-3518.4014L13584.0786,-3518.3414L13584.075,-3518.3333L13584.0589,-3518.2971L13584.0246,-3518.223L13584.0213,-3518.2096L13584.0213,-3518.1914L13584.0254,-3518.1733L13584.0549,-3518.1316L13584.063,-3518.1161L13584.0639,-3518.094L13584.0573,-3518.0617L13584.0581,-3518.0247L13584.063,-3518.0066L13584.0917,-3517.973L13584.1113,-3517.9562L13584.1375,-3517.9427L13584.1667,-3517.934L13584.1801,-3517.9299L13584.2604,-3517.907L13584.3136,-3517.8889L13584.3292,-3517.8781L13584.3349,-3517.8701L13584.3349,-3517.8634L13584.3062,-3517.8329L13584.286,-3517.8125L13584.271,-3517.7973L13584.2661,-3517.7833L13584.2661,-3517.7658L13584.2726,-3517.7477L13584.2972,-3517.7085L13584.3136,-3517.6709L13584.3156,-3517.6615L13584.3169,-3517.6555L13584.3091,-3517.6131L13584.2788,-3517.5428L13584.2636,-3517.5099L13584.2598,-3517.5L13584.2545,-3517.486L13584.2405,-3517.4291L13584.2363,-3517.3908L13584.2387,-3517.3753L13584.2436,-3517.3634L13584.2539,-3517.3529L13584.2928,-3517.3259L13584.3486,-3517.2686L13584.3838,-3517.2267L13584.3977,-3517.1993L13584.3996,-3517.1879L13584.399,-3517.1709L13584.3801,-3517.0922L13584.3783,-3517.0683L13584.3807,-3517.0464L13584.3875,-3517.0284L13584.4025,-3517.0071L13584.4142,-3516.9932L13584.4165,-3516.9874L13584.4194,-3516.9542L13584.4206,-3516.94L13584.4091,-3516.9118L13584.4078,-3516.8965L13584.4097,-3516.8876L13584.4174,-3516.8765L13584.4341,-3516.8606L13584.4502,-3516.8416L13584.4669,-3516.8226L13584.476,-3516.8008L13584.4998,-3516.7654L13584.5243,-3516.7383L13584.5628,-3516.7099L13584.5731,-3516.6956L13584.5757,-3516.6877L13584.5731,-3516.6687L13584.5722,-3516.6667L13584.5474,-3516.6152L13584.5326,-3516.5829L13584.5294,-3516.5682L13584.5313,-3516.5544L13584.5391,-3516.5358L13584.5596,-3516.5047L13584.6009,-3516.4579L13584.6276,-3516.4354L13584.6516,-3516.4152L13584.6594,-3516.3973L13584.6639,-3516.3598L13584.6664,-3516.3132L13584.66,-3516.2799L13584.6633,-3516.264L13584.6813,-3516.2387L13584.6993,-3516.226L13584.7696,-3516.1793L13584.8371,-3516.1328L13584.8922,-3516.1066L13584.9335,-3516.087L13584.968,-3516.068L13584.9784,-3516.0606L13585,-3516.0489L13585.0282,-3516.0336L13585.0565,-3516.0304L13585.079,-3516.0278L13585.1863,-3516.0267L13585.2965,-3516.0184L13585.3324,-3516.0156L13585.4459,-3516.0046L13585.4519,-3516.004L13585.4707,-3515.997L13585.5812,-3515.9712L13585.6089,-3515.9564L13585.6153,-3515.9437L13585.6134,-3515.9054L13585.607,-3515.8521L13585.6113,-3515.8333L13585.6127,-3515.8268L13585.6257,-3515.7891L13585.6334,-3515.7584L13585.6655,-3515.7268L13585.6803,-3515.712L13585.6861,-3515.6972L13585.6854,-3515.684L13585.67,-3515.6284L13585.6687,-3515.625L13579.1016,-3515.625L13579.1016,-3524.4141Z"/>
</g>
</svg>
