<?xml version="1.0" encoding="UTF-8"?>
<svg  xmlns="http://www.w3.org/2000/svg" xmlns:xlink="http://www.w3.org/1999/xlink" xmlns:go="http://purl.org/svgmap/profile" property="geometry,N03_001,N03_002,N03_003,N03_004,N03_005,N03_007" viewBox="13640.625 -3515.625 140.625 140.625" go:dataArea="13640.625 -3515.625 140.625 140.625" >
<metadata>
 <rdf:RDF xmlns:rdf="http://www.w3.org/1999/02/22-rdf-syntax-ns#" xmlns:crs="http://opengis.org/xmldtds/transformations.dtd" xmlns:svg="http://www.w3.org/svg" >
  <rdf:Description>
   <crs:CoordinateReferenceSystem rdf:resource="http://purl.org/crs/84" svg:transform="matrix(100.0,0.0,0.0,-100.0,0.0,0.0)" />
  </rdf:Description>
 </rdf:RDF>
</metadata>
<globalCoordinateSystem srsName="http://purl.org/crs/84" transform="matrix(100.0,0.0,0.0,-100.0,0.0,0.0)" />
<defs>
 <g id="p0" >
  <circle cx="0.0" cy="0.0" r="3" stroke="green" stroke-width="2.0" vector-effect="non-scaling-stroke" />
 </g>
</defs>
<g fill="#0000ff" fill-rule="evenodd" opacity="0.5" >
<path content="滋賀県,,,甲賀市,,25209" xlink:title="滋賀県" d="M13640.625,-3501.4327L13640.6272,-3501.4323L13640.6783,-3501.4148L13640.7291,-3501.3977L13640.7695,-3501.387L13640.7855,-3501.3875L13640.7991,-3501.3958L13640.8193,-3501.4118L13640.8281,-3501.4293L13640.8323,-3501.4465L13640.8333,-3501.4481L13640.8364,-3501.4528L13640.8547,-3501.4582L13640.8731,-3501.4742L13640.8914,-3501.5005L13640.9329,-3501.5479L13640.9418,-3501.5537L13640.9536,-3501.5552L13641.0027,-3501.5469L13641.0331,-3501.5425L13641.0597,-3501.5439L13641.097,-3501.5537L13641.1556,-3501.5736L13641.228,-3501.5951L13641.2771,-3501.6039L13641.2987,-3501.6056L13641.3099,-3501.6041L13641.3448,-3501.5885L13641.3496,-3501.5876L13641.3602,-3501.5885L13641.3829,-3501.5963L13641.4136,-3501.6114L13641.4474,-3501.6372L13641.4857,-3501.6667L13641.4918,-3501.6714L13641.5084,-3501.6846L13641.5206,-3501.6906L13641.5262,-3501.6933L13641.5416,-3501.7084L13641.5718,-3501.745L13641.5889,-3501.762L13641.6141,-3501.7788L13641.6384,-3501.7873L13641.6667,-3501.7923L13641.6795,-3501.7946L13641.7026,-3501.8041L13641.7398,-3501.8178L13641.7494,-3501.8189L13641.7667,-3501.8189L13641.8167,-3501.8123L13641.8386,-3501.7901L13641.8563,-3501.7492L13641.8698,-3501.7159L13641.8756,-3501.7015L13641.8765,-3501.6869L13641.8706,-3501.6752L13641.8552,-3501.6667L13641.8477,-3501.6626L13641.8023,-3501.6411L13641.7821,-3501.6302L13641.7509,-3501.5939L13641.7282,-3501.5579L13641.6928,-3501.5058L13641.6831,-3501.4837L13641.677,-3501.4593L13641.676,-3501.4553L13641.6693,-3501.4184L13641.6667,-3501.4133L13641.6591,-3501.3984L13641.66,-3501.3887L13641.6667,-3501.3772L13641.6684,-3501.3741L13641.6979,-3501.3414L13641.708,-3501.3207L13641.7097,-3501.3006L13641.7063,-3501.2688L13641.7004,-3501.2104L13641.6987,-3501.171L13641.6971,-3501.1364L13641.6969,-3501.1344L13641.6962,-3501.1238L13641.7013,-3501.1093L13641.7198,-3501.0733L13641.7343,-3501.0519L13641.7486,-3501.0308L13641.7611,-3501.0122L13641.7957,-3500.9393L13641.8083,-3500.9254L13641.8327,-3500.9192L13641.8496,-3500.9116L13641.858,-3500.8943L13641.8622,-3500.8729L13641.8622,-3500.8424L13641.8638,-3500.8333L13641.8647,-3500.8277L13641.8841,-3500.7882L13641.8883,-3500.7626L13641.8892,-3500.7253L13641.8883,-3500.6863L13641.8959,-3500.653L13641.9077,-3500.6183L13641.9296,-3500.5775L13641.9439,-3500.5568L13642.0096,-3500.5192L13642.0189,-3500.5088L13642.0206,-3500.4936L13642.018,-3500.4791L13642.0021,-3500.4431L13641.9886,-3500.3778L13641.9877,-3500.3236L13641.9914,-3500.3077L13641.9963,-3500.2941L13642.0097,-3500.282L13642.0611,-3500.2433L13642.1003,-3500.2075L13642.115,-3500.1696L13642.1334,-3500.1354L13642.1364,-3500.1218L13642.1358,-3500.078L13642.136,-3500.0575L13642.1364,-3500.0056L13642.1344,-3500L13642.1303,-3499.989L13642.121,-3499.9712L13642.1169,-3499.9633L13642.1028,-3499.9623L13642.0875,-3499.9543L13642.0588,-3499.9226L13642.0367,-3499.9024L13642.0178,-3499.8979L13641.9976,-3499.9014L13641.9829,-3499.9034L13641.9719,-3499.8984L13641.9302,-3499.8731L13641.9155,-3499.8504L13641.907,-3499.8378L13641.8978,-3499.8363L13641.8844,-3499.8388L13641.8605,-3499.8363L13641.8391,-3499.8152L13641.8212,-3499.8111L13641.7998,-3499.81L13641.7827,-3499.8116L13641.7686,-3499.8105L13641.7239,-3499.7899L13641.7054,-3499.7772L13641.6914,-3499.7701L13641.6675,-3499.7666L13641.6667,-3499.7665L13641.6357,-3499.7651L13641.6119,-3499.7485L13641.5028,-3499.6622L13641.4912,-3499.6557L13641.4821,-3499.6562L13641.457,-3499.6637L13641.4478,-3499.6642L13641.4276,-3499.6541L13641.4141,-3499.635L13641.4,-3499.5901L13641.3792,-3499.5614L13641.3486,-3499.5427L13641.3467,-3499.5376L13641.3511,-3499.5316L13641.3688,-3499.522L13641.3847,-3499.5109L13641.3963,-3499.4933L13641.4027,-3499.484L13641.4141,-3499.4676L13641.4324,-3499.453L13641.4477,-3499.4429L13641.4514,-3499.4324L13641.4575,-3499.4006L13641.4636,-3499.3692L13641.482,-3499.3284L13641.4881,-3499.3204L13641.493,-3499.3178L13641.5193,-3499.3259L13641.5395,-3499.3269L13641.5572,-3499.3219L13641.5737,-3499.3103L13641.5891,-3499.2831L13641.6033,-3499.2628L13641.6185,-3499.2507L13641.6314,-3499.2401L13641.6369,-3499.2266L13641.6357,-3499.213L13641.6147,-3499.1667L13641.6063,-3499.1482L13641.5715,-3499.0954L13641.5556,-3499.062L13641.5494,-3499.0394L13641.5598,-3499.0046L13641.5666,-3498.9546L13641.5764,-3498.9208L13641.5904,-3498.8481L13641.6045,-3498.8305L13641.61,-3498.8144L13641.5966,-3498.7741L13641.5597,-3498.7155L13641.5507,-3498.7011L13641.5476,-3498.6911L13641.558,-3498.6667L13641.5593,-3498.646L13641.5519,-3498.6234L13641.5305,-3498.5905L13641.5305,-3498.5724L13641.5403,-3498.5447L13641.5396,-3498.5314L13641.5341,-3498.5133L13641.5231,-3498.4937L13641.5206,-3498.4714L13641.5195,-3498.4619L13641.5268,-3498.4195L13641.5231,-3498.4003L13641.5103,-3498.3742L13641.5109,-3498.3626L13641.5237,-3498.3333L13641.5317,-3498.3151L13641.5329,-3498.3031L13641.5268,-3498.2839L13641.5127,-3498.2703L13641.5127,-3498.2608L13641.5226,-3498.2411L13641.5268,-3498.2263L13641.5189,-3498.2142L13641.5103,-3498.2047L13641.484,-3498.1916L13641.4657,-3498.1841L13641.4638,-3498.176L13641.4767,-3498.1694L13641.4945,-3498.1692L13641.5109,-3498.1689L13641.5268,-3498.1609L13641.5403,-3498.1387L13641.5458,-3498.1214L13641.5587,-3498.1057L13641.5874,-3498.0801L13641.5839,-3498.0669L13641.5801,-3498.0529L13641.563,-3498.0323L13641.5409,-3498.0197L13641.4845,-3497.9883L13641.4613,-3497.9697L13641.438,-3497.9435L13641.435,-3497.9279L13641.4307,-3497.8992L13641.4203,-3497.8834L13641.4152,-3497.8769L13641.3878,-3497.8416L13641.3726,-3497.8124L13641.3548,-3497.7938L13641.3235,-3497.7749L13641.2853,-3497.7525L13641.2807,-3497.7498L13641.2391,-3497.7231L13641.1735,-3497.6968L13641.1197,-3497.6696L13641.0995,-3497.6534L13641.0885,-3497.6378L13641.0805,-3497.6086L13641.0573,-3497.5925L13641.0198,-3497.5874L13640.999,-3497.5829L13640.974,-3497.5708L13640.9403,-3497.533L13640.9237,-3497.5187L13640.9004,-3497.5122L13640.8919,-3497.5056L13640.8896,-3497.5L13640.8815,-3497.4805L13640.8717,-3497.4533L13640.8594,-3497.436L13640.8386,-3497.4083L13640.8333,-3497.4049L13640.8215,-3497.3972L13640.7933,-3497.3882L13640.7731,-3497.3785L13640.7566,-3497.3659L13640.7486,-3497.3549L13640.748,-3497.3337L13640.7504,-3497.3081L13640.7425,-3497.293L13640.74,-3497.2817L13640.7443,-3497.2611L13640.751,-3497.2409L13640.7504,-3497.2303L13640.7449,-3497.2152L13640.7303,-3497.1941L13640.7106,-3497.1727L13640.677,-3497.1546L13640.6464,-3497.145L13640.625,-3497.1323Z"/>
<path content="滋賀県,,,東近江市,,25213" xlink:title="滋賀県" d="M13640.625,-3515.625L13645.4333,-3515.625L13645.4345,-3515.6156L13645.4417,-3515.5461L13645.4472,-3515.5078L13645.4549,-3515.4403L13645.4535,-3515.4303L13645.4458,-3515.4109L13645.4413,-3515.3933L13645.4408,-3515.3851L13645.4444,-3515.3695L13645.4653,-3515.3169L13645.5024,-3515.257L13645.5035,-3515.2546L13645.5038,-3515.2481L13645.4998,-3515.2415L13645.493,-3515.2362L13645.4662,-3515.2156L13645.4344,-3515.1985L13645.409,-3515.1895L13645.3673,-3515.1772L13645.3415,-3515.1657L13645.3093,-3515.1448L13645.278,-3515.1336L13645.2439,-3515.1209L13645.204,-3515.1L13645.1954,-3515.0941L13645.1882,-3515.0837L13645.1763,-3515.0553L13645.1551,-3515L13645.1527,-3514.9938L13645.1455,-3514.9763L13645.1378,-3514.9688L13645.1301,-3514.9659L13645.1209,-3514.9645L13645.0734,-3514.9577L13645.0516,-3514.9517L13645.0394,-3514.9499L13645,-3514.9573L13644.9805,-3514.961L13644.955,-3514.9674L13644.9042,-3514.9745L13644.8825,-3514.9763L13644.8479,-3514.9742L13644.8394,-3514.9737L13644.8157,-3514.9756L13644.7895,-3514.9752L13644.755,-3514.976L13644.7368,-3514.9782L13644.7155,-3514.9856L13644.7096,-3514.987L13644.6933,-3514.9909L13644.6598,-3514.9912L13644.624,-3514.9898L13644.6041,-3514.9871L13644.5558,-3514.974L13644.5437,-3514.9707L13644.5061,-3514.9659L13644.4807,-3514.9573L13644.439,-3514.9338L13644.4299,-3514.9244L13644.4236,-3514.9048L13644.4222,-3514.8876L13644.4227,-3514.8798L13644.4336,-3514.8633L13644.4399,-3514.8388L13644.4508,-3514.8172L13644.4544,-3514.8075L13644.4549,-3514.7954L13644.4539,-3514.7668L13644.4508,-3514.7553L13644.4472,-3514.7482L13644.4403,-3514.7336L13644.4331,-3514.7228L13644.4258,-3514.7079L13644.4159,-3514.6811L13644.4032,-3514.6464L13644.3999,-3514.6378L13644.3914,-3514.6155L13644.3796,-3514.5949L13644.371,-3514.5841L13644.3411,-3514.5585L13644.3275,-3514.5345L13644.3184,-3514.5174L13644.313,-3514.4921L13644.3134,-3514.4595L13644.3193,-3514.4361L13644.3243,-3514.4126L13644.3316,-3514.3948L13644.3456,-3514.363L13644.3587,-3514.3355L13644.3733,-3514.305L13644.39,-3514.2732L13644.3991,-3514.2486L13644.4023,-3514.2211L13644.4004,-3514.2126L13644.3936,-3514.1964L13644.3886,-3514.1861L13644.379,-3514.1667L13644.3787,-3514.1659L13644.3556,-3514.1039L13644.3406,-3514.066L13644.3306,-3514.0227L13644.3225,-3513.9948L13644.3125,-3513.9721L13644.2975,-3513.9146L13644.2948,-3513.9057L13644.2884,-3513.8998L13644.2794,-3513.8942L13644.2649,-3513.8916L13644.2068,-3513.8814L13644.1667,-3513.8748L13644.1257,-3513.8681L13644.0834,-3513.8564L13644.039,-3513.8371L13644.0191,-3513.8255L13644.0055,-3513.8136L13643.9751,-3513.7841L13643.9624,-3513.7699L13643.9424,-3513.7376L13643.9284,-3513.7227L13643.9061,-3513.7011L13643.893,-3513.6921L13643.8776,-3513.6858L13643.8436,-3513.6765L13643.8001,-3513.6605L13643.7951,-3513.6564L13643.7887,-3513.644L13643.7742,-3513.6116L13643.752,-3513.556L13643.7503,-3513.5514L13643.7466,-3513.5411L13643.7425,-3513.5188L13643.742,-3513.4863L13643.7434,-3513.4466L13643.7429,-3513.4281L13643.7284,-3513.3686L13643.7244,-3513.3463L13643.7229,-3513.3333L13643.7221,-3513.3268L13643.7089,-3513.2836L13643.6949,-3513.2523L13643.6822,-3513.2242L13643.6582,-3513.187L13643.6419,-3513.1688L13643.6223,-3513.144L13643.5671,-3513.0968L13643.5585,-3513.0778L13643.5589,-3513.0689L13643.5639,-3513.0655L13643.5962,-3513.0569L13643.6089,-3513.0517L13643.6243,-3513.042L13643.641,-3513.0298L13643.6483,-3513.0275L13643.6764,-3513.0237L13643.7009,-3513.0126L13643.7304,-3513.0025L13643.7512,-3512.9888L13643.7816,-3512.9661L13643.8037,-3512.9497L13643.822,-3512.9334L13643.8573,-3512.897L13643.88,-3512.8669L13643.8808,-3512.8664L13643.8904,-3512.8605L13643.9037,-3512.8586L13643.9243,-3512.8583L13643.9526,-3512.8579L13643.9793,-3512.8557L13644.0311,-3512.8456L13644.0746,-3512.8326L13644.1036,-3512.8199L13644.1381,-3512.8012L13644.1667,-3512.7838L13644.1893,-3512.7699L13644.1976,-3512.7661L13644.2247,-3512.7535L13644.2455,-3512.7461L13644.28,-3512.7401L13644.2841,-3512.7393L13644.3186,-3512.7308L13644.3225,-3512.7292L13644.3449,-3512.72L13644.3735,-3512.7088L13644.4369,-3512.6786L13644.4656,-3512.6614L13644.4823,-3512.6469L13644.4918,-3512.6365L13644.5077,-3512.6149L13644.5299,-3512.5946L13644.5712,-3512.5727L13644.6505,-3512.5417L13644.6773,-3512.5238L13644.7005,-3512.5L13644.7081,-3512.4922L13644.7484,-3512.4582L13644.7796,-3512.4224L13644.8023,-3512.3841L13644.8055,-3512.3719L13644.8047,-3512.3587L13644.8046,-3512.3563L13644.7932,-3512.3368L13644.7715,-3512.3134L13644.752,-3512.2958L13644.7357,-3512.2831L13644.7203,-3512.2768L13644.6799,-3512.269L13644.6499,-3512.2666L13644.6282,-3512.2618L13644.6114,-3512.2529L13644.5974,-3512.2384L13644.5933,-3512.2309L13644.5896,-3512.2133L13644.5765,-3512.1628L13644.5657,-3512.1374L13644.5557,-3512.1214L13644.5407,-3512.1005L13644.533,-3512.0894L13644.5262,-3512.0722L13644.5171,-3512.0433L13644.5112,-3512.0072L13644.4823,-3511.9403L13644.4718,-3511.923L13644.4519,-3511.9007L13644.4405,-3511.8943L13644.4174,-3511.8865L13644.3974,-3511.8834L13644.3702,-3511.8797L13644.3326,-3511.8667L13644.3086,-3511.8507L13644.274,-3511.8276L13644.2301,-3511.8016L13644.2101,-3511.7839L13644.1935,-3511.7702L13644.1702,-3511.7508L13644.1667,-3511.7487L13644.1339,-3511.7295L13644.0301,-3511.6908L13644.0079,-3511.6796L13644.0007,-3511.6721L13643.9982,-3511.6667L13643.9966,-3511.6632L13643.9957,-3511.6387L13643.9921,-3511.6256L13643.9848,-3511.6013L13643.9839,-3511.5813L13643.9853,-3511.5697L13643.9902,-3511.5463L13643.9898,-3511.5368L13643.9939,-3511.5015L13644.0003,-3511.4828L13644.0252,-3511.4534L13644.0564,-3511.4206L13644.1036,-3511.3694L13644.1353,-3511.3296L13644.1435,-3511.3153L13644.1471,-3511.3088L13644.1444,-3511.2759L13644.1426,-3511.2439L13644.1516,-3511.216L13644.1667,-3511.1858L13644.1671,-3511.1849L13644.2137,-3511.1299L13644.2514,-3511.0854L13644.2586,-3511.0702L13644.2563,-3511.0612L13644.2529,-3511.0571L13644.2464,-3511.0489L13644.2373,-3511.0411L13644.2277,-3511.0328L13644.2019,-3511.0101L13644.1892,-3510.9941L13644.1829,-3510.9841L13644.1766,-3510.9643L13644.1711,-3510.9524L13644.1667,-3510.9455L13644.1598,-3510.9348L13644.1516,-3510.9114L13644.1421,-3510.8905L13644.1321,-3510.8729L13644.1191,-3510.8475L13644.1118,-3510.8333L13644.0971,-3510.8046L13644.0896,-3510.79L13644.0823,-3510.7749L13644.0823,-3510.7601L13644.0914,-3510.7325L13644.0936,-3510.7093L13644.0918,-3510.6825L13644.0932,-3510.6736L13644.1136,-3510.6411L13644.1331,-3510.6188L13644.144,-3510.6039L13644.1503,-3510.5924L13644.1499,-3510.5654L13644.1521,-3510.5591L13644.1667,-3510.5457L13644.1671,-3510.5453L13644.1793,-3510.5364L13644.1832,-3510.5302L13644.1856,-3510.5264L13644.1861,-3510.5174L13644.1789,-3510.4879L13644.1667,-3510.4451L13644.1657,-3510.4417L13644.1507,-3510.4027L13644.1408,-3510.3776L13644.1313,-3510.3362L13644.129,-3510.3254L13644.1308,-3510.3086L13644.1421,-3510.2687L13644.1449,-3510.2404L13644.1435,-3510.2285L13644.1449,-3510.2122L13644.1498,-3510.2006L13644.155,-3510.1927L13644.1585,-3510.1875L13644.1667,-3510.1799L13644.1879,-3510.1603L13644.1911,-3510.1577L13644.1911,-3510.144L13644.1847,-3510.1321L13644.1667,-3510.1036L13644.1643,-3510.0999L13644.1453,-3510.0783L13644.1163,-3510.0511L13644.0777,-3510.0288L13644.0351,-3510.0001L13644.0351,-3510L13644.0147,-3509.9807L13643.9993,-3509.9646L13643.9853,-3509.9479L13643.9653,-3509.915L13643.9517,-3509.8868L13643.9304,-3509.8406L13643.9176,-3509.8083L13643.9107,-3509.7807L13643.909,-3509.7749L13643.8982,-3509.7391L13643.8883,-3509.7128L13643.8788,-3509.6896L13643.873,-3509.6731L13643.8694,-3509.6527L13643.8699,-3509.6368L13643.8778,-3509.6179L13643.8866,-3509.5941L13643.9017,-3509.5569L13643.9163,-3509.5184L13643.9236,-3509.4884L13643.9322,-3509.4585L13643.9393,-3509.4293L13643.9488,-3509.3988L13643.9509,-3509.3921L13643.9619,-3509.3562L13643.9617,-3509.3446L13643.9609,-3509.3286L13643.9569,-3509.3195L13643.9465,-3509.3095L13643.9307,-3509.3011L13643.9105,-3509.2884L13643.9017,-3509.2809L13643.8951,-3509.2724L13643.8848,-3509.2484L13643.8764,-3509.2243L13643.8631,-3509.2144L13643.8263,-3509.191L13643.8122,-3509.1773L13643.8074,-3509.1718L13643.8072,-3509.1672L13643.8074,-3509.1667L13643.8125,-3509.1542L13643.8228,-3509.1454L13643.8357,-3509.1371L13643.8508,-3509.1316L13643.879,-3509.1205L13643.8856,-3509.1168L13643.8951,-3509.1079L13643.8999,-3509.1032L13643.9126,-3509.0874L13643.9189,-3509.0826L13643.9463,-3509.0692L13643.9615,-3509.06L13643.9665,-3509.0558L13643.9779,-3509.0403L13643.9821,-3509.0254L13643.9857,-3508.9997L13643.9884,-3508.9834L13643.9986,-3508.9611L13644.0089,-3508.9427L13644.0194,-3508.9301L13644.031,-3508.9166L13644.0442,-3508.9042L13644.0658,-3508.8852L13644.0876,-3508.8635L13644.1122,-3508.8393L13644.118,-3508.8329L13644.1226,-3508.8255L13644.1337,-3508.8022L13644.1377,-3508.7954L13644.1494,-3508.7743L13644.1636,-3508.7324L13644.1667,-3508.7259L13644.1759,-3508.7064L13644.1876,-3508.6815L13644.1973,-3508.6561L13644.2109,-3508.6154L13644.2109,-3508.5974L13644.2058,-3508.5849L13644.1972,-3508.5779L13644.1667,-3508.5663L13644.1627,-3508.5648L13644.1341,-3508.5551L13644.0853,-3508.5496L13644.0558,-3508.5399L13644.0263,-3508.5226L13643.9882,-3508.4921L13643.9681,-3508.4761L13643.9538,-3508.4622L13643.9395,-3508.4373L13643.9227,-3508.4249L13643.9101,-3508.4221L13643.8688,-3508.4131L13643.8401,-3508.4018L13643.8207,-3508.3859L13643.8199,-3508.3762L13643.8249,-3508.3589L13643.8325,-3508.343L13643.8275,-3508.3333L13643.8274,-3508.3333L13643.8131,-3508.3278L13643.7887,-3508.3257L13643.7551,-3508.3174L13643.711,-3508.3075L13643.6858,-3508.3075L13643.6496,-3508.2979L13643.6226,-3508.2902L13643.5873,-3508.3013L13643.5662,-3508.3006L13643.5427,-3508.2861L13643.5292,-3508.2709L13643.5267,-3508.2487L13643.5317,-3508.2369L13643.5495,-3508.2146L13643.589,-3508.1752L13643.6,-3508.1536L13643.6004,-3508.0873L13643.5966,-3508.0662L13643.589,-3508.0281L13643.5831,-3507.9977L13643.5848,-3507.9853L13643.5941,-3507.9694L13643.6084,-3507.9546L13643.6202,-3507.9456L13643.6261,-3507.9331L13643.6269,-3507.9165L13643.6337,-3507.9004L13643.6345,-3507.8985L13643.6531,-3507.8847L13643.6678,-3507.8802L13643.6819,-3507.8553L13643.6902,-3507.8354L13643.7104,-3507.8098L13643.7214,-3507.7981L13643.7324,-3507.7681L13643.7408,-3507.748L13643.7408,-3507.73L13643.7416,-3507.7156L13643.7467,-3507.7037L13643.766,-3507.6892L13643.7803,-3507.6754L13643.7922,-3507.6585L13643.8057,-3507.6495L13643.8233,-3507.6412L13643.8494,-3507.6378L13643.8654,-3507.6336L13643.8806,-3507.6233L13643.8966,-3507.6066L13643.9227,-3507.59L13643.9585,-3507.5594L13643.9711,-3507.5469L13643.9807,-3507.5283L13643.9913,-3507.5L13643.9914,-3507.4999L13644.0141,-3507.4798L13644.0301,-3507.4646L13644.0351,-3507.4485L13644.0368,-3507.436L13644.0309,-3507.4097L13644.0133,-3507.3806L13643.9897,-3507.3216L13643.9602,-3507.2732L13643.9594,-3507.258L13643.9627,-3507.2442L13643.9813,-3507.2072L13644.0006,-3507.1684L13644.0086,-3507.1548L13644.0175,-3507.1394L13644.0487,-3507.0707L13644.0605,-3507.0463L13644.0782,-3507.0339L13644.0975,-3507.0228L13644.1026,-3507.0131L13644.1043,-3506.9972L13644.1026,-3506.975L13644.0992,-3506.9432L13644.0975,-3506.9197L13644.1034,-3506.8876L13644.1136,-3506.8516L13644.1262,-3506.8141L13644.1287,-3506.7955L13644.1245,-3506.7621L13644.1262,-3506.7455L13644.1337,-3506.7262L13644.1482,-3506.6964L13644.1598,-3506.6719L13644.1594,-3506.6667L13644.1582,-3506.6512L13644.1556,-3506.6304L13644.1413,-3506.6076L13644.1253,-3506.5806L13644.1161,-3506.5661L13644.1168,-3506.5568L13644.1202,-3506.5395L13644.1185,-3506.5201L13644.1059,-3506.5029L13644.0991,-3506.4821L13644.0991,-3506.4544L13644.0933,-3506.4468L13644.0874,-3506.4468L13644.0671,-3506.4537L13644.0453,-3506.4683L13644.0276,-3506.4828L13643.9955,-3506.5237L13643.9854,-3506.5313L13643.9589,-3506.5394L13643.9424,-3506.5445L13643.9231,-3506.5514L13643.8986,-3506.5514L13643.8633,-3506.5521L13643.8532,-3506.5473L13643.8245,-3506.5159L13643.8093,-3506.4889L13643.7992,-3506.4626L13643.7967,-3506.4391L13643.7866,-3506.4156L13643.7696,-3506.4008L13643.7511,-3506.3821L13643.7359,-3506.3718L13643.7023,-3506.3586L13643.6661,-3506.3544L13643.6442,-3506.3448L13643.6265,-3506.3296L13643.5886,-3506.2823L13643.5785,-3506.2668L13643.5718,-3506.2566L13643.5617,-3506.2317L13643.5549,-3506.2269L13643.5294,-3506.2276L13643.4798,-3506.2227L13643.4596,-3506.2206L13643.4377,-3506.2123L13643.4066,-3506.1943L13643.3636,-3506.1687L13643.3442,-3506.1484L13643.3358,-3506.1311L13643.3333,-3506.1185L13643.3324,-3506.1138L13643.3333,-3506.0959L13643.3341,-3506.0806L13643.3349,-3506.0605L13643.3509,-3506.0417L13643.3669,-3506.0202L13643.3703,-3506.0029L13643.3669,-3505.9822L13643.3594,-3505.9711L13643.3508,-3505.9585L13643.3357,-3505.944L13643.3333,-3505.9429L13643.3171,-3505.935L13643.2801,-3505.9288L13643.2557,-3505.9274L13643.2169,-3505.9343L13643.2034,-3505.9371L13643.1767,-3505.9353L13643.1352,-3505.9288L13643.1041,-3505.9233L13643.0956,-3505.9191L13643.0761,-3505.8947L13643.0652,-3505.8843L13643.0526,-3505.8801L13643.0349,-3505.8725L13643.0105,-3505.8365L13643.0089,-3505.8333L13642.9927,-3505.8003L13642.9776,-3505.7678L13642.965,-3505.7429L13642.933,-3505.7076L13642.9203,-3505.6825L13642.9043,-3505.6549L13642.8849,-3505.6369L13642.8757,-3505.6355L13642.8462,-3505.6479L13642.8218,-3505.6563L13642.7786,-3505.6646L13642.7593,-3505.6722L13642.7357,-3505.6871L13642.7155,-3505.6943L13642.6953,-3505.6964L13642.6414,-3505.6936L13642.5716,-3505.6902L13642.5542,-3505.6933L13642.5541,-3505.6933L13642.5133,-3505.7005L13642.5,-3505.7005L13642.4999,-3505.7005L13642.4838,-3505.7005L13642.472,-3505.6984L13642.4627,-3505.6936L13642.456,-3505.6871L13642.4484,-3505.6749L13642.4451,-3505.6597L13642.4442,-3505.6078L13642.4442,-3505.596L13642.4358,-3505.5843L13642.4264,-3505.5723L13642.4087,-3505.5577L13642.3742,-3505.5376L13642.3313,-3505.51L13642.3062,-3505.4927L13642.285,-3505.4617L13642.2783,-3505.4503L13642.269,-3505.4343L13642.2656,-3505.4128L13642.2631,-3505.3741L13642.2606,-3505.3122L13642.258,-3505.2838L13642.2504,-3505.2471L13642.2386,-3505.202L13642.237,-3505.1611L13642.221,-3505.1383L13642.1949,-3505.1189L13642.1637,-3505.1009L13642.1284,-3505.0947L13642.0995,-3505.0869L13642.0549,-3505.0724L13642.0095,-3505.0558L13641.9893,-3505.0399L13641.9684,-3505.0143L13641.9566,-3505L13641.9471,-3504.9884L13641.9461,-3504.9875L13641.9294,-3504.9725L13641.8914,-3504.9551L13641.8669,-3504.9509L13641.8333,-3504.9516L13641.7853,-3504.9503L13641.7769,-3504.9468L13641.7744,-3504.9309L13641.7777,-3504.9191L13641.787,-3504.9004L13641.8055,-3504.8838L13641.8341,-3504.8562L13641.8383,-3504.8458L13641.8383,-3504.8313L13641.8341,-3504.8105L13641.8223,-3504.7856L13641.8099,-3504.7561L13641.797,-3504.7251L13641.7786,-3504.694L13641.7785,-3504.6935L13641.7726,-3504.6647L13641.7684,-3504.6114L13641.7684,-3504.5738L13641.7718,-3504.5483L13641.7787,-3504.5148L13641.7751,-3504.4858L13641.7724,-3504.4721L13641.7693,-3504.456L13641.7583,-3504.4339L13641.7423,-3504.4138L13641.7356,-3504.3984L13641.7356,-3504.3797L13641.7431,-3504.3631L13641.7612,-3504.3334L13641.7625,-3504.3153L13641.7726,-3504.2849L13641.7756,-3504.2674L13641.7768,-3504.2604L13641.7751,-3504.2459L13641.7684,-3504.2369L13641.7549,-3504.2327L13641.7355,-3504.2327L13641.717,-3504.2341L13641.6892,-3504.2403L13641.6667,-3504.2403L13641.664,-3504.2403L13641.6429,-3504.2362L13641.6329,-3504.2327L13641.6143,-3504.2119L13641.5925,-3504.1667L13641.5916,-3504.1648L13641.5857,-3504.1433L13641.5874,-3504.126L13641.6009,-3504.1011L13641.6253,-3504.0808L13641.6564,-3504.069L13641.6667,-3504.0664L13641.683,-3504.0621L13641.6909,-3504.0552L13641.6968,-3504.0365L13641.7128,-3504.0019L13641.7162,-3503.9881L13641.7136,-3503.9707L13641.7128,-3503.9653L13641.6926,-3503.9276L13641.6876,-3503.9152L13641.6876,-3503.8937L13641.6867,-3503.884L13641.6758,-3503.8536L13641.6699,-3503.8416L13641.6667,-3503.8242L13641.6657,-3503.8188L13641.664,-3503.7932L13641.6497,-3503.7496L13641.6455,-3503.7295L13641.6472,-3503.7162L13641.6539,-3503.6975L13641.6581,-3503.6767L13641.6573,-3503.6456L13641.659,-3503.6267L13641.6667,-3503.6033L13641.6674,-3503.6011L13641.6716,-3503.5866L13641.6783,-3503.561L13641.6881,-3503.5474L13641.6909,-3503.5435L13641.6985,-3503.5338L13641.6986,-3503.5124L13641.6969,-3503.4944L13641.691,-3503.4515L13641.6927,-3503.4083L13641.6961,-3503.3911L13641.7028,-3503.3779L13641.7381,-3503.3558L13641.7604,-3503.3333L13641.761,-3503.3327L13641.7778,-3503.312L13641.7921,-3503.2871L13641.8166,-3503.2328L13641.8376,-3503.1934L13641.8393,-3503.1816L13641.8334,-3503.1733L13641.8149,-3503.156L13641.7964,-3503.1394L13641.7871,-3503.1123L13641.7871,-3503.0901L13641.7939,-3503.0659L13641.8073,-3503.0422L13641.8233,-3503.0256L13641.8553,-3503.0062L13641.8839,-3502.991L13641.9159,-3502.9854L13642.0316,-3502.9854L13642.0854,-3502.9654L13642.1116,-3502.9626L13642.141,-3502.9668L13642.1873,-3502.9758L13642.1948,-3502.9769L13642.2309,-3502.9825L13642.2599,-3502.9785L13642.2784,-3502.9737L13642.3188,-3502.9702L13642.3474,-3502.9737L13642.3828,-3502.9771L13642.4055,-3502.9751L13642.4223,-3502.9688L13642.44,-3502.9571L13642.4469,-3502.9494L13642.4469,-3502.9404L13642.4401,-3502.93L13642.409,-3502.9078L13642.3989,-3502.8947L13642.3954,-3502.88L13642.3887,-3502.8654L13642.3761,-3502.8551L13642.3542,-3502.8419L13642.2869,-3502.8184L13642.2726,-3502.8073L13642.2574,-3502.7656L13642.2536,-3502.7579L13642.2389,-3502.7283L13642.2144,-3502.7039L13642.2077,-3502.6942L13642.2086,-3502.6831L13642.2195,-3502.6679L13642.2389,-3502.6554L13642.2649,-3502.6471L13642.2885,-3502.6388L13642.2944,-3502.6278L13642.2959,-3502.5943L13642.2892,-3502.5659L13642.2791,-3502.5507L13642.2614,-3502.5417L13642.2379,-3502.5369L13642.216,-3502.5317L13642.1991,-3502.5196L13642.1862,-3502.5L13642.184,-3502.4967L13642.1797,-3502.4792L13642.1831,-3502.4557L13642.1756,-3502.4391L13642.1737,-3502.4372L13642.1486,-3502.4121L13642.1377,-3502.3934L13642.1385,-3502.3796L13642.1495,-3502.3517L13642.1571,-3502.3212L13642.1621,-3502.2866L13642.1672,-3502.2436L13642.1638,-3502.22L13642.1545,-3502.1741L13642.1419,-3502.1437L13642.1297,-3502.1287L13642.1284,-3502.1271L13642.1073,-3502.1126L13642.0737,-3502.0897L13642.0188,-3502.0599L13641.9801,-3502.0474L13641.9136,-3502.0363L13641.8378,-3502.0315L13641.8174,-3502.0279L13641.7829,-3502.0113L13641.7661,-3501.9905L13641.7434,-3501.9774L13641.7122,-3501.9601L13641.7097,-3501.9518L13641.7164,-3501.9435L13641.7451,-3501.9294L13641.7529,-3501.9158L13641.7577,-3501.9073L13641.7611,-3501.8734L13641.7678,-3501.8491L13641.7822,-3501.8344L13641.8167,-3501.8123L13641.7667,-3501.8189L13641.7494,-3501.8189L13641.7398,-3501.8178L13641.7026,-3501.8041L13641.6795,-3501.7946L13641.6667,-3501.7923L13641.6384,-3501.7873L13641.6141,-3501.7788L13641.5889,-3501.762L13641.5718,-3501.745L13641.5416,-3501.7084L13641.5262,-3501.6933L13641.5206,-3501.6906L13641.5084,-3501.6846L13641.4918,-3501.6714L13641.4857,-3501.6667L13641.4474,-3501.6372L13641.4136,-3501.6114L13641.3829,-3501.5963L13641.3602,-3501.5885L13641.3496,-3501.5876L13641.3448,-3501.5885L13641.3099,-3501.6041L13641.2987,-3501.6056L13641.2771,-3501.6039L13641.228,-3501.5951L13641.1556,-3501.5736L13641.097,-3501.5537L13641.0597,-3501.5439L13641.0331,-3501.5425L13641.0027,-3501.5469L13640.9536,-3501.5552L13640.9418,-3501.5537L13640.9329,-3501.5479L13640.8914,-3501.5005L13640.8731,-3501.4742L13640.8547,-3501.4582L13640.8364,-3501.4528L13640.8333,-3501.4481L13640.8323,-3501.4465L13640.8281,-3501.4293L13640.8193,-3501.4118L13640.7991,-3501.3958L13640.7855,-3501.3875L13640.7695,-3501.387L13640.7291,-3501.3977L13640.6783,-3501.4148L13640.6272,-3501.4323L13640.625,-3501.4327Z"/>
</g>
</svg>
