<?xml version="1.0" encoding="UTF-8"?>
<svg  xmlns="http://www.w3.org/2000/svg" xmlns:xlink="http://www.w3.org/1999/xlink" xmlns:go="http://purl.org/svgmap/profile" property="geometry,N03_001,N03_002,N03_003,N03_004,N03_005,N03_007" viewBox="13526.3671875 -3480.46875 8.7890625 8.7890625" go:dataArea="13526.3671875 -3480.46875 8.7890625 8.7890625" >
<metadata>
 <rdf:RDF xmlns:rdf="http://www.w3.org/1999/02/22-rdf-syntax-ns#" xmlns:crs="http://opengis.org/xmldtds/transformations.dtd" xmlns:svg="http://www.w3.org/svg" >
  <rdf:Description>
   <crs:CoordinateReferenceSystem rdf:resource="http://purl.org/crs/84" svg:transform="matrix(100.0,0.0,0.0,-100.0,0.0,0.0)" />
  </rdf:Description>
 </rdf:RDF>
</metadata>
<globalCoordinateSystem srsName="http://purl.org/crs/84" transform="matrix(100.0,0.0,0.0,-100.0,0.0,0.0)" />
<defs>
 <g id="p0" >
  <circle cx="0.0" cy="0.0" r="3" stroke="green" stroke-width="2.0" vector-effect="non-scaling-stroke" />
 </g>
</defs>
<g fill="#0000ff" fill-rule="evenodd" opacity="0.5" >
<path content="兵庫県,,,神戸市,東灘区,28101" xlink:title="兵庫県" d="M13526.7418,-3477.9441L13526.7798,-3477.8988L13526.8333,-3477.8081L13526.8427,-3477.795L13526.8492,-3477.7813L13526.8515,-3477.7718L13526.8536,-3477.7634L13526.855,-3477.7419L13526.8536,-3477.7282L13526.8514,-3477.7103L13526.8514,-3477.696L13526.8528,-3477.6841L13526.8621,-3477.674L13526.8713,-3477.6641L13526.8828,-3477.6539L13526.8973,-3477.6456L13526.9111,-3477.6378L13526.9313,-3477.6277L13526.9436,-3477.6164L13526.9544,-3477.605L13526.9624,-3477.5907L13526.9696,-3477.5692L13526.9703,-3477.5507L13526.9682,-3477.5281L13526.966,-3477.5114L13526.9657,-3477.5L13526.9656,-3477.4961L13526.9671,-3477.4866L13526.9714,-3477.4789L13526.9794,-3477.4693L13526.9938,-3477.4556L13527.0155,-3477.4395L13527.0242,-3477.4276L13527.0264,-3477.4144L13527.0343,-3477.359L13527.043,-3477.3357L13527.0542,-3477.3157L13527.0651,-3477.299L13527.0723,-3477.2889L13527.0889,-3477.2698L13527.0963,-3477.2593L13527.1019,-3477.2513L13527.1099,-3477.2328L13527.1184,-3477.2027L13527.128,-3477.169L13527.1331,-3477.1511L13527.1457,-3477.112L13527.1551,-3477.0971L13527.1739,-3477.0679L13527.1977,-3477.0357L13527.2108,-3477.0184L13527.2426,-3476.9635L13527.2553,-3476.9555L13527.2697,-3476.9459L13527.2863,-3476.9382L13527.3015,-3476.9292L13527.3094,-3476.9209L13527.3275,-3476.9047L13527.3442,-3476.8869L13527.3557,-3476.8761L13527.3615,-3476.8696L13527.3637,-3476.8624L13527.3637,-3476.8523L13527.3601,-3476.8397L13527.3579,-3476.829L13527.3572,-3476.8153L13527.3601,-3476.8016L13527.3666,-3476.7819L13527.3857,-3476.7601L13527.3959,-3476.7524L13527.4089,-3476.7416L13527.4248,-3476.7273L13527.44,-3476.7076L13527.4552,-3476.6963L13527.4725,-3476.6832L13527.4957,-3476.6706L13527.5,-3476.6691L13527.5072,-3476.6667L13527.5629,-3476.6474L13527.581,-3476.6408L13527.5918,-3476.6313L13527.6077,-3476.6098L13527.6215,-3476.5931L13527.6703,-3476.532L13527.6854,-3476.5123L13527.6913,-3476.5004L13527.6941,-3476.4884L13527.6947,-3476.4832L13527.6956,-3476.4741L13527.6992,-3476.461L13527.7057,-3476.4502L13527.7209,-3476.4365L13527.7419,-3476.4168L13527.7509,-3476.4064L13527.756,-3476.3933L13527.7581,-3476.376L13527.7567,-3476.3539L13527.7567,-3476.3217L13527.7581,-3476.2955L13527.7639,-3476.2656L13527.7697,-3476.2454L13527.7755,-3476.2322L13527.7908,-3476.2157L13527.8033,-3476.2021L13527.8142,-3476.1926L13527.819,-3476.1888L13527.8785,-3476.1425L13527.9096,-3476.1172L13527.9971,-3476.0459L13528.017,-3476.0199L13528.0279,-3476.0038L13528.038,-3475.9847L13528.0445,-3475.9734L13528.0481,-3475.9602L13528.0532,-3475.934L13528.0589,-3475.8994L13528.064,-3475.8636L13528.0656,-3475.8333L13528.0665,-3475.815L13528.0687,-3475.7744L13528.0695,-3475.7585L13528.0716,-3475.7166L13528.0723,-3475.6867L13528.0705,-3475.6054L13528.0676,-3475.5755L13528.0633,-3475.5409L13528.0561,-3475.5057L13528.0521,-3475.4881L13528.0492,-3475.4631L13528.0485,-3475.4494L13528.0485,-3475.438L13528.0514,-3475.4261L13528.0644,-3475.3921L13528.0793,-3475.3645L13528.0824,-3475.3587L13528.1034,-3475.3243L13528.0762,-3475.2818L13528.0571,-3475.252L13528.0155,-3475.1947L13528.0139,-3475.185L13528.0187,-3475.1612L13528.0245,-3475.1494L13528.0454,-3475.1352L13528.0843,-3475.1079L13528.1062,-3475.0912L13528.1217,-3475.0811L13528.1494,-3475.0696L13528.1745,-3475.0612L13528.1937,-3475.0586L13528.2167,-3475.0577L13528.2316,-3475.0497L13528.2445,-3475.0394L13528.2508,-3475.0343L13528.2503,-3475.0163L13528.2503,-3475.0083L13528.2551,-3475.0031L13528.2615,-3475L13528.2663,-3474.9977L13528.2935,-3474.9929L13528.3053,-3474.9867L13528.3234,-3474.974L13528.3333,-3474.9675L13528.3442,-3474.9603L13528.3618,-3474.9497L13528.3758,-3474.9459L13528.3954,-3474.9405L13528.4274,-3474.9167L13528.4445,-3474.907L13528.4653,-3474.896L13528.4754,-3474.8876L13528.4877,-3474.8735L13528.5005,-3474.8642L13528.5013,-3474.8639L13528.5149,-3474.8572L13528.5283,-3474.8506L13528.5539,-3474.8532L13528.572,-3474.855L13528.5828,-3474.8533L13528.595,-3474.8515L13528.6169,-3474.8431L13528.6894,-3474.8008L13528.7129,-3474.7871L13528.7174,-3474.7818L13528.7289,-3474.7682L13528.7364,-3474.7519L13528.7364,-3474.7343L13528.7374,-3474.7158L13528.7387,-3474.7098L13528.7412,-3474.6986L13528.7503,-3474.681L13528.7801,-3474.6506L13528.8116,-3474.6276L13528.8228,-3474.6131L13528.8372,-3474.595L13528.8468,-3474.5853L13528.8596,-3474.5739L13528.8719,-3474.5646L13528.8885,-3474.5549L13528.9007,-3474.5391L13528.9141,-3474.5171L13528.9203,-3474.4991L13528.9279,-3474.4768L13528.9344,-3474.4565L13528.9184,-3474.4552L13528.8581,-3474.4605L13528.7631,-3474.4644L13528.6521,-3474.464L13528.5939,-3474.4618L13528.5512,-3474.4543L13528.4872,-3474.4446L13528.4563,-3474.4402L13528.4333,-3474.4389L13528.4438,-3474.4276L13528.4498,-3474.4212L13528.4904,-3474.3838L13528.5176,-3474.3548L13528.5235,-3474.3485L13528.5624,-3474.3142L13528.5735,-3474.3041L13528.5779,-3474.3001L13528.5961,-3474.2816L13528.6099,-3474.2688L13528.6307,-3474.2591L13528.6542,-3474.2446L13528.682,-3474.2291L13528.7039,-3474.2111L13528.7284,-3474.1921L13528.7398,-3474.1827L13528.7592,-3474.1667L13528.785,-3474.1454L13528.8084,-3474.1199L13528.8319,-3474.0983L13528.8538,-3474.0807L13528.8799,-3474.0701L13528.9141,-3474.0639L13528.9306,-3474.0683L13528.944,-3474.0789L13528.944,-3474.0947L13528.9472,-3474.1058L13528.9584,-3474.1071L13528.9792,-3474.1031L13528.9984,-3474.0956L13529.0155,-3474.0904L13529.0315,-3474.089L13529.0389,-3474.0855L13529.0443,-3474.0723L13529.0432,-3474.0427L13529.0502,-3474.0141L13529.0566,-3473.9925L13529.0678,-3473.9701L13529.0753,-3473.9533L13529.079,-3473.9317L13529.0785,-3473.9161L13529.0784,-3473.9154L13529.0736,-3473.8974L13529.0704,-3473.8762L13529.0688,-3473.8621L13529.0801,-3473.8462L13529.0829,-3473.8415L13529.0864,-3473.8357L13529.0879,-3473.833L13529.0988,-3473.8136L13529.1169,-3473.7814L13529.12,-3473.7761L13529.143,-3473.7373L13529.1622,-3473.706L13529.1667,-3473.7047L13529.1884,-3473.6981L13529.2101,-3473.6913L13529.2268,-3473.6861L13529.2361,-3473.6832L13529.2673,-3473.6734L13529.2551,-3473.6391L13529.2503,-3473.6223L13529.2294,-3473.595L13529.214,-3473.5791L13529.2294,-3473.5655L13529.2436,-3473.5487L13529.2471,-3473.5444L13529.2554,-3473.5346L13529.2591,-3473.5303L13529.2636,-3473.5249L13529.2865,-3473.4976L13529.2892,-3473.4936L13529.2636,-3473.4725L13529.2471,-3473.4527L13529.2433,-3473.4386L13529.2442,-3473.4317L13529.2466,-3473.4134L13529.2545,-3473.3874L13529.2604,-3473.3681L13529.262,-3473.339L13529.2657,-3473.3383L13529.2736,-3473.337L13529.2775,-3473.3363L13529.2806,-3473.3358L13529.2956,-3473.3333L13529.2988,-3473.3328L13529.3228,-3473.3324L13529.3264,-3473.3333L13529.3474,-3473.339L13529.35,-3473.3333L13529.3644,-3473.3022L13529.3666,-3473.2976L13529.3739,-3473.2844L13529.4119,-3473.216L13529.4409,-3473.1639L13529.4472,-3473.1526L13529.4602,-3473.1147L13529.4649,-3473.1012L13529.4663,-3473.097L13529.4685,-3473.0905L13529.4987,-3473.0981L13529.5143,-3473.1019L13529.5204,-3473.1035L13529.5996,-3473.1234L13529.6142,-3473.127L13529.6471,-3473.0433L13529.6531,-3473.0279L13529.6174,-3473.0235L13529.6025,-3473.0151L13529.5584,-3473.0084L13529.5389,-3473.0054L13529.5514,-3472.9781L13529.556,-3472.968L13529.5673,-3472.9495L13529.5717,-3472.9335L13529.5774,-3472.9133L13529.5954,-3472.8771L13529.6073,-3472.8534L13529.6126,-3472.838L13529.5987,-3472.8331L13529.5859,-3472.8287L13529.5955,-3472.8076L13529.5827,-3472.8027L13529.6104,-3472.7443L13529.6201,-3472.7239L13529.6456,-3472.7308L13529.6524,-3472.7326L13529.7324,-3472.7544L13529.7477,-3472.7586L13529.7552,-3472.7606L13529.7807,-3472.7675L13529.8234,-3472.7873L13529.8394,-3472.7939L13529.8495,-3472.7785L13529.8549,-3472.7741L13529.865,-3472.7759L13529.8799,-3472.782L13529.8959,-3472.7886L13529.9045,-3472.7904L13529.9056,-3472.8014L13529.9002,-3472.8159L13529.9301,-3472.8314L13529.96,-3472.8441L13529.9717,-3472.819L13529.9845,-3472.801L13529.9947,-3472.7825L13530,-3472.7764L13530.0075,-3472.7679L13530.0327,-3472.7112L13530.0364,-3472.7028L13530.0406,-3472.6935L13530.0721,-3472.6432L13530.0737,-3472.6399L13530.1068,-3472.5766L13530.1084,-3472.5734L13530.1136,-3472.5635L13530.1394,-3472.5029L13530.1406,-3472.5L13530.1468,-3472.4855L13530.1474,-3472.4841L13530.1631,-3472.4471L13530.1674,-3472.4369L13530.1825,-3472.4015L13530.1974,-3472.357L13530.2013,-3472.3469L13530.2202,-3472.2984L13530.2224,-3472.2926L13530.2417,-3472.2429L13530.2459,-3472.2276L13530.2472,-3472.2231L13530.2519,-3472.2063L13530.2716,-3472.1397L13530.2894,-3472.0829L13530.2907,-3472.0786L13530.2961,-3472.0613L13530.3081,-3472.0287L13530.3197,-3471.9972L13530.3394,-3471.9437L13530.3388,-3471.9287L13530.3426,-3471.9165L13530.3457,-3471.9095L13530.1544,-3471.9446L13530.1477,-3471.9461L13530.1446,-3471.9462L13530.1342,-3471.949L13530.1305,-3471.9629L13530.1125,-3471.9601L13530.114,-3471.953L13530.108,-3471.9543L13530.106,-3471.9548L13530.1044,-3471.9551L13530.1019,-3471.9492L13530.1004,-3471.9496L13530.0937,-3471.9511L13530.0922,-3471.9515L13530.0691,-3471.957L13530.0711,-3471.9634L13530.0671,-3471.9645L13530.0649,-3471.9651L13530.0545,-3471.9678L13530.0468,-3471.9673L13530.0515,-3471.9339L13530.0518,-3471.9298L13530.0526,-3471.9061L13530.0523,-3471.9045L13530,-3471.9121L13529.9829,-3471.9146L13529.7614,-3471.9476L13529.7172,-3471.9478L13529.7039,-3471.9443L13529.5792,-3471.9449L13529.5759,-3471.9449L13529.5397,-3471.945L13529.5366,-3471.9451L13529.427,-3471.9456L13529.4126,-3471.9407L13529.4104,-3471.9399L13529.4087,-3471.9393L13529.4063,-3471.9385L13529.3782,-3471.9258L13529.302,-3471.8955L13529.2913,-3471.9134L13529.2907,-3471.9156L13529.2909,-3471.9185L13529.2915,-3471.9209L13529.2927,-3471.9229L13529.2956,-3471.9251L13529.3082,-3471.9293L13529.2984,-3471.9451L13529.2805,-3471.9379L13529.2667,-3471.9463L13529.2613,-3471.957L13529.2608,-3471.9595L13529.2611,-3471.9626L13529.262,-3471.9649L13529.2644,-3471.9673L13529.2768,-3471.9731L13529.2669,-3471.9894L13529.2726,-3471.9918L13529.2828,-3471.9949L13529.3124,-3472.0086L13529.2724,-3472.0678L13529.2381,-3472.052L13529.2606,-3472.0178L13529.2489,-3472.0124L13529.2394,-3472.0141L13529.2018,-3472.0712L13529.1889,-3472.0653L13529.1776,-3472.0602L13529.1738,-3472.0582L13529.2116,-3472.0015L13529.2258,-3471.982L13529.2432,-3471.9513L13529.2443,-3471.9512L13529.2496,-3471.9388L13529.2479,-3471.9344L13529.2638,-3471.9051L13529.2722,-3471.8857L13529.3102,-3471.7982L13529.3102,-3471.7796L13529.282,-3471.769L13529.2795,-3471.7698L13529.2677,-3471.7735L13529.2414,-3471.8181L13529.1667,-3471.7898L13529.1392,-3471.7794L13529.1253,-3471.7741L13529.1325,-3471.762L13529.134,-3471.7595L13529.1388,-3471.7515L13529.1431,-3471.7444L13529.1446,-3471.7419L13529.1496,-3471.7335L13529.1386,-3471.7293L13529.1313,-3471.7265L13529.1363,-3471.7184L13529.1385,-3471.7193L13529.1667,-3471.73L13529.2373,-3471.7568L13529.2403,-3471.7521L13529.2408,-3471.7513L13529.2016,-3471.737L13529.1667,-3471.7236L13529.1282,-3471.7089L13529.1298,-3471.7059L13529.1241,-3471.7038L13529.1375,-3471.6797L13526.3672,-3471.6797L13526.3672,-3477.6414L13526.3935,-3477.6677L13526.396,-3477.7083L13526.3956,-3477.7196L13526.3949,-3477.7331L13526.3862,-3477.7343L13526.3813,-3477.7434L13526.3705,-3477.7964L13526.4018,-3477.7959L13526.5402,-3477.8156L13526.5515,-3477.8982L13526.5848,-3477.9242L13526.6083,-3477.9221L13526.6253,-3477.9441L13526.6357,-3477.9548L13526.6357,-3477.9768L13526.634,-3478.0014L13526.6633,-3478.0135L13526.6667,-3478.0155L13526.6846,-3478.0266L13526.7418,-3477.9441Z"/>
<path content="兵庫県,,,神戸市,東灘区,28101" xlink:title="兵庫県" d="M13529.435,-3471.6797L13529.4101,-3471.7221L13529.3869,-3471.7614L13529.378,-3471.8325L13529.4115,-3471.8465L13529.4224,-3471.8511L13529.4549,-3471.8568L13529.4572,-3471.8569L13529.459,-3471.8571L13529.4784,-3471.8581L13529.6933,-3471.8586L13529.8393,-3471.7601L13530,-3471.7363L13530.3288,-3471.6877L13530.3296,-3471.6797Z"/>
<path content="兵庫県,,,神戸市,北区,28109" xlink:title="兵庫県" d="M13526.3672,-3480.4688L13526.3672,-3480.4688L13526.3672,-3480.3623L13526.3694,-3480.3597L13526.3773,-3480.3496L13526.3838,-3480.3466L13526.3918,-3480.346L13526.4019,-3480.3454L13526.4171,-3480.3442L13526.4221,-3480.34L13526.4243,-3480.3329L13526.4239,-3480.3257L13526.4232,-3480.3153L13526.4247,-3480.304L13526.4239,-3480.2884L13526.4203,-3480.2717L13526.4203,-3480.2652L13526.4232,-3480.258L13526.4514,-3480.2312L13526.4601,-3480.2216L13526.4709,-3480.2115L13526.4847,-3480.2067L13526.5353,-3480.2079L13526.5775,-3480.2112L13526.6079,-3480.2136L13526.6191,-3480.2193L13526.6629,-3480.2416L13526.6667,-3480.2433L13526.6788,-3480.2488L13526.6933,-3480.2536L13526.707,-3480.2554L13526.7225,-3480.2543L13526.7244,-3480.2542L13526.7895,-3480.2416L13526.801,-3480.2398L13526.8329,-3480.2273L13526.8936,-3480.2351L13526.9066,-3480.2398L13526.9189,-3480.2494L13526.9384,-3480.2583L13526.9594,-3480.2637L13526.9796,-3480.2637L13527.0122,-3480.2601L13527.0469,-3480.2571L13527.049,-3480.2482L13527.0489,-3480.2464L13527.048,-3480.2308L13527.0455,-3480.2251L13527.0393,-3480.2211L13527.0197,-3480.2158L13527.0031,-3480.2098L13526.9908,-3480.2021L13526.9829,-3480.1919L13526.9793,-3480.1847L13526.98,-3480.1585L13526.9771,-3480.1496L13526.9698,-3480.1418L13526.9568,-3480.1305L13526.9489,-3480.1209L13526.9384,-3480.0974L13526.9348,-3480.0676L13526.9333,-3480.0574L13526.9348,-3480.0455L13526.9384,-3480.0364L13526.9434,-3480.024L13526.9434,-3480.0037L13526.9423,-3480L13526.9369,-3479.9822L13526.9333,-3479.9602L13526.9333,-3479.9506L13526.9377,-3479.9345L13526.9402,-3479.9116L13526.9386,-3479.9048L13526.9352,-3479.8901L13526.92,-3479.8704L13526.8853,-3479.8322L13526.8715,-3479.8156L13526.8694,-3479.8084L13526.8708,-3479.7971L13526.8802,-3479.7756L13526.8802,-3479.7642L13526.8787,-3479.7452L13526.8719,-3479.7252L13526.8625,-3479.7049L13526.861,-3479.6906L13526.8617,-3479.6798L13526.8661,-3479.6661L13526.8784,-3479.6488L13526.8871,-3479.6411L13526.8972,-3479.6351L13526.9254,-3479.6274L13526.976,-3479.617L13527.036,-3479.6047L13527.0317,-3479.5928L13527.0281,-3479.5791L13527.0281,-3479.5647L13527.032,-3479.5436L13527.0342,-3479.5268L13527.0327,-3479.5125L13527.0248,-3479.4952L13527.0215,-3479.4901L13527.0133,-3479.4773L13527.0031,-3479.4618L13526.9952,-3479.4261L13526.9908,-3479.4106L13526.9901,-3479.4028L13526.9916,-3479.395L13526.9959,-3479.3795L13527.0042,-3479.3554L13527.0491,-3479.2724L13527.0736,-3479.2402L13527.0939,-3479.2116L13527.0975,-3479.1997L13527.0982,-3479.1919L13527.0946,-3479.183L13527.0798,-3479.1708L13527.0741,-3479.1667L13527.0494,-3479.1487L13526.9684,-3479.1081L13526.9511,-3479.0986L13526.9257,-3479.0765L13526.9004,-3479.0586L13526.8947,-3479.0526L13526.8918,-3479.0461L13526.8918,-3479.0222L13526.8932,-3479.0162L13526.8997,-3479.0043L13526.9077,-3478.993L13526.9196,-3478.9843L13526.9406,-3478.9682L13526.9464,-3478.9652L13526.955,-3478.9569L13526.9536,-3478.945L13526.9471,-3478.9366L13526.937,-3478.9259L13526.9174,-3478.9074L13526.9087,-3478.8937L13526.9086,-3478.8929L13526.9059,-3478.8782L13526.9127,-3478.8057L13526.9123,-3478.7722L13526.9042,-3478.7579L13526.8876,-3478.7454L13526.8814,-3478.7266L13526.8553,-3478.6675L13526.85,-3478.6527L13526.8541,-3478.6373L13526.8611,-3478.6229L13526.8572,-3478.612L13526.8475,-3478.6045L13526.8481,-3478.5919L13526.8633,-3478.5727L13526.8835,-3478.5424L13526.89,-3478.534L13526.8908,-3478.4931L13526.8979,-3478.4642L13526.8979,-3478.4565L13526.9008,-3478.4469L13526.9051,-3478.4385L13526.9113,-3478.4216L13526.9357,-3478.3975L13526.9377,-3478.3882L13526.9334,-3478.3816L13526.9212,-3478.3755L13526.865,-3478.3539L13526.8539,-3478.3333L13526.8497,-3478.3257L13526.8333,-3478.2823L13526.8203,-3478.2639L13526.804,-3478.2377L13526.7967,-3478.2287L13526.7902,-3478.2176L13526.778,-3478.2099L13526.7328,-3478.2199L13526.7417,-3478.1714L13526.7521,-3478.1001L13526.7469,-3478.0991L13526.6846,-3478.0266L13526.6667,-3478.0155L13526.6633,-3478.0135L13526.634,-3478.0014L13526.6357,-3477.9768L13526.6357,-3477.9548L13526.6253,-3477.9441L13526.6083,-3477.9221L13526.5848,-3477.9242L13526.5515,-3477.8982L13526.5402,-3477.8156L13526.4018,-3477.7959L13526.3705,-3477.7964L13526.3813,-3477.7434L13526.3862,-3477.7343L13526.3949,-3477.7331L13526.3956,-3477.7196L13526.396,-3477.7083L13526.3935,-3477.6677L13526.3672,-3477.6414Z"/>
<path content="兵庫県,,,西宮市,,28204" xlink:title="兵庫県" d="M13530.971,-3480.4688L13530.8877,-3480.4299L13530.8414,-3480.4072L13530.8333,-3480.4033L13530.7771,-3480.3762L13530.7381,-3480.3613L13530.6737,-3480.3404L13530.6282,-3480.3231L13530.6038,-3480.3132L13530.5425,-3480.2882L13530.5155,-3480.2744L13530.5005,-3480.2667L13530.4246,-3480.2363L13530.4058,-3480.231L13530.3856,-3480.2298L13530.3422,-3480.2334L13530.2583,-3480.2351L13530.2388,-3480.2351L13530.2185,-3480.231L13530.1968,-3480.2244L13530.1889,-3480.2166L13530.1846,-3480.2083L13530.1838,-3480.191L13530.1846,-3480.1749L13530.1852,-3480.1727L13530.19,-3480.1567L13530.1936,-3480.1412L13530.1979,-3480.1107L13530.1981,-3480.1102L13530.2008,-3480.0994L13530.2117,-3480.0822L13530.2173,-3480.0768L13530.2297,-3480.0649L13530.2449,-3480.0476L13530.2703,-3480.0219L13530.2825,-3480.01L13530.2896,-3480L13530.2927,-3479.9957L13530.3133,-3479.9691L13530.3335,-3479.9327L13530.3393,-3479.9202L13530.3465,-3479.8987L13530.3487,-3479.8838L13530.3458,-3479.8653L13530.3436,-3479.8457L13530.3439,-3479.8446L13530.348,-3479.8248L13530.3664,-3479.7839L13530.3761,-3479.7635L13530.3953,-3479.7225L13530.4411,-3479.6334L13530.4608,-3479.5951L13530.468,-3479.577L13530.4977,-3479.5021L13530.502,-3479.4854L13530.5092,-3479.4955L13530.5194,-3479.5021L13530.5345,-3479.5039L13530.549,-3479.5015L13530.5599,-3479.4889L13530.5642,-3479.4782L13530.5794,-3479.48L13530.5924,-3479.4776L13530.6025,-3479.4687L13530.6017,-3479.4561L13530.5974,-3479.443L13530.5996,-3479.418L13530.6039,-3479.4049L13530.6123,-3479.3944L13530.6195,-3479.3861L13530.6325,-3479.3789L13530.6477,-3479.3741L13530.6708,-3479.3706L13530.7105,-3479.3579L13530.7214,-3479.3544L13530.7605,-3479.3413L13530.801,-3479.324L13530.8184,-3479.3172L13530.8285,-3479.3133L13530.8333,-3479.3123L13530.84,-3479.3109L13530.8581,-3479.3103L13530.8849,-3479.3061L13530.9817,-3479.2924L13530.9919,-3479.2888L13530.9926,-3479.2829L13530.9875,-3479.2745L13530.9716,-3479.2632L13530.9471,-3479.2513L13530.9217,-3479.2441L13530.9102,-3479.2416L13530.8755,-3479.234L13530.8444,-3479.231L13530.8333,-3479.2298L13530.7854,-3479.2247L13530.7413,-3479.2217L13530.7229,-3479.2183L13530.7218,-3479.2181L13530.7095,-3479.2146L13530.6972,-3479.2116L13530.6906,-3479.2088L13530.6647,-3479.1979L13530.6459,-3479.1895L13530.6235,-3479.1788L13530.6061,-3479.1681L13530.6007,-3479.1667L13530.5948,-3479.1651L13530.5946,-3479.1651L13530.5721,-3479.1621L13530.5526,-3479.1591L13530.5302,-3479.1537L13530.4875,-3479.14L13530.4611,-3479.129L13530.4431,-3479.1159L13530.4185,-3479.0986L13530.3982,-3479.0896L13530.3375,-3479.0669L13530.2985,-3479.0532L13530.2818,-3479.0413L13530.2696,-3479.0222L13530.2449,-3479.0013L13530.2269,-3478.9834L13530.2034,-3478.9485L13530.2005,-3478.942L13530.1997,-3478.9336L13530.1983,-3478.9235L13530.1954,-3478.9133L13530.1867,-3478.8966L13530.1687,-3478.88L13530.1484,-3478.8644L13530.1303,-3478.8549L13530.1166,-3478.8483L13530.1065,-3478.8406L13530.0949,-3478.8239L13530.0877,-3478.803L13530.0891,-3478.7887L13530.1108,-3478.7738L13530.1188,-3478.769L13530.1383,-3478.7654L13530.1556,-3478.7589L13530.1788,-3478.7541L13530.2005,-3478.7577L13530.2186,-3478.7684L13530.2316,-3478.7756L13530.2424,-3478.7779L13530.2562,-3478.7797L13530.2743,-3478.7791L13530.2963,-3478.7729L13530.2983,-3478.7726L13530.3267,-3478.7687L13530.3505,-3478.7711L13530.3809,-3478.7788L13530.4113,-3478.7902L13530.4293,-3478.8009L13530.485,-3478.8403L13530.5038,-3478.8534L13530.5255,-3478.8594L13530.6184,-3478.8794L13530.6763,-3478.8871L13530.6886,-3478.8871L13530.6987,-3478.8847L13530.7095,-3478.8806L13530.7196,-3478.8728L13530.7428,-3478.8621L13530.7601,-3478.8549L13530.7811,-3478.8495L13530.8021,-3478.8454L13530.8333,-3478.8421L13530.8418,-3478.8412L13530.8859,-3478.8412L13530.9666,-3478.8469L13531.0013,-3478.8498L13531.0446,-3478.8564L13531.0656,-3478.8636L13531.0743,-3478.8713L13531.0779,-3478.8844L13531.0916,-3478.9005L13531.1141,-3478.9101L13531.1314,-3478.9113L13531.1987,-3478.9101L13531.2334,-3478.9047L13531.2659,-3478.8954L13531.2956,-3478.8868L13531.3115,-3478.8749L13531.3702,-3478.8626L13531.4606,-3478.8316L13531.5067,-3478.8251L13531.553,-3478.8299L13531.5891,-3478.8263L13531.6354,-3478.8144L13531.6667,-3478.8054L13531.6687,-3478.8048L13531.6836,-3478.7915L13531.7034,-3478.7738L13531.7077,-3478.7559L13531.7193,-3478.7428L13531.7352,-3478.7213L13531.7583,-3478.6784L13531.7656,-3478.6617L13531.7706,-3478.6537L13531.7916,-3478.6199L13531.8118,-3478.5806L13531.8191,-3478.546L13531.8407,-3478.5269L13531.8827,-3478.5245L13531.9189,-3478.5269L13531.955,-3478.5328L13531.9926,-3478.5304L13532.0119,-3478.5231L13532.0331,-3478.5149L13532.097,-3478.4772L13532.1881,-3478.4234L13532.2897,-3478.3634L13532.3407,-3478.3333L13532.4405,-3478.2745L13532.4731,-3478.2552L13532.4796,-3478.2462L13532.4905,-3478.2212L13532.4977,-3478.2075L13532.5,-3478.2017L13532.5056,-3478.1878L13532.5176,-3478.1732L13532.5349,-3478.1589L13532.5617,-3478.1392L13532.6058,-3478.1022L13532.6311,-3478.0855L13532.6426,-3478.0819L13532.6586,-3478.0831L13532.7197,-3478.1085L13532.8137,-3478.1351L13532.8144,-3478.1353L13532.8224,-3478.1294L13532.8257,-3478.1253L13532.8303,-3478.1198L13532.839,-3478.118L13532.8491,-3478.1198L13532.8787,-3478.1287L13532.8931,-3478.1339L13533.0714,-3478.1976L13533.1069,-3478.2042L13533.1833,-3478.2216L13533.1857,-3478.2221L13533.1859,-3478.2222L13533.1972,-3478.2292L13533.1978,-3478.2337L13533.1987,-3478.2412L13533.2013,-3478.2414L13533.2134,-3478.2427L13533.219,-3478.2432L13533.2457,-3478.2459L13533.3035,-3478.2424L13533.3079,-3478.2298L13533.3093,-3478.2161L13533.3107,-3478.1959L13533.3151,-3478.1875L13533.3333,-3478.18L13533.3964,-3478.1538L13533.4203,-3478.1467L13533.4449,-3478.1437L13533.4681,-3478.1443L13533.4883,-3478.1484L13533.4999,-3478.1538L13533.5049,-3478.1604L13533.5107,-3478.1789L13533.5237,-3478.1986L13533.5468,-3478.1986L13533.6033,-3478.186L13533.622,-3478.1807L13533.6604,-3478.1699L13533.7189,-3478.1491L13533.737,-3478.1449L13533.8046,-3478.1302L13533.8372,-3478.1207L13533.8943,-3478.1028L13534.046,-3478.0508L13534.07,-3478.0426L13534.0841,-3478.0345L13534.0978,-3478.0166L13534.1116,-3478.0011L13534.1318,-3477.9892L13534.1571,-3477.9671L13534.1667,-3477.9578L13534.1687,-3477.9558L13534.1781,-3477.9367L13534.1817,-3477.9182L13534.1853,-3477.8693L13534.185,-3477.8565L13534.1683,-3477.7927L13534.167,-3477.7701L13534.1667,-3477.7646L13534.1662,-3477.7563L13534.1667,-3477.7552L13534.1731,-3477.7412L13534.1828,-3477.7205L13534.232,-3477.6441L13534.2349,-3477.625L13534.2294,-3477.577L13534.228,-3477.5609L13534.2381,-3477.5448L13534.2468,-3477.5341L13534.2757,-3477.5257L13534.3046,-3477.5204L13534.3601,-3477.5072L13534.3904,-3477.5L13534.4214,-3477.4926L13534.4337,-3477.4893L13534.4814,-3477.4765L13534.5115,-3477.4687L13534.6022,-3477.4449L13534.6139,-3477.4421L13534.6217,-3477.4403L13534.634,-3477.4373L13534.6351,-3477.4371L13534.6398,-3477.4359L13534.66,-3477.4354L13534.6832,-3477.4395L13534.6979,-3477.4439L13534.6986,-3477.4441L13534.7114,-3477.4479L13534.7396,-3477.4551L13534.7519,-3477.4562L13534.762,-3477.4551L13534.7847,-3477.4458L13534.7931,-3477.4407L13534.8013,-3477.4357L13534.8014,-3477.4357L13534.8158,-3477.4237L13534.8274,-3477.4094L13534.8802,-3477.3838L13534.8917,-3477.3769L13534.8965,-3477.3741L13534.9091,-3477.3665L13534.9214,-3477.3504L13534.9412,-3477.3441L13534.9481,-3477.3419L13534.9543,-3477.3399L13535,-3477.3394L13535.1148,-3477.3381L13535.1562,-3477.3396L13535.1562,-3471.6797L13534.6021,-3471.6797L13534.5115,-3471.7459L13534.5157,-3471.7499L13534.374,-3471.8538L13534.3748,-3471.8543L13534.3718,-3471.8566L13534.3713,-3471.8559L13534.3702,-3471.8568L13534.3699,-3471.8575L13534.411,-3471.9062L13534.3691,-3471.9383L13534.3283,-3471.9695L13534.328,-3471.9692L13534.1667,-3472.0658L13533.8922,-3472.2302L13533.8917,-3472.2489L13533.8912,-3472.249L13533.8875,-3472.3154L13533.8857,-3472.4L13533.8815,-3472.4024L13533.8808,-3472.4018L13533.8794,-3472.4015L13533.8769,-3472.4031L13533.8774,-3472.4039L13533.8323,-3472.4293L13533.833,-3472.4301L13533.8203,-3472.4378L13533.8198,-3472.4372L13533.8171,-3472.4388L13533.8177,-3472.4395L13533.8102,-3472.444L13533.8096,-3472.4433L13533.8083,-3472.4441L13533.8078,-3472.4441L13533.8029,-3472.4473L13533.8035,-3472.4478L13533.7981,-3472.4513L13533.7976,-3472.4507L13533.7946,-3472.4526L13533.795,-3472.4531L13533.7899,-3472.4564L13533.7893,-3472.4558L13533.7762,-3472.4643L13533.7443,-3472.397L13533.7422,-3472.3977L13533.7576,-3472.4302L13533.7559,-3472.4309L13533.7317,-3472.4395L13533.7282,-3472.4408L13533.7447,-3472.4745L13533.7246,-3472.4862L13533.7148,-3472.4919L13533.7134,-3472.4927L13533.7123,-3472.4934L13533.71,-3472.4947L13533.712,-3472.4968L13533.7068,-3472.5L13533.7017,-3472.5032L13533.7039,-3472.5058L13533.6952,-3472.5112L13533.6926,-3472.5092L13533.6752,-3472.52L13533.6721,-3472.5173L13533.6218,-3472.5463L13533.6236,-3472.5484L13533.5862,-3472.5704L13533.585,-3472.5705L13533.5854,-3472.587L13533.5872,-3472.6119L13533.5876,-3472.6159L13533.574,-3472.6172L13533.5744,-3472.6243L13533.5681,-3472.6367L13533.5681,-3472.6377L13533.5715,-3472.6612L13533.5961,-3472.6586L13533.607,-3472.6678L13533.6083,-3472.6681L13533.6629,-3472.6703L13533.679,-3472.6709L13533.6962,-3472.6705L13533.704,-3472.6704L13533.7183,-3472.6699L13533.7183,-3472.6688L13533.7399,-3472.6682L13533.7405,-3472.6731L13533.7434,-3472.6918L13533.7459,-3472.7072L13533.747,-3472.7109L13533.6832,-3472.7137L13533.6466,-3472.7151L13533.6229,-3472.716L13533.6183,-3472.7167L13533.6139,-3472.7194L13533.6139,-3472.7208L13533.6066,-3472.7215L13533.6055,-3472.7215L13533.5995,-3472.7247L13533.5922,-3472.7248L13533.5848,-3472.7249L13533.5751,-3472.7257L13533.5433,-3472.5693L13533.5308,-3472.5542L13533.5276,-3472.5483L13533.5266,-3472.5465L13533.526,-3472.5453L13533.5038,-3472.513L13533.5027,-3472.5114L13533.4948,-3472.5L13533.4937,-3472.4985L13533.4749,-3472.4683L13533.4748,-3472.4681L13533.4739,-3472.4664L13533.4455,-3472.4154L13533.4666,-3472.4082L13533.5111,-3472.3933L13533.5136,-3472.3925L13533.5333,-3472.3858L13533.5351,-3472.3811L13533.5356,-3472.3794L13533.5376,-3472.3748L13533.5374,-3472.3729L13533.5384,-3472.3707L13533.5374,-3472.3684L13533.5336,-3472.3598L13533.5327,-3472.3576L13533.5229,-3472.3309L13533.5243,-3472.3302L13533.525,-3472.3295L13533.5252,-3472.3281L13533.5241,-3472.3244L13533.523,-3472.3234L13533.5214,-3472.3231L13533.5136,-3472.3227L13533.5124,-3472.3227L13533.4991,-3472.323L13533.4947,-3472.321L13533.493,-3472.3195L13533.4913,-3472.3162L13533.4892,-3472.3095L13533.4882,-3472.3019L13533.487,-3472.289L13533.4863,-3472.2775L13533.4852,-3472.2721L13533.4839,-3472.2671L13533.4818,-3472.2577L13533.4802,-3472.253L13533.4791,-3472.249L13533.4773,-3472.2435L13533.4754,-3472.2387L13533.4738,-3472.2337L13533.4719,-3472.2284L13533.4703,-3472.2206L13533.469,-3472.2155L13533.4684,-3472.1758L13533.4566,-3472.1758L13533.4511,-3472.1759L13533.4359,-3472.1762L13533.436,-3472.1946L13533.4349,-3472.1992L13533.4322,-3472.2042L13533.4297,-3472.207L13533.4255,-3472.211L13533.4185,-3472.2167L13533.3858,-3472.237L13533.3545,-3472.2557L13533.3333,-3472.2682L13533.3286,-3472.2709L13533.3128,-3472.2801L13533.3116,-3472.2823L13533.3067,-3472.2867L13533.2983,-3472.2905L13533.286,-3472.2963L13533.2721,-3472.3026L13533.2563,-3472.3097L13533.2401,-3472.3164L13533.2098,-3472.3275L13533.1759,-3472.3391L13533.127,-3472.3584L13533.0637,-3472.3836L13533.0209,-3472.4003L13533.0053,-3472.4074L13532.9825,-3472.4189L13532.9704,-3472.423L13532.9629,-3472.4248L13532.9534,-3472.4268L13532.9498,-3472.4273L13532.9407,-3472.4278L13532.9337,-3472.4275L13532.9285,-3472.4269L13532.9234,-3472.4251L13532.9191,-3472.4235L13532.9159,-3472.4223L13532.9129,-3472.4213L13532.8258,-3472.4371L13532.8209,-3472.4395L13532.8188,-3472.4409L13532.8171,-3472.443L13532.8129,-3472.4478L13532.8096,-3472.4518L13532.8071,-3472.4542L13532.7972,-3472.462L13532.7883,-3472.467L13532.7875,-3472.4673L13532.7789,-3472.4706L13532.7509,-3472.4788L13532.7212,-3472.487L13532.7003,-3472.4944L13532.6998,-3472.4946L13532.6946,-3472.4969L13532.6884,-3472.499L13532.6853,-3472.4999L13532.6851,-3472.5L13532.6839,-3472.5005L13532.6807,-3472.5023L13532.6782,-3472.5035L13532.6648,-3472.5084L13532.6607,-3472.5095L13532.6541,-3472.5112L13532.6521,-3472.5116L13532.6509,-3472.5116L13532.6498,-3472.5116L13532.6453,-3472.5111L13532.6432,-3472.5111L13532.6411,-3472.5114L13532.6389,-3472.512L13532.5961,-3472.5233L13532.5936,-3472.5241L13532.5906,-3472.5253L13532.589,-3472.5258L13532.5818,-3472.5278L13532.5773,-3472.5284L13532.552,-3472.533L13532.5483,-3472.5339L13532.5428,-3472.5356L13532.5384,-3472.5374L13532.5308,-3472.541L13532.5214,-3472.5452L13532.5098,-3472.5495L13532.5034,-3472.5514L13532.5001,-3472.5522L13532.5,-3472.5522L13532.4932,-3472.5536L13532.4916,-3472.5537L13532.4872,-3472.5537L13532.4843,-3472.5545L13532.4818,-3472.555L13532.4689,-3472.5564L13532.4619,-3472.5569L13532.4583,-3472.5571L13532.4489,-3472.5573L13532.4442,-3472.5573L13532.4434,-3472.5568L13532.4423,-3472.5568L13532.4404,-3472.5571L13532.4391,-3472.5575L13532.4385,-3472.5582L13532.438,-3472.5594L13532.4383,-3472.5609L13532.4394,-3472.5837L13532.4396,-3472.5844L13532.4345,-3472.5844L13532.4346,-3472.5921L13532.4369,-3472.6277L13532.4372,-3472.6313L13532.4374,-3472.6352L13532.4383,-3472.6477L13532.4406,-3472.6571L13532.4645,-3472.6788L13532.4668,-3472.6856L13532.4632,-3472.7005L13532.4565,-3472.7389L13532.4541,-3472.7524L13532.4526,-3472.7591L13532.4495,-3472.7726L13532.4473,-3472.7822L13532.4419,-3472.7968L13532.4342,-3472.8088L13532.4265,-3472.8248L13532.413,-3472.8651L13532.4071,-3472.8827L13532.4011,-3472.9029L13532.3985,-3472.9118L13532.3971,-3472.9163L13532.3931,-3472.95L13532.3921,-3472.9652L13532.391,-3472.9742L13532.3894,-3472.9865L13532.3896,-3472.9957L13532.3899,-3473.0127L13532.3917,-3473.0381L13532.3921,-3473.059L13532.3867,-3473.0683L13532.379,-3473.0724L13532.3716,-3473.0741L13532.3641,-3473.0758L13532.3584,-3473.0767L13532.3395,-3473.0796L13532.3183,-3473.0804L13532.2943,-3473.0834L13532.2803,-3473.086L13532.2764,-3473.0908L13532.2699,-3473.099L13532.2594,-3473.1218L13532.2789,-3473.1289L13532.2884,-3473.133L13532.2879,-3473.1371L13532.2842,-3473.1443L13532.2793,-3473.1536L13532.2613,-3473.1793L13532.2558,-3473.1942L13532.2585,-3473.201L13532.268,-3473.2043L13532.2852,-3473.2084L13532.2866,-3473.2122L13532.2823,-3473.2183L13532.2815,-3473.2194L13532.2772,-3473.2254L13532.2759,-3473.2272L13532.2729,-3473.2315L13532.2656,-3473.2417L13532.265,-3473.2426L13532.2539,-3473.2582L13532.2445,-3473.2714L13532.2327,-3473.2841L13532.2081,-3473.3031L13532.1821,-3473.323L13532.1794,-3473.3323L13532.1791,-3473.3333L13532.1776,-3473.3386L13532.1753,-3473.3551L13532.1731,-3473.3726L13532.172,-3473.3778L13532.1712,-3473.382L13532.17,-3473.3878L13532.1681,-3473.3975L13532.1681,-3473.3977L13532.1604,-3473.413L13532.1495,-3473.4227L13532.1387,-3473.4234L13532.1184,-3473.4219L13532.1061,-3473.4177L13532.1021,-3473.4163L13532.0863,-3473.4163L13532.0862,-3473.4165L13532.0849,-3473.4264L13532.0867,-3473.4454L13532.0836,-3473.4598L13532.079,-3473.4806L13532.093,-3473.4888L13532.0935,-3473.4929L13532.0837,-3473.5167L13532.0779,-3473.5308L13532.0716,-3473.546L13532.0618,-3473.5699L13532.0573,-3473.5852L13532.0654,-3473.5968L13532.0758,-3473.611L13532.0794,-3473.6203L13532.0757,-3473.6301L13532.0736,-3473.6356L13532.0623,-3473.6591L13532.0541,-3473.6647L13532.0446,-3473.6666L13532.022,-3473.67L13531.9994,-3473.6722L13531.9766,-3473.6799L13531.9741,-3473.6808L13531.9556,-3473.6895L13531.9352,-3473.6991L13531.9189,-3473.7081L13531.9067,-3473.7163L13531.9031,-3473.723L13531.9076,-3473.7267L13531.918,-3473.7275L13531.9306,-3473.7256L13531.9415,-3473.726L13531.9519,-3473.729L13531.9573,-3473.7409L13531.9567,-3473.7528L13531.9564,-3473.7581L13531.9533,-3473.7828L13531.9397,-3473.8078L13531.932,-3473.8138L13531.9189,-3473.813L13531.9126,-3473.8126L13531.908,-3473.8212L13531.9019,-3473.8279L13531.8967,-3473.8336L13531.8881,-3473.8366L13531.8723,-3473.8358L13531.8556,-3473.8336L13531.8528,-3473.8343L13531.8525,-3473.8344L13531.8447,-3473.8366L13531.8433,-3473.8384L13531.8379,-3473.8455L13531.8308,-3473.852L13531.8255,-3473.857L13531.8149,-3473.8668L13531.8091,-3473.8777L13531.7977,-3473.8996L13531.7891,-3473.9109L13531.7868,-3473.9258L13531.7782,-3473.9336L13531.7606,-3473.9377L13531.7551,-3473.9412L13531.7439,-3473.9482L13531.7313,-3473.9701L13531.7244,-3473.9896L13531.7554,-3473.9947L13531.755,-3474.015L13531.7552,-3474.0349L13531.7541,-3474.0554L13531.739,-3474.0596L13531.679,-3474.0576L13531.6667,-3474.0718L13531.6489,-3474.0923L13531.6337,-3474.0929L13531.6316,-3474.1028L13531.6559,-3474.1131L13531.6524,-3474.1384L13531.6667,-3474.141L13531.6797,-3474.1435L13531.6764,-3474.1579L13531.6751,-3474.1667L13531.6728,-3474.1814L13531.6667,-3474.2284L13531.6615,-3474.2677L13531.6552,-3474.3405L13531.6538,-3474.3471L13531.6439,-3474.395L13531.6353,-3474.4761L13531.6466,-3474.4758L13531.6667,-3474.4754L13531.6921,-3474.4748L13531.7033,-3474.4746L13531.7221,-3474.4742L13531.7298,-3474.5052L13531.7339,-3474.5257L13531.734,-3474.5282L13531.7344,-3474.5388L13531.738,-3474.5713L13531.738,-3474.609L13531.7339,-3474.6244L13531.7307,-3474.6363L13531.7095,-3474.6361L13531.6941,-3474.6359L13531.6851,-3474.6576L13531.6679,-3474.6912L13531.6667,-3474.6927L13531.6629,-3474.6973L13531.6502,-3474.7132L13531.6321,-3474.7341L13531.6026,-3474.7592L13531.5883,-3474.7714L13531.5886,-3474.7757L13531.58,-3474.7877L13531.5637,-3474.7992L13531.5425,-3474.8048L13531.5325,-3474.8086L13531.5276,-3474.8187L13531.5185,-3474.8314L13531.5022,-3474.8441L13531.4877,-3474.8497L13531.4687,-3474.8486L13531.4412,-3474.8433L13531.4263,-3474.8414L13531.4181,-3474.8452L13531.4154,-3474.8527L13531.4186,-3474.8612L13531.4335,-3474.881L13531.4584,-3474.9076L13531.4665,-3474.9289L13531.4665,-3474.9483L13531.4629,-3474.9625L13531.4362,-3474.986L13531.4223,-3475L13531.4195,-3475.0028L13531.4123,-3475.0218L13531.4018,-3475.0397L13531.3937,-3475.0711L13531.3806,-3475.0921L13531.367,-3475.1059L13531.3527,-3475.1138L13531.3168,-3475.1487L13531.2962,-3475.1827L13531.2843,-3475.2069L13531.2803,-3475.2259L13531.2779,-3475.2357L13531.274,-3475.2515L13531.2716,-3475.2691L13531.2637,-3475.2933L13531.2565,-3475.3051L13531.2478,-3475.3274L13531.2304,-3475.3536L13531.2193,-3475.3673L13531.1948,-3475.4003L13531.1874,-3475.4069L13531.1829,-3475.4109L13531.1634,-3475.4283L13531.163,-3475.4287L13531.1521,-3475.4384L13531.1477,-3475.4432L13531.1413,-3475.4501L13531.1377,-3475.4539L13531.0959,-3475.4971L13531.0919,-3475.5012L13531.0856,-3475.5076L13531.0545,-3475.5333L13531.0538,-3475.534L13531.0069,-3475.5821L13530.9926,-3475.5969L13530.9847,-3475.605L13530.9823,-3475.6075L13530.975,-3475.615L13530.9117,-3475.6714L13530.8691,-3475.7095L13530.8423,-3475.7519L13530.8333,-3475.7601L13530.8294,-3475.7637L13530.8246,-3475.7681L13530.796,-3475.7942L13530.7566,-3475.8291L13530.7525,-3475.8333L13530.7161,-3475.8709L13530.6807,-3475.9126L13530.6453,-3475.9586L13530.6279,-3475.9824L13530.5957,-3476.0394L13530.5806,-3476.0644L13530.5733,-3476.0859L13530.5701,-3476.0976L13530.569,-3476.1014L13530.5668,-3476.1301L13530.5683,-3476.1587L13530.5686,-3476.1709L13530.5614,-3476.1984L13530.5563,-3476.2109L13530.5506,-3476.2174L13530.5245,-3476.2454L13530.5137,-3476.258L13530.5014,-3476.2747L13530.4913,-3476.2896L13530.4717,-3476.3281L13530.4688,-3476.3337L13530.4533,-3476.346L13530.4301,-3476.3567L13530.4128,-3476.3621L13530.3484,-3476.3847L13530.3217,-3476.3949L13530.3007,-3476.4002L13530.2804,-3476.4009L13530.2704,-3476.4038L13530.2624,-3476.4086L13530.2588,-3476.4163L13530.2563,-3476.4339L13530.2584,-3476.4512L13530.2555,-3476.4632L13530.2542,-3476.4659L13530.249,-3476.4769L13530.2396,-3476.4834L13530.2281,-3476.487L13530.1746,-3476.4948L13530.1572,-3476.5001L13530.1434,-3476.5067L13530.1369,-3476.5145L13530.1254,-3476.5312L13530.1124,-3476.5419L13530.1015,-3476.5509L13530.0863,-3476.5586L13530.074,-3476.561L13530.0559,-3476.5622L13530.0299,-3476.5658L13530.0089,-3476.5741L13530,-3476.5781L13529.9901,-3476.5824L13529.9743,-3476.5908L13529.9471,-3476.6167L13529.9327,-3476.6334L13529.9218,-3476.6501L13529.9133,-3476.6667L13529.9096,-3476.674L13529.9059,-3476.6925L13529.9059,-3476.7056L13529.9124,-3476.7182L13529.9204,-3476.7349L13529.9225,-3476.7498L13529.9196,-3476.7641L13529.9099,-3476.7805L13529.9005,-3476.7871L13529.8781,-3476.8001L13529.8766,-3476.8018L13529.8673,-3476.8121L13529.8549,-3476.8347L13529.8477,-3476.8473L13529.8383,-3476.8628L13529.8361,-3476.8717L13529.8383,-3476.8783L13529.8484,-3476.8986L13529.8571,-3476.9129L13529.8658,-3476.9356L13529.8618,-3476.9556L13529.8488,-3477.014L13529.8437,-3477.0229L13529.8307,-3477.0307L13529.8141,-3477.0384L13529.7975,-3477.0438L13529.7808,-3477.0462L13529.7678,-3477.048L13529.7599,-3477.051L13529.7541,-3477.0593L13529.7432,-3477.0731L13529.7251,-3477.0838L13529.7027,-3477.0879L13529.6909,-3477.0906L13529.6829,-3477.0924L13529.6763,-3477.0954L13529.6763,-3477.1026L13529.6792,-3477.1139L13529.6944,-3477.1473L13529.6995,-3477.1688L13529.6995,-3477.1849L13529.6987,-3477.2099L13529.6995,-3477.2302L13529.7016,-3477.2541L13529.7111,-3477.2904L13529.7132,-3477.3054L13529.7121,-3477.314L13529.7035,-3477.323L13529.6687,-3477.3307L13529.6521,-3477.3295L13529.6377,-3477.3176L13529.6196,-3477.3045L13529.5899,-3477.2985L13529.5813,-3477.2997L13529.5661,-3477.3057L13529.5531,-3477.3134L13529.5465,-3477.3337L13529.5343,-3477.3677L13529.5305,-3477.3878L13529.5201,-3477.4426L13529.5173,-3477.4587L13529.5093,-3477.4712L13529.4963,-3477.4867L13529.4912,-3477.4981L13529.4905,-3477.5L13529.4833,-3477.5189L13529.477,-3477.5393L13529.4701,-3477.5476L13529.4586,-3477.5533L13529.4427,-3477.5571L13529.4267,-3477.5588L13529.4117,-3477.5583L13529.3954,-3477.5559L13529.3829,-3477.5559L13529.3516,-3477.5625L13529.3067,-3477.571L13529.2842,-3477.5785L13529.1667,-3477.6233L13529.162,-3477.6251L13529.1328,-3477.6354L13529.0962,-3477.6447L13529.0429,-3477.6635L13528.9653,-3477.6905L13528.9174,-3477.7038L13528.9003,-3477.7078L13528.8652,-3477.7075L13528.8388,-3477.7103L13528.8028,-3477.7137L13528.7566,-3477.7174L13528.7261,-3477.7152L13528.7092,-3477.7143L13528.6927,-3477.7149L13528.6825,-3477.7224L13528.6747,-3477.7404L13528.6678,-3477.7518L13528.6541,-3477.7686L13528.6426,-3477.781L13528.6295,-3477.7976L13528.6094,-3477.8157L13528.6007,-3477.8248L13528.5851,-3477.8395L13528.5749,-3477.8482L13528.5669,-3477.8545L13528.5487,-3477.863L13528.5302,-3477.8709L13528.5126,-3477.8824L13528.5031,-3477.8878L13528.4865,-3477.8959L13528.4632,-3477.9054L13528.4437,-3477.9186L13528.4271,-3477.9355L13528.4191,-3477.9534L13528.4207,-3477.9647L13528.4284,-3477.9816L13528.4478,-3478.006L13528.4623,-3478.0301L13528.4717,-3478.0462L13528.4731,-3478.0563L13528.4706,-3478.0638L13528.4656,-3478.0674L13528.454,-3478.0716L13528.3333,-3478.0763L13528.2183,-3478.0808L13527.615,-3478.1043L13527.5692,-3478.1061L13527.5,-3478.1088L13527.3469,-3478.1148L13527.2447,-3478.1188L13527.1897,-3478.121L13527.1825,-3478.1138L13527.1759,-3478.1049L13527.1702,-3478.0941L13527.1615,-3478.0786L13527.1492,-3478.0637L13527.1376,-3478.0565L13527.121,-3478.0517L13527.1124,-3478.0507L13527.0949,-3478.0487L13527.0848,-3478.0476L13527.069,-3478.0476L13527.0538,-3478.05L13527.0444,-3478.0506L13527.0227,-3478.0482L13526.9807,-3478.0392L13526.9561,-3478.0369L13526.9359,-3478.0386L13526.9133,-3478.0503L13526.9128,-3478.0506L13526.8874,-3478.0744L13526.8719,-3478.0831L13526.8122,-3478.0923L13526.783,-3478.0968L13526.7521,-3478.1001L13526.7417,-3478.1714L13526.7328,-3478.2199L13526.778,-3478.2099L13526.7902,-3478.2176L13526.7967,-3478.2287L13526.804,-3478.2377L13526.8203,-3478.2639L13526.8333,-3478.2823L13526.8497,-3478.3257L13526.8539,-3478.3333L13526.865,-3478.3539L13526.9212,-3478.3755L13526.9334,-3478.3816L13526.9377,-3478.3882L13526.9357,-3478.3975L13526.9113,-3478.4216L13526.9051,-3478.4385L13526.9008,-3478.4469L13526.8979,-3478.4565L13526.8979,-3478.4642L13526.8908,-3478.4931L13526.89,-3478.534L13526.8835,-3478.5424L13526.8633,-3478.5727L13526.8481,-3478.5919L13526.8475,-3478.6045L13526.8572,-3478.612L13526.8611,-3478.6229L13526.8541,-3478.6373L13526.85,-3478.6527L13526.8553,-3478.6675L13526.8814,-3478.7266L13526.8876,-3478.7454L13526.9042,-3478.7579L13526.9123,-3478.7722L13526.9127,-3478.8057L13526.9059,-3478.8782L13526.9086,-3478.8929L13526.9087,-3478.8937L13526.9174,-3478.9074L13526.937,-3478.9259L13526.9471,-3478.9366L13526.9536,-3478.945L13526.955,-3478.9569L13526.9464,-3478.9652L13526.9406,-3478.9682L13526.9196,-3478.9843L13526.9077,-3478.993L13526.8997,-3479.0043L13526.8932,-3479.0162L13526.8918,-3479.0222L13526.8918,-3479.0461L13526.8947,-3479.0526L13526.9004,-3479.0586L13526.9257,-3479.0765L13526.9511,-3479.0986L13526.9684,-3479.1081L13527.0494,-3479.1487L13527.0741,-3479.1667L13527.0798,-3479.1708L13527.0946,-3479.183L13527.0982,-3479.1919L13527.0975,-3479.1997L13527.0939,-3479.2116L13527.0736,-3479.2402L13527.0491,-3479.2724L13527.0042,-3479.3554L13526.9959,-3479.3795L13526.9916,-3479.395L13526.9901,-3479.4028L13526.9908,-3479.4106L13526.9952,-3479.4261L13527.0031,-3479.4618L13527.0133,-3479.4773L13527.0215,-3479.4901L13527.0248,-3479.4952L13527.0327,-3479.5125L13527.0342,-3479.5268L13527.032,-3479.5436L13527.0281,-3479.5647L13527.0281,-3479.5791L13527.0317,-3479.5928L13527.036,-3479.6047L13526.976,-3479.617L13526.9254,-3479.6274L13526.8972,-3479.6351L13526.8871,-3479.6411L13526.8784,-3479.6488L13526.8661,-3479.6661L13526.8617,-3479.6798L13526.861,-3479.6906L13526.8625,-3479.7049L13526.8719,-3479.7252L13526.8787,-3479.7452L13526.8802,-3479.7642L13526.8802,-3479.7756L13526.8708,-3479.7971L13526.8694,-3479.8084L13526.8715,-3479.8156L13526.8853,-3479.8322L13526.92,-3479.8704L13526.9352,-3479.8901L13526.9386,-3479.9048L13526.9402,-3479.9116L13526.9377,-3479.9345L13526.9333,-3479.9506L13526.9333,-3479.9602L13526.9369,-3479.9822L13526.9423,-3480L13526.9434,-3480.0037L13526.9434,-3480.024L13526.9384,-3480.0364L13526.9348,-3480.0455L13526.9333,-3480.0574L13526.9348,-3480.0676L13526.9384,-3480.0974L13526.9489,-3480.1209L13526.9568,-3480.1305L13526.9698,-3480.1418L13526.9771,-3480.1496L13526.98,-3480.1585L13526.9793,-3480.1847L13526.9829,-3480.1919L13526.9908,-3480.2021L13527.0031,-3480.2098L13527.0197,-3480.2158L13527.0393,-3480.2211L13527.0455,-3480.2251L13527.048,-3480.2308L13527.0489,-3480.2464L13527.049,-3480.2482L13527.0469,-3480.2571L13527.0122,-3480.2601L13526.9796,-3480.2637L13526.9594,-3480.2637L13526.9384,-3480.2583L13526.9189,-3480.2494L13526.9066,-3480.2398L13526.8936,-3480.2351L13526.8329,-3480.2273L13526.801,-3480.2398L13526.7895,-3480.2416L13526.7244,-3480.2542L13526.7225,-3480.2543L13526.707,-3480.2554L13526.6933,-3480.2536L13526.6788,-3480.2488L13526.6667,-3480.2433L13526.6629,-3480.2416L13526.6191,-3480.2193L13526.6079,-3480.2136L13526.5775,-3480.2112L13526.5353,-3480.2079L13526.4847,-3480.2067L13526.4709,-3480.2115L13526.4601,-3480.2216L13526.4514,-3480.2312L13526.4232,-3480.258L13526.4203,-3480.2652L13526.4203,-3480.2717L13526.4239,-3480.2884L13526.4247,-3480.304L13526.4232,-3480.3153L13526.4239,-3480.3257L13526.4243,-3480.3329L13526.4221,-3480.34L13526.4171,-3480.3442L13526.4019,-3480.3454L13526.3918,-3480.346L13526.3838,-3480.3466L13526.3773,-3480.3496L13526.3694,-3480.3597L13526.3672,-3480.3623L13526.3672,-3480.4688Z"/>
<path content="兵庫県,,,西宮市,,28204" xlink:title="兵庫県" d="M13533.0308,-3472.2107L13533.0252,-3472.1748L13533.0243,-3472.1748L13533.0239,-3472.1717L13533.1348,-3472.1596L13533.232,-3472.1497L13533.3271,-3472.1394L13533.3333,-3472.1388L13533.3977,-3472.1322L13533.4325,-3472.1283L13533.4333,-3472.1378L13533.4399,-3472.1378L13533.4399,-3472.1362L13533.4513,-3472.1363L13533.4565,-3472.1364L13533.4698,-3472.1357L13533.4698,-3472.1338L13533.4668,-3472.1316L13533.4667,-3472.127L13533.4716,-3472.1241L13533.5553,-3472.0738L13533.5764,-3472.061L13533.7796,-3471.9383L13533.7902,-3471.9318L13533.7982,-3471.9269L13533.8159,-3471.9161L13533.8201,-3471.9135L13533.8216,-3471.9126L13533.8249,-3471.9107L13533.8592,-3471.8903L13533.8684,-3471.8848L13533.904,-3471.8637L13533.9128,-3471.8584L13533.9219,-3471.853L13533.9221,-3471.8529L13533.923,-3471.8541L13533.9517,-3471.8365L13533.9518,-3471.8353L13533.9739,-3471.8222L13533.9764,-3471.8207L13533.9815,-3471.8175L13533.995,-3471.8093L13533.9959,-3471.8087L13534.0174,-3471.7956L13534.018,-3471.7947L13534.0187,-3471.7943L13534.021,-3471.7968L13534.0296,-3471.7916L13534.0381,-3471.8014L13534.0414,-3471.7996L13534.0461,-3471.8052L13534.0763,-3471.8092L13534.0824,-3471.7741L13534.0933,-3471.7127L13534.0989,-3471.6797L13532.4799,-3471.6797L13532.4799,-3471.6816L13532.4796,-3471.696L13532.4808,-3471.6986L13532.5,-3471.7155L13532.5428,-3471.7533L13532.6152,-3471.8175L13532.69,-3471.8835L13532.7576,-3471.9437L13532.828,-3472.0066L13532.9004,-3472.0706L13532.9901,-3472.1494L13533.0164,-3472.1721L13533.0182,-3472.1724L13533.0196,-3472.1722L13533.02,-3472.1753L13533.0207,-3472.1752L13533.0261,-3472.2111L13533.0308,-3472.2107Z"/>
<path content="兵庫県,,,芦屋市,,28206" xlink:title="兵庫県" d="M13528.4731,-3478.0563L13528.4717,-3478.0462L13528.4623,-3478.0301L13528.4478,-3478.006L13528.4284,-3477.9816L13528.4207,-3477.9647L13528.4191,-3477.9534L13528.4271,-3477.9355L13528.4437,-3477.9186L13528.4632,-3477.9054L13528.4865,-3477.8959L13528.5031,-3477.8878L13528.5126,-3477.8824L13528.5302,-3477.8709L13528.5487,-3477.863L13528.5669,-3477.8545L13528.5749,-3477.8482L13528.5851,-3477.8395L13528.6007,-3477.8248L13528.6094,-3477.8157L13528.6295,-3477.7976L13528.6426,-3477.781L13528.6541,-3477.7686L13528.6678,-3477.7518L13528.6747,-3477.7404L13528.6825,-3477.7224L13528.6927,-3477.7149L13528.7092,-3477.7143L13528.7261,-3477.7152L13528.7566,-3477.7174L13528.8028,-3477.7137L13528.8388,-3477.7103L13528.8652,-3477.7075L13528.9003,-3477.7078L13528.9174,-3477.7038L13528.9653,-3477.6905L13529.0429,-3477.6635L13529.0962,-3477.6447L13529.1328,-3477.6354L13529.162,-3477.6251L13529.1667,-3477.6233L13529.2842,-3477.5785L13529.3067,-3477.571L13529.3516,-3477.5625L13529.3829,-3477.5559L13529.3954,-3477.5559L13529.4117,-3477.5583L13529.4267,-3477.5588L13529.4427,-3477.5571L13529.4586,-3477.5533L13529.4701,-3477.5476L13529.477,-3477.5393L13529.4833,-3477.5189L13529.4905,-3477.5L13529.4912,-3477.4981L13529.4963,-3477.4867L13529.5093,-3477.4712L13529.5173,-3477.4587L13529.5201,-3477.4426L13529.5305,-3477.3878L13529.5343,-3477.3677L13529.5465,-3477.3337L13529.5531,-3477.3134L13529.5661,-3477.3057L13529.5813,-3477.2997L13529.5899,-3477.2985L13529.6196,-3477.3045L13529.6377,-3477.3176L13529.6521,-3477.3295L13529.6687,-3477.3307L13529.7035,-3477.323L13529.7121,-3477.314L13529.7132,-3477.3054L13529.7111,-3477.2904L13529.7016,-3477.2541L13529.6995,-3477.2302L13529.6987,-3477.2099L13529.6995,-3477.1849L13529.6995,-3477.1688L13529.6944,-3477.1473L13529.6792,-3477.1139L13529.6763,-3477.1026L13529.6763,-3477.0954L13529.6829,-3477.0924L13529.6909,-3477.0906L13529.7027,-3477.0879L13529.7251,-3477.0838L13529.7432,-3477.0731L13529.7541,-3477.0593L13529.7599,-3477.051L13529.7678,-3477.048L13529.7808,-3477.0462L13529.7975,-3477.0438L13529.8141,-3477.0384L13529.8307,-3477.0307L13529.8437,-3477.0229L13529.8488,-3477.014L13529.8618,-3476.9556L13529.8658,-3476.9356L13529.8571,-3476.9129L13529.8484,-3476.8986L13529.8383,-3476.8783L13529.8361,-3476.8717L13529.8383,-3476.8628L13529.8477,-3476.8473L13529.8549,-3476.8347L13529.8673,-3476.8121L13529.8766,-3476.8018L13529.8781,-3476.8001L13529.9005,-3476.7871L13529.9099,-3476.7805L13529.9196,-3476.7641L13529.9225,-3476.7498L13529.9204,-3476.7349L13529.9124,-3476.7182L13529.9059,-3476.7056L13529.9059,-3476.6925L13529.9096,-3476.674L13529.9133,-3476.6667L13529.9218,-3476.6501L13529.9327,-3476.6334L13529.9471,-3476.6167L13529.9743,-3476.5908L13529.9901,-3476.5824L13530,-3476.5781L13530.0089,-3476.5741L13530.0299,-3476.5658L13530.0559,-3476.5622L13530.074,-3476.561L13530.0863,-3476.5586L13530.1015,-3476.5509L13530.1124,-3476.5419L13530.1254,-3476.5312L13530.1369,-3476.5145L13530.1434,-3476.5067L13530.1572,-3476.5001L13530.1746,-3476.4948L13530.2281,-3476.487L13530.2396,-3476.4834L13530.249,-3476.4769L13530.2542,-3476.4659L13530.2555,-3476.4632L13530.2584,-3476.4512L13530.2563,-3476.4339L13530.2588,-3476.4163L13530.2624,-3476.4086L13530.2704,-3476.4038L13530.2804,-3476.4009L13530.3007,-3476.4002L13530.3217,-3476.3949L13530.3484,-3476.3847L13530.4128,-3476.3621L13530.4301,-3476.3567L13530.4533,-3476.346L13530.4688,-3476.3337L13530.4717,-3476.3281L13530.4913,-3476.2896L13530.5014,-3476.2747L13530.5137,-3476.258L13530.5245,-3476.2454L13530.5506,-3476.2174L13530.5563,-3476.2109L13530.5614,-3476.1984L13530.5686,-3476.1709L13530.5683,-3476.1587L13530.5668,-3476.1301L13530.569,-3476.1014L13530.5701,-3476.0976L13530.5733,-3476.0859L13530.5806,-3476.0644L13530.5957,-3476.0394L13530.6279,-3475.9824L13530.6453,-3475.9586L13530.6807,-3475.9126L13530.7161,-3475.8709L13530.7525,-3475.8333L13530.7566,-3475.8291L13530.796,-3475.7942L13530.8246,-3475.7681L13530.8294,-3475.7637L13530.8333,-3475.7601L13530.8423,-3475.7519L13530.8691,-3475.7095L13530.9117,-3475.6714L13530.975,-3475.615L13530.9823,-3475.6075L13530.9847,-3475.605L13530.9926,-3475.5969L13531.0069,-3475.5821L13531.0538,-3475.534L13531.0545,-3475.5333L13531.0856,-3475.5076L13531.0919,-3475.5012L13531.0959,-3475.4971L13531.1377,-3475.4539L13531.1413,-3475.4501L13531.1477,-3475.4432L13531.1521,-3475.4384L13531.163,-3475.4287L13531.1634,-3475.4283L13531.1829,-3475.4109L13531.1874,-3475.4069L13531.1948,-3475.4003L13531.2193,-3475.3673L13531.2304,-3475.3536L13531.2478,-3475.3274L13531.2565,-3475.3051L13531.2637,-3475.2933L13531.2716,-3475.2691L13531.274,-3475.2515L13531.2779,-3475.2357L13531.2803,-3475.2259L13531.2843,-3475.2069L13531.2962,-3475.1827L13531.3168,-3475.1487L13531.3527,-3475.1138L13531.367,-3475.1059L13531.3806,-3475.0921L13531.3937,-3475.0711L13531.4018,-3475.0397L13531.4123,-3475.0218L13531.4195,-3475.0028L13531.4223,-3475L13531.4362,-3474.986L13531.4629,-3474.9625L13531.4665,-3474.9483L13531.4665,-3474.9289L13531.4584,-3474.9076L13531.4335,-3474.881L13531.4186,-3474.8612L13531.4154,-3474.8527L13531.4181,-3474.8452L13531.4263,-3474.8414L13531.4412,-3474.8433L13531.4687,-3474.8486L13531.4877,-3474.8497L13531.5022,-3474.8441L13531.5185,-3474.8314L13531.5276,-3474.8187L13531.5325,-3474.8086L13531.5425,-3474.8048L13531.5637,-3474.7992L13531.58,-3474.7877L13531.5886,-3474.7757L13531.5883,-3474.7714L13531.6026,-3474.7592L13531.6321,-3474.7341L13531.6502,-3474.7132L13531.6629,-3474.6973L13531.6667,-3474.6927L13531.6679,-3474.6912L13531.6851,-3474.6576L13531.6941,-3474.6359L13531.7095,-3474.6361L13531.7307,-3474.6363L13531.7339,-3474.6244L13531.738,-3474.609L13531.738,-3474.5713L13531.7344,-3474.5388L13531.734,-3474.5282L13531.7339,-3474.5257L13531.7298,-3474.5052L13531.7221,-3474.4742L13531.7033,-3474.4746L13531.6921,-3474.4748L13531.6667,-3474.4754L13531.6466,-3474.4758L13531.6353,-3474.4761L13531.6439,-3474.395L13531.6538,-3474.3471L13531.6552,-3474.3405L13531.6615,-3474.2677L13531.6667,-3474.2284L13531.6728,-3474.1814L13531.6751,-3474.1667L13531.6764,-3474.1579L13531.6797,-3474.1435L13531.6667,-3474.141L13531.6524,-3474.1384L13531.6559,-3474.1131L13531.6316,-3474.1028L13531.6337,-3474.0929L13531.6489,-3474.0923L13531.6667,-3474.0718L13531.679,-3474.0576L13531.739,-3474.0596L13531.7541,-3474.0554L13531.7552,-3474.0349L13531.755,-3474.015L13531.7554,-3473.9947L13531.7244,-3473.9896L13531.7313,-3473.9701L13531.7439,-3473.9482L13531.7551,-3473.9412L13531.7606,-3473.9377L13531.7782,-3473.9336L13531.7868,-3473.9258L13531.7891,-3473.9109L13531.7977,-3473.8996L13531.8091,-3473.8777L13531.8149,-3473.8668L13531.8255,-3473.857L13531.8308,-3473.852L13531.8379,-3473.8455L13531.8433,-3473.8384L13531.8447,-3473.8366L13531.8525,-3473.8344L13531.8528,-3473.8343L13531.8556,-3473.8336L13531.8723,-3473.8358L13531.8881,-3473.8366L13531.8967,-3473.8336L13531.9019,-3473.8279L13531.908,-3473.8212L13531.9126,-3473.8126L13531.9189,-3473.813L13531.932,-3473.8138L13531.9397,-3473.8078L13531.9533,-3473.7828L13531.9564,-3473.7581L13531.9567,-3473.7528L13531.9573,-3473.7409L13531.9519,-3473.729L13531.9415,-3473.726L13531.9306,-3473.7256L13531.918,-3473.7275L13531.9076,-3473.7267L13531.9031,-3473.723L13531.9067,-3473.7163L13531.9189,-3473.7081L13531.9352,-3473.6991L13531.9556,-3473.6895L13531.9741,-3473.6808L13531.9766,-3473.6799L13531.9994,-3473.6722L13532.022,-3473.67L13532.0446,-3473.6666L13532.0541,-3473.6647L13532.0623,-3473.6591L13532.0736,-3473.6356L13532.0757,-3473.6301L13532.0794,-3473.6203L13532.0758,-3473.611L13532.0654,-3473.5968L13532.0573,-3473.5852L13532.0618,-3473.5699L13532.0716,-3473.546L13532.0779,-3473.5308L13532.0837,-3473.5167L13532.0935,-3473.4929L13532.093,-3473.4888L13532.079,-3473.4806L13532.0836,-3473.4598L13532.0867,-3473.4454L13532.0849,-3473.4264L13532.0862,-3473.4165L13532.0863,-3473.4163L13532.1021,-3473.4163L13532.1061,-3473.4177L13532.1184,-3473.4219L13532.1387,-3473.4234L13532.1495,-3473.4227L13532.1604,-3473.413L13532.1681,-3473.3977L13532.1681,-3473.3975L13532.17,-3473.3878L13532.1712,-3473.382L13532.172,-3473.3778L13532.1731,-3473.3726L13532.1753,-3473.3551L13532.1776,-3473.3386L13532.1791,-3473.3333L13532.1794,-3473.3323L13532.1821,-3473.323L13532.2081,-3473.3031L13532.2327,-3473.2841L13532.2445,-3473.2714L13532.2539,-3473.2582L13532.265,-3473.2426L13532.2656,-3473.2417L13532.2729,-3473.2315L13532.2759,-3473.2272L13532.2772,-3473.2254L13532.2815,-3473.2194L13532.2823,-3473.2183L13532.2866,-3473.2122L13532.2852,-3473.2084L13532.268,-3473.2043L13532.2585,-3473.201L13532.2558,-3473.1942L13532.2613,-3473.1793L13532.2793,-3473.1536L13532.2842,-3473.1443L13532.2879,-3473.1371L13532.2884,-3473.133L13532.2789,-3473.1289L13532.2594,-3473.1218L13532.2699,-3473.099L13532.2764,-3473.0908L13532.2803,-3473.086L13532.2943,-3473.0834L13532.3183,-3473.0804L13532.3395,-3473.0796L13532.3584,-3473.0767L13532.3641,-3473.0758L13532.3716,-3473.0741L13532.379,-3473.0724L13532.3867,-3473.0683L13532.3921,-3473.059L13532.3917,-3473.0381L13532.3899,-3473.0127L13532.3896,-3472.9957L13532.3894,-3472.9865L13532.391,-3472.9742L13532.3921,-3472.9652L13532.3931,-3472.95L13532.3971,-3472.9163L13532.3985,-3472.9118L13532.4011,-3472.9029L13532.4071,-3472.8827L13532.413,-3472.8651L13532.4265,-3472.8248L13532.4342,-3472.8088L13532.4419,-3472.7968L13532.4473,-3472.7822L13532.4495,-3472.7726L13532.4526,-3472.7591L13532.4541,-3472.7524L13532.4565,-3472.7389L13532.4632,-3472.7005L13532.4668,-3472.6856L13532.4645,-3472.6788L13532.4406,-3472.6571L13532.4383,-3472.6477L13532.4374,-3472.6352L13532.4372,-3472.6313L13532.4369,-3472.6277L13532.4346,-3472.5921L13532.4345,-3472.5844L13532.429,-3472.5844L13532.4289,-3472.5839L13532.4282,-3472.5775L13532.4276,-3472.5711L13532.427,-3472.5658L13532.4268,-3472.5627L13532.4265,-3472.5597L13532.4264,-3472.5589L13532.4252,-3472.5577L13532.4231,-3472.5568L13532.4217,-3472.5566L13532.4202,-3472.5569L13532.4193,-3472.5574L13532.4185,-3472.5585L13532.4179,-3472.5605L13532.4176,-3472.5623L13532.4177,-3472.5642L13532.4178,-3472.5676L13532.4189,-3472.5725L13532.4203,-3472.586L13532.417,-3472.5864L13532.4061,-3472.5851L13532.3943,-3472.5842L13532.3848,-3472.5835L13532.3744,-3472.5831L13532.3606,-3472.5832L13532.3425,-3472.5824L13532.3194,-3472.5821L13532.3035,-3472.5815L13532.2824,-3472.5811L13532.2491,-3472.5811L13532.2363,-3472.5807L13532.2353,-3472.5799L13532.2363,-3472.5749L13532.2593,-3472.5591L13532.2836,-3472.5425L13532.2926,-3472.5365L13532.3459,-3472.5L13532.3495,-3472.4975L13532.3858,-3472.4727L13532.3862,-3472.4531L13532.3665,-3472.4528L13532.3671,-3472.426L13532.3868,-3472.4262L13532.3878,-3472.38L13532.3847,-3472.3801L13532.3849,-3472.2653L13532.3848,-3472.2522L13532.3847,-3472.2447L13532.3847,-3472.2348L13532.3846,-3472.2325L13532.3901,-3472.2324L13532.39,-3472.2267L13532.39,-3472.1982L13532.3902,-3472.168L13532.3901,-3472.141L13532.39,-3472.1159L13532.39,-3472.0915L13532.3904,-3472.0708L13532.3901,-3472.04L13532.39,-3472.0179L13532.3902,-3472.001L13532.3902,-3471.9758L13532.3905,-3471.9563L13532.3905,-3471.9486L13532.3906,-3471.895L13532.3901,-3471.8662L13532.3897,-3471.8463L13532.3896,-3471.8373L13532.3897,-3471.8364L13532.3898,-3471.8355L13532.3902,-3471.8347L13532.3905,-3471.8342L13532.391,-3471.8337L13532.3926,-3471.832L13532.3933,-3471.8314L13532.394,-3471.8305L13532.3946,-3471.8295L13532.3951,-3471.8287L13532.3954,-3471.8276L13532.396,-3471.8251L13532.3963,-3471.8232L13532.3965,-3471.8214L13532.3966,-3471.8192L13532.3966,-3471.8175L13532.3962,-3471.8155L13532.396,-3471.8138L13532.3956,-3471.8117L13532.395,-3471.8098L13532.3941,-3471.8078L13532.393,-3471.8064L13532.3915,-3471.8048L13532.3899,-3471.8033L13532.3882,-3471.8021L13532.3867,-3471.8011L13532.3846,-3471.7998L13532.383,-3471.7988L13532.3813,-3471.798L13532.3795,-3471.7973L13532.3776,-3471.7968L13532.3755,-3471.7963L13532.3732,-3471.796L13532.3708,-3471.7956L13532.3686,-3471.7954L13532.3661,-3471.7956L13532.3634,-3471.7958L13532.3608,-3471.7962L13532.3587,-3471.7967L13532.3566,-3471.7971L13532.3417,-3471.794L13532.3226,-3471.7901L13532.3096,-3471.7874L13532.2974,-3471.785L13532.2848,-3471.7824L13532.2276,-3471.7715L13532.2267,-3471.7746L13532.2253,-3471.7743L13532.2262,-3471.7712L13532.1959,-3471.7653L13532.095,-3471.7453L13532.0707,-3471.7403L13532.061,-3471.7385L13532.0618,-3471.735L13532.0303,-3471.729L13532.0213,-3471.7273L13532.0159,-3471.7265L13532.0156,-3471.7274L13532.014,-3471.7328L13532.0128,-3471.7325L13532.0144,-3471.7274L13532.0147,-3471.7263L13531.9512,-3471.714L13531.9503,-3471.7173L13531.9508,-3471.7174L13531.95,-3471.72L13531.9486,-3471.7197L13531.9503,-3471.7137L13531.9242,-3471.7085L13531.9179,-3471.7072L13531.891,-3471.702L13531.8455,-3471.6928L13531.8333,-3471.6903L13531.7955,-3471.6829L13531.7824,-3471.6803L13531.7805,-3471.6863L13531.7793,-3471.6861L13531.7811,-3471.6801L13531.7789,-3471.6797L13530.5638,-3471.6797L13530.5617,-3471.6998L13530.5582,-3471.7401L13530.554,-3471.7916L13530.5509,-3471.8316L13530.5498,-3471.8437L13530.5496,-3471.8483L13530.5485,-3471.8489L13530.5459,-3471.85L13530.5424,-3471.8515L13530.5396,-3471.8525L13530.5365,-3471.8534L13530.5329,-3471.8538L13530.5296,-3471.8543L13530.5264,-3471.8553L13530.5245,-3471.856L13530.522,-3471.8571L13530.5191,-3471.8587L13530.5155,-3471.861L13530.5128,-3471.8629L13530.5106,-3471.8649L13530.5094,-3471.8669L13530.5085,-3471.8685L13530.4917,-3471.8684L13530.4885,-3471.8683L13530.4729,-3471.8682L13530.4696,-3471.8675L13530.4674,-3471.867L13530.4661,-3471.8656L13530.4632,-3471.8655L13530.4609,-3471.8653L13530.455,-3471.8649L13530.4476,-3471.8653L13530.4425,-3471.866L13530.4368,-3471.8672L13530.4293,-3471.8703L13530.4229,-3471.8736L13530.4081,-3471.8843L13530.3704,-3471.8915L13530.36,-3471.8935L13530.3579,-3471.8945L13530.3559,-3471.8961L13530.355,-3471.8973L13530.3548,-3471.907L13530.352,-3471.9083L13530.3457,-3471.9095L13530.3426,-3471.9165L13530.3388,-3471.9287L13530.3394,-3471.9437L13530.3197,-3471.9972L13530.3081,-3472.0287L13530.2961,-3472.0613L13530.2907,-3472.0786L13530.2894,-3472.0829L13530.2716,-3472.1397L13530.2519,-3472.2063L13530.2472,-3472.2231L13530.2459,-3472.2276L13530.2417,-3472.2429L13530.2224,-3472.2926L13530.2202,-3472.2984L13530.2013,-3472.3469L13530.1974,-3472.357L13530.1825,-3472.4015L13530.1674,-3472.4369L13530.1631,-3472.4471L13530.1474,-3472.4841L13530.1468,-3472.4855L13530.1406,-3472.5L13530.1394,-3472.5029L13530.1136,-3472.5635L13530.1084,-3472.5734L13530.1068,-3472.5766L13530.0737,-3472.6399L13530.0721,-3472.6432L13530.0406,-3472.6935L13530.0364,-3472.7028L13530.0327,-3472.7112L13530.0075,-3472.7679L13530,-3472.7764L13529.9947,-3472.7825L13529.9845,-3472.801L13529.9717,-3472.819L13529.96,-3472.8441L13529.9301,-3472.8314L13529.9002,-3472.8159L13529.9056,-3472.8014L13529.9045,-3472.7904L13529.8959,-3472.7886L13529.8799,-3472.782L13529.865,-3472.7759L13529.8549,-3472.7741L13529.8495,-3472.7785L13529.8394,-3472.7939L13529.8234,-3472.7873L13529.7807,-3472.7675L13529.7552,-3472.7606L13529.7477,-3472.7586L13529.7324,-3472.7544L13529.6524,-3472.7326L13529.6456,-3472.7308L13529.6201,-3472.7239L13529.6104,-3472.7443L13529.5827,-3472.8027L13529.5955,-3472.8076L13529.5859,-3472.8287L13529.5987,-3472.8331L13529.6126,-3472.838L13529.6073,-3472.8534L13529.5954,-3472.8771L13529.5774,-3472.9133L13529.5717,-3472.9335L13529.5673,-3472.9495L13529.556,-3472.968L13529.5514,-3472.9781L13529.5389,-3473.0054L13529.5584,-3473.0084L13529.6025,-3473.0151L13529.6174,-3473.0235L13529.6531,-3473.0279L13529.6471,-3473.0433L13529.6142,-3473.127L13529.5996,-3473.1234L13529.5204,-3473.1035L13529.5143,-3473.1019L13529.4987,-3473.0981L13529.4685,-3473.0905L13529.4663,-3473.097L13529.4649,-3473.1012L13529.4602,-3473.1147L13529.4472,-3473.1526L13529.4409,-3473.1639L13529.4119,-3473.216L13529.3739,-3473.2844L13529.3666,-3473.2976L13529.3644,-3473.3022L13529.35,-3473.3333L13529.3474,-3473.339L13529.3264,-3473.3333L13529.3228,-3473.3324L13529.2988,-3473.3328L13529.2956,-3473.3333L13529.2806,-3473.3358L13529.2775,-3473.3363L13529.2736,-3473.337L13529.2657,-3473.3383L13529.262,-3473.339L13529.2604,-3473.3681L13529.2545,-3473.3874L13529.2466,-3473.4134L13529.2442,-3473.4317L13529.2433,-3473.4386L13529.2471,-3473.4527L13529.2636,-3473.4725L13529.2892,-3473.4936L13529.2865,-3473.4976L13529.2636,-3473.5249L13529.2591,-3473.5303L13529.2554,-3473.5346L13529.2471,-3473.5444L13529.2436,-3473.5487L13529.2294,-3473.5655L13529.214,-3473.5791L13529.2294,-3473.595L13529.2503,-3473.6223L13529.2551,-3473.6391L13529.2673,-3473.6734L13529.2361,-3473.6832L13529.2268,-3473.6861L13529.2101,-3473.6913L13529.1884,-3473.6981L13529.1667,-3473.7047L13529.1622,-3473.706L13529.143,-3473.7373L13529.12,-3473.7761L13529.1169,-3473.7814L13529.0988,-3473.8136L13529.0879,-3473.833L13529.0864,-3473.8357L13529.0829,-3473.8415L13529.0801,-3473.8462L13529.0688,-3473.8621L13529.0704,-3473.8762L13529.0736,-3473.8974L13529.0784,-3473.9154L13529.0785,-3473.9161L13529.079,-3473.9317L13529.0753,-3473.9533L13529.0678,-3473.9701L13529.0566,-3473.9925L13529.0502,-3474.0141L13529.0432,-3474.0427L13529.0443,-3474.0723L13529.0389,-3474.0855L13529.0315,-3474.089L13529.0155,-3474.0904L13528.9984,-3474.0956L13528.9792,-3474.1031L13528.9584,-3474.1071L13528.9472,-3474.1058L13528.944,-3474.0947L13528.944,-3474.0789L13528.9306,-3474.0683L13528.9141,-3474.0639L13528.8799,-3474.0701L13528.8538,-3474.0807L13528.8319,-3474.0983L13528.8084,-3474.1199L13528.785,-3474.1454L13528.7592,-3474.1667L13528.7398,-3474.1827L13528.7284,-3474.1921L13528.7039,-3474.2111L13528.682,-3474.2291L13528.6542,-3474.2446L13528.6307,-3474.2591L13528.6099,-3474.2688L13528.5961,-3474.2816L13528.5779,-3474.3001L13528.5735,-3474.3041L13528.5624,-3474.3142L13528.5235,-3474.3485L13528.5176,-3474.3548L13528.4904,-3474.3838L13528.4498,-3474.4212L13528.4438,-3474.4276L13528.4333,-3474.4389L13528.4563,-3474.4402L13528.4872,-3474.4446L13528.5512,-3474.4543L13528.5939,-3474.4618L13528.6521,-3474.464L13528.7631,-3474.4644L13528.8581,-3474.4605L13528.9184,-3474.4552L13528.9344,-3474.4565L13528.9279,-3474.4768L13528.9203,-3474.4991L13528.9141,-3474.5171L13528.9007,-3474.5391L13528.8885,-3474.5549L13528.8719,-3474.5646L13528.8596,-3474.5739L13528.8468,-3474.5853L13528.8372,-3474.595L13528.8228,-3474.6131L13528.8116,-3474.6276L13528.7801,-3474.6506L13528.7503,-3474.681L13528.7412,-3474.6986L13528.7387,-3474.7098L13528.7374,-3474.7158L13528.7364,-3474.7343L13528.7364,-3474.7519L13528.7289,-3474.7682L13528.7174,-3474.7818L13528.7129,-3474.7871L13528.6894,-3474.8008L13528.6169,-3474.8431L13528.595,-3474.8515L13528.5828,-3474.8533L13528.572,-3474.855L13528.5539,-3474.8532L13528.5283,-3474.8506L13528.5149,-3474.8572L13528.5013,-3474.8639L13528.5005,-3474.8642L13528.4877,-3474.8735L13528.4754,-3474.8876L13528.4653,-3474.896L13528.4445,-3474.907L13528.4274,-3474.9167L13528.3954,-3474.9405L13528.3758,-3474.9459L13528.3618,-3474.9497L13528.3442,-3474.9603L13528.3333,-3474.9675L13528.3234,-3474.974L13528.3053,-3474.9867L13528.2935,-3474.9929L13528.2663,-3474.9977L13528.2615,-3475L13528.2551,-3475.0031L13528.2503,-3475.0083L13528.2503,-3475.0163L13528.2508,-3475.0343L13528.2445,-3475.0394L13528.2316,-3475.0497L13528.2167,-3475.0577L13528.1937,-3475.0586L13528.1745,-3475.0612L13528.1494,-3475.0696L13528.1217,-3475.0811L13528.1062,-3475.0912L13528.0843,-3475.1079L13528.0454,-3475.1352L13528.0245,-3475.1494L13528.0187,-3475.1612L13528.0139,-3475.185L13528.0155,-3475.1947L13528.0571,-3475.252L13528.0762,-3475.2818L13528.1034,-3475.3243L13528.0824,-3475.3587L13528.0793,-3475.3645L13528.0644,-3475.3921L13528.0514,-3475.4261L13528.0485,-3475.438L13528.0485,-3475.4494L13528.0492,-3475.4631L13528.0521,-3475.4881L13528.0561,-3475.5057L13528.0633,-3475.5409L13528.0676,-3475.5755L13528.0705,-3475.6054L13528.0723,-3475.6867L13528.0716,-3475.7166L13528.0695,-3475.7585L13528.0687,-3475.7744L13528.0665,-3475.815L13528.0656,-3475.8333L13528.064,-3475.8636L13528.0589,-3475.8994L13528.0532,-3475.934L13528.0481,-3475.9602L13528.0445,-3475.9734L13528.038,-3475.9847L13528.0279,-3476.0038L13528.017,-3476.0199L13527.9971,-3476.0459L13527.9096,-3476.1172L13527.8785,-3476.1425L13527.819,-3476.1888L13527.8142,-3476.1926L13527.8033,-3476.2021L13527.7908,-3476.2157L13527.7755,-3476.2322L13527.7697,-3476.2454L13527.7639,-3476.2656L13527.7581,-3476.2955L13527.7567,-3476.3217L13527.7567,-3476.3539L13527.7581,-3476.376L13527.756,-3476.3933L13527.7509,-3476.4064L13527.7419,-3476.4168L13527.7209,-3476.4365L13527.7057,-3476.4502L13527.6992,-3476.461L13527.6956,-3476.4741L13527.6947,-3476.4832L13527.6941,-3476.4884L13527.6913,-3476.5004L13527.6854,-3476.5123L13527.6703,-3476.532L13527.6215,-3476.5931L13527.6077,-3476.6098L13527.5918,-3476.6313L13527.581,-3476.6408L13527.5629,-3476.6474L13527.5072,-3476.6667L13527.5,-3476.6691L13527.4957,-3476.6706L13527.4725,-3476.6832L13527.4552,-3476.6963L13527.44,-3476.7076L13527.4248,-3476.7273L13527.4089,-3476.7416L13527.3959,-3476.7524L13527.3857,-3476.7601L13527.3666,-3476.7819L13527.3601,-3476.8016L13527.3572,-3476.8153L13527.3579,-3476.829L13527.3601,-3476.8397L13527.3637,-3476.8523L13527.3637,-3476.8624L13527.3615,-3476.8696L13527.3557,-3476.8761L13527.3442,-3476.8869L13527.3275,-3476.9047L13527.3094,-3476.9209L13527.3015,-3476.9292L13527.2863,-3476.9382L13527.2697,-3476.9459L13527.2553,-3476.9555L13527.2426,-3476.9635L13527.2108,-3477.0184L13527.1977,-3477.0357L13527.1739,-3477.0679L13527.1551,-3477.0971L13527.1457,-3477.112L13527.1331,-3477.1511L13527.128,-3477.169L13527.1184,-3477.2027L13527.1099,-3477.2328L13527.1019,-3477.2513L13527.0963,-3477.2593L13527.0889,-3477.2698L13527.0723,-3477.2889L13527.0651,-3477.299L13527.0542,-3477.3157L13527.043,-3477.3357L13527.0343,-3477.359L13527.0264,-3477.4144L13527.0242,-3477.4276L13527.0155,-3477.4395L13526.9938,-3477.4556L13526.9794,-3477.4693L13526.9714,-3477.4789L13526.9671,-3477.4866L13526.9656,-3477.4961L13526.9657,-3477.5L13526.966,-3477.5114L13526.9682,-3477.5281L13526.9703,-3477.5507L13526.9696,-3477.5692L13526.9624,-3477.5907L13526.9544,-3477.605L13526.9436,-3477.6164L13526.9313,-3477.6277L13526.9111,-3477.6378L13526.8973,-3477.6456L13526.8828,-3477.6539L13526.8713,-3477.6641L13526.8621,-3477.674L13526.8528,-3477.6841L13526.8514,-3477.696L13526.8514,-3477.7103L13526.8536,-3477.7282L13526.855,-3477.7419L13526.8536,-3477.7634L13526.8515,-3477.7718L13526.8492,-3477.7813L13526.8427,-3477.795L13526.8333,-3477.8081L13526.7798,-3477.8988L13526.7418,-3477.9441L13526.6846,-3478.0266L13526.7469,-3478.0991L13526.7521,-3478.1001L13526.783,-3478.0968L13526.8122,-3478.0923L13526.8719,-3478.0831L13526.8874,-3478.0744L13526.9128,-3478.0506L13526.9133,-3478.0503L13526.9359,-3478.0386L13526.9561,-3478.0369L13526.9807,-3478.0392L13527.0227,-3478.0482L13527.0444,-3478.0506L13527.0538,-3478.05L13527.069,-3478.0476L13527.0848,-3478.0476L13527.0949,-3478.0487L13527.1124,-3478.0507L13527.121,-3478.0517L13527.1376,-3478.0565L13527.1492,-3478.0637L13527.1615,-3478.0786L13527.1702,-3478.0941L13527.1759,-3478.1049L13527.1825,-3478.1138L13527.1897,-3478.121L13527.2447,-3478.1188L13527.3469,-3478.1148L13527.5,-3478.1088L13527.5692,-3478.1061L13527.615,-3478.1043L13528.2183,-3478.0808L13528.3333,-3478.0763L13528.454,-3478.0716L13528.4656,-3478.0674L13528.4706,-3478.0638L13528.4731,-3478.0563Z"/>
<path content="兵庫県,,,宝塚市,,28214" xlink:title="兵庫県" d="M13535.1562,-3480.4687L13535.1562,-3477.3396L13535.1148,-3477.3381L13535,-3477.3394L13534.9543,-3477.3399L13534.9481,-3477.3419L13534.9412,-3477.3441L13534.9214,-3477.3504L13534.9091,-3477.3665L13534.8965,-3477.3741L13534.8917,-3477.3769L13534.8802,-3477.3838L13534.8274,-3477.4094L13534.8158,-3477.4237L13534.8014,-3477.4357L13534.8013,-3477.4357L13534.7931,-3477.4407L13534.7847,-3477.4458L13534.762,-3477.4551L13534.7519,-3477.4562L13534.7396,-3477.4551L13534.7114,-3477.4479L13534.6986,-3477.4441L13534.6979,-3477.4439L13534.6832,-3477.4395L13534.66,-3477.4354L13534.6398,-3477.4359L13534.6351,-3477.4371L13534.634,-3477.4373L13534.6217,-3477.4403L13534.6139,-3477.4421L13534.6022,-3477.4449L13534.5115,-3477.4687L13534.4814,-3477.4765L13534.4337,-3477.4893L13534.4214,-3477.4926L13534.3904,-3477.5L13534.3601,-3477.5072L13534.3046,-3477.5204L13534.2757,-3477.5257L13534.2468,-3477.5341L13534.2381,-3477.5448L13534.228,-3477.5609L13534.2294,-3477.577L13534.2349,-3477.625L13534.232,-3477.6441L13534.1828,-3477.7205L13534.1731,-3477.7412L13534.1667,-3477.7552L13534.1662,-3477.7563L13534.1667,-3477.7646L13534.167,-3477.7701L13534.1683,-3477.7927L13534.185,-3477.8565L13534.1853,-3477.8693L13534.1817,-3477.9182L13534.1781,-3477.9367L13534.1687,-3477.9558L13534.1667,-3477.9578L13534.1571,-3477.9671L13534.1318,-3477.9892L13534.1116,-3478.0011L13534.0978,-3478.0166L13534.0841,-3478.0345L13534.07,-3478.0426L13534.046,-3478.0508L13533.8943,-3478.1028L13533.8372,-3478.1207L13533.8046,-3478.1302L13533.737,-3478.1449L13533.7189,-3478.1491L13533.6604,-3478.1699L13533.622,-3478.1807L13533.6033,-3478.186L13533.5468,-3478.1986L13533.5237,-3478.1986L13533.5107,-3478.1789L13533.5049,-3478.1604L13533.4999,-3478.1538L13533.4883,-3478.1484L13533.4681,-3478.1443L13533.4449,-3478.1437L13533.4203,-3478.1467L13533.3964,-3478.1538L13533.3333,-3478.18L13533.3151,-3478.1875L13533.3107,-3478.1959L13533.3093,-3478.2161L13533.3079,-3478.2298L13533.3035,-3478.2424L13533.2457,-3478.2459L13533.219,-3478.2432L13533.2134,-3478.2427L13533.2013,-3478.2414L13533.1987,-3478.2412L13533.1978,-3478.2337L13533.1972,-3478.2292L13533.1859,-3478.2222L13533.1857,-3478.2221L13533.1833,-3478.2216L13533.1069,-3478.2042L13533.0714,-3478.1976L13532.8931,-3478.1339L13532.8787,-3478.1287L13532.8491,-3478.1198L13532.839,-3478.118L13532.8303,-3478.1198L13532.8257,-3478.1253L13532.8224,-3478.1294L13532.8144,-3478.1353L13532.8137,-3478.1351L13532.7197,-3478.1085L13532.6586,-3478.0831L13532.6426,-3478.0819L13532.6311,-3478.0855L13532.6058,-3478.1022L13532.5617,-3478.1392L13532.5349,-3478.1589L13532.5176,-3478.1732L13532.5056,-3478.1878L13532.5,-3478.2017L13532.4977,-3478.2075L13532.4905,-3478.2212L13532.4796,-3478.2462L13532.4731,-3478.2552L13532.4405,-3478.2745L13532.3407,-3478.3333L13532.2897,-3478.3634L13532.1881,-3478.4234L13532.097,-3478.4772L13532.0331,-3478.5149L13532.0119,-3478.5231L13531.9926,-3478.5304L13531.955,-3478.5328L13531.9189,-3478.5269L13531.8827,-3478.5245L13531.8407,-3478.5269L13531.8191,-3478.546L13531.8118,-3478.5806L13531.7916,-3478.6199L13531.7706,-3478.6537L13531.7656,-3478.6617L13531.7583,-3478.6784L13531.7352,-3478.7213L13531.7193,-3478.7428L13531.7077,-3478.7559L13531.7034,-3478.7738L13531.6836,-3478.7915L13531.6687,-3478.8048L13531.6667,-3478.8054L13531.6354,-3478.8144L13531.5891,-3478.8263L13531.553,-3478.8299L13531.5067,-3478.8251L13531.4606,-3478.8316L13531.3702,-3478.8626L13531.3115,-3478.8749L13531.2956,-3478.8868L13531.2659,-3478.8954L13531.2334,-3478.9047L13531.1987,-3478.9101L13531.1314,-3478.9113L13531.1141,-3478.9101L13531.0916,-3478.9005L13531.0779,-3478.8844L13531.0743,-3478.8713L13531.0656,-3478.8636L13531.0446,-3478.8564L13531.0013,-3478.8498L13530.9666,-3478.8469L13530.8859,-3478.8412L13530.8418,-3478.8412L13530.8333,-3478.8421L13530.8021,-3478.8454L13530.7811,-3478.8495L13530.7601,-3478.8549L13530.7428,-3478.8621L13530.7196,-3478.8728L13530.7095,-3478.8806L13530.6987,-3478.8847L13530.6886,-3478.8871L13530.6763,-3478.8871L13530.6184,-3478.8794L13530.5255,-3478.8594L13530.5038,-3478.8534L13530.485,-3478.8403L13530.4293,-3478.8009L13530.4113,-3478.7902L13530.3809,-3478.7788L13530.3505,-3478.7711L13530.3267,-3478.7687L13530.2983,-3478.7726L13530.2963,-3478.7729L13530.2743,-3478.7791L13530.2562,-3478.7797L13530.2424,-3478.7779L13530.2316,-3478.7756L13530.2186,-3478.7684L13530.2005,-3478.7577L13530.1788,-3478.7541L13530.1556,-3478.7589L13530.1383,-3478.7654L13530.1188,-3478.769L13530.1108,-3478.7738L13530.0891,-3478.7887L13530.0877,-3478.803L13530.0949,-3478.8239L13530.1065,-3478.8406L13530.1166,-3478.8483L13530.1303,-3478.8549L13530.1484,-3478.8644L13530.1687,-3478.88L13530.1867,-3478.8966L13530.1954,-3478.9133L13530.1983,-3478.9235L13530.1997,-3478.9336L13530.2005,-3478.942L13530.2034,-3478.9485L13530.2269,-3478.9834L13530.2449,-3479.0013L13530.2696,-3479.0222L13530.2818,-3479.0413L13530.2985,-3479.0532L13530.3375,-3479.0669L13530.3982,-3479.0896L13530.4185,-3479.0986L13530.4431,-3479.1159L13530.4611,-3479.129L13530.4875,-3479.14L13530.5302,-3479.1537L13530.5526,-3479.1591L13530.5721,-3479.1621L13530.5946,-3479.1651L13530.5948,-3479.1651L13530.6007,-3479.1667L13530.6061,-3479.1681L13530.6235,-3479.1788L13530.6459,-3479.1895L13530.6647,-3479.1979L13530.6906,-3479.2088L13530.6972,-3479.2116L13530.7095,-3479.2146L13530.7218,-3479.2181L13530.7229,-3479.2183L13530.7413,-3479.2217L13530.7854,-3479.2247L13530.8333,-3479.2298L13530.8444,-3479.231L13530.8755,-3479.234L13530.9102,-3479.2416L13530.9217,-3479.2441L13530.9471,-3479.2513L13530.9716,-3479.2632L13530.9875,-3479.2745L13530.9926,-3479.2829L13530.9919,-3479.2888L13530.9817,-3479.2924L13530.8849,-3479.3061L13530.8581,-3479.3103L13530.84,-3479.3109L13530.8333,-3479.3123L13530.8285,-3479.3133L13530.8184,-3479.3172L13530.801,-3479.324L13530.7605,-3479.3413L13530.7214,-3479.3544L13530.7105,-3479.3579L13530.6708,-3479.3706L13530.6477,-3479.3741L13530.6325,-3479.3789L13530.6195,-3479.3861L13530.6123,-3479.3944L13530.6039,-3479.4049L13530.5996,-3479.418L13530.5974,-3479.443L13530.6017,-3479.4561L13530.6025,-3479.4687L13530.5924,-3479.4776L13530.5794,-3479.48L13530.5642,-3479.4782L13530.5599,-3479.4889L13530.549,-3479.5015L13530.5345,-3479.5039L13530.5194,-3479.5021L13530.5092,-3479.4955L13530.502,-3479.4854L13530.4977,-3479.5021L13530.468,-3479.577L13530.4608,-3479.5951L13530.4411,-3479.6334L13530.3953,-3479.7225L13530.3761,-3479.7635L13530.3664,-3479.7839L13530.348,-3479.8248L13530.3439,-3479.8446L13530.3436,-3479.8457L13530.3458,-3479.8653L13530.3487,-3479.8838L13530.3465,-3479.8987L13530.3393,-3479.9202L13530.3335,-3479.9327L13530.3133,-3479.9691L13530.2927,-3479.9957L13530.2896,-3480L13530.2825,-3480.01L13530.2703,-3480.0219L13530.2449,-3480.0476L13530.2297,-3480.0649L13530.2173,-3480.0768L13530.2117,-3480.0822L13530.2008,-3480.0994L13530.1981,-3480.1102L13530.1979,-3480.1107L13530.1936,-3480.1412L13530.19,-3480.1567L13530.1852,-3480.1727L13530.1846,-3480.1749L13530.1838,-3480.191L13530.1846,-3480.2083L13530.1889,-3480.2166L13530.1968,-3480.2244L13530.2185,-3480.231L13530.2388,-3480.2351L13530.2583,-3480.2351L13530.3422,-3480.2334L13530.3856,-3480.2298L13530.4058,-3480.231L13530.4246,-3480.2363L13530.5005,-3480.2667L13530.5155,-3480.2744L13530.5425,-3480.2882L13530.6038,-3480.3132L13530.6282,-3480.3231L13530.6737,-3480.3404L13530.7381,-3480.3613L13530.7771,-3480.3762L13530.8333,-3480.4033L13530.8414,-3480.4072L13530.8877,-3480.4299L13530.971,-3480.4688Z"/>
</g>
</svg>
