<?xml version="1.0" encoding="UTF-8"?>
<svg  xmlns="http://www.w3.org/2000/svg" xmlns:xlink="http://www.w3.org/1999/xlink" xmlns:go="http://purl.org/svgmap/profile" property="geometry,N03_001,N03_002,N03_003,N03_004,N03_005,N03_007" viewBox="13530.76171875 -3555.17578125 4.39453125 4.39453125" go:dataArea="13530.76171875 -3555.17578125 4.39453125 4.39453125" >
<metadata>
 <rdf:RDF xmlns:rdf="http://www.w3.org/1999/02/22-rdf-syntax-ns#" xmlns:crs="http://opengis.org/xmldtds/transformations.dtd" xmlns:svg="http://www.w3.org/svg" >
  <rdf:Description>
   <crs:CoordinateReferenceSystem rdf:resource="http://purl.org/crs/84" svg:transform="matrix(100.0,0.0,0.0,-100.0,0.0,0.0)" />
  </rdf:Description>
 </rdf:RDF>
</metadata>
<globalCoordinateSystem srsName="http://purl.org/crs/84" transform="matrix(100.0,0.0,0.0,-100.0,0.0,0.0)" />
<defs>
 <g id="p0" >
  <circle cx="0.0" cy="0.0" r="3" stroke="green" stroke-width="2.0" vector-effect="non-scaling-stroke" />
 </g>
</defs>
<g fill="#0000ff" fill-rule="evenodd" opacity="0.5" >
<path content="京都府,,,舞鶴市,,26202" xlink:title="京都府" d="M13535.1562,-3550.7812L13530.7617,-3550.7812L13530.7617,-3551.2682L13530.7664,-3551.2668L13530.776,-3551.2653L13530.7847,-3551.2653L13530.7921,-3551.2644L13530.797,-3551.2646L13530.8076,-3551.2664L13530.8135,-3551.2682L13530.8171,-3551.2685L13530.8276,-3551.267L13530.8307,-3551.2662L13530.8333,-3551.2653L13530.8338,-3551.2652L13530.8371,-3551.2643L13530.8403,-3551.2633L13530.8438,-3551.2626L13530.8473,-3551.2619L13530.8505,-3551.2613L13530.8532,-3551.2608L13530.856,-3551.2599L13530.859,-3551.2589L13530.8622,-3551.257L13530.865,-3551.2553L13530.8682,-3551.2537L13530.8713,-3551.2519L13530.8743,-3551.2499L13530.8773,-3551.248L13530.8803,-3551.2459L13530.8967,-3551.2384L13530.9009,-3551.2365L13530.9052,-3551.2348L13530.9093,-3551.2333L13530.9132,-3551.2319L13530.9164,-3551.2307L13530.921,-3551.2293L13530.9249,-3551.2281L13530.9292,-3551.2272L13530.9345,-3551.2266L13530.939,-3551.2261L13530.9424,-3551.2257L13530.9457,-3551.2254L13530.9751,-3551.2249L13531.001,-3551.2251L13531.0097,-3551.2256L13531.0342,-3551.2266L13531.0576,-3551.2284L13531.0624,-3551.2295L13531.0658,-3551.2303L13531.0686,-3551.2314L13531.0704,-3551.2321L13531.0719,-3551.2331L13531.0826,-3551.2429L13531.0937,-3551.2494L13531.1049,-3551.2575L13531.107,-3551.2643L13531.118,-3551.271L13531.1201,-3551.275L13531.118,-3551.2834L13531.1292,-3551.2944L13531.1325,-3551.3027L13531.1359,-3551.3107L13531.1425,-3551.3148L13531.1424,-3551.3244L13531.146,-3551.3335L13531.1527,-3551.3375L13531.1502,-3551.3441L13531.1497,-3551.3521L13531.1517,-3551.3541L13531.1586,-3551.3567L13531.1586,-3551.3668L13531.1662,-3551.3717L13531.1813,-3551.3755L13531.186,-3551.3793L13531.193,-3551.3856L13531.2042,-3551.3864L13531.2036,-3551.3956L13531.2066,-3551.3996L13531.2168,-3551.4021L13531.2177,-3551.4114L13531.2242,-3551.4173L13531.2315,-3551.419L13531.2313,-3551.4242L13531.2364,-3551.4288L13531.2431,-3551.4305L13531.2449,-3551.4387L13531.2509,-3551.4474L13531.2547,-3551.4551L13531.2638,-3551.4584L13531.2693,-3551.4662L13531.2692,-3551.4721L13531.2728,-3551.4781L13531.2785,-3551.4846L13531.2873,-3551.4826L13531.2924,-3551.4933L13531.2977,-3551.4977L13531.3074,-3551.4987L13531.3135,-3551.5033L13531.3237,-3551.5056L13531.327,-3551.5112L13531.3397,-3551.5147L13531.3486,-3551.5159L13531.3618,-3551.5221L13531.3742,-3551.5209L13531.3762,-3551.5243L13531.3845,-3551.5311L13531.3893,-3551.5328L13531.3955,-3551.5333L13531.3981,-3551.5329L13531.4006,-3551.5372L13531.4031,-3551.5378L13531.4162,-3551.5384L13531.4183,-3551.5457L13531.4293,-3551.5581L13531.4334,-3551.5671L13531.441,-3551.5717L13531.4444,-3551.5722L13531.443,-3551.5812L13531.4513,-3551.5936L13531.4523,-3551.6022L13531.4535,-3551.606L13531.4555,-3551.61L13531.463,-3551.6156L13531.4596,-3551.6252L13531.4617,-3551.6362L13531.4644,-3551.6452L13531.4693,-3551.6514L13531.4741,-3551.657L13531.4726,-3551.6631L13531.4678,-3551.6667L13531.4669,-3551.6673L13531.4657,-3551.6724L13531.4707,-3551.6843L13531.4769,-3551.6907L13531.4861,-3551.6965L13531.4877,-3551.7034L13531.4929,-3551.7104L13531.5015,-3551.7186L13531.5085,-3551.7311L13531.5119,-3551.7344L13531.5178,-3551.736L13531.5198,-3551.7372L13531.5223,-3551.7446L13531.5381,-3551.76L13531.5414,-3551.7608L13531.5441,-3551.7609L13531.5482,-3551.7638L13531.5517,-3551.7664L13531.554,-3551.7733L13531.5635,-3551.79L13531.5708,-3551.7953L13531.5797,-3551.7978L13531.5821,-3551.8052L13531.591,-3551.8202L13531.5915,-3551.8242L13531.5974,-3551.8306L13531.6069,-3551.8346L13531.6031,-3551.8414L13531.6033,-3551.8471L13531.6179,-3551.8685L13531.6262,-3551.8737L13531.6289,-3551.8748L13531.6303,-3551.877L13531.6293,-3551.882L13531.632,-3551.887L13531.6342,-3551.8912L13531.6405,-3551.893L13531.6399,-3551.8969L13531.6423,-3551.9038L13531.6537,-3551.9103L13531.6524,-3551.9204L13531.6553,-3551.9299L13531.6587,-3551.9317L13531.6659,-3551.9402L13531.6667,-3551.9433L13531.6699,-3551.9473L13531.6717,-3551.952L13531.6718,-3551.9569L13531.673,-3551.9587L13531.6772,-3551.9624L13531.6791,-3551.9651L13531.679,-3551.9682L13531.6797,-3551.9701L13531.6835,-3551.9755L13531.6847,-3551.9803L13531.6863,-3551.9828L13531.6856,-3551.9836L13531.6839,-3551.984L13531.6834,-3551.9848L13531.6839,-3551.9857L13531.6892,-3551.9893L13531.6966,-3551.9934L13531.6958,-3551.9961L13531.6971,-3551.9976L13531.7004,-3551.9986L13531.7023,-3552.002L13531.706,-3552.0044L13531.7064,-3552.0063L13531.706,-3552.0139L13531.7071,-3552.0156L13531.7118,-3552.0189L13531.7132,-3552.0226L13531.7189,-3552.0292L13531.721,-3552.0361L13531.7198,-3552.0415L13531.7212,-3552.0454L13531.7191,-3552.053L13531.7202,-3552.0548L13531.7202,-3552.0597L13531.7221,-3552.0627L13531.7253,-3552.0712L13531.7257,-3552.0741L13531.7251,-3552.075L13531.723,-3552.0774L13531.7226,-3552.0792L13531.7232,-3552.0812L13531.7284,-3552.0926L13531.728,-3552.0944L13531.7252,-3552.0986L13531.7256,-3552.0995L13531.728,-3552.1017L13531.7283,-3552.1036L13531.726,-3552.107L13531.7267,-3552.1098L13531.7237,-3552.1142L13531.7229,-3552.1205L13531.7228,-3552.1266L13531.7221,-3552.1273L13531.7198,-3552.1277L13531.7176,-3552.1273L13531.7157,-3552.1282L13531.7155,-3552.1291L13531.7158,-3552.1311L13531.7199,-3552.1369L13531.7232,-3552.1398L13531.7277,-3552.1413L13531.7296,-3552.1437L13531.7301,-3552.1466L13531.7298,-3552.1495L13531.7269,-3552.1565L13531.7273,-3552.1615L13531.7249,-3552.1671L13531.7228,-3552.1693L13531.7163,-3552.1734L13531.7159,-3552.1743L13531.7196,-3552.1779L13531.7191,-3552.1787L13531.7159,-3552.1798L13531.7146,-3552.1815L13531.7144,-3552.1833L13531.7161,-3552.1904L13531.7182,-3552.1937L13531.7178,-3552.1955L13531.7162,-3552.1971L13531.7152,-3552.2001L13531.7158,-3552.2021L13531.7153,-3552.203L13531.7083,-3552.2139L13531.7085,-3552.2149L13531.7105,-3552.2175L13531.7109,-3552.2195L13531.7104,-3552.2226L13531.7114,-3552.2265L13531.71,-3552.2312L13531.7105,-3552.2343L13531.7128,-3552.2381L13531.7132,-3552.2401L13531.7116,-3552.2449L13531.7123,-3552.2468L13531.7116,-3552.2498L13531.7135,-3552.251L13531.7158,-3552.2512L13531.7181,-3552.2504L13531.7198,-3552.2517L13531.72,-3552.2538L13531.7168,-3552.2567L13531.7168,-3552.2576L13531.7183,-3552.2602L13531.7175,-3552.261L13531.7153,-3552.2617L13531.7108,-3552.2611L13531.7076,-3552.2626L13531.7078,-3552.2635L13531.709,-3552.2639L13531.7124,-3552.2638L13531.7199,-3552.269L13531.7184,-3552.2715L13531.7199,-3552.2732L13531.7269,-3552.2772L13531.7274,-3552.2781L13531.7266,-3552.28L13531.7277,-3552.2815L13531.7327,-3552.2845L13531.7349,-3552.2866L13531.7413,-3552.293L13531.746,-3552.296L13531.7645,-3552.306L13531.7723,-3552.3092L13531.7784,-3552.3131L13531.7803,-3552.3147L13531.7828,-3552.3187L13531.785,-3552.3203L13531.7885,-3552.3202L13531.7895,-3552.321L13531.7945,-3552.322L13531.7995,-3552.3228L13531.8055,-3552.3233L13531.8186,-3552.3276L13531.8199,-3552.3289L13531.8215,-3552.3329L13531.8221,-3552.3376L13531.8237,-3552.343L13531.8287,-3552.3498L13531.833,-3552.3526L13531.8383,-3552.3559L13531.8396,-3552.3584L13531.8408,-3552.3618L13531.8443,-3552.3683L13531.8456,-3552.3703L13531.8483,-3552.3719L13531.8528,-3552.3733L13531.8539,-3552.3751L13531.8551,-3552.3758L13531.86,-3552.3776L13531.8607,-3552.3794L13531.8593,-3552.3821L13531.8589,-3552.3851L13531.8611,-3552.3862L13531.8701,-3552.3885L13531.8751,-3552.3919L13531.8862,-3552.3948L13531.888,-3552.3964L13531.8926,-3552.4028L13531.8942,-3552.4037L13531.8983,-3552.4042L13531.9,-3552.4055L13531.9016,-3552.4101L13531.9037,-3552.4117L13531.9065,-3552.4133L13531.9089,-3552.4149L13531.9111,-3552.4169L13531.9132,-3552.419L13531.9155,-3552.4222L13531.9156,-3552.4223L13531.9178,-3552.4258L13531.9222,-3552.4287L13531.928,-3552.4296L13531.9303,-3552.4316L13531.9344,-3552.4327L13531.9497,-3552.4347L13531.9562,-3552.4364L13531.9669,-3552.4418L13531.9741,-3552.4458L13531.9848,-3552.4548L13531.9869,-3552.4563L13531.9975,-3552.4609L13532.006,-3552.4631L13532.0118,-3552.4648L13532.0171,-3552.4675L13532.0195,-3552.4702L13532.0213,-3552.4741L13532.0223,-3552.4791L13532.0226,-3552.4817L13532.0186,-3552.483L13532.0149,-3552.4842L13532.0111,-3552.4855L13532.008,-3552.487L13532.0079,-3552.4879L13532.0038,-3552.4933L13532.0032,-3552.4954L13532.004,-3552.4976L13532.006,-3552.4995L13532.0069,-3552.5L13532.0115,-3552.5027L13532.012,-3552.5047L13532.0116,-3552.5101L13532.0125,-3552.5119L13532.0154,-3552.5138L13532.0192,-3552.5147L13532.0216,-3552.5155L13532.0253,-3552.5151L13532.0285,-3552.5136L13532.0327,-3552.5106L13532.0342,-3552.5111L13532.0372,-3552.5159L13532.0394,-3552.5183L13532.0426,-3552.52L13532.0476,-3552.5212L13532.0485,-3552.5244L13532.0518,-3552.529L13532.0559,-3552.531L13532.06,-3552.5314L13532.0626,-3552.5309L13532.0733,-3552.5264L13532.0813,-3552.5242L13532.0966,-3552.5224L13532.1128,-3552.5243L13532.115,-3552.5254L13532.123,-3552.533L13532.1267,-3552.5383L13532.1289,-3552.5393L13532.1323,-3552.5399L13532.1344,-3552.5388L13532.1417,-3552.5375L13532.1522,-3552.5342L13532.154,-3552.5353L13532.1558,-3552.5388L13532.1552,-3552.5408L13532.1499,-3552.5447L13532.1512,-3552.5465L13532.1533,-3552.5468L13532.1557,-3552.5459L13532.1551,-3552.5468L13532.1559,-3552.5486L13532.158,-3552.5497L13532.1617,-3552.5503L13532.163,-3552.5501L13532.1654,-3552.5476L13532.1692,-3552.5473L13532.1708,-3552.5455L13532.1705,-3552.5424L13532.1691,-3552.5404L13532.1669,-3552.5393L13532.163,-3552.5395L13532.161,-3552.5368L13532.1612,-3552.5328L13532.162,-3552.531L13532.1646,-3552.529L13532.1692,-3552.5282L13532.1795,-3552.5267L13532.1905,-3552.5268L13532.1957,-3552.5259L13532.204,-3552.5257L13532.2131,-3552.5242L13532.2163,-3552.5242L13532.226,-3552.5261L13532.2483,-3552.53L13532.2515,-3552.5315L13532.2619,-3552.5379L13532.2636,-3552.5394L13532.2639,-3552.5405L13532.2658,-3552.5543L13532.2642,-3552.5582L13532.2645,-3552.5601L13532.2653,-3552.5608L13532.2687,-3552.5619L13532.2746,-3552.5657L13532.2773,-3552.5657L13532.2783,-3552.5662L13532.2788,-3552.5684L13532.2796,-3552.5692L13532.2821,-3552.5694L13532.2854,-3552.5679L13532.2911,-3552.5632L13532.2934,-3552.5631L13532.3037,-3552.5675L13532.3065,-3552.5678L13532.3078,-3552.5674L13532.3129,-3552.564L13532.3151,-3552.564L13532.3173,-3552.5648L13532.3195,-3552.5665L13532.322,-3552.5699L13532.3249,-3552.5716L13532.3285,-3552.5723L13532.3306,-3552.5733L13532.3311,-3552.5752L13532.3304,-3552.58L13532.331,-3552.5819L13532.3325,-3552.5836L13532.3373,-3552.5841L13532.343,-3552.583L13532.3448,-3552.5819L13532.3452,-3552.5808L13532.3461,-3552.5765L13532.346,-3552.5731L13532.3448,-3552.5682L13532.3448,-3552.5654L13532.3458,-3552.5637L13532.3497,-3552.5596L13532.3544,-3552.5556L13532.3565,-3552.5548L13532.363,-3552.5544L13532.3641,-3552.5538L13532.3648,-3552.5528L13532.3651,-3552.5505L13532.3674,-3552.5493L13532.373,-3552.548L13532.3775,-3552.5454L13532.3821,-3552.5438L13532.3843,-3552.5444L13532.3873,-3552.5464L13532.3981,-3552.5585L13532.4018,-3552.564L13532.4029,-3552.5694L13532.4042,-3552.5695L13532.4076,-3552.5683L13532.41,-3552.5709L13532.4112,-3552.5709L13532.4129,-3552.5696L13532.413,-3552.5684L13532.4118,-3552.5658L13532.4157,-3552.563L13532.4155,-3552.561L13532.4136,-3552.5584L13532.4056,-3552.5516L13532.3997,-3552.5472L13532.3997,-3552.5462L13532.4008,-3552.5459L13532.4056,-3552.5458L13532.4067,-3552.545L13532.4076,-3552.5433L13532.4075,-3552.535L13532.4069,-3552.5341L13532.4016,-3552.5283L13532.4013,-3552.5273L13532.4024,-3552.5254L13532.4032,-3552.5247L13532.4084,-3552.5219L13532.411,-3552.5187L13532.413,-3552.5174L13532.4167,-3552.5162L13532.4208,-3552.5137L13532.4233,-3552.5113L13532.4271,-3552.5057L13532.4296,-3552.5034L13532.4321,-3552.5023L13532.4372,-3552.5012L13532.4391,-3552.5L13532.4392,-3552.4999L13532.4407,-3552.4979L13532.441,-3552.4956L13532.4401,-3552.4894L13532.4399,-3552.4883L13532.4415,-3552.4853L13532.4412,-3552.4842L13532.4395,-3552.4827L13532.4319,-3552.48L13532.4316,-3552.479L13532.4346,-3552.4772L13532.4399,-3552.4755L13532.4405,-3552.4736L13532.44,-3552.4725L13532.4366,-3552.4688L13532.4364,-3552.4677L13532.4385,-3552.4667L13532.4412,-3552.4667L13532.457,-3552.4688L13532.4614,-3552.4688L13532.4675,-3552.468L13532.4678,-3552.4671L13532.4621,-3552.4639L13532.4595,-3552.4633L13532.4448,-3552.4616L13532.442,-3552.4607L13532.4387,-3552.4586L13532.4374,-3552.4566L13532.4368,-3552.4534L13532.4389,-3552.4523L13532.4476,-3552.4519L13532.4657,-3552.4533L13532.4686,-3552.4528L13532.4735,-3552.4512L13532.4739,-3552.4504L13532.473,-3552.4498L13532.4627,-3552.4443L13532.4626,-3552.4433L13532.4649,-3552.4405L13532.467,-3552.4398L13532.4698,-3552.4402L13532.4764,-3552.4425L13532.4888,-3552.4445L13532.491,-3552.4441L13532.4961,-3552.4411L13532.4976,-3552.4391L13532.4981,-3552.4371L13532.4949,-3552.4314L13532.4953,-3552.4262L13532.4934,-3552.4233L13532.4907,-3552.421L13532.4897,-3552.4191L13532.4894,-3552.4127L13532.4884,-3552.4107L13532.4867,-3552.4092L13532.4841,-3552.4084L13532.4817,-3552.4086L13532.4775,-3552.4102L13532.4747,-3552.4105L13532.4646,-3552.4096L13532.4552,-3552.4105L13532.4539,-3552.4101L13532.4533,-3552.4082L13532.4539,-3552.406L13532.4571,-3552.4012L13532.46,-3552.3994L13532.4725,-3552.3949L13532.4779,-3552.3895L13532.4816,-3552.3879L13532.4878,-3552.3864L13532.4904,-3552.3852L13532.4927,-3552.3826L13532.4929,-3552.3814L13532.4924,-3552.3804L13532.4887,-3552.3764L13532.4853,-3552.3746L13532.4781,-3552.3731L13532.4775,-3552.3724L13532.4753,-3552.3716L13532.4745,-3552.3697L13532.4778,-3552.3682L13532.4786,-3552.3674L13532.4791,-3552.3653L13532.4771,-3552.3571L13532.4782,-3552.3555L13532.4802,-3552.3543L13532.4817,-3552.3525L13532.4833,-3552.3481L13532.4821,-3552.344L13532.483,-3552.3407L13532.4823,-3552.3397L13532.4792,-3552.3376L13532.4791,-3552.3366L13532.4795,-3552.3304L13532.4827,-3552.3254L13532.4866,-3552.3208L13532.4916,-3552.3129L13532.4935,-3552.3113L13532.4968,-3552.3101L13532.4982,-3552.3085L13532.495,-3552.3052L13532.4948,-3552.3041L13532.4962,-3552.3021L13532.4999,-3552.2993L13532.5,-3552.2991L13532.5025,-3552.2962L13532.5049,-3552.2917L13532.5063,-3552.2877L13532.508,-3552.2862L13532.5178,-3552.2818L13532.5229,-3552.2806L13532.5246,-3552.2792L13532.5261,-3552.276L13532.5261,-3552.2738L13532.5254,-3552.2729L13532.5208,-3552.2685L13532.5198,-3552.2663L13532.5195,-3552.2639L13532.5207,-3552.2605L13532.5252,-3552.2543L13532.5271,-3552.2526L13532.5339,-3552.2489L13532.5362,-3552.2485L13532.5413,-3552.249L13532.5424,-3552.2486L13532.5434,-3552.2467L13532.5433,-3552.2445L13532.5415,-3552.239L13532.5418,-3552.2368L13532.5435,-3552.2353L13532.5472,-3552.2334L13532.5559,-3552.23L13532.5608,-3552.229L13532.561,-3552.2269L13532.556,-3552.2164L13532.5534,-3552.2077L13532.5538,-3552.2053L13532.5547,-3552.2042L13532.5578,-3552.2019L13532.5651,-3552.1979L13532.5694,-3552.1943L13532.577,-3552.1864L13532.5808,-3552.1816L13532.5876,-3552.1756L13532.594,-3552.1663L13532.5976,-3552.1624L13532.6046,-3552.1578L13532.6221,-3552.146L13532.6262,-3552.1442L13532.637,-3552.1402L13532.6414,-3552.1386L13532.649,-3552.1372L13532.6503,-3552.1374L13532.6565,-3552.142L13532.659,-3552.1425L13532.6614,-3552.1413L13532.6655,-3552.137L13532.6707,-3552.1293L13532.6731,-3552.1275L13532.6767,-3552.1261L13532.6792,-3552.1259L13532.6858,-3552.1274L13532.6881,-3552.1273L13532.6922,-3552.1256L13532.6989,-3552.1212L13532.7014,-3552.1187L13532.7018,-3552.1167L13532.7006,-3552.1139L13532.6971,-3552.1113L13532.695,-3552.1075L13532.6938,-3552.1072L13532.6912,-3552.1077L13532.6837,-3552.1108L13532.68,-3552.1134L13532.6788,-3552.1135L13532.6791,-3552.1116L13532.681,-3552.1089L13532.6857,-3552.1055L13532.6885,-3552.1011L13532.6917,-3552.0998L13532.6932,-3552.0979L13532.6934,-3552.095L13532.6928,-3552.0897L13532.6946,-3552.0797L13532.6919,-3552.0728L13532.6909,-3552.072L13532.6898,-3552.072L13532.6853,-3552.0737L13532.6842,-3552.0733L13532.6795,-3552.0697L13532.6788,-3552.0678L13532.6781,-3552.0645L13532.679,-3552.064L13532.6827,-3552.0648L13532.685,-3552.0646L13532.6876,-3552.0626L13532.6874,-3552.0606L13532.6849,-3552.0582L13532.6797,-3552.0549L13532.6787,-3552.0529L13532.6786,-3552.0507L13532.6793,-3552.0459L13532.6811,-3552.0412L13532.6813,-3552.0382L13532.6821,-3552.0374L13532.6846,-3552.0376L13532.6993,-3552.0408L13532.7116,-3552.0408L13532.7151,-3552.0401L13532.7174,-3552.0393L13532.7195,-3552.038L13532.7198,-3552.0362L13532.7177,-3552.0276L13532.7127,-3552.0097L13532.7102,-3552.0061L13532.707,-3552.0033L13532.7028,-3552.001L13532.6958,-3551.9985L13532.686,-3551.9933L13532.6853,-3551.9914L13532.6857,-3551.9905L13532.6875,-3551.9877L13532.6872,-3551.9852L13532.6857,-3551.9819L13532.6819,-3551.9776L13532.6821,-3551.9727L13532.6793,-3551.9678L13532.678,-3551.9623L13532.6763,-3551.9585L13532.6709,-3551.9517L13532.6661,-3551.933L13532.667,-3551.9265L13532.6668,-3551.9138L13532.6693,-3551.9072L13532.6707,-3551.8982L13532.6703,-3551.8793L13532.6695,-3551.8754L13532.6671,-3551.87L13532.6669,-3551.8659L13532.6681,-3551.8557L13532.6705,-3551.8374L13532.6757,-3551.8193L13532.6785,-3551.8131L13532.6842,-3551.8043L13532.6893,-3551.7986L13532.7047,-3551.7841L13532.7101,-3551.7803L13532.7268,-3551.768L13532.733,-3551.7612L13532.7389,-3551.7572L13532.7498,-3551.7505L13532.757,-3551.7461L13532.7735,-3551.7338L13532.7896,-3551.7207L13532.793,-3551.7189L13532.7969,-3551.7177L13532.802,-3551.7173L13532.8086,-3551.7156L13532.8098,-3551.7159L13532.8127,-3551.718L13532.8162,-3551.7183L13532.8202,-3551.7176L13532.8355,-3551.7134L13532.843,-3551.7102L13532.8464,-3551.7094L13532.85,-3551.7101L13532.8525,-3551.7098L13532.8559,-3551.7083L13532.8656,-3551.7009L13532.8692,-3551.6994L13532.8724,-3551.6992L13532.8823,-3551.7009L13532.8868,-3551.7021L13532.8942,-3551.7055L13532.9002,-3551.707L13532.9054,-3551.7098L13532.91,-3551.7131L13532.9121,-3551.7157L13532.9151,-3551.7179L13532.9198,-3551.7192L13532.9223,-3551.7188L13532.9248,-3551.7174L13532.9274,-3551.7168L13532.9312,-3551.7174L13532.9335,-3551.7167L13532.9354,-3551.7153L13532.9374,-3551.7124L13532.9401,-3551.7047L13532.9439,-3551.7001L13532.9463,-3551.6992L13532.9567,-3551.6969L13532.9684,-3551.6955L13532.9774,-3551.695L13532.9855,-3551.6958L13532.9949,-3551.6944L13533.0031,-3551.6947L13533.011,-3551.6967L13533.0161,-3551.6972L13533.0214,-3551.7L13533.0272,-3551.7002L13533.0347,-3551.7016L13533.0403,-3551.7032L13533.0553,-3551.7046L13533.0589,-3551.7039L13533.0635,-3551.7022L13533.0667,-3551.7038L13533.0703,-3551.7047L13533.0727,-3551.7044L13533.0748,-3551.7035L13533.0782,-3551.7008L13533.0828,-3551.7001L13533.0888,-3551.7002L13533.0918,-3551.6983L13533.0973,-3551.6967L13533.099,-3551.6951L13533.0996,-3551.6931L13533.1051,-3551.6911L13533.107,-3551.6886L13533.1092,-3551.6875L13533.1139,-3551.6866L13533.1239,-3551.6833L13533.1287,-3551.683L13533.1298,-3551.6813L13533.1275,-3551.6792L13533.1341,-3551.6723L13533.1424,-3551.6667L13533.1435,-3551.6659L13533.1441,-3551.6638L13533.1432,-3551.6618L13533.1423,-3551.6612L13533.1388,-3551.6606L13533.1379,-3551.66L13533.1389,-3551.6583L13533.1417,-3551.656L13533.1481,-3551.6532L13533.1498,-3551.6519L13533.1513,-3551.6491L13533.1537,-3551.6469L13533.1548,-3551.644L13533.1569,-3551.6414L13533.1588,-3551.6367L13533.1586,-3551.6346L13533.1578,-3551.6336L13533.156,-3551.6323L13533.156,-3551.6304L13533.157,-3551.6299L13533.1652,-3551.6275L13533.1674,-3551.6263L13533.1692,-3551.6239L13533.17,-3551.6207L13533.17,-3551.6175L13533.171,-3551.6157L13533.1742,-3551.613L13533.1767,-3551.6097L13533.1784,-3551.606L13533.1818,-3551.6018L13533.1821,-3551.5999L13533.1815,-3551.5991L13533.1791,-3551.597L13533.179,-3551.596L13533.1793,-3551.593L13533.1781,-3551.5914L13533.1784,-3551.5846L13533.179,-3551.5837L13533.181,-3551.5828L13533.1834,-3551.5831L13533.1868,-3551.5821L13533.1885,-3551.5806L13533.1885,-3551.5796L13533.1866,-3551.5782L13533.183,-3551.5739L13533.1823,-3551.5721L13533.1823,-3551.5701L13533.1855,-3551.5673L13533.191,-3551.5568L13533.1932,-3551.5479L13533.1925,-3551.5406L13533.1937,-3551.539L13533.1975,-3551.5367L13533.1975,-3551.5336L13533.2011,-3551.5296L13533.2026,-3551.525L13533.201,-3551.5234L13533.2007,-3551.5214L13533.202,-3551.5155L13533.2046,-3551.5124L13533.2054,-3551.5095L13533.2047,-3551.5053L13533.2051,-3551.5023L13533.2101,-3551.4932L13533.2131,-3551.4918L13533.2135,-3551.4909L13533.2108,-3551.4891L13533.2132,-3551.4801L13533.2136,-3551.4731L13533.2122,-3551.4671L13533.2124,-3551.4642L13533.2137,-3551.4612L13533.2171,-3551.4559L13533.2176,-3551.454L13533.2175,-3551.452L13533.2157,-3551.4469L13533.2153,-3551.4299L13533.2148,-3551.4227L13533.2148,-3551.4199L13533.2154,-3551.4168L13533.2177,-3551.4107L13533.2182,-3551.4082L13533.2198,-3551.4027L13533.2205,-3551.3976L13533.2205,-3551.396L13533.2206,-3551.3919L13533.2207,-3551.3889L13533.2212,-3551.3863L13533.2226,-3551.383L13533.2242,-3551.379L13533.2249,-3551.3765L13533.2251,-3551.3739L13533.225,-3551.372L13533.224,-3551.3665L13533.2224,-3551.3539L13533.2205,-3551.3498L13533.2192,-3551.346L13533.2167,-3551.3398L13533.2161,-3551.337L13533.2156,-3551.334L13533.2156,-3551.3317L13533.2161,-3551.3275L13533.217,-3551.3244L13533.218,-3551.3219L13533.2187,-3551.3183L13533.2196,-3551.3103L13533.2209,-3551.307L13533.2227,-3551.3038L13533.2241,-3551.3016L13533.2292,-3551.2937L13533.231,-3551.2917L13533.232,-3551.2894L13533.2329,-3551.2865L13533.2338,-3551.2836L13533.2347,-3551.2786L13533.2348,-3551.2741L13533.235,-3551.2722L13533.236,-3551.2702L13533.2374,-3551.2685L13533.2399,-3551.2647L13533.2416,-3551.2618L13533.2429,-3551.2589L13533.2437,-3551.257L13533.2442,-3551.255L13533.2446,-3551.2519L13533.2448,-3551.2494L13533.2452,-3551.2468L13533.2455,-3551.2459L13533.2512,-3551.2439L13533.2527,-3551.2425L13533.252,-3551.2406L13533.2497,-3551.2378L13533.2485,-3551.2349L13533.249,-3551.2296L13533.2463,-3551.2164L13533.2461,-3551.2083L13533.245,-3551.2036L13533.2421,-3551.1972L13533.2415,-3551.1949L13533.2418,-3551.1914L13533.244,-3551.1847L13533.2443,-3551.1825L13533.243,-3551.1769L13533.2394,-3551.1705L13533.2361,-3551.1613L13533.2334,-3551.1555L13533.2307,-3551.1521L13533.2306,-3551.1511L13533.2319,-3551.1495L13533.2322,-3551.1485L13533.2309,-3551.144L13533.2299,-3551.1418L13533.2265,-3551.1344L13533.2159,-3551.1181L13533.204,-3551.1017L13533.1995,-3551.0979L13533.1972,-3551.095L13533.196,-3551.0935L13533.1849,-3551.0797L13533.1758,-3551.0675L13533.1684,-3551.0562L13533.1631,-3551.0453L13533.1602,-3551.0359L13533.1595,-3551.0333L13533.158,-3551.0266L13533.1572,-3551.0153L13533.1567,-3551.0039L13533.1567,-3550.9966L13533.1577,-3550.99L13533.1596,-3550.9847L13533.1616,-3550.9799L13533.1665,-3550.9686L13533.1687,-3550.9636L13533.1687,-3550.9629L13533.1685,-3550.9622L13533.168,-3550.9618L13533.1665,-3550.9612L13533.166,-3550.961L13533.1664,-3550.9591L13533.1677,-3550.9578L13533.1689,-3550.9555L13533.1701,-3550.9537L13533.1709,-3550.9533L13533.1718,-3550.9528L13533.1731,-3550.952L13533.1742,-3550.9507L13533.1748,-3550.9497L13533.1804,-3550.9392L13533.1857,-3550.9283L13533.1897,-3550.9207L13533.1929,-3550.9167L13533.1984,-3550.9104L13533.207,-3550.9019L13533.2177,-3550.8925L13533.2314,-3550.8819L13533.2476,-3550.8712L13533.2592,-3550.8642L13533.2613,-3550.8633L13533.263,-3550.8625L13533.2648,-3550.8619L13533.266,-3550.8613L13533.2678,-3550.8607L13533.2689,-3550.8603L13533.2702,-3550.8598L13533.2726,-3550.8591L13533.2737,-3550.8591L13533.2757,-3550.8588L13533.2774,-3550.8583L13533.2788,-3550.8576L13533.2799,-3550.8568L13533.281,-3550.856L13533.2818,-3550.8552L13533.2825,-3550.8543L13533.283,-3550.8535L13533.2831,-3550.8533L13533.2834,-3550.8524L13533.2836,-3550.8514L13533.2837,-3550.8505L13533.2839,-3550.8499L13533.285,-3550.8489L13533.2874,-3550.8473L13533.2883,-3550.8466L13533.2899,-3550.8451L13533.2916,-3550.8435L13533.2932,-3550.8416L13533.297,-3550.8364L13533.2987,-3550.8333L13533.3032,-3550.8249L13533.3088,-3550.8161L13533.3116,-3550.8121L13533.3133,-3550.8099L13533.3147,-3550.8076L13533.3156,-3550.8054L13533.316,-3550.8041L13533.3161,-3550.8009L13533.3162,-3550.8003L13533.3165,-3550.7987L13533.317,-3550.7975L13533.3177,-3550.7966L13533.3191,-3550.7952L13533.3197,-3550.7942L13533.3208,-3550.7929L13533.3218,-3550.7915L13533.323,-3550.7893L13533.3234,-3550.7875L13533.3229,-3550.784L13533.3227,-3550.7816L13533.3227,-3550.7812L13535.1562,-3550.7812L13535.1562,-3550.7812L13534.2454,-3550.7812L13534.2465,-3550.7824L13534.2507,-3550.7858L13534.254,-3550.7878L13534.2584,-3550.7919L13534.2636,-3550.7964L13534.2661,-3550.7979L13534.2681,-3550.7994L13534.2712,-3550.8002L13534.2734,-3550.8014L13534.2744,-3550.8035L13534.2756,-3550.8069L13534.2776,-3550.8092L13534.2805,-3550.8095L13534.2834,-3550.8088L13534.2864,-3550.8086L13534.2885,-3550.8093L13534.2917,-3550.8098L13534.2941,-3550.8099L13534.2986,-3550.8119L13534.303,-3550.8154L13534.3073,-3550.8191L13534.3123,-3550.824L13534.3188,-3550.8298L13534.3235,-3550.8333L13534.3248,-3550.8344L13534.3309,-3550.839L13534.3341,-3550.8417L13534.3366,-3550.8456L13534.3386,-3550.8511L13534.3414,-3550.8596L13534.3438,-3550.8647L13534.3472,-3550.8688L13534.3517,-3550.8744L13534.3547,-3550.8796L13534.3584,-3550.8836L13534.3624,-3550.8874L13534.3686,-3550.8932L13534.3742,-3550.8987L13534.3806,-3550.9049L13534.389,-3550.9113L13534.397,-3550.9168L13534.4056,-3550.9221L13534.4141,-3550.9258L13534.4223,-3550.928L13534.4304,-3550.9295L13534.436,-3550.9301L13534.4414,-3550.9304L13534.4477,-3550.9306L13534.4545,-3550.9296L13534.4617,-3550.9267L13534.4681,-3550.9238L13534.4764,-3550.9199L13534.4803,-3550.9175L13534.4843,-3550.9167L13534.4893,-3550.9173L13534.4935,-3550.9182L13534.4978,-3550.9207L13534.5001,-3550.9216L13534.5026,-3550.9215L13534.5048,-3550.9198L13534.5178,-3550.9309L13534.5444,-3550.9531L13534.5709,-3550.9753L13534.5853,-3550.9881L13534.5871,-3550.9868L13534.5194,-3550.9303L13534.5481,-3550.9077L13534.5744,-3550.8869L13534.5887,-3550.8756L13534.5923,-3550.8728L13534.6016,-3550.8659L13534.6408,-3550.8973L13534.6461,-3550.8928L13534.6603,-3550.8811L13534.6814,-3550.8971L13534.6973,-3550.9105L13534.7122,-3550.9232L13534.7217,-3550.9333L13534.7287,-3550.9425L13534.7333,-3550.9512L13534.7363,-3550.9606L13534.7386,-3550.9695L13534.74,-3550.9799L13534.7401,-3550.9877L13534.7385,-3550.9959L13534.7347,-3551.0059L13534.7264,-3551.0228L13534.7163,-3551.0441L13534.7062,-3551.0649L13534.705,-3551.0659L13534.7036,-3551.0652L13534.7021,-3551.0643L13534.7007,-3551.0648L13534.6985,-3551.0657L13534.6966,-3551.0643L13534.6798,-3551.0773L13534.6746,-3551.0766L13534.6739,-3551.08L13534.6896,-3551.0829L13534.6956,-3551.0896L13534.6953,-3551.0918L13534.6878,-3551.1071L13534.6838,-3551.1169L13534.6704,-3551.1496L13534.6686,-3551.154L13534.6535,-3551.1885L13534.6427,-3551.2112L13534.6298,-3551.2313L13534.6146,-3551.2542L13534.5941,-3551.2862L13534.5721,-3551.2719L13534.536,-3551.3084L13534.5378,-3551.3167L13534.4661,-3551.335L13534.4699,-3551.3459L13534.4538,-3551.3613L13534.4307,-3551.3091L13534.4627,-3551.2885L13534.4612,-3551.2871L13534.4268,-3551.3094L13534.44,-3551.3396L13534.4363,-3551.3418L13534.4341,-3551.3395L13534.4257,-3551.3456L13534.4209,-3551.3411L13534.3902,-3551.3648L13534.3947,-3551.3695L13534.363,-3551.3929L13534.3783,-3551.4608L13534.3792,-3551.4646L13534.3957,-3551.5341L13534.4124,-3551.5313L13534.4061,-3551.5345L13534.3993,-3551.5439L13534.3965,-3551.5496L13534.3931,-3551.5535L13534.3931,-3551.5603L13534.3951,-3551.5698L13534.3993,-3551.5732L13534.3999,-3551.5732L13534.4103,-3551.5743L13534.413,-3551.5783L13534.4261,-3551.5834L13534.4344,-3551.5834L13534.4399,-3551.5811L13534.45,-3551.5818L13534.4522,-3551.5813L13534.4559,-3551.5793L13534.4617,-3551.5749L13534.4664,-3551.5736L13534.4682,-3551.5726L13534.4723,-3551.5687L13534.484,-3551.5743L13534.5054,-3551.576L13534.5088,-3551.5879L13534.5192,-3551.5952L13534.5274,-3551.5969L13534.5295,-3551.5974L13534.5357,-3551.6053L13534.5564,-3551.6138L13534.5628,-3551.6134L13534.5645,-3551.6112L13534.5701,-3551.6124L13534.5763,-3551.6134L13534.5837,-3551.6143L13534.5923,-3551.615L13534.5998,-3551.6156L13534.6048,-3551.6161L13534.6095,-3551.6165L13534.6184,-3551.6173L13534.6273,-3551.6184L13534.6372,-3551.62L13534.6482,-3551.6221L13534.6609,-3551.6247L13534.6713,-3551.6268L13534.6807,-3551.6285L13534.688,-3551.63L13534.6961,-3551.6313L13534.6999,-3551.6316L13534.7041,-3551.6317L13534.7079,-3551.6314L13534.7116,-3551.6304L13534.7151,-3551.6289L13534.7174,-3551.6277L13534.7204,-3551.6265L13534.7223,-3551.6259L13534.7262,-3551.6248L13534.7315,-3551.6243L13534.7397,-3551.624L13534.7475,-3551.6238L13534.7537,-3551.6242L13534.7589,-3551.6247L13534.7652,-3551.6256L13534.7739,-3551.6282L13534.7817,-3551.6307L13534.7894,-3551.6336L13534.7935,-3551.6358L13534.7987,-3551.6386L13534.8027,-3551.6414L13534.807,-3551.6458L13534.8124,-3551.6524L13534.8193,-3551.6611L13534.8234,-3551.6667L13534.824,-3551.6676L13534.8288,-3551.6733L13534.833,-3551.6782L13534.8386,-3551.6838L13534.8441,-3551.6883L13534.8526,-3551.6944L13534.862,-3551.7012L13534.8724,-3551.7088L13534.8844,-3551.7175L13534.8963,-3551.7265L13534.9086,-3551.7355L13534.9146,-3551.7399L13534.9212,-3551.7456L13534.9265,-3551.7507L13534.9307,-3551.755L13534.9345,-3551.7601L13534.9382,-3551.7654L13534.943,-3551.773L13534.9465,-3551.7788L13534.9497,-3551.7844L13534.9515,-3551.7871L13534.9542,-3551.7951L13534.9568,-3551.8031L13534.9589,-3551.8102L13534.9611,-3551.8176L13534.963,-3551.8239L13534.9645,-3551.8289L13534.9659,-3551.8326L13534.9684,-3551.8411L13534.9733,-3551.8653L13534.9751,-3551.8769L13534.9758,-3551.8858L13534.9755,-3551.8925L13534.975,-3551.9006L13534.9736,-3551.9116L13534.9734,-3551.9163L13534.9746,-3551.9189L13534.9711,-3551.9233L13534.9695,-3551.9273L13534.968,-3551.9299L13534.9667,-3551.9311L13534.9649,-3551.9308L13534.9631,-3551.9302L13534.9616,-3551.93L13534.9586,-3551.94L13534.9555,-3551.9393L13534.9534,-3551.94L13534.9486,-3551.9439L13534.9412,-3551.9494L13534.9358,-3551.9538L13534.9342,-3551.9557L13534.9298,-3551.9553L13534.9254,-3551.9561L13534.9232,-3551.9572L13534.921,-3551.958L13534.9186,-3551.9588L13534.9156,-3551.9589L13534.9115,-3551.9623L13534.9093,-3551.9658L13534.9084,-3551.9708L13534.9086,-3551.9758L13534.912,-3551.9817L13534.9166,-3551.9867L13534.9199,-3551.9904L13534.9209,-3551.9918L13534.925,-3551.9977L13534.928,-3552.0046L13534.9297,-3552.0093L13534.9307,-3552.0139L13534.9315,-3552.0173L13534.926,-3552.0343L13534.9314,-3552.0353L13534.936,-3552.037L13534.9379,-3552.0378L13534.939,-3552.0393L13534.9405,-3552.0404L13534.942,-3552.0416L13534.9418,-3552.0433L13534.9387,-3552.0418L13534.9355,-3552.0405L13534.932,-3552.0388L13534.9298,-3552.0381L13534.9286,-3552.0475L13534.9143,-3552.0458L13534.9119,-3552.0659L13534.9155,-3552.0665L13534.9155,-3552.0693L13534.9194,-3552.0697L13534.9182,-3552.0796L13534.9157,-3552.0894L13534.9109,-3552.108L13534.9007,-3552.1067L13534.8976,-3552.1159L13534.8948,-3552.1234L13534.8908,-3552.1312L13534.8863,-3552.1376L13534.8782,-3552.1443L13534.8707,-3552.1484L13534.8639,-3552.1511L13534.8632,-3552.1463L13534.8468,-3552.147L13534.8476,-3552.1519L13534.8261,-3552.1527L13534.8252,-3552.1349L13534.8156,-3552.136L13534.8158,-3552.1531L13534.7787,-3552.1483L13534.7796,-3552.143L13534.7589,-3552.1403L13534.7594,-3552.1365L13534.6963,-3552.1281L13534.6844,-3552.0758L13534.6465,-3552.0809L13534.6539,-3552.1127L13534.6149,-3552.1189L13534.568,-3552.1263L13534.5712,-3552.138L13534.5526,-3552.1377L13534.5523,-3552.1284L13534.5298,-3552.1285L13534.4747,-3552.1291L13534.4934,-3552.1038L13534.4972,-3552.1005L13534.5294,-3552.0667L13534.5426,-3552.0622L13534.5405,-3552.058L13534.5828,-3552.0436L13534.5785,-3552.0353L13534.496,-3552.0634L13534.4947,-3552.0638L13534.4953,-3552.0659L13534.4935,-3552.0665L13534.4924,-3552.0649L13534.4857,-3552.067L13534.4861,-3552.0685L13534.4837,-3552.0694L13534.4828,-3552.068L13534.4751,-3552.0707L13534.4757,-3552.0722L13534.4733,-3552.0731L13534.4725,-3552.0716L13534.4645,-3552.0742L13534.4655,-3552.0759L13534.4628,-3552.077L13534.4616,-3552.0751L13534.4543,-3552.0778L13534.4555,-3552.0798L13534.453,-3552.0807L13534.4524,-3552.0795L13534.4471,-3552.0813L13534.4462,-3552.0802L13534.4191,-3552.0897L13534.4196,-3552.0907L13534.401,-3552.0968L13534.3224,-3552.1242L13534.216,-3552.1619L13534.2164,-3552.1629L13534.2074,-3552.166L13534.2082,-3552.1672L13534.2047,-3552.1683L13534.204,-3552.1673L13534.1667,-3552.1801L13534.1563,-3552.1837L13534.1571,-3552.1853L13534.1529,-3552.1868L13534.1518,-3552.1853L13534.1304,-3552.1928L13534.131,-3552.1942L13534.1277,-3552.1953L13534.127,-3552.1941L13534.105,-3552.2017L13534.1058,-3552.2032L13534.1022,-3552.2045L13534.1013,-3552.203L13534.0797,-3552.2105L13534.0806,-3552.2124L13534.0774,-3552.2134L13534.076,-3552.2116L13534.0547,-3552.2191L13534.0556,-3552.2209L13534.0521,-3552.2222L13534.0509,-3552.2206L13534.0373,-3552.2252L13534.0383,-3552.2273L13534.0355,-3552.2282L13534.0343,-3552.226L13534.0296,-3552.2278L13534.0306,-3552.23L13534.0263,-3552.2315L13534.025,-3552.2294L13533.981,-3552.2446L13533.9625,-3552.2512L13533.9628,-3552.2519L13533.928,-3552.2639L13533.9289,-3552.2653L13533.9251,-3552.267L13533.9242,-3552.2654L13533.9034,-3552.2726L13533.9044,-3552.2745L13533.9,-3552.276L13533.8989,-3552.2742L13533.8772,-3552.2817L13533.8781,-3552.2834L13533.8743,-3552.2848L13533.8735,-3552.2829L13533.8632,-3552.2865L13533.8732,-3552.307L13533.9515,-3552.2803L13534.0271,-3552.255L13534.026,-3552.2526L13534.04,-3552.2477L13534.0789,-3552.2347L13534.1476,-3552.2112L13534.1667,-3552.2046L13534.1854,-3552.1982L13534.1917,-3552.196L13534.2013,-3552.1926L13534.2017,-3552.1925L13534.2149,-3552.1881L13534.2697,-3552.1695L13534.3076,-3552.157L13534.3531,-3552.1415L13534.3541,-3552.1431L13534.4695,-3552.1031L13534.4748,-3552.1123L13534.4598,-3552.1324L13534.4264,-3552.1464L13534.4033,-3552.1686L13534.38,-3552.21L13534.3472,-3552.2098L13534.2942,-3552.2093L13534.257,-3552.2091L13534.2401,-3552.209L13534.239,-3552.2079L13534.2183,-3552.2026L13534.2078,-3552.2057L13534.198,-3552.2089L13534.1815,-3552.2171L13534.1667,-3552.238L13534.1586,-3552.2493L13534.1334,-3552.2844L13534.0737,-3552.3487L13534.0561,-3552.3615L13534.0201,-3552.3671L13534.0195,-3552.3486L13533.9617,-3552.3503L13533.9634,-3552.3734L13533.9634,-3552.3742L13533.91,-3552.3634L13533.8433,-3552.4243L13533.8363,-3552.4307L13533.8421,-3552.4348L13533.8329,-3552.4491L13533.8325,-3552.4638L13533.8428,-3552.4794L13533.8529,-3552.4947L13533.8529,-3552.4972L13533.8529,-3552.5L13533.8531,-3552.523L13533.8525,-3552.5398L13533.8453,-3552.5443L13533.8423,-3552.546L13533.8422,-3552.546L13533.8379,-3552.5475L13533.8335,-3552.5484L13533.8292,-3552.5491L13533.8258,-3552.5492L13533.8235,-3552.549L13533.8201,-3552.5487L13533.8095,-3552.5466L13533.7831,-3552.5099L13533.7665,-3552.5174L13533.806,-3552.5736L13533.804,-3552.5811L13533.7347,-3552.6141L13533.7433,-3552.6267L13533.8064,-3552.5979L13533.8157,-3552.6002L13533.8184,-3552.6023L13533.8198,-3552.6036L13533.8208,-3552.6046L13533.8211,-3552.606L13533.8203,-3552.6079L13533.819,-3552.6103L13533.8171,-3552.6131L13533.8143,-3552.6161L13533.8102,-3552.6201L13533.8052,-3552.6242L13533.8004,-3552.6282L13533.7963,-3552.6323L13533.7918,-3552.6368L13533.7881,-3552.6412L13533.7852,-3552.6454L13533.7831,-3552.6488L13533.7809,-3552.6526L13533.7788,-3552.6549L13533.7764,-3552.6572L13533.7727,-3552.6591L13533.7695,-3552.6605L13533.7653,-3552.6623L13533.7619,-3552.664L13533.7599,-3552.6659L13533.7589,-3552.6677L13533.7585,-3552.6697L13533.7587,-3552.6716L13533.7604,-3552.6736L13533.7631,-3552.6762L13533.7653,-3552.6786L13533.7668,-3552.6811L13533.7686,-3552.6843L13533.7704,-3552.6881L13533.7713,-3552.692L13533.7714,-3552.6959L13533.771,-3552.7003L13533.7708,-3552.7037L13533.7706,-3552.7078L13533.771,-3552.7119L13533.7718,-3552.7156L13533.7729,-3552.7191L13533.7743,-3552.723L13533.7759,-3552.7272L13533.7773,-3552.7325L13533.7788,-3552.7389L13533.7797,-3552.7437L13533.7803,-3552.749L13533.7807,-3552.7552L13533.7812,-3552.7599L13533.7819,-3552.7649L13533.7826,-3552.7695L13533.7828,-3552.7732L13533.7822,-3552.7772L13533.781,-3552.7809L13533.7795,-3552.785L13533.7782,-3552.7896L13533.7771,-3552.7944L13533.7765,-3552.8004L13533.7756,-3552.806L13533.7749,-3552.8096L13533.7734,-3552.8141L13533.7716,-3552.8189L13533.7691,-3552.8242L13533.766,-3552.8302L13533.7624,-3552.8374L13533.7582,-3552.8444L13533.7546,-3552.851L13533.7502,-3552.8586L13533.7461,-3552.8658L13533.7416,-3552.8733L13533.7374,-3552.8805L13533.7333,-3552.888L13533.7296,-3552.8946L13533.7263,-3552.9017L13533.7239,-3552.9077L13533.722,-3552.9133L13533.7203,-3552.92L13533.7182,-3552.926L13533.7158,-3552.9316L13533.7136,-3552.9376L13533.7112,-3552.9452L13533.7094,-3552.9518L13533.7087,-3552.9577L13533.7087,-3552.9625L13533.7081,-3552.9676L13533.707,-3552.9727L13533.7057,-3552.9777L13533.704,-3552.9839L13533.7026,-3552.9902L13533.7029,-3552.9963L13533.7033,-3553.0048L13533.7045,-3553.0111L13533.7039,-3553.0159L13533.7004,-3553.02L13533.6984,-3553.0243L13533.6989,-3553.031L13533.6994,-3553.0371L13533.698,-3553.0427L13533.6953,-3553.05L13533.6949,-3553.0557L13533.6928,-3553.0624L13533.6928,-3553.0701L13533.6918,-3553.0759L13533.6883,-3553.0819L13533.6838,-3553.09L13533.6829,-3553.0965L13533.68,-3553.1034L13533.6759,-3553.111L13533.6733,-3553.1186L13533.6672,-3553.1344L13533.6645,-3553.1415L13533.663,-3553.1476L13533.6633,-3553.1527L13533.6642,-3553.1578L13533.663,-3553.1647L13533.6595,-3553.1729L13533.6557,-3553.1799L13533.6512,-3553.1879L13533.648,-3553.1936L13533.6459,-3553.1964L13533.6442,-3553.1986L13533.6404,-3553.2019L13533.6376,-3553.2073L13533.6348,-3553.2092L13533.6329,-3553.2117L13533.6327,-3553.2167L13533.6324,-3553.2199L13533.6322,-3553.2207L13533.6312,-3553.2245L13533.6302,-3553.2286L13533.6287,-3553.2339L13533.6277,-3553.2392L13533.6276,-3553.2452L13533.6282,-3553.2518L13533.6301,-3553.2587L13533.6326,-3553.2637L13533.6354,-3553.2693L13533.637,-3553.2744L13533.6393,-3553.2841L13533.6388,-3553.2991L13533.6382,-3553.3131L13533.6371,-3553.3237L13533.6367,-3553.3333L13533.6366,-3553.3347L13533.6357,-3553.3475L13533.6337,-3553.3541L13533.6314,-3553.3589L13533.6301,-3553.363L13533.6304,-3553.3671L13533.6301,-3553.3708L13533.6276,-3553.3756L13533.6264,-3553.3814L13533.6268,-3553.3879L13533.6259,-3553.3933L13533.6254,-3553.3966L13533.6267,-3553.4048L13533.6271,-3553.4109L13533.6285,-3553.4177L13533.6318,-3553.4228L13533.6325,-3553.4277L13533.6317,-3553.4331L13533.6339,-3553.4366L13533.6361,-3553.4398L13533.6366,-3553.4416L13533.6362,-3553.4449L13533.6373,-3553.4493L13533.6391,-3553.4534L13533.6419,-3553.4576L13533.6444,-3553.4608L13533.6464,-3553.4641L13533.6477,-3553.4673L13533.6492,-3553.4715L13533.6502,-3553.4765L13533.6503,-3553.4831L13533.651,-3553.4877L13533.6522,-3553.4915L13533.6551,-3553.4962L13533.6572,-3553.4997L13533.6587,-3553.5042L13533.6598,-3553.5098L13533.6605,-3553.5153L13533.6599,-3553.5259L13533.6602,-3553.5362L13533.6604,-3553.5468L13533.6606,-3553.5552L13533.6611,-3553.5637L13533.6618,-3553.5732L13533.6617,-3553.5817L13533.6606,-3553.5909L13533.6597,-3553.5987L13533.6584,-3553.6067L13533.6586,-3553.6128L13533.6587,-3553.6195L13533.6588,-3553.6261L13533.6602,-3553.6332L13533.661,-3553.6399L13533.6611,-3553.6455L13533.6605,-3553.6514L13533.6594,-3553.6568L13533.6578,-3553.6609L13533.656,-3553.6649L13533.6539,-3553.6686L13533.6521,-3553.6718L13533.6505,-3553.6757L13533.6505,-3553.6797L13533.6511,-3553.6848L13533.6532,-3553.6897L13533.6557,-3553.6969L13533.6574,-3553.7017L13533.6581,-3553.7055L13533.6577,-3553.7094L13533.6557,-3553.7153L13533.6525,-3553.7253L13533.6517,-3553.7342L13533.6516,-3553.7442L13533.6511,-3553.7534L13533.6507,-3553.7602L13533.6511,-3553.7694L13533.6529,-3553.7767L13533.6551,-3553.7842L13533.6573,-3553.7906L13533.6584,-3553.7975L13533.6589,-3553.8028L13533.659,-3553.805L13533.6542,-3553.8027L13533.654,-3553.8039L13533.6488,-3553.8059L13533.6502,-3553.8081L13533.6532,-3553.8108L13533.6549,-3553.8107L13533.6592,-3553.8115L13533.6596,-3553.8171L13533.6606,-3553.8231L13533.6628,-3553.8292L13533.6661,-3553.8343L13533.6683,-3553.8387L13533.6701,-3553.8445L13533.6711,-3553.8483L13533.6714,-3553.8492L13533.672,-3553.8522L13533.6724,-3553.8548L13533.6731,-3553.8563L13533.6746,-3553.8586L13533.6762,-3553.8606L13533.6772,-3553.8629L13533.6776,-3553.8654L13533.6777,-3553.8681L13533.6782,-3553.8714L13533.6789,-3553.8749L13533.6808,-3553.8791L13533.6829,-3553.8831L13533.6854,-3553.8883L13533.6874,-3553.8923L13533.6895,-3553.896L13533.6909,-3553.8997L13533.6919,-3553.9032L13533.6923,-3553.9067L13533.6921,-3553.9098L13533.6915,-3553.912L13533.6906,-3553.9151L13533.6877,-3553.9189L13533.6883,-3553.9191L13533.6878,-3553.9222L13533.6878,-3553.9224L13533.6916,-3553.9281L13533.6924,-3553.9326L13533.6943,-3553.939L13533.6952,-3553.9446L13533.6957,-3553.9498L13533.6955,-3553.9541L13533.6952,-3553.9572L13533.6945,-3553.9605L13533.6934,-3553.9633L13533.6911,-3553.9665L13533.6875,-3553.9715L13533.6874,-3553.9771L13533.6909,-3553.9847L13533.6941,-3553.9876L13533.697,-3553.9909L13533.6986,-3553.993L13533.6993,-3553.995L13533.6991,-3553.9973L13533.6978,-3553.9994L13533.6958,-3554.0023L13533.694,-3554.0072L13533.6952,-3554.0146L13533.6942,-3554.0163L13533.6931,-3554.0175L13533.6914,-3554.0189L13533.6898,-3554.0203L13533.6724,-3554.029L13533.6715,-3554.0367L13533.6786,-3554.0528L13533.6853,-3554.0535L13533.6952,-3554.0476L13533.7046,-3554.0357L13533.7055,-3554.035L13533.7073,-3554.0346L13533.7092,-3554.0346L13533.7109,-3554.0348L13533.7125,-3554.0354L13533.7147,-3554.0365L13533.7168,-3554.038L13533.7196,-3554.0408L13533.7223,-3554.0433L13533.7254,-3554.0472L13533.7281,-3554.0505L13533.7306,-3554.0544L13533.7327,-3554.0585L13533.7352,-3554.0639L13533.7374,-3554.0691L13533.7391,-3554.0734L13533.7404,-3554.0781L13533.7414,-3554.0832L13533.7421,-3554.0883L13533.7421,-3554.0931L13533.7411,-3554.0972L13533.7396,-3554.1005L13533.7372,-3554.1032L13533.7344,-3554.1055L13533.7307,-3554.108L13533.7221,-3554.1128L13533.7186,-3554.1145L13533.7106,-3554.1168L13533.705,-3554.1194L13533.7033,-3554.1248L13533.7056,-3554.1255L13533.711,-3554.1269L13533.7149,-3554.1288L13533.7107,-3554.1332L13533.7072,-3554.1411L13533.7118,-3554.1455L13533.719,-3554.1438L13533.7242,-3554.1377L13533.7265,-3554.1293L13533.7283,-3554.13L13533.7295,-3554.1311L13533.731,-3554.133L13533.7327,-3554.1348L13533.7342,-3554.1358L13533.7327,-3554.1377L13533.7315,-3554.1387L13533.7338,-3554.1419L13533.7364,-3554.1425L13533.7439,-3554.137L13533.7437,-3554.1359L13533.7453,-3554.1361L13533.747,-3554.1368L13533.7487,-3554.1375L13533.7505,-3554.1392L13533.752,-3554.1416L13533.7504,-3554.1416L13533.7488,-3554.1455L13533.7504,-3554.1468L13533.7529,-3554.1476L13533.7545,-3554.15L13533.7538,-3554.1529L13533.7552,-3554.1541L13533.7604,-3554.1556L13533.7621,-3554.1559L13533.764,-3554.1582L13533.7664,-3554.1616L13533.769,-3554.1653L13533.77,-3554.1667L13533.7719,-3554.1692L13533.7753,-3554.1734L13533.7796,-3554.1781L13533.7839,-3554.183L13533.7871,-3554.1882L13533.7887,-3554.1925L13533.7893,-3554.1957L13533.7896,-3554.1986L13533.7877,-3554.1998L13533.7856,-3554.2038L13533.7863,-3554.2063L13533.7899,-3554.2068L13533.7902,-3554.2082L13533.7865,-3554.2115L13533.7848,-3554.213L13533.7871,-3554.2163L13533.7878,-3554.2178L13533.7963,-3554.2175L13533.7975,-3554.217L13533.799,-3554.2193L13533.8011,-3554.2229L13533.802,-3554.2271L13533.8013,-3554.2297L13533.798,-3554.2324L13533.7931,-3554.2347L13533.7923,-3554.2395L13533.7928,-3554.2402L13533.7979,-3554.2441L13533.8096,-3554.247L13533.814,-3554.2456L13533.816,-3554.2464L13533.8182,-3554.2484L13533.8207,-3554.251L13533.824,-3554.2559L13533.8282,-3554.2625L13533.8285,-3554.263L13533.8316,-3554.2696L13533.8344,-3554.2753L13533.83,-3554.2784L13533.8295,-3554.2828L13533.83,-3554.2844L13533.8391,-3554.2865L13533.8391,-3554.2845L13533.8418,-3554.2885L13533.8396,-3554.2879L13533.8391,-3554.2913L13533.8409,-3554.2956L13533.8442,-3554.2958L13533.8478,-3554.2921L13533.8518,-3554.2943L13533.8492,-3554.2939L13533.8508,-3554.2983L13533.8529,-3554.3004L13533.8583,-3554.3012L13533.8584,-3554.2992L13533.8637,-3554.3033L13533.8684,-3554.308L13533.8746,-3554.3138L13533.8787,-3554.3185L13533.8832,-3554.3239L13533.8897,-3554.3311L13533.8949,-3554.3372L13533.8975,-3554.3415L13533.8994,-3554.3456L13533.9005,-3554.3505L13533.9009,-3554.3548L13533.9008,-3554.358L13533.9009,-3554.3627L13533.9012,-3554.3677L13533.9017,-3554.3725L13533.9025,-3554.3766L13533.9037,-3554.3803L13533.9044,-3554.3835L13533.9047,-3554.3856L13533.9043,-3554.3877L13533.9037,-3554.3905L13533.8992,-3554.3902L13533.8974,-3554.399L13533.9001,-3554.3985L13533.8992,-3554.4015L13533.8997,-3554.4025L13533.9006,-3554.4037L13533.9026,-3554.4062L13533.9056,-3554.4095L13533.9084,-3554.413L13533.9111,-3554.4171L13533.912,-3554.4197L13533.9084,-3554.4221L13533.9068,-3554.4226L13533.9081,-3554.4259L13533.9105,-3554.4271L13533.9072,-3554.4303L13533.9071,-3554.4326L13533.9116,-3554.4343L13533.9094,-3554.438L13533.9099,-3554.4392L13533.9135,-3554.4405L13533.9111,-3554.4419L13533.9099,-3554.443L13533.9124,-3554.447L13533.9136,-3554.4474L13533.916,-3554.4484L13533.9171,-3554.4527L13533.918,-3554.4563L13533.9186,-3554.4602L13533.919,-3554.4648L13533.9187,-3554.4697L13533.9184,-3554.4747L13533.9189,-3554.4807L13533.9199,-3554.4878L13533.92,-3554.4937L13533.9192,-3554.4966L13533.9179,-3554.4992L13533.915,-3554.5059L13533.9135,-3554.512L13533.9137,-3554.5169L13533.9143,-3554.5215L13533.9154,-3554.5253L13533.9172,-3554.5309L13533.9176,-3554.5362L13533.9174,-3554.5402L13533.9169,-3554.545L13533.9162,-3554.5487L13533.9163,-3554.5524L13533.9169,-3554.556L13533.9182,-3554.5609L13533.9198,-3554.566L13533.9212,-3554.5723L13533.9219,-3554.5785L13533.921,-3554.5829L13533.9197,-3554.5864L13533.9173,-3554.5908L13533.9158,-3554.594L13533.9149,-3554.5976L13533.914,-3554.6025L13533.9125,-3554.6096L13533.9109,-3554.617L13533.9087,-3554.6254L13533.907,-3554.6334L13533.9054,-3554.6392L13533.9033,-3554.6458L13533.8997,-3554.6544L13533.8963,-3554.6631L13533.8932,-3554.6718L13533.8899,-3554.6792L13533.8892,-3554.6765L13533.8833,-3554.6776L13533.8831,-3554.6791L13533.8841,-3554.6841L13533.886,-3554.6854L13533.888,-3554.6849L13533.8865,-3554.6915L13533.8855,-3554.6966L13533.884,-3554.7024L13533.883,-3554.7071L13533.876,-3554.7122L13533.8737,-3554.7151L13533.8779,-3554.7158L13533.8818,-3554.7154L13533.8819,-3554.7187L13533.8783,-3554.7206L13533.8763,-3554.7235L13533.8769,-3554.7269L13533.8706,-3554.722L13533.8689,-3554.7249L13533.8725,-3554.7269L13533.8703,-3554.7299L13533.8689,-3554.7328L13533.8724,-3554.7329L13533.8777,-3554.7328L13533.8796,-3554.7359L13533.8768,-3554.7386L13533.8661,-3554.7435L13533.8636,-3554.7461L13533.8649,-3554.7497L13533.8676,-3554.7526L13533.8712,-3554.7536L13533.8746,-3554.7524L13533.8786,-3554.7559L13533.8784,-3554.7616L13533.8812,-3554.7632L13533.8821,-3554.7662L13533.8779,-3554.7673L13533.8739,-3554.7655L13533.8714,-3554.7627L13533.8687,-3554.7657L13533.8709,-3554.7683L13533.8776,-3554.7699L13533.8839,-3554.7708L13533.8868,-3554.7733L13533.8851,-3554.7768L13533.8795,-3554.775L13533.8748,-3554.775L13533.873,-3554.7761L13533.8675,-3554.7768L13533.8707,-3554.7779L13533.8781,-3554.778L13533.8821,-3554.7799L13533.8818,-3554.7836L13533.8818,-3554.7875L13533.8845,-3554.7871L13533.8855,-3554.7819L13533.8892,-3554.7823L13533.8904,-3554.7874L13533.8925,-3554.7904L13533.8902,-3554.7935L13533.8903,-3554.795L13533.895,-3554.7956L13533.8976,-3554.7979L13533.9022,-3554.802L13533.9037,-3554.808L13533.9086,-3554.8128L13533.9122,-3554.8165L13533.9132,-3554.8197L13533.9132,-3554.826L13533.9109,-3554.8282L13533.9075,-3554.83L13533.91,-3554.833L13533.9156,-3554.8346L13533.9196,-3554.8359L13533.9201,-3554.8385L13533.9176,-3554.8408L13533.9201,-3554.8427L13533.9228,-3554.8407L13533.9285,-3554.8427L13533.9311,-3554.8454L13533.9377,-3554.8436L13533.9405,-3554.8461L13533.94,-3554.8497L13533.9401,-3554.8559L13533.9441,-3554.8573L13533.9473,-3554.8607L13533.947,-3554.8656L13533.9452,-3554.8692L13533.9484,-3554.8724L13533.9525,-3554.8741L13533.9535,-3554.8735L13533.9618,-3554.8734L13533.9704,-3554.8761L13533.9815,-3554.8822L13533.9877,-3554.8882L13533.9911,-3554.8932L13533.9888,-3554.8964L13533.9905,-3554.8982L13533.9969,-3554.8975L13533.9995,-3554.8979L13534.0023,-3554.9025L13534.0011,-3554.9062L13534.0014,-3554.9098L13534.0063,-3554.9112L13534.0099,-3554.9142L13534.0104,-3554.9198L13534.0114,-3554.9261L13534.0157,-3554.9322L13534.0206,-3554.9373L13534.0238,-3554.9396L13534.0208,-3554.9426L13534.0171,-3554.9442L13534.015,-3554.9473L13534.0177,-3554.9504L13534.0165,-3554.9528L13534.0174,-3554.9547L13534.0207,-3554.9544L13534.0257,-3554.9575L13534.0303,-3554.9584L13534.0323,-3554.9623L13534.0299,-3554.9664L13534.031,-3554.9686L13534.0301,-3554.9727L13534.0282,-3554.9755L13534.0309,-3554.9765L13534.0341,-3554.9736L13534.0349,-3554.9693L13534.0383,-3554.9676L13534.0413,-3554.9703L13534.0419,-3554.9746L13534.0406,-3554.9774L13534.0431,-3554.9817L13534.0452,-3554.9872L13534.0434,-3554.9905L13534.0383,-3554.9944L13534.041,-3554.9969L13534.0479,-3554.9995L13534.0479,-3555L13534.0484,-3555.0034L13534.0511,-3555.0054L13534.0603,-3555.0055L13534.0648,-3555.0065L13534.0675,-3555.0094L13534.0657,-3555.0132L13534.0632,-3555.0157L13534.0678,-3555.0202L13534.0707,-3555.0239L13534.0685,-3555.0266L13534.0695,-3555.0285L13534.074,-3555.0283L13534.0769,-3555.0313L13534.0771,-3555.0352L13534.0817,-3555.0338L13534.0864,-3555.0357L13534.0879,-3555.0388L13534.0887,-3555.0425L13534.0923,-3555.0453L13534.0994,-3555.0471L13534.1004,-3555.0523L13534.1096,-3555.0559L13534.1172,-3555.0593L13534.121,-3555.0577L13534.1258,-3555.0606L13534.13,-3555.0646L13534.1328,-3555.0648L13534.1308,-3555.0705L13534.1314,-3555.0722L13534.1366,-3555.0715L13534.1403,-3555.073L13534.1472,-3555.0758L13534.149,-3555.0799L13534.1491,-3555.0845L13534.1528,-3555.087L13534.1575,-3555.0845L13534.1616,-3555.0874L13534.1629,-3555.0925L13534.1615,-3555.0971L13534.1638,-3555.1018L13534.1667,-3555.102L13534.1711,-3555.1024L13534.1788,-3555.1033L13534.184,-3555.1016L13534.1884,-3555.1L13534.1952,-3555.1024L13534.1972,-3555.1069L13534.1954,-3555.1115L13534.1919,-3555.1152L13534.1875,-3555.1167L13534.1904,-3555.1184L13534.1944,-3555.1169L13534.1981,-3555.1173L13534.2025,-3555.1191L13534.2038,-3555.1214L13534.2054,-3555.1247L13534.2099,-3555.1233L13534.2149,-3555.1208L13534.22,-3555.122L13534.2272,-3555.1267L13534.2344,-3555.1296L13534.2367,-3555.1355L13534.2372,-3555.1406L13534.2414,-3555.149L13534.2401,-3555.1554L13534.2422,-3555.1601L13534.241,-3555.1642L13534.2378,-3555.1664L13534.2391,-3555.1709L13534.2429,-3555.1738L13534.2441,-3555.1758L13534.3427,-3555.1758L13534.3435,-3555.1744L13534.3492,-3555.1698L13534.3549,-3555.1661L13534.3599,-3555.1653L13534.3625,-3555.1693L13534.3639,-3555.1758L13534.3835,-3555.1758L13534.3823,-3555.1718L13534.3799,-3555.1677L13534.3749,-3555.1635L13534.3688,-3555.1575L13534.3631,-3555.155L13534.3627,-3555.151L13534.3601,-3555.1482L13534.3558,-3555.1479L13534.3528,-3555.1502L13534.3503,-3555.1448L13534.3555,-3555.1409L13534.3639,-3555.1398L13534.3717,-3555.1414L13534.3764,-3555.1454L13534.3857,-3555.1507L13534.3897,-3555.1541L13534.3929,-3555.1537L13534.3904,-3555.1459L13534.3888,-3555.1393L13534.3882,-3555.1344L13534.3894,-3555.1302L13534.3949,-3555.1368L13534.3988,-3555.1408L13534.4018,-3555.1396L13534.411,-3555.1351L13534.4135,-3555.1268L13534.4109,-3555.1221L13534.408,-3555.119L13534.4068,-3555.1126L13534.4085,-3555.1074L13534.4077,-3555.1025L13534.4029,-3555.0998L13534.3991,-3555.0986L13534.3974,-3555.0957L13534.4,-3555.0907L13534.4064,-3555.0829L13534.4131,-3555.0738L13534.4123,-3555.0706L13534.4146,-3555.0682L13534.4206,-3555.0693L13534.4224,-3555.0656L13534.419,-3555.0653L13534.4154,-3555.0668L13534.4115,-3555.065L13534.4113,-3555.0607L13534.4142,-3555.0573L13534.4206,-3555.0552L13534.4253,-3555.0578L13534.4288,-3555.0588L13534.4261,-3555.0552L13534.4232,-3555.0528L13534.4261,-3555.0493L13534.4286,-3555.0464L13534.4306,-3555.0422L13534.4274,-3555.0404L13534.4214,-3555.0399L13534.4186,-3555.0386L13534.417,-3555.0328L13534.4143,-3555.0292L13534.4165,-3555.023L13534.4153,-3555.0195L13534.4175,-3555.0176L13534.4218,-3555.0155L13534.4214,-3555.0102L13534.4129,-3555.011L13534.408,-3555.0104L13534.4043,-3555.0073L13534.4021,-3555.0043L13534.4026,-3555.0003L13534.4027,-3555L13534.404,-3554.9957L13534.4064,-3554.9915L13534.4095,-3554.9877L13534.4112,-3554.9841L13534.4113,-3554.9817L13534.4113,-3554.98L13534.416,-3554.9784L13534.4164,-3554.9755L13534.4119,-3554.9746L13534.4116,-3554.9725L13534.4129,-3554.9679L13534.415,-3554.9672L13534.4173,-3554.9661L13534.4178,-3554.9644L13534.4174,-3554.9622L13534.4163,-3554.9591L13534.4165,-3554.9577L13534.4178,-3554.9563L13534.4206,-3554.9543L13534.4239,-3554.9515L13534.425,-3554.949L13534.4261,-3554.9453L13534.4275,-3554.9414L13534.4276,-3554.9398L13534.4271,-3554.9386L13534.426,-3554.9364L13534.426,-3554.9343L13534.4254,-3554.9318L13534.4243,-3554.9309L13534.4226,-3554.9304L13534.421,-3554.9328L13534.4191,-3554.9356L13534.4171,-3554.9356L13534.415,-3554.9344L13534.4149,-3554.9322L13534.4157,-3554.9275L13534.4158,-3554.924L13534.4168,-3554.9217L13534.4186,-3554.9203L13534.4212,-3554.9182L13534.4208,-3554.9164L13534.4192,-3554.9155L13534.4174,-3554.9149L13534.4144,-3554.9135L13534.4137,-3554.912L13534.4142,-3554.909L13534.4157,-3554.9051L13534.4163,-3554.9021L13534.4165,-3554.8984L13534.4169,-3554.8963L13534.418,-3554.8947L13534.4198,-3554.8931L13534.4211,-3554.8902L13534.4223,-3554.8837L13534.427,-3554.882L13534.4293,-3554.8781L13534.4255,-3554.8784L13534.4211,-3554.8803L13534.4202,-3554.8779L13534.4182,-3554.8754L13534.4151,-3554.8739L13534.4133,-3554.8722L13534.4121,-3554.8699L13534.4118,-3554.8658L13534.4115,-3554.8632L13534.41,-3554.8597L13534.4079,-3554.8554L13534.4058,-3554.8489L13534.4039,-3554.8429L13534.4025,-3554.8372L13534.4021,-3554.832L13534.4024,-3554.8258L13534.4027,-3554.8228L13534.4043,-3554.8198L13534.4084,-3554.8156L13534.4107,-3554.8115L13534.4114,-3554.8093L13534.4111,-3554.806L13534.4098,-3554.8021L13534.4094,-3554.7993L13534.4101,-3554.7964L13534.4111,-3554.793L13534.4131,-3554.7937L13534.4146,-3554.7922L13534.417,-3554.789L13534.4173,-3554.7853L13534.4148,-3554.7848L13534.4133,-3554.784L13534.4126,-3554.7795L13534.4131,-3554.7749L13534.4148,-3554.7709L13534.4166,-3554.7684L13534.4179,-3554.7656L13534.4185,-3554.7622L13534.4186,-3554.7578L13534.4182,-3554.7538L13534.4182,-3554.7503L13534.4185,-3554.7466L13534.4196,-3554.7421L13534.421,-3554.7372L13534.4239,-3554.7292L13534.4247,-3554.7276L13534.4256,-3554.7245L13534.4226,-3554.7201L13534.421,-3554.7207L13534.421,-3554.7156L13534.4225,-3554.7112L13534.424,-3554.7077L13534.4258,-3554.705L13534.4294,-3554.7012L13534.4361,-3554.6989L13534.4359,-3554.6971L13534.435,-3554.6921L13534.4327,-3554.6873L13534.4316,-3554.6878L13534.4318,-3554.6855L13534.4326,-3554.6827L13534.4353,-3554.6798L13534.4372,-3554.6771L13534.4385,-3554.6751L13534.4389,-3554.6723L13534.4393,-3554.672L13534.4386,-3554.6687L13534.4374,-3554.6689L13534.435,-3554.662L13534.4334,-3554.6557L13534.4321,-3554.6503L13534.4305,-3554.6448L13534.4289,-3554.6404L13534.4268,-3554.6342L13534.4251,-3554.6282L13534.424,-3554.6237L13534.4231,-3554.6204L13534.423,-3554.6179L13534.4231,-3554.6154L13534.4222,-3554.6122L13534.4195,-3554.6069L13534.4172,-3554.6013L13534.4153,-3554.5942L13534.4142,-3554.5865L13534.4131,-3554.5783L13534.4118,-3554.5713L13534.4111,-3554.5688L13534.4105,-3554.5669L13534.4094,-3554.5608L13534.4038,-3554.5518L13534.4009,-3554.5434L13534.3981,-3554.5348L13534.395,-3554.5268L13534.3918,-3554.5194L13534.389,-3554.512L13534.3868,-3554.5061L13534.385,-3554.5002L13534.3835,-3554.4949L13534.3831,-3554.4886L13534.3839,-3554.4827L13534.3847,-3554.4765L13534.3862,-3554.4695L13534.3882,-3554.4627L13534.391,-3554.4573L13534.3951,-3554.4523L13534.4011,-3554.4472L13534.4125,-3554.4384L13534.4248,-3554.4293L13534.4373,-3554.4213L13534.4531,-3554.4123L13534.47,-3554.4043L13534.4904,-3554.3953L13534.5036,-3554.3895L13534.5164,-3554.384L13534.5315,-3554.3769L13534.5696,-3554.3565L13534.5997,-3554.3422L13534.6288,-3554.3303L13534.6643,-3554.3166L13534.6874,-3554.3085L13534.712,-3554.3009L13534.7346,-3554.2959L13534.7524,-3554.2931L13534.7655,-3554.2924L13534.7755,-3554.2925L13534.7832,-3554.2925L13534.7864,-3554.2926L13534.791,-3554.2926L13534.797,-3554.2932L13534.8081,-3554.2931L13534.82,-3554.2938L13534.8301,-3554.2957L13534.8443,-3554.2987L13534.8577,-3554.3023L13534.871,-3554.306L13534.8843,-3554.3096L13534.899,-3554.3144L13534.9173,-3554.3196L13534.9324,-3554.3241L13534.9494,-3554.3291L13534.9716,-3554.335L13534.9888,-3554.3386L13535,-3554.3401L13535.0046,-3554.3407L13535.0151,-3554.3428L13535.0234,-3554.3446L13535.0339,-3554.3484L13535.0433,-3554.3527L13535.0497,-3554.3552L13535.0552,-3554.3565L13535.0619,-3554.3581L13535.0642,-3554.3598L13535.0697,-3554.3628L13535.0766,-3554.3668L13535.0863,-3554.3703L13535.0976,-3554.3752L13535.1089,-3554.3813L13535.1229,-3554.389L13535.1397,-3554.3983L13535.1562,-3554.4091L13535.1562,-3554.4091Z"/>
<path content="京都府,,,舞鶴市,,26202" xlink:title="京都府" d="M13534.6384,-3552.0285L13534.6158,-3551.857L13534.6077,-3551.8578L13534.63,-3552.0276L13534.6198,-3552.0483L13534.6272,-3552.0513L13534.6384,-3552.0285Z"/>
<path content="京都府,,,舞鶴市,,26202" xlink:title="京都府" d="M13534.7244,-3551.7084L13534.7165,-3551.7067L13534.6826,-3551.839L13534.6905,-3551.8407L13534.7244,-3551.7084Z"/>
<path content="京都府,,,舞鶴市,,26202" xlink:title="京都府" d="M13532.6757,-3552.1632L13532.6793,-3552.1591L13532.6815,-3552.1596L13532.6836,-3552.1585L13532.6855,-3552.155L13532.6852,-3552.1532L13532.686,-3552.1514L13532.6884,-3552.1493L13532.6915,-3552.148L13532.6923,-3552.1473L13532.6917,-3552.1446L13532.6939,-3552.1434L13532.6943,-3552.1424L13532.6938,-3552.1415L13532.6928,-3552.1408L13532.6905,-3552.1405L13532.6834,-3552.142L13532.6796,-3552.1417L13532.6749,-3552.1427L13532.6684,-3552.1454L13532.6645,-3552.1479L13532.6635,-3552.1496L13532.6639,-3552.1536L13532.6651,-3552.1565L13532.668,-3552.1607L13532.6733,-3552.1634L13532.6745,-3552.1636L13532.6757,-3552.1632Z"/>
<path content="京都府,,,舞鶴市,,26202" xlink:title="京都府" d="M13531.3913,-3551.5893L13531.3899,-3551.5893L13531.389,-3551.5903L13531.3856,-3551.5903L13531.3859,-3551.5944L13531.3863,-3551.5952L13531.3866,-3551.5979L13531.3876,-3551.5998L13531.3893,-3551.6027L13531.3906,-3551.6042L13531.3925,-3551.6048L13531.3937,-3551.6058L13531.3949,-3551.6059L13531.3953,-3551.6063L13531.3969,-3551.6062L13531.3983,-3551.6039L13531.3984,-3551.5988L13531.3963,-3551.595L13531.3934,-3551.5916L13531.3913,-3551.5893Z"/>
<path content="京都府,,,舞鶴市,,26202" xlink:title="京都府" d="M13531.2854,-3551.5109L13531.2812,-3551.5093L13531.2721,-3551.5127L13531.2692,-3551.5145L13531.2691,-3551.5155L13531.2715,-3551.5192L13531.2711,-3551.5222L13531.2728,-3551.5239L13531.2739,-3551.5241L13531.2754,-3551.5223L13531.283,-3551.5169L13531.2843,-3551.5141L13531.2866,-3551.5137L13531.2867,-3551.5127L13531.2854,-3551.5109Z"/>
<path content="京都府,,,舞鶴市,,26202" xlink:title="京都府" d="M13533.8486,-3554.7027L13533.8485,-3554.7011L13533.8471,-3554.7018L13533.8468,-3554.6961L13533.8447,-3554.6948L13533.8419,-3554.6953L13533.8391,-3554.6956L13533.8366,-3554.6966L13533.8368,-3554.7001L13533.8384,-3554.7026L13533.8391,-3554.7052L13533.8404,-3554.7063L13533.8419,-3554.7071L13533.8435,-3554.7084L13533.8442,-3554.709L13533.8462,-3554.7068L13533.8478,-3554.7044L13533.8492,-3554.7041L13533.8491,-3554.7036L13533.8486,-3554.7027Z"/>
<path content="京都府,,,舞鶴市,,26202" xlink:title="京都府" d="M13533.7733,-3554.2288L13533.7721,-3554.2287L13533.7701,-3554.2288L13533.7668,-3554.2287L13533.7667,-3554.2321L13533.7669,-3554.2335L13533.7676,-3554.2348L13533.7696,-3554.236L13533.7713,-3554.2367L13533.7732,-3554.2371L13533.7742,-3554.2386L13533.7747,-3554.239L13533.7755,-3554.2387L13533.7778,-3554.2379L13533.7788,-3554.2363L13533.7779,-3554.2348L13533.7771,-3554.2319L13533.7765,-3554.2302L13533.775,-3554.23L13533.7733,-3554.2288Z"/>
<path content="京都府,,,舞鶴市,,26202" xlink:title="京都府" d="M13531.5103,-3551.7648L13531.5083,-3551.7641L13531.5057,-3551.7641L13531.5054,-3551.7659L13531.5042,-3551.7675L13531.5055,-3551.7692L13531.506,-3551.7723L13531.5073,-3551.7741L13531.5093,-3551.775L13531.5111,-3551.7759L13531.5126,-3551.7759L13531.5138,-3551.7748L13531.5142,-3551.7735L13531.5141,-3551.7721L13531.5133,-3551.7713L13531.5134,-3551.7707L13531.5143,-3551.7706L13531.5124,-3551.7661L13531.5103,-3551.7648Z"/>
<path content="京都府,,,舞鶴市,,26202" xlink:title="京都府" d="M13532.3742,-3552.5754L13532.373,-3552.5749L13532.3702,-3552.5754L13532.3671,-3552.5772L13532.3653,-3552.5799L13532.3654,-3552.5819L13532.3669,-3552.5835L13532.3683,-3552.5835L13532.3746,-3552.5822L13532.3758,-3552.5817L13532.3764,-3552.581L13532.3757,-3552.577L13532.3742,-3552.5754Z"/>
<path content="京都府,,,舞鶴市,,26202" xlink:title="京都府" d="M13531.7175,-3552.3634L13531.7128,-3552.3604L13531.7101,-3552.3605L13531.7059,-3552.3659L13531.7057,-3552.3669L13531.7064,-3552.3677L13531.711,-3552.3685L13531.7156,-3552.3675L13531.7174,-3552.3662L13531.718,-3552.3653L13531.7175,-3552.3634Z"/>
<path content="京都府,,,舞鶴市,,26202" xlink:title="京都府" d="M13532.3474,-3552.5913L13532.3453,-3552.591L13532.343,-3552.5917L13532.341,-3552.5945L13532.3417,-3552.5986L13532.3427,-3552.6003L13532.3438,-3552.6009L13532.3463,-3552.6009L13532.3475,-3552.6006L13532.3483,-3552.5999L13532.3496,-3552.5961L13532.3489,-3552.593L13532.3474,-3552.5913Z"/>
<path content="京都府,,,舞鶴市,,26202" xlink:title="京都府" d="M13531.3615,-3551.5494L13531.3629,-3551.5488L13531.3636,-3551.5482L13531.3638,-3551.5476L13531.3632,-3551.5471L13531.3627,-3551.5463L13531.3616,-3551.5453L13531.3608,-3551.5446L13531.3596,-3551.5436L13531.3589,-3551.5441L13531.3539,-3551.544L13531.3507,-3551.5441L13531.3507,-3551.5458L13531.3531,-3551.5472L13531.354,-3551.5483L13531.3547,-3551.5488L13531.3556,-3551.5491L13531.3564,-3551.5494L13531.3577,-3551.5493L13531.3594,-3551.5494L13531.3597,-3551.5499L13531.3611,-3551.5499L13531.3615,-3551.5494Z"/>
<path content="京都府,,,舞鶴市,,26202" xlink:title="京都府" d="M13532.6719,-3552.1815L13532.6676,-3552.1814L13532.6671,-3552.183L13532.6657,-3552.1832L13532.6642,-3552.1857L13532.6628,-3552.1862L13532.6627,-3552.1894L13532.6637,-3552.1898L13532.6659,-3552.1896L13532.6674,-3552.189L13532.6688,-3552.1879L13532.671,-3552.187L13532.6721,-3552.1852L13532.6721,-3552.1833L13532.6719,-3552.1815Z"/>
<path content="京都府,,,舞鶴市,,26202" xlink:title="京都府" d="M13531.6817,-3552.1061L13531.6817,-3552.1054L13531.6812,-3552.1054L13531.681,-3552.1046L13531.6804,-3552.104L13531.6798,-3552.1029L13531.6785,-3552.1019L13531.6776,-3552.1008L13531.6776,-3552.0986L13531.6766,-3552.0985L13531.6763,-3552.0991L13531.6757,-3552.0996L13531.6746,-3552.0997L13531.6743,-3552.1001L13531.673,-3552.1006L13531.6724,-3552.1022L13531.6717,-3552.103L13531.6729,-3552.1039L13531.6737,-3552.1046L13531.6739,-3552.1056L13531.6748,-3552.1061L13531.6756,-3552.1069L13531.6763,-3552.1073L13531.677,-3552.1074L13531.6774,-3552.1078L13531.6791,-3552.108L13531.6795,-3552.1083L13531.6803,-3552.1082L13531.6808,-3552.1074L13531.6811,-3552.1069L13531.6811,-3552.1063L13531.6817,-3552.1061Z"/>
<path content="京都府,,,舞鶴市,,26202" xlink:title="京都府" d="M13534.4533,-3554.9078L13534.4528,-3554.9074L13534.4512,-3554.9074L13534.4511,-3554.9085L13534.4506,-3554.9091L13534.4498,-3554.9109L13534.4509,-3554.9118L13534.4511,-3554.9127L13534.4513,-3554.9136L13534.4526,-3554.9142L13534.4537,-3554.9149L13534.4546,-3554.9156L13534.4551,-3554.9154L13534.4558,-3554.9148L13534.4566,-3554.9143L13534.4574,-3554.9128L13534.4584,-3554.9118L13534.4565,-3554.9109L13534.4562,-3554.9095L13534.4554,-3554.9088L13534.4533,-3554.9078Z"/>
<path content="京都府,,,舞鶴市,,26202" xlink:title="京都府" d="M13532.0324,-3552.5182L13532.0295,-3552.5176L13532.0254,-3552.5179L13532.0257,-3552.5189L13532.0304,-3552.5222L13532.0328,-3552.5228L13532.034,-3552.5227L13532.035,-3552.522L13532.0352,-3552.52L13532.0324,-3552.5182Z"/>
<path content="京都府,,,舞鶴市,,26202" xlink:title="京都府" d="M13531.5265,-3551.7716L13531.5241,-3551.7709L13531.5219,-3551.7715L13531.5213,-3551.7735L13531.5177,-3551.776L13531.517,-3551.7768L13531.5169,-3551.7778L13531.5185,-3551.7797L13531.523,-3551.7764L13531.5233,-3551.7755L13531.5225,-3551.7749L13531.5248,-3551.7744L13531.5234,-3551.7731L13531.5265,-3551.7716Z"/>
<path content="京都府,,,舞鶴市,,26202" xlink:title="京都府" d="M13532.3978,-3552.5726L13532.3976,-3552.5702L13532.3966,-3552.5715L13532.395,-3552.5732L13532.3943,-3552.5742L13532.3939,-3552.5757L13532.3939,-3552.5791L13532.3948,-3552.5798L13532.3959,-3552.5803L13532.3967,-3552.5806L13532.3976,-3552.5811L13532.3978,-3552.5791L13532.3978,-3552.5753L13532.3978,-3552.575L13532.3978,-3552.5746L13532.3977,-3552.5739L13532.3978,-3552.5726Z"/>
<path content="京都府,,,舞鶴市,,26202" xlink:title="京都府" d="M13531.6947,-3552.3593L13531.6936,-3552.3589L13531.6915,-3552.3597L13531.6904,-3552.3623L13531.6909,-3552.3631L13531.6933,-3552.3632L13531.697,-3552.3658L13531.6991,-3552.3653L13531.6947,-3552.3593Z"/>
<path content="京都府,,,舞鶴市,,26202" xlink:title="京都府" d="M13534.4612,-3554.6544L13534.4617,-3554.6539L13534.461,-3554.6539L13534.4593,-3554.6548L13534.4575,-3554.6556L13534.4561,-3554.6566L13534.456,-3554.6581L13534.4567,-3554.6586L13534.4571,-3554.6596L13534.4573,-3554.6604L13534.4579,-3554.6602L13534.4586,-3554.6596L13534.4603,-3554.6589L13534.4606,-3554.6584L13534.4628,-3554.6574L13534.4639,-3554.6562L13534.4657,-3554.6554L13534.4611,-3554.6553L13534.4612,-3554.6544Z"/>
<path content="京都府,,,舞鶴市,,26202" xlink:title="京都府" d="M13531.6989,-3552.0025L13531.6978,-3551.9997L13531.694,-3552L13531.6934,-3552.0008L13531.6957,-3552.0031L13531.6977,-3552.004L13531.6986,-3552.0034L13531.6989,-3552.0025Z"/>
<path content="京都府,,,舞鶴市,,26202" xlink:title="京都府" d="M13532.3816,-3552.5712L13532.3811,-3552.5699L13532.3799,-3552.5689L13532.3792,-3552.5679L13532.3785,-3552.5673L13532.3783,-3552.5664L13532.3766,-3552.5663L13532.3754,-3552.5663L13532.3746,-3552.5672L13532.376,-3552.5684L13532.3777,-3552.5699L13532.3788,-3552.5701L13532.3793,-3552.5706L13532.3802,-3552.5705L13532.3816,-3552.5712Z"/>
<path content="京都府,,,舞鶴市,,26202" xlink:title="京都府" d="M13531.6096,-3551.8728L13531.6072,-3551.8725L13531.6062,-3551.8728L13531.6053,-3551.8746L13531.6058,-3551.8764L13531.6071,-3551.8773L13531.6092,-3551.8747L13531.6096,-3551.8728Z"/>
<path content="京都府,,,舞鶴市,,26202" xlink:title="京都府" d="M13531.614,-3551.8772L13531.6125,-3551.8758L13531.6113,-3551.8759L13531.6088,-3551.8779L13531.6089,-3551.8797L13531.6098,-3551.8802L13531.6105,-3551.8797L13531.6134,-3551.878L13531.614,-3551.8772Z"/>
<path content="京都府,,,舞鶴市,,26202" xlink:title="京都府" d="M13531.5729,-3551.8197L13531.5731,-3551.8173L13531.569,-3551.8173L13531.568,-3551.8177L13531.5681,-3551.8186L13531.5697,-3551.8201L13531.5708,-3551.8205L13531.5729,-3551.8197Z"/>
<path content="京都府,,,舞鶴市,,26202" xlink:title="京都府" d="M13531.7848,-3552.3208L13531.782,-3552.3204L13531.7791,-3552.3215L13531.779,-3552.3224L13531.7799,-3552.3231L13531.7823,-3552.3233L13531.7844,-3552.3227L13531.7848,-3552.3208Z"/>
<path content="京都府,,,舞鶴市,,26202" xlink:title="京都府" d="M13531.5894,-3551.8549L13531.5885,-3551.8543L13531.5874,-3551.8544L13531.5857,-3551.8557L13531.5875,-3551.8581L13531.5887,-3551.8583L13531.5904,-3551.8567L13531.5894,-3551.8549Z"/>
</g>
</svg>
