<?xml version="1.0" encoding="UTF-8"?>
<svg  xmlns="http://www.w3.org/2000/svg" xmlns:xlink="http://www.w3.org/1999/xlink" xmlns:go="http://purl.org/svgmap/profile" property="geometry,N03_001,N03_002,N03_003,N03_004,N03_005,N03_007" viewBox="13548.33984375 -3353.02734375 4.39453125 4.39453125" go:dataArea="13548.33984375 -3353.02734375 4.39453125 4.39453125" >
<metadata>
 <rdf:RDF xmlns:rdf="http://www.w3.org/1999/02/22-rdf-syntax-ns#" xmlns:crs="http://opengis.org/xmldtds/transformations.dtd" xmlns:svg="http://www.w3.org/svg" >
  <rdf:Description>
   <crs:CoordinateReferenceSystem rdf:resource="http://purl.org/crs/84" svg:transform="matrix(100.0,0.0,0.0,-100.0,0.0,0.0)" />
  </rdf:Description>
 </rdf:RDF>
</metadata>
<globalCoordinateSystem srsName="http://purl.org/crs/84" transform="matrix(100.0,0.0,0.0,-100.0,0.0,0.0)" />
<defs>
 <g id="p0" >
  <circle cx="0.0" cy="0.0" r="3" stroke="green" stroke-width="2.0" vector-effect="non-scaling-stroke" />
 </g>
</defs>
<g fill="#0000ff" fill-rule="evenodd" opacity="0.5" >
<path content="和歌山県,,西牟婁郡,すさみ町,,30406" xlink:title="和歌山県" d="M13552.7344,-3353.0273L13552.7344,-3352.2019L13552.7306,-3352.1957L13552.7252,-3352.1917L13552.7193,-3352.1888L13552.7154,-3352.1845L13552.713,-3352.1792L13552.7047,-3352.1732L13552.7017,-3352.1713L13552.6987,-3352.1719L13552.6959,-3352.174L13552.6924,-3352.1736L13552.691,-3352.1742L13552.6932,-3352.1771L13552.7034,-3352.1843L13552.7037,-3352.1859L13552.7018,-3352.1904L13552.7019,-3352.1931L13552.7042,-3352.1957L13552.7106,-3352.1983L13552.7145,-3352.2L13552.7167,-3352.204L13552.7239,-3352.2093L13552.7304,-3352.2141L13552.7322,-3352.217L13552.7301,-3352.2189L13552.7244,-3352.2189L13552.7182,-3352.2199L13552.7145,-3352.2207L13552.7116,-3352.2214L13552.7112,-3352.2241L13552.7138,-3352.2282L13552.7105,-3352.2284L13552.7089,-3352.2299L13552.7092,-3352.2329L13552.7017,-3352.237L13552.6959,-3352.2411L13552.689,-3352.2472L13552.6787,-3352.2528L13552.6676,-3352.257L13552.6602,-3352.2584L13552.6567,-3352.2598L13552.6453,-3352.2665L13552.6316,-3352.2715L13552.6267,-3352.2731L13552.6237,-3352.2713L13552.621,-3352.2709L13552.6179,-3352.2722L13552.617,-3352.2749L13552.6129,-3352.2775L13552.6087,-3352.2807L13552.6036,-3352.2834L13552.5963,-3352.2861L13552.5891,-3352.2887L13552.5783,-3352.2908L13552.561,-3352.2932L13552.5489,-3352.2947L13552.5449,-3352.2905L13552.5427,-3352.2881L13552.5403,-3352.2874L13552.5374,-3352.2879L13552.5337,-3352.2897L13552.5327,-3352.2925L13552.5335,-3352.2953L13552.5301,-3352.2955L13552.5189,-3352.2992L13552.5138,-3352.3001L13552.509,-3352.2989L13552.5051,-3352.2973L13552.5026,-3352.2975L13552.5,-3352.2997L13552.4989,-3352.3015L13552.4963,-3352.3047L13552.4911,-3352.3072L13552.4858,-3352.3086L13552.4814,-3352.3103L13552.4765,-3352.3148L13552.4727,-3352.3153L13552.4663,-3352.3164L13552.4634,-3352.3148L13552.4589,-3352.3154L13552.456,-3352.318L13552.453,-3352.3187L13552.4471,-3352.3206L13552.4396,-3352.3215L13552.4336,-3352.3237L13552.4288,-3352.3263L13552.4245,-3352.3285L13552.4198,-3352.3291L13552.4103,-3352.3286L13552.3976,-3352.3278L13552.3774,-3352.3254L13552.3635,-3352.3233L13552.3544,-3352.3208L13552.3438,-3352.3167L13552.3439,-3352.315L13552.3405,-3352.3001L13552.338,-3352.2958L13552.3313,-3352.292L13552.3264,-3352.2885L13552.3264,-3352.2853L13552.3225,-3352.2827L13552.3186,-3352.2768L13552.3128,-3352.2736L13552.3075,-3352.2719L13552.3033,-3352.2724L13552.3011,-3352.2748L13552.2955,-3352.2725L13552.2924,-3352.2697L13552.2895,-3352.2624L13552.2887,-3352.2581L13552.2858,-3352.2526L13552.2878,-3352.2483L13552.2913,-3352.2464L13552.2974,-3352.247L13552.3034,-3352.2438L13552.3093,-3352.2434L13552.313,-3352.2402L13552.3157,-3352.2382L13552.3187,-3352.2357L13552.3191,-3352.2292L13552.3144,-3352.2244L13552.3096,-3352.2215L13552.3063,-3352.2165L13552.3018,-3352.2131L13552.2975,-3352.211L13552.2938,-3352.2121L13552.2961,-3352.2061L13552.2944,-3352.2056L13552.2922,-3352.2079L13552.2873,-3352.2055L13552.2833,-3352.2036L13552.2793,-3352.2038L13552.2761,-3352.2043L13552.2714,-3352.2023L13552.2653,-3352.2005L13552.2575,-3352.2005L13552.2499,-3352.2003L13552.248,-3352.1998L13552.2506,-3352.1957L13552.254,-3352.1918L13552.2552,-3352.1875L13552.251,-3352.1828L13552.2457,-3352.1797L13552.2369,-3352.1769L13552.2323,-3352.1749L13552.2297,-3352.1741L13552.228,-3352.1758L13552.2228,-3352.1752L13552.2212,-3352.1804L13552.2198,-3352.1856L13552.22,-3352.1891L13552.2203,-3352.1917L13552.218,-3352.1926L13552.2148,-3352.1927L13552.2115,-3352.1953L13552.2088,-3352.1931L13552.2069,-3352.1946L13552.2059,-3352.1981L13552.2044,-3352.2002L13552.2018,-3352.1993L13552.1925,-3352.1921L13552.1875,-3352.1888L13552.1837,-3352.1865L13552.1795,-3352.1861L13552.1743,-3352.1857L13552.1713,-3352.1871L13552.1707,-3352.1887L13552.1798,-3352.1946L13552.1843,-3352.1989L13552.1908,-3352.2035L13552.1903,-3352.2046L13552.1883,-3352.2045L13552.183,-3352.2012L13552.1781,-3352.201L13552.1749,-3352.1996L13552.1653,-3352.1925L13552.1561,-3352.1853L13552.1518,-3352.1849L13552.1468,-3352.1822L13552.1415,-3352.1781L13552.1381,-3352.1754L13552.1368,-3352.1791L13552.1337,-3352.1814L13552.1314,-3352.1819L13552.1269,-3352.179L13552.1252,-3352.1797L13552.1253,-3352.1825L13552.1279,-3352.1871L13552.1341,-3352.1924L13552.1411,-3352.1956L13552.16,-3352.2079L13552.1681,-3352.213L13552.1729,-3352.2165L13552.1737,-3352.2188L13552.1724,-3352.2233L13552.1719,-3352.2261L13552.1693,-3352.2264L13552.1645,-3352.2241L13552.159,-3352.2213L13552.1503,-3352.2157L13552.14,-3352.2113L13552.1298,-3352.2049L13552.1197,-3352.201L13552.1112,-3352.1975L13552.1085,-3352.1968L13552.1056,-3352.1981L13552.1027,-3352.2008L13552.1022,-3352.205L13552.0979,-3352.2043L13552.0969,-3352.2084L13552.0947,-3352.2126L13552.095,-3352.2151L13552.0925,-3352.2193L13552.0918,-3352.2234L13552.0928,-3352.2259L13552.0966,-3352.2273L13552.0994,-3352.2289L13552.1002,-3352.2309L13552.0985,-3352.234L13552.0968,-3352.2368L13552.0944,-3352.2356L13552.0913,-3352.2366L13552.0904,-3352.2387L13552.0864,-3352.2383L13552.0854,-3352.2366L13552.0872,-3352.2338L13552.0866,-3352.2323L13552.083,-3352.2317L13552.079,-3352.2286L13552.0748,-3352.2275L13552.0691,-3352.2286L13552.0636,-3352.2287L13552.0599,-3352.2295L13552.0561,-3352.2315L13552.0551,-3352.2332L13552.0569,-3352.2348L13552.0571,-3352.236L13552.0503,-3352.2386L13552.0458,-3352.2392L13552.0399,-3352.2406L13552.0353,-3352.2415L13552.0308,-3352.2399L13552.0298,-3352.2368L13552.0258,-3352.2347L13552.0217,-3352.2357L13552.0159,-3352.2368L13552.009,-3352.2332L13552.0046,-3352.2314L13552.0019,-3352.2318L13551.9945,-3352.2292L13551.9873,-3352.2244L13551.9854,-3352.223L13551.9765,-3352.2228L13551.9703,-3352.2236L13551.9686,-3352.2219L13551.961,-3352.2215L13551.9535,-3352.2222L13551.9503,-3352.2241L13551.9396,-3352.2238L13551.9297,-3352.2245L13551.9239,-3352.2234L13551.9189,-3352.2185L13551.9161,-3352.2138L13551.9145,-3352.2064L13551.9144,-3352.2021L13551.9165,-3352.1981L13551.9155,-3352.1949L13551.9174,-3352.1859L13551.919,-3352.1803L13551.9175,-3352.1759L13551.9155,-3352.1729L13551.9122,-3352.1716L13551.908,-3352.1726L13551.9064,-3352.1739L13551.901,-3352.1747L13551.8976,-3352.1758L13551.8956,-3352.1757L13551.8968,-3352.1726L13551.8983,-3352.17L13551.8983,-3352.1679L13551.8962,-3352.1647L13551.8929,-3352.1629L13551.8902,-3352.1621L13551.8878,-3352.1638L13551.885,-3352.1651L13551.8844,-3352.1666L13551.8822,-3352.1681L13551.8808,-3352.1666L13551.8812,-3352.164L13551.8813,-3352.1615L13551.8798,-3352.1604L13551.877,-3352.1622L13551.8736,-3352.1649L13551.8715,-3352.1655L13551.8699,-3352.1642L13551.8717,-3352.1612L13551.8732,-3352.1583L13551.8735,-3352.1564L13551.8712,-3352.1552L13551.8678,-3352.1556L13551.867,-3352.1578L13551.8592,-3352.1637L13551.8559,-3352.1661L13551.8545,-3352.1694L13551.8545,-3352.1722L13551.8514,-3352.1752L13551.8491,-3352.1768L13551.8463,-3352.1764L13551.8429,-3352.174L13551.8387,-3352.1718L13551.8356,-3352.1711L13551.8311,-3352.173L13551.8278,-3352.1748L13551.8262,-3352.1774L13551.8269,-3352.1787L13551.8238,-3352.1823L13551.8238,-3352.1845L13551.8247,-3352.1864L13551.8237,-3352.1871L13551.8218,-3352.1868L13551.8192,-3352.1862L13551.8164,-3352.1888L13551.8149,-3352.1913L13551.8134,-3352.1917L13551.8126,-3352.1895L13551.8112,-3352.1888L13551.8095,-3352.1875L13551.807,-3352.1874L13551.8036,-3352.1872L13551.8005,-3352.1906L13551.7997,-3352.1945L13551.7987,-3352.1971L13551.7968,-3352.1994L13551.7931,-3352.2005L13551.7914,-3352.2012L13551.7904,-3352.2036L13551.7906,-3352.2055L13551.7888,-3352.2067L13551.7837,-3352.2063L13551.7818,-3352.205L13551.7781,-3352.205L13551.7721,-3352.2077L13551.7668,-3352.2095L13551.7653,-3352.2107L13551.7646,-3352.2106L13551.7656,-3352.2085L13551.7669,-3352.2066L13551.7662,-3352.2052L13551.765,-3352.2035L13551.7637,-3352.204L13551.7606,-3352.2083L13551.7597,-3352.2104L13551.76,-3352.2123L13551.7596,-3352.2145L13551.7578,-3352.2162L13551.754,-3352.2193L13551.75,-3352.2216L13551.7491,-3352.223L13551.7504,-3352.2245L13551.7496,-3352.2274L13551.7482,-3352.2304L13551.7476,-3352.2319L13551.7447,-3352.229L13551.742,-3352.2293L13551.7366,-3352.2311L13551.7339,-3352.2337L13551.732,-3352.2374L13551.7283,-3352.2411L13551.7251,-3352.2433L13551.7243,-3352.2459L13551.7257,-3352.2494L13551.7283,-3352.2528L13551.7337,-3352.257L13551.7329,-3352.2583L13551.7253,-3352.255L13551.7231,-3352.2533L13551.7205,-3352.2532L13551.7178,-3352.2554L13551.7159,-3352.2569L13551.7145,-3352.2558L13551.7108,-3352.2596L13551.7098,-3352.2649L13551.7099,-3352.2685L13551.7082,-3352.2695L13551.7053,-3352.2685L13551.7035,-3352.2678L13551.6991,-3352.2728L13551.6981,-3352.2743L13551.6996,-3352.2762L13551.7034,-3352.2799L13551.7057,-3352.2827L13551.7052,-3352.2842L13551.7034,-3352.2826L13551.7011,-3352.2816L13551.6969,-3352.2841L13551.6935,-3352.2878L13551.6919,-3352.291L13551.6895,-3352.2928L13551.6886,-3352.2921L13551.6892,-3352.2884L13551.6899,-3352.2839L13551.6894,-3352.281L13551.6882,-3352.2793L13551.6851,-3352.2774L13551.6829,-3352.2791L13551.6799,-3352.2824L13551.6777,-3352.2856L13551.676,-3352.2882L13551.6733,-3352.29L13551.67,-3352.291L13551.6667,-3352.292L13551.6631,-3352.2932L13551.6556,-3352.2962L13551.6456,-3352.3017L13551.6366,-3352.3044L13551.6334,-3352.3045L13551.629,-3352.3027L13551.6229,-3352.3035L13551.6111,-3352.3084L13551.6037,-3352.3097L13551.5967,-3352.3095L13551.5785,-3352.3136L13551.5703,-3352.3161L13551.5652,-3352.3189L13551.562,-3352.3241L13551.558,-3352.3283L13551.5507,-3352.3327L13551.5418,-3352.336L13551.5362,-3352.3366L13551.5319,-3352.3368L13551.5289,-3352.338L13551.5262,-3352.3411L13551.5232,-3352.346L13551.5209,-3352.3461L13551.5209,-3352.3397L13551.52,-3352.3362L13551.518,-3352.3352L13551.515,-3352.3366L13551.5081,-3352.3348L13551.5055,-3352.3339L13551.5032,-3352.3345L13551.4998,-3352.3367L13551.4978,-3352.3375L13551.4943,-3352.3358L13551.4919,-3352.3377L13551.4927,-3352.3405L13551.4921,-3352.3427L13551.4913,-3352.3476L13551.4926,-3352.3501L13551.4963,-3352.3515L13551.499,-3352.3541L13551.4994,-3352.3613L13551.4969,-3352.3659L13551.4904,-3352.3738L13551.4836,-3352.3797L13551.4818,-3352.3848L13551.4793,-3352.3916L13551.4728,-3352.3982L13551.4671,-3352.4006L13551.4624,-3352.4006L13551.4582,-3352.3993L13551.4533,-3352.4001L13551.4507,-3352.4025L13551.4507,-3352.4055L13551.4512,-3352.4074L13551.4492,-3352.4082L13551.4475,-3352.4073L13551.4441,-3352.4074L13551.4406,-3352.4065L13551.4283,-3352.4051L13551.4222,-3352.4048L13551.4184,-3352.4057L13551.4115,-3352.4097L13551.4101,-3352.4124L13551.411,-3352.416L13551.4146,-3352.4205L13551.4184,-3352.4233L13551.4205,-3352.4242L13551.4223,-3352.4236L13551.4268,-3352.4251L13551.4289,-3352.4289L13551.4287,-3352.4328L13551.4243,-3352.4417L13551.4205,-3352.4472L13551.4125,-3352.458L13551.4056,-3352.4658L13551.3953,-3352.4748L13551.3833,-3352.4832L13551.3701,-3352.4922L13551.3571,-3352.5L13551.3475,-3352.5053L13551.3357,-3352.512L13551.3232,-3352.5188L13551.3148,-3352.5218L13551.3026,-3352.5239L13551.2955,-3352.5246L13551.2851,-3352.5276L13551.2728,-3352.5333L13551.2543,-3352.5429L13551.2397,-3352.5495L13551.2266,-3352.5542L13551.2228,-3352.553L13551.2191,-3352.5525L13551.2153,-3352.5524L13551.2128,-3352.5511L13551.2045,-3352.5504L13551.2004,-3352.5524L13551.1934,-3352.5577L13551.1909,-3352.5593L13551.1847,-3352.5553L13551.1823,-3352.5548L13551.1782,-3352.554L13551.1772,-3352.5522L13551.1763,-3352.546L13551.1726,-3352.5434L13551.1646,-3352.5413L13551.1552,-3352.5416L13551.1529,-3352.5415L13551.1526,-3352.5427L13551.1551,-3352.5454L13551.1559,-3352.5468L13551.1552,-3352.5486L13551.1548,-3352.5503L13551.1561,-3352.5532L13551.1556,-3352.5548L13551.1507,-3352.5548L13551.1485,-3352.5549L13551.146,-3352.5566L13551.1413,-3352.5556L13551.1363,-3352.5553L13551.1361,-3352.5536L13551.1366,-3352.5528L13551.1396,-3352.553L13551.1413,-3352.5523L13551.1402,-3352.551L13551.1409,-3352.5495L13551.1429,-3352.5484L13551.1469,-3352.5463L13551.1475,-3352.545L13551.147,-3352.5434L13551.1435,-3352.5394L13551.14,-3352.5364L13551.1368,-3352.5355L13551.1321,-3352.5366L13551.1292,-3352.5394L13551.1291,-3352.5415L13551.1304,-3352.5426L13551.1284,-3352.5435L13551.1262,-3352.5436L13551.1212,-3352.5422L13551.1189,-3352.5428L13551.1178,-3352.544L13551.1181,-3352.5461L13551.1204,-3352.5493L13551.1255,-3352.5514L13551.1286,-3352.5516L13551.1309,-3352.5532L13551.1321,-3352.5551L13551.1318,-3352.5561L13551.124,-3352.557L13551.1171,-3352.5578L13551.114,-3352.5584L13551.1122,-3352.5592L13551.1108,-3352.5614L13551.1079,-3352.5624L13551.1045,-3352.5616L13551.1016,-3352.5593L13551.1006,-3352.5579L13551.0972,-3352.5585L13551.0955,-3352.5602L13551.0967,-3352.5649L13551.0979,-3352.568L13551.098,-3352.5689L13551.0959,-3352.57L13551.0825,-3352.5715L13551.0767,-3352.5695L13551.074,-3352.5692L13551.0718,-3352.5698L13551.0637,-3352.5764L13551.0563,-3352.5811L13551.0532,-3352.5823L13551.0477,-3352.5803L13551.0407,-3352.578L13551.0343,-3352.5782L13551.0302,-3352.5832L13551.0283,-3352.5881L13551.0303,-3352.5909L13551.0363,-3352.5903L13551.0411,-3352.5935L13551.0424,-3352.5957L13551.0392,-3352.5966L13551.0312,-3352.5987L13551.0266,-3352.5997L13551.0234,-3352.6015L13551.0246,-3352.6044L13551.0275,-3352.6064L13551.0285,-3352.6102L13551.0257,-3352.6119L13551.0241,-3352.6137L13551.028,-3352.6149L13551.0313,-3352.6185L13551.0331,-3352.6207L13551.0309,-3352.6227L13551.0293,-3352.6245L13551.0308,-3352.6293L13551.0331,-3352.6311L13551.0379,-3352.6319L13551.0389,-3352.636L13551.0432,-3352.642L13551.0494,-3352.6476L13551.0637,-3352.6568L13551.0744,-3352.6653L13551.0845,-3352.6768L13551.0918,-3352.6876L13551.096,-3352.695L13551.0986,-3352.7046L13551.0998,-3352.7144L13551.0992,-3352.7249L13551.0953,-3352.7374L13551.0925,-3352.7422L13551.0855,-3352.7483L13551.0855,-3352.7508L13551.0868,-3352.7526L13551.0896,-3352.7534L13551.0962,-3352.7547L13551.1025,-3352.7572L13551.1036,-3352.7586L13551.1018,-3352.7609L13551.1014,-3352.7643L13551.102,-3352.7667L13551.1015,-3352.7693L13551.0995,-3352.7716L13551.0993,-3352.7731L13551.101,-3352.7737L13551.1024,-3352.7734L13551.105,-3352.7755L13551.1083,-3352.7761L13551.1104,-3352.7742L13551.1135,-3352.7735L13551.1162,-3352.7736L13551.119,-3352.7725L13551.1218,-3352.7713L13551.1267,-3352.7711L13551.1326,-3352.7713L13551.1356,-3352.7698L13551.1402,-3352.7707L13551.1519,-3352.7754L13551.1754,-3352.7841L13551.1807,-3352.7866L13551.1852,-3352.7879L13551.1912,-3352.7887L13551.1986,-3352.7909L13551.2039,-3352.7955L13551.2114,-3352.7989L13551.2248,-3352.8026L13551.2304,-3352.8036L13551.2357,-3352.8029L13551.2482,-3352.8027L13551.2602,-3352.8017L13551.2715,-3352.8014L13551.2806,-3352.8019L13551.2921,-3352.8046L13551.3035,-3352.8086L13551.3076,-3352.8122L13551.3127,-3352.8153L13551.3181,-3352.817L13551.321,-3352.8177L13551.3229,-3352.8176L13551.3254,-3352.8186L13551.3278,-3352.8195L13551.3277,-3352.8209L13551.3286,-3352.8222L13551.3315,-3352.8237L13551.3464,-3352.8295L13551.353,-3352.8332L13551.3581,-3352.8368L13551.3631,-3352.8422L13551.3692,-3352.849L13551.3739,-3352.8549L13551.3786,-3352.8627L13551.3815,-3352.8693L13551.3842,-3352.8781L13551.3868,-3352.8866L13551.3886,-3352.8954L13551.3888,-3352.8991L13551.3883,-3352.9009L13551.383,-3352.9035L13551.3788,-3352.9057L13551.3757,-3352.9075L13551.3691,-3352.9083L13551.3511,-3352.9249L13551.3481,-3352.9234L13551.3444,-3352.9226L13551.34,-3352.9232L13551.3376,-3352.9256L13551.3363,-3352.9277L13551.3333,-3352.9261L13551.3302,-3352.9228L13551.3268,-3352.9238L13551.3267,-3352.9262L13551.3281,-3352.9296L13551.336,-3352.9321L13551.3403,-3352.9347L13551.3267,-3352.9616L13551.3328,-3352.9637L13551.3479,-3352.9353L13551.35,-3352.937L13551.3523,-3352.9386L13551.3537,-3352.9385L13551.3542,-3352.9366L13551.3541,-3352.934L13551.3569,-3352.932L13551.3585,-3352.9303L13551.3579,-3352.9291L13551.3537,-3352.9274L13551.3697,-3352.9128L13551.3829,-3352.912L13551.383,-3352.9181L13551.3814,-3352.9284L13551.3675,-3352.9288L13551.3677,-3352.9311L13551.3764,-3352.931L13551.3864,-3352.9321L13551.389,-3352.9338L13551.3922,-3352.9374L13551.3947,-3352.9416L13551.3951,-3352.9444L13551.3935,-3352.9451L13551.3924,-3352.947L13551.3912,-3352.9501L13551.3913,-3352.9516L13551.3925,-3352.9532L13551.3959,-3352.9556L13551.3979,-3352.9569L13551.3997,-3352.9566L13551.4008,-3352.9545L13551.4022,-3352.9542L13551.4054,-3352.9559L13551.4082,-3352.9562L13551.4111,-3352.9546L13551.4144,-3352.9555L13551.419,-3352.9576L13551.4242,-3352.9621L13551.4296,-3352.9673L13551.4349,-3352.9741L13551.4377,-3352.9792L13551.4402,-3352.986L13551.4433,-3352.9955L13551.444,-3353.0048L13551.4442,-3353.0135L13551.443,-3353.0273Z"/>
<path content="和歌山県,,西牟婁郡,すさみ町,,30406" xlink:title="和歌山県" d="M13551.7578,-3352.195L13551.7608,-3352.195L13551.7635,-3352.1953L13551.766,-3352.1952L13551.7674,-3352.195L13551.7689,-3352.1946L13551.7744,-3352.1924L13551.7803,-3352.1902L13551.7844,-3352.1892L13551.7867,-3352.189L13551.7891,-3352.1886L13551.7911,-3352.188L13551.794,-3352.1871L13551.803,-3352.1833L13551.8119,-3352.1793L13551.8141,-3352.1782L13551.8166,-3352.1769L13551.8179,-3352.1759L13551.8194,-3352.1748L13551.823,-3352.1711L13551.8256,-3352.1685L13551.8258,-3352.168L13551.8261,-3352.1673L13551.8263,-3352.1666L13551.8262,-3352.1653L13551.826,-3352.163L13551.8255,-3352.1603L13551.8249,-3352.1585L13551.8242,-3352.1564L13551.8247,-3352.1537L13551.8248,-3352.1535L13551.8252,-3352.153L13551.8259,-3352.1522L13551.8272,-3352.15L13551.829,-3352.1469L13551.8294,-3352.1455L13551.8302,-3352.1438L13551.8308,-3352.1421L13551.8313,-3352.1401L13551.8315,-3352.1382L13551.8318,-3352.1363L13551.8316,-3352.1344L13551.8314,-3352.1325L13551.8308,-3352.1308L13551.8298,-3352.1286L13551.8291,-3352.1275L13551.8282,-3352.1264L13551.8274,-3352.1258L13551.8268,-3352.1253L13551.8253,-3352.1244L13551.8239,-3352.1237L13551.8233,-3352.1238L13551.8227,-3352.1238L13551.8221,-3352.1241L13551.8215,-3352.1243L13551.821,-3352.1248L13551.8204,-3352.1253L13551.8198,-3352.1262L13551.8195,-3352.1269L13551.8193,-3352.1281L13551.8194,-3352.1309L13551.8196,-3352.1343L13551.8192,-3352.1354L13551.8183,-3352.1371L13551.8162,-3352.1406L13551.8137,-3352.1451L13551.8133,-3352.1467L13551.8129,-3352.1481L13551.8127,-3352.1506L13551.812,-3352.1533L13551.8116,-3352.1542L13551.8109,-3352.1553L13551.8103,-3352.156L13551.8095,-3352.157L13551.8083,-3352.1577L13551.8072,-3352.1583L13551.8059,-3352.1587L13551.8041,-3352.1593L13551.8027,-3352.1596L13551.8008,-3352.1598L13551.8,-3352.1598L13551.7987,-3352.1597L13551.7981,-3352.1595L13551.7972,-3352.1588L13551.7957,-3352.157L13551.795,-3352.1564L13551.7939,-3352.1558L13551.7932,-3352.1558L13551.7928,-3352.156L13551.7921,-3352.1565L13551.7912,-3352.1578L13551.7902,-3352.1601L13551.7894,-3352.1624L13551.7887,-3352.1634L13551.788,-3352.1641L13551.7871,-3352.1645L13551.7863,-3352.1645L13551.7848,-3352.164L13551.7826,-3352.1628L13551.78,-3352.1617L13551.7793,-3352.1618L13551.7784,-3352.1619L13551.7777,-3352.1623L13551.7768,-3352.1628L13551.7758,-3352.1635L13551.7744,-3352.1647L13551.7727,-3352.1666L13551.7707,-3352.1691L13551.7697,-3352.1699L13551.7687,-3352.1708L13551.768,-3352.1712L13551.7673,-3352.1714L13551.7667,-3352.1714L13551.7659,-3352.1714L13551.7646,-3352.171L13551.7631,-3352.1704L13551.7609,-3352.1697L13551.7592,-3352.1693L13551.7575,-3352.169L13551.7564,-3352.1691L13551.7546,-3352.1692L13551.753,-3352.1696L13551.7507,-3352.1703L13551.7497,-3352.1708L13551.7487,-3352.1714L13551.7471,-3352.1727L13551.7455,-3352.1739L13551.7441,-3352.1754L13551.7421,-3352.1773L13551.741,-3352.1791L13551.7398,-3352.1807L13551.7389,-3352.1824L13551.738,-3352.1841L13551.7375,-3352.1864L13551.7368,-3352.1886L13551.7352,-3352.1926L13551.7339,-3352.1961L13551.7341,-3352.1968L13551.7341,-3352.1974L13551.7346,-3352.1981L13551.7361,-3352.1987L13551.7368,-3352.1987L13551.7381,-3352.1987L13551.7397,-3352.1985L13551.7416,-3352.1981L13551.7458,-3352.197L13551.7508,-3352.1959L13551.7544,-3352.1954L13551.7578,-3352.195Z"/>
<path content="和歌山県,,西牟婁郡,すさみ町,,30406" xlink:title="和歌山県" d="M13551.5589,-3352.1994L13551.5633,-3352.1962L13551.5685,-3352.1935L13551.5729,-3352.1909L13551.5737,-3352.1902L13551.5744,-3352.1895L13551.5747,-3352.189L13551.5751,-3352.1882L13551.5753,-3352.1874L13551.5751,-3352.1866L13551.5749,-3352.1858L13551.5746,-3352.1855L13551.5742,-3352.1853L13551.5733,-3352.1853L13551.5721,-3352.1857L13551.5707,-3352.186L13551.5681,-3352.1872L13551.5632,-3352.1902L13551.5583,-3352.1927L13551.5538,-3352.1937L13551.5501,-3352.1948L13551.5495,-3352.1948L13551.549,-3352.1946L13551.5482,-3352.1939L13551.5474,-3352.1929L13551.5468,-3352.1917L13551.5467,-3352.191L13551.5463,-3352.19L13551.5462,-3352.1886L13551.5461,-3352.1874L13551.5463,-3352.1868L13551.5465,-3352.1859L13551.5471,-3352.1852L13551.5481,-3352.1842L13551.5501,-3352.1829L13551.5521,-3352.1814L13551.5566,-3352.1787L13551.5608,-3352.1758L13551.5612,-3352.1753L13551.5615,-3352.1749L13551.5613,-3352.1744L13551.5613,-3352.1736L13551.5608,-3352.1728L13551.5602,-3352.172L13551.5596,-3352.1715L13551.5586,-3352.1708L13551.5579,-3352.1706L13551.5567,-3352.1701L13551.5553,-3352.1698L13551.554,-3352.1697L13551.5521,-3352.1698L13551.5498,-3352.17L13551.5481,-3352.1705L13551.5457,-3352.1713L13551.5449,-3352.1718L13551.5441,-3352.1723L13551.5413,-3352.1745L13551.538,-3352.1771L13551.5364,-3352.178L13551.5345,-3352.1791L13551.5316,-3352.1802L13551.528,-3352.1817L13551.5244,-3352.1829L13551.5199,-3352.1842L13551.5136,-3352.1867L13551.5074,-3352.189L13551.5055,-3352.1897L13551.5036,-3352.1902L13551.4997,-3352.191L13551.495,-3352.1919L13551.4918,-3352.1921L13551.4888,-3352.1923L13551.4873,-3352.1926L13551.4856,-3352.1932L13551.4847,-3352.194L13551.4838,-3352.1946L13551.4824,-3352.1961L13551.4823,-3352.1967L13551.4826,-3352.1971L13551.4832,-3352.1975L13551.4851,-3352.1988L13551.4872,-3352.2L13551.4878,-3352.2002L13551.4885,-3352.2004L13551.4898,-3352.2002L13551.4913,-3352.2L13551.4927,-3352.1994L13551.4942,-3352.1989L13551.4949,-3352.199L13551.4955,-3352.1991L13551.4963,-3352.1995L13551.4971,-3352.2L13551.4995,-3352.2017L13551.5021,-3352.2035L13551.5042,-3352.2059L13551.507,-3352.2085L13551.5094,-3352.2102L13551.5119,-3352.2121L13551.5128,-3352.213L13551.5139,-3352.2141L13551.5143,-3352.2151L13551.5148,-3352.2162L13551.5148,-3352.2169L13551.5147,-3352.2175L13551.5143,-3352.2183L13551.5139,-3352.219L13551.5126,-3352.2201L13551.5106,-3352.2213L13551.5061,-3352.2234L13551.501,-3352.226L13551.4999,-3352.227L13551.499,-3352.228L13551.4987,-3352.2285L13551.4986,-3352.229L13551.4986,-3352.2302L13551.4989,-3352.2307L13551.4992,-3352.2312L13551.4998,-3352.2316L13551.5004,-3352.232L13551.5013,-3352.2324L13551.5021,-3352.2328L13551.5041,-3352.2334L13551.5065,-3352.2341L13551.5111,-3352.2315L13551.5112,-3352.2314L13551.5128,-3352.2309L13551.5152,-3352.2298L13551.5185,-3352.228L13551.5225,-3352.2256L13551.5258,-3352.2242L13551.5295,-3352.2224L13551.5315,-3352.2212L13551.5336,-3352.22L13551.5369,-3352.2174L13551.5407,-3352.2148L13551.5448,-3352.2115L13551.549,-3352.2082L13551.5519,-3352.2052L13551.555,-3352.2023L13551.5589,-3352.1994Z"/>
<path content="和歌山県,,西牟婁郡,すさみ町,,30406" xlink:title="和歌山県" d="M13550.8009,-3352.4887L13550.8028,-3352.4869L13550.8073,-3352.4871L13550.8106,-3352.4865L13550.8146,-3352.4859L13550.8177,-3352.4863L13550.8185,-3352.4842L13550.8205,-3352.4818L13550.8246,-3352.4801L13550.8259,-3352.4791L13550.8262,-3352.4756L13550.8244,-3352.475L13550.8236,-3352.4738L13550.8234,-3352.47L13550.8245,-3352.4682L13550.8283,-3352.4674L13550.831,-3352.4663L13550.8312,-3352.465L13550.8296,-3352.4643L13550.8283,-3352.4635L13550.8273,-3352.4596L13550.8255,-3352.4578L13550.8213,-3352.4563L13550.8152,-3352.4546L13550.8088,-3352.4534L13550.8067,-3352.4526L13550.8095,-3352.4497L13550.8086,-3352.4476L13550.8009,-3352.4461L13550.7948,-3352.4465L13550.7896,-3352.4483L13550.7861,-3352.4488L13550.7823,-3352.4469L13550.7787,-3352.4473L13550.7767,-3352.4489L13550.7729,-3352.4512L13550.771,-3352.4537L13550.7749,-3352.4558L13550.776,-3352.457L13550.7751,-3352.4576L13550.7706,-3352.4568L13550.768,-3352.4567L13550.7658,-3352.4584L13550.7621,-3352.4624L13550.761,-3352.4663L13550.7619,-3352.469L13550.7662,-3352.4724L13550.7711,-3352.4739L13550.7725,-3352.4753L13550.7718,-3352.4761L13550.7661,-3352.476L13550.7639,-3352.4769L13550.7626,-3352.4792L13550.7637,-3352.4821L13550.7671,-3352.4839L13550.7711,-3352.4842L13550.7743,-3352.4865L13550.7793,-3352.4876L13550.7834,-3352.4869L13550.7923,-3352.4899L13550.7953,-3352.4908L13550.799,-3352.4907L13550.8009,-3352.4887Z"/>
<path content="和歌山県,,西牟婁郡,すさみ町,,30406" xlink:title="和歌山県" d="M13550.8704,-3352.5114L13550.8691,-3352.5074L13550.8692,-3352.5063L13550.8693,-3352.5051L13550.8702,-3352.5028L13550.8708,-3352.5005L13550.8708,-3352.5L13550.8706,-3352.4992L13550.8705,-3352.4978L13550.8696,-3352.4967L13550.8685,-3352.4956L13550.8681,-3352.4955L13550.8678,-3352.4953L13550.8657,-3352.4949L13550.8632,-3352.494L13550.8628,-3352.4937L13550.8623,-3352.4931L13550.8621,-3352.4921L13550.8618,-3352.491L13550.8614,-3352.4902L13550.8606,-3352.4895L13550.859,-3352.4885L13550.8573,-3352.4877L13550.855,-3352.4868L13550.8523,-3352.4859L13550.8511,-3352.4857L13550.8495,-3352.4853L13550.8486,-3352.4853L13550.8473,-3352.4853L13550.8466,-3352.4855L13550.8453,-3352.4857L13550.8441,-3352.4861L13550.843,-3352.4866L13550.8424,-3352.4869L13550.8418,-3352.4874L13550.8415,-3352.4878L13550.8413,-3352.4884L13550.8415,-3352.4906L13550.8414,-3352.493L13550.8411,-3352.4935L13550.8405,-3352.4939L13550.8391,-3352.4944L13550.8375,-3352.4948L13550.8362,-3352.4947L13550.8348,-3352.4947L13550.8333,-3352.4944L13550.8317,-3352.4941L13550.8288,-3352.493L13550.8256,-3352.4921L13550.824,-3352.493L13550.824,-3352.4931L13550.8232,-3352.4933L13550.8221,-3352.4941L13550.8219,-3352.4945L13550.8217,-3352.4949L13550.8218,-3352.4953L13550.8218,-3352.4958L13550.8221,-3352.4962L13550.8226,-3352.4967L13550.8239,-3352.4977L13550.8263,-3352.4992L13550.8278,-3352.5L13550.8297,-3352.5008L13550.8333,-3352.5022L13550.8361,-3352.5032L13550.8417,-3352.5054L13550.8417,-3352.5056L13550.8414,-3352.506L13550.8407,-3352.5063L13550.8397,-3352.5067L13550.836,-3352.5075L13550.8333,-3352.508L13550.832,-3352.5082L13550.8309,-3352.5083L13550.8298,-3352.5083L13550.8286,-3352.5082L13550.827,-3352.508L13550.8251,-3352.5073L13550.8228,-3352.5069L13550.8217,-3352.5069L13550.8202,-3352.5069L13550.8188,-3352.5071L13550.8173,-3352.5074L13550.8147,-3352.5082L13550.8129,-3352.5087L13550.8124,-3352.5085L13550.8118,-3352.5081L13550.8109,-3352.5072L13550.8098,-3352.5061L13550.8091,-3352.5058L13550.808,-3352.5054L13550.8074,-3352.5054L13550.8064,-3352.5053L13550.8055,-3352.5053L13550.8045,-3352.5055L13550.8042,-3352.5058L13550.8038,-3352.5063L13550.804,-3352.5066L13550.804,-3352.5072L13550.8044,-3352.508L13550.805,-3352.5088L13550.8062,-3352.5098L13550.8074,-3352.5107L13550.8098,-3352.5118L13550.8123,-3352.5129L13550.8191,-3352.5151L13550.826,-3352.5177L13550.8275,-3352.5184L13550.8287,-3352.5191L13550.831,-3352.5213L13550.8333,-3352.5232L13550.8341,-3352.5238L13550.8348,-3352.5243L13550.836,-3352.5249L13550.8371,-3352.5253L13550.8385,-3352.5259L13550.8405,-3352.5264L13550.8422,-3352.5269L13550.8443,-3352.5272L13550.8468,-3352.5277L13550.8494,-3352.5281L13550.8525,-3352.5283L13550.8556,-3352.5282L13550.8585,-3352.5281L13550.8632,-3352.5276L13550.8673,-3352.5272L13550.868,-3352.5269L13550.869,-3352.5266L13550.8697,-3352.526L13550.8701,-3352.5255L13550.8707,-3352.5246L13550.8713,-3352.5231L13550.8718,-3352.5215L13550.8719,-3352.5203L13550.872,-3352.5186L13550.8718,-3352.5166L13550.8716,-3352.5148L13550.8704,-3352.5114Z"/>
<path content="和歌山県,,西牟婁郡,すさみ町,,30406" xlink:title="和歌山県" d="M13551.0287,-3352.7691L13551.0293,-3352.7672L13551.0347,-3352.7653L13551.0393,-3352.7634L13551.042,-3352.7599L13551.0443,-3352.7608L13551.0475,-3352.7605L13551.0507,-3352.7579L13551.0535,-3352.76L13551.0576,-3352.7569L13551.0647,-3352.756L13551.0713,-3352.7506L13551.073,-3352.7475L13551.0711,-3352.7451L13551.0689,-3352.743L13551.0664,-3352.7424L13551.0622,-3352.7441L13551.0577,-3352.7469L13551.0484,-3352.7479L13551.0419,-3352.7491L13551.0383,-3352.7505L13551.0347,-3352.7503L13551.03,-3352.7489L13551.0278,-3352.7461L13551.0222,-3352.7464L13551.003,-3352.7531L13550.9985,-3352.7552L13550.9959,-3352.7575L13550.9946,-3352.7623L13550.9941,-3352.7645L13550.9959,-3352.7661L13551,-3352.765L13551.0037,-3352.7631L13551.0056,-3352.7638L13551.0047,-3352.7667L13551.006,-3352.7687L13551.0146,-3352.7678L13551.0175,-3352.7685L13551.0221,-3352.7692L13551.0242,-3352.7709L13551.0287,-3352.7691Z"/>
<path content="和歌山県,,西牟婁郡,すさみ町,,30406" xlink:title="和歌山県" d="M13550.9672,-3352.5782L13550.9674,-3352.5776L13550.9674,-3352.5765L13550.9672,-3352.5757L13550.9669,-3352.5749L13550.9669,-3352.574L13550.967,-3352.5733L13550.9675,-3352.5728L13550.9679,-3352.5724L13550.9689,-3352.5719L13550.9724,-3352.5712L13550.9762,-3352.5702L13550.9769,-3352.5698L13550.9779,-3352.5693L13550.9788,-3352.5687L13550.9793,-3352.5682L13550.9798,-3352.5676L13550.9799,-3352.5671L13550.9797,-3352.566L13550.9794,-3352.5649L13550.9779,-3352.5616L13550.9771,-3352.5606L13550.976,-3352.5593L13550.9753,-3352.5586L13550.9747,-3352.5581L13550.9725,-3352.5569L13550.9688,-3352.5553L13550.9646,-3352.5532L13550.9603,-3352.5508L13550.956,-3352.5485L13550.9547,-3352.548L13550.9535,-3352.5476L13550.9529,-3352.5476L13550.9525,-3352.5477L13550.9522,-3352.5481L13550.9518,-3352.549L13550.9512,-3352.5504L13550.9505,-3352.5544L13550.9493,-3352.5587L13550.9488,-3352.5594L13550.9481,-3352.5605L13550.9475,-3352.561L13550.9465,-3352.5618L13550.9452,-3352.5622L13550.9438,-3352.5626L13550.9369,-3352.5631L13550.9309,-3352.5637L13550.9304,-3352.564L13550.9298,-3352.5642L13550.9295,-3352.5647L13550.9295,-3352.5653L13550.9297,-3352.5663L13550.9302,-3352.5678L13550.9308,-3352.5693L13550.9317,-3352.5706L13550.9324,-3352.5713L13550.9338,-3352.5723L13550.9347,-3352.5728L13550.9363,-3352.5737L13550.9394,-3352.5748L13550.9427,-3352.5758L13550.9487,-3352.5776L13550.9488,-3352.5776L13550.9508,-3352.5781L13550.9547,-3352.5793L13550.9556,-3352.5797L13550.9565,-3352.5803L13550.9567,-3352.5809L13550.9563,-3352.5815L13550.9557,-3352.582L13550.9548,-3352.5825L13550.9524,-3352.5835L13550.9496,-3352.5847L13550.949,-3352.5852L13550.9485,-3352.5859L13550.9486,-3352.5864L13550.9492,-3352.587L13550.9517,-3352.5884L13550.955,-3352.5901L13550.9568,-3352.5908L13550.9586,-3352.5916L13550.9609,-3352.5923L13550.9634,-3352.5933L13550.9648,-3352.5935L13550.9662,-3352.5938L13550.9669,-3352.5937L13550.9675,-3352.5933L13550.9678,-3352.5929L13550.9682,-3352.5921L13550.9686,-3352.5907L13550.9692,-3352.5889L13550.969,-3352.5878L13550.969,-3352.5865L13550.9684,-3352.5857L13550.9676,-3352.5849L13550.9663,-3352.584L13550.9645,-3352.583L13550.964,-3352.5825L13550.9637,-3352.5819L13550.9639,-3352.5815L13550.9639,-3352.5811L13550.9641,-3352.5808L13550.9647,-3352.5801L13550.9662,-3352.5793L13550.967,-3352.5785L13550.9672,-3352.5782Z"/>
<path content="和歌山県,,西牟婁郡,すさみ町,,30406" xlink:title="和歌山県" d="M13552.1999,-3352.169L13552.201,-3352.1665L13552.1979,-3352.1603L13552.1971,-3352.1569L13552.1952,-3352.1529L13552.1924,-3352.1488L13552.1897,-3352.1466L13552.1857,-3352.146L13552.1808,-3352.146L13552.1793,-3352.1415L13552.1775,-3352.1397L13552.1732,-3352.1402L13552.1711,-3352.1417L13552.1662,-3352.1417L13552.1638,-3352.142L13552.1626,-3352.1439L13552.1563,-3352.1402L13552.1533,-3352.1436L13552.1533,-3352.1464L13552.1518,-3352.1473L13552.1509,-3352.1491L13552.1531,-3352.1522L13552.1585,-3352.1558L13552.156,-3352.1597L13552.1555,-3352.1614L13552.1573,-3352.1632L13552.1609,-3352.1654L13552.1643,-3352.1609L13552.166,-3352.1624L13552.1712,-3352.165L13552.1743,-3352.1662L13552.1771,-3352.1657L13552.179,-3352.1668L13552.1826,-3352.1676L13552.1859,-3352.1673L13552.1907,-3352.1709L13552.1935,-3352.174L13552.1932,-3352.1752L13552.1951,-3352.1778L13552.1993,-3352.1769L13552.2032,-3352.1735L13552.2044,-3352.1713L13552.2019,-3352.1705L13552.1999,-3352.169Z"/>
<path content="和歌山県,,西牟婁郡,すさみ町,,30406" xlink:title="和歌山県" d="M13551.4492,-3352.3978L13551.4545,-3352.3929L13551.4548,-3352.3902L13551.4538,-3352.3894L13551.4514,-3352.3904L13551.4495,-3352.3896L13551.448,-3352.3878L13551.4503,-3352.3846L13551.4539,-3352.3826L13551.4536,-3352.3812L13551.4504,-3352.3763L13551.447,-3352.3741L13551.445,-3352.3737L13551.4424,-3352.372L13551.4398,-3352.3722L13551.4345,-3352.3702L13551.4293,-3352.3686L13551.4251,-3352.3691L13551.4219,-3352.3705L13551.4152,-3352.3721L13551.4111,-3352.3753L13551.4091,-3352.3802L13551.4101,-3352.3846L13551.4161,-3352.39L13551.4234,-3352.3938L13551.4253,-3352.395L13551.4252,-3352.3959L13551.4263,-3352.3976L13551.4286,-3352.3973L13551.4328,-3352.3938L13551.4366,-3352.3953L13551.4387,-3352.3942L13551.4411,-3352.3942L13551.4426,-3352.3953L13551.4422,-3352.3995L13551.4443,-3352.4013L13551.4459,-3352.4016L13551.4492,-3352.3978Z"/>
<path content="和歌山県,,西牟婁郡,すさみ町,,30406" xlink:title="和歌山県" d="M13552.2473,-3352.1165L13552.2461,-3352.1141L13552.2435,-3352.1139L13552.2391,-3352.1145L13552.2402,-3352.1097L13552.2393,-3352.1087L13552.2371,-3352.1099L13552.2298,-3352.1144L13552.2285,-3352.1128L13552.2287,-3352.1087L13552.2287,-3352.1066L13552.2266,-3352.1075L13552.2244,-3352.1065L13552.2202,-3352.1049L13552.2184,-3352.1066L13552.2173,-3352.1113L13552.2136,-3352.1141L13552.2138,-3352.1155L13552.2175,-3352.1192L13552.2173,-3352.1218L13552.2178,-3352.1254L13552.2199,-3352.1274L13552.2273,-3352.1343L13552.2355,-3352.1414L13552.2457,-3352.1476L13552.2484,-3352.1486L13552.2493,-3352.1483L13552.2535,-3352.1455L13552.2512,-3352.1433L13552.2507,-3352.1405L13552.2494,-3352.138L13552.2497,-3352.1339L13552.2492,-3352.1253L13552.2463,-3352.1207L13552.2473,-3352.1165Z"/>
<path content="和歌山県,,西牟婁郡,すさみ町,,30406" xlink:title="和歌山県" d="M13551.6799,-3352.2631L13551.6829,-3352.2618L13551.6838,-3352.2615L13551.6847,-3352.2614L13551.6861,-3352.2613L13551.6876,-3352.2613L13551.6882,-3352.2611L13551.6887,-3352.2606L13551.689,-3352.2599L13551.6893,-3352.259L13551.6898,-3352.2555L13551.6904,-3352.2513L13551.6904,-3352.2502L13551.6901,-3352.249L13551.6896,-3352.2482L13551.6888,-3352.2471L13551.6882,-3352.2466L13551.6872,-3352.2458L13551.6857,-3352.245L13551.6841,-3352.2442L13551.6819,-3352.2436L13551.6767,-3352.2425L13551.671,-3352.241L13551.6668,-3352.2395L13551.6667,-3352.2394L13551.6612,-3352.2384L13551.6547,-3352.238L13551.651,-3352.2389L13551.6496,-3352.241L13551.6489,-3352.2442L13551.6496,-3352.2488L13551.6502,-3352.2531L13551.6517,-3352.2549L13551.6555,-3352.2576L13551.6591,-3352.2594L13551.6615,-3352.2601L13551.6634,-3352.2614L13551.6643,-3352.2623L13551.6667,-3352.2627L13551.6678,-3352.2623L13551.6681,-3352.2623L13551.6692,-3352.2624L13551.6705,-3352.2624L13551.6731,-3352.2634L13551.6761,-3352.2645L13551.6765,-3352.2645L13551.6774,-3352.2644L13551.6799,-3352.2631Z"/>
<path content="和歌山県,,西牟婁郡,すさみ町,,30406" xlink:title="和歌山県" d="M13550.8983,-3352.4799L13550.8978,-3352.4796L13550.8972,-3352.4794L13550.8963,-3352.4793L13550.895,-3352.479L13550.8896,-3352.4791L13550.8823,-3352.4794L13550.876,-3352.4798L13550.8759,-3352.4797L13550.8754,-3352.479L13550.8748,-3352.4781L13550.8741,-3352.4774L13550.8735,-3352.4768L13550.8727,-3352.4765L13550.8718,-3352.4761L13550.8711,-3352.476L13550.8701,-3352.476L13550.8692,-3352.4761L13550.8682,-3352.4765L13550.8673,-3352.4771L13550.8666,-3352.4777L13550.866,-3352.4787L13550.8662,-3352.4794L13550.8665,-3352.4799L13550.867,-3352.4804L13550.8684,-3352.4811L13550.8705,-3352.4822L13550.872,-3352.4833L13550.8736,-3352.4844L13550.8741,-3352.4852L13550.8746,-3352.486L13550.8747,-3352.4873L13550.8751,-3352.4887L13550.8766,-3352.4907L13550.8773,-3352.4913L13550.8781,-3352.4918L13550.8788,-3352.4921L13550.8794,-3352.4923L13550.8828,-3352.493L13550.8865,-3352.4939L13550.8881,-3352.4945L13550.8896,-3352.4952L13550.8908,-3352.4962L13550.8914,-3352.497L13550.8921,-3352.4979L13550.893,-3352.4987L13550.8941,-3352.4993L13550.8954,-3352.4998L13550.8961,-3352.5L13550.8976,-3352.5005L13550.9032,-3352.5017L13550.9094,-3352.503L13550.9104,-3352.503L13550.9117,-3352.5028L13550.9127,-3352.5023L13550.913,-3352.5018L13550.9134,-3352.501L13550.9133,-3352.5L13550.9132,-3352.4985L13550.9131,-3352.4959L13550.9125,-3352.4933L13550.912,-3352.4924L13550.9114,-3352.491L13550.9105,-3352.4898L13550.9093,-3352.4882L13550.9083,-3352.4872L13550.9074,-3352.4864L13550.9066,-3352.4859L13550.9059,-3352.4855L13550.9051,-3352.4853L13550.9042,-3352.485L13550.9016,-3352.4848L13550.8993,-3352.4845L13550.8988,-3352.4843L13550.8985,-3352.4841L13550.8986,-3352.4832L13550.899,-3352.4817L13550.899,-3352.4811L13550.8989,-3352.4805L13550.8987,-3352.4802L13550.8983,-3352.4799Z"/>
<path content="和歌山県,,西牟婁郡,すさみ町,,30406" xlink:title="和歌山県" d="M13551.6746,-3352.1988L13551.6769,-3352.1987L13551.6791,-3352.1987L13551.6812,-3352.1984L13551.6832,-3352.1981L13551.6841,-3352.1977L13551.6851,-3352.1972L13551.6877,-3352.1947L13551.6885,-3352.1937L13551.6892,-3352.1926L13551.6905,-3352.1894L13551.6921,-3352.1856L13551.693,-3352.1843L13551.6938,-3352.1829L13551.6924,-3352.179L13551.6922,-3352.1789L13551.6909,-3352.1769L13551.6889,-3352.1738L13551.6883,-3352.1732L13551.6874,-3352.1723L13551.6862,-3352.1713L13551.6844,-3352.17L13551.6832,-3352.1695L13551.6822,-3352.1692L13551.6815,-3352.1693L13551.6806,-3352.1693L13551.68,-3352.1697L13551.6793,-3352.1703L13551.6787,-3352.1712L13551.6782,-3352.1723L13551.6778,-3352.1737L13551.6774,-3352.1752L13551.6774,-3352.1763L13551.6776,-3352.1774L13551.6782,-3352.1789L13551.6788,-3352.1802L13551.6787,-3352.181L13551.678,-3352.1822L13551.6774,-3352.1827L13551.6766,-3352.1833L13551.6739,-3352.1846L13551.6716,-3352.1857L13551.6711,-3352.1857L13551.6703,-3352.1855L13551.67,-3352.1853L13551.6697,-3352.1847L13551.6698,-3352.1826L13551.6699,-3352.1803L13551.6696,-3352.1799L13551.6693,-3352.1794L13551.6688,-3352.179L13551.6679,-3352.1785L13551.6671,-3352.1782L13551.6667,-3352.1781L13551.6662,-3352.1779L13551.6653,-3352.178L13551.6641,-3352.178L13551.6636,-3352.1784L13551.6631,-3352.1787L13551.6625,-3352.1794L13551.662,-3352.1804L13551.6614,-3352.1815L13551.6613,-3352.1822L13551.6612,-3352.183L13551.6614,-3352.1849L13551.6614,-3352.1871L13551.6621,-3352.1891L13551.6627,-3352.1911L13551.6635,-3352.1925L13551.6641,-3352.1939L13551.6648,-3352.1946L13551.6657,-3352.1957L13551.6665,-3352.1963L13551.6667,-3352.1964L13551.6674,-3352.1968L13551.6687,-3352.1975L13551.6705,-3352.1981L13551.6725,-3352.1984L13551.6746,-3352.1988Z"/>
<path content="和歌山県,,西牟婁郡,すさみ町,,30406" xlink:title="和歌山県" d="M13550.8651,-3352.4367L13550.8635,-3352.4364L13550.8625,-3352.4364L13550.861,-3352.4367L13550.8605,-3352.4369L13550.8599,-3352.4374L13550.8596,-3352.4379L13550.8593,-3352.4386L13550.8592,-3352.4394L13550.8591,-3352.4407L13550.8592,-3352.4459L13550.8592,-3352.4509L13550.8588,-3352.4529L13550.8586,-3352.4551L13550.8586,-3352.4559L13550.8588,-3352.4566L13550.8592,-3352.4578L13550.8598,-3352.459L13550.8606,-3352.4598L13550.8618,-3352.461L13550.8634,-3352.4622L13550.8657,-3352.4637L13550.868,-3352.4649L13550.8707,-3352.4662L13550.88,-3352.4636L13550.8803,-3352.4634L13550.881,-3352.4631L13550.882,-3352.4623L13550.8836,-3352.4609L13550.8852,-3352.4593L13550.8857,-3352.4585L13550.8861,-3352.4578L13550.8861,-3352.4573L13550.886,-3352.4568L13550.8855,-3352.4559L13550.8847,-3352.4547L13550.8838,-3352.454L13550.8828,-3352.4531L13550.8801,-3352.4516L13550.8773,-3352.4499L13550.8764,-3352.4492L13550.8755,-3352.4485L13550.8751,-3352.4477L13550.8743,-3352.4458L13550.8732,-3352.4431L13550.8727,-3352.4423L13550.872,-3352.4411L13550.8711,-3352.44L13550.87,-3352.4389L13550.8693,-3352.4383L13550.8684,-3352.4378L13550.8675,-3352.4374L13550.8662,-3352.4369L13550.8651,-3352.4367Z"/>
<path content="和歌山県,,西牟婁郡,すさみ町,,30406" xlink:title="和歌山県" d="M13552.0719,-3352.181L13552.0681,-3352.1799L13552.0607,-3352.1807L13552.0585,-3352.1812L13552.0571,-3352.1828L13552.0571,-3352.1923L13552.0651,-3352.1956L13552.0712,-3352.1976L13552.0784,-3352.1995L13552.0837,-3352.2011L13552.0862,-3352.1999L13552.0883,-3352.1992L13552.0901,-3352.1968L13552.0912,-3352.1941L13552.0912,-3352.1918L13552.0868,-3352.1878L13552.0824,-3352.1852L13552.0792,-3352.1843L13552.0719,-3352.181Z"/>
<path content="和歌山県,,西牟婁郡,すさみ町,,30406" xlink:title="和歌山県" d="M13551.5464,-3352.2687L13551.5432,-3352.2676L13551.5377,-3352.2688L13551.5327,-3352.2697L13551.5316,-3352.2711L13551.535,-3352.2727L13551.5386,-3352.2743L13551.5432,-3352.2749L13551.5449,-3352.2767L13551.5457,-3352.2794L13551.5458,-3352.281L13551.557,-3352.2884L13551.5621,-3352.2892L13551.5668,-3352.2872L13551.5701,-3352.2826L13551.5664,-3352.2785L13551.5574,-3352.2728L13551.5487,-3352.2728L13551.5464,-3352.2714L13551.5464,-3352.2687Z"/>
<path content="和歌山県,,西牟婁郡,すさみ町,,30406" xlink:title="和歌山県" d="M13552.666,-3352.1637L13552.6623,-3352.1617L13552.6573,-3352.1621L13552.654,-3352.1646L13552.6532,-3352.1676L13552.6504,-3352.1705L13552.649,-3352.1725L13552.6487,-3352.1749L13552.6466,-3352.1762L13552.6444,-3352.1769L13552.6432,-3352.1784L13552.6435,-3352.1809L13552.6492,-3352.1848L13552.6566,-3352.1913L13552.6587,-3352.191L13552.66,-3352.1854L13552.6609,-3352.1822L13552.6583,-3352.1804L13552.6569,-3352.1779L13552.6597,-3352.1755L13552.6652,-3352.1702L13552.6671,-3352.167L13552.666,-3352.1637Z"/>
<path content="和歌山県,,西牟婁郡,すさみ町,,30406" xlink:title="和歌山県" d="M13551.0119,-3352.5721L13551.0037,-3352.5716L13551.0008,-3352.5726L13551.0005,-3352.5745L13551.0003,-3352.5757L13550.9978,-3352.5768L13550.9942,-3352.5775L13550.9922,-3352.58L13550.9919,-3352.5831L13550.9942,-3352.5859L13551.0005,-3352.589L13551.0038,-3352.5907L13551.0062,-3352.5907L13551.0094,-3352.5886L13551.0131,-3352.5859L13551.0148,-3352.5828L13551.0154,-3352.5809L13551.0178,-3352.5781L13551.0191,-3352.5747L13551.0164,-3352.573L13551.0119,-3352.5721Z"/>
<path content="和歌山県,,西牟婁郡,すさみ町,,30406" xlink:title="和歌山県" d="M13551.1966,-3351.8443L13551.2011,-3351.8428L13551.2039,-3351.8428L13551.2055,-3351.8397L13551.2032,-3351.8371L13551.205,-3351.8326L13551.2064,-3351.8298L13551.205,-3351.8282L13551.2003,-3351.8275L13551.1971,-3351.8268L13551.1939,-3351.8276L13551.1912,-3351.8303L13551.1894,-3351.8319L13551.1859,-3351.8326L13551.182,-3351.833L13551.1812,-3351.834L13551.1822,-3351.838L13551.1831,-3351.8408L13551.1864,-3351.8438L13551.1913,-3351.8443L13551.1966,-3351.8443Z"/>
<path content="和歌山県,,西牟婁郡,すさみ町,,30406" xlink:title="和歌山県" d="M13551.5411,-3352.2946L13551.5337,-3352.2852L13551.5293,-3352.2825L13551.5189,-3352.279L13551.5151,-3352.279L13551.5129,-3352.2812L13551.5105,-3352.286L13551.5093,-3352.2871L13551.517,-3352.2935L13551.5191,-3352.2935L13551.5214,-3352.2915L13551.523,-3352.2873L13551.5242,-3352.2864L13551.5255,-3352.2864L13551.5267,-3352.2878L13551.5306,-3352.2928L13551.5287,-3352.2941L13551.5351,-3352.3003L13551.5364,-3352.3006L13551.5388,-3352.2993L13551.5404,-3352.2973L13551.5411,-3352.2946Z"/>
<path content="和歌山県,,西牟婁郡,すさみ町,,30406" xlink:title="和歌山県" d="M13552.2913,-3352.1517L13552.2929,-3352.1507L13552.291,-3352.1497L13552.2883,-3352.1504L13552.2835,-3352.1506L13552.2778,-3352.1511L13552.2706,-3352.1511L13552.2672,-3352.1516L13552.2642,-3352.1549L13552.2647,-3352.1565L13552.2672,-3352.1598L13552.2716,-3352.1618L13552.2743,-3352.162L13552.2755,-3352.1647L13552.2773,-3352.1656L13552.2796,-3352.1656L13552.2823,-3352.1638L13552.2865,-3352.1578L13552.2913,-3352.1517Z"/>
<path content="和歌山県,,西牟婁郡,すさみ町,,30406" xlink:title="和歌山県" d="M13551.7138,-3352.2267L13551.7152,-3352.2248L13551.7165,-3352.2256L13551.7183,-3352.2254L13551.7189,-3352.2237L13551.7203,-3352.2233L13551.7215,-3352.2245L13551.7233,-3352.2246L13551.7237,-3352.2232L13551.7258,-3352.2227L13551.7282,-3352.2247L13551.7327,-3352.2225L13551.7376,-3352.2208L13551.7396,-3352.2207L13551.7409,-3352.2217L13551.7422,-3352.2219L13551.7425,-3352.2204L13551.7425,-3352.2181L13551.743,-3352.2157L13551.7447,-3352.2124L13551.7423,-3352.2108L13551.7395,-3352.2097L13551.7371,-3352.2109L13551.7346,-3352.2145L13551.7318,-3352.2168L13551.7303,-3352.2161L13551.7276,-3352.2162L13551.7245,-3352.2185L13551.7217,-3352.2177L13551.7189,-3352.2176L13551.7174,-3352.2189L13551.7148,-3352.2175L13551.7123,-3352.2181L13551.7107,-3352.2216L13551.7107,-3352.2253L13551.7116,-3352.2264L13551.7138,-3352.2267Z"/>
<path content="和歌山県,,西牟婁郡,すさみ町,,30406" xlink:title="和歌山県" d="M13551.5785,-3352.2265L13551.573,-3352.2252L13551.5662,-3352.23L13551.56,-3352.2358L13551.5603,-3352.24L13551.5623,-3352.2434L13551.5651,-3352.2434L13551.5731,-3352.2417L13551.5805,-3352.2344L13551.5812,-3352.2304L13551.5785,-3352.2265Z"/>
<path content="和歌山県,,西牟婁郡,すさみ町,,30406" xlink:title="和歌山県" d="M13552.0724,-3352.2161L13552.0708,-3352.2151L13552.0763,-3352.2159L13552.0788,-3352.2156L13552.0814,-3352.2143L13552.0836,-3352.213L13552.0853,-3352.2112L13552.0848,-3352.209L13552.0814,-3352.2082L13552.0621,-3352.2072L13552.0609,-3352.2079L13552.0616,-3352.2099L13552.0639,-3352.2118L13552.0619,-3352.2122L13552.06,-3352.2122L13552.0593,-3352.2161L13552.0589,-3352.2194L13552.0605,-3352.221L13552.0642,-3352.2211L13552.0688,-3352.2204L13552.0722,-3352.2177L13552.0724,-3352.2161Z"/>
<path content="和歌山県,,西牟婁郡,すさみ町,,30406" xlink:title="和歌山県" d="M13552.1435,-3352.1336L13552.1428,-3352.1293L13552.1416,-3352.1273L13552.139,-3352.129L13552.1372,-3352.1296L13552.1347,-3352.1296L13552.1319,-3352.1308L13552.1294,-3352.1349L13552.1306,-3352.1399L13552.1341,-3352.1434L13552.1372,-3352.1463L13552.1412,-3352.1474L13552.1447,-3352.1467L13552.1465,-3352.1446L13552.1467,-3352.1416L13552.1455,-3352.1375L13552.1435,-3352.1336Z"/>
<path content="和歌山県,,西牟婁郡,すさみ町,,30406" xlink:title="和歌山県" d="M13552.4831,-3352.1999L13552.4787,-3352.1967L13552.4745,-3352.1979L13552.4719,-3352.1995L13552.4706,-3352.2018L13552.4712,-3352.208L13552.4753,-3352.2131L13552.4787,-3352.2153L13552.4847,-3352.2147L13552.4859,-3352.2122L13552.4844,-3352.2072L13552.4831,-3352.1999Z"/>
<path content="和歌山県,,西牟婁郡,すさみ町,,30406" xlink:title="和歌山県" d="M13551.5939,-3352.2485L13551.5852,-3352.2473L13551.5805,-3352.2502L13551.5798,-3352.2535L13551.5825,-3352.2614L13551.5879,-3352.2631L13551.598,-3352.2547L13551.5986,-3352.2518L13551.5939,-3352.2485Z"/>
<path content="和歌山県,,西牟婁郡,すさみ町,,30406" xlink:title="和歌山県" d="M13551.1737,-3352.0163L13551.1752,-3352.0126L13551.1763,-3352.0106L13551.1748,-3352.0091L13551.1694,-3352.0086L13551.1663,-3352.0117L13551.1644,-3352.0138L13551.1612,-3352.0138L13551.1583,-3352.0141L13551.1569,-3352.016L13551.1586,-3352.0214L13551.1631,-3352.0241L13551.1675,-3352.0253L13551.1716,-3352.0245L13551.1731,-3352.0196L13551.1737,-3352.0163Z"/>
<path content="和歌山県,,西牟婁郡,すさみ町,,30406" xlink:title="和歌山県" d="M13551.5253,-3352.2698L13551.5223,-3352.2697L13551.5214,-3352.2709L13551.5215,-3352.2733L13551.5232,-3352.2753L13551.5246,-3352.2766L13551.5275,-3352.2766L13551.5305,-3352.2779L13551.5387,-3352.2834L13551.5395,-3352.2866L13551.5411,-3352.2885L13551.5441,-3352.2902L13551.5466,-3352.291L13551.5487,-3352.2909L13551.5505,-3352.289L13551.5487,-3352.2842L13551.544,-3352.2806L13551.5402,-3352.2772L13551.5353,-3352.2759L13551.5314,-3352.274L13551.5282,-3352.2715L13551.5253,-3352.2698Z"/>
<path content="和歌山県,,西牟婁郡,すさみ町,,30406" xlink:title="和歌山県" d="M13550.9043,-3352.5573L13550.9073,-3352.5572L13550.9091,-3352.5575L13550.9129,-3352.5561L13550.9151,-3352.5533L13550.9177,-3352.551L13550.9186,-3352.5494L13550.9175,-3352.5487L13550.9113,-3352.5505L13550.9061,-3352.5517L13550.9039,-3352.5519L13550.9033,-3352.5508L13550.9021,-3352.5498L13550.9007,-3352.5504L13550.8983,-3352.5504L13550.8969,-3352.549L13550.8958,-3352.5478L13550.8927,-3352.5478L13550.8894,-3352.5489L13550.8875,-3352.5507L13550.8872,-3352.5527L13550.8884,-3352.554L13550.8904,-3352.5544L13550.8926,-3352.5534L13550.8939,-3352.5539L13550.8934,-3352.5555L13550.8952,-3352.5567L13550.8982,-3352.5581L13550.9007,-3352.5583L13550.9043,-3352.5573Z"/>
<path content="和歌山県,,西牟婁郡,すさみ町,,30406" xlink:title="和歌山県" d="M13552.2231,-3352.1478L13552.2213,-3352.1475L13552.2183,-3352.1496L13552.2151,-3352.1535L13552.2151,-3352.1548L13552.2174,-3352.1572L13552.2174,-3352.1601L13552.2247,-3352.1642L13552.2277,-3352.1643L13552.2297,-3352.1624L13552.2298,-3352.1598L13552.232,-3352.1582L13552.2334,-3352.1561L13552.2307,-3352.1532L13552.227,-3352.1512L13552.2243,-3352.1492L13552.2231,-3352.1478Z"/>
<path content="和歌山県,,西牟婁郡,すさみ町,,30406" xlink:title="和歌山県" d="M13552.1836,-3352.1757L13552.1754,-3352.1714L13552.1749,-3352.1724L13552.1715,-3352.1708L13552.1696,-3352.1715L13552.1674,-3352.1758L13552.1793,-3352.1806L13552.1878,-3352.1853L13552.1931,-3352.1892L13552.1951,-3352.1892L13552.1962,-3352.1877L13552.1954,-3352.1858L13552.1908,-3352.1806L13552.1836,-3352.1757Z"/>
<path content="和歌山県,,西牟婁郡,すさみ町,,30406" xlink:title="和歌山県" d="M13550.9926,-3352.5855L13550.9902,-3352.584L13550.9843,-3352.5848L13550.9809,-3352.5882L13550.9794,-3352.5899L13550.9816,-3352.5908L13550.9843,-3352.5915L13550.9858,-3352.5922L13550.9868,-3352.5933L13550.9867,-3352.5957L13550.9855,-3352.5978L13550.9855,-3352.6001L13550.9877,-3352.6006L13550.9914,-3352.5999L13550.9949,-3352.5968L13550.9971,-3352.594L13550.9976,-3352.5909L13550.9976,-3352.5889L13550.9968,-3352.5877L13550.9926,-3352.5855Z"/>
<path content="和歌山県,,西牟婁郡,すさみ町,,30406" xlink:title="和歌山県" d="M13551.6732,-3352.2736L13551.6705,-3352.2725L13551.6667,-3352.2725L13551.6666,-3352.2725L13551.6641,-3352.2728L13551.6632,-3352.2729L13551.6595,-3352.2708L13551.6568,-3352.2704L13551.6552,-3352.2708L13551.6552,-3352.2741L13551.6579,-3352.279L13551.662,-3352.2812L13551.6664,-3352.282L13551.6667,-3352.282L13551.6698,-3352.282L13551.673,-3352.2802L13551.6749,-3352.2771L13551.6751,-3352.2756L13551.6732,-3352.2736Z"/>
<path content="和歌山県,,西牟婁郡,すさみ町,,30406" xlink:title="和歌山県" d="M13552.7344,-3352.1862L13552.7343,-3352.1873L13552.7344,-3352.1873Z"/>
<path content="和歌山県,,西牟婁郡,すさみ町,,30406" xlink:title="和歌山県" d="M13551.4856,-3352.3249L13551.4841,-3352.3229L13551.4841,-3352.3219L13551.4849,-3352.3213L13551.4855,-3352.3206L13551.4848,-3352.32L13551.4829,-3352.3201L13551.4758,-3352.3181L13551.4742,-3352.319L13551.4728,-3352.3199L13551.4704,-3352.32L13551.4655,-3352.3194L13551.4623,-3352.324L13551.4637,-3352.3258L13551.4671,-3352.3273L13551.474,-3352.3248L13551.4787,-3352.3254L13551.4828,-3352.3269L13551.4851,-3352.328L13551.4868,-3352.3276L13551.4856,-3352.3249Z"/>
<path content="和歌山県,,西牟婁郡,すさみ町,,30406" xlink:title="和歌山県" d="M13551.288,-3351.9174L13551.2859,-3351.9165L13551.2819,-3351.9171L13551.2763,-3351.9184L13551.2748,-3351.9221L13551.2758,-3351.9259L13551.2795,-3351.9282L13551.2838,-3351.928L13551.2888,-3351.9271L13551.2903,-3351.9245L13551.289,-3351.9202L13551.288,-3351.9174Z"/>
<path content="和歌山県,,西牟婁郡,すさみ町,,30406" xlink:title="和歌山県" d="M13551.4078,-3352.39L13551.4059,-3352.3891L13551.4044,-3352.3895L13551.4006,-3352.3954L13551.4,-3352.398L13551.4014,-3352.3996L13551.4046,-3352.4018L13551.4067,-3352.4034L13551.4109,-3352.4022L13551.4125,-3352.4L13551.4128,-3352.397L13551.4125,-3352.3942L13551.4113,-3352.3931L13551.4088,-3352.3916L13551.4078,-3352.39Z"/>
<path content="和歌山県,,西牟婁郡,すさみ町,,30406" xlink:title="和歌山県" d="M13551.4719,-3352.3448L13551.467,-3352.341L13551.4689,-3352.3378L13551.4675,-3352.3379L13551.4645,-3352.3376L13551.4622,-3352.3375L13551.4595,-3352.3375L13551.4595,-3352.3388L13551.4582,-3352.3406L13551.4569,-3352.3418L13551.4554,-3352.3418L13551.4553,-3352.3429L13551.4569,-3352.345L13551.4605,-3352.3471L13551.4619,-3352.347L13551.4646,-3352.3441L13551.4756,-3352.351L13551.4768,-3352.3496L13551.476,-3352.3486L13551.4756,-3352.347L13551.4719,-3352.3448Z"/>
<path content="和歌山県,,西牟婁郡,すさみ町,,30406" xlink:title="和歌山県" d="M13552.6249,-3352.1564L13552.6215,-3352.1536L13552.6101,-3352.1541L13552.6087,-3352.1553L13552.6094,-3352.1581L13552.6141,-3352.1609L13552.6182,-3352.1637L13552.6215,-3352.1637L13552.6249,-3352.1609L13552.6249,-3352.1564Z"/>
<path content="和歌山県,,西牟婁郡,すさみ町,,30406" xlink:title="和歌山県" d="M13552.3612,-3352.284L13552.3599,-3352.2816L13552.3543,-3352.2821L13552.3525,-3352.2839L13552.3513,-3352.2928L13552.3529,-3352.296L13552.3569,-3352.2968L13552.3591,-3352.2959L13552.3605,-3352.2919L13552.3607,-3352.2867L13552.3612,-3352.284Z"/>
<path content="和歌山県,,西牟婁郡,すさみ町,,30406" xlink:title="和歌山県" d="M13551.6402,-3352.2676L13551.6381,-3352.2676L13551.6357,-3352.2698L13551.6343,-3352.2738L13551.6343,-3352.2785L13551.6398,-3352.2783L13551.643,-3352.2762L13551.6455,-3352.2732L13551.6421,-3352.2685L13551.6402,-3352.2676Z"/>
<path content="和歌山県,,西牟婁郡,すさみ町,,30406" xlink:title="和歌山県" d="M13552.5755,-3352.226L13552.5703,-3352.2254L13552.5687,-3352.2272L13552.5703,-3352.2312L13552.5749,-3352.2329L13552.5806,-3352.234L13552.5852,-3352.2333L13552.584,-3352.2309L13552.5779,-3352.2275L13552.5755,-3352.226Z"/>
<path content="和歌山県,,西牟婁郡,すさみ町,,30406" xlink:title="和歌山県" d="M13552.616,-3352.2284L13552.6082,-3352.2253L13552.6072,-3352.2254L13552.6042,-3352.23L13552.6051,-3352.2323L13552.6074,-3352.2348L13552.6105,-3352.2348L13552.6125,-3352.2336L13552.6146,-3352.2312L13552.6162,-3352.2299L13552.616,-3352.2284Z"/>
<path content="和歌山県,,西牟婁郡,すさみ町,,30406" xlink:title="和歌山県" d="M13551.3906,-3352.3916L13551.3883,-3352.3912L13551.387,-3352.3922L13551.3851,-3352.3955L13551.385,-3352.397L13551.3877,-3352.3988L13551.3911,-3352.4L13551.3948,-3352.3998L13551.3969,-3352.3996L13551.3978,-3352.3985L13551.3978,-3352.3968L13551.3964,-3352.3959L13551.3941,-3352.3948L13551.3921,-3352.3926L13551.3906,-3352.3916Z"/>
<path content="和歌山県,,西牟婁郡,すさみ町,,30406" xlink:title="和歌山県" d="M13552.6331,-3352.1441L13552.6298,-3352.143L13552.6266,-3352.1431L13552.6255,-3352.1444L13552.6326,-3352.149L13552.6374,-3352.1528L13552.6403,-3352.1518L13552.6413,-3352.1496L13552.6382,-3352.1475L13552.6331,-3352.1441Z"/>
<path content="和歌山県,,西牟婁郡,すさみ町,,30406" xlink:title="和歌山県" d="M13552.5565,-3352.2111L13552.5554,-3352.2105L13552.5536,-3352.2105L13552.5524,-3352.2117L13552.5524,-3352.2162L13552.5572,-3352.2241L13552.5581,-3352.2242L13552.56,-3352.2235L13552.5605,-3352.2229L13552.5565,-3352.2111Z"/>
<path content="和歌山県,,西牟婁郡,すさみ町,,30406" xlink:title="和歌山県" d="M13551.0543,-3352.4495L13551.0518,-3352.4484L13551.0494,-3352.4487L13551.048,-3352.4492L13551.0537,-3352.4548L13551.0579,-3352.4575L13551.0608,-3352.458L13551.0629,-3352.4565L13551.0617,-3352.4545L13551.0579,-3352.4521L13551.0543,-3352.4495Z"/>
<path content="和歌山県,,西牟婁郡,すさみ町,,30406" xlink:title="和歌山県" d="M13551.5171,-3352.3118L13551.5119,-3352.309L13551.5091,-3352.3098L13551.5092,-3352.3116L13551.5122,-3352.3171L13551.5146,-3352.3184L13551.5163,-3352.3178L13551.5186,-3352.3144L13551.5171,-3352.3118Z"/>
<path content="和歌山県,,西牟婁郡,すさみ町,,30406" xlink:title="和歌山県" d="M13552.6837,-3352.203L13552.6805,-3352.2028L13552.6791,-3352.2034L13552.6789,-3352.2045L13552.6779,-3352.2074L13552.6821,-3352.21L13552.6835,-3352.2097L13552.6849,-3352.2089L13552.6885,-3352.2061L13552.6837,-3352.203Z"/>
<path content="和歌山県,,西牟婁郡,すさみ町,,30406" xlink:title="和歌山県" d="M13551.7396,-3352.1576L13551.7385,-3352.1567L13551.7341,-3352.1586L13551.7312,-3352.1605L13551.731,-3352.162L13551.7331,-3352.1639L13551.7359,-3352.1639L13551.7383,-3352.1605L13551.7396,-3352.1576Z"/>
<path content="和歌山県,,西牟婁郡,すさみ町,,30406" xlink:title="和歌山県" d="M13551.1607,-3351.8135L13551.1587,-3351.8124L13551.1568,-3351.8134L13551.1571,-3351.8146L13551.1565,-3351.8166L13551.1565,-3351.8189L13551.1581,-3351.8205L13551.1605,-3351.82L13551.1621,-3351.8177L13551.1626,-3351.8154L13551.1607,-3351.8135Z"/>
<path content="和歌山県,,西牟婁郡,すさみ町,,30406" xlink:title="和歌山県" d="M13552.6474,-3352.2294L13552.6426,-3352.2281L13552.6409,-3352.2291L13552.6396,-3352.2306L13552.64,-3352.2318L13552.6409,-3352.2334L13552.6432,-3352.2337L13552.6448,-3352.2323L13552.6474,-3352.2294Z"/>
<path content="和歌山県,,西牟婁郡,すさみ町,,30406" xlink:title="和歌山県" d="M13551.0528,-3352.4913L13551.0509,-3352.4913L13551.0505,-3352.4926L13551.0541,-3352.4962L13551.0575,-3352.4986L13551.0575,-3352.4962L13551.0568,-3352.4938L13551.0555,-3352.4921L13551.0528,-3352.4913Z"/>
<path content="和歌山県,,西牟婁郡,すさみ町,,30406" xlink:title="和歌山県" d="M13551.8898,-3352.1391L13551.8849,-3352.1391L13551.8835,-3352.1403L13551.8835,-3352.1419L13551.8859,-3352.1431L13551.8886,-3352.1435L13551.8897,-3352.1426L13551.8907,-3352.141L13551.8898,-3352.1391Z"/>
</g>
</svg>
