<?xml version="1.0" encoding="UTF-8"?>
<svg  xmlns="http://www.w3.org/2000/svg" xmlns:xlink="http://www.w3.org/1999/xlink" xmlns:go="http://purl.org/svgmap/profile" property="geometry,N03_001,N03_002,N03_003,N03_004,N03_005,N03_007" viewBox="13598.32763671875 -3366.2109375 0.54931640625 0.54931640625" go:dataArea="13598.32763671875 -3366.2109375 0.54931640625 0.54931640625" >
<metadata>
 <rdf:RDF xmlns:rdf="http://www.w3.org/1999/02/22-rdf-syntax-ns#" xmlns:crs="http://opengis.org/xmldtds/transformations.dtd" xmlns:svg="http://www.w3.org/svg" >
  <rdf:Description>
   <crs:CoordinateReferenceSystem rdf:resource="http://purl.org/crs/84" svg:transform="matrix(100.0,0.0,0.0,-100.0,0.0,0.0)" />
  </rdf:Description>
 </rdf:RDF>
</metadata>
<globalCoordinateSystem srsName="http://purl.org/crs/84" transform="matrix(100.0,0.0,0.0,-100.0,0.0,0.0)" />
<defs>
 <g id="p0" >
  <circle cx="0.0" cy="0.0" r="3" stroke="green" stroke-width="2.0" vector-effect="non-scaling-stroke" />
 </g>
</defs>
<g fill="#0000ff" fill-rule="evenodd" opacity="0.5" >
<path content="和歌山県,,東牟婁郡,那智勝浦町,,30421" xlink:title="和歌山県" d="M13598.3276,-3365.6616L13598.3276,-3366.0816L13598.3277,-3366.0816L13598.3289,-3366.0819L13598.3306,-3366.0825L13598.3319,-3366.0831L13598.3333,-3366.0838L13598.3337,-3366.084L13598.3343,-3366.0841L13598.3354,-3366.0843L13598.3364,-3366.0843L13598.3383,-3366.0842L13598.3391,-3366.0843L13598.3395,-3366.0844L13598.3397,-3366.0845L13598.3403,-3366.0849L13598.3412,-3366.0858L13598.3414,-3366.0859L13598.3419,-3366.0862L13598.3426,-3366.0864L13598.3439,-3366.0865L13598.3453,-3366.0865L13598.3473,-3366.0867L13598.3489,-3366.0868L13598.3506,-3366.0867L13598.352,-3366.0866L13598.3612,-3366.0871L13598.3691,-3366.0871L13598.3767,-3366.0865L13598.3841,-3366.0853L13598.3898,-3366.084L13598.3998,-3366.0809L13598.4096,-3366.0764L13598.4171,-3366.0719L13598.4263,-3366.0663L13598.4306,-3366.0649L13598.4383,-3366.0622L13598.4407,-3366.0614L13598.4478,-3366.0592L13598.4547,-3366.0572L13598.4634,-3366.0547L13598.4662,-3366.0539L13598.4709,-3366.0528L13598.4739,-3366.0525L13598.4804,-3366.0535L13598.4874,-3366.0564L13598.4968,-3366.0609L13598.5123,-3366.0696L13598.53,-3366.0784L13598.5488,-3366.0885L13598.5678,-3366.0983L13598.5798,-3366.1043L13598.5802,-3366.1056L13598.5802,-3366.1059L13598.5802,-3366.1075L13598.5802,-3366.1076L13598.5804,-3366.1081L13598.5807,-3366.1086L13598.5811,-3366.1089L13598.5813,-3366.1091L13598.5821,-3366.1094L13598.5822,-3366.1095L13598.5824,-3366.1097L13598.5824,-3366.1099L13598.5825,-3366.1104L13598.5823,-3366.1112L13598.5819,-3366.1123L13598.5814,-3366.113L13598.5806,-3366.1143L13598.5804,-3366.1149L13598.5803,-3366.1152L13598.5804,-3366.1155L13598.5805,-3366.1156L13598.5808,-3366.1159L13598.5815,-3366.1165L13598.5817,-3366.1167L13598.5818,-3366.1169L13598.5818,-3366.1173L13598.5817,-3366.1186L13598.5817,-3366.1191L13598.582,-3366.1198L13598.5823,-3366.1203L13598.5831,-3366.122L13598.584,-3366.1242L13598.5842,-3366.1249L13598.5851,-3366.1276L13598.5863,-3366.1306L13598.5867,-3366.132L13598.5868,-3366.1325L13598.5869,-3366.1338L13598.5871,-3366.1343L13598.5874,-3366.1347L13598.5877,-3366.1349L13598.5883,-3366.1352L13598.589,-3366.1354L13598.5901,-3366.1354L13598.5916,-3366.1353L13598.5961,-3366.1476L13598.6014,-3366.1621L13598.6273,-3366.1581L13598.6374,-3366.2058L13598.6386,-3366.2109L13598.8763,-3366.2109L13598.8762,-3366.2108L13598.8761,-3366.2106L13598.8758,-3366.2105L13598.8756,-3366.2105L13598.8744,-3366.2107L13598.8736,-3366.2108L13598.8732,-3366.2108L13598.8728,-3366.2106L13598.8724,-3366.2104L13598.8721,-3366.21L13598.872,-3366.2098L13598.8718,-3366.2093L13598.8717,-3366.2087L13598.8718,-3366.2072L13598.8718,-3366.207L13598.872,-3366.206L13598.8723,-3366.2055L13598.8725,-3366.2052L13598.8731,-3366.2047L13598.874,-3366.2042L13598.8745,-3366.2041L13598.8765,-3366.2036L13598.877,-3366.2035L13598.877,-3366.0592L13598.8767,-3366.0592L13598.8763,-3366.0593L13598.8758,-3366.0596L13598.8749,-3366.0603L13598.874,-3366.0612L13598.8732,-3366.0622L13598.8722,-3366.0632L13598.8714,-3366.0639L13598.8709,-3366.0642L13598.8705,-3366.0643L13598.8701,-3366.0643L13598.8698,-3366.0641L13598.8694,-3366.0638L13598.8689,-3366.0635L13598.8687,-3366.0634L13598.8685,-3366.0634L13598.8681,-3366.0634L13598.8678,-3366.0634L13598.8673,-3366.0636L13598.8668,-3366.0639L13598.8664,-3366.0643L13598.8655,-3366.0653L13598.8649,-3366.0659L13598.8649,-3366.0659L13598.8648,-3366.0659L13598.8648,-3366.0647L13598.8647,-3366.0642L13598.8646,-3366.064L13598.8644,-3366.0638L13598.8643,-3366.0638L13598.8639,-3366.0638L13598.8636,-3366.0639L13598.8633,-3366.064L13598.8631,-3366.0641L13598.8628,-3366.0645L13598.8622,-3366.0653L13598.8618,-3366.0658L13598.8614,-3366.066L13598.8607,-3366.0662L13598.8592,-3366.0664L13598.8585,-3366.0667L13598.8579,-3366.0671L13598.8565,-3366.0681L13598.8559,-3366.0685L13598.8556,-3366.0687L13598.8555,-3366.0687L13598.8553,-3366.0686L13598.8552,-3366.0684L13598.8546,-3366.067L13598.8545,-3366.0667L13598.8541,-3366.0663L13598.8537,-3366.0659L13598.8531,-3366.0655L13598.8524,-3366.0653L13598.8515,-3366.0652L13598.8502,-3366.0651L13598.8493,-3366.0652L13598.8482,-3366.0655L13598.8474,-3366.0658L13598.8457,-3366.0669L13598.8448,-3366.0674L13598.8442,-3366.0675L13598.8437,-3366.0676L13598.8417,-3366.0675L13598.8411,-3366.0675L13598.8391,-3366.0679L13598.8357,-3366.0686L13598.835,-3366.0688L13598.8341,-3366.0691L13598.8336,-3366.0695L13598.8332,-3366.0699L13598.8326,-3366.0712L13598.8325,-3366.0714L13598.8323,-3366.0714L13598.8322,-3366.0713L13598.8313,-3366.0702L13598.8308,-3366.0697L13598.8304,-3366.0694L13598.8301,-3366.0693L13598.8297,-3366.0692L13598.8286,-3366.0692L13598.8281,-3366.0691L13598.8279,-3366.069L13598.8279,-3366.0688L13598.8279,-3366.0686L13598.828,-3366.0682L13598.8287,-3366.0669L13598.8295,-3366.0658L13598.83,-3366.0653L13598.8305,-3366.065L13598.8323,-3366.0643L13598.8336,-3366.0637L13598.8349,-3366.0629L13598.8357,-3366.0622L13598.8362,-3366.0617L13598.8366,-3366.061L13598.837,-3366.0602L13598.8374,-3366.0598L13598.8377,-3366.0597L13598.8381,-3366.0595L13598.8391,-3366.0592L13598.8413,-3366.0589L13598.8437,-3366.0584L13598.8456,-3366.0579L13598.848,-3366.0571L13598.8497,-3366.0565L13598.8509,-3366.0562L13598.8524,-3366.0558L13598.8528,-3366.0557L13598.8543,-3366.055L13598.8556,-3366.0543L13598.8564,-3366.0537L13598.8569,-3366.0533L13598.8575,-3366.0528L13598.858,-3366.0526L13598.8594,-3366.0523L13598.8607,-3366.0521L13598.861,-3366.052L13598.8631,-3366.052L13598.8641,-3366.052L13598.8644,-3366.0519L13598.8653,-3366.0517L13598.8663,-3366.0512L13598.867,-3366.0508L13598.868,-3366.0502L13598.8682,-3366.0501L13598.8703,-3366.0494L13598.8712,-3366.049L13598.8723,-3366.0482L13598.8734,-3366.0474L13598.8749,-3366.0467L13598.8752,-3366.0466L13598.876,-3366.046L13598.8764,-3366.0456L13598.8766,-3366.0452L13598.8766,-3366.0451L13598.8767,-3366.0446L13598.8765,-3366.0433L13598.8764,-3366.0427L13598.8765,-3366.042L13598.877,-3366.0408L13598.877,-3366.0387L13598.8768,-3366.0384L13598.8764,-3366.0379L13598.8758,-3366.0375L13598.8753,-3366.0373L13598.8748,-3366.0373L13598.8744,-3366.0373L13598.8742,-3366.0373L13598.8732,-3366.0378L13598.8727,-3366.0379L13598.8724,-3366.0379L13598.8721,-3366.0379L13598.8717,-3366.0377L13598.8708,-3366.0372L13598.8702,-3366.0369L13598.8698,-3366.0365L13598.8696,-3366.0361L13598.8696,-3366.0359L13598.8696,-3366.0348L13598.8696,-3366.0343L13598.8694,-3366.0339L13598.8693,-3366.0337L13598.869,-3366.0335L13598.8686,-3366.0334L13598.868,-3366.0332L13598.8671,-3366.0331L13598.8661,-3366.033L13598.8657,-3366.0328L13598.8656,-3366.0327L13598.8648,-3366.032L13598.8643,-3366.0317L13598.8635,-3366.0314L13598.8607,-3366.0305L13598.8599,-3366.0303L13598.8594,-3366.0302L13598.8586,-3366.0303L13598.8581,-3366.0303L13598.8579,-3366.0303L13598.8578,-3366.0302L13598.8576,-3366.03L13598.8571,-3366.029L13598.857,-3366.0289L13598.8565,-3366.0284L13598.856,-3366.0279L13598.8553,-3366.0272L13598.8549,-3366.0269L13598.8542,-3366.0266L13598.8534,-3366.0264L13598.8521,-3366.0262L13598.8518,-3366.0261L13598.8516,-3366.026L13598.8515,-3366.0258L13598.8514,-3366.0253L13598.8513,-3366.0251L13598.8512,-3366.025L13598.8507,-3366.025L13598.8501,-3366.0249L13598.8493,-3366.025L13598.8489,-3366.0251L13598.8479,-3366.0257L13598.8476,-3366.0258L13598.8462,-3366.0261L13598.8456,-3366.0263L13598.8453,-3366.0265L13598.8446,-3366.0272L13598.8443,-3366.0274L13598.8441,-3366.0274L13598.8438,-3366.0274L13598.8428,-3366.0273L13598.8418,-3366.0271L13598.8408,-3366.0271L13598.84,-3366.0273L13598.8387,-3366.0277L13598.8381,-3366.0278L13598.8379,-3366.0278L13598.8377,-3366.0278L13598.8377,-3366.0277L13598.8375,-3366.0275L13598.8374,-3366.0272L13598.8374,-3366.0262L13598.8373,-3366.0252L13598.8372,-3366.0248L13598.8369,-3366.0246L13598.8366,-3366.0243L13598.8359,-3366.0241L13598.8336,-3366.0236L13598.8318,-3366.0233L13598.8309,-3366.0232L13598.8304,-3366.0233L13598.8299,-3366.0235L13598.8297,-3366.0236L13598.8295,-3366.0238L13598.829,-3366.0249L13598.8288,-3366.0251L13598.8282,-3366.0259L13598.8273,-3366.0267L13598.8268,-3366.027L13598.8264,-3366.0271L13598.8263,-3366.0271L13598.8261,-3366.027L13598.826,-3366.0268L13598.8259,-3366.0258L13598.8257,-3366.0252L13598.8255,-3366.025L13598.8253,-3366.0247L13598.825,-3366.0246L13598.824,-3366.0244L13598.8233,-3366.0241L13598.8231,-3366.024L13598.8228,-3366.0237L13598.8225,-3366.0232L13598.8223,-3366.0226L13598.8222,-3366.0217L13598.8221,-3366.0207L13598.8219,-3366.0201L13598.8218,-3366.0197L13598.8219,-3366.0194L13598.8223,-3366.019L13598.8224,-3366.0187L13598.8224,-3366.0184L13598.8223,-3366.0182L13598.8221,-3366.0179L13598.822,-3366.0178L13598.8214,-3366.0174L13598.8212,-3366.0172L13598.8212,-3366.0171L13598.8212,-3366.0168L13598.8214,-3366.0165L13598.8218,-3366.0161L13598.8222,-3366.0158L13598.8227,-3366.0153L13598.8228,-3366.0152L13598.823,-3366.0148L13598.8231,-3366.0145L13598.823,-3366.0143L13598.8229,-3366.0139L13598.8219,-3366.0128L13598.8216,-3366.0122L13598.8212,-3366.0115L13598.821,-3366.0113L13598.8206,-3366.0111L13598.8202,-3366.011L13598.8198,-3366.011L13598.8192,-3366.0111L13598.818,-3366.0115L13598.8173,-3366.0118L13598.817,-3366.0118L13598.8168,-3366.0117L13598.8167,-3366.0116L13598.8166,-3366.0115L13598.8162,-3366.0107L13598.8159,-3366.0102L13598.8155,-3366.0099L13598.8148,-3366.0094L13598.8147,-3366.0092L13598.8146,-3366.009L13598.8146,-3366.0081L13598.8146,-3366.0079L13598.8144,-3366.0076L13598.8138,-3366.0072L13598.8121,-3366.0058L13598.8116,-3366.0053L13598.8114,-3366.005L13598.8113,-3366.0048L13598.8113,-3366.0044L13598.8112,-3366.0037L13598.811,-3366.0035L13598.8109,-3366.0034L13598.8107,-3366.0033L13598.8101,-3366.0031L13598.8081,-3366.0025L13598.8062,-3366.0019L13598.8057,-3366.0018L13598.8046,-3366.0017L13598.803,-3366.0017L13598.802,-3366.0018L13598.7993,-3366.0023L13598.7976,-3366.0027L13598.7964,-3366.003L13598.7962,-3366.0031L13598.7953,-3366.0036L13598.794,-3366.0045L13598.7929,-3366.0053L13598.7918,-3366.0063L13598.7904,-3366.0078L13598.7894,-3366.0088L13598.7891,-3366.0091L13598.7863,-3366.011L13598.7842,-3366.0128L13598.7827,-3366.014L13598.7823,-3366.0143L13598.7808,-3366.0151L13598.7784,-3366.016L13598.7769,-3366.0165L13598.7759,-3366.0166L13598.7752,-3366.0165L13598.774,-3366.0162L13598.7735,-3366.0162L13598.7729,-3366.0163L13598.7714,-3366.0169L13598.7705,-3366.0172L13598.7695,-3366.0174L13598.7689,-3366.0177L13598.7682,-3366.0183L13598.7675,-3366.0191L13598.7667,-3366.0203L13598.7661,-3366.0209L13598.7655,-3366.0213L13598.7641,-3366.0221L13598.7634,-3366.0224L13598.7627,-3366.0228L13598.7614,-3366.0239L13598.7608,-3366.0244L13598.7602,-3366.0246L13598.7591,-3366.025L13598.7589,-3366.0251L13598.7588,-3366.0252L13598.7586,-3366.0254L13598.7585,-3366.0258L13598.7581,-3366.0267L13598.758,-3366.027L13598.7575,-3366.0274L13598.7564,-3366.028L13598.7557,-3366.0285L13598.7554,-3366.0287L13598.7543,-3366.0298L13598.7535,-3366.0305L13598.7526,-3366.0314L13598.7513,-3366.0331L13598.7501,-3366.0345L13598.7493,-3366.0355L13598.749,-3366.0361L13598.749,-3366.0363L13598.7489,-3366.0376L13598.7488,-3366.0382L13598.7486,-3366.0386L13598.7484,-3366.039L13598.748,-3366.0393L13598.7478,-3366.0394L13598.7475,-3366.0394L13598.7471,-3366.0393L13598.7461,-3366.039L13598.7454,-3366.0387L13598.7448,-3366.0386L13598.7433,-3366.0387L13598.7423,-3366.0386L13598.7412,-3366.0384L13598.7406,-3366.0381L13598.7397,-3366.0378L13598.7392,-3366.0378L13598.7385,-3366.0378L13598.7378,-3366.0379L13598.7372,-3366.0382L13598.7353,-3366.0392L13598.735,-3366.0393L13598.7326,-3366.0402L13598.7322,-3366.0404L13598.7307,-3366.0411L13598.7296,-3366.0418L13598.7286,-3366.0426L13598.7279,-3366.0433L13598.7271,-3366.044L13598.7267,-3366.0442L13598.7257,-3366.0447L13598.7246,-3366.045L13598.7228,-3366.0453L13598.7208,-3366.0457L13598.7199,-3366.0459L13598.7189,-3366.0463L13598.7182,-3366.0467L13598.7176,-3366.0473L13598.7166,-3366.0486L13598.7162,-3366.0491L13598.7156,-3366.0494L13598.7138,-3366.0502L13598.7134,-3366.0503L13598.7112,-3366.0515L13598.7101,-3366.052L13598.7088,-3366.0524L13598.7086,-3366.0525L13598.7076,-3366.053L13598.7057,-3366.0544L13598.705,-3366.0548L13598.7029,-3366.0562L13598.701,-3366.0573L13598.6996,-3366.0582L13598.6981,-3366.0595L13598.6965,-3366.0609L13598.6955,-3366.0617L13598.6943,-3366.0627L13598.6935,-3366.0636L13598.6925,-3366.0649L13598.6919,-3366.0655L13598.6912,-3366.0663L13598.6909,-3366.0668L13598.6908,-3366.0672L13598.6908,-3366.0673L13598.6909,-3366.0677L13598.6912,-3366.0684L13598.6919,-3366.0694L13598.6923,-3366.0702L13598.6928,-3366.0721L13598.6931,-3366.0729L13598.694,-3366.0742L13598.6947,-3366.0753L13598.6954,-3366.0765L13598.6957,-3366.0772L13598.6956,-3366.0775L13598.6955,-3366.0776L13598.6953,-3366.0776L13598.6949,-3366.0776L13598.6938,-3366.0771L13598.6922,-3366.0763L13598.6902,-3366.0748L13598.6892,-3366.0742L13598.6878,-3366.0735L13598.6859,-3366.0727L13598.6851,-3366.0725L13598.6841,-3366.0723L13598.6834,-3366.0722L13598.6829,-3366.0723L13598.6827,-3366.0724L13598.6822,-3366.0727L13598.6818,-3366.0731L13598.6809,-3366.0746L13598.6802,-3366.0757L13598.6788,-3366.0772L13598.6784,-3366.0778L13598.6781,-3366.0784L13598.678,-3366.0792L13598.6781,-3366.0819L13598.6781,-3366.0827L13598.6779,-3366.0838L13598.6776,-3366.0846L13598.6761,-3366.0872L13598.6755,-3366.0884L13598.6753,-3366.0892L13598.6753,-3366.09L13598.6754,-3366.091L13598.6755,-3366.0919L13598.6754,-3366.092L13598.6752,-3366.0926L13598.6742,-3366.0942L13598.6741,-3366.0945L13598.6736,-3366.0955L13598.6733,-3366.097L13598.6731,-3366.0984L13598.6729,-3366.1L13598.6726,-3366.1014L13598.6722,-3366.103L13598.6721,-3366.1039L13598.6722,-3366.1066L13598.6722,-3366.1072L13598.672,-3366.1088L13598.6716,-3366.1109L13598.6712,-3366.1133L13598.6711,-3366.1148L13598.6712,-3366.1155L13598.6714,-3366.1163L13598.6718,-3366.1169L13598.6723,-3366.1173L13598.6732,-3366.1179L13598.6749,-3366.1186L13598.6756,-3366.1189L13598.6764,-3366.1193L13598.6769,-3366.1196L13598.6771,-3366.1198L13598.6774,-3366.1202L13598.6777,-3366.1211L13598.6781,-3366.123L13598.6785,-3366.1238L13598.679,-3366.1244L13598.6798,-3366.1249L13598.6806,-3366.1255L13598.6813,-3366.126L13598.6815,-3366.1263L13598.6815,-3366.1265L13598.6816,-3366.127L13598.6815,-3366.1285L13598.6817,-3366.1304L13598.6817,-3366.1307L13598.6815,-3366.1316L13598.6812,-3366.1324L13598.6807,-3366.133L13598.6805,-3366.1332L13598.6798,-3366.1337L13598.6789,-3366.1342L13598.678,-3366.1347L13598.6774,-3366.1352L13598.6774,-3366.1353L13598.6771,-3366.1357L13598.6768,-3366.1365L13598.6766,-3366.1379L13598.6766,-3366.141L13598.6766,-3366.1418L13598.6766,-3366.143L13598.6767,-3366.1439L13598.6767,-3366.1443L13598.6766,-3366.1444L13598.6765,-3366.1445L13598.6763,-3366.1445L13598.6758,-3366.1444L13598.6746,-3366.144L13598.6729,-3366.1435L13598.6713,-3366.1429L13598.671,-3366.1428L13598.6698,-3366.142L13598.6683,-3366.1407L13598.6655,-3366.1379L13598.6633,-3366.1358L13598.661,-3366.1339L13598.6581,-3366.1318L13598.6553,-3366.13L13598.6524,-3366.1283L13598.6496,-3366.1265L13598.6477,-3366.1251L13598.6455,-3366.1234L13598.6431,-3366.1214L13598.6426,-3366.121L13598.6409,-3366.1198L13598.6394,-3366.119L13598.6379,-3366.1184L13598.6363,-3366.1179L13598.6359,-3366.1178L13598.6345,-3366.1174L13598.6337,-3366.1171L13598.6334,-3366.1169L13598.6324,-3366.1163L13598.6321,-3366.116L13598.6319,-3366.1157L13598.6319,-3366.1155L13598.6319,-3366.1148L13598.6319,-3366.1143L13598.6317,-3366.1137L13598.6313,-3366.1129L13598.6305,-3366.1122L13598.6295,-3366.1114L13598.6284,-3366.1108L13598.6249,-3366.1094L13598.6227,-3366.1084L13598.6204,-3366.1071L13598.6161,-3366.1043L13598.6141,-3366.103L13598.6078,-3366.0991L13598.6025,-3366.096L13598.6014,-3366.0953L13598.6003,-3366.0945L13598.5995,-3366.0937L13598.5992,-3366.0932L13598.5985,-3366.0916L13598.5981,-3366.0905L13598.5969,-3366.0886L13598.5966,-3366.0878L13598.5966,-3366.0873L13598.5966,-3366.0868L13598.597,-3366.0861L13598.5979,-3366.0847L13598.5981,-3366.0844L13598.6002,-3366.081L13598.6007,-3366.0803L13598.6013,-3366.0795L13598.6019,-3366.079L13598.6026,-3366.0785L13598.6036,-3366.0781L13598.6057,-3366.0774L13598.6072,-3366.077L13598.6088,-3366.0765L13598.6101,-3366.0762L13598.6115,-3366.0762L13598.6128,-3366.0763L13598.6136,-3366.0764L13598.6147,-3366.0768L13598.6165,-3366.0776L13598.6178,-3366.0783L13598.619,-3366.0789L13598.62,-3366.0792L13598.6204,-3366.0793L13598.6238,-3366.0798L13598.6251,-3366.0802L13598.6257,-3366.0804L13598.6263,-3366.0809L13598.6265,-3366.0811L13598.627,-3366.0819L13598.6277,-3366.0831L13598.6282,-3366.0837L13598.629,-3366.0843L13598.6307,-3366.0856L13598.632,-3366.0864L13598.6327,-3366.0871L13598.6329,-3366.0873L13598.634,-3366.0887L13598.6348,-3366.0896L13598.6355,-3366.0902L13598.6364,-3366.0906L13598.6375,-3366.0908L13598.639,-3366.0909L13598.6416,-3366.0907L13598.6444,-3366.0904L13598.6462,-3366.0901L13598.6467,-3366.0899L13598.6485,-3366.0894L13598.651,-3366.0884L13598.6517,-3366.0881L13598.6541,-3366.0869L13598.6571,-3366.0853L13598.662,-3366.083L13598.6626,-3366.0827L13598.6647,-3366.0816L13598.6665,-3366.0804L13598.6683,-3366.079L13598.6703,-3366.077L13598.6722,-3366.075L13598.6741,-3366.0728L13598.6757,-3366.0713L13598.6771,-3366.0702L13598.6787,-3366.0687L13598.6808,-3366.0665L13598.6816,-3366.0655L13598.6824,-3366.0645L13598.6829,-3366.0638L13598.6834,-3366.0623L13598.6837,-3366.0612L13598.6839,-3366.06L13598.684,-3366.0594L13598.6841,-3366.0591L13598.6842,-3366.059L13598.6844,-3366.0588L13598.6848,-3366.0586L13598.686,-3366.0582L13598.6867,-3366.0579L13598.6869,-3366.0577L13598.6871,-3366.0575L13598.6872,-3366.0571L13598.6873,-3366.0567L13598.6872,-3366.0558L13598.6867,-3366.0541L13598.6866,-3366.0538L13598.6865,-3366.0529L13598.6865,-3366.0521L13598.6867,-3366.0513L13598.6871,-3366.0506L13598.6875,-3366.0502L13598.6879,-3366.0499L13598.6882,-3366.0498L13598.6888,-3366.0497L13598.6893,-3366.0498L13598.6896,-3366.0499L13598.69,-3366.0501L13598.6904,-3366.0505L13598.6913,-3366.0515L13598.692,-3366.0523L13598.6925,-3366.0527L13598.6932,-3366.0531L13598.6941,-3366.0534L13598.695,-3366.0535L13598.6956,-3366.0535L13598.6965,-3366.0533L13598.6977,-3366.0529L13598.6988,-3366.0523L13598.7,-3366.0514L13598.7025,-3366.0494L13598.705,-3366.0477L13598.7059,-3366.0471L13598.7067,-3366.0466L13598.7072,-3366.046L13598.7075,-3366.0456L13598.7075,-3366.0452L13598.7075,-3366.045L13598.7074,-3366.0446L13598.7071,-3366.0441L13598.7066,-3366.0435L13598.7063,-3366.0433L13598.7058,-3366.043L13598.7051,-3366.0428L13598.7045,-3366.0428L13598.7039,-3366.0428L13598.7034,-3366.043L13598.7032,-3366.043L13598.7024,-3366.0435L13598.7012,-3366.0442L13598.7009,-3366.0443L13598.7007,-3366.0442L13598.7007,-3366.0442L13598.7006,-3366.0441L13598.7005,-3366.0436L13598.7003,-3366.0423L13598.7003,-3366.0421L13598.6996,-3366.0406L13598.6995,-3366.0401L13598.6996,-3366.0398L13598.6996,-3366.0397L13598.7004,-3366.0386L13598.7005,-3366.0385L13598.7007,-3366.0378L13598.701,-3366.0363L13598.7012,-3366.0356L13598.7016,-3366.0346L13598.7019,-3366.0341L13598.7024,-3366.0337L13598.7026,-3366.0335L13598.7028,-3366.0335L13598.703,-3366.0335L13598.7032,-3366.0336L13598.7035,-3366.0339L13598.7044,-3366.0349L13598.7045,-3366.035L13598.7058,-3366.0364L13598.7067,-3366.0374L13598.7075,-3366.0379L13598.7082,-3366.0382L13598.7084,-3366.0382L13598.7091,-3366.0383L13598.7098,-3366.0383L13598.7104,-3366.0381L13598.7109,-3366.0379L13598.7111,-3366.0378L13598.7114,-3366.0375L13598.7117,-3366.0371L13598.7122,-3366.0359L13598.7126,-3366.0349L13598.713,-3366.0342L13598.7137,-3366.0333L13598.7145,-3366.0316L13598.7151,-3366.0306L13598.7159,-3366.0294L13598.7162,-3366.0288L13598.7165,-3366.0278L13598.7165,-3366.0271L13598.7165,-3366.0266L13598.7159,-3366.0249L13598.7158,-3366.0241L13598.7158,-3366.0234L13598.7162,-3366.0222L13598.7163,-3366.0218L13598.7162,-3366.0217L13598.7159,-3366.0209L13598.7158,-3366.0205L13598.7158,-3366.0204L13598.7159,-3366.0196L13598.7159,-3366.0193L13598.7158,-3366.0187L13598.7155,-3366.0175L13598.7153,-3366.0162L13598.7147,-3366.0137L13598.7146,-3366.0131L13598.7146,-3366.0122L13598.7151,-3366.0104L13598.7151,-3366.0103L13598.7152,-3366.0084L13598.7154,-3366.0068L13598.7153,-3366.0061L13598.7152,-3366.0056L13598.7149,-3366.0052L13598.7141,-3366.0046L13598.7137,-3366.0042L13598.7136,-3366.0041L13598.7135,-3366.0037L13598.7134,-3366.0022L13598.7133,-3366.0017L13598.7127,-3366.0005L13598.7122,-3365.9997L13598.7118,-3365.9992L13598.7114,-3365.999L13598.7108,-3365.9988L13598.7102,-3365.9986L13598.7092,-3365.9987L13598.7085,-3365.9986L13598.7082,-3365.9985L13598.7079,-3365.9983L13598.7077,-3365.998L13598.7076,-3365.9977L13598.7076,-3365.9975L13598.7076,-3365.9973L13598.7081,-3365.9965L13598.7082,-3365.9962L13598.7084,-3365.9955L13598.7084,-3365.9949L13598.7083,-3365.9945L13598.7081,-3365.9942L13598.708,-3365.9941L13598.7074,-3365.9936L13598.707,-3365.9932L13598.7069,-3365.9929L13598.7068,-3365.9925L13598.7069,-3365.9915L13598.7069,-3365.9908L13598.7067,-3365.9903L13598.7066,-3365.9897L13598.7067,-3365.9889L13598.7066,-3365.9888L13598.7065,-3365.9887L13598.7064,-3365.9886L13598.7061,-3365.9886L13598.7047,-3365.9887L13598.7044,-3365.9887L13598.7042,-3365.9887L13598.7041,-3365.9885L13598.704,-3365.9883L13598.7038,-3365.9875L13598.7036,-3365.9871L13598.7033,-3365.9867L13598.703,-3365.9864L13598.7027,-3365.9863L13598.7025,-3365.9862L13598.7023,-3365.9862L13598.702,-3365.9862L13598.7013,-3365.9864L13598.701,-3365.9865L13598.7001,-3365.9869L13598.6994,-3365.9874L13598.6989,-3365.988L13598.6981,-3365.9894L13598.6979,-3365.9897L13598.6972,-3365.9906L13598.696,-3365.9917L13598.6947,-3365.9928L13598.6941,-3365.9936L13598.6938,-3365.9942L13598.6938,-3365.9943L13598.6937,-3365.9952L13598.6937,-3365.9957L13598.6939,-3365.9964L13598.6941,-3365.9968L13598.6943,-3365.9971L13598.695,-3365.9974L13598.6955,-3365.9977L13598.6957,-3365.9979L13598.6959,-3365.9982L13598.6961,-3365.9986L13598.6962,-3365.9991L13598.6961,-3365.9993L13598.696,-3365.9996L13598.6959,-3365.9997L13598.6957,-3365.9998L13598.6955,-3365.9999L13598.6944,-3366L13598.6937,-3366.0001L13598.6935,-3366.0002L13598.6932,-3366.0004L13598.6931,-3366.0006L13598.6929,-3366.0011L13598.6928,-3366.0017L13598.6926,-3366.0024L13598.6924,-3366.0027L13598.6923,-3366.0028L13598.6921,-3366.0028L13598.692,-3366.0028L13598.6919,-3366.0028L13598.6916,-3366.0026L13598.6908,-3366.0019L13598.6905,-3366.0016L13598.6901,-3366.0015L13598.6897,-3366.0015L13598.6894,-3366.0015L13598.6889,-3366.0017L13598.6885,-3366.002L13598.6882,-3366.0023L13598.6878,-3366.0028L13598.6875,-3366.0038L13598.6871,-3366.0049L13598.6866,-3366.0063L13598.6865,-3366.0067L13598.6864,-3366.0081L13598.6866,-3366.0102L13598.6867,-3366.0115L13598.6866,-3366.0123L13598.6865,-3366.0126L13598.6863,-3366.0129L13598.6861,-3366.0131L13598.686,-3366.0132L13598.6855,-3366.0135L13598.6849,-3366.0137L13598.6844,-3366.0138L13598.6838,-3366.0138L13598.6835,-3366.0137L13598.6833,-3366.0136L13598.6831,-3366.0134L13598.6831,-3366.0133L13598.683,-3366.013L13598.6831,-3366.0122L13598.6832,-3366.0119L13598.6833,-3366.0104L13598.6833,-3366.0095L13598.6833,-3366.006L13598.6833,-3366.0044L13598.6835,-3366.0035L13598.6835,-3366.0032L13598.6839,-3366.0025L13598.6845,-3366.0015L13598.6855,-3366.0004L13598.6861,-3365.9996L13598.6864,-3365.999L13598.6865,-3365.9984L13598.6867,-3365.9976L13598.6868,-3365.9972L13598.687,-3365.997L13598.6874,-3365.9968L13598.6879,-3365.9966L13598.6885,-3365.9964L13598.6893,-3365.9962L13598.6898,-3365.9958L13598.6902,-3365.9953L13598.6905,-3365.9948L13598.6906,-3365.9943L13598.6906,-3365.9932L13598.6906,-3365.9926L13598.6909,-3365.9921L13598.6911,-3365.9919L13598.6914,-3365.9917L13598.6924,-3365.9914L13598.693,-3365.9911L13598.6934,-3365.9908L13598.6937,-3365.9903L13598.6944,-3365.9892L13598.6946,-3365.989L13598.6956,-3365.9881L13598.6959,-3365.9877L13598.6963,-3365.9873L13598.6964,-3365.9869L13598.6964,-3365.9866L13598.6964,-3365.9864L13598.6962,-3365.986L13598.6954,-3365.985L13598.6945,-3365.9837L13598.6941,-3365.9833L13598.6935,-3365.9827L13598.6929,-3365.9824L13598.6925,-3365.9822L13598.692,-3365.9821L13598.6916,-3365.9822L13598.691,-3365.9823L13598.6908,-3365.9824L13598.6902,-3365.9823L13598.6892,-3365.9821L13598.6891,-3365.9822L13598.689,-3365.9823L13598.6891,-3365.9825L13598.6894,-3365.9834L13598.6896,-3365.9843L13598.6897,-3365.9854L13598.69,-3365.9859L13598.6901,-3365.986L13598.6912,-3365.9871L13598.6916,-3365.9875L13598.6917,-3365.9879L13598.6918,-3365.9882L13598.6917,-3365.9885L13598.6915,-3365.9888L13598.6913,-3365.989L13598.691,-3365.9892L13598.6909,-3365.9892L13598.6908,-3365.9892L13598.6907,-3365.9891L13598.6905,-3365.989L13598.6899,-3365.9883L13598.6896,-3365.9881L13598.6893,-3365.988L13598.6889,-3365.9879L13598.6887,-3365.9879L13598.6886,-3365.9879L13598.6886,-3365.9881L13598.6886,-3365.9883L13598.689,-3365.9893L13598.6891,-3365.99L13598.6891,-3365.9903L13598.689,-3365.9905L13598.6889,-3365.9907L13598.6886,-3365.9909L13598.6884,-3365.991L13598.6882,-3365.991L13598.6879,-3365.9909L13598.6877,-3365.9907L13598.6874,-3365.9904L13598.6871,-3365.9898L13598.6868,-3365.9889L13598.6865,-3365.9881L13598.6863,-3365.9879L13598.686,-3365.9877L13598.6856,-3365.9876L13598.6843,-3365.9875L13598.6837,-3365.9874L13598.6833,-3365.9872L13598.6831,-3365.987L13598.6826,-3365.9862L13598.6823,-3365.9859L13598.682,-3365.9857L13598.6815,-3365.9855L13598.6809,-3365.9854L13598.6792,-3365.9854L13598.677,-3365.9852L13598.6759,-3365.9851L13598.6754,-3365.9852L13598.6746,-3365.9854L13598.6737,-3365.9859L13598.6727,-3365.9865L13598.6719,-3365.9874L13598.6713,-3365.9881L13598.671,-3365.9887L13598.6707,-3365.9894L13598.6707,-3365.99L13598.6707,-3365.9921L13598.6707,-3365.9928L13598.6706,-3365.9935L13598.6703,-3365.994L13598.6701,-3365.9943L13598.67,-3365.9943L13598.6696,-3365.9945L13598.669,-3365.9947L13598.6675,-3365.9948L13598.6663,-3365.9949L13598.6655,-3365.9951L13598.6644,-3365.9956L13598.6635,-3365.996L13598.6626,-3365.9963L13598.6619,-3365.9964L13598.6615,-3365.9964L13598.6611,-3365.9963L13598.6607,-3365.996L13598.6603,-3365.9957L13598.6601,-3365.9953L13598.6599,-3365.9948L13598.6599,-3365.9944L13598.66,-3365.9941L13598.6602,-3365.9937L13598.6612,-3365.9928L13598.6616,-3365.9922L13598.6624,-3365.9906L13598.6632,-3365.989L13598.6634,-3365.9883L13598.6635,-3365.9876L13598.6634,-3365.9866L13598.6632,-3365.9848L13598.6633,-3365.984L13598.6633,-3365.9837L13598.6639,-3365.9823L13598.6642,-3365.9815L13598.6647,-3365.9805L13598.665,-3365.9803L13598.6652,-3365.9801L13598.6654,-3365.9801L13598.6656,-3365.9801L13598.666,-3365.9802L13598.6681,-3365.9812L13598.669,-3365.9815L13598.6696,-3365.9815L13598.6701,-3365.9815L13598.6704,-3365.9814L13598.6708,-3365.9812L13598.6715,-3365.9807L13598.6723,-3365.9802L13598.673,-3365.9795L13598.6733,-3365.9792L13598.674,-3365.9778L13598.6744,-3365.9771L13598.6747,-3365.9768L13598.6757,-3365.976L13598.6763,-3365.9755L13598.6806,-3365.9726L13598.6815,-3365.972L13598.6817,-3365.9716L13598.6818,-3365.9714L13598.6818,-3365.9711L13598.6815,-3365.9704L13598.6808,-3365.9686L13598.68,-3365.9666L13598.6796,-3365.9655L13598.6795,-3365.965L13598.6796,-3365.9646L13598.6796,-3365.9645L13598.68,-3365.9638L13598.6806,-3365.963L13598.6806,-3365.9626L13598.6806,-3365.9624L13598.6805,-3365.962L13598.6799,-3365.9612L13598.6796,-3365.9605L13598.6795,-3365.96L13598.6796,-3365.9585L13598.6796,-3365.9579L13598.6796,-3365.9572L13598.6797,-3365.9567L13598.68,-3365.9562L13598.6804,-3365.9557L13598.6806,-3365.9556L13598.6809,-3365.9555L13598.681,-3365.9554L13598.6814,-3365.9554L13598.6819,-3365.9555L13598.6822,-3365.9555L13598.6845,-3365.9562L13598.6853,-3365.9564L13598.6861,-3365.9564L13598.6866,-3365.9564L13598.687,-3365.9563L13598.6875,-3365.956L13598.6888,-3365.9551L13598.6894,-3365.9546L13598.6901,-3365.9541L13598.6902,-3365.954L13598.6907,-3365.9532L13598.6914,-3365.952L13598.692,-3365.9511L13598.6921,-3365.9508L13598.6921,-3365.9506L13598.6921,-3365.9504L13598.6919,-3365.9502L13598.6915,-3365.95L13598.691,-3365.9498L13598.6902,-3365.9496L13598.6891,-3365.9495L13598.6879,-3365.9495L13598.6865,-3365.9498L13598.6846,-3365.9504L13598.6826,-3365.9512L13598.6815,-3365.9516L13598.6803,-3365.9521L13598.678,-3365.9527L13598.6771,-3365.953L13598.6765,-3365.9533L13598.6755,-3365.9541L13598.6743,-3365.955L13598.6739,-3365.9555L13598.6733,-3365.9566L13598.6731,-3365.957L13598.6729,-3365.9571L13598.6727,-3365.9572L13598.6722,-3365.9573L13598.6712,-3365.9574L13598.6709,-3365.9576L13598.6708,-3365.9577L13598.6707,-3365.9578L13598.6705,-3365.9586L13598.6704,-3365.9588L13598.6702,-3365.9592L13598.6694,-3365.9599L13598.6692,-3365.9601L13598.6687,-3365.9608L13598.6685,-3365.9613L13598.6685,-3365.9617L13598.6685,-3365.9619L13598.6688,-3365.963L13598.6688,-3365.9634L13598.6687,-3365.9636L13598.6686,-3365.9637L13598.6684,-3365.9638L13598.6679,-3365.9639L13598.6668,-3365.9642L13598.6666,-3365.9643L13598.6665,-3365.9645L13598.6665,-3365.9647L13598.6667,-3365.9654L13598.6667,-3365.9657L13598.6666,-3365.9658L13598.6666,-3365.9659L13598.6663,-3365.966L13598.6655,-3365.9663L13598.6653,-3365.9664L13598.6652,-3365.9665L13598.6652,-3365.9667L13598.6653,-3365.967L13598.6658,-3365.968L13598.6658,-3365.9683L13598.6658,-3365.9684L13598.6658,-3365.9686L13598.6656,-3365.9688L13598.6652,-3365.9691L13598.6647,-3365.9693L13598.6639,-3365.9694L13598.6629,-3365.9695L13598.6621,-3365.9694L13598.6617,-3365.9693L13598.6611,-3365.9689L13598.6604,-3365.9686L13598.6601,-3365.9685L13598.6598,-3365.9686L13598.6594,-3365.9687L13598.658,-3365.9697L13598.6576,-3365.9698L13598.6573,-3365.9699L13598.6571,-3365.9698L13598.6568,-3365.9697L13598.6566,-3365.9696L13598.6563,-3365.9692L13598.656,-3365.9686L13598.6558,-3365.9678L13598.6558,-3365.9672L13598.656,-3365.9665L13598.6564,-3365.9656L13598.6571,-3365.9647L13598.6587,-3365.9629L13598.6597,-3365.9619L13598.6606,-3365.9606L13598.6609,-3365.96L13598.6612,-3365.9592L13598.6612,-3365.9585L13598.6611,-3365.958L13598.6608,-3365.9572L13598.6595,-3365.9552L13598.6591,-3365.9544L13598.6589,-3365.9536L13598.659,-3365.9528L13598.6592,-3365.9517L13598.6593,-3365.9516L13598.6592,-3365.9506L13598.6588,-3365.9494L13598.6585,-3365.9485L13598.6583,-3365.9476L13598.6584,-3365.9468L13598.6585,-3365.9464L13598.6588,-3365.9457L13598.6593,-3365.9451L13598.6603,-3365.9443L13598.6606,-3365.9438L13598.6608,-3365.9435L13598.6609,-3365.9431L13598.661,-3365.9427L13598.6612,-3365.9426L13598.6614,-3365.9425L13598.6616,-3365.9425L13598.6618,-3365.9426L13598.6622,-3365.9427L13598.6628,-3365.9432L13598.663,-3365.9433L13598.6636,-3365.9436L13598.6646,-3365.9439L13598.6653,-3365.9444L13598.6661,-3365.945L13598.6664,-3365.9451L13598.6669,-3365.9452L13598.6677,-3365.9452L13598.6686,-3365.9451L13598.6689,-3365.9451L13598.6691,-3365.9452L13598.6692,-3365.9452L13598.6693,-3365.9454L13598.6694,-3365.9457L13598.6695,-3365.9463L13598.6694,-3365.9469L13598.6694,-3365.947L13598.6693,-3365.9471L13598.6691,-3365.9472L13598.6687,-3365.9473L13598.6676,-3365.9475L13598.6672,-3365.9477L13598.6669,-3365.9479L13598.6667,-3365.9482L13598.6666,-3365.9484L13598.6665,-3365.9489L13598.6665,-3365.9492L13598.6666,-3365.9495L13598.6668,-3365.9497L13598.6669,-3365.9498L13598.6672,-3365.95L13598.6675,-3365.9501L13598.668,-3365.9502L13598.6686,-3365.9502L13598.669,-3365.9501L13598.6697,-3365.9499L13598.671,-3365.9492L13598.6727,-3365.9482L13598.6738,-3365.9475L13598.6746,-3365.9467L13598.6752,-3365.9458L13598.6759,-3365.9445L13598.6761,-3365.944L13598.6763,-3365.9432L13598.6762,-3365.9428L13598.6763,-3365.9421L13598.6764,-3365.9418L13598.6765,-3365.9417L13598.6768,-3365.9414L13598.6773,-3365.9409L13598.6774,-3365.9407L13598.6775,-3365.9405L13598.6774,-3365.9401L13598.6774,-3365.9394L13598.6774,-3365.9392L13598.6776,-3365.939L13598.6779,-3365.9389L13598.6787,-3365.9386L13598.6791,-3365.9384L13598.6801,-3365.938L13598.6806,-3365.9376L13598.6809,-3365.9372L13598.6814,-3365.9365L13598.6818,-3365.9356L13598.682,-3365.9349L13598.6823,-3365.9327L13598.6824,-3365.9308L13598.6823,-3365.9296L13598.682,-3365.9286L13598.6818,-3365.9279L13598.6817,-3365.9276L13598.6818,-3365.9273L13598.682,-3365.9271L13598.6826,-3365.9265L13598.6843,-3365.9254L13598.6846,-3365.9252L13598.6859,-3365.9244L13598.6865,-3365.9238L13598.6868,-3365.9234L13598.6875,-3365.9222L13598.688,-3365.9212L13598.6887,-3365.9205L13598.6896,-3365.9197L13598.6898,-3365.9194L13598.6899,-3365.9192L13598.6899,-3365.9189L13598.6896,-3365.918L13598.6895,-3365.9174L13598.6896,-3365.9166L13598.6899,-3365.9157L13598.6903,-3365.9147L13598.6907,-3365.9141L13598.6912,-3365.9134L13598.6913,-3365.9128L13598.6913,-3365.9124L13598.6911,-3365.912L13598.691,-3365.9118L13598.6907,-3365.9116L13598.6904,-3365.9114L13598.6893,-3365.911L13598.6891,-3365.9109L13598.689,-3365.9108L13598.689,-3365.9107L13598.689,-3365.9105L13598.6892,-3365.9102L13598.6899,-3365.9093L13598.69,-3365.9089L13598.69,-3365.9085L13598.6899,-3365.9081L13598.6897,-3365.9076L13598.6894,-3365.9072L13598.689,-3365.9068L13598.6885,-3365.9065L13598.6881,-3365.9063L13598.6879,-3365.9063L13598.6874,-3365.9062L13598.6867,-3365.9063L13598.6861,-3365.9064L13598.6856,-3365.9067L13598.6851,-3365.9071L13598.6846,-3365.9079L13598.684,-3365.9091L13598.6835,-3365.9107L13598.6834,-3365.9121L13598.6834,-3365.9125L13598.6835,-3365.913L13598.6837,-3365.9134L13598.6838,-3365.9136L13598.684,-3365.9137L13598.6844,-3365.9139L13598.6853,-3365.9142L13598.6855,-3365.9144L13598.6857,-3365.9147L13598.6858,-3365.9149L13598.6858,-3365.9152L13598.6857,-3365.9155L13598.6856,-3365.9157L13598.6854,-3365.9159L13598.6849,-3365.9162L13598.6832,-3365.9167L13598.6813,-3365.9172L13598.6798,-3365.9177L13598.6776,-3365.9186L13598.6768,-3365.9189L13598.6758,-3365.9192L13598.6753,-3365.9192L13598.6751,-3365.9192L13598.6751,-3365.9191L13598.6751,-3365.919L13598.6754,-3365.9184L13598.6769,-3365.9168L13598.6778,-3365.9159L13598.6785,-3365.9149L13598.6798,-3365.9122L13598.681,-3365.9102L13598.6816,-3365.9091L13598.682,-3365.9079L13598.6821,-3365.9069L13598.6821,-3365.9064L13598.682,-3365.9059L13598.6818,-3365.9055L13598.6812,-3365.9049L13598.6804,-3365.9039L13598.6803,-3365.9038L13598.679,-3365.9029L13598.6785,-3365.9025L13598.678,-3365.9018L13598.6775,-3365.9011L13598.6772,-3365.9009L13598.6765,-3365.9005L13598.6745,-3365.8998L13598.6724,-3365.8988L13598.6716,-3365.8985L13598.6714,-3365.8985L13598.6705,-3365.8984L13598.6699,-3365.8984L13598.6694,-3365.8985L13598.6678,-3365.8991L13598.6669,-3365.8993L13598.6658,-3365.8993L13598.6647,-3365.8992L13598.6638,-3365.8989L13598.6634,-3365.8987L13598.6632,-3365.8986L13598.6631,-3365.8984L13598.6631,-3365.8982L13598.6631,-3365.8975L13598.6631,-3365.8972L13598.663,-3365.8968L13598.6627,-3365.8963L13598.6623,-3365.8958L13598.6617,-3365.8955L13598.6609,-3365.8952L13598.6601,-3365.895L13598.66,-3365.895L13598.6589,-3365.8949L13598.6571,-3365.895L13598.6554,-3365.8952L13598.6543,-3365.8955L13598.6535,-3365.8958L13598.653,-3365.8962L13598.6524,-3365.8968L13598.6514,-3365.8981L13598.651,-3365.8988L13598.6509,-3365.8992L13598.6509,-3365.8999L13598.6509,-3365.9001L13598.6508,-3365.9003L13598.6506,-3365.9005L13598.6496,-3365.9011L13598.6494,-3365.9013L13598.6493,-3365.9015L13598.6493,-3365.9018L13598.6494,-3365.902L13598.6495,-3365.9025L13598.65,-3365.9031L13598.6506,-3365.9037L13598.6509,-3365.9041L13598.651,-3365.9044L13598.651,-3365.9048L13598.6509,-3365.9052L13598.6508,-3365.9056L13598.6506,-3365.9058L13598.6503,-3365.906L13598.6501,-3365.906L13598.6491,-3365.9062L13598.6484,-3365.9063L13598.6479,-3365.9065L13598.6477,-3365.9066L13598.6476,-3365.9068L13598.6476,-3365.907L13598.6478,-3365.9073L13598.648,-3365.9078L13598.6481,-3365.9082L13598.648,-3365.9084L13598.6479,-3365.9087L13598.6477,-3365.909L13598.6464,-3365.9098L13598.6452,-3365.9109L13598.6446,-3365.9113L13598.6438,-3365.9118L13598.6433,-3365.9125L13598.6428,-3365.9137L13598.6426,-3365.9145L13598.6426,-3365.9154L13598.6431,-3365.9171L13598.6434,-3365.9182L13598.6434,-3365.9184L13598.6439,-3365.9193L13598.6446,-3365.9201L13598.6452,-3365.9206L13598.6458,-3365.9212L13598.6461,-3365.9216L13598.6461,-3365.9219L13598.6461,-3365.9221L13598.646,-3365.9225L13598.6458,-3365.923L13598.6455,-3365.9234L13598.6451,-3365.9237L13598.6449,-3365.9238L13598.6447,-3365.9238L13598.6445,-3365.9238L13598.6442,-3365.9238L13598.6439,-3365.9235L13598.6436,-3365.9232L13598.6432,-3365.9226L13598.6428,-3365.9218L13598.6426,-3365.9209L13598.6423,-3365.92L13598.6418,-3365.9193L13598.6411,-3365.9186L13598.6406,-3365.9182L13598.6404,-3365.918L13598.64,-3365.9173L13598.6394,-3365.9156L13598.6392,-3365.9151L13598.6389,-3365.9147L13598.6386,-3365.9145L13598.6384,-3365.9143L13598.638,-3365.9142L13598.6371,-3365.9142L13598.6356,-3365.9141L13598.6345,-3365.9143L13598.6333,-3365.9146L13598.6321,-3365.9151L13598.6314,-3365.9155L13598.6308,-3365.916L13598.6304,-3365.9164L13598.6303,-3365.9168L13598.6302,-3365.9172L13598.6303,-3365.9176L13598.6305,-3365.918L13598.6307,-3365.9182L13598.6311,-3365.9183L13598.6316,-3365.9184L13598.633,-3365.9185L13598.6336,-3365.9185L13598.6342,-3365.9186L13598.6346,-3365.9188L13598.6348,-3365.9189L13598.6351,-3365.9192L13598.6357,-3365.9202L13598.6362,-3365.921L13598.6365,-3365.9213L13598.6366,-3365.9214L13598.6374,-3365.9218L13598.6381,-3365.9222L13598.6387,-3365.9228L13598.6394,-3365.9237L13598.6398,-3365.9244L13598.6399,-3365.9247L13598.6399,-3365.9249L13598.6398,-3365.9252L13598.6395,-3365.9256L13598.6392,-3365.9259L13598.6389,-3365.9261L13598.6385,-3365.9262L13598.6383,-3365.9262L13598.6378,-3365.9261L13598.637,-3365.9259L13598.6361,-3365.9256L13598.6354,-3365.9255L13598.635,-3365.9255L13598.6348,-3365.9256L13598.6344,-3365.9258L13598.6341,-3365.926L13598.6339,-3365.9262L13598.6335,-3365.927L13598.6333,-3365.9273L13598.6332,-3365.9273L13598.6329,-3365.9274L13598.6318,-3365.9276L13598.6312,-3365.9278L13598.6309,-3365.9279L13598.6302,-3365.9283L13598.6294,-3365.9288L13598.6292,-3365.9288L13598.6291,-3365.9288L13598.629,-3365.9286L13598.6288,-3365.9278L13598.6286,-3365.9275L13598.6284,-3365.9273L13598.6282,-3365.9272L13598.6274,-3365.9271L13598.6265,-3365.9269L13598.6262,-3365.9269L13598.6261,-3365.9269L13598.6258,-3365.9271L13598.6254,-3365.9273L13598.6252,-3365.9276L13598.6245,-3365.9286L13598.6241,-3365.9292L13598.6237,-3365.9298L13598.6236,-3365.9302L13598.6236,-3365.9305L13598.6237,-3365.9317L13598.6237,-3365.9322L13598.6236,-3365.9324L13598.6235,-3365.9326L13598.6232,-3365.9327L13598.6229,-3365.9328L13598.6224,-3365.9329L13598.6217,-3365.9329L13598.6209,-3365.9327L13598.6199,-3365.9323L13598.6191,-3365.9318L13598.6182,-3365.9311L13598.6176,-3365.9304L13598.6171,-3365.9295L13598.6167,-3365.9283L13598.6166,-3365.9269L13598.6165,-3365.9265L13598.6166,-3365.9261L13598.6167,-3365.9259L13598.6168,-3365.9258L13598.6171,-3365.9257L13598.6174,-3365.9256L13598.6183,-3365.9256L13598.6187,-3365.9256L13598.6192,-3365.9255L13598.6193,-3365.9255L13598.6194,-3365.9253L13598.6194,-3365.9252L13598.6192,-3365.9249L13598.6183,-3365.9238L13598.618,-3365.9235L13598.6177,-3365.923L13598.6177,-3365.9226L13598.6177,-3365.921L13598.6176,-3365.9207L13598.6175,-3365.9206L13598.6173,-3365.9206L13598.617,-3365.9206L13598.6158,-3365.9212L13598.615,-3365.9215L13598.6147,-3365.9215L13598.6145,-3365.9215L13598.6144,-3365.9214L13598.6142,-3365.9212L13598.6139,-3365.9203L13598.6131,-3365.9188L13598.6129,-3365.9183L13598.613,-3365.9179L13598.613,-3365.9178L13598.6132,-3365.9175L13598.6134,-3365.9173L13598.6136,-3365.9172L13598.6138,-3365.9171L13598.6141,-3365.917L13598.6145,-3365.9171L13598.6151,-3365.9172L13598.6157,-3365.9174L13598.6159,-3365.9176L13598.6169,-3365.9183L13598.6173,-3365.9186L13598.6179,-3365.919L13598.6182,-3365.9191L13598.6184,-3365.9191L13598.6186,-3365.9189L13598.6188,-3365.9187L13598.619,-3365.9179L13598.6193,-3365.9172L13598.6196,-3365.9163L13598.6202,-3365.9153L13598.6203,-3365.9149L13598.6202,-3365.9147L13598.6202,-3365.9146L13598.62,-3365.9145L13598.6196,-3365.9143L13598.6186,-3365.914L13598.6179,-3365.9138L13598.6169,-3365.9135L13598.6163,-3365.9133L13598.6154,-3365.913L13598.6148,-3365.9129L13598.6139,-3365.913L13598.6124,-3365.9132L13598.6118,-3365.9131L13598.6113,-3365.913L13598.6108,-3365.9128L13598.6104,-3365.9124L13598.6097,-3365.9116L13598.6089,-3365.9105L13598.6085,-3365.9101L13598.6069,-3365.909L13598.6062,-3365.9084L13598.6058,-3365.9079L13598.6057,-3365.9077L13598.6054,-3365.907L13598.6052,-3365.9058L13598.6051,-3365.9052L13598.6052,-3365.9048L13598.6053,-3365.9046L13598.6056,-3365.9042L13598.6065,-3365.9035L13598.6072,-3365.9029L13598.6075,-3365.9024L13598.6078,-3365.9015L13598.6079,-3365.9012L13598.6079,-3365.9L13598.6079,-3365.8998L13598.6078,-3365.8989L13598.6075,-3365.8981L13598.6074,-3365.8979L13598.6068,-3365.8969L13598.6059,-3365.8958L13598.6058,-3365.8957L13598.6056,-3365.8952L13598.6055,-3365.8946L13598.6054,-3365.8938L13598.6054,-3365.8937L13598.6051,-3365.8932L13598.6045,-3365.8925L13598.6044,-3365.8922L13598.6044,-3365.8919L13598.6046,-3365.8911L13598.6047,-3365.8908L13598.6048,-3365.8896L13598.6047,-3365.8885L13598.6042,-3365.8866L13598.6038,-3365.8854L13598.6035,-3365.8849L13598.6032,-3365.8847L13598.6031,-3365.8846L13598.6027,-3365.8844L13598.6022,-3365.8843L13598.6016,-3365.8842L13598.601,-3365.8843L13598.6005,-3365.8845L13598.6003,-3365.8846L13598.6001,-3365.8848L13598.5998,-3365.8853L13598.5993,-3365.8866L13598.5992,-3365.8869L13598.5991,-3365.8869L13598.599,-3365.8869L13598.5988,-3365.8868L13598.5985,-3365.8866L13598.5981,-3365.886L13598.5978,-3365.8854L13598.5977,-3365.8848L13598.5978,-3365.8844L13598.5979,-3365.884L13598.5982,-3365.8836L13598.5987,-3365.8833L13598.5999,-3365.8826L13598.6003,-3365.8823L13598.6005,-3365.8821L13598.6007,-3365.8817L13598.6009,-3365.8813L13598.6009,-3365.8808L13598.6008,-3365.8806L13598.6007,-3365.8804L13598.6004,-3365.8802L13598.6002,-3365.8801L13598.5994,-3365.8799L13598.5986,-3365.8798L13598.5981,-3365.8799L13598.5979,-3365.8799L13598.5977,-3365.88L13598.5974,-3365.8803L13598.5967,-3365.8813L13598.5963,-3365.8816L13598.5961,-3365.8817L13598.5959,-3365.8818L13598.5956,-3365.8818L13598.5952,-3365.8818L13598.5949,-3365.8817L13598.5948,-3365.8816L13598.5946,-3365.8814L13598.5945,-3365.8811L13598.5945,-3365.8806L13598.5945,-3365.8803L13598.5943,-3365.8793L13598.594,-3365.8785L13598.5935,-3365.8778L13598.5929,-3365.8773L13598.5905,-3365.8757L13598.5896,-3365.8751L13598.5891,-3365.8746L13598.589,-3365.8742L13598.5889,-3365.8739L13598.589,-3365.8737L13598.5892,-3365.8733L13598.5898,-3365.8727L13598.5914,-3365.8714L13598.5918,-3365.8708L13598.5922,-3365.8702L13598.5924,-3365.8697L13598.5924,-3365.8688L13598.5922,-3365.868L13598.5919,-3365.8672L13598.5917,-3365.8669L13598.5911,-3365.8662L13598.5899,-3365.8652L13598.5871,-3365.8634L13598.5868,-3365.8632L13598.5859,-3365.8625L13598.5854,-3365.8619L13598.5849,-3365.8611L13598.5846,-3365.8604L13598.5846,-3365.86L13598.5847,-3365.8596L13598.585,-3365.8593L13598.5859,-3365.8583L13598.5863,-3365.8578L13598.5877,-3365.8559L13598.5887,-3365.8544L13598.5891,-3365.8537L13598.5891,-3365.8536L13598.5892,-3365.8528L13598.5891,-3365.8517L13598.5885,-3365.8494L13598.5883,-3365.8483L13598.5883,-3365.8478L13598.5885,-3365.846L13598.5886,-3365.8443L13598.5887,-3365.8433L13598.5889,-3365.8422L13598.5892,-3365.8416L13598.5905,-3365.8397L13598.5922,-3365.8369L13598.5925,-3365.8363L13598.5938,-3365.8346L13598.5949,-3365.8333L13598.5957,-3365.8325L13598.5984,-3365.8298L13598.5998,-3365.8284L13598.6006,-3365.8274L13598.6009,-3365.8268L13598.6012,-3365.826L13598.6014,-3365.8252L13598.6013,-3365.8246L13598.6008,-3365.8228L13598.6006,-3365.8219L13598.6006,-3365.8211L13598.6008,-3365.8206L13598.6015,-3365.8193L13598.6016,-3365.8191L13598.6018,-3365.8185L13598.6018,-3365.8167L13598.6019,-3365.8159L13598.6023,-3365.8148L13598.6026,-3365.8142L13598.6038,-3365.8124L13598.6044,-3365.8116L13598.6049,-3365.8106L13598.6051,-3365.81L13598.6051,-3365.809L13598.6045,-3365.8063L13598.6044,-3365.8054L13598.6045,-3365.8046L13598.6046,-3365.8042L13598.6054,-3365.8028L13598.6058,-3365.8021L13598.6061,-3365.8011L13598.6065,-3365.7995L13598.6066,-3365.7986L13598.6074,-3365.7957L13598.6076,-3365.795L13598.6086,-3365.7924L13598.6095,-3365.7903L13598.6105,-3365.7885L13598.6113,-3365.7866L13598.6119,-3365.785L13598.6124,-3365.7833L13598.6131,-3365.782L13598.6139,-3365.7808L13598.6141,-3365.7804L13598.6147,-3365.7793L13598.6149,-3365.7786L13598.6151,-3365.7776L13598.6152,-3365.7763L13598.6155,-3365.7756L13598.6168,-3365.7735L13598.6174,-3365.7725L13598.6176,-3365.7718L13598.6177,-3365.7716L13598.6178,-3365.7697L13598.6183,-3365.7674L13598.6186,-3365.765L13598.6189,-3365.7641L13598.6192,-3365.7634L13598.6208,-3365.7612L13598.6215,-3365.7601L13598.6218,-3365.7593L13598.6221,-3365.7576L13598.6224,-3365.7563L13598.6224,-3365.7549L13598.6223,-3365.7539L13598.6224,-3365.7527L13598.6226,-3365.7518L13598.623,-3365.7507L13598.6239,-3365.7487L13598.6241,-3365.7482L13598.6245,-3365.7467L13598.6249,-3365.7443L13598.625,-3365.7437L13598.6252,-3365.7431L13598.6254,-3365.7428L13598.626,-3365.7424L13598.627,-3365.7416L13598.6274,-3365.7412L13598.6281,-3365.7403L13598.6286,-3365.7395L13598.629,-3365.7384L13598.6291,-3365.7379L13598.6291,-3365.737L13598.629,-3365.7364L13598.6289,-3365.7362L13598.6285,-3365.7356L13598.6267,-3365.7339L13598.6261,-3365.7332L13598.6258,-3365.7327L13598.6257,-3365.732L13598.6256,-3365.7317L13598.6258,-3365.7302L13598.6258,-3365.729L13598.6257,-3365.7277L13598.6258,-3365.7269L13598.6261,-3365.7259L13598.6264,-3365.7253L13598.6269,-3365.7247L13598.6277,-3365.724L13598.6287,-3365.7232L13598.629,-3365.7229L13598.6295,-3365.7221L13598.6298,-3365.7212L13598.6304,-3365.7188L13598.6309,-3365.717L13598.631,-3365.7162L13598.631,-3365.7158L13598.6307,-3365.7151L13598.6308,-3365.7148L13598.6308,-3365.7145L13598.6311,-3365.7141L13598.6315,-3365.7137L13598.632,-3365.7134L13598.6325,-3365.713L13598.6326,-3365.7128L13598.6326,-3365.7127L13598.6326,-3365.7121L13598.6326,-3365.7115L13598.6325,-3365.711L13598.6325,-3365.7108L13598.6323,-3365.7107L13598.632,-3365.7106L13598.6316,-3365.7105L13598.6298,-3365.7105L13598.6295,-3365.7105L13598.6284,-3365.7103L13598.6267,-3365.71L13598.6256,-3365.7098L13598.6251,-3365.7096L13598.6248,-3365.7094L13598.6247,-3365.7092L13598.6246,-3365.709L13598.6245,-3365.7086L13598.6247,-3365.7077L13598.6248,-3365.7071L13598.625,-3365.7064L13598.625,-3365.7062L13598.6249,-3365.7055L13598.6243,-3365.7037L13598.6241,-3365.7028L13598.624,-3365.7023L13598.6241,-3365.7017L13598.6243,-3365.7012L13598.6245,-3365.7005L13598.6245,-3365.7002L13598.6245,-3365.7L13598.6242,-3365.6997L13598.6233,-3365.6987L13598.623,-3365.6983L13598.623,-3365.6982L13598.623,-3365.6979L13598.623,-3365.6975L13598.6235,-3365.6965L13598.6237,-3365.6959L13598.6239,-3365.6953L13598.6239,-3365.6949L13598.6239,-3365.6948L13598.6238,-3365.6945L13598.6234,-3365.6941L13598.6222,-3365.6933L13598.6214,-3365.6926L13598.6208,-3365.6921L13598.6205,-3365.6916L13598.6204,-3365.6912L13598.6205,-3365.6908L13598.6205,-3365.6907L13598.6207,-3365.6903L13598.6212,-3365.6895L13598.6213,-3365.6893L13598.6213,-3365.6889L13598.6212,-3365.6879L13598.6211,-3365.6854L13598.6211,-3365.6835L13598.6212,-3365.6821L13598.6213,-3365.6812L13598.6215,-3365.6802L13598.6215,-3365.6786L13598.6216,-3365.678L13598.6223,-3365.6767L13598.6225,-3365.6762L13598.6225,-3365.6761L13598.6225,-3365.6756L13598.6221,-3365.6742L13598.6219,-3365.673L13598.6218,-3365.6709L13598.6216,-3365.6695L13598.6214,-3365.6683L13598.6213,-3365.6674L13598.6214,-3365.6667L13598.6218,-3365.6653L13598.6223,-3365.6636L13598.6228,-3365.6624L13598.6233,-3365.6616Z"/>
<path content="和歌山県,,東牟婁郡,那智勝浦町,,30421" xlink:title="和歌山県" d="M13598.6643,-3366.0873L13598.6638,-3366.0872L13598.6632,-3366.0873L13598.6625,-3366.0874L13598.6617,-3366.0878L13598.6611,-3366.0882L13598.6608,-3366.0885L13598.6602,-3366.0893L13598.6595,-3366.0904L13598.659,-3366.0908L13598.6582,-3366.0913L13598.6571,-3366.0917L13598.6569,-3366.0917L13598.6558,-3366.0919L13598.6529,-3366.0921L13598.652,-3366.0923L13598.651,-3366.0927L13598.6502,-3366.0933L13598.649,-3366.0944L13598.6487,-3366.0946L13598.6477,-3366.0956L13598.6469,-3366.0962L13598.6467,-3366.0963L13598.6455,-3366.0967L13598.6447,-3366.097L13598.6421,-3366.0975L13598.6412,-3366.0976L13598.639,-3366.0977L13598.6382,-3366.0979L13598.6379,-3366.098L13598.6371,-3366.0984L13598.6362,-3366.099L13598.6358,-3366.0994L13598.6356,-3366.0997L13598.6355,-3366.1L13598.6355,-3366.1004L13598.6356,-3366.101L13598.6361,-3366.1018L13598.6366,-3366.1024L13598.6372,-3366.1032L13598.6373,-3366.1033L13598.6375,-3366.1038L13598.6375,-3366.1044L13598.6375,-3366.1058L13598.6376,-3366.1063L13598.6378,-3366.1069L13598.6385,-3366.1076L13598.6394,-3366.1082L13598.6409,-3366.1091L13598.6432,-3366.1104L13598.6437,-3366.1107L13598.6457,-3366.1119L13598.6463,-3366.1121L13598.6474,-3366.1125L13598.6489,-3366.1128L13598.651,-3366.113L13598.6529,-3366.1131L13598.6543,-3366.1131L13598.6548,-3366.113L13598.655,-3366.1129L13598.6552,-3366.1128L13598.6554,-3366.1126L13598.6558,-3366.1118L13598.656,-3366.1111L13598.6565,-3366.1102L13598.6576,-3366.1084L13598.6577,-3366.1081L13598.6581,-3366.107L13598.6584,-3366.1067L13598.6585,-3366.1066L13598.6589,-3366.1062L13598.66,-3366.1056L13598.6603,-3366.1054L13598.6605,-3366.1051L13598.6607,-3366.1046L13598.6608,-3366.1032L13598.661,-3366.102L13598.6615,-3366.1008L13598.6616,-3366.1004L13598.662,-3366.0995L13598.6627,-3366.0986L13598.6641,-3366.0969L13598.6644,-3366.0966L13598.6648,-3366.0958L13598.6651,-3366.0949L13598.6651,-3366.0947L13598.6653,-3366.093L13598.6654,-3366.0928L13598.666,-3366.0915L13598.6664,-3366.0907L13598.6664,-3366.0904L13598.6664,-3366.0898L13598.6662,-3366.089L13598.6658,-3366.0884L13598.6654,-3366.0879L13598.6649,-3366.0875L13598.6645,-3366.0873L13598.6643,-3366.0873Z"/>
<path content="和歌山県,,東牟婁郡,那智勝浦町,,30421" xlink:title="和歌山県" d="M13598.6175,-3365.9044L13598.6182,-3365.9043L13598.6201,-3365.9045L13598.6211,-3365.9045L13598.6218,-3365.9044L13598.6233,-3365.9043L13598.624,-3365.9041L13598.6244,-3365.9039L13598.6251,-3365.9035L13598.6257,-3365.9029L13598.6266,-3365.9019L13598.6284,-3365.9L13598.6299,-3365.8982L13598.6311,-3365.8972L13598.6319,-3365.8965L13598.6327,-3365.8956L13598.6333,-3365.8948L13598.6335,-3365.8944L13598.634,-3365.8928L13598.6346,-3365.8916L13598.6351,-3365.8907L13598.6356,-3365.8897L13598.6357,-3365.8893L13598.6357,-3365.8888L13598.6356,-3365.8882L13598.6354,-3365.8879L13598.635,-3365.8873L13598.6345,-3365.8868L13598.6334,-3365.8855L13598.633,-3365.8851L13598.6326,-3365.8849L13598.6322,-3365.8849L13598.6318,-3365.8849L13598.6316,-3365.885L13598.6314,-3365.8851L13598.6312,-3365.8853L13598.6311,-3365.8857L13598.6311,-3365.8863L13598.6311,-3365.8874L13598.631,-3365.8876L13598.6309,-3365.8876L13598.6308,-3365.8876L13598.6306,-3365.8875L13598.63,-3365.8871L13598.6296,-3365.8867L13598.6284,-3365.8855L13598.628,-3365.8852L13598.6268,-3365.8846L13598.6252,-3365.8838L13598.625,-3365.8837L13598.6243,-3365.8835L13598.6236,-3365.8835L13598.6229,-3365.8836L13598.6222,-3365.8838L13598.6213,-3365.8842L13598.621,-3365.8842L13598.62,-3365.8842L13598.6195,-3365.8842L13598.6193,-3365.8843L13598.619,-3365.8844L13598.6183,-3365.885L13598.6181,-3365.8851L13598.6177,-3365.8853L13598.6169,-3365.8853L13598.6163,-3365.8854L13598.6158,-3365.8856L13598.6154,-3365.8858L13598.6151,-3365.886L13598.6147,-3365.8865L13598.6145,-3365.8868L13598.614,-3365.8872L13598.6136,-3365.8876L13598.6134,-3365.8879L13598.6133,-3365.8884L13598.6129,-3365.8896L13598.6127,-3365.8904L13598.6124,-3365.8914L13598.612,-3365.8922L13598.6119,-3365.8926L13598.6119,-3365.8928L13598.612,-3365.8931L13598.6125,-3365.8938L13598.6126,-3365.8943L13598.6126,-3365.8945L13598.6125,-3365.8947L13598.6121,-3365.8952L13598.6119,-3365.8955L13598.6119,-3365.8957L13598.6121,-3365.896L13598.6124,-3365.8966L13598.6125,-3365.897L13598.6124,-3365.8974L13598.6123,-3365.8977L13598.6121,-3365.898L13598.6111,-3365.899L13598.6109,-3365.8993L13598.6108,-3365.8996L13598.6108,-3365.8997L13598.6109,-3365.9L13598.6112,-3365.9003L13598.612,-3365.9011L13598.6121,-3365.9013L13598.6122,-3365.9016L13598.6121,-3365.9018L13598.6116,-3365.9026L13598.6115,-3365.9028L13598.6114,-3365.9031L13598.6115,-3365.9033L13598.6118,-3365.9036L13598.6124,-3365.9041L13598.6136,-3365.905L13598.6139,-3365.9052L13598.6141,-3365.9053L13598.6144,-3365.9053L13598.615,-3365.9052L13598.6163,-3365.9048L13598.6172,-3365.9044L13598.6175,-3365.9044Z"/>
<path content="和歌山県,,東牟婁郡,那智勝浦町,,30421" xlink:title="和歌山県" d="M13598.7049,-3365.9401L13598.7076,-3365.9401L13598.7096,-3365.9401L13598.7103,-3365.94L13598.7107,-3365.9399L13598.711,-3365.9398L13598.7111,-3365.9396L13598.7112,-3365.9394L13598.7112,-3365.9386L13598.7113,-3365.9382L13598.7117,-3365.9377L13598.7119,-3365.9375L13598.7133,-3365.9363L13598.7144,-3365.9355L13598.7168,-3365.9342L13598.7178,-3365.9335L13598.7183,-3365.9331L13598.7184,-3365.9329L13598.7186,-3365.9324L13598.7187,-3365.9318L13598.7187,-3365.9301L13598.7188,-3365.9282L13598.7187,-3365.9277L13598.7185,-3365.9273L13598.7182,-3365.9269L13598.7176,-3365.9266L13598.7171,-3365.9263L13598.716,-3365.926L13598.715,-3365.9256L13598.7144,-3365.9252L13598.7129,-3365.9238L13598.7122,-3365.9233L13598.7115,-3365.923L13598.7106,-3365.9227L13598.7097,-3365.9226L13598.7083,-3365.9223L13598.708,-3365.9223L13598.7073,-3365.9219L13598.7069,-3365.9217L13598.706,-3365.9211L13598.7056,-3365.921L13598.7047,-3365.9208L13598.7042,-3365.9207L13598.7032,-3365.9201L13598.7028,-3365.9199L13598.7009,-3365.9188L13598.7004,-3365.9185L13598.7001,-3365.9182L13598.6998,-3365.918L13598.6997,-3365.918L13598.6994,-3365.918L13598.6991,-3365.9181L13598.6987,-3365.9184L13598.6983,-3365.9187L13598.6975,-3365.9197L13598.6974,-3365.9198L13598.6964,-3365.9205L13598.6962,-3365.9207L13598.696,-3365.921L13598.696,-3365.9217L13598.6959,-3365.9223L13598.6958,-3365.9228L13598.6956,-3365.9232L13598.6949,-3365.9241L13598.6949,-3365.9244L13598.6948,-3365.9246L13598.6949,-3365.9249L13598.6953,-3365.9259L13598.6953,-3365.9261L13598.6953,-3365.9264L13598.6951,-3365.9266L13598.6945,-3365.9271L13598.6941,-3365.9274L13598.6939,-3365.9277L13598.6939,-3365.9281L13598.6941,-3365.9288L13598.6948,-3365.9309L13598.695,-3365.9325L13598.6955,-3365.9334L13598.6959,-3365.9341L13598.6966,-3365.9349L13598.6973,-3365.9354L13598.6989,-3365.9363L13598.6992,-3365.9365L13598.6995,-3365.937L13598.7002,-3365.9381L13598.7008,-3365.9387L13598.7014,-3365.9391L13598.7025,-3365.9396L13598.7035,-3365.9399L13598.7039,-3365.94L13598.7049,-3365.9401Z"/>
<path content="和歌山県,,東牟婁郡,那智勝浦町,,30421" xlink:title="和歌山県" d="M13598.7285,-3365.9654L13598.7288,-3365.9652L13598.729,-3365.9649L13598.7291,-3365.9646L13598.7291,-3365.9642L13598.729,-3365.9637L13598.7286,-3365.963L13598.7283,-3365.9626L13598.7276,-3365.962L13598.727,-3365.9617L13598.7261,-3365.9614L13598.725,-3365.9613L13598.7246,-3365.9612L13598.7233,-3365.9611L13598.723,-3365.9611L13598.7227,-3365.9609L13598.7225,-3365.9607L13598.7225,-3365.9603L13598.7225,-3365.9599L13598.7224,-3365.9596L13598.7218,-3365.9587L13598.7217,-3365.9584L13598.7216,-3365.9578L13598.7218,-3365.957L13598.7226,-3365.9555L13598.7228,-3365.9548L13598.7228,-3365.9544L13598.7227,-3365.954L13598.7226,-3365.9538L13598.7223,-3365.9535L13598.7219,-3365.9532L13598.7216,-3365.9531L13598.7209,-3365.9529L13598.72,-3365.9529L13598.7192,-3365.9529L13598.7154,-3365.953L13598.7135,-3365.9529L13598.7129,-3365.9529L13598.7126,-3365.9531L13598.7119,-3365.9535L13598.7108,-3365.9541L13598.7099,-3365.9544L13598.7085,-3365.9548L13598.7081,-3365.955L13598.7079,-3365.9552L13598.7074,-3365.9557L13598.7071,-3365.9561L13598.7069,-3365.9562L13598.7064,-3365.9564L13598.7053,-3365.9568L13598.7051,-3365.9569L13598.7049,-3365.9571L13598.7047,-3365.9575L13598.7046,-3365.9583L13598.7046,-3365.9585L13598.7046,-3365.9598L13598.7049,-3365.9614L13598.7053,-3365.9639L13598.7056,-3365.9647L13598.706,-3365.9653L13598.7065,-3365.9659L13598.7072,-3365.9663L13598.7073,-3365.9663L13598.7082,-3365.9666L13598.7093,-3365.9668L13598.7105,-3365.9667L13598.7114,-3365.9665L13598.7126,-3365.966L13598.7135,-3365.9656L13598.7141,-3365.9654L13598.7143,-3365.9654L13598.7145,-3365.9654L13598.7147,-3365.9655L13598.715,-3365.9658L13598.7155,-3365.9665L13598.7162,-3365.9674L13598.7171,-3365.9681L13598.718,-3365.9685L13598.7188,-3365.9687L13598.7199,-3365.9689L13598.721,-3365.9688L13598.7214,-3365.9688L13598.7226,-3365.9684L13598.7241,-3365.9678L13598.7252,-3365.9672L13598.7273,-3365.966L13598.7285,-3365.9654Z"/>
<path content="和歌山県,,東牟婁郡,那智勝浦町,,30421" xlink:title="和歌山県" d="M13598.8717,-3365.845L13598.865,-3365.8441L13598.8626,-3365.8459L13598.8604,-3365.8475L13598.8556,-3365.8558L13598.8562,-3365.86L13598.8595,-3365.8635L13598.8633,-3365.8635L13598.8667,-3365.8613L13598.8703,-3365.8563L13598.8727,-3365.8528L13598.8743,-3365.8508L13598.8738,-3365.847L13598.8717,-3365.845Z"/>
<path content="和歌山県,,東牟婁郡,那智勝浦町,,30421" xlink:title="和歌山県" d="M13598.8477,-3365.8286L13598.8423,-3365.8281L13598.8398,-3365.8299L13598.839,-3365.8307L13598.8392,-3365.8333L13598.8396,-3365.8383L13598.8426,-3365.8417L13598.8483,-3365.8433L13598.8525,-3365.8418L13598.855,-3365.8407L13598.8579,-3365.8374L13598.8566,-3365.8333L13598.8564,-3365.8325L13598.8526,-3365.8293L13598.8477,-3365.8286Z"/>
<path content="和歌山県,,東牟婁郡,那智勝浦町,,30421" xlink:title="和歌山県" d="M13598.6649,-3365.7637L13598.6604,-3365.7635L13598.652,-3365.7659L13598.6491,-3365.7684L13598.6504,-3365.7719L13598.6536,-3365.7735L13598.6607,-3365.7773L13598.6663,-3365.7789L13598.6692,-3365.7776L13598.6695,-3365.7754L13598.6675,-3365.7662L13598.6649,-3365.7637Z"/>
<path content="和歌山県,,東牟婁郡,那智勝浦町,,30421" xlink:title="和歌山県" d="M13598.798,-3365.8692L13598.7986,-3365.8692L13598.7996,-3365.8693L13598.8011,-3365.8694L13598.8018,-3365.8694L13598.8022,-3365.8692L13598.8023,-3365.8692L13598.8027,-3365.8689L13598.8029,-3365.8684L13598.8031,-3365.8679L13598.8032,-3365.8678L13598.8031,-3365.8673L13598.803,-3365.8666L13598.8027,-3365.8656L13598.8025,-3365.8642L13598.8023,-3365.8638L13598.8021,-3365.8635L13598.8017,-3365.8632L13598.8012,-3365.8629L13598.8004,-3365.8627L13598.7996,-3365.8625L13598.7977,-3365.8621L13598.7969,-3365.8619L13598.7967,-3365.8618L13598.7963,-3365.8615L13598.7957,-3365.8609L13598.7949,-3365.8599L13598.7944,-3365.8595L13598.7939,-3365.8592L13598.7934,-3365.859L13598.7926,-3365.8589L13598.7919,-3365.8589L13598.7884,-3365.8588L13598.7879,-3365.8587L13598.7867,-3365.8586L13598.7862,-3365.8586L13598.7857,-3365.8587L13598.7852,-3365.8589L13598.7848,-3365.8593L13598.7844,-3365.8598L13598.7843,-3365.86L13598.784,-3365.8605L13598.7839,-3365.8613L13598.7837,-3365.8622L13598.7835,-3365.8627L13598.7831,-3365.8634L13598.7819,-3365.865L13598.7818,-3365.8654L13598.7817,-3365.8656L13598.7819,-3365.8658L13598.7822,-3365.866L13598.7828,-3365.8661L13598.7841,-3365.8662L13598.786,-3365.8663L13598.7866,-3365.8664L13598.7873,-3365.8665L13598.7881,-3365.8668L13598.7889,-3365.8671L13598.7908,-3365.8683L13598.792,-3365.8688L13598.793,-3365.8692L13598.7939,-3365.8694L13598.7949,-3365.8695L13598.7957,-3365.8695L13598.7965,-3365.8695L13598.798,-3365.8692Z"/>
<path content="和歌山県,,東牟婁郡,那智勝浦町,,30421" xlink:title="和歌山県" d="M13598.6721,-3365.8283L13598.6725,-3365.8283L13598.6733,-3365.8283L13598.6739,-3365.8282L13598.675,-3365.8277L13598.6768,-3365.8273L13598.6774,-3365.8271L13598.6778,-3365.8269L13598.6779,-3365.8266L13598.678,-3365.8262L13598.678,-3365.8258L13598.678,-3365.8249L13598.6781,-3365.8245L13598.6782,-3365.8242L13598.6785,-3365.824L13598.6792,-3365.8236L13598.6805,-3365.823L13598.6808,-3365.8228L13598.681,-3365.8226L13598.6811,-3365.8224L13598.6812,-3365.8221L13598.6811,-3365.8212L13598.6812,-3365.8206L13598.6815,-3365.8194L13598.6816,-3365.8191L13598.6815,-3365.8187L13598.6814,-3365.8185L13598.6813,-3365.8183L13598.6811,-3365.8181L13598.6806,-3365.8179L13598.68,-3365.8178L13598.6789,-3365.8177L13598.6785,-3365.8176L13598.6783,-3365.8174L13598.6782,-3365.8173L13598.6783,-3365.8169L13598.6786,-3365.8161L13598.6786,-3365.8157L13598.6786,-3365.8153L13598.6785,-3365.815L13598.6783,-3365.8148L13598.678,-3365.8146L13598.6776,-3365.8144L13598.6765,-3365.8143L13598.6762,-3365.8143L13598.6755,-3365.8143L13598.6752,-3365.8144L13598.6751,-3365.8145L13598.6749,-3365.8147L13598.6745,-3365.8151L13598.6742,-3365.8153L13598.6738,-3365.8154L13598.6729,-3365.8154L13598.6724,-3365.8154L13598.6715,-3365.8155L13598.6708,-3365.8156L13598.6704,-3365.8158L13598.6701,-3365.8161L13598.6699,-3365.8164L13598.6696,-3365.8173L13598.6695,-3365.8182L13598.6695,-3365.8185L13598.6696,-3365.8188L13598.6698,-3365.8188L13598.6701,-3365.8189L13598.6711,-3365.8188L13598.6717,-3365.8188L13598.672,-3365.8188L13598.6723,-3365.819L13598.6726,-3365.8191L13598.6727,-3365.8193L13598.6729,-3365.8199L13598.6731,-3365.8203L13598.6731,-3365.8204L13598.6736,-3365.8208L13598.674,-3365.8211L13598.6742,-3365.8214L13598.6744,-3365.8222L13598.6745,-3365.8223L13598.6749,-3365.8228L13598.6749,-3365.823L13598.6749,-3365.8231L13598.6746,-3365.8232L13598.6741,-3365.8234L13598.6737,-3365.8234L13598.6725,-3365.8235L13598.6717,-3365.8234L13598.6693,-3365.8234L13598.6678,-3365.8233L13598.6663,-3365.8231L13598.6631,-3365.8224L13598.6622,-3365.8223L13598.6616,-3365.8223L13598.6613,-3365.8224L13598.661,-3365.8226L13598.6609,-3365.8228L13598.6607,-3365.8231L13598.6607,-3365.8236L13598.6608,-3365.8244L13598.6608,-3365.8246L13598.6611,-3365.8251L13598.6614,-3365.8254L13598.6616,-3365.8256L13598.6619,-3365.8257L13598.6625,-3365.8257L13598.6635,-3365.8257L13598.6639,-3365.8257L13598.6643,-3365.8259L13598.6651,-3365.8263L13598.6664,-3365.8273L13598.6673,-3365.8279L13598.6682,-3365.8285L13598.6687,-3365.8287L13598.6693,-3365.8288L13598.6701,-3365.8288L13598.6702,-3365.8287L13598.6721,-3365.8283Z"/>
<path content="和歌山県,,東牟婁郡,那智勝浦町,,30421" xlink:title="和歌山県" d="M13598.7342,-3366.0014L13598.734,-3366.0011L13598.7338,-3366.0008L13598.7335,-3366.0007L13598.7332,-3366.0005L13598.7329,-3366.0005L13598.7325,-3366.0005L13598.7321,-3366.0006L13598.7313,-3366.0009L13598.7304,-3366.0014L13598.7303,-3366.0014L13598.7302,-3366.0014L13598.7302,-3366.0011L13598.7307,-3366.0001L13598.7309,-3365.9992L13598.731,-3365.9985L13598.7312,-3365.9975L13598.7312,-3365.9972L13598.7311,-3365.997L13598.731,-3365.9968L13598.7308,-3365.9967L13598.73,-3365.9965L13598.7298,-3365.9963L13598.7295,-3365.9961L13598.7291,-3365.9952L13598.729,-3365.9951L13598.7288,-3365.9949L13598.7282,-3365.9947L13598.7278,-3365.9946L13598.7263,-3365.9941L13598.7259,-3365.994L13598.7249,-3365.9941L13598.7233,-3365.9943L13598.7229,-3365.9943L13598.7214,-3365.9941L13598.7209,-3365.9941L13598.7206,-3365.9941L13598.7204,-3365.9942L13598.7202,-3365.9944L13598.72,-3365.9949L13598.7198,-3365.9954L13598.7196,-3365.9962L13598.7196,-3365.9965L13598.7197,-3365.9968L13598.7199,-3365.997L13598.7206,-3365.9974L13598.7221,-3365.998L13598.7228,-3365.9985L13598.7238,-3365.9994L13598.7242,-3365.9997L13598.7251,-3366L13598.7256,-3366.0001L13598.7258,-3366.0003L13598.7261,-3366.0005L13598.7263,-3366.0008L13598.7264,-3366.0011L13598.7265,-3366.0016L13598.7263,-3366.0023L13598.7258,-3366.0039L13598.7258,-3366.0045L13598.726,-3366.0052L13598.7263,-3366.0057L13598.7267,-3366.0062L13598.7271,-3366.0065L13598.7275,-3366.0067L13598.7276,-3366.0067L13598.7281,-3366.0068L13598.7285,-3366.0067L13598.7293,-3366.0064L13598.7299,-3366.0062L13598.7315,-3366.0053L13598.7325,-3366.0045L13598.7333,-3366.0036L13598.7337,-3366.0029L13598.7341,-3366.0022L13598.7342,-3366.0018L13598.7342,-3366.0014Z"/>
<path content="和歌山県,,東牟婁郡,那智勝浦町,,30421" xlink:title="和歌山県" d="M13598.7651,-3365.9833L13598.7649,-3365.9832L13598.7644,-3365.9832L13598.7641,-3365.9833L13598.7624,-3365.9836L13598.762,-3365.9838L13598.7618,-3365.9839L13598.7611,-3365.9845L13598.7607,-3365.9848L13598.7606,-3365.9848L13598.7599,-3365.985L13598.7588,-3365.9853L13598.7586,-3365.9854L13598.7584,-3365.9855L13598.7583,-3365.9857L13598.7583,-3365.9863L13598.7583,-3365.9866L13598.7582,-3365.9868L13598.758,-3365.987L13598.7573,-3365.9874L13598.7566,-3365.9877L13598.7564,-3365.988L13598.7563,-3365.9882L13598.7563,-3365.9883L13598.7563,-3365.9883L13598.7566,-3365.9886L13598.757,-3365.9889L13598.7573,-3365.9892L13598.7576,-3365.9896L13598.7578,-3365.9899L13598.7578,-3365.9901L13598.7577,-3365.9903L13598.7573,-3365.9907L13598.7565,-3365.9913L13598.7562,-3365.9916L13598.7561,-3365.9919L13598.7561,-3365.9921L13598.7561,-3365.9922L13598.7562,-3365.9924L13598.7564,-3365.9926L13598.7569,-3365.9927L13598.7576,-3365.9929L13598.7581,-3365.9929L13598.76,-3365.9929L13598.7618,-3365.9932L13598.7623,-3365.9931L13598.7625,-3365.9931L13598.7628,-3365.9929L13598.7631,-3365.9926L13598.7635,-3365.992L13598.7638,-3365.9914L13598.7648,-3365.9894L13598.7653,-3365.9879L13598.7661,-3365.9865L13598.7663,-3365.9857L13598.7664,-3365.9852L13598.7662,-3365.9846L13598.7661,-3365.9844L13598.7656,-3365.9837L13598.7653,-3365.9834L13598.7651,-3365.9833Z"/>
<path content="和歌山県,,東牟婁郡,那智勝浦町,,30421" xlink:title="和歌山県" d="M13598.6983,-3365.9746L13598.6989,-3365.9744L13598.6991,-3365.9744L13598.6996,-3365.9741L13598.7001,-3365.9737L13598.7004,-3365.9732L13598.7005,-3365.9729L13598.7006,-3365.9724L13598.7005,-3365.9717L13598.7002,-3365.9711L13598.6993,-3365.9695L13598.6987,-3365.9682L13598.6983,-3365.9677L13598.6978,-3365.9674L13598.697,-3365.9671L13598.6962,-3365.9669L13598.6948,-3365.9663L13598.6943,-3365.9662L13598.6942,-3365.9662L13598.6939,-3365.9663L13598.6936,-3365.9664L13598.6931,-3365.9668L13598.6925,-3365.9676L13598.692,-3365.9684L13598.6911,-3365.9695L13598.6909,-3365.97L13598.6906,-3365.971L13598.6901,-3365.9723L13598.6901,-3365.9727L13598.6901,-3365.973L13598.6903,-3365.9733L13598.6906,-3365.9736L13598.6911,-3365.974L13598.6913,-3365.9741L13598.692,-3365.9744L13598.6928,-3365.9745L13598.6936,-3365.9746L13598.6953,-3365.9745L13598.6974,-3365.9746L13598.6983,-3365.9746Z"/>
<path content="和歌山県,,東牟婁郡,那智勝浦町,,30421" xlink:title="和歌山県" d="M13598.6158,-3365.8664L13598.6154,-3365.8661L13598.6151,-3365.866L13598.6147,-3365.866L13598.614,-3365.8662L13598.6135,-3365.8662L13598.6127,-3365.8661L13598.6119,-3365.8659L13598.611,-3365.8657L13598.6105,-3365.8657L13598.6098,-3365.8657L13598.6095,-3365.8658L13598.6092,-3365.8659L13598.6091,-3365.866L13598.6091,-3365.8661L13598.6091,-3365.8663L13598.6091,-3365.8665L13598.6094,-3365.8669L13598.6099,-3365.8672L13598.6104,-3365.8675L13598.6108,-3365.8677L13598.6114,-3365.8678L13598.6126,-3365.8679L13598.6129,-3365.868L13598.6133,-3365.8683L13598.6138,-3365.8688L13598.6143,-3365.8693L13598.6149,-3365.8702L13598.6151,-3365.8706L13598.6153,-3365.8713L13598.6154,-3365.8715L13598.6156,-3365.8717L13598.6164,-3365.8719L13598.6171,-3365.8721L13598.6175,-3365.8723L13598.618,-3365.8728L13598.6184,-3365.8732L13598.6191,-3365.8736L13598.6199,-3365.874L13598.6217,-3365.8746L13598.6225,-3365.8749L13598.623,-3365.8753L13598.6231,-3365.8755L13598.6239,-3365.8763L13598.6241,-3365.8765L13598.6243,-3365.8766L13598.6246,-3365.8767L13598.6248,-3365.8767L13598.6251,-3365.8765L13598.6254,-3365.8763L13598.6255,-3365.8761L13598.6256,-3365.8759L13598.6256,-3365.8756L13598.6255,-3365.8752L13598.6253,-3365.8748L13598.6248,-3365.8742L13598.6239,-3365.8733L13598.6236,-3365.873L13598.6228,-3365.8723L13598.6214,-3365.871L13598.6205,-3365.8698L13598.6203,-3365.8697L13598.6196,-3365.8692L13598.619,-3365.8688L13598.6177,-3365.868L13598.6166,-3365.8671L13598.6158,-3365.8664Z"/>
<path content="和歌山県,,東牟婁郡,那智勝浦町,,30421" xlink:title="和歌山県" d="M13598.6594,-3365.813L13598.6601,-3365.8129L13598.6609,-3365.8129L13598.6621,-3365.8129L13598.6625,-3365.8129L13598.6628,-3365.8128L13598.6631,-3365.8127L13598.6633,-3365.8124L13598.6634,-3365.8122L13598.6634,-3365.8119L13598.6634,-3365.8115L13598.6632,-3365.8112L13598.6629,-3365.8108L13598.6624,-3365.8104L13598.6618,-3365.8101L13598.6606,-3365.8098L13598.6603,-3365.8097L13598.6584,-3365.8094L13598.657,-3365.8093L13598.6561,-3365.8093L13598.6555,-3365.8095L13598.6551,-3365.8097L13598.6548,-3365.81L13598.6547,-3365.8103L13598.6547,-3365.8104L13598.6546,-3365.8114L13598.6545,-3365.8116L13598.6544,-3365.8117L13598.6542,-3365.8118L13598.654,-3365.8118L13598.6535,-3365.8117L13598.6525,-3365.8114L13598.6513,-3365.8108L13598.6507,-3365.8105L13598.6504,-3365.8105L13598.6501,-3365.8105L13598.65,-3365.8106L13598.6497,-3365.8109L13598.6496,-3365.8111L13598.6496,-3365.8113L13598.6497,-3365.8116L13598.6501,-3365.8121L13598.6505,-3365.8126L13598.6513,-3365.8133L13598.6519,-3365.8137L13598.6526,-3365.814L13598.6533,-3365.8142L13598.6542,-3365.8143L13598.6549,-3365.8144L13598.6569,-3365.8147L13598.6576,-3365.8146L13598.6579,-3365.8146L13598.658,-3365.8145L13598.6581,-3365.8144L13598.6582,-3365.814L13598.6583,-3365.8137L13598.6584,-3365.8135L13598.6586,-3365.8133L13598.6589,-3365.8131L13598.6594,-3365.813Z"/>
<path content="和歌山県,,東牟婁郡,那智勝浦町,,30421" xlink:title="和歌山県" d="M13598.6423,-3365.8916L13598.6428,-3365.8916L13598.6431,-3365.8916L13598.6436,-3365.8915L13598.644,-3365.8914L13598.6444,-3365.8911L13598.6447,-3365.8908L13598.645,-3365.8904L13598.6451,-3365.89L13598.6451,-3365.8896L13598.6449,-3365.8891L13598.6447,-3365.8885L13598.6443,-3365.8881L13598.644,-3365.8879L13598.6435,-3365.8876L13598.6427,-3365.8873L13598.6418,-3365.8871L13598.6408,-3365.8871L13598.64,-3365.8872L13598.6395,-3365.8874L13598.6387,-3365.8878L13598.6379,-3365.8884L13598.6372,-3365.8891L13598.6365,-3365.89L13598.6362,-3365.8907L13598.6359,-3365.8915L13598.6357,-3365.8921L13598.6356,-3365.8932L13598.6357,-3365.8936L13598.6358,-3365.8939L13598.6359,-3365.894L13598.636,-3365.8941L13598.6362,-3365.8941L13598.6366,-3365.894L13598.6377,-3365.8934L13598.6389,-3365.8928L13598.6397,-3365.8924L13598.6413,-3365.8918L13598.6423,-3365.8916Z"/>
<path content="和歌山県,,東牟婁郡,那智勝浦町,,30421" xlink:title="和歌山県" d="M13598.6393,-3365.8973L13598.6397,-3365.8973L13598.6399,-3365.8973L13598.6401,-3365.8975L13598.6406,-3365.8982L13598.6408,-3365.8985L13598.641,-3365.8987L13598.6413,-3365.8988L13598.6416,-3365.8988L13598.642,-3365.8987L13598.6421,-3365.8987L13598.6422,-3365.8986L13598.6424,-3365.8984L13598.6427,-3365.8977L13598.6429,-3365.8973L13598.643,-3365.8972L13598.6432,-3365.897L13598.6438,-3365.8967L13598.6445,-3365.8964L13598.6448,-3365.8963L13598.6449,-3365.8961L13598.6451,-3365.8958L13598.6451,-3365.8955L13598.6451,-3365.8953L13598.6449,-3365.8951L13598.6447,-3365.895L13598.6442,-3365.8948L13598.6432,-3365.8947L13598.6421,-3365.8948L13598.6405,-3365.8951L13598.6385,-3365.8957L13598.6367,-3365.8962L13598.6355,-3365.8967L13598.6352,-3365.8968L13598.6347,-3365.8972L13598.6342,-3365.8977L13598.6338,-3365.8983L13598.6336,-3365.899L13598.6335,-3365.8998L13598.6336,-3365.9005L13598.6337,-3365.9006L13598.6339,-3365.9012L13598.6342,-3365.9015L13598.6346,-3365.9018L13598.635,-3365.902L13598.6353,-3365.902L13598.6358,-3365.902L13598.6364,-3365.9018L13598.6368,-3365.9016L13598.6373,-3365.9013L13598.6375,-3365.901L13598.6376,-3365.9008L13598.6377,-3365.9005L13598.6377,-3365.8998L13598.6376,-3365.8992L13598.6377,-3365.8987L13598.6379,-3365.8983L13598.6382,-3365.8979L13598.6386,-3365.8976L13598.639,-3365.8974L13598.6393,-3365.8973Z"/>
<path content="和歌山県,,東牟婁郡,那智勝浦町,,30421" xlink:title="和歌山県" d="M13598.6248,-3365.8352L13598.6249,-3365.8351L13598.6251,-3365.8349L13598.6253,-3365.8348L13598.6264,-3365.8348L13598.6273,-3365.8348L13598.6277,-3365.8347L13598.628,-3365.8346L13598.6281,-3365.8345L13598.6282,-3365.8342L13598.6281,-3365.834L13598.6279,-3365.8334L13598.6279,-3365.8333L13598.6277,-3365.833L13598.6274,-3365.8324L13598.6272,-3365.8322L13598.6269,-3365.832L13598.6264,-3365.8319L13598.6258,-3365.8319L13598.6242,-3365.832L13598.6222,-3365.8322L13598.6208,-3365.8321L13598.6204,-3365.8321L13598.619,-3365.8319L13598.6182,-3365.8319L13598.6177,-3365.8321L13598.6173,-3365.8324L13598.617,-3365.8327L13598.6168,-3365.8331L13598.6168,-3365.8333L13598.6167,-3365.8335L13598.6167,-3365.8339L13598.6168,-3365.8344L13598.6169,-3365.8347L13598.6172,-3365.835L13598.6176,-3365.8353L13598.6178,-3365.8354L13598.6183,-3365.8355L13598.619,-3365.8355L13598.6198,-3365.8353L13598.6209,-3365.8351L13598.6214,-3365.8351L13598.6217,-3365.8351L13598.6218,-3365.8352L13598.6219,-3365.8353L13598.6224,-3365.8361L13598.6225,-3365.8363L13598.6229,-3365.8365L13598.6233,-3365.8366L13598.6236,-3365.8367L13598.624,-3365.8367L13598.6244,-3365.8367L13598.6247,-3365.8366L13598.6248,-3365.8364L13598.6249,-3365.8362L13598.6248,-3365.8357L13598.6248,-3365.8353L13598.6248,-3365.8352Z"/>
<path content="和歌山県,,東牟婁郡,那智勝浦町,,30421" xlink:title="和歌山県" d="M13598.721,-3366.0414L13598.7217,-3366.0413L13598.7229,-3366.0414L13598.7232,-3366.0413L13598.7234,-3366.0412L13598.7236,-3366.0411L13598.7239,-3366.0408L13598.724,-3366.0405L13598.724,-3366.0402L13598.724,-3366.0401L13598.7239,-3366.0399L13598.7237,-3366.0398L13598.7233,-3366.0396L13598.7226,-3366.0394L13598.7223,-3366.0393L13598.7222,-3366.0392L13598.7222,-3366.0391L13598.7221,-3366.0388L13598.7222,-3366.0381L13598.7224,-3366.0368L13598.7224,-3366.0362L13598.7223,-3366.0359L13598.7221,-3366.0357L13598.7219,-3366.0356L13598.7215,-3366.0355L13598.7211,-3366.0355L13598.7204,-3366.0356L13598.7194,-3366.036L13598.7183,-3366.0367L13598.7175,-3366.0373L13598.717,-3366.0379L13598.7167,-3366.0383L13598.7165,-3366.0388L13598.7165,-3366.039L13598.7166,-3366.0395L13598.7169,-3366.0403L13598.7173,-3366.041L13598.7177,-3366.0423L13598.7179,-3366.0425L13598.718,-3366.0426L13598.7181,-3366.0426L13598.7183,-3366.0426L13598.7187,-3366.0425L13598.7199,-3366.0418L13598.7206,-3366.0415L13598.721,-3366.0414Z"/>
<path content="和歌山県,,東牟婁郡,那智勝浦町,,30421" xlink:title="和歌山県" d="M13598.7549,-3365.886L13598.7547,-3365.8859L13598.7538,-3365.8859L13598.753,-3365.8861L13598.7525,-3365.8862L13598.7522,-3365.8865L13598.7521,-3365.8866L13598.752,-3365.8868L13598.7521,-3365.8871L13598.7524,-3365.8875L13598.7529,-3365.8879L13598.7536,-3365.8883L13598.7542,-3365.8886L13598.7548,-3365.8887L13598.7556,-3365.8888L13598.7561,-3365.8889L13598.7562,-3365.8889L13598.7566,-3365.8891L13598.7572,-3365.8896L13598.758,-3365.8904L13598.7584,-3365.8906L13598.7587,-3365.8906L13598.7588,-3365.8906L13598.7592,-3365.8905L13598.7594,-3365.8904L13598.7597,-3365.8901L13598.7598,-3365.8897L13598.7599,-3365.8892L13598.7599,-3365.8886L13598.7601,-3365.8876L13598.76,-3365.8872L13598.76,-3365.8871L13598.7598,-3365.8869L13598.7594,-3365.8868L13598.7587,-3365.8866L13598.758,-3365.8865L13598.7568,-3365.8863L13598.7558,-3365.8861L13598.7549,-3365.886Z"/>
<path content="和歌山県,,東牟婁郡,那智勝浦町,,30421" xlink:title="和歌山県" d="M13598.6249,-3365.8095L13598.6239,-3365.8093L13598.6234,-3365.8093L13598.6232,-3365.8093L13598.6229,-3365.8095L13598.6226,-3365.8096L13598.6225,-3365.8098L13598.6225,-3365.8099L13598.6225,-3365.8102L13598.6226,-3365.8105L13598.6229,-3365.811L13598.6235,-3365.8115L13598.6246,-3365.8124L13598.6254,-3365.8135L13598.6258,-3365.8138L13598.6259,-3365.8139L13598.6264,-3365.8141L13598.6269,-3365.8142L13598.6272,-3365.8142L13598.6274,-3365.8142L13598.6278,-3365.814L13598.6281,-3365.8138L13598.6284,-3365.8133L13598.6287,-3365.8125L13598.629,-3365.8115L13598.629,-3365.8109L13598.6289,-3365.8106L13598.6287,-3365.8103L13598.6286,-3365.8102L13598.6285,-3365.8101L13598.6281,-3365.8099L13598.6269,-3365.8098L13598.6253,-3365.8096L13598.6249,-3365.8095Z"/>
<path content="和歌山県,,東牟婁郡,那智勝浦町,,30421" xlink:title="和歌山県" d="M13598.6261,-3365.839L13598.6255,-3365.839L13598.6245,-3365.8391L13598.6233,-3365.8395L13598.6223,-3365.8399L13598.6217,-3365.8404L13598.6214,-3365.8407L13598.6212,-3365.8411L13598.6211,-3365.8416L13598.621,-3365.8418L13598.6211,-3365.8424L13598.6212,-3365.8428L13598.6213,-3365.8429L13598.6216,-3365.8431L13598.6218,-3365.8432L13598.6224,-3365.8432L13598.6242,-3365.8429L13598.6252,-3365.8429L13598.6255,-3365.8428L13598.6256,-3365.8427L13598.6258,-3365.8425L13598.6259,-3365.8417L13598.6261,-3365.8408L13598.6265,-3365.8399L13598.6266,-3365.8395L13598.6266,-3365.8394L13598.6265,-3365.8393L13598.6264,-3365.8392L13598.6261,-3365.839Z"/>
<path content="和歌山県,,東牟婁郡,那智勝浦町,,30421" xlink:title="和歌山県" d="M13598.615,-3365.8402L13598.6153,-3365.8401L13598.6159,-3365.8401L13598.6161,-3365.8401L13598.6164,-3365.84L13598.6167,-3365.8399L13598.6169,-3365.8397L13598.617,-3365.8396L13598.6171,-3365.8393L13598.6171,-3365.8391L13598.617,-3365.8387L13598.6165,-3365.838L13598.6156,-3365.837L13598.6149,-3365.8365L13598.6146,-3365.8363L13598.6143,-3365.8363L13598.614,-3365.8363L13598.6138,-3365.8364L13598.6135,-3365.8368L13598.6128,-3365.8378L13598.6121,-3365.8389L13598.6119,-3365.8392L13598.6119,-3365.8394L13598.612,-3365.8398L13598.6122,-3365.8402L13598.6125,-3365.8405L13598.6127,-3365.8407L13598.6129,-3365.8408L13598.6132,-3365.8408L13598.6135,-3365.8408L13598.6139,-3365.8408L13598.6144,-3365.8406L13598.615,-3365.8402Z"/>
<path content="和歌山県,,東牟婁郡,那智勝浦町,,30421" xlink:title="和歌山県" d="M13598.6782,-3365.8681L13598.6775,-3365.868L13598.677,-3365.868L13598.6765,-3365.8681L13598.6761,-3365.8683L13598.6758,-3365.8685L13598.6756,-3365.8689L13598.6755,-3365.8693L13598.6754,-3365.8697L13598.6756,-3365.8703L13598.6756,-3365.8705L13598.6759,-3365.8708L13598.6762,-3365.8711L13598.6767,-3365.8714L13598.6773,-3365.8717L13598.678,-3365.8718L13598.6788,-3365.8718L13598.6792,-3365.8717L13598.68,-3365.8716L13598.6805,-3365.8714L13598.6807,-3365.8712L13598.6808,-3365.871L13598.6808,-3365.8709L13598.6807,-3365.8708L13598.6801,-3365.8702L13598.6797,-3365.8698L13598.6796,-3365.8696L13598.6794,-3365.8691L13598.6793,-3365.8687L13598.6791,-3365.8685L13598.6787,-3365.8682L13598.6782,-3365.8681Z"/>
<path content="和歌山県,,東牟婁郡,那智勝浦町,,30421" xlink:title="和歌山県" d="M13598.7115,-3365.9846L13598.7112,-3365.9845L13598.7108,-3365.9846L13598.7104,-3365.9847L13598.7103,-3365.9849L13598.7101,-3365.9851L13598.71,-3365.9854L13598.71,-3365.9857L13598.71,-3365.9858L13598.7101,-3365.9862L13598.7106,-3365.9871L13598.711,-3365.9878L13598.7112,-3365.9884L13598.7114,-3365.989L13598.7117,-3365.9893L13598.7119,-3365.9895L13598.7121,-3365.9896L13598.7125,-3365.9898L13598.7131,-3365.9899L13598.7134,-3365.9899L13598.7137,-3365.9898L13598.714,-3365.9897L13598.7141,-3365.9895L13598.7141,-3365.9893L13598.714,-3365.9885L13598.714,-3365.988L13598.714,-3365.9874L13598.7139,-3365.987L13598.7136,-3365.9866L13598.7125,-3365.9855L13598.712,-3365.9849L13598.7117,-3365.9847L13598.7115,-3365.9846Z"/>
<path content="和歌山県,,東牟婁郡,那智勝浦町,,30421" xlink:title="和歌山県" d="M13598.6993,-3365.8594L13598.6987,-3365.8594L13598.6975,-3365.8594L13598.6941,-3365.8593L13598.6937,-3365.8594L13598.6935,-3365.8595L13598.6935,-3365.8596L13598.6937,-3365.8598L13598.6946,-3365.8604L13598.6955,-3365.8608L13598.6971,-3365.8617L13598.6979,-3365.862L13598.6986,-3365.8622L13598.6996,-3365.8623L13598.7004,-3365.8622L13598.7008,-3365.8621L13598.701,-3365.862L13598.701,-3365.8619L13598.7011,-3365.8617L13598.701,-3365.8614L13598.7004,-3365.8605L13598.7003,-3365.8604L13598.6998,-3365.8598L13598.6996,-3365.8596L13598.6993,-3365.8594Z"/>
<path content="和歌山県,,東牟婁郡,那智勝浦町,,30421" xlink:title="和歌山県" d="M13598.6307,-3365.858L13598.6301,-3365.8579L13598.6295,-3365.858L13598.6289,-3365.8581L13598.6278,-3365.8585L13598.6268,-3365.8591L13598.6264,-3365.8594L13598.6262,-3365.8597L13598.6262,-3365.8599L13598.6263,-3365.86L13598.6266,-3365.8601L13598.6279,-3365.8603L13598.6291,-3365.8603L13598.631,-3365.8604L13598.6321,-3365.8603L13598.6325,-3365.8602L13598.6328,-3365.8601L13598.6328,-3365.86L13598.6329,-3365.8599L13598.6329,-3365.8598L13598.6328,-3365.8596L13598.6325,-3365.8592L13598.6318,-3365.8586L13598.6311,-3365.8582L13598.6307,-3365.858Z"/>
<path content="和歌山県,,東牟婁郡,那智勝浦町,,30421" xlink:title="和歌山県" d="M13598.8342,-3365.8555L13598.834,-3365.8554L13598.8338,-3365.8554L13598.8336,-3365.8556L13598.8334,-3365.8561L13598.8331,-3365.8565L13598.8324,-3365.8571L13598.8318,-3365.8576L13598.8318,-3365.8577L13598.8318,-3365.8578L13598.832,-3365.8579L13598.8325,-3365.8581L13598.8336,-3365.8582L13598.8349,-3365.8583L13598.8365,-3365.8585L13598.837,-3365.8585L13598.8373,-3365.8584L13598.8375,-3365.8582L13598.8376,-3365.8581L13598.8377,-3365.8578L13598.8377,-3365.8575L13598.8376,-3365.8574L13598.8375,-3365.8572L13598.8372,-3365.857L13598.8366,-3365.8568L13598.8356,-3365.8565L13598.8353,-3365.8563L13598.8348,-3365.8559L13598.8342,-3365.8555Z"/>
<path content="和歌山県,,東牟婁郡,那智勝浦町,,30421" xlink:title="和歌山県" d="M13598.6983,-3365.9806L13598.6978,-3365.9806L13598.6974,-3365.9807L13598.6971,-3365.9808L13598.6967,-3365.981L13598.6964,-3365.9814L13598.6963,-3365.9816L13598.6963,-3365.982L13598.6964,-3365.9827L13598.6967,-3365.9834L13598.6971,-3365.9844L13598.6973,-3365.9847L13598.6975,-3365.9848L13598.6976,-3365.9848L13598.6978,-3365.9848L13598.6981,-3365.9847L13598.6984,-3365.9844L13598.6989,-3365.9838L13598.699,-3365.9836L13598.6992,-3365.983L13598.6993,-3365.9825L13598.6993,-3365.9818L13598.6992,-3365.9814L13598.699,-3365.9811L13598.6989,-3365.981L13598.6986,-3365.9808L13598.6983,-3365.9806Z"/>
<path content="和歌山県,,東牟婁郡,那智勝浦町,,30421" xlink:title="和歌山県" d="M13598.6453,-3365.8344L13598.6449,-3365.8343L13598.6445,-3365.8343L13598.6442,-3365.8344L13598.6436,-3365.8346L13598.6431,-3365.8349L13598.6426,-3365.8352L13598.6423,-3365.8356L13598.642,-3365.836L13598.642,-3365.8363L13598.642,-3365.8365L13598.6421,-3365.8367L13598.6423,-3365.8369L13598.6426,-3365.8371L13598.6431,-3365.8372L13598.6436,-3365.8372L13598.6442,-3365.8372L13598.6446,-3365.837L13598.6449,-3365.8368L13598.6453,-3365.8363L13598.6456,-3365.8359L13598.6459,-3365.8354L13598.646,-3365.8351L13598.646,-3365.8349L13598.6459,-3365.8348L13598.6458,-3365.8347L13598.6456,-3365.8345L13598.6453,-3365.8344Z"/>
<path content="和歌山県,,東牟婁郡,那智勝浦町,,30421" xlink:title="和歌山県" d="M13598.6369,-3365.8419L13598.636,-3365.8418L13598.6353,-3365.8419L13598.635,-3365.8419L13598.6347,-3365.8421L13598.6345,-3365.8422L13598.6343,-3365.8425L13598.6343,-3365.8427L13598.6345,-3365.843L13598.6346,-3365.8432L13598.6349,-3365.8434L13598.6353,-3365.8436L13598.6361,-3365.8437L13598.6369,-3365.8438L13598.638,-3365.8439L13598.6384,-3365.8438L13598.6386,-3365.8438L13598.6389,-3365.8436L13598.6392,-3365.8435L13598.6394,-3365.8433L13598.6395,-3365.8432L13598.6395,-3365.843L13598.6394,-3365.8428L13598.6392,-3365.8426L13598.6387,-3365.8423L13598.6379,-3365.842L13598.6369,-3365.8419Z"/>
<path content="和歌山県,,東牟婁郡,那智勝浦町,,30421" xlink:title="和歌山県" d="M13598.6646,-3366.1217L13598.6643,-3366.1217L13598.6641,-3366.1217L13598.664,-3366.1218L13598.6638,-3366.1219L13598.6638,-3366.1223L13598.6639,-3366.1232L13598.664,-3366.1234L13598.6642,-3366.1243L13598.6643,-3366.1246L13598.6645,-3366.1248L13598.6647,-3366.1249L13598.665,-3366.125L13598.6653,-3366.125L13598.6657,-3366.1249L13598.666,-3366.1248L13598.6662,-3366.1247L13598.6664,-3366.1246L13598.6666,-3366.1243L13598.6667,-3366.1241L13598.6668,-3366.1237L13598.6667,-3366.1234L13598.6667,-3366.1233L13598.6665,-3366.123L13598.6662,-3366.1226L13598.6657,-3366.1222L13598.6651,-3366.1219L13598.6646,-3366.1217Z"/>
<path content="和歌山県,,東牟婁郡,那智勝浦町,,30421" xlink:title="和歌山県" d="M13598.6351,-3365.8318L13598.6346,-3365.8317L13598.634,-3365.8318L13598.6333,-3365.8319L13598.6329,-3365.832L13598.6324,-3365.8323L13598.6321,-3365.8326L13598.6319,-3365.8328L13598.6319,-3365.833L13598.632,-3365.8332L13598.6321,-3365.8333L13598.6322,-3365.8334L13598.6324,-3365.8336L13598.633,-3365.8338L13598.6333,-3365.8338L13598.6338,-3365.8338L13598.6345,-3365.8336L13598.6353,-3365.8334L13598.6363,-3365.8333L13598.6365,-3365.8333L13598.6367,-3365.8332L13598.6367,-3365.8332L13598.6367,-3365.8331L13598.6367,-3365.8329L13598.6364,-3365.8325L13598.6359,-3365.8322L13598.6356,-3365.832L13598.6351,-3365.8318Z"/>
<path content="和歌山県,,東牟婁郡,那智勝浦町,,30421" xlink:title="和歌山県" d="M13598.6315,-3365.8378L13598.6312,-3365.8378L13598.631,-3365.8378L13598.6308,-3365.8379L13598.6307,-3365.8381L13598.6306,-3365.8385L13598.6305,-3365.8395L13598.6305,-3365.8403L13598.6306,-3365.8406L13598.6307,-3365.8407L13598.6308,-3365.8408L13598.6309,-3365.8409L13598.6312,-3365.8409L13598.6317,-3365.8408L13598.6322,-3365.8406L13598.6328,-3365.8403L13598.6331,-3365.8401L13598.6333,-3365.8398L13598.6334,-3365.8396L13598.6334,-3365.8395L13598.6334,-3365.8392L13598.6332,-3365.8389L13598.6328,-3365.8385L13598.6324,-3365.8382L13598.6318,-3365.8379L13598.6315,-3365.8378Z"/>
<path content="和歌山県,,東牟婁郡,那智勝浦町,,30421" xlink:title="和歌山県" d="M13598.8013,-3365.8399L13598.8003,-3365.8398L13598.7997,-3365.8398L13598.7992,-3365.84L13598.7986,-3365.8403L13598.7983,-3365.8406L13598.7983,-3365.8408L13598.7983,-3365.8409L13598.7984,-3365.8411L13598.7986,-3365.8414L13598.7992,-3365.8417L13598.7993,-3365.8417L13598.7998,-3365.8419L13598.8005,-3365.8419L13598.8011,-3365.8419L13598.8015,-3365.8417L13598.8019,-3365.8415L13598.8021,-3365.8412L13598.8023,-3365.841L13598.8024,-3365.8406L13598.8023,-3365.8404L13598.8022,-3365.8402L13598.802,-3365.84L13598.8016,-3365.8399L13598.8013,-3365.8399Z"/>
<path content="和歌山県,,東牟婁郡,那智勝浦町,,30421" xlink:title="和歌山県" d="M13598.7224,-3366.0289L13598.7223,-3366.0288L13598.722,-3366.0288L13598.7215,-3366.029L13598.721,-3366.0293L13598.7207,-3366.0296L13598.7206,-3366.0297L13598.7205,-3366.03L13598.7205,-3366.0303L13598.7205,-3366.0306L13598.7206,-3366.0308L13598.7208,-3366.0311L13598.7212,-3366.0315L13598.7215,-3366.0317L13598.7218,-3366.0318L13598.7221,-3366.0317L13598.7223,-3366.0316L13598.7225,-3366.0315L13598.7227,-3366.031L13598.7229,-3366.0305L13598.7229,-3366.0301L13598.7229,-3366.0296L13598.7227,-3366.0292L13598.7225,-3366.029L13598.7224,-3366.0289Z"/>
<path content="和歌山県,,東牟婁郡,那智勝浦町,,30421" xlink:title="和歌山県" d="M13598.6228,-3365.8786L13598.6222,-3365.8786L13598.6219,-3365.8786L13598.6216,-3365.8787L13598.6214,-3365.8788L13598.6213,-3365.8789L13598.6213,-3365.8792L13598.6213,-3365.8795L13598.6215,-3365.8799L13598.6218,-3365.8803L13598.6221,-3365.8804L13598.6224,-3365.8805L13598.6229,-3365.8806L13598.6235,-3365.8806L13598.6242,-3365.8804L13598.6245,-3365.8803L13598.6246,-3365.8802L13598.6247,-3365.8801L13598.6247,-3365.88L13598.6246,-3365.8798L13598.6245,-3365.8795L13598.624,-3365.8791L13598.6235,-3365.8788L13598.623,-3365.8787L13598.6228,-3365.8786Z"/>
<path content="和歌山県,,東牟婁郡,那智勝浦町,,30421" xlink:title="和歌山県" d="M13598.7691,-3365.8423L13598.7689,-3365.8423L13598.7687,-3365.8423L13598.7681,-3365.8425L13598.7674,-3365.8428L13598.767,-3365.8432L13598.7666,-3365.8436L13598.7665,-3365.8438L13598.7666,-3365.844L13598.7667,-3365.8442L13598.767,-3365.8443L13598.7676,-3365.8443L13598.7682,-3365.8443L13598.7687,-3365.8442L13598.7691,-3365.844L13598.7695,-3365.8437L13598.7697,-3365.8434L13598.7698,-3365.8432L13598.7697,-3365.8428L13598.7695,-3365.8425L13598.7693,-3365.8423L13598.7691,-3365.8423Z"/>
<path content="和歌山県,,東牟婁郡,那智勝浦町,,30421" xlink:title="和歌山県" d="M13598.6356,-3365.8232L13598.6352,-3365.8232L13598.6348,-3365.8233L13598.6347,-3365.8233L13598.6345,-3365.8235L13598.6345,-3365.8236L13598.6344,-3365.8238L13598.6345,-3365.8241L13598.6347,-3365.8244L13598.6348,-3365.8245L13598.6351,-3365.8247L13598.6354,-3365.8249L13598.6358,-3365.8249L13598.6361,-3365.825L13598.6365,-3365.8249L13598.6368,-3365.8248L13598.637,-3365.8247L13598.6372,-3365.8245L13598.6373,-3365.8242L13598.6373,-3365.8241L13598.6372,-3365.8238L13598.6369,-3365.8236L13598.6366,-3365.8234L13598.6362,-3365.8233L13598.6356,-3365.8232Z"/>
<path content="和歌山県,,東牟婁郡,那智勝浦町,,30421" xlink:title="和歌山県" d="M13598.6197,-3365.9097L13598.6195,-3365.9097L13598.6194,-3365.9097L13598.6191,-3365.9098L13598.6189,-3365.91L13598.6186,-3365.9103L13598.6185,-3365.9106L13598.6185,-3365.9109L13598.6185,-3365.911L13598.6187,-3365.9113L13598.6189,-3365.9115L13598.6192,-3365.9116L13598.6196,-3365.9117L13598.6197,-3365.9118L13598.6201,-3365.9117L13598.6204,-3365.9117L13598.6204,-3365.9116L13598.6206,-3365.9115L13598.6207,-3365.9112L13598.6207,-3365.9109L13598.6206,-3365.9107L13598.6204,-3365.9103L13598.6202,-3365.91L13598.62,-3365.9098L13598.6197,-3365.9097Z"/>
<path content="和歌山県,,東牟婁郡,那智勝浦町,,30421" xlink:title="和歌山県" d="M13598.634,-3365.8149L13598.6336,-3365.8149L13598.6334,-3365.8149L13598.6333,-3365.815L13598.6332,-3365.8151L13598.6331,-3365.8153L13598.633,-3365.8156L13598.6331,-3365.816L13598.6333,-3365.8163L13598.6335,-3365.8166L13598.6338,-3365.8167L13598.6341,-3365.8168L13598.6343,-3365.8168L13598.6347,-3365.8167L13598.635,-3365.8166L13598.6351,-3365.8165L13598.6352,-3365.8163L13598.6352,-3365.8161L13598.6351,-3365.8158L13598.6349,-3365.8156L13598.6346,-3365.8153L13598.6343,-3365.8151L13598.634,-3365.8149Z"/>
<path content="和歌山県,,東牟婁郡,那智勝浦町,,30421" xlink:title="和歌山県" d="M13598.667,-3365.8656L13598.6666,-3365.8655L13598.6665,-3365.8655L13598.6663,-3365.8655L13598.6662,-3365.8656L13598.6659,-3365.8658L13598.6658,-3365.8661L13598.6657,-3365.8664L13598.6658,-3365.8667L13598.6659,-3365.8669L13598.6662,-3365.8671L13598.6663,-3365.8672L13598.6665,-3365.8672L13598.6668,-3365.8672L13598.6672,-3365.8672L13598.6675,-3365.867L13598.6677,-3365.8669L13598.6678,-3365.8667L13598.6678,-3365.8666L13598.6677,-3365.8663L13598.6676,-3365.866L13598.6673,-3365.8658L13598.667,-3365.8656Z"/>
</g>
</svg>
