<?xml version="1.0" encoding="UTF-8"?>
<svg  xmlns="http://www.w3.org/2000/svg" xmlns:xlink="http://www.w3.org/1999/xlink" xmlns:go="http://purl.org/svgmap/profile" property="geometry,N03_001,N03_002,N03_003,N03_004,N03_005,N03_007" viewBox="13557.12890625 -3449.70703125 4.39453125 4.39453125" go:dataArea="13557.12890625 -3449.70703125 4.39453125 4.39453125" >
<metadata>
 <rdf:RDF xmlns:rdf="http://www.w3.org/1999/02/22-rdf-syntax-ns#" xmlns:crs="http://opengis.org/xmldtds/transformations.dtd" xmlns:svg="http://www.w3.org/svg" >
  <rdf:Description>
   <crs:CoordinateReferenceSystem rdf:resource="http://purl.org/crs/84" svg:transform="matrix(100.0,0.0,0.0,-100.0,0.0,0.0)" />
  </rdf:Description>
 </rdf:RDF>
</metadata>
<globalCoordinateSystem srsName="http://purl.org/crs/84" transform="matrix(100.0,0.0,0.0,-100.0,0.0,0.0)" />
<defs>
 <g id="p0" >
  <circle cx="0.0" cy="0.0" r="3" stroke="green" stroke-width="2.0" vector-effect="non-scaling-stroke" />
 </g>
</defs>
<g fill="#0000ff" fill-rule="evenodd" opacity="0.5" >
<path content="大阪府,,,富田林市,,27214" xlink:title="大阪府" d="M13561.5234,-3449.707L13561.5234,-3449.0455L13561.5076,-3449.0464L13561.4882,-3449.0464L13561.4687,-3449.047L13561.45,-3449.047L13561.4313,-3449.0488L13561.4282,-3449.049L13561.4126,-3449.05L13561.3722,-3449.0506L13561.3362,-3449.0488L13561.3175,-3449.0458L13561.3038,-3449.0417L13561.2981,-3449.0339L13561.2952,-3449.0178L13561.2894,-3448.9999L13561.2916,-3448.982L13561.2988,-3448.9677L13561.3024,-3448.9587L13561.3002,-3448.9294L13561.2995,-3448.9151L13561.2974,-3448.8996L13561.2959,-3448.8862L13561.2959,-3448.8484L13561.3009,-3448.8377L13561.2995,-3448.8305L13561.2829,-3448.8239L13561.2671,-3448.815L13561.2678,-3448.8007L13561.2757,-3448.784L13561.2873,-3448.7607L13561.3024,-3448.7358L13561.3197,-3448.7101L13561.3391,-3448.6809L13561.3535,-3448.6624L13561.3823,-3448.6396L13561.3946,-3448.6319L13561.4003,-3448.6277L13561.4032,-3448.6206L13561.4046,-3448.611L13561.4017,-3448.5949L13561.4003,-3448.5818L13561.3974,-3448.5645L13561.3974,-3448.5493L13561.3946,-3448.5219L13561.3917,-3448.5117L13561.3866,-3448.5016L13561.3766,-3448.4962L13561.3629,-3448.4926L13561.3578,-3448.492L13561.3423,-3448.49L13561.3398,-3448.4897L13561.339,-3448.488L13561.3312,-3448.4719L13561.3197,-3448.4647L13561.3089,-3448.4582L13561.2959,-3448.4564L13561.2757,-3448.4587L13561.2585,-3448.4587L13561.2577,-3448.4534L13561.2657,-3448.4331L13561.2657,-3448.4253L13561.2657,-3448.4218L13561.2671,-3448.4099L13561.2714,-3448.4027L13561.2786,-3448.3956L13561.2873,-3448.389L13561.2894,-3448.3824L13561.2937,-3448.3538L13561.2932,-3448.3372L13561.2909,-3448.3333L13561.2838,-3448.3212L13561.2809,-3448.3129L13561.2744,-3448.3009L13561.2673,-3448.2938L13561.2615,-3448.2819L13561.2615,-3448.2649L13561.2636,-3448.2506L13561.2759,-3448.2226L13561.2874,-3448.216L13561.3047,-3448.2046L13561.3126,-3448.1909L13561.3191,-3448.1784L13561.3321,-3448.1653L13561.336,-3448.1616L13561.3457,-3448.1522L13561.3594,-3448.1432L13561.3796,-3448.1367L13561.4128,-3448.1275L13561.4517,-3448.1209L13561.4625,-3448.1185L13561.4834,-3448.1161L13561.4986,-3448.1144L13561.5166,-3448.1084L13561.5234,-3448.1037L13561.5234,-3447.1667L13561.5216,-3447.1601L13561.5156,-3447.1423L13561.5108,-3447.1282L13561.5064,-3447.0973L13561.5044,-3447.0834L13561.5015,-3447.0627L13561.4971,-3447.0472L13561.4885,-3447.0371L13561.4863,-3447.0281L13561.4863,-3446.9975L13561.4878,-3446.9844L13561.4892,-3446.9706L13561.4935,-3446.9617L13561.5007,-3446.9546L13561.5187,-3446.9271L13561.5234,-3446.9198L13561.5234,-3445.741L13561.5078,-3445.7328L13561.4941,-3445.7262L13561.4941,-3445.7203L13561.5013,-3445.7095L13561.5143,-3445.7006L13561.5234,-3445.6963L13561.5234,-3445.3125L13558.3162,-3445.3125L13558.3166,-3445.3137L13558.318,-3445.3251L13558.3159,-3445.3334L13558.3065,-3445.34L13558.2921,-3445.343L13558.2696,-3445.344L13558.2473,-3445.347L13558.2279,-3445.3476L13558.2106,-3445.3452L13558.1941,-3445.3387L13558.1818,-3445.3339L13558.1616,-3445.3309L13558.1399,-3445.3327L13558.1233,-3445.3464L13558.1125,-3445.356L13558.0996,-3445.3649L13558.0873,-3445.3745L13558.0715,-3445.381L13558.0571,-3445.3846L13558.0391,-3445.3828L13558.0131,-3445.381L13557.9958,-3445.3834L13557.9749,-3445.3846L13557.9591,-3445.3917L13557.9447,-3445.4043L13557.9296,-3445.4203L13557.9231,-3445.4328L13557.9044,-3445.4412L13557.8835,-3445.4495L13557.8521,-3445.4578L13557.8453,-3445.4596L13557.8223,-3445.4638L13557.8057,-3445.4704L13557.8025,-3445.4724L13557.7908,-3445.4802L13557.7884,-3445.4817L13557.7884,-3445.5034L13557.7897,-3445.5144L13557.7899,-3445.5159L13557.7927,-3445.5255L13557.7963,-3445.5292L13557.8136,-3445.5476L13557.815,-3445.5484L13557.8266,-3445.5556L13557.8353,-3445.5734L13557.8381,-3445.5913L13557.8401,-3445.6L13557.8424,-3445.6098L13557.8424,-3445.6634L13557.8453,-3445.7L13557.8403,-3445.7274L13557.8381,-3445.7495L13557.8389,-3445.7623L13557.8353,-3445.8001L13557.8276,-3445.8333L13557.8273,-3445.8344L13557.8237,-3445.8612L13557.818,-3445.8972L13557.8082,-3445.9259L13557.8057,-3445.9332L13557.7971,-3445.9609L13557.7906,-3445.9758L13557.7884,-3445.9973L13557.7906,-3446.0122L13557.7964,-3446.0301L13557.8072,-3446.0449L13557.8173,-3446.0545L13557.826,-3446.0742L13557.8338,-3446.0917L13557.8338,-3446.0919L13557.848,-3446.1306L13557.8505,-3446.1374L13557.8583,-3446.1587L13557.8662,-3446.1941L13557.8664,-3446.1952L13557.8705,-3446.2126L13557.8706,-3446.2135L13557.8716,-3446.2248L13557.872,-3446.2299L13557.8723,-3446.232L13557.8748,-3446.2487L13557.8792,-3446.2612L13557.8835,-3446.2841L13557.8856,-3446.308L13557.8839,-3446.3183L13557.8827,-3446.3255L13557.8792,-3446.3428L13557.8806,-3446.3559L13557.8826,-3446.3694L13557.8832,-3446.3732L13557.8933,-3446.3965L13557.9005,-3446.4155L13557.9012,-3446.4174L13557.9084,-3446.4311L13557.9157,-3446.4431L13557.9171,-3446.4454L13557.9379,-3446.4716L13557.9538,-3446.4937L13557.9662,-3446.5031L13557.9806,-3446.5127L13557.9993,-3446.5192L13558.0252,-3446.5228L13558.0446,-3446.5228L13558.0648,-3446.5203L13558.1051,-3446.5144L13558.1282,-3446.5132L13558.1815,-3446.5096L13558.1809,-3446.5163L13558.1793,-3446.5346L13558.1807,-3446.5432L13558.1829,-3446.5458L13558.1873,-3446.551L13558.1952,-3446.5593L13558.1992,-3446.5654L13558.2024,-3446.5701L13558.2146,-3446.5876L13558.2147,-3446.5879L13558.2218,-3446.6013L13558.2297,-3446.6168L13558.2341,-3446.6377L13558.2372,-3446.6667L13558.2376,-3446.6703L13558.2391,-3446.6839L13558.2441,-3446.7032L13558.2499,-3446.7396L13558.2528,-3446.7729L13558.2542,-3446.7896L13558.2564,-3446.8061L13558.2593,-3446.8272L13558.2578,-3446.8427L13558.2521,-3446.8606L13558.2434,-3446.873L13558.2276,-3446.8849L13558.2132,-3446.8974L13558.1818,-3446.9131L13558.1678,-3446.9201L13558.1321,-3446.9391L13558.0889,-3446.9611L13558.0651,-3446.9748L13558.0456,-3446.9909L13558.0334,-3447.0071L13558.0233,-3447.0214L13558.0126,-3447.0383L13558.0075,-3447.0464L13558.005,-3447.0547L13558.0017,-3447.0655L13557.9916,-3447.084L13557.9901,-3447.0867L13557.983,-3447.0989L13557.9736,-3447.118L13557.9621,-3447.1311L13557.9464,-3447.1434L13557.9362,-3447.1514L13557.9247,-3447.1621L13557.9187,-3447.1678L13557.9072,-3447.1785L13557.875,-3447.2087L13557.8626,-3447.2139L13557.8356,-3447.2253L13557.8089,-3447.2366L13557.7894,-3447.2443L13557.7527,-3447.2551L13557.7278,-3447.2595L13557.7088,-3447.2682L13557.708,-3447.2686L13557.6954,-3447.2744L13557.686,-3447.2875L13557.6838,-3447.3144L13557.6817,-3447.3352L13557.6811,-3447.3524L13557.6803,-3447.376L13557.6853,-3447.3904L13557.6939,-3447.41L13557.7098,-3447.4309L13557.7184,-3447.4446L13557.7177,-3447.4548L13557.708,-3447.468L13557.6965,-3447.4794L13557.6836,-3447.4901L13557.6674,-3447.5L13557.667,-3447.5002L13557.6403,-3447.5128L13557.5886,-3447.5308L13557.5703,-3447.5372L13557.5588,-3447.5414L13557.5473,-3447.5486L13557.5293,-3447.5629L13557.5069,-3447.5848L13557.5,-3447.5913L13557.4961,-3447.5949L13557.4787,-3447.6051L13557.4651,-3447.6146L13557.455,-3447.6164L13557.4406,-3447.6152L13557.4233,-3447.6087L13557.3962,-3447.6069L13557.3804,-3447.6164L13557.371,-3447.6284L13557.3624,-3447.6415L13557.3559,-3447.6481L13557.3436,-3447.654L13557.3314,-3447.6534L13557.3184,-3447.6504L13557.3047,-3447.6427L13557.2954,-3447.6296L13557.2918,-3447.614L13557.2925,-3447.6039L13557.2874,-3447.5908L13557.2779,-3447.579L13557.27,-3447.5766L13557.2549,-3447.5784L13557.2412,-3447.5796L13557.2297,-3447.57L13557.2347,-3447.5557L13557.2376,-3447.5479L13557.2376,-3447.5342L13557.2362,-3447.5211L13557.2412,-3447.5068L13557.2398,-3447.5L13557.2398,-3447.4996L13557.229,-3447.4961L13557.2182,-3447.4996L13557.2179,-3447.5L13557.2095,-3447.511L13557.2031,-3447.5253L13557.1958,-3447.5449L13557.1958,-3447.5581L13557.1988,-3447.5688L13557.1994,-3447.5712L13557.2023,-3447.5861L13557.2002,-3447.5949L13557.1908,-3447.6057L13557.1771,-3447.614L13557.1689,-3447.6156L13557.162,-3447.617L13557.1404,-3447.6176L13557.1297,-3447.6181L13557.1289,-3447.6182L13557.1289,-3449.707Z"/>
<path content="大阪府,,,河内長野市,,27216" xlink:title="大阪府" d="M13557.1289,-3445.3125L13557.1289,-3447.6182L13557.1297,-3447.6181L13557.1404,-3447.6176L13557.162,-3447.617L13557.1689,-3447.6156L13557.1771,-3447.614L13557.1908,-3447.6057L13557.2002,-3447.5949L13557.2023,-3447.5861L13557.1994,-3447.5712L13557.1988,-3447.5688L13557.1958,-3447.5581L13557.1958,-3447.5449L13557.2031,-3447.5253L13557.2095,-3447.511L13557.2179,-3447.5L13557.2182,-3447.4996L13557.229,-3447.4961L13557.2398,-3447.4996L13557.2398,-3447.5L13557.2412,-3447.5068L13557.2362,-3447.5211L13557.2376,-3447.5342L13557.2376,-3447.5479L13557.2347,-3447.5557L13557.2297,-3447.57L13557.2412,-3447.5796L13557.2549,-3447.5784L13557.27,-3447.5766L13557.2779,-3447.579L13557.2874,-3447.5908L13557.2925,-3447.6039L13557.2918,-3447.614L13557.2954,-3447.6296L13557.3047,-3447.6427L13557.3184,-3447.6504L13557.3314,-3447.6534L13557.3436,-3447.654L13557.3559,-3447.6481L13557.3624,-3447.6415L13557.371,-3447.6284L13557.3804,-3447.6164L13557.3962,-3447.6069L13557.4233,-3447.6087L13557.4406,-3447.6152L13557.455,-3447.6164L13557.4651,-3447.6146L13557.4787,-3447.6051L13557.4961,-3447.5949L13557.5,-3447.5913L13557.5069,-3447.5848L13557.5293,-3447.5629L13557.5473,-3447.5486L13557.5588,-3447.5414L13557.5703,-3447.5372L13557.5886,-3447.5308L13557.6403,-3447.5128L13557.667,-3447.5002L13557.6674,-3447.5L13557.6836,-3447.4901L13557.6965,-3447.4794L13557.708,-3447.468L13557.7177,-3447.4548L13557.7184,-3447.4446L13557.7098,-3447.4309L13557.6939,-3447.41L13557.6853,-3447.3904L13557.6803,-3447.376L13557.6811,-3447.3524L13557.6817,-3447.3352L13557.6838,-3447.3144L13557.686,-3447.2875L13557.6954,-3447.2744L13557.708,-3447.2686L13557.7088,-3447.2682L13557.7278,-3447.2595L13557.7527,-3447.2551L13557.7894,-3447.2443L13557.8089,-3447.2366L13557.8356,-3447.2253L13557.8626,-3447.2139L13557.875,-3447.2087L13557.9072,-3447.1785L13557.9187,-3447.1678L13557.9247,-3447.1621L13557.9362,-3447.1514L13557.9464,-3447.1434L13557.9621,-3447.1311L13557.9736,-3447.118L13557.983,-3447.0989L13557.9901,-3447.0867L13557.9916,-3447.084L13558.0017,-3447.0655L13558.005,-3447.0547L13558.0075,-3447.0464L13558.0126,-3447.0383L13558.0233,-3447.0214L13558.0334,-3447.0071L13558.0456,-3446.9909L13558.0651,-3446.9748L13558.0889,-3446.9611L13558.1321,-3446.9391L13558.1678,-3446.9201L13558.1818,-3446.9131L13558.2132,-3446.8974L13558.2276,-3446.8849L13558.2434,-3446.873L13558.2521,-3446.8606L13558.2578,-3446.8427L13558.2593,-3446.8272L13558.2564,-3446.8061L13558.2542,-3446.7896L13558.2528,-3446.7729L13558.2499,-3446.7396L13558.2441,-3446.7032L13558.2391,-3446.6839L13558.2376,-3446.6703L13558.2372,-3446.6667L13558.2341,-3446.6377L13558.2297,-3446.6168L13558.2218,-3446.6013L13558.2147,-3446.5879L13558.2146,-3446.5876L13558.2024,-3446.5701L13558.1992,-3446.5654L13558.1952,-3446.5593L13558.1873,-3446.551L13558.1829,-3446.5458L13558.1807,-3446.5432L13558.1793,-3446.5346L13558.1809,-3446.5163L13558.1815,-3446.5096L13558.1282,-3446.5132L13558.1051,-3446.5144L13558.0648,-3446.5203L13558.0446,-3446.5228L13558.0252,-3446.5228L13557.9993,-3446.5192L13557.9806,-3446.5127L13557.9662,-3446.5031L13557.9538,-3446.4937L13557.9379,-3446.4716L13557.9171,-3446.4454L13557.9157,-3446.4431L13557.9084,-3446.4311L13557.9012,-3446.4174L13557.9005,-3446.4155L13557.8933,-3446.3965L13557.8832,-3446.3732L13557.8826,-3446.3694L13557.8806,-3446.3559L13557.8792,-3446.3428L13557.8827,-3446.3255L13557.8839,-3446.3183L13557.8856,-3446.308L13557.8835,-3446.2841L13557.8792,-3446.2612L13557.8748,-3446.2487L13557.8723,-3446.232L13557.872,-3446.2299L13557.8716,-3446.2248L13557.8706,-3446.2135L13557.8705,-3446.2126L13557.8664,-3446.1952L13557.8662,-3446.1941L13557.8583,-3446.1587L13557.8505,-3446.1374L13557.848,-3446.1306L13557.8338,-3446.0919L13557.8338,-3446.0917L13557.826,-3446.0742L13557.8173,-3446.0545L13557.8072,-3446.0449L13557.7964,-3446.0301L13557.7906,-3446.0122L13557.7884,-3445.9973L13557.7906,-3445.9758L13557.7971,-3445.9609L13557.8057,-3445.9332L13557.8082,-3445.9259L13557.818,-3445.8972L13557.8237,-3445.8612L13557.8273,-3445.8344L13557.8276,-3445.8333L13557.8353,-3445.8001L13557.8389,-3445.7623L13557.8381,-3445.7495L13557.8403,-3445.7274L13557.8453,-3445.7L13557.8424,-3445.6634L13557.8424,-3445.6098L13557.8401,-3445.6L13557.8381,-3445.5913L13557.8353,-3445.5734L13557.8266,-3445.5556L13557.815,-3445.5484L13557.8136,-3445.5476L13557.7963,-3445.5292L13557.7927,-3445.5255L13557.7899,-3445.5159L13557.7897,-3445.5144L13557.7884,-3445.5034L13557.7884,-3445.4817L13557.7908,-3445.4802L13557.8025,-3445.4724L13557.8057,-3445.4704L13557.8223,-3445.4638L13557.8453,-3445.4596L13557.8521,-3445.4578L13557.8835,-3445.4495L13557.9044,-3445.4412L13557.9231,-3445.4328L13557.9296,-3445.4203L13557.9447,-3445.4043L13557.9591,-3445.3917L13557.9749,-3445.3846L13557.9958,-3445.3834L13558.0131,-3445.381L13558.0391,-3445.3828L13558.0571,-3445.3846L13558.0715,-3445.381L13558.0873,-3445.3745L13558.0996,-3445.3649L13558.1125,-3445.356L13558.1233,-3445.3464L13558.1399,-3445.3327L13558.1616,-3445.3309L13558.1818,-3445.3339L13558.1941,-3445.3387L13558.2106,-3445.3452L13558.2279,-3445.3476L13558.2473,-3445.347L13558.2696,-3445.344L13558.2921,-3445.343L13558.3065,-3445.34L13558.3159,-3445.3334L13558.318,-3445.3251L13558.3166,-3445.3137L13558.3162,-3445.3125Z"/>
<path content="大阪府,,南河内郡,河南町,,27382" xlink:title="大阪府" d="M13561.5234,-3448.1037L13561.5166,-3448.1084L13561.4986,-3448.1144L13561.4834,-3448.1161L13561.4625,-3448.1185L13561.4517,-3448.1209L13561.4128,-3448.1275L13561.3796,-3448.1367L13561.3594,-3448.1432L13561.3457,-3448.1522L13561.336,-3448.1616L13561.3321,-3448.1653L13561.3191,-3448.1784L13561.3126,-3448.1909L13561.3047,-3448.2046L13561.2874,-3448.216L13561.2759,-3448.2226L13561.2636,-3448.2506L13561.2615,-3448.2649L13561.2615,-3448.2819L13561.2673,-3448.2938L13561.2744,-3448.3009L13561.2809,-3448.3129L13561.2838,-3448.3212L13561.2909,-3448.3333L13561.2932,-3448.3372L13561.2937,-3448.3538L13561.2894,-3448.3824L13561.2873,-3448.389L13561.2786,-3448.3956L13561.2714,-3448.4027L13561.2671,-3448.4099L13561.2657,-3448.4218L13561.2657,-3448.4253L13561.2657,-3448.4331L13561.2577,-3448.4534L13561.2585,-3448.4587L13561.2757,-3448.4587L13561.2959,-3448.4564L13561.3089,-3448.4582L13561.3197,-3448.4647L13561.3312,-3448.4719L13561.339,-3448.488L13561.3398,-3448.4897L13561.3423,-3448.49L13561.3578,-3448.492L13561.3629,-3448.4926L13561.3766,-3448.4962L13561.3866,-3448.5016L13561.3917,-3448.5117L13561.3946,-3448.5219L13561.3974,-3448.5493L13561.3974,-3448.5645L13561.4003,-3448.5818L13561.4017,-3448.5949L13561.4046,-3448.611L13561.4032,-3448.6206L13561.4003,-3448.6277L13561.3946,-3448.6319L13561.3823,-3448.6396L13561.3535,-3448.6624L13561.3391,-3448.6809L13561.3197,-3448.7101L13561.3024,-3448.7358L13561.2873,-3448.7607L13561.2757,-3448.784L13561.2678,-3448.8007L13561.2671,-3448.815L13561.2829,-3448.8239L13561.2995,-3448.8305L13561.3009,-3448.8377L13561.2959,-3448.8484L13561.2959,-3448.8862L13561.2974,-3448.8996L13561.2995,-3448.9151L13561.3002,-3448.9294L13561.3024,-3448.9587L13561.2988,-3448.9677L13561.2916,-3448.982L13561.2894,-3448.9999L13561.2952,-3449.0178L13561.2981,-3449.0339L13561.3038,-3449.0417L13561.3175,-3449.0458L13561.3362,-3449.0488L13561.3722,-3449.0506L13561.4126,-3449.05L13561.4282,-3449.049L13561.4313,-3449.0488L13561.45,-3449.047L13561.4687,-3449.047L13561.4882,-3449.0464L13561.5076,-3449.0464L13561.5234,-3449.0455Z"/>
<path content="大阪府,,南河内郡,千早赤阪村,,27383" xlink:title="大阪府" d="M13561.5234,-3445.6963L13561.5143,-3445.7006L13561.5013,-3445.7095L13561.4941,-3445.7203L13561.4941,-3445.7262L13561.5078,-3445.7328L13561.5234,-3445.741L13561.5234,-3446.9198L13561.5187,-3446.9271L13561.5007,-3446.9546L13561.4935,-3446.9617L13561.4892,-3446.9706L13561.4878,-3446.9844L13561.4863,-3446.9975L13561.4863,-3447.0281L13561.4885,-3447.0371L13561.4971,-3447.0472L13561.5015,-3447.0627L13561.5044,-3447.0834L13561.5064,-3447.0973L13561.5108,-3447.1282L13561.5156,-3447.1423L13561.5216,-3447.1601L13561.5234,-3447.1667Z"/>
</g>
</svg>
