<?xml version="1.0" encoding="UTF-8"?>
<svg  xmlns="http://www.w3.org/2000/svg" xmlns:xlink="http://www.w3.org/1999/xlink" xmlns:go="http://purl.org/svgmap/profile" property="geometry,N03_001,N03_002,N03_003,N03_004,N03_005,N03_007" viewBox="13595.5810546875 -3360.7177734375 1.0986328125 1.0986328125" go:dataArea="13595.5810546875 -3360.7177734375 1.0986328125 1.0986328125" >
<metadata>
 <rdf:RDF xmlns:rdf="http://www.w3.org/1999/02/22-rdf-syntax-ns#" xmlns:crs="http://opengis.org/xmldtds/transformations.dtd" xmlns:svg="http://www.w3.org/svg" >
  <rdf:Description>
   <crs:CoordinateReferenceSystem rdf:resource="http://purl.org/crs/84" svg:transform="matrix(100.0,0.0,0.0,-100.0,0.0,0.0)" />
  </rdf:Description>
 </rdf:RDF>
</metadata>
<globalCoordinateSystem srsName="http://purl.org/crs/84" transform="matrix(100.0,0.0,0.0,-100.0,0.0,0.0)" />
<defs>
 <g id="p0" >
  <circle cx="0.0" cy="0.0" r="3" stroke="green" stroke-width="2.0" vector-effect="non-scaling-stroke" />
 </g>
</defs>
<g fill="#0000ff" fill-rule="evenodd" opacity="0.5" >
<path content="和歌山県,,,所属未定地,,30000" xlink:title="和歌山県" d="M13596.1766,-3360.6323L13596.1767,-3360.6328L13596.177,-3360.6329L13596.1772,-3360.6334L13596.1773,-3360.6338L13596.1778,-3360.6344L13596.1784,-3360.6349L13596.1789,-3360.635L13596.1796,-3360.6349L13596.18,-3360.6345L13596.1807,-3360.634L13596.1813,-3360.6339L13596.1824,-3360.6335L13596.1833,-3360.6328L13596.1836,-3360.6323L13596.1837,-3360.632L13596.1843,-3360.6315L13596.1846,-3360.6306L13596.1846,-3360.6298L13596.1847,-3360.6293L13596.1853,-3360.6294L13596.1863,-3360.6296L13596.1874,-3360.6297L13596.1881,-3360.6295L13596.1884,-3360.629L13596.1888,-3360.6288L13596.1896,-3360.6288L13596.1902,-3360.6284L13596.1909,-3360.6274L13596.1913,-3360.6273L13596.192,-3360.627L13596.1924,-3360.6266L13596.1927,-3360.6261L13596.1926,-3360.6253L13596.1918,-3360.6245L13596.191,-3360.6242L13596.1905,-3360.6239L13596.1901,-3360.6235L13596.1895,-3360.6233L13596.1895,-3360.6228L13596.1898,-3360.6224L13596.1908,-3360.6218L13596.1914,-3360.6216L13596.1925,-3360.6219L13596.1934,-3360.6226L13596.1941,-3360.6228L13596.1953,-3360.6227L13596.1967,-3360.6221L13596.1985,-3360.621L13596.199,-3360.6204L13596.1999,-3360.6202L13596.2007,-3360.6194L13596.2008,-3360.6189L13596.2006,-3360.6182L13596.2003,-3360.618L13596.2003,-3360.6175L13596.2005,-3360.617L13596.2003,-3360.6163L13596.1999,-3360.6158L13596.1993,-3360.6156L13596.1991,-3360.6155L13596.199,-3360.615L13596.1989,-3360.6143L13596.1986,-3360.6138L13596.1981,-3360.6135L13596.1964,-3360.613L13596.1953,-3360.6126L13596.1946,-3360.6126L13596.1931,-3360.6127L13596.1925,-3360.6128L13596.1924,-3360.6126L13596.1914,-3360.6123L13596.1907,-3360.6123L13596.1905,-3360.612L13596.1905,-3360.6115L13596.1904,-3360.6109L13596.1898,-3360.6105L13596.1893,-3360.6103L13596.1889,-3360.6103L13596.1885,-3360.6102L13596.1881,-3360.6099L13596.1867,-3360.6097L13596.1859,-3360.6097L13596.1857,-3360.6098L13596.1849,-3360.6093L13596.1841,-3360.6093L13596.1835,-3360.6094L13596.1828,-3360.6097L13596.1822,-3360.61L13596.1817,-3360.6098L13596.181,-3360.6097L13596.1792,-3360.6096L13596.1767,-3360.6096L13596.1758,-3360.6099L13596.1745,-3360.6107L13596.1743,-3360.6111L13596.1737,-3360.6115L13596.1732,-3360.6116L13596.1722,-3360.6123L13596.1719,-3360.6127L13596.1717,-3360.6133L13596.171,-3360.6133L13596.1701,-3360.6134L13596.1689,-3360.614L13596.1681,-3360.6145L13596.1675,-3360.615L13596.1672,-3360.6153L13596.1669,-3360.6165L13596.1668,-3360.6171L13596.1671,-3360.6177L13596.1673,-3360.6182L13596.167,-3360.6185L13596.1671,-3360.6192L13596.1673,-3360.6199L13596.1674,-3360.6201L13596.1671,-3360.6203L13596.1664,-3360.6204L13596.1655,-3360.6202L13596.1646,-3360.62L13596.1636,-3360.6198L13596.1632,-3360.6201L13596.1628,-3360.6202L13596.1621,-3360.6206L13596.162,-3360.621L13596.162,-3360.6215L13596.1625,-3360.6223L13596.1634,-3360.623L13596.1642,-3360.6232L13596.1649,-3360.6233L13596.1657,-3360.6237L13596.1662,-3360.6239L13596.1666,-3360.6241L13596.1671,-3360.6244L13596.1671,-3360.625L13596.1676,-3360.6254L13596.1687,-3360.6257L13596.1702,-3360.6257L13596.1712,-3360.6256L13596.1718,-3360.6255L13596.1725,-3360.6259L13596.1726,-3360.6262L13596.1733,-3360.6267L13596.174,-3360.6271L13596.1744,-3360.6272L13596.1742,-3360.6275L13596.1739,-3360.628L13596.1739,-3360.6286L13596.1748,-3360.6292L13596.1752,-3360.6295L13596.1753,-3360.6301L13596.1757,-3360.6309L13596.176,-3360.6311L13596.1765,-3360.6314L13596.1765,-3360.6317L13596.1766,-3360.6323Z"/>
<path content="和歌山県,,東牟婁郡,太地町,,30422" xlink:title="和歌山県" d="M13596.4626,-3359.6396L13596.4549,-3359.6343L13596.4458,-3359.6362L13596.4405,-3359.6413L13596.4404,-3359.6456L13596.4476,-3359.6558L13596.4528,-3359.6595L13596.458,-3359.659L13596.4612,-3359.6569L13596.4642,-3359.647L13596.4641,-3359.6425L13596.4626,-3359.6396Z"/>
</g>
</svg>
