<?xml version="1.0" encoding="UTF-8"?>
<svg  xmlns="http://www.w3.org/2000/svg" xmlns:xlink="http://www.w3.org/1999/xlink" xmlns:go="http://purl.org/svgmap/profile" property="geometry,N03_001,N03_002,N03_003,N03_004,N03_005,N03_007" viewBox="13605.46875 -3445.3125 35.15625 35.15625" go:dataArea="13605.46875 -3445.3125 35.15625 35.15625" >
<metadata>
 <rdf:RDF xmlns:rdf="http://www.w3.org/1999/02/22-rdf-syntax-ns#" xmlns:crs="http://opengis.org/xmldtds/transformations.dtd" xmlns:svg="http://www.w3.org/svg" >
  <rdf:Description>
   <crs:CoordinateReferenceSystem rdf:resource="http://purl.org/crs/84" svg:transform="matrix(100.0,0.0,0.0,-100.0,0.0,0.0)" />
  </rdf:Description>
 </rdf:RDF>
</metadata>
<globalCoordinateSystem srsName="http://purl.org/crs/84" transform="matrix(100.0,0.0,0.0,-100.0,0.0,0.0)" />
<defs>
 <g id="p0" >
  <circle cx="0.0" cy="0.0" r="3" stroke="green" stroke-width="2.0" vector-effect="non-scaling-stroke" />
 </g>
</defs>
<g fill="#0000ff" fill-rule="evenodd" opacity="0.5" >
<path content="奈良県,,宇陀郡,御杖村,,29386" xlink:title="奈良県" d="M13620.7778,-3445.3125L13620.7737,-3445.2681L13620.7712,-3445.2409L13620.7643,-3445.2006L13620.712,-3445.1487L13620.6911,-3445.1145L13620.6511,-3445.0684L13620.6458,-3445.0468L13620.6484,-3445.0061L13620.6498,-3445L13620.6586,-3444.9616L13620.6609,-3444.9181L13620.6526,-3444.9038L13620.6248,-3444.8677L13620.6044,-3444.8589L13620.5917,-3444.8534L13620.5569,-3444.8404L13620.536,-3444.8346L13620.4455,-3444.8735L13620.4156,-3444.8823L13620.3582,-3444.8837L13620.3338,-3444.8909L13620.2729,-3444.9197L13620.2479,-3444.9136L13620.2137,-3444.9053L13620.1841,-3444.9125L13620.1528,-3444.9428L13620.1215,-3444.95L13620.0793,-3444.9509L13620,-3444.9279L13619.9697,-3444.9191L13619.9105,-3444.9191L13619.8844,-3444.922L13619.8357,-3444.9494L13619.7922,-3444.9869L13619.7486,-3444.9955L13619.6986,-3444.9882L13619.6151,-3444.9622L13619.5954,-3444.9592L13619.5594,-3444.9536L13619.5228,-3444.955L13619.4689,-3444.9809L13619.4409,-3444.9853L13619.3817,-3444.9853L13619.2894,-3444.968L13619.185,-3444.9536L13619.1667,-3444.9629L13619.122,-3444.9856L13619.0415,-3445L13619.0175,-3445.0043L13618.9462,-3445.0187L13618.8522,-3445.0605L13618.8191,-3445.023L13618.7941,-3445L13618.7631,-3444.9714L13618.6326,-3444.8778L13618.6273,-3444.8742L13618.548,-3444.8204L13618.5369,-3444.8129L13618.4899,-3444.8115L13618.4603,-3444.7971L13618.3964,-3444.7541L13618.3443,-3444.7325L13618.3333,-3444.7302L13618.2781,-3444.7181L13618.243,-3444.6964L13618.1995,-3444.6575L13618.1751,-3444.6417L13618.1107,-3444.6374L13618.0446,-3444.659L13618.0081,-3444.6575L13617.9419,-3444.633L13617.8484,-3444.5521L13617.8119,-3444.5464L13617.751,-3444.5435L13617.7092,-3444.5622L13617.6814,-3444.5651L13617.6777,-3444.5649L13617.635,-3444.5624L13617.5561,-3444.5579L13617.5195,-3444.5593L13617.5,-3444.5633L13617.4551,-3444.5723L13617.3274,-3444.5811L13617.2596,-3444.5999L13617.2091,-3444.6099L13617.1604,-3444.6099L13617.1029,-3444.6171L13617.0333,-3444.6416L13616.9652,-3444.6945L13616.9112,-3444.7234L13616.8085,-3444.7449L13616.6667,-3444.8095L13616.6594,-3444.8128L13616.6471,-3444.8169L13616.5811,-3444.8388L13616.5445,-3444.8431L13616.4784,-3444.8272L13616.4297,-3444.833L13616.3548,-3444.8604L13616.3144,-3444.8574L13616.2639,-3444.8401L13616.1194,-3444.8344L13616.0637,-3444.8401L13616.022,-3444.8516L13615.975,-3444.8776L13615.9506,-3444.8891L13615.8427,-3444.9078L13615.8333,-3444.9043L13615.8236,-3444.9006L13615.7801,-3444.8214L13615.7074,-3444.7637L13615.6931,-3444.7377L13615.6612,-3444.6797L13615.609,-3444.6408L13615.5932,-3444.632L13615.5237,-3444.5933L13615.3737,-3444.5751L13615.3441,-3444.5636L13615.3267,-3444.5376L13615.3127,-3444.4368L13615.2987,-3444.3924L13615.2692,-3444.3651L13615.2257,-3444.3449L13615.21,-3444.3175L13615.1941,-3444.2588L13615.1715,-3444.217L13615.1437,-3444.1853L13615.1123,-3444.181L13615.0793,-3444.1897L13615.0031,-3444.1771L13615,-3444.1765L13614.9661,-3444.1709L13614.9378,-3444.1667L13614.9279,-3444.1652L13614.9129,-3444.1667L13614.8704,-3444.1709L13614.8622,-3444.1744L13614.8021,-3444.1997L13614.7673,-3444.2041L13614.6629,-3444.1738L13614.6194,-3444.1767L13614.5811,-3444.1709L13614.5719,-3444.1667L13614.5028,-3444.1349L13614.4215,-3444.109L13614.3902,-3444.1134L13614.3571,-3444.1436L13614.3096,-3444.1667L13614.3067,-3444.1681L13614.2666,-3444.1796L13614.1667,-3444.1811L13614.1657,-3444.1811L13614.0908,-3444.2012L13614.0313,-3444.2094L13613.9635,-3444.2049L13613.9442,-3444.2036L13613.9251,-3444.2065L13613.8781,-3444.2987L13613.862,-3444.3116L13613.8381,-3444.3099L13613.7309,-3444.277L13613.7011,-3444.2721L13613.6563,-3444.2756L13613.6375,-3444.277L13613.6136,-3444.2836L13613.5953,-3444.3064L13613.5516,-3444.3245L13613.5138,-3444.3607L13613.49,-3444.3788L13613.4463,-3444.3986L13613.4006,-3444.3952L13613.3748,-3444.41L13613.3589,-3444.4462L13613.347,-3444.466L13613.3333,-3444.4572L13613.291,-3444.4298L13613.2254,-3444.4183L13613.1996,-3444.4216L13613.1599,-3444.443L13613.142,-3444.4907L13613.1354,-3444.5037L13613.1321,-3444.5104L13613.1181,-3444.5187L13613.0665,-3444.517L13613.0267,-3444.5236L13612.9969,-3444.5433L13612.9669,-3444.5505L13612.9528,-3444.5454L13612.9365,-3444.5395L13612.91,-3444.5329L13612.8835,-3444.5384L13612.8371,-3444.5286L13612.7979,-3444.4899L13612.7026,-3444.4142L13612.6973,-3444.4022L13612.7066,-3444.3572L13612.6959,-3444.3462L13612.6602,-3444.3418L13612.6297,-3444.3484L13612.5529,-3444.344L13612.5066,-3444.3221L13612.5,-3444.3221L13612.4933,-3444.3221L13612.4334,-3444.3493L13612.2143,-3444.3329L13612.1694,-3444.3257L13612.1519,-3444.3226L13612.1229,-3444.3241L13612.0813,-3444.3225L13612.0523,-3444.3145L13612.0323,-3444.2974L13612.0064,-3444.2904L13611.9735,-3444.2856L13611.9256,-3444.2883L13611.8933,-3444.2963L13611.877,-3444.2995L13611.8739,-3444.3001L13611.8572,-3444.2979L13611.8294,-3444.2883L13611.8021,-3444.271L13611.7705,-3444.2298L13611.7517,-3444.21L13611.7181,-3444.1826L13611.7037,-3444.1667L13611.689,-3444.1505L13611.6819,-3444.1387L13611.6819,-3444.1077L13611.6736,-3444.083L13611.6667,-3444.0767L13611.6102,-3444.0256L13611.5721,-3443.9861L13611.5586,-3443.9754L13611.5106,-3443.9479L13611.4766,-3443.924L13611.4764,-3443.9239L13611.4545,-3443.8885L13611.4435,-3443.8586L13611.4331,-3443.8129L13611.4009,-3443.7594L13611.3912,-3443.7288L13611.3783,-3443.6941L13611.3666,-3443.6877L13611.3453,-3443.6828L13611.3039,-3443.6732L13611.2833,-3443.6657L13611.2671,-3443.6556L13611.2438,-3443.6391L13611.2361,-3443.6337L13611.194,-3443.5961L13611.1255,-3443.5704L13611.0958,-3443.5694L13611.0551,-3443.5736L13611.0294,-3443.5795L13610.9731,-3443.601L13610.9324,-3443.6031L13610.913,-3443.6004L13610.8891,-3443.593L13610.8411,-3443.5817L13610.8333,-3443.5804L13610.8056,-3443.5758L13610.7785,-3443.5801L13610.7546,-3443.579L13610.737,-3443.572L13610.6956,-3443.5372L13610.6827,-3443.5345L13610.6527,-3443.5373L13610.6362,-3443.5388L13610.5988,-3443.5351L13610.5678,-3443.5399L13610.5477,-3443.5537L13610.5226,-3443.5644L13610.4669,-3443.571L13610.3467,-3443.5918L13610.2343,-3443.5575L13610.1904,-3443.5468L13610.1723,-3443.5474L13610.1471,-3443.557L13610.0726,-3443.5838L13610.0577,-3443.5886L13610,-3443.5846L13609.9123,-3443.5784L13609.8755,-3443.5742L13609.7894,-3443.5479L13609.6925,-3443.5238L13609.6389,-3443.5206L13609.6173,-3443.5212L13609.5898,-3443.5222L13609.6116,-3443.5507L13609.6128,-3443.565L13609.6071,-3443.5924L13609.5819,-3443.6294L13609.575,-3443.6588L13609.5842,-3443.7232L13609.5796,-3443.7521L13609.567,-3443.7795L13609.5487,-3443.8136L13609.5395,-3443.843L13609.5367,-3443.8728L13609.5225,-3443.9632L13609.526,-3444.0064L13609.5195,-3444.0323L13609.5083,-3444.0822L13609.4911,-3444.1504L13609.4544,-3444.1667L13609.4314,-3444.1769L13609.4102,-3444.1954L13609.3653,-3444.2482L13609.3116,-3444.2712L13609.2785,-3444.2888L13609.2596,-3444.309L13609.2502,-3444.3191L13609.2419,-3444.3479L13609.2283,-3444.3658L13609.1793,-3444.4068L13609.1667,-3444.4261L13609.1526,-3444.4476L13609.1361,-3444.4984L13609.1047,-3444.5617L13609.09,-3444.5985L13609.087,-3444.6371L13609.1006,-3444.6904L13609.1024,-3444.717L13609.1,-3444.7371L13609.0864,-3444.7591L13609.0693,-3444.7869L13609.0628,-3444.8162L13609.0604,-3444.836L13609.0646,-3444.8746L13609.0699,-3444.8966L13609.0675,-3444.922L13609.0728,-3444.9594L13609.0586,-3444.9877L13609.0464,-3445L13609.0126,-3445.0337L13608.9847,-3445.0491L13608.9446,-3445.0632L13608.9334,-3445.0745L13608.9174,-3445.1009L13608.9077,-3445.1052L13608.8956,-3445.1106L13608.8543,-3445.1189L13608.8246,-3445.1322L13608.7963,-3445.1552L13608.7922,-3445.1762L13608.7922,-3445.2499L13608.7839,-3445.2683L13608.7727,-3445.2839L13608.7626,-3445.2917L13608.7491,-3445.3118L13608.7487,-3445.3125Z"/>
<path content="奈良県,,吉野郡,上北山村,,29451" xlink:title="奈良県" d="M13605.4688,-3410.1563L13605.4688,-3420.7174L13605.4978,-3420.7272L13605.5373,-3420.7292L13605.5936,-3420.7246L13605.6498,-3420.7165L13605.6887,-3420.7109L13605.7498,-3420.71L13605.7822,-3420.706L13605.7913,-3420.7021L13605.8079,-3420.6951L13605.8333,-3420.6749L13605.8459,-3420.665L13605.8717,-3420.6377L13605.8785,-3420.6284L13605.8834,-3420.5753L13605.8925,-3420.5491L13605.8976,-3420.5247L13605.9102,-3420.5034L13605.9414,-3420.4652L13605.9447,-3420.4611L13605.9529,-3420.4429L13605.9584,-3420.4124L13605.9652,-3420.4007L13605.9754,-3420.393L13606.0147,-3420.3728L13606.0556,-3420.3365L13606.083,-3420.3063L13606.1099,-3420.2557L13606.1353,-3420.2257L13606.1905,-3420.1727L13606.2087,-3420.1472L13606.2536,-3420.0899L13606.2971,-3420.0231L13606.3181,-3420L13606.3253,-3419.9921L13606.3637,-3419.9635L13606.3963,-3419.9477L13606.4148,-3419.9469L13606.5173,-3419.9578L13606.5441,-3419.9631L13606.5839,-3419.978L13606.6212,-3419.9902L13606.6343,-3419.9902L13606.6533,-3419.9862L13606.6667,-3419.9804L13606.6892,-3419.9708L13606.6916,-3419.9697L13606.7663,-3419.9327L13606.8171,-3419.9163L13606.8817,-3419.9115L13606.9176,-3419.9114L13606.9416,-3419.9145L13606.9889,-3419.9336L13607.0429,-3419.9524L13607.0916,-3419.9776L13607.145,-3419.9994L13607.1457,-3420L13607.1549,-3420.0076L13607.1676,-3420.0377L13607.168,-3420.0557L13607.1869,-3420.063L13607.2144,-3420.0646L13607.2489,-3420.0699L13607.2657,-3420.0742L13607.3028,-3420.0941L13607.3539,-3420.103L13607.4064,-3420.107L13607.4224,-3420.1038L13607.4823,-3420.0655L13607.5,-3420.0526L13607.5169,-3420.0403L13607.6135,-3420.0011L13607.6152,-3420L13607.6445,-3419.9816L13607.6571,-3419.9737L13607.6999,-3419.9364L13607.7172,-3419.9289L13607.7426,-3419.9253L13607.835,-3419.9335L13607.8929,-3419.9343L13607.9181,-3419.9315L13607.969,-3419.9132L13607.9937,-3419.903L13608.0064,-3419.8953L13608.0497,-3419.8692L13608.1187,-3419.8529L13608.1326,-3419.8462L13608.1823,-3419.9252L13608.1962,-3419.9357L13608.2114,-3419.9385L13608.2231,-3419.9372L13608.3093,-3419.9161L13608.3105,-3419.9158L13608.3333,-3419.9128L13608.345,-3419.9114L13608.4072,-3419.919L13608.4575,-3419.9299L13608.5003,-3419.9299L13608.5863,-3419.9045L13608.6214,-3419.8981L13608.6563,-3419.8916L13608.6925,-3419.8916L13608.7566,-3419.9096L13608.772,-3419.8709L13608.7849,-3419.8448L13608.8025,-3419.8279L13608.8321,-3419.8098L13608.8861,-3419.7823L13608.9199,-3419.7496L13608.9678,-3419.6967L13609.0001,-3419.6569L13609.0204,-3419.623L13609.0938,-3419.6165L13609.1667,-3419.6062L13609.1679,-3419.6061L13609.2134,-3419.5987L13609.2667,-3419.592L13609.3449,-3419.5698L13609.3423,-3419.5644L13609.345,-3419.5597L13609.3616,-3419.5465L13609.3676,-3419.5291L13609.3612,-3419.4425L13609.3683,-3419.4081L13609.4149,-3419.3548L13609.4156,-3419.3427L13609.4094,-3419.3196L13609.3549,-3419.2105L13609.333,-3419.1667L13609.3321,-3419.165L13609.3075,-3419.109L13609.2683,-3419.0394L13609.2674,-3419.0335L13609.2653,-3419.0183L13609.2688,-3419.0147L13609.4122,-3418.9898L13609.4501,-3418.9752L13609.4774,-3418.9452L13609.5216,-3418.8527L13609.5368,-3418.8378L13609.5884,-3418.798L13609.6055,-3418.7887L13609.6203,-3418.7806L13609.695,-3418.7583L13609.7653,-3418.733L13609.841,-3418.6869L13609.8847,-3418.6714L13609.9136,-3418.6629L13609.9424,-3418.6568L13609.9628,-3418.6525L13610,-3418.6422L13610.0007,-3418.6419L13610.0273,-3418.6341L13610.1021,-3418.6451L13610.178,-3418.6463L13610.278,-3418.6626L13610.316,-3418.6305L13610.3616,-3418.6159L13610.4507,-3418.5969L13610.5209,-3418.5774L13610.6199,-3418.5281L13610.6853,-3418.5106L13610.7309,-3418.5091L13610.7993,-3418.5116L13610.8333,-3418.5094L13610.8423,-3418.5088L13610.8865,-3418.5138L13610.9008,-3418.4996L13610.9016,-3418.4649L13610.8951,-3418.4422L13610.8896,-3418.4315L13610.8787,-3418.4102L13610.8765,-3418.3978L13610.8743,-3418.3853L13610.8877,-3418.3502L13610.8922,-3418.3333L13610.893,-3418.3303L13610.8915,-3418.3116L13610.8874,-3418.3002L13610.8614,-3418.2643L13610.8489,-3418.2395L13610.8454,-3418.2141L13610.8468,-3418.1931L13610.8536,-3418.1736L13610.8946,-3418.1184L13610.8936,-3418.1091L13610.8921,-3418.095L13610.8814,-3418.0782L13610.8529,-3418.0488L13610.8333,-3418.0285L13610.7785,-3417.9715L13610.7631,-3417.8759L13610.7569,-3417.8497L13610.7411,-3417.7956L13610.7254,-3417.7564L13610.7208,-3417.7403L13610.7203,-3417.6792L13610.7147,-3417.6258L13610.7151,-3417.611L13610.7121,-3417.6025L13610.7121,-3417.5896L13610.7119,-3417.5132L13610.6677,-3417.5256L13610.6525,-3417.5285L13610.6377,-3417.5313L13610.5593,-3417.5386L13610.5329,-3417.5328L13610.5256,-3417.5232L13610.5163,-3417.5L13610.5018,-3417.464L13610.4953,-3417.4383L13610.4807,-3417.4151L13610.4464,-3417.361L13610.4505,-3417.3415L13610.482,-3417.2949L13610.5016,-3417.2587L13610.5597,-3417.1618L13610.6154,-3417.1164L13610.6463,-3417.1009L13610.7166,-3417.074L13610.7766,-3417.0357L13610.8173,-3416.9989L13610.8333,-3416.9812L13610.8515,-3416.9614L13610.8689,-3416.9446L13610.9852,-3416.867L13611.0044,-3416.8479L13611.0814,-3416.8083L13611.2045,-3416.7558L13611.2081,-3416.7223L13611.1954,-3416.6667L13611.1907,-3416.6461L13611.176,-3416.622L13611.1348,-3416.5847L13611.1,-3416.5222L13611.0963,-3416.5001L13611.0991,-3416.4735L13611.1128,-3416.4598L13611.1458,-3416.4415L13611.2678,-3416.3956L13611.3384,-3416.3811L13611.3475,-3416.3712L13611.3769,-3416.3057L13611.3769,-3416.2837L13611.3649,-3416.2405L13611.3676,-3416.2223L13611.3737,-3416.2084L13611.4131,-3416.1655L13611.448,-3416.1352L13611.4654,-3416.0968L13611.4692,-3416.0816L13611.4716,-3416.0376L13611.4738,-3415.9981L13611.4685,-3415.9647L13611.4624,-3415.9533L13611.36,-3415.8988L13611.3023,-3415.8452L13611.2954,-3415.8333L13611.2711,-3415.7919L13611.2491,-3415.7704L13611.2089,-3415.7496L13611.1945,-3415.7351L13611.1565,-3415.6805L13611.1307,-3415.6023L13611.114,-3415.5115L13611.1003,-3415.4888L13611.0836,-3415.4717L13610.9765,-3415.4362L13610.8961,-3415.3996L13610.8602,-3415.3901L13610.8376,-3415.3901L13610.8333,-3415.3901L13610.8238,-3415.3901L13610.7699,-3415.4001L13610.7571,-3415.3989L13610.7396,-3415.3926L13610.7146,-3415.3768L13610.6073,-3415.2851L13610.5686,-3415.2517L13610.5625,-3415.2385L13610.5625,-3415.2221L13610.5626,-3415.2066L13610.5868,-3415.1385L13610.5868,-3415.1171L13610.5747,-3415.0874L13610.5717,-3415.0817L13610.5861,-3415.0395L13610.6046,-3415L13610.6104,-3414.9875L13610.6309,-3414.9617L13610.6453,-3414.9333L13610.646,-3414.9244L13610.6437,-3414.9169L13610.5853,-3414.8712L13610.5853,-3414.8617L13610.5883,-3414.8567L13610.6308,-3414.805L13610.6498,-3414.7627L13610.6544,-3414.7194L13610.6506,-3414.6992L13610.6446,-3414.6844L13610.6339,-3414.6576L13610.6331,-3414.6387L13610.6346,-3414.6134L13610.6589,-3414.5712L13610.6666,-3414.5356L13610.6681,-3414.5161L13610.6521,-3414.458L13610.6217,-3414.3858L13610.608,-3414.3732L13610.6004,-3414.3706L13610.5488,-3414.365L13610.52,-3414.3555L13610.4896,-3414.3442L13610.4146,-3414.3038L13610.3532,-3414.2703L13610.3217,-3414.2531L13610.2557,-3414.2266L13610.2406,-3414.2128L13610.2201,-3414.1812L13610.2125,-3414.1667L13610.2045,-3414.1514L13610.1949,-3414.1329L13610.1957,-3414.1071L13610.2025,-3414.0945L13610.2169,-3414.0705L13610.2556,-3414.0106L13610.2619,-3414.0044L13610.277,-3413.9896L13610.2966,-3413.9702L13610.3224,-3413.9479L13610.3414,-3413.9164L13610.3482,-3413.8931L13610.349,-3413.8634L13610.3384,-3413.8176L13610.3247,-3413.786L13610.2906,-3413.7292L13610.2876,-3413.7154L13610.2959,-3413.7066L13610.3126,-3413.7002L13610.3558,-3413.7021L13610.4264,-3413.7084L13610.4393,-3413.7053L13610.4484,-3413.694L13610.4491,-3413.6643L13610.4478,-3413.6493L13610.4402,-3413.6392L13610.4402,-3413.6336L13610.4675,-3413.5736L13610.478,-3413.5248L13610.4812,-3413.5099L13610.5024,-3413.4715L13610.5138,-3413.4172L13610.5419,-3413.3813L13610.5925,-3413.3333L13610.6141,-3413.3128L13610.6197,-3413.2974L13610.6255,-3413.2813L13610.6453,-3413.1962L13610.6551,-3413.1586L13610.6786,-3413.0981L13610.709,-3413.0501L13610.7364,-3413.012L13610.7614,-3412.9943L13610.7774,-3412.983L13610.8206,-3412.9578L13610.8237,-3412.9464L13610.8206,-3412.9136L13610.8093,-3412.8584L13610.788,-3412.8105L13610.7865,-3412.7991L13610.8,-3412.7772L13610.826,-3412.7346L13610.8333,-3412.7133L13610.8427,-3412.686L13610.8404,-3412.6784L13610.8333,-3412.6724L13610.7881,-3412.6343L13610.7212,-3412.5714L13610.7144,-3412.5513L13610.7098,-3412.5286L13610.7051,-3412.5L13610.7051,-3412.4997L13610.7022,-3412.4826L13610.6931,-3412.4529L13610.6718,-3412.4312L13610.6635,-3412.4268L13610.6417,-3412.4253L13610.6172,-3412.4236L13610.5808,-3412.3977L13610.5383,-3412.3795L13610.5224,-3412.3624L13610.5102,-3412.3183L13610.5064,-3412.3114L13610.5019,-3412.3101L13610.4835,-3412.3074L13610.4771,-3412.3013L13610.4684,-3412.2929L13610.4198,-3412.2835L13610.3422,-3412.2543L13610.2298,-3412.2424L13610.2231,-3412.2417L13610.2106,-3412.2388L13610.1662,-3412.2284L13610.1196,-3412.2024L13610.0703,-3412.1608L13610.0125,-3412.0867L13610,-3412.0701L13609.9898,-3412.0565L13609.9701,-3412.0451L13609.9678,-3412.042L13609.9807,-3411.9852L13609.9807,-3411.9599L13609.9807,-3411.9521L13609.9738,-3411.9439L13609.9511,-3411.9181L13609.9404,-3411.8947L13609.9404,-3411.8852L13609.9427,-3411.8739L13609.9518,-3411.8619L13609.9632,-3411.8524L13610,-3411.839L13610.0064,-3411.8367L13610.0262,-3411.8247L13610.0323,-3411.8045L13610.0247,-3411.7689L13610.0072,-3411.7235L13610.0057,-3411.7014L13610.0114,-3411.6871L13610.0298,-3411.6717L13610.037,-3411.671L13610.0781,-3411.6667L13610.1684,-3411.6572L13610.174,-3411.651L13610.1629,-3411.6249L13610.1638,-3411.6103L13610.1777,-3411.5942L13610.2821,-3411.5474L13610.3073,-3411.5296L13610.3294,-3411.5273L13610.3784,-3411.5273L13610.3987,-3411.5219L13610.4061,-3411.5104L13610.4505,-3411.4158L13610.4549,-3411.4065L13610.4407,-3411.3398L13610.4478,-3411.3098L13610.4769,-3411.2149L13610.5086,-3411.16L13610.5069,-3411.1175L13610.5078,-3411.108L13610.5369,-3411.0794L13610.5474,-3411.0626L13610.5475,-3411.0204L13610.5483,-3411.0116L13610.5677,-3410.9794L13610.5686,-3410.964L13610.5677,-3410.9537L13610.551,-3410.9332L13610.5281,-3410.9156L13610.4805,-3410.8929L13610.4073,-3410.8754L13610.3985,-3410.8684L13610.3967,-3410.8589L13610.3955,-3410.8333L13610.3941,-3410.8017L13610.3764,-3410.7644L13610.3764,-3410.7519L13610.3914,-3410.7168L13610.3976,-3410.6585L13610.4103,-3410.6281L13610.4108,-3410.627L13610.4302,-3410.5904L13610.5087,-3410.5081L13610.5793,-3410.4561L13610.6242,-3410.4268L13610.6385,-3410.4038L13610.6447,-3410.3994L13610.7329,-3410.3606L13610.7363,-3410.3591L13610.7804,-3410.3328L13610.7866,-3410.3196L13610.7866,-3410.3093L13610.7715,-3410.2942L13610.6879,-3410.2102L13610.6265,-3410.1562Z"/>
<path content="奈良県,,吉野郡,川上村,,29452" xlink:title="奈良県" d="M13605.4688,-3434.5919L13605.5133,-3434.6039L13605.6329,-3434.621L13605.7486,-3434.6366L13605.8244,-3434.6304L13605.8333,-3434.6284L13605.8675,-3434.6206L13605.9382,-3434.5926L13605.9933,-3434.5836L13606.0209,-3434.5791L13606.0615,-3434.576L13606.1147,-3434.5848L13606.2318,-3434.616L13606.2812,-3434.6284L13606.347,-3434.6352L13606.3695,-3434.6409L13606.3857,-3434.6538L13606.4051,-3434.686L13606.4308,-3434.7218L13606.4526,-3434.7554L13606.4652,-3434.7975L13606.4796,-3434.8141L13606.5204,-3434.8432L13606.5204,-3434.8469L13606.5135,-3434.8593L13606.511,-3434.8764L13606.5171,-3434.9166L13606.5342,-3434.9942L13606.5343,-3435L13606.5354,-3435.0452L13606.5403,-3435.0719L13606.5463,-3435.0906L13606.5522,-3435.1072L13606.5742,-3435.1479L13606.5892,-3435.1768L13606.6061,-3435.2096L13606.6319,-3435.2451L13606.6662,-3435.2819L13606.6667,-3435.2832L13606.6719,-3435.299L13606.6731,-3435.3311L13606.68,-3435.3482L13606.7307,-3435.3941L13606.7988,-3435.4697L13606.844,-3435.5067L13606.8533,-3435.5191L13606.8527,-3435.543L13606.8483,-3435.5616L13606.8427,-3435.5772L13606.8254,-3435.6046L13606.819,-3435.6147L13606.7921,-3435.639L13606.7496,-3435.6696L13606.7164,-3435.6992L13606.6839,-3435.7324L13606.6667,-3435.7522L13606.6294,-3435.7952L13606.6051,-3435.8253L13606.6012,-3435.8333L13606.57,-3435.8985L13606.5551,-3435.9308L13606.5512,-3435.9391L13606.5375,-3435.9541L13606.5256,-3435.967L13606.5225,-3435.9795L13606.5375,-3436.0289L13606.5368,-3436.0522L13606.5393,-3436.0584L13606.5518,-3436.0631L13606.5969,-3436.0631L13606.6194,-3436.0677L13606.6294,-3436.0729L13606.6381,-3436.0848L13606.6667,-3436.1388L13606.6744,-3436.1534L13606.6819,-3436.171L13606.6969,-3436.185L13606.7175,-3436.2006L13606.7727,-3436.2371L13606.7809,-3436.25L13606.7827,-3436.2656L13606.7827,-3436.2842L13606.7934,-3436.3113L13606.819,-3436.3677L13606.8565,-3436.4073L13606.8741,-3436.4156L13606.9146,-3436.4187L13607.0098,-3436.4208L13607.0686,-3436.4275L13607.1281,-3436.4306L13607.1456,-3436.429L13607.1631,-3436.4249L13607.2062,-3436.4033L13607.2137,-3436.3995L13607.2907,-3436.3632L13607.3539,-3436.3399L13607.3802,-3436.3337L13607.4233,-3436.3316L13607.5,-3436.3327L13607.5629,-3436.3337L13607.6448,-3436.3285L13607.7131,-3436.3181L13607.7593,-3436.3109L13607.8093,-3436.3098L13607.9176,-3436.3202L13607.9364,-3436.3202L13607.9683,-3436.315L13607.982,-3436.314L13607.9983,-3436.3186L13608.0372,-3436.3327L13608.0891,-3436.3612L13608.1435,-3436.3751L13608.1727,-3436.383L13608.2024,-3436.3866L13608.2593,-3436.3886L13608.2701,-3436.3885L13608.3112,-3436.3881L13608.3333,-3436.3839L13608.3687,-3436.3772L13608.4489,-3436.3632L13608.4902,-3436.3596L13608.5421,-3436.355L13608.6267,-3436.3347L13608.644,-3436.3363L13608.668,-3436.3409L13608.7254,-3436.3569L13608.7731,-3436.3653L13608.8219,-3436.3591L13608.8513,-3436.3487L13608.8882,-3436.3223L13608.9146,-3436.2972L13608.9396,-3436.2506L13608.948,-3436.2418L13608.9584,-3436.2335L13608.9632,-3436.2326L13608.9664,-3436.232L13608.974,-3436.232L13609.0122,-3436.2439L13609.0806,-3436.2546L13609.1199,-3436.2316L13609.1667,-3436.2133L13609.1889,-3436.2046L13609.2393,-3436.1903L13609.3199,-3436.1725L13609.3811,-3436.1565L13609.4188,-3436.1403L13609.45,-3436.1189L13609.4994,-3436.0736L13609.5359,-3436.0209L13609.5521,-3435.9809L13609.5542,-3435.9319L13609.5564,-3435.8373L13609.5569,-3435.8333L13609.5596,-3435.8151L13609.5778,-3435.7732L13609.5941,-3435.7319L13609.6059,-3435.7114L13609.6126,-3435.7032L13609.6403,-3435.6696L13609.6979,-3435.6067L13609.7187,-3435.5839L13609.7306,-3435.5546L13609.7434,-3435.5145L13609.7493,-3435.4862L13609.751,-3435.4574L13609.7435,-3435.4271L13609.7327,-3435.3977L13609.7328,-3435.3814L13609.7403,-3435.3681L13609.8123,-3435.2968L13609.8509,-3435.2488L13609.8606,-3435.2265L13609.8627,-3435.2105L13609.8563,-3435.1927L13609.8305,-3435.1577L13609.8166,-3435.1434L13609.7983,-3435.1274L13609.7822,-3435.1051L13609.7596,-3435.0579L13609.7242,-3435.0087L13609.7087,-3435L13609.7005,-3434.9954L13609.6844,-3434.9758L13609.6726,-3434.9536L13609.6721,-3434.9392L13609.6716,-3434.9269L13609.6791,-3434.8984L13609.7167,-3434.8108L13609.7187,-3434.8023L13609.7317,-3434.7492L13609.7425,-3434.7225L13609.7747,-3434.6833L13609.7897,-3434.6459L13609.8177,-3434.5575L13609.8402,-3434.5174L13609.8724,-3434.4854L13609.9585,-3434.3935L13610,-3434.3463L13610.0047,-3434.341L13610.0273,-3434.3132L13610.0413,-3434.3052L13610.0724,-3434.2981L13610.1154,-3434.2945L13610.1433,-3434.291L13610.1637,-3434.2776L13610.1949,-3434.2411L13610.2068,-3434.2159L13610.2079,-3434.1776L13610.207,-3434.1667L13610.2036,-3434.1222L13610.2047,-3434.0901L13610.1939,-3434.0661L13610.1938,-3434.066L13610.1606,-3434.0314L13610.1305,-3434.0017L13610.123,-3433.9839L13610.1219,-3433.9608L13610.1305,-3433.9172L13610.1263,-3433.9012L13610.1198,-3433.8673L13610.1176,-3433.8371L13610.1316,-3433.7952L13610.166,-3433.7219L13610.205,-3433.6639L13610.2105,-3433.6362L13610.2363,-3433.6048L13610.3196,-3433.5434L13610.3789,-3433.5194L13610.3885,-3433.5079L13610.4034,-3433.4752L13610.4623,-3433.4404L13610.5035,-3433.4332L13610.5386,-3433.4083L13610.5827,-3433.368L13610.6014,-3433.3333L13610.6019,-3433.3323L13610.6104,-3433.3019L13610.6883,-3433.2502L13610.6888,-3433.2498L13610.8333,-3433.116L13610.8644,-3433.0872L13610.8734,-3433.0001L13610.8743,-3432.9914L13610.8975,-3432.931L13610.9231,-3432.9107L13611.0908,-3432.8476L13611.2565,-3432.8218L13611.3471,-3432.8093L13611.3909,-3432.7778L13611.4417,-3432.7071L13611.5351,-3432.6319L13611.5767,-3432.6167L13611.5909,-3432.6144L13611.6464,-3432.6058L13611.6667,-3432.6089L13611.7736,-3432.6256L13611.7756,-3432.6254L13611.8581,-3432.6174L13611.9298,-3432.6256L13611.9657,-3432.6404L13612.012,-3432.6787L13612.04,-3432.6794L13612.1554,-3432.6186L13612.1726,-3432.593L13612.1868,-3432.5623L13612.2143,-3432.5379L13612.2217,-3432.5423L13612.2386,-3432.5L13612.2492,-3432.4734L13612.2818,-3432.4083L13612.2931,-3432.339L13612.3011,-3432.3267L13612.3471,-3432.2557L13612.4091,-3432.1598L13612.5,-3432.0914L13612.5248,-3432.0728L13612.5803,-3432.0092L13612.6404,-3431.9223L13612.6785,-3431.9014L13612.7484,-3431.8698L13612.7714,-3431.8559L13612.8032,-3431.8211L13612.8552,-3431.7224L13612.9058,-3431.6667L13612.9505,-3431.6174L13612.9354,-3431.5914L13612.8567,-3431.5302L13612.8542,-3431.529L13612.7835,-3431.4939L13612.7274,-3431.4712L13612.6354,-3431.4378L13612.59,-3431.3977L13612.525,-3431.3334L13612.5,-3431.299L13612.4908,-3431.2862L13612.4456,-3431.2291L13612.3971,-3431.1841L13612.3046,-3431.1182L13612.2523,-3431.0569L13612.2311,-3431.0428L13612.2143,-3431.0394L13612.1441,-3431.0192L13612.0945,-3431.0231L13612.0047,-3431.0441L13611.9504,-3431.0464L13611.8662,-3431.0317L13611.8017,-3431.0068L13611.7105,-3430.9834L13611.6667,-3430.9736L13611.631,-3430.9656L13611.602,-3430.947L13611.5693,-3430.9089L13611.4944,-3430.8812L13611.4553,-3430.8333L13611.3734,-3430.7331L13611.3317,-3430.6702L13611.3232,-3430.6574L13611.3126,-3430.6415L13611.2144,-3430.6174L13611.1966,-3430.5895L13611.1964,-3430.5185L13611.1646,-3430.5014L13611.0103,-3430.527L13610.9017,-3430.4742L13610.8333,-3430.4586L13610.8198,-3430.4555L13610.788,-3430.4602L13610.7187,-3430.4827L13610.6654,-3430.4757L13610.5167,-3430.5277L13610.469,-3430.5479L13610.3952,-3430.5504L13610.3324,-3430.5526L13610.2478,-3430.5533L13610.1645,-3430.5339L13610.1009,-3430.5371L13610.0644,-3430.5456L13610.036,-3430.5541L13610.0047,-3430.5391L13610,-3430.5354L13609.9363,-3430.4851L13609.877,-3430.4426L13609.7478,-3430.3587L13609.6743,-3430.3309L13609.6417,-3430.3154L13609.6002,-3430.3052L13609.5774,-3430.2944L13609.5666,-3430.2794L13609.55,-3430.2565L13609.5021,-3430.1768L13609.4978,-3430.1654L13609.4904,-3430.1451L13609.5125,-3430.0863L13609.5601,-3430.0069L13609.5592,-3430L13609.5488,-3429.9184L13609.5666,-3429.8531L13609.577,-3429.7915L13609.6116,-3429.7294L13609.6174,-3429.6769L13609.6127,-3429.5822L13609.6099,-3429.524L13609.5921,-3429.4397L13609.5921,-3429.3784L13609.623,-3429.3544L13609.6735,-3429.3319L13609.6796,-3429.323L13609.698,-3429.2962L13609.7459,-3429.1667L13609.7603,-3429.1276L13609.7854,-3429.1033L13609.7705,-3428.9752L13609.7829,-3428.8822L13609.8054,-3428.8667L13609.8975,-3428.8594L13610,-3428.8242L13610.0145,-3428.8192L13610.0534,-3428.7896L13610.1119,-3428.6533L13610.1443,-3428.6119L13610.1458,-3428.611L13610.2078,-3428.5727L13610.3285,-3428.5386L13610.3787,-3428.5059L13610.4696,-3428.3902L13610.5177,-3428.3333L13610.5456,-3428.3003L13610.7373,-3428.2301L13610.7859,-3428.1712L13610.8333,-3428.1621L13610.9153,-3428.1464L13610.9658,-3428.1335L13611.0031,-3428.1039L13611.0231,-3428.0881L13611.0455,-3428.087L13611.1377,-3428.0932L13611.1987,-3428.0736L13611.2323,-3428.0034L13611.3419,-3427.8763L13611.3485,-3427.7733L13611.3784,-3427.7134L13611.4382,-3427.6504L13611.4681,-3427.5739L13611.4724,-3427.5217L13611.4742,-3427.5L13611.4756,-3427.4824L13611.5258,-3427.4111L13611.5279,-3427.4081L13611.574,-3427.406L13611.6667,-3427.3989L13611.6686,-3427.3988L13611.6667,-3427.3878L13611.6562,-3427.3296L13611.6667,-3427.3159L13611.7023,-3427.2696L13611.7072,-3427.2169L13611.7236,-3427.1711L13611.7236,-3427.1101L13611.756,-3427.0843L13611.8183,-3427.0512L13611.856,-3427.0403L13611.8755,-3427.0347L13611.9191,-3427.0047L13611.9465,-3427.0047L13612.0237,-3427.0275L13612.0548,-3427.0172L13612.0626,-3426.9776L13612.0925,-3426.9362L13612.0863,-3426.8949L13612.0726,-3426.8687L13612.0784,-3426.8563L13612.0937,-3426.8233L13612.1834,-3426.7127L13612.1863,-3426.6987L13612.1778,-3426.6836L13612.1553,-3426.6667L13612.1336,-3426.6504L13612.0789,-3426.6248L13611.9837,-3426.5915L13611.9356,-3426.5667L13611.8979,-3426.5222L13611.8751,-3426.4936L13611.8608,-3426.4362L13611.8603,-3426.4343L13611.8494,-3426.3379L13611.8513,-3426.3205L13611.9007,-3426.2581L13611.8995,-3426.2261L13611.8709,-3426.1455L13611.8587,-3426.1292L13611.8064,-3426.0596L13612.0513,-3426.0205L13612.2144,-3425.9472L13612.2287,-3425.9391L13612.2613,-3425.8979L13612.2824,-3425.8572L13612.3204,-3425.8383L13612.3656,-3425.8333L13612.4259,-3425.8267L13612.4892,-3425.8302L13612.5,-3425.8295L13612.5244,-3425.8278L13612.5541,-3425.8112L13612.6118,-3425.7611L13612.6401,-3425.7336L13612.7455,-3425.6805L13612.7806,-3425.6654L13612.7893,-3425.6054L13612.8048,-3425.4875L13612.8189,-3425.4396L13612.8372,-3425.4006L13612.8555,-3425.3843L13612.8922,-3425.3729L13612.961,-3425.3516L13613.0018,-3425.3399L13613.0159,-3425.3315L13613.0897,-3425.2661L13613.1849,-3425.1896L13613.1825,-3425.186L13613.1687,-3425.1854L13613.1518,-3425.1824L13613.1353,-3425.1729L13613.1006,-3425.1348L13613.0336,-3425.0594L13613.0004,-3425.0169L13612.9889,-3425L13612.9681,-3424.9695L13612.954,-3424.9446L13612.9393,-3424.9096L13612.9381,-3424.8964L13612.9385,-3424.8824L13612.9505,-3424.8634L13613.0173,-3424.8173L13613.0317,-3424.7924L13613.033,-3424.7679L13613.0287,-3424.738L13613.0312,-3424.7263L13613.0366,-3424.7123L13613.0641,-3424.6612L13613.0636,-3424.6494L13613.0627,-3424.6341L13613.0595,-3424.597L13613.0588,-3424.589L13613.0522,-3424.5566L13613.0606,-3424.4532L13613.06,-3424.4183L13613.0306,-3424.2873L13612.9705,-3424.2913L13612.8364,-3424.2706L13612.7896,-3424.2477L13612.7398,-3424.2237L13612.7058,-3424.2073L13612.6549,-3424.1812L13612.6283,-3424.1667L13612.5923,-3424.1471L13612.5634,-3424.149L13612.5073,-3424.1427L13612.5,-3424.1407L13612.4693,-3424.1319L13612.4201,-3424.0743L13612.3988,-3424.0599L13612.3749,-3424.0437L13612.3117,-3424.0003L13612.26,-3423.9781L13612.2508,-3423.9602L13612.2305,-3423.8951L13612.2251,-3423.8852L13612.2145,-3423.8786L13612.1839,-3423.8556L13612.1748,-3423.8436L13612.1659,-3423.8094L13612.1615,-3423.7853L13612.1553,-3423.7765L13612.1242,-3423.7103L13612.111,-3423.6904L13612.0983,-3423.6852L13612.0946,-3423.6837L13612.0347,-3423.6707L13612.0172,-3423.661L13611.9864,-3423.6391L13611.9648,-3423.5868L13611.9069,-3423.5357L13611.8796,-3423.4904L13611.8031,-3423.448L13611.7442,-3423.3947L13611.7414,-3423.3831L13611.7458,-3423.3333L13611.7477,-3423.3121L13611.7433,-3423.2965L13611.7081,-3423.2387L13611.6983,-3423.2224L13611.6667,-3423.1801L13611.6477,-3423.1547L13611.6454,-3423.1462L13611.6551,-3423.0817L13611.6617,-3423.0388L13611.6551,-3423.0349L13611.6327,-3423.0219L13611.6055,-3422.9972L13611.5908,-3422.9778L13611.5782,-3422.9625L13611.5364,-3422.9587L13611.531,-3422.9582L13611.4703,-3422.9467L13611.4555,-3422.9426L13611.3617,-3422.8854L13611.3571,-3422.8859L13611.3131,-3422.9016L13611.2992,-3422.9051L13611.2426,-3422.9187L13611.2265,-3422.9205L13611.1976,-3422.9184L13611.1149,-3422.9212L13611.0876,-3422.9282L13611.0667,-3422.9355L13611.0485,-3422.9296L13611.0227,-3422.9005L13610.9947,-3422.8589L13610.9807,-3422.8384L13610.9746,-3422.824L13610.9688,-3422.8103L13610.9714,-3422.8037L13610.9964,-3422.7901L13611.0145,-3422.7759L13611.0583,-3422.722L13611.0542,-3422.7176L13611.0084,-3422.6782L13610.9961,-3422.6672L13610.9922,-3422.6612L13610.9935,-3422.6461L13610.998,-3422.633L13610.9884,-3422.5843L13610.9949,-3422.5501L13610.9936,-3422.5372L13610.9752,-3422.5L13610.9675,-3422.4843L13610.9591,-3422.45L13610.9573,-3422.435L13610.9587,-3422.4281L13610.965,-3422.4221L13611.0758,-3422.3958L13611.0939,-3422.3944L13611.1163,-3422.4L13611.1411,-3422.4059L13611.2012,-3422.4429L13611.2096,-3422.446L13611.2299,-3422.4478L13611.3138,-3422.4338L13611.3281,-3422.4275L13611.3697,-3422.3885L13611.4118,-3422.366L13611.4292,-3422.3622L13611.4505,-3422.3616L13611.4659,-3422.3611L13611.4918,-3422.3536L13611.5175,-3422.3433L13611.5269,-3422.3401L13611.5664,-3422.3376L13611.6196,-3422.351L13611.6553,-3422.353L13611.6667,-3422.3495L13611.6796,-3422.3456L13611.7,-3422.3357L13611.7298,-3422.311L13611.7276,-3422.2987L13611.7077,-3422.2407L13611.687,-3422.154L13611.6874,-3422.1466L13611.6886,-3422.1202L13611.7009,-3422.0992L13611.7191,-3422.0826L13611.7255,-3422.0669L13611.7379,-3422.0042L13611.7421,-3421.9567L13611.7361,-3421.9451L13611.722,-3421.9352L13611.6939,-3421.9213L13611.6824,-3421.9096L13611.6868,-3421.836L13611.6968,-3421.8145L13611.7147,-3421.7983L13611.7291,-3421.7074L13611.7316,-3421.7019L13611.7397,-3421.6838L13611.7538,-3421.6667L13611.7776,-3421.6376L13611.8457,-3421.5754L13611.8735,-3421.5506L13611.8744,-3421.5401L13611.8722,-3421.5341L13611.8497,-3421.5163L13611.8383,-3421.498L13611.8279,-3421.4369L13611.8245,-3421.428L13611.8173,-3421.4201L13611.8041,-3421.4144L13611.7389,-3421.4001L13611.7272,-3421.3926L13611.7006,-3421.3588L13611.695,-3421.3381L13611.7021,-3421.2826L13611.6939,-3421.2564L13611.6827,-3421.2354L13611.6667,-3421.2185L13611.6633,-3421.2149L13611.6342,-3421.1707L13611.5466,-3421.0835L13611.5352,-3421.0601L13611.5352,-3421.0389L13611.5308,-3421.0375L13611.4822,-3421.0574L13611.4604,-3421.0637L13611.4382,-3421.0641L13611.4284,-3421.0643L13611.3916,-3421.0562L13611.3498,-3421.044L13611.3297,-3421.0426L13611.2989,-3421.0434L13611.2541,-3421.0502L13611.2303,-3421.0521L13611.2156,-3421.0555L13611.14,-3421.0924L13611.0929,-3421.1099L13611.0304,-3421.1244L13611.0027,-3421.1276L13610.9741,-3421.1244L13610.8729,-3421.0864L13610.8333,-3421.068L13610.8007,-3421.0528L13610.7787,-3421.0222L13610.7495,-3420.964L13610.7224,-3420.9323L13610.7201,-3420.9198L13610.7257,-3420.8844L13610.7221,-3420.8335L13610.7221,-3420.8333L13610.7204,-3420.7824L13610.7308,-3420.7568L13610.7422,-3420.7437L13610.7403,-3420.7381L13610.7333,-3420.7316L13610.7121,-3420.7119L13610.7016,-3420.699L13610.6778,-3420.6693L13610.6706,-3420.6642L13610.6439,-3420.6638L13610.6086,-3420.6513L13610.5628,-3420.6236L13610.5461,-3420.617L13610.5274,-3420.6172L13610.4862,-3420.6177L13610.4648,-3420.6172L13610.4334,-3420.6091L13610.3978,-3420.5927L13610.371,-3420.5735L13610.3463,-3420.5559L13610.2898,-3420.5343L13610.1954,-3420.4833L13610.18,-3420.4683L13610.1646,-3420.4476L13610.1527,-3420.4224L13610.1478,-3420.4013L13610.1447,-3420.3846L13610.1447,-3420.359L13610.1386,-3420.3502L13610.0274,-3420.337L13610.008,-3420.3313L13610,-3420.3235L13609.9855,-3420.3094L13609.9767,-3420.3031L13609.9486,-3420.297L13609.8749,-3420.2796L13609.7848,-3420.2582L13609.7646,-3420.2509L13609.7576,-3420.2472L13609.7434,-3420.2135L13609.7294,-3420.1976L13609.7077,-3420.108L13609.6995,-3420.0826L13609.6844,-3420.0364L13609.689,-3420L13609.6953,-3419.9505L13609.692,-3419.9311L13609.6562,-3419.8408L13609.6536,-3419.8291L13609.6175,-3419.8174L13609.5574,-3419.7491L13609.4016,-3419.6394L13609.3769,-3419.6175L13609.3449,-3419.5698L13609.2667,-3419.592L13609.2134,-3419.5987L13609.1679,-3419.6061L13609.1667,-3419.6062L13609.0938,-3419.6165L13609.0204,-3419.623L13609.0001,-3419.6569L13608.9678,-3419.6967L13608.9199,-3419.7496L13608.8861,-3419.7823L13608.8321,-3419.8098L13608.8025,-3419.8279L13608.7849,-3419.8448L13608.772,-3419.8709L13608.7566,-3419.9096L13608.6925,-3419.8916L13608.6563,-3419.8916L13608.6214,-3419.8981L13608.5863,-3419.9045L13608.5003,-3419.9299L13608.4575,-3419.9299L13608.4072,-3419.919L13608.345,-3419.9114L13608.3333,-3419.9128L13608.3105,-3419.9158L13608.3093,-3419.9161L13608.2231,-3419.9372L13608.2114,-3419.9385L13608.1962,-3419.9357L13608.1823,-3419.9252L13608.1326,-3419.8462L13608.1187,-3419.8529L13608.0497,-3419.8692L13608.0064,-3419.8953L13607.9937,-3419.903L13607.969,-3419.9132L13607.9181,-3419.9315L13607.8929,-3419.9343L13607.835,-3419.9335L13607.7426,-3419.9253L13607.7172,-3419.9289L13607.6999,-3419.9364L13607.6571,-3419.9737L13607.6445,-3419.9816L13607.6152,-3420L13607.6135,-3420.0011L13607.5169,-3420.0403L13607.5,-3420.0526L13607.4823,-3420.0655L13607.4224,-3420.1038L13607.4064,-3420.107L13607.3539,-3420.103L13607.3028,-3420.0941L13607.2657,-3420.0742L13607.2489,-3420.0699L13607.2144,-3420.0646L13607.1869,-3420.063L13607.168,-3420.0557L13607.1676,-3420.0377L13607.1549,-3420.0076L13607.1457,-3420L13607.145,-3419.9994L13607.0916,-3419.9776L13607.0429,-3419.9524L13606.9889,-3419.9336L13606.9416,-3419.9145L13606.9176,-3419.9114L13606.8817,-3419.9115L13606.8171,-3419.9163L13606.7663,-3419.9327L13606.6916,-3419.9697L13606.6892,-3419.9708L13606.6667,-3419.9804L13606.6533,-3419.9862L13606.6343,-3419.9902L13606.6212,-3419.9902L13606.5839,-3419.978L13606.5441,-3419.9631L13606.5173,-3419.9578L13606.4148,-3419.9469L13606.3963,-3419.9477L13606.3637,-3419.9635L13606.3253,-3419.9921L13606.3181,-3420L13606.2971,-3420.0231L13606.2536,-3420.0899L13606.2087,-3420.1472L13606.1905,-3420.1727L13606.1353,-3420.2257L13606.1099,-3420.2557L13606.083,-3420.3063L13606.0556,-3420.3365L13606.0147,-3420.3728L13605.9754,-3420.393L13605.9652,-3420.4007L13605.9584,-3420.4124L13605.9529,-3420.4429L13605.9447,-3420.4611L13605.9414,-3420.4652L13605.9102,-3420.5034L13605.8976,-3420.5247L13605.8925,-3420.5491L13605.8834,-3420.5753L13605.8785,-3420.6284L13605.8717,-3420.6377L13605.8459,-3420.665L13605.8333,-3420.6749L13605.8079,-3420.6951L13605.7913,-3420.7021L13605.7822,-3420.706L13605.7498,-3420.71L13605.6887,-3420.7109L13605.6498,-3420.7165L13605.5936,-3420.7246L13605.5373,-3420.7292L13605.4978,-3420.7272L13605.4688,-3420.7174Z"/>
<path content="奈良県,,吉野郡,東吉野村,,29453" xlink:title="奈良県" d="M13605.4688,-3445.3125L13608.7487,-3445.3125L13608.7491,-3445.3118L13608.7626,-3445.2917L13608.7727,-3445.2839L13608.7839,-3445.2683L13608.7922,-3445.2499L13608.7922,-3445.1762L13608.7963,-3445.1552L13608.8246,-3445.1322L13608.8543,-3445.1189L13608.8956,-3445.1106L13608.9077,-3445.1052L13608.9174,-3445.1009L13608.9334,-3445.0745L13608.9446,-3445.0632L13608.9847,-3445.0491L13609.0126,-3445.0337L13609.0464,-3445L13609.0586,-3444.9877L13609.0728,-3444.9594L13609.0675,-3444.922L13609.0699,-3444.8966L13609.0646,-3444.8746L13609.0604,-3444.836L13609.0628,-3444.8162L13609.0693,-3444.7869L13609.0864,-3444.7591L13609.1,-3444.7371L13609.1024,-3444.717L13609.1006,-3444.6904L13609.087,-3444.6371L13609.09,-3444.5985L13609.1047,-3444.5617L13609.1361,-3444.4984L13609.1526,-3444.4476L13609.1667,-3444.4261L13609.1793,-3444.4068L13609.2283,-3444.3658L13609.2419,-3444.3479L13609.2502,-3444.3191L13609.2596,-3444.309L13609.2785,-3444.2888L13609.3116,-3444.2712L13609.3653,-3444.2482L13609.4102,-3444.1954L13609.4314,-3444.1769L13609.4544,-3444.1667L13609.4911,-3444.1504L13609.5083,-3444.0822L13609.5195,-3444.0323L13609.526,-3444.0064L13609.5225,-3443.9632L13609.5367,-3443.8728L13609.5395,-3443.843L13609.5487,-3443.8136L13609.567,-3443.7795L13609.5796,-3443.7521L13609.5842,-3443.7232L13609.575,-3443.6588L13609.5819,-3443.6294L13609.6071,-3443.5924L13609.6128,-3443.565L13609.6116,-3443.5507L13609.5898,-3443.5222L13609.562,-3443.4974L13609.5426,-3443.4779L13609.5297,-3443.4648L13609.4792,-3443.4369L13609.4624,-3443.4267L13609.403,-3443.3357L13609.4014,-3443.3333L13609.372,-3443.2887L13609.3533,-3443.2673L13609.3274,-3443.2258L13609.2934,-3443.1644L13609.282,-3443.1439L13609.2646,-3443.1316L13609.2213,-3443.0839L13609.1667,-3443.0329L13609.1456,-3443.0132L13609.0468,-3442.9608L13608.97,-3442.9319L13608.9254,-3442.9173L13608.9015,-3442.8986L13608.8699,-3442.8724L13608.8654,-3442.8633L13608.8672,-3442.8601L13608.879,-3442.8397L13608.8993,-3442.8226L13608.9188,-3442.806L13608.9383,-3442.7895L13608.9558,-3442.7707L13608.9694,-3442.7445L13608.9829,-3442.6973L13608.9855,-3442.6732L13608.9926,-3442.5945L13608.9842,-3442.5496L13608.9797,-3442.5163L13608.9813,-3442.5L13608.9862,-3442.4514L13608.9876,-3442.4472L13608.9971,-3442.4188L13609.0192,-3442.3806L13609.0463,-3442.3526L13609.1102,-3442.2865L13609.1193,-3442.2633L13609.1193,-3442.2547L13609.1147,-3442.243L13609.0889,-3442.2168L13609.0812,-3442.1942L13609.0812,-3442.1306L13609.0708,-3442.1058L13609.0508,-3442.0796L13609.045,-3442.0634L13609.0405,-3442.0507L13609.0256,-3442.0342L13609.0217,-3442.0241L13609.0277,-3441.9962L13609.0431,-3441.9676L13609.0456,-3441.9516L13609.0392,-3441.9315L13609.0251,-3441.9007L13609.0213,-3441.8784L13609.02,-3441.8466L13609.0213,-3441.8147L13609.0264,-3441.7882L13609.0456,-3441.7192L13609.0495,-3441.6937L13609.0458,-3441.6667L13609.0457,-3441.6658L13609.0367,-3441.6329L13609.0265,-3441.6042L13609.006,-3441.5841L13608.9617,-3441.5546L13608.9549,-3441.5501L13608.9318,-3441.5332L13608.9216,-3441.5109L13608.9024,-3441.4578L13608.8894,-3441.4331L13608.8664,-3441.4172L13608.8318,-3441.4023L13608.8114,-3441.379L13608.8024,-3441.3588L13608.796,-3441.3376L13608.7857,-3441.328L13608.7474,-3441.3238L13608.7076,-3441.3182L13608.6922,-3441.3117L13608.6877,-3441.2998L13608.6955,-3441.265L13608.6955,-3441.2439L13608.6955,-3441.2376L13608.6911,-3441.2156L13608.6646,-3441.1799L13608.6379,-3441.1622L13608.6103,-3441.1485L13608.5982,-3441.1357L13608.5717,-3441.1082L13608.5386,-3441.0936L13608.5065,-3441.076L13608.491,-3441.0604L13608.4722,-3441.0275L13608.4546,-3441.0009L13608.4358,-3440.978L13608.4126,-3440.9661L13608.3826,-3440.9568L13608.3494,-3440.9513L13608.3333,-3440.952L13608.229,-3440.9568L13608.1017,-3440.965L13608.0675,-3440.9595L13608.0503,-3440.9498L13608.0432,-3440.9458L13608.0023,-3440.9082L13607.9613,-3440.8549L13607.9393,-3440.8338L13607.938,-3440.8333L13607.9116,-3440.8229L13607.8771,-3440.8191L13607.8482,-3440.8101L13607.8241,-3440.8027L13607.7998,-3440.7852L13607.7789,-3440.755L13607.771,-3440.7246L13607.7666,-3440.6954L13607.7501,-3440.6716L13607.7235,-3440.6496L13607.6969,-3440.6385L13607.6792,-3440.6184L13607.6538,-3440.5863L13607.6262,-3440.5321L13607.6225,-3440.523L13607.6118,-3440.4963L13607.6151,-3440.4661L13607.6151,-3440.4487L13607.6007,-3440.4167L13607.5952,-3440.4093L13607.5819,-3440.3917L13607.5709,-3440.3679L13607.5675,-3440.3459L13607.5775,-3440.3257L13607.5973,-3440.2891L13607.5973,-3440.2699L13607.5885,-3440.2534L13607.5642,-3440.2293L13607.5376,-3440.2074L13607.531,-3440.1943L13607.5254,-3440.1651L13607.5111,-3440.1321L13607.5,-3440.1139L13607.4658,-3440.0579L13607.4497,-3440.0242L13607.4403,-3440.0045L13607.4385,-3440L13607.4282,-3439.9752L13607.4293,-3439.9459L13607.437,-3439.9184L13607.4613,-3439.8937L13607.4879,-3439.8706L13607.5,-3439.8541L13607.4989,-3439.8367L13607.4834,-3439.8183L13607.4304,-3439.7854L13607.405,-3439.7614L13607.3718,-3439.7221L13607.3354,-3439.6671L13607.2977,-3439.634L13607.2503,-3439.6001L13607.1673,-3439.5624L13607.1599,-3439.5593L13607.1032,-3439.5358L13607.0643,-3439.5209L13607.051,-3439.5117L13607.0367,-3439.4971L13607.0124,-3439.4861L13606.9561,-3439.4596L13606.9307,-3439.4431L13606.9141,-3439.4257L13606.9097,-3439.4101L13606.9108,-3439.3854L13606.9145,-3439.3771L13606.9494,-3439.2981L13606.9759,-3439.2551L13606.9815,-3439.2395L13606.9815,-3439.2038L13606.9758,-3439.1667L13606.9737,-3439.1532L13606.9527,-3439.0717L13606.9295,-3438.9836L13606.9306,-3438.9341L13606.9394,-3438.914L13606.9593,-3438.8902L13606.988,-3438.867L13607.0101,-3438.8514L13607.0499,-3438.8294L13607.0919,-3438.8109L13607.1206,-3438.8072L13607.1571,-3438.7963L13607.1836,-3438.7798L13607.1902,-3438.7606L13607.1981,-3438.7201L13607.2124,-3438.7046L13607.2389,-3438.6991L13607.2854,-3438.7L13607.3273,-3438.6981L13607.3296,-3438.6978L13607.3849,-3438.6899L13607.4114,-3438.6917L13607.4479,-3438.6917L13607.4755,-3438.6825L13607.5,-3438.6717L13607.5252,-3438.6606L13607.5507,-3438.6431L13607.5828,-3438.634L13607.6314,-3438.6285L13607.6669,-3438.623L13607.7066,-3438.6257L13607.7441,-3438.6367L13607.7806,-3438.6477L13607.7972,-3438.6486L13607.8159,-3438.6404L13607.8469,-3438.6065L13607.8875,-3438.5622L13607.8941,-3438.555L13607.9316,-3438.5284L13608.0406,-3438.4446L13608.0857,-3438.4126L13608.1147,-3438.3912L13608.1437,-3438.3796L13608.1823,-3438.3699L13608.2027,-3438.3592L13608.2177,-3438.3351L13608.2185,-3438.3333L13608.2283,-3438.309L13608.2382,-3438.2844L13608.2523,-3438.2441L13608.2717,-3438.2147L13608.2954,-3438.1924L13608.3333,-3438.1532L13608.3652,-3438.1203L13608.3888,-3438.0989L13608.479,-3438.0428L13608.5297,-3438.0097L13608.5748,-3437.9865L13608.6092,-3437.9625L13608.6285,-3437.9384L13608.6512,-3437.8705L13608.6683,-3437.7503L13608.6748,-3437.6895L13608.6579,-3437.6284L13608.6513,-3437.6047L13608.6516,-3437.6032L13608.6545,-3437.5905L13608.662,-3437.5753L13608.6867,-3437.5588L13608.6899,-3437.5566L13608.7683,-3437.5059L13608.7854,-3437.5L13608.807,-3437.4925L13608.8888,-3437.4656L13608.9156,-3437.4541L13608.9361,-3437.4344L13608.9586,-3437.3837L13608.9705,-3437.3211L13608.978,-3437.2579L13608.9877,-3437.2063L13609.0243,-3437.1401L13609.0813,-3437.0555L13609.0985,-3437.0349L13609.1199,-3437.0029L13609.1447,-3436.9448L13609.1558,-3436.9265L13609.1599,-3436.9199L13609.1667,-3436.9115L13609.193,-3436.8789L13609.1952,-3436.8691L13609.1941,-3436.8557L13609.1694,-3436.8268L13609.1667,-3436.8237L13609.1414,-3436.7941L13609.106,-3436.7612L13609.0576,-3436.7227L13609.0469,-3436.7067L13609.0404,-3436.6826L13609.0404,-3436.6667L13609.0404,-3436.6595L13609.0445,-3436.6415L13609.0479,-3436.6266L13609.0469,-3436.5838L13609.0383,-3436.4776L13609.0426,-3436.4376L13609.0512,-3436.3957L13609.0619,-3436.3411L13609.0609,-3436.3117L13609.0544,-3436.2823L13609.0587,-3436.2743L13609.0806,-3436.2546L13609.0122,-3436.2439L13608.974,-3436.232L13608.9664,-3436.232L13608.9632,-3436.2326L13608.9584,-3436.2335L13608.948,-3436.2418L13608.9396,-3436.2506L13608.9146,-3436.2972L13608.8882,-3436.3223L13608.8513,-3436.3487L13608.8219,-3436.3591L13608.7731,-3436.3653L13608.7254,-3436.3569L13608.668,-3436.3409L13608.644,-3436.3363L13608.6267,-3436.3347L13608.5421,-3436.355L13608.4902,-3436.3596L13608.4489,-3436.3632L13608.3687,-3436.3772L13608.3333,-3436.3839L13608.3112,-3436.3881L13608.2701,-3436.3885L13608.2593,-3436.3886L13608.2024,-3436.3866L13608.1727,-3436.383L13608.1435,-3436.3751L13608.0891,-3436.3612L13608.0372,-3436.3327L13607.9983,-3436.3186L13607.982,-3436.314L13607.9683,-3436.315L13607.9364,-3436.3202L13607.9176,-3436.3202L13607.8093,-3436.3098L13607.7593,-3436.3109L13607.7131,-3436.3181L13607.6448,-3436.3285L13607.5629,-3436.3337L13607.5,-3436.3327L13607.4233,-3436.3316L13607.3802,-3436.3337L13607.3539,-3436.3399L13607.2907,-3436.3632L13607.2137,-3436.3995L13607.2062,-3436.4033L13607.1631,-3436.4249L13607.1456,-3436.429L13607.1281,-3436.4306L13607.0686,-3436.4275L13607.0098,-3436.4208L13606.9146,-3436.4187L13606.8741,-3436.4156L13606.8565,-3436.4073L13606.819,-3436.3677L13606.7934,-3436.3113L13606.7827,-3436.2842L13606.7827,-3436.2656L13606.7809,-3436.25L13606.7727,-3436.2371L13606.7175,-3436.2006L13606.6969,-3436.185L13606.6819,-3436.171L13606.6744,-3436.1534L13606.6667,-3436.1388L13606.6381,-3436.0848L13606.6294,-3436.0729L13606.6194,-3436.0677L13606.5969,-3436.0631L13606.5518,-3436.0631L13606.5393,-3436.0584L13606.5368,-3436.0522L13606.5375,-3436.0289L13606.5225,-3435.9795L13606.5256,-3435.967L13606.5375,-3435.9541L13606.5512,-3435.9391L13606.5551,-3435.9308L13606.57,-3435.8985L13606.6012,-3435.8333L13606.6051,-3435.8253L13606.6294,-3435.7952L13606.6667,-3435.7522L13606.6839,-3435.7324L13606.7164,-3435.6992L13606.7496,-3435.6696L13606.7921,-3435.639L13606.819,-3435.6147L13606.8254,-3435.6046L13606.8427,-3435.5772L13606.8483,-3435.5616L13606.8527,-3435.543L13606.8533,-3435.5191L13606.844,-3435.5067L13606.7988,-3435.4697L13606.7307,-3435.3941L13606.68,-3435.3482L13606.6731,-3435.3311L13606.6719,-3435.299L13606.6667,-3435.2832L13606.6662,-3435.2819L13606.6319,-3435.2451L13606.6061,-3435.2096L13606.5892,-3435.1768L13606.5742,-3435.1479L13606.5522,-3435.1072L13606.5463,-3435.0906L13606.5403,-3435.0719L13606.5354,-3435.0452L13606.5343,-3435L13606.5342,-3434.9942L13606.5171,-3434.9166L13606.511,-3434.8764L13606.5135,-3434.8593L13606.5204,-3434.8469L13606.5204,-3434.8432L13606.4796,-3434.8141L13606.4652,-3434.7975L13606.4526,-3434.7554L13606.4308,-3434.7218L13606.4051,-3434.686L13606.3857,-3434.6538L13606.3695,-3434.6409L13606.347,-3434.6352L13606.2812,-3434.6284L13606.2318,-3434.616L13606.1147,-3434.5848L13606.0615,-3434.576L13606.0209,-3434.5791L13605.9933,-3434.5836L13605.9382,-3434.5926L13605.8675,-3434.6206L13605.8333,-3434.6284L13605.8244,-3434.6304L13605.7486,-3434.6366L13605.6329,-3434.621L13605.5133,-3434.6039L13605.4688,-3434.5919Z"/>
</g>
</svg>
