<?xml version="1.0" encoding="UTF-8"?>
<svg  xmlns="http://www.w3.org/2000/svg" xmlns:xlink="http://www.w3.org/1999/xlink" xmlns:go="http://purl.org/svgmap/profile" property="geometry,N03_001,N03_002,N03_003,N03_004,N03_005,N03_007" viewBox="13513.18359375 -3396.97265625 4.39453125 4.39453125" go:dataArea="13513.18359375 -3396.97265625 4.39453125 4.39453125" >
<metadata>
 <rdf:RDF xmlns:rdf="http://www.w3.org/1999/02/22-rdf-syntax-ns#" xmlns:crs="http://opengis.org/xmldtds/transformations.dtd" xmlns:svg="http://www.w3.org/svg" >
  <rdf:Description>
   <crs:CoordinateReferenceSystem rdf:resource="http://purl.org/crs/84" svg:transform="matrix(100.0,0.0,0.0,-100.0,0.0,0.0)" />
  </rdf:Description>
 </rdf:RDF>
</metadata>
<globalCoordinateSystem srsName="http://purl.org/crs/84" transform="matrix(100.0,0.0,0.0,-100.0,0.0,0.0)" />
<defs>
 <g id="p0" >
  <circle cx="0.0" cy="0.0" r="3" stroke="green" stroke-width="2.0" vector-effect="non-scaling-stroke" />
 </g>
</defs>
<g fill="#0000ff" fill-rule="evenodd" opacity="0.5" >
<path content="和歌山県,,,御坊市,,30205" xlink:title="和歌山県" d="M13517.5781,-3394.5628L13517.5745,-3394.5576L13517.5707,-3394.5417L13517.5714,-3394.5103L13517.5562,-3394.4318L13517.5425,-3394.3868L13517.5129,-3394.333L13517.5,-3394.3105L13517.4938,-3394.2996L13517.4915,-3394.2819L13517.5,-3394.2351L13517.5067,-3394.1983L13517.5133,-3394.1667L13517.5195,-3394.1367L13517.5204,-3394.1324L13517.5303,-3394.0976L13517.5425,-3394.0612L13517.5516,-3394.0422L13517.5516,-3394.02L13517.5425,-3393.9757L13517.544,-3393.9637L13517.5585,-3393.958L13517.5781,-3393.9498L13517.5781,-3393.1908L13517.5593,-3393.1826L13517.5076,-3393.163L13517.5,-3393.1621L13517.4795,-3393.1598L13517.4552,-3393.1617L13517.443,-3393.1598L13517.4354,-3393.1567L13517.348,-3393.0838L13517.29,-3393.0539L13517.2687,-3393.0393L13517.2512,-3393.0171L13517.2314,-3392.9747L13517.2132,-3392.9519L13517.1638,-3392.9165L13517.1539,-3392.9038L13517.1376,-3392.8735L13517.1316,-3392.8425L13517.1285,-3392.8077L13517.1338,-3392.7761L13517.146,-3392.733L13517.146,-3392.7051L13517.1649,-3392.6628L13517.1757,-3392.6386L13517.2002,-3392.5781L13515.8865,-3392.5781L13515.8761,-3392.5844L13515.8738,-3392.5895L13515.9118,-3392.6471L13515.9179,-3392.6782L13515.9171,-3392.7364L13515.9186,-3392.7828L13515.9187,-3392.7866L13515.9348,-3392.8408L13515.943,-3392.8683L13515.9491,-3392.8819L13515.9661,-3392.9053L13515.9757,-3392.9187L13515.9925,-3392.9605L13515.9963,-3392.9801L13515.9956,-3392.9912L13515.9947,-3393.0048L13515.9796,-3393.0602L13515.9788,-3393.0811L13515.9871,-3393.1704L13515.9841,-3393.2378L13515.9795,-3393.2574L13515.9628,-3393.2897L13515.9338,-3393.3333L13515.9241,-3393.348L13515.9058,-3393.3669L13515.8692,-3393.3907L13515.8411,-3393.4034L13515.8333,-3393.4066L13515.7977,-3393.4217L13515.7772,-3393.4363L13515.7149,-3393.5002L13515.6568,-3393.5651L13515.6448,-3393.5784L13515.6204,-3393.593L13515.5969,-3393.6107L13515.5908,-3393.619L13515.5893,-3393.6266L13515.5946,-3393.6683L13515.5941,-3393.6738L13515.5863,-3393.7642L13515.571,-3393.8428L13515.5634,-3393.8675L13515.5604,-3393.8874L13515.5604,-3393.8931L13515.6083,-3393.9412L13515.644,-3393.9824L13515.6524,-3394.0128L13515.6592,-3394.0681L13515.6562,-3394.0889L13515.6478,-3394.1219L13515.6463,-3394.1326L13515.6569,-3394.1589L13515.6613,-3394.1667L13515.6866,-3394.2121L13515.7671,-3394.3058L13515.8333,-3394.3691L13515.8335,-3394.3692L13515.8472,-3394.3823L13515.9445,-3394.4538L13515.9825,-3394.4931L13516.0136,-3394.5292L13516.0266,-3394.5722L13516.0319,-3394.619L13516.0221,-3394.6982L13516.0114,-3394.7476L13516.0091,-3394.7754L13516.0244,-3394.828L13516.0342,-3394.8596L13516.0677,-3394.8993L13516.1118,-3394.9594L13516.1255,-3394.9734L13516.1399,-3394.9797L13516.2213,-3395L13516.2365,-3395.0038L13516.3072,-3395.0259L13516.3581,-3395.0354L13516.3732,-3395.0377L13516.3794,-3395.0386L13516.4011,-3395.0317L13516.4505,-3395.0115L13516.4763,-3395.0077L13516.5007,-3395.0089L13516.5174,-3395.0096L13516.562,-3395L13516.5676,-3394.9988L13516.6124,-3394.9931L13516.6329,-3394.9937L13516.6504,-3394.9994L13516.6518,-3395L13516.6667,-3395.0059L13516.6694,-3395.007L13516.6968,-3395.0311L13516.7553,-3395.0552L13516.8242,-3395.0787L13516.8994,-3395.0907L13516.9382,-3395.1015L13516.9701,-3395.1129L13517.0788,-3395.1743L13517.1614,-3395.1955L13517.21,-3395.2113L13517.2397,-3395.217L13517.2564,-3395.2202L13517.3233,-3395.2506L13517.3879,-3395.2715L13517.4396,-3395.2278L13517.4829,-3395.1904L13517.5,-3395.1724L13517.5224,-3395.1486L13517.5669,-3395.0951L13517.5781,-3395.064Z"/>
<path content="和歌山県,,有田郡,広川町,,30362" xlink:title="和歌山県" d="M13517.5781,-3396.9727L13517.5781,-3396.4556L13517.5509,-3396.451L13517.531,-3396.4493L13517.5076,-3396.4578L13517.5,-3396.4646L13517.4887,-3396.4748L13517.4631,-3396.5046L13517.455,-3396.525L13517.455,-3396.5712L13517.4448,-3396.6294L13517.4463,-3396.6421L13517.457,-3396.6634L13517.4575,-3396.6667L13517.4586,-3396.6732L13517.457,-3396.6838L13517.4453,-3396.7097L13517.434,-3396.753L13517.3937,-3396.8236L13517.3881,-3396.8423L13517.3876,-3396.8606L13517.3868,-3396.8817L13517.3856,-3396.9136L13517.3871,-3396.931L13517.3937,-3396.9505L13517.4003,-3396.9727Z"/>
<path content="和歌山県,,日高郡,日高町,,30382" xlink:title="和歌山県" d="M13517.4003,-3396.9727L13517.3937,-3396.9505L13517.3871,-3396.931L13517.3856,-3396.9136L13517.3868,-3396.8817L13517.3876,-3396.8606L13517.3881,-3396.8423L13517.3937,-3396.8236L13517.434,-3396.753L13517.4453,-3396.7097L13517.457,-3396.6838L13517.4586,-3396.6732L13517.4575,-3396.6667L13517.457,-3396.6634L13517.4463,-3396.6421L13517.4448,-3396.6294L13517.455,-3396.5712L13517.455,-3396.525L13517.4631,-3396.5046L13517.4887,-3396.4748L13517.5,-3396.4646L13517.5076,-3396.4578L13517.531,-3396.4493L13517.5509,-3396.451L13517.5781,-3396.4556L13517.5781,-3395.4873L13517.5734,-3395.4857L13517.5458,-3395.4805L13517.5,-3395.4718L13517.4712,-3395.4663L13517.462,-3395.4521L13517.4289,-3395.3939L13517.4211,-3395.3766L13517.4193,-3395.3673L13517.4137,-3395.3383L13517.4082,-3395.3115L13517.3967,-3395.2844L13517.3879,-3395.2715L13517.3233,-3395.2506L13517.2564,-3395.2202L13517.2397,-3395.217L13517.21,-3395.2113L13517.1614,-3395.1955L13517.0788,-3395.1743L13516.9701,-3395.1129L13516.9382,-3395.1015L13516.8994,-3395.0907L13516.8242,-3395.0787L13516.7553,-3395.0552L13516.6968,-3395.0311L13516.6694,-3395.007L13516.6667,-3395.0059L13516.6518,-3395L13516.6504,-3394.9994L13516.6329,-3394.9937L13516.6124,-3394.9931L13516.5676,-3394.9988L13516.562,-3395L13516.5174,-3395.0096L13516.5007,-3395.0089L13516.4763,-3395.0077L13516.4505,-3395.0115L13516.4011,-3395.0317L13516.3794,-3395.0386L13516.3732,-3395.0377L13516.3581,-3395.0354L13516.3072,-3395.0259L13516.2365,-3395.0038L13516.2213,-3395L13516.1399,-3394.9797L13516.1255,-3394.9734L13516.1118,-3394.9594L13516.0677,-3394.8993L13516.0342,-3394.8596L13516.0244,-3394.828L13516.0091,-3394.7754L13516.0114,-3394.7476L13516.0221,-3394.6982L13516.0319,-3394.619L13516.0266,-3394.5722L13516.0136,-3394.5292L13515.9825,-3394.4931L13515.9445,-3394.4538L13515.8472,-3394.3823L13515.8335,-3394.3692L13515.8333,-3394.3691L13515.7671,-3394.3058L13515.6866,-3394.2121L13515.6613,-3394.1667L13515.6569,-3394.1589L13515.6463,-3394.1326L13515.6478,-3394.1219L13515.6562,-3394.0889L13515.6592,-3394.0681L13515.6524,-3394.0128L13515.644,-3393.9824L13515.6083,-3393.9412L13515.5604,-3393.8931L13515.5604,-3393.8874L13515.5634,-3393.8675L13515.571,-3393.8428L13515.5863,-3393.7642L13515.5941,-3393.6738L13515.5946,-3393.6683L13515.5893,-3393.6266L13515.5908,-3393.619L13515.5969,-3393.6107L13515.6204,-3393.593L13515.6448,-3393.5784L13515.6568,-3393.5651L13515.7149,-3393.5002L13515.7772,-3393.4363L13515.7977,-3393.4217L13515.8333,-3393.4066L13515.8411,-3393.4034L13515.8692,-3393.3907L13515.9058,-3393.3669L13515.9241,-3393.348L13515.9338,-3393.3333L13515.9628,-3393.2897L13515.9795,-3393.2574L13515.9841,-3393.2378L13515.9871,-3393.1704L13515.9788,-3393.0811L13515.9796,-3393.0602L13515.9947,-3393.0048L13515.9956,-3392.9912L13515.9963,-3392.9801L13515.9925,-3392.9605L13515.9757,-3392.9187L13515.9661,-3392.9053L13515.9491,-3392.8819L13515.943,-3392.8683L13515.9348,-3392.8408L13515.9187,-3392.7866L13515.9186,-3392.7828L13515.9171,-3392.7364L13515.9179,-3392.6782L13515.9118,-3392.6471L13515.8738,-3392.5895L13515.8761,-3392.5844L13515.8865,-3392.5781L13513.1836,-3392.5781L13513.1836,-3395.3119L13513.1904,-3395.3148L13513.2159,-3395.3179L13513.2369,-3395.3188L13513.2467,-3395.3184L13513.2597,-3395.3121L13513.284,-3395.2855L13513.2932,-3395.2851L13513.3018,-3395.2878L13513.3305,-3395.3076L13513.3333,-3395.3097L13513.3694,-3395.3359L13513.4185,-3395.3873L13513.4345,-3395.4052L13513.4904,-3395.4349L13513.4958,-3395.4428L13513.5171,-3395.4839L13513.5284,-3395.5017L13513.5481,-3395.523L13513.5874,-3395.606L13513.6005,-3395.6402L13513.6059,-3395.6456L13513.6481,-3395.6615L13513.6531,-3395.6655L13513.6617,-3395.6724L13513.6815,-3395.698L13513.7101,-3395.7074L13513.7202,-3395.7099L13513.757,-3395.6975L13513.7743,-3395.696L13513.7903,-3395.7005L13513.8289,-3395.7183L13513.8569,-3395.7366L13513.8706,-3395.7495L13513.8736,-3395.7619L13513.8874,-3395.8333L13513.8908,-3395.8505L13513.8951,-3395.8824L13513.9093,-3395.9007L13513.92,-3395.9111L13513.9426,-3395.9255L13514.0098,-3395.972L13514.0284,-3395.9971L13514.0386,-3396.0209L13514.0469,-3396.0719L13514.0701,-3396.1412L13514.0701,-3396.1791L13514.0612,-3396.2242L13514.0636,-3396.2614L13514.0743,-3396.2946L13514.0815,-3396.3346L13514.0927,-3396.3564L13514.11,-3396.3712L13514.1135,-3396.3721L13514.1534,-3396.3821L13514.1667,-3396.385L13514.1926,-3396.3906L13514.2158,-3396.399L13514.2307,-3396.4059L13514.239,-3396.4153L13514.2717,-3396.4579L13514.2866,-3396.4673L13514.3359,-3396.4861L13514.3573,-3396.499L13514.3932,-3396.5423L13514.4075,-3396.58L13514.4324,-3396.6087L13514.4568,-3396.6503L13514.4674,-3396.6667L13514.4968,-3396.7121L13514.5152,-3396.7364L13514.536,-3396.7601L13514.5497,-3396.768L13514.5657,-3396.774L13514.599,-3396.7809L13514.6041,-3396.7828L13514.6097,-3396.7849L13514.6311,-3396.821L13514.647,-3396.8445L13514.672,-3396.8564L13514.7028,-3396.8689L13514.723,-3396.8917L13514.7551,-3396.9427L13514.7617,-3396.9664L13514.7638,-3396.9727Z"/>
<path content="和歌山県,,日高郡,由良町,,30383" xlink:title="和歌山県" d="M13513.1836,-3396.9727L13514.7638,-3396.9727L13514.7617,-3396.9664L13514.7551,-3396.9427L13514.723,-3396.8917L13514.7028,-3396.8689L13514.672,-3396.8564L13514.647,-3396.8445L13514.6311,-3396.821L13514.6097,-3396.7849L13514.6041,-3396.7828L13514.599,-3396.7809L13514.5657,-3396.774L13514.5497,-3396.768L13514.536,-3396.7601L13514.5152,-3396.7364L13514.4968,-3396.7121L13514.4674,-3396.6667L13514.4568,-3396.6503L13514.4324,-3396.6087L13514.4075,-3396.58L13514.3932,-3396.5423L13514.3573,-3396.499L13514.3359,-3396.4861L13514.2866,-3396.4673L13514.2717,-3396.4579L13514.239,-3396.4153L13514.2307,-3396.4059L13514.2158,-3396.399L13514.1926,-3396.3906L13514.1667,-3396.385L13514.1534,-3396.3821L13514.1135,-3396.3721L13514.11,-3396.3712L13514.0927,-3396.3564L13514.0815,-3396.3346L13514.0743,-3396.2946L13514.0636,-3396.2614L13514.0612,-3396.2242L13514.0701,-3396.1791L13514.0701,-3396.1412L13514.0469,-3396.0719L13514.0386,-3396.0209L13514.0284,-3395.9971L13514.0098,-3395.972L13513.9426,-3395.9255L13513.92,-3395.9111L13513.9093,-3395.9007L13513.8951,-3395.8824L13513.8908,-3395.8505L13513.8874,-3395.8333L13513.8736,-3395.7619L13513.8706,-3395.7495L13513.8569,-3395.7366L13513.8289,-3395.7183L13513.7903,-3395.7005L13513.7743,-3395.696L13513.757,-3395.6975L13513.7202,-3395.7099L13513.7101,-3395.7074L13513.6815,-3395.698L13513.6617,-3395.6724L13513.6531,-3395.6655L13513.6481,-3395.6615L13513.6059,-3395.6456L13513.6005,-3395.6402L13513.5874,-3395.606L13513.5481,-3395.523L13513.5284,-3395.5017L13513.5171,-3395.4839L13513.4958,-3395.4428L13513.4904,-3395.4349L13513.4345,-3395.4052L13513.4185,-3395.3873L13513.3694,-3395.3359L13513.3333,-3395.3097L13513.3305,-3395.3076L13513.3018,-3395.2878L13513.2932,-3395.2851L13513.284,-3395.2855L13513.2597,-3395.3121L13513.2467,-3395.3184L13513.2369,-3395.3188L13513.2159,-3395.3179L13513.1904,-3395.3148L13513.1836,-3395.3119Z"/>
<path content="和歌山県,,日高郡,日高川町,,30392" xlink:title="和歌山県" d="M13517.5781,-3392.5781L13517.2002,-3392.5781L13517.1757,-3392.6386L13517.1649,-3392.6628L13517.146,-3392.7051L13517.146,-3392.733L13517.1338,-3392.7761L13517.1285,-3392.8077L13517.1316,-3392.8425L13517.1376,-3392.8735L13517.1539,-3392.9038L13517.1638,-3392.9165L13517.2132,-3392.9519L13517.2314,-3392.9747L13517.2512,-3393.0171L13517.2687,-3393.0393L13517.29,-3393.0539L13517.348,-3393.0838L13517.4354,-3393.1567L13517.443,-3393.1598L13517.4552,-3393.1617L13517.4795,-3393.1598L13517.5,-3393.1621L13517.5076,-3393.163L13517.5593,-3393.1826L13517.5781,-3393.1908L13517.5781,-3393.9498L13517.5585,-3393.958L13517.544,-3393.9637L13517.5425,-3393.9757L13517.5516,-3394.02L13517.5516,-3394.0422L13517.5425,-3394.0612L13517.5303,-3394.0976L13517.5204,-3394.1324L13517.5195,-3394.1367L13517.5133,-3394.1667L13517.5067,-3394.1983L13517.5,-3394.2351L13517.4915,-3394.2819L13517.4938,-3394.2996L13517.5,-3394.3105L13517.5129,-3394.333L13517.5425,-3394.3868L13517.5562,-3394.4318L13517.5714,-3394.5103L13517.5707,-3394.5417L13517.5745,-3394.5576L13517.5781,-3394.5628L13517.5781,-3395.064L13517.5669,-3395.0951L13517.5224,-3395.1486L13517.5,-3395.1724L13517.4829,-3395.1904L13517.4396,-3395.2278L13517.3879,-3395.2715L13517.3967,-3395.2844L13517.4082,-3395.3115L13517.4137,-3395.3383L13517.4193,-3395.3673L13517.4211,-3395.3766L13517.4289,-3395.3939L13517.462,-3395.4521L13517.4712,-3395.4663L13517.5,-3395.4718L13517.5458,-3395.4805L13517.5734,-3395.4857L13517.5781,-3395.4873Z"/>
</g>
</svg>
