<?xml version="1.0" encoding="UTF-8"?>
<svg  xmlns="http://www.w3.org/2000/svg" xmlns:xlink="http://www.w3.org/1999/xlink" xmlns:go="http://purl.org/svgmap/profile" property="geometry,N03_001,N03_002,N03_003,N03_004,N03_005,N03_007" viewBox="13473.6328125 -3506.8359375 8.7890625 8.7890625" go:dataArea="13473.6328125 -3506.8359375 8.7890625 8.7890625" >
<metadata>
 <rdf:RDF xmlns:rdf="http://www.w3.org/1999/02/22-rdf-syntax-ns#" xmlns:crs="http://opengis.org/xmldtds/transformations.dtd" xmlns:svg="http://www.w3.org/svg" >
  <rdf:Description>
   <crs:CoordinateReferenceSystem rdf:resource="http://purl.org/crs/84" svg:transform="matrix(100.0,0.0,0.0,-100.0,0.0,0.0)" />
  </rdf:Description>
 </rdf:RDF>
</metadata>
<globalCoordinateSystem srsName="http://purl.org/crs/84" transform="matrix(100.0,0.0,0.0,-100.0,0.0,0.0)" />
<defs>
 <g id="p0" >
  <circle cx="0.0" cy="0.0" r="3" stroke="green" stroke-width="2.0" vector-effect="non-scaling-stroke" />
 </g>
</defs>
<g fill="#0000ff" fill-rule="evenodd" opacity="0.5" >
<path content="兵庫県,,,加西市,,28220" xlink:title="兵庫県" d="M13482.4219,-3498.0469L13481.1956,-3498.0469L13481.1974,-3498.0782L13481.1963,-3498.1026L13481.1899,-3498.1255L13481.1871,-3498.1348L13481.1861,-3498.1379L13481.1841,-3498.1446L13481.1841,-3498.1632L13481.1893,-3498.1822L13481.1984,-3498.2025L13481.2153,-3498.2292L13481.2367,-3498.2598L13481.2639,-3498.2989L13481.2744,-3498.3109L13481.2947,-3498.3237L13481.3106,-3498.3333L13481.3312,-3498.3457L13481.337,-3498.3576L13481.337,-3498.3667L13481.3335,-3498.3748L13481.3184,-3498.392L13481.3144,-3498.4044L13481.315,-3498.4101L13481.3161,-3498.4192L13481.3217,-3498.4356L13481.3299,-3498.4461L13481.3421,-3498.4542L13481.3867,-3498.4729L13481.4186,-3498.4948L13481.44,-3498.5024L13481.4597,-3498.5072L13481.5113,-3498.5096L13481.5234,-3498.5153L13481.5275,-3498.5249L13481.5275,-3498.5411L13481.5304,-3498.5559L13481.5403,-3498.5707L13481.5591,-3498.59L13481.5765,-3498.6134L13481.5898,-3498.6244L13481.6061,-3498.6282L13481.6484,-3498.6263L13481.6667,-3498.6286L13481.671,-3498.6291L13481.7075,-3498.6459L13481.7597,-3498.674L13481.7991,-3498.6969L13481.831,-3498.7251L13481.8646,-3498.7384L13481.8937,-3498.7451L13481.9128,-3498.7537L13481.9377,-3498.7656L13481.9563,-3498.7671L13481.9772,-3498.7613L13481.9946,-3498.7523L13482.0508,-3498.7064L13482.0589,-3498.7046L13482.0724,-3498.7134L13482.0786,-3498.7174L13482.0925,-3498.7227L13482.1073,-3498.7228L13482.1487,-3498.7232L13482.1597,-3498.7265L13482.1684,-3498.7413L13482.1729,-3498.749L13482.187,-3498.7737L13482.1997,-3498.7833L13482.2137,-3498.7909L13482.2195,-3498.8033L13482.2201,-3498.8153L13482.216,-3498.8281L13482.205,-3498.8683L13482.2027,-3498.8874L13482.205,-3498.8989L13482.22,-3498.9232L13482.2217,-3498.9337L13482.1986,-3498.9781L13482.1954,-3498.9831L13482.1719,-3499.0196L13482.1435,-3499.0611L13482.1256,-3499.0792L13482.1186,-3499.0902L13482.116,-3499.1092L13482.115,-3499.1162L13482.115,-3499.1439L13482.1207,-3499.1596L13482.1294,-3499.1654L13482.1577,-3499.1667L13482.1607,-3499.1668L13482.1834,-3499.1706L13482.2071,-3499.1802L13482.2378,-3499.195L13482.2552,-3499.2093L13482.2697,-3499.2141L13482.2883,-3499.2136L13482.3149,-3499.2036L13482.3387,-3499.1892L13482.3584,-3499.1778L13482.3851,-3499.1667L13482.4019,-3499.1597L13482.4219,-3499.1549Z"/>
<path content="兵庫県,,神崎郡,市川町,,28442" xlink:title="兵庫県" d="M13482.4219,-3499.1549L13482.4019,-3499.1597L13482.3851,-3499.1667L13482.3584,-3499.1778L13482.3387,-3499.1892L13482.3149,-3499.2036L13482.2883,-3499.2136L13482.2697,-3499.2141L13482.2552,-3499.2093L13482.2378,-3499.195L13482.2071,-3499.1802L13482.1834,-3499.1706L13482.1607,-3499.1668L13482.1577,-3499.1667L13482.1294,-3499.1654L13482.1207,-3499.1596L13482.115,-3499.1439L13482.115,-3499.1162L13482.116,-3499.1092L13482.1186,-3499.0902L13482.1256,-3499.0792L13482.1435,-3499.0611L13482.1719,-3499.0196L13482.1954,-3498.9831L13482.1986,-3498.9781L13482.2217,-3498.9337L13482.22,-3498.9232L13482.205,-3498.8989L13482.2027,-3498.8874L13482.205,-3498.8683L13482.216,-3498.8281L13482.2201,-3498.8153L13482.2195,-3498.8033L13482.2137,-3498.7909L13482.1997,-3498.7833L13482.187,-3498.7737L13482.1729,-3498.749L13482.1684,-3498.7413L13482.1597,-3498.7265L13482.1487,-3498.7232L13482.1073,-3498.7228L13482.0925,-3498.7227L13482.0786,-3498.7174L13482.0724,-3498.7134L13482.0589,-3498.7046L13482.0508,-3498.7064L13481.9946,-3498.7523L13481.9772,-3498.7613L13481.9563,-3498.7671L13481.9377,-3498.7656L13481.9128,-3498.7537L13481.8937,-3498.7451L13481.8646,-3498.7384L13481.831,-3498.7251L13481.7991,-3498.6969L13481.7597,-3498.674L13481.7075,-3498.6459L13481.671,-3498.6291L13481.6667,-3498.6286L13481.6484,-3498.6263L13481.6061,-3498.6282L13481.5898,-3498.6244L13481.5765,-3498.6134L13481.5591,-3498.59L13481.5403,-3498.5707L13481.5304,-3498.5559L13481.5275,-3498.5411L13481.5275,-3498.5249L13481.5234,-3498.5153L13481.5113,-3498.5096L13481.4597,-3498.5072L13481.44,-3498.5024L13481.4186,-3498.4948L13481.3867,-3498.4729L13481.3421,-3498.4542L13481.3299,-3498.4461L13481.3217,-3498.4356L13481.3161,-3498.4192L13481.315,-3498.4101L13481.3144,-3498.4044L13481.3184,-3498.392L13481.3335,-3498.3748L13481.337,-3498.3667L13481.337,-3498.3576L13481.3312,-3498.3457L13481.3106,-3498.3333L13481.2947,-3498.3237L13481.2744,-3498.3109L13481.2639,-3498.2989L13481.2367,-3498.2598L13481.2153,-3498.2292L13481.1984,-3498.2025L13481.1893,-3498.1822L13481.1841,-3498.1632L13481.1841,-3498.1446L13481.1861,-3498.1379L13481.1871,-3498.1348L13481.1899,-3498.1255L13481.1963,-3498.1026L13481.1974,-3498.0782L13481.1956,-3498.0469L13474.6921,-3498.0469L13474.6849,-3498.0585L13474.6637,-3498.0896L13474.639,-3498.1257L13474.6375,-3498.1273L13474.621,-3498.1448L13474.6048,-3498.1656L13474.5926,-3498.1924L13474.5823,-3498.2176L13474.5715,-3498.2317L13474.5566,-3498.2439L13474.5247,-3498.2588L13474.5062,-3498.2714L13474.4918,-3498.2877L13474.4859,-3498.2992L13474.4787,-3498.3286L13474.4724,-3498.3333L13474.4657,-3498.3382L13474.4491,-3498.3482L13474.4148,-3498.3753L13474.4017,-3498.3886L13474.3955,-3498.3949L13474.3887,-3498.4138L13474.3941,-3498.449L13474.3959,-3498.4612L13474.3892,-3498.4688L13474.373,-3498.4818L13474.3491,-3498.4959L13474.3325,-3498.5129L13474.3046,-3498.5344L13474.2663,-3498.5592L13474.2429,-3498.5719L13474.2101,-3498.5874L13474.1667,-3498.6015L13474.1659,-3498.6017L13474.1453,-3498.6143L13474.1119,-3498.6398L13474.098,-3498.6513L13474.0818,-3498.6587L13474.0643,-3498.6607L13474.0172,-3498.666L13474.0156,-3498.6661L13473.9805,-3498.6711L13473.9585,-3498.6686L13473.9315,-3498.6596L13473.8788,-3498.6211L13473.8401,-3498.6015L13473.8099,-3498.5896L13473.7843,-3498.5831L13473.7505,-3498.5835L13473.7131,-3498.5874L13473.6799,-3498.5909L13473.634,-3498.6006L13473.6328,-3498.6009L13473.6328,-3505.11L13473.6339,-3505.1065L13473.6378,-3505.0838L13473.6396,-3505.0729L13473.6506,-3505.0404L13473.6678,-3505.021L13473.6867,-3505.0026L13473.6908,-3505L13473.7169,-3504.9835L13473.7559,-3504.9613L13473.784,-3504.9481L13473.7943,-3504.9415L13473.7783,-3504.9169L13473.7553,-3504.8895L13473.7226,-3504.8645L13473.7048,-3504.8494L13473.6922,-3504.8348L13473.6718,-3504.8034L13473.6626,-3504.7812L13473.6551,-3504.7401L13473.6471,-3504.7057L13473.6437,-3504.6745L13473.6459,-3504.64L13473.6494,-3504.6202L13473.6571,-3504.578L13473.6738,-3504.5256L13473.6836,-3504.5185L13473.7019,-3504.5138L13473.7433,-3504.4996L13473.7656,-3504.4921L13473.7955,-3504.476L13473.8259,-3504.4566L13473.8612,-3504.4328L13473.8744,-3504.4139L13473.8796,-3504.4007L13473.8949,-3504.3717L13473.914,-3504.3356L13473.9536,-3504.2813L13473.9683,-3504.2541L13473.9792,-3504.2348L13473.9895,-3504.1937L13473.9981,-3504.1673L13473.9983,-3504.1667L13474.0239,-3504.1031L13474.0377,-3504.0814L13474.0497,-3504.0798L13474.0561,-3504.079L13474.0819,-3504.0771L13474.1072,-3504.0743L13474.1261,-3504.0719L13474.1539,-3504.0651L13474.1667,-3504.0603L13474.2062,-3504.0457L13474.2607,-3504.0146L13474.2808,-3504.0079L13474.3095,-3504.0061L13474.3308,-3504.0051L13474.3532,-3504.0046L13474.3899,-3503.9961L13474.4183,-3503.9841L13474.4591,-3503.9695L13474.4975,-3503.96L13474.5256,-3503.9558L13474.5549,-3503.9525L13474.6054,-3503.9506L13474.6651,-3503.9468L13474.7047,-3503.9402L13474.7253,-3503.9361L13474.7285,-3503.9362L13474.7422,-3503.9375L13474.7604,-3503.9357L13474.7987,-3503.9191L13474.8109,-3503.9181L13474.8202,-3503.9229L13474.8452,-3503.9553L13474.8783,-3503.9839L13474.9235,-3504.0235L13474.949,-3504.0488L13474.9566,-3504.054L13474.9653,-3504.0535L13475,-3504.0532L13475.021,-3504.053L13475.0993,-3504.0487L13475.1533,-3504.0444L13475.1614,-3504.0468L13475.1683,-3504.0559L13475.1701,-3504.0654L13475.1724,-3504.0854L13475.1805,-3504.1007L13475.1921,-3504.1127L13475.2176,-3504.1279L13475.2327,-3504.1322L13475.2469,-3504.1382L13475.2591,-3504.1482L13475.2673,-3504.1582L13475.2716,-3504.1667L13475.2777,-3504.1783L13475.2905,-3504.1916L13475.3073,-3504.2017L13475.3375,-3504.2188L13475.3682,-3504.2451L13475.3844,-3504.267L13475.3978,-3504.2804L13475.414,-3504.2894L13475.4262,-3504.2914L13475.4343,-3504.2928L13475.4686,-3504.2966L13475.5034,-3504.2961L13475.5231,-3504.2947L13475.5324,-3504.2918L13475.5359,-3504.2871L13475.5324,-3504.2761L13475.5214,-3504.2518L13475.5201,-3504.2443L13475.5179,-3504.2313L13475.5144,-3504.2131L13475.5405,-3504.2103L13475.5468,-3504.2092L13475.5841,-3504.2026L13475.6032,-3504.2026L13475.6571,-3504.2069L13475.674,-3504.2098L13475.6786,-3504.2141L13475.6798,-3504.2661L13475.6821,-3504.2933L13475.7198,-3504.3026L13475.7483,-3504.3622L13475.7627,-3504.3636L13475.7726,-3504.3646L13475.8333,-3504.3651L13475.8875,-3504.3656L13475.9498,-3504.3677L13475.9559,-3504.3679L13476.0204,-3504.3699L13476.0894,-3504.3761L13476.134,-3504.3803L13476.1427,-3504.3701L13476.1694,-3504.3296L13476.1978,-3504.2952L13476.2227,-3504.2571L13476.2535,-3504.2084L13476.2563,-3504.2043L13476.2819,-3504.1667L13476.2837,-3504.164L13476.3044,-3504.1391L13476.3175,-3504.1235L13476.3575,-3504.0705L13476.3877,-3504.0285L13476.41,-3503.9939L13476.4132,-3503.9889L13476.4324,-3503.963L13476.4486,-3503.9412L13476.4589,-3503.9279L13476.4741,-3503.9083L13476.5009,-3503.8697L13476.5273,-3503.8318L13476.5298,-3503.8281L13476.5664,-3503.7679L13476.5913,-3503.723L13476.6131,-3503.6843L13476.6197,-3503.6724L13476.6479,-3503.6152L13476.654,-3503.6028L13476.6664,-3503.5773L13476.6667,-3503.5766L13476.6743,-3503.5608L13476.6862,-3503.54L13476.7062,-3503.5051L13476.7161,-3503.5103L13476.7207,-3503.5289L13476.7271,-3503.5848L13476.7342,-3503.6367L13476.7364,-3503.6526L13476.7486,-3503.7274L13476.7527,-3503.7523L13476.7593,-3503.7921L13476.7595,-3503.7938L13476.7657,-3503.8513L13476.7773,-3503.9057L13476.7854,-3503.9658L13476.7862,-3503.9694L13476.7921,-3503.9966L13476.7989,-3504.0031L13476.7996,-3504.0037L13476.8147,-3504.0024L13476.8649,-3503.9981L13476.8721,-3503.9975L13476.9122,-3503.9961L13476.9414,-3503.9965L13476.9737,-3503.997L13477.0033,-3504.0023L13477.0578,-3504.0195L13477.1123,-3504.0285L13477.1527,-3504.0338L13477.1828,-3504.0376L13477.2014,-3504.0419L13477.2333,-3504.0443L13477.2629,-3504.0524L13477.3029,-3504.0639L13477.3436,-3504.0849L13477.3818,-3504.1001L13477.401,-3504.1044L13477.4277,-3504.1082L13477.4671,-3504.1092L13477.4933,-3504.1092L13477.5,-3504.1071L13477.5101,-3504.1039L13477.5286,-3504.0901L13477.5579,-3504.0591L13477.5846,-3504.0386L13477.6038,-3504.0271L13477.6438,-3504.0076L13477.6687,-3504.0004L13477.7111,-3503.9947L13477.7575,-3503.9933L13477.8069,-3503.9933L13477.8481,-3503.9943L13477.88,-3503.9952L13477.9206,-3503.9934L13477.9594,-3503.9876L13477.985,-3503.9843L13478.0029,-3503.9767L13478.0215,-3503.9628L13478.036,-3503.9485L13478.0459,-3503.9313L13478.0581,-3503.9132L13478.0749,-3503.8965L13478.0952,-3503.8793L13478.1144,-3503.868L13478.1567,-3503.8413L13478.2072,-3503.8184L13478.2443,-3503.7964L13478.2774,-3503.7773L13478.2971,-3503.7625L13478.3163,-3503.7544L13478.3276,-3503.7529L13478.3308,-3503.7525L13478.3333,-3503.7525L13478.3569,-3503.7525L13478.3731,-3503.7578L13478.3876,-3503.7711L13478.3946,-3503.78L13478.4201,-3503.8126L13478.4579,-3503.8503L13478.4776,-3503.8684L13478.506,-3503.8823L13478.5391,-3503.8961L13478.5733,-3503.9076L13478.6331,-3503.9157L13478.6621,-3503.92L13478.694,-3503.9334L13478.7361,-3503.9495L13478.7512,-3503.9569L13478.7622,-3503.9624L13478.8016,-3503.9848L13478.8463,-3504.0134L13478.8776,-3504.0273L13478.902,-3504.0334L13478.9345,-3504.0392L13478.9838,-3504.0483L13479.0024,-3504.0521L13479.0163,-3504.0516L13479.0389,-3504.0454L13479.0673,-3504.0316L13479.0905,-3504.0168L13479.1155,-3503.9981L13479.1381,-3503.9853L13479.1667,-3503.9735L13479.1694,-3503.9724L13479.2049,-3503.9571L13479.2449,-3503.9394L13479.2698,-3503.9289L13479.2948,-3503.9204L13479.3105,-3503.9127L13479.3221,-3503.9023L13479.347,-3503.8793L13479.3818,-3503.835L13479.3905,-3503.8259L13479.4021,-3503.824L13479.4111,-3503.8249L13479.4488,-3503.8574L13479.4714,-3503.8703L13479.5092,-3503.886L13479.5492,-3503.8975L13479.5852,-3503.9023L13479.6096,-3503.9046L13479.6264,-3503.9142L13479.6542,-3503.9347L13479.675,-3503.9513L13479.696,-3503.9681L13479.7447,-3504.0072L13479.7987,-3504.0564L13479.8199,-3504.0708L13479.8454,-3504.0846L13479.8872,-3504.0999L13479.9086,-3504.1099L13479.9504,-3504.1328L13479.9754,-3504.1448L13479.9997,-3504.1543L13480,-3504.1543L13480.0363,-3504.1576L13480.0589,-3504.1605L13480.0622,-3504.1667L13480.0636,-3504.1691L13480.063,-3504.1853L13480.067,-3504.1978L13480.0751,-3504.2073L13480.0885,-3504.2135L13480.1181,-3504.2226L13480.1575,-3504.2364L13480.2173,-3504.2459L13480.2443,-3504.2563L13480.2675,-3504.2635L13480.2907,-3504.2697L13480.3127,-3504.2816L13480.329,-3504.3007L13480.3655,-3504.3313L13480.3934,-3504.3646L13480.4201,-3504.3914L13480.4427,-3504.4176L13480.4613,-3504.4453L13480.4874,-3504.4817L13480.4956,-3504.4906L13480.5222,-3504.5194L13480.5581,-3504.5523L13480.5947,-3504.5843L13480.6115,-3504.6033L13480.6382,-3504.6315L13480.6609,-3504.6477L13480.7159,-3504.6792L13480.7374,-3504.6921L13480.756,-3504.7121L13480.7853,-3504.7396L13480.816,-3504.7706L13480.8333,-3504.7931L13480.834,-3504.794L13480.863,-3504.8336L13480.8839,-3504.8565L13480.9077,-3504.8818L13480.91,-3504.8971L13480.9118,-3504.9219L13480.9161,-3504.9511L13480.9248,-3504.9945L13480.9259,-3505L13480.9347,-3505.0418L13480.9486,-3505.0942L13480.9608,-3505.141L13480.9619,-3505.1534L13480.9602,-3505.1706L13480.9521,-3505.193L13480.9428,-3505.2176L13480.9416,-3505.2309L13480.9434,-3505.2434L13480.9515,-3505.2539L13480.9534,-3505.2556L13480.9712,-3505.271L13480.9939,-3505.2868L13481.0078,-3505.3006L13481.0229,-3505.3197L13481.0409,-3505.3393L13481.0589,-3505.3522L13481.0948,-3505.3674L13481.1221,-3505.3827L13481.1615,-3505.4082L13481.1766,-3505.4197L13481.1946,-3505.4449L13481.2149,-3505.4679L13481.2352,-3505.4917L13481.2567,-3505.5246L13481.2828,-3505.5595L13481.3077,-3505.5834L13481.3223,-3505.5946L13481.335,-3505.5989L13481.3704,-3505.6017L13481.4104,-3505.6074L13481.4418,-3505.6141L13481.5166,-3505.6175L13481.5752,-3505.6227L13481.6002,-3505.628L13481.6379,-3505.6385L13481.6667,-3505.6469L13481.6965,-3505.6556L13481.7388,-3505.6666L13481.7649,-3505.6738L13481.7841,-3505.6795L13481.798,-3505.6891L13481.8264,-3505.7015L13481.8408,-3505.7072L13481.8671,-3505.7177L13481.892,-3505.7344L13481.9454,-3505.7602L13481.9758,-3505.7723L13481.9927,-3505.7771L13482.0182,-3505.7814L13482.0553,-3505.7871L13482.0907,-3505.7919L13482.1296,-3505.7981L13482.1627,-3505.8034L13482.1905,-3505.8043L13482.2184,-3505.8043L13482.2457,-3505.801L13482.27,-3505.7948L13482.3118,-3505.7795L13482.3414,-3505.7704L13482.3603,-3505.7626L13482.3783,-3505.7511L13482.3986,-3505.7349L13482.4195,-3505.7158L13482.4219,-3505.7136Z"/>
<path content="兵庫県,,神崎郡,福崎町,,28443" xlink:title="兵庫県" d="M13473.6328,-3498.0469L13473.6328,-3498.6009L13473.634,-3498.6006L13473.6799,-3498.5909L13473.7131,-3498.5874L13473.7505,-3498.5835L13473.7843,-3498.5831L13473.8099,-3498.5896L13473.8401,-3498.6015L13473.8788,-3498.6211L13473.9315,-3498.6596L13473.9585,-3498.6686L13473.9805,-3498.6711L13474.0156,-3498.6661L13474.0172,-3498.666L13474.0643,-3498.6607L13474.0818,-3498.6587L13474.098,-3498.6513L13474.1119,-3498.6398L13474.1453,-3498.6143L13474.1659,-3498.6017L13474.1667,-3498.6015L13474.2101,-3498.5874L13474.2429,-3498.5719L13474.2663,-3498.5592L13474.3046,-3498.5344L13474.3325,-3498.5129L13474.3491,-3498.4959L13474.373,-3498.4818L13474.3892,-3498.4688L13474.3959,-3498.4612L13474.3941,-3498.449L13474.3887,-3498.4138L13474.3955,-3498.3949L13474.4017,-3498.3886L13474.4148,-3498.3753L13474.4491,-3498.3482L13474.4657,-3498.3382L13474.4724,-3498.3333L13474.4787,-3498.3286L13474.4859,-3498.2992L13474.4918,-3498.2877L13474.5062,-3498.2714L13474.5247,-3498.2588L13474.5566,-3498.2439L13474.5715,-3498.2317L13474.5823,-3498.2176L13474.5926,-3498.1924L13474.6048,-3498.1656L13474.621,-3498.1448L13474.6375,-3498.1273L13474.639,-3498.1257L13474.6637,-3498.0896L13474.6849,-3498.0585L13474.6921,-3498.0469Z"/>
<path content="兵庫県,,神崎郡,神河町,,28446" xlink:title="兵庫県" d="M13482.4219,-3506.8359L13482.4219,-3505.7136L13482.4195,-3505.7158L13482.3986,-3505.7349L13482.3783,-3505.7511L13482.3603,-3505.7626L13482.3414,-3505.7704L13482.3118,-3505.7795L13482.27,-3505.7948L13482.2457,-3505.801L13482.2184,-3505.8043L13482.1905,-3505.8043L13482.1627,-3505.8034L13482.1296,-3505.7981L13482.0907,-3505.7919L13482.0553,-3505.7871L13482.0182,-3505.7814L13481.9927,-3505.7771L13481.9758,-3505.7723L13481.9454,-3505.7602L13481.892,-3505.7344L13481.8671,-3505.7177L13481.8408,-3505.7072L13481.8264,-3505.7015L13481.798,-3505.6891L13481.7841,-3505.6795L13481.7649,-3505.6738L13481.7388,-3505.6666L13481.6965,-3505.6556L13481.6667,-3505.6469L13481.6379,-3505.6385L13481.6002,-3505.628L13481.5752,-3505.6227L13481.5166,-3505.6175L13481.4418,-3505.6141L13481.4104,-3505.6074L13481.3704,-3505.6017L13481.335,-3505.5989L13481.3223,-3505.5946L13481.3077,-3505.5834L13481.2828,-3505.5595L13481.2567,-3505.5246L13481.2352,-3505.4917L13481.2149,-3505.4679L13481.1946,-3505.4449L13481.1766,-3505.4197L13481.1615,-3505.4082L13481.1221,-3505.3827L13481.0948,-3505.3674L13481.0589,-3505.3522L13481.0409,-3505.3393L13481.0229,-3505.3197L13481.0078,-3505.3006L13480.9939,-3505.2868L13480.9712,-3505.271L13480.9534,-3505.2556L13480.9515,-3505.2539L13480.9434,-3505.2434L13480.9416,-3505.2309L13480.9428,-3505.2176L13480.9521,-3505.193L13480.9602,-3505.1706L13480.9619,-3505.1534L13480.9608,-3505.141L13480.9486,-3505.0942L13480.9347,-3505.0418L13480.9259,-3505L13480.9248,-3504.9945L13480.9161,-3504.9511L13480.9118,-3504.9219L13480.91,-3504.8971L13480.9077,-3504.8818L13480.8839,-3504.8565L13480.863,-3504.8336L13480.834,-3504.794L13480.8333,-3504.7931L13480.816,-3504.7706L13480.7853,-3504.7396L13480.756,-3504.7121L13480.7374,-3504.6921L13480.7159,-3504.6792L13480.6609,-3504.6477L13480.6382,-3504.6315L13480.6115,-3504.6033L13480.5947,-3504.5843L13480.5581,-3504.5523L13480.5222,-3504.5194L13480.4956,-3504.4906L13480.4874,-3504.4817L13480.4613,-3504.4453L13480.4427,-3504.4176L13480.4201,-3504.3914L13480.3934,-3504.3646L13480.3655,-3504.3313L13480.329,-3504.3007L13480.3127,-3504.2816L13480.2907,-3504.2697L13480.2675,-3504.2635L13480.2443,-3504.2563L13480.2173,-3504.2459L13480.1575,-3504.2364L13480.1181,-3504.2226L13480.0885,-3504.2135L13480.0751,-3504.2073L13480.067,-3504.1978L13480.063,-3504.1853L13480.0636,-3504.1691L13480.0622,-3504.1667L13480.0589,-3504.1605L13480.0363,-3504.1576L13480,-3504.1543L13479.9997,-3504.1543L13479.9754,-3504.1448L13479.9504,-3504.1328L13479.9086,-3504.1099L13479.8872,-3504.0999L13479.8454,-3504.0846L13479.8199,-3504.0708L13479.7987,-3504.0564L13479.7447,-3504.0072L13479.696,-3503.9681L13479.675,-3503.9513L13479.6542,-3503.9347L13479.6264,-3503.9142L13479.6096,-3503.9046L13479.5852,-3503.9023L13479.5492,-3503.8975L13479.5092,-3503.886L13479.4714,-3503.8703L13479.4488,-3503.8574L13479.4111,-3503.8249L13479.4021,-3503.824L13479.3905,-3503.8259L13479.3818,-3503.835L13479.347,-3503.8793L13479.3221,-3503.9023L13479.3105,-3503.9127L13479.2948,-3503.9204L13479.2698,-3503.9289L13479.2449,-3503.9394L13479.2049,-3503.9571L13479.1694,-3503.9724L13479.1667,-3503.9735L13479.1381,-3503.9853L13479.1155,-3503.9981L13479.0905,-3504.0168L13479.0673,-3504.0316L13479.0389,-3504.0454L13479.0163,-3504.0516L13479.0024,-3504.0521L13478.9838,-3504.0483L13478.9345,-3504.0392L13478.902,-3504.0334L13478.8776,-3504.0273L13478.8463,-3504.0134L13478.8016,-3503.9848L13478.7622,-3503.9624L13478.7512,-3503.9569L13478.7361,-3503.9495L13478.694,-3503.9334L13478.6621,-3503.92L13478.6331,-3503.9157L13478.5733,-3503.9076L13478.5391,-3503.8961L13478.506,-3503.8823L13478.4776,-3503.8684L13478.4579,-3503.8503L13478.4201,-3503.8126L13478.3946,-3503.78L13478.3876,-3503.7711L13478.3731,-3503.7578L13478.3569,-3503.7525L13478.3333,-3503.7525L13478.3308,-3503.7525L13478.3276,-3503.7529L13478.3163,-3503.7544L13478.2971,-3503.7625L13478.2774,-3503.7773L13478.2443,-3503.7964L13478.2072,-3503.8184L13478.1567,-3503.8413L13478.1144,-3503.868L13478.0952,-3503.8793L13478.0749,-3503.8965L13478.0581,-3503.9132L13478.0459,-3503.9313L13478.036,-3503.9485L13478.0215,-3503.9628L13478.0029,-3503.9767L13477.985,-3503.9843L13477.9594,-3503.9876L13477.9206,-3503.9934L13477.88,-3503.9952L13477.8481,-3503.9943L13477.8069,-3503.9933L13477.7575,-3503.9933L13477.7111,-3503.9947L13477.6687,-3504.0004L13477.6438,-3504.0076L13477.6038,-3504.0271L13477.5846,-3504.0386L13477.5579,-3504.0591L13477.5286,-3504.0901L13477.5101,-3504.1039L13477.5,-3504.1071L13477.4933,-3504.1092L13477.4671,-3504.1092L13477.4277,-3504.1082L13477.401,-3504.1044L13477.3818,-3504.1001L13477.3436,-3504.0849L13477.3029,-3504.0639L13477.2629,-3504.0524L13477.2333,-3504.0443L13477.2014,-3504.0419L13477.1828,-3504.0376L13477.1527,-3504.0338L13477.1123,-3504.0285L13477.0578,-3504.0195L13477.0033,-3504.0023L13476.9737,-3503.997L13476.9414,-3503.9965L13476.9122,-3503.9961L13476.8721,-3503.9975L13476.8649,-3503.9981L13476.8147,-3504.0024L13476.7996,-3504.0037L13476.7989,-3504.0031L13476.7921,-3503.9966L13476.7862,-3503.9694L13476.7854,-3503.9658L13476.7773,-3503.9057L13476.7657,-3503.8513L13476.7595,-3503.7938L13476.7593,-3503.7921L13476.7527,-3503.7523L13476.7486,-3503.7274L13476.7364,-3503.6526L13476.7342,-3503.6367L13476.7271,-3503.5848L13476.7207,-3503.5289L13476.7161,-3503.5103L13476.7062,-3503.5051L13476.6862,-3503.54L13476.6743,-3503.5608L13476.6667,-3503.5766L13476.6664,-3503.5773L13476.654,-3503.6028L13476.6479,-3503.6152L13476.6197,-3503.6724L13476.6131,-3503.6843L13476.5913,-3503.723L13476.5664,-3503.7679L13476.5298,-3503.8281L13476.5273,-3503.8318L13476.5009,-3503.8697L13476.4741,-3503.9083L13476.4589,-3503.9279L13476.4486,-3503.9412L13476.4324,-3503.963L13476.4132,-3503.9889L13476.41,-3503.9939L13476.3877,-3504.0285L13476.3575,-3504.0705L13476.3175,-3504.1235L13476.3044,-3504.1391L13476.2837,-3504.164L13476.2819,-3504.1667L13476.2563,-3504.2043L13476.2535,-3504.2084L13476.2227,-3504.2571L13476.1978,-3504.2952L13476.1694,-3504.3296L13476.1427,-3504.3701L13476.134,-3504.3803L13476.0894,-3504.3761L13476.0204,-3504.3699L13475.9559,-3504.3679L13475.9498,-3504.3677L13475.8875,-3504.3656L13475.8333,-3504.3651L13475.7726,-3504.3646L13475.7627,-3504.3636L13475.7483,-3504.3622L13475.7198,-3504.3026L13475.6821,-3504.2933L13475.6798,-3504.2661L13475.6786,-3504.2141L13475.674,-3504.2098L13475.6571,-3504.2069L13475.6032,-3504.2026L13475.5841,-3504.2026L13475.5468,-3504.2092L13475.5405,-3504.2103L13475.5144,-3504.2131L13475.5179,-3504.2313L13475.5201,-3504.2443L13475.5214,-3504.2518L13475.5324,-3504.2761L13475.5359,-3504.2871L13475.5324,-3504.2918L13475.5231,-3504.2947L13475.5034,-3504.2961L13475.4686,-3504.2966L13475.4343,-3504.2928L13475.4262,-3504.2914L13475.414,-3504.2894L13475.3978,-3504.2804L13475.3844,-3504.267L13475.3682,-3504.2451L13475.3375,-3504.2188L13475.3073,-3504.2017L13475.2905,-3504.1916L13475.2777,-3504.1783L13475.2716,-3504.1667L13475.2673,-3504.1582L13475.2591,-3504.1482L13475.2469,-3504.1382L13475.2327,-3504.1322L13475.2176,-3504.1279L13475.1921,-3504.1127L13475.1805,-3504.1007L13475.1724,-3504.0854L13475.1701,-3504.0654L13475.1683,-3504.0559L13475.1614,-3504.0468L13475.1533,-3504.0444L13475.0993,-3504.0487L13475.021,-3504.053L13475,-3504.0532L13474.9653,-3504.0535L13474.9566,-3504.054L13474.949,-3504.0488L13474.9235,-3504.0235L13474.8783,-3503.9839L13474.8452,-3503.9553L13474.8202,-3503.9229L13474.8109,-3503.9181L13474.7987,-3503.9191L13474.7604,-3503.9357L13474.7422,-3503.9375L13474.7285,-3503.9362L13474.7253,-3503.9361L13474.7047,-3503.9402L13474.6651,-3503.9468L13474.6054,-3503.9506L13474.5549,-3503.9525L13474.5256,-3503.9558L13474.4975,-3503.96L13474.4591,-3503.9695L13474.4183,-3503.9841L13474.3899,-3503.9961L13474.3532,-3504.0046L13474.3308,-3504.0051L13474.3095,-3504.0061L13474.2808,-3504.0079L13474.2607,-3504.0146L13474.2062,-3504.0457L13474.1667,-3504.0603L13474.1539,-3504.0651L13474.1261,-3504.0719L13474.1072,-3504.0743L13474.0819,-3504.0771L13474.0561,-3504.079L13474.0497,-3504.0798L13474.0377,-3504.0814L13474.0239,-3504.1031L13473.9983,-3504.1667L13473.9981,-3504.1673L13473.9895,-3504.1937L13473.9792,-3504.2348L13473.9683,-3504.2541L13473.9536,-3504.2813L13473.914,-3504.3356L13473.8949,-3504.3717L13473.8796,-3504.4007L13473.8744,-3504.4139L13473.8612,-3504.4328L13473.8259,-3504.4566L13473.7955,-3504.476L13473.7656,-3504.4921L13473.7433,-3504.4996L13473.7019,-3504.5138L13473.6836,-3504.5185L13473.6738,-3504.5256L13473.6571,-3504.578L13473.6494,-3504.6202L13473.6459,-3504.64L13473.6437,-3504.6745L13473.6471,-3504.7057L13473.6551,-3504.7401L13473.6626,-3504.7812L13473.6718,-3504.8034L13473.6922,-3504.8348L13473.7048,-3504.8494L13473.7226,-3504.8645L13473.7553,-3504.8895L13473.7783,-3504.9169L13473.7943,-3504.9415L13473.784,-3504.9481L13473.7559,-3504.9613L13473.7169,-3504.9835L13473.6908,-3505L13473.6867,-3505.0026L13473.6678,-3505.021L13473.6506,-3505.0404L13473.6396,-3505.0729L13473.6378,-3505.0838L13473.6339,-3505.1065L13473.6328,-3505.11L13473.6328,-3506.8359Z"/>
</g>
</svg>
