<?xml version="1.0" encoding="UTF-8"?>
<svg  xmlns="http://www.w3.org/2000/svg" xmlns:xlink="http://www.w3.org/1999/xlink" xmlns:go="http://purl.org/svgmap/profile" property="geometry,N03_001,N03_002,N03_003,N03_004,N03_005,N03_007" viewBox="13570.3125 -3392.578125 17.578125 17.578125" go:dataArea="13570.3125 -3392.578125 17.578125 17.578125" >
<metadata>
 <rdf:RDF xmlns:rdf="http://www.w3.org/1999/02/22-rdf-syntax-ns#" xmlns:crs="http://opengis.org/xmldtds/transformations.dtd" xmlns:svg="http://www.w3.org/svg" >
  <rdf:Description>
   <crs:CoordinateReferenceSystem rdf:resource="http://purl.org/crs/84" svg:transform="matrix(100.0,0.0,0.0,-100.0,0.0,0.0)" />
  </rdf:Description>
 </rdf:RDF>
</metadata>
<globalCoordinateSystem srsName="http://purl.org/crs/84" transform="matrix(100.0,0.0,0.0,-100.0,0.0,0.0)" />
<defs>
 <g id="p0" >
  <circle cx="0.0" cy="0.0" r="3" stroke="green" stroke-width="2.0" vector-effect="non-scaling-stroke" />
 </g>
</defs>
<g fill="#0000ff" fill-rule="evenodd" opacity="0.5" >
<path content="奈良県,,吉野郡,十津川村,,29449" xlink:title="奈良県" d="M13587.8906,-3392.5781L13587.8906,-3391.7894L13587.8896,-3391.7892L13587.8204,-3391.7661L13587.7501,-3391.7271L13587.7299,-3391.7102L13587.7171,-3391.7111L13587.7012,-3391.7244L13587.6927,-3391.7404L13587.6921,-3391.7618L13587.6916,-3391.7803L13587.681,-3391.8096L13587.6661,-3391.8176L13587.6352,-3391.8158L13587.5862,-3391.8158L13587.5,-3391.817L13587.4585,-3391.8176L13587.4266,-3391.8238L13587.4074,-3391.8318L13587.3053,-3391.8815L13587.2169,-3391.9208L13587.1371,-3391.9406L13587.023,-3391.9754L13586.8995,-3392.0013L13586.8693,-3392.0175L13586.8483,-3392.0273L13586.7836,-3392.0441L13586.7467,-3392.0546L13586.6979,-3392.0833L13586.6677,-3392.1056L13586.6667,-3392.1073L13586.6354,-3392.1575L13586.5943,-3392.2064L13586.5859,-3392.2072L13586.5758,-3392.1939L13586.5523,-3392.0889L13586.5498,-3392.0441L13586.5573,-3392.0013L13586.6016,-3391.9221L13586.6246,-3391.8708L13586.6667,-3391.7986L13586.693,-3391.7535L13586.7101,-3391.7107L13586.7115,-3391.6667L13586.712,-3391.6512L13586.7158,-3391.6275L13586.7386,-3391.6108L13586.8054,-3391.5819L13586.8311,-3391.5541L13586.8501,-3391.5105L13586.8938,-3391.4463L13586.8947,-3391.4297L13586.889,-3391.4187L13586.8881,-3391.417L13586.8434,-3391.3813L13586.771,-3391.322L13586.7011,-3391.2449L13586.6667,-3391.2069L13586.6503,-3391.1888L13586.5704,-3391.1143L13586.5343,-3391.0699L13586.5199,-3391.0341L13586.5047,-3391.0079L13586.4914,-3390.9596L13586.458,-3390.9131L13586.4479,-3390.9052L13586.4123,-3390.8771L13586.3705,-3390.8441L13586.3612,-3390.8333L13586.3315,-3390.7989L13586.3201,-3390.776L13586.3258,-3390.7569L13586.3278,-3390.7544L13586.3401,-3390.7387L13586.3401,-3390.7149L13586.3058,-3390.5821L13586.3035,-3390.5661L13586.2973,-3390.5219L13586.2773,-3390.4957L13586.239,-3390.4729L13586.2269,-3390.4656L13586.1476,-3390.4534L13586.1095,-3390.4344L13586.0553,-3390.371L13585.9983,-3390.3266L13585.9734,-3390.3055L13585.9439,-3390.2444L13585.9079,-3390.1794L13585.8812,-3390.1477L13585.8717,-3390.1192L13585.8898,-3390.0907L13585.9164,-3390.0756L13585.9639,-3390.059L13585.9668,-3390.0447L13585.9653,-3390L13585.9649,-3389.9879L13585.9849,-3389.9475L13586.0067,-3389.9142L13586.0114,-3389.8957L13586.0105,-3389.8855L13585.963,-3389.8419L13585.9041,-3389.7983L13585.8994,-3389.7931L13585.8717,-3389.7618L13585.8403,-3389.7098L13585.8384,-3389.6797L13585.8488,-3389.625L13585.8659,-3389.4807L13585.8859,-3389.3948L13585.9081,-3389.3301L13585.922,-3389.2894L13585.9259,-3389.2783L13585.9402,-3389.2541L13586.0135,-3389.1667L13586.0153,-3389.1646L13586.0267,-3389.1408L13586.0267,-3389.117L13585.9706,-3388.9667L13585.9719,-3388.9421L13585.9734,-3388.9128L13586.0029,-3388.8454L13586.0134,-3388.8172L13586.0828,-3388.7372L13586.1094,-3388.7142L13586.1342,-3388.7094L13586.1465,-3388.715L13586.1817,-3388.7514L13586.2663,-3388.8188L13586.3683,-3388.862L13586.452,-3388.9087L13586.4805,-3388.9111L13586.5974,-3388.877L13586.6667,-3388.8726L13586.6844,-3388.8715L13586.7539,-3388.8738L13586.8014,-3388.8786L13586.8337,-3388.8818L13586.8955,-3388.9L13586.9297,-3388.8968L13586.9896,-3388.8731L13587.0866,-3388.8715L13587.1441,-3388.8731L13587.1622,-3388.8651L13587.1793,-3388.7985L13587.204,-3388.6968L13587.2169,-3388.6678L13587.2263,-3388.6628L13587.2423,-3388.6543L13587.3265,-3388.5651L13587.3632,-3388.5251L13587.3898,-3388.5065L13587.4089,-3388.4909L13587.4276,-3388.4535L13587.4441,-3388.4238L13587.4654,-3388.3932L13587.4824,-3388.3866L13587.5,-3388.3856L13587.5086,-3388.3851L13587.5809,-3388.3971L13587.6716,-3388.4108L13587.6972,-3388.4139L13587.7201,-3388.4166L13587.7499,-3388.4162L13587.7796,-3388.4131L13587.832,-3388.4108L13587.84,-3388.4068L13587.8607,-3388.3766L13587.8814,-3388.3333L13587.8836,-3388.3287L13587.8906,-3388.3256L13587.8906,-3387.5175L13587.8749,-3387.5125L13587.8484,-3387.5L13587.8454,-3387.4986L13587.8391,-3387.4911L13587.8348,-3387.4417L13587.8162,-3387.4217L13587.7619,-3387.3858L13587.722,-3387.3702L13587.7034,-3387.3636L13587.6794,-3387.3627L13587.6656,-3387.3694L13587.6571,-3387.3689L13587.6217,-3387.3399L13587.6004,-3387.3261L13587.5728,-3387.3137L13587.5164,-3387.3079L13587.5,-3387.302L13587.4955,-3387.3004L13587.4882,-3387.2977L13587.4818,-3387.2884L13587.4561,-3387.1951L13587.4358,-3387.1247L13587.4156,-3387.0657L13587.405,-3387.0569L13587.3683,-3387.0569L13587.3454,-3387.0542L13587.3309,-3387.0447L13587.3288,-3387.0243L13587.3267,-3386.9733L13587.3203,-3386.9315L13587.3187,-3386.9207L13587.2969,-3386.8848L13587.2814,-3386.8402L13587.2803,-3386.8136L13587.2883,-3386.79L13587.3043,-3386.7696L13587.3277,-3386.751L13587.3554,-3386.7099L13587.3817,-3386.6667L13587.3889,-3386.6549L13587.4043,-3386.6103L13587.4021,-3386.5997L13587.3809,-3386.5877L13587.3687,-3386.5845L13587.3602,-3386.5743L13587.3591,-3386.553L13587.3798,-3386.4838L13587.4001,-3386.4312L13587.432,-3386.3503L13587.4517,-3386.2793L13587.4724,-3386.1904L13587.4764,-3386.1792L13587.4832,-3386.1596L13587.4124,-3386.1379L13587.3597,-3386.133L13587.3159,-3386.1258L13587.3101,-3386.1196L13587.31,-3386.1124L13587.309,-3386.0442L13587.3122,-3385.9583L13587.3138,-3385.9166L13587.3111,-3385.9041L13587.2967,-3385.9002L13587.2696,-3385.9028L13587.2489,-3385.9019L13587.2169,-3385.8956L13587.1383,-3385.9071L13587.0877,-3385.9322L13587.0231,-3385.9493L13586.9967,-3385.9719L13586.9718,-3385.9884L13586.9461,-3385.9982L13586.9117,-3386.0037L13586.8042,-3386.0068L13586.7074,-3385.9897L13586.6766,-3386.0001L13586.6667,-3386.0089L13586.6311,-3386.0404L13586.593,-3386.0581L13586.5336,-3386.0783L13586.4953,-3386.1153L13586.4359,-3386.1838L13586.4036,-3386.2089L13586.3501,-3386.2327L13586.2779,-3386.2471L13586.2696,-3386.2506L13586.2186,-3386.2721L13586.1893,-3386.3278L13586.1474,-3386.4061L13586.118,-3386.4731L13586.0799,-3386.5593L13586.0762,-3386.5978L13586.0865,-3386.6257L13586.1129,-3386.6544L13586.1283,-3386.6667L13586.1599,-3386.6917L13586.1782,-3386.7333L13586.187,-3386.7798L13586.1863,-3386.8927L13586.1709,-3386.9881L13586.2016,-3387.0302L13586.2193,-3387.0545L13586.2187,-3387.0661L13586.2149,-3387.148L13586.1877,-3387.2532L13586.2149,-3387.3674L13586.2137,-3387.5L13586.2125,-3387.6236L13586.2122,-3387.6549L13586.161,-3387.63L13586.1311,-3387.6272L13586.0234,-3387.6097L13585.9255,-3387.5573L13585.8809,-3387.5L13585.8376,-3387.4443L13585.8333,-3387.4323L13585.7939,-3387.3218L13585.7921,-3387.3153L13585.7591,-3387.3308L13585.7551,-3387.3327L13585.7278,-3387.3658L13585.7015,-3387.3978L13585.6988,-3387.4011L13585.6799,-3387.4235L13585.6095,-3387.5L13585.6064,-3387.5034L13585.5478,-3387.5605L13585.5124,-3387.5873L13585.4651,-3387.6102L13585.4055,-3387.6294L13585.3681,-3387.654L13585.3425,-3387.6742L13585.309,-3387.7325L13585.3019,-3387.763L13585.2973,-3387.783L13585.2874,-3387.8255L13585.2683,-3387.9018L13585.244,-3388.0268L13585.2274,-3388.1136L13585.2211,-3388.1466L13585.2146,-3388.2022L13585.231,-3388.2268L13585.2487,-3388.2393L13585.2933,-3388.247L13585.3248,-3388.2618L13585.3405,-3388.2798L13585.3484,-3388.3044L13585.3462,-3388.3333L13585.3425,-3388.383L13585.3445,-3388.4081L13585.3517,-3388.4262L13585.3877,-3388.4519L13585.414,-3388.4705L13585.4278,-3388.5044L13585.4324,-3388.5632L13585.4324,-3388.5735L13585.4324,-3388.6223L13585.4403,-3388.6398L13585.4737,-3388.6655L13585.4922,-3388.6854L13585.5158,-3388.7199L13585.5276,-3388.7592L13585.5289,-3388.7817L13585.5151,-3388.8013L13585.4732,-3388.8607L13585.4351,-3388.8881L13585.3518,-3388.9182L13585.2931,-3388.9527L13585.2399,-3388.991L13585.2124,-3389.032L13585.194,-3389.0746L13585.1848,-3389.1167L13585.1901,-3389.1632L13585.1911,-3389.1667L13585.2101,-3389.2326L13585.2117,-3389.2381L13585.2163,-3389.2607L13585.2097,-3389.2935L13585.2017,-3389.3244L13585.1979,-3389.3389L13585.185,-3389.3608L13585.1564,-3389.4092L13585.1328,-3389.4316L13585.1131,-3389.4387L13585.0502,-3389.4371L13585.0036,-3389.4453L13585,-3389.4465L13584.9726,-3389.4559L13584.9175,-3389.4881L13584.8585,-3389.5357L13584.7841,-3389.6152L13584.7507,-3389.6387L13584.7047,-3389.66L13584.6515,-3389.6701L13584.6326,-3389.6737L13584.5788,-3389.6693L13584.4955,-3389.6682L13584.4217,-3389.6677L13584.3732,-3389.6709L13584.2907,-3389.6944L13584.2695,-3389.7005L13584.2171,-3389.7065L13584.1667,-3389.7051L13584.073,-3389.7025L13583.9866,-3389.6879L13583.9629,-3389.6839L13583.9183,-3389.6691L13583.8605,-3389.633L13583.8257,-3389.6024L13583.7779,-3389.5691L13583.7427,-3389.5554L13583.6857,-3389.54L13583.6548,-3389.5428L13583.6056,-3389.5515L13583.5551,-3389.569L13583.4132,-3389.642L13583.3581,-3389.6764L13583.3333,-3389.6854L13583.2957,-3389.699L13583.2689,-3389.7087L13583.1722,-3389.723L13583.1204,-3389.7377L13583.0588,-3389.7629L13582.9962,-3389.8021L13582.9168,-3389.859L13582.8565,-3389.9142L13582.8176,-3389.9466L13582.7296,-3389.9811L13582.6729,-3390L13582.6522,-3390.0069L13582.5588,-3390.0525L13582.5,-3390.0816L13582.3994,-3390.1313L13582.36,-3390.1548L13582.3376,-3390.1681L13582.192,-3390.2523L13582.0926,-3390.3019L13582.0834,-3390.3065L13582.0486,-3390.3147L13581.9575,-3390.3125L13581.9201,-3390.3147L13581.8906,-3390.3273L13581.8445,-3390.3676L13581.8117,-3390.3932L13581.7756,-3390.4244L13581.7336,-3390.472L13581.6982,-3390.5138L13581.6713,-3390.5351L13581.6667,-3390.5382L13581.6319,-3390.5614L13581.6067,-3390.5675L13581.5391,-3390.5822L13581.4886,-3390.6069L13581.4562,-3390.609L13581.4552,-3390.6091L13581.3824,-3390.5926L13581.2925,-3390.5806L13581.2586,-3390.5823L13581.201,-3390.5904L13581.189,-3390.5921L13581.1306,-3390.5937L13581.0533,-3390.5839L13581.0249,-3390.5845L13580.9692,-3390.6014L13580.8793,-3390.6435L13580.8603,-3390.6468L13580.8485,-3390.6424L13580.8333,-3390.6315L13580.8285,-3390.628L13580.8003,-3390.6012L13580.7452,-3390.5733L13580.7072,-3390.5406L13580.6486,-3390.4757L13580.6086,-3390.4369L13580.5699,-3390.4156L13580.5377,-3390.4057L13580.4972,-3390.3948L13580.4747,-3390.3887L13580.4243,-3390.3707L13580.3784,-3390.3384L13580.3521,-3390.3226L13580.3362,-3390.2981L13580.3299,-3390.2267L13580.3276,-3390.2008L13580.3335,-3390.1406L13580.3145,-3390.0888L13580.2876,-3390.0139L13580.2858,-3390L13580.2724,-3389.8964L13580.2639,-3389.7734L13580.2382,-3389.7189L13580.2264,-3389.6834L13580.1824,-3389.5823L13580.168,-3389.5707L13580.1509,-3389.5735L13580.109,-3389.579L13580.0231,-3389.5768L13580,-3389.573L13579.9234,-3389.5604L13579.8797,-3389.5557L13579.8305,-3389.5461L13579.8239,-3389.5448L13579.7577,-3389.5443L13579.6789,-3389.5404L13579.6304,-3389.5306L13579.5721,-3389.4972L13579.5375,-3389.4813L13579.5012,-3389.4737L13579.4982,-3389.4731L13579.3932,-3389.4693L13579.3342,-3389.4753L13579.3014,-3389.4731L13579.2574,-3389.4616L13579.1843,-3389.4297L13579.1667,-3389.4231L13579.1364,-3389.4117L13579.1235,-3389.4083L13579.0564,-3389.3909L13579.0204,-3389.3702L13578.9914,-3389.3464L13578.9508,-3389.3108L13578.9324,-3389.2993L13578.9107,-3389.2889L13578.8661,-3389.2824L13578.814,-3389.2756L13578.7693,-3389.2697L13578.7221,-3389.2549L13578.6657,-3389.2549L13578.604,-3389.2456L13578.5935,-3389.2426L13578.5331,-3389.2254L13578.4951,-3389.1975L13578.4587,-3389.1836L13578.4012,-3389.1667L13578.3918,-3389.1639L13578.3721,-3389.1524L13578.3544,-3389.1076L13578.3333,-3389.0748L13578.3307,-3389.0707L13578.2428,-3389.0029L13578.1687,-3388.9569L13578.0766,-3388.9043L13578.0293,-3388.8841L13577.9408,-3388.8474L13577.8983,-3388.8437L13577.8286,-3388.8376L13577.7653,-3388.8184L13577.7509,-3388.8195L13577.7467,-3388.8206L13577.7391,-3388.8226L13577.6932,-3388.8343L13577.6577,-3388.8321L13577.6086,-3388.8419L13577.5574,-3388.8572L13577.5,-3388.8947L13577.4934,-3388.899L13577.4219,-3388.9466L13577.3734,-3388.9849L13577.3489,-3389.0145L13577.3299,-3389.0277L13577.3161,-3389.0304L13577.2499,-3389.0069L13577.2079,-3388.9987L13577.1745,-3389.0014L13577.0977,-3389.0271L13577.0649,-3389.0315L13577.0293,-3389.0426L13577.0096,-3389.0492L13576.9631,-3389.0809L13576.9197,-3389.0891L13576.9197,-3389.0891L13576.8712,-3389.0913L13576.7895,-3389.0814L13576.7311,-3389.0765L13576.6667,-3389.0842L13576.6623,-3389.0847L13576.6249,-3389.0836L13576.6058,-3389.0792L13576.5702,-3389.0543L13576.56,-3389.0449L13576.5183,-3389.0062L13576.4927,-3388.9657L13576.4704,-3388.9258L13576.4454,-3388.8554L13576.4126,-3388.7525L13576.4087,-3388.7482L13576.3877,-3388.7367L13576.3582,-3388.7377L13576.2775,-3388.746L13576.1998,-3388.7646L13576.1401,-3388.7761L13576.1093,-3388.7744L13576.0928,-3388.766L13576.0746,-3388.7567L13576.0567,-3388.7476L13576.0483,-3388.7432L13576.02,-3388.733L13576.003,-3388.7268L13575.9642,-3388.7034L13575.9398,-3388.6888L13575.865,-3388.6374L13575.8333,-3388.6165L13575.7929,-3388.5898L13575.6397,-3388.5241L13575.6129,-3388.5169L13575.6115,-3388.5165L13575.5938,-3388.5187L13575.5721,-3388.5334L13575.5269,-3388.5706L13575.4825,-3388.6157L13575.4302,-3388.6688L13575.3922,-3388.6978L13575.3063,-3388.7437L13575.2813,-3388.764L13575.2643,-3388.7798L13575.2432,-3388.8327L13575.2025,-3388.9333L13575.1927,-3388.9508L13575.1809,-3388.9557L13575.1008,-3388.9218L13575.0929,-3388.9179L13575.0121,-3388.8772L13575,-3388.8725L13574.9308,-3388.8455L13574.898,-3388.8302L13574.8507,-3388.7788L13574.8429,-3388.7771L13574.8114,-3388.805L13574.7525,-3388.8502L13574.718,-3388.8592L13574.7013,-3388.8693L13574.6887,-3388.8811L13574.6778,-3388.9072L13574.6606,-3388.9215L13574.6308,-3388.9281L13574.5869,-3388.9242L13574.5556,-3388.9202L13574.543,-3388.9294L13574.5367,-3388.9791L13574.507,-3389.0418L13574.485,-3389.0666L13574.4521,-3389.0784L13574.4239,-3389.0744L13574.3999,-3389.0615L13574.3686,-3389.0471L13574.3121,-3389.0354L13574.2839,-3389.0145L13574.2416,-3389.0027L13574.2244,-3389.0053L13574.2291,-3389.0275L13574.2244,-3389.0497L13574.193,-3389.0667L13574.1711,-3389.0942L13574.1667,-3389.096L13574.1634,-3389.0974L13574.1429,-3389.1059L13574.099,-3389.1125L13574.0771,-3389.1256L13574.0677,-3389.1452L13574.0677,-3389.1667L13574.0677,-3389.1713L13574.0831,-3389.1954L13574.0924,-3389.2372L13574.0877,-3389.2581L13574.0797,-3389.2636L13574.0605,-3389.2769L13574.0251,-3389.3012L13573.9827,-3389.3182L13573.9169,-3389.3261L13573.9044,-3389.3365L13573.895,-3389.4267L13573.8966,-3389.4802L13573.881,-3389.4932L13573.8809,-3389.4933L13573.8621,-3389.4933L13573.8088,-3389.4802L13573.779,-3389.4802L13573.7398,-3389.4881L13573.7132,-3389.4959L13573.6881,-3389.4881L13573.6771,-3389.4763L13573.6442,-3389.4267L13573.6317,-3389.4214L13573.6207,-3389.4227L13573.5793,-3389.486L13573.5613,-3389.5053L13573.5464,-3389.5213L13573.5198,-3389.5514L13573.5119,-3389.5827L13573.4947,-3389.5997L13573.4618,-3389.6076L13573.4352,-3389.6076L13573.3991,-3389.5879L13573.3709,-3389.5827L13573.3333,-3389.5877L13573.3317,-3389.5879L13573.2534,-3389.6206L13573.221,-3389.6533L13573.2157,-3389.6585L13573.1546,-3389.7566L13573.1136,-3389.8474L13573.0807,-3389.9467L13573.0509,-3389.9977L13573.0478,-3390L13573.0227,-3390.0186L13572.9678,-3390.0264L13572.9224,-3390.0473L13572.8905,-3390.0836L13572.8702,-3390.1066L13572.7605,-3390.1615L13572.6006,-3390.2543L13572.5753,-3390.2642L13572.5,-3390.2938L13572.411,-3390.3288L13572.3906,-3390.3314L13572.3716,-3390.3221L13572.2886,-3390.2619L13572.251,-3390.2319L13572.2369,-3390.2266L13572.2024,-3390.2306L13572.1256,-3390.2659L13572.0843,-3390.2699L13572.0091,-3390.2673L13571.9667,-3390.2699L13571.9364,-3390.2806L13571.8774,-3390.3013L13571.8382,-3390.3092L13571.7693,-3390.2909L13571.6831,-3390.2752L13571.6667,-3390.272L13571.6564,-3390.2699L13571.578,-3390.2869L13571.5554,-3390.287L13571.524,-3390.2831L13571.4645,-3390.2687L13571.4237,-3390.2595L13571.3751,-3390.2608L13571.3156,-3390.2726L13571.2137,-3390.2935L13571.1902,-3390.3026L13571.1275,-3390.3379L13571.058,-3390.3916L13570.9969,-3390.4243L13570.9656,-3390.4296L13570.9083,-3390.4309L13570.8574,-3390.4322L13570.8333,-3390.4324L13570.743,-3390.4335L13570.6615,-3390.4465L13570.6317,-3390.4452L13570.602,-3390.4296L13570.5393,-3390.389L13570.5136,-3390.3785L13570.4587,-3390.3641L13570.4164,-3390.3654L13570.349,-3390.3759L13570.3261,-3390.3766L13570.3125,-3390.377L13570.3125,-3392.5781Z"/>
<path content="和歌山県,,,田辺市,,30206" xlink:title="和歌山県" d="M13570.3125,-3375L13570.3125,-3390.377L13570.3261,-3390.3766L13570.349,-3390.3759L13570.4164,-3390.3654L13570.4587,-3390.3641L13570.5136,-3390.3785L13570.5393,-3390.389L13570.602,-3390.4296L13570.6317,-3390.4452L13570.6615,-3390.4465L13570.743,-3390.4335L13570.8333,-3390.4324L13570.8574,-3390.4322L13570.9083,-3390.4309L13570.9656,-3390.4296L13570.9969,-3390.4243L13571.058,-3390.3916L13571.1275,-3390.3379L13571.1902,-3390.3026L13571.2137,-3390.2935L13571.3156,-3390.2726L13571.3751,-3390.2608L13571.4237,-3390.2595L13571.4645,-3390.2687L13571.524,-3390.2831L13571.5554,-3390.287L13571.578,-3390.2869L13571.6564,-3390.2699L13571.6667,-3390.272L13571.6831,-3390.2752L13571.7693,-3390.2909L13571.8382,-3390.3092L13571.8774,-3390.3013L13571.9364,-3390.2806L13571.9667,-3390.2699L13572.0091,-3390.2673L13572.0843,-3390.2699L13572.1256,-3390.2659L13572.2024,-3390.2306L13572.2369,-3390.2266L13572.251,-3390.2319L13572.2886,-3390.2619L13572.3716,-3390.3221L13572.3906,-3390.3314L13572.411,-3390.3288L13572.5,-3390.2938L13572.5753,-3390.2642L13572.6006,-3390.2543L13572.7605,-3390.1615L13572.8702,-3390.1066L13572.8905,-3390.0836L13572.9224,-3390.0473L13572.9678,-3390.0264L13573.0227,-3390.0186L13573.0478,-3390L13573.0509,-3389.9977L13573.0807,-3389.9467L13573.1136,-3389.8474L13573.1546,-3389.7566L13573.2157,-3389.6585L13573.221,-3389.6533L13573.2534,-3389.6206L13573.3317,-3389.5879L13573.3333,-3389.5877L13573.3709,-3389.5827L13573.3991,-3389.5879L13573.4352,-3389.6076L13573.4618,-3389.6076L13573.4947,-3389.5997L13573.5119,-3389.5827L13573.5198,-3389.5514L13573.5464,-3389.5213L13573.5613,-3389.5053L13573.5793,-3389.486L13573.6207,-3389.4227L13573.6317,-3389.4214L13573.6442,-3389.4267L13573.6771,-3389.4763L13573.6881,-3389.4881L13573.7132,-3389.4959L13573.7398,-3389.4881L13573.779,-3389.4802L13573.8088,-3389.4802L13573.8621,-3389.4933L13573.8809,-3389.4933L13573.881,-3389.4932L13573.8966,-3389.4802L13573.895,-3389.4267L13573.9044,-3389.3365L13573.9169,-3389.3261L13573.9827,-3389.3182L13574.0251,-3389.3012L13574.0605,-3389.2769L13574.0797,-3389.2636L13574.0877,-3389.2581L13574.0924,-3389.2372L13574.0831,-3389.1954L13574.0677,-3389.1713L13574.0677,-3389.1667L13574.0677,-3389.1452L13574.0771,-3389.1256L13574.099,-3389.1125L13574.1429,-3389.1059L13574.1634,-3389.0974L13574.1667,-3389.096L13574.1711,-3389.0942L13574.193,-3389.0667L13574.2244,-3389.0497L13574.2291,-3389.0275L13574.2244,-3389.0053L13574.2416,-3389.0027L13574.2839,-3389.0145L13574.3121,-3389.0354L13574.3686,-3389.0471L13574.3999,-3389.0615L13574.4239,-3389.0744L13574.4521,-3389.0784L13574.485,-3389.0666L13574.507,-3389.0418L13574.5367,-3388.9791L13574.543,-3388.9294L13574.5556,-3388.9202L13574.5869,-3388.9242L13574.6308,-3388.9281L13574.6606,-3388.9215L13574.6778,-3388.9072L13574.6887,-3388.8811L13574.7013,-3388.8693L13574.718,-3388.8592L13574.7525,-3388.8502L13574.8114,-3388.805L13574.8429,-3388.7771L13574.8507,-3388.7788L13574.898,-3388.8302L13574.9308,-3388.8455L13575,-3388.8725L13575.0121,-3388.8772L13575.0929,-3388.9179L13575.1008,-3388.9218L13575.1809,-3388.9557L13575.1927,-3388.9508L13575.2025,-3388.9333L13575.2432,-3388.8327L13575.2643,-3388.7798L13575.2813,-3388.764L13575.3063,-3388.7437L13575.3922,-3388.6978L13575.4302,-3388.6688L13575.4825,-3388.6157L13575.5269,-3388.5706L13575.5721,-3388.5334L13575.5938,-3388.5187L13575.6115,-3388.5165L13575.6129,-3388.5169L13575.6397,-3388.5241L13575.7929,-3388.5898L13575.8333,-3388.6165L13575.865,-3388.6374L13575.9398,-3388.6888L13575.9642,-3388.7034L13576.003,-3388.7268L13576.02,-3388.733L13576.0483,-3388.7432L13576.0567,-3388.7476L13576.0746,-3388.7567L13576.0928,-3388.766L13576.1093,-3388.7744L13576.1401,-3388.7761L13576.1998,-3388.7646L13576.2775,-3388.746L13576.3582,-3388.7377L13576.3877,-3388.7367L13576.4087,-3388.7482L13576.4126,-3388.7525L13576.4454,-3388.8554L13576.4704,-3388.9258L13576.4927,-3388.9657L13576.5183,-3389.0062L13576.56,-3389.0449L13576.5702,-3389.0543L13576.6058,-3389.0792L13576.6249,-3389.0836L13576.6623,-3389.0847L13576.6667,-3389.0842L13576.7311,-3389.0765L13576.7895,-3389.0814L13576.8712,-3389.0913L13576.9197,-3389.0891L13576.9197,-3389.0891L13576.9631,-3389.0809L13577.0096,-3389.0492L13577.0293,-3389.0426L13577.0649,-3389.0315L13577.0977,-3389.0271L13577.1745,-3389.0014L13577.2079,-3388.9987L13577.2499,-3389.0069L13577.3161,-3389.0304L13577.3299,-3389.0277L13577.3489,-3389.0145L13577.3734,-3388.9849L13577.4219,-3388.9466L13577.4934,-3388.899L13577.5,-3388.8947L13577.5574,-3388.8572L13577.6086,-3388.8419L13577.6577,-3388.8321L13577.6932,-3388.8343L13577.7391,-3388.8226L13577.7467,-3388.8206L13577.7509,-3388.8195L13577.7653,-3388.8184L13577.8286,-3388.8376L13577.8983,-3388.8437L13577.9408,-3388.8474L13578.0293,-3388.8841L13578.0766,-3388.9043L13578.1687,-3388.9569L13578.2428,-3389.0029L13578.3307,-3389.0707L13578.3333,-3389.0748L13578.3544,-3389.1076L13578.3721,-3389.1524L13578.3918,-3389.1639L13578.4012,-3389.1667L13578.4587,-3389.1836L13578.4951,-3389.1975L13578.5331,-3389.2254L13578.5935,-3389.2426L13578.604,-3389.2456L13578.6657,-3389.2549L13578.7221,-3389.2549L13578.7693,-3389.2697L13578.814,-3389.2756L13578.8661,-3389.2824L13578.9107,-3389.2889L13578.9324,-3389.2993L13578.9508,-3389.3108L13578.9914,-3389.3464L13579.0204,-3389.3702L13579.0564,-3389.3909L13579.1235,-3389.4083L13579.1364,-3389.4117L13579.1667,-3389.4231L13579.1843,-3389.4297L13579.2574,-3389.4616L13579.3014,-3389.4731L13579.3342,-3389.4753L13579.3932,-3389.4693L13579.4982,-3389.4731L13579.5012,-3389.4737L13579.5375,-3389.4813L13579.5721,-3389.4972L13579.6304,-3389.5306L13579.6789,-3389.5404L13579.7577,-3389.5443L13579.8239,-3389.5448L13579.8305,-3389.5461L13579.8797,-3389.5557L13579.9234,-3389.5604L13580,-3389.573L13580.0231,-3389.5768L13580.109,-3389.579L13580.1509,-3389.5735L13580.168,-3389.5707L13580.1824,-3389.5823L13580.2232,-3389.5402L13580.2445,-3389.5185L13580.2658,-3389.4872L13580.2836,-3389.4596L13580.286,-3389.4389L13580.2821,-3389.4196L13580.2608,-3389.3837L13580.2429,-3389.356L13580.2271,-3389.3431L13580.1903,-3389.3344L13580.1499,-3389.3188L13580.131,-3389.3007L13580.1207,-3389.2819L13580.1168,-3389.2363L13580.1133,-3389.179L13580.1163,-3389.1667L13580.1172,-3389.1628L13580.1288,-3389.1515L13580.1412,-3389.1467L13580.1679,-3389.1418L13580.1958,-3389.1289L13580.2169,-3389.0945L13580.2247,-3389.0868L13580.2317,-3389.0839L13580.27,-3389.0778L13580.2867,-3389.0691L13580.3006,-3389.0519L13580.3103,-3389.0251L13580.3104,-3389.0026L13580.2937,-3388.9539L13580.2933,-3388.9448L13580.2987,-3388.9247L13580.2968,-3388.8823L13580.3014,-3388.8612L13580.3018,-3388.8591L13580.336,-3388.7907L13580.3523,-3388.7671L13580.3732,-3388.7558L13580.4015,-3388.7439L13580.4139,-3388.7306L13580.4236,-3388.6997L13580.4349,-3388.6864L13580.4608,-3388.6739L13580.4907,-3388.6635L13580.5364,-3388.6377L13580.5609,-3388.6152L13580.5636,-3388.6107L13580.5733,-3388.5884L13580.5853,-3388.5791L13580.6136,-3388.569L13580.6259,-3388.5645L13580.6434,-3388.5555L13580.6629,-3388.5314L13580.6707,-3388.5188L13580.673,-3388.5042L13580.6827,-3388.4804L13580.6986,-3388.4159L13580.7063,-3388.363L13580.7092,-3388.3333L13580.7114,-3388.3107L13580.709,-3388.2823L13580.6982,-3388.2439L13580.6842,-3388.1726L13580.673,-3388.14L13580.6644,-3388.1152L13580.6581,-3388.1042L13580.635,-3388.0636L13580.6203,-3388.0201L13580.6117,-3387.9807L13580.6103,-3387.9414L13580.6098,-3387.9284L13580.6083,-3387.8987L13580.6152,-3387.8451L13580.6141,-3387.8115L13580.609,-3387.8028L13580.6047,-3387.8005L13580.5741,-3387.8079L13580.4509,-3387.8464L13580.4391,-3387.8461L13580.4209,-3387.8383L13580.3803,-3387.8106L13580.3483,-3387.7916L13580.322,-3387.7703L13580.3196,-3387.765L13580.3177,-3387.7606L13580.3379,-3387.7325L13580.3483,-3387.7083L13580.3458,-3387.6986L13580.3417,-3387.6835L13580.3453,-3387.6702L13580.353,-3387.6612L13580.3828,-3387.6441L13580.3975,-3387.627L13580.3994,-3387.605L13580.4072,-3387.5944L13580.4263,-3387.5722L13580.4271,-3387.5489L13580.4387,-3387.5224L13580.4399,-3387.5131L13580.4371,-3387.5L13580.4337,-3387.4837L13580.4335,-3387.4817L13580.4314,-3387.4592L13580.436,-3387.4463L13580.4678,-3387.4128L13580.4806,-3387.4018L13580.4957,-3387.3911L13580.5011,-3387.3756L13580.4996,-3387.3612L13580.4844,-3387.3395L13580.4821,-3387.3259L13580.4872,-3387.3153L13580.4941,-3387.3137L13580.5069,-3387.3117L13580.5065,-3387.3088L13580.4988,-3387.2914L13580.5019,-3387.2759L13580.5143,-3387.2565L13580.534,-3387.241L13580.5356,-3387.234L13580.5213,-3387.2143L13580.5186,-3387.1949L13580.5256,-3387.1642L13580.5364,-3387.1405L13580.5574,-3387.1111L13580.562,-3387.0956L13580.5581,-3387.0846L13580.5372,-3387.0681L13580.5356,-3387.0649L13580.5334,-3387.0602L13580.5318,-3387.0568L13580.5387,-3387.0429L13580.569,-3387.0321L13580.5803,-3387.0192L13580.5841,-3387.0095L13580.5721,-3386.9837L13580.5566,-3386.9652L13580.5264,-3386.9411L13580.5213,-3386.9286L13580.519,-3386.9092L13580.5213,-3386.9004L13580.5267,-3386.8937L13580.5419,-3386.8878L13580.5461,-3386.8798L13580.5303,-3386.8588L13580.5279,-3386.8469L13580.533,-3386.8379L13580.5547,-3386.8243L13580.5802,-3386.8127L13580.5907,-3386.803L13580.5918,-3386.7969L13580.5879,-3386.7876L13580.5721,-3386.7673L13580.5663,-3386.7476L13580.5647,-3386.7379L13580.5658,-3386.7279L13580.5667,-3386.7205L13580.5508,-3386.6924L13580.5454,-3386.6726L13580.5382,-3386.6667L13580.5155,-3386.6477L13580.5151,-3386.64L13580.526,-3386.6092L13580.5368,-3386.5898L13580.5543,-3386.5798L13580.5643,-3386.5746L13580.5713,-3386.5682L13580.5701,-3386.551L13580.5663,-3386.544L13580.5531,-3386.5369L13580.5279,-3386.5285L13580.5194,-3386.5208L13580.5182,-3386.513L13580.519,-3386.5082L13580.5511,-3386.4897L13580.5558,-3386.4778L13580.5453,-3386.4558L13580.5179,-3386.4384L13580.5066,-3386.4355L13580.4931,-3386.4352L13580.4756,-3386.4364L13580.4384,-3386.4484L13580.4108,-3386.4453L13580.3267,-3386.4179L13580.3011,-3386.4143L13580.2872,-3386.4153L13580.2826,-3386.4243L13580.2872,-3386.4386L13580.2992,-3386.4579L13580.3527,-3386.5156L13580.3717,-3386.5489L13580.3736,-3386.5718L13580.3628,-3386.5931L13580.3337,-3386.6328L13580.3163,-3386.6454L13580.2979,-3386.6667L13580.2672,-3386.7023L13580.2609,-3386.7097L13580.2174,-3386.7877L13580.1988,-3386.8566L13580.1933,-3386.895L13580.1755,-3386.9337L13580.1523,-3386.9641L13580.1209,-3386.997L13580.0716,-3387.0648L13580.0057,-3387.1165L13580,-3387.1227L13579.9435,-3387.1845L13579.9422,-3387.1857L13579.9161,-3387.2078L13579.8761,-3387.2311L13579.8388,-3387.2651L13579.8078,-3387.2971L13579.7859,-3387.3101L13579.7796,-3387.3139L13579.7635,-3387.3159L13579.7383,-3387.3111L13579.7213,-3387.302L13579.6911,-3387.2949L13579.6496,-3387.2907L13579.6217,-3387.2862L13579.6008,-3387.2784L13579.5995,-3387.2772L13579.582,-3387.2616L13579.565,-3387.2412L13579.5557,-3387.2088L13579.5406,-3387.1564L13579.5274,-3387.1251L13579.5231,-3387.1039L13579.5184,-3387.0552L13579.5177,-3387.0068L13579.5215,-3386.9581L13579.5312,-3386.8684L13579.5336,-3386.8287L13579.5273,-3386.7994L13579.5196,-3386.7809L13579.4909,-3386.7506L13579.4556,-3386.71L13579.4459,-3386.6881L13579.4423,-3386.6667L13579.4404,-3386.6555L13579.4408,-3386.6322L13579.4439,-3386.6201L13579.4486,-3386.6019L13579.4595,-3386.5751L13579.4951,-3386.5325L13579.5153,-3386.5015L13579.5184,-3386.4827L13579.5129,-3386.4638L13579.4886,-3386.4321L13579.4846,-3386.427L13579.4742,-3386.4086L13579.4533,-3386.3431L13579.4187,-3386.3024L13579.4017,-3386.2856L13579.3928,-3386.2733L13579.3761,-3386.2263L13579.364,-3386.1662L13579.3512,-3386.1289L13579.3338,-3386.0962L13579.3116,-3386.066L13579.2946,-3386.0321L13579.2907,-3385.9956L13579.2779,-3385.9688L13579.2682,-3385.9543L13579.264,-3385.9217L13579.2551,-3385.8956L13579.2514,-3385.873L13579.2509,-3385.87L13579.2487,-3385.8567L13579.2487,-3385.8449L13579.252,-3385.8333L13579.2576,-3385.8133L13579.2576,-3385.784L13579.245,-3385.7652L13579.2299,-3385.7529L13579.214,-3385.7291L13579.184,-3385.6623L13579.1699,-3385.6221L13579.1694,-3385.6077L13579.1762,-3385.5901L13579.1835,-3385.571L13579.184,-3385.5479L13579.1709,-3385.5175L13579.1667,-3385.5077L13579.1483,-3385.4649L13579.1343,-3385.4144L13579.1301,-3385.3847L13579.1404,-3385.3432L13579.1558,-3385.3182L13579.1667,-3385.3044L13579.1844,-3385.2819L13579.2317,-3385.223L13579.2425,-3385.1952L13579.2454,-3385.1644L13579.2449,-3385.1332L13579.2491,-3385.1047L13579.2388,-3385.0727L13579.2421,-3385.0626L13579.2566,-3385.0321L13579.2561,-3385.0227L13579.2466,-3385L13579.2346,-3384.9712L13579.2252,-3384.9335L13579.2097,-3384.8905L13579.1671,-3384.7823L13579.1667,-3384.781L13579.1581,-3384.7547L13579.1568,-3384.7351L13579.1539,-3384.6937L13579.1436,-3384.648L13579.1455,-3384.6254L13579.1507,-3384.6142L13579.1667,-3384.6088L13579.1831,-3384.6033L13579.2716,-3384.5689L13579.3517,-3384.5369L13579.3728,-3384.5174L13579.3973,-3384.4749L13579.4194,-3384.4107L13579.4236,-3384.3885L13579.4522,-3384.3401L13579.472,-3384.319L13579.5184,-3384.2303L13579.5367,-3384.2016L13579.5667,-3384.1758L13579.5837,-3384.1667L13579.6,-3384.1579L13579.6567,-3384.1309L13579.6731,-3384.1219L13579.7068,-3384.0867L13579.7302,-3384.046L13579.7464,-3384.0177L13579.7796,-3383.9814L13579.8223,-3383.9439L13579.8524,-3383.9128L13579.8956,-3383.8409L13579.9218,-3383.8008L13579.9391,-3383.7762L13579.9752,-3383.7411L13580,-3383.7153L13580.0269,-3383.6873L13580.0452,-3383.6689L13580.1231,-3383.5815L13580.1487,-3383.5519L13580.165,-3383.5246L13580.2034,-3383.4891L13580.2758,-3383.4351L13580.3159,-3383.3987L13580.3337,-3383.3899L13580.3586,-3383.3928L13580.3777,-3383.3994L13580.4054,-3383.397L13580.4274,-3383.3875L13580.4566,-3383.3543L13580.4739,-3383.3333L13580.4837,-3383.3214L13580.5072,-3383.3054L13580.5263,-3383.3006L13580.5541,-3383.3054L13580.5775,-3383.3143L13580.595,-3383.3267L13580.6043,-3383.3333L13580.6108,-3383.338L13580.6178,-3383.3409L13580.6293,-3383.3457L13580.6386,-3383.3445L13580.6563,-3383.3333L13580.6752,-3383.3214L13580.7526,-3383.2561L13580.7964,-3383.2257L13580.8333,-3383.1958L13580.8584,-3383.1756L13580.899,-3383.1444L13580.9402,-3383.1219L13580.9658,-3383.1175L13580.975,-3383.1159L13580.9949,-3383.1177L13581.0057,-3383.1292L13581.0552,-3383.1817L13581.0838,-3383.2067L13581.142,-3383.2245L13581.1984,-3383.2341L13581.1871,-3383.1813L13581.1864,-3383.0922L13581.1926,-3383.083L13581.2006,-3383.0714L13581.2048,-3383.0441L13581.2084,-3382.9283L13581.2141,-3382.9075L13581.2439,-3382.8554L13581.2567,-3382.8016L13581.2297,-3382.7394L13581.2269,-3382.6955L13581.2276,-3382.6026L13581.2449,-3382.5896L13581.2858,-3382.5587L13581.3526,-3382.5096L13581.3499,-3382.5L13581.3369,-3382.4541L13581.3391,-3382.4346L13581.3618,-3382.4097L13581.4421,-3382.364L13581.4707,-3382.3407L13581.5318,-3382.2808L13581.5637,-3382.2524L13581.5943,-3382.2393L13581.6475,-3382.2292L13581.6667,-3382.2197L13581.7359,-3382.1852L13581.8197,-3382.1289L13581.8389,-3382.1102L13581.8808,-3382.064L13581.8979,-3382.0509L13581.9369,-3382.0355L13581.9824,-3381.994L13581.9937,-3381.9919L13582.1013,-3381.972L13582.1695,-3381.9494L13582.2007,-3381.9287L13582.2149,-3381.9056L13582.2301,-3381.8484L13582.2414,-3381.8324L13582.2883,-3381.7992L13582.3643,-3381.7909L13582.3991,-3381.7772L13582.4226,-3381.7499L13582.4654,-3381.6898L13582.472,-3381.6667L13582.4796,-3381.6394L13582.5,-3381.6186L13582.5173,-3381.6009L13582.5884,-3381.555L13582.5916,-3381.5496L13582.6069,-3381.5241L13582.6126,-3381.4909L13582.6161,-3381.4518L13582.6403,-3381.424L13582.6824,-3381.3874L13582.6851,-3381.3853L13582.72,-3381.3589L13582.7662,-3381.3447L13582.8074,-3381.3358L13582.8358,-3381.3198L13582.8727,-3381.2777L13582.9096,-3381.2299L13582.9479,-3381.1943L13582.9895,-3381.1766L13583.0136,-3381.1706L13583.0236,-3381.1594L13583.0399,-3381.1096L13583.0477,-3381.0533L13583.0471,-3381.0064L13583.047,-3380.9978L13583.0421,-3380.9344L13583.0278,-3380.8757L13583.0079,-3380.8656L13582.9845,-3380.8576L13582.9724,-3380.8475L13582.9674,-3380.8333L13582.9618,-3380.8173L13582.9689,-3380.7859L13582.9739,-3380.7437L13582.9689,-3380.6977L13582.9607,-3380.6592L13582.9597,-3380.6545L13582.9682,-3380.6065L13582.9739,-3380.527L13582.9704,-3380.51L13582.9639,-3380.4775L13582.9483,-3380.3826L13582.9375,-3380.3586L13582.8991,-3380.3034L13582.8721,-3380.2862L13582.8196,-3380.2637L13582.7912,-3380.2406L13582.7649,-3380.2074L13582.7513,-3380.1805L13582.7243,-3380.1515L13582.7058,-3380.1437L13582.6852,-3380.1461L13582.6498,-3380.1593L13582.6263,-3380.1681L13582.6014,-3380.1681L13582.5602,-3380.1532L13582.5027,-3380.1153L13582.5,-3380.1138L13582.4619,-3380.0919L13582.3831,-3380.0717L13582.3736,-3380.0681L13582.3554,-3380.0611L13582.3483,-3380L13582.3419,-3379.9449L13582.3319,-3379.9072L13582.2793,-3379.7874L13582.2623,-3379.7211L13582.2458,-3379.6834L13582.2403,-3379.6692L13582.24,-3379.6686L13582.2359,-3379.6579L13582.2451,-3379.6306L13582.2408,-3379.5897L13582.2259,-3379.4868L13582.2209,-3379.4257L13582.2024,-3379.3501L13582.1975,-3379.2974L13582.1904,-3379.2784L13582.1669,-3379.2582L13582.1492,-3379.2487L13582.1415,-3379.2377L13582.1313,-3379.2229L13582.1229,-3379.2163L13582.1021,-3379.1998L13582.0943,-3379.1809L13582.0931,-3379.1667L13582.0894,-3379.1239L13582.078,-3379.0842L13582.0651,-3379.0709L13582.0189,-3379.046L13581.9593,-3379.0181L13581.9372,-3378.9986L13581.933,-3378.9849L13581.9422,-3378.9274L13581.9534,-3378.8896L13581.956,-3378.8674L13581.9465,-3378.8352L13581.9234,-3378.8123L13581.9122,-3378.807L13581.8899,-3378.7965L13581.8452,-3378.7915L13581.8193,-3378.7768L13581.8186,-3378.7764L13581.8015,-3378.7599L13581.7791,-3378.7227L13581.7679,-3378.6879L13581.7645,-3378.6521L13581.7696,-3378.632L13581.7902,-3378.5977L13581.8211,-3378.5532L13581.8251,-3378.5359L13581.8236,-3378.5197L13581.8103,-3378.5017L13581.7827,-3378.4967L13581.7797,-3378.4974L13581.7582,-3378.5017L13581.7173,-3378.5166L13581.6697,-3378.5172L13581.6667,-3378.5171L13581.6258,-3378.5147L13581.5827,-3378.5222L13581.5541,-3378.5328L13581.5154,-3378.5521L13581.4782,-3378.5613L13581.441,-3378.5638L13581.4068,-3378.5582L13581.322,-3378.5316L13581.2617,-3378.4987L13581.2489,-3378.4818L13581.2414,-3378.4426L13581.2295,-3378.3661L13581.2176,-3378.3437L13581.2048,-3378.3333L13581.1996,-3378.3291L13581.1618,-3378.2984L13581.1214,-3378.2638L13581.1058,-3378.2471L13581.1029,-3378.2347L13581.1133,-3378.2192L13581.114,-3378.1993L13581.111,-3378.1838L13581.088,-3378.1527L13581.0597,-3378.1074L13581.0559,-3378.1049L13581.0404,-3378.0944L13581.0039,-3378.0801L13580.9809,-3378.0639L13580.9682,-3378.0407L13580.9526,-3378.0122L13580.9303,-3377.9923L13580.9131,-3377.9874L13580.8901,-3377.9855L13580.8626,-3378.0029L13580.8333,-3378.0306L13580.8246,-3378.0389L13580.7782,-3378.0576L13580.7194,-3378.0687L13580.6845,-3378.0669L13580.625,-3378.0532L13580.6064,-3378.0346L13580.6062,-3378.0297L13580.6056,-3378.0172L13580.5883,-3377.9891L13580.5489,-3377.9656L13580.473,-3377.9395L13580.4499,-3377.9426L13580.3718,-3377.955L13580.2778,-3377.9456L13580.1997,-3377.9438L13580.164,-3377.9326L13580.1355,-3377.9168L13580.1345,-3377.9156L13580.1229,-3377.9025L13580.1102,-3377.8529L13580.1028,-3377.8367L13580.0537,-3377.8069L13580.0448,-3377.792L13580.0269,-3377.7461L13580.0157,-3377.7308L13580,-3377.7213L13579.9718,-3377.7041L13579.9249,-3377.6787L13579.8914,-3377.6687L13579.8981,-3377.6501L13579.919,-3377.6222L13579.9205,-3377.5998L13579.9161,-3377.5761L13579.9123,-3377.5557L13579.9145,-3377.5108L13579.9159,-3377.5L13579.9189,-3377.4754L13579.9331,-3377.4518L13579.9569,-3377.4369L13579.9814,-3377.417L13579.9889,-3377.3928L13579.9909,-3377.3649L13579.9846,-3377.2786L13579.9756,-3377.1836L13579.9694,-3377.1313L13579.9657,-3377.1004L13579.9324,-3377.0523L13579.9145,-3377.0463L13579.8695,-3377.0388L13579.8529,-3376.997L13579.8434,-3376.9731L13579.7831,-3376.9799L13579.7247,-3376.9701L13579.723,-3376.9701L13579.6969,-3376.9694L13579.6204,-3377.0054L13579.5961,-3377.0039L13579.5107,-3376.9859L13579.4939,-3376.9768L13579.4589,-3376.946L13579.422,-3376.9347L13579.3699,-3376.9212L13579.3456,-3376.8905L13579.3276,-3376.8507L13579.3151,-3376.7996L13579.2827,-3376.7419L13579.2804,-3376.7181L13579.2799,-3376.713L13579.2566,-3376.6807L13579.2511,-3376.6682L13579.2505,-3376.6667L13579.2458,-3376.6559L13579.1891,-3376.6199L13579.1667,-3376.621L13579.1586,-3376.6214L13579.137,-3376.6304L13579.0966,-3376.6589L13579.0898,-3376.6667L13579.0408,-3376.7227L13579.0072,-3376.7582L13578.9866,-3376.7657L13578.9605,-3376.7642L13578.8984,-3376.7477L13578.8517,-3376.7432L13578.7528,-3376.801L13578.7348,-3376.807L13578.7064,-3376.8002L13578.683,-3376.7882L13578.6312,-3376.761L13578.5958,-3376.7424L13578.55,-3376.7296L13578.5059,-3376.7244L13578.4799,-3376.7116L13578.452,-3376.6884L13578.4331,-3376.6831L13578.407,-3376.6861L13578.3333,-3376.7122L13578.3266,-3376.7146L13578.2776,-3376.7319L13578.2555,-3376.7349L13578.1917,-3376.7064L13578.18,-3376.7109L13578.171,-3376.7529L13578.1216,-3376.8279L13578.1027,-3376.8512L13578.0667,-3376.8759L13578.0523,-3376.9041L13578.0352,-3376.9679L13578.0244,-3376.9904L13578.0064,-3377.0092L13577.9336,-3377.0632L13577.85,-3377.1187L13577.7966,-3377.1415L13577.7435,-3377.1438L13577.704,-3377.1498L13577.6856,-3377.1523L13577.632,-3377.1595L13577.5391,-3377.1861L13577.5031,-3377.1964L13577.5,-3377.1969L13577.325,-3377.2204L13577.2316,-3377.2069L13577.1971,-3377.191L13577.1881,-3377.176L13577.1899,-3377.1557L13577.2097,-3377.1055L13577.2097,-3377.0694L13577.2016,-3377.0327L13577.1665,-3376.9741L13577.1646,-3376.9696L13577.1486,-3376.9324L13577.1423,-3376.8971L13577.1261,-3376.8716L13577.0722,-3376.8318L13577.0254,-3376.7792L13577.0001,-3376.7369L13576.9704,-3376.7061L13576.9012,-3376.6746L13576.8994,-3376.6726L13576.8941,-3376.6667L13576.8859,-3376.6574L13576.8526,-3376.5681L13576.8308,-3376.522L13576.8047,-3376.4935L13576.7373,-3376.4807L13576.687,-3376.4815L13576.6667,-3376.4878L13576.6483,-3376.4935L13576.5629,-3376.4875L13576.5077,-3376.4942L13576.4735,-3376.4889L13576.4492,-3376.4799L13576.3935,-3376.4191L13576.3557,-3376.3921L13576.3018,-3376.3786L13576.2646,-3376.3685L13576.2422,-3376.3588L13576.1801,-3376.2942L13576.1199,-3376.2275L13576.0931,-3376.2091L13576.0848,-3376.2034L13576.0606,-3376.2004L13576.0255,-3376.2049L13575.9176,-3376.2267L13575.8646,-3376.2312L13575.8333,-3376.226L13575.7666,-3376.2147L13575.7499,-3376.1984L13575.7257,-3376.1557L13575.7131,-3376.1227L13575.6861,-3376.0949L13575.6259,-3376.0649L13575.6133,-3376.0356L13575.5513,-3375.9636L13575.5459,-3375.9478L13575.5539,-3375.9271L13575.5782,-3375.8768L13575.571,-3375.8551L13575.5329,-3375.8333L13575.5027,-3375.8161L13575.4649,-3375.7666L13575.4231,-3375.7429L13575.3986,-3375.718L13575.3907,-3375.7099L13575.3763,-3375.6679L13575.3674,-3375.6236L13575.3658,-3375.607L13575.374,-3375.5852L13575.3969,-3375.5505L13575.3985,-3375.5276L13575.3903,-3375.4833L13575.3919,-3375.4499L13575.4124,-3375.411L13575.4943,-3375.3364L13575.4953,-3375.3253L13575.5156,-3375.3037L13575.5171,-3375.2934L13575.5146,-3375.2825L13575.5125,-3375.2773L13575.5026,-3375.2531L13575.4909,-3375.2115L13575.4784,-3375.1674L13575.4809,-3375.151L13575.4966,-3375.1214L13575.5287,-3375.0706L13575.5353,-3375.0547L13575.5408,-3375.0116L13575.5425,-3375Z"/>
<path content="和歌山県,,,新宮市,,30207" xlink:title="和歌山県" d="M13581.0249,-3390.5845L13581.0533,-3390.5839L13581.1306,-3390.5937L13581.189,-3390.5921L13581.201,-3390.5904L13581.2586,-3390.5823L13581.2925,-3390.5806L13581.3824,-3390.5926L13581.4552,-3390.6091L13581.4562,-3390.609L13581.4886,-3390.6069L13581.5391,-3390.5822L13581.6067,-3390.5675L13581.6319,-3390.5614L13581.6667,-3390.5382L13581.6713,-3390.5351L13581.6982,-3390.5138L13581.7336,-3390.472L13581.7756,-3390.4244L13581.8117,-3390.3932L13581.8445,-3390.3676L13581.8906,-3390.3273L13581.9201,-3390.3147L13581.9575,-3390.3125L13582.0486,-3390.3147L13582.0834,-3390.3065L13582.0926,-3390.3019L13582.192,-3390.2523L13582.3376,-3390.1681L13582.36,-3390.1548L13582.3994,-3390.1313L13582.5,-3390.0816L13582.5588,-3390.0525L13582.6522,-3390.0069L13582.6729,-3390L13582.7296,-3389.9811L13582.8176,-3389.9466L13582.8565,-3389.9142L13582.9168,-3389.859L13582.9962,-3389.8021L13583.0588,-3389.7629L13583.1204,-3389.7377L13583.1722,-3389.723L13583.2689,-3389.7087L13583.2957,-3389.699L13583.3333,-3389.6854L13583.3581,-3389.6764L13583.4132,-3389.642L13583.5551,-3389.569L13583.6056,-3389.5515L13583.6548,-3389.5428L13583.6857,-3389.54L13583.7427,-3389.5554L13583.7779,-3389.5691L13583.8257,-3389.6024L13583.8605,-3389.633L13583.9183,-3389.6691L13583.9629,-3389.6839L13583.9866,-3389.6879L13584.073,-3389.7025L13584.1667,-3389.7051L13584.2171,-3389.7065L13584.2695,-3389.7005L13584.2907,-3389.6944L13584.3732,-3389.6709L13584.4217,-3389.6677L13584.4955,-3389.6682L13584.5788,-3389.6693L13584.6326,-3389.6737L13584.6515,-3389.6701L13584.7047,-3389.66L13584.7507,-3389.6387L13584.7841,-3389.6152L13584.8585,-3389.5357L13584.9175,-3389.4881L13584.9726,-3389.4559L13585,-3389.4465L13585.0036,-3389.4453L13585.0502,-3389.4371L13585.1131,-3389.4387L13585.1328,-3389.4316L13585.1564,-3389.4092L13585.185,-3389.3608L13585.1979,-3389.3389L13585.2017,-3389.3244L13585.2097,-3389.2935L13585.2163,-3389.2607L13585.2117,-3389.2381L13585.2101,-3389.2326L13585.1911,-3389.1667L13585.1901,-3389.1632L13585.1848,-3389.1167L13585.194,-3389.0746L13585.2124,-3389.032L13585.2399,-3388.991L13585.2931,-3388.9527L13585.3518,-3388.9182L13585.4351,-3388.8881L13585.4732,-3388.8607L13585.5151,-3388.8013L13585.5289,-3388.7817L13585.5276,-3388.7592L13585.5158,-3388.7199L13585.4922,-3388.6854L13585.4737,-3388.6655L13585.4403,-3388.6398L13585.4324,-3388.6223L13585.4324,-3388.5735L13585.4324,-3388.5632L13585.4278,-3388.5044L13585.414,-3388.4705L13585.3877,-3388.4519L13585.3517,-3388.4262L13585.3445,-3388.4081L13585.3425,-3388.383L13585.3462,-3388.3333L13585.3484,-3388.3044L13585.3405,-3388.2798L13585.3248,-3388.2618L13585.2933,-3388.247L13585.2487,-3388.2393L13585.231,-3388.2268L13585.2146,-3388.2022L13585.2211,-3388.1466L13585.2274,-3388.1136L13585.244,-3388.0268L13585.2683,-3387.9018L13585.2874,-3387.8255L13585.2973,-3387.783L13585.3019,-3387.763L13585.309,-3387.7325L13585.3425,-3387.6742L13585.3681,-3387.654L13585.4055,-3387.6294L13585.4651,-3387.6102L13585.5124,-3387.5873L13585.5478,-3387.5605L13585.6064,-3387.5034L13585.6095,-3387.5L13585.6799,-3387.4235L13585.6988,-3387.4011L13585.7015,-3387.3978L13585.7278,-3387.3658L13585.7551,-3387.3327L13585.7591,-3387.3308L13585.7921,-3387.3153L13585.78,-3387.2604L13585.7824,-3387.1973L13585.8194,-3387.0604L13585.8333,-3387.0195L13585.8678,-3386.9177L13585.8893,-3386.8481L13585.8753,-3386.7902L13585.8333,-3386.7101L13585.8106,-3386.6667L13585.7693,-3386.5877L13585.6942,-3386.4958L13585.6628,-3386.4745L13585.5309,-3386.3853L13585.4424,-3386.3401L13585.3838,-3386.3114L13585.3421,-3386.269L13585.3251,-3386.2299L13585.3427,-3386.1294L13585.3377,-3386.0311L13585.3184,-3385.9446L13585.3201,-3385.8841L13585.3321,-3385.8333L13585.3438,-3385.7839L13585.3814,-3385.7151L13585.4739,-3385.5461L13585.5595,-3385.4578L13585.6768,-3385.3865L13585.8124,-3385.3196L13585.8333,-3385.2999L13585.8735,-3385.2621L13585.9583,-3385.1554L13586.0306,-3385.0142L13586.0313,-3385.0129L13586.0355,-3385L13586.051,-3384.9528L13586.0587,-3384.8958L13586.0549,-3384.8339L13586.0296,-3384.7497L13585.9427,-3384.5766L13585.8931,-3384.4903L13585.8333,-3384.432L13585.7889,-3384.3887L13585.7428,-3384.338L13585.7033,-3384.2574L13585.6873,-3384.1912L13585.6813,-3384.1667L13585.6436,-3384.011L13585.5731,-3383.6689L13585.5685,-3383.5767L13585.5735,-3383.5557L13585.5986,-3383.449L13585.6151,-3383.4044L13585.6448,-3383.3564L13585.676,-3383.3333L13585.6942,-3383.3199L13585.7341,-3383.2903L13585.7916,-3383.2264L13585.8124,-3383.1874L13585.8333,-3383.1481L13585.8547,-3383.1081L13585.893,-3383.0188L13585.8922,-3382.9519L13585.8643,-3382.8L13585.8371,-3382.713L13585.8333,-3382.7047L13585.7937,-3382.6181L13585.7542,-3382.5318L13585.7413,-3382.5L13585.7232,-3382.4554L13585.7078,-3382.4174L13585.7013,-3382.3974L13585.6759,-3382.3195L13585.6056,-3382.1227L13585.5856,-3382.0336L13585.588,-3381.975L13585.6008,-3381.9311L13585.6431,-3381.8427L13585.6886,-3381.7661L13585.7664,-3381.6667L13585.8026,-3381.6204L13585.8093,-3381.614L13585.8333,-3381.591L13585.8534,-3381.5718L13586.0006,-3381.4392L13586.0559,-3381.3894L13586.1544,-3381.309L13586.2142,-3381.2397L13586.2678,-3381.1747L13586.3036,-3381.1312L13586.3458,-3381.0941L13586.4396,-3381.0468L13586.6119,-3381.0008L13586.6667,-3380.9886L13586.8303,-3380.9521L13586.9265,-3380.9379L13586.9843,-3380.9294L13587.0385,-3380.9215L13587.1378,-3380.9096L13587.1531,-3380.9077L13587.2169,-3380.9001L13587.2454,-3380.8838L13587.281,-3380.8634L13587.3338,-3380.8333L13587.3815,-3380.8061L13587.5,-3380.7259L13587.7201,-3380.577L13587.8336,-3380.4844L13587.8906,-3380.4326L13587.8906,-3375L13575.5425,-3375L13575.5408,-3375.0116L13575.5353,-3375.0547L13575.5287,-3375.0706L13575.4966,-3375.1214L13575.4809,-3375.151L13575.4784,-3375.1674L13575.4909,-3375.2115L13575.5026,-3375.2531L13575.5125,-3375.2773L13575.5146,-3375.2825L13575.5171,-3375.2934L13575.5156,-3375.3037L13575.4953,-3375.3253L13575.4943,-3375.3364L13575.4124,-3375.411L13575.3919,-3375.4499L13575.3903,-3375.4833L13575.3985,-3375.5276L13575.3969,-3375.5505L13575.374,-3375.5852L13575.3658,-3375.607L13575.3674,-3375.6236L13575.3763,-3375.6679L13575.3907,-3375.7099L13575.3986,-3375.718L13575.4231,-3375.7429L13575.4649,-3375.7666L13575.5027,-3375.8161L13575.5329,-3375.8333L13575.571,-3375.8551L13575.5782,-3375.8768L13575.5539,-3375.9271L13575.5459,-3375.9478L13575.5513,-3375.9636L13575.6133,-3376.0356L13575.6259,-3376.0649L13575.6861,-3376.0949L13575.7131,-3376.1227L13575.7257,-3376.1557L13575.7499,-3376.1984L13575.7666,-3376.2147L13575.8333,-3376.226L13575.8646,-3376.2312L13575.9176,-3376.2267L13576.0255,-3376.2049L13576.0606,-3376.2004L13576.0848,-3376.2034L13576.0931,-3376.2091L13576.1199,-3376.2275L13576.1801,-3376.2942L13576.2422,-3376.3588L13576.2646,-3376.3685L13576.3018,-3376.3786L13576.3557,-3376.3921L13576.3935,-3376.4191L13576.4492,-3376.4799L13576.4735,-3376.4889L13576.5077,-3376.4942L13576.5629,-3376.4875L13576.6483,-3376.4935L13576.6667,-3376.4878L13576.687,-3376.4815L13576.7373,-3376.4807L13576.8047,-3376.4935L13576.8308,-3376.522L13576.8526,-3376.5681L13576.8859,-3376.6574L13576.8941,-3376.6667L13576.8994,-3376.6726L13576.9012,-3376.6746L13576.9704,-3376.7061L13577.0001,-3376.7369L13577.0254,-3376.7792L13577.0722,-3376.8318L13577.1261,-3376.8716L13577.1423,-3376.8971L13577.1486,-3376.9324L13577.1646,-3376.9696L13577.1665,-3376.9741L13577.2016,-3377.0327L13577.2097,-3377.0694L13577.2097,-3377.1055L13577.1899,-3377.1557L13577.1881,-3377.176L13577.1971,-3377.191L13577.2316,-3377.2069L13577.325,-3377.2204L13577.5,-3377.1969L13577.5031,-3377.1964L13577.5391,-3377.1861L13577.632,-3377.1595L13577.6856,-3377.1523L13577.704,-3377.1498L13577.7435,-3377.1438L13577.7966,-3377.1415L13577.85,-3377.1187L13577.9336,-3377.0632L13578.0064,-3377.0092L13578.0244,-3376.9904L13578.0352,-3376.9679L13578.0523,-3376.9041L13578.0667,-3376.8759L13578.1027,-3376.8512L13578.1216,-3376.8279L13578.171,-3376.7529L13578.18,-3376.7109L13578.1917,-3376.7064L13578.2555,-3376.7349L13578.2776,-3376.7319L13578.3266,-3376.7146L13578.3333,-3376.7122L13578.407,-3376.6861L13578.4331,-3376.6831L13578.452,-3376.6884L13578.4799,-3376.7116L13578.5059,-3376.7244L13578.55,-3376.7296L13578.5958,-3376.7424L13578.6312,-3376.761L13578.683,-3376.7882L13578.7064,-3376.8002L13578.7348,-3376.807L13578.7528,-3376.801L13578.8517,-3376.7432L13578.8984,-3376.7477L13578.9605,-3376.7642L13578.9866,-3376.7657L13579.0072,-3376.7582L13579.0408,-3376.7227L13579.0898,-3376.6667L13579.0966,-3376.6589L13579.137,-3376.6304L13579.1586,-3376.6214L13579.1667,-3376.621L13579.1891,-3376.6199L13579.2458,-3376.6559L13579.2505,-3376.6667L13579.2511,-3376.6682L13579.2566,-3376.6807L13579.2799,-3376.713L13579.2804,-3376.7181L13579.2827,-3376.7419L13579.3151,-3376.7996L13579.3276,-3376.8507L13579.3456,-3376.8905L13579.3699,-3376.9212L13579.422,-3376.9347L13579.4589,-3376.946L13579.4939,-3376.9768L13579.5107,-3376.9859L13579.5961,-3377.0039L13579.6204,-3377.0054L13579.6969,-3376.9694L13579.723,-3376.9701L13579.7247,-3376.9701L13579.7831,-3376.9799L13579.8434,-3376.9731L13579.8529,-3376.997L13579.8695,-3377.0388L13579.9145,-3377.0463L13579.9324,-3377.0523L13579.9657,-3377.1004L13579.9694,-3377.1313L13579.9756,-3377.1836L13579.9846,-3377.2786L13579.9909,-3377.3649L13579.9889,-3377.3928L13579.9814,-3377.417L13579.9569,-3377.4369L13579.9331,-3377.4518L13579.9189,-3377.4754L13579.9159,-3377.5L13579.9145,-3377.5108L13579.9123,-3377.5557L13579.9161,-3377.5761L13579.9205,-3377.5998L13579.919,-3377.6222L13579.8981,-3377.6501L13579.8914,-3377.6687L13579.9249,-3377.6787L13579.9718,-3377.7041L13580,-3377.7213L13580.0157,-3377.7308L13580.0269,-3377.7461L13580.0448,-3377.792L13580.0537,-3377.8069L13580.1028,-3377.8367L13580.1102,-3377.8529L13580.1229,-3377.9025L13580.1345,-3377.9156L13580.1355,-3377.9168L13580.164,-3377.9326L13580.1997,-3377.9438L13580.2778,-3377.9456L13580.3718,-3377.955L13580.4499,-3377.9426L13580.473,-3377.9395L13580.5489,-3377.9656L13580.5883,-3377.9891L13580.6056,-3378.0172L13580.6062,-3378.0297L13580.6064,-3378.0346L13580.625,-3378.0532L13580.6845,-3378.0669L13580.7194,-3378.0687L13580.7782,-3378.0576L13580.8246,-3378.0389L13580.8333,-3378.0306L13580.8626,-3378.0029L13580.8901,-3377.9855L13580.9131,-3377.9874L13580.9303,-3377.9923L13580.9526,-3378.0122L13580.9682,-3378.0407L13580.9809,-3378.0639L13581.0039,-3378.0801L13581.0404,-3378.0944L13581.0559,-3378.1049L13581.0597,-3378.1074L13581.088,-3378.1527L13581.111,-3378.1838L13581.114,-3378.1993L13581.1133,-3378.2192L13581.1029,-3378.2347L13581.1058,-3378.2471L13581.1214,-3378.2638L13581.1618,-3378.2984L13581.1996,-3378.3291L13581.2048,-3378.3333L13581.2176,-3378.3437L13581.2295,-3378.3661L13581.2414,-3378.4426L13581.2489,-3378.4818L13581.2617,-3378.4987L13581.322,-3378.5316L13581.4068,-3378.5582L13581.441,-3378.5638L13581.4782,-3378.5613L13581.5154,-3378.5521L13581.5541,-3378.5328L13581.5827,-3378.5222L13581.6258,-3378.5147L13581.6667,-3378.5171L13581.6697,-3378.5172L13581.7173,-3378.5166L13581.7582,-3378.5017L13581.7797,-3378.4974L13581.7827,-3378.4967L13581.8103,-3378.5017L13581.8236,-3378.5197L13581.8251,-3378.5359L13581.8211,-3378.5532L13581.7902,-3378.5977L13581.7696,-3378.632L13581.7645,-3378.6521L13581.7679,-3378.6879L13581.7791,-3378.7227L13581.8015,-3378.7599L13581.8186,-3378.7764L13581.8193,-3378.7768L13581.8452,-3378.7915L13581.8899,-3378.7965L13581.9122,-3378.807L13581.9234,-3378.8123L13581.9465,-3378.8352L13581.956,-3378.8674L13581.9534,-3378.8896L13581.9422,-3378.9274L13581.933,-3378.9849L13581.9372,-3378.9986L13581.9593,-3379.0181L13582.0189,-3379.046L13582.0651,-3379.0709L13582.078,-3379.0842L13582.0894,-3379.1239L13582.0931,-3379.1667L13582.0943,-3379.1809L13582.1021,-3379.1998L13582.1229,-3379.2163L13582.1313,-3379.2229L13582.1415,-3379.2377L13582.1492,-3379.2487L13582.1669,-3379.2582L13582.1904,-3379.2784L13582.1975,-3379.2974L13582.2024,-3379.3501L13582.2209,-3379.4257L13582.2259,-3379.4868L13582.2408,-3379.5897L13582.2451,-3379.6306L13582.2359,-3379.6579L13582.24,-3379.6686L13582.2403,-3379.6692L13582.2458,-3379.6834L13582.2623,-3379.7211L13582.2793,-3379.7874L13582.3319,-3379.9072L13582.3419,-3379.9449L13582.3483,-3380L13582.3554,-3380.0611L13582.3736,-3380.0681L13582.3831,-3380.0717L13582.4619,-3380.0919L13582.5,-3380.1138L13582.5027,-3380.1153L13582.5602,-3380.1532L13582.6014,-3380.1681L13582.6263,-3380.1681L13582.6498,-3380.1593L13582.6852,-3380.1461L13582.7058,-3380.1437L13582.7243,-3380.1515L13582.7513,-3380.1805L13582.7649,-3380.2074L13582.7912,-3380.2406L13582.8196,-3380.2637L13582.8721,-3380.2862L13582.8991,-3380.3034L13582.9375,-3380.3586L13582.9483,-3380.3826L13582.9639,-3380.4775L13582.9704,-3380.51L13582.9739,-3380.527L13582.9682,-3380.6065L13582.9597,-3380.6545L13582.9607,-3380.6592L13582.9689,-3380.6977L13582.9739,-3380.7437L13582.9689,-3380.7859L13582.9618,-3380.8173L13582.9674,-3380.8333L13582.9724,-3380.8475L13582.9845,-3380.8576L13583.0079,-3380.8656L13583.0278,-3380.8757L13583.0421,-3380.9344L13583.047,-3380.9978L13583.0471,-3381.0064L13583.0477,-3381.0533L13583.0399,-3381.1096L13583.0236,-3381.1594L13583.0136,-3381.1706L13582.9895,-3381.1766L13582.9479,-3381.1943L13582.9096,-3381.2299L13582.8727,-3381.2777L13582.8358,-3381.3198L13582.8074,-3381.3358L13582.7662,-3381.3447L13582.72,-3381.3589L13582.6851,-3381.3853L13582.6824,-3381.3874L13582.6403,-3381.424L13582.6161,-3381.4518L13582.6126,-3381.4909L13582.6069,-3381.5241L13582.5916,-3381.5496L13582.5884,-3381.555L13582.5173,-3381.6009L13582.5,-3381.6186L13582.4796,-3381.6394L13582.472,-3381.6667L13582.4654,-3381.6898L13582.4226,-3381.7499L13582.3991,-3381.7772L13582.3643,-3381.7909L13582.2883,-3381.7992L13582.2414,-3381.8324L13582.2301,-3381.8484L13582.2149,-3381.9056L13582.2007,-3381.9287L13582.1695,-3381.9494L13582.1013,-3381.972L13581.9937,-3381.9919L13581.9824,-3381.994L13581.9369,-3382.0355L13581.8979,-3382.0509L13581.8808,-3382.064L13581.8389,-3382.1102L13581.8197,-3382.1289L13581.7359,-3382.1852L13581.6667,-3382.2197L13581.6475,-3382.2292L13581.5943,-3382.2393L13581.5637,-3382.2524L13581.5318,-3382.2808L13581.4707,-3382.3407L13581.4421,-3382.364L13581.3618,-3382.4097L13581.3391,-3382.4346L13581.3369,-3382.4541L13581.3499,-3382.5L13581.3526,-3382.5096L13581.2858,-3382.5587L13581.2449,-3382.5896L13581.2276,-3382.6026L13581.2269,-3382.6955L13581.2297,-3382.7394L13581.2567,-3382.8016L13581.2439,-3382.8554L13581.2141,-3382.9075L13581.2084,-3382.9283L13581.2048,-3383.0441L13581.2006,-3383.0714L13581.1926,-3383.083L13581.1864,-3383.0922L13581.1871,-3383.1813L13581.1984,-3383.2341L13581.142,-3383.2245L13581.0838,-3383.2067L13581.0552,-3383.1817L13581.0057,-3383.1292L13580.9949,-3383.1177L13580.975,-3383.1159L13580.9658,-3383.1175L13580.9402,-3383.1219L13580.899,-3383.1444L13580.8584,-3383.1756L13580.8333,-3383.1958L13580.7964,-3383.2257L13580.7526,-3383.2561L13580.6752,-3383.3214L13580.6563,-3383.3333L13580.6386,-3383.3445L13580.6293,-3383.3457L13580.6178,-3383.3409L13580.6108,-3383.338L13580.6043,-3383.3333L13580.595,-3383.3267L13580.5775,-3383.3143L13580.5541,-3383.3054L13580.5263,-3383.3006L13580.5072,-3383.3054L13580.4837,-3383.3214L13580.4739,-3383.3333L13580.4566,-3383.3543L13580.4274,-3383.3875L13580.4054,-3383.397L13580.3777,-3383.3994L13580.3586,-3383.3928L13580.3337,-3383.3899L13580.3159,-3383.3987L13580.2758,-3383.4351L13580.2034,-3383.4891L13580.165,-3383.5246L13580.1487,-3383.5519L13580.1231,-3383.5815L13580.0452,-3383.6689L13580.0269,-3383.6873L13580,-3383.7153L13579.9752,-3383.7411L13579.9391,-3383.7762L13579.9218,-3383.8008L13579.8956,-3383.8409L13579.8524,-3383.9128L13579.8223,-3383.9439L13579.7796,-3383.9814L13579.7464,-3384.0177L13579.7302,-3384.046L13579.7068,-3384.0867L13579.6731,-3384.1219L13579.6567,-3384.1309L13579.6,-3384.1579L13579.5837,-3384.1667L13579.5667,-3384.1758L13579.5367,-3384.2016L13579.5184,-3384.2303L13579.472,-3384.319L13579.4522,-3384.3401L13579.4236,-3384.3885L13579.4194,-3384.4107L13579.3973,-3384.4749L13579.3728,-3384.5174L13579.3517,-3384.5369L13579.2716,-3384.5689L13579.1831,-3384.6033L13579.1667,-3384.6088L13579.1507,-3384.6142L13579.1455,-3384.6254L13579.1436,-3384.648L13579.1539,-3384.6937L13579.1568,-3384.7351L13579.1581,-3384.7547L13579.1667,-3384.781L13579.1671,-3384.7823L13579.2097,-3384.8905L13579.2252,-3384.9335L13579.2346,-3384.9712L13579.2466,-3385L13579.2561,-3385.0227L13579.2566,-3385.0321L13579.2421,-3385.0626L13579.2388,-3385.0727L13579.2491,-3385.1047L13579.2449,-3385.1332L13579.2454,-3385.1644L13579.2425,-3385.1952L13579.2317,-3385.223L13579.1844,-3385.2819L13579.1667,-3385.3044L13579.1558,-3385.3182L13579.1404,-3385.3432L13579.1301,-3385.3847L13579.1343,-3385.4144L13579.1483,-3385.4649L13579.1667,-3385.5077L13579.1709,-3385.5175L13579.184,-3385.5479L13579.1835,-3385.571L13579.1762,-3385.5901L13579.1694,-3385.6077L13579.1699,-3385.6221L13579.184,-3385.6623L13579.214,-3385.7291L13579.2299,-3385.7529L13579.245,-3385.7652L13579.2576,-3385.784L13579.2576,-3385.8133L13579.252,-3385.8333L13579.2487,-3385.8449L13579.2487,-3385.8567L13579.2509,-3385.87L13579.2514,-3385.873L13579.2551,-3385.8956L13579.264,-3385.9217L13579.2682,-3385.9543L13579.2779,-3385.9688L13579.2907,-3385.9956L13579.2946,-3386.0321L13579.3116,-3386.066L13579.3338,-3386.0962L13579.3512,-3386.1289L13579.364,-3386.1662L13579.3761,-3386.2263L13579.3928,-3386.2733L13579.4017,-3386.2856L13579.4187,-3386.3024L13579.4533,-3386.3431L13579.4742,-3386.4086L13579.4846,-3386.427L13579.4886,-3386.4321L13579.5129,-3386.4638L13579.5184,-3386.4827L13579.5153,-3386.5015L13579.4951,-3386.5325L13579.4595,-3386.5751L13579.4486,-3386.6019L13579.4439,-3386.6201L13579.4408,-3386.6322L13579.4404,-3386.6555L13579.4423,-3386.6667L13579.4459,-3386.6881L13579.4556,-3386.71L13579.4909,-3386.7506L13579.5196,-3386.7809L13579.5273,-3386.7994L13579.5336,-3386.8287L13579.5312,-3386.8684L13579.5215,-3386.9581L13579.5177,-3387.0068L13579.5184,-3387.0552L13579.5231,-3387.1039L13579.5274,-3387.1251L13579.5406,-3387.1564L13579.5557,-3387.2088L13579.565,-3387.2412L13579.582,-3387.2616L13579.5995,-3387.2772L13579.6008,-3387.2784L13579.6217,-3387.2862L13579.6496,-3387.2907L13579.6911,-3387.2949L13579.7213,-3387.302L13579.7383,-3387.3111L13579.7635,-3387.3159L13579.7796,-3387.3139L13579.7859,-3387.3101L13579.8078,-3387.2971L13579.8388,-3387.2651L13579.8761,-3387.2311L13579.9161,-3387.2078L13579.9422,-3387.1857L13579.9435,-3387.1845L13580,-3387.1227L13580.0057,-3387.1165L13580.0716,-3387.0648L13580.1209,-3386.997L13580.1523,-3386.9641L13580.1755,-3386.9337L13580.1933,-3386.895L13580.1988,-3386.8566L13580.2174,-3386.7877L13580.2609,-3386.7097L13580.2672,-3386.7023L13580.2979,-3386.6667L13580.3163,-3386.6454L13580.3337,-3386.6328L13580.3628,-3386.5931L13580.3736,-3386.5718L13580.3717,-3386.5489L13580.3527,-3386.5156L13580.2992,-3386.4579L13580.2872,-3386.4386L13580.2826,-3386.4243L13580.2872,-3386.4153L13580.3011,-3386.4143L13580.3267,-3386.4179L13580.4108,-3386.4453L13580.4384,-3386.4484L13580.4756,-3386.4364L13580.4931,-3386.4352L13580.5066,-3386.4355L13580.5179,-3386.4384L13580.5453,-3386.4558L13580.5558,-3386.4778L13580.5511,-3386.4897L13580.519,-3386.5082L13580.5182,-3386.513L13580.5194,-3386.5208L13580.5279,-3386.5285L13580.5531,-3386.5369L13580.5663,-3386.544L13580.5701,-3386.551L13580.5713,-3386.5682L13580.5643,-3386.5746L13580.5543,-3386.5798L13580.5368,-3386.5898L13580.526,-3386.6092L13580.5151,-3386.64L13580.5155,-3386.6477L13580.5382,-3386.6667L13580.5454,-3386.6726L13580.5508,-3386.6924L13580.5667,-3386.7205L13580.5658,-3386.7279L13580.5647,-3386.7379L13580.5663,-3386.7476L13580.5721,-3386.7673L13580.5879,-3386.7876L13580.5918,-3386.7969L13580.5907,-3386.803L13580.5802,-3386.8127L13580.5547,-3386.8243L13580.533,-3386.8379L13580.5279,-3386.8469L13580.5303,-3386.8588L13580.5461,-3386.8798L13580.5419,-3386.8878L13580.5267,-3386.8937L13580.5213,-3386.9004L13580.519,-3386.9092L13580.5213,-3386.9286L13580.5264,-3386.9411L13580.5566,-3386.9652L13580.5721,-3386.9837L13580.5841,-3387.0095L13580.5803,-3387.0192L13580.569,-3387.0321L13580.5387,-3387.0429L13580.5318,-3387.0568L13580.5334,-3387.0602L13580.5356,-3387.0649L13580.5372,-3387.0681L13580.5581,-3387.0846L13580.562,-3387.0956L13580.5574,-3387.1111L13580.5364,-3387.1405L13580.5256,-3387.1642L13580.5186,-3387.1949L13580.5213,-3387.2143L13580.5356,-3387.234L13580.534,-3387.241L13580.5143,-3387.2565L13580.5019,-3387.2759L13580.4988,-3387.2914L13580.5065,-3387.3088L13580.5069,-3387.3117L13580.4941,-3387.3137L13580.4872,-3387.3153L13580.4821,-3387.3259L13580.4844,-3387.3395L13580.4996,-3387.3612L13580.5011,-3387.3756L13580.4957,-3387.3911L13580.4806,-3387.4018L13580.4678,-3387.4128L13580.436,-3387.4463L13580.4314,-3387.4592L13580.4335,-3387.4817L13580.4337,-3387.4837L13580.4371,-3387.5L13580.4399,-3387.5131L13580.4387,-3387.5224L13580.4271,-3387.5489L13580.4263,-3387.5722L13580.4072,-3387.5944L13580.3994,-3387.605L13580.3975,-3387.627L13580.3828,-3387.6441L13580.353,-3387.6612L13580.3453,-3387.6702L13580.3417,-3387.6835L13580.3458,-3387.6986L13580.3483,-3387.7083L13580.3379,-3387.7325L13580.3177,-3387.7606L13580.3196,-3387.765L13580.322,-3387.7703L13580.3483,-3387.7916L13580.3803,-3387.8106L13580.4209,-3387.8383L13580.4391,-3387.8461L13580.4509,-3387.8464L13580.5741,-3387.8079L13580.6047,-3387.8005L13580.609,-3387.8028L13580.6141,-3387.8115L13580.6152,-3387.8451L13580.6083,-3387.8987L13580.6098,-3387.9284L13580.6103,-3387.9414L13580.6117,-3387.9807L13580.6203,-3388.0201L13580.635,-3388.0636L13580.6581,-3388.1042L13580.6644,-3388.1152L13580.673,-3388.14L13580.6842,-3388.1726L13580.6982,-3388.2439L13580.709,-3388.2823L13580.7114,-3388.3107L13580.7092,-3388.3333L13580.7063,-3388.363L13580.6986,-3388.4159L13580.6827,-3388.4804L13580.673,-3388.5042L13580.6707,-3388.5188L13580.6629,-3388.5314L13580.6434,-3388.5555L13580.6259,-3388.5645L13580.6136,-3388.569L13580.5853,-3388.5791L13580.5733,-3388.5884L13580.5636,-3388.6107L13580.5609,-3388.6152L13580.5364,-3388.6377L13580.4907,-3388.6635L13580.4608,-3388.6739L13580.4349,-3388.6864L13580.4236,-3388.6997L13580.4139,-3388.7306L13580.4015,-3388.7439L13580.3732,-3388.7558L13580.3523,-3388.7671L13580.336,-3388.7907L13580.3018,-3388.8591L13580.3014,-3388.8612L13580.2968,-3388.8823L13580.2987,-3388.9247L13580.2933,-3388.9448L13580.2937,-3388.9539L13580.3104,-3389.0026L13580.3103,-3389.0251L13580.3006,-3389.0519L13580.2867,-3389.0691L13580.27,-3389.0778L13580.2317,-3389.0839L13580.2247,-3389.0868L13580.2169,-3389.0945L13580.1958,-3389.1289L13580.1679,-3389.1418L13580.1412,-3389.1467L13580.1288,-3389.1515L13580.1172,-3389.1628L13580.1163,-3389.1667L13580.1133,-3389.179L13580.1168,-3389.2363L13580.1207,-3389.2819L13580.131,-3389.3007L13580.1499,-3389.3188L13580.1903,-3389.3344L13580.2271,-3389.3431L13580.2429,-3389.356L13580.2608,-3389.3837L13580.2821,-3389.4196L13580.286,-3389.4389L13580.2836,-3389.4596L13580.2658,-3389.4872L13580.2445,-3389.5185L13580.2232,-3389.5402L13580.1824,-3389.5823L13580.2264,-3389.6834L13580.2382,-3389.7189L13580.2639,-3389.7734L13580.2724,-3389.8964L13580.2858,-3390L13580.2876,-3390.0139L13580.3145,-3390.0888L13580.3335,-3390.1406L13580.3276,-3390.2008L13580.3299,-3390.2267L13580.3362,-3390.2981L13580.3521,-3390.3226L13580.3784,-3390.3384L13580.4243,-3390.3707L13580.4747,-3390.3887L13580.4972,-3390.3948L13580.5377,-3390.4057L13580.5699,-3390.4156L13580.6086,-3390.4369L13580.6486,-3390.4757L13580.7072,-3390.5406L13580.7452,-3390.5733L13580.8003,-3390.6012L13580.8285,-3390.628L13580.8333,-3390.6315L13580.8485,-3390.6424L13580.8603,-3390.6468L13580.8793,-3390.6435L13580.9692,-3390.6014L13581.0249,-3390.5845Z"/>
<path content="和歌山県,,,新宮市,,30207" xlink:title="和歌山県" d="M13587.5,-3391.817L13587.5862,-3391.8158L13587.6352,-3391.8158L13587.6661,-3391.8176L13587.681,-3391.8096L13587.6916,-3391.7803L13587.6921,-3391.7618L13587.6927,-3391.7404L13587.7012,-3391.7244L13587.7171,-3391.7111L13587.7299,-3391.7102L13587.7501,-3391.7271L13587.8204,-3391.7661L13587.8896,-3391.7892L13587.8906,-3391.7894L13587.8906,-3387.202L13587.8603,-3387.195L13587.8215,-3387.1692L13587.7896,-3387.1502L13587.7789,-3387.1337L13587.7699,-3387.0701L13587.7576,-3386.9482L13587.7574,-3386.9401L13587.7539,-3386.8247L13587.7624,-3386.7461L13587.7762,-3386.6667L13587.7799,-3386.6451L13587.7991,-3386.5579L13587.8151,-3386.4615L13587.8092,-3386.4331L13587.7874,-3386.3936L13587.7655,-3386.361L13587.7097,-3386.3077L13587.6484,-3386.2521L13587.6026,-3386.2156L13587.5393,-3386.1766L13587.5,-3386.1647L13587.4832,-3386.1596L13587.4764,-3386.1792L13587.4724,-3386.1904L13587.4517,-3386.2793L13587.432,-3386.3503L13587.4001,-3386.4312L13587.3798,-3386.4838L13587.3591,-3386.553L13587.3602,-3386.5743L13587.3687,-3386.5845L13587.3809,-3386.5877L13587.4021,-3386.5997L13587.4043,-3386.6103L13587.3889,-3386.6549L13587.3817,-3386.6667L13587.3554,-3386.7099L13587.3277,-3386.751L13587.3043,-3386.7696L13587.2883,-3386.79L13587.2803,-3386.8136L13587.2814,-3386.8402L13587.2969,-3386.8848L13587.3187,-3386.9207L13587.3203,-3386.9315L13587.3267,-3386.9733L13587.3288,-3387.0243L13587.3309,-3387.0447L13587.3454,-3387.0542L13587.3683,-3387.0569L13587.405,-3387.0569L13587.4156,-3387.0657L13587.4358,-3387.1247L13587.4561,-3387.1951L13587.4818,-3387.2884L13587.4882,-3387.2977L13587.4955,-3387.3004L13587.5,-3387.302L13587.5164,-3387.3079L13587.5728,-3387.3137L13587.6004,-3387.3261L13587.6217,-3387.3399L13587.6571,-3387.3689L13587.6656,-3387.3694L13587.6794,-3387.3627L13587.7034,-3387.3636L13587.722,-3387.3702L13587.7619,-3387.3858L13587.8162,-3387.4217L13587.8348,-3387.4417L13587.8391,-3387.4911L13587.8454,-3387.4986L13587.8484,-3387.5L13587.8749,-3387.5125L13587.8906,-3387.5175L13587.8906,-3388.3256L13587.8836,-3388.3287L13587.8814,-3388.3333L13587.8607,-3388.3766L13587.84,-3388.4068L13587.832,-3388.4108L13587.7796,-3388.4131L13587.7499,-3388.4162L13587.7201,-3388.4166L13587.6972,-3388.4139L13587.6716,-3388.4108L13587.5809,-3388.3971L13587.5086,-3388.3851L13587.5,-3388.3856L13587.4824,-3388.3866L13587.4654,-3388.3932L13587.4441,-3388.4238L13587.4276,-3388.4535L13587.4089,-3388.4909L13587.3898,-3388.5065L13587.3632,-3388.5251L13587.3265,-3388.5651L13587.2423,-3388.6543L13587.2263,-3388.6628L13587.2169,-3388.6678L13587.204,-3388.6968L13587.1793,-3388.7985L13587.1622,-3388.8651L13587.1441,-3388.8731L13587.0866,-3388.8715L13586.9896,-3388.8731L13586.9297,-3388.8968L13586.8955,-3388.9L13586.8337,-3388.8818L13586.8014,-3388.8786L13586.7539,-3388.8738L13586.6844,-3388.8715L13586.6667,-3388.8726L13586.5974,-3388.877L13586.4805,-3388.9111L13586.452,-3388.9087L13586.3683,-3388.862L13586.2663,-3388.8188L13586.1817,-3388.7514L13586.1465,-3388.715L13586.1342,-3388.7094L13586.1094,-3388.7142L13586.0828,-3388.7372L13586.0134,-3388.8172L13586.0029,-3388.8454L13585.9734,-3388.9128L13585.9719,-3388.9421L13585.9706,-3388.9667L13586.0267,-3389.117L13586.0267,-3389.1408L13586.0153,-3389.1646L13586.0135,-3389.1667L13585.9402,-3389.2541L13585.9259,-3389.2783L13585.922,-3389.2894L13585.9081,-3389.3301L13585.8859,-3389.3948L13585.8659,-3389.4807L13585.8488,-3389.625L13585.8384,-3389.6797L13585.8403,-3389.7098L13585.8717,-3389.7618L13585.8994,-3389.7931L13585.9041,-3389.7983L13585.963,-3389.8419L13586.0105,-3389.8855L13586.0114,-3389.8957L13586.0067,-3389.9142L13585.9849,-3389.9475L13585.9649,-3389.9879L13585.9653,-3390L13585.9668,-3390.0447L13585.9639,-3390.059L13585.9164,-3390.0756L13585.8898,-3390.0907L13585.8717,-3390.1192L13585.8812,-3390.1477L13585.9079,-3390.1794L13585.9439,-3390.2444L13585.9734,-3390.3055L13585.9983,-3390.3266L13586.0553,-3390.371L13586.1095,-3390.4344L13586.1476,-3390.4534L13586.2269,-3390.4656L13586.239,-3390.4729L13586.2773,-3390.4957L13586.2973,-3390.5219L13586.3035,-3390.5661L13586.3058,-3390.5821L13586.3401,-3390.7149L13586.3401,-3390.7387L13586.3278,-3390.7544L13586.3258,-3390.7569L13586.3201,-3390.776L13586.3315,-3390.7989L13586.3612,-3390.8333L13586.3705,-3390.8441L13586.4123,-3390.8771L13586.4479,-3390.9052L13586.458,-3390.9131L13586.4914,-3390.9596L13586.5047,-3391.0079L13586.5199,-3391.0341L13586.5343,-3391.0699L13586.5704,-3391.1143L13586.6503,-3391.1888L13586.6667,-3391.2069L13586.7011,-3391.2449L13586.771,-3391.322L13586.8434,-3391.3813L13586.8881,-3391.417L13586.889,-3391.4187L13586.8947,-3391.4297L13586.8938,-3391.4463L13586.8501,-3391.5105L13586.8311,-3391.5541L13586.8054,-3391.5819L13586.7386,-3391.6108L13586.7158,-3391.6275L13586.712,-3391.6512L13586.7115,-3391.6667L13586.7101,-3391.7107L13586.693,-3391.7535L13586.6667,-3391.7986L13586.6246,-3391.8708L13586.6016,-3391.9221L13586.5573,-3392.0013L13586.5498,-3392.0441L13586.5523,-3392.0889L13586.5758,-3392.1939L13586.5859,-3392.2072L13586.5943,-3392.2064L13586.6354,-3392.1575L13586.6667,-3392.1073L13586.6677,-3392.1056L13586.6979,-3392.0833L13586.7467,-3392.0546L13586.7836,-3392.0441L13586.8483,-3392.0273L13586.8693,-3392.0175L13586.8995,-3392.0013L13587.023,-3391.9754L13587.1371,-3391.9406L13587.2169,-3391.9208L13587.3053,-3391.8815L13587.4074,-3391.8318L13587.4266,-3391.8238L13587.4585,-3391.8176L13587.5,-3391.817Z"/>
</g>
</svg>
