<?xml version="1.0" encoding="UTF-8"?>
<svg  xmlns="http://www.w3.org/2000/svg" xmlns:xlink="http://www.w3.org/1999/xlink" xmlns:go="http://purl.org/svgmap/profile" property="geometry,N03_001,N03_002,N03_003,N03_004,N03_005,N03_007" viewBox="13605.46875 -3550.78125 17.578125 17.578125" go:dataArea="13605.46875 -3550.78125 17.578125 17.578125" >
<metadata>
 <rdf:RDF xmlns:rdf="http://www.w3.org/1999/02/22-rdf-syntax-ns#" xmlns:crs="http://opengis.org/xmldtds/transformations.dtd" xmlns:svg="http://www.w3.org/svg" >
  <rdf:Description>
   <crs:CoordinateReferenceSystem rdf:resource="http://purl.org/crs/84" svg:transform="matrix(100.0,0.0,0.0,-100.0,0.0,0.0)" />
  </rdf:Description>
 </rdf:RDF>
</metadata>
<globalCoordinateSystem srsName="http://purl.org/crs/84" transform="matrix(100.0,0.0,0.0,-100.0,0.0,0.0)" />
<defs>
 <g id="p0" >
  <circle cx="0.0" cy="0.0" r="3" stroke="green" stroke-width="2.0" vector-effect="non-scaling-stroke" />
 </g>
</defs>
<g fill="#0000ff" fill-rule="evenodd" opacity="0.5" >
<path content="滋賀県,,,彦根市,,25202" xlink:title="滋賀県" d="M13614.732,-3533.2031L13614.7206,-3533.3333L13614.6764,-3533.8396L13614.6479,-3534.1667L13614.5756,-3534.9943L13614.5782,-3535L13614.8546,-3535.6009L13615,-3535.5597L13615.8333,-3535.3235L13616.1925,-3535.2217L13616.6667,-3535.0873L13616.9747,-3535L13617.5,-3534.8511L13617.5303,-3534.8425L13618.3333,-3534.6149L13618.8682,-3534.4633L13619.1667,-3534.3787L13619.6709,-3534.2358L13619.914,-3534.1667L13620,-3534.1422L13620.2263,-3534.0778L13620.503,-3534L13620.8333,-3533.9064L13620.978,-3533.8654L13621.272,-3533.3333L13621.3278,-3533.2324L13621.3306,-3533.2031Z"/>
<path content="滋賀県,,,長浜市,,25203" xlink:title="滋賀県" d="M13623.0469,-3550.7812L13623.0469,-3534.8439L13622.8938,-3534.828L13622.5741,-3534.7948L13622.5,-3534.7516L13621.6667,-3534.2664L13621.4955,-3534.1667L13621.4208,-3534.1232L13620.978,-3533.8654L13620.8333,-3533.9064L13620.503,-3534L13620.2263,-3534.0778L13620,-3534.1422L13619.914,-3534.1667L13619.6709,-3534.2358L13619.1667,-3534.3787L13618.8682,-3534.4633L13618.3333,-3534.6149L13617.5303,-3534.8425L13617.5,-3534.8511L13616.9747,-3535L13616.6667,-3535.0873L13616.1925,-3535.2217L13615.8333,-3535.3235L13615,-3535.5597L13614.8546,-3535.6009L13614.5082,-3535.7558L13614.4055,-3535.8333L13614.1667,-3536.0135L13613.9966,-3536.1418L13613.3333,-3536.6422L13613.3009,-3536.6667L13612.9559,-3536.9269L13612.5,-3537.2709L13612.1963,-3537.5L13611.9153,-3537.712L13611.6667,-3537.8996L13611.0917,-3538.3333L13610.8747,-3538.4971L13610.8333,-3538.5283L13610.311,-3538.9224L13610,-3539.157L13609.9872,-3539.1667L13609.8341,-3539.2822L13609.7116,-3539.8645L13609.683,-3540L13609.5077,-3540.8333L13609.4715,-3541.0054L13610,-3541.5569L13610.1052,-3541.6667L13610.3447,-3541.9167L13610.8333,-3542.4266L13610.9037,-3542.5L13611.2179,-3542.828L13611.6373,-3543.2657L13611.6568,-3543.3333L13611.6667,-3543.3677L13611.794,-3543.8103L13611.7482,-3544.1667L13611.6667,-3544.8024L13611.6462,-3544.9616L13611.6413,-3545L13611.5829,-3545.4557L13610.8333,-3545.785L13610.7232,-3545.8333L13610.5678,-3545.9016L13610.5298,-3545.9099L13610.4965,-3545.9171L13610.4441,-3545.927L13610.393,-3545.943L13610.3186,-3545.9587L13610.2916,-3545.9664L13610.2598,-3545.9788L13610.2336,-3545.9902L13610.2181,-3546.0042L13610.2001,-3546.0323L13610.1862,-3546.0443L13610.1604,-3546.0583L13610.1391,-3546.0631L13610.1052,-3546.0664L13610.0823,-3546.0714L13610.0734,-3546.0719L13610.0235,-3546.0744L13610,-3546.0742L13609.967,-3546.0738L13609.9298,-3546.0775L13609.8816,-3546.0838L13609.8528,-3546.0908L13609.83,-3546.0915L13609.812,-3546.0881L13609.7833,-3546.0815L13609.7522,-3546.081L13609.7358,-3546.084L13609.7256,-3546.0884L13609.7125,-3546.0961L13609.7002,-3546.1098L13609.6875,-3546.1189L13609.6769,-3546.1221L13609.6687,-3546.1245L13609.6117,-3546.1366L13609.5953,-3546.1363L13609.5507,-3546.1333L13609.5449,-3546.133L13609.5122,-3546.1313L13609.4815,-3546.1343L13609.4495,-3546.1346L13609.4286,-3546.138L13609.4126,-3546.146L13609.4036,-3546.1567L13609.3831,-3546.1926L13609.3626,-3546.2157L13609.3507,-3546.2241L13609.3318,-3546.2347L13609.3297,-3546.2383L13609.3306,-3546.2809L13609.3269,-3546.2986L13609.315,-3546.3254L13609.3076,-3546.3382L13609.2781,-3546.363L13609.2638,-3546.3746L13609.2396,-3546.3941L13609.2064,-3546.4197L13609.1929,-3546.4364L13609.1724,-3546.4744L13609.1667,-3546.4858L13609.161,-3546.4971L13609.1581,-3546.5167L13609.1601,-3546.5267L13609.1651,-3546.5321L13609.1667,-3546.533L13609.1966,-3546.5489L13609.2212,-3546.5596L13609.2404,-3546.5743L13609.2523,-3546.5878L13609.2564,-3546.6243L13609.2597,-3546.6589L13609.2597,-3546.6667L13609.2597,-3546.7084L13609.2544,-3546.744L13609.2552,-3546.7598L13609.2601,-3546.7726L13609.2699,-3546.7836L13609.3073,-3546.8125L13609.3076,-3546.8128L13609.3367,-3546.8461L13609.3564,-3546.8625L13609.3728,-3546.8752L13609.3933,-3546.8862L13609.4265,-3546.9L13609.4633,-3546.9098L13609.508,-3546.9225L13609.5342,-3546.9322L13609.544,-3546.9409L13609.5481,-3546.9513L13609.5506,-3546.9715L13609.5456,-3547.0073L13609.5387,-3547.0291L13609.526,-3547.0567L13609.5108,-3547.1076L13609.4887,-3547.1958L13609.4846,-3547.2472L13609.474,-3547.2749L13609.4666,-3547.3069L13609.4687,-3547.3186L13609.4752,-3547.325L13609.4969,-3547.3357L13609.5252,-3547.3438L13609.5563,-3547.3562L13609.5825,-3547.3716L13609.6034,-3547.3961L13609.6259,-3547.4205L13609.639,-3547.4312L13609.6558,-3547.4403L13609.6981,-3547.4554L13609.7129,-3547.4658L13609.7206,-3547.4772L13609.7225,-3547.4879L13609.7231,-3547.4909L13609.7207,-3547.5L13609.7161,-3547.5179L13609.7063,-3547.549L13609.6907,-3547.5759L13609.6739,-3547.5923L13609.6498,-3547.6111L13609.6252,-3547.6262L13609.6154,-3547.6369L13609.6088,-3547.6483L13609.6072,-3547.6597L13609.6109,-3547.6891L13609.6219,-3547.7147L13609.6326,-3547.7543L13609.6338,-3547.7707L13609.6317,-3547.7888L13609.6227,-3547.8147L13609.6211,-3547.8278L13609.6248,-3547.8372L13609.6686,-3547.8763L13609.6993,-3547.8895L13609.7293,-3547.8988L13609.7383,-3547.9016L13609.7538,-3547.9089L13609.7751,-3547.9277L13609.8017,-3547.9551L13609.8284,-3547.9736L13609.8403,-3547.9793L13609.8599,-3547.9827L13609.9029,-3547.9847L13609.9226,-3547.9878L13609.9435,-3547.9958L13609.9566,-3548.0048L13609.9734,-3548.0273L13609.9898,-3548.0602L13610,-3548.0694L13610.0045,-3548.0736L13610.0103,-3548.0839L13610.0123,-3548.1273L13610.0097,-3548.1787L13610.0093,-3548.1868L13610.0028,-3548.2042L13610,-3548.2084L13609.988,-3548.2263L13609.9635,-3548.2584L13609.9455,-3548.3153L13609.9442,-3548.3333L13609.9438,-3548.3383L13609.9528,-3548.3958L13609.9651,-3548.4266L13609.9749,-3548.4624L13609.988,-3548.4905L13610,-3548.5129L13610.0052,-3548.5226L13610.0232,-3548.5367L13610.1049,-3548.5703L13610.1,-3548.6257L13610.0856,-3548.6983L13610.0807,-3548.727L13610.0811,-3548.7431L13610.0864,-3548.782L13610.1127,-3548.8372L13610.1197,-3548.8761L13610.1176,-3548.9202L13610.1201,-3548.9591L13610.1201,-3548.9915L13610.1213,-3549.0078L13610.1226,-3549.0257L13610.1197,-3549.0402L13610.1139,-3549.0499L13610.084,-3549.0832L13610.0791,-3549.0983L13610.0787,-3549.1168L13610.0832,-3549.1632L13610.083,-3549.1667L13610.0815,-3549.1944L13610.077,-3549.2217L13610.0676,-3549.2513L13610.0545,-3549.2845L13610.0463,-3549.297L13610.0352,-3549.3108L13610.0262,-3549.3272L13610.0179,-3549.3571L13610.0163,-3549.379L13610.02,-3549.4025L13610.029,-3549.4457L13610.0356,-3549.4785L13610.0372,-3549.4987L13610.036,-3549.5178L13610.0294,-3549.5458L13610.0204,-3549.5676L13610.0048,-3549.5894L13610,-3549.5952L13609.9806,-3549.6186L13609.9756,-3549.6297L13609.9746,-3549.6369L13609.9719,-3549.6553L13609.9744,-3549.6704L13609.9929,-3549.6989L13609.9998,-3549.7134L13610,-3549.7169L13610.0006,-3549.7303L13610,-3549.7327L13609.9986,-3549.738L13609.9904,-3549.7652L13609.9859,-3549.7967L13609.9883,-3549.8247L13609.9863,-3549.8411L13609.9769,-3549.8603L13609.9716,-3549.8676L13609.9609,-3549.8829L13609.919,-3549.9191L13609.8914,-3549.9457L13609.8693,-3549.9776L13609.859,-3549.9944L13609.8586,-3550L13609.8582,-3550.0039L13609.8607,-3550.0116L13609.873,-3550.023L13609.9009,-3550.0409L13609.9194,-3550.0677L13609.9235,-3550.0808L13609.9276,-3550.1165L13609.946,-3550.1692L13609.9616,-3550.2115L13609.9674,-3550.2391L13609.9678,-3550.2566L13609.9625,-3550.2778L13609.9475,-3550.3175L13609.923,-3550.3653L13609.911,-3550.4124L13609.91,-3550.4296L13609.9115,-3550.4459L13609.916,-3550.4672L13609.9265,-3550.4839L13609.9395,-3550.4942L13609.9711,-3550.5057L13609.9956,-3550.5175L13610,-3550.5204L13610.027,-3550.538L13610.0496,-3550.5491L13610.0566,-3550.5671L13610.0556,-3550.5806L13610.0481,-3550.6015L13610.0476,-3550.6145L13610.0491,-3550.6293L13610.0551,-3550.6497L13610.0611,-3550.666L13610.0631,-3550.6903L13610.0581,-3550.7108L13610.0571,-3550.7227L13610.0607,-3550.7448L13610.0712,-3550.7679L13610.0828,-3550.7812Z"/>
<path content="滋賀県,,,高島市,,25212" xlink:title="滋賀県" d="M13610.0828,-3550.7812L13610.0712,-3550.7679L13610.0607,-3550.7448L13610.0571,-3550.7227L13610.0581,-3550.7108L13610.0631,-3550.6903L13610.0611,-3550.666L13610.0551,-3550.6497L13610.0491,-3550.6293L13610.0476,-3550.6145L13610.0481,-3550.6015L13610.0556,-3550.5806L13610.0566,-3550.5671L13610.0496,-3550.5491L13610.027,-3550.538L13610,-3550.5204L13609.9956,-3550.5175L13609.9711,-3550.5057L13609.9395,-3550.4942L13609.9265,-3550.4839L13609.916,-3550.4672L13609.9115,-3550.4459L13609.91,-3550.4296L13609.911,-3550.4124L13609.923,-3550.3653L13609.9475,-3550.3175L13609.9625,-3550.2778L13609.9678,-3550.2566L13609.9674,-3550.2391L13609.9616,-3550.2115L13609.946,-3550.1692L13609.9276,-3550.1165L13609.9235,-3550.0808L13609.9194,-3550.0677L13609.9009,-3550.0409L13609.873,-3550.023L13609.8607,-3550.0116L13609.8582,-3550.0039L13609.8586,-3550L13609.859,-3549.9944L13609.8693,-3549.9776L13609.8914,-3549.9457L13609.919,-3549.9191L13609.9609,-3549.8829L13609.9716,-3549.8676L13609.9769,-3549.8603L13609.9863,-3549.8411L13609.9883,-3549.8247L13609.9859,-3549.7967L13609.9904,-3549.7652L13609.9986,-3549.738L13610,-3549.7327L13610.0006,-3549.7303L13610,-3549.7169L13609.9998,-3549.7134L13609.9929,-3549.6989L13609.9744,-3549.6704L13609.9719,-3549.6553L13609.9746,-3549.6369L13609.9756,-3549.6297L13609.9806,-3549.6186L13610,-3549.5952L13610.0048,-3549.5894L13610.0204,-3549.5676L13610.0294,-3549.5458L13610.036,-3549.5178L13610.0372,-3549.4987L13610.0356,-3549.4785L13610.029,-3549.4457L13610.02,-3549.4025L13610.0163,-3549.379L13610.0179,-3549.3571L13610.0262,-3549.3272L13610.0352,-3549.3108L13610.0463,-3549.297L13610.0545,-3549.2845L13610.0676,-3549.2513L13610.077,-3549.2217L13610.0815,-3549.1944L13610.083,-3549.1667L13610.0832,-3549.1632L13610.0787,-3549.1168L13610.0791,-3549.0983L13610.084,-3549.0832L13610.1139,-3549.0499L13610.1197,-3549.0402L13610.1226,-3549.0257L13610.1213,-3549.0078L13610.1201,-3548.9915L13610.1201,-3548.9591L13610.1176,-3548.9202L13610.1197,-3548.8761L13610.1127,-3548.8372L13610.0864,-3548.782L13610.0811,-3548.7431L13610.0807,-3548.727L13610.0856,-3548.6983L13610.1,-3548.6257L13610.1049,-3548.5703L13610.0232,-3548.5367L13610.0052,-3548.5226L13610,-3548.5129L13609.988,-3548.4905L13609.9749,-3548.4624L13609.9651,-3548.4266L13609.9528,-3548.3958L13609.9438,-3548.3383L13609.9442,-3548.3333L13609.9455,-3548.3153L13609.9635,-3548.2584L13609.988,-3548.2263L13610,-3548.2084L13610.0028,-3548.2042L13610.0093,-3548.1868L13610.0097,-3548.1787L13610.0123,-3548.1273L13610.0103,-3548.0839L13610.0045,-3548.0736L13610,-3548.0694L13609.9898,-3548.0602L13609.9734,-3548.0273L13609.9566,-3548.0048L13609.9435,-3547.9958L13609.9226,-3547.9878L13609.9029,-3547.9847L13609.8599,-3547.9827L13609.8403,-3547.9793L13609.8284,-3547.9736L13609.8017,-3547.9551L13609.7751,-3547.9277L13609.7538,-3547.9089L13609.7383,-3547.9016L13609.7293,-3547.8988L13609.6993,-3547.8895L13609.6686,-3547.8763L13609.6248,-3547.8372L13609.6211,-3547.8278L13609.6227,-3547.8147L13609.6317,-3547.7888L13609.6338,-3547.7707L13609.6326,-3547.7543L13609.6219,-3547.7147L13609.6109,-3547.6891L13609.6072,-3547.6597L13609.6088,-3547.6483L13609.6154,-3547.6369L13609.6252,-3547.6262L13609.6498,-3547.6111L13609.6739,-3547.5923L13609.6907,-3547.5759L13609.7063,-3547.549L13609.7161,-3547.5179L13609.7207,-3547.5L13609.7231,-3547.4909L13609.7225,-3547.4879L13609.7206,-3547.4772L13609.7129,-3547.4658L13609.6981,-3547.4554L13609.6558,-3547.4403L13609.639,-3547.4312L13609.6259,-3547.4205L13609.6034,-3547.3961L13609.5825,-3547.3716L13609.5563,-3547.3562L13609.5252,-3547.3438L13609.4969,-3547.3357L13609.4752,-3547.325L13609.4687,-3547.3186L13609.4666,-3547.3069L13609.474,-3547.2749L13609.4846,-3547.2472L13609.4887,-3547.1958L13609.5108,-3547.1076L13609.526,-3547.0567L13609.5387,-3547.0291L13609.5456,-3547.0073L13609.5506,-3546.9715L13609.5481,-3546.9513L13609.544,-3546.9409L13609.5342,-3546.9322L13609.508,-3546.9225L13609.4633,-3546.9098L13609.4265,-3546.9L13609.3933,-3546.8862L13609.3728,-3546.8752L13609.3564,-3546.8625L13609.3367,-3546.8461L13609.3076,-3546.8128L13609.3073,-3546.8125L13609.2699,-3546.7836L13609.2601,-3546.7726L13609.2552,-3546.7598L13609.2544,-3546.744L13609.2597,-3546.7084L13609.2597,-3546.6667L13609.2597,-3546.6589L13609.2564,-3546.6243L13609.2523,-3546.5878L13609.2404,-3546.5743L13609.2212,-3546.5596L13609.1966,-3546.5489L13609.1667,-3546.533L13609.1651,-3546.5321L13609.1601,-3546.5267L13609.1581,-3546.5167L13609.161,-3546.4971L13609.1667,-3546.4858L13609.1724,-3546.4744L13609.1929,-3546.4364L13609.2064,-3546.4197L13609.2396,-3546.3941L13609.2638,-3546.3746L13609.2781,-3546.363L13609.3076,-3546.3382L13609.315,-3546.3254L13609.3269,-3546.2986L13609.3306,-3546.2809L13609.3297,-3546.2383L13609.3318,-3546.2347L13609.3507,-3546.2241L13609.3626,-3546.2157L13609.3831,-3546.1926L13609.4036,-3546.1567L13609.4126,-3546.146L13609.4286,-3546.138L13609.4495,-3546.1346L13609.4815,-3546.1343L13609.5122,-3546.1313L13609.5449,-3546.133L13609.5507,-3546.1333L13609.5953,-3546.1363L13609.6117,-3546.1366L13609.6687,-3546.1245L13609.6769,-3546.1221L13609.6875,-3546.1189L13609.7002,-3546.1098L13609.7125,-3546.0961L13609.7256,-3546.0884L13609.7358,-3546.084L13609.7522,-3546.081L13609.7833,-3546.0815L13609.812,-3546.0881L13609.83,-3546.0915L13609.8528,-3546.0908L13609.8816,-3546.0838L13609.9298,-3546.0775L13609.967,-3546.0738L13610,-3546.0742L13610.0235,-3546.0744L13610.0734,-3546.0719L13610.0823,-3546.0714L13610.1052,-3546.0664L13610.1391,-3546.0631L13610.1604,-3546.0583L13610.1862,-3546.0443L13610.2001,-3546.0323L13610.2181,-3546.0042L13610.2336,-3545.9902L13610.2598,-3545.9788L13610.2916,-3545.9664L13610.3186,-3545.9587L13610.393,-3545.943L13610.4441,-3545.927L13610.4965,-3545.9171L13610.5298,-3545.9099L13610.5678,-3545.9016L13610.7232,-3545.8333L13610.8333,-3545.785L13611.5829,-3545.4557L13611.6413,-3545L13611.6462,-3544.9616L13611.6667,-3544.8024L13611.7482,-3544.1667L13611.794,-3543.8103L13611.6667,-3543.3677L13611.6568,-3543.3333L13611.6373,-3543.2657L13611.2179,-3542.828L13610.9037,-3542.5L13610.8333,-3542.4266L13610.3447,-3541.9167L13610.1052,-3541.6667L13610,-3541.5569L13609.4715,-3541.0054L13609.5077,-3540.8333L13609.683,-3540L13609.7116,-3539.8645L13609.8341,-3539.2822L13609.9872,-3539.1667L13610,-3539.157L13610.311,-3538.9224L13610.8333,-3538.5283L13610.8747,-3538.4971L13611.0917,-3538.3333L13611.6667,-3537.8996L13611.9153,-3537.712L13612.1963,-3537.5L13612.5,-3537.2709L13612.9559,-3536.9269L13613.3009,-3536.6667L13613.3333,-3536.6422L13613.9966,-3536.1418L13614.1667,-3536.0135L13614.4055,-3535.8333L13614.5082,-3535.7558L13614.8546,-3535.6009L13614.5782,-3535L13614.5756,-3534.9943L13614.6479,-3534.1667L13614.6764,-3533.8396L13614.7206,-3533.3333L13614.732,-3533.2031L13605.4688,-3533.2031L13605.4687,-3550.7812Z"/>
<path content="滋賀県,,,米原市,,25214" xlink:title="滋賀県" d="M13623.0469,-3533.2031L13621.3306,-3533.2031L13621.3278,-3533.2324L13621.272,-3533.3333L13620.978,-3533.8654L13621.4208,-3534.1232L13621.4955,-3534.1667L13621.6667,-3534.2664L13622.5,-3534.7516L13622.5741,-3534.7948L13622.8938,-3534.828L13623.0469,-3534.8439Z"/>
</g>
</svg>
