<?xml version="1.0" encoding="UTF-8"?>
<svg  xmlns="http://www.w3.org/2000/svg" xmlns:xlink="http://www.w3.org/1999/xlink" xmlns:go="http://purl.org/svgmap/profile" property="geometry,N03_001,N03_002,N03_003,N03_004,N03_005,N03_007" viewBox="13517.578125 -3489.2578125 8.7890625 8.7890625" go:dataArea="13517.578125 -3489.2578125 8.7890625 8.7890625" >
<metadata>
 <rdf:RDF xmlns:rdf="http://www.w3.org/1999/02/22-rdf-syntax-ns#" xmlns:crs="http://opengis.org/xmldtds/transformations.dtd" xmlns:svg="http://www.w3.org/svg" >
  <rdf:Description>
   <crs:CoordinateReferenceSystem rdf:resource="http://purl.org/crs/84" svg:transform="matrix(100.0,0.0,0.0,-100.0,0.0,0.0)" />
  </rdf:Description>
 </rdf:RDF>
</metadata>
<globalCoordinateSystem srsName="http://purl.org/crs/84" transform="matrix(100.0,0.0,0.0,-100.0,0.0,0.0)" />
<defs>
 <g id="p0" >
  <circle cx="0.0" cy="0.0" r="3" stroke="green" stroke-width="2.0" vector-effect="non-scaling-stroke" />
 </g>
</defs>
<g fill="#0000ff" fill-rule="evenodd" opacity="0.5" >
<path content="兵庫県,,,神戸市,北区,28109" xlink:title="兵庫県" d="M13517.5781,-3480.4688L13517.5781,-3488.8218L13517.5877,-3488.8174L13517.6016,-3488.8136L13517.6239,-3488.8114L13517.6569,-3488.8081L13517.6924,-3488.8076L13517.7109,-3488.8059L13517.7267,-3488.8043L13517.7484,-3488.8043L13517.7748,-3488.8L13517.7945,-3488.7951L13517.8216,-3488.7848L13517.8374,-3488.7783L13517.8591,-3488.7712L13517.8828,-3488.7696L13517.9546,-3488.768L13517.9776,-3488.7701L13517.9947,-3488.7723L13518.0172,-3488.7783L13518.0329,-3488.781L13518.0501,-3488.7799L13518.0606,-3488.7837L13518.0718,-3488.794L13518.0764,-3488.8005L13518.0883,-3488.8119L13518.1014,-3488.8255L13518.1278,-3488.8662L13518.1495,-3488.8678L13518.1666,-3488.8684L13518.1877,-3488.8657L13518.2424,-3488.8591L13518.2793,-3488.8483L13518.2924,-3488.845L13518.3056,-3488.8364L13518.3241,-3488.8212L13518.3333,-3488.8125L13518.3339,-3488.8119L13518.3814,-3488.7973L13518.4031,-3488.7886L13518.4176,-3488.7794L13518.4419,-3488.7626L13518.4742,-3488.7517L13518.5012,-3488.7441L13518.5196,-3488.7365L13518.5242,-3488.7343L13518.5311,-3488.7309L13518.5341,-3488.7294L13518.5572,-3488.7153L13518.5611,-3488.711L13518.5769,-3488.6936L13518.5829,-3488.6833L13518.5848,-3488.6687L13518.5901,-3488.6578L13518.598,-3488.6475L13518.6056,-3488.6267L13518.6061,-3488.6254L13518.6125,-3488.6079L13518.6158,-3488.578L13518.6191,-3488.5644L13518.6191,-3488.552L13518.6178,-3488.5259L13518.6125,-3488.5182L13518.6086,-3488.5124L13518.5967,-3488.4917L13518.5921,-3488.482L13518.598,-3488.47L13518.6026,-3488.4668L13518.6111,-3488.4629L13518.6145,-3488.4613L13518.6461,-3488.47L13518.6488,-3488.4709L13518.6836,-3488.482L13518.7113,-3488.4847L13518.7284,-3488.4831L13518.7287,-3488.4831L13518.7475,-3488.4825L13518.7732,-3488.4841L13518.7996,-3488.4879L13518.8141,-3488.4923L13518.8279,-3488.4912L13518.8417,-3488.4847L13518.8516,-3488.4782L13518.8661,-3488.4651L13518.8667,-3488.4445L13518.8654,-3488.4163L13518.8674,-3488.3929L13518.8733,-3488.3718L13518.8759,-3488.3555L13518.8878,-3488.3338L13518.8883,-3488.3333L13518.9036,-3488.3197L13518.9254,-3488.3083L13518.9438,-3488.2996L13518.9543,-3488.2942L13518.9708,-3488.2855L13518.9879,-3488.2724L13519.0037,-3488.2556L13519.0057,-3488.2544L13519.034,-3488.2372L13519.0498,-3488.2301L13519.061,-3488.2203L13519.0781,-3488.2046L13519.0959,-3488.1786L13519.1058,-3488.1655L13519.1196,-3488.1541L13519.1257,-3488.1454L13519.1275,-3488.1427L13519.14,-3488.1286L13519.1604,-3488.1053L13519.1644,-3488.0885L13519.1667,-3488.0667L13519.1671,-3488.063L13519.1697,-3488.0575L13519.1769,-3488.0516L13519.1954,-3488.0472L13519.2208,-3488.0438L13519.223,-3488.0435L13519.2237,-3488.0434L13519.283,-3488.0564L13519.301,-3488.0629L13519.3027,-3488.0635L13519.3185,-3488.0716L13519.3449,-3488.0825L13519.3745,-3488.0912L13519.3929,-3488.0939L13519.4101,-3488.0901L13519.4272,-3488.0831L13519.4436,-3488.0744L13519.4509,-3488.0675L13519.4568,-3488.0619L13519.4753,-3488.0499L13519.4996,-3488.032L13519.5154,-3488.0147L13519.5207,-3488.0011L13519.5273,-3487.9902L13519.5418,-3487.9756L13519.5622,-3487.9549L13519.5721,-3487.9457L13519.5839,-3487.9468L13519.5971,-3487.9511L13519.6136,-3487.9544L13519.6537,-3487.9685L13519.6656,-3487.9745L13519.6794,-3487.9756L13519.6971,-3487.9683L13519.7018,-3487.9664L13519.7036,-3487.9652L13519.7229,-3487.9533L13519.734,-3487.9458L13519.7459,-3487.9376L13519.7565,-3487.9207L13519.7657,-3487.8898L13519.767,-3487.8752L13519.7716,-3487.8589L13519.7775,-3487.8393L13519.7861,-3487.8187L13519.7861,-3487.8051L13519.7809,-3487.7916L13519.7716,-3487.7775L13519.7664,-3487.7661L13519.7571,-3487.7498L13519.7552,-3487.7416L13519.7598,-3487.7346L13519.7827,-3487.7243L13519.7973,-3487.7178L13519.8177,-3487.7075L13519.8329,-3487.7015L13519.8559,-3487.6896L13519.877,-3487.6749L13519.8888,-3487.6695L13519.9053,-3487.6651L13519.9211,-3487.6575L13519.9389,-3487.651L13519.9534,-3487.6467L13519.9672,-3487.638L13519.9751,-3487.6358L13519.9909,-3487.638L13520,-3487.6434L13520.0028,-3487.6451L13520.0127,-3487.6488L13520.0318,-3487.6472L13520.0548,-3487.6434L13520.0818,-3487.6396L13520.0936,-3487.6222L13520.1062,-3487.6081L13520.1213,-3487.5994L13520.1365,-3487.5962L13520.1602,-3487.5951L13520.199,-3487.6L13520.1996,-3487.6002L13520.2221,-3487.6097L13520.2359,-3487.6168L13520.253,-3487.6228L13520.2761,-3487.6293L13520.334,-3487.6358L13520.3538,-3487.638L13520.3827,-3487.6418L13520.4032,-3487.6407L13520.4144,-3487.6401L13520.4269,-3487.645L13520.4506,-3487.6684L13520.4611,-3487.6752L13520.4691,-3487.6803L13520.4835,-3487.6874L13520.502,-3487.6906L13520.525,-3487.6912L13520.5401,-3487.7168L13520.5448,-3487.7248L13520.5573,-3487.734L13520.5711,-3487.7367L13520.5876,-3487.7422L13520.5877,-3487.7422L13520.6218,-3487.7438L13520.6613,-3487.7547L13520.6699,-3487.7536L13520.6903,-3487.7444L13520.7041,-3487.7319L13520.7147,-3487.715L13520.7399,-3487.7101L13520.7562,-3487.7069L13520.7733,-3487.7015L13520.7917,-3487.6977L13520.8082,-3487.7058L13520.8333,-3487.7242L13520.8727,-3487.753L13520.8872,-3487.7628L13520.9103,-3487.7801L13520.9258,-3487.7911L13520.9564,-3487.8127L13520.9768,-3487.8263L13520.9906,-3487.8371L13521.0097,-3487.8453L13521.0255,-3487.8474L13521.0427,-3487.848L13521.0736,-3487.8431L13521.0855,-3487.8371L13521.1072,-3487.8301L13521.1394,-3487.8241L13521.1539,-3487.8252L13521.1954,-3487.8288L13521.1981,-3487.829L13521.2126,-3487.8301L13521.2284,-3487.8214L13521.2349,-3487.8116L13521.2422,-3487.7975L13521.2514,-3487.7649L13521.2587,-3487.7443L13521.2649,-3487.7262L13521.2683,-3487.7166L13521.2692,-3487.7139L13521.2774,-3487.6994L13521.2916,-3487.6743L13521.3114,-3487.6504L13521.3271,-3487.6385L13521.3429,-3487.6292L13521.3686,-3487.6151L13521.3824,-3487.6054L13521.4022,-3487.5793L13521.4174,-3487.5696L13521.4345,-3487.5652L13521.4523,-3487.5565L13521.4615,-3487.5511L13521.4931,-3487.5169L13521.5122,-3487.5071L13521.5227,-3487.5006L13521.5248,-3487.5L13521.5363,-3487.4965L13521.5495,-3487.4926L13521.5517,-3487.4919L13521.5883,-3487.4881L13521.5978,-3487.4871L13521.6215,-3487.4854L13521.6406,-3487.4876L13521.665,-3487.493L13521.6667,-3487.4936L13521.6755,-3487.4968L13521.6797,-3487.5L13521.6959,-3487.5126L13521.7117,-3487.5207L13521.7348,-3487.5299L13521.7486,-3487.5359L13521.7749,-3487.5424L13521.7848,-3487.5456L13521.7987,-3487.5576L13521.8085,-3487.5668L13521.8381,-3487.5646L13521.8703,-3487.5622L13521.8968,-3487.5603L13521.9166,-3487.5549L13521.931,-3487.556L13521.958,-3487.5581L13521.9778,-3487.5505L13521.9943,-3487.5397L13522.0265,-3487.5212L13522.0547,-3487.5L13522.0568,-3487.4984L13522.07,-3487.4903L13522.0864,-3487.4881L13522.1108,-3487.4935L13522.1501,-3487.5L13522.1734,-3487.5038L13522.1879,-3487.5055L13522.2144,-3487.5L13522.2326,-3487.4962L13522.3057,-3487.4658L13522.3251,-3487.4605L13522.3516,-3487.4532L13522.3946,-3487.4414L13522.4117,-3487.4332L13522.4216,-3487.4246L13522.4223,-3487.424L13522.4374,-3487.4159L13522.4386,-3487.4154L13522.47,-3487.4017L13522.4822,-3487.3964L13522.4978,-3487.3897L13522.5,-3487.3892L13522.5764,-3487.3736L13522.608,-3487.3415L13522.6185,-3487.3285L13522.6284,-3487.3106L13522.6429,-3487.2921L13522.7002,-3487.2927L13522.7206,-3487.2845L13522.739,-3487.271L13522.7542,-3487.2666L13522.7759,-3487.2531L13522.8181,-3487.2454L13522.8359,-3487.2438L13522.8563,-3487.2498L13522.8675,-3487.2552L13522.8783,-3487.2672L13522.8846,-3487.2742L13522.9228,-3487.3073L13522.934,-3487.3187L13522.9484,-3487.3279L13522.9623,-3487.3356L13522.9715,-3487.3421L13522.9821,-3487.341L13523.0229,-3487.3366L13523.042,-3487.3339L13523.0617,-3487.3301L13523.0789,-3487.3219L13523.092,-3487.3138L13523.1019,-3487.3138L13523.1493,-3487.3219L13523.1704,-3487.3236L13523.1895,-3487.3252L13523.2178,-3487.3312L13523.254,-3487.3393L13523.2824,-3487.3513L13523.2995,-3487.3594L13523.3146,-3487.3659L13523.3333,-3487.3782L13523.3337,-3487.3784L13523.3746,-3487.4104L13523.3831,-3487.4376L13523.3891,-3487.4528L13523.3943,-3487.475L13523.3976,-3487.4804L13523.4169,-3487.5L13523.4351,-3487.5184L13523.4357,-3487.5188L13523.4529,-3487.5309L13523.4661,-3487.5402L13523.476,-3487.5564L13523.4779,-3487.5863L13523.4786,-3487.595L13523.4904,-3487.6053L13523.5058,-3487.6101L13523.5115,-3487.6118L13523.5247,-3487.6161L13523.5299,-3487.6199L13523.5412,-3487.6281L13523.5504,-3487.6351L13523.5701,-3487.646L13523.5788,-3487.6516L13523.5925,-3487.6606L13523.6037,-3487.6688L13523.6149,-3487.6769L13523.634,-3487.684L13523.6591,-3487.6954L13523.6861,-3487.7073L13523.7032,-3487.7122L13523.7183,-3487.7127L13523.7302,-3487.7111L13523.7467,-3487.7127L13523.7763,-3487.7176L13523.8,-3487.7182L13523.8211,-3487.7149L13523.8323,-3487.7133L13523.8454,-3487.7106L13523.8659,-3487.7041L13523.8876,-3487.7036L13523.9061,-3487.7025L13523.9192,-3487.7046L13523.9488,-3487.7149L13523.9653,-3487.7236L13523.9791,-3487.7329L13523.9943,-3487.7416L13524.0206,-3487.76L13524.0489,-3487.7779L13524.0674,-3487.7866L13524.0793,-3487.7931L13524.0924,-3487.7964L13524.1036,-3487.7969L13524.128,-3487.8007L13524.1405,-3487.8083L13524.1524,-3487.8197L13524.1655,-3487.8268L13524.1667,-3487.8271L13524.1794,-3487.8311L13524.1938,-3487.8354L13524.209,-3487.8354L13524.2399,-3487.8338L13524.2669,-3487.8099L13524.2709,-3487.7969L13524.2814,-3487.7877L13524.2973,-3487.7855L13524.3073,-3487.7892L13524.3431,-3487.8026L13524.344,-3487.8029L13524.3605,-3487.8078L13524.3769,-3487.8121L13524.3921,-3487.8165L13524.4006,-3487.8132L13524.4303,-3487.7834L13524.4408,-3487.772L13524.4527,-3487.7638L13524.4658,-3487.7644L13524.4742,-3487.7682L13524.4922,-3487.7763L13524.5554,-3487.8214L13524.616,-3487.8664L13524.6265,-3487.8697L13524.643,-3487.8572L13524.6687,-3487.8414L13524.6884,-3487.8257L13524.7043,-3487.8219L13524.721,-3487.8211L13524.7415,-3487.8271L13524.7503,-3487.8278L13524.7574,-3487.8283L13524.7719,-3487.8229L13524.7827,-3487.8176L13524.7975,-3487.8027L13524.8142,-3487.7836L13524.8272,-3487.7884L13524.89,-3487.8118L13524.8977,-3487.8146L13524.9078,-3487.8212L13524.918,-3487.823L13524.9296,-3487.8218L13524.9447,-3487.8242L13524.9607,-3487.8295L13524.9759,-3487.8379L13524.9904,-3487.8486L13525,-3487.8574L13525.0034,-3487.8606L13525.0059,-3487.8639L13525.0114,-3487.8713L13525.02,-3487.8779L13525.029,-3487.8812L13525.0384,-3487.8824L13525.0507,-3487.8782L13525.0623,-3487.8716L13525.0847,-3487.8776L13525.1412,-3487.8967L13525.1929,-3487.9182L13525.2052,-3487.9236L13525.2153,-3487.9307L13525.2233,-3487.9385L13525.232,-3487.954L13525.2407,-3487.9659L13525.2508,-3487.9791L13525.2588,-3487.9874L13525.2672,-3487.9953L13525.2803,-3488.0007L13525.2897,-3488.0037L13525.2984,-3488.0031L13525.3179,-3488.0019L13525.3432,-3488.0037L13525.3606,-3488.0085L13525.3743,-3488.0156L13525.3885,-3488.0244L13525.4267,-3488.048L13525.4687,-3488.0731L13525.4854,-3488.0874L13525.4948,-3488.0975L13525.5033,-3488.1066L13525.5127,-3488.115L13525.5228,-3488.1192L13525.5402,-3488.1293L13525.573,-3488.146L13525.6114,-3488.1639L13525.6302,-3488.1699L13525.6512,-3488.1764L13525.6889,-3488.1907L13525.7106,-3488.1997L13525.7243,-3488.2063L13525.7337,-3488.214L13525.7446,-3488.2287L13525.7586,-3488.2589L13525.7693,-3488.2827L13525.7825,-3488.3122L13525.7926,-3488.3247L13525.8024,-3488.3333L13525.8028,-3488.3336L13525.8158,-3488.3384L13525.8333,-3488.344L13525.8441,-3488.3474L13525.8553,-3488.3522L13525.865,-3488.3563L13525.8933,-3488.367L13525.9121,-3488.3754L13525.929,-3488.3841L13525.95,-3488.3984L13525.9768,-3488.4163L13526.028,-3488.4514L13526.0654,-3488.4769L13526.0914,-3488.4912L13526.1146,-3488.5032L13526.1395,-3488.5115L13526.154,-3488.5151L13526.1728,-3488.5169L13526.1894,-3488.5163L13526.2126,-3488.5109L13526.2285,-3488.5073L13526.2444,-3488.5008L13526.2715,-3488.4853L13526.2867,-3488.4811L13526.3033,-3488.4805L13526.3672,-3488.4857L13526.3672,-3484.5776L13526.3606,-3484.5745L13526.3432,-3484.5662L13526.3291,-3484.5563L13526.3183,-3484.5455L13526.3111,-3484.5336L13526.3053,-3484.5143L13526.2944,-3484.4875L13526.2814,-3484.4708L13526.2647,-3484.4529L13526.2346,-3484.4324L13526.2027,-3484.4092L13526.1984,-3484.4002L13526.1998,-3484.3925L13526.2013,-3484.377L13526.2063,-3484.3656L13526.2092,-3484.3495L13526.2092,-3484.3406L13526.2034,-3484.3304L13526.1832,-3484.3203L13526.1576,-3484.3088L13526.1453,-3484.3016L13526.125,-3484.2873L13526.1083,-3484.2718L13526.0986,-3484.256L13526.0981,-3484.2552L13526.0912,-3484.2441L13526.082,-3484.2293L13526.0769,-3484.2191L13526.0646,-3484.2042L13526.0523,-3484.1941L13526.0371,-3484.1893L13526.0183,-3484.1869L13525.9883,-3484.1881L13525.9709,-3484.1911L13525.9543,-3484.1905L13525.9439,-3484.193L13525.9347,-3484.1953L13525.8993,-3484.2078L13525.8827,-3484.2137L13525.8718,-3484.2209L13525.8609,-3484.2281L13525.8479,-3484.2358L13525.8333,-3484.2417L13525.8114,-3484.2505L13525.7962,-3484.2553L13525.7687,-3484.2642L13525.7535,-3484.275L13525.7333,-3484.297L13525.7188,-3484.3114L13525.6819,-3484.3233L13525.6559,-3484.3306L13525.6336,-3484.3368L13525.5887,-3484.3535L13525.5836,-3484.344L13525.5797,-3484.3368L13525.5407,-3484.3415L13525.5218,-3484.3415L13525.5009,-3484.3439L13525.4654,-3484.3493L13525.4383,-3484.3576L13525.4224,-3484.3642L13525.4072,-3484.3666L13525.3794,-3484.3701L13525.3606,-3484.3725L13525.3092,-3484.3689L13525.2875,-3484.3684L13525.2672,-3484.3701L13525.2441,-3484.3761L13525.2296,-3484.3821L13525.2221,-3484.3871L13525.218,-3484.3898L13525.2028,-3484.4006L13525.1823,-3484.4328L13525.1605,-3484.4638L13525.1453,-3484.4805L13525.1345,-3484.4817L13525.1214,-3484.4775L13525.0976,-3484.471L13525.044,-3484.4554L13525.0216,-3484.4507L13525.0027,-3484.4525L13525,-3484.4534L13524.9405,-3484.4727L13524.8826,-3484.4954L13524.8326,-3484.5115L13524.774,-3484.5348L13524.7703,-3484.5482L13524.7675,-3484.558L13524.7458,-3484.5849L13524.7306,-3484.5992L13524.7209,-3484.6063L13524.6898,-3484.6214L13524.6424,-3484.646L13524.6143,-3484.6619L13524.5993,-3484.673L13524.5794,-3484.6919L13524.5562,-3484.719L13524.5386,-3484.7354L13524.5365,-3484.737L13524.5109,-3484.7554L13524.4987,-3484.7655L13524.4945,-3484.7664L13524.4813,-3484.7693L13524.4612,-3484.7786L13524.4311,-3484.8013L13524.4031,-3484.8147L13524.3909,-3484.8169L13524.3673,-3484.8165L13524.3401,-3484.8137L13524.3277,-3484.8125L13524.3006,-3484.801L13524.2842,-3484.7921L13524.2677,-3484.7862L13524.2206,-3484.7735L13524.2005,-3484.7689L13524.1908,-3484.767L13524.172,-3484.766L13524.1667,-3484.7663L13524.1422,-3484.7674L13524.0742,-3484.7694L13524.0518,-3484.7737L13524.0175,-3484.7825L13523.9891,-3484.791L13523.9831,-3484.791L13523.9678,-3484.7855L13523.9294,-3484.7656L13523.9046,-3484.7559L13523.8847,-3484.7485L13523.8698,-3484.7402L13523.8507,-3484.7322L13523.8182,-3484.7186L13523.7659,-3484.6959L13523.7565,-3484.6921L13523.7464,-3484.6881L13523.7464,-3484.688L13523.7238,-3484.6789L13523.6996,-3484.6691L13523.6905,-3484.6654L13523.6458,-3484.6472L13523.6183,-3484.6363L13523.5915,-3484.6257L13523.5493,-3484.609L13523.5448,-3484.6076L13523.525,-3484.601L13523.4564,-3484.5791L13523.4384,-3484.5693L13523.4317,-3484.564L13523.4261,-3484.5581L13523.4238,-3484.5562L13523.4192,-3484.5525L13523.4134,-3484.5491L13523.3861,-3484.5439L13523.3511,-3484.539L13523.3348,-3484.5374L13523.3333,-3484.5371L13523.3275,-3484.5361L13523.3216,-3484.5351L13523.3156,-3484.5309L13523.3128,-3484.5244L13523.3223,-3484.4778L13523.3244,-3484.4528L13523.3333,-3484.3812L13523.3314,-3484.3673L13523.3333,-3484.3537L13523.3341,-3484.3481L13523.3413,-3484.3298L13523.3519,-3484.3021L13523.3565,-3484.292L13523.3561,-3484.2878L13523.3333,-3484.2471L13523.327,-3484.2358L13523.312,-3484.2032L13523.3026,-3484.1838L13523.2943,-3484.1727L13523.2914,-3484.1667L13523.291,-3484.1659L13523.2894,-3484.1596L13523.2896,-3484.1497L13523.293,-3484.1351L13523.2973,-3484.1167L13523.3106,-3484.0741L13523.3201,-3484.0523L13523.3231,-3484.0326L13523.3255,-3484.0207L13523.3246,-3484.0169L13523.3189,-3484.0097L13523.3167,-3484.007L13523.3098,-3483.9989L13523.3028,-3483.9907L13523.2954,-3483.9797L13523.2917,-3483.9707L13523.2883,-3483.9482L13523.2864,-3483.9245L13523.2854,-3483.911L13523.2824,-3483.8718L13523.2814,-3483.8635L13523.2787,-3483.8406L13523.2785,-3483.8273L13523.2801,-3483.8202L13523.2843,-3483.8124L13523.2848,-3483.8049L13523.2834,-3483.7946L13523.2776,-3483.7803L13523.2738,-3483.7692L13523.2733,-3483.7516L13523.2747,-3483.7316L13523.2761,-3483.7167L13523.2733,-3483.7108L13523.2585,-3483.6959L13523.2501,-3483.687L13523.2361,-3483.6584L13523.2352,-3483.6566L13523.2337,-3483.6521L13523.2504,-3483.6402L13523.2412,-3483.6364L13523.213,-3483.6185L13523.1971,-3483.6018L13523.1884,-3483.5833L13523.187,-3483.5553L13523.1917,-3483.5183L13523.1975,-3483.4867L13523.1996,-3483.4676L13523.2054,-3483.4038L13523.2024,-3483.3809L13523.1989,-3483.3543L13523.1874,-3483.3417L13523.182,-3483.3333L13523.1801,-3483.3304L13523.1479,-3483.2976L13523.1422,-3483.2863L13523.1306,-3483.2779L13523.1132,-3483.241L13523.0894,-3483.198L13523.0721,-3483.1664L13523.0699,-3483.1562L13523.0713,-3483.1437L13523.0865,-3483.1199L13523.0955,-3483.0865L13523.0984,-3483.0584L13523.0984,-3483.0423L13523.0861,-3483.0149L13523.0703,-3482.9737L13523.0703,-3482.9517L13523.0855,-3482.9054L13523.0981,-3482.8676L13523.1082,-3482.8437L13523.1154,-3482.8174L13523.1154,-3482.7918L13523.1053,-3482.762L13523.0822,-3482.7584L13523.0735,-3482.7548L13523.0648,-3482.7339L13523.0489,-3482.7148L13523.0091,-3482.6898L13522.9925,-3482.6755L13522.9838,-3482.6654L13522.9817,-3482.6522L13522.9813,-3482.6164L13522.9864,-3482.5646L13522.9835,-3482.5353L13522.9827,-3482.5156L13522.9779,-3482.5L13522.9726,-3482.4828L13522.9697,-3482.4679L13522.9719,-3482.4518L13522.9849,-3482.4286L13523.02,-3482.3791L13523.0294,-3482.3623L13523.0352,-3482.3421L13523.0373,-3482.323L13523.0504,-3482.2955L13523.0547,-3482.2806L13523.054,-3482.2669L13523.0446,-3482.252L13523.0294,-3482.2353L13523.0167,-3482.2198L13523.0131,-3482.2078L13523.0138,-3482.1953L13523.0182,-3482.178L13523.0326,-3482.1524L13523.0572,-3482.1011L13523.0636,-3482.0904L13523.0796,-3482.0635L13523.0992,-3482.0396L13523.1151,-3482.0247L13523.1353,-3482.0158L13523.1509,-3482.0098L13523.1649,-3481.9922L13523.1856,-3481.9663L13523.2051,-3481.9507L13523.2261,-3481.9341L13523.2383,-3481.9251L13523.2579,-3481.9192L13523.2702,-3481.9114L13523.2796,-3481.8965L13523.2824,-3481.8774L13523.2889,-3481.8535L13523.2973,-3481.7909L13523.2951,-3481.7701L13523.2908,-3481.7551L13523.2929,-3481.7444L13523.3096,-3481.7295L13523.3183,-3481.714L13523.3276,-3481.6925L13523.3327,-3481.6716L13523.333,-3481.6667L13523.3333,-3481.6623L13523.3349,-3481.64L13523.3334,-3481.6239L13523.3333,-3481.6237L13523.3247,-3481.609L13523.3127,-3481.6005L13523.3025,-3481.5926L13523.2897,-3481.5868L13523.2836,-3481.5799L13523.2781,-3481.5715L13523.2756,-3481.5641L13523.2764,-3481.556L13523.2814,-3481.5464L13523.2856,-3481.539L13523.287,-3481.5133L13523.2929,-3481.4922L13523.292,-3481.4829L13523.2889,-3481.4748L13523.2769,-3481.4621L13523.2758,-3481.4552L13523.2742,-3481.4241L13523.2625,-3481.402L13523.266,-3481.3884L13523.2773,-3481.3699L13523.2789,-3481.356L13523.2839,-3481.3459L13523.3032,-3481.3277L13523.3097,-3481.3169L13523.3161,-3481.3016L13523.3186,-3481.2906L13523.3225,-3481.2736L13523.3333,-3481.2669L13523.3499,-3481.2568L13523.3649,-3481.2495L13523.3739,-3481.2481L13523.3964,-3481.2422L13523.418,-3481.2338L13523.4499,-3481.2147L13523.4614,-3481.1992L13523.4716,-3481.1783L13523.4788,-3481.1604L13523.4997,-3481.1437L13523.5222,-3481.1324L13523.554,-3481.1229L13523.5749,-3481.1211L13523.5959,-3481.1175L13523.6061,-3481.1133L13523.6194,-3481.0984L13523.6397,-3481.0638L13523.6491,-3481.0555L13523.665,-3481.0465L13523.6722,-3481.0453L13523.691,-3481.0459L13523.712,-3481.0471L13523.7329,-3481.0453L13523.7705,-3481.0358L13523.7785,-3481.031L13523.7893,-3481.0191L13523.7987,-3481.0006L13523.8103,-3480.9881L13523.8334,-3480.9827L13523.8587,-3480.9749L13523.8711,-3480.9648L13523.8783,-3480.9493L13523.8855,-3480.9308L13523.8938,-3480.9231L13523.9104,-3480.9141L13523.9271,-3480.9099L13523.9358,-3480.9058L13523.9423,-3480.8974L13523.9509,-3480.8825L13523.969,-3480.8658L13523.9806,-3480.8622L13523.9958,-3480.8616L13524.0319,-3480.8724L13524.0471,-3480.8724L13524.0746,-3480.8646L13524.0876,-3480.8624L13524.0927,-3480.8616L13524.1115,-3480.8551L13524.1393,-3480.8348L13524.1406,-3480.8333L13524.1515,-3480.8209L13524.1567,-3480.8151L13524.1667,-3480.7996L13524.174,-3480.7882L13524.1848,-3480.7599L13524.1893,-3480.7265L13524.2014,-3480.6811L13524.2028,-3480.6544L13524.1986,-3480.6362L13524.1875,-3480.6101L13524.1819,-3480.5978L13524.1667,-3480.5698L13524.1113,-3480.4688L13524.7025,-3480.4687L13524.7063,-3480.4789L13524.721,-3480.5005L13524.7359,-3480.5291L13524.7468,-3480.547L13524.7611,-3480.5701L13524.7641,-3480.575L13524.7873,-3480.6019L13524.8006,-3480.6182L13524.8151,-3480.6338L13524.8325,-3480.6546L13524.8361,-3480.6612L13524.8368,-3480.6761L13524.8346,-3480.691L13524.8289,-3480.7018L13524.8158,-3480.7143L13524.8129,-3480.7227L13524.8108,-3480.7364L13524.8129,-3480.7477L13524.8216,-3480.7662L13524.8238,-3480.7746L13524.8252,-3480.7895L13524.8289,-3480.8056L13524.8317,-3480.8157L13524.8404,-3480.8247L13524.8542,-3480.8312L13524.8575,-3480.8333L13524.8636,-3480.8372L13524.8672,-3480.8491L13524.8679,-3480.8652L13524.8715,-3480.8694L13524.8795,-3480.8694L13524.8839,-3480.8687L13524.9055,-3480.8652L13524.9648,-3480.8551L13525,-3480.8435L13525.0082,-3480.8408L13525.0274,-3480.8333L13525.0421,-3480.8276L13525.0631,-3480.8175L13525.083,-3480.8017L13525.0931,-3480.7904L13525.0969,-3480.781L13525.0975,-3480.7796L13525.0983,-3480.7748L13525.0989,-3480.7713L13525.0987,-3480.7709L13525.0969,-3480.7668L13525.0931,-3480.7581L13525.0859,-3480.7498L13525.0823,-3480.7379L13525.0823,-3480.7217L13525.0852,-3480.7069L13525.0946,-3480.6866L13525.1177,-3480.6371L13525.1293,-3480.6126L13525.147,-3480.5837L13525.181,-3480.5437L13525.1897,-3480.536L13525.2048,-3480.5228L13525.2179,-3480.5151L13525.2844,-3480.4805L13525.2953,-3480.4733L13525.3052,-3480.4688L13525.327,-3480.4688L13525.3285,-3480.4692L13525.3459,-3480.4817L13525.3632,-3480.4984L13525.3726,-3480.5073L13525.39,-3480.5109L13525.4008,-3480.5127L13525.4149,-3480.519L13525.4453,-3480.5416L13525.4944,-3480.5709L13525.5125,-3480.5786L13525.5327,-3480.5846L13525.5353,-3480.5851L13525.5537,-3480.5887L13525.5563,-3480.5889L13525.5711,-3480.5899L13525.5847,-3480.5886L13525.5892,-3480.5882L13525.6022,-3480.5846L13525.6116,-3480.5768L13525.6224,-3480.5607L13525.626,-3480.553L13525.6376,-3480.5464L13525.647,-3480.5428L13525.6557,-3480.5452L13525.6636,-3480.5512L13525.6687,-3480.5637L13525.6759,-3480.5732L13525.6868,-3480.581L13525.6969,-3480.5834L13525.7077,-3480.5834L13525.7222,-3480.578L13525.7352,-3480.5685L13525.7424,-3480.5571L13525.7497,-3480.5536L13525.7685,-3480.5536L13525.7833,-3480.5521L13525.8006,-3480.5449L13525.8115,-3480.5372L13525.8187,-3480.5348L13525.8325,-3480.5342L13525.8333,-3480.5342L13525.8346,-3480.5342L13525.8469,-3480.533L13525.8607,-3480.5288L13525.8729,-3480.5192L13525.8838,-3480.5091L13525.9127,-3480.4954L13525.918,-3480.4985L13525.9279,-3480.5044L13525.938,-3480.5139L13525.9568,-3480.5252L13525.9821,-3480.5384L13525.9981,-3480.5473L13526.0154,-3480.5515L13526.0262,-3480.5527L13526.0385,-3480.5515L13526.0631,-3480.5449L13526.0761,-3480.5401L13526.0913,-3480.5348L13526.1072,-3480.5222L13526.1239,-3480.5109L13526.1412,-3480.4978L13526.1452,-3480.4916L13526.1531,-3480.4808L13526.1632,-3480.4688Z"/>
<path content="兵庫県,,,西宮市,,28204" xlink:title="兵庫県" d="M13526.3672,-3480.4688L13526.1632,-3480.4688L13526.1531,-3480.4808L13526.1452,-3480.4916L13526.1412,-3480.4978L13526.1239,-3480.5109L13526.1072,-3480.5222L13526.0913,-3480.5348L13526.0761,-3480.5401L13526.0631,-3480.5449L13526.0385,-3480.5515L13526.0262,-3480.5527L13526.0154,-3480.5515L13525.9981,-3480.5473L13525.9821,-3480.5384L13525.9568,-3480.5252L13525.938,-3480.5139L13525.9279,-3480.5044L13525.918,-3480.4985L13525.9127,-3480.4954L13525.8838,-3480.5091L13525.8729,-3480.5192L13525.8607,-3480.5288L13525.8469,-3480.533L13525.8346,-3480.5342L13525.8333,-3480.5342L13525.8325,-3480.5342L13525.8187,-3480.5348L13525.8115,-3480.5372L13525.8006,-3480.5449L13525.7833,-3480.5521L13525.7685,-3480.5536L13525.7497,-3480.5536L13525.7424,-3480.5571L13525.7352,-3480.5685L13525.7222,-3480.578L13525.7077,-3480.5834L13525.6969,-3480.5834L13525.6868,-3480.581L13525.6759,-3480.5732L13525.6687,-3480.5637L13525.6636,-3480.5512L13525.6557,-3480.5452L13525.647,-3480.5428L13525.6376,-3480.5464L13525.626,-3480.553L13525.6224,-3480.5607L13525.6116,-3480.5768L13525.6022,-3480.5846L13525.5892,-3480.5882L13525.5847,-3480.5886L13525.5711,-3480.5899L13525.5563,-3480.5889L13525.5537,-3480.5887L13525.5353,-3480.5851L13525.5327,-3480.5846L13525.5125,-3480.5786L13525.4944,-3480.5709L13525.4453,-3480.5416L13525.4149,-3480.519L13525.4008,-3480.5127L13525.39,-3480.5109L13525.3726,-3480.5073L13525.3632,-3480.4984L13525.3459,-3480.4817L13525.3285,-3480.4692L13525.327,-3480.4688L13525.3052,-3480.4688L13525.2953,-3480.4733L13525.2844,-3480.4805L13525.2179,-3480.5151L13525.2048,-3480.5228L13525.1897,-3480.536L13525.181,-3480.5437L13525.147,-3480.5837L13525.1293,-3480.6126L13525.1177,-3480.6371L13525.0946,-3480.6866L13525.0852,-3480.7069L13525.0823,-3480.7217L13525.0823,-3480.7379L13525.0859,-3480.7498L13525.0931,-3480.7581L13525.0969,-3480.7668L13525.0987,-3480.7709L13525.0989,-3480.7713L13525.0983,-3480.7748L13525.0975,-3480.7796L13525.0969,-3480.781L13525.0931,-3480.7904L13525.083,-3480.8017L13525.0631,-3480.8175L13525.0421,-3480.8276L13525.0274,-3480.8333L13525.0082,-3480.8408L13525,-3480.8435L13524.9648,-3480.8551L13524.9055,-3480.8652L13524.8839,-3480.8687L13524.8795,-3480.8694L13524.8715,-3480.8694L13524.8679,-3480.8652L13524.8672,-3480.8491L13524.8636,-3480.8372L13524.8575,-3480.8333L13524.8542,-3480.8312L13524.8404,-3480.8247L13524.8317,-3480.8157L13524.8289,-3480.8056L13524.8252,-3480.7895L13524.8238,-3480.7746L13524.8216,-3480.7662L13524.8129,-3480.7477L13524.8108,-3480.7364L13524.8129,-3480.7227L13524.8158,-3480.7143L13524.8289,-3480.7018L13524.8346,-3480.691L13524.8368,-3480.6761L13524.8361,-3480.6612L13524.8325,-3480.6546L13524.8151,-3480.6338L13524.8006,-3480.6182L13524.7873,-3480.6019L13524.7641,-3480.575L13524.7611,-3480.5701L13524.7468,-3480.547L13524.7359,-3480.5291L13524.721,-3480.5005L13524.7063,-3480.4789L13524.7025,-3480.4687L13524.1113,-3480.4688L13524.1667,-3480.5698L13524.1819,-3480.5978L13524.1875,-3480.6101L13524.1986,-3480.6362L13524.2028,-3480.6544L13524.2014,-3480.6811L13524.1893,-3480.7265L13524.1848,-3480.7599L13524.174,-3480.7882L13524.1667,-3480.7996L13524.1567,-3480.8151L13524.1515,-3480.8209L13524.1406,-3480.8333L13524.1393,-3480.8348L13524.1115,-3480.8551L13524.0927,-3480.8616L13524.0876,-3480.8624L13524.0746,-3480.8646L13524.0471,-3480.8724L13524.0319,-3480.8724L13523.9958,-3480.8616L13523.9806,-3480.8622L13523.969,-3480.8658L13523.9509,-3480.8825L13523.9423,-3480.8974L13523.9358,-3480.9058L13523.9271,-3480.9099L13523.9104,-3480.9141L13523.8938,-3480.9231L13523.8855,-3480.9308L13523.8783,-3480.9493L13523.8711,-3480.9648L13523.8587,-3480.9749L13523.8334,-3480.9827L13523.8103,-3480.9881L13523.7987,-3481.0006L13523.7893,-3481.0191L13523.7785,-3481.031L13523.7705,-3481.0358L13523.7329,-3481.0453L13523.712,-3481.0471L13523.691,-3481.0459L13523.6722,-3481.0453L13523.665,-3481.0465L13523.6491,-3481.0555L13523.6397,-3481.0638L13523.6194,-3481.0984L13523.6061,-3481.1133L13523.5959,-3481.1175L13523.5749,-3481.1211L13523.554,-3481.1229L13523.5222,-3481.1324L13523.4997,-3481.1437L13523.4788,-3481.1604L13523.4716,-3481.1783L13523.4614,-3481.1992L13523.4499,-3481.2147L13523.418,-3481.2338L13523.3964,-3481.2422L13523.3739,-3481.2481L13523.3649,-3481.2495L13523.3499,-3481.2568L13523.3333,-3481.2669L13523.3225,-3481.2736L13523.3186,-3481.2906L13523.3161,-3481.3016L13523.3097,-3481.3169L13523.3032,-3481.3277L13523.2839,-3481.3459L13523.2789,-3481.356L13523.2773,-3481.3699L13523.266,-3481.3884L13523.2625,-3481.402L13523.2742,-3481.4241L13523.2758,-3481.4552L13523.2769,-3481.4621L13523.2889,-3481.4748L13523.292,-3481.4829L13523.2929,-3481.4922L13523.287,-3481.5133L13523.2856,-3481.539L13523.2814,-3481.5464L13523.2764,-3481.556L13523.2756,-3481.5641L13523.2781,-3481.5715L13523.2836,-3481.5799L13523.2897,-3481.5868L13523.3025,-3481.5926L13523.3127,-3481.6005L13523.3247,-3481.609L13523.3333,-3481.6237L13523.3334,-3481.6239L13523.3349,-3481.64L13523.3333,-3481.6623L13523.333,-3481.6667L13523.3327,-3481.6716L13523.3276,-3481.6925L13523.3183,-3481.714L13523.3096,-3481.7295L13523.2929,-3481.7444L13523.2908,-3481.7551L13523.2951,-3481.7701L13523.2973,-3481.7909L13523.2889,-3481.8535L13523.2824,-3481.8774L13523.2796,-3481.8965L13523.2702,-3481.9114L13523.2579,-3481.9192L13523.2383,-3481.9251L13523.2261,-3481.9341L13523.2051,-3481.9507L13523.1856,-3481.9663L13523.1649,-3481.9922L13523.1509,-3482.0098L13523.1353,-3482.0158L13523.1151,-3482.0247L13523.0992,-3482.0396L13523.0796,-3482.0635L13523.0636,-3482.0904L13523.0572,-3482.1011L13523.0326,-3482.1524L13523.0182,-3482.178L13523.0138,-3482.1953L13523.0131,-3482.2078L13523.0167,-3482.2198L13523.0294,-3482.2353L13523.0446,-3482.252L13523.054,-3482.2669L13523.0547,-3482.2806L13523.0504,-3482.2955L13523.0373,-3482.323L13523.0352,-3482.3421L13523.0294,-3482.3623L13523.02,-3482.3791L13522.9849,-3482.4286L13522.9719,-3482.4518L13522.9697,-3482.4679L13522.9726,-3482.4828L13522.9779,-3482.5L13522.9827,-3482.5156L13522.9835,-3482.5353L13522.9864,-3482.5646L13522.9813,-3482.6164L13522.9817,-3482.6522L13522.9838,-3482.6654L13522.9925,-3482.6755L13523.0091,-3482.6898L13523.0489,-3482.7148L13523.0648,-3482.7339L13523.0735,-3482.7548L13523.0822,-3482.7584L13523.1053,-3482.762L13523.1154,-3482.7918L13523.1154,-3482.8174L13523.1082,-3482.8437L13523.0981,-3482.8676L13523.0855,-3482.9054L13523.0703,-3482.9517L13523.0703,-3482.9737L13523.0861,-3483.0149L13523.0984,-3483.0423L13523.0984,-3483.0584L13523.0955,-3483.0865L13523.0865,-3483.1199L13523.0713,-3483.1437L13523.0699,-3483.1562L13523.0721,-3483.1664L13523.0894,-3483.198L13523.1132,-3483.241L13523.1306,-3483.2779L13523.1422,-3483.2863L13523.1479,-3483.2976L13523.1801,-3483.3304L13523.182,-3483.3333L13523.1874,-3483.3417L13523.1989,-3483.3543L13523.2024,-3483.3809L13523.2054,-3483.4038L13523.1996,-3483.4676L13523.1975,-3483.4867L13523.1917,-3483.5183L13523.187,-3483.5553L13523.1884,-3483.5833L13523.1971,-3483.6018L13523.213,-3483.6185L13523.2412,-3483.6364L13523.2504,-3483.6402L13523.2337,-3483.6521L13523.2352,-3483.6566L13523.2361,-3483.6584L13523.2501,-3483.687L13523.2585,-3483.6959L13523.2733,-3483.7108L13523.2761,-3483.7167L13523.2747,-3483.7316L13523.2733,-3483.7516L13523.2738,-3483.7692L13523.2776,-3483.7803L13523.2834,-3483.7946L13523.2848,-3483.8049L13523.2843,-3483.8124L13523.2801,-3483.8202L13523.2785,-3483.8273L13523.2787,-3483.8406L13523.2814,-3483.8635L13523.2824,-3483.8718L13523.2854,-3483.911L13523.2864,-3483.9245L13523.2883,-3483.9482L13523.2917,-3483.9707L13523.2954,-3483.9797L13523.3028,-3483.9907L13523.3098,-3483.9989L13523.3167,-3484.007L13523.3189,-3484.0097L13523.3246,-3484.0169L13523.3255,-3484.0207L13523.3231,-3484.0326L13523.3201,-3484.0523L13523.3106,-3484.0741L13523.2973,-3484.1167L13523.293,-3484.1351L13523.2896,-3484.1497L13523.2894,-3484.1596L13523.291,-3484.1659L13523.2914,-3484.1667L13523.2943,-3484.1727L13523.3026,-3484.1838L13523.312,-3484.2032L13523.327,-3484.2358L13523.3333,-3484.2471L13523.3561,-3484.2878L13523.3565,-3484.292L13523.3519,-3484.3021L13523.3413,-3484.3298L13523.3341,-3484.3481L13523.3333,-3484.3537L13523.3314,-3484.3673L13523.3333,-3484.3812L13523.3244,-3484.4528L13523.3223,-3484.4778L13523.3128,-3484.5244L13523.3156,-3484.5309L13523.3216,-3484.5351L13523.3275,-3484.5361L13523.3333,-3484.5371L13523.3348,-3484.5374L13523.3511,-3484.539L13523.3861,-3484.5439L13523.4134,-3484.5491L13523.4192,-3484.5525L13523.4238,-3484.5562L13523.4261,-3484.5581L13523.4317,-3484.564L13523.4384,-3484.5693L13523.4564,-3484.5791L13523.525,-3484.601L13523.5448,-3484.6076L13523.5493,-3484.609L13523.5915,-3484.6257L13523.6183,-3484.6363L13523.6458,-3484.6472L13523.6905,-3484.6654L13523.6996,-3484.6691L13523.7238,-3484.6789L13523.7464,-3484.688L13523.7464,-3484.6881L13523.7565,-3484.6921L13523.7659,-3484.6959L13523.8182,-3484.7186L13523.8507,-3484.7322L13523.8698,-3484.7402L13523.8847,-3484.7485L13523.9046,-3484.7559L13523.9294,-3484.7656L13523.9678,-3484.7855L13523.9831,-3484.791L13523.9891,-3484.791L13524.0175,-3484.7825L13524.0518,-3484.7737L13524.0742,-3484.7694L13524.1422,-3484.7674L13524.1667,-3484.7663L13524.172,-3484.766L13524.1908,-3484.767L13524.2005,-3484.7689L13524.2206,-3484.7735L13524.2677,-3484.7862L13524.2842,-3484.7921L13524.3006,-3484.801L13524.3277,-3484.8125L13524.3401,-3484.8137L13524.3673,-3484.8165L13524.3909,-3484.8169L13524.4031,-3484.8147L13524.4311,-3484.8013L13524.4612,-3484.7786L13524.4813,-3484.7693L13524.4945,-3484.7664L13524.4987,-3484.7655L13524.5109,-3484.7554L13524.5365,-3484.737L13524.5386,-3484.7354L13524.5562,-3484.719L13524.5794,-3484.6919L13524.5993,-3484.673L13524.6143,-3484.6619L13524.6424,-3484.646L13524.6898,-3484.6214L13524.7209,-3484.6063L13524.7306,-3484.5992L13524.7458,-3484.5849L13524.7675,-3484.558L13524.7703,-3484.5482L13524.774,-3484.5348L13524.8326,-3484.5115L13524.8826,-3484.4954L13524.9405,-3484.4727L13525,-3484.4534L13525.0027,-3484.4525L13525.0216,-3484.4507L13525.044,-3484.4554L13525.0976,-3484.471L13525.1214,-3484.4775L13525.1345,-3484.4817L13525.1453,-3484.4805L13525.1605,-3484.4638L13525.1823,-3484.4328L13525.2028,-3484.4006L13525.218,-3484.3898L13525.2221,-3484.3871L13525.2296,-3484.3821L13525.2441,-3484.3761L13525.2672,-3484.3701L13525.2875,-3484.3684L13525.3092,-3484.3689L13525.3606,-3484.3725L13525.3794,-3484.3701L13525.4072,-3484.3666L13525.4224,-3484.3642L13525.4383,-3484.3576L13525.4654,-3484.3493L13525.5009,-3484.3439L13525.5218,-3484.3415L13525.5407,-3484.3415L13525.5797,-3484.3368L13525.5836,-3484.344L13525.5887,-3484.3535L13525.6336,-3484.3368L13525.6559,-3484.3306L13525.6819,-3484.3233L13525.7188,-3484.3114L13525.7333,-3484.297L13525.7535,-3484.275L13525.7687,-3484.2642L13525.7962,-3484.2553L13525.8114,-3484.2505L13525.8333,-3484.2417L13525.8479,-3484.2358L13525.8609,-3484.2281L13525.8718,-3484.2209L13525.8827,-3484.2137L13525.8993,-3484.2078L13525.9347,-3484.1953L13525.9439,-3484.193L13525.9543,-3484.1905L13525.9709,-3484.1911L13525.9883,-3484.1881L13526.0183,-3484.1869L13526.0371,-3484.1893L13526.0523,-3484.1941L13526.0646,-3484.2042L13526.0769,-3484.2191L13526.082,-3484.2293L13526.0912,-3484.2441L13526.0981,-3484.2552L13526.0986,-3484.256L13526.1083,-3484.2718L13526.125,-3484.2873L13526.1453,-3484.3016L13526.1576,-3484.3088L13526.1832,-3484.3203L13526.2034,-3484.3304L13526.2092,-3484.3406L13526.2092,-3484.3495L13526.2063,-3484.3656L13526.2013,-3484.377L13526.1998,-3484.3925L13526.1984,-3484.4002L13526.2027,-3484.4092L13526.2346,-3484.4324L13526.2647,-3484.4529L13526.2814,-3484.4708L13526.2944,-3484.4875L13526.3053,-3484.5143L13526.3111,-3484.5336L13526.3183,-3484.5455L13526.3291,-3484.5563L13526.3432,-3484.5662L13526.3606,-3484.5745L13526.3672,-3484.5776Z"/>
<path content="兵庫県,,,三田市,,28219" xlink:title="兵庫県" d="M13526.3672,-3489.2578L13526.3672,-3488.4857L13526.3033,-3488.4805L13526.2867,-3488.4811L13526.2715,-3488.4853L13526.2444,-3488.5008L13526.2285,-3488.5073L13526.2126,-3488.5109L13526.1894,-3488.5163L13526.1728,-3488.5169L13526.154,-3488.5151L13526.1395,-3488.5115L13526.1146,-3488.5032L13526.0914,-3488.4912L13526.0654,-3488.4769L13526.028,-3488.4514L13525.9768,-3488.4163L13525.95,-3488.3984L13525.929,-3488.3841L13525.9121,-3488.3754L13525.8933,-3488.367L13525.865,-3488.3563L13525.8553,-3488.3522L13525.8441,-3488.3474L13525.8333,-3488.344L13525.8158,-3488.3384L13525.8028,-3488.3336L13525.8024,-3488.3333L13525.7926,-3488.3247L13525.7825,-3488.3122L13525.7693,-3488.2827L13525.7586,-3488.2589L13525.7446,-3488.2287L13525.7337,-3488.214L13525.7243,-3488.2063L13525.7106,-3488.1997L13525.6889,-3488.1907L13525.6512,-3488.1764L13525.6302,-3488.1699L13525.6114,-3488.1639L13525.573,-3488.146L13525.5402,-3488.1293L13525.5228,-3488.1192L13525.5127,-3488.115L13525.5033,-3488.1066L13525.4948,-3488.0975L13525.4854,-3488.0874L13525.4687,-3488.0731L13525.4267,-3488.048L13525.3885,-3488.0244L13525.3743,-3488.0156L13525.3606,-3488.0085L13525.3432,-3488.0037L13525.3179,-3488.0019L13525.2984,-3488.0031L13525.2897,-3488.0037L13525.2803,-3488.0007L13525.2672,-3487.9953L13525.2588,-3487.9874L13525.2508,-3487.9791L13525.2407,-3487.9659L13525.232,-3487.954L13525.2233,-3487.9385L13525.2153,-3487.9307L13525.2052,-3487.9236L13525.1929,-3487.9182L13525.1412,-3487.8967L13525.0847,-3487.8776L13525.0623,-3487.8716L13525.0507,-3487.8782L13525.0384,-3487.8824L13525.029,-3487.8812L13525.02,-3487.8779L13525.0114,-3487.8713L13525.0059,-3487.8639L13525.0034,-3487.8606L13525,-3487.8574L13524.9904,-3487.8486L13524.9759,-3487.8379L13524.9607,-3487.8295L13524.9447,-3487.8242L13524.9296,-3487.8218L13524.918,-3487.823L13524.9078,-3487.8212L13524.8977,-3487.8146L13524.89,-3487.8118L13524.8272,-3487.7884L13524.8142,-3487.7836L13524.7975,-3487.8027L13524.7827,-3487.8176L13524.7719,-3487.8229L13524.7574,-3487.8283L13524.7503,-3487.8278L13524.7415,-3487.8271L13524.721,-3487.8211L13524.7043,-3487.8219L13524.6884,-3487.8257L13524.6687,-3487.8414L13524.643,-3487.8572L13524.6265,-3487.8697L13524.616,-3487.8664L13524.5554,-3487.8214L13524.4922,-3487.7763L13524.4742,-3487.7682L13524.4658,-3487.7644L13524.4527,-3487.7638L13524.4408,-3487.772L13524.4303,-3487.7834L13524.4006,-3487.8132L13524.3921,-3487.8165L13524.3769,-3487.8121L13524.3605,-3487.8078L13524.344,-3487.8029L13524.3431,-3487.8026L13524.3073,-3487.7892L13524.2973,-3487.7855L13524.2814,-3487.7877L13524.2709,-3487.7969L13524.2669,-3487.8099L13524.2399,-3487.8338L13524.209,-3487.8354L13524.1938,-3487.8354L13524.1794,-3487.8311L13524.1667,-3487.8271L13524.1655,-3487.8268L13524.1524,-3487.8197L13524.1405,-3487.8083L13524.128,-3487.8007L13524.1036,-3487.7969L13524.0924,-3487.7964L13524.0793,-3487.7931L13524.0674,-3487.7866L13524.0489,-3487.7779L13524.0206,-3487.76L13523.9943,-3487.7416L13523.9791,-3487.7329L13523.9653,-3487.7236L13523.9488,-3487.7149L13523.9192,-3487.7046L13523.9061,-3487.7025L13523.8876,-3487.7036L13523.8659,-3487.7041L13523.8454,-3487.7106L13523.8323,-3487.7133L13523.8211,-3487.7149L13523.8,-3487.7182L13523.7763,-3487.7176L13523.7467,-3487.7127L13523.7302,-3487.7111L13523.7183,-3487.7127L13523.7032,-3487.7122L13523.6861,-3487.7073L13523.6591,-3487.6954L13523.634,-3487.684L13523.6149,-3487.6769L13523.6037,-3487.6688L13523.5925,-3487.6606L13523.5788,-3487.6516L13523.5701,-3487.646L13523.5504,-3487.6351L13523.5412,-3487.6281L13523.5299,-3487.6199L13523.5247,-3487.6161L13523.5115,-3487.6118L13523.5058,-3487.6101L13523.4904,-3487.6053L13523.4786,-3487.595L13523.4779,-3487.5863L13523.476,-3487.5564L13523.4661,-3487.5402L13523.4529,-3487.5309L13523.4357,-3487.5188L13523.4351,-3487.5184L13523.4169,-3487.5L13523.3976,-3487.4804L13523.3943,-3487.475L13523.3891,-3487.4528L13523.3831,-3487.4376L13523.3746,-3487.4104L13523.3337,-3487.3784L13523.3333,-3487.3782L13523.3146,-3487.3659L13523.2995,-3487.3594L13523.2824,-3487.3513L13523.254,-3487.3393L13523.2178,-3487.3312L13523.1895,-3487.3252L13523.1704,-3487.3236L13523.1493,-3487.3219L13523.1019,-3487.3138L13523.092,-3487.3138L13523.0789,-3487.3219L13523.0617,-3487.3301L13523.042,-3487.3339L13523.0229,-3487.3366L13522.9821,-3487.341L13522.9715,-3487.3421L13522.9623,-3487.3356L13522.9484,-3487.3279L13522.934,-3487.3187L13522.9228,-3487.3073L13522.8846,-3487.2742L13522.8783,-3487.2672L13522.8675,-3487.2552L13522.8563,-3487.2498L13522.8359,-3487.2438L13522.8181,-3487.2454L13522.7759,-3487.2531L13522.7542,-3487.2666L13522.739,-3487.271L13522.7206,-3487.2845L13522.7002,-3487.2927L13522.6429,-3487.2921L13522.6284,-3487.3106L13522.6185,-3487.3285L13522.608,-3487.3415L13522.5764,-3487.3736L13522.5,-3487.3892L13522.4978,-3487.3897L13522.4822,-3487.3964L13522.47,-3487.4017L13522.4386,-3487.4154L13522.4374,-3487.4159L13522.4223,-3487.424L13522.4216,-3487.4246L13522.4117,-3487.4332L13522.3946,-3487.4414L13522.3516,-3487.4532L13522.3251,-3487.4605L13522.3057,-3487.4658L13522.2326,-3487.4962L13522.2144,-3487.5L13522.1879,-3487.5055L13522.1734,-3487.5038L13522.1501,-3487.5L13522.1108,-3487.4935L13522.0864,-3487.4881L13522.07,-3487.4903L13522.0568,-3487.4984L13522.0547,-3487.5L13522.0265,-3487.5212L13521.9943,-3487.5397L13521.9778,-3487.5505L13521.958,-3487.5581L13521.931,-3487.556L13521.9166,-3487.5549L13521.8968,-3487.5603L13521.8703,-3487.5622L13521.8381,-3487.5646L13521.8085,-3487.5668L13521.7987,-3487.5576L13521.7848,-3487.5456L13521.7749,-3487.5424L13521.7486,-3487.5359L13521.7348,-3487.5299L13521.7117,-3487.5207L13521.6959,-3487.5126L13521.6797,-3487.5L13521.6755,-3487.4968L13521.6667,-3487.4936L13521.665,-3487.493L13521.6406,-3487.4876L13521.6215,-3487.4854L13521.5978,-3487.4871L13521.5883,-3487.4881L13521.5517,-3487.4919L13521.5495,-3487.4926L13521.5363,-3487.4965L13521.5248,-3487.5L13521.5227,-3487.5006L13521.5122,-3487.5071L13521.4931,-3487.5169L13521.4615,-3487.5511L13521.4523,-3487.5565L13521.4345,-3487.5652L13521.4174,-3487.5696L13521.4022,-3487.5793L13521.3824,-3487.6054L13521.3686,-3487.6151L13521.3429,-3487.6292L13521.3271,-3487.6385L13521.3114,-3487.6504L13521.2916,-3487.6743L13521.2774,-3487.6994L13521.2692,-3487.7139L13521.2683,-3487.7166L13521.2649,-3487.7262L13521.2587,-3487.7443L13521.2514,-3487.7649L13521.2422,-3487.7975L13521.2349,-3487.8116L13521.2284,-3487.8214L13521.2126,-3487.8301L13521.1981,-3487.829L13521.1954,-3487.8288L13521.1539,-3487.8252L13521.1394,-3487.8241L13521.1072,-3487.8301L13521.0855,-3487.8371L13521.0736,-3487.8431L13521.0427,-3487.848L13521.0255,-3487.8474L13521.0097,-3487.8453L13520.9906,-3487.8371L13520.9768,-3487.8263L13520.9564,-3487.8127L13520.9258,-3487.7911L13520.9103,-3487.7801L13520.8872,-3487.7628L13520.8727,-3487.753L13520.8333,-3487.7242L13520.8082,-3487.7058L13520.7917,-3487.6977L13520.7733,-3487.7015L13520.7562,-3487.7069L13520.7399,-3487.7101L13520.7147,-3487.715L13520.7041,-3487.7319L13520.6903,-3487.7444L13520.6699,-3487.7536L13520.6613,-3487.7547L13520.6218,-3487.7438L13520.5877,-3487.7422L13520.5876,-3487.7422L13520.5711,-3487.7367L13520.5573,-3487.734L13520.5448,-3487.7248L13520.5401,-3487.7168L13520.525,-3487.6912L13520.502,-3487.6906L13520.4835,-3487.6874L13520.4691,-3487.6803L13520.4611,-3487.6752L13520.4506,-3487.6684L13520.4269,-3487.645L13520.4144,-3487.6401L13520.4032,-3487.6407L13520.3827,-3487.6418L13520.3538,-3487.638L13520.334,-3487.6358L13520.2761,-3487.6293L13520.253,-3487.6228L13520.2359,-3487.6168L13520.2221,-3487.6097L13520.1996,-3487.6002L13520.199,-3487.6L13520.1602,-3487.5951L13520.1365,-3487.5962L13520.1213,-3487.5994L13520.1062,-3487.6081L13520.0936,-3487.6222L13520.0818,-3487.6396L13520.0548,-3487.6434L13520.0318,-3487.6472L13520.0127,-3487.6488L13520.0028,-3487.6451L13520,-3487.6434L13519.9909,-3487.638L13519.9751,-3487.6358L13519.9672,-3487.638L13519.9534,-3487.6467L13519.9389,-3487.651L13519.9211,-3487.6575L13519.9053,-3487.6651L13519.8888,-3487.6695L13519.877,-3487.6749L13519.8559,-3487.6896L13519.8329,-3487.7015L13519.8177,-3487.7075L13519.7973,-3487.7178L13519.7827,-3487.7243L13519.7598,-3487.7346L13519.7552,-3487.7416L13519.7571,-3487.7498L13519.7664,-3487.7661L13519.7716,-3487.7775L13519.7809,-3487.7916L13519.7861,-3487.8051L13519.7861,-3487.8187L13519.7775,-3487.8393L13519.7716,-3487.8589L13519.767,-3487.8752L13519.7657,-3487.8898L13519.7565,-3487.9207L13519.7459,-3487.9376L13519.734,-3487.9458L13519.7229,-3487.9533L13519.7036,-3487.9652L13519.7018,-3487.9664L13519.6971,-3487.9683L13519.6794,-3487.9756L13519.6656,-3487.9745L13519.6537,-3487.9685L13519.6136,-3487.9544L13519.5971,-3487.9511L13519.5839,-3487.9468L13519.5721,-3487.9457L13519.5622,-3487.9549L13519.5418,-3487.9756L13519.5273,-3487.9902L13519.5207,-3488.0011L13519.5154,-3488.0147L13519.4996,-3488.032L13519.4753,-3488.0499L13519.4568,-3488.0619L13519.4509,-3488.0675L13519.4436,-3488.0744L13519.4272,-3488.0831L13519.4101,-3488.0901L13519.3929,-3488.0939L13519.3745,-3488.0912L13519.3449,-3488.0825L13519.3185,-3488.0716L13519.3027,-3488.0635L13519.301,-3488.0629L13519.283,-3488.0564L13519.2237,-3488.0434L13519.223,-3488.0435L13519.2208,-3488.0438L13519.1954,-3488.0472L13519.1769,-3488.0516L13519.1697,-3488.0575L13519.1671,-3488.063L13519.1667,-3488.0667L13519.1644,-3488.0885L13519.1604,-3488.1053L13519.14,-3488.1286L13519.1275,-3488.1427L13519.1257,-3488.1454L13519.1196,-3488.1541L13519.1058,-3488.1655L13519.0959,-3488.1786L13519.0781,-3488.2046L13519.061,-3488.2203L13519.0498,-3488.2301L13519.034,-3488.2372L13519.0057,-3488.2544L13519.0037,-3488.2556L13518.9879,-3488.2724L13518.9708,-3488.2855L13518.9543,-3488.2942L13518.9438,-3488.2996L13518.9254,-3488.3083L13518.9036,-3488.3197L13518.8883,-3488.3333L13518.8878,-3488.3338L13518.8759,-3488.3555L13518.8733,-3488.3718L13518.8674,-3488.3929L13518.8654,-3488.4163L13518.8667,-3488.4445L13518.8661,-3488.4651L13518.8516,-3488.4782L13518.8417,-3488.4847L13518.8279,-3488.4912L13518.8141,-3488.4923L13518.7996,-3488.4879L13518.7732,-3488.4841L13518.7475,-3488.4825L13518.7287,-3488.4831L13518.7284,-3488.4831L13518.7113,-3488.4847L13518.6836,-3488.482L13518.6488,-3488.4709L13518.6461,-3488.47L13518.6145,-3488.4613L13518.6111,-3488.4629L13518.6026,-3488.4668L13518.598,-3488.47L13518.5921,-3488.482L13518.5967,-3488.4917L13518.6086,-3488.5124L13518.6125,-3488.5182L13518.6178,-3488.5259L13518.6191,-3488.552L13518.6191,-3488.5644L13518.6158,-3488.578L13518.6125,-3488.6079L13518.6061,-3488.6254L13518.6056,-3488.6267L13518.598,-3488.6475L13518.5901,-3488.6578L13518.5848,-3488.6687L13518.5829,-3488.6833L13518.5769,-3488.6936L13518.5611,-3488.711L13518.5572,-3488.7153L13518.5341,-3488.7294L13518.5311,-3488.7309L13518.5242,-3488.7343L13518.5196,-3488.7365L13518.5012,-3488.7441L13518.4742,-3488.7517L13518.4419,-3488.7626L13518.4176,-3488.7794L13518.4031,-3488.7886L13518.3814,-3488.7973L13518.3339,-3488.8119L13518.3333,-3488.8125L13518.3241,-3488.8212L13518.3056,-3488.8364L13518.2924,-3488.845L13518.2793,-3488.8483L13518.2424,-3488.8591L13518.1877,-3488.8657L13518.1666,-3488.8684L13518.1495,-3488.8678L13518.1278,-3488.8662L13518.1014,-3488.8255L13518.0883,-3488.8119L13518.0764,-3488.8005L13518.0718,-3488.794L13518.0606,-3488.7837L13518.0501,-3488.7799L13518.0329,-3488.781L13518.0172,-3488.7783L13517.9947,-3488.7723L13517.9776,-3488.7701L13517.9546,-3488.768L13517.8828,-3488.7696L13517.8591,-3488.7712L13517.8374,-3488.7783L13517.8216,-3488.7848L13517.7945,-3488.7951L13517.7748,-3488.8L13517.7484,-3488.8043L13517.7267,-3488.8043L13517.7109,-3488.8059L13517.6924,-3488.8076L13517.6569,-3488.8081L13517.6239,-3488.8114L13517.6016,-3488.8136L13517.5877,-3488.8174L13517.5781,-3488.8218L13517.5781,-3489.2578Z"/>
</g>
</svg>
