<?xml version="1.0" encoding="UTF-8"?>
<svg  xmlns="http://www.w3.org/2000/svg" xmlns:xlink="http://www.w3.org/1999/xlink" xmlns:go="http://purl.org/svgmap/profile" property="geometry,N03_001,N03_002,N03_003,N03_004,N03_005,N03_007" viewBox="13460.44921875 -3566.162109375 2.197265625 2.197265625" go:dataArea="13460.44921875 -3566.162109375 2.197265625 2.197265625" >
<metadata>
 <rdf:RDF xmlns:rdf="http://www.w3.org/1999/02/22-rdf-syntax-ns#" xmlns:crs="http://opengis.org/xmldtds/transformations.dtd" xmlns:svg="http://www.w3.org/svg" >
  <rdf:Description>
   <crs:CoordinateReferenceSystem rdf:resource="http://purl.org/crs/84" svg:transform="matrix(100.0,0.0,0.0,-100.0,0.0,0.0)" />
  </rdf:Description>
 </rdf:RDF>
</metadata>
<globalCoordinateSystem srsName="http://purl.org/crs/84" transform="matrix(100.0,0.0,0.0,-100.0,0.0,0.0)" />
<defs>
 <g id="p0" >
  <circle cx="0.0" cy="0.0" r="3" stroke="green" stroke-width="2.0" vector-effect="non-scaling-stroke" />
 </g>
</defs>
<g fill="#0000ff" fill-rule="evenodd" opacity="0.5" >
<path content="兵庫県,,美方郡,香美町,,28585" xlink:title="兵庫県" d="M13462.6465,-3563.9648L13460.4492,-3563.9648L13460.4492,-3565.5299L13460.4494,-3565.5302L13460.4502,-3565.5312L13460.4511,-3565.5315L13460.4513,-3565.532L13460.4527,-3565.5329L13460.4529,-3565.5352L13460.4534,-3565.5363L13460.4538,-3565.5369L13460.4554,-3565.5391L13460.4553,-3565.5406L13460.4564,-3565.5416L13460.4573,-3565.5427L13460.4581,-3565.5427L13460.459,-3565.5447L13460.4601,-3565.5459L13460.4616,-3565.5465L13460.464,-3565.5468L13460.466,-3565.5483L13460.4673,-3565.5486L13460.4688,-3565.5484L13460.4715,-3565.5476L13460.4725,-3565.5479L13460.4727,-3565.5484L13460.4715,-3565.5523L13460.4711,-3565.5529L13460.4708,-3565.554L13460.4708,-3565.5552L13460.4713,-3565.5557L13460.4719,-3565.5572L13460.4727,-3565.5583L13460.4743,-3565.5616L13460.4749,-3565.5637L13460.477,-3565.5657L13460.4733,-3565.5685L13460.4723,-3565.5695L13460.4712,-3565.5702L13460.4698,-3565.5708L13460.4687,-3565.5716L13460.4681,-3565.5727L13460.4647,-3565.5748L13460.4644,-3565.5758L13460.4646,-3565.5769L13460.4653,-3565.5779L13460.4665,-3565.5788L13460.4679,-3565.5795L13460.4691,-3565.5799L13460.4705,-3565.5808L13460.4719,-3565.5808L13460.4733,-3565.5805L13460.4775,-3565.5806L13460.4788,-3565.58L13460.4802,-3565.5798L13460.4816,-3565.5799L13460.483,-3565.5796L13460.4842,-3565.5787L13460.4849,-3565.5776L13460.4861,-3565.5772L13460.4875,-3565.577L13460.4888,-3565.5762L13460.4905,-3565.5745L13460.4914,-3565.5739L13460.4928,-3565.5741L13460.4951,-3565.575L13460.4978,-3565.5763L13460.4991,-3565.5764L13460.5007,-3565.5762L13460.5044,-3565.575L13460.5056,-3565.574L13460.5069,-3565.5735L13460.5096,-3565.5728L13460.5121,-3565.5717L13460.5124,-3565.5708L13460.5149,-3565.5707L13460.5163,-3565.5715L13460.5166,-3565.5722L13460.518,-3565.5729L13460.5203,-3565.5741L13460.5214,-3565.5748L13460.5217,-3565.5752L13460.5254,-3565.5782L13460.5272,-3565.5784L13460.5279,-3565.5774L13460.5279,-3565.5762L13460.5284,-3565.5753L13460.5294,-3565.5746L13460.5303,-3565.5744L13460.5343,-3565.5719L13460.5371,-3565.5715L13460.538,-3565.571L13460.5389,-3565.5702L13460.5401,-3565.5679L13460.541,-3565.5673L13460.5419,-3565.5686L13460.5417,-3565.5709L13460.5422,-3565.5731L13460.5423,-3565.5739L13460.5426,-3565.5745L13460.5436,-3565.5749L13460.5451,-3565.5748L13460.5478,-3565.5752L13460.5491,-3565.5746L13460.5499,-3565.5737L13460.5503,-3565.5726L13460.5501,-3565.5714L13460.5505,-3565.5704L13460.5506,-3565.5693L13460.5501,-3565.5681L13460.5511,-3565.5676L13460.5525,-3565.5676L13460.5537,-3565.5671L13460.5545,-3565.5661L13460.5559,-3565.5657L13460.5573,-3565.5656L13460.5587,-3565.5657L13460.5601,-3565.5654L13460.5613,-3565.5644L13460.5615,-3565.5633L13460.5602,-3565.5614L13460.5605,-3565.5603L13460.5603,-3565.558L13460.5606,-3565.557L13460.5602,-3565.556L13460.5606,-3565.555L13460.5618,-3565.5541L13460.563,-3565.553L13460.5657,-3565.5542L13460.5685,-3565.5543L13460.5713,-3565.5554L13460.5727,-3565.5558L13460.5735,-3565.5554L13460.5767,-3565.5558L13460.5782,-3565.5561L13460.581,-3565.5564L13460.5852,-3565.5559L13460.5858,-3565.5565L13460.5865,-3565.5566L13460.587,-3565.5558L13460.5879,-3565.5549L13460.589,-3565.5529L13460.5889,-3565.55L13460.5886,-3565.5492L13460.5886,-3565.5482L13460.5896,-3565.5475L13460.591,-3565.5473L13460.5925,-3565.5474L13460.5937,-3565.547L13460.5951,-3565.5468L13460.596,-3565.5461L13460.5974,-3565.546L13460.5988,-3565.5456L13460.6035,-3565.5463L13460.6052,-3565.5463L13460.6064,-3565.547L13460.6082,-3565.548L13460.6093,-3565.5493L13460.6105,-3565.5495L13460.6133,-3565.5498L13460.6157,-3565.5501L13460.6164,-3565.5507L13460.6179,-3565.5519L13460.6193,-3565.5524L13460.6205,-3565.5528L13460.6228,-3565.5528L13460.6227,-3565.553L13460.6233,-3565.5536L13460.6243,-3565.5539L13460.6259,-3565.5539L13460.6266,-3565.5543L13460.6265,-3565.5548L13460.6262,-3565.557L13460.6267,-3565.5572L13460.6272,-3565.5581L13460.6267,-3565.5581L13460.6272,-3565.5592L13460.627,-3565.5602L13460.6273,-3565.5614L13460.626,-3565.5648L13460.6265,-3565.5657L13460.6265,-3565.5665L13460.6277,-3565.568L13460.6273,-3565.5708L13460.6285,-3565.572L13460.629,-3565.573L13460.629,-3565.5756L13460.6292,-3565.576L13460.6297,-3565.5764L13460.6304,-3565.5768L13460.6315,-3565.5768L13460.632,-3565.5772L13460.6323,-3565.5779L13460.6331,-3565.5785L13460.6342,-3565.5789L13460.635,-3565.5791L13460.6353,-3565.5796L13460.6367,-3565.5808L13460.6386,-3565.5812L13460.642,-3565.5808L13460.6432,-3565.5812L13460.6439,-3565.5824L13460.6439,-3565.5835L13460.6452,-3565.5844L13460.6466,-3565.5851L13460.6507,-3565.5853L13460.6513,-3565.5862L13460.6541,-3565.5862L13460.6554,-3565.5864L13460.6562,-3565.5871L13460.6576,-3565.5875L13460.659,-3565.5874L13460.6616,-3565.5863L13460.6622,-3565.5856L13460.6629,-3565.5845L13460.6626,-3565.5836L13460.6642,-3565.5816L13460.665,-3565.5794L13460.6657,-3565.5785L13460.6669,-3565.578L13460.6672,-3565.577L13460.668,-3565.576L13460.6672,-3565.5741L13460.6648,-3565.5724L13460.6634,-3565.5716L13460.6606,-3565.5715L13460.6595,-3565.5719L13460.6588,-3565.5718L13460.6588,-3565.5705L13460.6593,-3565.5696L13460.6604,-3565.5688L13460.6616,-3565.5685L13460.6628,-3565.5674L13460.664,-3565.566L13460.6647,-3565.5649L13460.6661,-3565.564L13460.667,-3565.5629L13460.6681,-3565.5623L13460.6682,-3565.5617L13460.6693,-3565.5609L13460.6707,-3565.5607L13460.6719,-3565.5601L13460.6731,-3565.5593L13460.6737,-3565.5581L13460.6738,-3565.557L13460.6763,-3565.5551L13460.6766,-3565.554L13460.6766,-3565.5528L13460.6773,-3565.5518L13460.6785,-3565.5514L13460.6808,-3565.55L13460.6816,-3565.549L13460.6826,-3565.5467L13460.6833,-3565.5457L13460.6846,-3565.545L13460.6874,-3565.5448L13460.6887,-3565.5449L13460.6899,-3565.5446L13460.6908,-3565.5438L13460.6918,-3565.5432L13460.6917,-3565.5421L13460.6952,-3565.5384L13460.6959,-3565.5363L13460.6957,-3565.5352L13460.6964,-3565.534L13460.6965,-3565.533L13460.6959,-3565.532L13460.6958,-3565.5302L13460.6948,-3565.5295L13460.6939,-3565.5298L13460.6925,-3565.5293L13460.6916,-3565.5286L13460.6913,-3565.5276L13460.6911,-3565.5253L13460.6907,-3565.5242L13460.6909,-3565.523L13460.6907,-3565.5219L13460.6898,-3565.5209L13460.6891,-3565.5202L13460.6887,-3565.5196L13460.6886,-3565.5187L13460.6891,-3565.5179L13460.6904,-3565.5169L13460.691,-3565.5146L13460.6917,-3565.5136L13460.6931,-3565.5127L13460.6954,-3565.5107L13460.6967,-3565.5084L13460.6993,-3565.5069L13460.7005,-3565.506L13460.7012,-3565.505L13460.7014,-3565.5038L13460.7021,-3565.5027L13460.7033,-3565.5017L13460.7038,-3565.5005L13460.7036,-3565.4995L13460.7036,-3565.4977L13460.7047,-3565.4965L13460.7052,-3565.4954L13460.7049,-3565.4937L13460.7031,-3565.4897L13460.703,-3565.4885L13460.7043,-3565.4865L13460.7076,-3565.4849L13460.7092,-3565.4834L13460.7092,-3565.4826L13460.71,-3565.4818L13460.7106,-3565.4806L13460.7114,-3565.4793L13460.7116,-3565.4782L13460.7113,-3565.4771L13460.7114,-3565.4748L13460.7107,-3565.4737L13460.7096,-3565.4723L13460.7096,-3565.4713L13460.7101,-3565.4703L13460.7121,-3565.4696L13460.7142,-3565.4695L13460.7174,-3565.4677L13460.7196,-3565.4659L13460.7208,-3565.4659L13460.7222,-3565.4654L13460.7231,-3565.4646L13460.7244,-3565.4616L13460.7252,-3565.4601L13460.7266,-3565.4595L13460.7279,-3565.4586L13460.7291,-3565.4586L13460.7303,-3565.4578L13460.7316,-3565.4568L13460.7334,-3565.4546L13460.734,-3565.4535L13460.7342,-3565.4514L13460.735,-3565.45L13460.7361,-3565.4491L13460.7366,-3565.448L13460.7367,-3565.4468L13460.7366,-3565.4445L13460.7369,-3565.4432L13460.7381,-3565.4425L13460.7396,-3565.44L13460.7388,-3565.4386L13460.7388,-3565.4375L13460.7397,-3565.4364L13460.7399,-3565.4354L13460.739,-3565.4358L13460.74,-3565.4341L13460.7388,-3565.4332L13460.7374,-3565.4332L13460.736,-3565.4328L13460.7362,-3565.4318L13460.7374,-3565.4309L13460.7383,-3565.4298L13460.7386,-3565.4286L13460.7398,-3565.4276L13460.7412,-3565.4268L13460.7423,-3565.4255L13460.7438,-3565.4233L13460.7447,-3565.4223L13460.7451,-3565.4213L13460.7444,-3565.4203L13460.7442,-3565.4194L13460.7445,-3565.4171L13460.744,-3565.416L13460.7428,-3565.4152L13460.7422,-3565.4146L13460.7407,-3565.4144L13460.7398,-3565.4144L13460.7388,-3565.4137L13460.7383,-3565.4131L13460.7379,-3565.4116L13460.7366,-3565.4103L13460.7362,-3565.41L13460.7352,-3565.4098L13460.7342,-3565.4088L13460.7331,-3565.4076L13460.7321,-3565.4071L13460.7301,-3565.4053L13460.7292,-3565.4043L13460.7282,-3565.4039L13460.7277,-3565.4013L13460.7271,-3565.4002L13460.7262,-3565.3992L13460.725,-3565.3988L13460.7248,-3565.3979L13460.7241,-3565.3969L13460.7237,-3565.396L13460.7236,-3565.3958L13460.7236,-3565.3946L13460.7227,-3565.3935L13460.7214,-3565.3928L13460.7199,-3565.3923L13460.7189,-3565.3912L13460.7184,-3565.3894L13460.7184,-3565.3884L13460.7178,-3565.3876L13460.7166,-3565.3858L13460.7201,-3565.3836L13460.7209,-3565.3827L13460.7223,-3565.3823L13460.7237,-3565.3825L13460.7265,-3565.3822L13460.7279,-3565.3816L13460.7286,-3565.381L13460.7299,-3565.3804L13460.7297,-3565.3787L13460.7311,-3565.3783L13460.7339,-3565.378L13460.7369,-3565.3777L13460.7383,-3565.3774L13460.7395,-3565.3768L13460.7405,-3565.3758L13460.7411,-3565.3749L13460.7437,-3565.374L13460.7447,-3565.3732L13460.7454,-3565.3724L13460.7453,-3565.3717L13460.744,-3565.3708L13460.7426,-3565.3704L13460.7397,-3565.3702L13460.7368,-3565.371L13460.7353,-3565.3713L13460.7344,-3565.3705L13460.7356,-3565.3695L13460.736,-3565.3684L13460.7351,-3565.3675L13460.734,-3565.3668L13460.7335,-3565.3658L13460.7335,-3565.3648L13460.7331,-3565.3638L13460.7337,-3565.3633L13460.7344,-3565.363L13460.7354,-3565.362L13460.7361,-3565.3608L13460.7363,-3565.36L13460.737,-3565.3598L13460.7385,-3565.3582L13460.7399,-3565.3575L13460.7406,-3565.3565L13460.7421,-3565.3563L13460.7448,-3565.3578L13460.7454,-3565.3589L13460.7484,-3565.3618L13460.7498,-3565.3619L13460.7526,-3565.3624L13460.754,-3565.3625L13460.7568,-3565.3615L13460.7581,-3565.3607L13460.7598,-3565.359L13460.7625,-3565.3589L13460.7638,-3565.3583L13460.7648,-3565.3575L13460.7661,-3565.3567L13460.7668,-3565.356L13460.7681,-3565.3552L13460.7708,-3565.3541L13460.7715,-3565.353L13460.7725,-3565.3521L13460.775,-3565.3504L13460.7755,-3565.3493L13460.7757,-3565.3483L13460.7767,-3565.3473L13460.7764,-3565.3464L13460.7712,-3565.3434L13460.7701,-3565.3431L13460.7687,-3565.3431L13460.7658,-3565.3424L13460.7651,-3565.3426L13460.7627,-3565.3425L13460.7624,-3565.342L13460.7614,-3565.3413L13460.761,-3565.3401L13460.76,-3565.3393L13460.7592,-3565.3389L13460.758,-3565.3388L13460.7586,-3565.3383L13460.7587,-3565.3374L13460.7594,-3565.3369L13460.7607,-3565.3365L13460.7617,-3565.3357L13460.7624,-3565.3348L13460.7623,-3565.334L13460.7634,-3565.3336L13460.7637,-3565.3324L13460.7648,-3565.3316L13460.7662,-3565.3311L13460.7684,-3565.329L13460.7691,-3565.328L13460.7705,-3565.3245L13460.77,-3565.3235L13460.7686,-3565.323L13460.7681,-3565.3207L13460.7653,-3565.3194L13460.7645,-3565.3185L13460.7644,-3565.3177L13460.7644,-3565.3167L13460.7638,-3565.3164L13460.7645,-3565.3158L13460.7647,-3565.3147L13460.7654,-3565.3135L13460.7664,-3565.3123L13460.7678,-3565.31L13460.7678,-3565.3089L13460.7675,-3565.3078L13460.7676,-3565.3066L13460.7675,-3565.3055L13460.7671,-3565.3044L13460.7662,-3565.3034L13460.7648,-3565.3027L13460.7621,-3565.3028L13460.7615,-3565.3021L13460.7601,-3565.3014L13460.7573,-3565.301L13460.7545,-3565.3016L13460.7531,-3565.3012L13460.7522,-3565.3001L13460.7508,-3565.2994L13460.7497,-3565.2985L13460.7494,-3565.2974L13460.748,-3565.2968L13460.747,-3565.2958L13460.746,-3565.2935L13460.7452,-3565.2923L13460.7431,-3565.2904L13460.7404,-3565.29L13460.7379,-3565.2883L13460.7364,-3565.2877L13460.7352,-3565.2868L13460.7347,-3565.2866L13460.7316,-3565.2861L13460.7281,-3565.2879L13460.7224,-3565.2928L13460.7191,-3565.2944L13460.7156,-3565.2959L13460.7114,-3565.2822L13460.7094,-3565.2826L13460.7152,-3565.3027L13460.7111,-3565.3055L13460.7003,-3565.3075L13460.6903,-3565.3075L13460.6778,-3565.3049L13460.66,-3565.2988L13460.6473,-3565.2928L13460.6308,-3565.2824L13460.6121,-3565.268L13460.6088,-3565.2639L13460.6079,-3565.2605L13460.6018,-3565.2532L13460.602,-3565.2512L13460.6044,-3565.2458L13460.6043,-3565.2392L13460.6006,-3565.2349L13460.5907,-3565.2299L13460.5778,-3565.2291L13460.564,-3565.2318L13460.5496,-3565.2402L13460.5465,-3565.2451L13460.5441,-3565.2454L13460.5399,-3565.2442L13460.5325,-3565.2386L13460.527,-3565.2306L13460.5231,-3565.2246L13460.5207,-3565.2155L13460.5192,-3565.2031L13460.5197,-3565.1905L13460.5237,-3565.1683L13460.5301,-3565.1549L13460.5412,-3565.142L13460.5514,-3565.1351L13460.5575,-3565.1349L13460.5681,-3565.1372L13460.5803,-3565.1398L13460.5914,-3565.1395L13460.5985,-3565.1395L13460.6069,-3565.1378L13460.6142,-3565.1352L13460.6218,-3565.1349L13460.6288,-3565.1352L13460.6353,-3565.1383L13460.6476,-3565.143L13460.6575,-3565.1439L13460.6686,-3565.1439L13460.6765,-3565.1434L13460.6882,-3565.1396L13460.6998,-3565.1321L13460.7186,-3565.1218L13460.7273,-3565.1178L13460.7407,-3565.1144L13460.7534,-3565.1103L13460.765,-3565.1078L13460.7653,-3565.1078L13460.7681,-3565.1075L13460.7705,-3565.1069L13460.7717,-3565.1062L13460.7729,-3565.1063L13460.7742,-3565.1053L13460.7752,-3565.1053L13460.7761,-3565.1059L13460.7773,-3565.1057L13460.7798,-3565.1024L13460.781,-3565.102L13460.7824,-3565.1018L13460.7841,-3565.1002L13460.7848,-3565.0991L13460.7848,-3565.0981L13460.7846,-3565.0976L13460.7848,-3565.0964L13460.7853,-3565.0956L13460.7857,-3565.0946L13460.7859,-3565.0934L13460.7857,-3565.0923L13460.786,-3565.0911L13460.7869,-3565.0903L13460.7874,-3565.0894L13460.7876,-3565.0883L13460.7864,-3565.088L13460.7862,-3565.0868L13460.7872,-3565.0858L13460.7879,-3565.086L13460.7883,-3565.0848L13460.7892,-3565.0838L13460.7892,-3565.0827L13460.7887,-3565.0799L13460.7888,-3565.0788L13460.7895,-3565.0778L13460.7898,-3565.0767L13460.7891,-3565.0757L13460.7894,-3565.0745L13460.7882,-3565.0729L13460.7885,-3565.0716L13460.7868,-3565.0702L13460.7863,-3565.0684L13460.7855,-3565.0677L13460.7841,-3565.0684L13460.7831,-3565.0687L13460.7817,-3565.0681L13460.7803,-3565.0681L13460.7793,-3565.0675L13460.7781,-3565.0671L13460.7767,-3565.0672L13460.7753,-3565.0675L13460.7746,-3565.0694L13460.7732,-3565.0694L13460.7721,-3565.0693L13460.7712,-3565.0683L13460.7716,-3565.0671L13460.7716,-3565.0658L13460.7711,-3565.0652L13460.7686,-3565.0642L13460.7674,-3565.0646L13460.7638,-3565.0617L13460.7637,-3565.062L13460.7617,-3565.0616L13460.7605,-3565.0608L13460.7594,-3565.0604L13460.7582,-3565.0611L13460.757,-3565.0616L13460.7559,-3565.0616L13460.7556,-3565.0606L13460.7547,-3565.0594L13460.7534,-3565.0591L13460.7512,-3565.0573L13460.7486,-3565.0569L13460.7482,-3565.0557L13460.7471,-3565.0554L13460.7472,-3565.0531L13460.7459,-3565.0523L13460.745,-3565.0514L13460.7438,-3565.051L13460.7426,-3565.0512L13460.7404,-3565.0498L13460.7376,-3565.0465L13460.7353,-3565.0449L13460.734,-3565.0443L13460.7332,-3565.042L13460.7306,-3565.0392L13460.7304,-3565.038L13460.7296,-3565.0369L13460.7292,-3565.0359L13460.7285,-3565.0347L13460.7278,-3565.0336L13460.7266,-3565.0329L13460.7257,-3565.0316L13460.7257,-3565.0306L13460.7252,-3565.0294L13460.7243,-3565.0286L13460.7232,-3565.028L13460.7222,-3565.0269L13460.7218,-3565.0257L13460.7195,-3565.0222L13460.7183,-3565.0216L13460.7179,-3565.0206L13460.7172,-3565.0194L13460.716,-3565.0187L13460.7153,-3565.0178L13460.7149,-3565.0156L13460.7137,-3565.0146L13460.713,-3565.0134L13460.7119,-3565.0126L13460.7114,-3565.0102L13460.7117,-3565.009L13460.7118,-3565.0068L13460.7105,-3565.0036L13460.7107,-3565.0023L13460.7116,-3565.0011L13460.7117,-3565L13460.7117,-3565L13460.7114,-3564.9989L13460.7103,-3564.9981L13460.7075,-3564.9976L13460.7072,-3564.9966L13460.7078,-3564.9943L13460.7075,-3564.9931L13460.7068,-3564.9921L13460.7057,-3564.9911L13460.7052,-3564.9901L13460.7052,-3564.989L13460.7056,-3564.9881L13460.7041,-3564.9863L13460.7041,-3564.9862L13460.7031,-3564.9814L13460.7043,-3564.9788L13460.7107,-3564.9754L13460.7171,-3564.9711L13460.7194,-3564.9652L13460.7191,-3564.9566L13460.7114,-3564.9327L13460.705,-3564.9258L13460.6994,-3564.9242L13460.6976,-3564.9187L13460.6891,-3564.912L13460.6853,-3564.9094L13460.6798,-3564.9066L13460.6742,-3564.9056L13460.6695,-3564.9037L13460.6675,-3564.9014L13460.6663,-3564.8966L13460.6686,-3564.8849L13460.6756,-3564.8761L13460.6866,-3564.8672L13460.6898,-3564.8656L13460.7004,-3564.8603L13460.7263,-3564.8519L13460.757,-3564.8487L13460.7909,-3564.8474L13460.8192,-3564.8476L13460.8333,-3564.8498L13460.8505,-3564.8525L13460.8611,-3564.8573L13460.8613,-3564.8577L13460.862,-3564.8585L13460.8642,-3564.8595L13460.8647,-3564.8604L13460.8654,-3564.8626L13460.8652,-3564.8639L13460.8657,-3564.865L13460.8668,-3564.866L13460.8687,-3564.8673L13460.8696,-3564.8686L13460.8698,-3564.8697L13460.8706,-3564.8707L13460.8707,-3564.8719L13460.8705,-3564.8729L13460.8712,-3564.8739L13460.8722,-3564.876L13460.8719,-3564.877L13460.8724,-3564.877L13460.871,-3564.8792L13460.8709,-3564.8798L13460.8718,-3564.8807L13460.8719,-3564.8819L13460.8705,-3564.8822L13460.8691,-3564.8827L13460.8696,-3564.8836L13460.8693,-3564.8846L13460.8688,-3564.8855L13460.8696,-3564.8861L13460.8697,-3564.8878L13460.8684,-3564.8887L13460.8684,-3564.8896L13460.8679,-3564.8905L13460.8672,-3564.89L13460.8677,-3564.8919L13460.8688,-3564.8932L13460.8688,-3564.8939L13460.8678,-3564.8941L13460.8695,-3564.8961L13460.8693,-3564.8972L13460.8695,-3564.8982L13460.8706,-3564.8993L13460.8697,-3564.9005L13460.8694,-3564.9026L13460.8697,-3564.9035L13460.8708,-3564.9043L13460.8722,-3564.9046L13460.873,-3564.9052L13460.8728,-3564.9078L13460.8752,-3564.9152L13460.8658,-3564.9199L13460.8885,-3564.9513L13460.8902,-3564.9504L13460.9036,-3564.9445L13460.9044,-3564.942L13460.9053,-3564.9407L13460.9062,-3564.9404L13460.9075,-3564.9405L13460.9076,-3564.9408L13460.9077,-3564.9431L13460.9079,-3564.9433L13460.9085,-3564.944L13460.9081,-3564.9457L13460.9086,-3564.9458L13460.9097,-3564.9462L13460.9098,-3564.9472L13460.9098,-3564.9483L13460.9098,-3564.95L13460.9106,-3564.9511L13460.9108,-3564.9515L13460.9104,-3564.9526L13460.9101,-3564.9535L13460.9105,-3564.9541L13460.9106,-3564.9551L13460.9106,-3564.9572L13460.911,-3564.958L13460.9114,-3564.9587L13460.911,-3564.9595L13460.9105,-3564.9609L13460.9105,-3564.9613L13460.9098,-3564.9623L13460.9094,-3564.9635L13460.9087,-3564.9642L13460.9075,-3564.965L13460.9073,-3564.9656L13460.9077,-3564.9746L13460.8901,-3564.9818L13460.8813,-3564.9854L13460.8855,-3564.9907L13460.8902,-3564.9886L13460.9107,-3564.979L13460.9138,-3564.9772L13460.9168,-3564.9771L13460.9182,-3564.9779L13460.921,-3564.9784L13460.9234,-3564.9783L13460.9241,-3564.9787L13460.9251,-3564.9805L13460.9264,-3564.9805L13460.9291,-3564.9809L13460.9303,-3564.9808L13460.9312,-3564.9803L13460.932,-3564.981L13460.9338,-3564.9819L13460.9343,-3564.9826L13460.9354,-3564.9825L13460.9378,-3564.9838L13460.9396,-3564.9849L13460.9417,-3564.9857L13460.942,-3564.9867L13460.9435,-3564.9873L13460.9446,-3564.9881L13460.9459,-3564.9883L13460.9471,-3564.9879L13460.9485,-3564.9879L13460.9511,-3564.9895L13460.9524,-3564.9901L13460.9538,-3564.9901L13460.9552,-3564.9904L13460.9564,-3564.9899L13460.957,-3564.9888L13460.9578,-3564.9877L13460.9591,-3564.9874L13460.9611,-3564.989L13460.962,-3564.9893L13460.9634,-3564.989L13460.9648,-3564.989L13460.9663,-3564.9893L13460.9678,-3564.9891L13460.9684,-3564.99L13460.9706,-3564.9911L13460.972,-3564.9912L13460.9734,-3564.9911L13460.9744,-3564.9903L13460.9772,-3564.9917L13460.982,-3564.9931L13460.9832,-3564.9928L13460.9853,-3564.9914L13460.9869,-3564.9918L13460.9869,-3564.9926L13460.9878,-3564.9936L13460.9884,-3564.9946L13460.9891,-3564.9955L13460.9905,-3564.9954L13460.9917,-3564.9948L13460.9929,-3564.9948L13460.9942,-3564.9952L13460.9977,-3564.9972L13460.9991,-3564.9975L13461.0005,-3564.997L13461.0017,-3564.996L13461.0024,-3564.9949L13461.002,-3564.9943L13461.0035,-3564.9924L13461.0048,-3564.9912L13461.0059,-3564.9906L13461.0062,-3564.9894L13461.0062,-3564.9883L13461.0071,-3564.986L13461.0067,-3564.9849L13461.0069,-3564.9837L13461.0076,-3564.9827L13461.0088,-3564.9818L13461.0115,-3564.9811L13461.0134,-3564.9795L13461.0148,-3564.9792L13461.0178,-3564.9789L13461.02,-3564.9777L13461.0215,-3564.9774L13461.024,-3564.976L13461.0253,-3564.9757L13461.0262,-3564.975L13461.0269,-3564.9739L13461.0293,-3564.9725L13461.0307,-3564.9721L13461.0311,-3564.9722L13461.0321,-3564.9718L13461.0334,-3564.9719L13461.0361,-3564.9702L13461.0372,-3564.9701L13461.0379,-3564.9711L13461.0384,-3564.9715L13461.0394,-3564.9743L13461.0376,-3564.9761L13461.0362,-3564.9766L13461.0337,-3564.9781L13461.0316,-3564.9802L13461.0302,-3564.9811L13461.0297,-3564.9822L13461.0302,-3564.9833L13461.0295,-3564.9853L13461.0285,-3564.9864L13461.0263,-3564.9881L13461.0255,-3564.9901L13461.0245,-3564.9913L13461.0288,-3564.9942L13461.0285,-3564.9953L13461.0294,-3564.9963L13461.0306,-3564.9965L13461.0315,-3564.9961L13461.032,-3564.9963L13461.0334,-3564.9969L13461.0353,-3564.9985L13461.0366,-3564.9988L13461.0378,-3564.9987L13461.0386,-3564.9975L13461.0408,-3564.9962L13461.041,-3564.9952L13461.042,-3564.9941L13461.0432,-3564.9934L13461.0434,-3564.9922L13461.045,-3564.9902L13461.0451,-3564.9892L13461.0456,-3564.9883L13461.0448,-3564.9866L13461.0457,-3564.9859L13461.0469,-3564.9856L13461.0483,-3564.9848L13461.0492,-3564.9841L13461.0489,-3564.9829L13461.0492,-3564.9819L13461.0486,-3564.98L13461.0502,-3564.9783L13461.0507,-3564.9775L13461.0509,-3564.9763L13461.0507,-3564.9755L13461.0497,-3564.9722L13461.0521,-3564.9702L13461.0528,-3564.969L13461.053,-3564.9679L13461.0526,-3564.9657L13461.0528,-3564.9646L13461.0538,-3564.9636L13461.0543,-3564.9627L13461.0545,-3564.9616L13461.0543,-3564.9604L13461.0549,-3564.9591L13461.0559,-3564.9583L13461.0568,-3564.9571L13461.0566,-3564.9561L13461.0561,-3564.9551L13461.0561,-3564.9518L13461.0556,-3564.9509L13461.0532,-3564.9493L13461.0513,-3564.9474L13461.051,-3564.9466L13461.0496,-3564.9466L13461.0485,-3564.9461L13461.0492,-3564.9438L13461.049,-3564.9416L13461.0494,-3564.9406L13461.0492,-3564.9396L13461.0497,-3564.9386L13461.0497,-3564.9374L13461.0488,-3564.9358L13461.0494,-3564.935L13461.0498,-3564.933L13461.0497,-3564.9318L13461.0504,-3564.9311L13461.05,-3564.93L13461.0509,-3564.9291L13461.0505,-3564.9288L13461.0523,-3564.9286L13461.0546,-3564.927L13461.0547,-3564.9259L13461.0547,-3564.9237L13461.0542,-3564.9215L13461.0544,-3564.9207L13461.0554,-3564.9207L13461.0565,-3564.9204L13461.057,-3564.9193L13461.0568,-3564.9169L13461.0563,-3564.9158L13461.0554,-3564.9126L13461.056,-3564.9114L13461.0561,-3564.9091L13461.0558,-3564.9077L13461.0567,-3564.9046L13461.0561,-3564.9025L13461.0557,-3564.9002L13461.0562,-3564.8993L13461.0579,-3564.8976L13461.0592,-3564.8976L13461.0602,-3564.8965L13461.0603,-3564.8952L13461.0602,-3564.8941L13461.0608,-3564.892L13461.0616,-3564.8913L13461.0618,-3564.8903L13461.0615,-3564.8892L13461.0618,-3564.8882L13461.0641,-3564.8873L13461.0648,-3564.8863L13461.0651,-3564.8851L13461.0677,-3564.8818L13461.0688,-3564.8796L13461.0686,-3564.8786L13461.0691,-3564.8777L13461.0702,-3564.8771L13461.0719,-3564.8773L13461.073,-3564.8781L13461.0733,-3564.8788L13461.0744,-3564.879L13461.0754,-3564.8787L13461.0768,-3564.8787L13461.0782,-3564.8784L13461.0793,-3564.8778L13461.0805,-3564.8774L13461.0814,-3564.8768L13461.0821,-3564.8757L13461.0835,-3564.8757L13461.0842,-3564.8762L13461.0856,-3564.8764L13461.0883,-3564.8758L13461.0893,-3564.8751L13461.09,-3564.8741L13461.0912,-3564.8736L13461.0926,-3564.8742L13461.094,-3564.8742L13461.095,-3564.8743L13461.0987,-3564.8725L13461.1033,-3564.8687L13461.1038,-3564.8685L13461.1049,-3564.8686L13461.1084,-3564.8665L13461.1092,-3564.8657L13461.1099,-3564.865L13461.1103,-3564.864L13461.1103,-3564.8629L13461.1096,-3564.8609L13461.1106,-3564.8588L13461.1106,-3564.8579L13461.1111,-3564.8567L13461.1109,-3564.8556L13461.1102,-3564.8543L13461.1098,-3564.8522L13461.1101,-3564.8511L13461.111,-3564.8488L13461.1108,-3564.8478L13461.1112,-3564.8457L13461.1107,-3564.8445L13461.1099,-3564.8438L13461.1093,-3564.8423L13461.1105,-3564.8403L13461.1104,-3564.8394L13461.1105,-3564.8382L13461.1101,-3564.836L13461.1106,-3564.8348L13461.1123,-3564.833L13461.1147,-3564.8319L13461.1158,-3564.8321L13461.1189,-3564.8308L13461.1232,-3564.8273L13461.1235,-3564.8273L13461.124,-3564.8266L13461.1252,-3564.8271L13461.1266,-3564.8272L13461.128,-3564.8265L13461.1291,-3564.8253L13461.1298,-3564.8242L13461.1309,-3564.8233L13461.1334,-3564.8222L13461.1352,-3564.8227L13461.1406,-3564.8244L13461.143,-3564.8256L13461.1455,-3564.8264L13461.1483,-3564.8264L13461.1496,-3564.826L13461.151,-3564.8251L13461.1521,-3564.8241L13461.1541,-3564.822L13461.1567,-3564.8208L13461.158,-3564.82L13461.159,-3564.8188L13461.1594,-3564.8177L13461.1601,-3564.8167L13461.1609,-3564.8158L13461.1624,-3564.8154L13461.1651,-3564.8131L13461.1664,-3564.8122L13461.1685,-3564.8111L13461.1702,-3564.811L13461.1715,-3564.8108L13461.1737,-3564.8104L13461.1751,-3564.8095L13461.1765,-3564.8093L13461.1794,-3564.8088L13461.1823,-3564.8081L13461.1865,-3564.8077L13461.1873,-3564.8074L13461.1901,-3564.8069L13461.1914,-3564.8069L13461.1928,-3564.807L13461.1941,-3564.8066L13461.1951,-3564.807L13461.1957,-3564.8079L13461.1978,-3564.8072L13461.1992,-3564.8066L13461.2018,-3564.806L13461.203,-3564.8054L13461.203,-3564.8058L13461.2042,-3564.8061L13461.2056,-3564.8061L13461.2066,-3564.8059L13461.2076,-3564.8064L13461.2085,-3564.8062L13461.2099,-3564.8054L13461.2108,-3564.8057L13461.212,-3564.8061L13461.2134,-3564.8059L13461.2139,-3564.8056L13461.2147,-3564.8057L13461.2173,-3564.8057L13461.2204,-3564.8053L13461.2224,-3564.8053L13461.2255,-3564.8054L13461.2299,-3564.8065L13461.2324,-3564.8074L13461.2347,-3564.8085L13461.2384,-3564.8098L13461.2398,-3564.8103L13461.2407,-3564.8107L13461.2426,-3564.8111L13461.2448,-3564.8117L13461.2479,-3564.8127L13461.2521,-3564.8144L13461.2551,-3564.8162L13461.2569,-3564.8187L13461.2579,-3564.8213L13461.2607,-3564.823L13461.2625,-3564.8257L13461.2655,-3564.8268L13461.2655,-3564.8285L13461.2676,-3564.8294L13461.2737,-3564.8296L13461.2769,-3564.8298L13461.2795,-3564.8298L13461.2825,-3564.8296L13461.2855,-3564.8298L13461.2871,-3564.8298L13461.2887,-3564.8301L13461.2902,-3564.831L13461.2911,-3564.8322L13461.2928,-3564.8347L13461.2943,-3564.8461L13461.2946,-3564.8475L13461.295,-3564.8486L13461.2948,-3564.8501L13461.2951,-3564.8516L13461.2952,-3564.8539L13461.2967,-3564.8572L13461.2974,-3564.8583L13461.2991,-3564.8599L13461.3011,-3564.8632L13461.3024,-3564.864L13461.3027,-3564.8646L13461.3031,-3564.8654L13461.3041,-3564.8662L13461.3036,-3564.8689L13461.3029,-3564.8699L13461.3024,-3564.871L13461.3015,-3564.872L13461.3007,-3564.8741L13461.3003,-3564.8762L13461.2998,-3564.8772L13461.2986,-3564.8775L13461.2979,-3564.8775L13461.293,-3564.8765L13461.2873,-3564.8759L13461.2865,-3564.8766L13461.2867,-3564.8776L13461.289,-3564.8799L13461.2896,-3564.8816L13461.2886,-3564.8848L13461.2881,-3564.8859L13461.2869,-3564.8871L13461.2852,-3564.8892L13461.2848,-3564.8904L13461.2839,-3564.8911L13461.2829,-3564.891L13461.2802,-3564.8921L13461.2795,-3564.8931L13461.2797,-3564.8943L13461.279,-3564.8954L13461.2801,-3564.8965L13461.2815,-3564.8973L13461.2829,-3564.8974L13461.2841,-3564.897L13461.2851,-3564.8961L13461.286,-3564.8951L13461.2864,-3564.894L13461.2878,-3564.893L13461.2895,-3564.8908L13461.2905,-3564.8897L13461.2921,-3564.8889L13461.2932,-3564.8878L13461.2956,-3564.8872L13461.297,-3564.8866L13461.2996,-3564.8849L13461.3012,-3564.8845L13461.3026,-3564.8848L13461.3039,-3564.8855L13461.3067,-3564.8859L13461.3082,-3564.8858L13461.3093,-3564.8852L13461.3098,-3564.8856L13461.3112,-3564.8856L13461.3124,-3564.8853L13461.3149,-3564.8834L13461.3164,-3564.8828L13461.3175,-3564.8821L13461.3218,-3564.8804L13461.3239,-3564.879L13461.3255,-3564.878L13461.3267,-3564.8776L13461.3283,-3564.8775L13461.3296,-3564.877L13461.3309,-3564.876L13461.3312,-3564.8758L13461.3333,-3564.8749L13461.3333,-3564.8744L13461.3345,-3564.8735L13461.3359,-3564.8734L13461.3373,-3564.8729L13461.338,-3564.8718L13461.3394,-3564.8711L13461.3406,-3564.8702L13461.3427,-3564.8681L13461.3427,-3564.8661L13461.344,-3564.8563L13461.3452,-3564.8539L13461.3483,-3564.8531L13461.3518,-3564.8533L13461.3556,-3564.8532L13461.3596,-3564.8533L13461.3627,-3564.8531L13461.3649,-3564.8528L13461.3659,-3564.8522L13461.3677,-3564.8516L13461.3681,-3564.8506L13461.3684,-3564.8498L13461.3702,-3564.8478L13461.3729,-3564.846L13461.3737,-3564.845L13461.3744,-3564.844L13461.3746,-3564.8429L13461.3759,-3564.8418L13461.3778,-3564.8396L13461.3811,-3564.8376L13461.3842,-3564.8369L13461.3855,-3564.8371L13461.3869,-3564.8368L13461.3883,-3564.8363L13461.3889,-3564.8361L13461.3947,-3564.8332L13461.3977,-3564.8322L13461.4005,-3564.8316L13461.4016,-3564.8318L13461.4026,-3564.8325L13461.4018,-3564.8335L13461.4002,-3564.8342L13461.3988,-3564.8351L13461.3976,-3564.836L13461.3969,-3564.8375L13461.3974,-3564.838L13461.3984,-3564.8382L13461.3998,-3564.8384L13461.4013,-3564.839L13461.4027,-3564.8392L13461.4041,-3564.8392L13461.4069,-3564.8388L13461.4083,-3564.8381L13461.4091,-3564.8371L13461.4115,-3564.8354L13461.4138,-3564.8336L13461.4151,-3564.8332L13461.4165,-3564.8331L13461.4181,-3564.8333L13461.4194,-3564.8338L13461.4215,-3564.835L13461.423,-3564.8349L13461.4235,-3564.836L13461.4253,-3564.836L13461.4275,-3564.8366L13461.4289,-3564.8365L13461.4303,-3564.8367L13461.4316,-3564.8375L13461.433,-3564.8379L13461.4336,-3564.8384L13461.438,-3564.8398L13461.4388,-3564.839L13461.4388,-3564.838L13461.4377,-3564.837L13461.4345,-3564.8344L13461.4338,-3564.8334L13461.4334,-3564.8311L13461.433,-3564.8303L13461.4319,-3564.8294L13461.4305,-3564.8289L13461.4293,-3564.828L13461.4284,-3564.8269L13461.4272,-3564.826L13461.4257,-3564.8254L13461.4249,-3564.8244L13461.4225,-3564.8227L13461.4212,-3564.8223L13461.4186,-3564.8233L13461.4182,-3564.8245L13461.4184,-3564.8266L13461.4175,-3564.827L13461.4159,-3564.8268L13461.4137,-3564.826L13461.4123,-3564.8256L13461.4093,-3564.8256L13461.4066,-3564.8259L13461.4042,-3564.8264L13461.397,-3564.8276L13461.3942,-3564.8277L13461.3928,-3564.8281L13461.3914,-3564.8279L13461.3886,-3564.8285L13461.3872,-3564.8285L13461.3788,-3564.8303L13461.3774,-3564.8301L13461.3765,-3564.8296L13461.3756,-3564.8286L13461.3749,-3564.8283L13461.3726,-3564.83L13461.3712,-3564.8306L13461.3698,-3564.8309L13461.3667,-3564.833L13461.3653,-3564.8327L13461.3644,-3564.8323L13461.3627,-3564.832L13461.3616,-3564.8313L13461.3602,-3564.831L13461.3562,-3564.8292L13461.3549,-3564.8285L13461.3534,-3564.8281L13461.3533,-3564.8279L13461.3491,-3564.818L13461.3488,-3564.8157L13461.3484,-3564.8143L13461.3485,-3564.8122L13461.3491,-3564.8101L13461.3497,-3564.8083L13461.3509,-3564.8049L13461.3513,-3564.803L13461.3516,-3564.8014L13461.3516,-3564.8005L13461.3517,-3564.7995L13461.3519,-3564.7987L13461.3521,-3564.798L13461.3523,-3564.7971L13461.3527,-3564.7957L13461.3532,-3564.7948L13461.3545,-3564.7914L13461.3549,-3564.7895L13461.3556,-3564.7878L13461.3561,-3564.7864L13461.357,-3564.7836L13461.3583,-3564.7828L13461.3592,-3564.7815L13461.3595,-3564.7817L13461.3611,-3564.78L13461.3612,-3564.7792L13461.3629,-3564.7775L13461.3628,-3564.7764L13461.3631,-3564.7741L13461.3625,-3564.7733L13461.3625,-3564.773L13461.3639,-3564.7691L13461.3651,-3564.7683L13461.3656,-3564.7671L13461.3656,-3564.7637L13461.3658,-3564.7626L13461.3652,-3564.7611L13461.3671,-3564.7602L13461.3682,-3564.7593L13461.3689,-3564.7581L13461.3686,-3564.7571L13461.3691,-3564.756L13461.3693,-3564.7548L13461.3691,-3564.7538L13461.3707,-3564.7515L13461.3708,-3564.7504L13461.3705,-3564.7494L13461.3712,-3564.7482L13461.3705,-3564.7471L13461.3696,-3564.7464L13461.3694,-3564.7441L13461.3689,-3564.7429L13461.3678,-3564.7424L13461.3682,-3564.7412L13461.3678,-3564.7401L13461.3671,-3564.7389L13461.3669,-3564.7378L13461.3671,-3564.7371L13461.3678,-3564.7368L13461.3681,-3564.7364L13461.3692,-3564.7369L13461.3706,-3564.7372L13461.3717,-3564.7383L13461.3745,-3564.7393L13461.3759,-3564.7394L13461.3771,-3564.7388L13461.3795,-3564.7392L13461.3805,-3564.7385L13461.3817,-3564.7352L13461.3811,-3564.7343L13461.3813,-3564.7335L13461.3804,-3564.7323L13461.3793,-3564.7313L13461.3781,-3564.7305L13461.3785,-3564.7302L13461.3769,-3564.7288L13461.3765,-3564.7282L13461.3766,-3564.7277L13461.3758,-3564.726L13461.3751,-3564.7254L13461.3749,-3564.7237L13461.3746,-3564.7226L13461.3754,-3564.7209L13461.3756,-3564.7198L13461.375,-3564.7187L13461.3756,-3564.7177L13461.3765,-3564.7166L13461.3768,-3564.7155L13461.3759,-3564.715L13461.3759,-3564.714L13461.3764,-3564.7131L13461.3764,-3564.712L13461.3759,-3564.7108L13461.3759,-3564.7085L13461.3757,-3564.7074L13461.3765,-3564.705L13461.3773,-3564.7039L13461.3783,-3564.7031L13461.3797,-3564.7029L13461.3809,-3564.7025L13461.3818,-3564.7015L13461.3822,-3564.7006L13461.3836,-3564.7001L13461.3846,-3564.6992L13461.3863,-3564.6963L13461.3886,-3564.6951L13461.39,-3564.693L13461.3919,-3564.6913L13461.3923,-3564.6902L13461.3937,-3564.6896L13461.3948,-3564.6888L13461.3961,-3564.6865L13461.3981,-3564.685L13461.3986,-3564.6839L13461.4002,-3564.6819L13461.4001,-3564.6808L13461.4008,-3564.6798L13461.4007,-3564.6788L13461.4014,-3564.6777L13461.393,-3564.6697L13461.3899,-3564.6655L13461.3872,-3564.6533L13461.3866,-3564.6445L13461.3861,-3564.637L13461.4087,-3564.6418L13461.4182,-3564.6448L13461.4215,-3564.6469L13461.4208,-3564.6533L13461.4195,-3564.6536L13461.418,-3564.6551L13461.4164,-3564.6563L13461.4163,-3564.6579L13461.4122,-3564.6608L13461.4118,-3564.6619L13461.413,-3564.6695L13461.4192,-3564.674L13461.424,-3564.6746L13461.4279,-3564.6744L13461.4306,-3564.6743L13461.4335,-3564.6744L13461.4353,-3564.6758L13461.4381,-3564.678L13461.4419,-3564.6791L13461.4454,-3564.6799L13461.4495,-3564.6797L13461.4483,-3564.6764L13461.4454,-3564.6727L13461.4436,-3564.6705L13461.4413,-3564.6676L13461.4382,-3564.6636L13461.4383,-3564.6615L13461.4379,-3564.6597L13461.4363,-3564.6564L13461.4349,-3564.6544L13461.4365,-3564.6495L13461.4894,-3564.6104L13461.4887,-3564.6068L13461.4742,-3564.5957L13461.4718,-3564.5956L13461.4653,-3564.6008L13461.4602,-3564.6052L13461.4621,-3564.6068L13461.4245,-3564.637L13461.4267,-3564.6383L13461.4165,-3564.6383L13461.4165,-3564.6398L13461.4093,-3564.6399L13461.4094,-3564.6395L13461.386,-3564.6343L13461.3883,-3564.6198L13461.3851,-3564.6193L13461.3839,-3564.6224L13461.3633,-3564.6168L13461.3615,-3564.6078L13461.3726,-3564.5835L13461.3741,-3564.5792L13461.3811,-3564.5824L13461.3844,-3564.5758L13461.3894,-3564.579L13461.3868,-3564.5869L13461.4005,-3564.5952L13461.4048,-3564.585L13461.3986,-3564.58L13461.3961,-3564.5702L13461.3903,-3564.5607L13461.3887,-3564.5568L13461.3799,-3564.5384L13461.3853,-3564.5134L13461.3903,-3564.5099L13461.4036,-3564.5093L13461.4039,-3564.5066L13461.428,-3564.5119L13461.4266,-3564.5736L13461.4337,-3564.5736L13461.435,-3564.5805L13461.4374,-3564.5808L13461.4455,-3564.5799L13461.4462,-3564.5785L13461.447,-3564.5059L13461.4385,-3564.4955L13461.4341,-3564.4968L13461.426,-3564.5013L13461.4225,-3564.5087L13461.4155,-3564.5072L13461.4266,-3564.484L13461.3968,-3564.4802L13461.3661,-3564.4781L13461.3589,-3564.474L13461.3429,-3564.4605L13461.3303,-3564.45L13461.3278,-3564.4538L13461.3229,-3564.4574L13461.3189,-3564.4553L13461.3162,-3564.4497L13461.3157,-3564.4483L13461.3102,-3564.44L13461.3048,-3564.4318L13461.3049,-3564.4296L13461.3033,-3564.4278L13461.2993,-3564.4269L13461.2963,-3564.4275L13461.2943,-3564.4293L13461.2926,-3564.4288L13461.2917,-3564.425L13461.292,-3564.4207L13461.2894,-3564.4023L13461.2884,-3564.4001L13461.2828,-3564.4006L13461.2797,-3564.3993L13461.2783,-3564.3932L13461.2781,-3564.3888L13461.2772,-3564.3854L13461.284,-3564.3821L13461.2844,-3564.3782L13461.2811,-3564.3752L13461.2776,-3564.3709L13461.2824,-3564.3562L13461.2959,-3564.3302L13461.3048,-3564.3161L13461.3041,-3564.313L13461.2927,-3564.3081L13461.2929,-3564.3013L13461.2986,-3564.283L13461.3064,-3564.2655L13461.3136,-3564.2543L13461.319,-3564.2447L13461.3223,-3564.2395L13461.3292,-3564.2216L13461.3318,-3564.2109L13461.3336,-3564.2037L13461.349,-3564.1889L13461.3644,-3564.1743L13461.3687,-3564.1667L13461.374,-3564.1571L13461.3766,-3564.1471L13461.3777,-3564.1389L13461.3789,-3564.1339L13461.3824,-3564.1273L13461.3844,-3564.1194L13461.3881,-3564.1112L13461.3957,-3564.1051L13461.4069,-3564.0964L13461.4138,-3564.094L13461.4267,-3564.0916L13461.4357,-3564.0906L13461.4377,-3564.087L13461.4383,-3564.0725L13461.4394,-3564.0642L13461.4403,-3564.0599L13461.4411,-3564.0546L13461.4423,-3564.0498L13461.4443,-3564.0451L13461.4493,-3564.0422L13461.4589,-3564.0376L13461.4717,-3564.0331L13461.4787,-3564.0302L13461.4855,-3564.0288L13461.496,-3564.0271L13461.5115,-3564.0256L13461.5316,-3564.0234L13461.5512,-3564.0188L13461.5713,-3564.0102L13461.5835,-3564.0018L13461.5963,-3563.9901L13461.6102,-3563.9648L13461.7165,-3563.9648L13461.708,-3564.0182L13461.7075,-3564.0387L13461.708,-3564.0417L13461.7093,-3564.0495L13461.7123,-3564.0595L13461.7176,-3564.0702L13461.7281,-3564.0842L13461.741,-3564.0968L13461.755,-3564.0861L13461.7366,-3564.067L13461.7298,-3564.0694L13461.7234,-3564.0563L13461.7189,-3564.0451L13461.7184,-3564.0417L13461.7172,-3564.0344L13461.7177,-3564.0199L13461.7258,-3564.0114L13461.7284,-3564.0048L13461.7327,-3563.9978L13461.7386,-3563.9899L13461.743,-3563.9852L13461.7522,-3563.9791L13461.7609,-3563.9753L13461.7701,-3563.9721L13461.7916,-3563.9658L13461.8095,-3563.965L13461.8116,-3563.9648L13462.1955,-3563.9648L13462.2118,-3563.9691L13462.2272,-3563.9726L13462.2505,-3563.9835L13462.2785,-3563.9966L13462.2827,-3563.997L13462.2687,-3564.0519L13462.2761,-3564.053L13462.2894,-3563.9978L13462.3072,-3563.9958L13462.33,-3564L13462.3464,-3564.0036L13462.3642,-3564.0066L13462.4098,-3564.0165L13462.451,-3564.0269L13462.4943,-3564.0398L13462.5,-3564.0416L13462.5219,-3564.0481L13462.5509,-3564.0663L13462.6431,-3564.1011L13462.6465,-3564.1027L13462.6465,-3564.6767L13462.6452,-3564.6763L13462.6461,-3564.6744L13462.6355,-3564.6715L13462.6305,-3564.6837L13462.6302,-3564.6959L13462.6443,-3564.7016L13462.6465,-3564.7022Z"/>
<path content="兵庫県,,美方郡,香美町,,28585" xlink:title="兵庫県" d="M13461.1164,-3565.0909L13461.1188,-3565.0896L13461.1215,-3565.09L13461.1226,-3565.0895L13461.1228,-3565.0892L13461.1242,-3565.0899L13461.1254,-3565.0901L13461.1266,-3565.0899L13461.1284,-3565.088L13461.1307,-3565.0852L13461.1347,-3565.0842L13461.1361,-3565.0836L13461.1372,-3565.0826L13461.1377,-3565.0816L13461.1389,-3565.0807L13461.1417,-3565.0801L13461.1431,-3565.0794L13461.1438,-3565.0783L13461.1447,-3565.0776L13461.1461,-3565.0774L13461.1477,-3565.077L13461.1485,-3565.077L13461.1496,-3565.0764L13461.1504,-3565.0758L13461.1509,-3565.0752L13461.1516,-3565.0747L13461.153,-3565.075L13461.1536,-3565.0757L13461.1549,-3565.0764L13461.1561,-3565.0765L13461.1569,-3565.0763L13461.1575,-3565.0752L13461.1585,-3565.0757L13461.1624,-3565.0765L13461.1647,-3565.0754L13461.1654,-3565.0748L13461.1666,-3565.0755L13461.1678,-3565.0759L13461.1692,-3565.0758L13461.1717,-3565.0742L13461.1729,-3565.0739L13461.1732,-3565.074L13461.1762,-3565.0732L13461.1776,-3565.0733L13461.1806,-3565.0742L13461.1818,-3565.0749L13461.1825,-3565.076L13461.1837,-3565.0769L13461.1854,-3565.0778L13461.1868,-3565.0774L13461.1885,-3565.0771L13461.1899,-3565.0771L13461.1927,-3565.0763L13461.1944,-3565.0744L13461.1946,-3565.0733L13461.1953,-3565.0725L13461.1967,-3565.0722L13461.198,-3565.0715L13461.199,-3565.0705L13461.2032,-3565.0701L13461.2045,-3565.0697L13461.2053,-3565.0688L13461.2064,-3565.0682L13461.2075,-3565.0681L13461.2109,-3565.0657L13461.2134,-3565.0643L13461.2146,-3565.0638L13461.216,-3565.0635L13461.2171,-3565.0626L13461.2184,-3565.0619L13461.2212,-3565.0616L13461.2221,-3565.0607L13461.2234,-3565.061L13461.2239,-3565.0602L13461.2249,-3565.0594L13461.2258,-3565.0576L13461.2272,-3565.0567L13461.2296,-3565.0558L13461.2296,-3565.0548L13461.2296,-3565.053L13461.2286,-3565.0516L13461.2277,-3565.0506L13461.2265,-3565.0499L13461.225,-3565.0486L13461.224,-3565.0474L13461.222,-3565.0462L13461.2212,-3565.0453L13461.2212,-3565.0446L13461.2203,-3565.0436L13461.2177,-3565.043L13461.2149,-3565.0434L13461.2136,-3565.0428L13461.2108,-3565.0426L13461.2093,-3565.043L13461.2077,-3565.0432L13461.2055,-3565.0439L13461.2042,-3565.0435L13461.2016,-3565.0445L13461.2003,-3565.0466L13461.1985,-3565.0482L13461.1976,-3565.0486L13461.1981,-3565.0511L13461.1974,-3565.0521L13461.1963,-3565.0528L13461.195,-3565.0531L13461.1923,-3565.0519L13461.1911,-3565.0511L13461.1897,-3565.0509L13461.1883,-3565.0512L13461.1874,-3565.0508L13461.1862,-3565.0498L13461.1854,-3565.0495L13461.1814,-3565.0474L13461.18,-3565.047L13461.1791,-3565.0474L13461.1791,-3565.0468L13461.178,-3565.0464L13461.1765,-3565.0453L13461.1751,-3565.045L13461.1739,-3565.0448L13461.1702,-3565.0424L13461.1689,-3565.0418L13461.1679,-3565.041L13461.1672,-3565.0398L13461.1659,-3565.039L13461.1645,-3565.0387L13461.1632,-3565.0381L13461.1607,-3565.0374L13461.1596,-3565.037L13461.1584,-3565.0358L13461.157,-3565.0351L13461.1556,-3565.0349L13461.1544,-3565.0343L13461.1531,-3565.0334L13461.1523,-3565.0337L13461.1496,-3565.033L13461.1482,-3565.0333L13461.147,-3565.0327L13461.1459,-3565.0332L13461.1424,-3565.0323L13461.1409,-3565.0323L13461.1382,-3565.0332L13461.1368,-3565.0332L13461.1354,-3565.0329L13461.1329,-3565.033L13461.1323,-3565.0331L13461.1315,-3565.0329L13461.1296,-3565.0307L13461.1276,-3565.0289L13461.1266,-3565.0287L13461.1256,-3565.0282L13461.1249,-3565.0277L13461.1244,-3565.027L13461.1208,-3565.0246L13461.1205,-3565.0242L13461.1192,-3565.024L13461.1178,-3565.0241L13461.1164,-3565.0238L13461.1138,-3565.0238L13461.1112,-3565.0241L13461.1098,-3565.0247L13461.1086,-3565.0243L13461.1072,-3565.0246L13461.1059,-3565.0244L13461.1047,-3565.0248L13461.1022,-3565.0249L13461.1021,-3565.0261L13461.101,-3565.0268L13461.1005,-3565.0269L13461.0989,-3565.0273L13461.098,-3565.0275L13461.0971,-3565.0286L13461.0963,-3565.029L13461.0961,-3565.0296L13461.0938,-3565.0307L13461.0924,-3565.0304L13461.0911,-3565.032L13461.0888,-3565.0325L13461.0874,-3565.0331L13461.0858,-3565.0333L13461.0844,-3565.033L13461.0826,-3565.0336L13461.0819,-3565.0343L13461.0791,-3565.0338L13461.0783,-3565.0353L13461.0784,-3565.036L13461.0806,-3565.0367L13461.0816,-3565.0365L13461.0828,-3565.0364L13461.0842,-3565.0359L13461.0853,-3565.0366L13461.0867,-3565.0371L13461.0881,-3565.0366L13461.0895,-3565.0359L13461.0907,-3565.035L13461.0918,-3565.0346L13461.0938,-3565.0335L13461.0949,-3565.0337L13461.0963,-3565.0335L13461.099,-3565.0321L13461.1003,-3565.0323L13461.1012,-3565.0323L13461.1023,-3565.0332L13461.1028,-3565.034L13461.1032,-3565.0352L13461.103,-3565.0362L13461.1019,-3565.0373L13461.101,-3565.0377L13461.0991,-3565.0392L13461.0963,-3565.0395L13461.0944,-3565.0402L13461.0906,-3565.0404L13461.089,-3565.042L13461.0882,-3565.0433L13461.0865,-3565.0451L13461.0851,-3565.0451L13461.0826,-3565.0462L13461.0815,-3565.0471L13461.0808,-3565.0481L13461.0797,-3565.0488L13461.0784,-3565.0505L13461.0785,-3565.0515L13461.078,-3565.0525L13461.0759,-3565.0553L13461.0761,-3565.0575L13461.0764,-3565.0585L13461.0741,-3565.06L13461.0738,-3565.0611L13461.0748,-3565.0621L13461.0748,-3565.0633L13461.075,-3565.0641L13461.074,-3565.0653L13461.0733,-3565.0666L13461.0741,-3565.0673L13461.0738,-3565.0693L13461.0745,-3565.0703L13461.0758,-3565.0704L13461.0766,-3565.0725L13461.0773,-3565.0734L13461.0775,-3565.0744L13461.0788,-3565.0748L13461.0812,-3565.0762L13461.0812,-3565.0773L13461.0832,-3565.0792L13461.0841,-3565.0798L13461.0867,-3565.0801L13461.0867,-3565.0813L13461.0872,-3565.0823L13461.0882,-3565.0832L13461.091,-3565.0827L13461.0918,-3565.0837L13461.0932,-3565.084L13461.0956,-3565.0837L13461.096,-3565.0841L13461.0987,-3565.0849L13461.1007,-3565.0867L13461.1022,-3565.0871L13461.105,-3565.0874L13461.1084,-3565.0885L13461.1099,-3565.0888L13461.1133,-3565.0901L13461.1144,-3565.0907L13461.1164,-3565.0909Z"/>
<path content="兵庫県,,美方郡,香美町,,28585" xlink:title="兵庫県" d="M13462.6395,-3564.892L13462.6383,-3564.8748L13462.5,-3564.8843L13462.4893,-3564.885L13462.3772,-3564.9178L13462.3847,-3564.9346L13462.492,-3564.9026L13462.5,-3564.9021L13462.6395,-3564.892Z"/>
<path content="兵庫県,,美方郡,香美町,,28585" xlink:title="兵庫県" d="M13460.9286,-3565.3027L13460.9342,-3565.3021L13460.9356,-3565.3023L13460.937,-3565.302L13460.9379,-3565.301L13460.9384,-3565.2999L13460.9411,-3565.299L13460.9421,-3565.2984L13460.9431,-3565.2981L13460.9436,-3565.2971L13460.945,-3565.2963L13460.9478,-3565.2957L13460.9486,-3565.2947L13460.9486,-3565.2928L13460.9494,-3565.2919L13460.9502,-3565.2921L13460.9557,-3565.2905L13460.9548,-3565.2909L13460.9562,-3565.2905L13460.9576,-3565.2895L13460.9579,-3565.2884L13460.9592,-3565.2868L13460.9592,-3565.286L13460.9592,-3565.2859L13460.9607,-3565.2848L13460.9608,-3565.2848L13460.9616,-3565.2853L13460.9625,-3565.2851L13460.9633,-3565.2843L13460.9632,-3565.2827L13460.963,-3565.2817L13460.9628,-3565.2813L13460.9616,-3565.2812L13460.9613,-3565.2805L13460.9611,-3565.2793L13460.962,-3565.2787L13460.9634,-3565.2782L13460.9639,-3565.2771L13460.9641,-3565.276L13460.9662,-3565.2751L13460.9674,-3565.2744L13460.9674,-3565.2726L13460.9681,-3565.2716L13460.969,-3565.2717L13460.9701,-3565.2708L13460.9705,-3565.2697L13460.9704,-3565.2691L13460.9702,-3565.2687L13460.971,-3565.2679L13460.9712,-3565.2666L13460.9709,-3565.2661L13460.9709,-3565.2651L13460.9705,-3565.2639L13460.9694,-3565.2632L13460.9694,-3565.2627L13460.9706,-3565.2623L13460.9714,-3565.262L13460.9721,-3565.2612L13460.9725,-3565.2604L13460.9738,-3565.2596L13460.9745,-3565.259L13460.9747,-3565.2582L13460.9755,-3565.2572L13460.9763,-3565.2565L13460.9772,-3565.2559L13460.9778,-3565.2551L13460.9789,-3565.2545L13460.9806,-3565.2544L13460.9827,-3565.253L13460.9841,-3565.2516L13460.9854,-3565.2514L13460.9859,-3565.2507L13460.9864,-3565.2498L13460.9861,-3565.2484L13460.9858,-3565.2479L13460.9849,-3565.2472L13460.9824,-3565.2469L13460.9809,-3565.2467L13460.9805,-3565.2463L13460.9805,-3565.2452L13460.9804,-3565.2445L13460.9792,-3565.2438L13460.9779,-3565.2439L13460.9751,-3565.2447L13460.9738,-3565.2448L13460.9717,-3565.2457L13460.9708,-3565.2452L13460.9694,-3565.2458L13460.9682,-3565.2455L13460.9673,-3565.2464L13460.9663,-3565.247L13460.964,-3565.247L13460.96,-3565.2485L13460.9595,-3565.2502L13460.9572,-3565.2508L13460.956,-3565.2515L13460.9549,-3565.2525L13460.9537,-3565.2531L13460.953,-3565.2541L13460.9516,-3565.2547L13460.9502,-3565.2546L13460.9496,-3565.2541L13460.9491,-3565.2534L13460.9486,-3565.2523L13460.9498,-3565.2513L13460.9503,-3565.249L13460.9496,-3565.2479L13460.9484,-3565.2471L13460.9486,-3565.2463L13460.9492,-3565.2459L13460.9504,-3565.2455L13460.9506,-3565.2449L13460.9507,-3565.2445L13460.9513,-3565.2443L13460.9521,-3565.2438L13460.9521,-3565.2434L13460.9521,-3565.2426L13460.9521,-3565.2425L13460.9529,-3565.2423L13460.9532,-3565.2418L13460.9532,-3565.2415L13460.9528,-3565.2407L13460.9526,-3565.2406L13460.9526,-3565.2399L13460.9545,-3565.239L13460.955,-3565.2384L13460.9568,-3565.2383L13460.9575,-3565.2371L13460.9575,-3565.2361L13460.9585,-3565.2354L13460.9599,-3565.235L13460.961,-3565.2341L13460.9617,-3565.2333L13460.9632,-3565.2312L13460.9643,-3565.2305L13460.9671,-3565.2301L13460.9683,-3565.2294L13460.9692,-3565.2284L13460.9697,-3565.2272L13460.9706,-3565.2265L13460.972,-3565.2265L13460.9734,-3565.2256L13460.9741,-3565.2245L13460.9742,-3565.2233L13460.9739,-3565.2221L13460.9725,-3565.2202L13460.973,-3565.2193L13460.9729,-3565.2181L13460.9712,-3565.2161L13460.9718,-3565.215L13460.9722,-3565.2117L13460.9703,-3565.2106L13460.9696,-3565.2096L13460.9688,-3565.2089L13460.9675,-3565.2083L13460.9656,-3565.208L13460.9643,-3565.208L13460.9614,-3565.209L13460.9602,-3565.2096L13460.9589,-3565.2108L13460.9577,-3565.2112L13460.9567,-3565.2121L13460.9553,-3565.2124L13460.954,-3565.2124L13460.953,-3565.2126L13460.9502,-3565.2129L13460.9485,-3565.2148L13460.947,-3565.2154L13460.9458,-3565.2154L13460.9444,-3565.216L13460.9431,-3565.2168L13460.9417,-3565.2187L13460.9404,-3565.2193L13460.9391,-3565.2193L13460.9364,-3565.2201L13460.9352,-3565.2209L13460.9345,-3565.2229L13460.9334,-3565.2236L13460.9316,-3565.2254L13460.931,-3565.2263L13460.931,-3565.2274L13460.9304,-3565.2284L13460.9294,-3565.2296L13460.9282,-3565.23L13460.9269,-3565.2309L13460.9273,-3565.2328L13460.9273,-3565.2346L13460.9269,-3565.2349L13460.9254,-3565.2355L13460.9248,-3565.2366L13460.9248,-3565.2375L13460.9239,-3565.2381L13460.923,-3565.2384L13460.9229,-3565.2392L13460.9219,-3565.2395L13460.9205,-3565.2398L13460.9193,-3565.2403L13460.9177,-3565.2438L13460.9166,-3565.2439L13460.9152,-3565.2445L13460.9132,-3565.2463L13460.9126,-3565.2485L13460.9116,-3565.2494L13460.9112,-3565.2504L13460.9099,-3565.2507L13460.9089,-3565.252L13460.9078,-3565.2525L13460.9067,-3565.2545L13460.9063,-3565.2557L13460.9065,-3565.2568L13460.906,-3565.2573L13460.9056,-3565.2583L13460.9046,-3565.2593L13460.9039,-3565.2602L13460.9034,-3565.2643L13460.9029,-3565.2654L13460.902,-3565.2666L13460.9015,-3565.2677L13460.8993,-3565.2691L13460.8995,-3565.2714L13460.8989,-3565.2725L13460.8996,-3565.2747L13460.9006,-3565.2756L13460.9013,-3565.2764L13460.9011,-3565.2776L13460.9017,-3565.2787L13460.9017,-3565.2799L13460.9024,-3565.281L13460.9048,-3565.283L13460.9056,-3565.284L13460.9065,-3565.285L13460.907,-3565.289L13460.9075,-3565.2895L13460.908,-3565.2926L13460.9089,-3565.2937L13460.91,-3565.2939L13460.9111,-3565.2943L13460.9137,-3565.2963L13460.9148,-3565.2972L13460.9175,-3565.298L13460.9189,-3565.2989L13460.9189,-3565.2987L13460.9215,-3565.2994L13460.9221,-3565.3005L13460.9244,-3565.3013L13460.9258,-3565.302L13460.9286,-3565.3027Z"/>
<path content="兵庫県,,美方郡,香美町,,28585" xlink:title="兵庫県" d="M13460.4794,-3565.6892L13460.4807,-3565.6887L13460.4831,-3565.6891L13460.4846,-3565.6891L13460.4872,-3565.6886L13460.4882,-3565.6873L13460.4901,-3565.686L13460.4936,-3565.684L13460.4946,-3565.6837L13460.4972,-3565.6832L13460.4986,-3565.6829L13460.5,-3565.6822L13460.5014,-3565.6823L13460.5028,-3565.6819L13460.5041,-3565.6813L13460.5045,-3565.6806L13460.5083,-3565.6776L13460.509,-3565.6764L13460.5093,-3565.6752L13460.5104,-3565.6743L13460.5116,-3565.6723L13460.5124,-3565.6703L13460.5151,-3565.6698L13460.5158,-3565.6694L13460.5178,-3565.6693L13460.5189,-3565.6687L13460.5193,-3565.6675L13460.5192,-3565.6669L13460.519,-3565.6662L13460.518,-3565.6652L13460.5169,-3565.6646L13460.5135,-3565.6621L13460.513,-3565.6609L13460.5121,-3565.6593L13460.5071,-3565.6577L13460.5042,-3565.655L13460.5013,-3565.6536L13460.5004,-3565.6528L13460.4979,-3565.6518L13460.4968,-3565.651L13460.4963,-3565.65L13460.4948,-3565.6483L13460.4939,-3565.6478L13460.4914,-3565.6468L13460.4899,-3565.6467L13460.4885,-3565.6464L13460.4812,-3565.6407L13460.4806,-3565.6403L13460.4795,-3565.6398L13460.4769,-3565.639L13460.4757,-3565.638L13460.4738,-3565.6362L13460.471,-3565.6349L13460.4683,-3565.6344L13460.4669,-3565.6344L13460.4644,-3565.6342L13460.4616,-3565.6332L13460.4574,-3565.6323L13460.455,-3565.6323L13460.4539,-3565.6318L13460.4525,-3565.6316L13460.4513,-3565.6308L13460.4506,-3565.6308L13460.4492,-3565.6307L13460.4492,-3565.6798L13460.4504,-3565.6801L13460.4508,-3565.6802L13460.4518,-3565.6803L13460.4532,-3565.6807L13460.456,-3565.6805L13460.4574,-3565.6813L13460.4581,-3565.682L13460.4596,-3565.6825L13460.4624,-3565.683L13460.4627,-3565.6841L13460.4625,-3565.6852L13460.4634,-3565.6862L13460.4646,-3565.6868L13460.4653,-3565.688L13460.4667,-3565.6887L13460.4682,-3565.6887L13460.4699,-3565.6889L13460.4736,-3565.6879L13460.4756,-3565.6884L13460.4772,-3565.6891L13460.4794,-3565.6892Z"/>
<path content="兵庫県,,美方郡,香美町,,28585" xlink:title="兵庫県" d="M13461.0845,-3564.9849L13461.0857,-3564.9848L13461.0871,-3564.985L13461.0885,-3564.985L13461.0899,-3564.9846L13461.0911,-3564.984L13461.092,-3564.9832L13461.0932,-3564.9827L13461.0946,-3564.9827L13461.0957,-3564.9827L13461.0969,-3564.9823L13461.0982,-3564.9822L13461.0994,-3564.9829L13461.1004,-3564.9827L13461.1017,-3564.9821L13461.1041,-3564.9832L13461.1055,-3564.9831L13461.1069,-3564.9827L13461.1082,-3564.982L13461.1096,-3564.9801L13461.1104,-3564.9794L13461.1108,-3564.9784L13461.1119,-3564.9777L13461.1141,-3564.9758L13461.1153,-3564.9739L13461.1171,-3564.9725L13461.1176,-3564.9714L13461.1174,-3564.9691L13461.1176,-3564.9679L13461.1181,-3564.967L13461.1183,-3564.9649L13461.1188,-3564.9638L13461.1189,-3564.9625L13461.1194,-3564.9614L13461.1188,-3564.9591L13461.1188,-3564.9568L13461.1187,-3564.9558L13461.1175,-3564.9536L13461.1163,-3564.9529L13461.1149,-3564.9529L13461.1137,-3564.9532L13461.1124,-3564.9532L13461.111,-3564.9529L13461.1103,-3564.9529L13461.1089,-3564.9534L13461.1072,-3564.9546L13461.1074,-3564.9558L13461.1067,-3564.9568L13461.1053,-3564.9571L13461.1046,-3564.9581L13461.1042,-3564.9592L13461.1028,-3564.9597L13461.1016,-3564.9597L13461.1005,-3564.9591L13461.0993,-3564.959L13461.0991,-3564.9581L13461.0991,-3564.9537L13461.0979,-3564.9535L13461.094,-3564.9551L13461.0928,-3564.9546L13461.0922,-3564.9536L13461.0895,-3564.9538L13461.0874,-3564.9553L13461.086,-3564.9553L13461.0847,-3564.956L13461.0833,-3564.9563L13461.0825,-3564.9569L13461.0811,-3564.9572L13461.0783,-3564.9559L13461.077,-3564.9557L13461.0758,-3564.956L13461.0751,-3564.9569L13461.074,-3564.9573L13461.0728,-3564.958L13461.0718,-3564.9592L13461.0711,-3564.9603L13461.07,-3564.9608L13461.0697,-3564.9618L13461.0695,-3564.9629L13461.069,-3564.9638L13461.0679,-3564.9645L13461.0673,-3564.9656L13461.0675,-3564.9679L13461.0664,-3564.9685L13461.0666,-3564.9696L13461.0654,-3564.9718L13461.0665,-3564.9741L13461.0674,-3564.9751L13461.0669,-3564.9761L13461.0657,-3564.9765L13461.0649,-3564.9774L13461.0647,-3564.9797L13461.0648,-3564.9808L13461.0648,-3564.9819L13461.0638,-3564.9829L13461.0636,-3564.9855L13461.0645,-3564.9865L13461.0656,-3564.9874L13461.0671,-3564.989L13461.0671,-3564.9901L13461.0682,-3564.9911L13461.0693,-3564.9917L13461.0706,-3564.9918L13461.0719,-3564.9899L13461.0728,-3564.9895L13461.0742,-3564.9894L13461.0749,-3564.9888L13461.0763,-3564.9888L13461.0774,-3564.9886L13461.0792,-3564.9869L13461.0805,-3564.9865L13461.0815,-3564.9865L13461.0819,-3564.9855L13461.0831,-3564.9855L13461.0845,-3564.9849Z"/>
<path content="兵庫県,,美方郡,香美町,,28585" xlink:title="兵庫県" d="M13460.967,-3565.3106L13460.9684,-3565.3101L13460.9698,-3565.3102L13460.971,-3565.3096L13460.9731,-3565.3079L13460.9744,-3565.3071L13460.9768,-3565.3058L13460.9779,-3565.3049L13460.9794,-3565.3029L13460.9799,-3565.3019L13460.9819,-3565.3003L13460.9831,-3565.3L13460.9843,-3565.2991L13460.9852,-3565.2981L13460.9862,-3565.2961L13460.9871,-3565.2957L13460.9877,-3565.295L13460.9875,-3565.2907L13460.9887,-3565.29L13460.989,-3565.2893L13460.9903,-3565.2888L13460.9915,-3565.2878L13460.9916,-3565.2867L13460.9927,-3565.2865L13460.9939,-3565.2861L13460.9946,-3565.2851L13460.9946,-3565.284L13460.9943,-3565.2828L13460.9932,-3565.2822L13460.9932,-3565.2796L13460.9915,-3565.2763L13460.9904,-3565.2752L13460.9902,-3565.2744L13460.9902,-3565.2729L13460.9909,-3565.2707L13460.9923,-3565.2699L13460.9944,-3565.2684L13460.9954,-3565.2679L13460.9963,-3565.2672L13460.9972,-3565.2658L13460.9982,-3565.2653L13460.9989,-3565.2642L13460.9984,-3565.2623L13460.9991,-3565.2623L13460.9991,-3565.2612L13460.9984,-3565.2593L13460.9972,-3565.259L13460.9952,-3565.2589L13460.9942,-3565.2581L13460.993,-3565.2581L13460.9909,-3565.26L13460.9896,-3565.2601L13460.9886,-3565.2608L13460.9879,-3565.2616L13460.9862,-3565.263L13460.9852,-3565.2626L13460.9829,-3565.2642L13460.9814,-3565.2648L13460.9803,-3565.2657L13460.9779,-3565.2673L13460.9769,-3565.2681L13460.9755,-3565.2687L13460.9751,-3565.2687L13460.9742,-3565.2706L13460.9728,-3565.2718L13460.9723,-3565.2724L13460.9731,-3565.2726L13460.974,-3565.2725L13460.9751,-3565.2727L13460.9741,-3565.273L13460.9732,-3565.2737L13460.972,-3565.2736L13460.9709,-3565.2742L13460.9714,-3565.2761L13460.9704,-3565.2766L13460.9695,-3565.2779L13460.9694,-3565.2789L13460.9695,-3565.2799L13460.9708,-3565.28L13460.972,-3565.2809L13460.9715,-3565.2814L13460.9719,-3565.2822L13460.9696,-3565.2832L13460.9674,-3565.2852L13460.9676,-3565.2863L13460.9671,-3565.2872L13460.9671,-3565.2883L13460.9668,-3565.289L13460.9673,-3565.2897L13460.9687,-3565.2905L13460.9701,-3565.2905L13460.9708,-3565.2915L13460.9712,-3565.2923L13460.9713,-3565.2935L13460.9726,-3565.294L13460.9754,-3565.2944L13460.9781,-3565.2932L13460.9794,-3565.2933L13460.9802,-3565.2941L13460.9785,-3565.2962L13460.9773,-3565.2967L13460.9764,-3565.2976L13460.975,-3565.298L13460.9736,-3565.2989L13460.9729,-3565.2999L13460.9721,-3565.3003L13460.9708,-3565.3005L13460.9715,-3565.3012L13460.9703,-3565.3016L13460.9675,-3565.302L13460.9668,-3565.303L13460.9672,-3565.3042L13460.967,-3565.3053L13460.9659,-3565.3065L13460.9656,-3565.3075L13460.9647,-3565.3086L13460.9645,-3565.3085L13460.9642,-3565.3095L13460.9649,-3565.3106L13460.966,-3565.3115L13460.967,-3565.3106Z"/>
<path content="兵庫県,,美方郡,香美町,,28585" xlink:title="兵庫県" d="M13460.8432,-3565.4022L13460.8447,-3565.4L13460.8473,-3565.4004L13460.8495,-3565.4L13460.85,-3565.399L13460.8511,-3565.3986L13460.8516,-3565.3975L13460.8518,-3565.3952L13460.8523,-3565.3941L13460.8528,-3565.392L13460.8533,-3565.3912L13460.8534,-3565.39L13460.8539,-3565.3882L13460.8537,-3565.3873L13460.8549,-3565.3866L13460.8556,-3565.3854L13460.8567,-3565.3833L13460.8573,-3565.3815L13460.8574,-3565.3806L13460.8566,-3565.3796L13460.8569,-3565.3788L13460.8561,-3565.3783L13460.8535,-3565.3781L13460.8523,-3565.3769L13460.85,-3565.3764L13460.8494,-3565.3766L13460.8484,-3565.3757L13460.8459,-3565.3745L13460.8449,-3565.3746L13460.8436,-3565.375L13460.8432,-3565.3761L13460.8412,-3565.3769L13460.8403,-3565.3775L13460.8394,-3565.3783L13460.8394,-3565.3795L13460.8391,-3565.3806L13460.8382,-3565.3813L13460.8379,-3565.3825L13460.8368,-3565.3833L13460.8354,-3565.3835L13460.8351,-3565.3857L13460.8344,-3565.3868L13460.8349,-3565.3878L13460.8339,-3565.3886L13460.8336,-3565.3909L13460.8333,-3565.3914L13460.8332,-3565.3918L13460.8333,-3565.3922L13460.8334,-3565.3924L13460.8361,-3565.3931L13460.837,-3565.3941L13460.8381,-3565.3946L13460.837,-3565.3955L13460.8367,-3565.3966L13460.837,-3565.3989L13460.8379,-3565.3994L13460.8374,-3565.4009L13460.8374,-3565.4022L13460.8378,-3565.4035L13460.837,-3565.404L13460.8361,-3565.4071L13460.8369,-3565.4082L13460.8373,-3565.4092L13460.8378,-3565.4094L13460.8388,-3565.4101L13460.8402,-3565.4104L13460.8413,-3565.4095L13460.8425,-3565.4092L13460.8429,-3565.4081L13460.8437,-3565.4075L13460.844,-3565.4065L13460.8437,-3565.4042L13460.8439,-3565.4031L13460.8432,-3565.4022Z"/>
<path content="兵庫県,,美方郡,香美町,,28585" xlink:title="兵庫県" d="M13461.3908,-3564.8995L13461.3911,-3564.8982L13461.3931,-3564.895L13461.3943,-3564.8937L13461.3948,-3564.8926L13461.395,-3564.8916L13461.3943,-3564.8906L13461.393,-3564.8903L13461.3916,-3564.8906L13461.3902,-3564.8902L13461.389,-3564.8893L13461.3877,-3564.8886L13461.385,-3564.8889L13461.3839,-3564.8892L13461.3827,-3564.8892L13461.3816,-3564.8888L13461.3802,-3564.8888L13461.3788,-3564.8895L13461.3776,-3564.8898L13461.3762,-3564.8908L13461.3743,-3564.8914L13461.3711,-3564.8929L13461.3694,-3564.8932L13461.3694,-3564.8934L13461.3678,-3564.8937L13461.3664,-3564.8941L13461.365,-3564.8951L13461.364,-3564.8949L13461.3626,-3564.8955L13461.3624,-3564.8962L13461.3615,-3564.8967L13461.3606,-3564.8983L13461.361,-3564.8995L13461.3631,-3564.9007L13461.3645,-3564.9008L13461.3659,-3564.9007L13461.3671,-3564.8998L13461.3685,-3564.8995L13461.3699,-3564.8989L13461.3712,-3564.8989L13461.3724,-3564.8985L13461.3738,-3564.8985L13461.375,-3564.8988L13461.3763,-3564.8995L13461.3768,-3564.9006L13461.377,-3564.9029L13461.3773,-3564.9029L13461.3773,-3564.9042L13461.3781,-3564.9051L13461.3779,-3564.9072L13461.3787,-3564.9082L13461.3801,-3564.9086L13461.3814,-3564.9086L13461.3829,-3564.908L13461.3857,-3564.9038L13461.3879,-3564.9028L13461.3908,-3564.8995Z"/>
<path content="兵庫県,,美方郡,香美町,,28585" xlink:title="兵庫県" d="M13461.4071,-3564.8977L13461.412,-3564.8954L13461.4132,-3564.896L13461.416,-3564.8958L13461.4173,-3564.8951L13461.4173,-3564.894L13461.4167,-3564.8928L13461.4158,-3564.8922L13461.4132,-3564.892L13461.412,-3564.8915L13461.4099,-3564.8903L13461.4082,-3564.8899L13461.4044,-3564.8902L13461.4022,-3564.891L13461.4011,-3564.8921L13461.4006,-3564.8933L13461.3996,-3564.8967L13461.3994,-3564.8979L13461.3996,-3564.9002L13461.399,-3564.9013L13461.3991,-3564.9025L13461.3996,-3564.9035L13461.3989,-3564.9042L13461.3984,-3564.905L13461.3982,-3564.9062L13461.3984,-3564.9073L13461.397,-3564.9106L13461.3955,-3564.9148L13461.3952,-3564.9163L13461.3955,-3564.9174L13461.3972,-3564.9196L13461.3984,-3564.9206L13461.3996,-3564.9213L13461.4007,-3564.9213L13461.4012,-3564.921L13461.4016,-3564.9188L13461.401,-3564.9179L13461.4017,-3564.9163L13461.4015,-3564.9152L13461.4028,-3564.9142L13461.4031,-3564.9129L13461.4045,-3564.9117L13461.4052,-3564.9106L13461.4061,-3564.9096L13461.4059,-3564.9086L13461.4064,-3564.9073L13461.4057,-3564.9063L13461.4062,-3564.905L13461.4057,-3564.9042L13461.4062,-3564.903L13461.4059,-3564.9021L13461.4059,-3564.9009L13461.4055,-3564.8997L13461.4066,-3564.8987L13461.4071,-3564.8977Z"/>
<path content="兵庫県,,美方郡,香美町,,28585" xlink:title="兵庫県" d="M13461.483,-3564.763L13461.4805,-3564.7615L13461.479,-3564.7617L13461.4783,-3564.7623L13461.4779,-3564.7646L13461.4781,-3564.7658L13461.4787,-3564.7669L13461.4785,-3564.7677L13461.4785,-3564.7705L13461.4796,-3564.7741L13461.4806,-3564.7755L13461.4817,-3564.7765L13461.4839,-3564.7778L13461.4853,-3564.7788L13461.488,-3564.7804L13461.4894,-3564.7812L13461.4908,-3564.7816L13461.4934,-3564.7833L13461.4962,-3564.7849L13461.4975,-3564.7851L13461.4987,-3564.7844L13461.4998,-3564.7832L13461.4994,-3564.7825L13461.4998,-3564.7816L13461.4996,-3564.7805L13461.4989,-3564.7794L13461.4977,-3564.7784L13461.4961,-3564.7765L13461.495,-3564.7758L13461.4945,-3564.7748L13461.4931,-3564.7738L13461.4925,-3564.7726L13461.4914,-3564.7711L13461.4888,-3564.769L13461.4881,-3564.7676L13461.483,-3564.763Z"/>
<path content="兵庫県,,美方郡,香美町,,28585" xlink:title="兵庫県" d="M13461.271,-3564.9366L13461.2687,-3564.9366L13461.266,-3564.9367L13461.2654,-3564.9373L13461.2646,-3564.9393L13461.2645,-3564.9417L13461.2641,-3564.9433L13461.2627,-3564.9454L13461.2627,-3564.947L13461.2627,-3564.9481L13461.2617,-3564.9503L13461.2605,-3564.9525L13461.2595,-3564.9551L13461.2595,-3564.9562L13461.2604,-3564.9572L13461.2618,-3564.9578L13461.2639,-3564.9579L13461.2656,-3564.9579L13461.267,-3564.9575L13461.2678,-3564.9565L13461.268,-3564.9552L13461.2685,-3564.9536L13461.2696,-3564.9522L13461.2702,-3564.9502L13461.2709,-3564.9484L13461.2717,-3564.9471L13461.2727,-3564.946L13461.2747,-3564.9449L13461.2765,-3564.9436L13461.2783,-3564.9423L13461.2786,-3564.9416L13461.2785,-3564.9411L13461.2775,-3564.9401L13461.2756,-3564.9391L13461.2745,-3564.9384L13461.2733,-3564.9378L13461.2717,-3564.9369L13461.271,-3564.9366Z"/>
<path content="兵庫県,,美方郡,香美町,,28585" xlink:title="兵庫県" d="M13461.4248,-3564.4507L13461.4241,-3564.4506L13461.4222,-3564.4511L13461.4202,-3564.4514L13461.4192,-3564.4523L13461.418,-3564.453L13461.418,-3564.4538L13461.4183,-3564.4555L13461.4184,-3564.4566L13461.4192,-3564.4571L13461.4203,-3564.4577L13461.4209,-3564.4581L13461.4216,-3564.4593L13461.423,-3564.46L13461.4251,-3564.4603L13461.4259,-3564.4609L13461.4271,-3564.4619L13461.429,-3564.4622L13461.4305,-3564.4628L13461.4314,-3564.4639L13461.4328,-3564.4645L13461.4338,-3564.4649L13461.4372,-3564.4643L13461.4393,-3564.463L13461.4418,-3564.4606L13461.4417,-3564.4599L13461.441,-3564.4579L13461.4402,-3564.4568L13461.4375,-3564.4554L13461.4358,-3564.4552L13461.4322,-3564.4552L13461.4291,-3564.4551L13461.4283,-3564.4547L13461.4281,-3564.4529L13461.4274,-3564.4522L13461.4248,-3564.4507Z"/>
<path content="兵庫県,,美方郡,香美町,,28585" xlink:title="兵庫県" d="M13461.0039,-3565.3899L13460.9922,-3565.3893L13460.9881,-3565.3921L13460.9881,-3565.3966L13460.9964,-3565.4006L13461.0019,-3565.4L13461.0067,-3565.3961L13461.0074,-3565.3944L13461.006,-3565.3916L13461.0039,-3565.3899Z"/>
<path content="兵庫県,,美方郡,香美町,,28585" xlink:title="兵庫県" d="M13461.1649,-3565.1004L13461.1663,-3565.0998L13461.1672,-3565.0988L13461.168,-3565.0966L13461.1681,-3565.0955L13461.1679,-3565.0944L13461.1684,-3565.0925L13461.1673,-3565.0922L13461.1676,-3565.0915L13461.1667,-3565.0897L13461.1655,-3565.0895L13461.1635,-3565.0877L13461.1612,-3565.0867L13461.1594,-3565.0864L13461.1584,-3565.0857L13461.1571,-3565.0856L13461.1544,-3565.0864L13461.1535,-3565.0872L13461.1511,-3565.0888L13461.1505,-3565.0897L13461.1531,-3565.0916L13461.1544,-3565.0917L13461.1554,-3565.0923L13461.1555,-3565.0934L13461.1563,-3565.0958L13461.1572,-3565.0978L13461.1583,-3565.0988L13461.1599,-3565.0997L13461.1612,-3565.1L13461.1628,-3565.1L13461.1649,-3565.1004Z"/>
<path content="兵庫県,,美方郡,香美町,,28585" xlink:title="兵庫県" d="M13461.3719,-3564.87L13461.3733,-3564.8698L13461.3761,-3564.8705L13461.3774,-3564.8702L13461.3802,-3564.8703L13461.3816,-3564.8699L13461.383,-3564.869L13461.3849,-3564.8684L13461.3874,-3564.8664L13461.3875,-3564.8654L13461.3865,-3564.8647L13461.3851,-3564.8647L13461.3838,-3564.8644L13461.3819,-3564.8643L13461.3809,-3564.864L13461.3794,-3564.8645L13461.3767,-3564.8644L13461.3749,-3564.8647L13461.3737,-3564.8642L13461.3696,-3564.8635L13461.3684,-3564.8642L13461.3672,-3564.8646L13461.366,-3564.8656L13461.3653,-3564.8668L13461.3637,-3564.8675L13461.3626,-3564.8685L13461.3621,-3564.8696L13461.3611,-3564.8705L13461.3611,-3564.8716L13461.3616,-3564.8725L13461.3625,-3564.8732L13461.3639,-3564.8731L13461.3653,-3564.8723L13461.3681,-3564.8715L13461.3692,-3564.8705L13461.3719,-3564.87Z"/>
<path content="兵庫県,,美方郡,香美町,,28585" xlink:title="兵庫県" d="M13460.8333,-3565.3724L13460.8322,-3565.3724L13460.826,-3565.3769L13460.8253,-3565.3876L13460.8301,-3565.3871L13460.8333,-3565.3838L13460.8384,-3565.3786L13460.8391,-3565.3752L13460.837,-3565.3724L13460.8333,-3565.3724Z"/>
<path content="兵庫県,,美方郡,香美町,,28585" xlink:title="兵庫県" d="M13460.9853,-3565.314L13460.9863,-3565.3133L13460.987,-3565.3124L13460.9879,-3565.3119L13460.9888,-3565.3126L13460.99,-3565.313L13460.991,-3565.3127L13460.9916,-3565.3116L13460.9929,-3565.3094L13460.9929,-3565.3091L13460.9941,-3565.3085L13460.9958,-3565.3083L13460.9966,-3565.3071L13460.9975,-3565.3066L13460.998,-3565.3056L13460.9976,-3565.3043L13460.997,-3565.3033L13460.9961,-3565.3028L13460.995,-3565.303L13460.9942,-3565.3036L13460.9919,-3565.3031L13460.9905,-3565.3034L13460.9894,-3565.3041L13460.9882,-3565.3041L13460.9874,-3565.3049L13460.9862,-3565.3071L13460.9849,-3565.3067L13460.9837,-3565.3074L13460.9838,-3565.3085L13460.9818,-3565.3092L13460.981,-3565.31L13460.9808,-3565.3107L13460.9802,-3565.3114L13460.9791,-3565.3123L13460.9782,-3565.3128L13460.9775,-3565.3138L13460.9776,-3565.3144L13460.978,-3565.3146L13460.979,-3565.3145L13460.9798,-3565.3143L13460.9806,-3565.3138L13460.981,-3565.3136L13460.9816,-3565.3146L13460.983,-3565.3149L13460.984,-3565.3147L13460.9852,-3565.3143L13460.9853,-3565.314Z"/>
<path content="兵庫県,,美方郡,香美町,,28585" xlink:title="兵庫県" d="M13460.8412,-3565.347L13460.8391,-3565.3448L13460.8356,-3565.3453L13460.8333,-3565.3472L13460.8329,-3565.3476L13460.8308,-3565.3549L13460.8333,-3565.3566L13460.8343,-3565.3572L13460.8405,-3565.3549L13460.8432,-3565.3532L13460.8439,-3565.3482L13460.8412,-3565.347Z"/>
<path content="兵庫県,,美方郡,香美町,,28585" xlink:title="兵庫県" d="M13460.8392,-3565.4214L13460.8383,-3565.4208L13460.8371,-3565.4208L13460.8352,-3565.4224L13460.834,-3565.4227L13460.8333,-3565.4234L13460.8331,-3565.4237L13460.8328,-3565.4248L13460.8329,-3565.426L13460.8322,-3565.4264L13460.8322,-3565.4273L13460.8326,-3565.4284L13460.8329,-3565.4307L13460.8326,-3565.4327L13460.8323,-3565.4339L13460.8309,-3565.4359L13460.83,-3565.4374L13460.8298,-3565.4383L13460.828,-3565.4393L13460.8269,-3565.4405L13460.8269,-3565.4414L13460.8263,-3565.4424L13460.8267,-3565.4432L13460.8268,-3565.4439L13460.8262,-3565.4446L13460.8261,-3565.4452L13460.8263,-3565.4458L13460.8274,-3565.4459L13460.8284,-3565.4456L13460.8286,-3565.4447L13460.8303,-3565.4429L13460.83,-3565.4422L13460.8314,-3565.4416L13460.8326,-3565.4392L13460.8332,-3565.4374L13460.8333,-3565.4373L13460.834,-3565.4366L13460.8352,-3565.4347L13460.8351,-3565.4336L13460.8361,-3565.4327L13460.8368,-3565.4316L13460.8372,-3565.4304L13460.8372,-3565.429L13460.838,-3565.428L13460.8385,-3565.4264L13460.8392,-3565.4255L13460.8394,-3565.4233L13460.8396,-3565.4225L13460.8392,-3565.4214Z"/>
<path content="兵庫県,,美方郡,香美町,,28585" xlink:title="兵庫県" d="M13461.3154,-3564.9008L13461.3141,-3564.9004L13461.3134,-3564.9006L13461.313,-3564.9014L13461.3124,-3564.9018L13461.3111,-3564.9024L13461.3104,-3564.903L13461.3102,-3564.904L13461.3094,-3564.9049L13461.3085,-3564.9065L13461.3082,-3564.9084L13461.3079,-3564.9099L13461.307,-3564.9121L13461.3069,-3564.9126L13461.3074,-3564.9134L13461.308,-3564.9138L13461.3087,-3564.9143L13461.3097,-3564.9148L13461.3108,-3564.9143L13461.3118,-3564.9142L13461.3136,-3564.9129L13461.3143,-3564.9116L13461.3159,-3564.9094L13461.3168,-3564.9079L13461.3175,-3564.9057L13461.3178,-3564.9036L13461.3177,-3564.9028L13461.3175,-3564.902L13461.317,-3564.9012L13461.316,-3564.901L13461.3154,-3564.9008Z"/>
<path content="兵庫県,,美方郡,香美町,,28585" xlink:title="兵庫県" d="M13461.3414,-3564.9007L13461.3415,-3564.8996L13461.3412,-3564.8984L13461.3398,-3564.8964L13461.3385,-3564.896L13461.338,-3564.8953L13461.3368,-3564.8947L13461.3354,-3564.8943L13461.3347,-3564.8946L13461.334,-3564.8944L13461.3336,-3564.8942L13461.3333,-3564.8946L13461.3321,-3564.8952L13461.331,-3564.896L13461.3312,-3564.8975L13461.3336,-3564.9005L13461.3347,-3564.9L13461.3347,-3564.9007L13461.3354,-3564.9019L13461.3375,-3564.9041L13461.3399,-3564.9054L13461.3412,-3564.9054L13461.3419,-3564.9046L13461.3419,-3564.9039L13461.3423,-3564.9029L13461.3421,-3564.9017L13461.3414,-3564.9007Z"/>
<path content="兵庫県,,美方郡,香美町,,28585" xlink:title="兵庫県" d="M13460.8203,-3565.4556L13460.8197,-3565.4554L13460.8185,-3565.4556L13460.8172,-3565.4567L13460.8165,-3565.4575L13460.8163,-3565.4587L13460.8151,-3565.4594L13460.8147,-3565.4601L13460.8142,-3565.4609L13460.8134,-3565.4617L13460.8128,-3565.4633L13460.8128,-3565.4641L13460.8123,-3565.4645L13460.8123,-3565.4655L13460.8116,-3565.4662L13460.8109,-3565.467L13460.8108,-3565.468L13460.8107,-3565.469L13460.81,-3565.4693L13460.8094,-3565.4699L13460.8093,-3565.4708L13460.8093,-3565.4713L13460.8095,-3565.4716L13460.8103,-3565.4718L13460.8118,-3565.4716L13460.8127,-3565.4711L13460.8143,-3565.4694L13460.8154,-3565.4682L13460.8157,-3565.4675L13460.8169,-3565.4669L13460.8171,-3565.4662L13460.8171,-3565.4652L13460.818,-3565.4642L13460.8178,-3565.4632L13460.8189,-3565.4626L13460.8189,-3565.4619L13460.8196,-3565.461L13460.8194,-3565.4587L13460.8203,-3565.4582L13460.8204,-3565.4579L13460.8204,-3565.4569L13460.8203,-3565.4556Z"/>
<path content="兵庫県,,美方郡,香美町,,28585" xlink:title="兵庫県" d="M13460.9398,-3565.4124L13460.935,-3565.4124L13460.9308,-3565.4158L13460.9322,-3565.4209L13460.9371,-3565.4209L13460.9412,-3565.4175L13460.9412,-3565.4141L13460.9398,-3565.4124Z"/>
<path content="兵庫県,,美方郡,香美町,,28585" xlink:title="兵庫県" d="M13461.4646,-3564.8121L13461.4636,-3564.8115L13461.462,-3564.8112L13461.4606,-3564.8116L13461.4583,-3564.8107L13461.4569,-3564.8105L13461.4555,-3564.8108L13461.4548,-3564.8115L13461.4552,-3564.8124L13461.4566,-3564.8132L13461.459,-3564.8151L13461.4611,-3564.8165L13461.4647,-3564.8175L13461.4663,-3564.8188L13461.4676,-3564.8191L13461.469,-3564.8186L13461.4698,-3564.8166L13461.4694,-3564.8155L13461.4685,-3564.8145L13461.4674,-3564.8138L13461.4666,-3564.8129L13461.466,-3564.8122L13461.4646,-3564.8121Z"/>
<path content="兵庫県,,美方郡,香美町,,28585" xlink:title="兵庫県" d="M13460.9481,-3565.4547L13460.946,-3565.4547L13460.9426,-3565.4575L13460.9426,-3565.4597L13460.9501,-3565.4637L13460.9529,-3565.4626L13460.9508,-3565.4564L13460.9481,-3565.4547Z"/>
<path content="兵庫県,,美方郡,香美町,,28585" xlink:title="兵庫県" d="M13461.1516,-3564.8454L13461.1461,-3564.8454L13461.1433,-3564.8477L13461.144,-3564.85L13461.1482,-3564.8517L13461.1537,-3564.8511L13461.1544,-3564.8477L13461.1516,-3564.8454Z"/>
<path content="兵庫県,,美方郡,香美町,,28585" xlink:title="兵庫県" d="M13461.3374,-3564.9249L13461.3388,-3564.9245L13461.3391,-3564.9234L13461.3383,-3564.9226L13461.3383,-3564.9214L13461.3368,-3564.921L13461.3356,-3564.9212L13461.3341,-3564.9211L13461.3331,-3564.9208L13461.3326,-3564.9208L13461.3321,-3564.9209L13461.3315,-3564.9212L13461.331,-3564.9209L13461.3304,-3564.9206L13461.3298,-3564.9205L13461.3289,-3564.9208L13461.3279,-3564.9215L13461.3271,-3564.922L13461.3264,-3564.9223L13461.3265,-3564.9234L13461.3266,-3564.9243L13461.3269,-3564.9251L13461.3277,-3564.9257L13461.3293,-3564.9257L13461.3307,-3564.9249L13461.3318,-3564.9249L13461.3345,-3564.9258L13461.3358,-3564.9259L13461.3374,-3564.9249Z"/>
<path content="兵庫県,,美方郡,香美町,,28585" xlink:title="兵庫県" d="M13460.8481,-3565.4107L13460.8439,-3565.4107L13460.8418,-3565.413L13460.8432,-3565.4169L13460.8474,-3565.4158L13460.8487,-3565.4147L13460.8494,-3565.4119L13460.8481,-3565.4107Z"/>
<path content="兵庫県,,美方郡,香美町,,28585" xlink:title="兵庫県" d="M13460.8777,-3565.0968L13460.8729,-3565.0963L13460.8701,-3565.0985L13460.8701,-3565.0996L13460.8756,-3565.1013L13460.8791,-3565.0991L13460.8777,-3565.0968Z"/>
<path content="兵庫県,,美方郡,香美町,,28585" xlink:title="兵庫県" d="M13461.1185,-3564.9035L13461.1151,-3564.9035L13461.1123,-3564.9058L13461.113,-3564.9086L13461.1178,-3564.908L13461.1199,-3564.9058L13461.1185,-3564.9035Z"/>
<path content="兵庫県,,美方郡,香美町,,28585" xlink:title="兵庫県" d="M13461.2703,-3564.8962L13461.2675,-3564.8934L13461.2647,-3564.8951L13461.2668,-3564.9007L13461.2696,-3564.8996L13461.2703,-3564.8962Z"/>
<path content="兵庫県,,美方郡,香美町,,28585" xlink:title="兵庫県" d="M13461.241,-3565.052L13461.2383,-3565.0513L13461.2372,-3565.0518L13461.236,-3565.0522L13461.236,-3565.055L13461.2376,-3565.0569L13461.2386,-3565.0571L13461.2395,-3565.0563L13461.2408,-3565.0542L13461.2412,-3565.0531L13461.241,-3565.052Z"/>
<path content="兵庫県,,美方郡,香美町,,28585" xlink:title="兵庫県" d="M13460.9205,-3565.3358L13460.9171,-3565.3341L13460.915,-3565.3358L13460.9177,-3565.3397L13460.9205,-3565.3386L13460.9205,-3565.3358Z"/>
<path content="兵庫県,,美方郡,香美町,,28585" xlink:title="兵庫県" d="M13461.1962,-3564.8313L13461.1976,-3564.8306L13461.1983,-3564.8296L13461.1982,-3564.8285L13461.1971,-3564.8279L13461.1957,-3564.8275L13461.1943,-3564.8278L13461.1931,-3564.8282L13461.1924,-3564.8289L13461.1925,-3564.829L13461.1924,-3564.8312L13461.1922,-3564.8312L13461.1933,-3564.8316L13461.195,-3564.8316L13461.1962,-3564.8313Z"/>
<path content="兵庫県,,美方郡,香美町,,28585" xlink:title="兵庫県" d="M13461.1587,-3564.836L13461.158,-3564.8359L13461.1572,-3564.8362L13461.1566,-3564.8371L13461.1558,-3564.8379L13461.1555,-3564.8382L13461.1559,-3564.8389L13461.1557,-3564.8396L13461.1558,-3564.84L13461.1571,-3564.8402L13461.1579,-3564.84L13461.1591,-3564.8393L13461.1597,-3564.8389L13461.1599,-3564.8383L13461.1599,-3564.8377L13461.1597,-3564.8367L13461.1592,-3564.8363L13461.1587,-3564.836Z"/>
<path content="兵庫県,,美方郡,香美町,,28585" xlink:title="兵庫県" d="M13461.1132,-3564.9006L13461.1127,-3564.9004L13461.1114,-3564.9006L13461.111,-3564.9011L13461.1102,-3564.9021L13461.1101,-3564.903L13461.1095,-3564.9038L13461.1097,-3564.9046L13461.1101,-3564.9051L13461.1114,-3564.905L13461.1117,-3564.9047L13461.1121,-3564.9044L13461.1124,-3564.9035L13461.1129,-3564.9026L13461.1133,-3564.902L13461.1134,-3564.901L13461.1132,-3564.9006Z"/>
<path content="兵庫県,,美方郡,香美町,,28585" xlink:title="兵庫県" d="M13460.9661,-3565.2798L13460.9651,-3565.2795L13460.9643,-3565.2799L13460.9634,-3565.281L13460.9639,-3565.2812L13460.9645,-3565.282L13460.9645,-3565.2825L13460.9657,-3565.2836L13460.9663,-3565.2833L13460.9676,-3565.2824L13460.9676,-3565.2816L13460.9673,-3565.2805L13460.9661,-3565.2798Z"/>
<path content="兵庫県,,美方郡,香美町,,28585" xlink:title="兵庫県" d="M13461.1046,-3564.9167L13461.1039,-3564.9167L13461.1028,-3564.9172L13461.1019,-3564.918L13461.1018,-3564.9185L13461.1019,-3564.9194L13461.1022,-3564.9199L13461.103,-3564.9202L13461.1044,-3564.9202L13461.1051,-3564.9198L13461.1054,-3564.9188L13461.1053,-3564.9179L13461.1051,-3564.9174L13461.1046,-3564.9167Z"/>
<path content="兵庫県,,美方郡,香美町,,28585" xlink:title="兵庫県" d="M13461.0938,-3564.897L13461.0934,-3564.897L13461.0926,-3564.8973L13461.0925,-3564.8976L13461.0925,-3564.8983L13461.0928,-3564.8992L13461.0928,-3564.9003L13461.093,-3564.9007L13461.0936,-3564.9009L13461.0943,-3564.9008L13461.0951,-3564.9006L13461.0955,-3564.8996L13461.0954,-3564.8989L13461.0952,-3564.8986L13461.0946,-3564.8981L13461.0946,-3564.8977L13461.0938,-3564.897Z"/>
<path content="兵庫県,,美方郡,香美町,,28585" xlink:title="兵庫県" d="M13461.1161,-3564.8718L13461.1155,-3564.8714L13461.1143,-3564.8714L13461.113,-3564.8718L13461.1124,-3564.872L13461.1126,-3564.8726L13461.1135,-3564.873L13461.1143,-3564.8729L13461.1153,-3564.8726L13461.1161,-3564.8718Z"/>
<path content="兵庫県,,美方郡,香美町,,28585" xlink:title="兵庫県" d="M13461.1103,-3564.8807L13461.1089,-3564.8805L13461.1082,-3564.8811L13461.1077,-3564.8813L13461.1078,-3564.8819L13461.1087,-3564.8822L13461.1098,-3564.8823L13461.1106,-3564.8819L13461.1107,-3564.8812L13461.1103,-3564.8807Z"/>
<path content="兵庫県,,美方郡,香美町,,28585" xlink:title="兵庫県" d="M13461.1047,-3564.8835L13461.1046,-3564.8832L13461.1036,-3564.8833L13461.1025,-3564.8837L13461.1019,-3564.884L13461.1024,-3564.8845L13461.1028,-3564.8846L13461.1038,-3564.8844L13461.1047,-3564.884L13461.1047,-3564.8835Z"/>
<path content="兵庫県,,美方郡,香美町,,28585" xlink:title="兵庫県" d="M13461.0706,-3564.9037L13461.0701,-3564.9036L13461.0694,-3564.9041L13461.0686,-3564.9041L13461.0682,-3564.9044L13461.0682,-3564.9047L13461.0682,-3564.905L13461.0686,-3564.9052L13461.0697,-3564.9049L13461.0706,-3564.9045L13461.0707,-3564.9042L13461.0706,-3564.9037Z"/>
<path content="兵庫県,,美方郡,香美町,,28585" xlink:title="兵庫県" d="M13461.0882,-3564.8837L13461.0882,-3564.8831L13461.0871,-3564.8833L13461.0865,-3564.8838L13461.0862,-3564.8843L13461.0868,-3564.8846L13461.0878,-3564.8841L13461.0882,-3564.8837Z"/>
<path content="兵庫県,,美方郡,香美町,,28585" xlink:title="兵庫県" d="M13461.0703,-3564.8926L13461.0695,-3564.8925L13461.0686,-3564.893L13461.0685,-3564.8936L13461.0694,-3564.8935L13461.0701,-3564.8931L13461.0703,-3564.8926Z"/>
<path content="兵庫県,,美方郡,香美町,,28585" xlink:title="兵庫県" d="M13461.0769,-3564.8955L13461.0765,-3564.8952L13461.0762,-3564.8952L13461.0759,-3564.8955L13461.0757,-3564.8959L13461.0757,-3564.8962L13461.076,-3564.8965L13461.0767,-3564.8963L13461.077,-3564.8959L13461.0769,-3564.8955Z"/>
</g>
</svg>
