<?xml version="1.0" encoding="UTF-8"?>
<svg  xmlns="http://www.w3.org/2000/svg" xmlns:xlink="http://www.w3.org/1999/xlink" xmlns:go="http://purl.org/svgmap/profile" property="geometry,N03_001,N03_002,N03_003,N03_004,N03_005,N03_007" viewBox="13594.482421875 -3361.81640625 1.0986328125 1.0986328125" go:dataArea="13594.482421875 -3361.81640625 1.0986328125 1.0986328125" >
<metadata>
 <rdf:RDF xmlns:rdf="http://www.w3.org/1999/02/22-rdf-syntax-ns#" xmlns:crs="http://opengis.org/xmldtds/transformations.dtd" xmlns:svg="http://www.w3.org/svg" >
  <rdf:Description>
   <crs:CoordinateReferenceSystem rdf:resource="http://purl.org/crs/84" svg:transform="matrix(100.0,0.0,0.0,-100.0,0.0,0.0)" />
  </rdf:Description>
 </rdf:RDF>
</metadata>
<globalCoordinateSystem srsName="http://purl.org/crs/84" transform="matrix(100.0,0.0,0.0,-100.0,0.0,0.0)" />
<defs>
 <g id="p0" >
  <circle cx="0.0" cy="0.0" r="3" stroke="green" stroke-width="2.0" vector-effect="non-scaling-stroke" />
 </g>
</defs>
<g fill="#0000ff" fill-rule="evenodd" opacity="0.5" >
<path content="和歌山県,,東牟婁郡,那智勝浦町,,30421" xlink:title="和歌山県" d="M13594.4824,-3361.8164L13595.1648,-3361.8164L13595.1643,-3361.8152L13595.1638,-3361.8145L13595.1631,-3361.8136L13595.1624,-3361.8128L13595.1621,-3361.8125L13595.1608,-3361.8117L13595.1589,-3361.8106L13595.1563,-3361.809L13595.1711,-3361.7655L13595.1737,-3361.7567L13595.1675,-3361.7557L13595.1491,-3361.8138L13595.151,-3361.8147L13595.1513,-3361.8159L13595.1515,-3361.8164L13594.5406,-3361.8164L13594.5404,-3361.816L13594.5402,-3361.8154L13594.5402,-3361.8151L13594.5402,-3361.8136L13594.5403,-3361.8127L13594.5404,-3361.8118L13594.5406,-3361.8111L13594.5408,-3361.8108L13594.5417,-3361.8098L13594.5421,-3361.8095L13594.5426,-3361.809L13594.5428,-3361.8088L13594.5431,-3361.8088L13594.5432,-3361.8088L13594.5433,-3361.8088L13594.5436,-3361.809L13594.5441,-3361.8094L13594.5444,-3361.8095L13594.5447,-3361.8095L13594.545,-3361.8094L13594.5454,-3361.8092L13594.546,-3361.8088L13594.5471,-3361.8078L13594.5475,-3361.8074L13594.5478,-3361.8073L13594.5483,-3361.8072L13594.5489,-3361.8073L13594.5504,-3361.8076L13594.5509,-3361.8077L13594.5516,-3361.8076L13594.5522,-3361.8074L13594.5526,-3361.8072L13594.553,-3361.8069L13594.5534,-3361.8064L13594.5536,-3361.806L13594.5536,-3361.8056L13594.5536,-3361.8053L13594.5535,-3361.8052L13594.5534,-3361.8051L13594.5531,-3361.8049L13594.5527,-3361.8047L13594.5512,-3361.8044L13594.5484,-3361.8037L13594.5481,-3361.8037L13594.5477,-3361.8035L13594.5475,-3361.8033L13594.5474,-3361.8031L13594.5473,-3361.8026L13594.5473,-3361.8021L13594.5471,-3361.802L13594.5469,-3361.8019L13594.5466,-3361.802L13594.5453,-3361.8024L13594.5441,-3361.8027L13594.5436,-3361.8028L13594.543,-3361.8027L13594.5425,-3361.8026L13594.5421,-3361.8024L13594.5418,-3361.8022L13594.5417,-3361.802L13594.5416,-3361.8017L13594.5416,-3361.8014L13594.5416,-3361.8011L13594.5417,-3361.8008L13594.5419,-3361.8006L13594.5421,-3361.8005L13594.5423,-3361.8004L13594.5426,-3361.8003L13594.5436,-3361.8003L13594.544,-3361.8003L13594.5443,-3361.8001L13594.5445,-3361.8L13594.5448,-3361.7996L13594.5451,-3361.7987L13594.5454,-3361.7977L13594.5454,-3361.7973L13594.5454,-3361.797L13594.5453,-3361.7969L13594.5451,-3361.7968L13594.5448,-3361.7967L13594.5439,-3361.7964L13594.5432,-3361.7962L13594.5429,-3361.796L13594.5427,-3361.7957L13594.5426,-3361.7955L13594.5426,-3361.7952L13594.5427,-3361.7947L13594.5429,-3361.7944L13594.543,-3361.7943L13594.5439,-3361.7933L13594.544,-3361.7931L13594.544,-3361.793L13594.5439,-3361.7929L13594.5437,-3361.7928L13594.5432,-3361.7927L13594.5423,-3361.7927L13594.5415,-3361.7928L13594.5408,-3361.793L13594.5392,-3361.7937L13594.5383,-3361.7939L13594.5376,-3361.794L13594.5371,-3361.794L13594.5369,-3361.7939L13594.5367,-3361.7938L13594.5365,-3361.7936L13594.5364,-3361.7932L13594.5364,-3361.7923L13594.5366,-3361.7887L13594.5365,-3361.7878L13594.5364,-3361.7867L13594.5362,-3361.7859L13594.5361,-3361.7857L13594.5352,-3361.784L13594.5347,-3361.7829L13594.5345,-3361.782L13594.5345,-3361.7809L13594.5343,-3361.7783L13594.5344,-3361.7773L13594.5344,-3361.777L13594.5347,-3361.7761L13594.5355,-3361.7746L13594.5364,-3361.773L13594.5371,-3361.7711L13594.5376,-3361.7696L13594.5381,-3361.768L13594.5386,-3361.7669L13594.5388,-3361.7667L13594.5394,-3361.7659L13594.5401,-3361.7653L13594.5411,-3361.7647L13594.5419,-3361.7645L13594.5432,-3361.7643L13594.5448,-3361.7642L13594.5464,-3361.7643L13594.5474,-3361.7645L13594.5481,-3361.7647L13594.5486,-3361.7651L13594.549,-3361.7654L13594.5494,-3361.7656L13594.5497,-3361.7657L13594.55,-3361.7657L13594.5505,-3361.7656L13594.551,-3361.7654L13594.5514,-3361.7651L13594.5516,-3361.7649L13594.5517,-3361.7646L13594.5518,-3361.7642L13594.5519,-3361.7632L13594.552,-3361.7629L13594.5522,-3361.7626L13594.5526,-3361.7623L13594.5531,-3361.7621L13594.5538,-3361.7618L13594.5543,-3361.7617L13594.5548,-3361.7618L13594.5552,-3361.7619L13594.5554,-3361.762L13594.5556,-3361.7623L13594.5558,-3361.7627L13594.5561,-3361.7646L13594.5562,-3361.7648L13594.5566,-3361.7657L13594.5574,-3361.7669L13594.5578,-3361.7674L13594.5584,-3361.768L13594.559,-3361.7685L13594.5592,-3361.7686L13594.5599,-3361.7689L13594.5606,-3361.769L13594.5613,-3361.769L13594.5614,-3361.7689L13594.5619,-3361.7688L13594.5622,-3361.7686L13594.5626,-3361.7682L13594.563,-3361.7674L13594.5634,-3361.7669L13594.5636,-3361.7668L13594.5639,-3361.7667L13594.5641,-3361.7666L13594.5645,-3361.7667L13594.5648,-3361.7668L13594.5651,-3361.767L13594.5654,-3361.7672L13594.5655,-3361.7675L13594.5657,-3361.7685L13594.5659,-3361.7688L13594.566,-3361.7689L13594.567,-3361.7695L13594.5673,-3361.7699L13594.5675,-3361.7703L13594.5676,-3361.7708L13594.5676,-3361.7719L13594.5675,-3361.7729L13594.5675,-3361.774L13594.5677,-3361.7747L13594.5681,-3361.7755L13594.5686,-3361.7761L13594.5689,-3361.7764L13594.5693,-3361.7765L13594.5695,-3361.7765L13594.5698,-3361.7765L13594.5702,-3361.7765L13594.5719,-3361.7757L13594.5734,-3361.7752L13594.5743,-3361.7748L13594.5746,-3361.7746L13594.5747,-3361.7744L13594.575,-3361.774L13594.5754,-3361.7721L13594.5754,-3361.7719L13594.5759,-3361.7709L13594.5764,-3361.7703L13594.5769,-3361.7698L13594.5778,-3361.7692L13594.5787,-3361.7689L13594.5791,-3361.7689L13594.5793,-3361.7689L13594.5797,-3361.769L13594.5801,-3361.7691L13594.5808,-3361.7696L13594.5817,-3361.7704L13594.5818,-3361.7706L13594.5825,-3361.7712L13594.5828,-3361.7714L13594.5831,-3361.7715L13594.5836,-3361.7716L13594.5842,-3361.7715L13594.5852,-3361.7713L13594.5854,-3361.7712L13594.5865,-3361.7707L13594.5872,-3361.7702L13594.5878,-3361.7696L13594.589,-3361.768L13594.5894,-3361.7674L13594.5899,-3361.7665L13594.5901,-3361.7659L13594.5901,-3361.7658L13594.59,-3361.7644L13594.5901,-3361.7636L13594.5902,-3361.7633L13594.5907,-3361.7625L13594.5912,-3361.7616L13594.5914,-3361.7612L13594.5914,-3361.761L13594.5913,-3361.7605L13594.5908,-3361.7592L13594.5901,-3361.7572L13594.5895,-3361.7558L13594.589,-3361.7549L13594.5885,-3361.7542L13594.5879,-3361.7534L13594.5876,-3361.7527L13594.5871,-3361.7505L13594.5867,-3361.7493L13594.5866,-3361.7485L13594.5866,-3361.7477L13594.5869,-3361.7465L13594.5871,-3361.746L13594.5873,-3361.7459L13594.5873,-3361.7459L13594.5874,-3361.746L13594.5876,-3361.7464L13594.588,-3361.7473L13594.5882,-3361.7476L13594.5885,-3361.7477L13594.5888,-3361.7478L13594.5892,-3361.7477L13594.5907,-3361.7474L13594.5915,-3361.7473L13594.5922,-3361.7474L13594.5931,-3361.7477L13594.5944,-3361.7485L13594.597,-3361.7503L13594.5981,-3361.7509L13594.5987,-3361.7512L13594.6009,-3361.752L13594.6015,-3361.7522L13594.6021,-3361.7524L13594.6024,-3361.7523L13594.6026,-3361.7523L13594.6027,-3361.7521L13594.6028,-3361.7519L13594.6029,-3361.7516L13594.6029,-3361.751L13594.6027,-3361.7503L13594.6027,-3361.7498L13594.6028,-3361.7496L13594.603,-3361.7493L13594.6034,-3361.7491L13594.604,-3361.7488L13594.6049,-3361.7486L13594.6061,-3361.7486L13594.6069,-3361.7486L13594.6079,-3361.7486L13594.6083,-3361.7485L13594.6085,-3361.7484L13594.6086,-3361.7483L13594.6088,-3361.748L13594.6089,-3361.7474L13594.6088,-3361.7462L13594.6087,-3361.7452L13594.6085,-3361.7447L13594.6084,-3361.7446L13594.6078,-3361.7441L13594.6071,-3361.7433L13594.6069,-3361.743L13594.6068,-3361.7427L13594.6069,-3361.7425L13594.6072,-3361.7419L13594.6074,-3361.7413L13594.6074,-3361.7412L13594.6074,-3361.7408L13594.6072,-3361.7404L13594.607,-3361.74L13594.6066,-3361.7396L13594.606,-3361.7392L13594.6053,-3361.7386L13594.6051,-3361.7383L13594.6051,-3361.7382L13594.6051,-3361.7373L13594.605,-3361.7369L13594.6048,-3361.7367L13594.6046,-3361.7365L13594.6042,-3361.7363L13594.6037,-3361.7361L13594.6033,-3361.736L13594.6028,-3361.736L13594.6022,-3361.7361L13594.602,-3361.736L13594.6018,-3361.7359L13594.6016,-3361.7357L13594.6015,-3361.7355L13594.6014,-3361.735L13594.6015,-3361.7345L13594.6016,-3361.7341L13594.6017,-3361.7339L13594.6022,-3361.7334L13594.6025,-3361.7329L13594.6025,-3361.7327L13594.6025,-3361.7325L13594.6025,-3361.7322L13594.6023,-3361.732L13594.6022,-3361.7318L13594.6019,-3361.7317L13594.6017,-3361.7316L13594.6014,-3361.7317L13594.601,-3361.7319L13594.5994,-3361.7328L13594.5985,-3361.7333L13594.5979,-3361.7335L13594.5975,-3361.7335L13594.5971,-3361.7335L13594.5969,-3361.7334L13594.5965,-3361.7332L13594.5956,-3361.7326L13594.5951,-3361.7322L13594.5947,-3361.7319L13594.5944,-3361.7319L13594.5941,-3361.7319L13594.5934,-3361.732L13594.5925,-3361.7322L13594.5921,-3361.7322L13594.592,-3361.7322L13594.5918,-3361.7321L13594.5914,-3361.7318L13594.5907,-3361.7311L13594.5896,-3361.7306L13594.5892,-3361.7303L13594.5891,-3361.7301L13594.5889,-3361.7298L13594.5886,-3361.7285L13594.5884,-3361.7279L13594.5881,-3361.7275L13594.5878,-3361.7272L13594.5872,-3361.7269L13594.5866,-3361.7267L13594.5859,-3361.7267L13594.5854,-3361.7267L13594.585,-3361.7269L13594.5847,-3361.7271L13594.5846,-3361.7272L13594.5844,-3361.7275L13594.5842,-3361.7279L13594.5841,-3361.7282L13594.5841,-3361.7284L13594.5842,-3361.7287L13594.5844,-3361.7289L13594.5848,-3361.7291L13594.5859,-3361.7295L13594.5862,-3361.7297L13594.5864,-3361.73L13594.5866,-3361.7303L13594.5868,-3361.7309L13594.5868,-3361.7316L13594.5866,-3361.7328L13594.5862,-3361.7341L13594.5861,-3361.7354L13594.5861,-3361.7364L13594.5864,-3361.7376L13594.5868,-3361.7391L13594.5868,-3361.7394L13594.5868,-3361.7403L13594.5867,-3361.7413L13594.5864,-3361.7421L13594.5859,-3361.743L13594.5853,-3361.7437L13594.5846,-3361.7443L13594.5838,-3361.7448L13594.5829,-3361.7453L13594.5825,-3361.7456L13594.5824,-3361.7458L13594.5822,-3361.7463L13594.5818,-3361.7471L13594.5815,-3361.7475L13594.581,-3361.748L13594.5804,-3361.7484L13594.58,-3361.7486L13594.5798,-3361.7486L13594.5796,-3361.7486L13594.5795,-3361.7485L13594.5793,-3361.7483L13594.5791,-3361.7479L13594.579,-3361.7473L13594.5791,-3361.7466L13594.5792,-3361.7461L13594.5794,-3361.7454L13594.5794,-3361.7452L13594.5793,-3361.7447L13594.5789,-3361.7438L13594.5783,-3361.7426L13594.5781,-3361.7418L13594.5781,-3361.7411L13594.5785,-3361.7395L13594.5785,-3361.7391L13594.5785,-3361.7386L13594.5784,-3361.7382L13594.5782,-3361.7378L13594.5779,-3361.7376L13594.5775,-3361.7373L13594.5769,-3361.7371L13594.5766,-3361.7371L13594.5763,-3361.7371L13594.5762,-3361.7372L13594.5761,-3361.7372L13594.5761,-3361.7374L13594.5761,-3361.7377L13594.5762,-3361.7385L13594.5764,-3361.7394L13594.5763,-3361.7401L13594.5761,-3361.7406L13594.5758,-3361.7409L13594.5751,-3361.7415L13594.5745,-3361.7419L13594.574,-3361.7426L13594.5737,-3361.7432L13594.5732,-3361.7449L13594.5729,-3361.7458L13594.5725,-3361.7464L13594.5722,-3361.7467L13594.5719,-3361.7469L13594.5716,-3361.747L13594.5713,-3361.747L13594.571,-3361.7469L13594.5705,-3361.7467L13594.5701,-3361.7464L13594.5699,-3361.7461L13594.5697,-3361.7458L13594.5696,-3361.7454L13594.5697,-3361.7449L13594.5699,-3361.7441L13594.5707,-3361.7427L13594.5712,-3361.7418L13594.5714,-3361.741L13594.5714,-3361.7405L13594.5714,-3361.7402L13594.5711,-3361.7397L13594.5707,-3361.7393L13594.5695,-3361.7385L13594.5692,-3361.7382L13594.5691,-3361.738L13594.5686,-3361.7368L13594.5685,-3361.7366L13594.5677,-3361.7354L13594.5674,-3361.7349L13594.5672,-3361.7344L13594.5671,-3361.7333L13594.567,-3361.7318L13594.5669,-3361.7316L13594.5666,-3361.7308L13594.5662,-3361.7303L13594.5661,-3361.7301L13594.5655,-3361.7297L13594.5651,-3361.7294L13594.5648,-3361.7294L13594.5645,-3361.7294L13594.5643,-3361.7295L13594.564,-3361.7297L13594.5636,-3361.7302L13594.5632,-3361.7312L13594.5627,-3361.7323L13594.5626,-3361.7325L13594.562,-3361.7336L13594.5613,-3361.7343L13594.561,-3361.7345L13594.5608,-3361.7346L13594.5607,-3361.7346L13594.5605,-3361.7345L13594.5604,-3361.7343L13594.5602,-3361.734L13594.5601,-3361.7332L13594.5601,-3361.7323L13594.5604,-3361.7312L13594.5604,-3361.7309L13594.5603,-3361.7307L13594.5601,-3361.7305L13594.5598,-3361.7304L13594.5593,-3361.7303L13594.5587,-3361.7303L13594.5582,-3361.7304L13594.5579,-3361.7305L13594.5575,-3361.7307L13594.5571,-3361.7311L13594.557,-3361.7313L13594.5568,-3361.7318L13594.5567,-3361.7323L13594.5568,-3361.7329L13594.5569,-3361.7333L13594.5573,-3361.7342L13594.5587,-3361.7361L13594.5589,-3361.7365L13594.5597,-3361.7379L13594.5604,-3361.7399L13594.5609,-3361.7419L13594.5613,-3361.7433L13594.5618,-3361.7448L13594.5624,-3361.7462L13594.5627,-3361.7467L13594.5629,-3361.7473L13594.5629,-3361.7475L13594.5629,-3361.7478L13594.5628,-3361.7479L13594.5626,-3361.748L13594.5623,-3361.7481L13594.5618,-3361.7481L13594.5615,-3361.748L13594.5612,-3361.7479L13594.5609,-3361.7476L13594.5606,-3361.7471L13594.5602,-3361.7459L13594.5598,-3361.7451L13594.5596,-3361.7447L13594.5593,-3361.7445L13594.559,-3361.7444L13594.5587,-3361.7444L13594.5585,-3361.7444L13594.5584,-3361.7444L13594.5582,-3361.7446L13594.558,-3361.7448L13594.5576,-3361.7455L13594.5574,-3361.7458L13594.5573,-3361.7459L13594.5571,-3361.7459L13594.5569,-3361.7458L13594.5565,-3361.7456L13594.5553,-3361.7444L13594.5543,-3361.7436L13594.554,-3361.7434L13594.5539,-3361.7434L13594.5538,-3361.7435L13594.5537,-3361.7444L13594.5536,-3361.7449L13594.5535,-3361.7451L13594.5532,-3361.7453L13594.5529,-3361.7455L13594.5525,-3361.7455L13594.5522,-3361.7454L13594.552,-3361.7453L13594.5518,-3361.7451L13594.5516,-3361.7448L13594.551,-3361.7439L13594.5508,-3361.7437L13594.5507,-3361.7437L13594.5506,-3361.7438L13594.5504,-3361.7442L13594.5502,-3361.7449L13594.5502,-3361.7452L13594.5502,-3361.746L13594.5504,-3361.7471L13594.5504,-3361.7473L13594.5501,-3361.749L13594.55,-3361.7499L13594.5501,-3361.7507L13594.5502,-3361.7517L13594.5501,-3361.7522L13594.55,-3361.7525L13594.5499,-3361.7527L13594.5494,-3361.7531L13594.5489,-3361.7534L13594.5482,-3361.7537L13594.5474,-3361.7539L13594.5466,-3361.754L13594.5462,-3361.7539L13594.5456,-3361.7538L13594.5452,-3361.7536L13594.5448,-3361.7534L13594.5446,-3361.753L13594.5444,-3361.7525L13594.5443,-3361.7518L13594.5444,-3361.7506L13594.5445,-3361.75L13594.545,-3361.7484L13594.5454,-3361.747L13594.5457,-3361.7455L13594.5457,-3361.7445L13594.5456,-3361.7433L13594.5452,-3361.7419L13594.5444,-3361.7401L13594.5437,-3361.7389L13594.5428,-3361.7376L13594.5423,-3361.7371L13594.5417,-3361.7364L13594.5411,-3361.7352L13594.5404,-3361.7339L13594.5402,-3361.7336L13594.5393,-3361.7325L13594.5383,-3361.7314L13594.5376,-3361.7308L13594.5369,-3361.7304L13594.5364,-3361.7302L13594.5355,-3361.7301L13594.5337,-3361.73L13594.5328,-3361.73L13594.5316,-3361.7301L13594.5312,-3361.7302L13594.5302,-3361.7305L13594.5285,-3361.7312L13594.5273,-3361.7317L13594.5259,-3361.7322L13594.5252,-3361.7325L13594.5244,-3361.7328L13594.5243,-3361.7328L13594.5239,-3361.7332L13594.5235,-3361.7337L13594.5232,-3361.7343L13594.5231,-3361.7346L13594.5228,-3361.7366L13594.5227,-3361.7369L13594.5224,-3361.7378L13594.5219,-3361.7385L13594.5213,-3361.7392L13594.5204,-3361.7397L13594.5195,-3361.74L13594.5189,-3361.7402L13594.5167,-3361.7402L13594.516,-3361.7402L13594.5149,-3361.7402L13594.5138,-3361.7399L13594.5132,-3361.7397L13594.5129,-3361.7394L13594.5126,-3361.7391L13594.5125,-3361.7389L13594.5124,-3361.7384L13594.5121,-3361.7376L13594.5119,-3361.7373L13594.5117,-3361.7372L13594.5114,-3361.7371L13594.511,-3361.737L13594.5104,-3361.737L13594.5099,-3361.7371L13594.5096,-3361.7372L13594.5086,-3361.7377L13594.508,-3361.738L13594.5071,-3361.7382L13594.506,-3361.7383L13594.5054,-3361.7384L13594.5051,-3361.7386L13594.5047,-3361.739L13594.5041,-3361.7399L13594.5037,-3361.7404L13594.503,-3361.7412L13594.5025,-3361.7415L13594.502,-3361.7421L13594.5019,-3361.7423L13594.5019,-3361.7424L13594.5019,-3361.7424L13594.5021,-3361.7426L13594.5029,-3361.7431L13594.5034,-3361.7434L13594.5034,-3361.7435L13594.5036,-3361.7437L13594.5036,-3361.7441L13594.5035,-3361.7453L13594.5035,-3361.746L13594.5037,-3361.7466L13594.5039,-3361.7469L13594.5043,-3361.7472L13594.5044,-3361.7473L13594.5048,-3361.7475L13594.5064,-3361.7478L13594.5071,-3361.748L13594.5075,-3361.7483L13594.5078,-3361.7487L13594.5081,-3361.7494L13594.5085,-3361.7512L13594.5086,-3361.7518L13594.5087,-3361.7527L13594.5086,-3361.7532L13594.5084,-3361.7538L13594.5079,-3361.7543L13594.5072,-3361.755L13594.5064,-3361.7555L13594.5054,-3361.7559L13594.5042,-3361.7563L13594.5025,-3361.7566L13594.5015,-3361.7567L13594.5003,-3361.7567L13594.4995,-3361.7565L13594.4987,-3361.7562L13594.4978,-3361.7558L13594.4973,-3361.7557L13594.4965,-3361.7556L13594.4956,-3361.7555L13594.4954,-3361.7554L13594.4952,-3361.7553L13594.4951,-3361.755L13594.4949,-3361.7545L13594.4948,-3361.7537L13594.4946,-3361.7535L13594.4945,-3361.7534L13594.4943,-3361.7534L13594.4936,-3361.7535L13594.4922,-3361.7537L13594.4916,-3361.7539L13594.4914,-3361.7541L13594.4911,-3361.7544L13594.4907,-3361.7553L13594.4904,-3361.7558L13594.4901,-3361.7562L13594.4894,-3361.7568L13594.4886,-3361.7573L13594.4877,-3361.7586L13594.4873,-3361.759L13594.4862,-3361.7597L13594.4857,-3361.76L13594.4855,-3361.7603L13594.4855,-3361.7605L13594.4855,-3361.7608L13594.4856,-3361.7611L13594.4858,-3361.7612L13594.486,-3361.7614L13594.4863,-3361.7614L13594.4873,-3361.7615L13594.4882,-3361.7616L13594.4886,-3361.7617L13594.4891,-3361.762L13594.4896,-3361.7623L13594.4898,-3361.7625L13594.4899,-3361.7627L13594.4899,-3361.7629L13594.4897,-3361.7631L13594.4895,-3361.7633L13594.4886,-3361.7637L13594.4871,-3361.7645L13594.486,-3361.7651L13594.4846,-3361.766L13594.4843,-3361.7662L13594.4838,-3361.7667L13594.4836,-3361.767L13594.4836,-3361.7673L13594.4836,-3361.7675L13594.4838,-3361.768L13594.4841,-3361.7688L13594.4841,-3361.7691L13594.4841,-3361.7694L13594.4839,-3361.7697L13594.4837,-3361.7699L13594.4835,-3361.77L13594.4832,-3361.7701L13594.4829,-3361.7702L13594.4826,-3361.7701L13594.4824,-3361.7701Z"/>
<path content="和歌山県,,東牟婁郡,那智勝浦町,,30421" xlink:title="和歌山県" d="M13595.1806,-3361.5748L13595.1813,-3361.5735L13595.1822,-3361.5717L13595.1831,-3361.5701L13595.1836,-3361.5694L13595.1841,-3361.5689L13595.1849,-3361.5684L13595.1862,-3361.5678L13595.1881,-3361.567L13595.1891,-3361.5664L13595.1898,-3361.5658L13595.1905,-3361.5649L13595.191,-3361.5641L13595.192,-3361.5626L13595.1925,-3361.562L13595.1927,-3361.5618L13595.1934,-3361.5613L13595.194,-3361.5611L13595.1945,-3361.5609L13595.1954,-3361.5609L13595.1962,-3361.561L13595.197,-3361.5609L13595.1983,-3361.5606L13595.1993,-3361.5603L13595.2003,-3361.5601L13595.201,-3361.5601L13595.2024,-3361.5602L13595.2036,-3361.5604L13595.2056,-3361.5604L13595.2073,-3361.5604L13595.2089,-3361.5606L13595.2099,-3361.5609L13595.2101,-3361.561L13595.2118,-3361.5618L13595.2129,-3361.5622L13595.2131,-3361.5623L13595.2151,-3361.5628L13595.2169,-3361.5631L13595.2186,-3361.5634L13595.2189,-3361.5635L13595.22,-3361.564L13595.2209,-3361.5644L13595.2219,-3361.5648L13595.2232,-3361.565L13595.2244,-3361.5652L13595.2259,-3361.5653L13595.2271,-3361.5652L13595.229,-3361.565L13595.2304,-3361.5651L13595.2338,-3361.5654L13595.2341,-3361.5654L13595.2356,-3361.5654L13595.2394,-3361.5651L13595.2412,-3361.565L13595.2418,-3361.565L13595.2428,-3361.5647L13595.2436,-3361.5643L13595.2442,-3361.5638L13595.2446,-3361.5634L13595.2447,-3361.563L13595.2449,-3361.5623L13595.2449,-3361.5612L13595.2451,-3361.5608L13595.2451,-3361.5607L13595.2454,-3361.5604L13595.2462,-3361.5599L13595.2469,-3361.5594L13595.2474,-3361.5589L13595.2482,-3361.5581L13595.2486,-3361.5578L13595.2491,-3361.5576L13595.2499,-3361.5575L13595.2507,-3361.5574L13595.2535,-3361.5572L13595.2544,-3361.5572L13595.2553,-3361.5574L13595.2566,-3361.5578L13595.2575,-3361.5582L13595.2609,-3361.5596L13595.2629,-3361.5603L13595.2646,-3361.5606L13595.2659,-3361.5607L13595.2663,-3361.5607L13595.2675,-3361.5605L13595.2689,-3361.5601L13595.2692,-3361.56L13595.2706,-3361.5594L13595.2724,-3361.5584L13595.2736,-3361.5575L13595.2745,-3361.5567L13595.2751,-3361.5559L13595.2753,-3361.5551L13595.2754,-3361.5542L13595.2753,-3361.5532L13595.2752,-3361.5529L13595.2748,-3361.552L13595.2741,-3361.551L13595.273,-3361.5497L13595.2719,-3361.5485L13595.2715,-3361.5479L13595.2713,-3361.5475L13595.2713,-3361.5471L13595.2715,-3361.5466L13595.2719,-3361.5461L13595.2725,-3361.545L13595.2727,-3361.5444L13595.2728,-3361.5441L13595.2728,-3361.5435L13595.2727,-3361.543L13595.2724,-3361.5426L13595.2722,-3361.5423L13595.2716,-3361.542L13595.2706,-3361.5417L13595.2695,-3361.5415L13595.2687,-3361.5415L13595.2682,-3361.5415L13595.2677,-3361.5417L13595.2669,-3361.5421L13595.2659,-3361.5429L13595.2656,-3361.543L13595.2655,-3361.543L13595.2654,-3361.5429L13595.2653,-3361.5428L13595.2653,-3361.5424L13595.2654,-3361.5421L13595.2658,-3361.5401L13595.2658,-3361.5394L13595.2658,-3361.5392L13595.2654,-3361.5381L13595.2654,-3361.5379L13595.2654,-3361.5373L13595.2655,-3361.5368L13595.2664,-3361.5333L13595.267,-3361.5317L13595.2672,-3361.5313L13595.2683,-3361.5292L13595.269,-3361.5277L13595.2692,-3361.5273L13595.2695,-3361.5259L13595.2696,-3361.5249L13595.2695,-3361.5242L13595.2692,-3361.5231L13595.2689,-3361.5222L13595.2685,-3361.5211L13595.268,-3361.5204L13595.2674,-3361.5198L13595.2667,-3361.5194L13595.2661,-3361.5192L13595.2658,-3361.5191L13595.2649,-3361.519L13595.2648,-3361.519L13595.2647,-3361.5188L13595.2647,-3361.5186L13595.2647,-3361.5184L13595.2651,-3361.5179L13595.2659,-3361.5171L13595.2672,-3361.516L13595.2679,-3361.5154L13595.2681,-3361.5151L13595.2684,-3361.5145L13595.2687,-3361.5134L13595.2689,-3361.5125L13595.269,-3361.5114L13595.2689,-3361.5109L13595.2689,-3361.5108L13595.2685,-3361.5101L13595.2683,-3361.5095L13595.2683,-3361.509L13595.2684,-3361.5079L13595.2686,-3361.5069L13595.2692,-3361.5047L13595.2697,-3361.5034L13595.2703,-3361.5024L13595.271,-3361.5016L13595.2723,-3361.5004L13595.2726,-3361.5L13595.2727,-3361.4998L13595.2728,-3361.4992L13595.2728,-3361.498L13595.273,-3361.497L13595.2732,-3361.4961L13595.2739,-3361.4929L13595.2746,-3361.4906L13595.2752,-3361.4887L13595.2756,-3361.488L13595.2762,-3361.4873L13595.2774,-3361.486L13595.2777,-3361.4856L13595.2781,-3361.4848L13595.2785,-3361.4841L13595.2791,-3361.4833L13595.2804,-3361.4817L13595.2807,-3361.4812L13595.2809,-3361.4806L13595.281,-3361.4794L13595.2809,-3361.4783L13595.2807,-3361.4776L13595.2807,-3361.4775L13595.2802,-3361.4768L13595.2797,-3361.4764L13595.2786,-3361.4749L13595.2775,-3361.4736L13595.2769,-3361.4731L13595.2764,-3361.4729L13595.2754,-3361.4725L13595.2747,-3361.4723L13595.274,-3361.472L13595.2736,-3361.4717L13595.2724,-3361.4708L13595.2721,-3361.4705L13595.272,-3361.4702L13595.2719,-3361.47L13595.2719,-3361.4697L13595.2722,-3361.4689L13595.2723,-3361.4687L13595.2735,-3361.4659L13595.2745,-3361.4634L13595.2758,-3361.4602L13595.2771,-3361.4562L13595.2779,-3361.4541L13595.2783,-3361.4526L13595.2785,-3361.4513L13595.2788,-3361.4491L13595.2792,-3361.448L13595.2796,-3361.4473L13595.2809,-3361.446L13595.2811,-3361.4455L13595.2812,-3361.4452L13595.2811,-3361.4445L13595.2807,-3361.4437L13595.2804,-3361.443L13595.28,-3361.4421L13595.28,-3361.442L13595.28,-3361.4413L13595.2802,-3361.4404L13595.2805,-3361.4397L13595.2812,-3361.4385L13595.2815,-3361.4382L13595.2829,-3361.4365L13595.283,-3361.4363L13595.2835,-3361.4352L13595.2839,-3361.4342L13595.2853,-3361.4314L13595.286,-3361.4292L13595.2873,-3361.4262L13595.2881,-3361.424L13595.2883,-3361.4233L13595.2886,-3361.4218L13595.2888,-3361.4203L13595.2891,-3361.4187L13595.2896,-3361.4173L13595.2902,-3361.416L13595.2909,-3361.4149L13595.2916,-3361.4135L13595.2918,-3361.4133L13595.2926,-3361.4125L13595.2932,-3361.412L13595.2933,-3361.4118L13595.2936,-3361.4113L13595.2937,-3361.4106L13595.2937,-3361.4097L13595.2934,-3361.409L13595.293,-3361.4082L13595.2925,-3361.4078L13595.2916,-3361.407L13595.2915,-3361.4068L13595.2913,-3361.4064L13595.2913,-3361.4059L13595.2915,-3361.4051L13595.2916,-3361.4044L13595.292,-3361.4023L13595.2922,-3361.4018L13595.2925,-3361.4012L13595.2931,-3361.4006L13595.2941,-3361.3998L13595.2949,-3361.3993L13595.2973,-3361.3979L13595.2981,-3361.3973L13595.2986,-3361.3967L13595.2992,-3361.3959L13595.2995,-3361.3953L13595.2995,-3361.3952L13595.2996,-3361.3942L13595.2997,-3361.3935L13595.2999,-3361.3927L13595.3004,-3361.3918L13595.3014,-3361.3907L13595.3023,-3361.3898L13595.3047,-3361.3877L13595.3053,-3361.3872L13595.3056,-3361.3868L13595.3057,-3361.3866L13595.3057,-3361.3862L13595.3056,-3361.3853L13595.3058,-3361.385L13595.306,-3361.3846L13595.3065,-3361.3842L13595.3069,-3361.3839L13595.308,-3361.3835L13595.309,-3361.3832L13595.3102,-3361.3827L13595.3112,-3361.3822L13595.3119,-3361.3816L13595.3123,-3361.381L13595.3124,-3361.3808L13595.3125,-3361.3802L13595.3125,-3361.3794L13595.3123,-3361.3788L13595.3119,-3361.3778L13595.3116,-3361.377L13595.3114,-3361.376L13595.3115,-3361.3745L13595.3116,-3361.3732L13595.3116,-3361.3719L13595.3117,-3361.3707L13595.3119,-3361.3697L13595.3121,-3361.3679L13595.3123,-3361.3673L13595.3128,-3361.3661L13595.3134,-3361.3648L13595.3137,-3361.3635L13595.3137,-3361.363L13595.3137,-3361.3615L13595.3132,-3361.3581L13595.3132,-3361.3571L13595.3133,-3361.3557L13595.3132,-3361.3552L13595.3129,-3361.3548L13595.3124,-3361.3542L13595.3119,-3361.3538L13595.3105,-3361.3528L13595.3096,-3361.352L13595.3093,-3361.3517L13595.3089,-3361.3511L13595.3088,-3361.3504L13595.3087,-3361.3498L13595.3087,-3361.3489L13595.3085,-3361.3474L13595.3085,-3361.3472L13595.3087,-3361.3464L13595.309,-3361.3453L13595.3091,-3361.3446L13595.309,-3361.3444L13595.3087,-3361.3436L13595.3085,-3361.3429L13595.3085,-3361.3428L13595.3085,-3361.3424L13595.3087,-3361.3419L13595.3092,-3361.3411L13595.3096,-3361.3405L13595.31,-3361.3397L13595.3103,-3361.3391L13595.3104,-3361.3385L13595.3104,-3361.338L13595.3102,-3361.3376L13595.3097,-3361.3367L13595.3095,-3361.3365L13595.3095,-3361.3361L13595.3095,-3361.3354L13595.3097,-3361.3349L13595.3099,-3361.3335L13595.3099,-3361.333L13595.3099,-3361.3327L13595.3098,-3361.3325L13595.3095,-3361.3322L13595.3084,-3361.3313L13595.308,-3361.3309L13595.3077,-3361.3304L13595.3076,-3361.3297L13595.3076,-3361.329L13595.3077,-3361.3285L13595.3079,-3361.3278L13595.3083,-3361.3272L13595.3086,-3361.327L13595.3088,-3361.3268L13595.3089,-3361.3268L13595.3092,-3361.3268L13595.3096,-3361.3269L13595.3109,-3361.3276L13595.3115,-3361.3278L13595.3118,-3361.3278L13595.3121,-3361.3278L13595.3123,-3361.3278L13595.3125,-3361.3277L13595.3128,-3361.3275L13595.313,-3361.3273L13595.3132,-3361.3269L13595.3133,-3361.3265L13595.3132,-3361.3254L13595.3132,-3361.3251L13595.3134,-3361.3248L13595.3136,-3361.3245L13595.3141,-3361.3242L13595.3146,-3361.3241L13595.315,-3361.324L13595.3153,-3361.3241L13595.3154,-3361.3241L13595.3156,-3361.3243L13595.316,-3361.3249L13595.3162,-3361.3253L13595.3163,-3361.3254L13595.3165,-3361.3256L13595.3173,-3361.3258L13595.3185,-3361.3261L13595.319,-3361.3261L13595.3193,-3361.326L13595.3195,-3361.326L13595.3196,-3361.3258L13595.3198,-3361.3255L13595.3201,-3361.3246L13595.3202,-3361.3238L13595.3205,-3361.3227L13595.3205,-3361.3223L13595.3204,-3361.3219L13595.3201,-3361.3216L13595.3199,-3361.3213L13595.3197,-3361.3212L13595.3193,-3361.3211L13595.3187,-3361.3211L13595.3176,-3361.3212L13595.3173,-3361.3211L13595.3171,-3361.321L13595.3169,-3361.3209L13595.3167,-3361.3206L13595.3166,-3361.3202L13595.3165,-3361.3198L13595.3167,-3361.3191L13595.3168,-3361.3186L13595.3169,-3361.3181L13595.317,-3361.3178L13595.3169,-3361.3176L13595.3168,-3361.3176L13595.3167,-3361.3175L13595.3164,-3361.3174L13595.3158,-3361.3175L13595.3156,-3361.3176L13595.314,-3361.318L13595.3137,-3361.3181L13595.3135,-3361.318L13595.3133,-3361.3177L13595.3131,-3361.3172L13595.3127,-3361.3149L13595.3124,-3361.3143L13595.3121,-3361.3138L13595.3113,-3361.3131L13595.3106,-3361.3126L13595.31,-3361.3124L13595.3095,-3361.3123L13595.3093,-3361.3123L13595.3089,-3361.3125L13595.3084,-3361.3129L13595.3075,-3361.3137L13595.3074,-3361.3138L13595.3069,-3361.3141L13595.3058,-3361.3144L13595.3048,-3361.3147L13595.304,-3361.3151L13595.3035,-3361.3154L13595.3033,-3361.3156L13595.3029,-3361.3162L13595.3026,-3361.3168L13595.3018,-3361.3179L13595.3016,-3361.3182L13595.3003,-3361.3196L13595.3,-3361.32L13595.2998,-3361.3208L13595.2997,-3361.3213L13595.2996,-3361.3223L13595.2998,-3361.323L13595.3002,-3361.3237L13595.3009,-3361.3247L13595.3011,-3361.3252L13595.3011,-3361.3258L13595.301,-3361.3265L13595.3009,-3361.3266L13595.3006,-3361.3272L13595.3001,-3361.3278L13595.2995,-3361.3282L13595.2986,-3361.3286L13595.2978,-3361.3289L13595.2973,-3361.3293L13595.2968,-3361.3299L13595.2965,-3361.3305L13595.2964,-3361.3307L13595.2962,-3361.3316L13595.2961,-3361.3334L13595.296,-3361.3339L13595.2957,-3361.3348L13595.2955,-3361.3351L13595.2947,-3361.3364L13595.2941,-3361.3372L13595.2935,-3361.3378L13595.2929,-3361.3381L13595.2917,-3361.3387L13595.2903,-3361.3393L13595.2899,-3361.3396L13595.2896,-3361.3399L13595.2896,-3361.34L13595.2894,-3361.3405L13595.2895,-3361.3412L13595.2896,-3361.3417L13595.2898,-3361.3434L13595.2897,-3361.3439L13595.2896,-3361.3442L13595.2895,-3361.3443L13595.2893,-3361.3443L13595.2889,-3361.3443L13595.2884,-3361.3441L13595.2872,-3361.3435L13595.2862,-3361.3428L13595.2855,-3361.342L13595.2843,-3361.3406L13595.2838,-3361.3403L13595.2829,-3361.3396L13595.2819,-3361.3391L13595.2805,-3361.3381L13595.2784,-3361.3366L13595.2772,-3361.3358L13595.2761,-3361.3353L13595.2736,-3361.3343L13595.2728,-3361.3339L13595.2712,-3361.3328L13595.2709,-3361.3327L13595.27,-3361.3324L13595.2691,-3361.3323L13595.2676,-3361.3324L13595.2656,-3361.3326L13595.264,-3361.3329L13595.2623,-3361.3333L13595.2611,-3361.3337L13595.2603,-3361.3342L13595.2597,-3361.3348L13595.2593,-3361.3354L13595.259,-3361.3361L13595.259,-3361.3366L13595.2591,-3361.3372L13595.2594,-3361.3379L13595.2598,-3361.3384L13595.2601,-3361.3387L13595.2609,-3361.3392L13595.2628,-3361.34L13595.2636,-3361.3404L13595.2643,-3361.3409L13595.2648,-3361.3415L13595.2651,-3361.3421L13595.2652,-3361.3425L13595.2652,-3361.3427L13595.2651,-3361.3429L13595.2649,-3361.3431L13595.2644,-3361.3434L13595.2636,-3361.3437L13595.2626,-3361.3443L13595.2614,-3361.345L13595.2604,-3361.3457L13595.2594,-3361.3465L13595.2589,-3361.3471L13595.2588,-3361.3472L13595.2585,-3361.3478L13595.258,-3361.3488L13595.2579,-3361.349L13595.2575,-3361.3494L13595.2566,-3361.35L13595.2559,-3361.3505L13595.255,-3361.3512L13595.2544,-3361.352L13595.2541,-3361.3528L13595.2539,-3361.3537L13595.254,-3361.3543L13595.2542,-3361.3549L13595.2547,-3361.3556L13595.2559,-3361.3567L13595.2568,-3361.3578L13595.2579,-3361.3594L13595.2601,-3361.3618L13595.2615,-3361.3636L13595.2624,-3361.3645L13595.2626,-3361.365L13595.2627,-3361.3652L13595.2627,-3361.3656L13595.2626,-3361.366L13595.2624,-3361.3664L13595.262,-3361.3667L13595.2616,-3361.367L13595.2612,-3361.3672L13595.2604,-3361.3674L13595.2593,-3361.3676L13595.2583,-3361.3676L13595.2576,-3361.3675L13595.2573,-3361.3673L13595.2572,-3361.3672L13595.2572,-3361.3671L13595.2574,-3361.3669L13595.2585,-3361.3662L13595.2589,-3361.3658L13595.2591,-3361.3656L13595.2591,-3361.3653L13595.2591,-3361.365L13595.259,-3361.3647L13595.2589,-3361.3645L13595.2586,-3361.3643L13595.2585,-3361.3641L13595.2581,-3361.364L13595.2575,-3361.3638L13595.2567,-3361.3638L13595.2547,-3361.3636L13595.2523,-3361.3633L13595.2517,-3361.3633L13595.2501,-3361.3633L13595.248,-3361.3636L13595.246,-3361.3641L13595.244,-3361.3645L13595.2429,-3361.365L13595.2426,-3361.3651L13595.2416,-3361.3657L13595.2402,-3361.3668L13595.2385,-3361.3678L13595.237,-3361.3688L13595.2359,-3361.3697L13595.2348,-3361.3708L13595.2338,-3361.3717L13595.2332,-3361.3722L13595.2328,-3361.3724L13595.2321,-3361.3726L13595.231,-3361.3726L13595.2299,-3361.3726L13595.2287,-3361.3727L13595.2276,-3361.3729L13595.2267,-3361.3732L13595.2257,-3361.3736L13595.2252,-3361.3739L13595.2249,-3361.3743L13595.2248,-3361.3746L13595.2247,-3361.375L13595.2248,-3361.3755L13595.2249,-3361.3759L13595.2251,-3361.3761L13595.2255,-3361.3765L13595.2263,-3361.3772L13595.2265,-3361.3775L13595.2268,-3361.3779L13595.2269,-3361.3785L13595.2269,-3361.3786L13595.2268,-3361.3791L13595.2265,-3361.3797L13595.2258,-3361.3805L13595.2245,-3361.3818L13595.2235,-3361.3827L13595.2228,-3361.3836L13595.2224,-3361.3844L13595.2223,-3361.3851L13595.2223,-3361.3857L13595.2225,-3361.3863L13595.223,-3361.3876L13595.2231,-3361.3882L13595.223,-3361.3887L13595.2228,-3361.3893L13595.2221,-3361.3901L13595.2208,-3361.392L13595.2205,-3361.3926L13595.2196,-3361.3942L13595.2192,-3361.3946L13595.218,-3361.3959L13595.2172,-3361.3969L13595.2168,-3361.3976L13595.2166,-3361.3982L13595.2166,-3361.3989L13595.2166,-3361.3992L13595.2168,-3361.3995L13595.2172,-3361.3998L13595.2176,-3361.4L13595.2182,-3361.4002L13595.2194,-3361.4003L13595.2205,-3361.4004L13595.2211,-3361.4006L13595.2217,-3361.401L13595.2222,-3361.4014L13595.2226,-3361.4019L13595.2228,-3361.4023L13595.2229,-3361.4025L13595.2229,-3361.4027L13595.2228,-3361.4029L13595.2225,-3361.4034L13595.2222,-3361.4037L13595.2216,-3361.4046L13595.2212,-3361.4053L13595.2211,-3361.4059L13595.2212,-3361.4068L13595.2214,-3361.408L13595.2216,-3361.4097L13595.222,-3361.4109L13595.222,-3361.4112L13595.2219,-3361.4117L13595.2216,-3361.4123L13595.2209,-3361.4135L13595.2207,-3361.414L13595.2207,-3361.4145L13595.221,-3361.4153L13595.2214,-3361.4162L13595.2224,-3361.418L13595.2237,-3361.4206L13595.2242,-3361.4218L13595.2244,-3361.4228L13595.2244,-3361.423L13595.2244,-3361.4238L13595.2243,-3361.4245L13595.2238,-3361.4258L13595.2233,-3361.4266L13595.2232,-3361.4268L13595.2221,-3361.428L13595.2219,-3361.4283L13595.2218,-3361.4287L13595.2218,-3361.429L13595.2222,-3361.4297L13595.2222,-3361.4299L13595.2222,-3361.4301L13595.2221,-3361.4303L13595.2218,-3361.4306L13595.221,-3361.4313L13595.2202,-3361.4321L13595.2198,-3361.4327L13595.2196,-3361.4334L13595.2196,-3361.434L13595.2196,-3361.4343L13595.22,-3361.4355L13595.22,-3361.4359L13595.2197,-3361.4367L13595.2196,-3361.4371L13595.2196,-3361.4374L13595.2196,-3361.4375L13595.2198,-3361.4377L13595.2206,-3361.4383L13595.2208,-3361.4385L13595.2208,-3361.4387L13595.2208,-3361.4389L13595.2206,-3361.4396L13595.2204,-3361.4402L13595.2203,-3361.4408L13595.2204,-3361.4413L13595.2206,-3361.4416L13595.2209,-3361.4421L13595.2216,-3361.4427L13595.2226,-3361.4434L13595.224,-3361.4446L13595.225,-3361.4455L13595.2264,-3361.4466L13595.2278,-3361.4474L13595.2298,-3361.4488L13595.2313,-3361.4496L13595.2343,-3361.451L13595.235,-3361.4515L13595.2353,-3361.4518L13595.2354,-3361.452L13595.2353,-3361.4521L13595.2351,-3361.4523L13595.2345,-3361.4525L13595.2322,-3361.4529L13595.2312,-3361.4532L13595.2303,-3361.4536L13595.2297,-3361.454L13595.2295,-3361.4542L13595.2291,-3361.4547L13595.2289,-3361.4554L13595.2287,-3361.456L13595.2285,-3361.4571L13595.2284,-3361.4573L13595.2284,-3361.4574L13595.2282,-3361.4576L13595.2278,-3361.4577L13595.2272,-3361.4578L13595.2259,-3361.4578L13595.2248,-3361.4578L13595.2241,-3361.4579L13595.2233,-3361.4582L13595.2228,-3361.4585L13595.2222,-3361.4589L13595.2218,-3361.4592L13595.2217,-3361.4594L13595.2217,-3361.4596L13595.2218,-3361.4597L13595.2219,-3361.4599L13595.2229,-3361.4606L13595.2234,-3361.4609L13595.2236,-3361.4611L13595.2237,-3361.4614L13595.2236,-3361.4615L13595.2234,-3361.4617L13595.223,-3361.4618L13595.2219,-3361.462L13595.2199,-3361.4623L13595.2192,-3361.4626L13595.2191,-3361.4627L13595.2183,-3361.4632L13595.2178,-3361.4637L13595.2171,-3361.4646L13595.2167,-3361.4652L13595.2166,-3361.4656L13595.2166,-3361.4658L13595.2168,-3361.4667L13595.217,-3361.4674L13595.217,-3361.4678L13595.2167,-3361.4683L13595.2162,-3361.469L13595.2151,-3361.4702L13595.2147,-3361.4709L13595.2146,-3361.471L13595.2145,-3361.4717L13595.2146,-3361.4735L13595.2144,-3361.474L13595.2143,-3361.4743L13595.2136,-3361.4749L13595.213,-3361.4755L13595.2122,-3361.4765L13595.2118,-3361.4769L13595.2114,-3361.4772L13595.211,-3361.4773L13595.2106,-3361.4773L13595.2097,-3361.4771L13595.2088,-3361.4768L13595.208,-3361.4765L13595.2077,-3361.4764L13595.2072,-3361.4765L13595.2061,-3361.4768L13595.2051,-3361.4771L13595.2042,-3361.4772L13595.2029,-3361.4772L13595.2023,-3361.4773L13595.2014,-3361.4777L13595.2011,-3361.4778L13595.2008,-3361.4778L13595.2004,-3361.4776L13595.1996,-3361.4771L13595.1988,-3361.4767L13595.1982,-3361.4766L13595.1969,-3361.4764L13595.196,-3361.4761L13595.1955,-3361.4758L13595.194,-3361.475L13595.1936,-3361.4748L13595.1926,-3361.4743L13595.192,-3361.4741L13595.1917,-3361.474L13595.191,-3361.474L13595.1903,-3361.4741L13595.1898,-3361.4742L13595.1894,-3361.4745L13595.189,-3361.4747L13595.1889,-3361.4749L13595.1888,-3361.4752L13595.1888,-3361.4756L13595.189,-3361.4762L13595.1893,-3361.4767L13595.1898,-3361.4773L13595.1906,-3361.4778L13595.1927,-3361.479L13595.1936,-3361.4797L13595.1944,-3361.4805L13595.1946,-3361.4808L13595.1958,-3361.4825L13595.1959,-3361.4826L13595.1968,-3361.4835L13595.197,-3361.4839L13595.197,-3361.484L13595.197,-3361.4843L13595.1967,-3361.4845L13595.1963,-3361.4849L13595.1946,-3361.4857L13595.1937,-3361.4863L13595.1931,-3361.487L13595.1926,-3361.4878L13595.1925,-3361.488L13595.1921,-3361.4889L13595.1919,-3361.4892L13595.1917,-3361.4893L13595.1915,-3361.4894L13595.191,-3361.4895L13595.1904,-3361.4894L13595.1893,-3361.4891L13595.1884,-3361.4887L13595.1872,-3361.488L13595.1856,-3361.4871L13595.1848,-3361.4868L13595.1842,-3361.4866L13595.1833,-3361.4865L13595.1814,-3361.4864L13595.1804,-3361.4862L13595.1791,-3361.4857L13595.1772,-3361.4847L13595.1755,-3361.484L13595.1744,-3361.4833L13595.1728,-3361.4821L13595.1708,-3361.4806L13595.1702,-3361.4802L13595.1692,-3361.4798L13595.1679,-3361.4794L13595.1667,-3361.4791L13595.1652,-3361.4787L13595.1643,-3361.4782L13595.164,-3361.4781L13595.1633,-3361.4775L13595.1616,-3361.4761L13595.1607,-3361.4754L13595.1598,-3361.475L13595.1588,-3361.4747L13595.1574,-3361.4745L13595.156,-3361.4743L13595.1543,-3361.474L13595.1533,-3361.4737L13595.153,-3361.4736L13595.1517,-3361.473L13595.1504,-3361.4724L13595.1492,-3361.472L13595.1482,-3361.4718L13595.1462,-3361.4715L13595.1451,-3361.4712L13595.1444,-3361.4708L13595.1439,-3361.4704L13595.1438,-3361.4703L13595.1433,-3361.4696L13595.1428,-3361.4686L13595.1425,-3361.4683L13595.1423,-3361.4681L13595.1419,-3361.468L13595.1411,-3361.4678L13595.1399,-3361.4678L13595.1384,-3361.4678L13595.1363,-3361.4677L13595.1358,-3361.4676L13595.1345,-3361.4674L13595.134,-3361.4674L13595.1338,-3361.4675L13595.1333,-3361.4676L13595.1327,-3361.468L13595.1321,-3361.4686L13595.1314,-3361.4692L13595.131,-3361.4694L13595.1306,-3361.4695L13595.1302,-3361.4695L13595.129,-3361.4693L13595.1287,-3361.4693L13595.1286,-3361.4693L13595.1284,-3361.4694L13595.1279,-3361.4702L13595.1277,-3361.4706L13595.1275,-3361.4707L13595.1272,-3361.4709L13595.1268,-3361.471L13595.1264,-3361.4711L13595.1262,-3361.4711L13595.1257,-3361.471L13595.1252,-3361.4707L13595.1244,-3361.4702L13595.1238,-3361.4698L13595.1228,-3361.4693L13595.1212,-3361.4686L13595.12,-3361.4681L13595.1192,-3361.4679L13595.119,-3361.4679L13595.1181,-3361.468L13595.1165,-3361.4683L13595.1162,-3361.4683L13595.1154,-3361.4682L13595.114,-3361.4679L13595.1138,-3361.4679L13595.1127,-3361.4679L13595.1117,-3361.468L13595.1114,-3361.4679L13595.11,-3361.4676L13595.1095,-3361.4676L13595.1091,-3361.4677L13595.1084,-3361.468L13595.1077,-3361.4684L13595.1067,-3361.4687L13595.1058,-3361.4689L13595.1053,-3361.4692L13595.105,-3361.4694L13595.1048,-3361.4698L13595.1046,-3361.4702L13595.1046,-3361.4706L13595.1047,-3361.4711L13595.1053,-3361.4722L13595.1056,-3361.4729L13595.1057,-3361.4735L13595.1057,-3361.4738L13595.1055,-3361.4742L13595.1051,-3361.4747L13595.1046,-3361.4751L13595.1032,-3361.4758L13595.1029,-3361.4761L13595.1026,-3361.4766L13595.1024,-3361.4774L13595.1023,-3361.4777L13595.102,-3361.4789L13595.1016,-3361.4796L13595.1005,-3361.481L13595.0991,-3361.483L13595.0985,-3361.4836L13595.0976,-3361.4841L13595.0963,-3361.4848L13595.0956,-3361.4853L13595.0951,-3361.4859L13595.0945,-3361.487L13595.0937,-3361.4889L13595.0928,-3361.491L13595.0924,-3361.4924L13595.0924,-3361.4934L13595.0924,-3361.4937L13595.0928,-3361.495L13595.0928,-3361.4959L13595.0928,-3361.4967L13595.093,-3361.4975L13595.0933,-3361.4985L13595.0934,-3361.4992L13595.0932,-3361.5L13595.0926,-3361.5013L13595.0925,-3361.502L13595.0925,-3361.5025L13595.0926,-3361.5028L13595.0928,-3361.5033L13595.0935,-3361.5041L13595.0956,-3361.5061L13595.0961,-3361.5069L13595.0964,-3361.5077L13595.0965,-3361.5084L13595.0963,-3361.5098L13595.0963,-3361.5104L13595.0964,-3361.5107L13595.0965,-3361.5109L13595.0968,-3361.5111L13595.0975,-3361.5115L13595.098,-3361.5117L13595.0989,-3361.5123L13595.0994,-3361.5128L13595.0996,-3361.513L13595.1,-3361.5139L13595.1004,-3361.5148L13595.1006,-3361.5149L13595.1009,-3361.5153L13595.1013,-3361.5155L13595.1017,-3361.5157L13595.1026,-3361.5158L13595.1032,-3361.5159L13595.1038,-3361.5162L13595.1047,-3361.5167L13595.1051,-3361.517L13595.1066,-3361.518L13595.1099,-3361.52L13595.1109,-3361.5207L13595.1125,-3361.5221L13595.1139,-3361.5233L13595.1152,-3361.5241L13595.1178,-3361.5255L13595.1185,-3361.526L13595.1197,-3361.527L13595.1206,-3361.5277L13595.1226,-3361.5291L13595.1239,-3361.5301L13595.1242,-3361.5305L13595.125,-3361.5313L13595.1256,-3361.5323L13595.126,-3361.5332L13595.1261,-3361.5339L13595.126,-3361.5354L13595.126,-3361.5362L13595.1261,-3361.5367L13595.1264,-3361.5373L13595.1268,-3361.5379L13595.1275,-3361.5389L13595.1279,-3361.5397L13595.128,-3361.5402L13595.1279,-3361.5407L13595.1277,-3361.5413L13595.1271,-3361.5424L13595.127,-3361.5425L13595.1269,-3361.5433L13595.1269,-3361.5441L13595.1267,-3361.5452L13595.1265,-3361.5461L13595.1265,-3361.5471L13595.1268,-3361.5481L13595.1273,-3361.5493L13595.1284,-3361.551L13595.1288,-3361.5516L13595.1291,-3361.5518L13595.1295,-3361.5521L13595.1306,-3361.5524L13595.1315,-3361.5527L13595.1321,-3361.553L13595.133,-3361.5536L13595.1334,-3361.5538L13595.1342,-3361.5545L13595.1345,-3361.555L13595.1347,-3361.5553L13595.1348,-3361.5559L13595.1347,-3361.5568L13595.1347,-3361.5577L13595.1348,-3361.5583L13595.1352,-3361.559L13595.1356,-3361.5595L13595.1362,-3361.56L13595.1371,-3361.5606L13595.138,-3361.5611L13595.1388,-3361.5614L13595.1391,-3361.5617L13595.1394,-3361.5621L13595.1395,-3361.5624L13595.1397,-3361.5634L13595.14,-3361.5651L13595.1403,-3361.5657L13595.1408,-3361.5666L13595.1414,-3361.5672L13595.1417,-3361.5679L13595.1421,-3361.5687L13595.1427,-3361.5694L13595.1447,-3361.5701L13595.1453,-3361.5703L13595.147,-3361.5707L13595.1476,-3361.571L13595.1483,-3361.5715L13595.1491,-3361.5724L13595.1502,-3361.5737L13595.1508,-3361.5742L13595.1513,-3361.5744L13595.1515,-3361.5745L13595.1522,-3361.5745L13595.1532,-3361.5745L13595.1534,-3361.5744L13595.1558,-3361.574L13595.1572,-3361.5739L13595.1588,-3361.5739L13595.1593,-3361.574L13595.1608,-3361.5742L13595.1619,-3361.5744L13595.1628,-3361.5749L13595.1636,-3361.5754L13595.1645,-3361.5764L13595.1655,-3361.5779L13595.1661,-3361.5792L13595.1665,-3361.5802L13595.1668,-3361.5815L13595.167,-3361.5829L13595.1669,-3361.584L13595.1667,-3361.585L13595.1663,-3361.5862L13595.1657,-3361.5873L13595.165,-3361.5881L13595.1642,-3361.5887L13595.1632,-3361.5892L13595.1617,-3361.5899L13595.1609,-3361.5904L13595.1602,-3361.591L13595.1597,-3361.5915L13595.1595,-3361.5921L13595.1592,-3361.5929L13595.1592,-3361.5936L13595.1594,-3361.5942L13595.1596,-3361.5948L13595.1601,-3361.5953L13595.1609,-3361.5961L13595.1611,-3361.5964L13595.1613,-3361.597L13595.1614,-3361.5981L13595.1614,-3361.5989L13595.1615,-3361.5991L13595.1618,-3361.5997L13595.1624,-3361.6007L13595.1631,-3361.6017L13595.1637,-3361.6032L13595.1643,-3361.6048L13595.1656,-3361.6086L13595.1665,-3361.6117L13595.1667,-3361.6128L13595.1674,-3361.6158L13595.1681,-3361.6179L13595.1682,-3361.6187L13595.1683,-3361.6195L13595.1684,-3361.6197L13595.1686,-3361.62L13595.1688,-3361.6201L13595.1695,-3361.6203L13595.171,-3361.6205L13595.1724,-3361.6206L13595.1754,-3361.6208L13595.1766,-3361.621L13595.1771,-3361.6212L13595.1783,-3361.6216L13595.1788,-3361.6217L13595.1796,-3361.6216L13595.1799,-3361.6216L13595.181,-3361.6215L13595.1828,-3361.6215L13595.1836,-3361.6213L13595.1844,-3361.6209L13595.1851,-3361.6204L13595.1863,-3361.6193L13595.1876,-3361.6178L13595.1888,-3361.6163L13595.1899,-3361.615L13595.1913,-3361.6132L13595.1919,-3361.6121L13595.1922,-3361.6113L13595.1924,-3361.6104L13595.1923,-3361.6095L13595.1921,-3361.6089L13595.1917,-3361.6082L13595.191,-3361.6074L13595.1903,-3361.6068L13595.1895,-3361.6063L13595.1875,-3361.6053L13595.1858,-3361.6042L13595.1853,-3361.6039L13595.1839,-3361.6034L13595.1823,-3361.6029L13595.1816,-3361.6025L13595.1814,-3361.6022L13595.1812,-3361.602L13595.1811,-3361.6016L13595.1812,-3361.6011L13595.1815,-3361.6002L13595.1819,-3361.5995L13595.1824,-3361.5986L13595.1825,-3361.5984L13595.1826,-3361.5978L13595.1826,-3361.5966L13595.1828,-3361.5943L13595.1827,-3361.5934L13595.1826,-3361.5931L13595.1822,-3361.5923L13595.1808,-3361.5904L13595.1805,-3361.5898L13595.1805,-3361.5897L13595.1804,-3361.5891L13595.1805,-3361.5883L13595.181,-3361.5863L13595.181,-3361.5861L13595.1809,-3361.5851L13595.1807,-3361.5842L13595.18,-3361.5829L13595.1797,-3361.5823L13595.1796,-3361.582L13595.1797,-3361.5816L13595.1799,-3361.581L13595.1802,-3361.5804L13595.1802,-3361.5799L13595.1801,-3361.5791L13595.18,-3361.5789L13595.1797,-3361.5775L13595.1796,-3361.5771L13595.1798,-3361.5763L13595.1802,-3361.5756L13595.1806,-3361.5748Z"/>
<path content="和歌山県,,東牟婁郡,那智勝浦町,,30421" xlink:title="和歌山県" d="M13595.1234,-3361.3935L13595.1237,-3361.3934L13595.1241,-3361.3934L13595.1249,-3361.3937L13595.1258,-3361.3942L13595.1265,-3361.3947L13595.1273,-3361.3954L13595.1291,-3361.3974L13595.1302,-3361.3982L13595.1317,-3361.3993L13595.1319,-3361.3994L13595.1325,-3361.4001L13595.1341,-3361.4019L13595.1349,-3361.4025L13595.1359,-3361.4032L13595.1368,-3361.4036L13595.138,-3361.4039L13595.1396,-3361.4041L13595.1423,-3361.4045L13595.1434,-3361.4045L13595.1439,-3361.4045L13595.1447,-3361.4043L13595.1455,-3361.4039L13595.146,-3361.4036L13595.1463,-3361.4033L13595.1466,-3361.4028L13595.1467,-3361.4023L13595.1468,-3361.4016L13595.1467,-3361.4008L13595.1464,-3361.3998L13595.1463,-3361.3994L13595.1465,-3361.399L13595.1467,-3361.3986L13595.147,-3361.3983L13595.1474,-3361.398L13595.1478,-3361.3979L13595.1482,-3361.3978L13595.1488,-3361.3978L13595.1499,-3361.398L13595.1514,-3361.3982L13595.1528,-3361.3982L13595.1537,-3361.3981L13595.1543,-3361.398L13595.1549,-3361.3977L13595.1555,-3361.397L13595.156,-3361.3966L13595.1563,-3361.3965L13595.1569,-3361.3963L13595.1584,-3361.3961L13595.1591,-3361.3959L13595.1596,-3361.3957L13595.1599,-3361.3954L13595.16,-3361.3953L13595.1601,-3361.395L13595.16,-3361.3948L13595.1597,-3361.3944L13595.159,-3361.3937L13595.1582,-3361.393L13595.1575,-3361.3921L13595.1567,-3361.3909L13595.1557,-3361.3897L13595.1547,-3361.3885L13595.1539,-3361.3872L13595.1534,-3361.3865L13595.153,-3361.3862L13595.1522,-3361.3857L13595.1516,-3361.3853L13595.1507,-3361.3847L13595.1495,-3361.3835L13595.1486,-3361.3824L13595.1468,-3361.3801L13595.1452,-3361.3781L13595.1447,-3361.3775L13595.1436,-3361.3756L13595.1432,-3361.3751L13595.1423,-3361.3742L13595.141,-3361.373L13595.1406,-3361.3725L13595.1404,-3361.372L13595.1404,-3361.3718L13595.1406,-3361.3709L13595.1407,-3361.37L13595.1407,-3361.3697L13595.1406,-3361.3691L13595.1403,-3361.3684L13595.1397,-3361.3676L13595.139,-3361.3668L13595.1379,-3361.3655L13595.1375,-3361.3648L13595.137,-3361.3638L13595.1368,-3361.3629L13595.1364,-3361.3619L13595.1361,-3361.3615L13595.1358,-3361.3612L13595.1354,-3361.361L13595.1347,-3361.3609L13595.1342,-3361.3608L13595.134,-3361.3607L13595.1338,-3361.3605L13595.1336,-3361.3602L13595.1335,-3361.3595L13595.1334,-3361.3587L13595.1334,-3361.3554L13595.1332,-3361.3544L13595.1329,-3361.3533L13595.1325,-3361.3523L13595.132,-3361.3516L13595.1311,-3361.3506L13595.13,-3361.3498L13595.1288,-3361.349L13595.1277,-3361.3485L13595.1245,-3361.3475L13595.1236,-3361.347L13595.1227,-3361.3463L13595.1219,-3361.3456L13595.1207,-3361.3448L13595.1186,-3361.3437L13595.1166,-3361.3428L13595.1152,-3361.3419L13595.114,-3361.3412L13595.1112,-3361.3394L13595.1102,-3361.3389L13595.1086,-3361.3383L13595.1072,-3361.3378L13595.1052,-3361.337L13595.1019,-3361.3356L13595.1008,-3361.335L13595.0995,-3361.3342L13595.0984,-3361.3333L13595.0964,-3361.3316L13595.0948,-3361.3303L13595.0943,-3361.3299L13595.0931,-3361.3294L13595.0922,-3361.3291L13595.0908,-3361.3283L13595.0904,-3361.3282L13595.0894,-3361.3279L13595.0889,-3361.3279L13595.0886,-3361.3279L13595.0884,-3361.328L13595.0884,-3361.328L13595.0884,-3361.3282L13595.0889,-3361.3291L13595.0891,-3361.3298L13595.0893,-3361.3303L13595.0895,-3361.3307L13595.0907,-3361.3318L13595.0911,-3361.3324L13595.0915,-3361.3333L13595.0916,-3361.334L13595.0916,-3361.3344L13595.0916,-3361.3346L13595.0915,-3361.3347L13595.0913,-3361.3349L13595.091,-3361.335L13595.0901,-3361.335L13595.0894,-3361.335L13595.0883,-3361.335L13595.0872,-3361.3351L13595.0868,-3361.3352L13595.0853,-3361.3358L13595.0848,-3361.3359L13595.0831,-3361.3366L13595.0826,-3361.3367L13595.0818,-3361.3368L13595.0809,-3361.3368L13595.0803,-3361.3367L13595.08,-3361.3366L13595.0794,-3361.3362L13595.0786,-3361.3355L13595.0775,-3361.3345L13595.0762,-3361.3336L13595.0753,-3361.3328L13595.0749,-3361.3323L13595.0746,-3361.3316L13595.0743,-3361.3301L13595.0741,-3361.3297L13595.0739,-3361.3295L13595.0736,-3361.3294L13595.0734,-3361.3294L13595.0731,-3361.3294L13595.0727,-3361.3295L13595.072,-3361.3298L13595.0714,-3361.3302L13595.0711,-3361.3302L13595.0704,-3361.3301L13595.0691,-3361.3298L13595.068,-3361.3297L13595.0672,-3361.3297L13595.0662,-3361.3299L13595.0656,-3361.33L13595.0644,-3361.3305L13595.0635,-3361.331L13595.0627,-3361.3315L13595.0622,-3361.3319L13595.0619,-3361.3324L13595.0617,-3361.3328L13595.0617,-3361.3332L13595.0617,-3361.3335L13595.0618,-3361.3336L13595.0621,-3361.3339L13595.063,-3361.3345L13595.0633,-3361.3348L13595.0636,-3361.3353L13595.0638,-3361.3361L13595.0639,-3361.3368L13595.0642,-3361.3379L13595.0645,-3361.3384L13595.0647,-3361.3386L13595.0651,-3361.339L13595.0656,-3361.3392L13595.0665,-3361.3394L13595.0681,-3361.3396L13595.0684,-3361.3397L13595.0686,-3361.3398L13595.0687,-3361.3399L13595.0688,-3361.3401L13595.0688,-3361.341L13595.0689,-3361.3412L13595.0691,-3361.3415L13595.0698,-3361.3423L13595.07,-3361.3425L13595.07,-3361.3427L13595.0699,-3361.3431L13595.0694,-3361.3439L13595.0693,-3361.3445L13595.0693,-3361.3449L13595.0694,-3361.3453L13595.0696,-3361.3457L13595.0698,-3361.3459L13595.0705,-3361.3465L13595.0709,-3361.3468L13595.0711,-3361.3472L13595.0712,-3361.348L13595.0713,-3361.3486L13595.0715,-3361.3495L13595.072,-3361.3511L13595.0722,-3361.3515L13595.073,-3361.3536L13595.0733,-3361.3541L13595.0739,-3361.3547L13595.0747,-3361.3552L13595.0749,-3361.3554L13595.0765,-3361.3562L13595.0769,-3361.3565L13595.077,-3361.3566L13595.077,-3361.3567L13595.077,-3361.3568L13595.0769,-3361.3569L13595.0763,-3361.3573L13595.0761,-3361.3575L13595.076,-3361.3576L13595.076,-3361.3579L13595.0764,-3361.3585L13595.0767,-3361.359L13595.077,-3361.3598L13595.0771,-3361.3601L13595.0775,-3361.3603L13595.0783,-3361.3608L13595.079,-3361.3611L13595.0796,-3361.3615L13595.0802,-3361.362L13595.0805,-3361.3625L13595.0808,-3361.3634L13595.0809,-3361.3639L13595.0813,-3361.3648L13595.0817,-3361.3655L13595.0821,-3361.3668L13595.0824,-3361.368L13595.0826,-3361.3693L13595.0826,-3361.3701L13595.0826,-3361.3703L13595.0823,-3361.3717L13595.0823,-3361.3725L13595.0828,-3361.3739L13595.0833,-3361.3757L13595.0837,-3361.3764L13595.0841,-3361.3769L13595.0845,-3361.3772L13595.0851,-3361.3775L13595.0854,-3361.3775L13595.0863,-3361.3777L13595.0876,-3361.3777L13595.088,-3361.3778L13595.0883,-3361.378L13595.0885,-3361.3782L13595.0887,-3361.3784L13595.0887,-3361.3789L13595.0887,-3361.3793L13595.0885,-3361.38L13595.0883,-3361.3806L13595.0884,-3361.381L13595.0885,-3361.3814L13595.0888,-3361.3818L13595.0892,-3361.3821L13595.0894,-3361.3822L13595.0901,-3361.3825L13595.0911,-3361.3828L13595.0913,-3361.383L13595.0915,-3361.3832L13595.0915,-3361.3834L13595.0914,-3361.3839L13595.0913,-3361.3845L13595.0913,-3361.385L13595.0916,-3361.3858L13595.0926,-3361.3877L13595.0929,-3361.3885L13595.093,-3361.3889L13595.0928,-3361.3895L13595.0924,-3361.3906L13595.0923,-3361.3912L13595.0924,-3361.3922L13595.0924,-3361.3924L13595.0928,-3361.3936L13595.093,-3361.394L13595.0941,-3361.3959L13595.0945,-3361.3967L13595.0946,-3361.3969L13595.0953,-3361.3976L13595.0956,-3361.3979L13595.0957,-3361.3981L13595.0958,-3361.3988L13595.0959,-3361.3993L13595.096,-3361.3996L13595.0963,-3361.3999L13595.0969,-3361.4004L13595.0976,-3361.4008L13595.0999,-3361.4021L13595.1011,-3361.4029L13595.1026,-3361.4042L13595.103,-3361.4044L13595.1039,-3361.4049L13595.1051,-3361.4053L13595.1081,-3361.4062L13595.1084,-3361.4063L13595.1099,-3361.407L13595.1111,-3361.4077L13595.1129,-3361.4085L13595.1148,-3361.4093L13595.1164,-3361.4098L13595.1174,-3361.4101L13595.1178,-3361.4102L13595.1187,-3361.4102L13595.1197,-3361.41L13595.1208,-3361.4097L13595.1209,-3361.4096L13595.1218,-3361.4092L13595.1226,-3361.4086L13595.1233,-3361.4079L13595.1239,-3361.4071L13595.1243,-3361.4064L13595.1244,-3361.4057L13595.1245,-3361.4053L13595.1243,-3361.4044L13595.1237,-3361.4025L13595.1236,-3361.4015L13595.1236,-3361.3987L13595.1233,-3361.3969L13595.123,-3361.395L13595.1231,-3361.3941L13595.1232,-3361.3937L13595.1234,-3361.3935Z"/>
<path content="和歌山県,,東牟婁郡,那智勝浦町,,30421" xlink:title="和歌山県" d="M13595.2107,-3361.7226L13595.2113,-3361.7225L13595.2119,-3361.7226L13595.2126,-3361.7228L13595.2136,-3361.7233L13595.214,-3361.7235L13595.2142,-3361.7235L13595.2144,-3361.7234L13595.2148,-3361.7233L13595.2153,-3361.7229L13595.2164,-3361.7218L13595.2174,-3361.7208L13595.2182,-3361.7201L13595.2188,-3361.7195L13595.2191,-3361.7191L13595.2193,-3361.7187L13595.2193,-3361.7176L13595.2194,-3361.717L13595.2194,-3361.7168L13595.2198,-3361.7163L13595.2204,-3361.7156L13595.2214,-3361.7146L13595.2217,-3361.7142L13595.2218,-3361.7138L13595.2218,-3361.7136L13595.2217,-3361.7132L13595.2216,-3361.7128L13595.2213,-3361.7124L13595.2206,-3361.7118L13595.2202,-3361.7114L13595.2198,-3361.7109L13595.2196,-3361.7106L13595.2184,-3361.7077L13595.2183,-3361.7074L13595.2176,-3361.7063L13595.217,-3361.7057L13595.2169,-3361.7055L13595.2162,-3361.705L13595.2151,-3361.7041L13595.2149,-3361.7039L13595.214,-3361.7036L13595.2126,-3361.7031L13595.2112,-3361.7024L13595.2102,-3361.7019L13595.21,-3361.7018L13595.2093,-3361.7016L13595.2079,-3361.7015L13595.2063,-3361.7015L13595.2048,-3361.7017L13595.2036,-3361.7019L13595.2026,-3361.7022L13595.202,-3361.7022L13595.2012,-3361.702L13595.2006,-3361.7018L13595.2001,-3361.7018L13595.1993,-3361.7019L13595.1986,-3361.7021L13595.1981,-3361.7023L13595.1978,-3361.7023L13595.1976,-3361.7022L13595.1974,-3361.702L13595.1971,-3361.7017L13595.1967,-3361.7007L13595.1962,-3361.6997L13595.1956,-3361.699L13595.1954,-3361.6987L13595.1947,-3361.6982L13595.1932,-3361.6975L13595.1921,-3361.6969L13595.1912,-3361.6963L13595.1901,-3361.6956L13595.1898,-3361.6952L13595.1897,-3361.695L13595.1895,-3361.6946L13595.1893,-3361.6936L13595.189,-3361.693L13595.1887,-3361.6924L13595.1881,-3361.6911L13595.188,-3361.691L13595.1874,-3361.6904L13595.1867,-3361.6898L13595.186,-3361.6894L13595.1851,-3361.689L13595.1846,-3361.6889L13595.1845,-3361.6889L13595.184,-3361.6889L13595.1833,-3361.6891L13595.1828,-3361.6893L13595.1818,-3361.6895L13595.1794,-3361.6897L13595.1766,-3361.6902L13595.1763,-3361.6903L13595.1747,-3361.6903L13595.1743,-3361.6903L13595.1737,-3361.6903L13595.1722,-3361.6903L13595.1708,-3361.6902L13595.1703,-3361.6902L13595.17,-3361.6903L13595.1697,-3361.6904L13595.1694,-3361.6906L13595.1693,-3361.6908L13595.1693,-3361.6911L13595.1694,-3361.6919L13595.1695,-3361.6927L13595.1694,-3361.694L13595.1695,-3361.6943L13595.1697,-3361.6948L13595.1702,-3361.6955L13595.1713,-3361.6964L13595.174,-3361.6986L13595.1748,-3361.6994L13595.1765,-3361.7012L13595.1781,-3361.7029L13595.1802,-3361.7046L13595.1818,-3361.7059L13595.183,-3361.7068L13595.1836,-3361.7074L13595.184,-3361.7079L13595.1841,-3361.7083L13595.1841,-3361.7086L13595.184,-3361.709L13595.1838,-3361.7093L13595.1835,-3361.7094L13595.1833,-3361.7095L13595.1829,-3361.7095L13595.1822,-3361.7093L13595.1803,-3361.7084L13595.1794,-3361.7081L13595.1788,-3361.708L13595.1781,-3361.708L13595.1776,-3361.7081L13595.1773,-3361.7083L13595.1771,-3361.7085L13595.1769,-3361.7087L13595.1768,-3361.7091L13595.1767,-3361.7096L13595.1768,-3361.7099L13595.1771,-3361.7103L13595.1776,-3361.7108L13595.1786,-3361.7116L13595.1789,-3361.7119L13595.179,-3361.7121L13595.179,-3361.7125L13595.1791,-3361.7136L13595.1791,-3361.7139L13595.1793,-3361.7141L13595.1797,-3361.7145L13595.1806,-3361.7152L13595.1825,-3361.7167L13595.1841,-3361.7176L13595.1851,-3361.7183L13595.1854,-3361.7185L13595.1859,-3361.7193L13595.1863,-3361.7202L13595.1863,-3361.7204L13595.1867,-3361.722L13595.1869,-3361.7234L13595.1868,-3361.7246L13595.1866,-3361.7273L13595.1867,-3361.7282L13595.187,-3361.7293L13595.1872,-3361.7302L13595.1873,-3361.7312L13595.1873,-3361.7329L13595.1875,-3361.7335L13595.1875,-3361.7337L13595.1882,-3361.7346L13595.1886,-3361.7351L13595.1899,-3361.7369L13595.1908,-3361.738L13595.1912,-3361.7383L13595.1918,-3361.7387L13595.1922,-3361.7389L13595.1927,-3361.739L13595.1931,-3361.739L13595.1938,-3361.7389L13595.1944,-3361.7387L13595.196,-3361.7379L13595.1968,-3361.7374L13595.1972,-3361.7369L13595.1976,-3361.7362L13595.1981,-3361.735L13595.1986,-3361.734L13595.1994,-3361.7329L13595.2007,-3361.7314L13595.2038,-3361.7283L13595.2064,-3361.7258L13595.208,-3361.7243L13595.2091,-3361.7233L13595.2093,-3361.7231L13595.21,-3361.7228L13595.2107,-3361.7226Z"/>
<path content="和歌山県,,東牟婁郡,那智勝浦町,,30421" xlink:title="和歌山県" d="M13595.1988,-3361.6603L13595.199,-3361.66L13595.1992,-3361.6598L13595.1996,-3361.6596L13595.2002,-3361.6595L13595.2013,-3361.6594L13595.2022,-3361.6594L13595.2033,-3361.6594L13595.204,-3361.6593L13595.2044,-3361.6591L13595.2047,-3361.6589L13595.205,-3361.6586L13595.2053,-3361.6581L13595.2055,-3361.6571L13595.2056,-3361.6569L13595.206,-3361.6551L13595.2062,-3361.6547L13595.2068,-3361.6537L13595.208,-3361.6521L13595.2084,-3361.6512L13595.2085,-3361.6505L13595.2084,-3361.6499L13595.2081,-3361.6493L13595.2076,-3361.6485L13595.207,-3361.6479L13595.2057,-3361.6467L13595.2046,-3361.6456L13595.2041,-3361.6449L13595.203,-3361.6426L13595.2016,-3361.6404L13595.2007,-3361.6383L13595.2005,-3361.638L13595.1998,-3361.6371L13595.1989,-3361.6362L13595.1979,-3361.6354L13595.1962,-3361.6338L13595.1952,-3361.6331L13595.1943,-3361.6327L13595.1937,-3361.6325L13595.1926,-3361.6324L13595.1911,-3361.6324L13595.1895,-3361.6325L13595.1881,-3361.6327L13595.1868,-3361.633L13595.1859,-3361.6333L13595.1845,-3361.634L13595.1835,-3361.6345L13595.1815,-3361.6353L13595.1801,-3361.6358L13595.1798,-3361.636L13595.1787,-3361.6366L13595.1779,-3361.6373L13595.1771,-3361.6381L13595.1765,-3361.6389L13595.1762,-3361.6397L13595.1761,-3361.6406L13595.1761,-3361.6411L13595.1762,-3361.6415L13595.1766,-3361.6421L13595.1773,-3361.643L13595.1775,-3361.6434L13595.1775,-3361.6437L13595.1775,-3361.6439L13595.1774,-3361.6442L13595.1771,-3361.6444L13595.176,-3361.645L13595.1755,-3361.6454L13595.1751,-3361.6459L13595.1749,-3361.6463L13595.1747,-3361.647L13595.1746,-3361.6478L13595.1747,-3361.6485L13595.1748,-3361.6487L13595.1752,-3361.6495L13595.1753,-3361.6497L13595.1758,-3361.6505L13595.1768,-3361.6515L13595.1773,-3361.652L13595.1775,-3361.6524L13595.1776,-3361.6529L13595.1774,-3361.6538L13595.1772,-3361.6546L13595.1772,-3361.6553L13595.1774,-3361.6573L13595.1774,-3361.6581L13595.1775,-3361.6584L13595.1777,-3361.6586L13595.1777,-3361.6586L13595.1779,-3361.6587L13595.1782,-3361.6588L13595.1786,-3361.6588L13595.1792,-3361.6588L13595.1794,-3361.6588L13595.1796,-3361.6589L13595.1797,-3361.6591L13595.1798,-3361.6601L13595.18,-3361.6608L13595.1805,-3361.6619L13595.1809,-3361.6633L13595.181,-3361.6636L13595.1811,-3361.6637L13595.1814,-3361.6639L13595.1815,-3361.6639L13595.1818,-3361.6638L13595.1821,-3361.6637L13595.1824,-3361.6636L13595.1826,-3361.6634L13595.1827,-3361.6632L13595.1827,-3361.663L13595.1826,-3361.6626L13595.182,-3361.6615L13595.1819,-3361.661L13595.1819,-3361.6608L13595.1819,-3361.6605L13595.182,-3361.6604L13595.1821,-3361.6603L13595.1823,-3361.6602L13595.1825,-3361.6602L13595.1827,-3361.6602L13595.183,-3361.6604L13595.1835,-3361.661L13595.1838,-3361.6614L13595.1849,-3361.663L13595.1852,-3361.6633L13595.1858,-3361.6638L13595.187,-3361.6644L13595.188,-3361.6648L13595.1894,-3361.6655L13595.1898,-3361.6658L13595.1911,-3361.6667L13595.1912,-3361.6667L13595.1917,-3361.667L13595.1924,-3361.6671L13595.1932,-3361.6672L13595.194,-3361.6671L13595.1943,-3361.667L13595.1951,-3361.6668L13595.1952,-3361.6667L13595.1969,-3361.6659L13595.197,-3361.6658L13595.1983,-3361.6654L13595.1987,-3361.6651L13595.1989,-3361.6649L13595.199,-3361.6645L13595.1991,-3361.6639L13595.1989,-3361.6628L13595.1987,-3361.662L13595.1987,-3361.6611L13595.1987,-3361.6609L13595.1988,-3361.6603Z"/>
<path content="和歌山県,,東牟婁郡,那智勝浦町,,30421" xlink:title="和歌山県" d="M13595.216,-3361.8069L13595.2116,-3361.8069L13595.2085,-3361.8082L13595.2057,-3361.8088L13595.2041,-3361.8106L13595.2038,-3361.8138L13595.2038,-3361.8161L13595.2041,-3361.8164L13595.2266,-3361.8164L13595.2242,-3361.8114L13595.2201,-3361.808L13595.216,-3361.8069Z"/>
<path content="和歌山県,,東牟婁郡,那智勝浦町,,30421" xlink:title="和歌山県" d="M13594.5985,-3361.7025L13594.5999,-3361.7023L13594.6006,-3361.7023L13594.6015,-3361.7026L13594.603,-3361.7031L13594.6034,-3361.7032L13594.6044,-3361.7033L13594.6051,-3361.7034L13594.606,-3361.7036L13594.6082,-3361.7043L13594.6092,-3361.7045L13594.6104,-3361.7045L13594.6108,-3361.7045L13594.6117,-3361.7043L13594.6121,-3361.7041L13594.6125,-3361.7039L13594.613,-3361.7033L13594.6132,-3361.7032L13594.6134,-3361.7032L13594.6137,-3361.7032L13594.6149,-3361.7034L13594.615,-3361.7034L13594.6154,-3361.7034L13594.6158,-3361.7032L13594.6164,-3361.7029L13594.617,-3361.7024L13594.6173,-3361.7021L13594.6179,-3361.7013L13594.6183,-3361.7004L13594.6184,-3361.7001L13594.6185,-3361.6993L13594.6185,-3361.6988L13594.6184,-3361.6985L13594.6179,-3361.6977L13594.6177,-3361.6972L13594.6176,-3361.6964L13594.6177,-3361.6953L13594.6179,-3361.694L13594.6182,-3361.6933L13594.6182,-3361.6931L13594.6187,-3361.6924L13594.6191,-3361.6919L13594.6197,-3361.691L13594.62,-3361.6902L13594.6201,-3361.6897L13594.6201,-3361.6893L13594.62,-3361.6891L13594.6199,-3361.689L13594.6197,-3361.6889L13594.6194,-3361.6887L13594.6189,-3361.6887L13594.6185,-3361.6887L13594.6178,-3361.6888L13594.6171,-3361.689L13594.6167,-3361.6893L13594.6163,-3361.6896L13594.6161,-3361.6899L13594.6161,-3361.6901L13594.6161,-3361.6904L13594.6164,-3361.6915L13594.6164,-3361.6916L13594.6164,-3361.6921L13594.6162,-3361.6925L13594.6161,-3361.6927L13594.6158,-3361.6929L13594.6156,-3361.693L13594.6153,-3361.6931L13594.6146,-3361.693L13594.6142,-3361.6929L13594.6128,-3361.6926L13594.6123,-3361.6926L13594.612,-3361.6926L13594.6118,-3361.6927L13594.6115,-3361.6928L13594.6113,-3361.6931L13594.6112,-3361.6933L13594.6111,-3361.6936L13594.6111,-3361.694L13594.6114,-3361.6945L13594.6115,-3361.6948L13594.6115,-3361.695L13594.6114,-3361.6953L13594.6111,-3361.6957L13594.6109,-3361.6959L13594.6102,-3361.6963L13594.6095,-3361.6966L13594.609,-3361.6967L13594.6085,-3361.6967L13594.6082,-3361.6967L13594.608,-3361.6966L13594.6079,-3361.6964L13594.6078,-3361.6962L13594.6078,-3361.6957L13594.6079,-3361.6947L13594.6085,-3361.693L13594.6086,-3361.6923L13594.6086,-3361.6919L13594.6085,-3361.6917L13594.6085,-3361.6915L13594.6081,-3361.6913L13594.6079,-3361.6911L13594.6067,-3361.6905L13594.6058,-3361.6901L13594.6056,-3361.6901L13594.6038,-3361.6897L13594.6033,-3361.6896L13594.6031,-3361.6894L13594.603,-3361.6892L13594.6029,-3361.6891L13594.603,-3361.6888L13594.6031,-3361.6884L13594.6035,-3361.6879L13594.6039,-3361.6876L13594.6045,-3361.6873L13594.6056,-3361.6867L13594.6058,-3361.6865L13594.6061,-3361.6862L13594.6063,-3361.686L13594.6064,-3361.6857L13594.6064,-3361.6855L13594.6063,-3361.6853L13594.6061,-3361.6851L13594.6058,-3361.6849L13594.6055,-3361.6849L13594.6047,-3361.6849L13594.6026,-3361.6853L13594.6019,-3361.6855L13594.601,-3361.6859L13594.5991,-3361.687L13594.5989,-3361.6871L13594.5973,-3361.6877L13594.5969,-3361.6879L13594.5966,-3361.6881L13594.5964,-3361.6885L13594.5959,-3361.69L13594.5955,-3361.6906L13594.5946,-3361.6913L13594.5935,-3361.6922L13594.5933,-3361.6925L13594.5929,-3361.6933L13594.5924,-3361.6943L13594.5917,-3361.6954L13594.591,-3361.6967L13594.5908,-3361.6972L13594.5908,-3361.6975L13594.5908,-3361.6977L13594.591,-3361.698L13594.5918,-3361.6987L13594.5927,-3361.6993L13594.5933,-3361.6998L13594.5934,-3361.7L13594.5934,-3361.7002L13594.5934,-3361.7003L13594.5932,-3361.7005L13594.5928,-3361.7007L13594.5913,-3361.7012L13594.591,-3361.7014L13594.5909,-3361.7014L13594.5908,-3361.7016L13594.5907,-3361.7018L13594.5907,-3361.7021L13594.5908,-3361.7024L13594.5909,-3361.7027L13594.591,-3361.7028L13594.5912,-3361.703L13594.5916,-3361.7032L13594.5929,-3361.7036L13594.5939,-3361.7041L13594.5952,-3361.7048L13594.5958,-3361.705L13594.5963,-3361.705L13594.5969,-3361.7049L13594.5973,-3361.7047L13594.5976,-3361.7045L13594.5978,-3361.7043L13594.5978,-3361.7042L13594.5978,-3361.704L13594.5977,-3361.7038L13594.5972,-3361.7033L13594.5971,-3361.7032L13594.5971,-3361.703L13594.5973,-3361.7029L13594.5981,-3361.7026L13594.5985,-3361.7025Z"/>
<path content="和歌山県,,東牟婁郡,那智勝浦町,,30421" xlink:title="和歌山県" d="M13595.2947,-3361.6545L13595.2814,-3361.6538L13595.2776,-3361.654L13595.2746,-3361.655L13595.2744,-3361.6566L13595.2748,-3361.6575L13595.2788,-3361.6591L13595.2808,-3361.6629L13595.283,-3361.6653L13595.2854,-3361.6664L13595.2889,-3361.6666L13595.2941,-3361.6654L13595.2979,-3361.6624L13595.2985,-3361.658L13595.2975,-3361.6551L13595.2947,-3361.6545Z"/>
<path content="和歌山県,,東牟婁郡,那智勝浦町,,30421" xlink:title="和歌山県" d="M13594.6099,-3361.7255L13594.6112,-3361.7246L13594.6118,-3361.7241L13594.6121,-3361.7238L13594.6122,-3361.7235L13594.6122,-3361.7234L13594.6122,-3361.7232L13594.612,-3361.7229L13594.6117,-3361.7226L13594.6111,-3361.7221L13594.6109,-3361.722L13594.6108,-3361.7217L13594.6107,-3361.7212L13594.6107,-3361.7208L13594.6109,-3361.7204L13594.6111,-3361.7201L13594.6112,-3361.72L13594.6115,-3361.7199L13594.6123,-3361.7197L13594.6128,-3361.7195L13594.6133,-3361.7193L13594.6137,-3361.7191L13594.6141,-3361.7187L13594.6143,-3361.7181L13594.6144,-3361.7177L13594.6144,-3361.7172L13594.6143,-3361.717L13594.6142,-3361.7168L13594.6141,-3361.7167L13594.6138,-3361.7166L13594.613,-3361.7165L13594.6118,-3361.7163L13594.6109,-3361.7161L13594.61,-3361.716L13594.6092,-3361.7161L13594.6089,-3361.7162L13594.6076,-3361.7165L13594.6072,-3361.7166L13594.6068,-3361.7165L13594.6066,-3361.7163L13594.6059,-3361.7157L13594.6056,-3361.7156L13594.6053,-3361.7155L13594.6049,-3361.7155L13594.6045,-3361.7155L13594.6036,-3361.7159L13594.603,-3361.7161L13594.6028,-3361.7162L13594.6024,-3361.7162L13594.6018,-3361.716L13594.601,-3361.7156L13594.6002,-3361.7152L13594.5998,-3361.7151L13594.5994,-3361.7151L13594.5991,-3361.7151L13594.5987,-3361.7153L13594.5984,-3361.7155L13594.5979,-3361.7162L13594.5976,-3361.7164L13594.5976,-3361.7164L13594.5974,-3361.7165L13594.597,-3361.7165L13594.5967,-3361.7164L13594.5965,-3361.7163L13594.596,-3361.716L13594.5953,-3361.7156L13594.595,-3361.7155L13594.5948,-3361.7155L13594.5945,-3361.7155L13594.594,-3361.7157L13594.5936,-3361.716L13594.5933,-3361.7164L13594.5932,-3361.7165L13594.593,-3361.7169L13594.5929,-3361.7174L13594.593,-3361.7183L13594.5933,-3361.7192L13594.5936,-3361.7198L13594.5937,-3361.7199L13594.5942,-3361.7204L13594.5957,-3361.7216L13594.5964,-3361.7224L13594.5968,-3361.7231L13594.5974,-3361.7243L13594.5977,-3361.7246L13594.5979,-3361.7248L13594.598,-3361.7249L13594.5984,-3361.7249L13594.5994,-3361.7249L13594.6001,-3361.7249L13594.6012,-3361.725L13594.6021,-3361.7252L13594.6032,-3361.7252L13594.6043,-3361.7251L13594.605,-3361.7252L13594.6059,-3361.7255L13594.6066,-3361.7258L13594.6075,-3361.7264L13594.6079,-3361.7265L13594.6082,-3361.7266L13594.6085,-3361.7265L13594.6089,-3361.7263L13594.6097,-3361.7257L13594.6099,-3361.7255Z"/>
<path content="和歌山県,,東牟婁郡,那智勝浦町,,30421" xlink:title="和歌山県" d="M13595.1365,-3361.5967L13595.1294,-3361.5966L13595.1262,-3361.5996L13595.1261,-3361.6011L13595.131,-3361.6048L13595.1372,-3361.6088L13595.1405,-3361.6088L13595.1419,-3361.6048L13595.1391,-3361.603L13595.1391,-3361.5986L13595.1365,-3361.5967Z"/>
<path content="和歌山県,,東牟婁郡,那智勝浦町,,30421" xlink:title="和歌山県" d="M13594.5629,-3361.7086L13594.5624,-3361.7085L13594.5621,-3361.7085L13594.5616,-3361.7086L13594.5608,-3361.7091L13594.5606,-3361.7092L13594.5595,-3361.7098L13594.5593,-3361.7099L13594.5579,-3361.7104L13594.5576,-3361.7106L13594.5573,-3361.7109L13594.5569,-3361.7116L13594.5565,-3361.7124L13594.5561,-3361.7131L13594.556,-3361.7134L13594.556,-3361.7135L13594.5561,-3361.7136L13594.5562,-3361.7137L13594.5564,-3361.7138L13594.5573,-3361.714L13594.5574,-3361.7141L13594.5574,-3361.7142L13594.5573,-3361.7144L13594.5569,-3361.7147L13594.5559,-3361.7156L13594.5556,-3361.7159L13594.5556,-3361.7161L13594.5556,-3361.7164L13594.5558,-3361.7167L13594.5564,-3361.7172L13594.5581,-3361.7181L13594.5592,-3361.7188L13594.5605,-3361.7196L13594.5612,-3361.7199L13594.5617,-3361.72L13594.5622,-3361.72L13594.5629,-3361.7199L13594.5636,-3361.7197L13594.5642,-3361.7194L13594.5647,-3361.719L13594.565,-3361.7187L13594.5652,-3361.7184L13594.5653,-3361.7178L13594.5652,-3361.717L13594.5652,-3361.7164L13594.5653,-3361.7151L13594.5653,-3361.7144L13594.5652,-3361.7141L13594.5648,-3361.7133L13594.5643,-3361.7127L13594.5638,-3361.7119L13594.5636,-3361.7112L13594.5635,-3361.711L13594.5636,-3361.7095L13594.5635,-3361.7091L13594.5633,-3361.7089L13594.5631,-3361.7087L13594.5629,-3361.7086Z"/>
<path content="和歌山県,,東牟婁郡,那智勝浦町,,30421" xlink:title="和歌山県" d="M13595.246,-3361.6528L13595.2412,-3361.652L13595.2337,-3361.6522L13595.2299,-3361.6552L13595.2308,-3361.6566L13595.24,-3361.6576L13595.2441,-3361.6578L13595.2463,-3361.6566L13595.2467,-3361.6544L13595.246,-3361.6528Z"/>
<path content="和歌山県,,東牟婁郡,那智勝浦町,,30421" xlink:title="和歌山県" d="M13595.2124,-3361.7792L13595.2119,-3361.7792L13595.2115,-3361.7792L13595.2109,-3361.7794L13595.2104,-3361.7796L13595.2103,-3361.7797L13595.2103,-3361.7798L13595.2103,-3361.7798L13595.2104,-3361.78L13595.211,-3361.7802L13595.2125,-3361.7806L13595.214,-3361.781L13595.2147,-3361.7813L13595.2151,-3361.7817L13595.2153,-3361.7821L13595.2155,-3361.7826L13595.2155,-3361.7832L13595.2155,-3361.7834L13595.2153,-3361.7842L13595.2154,-3361.7844L13595.2154,-3361.7846L13595.2157,-3361.7849L13595.2163,-3361.7854L13595.2168,-3361.7858L13595.2182,-3361.7866L13595.2188,-3361.7868L13595.2192,-3361.7869L13595.2195,-3361.7868L13595.22,-3361.7866L13595.2209,-3361.7862L13595.2213,-3361.7861L13595.2224,-3361.7861L13595.2226,-3361.786L13595.2228,-3361.7859L13595.2229,-3361.7858L13595.223,-3361.7854L13595.2229,-3361.7847L13595.2228,-3361.7842L13595.2224,-3361.783L13595.2221,-3361.7825L13595.2216,-3361.7821L13595.2215,-3361.7821L13595.2208,-3361.7818L13595.2198,-3361.7815L13595.2167,-3361.7807L13595.215,-3361.7801L13595.2144,-3361.7799L13595.2131,-3361.7794L13595.2124,-3361.7792Z"/>
<path content="和歌山県,,東牟婁郡,那智勝浦町,,30421" xlink:title="和歌山県" d="M13594.5917,-3361.7497L13594.5913,-3361.7497L13594.591,-3361.7497L13594.5908,-3361.7498L13594.5907,-3361.75L13594.5905,-3361.7503L13594.5904,-3361.7509L13594.5905,-3361.7517L13594.5906,-3361.7524L13594.5909,-3361.7529L13594.5913,-3361.7533L13594.5916,-3361.7535L13594.5923,-3361.754L13594.5925,-3361.7542L13594.5926,-3361.7544L13594.5927,-3361.7547L13594.5926,-3361.7554L13594.5926,-3361.7556L13594.5927,-3361.7557L13594.593,-3361.7559L13594.5938,-3361.7561L13594.5945,-3361.7562L13594.5951,-3361.7564L13594.5965,-3361.757L13594.5967,-3361.7571L13594.5974,-3361.7572L13594.598,-3361.7573L13594.5985,-3361.7572L13594.5988,-3361.7571L13594.599,-3361.7569L13594.5991,-3361.7567L13594.5991,-3361.7565L13594.599,-3361.7559L13594.5987,-3361.7554L13594.5981,-3361.7547L13594.5968,-3361.7536L13594.5957,-3361.7525L13594.5946,-3361.7513L13594.5942,-3361.7509L13594.5932,-3361.7502L13594.5923,-3361.7498L13594.5917,-3361.7497Z"/>
<path content="和歌山県,,東牟婁郡,那智勝浦町,,30421" xlink:title="和歌山県" d="M13594.5269,-3361.7118L13594.5264,-3361.7118L13594.525,-3361.7118L13594.5247,-3361.7118L13594.5237,-3361.7115L13594.5231,-3361.7113L13594.523,-3361.7113L13594.5228,-3361.7113L13594.5226,-3361.7115L13594.5224,-3361.7117L13594.5223,-3361.7122L13594.5223,-3361.7131L13594.5225,-3361.7141L13594.5229,-3361.7149L13594.5236,-3361.716L13594.5238,-3361.7165L13594.5239,-3361.7175L13594.524,-3361.7178L13594.5242,-3361.7179L13594.5244,-3361.718L13594.5249,-3361.7181L13594.5257,-3361.718L13594.5259,-3361.718L13594.5266,-3361.7177L13594.5271,-3361.7174L13594.5276,-3361.717L13594.5278,-3361.7167L13594.528,-3361.7161L13594.5282,-3361.7156L13594.5285,-3361.7142L13594.5285,-3361.7138L13594.5284,-3361.7133L13594.5282,-3361.7128L13594.5278,-3361.7124L13594.5274,-3361.712L13594.5269,-3361.7118Z"/>
<path content="和歌山県,,東牟婁郡,那智勝浦町,,30421" xlink:title="和歌山県" d="M13594.6216,-3361.707L13594.622,-3361.7063L13594.6223,-3361.7055L13594.6227,-3361.7044L13594.6227,-3361.704L13594.6226,-3361.7037L13594.6224,-3361.7036L13594.6223,-3361.7035L13594.6219,-3361.7034L13594.6214,-3361.7034L13594.6208,-3361.7035L13594.6198,-3361.704L13594.6184,-3361.7048L13594.6177,-3361.7051L13594.6171,-3361.7053L13594.6162,-3361.7053L13594.6153,-3361.7053L13594.6148,-3361.7054L13594.6146,-3361.7055L13594.6145,-3361.7056L13594.6143,-3361.7058L13594.6142,-3361.7061L13594.6141,-3361.7064L13594.6141,-3361.7067L13594.6142,-3361.7069L13594.6143,-3361.707L13594.6144,-3361.7071L13594.6146,-3361.7072L13594.6151,-3361.7072L13594.6166,-3361.707L13594.6173,-3361.7071L13594.6182,-3361.7073L13594.6192,-3361.7076L13594.6195,-3361.7077L13594.6202,-3361.7077L13594.6207,-3361.7076L13594.621,-3361.7075L13594.6214,-3361.7073L13594.6216,-3361.707Z"/>
<path content="和歌山県,,東牟婁郡,那智勝浦町,,30421" xlink:title="和歌山県" d="M13594.5806,-3361.7311L13594.5793,-3361.7309L13594.578,-3361.731L13594.5771,-3361.7311L13594.5765,-3361.7313L13594.5762,-3361.7315L13594.5761,-3361.7317L13594.576,-3361.7319L13594.5761,-3361.7321L13594.5763,-3361.7324L13594.5767,-3361.7329L13594.5772,-3361.7333L13594.5775,-3361.7335L13594.5781,-3361.7337L13594.5791,-3361.7339L13594.5805,-3361.734L13594.5823,-3361.7344L13594.5829,-3361.7344L13594.5832,-3361.7344L13594.5837,-3361.7342L13594.5842,-3361.7339L13594.5846,-3361.7336L13594.5848,-3361.7334L13594.5848,-3361.7331L13594.5849,-3361.7329L13594.5848,-3361.7327L13594.5847,-3361.7325L13594.5845,-3361.7324L13594.5842,-3361.7321L13594.5834,-3361.7319L13594.5828,-3361.7317L13594.5808,-3361.7311L13594.5806,-3361.7311Z"/>
<path content="和歌山県,,東牟婁郡,那智勝浦町,,30421" xlink:title="和歌山県" d="M13594.4868,-3361.5995L13594.486,-3361.5995L13594.4847,-3361.5995L13594.4834,-3361.5997L13594.4826,-3361.5999L13594.4824,-3361.5999L13594.4824,-3361.6032L13594.4826,-3361.6033L13594.483,-3361.6034L13594.4833,-3361.6033L13594.4836,-3361.6031L13594.4846,-3361.6022L13594.4851,-3361.6019L13594.4858,-3361.6015L13594.4862,-3361.6013L13594.4866,-3361.6009L13594.487,-3361.6004L13594.4871,-3361.5999L13594.4871,-3361.5997L13594.487,-3361.5996L13594.4868,-3361.5995Z"/>
<path content="和歌山県,,東牟婁郡,那智勝浦町,,30421" xlink:title="和歌山県" d="M13594.5857,-3361.7141L13594.5856,-3361.714L13594.5845,-3361.714L13594.5835,-3361.7141L13594.5831,-3361.7143L13594.5828,-3361.7144L13594.5826,-3361.7146L13594.5825,-3361.7148L13594.5824,-3361.7151L13594.5824,-3361.7154L13594.5825,-3361.7157L13594.5826,-3361.7158L13594.5829,-3361.7162L13594.5831,-3361.7163L13594.5834,-3361.7165L13594.5835,-3361.7165L13594.584,-3361.7166L13594.585,-3361.7165L13594.5867,-3361.7164L13594.5873,-3361.7162L13594.5875,-3361.7161L13594.5876,-3361.716L13594.5877,-3361.7159L13594.5877,-3361.7157L13594.5876,-3361.7154L13594.5873,-3361.715L13594.5871,-3361.7148L13594.5867,-3361.7144L13594.5863,-3361.7142L13594.5857,-3361.7141Z"/>
<path content="和歌山県,,東牟婁郡,那智勝浦町,,30421" xlink:title="和歌山県" d="M13594.6131,-3361.7359L13594.6127,-3361.7359L13594.6123,-3361.736L13594.6121,-3361.7362L13594.6118,-3361.7364L13594.6117,-3361.7366L13594.6116,-3361.7369L13594.6115,-3361.7372L13594.6116,-3361.7375L13594.6116,-3361.7376L13594.6117,-3361.7379L13594.612,-3361.7381L13594.6124,-3361.7383L13594.6129,-3361.7384L13594.6136,-3361.7386L13594.6141,-3361.7385L13594.6144,-3361.7385L13594.6146,-3361.7384L13594.6147,-3361.7382L13594.6149,-3361.7379L13594.6149,-3361.7377L13594.6149,-3361.7375L13594.6149,-3361.7372L13594.6147,-3361.7369L13594.6144,-3361.7365L13594.6139,-3361.7362L13594.6134,-3361.736L13594.6131,-3361.7359Z"/>
<path content="和歌山県,,東牟婁郡,那智勝浦町,,30421" xlink:title="和歌山県" d="M13594.5551,-3361.8152L13594.5547,-3361.8152L13594.5544,-3361.8152L13594.5541,-3361.8154L13594.5538,-3361.8155L13594.5535,-3361.8158L13594.5534,-3361.816L13594.5534,-3361.8162L13594.5534,-3361.8164L13594.5562,-3361.8164L13594.5561,-3361.8163L13594.5559,-3361.8158L13594.5556,-3361.8156L13594.5554,-3361.8154L13594.5551,-3361.8152Z"/>
<path content="和歌山県,,東牟婁郡,那智勝浦町,,30421" xlink:title="和歌山県" d="M13595.1457,-3361.7232L13595.1454,-3361.7231L13595.1451,-3361.7231L13595.145,-3361.7232L13595.1448,-3361.7233L13595.1446,-3361.7235L13595.1445,-3361.7237L13595.1444,-3361.7242L13595.1444,-3361.7247L13595.1446,-3361.7252L13595.1447,-3361.7253L13595.1449,-3361.7255L13595.1451,-3361.7257L13595.1454,-3361.7259L13595.1457,-3361.726L13595.1459,-3361.726L13595.1462,-3361.7259L13595.1465,-3361.7258L13595.1468,-3361.7257L13595.147,-3361.7255L13595.1472,-3361.7252L13595.1473,-3361.7251L13595.1473,-3361.7248L13595.1473,-3361.7245L13595.1473,-3361.7244L13595.147,-3361.724L13595.1467,-3361.7236L13595.1462,-3361.7233L13595.1457,-3361.7232Z"/>
<path content="和歌山県,,東牟婁郡,那智勝浦町,,30421" xlink:title="和歌山県" d="M13595.1428,-3361.5961L13595.1427,-3361.5961L13595.1425,-3361.5961L13595.1423,-3361.5963L13595.142,-3361.5965L13595.1419,-3361.5966L13595.1418,-3361.5969L13595.1417,-3361.5971L13595.1417,-3361.5973L13595.1419,-3361.5978L13595.1421,-3361.5982L13595.1423,-3361.5984L13595.1424,-3361.5985L13595.1425,-3361.5985L13595.1426,-3361.5984L13595.143,-3361.598L13595.1432,-3361.5976L13595.1435,-3361.5972L13595.1436,-3361.5969L13595.1435,-3361.5966L13595.1433,-3361.5964L13595.1431,-3361.5962L13595.1428,-3361.5961Z"/>
</g>
</svg>
