<?xml version="1.0" encoding="UTF-8"?>
<svg  xmlns="http://www.w3.org/2000/svg" xmlns:xlink="http://www.w3.org/1999/xlink" xmlns:go="http://purl.org/svgmap/profile" property="geometry,N03_001,N03_002,N03_003,N03_004,N03_005,N03_007" viewBox="13462.646484375 -3568.359375 2.197265625 2.197265625" go:dataArea="13462.646484375 -3568.359375 2.197265625 2.197265625" >
<metadata>
 <rdf:RDF xmlns:rdf="http://www.w3.org/1999/02/22-rdf-syntax-ns#" xmlns:crs="http://opengis.org/xmldtds/transformations.dtd" xmlns:svg="http://www.w3.org/svg" >
  <rdf:Description>
   <crs:CoordinateReferenceSystem rdf:resource="http://purl.org/crs/84" svg:transform="matrix(100.0,0.0,0.0,-100.0,0.0,0.0)" />
  </rdf:Description>
 </rdf:RDF>
</metadata>
<globalCoordinateSystem srsName="http://purl.org/crs/84" transform="matrix(100.0,0.0,0.0,-100.0,0.0,0.0)" />
<defs>
 <g id="p0" >
  <circle cx="0.0" cy="0.0" r="3" stroke="green" stroke-width="2.0" vector-effect="non-scaling-stroke" />
 </g>
</defs>
<g fill="#0000ff" fill-rule="evenodd" opacity="0.5" >
<path content="兵庫県,,美方郡,香美町,,28585" xlink:title="兵庫県" d="M13463.7559,-3566.2274L13463.7663,-3566.2206L13463.7801,-3566.2206L13463.7828,-3566.2172L13463.7807,-3566.2093L13463.7745,-3566.2054L13463.7663,-3566.2043L13463.7627,-3566.1991L13463.7525,-3566.1964L13463.7476,-3566.1969L13463.7428,-3566.202L13463.7428,-3566.2099L13463.7394,-3566.2155L13463.7394,-3566.2178L13463.7414,-3566.2218L13463.7463,-3566.2257L13463.7518,-3566.2274L13463.7559,-3566.2274Z"/>
<path content="兵庫県,,美方郡,香美町,,28585" xlink:title="兵庫県" d="M13463.7208,-3566.2042L13463.7196,-3566.2036L13463.7171,-3566.204L13463.7152,-3566.204L13463.7134,-3566.205L13463.7112,-3566.2059L13463.7115,-3566.2073L13463.7089,-3566.2077L13463.7067,-3566.2092L13463.7054,-3566.2098L13463.7043,-3566.2107L13463.7033,-3566.2127L13463.7037,-3566.2138L13463.7037,-3566.2148L13463.7028,-3566.2158L13463.7023,-3566.2168L13463.7025,-3566.2178L13463.7034,-3566.2181L13463.7027,-3566.219L13463.7018,-3566.2214L13463.7018,-3566.2236L13463.702,-3566.2248L13463.7025,-3566.226L13463.7053,-3566.2273L13463.7055,-3566.2276L13463.7064,-3566.2278L13463.7059,-3566.2288L13463.7062,-3566.23L13463.7085,-3566.232L13463.7113,-3566.233L13463.7127,-3566.2343L13463.7141,-3566.235L13463.7169,-3566.2341L13463.7197,-3566.2328L13463.722,-3566.2312L13463.724,-3566.231L13463.727,-3566.229L13463.7278,-3566.2281L13463.7283,-3566.2269L13463.7305,-3566.2253L13463.7316,-3566.2246L13463.7321,-3566.2235L13463.734,-3566.2212L13463.7342,-3566.22L13463.734,-3566.2189L13463.7341,-3566.218L13463.7332,-3566.2163L13463.7319,-3566.215L13463.7321,-3566.214L13463.7326,-3566.2135L13463.7317,-3566.2122L13463.7288,-3566.2097L13463.7277,-3566.2088L13463.7274,-3566.2076L13463.7265,-3566.2065L13463.7252,-3566.2057L13463.7235,-3566.2049L13463.7208,-3566.2042Z"/>
</g>
</svg>
