<?xml version="1.0" encoding="UTF-8"?>
<svg  xmlns="http://www.w3.org/2000/svg" xmlns:xlink="http://www.w3.org/1999/xlink" xmlns:go="http://purl.org/svgmap/profile" property="geometry,N03_001,N03_002,N03_003,N03_004,N03_005,N03_007" viewBox="13500.0 -3550.78125 8.7890625 8.7890625" go:dataArea="13500.0 -3550.78125 8.7890625 8.7890625" >
<metadata>
 <rdf:RDF xmlns:rdf="http://www.w3.org/1999/02/22-rdf-syntax-ns#" xmlns:crs="http://opengis.org/xmldtds/transformations.dtd" xmlns:svg="http://www.w3.org/svg" >
  <rdf:Description>
   <crs:CoordinateReferenceSystem rdf:resource="http://purl.org/crs/84" svg:transform="matrix(100.0,0.0,0.0,-100.0,0.0,0.0)" />
  </rdf:Description>
 </rdf:RDF>
</metadata>
<globalCoordinateSystem srsName="http://purl.org/crs/84" transform="matrix(100.0,0.0,0.0,-100.0,0.0,0.0)" />
<defs>
 <g id="p0" >
  <circle cx="0.0" cy="0.0" r="3" stroke="green" stroke-width="2.0" vector-effect="non-scaling-stroke" />
 </g>
</defs>
<g fill="#0000ff" fill-rule="evenodd" opacity="0.5" >
<path content="京都府,,,福知山市,,26201" xlink:title="京都府" d="M13508.7891,-3541.9922L13505,-3541.9922L13505,-3541.9922L13504.9796,-3541.9963L13504.9635,-3542.0103L13504.9441,-3542.0316L13504.9133,-3542.0788L13504.901,-3542.0998L13504.8875,-3542.1199L13504.8584,-3542.1731L13504.8461,-3542.194L13504.8343,-3542.2155L13504.7849,-3542.2591L13504.7684,-3542.2762L13504.7444,-3542.2995L13504.7203,-3542.3348L13504.7131,-3542.3447L13504.7051,-3542.3649L13504.703,-3542.3899L13504.7051,-3542.3954L13504.7237,-3542.4191L13504.7384,-3542.4427L13504.7456,-3542.4612L13504.7524,-3542.4804L13504.7583,-3542.4958L13504.7588,-3542.5L13504.7613,-3542.5181L13504.7633,-3542.5373L13504.757,-3542.5571L13504.7557,-3542.5801L13504.7629,-3542.5887L13504.8187,-3542.6144L13504.8327,-3542.6219L13504.8385,-3542.6319L13504.8325,-3542.6446L13504.8233,-3542.6521L13504.8099,-3542.665L13504.7798,-3542.6939L13504.7566,-3542.7089L13504.7308,-3542.7151L13504.7072,-3542.7284L13504.6949,-3542.7404L13504.6911,-3542.7487L13504.6924,-3542.7593L13504.7063,-3542.7778L13504.7241,-3542.796L13504.7684,-3542.8378L13504.7726,-3542.8642L13504.7595,-3542.8868L13504.727,-3542.9378L13504.716,-3542.9584L13504.7124,-3542.9776L13504.7097,-3542.9923L13504.7186,-3543.0108L13504.7367,-3543.0293L13504.7528,-3543.0481L13504.776,-3543.0828L13504.7773,-3543.1102L13504.7815,-3543.1204L13504.7929,-3543.1393L13504.8127,-3543.1578L13504.8389,-3543.1766L13504.8524,-3543.1886L13504.8596,-3543.1982L13504.8579,-3543.2209L13504.8626,-3543.2445L13504.8546,-3543.301L13504.8465,-3543.3199L13504.8426,-3543.3333L13504.8406,-3543.3404L13504.8301,-3543.3966L13504.8195,-3543.4196L13504.8132,-3543.4394L13504.8129,-3543.4406L13504.8026,-3543.4946L13504.7958,-3543.5148L13504.7984,-3543.5347L13504.8017,-3543.5419L13504.8132,-3543.5525L13504.8267,-3543.5635L13504.8448,-3543.5748L13504.8643,-3543.5868L13504.8664,-3543.619L13504.8651,-3543.6416L13504.8681,-3543.6604L13504.8723,-3543.6721L13504.8904,-3543.693L13504.9111,-3543.7088L13504.9225,-3543.7365L13504.9318,-3543.7612L13504.9369,-3543.7859L13504.9386,-3543.8078L13504.9525,-3543.8616L13504.958,-3543.8849L13504.9605,-3543.9089L13504.9576,-3543.926L13504.9428,-3543.9592L13504.9348,-3543.9836L13504.9381,-3544.0137L13504.9496,-3544.0278L13504.9664,-3544.0524L13504.9774,-3544.0747L13504.9901,-3544.0963L13505,-3544.1078L13505.0289,-3544.1415L13505.0488,-3544.1614L13505.0534,-3544.1667L13505.0631,-3544.1778L13505.0893,-3544.1956L13505.1181,-3544.2118L13505.1409,-3544.2238L13505.1512,-3544.23L13505.1611,-3544.2361L13505.1818,-3544.2491L13505.1835,-3544.2539L13505.1818,-3544.2608L13505.1746,-3544.2721L13505.1641,-3544.2847L13505.1472,-3544.3077L13505.1307,-3544.3276L13505.124,-3544.3396L13505.1193,-3544.3533L13505.1117,-3544.3776L13505.1045,-3544.4026L13505.1016,-3544.4242L13505.1024,-3544.479L13505.0986,-3544.5003L13505.0889,-3544.5239L13505.0889,-3544.5311L13505.0779,-3544.5575L13505.0669,-3544.5746L13505.0534,-3544.5931L13505.0336,-3544.6209L13505.0306,-3544.6336L13505.0289,-3544.6479L13505.0281,-3544.6623L13505.0285,-3544.688L13505.0319,-3544.7082L13505.0382,-3544.725L13505.0551,-3544.76L13505.0606,-3544.7829L13505.0699,-3544.8031L13505.0627,-3544.8319L13505.0484,-3544.8532L13505.0357,-3544.8758L13505.0315,-3544.8994L13505.0336,-3544.9453L13505.0306,-3544.9525L13505.0213,-3544.9782L13505.0112,-3545L13505.0104,-3545.0019L13505.0095,-3545.0073L13505,-3545.0219L13504.9947,-3545.03L13504.988,-3545.0416L13504.9854,-3545.0509L13504.9846,-3545.0718L13505,-3545.0982L13505.0116,-3545.1181L13505.0271,-3545.1269L13505.0398,-3545.1325L13505.0554,-3545.1369L13505.0643,-3545.1389L13505.0803,-3545.1396L13505.1014,-3545.1391L13505.1162,-3545.1329L13505.1349,-3545.1299L13505.1607,-3545.1274L13505.1748,-3545.1274L13505.1865,-3545.1284L13505.1936,-3545.1298L13505.2011,-3545.1322L13505.2234,-3545.1435L13505.2396,-3545.1458L13505.2586,-3545.145L13505.2817,-3545.1415L13505.3031,-3545.1407L13505.3451,-3545.1371L13505.3501,-3545.1353L13505.3637,-3545.1304L13505.3826,-3545.1289L13505.4022,-3545.127L13505.4149,-3545.1274L13505.4284,-3545.1299L13505.4447,-3545.1345L13505.4633,-3545.1415L13505.4831,-3545.1451L13505.5002,-3545.1483L13505.5256,-3545.1496L13505.5637,-3545.1586L13505.5859,-3545.1623L13505.6017,-3545.1633L13505.6192,-3545.1644L13505.6444,-3545.1694L13505.6535,-3545.1702L13505.6684,-3545.1744L13505.6777,-3545.1774L13505.687,-3545.1813L13505.7025,-3545.19L13505.7243,-3545.1918L13505.7426,-3545.1921L13505.7494,-3545.1914L13505.7636,-3545.19L13505.7709,-3545.1885L13505.7848,-3545.187L13505.7967,-3545.1862L13505.8052,-3545.1859L13505.8171,-3545.187L13505.8276,-3545.1885L13505.8333,-3545.1893L13505.8481,-3545.1915L13505.8655,-3545.1939L13505.8943,-3545.2037L13505.9048,-3545.2108L13505.9171,-3545.2163L13505.9215,-3545.2078L13505.9242,-3545.1767L13505.9246,-3545.1631L13505.925,-3545.1481L13505.9305,-3545.1355L13505.9341,-3545.1275L13505.9351,-3545.1041L13505.9393,-3545.0738L13505.9411,-3545.0597L13505.9445,-3545.0455L13505.953,-3545.0298L13505.9576,-3545.0123L13505.9595,-3545L13505.9597,-3544.999L13505.9639,-3544.9769L13505.9605,-3544.9641L13505.9603,-3544.9486L13505.9637,-3544.9358L13505.9673,-3544.9268L13505.9756,-3544.9167L13505.9921,-3544.9029L13506.0107,-3544.8941L13506.0286,-3544.8877L13506.0452,-3544.8815L13506.0666,-3544.8772L13506.0825,-3544.8718L13506.0964,-3544.8691L13506.1049,-3544.8683L13506.115,-3544.8689L13506.1303,-3544.8751L13506.1426,-3544.8858L13506.1576,-3544.8941L13506.1737,-3544.9001L13506.1811,-3544.9029L13506.1928,-3544.9056L13506.2112,-3544.9082L13506.2376,-3544.9087L13506.256,-3544.9029L13506.2747,-3544.9005L13506.2931,-3544.9013L13506.3131,-3544.9021L13506.3296,-3544.9036L13506.3572,-3544.9092L13506.3758,-3544.9116L13506.3936,-3544.9154L13506.4097,-3544.9201L13506.4357,-3544.928L13506.47,-3544.9383L13506.4869,-3544.9421L13506.5033,-3544.9473L13506.5244,-3544.9558L13506.5428,-3544.9655L13506.5547,-3544.9733L13506.5545,-3544.9624L13506.5529,-3544.9509L13506.5501,-3544.9367L13506.5476,-3544.9223L13506.5424,-3544.9079L13506.54,-3544.8933L13506.5387,-3544.8683L13506.539,-3544.8561L13506.5398,-3544.8388L13506.5392,-3544.8216L13506.5414,-3544.8093L13506.5418,-3544.8074L13506.5466,-3544.7938L13506.5472,-3544.7863L13506.5489,-3544.7787L13506.5616,-3544.7414L13506.567,-3544.7283L13506.5694,-3544.7133L13506.5692,-3544.7039L13506.5676,-3544.6841L13506.5678,-3544.6581L13506.5682,-3544.6519L13506.5704,-3544.6437L13506.5821,-3544.6306L13506.5985,-3544.6236L13506.6203,-3544.6185L13506.6473,-3544.6146L13506.6667,-3544.6135L13506.6731,-3544.6131L13506.6854,-3544.6118L13506.6975,-3544.6023L13506.7126,-3544.593L13506.7292,-3544.5851L13506.7673,-3544.5742L13506.7909,-3544.5701L13506.8058,-3544.5655L13506.8224,-3544.5584L13506.8421,-3544.5493L13506.8968,-3544.5238L13506.9129,-3544.5131L13506.9281,-3544.5053L13506.9462,-3544.4966L13506.9563,-3544.4938L13506.9668,-3544.4919L13506.9771,-3544.4899L13506.9864,-3544.4888L13506.9958,-3544.4871L13507.0104,-3544.486L13507.0322,-3544.4824L13507.0495,-3544.4776L13507.0707,-3544.4766L13507.0878,-3544.4773L13507.1007,-3544.4793L13507.1116,-3544.4817L13507.1314,-3544.4873L13507.1453,-3544.4884L13507.1618,-3544.4937L13507.1759,-3544.5014L13507.2042,-3544.5146L13507.2189,-3544.52L13507.2237,-3544.5218L13507.2351,-3544.5261L13507.251,-3544.5276L13507.2675,-3544.5315L13507.2887,-3544.5332L13507.4027,-3544.5426L13507.4212,-3544.5441L13507.436,-3544.5502L13507.4501,-3544.5546L13507.4601,-3544.5567L13507.4727,-3544.5567L13507.4933,-3544.5491L13507.5,-3544.5462L13507.5093,-3544.5422L13507.5227,-3544.5321L13507.5449,-3544.5202L13507.5518,-3544.5181L13507.5693,-3544.5151L13507.5795,-3544.5143L13507.5953,-3544.514L13507.6123,-3544.5153L13507.6301,-3544.523L13507.6481,-3544.5242L13507.6728,-3544.5219L13507.6867,-3544.5075L13507.6922,-3544.499L13507.6969,-3544.4898L13507.6987,-3544.4797L13507.6991,-3544.4745L13507.7018,-3544.4554L13507.7046,-3544.4411L13507.7144,-3544.4256L13507.7224,-3544.4159L13507.7281,-3544.4091L13507.7324,-3544.4064L13507.7414,-3544.4021L13507.7627,-3544.3938L13507.7774,-3544.3869L13507.7944,-3544.382L13507.8163,-3544.3815L13507.8441,-3544.3821L13507.8598,-3544.3808L13507.87,-3544.3776L13507.8821,-3544.3766L13507.896,-3544.3672L13507.9135,-3544.3612L13507.9386,-3544.3604L13507.959,-3544.3592L13507.9904,-3544.3568L13508.0034,-3544.3565L13508.0216,-3544.3519L13508.0385,-3544.3503L13508.0403,-3544.3502L13508.0593,-3544.3503L13508.083,-3544.3496L13508.0991,-3544.3494L13508.1247,-3544.3513L13508.1421,-3544.3519L13508.1599,-3544.3518L13508.185,-3544.3588L13508.1949,-3544.3655L13508.213,-3544.3755L13508.2244,-3544.3814L13508.2414,-3544.3877L13508.2575,-3544.3876L13508.2756,-3544.3901L13508.2924,-3544.394L13508.3251,-3544.4006L13508.3333,-3544.4017L13508.356,-3544.4048L13508.363,-3544.4049L13508.3705,-3544.4051L13508.3894,-3544.4066L13508.4128,-3544.4126L13508.4254,-3544.4147L13508.4411,-3544.4184L13508.4607,-3544.4226L13508.4764,-3544.4272L13508.4981,-3544.4291L13508.5162,-3544.4313L13508.5708,-3544.4198L13508.6048,-3544.4048L13508.6202,-3544.396L13508.6356,-3544.3877L13508.6523,-3544.3797L13508.6742,-3544.3707L13508.6916,-3544.3643L13508.7111,-3544.3579L13508.7309,-3544.3494L13508.7466,-3544.3429L13508.7661,-3544.3388L13508.7861,-3544.3334L13508.7891,-3544.333Z"/>
<path content="京都府,,与謝郡,与謝野町,,26465" xlink:title="京都府" d="M13508.7891,-3550.7812L13508.7891,-3544.333L13508.7861,-3544.3334L13508.7661,-3544.3388L13508.7466,-3544.3429L13508.7309,-3544.3494L13508.7111,-3544.3579L13508.6916,-3544.3643L13508.6742,-3544.3707L13508.6523,-3544.3797L13508.6356,-3544.3877L13508.6202,-3544.396L13508.6048,-3544.4048L13508.5708,-3544.4198L13508.5162,-3544.4313L13508.4981,-3544.4291L13508.4764,-3544.4272L13508.4607,-3544.4226L13508.4411,-3544.4184L13508.4254,-3544.4147L13508.4128,-3544.4126L13508.3894,-3544.4066L13508.3705,-3544.4051L13508.363,-3544.4049L13508.356,-3544.4048L13508.3333,-3544.4017L13508.3251,-3544.4006L13508.2924,-3544.394L13508.2756,-3544.3901L13508.2575,-3544.3876L13508.2414,-3544.3877L13508.2244,-3544.3814L13508.213,-3544.3755L13508.1949,-3544.3655L13508.185,-3544.3588L13508.1599,-3544.3518L13508.1421,-3544.3519L13508.1247,-3544.3513L13508.0991,-3544.3494L13508.083,-3544.3496L13508.0593,-3544.3503L13508.0403,-3544.3502L13508.0385,-3544.3503L13508.0216,-3544.3519L13508.0034,-3544.3565L13507.9904,-3544.3568L13507.959,-3544.3592L13507.9386,-3544.3604L13507.9135,-3544.3612L13507.896,-3544.3672L13507.8821,-3544.3766L13507.87,-3544.3776L13507.8598,-3544.3808L13507.8441,-3544.3821L13507.8163,-3544.3815L13507.7944,-3544.382L13507.7774,-3544.3869L13507.7627,-3544.3938L13507.7414,-3544.4021L13507.7324,-3544.4064L13507.7281,-3544.4091L13507.7224,-3544.4159L13507.7144,-3544.4256L13507.7046,-3544.4411L13507.7018,-3544.4554L13507.6991,-3544.4745L13507.6987,-3544.4797L13507.6969,-3544.4898L13507.6922,-3544.499L13507.6867,-3544.5075L13507.6728,-3544.5219L13507.6481,-3544.5242L13507.6301,-3544.523L13507.6123,-3544.5153L13507.5953,-3544.514L13507.5795,-3544.5143L13507.5693,-3544.5151L13507.5518,-3544.5181L13507.5449,-3544.5202L13507.5227,-3544.5321L13507.5093,-3544.5422L13507.5,-3544.5462L13507.4933,-3544.5491L13507.4727,-3544.5567L13507.4601,-3544.5567L13507.4501,-3544.5546L13507.436,-3544.5502L13507.4212,-3544.5441L13507.4027,-3544.5426L13507.2887,-3544.5332L13507.2675,-3544.5315L13507.251,-3544.5276L13507.2351,-3544.5261L13507.2237,-3544.5218L13507.2189,-3544.52L13507.2042,-3544.5146L13507.1759,-3544.5014L13507.1618,-3544.4937L13507.1453,-3544.4884L13507.1314,-3544.4873L13507.1116,-3544.4817L13507.1007,-3544.4793L13507.0878,-3544.4773L13507.0707,-3544.4766L13507.0495,-3544.4776L13507.0322,-3544.4824L13507.0104,-3544.486L13506.9958,-3544.4871L13506.9864,-3544.4888L13506.9771,-3544.4899L13506.9668,-3544.4919L13506.9563,-3544.4938L13506.9462,-3544.4966L13506.9281,-3544.5053L13506.9129,-3544.5131L13506.8968,-3544.5238L13506.8421,-3544.5493L13506.8224,-3544.5584L13506.8058,-3544.5655L13506.7909,-3544.5701L13506.7673,-3544.5742L13506.7292,-3544.5851L13506.7126,-3544.593L13506.6975,-3544.6023L13506.6854,-3544.6118L13506.6731,-3544.6131L13506.6667,-3544.6135L13506.6473,-3544.6146L13506.6203,-3544.6185L13506.5985,-3544.6236L13506.5821,-3544.6306L13506.5704,-3544.6437L13506.5682,-3544.6519L13506.5678,-3544.6581L13506.5676,-3544.6841L13506.5692,-3544.7039L13506.5694,-3544.7133L13506.567,-3544.7283L13506.5616,-3544.7414L13506.5489,-3544.7787L13506.5472,-3544.7863L13506.5466,-3544.7938L13506.5418,-3544.8074L13506.5414,-3544.8093L13506.5392,-3544.8216L13506.5398,-3544.8388L13506.539,-3544.8561L13506.5387,-3544.8683L13506.54,-3544.8933L13506.5424,-3544.9079L13506.5476,-3544.9223L13506.5501,-3544.9367L13506.5529,-3544.9509L13506.5545,-3544.9624L13506.5547,-3544.9733L13506.5428,-3544.9655L13506.5244,-3544.9558L13506.5033,-3544.9473L13506.4869,-3544.9421L13506.47,-3544.9383L13506.4357,-3544.928L13506.4097,-3544.9201L13506.3936,-3544.9154L13506.3758,-3544.9116L13506.3572,-3544.9092L13506.3296,-3544.9036L13506.3131,-3544.9021L13506.2931,-3544.9013L13506.2747,-3544.9005L13506.256,-3544.9029L13506.2376,-3544.9087L13506.2112,-3544.9082L13506.1928,-3544.9056L13506.1811,-3544.9029L13506.1737,-3544.9001L13506.1576,-3544.8941L13506.1426,-3544.8858L13506.1303,-3544.8751L13506.115,-3544.8689L13506.1049,-3544.8683L13506.0964,-3544.8691L13506.0825,-3544.8718L13506.0666,-3544.8772L13506.0452,-3544.8815L13506.0286,-3544.8877L13506.0107,-3544.8941L13505.9921,-3544.9029L13505.9756,-3544.9167L13505.9673,-3544.9268L13505.9637,-3544.9358L13505.9603,-3544.9486L13505.9605,-3544.9641L13505.9639,-3544.9769L13505.9597,-3544.999L13505.9595,-3545L13505.9576,-3545.0123L13505.953,-3545.0298L13505.9445,-3545.0455L13505.9411,-3545.0597L13505.9393,-3545.0738L13505.9351,-3545.1041L13505.9341,-3545.1275L13505.9305,-3545.1355L13505.925,-3545.1481L13505.9246,-3545.1631L13505.9242,-3545.1767L13505.9215,-3545.2078L13505.9171,-3545.2163L13505.9048,-3545.2108L13505.8943,-3545.2037L13505.8655,-3545.1939L13505.8481,-3545.1915L13505.8333,-3545.1893L13505.8276,-3545.1885L13505.8171,-3545.187L13505.8052,-3545.1859L13505.7967,-3545.1862L13505.7848,-3545.187L13505.7709,-3545.1885L13505.7636,-3545.19L13505.7494,-3545.1914L13505.7426,-3545.1921L13505.7243,-3545.1918L13505.7025,-3545.19L13505.687,-3545.1813L13505.6777,-3545.1774L13505.6684,-3545.1744L13505.6535,-3545.1702L13505.6444,-3545.1694L13505.6192,-3545.1644L13505.6017,-3545.1633L13505.5859,-3545.1623L13505.5637,-3545.1586L13505.5256,-3545.1496L13505.5002,-3545.1483L13505.4831,-3545.1451L13505.4633,-3545.1415L13505.4447,-3545.1345L13505.4284,-3545.1299L13505.4149,-3545.1274L13505.4022,-3545.127L13505.3826,-3545.1289L13505.3637,-3545.1304L13505.3501,-3545.1353L13505.3451,-3545.1371L13505.3031,-3545.1407L13505.2817,-3545.1415L13505.2586,-3545.145L13505.2396,-3545.1458L13505.2234,-3545.1435L13505.2011,-3545.1322L13505.1936,-3545.1298L13505.1865,-3545.1284L13505.1748,-3545.1274L13505.1607,-3545.1274L13505.1349,-3545.1299L13505.1162,-3545.1329L13505.1014,-3545.1391L13505.0803,-3545.1396L13505.0643,-3545.1389L13505.0554,-3545.1369L13505.0398,-3545.1325L13505.0271,-3545.1269L13505.0116,-3545.1181L13505,-3545.0982L13504.9846,-3545.0718L13504.9846,-3545.0724L13504.9799,-3545.1071L13504.9681,-3545.1143L13504.928,-3545.1321L13504.8791,-3545.1574L13504.8569,-3545.1689L13504.8233,-3545.1862L13504.8022,-3545.2009L13504.7781,-3545.2181L13504.7591,-3545.2393L13504.7426,-3545.2629L13504.7342,-3545.2859L13504.73,-3545.3085L13504.7308,-3545.3298L13504.7283,-3545.3424L13504.7279,-3545.3534L13504.7224,-3545.3613L13504.7059,-3545.3747L13504.6839,-3545.3883L13504.6582,-3545.3966L13504.6219,-3545.413L13504.6037,-3545.4254L13504.5872,-3545.4414L13504.5695,-3545.4606L13504.5593,-3545.4737L13504.558,-3545.4755L13504.5475,-3545.4898L13504.5365,-3545.5073L13504.5277,-3545.5309L13504.5256,-3545.5621L13504.5264,-3545.5775L13504.5294,-3545.5868L13504.533,-3545.6069L13504.5374,-3545.6309L13504.5416,-3545.6453L13504.5424,-3545.6539L13504.5403,-3545.6621L13504.5294,-3545.682L13504.5184,-3545.7046L13504.5099,-3545.7276L13504.5104,-3545.7409L13504.5146,-3545.7618L13504.5175,-3545.7824L13504.5104,-3545.8026L13504.507,-3545.8245L13504.5063,-3545.8333L13504.5032,-3545.877L13504.5002,-3545.8968L13504.4956,-3545.9201L13504.4915,-3545.9484L13504.4914,-3545.9493L13504.4876,-3545.9657L13504.4833,-3545.9725L13504.4698,-3545.9941L13504.4542,-3546.013L13504.4322,-3546.0257L13504.4048,-3546.0404L13504.3879,-3546.0609L13504.3756,-3546.0805L13504.3621,-3546.1154L13504.3592,-3546.1274L13504.3592,-3546.1363L13504.3554,-3546.1548L13504.3528,-3546.174L13504.341,-3546.2042L13504.3414,-3546.2165L13504.3473,-3546.2258L13504.3697,-3546.2408L13504.3908,-3546.2559L13504.4318,-3546.283L13504.444,-3546.2926L13504.455,-3546.3142L13504.4596,-3546.3351L13504.463,-3546.3508L13504.4622,-3546.3642L13504.4584,-3546.3786L13504.4525,-3546.3902L13504.4377,-3546.4094L13504.4271,-3546.4269L13504.3891,-3546.4656L13504.3849,-3546.4755L13504.3781,-3546.4978L13504.3752,-3546.5208L13504.3803,-3546.543L13504.3828,-3546.5609L13504.3824,-3546.5759L13504.3747,-3546.5982L13504.3596,-3546.6201L13504.3355,-3546.64L13504.3186,-3546.6633L13504.3166,-3546.6667L13504.3076,-3546.6825L13504.2894,-3546.7023L13504.2675,-3546.7109L13504.2601,-3546.7131L13504.2434,-3546.7181L13504.2223,-3546.7222L13504.1983,-3546.7294L13504.1767,-3546.7414L13504.1667,-3546.7547L13504.1666,-3546.7548L13504.1493,-3546.7856L13504.1476,-3546.7949L13504.1429,-3546.8141L13504.1459,-3546.8343L13504.1535,-3546.8651L13504.1577,-3546.8874L13504.1552,-3546.9124L13504.1505,-3546.9329L13504.1437,-3546.9388L13504.1151,-3546.9621L13504.1037,-3546.9748L13504.1016,-3546.9984L13504.1019,-3547.0238L13504.1036,-3547.0392L13504.1032,-3547.0501L13504.1028,-3547.059L13504.099,-3547.0776L13504.0931,-3547.0998L13504.0897,-3547.1251L13504.0829,-3547.1793L13504.0834,-3547.2036L13504.0791,-3547.2242L13504.0791,-3547.2258L13504.0783,-3547.2478L13504.0804,-3547.2694L13504.0842,-3547.2811L13504.0943,-3547.3044L13504.1007,-3547.327L13504.1036,-3547.3304L13504.0956,-3547.3468L13504.0872,-3547.3623L13504.0728,-3547.377L13504.0508,-3547.3914L13504.0301,-3547.403L13504.0133,-3547.4164L13504.0052,-3547.4253L13503.9993,-3547.4346L13503.9887,-3547.4496L13503.9693,-3547.4626L13503.9507,-3547.4764L13503.933,-3547.4824L13503.9276,-3547.4843L13503.9039,-3547.4928L13503.8942,-3547.4949L13503.8895,-3547.4959L13503.8634,-3547.5L13503.8613,-3547.5003L13503.8359,-3547.501L13503.8066,-3547.5L13503.7971,-3547.4997L13503.796,-3547.5L13503.7886,-3547.5024L13503.7683,-3547.5127L13503.7451,-3547.525L13503.7265,-3547.5349L13503.713,-3547.5397L13503.6944,-3547.5442L13503.6767,-3547.5473L13503.6573,-3547.5473L13503.634,-3547.5387L13503.61,-3547.5271L13503.5935,-3547.5189L13503.5783,-3547.511L13503.56,-3547.5L13503.5526,-3547.4956L13503.5344,-3547.4976L13503.5345,-3547.5L13503.5357,-3547.5212L13503.5374,-3547.5483L13503.5348,-3547.5767L13503.5286,-3547.5919L13503.5255,-3547.5994L13503.5204,-3547.624L13503.5124,-3547.648L13503.5099,-3547.6631L13503.5099,-3547.6789L13503.5124,-3547.7028L13503.523,-3547.7234L13503.5365,-3547.7333L13503.5513,-3547.7467L13503.5601,-3547.7576L13503.566,-3547.7672L13503.5576,-3547.7888L13503.5437,-3547.807L13503.5373,-3547.8221L13503.5335,-3547.8327L13503.5335,-3547.8447L13503.5348,-3547.8539L13503.5373,-3547.8628L13503.5399,-3547.8817L13503.5453,-3547.9026L13503.5614,-3547.955L13503.5584,-3547.9797L13503.5614,-3548.0084L13503.5651,-3548.0189L13503.5665,-3548.0228L13503.5779,-3548.0287L13503.6074,-3548.0383L13503.6361,-3548.0441L13503.6653,-3548.0492L13503.6881,-3548.0509L13503.7362,-3548.0492L13503.762,-3548.0468L13503.7869,-3548.0441L13503.8312,-3548.0413L13503.8544,-3548.0427L13503.8735,-3548.0578L13503.8937,-3548.0718L13503.9098,-3548.1023L13503.9195,-3548.1229L13503.9334,-3548.1363L13503.9499,-3548.1483L13503.9997,-3548.1596L13504.0133,-3548.1661L13504.0213,-3548.1856L13504.0255,-3548.2062L13504.0331,-3548.2432L13504.0369,-3548.2593L13504.0394,-3548.2829L13504.0466,-3548.3038L13504.0567,-3548.3274L13504.0588,-3548.3333L13504.0745,-3548.3788L13504.0854,-3548.4008L13504.0916,-3548.4144L13504.1083,-3548.4508L13504.1143,-3548.4727L13504.1416,-3548.5711L13504.1433,-3548.5916L13504.1502,-3548.62L13504.1543,-3548.6369L13504.1526,-3548.6437L13504.1501,-3548.6667L13504.1484,-3548.6883L13504.1429,-3548.7057L13504.1416,-3548.7139L13504.1458,-3548.7273L13504.1543,-3548.7393L13504.1648,-3548.7582L13504.1667,-3548.7607L13504.1788,-3548.7777L13504.1868,-3548.791L13504.2003,-3548.8291L13504.2049,-3548.8534L13504.2108,-3548.875L13504.2159,-3548.8921L13504.221,-3548.9082L13504.2223,-3548.9236L13504.221,-3548.9315L13504.2151,-3548.9548L13504.2071,-3548.9761L13504.2016,-3548.9915L13504.1923,-3549.0117L13504.188,-3549.0278L13504.183,-3549.0521L13504.1817,-3549.0764L13504.1897,-3549.0949L13504.1973,-3549.1069L13504.2117,-3549.1227L13504.2311,-3549.1433L13504.2442,-3549.1601L13504.2495,-3549.1667L13504.2535,-3549.1717L13504.2598,-3549.1844L13504.2691,-3549.2084L13504.2704,-3549.2269L13504.2484,-3549.2536L13504.2366,-3549.2724L13504.2261,-3549.2899L13504.218,-3549.307L13504.2142,-3549.3283L13504.2117,-3549.3495L13504.2172,-3549.3571L13504.221,-3549.3728L13504.2223,-3549.3838L13504.221,-3549.3934L13504.2163,-3549.4061L13504.1994,-3549.4235L13504.1821,-3549.4379L13504.1667,-3549.4477L13504.1601,-3549.4519L13504.1572,-3549.4537L13504.1416,-3549.4612L13504.1243,-3549.4684L13504.1015,-3549.4746L13504.0711,-3549.4821L13504.0478,-3549.4914L13504.0246,-3549.4993L13504.009,-3549.5023L13503.9824,-3549.5068L13503.9533,-3549.5126L13503.9368,-3549.5133L13503.9051,-3549.5126L13503.8869,-3549.5147L13503.862,-3549.5226L13503.8342,-3549.5308L13503.8152,-3549.5342L13503.7987,-3549.5356L13503.7746,-3549.5345L13503.7687,-3549.5366L13503.7442,-3549.5414L13503.7193,-3549.5489L13503.707,-3549.5548L13503.6707,-3549.5674L13503.6572,-3549.5691L13503.6323,-3549.5702L13503.6057,-3549.5753L13503.5791,-3549.5722L13503.5609,-3549.5746L13503.5403,-3549.5822L13503.5246,-3549.5996L13503.5069,-3549.6147L13503.4959,-3549.636L13503.4887,-3549.6425L13503.4672,-3549.6555L13503.4419,-3549.6648L13503.4157,-3549.6733L13503.4051,-3549.6768L13503.3907,-3549.6911L13503.3785,-3549.7024L13503.365,-3549.7093L13503.3405,-3549.7134L13503.3333,-3549.7153L13503.316,-3549.7199L13503.2472,-3549.7148L13503.2164,-3549.7158L13503.2252,-3549.737L13503.2349,-3549.7511L13503.2417,-3549.759L13503.2453,-3549.7623L13503.2662,-3549.7812L13503.2801,-3549.79L13503.289,-3549.7956L13503.3076,-3549.8111L13503.3333,-3549.8318L13503.3574,-3549.8511L13503.3734,-3549.8676L13503.3907,-3549.8868L13503.4359,-3549.9269L13503.4558,-3549.9423L13503.4769,-3549.9591L13503.4976,-3549.9714L13503.5145,-3549.9789L13503.5356,-3549.9882L13503.5588,-3549.9974L13503.5648,-3550L13503.5812,-3550.007L13503.5989,-3550.0135L13503.6129,-3550.0214L13503.6221,-3550.0273L13503.6361,-3550.0375L13503.6509,-3550.0564L13503.669,-3550.0735L13503.688,-3550.0896L13503.7033,-3550.0996L13503.7201,-3550.1078L13503.7442,-3550.1218L13503.7687,-3550.1402L13503.7775,-3550.1468L13503.783,-3550.1551L13503.7856,-3550.1612L13503.786,-3550.1794L13503.7817,-3550.2017L13503.7771,-3550.2226L13503.7763,-3550.2298L13503.7767,-3550.237L13503.7839,-3550.2445L13503.7919,-3550.2506L13503.8075,-3550.2582L13503.8265,-3550.2633L13503.8574,-3550.2661L13503.8836,-3550.2688L13503.9486,-3550.2784L13504.0115,-3550.3014L13504.0241,-3550.316L13504.0641,-3550.3316L13504.0979,-3550.3468L13504.1161,-3550.3623L13504.1287,-3550.3743L13504.1629,-3550.4297L13504.1667,-3550.4373L13504.1738,-3550.4518L13504.1868,-3550.4738L13504.1937,-3550.4905L13504.2076,-3550.5096L13504.2273,-3550.5334L13504.2411,-3550.5555L13504.2611,-3550.5766L13504.2768,-3550.5893L13504.2962,-3550.6018L13504.3276,-3550.6182L13504.3457,-3550.6288L13504.3681,-3550.6479L13504.382,-3550.6592L13504.3944,-3550.6717L13504.4029,-3550.6925L13504.4074,-3550.707L13504.4246,-3550.7318L13504.4376,-3550.7538L13504.4546,-3550.7812Z"/>
<path content="兵庫県,,,豊岡市,,28209" xlink:title="兵庫県" d="M13500,-3541.9922L13500,-3550.7813L13504.4546,-3550.7812L13504.4376,-3550.7538L13504.4246,-3550.7318L13504.4074,-3550.707L13504.4029,-3550.6925L13504.3944,-3550.6717L13504.382,-3550.6592L13504.3681,-3550.6479L13504.3457,-3550.6288L13504.3276,-3550.6182L13504.2962,-3550.6018L13504.2768,-3550.5893L13504.2611,-3550.5766L13504.2411,-3550.5555L13504.2273,-3550.5334L13504.2076,-3550.5096L13504.1937,-3550.4905L13504.1868,-3550.4738L13504.1738,-3550.4518L13504.1667,-3550.4373L13504.1629,-3550.4297L13504.1287,-3550.3743L13504.1161,-3550.3623L13504.0979,-3550.3468L13504.0641,-3550.3316L13504.0241,-3550.316L13504.0115,-3550.3014L13503.9486,-3550.2784L13503.8836,-3550.2688L13503.8574,-3550.2661L13503.8265,-3550.2633L13503.8075,-3550.2582L13503.7919,-3550.2506L13503.7839,-3550.2445L13503.7767,-3550.237L13503.7763,-3550.2298L13503.7771,-3550.2226L13503.7817,-3550.2017L13503.786,-3550.1794L13503.7856,-3550.1612L13503.783,-3550.1551L13503.7775,-3550.1468L13503.7687,-3550.1402L13503.7442,-3550.1218L13503.7201,-3550.1078L13503.7033,-3550.0996L13503.688,-3550.0896L13503.669,-3550.0735L13503.6509,-3550.0564L13503.6361,-3550.0375L13503.6221,-3550.0273L13503.6129,-3550.0214L13503.5989,-3550.0135L13503.5812,-3550.007L13503.5648,-3550L13503.5588,-3549.9974L13503.5356,-3549.9882L13503.5145,-3549.9789L13503.4976,-3549.9714L13503.4769,-3549.9591L13503.4558,-3549.9423L13503.4359,-3549.9269L13503.3907,-3549.8868L13503.3734,-3549.8676L13503.3574,-3549.8511L13503.3333,-3549.8318L13503.3076,-3549.8111L13503.289,-3549.7956L13503.2801,-3549.79L13503.2662,-3549.7812L13503.2453,-3549.7623L13503.2417,-3549.759L13503.2349,-3549.7511L13503.2252,-3549.737L13503.2164,-3549.7158L13503.2472,-3549.7148L13503.316,-3549.7199L13503.3333,-3549.7153L13503.3405,-3549.7134L13503.365,-3549.7093L13503.3785,-3549.7024L13503.3907,-3549.6911L13503.4051,-3549.6768L13503.4157,-3549.6733L13503.4419,-3549.6648L13503.4672,-3549.6555L13503.4887,-3549.6425L13503.4959,-3549.636L13503.5069,-3549.6147L13503.5246,-3549.5996L13503.5403,-3549.5822L13503.5609,-3549.5746L13503.5791,-3549.5722L13503.6057,-3549.5753L13503.6323,-3549.5702L13503.6572,-3549.5691L13503.6707,-3549.5674L13503.707,-3549.5548L13503.7193,-3549.5489L13503.7442,-3549.5414L13503.7687,-3549.5366L13503.7746,-3549.5345L13503.7987,-3549.5356L13503.8152,-3549.5342L13503.8342,-3549.5308L13503.862,-3549.5226L13503.8869,-3549.5147L13503.9051,-3549.5126L13503.9368,-3549.5133L13503.9533,-3549.5126L13503.9824,-3549.5068L13504.009,-3549.5023L13504.0246,-3549.4993L13504.0478,-3549.4914L13504.0711,-3549.4821L13504.1015,-3549.4746L13504.1243,-3549.4684L13504.1416,-3549.4612L13504.1572,-3549.4537L13504.1601,-3549.4519L13504.1667,-3549.4477L13504.1821,-3549.4379L13504.1994,-3549.4235L13504.2163,-3549.4061L13504.221,-3549.3934L13504.2223,-3549.3838L13504.221,-3549.3728L13504.2172,-3549.3571L13504.2117,-3549.3495L13504.2142,-3549.3283L13504.218,-3549.307L13504.2261,-3549.2899L13504.2366,-3549.2724L13504.2484,-3549.2536L13504.2704,-3549.2269L13504.2691,-3549.2084L13504.2598,-3549.1844L13504.2535,-3549.1717L13504.2495,-3549.1667L13504.2442,-3549.1601L13504.2311,-3549.1433L13504.2117,-3549.1227L13504.1973,-3549.1069L13504.1897,-3549.0949L13504.1817,-3549.0764L13504.183,-3549.0521L13504.188,-3549.0278L13504.1923,-3549.0117L13504.2016,-3548.9915L13504.2071,-3548.9761L13504.2151,-3548.9548L13504.221,-3548.9315L13504.2223,-3548.9236L13504.221,-3548.9082L13504.2159,-3548.8921L13504.2108,-3548.875L13504.2049,-3548.8534L13504.2003,-3548.8291L13504.1868,-3548.791L13504.1788,-3548.7777L13504.1667,-3548.7607L13504.1648,-3548.7582L13504.1543,-3548.7393L13504.1458,-3548.7273L13504.1416,-3548.7139L13504.1429,-3548.7057L13504.1484,-3548.6883L13504.1501,-3548.6667L13504.1526,-3548.6437L13504.1543,-3548.6369L13504.1502,-3548.62L13504.1433,-3548.5916L13504.1416,-3548.5711L13504.1143,-3548.4727L13504.1083,-3548.4508L13504.0916,-3548.4144L13504.0854,-3548.4008L13504.0745,-3548.3788L13504.0588,-3548.3333L13504.0567,-3548.3274L13504.0466,-3548.3038L13504.0394,-3548.2829L13504.0369,-3548.2593L13504.0331,-3548.2432L13504.0255,-3548.2062L13504.0213,-3548.1856L13504.0133,-3548.1661L13503.9997,-3548.1596L13503.9499,-3548.1483L13503.9334,-3548.1363L13503.9195,-3548.1229L13503.9098,-3548.1023L13503.8937,-3548.0718L13503.8735,-3548.0578L13503.8544,-3548.0427L13503.8312,-3548.0413L13503.7869,-3548.0441L13503.762,-3548.0468L13503.7362,-3548.0492L13503.6881,-3548.0509L13503.6653,-3548.0492L13503.6361,-3548.0441L13503.6074,-3548.0383L13503.5779,-3548.0287L13503.5665,-3548.0228L13503.5651,-3548.0189L13503.5614,-3548.0084L13503.5584,-3547.9797L13503.5614,-3547.955L13503.5453,-3547.9026L13503.5399,-3547.8817L13503.5373,-3547.8628L13503.5348,-3547.8539L13503.5335,-3547.8447L13503.5335,-3547.8327L13503.5373,-3547.8221L13503.5437,-3547.807L13503.5576,-3547.7888L13503.566,-3547.7672L13503.5601,-3547.7576L13503.5513,-3547.7467L13503.5365,-3547.7333L13503.523,-3547.7234L13503.5124,-3547.7028L13503.5099,-3547.6789L13503.5099,-3547.6631L13503.5124,-3547.648L13503.5204,-3547.624L13503.5255,-3547.5994L13503.5286,-3547.5919L13503.5348,-3547.5767L13503.5374,-3547.5483L13503.5357,-3547.5212L13503.5345,-3547.5L13503.5344,-3547.4976L13503.5526,-3547.4956L13503.56,-3547.5L13503.5783,-3547.511L13503.5935,-3547.5189L13503.61,-3547.5271L13503.634,-3547.5387L13503.6573,-3547.5473L13503.6767,-3547.5473L13503.6944,-3547.5442L13503.713,-3547.5397L13503.7265,-3547.5349L13503.7451,-3547.525L13503.7683,-3547.5127L13503.7886,-3547.5024L13503.796,-3547.5L13503.7971,-3547.4997L13503.8066,-3547.5L13503.8359,-3547.501L13503.8613,-3547.5003L13503.8634,-3547.5L13503.8895,-3547.4959L13503.8942,-3547.4949L13503.9039,-3547.4928L13503.9276,-3547.4843L13503.933,-3547.4824L13503.9507,-3547.4764L13503.9693,-3547.4626L13503.9887,-3547.4496L13503.9993,-3547.4346L13504.0052,-3547.4253L13504.0133,-3547.4164L13504.0301,-3547.403L13504.0508,-3547.3914L13504.0728,-3547.377L13504.0872,-3547.3623L13504.0956,-3547.3468L13504.1036,-3547.3304L13504.1007,-3547.327L13504.0943,-3547.3044L13504.0842,-3547.2811L13504.0804,-3547.2694L13504.0783,-3547.2478L13504.0791,-3547.2258L13504.0791,-3547.2242L13504.0834,-3547.2036L13504.0829,-3547.1793L13504.0897,-3547.1251L13504.0931,-3547.0998L13504.099,-3547.0776L13504.1028,-3547.059L13504.1032,-3547.0501L13504.1036,-3547.0392L13504.1019,-3547.0238L13504.1016,-3546.9984L13504.1037,-3546.9748L13504.1151,-3546.9621L13504.1437,-3546.9388L13504.1505,-3546.9329L13504.1552,-3546.9124L13504.1577,-3546.8874L13504.1535,-3546.8651L13504.1459,-3546.8343L13504.1429,-3546.8141L13504.1476,-3546.7949L13504.1493,-3546.7856L13504.1666,-3546.7548L13504.1667,-3546.7547L13504.1767,-3546.7414L13504.1983,-3546.7294L13504.2223,-3546.7222L13504.2434,-3546.7181L13504.2601,-3546.7131L13504.2675,-3546.7109L13504.2894,-3546.7023L13504.3076,-3546.6825L13504.3166,-3546.6667L13504.3186,-3546.6633L13504.3355,-3546.64L13504.3596,-3546.6201L13504.3747,-3546.5982L13504.3824,-3546.5759L13504.3828,-3546.5609L13504.3803,-3546.543L13504.3752,-3546.5208L13504.3781,-3546.4978L13504.3849,-3546.4755L13504.3891,-3546.4656L13504.4271,-3546.4269L13504.4377,-3546.4094L13504.4525,-3546.3902L13504.4584,-3546.3786L13504.4622,-3546.3642L13504.463,-3546.3508L13504.4596,-3546.3351L13504.455,-3546.3142L13504.444,-3546.2926L13504.4318,-3546.283L13504.3908,-3546.2559L13504.3697,-3546.2408L13504.3473,-3546.2258L13504.3414,-3546.2165L13504.341,-3546.2042L13504.3528,-3546.174L13504.3554,-3546.1548L13504.3592,-3546.1363L13504.3592,-3546.1274L13504.3621,-3546.1154L13504.3756,-3546.0805L13504.3879,-3546.0609L13504.4048,-3546.0404L13504.4322,-3546.0257L13504.4542,-3546.013L13504.4698,-3545.9941L13504.4833,-3545.9725L13504.4876,-3545.9657L13504.4914,-3545.9493L13504.4915,-3545.9484L13504.4956,-3545.9201L13504.5002,-3545.8968L13504.5032,-3545.877L13504.5063,-3545.8333L13504.507,-3545.8245L13504.5104,-3545.8026L13504.5175,-3545.7824L13504.5146,-3545.7618L13504.5104,-3545.7409L13504.5099,-3545.7276L13504.5184,-3545.7046L13504.5294,-3545.682L13504.5403,-3545.6621L13504.5424,-3545.6539L13504.5416,-3545.6453L13504.5374,-3545.6309L13504.533,-3545.6069L13504.5294,-3545.5868L13504.5264,-3545.5775L13504.5256,-3545.5621L13504.5277,-3545.5309L13504.5365,-3545.5073L13504.5475,-3545.4898L13504.558,-3545.4755L13504.5593,-3545.4737L13504.5695,-3545.4606L13504.5872,-3545.4414L13504.6037,-3545.4254L13504.6219,-3545.413L13504.6582,-3545.3966L13504.6839,-3545.3883L13504.7059,-3545.3747L13504.7224,-3545.3613L13504.7279,-3545.3534L13504.7283,-3545.3424L13504.7308,-3545.3298L13504.73,-3545.3085L13504.7342,-3545.2859L13504.7426,-3545.2629L13504.7591,-3545.2393L13504.7781,-3545.2181L13504.8022,-3545.2009L13504.8233,-3545.1862L13504.8569,-3545.1689L13504.8791,-3545.1574L13504.928,-3545.1321L13504.9681,-3545.1143L13504.9799,-3545.1071L13504.9846,-3545.0724L13504.9846,-3545.0718L13504.9854,-3545.0509L13504.988,-3545.0416L13504.9947,-3545.03L13505,-3545.0219L13505.0095,-3545.0073L13505.0104,-3545.0019L13505.0112,-3545L13505.0213,-3544.9782L13505.0306,-3544.9525L13505.0336,-3544.9453L13505.0315,-3544.8994L13505.0357,-3544.8758L13505.0484,-3544.8532L13505.0627,-3544.8319L13505.0699,-3544.8031L13505.0606,-3544.7829L13505.0551,-3544.76L13505.0382,-3544.725L13505.0319,-3544.7082L13505.0285,-3544.688L13505.0281,-3544.6623L13505.0289,-3544.6479L13505.0306,-3544.6336L13505.0336,-3544.6209L13505.0534,-3544.5931L13505.0669,-3544.5746L13505.0779,-3544.5575L13505.0889,-3544.5311L13505.0889,-3544.5239L13505.0986,-3544.5003L13505.1024,-3544.479L13505.1016,-3544.4242L13505.1045,-3544.4026L13505.1117,-3544.3776L13505.1193,-3544.3533L13505.124,-3544.3396L13505.1307,-3544.3276L13505.1472,-3544.3077L13505.1641,-3544.2847L13505.1746,-3544.2721L13505.1818,-3544.2608L13505.1835,-3544.2539L13505.1818,-3544.2491L13505.1611,-3544.2361L13505.1512,-3544.23L13505.1409,-3544.2238L13505.1181,-3544.2118L13505.0893,-3544.1956L13505.0631,-3544.1778L13505.0534,-3544.1667L13505.0488,-3544.1614L13505.0289,-3544.1415L13505,-3544.1078L13504.9901,-3544.0963L13504.9774,-3544.0747L13504.9664,-3544.0524L13504.9496,-3544.0278L13504.9381,-3544.0137L13504.9348,-3543.9836L13504.9428,-3543.9592L13504.9576,-3543.926L13504.9605,-3543.9089L13504.958,-3543.8849L13504.9525,-3543.8616L13504.9386,-3543.8078L13504.9369,-3543.7859L13504.9318,-3543.7612L13504.9225,-3543.7365L13504.9111,-3543.7088L13504.8904,-3543.693L13504.8723,-3543.6721L13504.8681,-3543.6604L13504.8651,-3543.6416L13504.8664,-3543.619L13504.8643,-3543.5868L13504.8448,-3543.5748L13504.8267,-3543.5635L13504.8132,-3543.5525L13504.8017,-3543.5419L13504.7984,-3543.5347L13504.7958,-3543.5148L13504.8026,-3543.4946L13504.8129,-3543.4406L13504.8132,-3543.4394L13504.8195,-3543.4196L13504.8301,-3543.3966L13504.8406,-3543.3404L13504.8426,-3543.3333L13504.8465,-3543.3199L13504.8546,-3543.301L13504.8626,-3543.2445L13504.8579,-3543.2209L13504.8596,-3543.1982L13504.8524,-3543.1886L13504.8389,-3543.1766L13504.8127,-3543.1578L13504.7929,-3543.1393L13504.7815,-3543.1204L13504.7773,-3543.1102L13504.776,-3543.0828L13504.7528,-3543.0481L13504.7367,-3543.0293L13504.7186,-3543.0108L13504.7097,-3542.9923L13504.7124,-3542.9776L13504.716,-3542.9584L13504.727,-3542.9378L13504.7595,-3542.8868L13504.7726,-3542.8642L13504.7684,-3542.8378L13504.7241,-3542.796L13504.7063,-3542.7778L13504.6924,-3542.7593L13504.6911,-3542.7487L13504.6949,-3542.7404L13504.7072,-3542.7284L13504.7308,-3542.7151L13504.7566,-3542.7089L13504.7798,-3542.6939L13504.8099,-3542.665L13504.8233,-3542.6521L13504.8325,-3542.6446L13504.8385,-3542.6319L13504.8327,-3542.6219L13504.8187,-3542.6144L13504.7629,-3542.5887L13504.7557,-3542.5801L13504.757,-3542.5571L13504.7633,-3542.5373L13504.7613,-3542.5181L13504.7588,-3542.5L13504.7583,-3542.4958L13504.7524,-3542.4804L13504.7456,-3542.4612L13504.7384,-3542.4427L13504.7237,-3542.4191L13504.7051,-3542.3954L13504.703,-3542.3899L13504.7051,-3542.3649L13504.7131,-3542.3447L13504.7203,-3542.3348L13504.7444,-3542.2995L13504.7684,-3542.2762L13504.7849,-3542.2591L13504.8343,-3542.2155L13504.8461,-3542.194L13504.8584,-3542.1731L13504.8875,-3542.1199L13504.901,-3542.0998L13504.9133,-3542.0788L13504.9441,-3542.0316L13504.9635,-3542.0103L13504.9796,-3541.9963L13505,-3541.9922L13505,-3541.9922Z"/>
</g>
</svg>
