<?xml version="1.0" encoding="UTF-8"?>
<svg  xmlns="http://www.w3.org/2000/svg" xmlns:xlink="http://www.w3.org/1999/xlink" xmlns:go="http://purl.org/svgmap/profile" property="geometry,N03_001,N03_002,N03_003,N03_004,N03_005,N03_007" viewBox="13535.15625 -3489.2578125 8.7890625 8.7890625" go:dataArea="13535.15625 -3489.2578125 8.7890625 8.7890625" >
<metadata>
 <rdf:RDF xmlns:rdf="http://www.w3.org/1999/02/22-rdf-syntax-ns#" xmlns:crs="http://opengis.org/xmldtds/transformations.dtd" xmlns:svg="http://www.w3.org/svg" >
  <rdf:Description>
   <crs:CoordinateReferenceSystem rdf:resource="http://purl.org/crs/84" svg:transform="matrix(100.0,0.0,0.0,-100.0,0.0,0.0)" />
  </rdf:Description>
 </rdf:RDF>
</metadata>
<globalCoordinateSystem srsName="http://purl.org/crs/84" transform="matrix(100.0,0.0,0.0,-100.0,0.0,0.0)" />
<defs>
 <g id="p0" >
  <circle cx="0.0" cy="0.0" r="3" stroke="green" stroke-width="2.0" vector-effect="non-scaling-stroke" />
 </g>
</defs>
<g fill="#0000ff" fill-rule="evenodd" opacity="0.5" >
<path content="大阪府,,,池田市,,27204" xlink:title="大阪府" d="M13543.9208,-3487.3715L13543.936,-3487.3709L13543.9453,-3487.3747L13543.9453,-3480.4688L13542.217,-3480.4688L13542.2057,-3480.4922L13542.1972,-3480.5043L13542.1876,-3480.5179L13542.1876,-3480.562L13542.1876,-3480.5683L13542.1847,-3480.5838L13542.1783,-3480.5987L13542.1645,-3480.6166L13542.1479,-3480.6429L13542.1277,-3480.6707L13542.1016,-3480.7067L13542.0712,-3480.7508L13542.0539,-3480.7792L13542.0507,-3480.783L13542.0494,-3480.7847L13542.0206,-3480.8203L13542.0109,-3480.8333L13541.9993,-3480.8488L13541.9736,-3480.8829L13541.9498,-3480.9265L13541.9216,-3480.979L13541.8948,-3481.0255L13541.8892,-3481.0448L13541.8828,-3481.067L13541.8819,-3481.0702L13541.8759,-3481.0911L13541.8709,-3481.1081L13541.8664,-3481.1187L13541.8524,-3481.1515L13541.845,-3481.1688L13541.8399,-3481.1809L13541.8084,-3481.2506L13541.803,-3481.2626L13541.7986,-3481.2737L13541.769,-3481.3494L13541.759,-3481.3631L13541.7516,-3481.3732L13541.7489,-3481.387L13541.7466,-3481.3983L13541.7191,-3481.4591L13541.7103,-3481.4705L13541.7041,-3481.4784L13541.6959,-3481.4889L13541.6714,-3481.559L13541.6667,-3481.5735L13541.6575,-3481.6017L13541.6489,-3481.6282L13541.6475,-3481.6426L13541.6402,-3481.6667L13541.6319,-3481.6942L13541.6309,-3481.6974L13541.6163,-3481.7303L13541.5991,-3481.7693L13541.6054,-3481.8558L13541.6128,-3481.956L13541.6093,-3481.9785L13541.6092,-3481.9789L13541.6114,-3482.0201L13541.6186,-3482.0457L13541.6518,-3482.0851L13541.6667,-3482.104L13541.693,-3482.1376L13541.727,-3482.1776L13541.7509,-3482.2023L13541.7661,-3482.219L13541.8283,-3482.2811L13541.8434,-3482.2984L13541.8673,-3482.3204L13541.882,-3482.332L13541.9331,-3482.3723L13541.9707,-3482.4045L13542.0141,-3482.4454L13542.032,-3482.4661L13542.0466,-3482.483L13542.0719,-3482.5L13542.0821,-3482.5068L13542.1052,-3482.5295L13542.1421,-3482.573L13542.16,-3482.5967L13542.1678,-3482.6069L13542.1761,-3482.6178L13542.197,-3482.6333L13542.2382,-3482.6909L13542.2787,-3482.7589L13542.2953,-3482.7881L13542.2997,-3482.8024L13542.3199,-3482.834L13542.3337,-3482.8572L13542.3402,-3482.8856L13542.359,-3482.919L13542.3727,-3482.9745L13542.3799,-3482.9947L13542.3792,-3483.0174L13542.3789,-3483.0384L13542.3785,-3483.0609L13542.3763,-3483.0961L13542.3753,-3483.1179L13542.3727,-3483.1734L13542.3741,-3483.2056L13542.372,-3483.2634L13542.3683,-3483.3147L13542.3636,-3483.3277L13542.3616,-3483.3333L13542.3589,-3483.3407L13542.3594,-3483.3837L13542.3595,-3483.3974L13542.3595,-3483.4017L13542.3597,-3483.4147L13542.3756,-3483.4749L13542.385,-3483.5089L13542.3929,-3483.5345L13542.3954,-3483.5456L13542.3962,-3483.5496L13542.3973,-3483.5541L13542.4089,-3483.6072L13542.4096,-3483.61L13542.4197,-3483.6368L13542.4279,-3483.6569L13542.433,-3483.7123L13542.433,-3483.7617L13542.4315,-3483.7737L13542.4314,-3483.774L13542.4294,-3483.7904L13542.4229,-3483.822L13542.3917,-3483.893L13542.3891,-3483.8981L13542.354,-3483.9655L13542.3433,-3483.986L13542.2955,-3484.0886L13542.2836,-3484.1153L13542.2622,-3484.1638L13542.261,-3484.1667L13542.2528,-3484.1864L13542.2491,-3484.2103L13542.2282,-3484.2664L13542.2087,-3484.3075L13542.1908,-3484.3458L13542.1834,-3484.3618L13542.1696,-3484.3845L13542.1558,-3484.4059L13542.1305,-3484.4572L13542.1226,-3484.4799L13542.116,-3484.5031L13542.1117,-3484.564L13542.1066,-3484.5819L13542.1001,-3484.6057L13542.0973,-3484.6141L13542.0909,-3484.6325L13542.0893,-3484.6374L13542.0827,-3484.6517L13542.069,-3484.6821L13542.0594,-3484.6948L13542.035,-3484.7274L13541.9966,-3484.7781L13541.9799,-3484.796L13541.9604,-3484.8145L13541.9126,-3484.8777L13541.8637,-3484.9469L13541.8507,-3484.9672L13541.8422,-3484.9833L13541.8391,-3484.9893L13541.8328,-3485L13541.8116,-3485.0358L13541.8059,-3485.0534L13541.8058,-3485.0537L13541.8022,-3485.0758L13541.8021,-3485.0762L13541.8019,-3485.0785L13541.7986,-3485.105L13541.7856,-3485.1235L13541.7778,-3485.132L13541.7676,-3485.1431L13541.7537,-3485.1584L13541.7392,-3485.1742L13541.6878,-3485.2225L13541.7021,-3485.2236L13541.7859,-3485.2301L13541.7998,-3485.2311L13541.9214,-3485.1882L13542.009,-3485.1548L13542.035,-3485.1494L13542.0517,-3485.15L13542.0605,-3485.1527L13542.1046,-3485.1661L13542.127,-3485.1721L13542.2254,-3485.1876L13542.2529,-3485.1912L13542.2639,-3485.1938L13542.2754,-3485.1965L13542.2877,-3485.2049L13542.3152,-3485.2091L13542.3644,-3485.2126L13542.397,-3485.2174L13542.4578,-3485.2401L13542.4809,-3485.2514L13542.5,-3485.2638L13542.5122,-3485.2717L13542.5215,-3485.2777L13542.5548,-3485.3319L13542.5794,-3485.3516L13542.699,-3485.3796L13542.6995,-3485.3797L13542.7596,-3485.3964L13542.7842,-3485.4059L13542.8079,-3485.4214L13542.8818,-3485.4745L13542.9042,-3485.4894L13542.957,-3485.5211L13542.9824,-3485.53L13543.0439,-3485.5514L13543.0576,-3485.5664L13543.0688,-3485.5755L13543.1011,-3485.6021L13543.1358,-3485.6415L13543.1462,-3485.6815L13543.1523,-3485.6968L13543.1614,-3485.7197L13543.1649,-3485.7657L13543.165,-3485.7662L13543.1621,-3485.7906L13543.1563,-3485.8169L13543.1462,-3485.8333L13543.1259,-3485.8664L13543.1151,-3485.8938L13543.1071,-3485.9201L13543.0673,-3485.9934L13543.0564,-3486.0173L13543.0229,-3486.0657L13543.0123,-3486.0811L13543.0061,-3486.1044L13543.0057,-3486.1056L13543.0094,-3486.1282L13543.0231,-3486.1557L13543.0441,-3486.1849L13543.0607,-3486.207L13543.1092,-3486.2428L13543.1317,-3486.2631L13543.1635,-3486.2863L13543.1874,-3486.3239L13543.191,-3486.3471L13543.2069,-3486.4462L13543.2142,-3486.4781L13543.2236,-3486.5121L13543.241,-3486.5508L13543.2573,-3486.5866L13543.2652,-3486.6314L13543.2724,-3486.6612L13543.2759,-3486.6667L13543.3195,-3486.7369L13543.3289,-3486.7569L13543.3333,-3486.7636L13543.3607,-3486.8046L13543.3687,-3486.8184L13543.3868,-3486.8194L13543.4049,-3486.8204L13543.415,-3486.8288L13543.4184,-3486.8396L13543.4223,-3486.8521L13543.4592,-3486.9511L13543.46,-3486.9529L13543.4787,-3486.9964L13543.4802,-3487.0083L13543.467,-3487.0166L13543.4534,-3487.025L13543.4491,-3487.0334L13543.4454,-3487.0525L13543.4309,-3487.0734L13543.4063,-3487.093L13543.3955,-3487.1181L13543.389,-3487.1396L13543.389,-3487.1694L13543.4013,-3487.2212L13543.4621,-3487.3453L13543.5171,-3487.4414L13543.5332,-3487.4637L13543.5693,-3487.5L13543.5759,-3487.5067L13543.5998,-3487.524L13543.6273,-3487.5341L13543.6722,-3487.5574L13543.6956,-3487.5771L13543.7026,-3487.583L13543.7185,-3487.6069L13543.7209,-3487.6123L13543.7409,-3487.657L13543.7518,-3487.6814L13543.7546,-3487.699L13543.7554,-3487.7041L13543.7489,-3487.7125L13543.7756,-3487.7106L13543.7959,-3487.7022L13543.8118,-3487.685L13543.8161,-3487.6748L13543.8169,-3487.6635L13543.8139,-3487.6325L13543.8125,-3487.6158L13543.8119,-3487.6129L13543.8017,-3487.5615L13543.7988,-3487.5299L13543.8024,-3487.5007L13543.8026,-3487.5L13543.8234,-3487.447L13543.8371,-3487.4332L13543.8501,-3487.4291L13543.8733,-3487.4166L13543.9001,-3487.3945L13543.9107,-3487.3805L13543.9208,-3487.3715Z"/>
<path content="大阪府,,,箕面市,,27220" xlink:title="大阪府" d="M13543.9453,-3487.3747L13543.936,-3487.3709L13543.9208,-3487.3715L13543.9107,-3487.3805L13543.9001,-3487.3945L13543.8733,-3487.4166L13543.8501,-3487.4291L13543.8371,-3487.4332L13543.8234,-3487.447L13543.8026,-3487.5L13543.8024,-3487.5007L13543.7988,-3487.5299L13543.8017,-3487.5615L13543.8119,-3487.6129L13543.8125,-3487.6158L13543.8139,-3487.6325L13543.8169,-3487.6635L13543.8161,-3487.6748L13543.8118,-3487.685L13543.7959,-3487.7022L13543.7756,-3487.7106L13543.7489,-3487.7125L13543.7265,-3487.7214L13543.7076,-3487.7304L13543.7026,-3487.7387L13543.6997,-3487.7626L13543.7069,-3487.7876L13543.725,-3487.8354L13543.7265,-3487.8437L13543.725,-3487.864L13543.7214,-3487.8831L13543.7214,-3487.8838L13543.7221,-3487.8986L13543.7323,-3487.9469L13543.7431,-3487.9919L13543.7619,-3488.0498L13543.7699,-3488.0742L13543.7829,-3488.0939L13543.7909,-3488.1181L13543.7807,-3488.1497L13543.78,-3488.173L13543.788,-3488.1932L13543.8209,-3488.218L13543.8332,-3488.2359L13543.8404,-3488.255L13543.8477,-3488.2747L13543.873,-3488.3319L13543.8736,-3488.3333L13543.8824,-3488.3534L13543.8933,-3488.3689L13543.8976,-3488.3916L13543.8875,-3488.4083L13543.8854,-3488.4144L13543.8838,-3488.4187L13543.8814,-3488.4252L13543.8883,-3488.449L13543.8961,-3488.4619L13543.902,-3488.4709L13543.9237,-3488.5019L13543.9453,-3488.5171Z"/>
<path content="大阪府,,豊能郡,豊能町,,27321" xlink:title="大阪府" d="M13543.3616,-3489.2578L13543.3565,-3489.2329L13543.334,-3489.1965L13543.3333,-3489.1961L13543.3196,-3489.1882L13543.2988,-3489.1826L13543.2867,-3489.1793L13543.2841,-3489.1786L13543.2617,-3489.174L13543.2609,-3489.1739L13543.2391,-3489.1797L13543.2123,-3489.1869L13543.2008,-3489.19L13543.191,-3489.1941L13543.1456,-3489.2131L13543.1456,-3489.2131L13543.0742,-3489.2431L13543.0568,-3489.2562L13543.0558,-3489.2578Z"/>
</g>
</svg>
