<?xml version="1.0" encoding="UTF-8"?>
<svg  xmlns="http://www.w3.org/2000/svg" xmlns:xlink="http://www.w3.org/1999/xlink" xmlns:go="http://purl.org/svgmap/profile" property="geometry,N03_001,N03_002,N03_003,N03_004,N03_005,N03_007" viewBox="13537.353515625 -3368.408203125 2.197265625 2.197265625" go:dataArea="13537.353515625 -3368.408203125 2.197265625 2.197265625" >
<metadata>
 <rdf:RDF xmlns:rdf="http://www.w3.org/1999/02/22-rdf-syntax-ns#" xmlns:crs="http://opengis.org/xmldtds/transformations.dtd" xmlns:svg="http://www.w3.org/svg" >
  <rdf:Description>
   <crs:CoordinateReferenceSystem rdf:resource="http://purl.org/crs/84" svg:transform="matrix(100.0,0.0,0.0,-100.0,0.0,0.0)" />
  </rdf:Description>
 </rdf:RDF>
</metadata>
<globalCoordinateSystem srsName="http://purl.org/crs/84" transform="matrix(100.0,0.0,0.0,-100.0,0.0,0.0)" />
<defs>
 <g id="p0" >
  <circle cx="0.0" cy="0.0" r="3" stroke="green" stroke-width="2.0" vector-effect="non-scaling-stroke" />
 </g>
</defs>
<g fill="#0000ff" fill-rule="evenodd" opacity="0.5" >
<path content="和歌山県,,西牟婁郡,白浜町,,30401" xlink:title="和歌山県" d="M13539.5508,-3368.4082L13539.5508,-3366.2109L13537.3535,-3366.2109L13537.3535,-3368.4082L13537.4837,-3368.4082L13537.4853,-3368.4062L13537.5,-3368.3881L13537.5,-3368.3881L13537.5057,-3368.3809L13537.5096,-3368.3763L13537.5139,-3368.371L13537.5148,-3368.3709L13537.5214,-3368.3734L13537.5226,-3368.3733L13537.526,-3368.3677L13537.5256,-3368.3673L13537.5198,-3368.3641L13537.5198,-3368.3637L13537.5232,-3368.3593L13537.5283,-3368.3531L13537.5324,-3368.3487L13537.5399,-3368.3428L13537.5552,-3368.3333L13537.5669,-3368.3261L13537.5734,-3368.3225L13537.5749,-3368.3216L13537.5779,-3368.3201L13537.5804,-3368.3186L13537.5831,-3368.3213L13537.5844,-3368.3213L13537.5865,-3368.32L13537.5866,-3368.3182L13537.5857,-3368.3166L13537.5847,-3368.3155L13537.5856,-3368.3146L13537.5894,-3368.3122L13537.5915,-3368.3102L13537.5929,-3368.3083L13537.5945,-3368.3044L13537.5939,-3368.3028L13537.5943,-3368.3019L13537.5949,-3368.3009L13537.5968,-3368.2973L13537.5976,-3368.2946L13537.5974,-3368.2935L13537.5994,-3368.2927L13537.5998,-3368.2925L13537.6011,-3368.2933L13537.603,-3368.2969L13537.6063,-3368.2963L13537.6069,-3368.2956L13537.6049,-3368.2901L13537.6022,-3368.2822L13537.6409,-3368.2582L13537.6639,-3368.242L13537.6798,-3368.2481L13537.7116,-3368.2596L13537.7239,-3368.2629L13537.7271,-3368.2637L13537.7313,-3368.2638L13537.7369,-3368.2649L13537.7399,-3368.2653L13537.7583,-3368.2728L13537.7641,-3368.2739L13537.7685,-3368.2748L13537.7743,-3368.2761L13537.7767,-3368.2748L13537.7798,-3368.2742L13537.7819,-3368.2749L13537.7884,-3368.288L13537.7996,-3368.3126L13537.8015,-3368.3149L13537.8023,-3368.3191L13537.8033,-3368.3239L13537.803,-3368.3252L13537.804,-3368.3316L13537.8046,-3368.3333L13537.8088,-3368.3448L13537.8093,-3368.3459L13537.8085,-3368.3476L13537.7996,-3368.3538L13537.7952,-3368.3555L13537.7867,-3368.357L13537.7846,-3368.3568L13537.7832,-3368.3553L13537.7768,-3368.3506L13537.7707,-3368.3475L13537.7556,-3368.3426L13537.7335,-3368.3354L13537.7265,-3368.3343L13537.7215,-3368.3333L13537.7148,-3368.3321L13537.7105,-3368.3318L13537.7063,-3368.3331L13537.7061,-3368.3333L13537.7037,-3368.337L13537.7011,-3368.3385L13537.6988,-3368.3387L13537.695,-3368.3376L13537.6901,-3368.3375L13537.6872,-3368.3388L13537.6841,-3368.341L13537.6806,-3368.3417L13537.6783,-3368.3432L13537.6725,-3368.3459L13537.6709,-3368.348L13537.6677,-3368.3498L13537.6638,-3368.3536L13537.6599,-3368.3568L13537.6557,-3368.3592L13537.6509,-3368.3625L13537.6483,-3368.3653L13537.6447,-3368.3676L13537.6424,-3368.3707L13537.6392,-3368.3719L13537.6355,-3368.3748L13537.6296,-3368.3778L13537.6261,-3368.3791L13537.6223,-3368.3815L13537.6223,-3368.3815L13537.6191,-3368.3833L13537.6165,-3368.3865L13537.6144,-3368.39L13537.6113,-3368.3921L13537.6097,-3368.3952L13537.6058,-3368.3975L13537.6022,-3368.4016L13537.6002,-3368.4039L13537.5999,-3368.4065L13537.5993,-3368.4082Z"/>
</g>
</svg>
