<?xml version="1.0" encoding="UTF-8"?>
<svg  xmlns="http://www.w3.org/2000/svg" xmlns:xlink="http://www.w3.org/1999/xlink" xmlns:go="http://purl.org/svgmap/profile" property="geometry,N03_001,N03_002,N03_003,N03_004,N03_005,N03_007" viewBox="13513.18359375 -3471.6796875 4.39453125 4.39453125" go:dataArea="13513.18359375 -3471.6796875 4.39453125 4.39453125" >
<metadata>
 <rdf:RDF xmlns:rdf="http://www.w3.org/1999/02/22-rdf-syntax-ns#" xmlns:crs="http://opengis.org/xmldtds/transformations.dtd" xmlns:svg="http://www.w3.org/svg" >
  <rdf:Description>
   <crs:CoordinateReferenceSystem rdf:resource="http://purl.org/crs/84" svg:transform="matrix(100.0,0.0,0.0,-100.0,0.0,0.0)" />
  </rdf:Description>
 </rdf:RDF>
</metadata>
<globalCoordinateSystem srsName="http://purl.org/crs/84" transform="matrix(100.0,0.0,0.0,-100.0,0.0,0.0)" />
<defs>
 <g id="p0" >
  <circle cx="0.0" cy="0.0" r="3" stroke="green" stroke-width="2.0" vector-effect="non-scaling-stroke" />
 </g>
</defs>
<g fill="#0000ff" fill-rule="evenodd" opacity="0.5" >
<path content="兵庫県,,,神戸市,兵庫区,28105" xlink:title="兵庫県" d="M13517.1722,-3470.7917L13517.1845,-3470.7737L13517.1973,-3470.7604L13517.2086,-3470.753L13517.2271,-3470.7475L13517.2404,-3470.7456L13517.255,-3470.7495L13517.281,-3470.7573L13517.2967,-3470.7581L13517.3089,-3470.7553L13517.3156,-3470.7471L13517.3184,-3470.7346L13517.3189,-3470.7249L13517.3208,-3470.6862L13517.3208,-3470.66L13517.3241,-3470.6397L13517.3321,-3470.6241L13517.343,-3470.604L13517.3596,-3470.5899L13517.3861,-3470.5715L13517.3989,-3470.5571L13517.4093,-3470.5317L13517.4164,-3470.5059L13517.4192,-3470.4797L13517.4235,-3470.4649L13517.4377,-3470.4516L13517.4594,-3470.4383L13517.4627,-3470.4282L13517.4632,-3470.4161L13517.4542,-3470.3907L13517.4424,-3470.3642L13517.4367,-3470.3442L13517.4341,-3470.3374L13517.4296,-3470.3255L13517.4252,-3470.3138L13517.4221,-3470.3056L13517.4219,-3470.3007L13517.4216,-3470.2899L13517.4221,-3470.2681L13517.432,-3470.2388L13517.4348,-3470.2275L13517.4358,-3470.2185L13517.431,-3470.2041L13517.4324,-3470.1966L13517.4381,-3470.1884L13517.4566,-3470.1806L13517.4623,-3470.1728L13517.4646,-3470.1611L13517.4632,-3470.147L13517.4582,-3470.1398L13517.4552,-3470.1353L13517.4386,-3470.1127L13517.4149,-3470.0857L13517.4121,-3470.0755L13517.4069,-3470.0544L13517.4074,-3470.0404L13517.4131,-3470.0271L13517.4168,-3470.0165L13517.4146,-3470L13517.4145,-3469.9987L13517.4083,-3469.9787L13517.4083,-3469.9686L13517.414,-3469.9576L13517.4249,-3469.9439L13517.4315,-3469.9334L13517.4324,-3469.9154L13517.4341,-3469.8994L13517.4348,-3469.8924L13517.4381,-3469.8811L13517.4457,-3469.8756L13517.4613,-3469.8693L13517.4694,-3469.8604L13517.4703,-3469.849L13517.4675,-3469.8377L13517.4457,-3469.8142L13517.4315,-3469.7925L13517.4263,-3469.7745L13517.4235,-3469.7624L13517.4206,-3469.7522L13517.4121,-3469.7374L13517.4003,-3469.7225L13517.3937,-3469.7022L13517.3903,-3469.6928L13517.3795,-3469.6787L13517.3672,-3469.6679L13517.361,-3469.6522L13517.3539,-3469.6323L13517.352,-3469.6088L13517.3487,-3469.5914L13517.343,-3469.5792L13517.3326,-3469.5687L13517.3208,-3469.5574L13517.317,-3469.546L13517.3061,-3469.4902L13517.2943,-3469.4546L13517.2919,-3469.4335L13517.2929,-3469.4257L13517.3,-3469.4229L13517.3033,-3469.423L13517.317,-3469.4233L13517.3516,-3469.43L13517.3705,-3469.4312L13517.3908,-3469.4316L13517.5,-3469.4538L13517.5781,-3469.4698L13517.5781,-3469.3454L13517.5124,-3469.3258L13517.5156,-3469.3194L13517.5285,-3469.2929L13517.5474,-3469.2668L13517.5583,-3469.2515L13517.5624,-3469.2439L13517.5744,-3469.2214L13517.5781,-3469.2225L13517.5781,-3469.1925L13517.5753,-3469.1919L13517.5586,-3469.188L13517.5536,-3469.1853L13517.5442,-3469.1802L13517.5357,-3469.175L13517.5311,-3469.1721L13517.5257,-3469.1667L13517.5099,-3469.1508L13517.5,-3469.1376L13517.4966,-3469.1331L13517.4711,-3469.0989L13517.471,-3469.0989L13517.443,-3469.0658L13517.4383,-3469.0611L13517.4335,-3469.0564L13517.4186,-3469.0415L13517.3957,-3469.0272L13517.3936,-3469.0262L13517.3396,-3468.9989L13517.3381,-3468.9982L13517.3173,-3468.9884L13517.3034,-3468.9818L13517.2821,-3468.9648L13517.2821,-3468.9648L13517.2666,-3468.9568L13517.2655,-3468.9562L13517.2616,-3468.9541L13517.2546,-3468.9503L13517.2504,-3468.9481L13517.246,-3468.9457L13517.2345,-3468.9395L13517.2213,-3468.9295L13517.2136,-3468.9236L13517.1983,-3468.912L13517.1948,-3468.9092L13517.1725,-3468.8907L13517.1721,-3468.8898L13517.1679,-3468.8794L13517.1681,-3468.875L13517.1683,-3468.8713L13517.17,-3468.871L13517.1728,-3468.8706L13517.1748,-3468.8702L13517.1869,-3468.8732L13517.197,-3468.8756L13517.2273,-3468.888L13517.2374,-3468.8891L13517.2508,-3468.8864L13517.2655,-3468.8764L13517.2721,-3468.8681L13517.2766,-3468.8624L13517.2776,-3468.8535L13517.2746,-3468.8411L13517.2678,-3468.8299L13517.2652,-3468.8258L13517.2661,-3468.8172L13517.2727,-3468.8097L13517.2844,-3468.8078L13517.2887,-3468.8067L13517.2687,-3468.7905L13517.2596,-3468.7884L13517.2506,-3468.7893L13517.2455,-3468.7898L13517.2355,-3468.7908L13517.2325,-3468.7911L13517.2197,-3468.7909L13517.2117,-3468.7908L13517.2073,-3468.7891L13517.2025,-3468.7872L13517.1971,-3468.7851L13517.195,-3468.7843L13517.1705,-3468.7698L13517.1569,-3468.7585L13517.149,-3468.7477L13517.1389,-3468.7218L13517.1313,-3468.7015L13517.1295,-3468.6968L13517.1283,-3468.6963L13517.1235,-3468.6941L13517.0528,-3468.662L13517.0331,-3468.6537L13517.0249,-3468.6503L13517.0201,-3468.6482L13517.0152,-3468.6462L13516.964,-3468.6247L13517.0019,-3468.5118L13517.0126,-3468.4844L13517.0182,-3468.4569L13517.0244,-3468.4329L13517.0417,-3468.4006L13517.0479,-3468.3812L13517.0531,-3468.3678L13517.0635,-3468.3406L13517.067,-3468.3333L13517.0779,-3468.3106L13517.0814,-3468.3043L13517.0835,-3468.3004L13517.087,-3468.2942L13517.0978,-3468.2745L13517.1071,-3468.2635L13517.1251,-3468.2419L13517.1262,-3468.2406L13517.1501,-3468.2159L13517.1507,-3468.2153L13517.1629,-3468.2027L13517.1738,-3468.1913L13517.1965,-3468.1683L13517.1994,-3468.1654L13517.2034,-3468.1614L13517.2319,-3468.1323L13517.2532,-3468.1109L13517.256,-3468.108L13517.26,-3468.104L13517.277,-3468.0868L13517.3296,-3468.0327L13517.3331,-3468.0291L13517.3374,-3468.0246L13517.3803,-3467.9806L13517.3848,-3467.9759L13517.4127,-3467.9473L13517.4186,-3467.9413L13517.4362,-3467.9232L13517.4376,-3467.9218L13517.461,-3467.8978L13517.4403,-3467.8859L13517.4277,-3467.8787L13517.3487,-3467.8336L13517.3738,-3467.8099L13517.3774,-3467.8064L13517.4099,-3467.7756L13517.4135,-3467.7722L13517.4176,-3467.7683L13517.451,-3467.7365L13517.4544,-3467.7333L13517.458,-3467.7298L13517.4849,-3467.7042L13517.4885,-3467.7009L13517.493,-3467.6966L13517.5,-3467.6898L13517.5161,-3467.674L13517.5169,-3467.6732L13517.5196,-3467.6706L13517.5351,-3467.6555L13517.5453,-3467.6487L13517.5504,-3467.6452L13517.5601,-3467.6394L13517.5684,-3467.6344L13517.5738,-3467.6312L13517.5775,-3467.6291L13517.5654,-3467.6021L13517.5775,-3467.5982L13517.5781,-3467.598L13517.5781,-3467.2852L13515.7512,-3467.2852L13515.6841,-3467.3542L13515.6797,-3467.3587L13515.6458,-3467.3936L13515.6407,-3467.3988L13515.5714,-3467.4707L13515.5788,-3467.4833L13515.5884,-3467.5L13515.6451,-3467.5982L13515.5983,-3467.6743L13515.5816,-3467.6934L13515.5774,-3467.7025L13515.5774,-3467.7087L13515.5798,-3467.7136L13515.5869,-3467.7279L13515.5918,-3467.7386L13515.5926,-3467.7404L13515.5911,-3467.7494L13515.5808,-3467.7566L13515.5698,-3467.7576L13515.5649,-3467.7529L13515.5611,-3467.7366L13515.5571,-3467.7263L13515.5535,-3467.7169L13515.549,-3467.7125L13515.5315,-3467.7066L13515.4985,-3467.6994L13515.4932,-3467.6997L13515.4834,-3467.7037L13515.4667,-3467.7078L13515.4356,-3467.7109L13515.4234,-3467.7144L13515.4124,-3467.7272L13515.4037,-3467.741L13515.4022,-3467.7504L13515.4041,-3467.7717L13515.4044,-3467.787L13515.4029,-3467.7983L13515.3965,-3467.8083L13515.3889,-3467.8202L13515.3874,-3467.8276L13515.3881,-3467.8339L13515.3942,-3467.8432L13515.4128,-3467.853L13515.4295,-3467.8617L13515.4333,-3467.8671L13515.4333,-3467.8796L13515.431,-3467.9012L13515.4246,-3467.9159L13515.4158,-3467.9241L13515.4125,-3467.9258L13515.4056,-3467.9294L13515.3813,-3467.9354L13515.3484,-3467.9435L13515.2107,-3467.9779L13515.2073,-3467.9826L13515.2104,-3468.0099L13515.2106,-3468.0161L13515.211,-3468.026L13515.2085,-3468.0321L13515.1981,-3468.0567L13515.1857,-3468.0818L13515.1803,-3468.0927L13515.1678,-3468.1244L13515.164,-3468.1466L13515.1629,-3468.1519L13515.1585,-3468.1742L13515.1576,-3468.179L13515.1568,-3468.1928L13515.1556,-3468.2L13515.1427,-3468.2194L13515.1309,-3468.2383L13515.1223,-3468.252L13515.0824,-3468.3059L13515.0743,-3468.3178L13515.0663,-3468.3295L13515.0638,-3468.3333L13515.058,-3468.342L13515.0432,-3468.3608L13515.0163,-3468.3818L13515,-3468.3968L13514.9969,-3468.3997L13514.9829,-3468.409L13514.9711,-3468.4303L13514.9666,-3468.4472L13514.9639,-3468.4617L13514.9654,-3468.4801L13514.9667,-3468.4853L13514.9704,-3468.4999L13514.9725,-3468.5132L13514.9722,-3468.5242L13514.9722,-3468.5248L13514.9687,-3468.5311L13514.9676,-3468.5332L13514.9521,-3468.5476L13514.9043,-3468.5906L13514.8872,-3468.6097L13514.8815,-3468.6206L13514.883,-3468.6359L13514.8891,-3468.6522L13514.894,-3468.6754L13514.8916,-3468.6905L13514.8914,-3468.6923L13514.8845,-3468.7114L13514.8952,-3468.7437L13514.8977,-3468.751L13514.9088,-3468.7826L13514.9099,-3468.7935L13514.9051,-3468.7937L13514.9005,-3468.7938L13514.878,-3468.7861L13514.8732,-3468.7844L13514.8663,-3468.7816L13514.8281,-3468.766L13514.8256,-3468.765L13514.8177,-3468.7629L13514.8173,-3468.7628L13514.8115,-3468.7612L13514.7964,-3468.7597L13514.7835,-3468.7609L13514.752,-3468.7675L13514.7383,-3468.775L13514.7292,-3468.7832L13514.7232,-3468.7963L13514.7159,-3468.8145L13514.7057,-3468.833L13514.6959,-3468.8408L13514.6689,-3468.8489L13514.6474,-3468.8526L13514.6302,-3468.8555L13514.6086,-3468.8614L13514.5705,-3468.8832L13514.55,-3468.8986L13514.5471,-3468.9019L13514.5329,-3468.918L13514.5193,-3468.9421L13514.5018,-3468.9612L13514.4908,-3468.9781L13514.4847,-3468.9972L13514.477,-3469.0214L13514.3799,-3468.9897L13514.345,-3468.9819L13514.3207,-3468.9775L13514.2991,-3468.9778L13514.2798,-3468.9822L13514.2608,-3468.9941L13514.2517,-3469.0026L13514.2388,-3469.0242L13514.2094,-3469.0727L13514.1961,-3469.1001L13514.1844,-3469.1244L13514.1667,-3469.1523L13514.1597,-3469.1632L13514.1572,-3469.1667L13514.1343,-3469.1975L13514.1337,-3469.1982L13514.117,-3469.2195L13514.0909,-3469.2404L13514.051,-3469.2671L13513.9778,-3469.306L13513.9532,-3469.3191L13513.8954,-3469.3432L13513.8521,-3469.3563L13513.8187,-3469.3663L13513.7761,-3469.3811L13513.7751,-3469.3814L13513.7769,-3469.3816L13513.7812,-3469.382L13513.7892,-3469.3889L13513.8187,-3469.4144L13513.8511,-3469.4388L13513.8568,-3469.4529L13513.854,-3469.4783L13513.8551,-3469.4961L13513.8619,-3469.5069L13513.8677,-3469.5122L13513.8801,-3469.5236L13513.8807,-3469.5242L13514.0519,-3469.6374L13514.08,-3469.6571L13514.0934,-3469.6665L13514.0934,-3469.6665L13514.1253,-3469.6773L13514.1486,-3469.6792L13514.1667,-3469.6745L13514.1776,-3469.6717L13514.1998,-3469.6571L13514.2112,-3469.6421L13514.2112,-3469.6415L13514.2117,-3469.627L13514.2004,-3469.604L13514.196,-3469.5968L13514.1833,-3469.5759L13514.181,-3469.5618L13514.1867,-3469.5564L13514.1953,-3469.5521L13514.2004,-3469.5529L13514.2146,-3469.5613L13514.23,-3469.5721L13514.2459,-3469.5744L13514.2652,-3469.5782L13514.2886,-3469.5909L13514.2984,-3469.599L13514.3136,-3469.6115L13514.3303,-3469.6266L13514.3329,-3469.6289L13514.3661,-3469.6882L13514.3836,-3469.7195L13514.3955,-3469.7406L13514.4053,-3469.7605L13514.429,-3469.8082L13514.4609,-3469.8773L13514.4616,-3469.8825L13514.4649,-3469.9059L13514.47,-3469.9196L13514.4808,-3469.9289L13514.4979,-3469.9327L13514.5178,-3469.9294L13514.5439,-3469.9172L13514.5706,-3469.9078L13514.5997,-3469.9045L13514.6389,-3469.905L13514.6725,-3469.9106L13514.6792,-3469.9112L13514.713,-3469.9144L13514.7134,-3469.9144L13514.7316,-3469.9139L13514.7663,-3469.913L13514.7998,-3469.9164L13514.8079,-3469.9172L13514.8334,-3469.9233L13514.8395,-3469.9271L13514.8426,-3469.9289L13514.8431,-3469.9365L13514.8391,-3469.9477L13514.8261,-3469.9601L13514.8232,-3469.9628L13514.8198,-3469.9675L13514.8244,-3469.9722L13514.8323,-3469.983L13514.8545,-3470L13514.8605,-3470.0046L13514.8664,-3470.0092L13514.8673,-3470.0098L13514.9409,-3470.0636L13514.9802,-3470.0995L13514.9847,-3470.1036L13515,-3470.1149L13515.0126,-3470.1242L13515.049,-3470.1548L13515.0644,-3470.1736L13515.0706,-3470.1872L13515.0723,-3470.205L13515.0775,-3470.2191L13515.0928,-3470.236L13515.1144,-3470.2487L13515.1491,-3470.2711L13515.1833,-3470.2918L13515.21,-3470.3153L13515.239,-3470.3505L13515.2606,-3470.3759L13515.2868,-3470.4008L13515.3089,-3470.4172L13515.3328,-3470.4332L13515.3772,-3470.46L13515.4153,-3470.4759L13515.4523,-3470.4908L13515.4722,-3470.5002L13515.5018,-3470.5129L13515.5279,-3470.5209L13515.5535,-3470.5359L13515.5586,-3470.5401L13515.5626,-3470.5434L13515.5689,-3470.5542L13515.574,-3470.5707L13515.5808,-3470.5787L13515.6002,-3470.581L13515.6297,-3470.5806L13515.6764,-3470.5763L13515.6917,-3470.5796L13515.7111,-3470.5881L13515.7276,-3470.5937L13515.7555,-3470.5942L13515.7754,-3470.5984L13515.7907,-3470.6059L13515.7987,-3470.6153L13515.805,-3470.6192L13515.8186,-3470.6275L13515.8333,-3470.6338L13515.8396,-3470.6364L13515.8527,-3470.643L13515.8652,-3470.6585L13515.8829,-3470.6689L13515.9102,-3470.6717L13515.9432,-3470.6684L13515.9693,-3470.6661L13515.9847,-3470.6693L13516.0251,-3470.6801L13516.0131,-3470.7036L13516.0046,-3470.7187L13516.0057,-3470.7318L13516.0097,-3470.7481L13516.0364,-3470.796L13516.0562,-3470.8333L13516.0706,-3470.8604L13516.0779,-3470.8764L13516.0757,-3470.8867L13516.0473,-3470.9102L13516.0402,-3470.9222L13516.0387,-3470.9247L13516.0416,-3470.9346L13516.0475,-3470.9405L13516.0552,-3470.9482L13516.0922,-3470.9741L13516.1161,-3470.9844L13516.1337,-3470.9877L13516.1519,-3470.9825L13516.1718,-3470.9741L13516.1849,-3470.9609L13516.2025,-3470.9252L13516.2082,-3470.8966L13516.2071,-3470.8815L13516.1997,-3470.8679L13516.1818,-3470.8333L13516.1815,-3470.8327L13516.1769,-3470.8115L13516.1781,-3470.7988L13516.1866,-3470.7894L13516.2025,-3470.7904L13516.2293,-3470.8002L13516.2474,-3470.8166L13516.2475,-3470.8167L13516.2691,-3470.8331L13516.2693,-3470.8333L13516.2781,-3470.8409L13516.2805,-3470.843L13516.285,-3470.8552L13516.2896,-3470.8669L13516.3066,-3470.8787L13516.3226,-3470.8914L13516.3419,-3470.9003L13516.3481,-3470.9046L13516.359,-3470.9121L13516.3749,-3470.9167L13516.3936,-3470.9233L13516.4164,-3470.9327L13516.421,-3470.9342L13516.4301,-3470.9369L13516.4374,-3470.9454L13516.4471,-3470.9576L13516.4619,-3470.967L13516.4738,-3470.9797L13516.4926,-3470.9896L13516.5449,-3471.0027L13516.5614,-3471.0088L13516.5848,-3471.0248L13516.5973,-3471.0355L13516.6138,-3471.0552L13516.6257,-3471.0641L13516.6468,-3471.0702L13516.6633,-3471.0707L13516.6667,-3471.0717L13516.6815,-3471.0759L13516.7053,-3471.0895L13516.7264,-3471.1012L13516.7315,-3471.1097L13516.7503,-3471.135L13516.7571,-3471.1548L13516.7645,-3471.1679L13516.7759,-3471.1764L13516.7884,-3471.1876L13516.7958,-3471.2027L13516.8043,-3471.2158L13516.8134,-3471.2229L13516.8384,-3471.2337L13516.8737,-3471.2514L13516.8931,-3471.2679L13516.9033,-3471.2871L13516.9113,-3471.304L13516.9169,-3471.3232L13516.9209,-3471.3463L13516.9192,-3471.3646L13516.9238,-3471.3824L13516.9317,-3471.4031L13516.9521,-3471.4331L13516.9522,-3471.4332L13516.9733,-3471.4482L13516.9914,-3471.4543L13516.9926,-3471.4457L13516.9962,-3471.4222L13517,-3471.3974L13517.0017,-3471.3762L13517.0011,-3471.3541L13516.9977,-3471.3283L13516.9897,-3471.3025L13516.9886,-3471.2856L13516.9897,-3471.2621L13516.9926,-3471.2381L13516.9954,-3471.2287L13517.0034,-3471.2226L13517.0171,-3471.219L13517.0296,-3471.211L13517.0404,-3471.1969L13517.0517,-3471.165L13517.0614,-3471.1486L13517.0745,-3471.1359L13517.1052,-3471.1175L13517.1206,-3471.1011L13517.1274,-3471.088L13517.1322,-3471.0666L13517.1371,-3471.0447L13517.1359,-3471.0278L13517.1303,-3471.0062L13517.1225,-3470.9961L13517.1206,-3470.9936L13517.1183,-3470.9811L13517.1235,-3470.9678L13517.1486,-3470.9502L13517.1594,-3470.9439L13517.1661,-3470.9275L13517.1667,-3470.9239L13517.1684,-3470.915L13517.1713,-3470.9041L13517.1821,-3470.8912L13517.1888,-3470.876L13517.1869,-3470.858L13517.1769,-3470.8338L13517.1766,-3470.8333L13517.1675,-3470.8217L13517.1679,-3470.8107L13517.1722,-3470.7917Z"/>
<path content="兵庫県,,,神戸市,長田区,28106" xlink:title="兵庫県" d="M13513.5127,-3469.351L13513.5514,-3469.3486L13513.5833,-3469.3514L13513.6669,-3469.3655L13513.7425,-3469.3782L13513.7751,-3469.3814L13513.7761,-3469.3811L13513.8187,-3469.3663L13513.8521,-3469.3563L13513.8954,-3469.3432L13513.9532,-3469.3191L13513.9778,-3469.306L13514.051,-3469.2671L13514.0909,-3469.2404L13514.117,-3469.2195L13514.1337,-3469.1982L13514.1343,-3469.1975L13514.1572,-3469.1667L13514.1597,-3469.1632L13514.1667,-3469.1523L13514.1844,-3469.1244L13514.1961,-3469.1001L13514.2094,-3469.0727L13514.2388,-3469.0242L13514.2517,-3469.0026L13514.2608,-3468.9941L13514.2798,-3468.9822L13514.2991,-3468.9778L13514.3207,-3468.9775L13514.345,-3468.9819L13514.3799,-3468.9897L13514.477,-3469.0214L13514.4847,-3468.9972L13514.4908,-3468.9781L13514.5018,-3468.9612L13514.5193,-3468.9421L13514.5329,-3468.918L13514.5471,-3468.9019L13514.55,-3468.8986L13514.5705,-3468.8832L13514.6086,-3468.8614L13514.6302,-3468.8555L13514.6474,-3468.8526L13514.6689,-3468.8489L13514.6959,-3468.8408L13514.7057,-3468.833L13514.7159,-3468.8145L13514.7232,-3468.7963L13514.7292,-3468.7832L13514.7383,-3468.775L13514.752,-3468.7675L13514.7835,-3468.7609L13514.7964,-3468.7597L13514.8115,-3468.7612L13514.8173,-3468.7628L13514.8177,-3468.7629L13514.8256,-3468.765L13514.8281,-3468.766L13514.8663,-3468.7816L13514.8732,-3468.7844L13514.878,-3468.7861L13514.9005,-3468.7938L13514.9051,-3468.7937L13514.9099,-3468.7935L13514.9088,-3468.7826L13514.8977,-3468.751L13514.8952,-3468.7437L13514.8845,-3468.7114L13514.8914,-3468.6923L13514.8916,-3468.6905L13514.894,-3468.6754L13514.8891,-3468.6522L13514.883,-3468.6359L13514.8815,-3468.6206L13514.8872,-3468.6097L13514.9043,-3468.5906L13514.9521,-3468.5476L13514.9676,-3468.5332L13514.9687,-3468.5311L13514.9722,-3468.5248L13514.9722,-3468.5242L13514.9725,-3468.5132L13514.9704,-3468.4999L13514.9667,-3468.4853L13514.9654,-3468.4801L13514.9639,-3468.4617L13514.9666,-3468.4472L13514.9711,-3468.4303L13514.9829,-3468.409L13514.9969,-3468.3997L13515,-3468.3968L13515.0163,-3468.3818L13515.0432,-3468.3608L13515.058,-3468.342L13515.0638,-3468.3333L13515.0663,-3468.3295L13515.0743,-3468.3178L13515.0824,-3468.3059L13515.1223,-3468.252L13515.1309,-3468.2383L13515.1427,-3468.2194L13515.1556,-3468.2L13515.1568,-3468.1928L13515.1576,-3468.179L13515.1585,-3468.1742L13515.1629,-3468.1519L13515.164,-3468.1466L13515.1678,-3468.1244L13515.1803,-3468.0927L13515.1857,-3468.0818L13515.1981,-3468.0567L13515.2085,-3468.0321L13515.211,-3468.026L13515.2106,-3468.0161L13515.2104,-3468.0099L13515.2073,-3467.9826L13515.2107,-3467.9779L13515.3484,-3467.9435L13515.3813,-3467.9354L13515.4056,-3467.9294L13515.4125,-3467.9258L13515.4158,-3467.9241L13515.4246,-3467.9159L13515.431,-3467.9012L13515.4333,-3467.8796L13515.4333,-3467.8671L13515.4295,-3467.8617L13515.4128,-3467.853L13515.3942,-3467.8432L13515.3881,-3467.8339L13515.3874,-3467.8276L13515.3889,-3467.8202L13515.3965,-3467.8083L13515.4029,-3467.7983L13515.4044,-3467.787L13515.4041,-3467.7717L13515.4022,-3467.7504L13515.4037,-3467.741L13515.4124,-3467.7272L13515.4234,-3467.7144L13515.4356,-3467.7109L13515.4667,-3467.7078L13515.4834,-3467.7037L13515.4932,-3467.6997L13515.4985,-3467.6994L13515.5315,-3467.7066L13515.549,-3467.7125L13515.5535,-3467.7169L13515.5571,-3467.7263L13515.5611,-3467.7366L13515.5649,-3467.7529L13515.5698,-3467.7576L13515.5808,-3467.7566L13515.5911,-3467.7494L13515.5926,-3467.7404L13515.5918,-3467.7386L13515.5869,-3467.7279L13515.5798,-3467.7136L13515.5774,-3467.7087L13515.5774,-3467.7025L13515.5816,-3467.6934L13515.5983,-3467.6743L13515.6451,-3467.5982L13515.5884,-3467.5L13515.5788,-3467.4833L13515.5714,-3467.4707L13515.6407,-3467.3988L13515.6458,-3467.3936L13515.6797,-3467.3587L13515.6841,-3467.3542L13515.7512,-3467.2852L13513.1836,-3467.2852L13513.1836,-3467.7534L13513.1851,-3467.7553L13513.1948,-3467.7731L13513.2096,-3467.8187L13513.2118,-3467.8474L13513.2107,-3467.8652L13513.2147,-3467.8793L13513.2272,-3467.8976L13513.2277,-3467.9089L13513.2221,-3467.9211L13513.2158,-3467.9361L13513.2158,-3467.9502L13513.2209,-3467.9822L13513.2209,-3467.9972L13513.2171,-3468.0121L13513.2164,-3468.0148L13513.2107,-3468.0402L13513.1993,-3468.0651L13513.1836,-3468.08L13513.1836,-3469.3553L13513.1846,-3469.356L13513.1857,-3469.3568L13513.1943,-3469.3628L13513.2094,-3469.3734L13513.2129,-3469.3759L13513.2693,-3469.413L13513.2966,-3469.4219L13513.3307,-3469.4247L13513.3333,-3469.4244L13513.3563,-3469.4214L13513.3727,-3469.4153L13513.3869,-3469.4036L13513.3876,-3469.4031L13513.4104,-3469.3881L13513.4353,-3469.3716L13513.4689,-3469.3576L13513.5127,-3469.351Z"/>
<path content="兵庫県,,,神戸市,須磨区,28107" xlink:title="兵庫県" d="M13513.1836,-3467.2852L13513.1836,-3468.08L13513.1993,-3468.0651L13513.2107,-3468.0402L13513.2164,-3468.0148L13513.2171,-3468.0121L13513.2209,-3467.9972L13513.2209,-3467.9822L13513.2158,-3467.9502L13513.2158,-3467.9361L13513.2221,-3467.9211L13513.2277,-3467.9089L13513.2272,-3467.8976L13513.2147,-3467.8793L13513.2107,-3467.8652L13513.2118,-3467.8474L13513.2096,-3467.8187L13513.1948,-3467.7731L13513.1851,-3467.7553L13513.1836,-3467.7534L13513.1836,-3467.2852Z"/>
<path content="兵庫県,,,神戸市,北区,28109" xlink:title="兵庫県" d="M13516.9662,-3471.6797L13516.9675,-3471.6667L13516.9806,-3471.5344L13516.9914,-3471.4543L13516.9733,-3471.4482L13516.9522,-3471.4332L13516.9521,-3471.4331L13516.9317,-3471.4031L13516.9238,-3471.3824L13516.9192,-3471.3646L13516.9209,-3471.3463L13516.9169,-3471.3232L13516.9113,-3471.304L13516.9033,-3471.2871L13516.8931,-3471.2679L13516.8737,-3471.2514L13516.8384,-3471.2337L13516.8134,-3471.2229L13516.8043,-3471.2158L13516.7958,-3471.2027L13516.7884,-3471.1876L13516.7759,-3471.1764L13516.7645,-3471.1679L13516.7571,-3471.1548L13516.7503,-3471.135L13516.7315,-3471.1097L13516.7264,-3471.1012L13516.7053,-3471.0895L13516.6815,-3471.0759L13516.6667,-3471.0717L13516.6633,-3471.0707L13516.6468,-3471.0702L13516.6257,-3471.0641L13516.6138,-3471.0552L13516.5973,-3471.0355L13516.5848,-3471.0248L13516.5614,-3471.0088L13516.5449,-3471.0027L13516.4926,-3470.9896L13516.4738,-3470.9797L13516.4619,-3470.967L13516.4471,-3470.9576L13516.4374,-3470.9454L13516.4301,-3470.9369L13516.421,-3470.9342L13516.4164,-3470.9327L13516.3936,-3470.9233L13516.3749,-3470.9167L13516.359,-3470.9121L13516.3481,-3470.9046L13516.3419,-3470.9003L13516.3226,-3470.8914L13516.3066,-3470.8787L13516.2896,-3470.8669L13516.285,-3470.8552L13516.2805,-3470.843L13516.2781,-3470.8409L13516.2693,-3470.8333L13516.2691,-3470.8331L13516.2475,-3470.8167L13516.2474,-3470.8166L13516.2293,-3470.8002L13516.2025,-3470.7904L13516.1866,-3470.7894L13516.1781,-3470.7988L13516.1769,-3470.8115L13516.1815,-3470.8327L13516.1818,-3470.8333L13516.1997,-3470.8679L13516.2071,-3470.8815L13516.2082,-3470.8966L13516.2025,-3470.9252L13516.1849,-3470.9609L13516.1718,-3470.9741L13516.1519,-3470.9825L13516.1337,-3470.9877L13516.1161,-3470.9844L13516.0922,-3470.9741L13516.0552,-3470.9482L13516.0475,-3470.9405L13516.0416,-3470.9346L13516.0387,-3470.9247L13516.0402,-3470.9222L13516.0473,-3470.9102L13516.0757,-3470.8867L13516.0779,-3470.8764L13516.0706,-3470.8604L13516.0562,-3470.8333L13516.0364,-3470.796L13516.0097,-3470.7481L13516.0057,-3470.7318L13516.0046,-3470.7187L13516.0131,-3470.7036L13516.0251,-3470.6801L13515.9847,-3470.6693L13515.9693,-3470.6661L13515.9432,-3470.6684L13515.9102,-3470.6717L13515.8829,-3470.6689L13515.8652,-3470.6585L13515.8527,-3470.643L13515.8396,-3470.6364L13515.8333,-3470.6338L13515.8186,-3470.6275L13515.805,-3470.6192L13515.7987,-3470.6153L13515.7907,-3470.6059L13515.7754,-3470.5984L13515.7555,-3470.5942L13515.7276,-3470.5937L13515.7111,-3470.5881L13515.6917,-3470.5796L13515.6764,-3470.5763L13515.6297,-3470.5806L13515.6002,-3470.581L13515.5808,-3470.5787L13515.574,-3470.5707L13515.5689,-3470.5542L13515.5626,-3470.5434L13515.5586,-3470.5401L13515.5535,-3470.5359L13515.5279,-3470.5209L13515.5018,-3470.5129L13515.4722,-3470.5002L13515.4523,-3470.4908L13515.4153,-3470.4759L13515.3772,-3470.46L13515.3328,-3470.4332L13515.3089,-3470.4172L13515.2868,-3470.4008L13515.2606,-3470.3759L13515.239,-3470.3505L13515.21,-3470.3153L13515.1833,-3470.2918L13515.1491,-3470.2711L13515.1144,-3470.2487L13515.0928,-3470.236L13515.0775,-3470.2191L13515.0723,-3470.205L13515.0706,-3470.1872L13515.0644,-3470.1736L13515.049,-3470.1548L13515.0126,-3470.1242L13515,-3470.1149L13514.9847,-3470.1036L13514.9802,-3470.0995L13514.9409,-3470.0636L13514.8673,-3470.0098L13514.8664,-3470.0092L13514.8605,-3470.0046L13514.8545,-3470L13514.8323,-3469.983L13514.8244,-3469.9722L13514.8198,-3469.9675L13514.8232,-3469.9628L13514.8261,-3469.9601L13514.8391,-3469.9477L13514.8431,-3469.9365L13514.8426,-3469.9289L13514.8395,-3469.9271L13514.8334,-3469.9233L13514.8079,-3469.9172L13514.7998,-3469.9164L13514.7663,-3469.913L13514.7316,-3469.9139L13514.7134,-3469.9144L13514.713,-3469.9144L13514.6792,-3469.9112L13514.6725,-3469.9106L13514.6389,-3469.905L13514.5997,-3469.9045L13514.5706,-3469.9078L13514.5439,-3469.9172L13514.5178,-3469.9294L13514.4979,-3469.9327L13514.4808,-3469.9289L13514.47,-3469.9196L13514.4649,-3469.9059L13514.4616,-3469.8825L13514.4609,-3469.8773L13514.429,-3469.8082L13514.4053,-3469.7605L13514.3955,-3469.7406L13514.3836,-3469.7195L13514.3661,-3469.6882L13514.3329,-3469.6289L13514.3303,-3469.6266L13514.3136,-3469.6115L13514.2984,-3469.599L13514.2886,-3469.5909L13514.2652,-3469.5782L13514.2459,-3469.5744L13514.23,-3469.5721L13514.2146,-3469.5613L13514.2004,-3469.5529L13514.1953,-3469.5521L13514.1867,-3469.5564L13514.181,-3469.5618L13514.1833,-3469.5759L13514.196,-3469.5968L13514.2004,-3469.604L13514.2117,-3469.627L13514.2112,-3469.6415L13514.2112,-3469.6421L13514.1998,-3469.6571L13514.1776,-3469.6717L13514.1667,-3469.6745L13514.1486,-3469.6792L13514.1253,-3469.6773L13514.0934,-3469.6665L13514.0934,-3469.6665L13514.08,-3469.6571L13514.0519,-3469.6374L13513.8807,-3469.5242L13513.8801,-3469.5236L13513.8677,-3469.5122L13513.8619,-3469.5069L13513.8551,-3469.4961L13513.854,-3469.4783L13513.8568,-3469.4529L13513.8511,-3469.4388L13513.8187,-3469.4144L13513.7892,-3469.3889L13513.7812,-3469.382L13513.7769,-3469.3816L13513.7751,-3469.3814L13513.7425,-3469.3782L13513.6669,-3469.3655L13513.5833,-3469.3514L13513.5514,-3469.3486L13513.5127,-3469.351L13513.4689,-3469.3576L13513.4353,-3469.3716L13513.4104,-3469.3881L13513.3876,-3469.4031L13513.3869,-3469.4036L13513.3727,-3469.4153L13513.3563,-3469.4214L13513.3333,-3469.4244L13513.3307,-3469.4247L13513.2966,-3469.4219L13513.2693,-3469.413L13513.2129,-3469.3759L13513.2094,-3469.3734L13513.1943,-3469.3628L13513.1857,-3469.3568L13513.1846,-3469.356L13513.1836,-3469.3553L13513.1836,-3471.6797Z"/>
<path content="兵庫県,,,神戸市,中央区,28110" xlink:title="兵庫県" d="M13517.5781,-3471.6797L13517.5781,-3467.598L13517.5775,-3467.5982L13517.5654,-3467.6021L13517.5775,-3467.6291L13517.5738,-3467.6312L13517.5684,-3467.6344L13517.5601,-3467.6394L13517.5504,-3467.6452L13517.5453,-3467.6487L13517.5351,-3467.6555L13517.5196,-3467.6706L13517.5169,-3467.6732L13517.5161,-3467.674L13517.5,-3467.6898L13517.493,-3467.6966L13517.4885,-3467.7009L13517.4849,-3467.7042L13517.458,-3467.7298L13517.4544,-3467.7333L13517.451,-3467.7365L13517.4176,-3467.7683L13517.4135,-3467.7722L13517.4099,-3467.7756L13517.3774,-3467.8064L13517.3738,-3467.8099L13517.3487,-3467.8336L13517.4277,-3467.8787L13517.4403,-3467.8859L13517.461,-3467.8978L13517.4376,-3467.9218L13517.4362,-3467.9232L13517.4186,-3467.9413L13517.4127,-3467.9473L13517.3848,-3467.9759L13517.3803,-3467.9806L13517.3374,-3468.0246L13517.3331,-3468.0291L13517.3296,-3468.0327L13517.277,-3468.0868L13517.26,-3468.104L13517.256,-3468.108L13517.2532,-3468.1109L13517.2319,-3468.1323L13517.2034,-3468.1614L13517.1994,-3468.1654L13517.1965,-3468.1683L13517.1738,-3468.1913L13517.1629,-3468.2027L13517.1507,-3468.2153L13517.1501,-3468.2159L13517.1262,-3468.2406L13517.1251,-3468.2419L13517.1071,-3468.2635L13517.0978,-3468.2745L13517.087,-3468.2942L13517.0835,-3468.3004L13517.0814,-3468.3043L13517.0779,-3468.3106L13517.067,-3468.3333L13517.0635,-3468.3406L13517.0531,-3468.3678L13517.0479,-3468.3812L13517.0417,-3468.4006L13517.0244,-3468.4329L13517.0182,-3468.4569L13517.0126,-3468.4844L13517.0019,-3468.5118L13516.964,-3468.6247L13517.0152,-3468.6462L13517.0201,-3468.6482L13517.0249,-3468.6503L13517.0331,-3468.6537L13517.0528,-3468.662L13517.1235,-3468.6941L13517.1283,-3468.6963L13517.1295,-3468.6968L13517.1313,-3468.7015L13517.1389,-3468.7218L13517.149,-3468.7477L13517.1569,-3468.7585L13517.1705,-3468.7698L13517.195,-3468.7843L13517.1971,-3468.7851L13517.2025,-3468.7872L13517.2073,-3468.7891L13517.2117,-3468.7908L13517.2197,-3468.7909L13517.2325,-3468.7911L13517.2355,-3468.7908L13517.2455,-3468.7898L13517.2506,-3468.7893L13517.2596,-3468.7884L13517.2687,-3468.7905L13517.2887,-3468.8067L13517.2844,-3468.8078L13517.2727,-3468.8097L13517.2661,-3468.8172L13517.2652,-3468.8258L13517.2678,-3468.8299L13517.2746,-3468.8411L13517.2776,-3468.8535L13517.2766,-3468.8624L13517.2721,-3468.8681L13517.2655,-3468.8764L13517.2508,-3468.8864L13517.2374,-3468.8891L13517.2273,-3468.888L13517.197,-3468.8756L13517.1869,-3468.8732L13517.1748,-3468.8702L13517.1728,-3468.8706L13517.17,-3468.871L13517.1683,-3468.8713L13517.1681,-3468.875L13517.1679,-3468.8794L13517.1721,-3468.8898L13517.1725,-3468.8907L13517.1948,-3468.9092L13517.1983,-3468.912L13517.2136,-3468.9236L13517.2213,-3468.9295L13517.2345,-3468.9395L13517.246,-3468.9457L13517.2504,-3468.9481L13517.2546,-3468.9503L13517.2616,-3468.9541L13517.2655,-3468.9562L13517.2666,-3468.9568L13517.2821,-3468.9648L13517.2821,-3468.9648L13517.3034,-3468.9818L13517.3173,-3468.9884L13517.3381,-3468.9982L13517.3396,-3468.9989L13517.3936,-3469.0262L13517.3957,-3469.0272L13517.4186,-3469.0415L13517.4335,-3469.0564L13517.4383,-3469.0611L13517.443,-3469.0658L13517.471,-3469.0989L13517.4711,-3469.0989L13517.4966,-3469.1331L13517.5,-3469.1376L13517.5099,-3469.1508L13517.5257,-3469.1667L13517.5311,-3469.1721L13517.5357,-3469.175L13517.5442,-3469.1802L13517.5536,-3469.1853L13517.5586,-3469.188L13517.5753,-3469.1919L13517.5781,-3469.1925L13517.5781,-3469.2225L13517.5744,-3469.2214L13517.5624,-3469.2439L13517.5583,-3469.2515L13517.5474,-3469.2668L13517.5285,-3469.2929L13517.5156,-3469.3194L13517.5124,-3469.3258L13517.5781,-3469.3454L13517.5781,-3469.4698L13517.5,-3469.4538L13517.3908,-3469.4316L13517.3705,-3469.4312L13517.3516,-3469.43L13517.317,-3469.4233L13517.3033,-3469.423L13517.3,-3469.4229L13517.2929,-3469.4257L13517.2919,-3469.4335L13517.2943,-3469.4546L13517.3061,-3469.4902L13517.317,-3469.546L13517.3208,-3469.5574L13517.3326,-3469.5687L13517.343,-3469.5792L13517.3487,-3469.5914L13517.352,-3469.6088L13517.3539,-3469.6323L13517.361,-3469.6522L13517.3672,-3469.6679L13517.3795,-3469.6787L13517.3903,-3469.6928L13517.3937,-3469.7022L13517.4003,-3469.7225L13517.4121,-3469.7374L13517.4206,-3469.7522L13517.4235,-3469.7624L13517.4263,-3469.7745L13517.4315,-3469.7925L13517.4457,-3469.8142L13517.4675,-3469.8377L13517.4703,-3469.849L13517.4694,-3469.8604L13517.4613,-3469.8693L13517.4457,-3469.8756L13517.4381,-3469.8811L13517.4348,-3469.8924L13517.4341,-3469.8994L13517.4324,-3469.9154L13517.4315,-3469.9334L13517.4249,-3469.9439L13517.414,-3469.9576L13517.4083,-3469.9686L13517.4083,-3469.9787L13517.4145,-3469.9987L13517.4146,-3470L13517.4168,-3470.0165L13517.4131,-3470.0271L13517.4074,-3470.0404L13517.4069,-3470.0544L13517.4121,-3470.0755L13517.4149,-3470.0857L13517.4386,-3470.1127L13517.4552,-3470.1353L13517.4582,-3470.1398L13517.4632,-3470.147L13517.4646,-3470.1611L13517.4623,-3470.1728L13517.4566,-3470.1806L13517.4381,-3470.1884L13517.4324,-3470.1966L13517.431,-3470.2041L13517.4358,-3470.2185L13517.4348,-3470.2275L13517.432,-3470.2388L13517.4221,-3470.2681L13517.4216,-3470.2899L13517.4219,-3470.3007L13517.4221,-3470.3056L13517.4252,-3470.3138L13517.4296,-3470.3255L13517.4341,-3470.3374L13517.4367,-3470.3442L13517.4424,-3470.3642L13517.4542,-3470.3907L13517.4632,-3470.4161L13517.4627,-3470.4282L13517.4594,-3470.4383L13517.4377,-3470.4516L13517.4235,-3470.4649L13517.4192,-3470.4797L13517.4164,-3470.5059L13517.4093,-3470.5317L13517.3989,-3470.5571L13517.3861,-3470.5715L13517.3596,-3470.5899L13517.343,-3470.604L13517.3321,-3470.6241L13517.3241,-3470.6397L13517.3208,-3470.66L13517.3208,-3470.6862L13517.3189,-3470.7249L13517.3184,-3470.7346L13517.3156,-3470.7471L13517.3089,-3470.7553L13517.2967,-3470.7581L13517.281,-3470.7573L13517.255,-3470.7495L13517.2404,-3470.7456L13517.2271,-3470.7475L13517.2086,-3470.753L13517.1973,-3470.7604L13517.1845,-3470.7737L13517.1722,-3470.7917L13517.1679,-3470.8107L13517.1675,-3470.8217L13517.1766,-3470.8333L13517.1769,-3470.8338L13517.1869,-3470.858L13517.1888,-3470.876L13517.1821,-3470.8912L13517.1713,-3470.9041L13517.1684,-3470.915L13517.1667,-3470.9239L13517.1661,-3470.9275L13517.1594,-3470.9439L13517.1486,-3470.9502L13517.1235,-3470.9678L13517.1183,-3470.9811L13517.1206,-3470.9936L13517.1225,-3470.9961L13517.1303,-3471.0062L13517.1359,-3471.0278L13517.1371,-3471.0447L13517.1322,-3471.0666L13517.1274,-3471.088L13517.1206,-3471.1011L13517.1052,-3471.1175L13517.0745,-3471.1359L13517.0614,-3471.1486L13517.0517,-3471.165L13517.0404,-3471.1969L13517.0296,-3471.211L13517.0171,-3471.219L13517.0034,-3471.2226L13516.9954,-3471.2287L13516.9926,-3471.2381L13516.9897,-3471.2621L13516.9886,-3471.2856L13516.9897,-3471.3025L13516.9977,-3471.3283L13517.0011,-3471.3541L13517.0017,-3471.3762L13517,-3471.3974L13516.9962,-3471.4222L13516.9926,-3471.4457L13516.9914,-3471.4543L13516.9806,-3471.5344L13516.9675,-3471.6667L13516.9662,-3471.6797Z"/>
</g>
</svg>
