<?xml version="1.0" encoding="UTF-8"?>
<svg  xmlns="http://www.w3.org/2000/svg" xmlns:xlink="http://www.w3.org/1999/xlink" xmlns:go="http://purl.org/svgmap/profile" property="geometry,N03_001,N03_002,N03_003,N03_004,N03_005,N03_007" viewBox="13447.265625 -3480.46875 4.39453125 4.39453125" go:dataArea="13447.265625 -3480.46875 4.39453125 4.39453125" >
<metadata>
 <rdf:RDF xmlns:rdf="http://www.w3.org/1999/02/22-rdf-syntax-ns#" xmlns:crs="http://opengis.org/xmldtds/transformations.dtd" xmlns:svg="http://www.w3.org/svg" >
  <rdf:Description>
   <crs:CoordinateReferenceSystem rdf:resource="http://purl.org/crs/84" svg:transform="matrix(100.0,0.0,0.0,-100.0,0.0,0.0)" />
  </rdf:Description>
 </rdf:RDF>
</metadata>
<globalCoordinateSystem srsName="http://purl.org/crs/84" transform="matrix(100.0,0.0,0.0,-100.0,0.0,0.0)" />
<defs>
 <g id="p0" >
  <circle cx="0.0" cy="0.0" r="3" stroke="green" stroke-width="2.0" vector-effect="non-scaling-stroke" />
 </g>
</defs>
<g fill="#0000ff" fill-rule="evenodd" opacity="0.5" >
<path content="兵庫県,,,相生市,,28208" xlink:title="兵庫県" d="M13450.1916,-3480.4688L13450.1912,-3480.4648L13450.1918,-3480.4176L13450.1971,-3480.397L13450.2034,-3480.3726L13450.2044,-3480.3687L13450.2082,-3480.3528L13450.2098,-3480.3376L13450.2071,-3480.3161L13450.1944,-3480.2728L13450.1995,-3480.1751L13450.1417,-3480.1601L13450.1395,-3480.1595L13450.1187,-3480.1489L13450.0998,-3480.1347L13450.0808,-3480.1044L13450.07,-3480.079L13450.0633,-3480.0564L13450.0592,-3480.0428L13450.0589,-3480.0419L13450.0582,-3480.0395L13450.047,-3480.0237L13450.0227,-3480.0153L13450.0157,-3480.0129L13450.0107,-3480.0112L13450,-3480.0092L13449.9618,-3480.0021L13449.9402,-3480.0012L13449.9363,-3480L13449.9295,-3479.9979L13449.9157,-3479.9879L13449.9174,-3479.8856L13449.9152,-3479.8645L13449.9148,-3479.8609L13449.9074,-3479.8343L13449.8895,-3479.8092L13449.8755,-3479.8007L13449.8533,-3479.7895L13449.8238,-3479.7899L13449.8045,-3479.7879L13449.7833,-3479.782L13449.772,-3479.762L13449.7691,-3479.6986L13449.767,-3479.6367L13449.7789,-3479.5809L13449.7903,-3479.5352L13449.7919,-3479.492L13449.7931,-3479.4274L13449.8012,-3479.3798L13449.8017,-3479.3754L13449.8021,-3479.3705L13449.8035,-3479.356L13449.8092,-3479.3301L13449.8195,-3479.3171L13449.8291,-3479.3084L13449.8657,-3479.2871L13449.8951,-3479.2644L13449.9121,-3479.2421L13449.9502,-3479.1667L13449.951,-3479.1651L13449.9613,-3479.1493L13449.9783,-3479.1323L13449.9926,-3479.1102L13449.9959,-3479.1017L13449.9966,-3479.0902L13449.9976,-3479.0759L13450,-3479.0645L13450.0015,-3479.0573L13450.0022,-3479.036L13450.004,-3479.022L13450.0041,-3479.0216L13450.0049,-3479.0154L13450.0085,-3479.0061L13450.0087,-3479.006L13450.0087,-3479.006L13450.0178,-3478.9982L13450.0424,-3478.9884L13450.0637,-3478.9742L13450.0812,-3478.9562L13450.1103,-3478.922L13450.1226,-3478.9059L13450.1342,-3478.8818L13450.1349,-3478.8799L13450.1363,-3478.8754L13450.1385,-3478.8685L13450.1446,-3478.8557L13450.1471,-3478.8504L13450.1682,-3478.8058L13450.1891,-3478.7692L13450.1944,-3478.7566L13450.2083,-3478.7239L13450.2214,-3478.6702L13450.2296,-3478.6486L13450.2326,-3478.6407L13450.272,-3478.5825L13450.2846,-3478.5639L13450.2849,-3478.5635L13450.2958,-3478.5339L13450.2977,-3478.4875L13450.2943,-3478.4529L13450.282,-3478.4189L13450.2754,-3478.4063L13450.2743,-3478.4044L13450.2711,-3478.3984L13450.2638,-3478.3867L13450.2582,-3478.3779L13450.252,-3478.3681L13450.2197,-3478.3519L13450.2064,-3478.3467L13450.1879,-3478.3431L13450.1831,-3478.3421L13450.1734,-3478.34L13450.1469,-3478.3341L13450.1444,-3478.3333L13450.1344,-3478.3305L13450.1052,-3478.3223L13450.0304,-3478.3032L13450,-3478.2982L13449.9597,-3478.2916L13449.9427,-3478.2872L13449.9308,-3478.2774L13449.9209,-3478.2663L13449.9012,-3478.2311L13449.8331,-3478.059L13449.7284,-3477.9989L13449.6804,-3477.9793L13449.6376,-3477.9568L13449.6037,-3477.935L13449.5815,-3477.9287L13449.5417,-3477.923L13449.4488,-3477.9083L13449.3762,-3477.8924L13449.3463,-3477.8902L13449.3234,-3477.8959L13449.2943,-3477.909L13449.2758,-3477.9104L13449.2498,-3477.905L13449.2056,-3477.8873L13449.1778,-3477.8743L13449.1667,-3477.8707L13449.1457,-3477.8638L13449.1271,-3477.859L13449.105,-3477.8497L13449.0756,-3477.8298L13449.0577,-3477.7996L13449.0395,-3477.7807L13449.0203,-3477.7716L13448.9706,-3477.7526L13448.9267,-3477.7324L13448.8916,-3477.7081L13448.8775,-3477.692L13448.857,-3477.673L13448.836,-3477.661L13448.8156,-3477.6508L13448.7943,-3477.6416L13448.7732,-3477.6365L13448.7728,-3477.6364L13448.708,-3477.6371L13448.6553,-3477.6409L13448.6031,-3477.6415L13448.5811,-3477.6424L13448.5674,-3477.6406L13448.5545,-3477.6371L13448.5046,-3477.6122L13448.4539,-3477.6116L13448.4158,-3477.6105L13448.3565,-3477.607L13448.3333,-3477.606L13448.3227,-3477.6056L13448.2914,-3477.601L13448.2726,-3477.5964L13448.2503,-3477.5829L13448.2388,-3477.556L13448.2172,-3477.5206L13448.2112,-3477.5L13448.2103,-3477.4971L13448.2026,-3477.4802L13448.1907,-3477.4672L13448.1624,-3477.4496L13448.1024,-3477.4042L13448.0866,-3477.3813L13448.0718,-3477.3511L13448.0611,-3477.3314L13448.0522,-3477.2913L13448.0453,-3477.2681L13448.0384,-3477.2438L13448.0324,-3477.2326L13448.0196,-3477.2248L13447.9655,-3477.2161L13447.9649,-3477.2159L13447.9043,-3477.2048L13447.7471,-3477.1742L13447.6904,-3477.1597L13447.6677,-3477.1524L13447.6523,-3477.1446L13447.6378,-3477.1334L13447.6296,-3477.1094L13447.6254,-3476.9814L13447.6275,-3476.9631L13447.6476,-3476.9153L13447.6506,-3476.9026L13447.643,-3476.8511L13447.6309,-3476.8115L13447.6249,-3476.782L13447.6215,-3476.7531L13447.6207,-3476.7401L13447.6104,-3476.73L13447.5988,-3476.7187L13447.5941,-3476.7102L13447.5958,-3476.7036L13447.6477,-3476.6667L13447.6663,-3476.6534L13447.6731,-3476.6433L13447.6778,-3476.6366L13447.6868,-3476.6042L13447.6883,-3476.6021L13447.6949,-3476.5922L13447.7238,-3476.5666L13447.7583,-3476.5359L13447.7737,-3476.5166L13447.7789,-3476.5036L13447.7793,-3476.4801L13447.7716,-3476.4626L13447.7624,-3476.4499L13447.7433,-3476.4276L13447.7352,-3476.4114L13447.7292,-3476.4002L13447.7151,-3476.3886L13447.6988,-3476.3784L13447.6821,-3476.3619L13447.6731,-3476.3393L13447.6671,-3476.3228L13447.6528,-3476.2878L13447.622,-3476.2389L13447.6125,-3476.2273L13447.6023,-3476.2164L13447.577,-3476.202L13447.5621,-3476.1971L13447.5535,-3476.1932L13447.5374,-3476.1904L13447.5276,-3476.1862L13447.5229,-3476.1784L13447.5242,-3476.1686L13447.5512,-3476.1458L13447.5826,-3476.1037L13447.5846,-3476.1008L13447.6015,-3476.0762L13447.6029,-3476.0742L13447.2823,-3476.0742L13447.2817,-3476.0755L13447.2786,-3476.0789L13447.2739,-3476.084L13447.2717,-3476.0873L13447.2706,-3476.0905L13447.2707,-3476.0994L13447.2707,-3476.1098L13447.2716,-3476.1169L13447.2729,-3476.1244L13447.2734,-3476.1298L13447.2733,-3476.1377L13447.2739,-3476.1464L13447.2757,-3476.1555L13447.2776,-3476.1647L13447.2789,-3476.1714L13447.2792,-3476.1767L13447.2795,-3476.1813L13447.2803,-3476.1951L13447.2809,-3476.2066L13447.2807,-3476.2108L13447.2798,-3476.2175L13447.2783,-3476.2251L13447.2761,-3476.2314L13447.2731,-3476.2384L13447.2689,-3476.2475L13447.2661,-3476.2515L13447.2656,-3476.2521L13447.2656,-3478.451L13447.3384,-3478.451L13447.3384,-3478.4519L13447.3332,-3478.452L13447.3332,-3478.4533L13447.3111,-3478.4535L13447.3135,-3478.5143L13447.3453,-3478.5141L13447.3453,-3478.5057L13447.3658,-3478.5054L13447.3648,-3478.46L13447.3522,-3478.4603L13447.3526,-3478.4516L13447.3403,-3478.4517L13447.3403,-3478.451L13447.4791,-3478.451L13447.4791,-3478.4514L13447.4792,-3478.4587L13447.4787,-3478.4588L13447.4777,-3478.5574L13447.4786,-3478.5583L13447.4803,-3478.5585L13447.4816,-3478.5574L13447.4817,-3478.4592L13447.4815,-3478.4587L13447.4806,-3478.4587L13447.481,-3478.4512L13447.481,-3478.451L13447.4815,-3478.4506L13447.4865,-3478.4507L13447.5,-3478.4507L13447.5211,-3478.4508L13447.5218,-3478.4585L13447.5207,-3478.4592L13447.521,-3478.4959L13447.5202,-3478.5572L13447.5209,-3478.5583L13447.5233,-3478.5583L13447.5246,-3478.5576L13447.5246,-3478.459L13447.5238,-3478.459L13447.5235,-3478.4506L13447.5387,-3478.4502L13447.5407,-3478.4522L13447.5446,-3478.4541L13447.5584,-3478.4547L13447.5585,-3478.4588L13447.5574,-3478.4591L13447.5583,-3478.4969L13447.5578,-3478.5577L13447.5584,-3478.5588L13447.5604,-3478.5588L13447.5617,-3478.5579L13447.5617,-3478.46L13447.5613,-3478.4586L13447.5606,-3478.4581L13447.5604,-3478.4542L13447.5955,-3478.4543L13447.5951,-3478.5587L13447.5981,-3478.5589L13447.5987,-3478.558L13447.5992,-3478.4596L13447.5977,-3478.4586L13447.5979,-3478.4541L13447.5992,-3478.4544L13447.6018,-3478.4562L13447.6029,-3478.4586L13447.6049,-3478.4639L13447.6083,-3478.4696L13447.6125,-3478.4725L13447.6159,-3478.4727L13447.6227,-3478.4746L13447.6259,-3478.4771L13447.6274,-3478.4795L13447.6303,-3478.4854L13447.6318,-3478.4898L13447.6361,-3478.495L13447.6429,-3478.5004L13447.6533,-3478.5072L13447.6605,-3478.5129L13447.6661,-3478.5193L13447.6722,-3478.5234L13447.6813,-3478.5272L13447.6887,-3478.5313L13447.6989,-3478.5366L13447.7086,-3478.5436L13447.7195,-3478.5541L13447.7249,-3478.5609L13447.7171,-3478.5713L13447.7087,-3478.5826L13447.6865,-3478.6103L13447.6859,-3478.6111L13447.684,-3478.6135L13447.6521,-3478.6549L13447.6404,-3478.6706L13447.6362,-3478.6692L13447.6319,-3478.6751L13447.6357,-3478.677L13447.6084,-3478.7138L13447.6058,-3478.7176L13447.6045,-3478.7204L13447.6041,-3478.7258L13447.6057,-3478.7264L13447.6441,-3478.7314L13447.7015,-3478.738L13447.714,-3478.7395L13447.7188,-3478.7402L13447.7246,-3478.7402L13447.7274,-3478.7408L13447.7339,-3478.7416L13447.7343,-3478.7419L13447.7342,-3478.7428L13447.734,-3478.743L13447.7324,-3478.7431L13447.7233,-3478.7437L13447.7177,-3478.743L13447.7135,-3478.743L13447.6969,-3478.7448L13447.6737,-3478.7479L13447.6425,-3478.7527L13447.6093,-3478.7584L13447.5627,-3478.7664L13447.5,-3478.7774L13447.4921,-3478.7788L13447.487,-3478.7796L13447.4575,-3478.7847L13447.4329,-3478.789L13447.4189,-3478.7907L13447.4076,-3478.7928L13447.4014,-3478.7941L13447.3924,-3478.7969L13447.384,-3478.7998L13447.3745,-3478.8038L13447.3476,-3478.8163L13447.3271,-3478.8261L13447.3007,-3478.8392L13447.2868,-3478.8463L13447.2673,-3478.8561L13447.2656,-3478.857L13447.2656,-3480.4688Z"/>
<path content="兵庫県,,,相生市,,28208" xlink:title="兵庫県" d="M13447.4133,-3478.4711L13447.4122,-3478.4519L13447.3768,-3478.4532L13447.3773,-3478.4725L13447.4133,-3478.4711Z"/>
<path content="兵庫県,,,たつの市,,28229" xlink:title="兵庫県" d="M13451.6602,-3480.4688L13451.6602,-3477.1703L13451.6597,-3477.1701L13451.6571,-3477.1695L13451.6546,-3477.1692L13451.6519,-3477.1685L13451.6494,-3477.1678L13451.6471,-3477.1672L13451.6444,-3477.1671L13451.6417,-3477.1672L13451.6389,-3477.1674L13451.6362,-3477.1673L13451.6359,-3477.1673L13451.6333,-3477.1667L13451.6308,-3477.1657L13451.6283,-3477.1646L13451.6276,-3477.1643L13451.6255,-3477.1628L13451.6235,-3477.1613L13451.6211,-3477.16L13451.6188,-3477.1593L13451.6168,-3477.1584L13451.6147,-3477.1574L13451.6125,-3477.1561L13451.6097,-3477.154L13451.6064,-3477.1515L13451.6037,-3477.1495L13451.6018,-3477.148L13451.5977,-3477.1444L13451.5942,-3477.1406L13451.5911,-3477.1371L13451.5877,-3477.1329L13451.5847,-3477.1287L13451.5823,-3477.1249L13451.5804,-3477.1215L13451.5789,-3477.1184L13451.5784,-3477.116L13451.5788,-3477.1139L13451.5803,-3477.1123L13451.5817,-3477.1099L13451.5833,-3477.1081L13451.5841,-3477.1075L13451.5863,-3477.106L13451.5883,-3477.1046L13451.5889,-3477.104L13451.5907,-3477.1023L13451.5924,-3477.1008L13451.5948,-3477.0998L13451.5973,-3477.0995L13451.6002,-3477.0997L13451.6005,-3477.0995L13451.6009,-3477.0974L13451.6008,-3477.0967L13451.6006,-3477.0944L13451.6007,-3477.0931L13451.6017,-3477.0909L13451.6021,-3477.0907L13451.6047,-3477.0905L13451.606,-3477.0905L13451.6084,-3477.0896L13451.6103,-3477.0882L13451.6119,-3477.0863L13451.6123,-3477.0856L13451.6124,-3477.0833L13451.6122,-3477.0823L13451.6114,-3477.0807L13451.6104,-3477.0786L13451.6092,-3477.0766L13451.6091,-3477.0765L13451.6073,-3477.0749L13451.6058,-3477.0739L13451.6036,-3477.0725L13451.6025,-3477.0713L13451.6017,-3477.0691L13451.6016,-3477.0691L13451.5994,-3477.068L13451.5965,-3477.0676L13451.5935,-3477.0678L13451.5931,-3477.0679L13451.591,-3477.0693L13451.5902,-3477.0699L13451.5881,-3477.0714L13451.5869,-3477.0723L13451.585,-3477.074L13451.5841,-3477.0754L13451.5841,-3477.0776L13451.5844,-3477.0788L13451.5848,-3477.0811L13451.5846,-3477.0823L13451.5827,-3477.0839L13451.5822,-3477.0841L13451.5795,-3477.0841L13451.5786,-3477.0839L13451.5757,-3477.0825L13451.5732,-3477.0817L13451.5706,-3477.0811L13451.5679,-3477.0806L13451.5672,-3477.0805L13451.5645,-3477.08L13451.5637,-3477.0797L13451.5618,-3477.0781L13451.5601,-3477.0762L13451.5601,-3477.0762L13451.5591,-3477.0746L13451.5605,-3477.0727L13451.5609,-3477.0722L13451.5617,-3477.0701L13451.5618,-3477.0687L13451.5614,-3477.0672L13451.5586,-3477.0674L13451.558,-3477.0674L13451.5583,-3477.0653L13451.5584,-3477.0635L13451.5581,-3477.0632L13451.5554,-3477.0634L13451.5545,-3477.0639L13451.5527,-3477.0657L13451.5522,-3477.0667L13451.5519,-3477.069L13451.5513,-3477.0704L13451.5491,-3477.0717L13451.549,-3477.0717L13451.5463,-3477.0713L13451.5456,-3477.071L13451.5432,-3477.0698L13451.5415,-3477.0684L13451.5402,-3477.0668L13451.5394,-3477.0645L13451.5389,-3477.0622L13451.5387,-3477.0612L13451.5386,-3477.0589L13451.5386,-3477.0585L13451.5385,-3477.0563L13451.5381,-3477.0548L13451.5365,-3477.053L13451.5345,-3477.0514L13451.5335,-3477.0509L13451.5308,-3477.0501L13451.53,-3477.05L13451.5273,-3477.0505L13451.5263,-3477.0506L13451.5247,-3477.0502L13451.5236,-3477.0482L13451.5228,-3477.0461L13451.5227,-3477.0458L13451.5213,-3477.0437L13451.5195,-3477.042L13451.519,-3477.0418L13451.5164,-3477.0416L13451.5145,-3477.0416L13451.5117,-3477.0414L13451.5106,-3477.0415L13451.51,-3477.0413L13451.5092,-3477.0395L13451.5091,-3477.0392L13451.5082,-3477.0374L13451.5064,-3477.0357L13451.506,-3477.0354L13451.5039,-3477.0336L13451.5017,-3477.0321L13451.5,-3477.0317L13451.4983,-3477.0324L13451.4959,-3477.0328L13451.4931,-3477.0326L13451.4917,-3477.0321L13451.4897,-3477.0306L13451.4881,-3477.0291L13451.4861,-3477.0274L13451.4853,-3477.0264L13451.4852,-3477.0243L13451.4848,-3477.0219L13451.484,-3477.0197L13451.4825,-3477.0179L13451.4825,-3477.0178L13451.4801,-3477.017L13451.4773,-3477.0168L13451.4764,-3477.0167L13451.4738,-3477.016L13451.4732,-3477.0158L13451.4705,-3477.0154L13451.4687,-3477.0161L13451.4668,-3477.0152L13451.4649,-3477.0135L13451.4635,-3477.0119L13451.4625,-3477.0098L13451.4622,-3477.0084L13451.4621,-3477.0061L13451.4622,-3477.0038L13451.462,-3477.0016L13451.4618,-3477.0009L13451.4603,-3476.9991L13451.4585,-3476.9974L13451.4579,-3476.9968L13451.4558,-3476.9953L13451.4537,-3476.9942L13451.451,-3476.9936L13451.4505,-3476.9935L13451.4479,-3476.9928L13451.4474,-3476.9926L13451.4447,-3476.9924L13451.4446,-3476.9924L13451.4428,-3476.9931L13451.4413,-3476.9944L13451.4393,-3476.9945L13451.4372,-3476.9955L13451.4356,-3476.9966L13451.4342,-3476.9966L13451.4336,-3476.9951L13451.434,-3476.9929L13451.4342,-3476.9914L13451.4358,-3476.9902L13451.4367,-3476.9892L13451.4367,-3476.9884L13451.4366,-3476.9875L13451.4345,-3476.9863L13451.433,-3476.9861L13451.4299,-3476.9858L13451.4299,-3476.9858L13451.4312,-3476.985L13451.4311,-3476.9837L13451.4299,-3476.9821L13451.4281,-3476.9804L13451.4261,-3476.9788L13451.4251,-3476.9783L13451.4238,-3476.9781L13451.4214,-3476.9791L13451.4214,-3476.9791L13451.4191,-3476.98L13451.4159,-3476.9806L13451.4148,-3476.9802L13451.4148,-3476.979L13451.4146,-3476.9777L13451.412,-3476.977L13451.4114,-3476.9771L13451.4086,-3476.9774L13451.4062,-3476.978L13451.4045,-3476.9787L13451.4027,-3476.9803L13451.4016,-3476.9825L13451.4016,-3476.9825L13451.4013,-3476.9845L13451.4,-3476.9848L13451.3971,-3476.9845L13451.3947,-3476.9835L13451.3942,-3476.9831L13451.393,-3476.9814L13451.391,-3476.98L13451.3886,-3476.9788L13451.3874,-3476.9783L13451.3851,-3476.9771L13451.3827,-3476.9759L13451.3804,-3476.9748L13451.3792,-3476.9743L13451.3766,-3476.9737L13451.3739,-3476.9732L13451.3716,-3476.9726L13451.3692,-3476.9715L13451.3669,-3476.9703L13451.3661,-3476.9699L13451.3639,-3476.9685L13451.3617,-3476.9671L13451.3602,-3476.9652L13451.3584,-3476.9629L13451.3572,-3476.9615L13451.3556,-3476.9596L13451.3546,-3476.9586L13451.3528,-3476.9569L13451.3509,-3476.9552L13451.3491,-3476.9535L13451.3478,-3476.9515L13451.3478,-3476.9513L13451.3477,-3476.95L13451.3491,-3476.9481L13451.3507,-3476.9467L13451.3535,-3476.9458L13451.3539,-3476.9451L13451.3538,-3476.9441L13451.3614,-3476.9403L13451.3609,-3476.9396L13451.3534,-3476.9433L13451.3534,-3476.9432L13451.3533,-3476.943L13451.3524,-3476.9419L13451.3517,-3476.9409L13451.3593,-3476.9367L13451.3587,-3476.9361L13451.3511,-3476.9401L13451.3507,-3476.9394L13451.3492,-3476.9382L13451.3574,-3476.9337L13451.3569,-3476.9331L13451.3485,-3476.9375L13451.348,-3476.937L13451.3478,-3476.9369L13451.3473,-3476.9369L13451.3455,-3476.9374L13451.3429,-3476.9387L13451.3402,-3476.9392L13451.3379,-3476.938L13451.3377,-3476.9378L13451.3363,-3476.9358L13451.3353,-3476.9337L13451.3348,-3476.9322L13451.334,-3476.9301L13451.3333,-3476.9279L13451.3326,-3476.9257L13451.3319,-3476.9232L13451.3313,-3476.921L13451.3309,-3476.9195L13451.3302,-3476.9173L13451.3298,-3476.916L13451.3296,-3476.9128L13451.3296,-3476.9127L13451.3308,-3476.9106L13451.3311,-3476.9103L13451.3335,-3476.9095L13451.3363,-3476.9092L13451.3389,-3476.9089L13451.3415,-3476.908L13451.3438,-3476.9068L13451.3454,-3476.9057L13451.3475,-3476.9042L13451.3488,-3476.9036L13451.3517,-3476.9035L13451.3537,-3476.9033L13451.3548,-3476.9016L13451.3552,-3476.8991L13451.3555,-3476.8982L13451.3565,-3476.896L13451.3575,-3476.8939L13451.3577,-3476.893L13451.3571,-3476.8909L13451.356,-3476.8887L13451.355,-3476.8866L13451.3549,-3476.8863L13451.3548,-3476.8841L13451.3552,-3476.8819L13451.3557,-3476.8796L13451.3562,-3476.8779L13451.357,-3476.8758L13451.3578,-3476.8745L13451.3593,-3476.8727L13451.359,-3476.8705L13451.3578,-3476.8688L13451.3562,-3476.8669L13451.3549,-3476.865L13451.3547,-3476.8638L13451.3564,-3476.8622L13451.3577,-3476.8601L13451.3579,-3476.8578L13451.3576,-3476.8555L13451.3566,-3476.8534L13451.3557,-3476.8525L13451.3532,-3476.8509L13451.3514,-3476.8493L13451.3514,-3476.849L13451.3528,-3476.8471L13451.3523,-3476.8453L13451.3504,-3476.8436L13451.3481,-3476.8418L13451.3467,-3476.8404L13451.3456,-3476.8383L13451.3456,-3476.838L13451.3466,-3476.8359L13451.3467,-3476.8358L13451.3483,-3476.8338L13451.3498,-3476.8318L13451.3503,-3476.8297L13451.3502,-3476.8296L13451.3487,-3476.8276L13451.3477,-3476.8272L13451.345,-3476.8272L13451.3442,-3476.8271L13451.3425,-3476.8262L13451.3419,-3476.8256L13451.3444,-3476.8246L13451.3446,-3476.8245L13451.3448,-3476.823L13451.3433,-3476.8209L13451.343,-3476.8208L13451.3403,-3476.8213L13451.3403,-3476.8213L13451.3387,-3476.8207L13451.3356,-3476.8169L13451.335,-3476.8165L13451.3323,-3476.8158L13451.3315,-3476.8153L13451.331,-3476.8134L13451.3322,-3476.8113L13451.3324,-3476.8109L13451.3338,-3476.809L13451.3351,-3476.807L13451.3361,-3476.8048L13451.3367,-3476.8027L13451.3372,-3476.8004L13451.3376,-3476.7987L13451.3384,-3476.7965L13451.3391,-3476.7943L13451.3393,-3476.7928L13451.3388,-3476.7906L13451.3384,-3476.7892L13451.3381,-3476.7874L13451.3368,-3476.7855L13451.335,-3476.7838L13451.334,-3476.7827L13451.3326,-3476.7806L13451.3319,-3476.7799L13451.3295,-3476.7794L13451.3265,-3476.7796L13451.3253,-3476.7797L13451.3225,-3476.7799L13451.3199,-3476.7803L13451.3187,-3476.7806L13451.3162,-3476.7815L13451.3138,-3476.7827L13451.3114,-3476.7837L13451.3095,-3476.7843L13451.3068,-3476.7842L13451.3041,-3476.7838L13451.3023,-3476.7835L13451.2997,-3476.7829L13451.2935,-3476.7818L13451.2908,-3476.7813L13451.2881,-3476.7811L13451.2873,-3476.7811L13451.2847,-3476.7814L13451.282,-3476.782L13451.2813,-3476.7822L13451.2787,-3476.7829L13451.2761,-3476.7836L13451.2736,-3476.7842L13451.2682,-3476.7851L13451.2662,-3476.7856L13451.2639,-3476.7867L13451.2617,-3476.788L13451.2599,-3476.789L13451.2575,-3476.7901L13451.256,-3476.7909L13451.2541,-3476.7926L13451.2533,-3476.7931L13451.2509,-3476.7936L13451.2493,-3476.7931L13451.2492,-3476.7909L13451.2481,-3476.7888L13451.246,-3476.7872L13451.245,-3476.7868L13451.2423,-3476.7865L13451.2421,-3476.7866L13451.2399,-3476.7878L13451.2381,-3476.7894L13451.2361,-3476.7909L13451.234,-3476.7924L13451.2318,-3476.7937L13451.2317,-3476.7938L13451.2294,-3476.7951L13451.2271,-3476.796L13451.2244,-3476.7963L13451.2217,-3476.7967L13451.2207,-3476.7969L13451.2182,-3476.7982L13451.2168,-3476.8001L13451.2169,-3476.8023L13451.2169,-3476.8025L13451.2157,-3476.8046L13451.2152,-3476.8056L13451.2153,-3476.8078L13451.2156,-3476.8101L13451.2155,-3476.8105L13451.2142,-3476.8125L13451.2131,-3476.8135L13451.2109,-3476.8149L13451.2085,-3476.8159L13451.2083,-3476.8159L13451.2056,-3476.816L13451.2038,-3476.8159L13451.2011,-3476.8163L13451.1984,-3476.8168L13451.1957,-3476.8172L13451.1953,-3476.8172L13451.1926,-3476.8171L13451.1899,-3476.8167L13451.1872,-3476.8164L13451.1859,-3476.8164L13451.1832,-3476.8166L13451.1805,-3476.8171L13451.1779,-3476.8177L13451.1752,-3476.8184L13451.1743,-3476.8187L13451.1718,-3476.8197L13451.1693,-3476.8206L13451.1691,-3476.8206L13451.1664,-3476.8208L13451.1636,-3476.8207L13451.1609,-3476.8207L13451.1606,-3476.8207L13451.158,-3476.8215L13451.1554,-3476.8223L13451.1543,-3476.8226L13451.1516,-3476.8227L13451.1501,-3476.8224L13451.1476,-3476.8215L13451.1471,-3476.8212L13451.145,-3476.8198L13451.1427,-3476.8185L13451.1424,-3476.8184L13451.1394,-3476.8181L13451.1384,-3476.8186L13451.1372,-3476.8207L13451.137,-3476.8209L13451.134,-3476.8214L13451.1316,-3476.821L13451.1306,-3476.8208L13451.1279,-3476.8202L13451.1264,-3476.8199L13451.1239,-3476.8188L13451.1215,-3476.8178L13451.119,-3476.8168L13451.1166,-3476.8157L13451.1142,-3476.8147L13451.1118,-3476.8136L13451.1096,-3476.8127L13451.1072,-3476.8116L13451.1048,-3476.8106L13451.1024,-3476.8095L13451.1,-3476.8084L13451.0976,-3476.8073L13451.0952,-3476.8062L13451.0929,-3476.8052L13451.0905,-3476.8041L13451.0881,-3476.803L13451.0857,-3476.8019L13451.0852,-3476.8017L13451.0828,-3476.8006L13451.0804,-3476.7995L13451.078,-3476.7984L13451.0757,-3476.7973L13451.0733,-3476.7962L13451.0709,-3476.7951L13451.0685,-3476.7939L13451.0662,-3476.7928L13451.0654,-3476.7924L13451.0631,-3476.7912L13451.0607,-3476.7901L13451.0584,-3476.7888L13451.0561,-3476.7876L13451.0538,-3476.7864L13451.0515,-3476.7852L13451.0493,-3476.7839L13451.047,-3476.7827L13451.046,-3476.7821L13451.0438,-3476.7808L13451.0416,-3476.7795L13451.0394,-3476.7781L13451.0372,-3476.7768L13451.035,-3476.7754L13451.0329,-3476.7741L13451.0307,-3476.7727L13451.0285,-3476.7713L13451.0264,-3476.7699L13451.0262,-3476.7698L13451.0241,-3476.7684L13451.022,-3476.767L13451.0199,-3476.7655L13451.0178,-3476.7641L13451.0061,-3476.7559L13450.9909,-3476.7446L13450.9795,-3476.7351L13450.9698,-3476.7262L13450.9637,-3476.7192L13450.9613,-3476.7156L13450.96,-3476.7124L13450.9597,-3476.7097L13450.9611,-3476.7065L13450.9629,-3476.7043L13450.9616,-3476.7005L13450.9582,-3476.6996L13450.9554,-3476.6996L13450.951,-3476.7L13450.9509,-3476.6999L13450.9497,-3476.6974L13450.9482,-3476.6956L13450.9468,-3476.6935L13450.946,-3476.6913L13450.9459,-3476.6894L13450.9463,-3476.687L13450.947,-3476.685L13450.9477,-3476.6826L13450.9486,-3476.68L13450.9489,-3476.6773L13450.949,-3476.6743L13450.949,-3476.6716L13450.9486,-3476.6689L13450.9482,-3476.6667L13450.9482,-3476.6667L13450.9479,-3476.6641L13450.9476,-3476.6612L13450.9466,-3476.6578L13450.9454,-3476.6546L13450.9483,-3476.6537L13450.9513,-3476.6535L13450.9534,-3476.6525L13450.954,-3476.6502L13450.9543,-3476.6472L13450.9537,-3476.6448L13450.9518,-3476.643L13450.9493,-3476.6426L13450.9474,-3476.6417L13450.9454,-3476.6386L13450.9435,-3476.6352L13450.942,-3476.6316L13450.9405,-3476.6293L13450.9393,-3476.629L13450.938,-3476.6293L13450.9355,-3476.6323L13450.9287,-3476.6346L13450.9239,-3476.6283L13450.9258,-3476.6235L13450.9243,-3476.6215L13450.9206,-3476.6193L13450.9172,-3476.618L13450.9131,-3476.6174L13450.9097,-3476.6167L13450.907,-3476.6157L13450.904,-3476.614L13450.9016,-3476.6123L13450.898,-3476.6096L13450.8945,-3476.607L13450.891,-3476.6042L13450.8879,-3476.6013L13450.885,-3476.5981L13450.8821,-3476.595L13450.8792,-3476.5915L13450.8769,-3476.5883L13450.8745,-3476.585L13450.8728,-3476.5819L13450.8703,-3476.579L13450.8676,-3476.5765L13450.8649,-3476.5741L13450.8605,-3476.572L13450.8566,-3476.5713L13450.8551,-3476.562L13450.8546,-3476.5598L13450.8545,-3476.5577L13450.8545,-3476.5555L13450.8545,-3476.5532L13450.8547,-3476.5509L13450.8548,-3476.5487L13450.8549,-3476.5464L13450.855,-3476.5447L13450.8551,-3476.5424L13450.8552,-3476.5402L13450.8552,-3476.5379L13450.8553,-3476.5357L13450.8554,-3476.5334L13450.8555,-3476.5312L13450.8557,-3476.5289L13450.8558,-3476.5276L13450.8562,-3476.5253L13450.8565,-3476.5231L13450.857,-3476.5209L13450.8572,-3476.5196L13450.8577,-3476.5173L13450.8581,-3476.5151L13450.8587,-3476.5129L13450.8591,-3476.5115L13450.8599,-3476.5093L13450.8609,-3476.5073L13450.8622,-3476.5052L13450.8639,-3476.5031L13450.8645,-3476.5018L13450.8643,-3476.4996L13450.864,-3476.4984L13450.8637,-3476.4961L13450.8631,-3476.4939L13450.8629,-3476.4936L13450.8615,-3476.4918L13450.8596,-3476.4901L13450.8579,-3476.4884L13450.8566,-3476.4864L13450.8562,-3476.4853L13450.8559,-3476.4831L13450.856,-3476.4808L13450.8563,-3476.4786L13450.8568,-3476.4758L13450.8571,-3476.4735L13450.8574,-3476.4713L13450.8578,-3476.4691L13450.8581,-3476.4668L13450.8583,-3476.4646L13450.8586,-3476.4623L13450.8588,-3476.4601L13450.859,-3476.4578L13450.8592,-3476.4556L13450.8592,-3476.4538L13450.8592,-3476.4515L13450.8591,-3476.4492L13450.859,-3476.4469L13450.859,-3476.4447L13450.8591,-3476.4424L13450.8594,-3476.4402L13450.86,-3476.438L13450.86,-3476.4379L13450.8611,-3476.4359L13450.8614,-3476.4355L13450.8652,-3476.4342L13450.8697,-3476.4299L13450.8708,-3476.4265L13450.87,-3476.4194L13450.8656,-3476.4195L13450.8656,-3476.4171L13450.8685,-3476.415L13450.8678,-3476.4102L13450.8645,-3476.4074L13450.86,-3476.4059L13450.8579,-3476.4016L13450.8583,-3476.397L13450.8614,-3476.3941L13450.8614,-3476.3906L13450.8591,-3476.3877L13450.8621,-3476.3806L13450.8665,-3476.3769L13450.8695,-3476.3697L13450.876,-3476.3642L13450.8865,-3476.356L13450.8957,-3476.3503L13450.9013,-3476.3459L13450.9052,-3476.3401L13450.9061,-3476.3361L13450.9042,-3476.3338L13450.9002,-3476.3369L13450.8964,-3476.3401L13450.8922,-3476.3418L13450.893,-3476.3338L13450.8924,-3476.3277L13450.8955,-3476.325L13450.8924,-3476.3216L13450.8864,-3476.321L13450.8831,-3476.3217L13450.8795,-3476.319L13450.8793,-3476.3157L13450.8753,-3476.3147L13450.8697,-3476.3163L13450.8645,-3476.32L13450.8594,-3476.3235L13450.8535,-3476.3262L13450.8506,-3476.3308L13450.8492,-3476.3366L13450.847,-3476.3435L13450.8431,-3476.3448L13450.8376,-3476.3485L13450.8333,-3476.349L13450.8286,-3476.3495L13450.8216,-3476.3515L13450.808,-3476.3568L13450.7952,-3476.3591L13450.7768,-3476.3621L13450.7658,-3476.3619L13450.7594,-3476.3607L13450.7534,-3476.3591L13450.7496,-3476.358L13450.7463,-3476.3571L13450.7434,-3476.3563L13450.7397,-3476.3554L13450.7357,-3476.3539L13450.7323,-3476.3525L13450.7283,-3476.3508L13450.7245,-3476.3492L13450.7202,-3476.3474L13450.7161,-3476.3456L13450.7115,-3476.3432L13450.7074,-3476.341L13450.7028,-3476.3385L13450.6988,-3476.3362L13450.6944,-3476.3334L13450.6892,-3476.33L13450.6813,-3476.3249L13450.6742,-3476.3194L13450.6589,-3476.3048L13450.6571,-3476.3018L13450.6561,-3476.3001L13450.6551,-3476.2983L13450.654,-3476.2965L13450.6529,-3476.2948L13450.6519,-3476.2932L13450.651,-3476.2915L13450.6503,-3476.2897L13450.6496,-3476.288L13450.6487,-3476.2859L13450.6477,-3476.2841L13450.6467,-3476.2823L13450.6456,-3476.2806L13450.6445,-3476.2787L13450.6434,-3476.2771L13450.6422,-3476.275L13450.6411,-3476.2733L13450.6397,-3476.2714L13450.6384,-3476.2698L13450.6369,-3476.2684L13450.6348,-3476.2675L13450.6324,-3476.2669L13450.6302,-3476.2663L13450.6278,-3476.2658L13450.6256,-3476.2653L13450.6231,-3476.2648L13450.6207,-3476.2641L13450.6182,-3476.2633L13450.6161,-3476.2626L13450.6135,-3476.2614L13450.6114,-3476.2605L13450.6092,-3476.2596L13450.6071,-3476.2588L13450.6048,-3476.2578L13450.6026,-3476.2569L13450.6001,-3476.2559L13450.5977,-3476.2548L13450.5955,-3476.2537L13450.5934,-3476.2528L13450.5913,-3476.2519L13450.5887,-3476.2508L13450.5867,-3476.2498L13450.5849,-3476.2487L13450.5826,-3476.2472L13450.5804,-3476.2457L13450.5787,-3476.2445L13450.577,-3476.2432L13450.5753,-3476.2419L13450.5732,-3476.2406L13450.5714,-3476.2395L13450.5697,-3476.2383L13450.5679,-3476.2367L13450.5658,-3476.2353L13450.5638,-3476.2337L13450.5629,-3476.2318L13450.5627,-3476.2299L13450.5607,-3476.229L13450.5583,-3476.2282L13450.5571,-3476.2266L13450.5565,-3476.2247L13450.5549,-3476.2233L13450.5525,-3476.2236L13450.5502,-3476.2236L13450.5489,-3476.2218L13450.548,-3476.2197L13450.5471,-3476.2177L13450.5463,-3476.2157L13450.5459,-3476.2134L13450.5467,-3476.2115L13450.5462,-3476.2095L13450.5444,-3476.2083L13450.543,-3476.2067L13450.542,-3476.2048L13450.541,-3476.2027L13450.5399,-3476.2007L13450.5385,-3476.199L13450.5365,-3476.1972L13450.5349,-3476.196L13450.5331,-3476.1948L13450.5312,-3476.1937L13450.5294,-3476.1927L13450.5274,-3476.1914L13450.5254,-3476.1904L13450.523,-3476.1895L13450.5207,-3476.1887L13450.5184,-3476.1878L13450.516,-3476.187L13450.5136,-3476.1862L13450.5112,-3476.1853L13450.5098,-3476.1848L13450.5111,-3476.1819L13450.511,-3476.1791L13450.5098,-3476.1766L13450.5089,-3476.1744L13450.5076,-3476.1723L13450.506,-3476.1704L13450.5041,-3476.1688L13450.5038,-3476.1686L13450.5014,-3476.1677L13450.4987,-3476.1671L13450.4974,-3476.1669L13450.4946,-3476.1668L13450.492,-3476.1663L13450.4917,-3476.1662L13450.4895,-3476.165L13450.4875,-3476.1634L13450.4867,-3476.1628L13450.4844,-3476.1616L13450.4822,-3476.1603L13450.4814,-3476.1596L13450.48,-3476.1575L13450.4799,-3476.1557L13450.4815,-3476.154L13450.4828,-3476.1532L13450.4852,-3476.1518L13450.4874,-3476.1503L13450.4888,-3476.1486L13450.489,-3476.1482L13450.489,-3476.146L13450.4888,-3476.1448L13450.4879,-3476.1426L13450.487,-3476.1405L13450.4859,-3476.1384L13450.4848,-3476.1364L13450.4836,-3476.1344L13450.4824,-3476.1324L13450.4821,-3476.1319L13450.4807,-3476.13L13450.4796,-3476.129L13450.4777,-3476.1274L13450.4755,-3476.126L13450.4734,-3476.1246L13450.471,-3476.1234L13450.4705,-3476.1232L13450.4679,-3476.1227L13450.4652,-3476.1225L13450.4624,-3476.1225L13450.4614,-3476.1226L13450.4586,-3476.1229L13450.458,-3476.1231L13450.4561,-3476.1246L13450.4541,-3476.1262L13450.4531,-3476.1266L13450.4498,-3476.1267L13450.4487,-3476.1261L13450.45,-3476.1243L13450.4503,-3476.1238L13450.4509,-3476.1215L13450.4506,-3476.1211L13450.4482,-3476.1205L13450.4457,-3476.1208L13450.4432,-3476.1219L13450.4417,-3476.1228L13450.4397,-3476.1243L13450.4376,-3476.1258L13450.437,-3476.1262L13450.4347,-3476.1274L13450.4338,-3476.1278L13450.4313,-3476.1287L13450.4287,-3476.1295L13450.4261,-3476.1301L13450.4241,-3476.1306L13450.4214,-3476.1311L13450.4187,-3476.1315L13450.416,-3476.1318L13450.4133,-3476.1319L13450.4119,-3476.1319L13450.4092,-3476.1316L13450.4065,-3476.1311L13450.4039,-3476.1306L13450.4012,-3476.13L13450.3985,-3476.1295L13450.3979,-3476.1294L13450.3951,-3476.1292L13450.3922,-3476.129L13450.3893,-3476.1288L13450.3865,-3476.1285L13450.3841,-3476.1279L13450.3827,-3476.127L13450.3812,-3476.1251L13450.3799,-3476.1238L13450.3772,-3476.1236L13450.3769,-3476.1237L13450.3746,-3476.1249L13450.3745,-3476.125L13450.3727,-3476.1268L13450.372,-3476.1283L13450.3716,-3476.1305L13450.3716,-3476.1306L13450.3696,-3476.1321L13450.3692,-3476.1322L13450.3663,-3476.1326L13450.3657,-3476.1323L13450.3652,-3476.1309L13450.3653,-3476.1286L13450.3654,-3476.1278L13450.3658,-3476.1255L13450.3653,-3476.1235L13450.3631,-3476.1221L13450.3619,-3476.1219L13450.3593,-3476.1225L13450.3583,-3476.1229L13450.3559,-3476.1242L13450.3541,-3476.1259L13450.3535,-3476.128L13450.3533,-3476.1286L13450.352,-3476.1307L13450.3509,-3476.1314L13450.3492,-3476.1315L13450.3477,-3476.1298L13450.3479,-3476.1276L13450.3485,-3476.1257L13450.3489,-3476.1232L13450.3481,-3476.1215L13450.3454,-3476.1212L13450.3453,-3476.1212L13450.3425,-3476.1217L13450.3401,-3476.1225L13450.3377,-3476.1236L13450.3357,-3476.1248L13450.3333,-3476.1264L13450.3309,-3476.1279L13450.3286,-3476.1288L13450.3277,-3476.1288L13450.3255,-3476.1274L13450.3232,-3476.1262L13450.3206,-3476.1269L13450.3204,-3476.127L13450.3179,-3476.1282L13450.3166,-3476.1294L13450.3164,-3476.1316L13450.3167,-3476.1327L13450.3182,-3476.1345L13450.3184,-3476.1346L13450.3212,-3476.1354L13450.3238,-3476.1361L13450.3244,-3476.1365L13450.3245,-3476.1387L13450.3244,-3476.1395L13450.3238,-3476.1419L13450.3228,-3476.1463L13450.3218,-3476.1507L13450.3208,-3476.155L13450.3204,-3476.1565L13450.32,-3476.1587L13450.3195,-3476.1609L13450.3191,-3476.1632L13450.3186,-3476.1654L13450.318,-3476.1676L13450.3174,-3476.1698L13450.3166,-3476.1717L13450.3152,-3476.1737L13450.3136,-3476.1755L13450.3119,-3476.1773L13450.3105,-3476.1785L13450.3085,-3476.18L13450.3063,-3476.1814L13450.3041,-3476.1827L13450.3019,-3476.1841L13450.2998,-3476.1854L13450.2993,-3476.1858L13450.2972,-3476.1872L13450.2951,-3476.1887L13450.2944,-3476.1894L13450.2932,-3476.19L13450.2909,-3476.1913L13450.2886,-3476.1925L13450.2863,-3476.1937L13450.2839,-3476.1949L13450.2816,-3476.196L13450.2798,-3476.1967L13450.2773,-3476.1977L13450.2748,-3476.1984L13450.2729,-3476.1989L13450.2702,-3476.1993L13450.2675,-3476.1996L13450.2668,-3476.1996L13450.264,-3476.1994L13450.2613,-3476.1989L13450.259,-3476.1981L13450.2567,-3476.1969L13450.2546,-3476.1955L13450.2525,-3476.194L13450.2505,-3476.1924L13450.2485,-3476.1911L13450.2463,-3476.1899L13450.244,-3476.1887L13450.2416,-3476.1875L13450.2306,-3476.1864L13450.2246,-3476.1868L13450.2178,-3476.1856L13450.2127,-3476.1843L13450.2118,-3476.1837L13450.2108,-3476.1812L13450.2095,-3476.1787L13450.2064,-3476.178L13450.1997,-3476.1794L13450.1968,-3476.1805L13450.1944,-3476.1836L13450.1947,-3476.1861L13450.1944,-3476.1886L13450.1908,-3476.1934L13450.1907,-3476.1956L13450.1903,-3476.1974L13450.1895,-3476.1996L13450.1888,-3476.2012L13450.1877,-3476.2033L13450.1866,-3476.2053L13450.1853,-3476.2073L13450.184,-3476.2093L13450.1826,-3476.2112L13450.1812,-3476.2129L13450.1797,-3476.2148L13450.1787,-3476.2169L13450.1788,-3476.2189L13450.1792,-3476.2193L13450.1816,-3476.2205L13450.183,-3476.221L13450.1856,-3476.2216L13450.1866,-3476.2216L13450.1892,-3476.222L13450.19,-3476.2239L13450.1891,-3476.2263L13450.1883,-3476.2268L13450.1856,-3476.2275L13450.1851,-3476.2277L13450.1832,-3476.2293L13450.1827,-3476.2314L13450.183,-3476.2337L13450.1832,-3476.236L13450.1831,-3476.2367L13450.1826,-3476.2389L13450.1832,-3476.2407L13450.1849,-3476.2418L13450.1859,-3476.242L13450.1885,-3476.2412L13450.1911,-3476.2401L13450.1919,-3476.2399L13450.1946,-3476.2398L13450.1974,-3476.24L13450.2001,-3476.2403L13450.2028,-3476.2404L13450.2044,-3476.2403L13450.207,-3476.2397L13450.2096,-3476.2389L13450.2122,-3476.238L13450.2147,-3476.2371L13450.2173,-3476.2362L13450.2199,-3476.2353L13450.2225,-3476.2347L13450.2251,-3476.2343L13450.2269,-3476.2344L13450.2296,-3476.2348L13450.2322,-3476.2354L13450.2348,-3476.2361L13450.2375,-3476.2369L13450.2401,-3476.2376L13450.2428,-3476.2382L13450.2432,-3476.2382L13450.2459,-3476.2387L13450.2486,-3476.239L13450.2513,-3476.2394L13450.254,-3476.2398L13450.2566,-3476.2405L13450.2578,-3476.2409L13450.2603,-3476.2419L13450.2626,-3476.2431L13450.265,-3476.2444L13450.2674,-3476.2456L13450.2698,-3476.2467L13450.2722,-3476.2477L13450.2747,-3476.2483L13450.2749,-3476.2483L13450.2776,-3476.2483L13450.2803,-3476.248L13450.2831,-3476.2477L13450.2858,-3476.2476L13450.2875,-3476.2477L13450.2902,-3476.2482L13450.2928,-3476.2489L13450.2935,-3476.2492L13450.2959,-3476.2502L13450.2982,-3476.2514L13450.3005,-3476.2527L13450.3027,-3476.254L13450.305,-3476.2556L13450.3068,-3476.2568L13450.3073,-3476.2571L13450.3095,-3476.2585L13450.3115,-3476.26L13450.3136,-3476.2614L13450.3155,-3476.2628L13450.3177,-3476.2644L13450.3197,-3476.2659L13450.3219,-3476.2675L13450.3237,-3476.2689L13450.3262,-3476.271L13450.3279,-3476.2723L13450.3419,-3476.2958L13450.3485,-3476.3095L13450.3555,-3476.3244L13450.3581,-3476.3301L13450.3582,-3476.3322L13450.3504,-3476.3485L13450.3449,-3476.3607L13450.3355,-3476.3834L13450.3276,-3476.3952L13450.3243,-3476.4066L13450.3192,-3476.4408L13450.3183,-3476.4452L13450.3109,-3476.4458L13450.3062,-3476.4476L13450.303,-3476.4499L13450.2989,-3476.4556L13450.2967,-3476.466L13450.2926,-3476.4889L13450.2932,-3476.4941L13450.2951,-3476.498L13450.2979,-3476.5012L13450.302,-3476.5044L13450.2983,-3476.5331L13450.2897,-3476.5392L13450.2853,-3476.5434L13450.28,-3476.5444L13450.26,-3476.5463L13450.255,-3476.5488L13450.2496,-3476.5535L13450.2393,-3476.5562L13450.23,-3476.5592L13450.2262,-3476.5638L13450.2198,-3476.5687L13450.219,-3476.5739L13450.2165,-3476.5755L13450.206,-3476.5732L13450.1965,-3476.5704L13450.1961,-3476.5677L13450.1987,-3476.564L13450.1986,-3476.5613L13450.1956,-3476.5613L13450.1912,-3476.5609L13450.1878,-3476.5627L13450.1878,-3476.565L13450.1853,-3476.565L13450.1807,-3476.5647L13450.1767,-3476.5647L13450.1709,-3476.5659L13450.1672,-3476.5688L13450.1692,-3476.5729L13450.1726,-3476.5749L13450.1747,-3476.5762L13450.1678,-3476.5758L13450.1602,-3476.5764L13450.1592,-3476.5772L13450.1606,-3476.5801L13450.1607,-3476.582L13450.1595,-3476.5839L13450.1583,-3476.5845L13450.155,-3476.5829L13450.1517,-3476.5795L13450.1503,-3476.5788L13450.1488,-3476.5793L13450.1476,-3476.5828L13450.1478,-3476.5871L13450.1499,-3476.588L13450.1519,-3476.59L13450.151,-3476.5914L13450.1483,-3476.5933L13450.1484,-3476.5959L13450.1491,-3476.5984L13450.1514,-3476.5994L13450.1555,-3476.5998L13450.1586,-3476.5998L13450.1618,-3476.5988L13450.1657,-3476.5993L13450.1683,-3476.6018L13450.1716,-3476.6099L13450.1699,-3476.6143L13450.17,-3476.617L13450.1714,-3476.6182L13450.1804,-3476.6247L13450.1824,-3476.6274L13450.1829,-3476.6303L13450.1822,-3476.6345L13450.1742,-3476.6639L13450.1731,-3476.6667L13450.1692,-3476.6773L13450.1757,-3476.6794L13450.1765,-3476.6796L13450.1756,-3476.6822L13450.1712,-3476.6948L13450.165,-3476.6927L13450.1553,-3476.722L13450.1507,-3476.7306L13450.1348,-3476.7412L13450.1391,-3476.7456L13450.117,-3476.7603L13450.0744,-3476.7798L13450.0778,-3476.7849L13450.1174,-3476.7667L13450.119,-3476.7684L13450.1545,-3476.7451L13450.1605,-3476.7464L13450.1803,-3476.6843L13450.1805,-3476.6833L13450.1806,-3476.683L13450.1808,-3476.6823L13450.181,-3476.6822L13450.1853,-3476.6697L13450.1863,-3476.6667L13450.1897,-3476.6564L13450.2202,-3476.6586L13450.22,-3476.6667L13450.2198,-3476.6741L13450.2577,-3476.6754L13450.2814,-3476.6761L13450.301,-3476.6768L13450.3181,-3476.6775L13450.3183,-3476.6799L13450.3544,-3476.6756L13450.3778,-3476.6667L13450.3931,-3476.6608L13450.4134,-3476.6459L13450.4092,-3476.6419L13450.4037,-3476.6364L13450.4101,-3476.6314L13450.417,-3476.6376L13450.419,-3476.6392L13450.4571,-3476.6097L13450.4601,-3476.6033L13450.4757,-3476.5845L13450.4735,-3476.5832L13450.4745,-3476.5821L13450.4777,-3476.5795L13450.4784,-3476.5799L13450.4883,-3476.5719L13450.5014,-3476.565L13450.5117,-3476.5665L13450.5194,-3476.571L13450.5361,-3476.5954L13450.5365,-3476.6067L13450.5346,-3476.6146L13450.5262,-3476.6295L13450.5242,-3476.6317L13450.522,-3476.6304L13450.5057,-3476.6455L13450.4913,-3476.6649L13450.4912,-3476.6667L13450.4902,-3476.6858L13450.4926,-3476.6925L13450.4925,-3476.7096L13450.4957,-3476.7221L13450.4976,-3476.7221L13450.4988,-3476.7245L13450.5076,-3476.76L13450.4657,-3476.7911L13450.4508,-3476.8018L13450.414,-3476.802L13450.4056,-3476.8041L13450.3833,-3476.8099L13450.3593,-3476.8161L13450.3059,-3476.8296L13450.2981,-3476.8112L13450.2909,-3476.7952L13450.2905,-3476.7947L13450.2905,-3476.7947L13450.2897,-3476.7928L13450.2904,-3476.7926L13450.2893,-3476.7891L13450.2837,-3476.7915L13450.2831,-3476.7916L13450.2624,-3476.8013L13450.2401,-3476.8124L13450.2163,-3476.8242L13450.2068,-3476.8287L13450.0667,-3476.8977L13450.0884,-3476.9452L13450.1051,-3476.9814L13450.1078,-3476.9805L13450.108,-3476.9811L13450.139,-3477.0485L13450.1814,-3477.0354L13450.185,-3477.0397L13450.1876,-3477.0461L13450.1965,-3477.0508L13450.2029,-3477.0547L13450.2044,-3477.0568L13450.2127,-3477.0583L13450.2234,-3477.0626L13450.2333,-3477.0669L13450.2482,-3477.0695L13450.2516,-3477.0726L13450.2546,-3477.0775L13450.2573,-3477.0812L13450.263,-3477.0868L13450.2651,-3477.0894L13450.2671,-3477.0971L13450.2691,-3477.1117L13450.2744,-3477.1264L13450.2749,-3477.1348L13450.2729,-3477.1413L13450.2712,-3477.1472L13450.2635,-3477.1633L13450.2662,-3477.1666L13450.27,-3477.1653L13450.2766,-3477.1882L13450.2753,-3477.1917L13450.275,-3477.1946L13450.2757,-3477.1977L13450.2756,-3477.2004L13450.2745,-3477.2042L13450.2739,-3477.2077L13450.2743,-3477.2108L13450.2756,-3477.2137L13450.2775,-3477.2168L13450.2801,-3477.2205L13450.2824,-3477.2242L13450.2848,-3477.228L13450.2868,-3477.2308L13450.2885,-3477.2336L13450.2795,-3477.2368L13450.281,-3477.2399L13450.1999,-3477.2709L13450.2022,-3477.2751L13450.238,-3477.261L13450.2441,-3477.2598L13450.2836,-3477.2446L13450.2845,-3477.2464L13450.2914,-3477.2442L13450.2962,-3477.2489L13450.2998,-3477.2517L13450.3038,-3477.2545L13450.3077,-3477.2567L13450.312,-3477.2589L13450.3175,-3477.2613L13450.3225,-3477.2627L13450.3318,-3477.2643L13450.3367,-3477.266L13450.3389,-3477.2675L13450.3407,-3477.2693L13450.3422,-3477.2713L13450.3442,-3477.2755L13450.3454,-3477.2799L13450.346,-3477.2845L13450.3459,-3477.2904L13450.3451,-3477.2971L13450.3431,-3477.3061L13450.3411,-3477.3126L13450.3388,-3477.3182L13450.3343,-3477.3264L13450.328,-3477.3364L13450.3196,-3477.3483L13450.3136,-3477.3558L13450.3083,-3477.3613L13450.301,-3477.368L13450.2912,-3477.3762L13450.2791,-3477.3854L13450.2688,-3477.3927L13450.2626,-3477.3967L13450.2536,-3477.4018L13450.2352,-3477.4116L13450.2336,-3477.4124L13450.2148,-3477.4221L13450.2055,-3477.4267L13450.1949,-3477.4311L13450.1774,-3477.4375L13450.14,-3477.4505L13450.1351,-3477.452L13450.1271,-3477.4536L13450.1003,-3477.4576L13450.0942,-3477.4585L13450.0834,-3477.4597L13450.0734,-3477.4603L13450.0652,-3477.4603L13450.0488,-3477.4594L13450.0252,-3477.4576L13450.0125,-3477.4562L13450.0017,-3477.4546L13450,-3477.4543L13449.9911,-3477.4526L13449.9814,-3477.4501L13449.9743,-3477.4477L13449.967,-3477.4446L13449.9601,-3477.441L13449.9512,-3477.4357L13449.9431,-3477.43L13449.9396,-3477.4268L13449.9383,-3477.4248L13449.9365,-3477.4205L13449.9352,-3477.4139L13449.9345,-3477.4071L13449.9343,-3477.4004L13449.9358,-3477.3816L13449.9359,-3477.3744L13449.9353,-3477.3654L13449.934,-3477.3554L13449.9324,-3477.3464L13449.9305,-3477.3398L13449.9285,-3477.3347L13449.9278,-3477.3333L13449.925,-3477.3316L13449.9199,-3477.3293L13449.9203,-3477.3266L13449.9234,-3477.3257L13449.9229,-3477.3213L13449.919,-3477.3202L13449.9165,-3477.323L13449.9097,-3477.3196L13449.9107,-3477.314L13449.9041,-3477.3055L13449.9016,-3477.3067L13449.8993,-3477.3039L13449.8995,-3477.2976L13449.8937,-3477.2927L13449.892,-3477.2966L13449.8876,-3477.2926L13449.8912,-3477.2907L13449.8899,-3477.2879L13449.8918,-3477.284L13449.8905,-3477.2832L13449.885,-3477.2878L13449.8748,-3477.283L13449.874,-3477.2801L13449.8795,-3477.2707L13449.8759,-3477.2698L13449.871,-3477.2765L13449.8684,-3477.2756L13449.8699,-3477.2726L13449.8649,-3477.2717L13449.8588,-3477.2752L13449.8532,-3477.2748L13449.8491,-3477.2778L13449.8483,-3477.2778L13449.8439,-3477.2781L13449.8386,-3477.2788L13449.8325,-3477.2798L13449.8254,-3477.2805L13449.8175,-3477.2811L13449.8105,-3477.2816L13449.804,-3477.282L13449.7972,-3477.2824L13449.7916,-3477.2827L13449.7864,-3477.2823L13449.7824,-3477.2814L13449.7782,-3477.2809L13449.7734,-3477.2794L13449.769,-3477.2785L13449.7679,-3477.2783L13449.7646,-3477.2774L13449.7623,-3477.2767L13449.7589,-3477.2758L13449.7551,-3477.2737L13449.7533,-3477.2717L13449.751,-3477.2681L13449.7493,-3477.2645L13449.747,-3477.2607L13449.7448,-3477.2576L13449.7411,-3477.2536L13449.7409,-3477.2481L13449.7282,-3477.2349L13449.732,-3477.231L13449.7187,-3477.221L13449.7099,-3477.2132L13449.6908,-3477.1951L13449.6808,-3477.1839L13449.6691,-3477.1715L13449.662,-3477.1637L13449.6586,-3477.1582L13449.6547,-3477.1524L13449.6502,-3477.1404L13449.6529,-3477.138L13449.6561,-3477.1356L13449.6566,-3477.1326L13449.6564,-3477.129L13449.6562,-3477.1266L13449.6555,-3477.1243L13449.6519,-3477.1226L13449.6477,-3477.1227L13449.6454,-3477.1197L13449.6437,-3477.1146L13449.6424,-3477.1017L13449.6426,-3477.095L13449.643,-3477.092L13449.6432,-3477.0883L13449.6411,-3477.0856L13449.6388,-3477.0813L13449.6373,-3477.0768L13449.6349,-3477.0748L13449.631,-3477.0747L13449.6274,-3477.0724L13449.6254,-3477.0717L13449.6189,-3477.0708L13449.6175,-3477.0679L13449.6151,-3477.067L13449.6113,-3477.0669L13449.6089,-3477.0685L13449.6083,-3477.0712L13449.6009,-3477.075L13449.599,-3477.0779L13449.5961,-3477.0788L13449.5948,-3477.081L13449.5924,-3477.0823L13449.5851,-3477.0892L13449.58,-3477.0973L13449.5749,-3477.1059L13449.5738,-3477.1081L13449.5702,-3477.1103L13449.5658,-3477.1135L13449.5625,-3477.1154L13449.5581,-3477.1209L13449.5558,-3477.1255L13449.5531,-3477.1323L13449.5502,-3477.1401L13449.5481,-3477.145L13449.5442,-3477.1485L13449.5418,-3477.1509L13449.5359,-3477.1557L13449.527,-3477.1607L13449.5207,-3477.164L13449.5055,-3477.1695L13449.4934,-3477.1727L13449.4811,-3477.1749L13449.4703,-3477.1753L13449.4611,-3477.1753L13449.4503,-3477.1744L13449.4414,-3477.1731L13449.4034,-3477.1649L13449.4033,-3477.166L13449.3992,-3477.1651L13449.3992,-3477.1639L13449.3856,-3477.159L13449.3897,-3477.1533L13449.3867,-3477.1518L13449.3818,-3477.1583L13449.381,-3477.158L13449.3538,-3477.1468L13449.3509,-3477.1461L13449.33,-3477.1379L13449.3225,-3477.1339L13449.318,-3477.131L13449.3124,-3477.1266L13449.3041,-3477.12L13449.3017,-3477.1169L13449.3005,-3477.1144L13449.2989,-3477.1099L13449.2983,-3477.1042L13449.2994,-3477.0988L13449.3013,-3477.0923L13449.3025,-3477.0869L13449.3047,-3477.081L13449.306,-3477.0758L13449.3076,-3477.0704L13449.3087,-3477.0649L13449.3112,-3477.0621L13449.3126,-3477.0602L13449.3141,-3477.0583L13449.3155,-3477.0564L13449.3169,-3477.0545L13449.3183,-3477.0525L13449.3195,-3477.0505L13449.3199,-3477.0499L13449.3211,-3477.0478L13449.3222,-3477.0457L13449.3231,-3477.0436L13449.3237,-3477.0414L13449.3238,-3477.0412L13449.3242,-3477.039L13449.3244,-3477.0367L13449.3245,-3477.0345L13449.3249,-3477.0319L13449.325,-3477.0234L13449.325,-3477.0152L13449.3248,-3477.0066L13449.3263,-3477.0041L13449.3227,-3476.9967L13449.3228,-3476.9894L13449.3219,-3476.9826L13449.3239,-3476.9765L13449.3238,-3476.9714L13449.3197,-3476.9713L13449.3198,-3476.9681L13449.3143,-3476.9648L13449.3114,-3476.9624L13449.3099,-3476.9672L13449.2969,-3476.9605L13449.2888,-3476.9594L13449.2814,-3476.9573L13449.2744,-3476.9539L13449.2613,-3476.9484L13449.2512,-3476.9426L13449.2368,-3476.9323L13449.2291,-3476.9256L13449.2278,-3476.923L13449.2317,-3476.9226L13449.2323,-3476.9156L13449.2187,-3476.9131L13449.221,-3476.9083L13449.2161,-3476.8999L13449.2103,-3476.8938L13449.211,-3476.89L13449.2079,-3476.8868L13449.2078,-3476.8847L13449.2144,-3476.8852L13449.2131,-3476.8811L13449.2052,-3476.8804L13449.2051,-3476.8752L13449.2086,-3476.8727L13449.2082,-3476.8643L13449.2088,-3476.8603L13449.205,-3476.8593L13449.1961,-3476.8609L13449.1966,-3476.856L13449.1869,-3476.8509L13449.1792,-3476.8447L13449.1773,-3476.8336L13449.1778,-3476.8276L13449.1814,-3476.8219L13449.1879,-3476.8143L13449.1955,-3476.8052L13449.1988,-3476.8034L13449.2085,-3476.8019L13449.2123,-3476.8001L13449.2184,-3476.7946L13449.2223,-3476.7906L13449.2287,-3476.7823L13449.2317,-3476.7724L13449.2346,-3476.7625L13449.2319,-3476.7528L13449.2336,-3476.7435L13449.2225,-3476.7386L13449.2123,-3476.735L13449.212,-3476.7313L13449.2099,-3476.727L13449.1998,-3476.7232L13449.1986,-3476.719L13449.1937,-3476.7133L13449.188,-3476.7093L13449.1785,-3476.7034L13449.1732,-3476.6996L13449.1726,-3476.6999L13449.1689,-3476.6971L13449.1729,-3476.6898L13449.1758,-3476.6824L13449.1746,-3476.6797L13449.1676,-3476.6775L13449.1691,-3476.6746L13449.1752,-3476.6751L13449.1693,-3476.6667L13449.1695,-3476.6667L13449.1753,-3476.665L13449.1692,-3476.6604L13449.1667,-3476.6577L13449.1567,-3476.647L13449.1519,-3476.6507L13449.1482,-3476.6484L13449.1414,-3476.635L13449.1393,-3476.6279L13449.1335,-3476.6229L13449.1297,-3476.6123L13449.124,-3476.6123L13449.1265,-3476.6191L13449.1206,-3476.616L13449.1144,-3476.6142L13449.1043,-3476.6165L13449.0941,-3476.6132L13449.0932,-3476.6214L13449.0841,-3476.6205L13449.0778,-3476.6261L13449.0791,-3476.6327L13449.0789,-3476.6397L13449.0777,-3476.6415L13449.0729,-3476.6474L13449.0679,-3476.6484L13449.0635,-3476.6607L13449.0712,-3476.6629L13449.0705,-3476.6667L13449.0701,-3476.6691L13449.065,-3476.6751L13449.0563,-3476.6789L13449.0427,-3476.6864L13449.0317,-3476.6904L13449.0211,-3476.6921L13449.0148,-3476.6946L13449.004,-3476.6957L13449.0005,-3476.6975L13448.9959,-3476.6954L13448.992,-3476.6954L13448.9868,-3476.6919L13448.9804,-3476.6958L13448.9741,-3476.6986L13448.9626,-3476.7049L13448.9541,-3476.7123L13448.9403,-3476.7125L13448.9337,-3476.7126L13448.9221,-3476.7112L13448.914,-3476.7082L13448.9102,-3476.7021L13448.9014,-3476.7079L13448.8959,-3476.7009L13448.894,-3476.7022L13448.8938,-3476.707L13448.8885,-3476.7083L13448.8885,-3476.703L13448.8836,-3476.7063L13448.8814,-3476.7128L13448.8822,-3476.7163L13448.8819,-3476.7214L13448.883,-3476.7248L13448.882,-3476.7252L13448.8781,-3476.7236L13448.8728,-3476.7142L13448.8705,-3476.7164L13448.8721,-3476.7232L13448.8773,-3476.7311L13448.8789,-3476.736L13448.8811,-3476.7356L13448.8819,-3476.7291L13448.8854,-3476.7329L13448.8906,-3476.7417L13448.8918,-3476.7452L13448.8919,-3476.7458L13448.8925,-3476.7513L13448.8936,-3476.7556L13448.8955,-3476.7575L13448.898,-3476.7587L13448.9002,-3476.7599L13448.9141,-3476.7737L13448.9256,-3476.7877L13448.9321,-3476.7949L13448.9376,-3476.8028L13448.9418,-3476.8096L13448.9429,-3476.8141L13448.9422,-3476.8222L13448.9404,-3476.8282L13448.9362,-3476.8372L13448.9296,-3476.8481L13448.925,-3476.8533L13448.9207,-3476.8576L13448.9107,-3476.8654L13448.906,-3476.8685L13448.9033,-3476.87L13448.9019,-3476.8705L13448.9007,-3476.8705L13448.8998,-3476.8704L13448.8988,-3476.8701L13448.897,-3476.8696L13448.8958,-3476.8694L13448.8749,-3476.8825L13448.8739,-3476.8837L13448.8739,-3476.8852L13448.8692,-3476.8884L13448.8659,-3476.8895L13448.861,-3476.89L13448.8569,-3476.8905L13448.852,-3476.8919L13448.8416,-3476.895L13448.8307,-3476.8985L13448.8194,-3476.9008L13448.8068,-3476.9045L13448.796,-3476.9072L13448.7671,-3476.9126L13448.7486,-3476.9157L13448.7414,-3476.9166L13448.7233,-3476.9182L13448.7068,-3476.9193L13448.6997,-3476.9194L13448.6948,-3476.9194L13448.6751,-3476.9188L13448.6537,-3476.9178L13448.6497,-3476.9173L13448.6464,-3476.9169L13448.6371,-3476.9157L13448.6269,-3476.9142L13448.6281,-3476.9112L13448.6342,-3476.8957L13448.6286,-3476.8944L13448.6221,-3476.9135L13448.6155,-3476.9122L13448.6015,-3476.9087L13448.5872,-3476.9037L13448.5784,-3476.9005L13448.5772,-3476.9015L13448.5759,-3476.903L13448.5747,-3476.9058L13448.5741,-3476.9077L13448.5723,-3476.9129L13448.57,-3476.9116L13448.5715,-3476.9071L13448.572,-3476.905L13448.573,-3476.902L13448.5733,-3476.9005L13448.5733,-3476.8981L13448.5657,-3476.8946L13448.5452,-3476.8847L13448.5303,-3476.8766L13448.526,-3476.8742L13448.5183,-3476.8568L13448.5187,-3476.8547L13448.5183,-3476.8506L13448.5158,-3476.8427L13448.5138,-3476.8346L13448.5132,-3476.8306L13448.5109,-3476.8286L13448.5084,-3476.8274L13448.5067,-3476.8258L13448.5052,-3476.8225L13448.504,-3476.8197L13448.4996,-3476.8072L13448.4934,-3476.7946L13448.4921,-3476.7938L13448.4905,-3476.7936L13448.4889,-3476.7943L13448.4878,-3476.7966L13448.4876,-3476.8009L13448.4877,-3476.8055L13448.4854,-3476.8069L13448.4712,-3476.7898L13448.4745,-3476.7902L13448.48,-3476.7908L13448.4825,-3476.7907L13448.4844,-3476.7903L13448.4852,-3476.7898L13448.4856,-3476.7889L13448.4862,-3476.7868L13448.4864,-3476.7846L13448.4862,-3476.7823L13448.4854,-3476.7801L13448.484,-3476.7774L13448.4805,-3476.7728L13448.4726,-3476.7642L13448.4694,-3476.7608L13448.4678,-3476.7588L13448.4664,-3476.7581L13448.4651,-3476.7575L13448.4634,-3476.7576L13448.4612,-3476.7593L13448.46,-3476.7617L13448.4576,-3476.7633L13448.4486,-3476.7599L13448.4372,-3476.7548L13448.4126,-3476.741L13448.3955,-3476.7324L13448.3896,-3476.7294L13448.3803,-3476.7261L13448.3746,-3476.7245L13448.3745,-3476.7221L13448.3743,-3476.7208L13448.3739,-3476.7199L13448.3721,-3476.7179L13448.3713,-3476.7168L13448.3699,-3476.7158L13448.3685,-3476.715L13448.3674,-3476.7138L13448.3661,-3476.7126L13448.364,-3476.7121L13448.3623,-3476.7123L13448.3612,-3476.7133L13448.3572,-3476.7131L13448.3561,-3476.7125L13448.3544,-3476.7127L13448.3525,-3476.7129L13448.3504,-3476.7125L13448.3491,-3476.7133L13448.3485,-3476.7143L13448.3481,-3476.7155L13448.3469,-3476.7165L13448.3458,-3476.7166L13448.3439,-3476.716L13448.3412,-3476.7156L13448.3394,-3476.7149L13448.3376,-3476.7146L13448.3359,-3476.7148L13448.3345,-3476.7156L13448.3337,-3476.7172L13448.3333,-3476.7173L13448.3319,-3476.7178L13448.3302,-3476.7184L13448.328,-3476.7182L13448.327,-3476.7174L13448.3261,-3476.7161L13448.3253,-3476.7149L13448.3241,-3476.7136L13448.3223,-3476.7126L13448.3202,-3476.7122L13448.3174,-3476.7122L13448.3151,-3476.7125L13448.3129,-3476.7131L13448.3106,-3476.7139L13448.3086,-3476.7146L13448.3067,-3476.7153L13448.3052,-3476.7158L13448.3039,-3476.7167L13448.3033,-3476.7177L13448.3035,-3476.7185L13448.3037,-3476.7189L13448.3044,-3476.7194L13448.3049,-3476.7198L13448.3048,-3476.7205L13448.3038,-3476.7214L13448.3024,-3476.7219L13448.301,-3476.7221L13448.2992,-3476.7217L13448.2979,-3476.7215L13448.2945,-3476.722L13448.293,-3476.7225L13448.2917,-3476.7233L13448.2899,-3476.7245L13448.2886,-3476.7254L13448.287,-3476.7263L13448.2834,-3476.7281L13448.2819,-3476.7298L13448.2816,-3476.7315L13448.2779,-3476.7322L13448.2624,-3476.7366L13448.2423,-3476.7389L13448.2418,-3476.739L13448.2416,-3476.7369L13448.2391,-3476.7349L13448.2365,-3476.7338L13448.219,-3476.7219L13448.2282,-3476.7126L13448.2259,-3476.7112L13448.2205,-3476.7165L13448.2171,-3476.7149L13448.2129,-3476.7125L13448.2096,-3476.7101L13448.2066,-3476.708L13448.2035,-3476.7052L13448.2005,-3476.7019L13448.1989,-3476.7003L13448.1982,-3476.6995L13448.1976,-3476.6988L13448.1945,-3476.6962L13448.1911,-3476.6938L13448.1881,-3476.6918L13448.185,-3476.6891L13448.1819,-3476.6863L13448.1786,-3476.6833L13448.1751,-3476.6798L13448.1717,-3476.6762L13448.168,-3476.6721L13448.1667,-3476.6705L13448.1653,-3476.6689L13448.1638,-3476.6673L13448.1633,-3476.6667L13448.1625,-3476.6658L13448.1612,-3476.6641L13448.16,-3476.6626L13448.1586,-3476.6611L13448.1573,-3476.6593L13448.1559,-3476.6576L13448.1558,-3476.6573L13448.1568,-3476.6568L13448.156,-3476.6558L13448.1551,-3476.6563L13448.1548,-3476.6559L13448.1537,-3476.6543L13448.1522,-3476.6526L13448.1508,-3476.6508L13448.1491,-3476.649L13448.1476,-3476.6471L13448.1463,-3476.6456L13448.1448,-3476.6441L13448.1432,-3476.6424L13448.1417,-3476.6407L13448.1404,-3476.6391L13448.139,-3476.6375L13448.1374,-3476.6359L13448.1374,-3476.6358L13448.1464,-3476.6325L13448.1452,-3476.6301L13448.1357,-3476.6336L13448.1347,-3476.6322L13448.1334,-3476.6304L13448.1334,-3476.6283L13448.1371,-3476.6264L13448.1452,-3476.6228L13448.1432,-3476.6192L13448.1332,-3476.623L13448.1331,-3476.6227L13448.1319,-3476.6212L13448.1305,-3476.6197L13448.1293,-3476.6182L13448.1283,-3476.6163L13448.1273,-3476.614L13448.1266,-3476.6121L13448.1261,-3476.6102L13448.1253,-3476.6081L13448.1251,-3476.6063L13448.1251,-3476.6039L13448.1253,-3476.6016L13448.1258,-3476.5998L13448.1259,-3476.5996L13448.1247,-3476.5984L13448.1231,-3476.597L13448.1221,-3476.5952L13448.1213,-3476.5933L13448.1206,-3476.5912L13448.1198,-3476.5893L13448.1203,-3476.5845L13448.1227,-3476.5836L13448.1244,-3476.5824L13448.1259,-3476.5809L13448.1273,-3476.5791L13448.1288,-3476.5777L13448.1302,-3476.576L13448.1316,-3476.5743L13448.133,-3476.5728L13448.1345,-3476.5712L13448.1358,-3476.5697L13448.1371,-3476.568L13448.1378,-3476.5665L13448.1385,-3476.5648L13448.1397,-3476.5631L13448.1414,-3476.5616L13448.1431,-3476.5604L13448.1454,-3476.5591L13448.1474,-3476.558L13448.1495,-3476.5566L13448.1517,-3476.5549L13448.1538,-3476.5534L13448.156,-3476.5517L13448.1581,-3476.5502L13448.1598,-3476.5488L13448.1616,-3476.547L13448.1633,-3476.5452L13448.1647,-3476.5436L13448.1663,-3476.5417L13448.1678,-3476.5398L13448.1697,-3476.5378L13448.1715,-3476.5359L13448.1735,-3476.5339L13448.1757,-3476.5318L13448.1778,-3476.5297L13448.1795,-3476.5279L13448.1811,-3476.5261L13448.1827,-3476.5243L13448.1843,-3476.5228L13448.1861,-3476.5213L13448.188,-3476.5198L13448.1907,-3476.5174L13448.1924,-3476.5154L13448.1936,-3476.5136L13448.1948,-3476.5118L13448.1959,-3476.5102L13448.1972,-3476.5083L13448.1984,-3476.5066L13448.1996,-3476.5048L13448.2008,-3476.5028L13448.202,-3476.501L13448.2033,-3476.4993L13448.2047,-3476.4975L13448.2062,-3476.4959L13448.2076,-3476.4944L13448.2089,-3476.4929L13448.2102,-3476.4913L13448.2112,-3476.4896L13448.2124,-3476.4879L13448.2138,-3476.4864L13448.2148,-3476.4846L13448.2157,-3476.4827L13448.2164,-3476.4808L13448.2167,-3476.4788L13448.2168,-3476.4769L13448.2168,-3476.475L13448.2169,-3476.4728L13448.2175,-3476.4706L13448.2185,-3476.4685L13448.2193,-3476.4664L13448.2201,-3476.4645L13448.2211,-3476.4625L13448.2221,-3476.4607L13448.2231,-3476.4589L13448.2241,-3476.4571L13448.2251,-3476.4555L13448.2261,-3476.4538L13448.2271,-3476.4521L13448.2283,-3476.4504L13448.2295,-3476.4487L13448.231,-3476.4467L13448.2326,-3476.4448L13448.234,-3476.4426L13448.2352,-3476.4407L13448.2361,-3476.439L13448.237,-3476.4373L13448.2381,-3476.4356L13448.2391,-3476.434L13448.2406,-3476.4322L13448.2419,-3476.4306L13448.2431,-3476.429L13448.2436,-3476.427L13448.2437,-3476.4251L13448.2438,-3476.4231L13448.2436,-3476.4197L13448.2432,-3476.4175L13448.2427,-3476.4155L13448.242,-3476.4137L13448.2406,-3476.4121L13448.2399,-3476.4102L13448.2397,-3476.4083L13448.2397,-3476.4062L13448.2408,-3476.4046L13448.2408,-3476.4026L13448.2397,-3476.401L13448.2396,-3476.3991L13448.2392,-3476.3973L13448.2379,-3476.3957L13448.2361,-3476.3947L13448.2325,-3476.3927L13448.2311,-3476.3909L13448.2329,-3476.3897L13448.2347,-3476.3885L13448.2366,-3476.3872L13448.2384,-3476.3856L13448.238,-3476.3838L13448.2369,-3476.3821L13448.2358,-3476.3805L13448.2337,-3476.3794L13448.2314,-3476.3787L13448.2293,-3476.3784L13448.227,-3476.3777L13448.2248,-3476.3772L13448.2228,-3476.3761L13448.2212,-3476.3749L13448.2197,-3476.3734L13448.2181,-3476.3721L13448.2159,-3476.3712L13448.2139,-3476.3704L13448.2115,-3476.3693L13448.2093,-3476.3681L13448.2076,-3476.3669L13448.2053,-3476.3654L13448.2035,-3476.3641L13448.2018,-3476.363L13448.1999,-3476.3619L13448.198,-3476.3608L13448.1958,-3476.3595L13448.1935,-3476.3582L13448.1911,-3476.3567L13448.1887,-3476.3552L13448.1863,-3476.3536L13448.1841,-3476.3519L13448.1816,-3476.3501L13448.1794,-3476.3484L13448.1777,-3476.3471L13448.1759,-3476.3459L13448.1743,-3476.3447L13448.1727,-3476.3434L13448.1711,-3476.3421L13448.1691,-3476.3407L13448.167,-3476.3391L13448.1651,-3476.3375L13448.163,-3476.3356L13448.1613,-3476.3343L13448.1596,-3476.3331L13448.1579,-3476.3318L13448.1561,-3476.3302L13448.1539,-3476.3283L13448.1518,-3476.3265L13448.1498,-3476.3249L13448.1478,-3476.3233L13448.1457,-3476.3217L13448.1434,-3476.3199L13448.1413,-3476.3183L13448.1394,-3476.3167L13448.1375,-3476.3151L13448.1358,-3476.3138L13448.1343,-3476.3124L13448.1328,-3476.3111L13448.1312,-3476.3097L13448.1295,-3476.3084L13448.1275,-3476.307L13448.1259,-3476.3056L13448.1244,-3476.3043L13448.1228,-3476.3025L13448.1191,-3476.2992L13448.1172,-3476.2976L13448.1157,-3476.296L13448.1141,-3476.2945L13448.1124,-3476.2929L13448.1109,-3476.2915L13448.1093,-3476.2896L13448.1078,-3476.2878L13448.1062,-3476.2858L13448.1045,-3476.2842L13448.1028,-3476.2825L13448.1009,-3476.2805L13448.0988,-3476.2786L13448.0968,-3476.2766L13448.0949,-3476.2748L13448.093,-3476.273L13448.0909,-3476.2711L13448.0895,-3476.2697L13448.0875,-3476.2677L13448.0861,-3476.2662L13448.0841,-3476.2641L13448.0828,-3476.2627L13448.0816,-3476.2611L13448.0802,-3476.2594L13448.0787,-3476.2574L13448.0774,-3476.2559L13448.0754,-3476.2537L13448.0736,-3476.2517L13448.0717,-3476.2495L13448.0704,-3476.2477L13448.0691,-3476.2462L13448.0676,-3476.2447L13448.0663,-3476.2431L13448.0649,-3476.2415L13448.0636,-3476.2399L13448.0623,-3476.2384L13448.0607,-3476.2368L13448.0593,-3476.2352L13448.058,-3476.2337L13448.0568,-3476.2322L13448.0554,-3476.2306L13448.054,-3476.229L13448.0524,-3476.2272L13448.0512,-3476.2256L13448.0501,-3476.224L13448.0489,-3476.2224L13448.0476,-3476.2207L13448.046,-3476.2186L13448.0445,-3476.2165L13448.043,-3476.2144L13448.0419,-3476.2127L13448.0408,-3476.2109L13448.0394,-3476.2086L13448.0384,-3476.2068L13448.0374,-3476.2052L13448.0364,-3476.2034L13448.0353,-3476.2015L13448.0344,-3476.1998L13448.0335,-3476.1981L13448.0322,-3476.1954L13448.0311,-3476.1932L13448.03,-3476.1908L13448.0289,-3476.1884L13448.0283,-3476.187L13448.0278,-3476.1856L13448.0272,-3476.1838L13448.0263,-3476.1811L13448.0255,-3476.1785L13448.0248,-3476.1765L13448.0243,-3476.1745L13448.0239,-3476.1726L13448.0234,-3476.1699L13448.023,-3476.1673L13448.0226,-3476.1646L13448.0226,-3476.1627L13448.0227,-3476.1607L13448.0229,-3476.1582L13448.0232,-3476.1556L13448.0236,-3476.153L13448.024,-3476.1505L13448.0245,-3476.1486L13448.0249,-3476.1468L13448.0259,-3476.1445L13448.0271,-3476.1421L13448.0281,-3476.1397L13448.0287,-3476.1379L13448.0295,-3476.1352L13448.0299,-3476.1334L13448.0305,-3476.1308L13448.031,-3476.1288L13448.0317,-3476.1264L13448.0325,-3476.1239L13448.0336,-3476.1214L13448.0348,-3476.1191L13448.036,-3476.1167L13448.0371,-3476.1149L13448.0387,-3476.1127L13448.0399,-3476.1111L13448.0411,-3476.1095L13448.0428,-3476.1072L13448.0442,-3476.1052L13448.0455,-3476.103L13448.0466,-3476.1008L13448.0475,-3476.0988L13448.0486,-3476.0964L13448.0495,-3476.0947L13448.0508,-3476.0923L13448.0526,-3476.09L13448.0539,-3476.0883L13448.0551,-3476.0868L13448.0563,-3476.0852L13448.0575,-3476.0836L13448.0591,-3476.0815L13448.0606,-3476.0792L13448.0621,-3476.0769L13448.0633,-3476.0754L13448.0641,-3476.0742L13447.6029,-3476.0742L13447.6015,-3476.0762L13447.5846,-3476.1008L13447.5826,-3476.1037L13447.5512,-3476.1458L13447.5242,-3476.1686L13447.5229,-3476.1784L13447.5276,-3476.1862L13447.5374,-3476.1904L13447.5535,-3476.1932L13447.5621,-3476.1971L13447.577,-3476.202L13447.6023,-3476.2164L13447.6125,-3476.2273L13447.622,-3476.2389L13447.6528,-3476.2878L13447.6671,-3476.3228L13447.6731,-3476.3393L13447.6821,-3476.3619L13447.6988,-3476.3784L13447.7151,-3476.3886L13447.7292,-3476.4002L13447.7352,-3476.4114L13447.7433,-3476.4276L13447.7624,-3476.4499L13447.7716,-3476.4626L13447.7793,-3476.4801L13447.7789,-3476.5036L13447.7737,-3476.5166L13447.7583,-3476.5359L13447.7238,-3476.5666L13447.6949,-3476.5922L13447.6883,-3476.6021L13447.6868,-3476.6042L13447.6778,-3476.6366L13447.6731,-3476.6433L13447.6663,-3476.6534L13447.6477,-3476.6667L13447.5958,-3476.7036L13447.5941,-3476.7102L13447.5988,-3476.7187L13447.6104,-3476.73L13447.6207,-3476.7401L13447.6215,-3476.7531L13447.6249,-3476.782L13447.6309,-3476.8115L13447.643,-3476.8511L13447.6506,-3476.9026L13447.6476,-3476.9153L13447.6275,-3476.9631L13447.6254,-3476.9814L13447.6296,-3477.1094L13447.6378,-3477.1334L13447.6523,-3477.1446L13447.6677,-3477.1524L13447.6904,-3477.1597L13447.7471,-3477.1742L13447.9043,-3477.2048L13447.9649,-3477.2159L13447.9655,-3477.2161L13448.0196,-3477.2248L13448.0324,-3477.2326L13448.0384,-3477.2438L13448.0453,-3477.2681L13448.0522,-3477.2913L13448.0611,-3477.3314L13448.0718,-3477.3511L13448.0866,-3477.3813L13448.1024,-3477.4042L13448.1624,-3477.4496L13448.1907,-3477.4672L13448.2026,-3477.4802L13448.2103,-3477.4971L13448.2112,-3477.5L13448.2172,-3477.5206L13448.2388,-3477.556L13448.2503,-3477.5829L13448.2726,-3477.5964L13448.2914,-3477.601L13448.3227,-3477.6056L13448.3333,-3477.606L13448.3565,-3477.607L13448.4158,-3477.6105L13448.4539,-3477.6116L13448.5046,-3477.6122L13448.5545,-3477.6371L13448.5674,-3477.6406L13448.5811,-3477.6424L13448.6031,-3477.6415L13448.6553,-3477.6409L13448.708,-3477.6371L13448.7728,-3477.6364L13448.7732,-3477.6365L13448.7943,-3477.6416L13448.8156,-3477.6508L13448.836,-3477.661L13448.857,-3477.673L13448.8775,-3477.692L13448.8916,-3477.7081L13448.9267,-3477.7324L13448.9706,-3477.7526L13449.0203,-3477.7716L13449.0395,-3477.7807L13449.0577,-3477.7996L13449.0756,-3477.8298L13449.105,-3477.8497L13449.1271,-3477.859L13449.1457,-3477.8638L13449.1667,-3477.8707L13449.1778,-3477.8743L13449.2056,-3477.8873L13449.2498,-3477.905L13449.2758,-3477.9104L13449.2943,-3477.909L13449.3234,-3477.8959L13449.3463,-3477.8902L13449.3762,-3477.8924L13449.4488,-3477.9083L13449.5417,-3477.923L13449.5815,-3477.9287L13449.6037,-3477.935L13449.6376,-3477.9568L13449.6804,-3477.9793L13449.7284,-3477.9989L13449.8331,-3478.059L13449.9012,-3478.2311L13449.9209,-3478.2663L13449.9308,-3478.2774L13449.9427,-3478.2872L13449.9597,-3478.2916L13450,-3478.2982L13450.0304,-3478.3032L13450.1052,-3478.3223L13450.1344,-3478.3305L13450.1444,-3478.3333L13450.1469,-3478.3341L13450.1734,-3478.34L13450.1831,-3478.3421L13450.1879,-3478.3431L13450.2064,-3478.3467L13450.2197,-3478.3519L13450.252,-3478.3681L13450.2582,-3478.3779L13450.2638,-3478.3867L13450.2711,-3478.3984L13450.2743,-3478.4044L13450.2754,-3478.4063L13450.282,-3478.4189L13450.2943,-3478.4529L13450.2977,-3478.4875L13450.2958,-3478.5339L13450.2849,-3478.5635L13450.2846,-3478.5639L13450.272,-3478.5825L13450.2326,-3478.6407L13450.2296,-3478.6486L13450.2214,-3478.6702L13450.2083,-3478.7239L13450.1944,-3478.7566L13450.1891,-3478.7692L13450.1682,-3478.8058L13450.1471,-3478.8504L13450.1446,-3478.8557L13450.1385,-3478.8685L13450.1363,-3478.8754L13450.1349,-3478.8799L13450.1342,-3478.8818L13450.1226,-3478.9059L13450.1103,-3478.922L13450.0812,-3478.9562L13450.0637,-3478.9742L13450.0424,-3478.9884L13450.0178,-3478.9982L13450.0087,-3479.006L13450.0087,-3479.006L13450.0085,-3479.0061L13450.0049,-3479.0154L13450.0041,-3479.0216L13450.004,-3479.022L13450.0022,-3479.036L13450.0015,-3479.0573L13450,-3479.0645L13449.9976,-3479.0759L13449.9966,-3479.0902L13449.9959,-3479.1017L13449.9926,-3479.1102L13449.9783,-3479.1323L13449.9613,-3479.1493L13449.951,-3479.1651L13449.9502,-3479.1667L13449.9121,-3479.2421L13449.8951,-3479.2644L13449.8657,-3479.2871L13449.8291,-3479.3084L13449.8195,-3479.3171L13449.8092,-3479.3301L13449.8035,-3479.356L13449.8021,-3479.3705L13449.8017,-3479.3754L13449.8012,-3479.3798L13449.7931,-3479.4274L13449.7919,-3479.492L13449.7903,-3479.5352L13449.7789,-3479.5809L13449.767,-3479.6367L13449.7691,-3479.6986L13449.772,-3479.762L13449.7833,-3479.782L13449.8045,-3479.7879L13449.8238,-3479.7899L13449.8533,-3479.7895L13449.8755,-3479.8007L13449.8895,-3479.8092L13449.9074,-3479.8343L13449.9148,-3479.8609L13449.9152,-3479.8645L13449.9174,-3479.8856L13449.9157,-3479.9879L13449.9295,-3479.9979L13449.9363,-3480L13449.9402,-3480.0012L13449.9618,-3480.0021L13450,-3480.0092L13450.0107,-3480.0112L13450.0157,-3480.0129L13450.0227,-3480.0153L13450.047,-3480.0237L13450.0582,-3480.0395L13450.0589,-3480.0419L13450.0592,-3480.0428L13450.0633,-3480.0564L13450.07,-3480.079L13450.0808,-3480.1044L13450.0998,-3480.1347L13450.1187,-3480.1489L13450.1395,-3480.1595L13450.1417,-3480.1601L13450.1995,-3480.1751L13450.1944,-3480.2728L13450.2071,-3480.3161L13450.2098,-3480.3376L13450.2082,-3480.3528L13450.2044,-3480.3687L13450.2034,-3480.3726L13450.1971,-3480.397L13450.1918,-3480.4176L13450.1912,-3480.4648L13450.1916,-3480.4688Z"/>
<path content="兵庫県,,,たつの市,,28229" xlink:title="兵庫県" d="M13450,-3476.7388L13450.0439,-3476.7171L13450.0534,-3476.7218L13450.0594,-3476.717L13450.0614,-3476.7149L13450.0618,-3476.7129L13450.0611,-3476.711L13450.0594,-3476.7083L13450.0571,-3476.7059L13450.0542,-3476.7041L13450.0513,-3476.7032L13450.0486,-3476.703L13450.0448,-3476.7034L13450,-3476.7256L13449.9138,-3476.7683L13449.8378,-3476.8044L13449.8352,-3476.8074L13449.8347,-3476.8094L13449.8345,-3476.8117L13449.8345,-3476.8143L13449.8353,-3476.8168L13449.8369,-3476.8189L13449.8393,-3476.8197L13449.8423,-3476.8199L13449.8467,-3476.8199L13449.8478,-3476.8197L13449.8518,-3476.8151L13449.8519,-3476.814L13449.8515,-3476.811L13449.9208,-3476.7781L13450,-3476.7388Z"/>
<path content="兵庫県,,,たつの市,,28229" xlink:title="兵庫県" d="M13449.9839,-3476.8657L13449.9817,-3476.8628L13449.9633,-3476.872L13450,-3476.952L13450.0173,-3476.9897L13450.0213,-3476.9885L13450,-3476.9421L13449.9685,-3476.8734L13449.9839,-3476.8657Z"/>
<path content="兵庫県,,,たつの市,,28229" xlink:title="兵庫県" d="M13450.9641,-3476.6823L13450.962,-3476.6818L13450.9579,-3476.6823L13450.955,-3476.6833L13450.953,-3476.6849L13450.9521,-3476.6864L13450.9526,-3476.6884L13450.954,-3476.6896L13450.9569,-3476.6897L13450.9602,-3476.6891L13450.9624,-3476.6879L13450.9638,-3476.6863L13450.9646,-3476.684L13450.9641,-3476.6823Z"/>
<path content="兵庫県,,,たつの市,,28229" xlink:title="兵庫県" d="M13448.2486,-3476.3903L13448.2468,-3476.3902L13448.2461,-3476.3908L13448.2459,-3476.3922L13448.2463,-3476.3939L13448.247,-3476.3953L13448.2467,-3476.3968L13448.2467,-3476.3976L13448.2468,-3476.3989L13448.248,-3476.4006L13448.2494,-3476.4009L13448.2505,-3476.3999L13448.2506,-3476.3979L13448.2504,-3476.3961L13448.2496,-3476.3939L13448.2494,-3476.3925L13448.2499,-3476.3914L13448.2486,-3476.3903Z"/>
<path content="兵庫県,,,たつの市,,28229" xlink:title="兵庫県" d="M13448.1785,-3476.6478L13448.1771,-3476.6458L13448.1657,-3476.6508L13448.167,-3476.6529L13448.1785,-3476.6478Z"/>
<path content="兵庫県,,,たつの市,,28229" xlink:title="兵庫県" d="M13448.1524,-3476.6209L13448.1503,-3476.6164L13448.1449,-3476.6182L13448.1471,-3476.6226L13448.1524,-3476.6209Z"/>
<path content="兵庫県,,,たつの市,,28229" xlink:title="兵庫県" d="M13449.221,-3476.8733L13449.2182,-3476.8729L13449.2162,-3476.8774L13449.2179,-3476.8797L13449.2219,-3476.8782L13449.221,-3476.8733Z"/>
<path content="兵庫県,,,たつの市,,28229" xlink:title="兵庫県" d="M13448.2527,-3476.4099L13448.2513,-3476.4097L13448.2497,-3476.41L13448.249,-3476.4111L13448.2481,-3476.4139L13448.2501,-3476.414L13448.2516,-3476.4138L13448.2528,-3476.4124L13448.2534,-3476.4109L13448.2527,-3476.4099Z"/>
<path content="兵庫県,,,たつの市,,28229" xlink:title="兵庫県" d="M13448.2513,-3476.4265L13448.2505,-3476.4256L13448.2492,-3476.4256L13448.2484,-3476.427L13448.2491,-3476.4283L13448.2504,-3476.4284L13448.2514,-3476.4275L13448.2513,-3476.4265Z"/>
<path content="兵庫県,,,たつの市,,28229" xlink:title="兵庫県" d="M13448.2394,-3476.4465L13448.2386,-3476.4463L13448.2376,-3476.4469L13448.2382,-3476.4477L13448.239,-3476.4478L13448.2396,-3476.4472L13448.2394,-3476.4465Z"/>
<path content="兵庫県,,,たつの市,,28229" xlink:title="兵庫県" d="M13448.2421,-3476.4399L13448.2414,-3476.4396L13448.2404,-3476.4407L13448.2412,-3476.4411L13448.2421,-3476.4407L13448.2421,-3476.4399Z"/>
</g>
</svg>
