<?xml version="1.0" encoding="UTF-8"?>
<svg  xmlns="http://www.w3.org/2000/svg" xmlns:xlink="http://www.w3.org/1999/xlink" xmlns:go="http://purl.org/svgmap/profile" property="geometry,N03_001,N03_002,N03_003,N03_004,N03_005,N03_007" viewBox="13526.3671875 -3436.5234375 8.7890625 8.7890625" go:dataArea="13526.3671875 -3436.5234375 8.7890625 8.7890625" >
<metadata>
 <rdf:RDF xmlns:rdf="http://www.w3.org/1999/02/22-rdf-syntax-ns#" xmlns:crs="http://opengis.org/xmldtds/transformations.dtd" xmlns:svg="http://www.w3.org/svg" >
  <rdf:Description>
   <crs:CoordinateReferenceSystem rdf:resource="http://purl.org/crs/84" svg:transform="matrix(100.0,0.0,0.0,-100.0,0.0,0.0)" />
  </rdf:Description>
 </rdf:RDF>
</metadata>
<globalCoordinateSystem srsName="http://purl.org/crs/84" transform="matrix(100.0,0.0,0.0,-100.0,0.0,0.0)" />
<defs>
 <g id="p0" >
  <circle cx="0.0" cy="0.0" r="3" stroke="green" stroke-width="2.0" vector-effect="non-scaling-stroke" />
 </g>
</defs>
<g fill="#0000ff" fill-rule="evenodd" opacity="0.5" >
<path content="大阪府,,,泉佐野市,,27213" xlink:title="大阪府" d="M13535.1562,-3436.5234L13535.1562,-3433.2046L13535.0344,-3433.1664L13535,-3433.1612L13534.9899,-3433.1597L13534.9364,-3433.1752L13534.8615,-3433.1501L13534.8249,-3433.1072L13534.8004,-3433.0962L13534.74,-3433.0834L13534.7099,-3433.0921L13534.6979,-3433.0902L13534.6864,-3433.0856L13534.6678,-3433.0706L13534.6571,-3433.0682L13534.6387,-3433.0641L13534.6194,-3433.0503L13534.59,-3433.0525L13534.5597,-3433.0747L13534.5356,-3433.1583L13534.4866,-3433.2282L13534.4442,-3433.2543L13534.4241,-3433.2689L13534.4055,-3433.2986L13534.3759,-3433.3333L13534.3464,-3433.3679L13534.3271,-3433.3984L13534.2878,-3433.4457L13534.2744,-3433.454L13534.2713,-3433.4559L13534.2527,-3433.4675L13534.2199,-3433.5111L13534.2014,-3433.5215L13534.1667,-3433.5278L13534.1384,-3433.533L13534.0801,-3433.5268L13534.0205,-3433.5294L13533.9458,-3433.5046L13533.9206,-3433.4962L13533.8894,-3433.4962L13533.8997,-3433.5039L13533.9382,-3433.533L13533.9851,-3433.5824L13534.0155,-3433.6246L13534.0382,-3433.6626L13534.0367,-3433.6902L13534.0359,-3433.6937L13534.0123,-3433.7877L13533.9917,-3433.8844L13533.9819,-3433.9359L13533.9525,-3433.9782L13533.9378,-3434.0025L13533.9338,-3434.0163L13533.9338,-3434.0651L13533.9319,-3434.0797L13533.9143,-3434.1024L13533.9103,-3434.1032L13533.8682,-3434.0967L13533.8447,-3434.1016L13533.8221,-3434.1065L13533.8133,-3434.1024L13533.7967,-3434.0797L13533.7859,-3434.0716L13533.7683,-3434.0683L13533.732,-3434.0846L13533.6759,-3434.1206L13533.6436,-3434.1629L13533.6404,-3434.1667L13533.6367,-3434.171L13533.6348,-3434.1718L13533.6309,-3434.171L13533.6248,-3434.1667L13533.6103,-3434.1564L13533.5956,-3434.1539L13533.5809,-3434.1426L13533.5633,-3434.1263L13533.5476,-3434.1182L13533.5462,-3434.118L13533.5407,-3434.1174L13533.5133,-3434.1271L13533.4947,-3434.1434L13533.4899,-3434.1518L13533.4815,-3434.1667L13533.4721,-3434.1833L13533.4642,-3434.2085L13533.4593,-3434.2101L13533.4544,-3434.2125L13533.4456,-3434.2125L13533.3917,-3434.1963L13533.3333,-3434.1882L13533.3042,-3434.1841L13533.2876,-3434.1752L13533.2797,-3434.1667L13533.2484,-3434.133L13533.2063,-3434.098L13533.1955,-3434.0875L13533.1837,-3434.0794L13533.1573,-3434.0737L13533.1376,-3434.0662L13533.1287,-3434.0361L13533.1287,-3434.0158L13533.1239,-3434.0044L13533.1141,-3433.9979L13533.0944,-3433.9971L13533.067,-3433.9961L13533.0504,-3433.9955L13533.0166,-3433.9906L13532.9941,-3433.9857L13532.9843,-3433.9816L13532.9804,-3433.9824L13532.9716,-3433.9849L13532.9667,-3433.9889L13532.9431,-3434.0361L13532.9144,-3434.0877L13532.913,-3434.0902L13532.8863,-3434.1384L13532.8696,-3434.1614L13532.8696,-3434.1667L13532.8696,-3434.1695L13532.8706,-3434.1841L13532.8922,-3434.2329L13532.9019,-3434.2637L13532.9056,-3434.2911L13532.9059,-3434.293L13532.8931,-3434.3916L13532.8579,-3434.5413L13532.8177,-3434.5819L13532.7637,-3434.626L13532.7304,-3434.6715L13532.7275,-3434.6869L13532.7363,-3434.7113L13532.7569,-3434.7332L13532.752,-3434.7888L13532.7412,-3434.8034L13532.7187,-3434.8334L13532.7147,-3434.8497L13532.7099,-3434.9057L13532.7079,-3434.928L13532.7053,-3434.9356L13532.6834,-3435L13532.6795,-3435.0117L13532.6775,-3435.0255L13532.6657,-3435.0457L13532.6569,-3435.0547L13532.5952,-3435.0766L13532.5726,-3435.0839L13532.502,-3435.1068L13532.5,-3435.1068L13532.4951,-3435.1068L13532.4736,-3435.0938L13532.4539,-3435.0914L13532.4383,-3435.0954L13532.4157,-3435.1141L13532.4059,-3435.1564L13532.3981,-3435.1824L13532.3461,-3435.2272L13532.3363,-3435.2402L13532.3333,-3435.2476L13532.3421,-3435.2646L13532.3549,-3435.2784L13532.3608,-3435.2947L13532.3627,-3435.3101L13532.3588,-3435.3223L13532.3657,-3435.3583L13532.3657,-3435.3713L13532.3363,-3435.3802L13532.303,-3435.3891L13532.2971,-3435.3916L13532.2951,-3435.3981L13532.2941,-3435.4338L13532.2834,-3435.4598L13532.2559,-3435.4942L13532.2353,-3435.5088L13532.2167,-3435.5218L13532.198,-3435.5372L13532.2088,-3435.5583L13532.2262,-3435.598L13532.2338,-3435.6221L13532.2303,-3435.6422L13532.2291,-3435.6638L13532.227,-3435.6876L13532.2319,-3435.7214L13532.2367,-3435.7619L13532.2365,-3435.8024L13532.2404,-3435.8267L13532.2424,-3435.8333L13532.2443,-3435.8394L13532.256,-3435.8774L13532.275,-3435.919L13532.295,-3435.9489L13532.3209,-3435.9632L13532.3244,-3436.0452L13532.3393,-3436.0877L13532.3403,-3436.0907L13532.3539,-3436.1297L13532.3911,-3436.1589L13532.4471,-3436.2167L13532.4578,-3436.2322L13532.4773,-3436.2916L13532.4794,-3436.298L13532.4838,-3436.3038L13532.5,-3436.3249L13532.5049,-3436.3313L13532.5147,-3436.3438L13532.5157,-3436.3495L13532.5127,-3436.3527L13532.5,-3436.3499L13532.498,-3436.3495L13532.4451,-3436.3365L13532.4157,-3436.3235L13532.3961,-3436.3202L13532.3391,-3436.3315L13532.3138,-3436.3365L13532.2773,-3436.3422L13532.2469,-3436.3682L13532.2341,-3436.382L13532.1969,-3436.4218L13532.2224,-3436.4445L13532.2137,-3436.5234Z"/>
<path content="大阪府,,,泉南市,,27228" xlink:title="大阪府" d="M13532.2137,-3436.5234L13532.2224,-3436.4445L13532.1969,-3436.4218L13532.2341,-3436.382L13532.2469,-3436.3682L13532.2773,-3436.3422L13532.3138,-3436.3365L13532.3391,-3436.3315L13532.3961,-3436.3202L13532.4157,-3436.3235L13532.4451,-3436.3365L13532.498,-3436.3495L13532.5,-3436.3499L13532.5127,-3436.3527L13532.5157,-3436.3495L13532.5147,-3436.3438L13532.5049,-3436.3313L13532.5,-3436.3249L13532.4838,-3436.3038L13532.4794,-3436.298L13532.4773,-3436.2916L13532.4578,-3436.2322L13532.4471,-3436.2167L13532.3911,-3436.1589L13532.3539,-3436.1297L13532.3403,-3436.0907L13532.3393,-3436.0877L13532.3244,-3436.0452L13532.3209,-3435.9632L13532.295,-3435.9489L13532.275,-3435.919L13532.256,-3435.8774L13532.2443,-3435.8394L13532.2424,-3435.8333L13532.2404,-3435.8267L13532.2365,-3435.8024L13532.2367,-3435.7619L13532.2319,-3435.7214L13532.227,-3435.6876L13532.2291,-3435.6638L13532.2303,-3435.6422L13532.2338,-3435.6221L13532.2262,-3435.598L13532.2088,-3435.5583L13532.198,-3435.5372L13532.2167,-3435.5218L13532.2353,-3435.5088L13532.2559,-3435.4942L13532.2834,-3435.4598L13532.2941,-3435.4338L13532.2951,-3435.3981L13532.2971,-3435.3916L13532.303,-3435.3891L13532.3363,-3435.3802L13532.3657,-3435.3713L13532.3657,-3435.3583L13532.3588,-3435.3223L13532.3627,-3435.3101L13532.3608,-3435.2947L13532.3549,-3435.2784L13532.3421,-3435.2646L13532.3333,-3435.2476L13532.3363,-3435.2402L13532.3461,-3435.2272L13532.3981,-3435.1824L13532.4059,-3435.1564L13532.4157,-3435.1141L13532.4383,-3435.0954L13532.4539,-3435.0914L13532.4736,-3435.0938L13532.4951,-3435.1068L13532.5,-3435.1068L13532.502,-3435.1068L13532.5726,-3435.0839L13532.5952,-3435.0766L13532.6569,-3435.0547L13532.6657,-3435.0457L13532.6775,-3435.0255L13532.6795,-3435.0117L13532.6834,-3435L13532.7053,-3434.9356L13532.7079,-3434.928L13532.7099,-3434.9057L13532.7147,-3434.8497L13532.7187,-3434.8334L13532.7412,-3434.8034L13532.752,-3434.7888L13532.7569,-3434.7332L13532.7363,-3434.7113L13532.7275,-3434.6869L13532.7304,-3434.6715L13532.7637,-3434.626L13532.8177,-3434.5819L13532.8579,-3434.5413L13532.8931,-3434.3916L13532.9059,-3434.293L13532.9056,-3434.2911L13532.9019,-3434.2637L13532.8922,-3434.2329L13532.8706,-3434.1841L13532.8696,-3434.1695L13532.8696,-3434.1667L13532.8696,-3434.1614L13532.8863,-3434.1384L13532.913,-3434.0902L13532.9144,-3434.0877L13532.9431,-3434.0361L13532.9667,-3433.9889L13532.9716,-3433.9849L13532.9804,-3433.9824L13532.9843,-3433.9816L13532.9941,-3433.9857L13533.0166,-3433.9906L13533.0504,-3433.9955L13533.067,-3433.9961L13533.0944,-3433.9971L13533.1141,-3433.9979L13533.1239,-3434.0044L13533.1287,-3434.0158L13533.1287,-3434.0361L13533.1376,-3434.0662L13533.1573,-3434.0737L13533.1837,-3434.0794L13533.1955,-3434.0875L13533.2063,-3434.098L13533.2484,-3434.133L13533.2797,-3434.1667L13533.2876,-3434.1752L13533.3042,-3434.1841L13533.3333,-3434.1882L13533.3917,-3434.1963L13533.4456,-3434.2125L13533.4544,-3434.2125L13533.4593,-3434.2101L13533.4642,-3434.2085L13533.4721,-3434.1833L13533.4815,-3434.1667L13533.4899,-3434.1518L13533.4947,-3434.1434L13533.5133,-3434.1271L13533.5407,-3434.1174L13533.5462,-3434.118L13533.5476,-3434.1182L13533.5633,-3434.1263L13533.5809,-3434.1426L13533.5956,-3434.1539L13533.6103,-3434.1564L13533.6248,-3434.1667L13533.6309,-3434.171L13533.6348,-3434.1718L13533.6367,-3434.171L13533.6404,-3434.1667L13533.6436,-3434.1629L13533.6759,-3434.1206L13533.732,-3434.0846L13533.7683,-3434.0683L13533.7859,-3434.0716L13533.7967,-3434.0797L13533.8133,-3434.1024L13533.8221,-3434.1065L13533.8447,-3434.1016L13533.8682,-3434.0967L13533.9103,-3434.1032L13533.9143,-3434.1024L13533.9319,-3434.0797L13533.9338,-3434.0651L13533.9338,-3434.0163L13533.9378,-3434.0025L13533.9525,-3433.9782L13533.9819,-3433.9359L13533.9917,-3433.8844L13534.0123,-3433.7877L13534.0359,-3433.6937L13534.0367,-3433.6902L13534.0382,-3433.6626L13534.0155,-3433.6246L13533.9851,-3433.5824L13533.9382,-3433.533L13533.8997,-3433.5039L13533.8894,-3433.4962L13533.8829,-3433.4986L13533.8654,-3433.505L13533.8407,-3433.5272L13533.8238,-3433.5278L13533.7606,-3433.5045L13533.7529,-3433.4971L13533.7544,-3433.4898L13533.8299,-3433.4418L13533.8717,-3433.4041L13533.8896,-3433.3634L13533.8946,-3433.3333L13533.9056,-3433.2665L13533.9443,-3433.209L13533.9485,-3433.1957L13533.9209,-3433.127L13533.9137,-3433.0737L13533.9275,-3432.9825L13533.9262,-3432.9687L13533.9136,-3432.943L13533.8057,-3432.8535L13533.7769,-3432.8274L13533.7166,-3432.7728L13533.6381,-3432.7477L13533.6301,-3432.7366L13533.6034,-3432.7196L13533.5744,-3432.7L13533.5575,-3432.6475L13533.5495,-3432.6342L13533.4942,-3432.6127L13533.4719,-3432.5802L13533.458,-3432.5679L13533.4443,-3432.5609L13533.4227,-3432.5555L13533.4051,-3432.5584L13533.3788,-3432.5727L13533.3645,-3432.5781L13533.3499,-3432.5777L13533.3333,-3432.5718L13533.3205,-3432.5673L13533.3016,-3432.5646L13533.2646,-3432.5735L13533.1888,-3432.5624L13533.1166,-3432.5424L13533.0248,-3432.5254L13532.9864,-3432.5099L13532.9787,-3432.5L13532.9446,-3432.4561L13532.895,-3432.4334L13532.8527,-3432.414L13532.8028,-3432.4029L13532.7903,-3432.3747L13532.7905,-3432.3723L13532.7908,-3432.3686L13532.7913,-3432.3627L13532.7957,-3432.306L13532.8368,-3432.2234L13532.8537,-3432.1435L13532.8671,-3432.1258L13532.8983,-3432.1161L13532.9705,-3432.0437L13532.9991,-3431.9997L13533.0383,-3431.9708L13533.0498,-3431.9538L13533.0356,-3431.9235L13533.0133,-3431.8389L13533.0177,-3431.7886L13533.0543,-3431.702L13533.0507,-3431.6746L13533.0409,-3431.6702L13533.0021,-3431.6992L13532.9776,-3431.7176L13532.9444,-3431.7704L13532.8927,-3431.8163L13532.8099,-3431.8614L13532.7354,-3431.8748L13532.6677,-3431.9014L13532.5937,-3431.9154L13532.5179,-3431.908L13532.5,-3431.909L13532.4199,-3431.9132L13532.3606,-3431.8864L13532.2906,-3431.8548L13532.2644,-3431.833L13532.2376,-3431.7908L13532.2171,-3431.7752L13532.1574,-3431.7679L13532.0777,-3431.7389L13532.0188,-3431.7078L13531.9777,-3431.6667L13531.9671,-3431.6561L13531.9351,-3431.6464L13531.8495,-3431.6346L13531.8138,-3431.6205L13531.796,-3431.5998L13531.7688,-3431.5787L13531.7252,-3431.5662L13531.6667,-3431.5463L13531.6663,-3431.5462L13531.6378,-3431.544L13531.5888,-3431.5588L13531.4916,-3431.5181L13531.4444,-3431.5077L13531.4184,-3431.5077L13531.4096,-3431.5077L13531.3918,-3431.4781L13531.3749,-3431.4648L13531.3446,-3431.4478L13531.3339,-3431.4227L13531.316,-3431.4094L13531.2768,-3431.399L13531.2307,-3431.4005L13531.1924,-3431.3946L13531.1603,-3431.3701L13531.1354,-3431.3576L13531.089,-3431.362L13531.0177,-3431.3502L13530.9838,-3431.3287L13530.9642,-3431.3257L13530.9152,-3431.3324L13530.8849,-3431.342L13530.8573,-3431.382L13530.8333,-3431.3975L13530.7601,-3431.4448L13530.7391,-3431.445L13530.7293,-3431.4451L13530.7007,-3431.4454L13530.4729,-3431.39L13530.3967,-3431.3715L13530.3905,-3431.316L13530.3914,-3431.2612L13530.4058,-3431.2126L13530.437,-3431.1645L13530.4479,-3431.1417L13530.4593,-3431.1179L13530.4611,-3431.0639L13530.4495,-3430.9929L13530.4127,-3430.9192L13530.394,-3430.8585L13530.38,-3430.8333L13530.3262,-3430.7362L13530.3066,-3430.6629L13530.3019,-3430.656L13530.2944,-3430.653L13530.2766,-3430.6459L13530.2677,-3430.5821L13530.2637,-3430.5539L13530.2644,-3430.4878L13530.2537,-3430.4664L13530.2305,-3430.4553L13530.1743,-3430.4546L13530.1547,-3430.4464L13530.1485,-3430.4272L13530.1583,-3430.3909L13530.1467,-3430.365L13530.0894,-3430.3314L13530.0832,-3430.3129L13530.0877,-3430.2841L13530.0841,-3430.2619L13530.0627,-3430.2516L13530.0342,-3430.2479L13530,-3430.2526L13529.8916,-3430.2678L13529.8568,-3430.2701L13529.8425,-3430.2516L13529.8229,-3430.1458L13529.7953,-3430.1064L13529.7866,-3430.1003L13529.7596,-3430.0813L13529.7552,-3430.0782L13529.7156,-3430.0887L13529.6661,-3430.1088L13529.6098,-3430.1319L13529.5997,-3430.136L13529.5926,-3430.1168L13529.5774,-3430.0295L13529.556,-3430.0192L13529.5132,-3430.0236L13529.4775,-3430.0495L13529.4428,-3430.0088L13529.3813,-3430.0044L13529.3724,-3430L13529.3486,-3429.9884L13529.3433,-3429.9371L13529.3373,-3429.9293L13529.2914,-3429.9244L13529.2039,-3429.9521L13529.1791,-3429.9537L13529.1667,-3429.9546L13529.1636,-3429.9548L13529.1383,-3429.9762L13529.1236,-3429.9959L13529.1214,-3430L13529.0894,-3430.0594L13529.0488,-3430.11L13528.9832,-3430.1698L13528.9655,-3430.1946L13528.9627,-3430.2032L13528.9349,-3430.2909L13528.9237,-3430.3146L13528.8527,-3430.3918L13528.7883,-3430.4902L13528.776,-3430.5237L13528.7742,-3430.5544L13528.7742,-3430.5557L13528.7896,-3430.5874L13528.7833,-3430.6056L13528.7705,-3430.6331L13528.7557,-3430.6437L13528.7422,-3430.6455L13528.7288,-3430.6473L13528.7111,-3430.6585L13528.6982,-3430.6752L13528.6823,-3430.7477L13528.6627,-3430.7817L13528.6559,-3430.798L13528.6539,-3430.8333L13528.6517,-3430.8721L13528.6449,-3430.94L13528.6161,-3430.9761L13528.5996,-3431.0035L13528.5981,-3431.0113L13528.5928,-3431.0398L13528.6367,-3431.1323L13528.6421,-3431.1539L13528.6499,-3431.185L13528.6609,-3431.2284L13528.6603,-3431.2576L13528.6308,-3431.3366L13528.5774,-3431.4003L13528.5474,-3431.4556L13528.4985,-3431.5623L13528.4617,-3431.617L13528.409,-3431.6667L13528.3496,-3431.7226L13528.3333,-3431.7439L13528.3176,-3431.7645L13528.2812,-3431.791L13528.2552,-3431.7876L13528.2263,-3431.8501L13528.1902,-3431.9292L13528.1589,-3432.0177L13528.1035,-3432.1516L13528.0846,-3432.198L13528.0712,-3432.2308L13528.0639,-3432.2487L13528.0585,-3432.2653L13528.04,-3432.3223L13527.9578,-3432.4968L13527.9564,-3432.5L13527.9411,-3432.5327L13527.8968,-3432.5971L13527.9368,-3432.6196L13527.9508,-3432.6274L13527.9512,-3432.6449L13527.9263,-3432.6766L13527.792,-3432.8167L13527.7111,-3432.88L13527.6712,-3432.9316L13527.6126,-3432.9757L13527.5537,-3432.9953L13527.5178,-3433.0244L13527.5001,-3433.0701L13527.5,-3433.0703L13527.4871,-3433.0951L13527.4212,-3433.1592L13527.3673,-3433.2248L13527.3144,-3433.2891L13527.294,-3433.314L13527.2868,-3433.3227L13527.2782,-3433.3333L13527.2319,-3433.3897L13527.0089,-3433.6377L13526.9841,-3433.6624L13526.9729,-3433.6812L13526.9729,-3433.6901L13526.9754,-3433.6996L13526.9902,-3433.7187L13526.9903,-3433.7187L13526.9919,-3433.7249L13526.9878,-3433.7392L13526.9837,-3433.7638L13526.9878,-3433.7822L13527.0034,-3433.8123L13527.0076,-3433.8273L13527.0067,-3433.8362L13526.9944,-3433.8451L13526.9456,-3433.8515L13526.9308,-3433.8584L13526.9193,-3433.87L13526.9193,-3433.8823L13526.9225,-3433.8918L13526.9357,-3433.9137L13526.9374,-3433.9281L13526.9374,-3433.9362L13526.8977,-3433.9796L13526.8754,-3434.0021L13526.8639,-3434.011L13526.8168,-3434.009L13526.8028,-3434.0131L13526.7977,-3434.0173L13526.7954,-3434.0192L13526.7196,-3434.1135L13526.6866,-3434.1553L13526.6813,-3434.1667L13526.6789,-3434.1717L13526.6746,-3434.181L13526.6723,-3434.1859L13526.6686,-3434.194L13526.6667,-3434.198L13526.6586,-3434.2154L13526.6586,-3434.2441L13526.6667,-3434.2618L13526.6718,-3434.273L13526.6858,-3434.3147L13526.6858,-3434.3243L13526.6825,-3434.3413L13526.6667,-3434.3673L13526.6544,-3434.3874L13526.6264,-3434.4277L13526.6276,-3434.4473L13526.6288,-3434.4687L13526.6255,-3434.4837L13526.6213,-3434.4927L13526.6141,-3434.5082L13526.6026,-3434.5329L13526.5986,-3434.5414L13526.5889,-3434.5622L13526.5804,-3434.5804L13526.5693,-3434.6044L13526.5619,-3434.6202L13526.533,-3434.674L13526.5239,-3434.6854L13526.4759,-3434.7312L13526.4497,-3434.7561L13526.4034,-3434.8203L13526.3938,-3434.8335L13526.3834,-3434.8479L13526.3672,-3434.8703L13526.3672,-3436.5234Z"/>
<path content="大阪府,,,阪南市,,27232" xlink:title="大阪府" d="M13526.3672,-3434.8703L13526.3834,-3434.8479L13526.3938,-3434.8335L13526.4034,-3434.8203L13526.4497,-3434.7561L13526.4759,-3434.7312L13526.5239,-3434.6854L13526.533,-3434.674L13526.5619,-3434.6202L13526.5693,-3434.6044L13526.5804,-3434.5804L13526.5889,-3434.5622L13526.5986,-3434.5414L13526.6026,-3434.5329L13526.6141,-3434.5082L13526.6213,-3434.4927L13526.6255,-3434.4837L13526.6288,-3434.4687L13526.6276,-3434.4473L13526.6264,-3434.4277L13526.6544,-3434.3874L13526.6667,-3434.3673L13526.6825,-3434.3413L13526.6858,-3434.3243L13526.6858,-3434.3147L13526.6718,-3434.273L13526.6667,-3434.2618L13526.6586,-3434.2441L13526.6586,-3434.2154L13526.6667,-3434.198L13526.6686,-3434.194L13526.6723,-3434.1859L13526.6746,-3434.181L13526.6789,-3434.1717L13526.6813,-3434.1667L13526.6866,-3434.1553L13526.7196,-3434.1135L13526.7954,-3434.0192L13526.7977,-3434.0173L13526.8028,-3434.0131L13526.8168,-3434.009L13526.8639,-3434.011L13526.8754,-3434.0021L13526.8977,-3433.9796L13526.9374,-3433.9362L13526.9374,-3433.9281L13526.9357,-3433.9137L13526.9225,-3433.8918L13526.9193,-3433.8823L13526.9193,-3433.87L13526.9308,-3433.8584L13526.9456,-3433.8515L13526.9944,-3433.8451L13527.0067,-3433.8362L13527.0076,-3433.8273L13527.0034,-3433.8123L13526.9878,-3433.7822L13526.9837,-3433.7638L13526.9878,-3433.7392L13526.9919,-3433.7249L13526.9903,-3433.7187L13526.9902,-3433.7187L13526.9754,-3433.6996L13526.9729,-3433.6901L13526.9729,-3433.6812L13526.9841,-3433.6624L13527.0089,-3433.6377L13527.2319,-3433.3897L13527.2782,-3433.3333L13527.2868,-3433.3227L13527.294,-3433.314L13527.3144,-3433.2891L13527.3673,-3433.2248L13527.4212,-3433.1592L13527.4871,-3433.0951L13527.5,-3433.0703L13527.5001,-3433.0701L13527.5178,-3433.0244L13527.5537,-3432.9953L13527.6126,-3432.9757L13527.6712,-3432.9316L13527.7111,-3432.88L13527.792,-3432.8167L13527.9263,-3432.6766L13527.9512,-3432.6449L13527.9508,-3432.6274L13527.9368,-3432.6196L13527.8968,-3432.5971L13527.9411,-3432.5327L13527.9564,-3432.5L13527.9578,-3432.4968L13528.04,-3432.3223L13528.0585,-3432.2653L13528.0639,-3432.2487L13528.0712,-3432.2308L13528.0846,-3432.198L13528.1035,-3432.1516L13528.1589,-3432.0177L13528.1902,-3431.9292L13528.2263,-3431.8501L13528.2552,-3431.7876L13528.254,-3431.7857L13528.2469,-3431.7749L13528.2244,-3431.7386L13528.1906,-3431.7045L13528.131,-3431.6667L13528.1245,-3431.6626L13528.0904,-3431.6402L13528.0479,-3431.6316L13528.0071,-3431.6361L13527.992,-3431.6311L13527.9583,-3431.5994L13527.9534,-3431.5948L13527.9161,-3431.5809L13527.8955,-3431.5798L13527.8625,-3431.595L13527.8296,-3431.5845L13527.7428,-3431.5622L13527.7204,-3431.5513L13527.7208,-3431.5235L13527.6917,-3431.4595L13527.6764,-3431.4464L13527.6487,-3431.4226L13527.6017,-3431.4007L13527.5136,-3431.3839L13527.5,-3431.375L13527.4593,-3431.3482L13527.3749,-3431.3255L13527.3441,-3431.2955L13527.2737,-3431.2207L13527.2627,-3431.2153L13527.2283,-3431.1984L13527.21,-3431.206L13527.1859,-3431.2359L13527.1626,-3431.2425L13527.1041,-3431.2466L13527.0461,-3431.2451L13527.0065,-3431.2441L13526.9262,-3431.2421L13526.8638,-3431.2405L13526.7587,-3431.2516L13526.6667,-3431.2612L13526.6486,-3431.2631L13526.6049,-3431.2641L13526.5877,-3431.2645L13526.5587,-3431.2781L13526.5345,-3431.2894L13526.5,-3431.297L13526.4544,-3431.3185L13526.4313,-3431.3209L13526.4053,-3431.3136L13526.3855,-3431.3122L13526.3672,-3431.3132Z"/>
</g>
</svg>
