<?xml version="1.0" encoding="UTF-8"?>
<svg  xmlns="http://www.w3.org/2000/svg" xmlns:xlink="http://www.w3.org/1999/xlink" xmlns:go="http://purl.org/svgmap/profile" property="geometry,N03_001,N03_002,N03_003,N03_004,N03_005,N03_007" viewBox="13451.66015625 -3471.6796875 4.39453125 4.39453125" go:dataArea="13451.66015625 -3471.6796875 4.39453125 4.39453125" >
<metadata>
 <rdf:RDF xmlns:rdf="http://www.w3.org/1999/02/22-rdf-syntax-ns#" xmlns:crs="http://opengis.org/xmldtds/transformations.dtd" xmlns:svg="http://www.w3.org/svg" >
  <rdf:Description>
   <crs:CoordinateReferenceSystem rdf:resource="http://purl.org/crs/84" svg:transform="matrix(100.0,0.0,0.0,-100.0,0.0,0.0)" />
  </rdf:Description>
 </rdf:RDF>
</metadata>
<globalCoordinateSystem srsName="http://purl.org/crs/84" transform="matrix(100.0,0.0,0.0,-100.0,0.0,0.0)" />
<defs>
 <g id="p0" >
  <circle cx="0.0" cy="0.0" r="3" stroke="green" stroke-width="2.0" vector-effect="non-scaling-stroke" />
 </g>
</defs>
<g fill="#0000ff" fill-rule="evenodd" opacity="0.5" >
<path content="兵庫県,,,姫路市,,28201" xlink:title="兵庫県" d="M13453.5589,-3468.6552L13453.5662,-3468.6477L13453.5714,-3468.6486L13453.5761,-3468.6459L13453.578,-3468.6425L13453.5864,-3468.6392L13453.5872,-3468.6317L13453.5927,-3468.6277L13453.5938,-3468.6223L13453.6015,-3468.6159L13453.6023,-3468.6039L13453.6096,-3468.6032L13453.6133,-3468.5978L13453.6269,-3468.5972L13453.6316,-3468.5945L13453.6331,-3468.5906L13453.6416,-3468.5906L13453.65,-3468.5879L13453.6533,-3468.5803L13453.6607,-3468.5773L13453.6607,-3468.5713L13453.6724,-3468.5682L13453.6783,-3468.5598L13453.6824,-3468.5601L13453.6875,-3468.5583L13453.6916,-3468.548L13453.6993,-3468.5495L13453.7059,-3468.5462L13453.7063,-3468.5399L13453.7107,-3468.5408L13453.7155,-3468.5369L13453.7177,-3468.5284L13453.7243,-3468.5266L13453.7272,-3468.5202L13453.7331,-3468.5145L13453.7404,-3468.5127L13453.7478,-3468.5057L13453.7456,-3468.4988L13453.7522,-3468.494L13453.7526,-3468.4834L13453.7566,-3468.4825L13453.7599,-3468.4789L13453.7603,-3468.4722L13453.7636,-3468.4689L13453.7633,-3468.4632L13453.7541,-3468.4577L13453.7482,-3468.4568L13453.7482,-3468.4535L13453.7412,-3468.4502L13453.7335,-3468.4505L13453.7302,-3468.4459L13453.7243,-3468.4426L13453.7111,-3468.4423L13453.7092,-3468.4402L13453.7022,-3468.4396L13453.7022,-3468.4351L13453.6963,-3468.4324L13453.6941,-3468.4242L13453.6879,-3468.4206L13453.6772,-3468.4209L13453.675,-3468.4154L13453.6684,-3468.4136L13453.6592,-3468.4157L13453.6574,-3468.4094L13453.6523,-3468.4064L13453.643,-3468.4052L13453.6412,-3468.4006L13453.6343,-3468.3955L13453.6287,-3468.3958L13453.6265,-3468.3907L13453.6214,-3468.3876L13453.6107,-3468.3874L13453.6104,-3468.3825L13453.6059,-3468.3786L13453.5942,-3468.3792L13453.5916,-3468.375L13453.5854,-3468.371L13453.5754,-3468.371L13453.5751,-3468.3629L13453.5666,-3468.3581L13453.5596,-3468.3577L13453.5582,-3468.3547L13453.553,-3468.3499L13453.5449,-3468.3487L13453.5424,-3468.3442L13453.5354,-3468.3396L13453.5251,-3468.3408L13453.5229,-3468.3369L13453.5166,-3468.3345L13453.5037,-3468.3342L13453.5036,-3468.3333L13453.5023,-3468.3248L13453.5017,-3468.3242L13453.4983,-3468.3206L13453.4902,-3468.3215L13453.4821,-3468.3272L13453.4751,-3468.3185L13453.4711,-3468.3176L13453.4652,-3468.3182L13453.4601,-3468.3224L13453.4582,-3468.3188L13453.4512,-3468.317L13453.4417,-3468.3188L13453.4398,-3468.3134L13453.4339,-3468.3076L13453.424,-3468.3067L13453.4229,-3468.2995L13453.4159,-3468.2928L13453.4034,-3468.2949L13453.4029,-3468.293L13453.4023,-3468.291L13453.403,-3468.2862L13453.4231,-3468.266L13453.3631,-3468.2153L13453.3333,-3468.0999L13453.3203,-3468.0485L13453.3331,-3468.0405L13453.3333,-3468.0404L13453.4092,-3467.9926L13453.4049,-3467.9869L13453.3491,-3468.0221L13453.3389,-3468.0284L13453.3333,-3468.0319L13453.3305,-3468.0336L13453.3011,-3468.0523L13453.2852,-3468.0631L13453.2839,-3468.064L13453.1279,-3467.9884L13453.1218,-3467.9963L13453.0324,-3467.9729L13453.0071,-3468.0309L13452.9971,-3468.0417L13452.9946,-3468.0544L13452.9758,-3468.081L13452.9587,-3468.0965L13452.9255,-3468.1214L13452.9205,-3468.1308L13452.9224,-3468.1434L13452.9181,-3468.145L13452.8895,-3468.1457L13452.8774,-3468.1434L13452.8727,-3468.1411L13452.8572,-3468.1322L13452.8399,-3468.1177L13452.8354,-3468.1106L13452.834,-3468.1004L13452.8418,-3468.0797L13452.8535,-3468.0546L13452.879,-3467.9997L13452.8231,-3467.9839L13452.8199,-3467.9982L13452.796,-3467.9871L13452.7889,-3467.9684L13452.8021,-3467.9663L13452.7957,-3467.9464L13452.7753,-3467.9467L13452.7746,-3467.9359L13452.7793,-3467.9221L13452.7921,-3467.911L13452.8088,-3467.899L13452.8263,-3467.8876L13452.8309,-3467.8782L13452.8316,-3467.8498L13452.8277,-3467.8361L13452.8163,-3467.817L13452.7953,-3467.791L13452.7856,-3467.7759L13452.7875,-3467.7716L13452.8138,-3467.7986L13452.824,-3467.7906L13452.7526,-3467.7233L13452.7675,-3467.7125L13452.8017,-3467.6976L13452.8192,-3467.6981L13452.8718,-3467.737L13452.8614,-3467.7486L13452.8674,-3467.7531L13452.8779,-3467.7415L13452.8769,-3467.7408L13452.9011,-3467.7051L13452.9367,-3467.7074L13452.9371,-3467.7153L13452.9493,-3467.7151L13452.9913,-3467.7142L13452.9925,-3467.7558L13453.0007,-3467.7556L13452.9995,-3467.7263L13453.0005,-3467.726L13453.0043,-3467.7273L13453.012,-3467.7289L13453.0205,-3467.7255L13453.0245,-3467.7301L13453.0356,-3467.7307L13453.0396,-3467.7286L13453.0418,-3467.7313L13453.0539,-3467.7322L13453.0598,-3467.7304L13453.0671,-3467.7346L13453.0752,-3467.7352L13453.0807,-3467.7294L13453.0851,-3467.7325L13453.0999,-3467.7307L13453.1057,-3467.7264L13453.1083,-3467.7294L13453.1149,-3467.7286L13453.1219,-3467.7219L13453.1307,-3467.7237L13453.1414,-3467.7189L13453.1414,-3467.715L13453.1521,-3467.7156L13453.1624,-3467.7071L13453.1653,-3467.7029L13453.1726,-3467.7029L13453.1815,-3467.6968L13453.1833,-3467.692L13453.1906,-3467.692L13453.1973,-3467.6869L13453.2006,-3467.6811L13453.2097,-3467.6826L13453.2182,-3467.6721L13453.2252,-3467.6712L13453.2326,-3467.6636L13453.2307,-3467.6567L13453.2377,-3467.6543L13453.241,-3467.6485L13453.2383,-3467.6455L13453.2347,-3467.6414L13453.2424,-3467.6359L13453.2449,-3467.6233L13453.2453,-3467.599L13453.2424,-3467.5896L13453.2364,-3467.5756L13453.2166,-3467.5479L13453.1938,-3467.5289L13453.1523,-3467.5L13453.15,-3467.4984L13453.1304,-3467.4773L13453.1094,-3467.4529L13453.0737,-3467.3938L13453.0684,-3467.381L13453.0666,-3467.3722L13453.0684,-3467.365L13453.0737,-3467.3529L13453.0848,-3467.336L13453.104,-3467.3067L13453.123,-3467.2852L13453.1539,-3467.2852L13453.1586,-3467.2885L13453.1623,-3467.2852L13453.185,-3467.2852L13453.2008,-3467.2953L13453.2067,-3467.2983L13453.1872,-3467.3161L13453.1927,-3467.3211L13453.2122,-3467.3033L13453.2094,-3467.3008L13453.2226,-3467.2887L13453.2262,-3467.2852L13453.2374,-3467.2852L13453.2386,-3467.2865L13453.2415,-3467.2899L13453.2433,-3467.2991L13453.2386,-3467.3118L13453.2274,-3467.3274L13453.2078,-3467.3451L13453.1982,-3467.3602L13453.1935,-3467.3738L13453.1937,-3467.3858L13453.2016,-3467.403L13453.2099,-3467.4139L13453.2484,-3467.4428L13453.2708,-3467.4605L13453.3049,-3467.4934L13453.3111,-3467.5L13453.3333,-3467.5234L13453.3487,-3467.5396L13453.3751,-3467.5692L13453.3879,-3467.5873L13453.3913,-3467.5961L13453.3905,-3467.6131L13453.3856,-3467.6256L13453.3794,-3467.6354L13453.3678,-3467.6437L13453.3456,-3467.6511L13453.3333,-3467.6581L13453.3309,-3467.6595L13453.3202,-3467.6674L13453.3173,-3467.6755L13453.3175,-3467.6862L13453.3207,-3467.6946L13453.3333,-3467.7148L13453.3375,-3467.7215L13453.3552,-3467.7372L13453.3889,-3467.7606L13453.4088,-3467.7749L13453.4249,-3467.7805L13453.4409,-3467.786L13453.4549,-3467.7872L13453.455,-3467.7873L13453.4414,-3467.8351L13453.4998,-3467.8499L13453.5018,-3467.8433L13453.4511,-3467.8305L13453.4631,-3467.7884L13453.4634,-3467.7879L13453.5075,-3467.7915L13453.578,-3467.8142L13453.5766,-3467.8179L13453.6116,-3467.8284L13453.6104,-3467.831L13453.6115,-3467.8313L13453.6114,-3467.8322L13453.6147,-3467.8325L13453.6117,-3467.8594L13453.6084,-3467.8592L13453.6082,-3467.8609L13453.624,-3467.869L13453.623,-3467.8707L13453.5697,-3467.942L13453.5763,-3467.9461L13453.631,-3467.8725L13453.638,-3467.8761L13453.6389,-3467.8759L13453.638,-3467.8732L13453.6753,-3467.8642L13453.6763,-3467.8669L13453.6885,-3467.864L13453.6931,-3467.8644L13453.8073,-3467.8736L13453.8898,-3467.8438L13453.8766,-3467.8218L13453.9007,-3467.8009L13453.9229,-3467.7873L13454.0132,-3467.75L13454.0603,-3467.7393L13454.0898,-3467.7313L13454.1075,-3467.7791L13454.0651,-3467.7899L13454.067,-3467.7965L13454.11,-3467.7858L13454.1667,-3467.7736L13454.2111,-3467.7641L13454.2133,-3467.7687L13454.2148,-3467.7718L13454.2221,-3467.7775L13454.2306,-3467.7778L13454.2345,-3467.785L13454.2346,-3467.7854L13454.2376,-3467.7893L13454.2512,-3467.7911L13454.2534,-3467.7992L13454.2578,-3467.8047L13454.2721,-3467.8065L13454.2744,-3467.811L13454.2795,-3467.8156L13454.2923,-3467.8162L13454.2909,-3467.8246L13454.2953,-3467.8273L13454.3037,-3467.8291L13454.3037,-3467.8358L13454.3045,-3467.8415L13454.3173,-3467.8446L13454.3118,-3467.8512L13454.3111,-3467.8587L13454.3217,-3467.8636L13454.3159,-3467.8757L13454.3159,-3467.882L13454.3206,-3467.8871L13454.317,-3467.8971L13454.321,-3467.9041L13454.3287,-3467.9044L13454.3302,-3467.9173L13454.3328,-3467.9228L13454.3405,-3467.924L13454.3397,-3467.93L13454.3434,-3467.9358L13454.3526,-3467.9358L13454.3534,-3467.9436L13454.3596,-3467.9491L13454.3743,-3467.9494L13454.3751,-3467.9584L13454.3831,-3467.962L13454.3923,-3467.9623L13454.3978,-3467.9705L13454.4077,-3467.9729L13454.4184,-3467.9729L13454.4236,-3467.9784L13454.4283,-3467.9817L13454.4404,-3467.9799L13454.4463,-3467.9871L13454.4522,-3467.9892L13454.4603,-3467.9862L13454.4673,-3467.9919L13454.4772,-3467.9937L13454.4853,-3467.9907L13454.4956,-3467.9989L13454.5055,-3468.0001L13454.5129,-3467.9959L13454.5198,-3468.001L13454.5283,-3467.9989L13454.5353,-3467.9949L13454.5415,-3467.9986L13454.5504,-3467.9998L13454.5529,-3467.9941L13454.5581,-3467.9874L13454.5643,-3467.9916L13454.575,-3467.9913L13454.5776,-3467.9841L13454.5908,-3467.9826L13454.5919,-3467.9747L13454.5923,-3467.966L13454.6037,-3467.9593L13454.6027,-3467.9528L13454.6068,-3467.9507L13454.6101,-3467.9411L13454.6075,-3467.9371L13454.613,-3467.9281L13454.6083,-3467.9241L13454.6071,-3467.9109L13454.6016,-3467.9093L13454.6009,-3467.9027L13454.5987,-3467.9003L13454.5936,-3467.8979L13454.5924,-3467.893L13454.5792,-3467.8906L13454.5766,-3467.88L13454.5697,-3467.874L13454.5689,-3467.8671L13454.5641,-3467.8661L13454.5645,-3467.8568L13454.5575,-3467.8529L13454.559,-3467.8408L13454.5493,-3467.8366L13454.5485,-3467.8281L13454.5426,-3467.8215L13454.5423,-3467.8133L13454.5371,-3467.8055L13454.5349,-3467.7967L13454.536,-3467.7867L13454.532,-3467.7822L13454.5316,-3467.7753L13454.5305,-3467.7726L13454.5316,-3467.7641L13454.5246,-3467.7571L13454.5243,-3467.7472L13454.5199,-3467.7414L13454.5217,-3467.7327L13454.5166,-3467.7285L13454.518,-3467.7215L13454.5096,-3467.7179L13454.5074,-3467.7121L13454.5041,-3467.7094L13454.5033,-3467.7034L13454.5,-3467.6971L13454.4923,-3467.6971L13454.4912,-3467.6853L13454.4868,-3467.6826L13454.4835,-3467.6768L13454.4813,-3467.6653L13454.4662,-3467.6451L13454.4673,-3467.6363L13454.4623,-3467.6321L13454.4566,-3467.6252L13454.4551,-3467.6156L13454.4548,-3467.6049L13454.4541,-3467.591L13454.4566,-3467.5582L13454.463,-3467.5316L13454.4783,-3467.502L13454.4794,-3467.5L13454.4973,-3467.4679L13454.5069,-3467.451L13454.5151,-3467.4374L13454.5232,-3467.4296L13454.5239,-3467.4288L13454.5273,-3467.4251L13454.5318,-3467.4232L13454.53,-3467.4165L13454.5384,-3467.4114L13454.5392,-3467.4054L13454.5359,-3467.4002L13454.5403,-3467.3951L13454.5417,-3467.3857L13454.5362,-3467.3809L13454.5414,-3467.3751L13454.541,-3467.3676L13454.537,-3467.3604L13454.5465,-3467.3513L13454.5462,-3467.3452L13454.541,-3467.3401L13454.5462,-3467.3335L13454.5454,-3467.3274L13454.5377,-3467.3202L13454.5439,-3467.3141L13454.5447,-3467.3054L13454.537,-3467.3021L13454.5381,-3467.2888L13454.5299,-3467.2852L13451.6602,-3467.2852L13451.6602,-3468.1501L13451.6652,-3468.146L13451.6667,-3468.1466L13451.6744,-3468.1502L13451.681,-3468.1487L13451.6869,-3468.1406L13451.6939,-3468.1427L13451.7012,-3468.1424L13451.7075,-3468.1372L13451.7089,-3468.1309L13451.7156,-3468.1309L13451.7214,-3468.1272L13451.7266,-3468.1212L13451.7395,-3468.1212L13451.7453,-3468.1182L13451.7479,-3468.1137L13451.7505,-3468.1071L13451.7589,-3468.1073L13451.7652,-3468.1037L13451.768,-3468.0962L13451.7776,-3468.095L13451.7813,-3468.0929L13451.7877,-3468.0841L13451.7996,-3468.0838L13451.8064,-3468.0791L13451.8109,-3468.0725L13451.8145,-3468.0686L13451.8236,-3468.0649L13451.8429,-3468.0611L13451.8579,-3468.0605L13451.8963,-3468.0611L13451.9199,-3468.0628L13451.9248,-3468.066L13451.9286,-3468.0699L13451.9316,-3468.0747L13451.9386,-3468.0781L13451.9467,-3468.0766L13451.9481,-3468.082L13451.9526,-3468.0844L13451.9603,-3468.0835L13451.9625,-3468.0932L13451.9684,-3468.0971L13451.9779,-3468.0974L13451.9783,-3468.1025L13451.9819,-3468.1064L13451.9937,-3468.1073L13451.9941,-3468.1122L13452.0007,-3468.117L13452.0077,-3468.1179L13452.0103,-3468.1242L13452.0154,-3468.1273L13452.025,-3468.1267L13452.0312,-3468.1342L13452.0415,-3468.1348L13452.0522,-3468.1291L13452.0573,-3468.1288L13452.0643,-3468.1249L13452.0669,-3468.12L13452.0768,-3468.1209L13452.0808,-3468.1173L13452.0834,-3468.111L13452.0889,-3468.1116L13452.0963,-3468.1043L13452.0977,-3468.0998L13452.1058,-3468.1004L13452.1121,-3468.0926L13452.1136,-3468.0871L13452.1227,-3468.0877L13452.1275,-3468.0838L13452.1293,-3468.0777L13452.1363,-3468.0771L13452.1418,-3468.0678L13452.1417,-3468.063L13452.1514,-3468.0611L13452.1676,-3468.0601L13452.1833,-3468.0618L13452.1997,-3468.0669L13452.2031,-3468.068L13452.2063,-3468.0692L13452.2127,-3468.0716L13452.2177,-3468.0739L13452.2245,-3468.0763L13452.2245,-3468.0844L13452.2315,-3468.0898L13452.2392,-3468.091L13452.2392,-3468.0986L13452.2436,-3468.1034L13452.2484,-3468.1034L13452.2539,-3468.1101L13452.2598,-3468.1097L13452.2624,-3468.1167L13452.2745,-3468.117L13452.2786,-3468.1104L13452.2859,-3468.1107L13452.2885,-3468.1077L13452.2889,-3468.1028L13452.2995,-3468.1034L13452.305,-3468.1007L13452.3081,-3468.0951L13452.3106,-3468.0922L13452.3152,-3468.0916L13452.3259,-3468.0924L13452.3352,-3468.0951L13452.3436,-3468.0992L13452.3603,-3468.114L13452.3697,-3468.121L13452.3767,-3468.1235L13452.3834,-3468.1264L13452.3974,-3468.1391L13452.4146,-3468.1671L13452.414,-3468.175L13452.4206,-3468.1826L13452.4269,-3468.1837L13452.4254,-3468.1928L13452.4298,-3468.1998L13452.4357,-3468.201L13452.4357,-3468.21L13452.4386,-3468.2146L13452.4453,-3468.2155L13452.4434,-3468.2294L13452.4486,-3468.2339L13452.4566,-3468.2333L13452.4577,-3468.2411L13452.464,-3468.2475L13452.4702,-3468.2481L13452.4713,-3468.2568L13452.4765,-3468.2623L13452.4857,-3468.2623L13452.4897,-3468.2719L13452.4963,-3468.2744L13452.5,-3468.2726L13452.5055,-3468.2698L13452.5092,-3468.2759L13452.5147,-3468.2777L13452.5224,-3468.2765L13452.5262,-3468.2873L13452.5289,-3468.2991L13452.5289,-3468.3211L13452.5242,-3468.329L13452.5238,-3468.3333L13452.5231,-3468.3412L13452.5257,-3468.3449L13452.5231,-3468.3476L13452.5228,-3468.3564L13452.5292,-3468.3611L13452.5297,-3468.3615L13452.5297,-3468.3733L13452.5316,-3468.3769L13452.5386,-3468.379L13452.5382,-3468.3899L13452.5412,-3468.3941L13452.5493,-3468.3971L13452.5493,-3468.4062L13452.5559,-3468.4113L13452.5625,-3468.411L13452.5628,-3468.418L13452.5698,-3468.4267L13452.5761,-3468.427L13452.5772,-3468.4307L13452.5831,-3468.437L13452.5871,-3468.4391L13452.5897,-3468.4442L13452.5937,-3468.4467L13452.6059,-3468.4457L13452.6128,-3468.4431L13452.6165,-3468.4455L13452.6253,-3468.4449L13452.6305,-3468.4403L13452.6364,-3468.4439L13452.6419,-3468.4431L13452.6511,-3468.4369L13452.661,-3468.4432L13452.6687,-3468.4438L13452.6742,-3468.4411L13452.6823,-3468.445L13452.6882,-3468.4465L13452.6922,-3468.4429L13452.6988,-3468.4498L13452.7058,-3468.4517L13452.7143,-3468.4513L13452.7179,-3468.4565L13452.7231,-3468.4595L13452.7297,-3468.4607L13452.7312,-3468.4661L13452.7371,-3468.4704L13452.744,-3468.4707L13452.7466,-3468.4794L13452.7536,-3468.4855L13452.7639,-3468.4843L13452.7676,-3468.4906L13452.7716,-3468.4939L13452.7789,-3468.4939L13452.7804,-3468.5039L13452.7874,-3468.509L13452.7966,-3468.5106L13452.8003,-3468.5187L13452.8073,-3468.5235L13452.8161,-3468.5232L13452.8183,-3468.532L13452.822,-3468.535L13452.8304,-3468.5344L13452.8337,-3468.5432L13452.8407,-3468.548L13452.8546,-3468.5471L13452.8587,-3468.5556L13452.8664,-3468.5586L13452.8737,-3468.5543L13452.8822,-3468.5613L13452.8888,-3468.5622L13452.8954,-3468.5586L13452.905,-3468.5637L13452.9098,-3468.5646L13452.9204,-3468.5607L13452.9289,-3468.567L13452.9337,-3468.5667L13452.9397,-3468.5631L13452.9482,-3468.5719L13452.9567,-3468.5719L13452.9625,-3468.5679L13452.9659,-3468.5722L13452.9714,-3468.574L13452.978,-3468.5716L13452.9831,-3468.5634L13452.9872,-3468.5649L13452.9938,-3468.5625L13452.9956,-3468.5519L13453.0026,-3468.5504L13453.0059,-3468.5453L13453.003,-3468.5377L13453.0089,-3468.5305L13453.0063,-3468.5241L13453.0103,-3468.5193L13453.0089,-3468.5145L13453.0019,-3468.5106L13452.9927,-3468.5108L13452.9919,-3468.5066L13452.9875,-3468.5018L13452.9971,-3468.4951L13452.9982,-3468.4897L13453.0048,-3468.4861L13453.0092,-3468.4812L13453.0085,-3468.4746L13453.0151,-3468.4749L13453.0217,-3468.4707L13453.021,-3468.4625L13453.025,-3468.4619L13453.0298,-3468.4583L13453.0335,-3468.4526L13453.0313,-3468.4444L13453.0349,-3468.4432L13453.0368,-3468.4414L13453.0335,-3468.4326L13453.0397,-3468.429L13453.0412,-3468.4245L13453.0412,-3468.4169L13453.0467,-3468.4157L13453.0493,-3468.4136L13453.05,-3468.4087L13453.0585,-3468.4094L13453.0644,-3468.4076L13453.0673,-3468.4045L13453.075,-3468.4076L13453.0824,-3468.4076L13453.0894,-3468.4042L13453.0927,-3468.4063L13453.0982,-3468.4079L13453.1052,-3468.4024L13453.1151,-3468.4021L13453.1199,-3468.3973L13453.1272,-3468.3997L13453.132,-3468.3967L13453.136,-3468.3898L13453.1463,-3468.3907L13453.1496,-3468.3892L13453.1526,-3468.3819L13453.1614,-3468.3825L13453.1658,-3468.3807L13453.1706,-3468.3732L13453.1765,-3468.3726L13453.1824,-3468.3675L13453.1846,-3468.3656L13453.1842,-3468.3578L13453.1901,-3468.3554L13453.1961,-3468.3542L13453.2089,-3468.3538L13453.2278,-3468.355L13453.2487,-3468.3591L13453.2651,-3468.3632L13453.281,-3468.3696L13453.2808,-3468.3753L13453.2856,-3468.3783L13453.2922,-3468.3789L13453.2937,-3468.3861L13453.2996,-3468.391L13453.3091,-3468.3907L13453.3114,-3468.4016L13453.3128,-3468.4034L13453.3198,-3468.4034L13453.3209,-3468.4082L13453.3264,-3468.4127L13453.3333,-3468.4149L13453.3353,-3468.4154L13453.3356,-3468.4206L13453.3407,-3468.4266L13453.3477,-3468.4257L13453.3533,-3468.4324L13453.3573,-3468.4311L13453.361,-3468.4339L13453.3665,-3468.4354L13453.3741,-3468.4365L13453.3882,-3468.4387L13453.3922,-3468.4444L13453.397,-3468.4447L13453.3996,-3468.4508L13453.4017,-3468.455L13453.4065,-3468.4574L13453.4087,-3468.4641L13453.4128,-3468.4698L13453.4205,-3468.4713L13453.4209,-3468.4777L13453.4253,-3468.484L13453.4319,-3468.4885L13453.433,-3468.4967L13453.4381,-3468.4991L13453.4411,-3468.5069L13453.4481,-3468.5097L13453.4481,-3468.5217L13453.4528,-3468.5256L13453.4602,-3468.529L13453.4602,-3468.5371L13453.4624,-3468.5422L13453.4705,-3468.548L13453.4712,-3468.5543L13453.476,-3468.558L13453.4812,-3468.5595L13453.4815,-3468.5679L13453.4863,-3468.5746L13453.4913,-3468.5752L13453.4913,-3468.5821L13453.4949,-3468.5879L13453.5037,-3468.5924L13453.5037,-3468.6012L13453.506,-3468.6042L13453.5118,-3468.606L13453.5115,-3468.6162L13453.5148,-3468.6202L13453.5192,-3468.6223L13453.5199,-3468.6283L13453.5262,-3468.6341L13453.5332,-3468.6338L13453.5321,-3468.6398L13453.5335,-3468.6431L13453.5394,-3468.6462L13453.5379,-3468.6489L13453.539,-3468.6537L13453.5456,-3468.6561L13453.5589,-3468.6552Z"/>
<path content="兵庫県,,,姫路市,,28201" xlink:title="兵庫県" d="M13454.1661,-3468.3521L13454.1637,-3468.3457L13453.8183,-3468.4507L13453.8207,-3468.4572L13454.1661,-3468.3521Z"/>
<path content="兵庫県,,,姫路市,,28201" xlink:title="兵庫県" d="M13454.5329,-3468.1062L13454.5256,-3468.1032L13454.4144,-3468.3292L13454.4123,-3468.3333L13454.4021,-3468.3542L13454.4095,-3468.3572L13454.4212,-3468.3333L13454.5329,-3468.1062Z"/>
<path content="兵庫県,,,姫路市,,28201" xlink:title="兵庫県" d="M13453.9403,-3467.9664L13453.9402,-3467.9596L13453.6738,-3467.9627L13453.6739,-3467.9695L13453.9403,-3467.9664Z"/>
<path content="兵庫県,,,姫路市,,28201" xlink:title="兵庫県" d="M13454.1771,-3467.9233L13454.1746,-3467.9169L13454.1667,-3467.9195L13454,-3467.9728L13454.0025,-3467.9792L13454.1667,-3467.9267L13454.1717,-3467.9251L13454.1771,-3467.9233Z"/>
</g>
</svg>
