<?xml version="1.0" encoding="UTF-8"?>
<svg  xmlns="http://www.w3.org/2000/svg" xmlns:xlink="http://www.w3.org/1999/xlink" xmlns:go="http://purl.org/svgmap/profile" property="geometry,N03_001,N03_002,N03_003,N03_004,N03_005,N03_007" viewBox="13478.02734375 -3567.2607421875 1.0986328125 1.0986328125" go:dataArea="13478.02734375 -3567.2607421875 1.0986328125 1.0986328125" >
<metadata>
 <rdf:RDF xmlns:rdf="http://www.w3.org/1999/02/22-rdf-syntax-ns#" xmlns:crs="http://opengis.org/xmldtds/transformations.dtd" xmlns:svg="http://www.w3.org/svg" >
  <rdf:Description>
   <crs:CoordinateReferenceSystem rdf:resource="http://purl.org/crs/84" svg:transform="matrix(100.0,0.0,0.0,-100.0,0.0,0.0)" />
  </rdf:Description>
 </rdf:RDF>
</metadata>
<globalCoordinateSystem srsName="http://purl.org/crs/84" transform="matrix(100.0,0.0,0.0,-100.0,0.0,0.0)" />
<defs>
 <g id="p0" >
  <circle cx="0.0" cy="0.0" r="3" stroke="green" stroke-width="2.0" vector-effect="non-scaling-stroke" />
 </g>
</defs>
<g fill="#0000ff" fill-rule="evenodd" opacity="0.5" >
<path content="兵庫県,,,豊岡市,,28209" xlink:title="兵庫県" d="M13479.126,-3566.1621L13478.0273,-3566.1621L13478.0273,-3566.2069L13478.0284,-3566.2081L13478.0287,-3566.2097L13478.03,-3566.2104L13478.0317,-3566.2104L13478.0318,-3566.2119L13478.0327,-3566.2137L13478.0356,-3566.2158L13478.038,-3566.216L13478.0368,-3566.2167L13478.036,-3566.2178L13478.0349,-3566.2179L13478.0343,-3566.2186L13478.0343,-3566.2199L13478.0349,-3566.2208L13478.0369,-3566.2221L13478.0378,-3566.2221L13478.0395,-3566.2211L13478.0407,-3566.2217L13478.0416,-3566.2215L13478.0427,-3566.2208L13478.0436,-3566.2206L13478.0445,-3566.219L13478.0444,-3566.2181L13478.0457,-3566.2182L13478.0466,-3566.2187L13478.0479,-3566.2185L13478.0479,-3566.2203L13478.0476,-3566.221L13478.0478,-3566.2228L13478.0486,-3566.2238L13478.0502,-3566.2238L13478.0515,-3566.2228L13478.0526,-3566.2228L13478.0539,-3566.2214L13478.0541,-3566.2194L13478.0548,-3566.2187L13478.055,-3566.2179L13478.0561,-3566.2181L13478.0569,-3566.2179L13478.0575,-3566.217L13478.0575,-3566.2156L13478.0588,-3566.2146L13478.0588,-3566.2125L13478.0611,-3566.2115L13478.0639,-3566.2096L13478.0642,-3566.2078L13478.0657,-3566.2087L13478.0673,-3566.209L13478.0691,-3566.2106L13478.0705,-3566.2106L13478.0722,-3566.2101L13478.0748,-3566.2112L13478.0772,-3566.2113L13478.0784,-3566.2117L13478.0793,-3566.2117L13478.0808,-3566.2108L13478.0834,-3566.2119L13478.085,-3566.2119L13478.0879,-3566.2114L13478.0893,-3566.2103L13478.0901,-3566.2118L13478.0924,-3566.2133L13478.095,-3566.2134L13478.0954,-3566.2149L13478.0964,-3566.2167L13478.0978,-3566.2176L13478.0995,-3566.2193L13478.1008,-3566.2195L13478.1008,-3566.2236L13478.1024,-3566.2252L13478.105,-3566.2263L13478.1059,-3566.2262L13478.1066,-3566.2258L13478.108,-3566.2256L13478.1088,-3566.2248L13478.1092,-3566.2237L13478.1101,-3566.2232L13478.1111,-3566.2219L13478.1111,-3566.2209L13478.1107,-3566.2199L13478.1105,-3566.2183L13478.1096,-3566.2171L13478.1101,-3566.2159L13478.1094,-3566.2144L13478.1093,-3566.2132L13478.1087,-3566.2121L13478.1079,-3566.2117L13478.1081,-3566.2103L13478.107,-3566.2092L13478.107,-3566.2077L13478.106,-3566.2065L13478.1046,-3566.206L13478.1064,-3566.2039L13478.1068,-3566.2029L13478.108,-3566.2022L13478.1078,-3566.2002L13478.1094,-3566.1999L13478.1105,-3566.1991L13478.112,-3566.1988L13478.113,-3566.1981L13478.1139,-3566.197L13478.1153,-3566.1982L13478.1165,-3566.1982L13478.1181,-3566.1978L13478.1197,-3566.198L13478.1209,-3566.1967L13478.1217,-3566.197L13478.1222,-3566.1986L13478.1228,-3566.1988L13478.1232,-3566.1999L13478.1244,-3566.2007L13478.1244,-3566.2007L13478.1254,-3566.2008L13478.1249,-3566.202L13478.125,-3566.2041L13478.1264,-3566.2048L13478.1281,-3566.2047L13478.1299,-3566.2038L13478.1305,-3566.2025L13478.1322,-3566.2025L13478.1337,-3566.2014L13478.1336,-3566.2005L13478.1326,-3566.1999L13478.1319,-3566.1997L13478.1306,-3566.199L13478.1291,-3566.1989L13478.1296,-3566.1985L13478.1299,-3566.1975L13478.1296,-3566.1966L13478.1301,-3566.196L13478.13,-3566.195L13478.1285,-3566.1934L13478.1303,-3566.193L13478.1319,-3566.1919L13478.1326,-3566.1921L13478.1347,-3566.1916L13478.1367,-3566.1896L13478.1371,-3566.1879L13478.1383,-3566.187L13478.1389,-3566.1858L13478.1403,-3566.1852L13478.1403,-3566.1836L13478.1395,-3566.183L13478.1408,-3566.1824L13478.1422,-3566.1814L13478.1426,-3566.1805L13478.1435,-3566.1801L13478.1441,-3566.1788L13478.1442,-3566.1771L13478.1466,-3566.177L13478.148,-3566.1777L13478.1487,-3566.1777L13478.1496,-3566.1771L13478.1508,-3566.1783L13478.1524,-3566.1783L13478.1537,-3566.1772L13478.1532,-3566.176L13478.1542,-3566.1746L13478.154,-3566.1737L13478.1535,-3566.173L13478.1546,-3566.1718L13478.1544,-3566.1693L13478.1557,-3566.1689L13478.1567,-3566.1685L13478.1571,-3566.1704L13478.1579,-3566.1716L13478.1588,-3566.1722L13478.1584,-3566.173L13478.1584,-3566.1746L13478.1579,-3566.1754L13478.158,-3566.1768L13478.1585,-3566.178L13478.1593,-3566.1788L13478.1587,-3566.1797L13478.1587,-3566.1808L13478.159,-3566.1814L13478.1583,-3566.1824L13478.1584,-3566.1839L13478.1598,-3566.1856L13478.1597,-3566.1879L13478.1592,-3566.1887L13478.1593,-3566.1899L13478.1608,-3566.1917L13478.161,-3566.1942L13478.1606,-3566.1948L13478.1606,-3566.1964L13478.1614,-3566.1974L13478.1616,-3566.2L13478.1612,-3566.2006L13478.1619,-3566.2018L13478.1637,-3566.2023L13478.1657,-3566.2022L13478.1667,-3566.2033L13478.1682,-3566.2036L13478.1702,-3566.2031L13478.1718,-3566.2014L13478.1727,-3566.2015L13478.1742,-3566.2016L13478.1765,-3566.2006L13478.1782,-3566.2001L13478.1789,-3566.1996L13478.1792,-3566.1991L13478.1806,-3566.1994L13478.182,-3566.1993L13478.1833,-3566.1987L13478.1839,-3566.1978L13478.1859,-3566.1978L13478.1871,-3566.1964L13478.1882,-3566.1967L13478.1892,-3566.1965L13478.1908,-3566.1956L13478.192,-3566.1943L13478.193,-3566.1941L13478.1936,-3566.1932L13478.1937,-3566.1911L13478.1944,-3566.1907L13478.195,-3566.1899L13478.1956,-3566.1883L13478.1956,-3566.1873L13478.1947,-3566.1861L13478.1937,-3566.1859L13478.1935,-3566.1836L13478.1929,-3566.1814L13478.1918,-3566.1807L13478.1882,-3566.1801L13478.1875,-3566.1786L13478.186,-3566.1776L13478.1841,-3566.1771L13478.1823,-3566.1772L13478.1816,-3566.1774L13478.1797,-3566.1759L13478.1779,-3566.1756L13478.1764,-3566.1758L13478.176,-3566.1761L13478.1755,-3566.1747L13478.1747,-3566.174L13478.1723,-3566.1727L13478.1714,-3566.1726L13478.1715,-3566.1714L13478.1707,-3566.1692L13478.1721,-3566.1685L13478.1729,-3566.1672L13478.1745,-3566.1671L13478.176,-3566.1656L13478.1775,-3566.1674L13478.1804,-3566.1693L13478.1821,-3566.17L13478.1837,-3566.17L13478.184,-3566.1718L13478.1856,-3566.1725L13478.1872,-3566.1726L13478.1889,-3566.1738L13478.1901,-3566.1738L13478.1911,-3566.1735L13478.1919,-3566.1748L13478.1959,-3566.1781L13478.1993,-3566.178L13478.2,-3566.1795L13478.201,-3566.1803L13478.2019,-3566.1803L13478.2029,-3566.181L13478.2041,-3566.181L13478.2059,-3566.1801L13478.2074,-3566.181L13478.2087,-3566.1809L13478.2102,-3566.1798L13478.2116,-3566.1796L13478.2125,-3566.1784L13478.2127,-3566.1774L13478.2143,-3566.1781L13478.2154,-3566.1781L13478.216,-3566.1774L13478.2162,-3566.1765L13478.2162,-3566.1742L13478.2144,-3566.173L13478.2125,-3566.1725L13478.2136,-3566.172L13478.2136,-3566.1707L13478.2131,-3566.1692L13478.2119,-3566.1688L13478.2119,-3566.1678L13478.21,-3566.1657L13478.2087,-3566.1651L13478.2094,-3566.1639L13478.2094,-3566.1624L13478.2113,-3566.1625L13478.2121,-3566.163L13478.2131,-3566.1629L13478.2143,-3566.1621L13478.2144,-3566.1621L13478.2154,-3566.163L13478.2175,-3566.163L13478.2193,-3566.1621L13478.3923,-3566.1621L13478.3923,-3566.1621L13478.3912,-3566.1623L13478.3905,-3566.1628L13478.3895,-3566.1647L13478.3895,-3566.1668L13478.3887,-3566.167L13478.3878,-3566.1674L13478.3869,-3566.1685L13478.3867,-3566.171L13478.3868,-3566.1721L13478.3879,-3566.1737L13478.3868,-3566.1741L13478.3866,-3566.1751L13478.3868,-3566.1764L13478.3866,-3566.178L13478.387,-3566.1794L13478.3878,-3566.1796L13478.3874,-3566.1807L13478.3877,-3566.183L13478.3882,-3566.1841L13478.3874,-3566.1852L13478.3869,-3566.1873L13478.3861,-3566.1856L13478.3847,-3566.1838L13478.3836,-3566.1826L13478.3822,-3566.1825L13478.3814,-3566.1829L13478.3806,-3566.1838L13478.3806,-3566.1854L13478.3798,-3566.1863L13478.3798,-3566.1873L13478.3803,-3566.188L13478.3805,-3566.1891L13478.3811,-3566.1905L13478.3825,-3566.1918L13478.3843,-3566.192L13478.3843,-3566.1934L13478.3854,-3566.1955L13478.3844,-3566.1968L13478.3843,-3566.1983L13478.3838,-3566.1985L13478.3821,-3566.1969L13478.3809,-3566.197L13478.3801,-3566.1964L13478.379,-3566.1963L13478.3782,-3566.1969L13478.3763,-3566.1972L13478.3754,-3566.1978L13478.3757,-3566.1987L13478.3764,-3566.199L13478.3769,-3566.1996L13478.3784,-3566.2003L13478.3791,-3566.2015L13478.3804,-3566.2024L13478.3818,-3566.2024L13478.384,-3566.2036L13478.385,-3566.2038L13478.3829,-3566.2057L13478.3823,-3566.2079L13478.3798,-3566.208L13478.3776,-3566.2092L13478.3771,-3566.2103L13478.3761,-3566.2099L13478.376,-3566.2093L13478.3754,-3566.208L13478.374,-3566.2069L13478.3731,-3566.2071L13478.3722,-3566.2068L13478.3718,-3566.2054L13478.3703,-3566.2042L13478.3695,-3566.2042L13478.3673,-3566.2055L13478.3669,-3566.2063L13478.3673,-3566.2078L13478.3665,-3566.208L13478.366,-3566.2086L13478.3664,-3566.2096L13478.367,-3566.2103L13478.3687,-3566.2109L13478.3711,-3566.211L13478.372,-3566.2105L13478.3734,-3566.212L13478.3741,-3566.2121L13478.3766,-3566.214L13478.3751,-3566.2152L13478.3746,-3566.2163L13478.3748,-3566.2179L13478.3741,-3566.2179L13478.3729,-3566.2164L13478.3717,-3566.2156L13478.3706,-3566.216L13478.3689,-3566.2149L13478.3674,-3566.215L13478.3668,-3566.2159L13478.367,-3566.2167L13478.3658,-3566.2168L13478.3653,-3566.2174L13478.3652,-3566.2181L13478.3661,-3566.2204L13478.3679,-3566.2217L13478.3672,-3566.2226L13478.3659,-3566.2252L13478.3659,-3566.2264L13478.3643,-3566.2256L13478.3632,-3566.2256L13478.3616,-3566.2261L13478.36,-3566.2269L13478.3589,-3566.2251L13478.3572,-3566.225L13478.3562,-3566.2242L13478.3547,-3566.2239L13478.3533,-3566.2241L13478.3525,-3566.2245L13478.3508,-3566.2245L13478.3501,-3566.2252L13478.35,-3566.2273L13478.3518,-3566.229L13478.3531,-3566.229L13478.3544,-3566.2301L13478.3559,-3566.2305L13478.355,-3566.2323L13478.3536,-3566.2318L13478.3522,-3566.2317L13478.3509,-3566.2333L13478.3512,-3566.2349L13478.3521,-3566.2356L13478.3534,-3566.2358L13478.3534,-3566.2368L13478.3546,-3566.2381L13478.3542,-3566.2387L13478.3541,-3566.2397L13478.3547,-3566.2407L13478.3536,-3566.2417L13478.3538,-3566.243L13478.3535,-3566.2441L13478.3534,-3566.2453L13478.3544,-3566.247L13478.3536,-3566.2476L13478.3535,-3566.2486L13478.3529,-3566.25L13478.3536,-3566.2516L13478.3546,-3566.2518L13478.3558,-3566.2532L13478.357,-3566.2537L13478.3559,-3566.2558L13478.3551,-3566.2553L13478.3535,-3566.255L13478.352,-3566.2554L13478.349,-3566.2553L13478.3481,-3566.2558L13478.3468,-3566.2561L13478.3454,-3566.2576L13478.3446,-3566.2591L13478.3447,-3566.2601L13478.3437,-3566.26L13478.3427,-3566.2604L13478.3412,-3566.2623L13478.3412,-3566.2639L13478.3422,-3566.2649L13478.3431,-3566.2652L13478.3452,-3566.2668L13478.3458,-3566.2685L13478.3445,-3566.2694L13478.3446,-3566.2709L13478.3441,-3566.2715L13478.3436,-3566.2715L13478.3434,-3566.2708L13478.3422,-3566.2696L13478.34,-3566.2696L13478.3397,-3566.2686L13478.3382,-3566.2673L13478.3362,-3566.267L13478.3353,-3566.2672L13478.335,-3566.2679L13478.3343,-3566.2681L13478.3337,-3566.2687L13478.334,-3566.2697L13478.3338,-3566.2711L13478.3344,-3566.2722L13478.3357,-3566.2729L13478.3357,-3566.274L13478.3362,-3566.2747L13478.3376,-3566.2753L13478.3379,-3566.2762L13478.3369,-3566.2762L13478.3347,-3566.2767L13478.3333,-3566.2773L13478.3333,-3566.2773L13478.3331,-3566.2778L13478.3326,-3566.2773L13478.3312,-3566.2759L13478.3303,-3566.2759L13478.3295,-3566.2763L13478.3271,-3566.2766L13478.3265,-3566.2769L13478.3264,-3566.2777L13478.3258,-3566.2773L13478.3246,-3566.2773L13478.3236,-3566.2777L13478.323,-3566.2777L13478.322,-3566.2789L13478.322,-3566.2801L13478.3228,-3566.2817L13478.3222,-3566.2819L13478.3214,-3566.2824L13478.3211,-3566.2839L13478.3203,-3566.2855L13478.3196,-3566.2857L13478.319,-3566.2861L13478.319,-3566.2869L13478.3197,-3566.2877L13478.3211,-3566.2879L13478.3225,-3566.2892L13478.3223,-3566.2905L13478.3232,-3566.2913L13478.3246,-3566.2914L13478.3259,-3566.2922L13478.3283,-3566.2923L13478.3296,-3566.2938L13478.3308,-3566.2939L13478.3317,-3566.2949L13478.3328,-3566.2953L13478.3327,-3566.2969L13478.3333,-3566.2975L13478.3333,-3566.2975L13478.3342,-3566.2979L13478.3349,-3566.2989L13478.3358,-3566.2996L13478.3372,-3566.3L13478.3375,-3566.3015L13478.3389,-3566.3027L13478.3394,-3566.3039L13478.3408,-3566.3055L13478.3398,-3566.3057L13478.3391,-3566.3061L13478.339,-3566.3083L13478.3368,-3566.3089L13478.336,-3566.3095L13478.3359,-3566.3107L13478.3353,-3566.3109L13478.3348,-3566.312L13478.3349,-3566.3133L13478.3357,-3566.3143L13478.3368,-3566.3144L13478.3367,-3566.3154L13478.3358,-3566.3166L13478.336,-3566.3183L13478.3351,-3566.3188L13478.3347,-3566.3204L13478.3333,-3566.3195L13478.333,-3566.3193L13478.3301,-3566.3198L13478.3289,-3566.3205L13478.3289,-3566.3213L13478.3297,-3566.3223L13478.3311,-3566.3226L13478.3326,-3566.3232L13478.3317,-3566.3238L13478.3312,-3566.3246L13478.3309,-3566.3261L13478.3284,-3566.3251L13478.3256,-3566.3246L13478.3242,-3566.325L13478.3237,-3566.3258L13478.3242,-3566.3268L13478.3255,-3566.3276L13478.3258,-3566.3287L13478.3265,-3566.3295L13478.3276,-3566.3293L13478.3287,-3566.3297L13478.3308,-3566.3298L13478.3333,-3566.3325L13478.3341,-3566.3332L13478.3358,-3566.3334L13478.3366,-3566.3352L13478.3375,-3566.3357L13478.3384,-3566.3357L13478.3391,-3566.3366L13478.3403,-3566.337L13478.342,-3566.3367L13478.3423,-3566.3386L13478.3436,-3566.3398L13478.3439,-3566.3414L13478.3449,-3566.3427L13478.345,-3566.3467L13478.3458,-3566.3482L13478.3456,-3566.3486L13478.3452,-3566.3487L13478.3439,-3566.348L13478.342,-3566.3481L13478.3394,-3566.3491L13478.3385,-3566.3499L13478.3385,-3566.3504L13478.3382,-3566.3501L13478.3372,-3566.3497L13478.3358,-3566.3496L13478.3333,-3566.3507L13478.3328,-3566.3509L13478.3322,-3566.3519L13478.3325,-3566.3529L13478.332,-3566.3523L13478.3306,-3566.3525L13478.3296,-3566.353L13478.3293,-3566.3537L13478.3279,-3566.355L13478.3274,-3566.3567L13478.3276,-3566.3575L13478.3267,-3566.3575L13478.3255,-3566.3581L13478.3248,-3566.3585L13478.3244,-3566.3597L13478.3232,-3566.3607L13478.3225,-3566.3623L13478.3226,-3566.3642L13478.3219,-3566.3646L13478.3211,-3566.3666L13478.3197,-3566.3685L13478.3197,-3566.3699L13478.3201,-3566.3703L13478.3191,-3566.3704L13478.3182,-3566.3719L13478.3181,-3566.3728L13478.3171,-3566.3738L13478.3166,-3566.375L13478.3169,-3566.3765L13478.3165,-3566.3762L13478.3153,-3566.3764L13478.3141,-3566.3774L13478.3138,-3566.3789L13478.3127,-3566.3805L13478.3126,-3566.3821L13478.313,-3566.3828L13478.3125,-3566.3829L13478.3117,-3566.3835L13478.3109,-3566.3847L13478.3108,-3566.3858L13478.3103,-3566.3853L13478.3083,-3566.3854L13478.3062,-3566.3873L13478.3055,-3566.3886L13478.3056,-3566.3901L13478.3041,-3566.3903L13478.3029,-3566.3908L13478.3031,-3566.3962L13478.3022,-3566.397L13478.3017,-3566.3981L13478.3005,-3566.398L13478.2996,-3566.3985L13478.299,-3566.4L13478.2974,-3566.4019L13478.2974,-3566.4038L13478.298,-3566.4045L13478.2965,-3566.4056L13478.2959,-3566.4066L13478.2965,-3566.4104L13478.2954,-3566.4108L13478.2948,-3566.4116L13478.2944,-3566.4129L13478.2939,-3566.4132L13478.293,-3566.4145L13478.2932,-3566.4172L13478.2912,-3566.4198L13478.2913,-3566.4212L13478.2905,-3566.4222L13478.2905,-3566.4231L13478.29,-3566.4241L13478.29,-3566.4248L13478.29,-3566.425L13478.2902,-3566.427L13478.2894,-3566.4282L13478.2884,-3566.4291L13478.288,-3566.4301L13478.2864,-3566.4303L13478.2855,-3566.4312L13478.2853,-3566.4328L13478.2837,-3566.4336L13478.2826,-3566.4352L13478.2824,-3566.4368L13478.2814,-3566.4383L13478.2818,-3566.4402L13478.2795,-3566.441L13478.2784,-3566.4421L13478.2785,-3566.4436L13478.2777,-3566.4438L13478.2769,-3566.4447L13478.2769,-3566.4457L13478.2758,-3566.4471L13478.2754,-3566.448L13478.2756,-3566.4493L13478.2745,-3566.4503L13478.2742,-3566.4523L13478.2742,-3566.4536L13478.2728,-3566.4545L13478.2721,-3566.4556L13478.2722,-3566.4564L13478.2729,-3566.4568L13478.2716,-3566.457L13478.2711,-3566.4581L13478.2713,-3566.4588L13478.2718,-3566.4592L13478.2711,-3566.4602L13478.271,-3566.4617L13478.2714,-3566.462L13478.27,-3566.4629L13478.2696,-3566.4637L13478.2697,-3566.4646L13478.2703,-3566.465L13478.2691,-3566.4651L13478.2683,-3566.4658L13478.2677,-3566.4665L13478.2678,-3566.4681L13478.2685,-3566.4689L13478.2686,-3566.47L13478.2699,-3566.4712L13478.2712,-3566.4714L13478.2716,-3566.4713L13478.2723,-3566.4715L13478.2738,-3566.4715L13478.2751,-3566.4709L13478.2759,-3566.4701L13478.2769,-3566.4705L13478.2786,-3566.4702L13478.2801,-3566.4691L13478.2834,-3566.4694L13478.2851,-3566.4693L13478.2867,-3566.4695L13478.2885,-3566.4686L13478.2891,-3566.4677L13478.291,-3566.4682L13478.2929,-3566.4682L13478.294,-3566.4672L13478.2956,-3566.4685L13478.2987,-3566.4693L13478.2979,-3566.4699L13478.298,-3566.471L13478.2985,-3566.4713L13478.2975,-3566.4717L13478.2968,-3566.4725L13478.2971,-3566.4733L13478.2959,-3566.4727L13478.2947,-3566.473L13478.2935,-3566.4741L13478.2934,-3566.4744L13478.2928,-3566.4746L13478.292,-3566.4754L13478.2919,-3566.4765L13478.291,-3566.4769L13478.2905,-3566.4774L13478.2904,-3566.4785L13478.2893,-3566.478L13478.2873,-3566.478L13478.2863,-3566.4783L13478.2861,-3566.4792L13478.285,-3566.48L13478.2834,-3566.48L13478.2822,-3566.4804L13478.2812,-3566.4814L13478.2811,-3566.482L13478.2795,-3566.4819L13478.278,-3566.4821L13478.2766,-3566.4826L13478.2761,-3566.4836L13478.2748,-3566.484L13478.274,-3566.4847L13478.2739,-3566.4856L13478.2742,-3566.4862L13478.2733,-3566.4859L13478.2727,-3566.4864L13478.2725,-3566.4872L13478.2727,-3566.4879L13478.2743,-3566.4895L13478.2745,-3566.4907L13478.2756,-3566.4915L13478.2755,-3566.4925L13478.276,-3566.4936L13478.2767,-3566.4944L13478.2763,-3566.4954L13478.2765,-3566.4963L13478.2772,-3566.4969L13478.277,-3566.4977L13478.2772,-3566.4989L13478.2785,-3566.4998L13478.2812,-3566.4999L13478.2821,-3566.4996L13478.2839,-3566.5001L13478.2852,-3566.4996L13478.286,-3566.4989L13478.287,-3566.4986L13478.2876,-3566.4979L13478.2883,-3566.4978L13478.2888,-3566.4972L13478.2904,-3566.4972L13478.2914,-3566.4969L13478.2947,-3566.4947L13478.2959,-3566.4952L13478.297,-3566.4952L13478.2982,-3566.4948L13478.2988,-3566.4941L13478.2989,-3566.4935L13478.2996,-3566.4937L13478.3002,-3566.4933L13478.3006,-3566.4926L13478.3015,-3566.4926L13478.3025,-3566.4925L13478.3034,-3566.4919L13478.3043,-3566.4923L13478.3058,-3566.4924L13478.3064,-3566.4936L13478.3068,-3566.4941L13478.3067,-3566.4949L13478.3073,-3566.4956L13478.3083,-3566.4961L13478.3082,-3566.4977L13478.309,-3566.4986L13478.3083,-3566.4997L13478.3085,-3566.5011L13478.3076,-3566.5021L13478.3076,-3566.5028L13478.3057,-3566.5029L13478.3044,-3566.5035L13478.3038,-3566.5043L13478.303,-3566.5045L13478.3028,-3566.5055L13478.3031,-3566.5064L13478.3027,-3566.5073L13478.3031,-3566.5081L13478.3065,-3566.5088L13478.3056,-3566.5094L13478.3048,-3566.5101L13478.3038,-3566.5098L13478.3026,-3566.5098L13478.3014,-3566.5102L13478.3007,-3566.5107L13478.3003,-3566.5116L13478.2994,-3566.512L13478.2988,-3566.5127L13478.2988,-3566.5138L13478.2977,-3566.5143L13478.2969,-3566.5153L13478.2967,-3566.5162L13478.2965,-3566.5171L13478.2969,-3566.5182L13478.2981,-3566.5186L13478.2994,-3566.5192L13478.3021,-3566.519L13478.3039,-3566.5175L13478.3039,-3566.5157L13478.3046,-3566.5161L13478.3059,-3566.516L13478.307,-3566.5155L13478.3071,-3566.5144L13478.307,-3566.5133L13478.3082,-3566.5133L13478.3092,-3566.5124L13478.3098,-3566.5125L13478.3102,-3566.5133L13478.3113,-3566.5141L13478.3113,-3566.5155L13478.3125,-3566.5165L13478.3123,-3566.5179L13478.3129,-3566.5192L13478.312,-3566.5202L13478.3115,-3566.5209L13478.3115,-3566.5217L13478.3106,-3566.5222L13478.31,-3566.5229L13478.3085,-3566.5227L13478.3061,-3566.5227L13478.3053,-3566.5232L13478.3049,-3566.5246L13478.3041,-3566.525L13478.3038,-3566.5261L13478.304,-3566.527L13478.3044,-3566.5276L13478.3046,-3566.5286L13478.3057,-3566.5296L13478.3061,-3566.5305L13478.3075,-3566.5313L13478.3082,-3566.5315L13478.3081,-3566.5324L13478.3085,-3566.5332L13478.3095,-3566.5335L13478.3104,-3566.5336L13478.3109,-3566.5347L13478.3118,-3566.5353L13478.3127,-3566.5353L13478.3133,-3566.5363L13478.3144,-3566.5369L13478.3158,-3566.537L13478.3175,-3566.5381L13478.3189,-3566.5383L13478.3212,-3566.5382L13478.3221,-3566.5378L13478.3232,-3566.5382L13478.3245,-3566.5383L13478.3264,-3566.5375L13478.3274,-3566.5365L13478.3298,-3566.5362L13478.3311,-3566.5352L13478.3318,-3566.5354L13478.333,-3566.5351L13478.3333,-3566.5349L13478.3342,-3566.5343L13478.3346,-3566.5332L13478.3369,-3566.5331L13478.3384,-3566.5327L13478.3392,-3566.5318L13478.3395,-3566.5308L13478.3407,-3566.5305L13478.3418,-3566.5299L13478.342,-3566.5292L13478.3434,-3566.5294L13478.3448,-3566.5292L13478.3459,-3566.5285L13478.3468,-3566.5286L13478.3479,-3566.5284L13478.3483,-3566.5276L13478.349,-3566.528L13478.3501,-3566.528L13478.3519,-3566.527L13478.3531,-3566.5254L13478.3539,-3566.5261L13478.3551,-3566.5264L13478.3566,-3566.5263L13478.3571,-3566.5258L13478.3571,-3566.5254L13478.3591,-3566.5247L13478.3609,-3566.5239L13478.3619,-3566.5231L13478.3633,-3566.524L13478.3647,-3566.5241L13478.3659,-3566.5239L13478.3663,-3566.5232L13478.3675,-3566.5235L13478.3701,-3566.5237L13478.3714,-3566.5245L13478.3724,-3566.5244L13478.3734,-3566.5239L13478.3749,-3566.5256L13478.3778,-3566.5256L13478.3786,-3566.5271L13478.3776,-3566.5278L13478.3749,-3566.5267L13478.3735,-3566.527L13478.3725,-3566.5264L13478.3684,-3566.5266L13478.3663,-3566.528L13478.363,-3566.5279L13478.3616,-3566.5289L13478.3609,-3566.5286L13478.3597,-3566.5297L13478.3595,-3566.5313L13478.3607,-3566.5329L13478.3604,-3566.5339L13478.3615,-3566.5352L13478.3616,-3566.5368L13478.3597,-3566.5381L13478.3606,-3566.5412L13478.3626,-3566.5416L13478.3646,-3566.5408L13478.3664,-3566.541L13478.3678,-3566.5395L13478.3704,-3566.5393L13478.3728,-3566.5395L13478.3743,-3566.5379L13478.3753,-3566.5379L13478.3764,-3566.5386L13478.3785,-3566.5387L13478.3787,-3566.5394L13478.3783,-3566.5404L13478.3789,-3566.5413L13478.3806,-3566.5423L13478.3796,-3566.5435L13478.3797,-3566.5446L13478.3775,-3566.546L13478.3773,-3566.5469L13478.3745,-3566.5471L13478.3735,-3566.548L13478.368,-3566.5476L13478.3651,-3566.5499L13478.3645,-3566.5515L13478.3658,-3566.5538L13478.3677,-3566.5542L13478.369,-3566.5556L13478.3702,-3566.5556L13478.3712,-3566.5559L13478.3718,-3566.5563L13478.3765,-3566.5566L13478.3798,-3566.555L13478.3805,-3566.5562L13478.3816,-3566.5566L13478.3825,-3566.5582L13478.3847,-3566.5586L13478.3846,-3566.5597L13478.3834,-3566.5609L13478.3834,-3566.5621L13478.3813,-3566.5634L13478.3809,-3566.565L13478.3795,-3566.5664L13478.3766,-3566.568L13478.376,-3566.5692L13478.3741,-3566.569L13478.3725,-3566.5703L13478.3713,-3566.5701L13478.3684,-3566.5732L13478.3662,-3566.5728L13478.3643,-3566.5738L13478.3631,-3566.5731L13478.3613,-3566.5735L13478.3592,-3566.5764L13478.3591,-3566.5778L13478.3607,-3566.5807L13478.3601,-3566.5817L13478.3609,-3566.5838L13478.3619,-3566.5847L13478.3677,-3566.5848L13478.3696,-3566.5837L13478.3706,-3566.5845L13478.3719,-3566.5848L13478.3731,-3566.5844L13478.3747,-3566.5828L13478.3742,-3566.5815L13478.3746,-3566.5802L13478.3733,-3566.5788L13478.374,-3566.5763L13478.375,-3566.5748L13478.3785,-3566.5748L13478.3789,-3566.5735L13478.3806,-3566.5739L13478.3822,-3566.5735L13478.3848,-3566.5717L13478.3859,-3566.5686L13478.3872,-3566.5675L13478.3871,-3566.5661L13478.3884,-3566.5661L13478.3901,-3566.5643L13478.3899,-3566.5623L13478.3911,-3566.5613L13478.3912,-3566.5598L13478.3925,-3566.559L13478.3933,-3566.5594L13478.3935,-3566.561L13478.3925,-3566.5617L13478.3923,-3566.563L13478.3911,-3566.5644L13478.3915,-3566.566L13478.3927,-3566.5667L13478.3934,-3566.5685L13478.3929,-3566.5694L13478.3932,-3566.5713L13478.3967,-3566.5728L13478.3959,-3566.574L13478.3955,-3566.5773L13478.3975,-3566.58L13478.3968,-3566.5817L13478.3914,-3566.5814L13478.39,-3566.5824L13478.3916,-3566.5849L13478.3933,-3566.5862L13478.396,-3566.5866L13478.3963,-3566.5886L13478.3954,-3566.5892L13478.3953,-3566.5903L13478.3925,-3566.5909L13478.3904,-3566.5925L13478.3914,-3566.5953L13478.3901,-3566.5965L13478.3881,-3566.5963L13478.3867,-3566.5969L13478.3853,-3566.596L13478.3827,-3566.5971L13478.3794,-3566.5964L13478.3758,-3566.5969L13478.3748,-3566.5978L13478.3711,-3566.5975L13478.3692,-3566.5985L13478.3669,-3566.5985L13478.3661,-3566.5993L13478.366,-3566.6L13478.3652,-3566.6007L13478.3659,-3566.6029L13478.3654,-3566.605L13478.3663,-3566.6062L13478.3677,-3566.606L13478.3691,-3566.6071L13478.3719,-3566.6066L13478.3742,-3566.6071L13478.3801,-3566.6058L13478.3817,-3566.6065L13478.3843,-3566.6062L13478.3852,-3566.6069L13478.3896,-3566.6072L13478.3913,-3566.6058L13478.3926,-3566.6066L13478.3952,-3566.6065L13478.3964,-3566.607L13478.3978,-3566.6065L13478.3998,-3566.605L13478.4022,-3566.6043L13478.4031,-3566.6047L13478.404,-3566.6072L13478.4052,-3566.607L13478.407,-3566.6077L13478.4083,-3566.607L13478.4092,-3566.6082L13478.4105,-3566.6088L13478.4108,-3566.6108L13478.4119,-3566.6117L13478.4105,-3566.6144L13478.4114,-3566.6154L13478.4133,-3566.6156L13478.4134,-3566.6167L13478.4143,-3566.6175L13478.4139,-3566.619L13478.4145,-3566.62L13478.4139,-3566.6226L13478.4151,-3566.6251L13478.4149,-3566.6268L13478.413,-3566.6289L13478.415,-3566.6314L13478.4173,-3566.6311L13478.419,-3566.6294L13478.4202,-3566.6306L13478.4199,-3566.6314L13478.4206,-3566.6323L13478.4162,-3566.6354L13478.4146,-3566.6359L13478.4136,-3566.6369L13478.4145,-3566.6393L13478.4159,-3566.6399L13478.4182,-3566.6377L13478.4194,-3566.6376L13478.4208,-3566.6366L13478.4233,-3566.6397L13478.4236,-3566.6411L13478.4254,-3566.6421L13478.4248,-3566.6428L13478.4252,-3566.6466L13478.4268,-3566.6476L13478.4273,-3566.6493L13478.4268,-3566.651L13478.4275,-3566.6523L13478.4291,-3566.653L13478.4284,-3566.6551L13478.4293,-3566.6561L13478.4293,-3566.6571L13478.4335,-3566.6584L13478.4358,-3566.6577L13478.4367,-3566.6588L13478.4367,-3566.6608L13478.4378,-3566.662L13478.4378,-3566.6631L13478.4394,-3566.6644L13478.4406,-3566.6645L13478.442,-3566.6638L13478.4453,-3566.6649L13478.4481,-3566.6638L13478.4499,-3566.6644L13478.4515,-3566.6644L13478.4523,-3566.6638L13478.4537,-3566.6641L13478.4555,-3566.6629L13478.4565,-3566.6639L13478.4586,-3566.6642L13478.4623,-3566.6632L13478.4643,-3566.6645L13478.4672,-3566.6642L13478.4679,-3566.6636L13478.4695,-3566.663L13478.4699,-3566.6618L13478.4753,-3566.6585L13478.4748,-3566.6565L13478.4765,-3566.6551L13478.4796,-3566.657L13478.4805,-3566.6585L13478.4821,-3566.6587L13478.4833,-3566.6598L13478.4849,-3566.6597L13478.4865,-3566.6624L13478.4893,-3566.6626L13478.4923,-3566.6596L13478.4949,-3566.6592L13478.4981,-3566.6595L13478.5,-3566.6579L13478.5,-3566.655L13478.5021,-3566.6532L13478.5036,-3566.6531L13478.5054,-3566.6549L13478.5074,-3566.655L13478.5105,-3566.6544L13478.5117,-3566.6554L13478.5163,-3566.6564L13478.5175,-3566.6554L13478.518,-3566.6532L13478.5172,-3566.6511L13478.5189,-3566.6478L13478.5185,-3566.6462L13478.5175,-3566.6452L13478.5196,-3566.6415L13478.518,-3566.6386L13478.5211,-3566.6353L13478.5204,-3566.6316L13478.5221,-3566.6299L13478.5228,-3566.6303L13478.5247,-3566.63L13478.5267,-3566.6302L13478.5272,-3566.6306L13478.5267,-3566.6332L13478.5274,-3566.6342L13478.5269,-3566.6359L13478.5277,-3566.6369L13478.5274,-3566.6389L13478.5293,-3566.6417L13478.5274,-3566.6439L13478.5273,-3566.6459L13478.5262,-3566.647L13478.5262,-3566.6486L13478.5275,-3566.6502L13478.5278,-3566.6523L13478.5273,-3566.654L13478.5296,-3566.6566L13478.5294,-3566.6585L13478.531,-3566.6596L13478.5347,-3566.6587L13478.5365,-3566.6573L13478.5359,-3566.6553L13478.5356,-3566.6533L13478.5338,-3566.6519L13478.5343,-3566.6509L13478.534,-3566.6493L13478.5368,-3566.649L13478.538,-3566.6492L13478.5399,-3566.6504L13478.5448,-3566.6504L13478.5462,-3566.6524L13478.5462,-3566.6527L13478.5455,-3566.6534L13478.5464,-3566.6555L13478.545,-3566.6573L13478.5468,-3566.6583L13478.5496,-3566.6565L13478.551,-3566.6545L13478.5505,-3566.653L13478.5519,-3566.6501L13478.5515,-3566.646L13478.553,-3566.646L13478.5564,-3566.6498L13478.5582,-3566.6511L13478.5597,-3566.6514L13478.5597,-3566.6526L13478.5608,-3566.6541L13478.5631,-3566.6549L13478.5631,-3566.6568L13478.5656,-3566.6586L13478.5652,-3566.6595L13478.5663,-3566.6609L13478.5688,-3566.6614L13478.5696,-3566.6616L13478.5721,-3566.6602L13478.5754,-3566.6605L13478.5772,-3566.6592L13478.5784,-3566.659L13478.5812,-3566.6564L13478.5803,-3566.6544L13478.5826,-3566.651L13478.5824,-3566.6493L13478.5813,-3566.6483L13478.5822,-3566.6458L13478.5809,-3566.6425L13478.5815,-3566.6417L13478.5811,-3566.6407L13478.583,-3566.639L13478.583,-3566.6367L13478.5821,-3566.6351L13478.5833,-3566.6341L13478.5835,-3566.6327L13478.5859,-3566.6311L13478.5866,-3566.6274L13478.5905,-3566.6265L13478.592,-3566.6253L13478.597,-3566.6262L13478.6012,-3566.6263L13478.6059,-3566.6291L13478.6075,-3566.6299L13478.6091,-3566.6294L13478.6105,-3566.6273L13478.6101,-3566.6265L13478.6117,-3566.6248L13478.6131,-3566.6257L13478.6157,-3566.6261L13478.6165,-3566.627L13478.6177,-3566.6272L13478.6182,-3566.6282L13478.6199,-3566.6291L13478.6203,-3566.6304L13478.6222,-3566.6312L13478.6238,-3566.6332L13478.6265,-3566.6336L13478.6279,-3566.6352L13478.6289,-3566.6352L13478.6312,-3566.6369L13478.6344,-3566.6366L13478.6359,-3566.638L13478.6374,-3566.6382L13478.6389,-3566.6396L13478.6402,-3566.6399L13478.6407,-3566.6417L13478.6439,-3566.6452L13478.6444,-3566.649L13478.646,-3566.6503L13478.6458,-3566.653L13478.6478,-3566.6545L13478.6483,-3566.656L13478.6494,-3566.6567L13478.6501,-3566.6566L13478.6534,-3566.6593L13478.6538,-3566.6606L13478.6555,-3566.6614L13478.6559,-3566.6629L13478.6571,-3566.664L13478.657,-3566.6662L13478.6573,-3566.6667L13478.6589,-3566.6689L13478.6598,-3566.67L13478.663,-3566.6711L13478.6658,-3566.6711L13478.667,-3566.6706L13478.6675,-3566.6711L13478.6675,-3566.6744L13478.6695,-3566.675L13478.6704,-3566.6738L13478.6723,-3566.6731L13478.6728,-3566.6722L13478.6721,-3566.6697L13478.6737,-3566.6675L13478.6737,-3566.6667L13478.674,-3566.6637L13478.6729,-3566.6607L13478.674,-3566.6598L13478.6752,-3566.6556L13478.6736,-3566.6538L13478.6752,-3566.6527L13478.6773,-3566.6539L13478.6795,-3566.6536L13478.681,-3566.6526L13478.6822,-3566.6533L13478.6834,-3566.6532L13478.6844,-3566.6539L13478.6872,-3566.6537L13478.6895,-3566.6554L13478.6922,-3566.6557L13478.6943,-3566.6553L13478.6946,-3566.6571L13478.6922,-3566.659L13478.6908,-3566.6613L13478.6911,-3566.663L13478.6906,-3566.6643L13478.6913,-3566.665L13478.6905,-3566.6667L13478.6896,-3566.6685L13478.6912,-3566.6702L13478.6898,-3566.6714L13478.6889,-3566.6709L13478.6861,-3566.6713L13478.6836,-3566.6723L13478.6828,-3566.6733L13478.683,-3566.6748L13478.6846,-3566.6764L13478.6886,-3566.6773L13478.6898,-3566.6783L13478.693,-3566.6795L13478.6944,-3566.6812L13478.6948,-3566.6833L13478.6974,-3566.684L13478.6986,-3566.6829L13478.7016,-3566.6824L13478.7027,-3566.6813L13478.7028,-3566.68L13478.7044,-3566.6783L13478.703,-3566.6754L13478.7034,-3566.6716L13478.7061,-3566.6705L13478.7072,-3566.6707L13478.7091,-3566.6695L13478.7112,-3566.6705L13478.7128,-3566.6702L13478.7145,-3566.6708L13478.7163,-3566.6705L13478.7175,-3566.6712L13478.7193,-3566.6709L13478.7196,-3566.6722L13478.7208,-3566.6727L13478.7217,-3566.6738L13478.7236,-3566.6741L13478.7238,-3566.6757L13478.7247,-3566.6766L13478.7268,-3566.6768L13478.7295,-3566.6789L13478.7314,-3566.6788L13478.733,-3566.6793L13478.7354,-3566.6785L13478.7365,-3566.6791L13478.7377,-3566.679L13478.7395,-3566.6803L13478.7403,-3566.6802L13478.7428,-3566.6819L13478.7453,-3566.6823L13478.747,-3566.6837L13478.7481,-3566.6838L13478.7498,-3566.6861L13478.7495,-3566.6865L13478.7504,-3566.6874L13478.7527,-3566.6881L13478.7528,-3566.6883L13478.753,-3566.6887L13478.7539,-3566.6893L13478.7555,-3566.689L13478.7569,-3566.6905L13478.7597,-3566.6912L13478.7616,-3566.6908L13478.7632,-3566.6892L13478.7646,-3566.6892L13478.7662,-3566.6911L13478.7688,-3566.6915L13478.7702,-3566.6929L13478.7722,-3566.6934L13478.7727,-3566.6935L13478.7743,-3566.6946L13478.7759,-3566.6948L13478.7783,-3566.694L13478.7808,-3566.695L13478.7822,-3566.6949L13478.7845,-3566.6969L13478.7857,-3566.6969L13478.788,-3566.6954L13478.7894,-3566.696L13478.7916,-3566.6957L13478.793,-3566.6966L13478.7955,-3566.6963L13478.7999,-3566.7001L13478.8013,-3566.7001L13478.8036,-3566.6974L13478.8055,-3566.6975L13478.8064,-3566.6968L13478.808,-3566.6978L13478.8101,-3566.6978L13478.8118,-3566.6968L13478.8132,-3566.6973L13478.815,-3566.6973L13478.8158,-3566.6968L13478.8183,-3566.6975L13478.8202,-3566.6963L13478.8218,-3566.6972L13478.8246,-3566.6976L13478.8262,-3566.6967L13478.8292,-3566.6974L13478.8302,-3566.6981L13478.8327,-3566.6978L13478.8341,-3566.6987L13478.8364,-3566.6984L13478.8383,-3566.6995L13478.842,-3566.6991L13478.8434,-3566.7001L13478.8455,-3566.6998L13478.8473,-3566.7016L13478.8488,-3566.7015L13478.8491,-3566.7029L13478.8502,-3566.7036L13478.8513,-3566.7055L13478.8534,-3566.7058L13478.8545,-3566.7053L13478.8569,-3566.7076L13478.8592,-3566.7088L13478.8627,-3566.7079L13478.8643,-3566.706L13478.8655,-3566.7074L13478.8655,-3566.7084L13478.8699,-3566.7116L13478.8727,-3566.7123L13478.8745,-3566.7121L13478.8759,-3566.713L13478.8778,-3566.7124L13478.8778,-3566.7104L13478.8789,-3566.7093L13478.8796,-3566.7095L13478.8839,-3566.7089L13478.8845,-3566.7094L13478.8841,-3566.7098L13478.8834,-3566.7117L13478.8857,-3566.7129L13478.8852,-3566.7145L13478.8857,-3566.7159L13478.8849,-3566.7169L13478.8852,-3566.7184L13478.8842,-3566.7197L13478.8838,-3566.7217L13478.8844,-3566.7234L13478.8865,-3566.7237L13478.8888,-3566.7218L13478.8905,-3566.7214L13478.8917,-3566.7201L13478.8942,-3566.7206L13478.8959,-3566.7196L13478.8961,-3566.7185L13478.8975,-3566.7175L13478.8973,-3566.7153L13478.8982,-3566.7145L13478.8984,-3566.713L13478.8977,-3566.7122L13478.8982,-3566.7102L13478.8971,-3566.7089L13478.8978,-3566.7072L13478.8974,-3566.7047L13478.8992,-3566.7036L13478.9011,-3566.7047L13478.902,-3566.7046L13478.9041,-3566.706L13478.9048,-3566.7084L13478.9073,-3566.7103L13478.9088,-3566.7105L13478.91,-3566.7124L13478.9099,-3566.7141L13478.9113,-3566.7154L13478.911,-3566.7174L13478.9119,-3566.7186L13478.9103,-3566.7206L13478.9101,-3566.7226L13478.9112,-3566.7244L13478.9126,-3566.7251L13478.9137,-3566.727L13478.9137,-3566.7296L13478.9179,-3566.7321L13478.9183,-3566.7341L13478.9248,-3566.7361L13478.9272,-3566.7347L13478.9302,-3566.7355L13478.9325,-3566.7345L13478.9344,-3566.7345L13478.9358,-3566.7336L13478.9362,-3566.7322L13478.9355,-3566.7289L13478.9339,-3566.7272L13478.9346,-3566.7265L13478.9367,-3566.7271L13478.9381,-3566.7261L13478.9396,-3566.7271L13478.9409,-3566.727L13478.943,-3566.7286L13478.9447,-3566.7279L13478.9456,-3566.7257L13478.9468,-3566.7259L13478.9479,-3566.7253L13478.949,-3566.7261L13478.9505,-3566.7263L13478.9519,-3566.7279L13478.9547,-3566.7271L13478.9561,-3566.7258L13478.958,-3566.7266L13478.9593,-3566.7281L13478.9611,-3566.7281L13478.9633,-3566.7265L13478.9649,-3566.7265L13478.9663,-3566.7258L13478.9682,-3566.7269L13478.968,-3566.7286L13478.9669,-3566.7302L13478.9672,-3566.7312L13478.9681,-3566.732L13478.9696,-3566.7317L13478.9711,-3566.7309L13478.9713,-3566.7293L13478.9727,-3566.7273L13478.9741,-3566.7287L13478.9733,-3566.7314L13478.974,-3566.7345L13478.9749,-3566.7355L13478.9735,-3566.7366L13478.9728,-3566.7382L13478.9739,-3566.7405L13478.9753,-3566.7415L13478.9783,-3566.7416L13478.98,-3566.7405L13478.9816,-3566.7402L13478.9823,-3566.7393L13478.9837,-3566.7383L13478.9858,-3566.7347L13478.9856,-3566.734L13478.9867,-3566.7329L13478.987,-3566.7309L13478.9888,-3566.7296L13478.9898,-3566.7269L13478.9915,-3566.7273L13478.9924,-3566.7269L13478.994,-3566.7277L13478.9964,-3566.7277L13478.9986,-3566.7291L13478.9993,-3566.7323L13478.9989,-3566.7338L13479.0004,-3566.7351L13479.0025,-3566.734L13479.0044,-3566.7297L13479.0061,-3566.7299L13479.008,-3566.7291L13479.0088,-3566.7302L13479.0103,-3566.7309L13479.01,-3566.7332L13479.0082,-3566.7359L13479.0086,-3566.7374L13479.01,-3566.7385L13479.01,-3566.7397L13479.0111,-3566.7409L13479.0121,-3566.7422L13479.0111,-3566.7433L13479.0106,-3566.7438L13479.0083,-3566.7439L13479.0071,-3566.7448L13479.0065,-3566.7447L13479.0039,-3566.7467L13479.0036,-3566.7494L13479.0045,-3566.7504L13479.0039,-3566.7516L13479.0055,-3566.7531L13479.008,-3566.7534L13479.0094,-3566.7525L13479.0108,-3566.7531L13479.0111,-3566.7531L13479.0119,-3566.7531L13479.014,-3566.7515L13479.0176,-3566.7508L13479.0194,-3566.7488L13479.0217,-3566.7481L13479.0227,-3566.7469L13479.0258,-3566.7462L13479.0288,-3566.7429L13479.0309,-3566.7429L13479.0356,-3566.7398L13479.0355,-3566.7376L13479.0373,-3566.737L13479.0379,-3566.7355L13479.0402,-3566.7334L13479.0398,-3566.732L13479.0417,-3566.7306L13479.0424,-3566.729L13479.0433,-3566.729L13479.0442,-3566.7281L13479.045,-3566.7278L13479.0467,-3566.7282L13479.048,-3566.7278L13479.0489,-3566.7285L13479.0505,-3566.7282L13479.0522,-3566.7298L13479.0535,-3566.7299L13479.0536,-3566.7301L13479.0571,-3566.7309L13479.0557,-3566.7325L13479.0561,-3566.7339L13479.0552,-3566.7355L13479.0556,-3566.7372L13479.0568,-3566.7381L13479.0582,-3566.7386L13479.0596,-3566.7385L13479.0614,-3566.74L13479.0629,-3566.7404L13479.0646,-3566.7415L13479.0658,-3566.7415L13479.0677,-3566.7433L13479.0714,-3566.7436L13479.0726,-3566.743L13479.0742,-3566.7443L13479.0788,-3566.7446L13479.0804,-3566.7439L13479.082,-3566.7441L13479.0842,-3566.7417L13479.0851,-3566.7421L13479.0853,-3566.7434L13479.0861,-3566.7442L13479.0853,-3566.7465L13479.0867,-3566.7475L13479.0888,-3566.7463L13479.0901,-3566.7461L13479.0912,-3566.7448L13479.0927,-3566.7452L13479.0946,-3566.7446L13479.0956,-3566.7454L13479.0981,-3566.7455L13479.1011,-3566.7435L13479.1028,-3566.7452L13479.1028,-3566.7467L13479.1053,-3566.7485L13479.1095,-3566.7479L13479.1112,-3566.7467L13479.1135,-3566.7471L13479.1158,-3566.7461L13479.1177,-3566.7463L13479.12,-3566.7445L13479.1212,-3566.745L13479.1231,-3566.7444L13479.125,-3566.7449L13479.126,-3566.7447Z"/>
<path content="兵庫県,,,豊岡市,,28209" xlink:title="兵庫県" d="M13478.4617,-3566.7156L13478.4629,-3566.7148L13478.465,-3566.7153L13478.4656,-3566.7122L13478.4678,-3566.7114L13478.4687,-3566.7088L13478.4705,-3566.7084L13478.4719,-3566.7065L13478.4733,-3566.7068L13478.4748,-3566.7052L13478.4757,-3566.7038L13478.4734,-3566.7008L13478.4738,-3566.6993L13478.4729,-3566.6978L13478.4731,-3566.6967L13478.4718,-3566.6953L13478.4703,-3566.6949L13478.4701,-3566.6945L13478.4697,-3566.6936L13478.4671,-3566.6925L13478.4662,-3566.691L13478.4644,-3566.6901L13478.4644,-3566.689L13478.4627,-3566.6869L13478.4604,-3566.6863L13478.4593,-3566.685L13478.4562,-3566.6849L13478.4542,-3566.6837L13478.4535,-3566.6821L13478.4521,-3566.6816L13478.4519,-3566.6815L13478.4514,-3566.6803L13478.4496,-3566.6796L13478.4486,-3566.6779L13478.4456,-3566.6775L13478.4449,-3566.6755L13478.4429,-3566.6741L13478.4419,-3566.6741L13478.4399,-3566.6721L13478.437,-3566.672L13478.4356,-3566.67L13478.4329,-3566.6695L13478.4317,-3566.668L13478.4294,-3566.6667L13478.4292,-3566.6665L13478.4285,-3566.6667L13478.4268,-3566.667L13478.4266,-3566.6667L13478.4261,-3566.6658L13478.4243,-3566.6653L13478.4227,-3566.6637L13478.4215,-3566.6636L13478.4206,-3566.6643L13478.4179,-3566.6643L13478.4165,-3566.666L13478.4155,-3566.6667L13478.4143,-3566.6675L13478.4135,-3566.6695L13478.4116,-3566.6701L13478.4104,-3566.6717L13478.4085,-3566.6705L13478.4059,-3566.6709L13478.4054,-3566.6704L13478.4059,-3566.6672L13478.4046,-3566.6667L13478.4039,-3566.6664L13478.4035,-3566.6667L13478.4006,-3566.6688L13478.4006,-3566.6705L13478.3999,-3566.6714L13478.3978,-3566.6718L13478.3957,-3566.6737L13478.3959,-3566.6743L13478.3925,-3566.6767L13478.3924,-3566.6787L13478.3915,-3566.6793L13478.3922,-3566.6806L13478.3896,-3566.6832L13478.3895,-3566.6848L13478.3912,-3566.6853L13478.3927,-3566.6866L13478.3976,-3566.6866L13478.3989,-3566.6879L13478.4002,-3566.6883L13478.4004,-3566.6891L13478.4014,-3566.6903L13478.4036,-3566.6909L13478.4051,-3566.692L13478.4092,-3566.6921L13478.4102,-3566.6913L13478.413,-3566.6917L13478.4137,-3566.6933L13478.4157,-3566.6944L13478.4157,-3566.6947L13478.4158,-3566.6954L13478.4174,-3566.6965L13478.418,-3566.698L13478.4215,-3566.7005L13478.4211,-3566.7015L13478.4224,-3566.7028L13478.4227,-3566.7042L13478.4235,-3566.7047L13478.4254,-3566.7047L13478.4285,-3566.7077L13478.431,-3566.7082L13478.4342,-3566.7105L13478.4365,-3566.7104L13478.4375,-3566.7095L13478.4368,-3566.7076L13478.4375,-3566.7068L13478.4389,-3566.7078L13478.4399,-3566.7076L13478.4421,-3566.7093L13478.443,-3566.7093L13478.4442,-3566.7082L13478.4454,-3566.7085L13478.4464,-3566.7078L13478.4499,-3566.7101L13478.4499,-3566.7111L13478.4513,-3566.7127L13478.4531,-3566.7142L13478.4545,-3566.7144L13478.4552,-3566.7152L13478.4572,-3566.7152L13478.4595,-3566.7144L13478.4617,-3566.7156Z"/>
<path content="兵庫県,,,豊岡市,,28209" xlink:title="兵庫県" d="M13479.126,-3566.804L13479.1254,-3566.8044L13479.1256,-3566.8058L13479.126,-3566.8059Z"/>
<path content="兵庫県,,,豊岡市,,28209" xlink:title="兵庫県" d="M13479.0881,-3566.8354L13479.0893,-3566.8334L13479.0918,-3566.8336L13479.0922,-3566.8332L13479.0946,-3566.8343L13479.0961,-3566.8339L13479.0988,-3566.8319L13479.1007,-3566.8325L13479.104,-3566.8322L13479.1061,-3566.8309L13479.1079,-3566.8317L13479.1094,-3566.8314L13479.1096,-3566.8316L13479.111,-3566.8327L13479.113,-3566.833L13479.1145,-3566.8347L13479.1175,-3566.8358L13479.1182,-3566.8355L13479.1195,-3566.8338L13479.1193,-3566.8324L13479.1177,-3566.8308L13479.1177,-3566.8301L13479.1166,-3566.8294L13479.1172,-3566.8277L13479.1157,-3566.8262L13479.1164,-3566.8251L13479.1159,-3566.8231L13479.1166,-3566.8221L13479.1157,-3566.8208L13479.1157,-3566.8187L13479.1138,-3566.8167L13479.1153,-3566.8145L13479.1151,-3566.8132L13479.1169,-3566.8134L13479.1195,-3566.8121L13479.1193,-3566.8108L13479.1209,-3566.8085L13479.1207,-3566.8072L13479.1194,-3566.8063L13479.1183,-3566.8066L13479.117,-3566.8058L13479.114,-3566.8061L13479.1123,-3566.8041L13479.1109,-3566.8035L13479.1089,-3566.8037L13479.1077,-3566.8045L13479.106,-3566.8037L13479.1035,-3566.8044L13479.1,-3566.804L13479.0986,-3566.8054L13479.0958,-3566.8051L13479.094,-3566.804L13479.0919,-3566.8039L13479.09,-3566.802L13479.0877,-3566.8023L13479.0865,-3566.8013L13479.0831,-3566.8009L13479.0823,-3566.8018L13479.0809,-3566.8013L13479.0789,-3566.8016L13479.0767,-3566.8005L13479.0745,-3566.8006L13479.073,-3566.8018L13479.0719,-3566.8015L13479.0706,-3566.8021L13479.07,-3566.8036L13479.069,-3566.8036L13479.0673,-3566.8055L13479.0677,-3566.8064L13479.066,-3566.8081L13479.0632,-3566.809L13479.0601,-3566.8082L13479.0576,-3566.8094L13479.0553,-3566.8094L13479.0534,-3566.8104L13479.0513,-3566.8093L13479.0495,-3566.8093L13479.0481,-3566.8112L13479.0492,-3566.8128L13479.0506,-3566.8131L13479.0524,-3566.8149L13479.0541,-3566.815L13479.0551,-3566.8166L13479.0567,-3566.8173L13479.0572,-3566.8186L13479.0583,-3566.8193L13479.0596,-3566.8195L13479.0613,-3566.8182L13479.0624,-3566.8173L13479.0641,-3566.8174L13479.065,-3566.8167L13479.0662,-3566.8168L13479.0671,-3566.816L13479.0694,-3566.8171L13479.0708,-3566.8167L13479.0727,-3566.8173L13479.0748,-3566.8164L13479.0767,-3566.8174L13479.0796,-3566.8174L13479.0811,-3566.8167L13479.0829,-3566.8189L13479.0824,-3566.8204L13479.0841,-3566.8216L13479.0833,-3566.8239L13479.0845,-3566.8255L13479.0824,-3566.8258L13479.0812,-3566.8268L13479.0786,-3566.8265L13479.0759,-3566.8278L13479.0763,-3566.8291L13479.0784,-3566.8304L13479.0788,-3566.8333L13479.0798,-3566.8341L13479.0821,-3566.8347L13479.084,-3566.8362L13479.0862,-3566.8365L13479.0881,-3566.8354Z"/>
<path content="兵庫県,,,豊岡市,,28209" xlink:title="兵庫県" d="M13478.4317,-3566.7427L13478.4342,-3566.7421L13478.436,-3566.7423L13478.4384,-3566.7398L13478.4381,-3566.7384L13478.4387,-3566.7377L13478.4386,-3566.7365L13478.4401,-3566.7354L13478.4407,-3566.7336L13478.4419,-3566.7327L13478.4431,-3566.7328L13478.4448,-3566.7345L13478.4468,-3566.7344L13478.4478,-3566.7335L13478.4473,-3566.729L13478.4461,-3566.7279L13478.4439,-3566.7273L13478.4429,-3566.7262L13478.4411,-3566.7255L13478.4401,-3566.7239L13478.4383,-3566.7223L13478.4362,-3566.7223L13478.4353,-3566.7213L13478.4329,-3566.7206L13478.4309,-3566.7191L13478.4302,-3566.7191L13478.4272,-3566.7168L13478.4251,-3566.7168L13478.4248,-3566.7147L13478.4234,-3566.7134L13478.4232,-3566.7122L13478.4212,-3566.7118L13478.4211,-3566.7117L13478.4214,-3566.7108L13478.42,-3566.7082L13478.4183,-3566.7074L13478.4156,-3566.7044L13478.4113,-3566.7022L13478.4096,-3566.7023L13478.4082,-3566.7008L13478.4068,-3566.7007L13478.4057,-3566.6987L13478.404,-3566.6977L13478.4034,-3566.6963L13478.4015,-3566.695L13478.3959,-3566.697L13478.3945,-3566.6989L13478.3948,-3566.7005L13478.3975,-3566.7026L13478.3996,-3566.703L13478.3999,-3566.704L13478.4015,-3566.705L13478.4015,-3566.707L13478.4029,-3566.709L13478.405,-3566.7105L13478.4056,-3566.7118L13478.4079,-3566.7126L13478.4082,-3566.714L13478.4114,-3566.7166L13478.4135,-3566.7173L13478.4142,-3566.7188L13478.416,-3566.7196L13478.4164,-3566.7212L13478.416,-3566.7215L13478.4145,-3566.7209L13478.4125,-3566.721L13478.411,-3566.7221L13478.4123,-3566.7238L13478.4136,-3566.7236L13478.4159,-3566.7253L13478.418,-3566.7249L13478.4201,-3566.7259L13478.422,-3566.7284L13478.4238,-3566.7282L13478.4269,-3566.7309L13478.4285,-3566.7313L13478.4287,-3566.7323L13478.4308,-3566.7338L13478.4315,-3566.7351L13478.4292,-3566.7368L13478.4287,-3566.739L13478.4301,-3566.7416L13478.4317,-3566.7427Z"/>
<path content="兵庫県,,,豊岡市,,28209" xlink:title="兵庫県" d="M13478.7682,-3566.7596L13478.7693,-3566.7591L13478.7711,-3566.7595L13478.7727,-3566.761L13478.7765,-3566.762L13478.778,-3566.761L13478.7784,-3566.7593L13478.7797,-3566.7583L13478.7796,-3566.7571L13478.781,-3566.7563L13478.7813,-3566.7547L13478.7825,-3566.7544L13478.7834,-3566.7535L13478.7836,-3566.7521L13478.7845,-3566.7514L13478.7844,-3566.7503L13478.7867,-3566.7501L13478.7883,-3566.7488L13478.7893,-3566.7487L13478.7904,-3566.7474L13478.7899,-3566.7449L13478.7906,-3566.7425L13478.7895,-3566.7406L13478.7898,-3566.7389L13478.7889,-3566.737L13478.7868,-3566.7349L13478.7843,-3566.7337L13478.7834,-3566.7337L13478.7824,-3566.7329L13478.7806,-3566.733L13478.7792,-3566.732L13478.7762,-3566.7325L13478.7746,-3566.7335L13478.7727,-3566.7329L13478.7704,-3566.733L13478.7695,-3566.7345L13478.7682,-3566.7345L13478.7664,-3566.7356L13478.7664,-3566.737L13478.7636,-3566.7396L13478.7636,-3566.7412L13478.7624,-3566.743L13478.7627,-3566.7442L13478.761,-3566.7456L13478.761,-3566.7482L13478.7594,-3566.7502L13478.7598,-3566.7513L13478.7583,-3566.7523L13478.7572,-3566.7542L13478.7579,-3566.7562L13478.7569,-3566.7573L13478.7569,-3566.7584L13478.7576,-3566.7591L13478.7572,-3566.7601L13478.7581,-3566.761L13478.7592,-3566.7614L13478.7628,-3566.7617L13478.7617,-3566.7625L13478.7602,-3566.7629L13478.7597,-3566.7639L13478.7615,-3566.7654L13478.7645,-3566.7654L13478.7659,-3566.7647L13478.7682,-3566.7622L13478.7687,-3566.7607L13478.7682,-3566.7596Z"/>
<path content="兵庫県,,,豊岡市,,28209" xlink:title="兵庫県" d="M13478.3051,-3566.3532L13478.3061,-3566.3531L13478.3073,-3566.3534L13478.3082,-3566.3534L13478.3099,-3566.3524L13478.3101,-3566.3532L13478.3109,-3566.3537L13478.3129,-3566.3537L13478.3138,-3566.353L13478.3154,-3566.3531L13478.3168,-3566.3515L13478.3186,-3566.352L13478.3202,-3566.352L13478.3217,-3566.3512L13478.3229,-3566.3512L13478.3245,-3566.3499L13478.3255,-3566.3504L13478.3269,-3566.3504L13478.3281,-3566.3497L13478.329,-3566.3486L13478.3293,-3566.3469L13478.3304,-3566.3463L13478.3307,-3566.3458L13478.3283,-3566.3429L13478.3258,-3566.3424L13478.3234,-3566.3415L13478.3219,-3566.3414L13478.3209,-3566.3418L13478.3199,-3566.3413L13478.315,-3566.3415L13478.3143,-3566.3419L13478.3135,-3566.3419L13478.3132,-3566.3412L13478.3115,-3566.3404L13478.3072,-3566.3402L13478.3058,-3566.3404L13478.3055,-3566.3409L13478.3039,-3566.3399L13478.3006,-3566.3396L13478.2996,-3566.34L13478.2981,-3566.3413L13478.297,-3566.3418L13478.2964,-3566.3429L13478.295,-3566.3441L13478.2937,-3566.344L13478.2923,-3566.3452L13478.2916,-3566.3474L13478.2916,-3566.3492L13478.2905,-3566.35L13478.2903,-3566.3519L13478.2921,-3566.3532L13478.2935,-3566.3533L13478.2947,-3566.3527L13478.2962,-3566.3534L13478.3001,-3566.3535L13478.3021,-3566.3522L13478.3029,-3566.3537L13478.3041,-3566.3538L13478.3051,-3566.3532Z"/>
<path content="兵庫県,,,豊岡市,,28209" xlink:title="兵庫県" d="M13478.4113,-3566.7866L13478.411,-3566.7851L13478.4118,-3566.7841L13478.412,-3566.7827L13478.4113,-3566.7818L13478.4113,-3566.7804L13478.4099,-3566.7791L13478.4099,-3566.7775L13478.4077,-3566.7764L13478.4076,-3566.7748L13478.4049,-3566.7736L13478.4049,-3566.7721L13478.4037,-3566.771L13478.4019,-3566.769L13478.4017,-3566.7677L13478.401,-3566.7659L13478.3999,-3566.7657L13478.3982,-3566.7633L13478.398,-3566.7614L13478.3973,-3566.7608L13478.3953,-3566.761L13478.3943,-3566.763L13478.3946,-3566.7643L13478.3926,-3566.7657L13478.3912,-3566.7677L13478.3915,-3566.7695L13478.3908,-3566.7716L13478.3929,-3566.7753L13478.393,-3566.7773L13478.3947,-3566.7784L13478.3951,-3566.7798L13478.3965,-3566.7808L13478.3972,-3566.7826L13478.4,-3566.7845L13478.4018,-3566.7849L13478.4025,-3566.7856L13478.4036,-3566.7856L13478.4048,-3566.7872L13478.4064,-3566.7876L13478.4078,-3566.7894L13478.409,-3566.7896L13478.4105,-3566.7887L13478.4103,-3566.7876L13478.4113,-3566.7866Z"/>
<path content="兵庫県,,,豊岡市,,28209" xlink:title="兵庫県" d="M13478.365,-3566.5658L13478.3655,-3566.5632L13478.3646,-3566.5621L13478.365,-3566.5606L13478.3645,-3566.5601L13478.365,-3566.5589L13478.3627,-3566.5568L13478.3602,-3566.5566L13478.3592,-3566.5553L13478.3572,-3566.5555L13478.3551,-3566.5539L13478.353,-3566.5542L13478.3509,-3566.5532L13478.3491,-3566.5539L13478.3476,-3566.5528L13478.3453,-3566.553L13478.343,-3566.5541L13478.3418,-3566.5556L13478.3398,-3566.5558L13478.339,-3566.557L13478.3393,-3566.5584L13478.3407,-3566.559L13478.3411,-3566.56L13478.3427,-3566.5607L13478.3437,-3566.5626L13478.3455,-3566.5627L13478.3469,-3566.5643L13478.349,-3566.5647L13478.3501,-3566.566L13478.3522,-3566.5662L13478.3538,-3566.565L13478.3559,-3566.5649L13478.3569,-3566.5658L13478.3581,-3566.5664L13478.3601,-3566.5663L13478.361,-3566.5656L13478.3627,-3566.5666L13478.365,-3566.5658Z"/>
<path content="兵庫県,,,豊岡市,,28209" xlink:title="兵庫県" d="M13478.3525,-3566.7812L13478.3545,-3566.7804L13478.3571,-3566.7806L13478.3576,-3566.7802L13478.3575,-3566.7782L13478.3581,-3566.7767L13478.3574,-3566.775L13478.3585,-3566.7742L13478.3583,-3566.7731L13478.3574,-3566.7718L13478.3564,-3566.7711L13478.357,-3566.77L13478.357,-3566.7686L13478.3562,-3566.767L13478.3558,-3566.7653L13478.3524,-3566.7623L13478.3483,-3566.7629L13478.3482,-3566.7642L13478.3466,-3566.765L13478.3452,-3566.7672L13478.3454,-3566.7688L13478.3442,-3566.7701L13478.3449,-3566.7729L13478.3447,-3566.7751L13478.3465,-3566.7778L13478.3484,-3566.7782L13478.3513,-3566.7809L13478.3525,-3566.7812Z"/>
<path content="兵庫県,,,豊岡市,,28209" xlink:title="兵庫県" d="M13478.2844,-3566.5454L13478.2858,-3566.5442L13478.2855,-3566.5431L13478.2865,-3566.5423L13478.287,-3566.5406L13478.2893,-3566.5386L13478.2894,-3566.5366L13478.2914,-3566.5359L13478.2926,-3566.5346L13478.2938,-3566.5355L13478.2957,-3566.5356L13478.2966,-3566.5346L13478.2954,-3566.5324L13478.2954,-3566.5313L13478.2942,-3566.5303L13478.2927,-3566.5302L13478.2927,-3566.5292L13478.2904,-3566.5278L13478.289,-3566.5281L13478.2886,-3566.5275L13478.2872,-3566.5275L13478.2862,-3566.5286L13478.2852,-3566.5292L13478.2829,-3566.5292L13478.282,-3566.53L13478.2825,-3566.5332L13478.2836,-3566.534L13478.2822,-3566.5352L13478.2822,-3566.536L13478.2812,-3566.5368L13478.2812,-3566.538L13478.2802,-3566.539L13478.2804,-3566.5403L13478.2796,-3566.5412L13478.2795,-3566.5425L13478.2805,-3566.5431L13478.2807,-3566.5442L13478.2819,-3566.5451L13478.283,-3566.5448L13478.2844,-3566.5454Z"/>
<path content="兵庫県,,,豊岡市,,28209" xlink:title="兵庫県" d="M13478.5192,-3566.7339L13478.5197,-3566.7313L13478.5192,-3566.7294L13478.5194,-3566.7278L13478.5178,-3566.7263L13478.5165,-3566.7238L13478.5146,-3566.7229L13478.5137,-3566.7201L13478.5112,-3566.7181L13478.5068,-3566.7158L13478.5057,-3566.7164L13478.5054,-3566.7177L13478.5061,-3566.7195L13478.5057,-3566.721L13478.5064,-3566.7215L13478.5059,-3566.7221L13478.5063,-3566.7234L13478.5076,-3566.724L13478.5086,-3566.7251L13478.5098,-3566.7254L13478.51,-3566.7271L13478.5114,-3566.7282L13478.5114,-3566.7297L13478.5126,-3566.7308L13478.5121,-3566.7318L13478.5125,-3566.7334L13478.5137,-3566.7335L13478.5147,-3566.7342L13478.5159,-3566.7339L13478.5171,-3566.7347L13478.5186,-3566.7347L13478.5192,-3566.7339Z"/>
<path content="兵庫県,,,豊岡市,,28209" xlink:title="兵庫県" d="M13478.2919,-3566.3892L13478.2902,-3566.388L13478.2885,-3566.3882L13478.2876,-3566.3896L13478.2863,-3566.3906L13478.2856,-3566.3928L13478.2843,-3566.393L13478.283,-3566.3943L13478.2829,-3566.3957L13478.2821,-3566.3964L13478.2821,-3566.3978L13478.2829,-3566.3986L13478.282,-3566.3998L13478.282,-3566.4011L13478.2831,-3566.4022L13478.2833,-3566.403L13478.2839,-3566.4039L13478.2868,-3566.4051L13478.2879,-3566.4051L13478.2892,-3566.4033L13478.2914,-3566.4012L13478.2919,-3566.3999L13478.2918,-3566.3987L13478.2911,-3566.3983L13478.2916,-3566.3974L13478.2919,-3566.3965L13478.2911,-3566.3959L13478.2916,-3566.3947L13478.2902,-3566.3931L13478.2923,-3566.391L13478.2919,-3566.3892Z"/>
<path content="兵庫県,,,豊岡市,,28209" xlink:title="兵庫県" d="M13478.4807,-3566.6912L13478.4816,-3566.6906L13478.4816,-3566.6897L13478.482,-3566.6891L13478.4818,-3566.6884L13478.4809,-3566.6877L13478.4811,-3566.6867L13478.4784,-3566.6841L13478.4762,-3566.684L13478.476,-3566.6827L13478.4742,-3566.682L13478.4737,-3566.6816L13478.4735,-3566.6807L13478.4716,-3566.6797L13478.4705,-3566.6787L13478.4684,-3566.6774L13478.4657,-3566.6774L13478.4652,-3566.678L13478.465,-3566.6799L13478.4657,-3566.6805L13478.4657,-3566.6809L13478.4654,-3566.6812L13478.4654,-3566.6822L13478.4666,-3566.683L13478.4668,-3566.6836L13478.4679,-3566.6845L13478.468,-3566.6856L13478.471,-3566.6876L13478.4725,-3566.6879L13478.473,-3566.6878L13478.4742,-3566.6889L13478.4754,-3566.6892L13478.4777,-3566.6909L13478.4791,-3566.6907L13478.4798,-3566.6912L13478.4807,-3566.6912Z"/>
<path content="兵庫県,,,豊岡市,,28209" xlink:title="兵庫県" d="M13478.4955,-3566.7236L13478.4948,-3566.7233L13478.4939,-3566.7234L13478.4916,-3566.7251L13478.4909,-3566.726L13478.4877,-3566.728L13478.4867,-3566.7297L13478.4867,-3566.7305L13478.4876,-3566.7315L13478.4874,-3566.7329L13478.4881,-3566.7337L13478.4876,-3566.7342L13478.4876,-3566.7349L13478.4883,-3566.7356L13478.4896,-3566.7361L13478.4914,-3566.7356L13478.4917,-3566.7344L13478.4929,-3566.7342L13478.4941,-3566.7335L13478.4946,-3566.7323L13478.4966,-3566.7314L13478.4966,-3566.7307L13478.4976,-3566.7302L13478.4978,-3566.728L13478.4974,-3566.7277L13478.4976,-3566.7264L13478.4969,-3566.7255L13478.4964,-3566.7254L13478.4964,-3566.7244L13478.4955,-3566.7236Z"/>
<path content="兵庫県,,,豊岡市,,28209" xlink:title="兵庫県" d="M13478.3877,-3566.677L13478.3882,-3566.6766L13478.3881,-3566.6758L13478.3886,-3566.6754L13478.3888,-3566.6745L13478.3895,-3566.6737L13478.3895,-3566.673L13478.3875,-3566.6712L13478.3866,-3566.6712L13478.3853,-3566.6703L13478.3837,-3566.6704L13478.3814,-3566.6718L13478.3815,-3566.6728L13478.3803,-3566.6729L13478.3793,-3566.6736L13478.3782,-3566.6738L13478.3765,-3566.6752L13478.377,-3566.6758L13478.3779,-3566.6762L13478.3794,-3566.6762L13478.3807,-3566.6769L13478.3823,-3566.6769L13478.3833,-3566.6775L13478.3851,-3566.6778L13478.3863,-3566.6772L13478.3877,-3566.677Z"/>
<path content="兵庫県,,,豊岡市,,28209" xlink:title="兵庫県" d="M13478.9434,-3566.7452L13478.9436,-3566.7451L13478.9441,-3566.7454L13478.9454,-3566.7452L13478.9463,-3566.7442L13478.9449,-3566.7419L13478.9457,-3566.7409L13478.9457,-3566.7395L13478.9436,-3566.7378L13478.9436,-3566.7372L13478.9425,-3566.7363L13478.9418,-3566.736L13478.9409,-3566.7362L13478.9395,-3566.7353L13478.9388,-3566.7354L13478.9379,-3566.7363L13478.9379,-3566.7371L13478.9384,-3566.7376L13478.9377,-3566.7389L13478.9377,-3566.7401L13478.9381,-3566.7411L13478.9392,-3566.7419L13478.9395,-3566.7428L13478.9413,-3566.7439L13478.9416,-3566.7448L13478.9422,-3566.7452L13478.9429,-3566.7454L13478.9434,-3566.7452Z"/>
<path content="兵庫県,,,豊岡市,,28209" xlink:title="兵庫県" d="M13478.3363,-3566.5703L13478.3366,-3566.5695L13478.3364,-3566.5688L13478.3354,-3566.5678L13478.3352,-3566.5672L13478.334,-3566.5662L13478.3333,-3566.566L13478.3329,-3566.5659L13478.332,-3566.566L13478.3299,-3566.5656L13478.3283,-3566.5663L13478.3275,-3566.5661L13478.3262,-3566.5666L13478.3252,-3566.5667L13478.3243,-3566.5677L13478.3248,-3566.5701L13478.3256,-3566.5705L13478.3268,-3566.5708L13478.3275,-3566.5705L13478.3285,-3566.5711L13478.3296,-3566.5711L13478.3317,-3566.5702L13478.3322,-3566.5708L13478.3333,-3566.5712L13478.3333,-3566.5712L13478.3357,-3566.5708L13478.3363,-3566.5703Z"/>
<path content="兵庫県,,,豊岡市,,28209" xlink:title="兵庫県" d="M13478.3291,-3566.2655L13478.3254,-3566.2654L13478.3244,-3566.2661L13478.3239,-3566.2667L13478.3242,-3566.2676L13478.3232,-3566.2683L13478.3231,-3566.2697L13478.3226,-3566.2703L13478.3227,-3566.2712L13478.3233,-3566.2718L13478.3234,-3566.2725L13478.3243,-3566.273L13478.3254,-3566.2725L13478.3261,-3566.2714L13478.3276,-3566.2714L13478.3288,-3566.2703L13478.3297,-3566.2701L13478.3309,-3566.2691L13478.3306,-3566.2678L13478.3308,-3566.267L13478.3305,-3566.2663L13478.3291,-3566.2655Z"/>
<path content="兵庫県,,,豊岡市,,28209" xlink:title="兵庫県" d="M13478.9319,-3566.7454L13478.9326,-3566.7451L13478.934,-3566.7453L13478.935,-3566.7445L13478.935,-3566.7439L13478.934,-3566.7427L13478.934,-3566.7421L13478.9331,-3566.7414L13478.9315,-3566.7408L13478.9294,-3566.7409L13478.9285,-3566.7417L13478.9264,-3566.7415L13478.9255,-3566.7412L13478.9243,-3566.742L13478.9232,-3566.7422L13478.922,-3566.7431L13478.9218,-3566.7439L13478.9227,-3566.7449L13478.9236,-3566.7449L13478.924,-3566.7446L13478.9259,-3566.7446L13478.9264,-3566.7443L13478.9278,-3566.7441L13478.9285,-3566.7441L13478.9304,-3566.7451L13478.9319,-3566.7454Z"/>
<path content="兵庫県,,,豊岡市,,28209" xlink:title="兵庫県" d="M13478.461,-3566.6736L13478.4615,-3566.6732L13478.4613,-3566.6715L13478.4608,-3566.671L13478.4605,-3566.67L13478.4592,-3566.669L13478.4583,-3566.6687L13478.4577,-3566.6681L13478.456,-3566.6677L13478.4555,-3566.6683L13478.4555,-3566.6695L13478.4558,-3566.6698L13478.4553,-3566.6702L13478.4553,-3566.6715L13478.455,-3566.6719L13478.4552,-3566.6729L13478.4557,-3566.6735L13478.4566,-3566.6736L13478.4569,-3566.6734L13478.4575,-3566.6734L13478.4583,-3566.6738L13478.461,-3566.6736Z"/>
<path content="兵庫県,,,豊岡市,,28209" xlink:title="兵庫県" d="M13478.8407,-3566.7408L13478.8398,-3566.7406L13478.8387,-3566.7407L13478.8361,-3566.7387L13478.8343,-3566.7388L13478.8336,-3566.7395L13478.8339,-3566.7406L13478.8352,-3566.7415L13478.8353,-3566.7423L13478.8377,-3566.7444L13478.8405,-3566.7438L13478.8414,-3566.7429L13478.8414,-3566.7417L13478.8407,-3566.7408Z"/>
<path content="兵庫県,,,豊岡市,,28209" xlink:title="兵庫県" d="M13478.3179,-3566.3324L13478.3192,-3566.332L13478.3207,-3566.3321L13478.3217,-3566.3319L13478.3225,-3566.3307L13478.3225,-3566.3299L13478.3221,-3566.3287L13478.3213,-3566.328L13478.3195,-3566.3279L13478.3182,-3566.3286L13478.3169,-3566.3287L13478.316,-3566.3291L13478.3158,-3566.3313L13478.3165,-3566.3321L13478.3179,-3566.3324Z"/>
<path content="兵庫県,,,豊岡市,,28209" xlink:title="兵庫県" d="M13478.3771,-3566.7576L13478.3759,-3566.7568L13478.3752,-3566.7569L13478.3747,-3566.7565L13478.3739,-3566.7565L13478.3734,-3566.7571L13478.3741,-3566.7588L13478.3746,-3566.7594L13478.3748,-3566.7605L13478.3755,-3566.7611L13478.3757,-3566.7625L13478.3763,-3566.7629L13478.3773,-3566.7631L13478.378,-3566.7625L13478.3782,-3566.7619L13478.3789,-3566.7611L13478.3785,-3566.7605L13478.3785,-3566.7596L13478.3775,-3566.7585L13478.3771,-3566.7576Z"/>
<path content="兵庫県,,,豊岡市,,28209" xlink:title="兵庫県" d="M13478.3012,-3566.3593L13478.2998,-3566.3584L13478.2973,-3566.3585L13478.297,-3566.36L13478.2962,-3566.3609L13478.296,-3566.3618L13478.2962,-3566.3623L13478.2978,-3566.3639L13478.2987,-3566.3638L13478.2995,-3566.3636L13478.2996,-3566.3626L13478.301,-3566.3614L13478.3012,-3566.3593Z"/>
<path content="兵庫県,,,豊岡市,,28209" xlink:title="兵庫県" d="M13478.3143,-3566.3243L13478.313,-3566.3242L13478.3118,-3566.3247L13478.3116,-3566.3264L13478.3102,-3566.3269L13478.3101,-3566.3279L13478.3104,-3566.3291L13478.312,-3566.3293L13478.3127,-3566.3284L13478.3152,-3566.3265L13478.3152,-3566.3258L13478.3143,-3566.3243Z"/>
<path content="兵庫県,,,豊岡市,,28209" xlink:title="兵庫県" d="M13478.5528,-3566.6587L13478.5521,-3566.6584L13478.5508,-3566.6587L13478.5491,-3566.6607L13478.5491,-3566.6623L13478.5503,-3566.6631L13478.5519,-3566.663L13478.5535,-3566.661L13478.5533,-3566.6603L13478.5537,-3566.66L13478.5535,-3566.6594L13478.5528,-3566.6587Z"/>
<path content="兵庫県,,,豊岡市,,28209" xlink:title="兵庫県" d="M13479.1227,-3566.811L13479.1214,-3566.811L13479.1209,-3566.8116L13479.1205,-3566.8128L13479.1193,-3566.8139L13479.1191,-3566.8151L13479.1197,-3566.8155L13479.1211,-3566.8158L13479.1222,-3566.8154L13479.1238,-3566.8145L13479.1238,-3566.8129L13479.1234,-3566.8125L13479.1236,-3566.8119L13479.1227,-3566.811Z"/>
<path content="兵庫県,,,豊岡市,,28209" xlink:title="兵庫県" d="M13478.3487,-3566.6099L13478.3512,-3566.6084L13478.3519,-3566.6084L13478.3526,-3566.6076L13478.3525,-3566.6072L13478.3528,-3566.6062L13478.3517,-3566.6052L13478.3499,-3566.6055L13478.3494,-3566.6063L13478.3477,-3566.6079L13478.3478,-3566.6094L13478.3487,-3566.6099Z"/>
<path content="兵庫県,,,豊岡市,,28209" xlink:title="兵庫県" d="M13478.3411,-3566.5653L13478.3406,-3566.5647L13478.3392,-3566.5651L13478.3387,-3566.5659L13478.3387,-3566.5672L13478.339,-3566.5681L13478.3399,-3566.5686L13478.3406,-3566.5686L13478.3411,-3566.5684L13478.342,-3566.5683L13478.343,-3566.5677L13478.3431,-3566.5667L13478.3423,-3566.5654L13478.3411,-3566.5653Z"/>
<path content="兵庫県,,,豊岡市,,28209" xlink:title="兵庫県" d="M13478.376,-3566.5649L13478.376,-3566.5649L13478.3755,-3566.5649L13478.3748,-3566.5645L13478.3753,-3566.564L13478.3762,-3566.5642L13478.378,-3566.5629L13478.3776,-3566.5616L13478.3767,-3566.5609L13478.3748,-3566.5612L13478.3737,-3566.5623L13478.3737,-3566.5632L13478.373,-3566.5638L13478.373,-3566.5643L13478.3736,-3566.5648L13478.3748,-3566.5645L13478.3755,-3566.5649L13478.376,-3566.5649Z"/>
<path content="兵庫県,,,豊岡市,,28209" xlink:title="兵庫県" d="M13478.3892,-3566.6498L13478.3883,-3566.6488L13478.387,-3566.6487L13478.3859,-3566.6494L13478.3851,-3566.649L13478.3844,-3566.65L13478.3844,-3566.6504L13478.3858,-3566.6519L13478.3869,-3566.652L13478.3876,-3566.6516L13478.3886,-3566.6516L13478.3892,-3566.6511L13478.3892,-3566.6498Z"/>
<path content="兵庫県,,,豊岡市,,28209" xlink:title="兵庫県" d="M13478.8344,-3566.7133L13478.8339,-3566.7124L13478.8331,-3566.7121L13478.8319,-3566.7121L13478.831,-3566.7127L13478.8296,-3566.7126L13478.8292,-3566.7129L13478.8296,-3566.7136L13478.8294,-3566.7142L13478.8301,-3566.7147L13478.8333,-3566.7145L13478.8342,-3566.7137L13478.8344,-3566.7133Z"/>
<path content="兵庫県,,,豊岡市,,28209" xlink:title="兵庫県" d="M13478.3333,-3566.7417L13478.3327,-3566.7413L13478.3321,-3566.7413L13478.3314,-3566.7421L13478.3309,-3566.7426L13478.3307,-3566.7442L13478.332,-3566.7449L13478.3328,-3566.7445L13478.3333,-3566.7445L13478.3337,-3566.7445L13478.3343,-3566.7441L13478.3343,-3566.7428L13478.3337,-3566.7419L13478.3333,-3566.7417Z"/>
<path content="兵庫県,,,豊岡市,,28209" xlink:title="兵庫県" d="M13479.1161,-3566.7614L13479.1153,-3566.7613L13479.1131,-3566.763L13479.1129,-3566.7643L13479.1137,-3566.7648L13479.1154,-3566.7643L13479.1168,-3566.763L13479.117,-3566.7625L13479.1161,-3566.7614Z"/>
<path content="兵庫県,,,豊岡市,,28209" xlink:title="兵庫県" d="M13478.4857,-3566.7056L13478.4841,-3566.7044L13478.4833,-3566.7044L13478.4824,-3566.7041L13478.4818,-3566.7046L13478.4824,-3566.7054L13478.4818,-3566.706L13478.4818,-3566.7064L13478.4824,-3566.707L13478.4831,-3566.7073L13478.4843,-3566.707L13478.4852,-3566.7063L13478.4857,-3566.7056Z"/>
<path content="兵庫県,,,豊岡市,,28209" xlink:title="兵庫県" d="M13478.4133,-3566.64L13478.4122,-3566.6393L13478.4113,-3566.6394L13478.4101,-3566.6389L13478.4096,-3566.639L13478.4094,-3566.6399L13478.4103,-3566.6408L13478.411,-3566.6416L13478.4126,-3566.642L13478.4135,-3566.6409L13478.4133,-3566.64Z"/>
<path content="兵庫県,,,豊岡市,,28209" xlink:title="兵庫県" d="M13478.4188,-3566.6531L13478.4176,-3566.653L13478.4163,-3566.6537L13478.416,-3566.655L13478.4165,-3566.6555L13478.4176,-3566.6556L13478.4185,-3566.6549L13478.4192,-3566.6548L13478.4195,-3566.6542L13478.4193,-3566.6536L13478.4188,-3566.6531Z"/>
<path content="兵庫県,,,豊岡市,,28209" xlink:title="兵庫県" d="M13478.3604,-3566.7073L13478.3596,-3566.7064L13478.3584,-3566.7067L13478.3568,-3566.7083L13478.3574,-3566.7091L13478.359,-3566.7089L13478.3602,-3566.7082L13478.3604,-3566.7073Z"/>
<path content="兵庫県,,,豊岡市,,28209" xlink:title="兵庫県" d="M13478.7404,-3566.6827L13478.739,-3566.6818L13478.7381,-3566.6818L13478.7377,-3566.6821L13478.7372,-3566.682L13478.7366,-3566.6824L13478.7366,-3566.6829L13478.7375,-3566.6833L13478.7382,-3566.6837L13478.7397,-3566.6839L13478.7404,-3566.6834L13478.7401,-3566.6832L13478.7404,-3566.6827Z"/>
<path content="兵庫県,,,豊岡市,,28209" xlink:title="兵庫県" d="M13478.7584,-3566.7069L13478.7563,-3566.7069L13478.756,-3566.7074L13478.7572,-3566.7083L13478.7582,-3566.709L13478.7593,-3566.7089L13478.7593,-3566.7084L13478.76,-3566.7078L13478.7591,-3566.7071L13478.7584,-3566.7069Z"/>
<path content="兵庫県,,,豊岡市,,28209" xlink:title="兵庫県" d="M13478.4091,-3566.6151L13478.4084,-3566.6144L13478.4068,-3566.6148L13478.4061,-3566.6147L13478.4057,-3566.615L13478.4057,-3566.6157L13478.4066,-3566.6164L13478.4084,-3566.6165L13478.4088,-3566.6161L13478.4091,-3566.6151Z"/>
<path content="兵庫県,,,豊岡市,,28209" xlink:title="兵庫県" d="M13478.3333,-3566.737L13478.3326,-3566.7369L13478.3321,-3566.7373L13478.3323,-3566.7379L13478.3319,-3566.7383L13478.3323,-3566.7392L13478.3333,-3566.7399L13478.3333,-3566.7399L13478.3337,-3566.7399L13478.3342,-3566.7395L13478.3342,-3566.7378L13478.3333,-3566.737L13478.3333,-3566.737Z"/>
<path content="兵庫県,,,豊岡市,,28209" xlink:title="兵庫県" d="M13478.5448,-3566.7201L13478.5427,-3566.7189L13478.542,-3566.7193L13478.5404,-3566.7193L13478.5403,-3566.7202L13478.5408,-3566.7208L13478.5425,-3566.7208L13478.5432,-3566.7203L13478.5448,-3566.7201Z"/>
<path content="兵庫県,,,豊岡市,,28209" xlink:title="兵庫県" d="M13478.4058,-3566.6177L13478.4044,-3566.6166L13478.4034,-3566.6172L13478.4038,-3566.6181L13478.4038,-3566.6187L13478.4049,-3566.6195L13478.406,-3566.6191L13478.406,-3566.6184L13478.4058,-3566.6177Z"/>
<path content="兵庫県,,,豊岡市,,28209" xlink:title="兵庫県" d="M13478.8108,-3566.7081L13478.8112,-3566.7078L13478.8119,-3566.7081L13478.8126,-3566.7075L13478.8119,-3566.7066L13478.8108,-3566.7062L13478.8097,-3566.7066L13478.809,-3566.7075L13478.8097,-3566.7079L13478.8108,-3566.7081Z"/>
<path content="兵庫県,,,豊岡市,,28209" xlink:title="兵庫県" d="M13478.3905,-3566.5867L13478.3889,-3566.5857L13478.3877,-3566.586L13478.3871,-3566.587L13478.3878,-3566.5877L13478.3905,-3566.5872L13478.3905,-3566.5867Z"/>
<path content="兵庫県,,,豊岡市,,28209" xlink:title="兵庫県" d="M13478.3607,-3566.8108L13478.3594,-3566.8108L13478.358,-3566.8112L13478.3597,-3566.8125L13478.3608,-3566.8125L13478.3613,-3566.8117L13478.3607,-3566.8108Z"/>
<path content="兵庫県,,,豊岡市,,28209" xlink:title="兵庫県" d="M13478.4139,-3566.6563L13478.4132,-3566.6559L13478.4123,-3566.6565L13478.4119,-3566.6573L13478.4125,-3566.6578L13478.413,-3566.6579L13478.4139,-3566.6576L13478.4145,-3566.657L13478.4139,-3566.6563Z"/>
<path content="兵庫県,,,豊岡市,,28209" xlink:title="兵庫県" d="M13478.5409,-3566.7152L13478.5401,-3566.7145L13478.5396,-3566.7145L13478.5392,-3566.7148L13478.5392,-3566.7154L13478.5399,-3566.716L13478.5406,-3566.7167L13478.5412,-3566.7167L13478.5416,-3566.7164L13478.5416,-3566.7157L13478.5409,-3566.7152Z"/>
<path content="兵庫県,,,豊岡市,,28209" xlink:title="兵庫県" d="M13478.8464,-3566.7295L13478.8457,-3566.7292L13478.8449,-3566.7297L13478.8449,-3566.7301L13478.846,-3566.7311L13478.8466,-3566.7313L13478.8471,-3566.731L13478.8471,-3566.7302L13478.8464,-3566.7295Z"/>
<path content="兵庫県,,,豊岡市,,28209" xlink:title="兵庫県" d="M13478.4144,-3566.6521L13478.4138,-3566.6513L13478.4129,-3566.6513L13478.4125,-3566.6518L13478.4128,-3566.6531L13478.4135,-3566.6535L13478.4141,-3566.6531L13478.4144,-3566.6521Z"/>
<path content="兵庫県,,,豊岡市,,28209" xlink:title="兵庫県" d="M13478.8405,-3566.7252L13478.841,-3566.7248L13478.8419,-3566.7248L13478.8424,-3566.7245L13478.8414,-3566.7238L13478.8404,-3566.7239L13478.8399,-3566.7237L13478.8404,-3566.7246L13478.8405,-3566.7252Z"/>
</g>
</svg>
