<?xml version="1.0" encoding="UTF-8"?>
<svg  xmlns="http://www.w3.org/2000/svg" xmlns:xlink="http://www.w3.org/1999/xlink" xmlns:go="http://purl.org/svgmap/profile" property="geometry,N03_001,N03_002,N03_003,N03_004,N03_005,N03_007" viewBox="13592.28515625 -3361.81640625 1.0986328125 1.0986328125" go:dataArea="13592.28515625 -3361.81640625 1.0986328125 1.0986328125" >
<metadata>
 <rdf:RDF xmlns:rdf="http://www.w3.org/1999/02/22-rdf-syntax-ns#" xmlns:crs="http://opengis.org/xmldtds/transformations.dtd" xmlns:svg="http://www.w3.org/svg" >
  <rdf:Description>
   <crs:CoordinateReferenceSystem rdf:resource="http://purl.org/crs/84" svg:transform="matrix(100.0,0.0,0.0,-100.0,0.0,0.0)" />
  </rdf:Description>
 </rdf:RDF>
</metadata>
<globalCoordinateSystem srsName="http://purl.org/crs/84" transform="matrix(100.0,0.0,0.0,-100.0,0.0,0.0)" />
<defs>
 <g id="p0" >
  <circle cx="0.0" cy="0.0" r="3" stroke="green" stroke-width="2.0" vector-effect="non-scaling-stroke" />
 </g>
</defs>
<g fill="#0000ff" fill-rule="evenodd" opacity="0.5" >
<path content="和歌山県,,東牟婁郡,那智勝浦町,,30421" xlink:title="和歌山県" d="M13592.2852,-3360.7178L13592.2852,-3361.8164L13593.3838,-3361.8164L13593.3838,-3361.7788L13593.3603,-3361.7924L13593.3333,-3361.8053L13593.3268,-3361.8084L13593.3021,-3361.8164L13593.0691,-3361.8164L13593.0666,-3361.7715L13593.0633,-3361.7324L13593.0629,-3361.7177L13593.0704,-3361.7089L13593.0752,-3361.6971L13593.0759,-3361.6838L13593.0744,-3361.6766L13593.0711,-3361.6679L13593.0701,-3361.6667L13593.0604,-3361.6533L13593.0481,-3361.6424L13593.0423,-3361.6372L13593.0249,-3361.6214L13593.0205,-3361.614L13593.0112,-3361.6028L13592.99,-3361.5779L13592.9844,-3361.5677L13592.9785,-3361.5549L13592.9666,-3361.5421L13592.9543,-3361.5256L13592.945,-3361.5204L13592.9283,-3361.5151L13592.919,-3361.5145L13592.8971,-3361.5157L13592.8937,-3361.5155L13592.8762,-3361.5147L13592.8647,-3361.5116L13592.8435,-3361.5057L13592.8361,-3361.5035L13592.8204,-3361.4945L13592.813,-3361.4852L13592.8081,-3361.4689L13592.8074,-3361.4593L13592.8056,-3361.4543L13592.7977,-3361.44L13592.7954,-3361.4335L13592.7963,-3361.4236L13592.8029,-3361.4098L13592.811,-3361.3956L13592.8124,-3361.3837L13592.8107,-3361.3686L13592.8075,-3361.3501L13592.8008,-3361.3342L13592.7977,-3361.33L13592.7843,-3361.3171L13592.7807,-3361.3127L13592.7755,-3361.3018L13592.7747,-3361.2949L13592.7771,-3361.2866L13592.7818,-3361.2787L13592.7968,-3361.2639L13592.8229,-3361.2414L13592.8398,-3361.226L13592.8554,-3361.2061L13592.8563,-3361.2049L13592.8654,-3361.1893L13592.8745,-3361.1766L13592.8802,-3361.1635L13592.8815,-3361.1548L13592.8808,-3361.1411L13592.8717,-3361.1206L13592.8597,-3361.0993L13592.853,-3361.0909L13592.8458,-3361.0849L13592.8221,-3361.0737L13592.811,-3361.0676L13592.8042,-3361.0597L13592.7978,-3361.0561L13592.7942,-3361.0509L13592.7926,-3361.0386L13592.7926,-3361.009L13592.7899,-3360.976L13592.7852,-3360.95L13592.785,-3360.9409L13592.785,-3360.9394L13592.7849,-3360.9395L13592.7847,-3360.9397L13592.7841,-3360.9402L13592.7838,-3360.9404L13592.7834,-3360.9406L13592.7827,-3360.9406L13592.7816,-3360.9406L13592.7808,-3360.9404L13592.7786,-3360.9399L13592.7758,-3360.9391L13592.7755,-3360.939L13592.7744,-3360.9388L13592.7736,-3360.9387L13592.7734,-3360.9388L13592.7727,-3360.9389L13592.7721,-3360.9392L13592.7716,-3360.9396L13592.7711,-3360.94L13592.7709,-3360.9404L13592.7708,-3360.941L13592.7709,-3360.9425L13592.7709,-3360.9431L13592.7707,-3360.9436L13592.7704,-3360.944L13592.7701,-3360.9443L13592.7695,-3360.9446L13592.768,-3360.9451L13592.7673,-3360.9453L13592.7666,-3360.9457L13592.7663,-3360.946L13592.7662,-3360.9461L13592.7659,-3360.9466L13592.7658,-3360.947L13592.7658,-3360.9472L13592.7658,-3360.9479L13592.7661,-3360.949L13592.766,-3360.9498L13592.7658,-3360.9503L13592.7656,-3360.9507L13592.7654,-3360.9508L13592.7651,-3360.9509L13592.7645,-3360.9511L13592.7639,-3360.9512L13592.7635,-3360.9514L13592.7633,-3360.9516L13592.7631,-3360.9518L13592.7629,-3360.952L13592.7629,-3360.9523L13592.7629,-3360.9524L13592.7631,-3360.9527L13592.7634,-3360.9531L13592.7645,-3360.9539L13592.7646,-3360.9541L13592.7646,-3360.9541L13592.7646,-3360.9542L13592.7644,-3360.9543L13592.7621,-3360.9545L13592.7612,-3360.9547L13592.7607,-3360.9549L13592.7603,-3360.9552L13592.7599,-3360.9556L13592.7595,-3360.9563L13592.7592,-3360.9572L13592.759,-3360.958L13592.7587,-3360.9585L13592.7586,-3360.9586L13592.7577,-3360.9593L13592.7573,-3360.9597L13592.7571,-3360.9601L13592.7571,-3360.9606L13592.7574,-3360.9619L13592.7576,-3360.9626L13592.7578,-3360.9632L13592.7579,-3360.9634L13592.7581,-3360.9634L13592.7584,-3360.9634L13592.7588,-3360.9631L13592.7594,-3360.9629L13592.7597,-3360.9628L13592.76,-3360.9628L13592.7605,-3360.9629L13592.761,-3360.9633L13592.762,-3360.9641L13592.7627,-3360.9648L13592.7633,-3360.9655L13592.7635,-3360.966L13592.7635,-3360.9663L13592.7634,-3360.9666L13592.7632,-3360.9669L13592.7624,-3360.9678L13592.761,-3360.9694L13592.76,-3360.9704L13592.7598,-3360.9706L13592.7583,-3360.9716L13592.7565,-3360.9728L13592.7559,-3360.9733L13592.7553,-3360.9737L13592.7547,-3360.9739L13592.7542,-3360.974L13592.7533,-3360.974L13592.7523,-3360.974L13592.7521,-3360.974L13592.7514,-3360.9741L13592.7508,-3360.9744L13592.7502,-3360.9747L13592.7498,-3360.9751L13592.7496,-3360.9756L13592.7495,-3360.9759L13592.7493,-3360.9765L13592.7492,-3360.9767L13592.7489,-3360.9769L13592.7483,-3360.9772L13592.7468,-3360.9776L13592.7463,-3360.9779L13592.746,-3360.9782L13592.7456,-3360.9787L13592.7454,-3360.9795L13592.7452,-3360.9806L13592.7449,-3360.9814L13592.7445,-3360.982L13592.7441,-3360.9825L13592.7437,-3360.9827L13592.7434,-3360.9829L13592.7431,-3360.9829L13592.7427,-3360.9828L13592.7414,-3360.9825L13592.7406,-3360.9823L13592.7401,-3360.9822L13592.7399,-3360.9823L13592.7396,-3360.9824L13592.7394,-3360.9826L13592.7392,-3360.9828L13592.7391,-3360.9831L13592.7391,-3360.9833L13592.7391,-3360.9835L13592.7393,-3360.9838L13592.7396,-3360.9844L13592.7396,-3360.9846L13592.7396,-3360.9849L13592.7395,-3360.9852L13592.7389,-3360.9861L13592.7384,-3360.9868L13592.7382,-3360.9875L13592.7382,-3360.988L13592.7383,-3360.9886L13592.7385,-3360.989L13592.7386,-3360.9892L13592.7391,-3360.9897L13592.7402,-3360.9904L13592.7406,-3360.9906L13592.741,-3360.991L13592.7412,-3360.9913L13592.7413,-3360.9914L13592.7413,-3360.9918L13592.7412,-3360.9923L13592.7407,-3360.9935L13592.7406,-3360.9942L13592.7406,-3360.9944L13592.7409,-3360.9956L13592.7409,-3360.9961L13592.7408,-3360.9963L13592.7408,-3360.9964L13592.7406,-3360.9965L13592.7402,-3360.9966L13592.7389,-3360.9966L13592.7378,-3360.9967L13592.7375,-3360.9968L13592.7359,-3360.9975L13592.7347,-3360.9977L13592.7334,-3360.998L13592.7322,-3360.9984L13592.7309,-3360.9991L13592.73,-3360.9997L13592.7297,-3361L13592.7296,-3361.0002L13592.7296,-3361.0005L13592.7297,-3361.0009L13592.7299,-3361.0017L13592.7299,-3361.002L13592.7298,-3361.0022L13592.7296,-3361.0024L13592.7289,-3361.0029L13592.7278,-3361.0037L13592.7273,-3361.0042L13592.727,-3361.0046L13592.7267,-3361.0055L13592.7265,-3361.0058L13592.7264,-3361.0059L13592.7261,-3361.0059L13592.7259,-3361.006L13592.7244,-3361.0058L13592.7238,-3361.0058L13592.7235,-3361.0058L13592.7231,-3361.006L13592.7227,-3361.0063L13592.7223,-3361.0066L13592.7221,-3361.007L13592.722,-3361.0074L13592.722,-3361.0077L13592.7221,-3361.0087L13592.722,-3361.0093L13592.7219,-3361.0096L13592.7216,-3361.0099L13592.7212,-3361.0102L13592.7047,-3361.0048L13592.6874,-3360.9991L13592.6866,-3360.9964L13592.6853,-3360.9948L13592.6831,-3360.9939L13592.6794,-3360.9946L13592.6741,-3360.9953L13592.6685,-3360.996L13592.6646,-3360.9963L13592.661,-3360.9965L13592.6598,-3360.9965L13592.6562,-3360.9964L13592.6531,-3360.9962L13592.6504,-3360.996L13592.6469,-3360.9954L13592.6435,-3360.9947L13592.6405,-3360.9939L13592.6375,-3360.9929L13592.634,-3360.9916L13592.6245,-3360.9876L13592.6176,-3360.9847L13592.6107,-3360.9818L13592.6059,-3360.9796L13592.6021,-3360.9777L13592.5982,-3360.9755L13592.5937,-3360.9728L13592.5898,-3360.9702L13592.5863,-3360.9677L13592.5819,-3360.9644L13592.5777,-3360.9609L13592.5727,-3360.9564L13592.5693,-3360.9533L13592.566,-3360.95L13592.562,-3360.9459L13592.5587,-3360.942L13592.5577,-3360.9408L13592.5548,-3360.9371L13592.5487,-3360.9286L13592.5474,-3360.9267L13592.5434,-3360.9214L13592.54,-3360.9172L13592.5367,-3360.9134L13592.5326,-3360.9088L13592.5282,-3360.9041L13592.5255,-3360.901L13592.5231,-3360.8979L13592.5218,-3360.896L13592.5179,-3360.8901L13592.5122,-3360.8817L13592.5086,-3360.8764L13592.5074,-3360.8744L13592.5062,-3360.8721L13592.5056,-3360.8706L13592.5051,-3360.869L13592.505,-3360.8687L13592.5045,-3360.8648L13592.5042,-3360.8631L13592.504,-3360.8623L13592.5039,-3360.8614L13592.504,-3360.8608L13592.5041,-3360.8606L13592.5047,-3360.8596L13592.5048,-3360.8592L13592.5052,-3360.8583L13592.5052,-3360.8574L13592.5051,-3360.8565L13592.5048,-3360.8557L13592.5042,-3360.8548L13592.5041,-3360.8543L13592.5041,-3360.854L13592.5041,-3360.8538L13592.5044,-3360.8535L13592.505,-3360.853L13592.5058,-3360.8524L13592.5059,-3360.8522L13592.5061,-3360.8518L13592.5062,-3360.8514L13592.5062,-3360.851L13592.5061,-3360.8507L13592.5058,-3360.8502L13592.505,-3360.8493L13592.5044,-3360.8486L13592.5043,-3360.8482L13592.5043,-3360.848L13592.5044,-3360.8477L13592.5047,-3360.8472L13592.5054,-3360.8462L13592.5057,-3360.8456L13592.5057,-3360.8449L13592.5056,-3360.8438L13592.5054,-3360.843L13592.5051,-3360.8419L13592.5046,-3360.8412L13592.5044,-3360.841L13592.5036,-3360.8404L13592.5024,-3360.8397L13592.5004,-3360.8394L13592.5009,-3360.8333L13592.501,-3360.8322L13592.5028,-3360.822L13592.504,-3360.8217L13592.5066,-3360.8218L13592.508,-3360.8218L13592.5096,-3360.8219L13592.5119,-3360.8223L13592.5129,-3360.8224L13592.5138,-3360.8223L13592.5163,-3360.8217L13592.5178,-3360.8214L13592.5195,-3360.8212L13592.5209,-3360.8211L13592.5212,-3360.821L13592.5213,-3360.821L13592.5212,-3360.8209L13592.521,-3360.8207L13592.5187,-3360.8197L13592.5177,-3360.8192L13592.5167,-3360.8188L13592.5165,-3360.8188L13592.5142,-3360.8184L13592.5132,-3360.8181L13592.5129,-3360.8179L13592.512,-3360.8174L13592.5109,-3360.8164L13592.51,-3360.8153L13592.509,-3360.8141L13592.5081,-3360.8134L13592.5078,-3360.8132L13592.5069,-3360.8127L13592.5059,-3360.8124L13592.5044,-3360.8121L13592.5051,-3360.8069L13592.5071,-3360.8069L13592.5081,-3360.8071L13592.5085,-3360.8072L13592.5099,-3360.8072L13592.512,-3360.8071L13592.5129,-3360.8071L13592.5141,-3360.8072L13592.5151,-3360.8075L13592.5161,-3360.808L13592.5168,-3360.8085L13592.5178,-3360.809L13592.5184,-3360.8093L13592.5188,-3360.8093L13592.5196,-3360.8094L13592.5203,-3360.8093L13592.5208,-3360.8092L13592.5213,-3360.809L13592.5215,-3360.8088L13592.5216,-3360.8086L13592.5216,-3360.8083L13592.5214,-3360.8079L13592.5211,-3360.8073L13592.5205,-3360.8068L13592.5199,-3360.8064L13592.5173,-3360.8053L13592.5158,-3360.8045L13592.5142,-3360.8035L13592.5132,-3360.8031L13592.5123,-3360.8029L13592.511,-3360.8028L13592.5085,-3360.8028L13592.5053,-3360.8026L13592.5062,-3360.7975L13592.5084,-3360.7977L13592.5109,-3360.7988L13592.5124,-3360.7994L13592.5134,-3360.7996L13592.5177,-3360.8003L13592.5202,-3360.8007L13592.5226,-3360.801L13592.5234,-3360.801L13592.5238,-3360.801L13592.5239,-3360.8009L13592.5239,-3360.8007L13592.5236,-3360.8004L13592.5229,-3360.7998L13592.5216,-3360.7991L13592.5214,-3360.799L13592.5202,-3360.7986L13592.5188,-3360.7983L13592.5172,-3360.7982L13592.5158,-3360.7983L13592.514,-3360.7982L13592.5125,-3360.798L13592.5118,-3360.7978L13592.5099,-3360.7973L13592.5092,-3360.797L13592.509,-3360.7968L13592.509,-3360.7967L13592.509,-3360.7967L13592.5093,-3360.7966L13592.5106,-3360.7965L13592.5115,-3360.7965L13592.5136,-3360.7964L13592.5151,-3360.7962L13592.5168,-3360.7961L13592.5178,-3360.7962L13592.5191,-3360.7964L13592.5215,-3360.797L13592.5234,-3360.7976L13592.5256,-3360.7981L13592.5272,-3360.7984L13592.5283,-3360.7985L13592.5296,-3360.7985L13592.5304,-3360.7983L13592.5307,-3360.7983L13592.5313,-3360.798L13592.5317,-3360.7977L13592.5319,-3360.7974L13592.5321,-3360.797L13592.5322,-3360.7966L13592.5321,-3360.7962L13592.532,-3360.7959L13592.5317,-3360.7955L13592.5312,-3360.795L13592.5296,-3360.7939L13592.5289,-3360.7933L13592.5288,-3360.7932L13592.5278,-3360.7918L13592.5273,-3360.7913L13592.5268,-3360.7909L13592.5267,-3360.7908L13592.5256,-3360.7904L13592.5251,-3360.7902L13592.5248,-3360.7899L13592.5247,-3360.7898L13592.5245,-3360.7894L13592.5243,-3360.7883L13592.5241,-3360.7876L13592.5239,-3360.7873L13592.5238,-3360.7872L13592.5235,-3360.787L13592.5229,-3360.7868L13592.5214,-3360.7864L13592.5212,-3360.7863L13592.5205,-3360.786L13592.5195,-3360.7852L13592.5183,-3360.7842L13592.5169,-3360.7831L13592.5158,-3360.7824L13592.5146,-3360.7819L13592.5133,-3360.7814L13592.5104,-3360.7808L13592.5087,-3360.7802L13592.5095,-3360.769L13592.5114,-3360.7609L13592.5129,-3360.7612L13592.5135,-3360.7613L13592.5159,-3360.7619L13592.517,-3360.762L13592.518,-3360.762L13592.5186,-3360.7618L13592.5192,-3360.7616L13592.5197,-3360.7612L13592.5201,-3360.7607L13592.5204,-3360.7602L13592.5205,-3360.7598L13592.5205,-3360.7596L13592.5204,-3360.7592L13592.5201,-3360.7587L13592.5187,-3360.7571L13592.5183,-3360.7566L13592.5179,-3360.7559L13592.5174,-3360.7544L13592.5173,-3360.754L13592.5173,-3360.7535L13592.5174,-3360.7532L13592.5175,-3360.753L13592.5177,-3360.7528L13592.5182,-3360.7526L13592.5187,-3360.7523L13592.5191,-3360.7523L13592.5212,-3360.752L13592.5219,-3360.7518L13592.5225,-3360.7515L13592.5227,-3360.7514L13592.5228,-3360.7512L13592.5229,-3360.7511L13592.5229,-3360.7509L13592.5227,-3360.7505L13592.522,-3360.7495L13592.5219,-3360.749L13592.5219,-3360.7488L13592.5219,-3360.7486L13592.5221,-3360.7484L13592.5223,-3360.7482L13592.5226,-3360.748L13592.523,-3360.7479L13592.5239,-3360.7478L13592.524,-3360.7477L13592.5242,-3360.7476L13592.5244,-3360.7474L13592.5246,-3360.747L13592.5247,-3360.7465L13592.5247,-3360.7458L13592.5245,-3360.745L13592.5241,-3360.744L13592.524,-3360.7435L13592.5241,-3360.7433L13592.5242,-3360.7431L13592.5244,-3360.7428L13592.5255,-3360.7421L13592.5265,-3360.7415L13592.5276,-3360.741L13592.5282,-3360.7408L13592.5286,-3360.7408L13592.5289,-3360.7409L13592.5294,-3360.7411L13592.5305,-3360.7419L13592.5312,-3360.7423L13592.532,-3360.7426L13592.5338,-3360.7431L13592.5345,-3360.7434L13592.535,-3360.7438L13592.5353,-3360.7442L13592.5358,-3360.7452L13592.5362,-3360.7459L13592.5368,-3360.7464L13592.5378,-3360.747L13592.5381,-3360.7473L13592.5392,-3360.7477L13592.5401,-3360.7479L13592.5408,-3360.748L13592.5414,-3360.7479L13592.5428,-3360.7473L13592.5438,-3360.747L13592.5451,-3360.7466L13592.5461,-3360.7464L13592.5475,-3360.7464L13592.5482,-3360.7464L13592.5508,-3360.7466L13592.553,-3360.7468L13592.5554,-3360.7473L13592.557,-3360.7477L13592.5592,-3360.7484L13592.5603,-3360.7486L13592.5608,-3360.7486L13592.5628,-3360.7484L13592.5638,-3360.7484L13592.565,-3360.7482L13592.5656,-3360.748L13592.566,-3360.7477L13592.5662,-3360.7475L13592.5663,-3360.7472L13592.5664,-3360.7468L13592.5663,-3360.7462L13592.5661,-3360.7456L13592.5659,-3360.7453L13592.5651,-3360.7443L13592.5647,-3360.7437L13592.5644,-3360.7428L13592.5641,-3360.7417L13592.5638,-3360.7412L13592.5636,-3360.741L13592.5631,-3360.7407L13592.5615,-3360.74L13592.5595,-3360.7389L13592.5585,-3360.7385L13592.558,-3360.7383L13592.5558,-3360.738L13592.5549,-3360.7378L13592.5543,-3360.7375L13592.5538,-3360.7372L13592.5533,-3360.7365L13592.5525,-3360.7349L13592.5522,-3360.7345L13592.5514,-3360.7333L13592.5506,-3360.7324L13592.5497,-3360.7318L13592.5486,-3360.7311L13592.5477,-3360.7304L13592.5474,-3360.7301L13592.5465,-3360.7291L13592.5461,-3360.7282L13592.546,-3360.728L13592.5461,-3360.7278L13592.5462,-3360.7278L13592.5464,-3360.7278L13592.5468,-3360.7279L13592.5474,-3360.7282L13592.548,-3360.7287L13592.5481,-3360.7289L13592.5491,-3360.7303L13592.5494,-3360.7305L13592.5496,-3360.7306L13592.5498,-3360.7306L13592.5499,-3360.7305L13592.5504,-3360.7301L13592.5512,-3360.7295L13592.5515,-3360.7294L13592.5517,-3360.7294L13592.5518,-3360.7294L13592.552,-3360.7295L13592.5523,-3360.7296L13592.553,-3360.7303L13592.5537,-3360.7309L13592.5557,-3360.7322L13592.5582,-3360.7338L13592.559,-3360.7343L13592.5598,-3360.7346L13592.5605,-3360.7347L13592.5607,-3360.7347L13592.5614,-3360.7347L13592.5619,-3360.7345L13592.5623,-3360.7343L13592.5625,-3360.7341L13592.5626,-3360.7339L13592.5626,-3360.7336L13592.5626,-3360.7332L13592.5624,-3360.7327L13592.5622,-3360.7325L13592.5615,-3360.7317L13592.5597,-3360.7301L13592.5596,-3360.7299L13592.5596,-3360.7299L13592.5598,-3360.7299L13592.5616,-3360.7306L13592.5621,-3360.7309L13592.5635,-3360.7316L13592.5646,-3360.7324L13592.566,-3360.734L13592.5671,-3360.7351L13592.568,-3360.7358L13592.5708,-3360.7376L13592.5736,-3360.7395L13592.5754,-3360.7406L13592.5771,-3360.7415L13592.5779,-3360.7419L13592.5786,-3360.7422L13592.5791,-3360.7422L13592.5794,-3360.7422L13592.5798,-3360.7421L13592.5804,-3360.7419L13592.5812,-3360.7414L13592.582,-3360.7406L13592.584,-3360.7382L13592.5848,-3360.7374L13592.5856,-3360.7368L13592.5864,-3360.7363L13592.5885,-3360.7359L13592.5888,-3360.7358L13592.5901,-3360.7353L13592.5921,-3360.7344L13592.5928,-3360.7342L13592.5951,-3360.7335L13592.5967,-3360.7331L13592.5986,-3360.7324L13592.5995,-3360.732L13592.6,-3360.7317L13592.6001,-3360.7316L13592.6,-3360.7315L13592.5999,-3360.7314L13592.5993,-3360.7312L13592.5969,-3360.7309L13592.595,-3360.7307L13592.5929,-3360.7303L13592.5922,-3360.7303L13592.5918,-3360.7304L13592.5916,-3360.7305L13592.5907,-3360.7311L13592.5899,-3360.7316L13592.5894,-3360.7318L13592.5888,-3360.7319L13592.5883,-3360.7318L13592.5878,-3360.7316L13592.5876,-3360.7315L13592.5873,-3360.7312L13592.5872,-3360.7311L13592.5871,-3360.7308L13592.587,-3360.7305L13592.587,-3360.7302L13592.5871,-3360.7301L13592.5872,-3360.73L13592.5874,-3360.7299L13592.5877,-3360.7299L13592.5885,-3360.7299L13592.5892,-3360.7299L13592.5893,-3360.7299L13592.5893,-3360.7298L13592.5893,-3360.7296L13592.5889,-3360.7293L13592.588,-3360.7286L13592.5877,-3360.7285L13592.5868,-3360.7281L13592.585,-3360.7276L13592.5839,-3360.7272L13592.5832,-3360.7269L13592.5822,-3360.7264L13592.5817,-3360.7263L13592.5798,-3360.7261L13592.579,-3360.7259L13592.5789,-3360.7258L13592.5783,-3360.7254L13592.577,-3360.7242L13592.5766,-3360.7239L13592.574,-3360.7218L13592.5736,-3360.7215L13592.5725,-3360.7205L13592.5717,-3360.7194L13592.571,-3360.7184L13592.5705,-3360.7178L13592.5785,-3360.7178L13592.5799,-3360.7187L13592.5808,-3360.7193L13592.5819,-3360.7199L13592.5829,-3360.7203L13592.5848,-3360.7205L13592.5857,-3360.7206L13592.5866,-3360.7208L13592.5874,-3360.7212L13592.5889,-3360.7221L13592.5897,-3360.7226L13592.5898,-3360.7226L13592.5906,-3360.7228L13592.5927,-3360.723L13592.5937,-3360.7232L13592.5943,-3360.7234L13592.5947,-3360.7237L13592.5952,-3360.7243L13592.5957,-3360.725L13592.5959,-3360.7251L13592.596,-3360.7251L13592.5962,-3360.7251L13592.5965,-3360.7249L13592.5974,-3360.7241L13592.5981,-3360.7235L13592.5984,-3360.7234L13592.5988,-3360.7233L13592.5993,-3360.7233L13592.5998,-3360.7234L13592.6005,-3360.7238L13592.6016,-3360.7245L13592.6023,-3360.725L13592.6029,-3360.7254L13592.6031,-3360.7254L13592.6031,-3360.7254L13592.6031,-3360.7253L13592.603,-3360.7249L13592.6025,-3360.724L13592.6018,-3360.7232L13592.6015,-3360.7229L13592.601,-3360.7226L13592.5996,-3360.7221L13592.5979,-3360.7214L13592.5968,-3360.7208L13592.5964,-3360.7204L13592.5963,-3360.7202L13592.5964,-3360.7201L13592.5966,-3360.72L13592.5972,-3360.72L13592.5985,-3360.72L13592.5999,-3360.7202L13592.6012,-3360.7205L13592.6018,-3360.7208L13592.6032,-3360.7215L13592.6042,-3360.7221L13592.6048,-3360.7227L13592.6052,-3360.7231L13592.6054,-3360.7237L13592.6057,-3360.7245L13592.606,-3360.7248L13592.6061,-3360.7248L13592.6063,-3360.7249L13592.6067,-3360.7249L13592.6072,-3360.7248L13592.6081,-3360.7245L13592.6092,-3360.7238L13592.6102,-3360.7231L13592.6113,-3360.722L13592.6114,-3360.7219L13592.612,-3360.721L13592.6123,-3360.7204L13592.6123,-3360.7201L13592.6123,-3360.7195L13592.612,-3360.7184L13592.612,-3360.7181L13592.6118,-3360.7178Z"/>
<path content="和歌山県,,東牟婁郡,那智勝浦町,,30421" xlink:title="和歌山県" d="M13592.6283,-3360.7233L13592.6286,-3360.7232L13592.6287,-3360.7232L13592.6289,-3360.7233L13592.6291,-3360.7234L13592.6297,-3360.724L13592.6301,-3360.7243L13592.6302,-3360.7244L13592.6305,-3360.7244L13592.6308,-3360.7245L13592.6316,-3360.7244L13592.6325,-3360.7242L13592.6332,-3360.7241L13592.6351,-3360.7241L13592.6359,-3360.7241L13592.6362,-3360.724L13592.6365,-3360.7238L13592.6366,-3360.7238L13592.6367,-3360.7236L13592.6367,-3360.7233L13592.6367,-3360.7229L13592.6364,-3360.7222L13592.636,-3360.7216L13592.6353,-3360.721L13592.6346,-3360.7206L13592.6334,-3360.7201L13592.631,-3360.7191L13592.6301,-3360.7187L13592.6299,-3360.7185L13592.6294,-3360.718L13592.6292,-3360.7178L13592.6158,-3360.7178L13592.6158,-3360.718L13592.6158,-3360.7182L13592.6156,-3360.7187L13592.6149,-3360.7199L13592.6147,-3360.7205L13592.6146,-3360.7213L13592.6147,-3360.7215L13592.6149,-3360.7223L13592.6154,-3360.7231L13592.616,-3360.7238L13592.6169,-3360.7244L13592.6177,-3360.7248L13592.619,-3360.7253L13592.6222,-3360.7262L13592.6226,-3360.7263L13592.6238,-3360.7267L13592.6243,-3360.7268L13592.6245,-3360.7268L13592.6248,-3360.7268L13592.6252,-3360.7266L13592.6257,-3360.7263L13592.6264,-3360.7255L13592.6269,-3360.7248L13592.6273,-3360.724L13592.6276,-3360.7237L13592.628,-3360.7234L13592.6283,-3360.7233Z"/>
<path content="和歌山県,,東牟婁郡,那智勝浦町,,30421" xlink:title="和歌山県" d="M13592.6713,-3360.7302L13592.6716,-3360.7301L13592.6725,-3360.7302L13592.6733,-3360.7302L13592.6743,-3360.7301L13592.6753,-3360.7297L13592.6765,-3360.729L13592.6768,-3360.7288L13592.6775,-3360.7281L13592.6779,-3360.7275L13592.6781,-3360.7272L13592.6782,-3360.7266L13592.6781,-3360.7259L13592.6777,-3360.725L13592.6771,-3360.7243L13592.6765,-3360.7238L13592.6752,-3360.7229L13592.6748,-3360.7226L13592.6747,-3360.7224L13592.6746,-3360.7223L13592.6746,-3360.7219L13592.6747,-3360.7215L13592.6751,-3360.7208L13592.6757,-3360.7201L13592.6764,-3360.7195L13592.6772,-3360.719L13592.678,-3360.7187L13592.6785,-3360.7187L13592.6791,-3360.7187L13592.6794,-3360.7187L13592.6811,-3360.719L13592.6817,-3360.7191L13592.682,-3360.719L13592.6823,-3360.7189L13592.6823,-3360.7188L13592.6824,-3360.7186L13592.6824,-3360.7178L13592.6724,-3360.7178L13592.6722,-3360.7179L13592.6708,-3360.7193L13592.6702,-3360.7196L13592.6691,-3360.7201L13592.6682,-3360.7204L13592.6672,-3360.7208L13592.6665,-3360.7212L13592.6659,-3360.7218L13592.6651,-3360.7227L13592.6646,-3360.723L13592.6637,-3360.7234L13592.6629,-3360.7238L13592.6626,-3360.7239L13592.6618,-3360.7246L13592.6617,-3360.7247L13592.6613,-3360.7249L13592.6606,-3360.725L13592.6595,-3360.7253L13592.6588,-3360.7256L13592.6583,-3360.7259L13592.6578,-3360.7264L13592.6573,-3360.7272L13592.6569,-3360.7279L13592.6564,-3360.7288L13592.6563,-3360.7292L13592.6563,-3360.7296L13592.6563,-3360.7297L13592.6565,-3360.7301L13592.657,-3360.7304L13592.6576,-3360.7308L13592.6588,-3360.7315L13592.6597,-3360.7318L13592.6599,-3360.7318L13592.6613,-3360.732L13592.6625,-3360.7322L13592.6633,-3360.7325L13592.665,-3360.7333L13592.6658,-3360.7335L13592.6665,-3360.7335L13592.6671,-3360.7334L13592.6676,-3360.7333L13592.668,-3360.733L13592.6683,-3360.7327L13592.6684,-3360.7325L13592.6685,-3360.7321L13592.6686,-3360.7313L13592.6687,-3360.7311L13592.6688,-3360.731L13592.669,-3360.7309L13592.6701,-3360.7307L13592.6702,-3360.7307L13592.6708,-3360.7304L13592.6713,-3360.7302Z"/>
<path content="和歌山県,,東牟婁郡,那智勝浦町,,30421" xlink:title="和歌山県" d="M13592.7859,-3360.9135L13592.7852,-3360.9134L13592.7841,-3360.9135L13592.7838,-3360.9136L13592.7826,-3360.9139L13592.7816,-3360.9143L13592.781,-3360.9147L13592.78,-3360.9157L13592.7791,-3360.9165L13592.7782,-3360.9172L13592.7781,-3360.9174L13592.7778,-3360.9179L13592.7775,-3360.9188L13592.7772,-3360.9192L13592.7769,-3360.9194L13592.7759,-3360.9198L13592.7752,-3360.9201L13592.7748,-3360.9203L13592.7747,-3360.9205L13592.7746,-3360.9208L13592.7745,-3360.9213L13592.7745,-3360.9222L13592.7744,-3360.9225L13592.7743,-3360.9228L13592.7735,-3360.9233L13592.7731,-3360.9237L13592.773,-3360.9238L13592.7727,-3360.9243L13592.7722,-3360.9255L13592.772,-3360.9258L13592.7713,-3360.9264L13592.7708,-3360.9269L13592.7706,-3360.9273L13592.7704,-3360.928L13592.7704,-3360.9284L13592.7703,-3360.9298L13592.7704,-3360.9304L13592.7705,-3360.9309L13592.771,-3360.9316L13592.7719,-3360.9326L13592.7737,-3360.9344L13592.7743,-3360.9349L13592.7752,-3360.9354L13592.776,-3360.9356L13592.7767,-3360.9357L13592.7776,-3360.9357L13592.7787,-3360.9355L13592.7796,-3360.9351L13592.7807,-3360.9345L13592.7816,-3360.9338L13592.7822,-3360.9333L13592.7831,-3360.9322L13592.7837,-3360.9317L13592.7846,-3360.9312L13592.7848,-3360.9311L13592.7857,-3360.9308L13592.7861,-3360.9274L13592.786,-3360.9271L13592.7856,-3360.9259L13592.7852,-3360.925L13592.7845,-3360.9243L13592.7834,-3360.9233L13592.7831,-3360.9229L13592.7829,-3360.9223L13592.7828,-3360.9212L13592.7824,-3360.9203L13592.7819,-3360.9193L13592.7819,-3360.9189L13592.7819,-3360.9187L13592.782,-3360.9185L13592.7822,-3360.9183L13592.7825,-3360.918L13592.7833,-3360.9177L13592.7839,-3360.9176L13592.7855,-3360.9172L13592.786,-3360.917L13592.7864,-3360.9167L13592.7868,-3360.9163L13592.787,-3360.916L13592.7872,-3360.9155L13592.7872,-3360.9149L13592.7871,-3360.9145L13592.7869,-3360.9141L13592.7867,-3360.9138L13592.7863,-3360.9136L13592.7859,-3360.9135Z"/>
<path content="和歌山県,,東牟婁郡,那智勝浦町,,30421" xlink:title="和歌山県" d="M13592.6582,-3360.72L13592.658,-3360.7198L13592.6577,-3360.7196L13592.6572,-3360.7195L13592.6566,-3360.7194L13592.6562,-3360.7195L13592.6553,-3360.7197L13592.6549,-3360.7198L13592.6547,-3360.7198L13592.6542,-3360.7198L13592.6539,-3360.7197L13592.6532,-3360.7194L13592.6524,-3360.7189L13592.6518,-3360.7183L13592.6514,-3360.7178L13592.6449,-3360.7178L13592.6451,-3360.7184L13592.6452,-3360.7187L13592.6459,-3360.7199L13592.6461,-3360.7202L13592.6467,-3360.7213L13592.6471,-3360.7225L13592.6475,-3360.7236L13592.6479,-3360.7243L13592.6484,-3360.7249L13592.649,-3360.7253L13592.6496,-3360.7255L13592.6504,-3360.7257L13592.651,-3360.7258L13592.6519,-3360.7257L13592.6527,-3360.7254L13592.6536,-3360.725L13592.6544,-3360.7245L13592.6552,-3360.7236L13592.6558,-3360.723L13592.656,-3360.7229L13592.6571,-3360.7223L13592.6577,-3360.7219L13592.6578,-3360.7218L13592.6582,-3360.7214L13592.6584,-3360.7209L13592.6584,-3360.7204L13592.6583,-3360.7202L13592.6582,-3360.72Z"/>
<path content="和歌山県,,東牟婁郡,那智勝浦町,,30421" xlink:title="和歌山県" d="M13592.6494,-3360.732L13592.6479,-3360.731L13592.647,-3360.7304L13592.6467,-3360.7303L13592.6452,-3360.7299L13592.6443,-3360.7296L13592.6441,-3360.7294L13592.6433,-3360.7289L13592.6427,-3360.7285L13592.642,-3360.7282L13592.641,-3360.7279L13592.6402,-3360.7278L13592.6376,-3360.7274L13592.6363,-3360.7272L13592.6359,-3360.7272L13592.6353,-3360.7273L13592.6349,-3360.7275L13592.6346,-3360.7279L13592.6343,-3360.7282L13592.6343,-3360.7285L13592.6342,-3360.7286L13592.6343,-3360.7289L13592.6346,-3360.7295L13592.6351,-3360.7306L13592.6354,-3360.731L13592.6356,-3360.7311L13592.6358,-3360.7312L13592.6362,-3360.7312L13592.6373,-3360.7312L13592.6376,-3360.7313L13592.6377,-3360.7313L13592.6378,-3360.7314L13592.638,-3360.7316L13592.6382,-3360.7321L13592.6383,-3360.7322L13592.6386,-3360.7323L13592.6389,-3360.7324L13592.6394,-3360.7323L13592.6405,-3360.7319L13592.6413,-3360.7316L13592.6416,-3360.7315L13592.642,-3360.7316L13592.6427,-3360.7319L13592.6437,-3360.7322L13592.6445,-3360.7324L13592.6454,-3360.7328L13592.6466,-3360.7334L13592.6478,-3360.7339L13592.6489,-3360.7342L13592.6501,-3360.7347L13592.6506,-3360.7348L13592.6509,-3360.7348L13592.6511,-3360.7346L13592.6513,-3360.7345L13592.6514,-3360.7342L13592.6515,-3360.7339L13592.6515,-3360.7337L13592.6514,-3360.7334L13592.6512,-3360.733L13592.6507,-3360.7327L13592.6494,-3360.732Z"/>
<path content="和歌山県,,東牟婁郡,那智勝浦町,,30421" xlink:title="和歌山県" d="M13592.6057,-3360.7406L13592.6078,-3360.7405L13592.6084,-3360.7405L13592.6096,-3360.7406L13592.6099,-3360.7406L13592.6101,-3360.7405L13592.6102,-3360.7403L13592.6102,-3360.7401L13592.61,-3360.7395L13592.6097,-3360.7389L13592.6092,-3360.7381L13592.6087,-3360.7378L13592.6086,-3360.7377L13592.6081,-3360.7375L13592.6072,-3360.7374L13592.6058,-3360.7372L13592.6056,-3360.7372L13592.6046,-3360.7368L13592.6037,-3360.7364L13592.6033,-3360.7363L13592.6027,-3360.7363L13592.6017,-3360.7364L13592.6009,-3360.7366L13592.5987,-3360.7369L13592.5981,-3360.7371L13592.5977,-3360.7373L13592.5975,-3360.7374L13592.5972,-3360.7378L13592.5969,-3360.7381L13592.5968,-3360.7385L13592.5968,-3360.7389L13592.597,-3360.7393L13592.5975,-3360.7401L13592.5982,-3360.7411L13592.5985,-3360.7414L13592.5987,-3360.7415L13592.599,-3360.7417L13592.5996,-3360.7418L13592.6005,-3360.7418L13592.6015,-3360.7416L13592.6019,-3360.7416L13592.6039,-3360.7409L13592.6049,-3360.7407L13592.6057,-3360.7406Z"/>
<path content="和歌山県,,東牟婁郡,那智勝浦町,,30421" xlink:title="和歌山県" d="M13592.5884,-3360.7422L13592.5876,-3360.7421L13592.5868,-3360.7422L13592.5849,-3360.7422L13592.5838,-3360.7423L13592.5829,-3360.7426L13592.5823,-3360.7428L13592.582,-3360.7431L13592.5817,-3360.7434L13592.5816,-3360.7435L13592.5816,-3360.7439L13592.5816,-3360.7444L13592.5818,-3360.7448L13592.5818,-3360.7449L13592.5821,-3360.7452L13592.5826,-3360.7456L13592.5833,-3360.7459L13592.5845,-3360.7462L13592.5848,-3360.7463L13592.5879,-3360.7467L13592.5891,-3360.7469L13592.5893,-3360.747L13592.5916,-3360.7478L13592.5921,-3360.7479L13592.5923,-3360.7479L13592.5925,-3360.7478L13592.5926,-3360.7476L13592.5927,-3360.7473L13592.5926,-3360.7468L13592.5923,-3360.7459L13592.5917,-3360.745L13592.5909,-3360.7441L13592.5898,-3360.7428L13592.5893,-3360.7424L13592.589,-3360.7423L13592.5884,-3360.7422Z"/>
<path content="和歌山県,,東牟婁郡,那智勝浦町,,30421" xlink:title="和歌山県" d="M13592.6371,-3360.7178L13592.6371,-3360.7181L13592.6374,-3360.7188L13592.6381,-3360.7196L13592.6382,-3360.7198L13592.6392,-3360.7207L13592.6399,-3360.7212L13592.6404,-3360.722L13592.6406,-3360.7227L13592.6411,-3360.7235L13592.6416,-3360.7239L13592.6419,-3360.7242L13592.6424,-3360.7244L13592.6425,-3360.7244L13592.643,-3360.7245L13592.6435,-3360.7244L13592.644,-3360.7242L13592.6443,-3360.7241L13592.6445,-3360.724L13592.6446,-3360.7237L13592.6447,-3360.7233L13592.6446,-3360.7224L13592.6444,-3360.7217L13592.6442,-3360.721L13592.6438,-3360.7202L13592.6434,-3360.7197L13592.6425,-3360.718L13592.6423,-3360.7178Z"/>
<path content="和歌山県,,東牟婁郡,那智勝浦町,,30421" xlink:title="和歌山県" d="M13592.5137,-3360.8438L13592.5137,-3360.8433L13592.5137,-3360.8417L13592.5137,-3360.8404L13592.5136,-3360.8398L13592.5135,-3360.8397L13592.5132,-3360.8392L13592.5127,-3360.8387L13592.5121,-3360.8383L13592.5117,-3360.8381L13592.5112,-3360.838L13592.5108,-3360.838L13592.5103,-3360.8381L13592.5097,-3360.8385L13592.5091,-3360.8389L13592.5075,-3360.8399L13592.5072,-3360.8401L13592.507,-3360.8405L13592.5069,-3360.841L13592.5069,-3360.8417L13592.5073,-3360.8428L13592.5078,-3360.8439L13592.5081,-3360.8442L13592.5082,-3360.8443L13592.5083,-3360.8443L13592.5084,-3360.8443L13592.5088,-3360.8438L13592.509,-3360.8435L13592.5091,-3360.8434L13592.5094,-3360.8433L13592.5098,-3360.8433L13592.51,-3360.8434L13592.5105,-3360.8436L13592.5113,-3360.8442L13592.5121,-3360.8446L13592.5126,-3360.8447L13592.5129,-3360.8448L13592.5132,-3360.8448L13592.5134,-3360.8447L13592.5135,-3360.8446L13592.5136,-3360.8444L13592.5137,-3360.8438Z"/>
<path content="和歌山県,,東牟婁郡,那智勝浦町,,30421" xlink:title="和歌山県" d="M13592.5757,-3360.7188L13592.5752,-3360.7187L13592.5749,-3360.7187L13592.5747,-3360.7188L13592.5747,-3360.719L13592.5747,-3360.7193L13592.5749,-3360.72L13592.5753,-3360.7207L13592.576,-3360.7215L13592.5768,-3360.7222L13592.5779,-3360.7229L13592.5782,-3360.723L13592.5798,-3360.7239L13592.5812,-3360.7244L13592.5817,-3360.7245L13592.5833,-3360.7247L13592.5845,-3360.7248L13592.5848,-3360.7247L13592.5849,-3360.7247L13592.5849,-3360.7246L13592.5848,-3360.7244L13592.5841,-3360.7238L13592.5826,-3360.7226L13592.5822,-3360.7222L13592.5816,-3360.7213L13592.5812,-3360.7208L13592.5811,-3360.7206L13592.5805,-3360.7202L13592.5798,-3360.7199L13592.5786,-3360.7196L13592.5778,-3360.7194L13592.5757,-3360.7188Z"/>
<path content="和歌山県,,東牟婁郡,那智勝浦町,,30421" xlink:title="和歌山県" d="M13592.6632,-3360.7178L13592.6628,-3360.7181L13592.6622,-3360.7187L13592.662,-3360.7193L13592.6618,-3360.7198L13592.6618,-3360.7202L13592.6619,-3360.7206L13592.662,-3360.7208L13592.6623,-3360.7211L13592.6627,-3360.7214L13592.663,-3360.7215L13592.6631,-3360.7215L13592.6634,-3360.7215L13592.6638,-3360.7214L13592.6644,-3360.7212L13592.6655,-3360.7203L13592.6665,-3360.7197L13592.6681,-3360.7189L13592.6692,-3360.7182L13592.6698,-3360.7178L13592.6698,-3360.7178Z"/>
<path content="和歌山県,,東牟婁郡,那智勝浦町,,30421" xlink:title="和歌山県" d="M13592.5264,-3360.7814L13592.5263,-3360.7813L13592.5259,-3360.7814L13592.5245,-3360.7817L13592.5243,-3360.7818L13592.523,-3360.7818L13592.5227,-3360.7818L13592.5225,-3360.7819L13592.5223,-3360.782L13592.5222,-3360.7822L13592.5221,-3360.7826L13592.5221,-3360.783L13592.5223,-3360.7836L13592.5227,-3360.7841L13592.523,-3360.7844L13592.5237,-3360.7849L13592.5243,-3360.7853L13592.5254,-3360.7861L13592.5258,-3360.7863L13592.5262,-3360.7864L13592.5265,-3360.7864L13592.5273,-3360.7861L13592.528,-3360.7858L13592.5289,-3360.7854L13592.5292,-3360.7852L13592.5293,-3360.7851L13592.5295,-3360.7848L13592.5295,-3360.7844L13592.5295,-3360.784L13592.5293,-3360.7835L13592.529,-3360.7831L13592.5283,-3360.7826L13592.5272,-3360.7817L13592.5268,-3360.7815L13592.5264,-3360.7814Z"/>
<path content="和歌山県,,東牟婁郡,那智勝浦町,,30421" xlink:title="和歌山県" d="M13592.5659,-3360.7368L13592.5655,-3360.7368L13592.5651,-3360.7369L13592.5646,-3360.7371L13592.5643,-3360.7374L13592.5641,-3360.7376L13592.564,-3360.7378L13592.5639,-3360.7381L13592.564,-3360.7385L13592.5642,-3360.7389L13592.5645,-3360.7393L13592.5651,-3360.7397L13592.5661,-3360.7402L13592.5668,-3360.7406L13592.5684,-3360.7415L13592.5692,-3360.7418L13592.5694,-3360.7419L13592.5702,-3360.742L13592.5707,-3360.742L13592.5709,-3360.742L13592.5711,-3360.7419L13592.5711,-3360.7418L13592.5711,-3360.7416L13592.5707,-3360.7411L13592.5701,-3360.7405L13592.5683,-3360.7384L13592.5673,-3360.7374L13592.5668,-3360.7371L13592.5664,-3360.7369L13592.5659,-3360.7368Z"/>
<path content="和歌山県,,東牟婁郡,那智勝浦町,,30421" xlink:title="和歌山県" d="M13592.5475,-3360.749L13592.5459,-3360.7489L13592.5447,-3360.749L13592.5442,-3360.7491L13592.5441,-3360.7492L13592.544,-3360.7493L13592.544,-3360.7494L13592.5442,-3360.7495L13592.5449,-3360.75L13592.5466,-3360.7507L13592.5495,-3360.7518L13592.5504,-3360.7523L13592.5524,-3360.7534L13592.5527,-3360.7535L13592.5528,-3360.7535L13592.5529,-3360.7534L13592.5528,-3360.7531L13592.5519,-3360.7513L13592.5513,-3360.7501L13592.551,-3360.7497L13592.5506,-3360.7495L13592.5495,-3360.7492L13592.5475,-3360.749Z"/>
<path content="和歌山県,,東牟婁郡,那智勝浦町,,30421" xlink:title="和歌山県" d="M13592.5903,-3360.738L13592.5899,-3360.738L13592.5894,-3360.7381L13592.5891,-3360.7382L13592.5887,-3360.7385L13592.5885,-3360.7387L13592.5883,-3360.739L13592.5883,-3360.7391L13592.5884,-3360.7392L13592.5885,-3360.7395L13592.5887,-3360.7397L13592.5889,-3360.7398L13592.5891,-3360.7399L13592.5894,-3360.74L13592.5898,-3360.74L13592.5916,-3360.7397L13592.5927,-3360.7397L13592.5928,-3360.7396L13592.5929,-3360.7396L13592.5929,-3360.7394L13592.5927,-3360.7392L13592.5922,-3360.7388L13592.5915,-3360.7384L13592.5908,-3360.7381L13592.5903,-3360.738Z"/>
<path content="和歌山県,,東牟婁郡,那智勝浦町,,30421" xlink:title="和歌山県" d="M13592.785,-3360.9357L13592.7852,-3360.9346L13592.7848,-3360.9348L13592.7844,-3360.935L13592.784,-3360.9355L13592.7838,-3360.9358L13592.7838,-3360.9361L13592.7838,-3360.9365L13592.7839,-3360.9368L13592.7842,-3360.9371L13592.7843,-3360.9373L13592.7848,-3360.9376L13592.785,-3360.9377L13592.7849,-3360.9365L13592.785,-3360.9357Z"/>
<path content="和歌山県,,東牟婁郡,太地町,,30422" xlink:title="和歌山県" d="M13593.3838,-3361.3428L13593.3837,-3361.3428L13593.3817,-3361.3418L13593.3803,-3361.3407L13593.3774,-3361.3409L13593.3766,-3361.341L13593.3744,-3361.3407L13593.3717,-3361.3413L13593.3673,-3361.3444L13593.3654,-3361.3449L13593.3626,-3361.3449L13593.3333,-3361.3192L13593.2545,-3361.2499L13593.2544,-3361.2492L13593.2515,-3361.233L13593.2502,-3361.2264L13593.2501,-3361.2254L13593.2502,-3361.2249L13593.2527,-3361.218L13593.2566,-3361.2109L13593.2639,-3361.2009L13593.2705,-3361.1975L13593.2774,-3361.1932L13593.2811,-3361.1918L13593.2827,-3361.1917L13593.2833,-3361.1922L13593.2853,-3361.1924L13593.2863,-3361.1922L13593.2874,-3361.1928L13593.2886,-3361.1929L13593.2889,-3361.1929L13593.2899,-3361.1936L13593.2918,-3361.1939L13593.2923,-3361.1938L13593.2928,-3361.1945L13593.2943,-3361.1951L13593.2962,-3361.1954L13593.2972,-3361.1953L13593.2981,-3361.1958L13593.2992,-3361.196L13593.2998,-3361.1961L13593.3009,-3361.1958L13593.3015,-3361.1959L13593.3022,-3361.1966L13593.3032,-3361.1968L13593.3042,-3361.1968L13593.3055,-3361.1965L13593.3065,-3361.1965L13593.3073,-3361.1961L13593.3077,-3361.1954L13593.3072,-3361.1946L13593.3067,-3361.1942L13593.3059,-3361.1939L13593.3055,-3361.1935L13593.3054,-3361.1934L13593.3064,-3361.1933L13593.308,-3361.1932L13593.3088,-3361.1926L13593.3093,-3361.1923L13593.3104,-3361.1919L13593.3111,-3361.1913L13593.3113,-3361.1908L13593.3121,-3361.191L13593.313,-3361.1914L13593.3148,-3361.1914L13593.3156,-3361.1909L13593.3157,-3361.1901L13593.3153,-3361.1892L13593.314,-3361.1886L13593.3128,-3361.1886L13593.312,-3361.1883L13593.3114,-3361.1875L13593.3103,-3361.1872L13593.3105,-3361.1868L13593.3103,-3361.1862L13593.3103,-3361.1853L13593.311,-3361.185L13593.3112,-3361.1847L13593.3119,-3361.185L13593.3131,-3361.185L13593.3141,-3361.1857L13593.3152,-3361.1865L13593.3157,-3361.1871L13593.316,-3361.1877L13593.317,-3361.1881L13593.3185,-3361.1885L13593.3196,-3361.1882L13593.3202,-3361.1891L13593.3211,-3361.1894L13593.3216,-3361.1894L13593.3221,-3361.1898L13593.3228,-3361.1902L13593.3237,-3361.1905L13593.3252,-3361.1904L13593.3261,-3361.19L13593.3266,-3361.1891L13593.3264,-3361.1884L13593.3259,-3361.1879L13593.3254,-3361.1876L13593.3249,-3361.1868L13593.3241,-3361.186L13593.3228,-3361.1856L13593.3218,-3361.1855L13593.3209,-3361.1846L13593.3193,-3361.1838L13593.3172,-3361.1834L13593.3158,-3361.1824L13593.3151,-3361.1824L13593.3153,-3361.1817L13593.317,-3361.1812L13593.3199,-3361.1815L13593.3221,-3361.1813L13593.3237,-3361.1804L13593.3242,-3361.1795L13593.3239,-3361.1779L13593.3224,-3361.1748L13593.3213,-3361.172L13593.3215,-3361.1695L13593.322,-3361.1668L13593.3219,-3361.1641L13593.3212,-3361.1604L13593.3211,-3361.1584L13593.322,-3361.1556L13593.3255,-3361.1489L13593.3268,-3361.1468L13593.3277,-3361.1463L13593.3299,-3361.1457L13593.3318,-3361.1442L13593.333,-3361.1423L13593.3333,-3361.1421L13593.3345,-3361.1412L13593.3371,-3361.1404L13593.3429,-3361.141L13593.3483,-3361.1422L13593.3516,-3361.1425L13593.3543,-3361.1421L13593.3562,-3361.1414L13593.3571,-3361.1403L13593.3568,-3361.1392L13593.3557,-3361.1379L13593.3551,-3361.1369L13593.3554,-3361.1363L13593.358,-3361.1362L13593.3586,-3361.1364L13593.3602,-3361.1362L13593.3607,-3361.1357L13593.3611,-3361.1344L13593.3611,-3361.1334L13593.362,-3361.1334L13593.3637,-3361.1338L13593.3662,-3361.1335L13593.3669,-3361.1332L13593.3678,-3361.1336L13593.37,-3361.1339L13593.3719,-3361.1335L13593.3731,-3361.1329L13593.3734,-3361.132L13593.3745,-3361.1316L13593.3748,-3361.1301L13593.3741,-3361.1293L13593.3746,-3361.1285L13593.3742,-3361.1274L13593.3749,-3361.1269L13593.375,-3361.1258L13593.3744,-3361.1249L13593.3735,-3361.1237L13593.3724,-3361.1227L13593.3719,-3361.1209L13593.3709,-3361.1199L13593.3698,-3361.1198L13593.3686,-3361.1189L13593.3668,-3361.1185L13593.3663,-3361.1177L13593.3642,-3361.1176L13593.3636,-3361.1168L13593.3624,-3361.1156L13593.3612,-3361.1155L13593.3601,-3361.1155L13593.3593,-3361.115L13593.3575,-3361.1149L13593.3565,-3361.1144L13593.3555,-3361.114L13593.3541,-3361.114L13593.3521,-3361.1132L13593.3511,-3361.1132L13593.3497,-3361.1134L13593.3484,-3361.113L13593.3475,-3361.1132L13593.3463,-3361.1129L13593.3456,-3361.113L13593.3444,-3361.1126L13593.3431,-3361.1127L13593.3424,-3361.1128L13593.3414,-3361.1127L13593.3404,-3361.113L13593.3394,-3361.1138L13593.3382,-3361.1139L13593.3347,-3361.1161L13593.3333,-3361.1175L13593.3319,-3361.119L13593.3307,-3361.1198L13593.3283,-3361.1209L13593.3254,-3361.1212L13593.3241,-3361.1217L13593.3227,-3361.1254L13593.322,-3361.1266L13593.3208,-3361.1269L13593.3195,-3361.1266L13593.3179,-3361.1245L13593.3166,-3361.1213L13593.3118,-3361.1148L13593.3077,-3361.1103L13593.3053,-3361.1089L13593.303,-3361.1081L13593.3013,-3361.1077L13593.2981,-3361.1064L13593.2946,-3361.1049L13593.2915,-3361.1032L13593.2875,-3361.1021L13593.2854,-3361.1015L13593.2837,-3361.1004L13593.2819,-3361.0982L13593.2792,-3361.0966L13593.2786,-3361.0957L13593.2771,-3361.095L13593.2749,-3361.0928L13593.2729,-3361.0916L13593.2718,-3361.0915L13593.2712,-3361.091L13593.2698,-3361.0902L13593.2683,-3361.0902L13593.2675,-3361.0893L13593.2674,-3361.0885L13593.2676,-3361.0879L13593.2683,-3361.0873L13593.2692,-3361.0873L13593.2698,-3361.0869L13593.2705,-3361.087L13593.2718,-3361.087L13593.2737,-3361.0871L13593.2759,-3361.0874L13593.2777,-3361.0876L13593.2792,-3361.0883L13593.2803,-3361.088L13593.2811,-3361.0873L13593.2808,-3361.0865L13593.28,-3361.0855L13593.2783,-3361.085L13593.2768,-3361.0847L13593.2755,-3361.0838L13593.2742,-3361.0835L13593.2726,-3361.0834L13593.2715,-3361.083L13593.2695,-3361.0828L13593.2686,-3361.0822L13593.2674,-3361.0821L13593.2667,-3361.0818L13593.2647,-3361.0816L13593.2627,-3361.0824L13593.2564,-3361.0798L13593.2505,-3361.0777L13593.2504,-3361.0777L13593.2445,-3361.0756L13593.2386,-3361.074L13593.2341,-3361.0732L13593.2306,-3361.0724L13593.2279,-3361.0721L13593.2254,-3361.0721L13593.2207,-3361.0718L13593.216,-3361.0717L13593.214,-3361.0721L13593.2113,-3361.073L13593.2095,-3361.0735L13593.2048,-3361.0736L13593.2034,-3361.0733L13593.2011,-3361.0721L13593.1995,-3361.0717L13593.1972,-3361.0717L13593.1951,-3361.0722L13593.1929,-3361.0721L13593.1902,-3361.0717L13593.1878,-3361.0715L13593.1847,-3361.0711L13593.1815,-3361.0712L13593.179,-3361.0715L13593.1768,-3361.0716L13593.1747,-3361.0715L13593.1693,-3361.0694L13593.1679,-3361.0692L13593.1664,-3361.069L13593.1654,-3361.0696L13593.1644,-3361.0715L13593.1636,-3361.0726L13593.1615,-3361.0734L13593.1581,-3361.0742L13593.1517,-3361.0748L13593.1492,-3361.0753L13593.142,-3361.0756L13593.1361,-3361.0765L13593.1325,-3361.0769L13593.1248,-3361.0772L13593.121,-3361.0778L13593.1161,-3361.0797L13593.1094,-3361.0831L13593.1053,-3361.0847L13593.1023,-3361.0852L13593.0985,-3361.0852L13593.0927,-3361.0846L13593.0862,-3361.0829L13593.0822,-3361.0814L13593.078,-3361.0809L13593.0722,-3361.0799L13593.0672,-3361.0784L13593.0649,-3361.077L13593.065,-3361.0767L13593.0646,-3361.076L13593.0643,-3361.0753L13593.0646,-3361.0748L13593.0649,-3361.0738L13593.0645,-3361.0728L13593.0653,-3361.0721L13593.0656,-3361.071L13593.065,-3361.0695L13593.0662,-3361.0679L13593.0661,-3361.0665L13593.0653,-3361.0656L13593.0639,-3361.065L13593.0621,-3361.0656L13593.0609,-3361.0662L13593.0604,-3361.0675L13593.0595,-3361.0675L13593.059,-3361.0677L13593.0579,-3361.0671L13593.0562,-3361.0678L13593.0564,-3361.069L13593.0557,-3361.0693L13593.0553,-3361.0707L13593.0541,-3361.071L13593.0535,-3361.0724L13593.0535,-3361.0725L13593.0519,-3361.0735L13593.0504,-3361.0752L13593.0499,-3361.0776L13593.0495,-3361.0787L13593.0489,-3361.079L13593.048,-3361.0784L13593.0471,-3361.0783L13593.0462,-3361.0775L13593.0452,-3361.0772L13593.0444,-3361.0764L13593.0437,-3361.0764L13593.0431,-3361.0759L13593.0427,-3361.0711L13593.0432,-3361.0704L13593.043,-3361.069L13593.0434,-3361.068L13593.0426,-3361.0673L13593.042,-3361.0665L13593.0413,-3361.0657L13593.0402,-3361.0652L13593.039,-3361.0653L13593.0381,-3361.0666L13593.0381,-3361.0673L13593.0374,-3361.0687L13593.0368,-3361.0694L13593.0362,-3361.0694L13593.0358,-3361.0686L13593.0359,-3361.0666L13593.0369,-3361.0653L13593.0366,-3361.0643L13593.0362,-3361.0637L13593.0364,-3361.0629L13593.0359,-3361.0619L13593.0349,-3361.0617L13593.0335,-3361.0604L13593.032,-3361.0599L13593.0308,-3361.0594L13593.0296,-3361.06L13593.0296,-3361.061L13593.0288,-3361.061L13593.0281,-3361.0614L13593.0275,-3361.0612L13593.0261,-3361.0611L13593.025,-3361.0616L13593.024,-3361.061L13593.0215,-3361.061L13593.0196,-3361.0615L13593.0193,-3361.0624L13593.0183,-3361.0626L13593.017,-3361.0633L13593.017,-3361.0643L13593.0155,-3361.0653L13593.0145,-3361.0652L13593.0127,-3361.0646L13593.0124,-3361.0639L13593.0133,-3361.063L13593.0134,-3361.0622L13593.0132,-3361.061L13593.0134,-3361.0599L13593.0126,-3361.0591L13593.0131,-3361.058L13593.013,-3361.0549L13593.0123,-3361.0541L13593.0106,-3361.0536L13593.0089,-3361.0545L13593.0071,-3361.0551L13593.0058,-3361.0553L13593.0047,-3361.0557L13593.0041,-3361.0563L13593.0024,-3361.057L13593.0013,-3361.0576L13593.0005,-3361.0573L13592.999,-3361.0574L13592.9987,-3361.0567L13592.998,-3361.0561L13592.9984,-3361.0557L13592.9986,-3361.0544L13592.9981,-3361.0537L13592.9993,-3361.0526L13592.9994,-3361.0511L13592.9986,-3361.0504L13592.9971,-3361.0503L13592.9954,-3361.0507L13592.995,-3361.0499L13592.9949,-3361.0496L13592.994,-3361.0487L13592.994,-3361.0473L13592.9934,-3361.0466L13592.9924,-3361.0452L13592.9917,-3361.0444L13592.9917,-3361.0431L13592.9913,-3361.0422L13592.9908,-3361.0417L13592.99,-3361.0413L13592.9894,-3361.0407L13592.9891,-3361.0397L13592.9882,-3361.0392L13592.9868,-3361.0392L13592.986,-3361.0387L13592.9846,-3361.0385L13592.9838,-3361.0388L13592.9822,-3361.0383L13592.9798,-3361.0386L13592.9775,-3361.0386L13592.976,-3361.0396L13592.9742,-3361.0394L13592.9732,-3361.0399L13592.9722,-3361.0397L13592.971,-3361.0401L13592.9692,-3361.0396L13592.9682,-3361.0399L13592.9673,-3361.0397L13592.9659,-3361.0397L13592.9649,-3361.0403L13592.9635,-3361.0403L13592.9628,-3361.04L13592.9613,-3361.0398L13592.9605,-3361.0395L13592.958,-3361.0398L13592.957,-3361.0409L13592.9559,-3361.0409L13592.9546,-3361.0419L13592.9534,-3361.0419L13592.9518,-3361.0427L13592.9515,-3361.0438L13592.95,-3361.0441L13592.9492,-3361.0454L13592.9478,-3361.046L13592.9472,-3361.048L13592.9463,-3361.0478L13592.9453,-3361.0483L13592.9451,-3361.0494L13592.9438,-3361.0498L13592.9435,-3361.0509L13592.9427,-3361.0509L13592.9418,-3361.0515L13592.9408,-3361.0515L13592.9406,-3361.0524L13592.9396,-3361.0526L13592.9394,-3361.0527L13592.9393,-3361.0522L13592.9402,-3361.05L13592.9435,-3361.0462L13592.9467,-3361.0412L13592.9505,-3361.0366L13592.9535,-3361.0334L13592.9545,-3361.0325L13592.955,-3361.0318L13592.9557,-3361.0318L13592.9565,-3361.0311L13592.9568,-3361.0301L13592.9576,-3361.0301L13592.959,-3361.0284L13592.9592,-3361.0278L13592.96,-3361.0274L13592.9607,-3361.0265L13592.9601,-3361.0258L13592.959,-3361.0251L13592.9591,-3361.0248L13592.96,-3361.0227L13592.9599,-3361.0215L13592.9589,-3361.0206L13592.9572,-3361.0206L13592.9561,-3361.0196L13592.9543,-3361.0188L13592.9526,-3361.0189L13592.9521,-3361.0183L13592.9509,-3361.0176L13592.9493,-3361.0176L13592.9486,-3361.0171L13592.9472,-3361.0168L13592.9459,-3361.0168L13592.9455,-3361.0164L13592.9444,-3361.0158L13592.9432,-3361.0155L13592.9422,-3361.016L13592.9419,-3361.0155L13592.9415,-3361.0151L13592.9404,-3361.0149L13592.9389,-3361.0147L13592.9377,-3361.0139L13592.9361,-3361.014L13592.9357,-3361.0136L13592.9344,-3361.0136L13592.9338,-3361.0132L13592.9323,-3361.0129L13592.9308,-3361.0118L13592.9296,-3361.0118L13592.929,-3361.0114L13592.9269,-3361.0117L13592.9266,-3361.0111L13592.925,-3361.0106L13592.9236,-3361.0106L13592.9215,-3361.0102L13592.9201,-3361.0105L13592.9182,-3361.0099L13592.9171,-3361.0101L13592.9156,-3361.0101L13592.9144,-3361.0112L13592.9137,-3361.0109L13592.9121,-3361.0109L13592.9112,-3361.0112L13592.9107,-3361.0108L13592.9099,-3361.0108L13592.909,-3361.0112L13592.9084,-3361.0108L13592.9072,-3361.0103L13592.904,-3361.0103L13592.9029,-3361.0092L13592.9014,-3361.0095L13592.9009,-3361.0088L13592.8993,-3361.0081L13592.8975,-3361.008L13592.8958,-3361.0071L13592.8946,-3361.007L13592.8934,-3361.0073L13592.8923,-3361.007L13592.891,-3361.007L13592.8894,-3361.0077L13592.8891,-3361.0087L13592.8898,-3361.0102L13592.8905,-3361.011L13592.8894,-3361.0115L13592.889,-3361.0125L13592.8876,-3361.0122L13592.8869,-3361.0122L13592.8855,-3361.012L13592.8845,-3361.0123L13592.8828,-3361.0112L13592.8811,-3361.0108L13592.8798,-3361.0106L13592.879,-3361.0095L13592.8784,-3361.0096L13592.8776,-3361.0078L13592.8761,-3361.0062L13592.8744,-3361.0054L13592.8746,-3361.0036L13592.8744,-3361.0016L13592.8729,-3361.0001L13592.8705,-3360.9985L13592.8645,-3360.9943L13592.863,-3360.994L13592.8617,-3360.994L13592.8604,-3360.9934L13592.8595,-3360.9934L13592.8589,-3360.9927L13592.8574,-3360.9928L13592.8562,-3360.9919L13592.8548,-3360.992L13592.8545,-3360.9913L13592.8534,-3360.9911L13592.8531,-3360.9903L13592.8521,-3360.99L13592.8514,-3360.9891L13592.8511,-3360.9891L13592.8511,-3360.9881L13592.8511,-3360.9872L13592.8506,-3360.9865L13592.8501,-3360.9859L13592.8494,-3360.9854L13592.8494,-3360.9848L13592.8494,-3360.984L13592.8489,-3360.9834L13592.8475,-3360.9829L13592.8461,-3360.983L13592.8428,-3360.9828L13592.8409,-3360.982L13592.8405,-3360.9816L13592.8406,-3360.9805L13592.8414,-3360.9802L13592.8419,-3360.9797L13592.8438,-3360.9794L13592.8445,-3360.9777L13592.8432,-3360.9767L13592.842,-3360.9767L13592.8417,-3360.9765L13592.8407,-3360.9754L13592.8383,-3360.9743L13592.8346,-3360.9739L13592.8306,-3360.9729L13592.8272,-3360.9729L13592.8247,-3360.9729L13592.8236,-3360.9724L13592.8231,-3360.9716L13592.8231,-3360.9705L13592.8239,-3360.9689L13592.8242,-3360.9687L13592.8248,-3360.9683L13592.8261,-3360.9671L13592.8269,-3360.9664L13592.8276,-3360.966L13592.8292,-3360.9653L13592.8295,-3360.9651L13592.8295,-3360.965L13592.8295,-3360.9649L13592.8295,-3360.9647L13592.8292,-3360.9645L13592.8272,-3360.9635L13592.827,-3360.9634L13592.8261,-3360.9627L13592.8245,-3360.961L13592.8238,-3360.9604L13592.8227,-3360.9597L13592.8219,-3360.9594L13592.8203,-3360.9589L13592.8186,-3360.9584L13592.8179,-3360.9581L13592.8161,-3360.957L13592.8128,-3360.9549L13592.8113,-3360.9541L13592.8096,-3360.9533L13592.8073,-3360.9524L13592.8064,-3360.9519L13592.8057,-3360.9514L13592.8053,-3360.9509L13592.8048,-3360.9498L13592.8045,-3360.9493L13592.8041,-3360.949L13592.8034,-3360.9485L13592.8019,-3360.9478L13592.8015,-3360.9474L13592.8013,-3360.9472L13592.801,-3360.9467L13592.8008,-3360.9461L13592.8009,-3360.9457L13592.801,-3360.9453L13592.8011,-3360.9452L13592.8013,-3360.9448L13592.8017,-3360.9445L13592.802,-3360.9444L13592.8024,-3360.9443L13592.803,-3360.9443L13592.8052,-3360.9445L13592.8056,-3360.9445L13592.8069,-3360.9445L13592.8088,-3360.9443L13592.8099,-3360.9443L13592.8104,-3360.9444L13592.812,-3360.9449L13592.813,-3360.9453L13592.8146,-3360.9459L13592.8155,-3360.9461L13592.8158,-3360.9461L13592.8169,-3360.9461L13592.8181,-3360.946L13592.8197,-3360.9456L13592.8207,-3360.9453L13592.8216,-3360.9449L13592.8223,-3360.9445L13592.8228,-3360.9441L13592.8231,-3360.9436L13592.8233,-3360.9433L13592.8234,-3360.9428L13592.8233,-3360.9422L13592.8231,-3360.9418L13592.823,-3360.9416L13592.8226,-3360.9413L13592.8221,-3360.941L13592.8205,-3360.9404L13592.8202,-3360.9403L13592.8168,-3360.9388L13592.8162,-3360.9386L13592.8147,-3360.9381L13592.8133,-3360.9379L13592.8103,-3360.9378L13592.8092,-3360.9377L13592.8089,-3360.9376L13592.8079,-3360.9373L13592.8049,-3360.9361L13592.8036,-3360.9356L13592.8022,-3360.9352L13592.8006,-3360.9349L13592.7982,-3360.9347L13592.7968,-3360.9345L13592.7958,-3360.9342L13592.7956,-3360.9341L13592.7936,-3360.9331L13592.7927,-3360.9327L13592.7917,-3360.9324L13592.7909,-3360.9322L13592.7903,-3360.9323L13592.7898,-3360.9324L13592.7896,-3360.9325L13592.7886,-3360.9331L13592.7877,-3360.9336L13592.7866,-3360.9341L13592.7857,-3360.9344L13592.7852,-3360.9346L13592.785,-3360.9357L13592.7849,-3360.9365L13592.785,-3360.9377L13592.7862,-3360.9385L13592.7867,-3360.9388L13592.7867,-3360.9389L13592.7867,-3360.939L13592.7855,-3360.9392L13592.7851,-3360.9393L13592.785,-3360.9394L13592.785,-3360.9409L13592.7852,-3360.95L13592.7899,-3360.976L13592.7926,-3361.009L13592.7926,-3361.0386L13592.7942,-3361.0509L13592.7978,-3361.0561L13592.8042,-3361.0597L13592.811,-3361.0676L13592.8221,-3361.0737L13592.8458,-3361.0849L13592.853,-3361.0909L13592.8597,-3361.0993L13592.8717,-3361.1206L13592.8808,-3361.1411L13592.8815,-3361.1548L13592.8802,-3361.1635L13592.8745,-3361.1766L13592.8654,-3361.1893L13592.8563,-3361.2049L13592.8554,-3361.2061L13592.8398,-3361.226L13592.8229,-3361.2414L13592.7968,-3361.2639L13592.7818,-3361.2787L13592.7771,-3361.2866L13592.7747,-3361.2949L13592.7755,-3361.3018L13592.7807,-3361.3127L13592.7843,-3361.3171L13592.7977,-3361.33L13592.8008,-3361.3342L13592.8075,-3361.3501L13592.8107,-3361.3686L13592.8124,-3361.3837L13592.811,-3361.3956L13592.8029,-3361.4098L13592.7963,-3361.4236L13592.7954,-3361.4335L13592.7977,-3361.44L13592.8056,-3361.4543L13592.8074,-3361.4593L13592.8081,-3361.4689L13592.813,-3361.4852L13592.8204,-3361.4945L13592.8361,-3361.5035L13592.8435,-3361.5057L13592.8647,-3361.5116L13592.8762,-3361.5147L13592.8937,-3361.5155L13592.8971,-3361.5157L13592.919,-3361.5145L13592.9283,-3361.5151L13592.945,-3361.5204L13592.9543,-3361.5256L13592.9666,-3361.5421L13592.9785,-3361.5549L13592.9844,-3361.5677L13592.99,-3361.5779L13593.0112,-3361.6028L13593.0205,-3361.614L13593.0249,-3361.6214L13593.0423,-3361.6372L13593.0481,-3361.6424L13593.0604,-3361.6533L13593.0701,-3361.6667L13593.0711,-3361.6679L13593.0744,-3361.6766L13593.0759,-3361.6838L13593.0752,-3361.6971L13593.0704,-3361.7089L13593.0629,-3361.7177L13593.0633,-3361.7324L13593.0666,-3361.7715L13593.0691,-3361.8164L13593.3021,-3361.8164L13593.3268,-3361.8084L13593.3333,-3361.8053L13593.3603,-3361.7924L13593.3838,-3361.7788Z"/>
<path content="和歌山県,,東牟婁郡,太地町,,30422" xlink:title="和歌山県" d="M13593.3838,-3360.9699L13593.3837,-3360.97L13593.3824,-3360.9768L13593.3735,-3360.9843L13593.3731,-3360.9884L13593.3769,-3360.9938L13593.378,-3360.9942L13593.3838,-3360.9933Z"/>
<path content="和歌山県,,東牟婁郡,太地町,,30422" xlink:title="和歌山県" d="M13593.3677,-3361.0655L13593.3661,-3361.0645L13593.3505,-3361.0651L13593.3468,-3361.0658L13593.3414,-3361.0693L13593.3413,-3361.0726L13593.3445,-3361.0753L13593.3494,-3361.0771L13593.3579,-3361.0769L13593.3653,-3361.0729L13593.3679,-3361.0705L13593.3677,-3361.0655Z"/>
<path content="和歌山県,,東牟婁郡,太地町,,30422" xlink:title="和歌山県" d="M13592.8031,-3360.9268L13592.8026,-3360.9267L13592.8022,-3360.9267L13592.8018,-3360.9267L13592.801,-3360.9263L13592.8003,-3360.9259L13592.7996,-3360.9257L13592.7992,-3360.9257L13592.7989,-3360.9257L13592.7988,-3360.9257L13592.7987,-3360.9258L13592.7986,-3360.9259L13592.7986,-3360.926L13592.7986,-3360.9267L13592.7986,-3360.927L13592.7984,-3360.9274L13592.7977,-3360.9283L13592.7976,-3360.9287L13592.7976,-3360.929L13592.7977,-3360.9292L13592.7977,-3360.9294L13592.798,-3360.9297L13592.7984,-3360.9299L13592.7995,-3360.9303L13592.8004,-3360.9306L13592.8007,-3360.9306L13592.8009,-3360.9306L13592.8013,-3360.9304L13592.8017,-3360.9302L13592.8022,-3360.9297L13592.8027,-3360.9291L13592.803,-3360.9287L13592.8033,-3360.928L13592.8034,-3360.9276L13592.8034,-3360.9273L13592.8034,-3360.927L13592.8033,-3360.9268L13592.8031,-3360.9268Z"/>
<path content="和歌山県,,東牟婁郡,太地町,,30422" xlink:title="和歌山県" d="M13592.8331,-3360.9609L13592.8334,-3360.9606L13592.8339,-3360.9598L13592.8341,-3360.9595L13592.8341,-3360.9592L13592.8341,-3360.9591L13592.834,-3360.9589L13592.8338,-3360.9588L13592.8332,-3360.9586L13592.8318,-3360.9582L13592.8299,-3360.9575L13592.8295,-3360.9575L13592.829,-3360.9575L13592.8288,-3360.9575L13592.8284,-3360.9578L13592.8277,-3360.9584L13592.827,-3360.9588L13592.8268,-3360.959L13592.8268,-3360.9591L13592.8267,-3360.9594L13592.8267,-3360.9597L13592.8267,-3360.96L13592.8268,-3360.9602L13592.8271,-3360.9606L13592.8274,-3360.9607L13592.8278,-3360.9609L13592.8288,-3360.9609L13592.8298,-3360.9608L13592.8307,-3360.9609L13592.8313,-3360.9609L13592.8324,-3360.9611L13592.8327,-3360.9611L13592.833,-3360.961L13592.8331,-3360.9609Z"/>
<path content="和歌山県,,東牟婁郡,太地町,,30422" xlink:title="和歌山県" d="M13592.7863,-3360.9276L13592.7861,-3360.9274L13592.7857,-3360.9308L13592.7859,-3360.9307L13592.7872,-3360.9304L13592.7888,-3360.9301L13592.7903,-3360.9298L13592.7906,-3360.9297L13592.7906,-3360.9296L13592.7906,-3360.9295L13592.7901,-3360.9293L13592.7878,-3360.9285L13592.787,-3360.9282L13592.7865,-3360.9279L13592.7863,-3360.9276Z"/>
<path content="和歌山県,,東牟婁郡,太地町,,30422" xlink:title="和歌山県" d="M13592.7973,-3360.9219L13592.7969,-3360.9218L13592.7964,-3360.9219L13592.7959,-3360.922L13592.7954,-3360.9223L13592.7952,-3360.9225L13592.795,-3360.9228L13592.795,-3360.923L13592.795,-3360.9233L13592.7951,-3360.9235L13592.7955,-3360.9238L13592.7957,-3360.924L13592.7962,-3360.9243L13592.7966,-3360.9244L13592.797,-3360.9244L13592.7974,-3360.9244L13592.7977,-3360.9243L13592.7979,-3360.9241L13592.7982,-3360.9239L13592.7983,-3360.9237L13592.7984,-3360.9235L13592.7985,-3360.9233L13592.7984,-3360.923L13592.7983,-3360.9226L13592.7981,-3360.9224L13592.7978,-3360.9221L13592.7976,-3360.922L13592.7973,-3360.9219Z"/>
</g>
</svg>
