<?xml version="1.0" encoding="UTF-8"?>
<svg  xmlns="http://www.w3.org/2000/svg" xmlns:xlink="http://www.w3.org/1999/xlink" xmlns:go="http://purl.org/svgmap/profile" property="geometry,N03_001,N03_002,N03_003,N03_004,N03_005,N03_007" viewBox="13595.03173828125 -3360.7177734375 0.54931640625 0.54931640625" go:dataArea="13595.03173828125 -3360.7177734375 0.54931640625 0.54931640625" >
<metadata>
 <rdf:RDF xmlns:rdf="http://www.w3.org/1999/02/22-rdf-syntax-ns#" xmlns:crs="http://opengis.org/xmldtds/transformations.dtd" xmlns:svg="http://www.w3.org/svg" >
  <rdf:Description>
   <crs:CoordinateReferenceSystem rdf:resource="http://purl.org/crs/84" svg:transform="matrix(100.0,0.0,0.0,-100.0,0.0,0.0)" />
  </rdf:Description>
 </rdf:RDF>
</metadata>
<globalCoordinateSystem srsName="http://purl.org/crs/84" transform="matrix(100.0,0.0,0.0,-100.0,0.0,0.0)" />
<defs>
 <g id="p0" >
  <circle cx="0.0" cy="0.0" r="3" stroke="green" stroke-width="2.0" vector-effect="non-scaling-stroke" />
 </g>
</defs>
<g fill="#0000ff" fill-rule="evenodd" opacity="0.5" >
<path content="和歌山県,,東牟婁郡,太地町,,30422" xlink:title="和歌山県" d="M13595.1283,-3360.1877L13595.1287,-3360.1868L13595.1288,-3360.1862L13595.1297,-3360.1859L13595.1304,-3360.1852L13595.1309,-3360.1841L13595.1311,-3360.1834L13595.1313,-3360.1828L13595.1314,-3360.182L13595.1309,-3360.1814L13595.131,-3360.1807L13595.131,-3360.1796L13595.1307,-3360.1791L13595.1303,-3360.1784L13595.1306,-3360.1779L13595.1312,-3360.1771L13595.1313,-3360.1767L13595.1325,-3360.1768L13595.1326,-3360.1771L13595.133,-3360.1784L13595.1335,-3360.1792L13595.1342,-3360.1795L13595.1349,-3360.1796L13595.1357,-3360.1793L13595.1361,-3360.1784L13595.1359,-3360.1776L13595.1357,-3360.1767L13595.1358,-3360.1764L13595.1363,-3360.1761L13595.1365,-3360.1756L13595.1363,-3360.1746L13595.1365,-3360.1744L13595.137,-3360.1739L13595.1377,-3360.1731L13595.1384,-3360.1727L13595.1393,-3360.1721L13595.1399,-3360.1709L13595.1401,-3360.1702L13595.1408,-3360.1691L13595.1411,-3360.1685L13595.1096,-3360.1685L13595.11,-3360.169L13595.1102,-3360.1693L13595.1099,-3360.1699L13595.1099,-3360.1708L13595.1101,-3360.1717L13595.1099,-3360.1725L13595.1101,-3360.1733L13595.1104,-3360.174L13595.1109,-3360.1744L13595.1107,-3360.1749L13595.1105,-3360.1759L13595.1107,-3360.1764L13595.1111,-3360.1769L13595.1113,-3360.1772L13595.1115,-3360.1785L13595.1118,-3360.1791L13595.1118,-3360.1796L13595.1114,-3360.1804L13595.1112,-3360.1814L13595.1114,-3360.1823L13595.1118,-3360.183L13595.1126,-3360.1836L13595.1131,-3360.1839L13595.1143,-3360.1841L13595.1146,-3360.1846L13595.1154,-3360.1851L13595.1161,-3360.1852L13595.1171,-3360.1852L13595.1178,-3360.1852L13595.1182,-3360.1858L13595.1186,-3360.1863L13595.1197,-3360.1867L13595.1203,-3360.1866L13595.1207,-3360.1866L13595.1212,-3360.187L13595.1219,-3360.1873L13595.1233,-3360.1877L13595.1236,-3360.1875L13595.1241,-3360.1879L13595.1247,-3360.1883L13595.1253,-3360.1885L13595.1261,-3360.1885L13595.1265,-3360.1883L13595.1269,-3360.1882L13595.1276,-3360.1881L13595.1283,-3360.1877Z"/>
<path content="和歌山県,,東牟婁郡,太地町,,30422" xlink:title="和歌山県" d="M13595.1944,-3360.2433L13595.1944,-3360.2427L13595.1944,-3360.2421L13595.1941,-3360.2418L13595.1942,-3360.2415L13595.1948,-3360.2409L13595.195,-3360.2402L13595.1951,-3360.2395L13595.1948,-3360.2386L13595.1944,-3360.238L13595.194,-3360.2378L13595.1935,-3360.2377L13595.1924,-3360.2377L13595.1924,-3360.2372L13595.192,-3360.2363L13595.1917,-3360.236L13595.1916,-3360.2353L13595.1915,-3360.2344L13595.1912,-3360.2338L13595.1909,-3360.2333L13595.1903,-3360.2328L13595.1899,-3360.2327L13595.1892,-3360.2324L13595.1886,-3360.2324L13595.1882,-3360.2326L13595.1876,-3360.2331L13595.1874,-3360.2339L13595.1874,-3360.2342L13595.1867,-3360.2351L13595.1865,-3360.2358L13595.1862,-3360.2361L13595.1861,-3360.2367L13595.1861,-3360.2375L13595.1861,-3360.2381L13595.1859,-3360.2383L13595.1855,-3360.239L13595.1853,-3360.2397L13595.1852,-3360.2406L13595.1847,-3360.2417L13595.1841,-3360.2423L13595.1832,-3360.2428L13595.1826,-3360.2427L13595.1818,-3360.2423L13595.1811,-3360.2418L13595.1801,-3360.2416L13595.1786,-3360.2418L13595.178,-3360.2422L13595.1776,-3360.2431L13595.1767,-3360.2438L13595.1761,-3360.2448L13595.1757,-3360.2454L13595.1753,-3360.246L13595.1748,-3360.2464L13595.1743,-3360.2468L13595.1741,-3360.2475L13595.1742,-3360.2482L13595.1747,-3360.2488L13595.176,-3360.2501L13595.1767,-3360.2507L13595.1781,-3360.2512L13595.1795,-3360.2515L13595.1801,-3360.2516L13595.1803,-3360.2521L13595.1807,-3360.2528L13595.181,-3360.2532L13595.1809,-3360.254L13595.181,-3360.2547L13595.1813,-3360.255L13595.1819,-3360.2554L13595.1821,-3360.2555L13595.1822,-3360.257L13595.1827,-3360.258L13595.1836,-3360.2586L13595.1844,-3360.2592L13595.1852,-3360.2594L13595.1856,-3360.2594L13595.1859,-3360.2601L13595.1866,-3360.2606L13595.1872,-3360.2608L13595.1875,-3360.2608L13595.1879,-3360.2613L13595.1887,-3360.2615L13595.1898,-3360.2616L13595.1908,-3360.2615L13595.1917,-3360.2611L13595.1921,-3360.2604L13595.192,-3360.2598L13595.192,-3360.2594L13595.1925,-3360.2589L13595.1933,-3360.258L13595.1933,-3360.2578L13595.1933,-3360.2571L13595.1933,-3360.2567L13595.194,-3360.256L13595.1945,-3360.2554L13595.1949,-3360.2543L13595.1946,-3360.2529L13595.1947,-3360.2523L13595.1944,-3360.252L13595.1941,-3360.2513L13595.1941,-3360.2504L13595.1941,-3360.2498L13595.1936,-3360.2488L13595.1934,-3360.248L13595.1934,-3360.2474L13595.1934,-3360.2471L13595.1932,-3360.2463L13595.1929,-3360.2459L13595.1927,-3360.2455L13595.193,-3360.245L13595.1937,-3360.2444L13595.1938,-3360.2439L13595.1938,-3360.2436L13595.1944,-3360.2433Z"/>
<path content="和歌山県,,東牟婁郡,太地町,,30422" xlink:title="和歌山県" d="M13595.0436,-3360.2531L13595.0372,-3360.2499L13595.0317,-3360.2505L13595.0317,-3360.2645L13595.0331,-3360.2653L13595.0392,-3360.2653L13595.0444,-3360.2607L13595.045,-3360.2576L13595.0436,-3360.2531Z"/>
<path content="和歌山県,,東牟婁郡,太地町,,30422" xlink:title="和歌山県" d="M13595.348,-3360.3188L13595.3483,-3360.3185L13595.3495,-3360.3187L13595.3505,-3360.3186L13595.3513,-3360.3184L13595.3518,-3360.3183L13595.3528,-3360.3183L13595.3535,-3360.3183L13595.3542,-3360.318L13595.3546,-3360.3177L13595.3549,-3360.3173L13595.3553,-3360.3167L13595.3552,-3360.3158L13595.355,-3360.3155L13595.3552,-3360.3153L13595.3558,-3360.3148L13595.3559,-3360.3143L13595.3559,-3360.3138L13595.3557,-3360.3134L13595.3563,-3360.3131L13595.3569,-3360.3127L13595.3572,-3360.3121L13595.3572,-3360.3114L13595.3569,-3360.3109L13595.3564,-3360.3104L13595.3558,-3360.3103L13595.3551,-3360.3104L13595.3544,-3360.3104L13595.3536,-3360.3102L13595.3529,-3360.31L13595.3519,-3360.31L13595.3513,-3360.3102L13595.3509,-3360.3105L13595.3501,-3360.3106L13595.349,-3360.3106L13595.348,-3360.311L13595.3474,-3360.3112L13595.3473,-3360.3111L13595.3469,-3360.3106L13595.3451,-3360.3095L13595.3438,-3360.3091L13595.3432,-3360.309L13595.3426,-3360.3089L13595.3416,-3360.3094L13595.3408,-3360.31L13595.3403,-3360.3109L13595.3397,-3360.3111L13595.3393,-3360.3114L13595.3377,-3360.3113L13595.3372,-3360.3111L13595.337,-3360.3106L13595.3368,-3360.3101L13595.336,-3360.309L13595.3349,-3360.308L13595.3337,-3360.3078L13595.3326,-3360.3082L13595.3324,-3360.3086L13595.3323,-3360.3089L13595.3322,-3360.3091L13595.3318,-3360.3095L13595.3316,-3360.3102L13595.3316,-3360.3108L13595.3319,-3360.3113L13595.3323,-3360.3116L13595.3326,-3360.3118L13595.3326,-3360.3121L13595.3329,-3360.3127L13595.3335,-3360.3131L13595.3341,-3360.3132L13595.3347,-3360.3134L13595.3351,-3360.3141L13595.3354,-3360.3144L13595.3359,-3360.3146L13595.3369,-3360.3147L13595.3373,-3360.3148L13595.3381,-3360.3157L13595.3387,-3360.3157L13595.3395,-3360.3158L13595.3401,-3360.316L13595.3413,-3360.3159L13595.3417,-3360.316L13595.3419,-3360.3166L13595.3424,-3360.3174L13595.343,-3360.3176L13595.3437,-3360.3177L13595.3446,-3360.3185L13595.3456,-3360.3193L13595.3462,-3360.3194L13595.3469,-3360.3194L13595.3476,-3360.3191L13595.348,-3360.3188Z"/>
<path content="和歌山県,,東牟婁郡,太地町,,30422" xlink:title="和歌山県" d="M13595.2407,-3360.2703L13595.2413,-3360.27L13595.2446,-3360.27L13595.2456,-3360.2698L13595.2462,-3360.2696L13595.2467,-3360.2696L13595.2475,-3360.2696L13595.2482,-3360.2692L13595.2486,-3360.2687L13595.2486,-3360.2683L13595.2484,-3360.2681L13595.2478,-3360.2677L13595.2467,-3360.2675L13595.2463,-3360.2675L13595.2461,-3360.2672L13595.2458,-3360.2671L13595.2454,-3360.2667L13595.2448,-3360.2667L13595.2442,-3360.2666L13595.2433,-3360.2658L13595.2421,-3360.2651L13595.2412,-3360.2648L13595.2405,-3360.2647L13595.24,-3360.2648L13595.2394,-3360.2652L13595.2386,-3360.266L13595.2382,-3360.2661L13595.2376,-3360.2666L13595.2371,-3360.2672L13595.2369,-3360.2677L13595.2366,-3360.2683L13595.2363,-3360.269L13595.2362,-3360.2698L13595.2358,-3360.2703L13595.2356,-3360.2706L13595.2355,-3360.271L13595.2357,-3360.2721L13595.2357,-3360.2728L13595.2363,-3360.2732L13595.2371,-3360.2739L13595.2378,-3360.2743L13595.2388,-3360.2743L13595.2398,-3360.2743L13595.2406,-3360.274L13595.2409,-3360.2736L13595.2409,-3360.273L13595.2408,-3360.2726L13595.2405,-3360.2722L13595.2406,-3360.2717L13595.2408,-3360.2712L13595.2407,-3360.2703Z"/>
<path content="和歌山県,,東牟婁郡,太地町,,30422" xlink:title="和歌山県" d="M13595.0817,-3360.3848L13595.0817,-3360.3841L13595.0815,-3360.3833L13595.0805,-3360.3826L13595.0804,-3360.3821L13595.0792,-3360.3811L13595.0782,-3360.3806L13595.0771,-3360.3807L13595.0765,-3360.3805L13595.0761,-3360.38L13595.0756,-3360.3796L13595.0748,-3360.3792L13595.074,-3360.3791L13595.0725,-3360.3788L13595.071,-3360.3788L13595.0705,-3360.3783L13595.0697,-3360.3778L13595.069,-3360.3778L13595.0683,-3360.3779L13595.068,-3360.3779L13595.0671,-3360.3782L13595.0668,-3360.3787L13595.0669,-3360.3792L13595.0675,-3360.3798L13595.0681,-3360.3801L13595.0689,-3360.3805L13595.0692,-3360.381L13595.0696,-3360.3817L13595.0704,-3360.3821L13595.0707,-3360.3824L13595.0707,-3360.383L13595.0708,-3360.3832L13595.0711,-3360.3837L13595.0722,-3360.3845L13595.0731,-3360.3848L13595.0755,-3360.3848L13595.0768,-3360.3846L13595.0774,-3360.3842L13595.0783,-3360.3846L13595.0793,-3360.385L13595.0801,-3360.3853L13595.0812,-3360.3851L13595.0817,-3360.3848Z"/>
<path content="和歌山県,,東牟婁郡,太地町,,30422" xlink:title="和歌山県" d="M13595.1978,-3360.2656L13595.1981,-3360.2654L13595.1987,-3360.2654L13595.1996,-3360.2651L13595.2,-3360.2646L13595.1999,-3360.2641L13595.1998,-3360.2637L13595.1998,-3360.2633L13595.2,-3360.2625L13595.2001,-3360.2621L13595.2001,-3360.2616L13595.1997,-3360.2613L13595.1995,-3360.261L13595.1996,-3360.2606L13595.1997,-3360.2603L13595.1997,-3360.2597L13595.1997,-3360.2592L13595.1993,-3360.2586L13595.1991,-3360.2583L13595.199,-3360.2577L13595.1986,-3360.2575L13595.1983,-3360.2574L13595.198,-3360.2574L13595.1974,-3360.2575L13595.1972,-3360.2578L13595.1972,-3360.2584L13595.1971,-3360.2591L13595.1969,-3360.2594L13595.1966,-3360.2598L13595.1964,-3360.2604L13595.1964,-3360.2609L13595.1963,-3360.2614L13595.1963,-3360.2616L13595.1959,-3360.2618L13595.1954,-3360.2623L13595.195,-3360.2626L13595.1946,-3360.2626L13595.1939,-3360.2624L13595.1931,-3360.2624L13595.1923,-3360.2625L13595.1919,-3360.2627L13595.1916,-3360.263L13595.1911,-3360.2636L13595.191,-3360.2642L13595.1911,-3360.2648L13595.1917,-3360.2653L13595.1923,-3360.2657L13595.1927,-3360.2663L13595.1929,-3360.2666L13595.1935,-3360.2669L13595.1941,-3360.2673L13595.1942,-3360.2677L13595.1951,-3360.2684L13595.1957,-3360.2685L13595.1967,-3360.2683L13595.1974,-3360.268L13595.1976,-3360.2673L13595.1976,-3360.2671L13595.1974,-3360.2667L13595.1973,-3360.2664L13595.1976,-3360.2661L13595.1978,-3360.2659L13595.1978,-3360.2656Z"/>
<path content="和歌山県,,東牟婁郡,太地町,,30422" xlink:title="和歌山県" d="M13595.2052,-3360.2295L13595.2045,-3360.229L13595.204,-3360.2284L13595.2034,-3360.2284L13595.2028,-3360.2285L13595.2021,-3360.2289L13595.2018,-3360.2292L13595.2006,-3360.2289L13595.2,-3360.229L13595.199,-3360.2293L13595.1984,-3360.2293L13595.198,-3360.229L13595.1966,-3360.2289L13595.1951,-3360.229L13595.1947,-3360.2292L13595.1945,-3360.2296L13595.1945,-3360.23L13595.1951,-3360.2308L13595.1956,-3360.231L13595.1958,-3360.2312L13595.1961,-3360.2318L13595.1966,-3360.2321L13595.1974,-3360.2322L13595.1981,-3360.2322L13595.1987,-3360.2326L13595.1993,-3360.2328L13595.2005,-3360.233L13595.2009,-3360.2331L13595.2021,-3360.2338L13595.2029,-3360.2338L13595.2038,-3360.2339L13595.2045,-3360.234L13595.2053,-3360.2341L13595.2066,-3360.234L13595.2071,-3360.234L13595.2076,-3360.2337L13595.2079,-3360.2335L13595.2087,-3360.2332L13595.2091,-3360.2328L13595.2089,-3360.232L13595.2086,-3360.2317L13595.2082,-3360.2314L13595.2076,-3360.231L13595.207,-3360.2309L13595.2059,-3360.2309L13595.2057,-3360.2305L13595.2057,-3360.2299L13595.2052,-3360.2295Z"/>
<path content="和歌山県,,東牟婁郡,太地町,,30422" xlink:title="和歌山県" d="M13595.2069,-3360.2509L13595.2068,-3360.2507L13595.2067,-3360.2505L13595.2068,-3360.2498L13595.2068,-3360.249L13595.207,-3360.2486L13595.2072,-3360.2482L13595.2072,-3360.2475L13595.207,-3360.247L13595.2066,-3360.2466L13595.2058,-3360.2463L13595.2053,-3360.2465L13595.2049,-3360.2469L13595.2047,-3360.2474L13595.2046,-3360.248L13595.2039,-3360.2482L13595.2036,-3360.2487L13595.2033,-3360.2493L13595.203,-3360.2496L13595.2028,-3360.25L13595.2028,-3360.2505L13595.2026,-3360.2509L13595.2022,-3360.2509L13595.2018,-3360.2514L13595.202,-3360.2521L13595.2024,-3360.2525L13595.2028,-3360.2528L13595.2034,-3360.2532L13595.204,-3360.2532L13595.2043,-3360.2533L13595.2048,-3360.2535L13595.2055,-3360.2537L13595.2062,-3360.2536L13595.2069,-3360.2535L13595.2071,-3360.2532L13595.2073,-3360.2528L13595.2074,-3360.2524L13595.2074,-3360.2517L13595.2072,-3360.2514L13595.207,-3360.2513L13595.2069,-3360.2509Z"/>
</g>
</svg>
