<?xml version="1.0" encoding="UTF-8"?>
<svg  xmlns="http://www.w3.org/2000/svg" xmlns:xlink="http://www.w3.org/1999/xlink" xmlns:go="http://purl.org/svgmap/profile" property="geometry,N03_001,N03_002,N03_003,N03_004,N03_005,N03_007" viewBox="13517.578125 -3445.3125 8.7890625 8.7890625" go:dataArea="13517.578125 -3445.3125 8.7890625 8.7890625" >
<metadata>
 <rdf:RDF xmlns:rdf="http://www.w3.org/1999/02/22-rdf-syntax-ns#" xmlns:crs="http://opengis.org/xmldtds/transformations.dtd" xmlns:svg="http://www.w3.org/svg" >
  <rdf:Description>
   <crs:CoordinateReferenceSystem rdf:resource="http://purl.org/crs/84" svg:transform="matrix(100.0,0.0,0.0,-100.0,0.0,0.0)" />
  </rdf:Description>
 </rdf:RDF>
</metadata>
<globalCoordinateSystem srsName="http://purl.org/crs/84" transform="matrix(100.0,0.0,0.0,-100.0,0.0,0.0)" />
<defs>
 <g id="p0" >
  <circle cx="0.0" cy="0.0" r="3" stroke="green" stroke-width="2.0" vector-effect="non-scaling-stroke" />
 </g>
</defs>
<g fill="#0000ff" fill-rule="evenodd" opacity="0.5" >
<path content="大阪府,,,泉佐野市,,27213" xlink:title="大阪府" d="M13524.1667,-3443.9671L13523.992,-3443.8503L13523.5493,-3444.1667L13523.3333,-3444.321L13523.301,-3444.3441L13522.9494,-3444.5931L13522.9325,-3444.6049L13523.3333,-3444.8744L13523.5201,-3445L13523.5778,-3445.0388L13523.7936,-3445.2778L13523.8454,-3445.3125L13524.364,-3445.3125L13524.5459,-3445.1269L13525,-3445.1206L13525.4214,-3445.114L13525.2514,-3445L13525.0641,-3444.8744L13525.2415,-3444.6927L13525.1868,-3444.6542L13525.0146,-3444.5378L13525,-3444.5279L13524.9449,-3444.4907L13524.4638,-3444.1667L13524.2952,-3444.053L13524.1667,-3443.9671Z"/>
<path content="大阪府,,,泉佐野市,,27213" xlink:title="大阪府" d="M13525.6046,-3444.6245L13525.6121,-3444.6235L13525.6195,-3444.6223L13525.6269,-3444.621L13525.6342,-3444.6194L13525.6415,-3444.6177L13525.6487,-3444.6157L13525.6558,-3444.6136L13525.6629,-3444.6112L13525.6698,-3444.6087L13525.6766,-3444.606L13525.6834,-3444.6031L13525.69,-3444.6L13525.6964,-3444.5967L13525.7028,-3444.5933L13525.709,-3444.5897L13525.715,-3444.586L13525.7205,-3444.5825L13525.7287,-3444.5766L13525.7398,-3444.5676L13525.7536,-3444.5546L13525.7864,-3444.521L13525.7811,-3444.5169L13525.7764,-3444.5215L13525.7796,-3444.524L13525.7518,-3444.5529L13525.7378,-3444.5659L13525.7267,-3444.5746L13525.7191,-3444.5805L13525.7151,-3444.5827L13525.7092,-3444.5867L13525.7031,-3444.5902L13525.6969,-3444.5936L13525.6906,-3444.5969L13525.6842,-3444.6L13525.6776,-3444.6029L13525.6709,-3444.6056L13525.6642,-3444.6081L13525.6573,-3444.6105L13525.6503,-3444.6127L13525.6433,-3444.6147L13525.6362,-3444.6164L13525.629,-3444.618L13525.6218,-3444.6194L13525.6145,-3444.6207L13525.6071,-3444.6217L13525.5998,-3444.6225L13525.5924,-3444.6231L13525.5849,-3444.6235L13525.5775,-3444.6237L13525.5701,-3444.6238L13525.5626,-3444.6236L13525.5552,-3444.6232L13525.5478,-3444.6226L13525.5404,-3444.6218L13525.5331,-3444.6208L13525.5258,-3444.6197L13525.5186,-3444.6183L13525.5114,-3444.6167L13525.5042,-3444.615L13525.4972,-3444.613L13525.4902,-3444.6109L13525.4833,-3444.6085L13525.4765,-3444.606L13525.4699,-3444.6033L13525.4633,-3444.6004L13525.4568,-3444.5974L13525.4505,-3444.5942L13525.4443,-3444.5908L13525.4382,-3444.5872L13525.3963,-3444.5584L13525.2852,-3444.4844L13525.1832,-3444.4162L13525.1833,-3444.4147L13525.1853,-3444.4146L13525.2058,-3444.4281L13525.2748,-3444.4739L13525.2778,-3444.4715L13525.2087,-3444.4259L13525.2071,-3444.427L13525.1888,-3444.4143L13525.3122,-3444.4033L13525.3139,-3444.414L13525.3112,-3444.4143L13525.3143,-3444.4325L13525.321,-3444.4318L13525.318,-3444.4135L13525.3166,-3444.4137L13525.3148,-3444.4031L13525.3351,-3444.4013L13525.3366,-3444.4122L13525.3342,-3444.4124L13525.3382,-3444.4407L13525.3451,-3444.44L13525.3411,-3444.4119L13525.339,-3444.4121L13525.3375,-3444.4011L13525.4078,-3444.3949L13525.4094,-3444.4054L13525.4034,-3444.4059L13525.4098,-3444.4507L13525.4272,-3444.449L13525.4209,-3444.4044L13525.4151,-3444.4049L13525.4136,-3444.3944L13525.4842,-3444.3881L13525.4869,-3444.3998L13525.4763,-3444.4009L13525.482,-3444.4368L13525.509,-3444.4344L13525.5044,-3444.398L13525.4945,-3444.3989L13525.4927,-3444.3874L13525.6218,-3444.376L13525.6233,-3444.3919L13525.6452,-3444.39L13525.645,-3444.3866L13525.6614,-3444.3853L13525.6621,-3444.3885L13525.6688,-3444.3877L13525.6666,-3444.3723L13525.717,-3444.3681L13525.7389,-3444.3662L13525.8025,-3444.3608L13525.8333,-3444.3582L13525.942,-3444.349L13525.9416,-3444.3458L13525.9486,-3444.3451L13525.9503,-3444.3468L13525.9538,-3444.3462L13525.9594,-3444.3453L13525.9638,-3444.34L13525.9637,-3444.3388L13525.9682,-3444.3342L13525.97,-3444.3343L13525.9732,-3444.3311L13525.9729,-3444.3298L13525.9761,-3444.3263L13525.9782,-3444.3265L13525.9821,-3444.3222L13525.9818,-3444.3206L13525.9852,-3444.317L13525.9876,-3444.3166L13525.9907,-3444.3131L13525.9903,-3444.3115L13525.9937,-3444.3081L13525.996,-3444.3079L13525.9999,-3444.3038L13525.9993,-3444.3019L13526.0025,-3444.299L13526.0049,-3444.299L13526.0081,-3444.2955L13526.0077,-3444.2938L13526.0109,-3444.2904L13526.0132,-3444.2902L13526.0171,-3444.2858L13526.0165,-3444.2843L13526.0203,-3444.2806L13526.023,-3444.2806L13526.0257,-3444.2774L13526.0254,-3444.2754L13526.0289,-3444.2718L13526.0311,-3444.272L13526.0353,-3444.2677L13526.0348,-3444.266L13526.038,-3444.2629L13526.0402,-3444.2628L13526.0433,-3444.2591L13526.0429,-3444.2581L13526.0468,-3444.254L13526.0485,-3444.2542L13526.0532,-3444.2493L13526.0527,-3444.248L13526.056,-3444.2445L13526.0581,-3444.2445L13526.0613,-3444.241L13526.0609,-3444.2394L13526.0646,-3444.2356L13526.0666,-3444.2357L13526.0706,-3444.2315L13526.0701,-3444.2293L13526.0732,-3444.2261L13526.0756,-3444.2262L13526.0787,-3444.2227L13526.0787,-3444.221L13526.0824,-3444.2175L13526.0845,-3444.2176L13526.0885,-3444.213L13526.0882,-3444.2116L13526.091,-3444.2085L13526.0932,-3444.2083L13526.096,-3444.2049L13526.0956,-3444.2036L13526.0988,-3444.2001L13526.1008,-3444.2001L13526.106,-3444.1951L13526.1059,-3444.1935L13526.109,-3444.1901L13526.1112,-3444.1898L13526.1139,-3444.1869L13526.1136,-3444.1852L13526.1169,-3444.1818L13526.1192,-3444.1815L13526.1236,-3444.1778L13526.1231,-3444.1755L13526.1265,-3444.1722L13526.1289,-3444.1722L13526.132,-3444.1686L13526.1315,-3444.1669L13526.1317,-3444.1667L13526.1349,-3444.163L13526.1372,-3444.1631L13526.1408,-3444.1595L13526.1405,-3444.158L13526.1446,-3444.154L13526.1466,-3444.1538L13526.1496,-3444.1502L13526.1493,-3444.1489L13526.1524,-3444.1457L13526.155,-3444.1456L13526.1586,-3444.1414L13526.1583,-3444.1398L13526.1615,-3444.1364L13526.1632,-3444.1364L13526.1675,-3444.1317L13526.1673,-3444.1303L13526.17,-3444.1275L13526.1722,-3444.1276L13526.1763,-3444.1235L13526.1759,-3444.1217L13526.1791,-3444.1183L13526.1812,-3444.1181L13526.1843,-3444.1145L13526.184,-3444.113L13526.1872,-3444.1095L13526.1894,-3444.1096L13526.1936,-3444.1052L13526.1934,-3444.1035L13526.1967,-3444.1001L13526.1993,-3444.1002L13526.2022,-3444.0967L13526.2018,-3444.0949L13526.2048,-3444.0915L13526.2078,-3444.0914L13526.2123,-3444.0865L13526.2119,-3444.0849L13526.2146,-3444.0821L13526.2175,-3444.0818L13526.2205,-3444.0786L13526.2202,-3444.0771L13526.2233,-3444.0736L13526.2255,-3444.0733L13526.23,-3444.0685L13526.2299,-3444.067L13526.2335,-3444.0635L13526.2357,-3444.0634L13526.2384,-3444.0602L13526.2381,-3444.0585L13526.2411,-3444.0553L13526.2432,-3444.0554L13526.2466,-3444.0513L13526.2463,-3444.0498L13526.2496,-3444.0465L13526.252,-3444.0463L13526.2548,-3444.0429L13526.2547,-3444.0414L13526.2584,-3444.0376L13526.2606,-3444.0375L13526.2642,-3444.0335L13526.2638,-3444.0319L13526.2677,-3444.0284L13526.2698,-3444.0284L13526.2729,-3444.0252L13526.2727,-3444.0235L13526.276,-3444.0196L13526.2779,-3444.0197L13526.2818,-3444.0157L13526.2814,-3444.014L13526.2853,-3444.0104L13526.2878,-3444.0103L13526.2906,-3444.007L13526.2903,-3444.0051L13526.293,-3444.0024L13526.2951,-3444.0002L13526.297,-3444.0004L13526.2971,-3444.0002L13526.3,-3443.9972L13526.2999,-3443.9955L13526.304,-3443.9916L13526.3058,-3443.9913L13526.3088,-3443.9878L13526.3082,-3443.9866L13526.3119,-3443.983L13526.3144,-3443.9831L13526.3179,-3443.9795L13526.3177,-3443.9775L13526.321,-3443.9737L13526.3242,-3443.9736L13526.3264,-3443.9707L13526.3261,-3443.9686L13526.3294,-3443.9652L13526.3321,-3443.9652L13526.336,-3443.9605L13526.3358,-3443.9591L13526.3396,-3443.9556L13526.3412,-3443.9555L13526.3448,-3443.9514L13526.3447,-3443.9501L13526.348,-3443.9467L13526.3496,-3443.947L13526.3534,-3443.9427L13526.3531,-3443.9409L13526.3567,-3443.9373L13526.3595,-3443.9372L13526.3629,-3443.9337L13526.3622,-3443.9319L13526.365,-3443.9291L13526.3672,-3443.9291L13526.3672,-3443.7088L13526.3663,-3443.7097L13526.364,-3443.7096L13526.3593,-3443.7143L13526.3598,-3443.7163L13526.3564,-3443.7197L13526.354,-3443.7197L13526.3508,-3443.7227L13526.3513,-3443.725L13526.348,-3443.728L13526.346,-3443.7276L13526.3452,-3443.7279L13526.3447,-3443.7298L13526.3415,-3443.7306L13526.3398,-3443.7297L13526.3328,-3443.7312L13526.3321,-3443.7327L13526.3274,-3443.7336L13526.3238,-3443.7319L13526.3237,-3443.7298L13526.321,-3443.7281L13526.3185,-3443.7286L13526.3144,-3443.7257L13526.3141,-3443.723L13526.309,-3443.7199L13526.3061,-3443.7202L13526.3026,-3443.7179L13526.3026,-3443.7155L13526.2993,-3443.7132L13526.2962,-3443.7134L13526.2926,-3443.7106L13526.2926,-3443.7088L13526.2879,-3443.7059L13526.2852,-3443.7061L13526.2812,-3443.7033L13526.2811,-3443.7012L13526.2774,-3443.699L13526.2745,-3443.6992L13526.2705,-3443.6964L13526.2707,-3443.6942L13526.2656,-3443.6909L13526.2632,-3443.6913L13526.2592,-3443.6883L13526.2597,-3443.6865L13526.2564,-3443.6844L13526.2537,-3443.6847L13526.2493,-3443.6818L13526.2493,-3443.68L13526.2433,-3443.6761L13526.2412,-3443.6763L13526.2373,-3443.6736L13526.2375,-3443.6718L13526.234,-3443.6695L13526.2312,-3443.6697L13526.2275,-3443.6672L13526.2275,-3443.6651L13526.2225,-3443.6618L13526.2198,-3443.6621L13526.2159,-3443.6596L13526.2159,-3443.6575L13526.2117,-3443.655L13526.2092,-3443.6554L13526.2054,-3443.6526L13526.2054,-3443.6503L13526.1999,-3443.6468L13526.1972,-3443.6471L13526.1936,-3443.6446L13526.1938,-3443.6428L13526.1896,-3443.6402L13526.1867,-3443.6405L13526.1834,-3443.6382L13526.1834,-3443.6361L13526.1781,-3443.6327L13526.1759,-3443.6329L13526.1719,-3443.6301L13526.172,-3443.6282L13526.1679,-3443.6256L13526.1656,-3443.6258L13526.1621,-3443.6233L13526.1622,-3443.6215L13526.1567,-3443.6181L13526.1542,-3443.6181L13526.1506,-3443.6156L13526.1502,-3443.6138L13526.1464,-3443.6112L13526.1438,-3443.6112L13526.1407,-3443.6089L13526.1407,-3443.6073L13526.1343,-3443.6033L13526.1319,-3443.6033L13526.1281,-3443.6006L13526.1283,-3443.5988L13526.1246,-3443.5965L13526.1225,-3443.5967L13526.119,-3443.5941L13526.1192,-3443.5923L13526.1128,-3443.5884L13526.1096,-3443.5889L13526.1061,-3443.586L13526.1063,-3443.584L13526.103,-3443.5819L13526.0999,-3443.5822L13526.0964,-3443.5796L13526.0963,-3443.5772L13526.0911,-3443.574L13526.0885,-3443.5744L13526.0847,-3443.5716L13526.0849,-3443.5698L13526.0812,-3443.5675L13526.0785,-3443.5676L13526.0746,-3443.5649L13526.0746,-3443.5629L13526.0693,-3443.5597L13526.0669,-3443.5599L13526.0636,-3443.5575L13526.0636,-3443.5552L13526.0598,-3443.5526L13526.0566,-3443.5525L13526.0528,-3443.5499L13526.0525,-3443.5478L13526.0477,-3443.5446L13526.0448,-3443.5447L13526.0414,-3443.5423L13526.0413,-3443.5401L13526.0391,-3443.539L13526.0366,-3443.5392L13526.0333,-3443.537L13526.0332,-3443.5347L13526.0235,-3443.5286L13526.0219,-3443.5289L13526.0172,-3443.5266L13526.017,-3443.5251L13526.0117,-3443.5232L13526.0095,-3443.5239L13526.0053,-3443.522L13526.0052,-3443.5205L13525.9989,-3443.5179L13525.9967,-3443.5189L13525.9918,-3443.5167L13525.9919,-3443.5151L13525.9872,-3443.5132L13525.985,-3443.5139L13525.9806,-3443.5119L13525.9803,-3443.5101L13525.9747,-3443.5079L13525.9725,-3443.5085L13525.967,-3443.5062L13525.9666,-3443.5044L13525.9623,-3443.5028L13525.9598,-3443.5035L13525.955,-3443.5016L13525.9547,-3443.4997L13525.9485,-3443.4975L13525.9463,-3443.4978L13525.9417,-3443.4958L13525.9414,-3443.4939L13525.9378,-3443.4925L13525.935,-3443.4932L13525.9299,-3443.491L13525.9298,-3443.4893L13525.9235,-3443.4869L13525.9215,-3443.4878L13525.9162,-3443.4858L13525.9162,-3443.484L13525.9115,-3443.4823L13525.9094,-3443.483L13525.905,-3443.481L13525.9048,-3443.4792L13525.8985,-3443.4767L13525.8965,-3443.4774L13525.8913,-3443.4753L13525.8913,-3443.4735L13525.8869,-3443.4718L13525.8852,-3443.4725L13525.8797,-3443.4702L13525.8793,-3443.4682L13525.8746,-3443.4665L13525.8721,-3443.4672L13525.8666,-3443.4649L13525.8666,-3443.4629L13525.8618,-3443.4612L13525.8596,-3443.4621L13525.8543,-3443.4601L13525.8537,-3443.4577L13525.8486,-3443.4557L13525.8457,-3443.4566L13525.8414,-3443.4549L13525.8408,-3443.4523L13525.8363,-3443.4505L13525.8338,-3443.4514L13525.8333,-3443.4512L13525.8288,-3443.4494L13525.8286,-3443.4471L13525.8232,-3443.445L13525.8207,-3443.4461L13525.8164,-3443.4443L13525.8159,-3443.4419L13525.8115,-3443.4404L13525.8092,-3443.4411L13525.8047,-3443.4391L13525.8043,-3443.4369L13525.7987,-3443.435L13525.7964,-3443.436L13525.7912,-3443.4337L13525.7908,-3443.4316L13525.7861,-3443.4298L13525.7834,-3443.4308L13525.7793,-3443.4289L13525.7786,-3443.4266L13525.7737,-3443.4248L13525.7717,-3443.4256L13525.7668,-3443.4234L13525.7667,-3443.4216L13525.7609,-3443.4194L13525.7589,-3443.4203L13525.7547,-3443.4186L13525.754,-3443.4165L13525.7472,-3443.414L13525.7452,-3443.4148L13525.7407,-3443.4129L13525.7403,-3443.4107L13525.7353,-3443.409L13525.733,-3443.41L13525.7295,-3443.4084L13525.7289,-3443.4061L13525.7255,-3443.4049L13525.722,-3443.4037L13525.7202,-3443.4045L13525.7155,-3443.4025L13525.7153,-3443.4006L13525.7105,-3443.3989L13525.7083,-3443.3998L13525.7034,-3443.3979L13525.7022,-3443.395L13525.6966,-3443.393L13525.6937,-3443.3938L13525.6891,-3443.3919L13525.6887,-3443.3901L13525.6852,-3443.3884L13525.6828,-3443.3892L13525.6781,-3443.3873L13525.6772,-3443.385L13525.6701,-3443.3826L13525.6662,-3443.3841L13525.6637,-3443.3826L13525.6576,-3443.3796L13525.6518,-3443.3758L13525.5884,-3443.3333L13525.4517,-3443.2416L13525.4423,-3443.235L13525.3243,-3443.1562L13525.225,-3443.0898L13525.214,-3442.9953L13525.2043,-3442.9885L13525.2,-3442.9855L13525.1486,-3443.0219L13525.0344,-3443.1022L13525,-3443.1271L13524.9037,-3443.1968L13524.8155,-3443.2606L13524.7303,-3443.3222L13524.7218,-3443.3283L13524.7148,-3443.3333L13524.6953,-3443.3475L13524.5461,-3443.4552L13524.4313,-3443.5381L13524.4067,-3443.5559L13524.3751,-3443.5787L13524.3494,-3443.5973L13524.3137,-3443.623L13524.3021,-3443.6314L13524.2874,-3443.6417L13524.2704,-3443.6535L13524.2326,-3443.6798L13524.2189,-3443.6894L13524.1667,-3443.7257L13524.1604,-3443.73L13524.1627,-3443.7315L13524.1633,-3443.7319L13524.1667,-3443.7342L13524.2324,-3443.7783L13524.3293,-3443.8437L13524.4405,-3443.9182L13524.5164,-3443.9689L13524.6329,-3444.0476L13524.7245,-3444.1088L13524.8101,-3444.1667L13524.8178,-3444.1719L13524.8787,-3444.2126L13524.927,-3444.2451L13525,-3444.2945L13525.0272,-3444.3129L13525.1471,-3444.3927L13525.1759,-3444.4122L13525.1803,-3444.412L13525.1807,-3444.4149L13525.1793,-3444.4162L13525.2834,-3444.4863L13525.3936,-3444.5603L13525.4332,-3444.5872L13525.4393,-3444.5909L13525.4455,-3444.5945L13525.4519,-3444.5978L13525.4584,-3444.601L13525.4651,-3444.6041L13525.4718,-3444.6069L13525.4787,-3444.6096L13525.4857,-3444.612L13525.4927,-3444.6143L13525.4999,-3444.6164L13525.5071,-3444.6183L13525.5144,-3444.62L13525.5217,-3444.6215L13525.5292,-3444.6228L13525.5366,-3444.6238L13525.5441,-3444.6247L13525.5517,-3444.6254L13525.5592,-3444.6259L13525.5668,-3444.6262L13525.5744,-3444.6262L13525.5819,-3444.6261L13525.5895,-3444.6258L13525.5971,-3444.6252L13525.6046,-3444.6245Z"/>
<path content="大阪府,,,泉佐野市,,27213" xlink:title="大阪府" d="M13525.8904,-3444.4153L13525.9563,-3444.3476L13525.9538,-3444.3462L13525.8917,-3444.409L13525.8892,-3444.4078L13525.8855,-3444.4119L13525.8904,-3444.4153Z"/>
<path content="大阪府,,,泉南市,,27228" xlink:title="大阪府" d="M13526.3672,-3436.5234L13524.945,-3436.5234L13524.9397,-3436.5573L13524.9321,-3436.6129L13524.9279,-3436.6445L13524.9274,-3436.6667L13524.9256,-3436.7541L13524.9291,-3436.815L13524.9442,-3436.9127L13524.9513,-3436.954L13524.9566,-3436.9853L13524.9645,-3437.0311L13524.9659,-3437.037L13524.973,-3437.0689L13524.9941,-3437.1625L13525,-3437.1619L13525.1181,-3437.15L13525.1355,-3437.1534L13525.1558,-3437.1736L13525.1779,-3437.2322L13525.1906,-3437.2983L13525.0843,-3437.3074L13525.0786,-3437.3079L13525.0631,-3437.3092L13525.0289,-3437.3122L13525.0307,-3437.3729L13525.0324,-3437.43L13525.0423,-3437.429L13525.0654,-3437.4267L13525.0918,-3437.424L13525.0968,-3437.4234L13525.1613,-3437.4169L13525.2262,-3437.4068L13525.21,-3437.3328L13525.2998,-3437.3227L13525.3138,-3437.3555L13525.3341,-3437.4123L13525.359,-3437.4541L13525.2834,-3437.473L13525.2261,-3437.4802L13525.179,-3437.5L13525.1507,-3437.5119L13525.1029,-3437.5279L13525.0866,-3437.5333L13525.0539,-3437.5442L13525.0571,-3437.5852L13525.0596,-3437.6164L13525.0704,-3437.6963L13525.0705,-3437.6963L13525.0807,-3437.6964L13525.0826,-3437.6962L13525.0864,-3437.6955L13525.0887,-3437.6953L13525.1014,-3437.6945L13525.1051,-3437.6942L13525.1097,-3437.6935L13525.1121,-3437.6933L13525.1463,-3437.6931L13525.1484,-3437.6933L13525.1498,-3437.6936L13525.1511,-3437.6944L13525.158,-3437.7008L13525.1597,-3437.702L13525.1623,-3437.7031L13525.1654,-3437.7037L13525.1685,-3437.7041L13525.1723,-3437.7041L13525.1825,-3437.7113L13525.228,-3437.751L13525.2008,-3437.7714L13525.2004,-3437.809L13525.2083,-3437.8086L13525.2107,-3437.7744L13525.2344,-3437.7556L13525.2371,-3437.7529L13525.2405,-3437.7504L13525.2613,-3437.769L13525.2972,-3437.8007L13525.3204,-3437.8216L13525.3242,-3437.8251L13525.3769,-3437.8727L13525.5382,-3438.016L13525.6236,-3438.0908L13525.6529,-3438.1167L13525.7089,-3438.1674L13525.7386,-3438.1448L13525.7393,-3438.1442L13525.7674,-3438.1692L13525.7716,-3438.173L13525.7975,-3438.196L13525.8207,-3438.2165L13525.8333,-3438.2278L13525.8567,-3438.2488L13525.8772,-3438.2667L13525.8879,-3438.2761L13525.9142,-3438.2996L13525.9327,-3438.3161L13525.9641,-3438.3053L13525.9894,-3438.2967L13525.9876,-3438.2936L13525.9536,-3438.3047L13525.9504,-3438.3055L13525.937,-3438.3095L13525.8974,-3438.2745L13525.8751,-3438.254L13525.8333,-3438.2171L13525.7878,-3438.1769L13525.79,-3438.1753L13525.7958,-3438.1769L13525.7987,-3438.1704L13525.7829,-3438.1654L13525.7782,-3438.1635L13525.7717,-3438.1616L13525.7695,-3438.161L13525.7633,-3438.1553L13525.7588,-3438.1513L13525.7398,-3438.1343L13525.7338,-3438.1387L13525.6936,-3438.1032L13525.7646,-3438.0481L13525.7727,-3438.0554L13525.7741,-3438.0567L13525.7803,-3438.0623L13525.7985,-3438.0787L13525.8046,-3438.0846L13525.7722,-3438.1093L13525.7655,-3438.1144L13525.7707,-3438.1191L13525.7721,-3438.1182L13525.7942,-3438.1037L13525.7958,-3438.1051L13525.7996,-3438.1082L13525.8015,-3438.1101L13525.8137,-3438.1008L13525.8333,-3438.1177L13525.8497,-3438.1317L13525.8567,-3438.1378L13525.8339,-3438.1567L13525.8395,-3438.1607L13525.8403,-3438.1613L13525.8595,-3438.1466L13525.8686,-3438.1549L13525.8802,-3438.1651L13525.9046,-3438.1864L13525.9421,-3438.2195L13525.9392,-3438.2226L13525.9418,-3438.2247L13525.9531,-3438.2154L13525.9627,-3438.2238L13525.9656,-3438.2218L13525.9586,-3438.2154L13525.8929,-3438.157L13525.8879,-3438.1526L13525.8882,-3438.1474L13525.8907,-3438.1413L13525.8956,-3438.1354L13525.9077,-3438.1222L13525.914,-3438.1172L13525.9211,-3438.1136L13525.9458,-3438.105L13525.9694,-3438.0954L13525.9911,-3438.0886L13526.0139,-3438.0829L13526.0359,-3438.0751L13526.0437,-3438.0727L13526.0577,-3438.0702L13526.0691,-3438.0688L13526.0815,-3438.0652L13526.0942,-3438.0626L13526.1184,-3438.0582L13526.1292,-3438.0572L13526.1396,-3438.0557L13526.1541,-3438.0554L13526.1686,-3438.0537L13526.1852,-3438.0527L13526.2034,-3438.0505L13526.2295,-3438.0492L13526.2377,-3438.049L13526.2541,-3438.0513L13526.2655,-3438.0528L13526.2794,-3438.0545L13526.2909,-3438.0567L13526.2884,-3438.1556L13526.2907,-3438.1556L13526.2942,-3438.1556L13526.2966,-3438.0981L13526.3077,-3438.0954L13526.3132,-3438.0948L13526.3305,-3438.0953L13526.3412,-3438.0962L13526.3588,-3438.1002L13526.3672,-3438.103Z"/>
<path content="大阪府,,,泉南市,,27228" xlink:title="大阪府" d="M13523.2145,-3442.8657L13523.3333,-3442.7821L13523.4387,-3442.7079L13523.659,-3442.5529L13523.7146,-3442.5132L13523.7332,-3442.5L13523.7491,-3442.4887L13523.7769,-3442.4693L13523.8362,-3442.4277L13523.8596,-3442.4107L13523.9313,-3442.3608L13524.034,-3442.2895L13523.7601,-3442.1055L13523.5639,-3441.9744L13523.5796,-3441.9585L13523.5845,-3441.9535L13523.5711,-3441.9446L13523.5689,-3441.947L13523.5625,-3441.954L13523.5517,-3441.966L13523.5035,-3441.9335L13523.4249,-3441.88L13523.4106,-3441.8702L13523.3818,-3441.8513L13523.3778,-3441.8486L13523.3333,-3441.8022L13523.2033,-3441.6667L13523.1518,-3441.6129L13523.1341,-3441.5948L13523.1298,-3441.5902L13523.1273,-3441.588L13522.8548,-3441.4055L13522.7915,-3441.3631L13522.7687,-3441.3476L13522.6506,-3441.4674L13522.6005,-3441.5192L13522.5975,-3441.522L13522.5,-3441.6224L13522.4941,-3441.6284L13522.4568,-3441.6667L13522.3376,-3441.7887L13522.2657,-3441.8629L13522.2572,-3441.8713L13522.2415,-3441.8874L13522.1664,-3441.9645L13522.0593,-3442.0734L13522.0387,-3442.0943L13521.9123,-3442.2224L13522.3173,-3442.4941L13522.3262,-3442.5L13522.4953,-3442.6131L13522.5,-3442.6163L13522.5059,-3442.6203L13522.5023,-3442.6212L13522.523,-3442.6351L13522.7484,-3442.7849L13522.685,-3442.8482L13522.6945,-3442.8555L13522.7576,-3442.791L13523.0462,-3442.9829L13523.0798,-3442.9614L13523.2024,-3442.8743L13523.2145,-3442.8657Z"/>
<path content="大阪府,,,泉南市,,27228" xlink:title="大阪府" d="M13522.5,-3443.3648L13522.5449,-3443.3333L13522.8891,-3443.0926L13522.8655,-3443.0948L13522.6204,-3442.9305L13522.6847,-3442.8656L13522.675,-3442.8588L13522.6114,-3442.9245L13522.59,-3442.9101L13522.5,-3443.0024L13522.1776,-3443.3333L13522.1626,-3443.3487L13522.1395,-3443.3333L13521.6916,-3443.0354L13521.6667,-3443.0185L13520.8978,-3442.5L13520.8333,-3442.4565L13520.6171,-3442.3107L13520.8333,-3442.0893L13520.9079,-3442.0129L13520.9013,-3442.0082L13520.8333,-3442.0777L13520.6098,-3442.3065L13520.4199,-3442.5L13520.1165,-3442.8092L13520.4835,-3443.0541L13520.8101,-3443.181L13520.8333,-3443.1966L13521.0367,-3443.3333L13521.6667,-3443.7567L13521.8049,-3443.8496L13521.823,-3443.8375L13521.9736,-3443.7322L13522.1773,-3443.5904L13522.3466,-3443.4721L13522.5,-3443.3648Z"/>
<path content="大阪府,,,阪南市,,27232" xlink:title="大阪府" d="M13525.0704,-3437.6963L13525.0596,-3437.6164L13525.0571,-3437.5852L13525.0539,-3437.5442L13525.0866,-3437.5333L13525.1029,-3437.5279L13525.1507,-3437.5119L13525.179,-3437.5L13525.2261,-3437.4802L13525.2834,-3437.473L13525.359,-3437.4541L13525.3341,-3437.4123L13525.3138,-3437.3555L13525.2998,-3437.3227L13525.21,-3437.3328L13525.2262,-3437.4068L13525.1613,-3437.4169L13525.0968,-3437.4234L13525.0918,-3437.424L13525.0654,-3437.4267L13525.0423,-3437.429L13525.0324,-3437.43L13525.0307,-3437.3729L13525.0289,-3437.3122L13525.0631,-3437.3092L13525.0786,-3437.3079L13525.0843,-3437.3074L13525.1906,-3437.2983L13525.1779,-3437.2322L13525.1558,-3437.1736L13525.1355,-3437.1534L13525.1181,-3437.15L13525,-3437.1619L13524.9941,-3437.1625L13524.973,-3437.0689L13524.9659,-3437.037L13524.9645,-3437.0311L13524.9566,-3436.9853L13524.9513,-3436.954L13524.9442,-3436.9127L13524.9291,-3436.815L13524.9256,-3436.7541L13524.9274,-3436.6667L13524.9279,-3436.6445L13524.9321,-3436.6129L13524.9397,-3436.5573L13524.945,-3436.5234L13523.9385,-3436.5234L13523.9477,-3436.5317L13523.9554,-3436.5434L13523.9655,-3436.5617L13523.969,-3436.5681L13523.9703,-3436.572L13523.9709,-3436.5758L13523.9712,-3436.581L13523.9701,-3436.5864L13523.9195,-3436.6241L13523.9212,-3436.6258L13523.9186,-3436.6277L13523.9165,-3436.6258L13523.8965,-3436.6414L13523.9221,-3436.6667L13524.0075,-3436.751L13524.0212,-3436.817L13524.0253,-3436.8166L13524.0418,-3436.8925L13524.0532,-3436.9025L13524.0566,-3436.8999L13524.1023,-3436.9455L13524.1084,-3436.9411L13524.0512,-3436.8836L13524.0499,-3436.8773L13524.0508,-3436.8772L13524.0546,-3436.8767L13524.0404,-3436.811L13524.0394,-3436.8047L13524.0396,-3436.7991L13524.0408,-3436.7916L13524.0449,-3436.7848L13524.0426,-3436.7823L13524.0396,-3436.7802L13524.0323,-3436.7928L13524.0263,-3436.7646L13524.0299,-3436.7641L13524.0257,-3436.7401L13523.9491,-3436.6667L13523.923,-3436.6416L13523.981,-3436.5992L13524.0518,-3436.6667L13524.0523,-3436.6671L13524.0331,-3436.6812L13524.0352,-3436.6834L13524.0563,-3436.6678L13524.0925,-3436.702L13524.0786,-3436.7122L13524.0999,-3436.7324L13524.0942,-3436.7368L13524.0967,-3436.7388L13524.1013,-3436.7352L13524.107,-3436.7804L13524.1092,-3436.7801L13524.1037,-3436.7336L13524.1659,-3436.6877L13524.1667,-3436.6878L13524.1753,-3436.6889L13524.1973,-3436.705L13524.2268,-3436.6855L13524.2361,-3436.6667L13524.2496,-3436.6391L13524.3042,-3436.6667L13524.3086,-3436.6689L13524.2845,-3436.715L13524.2176,-3436.7585L13524.2068,-3436.7587L13524.1806,-3436.7399L13524.1781,-3436.7424L13524.1945,-3436.7543L13524.1667,-3436.777L13524.1576,-3436.7844L13524.1633,-3436.7903L13524.1051,-3436.8351L13524.1038,-3436.8339L13524.1011,-3436.8362L13524.1023,-3436.8482L13524.1101,-3436.8483L13524.1123,-3436.8459L13524.1132,-3436.8379L13524.1144,-3436.8379L13524.1407,-3436.8618L13524.1473,-3436.8568L13524.1225,-3436.8334L13524.1288,-3436.8285L13524.1312,-3436.8298L13524.1346,-3436.8269L13524.1312,-3436.8239L13524.1346,-3436.8214L13524.1649,-3436.798L13524.1659,-3436.7989L13524.1667,-3436.7992L13524.1684,-3436.8L13524.1727,-3436.8009L13524.1797,-3436.8019L13524.1888,-3436.8031L13524.1976,-3436.8047L13524.2061,-3436.8066L13524.1995,-3436.8116L13524.2007,-3436.8124L13524.2099,-3436.8054L13524.217,-3436.8082L13524.2229,-3436.8099L13524.2289,-3436.811L13524.2348,-3436.8123L13524.2389,-3436.8135L13524.2453,-3436.8159L13524.2676,-3436.8266L13524.2695,-3436.8284L13524.2671,-3436.8298L13524.2738,-3436.8375L13524.2772,-3436.8356L13524.2793,-3436.838L13524.2719,-3436.8425L13524.3115,-3436.8876L13524.3176,-3436.8841L13524.32,-3436.8869L13524.3184,-3436.8881L13524.3148,-3436.8907L13524.3281,-3436.9061L13524.3027,-3436.9208L13524.3041,-3436.9224L13524.3291,-3436.9077L13524.3399,-3436.9233L13524.3315,-3436.928L13524.3325,-3436.9294L13524.3407,-3436.9244L13524.35,-3436.9359L13524.3426,-3436.94L13524.4553,-3437.0763L13524.4704,-3437.0948L13524.477,-3437.0912L13524.4875,-3437.1025L13524.4938,-3437.0982L13524.537,-3437.1435L13524.5353,-3437.1548L13524.5351,-3437.1572L13524.5256,-3437.1798L13524.5244,-3437.1823L13524.5243,-3437.184L13524.5247,-3437.1854L13524.5261,-3437.1862L13524.5286,-3437.1867L13524.5418,-3437.1861L13524.5462,-3437.1862L13524.5507,-3437.1865L13524.583,-3437.1901L13524.6177,-3437.2326L13524.6159,-3437.2336L13524.6185,-3437.2368L13524.6223,-3437.24L13524.6558,-3437.2842L13524.6684,-3437.3019L13524.667,-3437.3035L13524.6658,-3437.3051L13524.665,-3437.307L13524.6647,-3437.3085L13524.6647,-3437.3099L13524.6649,-3437.3118L13524.6655,-3437.3143L13524.6659,-3437.3174L13524.6686,-3437.3164L13524.6706,-3437.3194L13524.6618,-3437.3235L13524.666,-3437.3255L13524.6712,-3437.3282L13524.6749,-3437.3305L13524.6804,-3437.3337L13524.6849,-3437.336L13524.6885,-3437.3371L13524.6912,-3437.3378L13524.7251,-3437.3913L13524.7271,-3437.3957L13524.7374,-3437.4183L13524.7363,-3437.4194L13524.736,-3437.4207L13524.7361,-3437.4226L13524.7373,-3437.4308L13524.738,-3437.4342L13524.7396,-3437.442L13524.7398,-3437.4452L13524.7395,-3437.4485L13524.739,-3437.4511L13524.7382,-3437.4538L13524.7371,-3437.456L13524.731,-3437.4657L13524.728,-3437.4701L13524.7248,-3437.4743L13524.7179,-3437.4835L13524.7162,-3437.4871L13524.7157,-3437.49L13524.7156,-3437.4914L13524.7159,-3437.493L13524.717,-3437.4942L13524.7184,-3437.4949L13524.7206,-3437.4955L13524.744,-3437.5L13524.7572,-3437.5025L13524.7619,-3437.5037L13524.7897,-3437.5117L13524.8279,-3437.5571L13524.8326,-3437.5609L13524.8493,-3437.5716L13524.8624,-3437.5789L13524.8741,-3437.5847L13524.8761,-3437.5882L13524.8774,-3437.5919L13524.8781,-3437.5952L13524.8786,-3437.5992L13524.8787,-3437.6028L13524.8787,-3437.6075L13524.8777,-3437.6136L13524.8763,-3437.6181L13524.8743,-3437.6233L13524.8699,-3437.6316L13524.8677,-3437.6362L13524.8668,-3437.64L13524.8668,-3437.6429L13524.8673,-3437.6453L13524.8684,-3437.6482L13524.8701,-3437.6507L13524.8719,-3437.6531L13524.8737,-3437.6548L13524.8761,-3437.6563L13524.8787,-3437.6573L13524.8815,-3437.6577L13524.8832,-3437.6999L13524.8871,-3437.6998L13524.8857,-3437.6533L13524.9338,-3437.6756L13524.9817,-3437.6978L13524.9834,-3437.6988L13524.9852,-3437.6999L13524.9878,-3437.7007L13524.9909,-3437.7014L13525,-3437.7021L13525.0243,-3437.7043L13525.0414,-3437.7049L13525.0439,-3437.7048L13525.0456,-3437.7045L13525.0672,-3437.6971L13525.069,-3437.6965L13525.0704,-3437.6963Z"/>
<path content="大阪府,,泉南郡,田尻町,,27362" xlink:title="大阪府" d="M13523.2032,-3443.264L13523.3057,-3443.1595L13523.3333,-3443.178L13523.4399,-3443.2494L13523.4417,-3443.248L13523.5317,-3443.3085L13523.5501,-3443.3207L13523.5695,-3443.3333L13523.5867,-3443.3446L13523.6374,-3443.3786L13523.6956,-3443.4179L13523.7571,-3443.4591L13523.8571,-3443.5267L13523.9,-3443.5552L13523.9858,-3443.6126L13524.0441,-3443.6519L13524.0965,-3443.6869L13524.1296,-3443.7091L13524.1604,-3443.73L13524.1667,-3443.7257L13524.2189,-3443.6894L13524.2326,-3443.6798L13524.2704,-3443.6535L13524.2874,-3443.6417L13524.3021,-3443.6314L13524.3137,-3443.623L13524.3494,-3443.5973L13524.3751,-3443.5787L13524.4067,-3443.5559L13524.4313,-3443.5381L13524.5461,-3443.4552L13524.6953,-3443.3475L13524.7148,-3443.3333L13524.7218,-3443.3283L13524.7303,-3443.3222L13524.8155,-3443.2606L13524.9037,-3443.1968L13525,-3443.1271L13525.0344,-3443.1022L13525.1486,-3443.0219L13525.2,-3442.9855L13525.1925,-3442.9802L13525.0792,-3442.9909L13525.0784,-3442.9902L13525.0792,-3442.9894L13525,-3442.9363L13524.7052,-3442.7385L13524.7042,-3442.7391L13524.5128,-3442.6109L13524.4324,-3442.5567L13524.4334,-3442.5559L13524.3499,-3442.5L13524.2449,-3442.4297L13524.2441,-3442.4306L13524.1667,-3442.3786L13524.1561,-3442.3715L13524.0377,-3442.292L13524.034,-3442.2895L13523.9313,-3442.3608L13523.8596,-3442.4107L13523.8362,-3442.4277L13523.7769,-3442.4693L13523.7491,-3442.4887L13523.7332,-3442.5L13523.7146,-3442.5132L13523.659,-3442.5529L13523.4387,-3442.7079L13523.3333,-3442.7821L13523.2145,-3442.8657L13523.2024,-3442.8743L13523.0798,-3442.9614L13523.0462,-3442.9829L13522.9425,-3443.088L13522.8891,-3443.0926L13522.5449,-3443.3333L13522.5,-3443.3648L13522.3466,-3443.4721L13522.1773,-3443.5904L13521.9736,-3443.7322L13521.823,-3443.8375L13521.8049,-3443.8496L13522.2782,-3444.1667L13522.5,-3444.3152L13522.9325,-3444.6049L13522.9494,-3444.5931L13523.301,-3444.3441L13523.3333,-3444.321L13523.5493,-3444.1667L13523.992,-3443.8503L13523.3333,-3443.4091L13523.2202,-3443.3333L13523.2116,-3443.3275L13523.2032,-3443.264Z"/>
</g>
</svg>
