<?xml version="1.0" encoding="UTF-8"?>
<svg  xmlns="http://www.w3.org/2000/svg" xmlns:xlink="http://www.w3.org/1999/xlink" xmlns:go="http://purl.org/svgmap/profile" property="geometry,N03_001,N03_002,N03_003,N03_004,N03_005,N03_007" viewBox="13517.578125 -3410.15625 17.578125 17.578125" go:dataArea="13517.578125 -3410.15625 17.578125 17.578125" >
<metadata>
 <rdf:RDF xmlns:rdf="http://www.w3.org/1999/02/22-rdf-syntax-ns#" xmlns:crs="http://opengis.org/xmldtds/transformations.dtd" xmlns:svg="http://www.w3.org/svg" >
  <rdf:Description>
   <crs:CoordinateReferenceSystem rdf:resource="http://purl.org/crs/84" svg:transform="matrix(100.0,0.0,0.0,-100.0,0.0,0.0)" />
  </rdf:Description>
 </rdf:RDF>
</metadata>
<globalCoordinateSystem srsName="http://purl.org/crs/84" transform="matrix(100.0,0.0,0.0,-100.0,0.0,0.0)" />
<defs>
 <g id="p0" >
  <circle cx="0.0" cy="0.0" r="3" stroke="green" stroke-width="2.0" vector-effect="non-scaling-stroke" />
 </g>
</defs>
<g fill="#0000ff" fill-rule="evenodd" opacity="0.5" >
<path content="和歌山県,,,海南市,,30202" xlink:title="和歌山県" d="M13520.6723,-3410.1562L13520.6626,-3410.1493L13520.6306,-3410.1266L13520.6068,-3410.1096L13520.604,-3410.1041L13520.6101,-3410.0915L13520.6133,-3410.0848L13520.6142,-3410.0763L13520.5888,-3410.0568L13520.5553,-3410.0328L13520.5339,-3410.0181L13520.5022,-3410.0104L13520.4619,-3410.0142L13520.417,-3410.0184L13520.3719,-3410.0227L13520.3234,-3410.0336L13520.2936,-3410.0336L13520.2881,-3410.0374L13520.2819,-3410.044L13520.2696,-3410.057L13520.2676,-3410.0591L13520.2601,-3410.0584L13520.2154,-3410.0467L13520.1782,-3410.0367L13520.1145,-3410.0288L13520.0791,-3410.0272L13520.0437,-3410.0203L13520,-3410.0117L13519.9767,-3410.0071L13519.9693,-3410.0032L13519.9676,-3410L13519.9516,-3409.9692L13519.9255,-3409.9452L13519.8787,-3409.9164L13519.8489,-3409.897L13519.8405,-3409.8908L13519.8312,-3409.8722L13519.8228,-3409.8653L13519.807,-3409.8544L13519.7912,-3409.8475L13519.7693,-3409.8453L13519.7521,-3409.8436L13519.7121,-3409.8521L13519.6878,-3409.8622L13519.6706,-3409.8725L13519.6543,-3409.8823L13519.6432,-3409.8844L13519.6254,-3409.8877L13519.5966,-3409.8862L13519.5743,-3409.8839L13519.5267,-3409.8691L13519.4855,-3409.8629L13519.4399,-3409.8606L13519.4147,-3409.8521L13519.397,-3409.8427L13519.3766,-3409.8242L13519.3654,-3409.8195L13519.3412,-3409.8203L13519.3026,-3409.8342L13519.2579,-3409.8513L13519.2374,-3409.8544L13519.2141,-3409.852L13519.1825,-3409.8482L13519.1667,-3409.8423L13519.1489,-3409.8358L13519.1368,-3409.8319L13519.1192,-3409.8288L13519.0949,-3409.8327L13519.054,-3409.8381L13519.04,-3409.8373L13519.0214,-3409.8319L13518.9578,-3409.8024L13518.8954,-3409.7791L13518.8656,-3409.7714L13518.8498,-3409.7722L13518.8293,-3409.7822L13518.7526,-3409.8063L13518.747,-3409.8164L13518.7367,-3409.8264L13518.7069,-3409.8373L13518.6762,-3409.8373L13518.6658,-3409.837L13518.6482,-3409.8365L13518.6221,-3409.8443L13518.6063,-3409.8559L13518.5987,-3409.8627L13518.5858,-3409.8745L13518.5709,-3409.8861L13518.5429,-3409.8946L13518.5047,-3409.9179L13518.4647,-3409.9535L13518.4311,-3409.9782L13518.384,-3409.9941L13518.3467,-3410L13518.3402,-3410.001L13518.3333,-3410.0024L13518.3095,-3410.0072L13518.2927,-3410.0173L13518.2722,-3410.025L13518.2368,-3410.0196L13518.2144,-3410.0196L13518.1995,-3410.0219L13518.1855,-3410.0274L13518.1697,-3410.0413L13518.1548,-3410.0862L13518.1268,-3410.1102L13518.1026,-3410.149L13518.0983,-3410.1562L13518.0982,-3410.1562L13518.0188,-3410.1563L13518.0119,-3410.1536L13517.9942,-3410.1458L13517.9691,-3410.1381L13517.9271,-3410.1303L13517.8833,-3410.1179L13517.8563,-3410.1047L13517.8451,-3410.0746L13517.8367,-3410.0552L13517.8256,-3410.0467L13517.818,-3410.0417L13517.8173,-3410.0413L13517.8125,-3410.0381L13517.7883,-3410.0281L13517.765,-3410.0195L13517.7147,-3410.0126L13517.6849,-3410L13517.6613,-3409.9901L13517.6352,-3409.9807L13517.6137,-3409.9761L13517.6035,-3409.9769L13517.5781,-3409.9841L13517.5781,-3410.1562Z"/>
<path content="和歌山県,,,有田市,,30204" xlink:title="和歌山県" d="M13517.5781,-3409.9841L13517.6035,-3409.9769L13517.6137,-3409.9761L13517.6352,-3409.9807L13517.6613,-3409.9901L13517.6849,-3410L13517.7147,-3410.0126L13517.765,-3410.0195L13517.7883,-3410.0281L13517.8125,-3410.0381L13517.8173,-3410.0413L13517.818,-3410.0417L13517.8256,-3410.0467L13517.8367,-3410.0552L13517.8451,-3410.0746L13517.8563,-3410.1047L13517.8833,-3410.1179L13517.9271,-3410.1303L13517.9691,-3410.1381L13517.9942,-3410.1458L13518.0119,-3410.1536L13518.0188,-3410.1563L13518.0982,-3410.1562L13518.0983,-3410.1562L13518.1026,-3410.149L13518.1268,-3410.1102L13518.1548,-3410.0862L13518.1697,-3410.0413L13518.1855,-3410.0274L13518.1995,-3410.0219L13518.2144,-3410.0196L13518.2368,-3410.0196L13518.2722,-3410.025L13518.2927,-3410.0173L13518.3095,-3410.0072L13518.3333,-3410.0024L13518.3402,-3410.001L13518.3467,-3410L13518.384,-3409.9941L13518.4311,-3409.9782L13518.4647,-3409.9535L13518.5047,-3409.9179L13518.5429,-3409.8946L13518.5709,-3409.8861L13518.5858,-3409.8745L13518.5987,-3409.8627L13518.6063,-3409.8559L13518.6221,-3409.8443L13518.6482,-3409.8365L13518.6658,-3409.837L13518.6762,-3409.8373L13518.7069,-3409.8373L13518.7367,-3409.8264L13518.747,-3409.8164L13518.7526,-3409.8063L13518.7388,-3409.7301L13518.7323,-3409.6658L13518.7332,-3409.6305L13518.7379,-3409.6041L13518.736,-3409.5352L13518.7304,-3409.5073L13518.7062,-3409.4725L13518.6885,-3409.4446L13518.6699,-3409.4299L13518.6699,-3409.4237L13518.6755,-3409.4175L13518.7081,-3409.395L13518.723,-3409.3702L13518.7379,-3409.3194L13518.7491,-3409.2931L13518.7752,-3409.2613L13518.7948,-3409.2342L13518.7976,-3409.1792L13518.7964,-3409.1667L13518.7926,-3409.1252L13518.7901,-3409.0982L13518.7855,-3409.0781L13518.7855,-3409.0603L13518.7911,-3409.0471L13518.7985,-3409.0417L13518.8554,-3409.0216L13518.8862,-3408.9967L13518.8871,-3408.996L13518.9021,-3408.9553L13518.9039,-3408.9329L13518.9002,-3408.915L13518.9062,-3408.9024L13518.9123,-3408.8895L13518.9151,-3408.8825L13518.9151,-3408.8747L13518.9049,-3408.8624L13518.8974,-3408.85L13518.8928,-3408.8329L13518.8974,-3408.8066L13518.9133,-3408.7601L13518.9151,-3408.7454L13518.9123,-3408.7346L13518.8848,-3408.6652L13518.8863,-3408.6545L13518.8872,-3408.648L13518.8891,-3408.6434L13518.8938,-3408.6319L13518.909,-3408.6071L13518.9103,-3408.5978L13518.9065,-3408.5789L13518.9061,-3408.5697L13518.9108,-3408.5536L13518.9407,-3408.4678L13518.9528,-3408.4451L13518.9607,-3408.4302L13518.9868,-3408.3968L13518.9983,-3408.3729L13519.0034,-3408.3459L13519.0087,-3408.3333L13519.0098,-3408.3306L13519.0397,-3408.299L13519.0416,-3408.2939L13519.041,-3408.2851L13519.0317,-3408.2631L13519.0192,-3408.2343L13519.017,-3408.2263L13519.0176,-3408.2164L13519.0192,-3408.2132L13519.0244,-3408.2093L13519.0805,-3408.1792L13519.0909,-3408.171L13519.099,-3408.1634L13519.1068,-3408.1513L13519.1319,-3408.1107L13519.1437,-3408.0858L13519.1532,-3408.0657L13519.1667,-3408.0111L13519.167,-3408.0097L13519.1856,-3407.9758L13519.1907,-3407.9652L13519.1934,-3407.9509L13519.1934,-3407.934L13519.188,-3407.9136L13519.1846,-3407.8993L13519.1843,-3407.8931L13519.1944,-3407.8566L13519.2049,-3407.8329L13519.2106,-3407.8259L13519.2193,-3407.8153L13519.2491,-3407.7839L13519.2706,-3407.7565L13519.3007,-3407.7195L13519.2845,-3407.677L13519.2624,-3407.6306L13519.2451,-3407.5786L13519.2272,-3407.5366L13519.2223,-3407.5172L13519.2191,-3407.5L13519.2128,-3407.466L13519.2045,-3407.4225L13519.203,-3407.3912L13519.1983,-3407.3407L13519.198,-3407.3115L13519.2027,-3407.2745L13519.2346,-3407.2701L13519.2101,-3407.2335L13519.1667,-3407.1626L13519.1595,-3407.1509L13519.1457,-3407.1241L13519.1667,-3407.1149L13519.1683,-3407.1142L13519.1667,-3407.1075L13519.1538,-3407.0532L13519.1441,-3407.0105L13519.1417,-3407.0001L13519.1393,-3406.9892L13519.1335,-3406.9638L13519.1299,-3406.9476L13519.1147,-3406.8788L13519.1009,-3406.8102L13519.0781,-3406.7082L13519.0721,-3406.6817L13519.0713,-3406.6783L13519.0704,-3406.6744L13519.0691,-3406.669L13519.0684,-3406.6667L13519.0631,-3406.648L13519.0568,-3406.6263L13519.0526,-3406.6115L13519.0482,-3406.6069L13519.0441,-3406.6044L13519.0343,-3406.601L13519.0071,-3406.5931L13518.9807,-3406.5793L13518.9597,-3406.5739L13518.9392,-3406.57L13518.8874,-3406.5651L13518.873,-3406.563L13518.8397,-3406.5504L13518.8003,-3406.5286L13518.7768,-3406.513L13518.7739,-3406.5087L13518.7721,-3406.5027L13518.7772,-3406.4715L13518.777,-3406.4684L13518.7768,-3406.4657L13518.7746,-3406.4564L13518.7627,-3406.4338L13518.7413,-3406.4003L13518.7363,-3406.388L13518.7327,-3406.3701L13518.733,-3406.3626L13518.7348,-3406.3512L13518.7609,-3406.3181L13518.7663,-3406.3084L13518.7677,-3406.3009L13518.7663,-3406.2823L13518.7597,-3406.2605L13518.755,-3406.228L13518.7503,-3406.2118L13518.742,-3406.2027L13518.7214,-3406.1886L13518.7065,-3406.179L13518.6927,-3406.1736L13518.6618,-3406.1642L13518.643,-3406.1544L13518.6348,-3406.1527L13518.6253,-3406.1527L13518.5938,-3406.1601L13518.5313,-3406.1796L13518.5198,-3406.1831L13518.5136,-3406.1828L13518.4801,-3406.1752L13518.4534,-3406.1667L13518.4426,-3406.1659L13518.432,-3406.1669L13518.4155,-3406.1724L13518.4014,-3406.1757L13518.3841,-3406.1767L13518.3674,-3406.1776L13518.347,-3406.1761L13518.3333,-3406.1737L13518.3281,-3406.1728L13518.3171,-3406.1687L13518.3051,-3406.1606L13518.2949,-3406.1458L13518.2839,-3406.105L13518.2786,-3406.0918L13518.2645,-3406.0771L13518.2318,-3406.0521L13518.2101,-3406.0354L13518.2017,-3406.0277L13518.1916,-3406.0178L13518.1783,-3406.0009L13518.173,-3405.9895L13518.1668,-3405.971L13518.1629,-3405.9464L13518.1655,-3405.8728L13518.1642,-3405.8647L13518.158,-3405.8412L13518.1556,-3405.8333L13518.1487,-3405.8111L13518.1466,-3405.8071L13518.1382,-3405.7913L13518.1244,-3405.7729L13518.1114,-3405.7626L13518.0971,-3405.7489L13518.0879,-3405.7387L13518.0766,-3405.7196L13518.0638,-3405.7089L13518.0457,-3405.6968L13517.9941,-3405.6704L13517.9721,-3405.6624L13517.9515,-3405.6568L13517.8942,-3405.6394L13517.8722,-3405.6321L13517.8554,-3405.63L13517.7693,-3405.6283L13517.7412,-3405.624L13517.7029,-3405.6249L13517.686,-3405.6219L13517.6583,-3405.6125L13517.6424,-3405.6078L13517.6255,-3405.6036L13517.6148,-3405.6031L13517.6041,-3405.6044L13517.5816,-3405.6151L13517.5781,-3405.6159Z"/>
<path content="和歌山県,,,御坊市,,30205" xlink:title="和歌山県" d="M13517.5989,-3395L13517.6018,-3394.9831L13517.6025,-3394.9803L13517.6109,-3394.9444L13517.6262,-3394.8969L13517.6292,-3394.8849L13517.6239,-3394.8636L13517.6262,-3394.8497L13517.6437,-3394.7851L13517.665,-3394.7477L13517.6755,-3394.7371L13517.6855,-3394.7269L13517.6893,-3394.7104L13517.6794,-3394.6832L13517.6634,-3394.6601L13517.6414,-3394.6373L13517.63,-3394.6095L13517.6193,-3394.5962L13517.5867,-3394.5753L13517.5781,-3394.5628L13517.5781,-3393.9498L13517.6041,-3393.939L13517.6216,-3393.9212L13517.6345,-3393.8959L13517.6399,-3393.8619L13517.6566,-3393.8081L13517.6697,-3393.7469L13517.6718,-3393.7372L13517.6726,-3393.7119L13517.6696,-3393.6872L13517.6727,-3393.6691L13517.6734,-3393.6552L13517.681,-3393.6374L13517.6886,-3393.6261L13517.7358,-3393.5697L13517.7487,-3393.5349L13517.7639,-3393.5001L13517.7654,-3393.4836L13517.7631,-3393.469L13517.7449,-3393.449L13517.7381,-3393.4147L13517.7229,-3393.3882L13517.7237,-3393.3793L13517.7298,-3393.3759L13517.7351,-3393.373L13517.7373,-3393.3673L13517.7102,-3393.3333L13517.7039,-3393.3255L13517.7024,-3393.3198L13517.6948,-3393.2894L13517.6925,-3393.2609L13517.6894,-3393.247L13517.6735,-3393.2311L13517.6516,-3393.2222L13517.6338,-3393.2149L13517.5781,-3393.1908L13517.5781,-3392.5781L13517.5781,-3392.5781L13517.5781,-3395.064L13517.579,-3395.0616L13517.5957,-3395.0179L13517.5989,-3395Z"/>
<path content="和歌山県,,有田郡,湯浅町,,30361" xlink:title="和歌山県" d="M13517.5781,-3405.6159L13517.5816,-3405.6151L13517.6041,-3405.6044L13517.6148,-3405.6031L13517.6255,-3405.6036L13517.6424,-3405.6078L13517.6583,-3405.6125L13517.686,-3405.6219L13517.7029,-3405.6249L13517.7412,-3405.624L13517.7693,-3405.6283L13517.8554,-3405.63L13517.8722,-3405.6321L13517.8942,-3405.6394L13517.9515,-3405.6568L13517.9721,-3405.6624L13517.9941,-3405.6704L13518.0457,-3405.6968L13518.0638,-3405.7089L13518.0766,-3405.7196L13518.0879,-3405.7387L13518.0971,-3405.7489L13518.1114,-3405.7626L13518.1244,-3405.7729L13518.1382,-3405.7913L13518.1466,-3405.8071L13518.1487,-3405.8111L13518.1556,-3405.8333L13518.158,-3405.8412L13518.1642,-3405.8647L13518.1655,-3405.8728L13518.1629,-3405.9464L13518.1668,-3405.971L13518.173,-3405.9895L13518.1783,-3406.0009L13518.1916,-3406.0178L13518.2017,-3406.0277L13518.2101,-3406.0354L13518.2318,-3406.0521L13518.2645,-3406.0771L13518.2786,-3406.0918L13518.2839,-3406.105L13518.2949,-3406.1458L13518.3051,-3406.1606L13518.3171,-3406.1687L13518.3281,-3406.1728L13518.3333,-3406.1737L13518.347,-3406.1761L13518.3674,-3406.1776L13518.3841,-3406.1767L13518.4014,-3406.1757L13518.4155,-3406.1724L13518.432,-3406.1669L13518.4426,-3406.1659L13518.4534,-3406.1667L13518.4801,-3406.1752L13518.5136,-3406.1828L13518.5198,-3406.1831L13518.5313,-3406.1796L13518.5938,-3406.1601L13518.6253,-3406.1527L13518.6348,-3406.1527L13518.6321,-3406.1207L13518.6367,-3406.0728L13518.6425,-3405.9896L13518.6387,-3405.9321L13518.6412,-3405.922L13518.663,-3405.8964L13518.6759,-3405.8856L13518.7034,-3405.8387L13518.7086,-3405.8333L13518.7488,-3405.7912L13518.776,-3405.7658L13518.8018,-3405.7456L13518.8118,-3405.7349L13518.8275,-3405.7145L13518.8447,-3405.6784L13518.8504,-3405.6537L13518.8485,-3405.626L13518.8475,-3405.6092L13518.8385,-3405.5779L13518.8976,-3405.5755L13518.9143,-3405.5719L13518.9238,-3405.5664L13518.9338,-3405.5581L13518.962,-3405.5362L13518.9834,-3405.5184L13519.0011,-3405.5025L13519.0168,-3405.4843L13519.0278,-3405.4627L13519.0349,-3405.4259L13519.0349,-3405.3992L13519.0349,-3405.3985L13519.0326,-3405.3869L13519.0168,-3405.354L13519.0116,-3405.3211L13518.9987,-3405.2527L13518.9996,-3405.2348L13519.0039,-3405.2284L13519.0311,-3405.1944L13519.0421,-3405.1589L13519.064,-3405.1149L13519.0721,-3405.0871L13519.084,-3405.0621L13519.0864,-3405.048L13519.0855,-3405.0389L13519.0828,-3405.0294L13519.0755,-3405.0037L13519.0744,-3405L13519.0712,-3404.9886L13519.0549,-3404.9579L13519.0364,-3404.9217L13519.033,-3404.9149L13519.0284,-3404.9059L13519.0209,-3404.8913L13519.0209,-3404.8875L13519.0238,-3404.8688L13519.0291,-3404.8605L13519.0325,-3404.8554L13519.0469,-3404.841L13519.0514,-3404.8393L13519.0561,-3404.8376L13519.0676,-3404.8391L13519.0916,-3404.8499L13519.1068,-3404.8568L13519.1162,-3404.8602L13519.1271,-3404.8641L13519.134,-3404.8707L13519.1547,-3404.9034L13519.1667,-3404.9136L13519.1756,-3404.9212L13519.1796,-3404.9221L13519.1854,-3404.9202L13519.2211,-3404.8895L13519.2557,-3404.8469L13519.2863,-3404.821L13519.3,-3404.8047L13519.3095,-3404.8005L13519.3103,-3404.8001L13519.3212,-3404.794L13519.3368,-3404.7852L13519.3561,-3404.7737L13519.3729,-3404.7636L13519.3831,-3404.7527L13519.3914,-3404.7411L13519.3952,-3404.7253L13519.3952,-3404.7126L13519.3926,-3404.7031L13519.3806,-3404.6862L13519.38,-3404.6772L13519.3819,-3404.664L13519.3926,-3404.6445L13519.406,-3404.6195L13519.4244,-3404.5941L13519.4396,-3404.5704L13519.4529,-3404.5324L13519.4523,-3404.5191L13519.4459,-3404.4996L13519.4288,-3404.4636L13519.4282,-3404.4526L13519.4364,-3404.4156L13519.4364,-3404.3832L13519.4352,-3404.3796L13519.4182,-3404.3686L13519.4034,-3404.359L13519.4009,-3404.3542L13519.3998,-3404.3484L13519.3958,-3404.3268L13519.3927,-3404.3099L13519.392,-3404.3078L13519.3873,-3404.2932L13519.3662,-3404.2278L13519.3617,-3404.2138L13519.3466,-3404.1667L13519.3367,-3404.1358L13519.3298,-3404.1079L13519.3263,-3404.0993L13519.322,-3404.0968L13519.3126,-3404.0932L13519.3057,-3404.0861L13519.3032,-3404.0722L13519.304,-3404.059L13519.3062,-3404.0505L13519.3117,-3404.0444L13519.3173,-3404.0402L13519.3258,-3404.0369L13519.334,-3404.0366L13519.3463,-3404.039L13519.3519,-3404.0402L13519.3773,-3404.0513L13519.3837,-3404.0524L13519.3839,-3404.0525L13519.4013,-3404.0523L13519.4045,-3404.0522L13519.4048,-3404.0522L13519.4601,-3404.0517L13519.4719,-3404.0493L13519.5025,-3404.0399L13519.5275,-3404.0293L13519.5327,-3404.0257L13519.5333,-3404.0237L13519.535,-3404.0183L13519.5373,-3404.0104L13519.5449,-3403.9843L13519.5595,-3403.9567L13519.5614,-3403.9434L13519.5557,-3403.9109L13519.5538,-3403.8857L13519.5411,-3403.8544L13519.5406,-3403.834L13519.5411,-3403.8311L13519.5444,-3403.8081L13519.5444,-3403.808L13519.5383,-3403.7713L13519.5355,-3403.7486L13519.5373,-3403.713L13519.5345,-3403.6977L13519.5283,-3403.6888L13519.5195,-3403.6762L13519.5091,-3403.6609L13519.507,-3403.6478L13519.5025,-3403.6193L13519.4973,-3403.5918L13519.4917,-3403.5832L13519.478,-3403.5723L13519.4502,-3403.5566L13519.4455,-3403.5503L13519.4455,-3403.546L13519.4484,-3403.5421L13519.4573,-3403.537L13519.4865,-3403.5287L13519.5143,-3403.5217L13519.5544,-3403.5099L13519.5629,-3403.5048L13519.5765,-3403.4926L13519.5869,-3403.4869L13519.6029,-3403.4781L13519.6288,-3403.4734L13519.6505,-3403.473L13519.6613,-3403.4757L13519.6656,-3403.4789L13519.674,-3403.4914L13519.682,-3403.5106L13519.6999,-3403.533L13519.7008,-3403.5338L13519.7178,-3403.5494L13519.7244,-3403.5518L13519.7347,-3403.5514L13519.7427,-3403.5498L13519.7714,-3403.5396L13519.7974,-3403.5239L13519.8323,-3403.5138L13519.8624,-3403.5114L13519.8685,-3403.5094L13519.8761,-3403.5012L13519.8846,-3403.48L13519.8921,-3403.4592L13519.8987,-3403.4514L13519.903,-3403.4495L13519.9171,-3403.451L13519.9364,-3403.4546L13519.9868,-3403.4655L13520,-3403.4677L13520.0174,-3403.4706L13520.0588,-3403.4891L13520.0731,-3403.4971L13520.101,-3403.5127L13520.1165,-3403.5214L13520.1217,-3403.5225L13520.1288,-3403.5221L13520.1407,-3403.5184L13520.1574,-3403.5141L13520.1645,-3403.5148L13520.1728,-3403.517L13520.1961,-3403.5346L13520.2098,-3403.5427L13520.2169,-3403.5441L13520.256,-3403.5394L13520.2881,-3403.5372L13520.2969,-3403.5383L13520.3217,-3403.5515L13520.3301,-3403.5533L13520.3454,-3403.5526L13520.3956,-3403.5456L13520.4097,-3403.546L13520.4462,-3403.5485L13520.5238,-3403.5621L13520.5308,-3403.5617L13520.5594,-3403.5526L13520.5735,-3403.5507L13520.5845,-3403.5522L13520.6342,-3403.569L13520.6475,-3403.5713L13520.6651,-3403.572L13520.6774,-3403.572L13520.6827,-3403.5738L13520.6865,-3403.5767L13520.6946,-3403.583L13520.702,-3403.5841L13520.7152,-3403.583L13520.7315,-3403.5757L13520.7593,-3403.5625L13520.7919,-3403.5434L13520.8038,-3403.5398L13520.8126,-3403.5394L13520.8227,-3403.5438L13520.8333,-3403.5505L13520.8337,-3403.5507L13520.8438,-3403.5672L13520.8614,-3403.6151L13520.8716,-3403.6354L13520.8787,-3403.656L13520.8862,-3403.6662L13520.8927,-3403.6714L13520.8958,-3403.6717L13520.9033,-3403.6706L13520.913,-3403.6662L13520.9271,-3403.6618L13520.9319,-3403.6618L13520.9447,-3403.6688L13520.9513,-3403.6779L13520.9641,-3403.6985L13520.9711,-3403.7051L13520.9795,-3403.7076L13520.9953,-3403.7106L13521.0072,-3403.7091L13521.0195,-3403.6999L13521.0442,-3403.6764L13521.0574,-3403.6647L13521.0706,-3403.6519L13521.0922,-3403.6248L13521.1098,-3403.605L13521.1217,-3403.5962L13521.1446,-3403.5885L13521.1574,-3403.5882L13521.2057,-3403.5922L13521.2269,-3403.5904L13521.2502,-3403.5819L13521.2648,-3403.5731L13521.2758,-3403.5636L13521.2974,-3403.5383L13521.3124,-3403.5232L13521.3577,-3403.5001L13521.3727,-3403.4906L13521.3819,-3403.4771L13521.4035,-3403.4361L13521.4047,-3403.4326L13521.4154,-3403.4015L13521.4189,-3403.3763L13521.422,-3403.3539L13521.4273,-3403.3451L13521.4418,-3403.3345L13521.4436,-3403.3333L13521.4651,-3403.3194L13521.4753,-3403.3106L13521.4792,-3403.3026L13521.492,-3403.2773L13521.5069,-3403.263L13521.5245,-3403.2531L13521.5457,-3403.2406L13521.5765,-3403.2252L13521.5906,-3403.2142L13521.5946,-3403.2036L13521.5954,-3403.1761L13521.6034,-3403.1496L13521.61,-3403.1371L13521.6263,-3403.1254L13521.6377,-3403.1133L13521.654,-3403.091L13521.6606,-3403.0767L13521.6667,-3403.0717L13521.6677,-3403.0708L13521.6778,-3403.0671L13521.6989,-3403.0653L13521.7464,-3403.0701L13521.7777,-3403.0745L13521.8037,-3403.0822L13521.8129,-3403.0859L13521.842,-3403.1064L13521.8494,-3403.1078L13521.8626,-3403.1067L13521.9059,-3403.0961L13521.923,-3403.0943L13521.9864,-3403.1049L13521.997,-3403.1049L13522.0229,-3403.1023L13522.0666,-3403.0899L13522.0916,-3403.0881L13522.1189,-3403.0881L13522.1374,-3403.0914L13522.1511,-3403.0957L13522.1687,-3403.1078L13522.1898,-3403.1302L13522.2035,-3403.1394L13522.2171,-3403.1419L13522.2559,-3403.1431L13522.2571,-3403.1432L13522.2906,-3403.1463L13522.302,-3403.15L13522.3117,-3403.1573L13522.3333,-3403.1808L13522.3553,-3403.1966L13522.3703,-3403.2109L13522.3896,-3403.2354L13522.3967,-3403.2486L13522.4011,-3403.2764L13522.4077,-3403.2934L13522.4183,-3403.3066L13522.4271,-3403.3128L13522.4545,-3403.3223L13522.4616,-3403.3219L13522.4695,-3403.3194L13522.5,-3403.3003L13522.5117,-3403.293L13522.5355,-3403.2743L13522.5434,-3403.2717L13522.5562,-3403.2721L13522.5963,-3403.2772L13522.6121,-3403.2765L13522.631,-3403.2743L13522.6548,-3403.2699L13522.6636,-3403.2711L13522.6759,-3403.2747L13522.6852,-3403.2853L13522.7056,-3403.3149L13522.7147,-3403.3196L13522.72,-3403.3206L13522.7337,-3403.3174L13522.7713,-3403.3073L13522.8002,-3403.3004L13522.8093,-3403.295L13522.8165,-3403.2881L13522.8234,-3403.2671L13522.8329,-3403.2459L13522.853,-3403.2041L13522.8625,-3403.1902L13522.8747,-3403.1785L13522.9088,-3403.158L13522.9457,-3403.1272L13522.9879,-3403.1061L13523.013,-3403.0991L13523.0575,-3403.0926L13523.0646,-3403.0916L13523.1068,-3403.0887L13523.1337,-3403.0887L13523.1618,-3403.0922L13523.1709,-3403.0919L13523.1777,-3403.0884L13523.1834,-3403.0814L13523.1911,-3403.0586L13523.196,-3403.0396L13523.1998,-3402.9982L13523.2237,-3402.94L13523.234,-3402.9198L13523.2557,-3402.8941L13523.2807,-3402.8714L13523.3123,-3402.8239L13523.3172,-3402.8201L13523.3333,-3402.8158L13523.3336,-3402.8157L13523.367,-3402.8137L13523.3708,-3402.8115L13523.3773,-3402.802L13523.3898,-3402.7657L13523.3951,-3402.6936L13523.394,-3402.6456L13523.3989,-3402.5761L13523.4023,-3402.5679L13523.4103,-3402.5591L13523.4354,-3402.5373L13523.4571,-3402.5239L13523.5117,-3402.5L13523.558,-3402.4797L13523.5862,-3402.4657L13523.5968,-3402.4593L13523.6037,-3402.4518L13523.6087,-3402.4431L13523.6117,-3402.4378L13523.6212,-3402.4173L13523.636,-3402.3996L13523.6493,-3402.3869L13523.6561,-3402.3844L13523.6725,-3402.3822L13523.6918,-3402.3844L13523.7047,-3402.3891L13523.7214,-3402.3967L13523.7423,-3402.4102L13523.7551,-3402.3877L13523.7597,-3402.3727L13523.7615,-3402.3606L13523.7563,-3402.345L13523.7469,-3402.3235L13523.7306,-3402.2774L13523.7194,-3402.2657L13523.7008,-3402.2541L13523.6873,-3402.2399L13523.671,-3402.22L13523.6611,-3402.2011L13523.6552,-3402.1836L13523.6553,-3402.1527L13523.6541,-3402.1239L13523.6517,-3402.0666L13523.6547,-3402.0151L13523.6623,-3401.9829L13523.6716,-3401.9611L13523.6792,-3401.947L13523.6879,-3401.9392L13523.7271,-3401.9211L13523.7388,-3401.9138L13523.7476,-3401.9036L13523.7511,-3401.893L13523.7634,-3401.851L13523.7797,-3401.8301L13523.7903,-3401.8199L13523.8124,-3401.8087L13523.8399,-3401.799L13523.8492,-3401.7898L13523.8597,-3401.7791L13523.8726,-3401.7528L13523.8837,-3401.7397L13523.9164,-3401.7163L13523.9888,-3401.6756L13523.9959,-3401.6741L13523.9966,-3401.6667L13523.9986,-3401.6441L13524.0006,-3401.6209L13524.0008,-3401.6204L13524.0039,-3401.6137L13524.0099,-3401.6081L13524.03,-3401.5986L13524.0723,-3401.5773L13524.0904,-3401.5622L13524.1124,-3401.5433L13524.1252,-3401.5288L13524.1312,-3401.5071L13524.1309,-3401.4817L13524.1307,-3401.4626L13524.1361,-3401.4504L13524.144,-3401.4414L13524.1543,-3401.4328L13524.1604,-3401.4211L13524.1616,-3401.4085L13524.1596,-3401.4021L13524.125,-3401.3673L13524.0783,-3401.3238L13524.0414,-3401.2866L13524.0215,-3401.2577L13523.9737,-3401.2138L13523.9627,-3401.1973L13523.9544,-3401.1786L13523.9495,-3401.1557L13523.9478,-3401.1276L13523.9506,-3401.1088L13523.9665,-3401.0462L13523.9743,-3401.0203L13523.9743,-3401.0112L13523.9649,-3400.9966L13523.9484,-3400.9819L13523.9237,-3400.9636L13523.8856,-3400.9283L13523.8715,-3400.9227L13523.8625,-3400.9191L13523.8422,-3400.9159L13523.7911,-3400.9136L13523.763,-3400.9118L13523.7405,-3400.915L13523.6788,-3400.9324L13523.615,-3400.9384L13523.5798,-3400.937L13523.5366,-3400.9326L13523.4846,-3400.9274L13523.4556,-3400.9261L13523.4368,-3400.9227L13523.427,-3400.9253L13523.4129,-3400.9255L13523.3824,-3400.921L13523.3705,-3400.9188L13523.3333,-3400.9166L13523.3269,-3400.9162L13523.3022,-3400.9126L13523.2785,-3400.9112L13523.2548,-3400.9083L13523.2128,-3400.8955L13523.1938,-3400.894L13523.173,-3400.8877L13523.1383,-3400.8614L13523.115,-3400.8633L13523.0988,-3400.8646L13523.0849,-3400.8682L13523.0673,-3400.8722L13523.0441,-3400.8722L13523.0042,-3400.8694L13522.9917,-3400.8719L13522.9699,-3400.876L13522.9374,-3400.8686L13522.8907,-3400.849L13522.871,-3400.8441L13522.8274,-3400.8379L13522.8189,-3400.8391L13522.7983,-3400.8402L13522.7631,-3400.8333L13522.7619,-3400.8331L13522.7125,-3400.8308L13522.6993,-3400.8302L13522.653,-3400.8209L13522.6383,-3400.8106L13522.6236,-3400.8005L13522.6161,-3400.7967L13522.6033,-3400.793L13522.5871,-3400.7915L13522.5577,-3400.789L13522.5512,-3400.7852L13522.5288,-3400.7616L13522.5013,-3400.7433L13522.5,-3400.7427L13522.4749,-3400.7312L13522.4644,-3400.7292L13522.441,-3400.73L13522.4076,-3400.7387L13522.3936,-3400.7437L13522.3756,-3400.7441L13522.3627,-3400.7424L13522.3467,-3400.7362L13522.3272,-3400.7175L13522.3143,-3400.7117L13522.3037,-3400.7097L13522.2941,-3400.7097L13522.2913,-3400.7097L13522.2429,-3400.7271L13522.2086,-3400.7412L13522.1473,-3400.7615L13522.1213,-3400.774L13522.0829,-3400.7847L13521.9612,-3400.7993L13521.8914,-3400.8088L13521.8341,-3400.8097L13521.8066,-3400.8147L13521.7847,-3400.8213L13521.7669,-3400.8308L13521.7621,-3400.8333L13521.7364,-3400.847L13521.6667,-3400.8788L13521.658,-3400.8827L13521.5947,-3400.9184L13521.5373,-3400.9434L13521.5193,-3400.9559L13521.4874,-3400.9799L13521.4594,-3400.9966L13521.448,-3401.0003L13521.431,-3401.0007L13521.4196,-3400.9995L13521.3872,-3400.9837L13521.3666,-3400.9763L13521.3572,-3400.9763L13521.3502,-3400.9784L13521.3327,-3400.9958L13521.3182,-3401.0174L13521.3152,-3401.0207L13521.3077,-3401.0227L13521.2977,-3401.0236L13521.2733,-3401.0178L13521.2324,-3401.0049L13521.2145,-3401.0024L13521.1602,-3401.0024L13521.1268,-3401.0049L13521.1193,-3401.007L13521.1014,-3401.024L13521.0644,-3401.0555L13521.0315,-3401.076L13520.9991,-3401.093L13520.9732,-3401.1004L13520.9543,-3401.1091L13520.9258,-3401.1345L13520.8979,-3401.1714L13520.8759,-3401.1977L13520.8727,-3401.2064L13520.8664,-3401.2234L13520.8624,-3401.2499L13520.8549,-3401.3297L13520.8333,-3401.3866L13520.833,-3401.3874L13520.8216,-3401.4003L13520.7891,-3401.4349L13520.7786,-3401.4498L13520.7667,-3401.4664L13520.7606,-3401.4819L13520.7596,-3401.4956L13520.7581,-3401.5142L13520.7542,-3401.5229L13520.7275,-3401.5652L13520.7249,-3401.5673L13520.7206,-3401.5677L13520.7109,-3401.5657L13520.7047,-3401.5645L13520.7013,-3401.5648L13520.6996,-3401.5677L13520.6918,-3401.6009L13520.6866,-3401.6078L13520.6643,-3401.6311L13520.644,-3401.6509L13520.6361,-3401.6667L13520.6273,-3401.6845L13520.601,-3401.7206L13520.5717,-3401.7489L13520.5601,-3401.7661L13520.5377,-3401.8088L13520.5261,-3401.8184L13520.5175,-3401.8227L13520.4552,-3401.8281L13520.3734,-3401.8249L13520.3081,-3401.8228L13520.2872,-3401.824L13520.2854,-3401.8246L13520.2718,-3401.8294L13520.2653,-3401.8352L13520.2614,-3401.8464L13520.2587,-3401.8618L13520.258,-3401.8961L13520.2432,-3401.9454L13520.2408,-3401.9713L13520.2385,-3401.9986L13520.2273,-3402.0269L13520.2096,-3402.0622L13520.1956,-3402.1049L13520.1887,-3402.1324L13520.1709,-3402.1856L13520.1584,-3402.2381L13520.1502,-3402.2646L13520.1424,-3402.2899L13520.1373,-3402.3064L13520.0801,-3402.3134L13520.0288,-3402.3126L13520.0143,-3402.3134L13520,-3402.3175L13519.9994,-3402.3177L13519.9986,-3402.3181L13519.9737,-3402.3316L13519.957,-3402.3432L13519.9178,-3402.3848L13519.8922,-3402.4081L13519.8632,-3402.426L13519.846,-3402.4329L13519.8064,-3402.4388L13519.7929,-3402.4407L13519.7841,-3402.4454L13519.7594,-3402.4678L13519.7365,-3402.4842L13519.7317,-3402.4859L13519.7202,-3402.49L13519.7108,-3402.49L13519.695,-3402.4861L13519.6437,-3402.471L13519.6167,-3402.4691L13519.598,-3402.4699L13519.5757,-3402.4733L13519.5613,-3402.4799L13519.5361,-3402.4997L13519.535,-3402.5L13519.5257,-3402.5024L13519.5178,-3402.5028L13519.509,-3402.5L13519.5057,-3402.4989L13519.4698,-3402.4865L13519.4446,-3402.4811L13519.4353,-3402.4811L13519.418,-3402.4827L13519.3575,-3402.4977L13519.3403,-3402.5L13519.3248,-3402.502L13519.3041,-3402.5023L13519.2666,-3402.5028L13519.2311,-3402.5036L13519.2139,-3402.502L13519.2049,-3402.5L13519.2018,-3402.4993L13519.1887,-3402.4935L13519.1761,-3402.4795L13519.1667,-3402.467L13519.1589,-3402.4566L13519.1421,-3402.4381L13519.1243,-3402.4198L13519.0978,-3402.4019L13519.0707,-3402.3919L13519.0498,-3402.3868L13519.0223,-3402.3845L13518.9785,-3402.3845L13518.9529,-3402.3879L13518.9454,-3402.3918L13518.9361,-3402.4019L13518.8965,-3402.4558L13518.8736,-3402.4935L13518.8671,-3402.4989L13518.8646,-3402.5L13518.8448,-3402.5086L13518.8164,-3402.5136L13518.7914,-3402.5147L13518.7716,-3402.5156L13518.7157,-3402.5261L13518.6806,-3402.5284L13518.6443,-3402.5246L13518.6182,-3402.5219L13518.6041,-3402.523L13518.5891,-3402.5266L13518.5741,-3402.5369L13518.5353,-3402.5853L13518.5252,-3402.5923L13518.5036,-3402.5971L13518.4833,-3402.5971L13518.4079,-3402.589L13518.3731,-3402.5868L13518.3539,-3402.5885L13518.3333,-3402.5919L13518.3051,-3402.5967L13518.2994,-3402.5976L13518.2818,-3402.6031L13518.2639,-3402.6103L13518.2458,-3402.6176L13518.241,-3402.6212L13518.2408,-3402.6214L13518.2389,-3402.6265L13518.2366,-3402.6473L13518.2155,-3402.741L13518.2077,-3402.7835L13518.2004,-3402.7989L13518.1846,-3402.8331L13518.1623,-3402.8768L13518.1473,-3402.8967L13518.1173,-3402.9288L13518.1013,-3402.9418L13518.0773,-3402.9557L13518.0227,-3402.9775L13518.0015,-3402.986L13517.8963,-3403.0139L13517.8709,-3403.0201L13517.7921,-3403.0392L13517.7303,-3403.0567L13517.6833,-3403.0715L13517.6629,-3403.0779L13517.5781,-3403.1158Z"/>
<path content="和歌山県,,有田郡,広川町,,30362" xlink:title="和歌山県" d="M13517.5781,-3403.1158L13517.6629,-3403.0779L13517.6833,-3403.0715L13517.7303,-3403.0567L13517.7921,-3403.0392L13517.8709,-3403.0201L13517.8963,-3403.0139L13518.0015,-3402.986L13518.0227,-3402.9775L13518.0773,-3402.9557L13518.1013,-3402.9418L13518.1173,-3402.9288L13518.1473,-3402.8967L13518.1623,-3402.8768L13518.1846,-3402.8331L13518.2004,-3402.7989L13518.2077,-3402.7835L13518.2155,-3402.741L13518.2366,-3402.6473L13518.2389,-3402.6265L13518.2408,-3402.6214L13518.241,-3402.6212L13518.2458,-3402.6176L13518.2639,-3402.6103L13518.2818,-3402.6031L13518.2994,-3402.5976L13518.3051,-3402.5967L13518.3333,-3402.5919L13518.3539,-3402.5885L13518.3731,-3402.5868L13518.4079,-3402.589L13518.4833,-3402.5971L13518.5036,-3402.5971L13518.5252,-3402.5923L13518.5353,-3402.5853L13518.5741,-3402.5369L13518.5891,-3402.5266L13518.6041,-3402.523L13518.6182,-3402.5219L13518.6443,-3402.5246L13518.6806,-3402.5284L13518.7157,-3402.5261L13518.7716,-3402.5156L13518.7914,-3402.5147L13518.8164,-3402.5136L13518.8448,-3402.5086L13518.8646,-3402.5L13518.8671,-3402.4989L13518.8736,-3402.4935L13518.8965,-3402.4558L13518.9361,-3402.4019L13518.9454,-3402.3918L13518.9529,-3402.3879L13518.9785,-3402.3845L13519.0223,-3402.3845L13519.0498,-3402.3868L13519.0707,-3402.3919L13519.0978,-3402.4019L13519.1243,-3402.4198L13519.1421,-3402.4381L13519.1589,-3402.4566L13519.1667,-3402.467L13519.1761,-3402.4795L13519.1887,-3402.4935L13519.2018,-3402.4993L13519.2049,-3402.5L13519.2139,-3402.502L13519.2311,-3402.5036L13519.2666,-3402.5028L13519.3041,-3402.5023L13519.3248,-3402.502L13519.3403,-3402.5L13519.3575,-3402.4977L13519.418,-3402.4827L13519.4353,-3402.4811L13519.4446,-3402.4811L13519.4698,-3402.4865L13519.5057,-3402.4989L13519.509,-3402.5L13519.5178,-3402.5028L13519.5257,-3402.5024L13519.535,-3402.5L13519.5361,-3402.4997L13519.5613,-3402.4799L13519.5757,-3402.4733L13519.598,-3402.4699L13519.6167,-3402.4691L13519.6437,-3402.471L13519.695,-3402.4861L13519.7108,-3402.49L13519.7202,-3402.49L13519.7317,-3402.4859L13519.7365,-3402.4842L13519.7594,-3402.4678L13519.7841,-3402.4454L13519.7929,-3402.4407L13519.8064,-3402.4388L13519.846,-3402.4329L13519.8632,-3402.426L13519.8922,-3402.4081L13519.9178,-3402.3848L13519.957,-3402.3432L13519.9737,-3402.3316L13519.9986,-3402.3181L13519.9994,-3402.3177L13520,-3402.3175L13520.0143,-3402.3134L13520.0288,-3402.3126L13520.0801,-3402.3134L13520.1373,-3402.3064L13520.1424,-3402.2899L13520.1502,-3402.2646L13520.1584,-3402.2381L13520.1709,-3402.1856L13520.1887,-3402.1324L13520.1956,-3402.1049L13520.2096,-3402.0622L13520.2273,-3402.0269L13520.2385,-3401.9986L13520.2408,-3401.9713L13520.2432,-3401.9454L13520.258,-3401.8961L13520.2587,-3401.8618L13520.2614,-3401.8464L13520.2653,-3401.8352L13520.2718,-3401.8294L13520.2854,-3401.8246L13520.2872,-3401.824L13520.3081,-3401.8228L13520.3734,-3401.8249L13520.4552,-3401.8281L13520.5175,-3401.8227L13520.5261,-3401.8184L13520.5377,-3401.8088L13520.5601,-3401.7661L13520.5717,-3401.7489L13520.601,-3401.7206L13520.6273,-3401.6845L13520.6361,-3401.6667L13520.644,-3401.6509L13520.6643,-3401.6311L13520.6866,-3401.6078L13520.6918,-3401.6009L13520.6996,-3401.5677L13520.7013,-3401.5648L13520.7047,-3401.5645L13520.7109,-3401.5657L13520.7206,-3401.5677L13520.7249,-3401.5673L13520.7275,-3401.5652L13520.7542,-3401.5229L13520.7581,-3401.5142L13520.7596,-3401.4956L13520.7606,-3401.4819L13520.7667,-3401.4664L13520.7786,-3401.4498L13520.7891,-3401.4349L13520.8216,-3401.4003L13520.833,-3401.3874L13520.8333,-3401.3866L13520.8549,-3401.3297L13520.8624,-3401.2499L13520.8664,-3401.2234L13520.8727,-3401.2064L13520.8759,-3401.1977L13520.8979,-3401.1714L13520.9258,-3401.1345L13520.9543,-3401.1091L13520.9732,-3401.1004L13520.9991,-3401.093L13521.0315,-3401.076L13521.0644,-3401.0555L13521.1014,-3401.024L13521.1193,-3401.007L13521.1268,-3401.0049L13521.1602,-3401.0024L13521.2145,-3401.0024L13521.2324,-3401.0049L13521.2733,-3401.0178L13521.2977,-3401.0236L13521.3077,-3401.0227L13521.3152,-3401.0207L13521.3182,-3401.0174L13521.3327,-3400.9958L13521.3502,-3400.9784L13521.3572,-3400.9763L13521.3666,-3400.9763L13521.3872,-3400.9837L13521.4196,-3400.9995L13521.431,-3401.0007L13521.448,-3401.0003L13521.4594,-3400.9966L13521.4874,-3400.9799L13521.5193,-3400.9559L13521.5373,-3400.9434L13521.5947,-3400.9184L13521.658,-3400.8827L13521.6667,-3400.8788L13521.7364,-3400.847L13521.7621,-3400.8333L13521.7669,-3400.8308L13521.7847,-3400.8213L13521.8066,-3400.8147L13521.8341,-3400.8097L13521.8914,-3400.8088L13521.9612,-3400.7993L13522.0829,-3400.7847L13522.1213,-3400.774L13522.1473,-3400.7615L13522.2086,-3400.7412L13522.2429,-3400.7271L13522.2913,-3400.7097L13522.2941,-3400.7097L13522.3037,-3400.7097L13522.3143,-3400.7117L13522.3272,-3400.7175L13522.3467,-3400.7362L13522.3627,-3400.7424L13522.3756,-3400.7441L13522.3936,-3400.7437L13522.4076,-3400.7387L13522.441,-3400.73L13522.4644,-3400.7292L13522.4749,-3400.7312L13522.5,-3400.7427L13522.5013,-3400.7433L13522.5288,-3400.7616L13522.5512,-3400.7852L13522.5577,-3400.789L13522.5871,-3400.7915L13522.6033,-3400.793L13522.6161,-3400.7967L13522.6236,-3400.8005L13522.6383,-3400.8106L13522.653,-3400.8209L13522.6993,-3400.8302L13522.7125,-3400.8308L13522.7619,-3400.8331L13522.7631,-3400.8333L13522.7983,-3400.8402L13522.8189,-3400.8391L13522.8274,-3400.8379L13522.871,-3400.8441L13522.8907,-3400.849L13522.9374,-3400.8686L13522.9699,-3400.876L13522.9917,-3400.8719L13523.0042,-3400.8694L13523.0441,-3400.8722L13523.0673,-3400.8722L13523.0849,-3400.8682L13523.0988,-3400.8646L13523.115,-3400.8633L13523.1383,-3400.8614L13523.173,-3400.8877L13523.1938,-3400.894L13523.2128,-3400.8955L13523.2548,-3400.9083L13523.2785,-3400.9112L13523.3022,-3400.9126L13523.3269,-3400.9162L13523.3333,-3400.9166L13523.3705,-3400.9188L13523.3824,-3400.921L13523.4129,-3400.9255L13523.427,-3400.9253L13523.4368,-3400.9227L13523.4556,-3400.9261L13523.4846,-3400.9274L13523.5366,-3400.9326L13523.5798,-3400.937L13523.615,-3400.9384L13523.6788,-3400.9324L13523.7405,-3400.915L13523.763,-3400.9118L13523.7911,-3400.9136L13523.8422,-3400.9159L13523.8625,-3400.9191L13523.8715,-3400.9227L13523.8856,-3400.9283L13523.9237,-3400.9636L13523.9484,-3400.9819L13523.9649,-3400.9966L13523.9743,-3401.0112L13523.9743,-3401.0203L13523.9665,-3401.0462L13523.9506,-3401.1088L13523.9478,-3401.1276L13523.9495,-3401.1557L13523.9544,-3401.1786L13523.9627,-3401.1973L13523.9737,-3401.2138L13524.0215,-3401.2577L13524.0414,-3401.2866L13524.0783,-3401.3238L13524.125,-3401.3673L13524.1596,-3401.4021L13524.1616,-3401.4085L13524.1604,-3401.4211L13524.1543,-3401.4328L13524.144,-3401.4414L13524.1361,-3401.4504L13524.1307,-3401.4626L13524.1309,-3401.4817L13524.1312,-3401.5071L13524.1252,-3401.5288L13524.1124,-3401.5433L13524.0904,-3401.5622L13524.0723,-3401.5773L13524.03,-3401.5986L13524.0099,-3401.6081L13524.0039,-3401.6137L13524.0008,-3401.6204L13524.0006,-3401.6209L13523.9986,-3401.6441L13523.9966,-3401.6667L13523.9959,-3401.6741L13524.0279,-3401.6712L13524.0445,-3401.6667L13524.0591,-3401.6627L13524.1664,-3401.6137L13524.1667,-3401.6135L13524.2202,-3401.582L13524.282,-3401.5291L13524.3108,-3401.4944L13524.3563,-3401.423L13524.4491,-3401.4162L13524.5059,-3401.4181L13524.5467,-3401.4206L13524.6045,-3401.4288L13524.6214,-3401.4298L13524.6442,-3401.4264L13524.6617,-3401.422L13524.6827,-3401.4089L13524.7225,-3401.3773L13524.7535,-3401.3732L13524.7882,-3401.3672L13524.8243,-3401.378L13524.8374,-3401.3804L13524.8706,-3401.3756L13524.902,-3401.3757L13524.9251,-3401.3853L13524.9569,-3401.4057L13525,-3401.4143L13525.0053,-3401.4153L13525.0458,-3401.4237L13525.0711,-3401.425L13525.1058,-3401.4256L13525.2037,-3401.4177L13525.2673,-3401.4069L13525.289,-3401.4075L13525.3251,-3401.4177L13525.3606,-3401.4232L13525.396,-3401.422L13525.4784,-3401.4448L13525.5051,-3401.4556L13525.5813,-3401.4448L13525.6182,-3401.4412L13525.6579,-3401.446L13525.7026,-3401.4406L13525.7121,-3401.4394L13525.7547,-3401.4334L13525.8333,-3401.4108L13525.8473,-3401.4068L13525.8617,-3401.4027L13525.8827,-3401.3877L13525.9221,-3401.3756L13525.9525,-3401.3687L13525.9647,-3401.3659L13526.0276,-3401.3689L13526.0579,-3401.3665L13526.1129,-3401.3611L13526.1693,-3401.3882L13526.1916,-3401.3954L13526.2505,-3401.4052L13526.3018,-3401.4299L13526.3509,-3401.4467L13526.3748,-3401.4515L13526.4109,-3401.4605L13526.4384,-3401.5026L13526.4521,-3401.5219L13526.4735,-3401.5266L13526.5212,-3401.5122L13526.5768,-3401.5068L13526.6007,-3401.5083L13526.6057,-3401.5086L13526.6549,-3401.5182L13526.6667,-3401.5211L13526.7047,-3401.5302L13526.7121,-3401.529L13526.7575,-3401.5212L13526.8016,-3401.5206L13526.8536,-3401.5327L13526.8738,-3401.5387L13526.8912,-3401.5375L13526.9388,-3401.5125L13526.9838,-3401.4758L13526.9998,-3401.4665L13527.0007,-3401.4454L13526.9913,-3401.4267L13526.9614,-3401.3814L13526.9445,-3401.3685L13526.9312,-3401.3669L13526.8995,-3401.3631L13526.8929,-3401.3124L13526.8967,-3401.2843L13526.9098,-3401.2577L13526.9257,-3401.2406L13526.9407,-3401.2297L13526.9585,-3401.2125L13526.9735,-3401.1743L13526.9849,-3401.1098L13527.0121,-3400.9959L13527.0243,-3400.9865L13527.0514,-3400.9733L13527.0974,-3400.9577L13527.1142,-3400.9424L13527.1283,-3400.9296L13527.2024,-3400.8625L13527.2186,-3400.8457L13527.2363,-3400.8333L13527.2542,-3400.8208L13527.2711,-3400.813L13527.2992,-3400.8122L13527.3236,-3400.8021L13527.3292,-3400.795L13527.3429,-3400.7669L13527.3573,-3400.7373L13527.3695,-3400.7162L13527.3836,-3400.7014L13527.4004,-3400.6913L13527.4192,-3400.6858L13527.4608,-3400.6881L13527.5,-3400.6931L13527.5161,-3400.6951L13527.5292,-3400.6936L13527.5517,-3400.685L13527.6164,-3400.6429L13527.6436,-3400.6296L13527.6811,-3400.6242L13527.7036,-3400.6179L13527.7223,-3400.6093L13527.7495,-3400.5914L13527.7814,-3400.5805L13527.8014,-3400.5652L13527.866,-3400.502L13527.9129,-3400.4552L13527.9279,-3400.4224L13527.8614,-3400.4061L13527.8323,-3400.3959L13527.7807,-3400.3655L13527.7489,-3400.3426L13527.7357,-3400.3331L13527.725,-3400.323L13527.6936,-3400.3075L13527.6534,-3400.2862L13527.6393,-3400.2724L13527.6301,-3400.21L13527.6209,-3400.1889L13527.5955,-3400.1658L13527.5759,-3400.137L13527.5434,-3400.0728L13527.5169,-3400.0343L13527.5,-3400.0178L13527.4973,-3400.0151L13527.466,-3400L13527.4615,-3399.9978L13527.4511,-3399.9892L13527.4151,-3399.9101L13527.4061,-3399.8902L13527.3531,-3399.8018L13527.3323,-3399.7759L13527.3,-3399.7624L13527.2596,-3399.7557L13527.2129,-3399.759L13527.176,-3399.7533L13527.1517,-3399.735L13527.1241,-3399.6879L13527.0998,-3399.6716L13527.0029,-3399.6293L13526.9787,-3399.6168L13526.9649,-3399.5841L13526.9522,-3399.5592L13526.9395,-3399.5524L13526.9141,-3399.5505L13526.8299,-3399.5476L13526.7676,-3399.5236L13526.7315,-3399.4941L13526.6888,-3399.4576L13526.6667,-3399.4461L13526.6404,-3399.4326L13526.6069,-3399.4162L13526.5974,-3399.4069L13526.5769,-3399.3865L13526.5019,-3399.3115L13526.4535,-3399.2827L13526.4269,-3399.275L13526.3693,-3399.274L13526.3328,-3399.265L13526.2728,-3399.2179L13526.2289,-3399.168L13526.227,-3399.1667L13526.1701,-3399.1286L13526.0847,-3399.0872L13526.0386,-3399.0372L13525.9901,-3399.0094L13525.9405,-3398.9931L13525.9071,-3398.969L13525.869,-3398.9066L13525.8378,-3398.8654L13525.8333,-3398.8483L13525.8293,-3398.8328L13525.8321,-3398.8181L13525.8333,-3398.8116L13525.8338,-3398.8089L13525.855,-3398.6984L13525.8445,-3398.6514L13525.8333,-3398.6304L13525.822,-3398.6092L13525.7803,-3398.5549L13525.7837,-3398.4644L13525.802,-3398.3576L13525.8016,-3398.3333L13525.8003,-3398.2584L13525.7785,-3398.1545L13525.7872,-3398.1103L13525.782,-3398.0901L13525.7507,-3398.0401L13525.6845,-3397.9581L13525.669,-3397.9388L13525.6535,-3397.9163L13525.6412,-3397.8984L13525.6412,-3397.8796L13525.652,-3397.8566L13525.6742,-3397.8094L13525.6742,-3397.7725L13525.6898,-3397.6986L13525.6872,-3397.6711L13525.677,-3397.6567L13525.6759,-3397.6552L13525.6759,-3397.6396L13525.722,-3397.5737L13525.7437,-3397.5469L13525.8196,-3397.5082L13525.8234,-3397.5L13525.8333,-3397.479L13525.8404,-3397.464L13525.8969,-3397.401L13525.923,-3397.3576L13525.9282,-3397.3265L13525.9213,-3397.2986L13525.8978,-3397.248L13525.8778,-3397.2248L13525.8396,-3397.1799L13525.8333,-3397.1705L13525.8317,-3397.168L13525.8127,-3397.1393L13525.7906,-3397.0985L13525.7614,-3397.0742L13525.7305,-3397.0597L13525.7076,-3397.0406L13525.6775,-3397.0017L13525.6554,-3396.9852L13525.6143,-3396.9536L13525.5794,-3396.8998L13525.5517,-3396.8188L13525.5279,-3396.7625L13525.4907,-3396.7342L13525.4734,-3396.7118L13525.4647,-3396.669L13525.4651,-3396.6667L13525.4781,-3396.6038L13525.4773,-3396.5778L13525.4765,-3396.5271L13525.4654,-3396.4751L13525.4222,-3396.4062L13525.4006,-3396.3822L13525.387,-3396.3768L13525.3567,-3396.3774L13525.3107,-3396.3618L13525.2783,-3396.3522L13525.2503,-3396.3558L13525.1956,-3396.3588L13525.1309,-3396.366L13525.0699,-3396.3526L13525.0032,-3396.3531L13525,-3396.3534L13524.9456,-3396.3575L13524.9305,-3396.3373L13524.9128,-3396.3002L13524.8906,-3396.2702L13524.8553,-3396.2451L13524.8212,-3396.2244L13524.7512,-3396.1961L13524.7328,-3396.1802L13524.7226,-3396.1739L13524.6826,-3396.1604L13524.6535,-3396.1544L13524.6357,-3396.1464L13524.6158,-3396.1383L13524.6051,-3396.1285L13524.5831,-3396.1132L13524.5339,-3396.0939L13524.5033,-3396.0714L13524.4267,-3396.0281L13524.4001,-3396.0182L13524.3904,-3396.0191L13524.3516,-3396.0336L13524.3082,-3396.0433L13524.2708,-3396.0497L13524.255,-3396.0527L13524.2381,-3396.0535L13524.2131,-3396.0514L13524.2034,-3396.0495L13524.1953,-3396.048L13524.1667,-3396.0338L13524.1116,-3396.0063L13524.0828,-3395.9952L13524.0573,-3395.9952L13524.019,-3396.0012L13523.9956,-3396.0042L13523.942,-3396.0008L13523.921,-3396.0021L13523.8705,-3396.0224L13523.8555,-3396.0211L13523.8141,-3396.0071L13523.7891,-3395.9901L13523.7738,-3395.9812L13523.7391,-3395.9739L13523.7294,-3395.9701L13523.7238,-3395.9625L13523.6823,-3395.9065L13523.6759,-3395.8967L13523.6644,-3395.8793L13523.6537,-3395.8704L13523.642,-3395.8661L13523.6027,-3395.8602L13523.5925,-3395.8563L13523.5749,-3395.8333L13523.5746,-3395.833L13523.5634,-3395.807L13523.5609,-3395.796L13523.5664,-3395.7503L13523.5634,-3395.7396L13523.5302,-3395.7001L13523.5266,-3395.692L13523.5261,-3395.6848L13523.5277,-3395.6686L13523.5348,-3395.6321L13523.5374,-3395.605L13523.5358,-3395.5744L13523.5366,-3395.5597L13523.5368,-3395.5544L13523.5424,-3395.5212L13523.5486,-3395.5008L13523.568,-3395.4853L13523.5859,-3395.4666L13523.5925,-3395.4556L13523.595,-3395.4488L13523.5956,-3395.4398L13523.5915,-3395.4275L13523.5813,-3395.4152L13523.5511,-3395.3973L13523.5307,-3395.3816L13523.4755,-3395.3141L13523.4591,-3395.295L13523.4428,-3395.2797L13523.4015,-3395.269L13523.3744,-3395.2507L13523.3711,-3395.2469L13523.3402,-3395.2112L13523.3333,-3395.2019L13523.3136,-3395.1753L13523.2829,-3395.1251L13523.2763,-3395.0954L13523.2733,-3395.0779L13523.2748,-3395.0626L13523.3044,-3395.0109L13523.3092,-3395L13523.3126,-3394.9922L13523.3126,-3394.9799L13523.3024,-3394.9361L13523.3024,-3394.914L13523.3004,-3394.8899L13523.3095,-3394.8296L13523.3288,-3394.7853L13523.3288,-3394.7844L13523.3288,-3394.7755L13523.2971,-3394.7589L13523.2849,-3394.7568L13523.2584,-3394.7627L13523.2196,-3394.7836L13523.192,-3394.7917L13523.1645,-3394.7993L13523.14,-3394.8044L13523.0866,-3394.8022L13523.0397,-3394.792L13522.9682,-3394.7619L13522.9468,-3394.7551L13522.9284,-3394.7516L13522.8696,-3394.7513L13522.8594,-3394.7581L13522.8432,-3394.7669L13522.8368,-3394.7736L13522.8335,-3394.7775L13522.8303,-3394.7782L13522.82,-3394.777L13522.8086,-3394.7731L13522.7992,-3394.7701L13522.7804,-3394.7608L13522.7716,-3394.7596L13522.7619,-3394.7601L13522.7587,-3394.7611L13522.7569,-3394.7657L13522.7516,-3394.7875L13522.7428,-3394.8103L13522.7228,-3394.8482L13522.7176,-3394.8521L13522.707,-3394.8512L13522.6958,-3394.8438L13522.6759,-3394.8284L13522.6674,-3394.8252L13522.6559,-3394.8272L13522.6406,-3394.8321L13522.633,-3394.8384L13522.6307,-3394.8453L13522.6242,-3394.8514L13522.6175,-3394.8568L13522.6142,-3394.8636L13522.6042,-3394.8818L13522.5989,-3394.8859L13522.5951,-3394.8837L13522.5851,-3394.8764L13522.5716,-3394.8578L13522.5617,-3394.8419L13522.5523,-3394.8193L13522.5479,-3394.8125L13522.5338,-3394.8113L13522.5182,-3394.8154L13522.5,-3394.8199L13522.4845,-3394.8238L13522.4739,-3394.8257L13522.4677,-3394.8299L13522.4595,-3394.8556L13522.456,-3394.8681L13522.453,-3394.8666L13522.4483,-3394.8595L13522.4351,-3394.8323L13522.4243,-3394.7935L13522.3976,-3394.7994L13522.3705,-3394.8047L13522.3603,-3394.8144L13522.349,-3394.8417L13522.3448,-3394.8518L13522.3398,-3394.8637L13522.3383,-3394.8803L13522.3404,-3394.9216L13522.3363,-3394.9507L13522.3231,-3394.9822L13522.3231,-3395L13522.3231,-3395.0022L13522.3307,-3395.0166L13522.3562,-3395.0413L13522.3644,-3395.0583L13522.3649,-3395.0742L13522.3649,-3395.0917L13522.3516,-3395.1252L13522.351,-3395.1259L13522.3374,-3395.1415L13522.3019,-3395.1819L13522.2713,-3395.2359L13522.255,-3395.2512L13522.2269,-3395.2631L13522.2121,-3395.2784L13522.1999,-3395.2844L13522.1805,-3395.2869L13522.1534,-3395.2861L13522.1131,-3395.2742L13522.0774,-3395.2682L13522.0399,-3395.2627L13521.9817,-3395.255L13521.9547,-3395.2521L13521.9322,-3395.2525L13521.8473,-3395.2908L13521.8263,-3395.295L13521.8141,-3395.2942L13521.7687,-3395.2716L13521.737,-3395.2606L13521.7277,-3395.2596L13521.6667,-3395.2533L13521.6547,-3395.2521L13521.6282,-3395.2483L13521.5827,-3395.2342L13521.5593,-3395.2347L13521.5261,-3395.2432L13521.4746,-3395.2691L13521.4633,-3395.2717L13521.4477,-3395.2687L13521.4304,-3395.2623L13521.3702,-3395.227L13521.3605,-3395.2249L13521.3503,-3395.2253L13521.3141,-3395.2389L13521.3049,-3395.2423L13521.2574,-3395.2512L13521.236,-3395.2551L13521.2168,-3395.2555L13521.1944,-3395.2538L13521.1684,-3395.2496L13521.1469,-3395.2385L13521.1026,-3395.2296L13521.075,-3395.2249L13521.052,-3395.2257L13520.9928,-3395.2461L13520.9716,-3395.2449L13520.9426,-3395.2343L13520.9247,-3395.2334L13520.9099,-3395.2334L13520.8787,-3395.2436L13520.8436,-3395.2619L13520.8333,-3395.2669L13520.815,-3395.2759L13520.7818,-3395.2964L13520.7511,-3395.305L13520.7379,-3395.3106L13520.7317,-3395.3191L13520.7247,-3395.3412L13520.7236,-3395.3446L13520.7154,-3395.3824L13520.7073,-3395.3964L13520.6774,-3395.4169L13520.6565,-3395.4267L13520.6453,-3395.428L13520.6059,-3395.4233L13520.5309,-3395.4071L13520.4853,-3395.3889L13520.469,-3395.3863L13520.443,-3395.3846L13520.4016,-3395.388L13520.3837,-3395.3884L13520.3305,-3395.3842L13520.2938,-3395.388L13520.2173,-3395.4088L13520.1836,-3395.4165L13520.141,-3395.4152L13520.0772,-3395.419L13520.0486,-3395.4182L13520.0022,-3395.4114L13520,-3395.4112L13519.8912,-3395.4016L13519.8463,-3395.3948L13519.7764,-3395.3723L13519.7565,-3395.368L13519.7463,-3395.3825L13519.7352,-3395.4059L13519.7162,-3395.4458L13519.6782,-3395.4872L13519.6379,-3395.5136L13519.5756,-3395.5417L13519.5292,-3395.5625L13519.5167,-3395.5661L13519.436,-3395.5897L13519.4171,-3395.5931L13519.3916,-3395.5909L13519.2773,-3395.5727L13519.2523,-3395.5731L13519.1667,-3395.5827L13519.1178,-3395.5881L13519.0576,-3395.5885L13519.032,-3395.5898L13519.0132,-3395.5936L13518.9907,-3395.6123L13518.9831,-3395.6204L13518.9754,-3395.6234L13518.9478,-3395.6217L13518.9111,-3395.6255L13518.8764,-3395.6357L13518.8344,-3395.6509L13518.8135,-3395.6619L13518.7951,-3395.6811L13518.7738,-3395.7029L13518.7548,-3395.7223L13518.7338,-3395.735L13518.6991,-3395.7439L13518.6889,-3395.741L13518.6712,-3395.724L13518.6487,-3395.7074L13518.6299,-3395.7006L13518.6171,-3395.6977L13518.5967,-3395.6998L13518.5661,-3395.7176L13518.5304,-3395.7495L13518.5094,-3395.761L13518.4895,-3395.7678L13518.4696,-3395.7674L13518.4528,-3395.7669L13518.4233,-3395.7545L13518.3901,-3395.7405L13518.3877,-3395.7395L13518.3663,-3395.7352L13518.3438,-3395.7344L13518.3333,-3395.7349L13518.3168,-3395.7357L13518.3076,-3395.731L13518.2994,-3395.7169L13518.2877,-3395.7038L13518.2407,-3395.6842L13518.1958,-3395.6612L13518.1678,-3395.6489L13518.1134,-3395.6447L13518.0946,-3395.6472L13518.0675,-3395.6442L13517.9591,-3395.6209L13517.8994,-3395.606L13517.8682,-3395.5958L13517.8422,-3395.5937L13517.806,-3395.5988L13517.7978,-3395.6073L13517.7836,-3395.6466L13517.7564,-3395.7215L13517.7427,-3395.7636L13517.7437,-3395.7738L13517.7636,-3395.8091L13517.7656,-3395.8197L13517.7634,-3395.8333L13517.7544,-3395.8884L13517.7539,-3395.9071L13517.7677,-3395.9941L13517.7677,-3396.0791L13517.7687,-3396.0978L13517.7886,-3396.1429L13517.7932,-3396.1657L13517.7932,-3396.1785L13517.7906,-3396.1947L13517.7881,-3396.2099L13517.782,-3396.2409L13517.7743,-3396.3298L13517.7732,-3396.3692L13517.7696,-3396.4041L13517.761,-3396.4257L13517.7079,-3396.4232L13517.6732,-3396.4287L13517.6497,-3396.4347L13517.627,-3396.4519L13517.6061,-3396.4578L13517.5964,-3396.4587L13517.5781,-3396.4556L13517.5781,-3397.5166L13517.6073,-3397.5234L13517.6389,-3397.5315L13517.6537,-3397.5481L13517.6609,-3397.583L13517.6611,-3397.5963L13517.6625,-3397.6738L13517.6681,-3397.6874L13517.7201,-3397.755L13517.7324,-3397.7792L13517.7385,-3397.803L13517.7405,-3397.8173L13517.7431,-3397.8365L13517.7456,-3397.8458L13517.7538,-3397.859L13517.7911,-3397.8964L13517.7951,-3397.9126L13517.7921,-3397.9308L13517.769,-3397.977L13517.7527,-3398.0093L13517.7413,-3398.0416L13517.7399,-3398.0455L13517.7333,-3398.0595L13517.7216,-3398.0701L13517.6954,-3398.0791L13517.6797,-3398.0846L13517.6736,-3398.0927L13517.6659,-3398.1105L13517.6547,-3398.1691L13517.6547,-3398.17L13517.6562,-3398.198L13517.6557,-3398.2146L13517.6516,-3398.2481L13517.645,-3398.2758L13517.629,-3398.3181L13517.6172,-3398.3333L13517.6066,-3398.3469L13517.5781,-3398.3687L13517.5781,-3398.4433L13517.5904,-3398.4581L13517.6026,-3398.4875L13517.6031,-3398.5211L13517.6006,-3398.5783L13517.5985,-3398.6242L13517.6008,-3398.6433L13517.6026,-3398.6591L13517.6072,-3398.685L13517.6067,-3398.7252L13517.6021,-3398.7418L13517.5866,-3398.7667L13517.5781,-3398.7804Z"/>
<path content="和歌山県,,有田郡,有田川町,,30366" xlink:title="和歌山県" d="M13535.1562,-3410.1562L13535.1562,-3400.5452L13535.1361,-3400.5599L13535.1155,-3400.5724L13535.1052,-3400.5731L13535.0883,-3400.5724L13535.0433,-3400.556L13535.019,-3400.556L13535,-3400.562L13534.9824,-3400.5677L13534.9665,-3400.5653L13534.9439,-3400.5599L13534.9346,-3400.5606L13534.8877,-3400.5762L13534.8633,-3400.5809L13534.8324,-3400.5786L13534.7883,-3400.5926L13534.7494,-3400.5895L13534.7175,-3400.5708L13534.6734,-3400.5443L13534.6481,-3400.5334L13534.6153,-3400.524L13534.6137,-3400.5228L13534.605,-3400.5162L13534.5844,-3400.4866L13534.5784,-3400.473L13534.5703,-3400.4546L13534.4492,-3400.4829L13534.3613,-3400.4983L13534.3453,-3400.4975L13534.3153,-3400.4881L13534.3034,-3400.5004L13534.2956,-3400.5084L13534.2731,-3400.5076L13534.1949,-3400.4951L13534.1799,-3400.4906L13534.1667,-3400.4866L13534.1536,-3400.4827L13534.0599,-3400.4983L13534.043,-3400.5006L13534.0186,-3400.4944L13534.0017,-3400.4928L13533.9839,-3400.4967L13533.9616,-3400.5012L13533.8836,-3400.517L13533.8564,-3400.5271L13533.8255,-3400.5474L13533.7472,-3400.5451L13533.7097,-3400.5498L13533.6525,-3400.5631L13533.6159,-3400.567L13533.5878,-3400.5677L13533.5672,-3400.5732L13533.5278,-3400.5997L13533.5236,-3400.6031L13533.5091,-3400.6146L13533.4753,-3400.6621L13533.4543,-3400.6749L13533.3803,-3400.7029L13533.3334,-3400.7271L13533.3333,-3400.7271L13533.3213,-3400.7263L13533.2528,-3400.6982L13533.2125,-3400.685L13533.1825,-3400.6756L13533.1534,-3400.6741L13533.1,-3400.6819L13533.0592,-3400.6749L13533.0222,-3400.6676L13532.9833,-3400.6601L13532.9364,-3400.6437L13532.927,-3400.6468L13532.9177,-3400.6561L13532.9027,-3400.678L13532.8839,-3400.6951L13532.8596,-3400.7107L13532.8174,-3400.7232L13532.7874,-3400.7256L13532.7686,-3400.7318L13532.7161,-3400.7614L13532.6449,-3400.7903L13532.6051,-3400.821L13532.577,-3400.8294L13532.5685,-3400.8319L13532.56,-3400.8333L13532.517,-3400.8405L13532.5039,-3400.8475L13532.5,-3400.8523L13532.4851,-3400.8709L13532.471,-3400.8725L13532.4195,-3400.8592L13532.3998,-3400.8569L13532.3417,-3400.8686L13532.3079,-3400.8592L13532.2768,-3400.8333L13532.2564,-3400.8163L13532.2408,-3400.8116L13532.209,-3400.8085L13532.1949,-3400.7991L13532.1799,-3400.7773L13532.1039,-3400.7453L13532.0309,-3400.7227L13531.9971,-3400.7032L13531.9643,-3400.6782L13531.9465,-3400.6728L13531.9062,-3400.6868L13531.8237,-3400.7188L13531.8084,-3400.72L13531.7988,-3400.7208L13531.7819,-3400.7192L13531.7548,-3400.7122L13531.7154,-3400.7005L13531.7032,-3400.7013L13531.6723,-3400.7091L13531.6667,-3400.7094L13531.6543,-3400.71L13531.6205,-3400.7045L13531.6017,-3400.7053L13531.5935,-3400.7083L13531.5483,-3400.7248L13531.5211,-3400.7264L13531.4724,-3400.7271L13531.4133,-3400.7521L13531.3805,-3400.7584L13531.3477,-3400.7708L13531.3177,-3400.7739L13531.3018,-3400.7708L13531.2933,-3400.7552L13531.2905,-3400.745L13531.2783,-3400.7006L13531.239,-3400.664L13531.2189,-3400.6514L13531.1504,-3400.5882L13531.1201,-3400.5622L13531.0876,-3400.5344L13531.0642,-3400.5211L13531.0597,-3400.5198L13531.0454,-3400.5157L13530.9845,-3400.5141L13530.9133,-3400.5234L13530.8674,-3400.5227L13530.8519,-3400.5193L13530.8333,-3400.5092L13530.7919,-3400.4866L13530.7432,-3400.4874L13530.6963,-3400.4717L13530.6815,-3400.4707L13530.6626,-3400.4694L13530.6457,-3400.4764L13530.6176,-3400.499L13530.6092,-3400.4975L13530.5435,-3400.4725L13530.5135,-3400.4499L13530.4854,-3400.4398L13530.4188,-3400.4289L13530.402,-3400.4179L13530.3312,-3400.3749L13530.3162,-3400.3694L13530.2815,-3400.3788L13530.2477,-3400.3687L13530.2131,-3400.3538L13530.1971,-3400.3546L13530.1409,-3400.3702L13530.0968,-3400.4006L13530.0771,-3400.4084L13530,-3400.4191L13529.9642,-3400.4241L13529.9058,-3400.4252L13529.8817,-3400.4256L13529.8748,-3400.4266L13529.8602,-3400.4287L13529.8377,-3400.4397L13529.773,-3400.4856L13529.7542,-3400.4978L13529.7188,-3400.5206L13529.7056,-3400.5291L13529.6727,-3400.5504L13529.6408,-3400.5668L13529.602,-3400.5796L13529.5879,-3400.5929L13529.5542,-3400.628L13529.4904,-3400.7013L13529.4736,-3400.7294L13529.4651,-3400.7294L13529.4426,-3400.7114L13529.4098,-3400.6685L13529.3554,-3400.6326L13529.3161,-3400.5983L13529.2614,-3400.5402L13529.2492,-3400.5222L13529.252,-3400.4911L13529.2417,-3400.4723L13529.2189,-3400.4465L13529.1845,-3400.4076L13529.1808,-3400.3904L13529.1808,-3400.3491L13529.1762,-3400.3331L13529.1694,-3400.3165L13529.1667,-3400.3093L13529.1644,-3400.3035L13529.1097,-3400.2519L13529.0919,-3400.2306L13529.0848,-3400.1767L13529.0684,-3400.1607L13529.0407,-3400.1394L13529.0316,-3400.1404L13529.0237,-3400.1412L13529.0031,-3400.1737L13528.9839,-3400.1921L13528.9526,-3400.2182L13528.9127,-3400.233L13528.8921,-3400.2502L13528.8559,-3400.3159L13528.8419,-3400.3331L13528.7978,-3400.3639L13528.75,-3400.3693L13528.6863,-3400.3717L13528.6187,-3400.3904L13528.5784,-3400.392L13528.5063,-3400.4106L13528.4046,-3400.4372L13528.3774,-3400.4497L13528.338,-3400.477L13528.3333,-3400.4753L13528.323,-3400.4716L13528.2827,-3400.4521L13528.2452,-3400.4521L13528.2321,-3400.4435L13528.2211,-3400.4301L13528.1899,-3400.392L13528.1777,-3400.3897L13528.1252,-3400.406L13528.0615,-3400.4404L13528.0394,-3400.4435L13528.0169,-3400.4302L13527.9841,-3400.4224L13527.9279,-3400.4224L13527.9129,-3400.4552L13527.866,-3400.502L13527.8014,-3400.5652L13527.7814,-3400.5805L13527.7495,-3400.5914L13527.7223,-3400.6093L13527.7036,-3400.6179L13527.6811,-3400.6242L13527.6436,-3400.6296L13527.6164,-3400.6429L13527.5517,-3400.685L13527.5292,-3400.6936L13527.5161,-3400.6951L13527.5,-3400.6931L13527.4608,-3400.6881L13527.4192,-3400.6858L13527.4004,-3400.6913L13527.3836,-3400.7014L13527.3695,-3400.7162L13527.3573,-3400.7373L13527.3429,-3400.7669L13527.3292,-3400.795L13527.3236,-3400.8021L13527.2992,-3400.8122L13527.2711,-3400.813L13527.2542,-3400.8208L13527.2363,-3400.8333L13527.2186,-3400.8457L13527.2024,-3400.8625L13527.1283,-3400.9296L13527.1142,-3400.9424L13527.0974,-3400.9577L13527.0514,-3400.9733L13527.0243,-3400.9865L13527.0121,-3400.9959L13526.9849,-3401.1098L13526.9735,-3401.1743L13526.9585,-3401.2125L13526.9407,-3401.2297L13526.9257,-3401.2406L13526.9098,-3401.2577L13526.8967,-3401.2843L13526.8929,-3401.3124L13526.8995,-3401.3631L13526.9312,-3401.3669L13526.9445,-3401.3685L13526.9614,-3401.3814L13526.9913,-3401.4267L13527.0007,-3401.4454L13526.9998,-3401.4665L13526.9838,-3401.4758L13526.9388,-3401.5125L13526.8912,-3401.5375L13526.8738,-3401.5387L13526.8536,-3401.5327L13526.8016,-3401.5206L13526.7575,-3401.5212L13526.7121,-3401.529L13526.7047,-3401.5302L13526.6667,-3401.5211L13526.6549,-3401.5182L13526.6057,-3401.5086L13526.6007,-3401.5083L13526.5768,-3401.5068L13526.5212,-3401.5122L13526.4735,-3401.5266L13526.4521,-3401.5219L13526.4384,-3401.5026L13526.4109,-3401.4605L13526.3748,-3401.4515L13526.3509,-3401.4467L13526.3018,-3401.4299L13526.2505,-3401.4052L13526.1916,-3401.3954L13526.1693,-3401.3882L13526.1129,-3401.3611L13526.0579,-3401.3665L13526.0276,-3401.3689L13525.9647,-3401.3659L13525.9525,-3401.3687L13525.9221,-3401.3756L13525.8827,-3401.3877L13525.8617,-3401.4027L13525.8473,-3401.4068L13525.8333,-3401.4108L13525.7547,-3401.4334L13525.7121,-3401.4394L13525.7026,-3401.4406L13525.6579,-3401.446L13525.6182,-3401.4412L13525.5813,-3401.4448L13525.5051,-3401.4556L13525.4784,-3401.4448L13525.396,-3401.422L13525.3606,-3401.4232L13525.3251,-3401.4177L13525.289,-3401.4075L13525.2673,-3401.4069L13525.2037,-3401.4177L13525.1058,-3401.4256L13525.0711,-3401.425L13525.0458,-3401.4237L13525.0053,-3401.4153L13525,-3401.4143L13524.9569,-3401.4057L13524.9251,-3401.3853L13524.902,-3401.3757L13524.8706,-3401.3756L13524.8374,-3401.3804L13524.8243,-3401.378L13524.7882,-3401.3672L13524.7535,-3401.3732L13524.7225,-3401.3773L13524.6827,-3401.4089L13524.6617,-3401.422L13524.6442,-3401.4264L13524.6214,-3401.4298L13524.6045,-3401.4288L13524.5467,-3401.4206L13524.5059,-3401.4181L13524.4491,-3401.4162L13524.3563,-3401.423L13524.3108,-3401.4944L13524.282,-3401.5291L13524.2202,-3401.582L13524.1667,-3401.6135L13524.1664,-3401.6137L13524.0591,-3401.6627L13524.0445,-3401.6667L13524.0279,-3401.6712L13523.9959,-3401.6741L13523.9888,-3401.6756L13523.9164,-3401.7163L13523.8837,-3401.7397L13523.8726,-3401.7528L13523.8597,-3401.7791L13523.8492,-3401.7898L13523.8399,-3401.799L13523.8124,-3401.8087L13523.7903,-3401.8199L13523.7797,-3401.8301L13523.7634,-3401.851L13523.7511,-3401.893L13523.7476,-3401.9036L13523.7388,-3401.9138L13523.7271,-3401.9211L13523.6879,-3401.9392L13523.6792,-3401.947L13523.6716,-3401.9611L13523.6623,-3401.9829L13523.6547,-3402.0151L13523.6517,-3402.0666L13523.6541,-3402.1239L13523.6553,-3402.1527L13523.6552,-3402.1836L13523.6611,-3402.2011L13523.671,-3402.22L13523.6873,-3402.2399L13523.7008,-3402.2541L13523.7194,-3402.2657L13523.7306,-3402.2774L13523.7469,-3402.3235L13523.7563,-3402.345L13523.7615,-3402.3606L13523.7597,-3402.3727L13523.7551,-3402.3877L13523.7423,-3402.4102L13523.7214,-3402.3967L13523.7047,-3402.3891L13523.6918,-3402.3844L13523.6725,-3402.3822L13523.6561,-3402.3844L13523.6493,-3402.3869L13523.636,-3402.3996L13523.6212,-3402.4173L13523.6117,-3402.4378L13523.6087,-3402.4431L13523.6037,-3402.4518L13523.5968,-3402.4593L13523.5862,-3402.4657L13523.558,-3402.4797L13523.5117,-3402.5L13523.4571,-3402.5239L13523.4354,-3402.5373L13523.4103,-3402.5591L13523.4023,-3402.5679L13523.3989,-3402.5761L13523.394,-3402.6456L13523.3951,-3402.6936L13523.3898,-3402.7657L13523.3773,-3402.802L13523.3708,-3402.8115L13523.367,-3402.8137L13523.3336,-3402.8157L13523.3333,-3402.8158L13523.3172,-3402.8201L13523.3123,-3402.8239L13523.2807,-3402.8714L13523.2557,-3402.8941L13523.234,-3402.9198L13523.2237,-3402.94L13523.1998,-3402.9982L13523.196,-3403.0396L13523.1911,-3403.0586L13523.1834,-3403.0814L13523.1777,-3403.0884L13523.1709,-3403.0919L13523.1618,-3403.0922L13523.1337,-3403.0887L13523.1068,-3403.0887L13523.0646,-3403.0916L13523.0575,-3403.0926L13523.013,-3403.0991L13522.9879,-3403.1061L13522.9457,-3403.1272L13522.9088,-3403.158L13522.8747,-3403.1785L13522.8625,-3403.1902L13522.853,-3403.2041L13522.8329,-3403.2459L13522.8234,-3403.2671L13522.8165,-3403.2881L13522.8093,-3403.295L13522.8002,-3403.3004L13522.7713,-3403.3073L13522.7337,-3403.3174L13522.72,-3403.3206L13522.7147,-3403.3196L13522.7056,-3403.3149L13522.6852,-3403.2853L13522.6759,-3403.2747L13522.6636,-3403.2711L13522.6548,-3403.2699L13522.631,-3403.2743L13522.6121,-3403.2765L13522.5963,-3403.2772L13522.5562,-3403.2721L13522.5434,-3403.2717L13522.5355,-3403.2743L13522.5117,-3403.293L13522.5,-3403.3003L13522.4695,-3403.3194L13522.4616,-3403.3219L13522.4545,-3403.3223L13522.4271,-3403.3128L13522.4183,-3403.3066L13522.4077,-3403.2934L13522.4011,-3403.2764L13522.3967,-3403.2486L13522.3896,-3403.2354L13522.3703,-3403.2109L13522.3553,-3403.1966L13522.3333,-3403.1808L13522.3117,-3403.1573L13522.302,-3403.15L13522.2906,-3403.1463L13522.2571,-3403.1432L13522.2559,-3403.1431L13522.2171,-3403.1419L13522.2035,-3403.1394L13522.1898,-3403.1302L13522.1687,-3403.1078L13522.1511,-3403.0957L13522.1374,-3403.0914L13522.1189,-3403.0881L13522.0916,-3403.0881L13522.0666,-3403.0899L13522.0229,-3403.1023L13521.997,-3403.1049L13521.9864,-3403.1049L13521.923,-3403.0943L13521.9059,-3403.0961L13521.8626,-3403.1067L13521.8494,-3403.1078L13521.842,-3403.1064L13521.8129,-3403.0859L13521.8037,-3403.0822L13521.7777,-3403.0745L13521.7464,-3403.0701L13521.6989,-3403.0653L13521.6778,-3403.0671L13521.6677,-3403.0708L13521.6667,-3403.0717L13521.6606,-3403.0767L13521.654,-3403.091L13521.6377,-3403.1133L13521.6263,-3403.1254L13521.61,-3403.1371L13521.6034,-3403.1496L13521.5954,-3403.1761L13521.5946,-3403.2036L13521.5906,-3403.2142L13521.5765,-3403.2252L13521.5457,-3403.2406L13521.5245,-3403.2531L13521.5069,-3403.263L13521.492,-3403.2773L13521.4792,-3403.3026L13521.4753,-3403.3106L13521.4651,-3403.3194L13521.4436,-3403.3333L13521.4418,-3403.3345L13521.4273,-3403.3451L13521.422,-3403.3539L13521.4189,-3403.3763L13521.4154,-3403.4015L13521.4047,-3403.4326L13521.4035,-3403.4361L13521.3819,-3403.4771L13521.3727,-3403.4906L13521.3577,-3403.5001L13521.3124,-3403.5232L13521.2974,-3403.5383L13521.2758,-3403.5636L13521.2648,-3403.5731L13521.2502,-3403.5819L13521.2269,-3403.5904L13521.2057,-3403.5922L13521.1574,-3403.5882L13521.1446,-3403.5885L13521.1217,-3403.5962L13521.1098,-3403.605L13521.0922,-3403.6248L13521.0706,-3403.6519L13521.0574,-3403.6647L13521.0442,-3403.6764L13521.0195,-3403.6999L13521.0072,-3403.7091L13520.9953,-3403.7106L13520.9795,-3403.7076L13520.9711,-3403.7051L13520.9641,-3403.6985L13520.9513,-3403.6779L13520.9447,-3403.6688L13520.9319,-3403.6618L13520.9271,-3403.6618L13520.913,-3403.6662L13520.9033,-3403.6706L13520.8958,-3403.6717L13520.8927,-3403.6714L13520.8862,-3403.6662L13520.8787,-3403.656L13520.8716,-3403.6354L13520.8614,-3403.6151L13520.8438,-3403.5672L13520.8337,-3403.5507L13520.8333,-3403.5505L13520.8227,-3403.5438L13520.8126,-3403.5394L13520.8038,-3403.5398L13520.7919,-3403.5434L13520.7593,-3403.5625L13520.7315,-3403.5757L13520.7152,-3403.583L13520.702,-3403.5841L13520.6946,-3403.583L13520.6865,-3403.5767L13520.6827,-3403.5738L13520.6774,-3403.572L13520.6651,-3403.572L13520.6475,-3403.5713L13520.6342,-3403.569L13520.5845,-3403.5522L13520.5735,-3403.5507L13520.5594,-3403.5526L13520.5308,-3403.5617L13520.5238,-3403.5621L13520.4462,-3403.5485L13520.4097,-3403.546L13520.3956,-3403.5456L13520.3454,-3403.5526L13520.3301,-3403.5533L13520.3217,-3403.5515L13520.2969,-3403.5383L13520.2881,-3403.5372L13520.256,-3403.5394L13520.2169,-3403.5441L13520.2098,-3403.5427L13520.1961,-3403.5346L13520.1728,-3403.517L13520.1645,-3403.5148L13520.1574,-3403.5141L13520.1407,-3403.5184L13520.1288,-3403.5221L13520.1217,-3403.5225L13520.1165,-3403.5214L13520.101,-3403.5127L13520.0731,-3403.4971L13520.0588,-3403.4891L13520.0174,-3403.4706L13520,-3403.4677L13519.9868,-3403.4655L13519.9364,-3403.4546L13519.9171,-3403.451L13519.903,-3403.4495L13519.8987,-3403.4514L13519.8921,-3403.4592L13519.8846,-3403.48L13519.8761,-3403.5012L13519.8685,-3403.5094L13519.8624,-3403.5114L13519.8323,-3403.5138L13519.7974,-3403.5239L13519.7714,-3403.5396L13519.7427,-3403.5498L13519.7347,-3403.5514L13519.7244,-3403.5518L13519.7178,-3403.5494L13519.7008,-3403.5338L13519.6999,-3403.533L13519.682,-3403.5106L13519.674,-3403.4914L13519.6656,-3403.4789L13519.6613,-3403.4757L13519.6505,-3403.473L13519.6288,-3403.4734L13519.6029,-3403.4781L13519.5869,-3403.4869L13519.5765,-3403.4926L13519.5629,-3403.5048L13519.5544,-3403.5099L13519.5143,-3403.5217L13519.4865,-3403.5287L13519.4573,-3403.537L13519.4484,-3403.5421L13519.4455,-3403.546L13519.4455,-3403.5503L13519.4502,-3403.5566L13519.478,-3403.5723L13519.4917,-3403.5832L13519.4973,-3403.5918L13519.5025,-3403.6193L13519.507,-3403.6478L13519.5091,-3403.6609L13519.5195,-3403.6762L13519.5283,-3403.6888L13519.5345,-3403.6977L13519.5373,-3403.713L13519.5355,-3403.7486L13519.5383,-3403.7713L13519.5444,-3403.808L13519.5444,-3403.8081L13519.5411,-3403.8311L13519.5406,-3403.834L13519.5411,-3403.8544L13519.5538,-3403.8857L13519.5557,-3403.9109L13519.5614,-3403.9434L13519.5595,-3403.9567L13519.5449,-3403.9843L13519.5373,-3404.0104L13519.535,-3404.0183L13519.5333,-3404.0237L13519.5327,-3404.0257L13519.5275,-3404.0293L13519.5025,-3404.0399L13519.4719,-3404.0493L13519.4601,-3404.0517L13519.4048,-3404.0522L13519.4045,-3404.0522L13519.4013,-3404.0523L13519.3839,-3404.0525L13519.3837,-3404.0524L13519.3773,-3404.0513L13519.3519,-3404.0402L13519.3463,-3404.039L13519.334,-3404.0366L13519.3258,-3404.0369L13519.3173,-3404.0402L13519.3117,-3404.0444L13519.3062,-3404.0505L13519.304,-3404.059L13519.3032,-3404.0722L13519.3057,-3404.0861L13519.3126,-3404.0932L13519.322,-3404.0968L13519.3263,-3404.0993L13519.3298,-3404.1079L13519.3367,-3404.1358L13519.3466,-3404.1667L13519.3617,-3404.2138L13519.3662,-3404.2278L13519.3873,-3404.2932L13519.392,-3404.3078L13519.3927,-3404.3099L13519.3958,-3404.3268L13519.3998,-3404.3484L13519.4009,-3404.3542L13519.4034,-3404.359L13519.4182,-3404.3686L13519.4352,-3404.3796L13519.4364,-3404.3832L13519.4364,-3404.4156L13519.4282,-3404.4526L13519.4288,-3404.4636L13519.4459,-3404.4996L13519.4523,-3404.5191L13519.4529,-3404.5324L13519.4396,-3404.5704L13519.4244,-3404.5941L13519.406,-3404.6195L13519.3926,-3404.6445L13519.3819,-3404.664L13519.38,-3404.6772L13519.3806,-3404.6862L13519.3926,-3404.7031L13519.3952,-3404.7126L13519.3952,-3404.7253L13519.3914,-3404.7411L13519.3831,-3404.7527L13519.3729,-3404.7636L13519.3561,-3404.7737L13519.3368,-3404.7852L13519.3212,-3404.794L13519.3103,-3404.8001L13519.3095,-3404.8005L13519.3,-3404.8047L13519.2863,-3404.821L13519.2557,-3404.8469L13519.2211,-3404.8895L13519.1854,-3404.9202L13519.1796,-3404.9221L13519.1756,-3404.9212L13519.1667,-3404.9136L13519.1547,-3404.9034L13519.134,-3404.8707L13519.1271,-3404.8641L13519.1162,-3404.8602L13519.1068,-3404.8568L13519.0916,-3404.8499L13519.0676,-3404.8391L13519.0561,-3404.8376L13519.0514,-3404.8393L13519.0469,-3404.841L13519.0325,-3404.8554L13519.0291,-3404.8605L13519.0238,-3404.8688L13519.0209,-3404.8875L13519.0209,-3404.8913L13519.0284,-3404.9059L13519.033,-3404.9149L13519.0364,-3404.9217L13519.0549,-3404.9579L13519.0712,-3404.9886L13519.0744,-3405L13519.0755,-3405.0037L13519.0828,-3405.0294L13519.0855,-3405.0389L13519.0864,-3405.048L13519.084,-3405.0621L13519.0721,-3405.0871L13519.064,-3405.1149L13519.0421,-3405.1589L13519.0311,-3405.1944L13519.0039,-3405.2284L13518.9996,-3405.2348L13518.9987,-3405.2527L13519.0116,-3405.3211L13519.0168,-3405.354L13519.0326,-3405.3869L13519.0349,-3405.3985L13519.0349,-3405.3992L13519.0349,-3405.4259L13519.0278,-3405.4627L13519.0168,-3405.4843L13519.0011,-3405.5025L13518.9834,-3405.5184L13518.962,-3405.5362L13518.9338,-3405.5581L13518.9238,-3405.5664L13518.9143,-3405.5719L13518.8976,-3405.5755L13518.8385,-3405.5779L13518.8475,-3405.6092L13518.8485,-3405.626L13518.8504,-3405.6537L13518.8447,-3405.6784L13518.8275,-3405.7145L13518.8118,-3405.7349L13518.8018,-3405.7456L13518.776,-3405.7658L13518.7488,-3405.7912L13518.7086,-3405.8333L13518.7034,-3405.8387L13518.6759,-3405.8856L13518.663,-3405.8964L13518.6412,-3405.922L13518.6387,-3405.9321L13518.6425,-3405.9896L13518.6367,-3406.0728L13518.6321,-3406.1207L13518.6348,-3406.1527L13518.643,-3406.1544L13518.6618,-3406.1642L13518.6927,-3406.1736L13518.7065,-3406.179L13518.7214,-3406.1886L13518.742,-3406.2027L13518.7503,-3406.2118L13518.755,-3406.228L13518.7597,-3406.2605L13518.7663,-3406.2823L13518.7677,-3406.3009L13518.7663,-3406.3084L13518.7609,-3406.3181L13518.7348,-3406.3512L13518.733,-3406.3626L13518.7327,-3406.3701L13518.7363,-3406.388L13518.7413,-3406.4003L13518.7627,-3406.4338L13518.7746,-3406.4564L13518.7768,-3406.4657L13518.777,-3406.4684L13518.7772,-3406.4715L13518.7721,-3406.5027L13518.7739,-3406.5087L13518.7768,-3406.513L13518.8003,-3406.5286L13518.8397,-3406.5504L13518.873,-3406.563L13518.8874,-3406.5651L13518.9392,-3406.57L13518.9597,-3406.5739L13518.9807,-3406.5793L13519.0071,-3406.5931L13519.0343,-3406.601L13519.0441,-3406.6044L13519.0482,-3406.6069L13519.0526,-3406.6115L13519.0568,-3406.6263L13519.0631,-3406.648L13519.0684,-3406.6667L13519.0691,-3406.669L13519.0704,-3406.6744L13519.0713,-3406.6783L13519.0721,-3406.6817L13519.0781,-3406.7082L13519.1009,-3406.8102L13519.1147,-3406.8788L13519.1299,-3406.9476L13519.1335,-3406.9638L13519.1393,-3406.9892L13519.1417,-3407.0001L13519.1441,-3407.0105L13519.1538,-3407.0532L13519.1667,-3407.1075L13519.1683,-3407.1142L13519.1667,-3407.1149L13519.1457,-3407.1241L13519.1595,-3407.1509L13519.1667,-3407.1626L13519.2101,-3407.2335L13519.2346,-3407.2701L13519.2027,-3407.2745L13519.198,-3407.3115L13519.1983,-3407.3407L13519.203,-3407.3912L13519.2045,-3407.4225L13519.2128,-3407.466L13519.2191,-3407.5L13519.2223,-3407.5172L13519.2272,-3407.5366L13519.2451,-3407.5786L13519.2624,-3407.6306L13519.2845,-3407.677L13519.3007,-3407.7195L13519.2706,-3407.7565L13519.2491,-3407.7839L13519.2193,-3407.8153L13519.2106,-3407.8259L13519.2049,-3407.8329L13519.1944,-3407.8566L13519.1843,-3407.8931L13519.1846,-3407.8993L13519.188,-3407.9136L13519.1934,-3407.934L13519.1934,-3407.9509L13519.1907,-3407.9652L13519.1856,-3407.9758L13519.167,-3408.0097L13519.1667,-3408.0111L13519.1532,-3408.0657L13519.1437,-3408.0858L13519.1319,-3408.1107L13519.1068,-3408.1513L13519.099,-3408.1634L13519.0909,-3408.171L13519.0805,-3408.1792L13519.0244,-3408.2093L13519.0192,-3408.2132L13519.0176,-3408.2164L13519.017,-3408.2263L13519.0192,-3408.2343L13519.0317,-3408.2631L13519.041,-3408.2851L13519.0416,-3408.2939L13519.0397,-3408.299L13519.0098,-3408.3306L13519.0087,-3408.3333L13519.0034,-3408.3459L13518.9983,-3408.3729L13518.9868,-3408.3968L13518.9607,-3408.4302L13518.9528,-3408.4451L13518.9407,-3408.4678L13518.9108,-3408.5536L13518.9061,-3408.5697L13518.9065,-3408.5789L13518.9103,-3408.5978L13518.909,-3408.6071L13518.8938,-3408.6319L13518.8891,-3408.6434L13518.8872,-3408.648L13518.8863,-3408.6545L13518.8848,-3408.6652L13518.9123,-3408.7346L13518.9151,-3408.7454L13518.9133,-3408.7601L13518.8974,-3408.8066L13518.8928,-3408.8329L13518.8974,-3408.85L13518.9049,-3408.8624L13518.9151,-3408.8747L13518.9151,-3408.8825L13518.9123,-3408.8895L13518.9062,-3408.9024L13518.9002,-3408.915L13518.9039,-3408.9329L13518.9021,-3408.9553L13518.8871,-3408.996L13518.8862,-3408.9967L13518.8554,-3409.0216L13518.7985,-3409.0417L13518.7911,-3409.0471L13518.7855,-3409.0603L13518.7855,-3409.0781L13518.7901,-3409.0982L13518.7926,-3409.1252L13518.7964,-3409.1667L13518.7976,-3409.1792L13518.7948,-3409.2342L13518.7752,-3409.2613L13518.7491,-3409.2931L13518.7379,-3409.3194L13518.723,-3409.3702L13518.7081,-3409.395L13518.6755,-3409.4175L13518.6699,-3409.4237L13518.6699,-3409.4299L13518.6885,-3409.4446L13518.7062,-3409.4725L13518.7304,-3409.5073L13518.736,-3409.5352L13518.7379,-3409.6041L13518.7332,-3409.6305L13518.7323,-3409.6658L13518.7388,-3409.7301L13518.7526,-3409.8063L13518.8293,-3409.7822L13518.8498,-3409.7722L13518.8656,-3409.7714L13518.8954,-3409.7791L13518.9578,-3409.8024L13519.0214,-3409.8319L13519.04,-3409.8373L13519.054,-3409.8381L13519.0949,-3409.8327L13519.1192,-3409.8288L13519.1368,-3409.8319L13519.1489,-3409.8358L13519.1667,-3409.8423L13519.1825,-3409.8482L13519.2141,-3409.852L13519.2374,-3409.8544L13519.2579,-3409.8513L13519.3026,-3409.8342L13519.3412,-3409.8203L13519.3654,-3409.8195L13519.3766,-3409.8242L13519.397,-3409.8427L13519.4147,-3409.8521L13519.4399,-3409.8606L13519.4855,-3409.8629L13519.5267,-3409.8691L13519.5743,-3409.8839L13519.5966,-3409.8862L13519.6254,-3409.8877L13519.6432,-3409.8844L13519.6543,-3409.8823L13519.6706,-3409.8725L13519.6878,-3409.8622L13519.7121,-3409.8521L13519.7521,-3409.8436L13519.7693,-3409.8453L13519.7912,-3409.8475L13519.807,-3409.8544L13519.8228,-3409.8653L13519.8312,-3409.8722L13519.8405,-3409.8908L13519.8489,-3409.897L13519.8787,-3409.9164L13519.9255,-3409.9452L13519.9516,-3409.9692L13519.9676,-3410L13519.9693,-3410.0032L13519.9767,-3410.0071L13520,-3410.0117L13520.0437,-3410.0203L13520.0791,-3410.0272L13520.1145,-3410.0288L13520.1782,-3410.0367L13520.2154,-3410.0467L13520.2601,-3410.0584L13520.2676,-3410.0591L13520.2696,-3410.057L13520.2819,-3410.044L13520.2881,-3410.0374L13520.2936,-3410.0336L13520.3234,-3410.0336L13520.3719,-3410.0227L13520.417,-3410.0184L13520.4619,-3410.0142L13520.5022,-3410.0104L13520.5339,-3410.0181L13520.5553,-3410.0328L13520.5888,-3410.0568L13520.6142,-3410.0763L13520.6133,-3410.0848L13520.6101,-3410.0915L13520.604,-3410.1041L13520.6068,-3410.1096L13520.6306,-3410.1266L13520.6626,-3410.1493L13520.6723,-3410.1562Z"/>
<path content="和歌山県,,日高郡,日高町,,30382" xlink:title="和歌山県" d="M13517.5781,-3398.3687L13517.6066,-3398.3469L13517.6172,-3398.3333L13517.629,-3398.3181L13517.645,-3398.2758L13517.6516,-3398.2481L13517.6557,-3398.2146L13517.6562,-3398.198L13517.6547,-3398.17L13517.6547,-3398.1691L13517.6659,-3398.1105L13517.6736,-3398.0927L13517.6797,-3398.0846L13517.6954,-3398.0791L13517.7216,-3398.0701L13517.7333,-3398.0595L13517.7399,-3398.0455L13517.7413,-3398.0416L13517.7527,-3398.0093L13517.769,-3397.977L13517.7921,-3397.9308L13517.7951,-3397.9126L13517.7911,-3397.8964L13517.7538,-3397.859L13517.7456,-3397.8458L13517.7431,-3397.8365L13517.7405,-3397.8173L13517.7385,-3397.803L13517.7324,-3397.7792L13517.7201,-3397.755L13517.6681,-3397.6874L13517.6625,-3397.6738L13517.6611,-3397.5963L13517.6609,-3397.583L13517.6537,-3397.5481L13517.6389,-3397.5315L13517.6073,-3397.5234L13517.5781,-3397.5166L13517.5781,-3396.4556L13517.5964,-3396.4587L13517.6061,-3396.4578L13517.627,-3396.4519L13517.6497,-3396.4347L13517.6732,-3396.4287L13517.7079,-3396.4232L13517.761,-3396.4257L13517.7696,-3396.4041L13517.7732,-3396.3692L13517.7743,-3396.3298L13517.782,-3396.2409L13517.7881,-3396.2099L13517.7906,-3396.1947L13517.7932,-3396.1785L13517.7932,-3396.1657L13517.7886,-3396.1429L13517.7687,-3396.0978L13517.7677,-3396.0791L13517.7677,-3395.9941L13517.7539,-3395.9071L13517.7544,-3395.8884L13517.7634,-3395.8333L13517.7656,-3395.8197L13517.7636,-3395.8091L13517.7437,-3395.7738L13517.7427,-3395.7636L13517.7564,-3395.7215L13517.7836,-3395.6466L13517.7978,-3395.6073L13517.7223,-3395.5771L13517.6864,-3395.5448L13517.6756,-3395.5351L13517.6521,-3395.5139L13517.6198,-3395.5006L13517.5781,-3395.4873Z"/>
<path content="和歌山県,,日高郡,由良町,,30383" xlink:title="和歌山県" d="M13517.5781,-3398.7804L13517.5866,-3398.7667L13517.6021,-3398.7418L13517.6067,-3398.7252L13517.6072,-3398.685L13517.6026,-3398.6591L13517.6008,-3398.6433L13517.5985,-3398.6242L13517.6006,-3398.5783L13517.6031,-3398.5211L13517.6026,-3398.4875L13517.5904,-3398.4581L13517.5781,-3398.4433Z"/>
<path content="和歌山県,,日高郡,日高川町,,30392" xlink:title="和歌山県" d="M13535.1563,-3392.5781L13517.5781,-3392.5781L13517.5781,-3393.1908L13517.6338,-3393.2149L13517.6516,-3393.2222L13517.6735,-3393.2311L13517.6894,-3393.247L13517.6925,-3393.2609L13517.6948,-3393.2894L13517.7024,-3393.3198L13517.7039,-3393.3255L13517.7102,-3393.3333L13517.7373,-3393.3673L13517.7351,-3393.373L13517.7298,-3393.3759L13517.7237,-3393.3793L13517.7229,-3393.3882L13517.7381,-3393.4147L13517.7449,-3393.449L13517.7631,-3393.469L13517.7654,-3393.4836L13517.7639,-3393.5001L13517.7487,-3393.5349L13517.7358,-3393.5697L13517.6886,-3393.6261L13517.681,-3393.6374L13517.6734,-3393.6552L13517.6727,-3393.6691L13517.6696,-3393.6872L13517.6726,-3393.7119L13517.6718,-3393.7372L13517.6697,-3393.7469L13517.6566,-3393.8081L13517.6399,-3393.8619L13517.6345,-3393.8959L13517.6216,-3393.9212L13517.6041,-3393.939L13517.5781,-3393.9498L13517.5781,-3394.5628L13517.5867,-3394.5753L13517.6193,-3394.5962L13517.63,-3394.6095L13517.6414,-3394.6373L13517.6634,-3394.6601L13517.6794,-3394.6832L13517.6893,-3394.7104L13517.6855,-3394.7269L13517.6755,-3394.7371L13517.665,-3394.7477L13517.6437,-3394.7851L13517.6262,-3394.8497L13517.6239,-3394.8636L13517.6292,-3394.8849L13517.6262,-3394.8969L13517.6109,-3394.9444L13517.6025,-3394.9803L13517.6018,-3394.9831L13517.5989,-3395L13517.5957,-3395.0179L13517.579,-3395.0616L13517.5781,-3395.064L13517.5781,-3395.4873L13517.6198,-3395.5006L13517.6521,-3395.5139L13517.6756,-3395.5351L13517.6864,-3395.5448L13517.7223,-3395.5771L13517.7978,-3395.6073L13517.806,-3395.5988L13517.8422,-3395.5937L13517.8682,-3395.5958L13517.8994,-3395.606L13517.9591,-3395.6209L13518.0675,-3395.6442L13518.0946,-3395.6472L13518.1134,-3395.6447L13518.1678,-3395.6489L13518.1958,-3395.6612L13518.2407,-3395.6842L13518.2877,-3395.7038L13518.2994,-3395.7169L13518.3076,-3395.731L13518.3168,-3395.7357L13518.3333,-3395.7349L13518.3438,-3395.7344L13518.3663,-3395.7352L13518.3877,-3395.7395L13518.3901,-3395.7405L13518.4233,-3395.7545L13518.4528,-3395.7669L13518.4696,-3395.7674L13518.4895,-3395.7678L13518.5094,-3395.761L13518.5304,-3395.7495L13518.5661,-3395.7176L13518.5967,-3395.6998L13518.6171,-3395.6977L13518.6299,-3395.7006L13518.6487,-3395.7074L13518.6712,-3395.724L13518.6889,-3395.741L13518.6991,-3395.7439L13518.7338,-3395.735L13518.7548,-3395.7223L13518.7738,-3395.7029L13518.7951,-3395.6811L13518.8135,-3395.6619L13518.8344,-3395.6509L13518.8764,-3395.6357L13518.9111,-3395.6255L13518.9478,-3395.6217L13518.9754,-3395.6234L13518.9831,-3395.6204L13518.9907,-3395.6123L13519.0132,-3395.5936L13519.032,-3395.5898L13519.0576,-3395.5885L13519.1178,-3395.5881L13519.1667,-3395.5827L13519.2523,-3395.5731L13519.2773,-3395.5727L13519.3916,-3395.5909L13519.4171,-3395.5931L13519.436,-3395.5897L13519.5167,-3395.5661L13519.5292,-3395.5625L13519.5756,-3395.5417L13519.6379,-3395.5136L13519.6782,-3395.4872L13519.7162,-3395.4458L13519.7352,-3395.4059L13519.7463,-3395.3825L13519.7565,-3395.368L13519.7764,-3395.3723L13519.8463,-3395.3948L13519.8912,-3395.4016L13520,-3395.4112L13520.0022,-3395.4114L13520.0486,-3395.4182L13520.0772,-3395.419L13520.141,-3395.4152L13520.1836,-3395.4165L13520.2173,-3395.4088L13520.2938,-3395.388L13520.3305,-3395.3842L13520.3837,-3395.3884L13520.4016,-3395.388L13520.443,-3395.3846L13520.469,-3395.3863L13520.4853,-3395.3889L13520.5309,-3395.4071L13520.6059,-3395.4233L13520.6453,-3395.428L13520.6565,-3395.4267L13520.6774,-3395.4169L13520.7073,-3395.3964L13520.7154,-3395.3824L13520.7236,-3395.3446L13520.7247,-3395.3412L13520.7317,-3395.3191L13520.7379,-3395.3106L13520.7511,-3395.305L13520.7818,-3395.2964L13520.815,-3395.2759L13520.8333,-3395.2669L13520.8436,-3395.2619L13520.8787,-3395.2436L13520.9099,-3395.2334L13520.9247,-3395.2334L13520.9426,-3395.2343L13520.9716,-3395.2449L13520.9928,-3395.2461L13521.052,-3395.2257L13521.075,-3395.2249L13521.1026,-3395.2296L13521.1469,-3395.2385L13521.1684,-3395.2496L13521.1944,-3395.2538L13521.2168,-3395.2555L13521.236,-3395.2551L13521.2574,-3395.2512L13521.3049,-3395.2423L13521.3141,-3395.2389L13521.3503,-3395.2253L13521.3605,-3395.2249L13521.3702,-3395.227L13521.4304,-3395.2623L13521.4477,-3395.2687L13521.4633,-3395.2717L13521.4746,-3395.2691L13521.5261,-3395.2432L13521.5593,-3395.2347L13521.5827,-3395.2342L13521.6282,-3395.2483L13521.6547,-3395.2521L13521.6667,-3395.2533L13521.7277,-3395.2596L13521.737,-3395.2606L13521.7687,-3395.2716L13521.8141,-3395.2942L13521.8263,-3395.295L13521.8473,-3395.2908L13521.9322,-3395.2525L13521.9547,-3395.2521L13521.9817,-3395.255L13522.0399,-3395.2627L13522.0774,-3395.2682L13522.1131,-3395.2742L13522.1534,-3395.2861L13522.1805,-3395.2869L13522.1999,-3395.2844L13522.2121,-3395.2784L13522.2269,-3395.2631L13522.255,-3395.2512L13522.2713,-3395.2359L13522.3019,-3395.1819L13522.3374,-3395.1415L13522.351,-3395.1259L13522.3516,-3395.1252L13522.3649,-3395.0917L13522.3649,-3395.0742L13522.3644,-3395.0583L13522.3562,-3395.0413L13522.3307,-3395.0166L13522.3231,-3395.0022L13522.3231,-3395L13522.3231,-3394.9822L13522.3363,-3394.9507L13522.3404,-3394.9216L13522.3383,-3394.8803L13522.3398,-3394.8637L13522.3448,-3394.8518L13522.349,-3394.8417L13522.3603,-3394.8144L13522.3705,-3394.8047L13522.3976,-3394.7994L13522.4243,-3394.7935L13522.4351,-3394.8323L13522.4483,-3394.8595L13522.453,-3394.8666L13522.456,-3394.8681L13522.4595,-3394.8556L13522.4677,-3394.8299L13522.4739,-3394.8257L13522.4845,-3394.8238L13522.5,-3394.8199L13522.5182,-3394.8154L13522.5338,-3394.8113L13522.5479,-3394.8125L13522.5523,-3394.8193L13522.5617,-3394.8419L13522.5716,-3394.8578L13522.5851,-3394.8764L13522.5951,-3394.8837L13522.5989,-3394.8859L13522.6042,-3394.8818L13522.6142,-3394.8636L13522.6175,-3394.8568L13522.6242,-3394.8514L13522.6307,-3394.8453L13522.633,-3394.8384L13522.6406,-3394.8321L13522.6559,-3394.8272L13522.6674,-3394.8252L13522.6759,-3394.8284L13522.6958,-3394.8438L13522.707,-3394.8512L13522.7176,-3394.8521L13522.7228,-3394.8482L13522.7428,-3394.8103L13522.7516,-3394.7875L13522.7569,-3394.7657L13522.7587,-3394.7611L13522.7619,-3394.7601L13522.7716,-3394.7596L13522.7804,-3394.7608L13522.7992,-3394.7701L13522.8086,-3394.7731L13522.82,-3394.777L13522.8303,-3394.7782L13522.8335,-3394.7775L13522.8368,-3394.7736L13522.8432,-3394.7669L13522.8594,-3394.7581L13522.8696,-3394.7513L13522.9284,-3394.7516L13522.9468,-3394.7551L13522.9682,-3394.7619L13523.0397,-3394.792L13523.0866,-3394.8022L13523.14,-3394.8044L13523.1645,-3394.7993L13523.192,-3394.7917L13523.2196,-3394.7836L13523.2584,-3394.7627L13523.2849,-3394.7568L13523.2971,-3394.7589L13523.3288,-3394.7755L13523.3288,-3394.7844L13523.3288,-3394.7853L13523.3095,-3394.8296L13523.3004,-3394.8899L13523.3024,-3394.914L13523.3024,-3394.9361L13523.3126,-3394.9799L13523.3126,-3394.9922L13523.3092,-3395L13523.3044,-3395.0109L13523.2748,-3395.0626L13523.2733,-3395.0779L13523.2763,-3395.0954L13523.2829,-3395.1251L13523.3136,-3395.1753L13523.3333,-3395.2019L13523.3402,-3395.2112L13523.3711,-3395.2469L13523.3744,-3395.2507L13523.4015,-3395.269L13523.4428,-3395.2797L13523.4591,-3395.295L13523.4755,-3395.3141L13523.5307,-3395.3816L13523.5511,-3395.3973L13523.5813,-3395.4152L13523.5915,-3395.4275L13523.5956,-3395.4398L13523.595,-3395.4488L13523.5925,-3395.4556L13523.5859,-3395.4666L13523.568,-3395.4853L13523.5486,-3395.5008L13523.5424,-3395.5212L13523.5368,-3395.5544L13523.5366,-3395.5597L13523.5358,-3395.5744L13523.5374,-3395.605L13523.5348,-3395.6321L13523.5277,-3395.6686L13523.5261,-3395.6848L13523.5266,-3395.692L13523.5302,-3395.7001L13523.5634,-3395.7396L13523.5664,-3395.7503L13523.5609,-3395.796L13523.5634,-3395.807L13523.5746,-3395.833L13523.5749,-3395.8333L13523.5925,-3395.8563L13523.6027,-3395.8602L13523.642,-3395.8661L13523.6537,-3395.8704L13523.6644,-3395.8793L13523.6759,-3395.8967L13523.6823,-3395.9065L13523.7238,-3395.9625L13523.7294,-3395.9701L13523.7391,-3395.9739L13523.7738,-3395.9812L13523.7891,-3395.9901L13523.8141,-3396.0071L13523.8555,-3396.0211L13523.8705,-3396.0224L13523.921,-3396.0021L13523.942,-3396.0008L13523.9956,-3396.0042L13524.019,-3396.0012L13524.0573,-3395.9952L13524.0828,-3395.9952L13524.1116,-3396.0063L13524.1667,-3396.0338L13524.1953,-3396.048L13524.2034,-3396.0495L13524.2131,-3396.0514L13524.2381,-3396.0535L13524.255,-3396.0527L13524.2708,-3396.0497L13524.3082,-3396.0433L13524.3516,-3396.0336L13524.3904,-3396.0191L13524.4001,-3396.0182L13524.4267,-3396.0281L13524.5033,-3396.0714L13524.5339,-3396.0939L13524.5831,-3396.1132L13524.6051,-3396.1285L13524.6158,-3396.1383L13524.6357,-3396.1464L13524.6535,-3396.1544L13524.6826,-3396.1604L13524.7226,-3396.1739L13524.7328,-3396.1802L13524.7512,-3396.1961L13524.8212,-3396.2244L13524.8553,-3396.2451L13524.8906,-3396.2702L13524.9128,-3396.3002L13524.9305,-3396.3373L13524.9456,-3396.3575L13525,-3396.3534L13525.0032,-3396.3531L13525.0699,-3396.3526L13525.1309,-3396.366L13525.1956,-3396.3588L13525.2503,-3396.3558L13525.2783,-3396.3522L13525.3107,-3396.3618L13525.3567,-3396.3774L13525.387,-3396.3768L13525.4006,-3396.3822L13525.4222,-3396.4062L13525.4654,-3396.4751L13525.4765,-3396.5271L13525.4773,-3396.5778L13525.4781,-3396.6038L13525.4651,-3396.6667L13525.4647,-3396.669L13525.4734,-3396.7118L13525.4907,-3396.7342L13525.5279,-3396.7625L13525.5517,-3396.8188L13525.5794,-3396.8998L13525.6143,-3396.9536L13525.6554,-3396.9852L13525.6775,-3397.0017L13525.7076,-3397.0406L13525.7305,-3397.0597L13525.7614,-3397.0742L13525.7906,-3397.0985L13525.8127,-3397.1393L13525.8317,-3397.168L13525.8333,-3397.1705L13525.8396,-3397.1799L13525.8778,-3397.2248L13525.8978,-3397.248L13525.9213,-3397.2986L13525.9282,-3397.3265L13525.923,-3397.3576L13525.8969,-3397.401L13525.8404,-3397.464L13525.8333,-3397.479L13525.8234,-3397.5L13525.8196,-3397.5082L13525.7437,-3397.5469L13525.722,-3397.5737L13525.6759,-3397.6396L13525.6759,-3397.6552L13525.677,-3397.6567L13525.6872,-3397.6711L13525.6898,-3397.6986L13525.6742,-3397.7725L13525.6742,-3397.8094L13525.652,-3397.8566L13525.6412,-3397.8796L13525.6412,-3397.8984L13525.6535,-3397.9163L13525.669,-3397.9388L13525.6845,-3397.9581L13525.7507,-3398.0401L13525.782,-3398.0901L13525.7872,-3398.1103L13525.7785,-3398.1545L13525.8003,-3398.2584L13525.8016,-3398.3333L13525.802,-3398.3576L13525.7837,-3398.4644L13525.7803,-3398.5549L13525.822,-3398.6092L13525.8333,-3398.6304L13525.8445,-3398.6514L13525.855,-3398.6984L13525.8338,-3398.8089L13525.8333,-3398.8116L13525.8321,-3398.8181L13525.8293,-3398.8328L13525.8333,-3398.8483L13525.8378,-3398.8654L13525.869,-3398.9066L13525.9071,-3398.969L13525.9405,-3398.9931L13525.9901,-3399.0094L13526.0386,-3399.0372L13526.0847,-3399.0872L13526.1701,-3399.1286L13526.227,-3399.1667L13526.2289,-3399.168L13526.2728,-3399.2179L13526.3328,-3399.265L13526.3693,-3399.274L13526.4269,-3399.275L13526.4535,-3399.2827L13526.5019,-3399.3115L13526.5769,-3399.3865L13526.5974,-3399.4069L13526.6069,-3399.4162L13526.6404,-3399.4326L13526.6667,-3399.4461L13526.6888,-3399.4576L13526.7315,-3399.4941L13526.7676,-3399.5236L13526.8299,-3399.5476L13526.9141,-3399.5505L13526.9395,-3399.5524L13526.9522,-3399.5592L13526.9649,-3399.5841L13526.9787,-3399.6168L13527.0029,-3399.6293L13527.0998,-3399.6716L13527.1241,-3399.6879L13527.1517,-3399.735L13527.176,-3399.7533L13527.2129,-3399.759L13527.2596,-3399.7557L13527.3,-3399.7624L13527.3323,-3399.7759L13527.3531,-3399.8018L13527.4061,-3399.8902L13527.4151,-3399.9101L13527.4511,-3399.9892L13527.4615,-3399.9978L13527.466,-3400L13527.4973,-3400.0151L13527.5,-3400.0178L13527.5169,-3400.0343L13527.5434,-3400.0728L13527.5759,-3400.137L13527.5955,-3400.1658L13527.6209,-3400.1889L13527.6301,-3400.21L13527.6393,-3400.2724L13527.6534,-3400.2862L13527.6936,-3400.3075L13527.725,-3400.323L13527.7357,-3400.3331L13527.7489,-3400.3426L13527.7807,-3400.3655L13527.8323,-3400.3959L13527.8614,-3400.4061L13527.9279,-3400.4224L13527.9841,-3400.4224L13528.0169,-3400.4302L13528.0394,-3400.4435L13528.0615,-3400.4404L13528.1252,-3400.406L13528.1777,-3400.3897L13528.1899,-3400.392L13528.2211,-3400.4301L13528.2321,-3400.4435L13528.2452,-3400.4521L13528.2827,-3400.4521L13528.323,-3400.4716L13528.3333,-3400.4753L13528.338,-3400.477L13528.3774,-3400.4497L13528.4046,-3400.4372L13528.5063,-3400.4106L13528.5784,-3400.392L13528.6187,-3400.3904L13528.6863,-3400.3717L13528.75,-3400.3693L13528.7978,-3400.3639L13528.8419,-3400.3331L13528.8559,-3400.3159L13528.8921,-3400.2502L13528.9127,-3400.233L13528.9526,-3400.2182L13528.9839,-3400.1921L13529.0031,-3400.1737L13529.0237,-3400.1412L13529.0316,-3400.1404L13529.0407,-3400.1394L13529.0684,-3400.1607L13529.0848,-3400.1767L13529.0919,-3400.2306L13529.1097,-3400.2519L13529.1644,-3400.3035L13529.1667,-3400.3093L13529.1694,-3400.3165L13529.1762,-3400.3331L13529.1808,-3400.3491L13529.1808,-3400.3904L13529.1845,-3400.4076L13529.2189,-3400.4465L13529.2417,-3400.4723L13529.252,-3400.4911L13529.2492,-3400.5222L13529.2614,-3400.5402L13529.3161,-3400.5983L13529.3554,-3400.6326L13529.4098,-3400.6685L13529.4426,-3400.7114L13529.4651,-3400.7294L13529.4736,-3400.7294L13529.4904,-3400.7013L13529.5542,-3400.628L13529.5879,-3400.5929L13529.602,-3400.5796L13529.6408,-3400.5668L13529.6727,-3400.5504L13529.7056,-3400.5291L13529.7188,-3400.5206L13529.7542,-3400.4978L13529.773,-3400.4856L13529.8377,-3400.4397L13529.8602,-3400.4287L13529.8748,-3400.4266L13529.8817,-3400.4256L13529.9058,-3400.4252L13529.9642,-3400.4241L13530,-3400.4191L13530.0771,-3400.4084L13530.0968,-3400.4006L13530.1409,-3400.3702L13530.1971,-3400.3546L13530.2131,-3400.3538L13530.2477,-3400.3687L13530.2815,-3400.3788L13530.3162,-3400.3694L13530.3312,-3400.3749L13530.402,-3400.4179L13530.4188,-3400.4289L13530.4854,-3400.4398L13530.5135,-3400.4499L13530.5435,-3400.4725L13530.6092,-3400.4975L13530.6176,-3400.499L13530.6457,-3400.4764L13530.6626,-3400.4694L13530.6815,-3400.4707L13530.6963,-3400.4717L13530.7432,-3400.4874L13530.7919,-3400.4866L13530.8333,-3400.5092L13530.8519,-3400.5193L13530.8674,-3400.5227L13530.9133,-3400.5234L13530.9845,-3400.5141L13531.0454,-3400.5157L13531.0597,-3400.5198L13531.0642,-3400.5211L13531.0876,-3400.5344L13531.1201,-3400.5622L13531.1504,-3400.5882L13531.2189,-3400.6514L13531.239,-3400.664L13531.2783,-3400.7006L13531.2905,-3400.745L13531.2933,-3400.7552L13531.3018,-3400.7708L13531.3177,-3400.7739L13531.3477,-3400.7708L13531.3805,-3400.7584L13531.4133,-3400.7521L13531.4724,-3400.7271L13531.5211,-3400.7264L13531.5483,-3400.7248L13531.5935,-3400.7083L13531.6017,-3400.7053L13531.6205,-3400.7045L13531.6543,-3400.71L13531.6667,-3400.7094L13531.6723,-3400.7091L13531.7032,-3400.7013L13531.7154,-3400.7005L13531.7548,-3400.7122L13531.7819,-3400.7192L13531.7988,-3400.7208L13531.8084,-3400.72L13531.8237,-3400.7188L13531.9062,-3400.6868L13531.9465,-3400.6728L13531.9643,-3400.6782L13531.9971,-3400.7032L13532.0309,-3400.7227L13532.1039,-3400.7453L13532.1799,-3400.7773L13532.1949,-3400.7991L13532.209,-3400.8085L13532.2408,-3400.8116L13532.2564,-3400.8163L13532.2768,-3400.8333L13532.3079,-3400.8592L13532.3417,-3400.8686L13532.3998,-3400.8569L13532.4195,-3400.8592L13532.471,-3400.8725L13532.4851,-3400.8709L13532.5,-3400.8523L13532.5039,-3400.8475L13532.517,-3400.8405L13532.56,-3400.8333L13532.5685,-3400.8319L13532.577,-3400.8294L13532.6051,-3400.821L13532.6449,-3400.7903L13532.7161,-3400.7614L13532.7686,-3400.7318L13532.7874,-3400.7256L13532.8174,-3400.7232L13532.8596,-3400.7107L13532.8839,-3400.6951L13532.9027,-3400.678L13532.9177,-3400.6561L13532.927,-3400.6468L13532.9364,-3400.6437L13532.9833,-3400.6601L13533.0222,-3400.6676L13533.0592,-3400.6749L13533.1,-3400.6819L13533.1534,-3400.6741L13533.1825,-3400.6756L13533.2125,-3400.685L13533.2528,-3400.6982L13533.3213,-3400.7263L13533.3333,-3400.7271L13533.3334,-3400.7271L13533.3803,-3400.7029L13533.4543,-3400.6749L13533.4753,-3400.6621L13533.5091,-3400.6146L13533.5236,-3400.6031L13533.5278,-3400.5997L13533.5672,-3400.5732L13533.5878,-3400.5677L13533.6159,-3400.567L13533.6525,-3400.5631L13533.7097,-3400.5498L13533.7472,-3400.5451L13533.8255,-3400.5474L13533.8564,-3400.5271L13533.8836,-3400.517L13533.9616,-3400.5012L13533.9839,-3400.4967L13534.0017,-3400.4928L13534.0186,-3400.4944L13534.043,-3400.5006L13534.0599,-3400.4983L13534.1536,-3400.4827L13534.1667,-3400.4866L13534.1799,-3400.4906L13534.1949,-3400.4951L13534.2731,-3400.5076L13534.2956,-3400.5084L13534.3034,-3400.5004L13534.3153,-3400.4881L13534.3453,-3400.4975L13534.3613,-3400.4983L13534.4492,-3400.4829L13534.5703,-3400.4546L13534.5784,-3400.473L13534.5844,-3400.4866L13534.605,-3400.5162L13534.6137,-3400.5228L13534.6153,-3400.524L13534.6481,-3400.5334L13534.6734,-3400.5443L13534.7175,-3400.5708L13534.7494,-3400.5895L13534.7883,-3400.5926L13534.8324,-3400.5786L13534.8633,-3400.5809L13534.8877,-3400.5762L13534.9346,-3400.5606L13534.9439,-3400.5599L13534.9665,-3400.5653L13534.9824,-3400.5677L13535,-3400.562L13535.019,-3400.556L13535.0433,-3400.556L13535.0883,-3400.5724L13535.1052,-3400.5731L13535.1155,-3400.5724L13535.1361,-3400.5599L13535.1562,-3400.5452Z"/>
</g>
</svg>
