<?xml version="1.0" encoding="UTF-8"?>
<svg  xmlns="http://www.w3.org/2000/svg" xmlns:xlink="http://www.w3.org/1999/xlink" xmlns:go="http://purl.org/svgmap/profile" property="geometry,N03_001,N03_002,N03_003,N03_004,N03_005,N03_007" viewBox="13596.6796875 -3365.1123046875 1.0986328125 1.0986328125" go:dataArea="13596.6796875 -3365.1123046875 1.0986328125 1.0986328125" >
<metadata>
 <rdf:RDF xmlns:rdf="http://www.w3.org/1999/02/22-rdf-syntax-ns#" xmlns:crs="http://opengis.org/xmldtds/transformations.dtd" xmlns:svg="http://www.w3.org/svg" >
  <rdf:Description>
   <crs:CoordinateReferenceSystem rdf:resource="http://purl.org/crs/84" svg:transform="matrix(100.0,0.0,0.0,-100.0,0.0,0.0)" />
  </rdf:Description>
 </rdf:RDF>
</metadata>
<globalCoordinateSystem srsName="http://purl.org/crs/84" transform="matrix(100.0,0.0,0.0,-100.0,0.0,0.0)" />
<defs>
 <g id="p0" >
  <circle cx="0.0" cy="0.0" r="3" stroke="green" stroke-width="2.0" vector-effect="non-scaling-stroke" />
 </g>
</defs>
<g fill="#0000ff" fill-rule="evenodd" opacity="0.5" >
<path content="和歌山県,,東牟婁郡,那智勝浦町,,30421" xlink:title="和歌山県" d="M13597.4089,-3365.1123L13597.4087,-3365.1099L13597.4086,-3365.1089L13597.4084,-3365.1078L13597.408,-3365.1065L13597.4072,-3365.1047L13597.4064,-3365.103L13597.4055,-3365.101L13597.4048,-3365.0999L13597.4042,-3365.099L13597.4035,-3365.0982L13597.4022,-3365.097L13597.4018,-3365.0965L13597.4016,-3365.0961L13597.4014,-3365.0957L13597.4014,-3365.095L13597.4013,-3365.0945L13597.4013,-3365.0944L13597.4011,-3365.0941L13597.4008,-3365.094L13597.4003,-3365.0939L13597.3997,-3365.0938L13597.3977,-3365.0939L13597.3964,-3365.0939L13597.3949,-3365.0938L13597.3938,-3365.0935L13597.3927,-3365.0932L13597.3915,-3365.0927L13597.3901,-3365.092L13597.3896,-3365.0918L13597.3876,-3365.0906L13597.3866,-3365.0902L13597.3858,-3365.0899L13597.3855,-3365.0899L13597.3846,-3365.0898L13597.3836,-3365.0898L13597.3821,-3365.0899L13597.3806,-3365.0901L13597.3779,-3365.0904L13597.3766,-3365.0905L13597.3753,-3365.0907L13597.3745,-3365.091L13597.3735,-3365.0914L13597.3724,-3365.0919L13597.3713,-3365.0926L13597.3699,-3365.0935L13597.3695,-3365.0939L13597.3679,-3365.095L13597.3671,-3365.0955L13597.3665,-3365.0957L13597.3663,-3365.0958L13597.3656,-3365.0959L13597.3642,-3365.0959L13597.3631,-3365.096L13597.3627,-3365.096L13597.3618,-3365.0962L13597.3612,-3365.0964L13597.3606,-3365.0967L13597.36,-3365.0972L13597.3599,-3365.0973L13597.3595,-3365.0979L13597.3592,-3365.0985L13597.3589,-3365.0995L13597.3586,-3365.1005L13597.3582,-3365.1014L13597.3575,-3365.1027L13597.3567,-3365.1039L13597.3557,-3365.1056L13597.3548,-3365.1077L13597.3545,-3365.1084L13597.3539,-3365.1098L13597.3537,-3365.1109L13597.3536,-3365.1114L13597.3536,-3365.1123Z"/>
<path content="和歌山県,,東牟婁郡,那智勝浦町,,30421" xlink:title="和歌山県" d="M13597.7783,-3364.5096L13597.7777,-3364.5101L13597.7764,-3364.5202L13597.7773,-3364.5222L13597.7783,-3364.5227Z"/>
<path content="和歌山県,,東牟婁郡,那智勝浦町,,30421" xlink:title="和歌山県" d="M13597.1469,-3365.105L13597.1465,-3365.105L13597.1455,-3365.105L13597.1432,-3365.1051L13597.1425,-3365.1052L13597.1423,-3365.1054L13597.1421,-3365.1055L13597.142,-3365.1057L13597.1421,-3365.1058L13597.1422,-3365.1063L13597.1422,-3365.1066L13597.1421,-3365.1068L13597.1419,-3365.1071L13597.1415,-3365.1075L13597.1406,-3365.1079L13597.1388,-3365.1088L13597.1378,-3365.1095L13597.1374,-3365.1098L13597.1368,-3365.1105L13597.1365,-3365.1113L13597.1364,-3365.1115L13597.1363,-3365.1123L13597.1516,-3365.1123L13597.1513,-3365.1108L13597.1511,-3365.1098L13597.1509,-3365.1092L13597.1503,-3365.1086L13597.15,-3365.1083L13597.1491,-3365.1075L13597.1486,-3365.1067L13597.1481,-3365.1059L13597.1476,-3365.1054L13597.1472,-3365.1052L13597.1469,-3365.105Z"/>
<path content="和歌山県,,東牟婁郡,那智勝浦町,,30421" xlink:title="和歌山県" d="M13597.0959,-3365.0648L13597.0953,-3365.0648L13597.0945,-3365.0649L13597.0938,-3365.0651L13597.0929,-3365.0654L13597.0919,-3365.0659L13597.0913,-3365.0663L13597.0907,-3365.0668L13597.0904,-3365.0673L13597.0903,-3365.0678L13597.0903,-3365.0683L13597.0904,-3365.0688L13597.0908,-3365.0696L13597.0913,-3365.0703L13597.0925,-3365.0718L13597.0928,-3365.0725L13597.0929,-3365.0727L13597.093,-3365.0733L13597.0931,-3365.075L13597.0932,-3365.0755L13597.0935,-3365.0759L13597.0939,-3365.0763L13597.0943,-3365.0766L13597.0949,-3365.0769L13597.0954,-3365.077L13597.0955,-3365.077L13597.0959,-3365.0769L13597.0962,-3365.0767L13597.0965,-3365.0764L13597.097,-3365.0756L13597.0978,-3365.0742L13597.0984,-3365.0735L13597.0991,-3365.0727L13597.1001,-3365.0717L13597.1005,-3365.0713L13597.1007,-3365.0708L13597.1008,-3365.0703L13597.1008,-3365.0697L13597.1007,-3365.069L13597.1005,-3365.0683L13597.1,-3365.0675L13597.0998,-3365.0672L13597.0993,-3365.0666L13597.0987,-3365.0661L13597.0979,-3365.0655L13597.0973,-3365.0652L13597.0966,-3365.065L13597.0959,-3365.0648Z"/>
<path content="和歌山県,,東牟婁郡,那智勝浦町,,30421" xlink:title="和歌山県" d="M13597.2171,-3365.0928L13597.2166,-3365.0927L13597.2163,-3365.0927L13597.2159,-3365.0928L13597.2156,-3365.0931L13597.2154,-3365.0935L13597.215,-3365.0941L13597.2147,-3365.0953L13597.2141,-3365.0975L13597.2137,-3365.0984L13597.2131,-3365.0994L13597.2123,-3365.1006L13597.2114,-3365.1019L13597.2108,-3365.1029L13597.2105,-3365.1037L13597.2103,-3365.1042L13597.2103,-3365.1048L13597.2104,-3365.1053L13597.2106,-3365.1056L13597.2109,-3365.1059L13597.2114,-3365.1061L13597.2121,-3365.1063L13597.2123,-3365.1063L13597.213,-3365.1064L13597.2139,-3365.1064L13597.2146,-3365.1063L13597.2153,-3365.1061L13597.2159,-3365.1058L13597.2164,-3365.1055L13597.2167,-3365.1051L13597.217,-3365.1046L13597.2173,-3365.1038L13597.2179,-3365.1022L13597.2186,-3365.1005L13597.2198,-3365.0984L13597.2202,-3365.0977L13597.2203,-3365.0975L13597.2205,-3365.0971L13597.2205,-3365.0966L13597.2204,-3365.096L13597.2201,-3365.0954L13597.2196,-3365.0947L13597.219,-3365.0941L13597.2184,-3365.0936L13597.2177,-3365.0931L13597.2171,-3365.0928Z"/>
<path content="和歌山県,,東牟婁郡,那智勝浦町,,30421" xlink:title="和歌山県" d="M13597.1009,-3365.1002L13597.1006,-3365.1002L13597.1002,-3365.1003L13597.0995,-3365.1005L13597.099,-3365.1008L13597.0987,-3365.1011L13597.0983,-3365.1018L13597.0982,-3365.1023L13597.0979,-3365.1034L13597.0979,-3365.1045L13597.0981,-3365.1055L13597.0986,-3365.1067L13597.0992,-3365.1078L13597.0996,-3365.1084L13597.0998,-3365.1086L13597.1,-3365.1087L13597.1001,-3365.1087L13597.1003,-3365.1087L13597.1006,-3365.1086L13597.101,-3365.1083L13597.1011,-3365.1082L13597.1013,-3365.1078L13597.1015,-3365.1073L13597.1015,-3365.1064L13597.1016,-3365.1057L13597.1018,-3365.1048L13597.1021,-3365.1034L13597.1021,-3365.1028L13597.1021,-3365.1027L13597.1018,-3365.1019L13597.1015,-3365.1012L13597.1013,-3365.1005L13597.1012,-3365.1003L13597.1011,-3365.1003L13597.1009,-3365.1002Z"/>
<path content="和歌山県,,東牟婁郡,那智勝浦町,,30421" xlink:title="和歌山県" d="M13597.1032,-3365.0899L13597.1029,-3365.0898L13597.1026,-3365.0898L13597.1025,-3365.0899L13597.1024,-3365.09L13597.1024,-3365.0904L13597.1024,-3365.0909L13597.1024,-3365.0914L13597.1021,-3365.0919L13597.1016,-3365.0929L13597.1015,-3365.0932L13597.1015,-3365.0938L13597.1015,-3365.0942L13597.1015,-3365.0954L13597.1015,-3365.097L13597.1016,-3365.0979L13597.102,-3365.0988L13597.1024,-3365.0996L13597.103,-3365.1002L13597.1032,-3365.1004L13597.1034,-3365.1005L13597.1035,-3365.1004L13597.1036,-3365.1003L13597.1038,-3365.0997L13597.1039,-3365.0987L13597.1039,-3365.0967L13597.1038,-3365.095L13597.1038,-3365.0941L13597.104,-3365.0921L13597.1039,-3365.0911L13597.1038,-3365.0905L13597.1037,-3365.0903L13597.1035,-3365.09L13597.1032,-3365.0899Z"/>
<path content="和歌山県,,東牟婁郡,那智勝浦町,,30421" xlink:title="和歌山県" d="M13597.0432,-3365.1097L13597.0432,-3365.1097L13597.043,-3365.1098L13597.0429,-3365.1099L13597.0428,-3365.1102L13597.0428,-3365.1108L13597.043,-3365.1115L13597.0433,-3365.1123L13597.0469,-3365.1123L13597.0469,-3365.1123L13597.0466,-3365.1119L13597.0461,-3365.1114L13597.0455,-3365.111L13597.0441,-3365.1101L13597.0436,-3365.1098L13597.0432,-3365.1097Z"/>
</g>
</svg>
