<?xml version="1.0" encoding="UTF-8"?>
<svg  xmlns="http://www.w3.org/2000/svg" xmlns:xlink="http://www.w3.org/1999/xlink" xmlns:go="http://purl.org/svgmap/profile" property="geometry,N03_001,N03_002,N03_003,N03_004,N03_005,N03_007" viewBox="13500.0 -3489.2578125 8.7890625 8.7890625" go:dataArea="13500.0 -3489.2578125 8.7890625 8.7890625" >
<metadata>
 <rdf:RDF xmlns:rdf="http://www.w3.org/1999/02/22-rdf-syntax-ns#" xmlns:crs="http://opengis.org/xmldtds/transformations.dtd" xmlns:svg="http://www.w3.org/svg" >
  <rdf:Description>
   <crs:CoordinateReferenceSystem rdf:resource="http://purl.org/crs/84" svg:transform="matrix(100.0,0.0,0.0,-100.0,0.0,0.0)" />
  </rdf:Description>
 </rdf:RDF>
</metadata>
<globalCoordinateSystem srsName="http://purl.org/crs/84" transform="matrix(100.0,0.0,0.0,-100.0,0.0,0.0)" />
<defs>
 <g id="p0" >
  <circle cx="0.0" cy="0.0" r="3" stroke="green" stroke-width="2.0" vector-effect="non-scaling-stroke" />
 </g>
</defs>
<g fill="#0000ff" fill-rule="evenodd" opacity="0.5" >
<path content="兵庫県,,,神戸市,北区,28109" xlink:title="兵庫県" d="M13508.7891,-3480.4688L13507.7183,-3480.4687L13507.7098,-3480.4836L13507.6885,-3480.4972L13507.6774,-3480.5001L13507.6526,-3480.4994L13507.6392,-3480.4994L13507.629,-3480.5052L13507.6121,-3480.5206L13507.5975,-3480.5353L13507.578,-3480.5426L13507.5664,-3480.5466L13507.5402,-3480.5514L13507.5167,-3480.5558L13507.5007,-3480.5638L13507.5,-3480.5649L13507.4954,-3480.5719L13507.4989,-3480.5895L13507.5,-3480.5998L13507.5011,-3480.6107L13507.5034,-3480.6232L13507.5087,-3480.6316L13507.5247,-3480.6448L13507.5349,-3480.6539L13507.5451,-3480.6649L13507.5447,-3480.6788L13507.546,-3480.7041L13507.5535,-3480.7195L13507.5611,-3480.7316L13507.5682,-3480.7389L13507.5806,-3480.7455L13507.6077,-3480.7557L13507.6295,-3480.7636L13507.649,-3480.7721L13507.6584,-3480.7761L13507.6645,-3480.7786L13507.6747,-3480.7914L13507.6734,-3480.8032L13507.6707,-3480.8149L13507.6645,-3480.8255L13507.659,-3480.8333L13507.6552,-3480.8387L13507.6542,-3480.8393L13507.6523,-3480.8404L13507.6339,-3480.8512L13507.617,-3480.8577L13507.5917,-3480.8666L13507.5789,-3480.8739L13507.5775,-3480.886L13507.5806,-3480.8938L13507.5837,-3480.8955L13507.5897,-3480.902L13507.6096,-3480.9239L13507.6175,-3480.9324L13507.628,-3480.9563L13507.6456,-3480.9962L13507.6492,-3481.0043L13507.6541,-3481.0153L13507.6665,-3481.0436L13507.7045,-3481.1295L13507.7071,-3481.1372L13507.7156,-3481.1507L13507.7271,-3481.1672L13507.7316,-3481.1786L13507.7307,-3481.1819L13507.732,-3481.1962L13507.7284,-3481.2057L13507.72,-3481.2162L13507.7147,-3481.2229L13507.6926,-3481.2455L13507.6809,-3481.2573L13507.6729,-3481.2668L13507.6667,-3481.2778L13507.6633,-3481.2888L13507.6614,-3481.2947L13507.6583,-3481.3148L13507.6552,-3481.3328L13507.6489,-3481.351L13507.6481,-3481.3533L13507.6407,-3481.3767L13507.6405,-3481.3774L13507.633,-3481.3906L13507.6214,-3481.402L13507.601,-3481.4144L13507.6223,-3481.4276L13507.6348,-3481.4382L13507.6441,-3481.4485L13507.6485,-3481.4566L13507.6481,-3481.4661L13507.641,-3481.4763L13507.6277,-3481.4895L13507.6192,-3481.4972L13507.6121,-3481.5111L13507.6121,-3481.5232L13507.6152,-3481.5547L13507.6166,-3481.5653L13507.609,-3481.5723L13507.5984,-3481.5807L13507.5966,-3481.591L13507.5993,-3481.6052L13507.6148,-3481.6188L13507.6294,-3481.6305L13507.6463,-3481.6401L13507.6641,-3481.6437L13507.6796,-3481.6521L13507.7031,-3481.662L13507.7105,-3481.6667L13507.72,-3481.6727L13507.7307,-3481.6847L13507.7449,-3481.6961L13507.7595,-3481.6997L13507.7795,-3481.7023L13507.8035,-3481.7042L13507.8216,-3481.7076L13507.8284,-3481.7089L13507.8487,-3481.7133L13507.8665,-3481.7126L13507.9127,-3481.7107L13507.9322,-3481.7086L13507.9362,-3481.7045L13507.954,-3481.6954L13507.9726,-3481.6902L13507.9997,-3481.6906L13508.0406,-3481.6939L13508.0627,-3481.6943L13508.0841,-3481.6928L13508.0928,-3481.6949L13508.1041,-3481.6976L13508.1165,-3481.7052L13508.1254,-3481.7166L13508.132,-3481.7291L13508.1369,-3481.7456L13508.1435,-3481.7606L13508.1577,-3481.7715L13508.1759,-3481.7851L13508.1946,-3481.7939L13508.2248,-3481.8114L13508.2434,-3481.8239L13508.2594,-3481.8356L13508.2754,-3481.8481L13508.3038,-3481.8851L13508.3189,-3481.9059L13508.3309,-3481.9195L13508.3333,-3481.9221L13508.3433,-3481.9331L13508.3518,-3481.9437L13508.362,-3481.9594L13508.3837,-3481.9887L13508.3975,-3482.0085L13508.4073,-3482.0232L13508.4197,-3482.0364L13508.4339,-3482.0502L13508.465,-3482.0759L13508.4823,-3482.0905L13508.4956,-3482.1037L13508.5338,-3482.144L13508.5458,-3482.159L13508.5551,-3482.1737L13508.5618,-3482.1924L13508.5636,-3482.2033L13508.5671,-3482.2267L13508.5689,-3482.2385L13508.5689,-3482.2627L13508.5683,-3482.2644L13508.5622,-3482.2825L13508.5516,-3482.2967L13508.5431,-3482.3085L13508.5329,-3482.3132L13508.5236,-3482.3217L13508.5107,-3482.3381L13508.4978,-3482.3568L13508.4898,-3482.374L13508.4912,-3482.3887L13508.4947,-3482.4169L13508.4983,-3482.426L13508.5089,-3482.4381L13508.5267,-3482.4557L13508.5453,-3482.4681L13508.5636,-3482.4784L13508.5871,-3482.4941L13508.5947,-3482.5L13508.5995,-3482.5037L13508.6057,-3482.5172L13508.6106,-3482.5425L13508.6173,-3482.5557L13508.6283,-3482.5703L13508.6634,-3482.6055L13508.665,-3482.6068L13508.6785,-3482.6179L13508.6849,-3482.622L13508.6945,-3482.6282L13508.7016,-3482.6304L13508.7087,-3482.63L13508.7171,-3482.6252L13508.7323,-3482.6154L13508.7491,-3482.6084L13508.762,-3482.6022L13508.7744,-3482.5978L13508.7891,-3482.5947Z"/>
<path content="兵庫県,,,三木市,,28215" xlink:title="兵庫県" d="M13508.7891,-3482.5947L13508.7744,-3482.5978L13508.762,-3482.6022L13508.7491,-3482.6084L13508.7323,-3482.6154L13508.7171,-3482.6252L13508.7087,-3482.63L13508.7016,-3482.6304L13508.6945,-3482.6282L13508.6849,-3482.622L13508.6785,-3482.6179L13508.665,-3482.6068L13508.6634,-3482.6055L13508.6283,-3482.5703L13508.6173,-3482.5557L13508.6106,-3482.5425L13508.6057,-3482.5172L13508.5995,-3482.5037L13508.5947,-3482.5L13508.5871,-3482.4941L13508.5636,-3482.4784L13508.5453,-3482.4681L13508.5267,-3482.4557L13508.5089,-3482.4381L13508.4983,-3482.426L13508.4947,-3482.4169L13508.4912,-3482.3887L13508.4898,-3482.374L13508.4978,-3482.3568L13508.5107,-3482.3381L13508.5236,-3482.3217L13508.5329,-3482.3132L13508.5431,-3482.3085L13508.5516,-3482.2967L13508.5622,-3482.2825L13508.5683,-3482.2644L13508.5689,-3482.2627L13508.5689,-3482.2385L13508.5671,-3482.2267L13508.5636,-3482.2033L13508.5618,-3482.1924L13508.5551,-3482.1737L13508.5458,-3482.159L13508.5338,-3482.144L13508.4956,-3482.1037L13508.4823,-3482.0905L13508.465,-3482.0759L13508.4339,-3482.0502L13508.4197,-3482.0364L13508.4073,-3482.0232L13508.3975,-3482.0085L13508.3837,-3481.9887L13508.362,-3481.9594L13508.3518,-3481.9437L13508.3433,-3481.9331L13508.3333,-3481.9221L13508.3309,-3481.9195L13508.3189,-3481.9059L13508.3038,-3481.8851L13508.2754,-3481.8481L13508.2594,-3481.8356L13508.2434,-3481.8239L13508.2248,-3481.8114L13508.1946,-3481.7939L13508.1759,-3481.7851L13508.1577,-3481.7715L13508.1435,-3481.7606L13508.1369,-3481.7456L13508.132,-3481.7291L13508.1254,-3481.7166L13508.1165,-3481.7052L13508.1041,-3481.6976L13508.0928,-3481.6949L13508.0841,-3481.6928L13508.0627,-3481.6943L13508.0406,-3481.6939L13507.9997,-3481.6906L13507.9726,-3481.6902L13507.954,-3481.6954L13507.9362,-3481.7045L13507.9322,-3481.7086L13507.9127,-3481.7107L13507.8665,-3481.7126L13507.8487,-3481.7133L13507.8284,-3481.7089L13507.8216,-3481.7076L13507.8035,-3481.7042L13507.7795,-3481.7023L13507.7595,-3481.6997L13507.7449,-3481.6961L13507.7307,-3481.6847L13507.72,-3481.6727L13507.7105,-3481.6667L13507.7031,-3481.662L13507.6796,-3481.6521L13507.6641,-3481.6437L13507.6463,-3481.6401L13507.6294,-3481.6305L13507.6148,-3481.6188L13507.5993,-3481.6052L13507.5966,-3481.591L13507.5984,-3481.5807L13507.609,-3481.5723L13507.6166,-3481.5653L13507.6152,-3481.5547L13507.6121,-3481.5232L13507.6121,-3481.5111L13507.6192,-3481.4972L13507.6277,-3481.4895L13507.641,-3481.4763L13507.6481,-3481.4661L13507.6485,-3481.4566L13507.6441,-3481.4485L13507.6348,-3481.4382L13507.6223,-3481.4276L13507.601,-3481.4144L13507.6214,-3481.402L13507.633,-3481.3906L13507.6405,-3481.3774L13507.6407,-3481.3767L13507.6481,-3481.3533L13507.6489,-3481.351L13507.6552,-3481.3328L13507.6583,-3481.3148L13507.6614,-3481.2947L13507.6633,-3481.2888L13507.6667,-3481.2778L13507.6729,-3481.2668L13507.6809,-3481.2573L13507.6926,-3481.2455L13507.7147,-3481.2229L13507.72,-3481.2162L13507.7284,-3481.2057L13507.732,-3481.1962L13507.7307,-3481.1819L13507.7316,-3481.1786L13507.7271,-3481.1672L13507.7156,-3481.1507L13507.7071,-3481.1372L13507.7045,-3481.1295L13507.6665,-3481.0436L13507.6541,-3481.0153L13507.6492,-3481.0043L13507.6456,-3480.9962L13507.628,-3480.9563L13507.6175,-3480.9324L13507.6096,-3480.9239L13507.5897,-3480.902L13507.5837,-3480.8955L13507.5806,-3480.8938L13507.5775,-3480.886L13507.5789,-3480.8739L13507.5917,-3480.8666L13507.617,-3480.8577L13507.6339,-3480.8512L13507.6523,-3480.8404L13507.6542,-3480.8393L13507.6552,-3480.8387L13507.659,-3480.8333L13507.6645,-3480.8255L13507.6707,-3480.8149L13507.6734,-3480.8032L13507.6747,-3480.7914L13507.6645,-3480.7786L13507.6584,-3480.7761L13507.649,-3480.7721L13507.6295,-3480.7636L13507.6077,-3480.7557L13507.5806,-3480.7455L13507.5682,-3480.7389L13507.5611,-3480.7316L13507.5535,-3480.7195L13507.546,-3480.7041L13507.5447,-3480.6788L13507.5451,-3480.6649L13507.5349,-3480.6539L13507.5247,-3480.6448L13507.5087,-3480.6316L13507.5034,-3480.6232L13507.5011,-3480.6107L13507.5,-3480.5998L13507.4989,-3480.5895L13507.4954,-3480.5719L13507.5,-3480.5649L13507.5007,-3480.5638L13507.5167,-3480.5558L13507.5402,-3480.5514L13507.5664,-3480.5466L13507.578,-3480.5426L13507.5975,-3480.5353L13507.6121,-3480.5206L13507.629,-3480.5052L13507.6392,-3480.4994L13507.6526,-3480.4994L13507.6774,-3480.5001L13507.6885,-3480.4972L13507.7098,-3480.4836L13507.7183,-3480.4687L13500,-3480.4688L13500,-3483.0889L13500.0004,-3483.0891L13500.0604,-3483.1174L13500.1233,-3483.1526L13500.1667,-3483.1717L13500.1862,-3483.1842L13500.1963,-3483.1967L13500.2028,-3483.2116L13500.2187,-3483.2452L13500.2296,-3483.2637L13500.231,-3483.2762L13500.2296,-3483.2917L13500.2277,-3483.3333L13500.2267,-3483.3551L13500.2308,-3483.3855L13500.2309,-3483.3861L13500.2317,-3483.3927L13500.2497,-3483.4278L13500.2599,-3483.4493L13500.262,-3483.466L13500.2599,-3483.4827L13500.2454,-3483.5519L13500.2447,-3483.5686L13500.2358,-3483.5861L13500.2296,-3483.6075L13500.2241,-3483.6171L13500.2154,-3483.6322L13500.2125,-3483.6564L13500.2248,-3483.6864L13500.2393,-3483.712L13500.2429,-3483.7269L13500.2479,-3483.8098L13500.2296,-3483.8199L13500.2241,-3483.823L13500.2146,-3483.8289L13500.1626,-3483.8927L13500.143,-3483.9154L13500.1307,-3483.9219L13500.1162,-3483.9261L13500.0851,-3483.9327L13500.0561,-3483.9422L13500.033,-3483.9591L13500.0325,-3483.9595L13500.0127,-3483.9772L13500,-3483.9887L13500,-3484.4231L13500.0305,-3484.4493L13500.0622,-3484.4765L13500.1184,-3484.5308L13500.1217,-3484.5339L13500.1281,-3484.54L13500.1334,-3484.545L13500.1473,-3484.5582L13500.165,-3484.575L13500.2073,-3484.6152L13500.2164,-3484.6237L13500.2284,-3484.6352L13500.2428,-3484.65L13500.2726,-3484.6805L13500.2778,-3484.6864L13500.2953,-3484.7063L13500.3088,-3484.7217L13500.3617,-3484.7808L13500.3678,-3484.7876L13500.3739,-3484.7944L13500.3698,-3484.8146L13500.3652,-3484.8374L13500.4144,-3484.8971L13500.4279,-3484.9159L13500.4325,-3484.9223L13500.4752,-3484.9817L13500.4801,-3484.9954L13500.4827,-3485L13500.4902,-3485.0133L13500.5047,-3485.0349L13500.5097,-3485.0423L13500.5307,-3485.0736L13500.5583,-3485.1142L13500.5627,-3485.1189L13500.5757,-3485.1326L13500.5887,-3485.1464L13500.6147,-3485.1714L13500.64,-3485.1935L13500.6661,-3485.2186L13500.731,-3485.271L13500.7541,-3485.2895L13500.7802,-3485.3104L13500.8251,-3485.3456L13500.8333,-3485.3509L13500.8729,-3485.3766L13500.9337,-3485.416L13500.9706,-3485.4363L13500.9916,-3485.4428L13501.0111,-3485.4458L13501.0487,-3485.4458L13501.1031,-3485.4428L13501.145,-3485.4434L13501.223,-3485.4452L13501.226,-3485.4456L13501.2574,-3485.4489L13501.2888,-3485.4524L13501.3648,-3485.4649L13501.4285,-3485.4768L13501.4734,-3485.4792L13501.5096,-3485.4768L13501.5984,-3485.4673L13501.6667,-3485.4644L13501.6701,-3485.4643L13501.7273,-3485.4631L13501.7569,-3485.4655L13501.7793,-3485.4709L13501.7967,-3485.4828L13501.8115,-3485.5053L13501.8206,-3485.5192L13501.8742,-3485.5043L13501.8966,-3485.4906L13501.9396,-3485.4732L13501.956,-3485.4667L13501.9948,-3485.4487L13502.0113,-3485.441L13502.0267,-3485.4339L13502.0621,-3485.4207L13502.0886,-3485.4127L13502.0896,-3485.4124L13502.1128,-3485.4071L13502.1446,-3485.4053L13502.17,-3485.3987L13502.2156,-3485.388L13502.2539,-3485.3814L13502.2595,-3485.3806L13502.3357,-3485.3701L13502.3611,-3485.3629L13502.3799,-3485.3552L13502.4281,-3485.3247L13502.4527,-3485.311L13502.4537,-3485.3106L13502.4759,-3485.2997L13502.5,-3485.2911L13502.5128,-3485.2866L13502.5389,-3485.2782L13502.6178,-3485.2603L13502.6757,-3485.2526L13502.6836,-3485.2364L13502.6923,-3485.2186L13502.704,-3485.219L13502.7249,-3485.2197L13502.7372,-3485.2269L13502.7459,-3485.2436L13502.7575,-3485.2681L13502.7703,-3485.2866L13502.7956,-3485.3158L13502.8014,-3485.3301L13502.8007,-3485.3432L13502.7927,-3485.3784L13502.7956,-3485.3969L13502.8065,-3485.4196L13502.8246,-3485.4387L13502.834,-3485.4422L13502.8658,-3485.4405L13502.8883,-3485.4348L13502.8897,-3485.4345L13502.9034,-3485.4339L13502.9088,-3485.4349L13502.9223,-3485.4375L13502.9549,-3485.4482L13503.0207,-3485.4369L13503.0417,-3485.4357L13503.0511,-3485.4381L13503.0613,-3485.4458L13503.075,-3485.4631L13503.075,-3485.4798L13503.0801,-3485.4983L13503.0895,-3485.5102L13503.0974,-3485.5156L13503.1199,-3485.5192L13503.1771,-3485.5102L13503.2217,-3485.5031L13503.242,-3485.5043L13503.2681,-3485.5156L13503.2833,-3485.5222L13503.3107,-3485.5281L13503.3333,-3485.5409L13503.3361,-3485.5424L13503.3484,-3485.5538L13503.3723,-3485.5705L13503.462,-3485.6134L13503.4893,-3485.6331L13503.5052,-3485.6385L13503.5197,-3485.6391L13503.5378,-3485.6307L13503.5552,-3485.6176L13503.5725,-3485.614L13503.5899,-3485.6158L13503.6029,-3485.623L13503.6167,-3485.6427L13503.6435,-3485.6922L13503.6608,-3485.7089L13503.6854,-3485.7566L13503.7158,-3485.7578L13503.7564,-3485.765L13503.7708,-3485.7739L13503.802,-3485.8097L13503.8193,-3485.8228L13503.8211,-3485.8237L13503.8382,-3485.8323L13503.8409,-3485.8333L13503.878,-3485.8467L13503.8836,-3485.852L13503.9183,-3485.9003L13503.94,-3485.9206L13503.9516,-3485.932L13503.953,-3485.9403L13503.9436,-3485.9672L13503.9393,-3485.988L13503.9414,-3486.0107L13503.9472,-3486.0411L13503.9586,-3486.064L13503.9588,-3486.0644L13503.9683,-3486.0784L13503.974,-3486.087L13503.982,-3486.093L13504.0087,-3486.1079L13504.0305,-3486.1145L13504.0696,-3486.1383L13504.105,-3486.1658L13504.1289,-3486.1783L13504.1412,-3486.1813L13504.1658,-3486.1831L13504.1667,-3486.183L13504.1875,-3486.1801L13504.2179,-3486.1741L13504.2853,-3486.1813L13504.3164,-3486.1789L13504.3837,-3486.1884L13504.4117,-3486.1825L13504.4254,-3486.1765L13504.4392,-3486.167L13504.4501,-3486.1562L13504.4739,-3486.1228L13504.4862,-3486.1049L13504.4935,-3486.0876L13504.4978,-3486.0793L13504.5036,-3486.0721L13504.5108,-3486.0674L13504.5166,-3486.068L13504.5246,-3486.0709L13504.547,-3486.0912L13504.5724,-3486.1091L13504.5839,-3486.1109L13504.5991,-3486.1067L13504.6491,-3486.087L13504.6889,-3486.0817L13504.7229,-3486.0668L13504.7408,-3486.059L13504.7502,-3486.0584L13504.7625,-3486.0596L13504.803,-3486.0781L13504.8414,-3486.0877L13504.8849,-3486.1012L13504.895,-3486.1043L13504.9152,-3486.1342L13504.9261,-3486.161L13504.9341,-3486.1741L13504.9493,-3486.1908L13504.9717,-3486.2099L13504.9931,-3486.2204L13505,-3486.2238L13505.0069,-3486.2272L13505.0713,-3486.2505L13505.0811,-3486.2536L13505.0996,-3486.2594L13505.1437,-3486.2648L13505.1624,-3486.2736L13505.1908,-3486.2869L13505.1953,-3486.2884L13505.2046,-3486.2915L13505.2256,-3486.2985L13505.2516,-3486.3072L13505.2994,-3486.3209L13505.3146,-3486.3256L13505.3174,-3486.3501L13505.3334,-3486.3823L13505.3594,-3486.4163L13505.4028,-3486.4485L13505.504,-3486.532L13505.5192,-3486.5499L13505.53,-3486.572L13505.5351,-3486.5815L13505.5452,-3486.5923L13505.5778,-3486.6102L13505.6241,-3486.6328L13505.6436,-3486.6376L13505.6617,-3486.6412L13505.6711,-3486.6483L13505.6842,-3486.6602L13505.6899,-3486.6667L13505.6965,-3486.674L13505.711,-3486.6972L13505.7469,-3486.7076L13505.8123,-3486.7265L13505.8333,-3486.731L13505.8485,-3486.7342L13505.863,-3486.7408L13505.8767,-3486.7503L13505.8883,-3486.767L13505.8917,-3486.7778L13505.8903,-3486.7992L13505.8939,-3486.8058L13505.9054,-3486.8189L13505.9337,-3486.8708L13505.9441,-3486.8854L13505.9481,-3486.8911L13505.967,-3486.9161L13505.9836,-3486.9293L13506.0046,-3486.9424L13506.0199,-3486.951L13506.0386,-3486.9615L13506.0763,-3486.9937L13506.128,-3487.0559L13506.1477,-3487.0796L13506.1607,-3487.0909L13506.1962,-3487.1118L13506.2483,-3487.141L13506.2613,-3487.153L13506.2693,-3487.1661L13506.2809,-3487.1989L13506.2888,-3487.2353L13506.2903,-3487.2526L13506.2888,-3487.2627L13506.2845,-3487.2687L13506.2765,-3487.2693L13506.2374,-3487.2639L13506.2223,-3487.2645L13506.2123,-3487.2687L13506.1913,-3487.2884L13506.1689,-3487.3021L13506.148,-3487.3149L13506.1349,-3487.3229L13506.1277,-3487.3325L13506.1247,-3487.348L13506.111,-3487.3671L13506.1067,-3487.3772L13506.1067,-3487.3862L13506.1117,-3487.3916L13506.1137,-3487.3931L13506.1363,-3487.4106L13506.1805,-3487.4291L13506.2159,-3487.453L13506.2259,-3487.4649L13506.2251,-3487.4744L13506.2186,-3487.4995L13506.2185,-3487.5L13506.2155,-3487.5109L13506.2114,-3487.5264L13506.2112,-3487.5293L13506.2099,-3487.5502L13506.2208,-3487.5729L13506.2374,-3487.5908L13506.2599,-3487.6063L13506.2751,-3487.62L13506.299,-3487.6498L13506.3106,-3487.6761L13506.3178,-3487.6862L13506.3286,-3487.691L13506.3591,-3487.7029L13506.3728,-3487.7107L13506.3815,-3487.722L13506.3851,-3487.7339L13506.3844,-3487.7471L13506.3663,-3487.7882L13506.3598,-3487.8132L13506.3598,-3487.8216L13506.3641,-3487.8329L13506.3764,-3487.8556L13506.3829,-3487.8771L13506.3822,-3487.8896L13506.3692,-3487.932L13506.3554,-3487.9636L13506.3554,-3487.9779L13506.3583,-3488.0298L13506.3532,-3488.0519L13506.3402,-3488.0859L13506.3185,-3488.1139L13506.3149,-3488.1228L13506.3091,-3488.17L13506.3033,-3488.1855L13506.2917,-3488.2028L13506.2896,-3488.2105L13506.2896,-3488.2248L13506.2773,-3488.2678L13506.2678,-3488.2874L13506.2519,-3488.3036L13506.2346,-3488.3202L13506.2242,-3488.3333L13506.2237,-3488.334L13506.2226,-3488.3376L13506.2186,-3488.3501L13506.2208,-3488.399L13506.2179,-3488.4414L13506.2454,-3488.4408L13506.2693,-3488.4467L13506.2816,-3488.4449L13506.3004,-3488.4366L13506.3395,-3488.4294L13506.3749,-3488.4133L13506.393,-3488.4109L13506.4155,-3488.4121L13506.4278,-3488.4175L13506.4384,-3488.4282L13506.4703,-3488.4724L13506.4913,-3488.4992L13506.5123,-3488.5141L13506.5347,-3488.5231L13506.5861,-3488.5374L13506.6281,-3488.5451L13506.6664,-3488.5606L13506.6667,-3488.5608L13506.7026,-3488.5821L13506.7151,-3488.5915L13506.7352,-3488.6066L13506.7736,-3488.6316L13506.8134,-3488.6704L13506.8221,-3488.6919L13506.838,-3488.7062L13506.8488,-3488.711L13506.8915,-3488.7146L13506.9502,-3488.7241L13506.9936,-3488.7289L13507.016,-3488.7295L13507.0254,-3488.7342L13507.0262,-3488.7356L13507.0327,-3488.7479L13507.0341,-3488.7688L13507.0384,-3488.7784L13507.0462,-3488.782L13507.0585,-3488.7814L13507.0904,-3488.7712L13507.099,-3488.7629L13507.1135,-3488.7467L13507.1215,-3488.7402L13507.1461,-3488.7301L13507.1656,-3488.7265L13507.1823,-3488.7271L13507.2221,-3488.7408L13507.2366,-3488.7414L13507.2735,-3488.7396L13507.3517,-3488.7354L13507.3835,-3488.7301L13507.3987,-3488.7241L13507.4132,-3488.7116L13507.4363,-3488.6776L13507.4428,-3488.6644L13507.4508,-3488.6316L13507.4578,-3488.6227L13507.4701,-3488.6167L13507.5,-3488.6093L13507.5034,-3488.6084L13507.5244,-3488.6072L13507.5556,-3488.6084L13507.6178,-3488.6161L13507.6265,-3488.6126L13507.6337,-3488.603L13507.6469,-3488.6057L13507.6582,-3488.608L13507.7523,-3488.6396L13507.7827,-3488.6599L13507.7979,-3488.6813L13507.8081,-3488.704L13507.8189,-3488.7141L13507.8305,-3488.7171L13507.8471,-3488.7165L13507.8631,-3488.7082L13507.8978,-3488.6849L13507.9152,-3488.6777L13507.9593,-3488.6724L13507.9731,-3488.6694L13508.0657,-3488.6384L13508.0787,-3488.6271L13508.1041,-3488.5961L13508.1142,-3488.5794L13508.1164,-3488.5644L13508.1127,-3488.5436L13508.1135,-3488.5352L13508.1222,-3488.5263L13508.1359,-3488.5215L13508.156,-3488.5251L13508.1907,-3488.534L13508.2059,-3488.5477L13508.2161,-3488.5662L13508.2494,-3488.5913L13508.2964,-3488.6205L13508.3333,-3488.6492L13508.3341,-3488.6497L13508.3521,-3488.6563L13508.3666,-3488.6563L13508.4194,-3488.6497L13508.439,-3488.6492L13508.4781,-3488.6515L13508.493,-3488.65L13508.5476,-3488.6444L13508.5719,-3488.645L13508.5857,-3488.6474L13508.606,-3488.6581L13508.6255,-3488.6742L13508.6762,-3488.6963L13508.7143,-3488.7136L13508.7671,-3488.7368L13508.7824,-3488.7547L13508.7891,-3488.759Z"/>
<path content="兵庫県,,,小野市,,28218" xlink:title="兵庫県" d="M13500,-3489.2578L13500.2854,-3489.2578L13500.3029,-3489.245L13500.3746,-3489.1812L13500.3877,-3489.1667L13500.3934,-3489.1603L13500.4012,-3489.1466L13500.4055,-3489.1275L13500.4193,-3489.1096L13500.4318,-3489.0894L13500.4323,-3489.0887L13500.4475,-3489.0511L13500.4563,-3489.0349L13500.4656,-3489.0178L13500.4808,-3488.9814L13500.4902,-3488.9486L13500.4966,-3488.9416L13500.4967,-3488.9414L13500.5083,-3488.9361L13500.5135,-3488.9341L13500.5423,-3488.9235L13500.6407,-3488.8953L13500.663,-3488.8889L13500.7057,-3488.8807L13500.731,-3488.8758L13500.7382,-3488.8764L13500.7527,-3488.8836L13500.7867,-3488.8973L13500.7975,-3488.899L13500.8067,-3488.9005L13500.8236,-3488.9032L13500.8333,-3488.9032L13500.8548,-3488.9032L13500.8658,-3488.9051L13500.8725,-3488.9062L13500.891,-3488.9092L13500.9131,-3488.9085L13500.9151,-3488.9084L13500.9279,-3488.908L13500.9583,-3488.9002L13500.9623,-3488.8984L13501.0133,-3488.8746L13501.0142,-3488.874L13501.0221,-3488.8689L13501.0401,-3488.8573L13501.0596,-3488.8364L13501.1103,-3488.7869L13501.1276,-3488.7637L13501.1429,-3488.7405L13501.1457,-3488.7362L13501.1551,-3488.7136L13501.1731,-3488.6612L13501.179,-3488.6438L13501.1819,-3488.6329L13501.1824,-3488.6309L13501.1918,-3488.5949L13501.1933,-3488.5764L13501.1897,-3488.5507L13501.181,-3488.5096L13501.1723,-3488.4829L13501.1709,-3488.4786L13501.1404,-3488.3938L13501.1325,-3488.3598L13501.1311,-3488.3429L13501.131,-3488.3426L13501.1333,-3488.3333L13501.1361,-3488.3217L13501.1441,-3488.3086L13501.1759,-3488.2895L13501.2136,-3488.2787L13501.2671,-3488.2746L13501.3214,-3488.2746L13501.3626,-3488.2799L13501.3945,-3488.2937L13501.4271,-3488.3116L13501.4317,-3488.3173L13501.4447,-3488.3333L13501.4575,-3488.3491L13501.4577,-3488.3495L13501.4746,-3488.3764L13501.5009,-3488.4183L13501.5362,-3488.466L13501.5434,-3488.4658L13501.5593,-3488.4654L13501.5607,-3488.4656L13501.6008,-3488.4709L13501.6042,-3488.4714L13501.631,-3488.4815L13501.6527,-3488.4875L13501.6635,-3488.4881L13501.6667,-3488.487L13501.6773,-3488.4833L13501.6917,-3488.4756L13501.7077,-3488.4624L13501.7193,-3488.4535L13501.7323,-3488.4243L13501.7439,-3488.4016L13501.7591,-3488.3903L13501.7779,-3488.3837L13501.7953,-3488.3819L13501.8148,-3488.3837L13501.8264,-3488.3855L13501.8351,-3488.3837L13501.859,-3488.3712L13501.8793,-3488.3664L13501.8843,-3488.3605L13501.8857,-3488.3521L13501.8726,-3488.3333L13501.8669,-3488.3253L13501.8597,-3488.308L13501.8597,-3488.3008L13501.8677,-3488.2919L13501.8872,-3488.2716L13501.8952,-3488.2543L13501.9039,-3488.2507L13501.9111,-3488.2501L13501.9523,-3488.2638L13501.9661,-3488.265L13501.9777,-3488.2632L13501.9893,-3488.2573L13501.9999,-3488.2429L13502.0014,-3488.239L13502.0034,-3488.2341L13502.0223,-3488.1857L13502.0259,-3488.1779L13502.0368,-3488.1761L13502.0621,-3488.1749L13502.0998,-3488.1696L13502.1186,-3488.163L13502.136,-3488.1505L13502.1512,-3488.1338L13502.1627,-3488.1129L13502.1718,-3488.0985L13502.1743,-3488.0944L13502.1845,-3488.0849L13502.2062,-3488.0742L13502.2214,-3488.0718L13502.2387,-3488.0658L13502.2546,-3488.0562L13502.2684,-3488.0419L13502.28,-3488.0193L13502.2916,-3487.9877L13502.2959,-3487.9763L13502.3082,-3487.962L13502.3254,-3487.9471L13502.3362,-3487.934L13502.3464,-3487.9155L13502.3485,-3487.9041L13502.3478,-3487.8815L13502.3456,-3487.869L13502.3362,-3487.8582L13502.3116,-3487.8415L13502.2928,-3487.8254L13502.2756,-3487.8051L13502.2641,-3487.7819L13502.2612,-3487.7628L13502.2525,-3487.7502L13502.2373,-3487.7371L13502.2134,-3487.7085L13502.2062,-3487.696L13502.2011,-3487.6775L13502.1924,-3487.6375L13502.183,-3487.6244L13502.1801,-3487.6119L13502.1772,-3487.5946L13502.1823,-3487.5856L13502.2033,-3487.5683L13502.2098,-3487.5588L13502.2177,-3487.5409L13502.2214,-3487.5367L13502.2273,-3487.5338L13502.2569,-3487.5188L13502.267,-3487.5129L13502.2795,-3487.5L13502.2815,-3487.4979L13502.3154,-3487.4478L13502.3444,-3487.4121L13502.3668,-3487.3769L13502.3712,-3487.3619L13502.3726,-3487.3375L13502.3763,-3487.322L13502.3799,-3487.3071L13502.3784,-3487.2922L13502.3697,-3487.2695L13502.3582,-3487.2588L13502.3538,-3487.2522L13502.3545,-3487.2397L13502.3574,-3487.2158L13502.3603,-3487.1896L13502.3726,-3487.1675L13502.3813,-3487.1514L13502.3842,-3487.1222L13502.3886,-3487.109L13502.4037,-3487.0846L13502.4175,-3487.0601L13502.4253,-3487.0387L13502.4347,-3487.0297L13502.4521,-3487.0208L13502.4622,-3487.0136L13502.4687,-3487.0023L13502.4883,-3486.9748L13502.5,-3486.9625L13502.5042,-3486.9581L13502.5266,-3486.9426L13502.5375,-3486.9331L13502.5461,-3486.9176L13502.5563,-3486.9032L13502.5628,-3486.8824L13502.5722,-3486.8639L13502.5903,-3486.8436L13502.6055,-3486.8335L13502.62,-3486.8293L13502.6395,-3486.8221L13502.6446,-3486.8179L13502.6475,-3486.8072L13502.6475,-3486.781L13502.6508,-3486.7633L13502.6518,-3486.7577L13502.6453,-3486.7345L13502.6453,-3486.7196L13502.6598,-3486.6832L13502.6634,-3486.673L13502.6645,-3486.6667L13502.6699,-3486.6348L13502.6808,-3486.6002L13502.6916,-3486.5788L13502.6931,-3486.5704L13502.6909,-3486.5513L13502.6829,-3486.537L13502.6583,-3486.5018L13502.6504,-3486.4905L13502.6424,-3486.4726L13502.6366,-3486.4487L13502.6366,-3486.4261L13502.6395,-3486.4028L13502.6403,-3486.3664L13502.6497,-3486.3491L13502.6533,-3486.33L13502.6547,-3486.3127L13502.6482,-3486.3002L13502.6344,-3486.2853L13502.6149,-3486.2573L13502.5954,-3486.2418L13502.5794,-3486.2239L13502.5686,-3486.2006L13502.5621,-3486.1684L13502.5635,-3486.1463L13502.57,-3486.1135L13502.5816,-3486.0897L13502.5961,-3486.0717L13502.6171,-3486.0539L13502.6251,-3486.0413L13502.6243,-3486.036L13502.6164,-3486.0288L13502.6084,-3486.0157L13502.6069,-3486.0014L13502.6164,-3485.9501L13502.6207,-3485.9382L13502.6338,-3485.9252L13502.6417,-3485.9173L13502.6526,-3485.9036L13502.6526,-3485.8952L13502.6453,-3485.8916L13502.6366,-3485.891L13502.6055,-3485.8916L13502.5715,-3485.8988L13502.5534,-3485.9L13502.5259,-3485.897L13502.5,-3485.9001L13502.4955,-3485.9006L13502.481,-3485.9L13502.4275,-3485.8869L13502.413,-3485.8809L13502.4101,-3485.8719L13502.4136,-3485.8333L13502.4137,-3485.832L13502.4152,-3485.8218L13502.4202,-3485.8141L13502.4564,-3485.7878L13502.4767,-3485.7711L13502.4955,-3485.7437L13502.5,-3485.7341L13502.5187,-3485.6942L13502.523,-3485.6715L13502.5216,-3485.6507L13502.5165,-3485.6339L13502.5,-3485.6343L13502.4928,-3485.6345L13502.4919,-3485.6346L13502.4687,-3485.6298L13502.4615,-3485.6256L13502.4615,-3485.6202L13502.468,-3485.6071L13502.5,-3485.5819L13502.5013,-3485.5809L13502.5,-3485.5703L13502.4962,-3485.5397L13502.4915,-3485.5243L13502.4882,-3485.5137L13502.4816,-3485.4921L13502.4769,-3485.4768L13502.4723,-3485.4621L13502.4651,-3485.4139L13502.4644,-3485.3739L13502.4651,-3485.3626L13502.4723,-3485.348L13502.4752,-3485.3289L13502.4754,-3485.3195L13502.4757,-3485.3101L13502.4759,-3485.2997L13502.4537,-3485.3106L13502.4527,-3485.311L13502.4281,-3485.3247L13502.3799,-3485.3552L13502.3611,-3485.3629L13502.3357,-3485.3701L13502.2595,-3485.3806L13502.2539,-3485.3814L13502.2156,-3485.388L13502.17,-3485.3987L13502.1446,-3485.4053L13502.1128,-3485.4071L13502.0896,-3485.4124L13502.0886,-3485.4127L13502.0621,-3485.4207L13502.0267,-3485.4339L13502.0113,-3485.441L13501.9948,-3485.4487L13501.956,-3485.4667L13501.9396,-3485.4732L13501.8966,-3485.4906L13501.8742,-3485.5043L13501.8206,-3485.5192L13501.8115,-3485.5053L13501.7967,-3485.4828L13501.7793,-3485.4709L13501.7569,-3485.4655L13501.7273,-3485.4631L13501.6701,-3485.4643L13501.6667,-3485.4644L13501.5984,-3485.4673L13501.5096,-3485.4768L13501.4734,-3485.4792L13501.4285,-3485.4768L13501.3648,-3485.4649L13501.2888,-3485.4524L13501.2574,-3485.4489L13501.226,-3485.4456L13501.223,-3485.4452L13501.145,-3485.4434L13501.1031,-3485.4428L13501.0487,-3485.4458L13501.0111,-3485.4458L13500.9916,-3485.4428L13500.9706,-3485.4363L13500.9337,-3485.416L13500.8729,-3485.3766L13500.8333,-3485.3509L13500.8251,-3485.3456L13500.7802,-3485.3104L13500.7541,-3485.2895L13500.731,-3485.271L13500.6661,-3485.2186L13500.64,-3485.1935L13500.6147,-3485.1714L13500.5887,-3485.1464L13500.5757,-3485.1326L13500.5627,-3485.1189L13500.5583,-3485.1142L13500.5307,-3485.0736L13500.5097,-3485.0423L13500.5047,-3485.0349L13500.4902,-3485.0133L13500.4827,-3485L13500.4801,-3484.9954L13500.4752,-3484.9817L13500.4325,-3484.9223L13500.4279,-3484.9159L13500.4144,-3484.8971L13500.3652,-3484.8374L13500.3698,-3484.8146L13500.3739,-3484.7944L13500.3678,-3484.7876L13500.3617,-3484.7808L13500.3088,-3484.7217L13500.2953,-3484.7063L13500.2778,-3484.6864L13500.2726,-3484.6805L13500.2428,-3484.65L13500.2284,-3484.6352L13500.2164,-3484.6237L13500.2073,-3484.6152L13500.165,-3484.575L13500.1473,-3484.5582L13500.1334,-3484.545L13500.1281,-3484.54L13500.1217,-3484.5339L13500.1184,-3484.5308L13500.0622,-3484.4765L13500.0305,-3484.4493L13500,-3484.4231L13500,-3483.9887L13500.0127,-3483.9772L13500.0325,-3483.9595L13500.033,-3483.9591L13500.0561,-3483.9422L13500.0851,-3483.9327L13500.1162,-3483.9261L13500.1307,-3483.9219L13500.143,-3483.9154L13500.1626,-3483.8927L13500.2146,-3483.8289L13500.2241,-3483.823L13500.2296,-3483.8199L13500.2479,-3483.8098L13500.2429,-3483.7269L13500.2393,-3483.712L13500.2248,-3483.6864L13500.2125,-3483.6564L13500.2154,-3483.6322L13500.2241,-3483.6171L13500.2296,-3483.6075L13500.2358,-3483.5861L13500.2447,-3483.5686L13500.2454,-3483.5519L13500.2599,-3483.4827L13500.262,-3483.466L13500.2599,-3483.4493L13500.2497,-3483.4278L13500.2317,-3483.3927L13500.2309,-3483.3861L13500.2308,-3483.3855L13500.2267,-3483.3551L13500.2277,-3483.3333L13500.2296,-3483.2917L13500.231,-3483.2762L13500.2296,-3483.2637L13500.2187,-3483.2452L13500.2028,-3483.2116L13500.1963,-3483.1967L13500.1862,-3483.1842L13500.1667,-3483.1717L13500.1233,-3483.1526L13500.0604,-3483.1174L13500.0004,-3483.0891L13500,-3483.0889Z"/>
<path content="兵庫県,,,加東市,,28228" xlink:title="兵庫県" d="M13508.7891,-3489.2578L13508.7891,-3488.759L13508.7824,-3488.7547L13508.7671,-3488.7368L13508.7143,-3488.7136L13508.6762,-3488.6963L13508.6255,-3488.6742L13508.606,-3488.6581L13508.5857,-3488.6474L13508.5719,-3488.645L13508.5476,-3488.6444L13508.493,-3488.65L13508.4781,-3488.6515L13508.439,-3488.6492L13508.4194,-3488.6497L13508.3666,-3488.6563L13508.3521,-3488.6563L13508.3341,-3488.6497L13508.3333,-3488.6492L13508.2964,-3488.6205L13508.2494,-3488.5913L13508.2161,-3488.5662L13508.2059,-3488.5477L13508.1907,-3488.534L13508.156,-3488.5251L13508.1359,-3488.5215L13508.1222,-3488.5263L13508.1135,-3488.5352L13508.1127,-3488.5436L13508.1164,-3488.5644L13508.1142,-3488.5794L13508.1041,-3488.5961L13508.0787,-3488.6271L13508.0657,-3488.6384L13507.9731,-3488.6694L13507.9593,-3488.6724L13507.9152,-3488.6777L13507.8978,-3488.6849L13507.8631,-3488.7082L13507.8471,-3488.7165L13507.8305,-3488.7171L13507.8189,-3488.7141L13507.8081,-3488.704L13507.7979,-3488.6813L13507.7827,-3488.6599L13507.7523,-3488.6396L13507.6582,-3488.608L13507.6469,-3488.6057L13507.6337,-3488.603L13507.6265,-3488.6126L13507.6178,-3488.6161L13507.5556,-3488.6084L13507.5244,-3488.6072L13507.5034,-3488.6084L13507.5,-3488.6093L13507.4701,-3488.6167L13507.4578,-3488.6227L13507.4508,-3488.6316L13507.4428,-3488.6644L13507.4363,-3488.6776L13507.4132,-3488.7116L13507.3987,-3488.7241L13507.3835,-3488.7301L13507.3517,-3488.7354L13507.2735,-3488.7396L13507.2366,-3488.7414L13507.2221,-3488.7408L13507.1823,-3488.7271L13507.1656,-3488.7265L13507.1461,-3488.7301L13507.1215,-3488.7402L13507.1135,-3488.7467L13507.099,-3488.7629L13507.0904,-3488.7712L13507.0585,-3488.7814L13507.0462,-3488.782L13507.0384,-3488.7784L13507.0341,-3488.7688L13507.0327,-3488.7479L13507.0262,-3488.7356L13507.0254,-3488.7342L13507.016,-3488.7295L13506.9936,-3488.7289L13506.9502,-3488.7241L13506.8915,-3488.7146L13506.8488,-3488.711L13506.838,-3488.7062L13506.8221,-3488.6919L13506.8134,-3488.6704L13506.7736,-3488.6316L13506.7352,-3488.6066L13506.7151,-3488.5915L13506.7026,-3488.5821L13506.6667,-3488.5608L13506.6664,-3488.5606L13506.6281,-3488.5451L13506.5861,-3488.5374L13506.5347,-3488.5231L13506.5123,-3488.5141L13506.4913,-3488.4992L13506.4703,-3488.4724L13506.4384,-3488.4282L13506.4278,-3488.4175L13506.4155,-3488.4121L13506.393,-3488.4109L13506.3749,-3488.4133L13506.3395,-3488.4294L13506.3004,-3488.4366L13506.2816,-3488.4449L13506.2693,-3488.4467L13506.2454,-3488.4408L13506.2179,-3488.4414L13506.2208,-3488.399L13506.2186,-3488.3501L13506.2226,-3488.3376L13506.2237,-3488.334L13506.2242,-3488.3333L13506.2346,-3488.3202L13506.2519,-3488.3036L13506.2678,-3488.2874L13506.2773,-3488.2678L13506.2896,-3488.2248L13506.2896,-3488.2105L13506.2917,-3488.2028L13506.3033,-3488.1855L13506.3091,-3488.17L13506.3149,-3488.1228L13506.3185,-3488.1139L13506.3402,-3488.0859L13506.3532,-3488.0519L13506.3583,-3488.0298L13506.3554,-3487.9779L13506.3554,-3487.9636L13506.3692,-3487.932L13506.3822,-3487.8896L13506.3829,-3487.8771L13506.3764,-3487.8556L13506.3641,-3487.8329L13506.3598,-3487.8216L13506.3598,-3487.8132L13506.3663,-3487.7882L13506.3844,-3487.7471L13506.3851,-3487.7339L13506.3815,-3487.722L13506.3728,-3487.7107L13506.3591,-3487.7029L13506.3286,-3487.691L13506.3178,-3487.6862L13506.3106,-3487.6761L13506.299,-3487.6498L13506.2751,-3487.62L13506.2599,-3487.6063L13506.2374,-3487.5908L13506.2208,-3487.5729L13506.2099,-3487.5502L13506.2112,-3487.5293L13506.2114,-3487.5264L13506.2155,-3487.5109L13506.2185,-3487.5L13506.2186,-3487.4995L13506.2251,-3487.4744L13506.2259,-3487.4649L13506.2159,-3487.453L13506.1805,-3487.4291L13506.1363,-3487.4106L13506.1137,-3487.3931L13506.1117,-3487.3916L13506.1067,-3487.3862L13506.1067,-3487.3772L13506.111,-3487.3671L13506.1247,-3487.348L13506.1277,-3487.3325L13506.1349,-3487.3229L13506.148,-3487.3149L13506.1689,-3487.3021L13506.1913,-3487.2884L13506.2123,-3487.2687L13506.2223,-3487.2645L13506.2374,-3487.2639L13506.2765,-3487.2693L13506.2845,-3487.2687L13506.2888,-3487.2627L13506.2903,-3487.2526L13506.2888,-3487.2353L13506.2809,-3487.1989L13506.2693,-3487.1661L13506.2613,-3487.153L13506.2483,-3487.141L13506.1962,-3487.1118L13506.1607,-3487.0909L13506.1477,-3487.0796L13506.128,-3487.0559L13506.0763,-3486.9937L13506.0386,-3486.9615L13506.0199,-3486.951L13506.0046,-3486.9424L13505.9836,-3486.9293L13505.967,-3486.9161L13505.9481,-3486.8911L13505.9441,-3486.8854L13505.9337,-3486.8708L13505.9054,-3486.8189L13505.8939,-3486.8058L13505.8903,-3486.7992L13505.8917,-3486.7778L13505.8883,-3486.767L13505.8767,-3486.7503L13505.863,-3486.7408L13505.8485,-3486.7342L13505.8333,-3486.731L13505.8123,-3486.7265L13505.7469,-3486.7076L13505.711,-3486.6972L13505.6965,-3486.674L13505.6899,-3486.6667L13505.6842,-3486.6602L13505.6711,-3486.6483L13505.6617,-3486.6412L13505.6436,-3486.6376L13505.6241,-3486.6328L13505.5778,-3486.6102L13505.5452,-3486.5923L13505.5351,-3486.5815L13505.53,-3486.572L13505.5192,-3486.5499L13505.504,-3486.532L13505.4028,-3486.4485L13505.3594,-3486.4163L13505.3334,-3486.3823L13505.3174,-3486.3501L13505.3146,-3486.3256L13505.2994,-3486.3209L13505.2516,-3486.3072L13505.2256,-3486.2985L13505.2046,-3486.2915L13505.1953,-3486.2884L13505.1908,-3486.2869L13505.1624,-3486.2736L13505.1437,-3486.2648L13505.0996,-3486.2594L13505.0811,-3486.2536L13505.0713,-3486.2505L13505.0069,-3486.2272L13505,-3486.2238L13504.9931,-3486.2204L13504.9717,-3486.2099L13504.9493,-3486.1908L13504.9341,-3486.1741L13504.9261,-3486.161L13504.9152,-3486.1342L13504.895,-3486.1043L13504.8849,-3486.1012L13504.8414,-3486.0877L13504.803,-3486.0781L13504.7625,-3486.0596L13504.7502,-3486.0584L13504.7408,-3486.059L13504.7229,-3486.0668L13504.6889,-3486.0817L13504.6491,-3486.087L13504.5991,-3486.1067L13504.5839,-3486.1109L13504.5724,-3486.1091L13504.547,-3486.0912L13504.5246,-3486.0709L13504.5166,-3486.068L13504.5108,-3486.0674L13504.5036,-3486.0721L13504.4978,-3486.0793L13504.4935,-3486.0876L13504.4862,-3486.1049L13504.4739,-3486.1228L13504.4501,-3486.1562L13504.4392,-3486.167L13504.4254,-3486.1765L13504.4117,-3486.1825L13504.3837,-3486.1884L13504.3164,-3486.1789L13504.2853,-3486.1813L13504.2179,-3486.1741L13504.1875,-3486.1801L13504.1667,-3486.183L13504.1658,-3486.1831L13504.1412,-3486.1813L13504.1289,-3486.1783L13504.105,-3486.1658L13504.0696,-3486.1383L13504.0305,-3486.1145L13504.0087,-3486.1079L13503.982,-3486.093L13503.974,-3486.087L13503.9683,-3486.0784L13503.9588,-3486.0644L13503.9586,-3486.064L13503.9472,-3486.0411L13503.9414,-3486.0107L13503.9393,-3485.988L13503.9436,-3485.9672L13503.953,-3485.9403L13503.9516,-3485.932L13503.94,-3485.9206L13503.9183,-3485.9003L13503.8836,-3485.852L13503.878,-3485.8467L13503.8409,-3485.8333L13503.8382,-3485.8323L13503.8211,-3485.8237L13503.8193,-3485.8228L13503.802,-3485.8097L13503.7708,-3485.7739L13503.7564,-3485.765L13503.7158,-3485.7578L13503.6854,-3485.7566L13503.6608,-3485.7089L13503.6435,-3485.6922L13503.6167,-3485.6427L13503.6029,-3485.623L13503.5899,-3485.6158L13503.5725,-3485.614L13503.5552,-3485.6176L13503.5378,-3485.6307L13503.5197,-3485.6391L13503.5052,-3485.6385L13503.4893,-3485.6331L13503.462,-3485.6134L13503.3723,-3485.5705L13503.3484,-3485.5538L13503.3361,-3485.5424L13503.3333,-3485.5409L13503.3107,-3485.5281L13503.2833,-3485.5222L13503.2681,-3485.5156L13503.242,-3485.5043L13503.2217,-3485.5031L13503.1771,-3485.5102L13503.1199,-3485.5192L13503.0974,-3485.5156L13503.0895,-3485.5102L13503.0801,-3485.4983L13503.075,-3485.4798L13503.075,-3485.4631L13503.0613,-3485.4458L13503.0511,-3485.4381L13503.0417,-3485.4357L13503.0207,-3485.4369L13502.9549,-3485.4482L13502.9223,-3485.4375L13502.9088,-3485.4349L13502.9034,-3485.4339L13502.8897,-3485.4345L13502.8883,-3485.4348L13502.8658,-3485.4405L13502.834,-3485.4422L13502.8246,-3485.4387L13502.8065,-3485.4196L13502.7956,-3485.3969L13502.7927,-3485.3784L13502.8007,-3485.3432L13502.8014,-3485.3301L13502.7956,-3485.3158L13502.7703,-3485.2866L13502.7575,-3485.2681L13502.7459,-3485.2436L13502.7372,-3485.2269L13502.7249,-3485.2197L13502.704,-3485.219L13502.6923,-3485.2186L13502.6836,-3485.2364L13502.6757,-3485.2526L13502.6178,-3485.2603L13502.5389,-3485.2782L13502.5128,-3485.2866L13502.5,-3485.2911L13502.4759,-3485.2997L13502.4757,-3485.3101L13502.4754,-3485.3195L13502.4752,-3485.3289L13502.4723,-3485.348L13502.4651,-3485.3626L13502.4644,-3485.3739L13502.4651,-3485.4139L13502.4723,-3485.4621L13502.4769,-3485.4768L13502.4816,-3485.4921L13502.4882,-3485.5137L13502.4915,-3485.5243L13502.4962,-3485.5397L13502.5,-3485.5703L13502.5013,-3485.5809L13502.5,-3485.5819L13502.468,-3485.6071L13502.4615,-3485.6202L13502.4615,-3485.6256L13502.4687,-3485.6298L13502.4919,-3485.6346L13502.4928,-3485.6345L13502.5,-3485.6343L13502.5165,-3485.6339L13502.5216,-3485.6507L13502.523,-3485.6715L13502.5187,-3485.6942L13502.5,-3485.7341L13502.4955,-3485.7437L13502.4767,-3485.7711L13502.4564,-3485.7878L13502.4202,-3485.8141L13502.4152,-3485.8218L13502.4137,-3485.832L13502.4136,-3485.8333L13502.4101,-3485.8719L13502.413,-3485.8809L13502.4275,-3485.8869L13502.481,-3485.9L13502.4955,-3485.9006L13502.5,-3485.9001L13502.5259,-3485.897L13502.5534,-3485.9L13502.5715,-3485.8988L13502.6055,-3485.8916L13502.6366,-3485.891L13502.6453,-3485.8916L13502.6526,-3485.8952L13502.6526,-3485.9036L13502.6417,-3485.9173L13502.6338,-3485.9252L13502.6207,-3485.9382L13502.6164,-3485.9501L13502.6069,-3486.0014L13502.6084,-3486.0157L13502.6164,-3486.0288L13502.6243,-3486.036L13502.6251,-3486.0413L13502.6171,-3486.0539L13502.5961,-3486.0717L13502.5816,-3486.0897L13502.57,-3486.1135L13502.5635,-3486.1463L13502.5621,-3486.1684L13502.5686,-3486.2006L13502.5794,-3486.2239L13502.5954,-3486.2418L13502.6149,-3486.2573L13502.6344,-3486.2853L13502.6482,-3486.3002L13502.6547,-3486.3127L13502.6533,-3486.33L13502.6497,-3486.3491L13502.6403,-3486.3664L13502.6395,-3486.4028L13502.6366,-3486.4261L13502.6366,-3486.4487L13502.6424,-3486.4726L13502.6504,-3486.4905L13502.6583,-3486.5018L13502.6829,-3486.537L13502.6909,-3486.5513L13502.6931,-3486.5704L13502.6916,-3486.5788L13502.6808,-3486.6002L13502.6699,-3486.6348L13502.6645,-3486.6667L13502.6634,-3486.673L13502.6598,-3486.6832L13502.6453,-3486.7196L13502.6453,-3486.7345L13502.6518,-3486.7577L13502.6508,-3486.7633L13502.6475,-3486.781L13502.6475,-3486.8072L13502.6446,-3486.8179L13502.6395,-3486.8221L13502.62,-3486.8293L13502.6055,-3486.8335L13502.5903,-3486.8436L13502.5722,-3486.8639L13502.5628,-3486.8824L13502.5563,-3486.9032L13502.5461,-3486.9176L13502.5375,-3486.9331L13502.5266,-3486.9426L13502.5042,-3486.9581L13502.5,-3486.9625L13502.4883,-3486.9748L13502.4687,-3487.0023L13502.4622,-3487.0136L13502.4521,-3487.0208L13502.4347,-3487.0297L13502.4253,-3487.0387L13502.4175,-3487.0601L13502.4037,-3487.0846L13502.3886,-3487.109L13502.3842,-3487.1222L13502.3813,-3487.1514L13502.3726,-3487.1675L13502.3603,-3487.1896L13502.3574,-3487.2158L13502.3545,-3487.2397L13502.3538,-3487.2522L13502.3582,-3487.2588L13502.3697,-3487.2695L13502.3784,-3487.2922L13502.3799,-3487.3071L13502.3763,-3487.322L13502.3726,-3487.3375L13502.3712,-3487.3619L13502.3668,-3487.3769L13502.3444,-3487.4121L13502.3154,-3487.4478L13502.2815,-3487.4979L13502.2795,-3487.5L13502.267,-3487.5129L13502.2569,-3487.5188L13502.2273,-3487.5338L13502.2214,-3487.5367L13502.2177,-3487.5409L13502.2098,-3487.5588L13502.2033,-3487.5683L13502.1823,-3487.5856L13502.1772,-3487.5946L13502.1801,-3487.6119L13502.183,-3487.6244L13502.1924,-3487.6375L13502.2011,-3487.6775L13502.2062,-3487.696L13502.2134,-3487.7085L13502.2373,-3487.7371L13502.2525,-3487.7502L13502.2612,-3487.7628L13502.2641,-3487.7819L13502.2756,-3487.8051L13502.2928,-3487.8254L13502.3116,-3487.8415L13502.3362,-3487.8582L13502.3456,-3487.869L13502.3478,-3487.8815L13502.3485,-3487.9041L13502.3464,-3487.9155L13502.3362,-3487.934L13502.3254,-3487.9471L13502.3082,-3487.962L13502.2959,-3487.9763L13502.2916,-3487.9877L13502.28,-3488.0193L13502.2684,-3488.0419L13502.2546,-3488.0562L13502.2387,-3488.0658L13502.2214,-3488.0718L13502.2062,-3488.0742L13502.1845,-3488.0849L13502.1743,-3488.0944L13502.1718,-3488.0985L13502.1627,-3488.1129L13502.1512,-3488.1338L13502.136,-3488.1505L13502.1186,-3488.163L13502.0998,-3488.1696L13502.0621,-3488.1749L13502.0368,-3488.1761L13502.0259,-3488.1779L13502.0223,-3488.1857L13502.0034,-3488.2341L13502.0014,-3488.239L13501.9999,-3488.2429L13501.9893,-3488.2573L13501.9777,-3488.2632L13501.9661,-3488.265L13501.9523,-3488.2638L13501.9111,-3488.2501L13501.9039,-3488.2507L13501.8952,-3488.2543L13501.8872,-3488.2716L13501.8677,-3488.2919L13501.8597,-3488.3008L13501.8597,-3488.308L13501.8669,-3488.3253L13501.8726,-3488.3333L13501.8857,-3488.3521L13501.8843,-3488.3605L13501.8793,-3488.3664L13501.859,-3488.3712L13501.8351,-3488.3837L13501.8264,-3488.3855L13501.8148,-3488.3837L13501.7953,-3488.3819L13501.7779,-3488.3837L13501.7591,-3488.3903L13501.7439,-3488.4016L13501.7323,-3488.4243L13501.7193,-3488.4535L13501.7077,-3488.4624L13501.6917,-3488.4756L13501.6773,-3488.4833L13501.6667,-3488.487L13501.6635,-3488.4881L13501.6527,-3488.4875L13501.631,-3488.4815L13501.6042,-3488.4714L13501.6008,-3488.4709L13501.5607,-3488.4656L13501.5593,-3488.4654L13501.5434,-3488.4658L13501.5362,-3488.466L13501.5009,-3488.4183L13501.4746,-3488.3764L13501.4577,-3488.3495L13501.4575,-3488.3491L13501.4447,-3488.3333L13501.4317,-3488.3173L13501.4271,-3488.3116L13501.3945,-3488.2937L13501.3626,-3488.2799L13501.3214,-3488.2746L13501.2671,-3488.2746L13501.2136,-3488.2787L13501.1759,-3488.2895L13501.1441,-3488.3086L13501.1361,-3488.3217L13501.1333,-3488.3333L13501.131,-3488.3426L13501.1311,-3488.3429L13501.1325,-3488.3598L13501.1404,-3488.3938L13501.1709,-3488.4786L13501.1723,-3488.4829L13501.181,-3488.5096L13501.1897,-3488.5507L13501.1933,-3488.5764L13501.1918,-3488.5949L13501.1824,-3488.6309L13501.1819,-3488.6329L13501.179,-3488.6438L13501.1731,-3488.6612L13501.1551,-3488.7136L13501.1457,-3488.7362L13501.1429,-3488.7405L13501.1276,-3488.7637L13501.1103,-3488.7869L13501.0596,-3488.8364L13501.0401,-3488.8573L13501.0221,-3488.8689L13501.0142,-3488.874L13501.0133,-3488.8746L13500.9623,-3488.8984L13500.9583,-3488.9002L13500.9279,-3488.908L13500.9151,-3488.9084L13500.9131,-3488.9085L13500.891,-3488.9092L13500.8725,-3488.9062L13500.8658,-3488.9051L13500.8548,-3488.9032L13500.8333,-3488.9032L13500.8236,-3488.9032L13500.8067,-3488.9005L13500.7975,-3488.899L13500.7867,-3488.8973L13500.7527,-3488.8836L13500.7382,-3488.8764L13500.731,-3488.8758L13500.7057,-3488.8807L13500.663,-3488.8889L13500.6407,-3488.8953L13500.5423,-3488.9235L13500.5135,-3488.9341L13500.5083,-3488.9361L13500.4967,-3488.9414L13500.4966,-3488.9416L13500.4902,-3488.9486L13500.4808,-3488.9814L13500.4656,-3489.0178L13500.4563,-3489.0349L13500.4475,-3489.0511L13500.4323,-3489.0887L13500.4318,-3489.0894L13500.4193,-3489.1096L13500.4055,-3489.1275L13500.4012,-3489.1466L13500.3934,-3489.1603L13500.3877,-3489.1667L13500.3746,-3489.1812L13500.3029,-3489.245L13500.2854,-3489.2578Z"/>
</g>
</svg>
