<?xml version="1.0" encoding="UTF-8"?>
<svg  xmlns="http://www.w3.org/2000/svg" xmlns:xlink="http://www.w3.org/1999/xlink" xmlns:go="http://purl.org/svgmap/profile" property="geometry,N03_001,N03_002,N03_003,N03_004,N03_005,N03_007" viewBox="13469.23828125 -3563.96484375 4.39453125 4.39453125" go:dataArea="13469.23828125 -3563.96484375 4.39453125 4.39453125" >
<metadata>
 <rdf:RDF xmlns:rdf="http://www.w3.org/1999/02/22-rdf-syntax-ns#" xmlns:crs="http://opengis.org/xmldtds/transformations.dtd" xmlns:svg="http://www.w3.org/svg" >
  <rdf:Description>
   <crs:CoordinateReferenceSystem rdf:resource="http://purl.org/crs/84" svg:transform="matrix(100.0,0.0,0.0,-100.0,0.0,0.0)" />
  </rdf:Description>
 </rdf:RDF>
</metadata>
<globalCoordinateSystem srsName="http://purl.org/crs/84" transform="matrix(100.0,0.0,0.0,-100.0,0.0,0.0)" />
<defs>
 <g id="p0" >
  <circle cx="0.0" cy="0.0" r="3" stroke="green" stroke-width="2.0" vector-effect="non-scaling-stroke" />
 </g>
</defs>
<g fill="#0000ff" fill-rule="evenodd" opacity="0.5" >
<path content="兵庫県,,,豊岡市,,28209" xlink:title="兵庫県" d="M13473.6328,-3563.9648L13473.6328,-3559.5703L13470.4644,-3559.5703L13470.466,-3559.5718L13470.4878,-3559.5881L13470.5083,-3559.6024L13470.5249,-3559.6242L13470.531,-3559.6353L13470.534,-3559.6443L13470.5391,-3559.6668L13470.5432,-3559.6847L13470.5449,-3559.7139L13470.5476,-3559.762L13470.5528,-3559.7808L13470.5683,-3559.7946L13470.5814,-3559.8013L13470.5888,-3559.8034L13470.5957,-3559.8048L13470.6481,-3559.8064L13470.6712,-3559.8061L13470.683,-3559.8052L13470.7179,-3559.7988L13470.7303,-3559.7979L13470.753,-3559.7984L13470.7757,-3559.8023L13470.8313,-3559.8218L13470.8333,-3559.8236L13470.8467,-3559.8353L13470.8522,-3559.8528L13470.8662,-3559.8945L13470.8749,-3559.9131L13470.8926,-3559.9333L13470.9384,-3559.9655L13470.9626,-3559.9816L13470.9796,-3560L13470.9816,-3560.0021L13470.9894,-3560.0117L13470.992,-3560.0172L13470.9951,-3560.0246L13470.9977,-3560.0349L13470.9981,-3560.0368L13470.9994,-3560.0444L13471.0061,-3560.0572L13471.0112,-3560.0669L13471.033,-3560.0773L13471.0422,-3560.0812L13471.079,-3560.0915L13471.0889,-3560.0935L13471.1126,-3560.0984L13471.1355,-3560.1049L13471.1756,-3560.1166L13471.1898,-3560.1194L13471.2164,-3560.1207L13471.2395,-3560.1212L13471.2997,-3560.1218L13471.3105,-3560.1228L13471.3196,-3560.1237L13471.3584,-3560.1329L13471.3717,-3560.137L13471.3728,-3560.1483L13471.3752,-3560.166L13471.3804,-3560.1856L13471.3872,-3560.2091L13471.3867,-3560.2343L13471.3878,-3560.2504L13471.3902,-3560.2587L13471.4018,-3560.2762L13471.414,-3560.3001L13471.4181,-3560.3187L13471.4186,-3560.3268L13471.4157,-3560.3362L13471.4127,-3560.3429L13471.407,-3560.35L13471.4057,-3560.3691L13471.4101,-3560.3844L13471.4166,-3560.3999L13471.4188,-3560.4072L13471.4194,-3560.4173L13471.4387,-3560.4253L13471.4391,-3560.4254L13471.4515,-3560.4226L13471.4565,-3560.4231L13471.4637,-3560.4279L13471.467,-3560.432L13471.4663,-3560.439L13471.4631,-3560.4454L13471.458,-3560.4493L13471.4495,-3560.4525L13471.4384,-3560.4546L13471.424,-3560.4633L13471.4273,-3560.4771L13471.4391,-3560.4866L13471.4413,-3560.4918L13471.4406,-3560.4962L13471.4364,-3560.5006L13471.4319,-3560.5018L13471.4144,-3560.5027L13471.4033,-3560.4965L13471.3876,-3560.4854L13471.3701,-3560.4773L13471.3471,-3560.4666L13471.3292,-3560.4719L13471.3071,-3560.4709L13471.2858,-3560.4687L13471.2618,-3560.4663L13471.2456,-3560.462L13471.2328,-3560.4615L13471.2118,-3560.4618L13471.2011,-3560.4643L13471.1898,-3560.4679L13471.18,-3560.4728L13471.1824,-3560.4845L13471.1944,-3560.4974L13471.2018,-3560.5038L13471.2029,-3560.5073L13471.2014,-3560.5105L13471.1977,-3560.5126L13471.1937,-3560.5114L13471.1787,-3560.5027L13471.168,-3560.4919L13471.1499,-3560.4838L13471.1418,-3560.4808L13471.1383,-3560.4811L13471.1335,-3560.4852L13471.1272,-3560.4941L13471.1226,-3560.5024L13471.1154,-3560.5224L13471.1091,-3560.542L13471.0897,-3560.5763L13471.0786,-3560.5962L13471.0598,-3560.6149L13471.0498,-3560.631L13471.0356,-3560.6514L13471.0293,-3560.6632L13471.0249,-3560.674L13471.0027,-3560.7178L13470.9966,-3560.7339L13470.9905,-3560.7462L13470.9678,-3560.7904L13470.9606,-3560.8087L13470.9713,-3560.8211L13470.9948,-3560.8301L13471.0074,-3560.8333L13471.014,-3560.8351L13471.0369,-3560.8381L13471.0611,-3560.8411L13471.0899,-3560.8441L13471.0952,-3560.8453L13471.0995,-3560.8485L13471.1047,-3560.8613L13471.1061,-3560.8749L13471.0814,-3560.9048L13471.0673,-3560.9219L13471.0485,-3560.9448L13471.0145,-3560.9869L13471.0005,-3561.0018L13470.9831,-3561.0175L13470.9741,-3561.0356L13470.9697,-3561.0446L13470.9661,-3561.0557L13470.9645,-3561.0683L13470.9674,-3561.0883L13470.975,-3561.1038L13470.9798,-3561.1122L13470.9898,-3561.126L13470.995,-3561.1329L13471.0003,-3561.1401L13471.0158,-3561.1601L13471.0369,-3561.1771L13471.0526,-3561.1872L13471.0723,-3561.1966L13471.1013,-3561.2118L13471.1322,-3561.2267L13471.1479,-3561.2332L13471.1728,-3561.2403L13471.207,-3561.2548L13471.2461,-3561.2744L13471.2583,-3561.2879L13471.2786,-3561.3206L13471.2809,-3561.3303L13471.2847,-3561.3431L13471.2893,-3561.3604L13471.2897,-3561.382L13471.2884,-3561.4086L13471.2877,-3561.4296L13471.2788,-3561.4562L13471.2661,-3561.4946L13471.2609,-3561.5066L13471.2646,-3561.5256L13471.2777,-3561.5586L13471.2906,-3561.5791L13471.3021,-3561.5999L13471.3231,-3561.6381L13471.3322,-3561.6496L13471.3549,-3561.6489L13471.4037,-3561.6432L13471.4192,-3561.6407L13471.4312,-3561.6641L13471.433,-3561.6667L13471.4612,-3561.7069L13471.4613,-3561.7071L13471.4777,-3561.725L13471.4951,-3561.751L13471.5106,-3561.7752L13471.5169,-3561.7816L13471.5276,-3561.7912L13471.5509,-3561.8074L13471.5754,-3561.8186L13471.5799,-3561.8244L13471.5821,-3561.8299L13471.5823,-3561.8428L13471.5832,-3561.8495L13471.5841,-3561.8539L13471.5867,-3561.8598L13471.6013,-3561.883L13471.6201,-3561.9046L13471.6497,-3561.9497L13471.6667,-3561.9637L13471.6694,-3561.966L13471.6955,-3561.9793L13471.7219,-3561.9899L13471.7459,-3561.9977L13471.7701,-3562.0042L13471.7974,-3562.0051L13471.8207,-3562.0076L13471.8299,-3562.0095L13471.8471,-3562.0152L13471.8715,-3562.0235L13471.8975,-3562.0369L13471.9169,-3562.0481L13471.9299,-3562.0555L13471.9367,-3562.0617L13471.94,-3562.0661L13471.9398,-3562.0844L13471.9391,-3562.0966L13471.9409,-3562.1373L13471.9402,-3562.158L13471.9239,-3562.1746L13471.9127,-3562.1847L13471.9086,-3562.1918L13471.9057,-3562.1969L13471.9025,-3562.2132L13471.8983,-3562.2339L13471.8774,-3562.2544L13471.8637,-3562.2656L13471.8506,-3562.2774L13471.8423,-3562.2895L13471.8333,-3562.3109L13471.8248,-3562.3286L13471.8135,-3562.3487L13471.8107,-3562.3549L13471.8086,-3562.371L13471.8081,-3562.3751L13471.8054,-3562.3981L13471.8006,-3562.4179L13471.7984,-3562.4282L13471.795,-3562.4358L13471.7882,-3562.4445L13471.7803,-3562.4523L13471.7764,-3562.4561L13471.7561,-3562.4753L13471.7455,-3562.4995L13471.7453,-3562.5L13471.7381,-3562.5179L13471.7322,-3562.5231L13471.7158,-3562.5259L13471.6894,-3562.5262L13471.6683,-3562.5324L13471.6667,-3562.5337L13471.6536,-3562.5443L13471.6423,-3562.5581L13471.6312,-3562.5694L13471.6161,-3562.5802L13471.5854,-3562.5963L13471.5721,-3562.6007L13471.5544,-3562.6019L13471.5472,-3562.6044L13471.5426,-3562.6097L13471.5431,-3562.6143L13471.5459,-3562.6264L13471.5533,-3562.6404L13471.5551,-3562.6558L13471.5535,-3562.6646L13471.542,-3562.68L13471.5278,-3562.6964L13471.5145,-3562.72L13471.5121,-3562.734L13471.5132,-3562.7442L13471.5149,-3562.7517L13471.5191,-3562.7609L13471.5167,-3562.7814L13471.4918,-3562.8023L13471.4766,-3562.8127L13471.4656,-3562.8232L13471.4622,-3562.8292L13471.4613,-3562.8366L13471.4654,-3562.8539L13471.4729,-3562.8718L13471.4835,-3562.9014L13471.4916,-3562.9164L13471.4994,-3562.9366L13471.4949,-3562.961L13471.4953,-3562.9762L13471.4977,-3562.9853L13471.5016,-3562.996L13471.5027,-3563.009L13471.4944,-3563.0291L13471.4768,-3563.0454L13471.4584,-3563.0681L13471.4422,-3563.1081L13471.4377,-3563.119L13471.4327,-3563.1394L13471.4307,-3563.1471L13471.4255,-3563.1532L13471.4168,-3563.1592L13471.4061,-3563.1631L13471.3976,-3563.164L13471.3754,-3563.1762L13471.3549,-3563.1898L13471.3185,-3563.2128L13471.3087,-3563.2215L13471.3032,-3563.2392L13471.3051,-3563.2541L13471.306,-3563.2609L13471.3137,-3563.3055L13471.3154,-3563.3234L13471.3069,-3563.3333L13471.298,-3563.3438L13471.289,-3563.3568L13471.2864,-3563.3627L13471.2842,-3563.3692L13471.2838,-3563.3775L13471.2842,-3563.3892L13471.2951,-3563.4098L13471.2982,-3563.4289L13471.2799,-3563.4499L13471.2766,-3563.4531L13471.2764,-3563.4595L13471.2786,-3563.4627L13471.2836,-3563.4636L13471.3073,-3563.4708L13471.3267,-3563.4772L13471.3481,-3563.4917L13471.3706,-3563.5089L13471.3884,-3563.5276L13471.4044,-3563.5359L13471.4144,-3563.5419L13471.4249,-3563.5504L13471.431,-3563.5571L13471.4349,-3563.5635L13471.438,-3563.5736L13471.4412,-3563.5906L13471.4375,-3563.6101L13471.4384,-3563.621L13471.4421,-3563.629L13471.4473,-3563.6363L13471.4543,-3563.643L13471.4639,-3563.6485L13471.4857,-3563.6548L13471.5099,-3563.6617L13471.5239,-3563.6679L13471.5309,-3563.6727L13471.5427,-3563.6812L13471.5483,-3563.684L13471.5535,-3563.686L13471.5609,-3563.6872L13471.5843,-3563.684L13471.6059,-3563.6764L13471.6314,-3563.6683L13471.6488,-3563.664L13471.6634,-3563.6624L13471.6667,-3563.6628L13471.6872,-3563.6653L13471.7116,-3563.6715L13471.713,-3563.6721L13471.7202,-3563.6755L13471.7337,-3563.6824L13471.7411,-3563.6876L13471.7579,-3563.6999L13471.7756,-3563.7194L13471.7895,-3563.7359L13471.7939,-3563.7463L13471.7947,-3563.7534L13471.7939,-3563.7766L13471.7923,-3563.7973L13471.7906,-3563.8193L13471.7915,-3563.8318L13471.7943,-3563.8391L13471.801,-3563.8502L13471.8115,-3563.8626L13471.8261,-3563.8746L13471.8383,-3563.8982L13471.863,-3563.9433L13471.8796,-3563.9628L13471.8844,-3563.9648Z"/>
<path content="兵庫県,,美方郡,香美町,,28585" xlink:title="兵庫県" d="M13469.2383,-3559.5703L13469.2383,-3563.9648L13471.8844,-3563.9648L13471.8796,-3563.9628L13471.863,-3563.9433L13471.8383,-3563.8982L13471.8261,-3563.8746L13471.8115,-3563.8626L13471.801,-3563.8502L13471.7943,-3563.8391L13471.7915,-3563.8318L13471.7906,-3563.8193L13471.7923,-3563.7973L13471.7939,-3563.7766L13471.7947,-3563.7534L13471.7939,-3563.7463L13471.7895,-3563.7359L13471.7756,-3563.7194L13471.7579,-3563.6999L13471.7411,-3563.6876L13471.7337,-3563.6824L13471.7202,-3563.6755L13471.713,-3563.6721L13471.7116,-3563.6715L13471.6872,-3563.6653L13471.6667,-3563.6628L13471.6634,-3563.6624L13471.6488,-3563.664L13471.6314,-3563.6683L13471.6059,-3563.6764L13471.5843,-3563.684L13471.5609,-3563.6872L13471.5535,-3563.686L13471.5483,-3563.684L13471.5427,-3563.6812L13471.5309,-3563.6727L13471.5239,-3563.6679L13471.5099,-3563.6617L13471.4857,-3563.6548L13471.4639,-3563.6485L13471.4543,-3563.643L13471.4473,-3563.6363L13471.4421,-3563.629L13471.4384,-3563.621L13471.4375,-3563.6101L13471.4412,-3563.5906L13471.438,-3563.5736L13471.4349,-3563.5635L13471.431,-3563.5571L13471.4249,-3563.5504L13471.4144,-3563.5419L13471.4044,-3563.5359L13471.3884,-3563.5276L13471.3706,-3563.5089L13471.3481,-3563.4917L13471.3267,-3563.4772L13471.3073,-3563.4708L13471.2836,-3563.4636L13471.2786,-3563.4627L13471.2764,-3563.4595L13471.2766,-3563.4531L13471.2799,-3563.4499L13471.2982,-3563.4289L13471.2951,-3563.4098L13471.2842,-3563.3892L13471.2838,-3563.3775L13471.2842,-3563.3692L13471.2864,-3563.3627L13471.289,-3563.3568L13471.298,-3563.3438L13471.3069,-3563.3333L13471.3154,-3563.3234L13471.3137,-3563.3055L13471.306,-3563.2609L13471.3051,-3563.2541L13471.3032,-3563.2392L13471.3087,-3563.2215L13471.3185,-3563.2128L13471.3549,-3563.1898L13471.3754,-3563.1762L13471.3976,-3563.164L13471.4061,-3563.1631L13471.4168,-3563.1592L13471.4255,-3563.1532L13471.4307,-3563.1471L13471.4327,-3563.1394L13471.4377,-3563.119L13471.4422,-3563.1081L13471.4584,-3563.0681L13471.4768,-3563.0454L13471.4944,-3563.0291L13471.5027,-3563.009L13471.5016,-3562.996L13471.4977,-3562.9853L13471.4953,-3562.9762L13471.4949,-3562.961L13471.4994,-3562.9366L13471.4916,-3562.9164L13471.4835,-3562.9014L13471.4729,-3562.8718L13471.4654,-3562.8539L13471.4613,-3562.8366L13471.4622,-3562.8292L13471.4656,-3562.8232L13471.4766,-3562.8127L13471.4918,-3562.8023L13471.5167,-3562.7814L13471.5191,-3562.7609L13471.5149,-3562.7517L13471.5132,-3562.7442L13471.5121,-3562.734L13471.5145,-3562.72L13471.5278,-3562.6964L13471.542,-3562.68L13471.5535,-3562.6646L13471.5551,-3562.6558L13471.5533,-3562.6404L13471.5459,-3562.6264L13471.5431,-3562.6143L13471.5426,-3562.6097L13471.5472,-3562.6044L13471.5544,-3562.6019L13471.5721,-3562.6007L13471.5854,-3562.5963L13471.6161,-3562.5802L13471.6312,-3562.5694L13471.6423,-3562.5581L13471.6536,-3562.5443L13471.6667,-3562.5337L13471.6683,-3562.5324L13471.6894,-3562.5262L13471.7158,-3562.5259L13471.7322,-3562.5231L13471.7381,-3562.5179L13471.7453,-3562.5L13471.7455,-3562.4995L13471.7561,-3562.4753L13471.7764,-3562.4561L13471.7803,-3562.4523L13471.7882,-3562.4445L13471.795,-3562.4358L13471.7984,-3562.4282L13471.8006,-3562.4179L13471.8054,-3562.3981L13471.8081,-3562.3751L13471.8086,-3562.371L13471.8107,-3562.3549L13471.8135,-3562.3487L13471.8248,-3562.3286L13471.8333,-3562.3109L13471.8423,-3562.2895L13471.8506,-3562.2774L13471.8637,-3562.2656L13471.8774,-3562.2544L13471.8983,-3562.2339L13471.9025,-3562.2132L13471.9057,-3562.1969L13471.9086,-3562.1918L13471.9127,-3562.1847L13471.9239,-3562.1746L13471.9402,-3562.158L13471.9409,-3562.1373L13471.9391,-3562.0966L13471.9398,-3562.0844L13471.94,-3562.0661L13471.9367,-3562.0617L13471.9299,-3562.0555L13471.9169,-3562.0481L13471.8975,-3562.0369L13471.8715,-3562.0235L13471.8471,-3562.0152L13471.8299,-3562.0095L13471.8207,-3562.0076L13471.7974,-3562.0051L13471.7701,-3562.0042L13471.7459,-3561.9977L13471.7219,-3561.9899L13471.6955,-3561.9793L13471.6694,-3561.966L13471.6667,-3561.9637L13471.6497,-3561.9497L13471.6201,-3561.9046L13471.6013,-3561.883L13471.5867,-3561.8598L13471.5841,-3561.8539L13471.5832,-3561.8495L13471.5823,-3561.8428L13471.5821,-3561.8299L13471.5799,-3561.8244L13471.5754,-3561.8186L13471.5509,-3561.8074L13471.5276,-3561.7912L13471.5169,-3561.7816L13471.5106,-3561.7752L13471.4951,-3561.751L13471.4777,-3561.725L13471.4613,-3561.7071L13471.4612,-3561.7069L13471.433,-3561.6667L13471.4312,-3561.6641L13471.4192,-3561.6407L13471.4037,-3561.6432L13471.3549,-3561.6489L13471.3322,-3561.6496L13471.3231,-3561.6381L13471.3021,-3561.5999L13471.2906,-3561.5791L13471.2777,-3561.5586L13471.2646,-3561.5256L13471.2609,-3561.5066L13471.2661,-3561.4946L13471.2788,-3561.4562L13471.2877,-3561.4296L13471.2884,-3561.4086L13471.2897,-3561.382L13471.2893,-3561.3604L13471.2847,-3561.3431L13471.2809,-3561.3303L13471.2786,-3561.3206L13471.2583,-3561.2879L13471.2461,-3561.2744L13471.207,-3561.2548L13471.1728,-3561.2403L13471.1479,-3561.2332L13471.1322,-3561.2267L13471.1013,-3561.2118L13471.0723,-3561.1966L13471.0526,-3561.1872L13471.0369,-3561.1771L13471.0158,-3561.1601L13471.0003,-3561.1401L13470.995,-3561.1329L13470.9898,-3561.126L13470.9798,-3561.1122L13470.975,-3561.1038L13470.9674,-3561.0883L13470.9645,-3561.0683L13470.9661,-3561.0557L13470.9697,-3561.0446L13470.9741,-3561.0356L13470.9831,-3561.0175L13471.0005,-3561.0018L13471.0145,-3560.9869L13471.0485,-3560.9448L13471.0673,-3560.9219L13471.0814,-3560.9048L13471.1061,-3560.8749L13471.1047,-3560.8613L13471.0995,-3560.8485L13471.0952,-3560.8453L13471.0899,-3560.8441L13471.0611,-3560.8411L13471.0369,-3560.8381L13471.014,-3560.8351L13471.0074,-3560.8333L13470.9948,-3560.8301L13470.9713,-3560.8211L13470.9606,-3560.8087L13470.9678,-3560.7904L13470.9905,-3560.7462L13470.9966,-3560.7339L13471.0027,-3560.7178L13471.0249,-3560.674L13471.0293,-3560.6632L13471.0356,-3560.6514L13471.0498,-3560.631L13471.0598,-3560.6149L13471.0786,-3560.5962L13471.0897,-3560.5763L13471.1091,-3560.542L13471.1154,-3560.5224L13471.1226,-3560.5024L13471.1272,-3560.4941L13471.1335,-3560.4852L13471.1383,-3560.4811L13471.1418,-3560.4808L13471.1499,-3560.4838L13471.168,-3560.4919L13471.1787,-3560.5027L13471.1937,-3560.5114L13471.1977,-3560.5126L13471.2014,-3560.5105L13471.2029,-3560.5073L13471.2018,-3560.5038L13471.1944,-3560.4974L13471.1824,-3560.4845L13471.18,-3560.4728L13471.1898,-3560.4679L13471.2011,-3560.4643L13471.2118,-3560.4618L13471.2328,-3560.4615L13471.2456,-3560.462L13471.2618,-3560.4663L13471.2858,-3560.4687L13471.3071,-3560.4709L13471.3292,-3560.4719L13471.3471,-3560.4666L13471.3701,-3560.4773L13471.3876,-3560.4854L13471.4033,-3560.4965L13471.4144,-3560.5027L13471.4319,-3560.5018L13471.4364,-3560.5006L13471.4406,-3560.4962L13471.4413,-3560.4918L13471.4391,-3560.4866L13471.4273,-3560.4771L13471.424,-3560.4633L13471.4384,-3560.4546L13471.4495,-3560.4525L13471.458,-3560.4493L13471.4631,-3560.4454L13471.4663,-3560.439L13471.467,-3560.432L13471.4637,-3560.4279L13471.4565,-3560.4231L13471.4515,-3560.4226L13471.4391,-3560.4254L13471.4387,-3560.4253L13471.4194,-3560.4173L13471.4188,-3560.4072L13471.4166,-3560.3999L13471.4101,-3560.3844L13471.4057,-3560.3691L13471.407,-3560.35L13471.4127,-3560.3429L13471.4157,-3560.3362L13471.4186,-3560.3268L13471.4181,-3560.3187L13471.414,-3560.3001L13471.4018,-3560.2762L13471.3902,-3560.2587L13471.3878,-3560.2504L13471.3867,-3560.2343L13471.3872,-3560.2091L13471.3804,-3560.1856L13471.3752,-3560.166L13471.3728,-3560.1483L13471.3717,-3560.137L13471.3584,-3560.1329L13471.3196,-3560.1237L13471.3105,-3560.1228L13471.2997,-3560.1218L13471.2395,-3560.1212L13471.2164,-3560.1207L13471.1898,-3560.1194L13471.1756,-3560.1166L13471.1355,-3560.1049L13471.1126,-3560.0984L13471.0889,-3560.0935L13471.079,-3560.0915L13471.0422,-3560.0812L13471.033,-3560.0773L13471.0112,-3560.0669L13471.0061,-3560.0572L13470.9994,-3560.0444L13470.9981,-3560.0368L13470.9977,-3560.0349L13470.9951,-3560.0246L13470.992,-3560.0172L13470.9894,-3560.0117L13470.9816,-3560.0021L13470.9796,-3560L13470.9626,-3559.9816L13470.9384,-3559.9655L13470.8926,-3559.9333L13470.8749,-3559.9131L13470.8662,-3559.8945L13470.8522,-3559.8528L13470.8467,-3559.8353L13470.8333,-3559.8236L13470.8313,-3559.8218L13470.7757,-3559.8023L13470.753,-3559.7984L13470.7303,-3559.7979L13470.7179,-3559.7988L13470.683,-3559.8052L13470.6712,-3559.8061L13470.6481,-3559.8064L13470.5957,-3559.8048L13470.5888,-3559.8034L13470.5814,-3559.8013L13470.5683,-3559.7946L13470.5528,-3559.7808L13470.5476,-3559.762L13470.5449,-3559.7139L13470.5432,-3559.6847L13470.5391,-3559.6668L13470.534,-3559.6443L13470.531,-3559.6353L13470.5249,-3559.6242L13470.5083,-3559.6024L13470.4878,-3559.5881L13470.466,-3559.5718L13470.4644,-3559.5703Z"/>
</g>
</svg>
