<?xml version="1.0" encoding="UTF-8"?>
<svg  xmlns="http://www.w3.org/2000/svg" xmlns:xlink="http://www.w3.org/1999/xlink" xmlns:go="http://purl.org/svgmap/profile" property="geometry,N03_001,N03_002,N03_003,N03_004,N03_005,N03_007" viewBox="13517.578125 -3480.46875 8.7890625 8.7890625" go:dataArea="13517.578125 -3480.46875 8.7890625 8.7890625" >
<metadata>
 <rdf:RDF xmlns:rdf="http://www.w3.org/1999/02/22-rdf-syntax-ns#" xmlns:crs="http://opengis.org/xmldtds/transformations.dtd" xmlns:svg="http://www.w3.org/svg" >
  <rdf:Description>
   <crs:CoordinateReferenceSystem rdf:resource="http://purl.org/crs/84" svg:transform="matrix(100.0,0.0,0.0,-100.0,0.0,0.0)" />
  </rdf:Description>
 </rdf:RDF>
</metadata>
<globalCoordinateSystem srsName="http://purl.org/crs/84" transform="matrix(100.0,0.0,0.0,-100.0,0.0,0.0)" />
<defs>
 <g id="p0" >
  <circle cx="0.0" cy="0.0" r="3" stroke="green" stroke-width="2.0" vector-effect="non-scaling-stroke" />
 </g>
</defs>
<g fill="#0000ff" fill-rule="evenodd" opacity="0.5" >
<path content="兵庫県,,,神戸市,東灘区,28101" xlink:title="兵庫県" d="M13526.3672,-3471.6797L13524.9045,-3471.6797L13524.9018,-3471.6918L13524.894,-3471.7176L13524.8742,-3471.7614L13524.8628,-3471.7751L13524.8497,-3471.7907L13524.8143,-3471.8418L13524.795,-3471.8741L13524.7831,-3471.9325L13524.7581,-3471.9854L13524.7292,-3472.0148L13524.7211,-3472.0231L13524.7101,-3472.0336L13524.701,-3472.0411L13524.6931,-3472.0476L13524.6799,-3472.0609L13524.6624,-3472.0889L13524.6483,-3472.12L13524.6404,-3472.1306L13524.635,-3472.1379L13524.6246,-3472.1523L13524.6157,-3472.1703L13524.6072,-3472.1812L13524.6066,-3472.1816L13524.5898,-3472.1935L13524.5845,-3472.1972L13524.5038,-3472.2547L13524.4141,-3472.3182L13524.3273,-3472.3797L13524.3265,-3472.3811L13524.3141,-3472.4024L13524.3093,-3472.4207L13524.307,-3472.4736L13524.307,-3472.5L13524.307,-3472.504L13524.3051,-3472.5305L13524.298,-3472.5492L13524.2973,-3472.5505L13524.2862,-3472.5699L13524.2711,-3472.5921L13524.2699,-3472.5933L13524.2551,-3472.6088L13524.2513,-3472.6229L13524.2508,-3472.6334L13524.2574,-3472.6521L13524.263,-3472.6596L13524.2739,-3472.6743L13524.2839,-3472.6863L13524.2867,-3472.7019L13524.2857,-3472.7128L13524.2806,-3472.7397L13524.2806,-3472.7474L13524.2806,-3472.7557L13524.281,-3472.7779L13524.2763,-3472.8013L13524.2754,-3472.8207L13524.2721,-3472.8631L13524.2712,-3472.8801L13524.2687,-3472.9302L13524.2654,-3472.9649L13524.2636,-3473.0101L13524.2639,-3473.0537L13524.264,-3473.0704L13524.2622,-3473.1144L13524.2617,-3473.1261L13524.2596,-3473.1497L13524.2588,-3473.1582L13524.2584,-3473.1635L13524.2857,-3473.1623L13524.3306,-3473.1616L13524.3603,-3473.1592L13524.3777,-3473.1619L13524.4273,-3473.169L13524.4509,-3473.1725L13524.4608,-3473.1779L13524.4691,-3473.1884L13524.4712,-3473.1912L13524.4854,-3473.2037L13524.4972,-3473.2079L13524.5614,-3473.2119L13524.609,-3473.2181L13524.626,-3473.2278L13524.6359,-3473.2395L13524.6517,-3473.2518L13524.6831,-3473.272L13524.696,-3473.2867L13524.6984,-3473.2919L13524.6994,-3473.294L13524.7103,-3473.3176L13524.7138,-3473.3333L13524.7211,-3473.3665L13524.7317,-3473.3918L13524.7456,-3473.4064L13524.7605,-3473.4278L13524.7661,-3473.4346L13524.7763,-3473.4463L13524.7805,-3473.4534L13524.7805,-3473.4608L13524.7732,-3473.4715L13524.7683,-3473.4834L13524.7704,-3473.4875L13524.7881,-3473.497L13524.7987,-3473.505L13524.8076,-3473.5167L13524.8116,-3473.5265L13524.8123,-3473.5493L13524.8119,-3473.5699L13524.8074,-3473.5785L13524.798,-3473.58L13524.7909,-3473.5791L13524.7817,-3473.5798L13524.7709,-3473.588L13524.7665,-3473.5925L13524.7539,-3473.6059L13524.7419,-3473.6199L13524.7407,-3473.6304L13524.7439,-3473.6393L13524.7488,-3473.6521L13524.7454,-3473.6702L13524.7386,-3473.6814L13524.7283,-3473.6899L13524.7211,-3473.6945L13524.6236,-3473.7489L13524.6037,-3473.76L13524.5514,-3473.7928L13524.5276,-3473.8137L13524.5179,-3473.8264L13524.5133,-3473.8325L13524.5054,-3473.8491L13524.4948,-3473.8844L13524.4821,-3473.9254L13524.4789,-3473.9433L13524.4805,-3473.9682L13524.4807,-3473.9691L13524.4868,-3473.994L13524.5006,-3474.0348L13524.5365,-3474.1147L13524.5629,-3474.1667L13524.5741,-3474.1886L13524.6497,-3474.2117L13524.6788,-3474.2213L13524.6989,-3474.2248L13524.7079,-3474.224L13524.7211,-3474.2187L13524.7236,-3474.2184L13524.7251,-3474.2194L13524.7385,-3474.2292L13524.7506,-3474.2417L13524.7621,-3474.2581L13524.7897,-3474.2663L13524.7954,-3474.268L13524.8121,-3474.2723L13524.8411,-3474.2726L13524.848,-3474.2727L13524.8502,-3474.2719L13524.8829,-3474.2598L13524.8875,-3474.2548L13524.9027,-3474.2383L13524.9209,-3474.2156L13524.9443,-3474.1996L13524.9844,-3474.1902L13525,-3474.1883L13525.0443,-3474.1829L13525.1046,-3474.185L13525.1239,-3474.1859L13525.1453,-3474.1945L13525.1536,-3474.2057L13525.1551,-3474.2078L13525.1541,-3474.225L13525.152,-3474.2442L13525.1515,-3474.2487L13525.1567,-3474.259L13525.1718,-3474.2762L13525.1895,-3474.2822L13525.2004,-3474.2852L13525.2093,-3474.2955L13525.215,-3474.3067L13525.2239,-3474.3097L13525.2348,-3474.3084L13525.2515,-3474.3084L13525.2713,-3474.3157L13525.3014,-3474.3256L13525.327,-3474.3377L13525.3618,-3474.354L13525.3785,-3474.3656L13525.3837,-3474.3867L13525.3842,-3474.4168L13525.3858,-3474.4279L13525.3931,-3474.4344L13525.4076,-3474.4335L13525.4285,-3474.4314L13525.4576,-3474.4331L13525.4826,-3474.4409L13525.4987,-3474.4512L13525.5154,-3474.4597L13525.5264,-3474.4653L13525.5461,-3474.4675L13525.5513,-3474.4713L13525.5581,-3474.4765L13525.5623,-3474.4903L13525.5586,-3474.5075L13525.5446,-3474.5221L13525.5326,-3474.5384L13525.5201,-3474.5788L13525.5201,-3474.5939L13525.5237,-3474.6025L13525.5383,-3474.6107L13525.5576,-3474.6167L13525.5816,-3474.6283L13525.6065,-3474.6399L13525.6305,-3474.6472L13525.6307,-3474.6472L13525.6591,-3474.6523L13525.6737,-3474.6549L13525.6961,-3474.6567L13525.72,-3474.6549L13525.7434,-3474.6502L13525.7575,-3474.6468L13525.7783,-3474.6459L13525.8007,-3474.6459L13525.8195,-3474.6399L13525.8309,-3474.6382L13525.8333,-3474.6392L13525.8444,-3474.6442L13525.8643,-3474.6554L13525.8752,-3474.67L13525.8798,-3474.6872L13525.8892,-3474.7005L13525.9012,-3474.7113L13525.9074,-3474.7154L13525.9152,-3474.7207L13525.9366,-3474.7371L13525.9537,-3474.7534L13525.9562,-3474.7608L13525.9574,-3474.7646L13525.959,-3474.7843L13525.9574,-3474.8011L13525.9626,-3474.8174L13525.9736,-3474.8308L13525.9939,-3474.8364L13526.0417,-3474.8415L13526.061,-3474.8432L13526.073,-3474.848L13526.0839,-3474.8596L13526.0881,-3474.8751L13526.0871,-3474.8922L13526.086,-3474.9159L13526.0881,-3474.9417L13526.1001,-3474.9722L13526.1099,-3475L13526.1099,-3475.0002L13526.1142,-3475.0146L13526.1167,-3475.023L13526.1303,-3475.0423L13526.1422,-3475.0547L13526.1589,-3475.0849L13526.1709,-3475.099L13526.1896,-3475.1162L13526.2021,-3475.1296L13526.2052,-3475.1455L13526.2057,-3475.1597L13526.1995,-3475.1751L13526.1823,-3475.1919L13526.1417,-3475.2242L13526.1058,-3475.2495L13526.0855,-3475.2646L13526.0724,-3475.2796L13526.0657,-3475.3007L13526.0624,-3475.3243L13526.0552,-3475.3382L13526.0479,-3475.3424L13526.0364,-3475.3477L13526.0205,-3475.3561L13526.014,-3475.3662L13526.0082,-3475.3782L13526.0089,-3475.3865L13526.0118,-3475.3961L13526.0422,-3475.4229L13526.061,-3475.4444L13526.0747,-3475.4593L13526.0776,-3475.4676L13526.0797,-3475.4796L13526.0776,-3475.4897L13526.0725,-3475.4981L13526.0639,-3475.5076L13526.04,-3475.5243L13526.0212,-3475.5368L13526.0169,-3475.5487L13526.0169,-3475.5607L13526.019,-3475.5744L13526.0217,-3475.5895L13526.0219,-3475.5905L13526.0172,-3475.6093L13525.9984,-3475.6248L13525.9839,-3475.6332L13525.9724,-3475.6385L13525.9615,-3475.6445L13525.9558,-3475.6499L13525.9471,-3475.6689L13525.9363,-3475.6821L13525.9174,-3475.6922L13525.9044,-3475.6976L13525.895,-3475.7029L13525.8676,-3475.7256L13525.8545,-3475.7393L13525.8408,-3475.7602L13525.8394,-3475.7709L13525.8397,-3475.7837L13525.8448,-3475.8285L13525.8448,-3475.8333L13525.8448,-3475.847L13525.8469,-3475.8738L13525.8448,-3475.8846L13525.8397,-3475.9025L13525.8333,-3475.9093L13525.8274,-3475.9156L13525.8151,-3475.9234L13525.8057,-3475.9275L13525.7949,-3475.9299L13525.7826,-3475.9317L13525.7761,-3475.9341L13525.7587,-3475.9454L13525.7109,-3475.9726L13525.6303,-3475.9833L13525.5969,-3476.0626L13525.5888,-3476.0921L13525.5615,-3476.1425L13525.562,-3476.1569L13525.5642,-3476.1698L13525.5678,-3476.181L13525.5723,-3476.1931L13525.5584,-3476.2019L13525.542,-3476.2182L13525.531,-3476.2317L13525.5205,-3476.2633L13525.5134,-3476.2709L13525.483,-3476.2722L13525.4597,-3476.2736L13525.4449,-3476.2705L13525.4163,-3476.2718L13525.3614,-3476.2767L13525.7745,-3476.5733L13525.8333,-3476.617L13525.86,-3476.6367L13525.8977,-3476.6667L13525.9749,-3476.7279L13525.8333,-3476.9303L13525.8224,-3476.946L13525.713,-3477.0893L13525.6758,-3477.1371L13525.786,-3477.1726L13525.8229,-3477.195L13525.8333,-3477.2002L13525.8354,-3477.2012L13525.8333,-3477.207L13525.8278,-3477.2224L13525.8317,-3477.2339L13525.8333,-3477.2376L13525.8393,-3477.2514L13525.855,-3477.2643L13525.8919,-3477.2823L13525.9354,-3477.2926L13525.9641,-3477.3194L13525.969,-3477.3329L13525.9777,-3477.3391L13525.9831,-3477.372L13526.0477,-3477.3756L13526.0216,-3477.4114L13526.0406,-3477.4396L13526.0759,-3477.4737L13526.1036,-3477.497L13526.1049,-3477.5L13526.1237,-3477.5445L13526.2429,-3477.5302L13526.2486,-3477.5308L13526.2544,-3477.5362L13526.3321,-3477.6063L13526.3672,-3477.6414Z"/>
<path content="兵庫県,,,神戸市,灘区,28102" xlink:title="兵庫県" d="M13525.713,-3477.0893L13525.8224,-3476.946L13525.8333,-3476.9303L13525.9749,-3476.7279L13525.8977,-3476.6667L13525.86,-3476.6367L13525.8333,-3476.617L13525.7745,-3476.5733L13525.3614,-3476.2767L13525.4163,-3476.2718L13525.4449,-3476.2705L13525.4597,-3476.2736L13525.483,-3476.2722L13525.5134,-3476.2709L13525.5205,-3476.2633L13525.531,-3476.2317L13525.542,-3476.2182L13525.5584,-3476.2019L13525.5723,-3476.1931L13525.5678,-3476.181L13525.5642,-3476.1698L13525.562,-3476.1569L13525.5615,-3476.1425L13525.5888,-3476.0921L13525.5969,-3476.0626L13525.6303,-3475.9833L13525.7109,-3475.9726L13525.7587,-3475.9454L13525.7761,-3475.9341L13525.7826,-3475.9317L13525.7949,-3475.9299L13525.8057,-3475.9275L13525.8151,-3475.9234L13525.8274,-3475.9156L13525.8333,-3475.9093L13525.8397,-3475.9025L13525.8448,-3475.8846L13525.8469,-3475.8738L13525.8448,-3475.847L13525.8448,-3475.8333L13525.8448,-3475.8285L13525.8397,-3475.7837L13525.8394,-3475.7709L13525.8408,-3475.7602L13525.8545,-3475.7393L13525.8676,-3475.7256L13525.895,-3475.7029L13525.9044,-3475.6976L13525.9174,-3475.6922L13525.9363,-3475.6821L13525.9471,-3475.6689L13525.9558,-3475.6499L13525.9615,-3475.6445L13525.9724,-3475.6385L13525.9839,-3475.6332L13525.9984,-3475.6248L13526.0172,-3475.6093L13526.0219,-3475.5905L13526.0217,-3475.5895L13526.019,-3475.5744L13526.0169,-3475.5607L13526.0169,-3475.5487L13526.0212,-3475.5368L13526.04,-3475.5243L13526.0639,-3475.5076L13526.0725,-3475.4981L13526.0776,-3475.4897L13526.0797,-3475.4796L13526.0776,-3475.4676L13526.0747,-3475.4593L13526.061,-3475.4444L13526.0422,-3475.4229L13526.0118,-3475.3961L13526.0089,-3475.3865L13526.0082,-3475.3782L13526.014,-3475.3662L13526.0205,-3475.3561L13526.0364,-3475.3477L13526.0479,-3475.3424L13526.0552,-3475.3382L13526.0624,-3475.3243L13526.0657,-3475.3007L13526.0724,-3475.2796L13526.0855,-3475.2646L13526.1058,-3475.2495L13526.1417,-3475.2242L13526.1823,-3475.1919L13526.1995,-3475.1751L13526.2057,-3475.1597L13526.2052,-3475.1455L13526.2021,-3475.1296L13526.1896,-3475.1162L13526.1709,-3475.099L13526.1589,-3475.0849L13526.1422,-3475.0547L13526.1303,-3475.0423L13526.1167,-3475.023L13526.1142,-3475.0146L13526.1099,-3475.0002L13526.1099,-3475L13526.1001,-3474.9722L13526.0881,-3474.9417L13526.086,-3474.9159L13526.0871,-3474.8922L13526.0881,-3474.8751L13526.0839,-3474.8596L13526.073,-3474.848L13526.061,-3474.8432L13526.0417,-3474.8415L13525.9939,-3474.8364L13525.9736,-3474.8308L13525.9626,-3474.8174L13525.9574,-3474.8011L13525.959,-3474.7843L13525.9574,-3474.7646L13525.9562,-3474.7608L13525.9537,-3474.7534L13525.9366,-3474.7371L13525.9152,-3474.7207L13525.9074,-3474.7154L13525.9012,-3474.7113L13525.8892,-3474.7005L13525.8798,-3474.6872L13525.8752,-3474.67L13525.8643,-3474.6554L13525.8444,-3474.6442L13525.8333,-3474.6392L13525.8309,-3474.6382L13525.8195,-3474.6399L13525.8007,-3474.6459L13525.7783,-3474.6459L13525.7575,-3474.6468L13525.7434,-3474.6502L13525.72,-3474.6549L13525.6961,-3474.6567L13525.6737,-3474.6549L13525.6591,-3474.6523L13525.6307,-3474.6472L13525.6305,-3474.6472L13525.6065,-3474.6399L13525.5816,-3474.6283L13525.5576,-3474.6167L13525.5383,-3474.6107L13525.5237,-3474.6025L13525.5201,-3474.5939L13525.5201,-3474.5788L13525.5326,-3474.5384L13525.5446,-3474.5221L13525.5586,-3474.5075L13525.5623,-3474.4903L13525.5581,-3474.4765L13525.5513,-3474.4713L13525.5461,-3474.4675L13525.5264,-3474.4653L13525.5154,-3474.4597L13525.4987,-3474.4512L13525.4826,-3474.4409L13525.4576,-3474.4331L13525.4285,-3474.4314L13525.4076,-3474.4335L13525.3931,-3474.4344L13525.3858,-3474.4279L13525.3842,-3474.4168L13525.3837,-3474.3867L13525.3785,-3474.3656L13525.3618,-3474.354L13525.327,-3474.3377L13525.3014,-3474.3256L13525.2713,-3474.3157L13525.2515,-3474.3084L13525.2348,-3474.3084L13525.2239,-3474.3097L13525.215,-3474.3067L13525.2093,-3474.2955L13525.2004,-3474.2852L13525.1895,-3474.2822L13525.1718,-3474.2762L13525.1567,-3474.259L13525.1515,-3474.2487L13525.152,-3474.2442L13525.1541,-3474.225L13525.1551,-3474.2078L13525.1536,-3474.2057L13525.1453,-3474.1945L13525.1239,-3474.1859L13525.1046,-3474.185L13525.0443,-3474.1829L13525,-3474.1883L13524.9844,-3474.1902L13524.9443,-3474.1996L13524.9209,-3474.2156L13524.9027,-3474.2383L13524.8875,-3474.2548L13524.8829,-3474.2598L13524.8502,-3474.2719L13524.848,-3474.2727L13524.8411,-3474.2726L13524.8121,-3474.2723L13524.7954,-3474.268L13524.7897,-3474.2663L13524.7621,-3474.2581L13524.7506,-3474.2417L13524.7385,-3474.2292L13524.7251,-3474.2194L13524.7236,-3474.2184L13524.7211,-3474.2187L13524.7079,-3474.224L13524.6989,-3474.2248L13524.6788,-3474.2213L13524.6497,-3474.2117L13524.5741,-3474.1886L13524.5629,-3474.1667L13524.5365,-3474.1147L13524.5006,-3474.0348L13524.4868,-3473.994L13524.4807,-3473.9691L13524.4805,-3473.9682L13524.4789,-3473.9433L13524.4821,-3473.9254L13524.4948,-3473.8844L13524.5054,-3473.8491L13524.5133,-3473.8325L13524.5179,-3473.8264L13524.5276,-3473.8137L13524.5514,-3473.7928L13524.6037,-3473.76L13524.6236,-3473.7489L13524.7211,-3473.6945L13524.7283,-3473.6899L13524.7386,-3473.6814L13524.7454,-3473.6702L13524.7488,-3473.6521L13524.7439,-3473.6393L13524.7407,-3473.6304L13524.7419,-3473.6199L13524.7539,-3473.6059L13524.7665,-3473.5925L13524.7709,-3473.588L13524.7817,-3473.5798L13524.7909,-3473.5791L13524.798,-3473.58L13524.8074,-3473.5785L13524.8119,-3473.5699L13524.8123,-3473.5493L13524.8116,-3473.5265L13524.8076,-3473.5167L13524.7987,-3473.505L13524.7881,-3473.497L13524.7704,-3473.4875L13524.7683,-3473.4834L13524.7732,-3473.4715L13524.7805,-3473.4608L13524.7805,-3473.4534L13524.7763,-3473.4463L13524.7661,-3473.4346L13524.7605,-3473.4278L13524.7456,-3473.4064L13524.7317,-3473.3918L13524.7211,-3473.3665L13524.7138,-3473.3333L13524.7103,-3473.3176L13524.6994,-3473.294L13524.6984,-3473.2919L13524.696,-3473.2867L13524.6831,-3473.272L13524.6517,-3473.2518L13524.6359,-3473.2395L13524.626,-3473.2278L13524.609,-3473.2181L13524.5614,-3473.2119L13524.4972,-3473.2079L13524.4854,-3473.2037L13524.4712,-3473.1912L13524.4691,-3473.1884L13524.4608,-3473.1779L13524.4509,-3473.1725L13524.4273,-3473.169L13524.3777,-3473.1619L13524.3603,-3473.1592L13524.3306,-3473.1616L13524.2857,-3473.1623L13524.2584,-3473.1635L13524.2588,-3473.1582L13524.2596,-3473.1497L13524.2617,-3473.1261L13524.2622,-3473.1144L13524.264,-3473.0704L13524.2639,-3473.0537L13524.2636,-3473.0101L13524.2654,-3472.9649L13524.2687,-3472.9302L13524.2712,-3472.8801L13524.2721,-3472.8631L13524.2754,-3472.8207L13524.2763,-3472.8013L13524.281,-3472.7779L13524.2806,-3472.7557L13524.2806,-3472.7474L13524.2806,-3472.7397L13524.2857,-3472.7128L13524.2867,-3472.7019L13524.2839,-3472.6863L13524.2739,-3472.6743L13524.263,-3472.6596L13524.2574,-3472.6521L13524.2508,-3472.6334L13524.2513,-3472.6229L13524.2551,-3472.6088L13524.2699,-3472.5933L13524.2711,-3472.5921L13524.2862,-3472.5699L13524.2973,-3472.5505L13524.298,-3472.5492L13524.3051,-3472.5305L13524.307,-3472.504L13524.307,-3472.5L13524.307,-3472.4736L13524.3093,-3472.4207L13524.3141,-3472.4024L13524.3265,-3472.3811L13524.3273,-3472.3797L13524.4141,-3472.3182L13524.5038,-3472.2547L13524.5845,-3472.1972L13524.5898,-3472.1935L13524.6066,-3472.1816L13524.6072,-3472.1812L13524.6157,-3472.1703L13524.6246,-3472.1523L13524.635,-3472.1379L13524.6404,-3472.1306L13524.6483,-3472.12L13524.6624,-3472.0889L13524.6799,-3472.0609L13524.6931,-3472.0476L13524.701,-3472.0411L13524.7101,-3472.0336L13524.7211,-3472.0231L13524.7292,-3472.0148L13524.7581,-3471.9854L13524.7831,-3471.9325L13524.795,-3471.8741L13524.8143,-3471.8418L13524.8497,-3471.7907L13524.8628,-3471.7751L13524.8742,-3471.7614L13524.894,-3471.7176L13524.9018,-3471.6918L13524.9045,-3471.6797L13520.873,-3471.6797L13520.8682,-3471.7012L13520.8629,-3471.7249L13520.8612,-3471.7361L13520.8588,-3471.751L13520.8594,-3471.7746L13520.8516,-3471.7894L13520.8439,-3471.7963L13520.8333,-3471.7989L13520.8242,-3471.8012L13520.8033,-3471.8121L13520.7914,-3471.8283L13520.7842,-3471.8431L13520.7866,-3471.8554L13520.8069,-3471.88L13520.8128,-3471.8899L13520.8111,-3471.8943L13520.7926,-3471.8884L13520.7693,-3471.8786L13520.721,-3471.849L13520.704,-3471.8436L13520.645,-3471.8091L13520.6283,-3471.7993L13520.577,-3471.7899L13520.5459,-3471.7801L13520.5084,-3471.7667L13520.4137,-3471.7471L13520.3785,-3471.7411L13520.3344,-3471.7407L13520.2992,-3471.7426L13520.2801,-3471.7476L13520.2783,-3471.7484L13520.2676,-3471.7539L13520.2604,-3471.7638L13520.2497,-3471.7788L13520.2449,-3471.7854L13520.2264,-3471.8044L13520.2133,-3471.8118L13520.1924,-3471.8212L13520.1793,-3471.8315L13520.1727,-3471.8458L13520.1596,-3471.8689L13520.1524,-3471.8911L13520.1519,-3471.9187L13520.1568,-3471.945L13520.1578,-3471.9507L13520.1614,-3471.9788L13520.1612,-3471.9912L13520.1608,-3472.0146L13520.1614,-3472.0408L13520.1572,-3472.0657L13520.1531,-3472.0809L13520.1443,-3472.1L13520.1429,-3472.1031L13520.128,-3472.1213L13520.1053,-3472.1396L13520.0696,-3472.1607L13520.0351,-3472.177L13520,-3472.1899L13519.991,-3472.1932L13519.954,-3472.2076L13519.9373,-3472.2159L13519.9153,-3472.2356L13519.8866,-3472.2553L13519.8717,-3472.2637L13519.8276,-3472.273L13519.8248,-3472.2736L13519.8091,-3472.277L13519.79,-3472.2849L13519.7709,-3472.2967L13519.756,-3472.3109L13519.7333,-3472.3267L13519.7032,-3472.339L13519.68,-3472.3543L13519.6633,-3472.372L13519.6525,-3472.3897L13519.6501,-3472.4016L13519.6484,-3472.4193L13519.6501,-3472.4351L13519.6561,-3472.4616L13519.6644,-3472.4809L13519.6756,-3472.5L13519.6898,-3472.5244L13519.7023,-3472.5412L13519.7256,-3472.5624L13519.7357,-3472.5757L13519.7399,-3472.5875L13519.7399,-3472.6042L13519.7412,-3472.6082L13519.7453,-3472.621L13519.7524,-3472.6372L13519.7655,-3472.6589L13519.7727,-3472.6781L13519.7739,-3472.6914L13519.7739,-3472.7234L13519.7786,-3472.7411L13519.7846,-3472.7554L13519.79,-3472.7667L13519.7882,-3472.7783L13519.787,-3472.7916L13519.7894,-3472.8005L13519.7983,-3472.8148L13519.8079,-3472.8325L13519.821,-3472.8468L13519.8335,-3472.8709L13519.8389,-3472.8832L13519.8407,-3472.8985L13519.8484,-3472.9118L13519.8657,-3472.9271L13519.8667,-3472.9286L13519.8741,-3472.9404L13519.8759,-3472.9527L13519.8765,-3472.9655L13519.858,-3473.0524L13519.809,-3473.2731L13519.8031,-3473.2999L13519.7956,-3473.3333L13519.7635,-3473.4759L13519.7865,-3473.4958L13519.8104,-3473.5197L13519.8166,-3473.5371L13519.8155,-3473.5531L13519.8058,-3473.5677L13519.7882,-3473.5813L13519.7643,-3473.6024L13519.7607,-3473.6099L13519.7738,-3473.6423L13519.7739,-3473.6427L13519.7777,-3473.6569L13519.7783,-3473.6771L13519.7755,-3473.6888L13519.7647,-3473.7174L13519.7628,-3473.7216L13519.6862,-3473.8872L13519.6265,-3474.0253L13519.5935,-3474.1146L13519.5935,-3474.1247L13519.5997,-3474.1308L13519.6049,-3474.1439L13519.6161,-3474.1667L13519.6179,-3474.1702L13519.6242,-3474.1872L13519.6293,-3474.1984L13519.6259,-3474.2045L13519.6238,-3474.2063L13519.6168,-3474.2125L13519.6082,-3474.2313L13519.606,-3474.244L13519.6065,-3474.2506L13519.6162,-3474.2642L13519.6327,-3474.2811L13519.652,-3474.3017L13519.6623,-3474.3135L13519.6646,-3474.3229L13519.6651,-3474.3356L13519.6771,-3474.3497L13519.6822,-3474.36L13519.6845,-3474.372L13519.6822,-3474.3804L13519.6742,-3474.3875L13519.6668,-3474.3969L13519.6657,-3474.4086L13519.6646,-3474.4185L13519.6537,-3474.4297L13519.6316,-3474.4406L13519.6037,-3474.4429L13519.5945,-3474.4421L13519.5918,-3474.4418L13519.5889,-3474.4415L13519.5815,-3474.4443L13519.5826,-3474.4504L13519.5872,-3474.4579L13519.5917,-3474.4706L13519.5895,-3474.4837L13519.5889,-3474.496L13519.5892,-3474.4986L13519.5912,-3474.5143L13519.602,-3474.526L13519.6179,-3474.5331L13519.6361,-3474.5495L13519.652,-3474.5664L13519.6589,-3474.5782L13519.664,-3474.5944L13519.6697,-3474.6L13519.6867,-3474.6042L13519.7066,-3474.6104L13519.722,-3474.6188L13519.7334,-3474.631L13519.7419,-3474.6456L13519.7777,-3474.6554L13519.8113,-3474.655L13519.8335,-3474.654L13519.8378,-3474.6556L13519.846,-3474.6587L13519.8574,-3474.6714L13519.8594,-3474.6769L13519.8625,-3474.685L13519.859,-3474.6959L13519.8579,-3474.6991L13519.8536,-3474.7116L13519.8523,-3474.7156L13519.8369,-3474.7292L13519.8164,-3474.7583L13519.7971,-3474.779L13519.7908,-3474.7926L13519.7891,-3474.8132L13519.7766,-3474.8358L13519.7615,-3474.8586L13519.7445,-3474.8717L13519.7371,-3474.8797L13519.7337,-3474.9051L13519.7297,-3474.9248L13519.7172,-3474.9366L13519.6967,-3474.9704L13519.6921,-3474.9859L13519.6817,-3475L13519.6614,-3475.0277L13519.633,-3475.0615L13519.5971,-3475.1124L13519.5817,-3475.1345L13519.5243,-3475.2162L13519.5171,-3475.2265L13519.4663,-3475.298L13519.4398,-3475.3222L13519.4389,-3475.3242L13519.4345,-3475.3324L13519.4367,-3475.339L13519.4541,-3475.3468L13519.496,-3475.3605L13519.5155,-3475.3647L13519.5567,-3475.3659L13519.6009,-3475.3653L13519.6218,-3475.3688L13519.6363,-3475.3772L13519.6703,-3475.407L13519.6884,-3475.4184L13519.7013,-3475.4207L13519.7245,-3475.4166L13519.7513,-3475.4112L13519.7896,-3475.4082L13519.8047,-3475.4094L13519.8322,-3475.4154L13519.8525,-3475.4166L13519.8727,-3475.4196L13519.8915,-3475.4184L13519.9255,-3475.41L13519.9421,-3475.4106L13519.95,-3475.4151L13519.9537,-3475.4172L13519.9609,-3475.444L13519.9609,-3475.4637L13519.9667,-3475.4923L13520,-3475.504L13520.3004,-3475.6092L13520.3687,-3475.6319L13520.3716,-3475.6324L13520.3955,-3475.6372L13520.4259,-3475.6402L13520.4931,-3475.6456L13520.5293,-3475.6528L13520.5633,-3475.6552L13520.6182,-3475.6557L13520.645,-3475.6576L13520.6916,-3475.654L13520.7661,-3475.6474L13520.787,-3475.6438L13520.8297,-3475.6474L13520.8333,-3475.648L13520.8818,-3475.6557L13520.9064,-3475.6599L13520.9714,-3475.6671L13521.1381,-3475.6945L13521.1551,-3475.6974L13521.3232,-3475.7256L13521.4625,-3475.7533L13521.5181,-3475.7643L13521.5477,-3475.7691L13521.5687,-3475.7816L13521.6059,-3475.8333L13521.6121,-3475.8419L13521.6526,-3475.8961L13521.6666,-3475.9111L13521.6667,-3475.9111L13521.7433,-3475.9534L13521.8257,-3476.0005L13521.8261,-3476.0008L13521.8388,-3476.0086L13521.9031,-3476.0482L13521.9479,-3476.0804L13521.9768,-3476.1049L13522.0184,-3476.1359L13522.03,-3476.1419L13522.0705,-3476.1514L13522.1377,-3476.1741L13522.1448,-3476.1766L13522.1587,-3476.1816L13522.1949,-3476.1944L13522.2057,-3476.1997L13522.2404,-3476.211L13522.2881,-3476.2266L13522.3308,-3476.2391L13522.3509,-3476.2458L13522.4584,-3476.2815L13522.483,-3476.2946L13522.5,-3476.3002L13522.5216,-3476.3072L13522.5777,-3476.3256L13522.6218,-3476.3417L13522.6847,-3476.362L13522.7466,-3476.3829L13522.8333,-3476.4085L13522.8388,-3476.4082L13522.8514,-3476.4073L13522.8817,-3476.3901L13522.9237,-3476.3674L13522.9678,-3476.3542L13522.9982,-3476.3495L13523.0256,-3476.3525L13523.0593,-3476.368L13523.081,-3476.3769L13523.0933,-3476.3799L13523.1229,-3476.3829L13523.1475,-3476.3901L13523.1641,-3476.402L13523.1778,-3476.4181L13523.1909,-3476.4264L13523.2306,-3476.4419L13523.2559,-3476.4586L13523.2791,-3476.4932L13523.2936,-3476.5153L13523.3008,-3476.5219L13523.3109,-3476.5224L13523.3136,-3476.5228L13523.3304,-3476.5248L13523.3333,-3476.5254L13523.3572,-3476.5302L13523.3799,-3476.5362L13523.4139,-3476.5386L13523.4349,-3476.5457L13523.4537,-3476.5576L13523.4647,-3476.5714L13523.4718,-3476.5803L13523.4771,-3476.5915L13523.4811,-3476.5999L13523.4862,-3476.6107L13523.4924,-3476.633L13523.4956,-3476.6447L13523.4956,-3476.6667L13523.4956,-3476.6722L13523.4913,-3476.7193L13523.5361,-3476.7301L13523.5803,-3476.7462L13523.603,-3476.7503L13523.6247,-3476.7617L13523.6897,-3476.7843L13523.9211,-3476.8702L13523.9996,-3476.9006L13524.0271,-3476.9084L13524.0437,-3476.8905L13524.0509,-3476.8804L13524.1413,-3476.9024L13524.1667,-3476.9086L13524.1697,-3476.9093L13524.21,-3476.9191L13524.23,-3476.9233L13524.2384,-3476.925L13524.2765,-3476.9329L13524.3023,-3476.9386L13524.3705,-3476.9536L13524.4331,-3476.9674L13524.6319,-3477.0152L13524.6795,-3477.0263L13524.7211,-3477.0361L13524.7924,-3477.0536L13524.8618,-3477.0715L13524.8864,-3477.0762L13524.9016,-3477.0781L13524.9132,-3477.0781L13524.9363,-3477.0757L13524.9624,-3477.0673L13524.9855,-3477.0566L13525,-3477.0483L13525.0041,-3477.046L13525.0253,-3477.0339L13525.0556,-3477.016L13525.0781,-3477.0035L13525.0932,-3476.9969L13525.1113,-3476.994L13525.1496,-3476.991L13525.1894,-3476.9916L13525.2024,-3476.9934L13525.2205,-3477.0029L13525.2729,-3477.0223L13525.2903,-3477.0277L13525.3047,-3477.0307L13525.3228,-3477.0295L13525.3459,-3477.0217L13525.3561,-3477.0175L13525.3713,-3477.0163L13525.3777,-3477.0187L13525.3836,-3477.0277L13525.3915,-3477.0348L13525.3987,-3477.0396L13525.4396,-3477.0546L13525.4703,-3477.0658L13525.4927,-3477.0777L13525.5058,-3477.0833L13525.5195,-3477.0891L13525.5426,-3477.0974L13525.5704,-3477.1049L13525.6203,-3477.1121L13525.642,-3477.121L13525.6673,-3477.1287L13525.6758,-3477.1371L13525.713,-3477.0893Z"/>
<path content="兵庫県,,,神戸市,北区,28109" xlink:title="兵庫県" d="M13517.5781,-3480.4688L13524.1113,-3480.4688L13524.094,-3480.437L13524.0887,-3480.3836L13524.0675,-3480.3267L13524.1023,-3480.2622L13524.1667,-3480.2666L13524.1699,-3480.2668L13524.2016,-3480.291L13524.2068,-3480.2925L13524.2955,-3480.3142L13524.3075,-3480.349L13524.3291,-3480.3317L13524.3394,-3480.3496L13524.342,-3480.3525L13524.3469,-3480.3558L13524.3595,-3480.3632L13524.3709,-3480.3644L13524.3917,-3480.3734L13524.397,-3480.371L13524.413,-3480.3658L13524.4272,-3480.3628L13524.4408,-3480.36L13524.4508,-3480.3593L13524.4808,-3480.3607L13524.5145,-3480.3611L13524.5431,-3480.3811L13524.5904,-3480.3859L13524.6008,-3480.3873L13524.6257,-3480.39L13524.6415,-3480.3964L13524.6522,-3480.3926L13524.6659,-3480.3948L13524.6743,-3480.4112L13524.6851,-3480.4254L13524.6871,-3480.4312L13524.6963,-3480.4522L13524.7025,-3480.4687L13525.3052,-3480.4688L13525.3083,-3480.4674L13525.3198,-3480.4668L13525.327,-3480.4688L13526.1632,-3480.4688L13526.1756,-3480.454L13526.1821,-3480.445L13526.2023,-3480.4349L13526.2168,-3480.4277L13526.2377,-3480.4176L13526.2797,-3480.4074L13526.3202,-3480.3961L13526.3332,-3480.3896L13526.3484,-3480.3836L13526.3585,-3480.3728L13526.3672,-3480.3623L13526.3672,-3477.6414L13526.3321,-3477.6063L13526.2544,-3477.5362L13526.2486,-3477.5308L13526.2429,-3477.5302L13526.1237,-3477.5445L13526.1049,-3477.5L13526.1036,-3477.497L13526.0759,-3477.4737L13526.0406,-3477.4396L13526.0216,-3477.4114L13526.0477,-3477.3756L13525.9831,-3477.372L13525.9777,-3477.3391L13525.969,-3477.3329L13525.9641,-3477.3194L13525.9354,-3477.2926L13525.8919,-3477.2823L13525.855,-3477.2643L13525.8393,-3477.2514L13525.8333,-3477.2376L13525.8317,-3477.2339L13525.8278,-3477.2224L13525.8333,-3477.207L13525.8354,-3477.2012L13525.8333,-3477.2002L13525.8229,-3477.195L13525.786,-3477.1726L13525.6758,-3477.1371L13525.6673,-3477.1287L13525.642,-3477.121L13525.6203,-3477.1121L13525.5704,-3477.1049L13525.5426,-3477.0974L13525.5195,-3477.0891L13525.5058,-3477.0833L13525.4927,-3477.0777L13525.4703,-3477.0658L13525.4396,-3477.0546L13525.3987,-3477.0396L13525.3915,-3477.0348L13525.3836,-3477.0277L13525.3777,-3477.0187L13525.3713,-3477.0163L13525.3561,-3477.0175L13525.3459,-3477.0217L13525.3228,-3477.0295L13525.3047,-3477.0307L13525.2903,-3477.0277L13525.2729,-3477.0223L13525.2205,-3477.0029L13525.2024,-3476.9934L13525.1894,-3476.9916L13525.1496,-3476.991L13525.1113,-3476.994L13525.0932,-3476.9969L13525.0781,-3477.0035L13525.0556,-3477.016L13525.0253,-3477.0339L13525.0041,-3477.046L13525,-3477.0483L13524.9855,-3477.0566L13524.9624,-3477.0673L13524.9363,-3477.0757L13524.9132,-3477.0781L13524.9016,-3477.0781L13524.8864,-3477.0762L13524.8618,-3477.0715L13524.7924,-3477.0536L13524.7211,-3477.0361L13524.6795,-3477.0263L13524.6319,-3477.0152L13524.4331,-3476.9674L13524.3705,-3476.9536L13524.3023,-3476.9386L13524.2765,-3476.9329L13524.2384,-3476.925L13524.23,-3476.9233L13524.21,-3476.9191L13524.1697,-3476.9093L13524.1667,-3476.9086L13524.1413,-3476.9024L13524.0509,-3476.8804L13524.0437,-3476.8905L13524.0271,-3476.9084L13523.9996,-3476.9006L13523.9211,-3476.8702L13523.6897,-3476.7843L13523.6247,-3476.7617L13523.603,-3476.7503L13523.5803,-3476.7462L13523.5361,-3476.7301L13523.4913,-3476.7193L13523.4956,-3476.6722L13523.4956,-3476.6667L13523.4956,-3476.6447L13523.4924,-3476.633L13523.4862,-3476.6107L13523.4811,-3476.5999L13523.4771,-3476.5915L13523.4718,-3476.5803L13523.4647,-3476.5714L13523.4537,-3476.5576L13523.4349,-3476.5457L13523.4139,-3476.5386L13523.3799,-3476.5362L13523.3572,-3476.5302L13523.3333,-3476.5254L13523.3304,-3476.5248L13523.3136,-3476.5228L13523.3109,-3476.5224L13523.3008,-3476.5219L13523.2936,-3476.5153L13523.2791,-3476.4932L13523.2559,-3476.4586L13523.2306,-3476.4419L13523.1909,-3476.4264L13523.1778,-3476.4181L13523.1641,-3476.402L13523.1475,-3476.3901L13523.1229,-3476.3829L13523.0933,-3476.3799L13523.081,-3476.3769L13523.0593,-3476.368L13523.0256,-3476.3525L13522.9982,-3476.3495L13522.9678,-3476.3542L13522.9237,-3476.3674L13522.8817,-3476.3901L13522.8514,-3476.4073L13522.8388,-3476.4082L13522.8333,-3476.4085L13522.7466,-3476.3829L13522.6847,-3476.362L13522.6218,-3476.3417L13522.5777,-3476.3256L13522.5216,-3476.3072L13522.5,-3476.3002L13522.483,-3476.2946L13522.4584,-3476.2815L13522.3509,-3476.2458L13522.3308,-3476.2391L13522.2881,-3476.2266L13522.2404,-3476.211L13522.2057,-3476.1997L13522.1949,-3476.1944L13522.1587,-3476.1816L13522.1448,-3476.1766L13522.1377,-3476.1741L13522.0705,-3476.1514L13522.03,-3476.1419L13522.0184,-3476.1359L13521.9768,-3476.1049L13521.9479,-3476.0804L13521.9031,-3476.0482L13521.8388,-3476.0086L13521.8261,-3476.0008L13521.8257,-3476.0005L13521.7433,-3475.9534L13521.6667,-3475.9111L13521.6666,-3475.9111L13521.6526,-3475.8961L13521.6121,-3475.8419L13521.6059,-3475.8333L13521.5687,-3475.7816L13521.5477,-3475.7691L13521.5181,-3475.7643L13521.4625,-3475.7533L13521.3232,-3475.7256L13521.1551,-3475.6974L13521.1381,-3475.6945L13520.9714,-3475.6671L13520.9064,-3475.6599L13520.8818,-3475.6557L13520.8333,-3475.648L13520.8297,-3475.6474L13520.787,-3475.6438L13520.7661,-3475.6474L13520.6916,-3475.654L13520.645,-3475.6576L13520.6182,-3475.6557L13520.5633,-3475.6552L13520.5293,-3475.6528L13520.4931,-3475.6456L13520.4259,-3475.6402L13520.3955,-3475.6372L13520.3716,-3475.6324L13520.3687,-3475.6319L13520.3004,-3475.6092L13520,-3475.504L13519.9667,-3475.4923L13519.9609,-3475.4637L13519.9609,-3475.444L13519.9537,-3475.4172L13519.95,-3475.4151L13519.9421,-3475.4106L13519.9255,-3475.41L13519.8915,-3475.4184L13519.8727,-3475.4196L13519.8525,-3475.4166L13519.8322,-3475.4154L13519.8047,-3475.4094L13519.7896,-3475.4082L13519.7513,-3475.4112L13519.7245,-3475.4166L13519.7013,-3475.4207L13519.6884,-3475.4184L13519.6703,-3475.407L13519.6363,-3475.3772L13519.6218,-3475.3688L13519.6009,-3475.3653L13519.5567,-3475.3659L13519.5155,-3475.3647L13519.496,-3475.3605L13519.4541,-3475.3468L13519.4367,-3475.339L13519.4345,-3475.3324L13519.4389,-3475.3242L13519.4398,-3475.3222L13519.4663,-3475.298L13519.5171,-3475.2265L13519.5243,-3475.2162L13519.5817,-3475.1345L13519.5971,-3475.1124L13519.633,-3475.0615L13519.6614,-3475.0277L13519.6817,-3475L13519.6921,-3474.9859L13519.6967,-3474.9704L13519.7172,-3474.9366L13519.7297,-3474.9248L13519.7337,-3474.9051L13519.7371,-3474.8797L13519.7445,-3474.8717L13519.7615,-3474.8586L13519.7766,-3474.8358L13519.7891,-3474.8132L13519.7908,-3474.7926L13519.7971,-3474.779L13519.8164,-3474.7583L13519.8369,-3474.7292L13519.8523,-3474.7156L13519.8536,-3474.7116L13519.8579,-3474.6991L13519.859,-3474.6959L13519.8625,-3474.685L13519.8594,-3474.6769L13519.8574,-3474.6714L13519.846,-3474.6587L13519.8378,-3474.6556L13519.8335,-3474.654L13519.8113,-3474.655L13519.7777,-3474.6554L13519.7419,-3474.6456L13519.7334,-3474.631L13519.722,-3474.6188L13519.7066,-3474.6104L13519.6867,-3474.6042L13519.6697,-3474.6L13519.664,-3474.5944L13519.6589,-3474.5782L13519.652,-3474.5664L13519.6361,-3474.5495L13519.6179,-3474.5331L13519.602,-3474.526L13519.5912,-3474.5143L13519.5892,-3474.4986L13519.5889,-3474.496L13519.5895,-3474.4837L13519.5917,-3474.4706L13519.5872,-3474.4579L13519.5826,-3474.4504L13519.5815,-3474.4443L13519.5889,-3474.4415L13519.5918,-3474.4418L13519.5945,-3474.4421L13519.6037,-3474.4429L13519.6316,-3474.4406L13519.6537,-3474.4297L13519.6646,-3474.4185L13519.6657,-3474.4086L13519.6668,-3474.3969L13519.6742,-3474.3875L13519.6822,-3474.3804L13519.6845,-3474.372L13519.6822,-3474.36L13519.6771,-3474.3497L13519.6651,-3474.3356L13519.6646,-3474.3229L13519.6623,-3474.3135L13519.652,-3474.3017L13519.6327,-3474.2811L13519.6162,-3474.2642L13519.6065,-3474.2506L13519.606,-3474.244L13519.6082,-3474.2313L13519.6168,-3474.2125L13519.6238,-3474.2063L13519.6259,-3474.2045L13519.6293,-3474.1984L13519.6242,-3474.1872L13519.6179,-3474.1702L13519.6161,-3474.1667L13519.6049,-3474.1439L13519.5997,-3474.1308L13519.5935,-3474.1247L13519.5935,-3474.1146L13519.6265,-3474.0253L13519.6862,-3473.8872L13519.7628,-3473.7216L13519.7647,-3473.7174L13519.7755,-3473.6888L13519.7783,-3473.6771L13519.7777,-3473.6569L13519.7739,-3473.6427L13519.7738,-3473.6423L13519.7607,-3473.6099L13519.7643,-3473.6024L13519.7882,-3473.5813L13519.8058,-3473.5677L13519.8155,-3473.5531L13519.8166,-3473.5371L13519.8104,-3473.5197L13519.7865,-3473.4958L13519.7635,-3473.4759L13519.7109,-3473.4305L13519.5979,-3473.3333L13519.5749,-3473.3136L13519.2865,-3473.0605L13519.2285,-3473.011L13519.1667,-3472.9582L13519.004,-3472.8194L13518.9862,-3472.8042L13518.7964,-3472.6394L13518.6683,-3472.5282L13518.6359,-3472.5L13518.5671,-3472.44L13518.3623,-3472.2615L13518.3566,-3472.2566L13518.3333,-3472.2362L13518.3066,-3472.2128L13518.2472,-3472.1607L13518.2229,-3472.1394L13518.0355,-3471.9752L13518.0242,-3471.9653L13518.0198,-3471.9615L13518.0079,-3471.9535L13517.9937,-3471.9507L13517.834,-3471.9237L13517.5781,-3471.8804Z"/>
<path content="兵庫県,,,神戸市,中央区,28110" xlink:title="兵庫県" d="M13520.2992,-3471.7426L13520.3344,-3471.7407L13520.3785,-3471.7411L13520.4137,-3471.7471L13520.5084,-3471.7667L13520.5459,-3471.7801L13520.577,-3471.7899L13520.6283,-3471.7993L13520.645,-3471.8091L13520.704,-3471.8436L13520.721,-3471.849L13520.7693,-3471.8786L13520.7926,-3471.8884L13520.8111,-3471.8943L13520.8128,-3471.8899L13520.8069,-3471.88L13520.7866,-3471.8554L13520.7842,-3471.8431L13520.7914,-3471.8283L13520.8033,-3471.8121L13520.8242,-3471.8012L13520.8333,-3471.7989L13520.8439,-3471.7963L13520.8516,-3471.7894L13520.8594,-3471.7746L13520.8588,-3471.751L13520.8612,-3471.7361L13520.8629,-3471.7249L13520.8682,-3471.7012L13520.873,-3471.6797L13517.5781,-3471.6797L13517.5781,-3471.8804L13517.834,-3471.9237L13517.9937,-3471.9507L13518.0079,-3471.9535L13518.0198,-3471.9615L13518.0242,-3471.9653L13518.0355,-3471.9752L13518.2229,-3472.1394L13518.2472,-3472.1607L13518.3066,-3472.2128L13518.3333,-3472.2362L13518.3566,-3472.2566L13518.3623,-3472.2615L13518.5671,-3472.44L13518.6359,-3472.5L13518.6683,-3472.5282L13518.7964,-3472.6394L13518.9862,-3472.8042L13519.004,-3472.8194L13519.1667,-3472.9582L13519.2285,-3473.011L13519.2865,-3473.0605L13519.5749,-3473.3136L13519.5979,-3473.3333L13519.7109,-3473.4305L13519.7635,-3473.4759L13519.7956,-3473.3333L13519.8031,-3473.2999L13519.809,-3473.2731L13519.858,-3473.0524L13519.8765,-3472.9655L13519.8759,-3472.9527L13519.8741,-3472.9404L13519.8667,-3472.9286L13519.8657,-3472.9271L13519.8484,-3472.9118L13519.8407,-3472.8985L13519.8389,-3472.8832L13519.8335,-3472.8709L13519.821,-3472.8468L13519.8079,-3472.8325L13519.7983,-3472.8148L13519.7894,-3472.8005L13519.787,-3472.7916L13519.7882,-3472.7783L13519.79,-3472.7667L13519.7846,-3472.7554L13519.7786,-3472.7411L13519.7739,-3472.7234L13519.7739,-3472.6914L13519.7727,-3472.6781L13519.7655,-3472.6589L13519.7524,-3472.6372L13519.7453,-3472.621L13519.7412,-3472.6082L13519.7399,-3472.6042L13519.7399,-3472.5875L13519.7357,-3472.5757L13519.7256,-3472.5624L13519.7023,-3472.5412L13519.6898,-3472.5244L13519.6756,-3472.5L13519.6644,-3472.4809L13519.6561,-3472.4616L13519.6501,-3472.4351L13519.6484,-3472.4193L13519.6501,-3472.4016L13519.6525,-3472.3897L13519.6633,-3472.372L13519.68,-3472.3543L13519.7032,-3472.339L13519.7333,-3472.3267L13519.756,-3472.3109L13519.7709,-3472.2967L13519.79,-3472.2849L13519.8091,-3472.277L13519.8248,-3472.2736L13519.8276,-3472.273L13519.8717,-3472.2637L13519.8866,-3472.2553L13519.9153,-3472.2356L13519.9373,-3472.2159L13519.954,-3472.2076L13519.991,-3472.1932L13520,-3472.1899L13520.0351,-3472.177L13520.0696,-3472.1607L13520.1053,-3472.1396L13520.128,-3472.1213L13520.1429,-3472.1031L13520.1443,-3472.1L13520.1531,-3472.0809L13520.1572,-3472.0657L13520.1614,-3472.0408L13520.1608,-3472.0146L13520.1612,-3471.9912L13520.1614,-3471.9788L13520.1578,-3471.9507L13520.1568,-3471.945L13520.1519,-3471.9187L13520.1524,-3471.8911L13520.1596,-3471.8689L13520.1727,-3471.8458L13520.1793,-3471.8315L13520.1924,-3471.8212L13520.2133,-3471.8118L13520.2264,-3471.8044L13520.2449,-3471.7854L13520.2497,-3471.7788L13520.2604,-3471.7638L13520.2676,-3471.7539L13520.2783,-3471.7484L13520.2801,-3471.7476L13520.2992,-3471.7426Z"/>
<path content="兵庫県,,,西宮市,,28204" xlink:title="兵庫県" d="M13526.3672,-3480.4688L13526.3672,-3480.3623L13526.3585,-3480.3728L13526.3484,-3480.3836L13526.3332,-3480.3896L13526.3202,-3480.3961L13526.2797,-3480.4074L13526.2377,-3480.4176L13526.2168,-3480.4277L13526.2023,-3480.4349L13526.1821,-3480.445L13526.1756,-3480.454L13526.1632,-3480.4688L13525.327,-3480.4688L13525.3198,-3480.4668L13525.3083,-3480.4674L13525.3052,-3480.4688L13524.7025,-3480.4687L13524.6963,-3480.4522L13524.6871,-3480.4312L13524.6851,-3480.4254L13524.6743,-3480.4112L13524.6659,-3480.3948L13524.6522,-3480.3926L13524.6415,-3480.3964L13524.6257,-3480.39L13524.6008,-3480.3873L13524.5904,-3480.3859L13524.5431,-3480.3811L13524.5145,-3480.3611L13524.4808,-3480.3607L13524.4508,-3480.3593L13524.4408,-3480.36L13524.4272,-3480.3628L13524.413,-3480.3658L13524.397,-3480.371L13524.3917,-3480.3734L13524.3709,-3480.3644L13524.3595,-3480.3632L13524.3469,-3480.3558L13524.342,-3480.3525L13524.3394,-3480.3496L13524.3291,-3480.3317L13524.3075,-3480.349L13524.2955,-3480.3142L13524.2068,-3480.2925L13524.2016,-3480.291L13524.1699,-3480.2668L13524.1667,-3480.2666L13524.1023,-3480.2622L13524.0675,-3480.3267L13524.0887,-3480.3836L13524.094,-3480.437L13524.1113,-3480.4688Z"/>
</g>
</svg>
