<?xml version="1.0" encoding="UTF-8"?>
<svg  xmlns="http://www.w3.org/2000/svg" xmlns:xlink="http://www.w3.org/1999/xlink" xmlns:go="http://purl.org/svgmap/profile" property="geometry,N03_001,N03_002,N03_003,N03_004,N03_005,N03_007" viewBox="13464.84375 -3418.9453125 8.7890625 8.7890625" go:dataArea="13464.84375 -3418.9453125 8.7890625 8.7890625" >
<metadata>
 <rdf:RDF xmlns:rdf="http://www.w3.org/1999/02/22-rdf-syntax-ns#" xmlns:crs="http://opengis.org/xmldtds/transformations.dtd" xmlns:svg="http://www.w3.org/svg" >
  <rdf:Description>
   <crs:CoordinateReferenceSystem rdf:resource="http://purl.org/crs/84" svg:transform="matrix(100.0,0.0,0.0,-100.0,0.0,0.0)" />
  </rdf:Description>
 </rdf:RDF>
</metadata>
<globalCoordinateSystem srsName="http://purl.org/crs/84" transform="matrix(100.0,0.0,0.0,-100.0,0.0,0.0)" />
<defs>
 <g id="p0" >
  <circle cx="0.0" cy="0.0" r="3" stroke="green" stroke-width="2.0" vector-effect="non-scaling-stroke" />
 </g>
</defs>
<g fill="#0000ff" fill-rule="evenodd" opacity="0.5" >
<path content="兵庫県,,,南あわじ市,,28224" xlink:title="兵庫県" d="M13473.5546,-3418.9453L13473.5478,-3418.9434L13473.5407,-3418.9411L13473.5331,-3418.9383L13473.525,-3418.9345L13473.5182,-3418.931L13473.5169,-3418.928L13473.5165,-3418.9269L13473.5178,-3418.9252L13473.5236,-3418.9216L13473.525,-3418.9172L13473.5219,-3418.9122L13473.5147,-3418.9127L13473.5071,-3418.9179L13473.5037,-3418.9216L13473.4999,-3418.9199L13473.4955,-3418.9189L13473.4896,-3418.9179L13473.4861,-3418.9171L13473.4835,-3418.9159L13473.4806,-3418.9138L13473.478,-3418.9116L13473.4752,-3418.9096L13473.4731,-3418.9089L13473.4714,-3418.9076L13473.4671,-3418.9055L13473.4624,-3418.9057L13473.4522,-3418.9036L13473.4445,-3418.9022L13473.4367,-3418.9006L13473.431,-3418.8995L13473.4249,-3418.8978L13473.4195,-3418.8955L13473.4153,-3418.8934L13473.4197,-3418.8875L13473.4215,-3418.8819L13473.4213,-3418.8775L13473.4171,-3418.8735L13473.4091,-3418.872L13473.4002,-3418.8747L13473.3909,-3418.8775L13473.3856,-3418.8818L13473.3819,-3418.8834L13473.3784,-3418.8824L13473.3716,-3418.882L13473.3649,-3418.883L13473.3589,-3418.8849L13473.3525,-3418.8857L13473.3476,-3418.8878L13473.3422,-3418.889L13473.3379,-3418.8906L13473.3333,-3418.8929L13473.3277,-3418.8957L13473.3252,-3418.8961L13473.3202,-3418.8973L13473.3176,-3418.8979L13473.3157,-3418.8996L13473.3145,-3418.9L13473.3111,-3418.9004L13473.3054,-3418.9002L13473.2992,-3418.8996L13473.286,-3418.8977L13473.2804,-3418.8971L13473.2735,-3418.8965L13473.2683,-3418.8957L13473.2599,-3418.894L13473.2548,-3418.8927L13473.25,-3418.8912L13473.2454,-3418.8903L13473.2418,-3418.8899L13473.2385,-3418.8897L13473.2355,-3418.89L13473.2317,-3418.8911L13473.2263,-3418.8929L13473.2208,-3418.894L13473.217,-3418.8942L13473.2129,-3418.8941L13473.2056,-3418.8932L13473.1955,-3418.8915L13473.1769,-3418.8878L13473.1686,-3418.8868L13473.1629,-3418.8863L13473.1574,-3418.8863L13473.1511,-3418.8867L13473.1423,-3418.8878L13473.1338,-3418.8893L13473.1219,-3418.8915L13473.1155,-3418.8926L13473.1082,-3418.8934L13473.0999,-3418.8939L13473.0901,-3418.8941L13473.0793,-3418.8942L13473.0543,-3418.8943L13473.0376,-3418.8946L13473.0298,-3418.8951L13473.0247,-3418.8954L13473.0201,-3418.896L13473.0145,-3418.8973L13473.0071,-3418.8988L13472.9976,-3418.8999L13472.9897,-3418.9L13472.9836,-3418.9L13472.9754,-3418.8998L13472.973,-3418.9001L13472.9717,-3418.9012L13472.9714,-3418.9026L13472.9729,-3418.9042L13472.9779,-3418.9083L13472.9765,-3418.9106L13472.9739,-3418.9127L13472.9705,-3418.9142L13472.9674,-3418.9152L13472.9624,-3418.9161L13472.9614,-3418.9169L13472.9614,-3418.9182L13472.9621,-3418.9216L13472.9621,-3418.923L13472.9615,-3418.9241L13472.9598,-3418.9255L13472.9562,-3418.9267L13472.9518,-3418.928L13472.9485,-3418.9294L13472.9459,-3418.9308L13472.9435,-3418.932L13472.9417,-3418.9337L13472.9405,-3418.9351L13472.9364,-3418.9453Z"/>
</g>
</svg>
