<?xml version="1.0" encoding="UTF-8"?>
<svg  xmlns="http://www.w3.org/2000/svg" xmlns:xlink="http://www.w3.org/1999/xlink" xmlns:go="http://purl.org/svgmap/profile" property="geometry,N03_001,N03_002,N03_003,N03_004,N03_005,N03_007" viewBox="13508.7890625 -3410.15625 2.197265625 2.197265625" go:dataArea="13508.7890625 -3410.15625 2.197265625 2.197265625" >
<metadata>
 <rdf:RDF xmlns:rdf="http://www.w3.org/1999/02/22-rdf-syntax-ns#" xmlns:crs="http://opengis.org/xmldtds/transformations.dtd" xmlns:svg="http://www.w3.org/svg" >
  <rdf:Description>
   <crs:CoordinateReferenceSystem rdf:resource="http://purl.org/crs/84" svg:transform="matrix(100.0,0.0,0.0,-100.0,0.0,0.0)" />
  </rdf:Description>
 </rdf:RDF>
</metadata>
<globalCoordinateSystem srsName="http://purl.org/crs/84" transform="matrix(100.0,0.0,0.0,-100.0,0.0,0.0)" />
<defs>
 <g id="p0" >
  <circle cx="0.0" cy="0.0" r="3" stroke="green" stroke-width="2.0" vector-effect="non-scaling-stroke" />
 </g>
</defs>
<g fill="#0000ff" fill-rule="evenodd" opacity="0.5" >
<path content="和歌山県,,,有田市,,30204" xlink:title="和歌山県" d="M13510.9863,-3410.1563L13510.9863,-3407.959L13509.5769,-3407.959L13509.6145,-3408.0416L13509.6352,-3408.0873L13509.6125,-3408.1543L13509.608,-3408.1523L13509.511,-3408.1094L13509.507,-3408.1076L13509.4099,-3408.0647L13509.4057,-3408.063L13509.3247,-3408.0271L13509.3216,-3408.0256L13509.3206,-3408.0252L13509.2803,-3408.0076L13509.2517,-3407.9949L13509.2484,-3407.9932L13509.1739,-3407.9606L13509.1715,-3407.9593L13509.1708,-3407.959L13509.1613,-3407.959L13509.1667,-3407.9614L13509.2582,-3408.0019L13509.3696,-3408.051L13509.4492,-3408.086L13509.5596,-3408.1347L13509.6113,-3408.1577L13509.5557,-3408.3213L13509.5516,-3408.3333L13509.4935,-3408.5046L13509.4625,-3408.5449L13509.509,-3408.6687L13509.5384,-3408.7504L13509.5639,-3408.8234L13509.5977,-3408.9156L13509.6316,-3409.0075L13509.6438,-3409.0407L13509.6722,-3409.1196L13509.6668,-3409.1267L13509.6653,-3409.1287L13509.6598,-3409.1317L13509.6579,-3409.1357L13509.656,-3409.1361L13509.6537,-3409.1382L13509.6495,-3409.1421L13509.6467,-3409.1449L13509.6437,-3409.146L13509.6418,-3409.1461L13509.641,-3409.146L13509.6402,-3409.1456L13509.6399,-3409.1454L13509.6371,-3409.14L13509.6359,-3409.1392L13509.6346,-3409.1391L13509.6332,-3409.1392L13509.6233,-3409.1424L13509.6201,-3409.1388L13509.6195,-3409.1387L13509.6149,-3409.1393L13509.6132,-3409.1399L13509.612,-3409.1395L13509.6092,-3409.1377L13509.6083,-3409.1358L13509.6063,-3409.1313L13509.6099,-3409.1281L13509.6102,-3409.1266L13509.6101,-3409.1258L13509.6091,-3409.1256L13509.6064,-3409.1255L13509.6049,-3409.1259L13509.6006,-3409.1274L13509.5943,-3409.122L13509.5936,-3409.1219L13509.5933,-3409.122L13509.5933,-3409.1248L13509.593,-3409.1256L13509.5924,-3409.1257L13509.5917,-3409.1257L13509.591,-3409.1252L13509.584,-3409.1186L13509.5824,-3409.1177L13509.5794,-3409.1168L13509.5728,-3409.116L13509.5716,-3409.116L13509.571,-3409.1165L13509.571,-3409.1171L13509.5713,-3409.1176L13509.5759,-3409.123L13509.5778,-3409.1245L13509.5815,-3409.1263L13509.5824,-3409.1273L13509.5824,-3409.1279L13509.5818,-3409.128L13509.5774,-3409.1264L13509.5762,-3409.1261L13509.5754,-3409.1262L13509.5744,-3409.127L13509.5738,-3409.127L13509.5734,-3409.1265L13509.5733,-3409.1256L13509.5725,-3409.1247L13509.5678,-3409.1227L13509.5672,-3409.1226L13509.5669,-3409.1228L13509.567,-3409.1234L13509.5706,-3409.127L13509.5766,-3409.1312L13509.5776,-3409.131L13509.5789,-3409.1328L13509.5831,-3409.1342L13509.5836,-3409.1353L13509.5798,-3409.1371L13509.5797,-3409.1382L13509.5837,-3409.1408L13509.5836,-3409.1412L13509.5833,-3409.1414L13509.578,-3409.1411L13509.5749,-3409.1386L13509.572,-3409.1365L13509.5705,-3409.1378L13509.5651,-3409.1354L13509.5629,-3409.1346L13509.5618,-3409.1345L13509.56,-3409.1346L13509.5544,-3409.1296L13509.5533,-3409.1294L13509.5529,-3409.1294L13509.5528,-3409.1299L13509.5541,-3409.1318L13509.5536,-3409.1324L13509.5515,-3409.1334L13509.5488,-3409.1331L13509.5475,-3409.1336L13509.5468,-3409.1336L13509.5461,-3409.1331L13509.5418,-3409.1232L13509.5401,-3409.1216L13509.5379,-3409.1204L13509.5325,-3409.1185L13509.5294,-3409.1183L13509.5251,-3409.1185L13509.5226,-3409.1192L13509.5211,-3409.1201L13509.521,-3409.1209L13509.5212,-3409.1224L13509.5208,-3409.1227L13509.5184,-3409.1234L13509.5168,-3409.1246L13509.5168,-3409.1258L13509.5192,-3409.1295L13509.521,-3409.1311L13509.5233,-3409.1326L13509.5248,-3409.1333L13509.5259,-3409.1334L13509.5312,-3409.1383L13509.5383,-3409.1386L13509.5357,-3409.1408L13509.5355,-3409.1415L13509.5359,-3409.1423L13509.5381,-3409.1434L13509.5405,-3409.1446L13509.5471,-3409.1468L13509.5369,-3409.146L13509.5338,-3409.146L13509.5291,-3409.145L13509.5269,-3409.145L13509.5262,-3409.1455L13509.5259,-3409.1461L13509.5261,-3409.147L13509.5314,-3409.1509L13509.5362,-3409.1541L13509.5365,-3409.1544L13509.5365,-3409.1551L13509.536,-3409.1552L13509.5352,-3409.155L13509.5308,-3409.1527L13509.5193,-3409.1477L13509.516,-3409.1473L13509.515,-3409.1473L13509.5146,-3409.1476L13509.5148,-3409.1481L13509.5165,-3409.1502L13509.5221,-3409.1579L13509.529,-3409.1601L13509.5314,-3409.1616L13509.5376,-3409.164L13509.5383,-3409.1665L13509.538,-3409.1667L13509.5348,-3409.1687L13509.5322,-3409.1682L13509.5308,-3409.1673L13509.5296,-3409.1674L13509.5288,-3409.1682L13509.5289,-3409.1694L13509.5299,-3409.1707L13509.5326,-3409.1734L13509.5345,-3409.1745L13509.5415,-3409.1786L13509.5448,-3409.1809L13509.5457,-3409.1808L13509.551,-3409.1752L13509.5525,-3409.1748L13509.554,-3409.1748L13509.5549,-3409.1754L13509.5548,-3409.1767L13509.5548,-3409.1795L13509.5556,-3409.1826L13509.5578,-3409.1852L13509.5574,-3409.1875L13509.5581,-3409.19L13509.5591,-3409.191L13509.5622,-3409.1932L13509.5676,-3409.1949L13509.5687,-3409.1956L13509.5686,-3409.1967L13509.5679,-3409.1996L13509.5685,-3409.2004L13509.5696,-3409.2011L13509.5706,-3409.2011L13509.573,-3409.2001L13509.5763,-3409.1982L13509.5794,-3409.1972L13509.5911,-3409.1956L13509.5949,-3409.1947L13509.6011,-3409.1911L13509.6039,-3409.1886L13509.6086,-3409.194L13509.609,-3409.1944L13509.6175,-3409.2019L13509.6253,-3409.2115L13509.6279,-3409.2144L13509.6299,-3409.2214L13509.6311,-3409.2238L13509.6318,-3409.2249L13509.6313,-3409.227L13509.6318,-3409.2278L13509.633,-3409.2289L13509.6338,-3409.2294L13509.634,-3409.2304L13509.6331,-3409.2326L13509.6339,-3409.2343L13509.6342,-3409.2358L13509.6342,-3409.2378L13509.6344,-3409.2417L13509.6361,-3409.2439L13509.636,-3409.2446L13509.6354,-3409.2454L13509.6346,-3409.2459L13509.6341,-3409.2466L13509.634,-3409.2475L13509.6346,-3409.2483L13509.6344,-3409.2491L13509.634,-3409.2502L13509.634,-3409.2511L13509.6345,-3409.2518L13509.6346,-3409.2523L13509.6335,-3409.2543L13509.6336,-3409.2566L13509.6342,-3409.2582L13509.635,-3409.2592L13509.6348,-3409.2602L13509.6355,-3409.2609L13509.6363,-3409.2652L13509.6372,-3409.267L13509.6383,-3409.2689L13509.6405,-3409.2698L13509.6418,-3409.2712L13509.6426,-3409.2716L13509.6431,-3409.2724L13509.6432,-3409.2736L13509.6405,-3409.2744L13509.6392,-3409.2754L13509.6389,-3409.2774L13509.6384,-3409.2794L13509.6388,-3409.2797L13509.64,-3409.2798L13509.6411,-3409.2804L13509.6416,-3409.2811L13509.6414,-3409.2818L13509.6415,-3409.2824L13509.6422,-3409.2827L13509.6437,-3409.283L13509.6445,-3409.2831L13509.6456,-3409.2823L13509.6467,-3409.2821L13509.6498,-3409.2821L13509.6504,-3409.2823L13509.6505,-3409.2854L13509.6502,-3409.2862L13509.6489,-3409.287L13509.6481,-3409.2884L13509.6477,-3409.2909L13509.6456,-3409.2914L13509.6444,-3409.2921L13509.6434,-3409.2934L13509.6431,-3409.2947L13509.6434,-3409.2955L13509.6441,-3409.2965L13509.647,-3409.2989L13509.6478,-3409.2998L13509.6481,-3409.3005L13509.6482,-3409.303L13509.6489,-3409.3038L13509.65,-3409.3042L13509.6519,-3409.3046L13509.6562,-3409.3051L13509.6609,-3409.3054L13509.6621,-3409.3056L13509.6624,-3409.3059L13509.6617,-3409.3067L13509.6601,-3409.3076L13509.657,-3409.3081L13509.6539,-3409.3091L13509.6522,-3409.3089L13509.6487,-3409.3079L13509.6474,-3409.3079L13509.6452,-3409.3086L13509.6429,-3409.31L13509.6415,-3409.3113L13509.6407,-3409.3124L13509.6402,-3409.3137L13509.64,-3409.3151L13509.6403,-3409.3163L13509.6419,-3409.3189L13509.6426,-3409.3224L13509.643,-3409.323L13509.6435,-3409.3233L13509.6453,-3409.3235L13509.647,-3409.3231L13509.6484,-3409.3222L13509.6491,-3409.3212L13509.6496,-3409.32L13509.65,-3409.3155L13509.6504,-3409.3142L13509.6511,-3409.3136L13509.6515,-3409.3137L13509.6521,-3409.314L13509.6529,-3409.3149L13509.653,-3409.3204L13509.6534,-3409.3208L13509.6547,-3409.3211L13509.6551,-3409.3214L13509.6562,-3409.3236L13509.6569,-3409.3243L13509.6574,-3409.3246L13509.6583,-3409.3248L13509.6601,-3409.3246L13509.6615,-3409.3241L13509.6623,-3409.3235L13509.6626,-3409.3232L13509.6629,-3409.3223L13509.6632,-3409.3195L13509.6636,-3409.3187L13509.6645,-3409.3179L13509.6658,-3409.3171L13509.6674,-3409.3167L13509.6687,-3409.3169L13509.6695,-3409.3172L13509.6712,-3409.3186L13509.673,-3409.3207L13509.6742,-3409.3224L13509.6745,-3409.3237L13509.6744,-3409.3249L13509.674,-3409.3259L13509.6705,-3409.3301L13509.6687,-3409.3325L13509.6677,-3409.3336L13509.6645,-3409.3354L13509.6637,-3409.3364L13509.6637,-3409.3369L13509.6642,-3409.3374L13509.6649,-3409.3379L13509.6665,-3409.3385L13509.6671,-3409.3389L13509.6674,-3409.3396L13509.6675,-3409.3401L13509.6673,-3409.3407L13509.6668,-3409.3416L13509.6638,-3409.3446L13509.6631,-3409.3456L13509.663,-3409.3462L13509.6636,-3409.3466L13509.6651,-3409.3468L13509.6667,-3409.3468L13509.6677,-3409.3465L13509.6691,-3409.3456L13509.6697,-3409.3449L13509.6704,-3409.3437L13509.6712,-3409.3412L13509.6739,-3409.3314L13509.6744,-3409.3303L13509.6749,-3409.33L13509.6751,-3409.3301L13509.6757,-3409.3306L13509.6761,-3409.3315L13509.6763,-3409.3332L13509.6758,-3409.3347L13509.6742,-3409.3375L13509.6733,-3409.3396L13509.6727,-3409.3416L13509.6727,-3409.3428L13509.6734,-3409.3439L13509.6738,-3409.3442L13509.6745,-3409.3443L13509.6757,-3409.3439L13509.6777,-3409.3423L13509.6784,-3409.3419L13509.6791,-3409.3418L13509.6796,-3409.342L13509.6797,-3409.3425L13509.6784,-3409.344L13509.6783,-3409.3447L13509.6789,-3409.3457L13509.6807,-3409.347L13509.6813,-3409.3476L13509.6816,-3409.3483L13509.6817,-3409.3507L13509.6822,-3409.3512L13509.6833,-3409.3511L13509.6841,-3409.3507L13509.6847,-3409.3501L13509.6858,-3409.348L13509.6865,-3409.3476L13509.6887,-3409.3467L13509.6895,-3409.3462L13509.6904,-3409.3454L13509.6922,-3409.343L13509.6927,-3409.3427L13509.6931,-3409.3427L13509.6939,-3409.3431L13509.6951,-3409.3442L13509.696,-3409.3462L13509.6974,-3409.3484L13509.6972,-3409.3485L13509.6951,-3409.3481L13509.6939,-3409.3482L13509.6919,-3409.3497L13509.6869,-3409.3525L13509.6858,-3409.3536L13509.6852,-3409.3547L13509.6836,-3409.3592L13509.6834,-3409.3602L13509.6839,-3409.361L13509.6855,-3409.3619L13509.686,-3409.3624L13509.6863,-3409.3649L13509.6868,-3409.3657L13509.6873,-3409.3661L13509.6892,-3409.3663L13509.6896,-3409.3665L13509.6902,-3409.3675L13509.6905,-3409.3677L13509.6923,-3409.3678L13509.6934,-3409.3683L13509.6942,-3409.369L13509.6965,-3409.3723L13509.6973,-3409.3729L13509.6978,-3409.3731L13509.6988,-3409.3733L13509.7,-3409.3731L13509.7008,-3409.3727L13509.7023,-3409.3711L13509.703,-3409.3707L13509.7041,-3409.3706L13509.7047,-3409.3708L13509.7053,-3409.3713L13509.7057,-3409.3722L13509.7062,-3409.3755L13509.7071,-3409.378L13509.7083,-3409.3804L13509.7091,-3409.3811L13509.7101,-3409.3812L13509.7106,-3409.3808L13509.7109,-3409.3801L13509.7114,-3409.3773L13509.7132,-3409.3751L13509.7144,-3409.373L13509.7148,-3409.3726L13509.7151,-3409.3727L13509.7154,-3409.3735L13509.7156,-3409.3747L13509.715,-3409.3767L13509.7152,-3409.3785L13509.7156,-3409.3794L13509.7163,-3409.38L13509.7171,-3409.3804L13509.7181,-3409.3804L13509.7202,-3409.3796L13509.7243,-3409.3772L13509.7263,-3409.3763L13509.7282,-3409.3756L13509.7383,-3409.3728L13509.7427,-3409.3707L13509.7442,-3409.3705L13509.7465,-3409.3713L13509.7475,-3409.3715L13509.7486,-3409.3713L13509.7507,-3409.3707L13509.7517,-3409.3706L13509.7521,-3409.3707L13509.7527,-3409.3711L13509.7539,-3409.3726L13509.7553,-3409.374L13509.7559,-3409.3744L13509.7592,-3409.377L13509.7618,-3409.3783L13509.7639,-3409.3786L13509.7675,-3409.3785L13509.7683,-3409.3783L13509.7689,-3409.3778L13509.7703,-3409.3756L13509.7711,-3409.375L13509.7724,-3409.3746L13509.7736,-3409.3747L13509.7753,-3409.3753L13509.7759,-3409.3758L13509.7772,-3409.3776L13509.7779,-3409.3779L13509.779,-3409.3782L13509.7812,-3409.3784L13509.7859,-3409.3783L13509.7958,-3409.3764L13509.799,-3409.3761L13509.8002,-3409.3761L13509.8021,-3409.3765L13509.8095,-3409.3788L13509.8113,-3409.3794L13509.8142,-3409.3809L13509.8257,-3409.3873L13509.8462,-3409.4013L13509.8504,-3409.4043L13509.8532,-3409.4067L13509.8556,-3409.4092L13509.8566,-3409.4108L13509.858,-3409.4143L13509.8712,-3409.453L13509.8737,-3409.4525L13509.9096,-3409.5578L13509.9218,-3409.5548L13509.9089,-3409.5162L13509.89,-3409.4614L13509.8871,-3409.4511L13509.8906,-3409.4491L13509.8873,-3409.439L13509.872,-3409.3968L13509.8796,-3409.3931L13509.882,-3409.391L13509.8989,-3409.3602L13509.918,-3409.3244L13509.9258,-3409.3118L13509.9383,-3409.2902L13509.9389,-3409.2869L13509.9381,-3409.2806L13509.9282,-3409.2504L13509.9164,-3409.2135L13509.9009,-3409.1667L13509.9004,-3409.165L13509.8891,-3409.1281L13509.8872,-3409.1224L13509.8873,-3409.122L13509.8888,-3409.1213L13509.9779,-3409.101L13509.9902,-3409.0982L13510,-3409.0958L13510.0093,-3409.0936L13510.055,-3409.0834L13510.1127,-3409.0701L13510.1438,-3409.1667L13510.1626,-3409.225L13510.1882,-3409.3033L13510.1849,-3409.3042L13510.2207,-3409.4128L13510.2295,-3409.4436L13510.2354,-3409.4626L13510.2544,-3409.5217L13510.2767,-3409.5914L13510.3053,-3409.6011L13510.3599,-3409.6194L13510.4466,-3409.6488L13510.5156,-3409.6722L13510.5284,-3409.6766L13510.5304,-3409.6772L13510.5587,-3409.6866L13510.5863,-3409.6958L13510.5168,-3409.8376L13510.5348,-3409.9184L13510.5416,-3409.9171L13510.538,-3409.9018L13510.5428,-3409.901L13510.5415,-3409.8952L13510.5385,-3409.8826L13510.5416,-3409.8821L13510.5318,-3409.8389L13510.5792,-3409.7419L13510.6809,-3409.7763L13510.7167,-3409.7887L13510.7715,-3409.7673L13510.7832,-3409.7627L13510.7848,-3409.7634L13510.7939,-3409.7598L13510.8333,-3409.7445L13510.8692,-3409.7306L13510.9059,-3409.7166L13510.9086,-3409.7155L13510.931,-3409.707L13510.9711,-3409.6912L13510.9754,-3409.6895L13510.9807,-3409.6874L13510.9863,-3409.6979L13510.9863,-3409.7202L13510.9555,-3409.7175L13510.9553,-3409.7188L13510.9863,-3409.7216L13510.9863,-3409.7543L13510.9336,-3409.7453L13510.9292,-3409.747L13510.926,-3409.7483L13510.8333,-3409.7842L13510.8042,-3409.7955L13510.799,-3409.8074L13510.7977,-3409.8104L13510.7878,-3409.8265L13510.8333,-3409.9089L13510.8423,-3409.9253L13510.8501,-3409.939L13510.8847,-3410L13510.8917,-3410.0124L13510.918,-3410.0591L13510.9411,-3410.0995L13510.9623,-3410.1381L13510.9725,-3410.1562Z"/>
<path content="和歌山県,,,有田市,,30204" xlink:title="和歌山県" d="M13510.5188,-3409.9588L13510.5272,-3409.9577L13510.5389,-3409.9547L13510.5411,-3409.9534L13510.546,-3409.9488L13510.5445,-3409.9483L13510.536,-3409.9486L13510.5164,-3409.9489L13510.4873,-3409.9512L13510.4809,-3409.9519L13510.4799,-3409.9527L13510.48,-3409.9538L13510.4814,-3409.9547L13510.4858,-3409.9548L13510.4927,-3409.9542L13510.4949,-3409.9542L13510.4949,-3409.9548L13510.4939,-3409.9557L13510.4938,-3409.9563L13510.4944,-3409.9575L13510.4958,-3409.9582L13510.4998,-3409.9586L13510.5061,-3409.958L13510.5188,-3409.9588Z"/>
<path content="和歌山県,,,有田市,,30204" xlink:title="和歌山県" d="M13509.6099,-3409.2783L13509.6102,-3409.2779L13509.6101,-3409.2763L13509.6104,-3409.2756L13509.611,-3409.2754L13509.6125,-3409.2757L13509.6134,-3409.2754L13509.6147,-3409.2745L13509.6154,-3409.2737L13509.6158,-3409.272L13509.6162,-3409.2716L13509.6169,-3409.2714L13509.6197,-3409.2714L13509.6206,-3409.271L13509.6212,-3409.2705L13509.6218,-3409.2697L13509.6219,-3409.2689L13509.6217,-3409.2683L13509.6211,-3409.2676L13509.6195,-3409.2665L13509.6192,-3409.266L13509.6191,-3409.265L13509.619,-3409.2647L13509.6185,-3409.2645L13509.6151,-3409.2641L13509.613,-3409.2627L13509.6119,-3409.2622L13509.6107,-3409.2621L13509.6072,-3409.2624L13509.6061,-3409.2622L13509.6054,-3409.2618L13509.6043,-3409.2605L13509.6037,-3409.2601L13509.6029,-3409.2599L13509.5995,-3409.2598L13509.5986,-3409.2595L13509.5971,-3409.2585L13509.5958,-3409.258L13509.5881,-3409.2567L13509.5864,-3409.2574L13509.5854,-3409.2575L13509.58,-3409.2568L13509.5783,-3409.2567L13509.5771,-3409.2568L13509.5755,-3409.2572L13509.5747,-3409.2577L13509.5743,-3409.2581L13509.5742,-3409.2592L13509.5745,-3409.2598L13509.5754,-3409.2606L13509.5754,-3409.2614L13509.5756,-3409.262L13509.5769,-3409.263L13509.5784,-3409.2636L13509.5839,-3409.2638L13509.5891,-3409.2642L13509.5906,-3409.2642L13509.5946,-3409.2639L13509.5979,-3409.2646L13509.6015,-3409.2645L13509.6025,-3409.2647L13509.6031,-3409.2652L13509.6046,-3409.2674L13509.6054,-3409.2682L13509.6063,-3409.2686L13509.6084,-3409.2688L13509.6089,-3409.269L13509.6089,-3409.2694L13509.6087,-3409.2704L13509.6087,-3409.2709L13509.6098,-3409.2728L13509.6097,-3409.2729L13509.6092,-3409.2729L13509.6075,-3409.2726L13509.6015,-3409.2706L13509.5983,-3409.2698L13509.5951,-3409.2688L13509.5934,-3409.2687L13509.5922,-3409.2689L13509.5916,-3409.2691L13509.5908,-3409.2701L13509.5905,-3409.2709L13509.5908,-3409.2717L13509.5916,-3409.2725L13509.5951,-3409.2737L13509.5976,-3409.2752L13509.5989,-3409.2763L13509.5998,-3409.2778L13509.6007,-3409.2785L13509.6014,-3409.2786L13509.6031,-3409.2783L13509.6045,-3409.2787L13509.6062,-3409.2789L13509.609,-3409.2788L13509.6099,-3409.2783Z"/>
<path content="和歌山県,,,有田市,,30204" xlink:title="和歌山県" d="M13510.6392,-3409.9721L13510.639,-3409.9668L13510.5917,-3409.969L13510.5859,-3409.9678L13510.5729,-3409.9614L13510.5694,-3409.9597L13510.5679,-3409.9615L13510.5665,-3409.9633L13510.5659,-3409.964L13510.5665,-3409.9643L13510.5828,-3409.9725L13510.5919,-3409.9743L13510.6392,-3409.9721Z"/>
<path content="和歌山県,,,有田市,,30204" xlink:title="和歌山県" d="M13510.6836,-3409.9072L13510.6395,-3409.8922L13510.6368,-3409.8975L13510.681,-3409.9125L13510.6835,-3409.9133L13510.6856,-3409.9079L13510.6846,-3409.9075L13510.6836,-3409.9072Z"/>
<path content="和歌山県,,,有田市,,30204" xlink:title="和歌山県" d="M13509.5293,-3409.1775L13509.5296,-3409.1775L13509.5296,-3409.1775L13509.5298,-3409.1775L13509.5308,-3409.1774L13509.5316,-3409.1773L13509.5321,-3409.1771L13509.5324,-3409.177L13509.5324,-3409.177L13509.5328,-3409.1768L13509.533,-3409.1766L13509.5332,-3409.1764L13509.5332,-3409.1763L13509.5332,-3409.1762L13509.5332,-3409.176L13509.5331,-3409.1757L13509.5329,-3409.1754L13509.5327,-3409.1752L13509.5326,-3409.1751L13509.5323,-3409.1749L13509.5319,-3409.1747L13509.5313,-3409.1746L13509.5304,-3409.1744L13509.5292,-3409.1742L13509.5291,-3409.1742L13509.5283,-3409.174L13509.5277,-3409.1738L13509.5273,-3409.1736L13509.5272,-3409.1736L13509.5271,-3409.1735L13509.5266,-3409.1731L13509.5261,-3409.1726L13509.5254,-3409.1718L13509.5243,-3409.1706L13509.5241,-3409.1704L13509.5241,-3409.1703L13509.5239,-3409.1701L13509.5231,-3409.1695L13509.522,-3409.1687L13509.5203,-3409.1675L13509.519,-3409.1667L13509.5189,-3409.1667L13509.5182,-3409.1662L13509.5176,-3409.166L13509.5175,-3409.166L13509.5169,-3409.1658L13509.5163,-3409.1656L13509.5158,-3409.1656L13509.5157,-3409.1656L13509.5156,-3409.1656L13509.5156,-3409.1657L13509.515,-3409.1658L13509.5145,-3409.1659L13509.5144,-3409.1659L13509.514,-3409.1659L13509.5132,-3409.1658L13509.513,-3409.1658L13509.5123,-3409.1657L13509.5114,-3409.1658L13509.5106,-3409.166L13509.5099,-3409.1661L13509.5098,-3409.1662L13509.5097,-3409.1662L13509.5096,-3409.1663L13509.509,-3409.1665L13509.5088,-3409.1667L13509.5082,-3409.1671L13509.5072,-3409.1676L13509.5067,-3409.1679L13509.5064,-3409.168L13509.5064,-3409.168L13509.5063,-3409.168L13509.5053,-3409.1683L13509.5052,-3409.1684L13509.5051,-3409.1684L13509.5048,-3409.1686L13509.5045,-3409.1689L13509.5042,-3409.1693L13509.504,-3409.1697L13509.5038,-3409.1702L13509.5038,-3409.1703L13509.5038,-3409.1704L13509.5038,-3409.1705L13509.5038,-3409.171L13509.5039,-3409.1714L13509.504,-3409.1718L13509.5042,-3409.1722L13509.5043,-3409.1723L13509.5044,-3409.1724L13509.5047,-3409.1726L13509.5052,-3409.1729L13509.5058,-3409.1731L13509.5065,-3409.1733L13509.5074,-3409.1735L13509.5079,-3409.1735L13509.508,-3409.1736L13509.509,-3409.1736L13509.5117,-3409.1736L13509.5121,-3409.1736L13509.5122,-3409.1736L13509.5123,-3409.1736L13509.513,-3409.1737L13509.5137,-3409.1739L13509.514,-3409.174L13509.514,-3409.174L13509.5141,-3409.174L13509.5147,-3409.1744L13509.5155,-3409.1747L13509.5158,-3409.1748L13509.5158,-3409.1749L13509.5158,-3409.1749L13509.5163,-3409.175L13509.5168,-3409.175L13509.5173,-3409.1749L13509.5174,-3409.1749L13509.5179,-3409.1747L13509.5189,-3409.1744L13509.5193,-3409.1743L13509.5194,-3409.1743L13509.5195,-3409.1743L13509.5198,-3409.1744L13509.5203,-3409.1745L13509.5214,-3409.1751L13509.5215,-3409.1751L13509.5222,-3409.1753L13509.5241,-3409.1756L13509.5244,-3409.1757L13509.5245,-3409.1758L13509.5246,-3409.1758L13509.5251,-3409.176L13509.5259,-3409.1766L13509.5266,-3409.177L13509.527,-3409.1772L13509.5271,-3409.1772L13509.5276,-3409.1773L13509.5283,-3409.1774L13509.5293,-3409.1775Z"/>
<path content="和歌山県,,,有田市,,30204" xlink:title="和歌山県" d="M13509.9283,-3409.5845L13509.9271,-3409.5837L13509.9262,-3409.5836L13509.9241,-3409.5837L13509.9229,-3409.5835L13509.922,-3409.583L13509.9191,-3409.5806L13509.918,-3409.5802L13509.9168,-3409.5801L13509.9145,-3409.5805L13509.9126,-3409.5815L13509.9113,-3409.5827L13509.9104,-3409.5838L13509.91,-3409.5847L13509.9099,-3409.5854L13509.9102,-3409.5867L13509.9112,-3409.5886L13509.9121,-3409.5895L13509.9136,-3409.5905L13509.9157,-3409.5916L13509.9177,-3409.5924L13509.9196,-3409.5927L13509.9218,-3409.5928L13509.9236,-3409.5926L13509.9247,-3409.5922L13509.926,-3409.5915L13509.9276,-3409.5902L13509.9285,-3409.5888L13509.929,-3409.5875L13509.9291,-3409.5861L13509.9289,-3409.5854L13509.9283,-3409.5845Z"/>
<path content="和歌山県,,,有田市,,30204" xlink:title="和歌山県" d="M13509.5158,-3409.1857L13509.5164,-3409.1857L13509.5169,-3409.1857L13509.517,-3409.1857L13509.518,-3409.1859L13509.5181,-3409.1859L13509.5183,-3409.1859L13509.5187,-3409.1858L13509.5192,-3409.1857L13509.5198,-3409.1853L13509.5213,-3409.1844L13509.5219,-3409.1842L13509.5221,-3409.1841L13509.5221,-3409.1841L13509.5226,-3409.184L13509.524,-3409.1839L13509.524,-3409.1839L13509.5241,-3409.1839L13509.5247,-3409.1838L13509.5251,-3409.1836L13509.5253,-3409.1835L13509.5254,-3409.1834L13509.5254,-3409.1833L13509.5255,-3409.1831L13509.5256,-3409.1828L13509.5255,-3409.1823L13509.5255,-3409.1823L13509.5255,-3409.1822L13509.5253,-3409.1817L13509.5251,-3409.1811L13509.5249,-3409.1808L13509.5249,-3409.1807L13509.5245,-3409.1801L13509.5241,-3409.1797L13509.5237,-3409.1793L13509.5237,-3409.1793L13509.5233,-3409.1791L13509.523,-3409.179L13509.5229,-3409.1789L13509.5228,-3409.1789L13509.5224,-3409.1789L13509.5219,-3409.179L13509.5215,-3409.1791L13509.5209,-3409.1794L13509.5203,-3409.1797L13509.5202,-3409.1798L13509.5202,-3409.1798L13509.5201,-3409.1798L13509.5196,-3409.1801L13509.5194,-3409.1802L13509.5193,-3409.1802L13509.5192,-3409.1802L13509.5191,-3409.1801L13509.5189,-3409.1799L13509.5188,-3409.1798L13509.5188,-3409.1798L13509.5186,-3409.1795L13509.5185,-3409.179L13509.5184,-3409.1785L13509.5184,-3409.1784L13509.5183,-3409.1783L13509.5181,-3409.1781L13509.5178,-3409.1779L13509.5173,-3409.1776L13509.5166,-3409.1773L13509.5165,-3409.1773L13509.5163,-3409.1772L13509.5125,-3409.1757L13509.5125,-3409.1757L13509.5123,-3409.1756L13509.5106,-3409.175L13509.5097,-3409.1747L13509.509,-3409.1746L13509.509,-3409.1746L13509.5089,-3409.1746L13509.5082,-3409.1746L13509.5074,-3409.1747L13509.5067,-3409.1749L13509.5065,-3409.1749L13509.5063,-3409.175L13509.5058,-3409.1752L13509.5049,-3409.1757L13509.5037,-3409.1764L13509.5036,-3409.1765L13509.5034,-3409.1766L13509.5008,-3409.1781L13509.5001,-3409.1785L13509.4998,-3409.1788L13509.4996,-3409.1791L13509.4995,-3409.1793L13509.4995,-3409.1795L13509.4995,-3409.1796L13509.4995,-3409.1796L13509.4997,-3409.1798L13509.4997,-3409.1799L13509.5,-3409.1801L13509.5004,-3409.1803L13509.5006,-3409.1804L13509.5007,-3409.1805L13509.5011,-3409.1805L13509.5017,-3409.1805L13509.5024,-3409.1804L13509.5038,-3409.1801L13509.5046,-3409.1799L13509.5047,-3409.1799L13509.5049,-3409.1798L13509.5074,-3409.1794L13509.5082,-3409.1792L13509.5084,-3409.1791L13509.5086,-3409.179L13509.5093,-3409.1787L13509.5106,-3409.178L13509.5111,-3409.1778L13509.5114,-3409.1778L13509.5117,-3409.1778L13509.5117,-3409.1778L13509.5118,-3409.1779L13509.5119,-3409.178L13509.5122,-3409.1784L13509.5123,-3409.1786L13509.5123,-3409.1787L13509.5126,-3409.1793L13509.5126,-3409.1796L13509.5126,-3409.1798L13509.5126,-3409.1799L13509.5124,-3409.18L13509.5122,-3409.1802L13509.5117,-3409.1803L13509.5111,-3409.1804L13509.511,-3409.1804L13509.5109,-3409.1805L13509.5089,-3409.1809L13509.5082,-3409.1811L13509.5078,-3409.1813L13509.5077,-3409.1813L13509.5072,-3409.1816L13509.5068,-3409.1819L13509.5065,-3409.1822L13509.5063,-3409.1825L13509.5062,-3409.1828L13509.5062,-3409.183L13509.5062,-3409.183L13509.5063,-3409.1833L13509.5065,-3409.1835L13509.5065,-3409.1835L13509.5067,-3409.1836L13509.507,-3409.1837L13509.5081,-3409.1838L13509.5081,-3409.1838L13509.5082,-3409.1838L13509.5082,-3409.1838L13509.5085,-3409.184L13509.5088,-3409.1841L13509.509,-3409.1844L13509.5091,-3409.1845L13509.5091,-3409.1846L13509.5091,-3409.1848L13509.509,-3409.1852L13509.5089,-3409.1856L13509.5089,-3409.1856L13509.5087,-3409.1861L13509.5087,-3409.1864L13509.5087,-3409.1865L13509.5088,-3409.1866L13509.5089,-3409.1867L13509.5091,-3409.1868L13509.5096,-3409.1868L13509.51,-3409.1868L13509.5102,-3409.1868L13509.5109,-3409.1868L13509.5117,-3409.1866L13509.5131,-3409.1862L13509.5133,-3409.1862L13509.5148,-3409.1859L13509.5158,-3409.1857Z"/>
<path content="和歌山県,,,有田市,,30204" xlink:title="和歌山県" d="M13509.5899,-3409.2802L13509.5914,-3409.2799L13509.5924,-3409.2802L13509.5934,-3409.2811L13509.5942,-3409.2811L13509.5949,-3409.2806L13509.595,-3409.2798L13509.5946,-3409.2792L13509.5937,-3409.2784L13509.5928,-3409.2755L13509.5921,-3409.2746L13509.5909,-3409.2741L13509.5882,-3409.2736L13509.587,-3409.2727L13509.5864,-3409.2724L13509.585,-3409.2724L13509.5808,-3409.2737L13509.5775,-3409.2745L13509.577,-3409.2749L13509.5768,-3409.2753L13509.5767,-3409.2761L13509.5769,-3409.2766L13509.5784,-3409.2781L13509.5788,-3409.2794L13509.5793,-3409.28L13509.5811,-3409.281L13509.5833,-3409.2816L13509.5844,-3409.2816L13509.5867,-3409.2814L13509.5876,-3409.2812L13509.5899,-3409.2802Z"/>
</g>
</svg>
