<?xml version="1.0" encoding="UTF-8"?>
<svg  xmlns="http://www.w3.org/2000/svg" xmlns:xlink="http://www.w3.org/1999/xlink" xmlns:go="http://purl.org/svgmap/profile" property="geometry,N03_001,N03_002,N03_003,N03_004,N03_005,N03_007" viewBox="13570.3125 -3515.625 70.3125 70.3125" go:dataArea="13570.3125 -3515.625 70.3125 70.3125" >
<metadata>
 <rdf:RDF xmlns:rdf="http://www.w3.org/1999/02/22-rdf-syntax-ns#" xmlns:crs="http://opengis.org/xmldtds/transformations.dtd" xmlns:svg="http://www.w3.org/svg" >
  <rdf:Description>
   <crs:CoordinateReferenceSystem rdf:resource="http://purl.org/crs/84" svg:transform="matrix(100.0,0.0,0.0,-100.0,0.0,0.0)" />
  </rdf:Description>
 </rdf:RDF>
</metadata>
<globalCoordinateSystem srsName="http://purl.org/crs/84" transform="matrix(100.0,0.0,0.0,-100.0,0.0,0.0)" />
<defs>
 <g id="p0" >
  <circle cx="0.0" cy="0.0" r="3" stroke="green" stroke-width="2.0" vector-effect="non-scaling-stroke" />
 </g>
</defs>
<g fill="#0000ff" fill-rule="evenodd" opacity="0.5" >
<path content="大阪府,,,枚方市,,27210" xlink:title="大阪府" d="M13570.3125,-3485.1592L13570.3248,-3485.1547L13570.348,-3485.1462L13570.3815,-3485.1371L13570.4008,-3485.1318L13570.4211,-3485.1289L13570.4971,-3485.1139L13570.5203,-3485.1038L13570.5304,-3485.099L13570.5423,-3485.0871L13570.5575,-3485.0621L13570.5647,-3485.0418L13570.5763,-3485.0173L13570.5926,-3485L13570.5959,-3484.9964L13570.6154,-3484.9756L13570.6256,-3484.969L13570.6436,-3484.9648L13570.6589,-3484.9618L13570.6734,-3484.9602L13570.6748,-3484.9601L13570.6972,-3484.9606L13570.7131,-3484.9601L13570.7305,-3484.9571L13570.7468,-3484.9487L13570.7551,-3484.9417L13570.7721,-3484.9272L13570.7757,-3484.9159L13570.7801,-3484.8956L13570.7873,-3484.8831L13570.7953,-3484.8724L13570.8134,-3484.8622L13570.83,-3484.8497L13570.8333,-3484.8456L13570.8481,-3484.827L13570.8619,-3484.8097L13570.8742,-3484.7763L13570.8843,-3484.7548L13570.8984,-3484.7322L13570.9245,-3484.7101L13570.9286,-3484.7082L13570.9534,-3484.6964L13570.9809,-3484.6851L13570.9891,-3484.6812L13571.0128,-3484.6701L13571.0171,-3484.663L13571.0135,-3484.6182L13571.0092,-3484.5926L13571.0084,-3484.5711L13571.0052,-3484.5628L13571.0044,-3484.5359L13571.0025,-3484.5251L13571.0008,-3484.5156L13570.99,-3484.4906L13570.9912,-3484.4763L13570.9914,-3484.4739L13571.0052,-3484.4405L13571.0086,-3484.4339L13571.0139,-3484.4238L13571.0219,-3484.4166L13571.0273,-3484.4164L13571.0493,-3484.4155L13571.074,-3484.414L13571.0899,-3484.4131L13571.1007,-3484.4029L13571.1174,-3484.3886L13571.1243,-3484.3701L13571.1336,-3484.3504L13571.1416,-3484.3296L13571.1467,-3484.3069L13571.1491,-3484.2889L13571.1496,-3484.2854L13571.1463,-3484.2732L13571.1453,-3484.2693L13571.1402,-3484.255L13571.1387,-3484.2509L13571.1416,-3484.2443L13571.1568,-3484.2329L13571.1742,-3484.2258L13571.1873,-3484.2139L13571.1807,-3484.2007L13571.1706,-3484.1942L13571.1453,-3484.184L13571.1264,-3484.1763L13571.1086,-3484.1667L13571.1054,-3484.1649L13571.1011,-3484.1453L13571.1054,-3484.1339L13571.1105,-3484.1286L13571.1199,-3484.128L13571.1384,-3484.1316L13571.1485,-3484.1006L13571.1514,-3484.0968L13571.163,-3484.0821L13571.176,-3484.0624L13571.1854,-3484.0409L13571.1963,-3484.026L13571.2093,-3484.0135L13571.2166,-3484.0051L13571.2303,-3484.0027L13571.2426,-3484.0039L13571.2535,-3484.0087L13571.26,-3484.0176L13571.2687,-3484.0224L13571.281,-3484.0224L13571.2984,-3484.0182L13571.3193,-3484.0075L13571.3327,-3483.9872L13571.3465,-3483.9699L13571.3726,-3483.9437L13571.3979,-3483.927L13571.4283,-3483.9174L13571.4536,-3483.9007L13571.4717,-3483.8847L13571.4804,-3483.8704L13571.484,-3483.862L13571.4927,-3483.8513L13571.5108,-3483.8369L13571.5296,-3483.8274L13571.5426,-3483.8161L13571.5687,-3483.7862L13571.5759,-3483.7636L13571.5788,-3483.7433L13571.5723,-3483.701L13571.573,-3483.6723L13571.5767,-3483.6576L13571.6066,-3483.634L13571.6637,-3483.5988L13571.6667,-3483.5974L13571.6833,-3483.5893L13571.6999,-3483.5738L13571.7151,-3483.5577L13571.7179,-3483.5547L13571.7295,-3483.5339L13571.7295,-3483.5231L13571.723,-3483.5088L13571.7195,-3483.4928L13571.7179,-3483.4855L13571.7199,-3483.4796L13571.7259,-3483.4611L13571.7592,-3483.4044L13571.7888,-3483.3626L13571.7917,-3483.3585L13571.8187,-3483.3333L13571.8192,-3483.3328L13571.822,-3483.3262L13571.8235,-3483.3227L13571.8199,-3483.3155L13571.7932,-3483.2982L13571.7794,-3483.2857L13571.7715,-3483.2744L13571.77,-3483.2636L13571.77,-3483.2541L13571.7758,-3483.2457L13571.8257,-3483.2159L13571.8481,-3483.2016L13571.8698,-3483.1821L13571.8792,-3483.1736L13571.8883,-3483.1632L13571.919,-3483.1282L13571.9352,-3483.1062L13571.9396,-3483.0871L13571.9403,-3483.065L13571.9349,-3483.0383L13571.9316,-3483.0221L13571.9345,-3483.0024L13571.9439,-3482.9815L13571.954,-3482.9696L13571.975,-3482.9582L13571.9945,-3482.9523L13572.0176,-3482.9505L13572.0473,-3482.9493L13572.0617,-3482.9463L13572.0798,-3482.929L13572.1435,-3482.8581L13572.1637,-3482.8378L13572.1897,-3482.8252L13572.2143,-3482.8151L13572.2254,-3482.8071L13572.2341,-3482.7944L13572.232,-3482.7824L13572.2298,-3482.775L13572.2341,-3482.7599L13572.2321,-3482.7528L13572.2367,-3482.7503L13572.2428,-3482.7485L13572.2463,-3482.7402L13572.2515,-3482.734L13572.2604,-3482.7297L13572.2701,-3482.7293L13572.2838,-3482.7177L13572.2889,-3482.7095L13572.297,-3482.6931L13572.3152,-3482.6837L13572.3208,-3482.667L13572.3233,-3482.657L13572.3275,-3482.6234L13572.3322,-3482.6051L13572.3317,-3482.592L13572.3314,-3482.5843L13572.3221,-3482.558L13572.3069,-3482.5336L13572.3054,-3482.5145L13572.3112,-3482.5007L13572.3118,-3482.5L13572.343,-3482.4626L13572.3589,-3482.4435L13572.3741,-3482.4184L13572.3987,-3482.3719L13572.4088,-3482.3403L13572.4168,-3482.3284L13572.4269,-3482.3218L13572.4493,-3482.3165L13572.4527,-3482.3161L13572.5,-3482.3101L13572.5115,-3482.3087L13572.5802,-3482.3045L13572.6199,-3482.3069L13572.6749,-3482.3194L13572.7266,-3482.3171L13572.7772,-3482.3141L13572.796,-3482.3099L13572.8293,-3482.2896L13572.894,-3482.258L13572.9189,-3482.2456L13572.9327,-3482.2387L13572.9467,-3482.2317L13572.9764,-3482.2252L13573.0205,-3482.2198L13573.0379,-3482.221L13573.0494,-3482.2246L13573.0675,-3482.2383L13573.082,-3482.2556L13573.0921,-3482.2634L13573.108,-3482.2664L13573.1413,-3482.2681L13573.1875,-3482.2669L13573.2063,-3482.2646L13573.2222,-3482.2592L13573.2493,-3482.2419L13573.2631,-3482.2276L13573.2804,-3482.1984L13573.2999,-3482.1578L13573.3094,-3482.1292L13573.3173,-3482.0976L13573.3267,-3482.0827L13573.3333,-3482.077L13573.3477,-3482.0647L13573.3629,-3482.0487L13573.3795,-3482.0367L13573.3987,-3482.029L13573.4283,-3482.0218L13573.4529,-3482.0158L13573.4868,-3482.0039L13573.502,-3481.9962L13573.5085,-3481.989L13573.5187,-3481.9538L13573.5244,-3481.9276L13573.5338,-3481.8924L13573.5483,-3481.8661L13573.5613,-3481.8458L13573.5779,-3481.8238L13573.5903,-3481.8017L13573.5911,-3481.7993L13573.6004,-3481.7743L13573.6011,-3481.7606L13573.5996,-3481.72L13573.6025,-3481.7009L13573.6099,-3481.6833L13573.6141,-3481.6735L13573.6191,-3481.6667L13573.6315,-3481.6496L13573.6437,-3481.6317L13573.6485,-3481.6098L13573.6524,-3481.5917L13573.6544,-3481.5763L13573.6575,-3481.5518L13573.677,-3481.4969L13573.6814,-3481.4706L13573.6777,-3481.4247L13573.6734,-3481.383L13573.6774,-3481.3692L13573.6777,-3481.3681L13573.6886,-3481.3544L13573.7053,-3481.3457L13573.7327,-3481.3317L13573.7529,-3481.3197L13573.7717,-3481.2971L13573.7862,-3481.2685L13573.7949,-3481.2392L13573.7963,-3481.2082L13573.8021,-3481.1915L13573.8122,-3481.1802L13573.8267,-3481.1718L13573.8399,-3481.1702L13573.8419,-3481.17L13573.8737,-3481.1724L13573.8867,-3481.17L13573.9041,-3481.1611L13573.938,-3481.1295L13573.9937,-3481.074L13574.0168,-3481.0468L13574.0175,-3481.046L13574.0546,-3481.0038L13574.0595,-3480.9983L13574.0971,-3480.9637L13574.1065,-3480.9494L13574.1188,-3480.9189L13574.1303,-3480.9022L13574.1593,-3480.8712L13574.1667,-3480.8637L13574.181,-3480.8492L13574.1882,-3480.8396L13574.1896,-3480.8333L13574.1933,-3480.8164L13574.1976,-3480.7776L13574.1997,-3480.7412L13574.2063,-3480.7221L13574.2121,-3480.6851L13574.2186,-3480.6642L13574.2309,-3480.6499L13574.2489,-3480.6332L13574.2583,-3480.6171L13574.2743,-3480.5855L13574.2807,-3480.5581L13574.2908,-3480.5432L13574.3191,-3480.5235L13574.353,-3480.502L13574.3913,-3480.4813L13574.4015,-3480.4758L13574.4832,-3480.4453L13574.5483,-3480.4227L13574.57,-3480.4089L13574.583,-3480.3982L13574.5852,-3480.3944L13574.6025,-3480.3642L13574.6169,-3480.3231L13574.6459,-3480.2467L13574.6538,-3480.202L13574.6603,-3480.1591L13574.6594,-3480.1372L13574.6589,-3480.1244L13574.6538,-3480.106L13574.6376,-3480.0643L13574.6292,-3480.0427L13574.6189,-3480.0065L13574.617,-3480L13574.6147,-3479.9921L13574.6039,-3479.9509L13574.6018,-3479.9032L13574.5982,-3479.8721L13574.5859,-3479.8495L13574.5743,-3479.8346L13574.5316,-3479.7821L13574.5222,-3479.7624L13574.5209,-3479.7474L13574.5201,-3479.7374L13574.5136,-3479.7207L13574.5072,-3479.7088L13574.494,-3479.6843L13574.4709,-3479.6568L13574.4319,-3479.6276L13574.4033,-3479.6079L13574.3867,-3479.5876L13574.378,-3479.568L13574.3686,-3479.5441L13574.3643,-3479.5173L13574.3584,-3479.4618L13574.3505,-3479.4117L13574.3375,-3479.3878L13574.3219,-3479.3747L13574.3063,-3479.3653L13574.306,-3479.3652L13574.2887,-3479.3598L13574.2728,-3479.3586L13574.2092,-3479.3592L13574.1796,-3479.3613L13574.1667,-3479.3622L13574.1529,-3479.3631L13574.1325,-3479.3646L13574.1173,-3479.3616L13574.1086,-3479.3515L13574.0964,-3479.3455L13574.0797,-3479.3455L13574.0653,-3479.3401L13574.053,-3479.3288L13574.0334,-3479.2787L13574.019,-3479.219L13574.0145,-3479.2083L13574.0024,-3479.1797L13573.9915,-3479.1707L13573.985,-3479.1667L13573.9672,-3479.1557L13573.9655,-3479.1546L13573.9561,-3479.1391L13573.9553,-3479.1369L13573.9481,-3479.1177L13573.9503,-3479.0884L13573.9557,-3479.0689L13573.9604,-3479.0514L13573.9669,-3479.0419L13573.998,-3479.024L13574.0125,-3479.0228L13574.0219,-3479.0162L13574.0241,-3479.0085L13574.0245,-3478.9927L13574.0248,-3478.9804L13574.032,-3478.953L13574.0399,-3478.9345L13574.0674,-3478.8916L13574.0754,-3478.8713L13574.0776,-3478.857L13574.0776,-3478.8469L13574.0674,-3478.8367L13574.0291,-3478.8188L13573.9894,-3478.7997L13573.9619,-3478.7842L13573.9481,-3478.7787L13573.9424,-3478.7765L13573.9279,-3478.7723L13573.8932,-3478.7669L13573.865,-3478.7604L13573.7952,-3478.7252L13573.78,-3478.7114L13573.7692,-3478.6876L13573.7547,-3478.6637L13573.7403,-3478.6477L13573.7171,-3478.6304L13573.6984,-3478.6196L13573.6871,-3478.6107L13573.6539,-3478.5683L13573.6459,-3478.556L13573.638,-3478.5439L13573.6365,-3478.5325L13573.6378,-3478.5242L13573.6401,-3478.5087L13573.6351,-3478.4914L13573.6242,-3478.4729L13573.6105,-3478.4574L13573.5975,-3478.4502L13573.5905,-3478.448L13573.5635,-3478.4395L13573.542,-3478.4348L13573.497,-3478.4251L13573.4178,-3478.4091L13573.3911,-3478.4007L13573.3679,-3478.387L13573.3484,-3478.3715L13573.3333,-3478.3506L13573.3209,-3478.3333L13573.3187,-3478.3303L13573.2761,-3478.3071L13573.2294,-3478.2749L13573.2179,-3478.2594L13573.2071,-3478.2373L13573.2042,-3478.2134L13573.1955,-3478.1794L13573.1832,-3478.1615L13573.1655,-3478.1484L13573.1467,-3478.1424L13573.1214,-3478.1382L13573.1135,-3478.1346L13573.1033,-3478.1299L13573.0903,-3478.1209L13573.0744,-3478.0977L13573.0577,-3478.0625L13573.0209,-3478.0142L13572.9999,-3477.9909L13572.9417,-3477.9534L13572.9316,-3477.9391L13572.9244,-3477.9122L13572.9128,-3477.8573L13572.9019,-3477.84L13572.8635,-3477.7998L13572.8519,-3477.7831L13572.8287,-3477.7491L13572.8042,-3477.7038L13572.7753,-3477.6579L13572.7283,-3477.6232L13572.6994,-3477.6096L13572.6834,-3477.6048L13572.6675,-3477.5946L13572.6574,-3477.5857L13572.6451,-3477.5815L13572.6256,-3477.5839L13572.609,-3477.5892L13572.5916,-3477.5976L13572.5771,-3477.5994L13572.5613,-3477.5976L13572.549,-3477.5928L13572.515,-3477.5797L13572.5,-3477.5714L13572.455,-3477.5463L13572.3942,-3477.5224L13572.3806,-3477.5165L13572.3427,-3477.5L13572.3107,-3477.4861L13572.2478,-3477.4634L13572.1987,-3477.4521L13572.1531,-3477.4437L13572.1346,-3477.4425L13572.1173,-3477.4413L13572.0717,-3477.4461L13572.0493,-3477.4515L13572.0233,-3477.4622L13572.0002,-3477.4807L13571.9808,-3477.5L13571.9734,-3477.5074L13571.9554,-3477.5254L13571.9395,-3477.5427L13571.9243,-3477.5684L13571.9131,-3477.5916L13571.9015,-3477.6048L13571.8769,-3477.6251L13571.8588,-3477.6406L13571.8393,-3477.668L13571.8212,-3477.6853L13571.7854,-3477.7121L13571.7464,-3477.7407L13571.7305,-3477.7551L13571.7189,-3477.7706L13571.7001,-3477.8004L13571.6893,-3477.8356L13571.6806,-3477.8636L13571.6667,-3477.8994L13571.6553,-3477.9287L13571.6416,-3477.9465L13571.6213,-3477.9596L13571.5873,-3477.9799L13571.5627,-3477.9936L13571.5469,-3477.999L13571.5281,-3478.0038L13571.5107,-3478.005L13571.4971,-3478.0032L13571.4839,-3478.0014L13571.4311,-3477.9924L13571.3957,-3477.9912L13571.3711,-3477.9942L13571.348,-3478.0026L13571.3191,-3478.0169L13571.288,-3478.0402L13571.2533,-3478.0742L13571.2454,-3478.0813L13571.2193,-3478.1046L13571.1969,-3478.1332L13571.2145,-3478.137L13571.2326,-3478.1453L13571.2398,-3478.1602L13571.2499,-3478.1966L13571.2666,-3478.2372L13571.2749,-3478.2521L13571.2879,-3478.2634L13571.3038,-3478.2718L13571.3053,-3478.2721L13571.3616,-3478.2831L13571.3869,-3478.2819L13571.4159,-3478.2802L13571.4376,-3478.2819L13571.4607,-3478.2861L13571.5178,-3478.3082L13571.533,-3478.3189L13571.5421,-3478.3333L13571.5428,-3478.3344L13571.5456,-3478.3583L13571.5413,-3478.3851L13571.542,-3478.3989L13571.5452,-3478.4083L13571.5572,-3478.4436L13571.5727,-3478.471L13571.614,-3478.5193L13571.64,-3478.5468L13571.6595,-3478.57L13571.6667,-3478.5877L13571.6711,-3478.5987L13571.6756,-3478.6221L13571.6762,-3478.6249L13571.6769,-3478.6506L13571.6765,-3478.6526L13571.6689,-3478.6887L13571.6667,-3478.6964L13571.6541,-3478.7388L13571.6454,-3478.7883L13571.6456,-3478.7912L13571.6469,-3478.8116L13571.6475,-3478.8142L13571.6534,-3478.8402L13571.6667,-3478.8803L13571.6678,-3478.8838L13571.6693,-3478.8909L13571.6667,-3478.8931L13571.6621,-3478.8969L13571.6281,-3478.9148L13571.597,-3478.9297L13571.5804,-3478.9351L13571.563,-3478.947L13571.542,-3478.972L13571.5218,-3478.984L13571.5023,-3478.9929L13571.4719,-3479.0001L13571.4603,-3479.0096L13571.4596,-3479.0197L13571.4623,-3479.0278L13571.4704,-3479.052L13571.4798,-3479.0907L13571.4936,-3479.1265L13571.4949,-3479.1667L13571.495,-3479.1701L13571.503,-3479.1939L13571.5066,-3479.2148L13571.5051,-3479.2363L13571.4943,-3479.2762L13571.4859,-3479.2874L13571.4762,-3479.3001L13571.4596,-3479.3317L13571.4561,-3479.3517L13571.456,-3479.3526L13571.4596,-3479.3663L13571.4596,-3479.3723L13571.4401,-3479.3752L13571.3894,-3479.383L13571.3526,-3479.3848L13571.3302,-3479.3901L13571.3053,-3479.4027L13571.2937,-3479.4182L13571.2908,-3479.4295L13571.2987,-3479.4629L13571.3016,-3479.4737L13571.2958,-3479.488L13571.2847,-3479.4992L13571.2828,-3479.5011L13571.272,-3479.5041L13571.2619,-3479.5017L13571.2496,-3479.4987L13571.2373,-3479.5005L13571.2131,-3479.5124L13571.2,-3479.5166L13571.1885,-3479.5154L13571.1812,-3479.5071L13571.1661,-3479.4898L13571.1509,-3479.4808L13571.1342,-3479.4796L13571.1227,-3479.485L13571.1133,-3479.4957L13571.0814,-3479.5101L13571.0092,-3479.5536L13570.9853,-3479.5667L13570.9679,-3479.5709L13570.9513,-3479.5703L13570.9354,-3479.5679L13570.9195,-3479.5637L13570.9057,-3479.5637L13570.8985,-3479.5738L13570.8985,-3479.5748L13570.8985,-3479.5864L13570.9072,-3479.6514L13570.9057,-3479.6687L13570.8956,-3479.686L13570.8949,-3479.7122L13570.892,-3479.7516L13570.8826,-3479.7814L13570.8703,-3479.7999L13570.8609,-3479.8077L13570.8333,-3479.8173L13570.8045,-3479.8273L13570.7807,-3479.8327L13570.764,-3479.8339L13570.7438,-3479.8333L13570.7221,-3479.8273L13570.6961,-3479.822L13570.6429,-3479.8133L13570.6375,-3479.8124L13570.6082,-3479.8088L13570.5945,-3479.8088L13570.577,-3479.8098L13570.5721,-3479.81L13570.5605,-3479.8172L13570.5453,-3479.8327L13570.5341,-3479.8392L13570.5258,-3479.8441L13570.4679,-3479.8643L13570.4463,-3479.8757L13570.4029,-3479.8917L13570.3364,-3479.9097L13570.3205,-3479.9139L13570.3143,-3479.9156L13570.3125,-3479.916Z"/>
<path content="大阪府,,,四條畷市,,27229" xlink:title="大阪府" d="M13570.3125,-3472.488L13570.3286,-3472.486L13570.3438,-3472.4843L13570.3623,-3472.4729L13570.3792,-3472.4531L13570.3936,-3472.4315L13570.4115,-3472.3991L13570.4136,-3472.3781L13570.4019,-3472.3617L13570.3654,-3472.3384L13570.3125,-3472.3147Z"/>
<path content="大阪府,,,交野市,,27230" xlink:title="大阪府" d="M13570.3125,-3479.916L13570.3143,-3479.9156L13570.3205,-3479.9139L13570.3364,-3479.9097L13570.4029,-3479.8917L13570.4463,-3479.8757L13570.4679,-3479.8643L13570.5258,-3479.8441L13570.5341,-3479.8392L13570.5453,-3479.8327L13570.5605,-3479.8172L13570.5721,-3479.81L13570.577,-3479.8098L13570.5945,-3479.8088L13570.6082,-3479.8088L13570.6375,-3479.8124L13570.6429,-3479.8133L13570.6961,-3479.822L13570.7221,-3479.8273L13570.7438,-3479.8333L13570.764,-3479.8339L13570.7807,-3479.8327L13570.8045,-3479.8273L13570.8333,-3479.8173L13570.8609,-3479.8077L13570.8703,-3479.7999L13570.8826,-3479.7814L13570.892,-3479.7516L13570.8949,-3479.7122L13570.8956,-3479.686L13570.9057,-3479.6687L13570.9072,-3479.6514L13570.8985,-3479.5864L13570.8985,-3479.5748L13570.8985,-3479.5738L13570.9057,-3479.5637L13570.9195,-3479.5637L13570.9354,-3479.5679L13570.9513,-3479.5703L13570.9679,-3479.5709L13570.9853,-3479.5667L13571.0092,-3479.5536L13571.0814,-3479.5101L13571.1133,-3479.4957L13571.1227,-3479.485L13571.1342,-3479.4796L13571.1509,-3479.4808L13571.1661,-3479.4898L13571.1812,-3479.5071L13571.1885,-3479.5154L13571.2,-3479.5166L13571.2131,-3479.5124L13571.2373,-3479.5005L13571.2496,-3479.4987L13571.2619,-3479.5017L13571.272,-3479.5041L13571.2828,-3479.5011L13571.2847,-3479.4992L13571.2958,-3479.488L13571.3016,-3479.4737L13571.2987,-3479.4629L13571.2908,-3479.4295L13571.2937,-3479.4182L13571.3053,-3479.4027L13571.3302,-3479.3901L13571.3526,-3479.3848L13571.3894,-3479.383L13571.4401,-3479.3752L13571.4596,-3479.3723L13571.4596,-3479.3663L13571.456,-3479.3526L13571.4561,-3479.3517L13571.4596,-3479.3317L13571.4762,-3479.3001L13571.4859,-3479.2874L13571.4943,-3479.2762L13571.5051,-3479.2363L13571.5066,-3479.2148L13571.503,-3479.1939L13571.495,-3479.1701L13571.4949,-3479.1667L13571.4936,-3479.1265L13571.4798,-3479.0907L13571.4704,-3479.052L13571.4623,-3479.0278L13571.4596,-3479.0197L13571.4603,-3479.0096L13571.4719,-3479.0001L13571.5023,-3478.9929L13571.5218,-3478.984L13571.542,-3478.972L13571.563,-3478.947L13571.5804,-3478.9351L13571.597,-3478.9297L13571.6281,-3478.9148L13571.6621,-3478.8969L13571.6667,-3478.8931L13571.6693,-3478.8909L13571.6678,-3478.8838L13571.6667,-3478.8803L13571.6534,-3478.8402L13571.6475,-3478.8142L13571.6469,-3478.8116L13571.6456,-3478.7912L13571.6454,-3478.7883L13571.6541,-3478.7388L13571.6667,-3478.6964L13571.6689,-3478.6887L13571.6765,-3478.6526L13571.6769,-3478.6506L13571.6762,-3478.6249L13571.6756,-3478.6221L13571.6711,-3478.5987L13571.6667,-3478.5877L13571.6595,-3478.57L13571.64,-3478.5468L13571.614,-3478.5193L13571.5727,-3478.471L13571.5572,-3478.4436L13571.5452,-3478.4083L13571.542,-3478.3989L13571.5413,-3478.3851L13571.5456,-3478.3583L13571.5428,-3478.3344L13571.5421,-3478.3333L13571.533,-3478.3189L13571.5178,-3478.3082L13571.4607,-3478.2861L13571.4376,-3478.2819L13571.4159,-3478.2802L13571.3869,-3478.2819L13571.3616,-3478.2831L13571.3053,-3478.2721L13571.3038,-3478.2718L13571.2879,-3478.2634L13571.2749,-3478.2521L13571.2666,-3478.2372L13571.2499,-3478.1966L13571.2398,-3478.1602L13571.2326,-3478.1453L13571.2145,-3478.137L13571.1969,-3478.1332L13571.1911,-3478.1356L13571.1696,-3478.1341L13571.1651,-3478.1338L13571.1369,-3478.1272L13571.126,-3478.1219L13571.1223,-3478.1186L13571.1124,-3478.11L13571.1123,-3478.11L13571.1029,-3478.0951L13571.0935,-3478.0742L13571.0797,-3478.0551L13571.0704,-3478.0509L13571.0364,-3478.0539L13571.0125,-3478.0551L13570.9974,-3478.0533L13570.9843,-3478.0467L13570.9749,-3478.0372L13570.9641,-3478.0169L13570.9634,-3477.999L13570.967,-3477.9835L13570.98,-3477.962L13570.9944,-3477.94L13570.9988,-3477.9244L13571.001,-3477.894L13570.9923,-3477.8404L13570.9873,-3477.8153L13570.9814,-3477.7855L13570.9806,-3477.7771L13570.9793,-3477.7634L13570.979,-3477.7545L13570.9786,-3477.7431L13570.9597,-3477.6984L13570.9508,-3477.6815L13570.9026,-3477.5904L13570.8874,-3477.5642L13570.8831,-3477.5457L13570.8737,-3477.5374L13570.8603,-3477.5278L13570.8333,-3477.5087L13570.821,-3477.5L13570.8148,-3477.4956L13570.8047,-3477.4861L13570.7917,-3477.4676L13570.7833,-3477.4544L13570.7736,-3477.4389L13570.7687,-3477.4292L13570.7673,-3477.4266L13570.7519,-3477.396L13570.7208,-3477.3304L13570.7049,-3477.3L13570.6904,-3477.2857L13570.6687,-3477.2684L13570.6615,-3477.2564L13570.6593,-3477.2451L13570.6615,-3477.2337L13570.6911,-3477.1866L13570.7136,-3477.1604L13570.7259,-3477.1556L13570.7381,-3477.1574L13570.7584,-3477.1622L13570.7815,-3477.1711L13570.8148,-3477.192L13570.8333,-3477.1994L13570.8416,-3477.2027L13570.8474,-3477.2035L13570.8553,-3477.2045L13570.8705,-3477.2033L13570.8958,-3477.198L13570.9796,-3477.1693L13570.9963,-3477.1616L13571.0042,-3477.1514L13571.0064,-3477.1371L13571.0028,-3477.1246L13570.9919,-3477.1061L13570.9384,-3477.056L13570.9204,-3477.0351L13570.9081,-3477.0149L13570.8705,-3476.9135L13570.8625,-3476.8967L13570.8575,-3476.8759L13570.8575,-3476.8574L13570.859,-3476.8468L13570.8618,-3476.8276L13570.8669,-3476.8055L13570.8683,-3476.7745L13570.8661,-3476.7357L13570.8604,-3476.7119L13570.8518,-3476.6946L13570.8495,-3476.6898L13570.8445,-3476.6667L13570.8444,-3476.6665L13570.843,-3476.6385L13570.8459,-3476.6134L13570.8582,-3476.5848L13570.8777,-3476.5448L13570.8936,-3476.5007L13570.8972,-3476.4751L13570.8994,-3476.4375L13570.8943,-3476.3516L13570.8842,-3476.2561L13570.8821,-3476.2264L13570.8835,-3476.2096L13570.8839,-3476.2083L13570.8864,-3476.1989L13570.8879,-3476.1936L13570.8958,-3476.1751L13570.9059,-3476.1619L13570.9413,-3476.1309L13570.9804,-3476.1023L13571.0173,-3476.0796L13571.0194,-3476.0712L13570.9891,-3476.0372L13570.9709,-3476.0123L13570.9544,-3475.9895L13570.8944,-3475.9078L13570.8886,-3475.8971L13570.8907,-3475.8864L13570.903,-3475.8643L13570.9281,-3475.8333L13570.9392,-3475.8196L13570.9421,-3475.816L13570.9645,-3475.7844L13570.9717,-3475.7659L13570.9775,-3475.748L13570.9862,-3475.6907L13570.9949,-3475.6615L13571.0064,-3475.6347L13571.0195,-3475.5905L13571.0253,-3475.5261L13571.0281,-3475.4766L13571.0296,-3475.4289L13571.0216,-3475.3871L13571.0101,-3475.3555L13571.0014,-3475.3394L13571.0008,-3475.3387L13570.9905,-3475.3251L13570.9847,-3475.313L13570.9662,-3475.3028L13570.9469,-3475.2926L13570.9208,-3475.2824L13570.8899,-3475.2772L13570.8768,-3475.2733L13570.8497,-3475.2593L13570.8493,-3475.2591L13570.8333,-3475.2475L13570.8273,-3475.2432L13570.8115,-3475.2267L13570.7978,-3475.2097L13570.7782,-3475.1614L13570.7686,-3475.1325L13570.7555,-3475.1018L13570.7479,-3475.0916L13570.7377,-3475.0852L13570.7307,-3475.0808L13570.7211,-3475.0757L13570.7197,-3475.0638L13570.7149,-3475.0399L13570.7071,-3475L13570.7036,-3474.9821L13570.6981,-3474.9338L13570.6967,-3474.9116L13570.6864,-3474.8765L13570.6802,-3474.8646L13570.6658,-3474.8549L13570.6356,-3474.8464L13570.6136,-3474.839L13570.5857,-3474.839L13570.5561,-3474.8436L13570.5218,-3474.8464L13570.4846,-3474.86L13570.4716,-3474.8713L13570.4276,-3474.9134L13570.3678,-3474.9701L13570.3437,-3474.9866L13570.3221,-3475L13570.3125,-3475.0059Z"/>
</g>
</svg>
