<?xml version="1.0" encoding="UTF-8"?>
<svg  xmlns="http://www.w3.org/2000/svg" xmlns:xlink="http://www.w3.org/1999/xlink" xmlns:go="http://purl.org/svgmap/profile" property="geometry,N03_001,N03_002,N03_003,N03_004,N03_005,N03_007" viewBox="13467.041015625 -3568.359375 2.197265625 2.197265625" go:dataArea="13467.041015625 -3568.359375 2.197265625 2.197265625" >
<metadata>
 <rdf:RDF xmlns:rdf="http://www.w3.org/1999/02/22-rdf-syntax-ns#" xmlns:crs="http://opengis.org/xmldtds/transformations.dtd" xmlns:svg="http://www.w3.org/svg" >
  <rdf:Description>
   <crs:CoordinateReferenceSystem rdf:resource="http://purl.org/crs/84" svg:transform="matrix(100.0,0.0,0.0,-100.0,0.0,0.0)" />
  </rdf:Description>
 </rdf:RDF>
</metadata>
<globalCoordinateSystem srsName="http://purl.org/crs/84" transform="matrix(100.0,0.0,0.0,-100.0,0.0,0.0)" />
<defs>
 <g id="p0" >
  <circle cx="0.0" cy="0.0" r="3" stroke="green" stroke-width="2.0" vector-effect="non-scaling-stroke" />
 </g>
</defs>
<g fill="#0000ff" fill-rule="evenodd" opacity="0.5" >
<path content="兵庫県,,美方郡,香美町,,28585" xlink:title="兵庫県" d="M13469.2383,-3566.1621L13468.7235,-3566.1621L13468.7235,-3566.1622L13468.7241,-3566.1626L13468.7239,-3566.1637L13468.7239,-3566.1651L13468.7237,-3566.1657L13468.7241,-3566.1665L13468.7246,-3566.1673L13468.7242,-3566.1682L13468.7238,-3566.17L13468.7235,-3566.1716L13468.7231,-3566.1735L13468.7228,-3566.1742L13468.7229,-3566.1749L13468.7217,-3566.1758L13468.7214,-3566.1768L13468.7213,-3566.1789L13468.7205,-3566.1793L13468.7198,-3566.1801L13468.7194,-3566.1812L13468.7193,-3566.1831L13468.719,-3566.1834L13468.7178,-3566.1835L13468.7169,-3566.184L13468.7158,-3566.1846L13468.7153,-3566.1855L13468.7154,-3566.1864L13468.7154,-3566.1866L13468.7158,-3566.1879L13468.7143,-3566.1886L13468.7134,-3566.1894L13468.7129,-3566.1902L13468.7129,-3566.1908L13468.7129,-3566.1912L13468.7116,-3566.1924L13468.7105,-3566.1939L13468.7097,-3566.1946L13468.709,-3566.1949L13468.7086,-3566.1954L13468.7083,-3566.1963L13468.7085,-3566.1976L13468.7076,-3566.198L13468.7058,-3566.198L13468.7038,-3566.1985L13468.7025,-3566.1988L13468.7018,-3566.1993L13468.7016,-3566.2001L13468.7015,-3566.2018L13468.701,-3566.202L13468.7,-3566.2027L13468.6999,-3566.2034L13468.7003,-3566.2048L13468.7002,-3566.2078L13468.7006,-3566.2083L13468.7011,-3566.2087L13468.7006,-3566.2092L13468.7,-3566.2097L13468.7,-3566.2104L13468.7003,-3566.211L13468.6998,-3566.2115L13468.6993,-3566.2124L13468.699,-3566.2127L13468.6994,-3566.2144L13468.6982,-3566.2148L13468.6975,-3566.2157L13468.6972,-3566.2167L13468.6968,-3566.2176L13468.6968,-3566.2185L13468.6966,-3566.219L13468.6945,-3566.2195L13468.6923,-3566.2211L13468.6901,-3566.2219L13468.6895,-3566.2226L13468.6889,-3566.2238L13468.6883,-3566.2249L13468.6883,-3566.2258L13468.6884,-3566.2264L13468.6874,-3566.227L13468.6869,-3566.2279L13468.6864,-3566.2297L13468.6861,-3566.2305L13468.6863,-3566.2315L13468.6858,-3566.232L13468.6848,-3566.2327L13468.684,-3566.2336L13468.6834,-3566.2346L13468.683,-3566.2356L13468.682,-3566.2356L13468.681,-3566.236L13468.6798,-3566.237L13468.6795,-3566.2379L13468.6795,-3566.239L13468.68,-3566.24L13468.6795,-3566.2406L13468.6792,-3566.2422L13468.6788,-3566.2429L13468.6784,-3566.2436L13468.6784,-3566.2447L13468.6784,-3566.2454L13468.6777,-3566.2456L13468.6768,-3566.246L13468.6765,-3566.2467L13468.6761,-3566.2483L13468.6759,-3566.2492L13468.6762,-3566.2501L13468.6762,-3566.2505L13468.6753,-3566.2511L13468.6744,-3566.2519L13468.6742,-3566.2532L13468.6742,-3566.2542L13468.6746,-3566.255L13468.6737,-3566.2554L13468.6731,-3566.2562L13468.6727,-3566.257L13468.6727,-3566.2597L13468.6731,-3566.2601L13468.6742,-3566.2605L13468.6737,-3566.2612L13468.6734,-3566.2619L13468.6733,-3566.2628L13468.6734,-3566.2638L13468.6745,-3566.2646L13468.6738,-3566.2656L13468.6733,-3566.2669L13468.6736,-3566.2684L13468.6742,-3566.269L13468.6746,-3566.2699L13468.674,-3566.2708L13468.6736,-3566.2724L13468.6738,-3566.2732L13468.6745,-3566.2737L13468.6744,-3566.2755L13468.6749,-3566.2767L13468.6753,-3566.2776L13468.676,-3566.2778L13468.6771,-3566.278L13468.6781,-3566.2789L13468.6798,-3566.2794L13468.6809,-3566.2791L13468.6814,-3566.2784L13468.6817,-3566.2775L13468.682,-3566.2771L13468.6834,-3566.2773L13468.6843,-3566.2773L13468.6849,-3566.2772L13468.6861,-3566.2765L13468.6868,-3566.2756L13468.6869,-3566.2742L13468.6883,-3566.2741L13468.6906,-3566.2741L13468.6919,-3566.2734L13468.6922,-3566.2718L13468.6928,-3566.2711L13468.6935,-3566.2711L13468.6952,-3566.2715L13468.6963,-3566.2716L13468.697,-3566.2709L13468.6982,-3566.2698L13468.6992,-3566.27L13468.6998,-3566.2704L13468.7006,-3566.2716L13468.7013,-3566.2722L13468.7024,-3566.2722L13468.7034,-3566.2723L13468.7037,-3566.273L13468.7042,-3566.2743L13468.7055,-3566.2752L13468.7065,-3566.2752L13468.7073,-3566.2768L13468.7082,-3566.2785L13468.7095,-3566.2791L13468.7099,-3566.28L13468.7119,-3566.281L13468.7128,-3566.2811L13468.7139,-3566.2811L13468.7147,-3566.2809L13468.7157,-3566.2815L13468.7162,-3566.2823L13468.7171,-3566.2827L13468.7184,-3566.2829L13468.7196,-3566.2825L13468.7198,-3566.2831L13468.7219,-3566.2841L13468.7229,-3566.2845L13468.7245,-3566.2847L13468.7248,-3566.2855L13468.725,-3566.2859L13468.7258,-3566.2863L13468.727,-3566.2878L13468.7287,-3566.2887L13468.7295,-3566.2889L13468.7298,-3566.2904L13468.7309,-3566.2918L13468.7321,-3566.2926L13468.7328,-3566.2925L13468.7328,-3566.2931L13468.7334,-3566.2937L13468.7341,-3566.2944L13468.7346,-3566.2951L13468.7364,-3566.2962L13468.7364,-3566.297L13468.7364,-3566.2975L13468.7367,-3566.299L13468.737,-3566.2996L13468.7363,-3566.3001L13468.7357,-3566.3007L13468.735,-3566.3016L13468.7348,-3566.3026L13468.7344,-3566.304L13468.7335,-3566.3044L13468.7331,-3566.3053L13468.7331,-3566.3067L13468.7333,-3566.308L13468.7338,-3566.3086L13468.7362,-3566.3083L13468.7366,-3566.309L13468.7378,-3566.3095L13468.7393,-3566.3108L13468.7404,-3566.311L13468.7423,-3566.3106L13468.7428,-3566.311L13468.7444,-3566.3131L13468.7455,-3566.3136L13468.7466,-3566.3136L13468.746,-3566.3151L13468.746,-3566.3156L13468.747,-3566.3165L13468.7471,-3566.3176L13468.7478,-3566.3185L13468.7465,-3566.3204L13468.746,-3566.3214L13468.7468,-3566.3225L13468.7473,-3566.3233L13468.7481,-3566.3235L13468.7469,-3566.325L13468.7466,-3566.3266L13468.7452,-3566.3271L13468.7443,-3566.3278L13468.7431,-3566.3295L13468.7423,-3566.3293L13468.7412,-3566.3296L13468.7398,-3566.3306L13468.7386,-3566.3316L13468.7382,-3566.3322L13468.7363,-3566.3316L13468.7353,-3566.3317L13468.7346,-3566.332L13468.7337,-3566.3329L13468.7332,-3566.3344L13468.7335,-3566.3355L13468.7341,-3566.3358L13468.7344,-3566.3367L13468.7347,-3566.337L13468.7353,-3566.3372L13468.7363,-3566.3382L13468.7371,-3566.339L13468.7379,-3566.3391L13468.739,-3566.3385L13468.7401,-3566.3388L13468.7419,-3566.3395L13468.7432,-3566.3391L13468.7444,-3566.3384L13468.7454,-3566.3374L13468.7469,-3566.3376L13468.7477,-3566.3369L13468.7483,-3566.3363L13468.7494,-3566.3361L13468.7523,-3566.3337L13468.7524,-3566.3327L13468.753,-3566.3324L13468.754,-3566.3324L13468.7548,-3566.3319L13468.7556,-3566.3316L13468.7572,-3566.3311L13468.7578,-3566.3321L13468.7586,-3566.3329L13468.7596,-3566.3335L13468.7615,-3566.3337L13468.7616,-3566.3353L13468.7621,-3566.3366L13468.7627,-3566.3373L13468.7612,-3566.3394L13468.7604,-3566.3413L13468.7606,-3566.3427L13468.7603,-3566.3439L13468.7613,-3566.346L13468.7623,-3566.3472L13468.7634,-3566.3475L13468.7636,-3566.3481L13468.7636,-3566.3493L13468.7641,-3566.3506L13468.7655,-3566.3523L13468.7662,-3566.3524L13468.7662,-3566.3542L13468.7671,-3566.3547L13468.7672,-3566.3556L13468.7677,-3566.3562L13468.7687,-3566.3565L13468.7686,-3566.3578L13468.7695,-3566.3588L13468.7706,-3566.3603L13468.7712,-3566.3609L13468.771,-3566.3622L13468.7725,-3566.3639L13468.7731,-3566.3652L13468.7745,-3566.3666L13468.7771,-3566.3685L13468.7789,-3566.3686L13468.7799,-3566.3683L13468.7822,-3566.3694L13468.7836,-3566.3699L13468.785,-3566.369L13468.7858,-3566.3693L13468.7893,-3566.3698L13468.7902,-3566.3704L13468.7901,-3566.3711L13468.7914,-3566.3721L13468.7897,-3566.3725L13468.789,-3566.3733L13468.7885,-3566.3744L13468.7886,-3566.3753L13468.789,-3566.3761L13468.7887,-3566.3766L13468.7875,-3566.3765L13468.7861,-3566.377L13468.7844,-3566.3796L13468.7825,-3566.3802L13468.7812,-3566.3817L13468.7802,-3566.3838L13468.7791,-3566.3835L13468.7777,-3566.3847L13468.7765,-3566.3864L13468.7764,-3566.3876L13468.7752,-3566.3883L13468.7725,-3566.3914L13468.7716,-3566.3924L13468.7717,-3566.3939L13468.7707,-3566.3949L13468.7706,-3566.396L13468.7708,-3566.3974L13468.7718,-3566.3987L13468.7722,-3566.3996L13468.7732,-3566.3999L13468.7747,-3566.4L13468.7753,-3566.4007L13468.7781,-3566.4022L13468.7793,-3566.4023L13468.7802,-3566.402L13468.7805,-3566.4033L13468.7809,-3566.4049L13468.7818,-3566.4055L13468.7814,-3566.4069L13468.7818,-3566.4081L13468.7817,-3566.4099L13468.783,-3566.411L13468.7822,-3566.4124L13468.7832,-3566.4138L13468.7833,-3566.4161L13468.7843,-3566.4178L13468.7832,-3566.4187L13468.7825,-3566.4201L13468.783,-3566.4216L13468.784,-3566.4225L13468.7833,-3566.4234L13468.7835,-3566.4245L13468.7836,-3566.4258L13468.7841,-3566.4273L13468.7854,-3566.4287L13468.7845,-3566.4297L13468.7837,-3566.4309L13468.7841,-3566.433L13468.7855,-3566.4336L13468.785,-3566.4344L13468.7851,-3566.4353L13468.7857,-3566.4358L13468.7866,-3566.4359L13468.7875,-3566.4382L13468.7884,-3566.4384L13468.7904,-3566.439L13468.7907,-3566.4403L13468.7919,-3566.4422L13468.7934,-3566.4429L13468.7931,-3566.4438L13468.7918,-3566.4457L13468.7915,-3566.4473L13468.79,-3566.4474L13468.7887,-3566.4481L13468.7878,-3566.4488L13468.7869,-3566.4497L13468.7849,-3566.4499L13468.7838,-3566.4506L13468.7824,-3566.4522L13468.7825,-3566.4543L13468.7825,-3566.4547L13468.7811,-3566.4557L13468.7806,-3566.4566L13468.7804,-3566.4569L13468.7801,-3566.4579L13468.7782,-3566.4577L13468.7771,-3566.4576L13468.7762,-3566.4585L13468.775,-3566.4598L13468.7747,-3566.4613L13468.774,-3566.4621L13468.7726,-3566.4632L13468.7715,-3566.4642L13468.7702,-3566.4662L13468.7704,-3566.4673L13468.7714,-3566.4681L13468.7723,-3566.4687L13468.7727,-3566.4698L13468.7734,-3566.4704L13468.774,-3566.4714L13468.7744,-3566.4726L13468.7765,-3566.4733L13468.7787,-3566.4735L13468.7783,-3566.4738L13468.778,-3566.4744L13468.7785,-3566.4757L13468.7794,-3566.4765L13468.779,-3566.4778L13468.7792,-3566.479L13468.7785,-3566.4801L13468.7787,-3566.4813L13468.7763,-3566.4822L13468.7749,-3566.4829L13468.7727,-3566.4838L13468.7715,-3566.4838L13468.771,-3566.4841L13468.7704,-3566.4845L13468.7686,-3566.4857L13468.7675,-3566.487L13468.7665,-3566.4876L13468.7652,-3566.488L13468.7645,-3566.489L13468.7643,-3566.4912L13468.7647,-3566.4923L13468.7647,-3566.493L13468.7639,-3566.4939L13468.7635,-3566.495L13468.7638,-3566.4962L13468.7649,-3566.4983L13468.7663,-3566.4985L13468.7674,-3566.4983L13468.7697,-3566.4989L13468.77,-3566.4999L13468.7711,-3566.5006L13468.7723,-3566.501L13468.7737,-3566.5009L13468.7748,-3566.5012L13468.7757,-3566.502L13468.7781,-3566.5029L13468.7806,-3566.5026L13468.782,-3566.503L13468.7832,-3566.5036L13468.7846,-3566.5039L13468.786,-3566.5036L13468.7869,-3566.5027L13468.788,-3566.5021L13468.7907,-3566.502L13468.7918,-3566.5021L13468.793,-3566.5015L13468.7936,-3566.5008L13468.7954,-3566.5006L13468.7965,-3566.5001L13468.7977,-3566.4998L13468.7989,-3566.4989L13468.8003,-3566.4988L13468.8031,-3566.4994L13468.8044,-3566.4992L13468.8056,-3566.4986L13468.8094,-3566.4998L13468.8112,-3566.4998L13468.8138,-3566.5001L13468.8142,-3566.5003L13468.8153,-3566.5013L13468.8166,-3566.5015L13468.8193,-3566.5007L13468.82,-3566.5016L13468.8212,-3566.5025L13468.8226,-3566.503L13468.8241,-3566.5034L13468.8261,-3566.5035L13468.8274,-3566.505L13468.8303,-3566.5065L13468.8285,-3566.5086L13468.828,-3566.5101L13468.8277,-3566.5108L13468.8261,-3566.5109L13468.8251,-3566.5119L13468.8236,-3566.514L13468.8225,-3566.5138L13468.8208,-3566.5132L13468.8191,-3566.5137L13468.8178,-3566.5148L13468.8173,-3566.5167L13468.8153,-3566.5164L13468.8138,-3566.5167L13468.8129,-3566.5174L13468.8124,-3566.5189L13468.8119,-3566.5206L13468.8122,-3566.5209L13468.8135,-3566.5216L13468.8125,-3566.5223L13468.8118,-3566.5243L13468.8118,-3566.5254L13468.8126,-3566.5264L13468.8137,-3566.5279L13468.815,-3566.5283L13468.8149,-3566.5292L13468.8153,-3566.53L13468.8158,-3566.5317L13468.8167,-3566.5328L13468.8181,-3566.5337L13468.8177,-3566.5353L13468.8179,-3566.5374L13468.8183,-3566.5387L13468.8196,-3566.5402L13468.8201,-3566.5405L13468.8198,-3566.5414L13468.8206,-3566.5424L13468.8216,-3566.5429L13468.8215,-3566.5442L13468.8231,-3566.5445L13468.8243,-3566.5448L13468.826,-3566.5456L13468.8278,-3566.545L13468.8307,-3566.5442L13468.8323,-3566.5432L13468.8351,-3566.5435L13468.8373,-3566.5433L13468.8377,-3566.5426L13468.8395,-3566.5425L13468.8407,-3566.5431L13468.8421,-3566.543L13468.8434,-3566.5422L13468.8447,-3566.5415L13468.8468,-3566.5416L13468.8482,-3566.5414L13468.8488,-3566.5412L13468.8511,-3566.5393L13468.8546,-3566.5394L13468.8556,-3566.5387L13468.8573,-3566.5369L13468.8579,-3566.5354L13468.8592,-3566.5356L13468.8609,-3566.5356L13468.8635,-3566.5335L13468.8642,-3566.5328L13468.8665,-3566.5316L13468.8678,-3566.5308L13468.8687,-3566.5283L13468.8713,-3566.5284L13468.8724,-3566.5283L13468.8738,-3566.5273L13468.8748,-3566.5257L13468.875,-3566.5241L13468.8766,-3566.5238L13468.8782,-3566.5225L13468.8794,-3566.5209L13468.8795,-3566.5201L13468.8811,-3566.5177L13468.8806,-3566.5166L13468.8795,-3566.5154L13468.8805,-3566.515L13468.8819,-3566.5136L13468.8827,-3566.5115L13468.883,-3566.5106L13468.8843,-3566.5101L13468.8852,-3566.5092L13468.8863,-3566.5075L13468.8865,-3566.5057L13468.8876,-3566.5057L13468.8891,-3566.5049L13468.8908,-3566.5033L13468.8911,-3566.5014L13468.8923,-3566.5012L13468.8944,-3566.5007L13468.8973,-3566.4992L13468.898,-3566.4996L13468.8994,-3566.5003L13468.901,-3566.5003L13468.9027,-3566.4995L13468.9036,-3566.4989L13468.9041,-3566.4995L13468.9051,-3566.5008L13468.9071,-3566.5009L13468.9078,-3566.5012L13468.9103,-3566.5013L13468.9116,-3566.5009L13468.9122,-3566.4994L13468.9131,-3566.4999L13468.9142,-3566.4998L13468.9158,-3566.4994L13468.9178,-3566.4977L13468.9181,-3566.4965L13468.9174,-3566.4955L13468.9188,-3566.4949L13468.9189,-3566.4921L13468.9176,-3566.4903L13468.9185,-3566.4894L13468.9187,-3566.488L13468.9178,-3566.4866L13468.9183,-3566.4854L13468.9161,-3566.4842L13468.9172,-3566.4828L13468.9172,-3566.4813L13468.9169,-3566.4794L13468.916,-3566.4789L13468.9151,-3566.4786L13468.9156,-3566.4775L13468.9155,-3566.476L13468.9149,-3566.4749L13468.9148,-3566.4738L13468.913,-3566.4731L13468.9137,-3566.4722L13468.9139,-3566.4708L13468.914,-3566.4684L13468.9149,-3566.4679L13468.9162,-3566.4664L13468.918,-3566.4649L13468.9182,-3566.4636L13468.9201,-3566.4629L13468.9217,-3566.4619L13468.9225,-3566.4606L13468.9223,-3566.4601L13468.9231,-3566.4602L13468.9275,-3566.4583L13468.9282,-3566.4573L13468.9305,-3566.4578L13468.9325,-3566.457L13468.9333,-3566.4561L13468.9343,-3566.4551L13468.936,-3566.4557L13468.9374,-3566.4554L13468.9394,-3566.4544L13468.9411,-3566.4547L13468.9427,-3566.4542L13468.946,-3566.4522L13468.9469,-3566.4535L13468.9492,-3566.4538L13468.95,-3566.4534L13468.9511,-3566.4521L13468.9522,-3566.4512L13468.9536,-3566.4517L13468.9557,-3566.4512L13468.9575,-3566.4505L13468.9589,-3566.4493L13468.9606,-3566.4496L13468.9623,-3566.4492L13468.965,-3566.4475L13468.9669,-3566.4476L13468.9685,-3566.4475L13468.9704,-3566.4463L13468.9719,-3566.4452L13468.9722,-3566.4457L13468.9733,-3566.4459L13468.9752,-3566.4469L13468.9758,-3566.447L13468.9766,-3566.4469L13468.9774,-3566.4467L13468.9783,-3566.446L13468.9811,-3566.4469L13468.9831,-3566.4472L13468.9869,-3566.4489L13468.9882,-3566.4489L13468.9892,-3566.4482L13468.9915,-3566.4491L13468.9934,-3566.4499L13468.9941,-3566.4494L13468.9969,-3566.4514L13468.9988,-3566.4516L13468.9993,-3566.4515L13468.9997,-3566.451L13469.0004,-3566.4512L13469.0015,-3566.4526L13469.0029,-3566.453L13469.0043,-3566.453L13469.0056,-3566.4522L13469.0057,-3566.4532L13469.0065,-3566.4541L13469.0089,-3566.4559L13469.009,-3566.456L13469.0105,-3566.4561L13469.0109,-3566.4559L13469.0125,-3566.4553L13469.0133,-3566.4559L13469.0145,-3566.4567L13469.015,-3566.4574L13469.018,-3566.4578L13469.019,-3566.4574L13469.0205,-3566.4573L13469.0218,-3566.4578L13469.0234,-3566.4581L13469.0243,-3566.458L13469.025,-3566.4575L13469.0254,-3566.4566L13469.027,-3566.4572L13469.0283,-3566.4573L13469.0309,-3566.4572L13469.032,-3566.4565L13469.0322,-3566.4558L13469.0324,-3566.4553L13469.0332,-3566.4553L13469.0348,-3566.4558L13469.0364,-3566.4562L13469.0382,-3566.4566L13469.039,-3566.458L13469.0393,-3566.4598L13469.0414,-3566.4602L13469.0441,-3566.462L13469.0457,-3566.4623L13469.0469,-3566.4621L13469.049,-3566.4618L13469.0531,-3566.464L13469.0548,-3566.4639L13469.0564,-3566.4647L13469.0572,-3566.4659L13469.058,-3566.4667L13469.0574,-3566.4674L13469.0571,-3566.4688L13469.0577,-3566.4701L13469.0592,-3566.4707L13469.0603,-3566.471L13469.0609,-3566.4723L13469.0621,-3566.4728L13469.063,-3566.4738L13469.0648,-3566.475L13469.0678,-3566.4766L13469.0694,-3566.4768L13469.0719,-3566.4769L13469.0749,-3566.4775L13469.0756,-3566.4767L13469.0783,-3566.4768L13469.0793,-3566.4756L13469.0817,-3566.4756L13469.0831,-3566.4754L13469.0843,-3566.4748L13469.0846,-3566.474L13469.0849,-3566.4735L13469.0857,-3566.474L13469.0877,-3566.4735L13469.0891,-3566.473L13469.0901,-3566.4728L13469.091,-3566.4734L13469.0916,-3566.4735L13469.0956,-3566.4733L13469.0968,-3566.4739L13469.0996,-3566.4738L13469.1015,-3566.4735L13469.102,-3566.4728L13469.103,-3566.4735L13469.105,-3566.4737L13469.1066,-3566.4736L13469.1071,-3566.4727L13469.1087,-3566.4736L13469.1122,-3566.4737L13469.1138,-3566.4727L13469.1154,-3566.4732L13469.118,-3566.4731L13469.1196,-3566.4729L13469.1212,-3566.4728L13469.1229,-3566.4728L13469.1251,-3566.472L13469.1259,-3566.471L13469.1259,-3566.4698L13469.1275,-3566.4689L13469.1278,-3566.4683L13469.1281,-3566.4677L13469.1278,-3566.4666L13469.1293,-3566.4657L13469.13,-3566.4653L13469.1302,-3566.4648L13469.1313,-3566.4648L13469.1327,-3566.4654L13469.1333,-3566.4664L13469.1344,-3566.4666L13469.1357,-3566.467L13469.1366,-3566.4677L13469.1388,-3566.4696L13469.141,-3566.4699L13469.1416,-3566.4705L13469.1431,-3566.4713L13469.1447,-3566.4723L13469.1468,-3566.4729L13469.1495,-3566.4745L13469.1508,-3566.4746L13469.1518,-3566.4745L13469.1524,-3566.4751L13469.1542,-3566.476L13469.1554,-3566.4762L13469.1571,-3566.4752L13469.1576,-3566.4751L13469.1589,-3566.4747L13469.1603,-3566.4734L13469.1618,-3566.475L13469.1632,-3566.4757L13469.1641,-3566.4759L13469.1653,-3566.4757L13469.1667,-3566.4754L13469.167,-3566.4754L13469.1692,-3566.4762L13469.1703,-3566.4768L13469.1709,-3566.4779L13469.1718,-3566.4782L13469.172,-3566.4787L13469.1727,-3566.4796L13469.1736,-3566.4802L13469.1738,-3566.4812L13469.1752,-3566.4827L13469.1774,-3566.4836L13469.1771,-3566.4854L13469.1788,-3566.4873L13469.1807,-3566.4873L13469.1826,-3566.4884L13469.1846,-3566.4887L13469.1856,-3566.4882L13469.1866,-3566.489L13469.1886,-3566.4895L13469.1908,-3566.4896L13469.194,-3566.4896L13469.1951,-3566.4908L13469.1962,-3566.4916L13469.1975,-3566.4919L13469.199,-3566.4917L13469.2003,-3566.4909L13469.2018,-3566.4923L13469.2038,-3566.4926L13469.2054,-3566.4925L13469.2067,-3566.4933L13469.2089,-3566.4934L13469.2109,-3566.4925L13469.2116,-3566.4925L13469.2121,-3566.4936L13469.2129,-3566.495L13469.212,-3566.4957L13469.2121,-3566.498L13469.2129,-3566.4996L13469.2131,-3566.5006L13469.2133,-3566.502L13469.2143,-3566.5029L13469.215,-3566.5047L13469.215,-3566.5064L13469.2164,-3566.5071L13469.218,-3566.507L13469.2193,-3566.5076L13469.2206,-3566.5078L13469.2227,-3566.5073L13469.224,-3566.5062L13469.2255,-3566.5067L13469.2276,-3566.5062L13469.2292,-3566.5054L13469.2296,-3566.5046L13469.2289,-3566.5035L13469.2293,-3566.5031L13469.23,-3566.5021L13469.2302,-3566.5011L13469.2302,-3566.4996L13469.2292,-3566.499L13469.2305,-3566.4975L13469.2305,-3566.4954L13469.2297,-3566.4944L13469.2319,-3566.4933L13469.2331,-3566.4921L13469.2332,-3566.4904L13469.2364,-3566.4904L13469.2371,-3566.4901L13469.2377,-3566.4892L13469.2383,-3566.4896Z"/>
<path content="兵庫県,,美方郡,香美町,,28585" xlink:title="兵庫県" d="M13467.2384,-3566.6076L13467.2395,-3566.6065L13467.2411,-3566.6065L13467.2432,-3566.608L13467.2464,-3566.6099L13467.2478,-3566.6107L13467.2493,-3566.6109L13467.2507,-3566.6112L13467.2524,-3566.6122L13467.2556,-3566.6144L13467.2585,-3566.6154L13467.2602,-3566.6147L13467.2613,-3566.6138L13467.2626,-3566.6114L13467.265,-3566.6047L13467.2672,-3566.6009L13467.2691,-3566.5979L13467.2704,-3566.5936L13467.2708,-3566.59L13467.2699,-3566.5869L13467.2662,-3566.5815L13467.2661,-3566.5788L13467.2671,-3566.5753L13467.2677,-3566.5724L13467.2662,-3566.5699L13467.2628,-3566.5667L13467.259,-3566.5631L13467.2576,-3566.5597L13467.2575,-3566.5573L13467.2582,-3566.5554L13467.2598,-3566.5547L13467.2624,-3566.5532L13467.2668,-3566.5517L13467.269,-3566.5511L13467.2707,-3566.5506L13467.2733,-3566.5498L13467.2773,-3566.5475L13467.2796,-3566.5461L13467.2817,-3566.5451L13467.2828,-3566.5449L13467.2852,-3566.5439L13467.2879,-3566.5426L13467.2894,-3566.541L13467.2905,-3566.5391L13467.2905,-3566.5369L13467.2899,-3566.5355L13467.2877,-3566.5331L13467.2852,-3566.5313L13467.2808,-3566.5291L13467.2766,-3566.5275L13467.2734,-3566.526L13467.2712,-3566.5245L13467.2707,-3566.523L13467.2707,-3566.5221L13467.2715,-3566.5214L13467.2726,-3566.521L13467.2757,-3566.5208L13467.2768,-3566.5207L13467.2801,-3566.52L13467.2827,-3566.5185L13467.2827,-3566.5175L13467.2826,-3566.5166L13467.2814,-3566.5138L13467.2792,-3566.5111L13467.2726,-3566.506L13467.264,-3566.4989L13467.2611,-3566.4957L13467.2606,-3566.4942L13467.2613,-3566.4925L13467.2626,-3566.4911L13467.2645,-3566.4898L13467.2664,-3566.4891L13467.2683,-3566.489L13467.2705,-3566.4892L13467.2726,-3566.49L13467.2767,-3566.493L13467.2794,-3566.4942L13467.2815,-3566.4946L13467.2833,-3566.4946L13467.2853,-3566.4936L13467.2874,-3566.491L13467.2886,-3566.4901L13467.2913,-3566.4894L13467.2951,-3566.4895L13467.296,-3566.4899L13467.2968,-3566.49L13467.2988,-3566.4902L13467.3004,-3566.4906L13467.3028,-3566.4906L13467.3056,-3566.4903L13467.3085,-3566.4883L13467.3117,-3566.4853L13467.3123,-3566.483L13467.3116,-3566.4803L13467.3098,-3566.4788L13467.3069,-3566.4774L13467.3063,-3566.4767L13467.3064,-3566.4761L13467.3068,-3566.4751L13467.309,-3566.473L13467.3144,-3566.4699L13467.317,-3566.4669L13467.3186,-3566.4644L13467.319,-3566.4608L13467.3185,-3566.4574L13467.3165,-3566.4545L13467.3131,-3566.451L13467.3088,-3566.4479L13467.3052,-3566.444L13467.3018,-3566.4405L13467.2981,-3566.4387L13467.2927,-3566.4371L13467.2869,-3566.4364L13467.2827,-3566.4353L13467.2821,-3566.435L13467.282,-3566.4342L13467.2822,-3566.4333L13467.2841,-3566.4315L13467.2864,-3566.4298L13467.2878,-3566.428L13467.2879,-3566.4262L13467.2876,-3566.4241L13467.286,-3566.4196L13467.2854,-3566.4173L13467.2856,-3566.4145L13467.2875,-3566.4103L13467.2881,-3566.4079L13467.2881,-3566.4007L13467.2877,-3566.397L13467.2878,-3566.3951L13467.2885,-3566.3934L13467.2901,-3566.3928L13467.2941,-3566.3917L13467.3153,-3566.3901L13467.3212,-3566.3901L13467.3283,-3566.3903L13467.333,-3566.3902L13467.3375,-3566.3888L13467.3398,-3566.3869L13467.3435,-3566.3832L13467.3459,-3566.3815L13467.3508,-3566.3795L13467.3568,-3566.3775L13467.3602,-3566.376L13467.3659,-3566.3723L13467.3718,-3566.3696L13467.3767,-3566.3679L13467.3807,-3566.3662L13467.3904,-3566.3615L13467.3945,-3566.3587L13467.3981,-3566.3553L13467.4029,-3566.3505L13467.4096,-3566.3476L13467.4166,-3566.345L13467.4204,-3566.3424L13467.4222,-3566.3398L13467.4229,-3566.3369L13467.4226,-3566.3339L13467.4211,-3566.3297L13467.4193,-3566.3283L13467.4159,-3566.3267L13467.4122,-3566.3262L13467.4056,-3566.3255L13467.4036,-3566.3249L13467.4004,-3566.3216L13467.3981,-3566.3179L13467.3975,-3566.3157L13467.398,-3566.3154L13467.4001,-3566.3153L13467.4015,-3566.3158L13467.4046,-3566.3173L13467.4125,-3566.3205L13467.4176,-3566.3224L13467.4214,-3566.3224L13467.4237,-3566.3215L13467.4259,-3566.3197L13467.4267,-3566.3173L13467.4267,-3566.3154L13467.4266,-3566.3139L13467.4254,-3566.3125L13467.4211,-3566.309L13467.4192,-3566.3075L13467.4182,-3566.3055L13467.4183,-3566.3029L13467.4199,-3566.2959L13467.4213,-3566.2874L13467.4208,-3566.2808L13467.4193,-3566.2774L13467.416,-3566.2725L13467.4107,-3566.2668L13467.4054,-3566.2629L13467.3959,-3566.2587L13467.3807,-3566.2547L13467.3726,-3566.2525L13467.3708,-3566.2515L13467.3694,-3566.2497L13467.3635,-3566.2372L13467.3598,-3566.232L13467.3571,-3566.2298L13467.3507,-3566.2249L13467.3412,-3566.2139L13467.3345,-3566.2051L13467.329,-3566.1953L13467.3256,-3566.1917L13467.3235,-3566.1906L13467.3225,-3566.1904L13467.3216,-3566.1902L13467.3207,-3566.1904L13467.319,-3566.1908L13467.3132,-3566.1925L13467.3104,-3566.1926L13467.3079,-3566.1919L13467.306,-3566.1904L13467.3052,-3566.1897L13467.3026,-3566.1868L13467.2978,-3566.1795L13467.2905,-3566.1725L13467.2855,-3566.1678L13467.2805,-3566.1653L13467.2748,-3566.163L13467.2737,-3566.1621L13467.2969,-3566.1621L13467.2983,-3566.1627L13467.3007,-3566.1631L13467.3027,-3566.1633L13467.3065,-3566.1627L13467.3082,-3566.1621L13467.0748,-3566.1621L13467.0742,-3566.1631L13467.0724,-3566.1661L13467.0677,-3566.1695L13467.065,-3566.1718L13467.064,-3566.174L13467.0641,-3566.1772L13467.0643,-3566.1824L13467.0642,-3566.184L13467.0613,-3566.1877L13467.059,-3566.1911L13467.0584,-3566.192L13467.0564,-3566.1956L13467.0553,-3566.1992L13467.0557,-3566.202L13467.0567,-3566.2045L13467.0584,-3566.2064L13467.0619,-3566.2171L13467.0627,-3566.22L13467.0639,-3566.2221L13467.0659,-3566.2241L13467.0682,-3566.225L13467.0702,-3566.2268L13467.0705,-3566.228L13467.069,-3566.2299L13467.0663,-3566.2318L13467.0593,-3566.2378L13467.0593,-3566.2392L13467.0607,-3566.2454L13467.0614,-3566.2466L13467.0631,-3566.2489L13467.0674,-3566.254L13467.0742,-3566.26L13467.0798,-3566.2636L13467.08,-3566.2637L13467.0815,-3566.2645L13467.083,-3566.266L13467.0851,-3566.2686L13467.087,-3566.2724L13467.0875,-3566.2749L13467.0886,-3566.2779L13467.0903,-3566.2812L13467.0927,-3566.2829L13467.0966,-3566.2856L13467.0988,-3566.2869L13467.1031,-3566.2905L13467.105,-3566.2926L13467.1073,-3566.2954L13467.1107,-3566.2991L13467.114,-3566.3026L13467.1163,-3566.3048L13467.1216,-3566.309L13467.1286,-3566.3146L13467.1322,-3566.318L13467.1369,-3566.3211L13467.1398,-3566.3229L13467.1427,-3566.3254L13467.1453,-3566.3282L13467.1503,-3566.3332L13467.1634,-3566.3465L13467.1732,-3566.3568L13467.1727,-3566.3621L13467.1713,-3566.3668L13467.1716,-3566.3728L13467.1719,-3566.3809L13467.1715,-3566.382L13467.1682,-3566.3839L13467.1637,-3566.384L13467.1592,-3566.3839L13467.1548,-3566.3835L13467.1511,-3566.3841L13467.1487,-3566.3851L13467.1469,-3566.3864L13467.1465,-3566.3873L13467.1465,-3566.3888L13467.148,-3566.3909L13467.1508,-3566.3931L13467.1532,-3566.3953L13467.1538,-3566.3968L13467.1542,-3566.398L13467.1542,-3566.4005L13467.1538,-3566.4015L13467.1521,-3566.4035L13467.1513,-3566.404L13467.1506,-3566.4054L13467.1504,-3566.4076L13467.1519,-3566.4103L13467.1538,-3566.4129L13467.1574,-3566.4151L13467.1592,-3566.4163L13467.1616,-3566.418L13467.1641,-3566.4214L13467.1665,-3566.4243L13467.1689,-3566.4265L13467.1716,-3566.4288L13467.1735,-3566.4296L13467.1813,-3566.4344L13467.1849,-3566.437L13467.186,-3566.4381L13467.1869,-3566.4401L13467.1872,-3566.4426L13467.187,-3566.4451L13467.1865,-3566.4472L13467.1856,-3566.4491L13467.1847,-3566.4504L13467.1829,-3566.4516L13467.1802,-3566.4519L13467.1706,-3566.4518L13467.1678,-3566.4523L13467.1631,-3566.4545L13467.1612,-3566.4554L13467.1541,-3566.4597L13467.1516,-3566.4613L13467.149,-3566.4628L13467.1486,-3566.4638L13467.1486,-3566.4651L13467.1499,-3566.4664L13467.1523,-3566.4679L13467.1551,-3566.4686L13467.1565,-3566.4695L13467.1583,-3566.471L13467.1589,-3566.4724L13467.1594,-3566.4744L13467.1597,-3566.4809L13467.1599,-3566.4818L13467.159,-3566.4828L13467.1545,-3566.4844L13467.1496,-3566.4857L13467.1432,-3566.4867L13467.1356,-3566.4876L13467.1281,-3566.4894L13467.1229,-3566.4918L13467.1196,-3566.4955L13467.1197,-3566.4958L13467.1204,-3566.4962L13467.1217,-3566.4967L13467.123,-3566.497L13467.1254,-3566.497L13467.1287,-3566.4965L13467.1341,-3566.4956L13467.1393,-3566.4943L13467.1415,-3566.4941L13467.1441,-3566.4943L13467.1472,-3566.4958L13467.1491,-3566.4969L13467.1518,-3566.4974L13467.1546,-3566.4976L13467.1564,-3566.4977L13467.1584,-3566.4983L13467.1592,-3566.4988L13467.1594,-3566.499L13467.1594,-3566.4998L13467.1592,-3566.501L13467.1585,-3566.5019L13467.1536,-3566.5032L13467.1463,-3566.5042L13467.1415,-3566.5044L13467.1387,-3566.5055L13467.1364,-3566.5073L13467.1341,-3566.5107L13467.1294,-3566.5139L13467.1275,-3566.517L13467.127,-3566.5192L13467.1275,-3566.5206L13467.1289,-3566.5228L13467.1312,-3566.5244L13467.1363,-3566.5253L13467.1388,-3566.5258L13467.1427,-3566.5263L13467.1473,-3566.5271L13467.1504,-3566.5284L13467.1549,-3566.531L13467.1585,-3566.5348L13467.1606,-3566.5369L13467.1619,-3566.5382L13467.1654,-3566.5398L13467.1688,-3566.5406L13467.1712,-3566.5415L13467.1722,-3566.5422L13467.1734,-3566.543L13467.1744,-3566.5441L13467.175,-3566.5451L13467.175,-3566.5465L13467.1747,-3566.5473L13467.1727,-3566.5483L13467.1667,-3566.549L13467.1609,-3566.5492L13467.1584,-3566.5499L13467.1561,-3566.5514L13467.1557,-3566.5523L13467.1556,-3566.553L13467.1557,-3566.554L13467.1572,-3566.5553L13467.1598,-3566.557L13467.1635,-3566.5587L13467.1693,-3566.5618L13467.1741,-3566.564L13467.1781,-3566.5657L13467.1816,-3566.5664L13467.1829,-3566.5666L13467.1843,-3566.5671L13467.1851,-3566.5673L13467.1871,-3566.5682L13467.188,-3566.5689L13467.1902,-3566.5709L13467.1909,-3566.5739L13467.19,-3566.5765L13467.1888,-3566.5788L13467.1881,-3566.5804L13467.1875,-3566.5818L13467.1878,-3566.5836L13467.1888,-3566.5853L13467.1904,-3566.587L13467.1908,-3566.5875L13467.1907,-3566.5897L13467.19,-3566.5928L13467.1888,-3566.5959L13467.1876,-3566.5985L13467.1871,-3566.6L13467.1873,-3566.601L13467.1876,-3566.6018L13467.1886,-3566.6032L13467.1901,-3566.6046L13467.1923,-3566.606L13467.1949,-3566.6074L13467.1985,-3566.6091L13467.2025,-3566.6108L13467.2053,-3566.6123L13467.2062,-3566.613L13467.2076,-3566.6137L13467.2086,-3566.6146L13467.2106,-3566.6158L13467.2131,-3566.6179L13467.2175,-3566.621L13467.2197,-3566.6226L13467.2215,-3566.6236L13467.2244,-3566.6249L13467.227,-3566.6255L13467.2299,-3566.6256L13467.2324,-3566.6249L13467.2336,-3566.6237L13467.2349,-3566.6224L13467.2358,-3566.62L13467.2369,-3566.6145L13467.238,-3566.6091L13467.2384,-3566.6076Z"/>
<path content="兵庫県,,美方郡,香美町,,28585" xlink:title="兵庫県" d="M13467.157,-3566.4446L13467.1536,-3566.4379L13467.1489,-3566.4287L13467.1468,-3566.4263L13467.145,-3566.4246L13467.1439,-3566.424L13467.1411,-3566.4236L13467.1364,-3566.423L13467.1287,-3566.4209L13467.1229,-3566.4184L13467.117,-3566.4183L13467.1091,-3566.4186L13467.1038,-3566.4186L13467.1012,-3566.4194L13467.0978,-3566.4214L13467.0954,-3566.4226L13467.094,-3566.4239L13467.0921,-3566.4264L13467.0912,-3566.4273L13467.089,-3566.4314L13467.0879,-3566.4341L13467.088,-3566.4375L13467.0892,-3566.4397L13467.0908,-3566.4411L13467.0927,-3566.4415L13467.0959,-3566.4415L13467.0987,-3566.4415L13467.1008,-3566.4419L13467.103,-3566.4429L13467.107,-3566.4455L13467.1093,-3566.4467L13467.1129,-3566.4479L13467.1166,-3566.4484L13467.1193,-3566.4491L13467.1215,-3566.4498L13467.1232,-3566.4508L13467.1279,-3566.4537L13467.1317,-3566.4558L13467.1339,-3566.4566L13467.1356,-3566.4571L13467.1381,-3566.4575L13467.1427,-3566.4573L13467.1481,-3566.4559L13467.1547,-3566.4533L13467.156,-3566.4524L13467.1574,-3566.4509L13467.1575,-3566.448L13467.157,-3566.4446Z"/>
<path content="兵庫県,,美方郡,香美町,,28585" xlink:title="兵庫県" d="M13467.3392,-3566.5053L13467.3344,-3566.5053L13467.3275,-3566.5075L13467.3199,-3566.5137L13467.304,-3566.5176L13467.302,-3566.5193L13467.3006,-3566.5216L13467.3008,-3566.5252L13467.3034,-3566.5289L13467.3096,-3566.5323L13467.3213,-3566.5323L13467.3309,-3566.5261L13467.3441,-3566.5238L13467.3482,-3566.521L13467.3509,-3566.5171L13467.3509,-3566.5126L13467.3475,-3566.5086L13467.3392,-3566.5053Z"/>
<path content="兵庫県,,美方郡,香美町,,28585" xlink:title="兵庫県" d="M13469.2181,-3566.6077L13469.2159,-3566.6076L13469.2128,-3566.6076L13469.2062,-3566.6088L13469.2039,-3566.6097L13469.2024,-3566.6106L13469.2007,-3566.6123L13469.2,-3566.613L13469.199,-3566.614L13469.1976,-3566.616L13469.1968,-3566.6169L13469.1957,-3566.6176L13469.1948,-3566.618L13469.1919,-3566.6191L13469.1914,-3566.6195L13469.1906,-3566.6204L13469.1904,-3566.623L13469.191,-3566.6248L13469.1919,-3566.6259L13469.1933,-3566.6274L13469.1958,-3566.6285L13469.1989,-3566.6304L13469.2016,-3566.6319L13469.2049,-3566.6327L13469.2082,-3566.6325L13469.212,-3566.6321L13469.2137,-3566.6316L13469.2156,-3566.6312L13469.2178,-3566.6302L13469.2181,-3566.6279L13469.2173,-3566.6252L13469.2171,-3566.6234L13469.218,-3566.6214L13469.2207,-3566.6188L13469.2232,-3566.6173L13469.2244,-3566.6149L13469.2244,-3566.6125L13469.2236,-3566.6103L13469.2215,-3566.609L13469.2181,-3566.6077Z"/>
<path content="兵庫県,,美方郡,香美町,,28585" xlink:title="兵庫県" d="M13467.1668,-3566.3589L13467.1662,-3566.3552L13467.1648,-3566.353L13467.1623,-3566.3501L13467.1564,-3566.346L13467.1515,-3566.3438L13467.1468,-3566.3427L13467.1437,-3566.3427L13467.1402,-3566.3432L13467.1375,-3566.3443L13467.1367,-3566.3448L13467.1348,-3566.3465L13467.1329,-3566.3492L13467.1322,-3566.351L13467.1322,-3566.3534L13467.1335,-3566.3549L13467.1352,-3566.3563L13467.138,-3566.3574L13467.1396,-3566.3577L13467.1481,-3566.358L13467.1518,-3566.3579L13467.1566,-3566.3587L13467.1626,-3566.3603L13467.1647,-3566.3607L13467.1663,-3566.36L13467.1668,-3566.3589Z"/>
<path content="兵庫県,,美方郡,香美町,,28585" xlink:title="兵庫県" d="M13467.0595,-3566.2527L13467.0582,-3566.2522L13467.0571,-3566.2522L13467.0562,-3566.2532L13467.0558,-3566.2584L13467.0543,-3566.2604L13467.0534,-3566.2623L13467.0531,-3566.2634L13467.0544,-3566.2652L13467.0569,-3566.2667L13467.0607,-3566.2688L13467.0636,-3566.2718L13467.0665,-3566.2748L13467.0695,-3566.2783L13467.0739,-3566.2823L13467.0761,-3566.2837L13467.0773,-3566.284L13467.08,-3566.2839L13467.082,-3566.2835L13467.084,-3566.2823L13467.0848,-3566.2811L13467.0848,-3566.2803L13467.083,-3566.2772L13467.08,-3566.2748L13467.0773,-3566.2727L13467.0744,-3566.2702L13467.0705,-3566.2658L13467.0636,-3566.257L13467.0605,-3566.2535L13467.0595,-3566.2527Z"/>
<path content="兵庫県,,美方郡,香美町,,28585" xlink:title="兵庫県" d="M13467.3854,-3566.1699L13467.3799,-3566.1688L13467.3772,-3566.171L13467.3744,-3566.1767L13467.3744,-3566.1846L13467.3779,-3566.1879L13467.3834,-3566.1879L13467.3876,-3566.1844L13467.3889,-3566.1789L13467.3889,-3566.1727L13467.3854,-3566.1699Z"/>
<path content="兵庫県,,美方郡,香美町,,28585" xlink:title="兵庫県" d="M13469.2383,-3566.6232L13469.2353,-3566.6271L13469.2353,-3566.6293L13469.2374,-3566.6308L13469.2383,-3566.631Z"/>
<path content="兵庫県,,美方郡,香美町,,28585" xlink:title="兵庫県" d="M13467.3891,-3566.1621L13467.3883,-3566.1629L13467.3872,-3566.1647L13467.3872,-3566.1667L13467.3883,-3566.1684L13467.3894,-3566.1694L13467.3939,-3566.1718L13467.3948,-3566.1719L13467.3975,-3566.1727L13467.4019,-3566.1731L13467.4042,-3566.1727L13467.406,-3566.1721L13467.4069,-3566.1709L13467.4067,-3566.1696L13467.4059,-3566.1673L13467.4032,-3566.1639L13467.3996,-3566.1621Z"/>
<path content="兵庫県,,美方郡,香美町,,28585" xlink:title="兵庫県" d="M13468.7132,-3566.1757L13468.7144,-3566.1756L13468.7149,-3566.1759L13468.716,-3566.1759L13468.718,-3566.1744L13468.7181,-3566.1733L13468.7169,-3566.1722L13468.7186,-3566.1709L13468.7182,-3566.1683L13468.7171,-3566.1678L13468.7176,-3566.167L13468.7178,-3566.1658L13468.7167,-3566.1637L13468.7149,-3566.1634L13468.7148,-3566.1625L13468.7144,-3566.1621L13468.7061,-3566.1621L13468.7055,-3566.1629L13468.7056,-3566.1642L13468.7058,-3566.165L13468.7064,-3566.1653L13468.7069,-3566.1658L13468.7067,-3566.167L13468.7066,-3566.17L13468.707,-3566.1709L13468.7089,-3566.1715L13468.7085,-3566.1724L13468.7086,-3566.1745L13468.709,-3566.176L13468.7099,-3566.1765L13468.7109,-3566.1766L13468.7132,-3566.1757Z"/>
<path content="兵庫県,,美方郡,香美町,,28585" xlink:title="兵庫県" d="M13468.7755,-3566.518L13468.7743,-3566.5168L13468.7723,-3566.5176L13468.7702,-3566.5179L13468.7692,-3566.5188L13468.7685,-3566.5193L13468.768,-3566.5214L13468.7691,-3566.5224L13468.7683,-3566.5232L13468.7681,-3566.5243L13468.7683,-3566.5258L13468.7696,-3566.5263L13468.7707,-3566.5286L13468.7712,-3566.5296L13468.7731,-3566.5306L13468.7768,-3566.5308L13468.7794,-3566.5302L13468.7804,-3566.529L13468.7804,-3566.5282L13468.7817,-3566.527L13468.7823,-3566.5249L13468.782,-3566.5242L13468.7808,-3566.5235L13468.7802,-3566.5233L13468.7808,-3566.522L13468.7798,-3566.5203L13468.7791,-3566.5193L13468.7774,-3566.5192L13468.777,-3566.5183L13468.7755,-3566.518Z"/>
<path content="兵庫県,,美方郡,香美町,,28585" xlink:title="兵庫県" d="M13467.0852,-3566.2896L13467.0833,-3566.2895L13467.082,-3566.2901L13467.0808,-3566.2922L13467.0806,-3566.2935L13467.0809,-3566.2943L13467.082,-3566.2959L13467.083,-3566.2972L13467.0844,-3566.2981L13467.0859,-3566.2994L13467.089,-3566.3002L13467.0908,-3566.3004L13467.0919,-3566.3004L13467.0926,-3566.3L13467.0935,-3566.2994L13467.0949,-3566.2971L13467.0949,-3566.296L13467.0938,-3566.2942L13467.0911,-3566.2916L13467.0874,-3566.2899L13467.0852,-3566.2896Z"/>
<path content="兵庫県,,美方郡,香美町,,28585" xlink:title="兵庫県" d="M13468.7689,-3566.4106L13468.7692,-3566.4095L13468.7689,-3566.4084L13468.7706,-3566.4069L13468.7705,-3566.404L13468.7687,-3566.4033L13468.769,-3566.402L13468.7681,-3566.4004L13468.7673,-3566.4L13468.7641,-3566.3999L13468.762,-3566.3997L13468.7613,-3566.4002L13468.7598,-3566.4022L13468.761,-3566.4034L13468.7606,-3566.4047L13468.761,-3566.4076L13468.7617,-3566.4081L13468.7618,-3566.4095L13468.7624,-3566.4104L13468.7638,-3566.4112L13468.7656,-3566.4106L13468.7676,-3566.4114L13468.7689,-3566.4106Z"/>
<path content="兵庫県,,美方郡,香美町,,28585" xlink:title="兵庫県" d="M13468.7856,-3566.4396L13468.7852,-3566.4381L13468.7841,-3566.4381L13468.7841,-3566.4372L13468.7831,-3566.4361L13468.7826,-3566.435L13468.7801,-3566.4349L13468.7785,-3566.4334L13468.7766,-3566.4325L13468.7741,-3566.4331L13468.7732,-3566.4334L13468.7725,-3566.4356L13468.7741,-3566.4376L13468.7765,-3566.439L13468.7774,-3566.442L13468.7795,-3566.4423L13468.7825,-3566.4414L13468.7851,-3566.4412L13468.7856,-3566.4396Z"/>
<path content="兵庫県,,美方郡,香美町,,28585" xlink:title="兵庫県" d="M13467.1713,-3566.438L13467.1693,-3566.4379L13467.1678,-3566.4381L13467.1668,-3566.4388L13467.1649,-3566.4404L13467.1644,-3566.4425L13467.1648,-3566.444L13467.1667,-3566.4459L13467.168,-3566.4468L13467.1701,-3566.4476L13467.1718,-3566.4472L13467.1738,-3566.4447L13467.1739,-3566.4417L13467.1735,-3566.4396L13467.1713,-3566.438Z"/>
<path content="兵庫県,,美方郡,香美町,,28585" xlink:title="兵庫県" d="M13468.7506,-3566.3518L13468.7493,-3566.3513L13468.7478,-3566.3514L13468.7467,-3566.352L13468.7453,-3566.3532L13468.7451,-3566.3539L13468.7461,-3566.3548L13468.7448,-3566.3554L13468.7444,-3566.3559L13468.7448,-3566.3588L13468.746,-3566.3603L13468.7468,-3566.3605L13468.7481,-3566.3606L13468.7506,-3566.3601L13468.7516,-3566.3586L13468.7529,-3566.3578L13468.7533,-3566.357L13468.7526,-3566.3553L13468.7519,-3566.3544L13468.7518,-3566.3532L13468.7511,-3566.3528L13468.7506,-3566.3518Z"/>
<path content="兵庫県,,美方郡,香美町,,28585" xlink:title="兵庫県" d="M13469.1629,-3566.4858L13469.1611,-3566.4844L13469.1597,-3566.4843L13469.1579,-3566.4846L13469.157,-3566.4852L13469.1565,-3566.4852L13469.1555,-3566.4867L13469.1555,-3566.4872L13469.1555,-3566.488L13469.1564,-3566.489L13469.1561,-3566.49L13469.1574,-3566.4915L13469.1594,-3566.4922L13469.1623,-3566.4922L13469.1636,-3566.4913L13469.1641,-3566.4903L13469.1651,-3566.4895L13469.1655,-3566.4887L13469.1649,-3566.487L13469.1635,-3566.4864L13469.1629,-3566.4858Z"/>
<path content="兵庫県,,美方郡,香美町,,28585" xlink:title="兵庫県" d="M13468.7664,-3566.4165L13468.7636,-3566.4159L13468.7622,-3566.416L13468.7606,-3566.4169L13468.7594,-3566.4192L13468.7603,-3566.4208L13468.7602,-3566.4247L13468.7621,-3566.4257L13468.7658,-3566.4244L13468.7668,-3566.4225L13468.7666,-3566.4215L13468.7661,-3566.4209L13468.7669,-3566.4198L13468.7664,-3566.4165Z"/>
<path content="兵庫県,,美方郡,香美町,,28585" xlink:title="兵庫県" d="M13468.7747,-3566.4177L13468.7725,-3566.4177L13468.7718,-3566.4181L13468.7712,-3566.419L13468.7705,-3566.419L13468.7698,-3566.4197L13468.7692,-3566.4217L13468.7696,-3566.4226L13468.7702,-3566.4231L13468.7692,-3566.4245L13468.7693,-3566.4256L13468.7698,-3566.4267L13468.771,-3566.427L13468.7744,-3566.4275L13468.7748,-3566.4266L13468.7745,-3566.4255L13468.7746,-3566.4244L13468.7764,-3566.4242L13468.7772,-3566.4234L13468.777,-3566.4218L13468.776,-3566.4207L13468.7755,-3566.4183L13468.7747,-3566.4177Z"/>
<path content="兵庫県,,美方郡,香美町,,28585" xlink:title="兵庫県" d="M13468.6959,-3566.2827L13468.6946,-3566.2821L13468.6934,-3566.2822L13468.6917,-3566.2825L13468.6908,-3566.2833L13468.6905,-3566.2846L13468.6907,-3566.2867L13468.6909,-3566.2875L13468.6922,-3566.2885L13468.694,-3566.2897L13468.696,-3566.2892L13468.6971,-3566.2889L13468.6979,-3566.2874L13468.6979,-3566.2863L13468.697,-3566.2855L13468.6971,-3566.2843L13468.6971,-3566.2833L13468.6959,-3566.2827Z"/>
<path content="兵庫県,,美方郡,香美町,,28585" xlink:title="兵庫県" d="M13468.8992,-3566.5294L13468.9012,-3566.5276L13468.9021,-3566.5273L13468.9031,-3566.5257L13468.9022,-3566.5235L13468.9011,-3566.5234L13468.9001,-3566.5224L13468.8993,-3566.5227L13468.898,-3566.523L13468.8969,-3566.524L13468.8963,-3566.5244L13468.8963,-3566.5251L13468.8956,-3566.5258L13468.8942,-3566.5272L13468.8945,-3566.5281L13468.8955,-3566.5293L13468.8977,-3566.5292L13468.8983,-3566.5295L13468.8992,-3566.5294Z"/>
<path content="兵庫県,,美方郡,香美町,,28585" xlink:title="兵庫県" d="M13469.0564,-3566.4766L13469.0569,-3566.4762L13469.0579,-3566.4744L13469.0578,-3566.4734L13469.0568,-3566.4724L13469.0559,-3566.4717L13469.0545,-3566.4713L13469.0535,-3566.4715L13469.0506,-3566.4734L13469.0507,-3566.4739L13469.0511,-3566.4743L13469.0513,-3566.4749L13469.051,-3566.476L13469.051,-3566.4763L13469.0514,-3566.4767L13469.0517,-3566.4769L13469.0529,-3566.4762L13469.0535,-3566.4772L13469.0546,-3566.477L13469.0557,-3566.4768L13469.0564,-3566.4766Z"/>
<path content="兵庫県,,美方郡,香美町,,28585" xlink:title="兵庫県" d="M13469.0636,-3566.4763L13469.0621,-3566.4762L13469.0602,-3566.4768L13469.0593,-3566.4778L13469.0594,-3566.4786L13469.0603,-3566.4795L13469.0615,-3566.4803L13469.062,-3566.4811L13469.0639,-3566.4814L13469.0652,-3566.4803L13469.0659,-3566.4795L13469.0657,-3566.4779L13469.0645,-3566.4768L13469.0636,-3566.4763Z"/>
</g>
</svg>
