<?xml version="1.0" encoding="UTF-8"?>
<svg  xmlns="http://www.w3.org/2000/svg" xmlns:xlink="http://www.w3.org/1999/xlink" xmlns:go="http://purl.org/svgmap/profile" property="geometry,N03_001,N03_002,N03_003,N03_004,N03_005,N03_007" viewBox="13593.3837890625 -3361.81640625 0.54931640625 0.54931640625" go:dataArea="13593.3837890625 -3361.81640625 0.54931640625 0.54931640625" >
<metadata>
 <rdf:RDF xmlns:rdf="http://www.w3.org/1999/02/22-rdf-syntax-ns#" xmlns:crs="http://opengis.org/xmldtds/transformations.dtd" xmlns:svg="http://www.w3.org/svg" >
  <rdf:Description>
   <crs:CoordinateReferenceSystem rdf:resource="http://purl.org/crs/84" svg:transform="matrix(100.0,0.0,0.0,-100.0,0.0,0.0)" />
  </rdf:Description>
 </rdf:RDF>
</metadata>
<globalCoordinateSystem srsName="http://purl.org/crs/84" transform="matrix(100.0,0.0,0.0,-100.0,0.0,0.0)" />
<defs>
 <g id="p0" >
  <circle cx="0.0" cy="0.0" r="3" stroke="green" stroke-width="2.0" vector-effect="non-scaling-stroke" />
 </g>
</defs>
<g fill="#0000ff" fill-rule="evenodd" opacity="0.5" >
<path content="和歌山県,,東牟婁郡,那智勝浦町,,30421" xlink:title="和歌山県" d="M13593.3838,-3361.2671L13593.3838,-3361.8164L13593.9331,-3361.8164L13593.9331,-3361.6902L13593.9329,-3361.6904L13593.9325,-3361.6908L13593.9323,-3361.6912L13593.9322,-3361.6913L13593.9322,-3361.6917L13593.9323,-3361.6921L13593.9326,-3361.6927L13593.9331,-3361.6934L13593.9331,-3361.723L13593.9327,-3361.7232L13593.9307,-3361.7243L13593.9294,-3361.7249L13593.9284,-3361.7252L13593.9276,-3361.7253L13593.927,-3361.7253L13593.9265,-3361.7252L13593.9263,-3361.7251L13593.9258,-3361.7248L13593.9253,-3361.7243L13593.9246,-3361.7235L13593.9244,-3361.7231L13593.9239,-3361.7221L13593.9237,-3361.7211L13593.9236,-3361.7205L13593.9234,-3361.7198L13593.9232,-3361.7194L13593.9229,-3361.7192L13593.9225,-3361.7191L13593.922,-3361.719L13593.9215,-3361.7191L13593.921,-3361.7192L13593.9205,-3361.7194L13593.9202,-3361.7196L13593.9199,-3361.7201L13593.9192,-3361.721L13593.9189,-3361.7213L13593.9184,-3361.7216L13593.9181,-3361.7217L13593.9179,-3361.7217L13593.9177,-3361.7217L13593.9176,-3361.7217L13593.9174,-3361.7215L13593.9169,-3361.7205L13593.9168,-3361.7203L13593.9166,-3361.7203L13593.9164,-3361.7202L13593.9161,-3361.7202L13593.9156,-3361.7204L13593.9145,-3361.721L13593.9134,-3361.7216L13593.9127,-3361.7222L13593.9124,-3361.7226L13593.9123,-3361.723L13593.9123,-3361.7236L13593.9124,-3361.724L13593.9127,-3361.7243L13593.9129,-3361.7246L13593.9133,-3361.7247L13593.9136,-3361.7248L13593.9141,-3361.7247L13593.9147,-3361.7246L13593.9158,-3361.724L13593.9162,-3361.7239L13593.9164,-3361.7239L13593.9165,-3361.7239L13593.9165,-3361.724L13593.9166,-3361.7243L13593.9165,-3361.7247L13593.9163,-3361.7252L13593.9161,-3361.7255L13593.9159,-3361.7257L13593.9155,-3361.7259L13593.9149,-3361.7261L13593.914,-3361.7262L13593.9135,-3361.7263L13593.9134,-3361.7263L13593.9133,-3361.7264L13593.9134,-3361.7266L13593.9135,-3361.7269L13593.9139,-3361.7274L13593.915,-3361.7283L13593.9157,-3361.7288L13593.9175,-3361.7298L13593.9194,-3361.731L13593.9013,-3361.7684L13593.8902,-3361.792L13593.8756,-3361.7967L13593.8677,-3361.7944L13593.8405,-3361.7845L13593.8289,-3361.7787L13593.8289,-3361.7779L13593.8294,-3361.7772L13593.8299,-3361.7763L13593.8304,-3361.7746L13593.831,-3361.7733L13593.832,-3361.7718L13593.8326,-3361.7709L13593.8332,-3361.7697L13593.8336,-3361.7686L13593.834,-3361.7674L13593.8341,-3361.7672L13593.8346,-3361.7665L13593.8356,-3361.7655L13593.8364,-3361.7647L13593.8373,-3361.7638L13593.8374,-3361.7636L13593.8379,-3361.7627L13593.8381,-3361.7618L13593.8381,-3361.7611L13593.8379,-3361.7602L13593.8374,-3361.7591L13593.8366,-3361.758L13593.8363,-3361.7574L13593.8358,-3361.7567L13593.8358,-3361.7563L13593.8358,-3361.756L13593.836,-3361.7556L13593.8364,-3361.7552L13593.8373,-3361.7544L13593.8389,-3361.7531L13593.8396,-3361.7523L13593.8399,-3361.7517L13593.8401,-3361.7513L13593.84,-3361.7508L13593.84,-3361.7505L13593.8397,-3361.75L13593.8394,-3361.7496L13593.839,-3361.7494L13593.8384,-3361.749L13593.8369,-3361.7486L13593.8358,-3361.7484L13593.8345,-3361.748L13593.8337,-3361.7476L13593.8332,-3361.7472L13593.8331,-3361.747L13593.8327,-3361.7465L13593.832,-3361.745L13593.8313,-3361.7429L13593.8309,-3361.7416L13593.8309,-3361.7412L13593.8308,-3361.7403L13593.831,-3361.7393L13593.8311,-3361.7389L13593.8316,-3361.7381L13593.8322,-3361.7374L13593.8326,-3361.737L13593.8345,-3361.736L13593.8354,-3361.7353L13593.8362,-3361.7345L13593.8367,-3361.7337L13593.8371,-3361.7329L13593.8373,-3361.7318L13593.8374,-3361.731L13593.8372,-3361.73L13593.8369,-3361.7291L13593.8364,-3361.7283L13593.8358,-3361.7276L13593.835,-3361.7268L13593.8347,-3361.7264L13593.8346,-3361.7261L13593.8346,-3361.7259L13593.8348,-3361.7254L13593.8352,-3361.7245L13593.8352,-3361.7242L13593.8352,-3361.7235L13593.8351,-3361.7224L13593.8352,-3361.7219L13593.8359,-3361.7205L13593.836,-3361.7202L13593.836,-3361.72L13593.8359,-3361.7198L13593.8357,-3361.7195L13593.8349,-3361.719L13593.8344,-3361.7185L13593.8342,-3361.7183L13593.834,-3361.7176L13593.8339,-3361.7174L13593.8331,-3361.7164L13593.8329,-3361.7162L13593.8328,-3361.7157L13593.8327,-3361.7148L13593.8329,-3361.7133L13593.8331,-3361.7124L13593.8332,-3361.7113L13593.8332,-3361.7104L13593.8331,-3361.7096L13593.8331,-3361.7091L13593.8332,-3361.7088L13593.8333,-3361.7087L13593.8337,-3361.7083L13593.8344,-3361.7077L13593.8345,-3361.7074L13593.8345,-3361.7073L13593.8345,-3361.7071L13593.8344,-3361.7067L13593.834,-3361.7062L13593.8337,-3361.706L13593.8333,-3361.7058L13593.8329,-3361.7056L13593.8322,-3361.7056L13593.8315,-3361.7056L13593.8296,-3361.706L13593.829,-3361.706L13593.8289,-3361.706L13593.8288,-3361.7059L13593.8289,-3361.7058L13593.8292,-3361.7054L13593.8298,-3361.7045L13593.8299,-3361.7043L13593.8299,-3361.7042L13593.8298,-3361.704L13593.8297,-3361.7038L13593.8294,-3361.7037L13593.8289,-3361.7036L13593.8281,-3361.7035L13593.8267,-3361.7035L13593.8248,-3361.7037L13593.8233,-3361.7039L13593.8224,-3361.7038L13593.8218,-3361.7036L13593.8205,-3361.7027L13593.8199,-3361.7023L13593.8193,-3361.7021L13593.8183,-3361.702L13593.8162,-3361.7021L13593.8147,-3361.702L13593.8131,-3361.702L13593.8098,-3361.7025L13593.8093,-3361.7025L13593.8073,-3361.7025L13593.8029,-3361.7021L13593.7982,-3361.7019L13593.7953,-3361.7017L13593.7942,-3361.7016L13593.7904,-3361.7009L13593.7886,-3361.7006L13593.7871,-3361.7002L13593.7869,-3361.7001L13593.7869,-3361.7001L13593.7871,-3361.7L13593.7896,-3361.6998L13593.7912,-3361.6995L13593.7915,-3361.6994L13593.7935,-3361.6987L13593.7941,-3361.6986L13593.7946,-3361.6986L13593.7957,-3361.6987L13593.7975,-3361.6992L13593.7988,-3361.6993L13593.8003,-3361.6992L13593.803,-3361.6988L13593.804,-3361.6987L13593.8077,-3361.6982L13593.8088,-3361.698L13593.8096,-3361.6978L13593.81,-3361.6976L13593.8102,-3361.6974L13593.8103,-3361.6972L13593.8103,-3361.6968L13593.8102,-3361.6963L13593.8099,-3361.6956L13593.8095,-3361.6949L13593.8089,-3361.6943L13593.808,-3361.6937L13593.8074,-3361.6933L13593.8051,-3361.6924L13593.8032,-3361.6917L13593.8021,-3361.6914L13593.8006,-3361.6913L13593.7987,-3361.6913L13593.7981,-3361.6912L13593.7973,-3361.6913L13593.7969,-3361.6914L13593.7967,-3361.6915L13593.7965,-3361.6917L13593.7961,-3361.692L13593.7959,-3361.6924L13593.7959,-3361.6926L13593.7959,-3361.6929L13593.7962,-3361.6932L13593.7967,-3361.6937L13593.7973,-3361.6942L13593.7975,-3361.6944L13593.7977,-3361.6948L13593.7979,-3361.6953L13593.7979,-3361.6955L13593.7978,-3361.6957L13593.7976,-3361.6958L13593.7974,-3361.6958L13593.7971,-3361.6958L13593.7965,-3361.6957L13593.7958,-3361.6955L13593.7951,-3361.695L13593.7947,-3361.6947L13593.7944,-3361.6944L13593.7942,-3361.6939L13593.7941,-3361.6933L13593.7941,-3361.6926L13593.7943,-3361.6918L13593.7943,-3361.6912L13593.7942,-3361.6909L13593.7939,-3361.6907L13593.7937,-3361.6905L13593.7932,-3361.6904L13593.7927,-3361.6903L13593.791,-3361.6902L13593.7906,-3361.6901L13593.7904,-3361.69L13593.7902,-3361.6899L13593.7901,-3361.6898L13593.7899,-3361.6888L13593.7898,-3361.6886L13593.7896,-3361.6883L13593.7893,-3361.6882L13593.789,-3361.6881L13593.7886,-3361.688L13593.7883,-3361.6881L13593.7879,-3361.6882L13593.7876,-3361.6883L13593.7874,-3361.6885L13593.7873,-3361.6887L13593.7873,-3361.6889L13593.7873,-3361.6895L13593.7873,-3361.6898L13593.7871,-3361.69L13593.7869,-3361.6902L13593.7858,-3361.6906L13593.7843,-3361.6915L13593.7828,-3361.6924L13593.7816,-3361.6919L13593.7799,-3361.6928L13593.7803,-3361.6941L13593.78,-3361.6941L13593.7786,-3361.6945L13593.7771,-3361.695L13593.7758,-3361.6956L13593.7745,-3361.6962L13593.7742,-3361.6964L13593.7734,-3361.6971L13593.7728,-3361.698L13593.7726,-3361.6983L13593.7722,-3361.6988L13593.772,-3361.699L13593.7718,-3361.6991L13593.7715,-3361.6991L13593.7707,-3361.699L13593.7698,-3361.6989L13593.7696,-3361.6989L13593.7691,-3361.699L13593.7685,-3361.6992L13593.767,-3361.7L13593.7666,-3361.7003L13593.7649,-3361.7011L13593.7625,-3361.7021L13593.7623,-3361.7022L13593.7614,-3361.7027L13593.7608,-3361.7033L13593.7604,-3361.7038L13593.7599,-3361.7045L13593.7595,-3361.7048L13593.7594,-3361.7049L13593.7586,-3361.7052L13593.7576,-3361.7056L13593.7573,-3361.7058L13593.7572,-3361.7059L13593.7571,-3361.7062L13593.7571,-3361.7065L13593.7572,-3361.707L13593.7582,-3361.7089L13593.7587,-3361.7098L13593.7587,-3361.71L13593.7589,-3361.7114L13593.7591,-3361.7122L13593.7592,-3361.7129L13593.7591,-3361.713L13593.759,-3361.713L13593.7586,-3361.7127L13593.7577,-3361.712L13593.7574,-3361.7118L13593.7573,-3361.7117L13593.757,-3361.7117L13593.7567,-3361.7118L13593.7563,-3361.712L13593.7557,-3361.7125L13593.7551,-3361.713L13593.7543,-3361.7135L13593.7541,-3361.7136L13593.7538,-3361.7136L13593.7537,-3361.7135L13593.7535,-3361.7133L13593.7532,-3361.7125L13593.753,-3361.7122L13593.7529,-3361.7121L13593.7527,-3361.7121L13593.7526,-3361.7121L13593.7523,-3361.7122L13593.7519,-3361.7125L13593.7514,-3361.7132L13593.751,-3361.714L13593.7507,-3361.7151L13593.7505,-3361.716L13593.7506,-3361.7165L13593.7507,-3361.7167L13593.7509,-3361.7169L13593.7517,-3361.7175L13593.7518,-3361.7176L13593.7518,-3361.7178L13593.7517,-3361.718L13593.7515,-3361.7182L13593.7511,-3361.7186L13593.7508,-3361.7188L13593.75,-3361.7192L13593.7489,-3361.7197L13593.7481,-3361.7203L13593.7471,-3361.721L13593.7469,-3361.7211L13593.745,-3361.7217L13593.7448,-3361.7218L13593.7438,-3361.7222L13593.7427,-3361.723L13593.7423,-3361.7233L13593.7412,-3361.7241L13593.7405,-3361.7245L13593.7399,-3361.7246L13593.7392,-3361.7247L13593.7382,-3361.7248L13593.7378,-3361.725L13593.7374,-3361.7252L13593.7371,-3361.7257L13593.7362,-3361.7271L13593.7358,-3361.7279L13593.7354,-3361.7288L13593.7354,-3361.7293L13593.7354,-3361.7297L13593.7357,-3361.7301L13593.7361,-3361.7304L13593.7375,-3361.7313L13593.7384,-3361.7319L13593.7388,-3361.7323L13593.7389,-3361.7324L13593.7391,-3361.7329L13593.7392,-3361.7336L13593.739,-3361.7354L13593.7389,-3361.7361L13593.7387,-3361.7371L13593.7383,-3361.7379L13593.7366,-3361.7402L13593.7355,-3361.7421L13593.7349,-3361.7428L13593.7342,-3361.7436L13593.7341,-3361.7438L13593.7341,-3361.7439L13593.7342,-3361.7441L13593.7344,-3361.7442L13593.7352,-3361.7445L13593.7359,-3361.7449L13593.736,-3361.745L13593.7363,-3361.7453L13593.7368,-3361.7461L13593.737,-3361.7464L13593.7376,-3361.7471L13593.7387,-3361.7482L13593.739,-3361.7485L13593.7395,-3361.7493L13593.7399,-3361.7503L13593.7403,-3361.7521L13593.7406,-3361.7528L13593.7409,-3361.7532L13593.7422,-3361.7546L13593.7428,-3361.7551L13593.7434,-3361.7559L13593.7437,-3361.7565L13593.7438,-3361.757L13593.7438,-3361.7585L13593.7439,-3361.7595L13593.7443,-3361.7606L13593.7447,-3361.7618L13593.7448,-3361.7626L13593.7447,-3361.7631L13593.7447,-3361.7632L13593.7444,-3361.7637L13593.7435,-3361.7647L13593.7432,-3361.765L13593.7422,-3361.7659L13593.7414,-3361.7663L13593.7411,-3361.7664L13593.7401,-3361.7668L13593.7382,-3361.7672L13593.7374,-3361.7675L13593.7365,-3361.7681L13593.7355,-3361.7688L13593.7349,-3361.7695L13593.7344,-3361.7701L13593.734,-3361.7708L13593.7339,-3361.7714L13593.7338,-3361.7721L13593.734,-3361.773L13593.7343,-3361.7738L13593.7357,-3361.7761L13593.7358,-3361.7765L13593.7363,-3361.7777L13593.7365,-3361.7786L13593.7366,-3361.7794L13593.7365,-3361.7802L13593.7363,-3361.781L13593.7359,-3361.7816L13593.7353,-3361.7823L13593.7345,-3361.7831L13593.7334,-3361.7838L13593.7322,-3361.7846L13593.7318,-3361.7851L13593.7303,-3361.7869L13593.7294,-3361.7878L13593.7286,-3361.7883L13593.7275,-3361.7888L13593.7259,-3361.7894L13593.7241,-3361.7898L13593.7222,-3361.7901L13593.7198,-3361.7903L13593.7159,-3361.7905L13593.7124,-3361.7907L13593.7117,-3361.7907L13593.7093,-3361.7911L13593.7074,-3361.7915L13593.7054,-3361.792L13593.7034,-3361.7925L13593.7019,-3361.7928L13593.6997,-3361.7928L13593.6982,-3361.7928L13593.6967,-3361.7931L13593.695,-3361.7937L13593.6943,-3361.794L13593.6923,-3361.7951L13593.6911,-3361.7958L13593.6903,-3361.7965L13593.6898,-3361.7972L13593.6892,-3361.7986L13593.6888,-3361.7994L13593.6887,-3361.7995L13593.6882,-3361.8L13593.6873,-3361.8005L13593.6858,-3361.8012L13593.6839,-3361.802L13593.6818,-3361.8031L13593.6806,-3361.8037L13593.6792,-3361.8044L13593.678,-3361.8047L13593.6757,-3361.8049L13593.6749,-3361.805L13593.6743,-3361.8052L13593.6724,-3361.8061L13593.671,-3361.8067L13593.6695,-3361.8072L13593.6683,-3361.8075L13593.667,-3361.808L13593.6668,-3361.8081L13593.666,-3361.8085L13593.6653,-3361.8091L13593.6649,-3361.8097L13593.6646,-3361.8103L13593.6644,-3361.812L13593.664,-3361.8137L13593.6636,-3361.8155L13593.6635,-3361.8164L13593.6043,-3361.8164L13593.6042,-3361.8147L13593.6042,-3361.8132L13593.6045,-3361.8116L13593.6046,-3361.8112L13593.605,-3361.8099L13593.6055,-3361.8089L13593.6059,-3361.8085L13593.6073,-3361.807L13593.608,-3361.8061L13593.6084,-3361.8056L13593.6087,-3361.8048L13593.6089,-3361.8041L13593.6088,-3361.8036L13593.6087,-3361.8033L13593.6083,-3361.8025L13593.6076,-3361.8014L13593.6074,-3361.8009L13593.6072,-3361.7998L13593.6072,-3361.798L13593.6072,-3361.7972L13593.607,-3361.7945L13593.6069,-3361.7933L13593.6069,-3361.7921L13593.6071,-3361.7912L13593.6073,-3361.7906L13593.6077,-3361.79L13593.6082,-3361.7896L13593.6086,-3361.7893L13593.609,-3361.7892L13593.61,-3361.789L13593.611,-3361.7888L13593.6114,-3361.7887L13593.6115,-3361.7886L13593.6118,-3361.7883L13593.6121,-3361.7878L13593.6123,-3361.7872L13593.6123,-3361.7865L13593.6122,-3361.7858L13593.612,-3361.7851L13593.6116,-3361.7845L13593.6112,-3361.7841L13593.611,-3361.7839L13593.6104,-3361.7837L13593.6098,-3361.7835L13593.609,-3361.7834L13593.6087,-3361.7834L13593.6072,-3361.7836L13593.6062,-3361.7837L13593.6058,-3361.7836L13593.6055,-3361.7835L13593.6053,-3361.7834L13593.6053,-3361.7833L13593.6048,-3361.7824L13593.6048,-3361.7823L13593.6045,-3361.782L13593.6041,-3361.7817L13593.6033,-3361.7814L13593.6019,-3361.7811L13593.6008,-3361.7809L13593.5998,-3361.7806L13593.599,-3361.7802L13593.5982,-3361.7797L13593.5974,-3361.7788L13593.5965,-3361.7775L13593.5963,-3361.7771L13593.5956,-3361.7757L13593.595,-3361.7738L13593.5945,-3361.7714L13593.594,-3361.7675L13593.5934,-3361.7622L13593.5969,-3361.7504L13593.6026,-3361.7311L13593.6242,-3361.7294L13593.6259,-3361.7299L13593.6313,-3361.7321L13593.6354,-3361.734L13593.6381,-3361.735L13593.6406,-3361.7358L13593.6428,-3361.7363L13593.6452,-3361.7367L13593.6471,-3361.7367L13593.6486,-3361.7367L13593.6504,-3361.7364L13593.6518,-3361.736L13593.6521,-3361.7359L13593.6534,-3361.7353L13593.6543,-3361.7347L13593.655,-3361.734L13593.6555,-3361.7334L13593.6559,-3361.7327L13593.6562,-3361.7318L13593.6563,-3361.7307L13593.6562,-3361.7299L13593.6559,-3361.7283L13593.6555,-3361.7269L13593.6552,-3361.7255L13593.6552,-3361.7244L13593.6063,-3361.7128L13593.5977,-3361.7064L13593.5883,-3361.6942L13593.5746,-3361.6755L13593.5587,-3361.6746L13593.5454,-3361.6798L13593.5044,-3361.6961L13593.4356,-3361.7248L13593.4234,-3361.7306L13593.4173,-3361.7398L13593.4035,-3361.7612L13593.3951,-3361.7722L13593.3838,-3361.7788L13593.3838,-3361.2671Z"/>
<path content="和歌山県,,東牟婁郡,太地町,,30422" xlink:title="和歌山県" d="M13593.5454,-3361.6798L13593.5587,-3361.6746L13593.5746,-3361.6755L13593.5883,-3361.6942L13593.5977,-3361.7064L13593.6063,-3361.7128L13593.6552,-3361.7244L13593.6554,-3361.7235L13593.6557,-3361.7228L13593.6561,-3361.7222L13593.6562,-3361.7221L13593.657,-3361.7214L13593.6583,-3361.7205L13593.6586,-3361.7203L13593.6592,-3361.7195L13593.6598,-3361.7182L13593.6603,-3361.7164L13593.6605,-3361.7155L13593.6606,-3361.7145L13593.6604,-3361.7139L13593.66,-3361.7133L13593.6595,-3361.7128L13593.6587,-3361.7122L13593.6582,-3361.7119L13593.6566,-3361.7112L13593.6527,-3361.7098L13593.6512,-3361.7091L13593.65,-3361.7084L13593.6479,-3361.7069L13593.6459,-3361.7055L13593.6439,-3361.7043L13593.6418,-3361.7031L13593.6396,-3361.7019L13593.6379,-3361.7009L13593.6374,-3361.6983L13593.6374,-3361.6955L13593.6379,-3361.6924L13593.639,-3361.6925L13593.6398,-3361.6921L13593.6401,-3361.6916L13593.6411,-3361.6914L13593.6418,-3361.6911L13593.6419,-3361.6904L13593.6424,-3361.6902L13593.6434,-3361.6892L13593.6433,-3361.6878L13593.644,-3361.6872L13593.6442,-3361.6863L13593.6437,-3361.6855L13593.6445,-3361.6848L13593.6444,-3361.6837L13593.6446,-3361.6829L13593.6453,-3361.6823L13593.6458,-3361.681L13593.6455,-3361.6802L13593.645,-3361.6793L13593.6457,-3361.6781L13593.6456,-3361.6771L13593.6451,-3361.6766L13593.6459,-3361.6759L13593.6457,-3361.6751L13593.6451,-3361.6747L13593.6454,-3361.6741L13593.6452,-3361.6732L13593.6451,-3361.6726L13593.6455,-3361.6717L13593.6454,-3361.6704L13593.6449,-3361.6697L13593.6454,-3361.6687L13593.6449,-3361.6678L13593.6453,-3361.6667L13593.6454,-3361.6663L13593.6447,-3361.6652L13593.6455,-3361.6622L13593.6561,-3361.6515L13593.671,-3361.6374L13593.6746,-3361.6364L13593.679,-3361.6359L13593.681,-3361.6363L13593.6815,-3361.6364L13593.6854,-3361.6363L13593.6894,-3361.6359L13593.6917,-3361.6368L13593.694,-3361.6368L13593.695,-3361.6362L13593.6964,-3361.6358L13593.6973,-3361.6354L13593.6984,-3361.635L13593.6993,-3361.6343L13593.7002,-3361.6333L13593.7013,-3361.6331L13593.7017,-3361.6326L13593.7031,-3361.6321L13593.7043,-3361.6316L13593.7047,-3361.6299L13593.7061,-3361.6289L13593.7061,-3361.6274L13593.7062,-3361.6257L13593.7053,-3361.6247L13593.705,-3361.6238L13593.7046,-3361.623L13593.7051,-3361.623L13593.7054,-3361.6224L13593.7063,-3361.6221L13593.7066,-3361.6207L13593.7092,-3361.6208L13593.7107,-3361.6198L13593.7115,-3361.6192L13593.7126,-3361.6174L13593.7125,-3361.616L13593.7129,-3361.6158L13593.7132,-3361.6152L13593.7144,-3361.6152L13593.7161,-3361.6146L13593.7163,-3361.6155L13593.7173,-3361.6163L13593.7178,-3361.6172L13593.7193,-3361.6178L13593.7207,-3361.6181L13593.7213,-3361.6189L13593.7232,-3361.6196L13593.7246,-3361.6198L13593.7255,-3361.6201L13593.7268,-3361.6201L13593.7277,-3361.6198L13593.7293,-3361.62L13593.7309,-3361.6194L13593.7319,-3361.6183L13593.7338,-3361.6182L13593.7349,-3361.617L13593.7352,-3361.6164L13593.7355,-3361.6162L13593.7363,-3361.6167L13593.7381,-3361.6172L13593.7396,-3361.6179L13593.7406,-3361.6189L13593.7421,-3361.6188L13593.7427,-3361.6178L13593.7418,-3361.6167L13593.7401,-3361.6156L13593.7399,-3361.614L13593.7398,-3361.6118L13593.7393,-3361.6091L13593.739,-3361.6076L13593.7386,-3361.6066L13593.7387,-3361.606L13593.7385,-3361.605L13593.7376,-3361.6043L13593.7373,-3361.6033L13593.7363,-3361.6029L13593.7363,-3361.602L13593.736,-3361.6016L13593.7374,-3361.6012L13593.7383,-3361.6005L13593.7391,-3361.6005L13593.7407,-3361.5999L13593.742,-3361.5987L13593.7435,-3361.5985L13593.7445,-3361.598L13593.7463,-3361.5981L13593.7477,-3361.598L13593.7492,-3361.5977L13593.7503,-3361.5978L13593.7519,-3361.5978L13593.7528,-3361.5974L13593.7536,-3361.5975L13593.7545,-3361.5975L13593.7563,-3361.5978L13593.7578,-3361.5979L13593.7591,-3361.5978L13593.7604,-3361.5981L13593.7624,-3361.5981L13593.7638,-3361.5975L13593.7654,-3361.5979L13593.7671,-3361.5979L13593.768,-3361.5983L13593.7693,-3361.5986L13593.7707,-3361.5986L13593.7716,-3361.5979L13593.7738,-3361.5985L13593.7758,-3361.5985L13593.7775,-3361.5991L13593.7797,-3361.5993L13593.7813,-3361.5999L13593.7832,-3361.5999L13593.7843,-3361.6002L13593.7862,-3361.6001L13593.788,-3361.6007L13593.7894,-3361.6007L13593.7906,-3361.6014L13593.7932,-3361.6011L13593.7952,-3361.6023L13593.7965,-3361.6024L13593.7981,-3361.6031L13593.8004,-3361.6036L13593.8034,-3361.6038L13593.8046,-3361.6047L13593.8071,-3361.605L13593.8091,-3361.6056L13593.8104,-3361.6056L13593.811,-3361.6065L13593.8121,-3361.6067L13593.8127,-3361.607L13593.8141,-3361.6075L13593.8152,-3361.6078L13593.8171,-3361.6078L13593.8182,-3361.6079L13593.8196,-3361.6074L13593.8207,-3361.6078L13593.8221,-3361.6078L13593.8227,-3361.6073L13593.8236,-3361.6072L13593.8251,-3361.6066L13593.826,-3361.6058L13593.8279,-3361.6057L13593.8292,-3361.6049L13593.8313,-3361.6048L13593.8326,-3361.6041L13593.835,-3361.6042L13593.8361,-3361.6034L13593.8371,-3361.6034L13593.8378,-3361.6031L13593.8397,-3361.6031L13593.8413,-3361.604L13593.8436,-3361.6038L13593.8456,-3361.6029L13593.847,-3361.6012L13593.8466,-3361.599L13593.8457,-3361.5982L13593.8455,-3361.5966L13593.8449,-3361.5959L13593.844,-3361.5954L13593.8437,-3361.5943L13593.8425,-3361.593L13593.8414,-3361.5919L13593.8395,-3361.5916L13593.8397,-3361.5903L13593.8392,-3361.5894L13593.8396,-3361.5877L13593.8386,-3361.5868L13593.8395,-3361.5854L13593.8392,-3361.5841L13593.8398,-3361.5822L13593.8405,-3361.581L13593.8407,-3361.5796L13593.8403,-3361.5786L13593.8407,-3361.5781L13593.8404,-3361.5768L13593.8412,-3361.5754L13593.8404,-3361.5745L13593.8404,-3361.5728L13593.8403,-3361.5715L13593.8402,-3361.5709L13593.8401,-3361.5696L13593.8392,-3361.5687L13593.8391,-3361.5681L13593.8385,-3361.5673L13593.8374,-3361.5666L13593.8333,-3361.5667L13593.8304,-3361.5669L13593.8263,-3361.5675L13593.8258,-3361.5671L13593.8242,-3361.5673L13593.8228,-3361.5667L13593.821,-3361.5671L13593.82,-3361.5661L13593.8189,-3361.5659L13593.8189,-3361.5655L13593.8193,-3361.5651L13593.8202,-3361.5644L13593.8218,-3361.5636L13593.8228,-3361.5624L13593.8239,-3361.5615L13593.8242,-3361.56L13593.8249,-3361.5596L13593.8254,-3361.558L13593.8264,-3361.5573L13593.8273,-3361.5559L13593.8279,-3361.5548L13593.8289,-3361.5546L13593.8296,-3361.5539L13593.83,-3361.5539L13593.8301,-3361.5547L13593.8312,-3361.5553L13593.8315,-3361.5565L13593.8329,-3361.5572L13593.8345,-3361.5574L13593.8349,-3361.5581L13593.836,-3361.5586L13593.8371,-3361.5586L13593.8383,-3361.5587L13593.8405,-3361.5581L13593.8409,-3361.5568L13593.8402,-3361.5557L13593.8405,-3361.5546L13593.8402,-3361.554L13593.8401,-3361.5534L13593.8397,-3361.5522L13593.8385,-3361.5513L13593.8382,-3361.5504L13593.8369,-3361.5493L13593.8358,-3361.5485L13593.8368,-3361.5484L13593.8378,-3361.5482L13593.8399,-3361.5481L13593.8408,-3361.5472L13593.8425,-3361.5461L13593.843,-3361.546L13593.8431,-3361.5467L13593.8439,-3361.5477L13593.8438,-3361.5488L13593.8448,-3361.5492L13593.8464,-3361.5492L13593.8472,-3361.5488L13593.8483,-3361.5472L13593.8486,-3361.5453L13593.8487,-3361.5441L13593.8496,-3361.5424L13593.8493,-3361.5409L13593.8488,-3361.5407L13593.849,-3361.5404L13593.849,-3361.5389L13593.8501,-3361.5382L13593.8513,-3361.5373L13593.8524,-3361.5366L13593.853,-3361.5354L13593.8541,-3361.5344L13593.8543,-3361.5331L13593.8555,-3361.5314L13593.8555,-3361.5298L13593.8543,-3361.5289L13593.8526,-3361.5289L13593.8511,-3361.5298L13593.8509,-3361.5308L13593.85,-3361.5313L13593.8489,-3361.5325L13593.8489,-3361.5332L13593.8481,-3361.5332L13593.8478,-3361.5334L13593.8475,-3361.5326L13593.8477,-3361.5316L13593.8479,-3361.53L13593.8473,-3361.5294L13593.8476,-3361.5274L13593.847,-3361.5263L13593.847,-3361.5255L13593.8466,-3361.5241L13593.8457,-3361.5233L13593.8455,-3361.5221L13593.8449,-3361.5213L13593.8447,-3361.5206L13593.8442,-3361.5197L13593.8434,-3361.5192L13593.8437,-3361.5184L13593.8435,-3361.5175L13593.8443,-3361.5163L13593.8441,-3361.5145L13593.845,-3361.5137L13593.8451,-3361.5119L13593.8457,-3361.5113L13593.8465,-3361.51L13593.8476,-3361.509L13593.8477,-3361.5079L13593.8481,-3361.5078L13593.8492,-3361.5072L13593.8497,-3361.5064L13593.8504,-3361.506L13593.8512,-3361.5057L13593.8518,-3361.505L13593.852,-3361.5048L13593.853,-3361.5048L13593.8543,-3361.5042L13593.8546,-3361.5039L13593.8557,-3361.5028L13593.8573,-3361.5028L13593.8602,-3361.5019L13593.8608,-3361.502L13593.8616,-3361.5026L13593.8642,-3361.5026L13593.8648,-3361.5029L13593.8661,-3361.5025L13593.8684,-3361.5021L13593.8691,-3361.5013L13593.8708,-3361.5012L13593.872,-3361.4997L13593.8723,-3361.499L13593.8722,-3361.4985L13593.8729,-3361.4977L13593.8733,-3361.497L13593.8735,-3361.4961L13593.8735,-3361.4952L13593.8742,-3361.4946L13593.8741,-3361.4938L13593.8749,-3361.4928L13593.8753,-3361.4921L13593.8754,-3361.4904L13593.875,-3361.4897L13593.8754,-3361.4891L13593.8759,-3361.4879L13593.8755,-3361.4872L13593.8761,-3361.4861L13593.876,-3361.4853L13593.8754,-3361.4847L13593.8756,-3361.4839L13593.8756,-3361.4831L13593.8752,-3361.482L13593.8754,-3361.4812L13593.875,-3361.4802L13593.8744,-3361.4797L13593.8746,-3361.4791L13593.8745,-3361.478L13593.8737,-3361.4773L13593.8736,-3361.4767L13593.8732,-3361.4763L13593.8733,-3361.4759L13593.873,-3361.4751L13593.8737,-3361.4742L13593.8737,-3361.4731L13593.8733,-3361.4717L13593.8721,-3361.4711L13593.8725,-3361.4701L13593.8721,-3361.469L13593.8718,-3361.4686L13593.8716,-3361.4677L13593.8704,-3361.4673L13593.8697,-3361.4659L13593.8689,-3361.4653L13593.8688,-3361.4644L13593.8676,-3361.4633L13593.8665,-3361.4631L13593.8662,-3361.4623L13593.8646,-3361.4598L13593.8634,-3361.4596L13593.8612,-3361.4596L13593.8604,-3361.4603L13593.8592,-3361.4618L13593.8589,-3361.4624L13593.8577,-3361.4625L13593.8568,-3361.4632L13593.8561,-3361.4632L13593.8552,-3361.4626L13593.8541,-3361.4624L13593.8528,-3361.463L13593.8518,-3361.4628L13593.8504,-3361.4629L13593.8489,-3361.4635L13593.8482,-3361.4649L13593.8475,-3361.4661L13593.8466,-3361.4663L13593.8459,-3361.4663L13593.8452,-3361.4661L13593.8449,-3361.4652L13593.8437,-3361.4642L13593.8428,-3361.4641L13593.8424,-3361.4634L13593.8418,-3361.4631L13593.841,-3361.4627L13593.8402,-3361.4626L13593.8404,-3361.4619L13593.8399,-3361.4609L13593.8387,-3361.4602L13593.8377,-3361.4601L13593.8371,-3361.4593L13593.8358,-3361.4588L13593.8347,-3361.4588L13593.8339,-3361.4582L13593.8326,-3361.458L13593.8317,-3361.4581L13593.8312,-3361.4577L13593.8303,-3361.4574L13593.8297,-3361.4574L13593.8295,-3361.4567L13593.8283,-3361.4563L13593.8269,-3361.4565L13593.8258,-3361.4563L13593.8243,-3361.4565L13593.824,-3361.4567L13593.8231,-3361.4565L13593.822,-3361.4565L13593.8209,-3361.4568L13593.82,-3361.4572L13593.8186,-3361.4571L13593.8169,-3361.4582L13593.8157,-3361.4582L13593.8147,-3361.4587L13593.8136,-3361.4596L13593.8122,-3361.4596L13593.8115,-3361.46L13593.8109,-3361.46L13593.8094,-3361.4612L13593.8088,-3361.4611L13593.8085,-3361.4614L13593.8073,-3361.4614L13593.8062,-3361.4623L13593.8059,-3361.4622L13593.8055,-3361.4614L13593.8057,-3361.4605L13593.8055,-3361.4596L13593.806,-3361.4587L13593.8055,-3361.4577L13593.8055,-3361.4569L13593.8059,-3361.4563L13593.8061,-3361.455L13593.807,-3361.454L13593.8075,-3361.4528L13593.8084,-3361.4517L13593.8085,-3361.4511L13593.8095,-3361.4503L13593.8106,-3361.4495L13593.8116,-3361.4485L13593.8119,-3361.4479L13593.8126,-3361.4489L13593.8137,-3361.4496L13593.8143,-3361.4497L13593.8148,-3361.4509L13593.8157,-3361.4513L13593.8165,-3361.4523L13593.8175,-3361.4527L13593.8189,-3361.4523L13593.8195,-3361.4516L13593.8196,-3361.451L13593.8198,-3361.45L13593.8197,-3361.4499L13593.8209,-3361.45L13593.8218,-3361.4492L13593.8219,-3361.4482L13593.8222,-3361.4478L13593.8234,-3361.447L13593.8236,-3361.446L13593.8236,-3361.4455L13593.8246,-3361.4452L13593.8255,-3361.444L13593.826,-3361.4425L13593.826,-3361.4415L13593.8265,-3361.4411L13593.8268,-3361.4399L13593.8261,-3361.4392L13593.8262,-3361.4384L13593.8254,-3361.4377L13593.8252,-3361.4374L13593.8258,-3361.4367L13593.8273,-3361.4366L13593.8281,-3361.4376L13593.8295,-3361.4379L13593.8306,-3361.4372L13593.831,-3361.4363L13593.8309,-3361.4348L13593.8305,-3361.4342L13593.831,-3361.4341L13593.8314,-3361.4329L13593.8314,-3361.4317L13593.8311,-3361.4312L13593.8315,-3361.4304L13593.8317,-3361.4289L13593.8312,-3361.4275L13593.8316,-3361.4273L13593.8318,-3361.4263L13593.8324,-3361.4267L13593.8338,-3361.4271L13593.8348,-3361.4262L13593.8358,-3361.4248L13593.8365,-3361.4233L13593.8368,-3361.4216L13593.8368,-3361.4208L13593.8361,-3361.4193L13593.8348,-3361.4187L13593.8349,-3361.4179L13593.834,-3361.417L13593.8331,-3361.4165L13593.8332,-3361.4157L13593.8328,-3361.4147L13593.8325,-3361.4144L13593.8334,-3361.4136L13593.8343,-3361.4123L13593.8352,-3361.4106L13593.8363,-3361.4087L13593.8372,-3361.4078L13593.8374,-3361.4066L13593.8381,-3361.406L13593.8386,-3361.4046L13593.8384,-3361.4028L13593.8382,-3361.4014L13593.8368,-3361.4001L13593.8352,-3361.3992L13593.8344,-3361.399L13593.8342,-3361.398L13593.8325,-3361.3967L13593.8316,-3361.3957L13593.8316,-3361.3951L13593.8326,-3361.3942L13593.8328,-3361.3924L13593.8328,-3361.3914L13593.8332,-3361.3903L13593.8328,-3361.3887L13593.8309,-3361.3869L13593.831,-3361.3856L13593.8302,-3361.3843L13593.8293,-3361.3839L13593.8291,-3361.3827L13593.8279,-3361.382L13593.8273,-3361.3819L13593.8271,-3361.3805L13593.8261,-3361.3792L13593.825,-3361.3788L13593.8247,-3361.3777L13593.8235,-3361.3774L13593.8235,-3361.3761L13593.8217,-3361.3751L13593.8209,-3361.3744L13593.8197,-3361.3742L13593.8194,-3361.3741L13593.8189,-3361.373L13593.8185,-3361.3721L13593.8173,-3361.3715L13593.8165,-3361.3714L13593.8162,-3361.3704L13593.8152,-3361.3699L13593.8146,-3361.3698L13593.8142,-3361.3683L13593.8132,-3361.3672L13593.8123,-3361.3667L13593.8121,-3361.3657L13593.8114,-3361.3651L13593.8101,-3361.3651L13593.8098,-3361.3644L13593.8089,-3361.3635L13593.8077,-3361.3628L13593.8072,-3361.3618L13593.8061,-3361.3612L13593.8038,-3361.361L13593.8032,-3361.3601L13593.8018,-3361.3594L13593.7998,-3361.3594L13593.799,-3361.3596L13593.7978,-3361.3593L13593.7964,-3361.3597L13593.7958,-3361.3604L13593.7937,-3361.3605L13593.7922,-3361.3609L13593.7915,-3361.3616L13593.7915,-3361.3623L13593.7927,-3361.3629L13593.7939,-3361.3642L13593.7944,-3361.3649L13593.7956,-3361.3652L13593.7958,-3361.3657L13593.7959,-3361.3674L13593.7965,-3361.3678L13593.7961,-3361.3684L13593.7959,-3361.369L13593.7948,-3361.3691L13593.7941,-3361.3691L13593.7938,-3361.3685L13593.7927,-3361.3677L13593.7918,-3361.3674L13593.7915,-3361.3663L13593.7904,-3361.365L13593.7887,-3361.3646L13593.7876,-3361.3636L13593.7864,-3361.363L13593.785,-3361.3634L13593.7844,-3361.3634L13593.7831,-3361.3634L13593.7812,-3361.3645L13593.7808,-3361.3654L13593.7808,-3361.3665L13593.7824,-3361.3675L13593.7846,-3361.3677L13593.7863,-3361.3685L13593.7863,-3361.3693L13593.7866,-3361.3704L13593.7867,-3361.3715L13593.7873,-3361.3725L13593.7864,-3361.374L13593.7865,-3361.375L13593.7855,-3361.3755L13593.7854,-3361.3758L13593.7845,-3361.376L13593.7839,-3361.3765L13593.7829,-3361.3771L13593.7825,-3361.3776L13593.7813,-3361.3775L13593.7796,-3361.3783L13593.7788,-3361.3784L13593.7775,-3361.379L13593.7766,-3361.3801L13593.7754,-3361.3804L13593.7747,-3361.3807L13593.7735,-3361.3806L13593.7722,-3361.3808L13593.7713,-3361.3815L13593.7702,-3361.3822L13593.7698,-3361.3833L13593.7689,-3361.3838L13593.7686,-3361.3846L13593.7685,-3361.385L13593.7673,-3361.3851L13593.7666,-3361.3856L13593.7654,-3361.3852L13593.7636,-3361.3857L13593.763,-3361.3864L13593.7617,-3361.3865L13593.7606,-3361.3874L13593.7604,-3361.3878L13593.759,-3361.3878L13593.7576,-3361.3888L13593.7566,-3361.3892L13593.7559,-3361.3911L13593.7561,-3361.3929L13593.7557,-3361.3945L13593.7559,-3361.3959L13593.7551,-3361.3968L13593.7546,-3361.3976L13593.7547,-3361.3978L13593.7534,-3361.3983L13593.7525,-3361.3993L13593.7525,-3361.4001L13593.752,-3361.4004L13593.751,-3361.4017L13593.7509,-3361.4025L13593.7494,-3361.4028L13593.7486,-3361.4039L13593.7483,-3361.4048L13593.7472,-3361.4048L13593.7463,-3361.4053L13593.7461,-3361.4055L13593.7448,-3361.4047L13593.7435,-3361.4045L13593.7426,-3361.4041L13593.7407,-3361.4041L13593.7402,-3361.4034L13593.739,-3361.4028L13593.7377,-3361.4027L13593.7369,-3361.402L13593.7356,-3361.4018L13593.7354,-3361.4018L13593.7352,-3361.4011L13593.7351,-3361.401L13593.7355,-3361.4008L13593.7355,-3361.3998L13593.7353,-3361.3995L13593.7364,-3361.3991L13593.7372,-3361.3982L13593.7374,-3361.3975L13593.738,-3361.3973L13593.7387,-3361.3965L13593.739,-3361.3955L13593.7379,-3361.3948L13593.7358,-3361.3944L13593.7344,-3361.395L13593.7335,-3361.396L13593.7319,-3361.3959L13593.7308,-3361.3964L13593.7299,-3361.3961L13593.729,-3361.3962L13593.7279,-3361.3971L13593.7269,-3361.397L13593.7254,-3361.3973L13593.7254,-3361.3972L13593.7253,-3361.3967L13593.7267,-3361.3962L13593.7266,-3361.3954L13593.728,-3361.3944L13593.7285,-3361.3935L13593.7284,-3361.393L13593.7292,-3361.3927L13593.73,-3361.3919L13593.7306,-3361.391L13593.7306,-3361.3907L13593.7315,-3361.3908L13593.733,-3361.391L13593.7337,-3361.3901L13593.7334,-3361.3888L13593.7326,-3361.3877L13593.7325,-3361.3865L13593.7318,-3361.3849L13593.7311,-3361.3846L13593.7309,-3361.3832L13593.7298,-3361.3826L13593.7293,-3361.3826L13593.7292,-3361.3814L13593.7281,-3361.3812L13593.7265,-3361.3817L13593.7257,-3361.3828L13593.7251,-3361.3832L13593.7246,-3361.3846L13593.7236,-3361.3845L13593.7223,-3361.3845L13593.7218,-3361.385L13593.7213,-3361.3844L13593.7203,-3361.3844L13593.7192,-3361.385L13593.7189,-3361.3863L13593.719,-3361.3881L13593.7183,-3361.3887L13593.7179,-3361.3899L13593.7166,-3361.3902L13593.7155,-3361.3911L13593.7145,-3361.3922L13593.7134,-3361.3924L13593.7121,-3361.3932L13593.7117,-3361.3951L13593.7112,-3361.396L13593.7113,-3361.3975L13593.7114,-3361.399L13593.7124,-3361.3998L13593.713,-3361.4002L13593.713,-3361.4007L13593.7132,-3361.4015L13593.7136,-3361.4018L13593.7127,-3361.4025L13593.7122,-3361.4033L13593.7123,-3361.4042L13593.7111,-3361.4047L13593.7106,-3361.4053L13593.709,-3361.4049L13593.707,-3361.4052L13593.7042,-3361.4052L13593.7032,-3361.4059L13593.7028,-3361.4071L13593.7031,-3361.4075L13593.7022,-3361.4082L13593.7019,-3361.4097L13593.7028,-3361.412L13593.7027,-3361.4141L13593.7033,-3361.4155L13593.703,-3361.4167L13593.703,-3361.4174L13593.701,-3361.418L13593.7001,-3361.4191L13593.6991,-3361.4191L13593.6978,-3361.4204L13593.6978,-3361.4217L13593.6975,-3361.4228L13593.6989,-3361.4244L13593.7001,-3361.4249L13593.7007,-3361.425L13593.7004,-3361.4258L13593.7011,-3361.4265L13593.7001,-3361.4273L13593.6997,-3361.4279L13593.6974,-3361.4278L13593.6962,-3361.4275L13593.694,-3361.428L13593.6931,-3361.429L13593.6932,-3361.4303L13593.6947,-3361.4318L13593.6956,-3361.4331L13593.6965,-3361.434L13593.6965,-3361.4349L13593.696,-3361.4359L13593.6964,-3361.4376L13593.696,-3361.4389L13593.6961,-3361.4398L13593.6972,-3361.4404L13593.6976,-3361.4404L13593.6985,-3361.442L13593.6992,-3361.4441L13593.6993,-3361.4472L13593.6988,-3361.4492L13593.6977,-3361.4504L13593.6942,-3361.4527L13593.6933,-3361.4529L13593.6926,-3361.4544L13593.6916,-3361.4554L13593.691,-3361.4562L13593.6903,-3361.4567L13593.6903,-3361.4578L13593.6901,-3361.4579L13593.6891,-3361.4579L13593.6881,-3361.4586L13593.6861,-3361.4577L13593.683,-3361.4574L13593.6817,-3361.457L13593.6811,-3361.4575L13593.6807,-3361.4578L13593.6802,-3361.4585L13593.6789,-3361.4591L13593.6775,-3361.4603L13593.6777,-3361.4627L13593.6789,-3361.4635L13593.6805,-3361.4646L13593.6811,-3361.4657L13593.6812,-3361.4658L13593.6817,-3361.4662L13593.6817,-3361.467L13593.6821,-3361.4672L13593.6815,-3361.4678L13593.6814,-3361.4685L13593.6811,-3361.4685L13593.6792,-3361.4687L13593.678,-3361.4695L13593.6774,-3361.4701L13593.676,-3361.4702L13593.6746,-3361.471L13593.6739,-3361.4707L13593.6722,-3361.4708L13593.6711,-3361.4714L13593.6706,-3361.4723L13593.6707,-3361.4736L13593.6725,-3361.4754L13593.6726,-3361.4765L13593.6732,-3361.4775L13593.6738,-3361.4779L13593.6737,-3361.4787L13593.6741,-3361.4797L13593.6741,-3361.4811L13593.675,-3361.4819L13593.675,-3361.4842L13593.6754,-3361.4852L13593.675,-3361.4863L13593.675,-3361.487L13593.6742,-3361.4879L13593.6739,-3361.4896L13593.6726,-3361.4899L13593.6708,-3361.4914L13593.6699,-3361.4922L13593.6684,-3361.492L13593.6674,-3361.4923L13593.6659,-3361.4916L13593.6637,-3361.4917L13593.6625,-3361.491L13593.6603,-3361.4909L13593.6586,-3361.4903L13593.6552,-3361.49L13593.6531,-3361.4903L13593.6508,-3361.4898L13593.6492,-3361.4901L13593.6481,-3361.4899L13593.6465,-3361.4904L13593.6465,-3361.4915L13593.6475,-3361.4922L13593.6492,-3361.4932L13593.6515,-3361.4931L13593.6524,-3361.4936L13593.6586,-3361.4936L13593.6587,-3361.494L13593.658,-3361.4945L13593.6557,-3361.4938L13593.6537,-3361.4945L13593.6513,-3361.494L13593.6498,-3361.494L13593.6489,-3361.4945L13593.6473,-3361.494L13593.6461,-3361.4946L13593.6442,-3361.4944L13593.6425,-3361.4953L13593.6406,-3361.4953L13593.6399,-3361.4959L13593.6386,-3361.4962L13593.6371,-3361.4975L13593.6369,-3361.4995L13593.6361,-3361.501L13593.6374,-3361.5028L13593.6369,-3361.5036L13593.637,-3361.5037L13593.6376,-3361.5046L13593.6375,-3361.5055L13593.6366,-3361.5058L13593.6355,-3361.5071L13593.6358,-3361.5082L13593.6368,-3361.5099L13593.5951,-3361.5167L13593.5936,-3361.5156L13593.5912,-3361.5152L13593.5901,-3361.5147L13593.5881,-3361.5151L13593.5864,-3361.5146L13593.5854,-3361.5147L13593.5841,-3361.5145L13593.583,-3361.5149L13593.5819,-3361.515L13593.5803,-3361.5161L13593.5799,-3361.5167L13593.5784,-3361.5171L13593.5779,-3361.5174L13593.5771,-3361.517L13593.576,-3361.5176L13593.5748,-3361.5174L13593.5732,-3361.5177L13593.5718,-3361.5188L13593.5706,-3361.5187L13593.5692,-3361.5185L13593.5679,-3361.5193L13593.5673,-3361.5206L13593.5636,-3361.5187L13593.5594,-3361.5157L13593.5455,-3361.5057L13593.5432,-3361.5037L13593.5305,-3361.4924L13593.5064,-3361.4712L13593.4965,-3361.4627L13593.4656,-3361.435L13593.4479,-3361.4189L13593.4484,-3361.4176L13593.4475,-3361.4163L13593.4461,-3361.4157L13593.445,-3361.4161L13593.4441,-3361.4152L13593.4476,-3361.4094L13593.4548,-3361.3943L13593.4564,-3361.3943L13593.4578,-3361.3935L13593.4584,-3361.3921L13593.4583,-3361.3911L13593.4574,-3361.3905L13593.4586,-3361.3905L13593.4598,-3361.3894L13593.4605,-3361.3879L13593.4599,-3361.3869L13593.4611,-3361.387L13593.4626,-3361.3863L13593.4638,-3361.3869L13593.4657,-3361.3873L13593.4667,-3361.3867L13593.4668,-3361.3859L13593.4679,-3361.3866L13593.4689,-3361.386L13593.4697,-3361.3853L13593.4697,-3361.3846L13593.4713,-3361.3849L13593.4732,-3361.3846L13593.474,-3361.3834L13593.4757,-3361.3836L13593.4765,-3361.3833L13593.4767,-3361.382L13593.4786,-3361.3821L13593.4795,-3361.3813L13593.4814,-3361.3824L13593.4836,-3361.3821L13593.4853,-3361.3826L13593.4867,-3361.3825L13593.4875,-3361.3821L13593.4893,-3361.3827L13593.4906,-3361.3824L13593.4918,-3361.3828L13593.4937,-3361.3826L13593.4949,-3361.382L13593.4955,-3361.381L13593.495,-3361.3791L13593.4957,-3361.379L13593.4978,-3361.3794L13593.4987,-3361.3788L13593.5003,-3361.3787L13593.5011,-3361.3778L13593.5011,-3361.3769L13593.5003,-3361.376L13593.5008,-3361.376L13593.502,-3361.3764L13593.5035,-3361.3762L13593.5044,-3361.3759L13593.5051,-3361.3748L13593.5046,-3361.3738L13593.5036,-3361.3727L13593.5044,-3361.372L13593.5042,-3361.3709L13593.5048,-3361.3702L13593.5062,-3361.3703L13593.5085,-3361.3694L13593.5092,-3361.3677L13593.5089,-3361.3664L13593.5079,-3361.366L13593.5079,-3361.3652L13593.5073,-3361.3643L13593.5059,-3361.3639L13593.5049,-3361.3636L13593.504,-3361.3624L13593.5032,-3361.3617L13593.5034,-3361.3609L13593.5024,-3361.3602L13593.5038,-3361.3593L13593.5055,-3361.359L13593.5066,-3361.3585L13593.5085,-3361.3584L13593.5105,-3361.3578L13593.5117,-3361.3579L13593.5143,-3361.3569L13593.5145,-3361.3556L13593.5131,-3361.3548L13593.5111,-3361.3544L13593.5096,-3361.3537L13593.5068,-3361.3534L13593.5086,-3361.3526L13593.51,-3361.353L13593.5116,-3361.3526L13593.5128,-3361.3532L13593.5151,-3361.3526L13593.5169,-3361.3533L13593.519,-3361.3534L13593.5209,-3361.353L13593.5214,-3361.3527L13593.5231,-3361.3526L13593.5244,-3361.3518L13593.5251,-3361.3511L13593.5269,-3361.351L13593.5284,-3361.3499L13593.5302,-3361.3493L13593.5304,-3361.3483L13593.5317,-3361.3478L13593.5321,-3361.3473L13593.5333,-3361.3467L13593.5343,-3361.3455L13593.5342,-3361.3447L13593.533,-3361.3437L13593.5329,-3361.3423L13593.5319,-3361.3422L13593.5314,-3361.341L13593.5301,-3361.3409L13593.5292,-3361.3398L13593.527,-3361.3399L13593.5269,-3361.3389L13593.5251,-3361.3378L13593.5236,-3361.3375L13593.5219,-3361.3367L13593.52,-3361.3366L13593.5196,-3361.3358L13593.5183,-3361.3355L13593.5176,-3361.3355L13593.5169,-3361.3352L13593.5176,-3361.3346L13593.5176,-3361.3343L13593.5189,-3361.3342L13593.5203,-3361.3335L13593.5216,-3361.3338L13593.5231,-3361.3332L13593.5241,-3361.3323L13593.5254,-3361.3318L13593.5266,-3361.3304L13593.5268,-3361.329L13593.5279,-3361.3283L13593.5281,-3361.3273L13593.5293,-3361.3265L13593.5298,-3361.3255L13593.5308,-3361.3257L13593.5316,-3361.3256L13593.5324,-3361.3269L13593.5335,-3361.3271L13593.5336,-3361.3285L13593.5349,-3361.3293L13593.5361,-3361.3297L13593.538,-3361.3288L13593.5383,-3361.3271L13593.5382,-3361.326L13593.5389,-3361.3254L13593.539,-3361.3241L13593.5388,-3361.3234L13593.5391,-3361.3223L13593.5382,-3361.3215L13593.5388,-3361.3206L13593.5388,-3361.3199L13593.5377,-3361.3188L13593.5363,-3361.3186L13593.5357,-3361.3178L13593.5354,-3361.3177L13593.5364,-3361.3166L13593.5361,-3361.3161L13593.5372,-3361.3153L13593.5375,-3361.3137L13593.539,-3361.3124L13593.5392,-3361.311L13593.5384,-3361.3105L13593.5396,-3361.3092L13593.5408,-3361.3072L13593.5405,-3361.3056L13593.5386,-3361.3049L13593.5383,-3361.3039L13593.5369,-3361.3036L13593.5357,-3361.3043L13593.5344,-3361.3037L13593.5349,-3361.3028L13593.5368,-3361.3031L13593.5384,-3361.3034L13593.54,-3361.3032L13593.5405,-3361.304L13593.5423,-3361.3045L13593.5433,-3361.3043L13593.544,-3361.3049L13593.546,-3361.3049L13593.5466,-3361.3047L13593.5471,-3361.3055L13593.5485,-3361.3059L13593.5494,-3361.3059L13593.5496,-3361.3045L13593.5488,-3361.3038L13593.5495,-3361.3027L13593.5482,-3361.3016L13593.5477,-3361.3002L13593.5457,-3361.3002L13593.5448,-3361.3002L13593.5442,-3361.2997L13593.5419,-3361.2995L13593.5419,-3361.2987L13593.5423,-3361.2965L13593.5442,-3361.2944L13593.5467,-3361.2945L13593.5472,-3361.2936L13593.546,-3361.2921L13593.5451,-3361.2919L13593.5453,-3361.2906L13593.5467,-3361.2891L13593.5472,-3361.2879L13593.5466,-3361.2863L13593.5466,-3361.2857L13593.5484,-3361.2856L13593.5504,-3361.2867L13593.5539,-3361.2874L13593.556,-3361.2888L13593.5593,-3361.2884L13593.5602,-3361.29L13593.5633,-3361.2907L13593.5681,-3361.2908L13593.5702,-3361.2902L13593.5725,-3361.2904L13593.5737,-3361.2901L13593.5755,-3361.29L13593.5765,-3361.2897L13593.578,-3361.2901L13593.579,-3361.2889L13593.5791,-3361.2874L13593.5782,-3361.2868L13593.5772,-3361.285L13593.5756,-3361.2845L13593.5737,-3361.2849L13593.5722,-3361.2839L13593.5709,-3361.2837L13593.5696,-3361.2827L13593.568,-3361.2826L13593.5662,-3361.2816L13593.5642,-3361.2816L13593.5627,-3361.2823L13593.5615,-3361.2816L13593.5595,-3361.2815L13593.5582,-3361.2803L13593.5559,-3361.2804L13593.554,-3361.2795L13593.5528,-3361.2795L13593.5512,-3361.2784L13593.5477,-3361.2781L13593.546,-3361.2776L13593.5458,-3361.2767L13593.5455,-3361.2759L13593.5465,-3361.2751L13593.5484,-3361.2749L13593.551,-3361.2747L13593.5519,-3361.2744L13593.5533,-3361.2754L13593.5546,-3361.2755L13593.5563,-3361.2749L13593.5575,-3361.2752L13593.5591,-3361.2748L13593.5619,-3361.2752L13593.5633,-3361.2745L13593.5645,-3361.2749L13593.5653,-3361.2749L13593.5674,-3361.2759L13593.569,-3361.2754L13593.5696,-3361.2751L13593.5709,-3361.2753L13593.5715,-3361.2755L13593.5731,-3361.2753L13593.5747,-3361.2752L13593.5765,-3361.2749L13593.5775,-3361.2751L13593.5826,-3361.2754L13593.5838,-3361.2745L13593.5853,-3361.2747L13593.5876,-3361.2755L13593.5887,-3361.2754L13593.5893,-3361.275L13593.5893,-3361.2741L13593.5866,-3361.2729L13593.5853,-3361.2722L13593.5833,-3361.2722L13593.5816,-3361.2714L13593.5787,-3361.2712L13593.5772,-3361.2709L13593.576,-3361.2709L13593.5746,-3361.27L13593.5724,-3361.27L13593.5717,-3361.2699L13593.5711,-3361.2699L13593.5713,-3361.2692L13593.5693,-3361.2678L13593.5693,-3361.2671L13593.5714,-3361.2671L13593.5735,-3361.2678L13593.5748,-3361.2678L13593.5742,-3361.2675L13593.5733,-3361.2671L13593.4946,-3361.2671L13593.4924,-3361.2687L13593.4881,-3361.2702L13593.4853,-3361.2717L13593.4823,-3361.2746L13593.4794,-3361.2774L13593.4737,-3361.2797L13593.4706,-3361.2805L13593.4689,-3361.2829L13593.4677,-3361.2867L13593.4647,-3361.2914L13593.4599,-3361.2964L13593.4552,-3361.3044L13593.4522,-3361.3096L13593.4506,-3361.3136L13593.449,-3361.3175L13593.4454,-3361.3238L13593.4433,-3361.3273L13593.4424,-3361.3318L13593.4385,-3361.3341L13593.4365,-3361.3358L13593.4339,-3361.3392L13593.4299,-3361.3406L13593.4248,-3361.3425L13593.4193,-3361.345L13593.4152,-3361.3462L13593.4112,-3361.3465L13593.4065,-3361.3479L13593.4042,-3361.3479L13593.4021,-3361.3472L13593.3995,-3361.3455L13593.398,-3361.3455L13593.3955,-3361.3465L13593.394,-3361.3465L13593.3924,-3361.346L13593.3894,-3361.3437L13593.3874,-3361.343L13593.3838,-3361.3428L13593.3838,-3361.7788L13593.3951,-3361.7722L13593.4035,-3361.7612L13593.4173,-3361.7398L13593.4234,-3361.7306L13593.4356,-3361.7248L13593.5044,-3361.6961L13593.5454,-3361.6798Z"/>
<path content="和歌山県,,東牟婁郡,太地町,,30422" xlink:title="和歌山県" d="M13593.8832,-3361.4637L13593.8849,-3361.4635L13593.8858,-3361.4636L13593.8876,-3361.4635L13593.8889,-3361.4627L13593.8907,-3361.4626L13593.892,-3361.4618L13593.8926,-3361.4611L13593.8938,-3361.4606L13593.8948,-3361.4597L13593.8951,-3361.459L13593.8962,-3361.4586L13593.8969,-3361.4575L13593.897,-3361.4566L13593.8979,-3361.4558L13593.8983,-3361.4548L13593.8984,-3361.4535L13593.8981,-3361.4531L13593.8989,-3361.4529L13593.8994,-3361.4517L13593.8993,-3361.4509L13593.9006,-3361.4499L13593.9007,-3361.4487L13593.9015,-3361.4477L13593.9025,-3361.4461L13593.9031,-3361.4448L13593.9041,-3361.4442L13593.9045,-3361.443L13593.9044,-3361.4425L13593.9055,-3361.4418L13593.9062,-3361.4408L13593.9067,-3361.4393L13593.9062,-3361.4382L13593.9051,-3361.4379L13593.9049,-3361.4379L13593.905,-3361.4368L13593.9043,-3361.4364L13593.9042,-3361.4356L13593.904,-3361.4349L13593.9038,-3361.4339L13593.9044,-3361.4331L13593.9054,-3361.4322L13593.9057,-3361.4316L13593.9064,-3361.4314L13593.9071,-3361.4306L13593.9074,-3361.4293L13593.9096,-3361.4292L13593.9114,-3361.4287L13593.9132,-3361.4274L13593.9136,-3361.4262L13593.9137,-3361.4244L13593.9129,-3361.4232L13593.9113,-3361.4229L13593.9085,-3361.4231L13593.9061,-3361.4243L13593.905,-3361.4252L13593.9041,-3361.4266L13593.904,-3361.4273L13593.9032,-3361.4276L13593.902,-3361.4285L13593.9007,-3361.4284L13593.8994,-3361.4287L13593.8986,-3361.4294L13593.8983,-3361.4299L13593.897,-3361.4299L13593.8959,-3361.4303L13593.8954,-3361.4307L13593.8941,-3361.4304L13593.8925,-3361.4302L13593.8914,-3361.431L13593.8904,-3361.4309L13593.8894,-3361.4315L13593.889,-3361.4322L13593.8867,-3361.4323L13593.8852,-3361.4324L13593.8839,-3361.434L13593.8826,-3361.4344L13593.8816,-3361.4351L13593.881,-3361.4358L13593.8794,-3361.4359L13593.8783,-3361.4365L13593.8779,-3361.4378L13593.8766,-3361.4379L13593.8757,-3361.4387L13593.8751,-3361.4394L13593.8737,-3361.44L13593.873,-3361.4413L13593.8732,-3361.4428L13593.8736,-3361.4434L13593.8738,-3361.4442L13593.8749,-3361.4448L13593.8754,-3361.445L13593.8754,-3361.4458L13593.8758,-3361.4468L13593.8755,-3361.448L13593.8767,-3361.4495L13593.8768,-3361.4504L13593.8769,-3361.452L13593.8781,-3361.4528L13593.8779,-3361.4543L13593.8785,-3361.4552L13593.8788,-3361.4569L13593.8797,-3361.4577L13593.8798,-3361.4587L13593.8805,-3361.4599L13593.8811,-3361.4604L13593.8811,-3361.4612L13593.8817,-3361.4622L13593.8822,-3361.4626L13593.8823,-3361.4633L13593.8832,-3361.4637Z"/>
<path content="和歌山県,,東牟婁郡,太地町,,30422" xlink:title="和歌山県" d="M13593.6309,-3361.3028L13593.6323,-3361.3019L13593.6337,-3361.3016L13593.634,-3361.3005L13593.6345,-3361.3002L13593.6348,-3361.299L13593.6341,-3361.2977L13593.6324,-3361.2974L13593.6313,-3361.2967L13593.6298,-3361.2966L13593.6285,-3361.2958L13593.6276,-3361.2952L13593.6268,-3361.295L13593.626,-3361.2941L13593.6246,-3361.2938L13593.6234,-3361.294L13593.6226,-3361.2936L13593.6212,-3361.2937L13593.6202,-3361.2943L13593.619,-3361.2935L13593.6177,-3361.2933L13593.6169,-3361.2936L13593.616,-3361.2935L13593.6148,-3361.2935L13593.6137,-3361.2943L13593.6122,-3361.2943L13593.611,-3361.2941L13593.6104,-3361.2942L13593.609,-3361.2936L13593.6074,-3361.2937L13593.6065,-3361.2944L13593.6063,-3361.2954L13593.6067,-3361.2965L13593.6075,-3361.2968L13593.6073,-3361.2977L13593.6074,-3361.2985L13593.6057,-3361.2991L13593.6058,-3361.3002L13593.6064,-3361.301L13593.6086,-3361.3008L13593.6098,-3361.3005L13593.611,-3361.3008L13593.6136,-3361.3002L13593.6157,-3361.2993L13593.6169,-3361.2996L13593.6183,-3361.2993L13593.6201,-3361.3007L13593.6214,-3361.3009L13593.6224,-3361.3017L13593.6238,-3361.3021L13593.6247,-3361.302L13593.6253,-3361.3027L13593.6274,-3361.3028L13593.6284,-3361.3029L13593.6309,-3361.3028Z"/>
<path content="和歌山県,,東牟婁郡,太地町,,30422" xlink:title="和歌山県" d="M13593.5559,-3361.3601L13593.5547,-3361.3597L13593.5532,-3361.3605L13593.5531,-3361.3615L13593.5535,-3361.3623L13593.5527,-3361.3629L13593.5526,-3361.364L13593.5524,-3361.3655L13593.5535,-3361.3667L13593.5535,-3361.3684L13593.555,-3361.3696L13593.5546,-3361.3711L13593.5553,-3361.3726L13593.5565,-3361.373L13593.5576,-3361.3741L13593.5591,-3361.3752L13593.5615,-3361.3756L13593.5635,-3361.3753L13593.565,-3361.3745L13593.5655,-3361.373L13593.5651,-3361.3719L13593.5653,-3361.371L13593.5646,-3361.3681L13593.5648,-3361.3663L13593.5651,-3361.3646L13593.5643,-3361.3638L13593.5626,-3361.3637L13593.5622,-3361.3625L13593.5605,-3361.3623L13593.56,-3361.3619L13593.5585,-3361.3617L13593.5577,-3361.3608L13593.5563,-3361.3606L13593.5559,-3361.3601Z"/>
</g>
</svg>
