<?xml version="1.0" encoding="UTF-8"?>
<svg  xmlns="http://www.w3.org/2000/svg" xmlns:xlink="http://www.w3.org/1999/xlink" xmlns:go="http://purl.org/svgmap/profile" property="geometry,N03_001,N03_002,N03_003,N03_004,N03_005,N03_007" viewBox="13623.046875 -3506.8359375 8.7890625 8.7890625" go:dataArea="13623.046875 -3506.8359375 8.7890625 8.7890625" >
<metadata>
 <rdf:RDF xmlns:rdf="http://www.w3.org/1999/02/22-rdf-syntax-ns#" xmlns:crs="http://opengis.org/xmldtds/transformations.dtd" xmlns:svg="http://www.w3.org/svg" >
  <rdf:Description>
   <crs:CoordinateReferenceSystem rdf:resource="http://purl.org/crs/84" svg:transform="matrix(100.0,0.0,0.0,-100.0,0.0,0.0)" />
  </rdf:Description>
 </rdf:RDF>
</metadata>
<globalCoordinateSystem srsName="http://purl.org/crs/84" transform="matrix(100.0,0.0,0.0,-100.0,0.0,0.0)" />
<defs>
 <g id="p0" >
  <circle cx="0.0" cy="0.0" r="3" stroke="green" stroke-width="2.0" vector-effect="non-scaling-stroke" />
 </g>
</defs>
<g fill="#0000ff" fill-rule="evenodd" opacity="0.5" >
<path content="滋賀県,,,甲賀市,,25209" xlink:title="滋賀県" d="M13631.8359,-3498.0469L13629.8696,-3498.0469L13629.8626,-3498.0698L13629.8626,-3498.0872L13629.8708,-3498.1062L13629.8843,-3498.1188L13629.9401,-3498.1478L13629.9725,-3498.1595L13629.9874,-3498.1674L13630,-3498.1742L13630.006,-3498.1774L13630.0254,-3498.1881L13630.0342,-3498.1953L13630.0671,-3498.2291L13630.0954,-3498.2723L13630.1047,-3498.2946L13630.1153,-3498.3313L13630.1157,-3498.3333L13630.12,-3498.3594L13630.1247,-3498.3627L13630.1365,-3498.3622L13630.2327,-3498.3526L13630.2606,-3498.3512L13630.2729,-3498.3483L13630.2835,-3498.3444L13630.3128,-3498.3333L13630.3346,-3498.3251L13630.3595,-3498.3243L13630.3692,-3498.3265L13630.3754,-3498.3282L13630.3873,-3498.3333L13630.3929,-3498.3357L13630.4205,-3498.3444L13630.4704,-3498.3594L13630.4798,-3498.3594L13630.5115,-3498.3589L13630.5291,-3498.3618L13630.5451,-3498.3643L13630.5609,-3498.3706L13630.5891,-3498.3851L13630.6363,-3498.4142L13630.6503,-3498.4195L13630.6826,-3498.4243L13630.7096,-3498.4219L13630.7719,-3498.4079L13630.815,-3498.3972L13630.8209,-3498.3924L13630.8333,-3498.3791L13630.8349,-3498.3774L13630.8537,-3498.3639L13630.8761,-3498.3562L13630.883,-3498.3539L13630.9107,-3498.3451L13630.9444,-3498.3333L13630.9484,-3498.3319L13631.04,-3498.3082L13631.1189,-3498.2922L13631.1653,-3498.2859L13631.1888,-3498.2869L13631.2511,-3498.3034L13631.2658,-3498.3039L13631.2869,-3498.3053L13631.3122,-3498.3111L13631.3221,-3498.3111L13631.3928,-3498.2898L13631.4322,-3498.2772L13631.4862,-3498.2685L13631.5739,-3498.2637L13631.581,-3498.2627L13631.5836,-3498.2604L13631.5875,-3498.2267L13631.5906,-3498.2033L13631.5963,-3498.1883L13631.6127,-3498.1585L13631.6308,-3498.1295L13631.6396,-3498.1124L13631.6475,-3498.0946L13631.6539,-3498.0872L13631.6665,-3498.0764L13631.6667,-3498.0763L13631.6706,-3498.075L13631.7086,-3498.0744L13631.7501,-3498.0781L13631.7638,-3498.0793L13631.7805,-3498.0785L13631.7973,-3498.0746L13631.7996,-3498.0738L13631.8205,-3498.0662L13631.8359,-3498.0587Z"/>
<path content="滋賀県,,,東近江市,,25213" xlink:title="滋賀県" d="M13623.0469,-3506.8359L13631.8359,-3506.8359L13631.8359,-3503.8248L13631.8299,-3503.8259L13631.787,-3503.8374L13631.7733,-3503.843L13631.7628,-3503.8526L13631.7565,-3503.8607L13631.7548,-3503.8708L13631.7574,-3503.884L13631.7659,-3503.9167L13631.7711,-3503.9367L13631.7711,-3503.9493L13631.7699,-3503.9701L13631.7722,-3503.9833L13631.7796,-3504.0036L13631.781,-3504.0081L13631.779,-3504.0139L13631.7742,-3504.0208L13631.7608,-3504.032L13631.7551,-3504.0393L13631.752,-3504.0456L13631.7517,-3504.0514L13631.754,-3504.0582L13631.7594,-3504.069L13631.7699,-3504.0861L13631.7836,-3504.1152L13631.7841,-3504.1233L13631.7821,-3504.131L13631.7793,-3504.1376L13631.773,-3504.1449L13631.7534,-3504.1634L13631.7522,-3504.1667L13631.7509,-3504.1701L13631.7508,-3504.1752L13631.7503,-3504.2006L13631.7503,-3504.2067L13631.7469,-3504.212L13631.7295,-3504.2269L13631.703,-3504.2568L13631.6905,-3504.2728L13631.6791,-3504.2807L13631.6667,-3504.2832L13631.6592,-3504.2848L13631.6558,-3504.2866L13631.6529,-3504.2927L13631.6447,-3504.3261L13631.6396,-3504.3374L13631.6285,-3504.3493L13631.6251,-3504.3521L13631.6086,-3504.3537L13631.5874,-3504.3578L13631.5541,-3504.3657L13631.512,-3504.3711L13631.4927,-3504.3767L13631.464,-3504.3886L13631.4504,-3504.3908L13631.4001,-3504.3961L13631.3583,-3504.4034L13631.3317,-3504.4055L13631.2823,-3504.4055L13631.2572,-3504.4046L13631.2398,-3504.4079L13631.2142,-3504.4163L13631.1818,-3504.4373L13631.1681,-3504.4478L13631.1653,-3504.4531L13631.1622,-3504.4611L13631.1579,-3504.4847L13631.1551,-3504.4919L13631.1459,-3504.5029L13631.1266,-3504.5171L13631.1078,-3504.5283L13631.1018,-3504.5337L13631.0958,-3504.5402L13631.0893,-3504.5538L13631.0844,-3504.5824L13631.0796,-3504.5923L13631.0659,-3504.6112L13631.0588,-3504.6244L13631.0554,-3504.6323L13631.0534,-3504.6477L13631.0554,-3504.6643L13631.0548,-3504.6805L13631.0523,-3504.6899L13631.0474,-3504.6976L13631.0381,-3504.7062L13631.0381,-3504.7063L13631.0233,-3504.7128L13631.0095,-3504.7161L13630.9819,-3504.7198L13630.9686,-3504.7196L13630.9577,-3504.7168L13630.9501,-3504.7149L13630.9359,-3504.714L13630.9216,-3504.7109L13630.9102,-3504.7067L13630.9039,-3504.7018L13630.8928,-3504.6755L13630.8661,-3504.6276L13630.8549,-3504.6141L13630.8444,-3504.6052L13630.8333,-3504.5979L13630.8243,-3504.5919L13630.8006,-3504.5692L13630.7807,-3504.5539L13630.7625,-3504.5357L13630.747,-3504.5252L13630.7356,-3504.5234L13630.7251,-3504.5241L13630.7149,-3504.5273L13630.7033,-3504.5322L13630.6739,-3504.5523L13630.6397,-3504.5672L13630.6269,-3504.5749L13630.6251,-3504.5768L13630.6122,-3504.5898L13630.5979,-3504.6062L13630.585,-3504.6143L13630.5555,-3504.6308L13630.5378,-3504.6479L13630.5142,-3504.6707L13630.4977,-3504.6821L13630.494,-3504.688L13630.4929,-3504.7039L13630.4932,-3504.7101L13630.4872,-3504.7253L13630.4829,-3504.7423L13630.4824,-3504.7528L13630.4844,-3504.7677L13630.4855,-3504.7929L13630.4838,-3504.8084L13630.4798,-3504.8185L13630.4766,-3504.8248L13630.4664,-3504.8349L13630.4651,-3504.8359L13630.4476,-3504.8494L13630.3933,-3504.8826L13630.3765,-3504.8922L13630.3651,-3504.9004L13630.3503,-3504.9184L13630.3452,-3504.9311L13630.3431,-3504.9363L13630.3386,-3504.9475L13630.3255,-3504.9721L13630.3195,-3504.9836L13630.3059,-3504.9965L13630.3041,-3505L13630.3011,-3505.0061L13630.2993,-3505.0161L13630.3019,-3505.0754L13630.3002,-3505.0861L13630.2962,-3505.0934L13630.286,-3505.1065L13630.2614,-3505.1298L13630.2593,-3505.1311L13630.2423,-3505.1417L13630.2284,-3505.1466L13630.2193,-3505.1475L13630.1886,-3505.1452L13630.1633,-3505.1454L13630.1407,-3505.1497L13630.1302,-3505.1539L13630.1256,-3505.1584L13630.1216,-3505.1673L13630.1202,-3505.1799L13630.1227,-3505.2217L13630.1222,-3505.2419L13630.1207,-3505.2487L13630.1171,-3505.2567L13630.0807,-3505.281L13630.0594,-3505.288L13630.0471,-3505.292L13630.0196,-3505.2953L13630,-3505.2926L13629.9989,-3505.2924L13629.9913,-3505.2896L13629.9662,-3505.2765L13629.9398,-3505.2714L13629.9293,-3505.2707L13629.9159,-3505.2723L13629.9043,-3505.2772L13629.8924,-3505.2869L13629.8691,-3505.3063L13629.862,-3505.3148L13629.8544,-3505.329L13629.8418,-3505.3673L13629.8347,-3505.3911L13629.835,-3505.3969L13629.8435,-3505.431L13629.8441,-3505.4378L13629.8413,-3505.4413L13629.8267,-3505.4469L13629.802,-3505.4595L13629.7966,-3505.4644L13629.7929,-3505.4778L13629.7923,-3505.4849L13629.7935,-3505.4968L13629.7968,-3505.5117L13629.7977,-3505.5157L13629.8045,-3505.5368L13629.8045,-3505.5431L13629.7986,-3505.5551L13629.7932,-3505.5609L13629.7761,-3505.5688L13629.7299,-3505.582L13629.7115,-3505.5899L13629.6952,-3505.6017L13629.681,-3505.6136L13629.6477,-3505.6568L13629.6167,-3505.6888L13629.6001,-3505.7221L13629.5905,-3505.7272L13629.5458,-3505.7408L13629.5291,-3505.7406L13629.4959,-3505.7356L13629.4524,-3505.734L13629.3582,-3505.7314L13629.3394,-3505.7343L13629.3291,-3505.7388L13629.2993,-3505.7582L13629.2828,-3505.7678L13629.2666,-3505.775L13629.2437,-3505.7814L13629.2306,-3505.7879L13629.2201,-3505.7978L13629.196,-3505.8333L13629.1951,-3505.8347L13629.1865,-3505.8462L13629.1771,-3505.8558L13629.1667,-3505.8602L13629.1637,-3505.8614L13629.1489,-3505.8633L13629.1101,-3505.8624L13629.108,-3505.8623L13629.0946,-3505.8602L13629.0679,-3505.8396L13629.0631,-3505.8333L13629.0565,-3505.8246L13628.9899,-3505.7684L13628.9768,-3505.7607L13628.971,-3505.7597L13628.9631,-3505.7584L13628.9543,-3505.7577L13628.9366,-3505.7607L13628.8992,-3505.7818L13628.8753,-3505.7947L13628.8583,-3505.7989L13628.8324,-3505.7994L13628.8011,-3505.8011L13628.7586,-3505.8101L13628.699,-3505.8133L13628.6388,-3505.8126L13628.591,-3505.8072L13628.5388,-3505.8004L13628.5058,-3505.7943L13628.4599,-3505.7707L13628.4426,-3505.7668L13628.4195,-3505.7671L13628.3878,-3505.771L13628.3656,-3505.77L13628.3496,-3505.7664L13628.3335,-3505.7571L13628.3333,-3505.7571L13628.3071,-3505.75L13628.298,-3505.751L13628.2815,-3505.7636L13628.2797,-3505.7644L13628.2637,-3505.7721L13628.2476,-3505.7775L13628.2185,-3505.7786L13628.2059,-3505.7828L13628.1881,-3505.7904L13628.1607,-3505.7925L13628.1298,-3505.795L13628.0583,-3505.8111L13628.0435,-3505.8114L13627.9787,-3505.8014L13627.9622,-3505.7964L13627.9539,-3505.7868L13627.9453,-3505.7707L13627.9387,-3505.7645L13627.9375,-3505.7637L13627.9256,-3505.7559L13627.9017,-3505.7495L13627.8019,-3505.7467L13627.7493,-3505.7492L13627.7181,-3505.7578L13627.6694,-3505.7846L13627.6498,-3505.7874L13627.6291,-3505.7879L13627.5765,-3505.7893L13627.5578,-3505.7933L13627.5504,-3505.7954L13627.5461,-3505.8015L13627.5459,-3505.8154L13627.5456,-3505.8333L13627.5452,-3505.8631L13627.5396,-3505.9029L13627.5352,-3505.9219L13627.5309,-3505.934L13627.5021,-3505.9789L13627.5,-3505.9822L13627.4724,-3506.0253L13627.4504,-3506.0597L13627.4377,-3506.079L13627.4375,-3506.08L13627.433,-3506.1001L13627.4316,-3506.1328L13627.4277,-3506.1471L13627.4199,-3506.1614L13627.4038,-3506.2188L13627.3856,-3506.2856L13627.3638,-3506.2885L13627.3266,-3506.3025L13627.3209,-3506.3032L13627.2945,-3506.3064L13627.2853,-3506.3054L13627.2766,-3506.3014L13627.2667,-3506.2882L13627.2436,-3506.2169L13627.2231,-3506.1421L13627.2139,-3506.1224L13627.1878,-3506.1467L13627.1757,-3506.1521L13627.1548,-3506.1549L13627.1422,-3506.1528L13627.1235,-3506.1453L13627.1096,-3506.1349L13627.1026,-3506.1203L13627.0979,-3506.0893L13627.0926,-3506.0232L13627.0816,-3505.9639L13627.0751,-3505.9482L13627.0681,-3505.9354L13627.0464,-3505.9182L13627.0338,-3505.9139L13627.0264,-3505.9139L13627.0169,-3505.9153L13626.9764,-3505.9346L13626.9664,-3505.9364L13626.9551,-3505.9361L13626.9001,-3505.9199L13626.8519,-3505.8959L13626.8328,-3505.8888L13626.8054,-3505.8681L13626.7569,-3505.8333L13626.7384,-3505.8201L13626.6963,-3505.7821L13626.6895,-3505.7759L13626.6778,-3505.7738L13626.6678,-3505.7749L13626.6667,-3505.7752L13626.6143,-3505.7874L13626.5246,-3505.7964L13626.4567,-3505.805L13626.4346,-3505.8107L13626.4067,-3505.8238L13626.3933,-3505.8333L13626.3832,-3505.8406L13626.3802,-3505.8436L13626.361,-3505.8634L13626.3554,-3505.8792L13626.3414,-3505.918L13626.3196,-3505.9498L13626.3114,-3505.9555L13626.2683,-3505.9677L13626.2631,-3505.9716L13626.2374,-3506.0046L13626.2274,-3506.0171L13626.2039,-3506.035L13626.1778,-3506.0493L13626.1285,-3506.0633L13626.0437,-3506.0783L13626.0207,-3506.0833L13626.0059,-3506.0905L13625.9916,-3506.1019L13625.9693,-3506.1284L13625.9393,-3506.1713L13625.9275,-3506.1948L13625.9232,-3506.2116L13625.9193,-3506.2555L13625.9166,-3506.2666L13625.912,-3506.2739L13625.8966,-3506.2985L13625.8814,-3506.3278L13625.8418,-3506.3677L13625.8333,-3506.3798L13625.8061,-3506.4186L13625.7874,-3506.4647L13625.7747,-3506.4808L13625.7643,-3506.4879L13625.7525,-3506.4897L13625.7447,-3506.4883L13625.7056,-3506.4661L13625.6982,-3506.4658L13625.6738,-3506.4736L13625.663,-3506.4765L13625.6338,-3506.4786L13625.6191,-3506.4836L13625.5947,-3506.5068L13625.5843,-3506.5133L13625.5681,-3506.5183L13625.5553,-3506.5165L13625.5514,-3506.5159L13625.5259,-3506.5083L13625.512,-3506.5059L13625.4935,-3506.5102L13625.4814,-3506.5169L13625.4716,-3506.534L13625.4611,-3506.5668L13625.4554,-3506.5773L13625.4297,-3506.604L13625.4211,-3506.6126L13625.3777,-3506.6364L13625.3679,-3506.6404L13625.3413,-3506.643L13625.3234,-3506.6474L13625.3,-3506.6562L13625.2713,-3506.6621L13625.2607,-3506.6656L13625.2589,-3506.6667L13625.2443,-3506.6755L13625.2124,-3506.7007L13625.1535,-3506.7299L13625.1463,-3506.7354L13625.1432,-3506.7419L13625.1429,-3506.7608L13625.1229,-3506.7644L13625.1089,-3506.7722L13625.0821,-3506.7921L13625.0536,-3506.8068L13625.0181,-3506.8187L13625,-3506.8233L13624.9496,-3506.8359L13624.7987,-3506.8359L13624.7824,-3506.8291L13624.7411,-3506.799L13624.7291,-3506.7974L13624.7114,-3506.8001L13624.7017,-3506.7938L13624.6794,-3506.7919L13624.6605,-3506.7938L13624.6436,-3506.8002L13624.6263,-3506.812L13624.6057,-3506.8359L13624.5802,-3506.8359L13624.5667,-3506.8287L13624.5516,-3506.823L13624.5382,-3506.8227L13624.4974,-3506.828L13624.468,-3506.8287L13624.4481,-3506.8227L13624.4269,-3506.8109L13624.3929,-3506.7766L13624.3781,-3506.7666L13624.3647,-3506.7627L13624.3465,-3506.7645L13624.3227,-3506.7731L13624.3019,-3506.7873L13624.3004,-3506.789L13624.2794,-3506.8115L13624.2676,-3506.8359L13623.3834,-3506.8359L13623.3706,-3506.8192L13623.3767,-3506.8084L13623.3833,-3506.7929L13623.3841,-3506.7691L13623.373,-3506.7187L13623.3689,-3506.6894L13623.3734,-3506.6706L13623.3766,-3506.6667L13623.3902,-3506.6496L13623.3972,-3506.6344L13623.391,-3506.5656L13623.3861,-3506.5566L13623.3464,-3506.5481L13623.3333,-3506.5453L13623.2898,-3506.5357L13623.2411,-3506.5343L13623.2054,-3506.5394L13623.152,-3506.5643L13623.1385,-3506.568L13623.1193,-3506.5683L13623.0602,-3506.5579L13623.0469,-3506.5537Z"/>
<path content="滋賀県,,蒲生郡,日野町,,25383" xlink:title="滋賀県" d="M13624.2676,-3506.8359L13624.2794,-3506.8115L13624.3004,-3506.789L13624.3019,-3506.7873L13624.3227,-3506.7731L13624.3465,-3506.7645L13624.3647,-3506.7627L13624.3781,-3506.7666L13624.3929,-3506.7766L13624.4269,-3506.8109L13624.4481,-3506.8227L13624.468,-3506.8287L13624.4974,-3506.828L13624.5382,-3506.8227L13624.5516,-3506.823L13624.5667,-3506.8287L13624.5802,-3506.8359L13624.6057,-3506.8359L13624.6263,-3506.812L13624.6436,-3506.8002L13624.6605,-3506.7938L13624.6794,-3506.7919L13624.7017,-3506.7938L13624.7114,-3506.8001L13624.7291,-3506.7974L13624.7411,-3506.799L13624.7824,-3506.8291L13624.7987,-3506.8359L13624.9496,-3506.8359L13625,-3506.8233L13625.0181,-3506.8187L13625.0536,-3506.8068L13625.0821,-3506.7921L13625.1089,-3506.7722L13625.1229,-3506.7644L13625.1429,-3506.7608L13625.1432,-3506.7419L13625.1463,-3506.7354L13625.1535,-3506.7299L13625.2124,-3506.7007L13625.2443,-3506.6755L13625.2589,-3506.6667L13625.2607,-3506.6656L13625.2713,-3506.6621L13625.3,-3506.6562L13625.3234,-3506.6474L13625.3413,-3506.643L13625.3679,-3506.6404L13625.3777,-3506.6364L13625.4211,-3506.6126L13625.4297,-3506.604L13625.4554,-3506.5773L13625.4611,-3506.5668L13625.4716,-3506.534L13625.4814,-3506.5169L13625.4935,-3506.5102L13625.512,-3506.5059L13625.5259,-3506.5083L13625.5514,-3506.5159L13625.5553,-3506.5165L13625.5681,-3506.5183L13625.5843,-3506.5133L13625.5947,-3506.5068L13625.6191,-3506.4836L13625.6338,-3506.4786L13625.663,-3506.4765L13625.6738,-3506.4736L13625.6982,-3506.4658L13625.7056,-3506.4661L13625.7447,-3506.4883L13625.7525,-3506.4897L13625.7643,-3506.4879L13625.7747,-3506.4808L13625.7874,-3506.4647L13625.8061,-3506.4186L13625.8333,-3506.3798L13625.8418,-3506.3677L13625.8814,-3506.3278L13625.8966,-3506.2985L13625.912,-3506.2739L13625.9166,-3506.2666L13625.9193,-3506.2555L13625.9232,-3506.2116L13625.9275,-3506.1948L13625.9393,-3506.1713L13625.9693,-3506.1284L13625.9916,-3506.1019L13626.0059,-3506.0905L13626.0207,-3506.0833L13626.0437,-3506.0783L13626.1285,-3506.0633L13626.1778,-3506.0493L13626.2039,-3506.035L13626.2274,-3506.0171L13626.2374,-3506.0046L13626.2631,-3505.9716L13626.2683,-3505.9677L13626.3114,-3505.9555L13626.3196,-3505.9498L13626.3414,-3505.918L13626.3554,-3505.8792L13626.361,-3505.8634L13626.3802,-3505.8436L13626.3832,-3505.8406L13626.3933,-3505.8333L13626.4067,-3505.8238L13626.4346,-3505.8107L13626.4567,-3505.805L13626.5246,-3505.7964L13626.6143,-3505.7874L13626.6667,-3505.7752L13626.6678,-3505.7749L13626.6778,-3505.7738L13626.6895,-3505.7759L13626.6963,-3505.7821L13626.7384,-3505.8201L13626.7569,-3505.8333L13626.8054,-3505.8681L13626.8328,-3505.8888L13626.8519,-3505.8959L13626.9001,-3505.9199L13626.9551,-3505.9361L13626.9664,-3505.9364L13626.9764,-3505.9346L13627.0169,-3505.9153L13627.0264,-3505.9139L13627.0338,-3505.9139L13627.0464,-3505.9182L13627.0681,-3505.9354L13627.0751,-3505.9482L13627.0816,-3505.9639L13627.0926,-3506.0232L13627.0979,-3506.0893L13627.1026,-3506.1203L13627.1096,-3506.1349L13627.1235,-3506.1453L13627.1422,-3506.1528L13627.1548,-3506.1549L13627.1757,-3506.1521L13627.1878,-3506.1467L13627.2139,-3506.1224L13627.2231,-3506.1421L13627.2436,-3506.2169L13627.2667,-3506.2882L13627.2766,-3506.3014L13627.2853,-3506.3054L13627.2945,-3506.3064L13627.3209,-3506.3032L13627.3266,-3506.3025L13627.3638,-3506.2885L13627.3856,-3506.2856L13627.4038,-3506.2188L13627.4199,-3506.1614L13627.4277,-3506.1471L13627.4316,-3506.1328L13627.433,-3506.1001L13627.4375,-3506.08L13627.4377,-3506.079L13627.4504,-3506.0597L13627.4724,-3506.0253L13627.5,-3505.9822L13627.5021,-3505.9789L13627.5309,-3505.934L13627.5352,-3505.9219L13627.5396,-3505.9029L13627.5452,-3505.8631L13627.5456,-3505.8333L13627.5459,-3505.8154L13627.5461,-3505.8015L13627.5504,-3505.7954L13627.5578,-3505.7933L13627.5765,-3505.7893L13627.6291,-3505.7879L13627.6498,-3505.7874L13627.6694,-3505.7846L13627.7181,-3505.7578L13627.7493,-3505.7492L13627.8019,-3505.7467L13627.9017,-3505.7495L13627.9256,-3505.7559L13627.9375,-3505.7637L13627.9387,-3505.7645L13627.9453,-3505.7707L13627.9539,-3505.7868L13627.9622,-3505.7964L13627.9787,-3505.8014L13628.0435,-3505.8114L13628.0583,-3505.8111L13628.1298,-3505.795L13628.1607,-3505.7925L13628.1881,-3505.7904L13628.2059,-3505.7828L13628.2185,-3505.7786L13628.2476,-3505.7775L13628.2637,-3505.7721L13628.2797,-3505.7644L13628.2815,-3505.7636L13628.298,-3505.751L13628.3071,-3505.75L13628.3333,-3505.7571L13628.3335,-3505.7571L13628.3496,-3505.7664L13628.3656,-3505.77L13628.3878,-3505.771L13628.4195,-3505.7671L13628.4426,-3505.7668L13628.4599,-3505.7707L13628.5058,-3505.7943L13628.5388,-3505.8004L13628.591,-3505.8072L13628.6388,-3505.8126L13628.699,-3505.8133L13628.7586,-3505.8101L13628.8011,-3505.8011L13628.8324,-3505.7994L13628.8583,-3505.7989L13628.8753,-3505.7947L13628.8992,-3505.7818L13628.9366,-3505.7607L13628.9543,-3505.7577L13628.9631,-3505.7584L13628.971,-3505.7597L13628.9768,-3505.7607L13628.9899,-3505.7684L13629.0565,-3505.8246L13629.0631,-3505.8333L13629.0679,-3505.8396L13629.0946,-3505.8602L13629.108,-3505.8623L13629.1101,-3505.8624L13629.1489,-3505.8633L13629.1637,-3505.8614L13629.1667,-3505.8602L13629.1771,-3505.8558L13629.1865,-3505.8462L13629.1951,-3505.8347L13629.196,-3505.8333L13629.2201,-3505.7978L13629.2306,-3505.7879L13629.2437,-3505.7814L13629.2666,-3505.775L13629.2828,-3505.7678L13629.2993,-3505.7582L13629.3291,-3505.7388L13629.3394,-3505.7343L13629.3582,-3505.7314L13629.4524,-3505.734L13629.4959,-3505.7356L13629.5291,-3505.7406L13629.5458,-3505.7408L13629.5905,-3505.7272L13629.6001,-3505.7221L13629.6167,-3505.6888L13629.6477,-3505.6568L13629.681,-3505.6136L13629.6952,-3505.6017L13629.7115,-3505.5899L13629.7299,-3505.582L13629.7761,-3505.5688L13629.7932,-3505.5609L13629.7986,-3505.5551L13629.8045,-3505.5431L13629.8045,-3505.5368L13629.7977,-3505.5157L13629.7968,-3505.5117L13629.7935,-3505.4968L13629.7923,-3505.4849L13629.7929,-3505.4778L13629.7966,-3505.4644L13629.802,-3505.4595L13629.8267,-3505.4469L13629.8413,-3505.4413L13629.8441,-3505.4378L13629.8435,-3505.431L13629.835,-3505.3969L13629.8347,-3505.3911L13629.8418,-3505.3673L13629.8544,-3505.329L13629.862,-3505.3148L13629.8691,-3505.3063L13629.8924,-3505.2869L13629.9043,-3505.2772L13629.9159,-3505.2723L13629.9293,-3505.2707L13629.9398,-3505.2714L13629.9662,-3505.2765L13629.9913,-3505.2896L13629.9989,-3505.2924L13630,-3505.2926L13630.0196,-3505.2953L13630.0471,-3505.292L13630.0594,-3505.288L13630.0807,-3505.281L13630.1171,-3505.2567L13630.1207,-3505.2487L13630.1222,-3505.2419L13630.1227,-3505.2217L13630.1202,-3505.1799L13630.1216,-3505.1673L13630.1256,-3505.1584L13630.1302,-3505.1539L13630.1407,-3505.1497L13630.1633,-3505.1454L13630.1886,-3505.1452L13630.2193,-3505.1475L13630.2284,-3505.1466L13630.2423,-3505.1417L13630.2593,-3505.1311L13630.2614,-3505.1298L13630.286,-3505.1065L13630.2962,-3505.0934L13630.3002,-3505.0861L13630.3019,-3505.0754L13630.2993,-3505.0161L13630.3011,-3505.0061L13630.3041,-3505L13630.3059,-3504.9965L13630.3195,-3504.9836L13630.3255,-3504.9721L13630.3386,-3504.9475L13630.3431,-3504.9363L13630.3452,-3504.9311L13630.3503,-3504.9184L13630.3651,-3504.9004L13630.3765,-3504.8922L13630.3933,-3504.8826L13630.4476,-3504.8494L13630.4651,-3504.8359L13630.4664,-3504.8349L13630.4766,-3504.8248L13630.4798,-3504.8185L13630.4838,-3504.8084L13630.4855,-3504.7929L13630.4844,-3504.7677L13630.4824,-3504.7528L13630.4829,-3504.7423L13630.4872,-3504.7253L13630.4932,-3504.7101L13630.4929,-3504.7039L13630.494,-3504.688L13630.4977,-3504.6821L13630.5142,-3504.6707L13630.5378,-3504.6479L13630.5555,-3504.6308L13630.585,-3504.6143L13630.5979,-3504.6062L13630.6122,-3504.5898L13630.6251,-3504.5768L13630.6269,-3504.5749L13630.6397,-3504.5672L13630.6739,-3504.5523L13630.7033,-3504.5322L13630.7149,-3504.5273L13630.7251,-3504.5241L13630.7356,-3504.5234L13630.747,-3504.5252L13630.7625,-3504.5357L13630.7807,-3504.5539L13630.8006,-3504.5692L13630.8243,-3504.5919L13630.8333,-3504.5979L13630.8444,-3504.6052L13630.8549,-3504.6141L13630.8661,-3504.6276L13630.8928,-3504.6755L13630.9039,-3504.7018L13630.9102,-3504.7067L13630.9216,-3504.7109L13630.9359,-3504.714L13630.9501,-3504.7149L13630.9577,-3504.7168L13630.9686,-3504.7196L13630.9819,-3504.7198L13631.0095,-3504.7161L13631.0233,-3504.7128L13631.0381,-3504.7063L13631.0381,-3504.7062L13631.0474,-3504.6976L13631.0523,-3504.6899L13631.0548,-3504.6805L13631.0554,-3504.6643L13631.0534,-3504.6477L13631.0554,-3504.6323L13631.0588,-3504.6244L13631.0659,-3504.6112L13631.0796,-3504.5923L13631.0844,-3504.5824L13631.0893,-3504.5538L13631.0958,-3504.5402L13631.1018,-3504.5337L13631.1078,-3504.5283L13631.1266,-3504.5171L13631.1459,-3504.5029L13631.1551,-3504.4919L13631.1579,-3504.4847L13631.1622,-3504.4611L13631.1653,-3504.4531L13631.1681,-3504.4478L13631.1818,-3504.4373L13631.2142,-3504.4163L13631.2398,-3504.4079L13631.2572,-3504.4046L13631.2823,-3504.4055L13631.3317,-3504.4055L13631.3583,-3504.4034L13631.4001,-3504.3961L13631.4504,-3504.3908L13631.464,-3504.3886L13631.4927,-3504.3767L13631.512,-3504.3711L13631.5541,-3504.3657L13631.5874,-3504.3578L13631.6086,-3504.3537L13631.6251,-3504.3521L13631.6285,-3504.3493L13631.6396,-3504.3374L13631.6447,-3504.3261L13631.6529,-3504.2927L13631.6558,-3504.2866L13631.6592,-3504.2848L13631.6667,-3504.2832L13631.6791,-3504.2807L13631.6905,-3504.2728L13631.703,-3504.2568L13631.7295,-3504.2269L13631.7469,-3504.212L13631.7503,-3504.2067L13631.7503,-3504.2006L13631.7508,-3504.1752L13631.7509,-3504.1701L13631.7522,-3504.1667L13631.7534,-3504.1634L13631.773,-3504.1449L13631.7793,-3504.1376L13631.7821,-3504.131L13631.7841,-3504.1233L13631.7836,-3504.1152L13631.7699,-3504.0861L13631.7594,-3504.069L13631.754,-3504.0582L13631.7517,-3504.0514L13631.752,-3504.0456L13631.7551,-3504.0393L13631.7608,-3504.032L13631.7742,-3504.0208L13631.779,-3504.0139L13631.781,-3504.0081L13631.7796,-3504.0036L13631.7722,-3503.9833L13631.7699,-3503.9701L13631.7711,-3503.9493L13631.7711,-3503.9367L13631.7659,-3503.9167L13631.7574,-3503.884L13631.7548,-3503.8708L13631.7565,-3503.8607L13631.7628,-3503.8526L13631.7733,-3503.843L13631.787,-3503.8374L13631.8299,-3503.8259L13631.8359,-3503.8248L13631.8359,-3498.0587L13631.8205,-3498.0662L13631.7996,-3498.0738L13631.7973,-3498.0746L13631.7805,-3498.0785L13631.7638,-3498.0793L13631.7501,-3498.0781L13631.7086,-3498.0744L13631.6706,-3498.075L13631.6667,-3498.0763L13631.6665,-3498.0764L13631.6539,-3498.0872L13631.6475,-3498.0946L13631.6396,-3498.1124L13631.6308,-3498.1295L13631.6127,-3498.1585L13631.5963,-3498.1883L13631.5906,-3498.2033L13631.5875,-3498.2267L13631.5836,-3498.2604L13631.581,-3498.2627L13631.5739,-3498.2637L13631.4862,-3498.2685L13631.4322,-3498.2772L13631.3928,-3498.2898L13631.3221,-3498.3111L13631.3122,-3498.3111L13631.2869,-3498.3053L13631.2658,-3498.3039L13631.2511,-3498.3034L13631.1888,-3498.2869L13631.1653,-3498.2859L13631.1189,-3498.2922L13631.04,-3498.3082L13630.9484,-3498.3319L13630.9444,-3498.3333L13630.9107,-3498.3451L13630.883,-3498.3539L13630.8761,-3498.3562L13630.8537,-3498.3639L13630.8349,-3498.3774L13630.8333,-3498.3791L13630.8209,-3498.3924L13630.815,-3498.3972L13630.7719,-3498.4079L13630.7096,-3498.4219L13630.6826,-3498.4243L13630.6503,-3498.4195L13630.6363,-3498.4142L13630.5891,-3498.3851L13630.5609,-3498.3706L13630.5451,-3498.3643L13630.5291,-3498.3618L13630.5115,-3498.3589L13630.4798,-3498.3594L13630.4704,-3498.3594L13630.4205,-3498.3444L13630.3929,-3498.3357L13630.3873,-3498.3333L13630.3754,-3498.3282L13630.3692,-3498.3265L13630.3595,-3498.3243L13630.3346,-3498.3251L13630.3128,-3498.3333L13630.2835,-3498.3444L13630.2729,-3498.3483L13630.2606,-3498.3512L13630.2327,-3498.3526L13630.1365,-3498.3622L13630.1247,-3498.3627L13630.12,-3498.3594L13630.1157,-3498.3333L13630.1153,-3498.3313L13630.1047,-3498.2946L13630.0954,-3498.2723L13630.0671,-3498.2291L13630.0342,-3498.1953L13630.0254,-3498.1881L13630.006,-3498.1774L13630,-3498.1742L13629.9874,-3498.1674L13629.9725,-3498.1595L13629.9401,-3498.1478L13629.8843,-3498.1188L13629.8708,-3498.1062L13629.8626,-3498.0872L13629.8626,-3498.0698L13629.8696,-3498.0469L13623.0469,-3498.0469L13623.0469,-3506.5537L13623.0602,-3506.5579L13623.1193,-3506.5683L13623.1385,-3506.568L13623.152,-3506.5643L13623.2054,-3506.5394L13623.2411,-3506.5343L13623.2898,-3506.5357L13623.3333,-3506.5453L13623.3464,-3506.5481L13623.3861,-3506.5566L13623.391,-3506.5656L13623.3972,-3506.6344L13623.3902,-3506.6496L13623.3766,-3506.6667L13623.3734,-3506.6706L13623.3689,-3506.6894L13623.373,-3506.7187L13623.3841,-3506.7691L13623.3833,-3506.7929L13623.3767,-3506.8084L13623.3706,-3506.8192L13623.3834,-3506.8359Z"/>
</g>
</svg>
