<?xml version="1.0" encoding="UTF-8"?>
<svg  xmlns="http://www.w3.org/2000/svg" xmlns:xlink="http://www.w3.org/1999/xlink" xmlns:go="http://purl.org/svgmap/profile" property="geometry,N03_001,N03_002,N03_003,N03_004,N03_005,N03_007" viewBox="13640.625 -3656.25 140.625 140.625" go:dataArea="13640.625 -3656.25 140.625 140.625" >
<metadata>
 <rdf:RDF xmlns:rdf="http://www.w3.org/1999/02/22-rdf-syntax-ns#" xmlns:crs="http://opengis.org/xmldtds/transformations.dtd" xmlns:svg="http://www.w3.org/svg" >
  <rdf:Description>
   <crs:CoordinateReferenceSystem rdf:resource="http://purl.org/crs/84" svg:transform="matrix(100.0,0.0,0.0,-100.0,0.0,0.0)" />
  </rdf:Description>
 </rdf:RDF>
</metadata>
<globalCoordinateSystem srsName="http://purl.org/crs/84" transform="matrix(100.0,0.0,0.0,-100.0,0.0,0.0)" />
<defs>
 <g id="p0" >
  <circle cx="0.0" cy="0.0" r="3" stroke="green" stroke-width="2.0" vector-effect="non-scaling-stroke" />
 </g>
</defs>
<g fill="#0000ff" fill-rule="evenodd" opacity="0.5" >
<path content="滋賀県,,,東近江市,,25213" xlink:title="滋賀県" d="M13640.625,-3515.625L13640.625,-3518.7777L13640.6429,-3518.7738L13640.6776,-3518.7653L13640.7257,-3518.7568L13640.7913,-3518.7449L13640.8333,-3518.7298L13640.8653,-3518.7183L13640.8852,-3518.7032L13640.9173,-3518.6918L13640.94,-3518.6838L13640.9764,-3518.6549L13640.9946,-3518.6459L13641.0316,-3518.6365L13641.115,-3518.6122L13641.1385,-3518.6093L13641.1769,-3518.61L13641.2214,-3518.611L13641.2643,-3518.6226L13641.2831,-3518.6265L13641.3103,-3518.6226L13641.3597,-3518.5996L13641.3647,-3518.5974L13641.458,-3518.5558L13641.5213,-3518.5344L13641.5758,-3518.5241L13641.6294,-3518.5057L13641.6561,-3518.4898L13641.6667,-3518.4819L13641.669,-3518.4802L13641.6916,-3518.4607L13641.7101,-3518.4317L13641.7192,-3518.4158L13641.7435,-3518.4042L13641.8004,-3518.3908L13641.8265,-3518.3819L13641.8688,-3518.3563L13641.8899,-3518.3358L13641.8911,-3518.3333L13641.8964,-3518.3224L13641.9134,-3518.3072L13641.9442,-3518.2722L13641.9568,-3518.2645L13641.9644,-3518.2648L13641.9794,-3518.2787L13641.9921,-3518.2859L13642.0138,-3518.2905L13642.0528,-3518.291L13642.0806,-3518.2932L13642.0935,-3518.2975L13642.1256,-3518.3156L13642.1464,-3518.3207L13642.1909,-3518.3333L13642.2077,-3518.3381L13642.2429,-3518.3557L13642.2684,-3518.3821L13642.2707,-3518.3844L13642.2925,-3518.4055L13642.3274,-3518.4147L13642.3978,-3518.4412L13642.4335,-3518.451L13642.4461,-3518.451L13642.4522,-3518.4478L13642.4703,-3518.4381L13642.4878,-3518.3918L13642.4992,-3518.3755L13642.5,-3518.375L13642.5503,-3518.3441L13642.5545,-3518.3333L13642.5564,-3518.3286L13642.5663,-3518.3111L13642.6017,-3518.2902L13642.6166,-3518.2806L13642.6358,-3518.2775L13642.6717,-3518.2768L13642.7103,-3518.2632L13642.7598,-3518.2459L13642.7998,-3518.2219L13642.8427,-3518.1963L13642.8669,-3518.1786L13642.878,-3518.1619L13642.883,-3518.1437L13642.8879,-3518.1385L13642.9499,-3518.1289L13642.9913,-3518.1157L13643.0281,-3518.0887L13643.0509,-3518.0592L13643.0637,-3518.0446L13643.0993,-3518.0007L13643.102,-3517.9973L13643.13,-3517.982L13643.1822,-3517.972L13643.1948,-3517.9667L13643.2281,-3517.9386L13643.2607,-3517.8924L13643.2839,-3517.8727L13643.3333,-3517.8423L13643.3361,-3517.8406L13643.3644,-3517.8108L13643.3837,-3517.7826L13643.3915,-3517.7467L13643.4044,-3517.7107L13643.4146,-3517.699L13643.4318,-3517.688L13643.4478,-3517.6829L13643.4934,-3517.6755L13643.5724,-3517.6503L13643.5773,-3517.6433L13643.5841,-3517.6336L13643.61,-3517.6064L13643.6237,-3517.5748L13643.6534,-3517.5078L13643.6576,-3517.5L13643.6729,-3517.4716L13643.684,-3517.4399L13643.6863,-3517.4216L13643.6831,-3517.3991L13643.6828,-3517.3716L13643.7009,-3517.334L13643.7047,-3517.3295L13643.7295,-3517.3005L13643.7791,-3517.2676L13643.8732,-3517.2026L13643.9159,-3517.1783L13643.9608,-3517.1575L13643.9777,-3517.1496L13644.0083,-3517.1418L13644.0307,-3517.1444L13644.0716,-3517.1483L13644.0814,-3517.1507L13644.1503,-3517.1681L13644.1667,-3517.1693L13644.1701,-3517.1695L13644.1919,-3517.1671L13644.2187,-3517.1561L13644.2664,-3517.1348L13644.2859,-3517.1305L13644.3019,-3517.1315L13644.3241,-3517.1389L13644.3366,-3517.1463L13644.3561,-3517.1647L13644.3666,-3517.1704L13644.3777,-3517.1719L13644.3871,-3517.1701L13644.4495,-3517.1254L13644.4646,-3517.1142L13644.4675,-3517.1075L13644.4673,-3517.0704L13644.4623,-3517.0488L13644.4699,-3517.0316L13644.4953,-3517.0136L13644.534,-3516.9953L13644.5572,-3516.9886L13644.5983,-3516.9641L13644.6159,-3516.9306L13644.6219,-3516.9171L13644.6232,-3516.9064L13644.6209,-3516.8822L13644.6141,-3516.8684L13644.6073,-3516.8601L13644.5933,-3516.853L13644.5866,-3516.8506L13644.5779,-3516.8475L13644.5697,-3516.8456L13644.538,-3516.8426L13644.5176,-3516.8385L13644.5095,-3516.8348L13644.4958,-3516.8217L13644.4845,-3516.8001L13644.48,-3516.7815L13644.4804,-3516.7583L13644.4863,-3516.7263L13644.5015,-3516.6706L13644.5031,-3516.6667L13644.5107,-3516.6475L13644.5176,-3516.6317L13644.5335,-3516.6183L13644.5661,-3516.6071L13644.583,-3516.6034L13644.6337,-3516.5997L13644.6614,-3516.6004L13644.6908,-3516.6075L13644.7076,-3516.6138L13644.7208,-3516.6217L13644.7485,-3516.6429L13644.7562,-3516.649L13644.7711,-3516.6609L13644.7783,-3516.6667L13644.783,-3516.6704L13644.7907,-3516.6738L13644.8106,-3516.6786L13644.8536,-3516.6824L13644.9372,-3516.6771L13645,-3516.6683L13645.0119,-3516.6667L13645.0355,-3516.6634L13645.0945,-3516.6514L13645.1262,-3516.6439L13645.1928,-3516.6227L13645.2119,-3516.6121L13645.2477,-3516.5909L13645.2554,-3516.5839L13645.264,-3516.569L13645.2853,-3516.5355L13645.2916,-3516.5147L13645.3117,-3516.4806L13645.3284,-3516.4556L13645.3579,-3516.4047L13645.3824,-3516.3688L13645.4105,-3516.3342L13645.4381,-3516.2879L13645.4535,-3516.2458L13645.4608,-3516.2064L13645.4608,-3516.1805L13645.4633,-3516.1586L13645.4653,-3516.1418L13645.4612,-3516.1295L13645.4494,-3516.112L13645.4369,-3516.0959L13645.424,-3516.0796L13645.4118,-3516.06L13645.4064,-3516.0513L13645.3997,-3516.0412L13645.3821,-3516.0142L13645.3597,-3515.9801L13645.3447,-3515.9609L13645.3134,-3515.9148L13645.2958,-3515.8985L13645.2931,-3515.8868L13645.2999,-3515.8779L13645.3017,-3515.8756L13645.3189,-3515.8656L13645.3536,-3515.8333L13645.3647,-3515.8231L13645.3941,-3515.7922L13645.405,-3515.7766L13645.4104,-3515.7628L13645.4159,-3515.737L13645.4213,-3515.7121L13645.429,-3515.6606L13645.4333,-3515.625Z"/>
<path content="滋賀県,,,米原市,,25214" xlink:title="滋賀県" d="M13640.625,-3546.9128L13640.6336,-3546.9134L13640.7008,-3546.908L13640.7545,-3546.8949L13640.815,-3546.8709L13640.8333,-3546.8699L13640.8334,-3546.8699L13640.8566,-3546.8687L13640.9346,-3546.8676L13640.9499,-3546.8656L13641.0004,-3546.8589L13641.1052,-3546.8327L13641.1912,-3546.8088L13641.2342,-3546.7848L13641.2598,-3546.7641L13641.2852,-3546.7489L13641.3054,-3546.7368L13641.3251,-3546.7282L13641.3404,-3546.7216L13641.403,-3546.6667L13641.4031,-3546.6666L13641.4076,-3546.6627L13641.4304,-3546.6529L13641.4747,-3546.6474L13641.5581,-3546.654L13641.5908,-3546.6666L13641.591,-3546.6667L13641.64,-3546.6856L13641.6667,-3546.6911L13641.6667,-3546.6911L13641.7246,-3546.703L13641.7918,-3546.7085L13641.8348,-3546.7205L13641.8738,-3546.7434L13641.8886,-3546.7477L13641.9114,-3546.7379L13641.9343,-3546.7226L13641.9393,-3546.7168L13641.9558,-3546.6976L13641.9759,-3546.6736L13641.9843,-3546.6667L13641.9844,-3546.6666L13642.0364,-3546.6235L13642.0539,-3546.5962L13642.0861,-3546.5035L13642.1103,-3546.376L13642.1171,-3546.207L13642.0929,-3546.1035L13642.0767,-3545.9792L13642.074,-3545.8876L13642.0781,-3545.856L13642.0891,-3545.8333L13642.0891,-3545.8333L13642.0955,-3545.8201L13642.1171,-3545.7634L13642.1291,-3545.7089L13642.1291,-3545.6784L13642.1302,-3545.6646L13642.1318,-3545.6435L13642.1466,-3545.5639L13642.1735,-3545.5127L13642.2165,-3545.4723L13642.2958,-3545.432L13642.3481,-3545.4145L13642.3885,-3545.3993L13642.4301,-3545.3677L13642.4597,-3545.3328L13642.4718,-3545.2685L13642.4892,-3545.1595L13642.5,-3545.1238L13642.5,-3545.1237L13642.5054,-3545.1061L13642.5309,-3545.0647L13642.5537,-3545.0221L13642.5553,-3545L13642.5553,-3545L13642.5564,-3544.984L13642.5618,-3544.9665L13642.6102,-3544.9175L13642.6112,-3544.9157L13642.6223,-3544.8946L13642.6223,-3544.8401L13642.6169,-3544.8161L13642.5967,-3544.7878L13642.5524,-3544.742L13642.5,-3544.6914L13642.5,-3544.6913L13642.4893,-3544.6809L13642.4436,-3544.6275L13642.3845,-3544.5556L13642.3603,-3544.5305L13642.3388,-3544.488L13642.3186,-3544.4433L13642.2931,-3544.3605L13642.277,-3544.3375L13642.2326,-3544.2798L13642.2205,-3544.2558L13642.2128,-3544.1667L13642.2128,-3544.1666L13642.2111,-3544.1479L13642.215,-3544.1101L13642.2152,-3544.1086L13642.2259,-3544.0836L13642.2528,-3544.0465L13642.3186,-3543.9931L13642.32,-3543.9854L13642.3119,-3543.9734L13642.2877,-3543.956L13642.2219,-3543.9091L13642.1963,-3543.8819L13642.1816,-3543.8546L13642.1655,-3543.8132L13642.1547,-3543.786L13642.1211,-3543.7314L13642.0862,-3543.6889L13642.015,-3543.6017L13641.9491,-3543.5417L13641.9142,-3543.5265L13641.8537,-3543.5101L13641.8201,-3543.4949L13641.7919,-3543.4709L13641.7476,-3543.4305L13641.7274,-3543.412L13641.7059,-3543.4011L13641.6667,-3543.394L13641.6667,-3543.394L13641.6576,-3543.3924L13641.6199,-3543.3793L13641.5904,-3543.3608L13641.5729,-3543.3422L13641.57,-3543.3333L13641.57,-3543.3333L13641.5608,-3543.3052L13641.5554,-3543.2812L13641.55,-3543.2441L13641.55,-3543.1885L13641.5554,-3543.1656L13641.5702,-3543.146L13641.6172,-3543.0948L13641.6199,-3543.0686L13641.6186,-3543.0413L13641.6334,-3543.0184L13641.6667,-3542.9944L13641.6667,-3542.9943L13641.7825,-3542.9106L13641.8282,-3542.8735L13641.8631,-3542.8331L13641.8753,-3542.8124L13641.8887,-3542.7776L13641.8753,-3542.7394L13641.8647,-3542.721L13641.8323,-3542.6642L13641.8175,-3542.6533L13641.7825,-3542.6456L13641.7489,-3542.6282L13641.7086,-3542.5977L13641.6667,-3542.5727L13641.6667,-3542.5727L13641.6334,-3542.5529L13641.5568,-3542.5268L13641.5125,-3542.5072L13641.5022,-3542.5L13641.5021,-3542.5L13641.4654,-3542.4744L13641.4009,-3542.4297L13641.3808,-3542.4069L13641.3754,-3542.3861L13641.3431,-3542.3578L13641.2934,-3542.3262L13641.2491,-3542.2847L13641.2075,-3542.2629L13641.1839,-3542.2406L13641.1685,-3542.2019L13641.1618,-3542.1703L13641.1604,-3542.1485L13641.1732,-3542.0956L13641.1745,-3542.0545L13641.1768,-3541.9855L13641.1782,-3541.9414L13641.1808,-3541.8598L13641.3633,-3541.7686L13641.3755,-3541.7633L13641.4271,-3541.7411L13641.4812,-3541.7073L13641.521,-3541.6667L13641.5211,-3541.6666L13641.5651,-3541.6218L13641.6164,-3541.5857L13641.6667,-3541.5604L13641.6667,-3541.5604L13641.7448,-3541.521L13641.7982,-3541.4918L13641.8212,-3541.4725L13641.9099,-3541.3983L13642.0284,-3541.2928L13642.0306,-3541.2908L13642.0535,-3541.1963L13642.0604,-3541.1642L13642.0764,-3541.1422L13642.1367,-3541.0606L13642.1534,-3541.0043L13642.1867,-3540.9475L13642.2602,-3540.8501L13642.2738,-3540.8333L13642.2738,-3540.8333L13642.2956,-3540.8062L13642.3955,-3540.7685L13642.4427,-3540.7409L13642.4635,-3540.7173L13642.4649,-3540.6841L13642.4635,-3540.6503L13642.4559,-3540.5918L13642.4485,-3540.5719L13642.4337,-3540.5315L13642.4327,-3540.5247L13642.4302,-3540.5073L13642.4337,-3540.4882L13642.4531,-3540.4561L13642.4684,-3540.4122L13642.5,-3540.383L13642.5,-3540.383L13642.519,-3540.3655L13642.5683,-3540.2906L13642.5932,-3540.267L13642.6765,-3540.2349L13642.7091,-3540.2259L13642.741,-3540.2045L13642.7577,-3540.1871L13642.7667,-3540.1505L13642.7812,-3540.1116L13642.7965,-3540.0785L13642.8271,-3540.0616L13642.9172,-3540.034L13642.9665,-3540.0064L13642.9799,-3540L13642.98,-3540L13643.0234,-3539.9794L13643.0643,-3539.9737L13643.0948,-3539.9788L13643.1129,-3539.9777L13643.1281,-3539.9709L13643.1358,-3539.9518L13643.1368,-3539.9376L13643.1379,-3539.9237L13643.1503,-3539.9056L13643.1698,-3539.8888L13643.1996,-3539.8719L13643.2447,-3539.8595L13643.2773,-3539.8466L13643.3224,-3539.8122L13643.3333,-3539.7983L13643.3334,-3539.7983L13643.346,-3539.7824L13643.373,-3539.7762L13643.4445,-3539.7852L13643.4812,-3539.7824L13643.5145,-3539.7683L13643.5395,-3539.7632L13643.5645,-3539.7582L13643.6061,-3539.7379L13643.6567,-3539.7244L13643.6699,-3539.6811L13643.663,-3539.6558L13643.6699,-3539.6135L13643.6788,-3539.573L13643.6838,-3539.5499L13643.69,-3539.528L13643.7005,-3539.5122L13643.7164,-3539.5043L13643.7539,-3539.4998L13643.7851,-3539.4925L13643.8198,-3539.4734L13643.8524,-3539.461L13643.8907,-3539.4368L13643.8995,-3539.4312L13643.9363,-3539.425L13643.9766,-3539.4272L13643.9988,-3539.4227L13644.0591,-3539.4008L13644.0889,-3539.3862L13644.0938,-3539.3749L13644.0938,-3539.3327L13644.0868,-3539.2995L13644.0855,-3539.2781L13644.0966,-3539.2432L13644.1,-3539.2173L13644.107,-3539.1903L13644.103,-3539.1667L13644.103,-3539.1666L13644.1021,-3539.1616L13644.107,-3539.138L13644.11,-3539.132L13644.1222,-3539.1076L13644.1382,-3539.0851L13644.1653,-3539.0631L13644.1667,-3539.0628L13644.1667,-3539.0628L13644.2284,-3539.0479L13644.261,-3539.0338L13644.2825,-3539.013L13644.3019,-3538.9944L13644.3345,-3538.9759L13644.4255,-3538.9578L13644.4352,-3538.9425L13644.4351,-3538.9185L13644.4254,-3538.8875L13644.4143,-3538.8655L13644.3921,-3538.8453L13644.3727,-3538.8228L13644.3518,-3538.7952L13644.3248,-3538.7473L13644.3082,-3538.7035L13644.2998,-3538.6753L13644.2582,-3538.6297L13644.2443,-3538.6005L13644.2298,-3538.5599L13644.1958,-3538.5048L13644.1667,-3538.4563L13644.1667,-3538.4563L13644.1562,-3538.4389L13644.1299,-3538.4085L13644.1027,-3538.386L13644.0612,-3538.3517L13644.025,-3538.3333L13644.025,-3538.3333L13644.0002,-3538.3207L13643.9585,-3538.2853L13643.9349,-3538.2515L13643.8931,-3538.1963L13643.8843,-3538.1846L13643.8676,-3538.1626L13643.7809,-3538.0264L13643.7255,-3537.9579L13643.6893,-3537.9132L13643.6716,-3537.8998L13643.6484,-3537.8823L13643.546,-3537.8394L13643.5395,-3537.8367L13643.4659,-3537.7956L13643.3543,-3537.7303L13643.3333,-3537.7179L13643.3333,-3537.7179L13643.1926,-3537.6341L13643.0941,-3537.5843L13643.0879,-3537.5812L13642.9408,-3537.5002L13642.9405,-3537.5L13642.9405,-3537.5L13642.8124,-3537.4219L13642.6744,-3537.3532L13642.6314,-3537.3358L13642.6085,-3537.3318L13642.5814,-3537.3341L13642.5509,-3537.3403L13642.5134,-3537.3611L13642.5,-3537.3654L13642.5,-3537.3654L13642.494,-3537.3673L13642.4656,-3537.3656L13642.4233,-3537.3594L13642.3941,-3537.351L13642.34,-3537.3431L13642.2984,-3537.3425L13642.2373,-3537.3414L13642.2151,-3537.3363L13642.1888,-3537.3234L13642.1652,-3537.3026L13642.136,-3537.2818L13642.1216,-3537.274L13642.1173,-3537.2716L13642.0868,-3537.2649L13642.0535,-3537.2677L13642.0341,-3537.2761L13641.9862,-3537.2998L13641.9314,-3537.3138L13641.7885,-3537.3369L13641.6712,-3537.3493L13641.6667,-3537.3499L13641.6667,-3537.3499L13641.6102,-3537.3577L13641.5575,-3537.356L13641.5408,-3537.3493L13641.5138,-3537.3341L13641.4895,-3537.3144L13641.4714,-3537.2924L13641.4666,-3537.2738L13641.4326,-3537.2215L13641.4138,-3537.1799L13641.3972,-3537.1399L13641.3812,-3537.1261L13641.3514,-3537.1005L13641.3237,-3537.0842L13641.2751,-3537.0549L13641.2196,-3537.0155L13641.1974,-3537.0065L13641.1912,-3536.9896L13641.196,-3536.9429L13641.2092,-3536.9035L13641.2175,-3536.8905L13641.264,-3536.8523L13641.2772,-3536.8281L13641.2869,-3536.7977L13641.298,-3536.7583L13641.2959,-3536.7453L13641.289,-3536.7358L13641.2675,-3536.72L13641.2564,-3536.702L13641.2411,-3536.6667L13641.2411,-3536.6667L13641.2377,-3536.6587L13641.221,-3536.6345L13641.2196,-3536.6085L13641.2217,-3536.5613L13641.2176,-3536.5388L13641.2231,-3536.5275L13641.2453,-3536.518L13641.305,-3536.4926L13641.3327,-3536.4707L13641.3528,-3536.4431L13641.3598,-3536.4071L13641.3626,-3536.3587L13641.3376,-3536.2292L13641.3265,-3536.1729L13641.3348,-3536.1234L13641.3528,-3536.0423L13641.3528,-3535.9973L13641.3306,-3535.9444L13641.3029,-3535.9163L13641.2571,-3535.8881L13641.2238,-3535.8701L13641.2016,-3535.8521L13641.1739,-3535.842L13641.11,-3535.8442L13641.0712,-3535.8341L13641.0694,-3535.8333L13641.0694,-3535.8333L13641.0545,-3535.8273L13641.0379,-3535.8026L13641.0088,-3535.7722L13640.9949,-3535.7249L13640.9727,-3535.6968L13640.9616,-3535.6664L13640.9644,-3535.6371L13640.9824,-3535.6033L13640.9824,-3535.5211L13640.9891,-3535.5055L13640.9921,-3535.4986L13641.0643,-3535.4379L13641.0768,-3535.4232L13641.074,-3535.3996L13641.0546,-3535.3523L13641.0546,-3535.3095L13641.0476,-3535.2791L13641.0559,-3535.2544L13641.074,-3535.2341L13641.0976,-3535.2217L13641.1531,-3535.215L13641.2308,-3535.2138L13641.2807,-3535.215L13641.3265,-3535.2262L13641.3626,-3535.2487L13641.3792,-3535.2757L13641.3806,-3535.2915L13641.3806,-3535.3399L13641.382,-3535.3602L13641.4056,-3535.3714L13641.4278,-3535.3725L13641.4583,-3535.386L13641.4833,-3535.412L13641.4971,-3535.4255L13641.5749,-3535.4547L13641.6165,-3535.475L13641.6199,-3535.4752L13641.6387,-3535.4761L13641.6636,-3535.4739L13641.6667,-3535.4709L13641.6667,-3535.4709L13641.6845,-3535.4536L13641.7094,-3535.4097L13641.7399,-3535.3872L13641.7746,-3535.3804L13641.8121,-3535.3928L13641.8635,-3535.4142L13641.9051,-3535.4086L13641.9508,-3535.3917L13642.0424,-3535.3928L13642.1007,-3535.3894L13642.1423,-3535.3917L13642.1631,-3535.3815L13642.1756,-3535.3557L13642.1715,-3535.3275L13642.1588,-3535.3129L13642.1451,-3535.2971L13642.1104,-3535.2645L13642.091,-3535.2397L13642.0896,-3535.2014L13642.0938,-3535.1677L13642.1285,-3535.072L13642.1557,-3535.0163L13642.1636,-3535L13642.1636,-3535L13642.1766,-3534.9734L13642.1868,-3534.9526L13642.2033,-3534.9152L13642.2147,-3534.8896L13642.2242,-3534.8682L13642.2325,-3534.839L13642.2089,-3534.7962L13642.1812,-3534.7399L13642.1423,-3534.7005L13642.1106,-3534.6728L13642.0674,-3534.6352L13642.0133,-3534.6014L13641.998,-3534.58L13641.9855,-3534.5541L13641.9384,-3534.5102L13641.9245,-3534.4832L13641.919,-3534.4551L13641.9245,-3534.4213L13641.9398,-3534.3898L13641.9453,-3534.3763L13641.9273,-3534.3504L13641.8787,-3534.3031L13641.8621,-3534.2772L13641.8607,-3534.2524L13641.866,-3534.2388L13641.8787,-3534.2062L13641.8914,-3534.1784L13641.8968,-3534.1667L13641.8968,-3534.1667L13641.9023,-3534.1545L13641.9023,-3534.1185L13641.894,-3534.0959L13641.8732,-3534.0644L13641.8329,-3534.043L13641.7927,-3534.0307L13641.765,-3534.0171L13641.7469,-3533.998L13641.7275,-3533.9395L13641.6817,-3533.8685L13641.6667,-3533.8508L13641.6667,-3533.8508L13641.6387,-3533.8179L13641.6096,-3533.7549L13641.5846,-3533.7267L13641.5554,-3533.6997L13641.5346,-3533.6533L13641.5567,-3533.6124L13641.5468,-3533.5454L13641.5611,-3533.524L13641.5677,-3533.5052L13641.5584,-3533.4695L13641.5391,-3533.3954L13641.5159,-3533.3668L13641.4741,-3533.3489L13641.4597,-3533.3333L13641.4597,-3533.3333L13641.4576,-3533.331L13641.4697,-3533.2962L13641.4571,-3533.2634L13641.4444,-3533.2462L13641.3827,-3533.239L13641.3046,-3533.2212L13641.2861,-3533.2087L13641.2572,-3533.1801L13641.2231,-3533.0747L13641.222,-3533.0327L13641.2356,-3532.9829L13641.2341,-3532.9666L13641.211,-3532.9327L13641.1916,-3532.9219L13641.1538,-3532.913L13641.1427,-3532.9014L13641.1416,-3532.8692L13641.1296,-3532.8294L13641.1174,-3532.7942L13641.1247,-3532.7606L13641.1251,-3532.7585L13641.1408,-3532.7417L13641.1536,-3532.7279L13641.2539,-3532.6629L13641.2903,-3532.6245L13641.3222,-3532.5629L13641.3437,-3532.5L13641.3437,-3532.5L13641.3577,-3532.4592L13641.3629,-3532.4262L13641.3519,-3532.4021L13641.2627,-3532.3155L13641.2319,-3532.269L13641.2132,-3532.2181L13641.2242,-3532.1109L13641.2132,-3532.0064L13641.222,-3531.9635L13641.2206,-3531.9306L13641.2077,-3531.851L13641.2146,-3531.8178L13641.2275,-3531.7778L13641.2307,-3531.6667L13641.2307,-3531.6667L13641.2316,-3531.6359L13641.2264,-3531.5563L13641.2036,-3531.5052L13641.1734,-3531.4579L13641.1427,-3531.4098L13641.0925,-3531.3582L13640.9824,-3531.2673L13640.9126,-3531.1981L13640.8333,-3531.1165L13640.833,-3531.1161L13640.8202,-3531.1025L13640.7643,-3531.074L13640.7283,-3531.0375L13640.6782,-3530.9998L13640.6627,-3530.9748L13640.6613,-3530.9547L13640.6683,-3530.9409L13640.7211,-3530.8622L13640.7277,-3530.8355L13640.7279,-3530.8333L13640.7279,-3530.8333L13640.7303,-3530.7988L13640.7255,-3530.7587L13640.7128,-3530.7307L13640.7035,-3530.7104L13640.7112,-3530.6729L13640.7093,-3530.6543L13640.7013,-3530.6372L13640.6882,-3530.5894L13640.6848,-3530.5264L13640.6703,-3530.5017L13640.6595,-3530.4907L13640.6412,-3530.4798L13640.625,-3530.4711Z"/>
<path content="滋賀県,,犬上郡,多賀町,,25443" xlink:title="滋賀県" d="M13640.625,-3522.4104L13640.6339,-3522.4084L13640.6489,-3522.3982L13640.6674,-3522.3809L13640.6943,-3522.3695L13640.7513,-3522.3632L13640.8271,-3522.3678L13640.8319,-3522.3655L13640.8333,-3522.3648L13640.8333,-3522.3648L13640.8389,-3522.3622L13640.8958,-3522.3111L13640.9834,-3522.2296L13641.0234,-3522.1914L13641.0726,-3522.1484L13641.0747,-3522.1432L13641.0723,-3522.1153L13641.0732,-3522.1109L13641.1139,-3522.0754L13641.125,-3522.0539L13641.133,-3522.0437L13641.1352,-3522.0409L13641.1697,-3522.001L13641.1815,-3521.9792L13641.1904,-3521.9472L13641.2016,-3521.9292L13641.2146,-3521.9088L13641.214,-3521.8897L13641.1975,-3521.8651L13641.1945,-3521.852L13641.201,-3521.8447L13641.217,-3521.8399L13641.3897,-3521.8188L13641.5131,-3521.7744L13641.5219,-3521.7656L13641.5563,-3521.7407L13641.569,-3521.719L13641.5828,-3521.6714L13641.584,-3521.6667L13641.584,-3521.6667L13641.5928,-3521.6307L13641.5993,-3521.6094L13641.6046,-3521.5769L13641.6019,-3521.5338L13641.6025,-3521.5132L13641.6093,-3521.5048L13641.6346,-3521.4905L13641.6661,-3521.4702L13641.6667,-3521.4694L13641.6667,-3521.4693L13641.6764,-3521.4536L13641.6799,-3521.4389L13641.6779,-3521.4222L13641.672,-3521.4064L13641.6667,-3521.3823L13641.6667,-3521.3823L13641.6511,-3521.3119L13641.6316,-3521.2065L13641.6072,-3521.1164L13641.6081,-3521.0903L13641.6225,-3521.0389L13641.6284,-3521.0178L13641.6272,-3520.9747L13641.6302,-3520.925L13641.6458,-3520.8877L13641.6472,-3520.8723L13641.6414,-3520.8339L13641.6414,-3520.8333L13641.6414,-3520.8333L13641.6469,-3520.7966L13641.6431,-3520.7715L13641.6334,-3520.7534L13641.6113,-3520.7047L13641.5919,-3520.6671L13641.5922,-3520.6441L13641.6137,-3520.5484L13641.6269,-3520.5257L13641.6278,-3520.525L13641.6561,-3520.5013L13641.6667,-3520.4959L13641.6667,-3520.4959L13641.6862,-3520.486L13641.7123,-3520.4775L13641.7315,-3520.4727L13641.7476,-3520.4512L13641.7626,-3520.4241L13641.7773,-3520.4111L13641.7935,-3520.401L13641.7997,-3520.3894L13641.8002,-3520.3778L13641.7964,-3520.3712L13641.7826,-3520.3621L13641.7667,-3520.3447L13641.755,-3520.326L13641.7497,-3520.3106L13641.7349,-3520.2736L13641.727,-3520.2671L13641.6926,-3520.2599L13641.6746,-3520.2562L13641.6667,-3520.2534L13641.6667,-3520.2534L13641.6529,-3520.2485L13641.6101,-3520.2201L13641.5854,-3520.2106L13641.553,-3520.1981L13641.5233,-3520.1858L13641.5148,-3520.1769L13641.5016,-3520.1586L13641.4844,-3520.1291L13641.4783,-3520.1186L13641.4454,-3520.074L13641.4404,-3520.0637L13641.4321,-3520.0466L13641.4251,-3520.0148L13641.4181,-3520L13641.4106,-3519.9842L13641.3806,-3519.9488L13641.3747,-3519.9309L13641.3733,-3519.8902L13641.3771,-3519.8689L13641.3791,-3519.825L13641.3735,-3519.7848L13641.3538,-3519.7329L13641.33,-3519.6795L13641.3103,-3519.6446L13641.2906,-3519.6169L13641.2623,-3519.5911L13641.2614,-3519.5848L13641.2682,-3519.5537L13641.2861,-3519.5067L13641.2877,-3519.4978L13641.2935,-3519.4656L13641.2887,-3519.3783L13641.2828,-3519.3281L13641.279,-3519.2736L13641.2707,-3519.2053L13641.2631,-3519.1902L13641.2501,-3519.1765L13641.2417,-3519.1682L13641.2401,-3519.1667L13641.2054,-3519.1328L13641.1848,-3519.1201L13641.1377,-3519.0839L13641.1144,-3519.0282L13641.0835,-3518.9723L13641.0478,-3518.9289L13641.0102,-3518.8893L13640.9771,-3518.8227L13640.9678,-3518.8071L13640.9624,-3518.783L13640.9434,-3518.7661L13640.8901,-3518.7486L13640.8668,-3518.7293L13640.8659,-3518.7222L13640.8653,-3518.7183L13640.8333,-3518.7298L13640.7913,-3518.7449L13640.7257,-3518.7568L13640.6776,-3518.7653L13640.6429,-3518.7738L13640.625,-3518.7777Z"/>
</g>
</svg>
