<?xml version="1.0" encoding="UTF-8"?>
<svg  xmlns="http://www.w3.org/2000/svg" xmlns:xlink="http://www.w3.org/1999/xlink" xmlns:go="http://purl.org/svgmap/profile" property="geometry,N03_001,N03_002,N03_003,N03_004,N03_005,N03_007" viewBox="13464.84375 -3498.046875 8.7890625 8.7890625" go:dataArea="13464.84375 -3498.046875 8.7890625 8.7890625" >
<metadata>
 <rdf:RDF xmlns:rdf="http://www.w3.org/1999/02/22-rdf-syntax-ns#" xmlns:crs="http://opengis.org/xmldtds/transformations.dtd" xmlns:svg="http://www.w3.org/svg" >
  <rdf:Description>
   <crs:CoordinateReferenceSystem rdf:resource="http://purl.org/crs/84" svg:transform="matrix(100.0,0.0,0.0,-100.0,0.0,0.0)" />
  </rdf:Description>
 </rdf:RDF>
</metadata>
<globalCoordinateSystem srsName="http://purl.org/crs/84" transform="matrix(100.0,0.0,0.0,-100.0,0.0,0.0)" />
<defs>
 <g id="p0" >
  <circle cx="0.0" cy="0.0" r="3" stroke="green" stroke-width="2.0" vector-effect="non-scaling-stroke" />
 </g>
</defs>
<g fill="#0000ff" fill-rule="evenodd" opacity="0.5" >
<path content="兵庫県,,,姫路市,,28201" xlink:title="兵庫県" d="M13470.5565,-3498.0469L13470.5505,-3498.0436L13470.5257,-3498.0299L13470.4951,-3498.0142L13470.4881,-3498.0074L13470.4913,-3497.9901L13470.503,-3497.9763L13470.5053,-3497.9736L13470.5091,-3497.9584L13470.5136,-3497.9301L13470.5129,-3497.8965L13470.5187,-3497.8819L13470.5391,-3497.8656L13470.5734,-3497.8326L13470.5804,-3497.8179L13470.5813,-3497.8089L13470.583,-3497.7907L13470.5894,-3497.7747L13470.5983,-3497.7642L13470.6154,-3497.7422L13470.625,-3497.7301L13470.6314,-3497.7165L13470.6352,-3497.7044L13470.6326,-3497.685L13470.6282,-3497.6709L13470.6129,-3497.6541L13470.6027,-3497.6394L13470.6015,-3497.6305L13470.6027,-3497.6143L13470.6045,-3497.6084L13470.611,-3497.587L13470.6116,-3497.5836L13470.6186,-3497.5469L13470.6263,-3497.5149L13470.6283,-3497.5L13470.6295,-3497.4908L13470.6339,-3497.4541L13470.6314,-3497.4358L13470.6327,-3497.4216L13470.639,-3497.4012L13470.6479,-3497.3912L13470.6823,-3497.3684L13470.7091,-3497.3564L13470.7485,-3497.3365L13470.767,-3497.3239L13470.7824,-3497.3367L13470.8063,-3497.3519L13470.8288,-3497.3645L13470.8333,-3497.3667L13470.846,-3497.3727L13470.8659,-3497.3809L13470.8884,-3497.3841L13470.9149,-3497.3847L13470.9407,-3497.3852L13470.9546,-3497.3852L13470.9725,-3497.3885L13470.9824,-3497.3907L13471.0103,-3497.4005L13471.0281,-3497.4059L13471.0381,-3497.4092L13471.0487,-3497.4125L13471.0579,-3497.4106L13471.0686,-3497.4051L13471.0791,-3497.3939L13471.0951,-3497.3732L13471.1083,-3497.3579L13471.1249,-3497.3457L13471.1441,-3497.3315L13471.1659,-3497.3201L13471.1898,-3497.3135L13471.2129,-3497.3091L13471.2428,-3497.3037L13471.2659,-3497.2982L13471.2858,-3497.2933L13471.2984,-3497.2857L13471.305,-3497.2726L13471.3084,-3497.2524L13471.3156,-3497.2061L13471.3209,-3497.1935L13471.3355,-3497.1739L13471.3541,-3497.1641L13471.3832,-3497.1483L13471.4097,-3497.1229L13471.4263,-3497.1071L13471.4362,-3497.0957L13471.4435,-3497.0831L13471.4468,-3497.0575L13471.4507,-3497.0379L13471.458,-3497.022L13471.466,-3497.0067L13471.4719,-3496.992L13471.4806,-3496.98L13471.4998,-3496.9642L13471.515,-3496.9501L13471.5166,-3496.9469L13471.5229,-3496.9342L13471.5342,-3496.922L13471.5448,-3496.9144L13471.5567,-3496.9094L13471.57,-3496.9045L13471.5832,-3496.8936L13471.6024,-3496.8724L13471.6131,-3496.8456L13471.615,-3496.8227L13471.6137,-3496.7971L13471.6131,-3496.7486L13471.621,-3496.7322L13471.6396,-3496.7145L13471.6548,-3496.7063L13471.6667,-3496.6962L13471.674,-3496.6899L13471.6957,-3496.6667L13471.7164,-3496.6441L13471.7303,-3496.6283L13471.7389,-3496.6098L13471.7389,-3496.5918L13471.7323,-3496.5727L13471.7316,-3496.5547L13471.7316,-3496.5296L13471.7389,-3496.5146L13471.7495,-3496.4999L13471.7594,-3496.4884L13471.7594,-3496.4688L13471.7469,-3496.441L13471.7356,-3496.4105L13471.731,-3496.3947L13471.7329,-3496.3805L13471.7449,-3496.3587L13471.7548,-3496.3451L13471.7681,-3496.3271L13471.7827,-3496.3092L13471.8058,-3496.2804L13471.8164,-3496.2613L13471.82,-3496.2528L13471.8217,-3496.2488L13471.827,-3496.233L13471.827,-3496.221L13471.825,-3496.2041L13471.8204,-3496.1822L13471.8111,-3496.1561L13471.8049,-3496.1461L13471.7873,-3496.1174L13471.772,-3496.086L13471.7674,-3496.0729L13471.7661,-3496.0549L13471.7674,-3496.0386L13471.7694,-3496.0288L13471.7714,-3496.0189L13471.7714,-3496.0161L13471.7714,-3496.0113L13471.7641,-3496.0031L13471.7605,-3496.0013L13471.7488,-3495.9955L13471.723,-3495.99L13471.7031,-3495.9857L13471.6667,-3495.9802L13471.6303,-3495.9775L13471.6203,-3495.972L13471.6024,-3495.9481L13471.5885,-3495.9289L13471.5773,-3495.9082L13471.5587,-3495.8829L13471.5515,-3495.8801L13471.5382,-3495.8698L13471.5309,-3495.8507L13471.5252,-3495.8333L13471.5197,-3495.8163L13471.5111,-3495.7684L13471.5071,-3495.734L13471.5124,-3495.7166L13471.5289,-3495.7029L13471.5587,-3495.6716L13471.5717,-3495.6642L13471.578,-3495.6607L13471.6223,-3495.6503L13471.6222,-3495.6496L13471.6208,-3495.6361L13471.6185,-3495.6146L13471.6177,-3495.6066L13471.615,-3495.5816L13471.6203,-3495.5745L13471.6429,-3495.5745L13471.666,-3495.5729L13471.6667,-3495.5728L13471.6879,-3495.5707L13471.6992,-3495.5663L13471.7078,-3495.5565L13471.7131,-3495.5391L13471.723,-3495.5036L13471.725,-3495.49L13471.7257,-3495.4597L13471.727,-3495.4423L13471.727,-3495.4183L13471.7303,-3495.4014L13471.7356,-3495.3834L13471.7383,-3495.373L13471.7363,-3495.3616L13471.7276,-3495.3447L13471.7184,-3495.3316L13471.7157,-3495.319L13471.7204,-3495.3076L13471.7303,-3495.2939L13471.7508,-3495.2819L13471.8297,-3495.2637L13471.8462,-3495.2593L13471.8595,-3495.2522L13471.8714,-3495.2413L13471.8833,-3495.2239L13471.8893,-3495.1999L13471.8866,-3495.1873L13471.8687,-3495.1562L13471.8548,-3495.1355L13471.8436,-3495.123L13471.8383,-3495.1148L13471.8396,-3495.1088L13471.8502,-3495.1083L13471.8641,-3495.1088L13471.8853,-3495.1164L13471.9065,-3495.129L13471.9138,-3495.1336L13471.9244,-3495.1404L13471.9436,-3495.1481L13471.9595,-3495.1514L13471.9734,-3495.1524L13471.9979,-3495.1535L13472.0211,-3495.1557L13472.0502,-3495.1601L13472.0702,-3495.1661L13472.0727,-3495.1669L13472.08,-3495.1647L13472.0873,-3495.1598L13472.0959,-3495.15L13472.1138,-3495.1292L13472.1251,-3495.1069L13472.1344,-3495.0889L13472.1449,-3495.0791L13472.1622,-3495.0742L13472.1807,-3495.0714L13472.2013,-3495.0682L13472.2171,-3495.066L13472.2244,-3495.0589L13472.233,-3495.0486L13472.2403,-3495.0289L13472.2456,-3495.0104L13472.2534,-3495L13472.2615,-3494.9891L13472.2821,-3494.9635L13472.2927,-3494.9493L13472.3324,-3494.9071L13472.3443,-3494.9038L13472.3602,-3494.9032L13472.3741,-3494.9005L13472.3907,-3494.8961L13472.4086,-3494.8865L13472.4099,-3494.8858L13472.4265,-3494.8656L13472.4417,-3494.8481L13472.4642,-3494.8323L13472.4821,-3494.8182L13472.4934,-3494.8094L13472.5,-3494.8023L13472.5126,-3494.7887L13472.5205,-3494.7745L13472.5218,-3494.7642L13472.5212,-3494.7484L13472.5119,-3494.7268L13472.5093,-3494.7006L13472.5053,-3494.687L13472.5033,-3494.6723L13472.5026,-3494.6592L13472.5013,-3494.6461L13472.5026,-3494.6341L13472.5079,-3494.621L13472.5139,-3494.6057L13472.5172,-3494.5986L13472.5205,-3494.5916L13472.5192,-3494.5861L13472.5073,-3494.5719L13472.5,-3494.566L13472.4993,-3494.5654L13472.4854,-3494.5529L13472.4795,-3494.5392L13472.4828,-3494.4604L13472.4836,-3494.4578L13472.4894,-3494.4402L13472.4953,-3494.4353L13472.5,-3494.4322L13472.5026,-3494.4304L13472.5185,-3494.4244L13472.5344,-3494.4212L13472.5536,-3494.4206L13472.5709,-3494.4212L13472.5793,-3494.4214L13472.594,-3494.4217L13472.6186,-3494.4212L13472.6351,-3494.4206L13472.651,-3494.419L13472.6808,-3494.4113L13472.7086,-3494.3977L13472.7252,-3494.3852L13472.7358,-3494.3721L13472.7491,-3494.3612L13472.7669,-3494.3524L13472.8166,-3494.3402L13472.8338,-3494.3336L13472.8589,-3494.3174L13472.8736,-3494.308L13472.9113,-3494.2802L13472.9166,-3494.2606L13472.9126,-3494.2502L13472.9001,-3494.2333L13472.8848,-3494.2093L13472.8762,-3494.194L13472.8683,-3494.1722L13472.867,-3494.1667L13472.8603,-3494.1379L13472.8527,-3494.1179L13472.8517,-3494.1152L13472.8504,-3494.0978L13472.853,-3494.082L13472.8597,-3494.0679L13472.8656,-3494.0552L13472.8769,-3494.0416L13472.8828,-3494.0247L13472.8808,-3494.0067L13472.8649,-3493.9876L13472.8562,-3493.9694L13472.8537,-3493.9642L13472.8537,-3493.944L13472.8537,-3493.9427L13472.853,-3493.9222L13472.8596,-3493.8974L13472.8703,-3493.8843L13472.8795,-3493.8723L13472.8842,-3493.8614L13472.8881,-3493.8483L13472.8934,-3493.8276L13472.8957,-3493.8219L13472.8987,-3493.8145L13472.9073,-3493.8096L13472.9239,-3493.8058L13472.9729,-3493.7976L13473.0094,-3493.7851L13473.0395,-3493.7714L13473.055,-3493.7643L13473.1398,-3493.724L13473.1749,-3493.7117L13473.2154,-3493.7013L13473.2445,-3493.6986L13473.2657,-3493.6975L13473.2882,-3493.7013L13473.3061,-3493.7122L13473.3154,-3493.7221L13473.324,-3493.7308L13473.3333,-3493.7346L13473.3346,-3493.7351L13473.3432,-3493.7346L13473.3637,-3493.7259L13473.3684,-3493.7232L13473.3829,-3493.715L13473.4015,-3493.7084L13473.422,-3493.7002L13473.4452,-3493.6937L13473.4916,-3493.6814L13473.5154,-3493.6776L13473.5439,-3493.6754L13473.5684,-3493.6771L13473.5889,-3493.6809L13473.5962,-3493.6858L13473.6002,-3493.6945L13473.6041,-3493.7191L13473.6094,-3493.7496L13473.6108,-3493.7616L13473.6147,-3493.7752L13473.6253,-3493.7774L13473.6328,-3493.7778L13473.6328,-3489.2578L13464.8438,-3489.2578L13464.8438,-3498.0469Z"/>
<path content="兵庫県,,神崎郡,福崎町,,28443" xlink:title="兵庫県" d="M13473.6328,-3498.0469L13473.6328,-3493.7778L13473.6253,-3493.7774L13473.6147,-3493.7752L13473.6108,-3493.7616L13473.6094,-3493.7496L13473.6041,-3493.7191L13473.6002,-3493.6945L13473.5962,-3493.6858L13473.5889,-3493.6809L13473.5684,-3493.6771L13473.5439,-3493.6754L13473.5154,-3493.6776L13473.4916,-3493.6814L13473.4452,-3493.6937L13473.422,-3493.7002L13473.4015,-3493.7084L13473.3829,-3493.715L13473.3684,-3493.7232L13473.3637,-3493.7259L13473.3432,-3493.7346L13473.3346,-3493.7351L13473.3333,-3493.7346L13473.324,-3493.7308L13473.3154,-3493.7221L13473.3061,-3493.7122L13473.2882,-3493.7013L13473.2657,-3493.6975L13473.2445,-3493.6986L13473.2154,-3493.7013L13473.1749,-3493.7117L13473.1398,-3493.724L13473.055,-3493.7643L13473.0395,-3493.7714L13473.0094,-3493.7851L13472.9729,-3493.7976L13472.9239,-3493.8058L13472.9073,-3493.8096L13472.8987,-3493.8145L13472.8957,-3493.8219L13472.8934,-3493.8276L13472.8881,-3493.8483L13472.8842,-3493.8614L13472.8795,-3493.8723L13472.8703,-3493.8843L13472.8596,-3493.8974L13472.853,-3493.9222L13472.8537,-3493.9427L13472.8537,-3493.944L13472.8537,-3493.9642L13472.8562,-3493.9694L13472.8649,-3493.9876L13472.8808,-3494.0067L13472.8828,-3494.0247L13472.8769,-3494.0416L13472.8656,-3494.0552L13472.8597,-3494.0679L13472.853,-3494.082L13472.8504,-3494.0978L13472.8517,-3494.1152L13472.8527,-3494.1179L13472.8603,-3494.1379L13472.867,-3494.1667L13472.8683,-3494.1722L13472.8762,-3494.194L13472.8848,-3494.2093L13472.9001,-3494.2333L13472.9126,-3494.2502L13472.9166,-3494.2606L13472.9113,-3494.2802L13472.8736,-3494.308L13472.8589,-3494.3174L13472.8338,-3494.3336L13472.8166,-3494.3402L13472.7669,-3494.3524L13472.7491,-3494.3612L13472.7358,-3494.3721L13472.7252,-3494.3852L13472.7086,-3494.3977L13472.6808,-3494.4113L13472.651,-3494.419L13472.6351,-3494.4206L13472.6186,-3494.4212L13472.594,-3494.4217L13472.5793,-3494.4214L13472.5709,-3494.4212L13472.5536,-3494.4206L13472.5344,-3494.4212L13472.5185,-3494.4244L13472.5026,-3494.4304L13472.5,-3494.4322L13472.4953,-3494.4353L13472.4894,-3494.4402L13472.4836,-3494.4578L13472.4828,-3494.4604L13472.4795,-3494.5392L13472.4854,-3494.5529L13472.4993,-3494.5654L13472.5,-3494.566L13472.5073,-3494.5719L13472.5192,-3494.5861L13472.5205,-3494.5916L13472.5172,-3494.5986L13472.5139,-3494.6057L13472.5079,-3494.621L13472.5026,-3494.6341L13472.5013,-3494.6461L13472.5026,-3494.6592L13472.5033,-3494.6723L13472.5053,-3494.687L13472.5093,-3494.7006L13472.5119,-3494.7268L13472.5212,-3494.7484L13472.5218,-3494.7642L13472.5205,-3494.7745L13472.5126,-3494.7887L13472.5,-3494.8023L13472.4934,-3494.8094L13472.4821,-3494.8182L13472.4642,-3494.8323L13472.4417,-3494.8481L13472.4265,-3494.8656L13472.4099,-3494.8858L13472.4086,-3494.8865L13472.3907,-3494.8961L13472.3741,-3494.9005L13472.3602,-3494.9032L13472.3443,-3494.9038L13472.3324,-3494.9071L13472.2927,-3494.9493L13472.2821,-3494.9635L13472.2615,-3494.9891L13472.2534,-3495L13472.2456,-3495.0104L13472.2403,-3495.0289L13472.233,-3495.0486L13472.2244,-3495.0589L13472.2171,-3495.066L13472.2013,-3495.0682L13472.1807,-3495.0714L13472.1622,-3495.0742L13472.1449,-3495.0791L13472.1344,-3495.0889L13472.1251,-3495.1069L13472.1138,-3495.1292L13472.0959,-3495.15L13472.0873,-3495.1598L13472.08,-3495.1647L13472.0727,-3495.1669L13472.0702,-3495.1661L13472.0502,-3495.1601L13472.0211,-3495.1557L13471.9979,-3495.1535L13471.9734,-3495.1524L13471.9595,-3495.1514L13471.9436,-3495.1481L13471.9244,-3495.1404L13471.9138,-3495.1336L13471.9065,-3495.129L13471.8853,-3495.1164L13471.8641,-3495.1088L13471.8502,-3495.1083L13471.8396,-3495.1088L13471.8383,-3495.1148L13471.8436,-3495.123L13471.8548,-3495.1355L13471.8687,-3495.1562L13471.8866,-3495.1873L13471.8893,-3495.1999L13471.8833,-3495.2239L13471.8714,-3495.2413L13471.8595,-3495.2522L13471.8462,-3495.2593L13471.8297,-3495.2637L13471.7508,-3495.2819L13471.7303,-3495.2939L13471.7204,-3495.3076L13471.7157,-3495.319L13471.7184,-3495.3316L13471.7276,-3495.3447L13471.7363,-3495.3616L13471.7383,-3495.373L13471.7356,-3495.3834L13471.7303,-3495.4014L13471.727,-3495.4183L13471.727,-3495.4423L13471.7257,-3495.4597L13471.725,-3495.49L13471.723,-3495.5036L13471.7131,-3495.5391L13471.7078,-3495.5565L13471.6992,-3495.5663L13471.6879,-3495.5707L13471.6667,-3495.5728L13471.666,-3495.5729L13471.6429,-3495.5745L13471.6203,-3495.5745L13471.615,-3495.5816L13471.6177,-3495.6066L13471.6185,-3495.6146L13471.6208,-3495.6361L13471.6222,-3495.6496L13471.6223,-3495.6503L13471.578,-3495.6607L13471.5717,-3495.6642L13471.5587,-3495.6716L13471.5289,-3495.7029L13471.5124,-3495.7166L13471.5071,-3495.734L13471.5111,-3495.7684L13471.5197,-3495.8163L13471.5252,-3495.8333L13471.5309,-3495.8507L13471.5382,-3495.8698L13471.5515,-3495.8801L13471.5587,-3495.8829L13471.5773,-3495.9082L13471.5885,-3495.9289L13471.6024,-3495.9481L13471.6203,-3495.972L13471.6303,-3495.9775L13471.6667,-3495.9802L13471.7031,-3495.9857L13471.723,-3495.99L13471.7488,-3495.9955L13471.7605,-3496.0013L13471.7641,-3496.0031L13471.7714,-3496.0113L13471.7714,-3496.0161L13471.7714,-3496.0189L13471.7694,-3496.0288L13471.7674,-3496.0386L13471.7661,-3496.0549L13471.7674,-3496.0729L13471.772,-3496.086L13471.7873,-3496.1174L13471.8049,-3496.1461L13471.8111,-3496.1561L13471.8204,-3496.1822L13471.825,-3496.2041L13471.827,-3496.221L13471.827,-3496.233L13471.8217,-3496.2488L13471.82,-3496.2528L13471.8164,-3496.2613L13471.8058,-3496.2804L13471.7827,-3496.3092L13471.7681,-3496.3271L13471.7548,-3496.3451L13471.7449,-3496.3587L13471.7329,-3496.3805L13471.731,-3496.3947L13471.7356,-3496.4105L13471.7469,-3496.441L13471.7594,-3496.4688L13471.7594,-3496.4884L13471.7495,-3496.4999L13471.7389,-3496.5146L13471.7316,-3496.5296L13471.7316,-3496.5547L13471.7323,-3496.5727L13471.7389,-3496.5918L13471.7389,-3496.6098L13471.7303,-3496.6283L13471.7164,-3496.6441L13471.6957,-3496.6667L13471.674,-3496.6899L13471.6667,-3496.6962L13471.6548,-3496.7063L13471.6396,-3496.7145L13471.621,-3496.7322L13471.6131,-3496.7486L13471.6137,-3496.7971L13471.615,-3496.8227L13471.6131,-3496.8456L13471.6024,-3496.8724L13471.5832,-3496.8936L13471.57,-3496.9045L13471.5567,-3496.9094L13471.5448,-3496.9144L13471.5342,-3496.922L13471.5229,-3496.9342L13471.5166,-3496.9469L13471.515,-3496.9501L13471.4998,-3496.9642L13471.4806,-3496.98L13471.4719,-3496.992L13471.466,-3497.0067L13471.458,-3497.022L13471.4507,-3497.0379L13471.4468,-3497.0575L13471.4435,-3497.0831L13471.4362,-3497.0957L13471.4263,-3497.1071L13471.4097,-3497.1229L13471.3832,-3497.1483L13471.3541,-3497.1641L13471.3355,-3497.1739L13471.3209,-3497.1935L13471.3156,-3497.2061L13471.3084,-3497.2524L13471.305,-3497.2726L13471.2984,-3497.2857L13471.2858,-3497.2933L13471.2659,-3497.2982L13471.2428,-3497.3037L13471.2129,-3497.3091L13471.1898,-3497.3135L13471.1659,-3497.3201L13471.1441,-3497.3315L13471.1249,-3497.3457L13471.1083,-3497.3579L13471.0951,-3497.3732L13471.0791,-3497.3939L13471.0686,-3497.4051L13471.0579,-3497.4106L13471.0487,-3497.4125L13471.0381,-3497.4092L13471.0281,-3497.4059L13471.0103,-3497.4005L13470.9824,-3497.3907L13470.9725,-3497.3885L13470.9546,-3497.3852L13470.9407,-3497.3852L13470.9149,-3497.3847L13470.8884,-3497.3841L13470.8659,-3497.3809L13470.846,-3497.3727L13470.8333,-3497.3667L13470.8288,-3497.3645L13470.8063,-3497.3519L13470.7824,-3497.3367L13470.767,-3497.3239L13470.7485,-3497.3365L13470.7091,-3497.3564L13470.6823,-3497.3684L13470.6479,-3497.3912L13470.639,-3497.4012L13470.6327,-3497.4216L13470.6314,-3497.4358L13470.6339,-3497.4541L13470.6295,-3497.4908L13470.6283,-3497.5L13470.6263,-3497.5149L13470.6186,-3497.5469L13470.6116,-3497.5836L13470.611,-3497.587L13470.6045,-3497.6084L13470.6027,-3497.6143L13470.6015,-3497.6305L13470.6027,-3497.6394L13470.6129,-3497.6541L13470.6282,-3497.6709L13470.6326,-3497.685L13470.6352,-3497.7044L13470.6314,-3497.7165L13470.625,-3497.7301L13470.6154,-3497.7422L13470.5983,-3497.7642L13470.5894,-3497.7747L13470.583,-3497.7907L13470.5813,-3497.8089L13470.5804,-3497.8179L13470.5734,-3497.8326L13470.5391,-3497.8656L13470.5187,-3497.8819L13470.5129,-3497.8965L13470.5136,-3497.9301L13470.5091,-3497.9584L13470.5053,-3497.9736L13470.503,-3497.9763L13470.4913,-3497.9901L13470.4881,-3498.0074L13470.4951,-3498.0142L13470.5257,-3498.0299L13470.5505,-3498.0436L13470.5565,-3498.0469Z"/>
</g>
</svg>
