<?xml version="1.0" encoding="UTF-8"?>
<svg  xmlns="http://www.w3.org/2000/svg" xmlns:xlink="http://www.w3.org/1999/xlink" xmlns:go="http://purl.org/svgmap/profile" property="geometry,N03_001,N03_002,N03_003,N03_004,N03_005,N03_007" viewBox="13510.986328125 -3574.951171875 2.197265625 2.197265625" go:dataArea="13510.986328125 -3574.951171875 2.197265625 2.197265625" >
<metadata>
 <rdf:RDF xmlns:rdf="http://www.w3.org/1999/02/22-rdf-syntax-ns#" xmlns:crs="http://opengis.org/xmldtds/transformations.dtd" xmlns:svg="http://www.w3.org/svg" >
  <rdf:Description>
   <crs:CoordinateReferenceSystem rdf:resource="http://purl.org/crs/84" svg:transform="matrix(100.0,0.0,0.0,-100.0,0.0,0.0)" />
  </rdf:Description>
 </rdf:RDF>
</metadata>
<globalCoordinateSystem srsName="http://purl.org/crs/84" transform="matrix(100.0,0.0,0.0,-100.0,0.0,0.0)" />
<defs>
 <g id="p0" >
  <circle cx="0.0" cy="0.0" r="3" stroke="green" stroke-width="2.0" vector-effect="non-scaling-stroke" />
 </g>
</defs>
<g fill="#0000ff" fill-rule="evenodd" opacity="0.5" >
<path content="京都府,,,京丹後市,,26212" xlink:title="京都府" d="M13513.1836,-3574.9512L13513.1836,-3572.7539L13510.9863,-3572.7539L13510.9863,-3574.5161L13510.988,-3574.5141L13510.9895,-3574.5117L13510.992,-3574.5087L13510.9938,-3574.5066L13510.996,-3574.5064L13510.9987,-3574.507L13511.0023,-3574.509L13511.0047,-3574.511L13511.0062,-3574.5127L13511.0046,-3574.5143L13511.003,-3574.516L13511.0012,-3574.5178L13510.9995,-3574.5195L13510.9963,-3574.5207L13510.9927,-3574.5219L13510.9894,-3574.5232L13510.987,-3574.5255L13510.9863,-3574.5263L13510.9863,-3574.5562L13510.987,-3574.5557L13510.9879,-3574.5548L13510.989,-3574.553L13510.9902,-3574.5506L13510.9909,-3574.5489L13510.9916,-3574.5477L13510.9929,-3574.5459L13510.9952,-3574.5432L13510.9987,-3574.5395L13511.0006,-3574.5376L13511.0025,-3574.536L13511.0053,-3574.5338L13511.007,-3574.5326L13511.0089,-3574.5315L13511.0111,-3574.5303L13511.0127,-3574.5293L13511.0135,-3574.5286L13511.0139,-3574.528L13511.0141,-3574.5274L13511.0129,-3574.5263L13511.0129,-3574.5252L13511.015,-3574.5241L13511.0172,-3574.524L13511.0201,-3574.5245L13511.0229,-3574.5262L13511.0244,-3574.5275L13511.0297,-3574.5294L13511.0323,-3574.5306L13511.0336,-3574.5313L13511.0347,-3574.5322L13511.0355,-3574.5329L13511.0363,-3574.5338L13511.0373,-3574.5354L13511.0385,-3574.5377L13511.0394,-3574.5396L13511.0399,-3574.5412L13511.0405,-3574.5434L13511.0408,-3574.545L13511.0409,-3574.5464L13511.0408,-3574.5487L13511.0405,-3574.552L13511.04,-3574.5546L13511.0395,-3574.5566L13511.0386,-3574.5596L13511.0372,-3574.5632L13511.0357,-3574.5665L13511.0351,-3574.5678L13511.0339,-3574.5705L13511.0326,-3574.5728L13511.032,-3574.5739L13511.0311,-3574.5747L13511.0299,-3574.5756L13511.0289,-3574.5761L13511.0281,-3574.5763L13511.0255,-3574.5764L13511.0197,-3574.5765L13511.0172,-3574.5766L13511.0162,-3574.5767L13511.0153,-3574.577L13511.0146,-3574.5773L13511.0137,-3574.5781L13511.0126,-3574.5792L13511.012,-3574.5801L13511.0117,-3574.5809L13511.0112,-3574.5826L13511.0107,-3574.5843L13511.0102,-3574.5853L13511.0094,-3574.586L13511.0076,-3574.5873L13511.0064,-3574.5885L13511.0059,-3574.5892L13511.0057,-3574.5901L13511.0057,-3574.5921L13511.0057,-3574.5955L13511.0058,-3574.5983L13511.0062,-3574.5998L13511.0069,-3574.6013L13511.0087,-3574.6042L13511.0098,-3574.606L13511.0101,-3574.6067L13511.0102,-3574.6072L13511.0102,-3574.6075L13511.01,-3574.6078L13511.0096,-3574.6081L13511.0093,-3574.6082L13511.0087,-3574.6083L13511.0076,-3574.6083L13511.0069,-3574.6081L13511.0065,-3574.6077L13511.006,-3574.607L13511.0054,-3574.6065L13511.0049,-3574.6062L13511.0041,-3574.6059L13511.0028,-3574.6056L13511.0014,-3574.6052L13511.0005,-3574.6049L13510.9997,-3574.6044L13510.9989,-3574.6037L13510.9985,-3574.6035L13510.9982,-3574.6034L13510.9974,-3574.6034L13510.9962,-3574.6036L13510.9954,-3574.6038L13510.9946,-3574.6042L13510.9942,-3574.6045L13510.9939,-3574.6049L13510.9937,-3574.6054L13510.9937,-3574.6064L13510.9936,-3574.6074L13510.9935,-3574.608L13510.9932,-3574.6084L13510.9929,-3574.6087L13510.9924,-3574.609L13510.992,-3574.6092L13510.9914,-3574.6092L13510.9898,-3574.6089L13510.9863,-3574.6082L13510.9863,-3574.6427L13510.9869,-3574.6436L13510.9877,-3574.6454L13510.9883,-3574.6463L13510.9884,-3574.6465L13510.9894,-3574.6469L13510.9905,-3574.6471L13510.9915,-3574.6471L13510.9932,-3574.647L13510.9958,-3574.6467L13510.9978,-3574.6464L13511.0001,-3574.6457L13511.0023,-3574.6449L13511.004,-3574.6441L13511.0061,-3574.6428L13511.0078,-3574.6417L13511.0096,-3574.6403L13511.0106,-3574.6394L13511.0115,-3574.6383L13511.0121,-3574.6372L13511.0124,-3574.6361L13511.0126,-3574.6343L13511.0127,-3574.6328L13511.0128,-3574.6319L13511.0132,-3574.6309L13511.014,-3574.6292L13511.015,-3574.6274L13511.0159,-3574.6264L13511.0167,-3574.6255L13511.0183,-3574.6242L13511.0211,-3574.6222L13511.0259,-3574.6186L13511.0329,-3574.6133L13511.0369,-3574.6101L13511.0387,-3574.6084L13511.04,-3574.607L13511.0411,-3574.6054L13511.0422,-3574.603L13511.0445,-3574.5977L13511.0458,-3574.5943L13511.0461,-3574.5928L13511.0464,-3574.5919L13511.0468,-3574.5913L13511.0475,-3574.5904L13511.0491,-3574.5887L13511.0514,-3574.5864L13511.0524,-3574.5853L13511.0532,-3574.5839L13511.0539,-3574.5822L13511.0545,-3574.5813L13511.0555,-3574.5802L13511.0569,-3574.5788L13511.0579,-3574.5782L13511.0584,-3574.578L13511.0591,-3574.5779L13511.0602,-3574.5779L13511.0609,-3574.5781L13511.0614,-3574.5784L13511.0619,-3574.5794L13511.0623,-3574.5809L13511.0629,-3574.584L13511.0634,-3574.5863L13511.0638,-3574.5875L13511.0645,-3574.5887L13511.0653,-3574.5897L13511.0666,-3574.591L13511.0673,-3574.5918L13511.0677,-3574.5925L13511.0678,-3574.5931L13511.0677,-3574.5935L13511.0673,-3574.5938L13511.0662,-3574.5942L13511.064,-3574.595L13511.0615,-3574.5957L13511.0598,-3574.5964L13511.0588,-3574.5969L13511.058,-3574.5975L13511.0569,-3574.5986L13511.0563,-3574.5996L13511.0558,-3574.6007L13511.0557,-3574.6016L13511.0559,-3574.6028L13511.0564,-3574.604L13511.057,-3574.6047L13511.0579,-3574.6055L13511.0598,-3574.6069L13511.062,-3574.6087L13511.0634,-3574.6101L13511.0645,-3574.6116L13511.0658,-3574.6136L13511.0667,-3574.6147L13511.0672,-3574.6152L13511.0685,-3574.616L13511.0712,-3574.6174L13511.0725,-3574.6182L13511.073,-3574.6187L13511.0735,-3574.6195L13511.0739,-3574.6202L13511.0742,-3574.6211L13511.0742,-3574.6216L13511.0741,-3574.6219L13511.0735,-3574.6226L13511.0716,-3574.6245L13511.0696,-3574.6263L13511.0678,-3574.6277L13511.0648,-3574.6297L13511.0636,-3574.6308L13511.0632,-3574.6313L13511.063,-3574.6319L13511.0629,-3574.6324L13511.0631,-3574.633L13511.0636,-3574.6335L13511.0647,-3574.6342L13511.0662,-3574.6347L13511.0677,-3574.635L13511.07,-3574.6352L13511.0735,-3574.6353L13511.0785,-3574.6352L13511.0809,-3574.6352L13511.0818,-3574.6352L13511.0824,-3574.6353L13511.0828,-3574.6355L13511.0831,-3574.6359L13511.0831,-3574.6359L13511.083,-3574.6371L13511.0828,-3574.6373L13511.0824,-3574.6378L13511.0809,-3574.639L13511.0774,-3574.6416L13511.0752,-3574.6432L13511.0747,-3574.6435L13511.0741,-3574.6437L13511.0729,-3574.6439L13511.0714,-3574.6439L13511.0704,-3574.644L13511.0693,-3574.6442L13511.0684,-3574.6444L13511.0672,-3574.6448L13511.0664,-3574.6453L13511.0654,-3574.6461L13511.0646,-3574.6469L13511.064,-3574.6478L13511.0634,-3574.6492L13511.0632,-3574.6504L13511.0632,-3574.6512L13511.0634,-3574.6519L13511.0638,-3574.6525L13511.0645,-3574.6534L13511.0658,-3574.6546L13511.0681,-3574.6565L13511.0699,-3574.6581L13511.0709,-3574.6591L13511.0724,-3574.6606L13511.0734,-3574.6615L13511.0742,-3574.6618L13511.0751,-3574.6621L13511.0761,-3574.6623L13511.0769,-3574.6624L13511.0786,-3574.6623L13511.0816,-3574.6619L13511.0842,-3574.6615L13511.0857,-3574.6614L13511.0865,-3574.6614L13511.087,-3574.6615L13511.0874,-3574.6619L13511.0875,-3574.6623L13511.0876,-3574.6627L13511.0874,-3574.6632L13511.0863,-3574.6648L13511.0834,-3574.668L13511.0823,-3574.6696L13511.0821,-3574.6702L13511.0821,-3574.6707L13511.0824,-3574.6715L13511.0832,-3574.6729L13511.0834,-3574.6735L13511.0834,-3574.6737L13511.0831,-3574.6742L13511.0825,-3574.6746L13511.0819,-3574.6749L13511.0811,-3574.6752L13511.0797,-3574.6754L13511.0774,-3574.6756L13511.0748,-3574.6757L13511.0729,-3574.6757L13511.0719,-3574.6759L13511.0712,-3574.6761L13511.0706,-3574.6765L13511.0698,-3574.6773L13511.0685,-3574.6786L13511.0672,-3574.6798L13511.0658,-3574.681L13511.0633,-3574.6827L13511.061,-3574.6841L13511.0587,-3574.6853L13511.0558,-3574.6866L13511.0538,-3574.6875L13511.0527,-3574.6881L13511.0511,-3574.6893L13511.049,-3574.6908L13511.0466,-3574.6924L13511.0449,-3574.6937L13511.0441,-3574.6945L13511.0433,-3574.6953L13511.0426,-3574.6965L13511.0422,-3574.6973L13511.0422,-3574.6977L13511.0423,-3574.6984L13511.0427,-3574.6995L13511.0431,-3574.7001L13511.0435,-3574.7005L13511.0439,-3574.7007L13511.0445,-3574.7008L13511.0452,-3574.7009L13511.0458,-3574.7007L13511.0468,-3574.7001L13511.0487,-3574.6985L13511.0497,-3574.6977L13511.0504,-3574.6975L13511.0517,-3574.6972L13511.0536,-3574.6971L13511.055,-3574.6972L13511.0564,-3574.6974L13511.0573,-3574.6976L13511.0582,-3574.6979L13511.0589,-3574.6983L13511.0594,-3574.6988L13511.0602,-3574.6998L13511.0612,-3574.7016L13511.0619,-3574.7026L13511.0626,-3574.703L13511.0638,-3574.7035L13511.0648,-3574.7038L13511.0658,-3574.7039L13511.0675,-3574.704L13511.069,-3574.7039L13511.07,-3574.7038L13511.0711,-3574.7035L13511.0724,-3574.7029L13511.0739,-3574.7018L13511.0747,-3574.7013L13511.0752,-3574.7011L13511.0759,-3574.7009L13511.0764,-3574.7009L13511.0767,-3574.701L13511.0786,-3574.7015L13511.0818,-3574.7026L13511.0832,-3574.7029L13511.0838,-3574.703L13511.0848,-3574.7026L13511.0867,-3574.7018L13511.0878,-3574.7014L13511.0884,-3574.7013L13511.0892,-3574.7013L13511.0902,-3574.7014L13511.0917,-3574.7017L13511.0935,-3574.7021L13511.0949,-3574.7023L13511.0956,-3574.7022L13511.0962,-3574.7021L13511.0967,-3574.7019L13511.0973,-3574.7014L13511.0979,-3574.7008L13511.099,-3574.6993L13511.1008,-3574.6969L13511.1026,-3574.6946L13511.1045,-3574.6924L13511.1058,-3574.6905L13511.1069,-3574.6887L13511.1076,-3574.6875L13511.108,-3574.6866L13511.1081,-3574.686L13511.108,-3574.6853L13511.1077,-3574.6849L13511.1073,-3574.6848L13511.1064,-3574.6849L13511.1047,-3574.6854L13511.1036,-3574.6856L13511.1029,-3574.6856L13511.1021,-3574.6854L13511.1011,-3574.6849L13511.1005,-3574.6845L13511.0999,-3574.6837L13511.0995,-3574.6828L13511.0994,-3574.6819L13511.0993,-3574.6806L13511.0994,-3574.6794L13511.0996,-3574.6787L13511.1003,-3574.6772L13511.1021,-3574.6736L13511.1035,-3574.6706L13511.1043,-3574.6692L13511.1048,-3574.6686L13511.1054,-3574.6681L13511.106,-3574.6678L13511.1077,-3574.6671L13511.1116,-3574.6657L13511.1135,-3574.6648L13511.1144,-3574.6643L13511.1154,-3574.6635L13511.1163,-3574.6626L13511.1175,-3574.6608L13511.1191,-3574.6582L13511.1203,-3574.656L13511.121,-3574.6546L13511.1216,-3574.653L13511.1219,-3574.6519L13511.122,-3574.6505L13511.122,-3574.649L13511.1218,-3574.6467L13511.1216,-3574.6441L13511.1216,-3574.6423L13511.1218,-3574.6413L13511.1222,-3574.6406L13511.1236,-3574.639L13511.1257,-3574.6367L13511.1362,-3574.626L13511.1546,-3574.6077L13511.1705,-3574.5942L13511.1729,-3574.5927L13511.1762,-3574.5913L13511.1775,-3574.5909L13511.1798,-3574.5907L13511.182,-3574.5907L13511.1878,-3574.5915L13511.207,-3574.5935L13511.2293,-3574.5953L13511.2344,-3574.5957L13511.238,-3574.5955L13511.2421,-3574.5947L13511.2491,-3574.5932L13511.2769,-3574.5873L13511.2819,-3574.5859L13511.2846,-3574.5846L13511.2883,-3574.581L13511.2886,-3574.5798L13511.2885,-3574.5786L13511.2885,-3574.5764L13511.2891,-3574.5749L13511.2903,-3574.5727L13511.2916,-3574.5715L13511.2931,-3574.5695L13511.2948,-3574.5671L13511.2956,-3574.5656L13511.2958,-3574.5645L13511.2957,-3574.563L13511.2953,-3574.5613L13511.2946,-3574.56L13511.2933,-3574.5579L13511.2901,-3574.5558L13511.2875,-3574.5556L13511.2865,-3574.5553L13511.2843,-3574.5552L13511.2761,-3574.5534L13511.2747,-3574.5535L13511.2727,-3574.554L13511.272,-3574.556L13511.2722,-3574.559L13511.2729,-3574.562L13511.2734,-3574.5636L13511.2737,-3574.5674L13511.2732,-3574.5697L13511.2446,-3574.5784L13511.244,-3574.5786L13511.1734,-3574.5733L13511.1721,-3574.5712L13511.1716,-3574.5674L13511.1703,-3574.5594L13511.1667,-3574.5463L13511.1655,-3574.5445L13511.1641,-3574.5436L13511.1607,-3574.5419L13511.1417,-3574.5358L13511.1399,-3574.5334L13511.1382,-3574.5318L13511.1354,-3574.5299L13511.1338,-3574.5294L13511.1325,-3574.5294L13511.1311,-3574.5293L13511.1277,-3574.5292L13511.1276,-3574.5297L13511.1278,-3574.5386L13511.1277,-3574.5388L13511.1267,-3574.5388L13511.1114,-3574.5383L13511.0921,-3574.5376L13511.0915,-3574.5375L13511.0915,-3574.5373L13511.0916,-3574.5303L13511.0908,-3574.5299L13511.0857,-3574.5299L13511.0862,-3574.5278L13511.0862,-3574.525L13511.0861,-3574.5082L13511.0858,-3574.4763L13511.0864,-3574.4739L13511.0867,-3574.473L13511.0883,-3574.4728L13511.1144,-3574.4719L13511.1271,-3574.472L13511.1276,-3574.4995L13511.1276,-3574.5001L13511.1276,-3574.5007L13511.1278,-3574.5013L13511.128,-3574.5018L13511.1288,-3574.5038L13511.1351,-3574.5117L13511.1387,-3574.514L13511.141,-3574.5148L13511.1441,-3574.5149L13511.1486,-3574.5138L13511.1511,-3574.5137L13511.1547,-3574.5147L13511.1594,-3574.516L13511.1643,-3574.516L13511.1658,-3574.5155L13511.1683,-3574.5132L13511.1691,-3574.5112L13511.1691,-3574.5101L13511.1682,-3574.5087L13511.1646,-3574.5051L13511.1612,-3574.5029L13511.1596,-3574.502L13511.158,-3574.5004L13511.1564,-3574.4997L13511.1528,-3574.4991L13511.1456,-3574.4978L13511.1427,-3574.4979L13511.1415,-3574.497L13511.1424,-3574.4935L13511.1461,-3574.4882L13511.1481,-3574.4847L13511.1506,-3574.481L13511.1817,-3574.4556L13511.1961,-3574.4467L13511.1977,-3574.4461L13511.1994,-3574.4461L13511.2004,-3574.4469L13511.2025,-3574.4493L13511.2033,-3574.4504L13511.2044,-3574.4519L13511.244,-3574.5114L13511.245,-3574.5111L13511.2475,-3574.5101L13511.2478,-3574.5097L13511.2478,-3574.5091L13511.2201,-3574.467L13511.2019,-3574.4389L13511.203,-3574.438L13511.2042,-3574.4368L13511.2045,-3574.4367L13511.2055,-3574.4363L13511.2068,-3574.4361L13511.2214,-3574.4318L13511.227,-3574.4291L13511.2301,-3574.4268L13511.2338,-3574.4237L13511.2463,-3574.4144L13511.2511,-3574.4124L13511.2542,-3574.4114L13511.2617,-3574.4088L13511.2659,-3574.4065L13511.2682,-3574.4052L13511.2701,-3574.4043L13511.2773,-3574.4031L13511.2816,-3574.4026L13511.2842,-3574.4023L13511.2872,-3574.4013L13511.2905,-3574.4007L13511.2942,-3574.3995L13511.2978,-3574.3981L13511.3021,-3574.3966L13511.3057,-3574.3953L13511.3107,-3574.3937L13511.3236,-3574.3896L13511.3292,-3574.388L13511.3367,-3574.386L13511.3412,-3574.3848L13511.3493,-3574.383L13511.3582,-3574.3815L13511.3715,-3574.3796L13511.3991,-3574.3765L13511.4163,-3574.374L13511.4366,-3574.3726L13511.4606,-3574.3733L13511.4677,-3574.3739L13511.4751,-3574.375L13511.4809,-3574.3769L13511.5058,-3574.3877L13511.5134,-3574.3926L13511.5154,-3574.3942L13511.5239,-3574.4075L13511.5244,-3574.4088L13511.5249,-3574.4104L13511.5248,-3574.4112L13511.5245,-3574.412L13511.5238,-3574.413L13511.5225,-3574.4142L13511.521,-3574.4149L13511.5174,-3574.4168L13511.5117,-3574.4199L13511.5107,-3574.4212L13511.509,-3574.4236L13511.5081,-3574.4253L13511.5073,-3574.4265L13511.506,-3574.4278L13511.5047,-3574.4288L13511.5032,-3574.4298L13511.502,-3574.4306L13511.4999,-3574.4321L13511.4992,-3574.4328L13511.4989,-3574.4341L13511.4989,-3574.4349L13511.4993,-3574.4361L13511.5001,-3574.4371L13511.5008,-3574.4391L13511.5009,-3574.4403L13511.5007,-3574.4412L13511.5,-3574.4437L13511.4995,-3574.4465L13511.4997,-3574.4477L13511.5001,-3574.4488L13511.5006,-3574.4504L13511.5015,-3574.4524L13511.5065,-3574.4567L13511.509,-3574.4573L13511.5106,-3574.4577L13511.5118,-3574.4578L13511.5235,-3574.4579L13511.526,-3574.4578L13511.5281,-3574.4573L13511.5297,-3574.4568L13511.5319,-3574.4562L13511.5376,-3574.4547L13511.5415,-3574.4533L13511.5434,-3574.4521L13511.5445,-3574.4511L13511.5457,-3574.4508L13511.5466,-3574.451L13511.5471,-3574.4527L13511.5471,-3574.4538L13511.5471,-3574.455L13511.547,-3574.4553L13511.5466,-3574.4568L13511.5459,-3574.4582L13511.5428,-3574.4603L13511.5401,-3574.4626L13511.5363,-3574.4663L13511.5356,-3574.4668L13511.5351,-3574.4684L13511.5351,-3574.4706L13511.5356,-3574.4723L13511.5355,-3574.474L13511.5344,-3574.4762L13511.5335,-3574.4764L13511.532,-3574.4773L13511.5209,-3574.4803L13511.5196,-3574.4811L13511.5189,-3574.4821L13511.5189,-3574.4831L13511.52,-3574.484L13511.5303,-3574.4877L13511.5345,-3574.4879L13511.5466,-3574.4875L13511.5488,-3574.4874L13511.55,-3574.4874L13511.5554,-3574.4888L13511.5567,-3574.4893L13511.5588,-3574.4901L13511.5695,-3574.4928L13511.5736,-3574.4929L13511.5754,-3574.4929L13511.5772,-3574.4923L13511.5791,-3574.4914L13511.5807,-3574.4901L13511.5817,-3574.4882L13511.5822,-3574.4867L13511.5823,-3574.4824L13511.5821,-3574.4805L13511.581,-3574.4792L13511.5783,-3574.477L13511.5739,-3574.4748L13511.5705,-3574.4723L13511.5707,-3574.47L13511.572,-3574.4693L13511.5738,-3574.4689L13511.5758,-3574.469L13511.5883,-3574.4704L13511.5922,-3574.4719L13511.5947,-3574.4733L13511.6034,-3574.4796L13511.6067,-3574.4815L13511.6084,-3574.4821L13511.6117,-3574.4821L13511.6148,-3574.4821L13511.6164,-3574.4816L13511.6192,-3574.4805L13511.6221,-3574.4779L13511.624,-3574.4748L13511.6261,-3574.4708L13511.6274,-3574.4689L13511.6294,-3574.467L13511.6309,-3574.4658L13511.6325,-3574.4645L13511.6357,-3574.4626L13511.6376,-3574.462L13511.6424,-3574.4603L13511.644,-3574.46L13511.6468,-3574.46L13511.6509,-3574.4603L13511.6568,-3574.4617L13511.6615,-3574.4625L13511.6667,-3574.4626L13511.6812,-3574.4629L13511.6936,-3574.4646L13511.6967,-3574.4643L13511.7016,-3574.4642L13511.7047,-3574.4644L13511.7083,-3574.4651L13511.7106,-3574.4661L13511.7149,-3574.469L13511.7198,-3574.4702L13511.7245,-3574.4712L13511.7273,-3574.4711L13511.7303,-3574.4705L13511.7321,-3574.4705L13511.7351,-3574.4712L13511.7395,-3574.473L13511.7422,-3574.4737L13511.7453,-3574.4739L13511.751,-3574.4736L13511.7546,-3574.4731L13511.7574,-3574.4731L13511.7591,-3574.4734L13511.7655,-3574.4772L13511.7729,-3574.4807L13511.7796,-3574.4827L13511.7851,-3574.4838L13511.7881,-3574.4849L13511.7903,-3574.486L13511.7924,-3574.4868L13511.7962,-3574.4875L13511.7978,-3574.4875L13511.8006,-3574.4871L13511.8024,-3574.4872L13511.8053,-3574.4881L13511.8086,-3574.4893L13511.8147,-3574.4937L13511.8178,-3574.495L13511.8248,-3574.4963L13511.8277,-3574.4973L13511.8305,-3574.4984L13511.8342,-3574.5003L13511.8418,-3574.5037L13511.8469,-3574.5057L13511.8506,-3574.5094L13511.8518,-3574.5105L13511.8525,-3574.5131L13511.8531,-3574.5149L13511.8536,-3574.5177L13511.8542,-3574.5208L13511.8552,-3574.5253L13511.8576,-3574.5299L13511.8588,-3574.5321L13511.864,-3574.535L13511.8677,-3574.5357L13511.8711,-3574.5358L13511.8779,-3574.5322L13511.8803,-3574.5322L13511.8845,-3574.5316L13511.8894,-3574.5299L13511.8981,-3574.5264L13511.902,-3574.5268L13511.9102,-3574.527L13511.9131,-3574.5281L13511.915,-3574.5293L13511.9163,-3574.5302L13511.9177,-3574.5358L13511.9198,-3574.5414L13511.9224,-3574.5425L13511.9248,-3574.5431L13511.9263,-3574.5428L13511.9307,-3574.5398L13511.9337,-3574.539L13511.9359,-3574.539L13511.9378,-3574.5394L13511.94,-3574.5401L13511.9432,-3574.5393L13511.9459,-3574.5375L13511.9477,-3574.5348L13511.9487,-3574.5345L13511.9519,-3574.5341L13511.9567,-3574.536L13511.9593,-3574.5361L13511.962,-3574.5358L13511.9676,-3574.5346L13511.9705,-3574.5338L13511.9714,-3574.5333L13511.9727,-3574.5324L13511.9734,-3574.5322L13511.9743,-3574.5322L13511.9752,-3574.5324L13511.9765,-3574.5327L13511.985,-3574.538L13511.9919,-3574.544L13511.9971,-3574.5506L13511.9996,-3574.5522L13512.0011,-3574.5527L13512.0026,-3574.5529L13512.0044,-3574.5528L13512.0121,-3574.5509L13512.021,-3574.5488L13512.0326,-3574.5457L13512.0362,-3574.5457L13512.0388,-3574.546L13512.041,-3574.5466L13512.0435,-3574.5485L13512.046,-3574.5505L13512.0484,-3574.5547L13512.0487,-3574.5557L13512.0479,-3574.556L13512.0457,-3574.5564L13512.043,-3574.5564L13512.0385,-3574.5546L13512.0336,-3574.552L13512.0319,-3574.5516L13512.0303,-3574.5522L13512.021,-3574.5599L13512.0171,-3574.5647L13512.019,-3574.5695L13512.0189,-3574.5769L13512.0103,-3574.588L13512.0096,-3574.5928L13512.0102,-3574.5955L13512.018,-3574.5976L13512.0297,-3574.5967L13512.0435,-3574.5904L13512.0487,-3574.5899L13512.0539,-3574.5878L13512.0559,-3574.5883L13512.0565,-3574.5899L13512.0571,-3574.5937L13512.0571,-3574.5985L13512.0594,-3574.601L13512.0721,-3574.6001L13512.0969,-3574.5966L13512.1247,-3574.5908L13512.1399,-3574.5876L13512.1419,-3574.5866L13512.1432,-3574.5862L13512.1444,-3574.5861L13512.1455,-3574.5863L13512.1463,-3574.5869L13512.1468,-3574.5877L13512.1478,-3574.5892L13512.1487,-3574.5908L13512.1494,-3574.5911L13512.1513,-3574.5909L13512.1526,-3574.5905L13512.1529,-3574.59L13512.1524,-3574.5884L13512.1506,-3574.5838L13512.1505,-3574.582L13512.1515,-3574.5801L13512.1532,-3574.5786L13512.1556,-3574.5774L13512.1569,-3574.5767L13512.1605,-3574.5761L13512.1622,-3574.5761L13512.1634,-3574.5763L13512.164,-3574.5771L13512.1648,-3574.5779L13512.1662,-3574.5785L13512.1688,-3574.5787L13512.1706,-3574.5788L13512.1736,-3574.5782L13512.1754,-3574.5772L13512.1765,-3574.5756L13512.1773,-3574.574L13512.1778,-3574.572L13512.1783,-3574.5691L13512.1793,-3574.5663L13512.1817,-3574.5647L13512.1833,-3574.5639L13512.1868,-3574.563L13512.1894,-3574.5624L13512.1911,-3574.5623L13512.1949,-3574.5626L13512.198,-3574.5636L13512.2055,-3574.5661L13512.2122,-3574.5688L13512.2146,-3574.5701L13512.2161,-3574.5715L13512.2162,-3574.5725L13512.2161,-3574.5741L13512.2154,-3574.5757L13512.2136,-3574.577L13512.2115,-3574.5786L13512.2086,-3574.5813L13512.2081,-3574.583L13512.2083,-3574.5845L13512.2091,-3574.5857L13512.2115,-3574.5868L13512.2141,-3574.587L13512.2243,-3574.5867L13512.2305,-3574.5855L13512.236,-3574.5878L13512.2357,-3574.5916L13512.2352,-3574.5939L13512.2341,-3574.5966L13512.2352,-3574.5974L13512.2367,-3574.5979L13512.2379,-3574.5936L13512.2416,-3574.5962L13512.2425,-3574.6004L13512.2428,-3574.6018L13512.243,-3574.6032L13512.2446,-3574.6044L13512.2473,-3574.6045L13512.2538,-3574.6023L13512.2619,-3574.5992L13512.2668,-3574.5974L13512.2679,-3574.5966L13512.2859,-3574.5847L13512.2871,-3574.5841L13512.2993,-3574.5793L13512.3034,-3574.5768L13512.305,-3574.5762L13512.307,-3574.5758L13512.3084,-3574.5759L13512.3094,-3574.5763L13512.3107,-3574.5769L13512.3118,-3574.5774L13512.3132,-3574.5777L13512.3151,-3574.5777L13512.3185,-3574.5768L13512.3252,-3574.5757L13512.3286,-3574.5739L13512.3291,-3574.5737L13512.3315,-3574.5731L13512.3328,-3574.573L13512.3349,-3574.5729L13512.3356,-3574.5729L13512.3394,-3574.5731L13512.343,-3574.5743L13512.3443,-3574.5748L13512.3457,-3574.5753L13512.3465,-3574.5756L13512.3474,-3574.5757L13512.3487,-3574.5756L13512.3501,-3574.5757L13512.3553,-3574.5755L13512.3595,-3574.5751L13512.3612,-3574.5753L13512.3609,-3574.5764L13512.3572,-3574.5773L13512.3546,-3574.5772L13512.3528,-3574.5771L13512.3521,-3574.5772L13512.3515,-3574.5774L13512.3512,-3574.5778L13512.3509,-3574.5785L13512.3509,-3574.5791L13512.3509,-3574.58L13512.3513,-3574.5807L13512.3518,-3574.5811L13512.3526,-3574.5814L13512.3536,-3574.5815L13512.3589,-3574.5808L13512.3602,-3574.5803L13512.3618,-3574.5792L13512.3628,-3574.5783L13512.3634,-3574.5781L13512.3666,-3574.5765L13512.37,-3574.5754L13512.3746,-3574.5739L13512.3788,-3574.5725L13512.3825,-3574.5715L13512.3865,-3574.5709L13512.3896,-3574.5705L13512.3926,-3574.5692L13512.395,-3574.5676L13512.3973,-3574.5668L13512.3988,-3574.5662L13512.4036,-3574.5654L13512.4083,-3574.5649L13512.4119,-3574.5643L13512.4161,-3574.5636L13512.4213,-3574.5643L13512.4278,-3574.5661L13512.4354,-3574.5687L13512.4419,-3574.5712L13512.4481,-3574.574L13512.4535,-3574.576L13512.4605,-3574.5798L13512.4656,-3574.5823L13512.4705,-3574.5846L13512.4748,-3574.5862L13512.4799,-3574.5885L13512.4853,-3574.5909L13512.4908,-3574.5934L13512.4955,-3574.5952L13512.5,-3574.5966L13512.5008,-3574.5968L13512.5053,-3574.5981L13512.5105,-3574.5999L13512.5145,-3574.6021L13512.5183,-3574.6047L13512.5228,-3574.6078L13512.5255,-3574.6095L13512.5333,-3574.6161L13512.5382,-3574.6202L13512.5409,-3574.6222L13512.544,-3574.6245L13512.5458,-3574.6262L13512.55,-3574.6269L13512.5534,-3574.6285L13512.5577,-3574.6311L13512.5612,-3574.6331L13512.5647,-3574.6354L13512.5677,-3574.6374L13512.5705,-3574.6397L13512.573,-3574.6425L13512.5749,-3574.6458L13512.5767,-3574.6489L13512.5787,-3574.6521L13512.5792,-3574.6528L13512.58,-3574.6537L13512.5856,-3574.6585L13512.5909,-3574.6664L13512.5919,-3574.6674L13512.5929,-3574.6682L13512.5941,-3574.6693L13512.5952,-3574.6712L13512.5964,-3574.6723L13512.5977,-3574.6734L13512.5991,-3574.6745L13512.6032,-3574.6785L13512.6034,-3574.6785L13512.6089,-3574.6826L13512.6119,-3574.6836L13512.6196,-3574.6885L13512.6261,-3574.6929L13512.6376,-3574.7001L13512.6523,-3574.7093L13512.655,-3574.7116L13512.6568,-3574.7131L13512.657,-3574.7138L13512.6569,-3574.7146L13512.656,-3574.7154L13512.656,-3574.716L13512.6565,-3574.7167L13512.6576,-3574.7174L13512.662,-3574.7189L13512.6662,-3574.7203L13512.6676,-3574.7212L13512.6688,-3574.7236L13512.667,-3574.7244L13512.6621,-3574.7243L13512.6612,-3574.7244L13512.661,-3574.7254L13512.6623,-3574.7291L13512.6632,-3574.7299L13512.6644,-3574.73L13512.6656,-3574.7291L13512.6664,-3574.7281L13512.6677,-3574.7281L13512.6702,-3574.7279L13512.6714,-3574.7273L13512.6722,-3574.7261L13512.6731,-3574.7256L13512.6747,-3574.7257L13512.6766,-3574.7257L13512.678,-3574.7272L13512.6792,-3574.7287L13512.6811,-3574.7295L13512.6845,-3574.7314L13512.6868,-3574.7336L13512.6876,-3574.7339L13512.6934,-3574.734L13512.6967,-3574.7344L13512.698,-3574.7377L13512.6983,-3574.7426L13512.6988,-3574.7445L13512.7003,-3574.7466L13512.7027,-3574.7506L13512.7057,-3574.7542L13512.7077,-3574.7553L13512.7095,-3574.7558L13512.7124,-3574.756L13512.7185,-3574.756L13512.7203,-3574.7558L13512.725,-3574.7547L13512.7264,-3574.7549L13512.7286,-3574.7556L13512.7314,-3574.7568L13512.7344,-3574.7586L13512.7378,-3574.7621L13512.7414,-3574.7638L13512.7465,-3574.7663L13512.7504,-3574.7676L13512.7523,-3574.7689L13512.7549,-3574.7689L13512.7585,-3574.7713L13512.7611,-3574.7731L13512.7649,-3574.7745L13512.7688,-3574.7755L13512.7731,-3574.7769L13512.7759,-3574.7783L13512.7786,-3574.7805L13512.7811,-3574.7813L13512.7835,-3574.7842L13512.7844,-3574.7871L13512.7829,-3574.7893L13512.7852,-3574.7915L13512.7884,-3574.7923L13512.7908,-3574.7943L13512.7924,-3574.7964L13512.7926,-3574.7982L13512.7954,-3574.7996L13512.7979,-3574.801L13512.801,-3574.8027L13512.8007,-3574.8047L13512.8013,-3574.8078L13512.8032,-3574.8096L13512.8045,-3574.8106L13512.8062,-3574.8108L13512.8076,-3574.8114L13512.8076,-3574.8134L13512.807,-3574.8156L13512.8078,-3574.8173L13512.8095,-3574.8187L13512.8111,-3574.8185L13512.8124,-3574.8181L13512.8123,-3574.82L13512.8116,-3574.8214L13512.8128,-3574.8228L13512.8147,-3574.8225L13512.8169,-3574.8215L13512.8188,-3574.8224L13512.8204,-3574.824L13512.8232,-3574.824L13512.8267,-3574.8232L13512.8291,-3574.8232L13512.8299,-3574.8252L13512.8323,-3574.8263L13512.8355,-3574.8276L13512.8384,-3574.8288L13512.8435,-3574.8307L13512.8473,-3574.8313L13512.8494,-3574.8317L13512.8507,-3574.8324L13512.8531,-3574.8333L13512.8545,-3574.831L13512.8573,-3574.8299L13512.8601,-3574.8304L13512.8621,-3574.8322L13512.8668,-3574.8364L13512.8696,-3574.8395L13512.8717,-3574.843L13512.8736,-3574.8456L13512.8752,-3574.8483L13512.8765,-3574.8515L13512.8782,-3574.8553L13512.8788,-3574.857L13512.8793,-3574.8591L13512.8789,-3574.8617L13512.8802,-3574.865L13512.8816,-3574.8683L13512.8842,-3574.872L13512.8873,-3574.8748L13512.8905,-3574.8763L13512.8938,-3574.8777L13512.8956,-3574.88L13512.8977,-3574.8833L13512.8992,-3574.8857L13512.901,-3574.8877L13512.9031,-3574.8892L13512.906,-3574.8898L13512.9087,-3574.8908L13512.9115,-3574.8913L13512.914,-3574.8912L13512.9169,-3574.8907L13512.92,-3574.8905L13512.9239,-3574.8901L13512.927,-3574.8892L13512.9302,-3574.8882L13512.9331,-3574.887L13512.9361,-3574.8865L13512.9404,-3574.886L13512.9435,-3574.8855L13512.9479,-3574.8853L13512.9521,-3574.8852L13512.9549,-3574.8848L13512.9571,-3574.8846L13512.9609,-3574.8851L13512.9638,-3574.8862L13512.9673,-3574.8883L13512.9699,-3574.8902L13512.9722,-3574.892L13512.9741,-3574.8941L13512.9755,-3574.8967L13512.9769,-3574.8988L13512.979,-3574.9015L13512.981,-3574.9041L13512.9828,-3574.9065L13512.9855,-3574.909L13512.9874,-3574.9109L13512.9894,-3574.9134L13512.9923,-3574.9143L13512.9958,-3574.9163L13512.998,-3574.9186L13513.0021,-3574.9213L13513.0054,-3574.9233L13513.008,-3574.9262L13513.0099,-3574.9289L13513.0125,-3574.9311L13513.0165,-3574.933L13513.0189,-3574.9349L13513.0209,-3574.9361L13513.0248,-3574.9372L13513.0276,-3574.9384L13513.0317,-3574.9395L13513.0367,-3574.9418L13513.0412,-3574.9439L13513.0471,-3574.9468L13513.0513,-3574.9489L13513.0529,-3574.9504L13513.0534,-3574.9512Z"/>
<path content="京都府,,,京丹後市,,26212" xlink:title="京都府" d="M13511.1287,-3574.7119L13511.1295,-3574.7118L13511.13,-3574.7119L13511.1303,-3574.7121L13511.1304,-3574.7125L13511.1306,-3574.7135L13511.1309,-3574.7141L13511.1311,-3574.7144L13511.1316,-3574.7147L13511.1321,-3574.7148L13511.1328,-3574.7147L13511.1335,-3574.7143L13511.1346,-3574.7135L13511.1354,-3574.7131L13511.1362,-3574.713L13511.1368,-3574.7131L13511.1376,-3574.7133L13511.1383,-3574.7136L13511.1389,-3574.7141L13511.1399,-3574.7149L13511.1409,-3574.7156L13511.142,-3574.7161L13511.1428,-3574.7164L13511.1437,-3574.7166L13511.1445,-3574.7166L13511.1451,-3574.7165L13511.1457,-3574.7163L13511.1461,-3574.7161L13511.1463,-3574.7158L13511.1464,-3574.7151L13511.1467,-3574.7135L13511.147,-3574.7126L13511.1476,-3574.7118L13511.1482,-3574.7112L13511.1491,-3574.7108L13511.151,-3574.7101L13511.1523,-3574.7095L13511.153,-3574.709L13511.1538,-3574.708L13511.1543,-3574.7076L13511.1552,-3574.7072L13511.1562,-3574.7066L13511.1569,-3574.7061L13511.1573,-3574.7055L13511.1576,-3574.705L13511.1578,-3574.7041L13511.1579,-3574.7033L13511.1577,-3574.7017L13511.1572,-3574.6996L13511.1568,-3574.6985L13511.1565,-3574.698L13511.1557,-3574.6973L13511.1535,-3574.6957L13511.1515,-3574.694L13511.1504,-3574.6929L13511.1496,-3574.692L13511.1489,-3574.6909L13511.1487,-3574.6903L13511.1487,-3574.69L13511.1489,-3574.6897L13511.1494,-3574.6894L13511.1502,-3574.6893L13511.1512,-3574.6893L13511.1522,-3574.6896L13511.1541,-3574.6902L13511.1552,-3574.6905L13511.1563,-3574.6906L13511.1575,-3574.6907L13511.1585,-3574.6907L13511.1596,-3574.691L13511.1616,-3574.6916L13511.1625,-3574.6919L13511.1631,-3574.6919L13511.164,-3574.6918L13511.1652,-3574.6915L13511.166,-3574.6911L13511.1666,-3574.6907L13511.1668,-3574.6903L13511.167,-3574.6898L13511.167,-3574.6892L13511.1668,-3574.6885L13511.1666,-3574.6878L13511.1661,-3574.6871L13511.1655,-3574.6865L13511.1647,-3574.6857L13511.1634,-3574.6847L13511.1609,-3574.683L13511.158,-3574.6813L13511.1565,-3574.6805L13511.1554,-3574.6801L13511.1543,-3574.6798L13511.1531,-3574.6796L13511.1519,-3574.6792L13511.1492,-3574.678L13511.1459,-3574.6766L13511.1437,-3574.6758L13511.1419,-3574.6753L13511.1395,-3574.6747L13511.1368,-3574.6741L13511.1353,-3574.6735L13511.1348,-3574.6731L13511.1345,-3574.6729L13511.1338,-3574.6719L13511.133,-3574.6704L13511.1321,-3574.6684L13511.1315,-3574.6672L13511.1309,-3574.6662L13511.1304,-3574.6655L13511.1295,-3574.6648L13511.1277,-3574.6637L13511.1257,-3574.6627L13511.1243,-3574.6623L13511.1233,-3574.6621L13511.1223,-3574.6622L13511.1209,-3574.6624L13511.1201,-3574.6628L13511.1197,-3574.6631L13511.1194,-3574.6635L13511.1193,-3574.664L13511.1194,-3574.6646L13511.1199,-3574.6657L13511.121,-3574.6676L13511.1214,-3574.6685L13511.1214,-3574.669L13511.1213,-3574.67L13511.121,-3574.6719L13511.1207,-3574.6731L13511.1201,-3574.6742L13511.1193,-3574.6755L13511.1187,-3574.6764L13511.1181,-3574.6779L13511.1174,-3574.6798L13511.1172,-3574.6809L13511.1172,-3574.6827L13511.1174,-3574.6856L13511.1175,-3574.6868L13511.1177,-3574.6873L13511.1181,-3574.6878L13511.119,-3574.6882L13511.1197,-3574.6885L13511.1205,-3574.6885L13511.1219,-3574.6885L13511.1232,-3574.6884L13511.124,-3574.6881L13511.1248,-3574.6878L13511.1257,-3574.6874L13511.1262,-3574.6872L13511.1267,-3574.6872L13511.127,-3574.6874L13511.1272,-3574.6879L13511.1273,-3574.6889L13511.1272,-3574.6895L13511.1269,-3574.69L13511.1263,-3574.6906L13511.1256,-3574.691L13511.1249,-3574.6913L13511.1233,-3574.6917L13511.12,-3574.6923L13511.1177,-3574.6926L13511.1163,-3574.6927L13511.1149,-3574.6926L13511.1138,-3574.6926L13511.1131,-3574.6928L13511.1125,-3574.6931L13511.1117,-3574.6938L13511.1112,-3574.6943L13511.1105,-3574.6954L13511.1096,-3574.6974L13511.1085,-3574.6996L13511.1073,-3574.7016L13511.1065,-3574.7031L13511.1063,-3574.7038L13511.1064,-3574.7044L13511.1068,-3574.7051L13511.1071,-3574.7055L13511.1077,-3574.7058L13511.1087,-3574.7062L13511.1097,-3574.7067L13511.1103,-3574.7071L13511.1111,-3574.7079L13511.112,-3574.7088L13511.1134,-3574.7101L13511.1146,-3574.7112L13511.1154,-3574.7121L13511.1158,-3574.7127L13511.1161,-3574.7134L13511.1163,-3574.7143L13511.1163,-3574.715L13511.1165,-3574.7155L13511.1171,-3574.7162L13511.1177,-3574.7167L13511.1184,-3574.717L13511.1189,-3574.7171L13511.1196,-3574.7171L13511.1202,-3574.7169L13511.1208,-3574.7166L13511.1217,-3574.716L13511.1232,-3574.7146L13511.1248,-3574.7134L13511.126,-3574.7128L13511.1272,-3574.7124L13511.1287,-3574.7119Z"/>
<path content="京都府,,,京丹後市,,26212" xlink:title="京都府" d="M13512.28,-3574.6006L13512.2796,-3574.6001L13512.2678,-3574.6003L13512.2262,-3574.6144L13512.2236,-3574.6153L13512.2178,-3574.6177L13512.2152,-3574.6197L13512.2104,-3574.6229L13512.2091,-3574.6243L13512.2086,-3574.6256L13512.2089,-3574.627L13512.2097,-3574.6278L13512.2115,-3574.6285L13512.2136,-3574.629L13512.2154,-3574.6294L13512.2181,-3574.6297L13512.2203,-3574.6296L13512.2264,-3574.6286L13512.2433,-3574.6232L13512.2658,-3574.6176L13512.2681,-3574.6165L13512.2693,-3574.6157L13512.2785,-3574.6034L13512.28,-3574.6013L13512.28,-3574.6006Z"/>
<path content="京都府,,,京丹後市,,26212" xlink:title="京都府" d="M13511.862,-3574.7258L13511.8579,-3574.7258L13511.8539,-3574.727L13511.8496,-3574.7303L13511.8476,-3574.7336L13511.8468,-3574.7358L13511.8526,-3574.7396L13511.8579,-3574.7386L13511.8604,-3574.7359L13511.8641,-3574.7332L13511.864,-3574.7303L13511.8647,-3574.7297L13511.8647,-3574.7274L13511.8639,-3574.7264L13511.862,-3574.7258Z"/>
<path content="京都府,,,京丹後市,,26212" xlink:title="京都府" d="M13511.5133,-3574.4948L13511.5154,-3574.4941L13511.5147,-3574.4908L13511.5133,-3574.4891L13511.5104,-3574.4874L13511.5003,-3574.4873L13511.4954,-3574.4891L13511.4932,-3574.4914L13511.4932,-3574.4936L13511.4967,-3574.4953L13511.5022,-3574.4947L13511.5051,-3574.4947L13511.5066,-3574.4959L13511.5078,-3574.4968L13511.5105,-3574.4964L13511.5133,-3574.4948Z"/>
<path content="京都府,,,京丹後市,,26212" xlink:title="京都府" d="M13511.8385,-3574.5184L13511.8378,-3574.5167L13511.833,-3574.5172L13511.8289,-3574.519L13511.8241,-3574.523L13511.824,-3574.5274L13511.8275,-3574.5285L13511.8317,-3574.5284L13511.8337,-3574.5273L13511.8387,-3574.5234L13511.8385,-3574.5184Z"/>
<path content="京都府,,,京丹後市,,26212" xlink:title="京都府" d="M13512.1251,-3574.6498L13512.1224,-3574.6486L13512.1133,-3574.65L13512.1109,-3574.6511L13512.1101,-3574.6531L13512.1117,-3574.655L13512.1136,-3574.6559L13512.1153,-3574.6566L13512.1181,-3574.6584L13512.1221,-3574.6576L13512.1253,-3574.6562L13512.1259,-3574.6531L13512.1251,-3574.6498Z"/>
<path content="京都府,,,京丹後市,,26212" xlink:title="京都府" d="M13511.8591,-3574.6068L13511.8579,-3574.6064L13511.8565,-3574.6076L13511.8516,-3574.6088L13511.8483,-3574.6098L13511.8468,-3574.6116L13511.8468,-3574.6169L13511.8488,-3574.6169L13511.8543,-3574.6156L13511.8579,-3574.6148L13511.8584,-3574.6135L13511.8613,-3574.6085L13511.8591,-3574.6068Z"/>
<path content="京都府,,,京丹後市,,26212" xlink:title="京都府" d="M13512.0899,-3574.6542L13512.085,-3574.6534L13512.0824,-3574.6542L13512.0795,-3574.6554L13512.0776,-3574.6575L13512.0761,-3574.6593L13512.0768,-3574.661L13512.0796,-3574.6615L13512.0886,-3574.6609L13512.0907,-3574.659L13512.0899,-3574.6542Z"/>
<path content="京都府,,,京丹後市,,26212" xlink:title="京都府" d="M13512.3536,-3574.6858L13512.3535,-3574.6854L13512.3523,-3574.6854L13512.3521,-3574.6849L13512.3516,-3574.6848L13512.3515,-3574.6844L13512.3504,-3574.6843L13512.3504,-3574.6849L13512.3457,-3574.6849L13512.3455,-3574.6853L13512.344,-3574.686L13512.3421,-3574.6876L13512.341,-3574.6886L13512.3414,-3574.6897L13512.3421,-3574.6909L13512.3441,-3574.6913L13512.3452,-3574.6918L13512.3483,-3574.6917L13512.3488,-3574.6913L13512.3502,-3574.6912L13512.3512,-3574.6911L13512.3514,-3574.6908L13512.3523,-3574.6902L13512.3536,-3574.6896L13512.3543,-3574.6891L13512.3547,-3574.6889L13512.3547,-3574.6873L13512.3544,-3574.6873L13512.3542,-3574.6869L13512.3536,-3574.6858Z"/>
<path content="京都府,,,京丹後市,,26212" xlink:title="京都府" d="M13512.153,-3574.5993L13512.1527,-3574.5992L13512.1524,-3574.5993L13512.1523,-3574.5993L13512.1522,-3574.5994L13512.1512,-3574.6008L13512.1507,-3574.6022L13512.1508,-3574.6024L13512.1509,-3574.6025L13512.151,-3574.6027L13512.1657,-3574.6091L13512.1664,-3574.6093L13512.1665,-3574.6094L13512.1668,-3574.6094L13512.167,-3574.6094L13512.1672,-3574.6093L13512.1673,-3574.6092L13512.1677,-3574.6086L13512.1685,-3574.6069L13512.1686,-3574.6068L13512.1686,-3574.6066L13512.1686,-3574.6065L13512.1684,-3574.6065L13512.1682,-3574.6063L13512.1538,-3574.5996L13512.153,-3574.5993Z"/>
<path content="京都府,,,京丹後市,,26212" xlink:title="京都府" d="M13512.3833,-3574.5792L13512.3827,-3574.5781L13512.3802,-3574.5782L13512.3764,-3574.5788L13512.3727,-3574.5794L13512.3713,-3574.58L13512.3702,-3574.5805L13512.3698,-3574.5809L13512.3694,-3574.5813L13512.3694,-3574.5817L13512.3695,-3574.5821L13512.3697,-3574.5826L13512.3702,-3574.5833L13512.3711,-3574.5838L13512.3773,-3574.584L13512.3782,-3574.5839L13512.3798,-3574.5839L13512.3805,-3574.5837L13512.3807,-3574.5834L13512.3811,-3574.5828L13512.3812,-3574.5826L13512.3813,-3574.5823L13512.3812,-3574.5819L13512.3816,-3574.5804L13512.3833,-3574.5792Z"/>
<path content="京都府,,,京丹後市,,26212" xlink:title="京都府" d="M13512.3967,-3574.5752L13512.3933,-3574.5745L13512.3903,-3574.5751L13512.389,-3574.5751L13512.3879,-3574.5766L13512.3864,-3574.5783L13512.3874,-3574.5791L13512.3866,-3574.5806L13512.3895,-3574.5807L13512.3924,-3574.5793L13512.3954,-3574.5769L13512.3967,-3574.5752Z"/>
</g>
</svg>
