<?xml version="1.0" encoding="UTF-8"?>
<svg  xmlns="http://www.w3.org/2000/svg" xmlns:xlink="http://www.w3.org/1999/xlink" xmlns:go="http://purl.org/svgmap/profile" property="geometry,N03_001,N03_002,N03_003,N03_004,N03_005,N03_007" viewBox="13535.15625 -3392.578125 17.578125 17.578125" go:dataArea="13535.15625 -3392.578125 17.578125 17.578125" >
<metadata>
 <rdf:RDF xmlns:rdf="http://www.w3.org/1999/02/22-rdf-syntax-ns#" xmlns:crs="http://opengis.org/xmldtds/transformations.dtd" xmlns:svg="http://www.w3.org/svg" >
  <rdf:Description>
   <crs:CoordinateReferenceSystem rdf:resource="http://purl.org/crs/84" svg:transform="matrix(100.0,0.0,0.0,-100.0,0.0,0.0)" />
  </rdf:Description>
 </rdf:RDF>
</metadata>
<globalCoordinateSystem srsName="http://purl.org/crs/84" transform="matrix(100.0,0.0,0.0,-100.0,0.0,0.0)" />
<defs>
 <g id="p0" >
  <circle cx="0.0" cy="0.0" r="3" stroke="green" stroke-width="2.0" vector-effect="non-scaling-stroke" />
 </g>
</defs>
<g fill="#0000ff" fill-rule="evenodd" opacity="0.5" >
<path content="和歌山県,,,田辺市,,30206" xlink:title="和歌山県" d="M13552.7344,-3392.5781L13552.7344,-3375L13548.6496,-3375L13548.6513,-3375.0047L13548.6646,-3375.0313L13548.6735,-3375.0488L13548.6845,-3375.0645L13548.7014,-3375.0766L13548.7219,-3375.0942L13548.7244,-3375.1046L13548.7248,-3375.115L13548.7155,-3375.1337L13548.7042,-3375.1435L13548.6748,-3375.1644L13548.6466,-3375.1862L13548.6155,-3375.2194L13548.5969,-3375.2466L13548.5574,-3375.2996L13548.5473,-3375.3178L13548.5408,-3375.3361L13548.535,-3375.3533L13548.522,-3375.3722L13548.5015,-3375.3901L13548.4858,-3375.3961L13548.4648,-3375.4072L13548.4592,-3375.4115L13548.4457,-3375.4219L13548.4338,-3375.4367L13548.4203,-3375.4595L13548.4008,-3375.4897L13548.3879,-3375.5013L13548.376,-3375.5069L13548.3491,-3375.5138L13548.3333,-3375.5193L13548.3052,-3375.5293L13548.2671,-3375.5452L13548.247,-3375.5488L13548.2217,-3375.5587L13548.1879,-3375.5767L13548.1822,-3375.5842L13548.1731,-3375.6187L13548.1607,-3375.6513L13548.1468,-3375.6672L13548.1272,-3375.6885L13548.1014,-3375.7112L13548.0838,-3375.7239L13548.0384,-3375.7573L13548.0117,-3375.7796L13547.9913,-3375.7955L13547.9869,-3375.8065L13547.9831,-3375.8208L13547.9841,-3375.8276L13547.9872,-3375.8333L13547.9974,-3375.8519L13548.0031,-3375.8682L13548.0074,-3375.8854L13548.0084,-3375.9081L13548.0017,-3375.9316L13547.9936,-3375.9412L13547.9487,-3375.9664L13547.9105,-3375.9843L13547.8853,-3376.0018L13547.8591,-3376.0213L13547.8495,-3376.0317L13547.8462,-3376.0404L13547.8419,-3376.0587L13547.8391,-3376.0639L13547.838,-3376.066L13547.8046,-3376.0839L13547.7831,-3376.0955L13547.7645,-3376.1142L13547.7554,-3376.1263L13547.7477,-3376.1466L13547.7411,-3376.157L13547.7258,-3376.1705L13547.7148,-3376.1785L13547.6977,-3376.1948L13547.6838,-3376.2067L13547.6714,-3376.2254L13547.6518,-3376.2451L13547.6255,-3376.2666L13547.6141,-3376.2885L13547.6036,-3376.3172L13547.5922,-3376.3399L13547.5807,-3376.3639L13547.5664,-3376.3997L13547.5564,-3376.4268L13547.554,-3376.4316L13547.5479,-3376.4376L13547.5411,-3376.4443L13547.5396,-3376.4496L13547.5382,-3376.4751L13547.5348,-3376.4916L13547.5205,-3376.5402L13547.5124,-3376.5517L13547.5081,-3376.5624L13547.5067,-3376.5875L13547.5043,-3376.5974L13547.5,-3376.603L13547.4918,-3376.6136L13547.4641,-3376.6255L13547.456,-3376.6331L13547.4476,-3376.6481L13547.4422,-3376.6577L13547.4374,-3376.6637L13547.4299,-3376.6667L13547.4141,-3376.6729L13547.3801,-3376.6914L13547.3505,-3376.7189L13547.3152,-3376.7368L13547.2881,-3376.7618L13547.2814,-3376.7714L13547.2745,-3376.7931L13547.2696,-3376.7942L13547.208,-3376.8325L13547.1699,-3376.8419L13547.136,-3376.8483L13547.0587,-3376.8573L13547.0192,-3376.8543L13546.9997,-3376.8498L13546.9921,-3376.8423L13546.9907,-3376.8322L13546.9894,-3376.8228L13546.9822,-3376.8176L13546.9521,-3376.812L13546.9359,-3376.8037L13546.9286,-3376.7969L13546.9089,-3376.7508L13546.8846,-3376.7174L13546.8706,-3376.676L13546.8687,-3376.6667L13546.8576,-3376.6135L13546.8485,-3376.5695L13546.8356,-3376.5063L13546.8243,-3376.4199L13546.8234,-3376.3906L13546.8176,-3376.3697L13546.8045,-3376.3391L13546.787,-3376.3172L13546.7681,-3376.3056L13546.7641,-3376.2985L13546.7686,-3376.2588L13546.7705,-3376.2502L13546.7726,-3376.2408L13546.7726,-3376.2269L13546.7735,-3376.2031L13546.7443,-3376.1045L13546.7259,-3376.0492L13546.7164,-3376.0331L13546.6958,-3376.0064L13546.6759,-3375.9778L13546.6667,-3375.9668L13546.6607,-3375.9598L13546.6306,-3375.9309L13546.6224,-3375.9101L13546.6202,-3375.8887L13546.6134,-3375.8775L13546.5766,-3375.8419L13546.5699,-3375.8333L13546.5523,-3375.8109L13546.5469,-3375.7989L13546.5464,-3375.7839L13546.5487,-3375.7719L13546.5595,-3375.7404L13546.5608,-3375.7232L13546.5572,-3375.7067L13546.5487,-3375.6934L13546.5307,-3375.6796L13546.506,-3375.6668L13546.4863,-3375.6439L13546.4664,-3375.6085L13546.4637,-3375.5931L13546.4642,-3375.574L13546.4696,-3375.5545L13546.5037,-3375.4846L13546.5213,-3375.4561L13546.5357,-3375.4394L13546.5585,-3375.413L13546.5928,-3375.3761L13546.6126,-3375.3656L13546.6229,-3375.3554L13546.6237,-3375.3535L13546.6314,-3375.3361L13546.6401,-3375.2591L13546.6428,-3375.233L13546.6336,-3375.2062L13546.6088,-3375.1639L13546.5884,-3375.1259L13546.5618,-3375.0852L13546.5508,-3375.0599L13546.5499,-3375.0361L13546.5508,-3375.0029L13546.5513,-3375L13535.1562,-3375L13535.1562,-3380.9433L13535.2132,-3380.9515L13535.2294,-3380.9524L13535.2616,-3380.9542L13535.2798,-3380.9552L13535.3276,-3380.9673L13535.3499,-3380.971L13535.3732,-3380.9701L13535.4146,-3380.9596L13535.4302,-3380.942L13535.4491,-3380.9216L13535.4603,-3380.9155L13535.4746,-3380.9077L13535.528,-3380.8947L13535.5603,-3380.8919L13535.6025,-3380.8966L13535.6247,-3380.904L13535.6625,-3380.9291L13535.6859,-3380.9588L13535.7081,-3380.969L13535.7459,-3380.9969L13535.7615,-3381.008L13535.7712,-3381.0168L13535.7872,-3381.0313L13535.8061,-3381.0415L13535.8227,-3381.0526L13535.8333,-3381.062L13535.8439,-3381.0712L13535.8551,-3381.0806L13535.8584,-3381.0983L13535.8628,-3381.1048L13535.9306,-3381.1242L13535.9373,-3381.1307L13535.9584,-3381.1809L13535.9662,-3381.1855L13535.9818,-3381.1864L13535.9882,-3381.186L13535.9919,-3381.1858L13535.9975,-3381.1858L13536.013,-3381.2238L13536.0253,-3381.2442L13536.0397,-3381.2517L13536.0864,-3381.2591L13536.1201,-3381.2686L13536.1524,-3381.2806L13536.1679,-3381.2927L13536.1991,-3381.3261L13536.2468,-3381.3456L13536.2646,-3381.3465L13536.2708,-3381.3379L13536.3023,-3381.3568L13536.3216,-3381.3686L13536.3289,-3381.3884L13536.3336,-3381.4013L13536.3614,-3381.4097L13536.396,-3381.4181L13536.4102,-3381.4219L13536.4772,-3381.4395L13536.4849,-3381.4451L13536.5027,-3381.4757L13536.5172,-3381.498L13536.5494,-3381.5296L13536.5617,-3381.5379L13536.5728,-3381.563L13536.5773,-3381.5788L13536.5834,-3381.5876L13536.6017,-3381.6141L13536.6273,-3381.6466L13536.6379,-3381.6667L13536.6496,-3381.6885L13536.6596,-3381.7082L13536.6652,-3381.7174L13536.6667,-3381.7215L13536.673,-3381.7388L13536.6874,-3381.7555L13536.7163,-3381.779L13536.7253,-3381.7863L13536.7453,-3381.8012L13536.7732,-3381.8263L13536.7954,-3381.8579L13536.8066,-3381.8801L13536.8255,-3381.9146L13536.8544,-3381.9517L13536.8722,-3381.9666L13536.8934,-3381.988L13536.9156,-3382.0001L13536.9835,-3382.0177L13536.9879,-3382.0205L13536.9913,-3382.0289L13536.9901,-3382.0567L13536.9801,-3382.0752L13536.9679,-3382.1049L13536.9379,-3382.1636L13536.9179,-3382.2091L13536.9167,-3382.2314L13536.9356,-3382.2499L13537.0169,-3382.3151L13537.0893,-3382.3738L13537.0969,-3382.3811L13537.1126,-3382.3961L13537.1415,-3382.4026L13537.1516,-3382.4081L13537.1704,-3382.4332L13537.2218,-3382.4508L13537.246,-3382.4604L13537.2802,-3382.4878L13537.2909,-3382.5L13537.3376,-3382.5529L13537.3582,-3382.5895L13537.3841,-3382.6354L13537.4087,-3382.6629L13537.4341,-3382.687L13537.4456,-3382.6979L13537.4509,-3382.7136L13537.4526,-3382.7312L13537.4487,-3382.7451L13537.4447,-3382.7515L13537.4377,-3382.763L13537.4316,-3382.7886L13537.4355,-3382.8113L13537.4517,-3382.8419L13537.4548,-3382.8817L13537.4614,-3382.8974L13537.4678,-3382.9031L13537.4741,-3382.9088L13537.5,-3382.9207L13537.528,-3382.9337L13537.5728,-3382.955L13537.579,-3382.955L13537.5911,-3382.9456L13537.6039,-3382.9356L13537.6215,-3382.9324L13537.6438,-3382.9294L13537.6653,-3382.9302L13537.6916,-3382.9378L13537.7381,-3382.9557L13537.7868,-3382.9606L13537.8202,-3382.9719L13537.8346,-3382.9788L13537.8464,-3382.9938L13537.8489,-3383.0194L13537.8495,-3383.026L13537.8562,-3383.0402L13537.8829,-3383.0764L13537.9219,-3383.1078L13537.9368,-3383.1181L13537.9623,-3383.1298L13537.9804,-3383.1406L13537.9861,-3383.1475L13537.9874,-3383.1517L13537.9913,-3383.1636L13538.0036,-3383.1757L13538.0658,-3383.2141L13538.0909,-3383.23L13538.1129,-3383.2559L13538.1654,-3383.2881L13538.2132,-3383.309L13538.2467,-3383.3161L13538.2624,-3383.3127L13538.2673,-3383.3117L13538.2734,-3383.3121L13538.3094,-3383.3237L13538.3229,-3383.3333L13538.3333,-3383.3407L13538.3356,-3383.3423L13538.3558,-3383.3567L13538.3834,-3383.3834L13538.4366,-3383.4117L13538.4979,-3383.4461L13538.5783,-3383.4868L13538.6098,-3383.5018L13538.6493,-3383.5289L13538.6603,-3383.536L13538.6976,-3383.5524L13538.6989,-3383.5539L13538.7037,-3383.5594L13538.7062,-3383.5642L13538.712,-3383.5755L13538.7353,-3383.5986L13538.7574,-3383.6108L13538.7884,-3383.628L13538.8511,-3383.6382L13538.8749,-3383.6364L13538.9047,-3383.6312L13538.9174,-3383.6298L13538.9262,-3383.6334L13538.9363,-3383.6484L13538.9391,-3383.6684L13538.9478,-3383.6755L13538.9609,-3383.6843L13538.9996,-3383.6952L13539.0183,-3383.7041L13539.0414,-3383.7223L13539.0788,-3383.7623L13539.0981,-3383.7711L13539.1293,-3383.7753L13539.1486,-3383.7737L13539.1667,-3383.7694L13539.1922,-3383.7633L13539.2332,-3383.7498L13539.2583,-3383.7415L13539.2664,-3383.7363L13539.3007,-3383.7062L13539.3144,-3383.6968L13539.33,-3383.6921L13539.3406,-3383.6895L13539.3724,-3383.6895L13539.4011,-3383.6833L13539.441,-3383.6684L13539.4587,-3383.6533L13539.4845,-3383.6409L13539.5284,-3383.6318L13539.5622,-3383.6291L13539.5829,-3383.6303L13539.5989,-3383.637L13539.6236,-3383.6539L13539.6319,-3383.6684L13539.664,-3383.7085L13539.6822,-3383.7434L13539.687,-3383.7474L13539.7004,-3383.7489L13539.7755,-3383.7363L13539.8083,-3383.7333L13539.8495,-3383.7327L13539.8693,-3383.7288L13539.9176,-3383.7076L13539.9284,-3383.7063L13539.9394,-3383.7076L13539.9846,-3383.7344L13540,-3383.7409L13540.0043,-3383.7427L13540.0371,-3383.7427L13540.0726,-3383.7479L13540.1095,-3383.7587L13540.1479,-3383.7769L13540.1806,-3383.7938L13540.1912,-3383.7949L13540.2009,-3383.796L13540.2222,-3383.7934L13540.2936,-3383.7721L13540.3357,-3383.757L13540.3514,-3383.7541L13540.3565,-3383.7531L13540.3778,-3383.7548L13540.3897,-3383.7514L13540.4354,-3383.7176L13540.4471,-3383.7067L13540.4586,-3383.701L13540.4845,-3383.6881L13540.5188,-3383.6794L13540.5261,-3383.6756L13540.5349,-3383.6684L13540.5693,-3383.6057L13540.5849,-3383.5594L13540.6028,-3383.5295L13540.6191,-3383.4974L13540.638,-3383.4761L13540.6689,-3383.4481L13540.7104,-3383.3999L13540.7569,-3383.3652L13540.7747,-3383.3637L13540.7914,-3383.3661L13540.8056,-3383.3767L13540.8179,-3383.394L13540.8248,-3383.4122L13540.8333,-3383.4199L13540.8379,-3383.424L13540.863,-3383.4352L13540.8973,-3383.439L13540.9717,-3383.4599L13540.9967,-3383.4708L13541.0437,-3383.4769L13541.0924,-3383.4848L13541.1127,-3383.4863L13541.1612,-3383.5079L13541.179,-3383.5201L13541.2189,-3383.5555L13541.2357,-3383.5669L13541.2597,-3383.5754L13541.2652,-3383.5736L13541.2902,-3383.5396L13541.3007,-3383.5282L13541.3026,-3383.5263L13541.347,-3383.4767L13541.3637,-3383.4482L13541.4019,-3383.4065L13541.4269,-3383.3872L13541.4386,-3383.3802L13541.4724,-3383.3729L13541.5036,-3383.3611L13541.5204,-3383.3586L13541.5338,-3383.361L13541.5473,-3383.3686L13541.5956,-3383.4204L13541.6094,-3383.4359L13541.6541,-3383.4669L13541.6667,-3383.4705L13541.669,-3383.4712L13541.6839,-3383.4712L13541.7072,-3383.4681L13541.7195,-3383.4702L13541.7934,-3383.5007L13541.8533,-3383.5161L13541.9011,-3383.5309L13541.9054,-3383.5322L13541.9356,-3383.5344L13541.9788,-3383.5313L13542.0199,-3383.5194L13542.069,-3383.5052L13542.0952,-3383.5016L13542.1195,-3383.5022L13542.1638,-3383.507L13542.1796,-3383.5101L13542.1937,-3383.5186L13542.2118,-3383.5404L13542.2242,-3383.5553L13542.2293,-3383.5698L13542.2275,-3383.5889L13542.2051,-3383.6242L13542.2025,-3383.6379L13542.2069,-3383.6479L13542.2279,-3383.6684L13542.2325,-3383.6763L13542.241,-3383.6845L13542.2975,-3383.713L13542.3205,-3383.7332L13542.379,-3383.8067L13542.4081,-3383.8289L13542.4337,-3383.8409L13542.4718,-3383.853L13542.4974,-3383.853L13542.5,-3383.8525L13542.527,-3383.847L13542.5388,-3383.842L13542.5546,-3383.8305L13542.5802,-3383.8201L13542.6091,-3383.8141L13542.619,-3383.8141L13542.6354,-3383.819L13542.7011,-3383.8744L13542.7156,-3383.8782L13542.7373,-3383.8749L13542.7662,-3383.8634L13542.7767,-3383.8568L13542.7941,-3383.8388L13542.8315,-3383.8196L13542.8657,-3383.7917L13542.8854,-3383.7747L13542.8966,-3383.773L13542.9097,-3383.778L13542.9419,-3383.8054L13542.9669,-3383.8421L13542.9728,-3383.8459L13542.9801,-3383.8459L13542.9879,-3383.8415L13543.0473,-3383.7954L13543.0751,-3383.7819L13543.0966,-3383.7714L13543.1036,-3383.7709L13543.1066,-3383.7728L13543.1078,-3383.7753L13543.107,-3383.7795L13543.1009,-3383.7934L13543.0986,-3383.8042L13543.1009,-3383.8178L13543.1101,-3383.8508L13543.1177,-3383.8613L13543.1299,-3383.8745L13543.1536,-3383.9078L13543.1684,-3383.9195L13543.2312,-3383.9424L13543.2724,-3383.9634L13543.3295,-3384.0047L13543.3333,-3384.0061L13543.3451,-3384.0104L13543.3587,-3384.0104L13543.3789,-3384.0069L13543.4312,-3383.9929L13543.4453,-3383.9916L13543.4849,-3383.9916L13543.5035,-3383.9878L13543.5282,-3383.9761L13543.5724,-3383.9383L13543.6304,-3383.8738L13543.6448,-3383.8655L13543.6559,-3383.8636L13543.6669,-3383.8643L13543.6866,-3383.8693L13543.7416,-3383.8916L13543.7888,-3383.9062L13543.8139,-3383.9147L13543.8546,-3383.9344L13543.8847,-3383.9407L13543.9128,-3383.9417L13543.9208,-3383.942L13543.9385,-3383.9385L13543.9933,-3383.9186L13543.9978,-3383.9192L13544.0629,-3383.9534L13544.0962,-3383.9616L13544.1152,-3383.972L13544.1517,-3383.9949L13544.1667,-3384.002L13544.1822,-3384.0094L13544.2035,-3384.0224L13544.2153,-3384.0326L13544.2371,-3384.0566L13544.2805,-3384.0921L13544.309,-3384.1054L13544.3583,-3384.1193L13544.3958,-3384.1299L13544.4945,-3384.1537L13544.5223,-3384.155L13544.5405,-3384.1528L13544.5496,-3384.1477L13544.5603,-3384.1369L13544.5669,-3384.1259L13544.5747,-3384.1128L13544.5908,-3384.0625L13544.5995,-3384.0489L13544.6406,-3384.0057L13544.656,-3383.9974L13544.6689,-3383.9945L13544.6807,-3383.9939L13544.7252,-3383.9964L13544.7884,-3383.9907L13544.7986,-3383.9907L13544.8081,-3383.9936L13544.8096,-3383.9944L13544.8696,-3384.0276L13544.9167,-3384.045L13544.9388,-3384.0542L13544.9643,-3384.0698L13544.9734,-3384.071L13544.9795,-3384.0691L13545,-3384.0551L13545.0174,-3384.0431L13545.0345,-3384.0371L13545.0756,-3384.0294L13545.1886,-3384.0193L13545.2323,-3384.011L13545.2414,-3384.0056L13545.2627,-3383.9786L13545.2677,-3383.9755L13545.3106,-3383.9526L13545.3625,-3383.9173L13545.3735,-3383.9129L13545.4047,-3383.9046L13545.4207,-3383.8938L13545.4622,-3383.8421L13545.4764,-3383.8257L13545.4802,-3383.8241L13545.4893,-3383.8241L13545.5631,-3383.8317L13545.5897,-3383.8321L13545.6373,-3383.8244L13545.6525,-3383.8238L13545.731,-3383.8292L13545.7679,-3383.8283L13545.7742,-3383.8273L13545.8109,-3383.8216L13545.8333,-3383.821L13545.8364,-3383.821L13545.8737,-3383.8219L13545.9123,-3383.8184L13546.0154,-3383.8004L13546.0361,-3383.7934L13546.044,-3383.7934L13546.0646,-3383.8024L13546.0825,-3383.8371L13546.0843,-3383.8437L13546.0862,-3383.8505L13546.0856,-3383.8909L13546.0948,-3383.9197L13546.1114,-3383.9772L13546.112,-3384.0177L13546.1041,-3384.0716L13546.0923,-3384.0996L13546.0605,-3384.1667L13546.0524,-3384.1837L13546.045,-3384.2139L13546.045,-3384.238L13546.0468,-3384.2677L13546.0585,-3384.3127L13546.0669,-3384.3569L13546.0733,-3384.3909L13546.08,-3384.4265L13546.0954,-3384.4718L13546.1053,-3384.4836L13546.1514,-3384.5108L13546.1649,-3384.5216L13546.1729,-3384.5318L13546.1753,-3384.5441L13546.1791,-3384.5859L13546.1821,-3384.6018L13546.1952,-3384.6558L13546.2104,-3384.7191L13546.2258,-3384.7979L13546.2473,-3384.8594L13546.2837,-3384.9427L13546.318,-3385L13546.3188,-3385.0014L13546.4239,-3385.1562L13546.4548,-3385.214L13546.461,-3385.2386L13546.4708,-3385.2673L13546.4849,-3385.2903L13546.5009,-3385.3129L13546.3716,-3385.3229L13546.3497,-3385.3269L13546.2764,-3385.3497L13546.247,-3385.3561L13546.2441,-3385.3562L13546.22,-3385.3567L13546.2021,-3385.3571L13546.1718,-3385.3577L13546.1463,-3385.3609L13546.1061,-3385.3646L13546.0869,-3385.3646L13545.9779,-3385.3625L13545.9547,-3385.3604L13545.8641,-3385.3466L13545.8463,-3385.3444L13545.8335,-3385.345L13545.8333,-3385.345L13545.8074,-3385.3535L13545.8033,-3385.3551L13545.7706,-3385.3681L13545.7391,-3385.3694L13545.7111,-3385.3688L13545.6947,-3385.3707L13545.6713,-3385.3772L13545.6375,-3385.3928L13545.6144,-3385.4031L13545.601,-3385.4034L13545.5799,-3385.3992L13545.5515,-3385.3974L13545.5321,-3385.4001L13545.4755,-3385.4089L13545.4331,-3385.418L13545.4226,-3385.419L13545.422,-3385.419L13545.4069,-3385.4183L13545.3964,-3385.4156L13545.3748,-3385.4112L13545.359,-3385.4116L13545.3441,-3385.4136L13545.3109,-3385.4241L13545.2936,-3385.4328L13545.2835,-3385.4328L13545.2237,-3385.4247L13545.2041,-3385.4248L13545.1871,-3385.4272L13545.131,-3385.4464L13545.1035,-3385.4508L13545.093,-3385.4538L13545.087,-3385.4582L13545.0498,-3385.5177L13545.0267,-3385.5547L13545.0214,-3385.5671L13545.0093,-3385.6062L13545.0017,-3385.6146L13545,-3385.6155L13544.9912,-3385.62L13544.9397,-3385.6343L13544.8291,-3385.6529L13544.7319,-3385.6786L13544.6649,-3385.7065L13544.6268,-3385.7194L13544.6131,-3385.7224L13544.5824,-3385.7255L13544.5647,-3385.7307L13544.5421,-3385.74L13544.5101,-3385.7607L13544.5057,-3385.7629L13544.5004,-3385.7629L13544.494,-3385.7616L13544.4591,-3385.7541L13544.4449,-3385.7541L13544.4324,-3385.7563L13544.4156,-3385.7619L13544.4027,-3385.7696L13544.3969,-3385.7774L13544.3912,-3385.7918L13544.3894,-3385.8081L13544.3906,-3385.8333L13544.3925,-3385.8755L13544.4076,-3385.9394L13544.4182,-3385.9612L13544.4502,-3385.9958L13544.4582,-3386.0088L13544.4617,-3386.0247L13544.4622,-3386.0369L13544.4591,-3386.0502L13544.4426,-3386.0936L13544.4373,-3386.1094L13544.4373,-3386.1164L13544.4428,-3386.1431L13544.4457,-3386.1571L13544.4448,-3386.1667L13544.4386,-3386.1889L13544.4386,-3386.1989L13544.4435,-3386.2167L13544.4511,-3386.2491L13544.4511,-3386.2591L13544.4484,-3386.2662L13544.4409,-3386.2721L13544.4062,-3386.2939L13544.3573,-3386.3133L13544.2631,-3386.3326L13544.2047,-3386.3478L13544.179,-3386.3615L13544.1667,-3386.3688L13544.1559,-3386.3752L13544.1434,-3386.3848L13544.1324,-3386.4004L13544.1294,-3386.4075L13544.1106,-3386.4537L13544.0941,-3386.5202L13544.0892,-3386.5291L13544.0817,-3386.5354L13544.0426,-3386.5568L13544.0097,-3386.5649L13543.952,-3386.5697L13543.8859,-3386.5686L13543.8669,-3386.5717L13543.8136,-3386.5828L13543.7892,-3386.5865L13543.7506,-3386.588L13543.7004,-3386.5891L13543.6894,-3386.5917L13543.6763,-3386.5951L13543.6226,-3386.6217L13543.5715,-3386.6377L13543.5283,-3386.6586L13543.5167,-3386.6615L13543.5043,-3386.6601L13543.4874,-3386.656L13543.4759,-3386.6486L13543.3941,-3386.6066L13543.3386,-3386.5877L13543.3333,-3386.5862L13543.2813,-3386.5715L13543.2634,-3386.5692L13543.2287,-3386.5688L13543.2021,-3386.561L13543.1913,-3386.5578L13543.1617,-3386.5491L13543.1249,-3386.5406L13543.0004,-3386.4999L13542.9664,-3386.4834L13542.8586,-3386.4261L13542.8333,-3386.4476L13542.8093,-3386.4831L13542.7698,-3386.5386L13542.7479,-3386.561L13542.7444,-3386.5721L13542.7444,-3386.5921L13542.7461,-3386.6166L13542.743,-3386.6262L13542.7359,-3386.6384L13542.7042,-3386.6667L13542.6826,-3386.6859L13542.6746,-3386.6971L13542.6733,-3386.7082L13542.6741,-3386.7182L13542.6914,-3386.77L13542.6986,-3386.8024L13542.7083,-3386.8742L13542.7074,-3386.8883L13542.7039,-3386.9038L13542.695,-3386.9267L13542.6941,-3386.9359L13542.695,-3386.9533L13542.6934,-3386.9622L13542.691,-3386.9759L13542.6905,-3386.987L13542.6963,-3387.0222L13542.7039,-3387.0655L13542.7101,-3387.0769L13542.7301,-3387.0899L13542.7949,-3387.1213L13542.8091,-3387.1324L13542.8384,-3387.1728L13542.855,-3387.2L13542.8687,-3387.237L13542.8736,-3387.2674L13542.8803,-3387.337L13542.8874,-3387.3636L13542.9034,-3387.388L13542.9229,-3387.4069L13542.9762,-3387.4742L13542.9933,-3387.5L13543.0181,-3387.5375L13543.0492,-3387.5904L13543.0843,-3387.6274L13543.1056,-3387.6547L13543.1105,-3387.6676L13543.1119,-3387.6869L13543.1101,-3387.705L13543.1052,-3387.7157L13543.0899,-3387.7524L13543.0777,-3387.782L13543.0657,-3387.7933L13543.0457,-3387.8041L13543.0132,-3387.8208L13542.9905,-3387.8397L13542.9737,-3387.8567L13542.9568,-3387.8774L13542.9395,-3387.9104L13542.9195,-3387.9574L13542.9079,-3387.9836L13542.8964,-3387.9977L13542.8519,-3388.0336L13542.7867,-3388.0821L13542.7505,-3388.1037L13542.7389,-3388.106L13542.7274,-3388.1045L13542.7026,-3388.0945L13542.6857,-3388.0852L13542.678,-3388.0766L13542.6567,-3388.0701L13542.6501,-3388.0681L13542.6429,-3388.0644L13542.5726,-3388.0116L13542.567,-3388.0074L13542.5487,-3388.0003L13542.5403,-3388.0007L13542.5363,-3388.0032L13542.5269,-3388.0136L13542.5196,-3388.0258L13542.5,-3388.0585L13542.4781,-3388.0951L13542.4523,-3388.1286L13542.4341,-3388.1404L13542.4097,-3388.1541L13542.3919,-3388.1578L13542.3575,-3388.1659L13542.3411,-3388.1697L13542.3198,-3388.1697L13542.3038,-3388.1667L13542.2727,-3388.1538L13542.262,-3388.1466L13542.2403,-3388.1319L13542.2149,-3388.1055L13542.2056,-3388.0892L13542.1749,-3388.0278L13542.1549,-3388.0002L13542.1367,-3387.9861L13542.1225,-3387.9809L13542.0994,-3387.9791L13542.0897,-3387.9806L13542.0768,-3387.9891L13542.0724,-3387.9942L13542.0644,-3388.0205L13542.0632,-3388.0222L13542.0573,-3388.0309L13542.0413,-3388.0409L13542.0275,-3388.0438L13542.0175,-3388.0447L13541.9549,-3388.036L13541.9079,-3388.0295L13541.8146,-3388.0221L13541.7892,-3388.0177L13541.775,-3388.0106L13541.7293,-3387.9799L13541.6667,-3387.9524L13541.6431,-3387.9421L13541.62,-3387.935L13541.5978,-3387.935L13541.5889,-3387.9365L13541.5845,-3387.9393L13541.548,-3387.9624L13541.5376,-3387.9672L13541.531,-3387.9672L13541.5231,-3387.9633L13541.5092,-3387.9562L13541.5052,-3387.9562L13541.503,-3387.9591L13541.4969,-3387.9803L13541.4946,-3387.9882L13541.4932,-3387.9932L13541.4884,-3387.9995L13541.471,-3388.012L13541.4101,-3388.0459L13541.3727,-3388.0577L13541.3603,-3388.064L13541.3448,-3388.0759L13541.3399,-3388.0766L13541.3363,-3388.0751L13541.318,-3388.0599L13541.3047,-3388.0562L13541.2936,-3388.0562L13541.2776,-3388.0588L13541.2021,-3388.087L13541.1465,-3388.0967L13541.1167,-3388.1055L13541.0968,-3388.1144L13541.0728,-3388.1255L13541.0555,-3388.1352L13541.0351,-3388.1529L13541.0008,-3388.1904L13540.9813,-3388.2056L13540.9635,-3388.2101L13540.9439,-3388.2112L13540.9203,-3388.2089L13540.8764,-3388.2023L13540.8524,-3388.192L13540.8333,-3388.1839L13540.828,-3388.1816L13540.8133,-3388.1767L13540.7894,-3388.1749L13540.7645,-3388.1682L13540.6968,-3388.1419L13540.6644,-3388.1878L13540.6027,-3388.2393L13540.5803,-3388.2557L13540.5404,-3388.285L13540.5242,-3388.3006L13540.5031,-3388.3209L13540.4907,-3388.3333L13540.4719,-3388.3522L13540.4688,-3388.3567L13540.4688,-3388.3685L13540.4679,-3388.3744L13540.4199,-3388.4259L13540.4026,-3388.4606L13540.3635,-3388.5309L13540.3439,-3388.5682L13540.3328,-3388.5823L13540.3137,-3388.5949L13540.2385,-3388.6432L13540.2177,-3388.6602L13540.2079,-3388.6732L13540.1821,-3388.7213L13540.1739,-3388.7311L13540.1506,-3388.759L13540.1359,-3388.7712L13540.1217,-3388.7786L13540.0884,-3388.7893L13540.0923,-3388.807L13540.0917,-3388.8318L13540.0936,-3388.8381L13540.1121,-3388.8567L13540.1634,-3388.8962L13540.2146,-3388.9516L13540.2228,-3388.9679L13540.2247,-3388.9848L13540.2203,-3389.0175L13540.2222,-3389.0227L13540.231,-3389.0312L13540.2806,-3389.0617L13540.2926,-3389.0727L13540.2983,-3389.0801L13540.3008,-3389.0902L13540.2995,-3389.1176L13540.2889,-3389.1667L13540.2869,-3389.1761L13540.2869,-3389.1834L13540.29,-3389.2093L13540.2894,-3389.2187L13540.2742,-3389.2414L13540.2217,-3389.324L13540.209,-3389.3609L13540.197,-3389.4036L13540.1856,-3389.4284L13540.1711,-3389.4437L13540.1559,-3389.4537L13540.1324,-3389.4604L13540.1185,-3389.462L13540.0906,-3389.4599L13540.0799,-3389.4599L13540.0167,-3389.4767L13540,-3389.4792L13539.9879,-3389.481L13539.9458,-3389.4873L13539.9338,-3389.4873L13539.9003,-3389.4794L13539.8877,-3389.4794L13539.8365,-3389.4894L13539.7533,-3389.5005L13539.7299,-3389.4974L13539.721,-3389.4932L13539.7046,-3389.4794L13539.685,-3389.471L13539.6641,-3389.4694L13539.6571,-3389.471L13539.6192,-3389.4921L13539.58,-3389.5074L13539.5591,-3389.5111L13539.5427,-3389.5116L13539.4451,-3389.5063L13539.4305,-3389.5084L13539.416,-3389.5127L13539.366,-3389.5316L13539.3325,-3389.5401L13539.3211,-3389.5459L13539.3168,-3389.5517L13539.3148,-3389.5543L13539.3123,-3389.5686L13539.3256,-3389.6376L13539.3274,-3389.6539L13539.3243,-3389.7054L13539.3268,-3389.7144L13539.335,-3389.7412L13539.3344,-3389.7497L13539.33,-3389.8071L13539.3306,-3389.8254L13539.323,-3389.8475L13539.3135,-3389.867L13539.3078,-3389.8786L13539.2806,-3389.9461L13539.2625,-3389.9797L13539.2589,-3390L13539.2395,-3390.1078L13539.2276,-3390.1431L13539.1981,-3390.2037L13539.2487,-3390.2114L13539.3674,-3390.2214L13539.4696,-3390.2382L13539.4861,-3390.2459L13539.4954,-3390.2589L13539.5231,-3390.3217L13539.5369,-3390.3324L13539.5792,-3390.3477L13539.5912,-3390.3592L13539.6142,-3390.3846L13539.6261,-3390.3899L13539.6676,-3390.4015L13539.6804,-3390.4068L13539.686,-3390.4153L13539.7117,-3390.4667L13539.7157,-3390.4715L13539.7319,-3390.4912L13539.769,-3390.5275L13539.7774,-3390.54L13539.7782,-3390.5546L13539.7824,-3390.5845L13539.7899,-3390.6011L13539.809,-3390.6435L13539.8099,-3390.6546L13539.809,-3390.6609L13539.8032,-3390.6657L13539.789,-3390.6755L13539.769,-3390.6803L13539.7332,-3390.6831L13539.7124,-3390.6894L13539.6741,-3390.7144L13539.5957,-3390.7456L13539.5522,-3390.7484L13539.5426,-3390.7524L13539.5266,-3390.764L13539.5096,-3390.7853L13539.4808,-3390.812L13539.4776,-3390.8173L13539.4776,-3390.8253L13539.4858,-3390.8333L13539.5144,-3390.8613L13539.5229,-3390.8764L13539.5266,-3390.8897L13539.532,-3390.9406L13539.5298,-3390.9655L13539.516,-3391.0148L13539.5133,-3391.0294L13539.516,-3391.0462L13539.5389,-3391.1124L13539.5479,-3391.1379L13539.5503,-3391.1649L13539.5544,-3391.2129L13539.5533,-3391.2782L13539.5533,-3391.3119L13539.5538,-3391.3284L13539.5538,-3391.3306L13539.5741,-3391.4057L13539.5991,-3391.4672L13539.6023,-3391.4854L13539.6023,-3391.5001L13539.6002,-3391.5081L13539.5943,-3391.5179L13539.5847,-3391.5245L13539.5251,-3391.5481L13539.5053,-3391.5614L13539.4345,-3391.6072L13539.3741,-3391.6514L13539.3571,-3391.6638L13539.352,-3391.6667L13539.3236,-3391.6825L13539.3859,-3391.7566L13539.388,-3391.7646L13539.3891,-3391.7722L13539.371,-3391.8271L13539.3678,-3391.852L13539.3667,-3391.892L13539.371,-3391.9355L13539.3779,-3391.966L13539.3939,-3392.0008L13539.3864,-3392.0068L13539.367,-3392.0131L13539.3573,-3392.0194L13539.3432,-3392.0393L13539.3302,-3392.0663L13539.3291,-3392.088L13539.341,-3392.1114L13539.3659,-3392.1385L13539.3908,-3392.1772L13539.437,-3392.2519L13539.4584,-3392.2806L13539.4668,-3392.2866L13539.5024,-3392.2906L13539.5286,-3392.3005L13539.5441,-3392.3084L13539.5786,-3392.3282L13539.6139,-3392.3592L13539.633,-3392.3691L13539.6627,-3392.383L13539.6746,-3392.3922L13539.696,-3392.4088L13539.7436,-3392.4524L13539.7697,-3392.4792L13539.8042,-3392.499L13539.8056,-3392.5L13539.8253,-3392.5141L13539.8337,-3392.5269L13539.8289,-3392.5418L13539.8313,-3392.5656L13539.8277,-3392.5781Z"/>
<path content="和歌山県,,日高郡,印南町,,30390" xlink:title="和歌山県" d="M13538.2781,-3391.6602L13538.3063,-3391.6556L13538.3333,-3391.6567L13538.3534,-3391.6575L13538.3852,-3391.6617L13538.4775,-3391.6654L13538.4838,-3391.6667L13538.5066,-3391.6711L13538.5537,-3391.6811L13538.5696,-3391.6826L13538.5997,-3391.6826L13538.6101,-3391.6841L13538.6324,-3391.6902L13538.692,-3391.7186L13538.7139,-3391.7263L13538.7263,-3391.7307L13538.7977,-3391.7352L13538.8196,-3391.7322L13538.8892,-3391.7118L13538.9306,-3391.7072L13538.9867,-3391.7057L13539.0172,-3391.7012L13539.0513,-3391.6899L13539.0527,-3391.6894L13539.0822,-3391.686L13539.1245,-3391.6875L13539.1612,-3391.6916L13539.1667,-3391.6906L13539.1762,-3391.689L13539.2408,-3391.6746L13539.2667,-3391.6715L13539.2853,-3391.673L13539.3004,-3391.6764L13539.3236,-3391.6825L13539.352,-3391.6667L13539.3571,-3391.6638L13539.3741,-3391.6514L13539.4345,-3391.6072L13539.5053,-3391.5614L13539.5251,-3391.5481L13539.5847,-3391.5245L13539.5943,-3391.5179L13539.6002,-3391.5081L13539.6023,-3391.5001L13539.6023,-3391.4854L13539.5991,-3391.4672L13539.5741,-3391.4057L13539.5538,-3391.3306L13539.5538,-3391.3284L13539.5533,-3391.3119L13539.5533,-3391.2782L13539.5544,-3391.2129L13539.5503,-3391.1649L13539.5479,-3391.1379L13539.5389,-3391.1124L13539.516,-3391.0462L13539.5133,-3391.0294L13539.516,-3391.0148L13539.5298,-3390.9655L13539.532,-3390.9406L13539.5266,-3390.8897L13539.5229,-3390.8764L13539.5144,-3390.8613L13539.4858,-3390.8333L13539.4776,-3390.8253L13539.4776,-3390.8173L13539.4808,-3390.812L13539.5096,-3390.7853L13539.5266,-3390.764L13539.5426,-3390.7524L13539.5522,-3390.7484L13539.5957,-3390.7456L13539.6741,-3390.7144L13539.7124,-3390.6894L13539.7332,-3390.6831L13539.769,-3390.6803L13539.789,-3390.6755L13539.8032,-3390.6657L13539.809,-3390.6609L13539.8099,-3390.6546L13539.809,-3390.6435L13539.7899,-3390.6011L13539.7824,-3390.5845L13539.7782,-3390.5546L13539.7774,-3390.54L13539.769,-3390.5275L13539.7319,-3390.4912L13539.7157,-3390.4715L13539.7117,-3390.4667L13539.686,-3390.4153L13539.6804,-3390.4068L13539.6676,-3390.4015L13539.6261,-3390.3899L13539.6142,-3390.3846L13539.5912,-3390.3592L13539.5792,-3390.3477L13539.5369,-3390.3324L13539.5231,-3390.3217L13539.4954,-3390.2589L13539.4861,-3390.2459L13539.4696,-3390.2382L13539.3674,-3390.2214L13539.2487,-3390.2114L13539.1981,-3390.2037L13539.2276,-3390.1431L13539.2395,-3390.1078L13539.2589,-3390L13539.2625,-3389.9797L13539.2806,-3389.9461L13539.3078,-3389.8786L13539.3135,-3389.867L13539.323,-3389.8475L13539.3306,-3389.8254L13539.33,-3389.8071L13539.3344,-3389.7497L13539.335,-3389.7412L13539.3268,-3389.7144L13539.3243,-3389.7054L13539.3274,-3389.6539L13539.3256,-3389.6376L13539.3123,-3389.5686L13539.3148,-3389.5543L13539.3168,-3389.5517L13539.3211,-3389.5459L13539.3325,-3389.5401L13539.366,-3389.5316L13539.416,-3389.5127L13539.4305,-3389.5084L13539.4451,-3389.5063L13539.5427,-3389.5116L13539.5591,-3389.5111L13539.58,-3389.5074L13539.6192,-3389.4921L13539.6571,-3389.471L13539.6641,-3389.4694L13539.685,-3389.471L13539.7046,-3389.4794L13539.721,-3389.4932L13539.7299,-3389.4974L13539.7533,-3389.5005L13539.8365,-3389.4894L13539.8877,-3389.4794L13539.9003,-3389.4794L13539.9338,-3389.4873L13539.9458,-3389.4873L13539.9879,-3389.481L13540,-3389.4792L13540.0167,-3389.4767L13540.0799,-3389.4599L13540.0906,-3389.4599L13540.1185,-3389.462L13540.1324,-3389.4604L13540.1559,-3389.4537L13540.1711,-3389.4437L13540.1856,-3389.4284L13540.197,-3389.4036L13540.209,-3389.3609L13540.2217,-3389.324L13540.2742,-3389.2414L13540.2894,-3389.2187L13540.29,-3389.2093L13540.2869,-3389.1834L13540.2869,-3389.1761L13540.2889,-3389.1667L13540.2995,-3389.1176L13540.3008,-3389.0902L13540.2983,-3389.0801L13540.2926,-3389.0727L13540.2806,-3389.0617L13540.231,-3389.0312L13540.2222,-3389.0227L13540.2203,-3389.0175L13540.2247,-3388.9848L13540.2228,-3388.9679L13540.2146,-3388.9516L13540.1634,-3388.8962L13540.1121,-3388.8567L13540.0936,-3388.8381L13540.0917,-3388.8318L13540.0923,-3388.807L13540.0884,-3388.7893L13540.0689,-3388.7727L13540.0613,-3388.7711L13540.0537,-3388.7727L13540.0386,-3388.7817L13540,-3388.7896L13539.9949,-3388.7906L13539.9665,-3388.8022L13539.9267,-3388.837L13539.9096,-3388.7806L13539.9014,-3388.7643L13539.8772,-3388.7328L13539.8637,-3388.7216L13539.843,-3388.7044L13539.7621,-3388.6675L13539.7463,-3388.658L13539.6932,-3388.6132L13539.6291,-3388.5766L13539.6095,-3388.5708L13539.5327,-3388.5634L13539.5119,-3388.5539L13539.3968,-3388.4564L13539.3892,-3388.4527L13539.3627,-3388.4479L13539.3437,-3388.4485L13539.2402,-3388.4718L13539.1667,-3388.4884L13539.1616,-3388.4896L13539.1369,-3388.4933L13539.0854,-3388.4901L13538.9896,-3388.4721L13538.9764,-3388.4696L13538.8373,-3388.4622L13538.7759,-3388.4522L13538.7513,-3388.4506L13538.745,-3388.4527L13538.65,-3388.5889L13538.6348,-3388.6063L13538.6266,-3388.6106L13538.6193,-3388.6111L13538.5454,-3388.5953L13538.5201,-3388.5937L13538.5061,-3388.5958L13538.3854,-3388.6369L13538.3702,-3388.6391L13538.3551,-3388.6375L13538.3333,-3388.629L13538.3095,-3388.6197L13538.2731,-3388.605L13538.2437,-3388.5931L13538.1932,-3388.5599L13538.0989,-3388.5184L13538.0464,-3388.5062L13537.9669,-3388.4966L13537.9333,-3388.4972L13537.8412,-3388.5094L13537.7451,-3388.524L13537.653,-3388.524L13537.5915,-3388.5304L13537.5084,-3388.5287L13537.5,-3388.5288L13537.464,-3388.5294L13537.4413,-3388.5322L13537.3892,-3388.5501L13537.3104,-3388.5884L13537.2944,-3388.5934L13537.269,-3388.5979L13537.2217,-3388.5938L13537.1824,-3388.5956L13537.129,-3388.6033L13537.0911,-3388.6033L13537.0396,-3388.5956L13536.9931,-3388.5743L13536.9235,-3388.5659L13536.8353,-3388.5724L13536.7416,-3388.5821L13536.6667,-3388.5979L13536.6619,-3388.5989L13536.6085,-3388.6227L13536.5647,-3388.6312L13536.4904,-3388.6312L13536.451,-3388.6299L13536.3596,-3388.6441L13536.2742,-3388.6668L13536.2046,-3388.6784L13536.1767,-3388.6842L13536.1496,-3388.6996L13536.1333,-3388.7088L13536.1109,-3388.7146L13536.0513,-3388.7165L13536.0366,-3388.7204L13535.9783,-3388.743L13535.9303,-3388.763L13535.8753,-3388.7746L13535.8333,-3388.7792L13535.7701,-3388.7862L13535.7118,-3388.7817L13535.6592,-3388.7856L13535.6321,-3388.7856L13535.6197,-3388.7798L13535.5841,-3388.7223L13535.5585,-3388.6899L13535.5425,-3388.6467L13535.5322,-3388.6189L13535.5035,-3388.5767L13535.4648,-3388.5457L13535.4261,-3388.5051L13535.3942,-3388.4656L13535.3446,-3388.4327L13535.3223,-3388.4225L13535.3105,-3388.4171L13535.2881,-3388.4069L13535.2446,-3388.3763L13535.2144,-3388.3445L13535.2097,-3388.3333L13535.1951,-3388.2989L13535.1617,-3388.2469L13535.1562,-3388.2305L13535.1562,-3388.1875L13535.157,-3388.1791L13535.1562,-3388.1764L13535.1562,-3391.3204L13535.1727,-3391.3237L13535.2319,-3391.3477L13535.3042,-3391.3914L13535.3294,-3391.4018L13535.3666,-3391.409L13535.4468,-3391.4406L13535.4497,-3391.4422L13535.4707,-3391.4538L13535.4819,-3391.4544L13535.5937,-3391.4324L13535.6361,-3391.428L13535.6646,-3391.4286L13535.6845,-3391.4363L13535.692,-3391.4388L13535.715,-3391.4468L13535.7436,-3391.454L13535.7581,-3391.4551L13535.8333,-3391.4442L13535.838,-3391.4435L13535.8705,-3391.4435L13535.9116,-3391.4512L13535.9594,-3391.4623L13536.1112,-3391.4772L13536.1832,-3391.4783L13536.2482,-3391.4938L13536.284,-3391.5032L13536.3039,-3391.501L13536.3556,-3391.4994L13536.3921,-3391.5032L13536.4299,-3391.5143L13536.4839,-3391.5343L13536.5211,-3391.5499L13536.5647,-3391.5717L13536.5886,-3391.5764L13536.6628,-3391.6103L13536.6667,-3391.6114L13536.7427,-3391.6325L13536.8156,-3391.6477L13536.8436,-3391.6454L13536.8674,-3391.6384L13536.9011,-3391.6466L13536.9137,-3391.6489L13536.9473,-3391.6337L13536.995,-3391.6232L13537.0315,-3391.6239L13537.0665,-3391.6419L13537.0819,-3391.6466L13537.1057,-3391.6419L13537.2216,-3391.5911L13537.2616,-3391.5881L13537.288,-3391.5828L13537.3703,-3391.5494L13537.3867,-3391.5456L13537.4053,-3391.5449L13537.4747,-3391.5487L13537.4856,-3391.5521L13537.492,-3391.5608L13537.5,-3391.5766L13537.5061,-3391.5885L13537.5211,-3391.6044L13537.5801,-3391.6491L13537.5949,-3391.6604L13537.6134,-3391.6667L13537.674,-3391.6873L13537.6969,-3391.6959L13537.714,-3391.7024L13537.7363,-3391.721L13537.7765,-3391.7627L13537.8047,-3391.7809L13537.8302,-3391.7984L13537.8729,-3391.8397L13537.9584,-3391.9094L13537.9746,-3391.9191L13537.9791,-3391.9194L13537.9905,-3391.9138L13538.0269,-3391.8823L13538.0323,-3391.8736L13538.0474,-3391.8226L13538.0496,-3391.8181L13538.0638,-3391.7888L13538.0747,-3391.7767L13538.092,-3391.7619L13538.1325,-3391.7456L13538.1489,-3391.7356L13538.1885,-3391.7007L13538.2231,-3391.6826L13538.2622,-3391.6667L13538.2781,-3391.6602Z"/>
<path content="和歌山県,,日高郡,みなべ町,,30391" xlink:title="和歌山県" d="M13540.0537,-3388.7727L13540.0613,-3388.7711L13540.0689,-3388.7727L13540.0884,-3388.7893L13540.1217,-3388.7786L13540.1359,-3388.7712L13540.1506,-3388.759L13540.1739,-3388.7311L13540.1821,-3388.7213L13540.2079,-3388.6732L13540.2177,-3388.6602L13540.2385,-3388.6432L13540.3137,-3388.5949L13540.3328,-3388.5823L13540.3439,-3388.5682L13540.3635,-3388.5309L13540.4026,-3388.4606L13540.4199,-3388.4259L13540.4679,-3388.3744L13540.4688,-3388.3685L13540.4688,-3388.3567L13540.4719,-3388.3522L13540.4907,-3388.3333L13540.5031,-3388.3209L13540.5242,-3388.3006L13540.5404,-3388.285L13540.5803,-3388.2557L13540.6027,-3388.2393L13540.6644,-3388.1878L13540.6968,-3388.1419L13540.7645,-3388.1682L13540.7894,-3388.1749L13540.8133,-3388.1767L13540.828,-3388.1816L13540.8333,-3388.1839L13540.8524,-3388.192L13540.8764,-3388.2023L13540.9203,-3388.2089L13540.9439,-3388.2112L13540.9635,-3388.2101L13540.9813,-3388.2056L13541.0008,-3388.1904L13541.0351,-3388.1529L13541.0555,-3388.1352L13541.0728,-3388.1255L13541.0968,-3388.1144L13541.1167,-3388.1055L13541.1465,-3388.0967L13541.2021,-3388.087L13541.2776,-3388.0588L13541.2936,-3388.0562L13541.3047,-3388.0562L13541.318,-3388.0599L13541.3363,-3388.0751L13541.3399,-3388.0766L13541.3448,-3388.0759L13541.3603,-3388.064L13541.3727,-3388.0577L13541.4101,-3388.0459L13541.471,-3388.012L13541.4884,-3387.9995L13541.4932,-3387.9932L13541.4946,-3387.9882L13541.4969,-3387.9803L13541.503,-3387.9591L13541.5052,-3387.9562L13541.5092,-3387.9562L13541.5231,-3387.9633L13541.531,-3387.9672L13541.5376,-3387.9672L13541.548,-3387.9624L13541.5845,-3387.9393L13541.5889,-3387.9365L13541.5978,-3387.935L13541.62,-3387.935L13541.6431,-3387.9421L13541.6667,-3387.9524L13541.7293,-3387.9799L13541.775,-3388.0106L13541.7892,-3388.0177L13541.8146,-3388.0221L13541.9079,-3388.0295L13541.9549,-3388.036L13542.0175,-3388.0447L13542.0275,-3388.0438L13542.0413,-3388.0409L13542.0573,-3388.0309L13542.0632,-3388.0222L13542.0644,-3388.0205L13542.0724,-3387.9942L13542.0768,-3387.9891L13542.0897,-3387.9806L13542.0994,-3387.9791L13542.1225,-3387.9809L13542.1367,-3387.9861L13542.1549,-3388.0002L13542.1749,-3388.0278L13542.2056,-3388.0892L13542.2149,-3388.1055L13542.2403,-3388.1319L13542.262,-3388.1466L13542.2727,-3388.1538L13542.3038,-3388.1667L13542.3198,-3388.1697L13542.3411,-3388.1697L13542.3575,-3388.1659L13542.3919,-3388.1578L13542.4097,-3388.1541L13542.4341,-3388.1404L13542.4523,-3388.1286L13542.4781,-3388.0951L13542.5,-3388.0585L13542.5196,-3388.0258L13542.5269,-3388.0136L13542.5363,-3388.0032L13542.5403,-3388.0007L13542.5487,-3388.0003L13542.567,-3388.0074L13542.5726,-3388.0116L13542.6429,-3388.0644L13542.6501,-3388.0681L13542.6567,-3388.0701L13542.678,-3388.0766L13542.6857,-3388.0852L13542.7026,-3388.0945L13542.7274,-3388.1045L13542.7389,-3388.106L13542.7505,-3388.1037L13542.7867,-3388.0821L13542.8519,-3388.0336L13542.8964,-3387.9977L13542.9079,-3387.9836L13542.9195,-3387.9574L13542.9395,-3387.9104L13542.9568,-3387.8774L13542.9737,-3387.8567L13542.9905,-3387.8397L13543.0132,-3387.8208L13543.0457,-3387.8041L13543.0657,-3387.7933L13543.0777,-3387.782L13543.0899,-3387.7524L13543.1052,-3387.7157L13543.1101,-3387.705L13543.1119,-3387.6869L13543.1105,-3387.6676L13543.1056,-3387.6547L13543.0843,-3387.6274L13543.0492,-3387.5904L13543.0181,-3387.5375L13542.9933,-3387.5L13542.9762,-3387.4742L13542.9229,-3387.4069L13542.9034,-3387.388L13542.8874,-3387.3636L13542.8803,-3387.337L13542.8736,-3387.2674L13542.8687,-3387.237L13542.855,-3387.2L13542.8384,-3387.1728L13542.8091,-3387.1324L13542.7949,-3387.1213L13542.7301,-3387.0899L13542.7101,-3387.0769L13542.7039,-3387.0655L13542.6963,-3387.0222L13542.6905,-3386.987L13542.691,-3386.9759L13542.6934,-3386.9622L13542.695,-3386.9533L13542.6941,-3386.9359L13542.695,-3386.9267L13542.7039,-3386.9038L13542.7074,-3386.8883L13542.7083,-3386.8742L13542.6986,-3386.8024L13542.6914,-3386.77L13542.6741,-3386.7182L13542.6733,-3386.7082L13542.6746,-3386.6971L13542.6826,-3386.6859L13542.7042,-3386.6667L13542.7359,-3386.6384L13542.743,-3386.6262L13542.7461,-3386.6166L13542.7444,-3386.5921L13542.7444,-3386.5721L13542.7479,-3386.561L13542.7698,-3386.5386L13542.8093,-3386.4831L13542.8333,-3386.4476L13542.8586,-3386.4261L13542.9664,-3386.4834L13543.0004,-3386.4999L13543.1249,-3386.5406L13543.1617,-3386.5491L13543.1913,-3386.5578L13543.2021,-3386.561L13543.2287,-3386.5688L13543.2634,-3386.5692L13543.2813,-3386.5715L13543.3333,-3386.5862L13543.3386,-3386.5877L13543.3941,-3386.6066L13543.4759,-3386.6486L13543.4874,-3386.656L13543.5043,-3386.6601L13543.5167,-3386.6615L13543.5283,-3386.6586L13543.5715,-3386.6377L13543.6226,-3386.6217L13543.6763,-3386.5951L13543.6894,-3386.5917L13543.7004,-3386.5891L13543.7506,-3386.588L13543.7892,-3386.5865L13543.8136,-3386.5828L13543.8669,-3386.5717L13543.8859,-3386.5686L13543.952,-3386.5697L13544.0097,-3386.5649L13544.0426,-3386.5568L13544.0817,-3386.5354L13544.0892,-3386.5291L13544.0941,-3386.5202L13544.1106,-3386.4537L13544.1294,-3386.4075L13544.1324,-3386.4004L13544.1434,-3386.3848L13544.1559,-3386.3752L13544.1667,-3386.3688L13544.179,-3386.3615L13544.2047,-3386.3478L13544.2631,-3386.3326L13544.3573,-3386.3133L13544.4062,-3386.2939L13544.4409,-3386.2721L13544.4484,-3386.2662L13544.4511,-3386.2591L13544.4511,-3386.2491L13544.4435,-3386.2167L13544.4386,-3386.1989L13544.4386,-3386.1889L13544.4448,-3386.1667L13544.4457,-3386.1571L13544.4428,-3386.1431L13544.4373,-3386.1164L13544.4373,-3386.1094L13544.4426,-3386.0936L13544.4591,-3386.0502L13544.4622,-3386.0369L13544.4617,-3386.0247L13544.4582,-3386.0088L13544.4502,-3385.9958L13544.4182,-3385.9612L13544.4076,-3385.9394L13544.3925,-3385.8755L13544.3906,-3385.8333L13544.3894,-3385.8081L13544.3912,-3385.7918L13544.3969,-3385.7774L13544.4027,-3385.7696L13544.4156,-3385.7619L13544.4324,-3385.7563L13544.4449,-3385.7541L13544.4591,-3385.7541L13544.494,-3385.7616L13544.5004,-3385.7629L13544.5057,-3385.7629L13544.5101,-3385.7607L13544.5421,-3385.74L13544.5647,-3385.7307L13544.5824,-3385.7255L13544.6131,-3385.7224L13544.6268,-3385.7194L13544.6649,-3385.7065L13544.7319,-3385.6786L13544.8291,-3385.6529L13544.9397,-3385.6343L13544.9912,-3385.62L13545,-3385.6155L13545.0017,-3385.6146L13545.0093,-3385.6062L13545.0214,-3385.5671L13545.0267,-3385.5547L13545.0498,-3385.5177L13545.087,-3385.4582L13545.093,-3385.4538L13545.1035,-3385.4508L13545.131,-3385.4464L13545.1871,-3385.4272L13545.2041,-3385.4248L13545.2237,-3385.4247L13545.2835,-3385.4328L13545.2936,-3385.4328L13545.3109,-3385.4241L13545.3441,-3385.4136L13545.359,-3385.4116L13545.3748,-3385.4112L13545.3964,-3385.4156L13545.4069,-3385.4183L13545.422,-3385.419L13545.4226,-3385.419L13545.4331,-3385.418L13545.4755,-3385.4089L13545.5321,-3385.4001L13545.5515,-3385.3974L13545.5799,-3385.3992L13545.601,-3385.4034L13545.6144,-3385.4031L13545.6375,-3385.3928L13545.6713,-3385.3772L13545.6947,-3385.3707L13545.7111,-3385.3688L13545.7391,-3385.3694L13545.7706,-3385.3681L13545.8033,-3385.3551L13545.8074,-3385.3535L13545.8333,-3385.345L13545.8335,-3385.345L13545.8463,-3385.3444L13545.8641,-3385.3466L13545.9547,-3385.3604L13545.9779,-3385.3625L13546.0869,-3385.3646L13546.1061,-3385.3646L13546.1463,-3385.3609L13546.1718,-3385.3577L13546.2021,-3385.3571L13546.22,-3385.3567L13546.2441,-3385.3562L13546.247,-3385.3561L13546.2764,-3385.3497L13546.3497,-3385.3269L13546.3716,-3385.3229L13546.5009,-3385.3129L13546.4849,-3385.2903L13546.4708,-3385.2673L13546.461,-3385.2386L13546.4548,-3385.214L13546.4239,-3385.1562L13546.3188,-3385.0014L13546.318,-3385L13546.2837,-3384.9427L13546.2473,-3384.8594L13546.2258,-3384.7979L13546.2104,-3384.7191L13546.1952,-3384.6558L13546.1821,-3384.6018L13546.1791,-3384.5859L13546.1753,-3384.5441L13546.1729,-3384.5318L13546.1649,-3384.5216L13546.1514,-3384.5108L13546.1053,-3384.4836L13546.0954,-3384.4718L13546.08,-3384.4265L13546.0733,-3384.3909L13546.0669,-3384.3569L13546.0585,-3384.3127L13546.0468,-3384.2677L13546.045,-3384.238L13546.045,-3384.2139L13546.0524,-3384.1837L13546.0605,-3384.1667L13546.0923,-3384.0996L13546.1041,-3384.0716L13546.112,-3384.0177L13546.1114,-3383.9772L13546.0948,-3383.9197L13546.0856,-3383.8909L13546.0862,-3383.8505L13546.0843,-3383.8437L13546.0825,-3383.8371L13546.0646,-3383.8024L13546.044,-3383.7934L13546.0361,-3383.7934L13546.0154,-3383.8004L13545.9123,-3383.8184L13545.8737,-3383.8219L13545.8364,-3383.821L13545.8333,-3383.821L13545.8109,-3383.8216L13545.7742,-3383.8273L13545.7679,-3383.8283L13545.731,-3383.8292L13545.6525,-3383.8238L13545.6373,-3383.8244L13545.5897,-3383.8321L13545.5631,-3383.8317L13545.4893,-3383.8241L13545.4802,-3383.8241L13545.4764,-3383.8257L13545.4622,-3383.8421L13545.4207,-3383.8938L13545.4047,-3383.9046L13545.3735,-3383.9129L13545.3625,-3383.9173L13545.3106,-3383.9526L13545.2677,-3383.9755L13545.2627,-3383.9786L13545.2414,-3384.0056L13545.2323,-3384.011L13545.1886,-3384.0193L13545.0756,-3384.0294L13545.0345,-3384.0371L13545.0174,-3384.0431L13545,-3384.0551L13544.9795,-3384.0691L13544.9734,-3384.071L13544.9643,-3384.0698L13544.9388,-3384.0542L13544.9167,-3384.045L13544.8696,-3384.0276L13544.8096,-3383.9944L13544.8081,-3383.9936L13544.7986,-3383.9907L13544.7884,-3383.9907L13544.7252,-3383.9964L13544.6807,-3383.9939L13544.6689,-3383.9945L13544.656,-3383.9974L13544.6406,-3384.0057L13544.5995,-3384.0489L13544.5908,-3384.0625L13544.5747,-3384.1128L13544.5669,-3384.1259L13544.5603,-3384.1369L13544.5496,-3384.1477L13544.5405,-3384.1528L13544.5223,-3384.155L13544.4945,-3384.1537L13544.3958,-3384.1299L13544.3583,-3384.1193L13544.309,-3384.1054L13544.2805,-3384.0921L13544.2371,-3384.0566L13544.2153,-3384.0326L13544.2035,-3384.0224L13544.1822,-3384.0094L13544.1667,-3384.002L13544.1517,-3383.9949L13544.1152,-3383.972L13544.0962,-3383.9616L13544.0629,-3383.9534L13543.9978,-3383.9192L13543.9933,-3383.9186L13543.9385,-3383.9385L13543.9208,-3383.942L13543.9128,-3383.9417L13543.8847,-3383.9407L13543.8546,-3383.9344L13543.8139,-3383.9147L13543.7888,-3383.9062L13543.7416,-3383.8916L13543.6866,-3383.8693L13543.6669,-3383.8643L13543.6559,-3383.8636L13543.6448,-3383.8655L13543.6304,-3383.8738L13543.5724,-3383.9383L13543.5282,-3383.9761L13543.5035,-3383.9878L13543.4849,-3383.9916L13543.4453,-3383.9916L13543.4312,-3383.9929L13543.3789,-3384.0069L13543.3587,-3384.0104L13543.3451,-3384.0104L13543.3333,-3384.0061L13543.3295,-3384.0047L13543.2724,-3383.9634L13543.2312,-3383.9424L13543.1684,-3383.9195L13543.1536,-3383.9078L13543.1299,-3383.8745L13543.1177,-3383.8613L13543.1101,-3383.8508L13543.1009,-3383.8178L13543.0986,-3383.8042L13543.1009,-3383.7934L13543.107,-3383.7795L13543.1078,-3383.7753L13543.1066,-3383.7728L13543.1036,-3383.7709L13543.0966,-3383.7714L13543.0751,-3383.7819L13543.0473,-3383.7954L13542.9879,-3383.8415L13542.9801,-3383.8459L13542.9728,-3383.8459L13542.9669,-3383.8421L13542.9419,-3383.8054L13542.9097,-3383.778L13542.8966,-3383.773L13542.8854,-3383.7747L13542.8657,-3383.7917L13542.8315,-3383.8196L13542.7941,-3383.8388L13542.7767,-3383.8568L13542.7662,-3383.8634L13542.7373,-3383.8749L13542.7156,-3383.8782L13542.7011,-3383.8744L13542.6354,-3383.819L13542.619,-3383.8141L13542.6091,-3383.8141L13542.5802,-3383.8201L13542.5546,-3383.8305L13542.5388,-3383.842L13542.527,-3383.847L13542.5,-3383.8525L13542.4974,-3383.853L13542.4718,-3383.853L13542.4337,-3383.8409L13542.4081,-3383.8289L13542.379,-3383.8067L13542.3205,-3383.7332L13542.2975,-3383.713L13542.241,-3383.6845L13542.2325,-3383.6763L13542.2279,-3383.6684L13542.2069,-3383.6479L13542.2025,-3383.6379L13542.2051,-3383.6242L13542.2275,-3383.5889L13542.2293,-3383.5698L13542.2242,-3383.5553L13542.2118,-3383.5404L13542.1937,-3383.5186L13542.1796,-3383.5101L13542.1638,-3383.507L13542.1195,-3383.5022L13542.0952,-3383.5016L13542.069,-3383.5052L13542.0199,-3383.5194L13541.9788,-3383.5313L13541.9356,-3383.5344L13541.9054,-3383.5322L13541.9011,-3383.5309L13541.8533,-3383.5161L13541.7934,-3383.5007L13541.7195,-3383.4702L13541.7072,-3383.4681L13541.6839,-3383.4712L13541.669,-3383.4712L13541.6667,-3383.4705L13541.6541,-3383.4669L13541.6094,-3383.4359L13541.5956,-3383.4204L13541.5473,-3383.3686L13541.5338,-3383.361L13541.5204,-3383.3586L13541.5036,-3383.3611L13541.4724,-3383.3729L13541.4386,-3383.3802L13541.4269,-3383.3872L13541.4019,-3383.4065L13541.3637,-3383.4482L13541.347,-3383.4767L13541.3026,-3383.5263L13541.3007,-3383.5282L13541.2902,-3383.5396L13541.2652,-3383.5736L13541.2597,-3383.5754L13541.2357,-3383.5669L13541.2189,-3383.5555L13541.179,-3383.5201L13541.1612,-3383.5079L13541.1127,-3383.4863L13541.0924,-3383.4848L13541.0437,-3383.4769L13540.9967,-3383.4708L13540.9717,-3383.4599L13540.8973,-3383.439L13540.863,-3383.4352L13540.8379,-3383.424L13540.8333,-3383.4199L13540.8248,-3383.4122L13540.8179,-3383.394L13540.8056,-3383.3767L13540.7914,-3383.3661L13540.7747,-3383.3637L13540.7569,-3383.3652L13540.7104,-3383.3999L13540.6689,-3383.4481L13540.638,-3383.4761L13540.6191,-3383.4974L13540.6028,-3383.5295L13540.5849,-3383.5594L13540.5693,-3383.6057L13540.5349,-3383.6684L13540.5261,-3383.6756L13540.5188,-3383.6794L13540.4845,-3383.6881L13540.4586,-3383.701L13540.4471,-3383.7067L13540.4354,-3383.7176L13540.3897,-3383.7514L13540.3778,-3383.7548L13540.3565,-3383.7531L13540.3514,-3383.7541L13540.3357,-3383.757L13540.2936,-3383.7721L13540.2222,-3383.7934L13540.2009,-3383.796L13540.1912,-3383.7949L13540.1806,-3383.7938L13540.1479,-3383.7769L13540.1095,-3383.7587L13540.0726,-3383.7479L13540.0371,-3383.7427L13540.0043,-3383.7427L13540,-3383.7409L13539.9846,-3383.7344L13539.9394,-3383.7076L13539.9284,-3383.7063L13539.9176,-3383.7076L13539.8693,-3383.7288L13539.8495,-3383.7327L13539.8083,-3383.7333L13539.7755,-3383.7363L13539.7004,-3383.7489L13539.687,-3383.7474L13539.6822,-3383.7434L13539.664,-3383.7085L13539.6319,-3383.6684L13539.6236,-3383.6539L13539.5989,-3383.637L13539.5829,-3383.6303L13539.5622,-3383.6291L13539.5284,-3383.6318L13539.4845,-3383.6409L13539.4587,-3383.6533L13539.441,-3383.6684L13539.4011,-3383.6833L13539.3724,-3383.6895L13539.3406,-3383.6895L13539.33,-3383.6921L13539.3144,-3383.6968L13539.3007,-3383.7062L13539.2664,-3383.7363L13539.2583,-3383.7415L13539.2332,-3383.7498L13539.1922,-3383.7633L13539.1667,-3383.7694L13539.1486,-3383.7737L13539.1293,-3383.7753L13539.0981,-3383.7711L13539.0788,-3383.7623L13539.0414,-3383.7223L13539.0183,-3383.7041L13538.9996,-3383.6952L13538.9609,-3383.6843L13538.9478,-3383.6755L13538.9391,-3383.6684L13538.9363,-3383.6484L13538.9262,-3383.6334L13538.9174,-3383.6298L13538.9047,-3383.6312L13538.8749,-3383.6364L13538.8511,-3383.6382L13538.7884,-3383.628L13538.7574,-3383.6108L13538.7353,-3383.5986L13538.712,-3383.5755L13538.7062,-3383.5642L13538.7037,-3383.5594L13538.6989,-3383.5539L13538.6976,-3383.5524L13538.6603,-3383.536L13538.6493,-3383.5289L13538.6098,-3383.5018L13538.5783,-3383.4868L13538.4979,-3383.4461L13538.4366,-3383.4117L13538.3834,-3383.3834L13538.3558,-3383.3567L13538.3356,-3383.3423L13538.3333,-3383.3407L13538.3229,-3383.3333L13538.3094,-3383.3237L13538.2734,-3383.3121L13538.2673,-3383.3117L13538.2624,-3383.3127L13538.2467,-3383.3161L13538.2132,-3383.309L13538.1654,-3383.2881L13538.1129,-3383.2559L13538.0909,-3383.23L13538.0658,-3383.2141L13538.0036,-3383.1757L13537.9913,-3383.1636L13537.9874,-3383.1517L13537.9861,-3383.1475L13537.9804,-3383.1406L13537.9623,-3383.1298L13537.9368,-3383.1181L13537.9219,-3383.1078L13537.8829,-3383.0764L13537.8562,-3383.0402L13537.8495,-3383.026L13537.8489,-3383.0194L13537.8464,-3382.9938L13537.8346,-3382.9788L13537.8202,-3382.9719L13537.7868,-3382.9606L13537.7381,-3382.9557L13537.6916,-3382.9378L13537.6653,-3382.9302L13537.6438,-3382.9294L13537.6215,-3382.9324L13537.6039,-3382.9356L13537.5911,-3382.9456L13537.579,-3382.955L13537.5728,-3382.955L13537.528,-3382.9337L13537.5,-3382.9207L13537.4741,-3382.9088L13537.4678,-3382.9031L13537.4614,-3382.8974L13537.4548,-3382.8817L13537.4517,-3382.8419L13537.4355,-3382.8113L13537.4316,-3382.7886L13537.4377,-3382.763L13537.4447,-3382.7515L13537.4487,-3382.7451L13537.4526,-3382.7312L13537.4509,-3382.7136L13537.4456,-3382.6979L13537.4341,-3382.687L13537.4087,-3382.6629L13537.3841,-3382.6354L13537.3582,-3382.5895L13537.3376,-3382.5529L13537.2909,-3382.5L13537.2802,-3382.4878L13537.246,-3382.4604L13537.2218,-3382.4508L13537.1704,-3382.4332L13537.1516,-3382.4081L13537.1415,-3382.4026L13537.1126,-3382.3961L13537.0969,-3382.3811L13537.0893,-3382.3738L13537.0169,-3382.3151L13536.9356,-3382.2499L13536.9167,-3382.2314L13536.9179,-3382.2091L13536.9379,-3382.1636L13536.9679,-3382.1049L13536.9801,-3382.0752L13536.9901,-3382.0567L13536.9913,-3382.0289L13536.9879,-3382.0205L13536.9835,-3382.0177L13536.9156,-3382.0001L13536.8934,-3381.988L13536.8722,-3381.9666L13536.8544,-3381.9517L13536.8255,-3381.9146L13536.8066,-3381.8801L13536.7954,-3381.8579L13536.7732,-3381.8263L13536.7453,-3381.8012L13536.7253,-3381.7863L13536.7163,-3381.779L13536.6874,-3381.7555L13536.673,-3381.7388L13536.6667,-3381.7215L13536.6652,-3381.7174L13536.6596,-3381.7082L13536.6496,-3381.6885L13536.6379,-3381.6667L13536.6273,-3381.6466L13536.6017,-3381.6141L13536.5834,-3381.5876L13536.5773,-3381.5788L13536.5728,-3381.563L13536.5617,-3381.5379L13536.5494,-3381.5296L13536.5172,-3381.498L13536.5027,-3381.4757L13536.4849,-3381.4451L13536.4772,-3381.4395L13536.4102,-3381.4219L13536.396,-3381.4181L13536.3614,-3381.4097L13536.3336,-3381.4013L13536.3289,-3381.3884L13536.3216,-3381.3686L13536.3023,-3381.3568L13536.2708,-3381.3379L13536.2646,-3381.3465L13536.2468,-3381.3456L13536.1991,-3381.3261L13536.1679,-3381.2927L13536.1524,-3381.2806L13536.1201,-3381.2686L13536.0864,-3381.2591L13536.0397,-3381.2517L13536.0253,-3381.2442L13536.013,-3381.2238L13535.9975,-3381.1858L13535.9919,-3381.1858L13535.9882,-3381.186L13535.9818,-3381.1864L13535.9662,-3381.1855L13535.9584,-3381.1809L13535.9373,-3381.1307L13535.9306,-3381.1242L13535.8628,-3381.1048L13535.8584,-3381.0983L13535.8551,-3381.0806L13535.8439,-3381.0712L13535.8333,-3381.062L13535.8227,-3381.0526L13535.8061,-3381.0415L13535.7872,-3381.0313L13535.7712,-3381.0168L13535.7615,-3381.008L13535.7459,-3380.9969L13535.7081,-3380.969L13535.6859,-3380.9588L13535.6625,-3380.9291L13535.6247,-3380.904L13535.6025,-3380.8966L13535.5603,-3380.8919L13535.528,-3380.8947L13535.4746,-3380.9077L13535.4603,-3380.9155L13535.4491,-3380.9216L13535.4302,-3380.942L13535.4146,-3380.9596L13535.3732,-3380.9701L13535.3499,-3380.971L13535.3276,-3380.9673L13535.2798,-3380.9552L13535.2616,-3380.9542L13535.2294,-3380.9524L13535.2132,-3380.9515L13535.1562,-3380.9433L13535.1562,-3388.1764L13535.157,-3388.1791L13535.1562,-3388.1875L13535.1562,-3388.2305L13535.1617,-3388.2469L13535.1951,-3388.2989L13535.2097,-3388.3333L13535.2144,-3388.3445L13535.2446,-3388.3763L13535.2881,-3388.4069L13535.3105,-3388.4171L13535.3223,-3388.4225L13535.3446,-3388.4327L13535.3942,-3388.4656L13535.4261,-3388.5051L13535.4648,-3388.5457L13535.5035,-3388.5767L13535.5322,-3388.6189L13535.5425,-3388.6467L13535.5585,-3388.6899L13535.5841,-3388.7223L13535.6197,-3388.7798L13535.6321,-3388.7856L13535.6592,-3388.7856L13535.7118,-3388.7817L13535.7701,-3388.7862L13535.8333,-3388.7792L13535.8753,-3388.7746L13535.9303,-3388.763L13535.9783,-3388.743L13536.0366,-3388.7204L13536.0513,-3388.7165L13536.1109,-3388.7146L13536.1333,-3388.7088L13536.1496,-3388.6996L13536.1767,-3388.6842L13536.2046,-3388.6784L13536.2742,-3388.6668L13536.3596,-3388.6441L13536.451,-3388.6299L13536.4904,-3388.6312L13536.5647,-3388.6312L13536.6085,-3388.6227L13536.6619,-3388.5989L13536.6667,-3388.5979L13536.7416,-3388.5821L13536.8353,-3388.5724L13536.9235,-3388.5659L13536.9931,-3388.5743L13537.0396,-3388.5956L13537.0911,-3388.6033L13537.129,-3388.6033L13537.1824,-3388.5956L13537.2217,-3388.5938L13537.269,-3388.5979L13537.2944,-3388.5934L13537.3104,-3388.5884L13537.3892,-3388.5501L13537.4413,-3388.5322L13537.464,-3388.5294L13537.5,-3388.5288L13537.5084,-3388.5287L13537.5915,-3388.5304L13537.653,-3388.524L13537.7451,-3388.524L13537.8412,-3388.5094L13537.9333,-3388.4972L13537.9669,-3388.4966L13538.0464,-3388.5062L13538.0989,-3388.5184L13538.1932,-3388.5599L13538.2437,-3388.5931L13538.2731,-3388.605L13538.3095,-3388.6197L13538.3333,-3388.629L13538.3551,-3388.6375L13538.3702,-3388.6391L13538.3854,-3388.6369L13538.5061,-3388.5958L13538.5201,-3388.5937L13538.5454,-3388.5953L13538.6193,-3388.6111L13538.6266,-3388.6106L13538.6348,-3388.6063L13538.65,-3388.5889L13538.745,-3388.4527L13538.7513,-3388.4506L13538.7759,-3388.4522L13538.8373,-3388.4622L13538.9764,-3388.4696L13538.9896,-3388.4721L13539.0854,-3388.4901L13539.1369,-3388.4933L13539.1616,-3388.4896L13539.1667,-3388.4884L13539.2402,-3388.4718L13539.3437,-3388.4485L13539.3627,-3388.4479L13539.3892,-3388.4527L13539.3968,-3388.4564L13539.5119,-3388.5539L13539.5327,-3388.5634L13539.6095,-3388.5708L13539.6291,-3388.5766L13539.6932,-3388.6132L13539.7463,-3388.658L13539.7621,-3388.6675L13539.843,-3388.7044L13539.8637,-3388.7216L13539.8772,-3388.7328L13539.9014,-3388.7643L13539.9096,-3388.7806L13539.9267,-3388.837L13539.9665,-3388.8022L13539.9949,-3388.7906L13540,-3388.7896L13540.0386,-3388.7817L13540.0537,-3388.7727Z"/>
<path content="和歌山県,,日高郡,日高川町,,30392" xlink:title="和歌山県" d="M13539.8277,-3392.5781L13539.8313,-3392.5656L13539.8289,-3392.5418L13539.8337,-3392.5269L13539.8253,-3392.5141L13539.8056,-3392.5L13539.8042,-3392.499L13539.7697,-3392.4792L13539.7436,-3392.4524L13539.696,-3392.4088L13539.6746,-3392.3922L13539.6627,-3392.383L13539.633,-3392.3691L13539.6139,-3392.3592L13539.5786,-3392.3282L13539.5441,-3392.3084L13539.5286,-3392.3005L13539.5024,-3392.2906L13539.4668,-3392.2866L13539.4584,-3392.2806L13539.437,-3392.2519L13539.3908,-3392.1772L13539.3659,-3392.1385L13539.341,-3392.1114L13539.3291,-3392.088L13539.3302,-3392.0663L13539.3432,-3392.0393L13539.3573,-3392.0194L13539.367,-3392.0131L13539.3864,-3392.0068L13539.3939,-3392.0008L13539.3779,-3391.966L13539.371,-3391.9355L13539.3667,-3391.892L13539.3678,-3391.852L13539.371,-3391.8271L13539.3891,-3391.7722L13539.388,-3391.7646L13539.3859,-3391.7566L13539.3236,-3391.6825L13539.3004,-3391.6764L13539.2853,-3391.673L13539.2667,-3391.6715L13539.2408,-3391.6746L13539.1762,-3391.689L13539.1667,-3391.6906L13539.1612,-3391.6916L13539.1245,-3391.6875L13539.0822,-3391.686L13539.0527,-3391.6894L13539.0513,-3391.6899L13539.0172,-3391.7012L13538.9867,-3391.7057L13538.9306,-3391.7072L13538.8892,-3391.7118L13538.8196,-3391.7322L13538.7977,-3391.7352L13538.7263,-3391.7307L13538.7139,-3391.7263L13538.692,-3391.7186L13538.6324,-3391.6902L13538.6101,-3391.6841L13538.5997,-3391.6826L13538.5696,-3391.6826L13538.5537,-3391.6811L13538.5066,-3391.6711L13538.4838,-3391.6667L13538.4775,-3391.6654L13538.3852,-3391.6617L13538.3534,-3391.6575L13538.3333,-3391.6567L13538.3063,-3391.6556L13538.2781,-3391.6602L13538.2622,-3391.6667L13538.2231,-3391.6826L13538.1885,-3391.7007L13538.1489,-3391.7356L13538.1325,-3391.7456L13538.092,-3391.7619L13538.0747,-3391.7767L13538.0638,-3391.7888L13538.0496,-3391.8181L13538.0474,-3391.8226L13538.0323,-3391.8736L13538.0269,-3391.8823L13537.9905,-3391.9138L13537.9791,-3391.9194L13537.9746,-3391.9191L13537.9584,-3391.9094L13537.8729,-3391.8397L13537.8302,-3391.7984L13537.8047,-3391.7809L13537.7765,-3391.7627L13537.7363,-3391.721L13537.714,-3391.7024L13537.6969,-3391.6959L13537.674,-3391.6873L13537.6134,-3391.6667L13537.5949,-3391.6604L13537.5801,-3391.6491L13537.5211,-3391.6044L13537.5061,-3391.5885L13537.5,-3391.5766L13537.492,-3391.5608L13537.4856,-3391.5521L13537.4747,-3391.5487L13537.4053,-3391.5449L13537.3867,-3391.5456L13537.3703,-3391.5494L13537.288,-3391.5828L13537.2616,-3391.5881L13537.2216,-3391.5911L13537.1057,-3391.6419L13537.0819,-3391.6466L13537.0665,-3391.6419L13537.0315,-3391.6239L13536.995,-3391.6232L13536.9473,-3391.6337L13536.9137,-3391.6489L13536.9011,-3391.6466L13536.8674,-3391.6384L13536.8436,-3391.6454L13536.8156,-3391.6477L13536.7427,-3391.6325L13536.6667,-3391.6114L13536.6628,-3391.6103L13536.5886,-3391.5764L13536.5647,-3391.5717L13536.5211,-3391.5499L13536.4839,-3391.5343L13536.4299,-3391.5143L13536.3921,-3391.5032L13536.3556,-3391.4994L13536.3039,-3391.501L13536.284,-3391.5032L13536.2482,-3391.4938L13536.1832,-3391.4783L13536.1112,-3391.4772L13535.9594,-3391.4623L13535.9116,-3391.4512L13535.8705,-3391.4435L13535.838,-3391.4435L13535.8333,-3391.4442L13535.7581,-3391.4551L13535.7436,-3391.454L13535.715,-3391.4468L13535.692,-3391.4388L13535.6845,-3391.4363L13535.6646,-3391.4286L13535.6361,-3391.428L13535.5937,-3391.4324L13535.4819,-3391.4544L13535.4707,-3391.4538L13535.4497,-3391.4422L13535.4468,-3391.4406L13535.3666,-3391.409L13535.3294,-3391.4018L13535.3042,-3391.3914L13535.2319,-3391.3477L13535.1727,-3391.3237L13535.1562,-3391.3204L13535.1562,-3392.5781Z"/>
<path content="和歌山県,,西牟婁郡,上富田町,,30404" xlink:title="和歌山県" d="M13546.5513,-3375L13546.5508,-3375.0029L13546.5499,-3375.0361L13546.5508,-3375.0599L13546.5618,-3375.0852L13546.5884,-3375.1259L13546.6088,-3375.1639L13546.6336,-3375.2062L13546.6428,-3375.233L13546.6401,-3375.2591L13546.6314,-3375.3361L13546.6237,-3375.3535L13546.6229,-3375.3554L13546.6126,-3375.3656L13546.5928,-3375.3761L13546.5585,-3375.413L13546.5357,-3375.4394L13546.5213,-3375.4561L13546.5037,-3375.4846L13546.4696,-3375.5545L13546.4642,-3375.574L13546.4637,-3375.5931L13546.4664,-3375.6085L13546.4863,-3375.6439L13546.506,-3375.6668L13546.5307,-3375.6796L13546.5487,-3375.6934L13546.5572,-3375.7067L13546.5608,-3375.7232L13546.5595,-3375.7404L13546.5487,-3375.7719L13546.5464,-3375.7839L13546.5469,-3375.7989L13546.5523,-3375.8109L13546.5699,-3375.8333L13546.5766,-3375.8419L13546.6134,-3375.8775L13546.6202,-3375.8887L13546.6224,-3375.9101L13546.6306,-3375.9309L13546.6607,-3375.9598L13546.6667,-3375.9668L13546.6759,-3375.9778L13546.6958,-3376.0064L13546.7164,-3376.0331L13546.7259,-3376.0492L13546.7443,-3376.1045L13546.7735,-3376.2031L13546.7726,-3376.2269L13546.7726,-3376.2408L13546.7705,-3376.2502L13546.7686,-3376.2588L13546.7641,-3376.2985L13546.7681,-3376.3056L13546.787,-3376.3172L13546.8045,-3376.3391L13546.8176,-3376.3697L13546.8234,-3376.3906L13546.8243,-3376.4199L13546.8356,-3376.5063L13546.8485,-3376.5695L13546.8576,-3376.6135L13546.8687,-3376.6667L13546.8706,-3376.676L13546.8846,-3376.7174L13546.9089,-3376.7508L13546.9286,-3376.7969L13546.9359,-3376.8037L13546.9521,-3376.812L13546.9822,-3376.8176L13546.9894,-3376.8228L13546.9907,-3376.8322L13546.9921,-3376.8423L13546.9997,-3376.8498L13547.0192,-3376.8543L13547.0587,-3376.8573L13547.136,-3376.8483L13547.1699,-3376.8419L13547.208,-3376.8325L13547.2696,-3376.7942L13547.2745,-3376.7931L13547.2814,-3376.7714L13547.2881,-3376.7618L13547.3152,-3376.7368L13547.3505,-3376.7189L13547.3801,-3376.6914L13547.4141,-3376.6729L13547.4299,-3376.6667L13547.4374,-3376.6637L13547.4422,-3376.6577L13547.4476,-3376.6481L13547.456,-3376.6331L13547.4641,-3376.6255L13547.4918,-3376.6136L13547.5,-3376.603L13547.5043,-3376.5974L13547.5067,-3376.5875L13547.5081,-3376.5624L13547.5124,-3376.5517L13547.5205,-3376.5402L13547.5348,-3376.4916L13547.5382,-3376.4751L13547.5396,-3376.4496L13547.5411,-3376.4443L13547.5479,-3376.4376L13547.554,-3376.4316L13547.5564,-3376.4268L13547.5664,-3376.3997L13547.5807,-3376.3639L13547.5922,-3376.3399L13547.6036,-3376.3172L13547.6141,-3376.2885L13547.6255,-3376.2666L13547.6518,-3376.2451L13547.6714,-3376.2254L13547.6838,-3376.2067L13547.6977,-3376.1948L13547.7148,-3376.1785L13547.7258,-3376.1705L13547.7411,-3376.157L13547.7477,-3376.1466L13547.7554,-3376.1263L13547.7645,-3376.1142L13547.7831,-3376.0955L13547.8046,-3376.0839L13547.838,-3376.066L13547.8391,-3376.0639L13547.8419,-3376.0587L13547.8462,-3376.0404L13547.8495,-3376.0317L13547.8591,-3376.0213L13547.8853,-3376.0018L13547.9105,-3375.9843L13547.9487,-3375.9664L13547.9936,-3375.9412L13548.0017,-3375.9316L13548.0084,-3375.9081L13548.0074,-3375.8854L13548.0031,-3375.8682L13547.9974,-3375.8519L13547.9872,-3375.8333L13547.9841,-3375.8276L13547.9831,-3375.8208L13547.9869,-3375.8065L13547.9913,-3375.7955L13548.0117,-3375.7796L13548.0384,-3375.7573L13548.0838,-3375.7239L13548.1014,-3375.7112L13548.1272,-3375.6885L13548.1468,-3375.6672L13548.1607,-3375.6513L13548.1731,-3375.6187L13548.1822,-3375.5842L13548.1879,-3375.5767L13548.2217,-3375.5587L13548.247,-3375.5488L13548.2671,-3375.5452L13548.3052,-3375.5293L13548.3333,-3375.5193L13548.3491,-3375.5138L13548.376,-3375.5069L13548.3879,-3375.5013L13548.4008,-3375.4897L13548.4203,-3375.4595L13548.4338,-3375.4367L13548.4457,-3375.4219L13548.4592,-3375.4115L13548.4648,-3375.4072L13548.4858,-3375.3961L13548.5015,-3375.3901L13548.522,-3375.3722L13548.535,-3375.3533L13548.5408,-3375.3361L13548.5473,-3375.3178L13548.5574,-3375.2996L13548.5969,-3375.2466L13548.6155,-3375.2194L13548.6466,-3375.1862L13548.6748,-3375.1644L13548.7042,-3375.1435L13548.7155,-3375.1337L13548.7248,-3375.115L13548.7244,-3375.1046L13548.7219,-3375.0942L13548.7014,-3375.0766L13548.6845,-3375.0645L13548.6735,-3375.0488L13548.6646,-3375.0313L13548.6513,-3375.0047L13548.6496,-3375Z"/>
</g>
</svg>
