<?xml version="1.0" encoding="UTF-8"?>
<svg  xmlns="http://www.w3.org/2000/svg" xmlns:xlink="http://www.w3.org/1999/xlink" xmlns:go="http://purl.org/svgmap/profile" property="geometry,N03_001,N03_002,N03_003,N03_004,N03_005,N03_007" viewBox="13517.578125 -3515.625 8.7890625 8.7890625" go:dataArea="13517.578125 -3515.625 8.7890625 8.7890625" >
<metadata>
 <rdf:RDF xmlns:rdf="http://www.w3.org/1999/02/22-rdf-syntax-ns#" xmlns:crs="http://opengis.org/xmldtds/transformations.dtd" xmlns:svg="http://www.w3.org/svg" >
  <rdf:Description>
   <crs:CoordinateReferenceSystem rdf:resource="http://purl.org/crs/84" svg:transform="matrix(100.0,0.0,0.0,-100.0,0.0,0.0)" />
  </rdf:Description>
 </rdf:RDF>
</metadata>
<globalCoordinateSystem srsName="http://purl.org/crs/84" transform="matrix(100.0,0.0,0.0,-100.0,0.0,0.0)" />
<defs>
 <g id="p0" >
  <circle cx="0.0" cy="0.0" r="3" stroke="green" stroke-width="2.0" vector-effect="non-scaling-stroke" />
 </g>
</defs>
<g fill="#0000ff" fill-rule="evenodd" opacity="0.5" >
<path content="兵庫県,,,丹波篠山市,,28221" xlink:title="兵庫県" d="M13526.3672,-3515.625L13526.3672,-3506.8359L13517.5781,-3506.8359L13517.5781,-3512.6984L13517.5872,-3512.6943L13517.609,-3512.6834L13517.6266,-3512.6897L13517.6346,-3512.7084L13517.6446,-3512.7232L13517.6546,-3512.7338L13517.6632,-3512.7357L13517.665,-3512.7361L13517.6807,-3512.7353L13517.704,-3512.7369L13517.7268,-3512.7408L13517.7384,-3512.747L13517.7564,-3512.7521L13517.7716,-3512.7533L13517.7887,-3512.7525L13517.8082,-3512.7501L13517.8343,-3512.7482L13517.8519,-3512.7454L13517.8709,-3512.7451L13517.9269,-3512.7361L13517.9506,-3512.738L13517.9663,-3512.7416L13517.9777,-3512.7462L13517.9886,-3512.7486L13518.0069,-3512.7498L13518.0392,-3512.74L13518.0544,-3512.7357L13518.0754,-3512.7353L13518.0757,-3512.7353L13518.0938,-3512.7419L13518.1076,-3512.7462L13518.1227,-3512.7533L13518.1389,-3512.7587L13518.1555,-3512.7618L13518.1717,-3512.7657L13518.193,-3512.7693L13518.2115,-3512.7767L13518.2256,-3512.7806L13518.2683,-3512.7926L13518.2802,-3512.8028L13518.3015,-3512.8164L13518.3162,-3512.8157L13518.3333,-3512.8157L13518.3395,-3512.8157L13518.3518,-3512.8172L13518.3741,-3512.827L13518.395,-3512.8332L13518.4188,-3512.8348L13518.4389,-3512.8387L13518.4693,-3512.8461L13518.4917,-3512.8551L13518.5059,-3512.8636L13518.5263,-3512.8761L13518.5472,-3512.8828L13518.5937,-3512.8855L13518.6118,-3512.8902L13518.6327,-3512.8953L13518.6559,-3512.8956L13518.6745,-3512.8902L13518.7039,-3512.8758L13518.7198,-3512.8703L13518.7464,-3512.8461L13518.7592,-3512.8375L13518.7773,-3512.8309L13518.7963,-3512.827L13518.8304,-3512.8172L13518.8575,-3512.8141L13518.8779,-3512.8106L13518.9002,-3512.8164L13518.9104,-3512.8227L13518.9437,-3512.827L13518.9684,-3512.8375L13518.9826,-3512.8445L13518.9964,-3512.8535L13519.0154,-3512.8598L13519.0315,-3512.8664L13519.07,-3512.8785L13519.0854,-3512.8865L13519.0857,-3512.8866L13519.1008,-3512.8945L13519.1215,-3512.9031L13519.1381,-3512.912L13519.159,-3512.9198L13519.1667,-3512.921L13519.1804,-3512.9229L13519.1975,-3512.9191L13519.2169,-3512.9155L13519.2383,-3512.9124L13519.253,-3512.9089L13519.2682,-3512.9038L13519.2824,-3512.8972L13519.3066,-3512.8836L13519.3184,-3512.8761L13519.3209,-3512.8746L13519.3382,-3512.8644L13519.3558,-3512.8586L13519.3781,-3512.8473L13519.4047,-3512.836L13519.4227,-3512.8305L13519.4408,-3512.8282L13519.4565,-3512.8282L13519.4859,-3512.8254L13519.5357,-3512.8239L13519.5566,-3512.8231L13519.5816,-3512.8262L13519.6186,-3512.8348L13519.6329,-3512.8352L13519.6523,-3512.8313L13519.6732,-3512.8243L13519.6927,-3512.8204L13519.7121,-3512.8173L13519.7278,-3512.8161L13519.7473,-3512.8188L13519.7686,-3512.8289L13519.7891,-3512.8407L13519.7995,-3512.8508L13519.8209,-3512.8699L13519.8332,-3512.8797L13519.846,-3512.8812L13519.8698,-3512.8812L13519.8907,-3512.8746L13519.898,-3512.8648L13519.9161,-3512.8446L13519.926,-3512.8379L13519.9346,-3512.8348L13519.9659,-3512.8239L13519.9849,-3512.8196L13520,-3512.8143L13520.0136,-3512.8094L13520.0791,-3512.7888L13520.0836,-3512.7874L13520.1072,-3512.7802L13520.1328,-3512.781L13520.1471,-3512.7833L13520.1888,-3512.7931L13520.2187,-3512.8032L13520.2349,-3512.8087L13520.2515,-3512.8153L13520.2866,-3512.8333L13520.3087,-3512.8375L13520.3287,-3512.8411L13520.3443,-3512.8465L13520.3586,-3512.8543L13520.3823,-3512.8586L13520.4227,-3512.8598L13520.4393,-3512.8609L13520.4583,-3512.8668L13520.4742,-3512.873L13520.5283,-3512.8797L13520.5497,-3512.882L13520.563,-3512.8828L13520.5801,-3512.8832L13520.6086,-3512.8863L13520.6318,-3512.8859L13520.6527,-3512.8828L13520.6703,-3512.8816L13520.6874,-3512.8812L13520.7111,-3512.8816L13520.7389,-3512.8844L13520.7588,-3512.8875L13520.7811,-3512.8937L13520.7973,-3512.8945L13520.8115,-3512.8941L13520.8333,-3512.8911L13520.8343,-3512.891L13520.8756,-3512.8855L13520.8823,-3512.8949L13520.8875,-3512.9035L13520.8899,-3512.9179L13520.8889,-3512.9316L13520.8889,-3512.9468L13520.8913,-3512.9596L13520.8994,-3512.9776L13520.9065,-3512.994L13520.9164,-3513.0104L13520.9297,-3513.0186L13520.949,-3513.0268L13520.9642,-3513.0361L13520.9803,-3513.0439L13520.9917,-3513.0525L13521.0017,-3513.0615L13521.0103,-3513.0751L13521.0126,-3513.0786L13521.0216,-3513.088L13521.0349,-3513.097L13521.0506,-3513.1063L13521.0629,-3513.1141L13521.0772,-3513.1188L13521.0929,-3513.1215L13521.1047,-3513.127L13521.1137,-3513.1395L13521.1237,-3513.152L13521.1374,-3513.1644L13521.1593,-3513.1644L13521.1669,-3513.1606L13521.1778,-3513.1531L13521.1935,-3513.1422L13521.2039,-3513.1391L13521.2263,-3513.136L13521.2488,-3513.1352L13521.2687,-3513.1391L13521.2811,-3513.1422L13521.2887,-3513.1465L13521.3039,-3513.1539L13521.3295,-3513.1617L13521.3504,-3513.1691L13521.3727,-3513.1695L13521.3908,-3513.166L13521.4254,-3513.1578L13521.434,-3513.1602L13521.4454,-3513.1699L13521.4504,-3513.1855L13521.4594,-3513.205L13521.4675,-3513.2179L13521.476,-3513.2409L13521.4831,-3513.2506L13521.494,-3513.2561L13521.5049,-3513.2596L13521.5249,-3513.2655L13521.5415,-3513.2764L13521.5515,-3513.2865L13521.5581,-3513.2916L13521.5653,-3513.3002L13521.5757,-3513.3099L13521.5828,-3513.3185L13521.5985,-3513.3251L13521.6167,-3513.3333L13521.6184,-3513.3341L13521.632,-3513.3427L13521.6391,-3513.3524L13521.6434,-3513.3587L13521.6495,-3513.3708L13521.6586,-3513.3782L13521.6667,-3513.3826L13521.6695,-3513.3841L13521.6837,-3513.3872L13521.7027,-3513.3938L13521.7141,-3513.4086L13521.7284,-3513.4227L13521.7331,-3513.4278L13521.7393,-3513.432L13521.7531,-3513.4371L13521.7739,-3513.4406L13521.7891,-3513.4453L13521.806,-3513.45L13521.8264,-3513.4558L13521.8383,-3513.4636L13521.8539,-3513.4793L13521.8578,-3513.4864L13521.8691,-3513.5069L13521.8739,-3513.519L13521.8848,-3513.5319L13521.8995,-3513.5428L13521.9199,-3513.553L13521.9432,-3513.5698L13521.9558,-3513.5806L13521.9705,-3513.5931L13521.9682,-3513.5957L13521.9596,-3513.6052L13521.9515,-3513.6228L13521.9406,-3513.6392L13521.9244,-3513.6622L13521.9154,-3513.6786L13521.9064,-3513.6918L13521.9014,-3513.7031L13521.89,-3513.723L13521.8805,-3513.7457L13521.8715,-3513.7609L13521.8663,-3513.7761L13521.8592,-3513.7983L13521.829,-3513.8428L13521.8224,-3513.8537L13521.8062,-3513.8669L13521.8005,-3513.8767L13521.7939,-3513.8861L13521.7939,-3513.8923L13521.7996,-3513.906L13521.8019,-3513.9243L13521.8019,-3513.9362L13521.8019,-3513.9407L13521.8029,-3513.9555L13521.8017,-3513.9719L13521.7974,-3513.9949L13521.7884,-3514.014L13521.7804,-3514.0308L13521.7837,-3514.0452L13521.7936,-3514.0561L13521.7974,-3514.0612L13521.8074,-3514.0698L13521.824,-3514.0788L13521.8416,-3514.0842L13521.8596,-3514.0858L13521.8851,-3514.0912L13521.9055,-3514.0986L13521.9325,-3514.1061L13521.9529,-3514.117L13521.9695,-3514.1267L13521.9771,-3514.1388L13521.9809,-3514.1525L13521.9862,-3514.1667L13521.9871,-3514.1693L13521.9928,-3514.1954L13521.9951,-3514.2123L13521.9957,-3514.2161L13521.9985,-3514.2305L13522.0073,-3514.2528L13522.0211,-3514.273L13522.0448,-3514.3066L13522.06,-3514.3303L13522.0814,-3514.3432L13522.1061,-3514.3565L13522.1346,-3514.3654L13522.1545,-3514.3701L13522.1749,-3514.3752L13522.1863,-3514.3818L13522.235,-3514.4076L13522.2568,-3514.4224L13522.272,-3514.4279L13522.2924,-3514.4353L13522.3114,-3514.447L13522.3465,-3514.4579L13522.3636,-3514.4665L13522.375,-3514.4747L13522.3878,-3514.4872L13522.4227,-3514.5215L13522.4248,-3514.5241L13522.4356,-3514.5375L13522.4479,-3514.5488L13522.456,-3514.5593L13522.4736,-3514.5792L13522.4845,-3514.5964L13522.4925,-3514.6139L13522.4949,-3514.6272L13522.4994,-3514.642L13522.5,-3514.6437L13522.5042,-3514.6557L13522.5146,-3514.6681L13522.5255,-3514.6803L13522.5331,-3514.6912L13522.5469,-3514.7017L13522.5583,-3514.7134L13522.5706,-3514.7255L13522.6063,-3514.7579L13522.6383,-3514.7781L13522.6639,-3514.7992L13522.6734,-3514.8171L13522.682,-3514.8343L13522.6715,-3514.8484L13522.6608,-3514.8567L13522.6599,-3514.8574L13522.653,-3514.8628L13522.6464,-3514.8753L13522.6454,-3514.8823L13522.6483,-3514.8921L13522.6549,-3514.9026L13522.6789,-3514.9236L13522.6974,-3514.9322L13522.7107,-3514.9353L13522.7249,-3514.94L13522.7587,-3514.9498L13522.7776,-3514.9553L13522.7957,-3514.9615L13522.8161,-3514.9673L13522.8304,-3514.9763L13522.8413,-3514.9872L13522.8533,-3515L13522.8541,-3515.0009L13522.8588,-3515.0161L13522.8624,-3515.0313L13522.8643,-3515.0434L13522.8591,-3515.0609L13522.8534,-3515.0769L13522.8467,-3515.0921L13522.8396,-3515.1062L13522.8358,-3515.1214L13522.833,-3515.1347L13522.8268,-3515.1491L13522.8194,-3515.1764L13522.8128,-3515.1955L13522.8061,-3515.2099L13522.8033,-3515.2209L13522.7933,-3515.2392L13522.7905,-3515.2493L13522.7876,-3515.2688L13522.7772,-3515.2868L13522.7672,-3515.2985L13522.7646,-3515.3118L13522.7551,-3515.3429L13522.7494,-3515.3566L13522.7432,-3515.3706L13522.738,-3515.3855L13522.7518,-3515.3944L13522.7798,-3515.4217L13522.7947,-3515.4483L13522.8,-3515.4631L13522.8023,-3515.4791L13522.8094,-3515.5111L13522.8123,-3515.5232L13522.8161,-3515.5442L13522.8204,-3515.5606L13522.8249,-3515.5711L13522.8234,-3515.5899L13522.8187,-3515.6187L13522.8186,-3515.6191L13522.8162,-3515.625Z"/>
<path content="兵庫県,,,丹波市,,28223" xlink:title="兵庫県" d="M13517.5781,-3515.625L13522.8162,-3515.625L13522.8186,-3515.6191L13522.8187,-3515.6187L13522.8234,-3515.5899L13522.8249,-3515.5711L13522.8204,-3515.5606L13522.8161,-3515.5442L13522.8123,-3515.5232L13522.8094,-3515.5111L13522.8023,-3515.4791L13522.8,-3515.4631L13522.7947,-3515.4483L13522.7798,-3515.4217L13522.7518,-3515.3944L13522.738,-3515.3855L13522.7432,-3515.3706L13522.7494,-3515.3566L13522.7551,-3515.3429L13522.7646,-3515.3118L13522.7672,-3515.2985L13522.7772,-3515.2868L13522.7876,-3515.2688L13522.7905,-3515.2493L13522.7933,-3515.2392L13522.8033,-3515.2209L13522.8061,-3515.2099L13522.8128,-3515.1955L13522.8194,-3515.1764L13522.8268,-3515.1491L13522.833,-3515.1347L13522.8358,-3515.1214L13522.8396,-3515.1062L13522.8467,-3515.0921L13522.8534,-3515.0769L13522.8591,-3515.0609L13522.8643,-3515.0434L13522.8624,-3515.0313L13522.8588,-3515.0161L13522.8541,-3515.0009L13522.8533,-3515L13522.8413,-3514.9872L13522.8304,-3514.9763L13522.8161,-3514.9673L13522.7957,-3514.9615L13522.7776,-3514.9553L13522.7587,-3514.9498L13522.7249,-3514.94L13522.7107,-3514.9353L13522.6974,-3514.9322L13522.6789,-3514.9236L13522.6549,-3514.9026L13522.6483,-3514.8921L13522.6454,-3514.8823L13522.6464,-3514.8753L13522.653,-3514.8628L13522.6599,-3514.8574L13522.6608,-3514.8567L13522.6715,-3514.8484L13522.682,-3514.8343L13522.6734,-3514.8171L13522.6639,-3514.7992L13522.6383,-3514.7781L13522.6063,-3514.7579L13522.5706,-3514.7255L13522.5583,-3514.7134L13522.5469,-3514.7017L13522.5331,-3514.6912L13522.5255,-3514.6803L13522.5146,-3514.6681L13522.5042,-3514.6557L13522.5,-3514.6437L13522.4994,-3514.642L13522.4949,-3514.6272L13522.4925,-3514.6139L13522.4845,-3514.5964L13522.4736,-3514.5792L13522.456,-3514.5593L13522.4479,-3514.5488L13522.4356,-3514.5375L13522.4248,-3514.5241L13522.4227,-3514.5215L13522.3878,-3514.4872L13522.375,-3514.4747L13522.3636,-3514.4665L13522.3465,-3514.4579L13522.3114,-3514.447L13522.2924,-3514.4353L13522.272,-3514.4279L13522.2568,-3514.4224L13522.235,-3514.4076L13522.1863,-3514.3818L13522.1749,-3514.3752L13522.1545,-3514.3701L13522.1346,-3514.3654L13522.1061,-3514.3565L13522.0814,-3514.3432L13522.06,-3514.3303L13522.0448,-3514.3066L13522.0211,-3514.273L13522.0073,-3514.2528L13521.9985,-3514.2305L13521.9957,-3514.2161L13521.9951,-3514.2123L13521.9928,-3514.1954L13521.9871,-3514.1693L13521.9862,-3514.1667L13521.9809,-3514.1525L13521.9771,-3514.1388L13521.9695,-3514.1267L13521.9529,-3514.117L13521.9325,-3514.1061L13521.9055,-3514.0986L13521.8851,-3514.0912L13521.8596,-3514.0858L13521.8416,-3514.0842L13521.824,-3514.0788L13521.8074,-3514.0698L13521.7974,-3514.0612L13521.7936,-3514.0561L13521.7837,-3514.0452L13521.7804,-3514.0308L13521.7884,-3514.014L13521.7974,-3513.9949L13521.8017,-3513.9719L13521.8029,-3513.9555L13521.8019,-3513.9407L13521.8019,-3513.9362L13521.8019,-3513.9243L13521.7996,-3513.906L13521.7939,-3513.8923L13521.7939,-3513.8861L13521.8005,-3513.8767L13521.8062,-3513.8669L13521.8224,-3513.8537L13521.829,-3513.8428L13521.8592,-3513.7983L13521.8663,-3513.7761L13521.8715,-3513.7609L13521.8805,-3513.7457L13521.89,-3513.723L13521.9014,-3513.7031L13521.9064,-3513.6918L13521.9154,-3513.6786L13521.9244,-3513.6622L13521.9406,-3513.6392L13521.9515,-3513.6228L13521.9596,-3513.6052L13521.9682,-3513.5957L13521.9705,-3513.5931L13521.9558,-3513.5806L13521.9432,-3513.5698L13521.9199,-3513.553L13521.8995,-3513.5428L13521.8848,-3513.5319L13521.8739,-3513.519L13521.8691,-3513.5069L13521.8578,-3513.4864L13521.8539,-3513.4793L13521.8383,-3513.4636L13521.8264,-3513.4558L13521.806,-3513.45L13521.7891,-3513.4453L13521.7739,-3513.4406L13521.7531,-3513.4371L13521.7393,-3513.432L13521.7331,-3513.4278L13521.7284,-3513.4227L13521.7141,-3513.4086L13521.7027,-3513.3938L13521.6837,-3513.3872L13521.6695,-3513.3841L13521.6667,-3513.3826L13521.6586,-3513.3782L13521.6495,-3513.3708L13521.6434,-3513.3587L13521.6391,-3513.3524L13521.632,-3513.3427L13521.6184,-3513.3341L13521.6167,-3513.3333L13521.5985,-3513.3251L13521.5828,-3513.3185L13521.5757,-3513.3099L13521.5653,-3513.3002L13521.5581,-3513.2916L13521.5515,-3513.2865L13521.5415,-3513.2764L13521.5249,-3513.2655L13521.5049,-3513.2596L13521.494,-3513.2561L13521.4831,-3513.2506L13521.476,-3513.2409L13521.4675,-3513.2179L13521.4594,-3513.205L13521.4504,-3513.1855L13521.4454,-3513.1699L13521.434,-3513.1602L13521.4254,-3513.1578L13521.3908,-3513.166L13521.3727,-3513.1695L13521.3504,-3513.1691L13521.3295,-3513.1617L13521.3039,-3513.1539L13521.2887,-3513.1465L13521.2811,-3513.1422L13521.2687,-3513.1391L13521.2488,-3513.1352L13521.2263,-3513.136L13521.2039,-3513.1391L13521.1935,-3513.1422L13521.1778,-3513.1531L13521.1669,-3513.1606L13521.1593,-3513.1644L13521.1374,-3513.1644L13521.1237,-3513.152L13521.1137,-3513.1395L13521.1047,-3513.127L13521.0929,-3513.1215L13521.0772,-3513.1188L13521.0629,-3513.1141L13521.0506,-3513.1063L13521.0349,-3513.097L13521.0216,-3513.088L13521.0126,-3513.0786L13521.0103,-3513.0751L13521.0017,-3513.0615L13520.9917,-3513.0525L13520.9803,-3513.0439L13520.9642,-3513.0361L13520.949,-3513.0268L13520.9297,-3513.0186L13520.9164,-3513.0104L13520.9065,-3512.994L13520.8994,-3512.9776L13520.8913,-3512.9596L13520.8889,-3512.9468L13520.8889,-3512.9316L13520.8899,-3512.9179L13520.8875,-3512.9035L13520.8823,-3512.8949L13520.8756,-3512.8855L13520.8343,-3512.891L13520.8333,-3512.8911L13520.8115,-3512.8941L13520.7973,-3512.8945L13520.7811,-3512.8937L13520.7588,-3512.8875L13520.7389,-3512.8844L13520.7111,-3512.8816L13520.6874,-3512.8812L13520.6703,-3512.8816L13520.6527,-3512.8828L13520.6318,-3512.8859L13520.6086,-3512.8863L13520.5801,-3512.8832L13520.563,-3512.8828L13520.5497,-3512.882L13520.5283,-3512.8797L13520.4742,-3512.873L13520.4583,-3512.8668L13520.4393,-3512.8609L13520.4227,-3512.8598L13520.3823,-3512.8586L13520.3586,-3512.8543L13520.3443,-3512.8465L13520.3287,-3512.8411L13520.3087,-3512.8375L13520.2866,-3512.8333L13520.2515,-3512.8153L13520.2349,-3512.8087L13520.2187,-3512.8032L13520.1888,-3512.7931L13520.1471,-3512.7833L13520.1328,-3512.781L13520.1072,-3512.7802L13520.0836,-3512.7874L13520.0791,-3512.7888L13520.0136,-3512.8094L13520,-3512.8143L13519.9849,-3512.8196L13519.9659,-3512.8239L13519.9346,-3512.8348L13519.926,-3512.8379L13519.9161,-3512.8446L13519.898,-3512.8648L13519.8907,-3512.8746L13519.8698,-3512.8812L13519.846,-3512.8812L13519.8332,-3512.8797L13519.8209,-3512.8699L13519.7995,-3512.8508L13519.7891,-3512.8407L13519.7686,-3512.8289L13519.7473,-3512.8188L13519.7278,-3512.8161L13519.7121,-3512.8173L13519.6927,-3512.8204L13519.6732,-3512.8243L13519.6523,-3512.8313L13519.6329,-3512.8352L13519.6186,-3512.8348L13519.5816,-3512.8262L13519.5566,-3512.8231L13519.5357,-3512.8239L13519.4859,-3512.8254L13519.4565,-3512.8282L13519.4408,-3512.8282L13519.4227,-3512.8305L13519.4047,-3512.836L13519.3781,-3512.8473L13519.3558,-3512.8586L13519.3382,-3512.8644L13519.3209,-3512.8746L13519.3184,-3512.8761L13519.3066,-3512.8836L13519.2824,-3512.8972L13519.2682,-3512.9038L13519.253,-3512.9089L13519.2383,-3512.9124L13519.2169,-3512.9155L13519.1975,-3512.9191L13519.1804,-3512.9229L13519.1667,-3512.921L13519.159,-3512.9198L13519.1381,-3512.912L13519.1215,-3512.9031L13519.1008,-3512.8945L13519.0857,-3512.8866L13519.0854,-3512.8865L13519.07,-3512.8785L13519.0315,-3512.8664L13519.0154,-3512.8598L13518.9964,-3512.8535L13518.9826,-3512.8445L13518.9684,-3512.8375L13518.9437,-3512.827L13518.9104,-3512.8227L13518.9002,-3512.8164L13518.8779,-3512.8106L13518.8575,-3512.8141L13518.8304,-3512.8172L13518.7963,-3512.827L13518.7773,-3512.8309L13518.7592,-3512.8375L13518.7464,-3512.8461L13518.7198,-3512.8703L13518.7039,-3512.8758L13518.6745,-3512.8902L13518.6559,-3512.8956L13518.6327,-3512.8953L13518.6118,-3512.8902L13518.5937,-3512.8855L13518.5472,-3512.8828L13518.5263,-3512.8761L13518.5059,-3512.8636L13518.4917,-3512.8551L13518.4693,-3512.8461L13518.4389,-3512.8387L13518.4188,-3512.8348L13518.395,-3512.8332L13518.3741,-3512.827L13518.3518,-3512.8172L13518.3395,-3512.8157L13518.3333,-3512.8157L13518.3162,-3512.8157L13518.3015,-3512.8164L13518.2802,-3512.8028L13518.2683,-3512.7926L13518.2256,-3512.7806L13518.2115,-3512.7767L13518.193,-3512.7693L13518.1717,-3512.7657L13518.1555,-3512.7618L13518.1389,-3512.7587L13518.1227,-3512.7533L13518.1076,-3512.7462L13518.0938,-3512.7419L13518.0757,-3512.7353L13518.0754,-3512.7353L13518.0544,-3512.7357L13518.0392,-3512.74L13518.0069,-3512.7498L13517.9886,-3512.7486L13517.9777,-3512.7462L13517.9663,-3512.7416L13517.9506,-3512.738L13517.9269,-3512.7361L13517.8709,-3512.7451L13517.8519,-3512.7454L13517.8343,-3512.7482L13517.8082,-3512.7501L13517.7887,-3512.7525L13517.7716,-3512.7533L13517.7564,-3512.7521L13517.7384,-3512.747L13517.7268,-3512.7408L13517.704,-3512.7369L13517.6807,-3512.7353L13517.665,-3512.7361L13517.6632,-3512.7357L13517.6546,-3512.7338L13517.6446,-3512.7232L13517.6346,-3512.7084L13517.6266,-3512.6897L13517.609,-3512.6834L13517.5872,-3512.6943L13517.5781,-3512.6984Z"/>
</g>
</svg>
