<?xml version="1.0" encoding="UTF-8"?>
<svg  xmlns="http://www.w3.org/2000/svg" xmlns:xlink="http://www.w3.org/1999/xlink" xmlns:go="http://purl.org/svgmap/profile" property="geometry,N03_001,N03_002,N03_003,N03_004,N03_005,N03_007" viewBox="13510.986328125 -3407.958984375 2.197265625 2.197265625" go:dataArea="13510.986328125 -3407.958984375 2.197265625 2.197265625" >
<metadata>
 <rdf:RDF xmlns:rdf="http://www.w3.org/1999/02/22-rdf-syntax-ns#" xmlns:crs="http://opengis.org/xmldtds/transformations.dtd" xmlns:svg="http://www.w3.org/svg" >
  <rdf:Description>
   <crs:CoordinateReferenceSystem rdf:resource="http://purl.org/crs/84" svg:transform="matrix(100.0,0.0,0.0,-100.0,0.0,0.0)" />
  </rdf:Description>
 </rdf:RDF>
</metadata>
<globalCoordinateSystem srsName="http://purl.org/crs/84" transform="matrix(100.0,0.0,0.0,-100.0,0.0,0.0)" />
<defs>
 <g id="p0" >
  <circle cx="0.0" cy="0.0" r="3" stroke="green" stroke-width="2.0" vector-effect="non-scaling-stroke" />
 </g>
</defs>
<g fill="#0000ff" fill-rule="evenodd" opacity="0.5" >
<path content="和歌山県,,,有田市,,30204" xlink:title="和歌山県" d="M13513.1836,-3407.959L13513.1836,-3406.5336L13513.1823,-3406.5333L13513.18,-3406.5319L13513.1754,-3406.5309L13513.1747,-3406.5308L13513.1746,-3406.5307L13513.1738,-3406.5295L13513.1741,-3406.5281L13513.1741,-3406.526L13513.1731,-3406.5254L13513.1706,-3406.5253L13513.1674,-3406.5258L13513.1671,-3406.5258L13513.1679,-3406.5179L13513.1679,-3406.5177L13513.1792,-3406.5161L13513.1801,-3406.5154L13513.1807,-3406.5144L13513.1795,-3406.513L13513.1749,-3406.5115L13513.1654,-3406.512L13513.1638,-3406.5131L13513.1643,-3406.5151L13513.1641,-3406.5164L13513.1619,-3406.5306L13513.1597,-3406.5336L13513.1583,-3406.533L13513.1583,-3406.5214L13513.1538,-3406.5211L13513.151,-3406.5228L13513.151,-3406.5248L13513.1548,-3406.5254L13513.1548,-3406.5288L13513.1519,-3406.5283L13513.1519,-3406.5269L13513.1503,-3406.5261L13513.1499,-3406.525L13513.1492,-3406.5231L13513.1473,-3406.5228L13513.1455,-3406.5223L13513.1454,-3406.5213L13513.1442,-3406.5193L13513.1452,-3406.5178L13513.1464,-3406.5147L13513.1485,-3406.5136L13513.1489,-3406.5114L13513.1473,-3406.5063L13513.1435,-3406.5035L13513.1384,-3406.5006L13513.1333,-3406.5001L13513.1315,-3406.4992L13513.1307,-3406.4983L13513.1278,-3406.4963L13513.1241,-3406.4951L13513.1216,-3406.4943L13513.1209,-3406.4931L13513.1175,-3406.4927L13513.1133,-3406.4933L13513.1126,-3406.4945L13513.1134,-3406.4969L13513.114,-3406.4983L13513.1179,-3406.5019L13513.1196,-3406.504L13513.1183,-3406.5041L13513.1065,-3406.5011L13513.0948,-3406.4992L13513.092,-3406.4991L13513.0916,-3406.4998L13513.0978,-3406.5072L13513.1021,-3406.5104L13513.1023,-3406.5112L13513.1011,-3406.5124L13513.095,-3406.5156L13513.0911,-3406.517L13513.0892,-3406.5171L13513.0888,-3406.5171L13513.0873,-3406.5159L13513.0866,-3406.5129L13513.0863,-3406.5074L13513.0859,-3406.5045L13513.0838,-3406.5023L13513.082,-3406.5009L13513.0822,-3406.4997L13513.0812,-3406.4975L13513.0755,-3406.4945L13513.0733,-3406.4944L13513.0712,-3406.4951L13513.0697,-3406.4964L13513.0675,-3406.4949L13513.0652,-3406.4934L13513.063,-3406.4938L13513.0601,-3406.4949L13513.0556,-3406.4957L13513.055,-3406.4976L13513.0557,-3406.499L13513.0585,-3406.501L13513.063,-3406.5022L13513.0698,-3406.5029L13513.0705,-3406.5036L13513.0717,-3406.5053L13513.0779,-3406.5081L13513.0782,-3406.5098L13513.0771,-3406.5111L13513.0748,-3406.512L13513.0724,-3406.5109L13513.0696,-3406.5089L13513.0673,-3406.5075L13513.065,-3406.5075L13513.0587,-3406.5073L13513.0561,-3406.5073L13513.0531,-3406.5073L13513.0502,-3406.505L13513.0444,-3406.5023L13513.0418,-3406.5021L13513.0373,-3406.5028L13513.036,-3406.5035L13513.0352,-3406.504L13513.0333,-3406.5051L13513.0313,-3406.5051L13513.0296,-3406.5036L13513.0294,-3406.5028L13513.0289,-3406.4999L13513.0276,-3406.4977L13513.0262,-3406.4973L13513.0244,-3406.4969L13513.0227,-3406.4973L13513.0218,-3406.4983L13513.0239,-3406.5024L13513.0251,-3406.5034L13513.0247,-3406.5036L13513.0229,-3406.5035L13513.0215,-3406.5042L13513.0146,-3406.504L13513.0125,-3406.5038L13513.0104,-3406.5049L13513.0077,-3406.507L13512.9971,-3406.5149L13512.9946,-3406.5167L13512.9887,-3406.5145L13512.9864,-3406.5134L13512.9853,-3406.5126L13512.9834,-3406.5119L13512.9813,-3406.5127L13512.9813,-3406.5139L13512.9817,-3406.5154L13512.9797,-3406.5156L13512.9776,-3406.5139L13512.9764,-3406.5125L13512.974,-3406.5098L13512.9655,-3406.5055L13512.9624,-3406.5053L13512.96,-3406.5057L13512.9563,-3406.5068L13512.9529,-3406.5071L13512.9498,-3406.507L13512.9433,-3406.5062L13512.9378,-3406.5066L13512.935,-3406.5069L13512.9315,-3406.5079L13512.93,-3406.5091L13512.9256,-3406.5083L13512.9256,-3406.5059L13512.9248,-3406.5053L13512.9239,-3406.505L13512.9231,-3406.5055L13512.9225,-3406.5071L13512.9225,-3406.5086L13512.9217,-3406.5088L13512.9201,-3406.5083L13512.9197,-3406.5068L13512.9178,-3406.5061L13512.9159,-3406.5053L13512.9117,-3406.5057L13512.9105,-3406.5054L13512.9024,-3406.5069L13512.8986,-3406.5065L13512.8956,-3406.507L13512.8912,-3406.5083L13512.8853,-3406.5118L13512.8843,-3406.5118L13512.8797,-3406.5107L13512.8773,-3406.5096L13512.875,-3406.5093L13512.8729,-3406.5094L13512.8725,-3406.5094L13512.8711,-3406.5085L13512.8671,-3406.5012L13512.8655,-3406.5001L13512.8607,-3406.4991L13512.8569,-3406.499L13512.8534,-3406.4997L13512.8469,-3406.4997L13512.8394,-3406.4987L13512.8302,-3406.4988L13512.8287,-3406.4991L13512.8279,-3406.4997L13512.8274,-3406.5014L13512.8269,-3406.5027L13512.8263,-3406.5021L13512.8246,-3406.5015L13512.8223,-3406.5009L13512.8213,-3406.5005L13512.8183,-3406.4999L13512.8172,-3406.5005L13512.8161,-3406.5023L13512.8148,-3406.5027L13512.8147,-3406.5045L13512.8128,-3406.5044L13512.8103,-3406.5043L13512.8096,-3406.5036L13512.8078,-3406.5034L13512.8071,-3406.5041L13512.8059,-3406.5056L13512.8045,-3406.5057L13512.8024,-3406.5051L13512.802,-3406.5055L13512.8018,-3406.5066L13512.8013,-3406.5071L13512.7953,-3406.5076L13512.7937,-3406.5085L13512.793,-3406.51L13512.7929,-3406.5111L13512.7926,-3406.5116L13512.7911,-3406.5115L13512.7889,-3406.5105L13512.7876,-3406.5101L13512.7863,-3406.5105L13512.7852,-3406.5111L13512.7841,-3406.5112L13512.782,-3406.51L13512.7803,-3406.5101L13512.7796,-3406.5112L13512.7796,-3406.5127L13512.7787,-3406.5127L13512.7777,-3406.5136L13512.7781,-3406.5153L13512.7801,-3406.5153L13512.7807,-3406.5158L13512.783,-3406.5157L13512.7847,-3406.5152L13512.7869,-3406.5161L13512.7882,-3406.5176L13512.7871,-3406.5186L13512.786,-3406.5219L13512.7865,-3406.5237L13512.7882,-3406.5268L13512.7875,-3406.5286L13512.787,-3406.5288L13512.7825,-3406.5304L13512.7782,-3406.5316L13512.7754,-3406.5324L13512.7745,-3406.5338L13512.776,-3406.5345L13512.7808,-3406.5343L13512.781,-3406.5352L13512.7825,-3406.5363L13512.7829,-3406.5383L13512.7835,-3406.5399L13512.782,-3406.5414L13512.7812,-3406.5423L13512.7785,-3406.5454L13512.776,-3406.5472L13512.7742,-3406.5474L13512.7737,-3406.5466L13512.7731,-3406.5455L13512.771,-3406.5453L13512.7693,-3406.5466L13512.7674,-3406.5484L13512.7669,-3406.5478L13512.7659,-3406.5468L13512.7641,-3406.5471L13512.7629,-3406.5487L13512.7621,-3406.5499L13512.7608,-3406.551L13512.7587,-3406.5508L13512.7565,-3406.55L13512.7547,-3406.5475L13512.7533,-3406.5465L13512.752,-3406.5457L13512.7506,-3406.5453L13512.7484,-3406.5448L13512.7476,-3406.544L13512.7462,-3406.5432L13512.7431,-3406.5429L13512.7371,-3406.5431L13512.735,-3406.5432L13512.7313,-3406.5435L13512.7299,-3406.5428L13512.7273,-3406.5401L13512.7237,-3406.539L13512.7206,-3406.5391L13512.7174,-3406.5413L13512.7171,-3406.5423L13512.7174,-3406.5437L13512.7182,-3406.546L13512.7182,-3406.5468L13512.7167,-3406.5473L13512.7128,-3406.5475L13512.7111,-3406.5477L13512.7084,-3406.5475L13512.7063,-3406.5469L13512.7051,-3406.5445L13512.7048,-3406.5415L13512.7011,-3406.5365L13512.6993,-3406.5345L13512.6967,-3406.5337L13512.6876,-3406.5306L13512.6867,-3406.5311L13512.6859,-3406.532L13512.6844,-3406.5326L13512.682,-3406.534L13512.6809,-3406.5357L13512.6804,-3406.5361L13512.6785,-3406.5361L13512.676,-3406.535L13512.6751,-3406.5345L13512.6745,-3406.5337L13512.6739,-3406.5341L13512.6731,-3406.5341L13512.6716,-3406.5336L13512.6697,-3406.5321L13512.6683,-3406.5314L13512.6656,-3406.5302L13512.6645,-3406.5284L13512.6586,-3406.5271L13512.6564,-3406.527L13512.6548,-3406.5276L13512.6536,-3406.5284L13512.653,-3406.5296L13512.6519,-3406.5297L13512.6498,-3406.5295L13512.647,-3406.529L13512.641,-3406.5252L13512.6363,-3406.5232L13512.6349,-3406.5227L13512.6338,-3406.5228L13512.6319,-3406.5221L13512.6312,-3406.5211L13512.6298,-3406.5206L13512.6276,-3406.5199L13512.6265,-3406.5187L13512.6239,-3406.5179L13512.6204,-3406.5156L13512.619,-3406.5143L13512.6177,-3406.5125L13512.6165,-3406.5123L13512.6151,-3406.5134L13512.6135,-3406.5129L13512.6117,-3406.5117L13512.6121,-3406.5107L13512.6134,-3406.5097L13512.6106,-3406.5086L13512.6073,-3406.5068L13512.5986,-3406.5006L13512.596,-3406.4989L13512.5955,-3406.497L13512.5993,-3406.4933L13512.6008,-3406.4906L13512.6006,-3406.4873L13512.5993,-3406.484L13512.6048,-3406.4844L13512.6075,-3406.483L13512.6094,-3406.482L13512.61,-3406.4801L13512.6094,-3406.4789L13512.607,-3406.4778L13512.6047,-3406.4776L13512.6028,-3406.4772L13512.6009,-3406.4768L13512.5996,-3406.4771L13512.599,-3406.4785L13512.5999,-3406.4787L13512.6013,-3406.4798L13512.6004,-3406.4812L13512.5995,-3406.4817L13512.5987,-3406.4808L13512.5975,-3406.4807L13512.5973,-3406.4811L13512.5976,-3406.4822L13512.5973,-3406.4825L13512.5956,-3406.4821L13512.5947,-3406.4811L13512.594,-3406.4786L13512.5929,-3406.4781L13512.5917,-3406.4785L13512.5901,-3406.4783L13512.5906,-3406.4772L13512.5904,-3406.475L13512.5877,-3406.4739L13512.5829,-3406.4725L13512.5778,-3406.4721L13512.5761,-3406.4688L13512.5759,-3406.4677L13512.5757,-3406.466L13512.5746,-3406.4648L13512.5723,-3406.4632L13512.57,-3406.4628L13512.5671,-3406.4633L13512.5648,-3406.467L13512.5636,-3406.4681L13512.5617,-3406.4679L13512.5613,-3406.4682L13512.5596,-3406.469L13512.558,-3406.4687L13512.5566,-3406.4686L13512.5562,-3406.4695L13512.5551,-3406.4707L13512.5522,-3406.4717L13512.5511,-3406.4729L13512.5503,-3406.4746L13512.5494,-3406.4745L13512.5483,-3406.4732L13512.5466,-3406.4724L13512.5455,-3406.4723L13512.5441,-3406.4731L13512.5449,-3406.4738L13512.5462,-3406.4752L13512.5458,-3406.4764L13512.5454,-3406.4771L13512.5447,-3406.4771L13512.5425,-3406.4763L13512.5406,-3406.4755L13512.5395,-3406.475L13512.5379,-3406.4746L13512.5375,-3406.4732L13512.5382,-3406.4713L13512.5351,-3406.4691L13512.5333,-3406.4682L13512.5307,-3406.4684L13512.5286,-3406.4706L13512.5277,-3406.4712L13512.5263,-3406.4709L13512.5243,-3406.4699L13512.5205,-3406.4686L13512.5177,-3406.4682L13512.5131,-3406.4673L13512.5124,-3406.4672L13512.5114,-3406.4669L13512.5093,-3406.4662L13512.508,-3406.4659L13512.5067,-3406.4661L13512.5059,-3406.4673L13512.5039,-3406.4676L13512.5024,-3406.4679L13512.5,-3406.4698L13512.4955,-3406.4732L13512.492,-3406.4778L13512.4913,-3406.4789L13512.4904,-3406.4815L13512.4905,-3406.4826L13512.4924,-3406.4853L13512.4947,-3406.4871L13512.4958,-3406.4886L13512.5,-3406.4898L13512.5,-3406.4898L13512.5057,-3406.492L13512.5068,-3406.4926L13512.5066,-3406.4939L13512.5046,-3406.4964L13512.504,-3406.4965L13512.5022,-3406.496L13512.5012,-3406.497L13512.5003,-3406.4968L13512.5,-3406.4969L13512.4995,-3406.4972L13512.4988,-3406.4979L13512.4983,-3406.4985L13512.4975,-3406.4991L13512.4978,-3406.5002L13512.4972,-3406.5011L13512.4957,-3406.5013L13512.4948,-3406.502L13512.4951,-3406.5026L13512.4961,-3406.5036L13512.4946,-3406.505L13512.494,-3406.5075L13512.4918,-3406.5095L13512.4906,-3406.511L13512.4903,-3406.512L13512.4886,-3406.5134L13512.4874,-3406.5152L13512.4869,-3406.5157L13512.4858,-3406.5158L13512.485,-3406.5164L13512.4842,-3406.5174L13512.4811,-3406.5186L13512.4782,-3406.5202L13512.4755,-3406.521L13512.4731,-3406.5233L13512.4661,-3406.5254L13512.4622,-3406.5261L13512.4562,-3406.5266L13512.4526,-3406.527L13512.4501,-3406.5278L13512.4488,-3406.5286L13512.4476,-3406.5295L13512.4418,-3406.5299L13512.4403,-3406.5297L13512.4387,-3406.5295L13512.4367,-3406.5265L13512.435,-3406.5254L13512.4334,-3406.5242L13512.4304,-3406.5229L13512.4246,-3406.5213L13512.4207,-3406.5206L13512.4157,-3406.5191L13512.4152,-3406.517L13512.4176,-3406.5137L13512.4186,-3406.5079L13512.418,-3406.5065L13512.4165,-3406.5058L13512.4161,-3406.5042L13512.4183,-3406.5029L13512.4178,-3406.5015L13512.4176,-3406.4999L13512.4159,-3406.499L13512.4107,-3406.4993L13512.4086,-3406.499L13512.4052,-3406.4968L13512.4043,-3406.4954L13512.4043,-3406.4939L13512.4023,-3406.4913L13512.4022,-3406.4896L13512.3954,-3406.4826L13512.3926,-3406.4809L13512.3903,-3406.4802L13512.3879,-3406.4803L13512.3866,-3406.4803L13512.3844,-3406.4811L13512.383,-3406.4812L13512.3824,-3406.4806L13512.3824,-3406.4795L13512.382,-3406.478L13512.3821,-3406.4769L13512.3834,-3406.4743L13512.3857,-3406.4709L13512.3846,-3406.4698L13512.3813,-3406.4681L13512.3778,-3406.4665L13512.3766,-3406.4664L13512.3753,-3406.4674L13512.3742,-3406.4696L13512.3772,-3406.4727L13512.3799,-3406.4738L13512.3793,-3406.4746L13512.3777,-3406.4762L13512.3771,-3406.4766L13512.3763,-3406.4771L13512.3717,-3406.4778L13512.3702,-3406.4778L13512.3685,-3406.4768L13512.3665,-3406.4758L13512.3647,-3406.476L13512.3628,-3406.4756L13512.3615,-3406.4731L13512.3609,-3406.4721L13512.3611,-3406.4695L13512.3592,-3406.4684L13512.355,-3406.4674L13512.3507,-3406.4673L13512.347,-3406.468L13512.3437,-3406.4683L13512.3422,-3406.4694L13512.3424,-3406.4712L13512.3359,-3406.4736L13512.3337,-3406.4754L13512.3306,-3406.4825L13512.3297,-3406.4849L13512.3303,-3406.4878L13512.3283,-3406.4953L13512.3283,-3406.4983L13512.3285,-3406.4998L13512.3301,-3406.501L13512.3309,-3406.5023L13512.3313,-3406.5029L13512.3323,-3406.5044L13512.3337,-3406.5069L13512.3328,-3406.5073L13512.332,-3406.5065L13512.3317,-3406.5053L13512.3303,-3406.5045L13512.3288,-3406.5036L13512.3273,-3406.5029L13512.3253,-3406.503L13512.324,-3406.5036L13512.3226,-3406.5045L13512.3214,-3406.5102L13512.3225,-3406.516L13512.3239,-3406.5184L13512.3236,-3406.5206L13512.3241,-3406.5224L13512.3258,-3406.5244L13512.3261,-3406.5276L13512.3266,-3406.5282L13512.328,-3406.5286L13512.3304,-3406.529L13512.3312,-3406.5309L13512.3334,-3406.5358L13512.3367,-3406.5386L13512.3402,-3406.5401L13512.3456,-3406.5411L13512.3582,-3406.5402L13512.3619,-3406.5395L13512.3634,-3406.5388L13512.3665,-3406.536L13512.3706,-3406.5344L13512.3723,-3406.5351L13512.3743,-3406.537L13512.3745,-3406.5385L13512.3732,-3406.5394L13512.3709,-3406.5396L13512.3692,-3406.5399L13512.3681,-3406.5408L13512.3677,-3406.5424L13512.3695,-3406.5431L13512.371,-3406.5432L13512.3728,-3406.5424L13512.3749,-3406.5429L13512.3754,-3406.5435L13512.3717,-3406.5455L13512.3713,-3406.5469L13512.3728,-3406.5482L13512.3727,-3406.5494L13512.3741,-3406.5509L13512.376,-3406.5517L13512.3803,-3406.5542L13512.3815,-3406.5558L13512.383,-3406.5589L13512.383,-3406.5614L13512.3831,-3406.563L13512.3837,-3406.5644L13512.3856,-3406.5659L13512.3867,-3406.5683L13512.387,-3406.5709L13512.387,-3406.5715L13512.3893,-3406.5718L13512.391,-3406.5728L13512.3916,-3406.5746L13512.3937,-3406.5768L13512.3936,-3406.578L13512.3916,-3406.5782L13512.3898,-3406.5791L13512.3871,-3406.5796L13512.3856,-3406.5795L13512.3835,-3406.5796L13512.3822,-3406.5794L13512.381,-3406.58L13512.3812,-3406.5819L13512.383,-3406.582L13512.3852,-3406.5833L13512.3859,-3406.5848L13512.385,-3406.5853L13512.3837,-3406.5858L13512.3846,-3406.5873L13512.3856,-3406.5902L13512.3851,-3406.5941L13512.3842,-3406.5945L13512.3826,-3406.5951L13512.3822,-3406.5963L13512.3815,-3406.5979L13512.3804,-3406.5994L13512.3807,-3406.6005L13512.3798,-3406.6017L13512.3779,-3406.6032L13512.3775,-3406.6046L13512.3766,-3406.606L13512.3763,-3406.6075L13512.3753,-3406.6089L13512.3744,-3406.61L13512.3738,-3406.6108L13512.3729,-3406.6126L13512.3713,-3406.6137L13512.3664,-3406.6177L13512.3654,-3406.6179L13512.3649,-3406.6176L13512.3636,-3406.6169L13512.3601,-3406.6192L13512.3589,-3406.6204L13512.3577,-3406.6218L13512.3577,-3406.6231L13512.3564,-3406.6242L13512.3533,-3406.6238L13512.3514,-3406.6239L13512.3507,-3406.624L13512.3503,-3406.6231L13512.3498,-3406.6221L13512.3483,-3406.6206L13512.3472,-3406.6207L13512.3439,-3406.6219L13512.3445,-3406.6234L13512.3436,-3406.6236L13512.3437,-3406.6248L13512.3441,-3406.6264L13512.3456,-3406.6268L13512.3464,-3406.628L13512.3453,-3406.6288L13512.3475,-3406.6302L13512.3475,-3406.6306L13512.3478,-3406.6311L13512.3485,-3406.6319L13512.3492,-3406.6328L13512.3541,-3406.6352L13512.3543,-3406.6355L13512.3529,-3406.6362L13512.3517,-3406.6368L13512.3514,-3406.6375L13512.35,-3406.6392L13512.3495,-3406.6401L13512.3491,-3406.6411L13512.3484,-3406.6413L13512.3473,-3406.641L13512.3462,-3406.6408L13512.3445,-3406.6417L13512.3438,-3406.6426L13512.343,-3406.6436L13512.3394,-3406.6468L13512.3382,-3406.6476L13512.3372,-3406.6489L13512.3359,-3406.6507L13512.3332,-3406.6523L13512.3274,-3406.6557L13512.3262,-3406.657L13512.3217,-3406.6596L13512.3185,-3406.6608L13512.3172,-3406.6612L13512.3162,-3406.6617L13512.3154,-3406.6633L13512.3151,-3406.664L13512.3145,-3406.6645L13512.3132,-3406.6648L13512.3117,-3406.6652L13512.3108,-3406.6657L13512.3105,-3406.6667L13512.3105,-3406.6669L13512.3095,-3406.6672L13512.3074,-3406.6682L13512.3069,-3406.6685L13512.3069,-3406.6697L13512.306,-3406.6704L13512.304,-3406.6704L13512.3038,-3406.6711L13512.3032,-3406.6726L13512.3012,-3406.6737L13512.2998,-3406.6748L13512.2983,-3406.6757L13512.2963,-3406.6764L13512.2964,-3406.6777L13512.2959,-3406.6785L13512.2949,-3406.6798L13512.2933,-3406.6809L13512.2918,-3406.6816L13512.2905,-3406.6823L13512.2893,-3406.6831L13512.289,-3406.6851L13512.2887,-3406.6857L13512.2881,-3406.6863L13512.286,-3406.687L13512.284,-3406.6875L13512.2831,-3406.6882L13512.2827,-3406.6895L13512.2814,-3406.6914L13512.2799,-3406.6921L13512.2791,-3406.6922L13512.2783,-3406.692L13512.2777,-3406.692L13512.2774,-3406.6927L13512.2771,-3406.694L13512.2766,-3406.695L13512.2758,-3406.6958L13512.2738,-3406.696L13512.2726,-3406.6966L13512.2695,-3406.6985L13512.2675,-3406.6998L13512.2659,-3406.702L13512.2654,-3406.7027L13512.2636,-3406.7028L13512.2616,-3406.7037L13512.2602,-3406.7047L13512.2588,-3406.7058L13512.2577,-3406.7069L13512.2572,-3406.708L13512.2563,-3406.7083L13512.2537,-3406.7103L13512.247,-3406.7171L13512.2455,-3406.7196L13512.2439,-3406.7222L13512.2429,-3406.7222L13512.2419,-3406.7226L13512.2418,-3406.7233L13512.2413,-3406.7233L13512.2393,-3406.7238L13512.2386,-3406.7245L13512.2381,-3406.7252L13512.2373,-3406.727L13512.2367,-3406.7272L13512.2359,-3406.7277L13512.236,-3406.7283L13512.2371,-3406.7286L13512.2367,-3406.7292L13512.2354,-3406.7291L13512.2338,-3406.7288L13512.2322,-3406.7291L13512.2291,-3406.7307L13512.229,-3406.7316L13512.2299,-3406.7325L13512.2313,-3406.7331L13512.2329,-3406.7329L13512.2341,-3406.7327L13512.235,-3406.7336L13512.2344,-3406.7348L13512.2331,-3406.7353L13512.2316,-3406.7348L13512.2294,-3406.7345L13512.2281,-3406.7345L13512.2264,-3406.7338L13512.2248,-3406.7334L13512.2212,-3406.7333L13512.2142,-3406.7333L13512.2114,-3406.7334L13512.2055,-3406.734L13512.2029,-3406.7348L13512.2019,-3406.7353L13512.2018,-3406.736L13512.2029,-3406.7364L13512.2034,-3406.7371L13512.203,-3406.7373L13512.199,-3406.7383L13512.1964,-3406.7388L13512.1952,-3406.7394L13512.1937,-3406.7403L13512.1917,-3406.7409L13512.1891,-3406.7414L13512.1867,-3406.7426L13512.1854,-3406.743L13512.184,-3406.7431L13512.183,-3406.7428L13512.1815,-3406.7424L13512.1799,-3406.7423L13512.1786,-3406.7426L13512.1767,-3406.7414L13512.1723,-3406.7407L13512.1701,-3406.7406L13512.1686,-3406.7409L13512.1673,-3406.7417L13512.1658,-3406.7441L13512.167,-3406.7448L13512.1673,-3406.7453L13512.1675,-3406.746L13512.1674,-3406.7464L13512.1671,-3406.7468L13512.1662,-3406.7469L13512.1641,-3406.7466L13512.1633,-3406.746L13512.1617,-3406.7455L13512.1595,-3406.7465L13512.1592,-3406.7473L13512.1606,-3406.748L13512.1604,-3406.7484L13512.1605,-3406.7494L13512.1606,-3406.75L13512.1599,-3406.7507L13512.1595,-3406.752L13512.1599,-3406.753L13512.1569,-3406.7545L13512.1563,-3406.7553L13512.1555,-3406.7563L13512.1548,-3406.7574L13512.1539,-3406.7585L13512.153,-3406.7589L13512.1512,-3406.7592L13512.1462,-3406.7596L13512.1401,-3406.7603L13512.1383,-3406.7607L13512.1352,-3406.7615L13512.1297,-3406.762L13512.1248,-3406.7642L13512.1232,-3406.7651L13512.1234,-3406.7662L13512.1244,-3406.7672L13512.1245,-3406.7677L13512.1234,-3406.7679L13512.1213,-3406.7682L13512.1197,-3406.7687L13512.1186,-3406.7694L13512.1181,-3406.7703L13512.1164,-3406.7713L13512.1154,-3406.7714L13512.1128,-3406.7719L13512.1102,-3406.7725L13512.1068,-3406.7726L13512.1029,-3406.7719L13512.1021,-3406.7719L13512.101,-3406.7726L13512.0993,-3406.7726L13512.0949,-3406.7724L13512.0936,-3406.7723L13512.0926,-3406.7725L13512.0908,-3406.7732L13512.0892,-3406.7731L13512.0866,-3406.7726L13512.0853,-3406.7725L13512.0846,-3406.7728L13512.0836,-3406.7734L13512.0821,-3406.7735L13512.08,-3406.7732L13512.0742,-3406.7737L13512.0736,-3406.7735L13512.0724,-3406.7732L13512.0715,-3406.7734L13512.0707,-3406.7746L13512.07,-3406.7749L13512.0683,-3406.7753L13512.0674,-3406.7751L13512.0659,-3406.7744L13512.0649,-3406.7749L13512.0633,-3406.7762L13512.0619,-3406.7765L13512.0604,-3406.7759L13512.0566,-3406.7753L13512.0542,-3406.7763L13512.0524,-3406.7766L13512.0498,-3406.7763L13512.0484,-3406.7759L13512.0464,-3406.7757L13512.0454,-3406.776L13512.0429,-3406.776L13512.0352,-3406.7751L13512.0318,-3406.7744L13512.0259,-3406.7744L13512.0246,-3406.774L13512.0231,-3406.7733L13512.0218,-3406.7734L13512.0207,-3406.7737L13512.0198,-3406.7737L13512.0189,-3406.7732L13512.0184,-3406.7725L13512.0174,-3406.7718L13512.0155,-3406.7716L13512.0126,-3406.771L13512.0114,-3406.77L13512.01,-3406.7695L13512.0086,-3406.7688L13512.0071,-3406.7685L13512.0055,-3406.7676L13512.0056,-3406.7661L13512.004,-3406.7649L13512.0026,-3406.7637L13512.0024,-3406.7617L13512.0053,-3406.7593L13512.0107,-3406.7536L13512.0101,-3406.7524L13512.0083,-3406.7523L13512.0072,-3406.7507L13512.0061,-3406.7496L13512.0043,-3406.7496L13512.0035,-3406.7491L13512.0039,-3406.7481L13512.005,-3406.7464L13512.0077,-3406.7455L13512.0096,-3406.7438L13512.0093,-3406.7426L13512.0067,-3406.7429L13512.0032,-3406.7444L13512.0022,-3406.7442L13512.0009,-3406.7437L13512.0009,-3406.7422L13512.0029,-3406.7409L13512.0019,-3406.7397L13511.9982,-3406.7412L13511.9982,-3406.742L13511.9989,-3406.743L13511.9979,-3406.7441L13511.995,-3406.744L13511.9926,-3406.7444L13511.9912,-3406.7452L13511.9896,-3406.7452L13511.9896,-3406.7442L13511.9913,-3406.7424L13511.9946,-3406.7389L13511.9943,-3406.736L13511.994,-3406.7353L13511.9931,-3406.7342L13511.9933,-3406.7308L13511.9908,-3406.7288L13511.9872,-3406.7291L13511.9842,-3406.729L13511.9834,-3406.7261L13511.9827,-3406.7247L13511.9803,-3406.7235L13511.9791,-3406.7222L13511.9756,-3406.7192L13511.9713,-3406.7181L13511.9671,-3406.7188L13511.9623,-3406.7199L13511.9604,-3406.7198L13511.9596,-3406.7198L13511.9588,-3406.7206L13511.9585,-3406.7211L13511.9579,-3406.7216L13511.9574,-3406.7219L13511.9555,-3406.7228L13511.9529,-3406.7234L13511.9482,-3406.7244L13511.9439,-3406.7262L13511.9385,-3406.7271L13511.9373,-3406.7276L13511.9371,-3406.7297L13511.9357,-3406.7315L13511.9342,-3406.7317L13511.9335,-3406.7303L13511.9324,-3406.73L13511.9302,-3406.7311L13511.9259,-3406.7307L13511.9242,-3406.7313L13511.924,-3406.7327L13511.9263,-3406.7346L13511.9303,-3406.7364L13511.9324,-3406.7377L13511.9319,-3406.7383L13511.9309,-3406.7386L13511.9282,-3406.7393L13511.9247,-3406.7389L13511.9231,-3406.7384L13511.9218,-3406.7389L13511.922,-3406.7444L13511.9171,-3406.7452L13511.9164,-3406.7454L13511.9082,-3406.7476L13511.9024,-3406.7486L13511.8913,-3406.7472L13511.8883,-3406.7468L13511.8866,-3406.7446L13511.8836,-3406.7439L13511.8798,-3406.7438L13511.8798,-3406.7425L13511.8782,-3406.7409L13511.8741,-3406.7397L13511.8726,-3406.7404L13511.8728,-3406.7429L13511.8727,-3406.7448L13511.872,-3406.7461L13511.8711,-3406.7477L13511.8707,-3406.7498L13511.8679,-3406.7512L13511.8649,-3406.7518L13511.863,-3406.751L13511.8623,-3406.749L13511.8612,-3406.7475L13511.8603,-3406.7472L13511.8583,-3406.7472L13511.8576,-3406.7466L13511.8585,-3406.746L13511.861,-3406.7445L13511.861,-3406.7425L13511.8597,-3406.7405L13511.8576,-3406.7401L13511.8522,-3406.7408L13511.8513,-3406.7413L13511.8506,-3406.7427L13511.8483,-3406.7421L13511.8474,-3406.7408L13511.8454,-3406.7396L13511.8431,-3406.7402L13511.8414,-3406.7412L13511.8418,-3406.7431L13511.8396,-3406.7442L13511.8354,-3406.745L13511.8354,-3406.7442L13511.8344,-3406.7425L13511.8323,-3406.742L13511.8317,-3406.7426L13511.832,-3406.7459L13511.8318,-3406.7463L13511.8248,-3406.7493L13511.823,-3406.7493L13511.8225,-3406.7488L13511.8215,-3406.7471L13511.8199,-3406.7474L13511.8161,-3406.7513L13511.8163,-3406.7517L13511.8165,-3406.7534L13511.8156,-3406.7535L13511.8133,-3406.7543L13511.8121,-3406.7537L13511.8092,-3406.7534L13511.8063,-3406.753L13511.8033,-3406.7542L13511.8027,-3406.7537L13511.8026,-3406.7536L13511.8002,-3406.7546L13511.7982,-3406.756L13511.8,-3406.7567L13511.8001,-3406.7578L13511.8,-3406.7592L13511.7972,-3406.7602L13511.7965,-3406.7611L13511.7959,-3406.7624L13511.794,-3406.7625L13511.7936,-3406.7616L13511.7929,-3406.7605L13511.7897,-3406.7612L13511.7871,-3406.7603L13511.7852,-3406.7572L13511.7836,-3406.7571L13511.7813,-3406.758L13511.7808,-3406.7592L13511.7816,-3406.7618L13511.785,-3406.7626L13511.7877,-3406.7638L13511.7884,-3406.7654L13511.789,-3406.7674L13511.788,-3406.7688L13511.7857,-3406.769L13511.7845,-3406.7682L13511.7829,-3406.7681L13511.7796,-3406.7693L13511.7777,-3406.7707L13511.7773,-3406.7728L13511.7777,-3406.7738L13511.7795,-3406.7738L13511.7814,-3406.7743L13511.7798,-3406.7767L13511.7792,-3406.778L13511.7776,-3406.7807L13511.7757,-3406.7831L13511.7722,-3406.7846L13511.7694,-3406.7848L13511.7688,-3406.7849L13511.7637,-3406.7857L13511.7639,-3406.7867L13511.7655,-3406.7876L13511.7675,-3406.7888L13511.7675,-3406.7899L13511.7659,-3406.792L13511.7624,-3406.794L13511.7519,-3406.7975L13511.7476,-3406.8004L13511.741,-3406.8003L13511.7383,-3406.8012L13511.7347,-3406.8024L13511.7318,-3406.804L13511.7284,-3406.8033L13511.7263,-3406.8026L13511.7264,-3406.8015L13511.7256,-3406.801L13511.7246,-3406.8012L13511.7241,-3406.8028L13511.7232,-3406.8024L13511.7228,-3406.8002L13511.7223,-3406.797L13511.7205,-3406.7938L13511.7191,-3406.7921L13511.7175,-3406.7924L13511.7165,-3406.7935L13511.7155,-3406.7937L13511.7122,-3406.7936L13511.709,-3406.795L13511.7052,-3406.7928L13511.7032,-3406.7921L13511.7008,-3406.7931L13511.6985,-3406.7928L13511.6979,-3406.7905L13511.7005,-3406.7876L13511.7052,-3406.7814L13511.7042,-3406.7799L13511.7034,-3406.7791L13511.7015,-3406.7791L13511.6985,-3406.7798L13511.6964,-3406.7806L13511.6955,-3406.7809L13511.6942,-3406.7813L13511.6937,-3406.7826L13511.6933,-3406.783L13511.6917,-3406.7828L13511.6915,-3406.7823L13511.6938,-3406.7804L13511.6939,-3406.7795L13511.6923,-3406.7795L13511.682,-3406.7798L13511.6814,-3406.7805L13511.6839,-3406.7824L13511.6836,-3406.7831L13511.682,-3406.7836L13511.6804,-3406.7849L13511.6804,-3406.7862L13511.6831,-3406.7883L13511.6874,-3406.7888L13511.6893,-3406.7894L13511.6871,-3406.7901L13511.6847,-3406.7914L13511.6846,-3406.7956L13511.6851,-3406.7965L13511.6862,-3406.7974L13511.6865,-3406.7976L13511.6882,-3406.7983L13511.6882,-3406.7989L13511.6876,-3406.8L13511.6834,-3406.8051L13511.6816,-3406.8056L13511.6749,-3406.8047L13511.6744,-3406.8055L13511.6745,-3406.8061L13511.6752,-3406.8065L13511.6754,-3406.8069L13511.6741,-3406.8075L13511.6713,-3406.808L13511.6667,-3406.8063L13511.6651,-3406.8057L13511.6601,-3406.8026L13511.6574,-3406.8028L13511.6571,-3406.804L13511.6585,-3406.8075L13511.6591,-3406.8088L13511.655,-3406.814L13511.6536,-3406.8138L13511.6514,-3406.8134L13511.6497,-3406.8131L13511.6492,-3406.814L13511.6494,-3406.8156L13511.651,-3406.8167L13511.6445,-3406.8229L13511.6418,-3406.8254L13511.639,-3406.8224L13511.6339,-3406.8197L13511.626,-3406.8154L13511.6217,-3406.8155L13511.6194,-3406.8165L13511.6194,-3406.8178L13511.618,-3406.8187L13511.6133,-3406.8195L13511.6097,-3406.8202L13511.6073,-3406.8199L13511.6041,-3406.8182L13511.6036,-3406.8175L13511.6028,-3406.816L13511.6021,-3406.8133L13511.6018,-3406.8112L13511.6009,-3406.8094L13511.5989,-3406.8103L13511.5981,-3406.8127L13511.5994,-3406.8134L13511.6006,-3406.8136L13511.6011,-3406.8146L13511.5995,-3406.8168L13511.5972,-3406.817L13511.595,-3406.8162L13511.5919,-3406.814L13511.5909,-3406.8134L13511.5911,-3406.811L13511.5909,-3406.8093L13511.5886,-3406.8098L13511.5886,-3406.8118L13511.5888,-3406.8131L13511.5869,-3406.8134L13511.5838,-3406.8124L13511.5798,-3406.8121L13511.5787,-3406.8119L13511.5768,-3406.811L13511.5757,-3406.8104L13511.5746,-3406.811L13511.5739,-3406.8126L13511.5728,-3406.8132L13511.5721,-3406.8147L13511.572,-3406.8162L13511.5711,-3406.8169L13511.5635,-3406.8176L13511.5615,-3406.8171L13511.5602,-3406.817L13511.5587,-3406.8165L13511.5584,-3406.8156L13511.557,-3406.8151L13511.5549,-3406.8154L13511.5541,-3406.8148L13511.5532,-3406.813L13511.5505,-3406.8129L13511.5476,-3406.8121L13511.5485,-3406.8109L13511.5472,-3406.8101L13511.5446,-3406.8109L13511.5429,-3406.8122L13511.5411,-3406.8111L13511.54,-3406.8101L13511.5385,-3406.8105L13511.5368,-3406.8129L13511.5359,-3406.813L13511.5346,-3406.8116L13511.5344,-3406.8105L13511.5345,-3406.8086L13511.533,-3406.808L13511.5314,-3406.8096L13511.5316,-3406.8109L13511.5323,-3406.8117L13511.5317,-3406.8122L13511.53,-3406.8122L13511.5281,-3406.8117L13511.5263,-3406.8123L13511.5242,-3406.8119L13511.5233,-3406.8125L13511.5235,-3406.8135L13511.5245,-3406.814L13511.5262,-3406.814L13511.5284,-3406.8146L13511.5286,-3406.8155L13511.5274,-3406.8164L13511.5249,-3406.817L13511.5227,-3406.8168L13511.5213,-3406.8157L13511.5204,-3406.8149L13511.5172,-3406.8147L13511.5154,-3406.8138L13511.5139,-3406.8119L13511.5133,-3406.81L13511.5126,-3406.8091L13511.5102,-3406.8077L13511.5071,-3406.8077L13511.5066,-3406.8068L13511.505,-3406.8073L13511.504,-3406.8089L13511.5033,-3406.8084L13511.5027,-3406.807L13511.5024,-3406.8055L13511.4998,-3406.8048L13511.4967,-3406.8046L13511.4964,-3406.8058L13511.4973,-3406.8069L13511.4989,-3406.8084L13511.4979,-3406.8092L13511.4963,-3406.8098L13511.4938,-3406.8094L13511.4926,-3406.8082L13511.4921,-3406.8081L13511.489,-3406.8075L13511.4877,-3406.8083L13511.4858,-3406.8102L13511.4838,-3406.8113L13511.4835,-3406.8124L13511.4841,-3406.8143L13511.4825,-3406.8153L13511.4799,-3406.8159L13511.478,-3406.8154L13511.4755,-3406.8148L13511.4746,-3406.8155L13511.4739,-3406.8149L13511.4735,-3406.8138L13511.4726,-3406.8133L13511.4708,-3406.814L13511.4697,-3406.8152L13511.4699,-3406.8163L13511.4681,-3406.817L13511.4668,-3406.8167L13511.4656,-3406.8153L13511.4645,-3406.8147L13511.4634,-3406.8146L13511.4612,-3406.8159L13511.4594,-3406.8174L13511.4576,-3406.8182L13511.4569,-3406.8179L13511.4578,-3406.8154L13511.4562,-3406.8148L13511.4545,-3406.8153L13511.4544,-3406.8164L13511.4549,-3406.8177L13511.4543,-3406.8185L13511.4539,-3406.82L13511.4557,-3406.8217L13511.4553,-3406.823L13511.4538,-3406.8235L13511.4516,-3406.8231L13511.4491,-3406.8228L13511.4443,-3406.8236L13511.4411,-3406.824L13511.4376,-3406.8221L13511.4375,-3406.8213L13511.4362,-3406.8207L13511.4344,-3406.821L13511.4324,-3406.8222L13511.432,-3406.8219L13511.4325,-3406.8207L13511.4346,-3406.8176L13511.4374,-3406.8174L13511.4373,-3406.8162L13511.4351,-3406.816L13511.434,-3406.815L13511.4356,-3406.8136L13511.4393,-3406.8106L13511.4391,-3406.8094L13511.4379,-3406.8082L13511.4363,-3406.8084L13511.4355,-3406.8104L13511.4347,-3406.8098L13511.4319,-3406.8079L13511.4302,-3406.8076L13511.4283,-3406.8067L13511.4272,-3406.8056L13511.4253,-3406.803L13511.4216,-3406.8L13511.4198,-3406.7993L13511.4175,-3406.7991L13511.416,-3406.7978L13511.4127,-3406.7965L13511.4098,-3406.7961L13511.4073,-3406.7959L13511.4007,-3406.798L13511.3994,-3406.7991L13511.4003,-3406.8034L13511.4006,-3406.8056L13511.3997,-3406.8107L13511.4001,-3406.8125L13511.4017,-3406.8136L13511.4037,-3406.8144L13511.406,-3406.8152L13511.4082,-3406.8156L13511.4154,-3406.8156L13511.4166,-3406.8158L13511.4176,-3406.817L13511.4171,-3406.8182L13511.4141,-3406.8196L13511.414,-3406.8208L13511.4182,-3406.8212L13511.4205,-3406.8218L13511.4199,-3406.8226L13511.4185,-3406.8243L13511.4187,-3406.8249L13511.4189,-3406.8257L13511.417,-3406.8254L13511.4136,-3406.8253L13511.413,-3406.8259L13511.4133,-3406.8276L13511.415,-3406.8293L13511.4149,-3406.8299L13511.4121,-3406.8304L13511.4122,-3406.8312L13511.4126,-3406.8319L13511.4092,-3406.8332L13511.409,-3406.8342L13511.4079,-3406.8364L13511.4072,-3406.8376L13511.4067,-3406.838L13511.4057,-3406.8381L13511.4048,-3406.8381L13511.4038,-3406.8388L13511.4037,-3406.8396L13511.4018,-3406.8401L13511.3978,-3406.841L13511.3973,-3406.8417L13511.3975,-3406.8435L13511.3975,-3406.8447L13511.3965,-3406.8459L13511.3919,-3406.8479L13511.3829,-3406.8521L13511.3779,-3406.8544L13511.3774,-3406.8544L13511.3763,-3406.8544L13511.3749,-3406.8545L13511.3741,-3406.8554L13511.3722,-3406.8556L13511.3689,-3406.8556L13511.3666,-3406.8557L13511.3638,-3406.8563L13511.363,-3406.858L13511.3625,-3406.8587L13511.3615,-3406.8588L13511.361,-3406.8587L13511.3603,-3406.8585L13511.351,-3406.8535L13511.346,-3406.8524L13511.3432,-3406.8527L13511.3406,-3406.853L13511.3389,-3406.8525L13511.3358,-3406.8508L13511.3337,-3406.8486L13511.333,-3406.8472L13511.3334,-3406.8447L13511.3341,-3406.8382L13511.3361,-3406.8328L13511.3355,-3406.8286L13511.3342,-3406.8276L13511.3311,-3406.8275L13511.3281,-3406.8278L13511.325,-3406.8281L13511.3227,-3406.828L13511.3192,-3406.828L13511.3164,-3406.828L13511.315,-3406.8277L13511.3148,-3406.8272L13511.3134,-3406.827L13511.3091,-3406.8273L13511.306,-3406.8287L13511.3047,-3406.8289L13511.3036,-3406.8284L13511.3037,-3406.8274L13511.3022,-3406.8269L13511.2999,-3406.8268L13511.2965,-3406.8265L13511.2943,-3406.8259L13511.2905,-3406.8258L13511.2887,-3406.826L13511.2876,-3406.8254L13511.2858,-3406.824L13511.2833,-3406.8238L13511.2824,-3406.8238L13511.2817,-3406.8244L13511.2805,-3406.8252L13511.2789,-3406.825L13511.277,-3406.8248L13511.275,-3406.8251L13511.2738,-3406.8241L13511.2722,-3406.8235L13511.2709,-3406.8238L13511.2701,-3406.8252L13511.2695,-3406.828L13511.2706,-3406.8301L13511.272,-3406.8308L13511.2738,-3406.8303L13511.2757,-3406.8302L13511.2765,-3406.8321L13511.2755,-3406.8343L13511.2744,-3406.835L13511.2751,-3406.8363L13511.2757,-3406.8379L13511.2755,-3406.8397L13511.2753,-3406.8407L13511.2744,-3406.8413L13511.2746,-3406.8425L13511.276,-3406.844L13511.2758,-3406.8446L13511.2743,-3406.8447L13511.2729,-3406.8444L13511.2723,-3406.8447L13511.2718,-3406.8456L13511.2722,-3406.8477L13511.2732,-3406.8479L13511.2742,-3406.8479L13511.2758,-3406.8476L13511.2759,-3406.848L13511.2743,-3406.8496L13511.2742,-3406.8509L13511.2723,-3406.8515L13511.2692,-3406.8533L13511.2685,-3406.853L13511.2675,-3406.8524L13511.2673,-3406.8492L13511.2672,-3406.8457L13511.2671,-3406.845L13511.2663,-3406.8442L13511.2645,-3406.8435L13511.2627,-3406.8429L13511.2601,-3406.8427L13511.2528,-3406.8441L13511.25,-3406.8451L13511.2494,-3406.8459L13511.2482,-3406.8464L13511.2451,-3406.8465L13511.2408,-3406.8493L13511.2366,-3406.8519L13511.2347,-3406.8516L13511.2302,-3406.8493L13511.2272,-3406.848L13511.2248,-3406.8495L13511.2246,-3406.8506L13511.2252,-3406.8522L13511.2254,-3406.8534L13511.2263,-3406.8547L13511.227,-3406.8556L13511.2284,-3406.8578L13511.2328,-3406.8597L13511.2406,-3406.8616L13511.2442,-3406.8621L13511.2475,-3406.8623L13511.2504,-3406.8617L13511.2503,-3406.862L13511.2493,-3406.8625L13511.2465,-3406.8628L13511.2457,-3406.8633L13511.2454,-3406.864L13511.2461,-3406.8655L13511.2462,-3406.8661L13511.2469,-3406.8671L13511.2479,-3406.8678L13511.2486,-3406.8683L13511.2474,-3406.869L13511.2464,-3406.8709L13511.2459,-3406.8718L13511.2449,-3406.8721L13511.2437,-3406.8738L13511.2431,-3406.8751L13511.2431,-3406.8753L13511.2422,-3406.8757L13511.2416,-3406.8775L13511.2424,-3406.8786L13511.2436,-3406.8796L13511.2454,-3406.8803L13511.2476,-3406.8815L13511.2475,-3406.8825L13511.2452,-3406.8825L13511.2438,-3406.8816L13511.2425,-3406.8815L13511.2421,-3406.8823L13511.2423,-3406.8837L13511.2418,-3406.8844L13511.2363,-3406.8848L13511.2356,-3406.8858L13511.2355,-3406.8882L13511.2367,-3406.8892L13511.2384,-3406.8899L13511.2406,-3406.8907L13511.2409,-3406.8914L13511.2398,-3406.8915L13511.2368,-3406.8906L13511.2336,-3406.8899L13511.2313,-3406.8901L13511.2304,-3406.8908L13511.2304,-3406.8916L13511.2309,-3406.8925L13511.2305,-3406.8928L13511.2296,-3406.8921L13511.2288,-3406.8908L13511.2274,-3406.8906L13511.2265,-3406.8918L13511.226,-3406.8935L13511.2267,-3406.8955L13511.2286,-3406.8987L13511.2335,-3406.9022L13511.2399,-3406.9056L13511.243,-3406.9063L13511.2438,-3406.9074L13511.2456,-3406.9082L13511.2473,-3406.9092L13511.2475,-3406.9114L13511.2481,-3406.9116L13511.2491,-3406.912L13511.2506,-3406.9126L13511.2511,-3406.9134L13511.2513,-3406.9166L13511.2517,-3406.9171L13511.253,-3406.9174L13511.2544,-3406.9172L13511.2556,-3406.9172L13511.2565,-3406.9181L13511.2573,-3406.9205L13511.2579,-3406.9228L13511.2572,-3406.9248L13511.2575,-3406.9252L13511.2583,-3406.9254L13511.2588,-3406.926L13511.259,-3406.9277L13511.2601,-3406.9281L13511.2607,-3406.9274L13511.2609,-3406.9255L13511.2613,-3406.9241L13511.2609,-3406.923L13511.2592,-3406.9216L13511.2588,-3406.9198L13511.26,-3406.9205L13511.2609,-3406.9212L13511.2617,-3406.922L13511.2625,-3406.9225L13511.2628,-3406.9231L13511.2626,-3406.9235L13511.2627,-3406.9241L13511.2638,-3406.9247L13511.2653,-3406.9248L13511.2657,-3406.9257L13511.2666,-3406.9287L13511.2673,-3406.935L13511.2671,-3406.937L13511.2667,-3406.9376L13511.2656,-3406.9386L13511.2653,-3406.9397L13511.2642,-3406.9434L13511.2636,-3406.9441L13511.2637,-3406.9454L13511.263,-3406.9461L13511.2617,-3406.9476L13511.2614,-3406.9494L13511.2608,-3406.9502L13511.2566,-3406.954L13511.2527,-3406.9585L13511.2522,-3406.9586L13511.2508,-3406.9581L13511.2494,-3406.9569L13511.2485,-3406.9558L13511.2469,-3406.9548L13511.2458,-3406.9551L13511.2447,-3406.9562L13511.245,-3406.9571L13511.2455,-3406.9576L13511.2451,-3406.9579L13511.2439,-3406.9577L13511.2403,-3406.9566L13511.2402,-3406.9565L13511.2396,-3406.9563L13511.2394,-3406.9562L13511.2393,-3406.9562L13511.239,-3406.9551L13511.2389,-3406.9549L13511.2388,-3406.9548L13511.2387,-3406.9547L13511.238,-3406.9543L13511.2378,-3406.9542L13511.2377,-3406.9542L13511.2366,-3406.9543L13511.2349,-3406.9548L13511.2346,-3406.9549L13511.2346,-3406.9549L13511.2341,-3406.9552L13511.2334,-3406.9557L13511.2332,-3406.9559L13511.2332,-3406.956L13511.2331,-3406.9562L13511.2331,-3406.9569L13511.2332,-3406.9571L13511.2333,-3406.9573L13511.2346,-3406.9577L13511.2349,-3406.9578L13511.2378,-3406.9589L13511.2392,-3406.9593L13511.2394,-3406.9593L13511.2395,-3406.9593L13511.2408,-3406.9592L13511.2411,-3406.9591L13511.2411,-3406.9591L13511.2422,-3406.9589L13511.2425,-3406.9589L13511.2431,-3406.9591L13511.2434,-3406.9592L13511.2434,-3406.9592L13511.2448,-3406.9596L13511.2457,-3406.9596L13511.2459,-3406.9595L13511.246,-3406.9594L13511.2466,-3406.9588L13511.2468,-3406.9586L13511.2468,-3406.9586L13511.2472,-3406.9582L13511.2478,-3406.9578L13511.2481,-3406.9578L13511.2482,-3406.9578L13511.2483,-3406.9578L13511.2492,-3406.9583L13511.2495,-3406.9585L13511.2495,-3406.9585L13511.2497,-3406.9586L13511.2503,-3406.9593L13511.2505,-3406.9595L13511.2505,-3406.9596L13511.2506,-3406.9604L13511.2505,-3406.9606L13511.2505,-3406.9607L13511.2504,-3406.9607L13511.2495,-3406.9615L13511.2493,-3406.9616L13511.2493,-3406.9616L13511.2485,-3406.9621L13511.2467,-3406.9633L13511.2465,-3406.9634L13511.2464,-3406.9635L13511.2452,-3406.9649L13511.2443,-3406.9663L13511.2442,-3406.9665L13511.2442,-3406.9665L13511.2436,-3406.9699L13511.2433,-3406.9708L13511.2431,-3406.971L13511.2431,-3406.971L13511.243,-3406.9711L13511.2416,-3406.9719L13511.2413,-3406.972L13511.2412,-3406.972L13511.239,-3406.9731L13511.2375,-3406.9741L13511.2373,-3406.9742L13511.2373,-3406.9743L13511.2372,-3406.9743L13511.2363,-3406.9755L13511.2362,-3406.9757L13511.2362,-3406.9757L13511.2357,-3406.9768L13511.2356,-3406.977L13511.2356,-3406.977L13511.2351,-3406.9777L13511.2349,-3406.9779L13511.2349,-3406.9779L13511.233,-3406.9781L13511.2328,-3406.9781L13511.2326,-3406.9781L13511.232,-3406.9783L13511.2304,-3406.9792L13511.2302,-3406.9794L13511.2301,-3406.9794L13511.2284,-3406.9807L13511.2254,-3406.983L13511.2252,-3406.9831L13511.2251,-3406.9832L13511.224,-3406.9838L13511.2224,-3406.9849L13511.2222,-3406.985L13511.2222,-3406.9851L13511.2207,-3406.9867L13511.2206,-3406.9869L13511.2204,-3406.987L13511.2195,-3406.9879L13511.214,-3406.9917L13511.2121,-3406.9928L13511.2116,-3406.993L13511.2116,-3406.993L13511.2109,-3406.9933L13511.21,-3406.9937L13511.2099,-3406.9939L13511.2098,-3406.994L13511.2095,-3406.9949L13511.2092,-3406.9955L13511.209,-3406.9956L13511.209,-3406.9957L13511.2084,-3406.9958L13511.2081,-3406.9958L13511.208,-3406.9958L13511.2068,-3406.9957L13511.2066,-3406.9958L13511.2066,-3406.9958L13511.206,-3406.9968L13511.2058,-3406.997L13511.2056,-3406.9972L13511.2043,-3406.9978L13511.2041,-3406.9979L13511.204,-3406.9979L13511.2028,-3406.9984L13511.2026,-3406.9986L13511.2025,-3406.9986L13511.2008,-3407.0001L13511.2006,-3407.0003L13511.2006,-3407.0003L13511.1983,-3407.0017L13511.1981,-3407.0018L13511.198,-3407.0018L13511.1968,-3407.0026L13511.1966,-3407.0028L13511.1966,-3407.0028L13511.1947,-3407.0042L13511.1945,-3407.0044L13511.1944,-3407.0044L13511.1939,-3407.0048L13511.1925,-3407.0058L13511.1923,-3407.006L13511.1922,-3407.0061L13511.1906,-3407.0085L13511.1899,-3407.0092L13511.1897,-3407.0093L13511.1892,-3407.0094L13511.1889,-3407.0095L13511.1886,-3407.0094L13511.1884,-3407.0093L13511.1883,-3407.0093L13511.1879,-3407.009L13511.1868,-3407.0083L13511.1866,-3407.0082L13511.1865,-3407.0082L13511.1852,-3407.0082L13511.1849,-3407.0083L13511.1842,-3407.0083L13511.1834,-3407.0085L13511.1833,-3407.0086L13511.1833,-3407.0086L13511.1841,-3407.0094L13511.1843,-3407.0096L13511.1843,-3407.0097L13511.1844,-3407.0099L13511.1845,-3407.0109L13511.1847,-3407.011L13511.1847,-3407.011L13511.186,-3407.0112L13511.1866,-3407.0114L13511.1868,-3407.0116L13511.1868,-3407.0116L13511.1868,-3407.0117L13511.1868,-3407.0119L13511.1868,-3407.012L13511.1867,-3407.0126L13511.1866,-3407.0128L13511.1866,-3407.0128L13511.1861,-3407.0131L13511.183,-3407.0136L13511.1827,-3407.0136L13511.1827,-3407.0136L13511.1817,-3407.0139L13511.1773,-3407.0157L13511.177,-3407.0158L13511.172,-3407.0185L13511.1713,-3407.0192L13511.1712,-3407.0204L13511.16,-3407.0261L13511.1341,-3407.0395L13511.1133,-3407.0448L13511.0927,-3407.0469L13511.0674,-3407.0487L13511.0615,-3407.0483L13511.059,-3407.0465L13511.0518,-3407.0406L13511.0468,-3407.0391L13511.0427,-3407.0384L13511.0377,-3407.0387L13511.0343,-3407.0371L13511.0328,-3407.0369L13511.0307,-3407.0383L13511.0289,-3407.0408L13511.0251,-3407.0411L13511.0126,-3407.0424L13510.9967,-3407.0423L13510.9908,-3407.041L13510.9898,-3407.0388L13510.9885,-3407.0358L13510.9863,-3407.034L13510.9863,-3407.959Z"/>
<path content="和歌山県,,,有田市,,30204" xlink:title="和歌山県" d="M13512.5096,-3406.4639L13512.5117,-3406.4626L13512.5122,-3406.4631L13512.5143,-3406.4637L13512.5175,-3406.4633L13512.5187,-3406.4624L13512.5184,-3406.4603L13512.5158,-3406.4572L13512.5169,-3406.4564L13512.5188,-3406.4565L13512.5211,-3406.4568L13512.5242,-3406.4564L13512.5273,-3406.4553L13512.5312,-3406.4536L13512.5349,-3406.4533L13512.5478,-3406.452L13512.5534,-3406.449L13512.5633,-3406.4463L13512.5648,-3406.4456L13512.5649,-3406.4445L13512.5569,-3406.4385L13512.5555,-3406.4384L13512.5539,-3406.4383L13512.5524,-3406.4379L13512.5505,-3406.4369L13512.5486,-3406.4366L13512.5469,-3406.4371L13512.5452,-3406.4369L13512.5384,-3406.4331L13512.5366,-3406.4319L13512.5359,-3406.4323L13512.5354,-3406.433L13512.5335,-3406.4333L13512.5306,-3406.4335L13512.5301,-3406.4341L13512.5289,-3406.4385L13512.5277,-3406.4428L13512.5287,-3406.4462L13512.5281,-3406.4475L13512.5259,-3406.4487L13512.5244,-3406.45L13512.5233,-3406.4501L13512.5222,-3406.4486L13512.5214,-3406.4446L13512.5209,-3406.4394L13512.5027,-3406.4264L13512.5065,-3406.4227L13512.5062,-3406.4205L13512.5,-3406.4171L13512.4963,-3406.415L13512.4948,-3406.4148L13512.494,-3406.4167L13512.494,-3406.4197L13512.4967,-3406.4221L13512.4983,-3406.4224L13512.4975,-3406.4227L13512.4968,-3406.4234L13512.4955,-3406.4232L13512.4936,-3406.4239L13512.4932,-3406.4244L13512.4922,-3406.4245L13512.4909,-3406.4242L13512.4881,-3406.4221L13512.4874,-3406.4221L13512.4867,-3406.4237L13512.4871,-3406.4253L13512.4883,-3406.4257L13512.4886,-3406.4267L13512.4871,-3406.4271L13512.4857,-3406.4261L13512.4847,-3406.4267L13512.4851,-3406.4291L13512.4849,-3406.4301L13512.4841,-3406.431L13512.4832,-3406.4311L13512.4822,-3406.4311L13512.4818,-3406.432L13512.4824,-3406.4354L13512.482,-3406.4367L13512.4833,-3406.4388L13512.4829,-3406.4414L13512.4839,-3406.4427L13512.4853,-3406.4423L13512.4876,-3406.4404L13512.4896,-3406.4393L13512.4907,-3406.4395L13512.4915,-3406.4408L13512.4925,-3406.4421L13512.493,-3406.442L13512.4951,-3406.4422L13512.4962,-3406.443L13512.497,-3406.4446L13512.498,-3406.4468L13512.4991,-3406.4478L13512.4996,-3406.4484L13512.4982,-3406.4486L13512.4967,-3406.4489L13512.4966,-3406.4501L13512.4979,-3406.4509L13512.5,-3406.4506L13512.5005,-3406.4506L13512.5029,-3406.4507L13512.5031,-3406.4518L13512.5014,-3406.4541L13512.5017,-3406.4551L13512.5032,-3406.4546L13512.5041,-3406.4531L13512.5055,-3406.4522L13512.5073,-3406.4519L13512.5138,-3406.4554L13512.5146,-3406.4559L13512.5146,-3406.4571L13512.5137,-3406.4574L13512.5119,-3406.4585L13512.5107,-3406.4596L13512.5078,-3406.4599L13512.504,-3406.4616L13512.5036,-3406.4623L13512.5042,-3406.4636L13512.5053,-3406.4645L13512.5078,-3406.4647L13512.5096,-3406.4639Z"/>
<path content="和歌山県,,,有田市,,30204" xlink:title="和歌山県" d="M13511.2949,-3406.8156L13511.2956,-3406.8143L13511.2985,-3406.8137L13511.3011,-3406.8132L13511.3065,-3406.8099L13511.3069,-3406.8085L13511.3058,-3406.8027L13511.3046,-3406.8012L13511.3031,-3406.8008L13511.2956,-3406.8011L13511.291,-3406.8025L13511.2866,-3406.8027L13511.2827,-3406.8022L13511.2778,-3406.8026L13511.2763,-3406.8034L13511.275,-3406.8036L13511.2706,-3406.8035L13511.2665,-3406.8042L13511.2617,-3406.803L13511.2524,-3406.7986L13511.2492,-3406.798L13511.2459,-3406.7987L13511.2425,-3406.8008L13511.2398,-3406.8009L13511.236,-3406.8008L13511.2281,-3406.8027L13511.2252,-3406.8033L13511.2244,-3406.8051L13511.2243,-3406.8063L13511.2234,-3406.8077L13511.2222,-3406.8099L13511.2225,-3406.8115L13511.2272,-3406.8184L13511.2283,-3406.8186L13511.232,-3406.8167L13511.2372,-3406.8155L13511.2436,-3406.8164L13511.2459,-3406.8172L13511.2555,-3406.8173L13511.2613,-3406.8185L13511.2691,-3406.8205L13511.2783,-3406.8218L13511.2802,-3406.8222L13511.2838,-3406.822L13511.2901,-3406.8201L13511.2924,-3406.8193L13511.2948,-3406.8179L13511.2949,-3406.8156Z"/>
<path content="和歌山県,,,有田市,,30204" xlink:title="和歌山県" d="M13513.0218,-3406.4848L13513.0214,-3406.4822L13513.0227,-3406.48L13513.0236,-3406.4777L13513.0216,-3406.476L13513.0178,-3406.4742L13513.0162,-3406.474L13513.0155,-3406.4741L13513.0145,-3406.4747L13513.0151,-3406.4769L13513.0157,-3406.478L13513.0148,-3406.4782L13513.0138,-3406.4773L13513.0133,-3406.4756L13513.0115,-3406.4754L13513.0094,-3406.4775L13513.0111,-3406.4798L13513.0122,-3406.4808L13513.0116,-3406.4819L13513.0111,-3406.4823L13512.9959,-3406.48L13512.9937,-3406.4806L13512.9925,-3406.4824L13512.9919,-3406.4851L13512.9931,-3406.4903L13512.9956,-3406.4936L13512.998,-3406.4954L13513.0018,-3406.4965L13513.0044,-3406.499L13513.0057,-3406.5006L13513.007,-3406.5018L13513.009,-3406.5015L13513.0118,-3406.4999L13513.0128,-3406.4982L13513.0128,-3406.4964L13513.0147,-3406.4942L13513.0143,-3406.4909L13513.0139,-3406.4896L13513.015,-3406.489L13513.0183,-3406.4885L13513.0208,-3406.488L13513.0222,-3406.4878L13513.0218,-3406.4848Z"/>
<path content="和歌山県,,,有田市,,30204" xlink:title="和歌山県" d="M13512.9787,-3406.4593L13512.9788,-3406.4554L13512.9775,-3406.4532L13512.9745,-3406.4517L13512.9727,-3406.4511L13512.9705,-3406.4497L13512.9644,-3406.4515L13512.9626,-3406.4545L13512.9595,-3406.4536L13512.9552,-3406.4522L13512.9525,-3406.4525L13512.953,-3406.4554L13512.9516,-3406.4563L13512.9494,-3406.455L13512.947,-3406.4534L13512.9464,-3406.4534L13512.9459,-3406.4545L13512.9486,-3406.4598L13512.9566,-3406.4633L13512.9633,-3406.4635L13512.9658,-3406.4648L13512.9696,-3406.4648L13512.975,-3406.4626L13512.9787,-3406.4593Z"/>
<path content="和歌山県,,,有田市,,30204" xlink:title="和歌山県" d="M13513.1091,-3406.4977L13513.1103,-3406.4939L13513.1057,-3406.4901L13513.1027,-3406.4874L13513.0982,-3406.4846L13513.0949,-3406.4834L13513.0916,-3406.4835L13513.084,-3406.4862L13513.0841,-3406.4884L13513.0845,-3406.4909L13513.087,-3406.4929L13513.0922,-3406.4955L13513.095,-3406.4962L13513.0988,-3406.496L13513.102,-3406.4973L13513.1061,-3406.4994L13513.108,-3406.4989L13513.1091,-3406.4977Z"/>
<path content="和歌山県,,,有田市,,30204" xlink:title="和歌山県" d="M13512.5756,-3406.4459L13512.5793,-3406.4445L13512.5733,-3406.4407L13512.5705,-3406.4399L13512.5696,-3406.4396L13512.5664,-3406.4348L13512.5611,-3406.4325L13512.5522,-3406.4294L13512.551,-3406.4299L13512.5499,-3406.4307L13512.5501,-3406.4322L13512.5521,-3406.4348L13512.5522,-3406.4355L13512.5504,-3406.4348L13512.5499,-3406.435L13512.5506,-3406.4361L13512.5516,-3406.4365L13512.5539,-3406.4359L13512.5547,-3406.4362L13512.5562,-3406.4374L13512.5575,-3406.4379L13512.5596,-3406.437L13512.5606,-3406.4374L13512.5612,-3406.4393L13512.562,-3406.4399L13512.5635,-3406.4397L13512.5636,-3406.4404L13512.564,-3406.4408L13512.5653,-3406.4407L13512.5681,-3406.4449L13512.5692,-3406.4451L13512.5703,-3406.4446L13512.5707,-3406.4452L13512.5722,-3406.4454L13512.5734,-3406.4448L13512.5745,-3406.4448L13512.5756,-3406.4459Z"/>
<path content="和歌山県,,,有田市,,30204" xlink:title="和歌山県" d="M13512.5859,-3406.4324L13512.5835,-3406.4315L13512.581,-3406.4316L13512.5787,-3406.4303L13512.5761,-3406.4285L13512.5744,-3406.4272L13512.5683,-3406.4241L13512.5662,-3406.4232L13512.5655,-3406.4235L13512.5657,-3406.4242L13512.5712,-3406.428L13512.5721,-3406.4287L13512.572,-3406.4303L13512.5723,-3406.4312L13512.5743,-3406.4313L13512.5767,-3406.4314L13512.5773,-3406.432L13512.5778,-3406.4351L13512.5788,-3406.4367L13512.5835,-3406.4372L13512.5839,-3406.4389L13512.5844,-3406.4401L13512.5857,-3406.4412L13512.5873,-3406.4417L13512.588,-3406.4418L13512.5884,-3406.4422L13512.5889,-3406.4425L13512.5897,-3406.4422L13512.591,-3406.4421L13512.5943,-3406.4414L13512.595,-3406.4404L13512.5957,-3406.4402L13512.5971,-3406.4397L13512.5975,-3406.439L13512.5974,-3406.4381L13512.5905,-3406.4362L13512.5886,-3406.4351L13512.5874,-3406.4336L13512.5859,-3406.4324Z"/>
<path content="和歌山県,,,有田市,,30204" xlink:title="和歌山県" d="M13511.561,-3406.7987L13511.5546,-3406.7965L13511.5504,-3406.7968L13511.5454,-3406.7992L13511.544,-3406.8003L13511.5452,-3406.8025L13511.5489,-3406.8043L13511.5506,-3406.8056L13511.5532,-3406.8062L13511.5547,-3406.8062L13511.557,-3406.8048L13511.5632,-3406.8007L13511.561,-3406.7987Z"/>
<path content="和歌山県,,,有田市,,30204" xlink:title="和歌山県" d="M13511.3823,-3406.793L13511.3847,-3406.7929L13511.3863,-3406.7929L13511.3873,-3406.792L13511.3867,-3406.7899L13511.3844,-3406.7873L13511.3821,-3406.7867L13511.3795,-3406.7873L13511.3782,-3406.7872L13511.3776,-3406.7849L13511.3762,-3406.7837L13511.3744,-3406.7843L13511.3744,-3406.7867L13511.3743,-3406.788L13511.3739,-3406.7903L13511.3757,-3406.7919L13511.3787,-3406.7923L13511.3793,-3406.7932L13511.3823,-3406.793Z"/>
<path content="和歌山県,,,有田市,,30204" xlink:title="和歌山県" d="M13511.9552,-3406.7084L13511.9523,-3406.7075L13511.9495,-3406.7086L13511.9483,-3406.7125L13511.9493,-3406.7168L13511.9508,-3406.7182L13511.9548,-3406.7167L13511.9583,-3406.7154L13511.9599,-3406.7146L13511.9602,-3406.7134L13511.9587,-3406.7128L13511.9571,-3406.7126L13511.9559,-3406.711L13511.9552,-3406.7084Z"/>
<path content="和歌山県,,,有田市,,30204" xlink:title="和歌山県" d="M13511.4425,-3406.8032L13511.443,-3406.8014L13511.4443,-3406.8015L13511.4459,-3406.8017L13511.4469,-3406.8011L13511.4476,-3406.7998L13511.4463,-3406.7988L13511.4437,-3406.7987L13511.442,-3406.7989L13511.4405,-3406.7983L13511.4388,-3406.7971L13511.4368,-3406.7977L13511.4345,-3406.8L13511.4338,-3406.8006L13511.4336,-3406.8018L13511.4352,-3406.8035L13511.439,-3406.8062L13511.4406,-3406.806L13511.4412,-3406.8057L13511.4421,-3406.8049L13511.4425,-3406.8032Z"/>
<path content="和歌山県,,,有田市,,30204" xlink:title="和歌山県" d="M13511.4829,-3406.8034L13511.4814,-3406.8025L13511.4778,-3406.8035L13511.4763,-3406.8054L13511.4764,-3406.8063L13511.4757,-3406.8068L13511.4752,-3406.8078L13511.4758,-3406.8091L13511.4766,-3406.8102L13511.4778,-3406.8118L13511.4792,-3406.8124L13511.4812,-3406.8123L13511.4828,-3406.8115L13511.4835,-3406.81L13511.4833,-3406.8095L13511.4838,-3406.8091L13511.4844,-3406.8086L13511.485,-3406.8067L13511.4846,-3406.8051L13511.4829,-3406.8034Z"/>
<path content="和歌山県,,,有田市,,30204" xlink:title="和歌山県" d="M13512.0119,-3406.7225L13512.0093,-3406.7222L13512.0073,-3406.7227L13512.0064,-3406.7237L13512.006,-3406.7257L13512.0058,-3406.7285L13512.0068,-3406.7302L13512.0081,-3406.7319L13512.0107,-3406.7326L13512.0148,-3406.7323L13512.0159,-3406.7317L13512.016,-3406.7309L13512.0115,-3406.7262L13512.0121,-3406.7244L13512.0119,-3406.7225Z"/>
<path content="和歌山県,,,有田市,,30204" xlink:title="和歌山県" d="M13511.677,-3406.7833L13511.6735,-3406.7822L13511.67,-3406.7825L13511.6667,-3406.7831L13511.6648,-3406.7835L13511.6639,-3406.7849L13511.6639,-3406.7863L13511.6664,-3406.7878L13511.6667,-3406.7879L13511.6685,-3406.7889L13511.6718,-3406.7895L13511.6726,-3406.7887L13511.6727,-3406.7871L13511.6744,-3406.7867L13511.6765,-3406.7858L13511.677,-3406.7845L13511.677,-3406.7833Z"/>
<path content="和歌山県,,,有田市,,30204" xlink:title="和歌山県" d="M13513.0786,-3406.477L13513.077,-3406.4769L13513.0765,-3406.4776L13513.0763,-3406.4786L13513.0772,-3406.4807L13513.0814,-3406.4834L13513.0847,-3406.4844L13513.0864,-3406.4841L13513.0896,-3406.4821L13513.0883,-3406.4795L13513.0849,-3406.4781L13513.0804,-3406.478L13513.0786,-3406.477Z"/>
<path content="和歌山県,,,有田市,,30204" xlink:title="和歌山県" d="M13511.715,-3406.7826L13511.7139,-3406.7809L13511.7119,-3406.7813L13511.7078,-3406.7826L13511.7074,-3406.7838L13511.7081,-3406.7849L13511.7069,-3406.7859L13511.7041,-3406.7862L13511.7022,-3406.787L13511.7019,-3406.7884L13511.7029,-3406.7895L13511.7066,-3406.7891L13511.7102,-3406.7888L13511.7124,-3406.7874L13511.7136,-3406.7852L13511.7135,-3406.784L13511.715,-3406.7826Z"/>
<path content="和歌山県,,,有田市,,30204" xlink:title="和歌山県" d="M13512.6475,-3406.4788L13512.6432,-3406.4784L13512.6395,-3406.479L13512.6384,-3406.4805L13512.6393,-3406.4821L13512.6418,-3406.4835L13512.6451,-3406.484L13512.6485,-3406.4844L13512.6504,-3406.4839L13512.6504,-3406.4817L13512.6503,-3406.4798L13512.6475,-3406.4788Z"/>
<path content="和歌山県,,,有田市,,30204" xlink:title="和歌山県" d="M13511.7704,-3406.7455L13511.7683,-3406.7445L13511.7654,-3406.7452L13511.7617,-3406.7461L13511.7596,-3406.7486L13511.7595,-3406.7518L13511.761,-3406.7517L13511.7673,-3406.7502L13511.7707,-3406.748L13511.7704,-3406.7455Z"/>
<path content="和歌山県,,,有田市,,30204" xlink:title="和歌山県" d="M13513.0633,-3406.4869L13513.0594,-3406.4854L13513.0565,-3406.4855L13513.0539,-3406.4861L13513.0537,-3406.4876L13513.055,-3406.4901L13513.0562,-3406.4913L13513.0589,-3406.4917L13513.0604,-3406.4911L13513.0647,-3406.4884L13513.0633,-3406.4869Z"/>
<path content="和歌山県,,,有田市,,30204" xlink:title="和歌山県" d="M13512.5937,-3406.4254L13512.5916,-3406.4253L13512.5915,-3406.4267L13512.5986,-3406.4321L13512.6001,-3406.4322L13512.6014,-3406.4313L13512.6029,-3406.4289L13512.6025,-3406.4275L13512.5988,-3406.4267L13512.5937,-3406.4254Z"/>
<path content="和歌山県,,,有田市,,30204" xlink:title="和歌山県" d="M13512.4807,-3406.491L13512.4793,-3406.491L13512.4779,-3406.4978L13512.4785,-3406.4983L13512.481,-3406.4989L13512.4833,-3406.4982L13512.4848,-3406.4969L13512.4843,-3406.4949L13512.4846,-3406.4938L13512.4849,-3406.4925L13512.4837,-3406.4915L13512.4821,-3406.4913L13512.4807,-3406.491Z"/>
<path content="和歌山県,,,有田市,,30204" xlink:title="和歌山県" d="M13511.7971,-3406.7466L13511.7933,-3406.7461L13511.7892,-3406.7471L13511.7859,-3406.7473L13511.7847,-3406.7482L13511.7851,-3406.7495L13511.7877,-3406.7509L13511.7899,-3406.7511L13511.7938,-3406.7499L13511.7969,-3406.7482L13511.7971,-3406.7466Z"/>
<path content="和歌山県,,,有田市,,30204" xlink:title="和歌山県" d="M13513.1344,-3406.4912L13513.1321,-3406.4886L13513.1293,-3406.4875L13513.1278,-3406.4876L13513.1263,-3406.4879L13513.1243,-3406.4879L13513.1221,-3406.4875L13513.1214,-3406.4878L13513.1212,-3406.4897L13513.123,-3406.4915L13513.1278,-3406.4911L13513.1299,-3406.4913L13513.1318,-3406.4915L13513.1344,-3406.4912Z"/>
<path content="和歌山県,,,有田市,,30204" xlink:title="和歌山県" d="M13512.4446,-3406.5204L13512.4468,-3406.5196L13512.4477,-3406.5198L13512.4493,-3406.5199L13512.4497,-3406.5197L13512.4511,-3406.5182L13512.4479,-3406.5175L13512.4445,-3406.5145L13512.4427,-3406.5148L13512.4411,-3406.5151L13512.4404,-3406.5158L13512.4399,-3406.5167L13512.4398,-3406.5174L13512.4405,-3406.5187L13512.4425,-3406.5201L13512.4446,-3406.5204Z"/>
<path content="和歌山県,,,有田市,,30204" xlink:title="和歌山県" d="M13512.517,-3406.4308L13512.518,-3406.43L13512.5092,-3406.4241L13512.5079,-3406.4236L13512.507,-3406.4238L13512.5065,-3406.4256L13512.5076,-3406.4273L13512.508,-3406.429L13512.5088,-3406.4301L13512.5109,-3406.4305L13512.512,-3406.4293L13512.5125,-3406.4289L13512.5134,-3406.4296L13512.5139,-3406.4306L13512.5154,-3406.4303L13512.5156,-3406.4306L13512.5161,-3406.4311L13512.517,-3406.4308Z"/>
<path content="和歌山県,,,有田市,,30204" xlink:title="和歌山県" d="M13511.3064,-3406.8169L13511.3048,-3406.8164L13511.3023,-3406.8169L13511.2979,-3406.8202L13511.2978,-3406.8216L13511.2984,-3406.8223L13511.3006,-3406.8229L13511.3037,-3406.8222L13511.3064,-3406.8198L13511.3072,-3406.8183L13511.3064,-3406.8169Z"/>
<path content="和歌山県,,,有田市,,30204" xlink:title="和歌山県" d="M13511.467,-3406.8036L13511.4651,-3406.8034L13511.463,-3406.804L13511.4614,-3406.8053L13511.46,-3406.8084L13511.4599,-3406.8099L13511.4601,-3406.8105L13511.4617,-3406.8105L13511.4652,-3406.8092L13511.467,-3406.8081L13511.4671,-3406.8071L13511.4676,-3406.8049L13511.467,-3406.8036Z"/>
<path content="和歌山県,,,有田市,,30204" xlink:title="和歌山県" d="M13511.2396,-3406.8727L13511.2403,-3406.8724L13511.2417,-3406.8729L13511.2437,-3406.8725L13511.2448,-3406.8716L13511.2451,-3406.8712L13511.2451,-3406.8707L13511.2439,-3406.8693L13511.242,-3406.8688L13511.2402,-3406.87L13511.2389,-3406.8698L13511.2376,-3406.8699L13511.2365,-3406.8709L13511.236,-3406.8719L13511.2367,-3406.8731L13511.2371,-3406.8734L13511.2371,-3406.8746L13511.2384,-3406.875L13511.2388,-3406.8764L13511.2398,-3406.8771L13511.2413,-3406.8766L13511.2416,-3406.8758L13511.2415,-3406.8749L13511.2401,-3406.8736L13511.2396,-3406.8727Z"/>
<path content="和歌山県,,,有田市,,30204" xlink:title="和歌山県" d="M13512.5549,-3406.452L13512.5527,-3406.4515L13512.5494,-3406.455L13512.5458,-3406.4575L13512.5479,-3406.4592L13512.5495,-3406.4595L13512.5509,-3406.4587L13512.5554,-3406.4535L13512.5549,-3406.452Z"/>
<path content="和歌山県,,,有田市,,30204" xlink:title="和歌山県" d="M13512.6095,-3406.4335L13512.6122,-3406.4333L13512.6139,-3406.4334L13512.6141,-3406.432L13512.6112,-3406.43L13512.6072,-3406.4288L13512.6048,-3406.4288L13512.6041,-3406.4301L13512.6051,-3406.4322L13512.6077,-3406.4332L13512.6095,-3406.4335Z"/>
<path content="和歌山県,,,有田市,,30204" xlink:title="和歌山県" d="M13511.8985,-3406.7086L13511.8957,-3406.707L13511.8936,-3406.7077L13511.8923,-3406.7088L13511.8927,-3406.7108L13511.8951,-3406.7124L13511.898,-3406.7132L13511.9004,-3406.713L13511.9002,-3406.712L13511.8985,-3406.7086Z"/>
<path content="和歌山県,,,有田市,,30204" xlink:title="和歌山県" d="M13512.7442,-3406.5306L13512.7441,-3406.5292L13512.7434,-3406.5283L13512.7425,-3406.5286L13512.7414,-3406.5301L13512.7405,-3406.5303L13512.7384,-3406.5297L13512.7368,-3406.5298L13512.7369,-3406.531L13512.7387,-3406.533L13512.741,-3406.5343L13512.7426,-3406.5347L13512.7451,-3406.5347L13512.7455,-3406.5336L13512.7442,-3406.5319L13512.7442,-3406.5306Z"/>
<path content="和歌山県,,,有田市,,30204" xlink:title="和歌山県" d="M13511.5835,-3406.8016L13511.58,-3406.8008L13511.5776,-3406.801L13511.5765,-3406.802L13511.5777,-3406.8044L13511.58,-3406.8057L13511.5827,-3406.8057L13511.5844,-3406.8031L13511.5835,-3406.8016Z"/>
<path content="和歌山県,,,有田市,,30204" xlink:title="和歌山県" d="M13512.9925,-3406.4964L13512.9904,-3406.496L13512.9888,-3406.4968L13512.9877,-3406.4982L13512.9876,-3406.4995L13512.9881,-3406.5007L13512.99,-3406.5014L13512.9917,-3406.5016L13512.992,-3406.5015L13512.9934,-3406.5006L13512.9946,-3406.4986L13512.9925,-3406.4964Z"/>
<path content="和歌山県,,,有田市,,30204" xlink:title="和歌山県" d="M13513.154,-3406.4986L13513.1484,-3406.4968L13513.1458,-3406.4969L13513.1448,-3406.4976L13513.1459,-3406.4989L13513.1498,-3406.4995L13513.1519,-3406.5L13513.1542,-3406.5011L13513.1567,-3406.5018L13513.1575,-3406.502L13513.1578,-3406.5006L13513.154,-3406.4986Z"/>
<path content="和歌山県,,,有田市,,30204" xlink:title="和歌山県" d="M13512.9468,-3406.498L13512.9423,-3406.4965L13512.9401,-3406.4975L13512.9396,-3406.499L13512.9398,-3406.5003L13512.9409,-3406.5009L13512.9438,-3406.5011L13512.9456,-3406.501L13512.9469,-3406.4993L13512.9468,-3406.498Z"/>
<path content="和歌山県,,,有田市,,30204" xlink:title="和歌山県" d="M13512.1381,-3406.7594L13512.1412,-3406.7583L13512.1427,-3406.7583L13512.1442,-3406.7586L13512.1455,-3406.7584L13512.1462,-3406.7575L13512.1449,-3406.7564L13512.1426,-3406.7562L13512.1397,-3406.7564L13512.1368,-3406.757L13512.1351,-3406.7578L13512.1341,-3406.759L13512.1347,-3406.7596L13512.1381,-3406.7594Z"/>
<path content="和歌山県,,,有田市,,30204" xlink:title="和歌山県" d="M13512.6758,-3406.5308L13512.6775,-3406.5299L13512.6779,-3406.5299L13512.6776,-3406.529L13512.6704,-3406.5277L13512.6699,-3406.5288L13512.6702,-3406.53L13512.6731,-3406.5307L13512.6735,-3406.5313L13512.6738,-3406.5321L13512.6744,-3406.5331L13512.6757,-3406.5336L13512.6774,-3406.5334L13512.6776,-3406.5322L13512.6765,-3406.5315L13512.6758,-3406.5308Z"/>
<path content="和歌山県,,,有田市,,30204" xlink:title="和歌山県" d="M13511.705,-3406.7735L13511.7034,-3406.7723L13511.6997,-3406.7727L13511.6952,-3406.7753L13511.697,-3406.7759L13511.7005,-3406.7759L13511.704,-3406.7753L13511.705,-3406.7735Z"/>
<path content="和歌山県,,,有田市,,30204" xlink:title="和歌山県" d="M13511.7673,-3406.7638L13511.7706,-3406.7634L13511.7719,-3406.7637L13511.7733,-3406.7637L13511.7726,-3406.7603L13511.7705,-3406.7599L13511.7673,-3406.761L13511.7654,-3406.7619L13511.766,-3406.7636L13511.7673,-3406.7638Z"/>
<path content="和歌山県,,,有田市,,30204" xlink:title="和歌山県" d="M13512.2498,-3406.7008L13512.2477,-3406.7002L13512.2455,-3406.7013L13512.2443,-3406.702L13512.2439,-3406.7034L13512.2447,-3406.7046L13512.2458,-3406.7051L13512.2476,-3406.7047L13512.2489,-3406.704L13512.2511,-3406.7017L13512.2498,-3406.7008Z"/>
<path content="和歌山県,,,有田市,,30204" xlink:title="和歌山県" d="M13513.0506,-3406.4927L13513.0468,-3406.4926L13513.0451,-3406.4926L13513.0448,-3406.4942L13513.0462,-3406.4956L13513.0473,-3406.4962L13513.0496,-3406.4963L13513.0524,-3406.4952L13513.0506,-3406.4927Z"/>
<path content="和歌山県,,,有田市,,30204" xlink:title="和歌山県" d="M13512.4944,-3406.4997L13512.4903,-3406.4979L13512.4882,-3406.4981L13512.4873,-3406.4998L13512.4873,-3406.5005L13512.4885,-3406.5013L13512.4928,-3406.5021L13512.4938,-3406.5017L13512.4945,-3406.5006L13512.4944,-3406.4997Z"/>
<path content="和歌山県,,,有田市,,30204" xlink:title="和歌山県" d="M13511.6108,-3406.8035L13511.6097,-3406.8021L13511.6074,-3406.8031L13511.6052,-3406.8058L13511.6056,-3406.8068L13511.6077,-3406.8073L13511.6097,-3406.8069L13511.6116,-3406.8054L13511.6108,-3406.8035Z"/>
<path content="和歌山県,,,有田市,,30204" xlink:title="和歌山県" d="M13511.408,-3406.8255L13511.4069,-3406.8248L13511.4048,-3406.825L13511.4031,-3406.8251L13511.4016,-3406.8257L13511.3997,-3406.8258L13511.3986,-3406.826L13511.3994,-3406.8266L13511.402,-3406.8272L13511.4032,-3406.8276L13511.4055,-3406.828L13511.4087,-3406.8278L13511.4089,-3406.8272L13511.408,-3406.8255Z"/>
<path content="和歌山県,,,有田市,,30204" xlink:title="和歌山県" d="M13512.7677,-3406.5177L13512.7661,-3406.517L13512.7656,-3406.5176L13512.765,-3406.5187L13512.7646,-3406.5203L13512.7649,-3406.5214L13512.7659,-3406.5223L13512.7671,-3406.5224L13512.769,-3406.5222L13512.7695,-3406.521L13512.7694,-3406.5199L13512.7677,-3406.5177Z"/>
<path content="和歌山県,,,有田市,,30204" xlink:title="和歌山県" d="M13511.7593,-3406.7752L13511.7566,-3406.7743L13511.7543,-3406.7747L13511.7541,-3406.7764L13511.7566,-3406.7784L13511.7581,-3406.7786L13511.7602,-3406.7778L13511.7593,-3406.7752Z"/>
<path content="和歌山県,,,有田市,,30204" xlink:title="和歌山県" d="M13512.3203,-3406.518L13512.3188,-3406.5176L13512.3188,-3406.5195L13512.3177,-3406.5203L13512.3169,-3406.5211L13512.3166,-3406.5223L13512.3167,-3406.5234L13512.3188,-3406.5241L13512.3201,-3406.5233L13512.3209,-3406.521L13512.3212,-3406.5189L13512.3203,-3406.518Z"/>
<path content="和歌山県,,,有田市,,30204" xlink:title="和歌山県" d="M13511.2316,-3406.8826L13511.226,-3406.8823L13511.2241,-3406.8826L13511.2235,-3406.8841L13511.2243,-3406.8851L13511.2269,-3406.8851L13511.2315,-3406.8839L13511.2323,-3406.8834L13511.2316,-3406.8826Z"/>
<path content="和歌山県,,,有田市,,30204" xlink:title="和歌山県" d="M13512.5027,-3406.4615L13512.5017,-3406.4611L13512.5,-3406.4621L13512.4994,-3406.4624L13512.4979,-3406.4647L13512.4981,-3406.4656L13512.4982,-3406.4661L13512.4991,-3406.466L13512.5,-3406.4658L13512.5018,-3406.4653L13512.5034,-3406.4645L13512.5033,-3406.4629L13512.5027,-3406.4615Z"/>
<path content="和歌山県,,,有田市,,30204" xlink:title="和歌山県" d="M13511.6816,-3406.7759L13511.6787,-3406.7742L13511.6761,-3406.7743L13511.6753,-3406.7756L13511.6755,-3406.7771L13511.6776,-3406.7776L13511.6805,-3406.7776L13511.6816,-3406.7759Z"/>
<path content="和歌山県,,,有田市,,30204" xlink:title="和歌山県" d="M13512.132,-3406.7543L13512.1286,-3406.7537L13512.1276,-3406.7548L13512.1276,-3406.7571L13512.1283,-3406.7576L13512.131,-3406.7566L13512.132,-3406.7562L13512.1341,-3406.7558L13512.1342,-3406.7551L13512.132,-3406.7543Z"/>
<path content="和歌山県,,,有田市,,30204" xlink:title="和歌山県" d="M13511.6257,-3406.8006L13511.6237,-3406.7999L13511.623,-3406.8008L13511.624,-3406.8019L13511.6242,-3406.8021L13511.6254,-3406.8035L13511.6263,-3406.8047L13511.6282,-3406.8046L13511.6295,-3406.8029L13511.6257,-3406.8006Z"/>
<path content="和歌山県,,,有田市,,30204" xlink:title="和歌山県" d="M13512.7572,-3406.5394L13512.756,-3406.539L13512.7542,-3406.5397L13512.7546,-3406.5419L13512.7564,-3406.5429L13512.7569,-3406.5437L13512.7585,-3406.5441L13512.7593,-3406.5441L13512.7598,-3406.5429L13512.7581,-3406.5422L13512.7575,-3406.5418L13512.758,-3406.5408L13512.7572,-3406.5394Z"/>
<path content="和歌山県,,,有田市,,30204" xlink:title="和歌山県" d="M13513.0417,-3406.4737L13513.0399,-3406.4726L13513.038,-3406.4728L13513.0375,-3406.474L13513.0383,-3406.4755L13513.039,-3406.4767L13513.041,-3406.4765L13513.0428,-3406.4756L13513.0417,-3406.4737Z"/>
<path content="和歌山県,,,有田市,,30204" xlink:title="和歌山県" d="M13512.6747,-3406.5212L13512.6744,-3406.5205L13512.6718,-3406.5206L13512.6694,-3406.5203L13512.6675,-3406.5192L13512.6656,-3406.5197L13512.6674,-3406.5215L13512.6701,-3406.5225L13512.6726,-3406.5222L13512.6737,-3406.5217L13512.6747,-3406.5212Z"/>
<path content="和歌山県,,,有田市,,30204" xlink:title="和歌山県" d="M13512.5312,-3406.4604L13512.5275,-3406.4593L13512.5255,-3406.4594L13512.525,-3406.4602L13512.5255,-3406.4616L13512.5298,-3406.4624L13512.5314,-3406.4622L13512.5319,-3406.4615L13512.5312,-3406.4604Z"/>
<path content="和歌山県,,,有田市,,30204" xlink:title="和歌山県" d="M13511.2367,-3406.864L13511.2355,-3406.863L13511.2336,-3406.8634L13511.2335,-3406.8635L13511.2319,-3406.8645L13511.2317,-3406.8653L13511.2329,-3406.8657L13511.2353,-3406.8665L13511.2365,-3406.8669L13511.2377,-3406.8662L13511.2367,-3406.864Z"/>
<path content="和歌山県,,,有田市,,30204" xlink:title="和歌山県" d="M13512.4943,-3406.4491L13512.4942,-3406.4463L13512.4908,-3406.4465L13512.4902,-3406.4478L13512.4901,-3406.4491L13512.4913,-3406.4501L13512.494,-3406.4499L13512.4943,-3406.4491Z"/>
<path content="和歌山県,,,有田市,,30204" xlink:title="和歌山県" d="M13511.7647,-3406.7801L13511.7639,-3406.778L13511.7612,-3406.7784L13511.7593,-3406.7795L13511.759,-3406.7808L13511.7614,-3406.7813L13511.7634,-3406.7811L13511.7647,-3406.7801Z"/>
<path content="和歌山県,,,有田市,,30204" xlink:title="和歌山県" d="M13512.7747,-3406.5143L13512.7738,-3406.514L13512.7713,-3406.5142L13512.7708,-3406.5153L13512.7711,-3406.5174L13512.7716,-3406.5177L13512.773,-3406.5176L13512.7746,-3406.5172L13512.775,-3406.5169L13512.7749,-3406.5146L13512.7747,-3406.5143Z"/>
<path content="和歌山県,,,有田市,,30204" xlink:title="和歌山県" d="M13512.7775,-3406.5083L13512.7773,-3406.5073L13512.7761,-3406.5074L13512.7741,-3406.508L13512.7724,-3406.5086L13512.7726,-3406.5094L13512.7734,-3406.5103L13512.7758,-3406.5108L13512.7766,-3406.5107L13512.7774,-3406.5102L13512.7775,-3406.5083Z"/>
<path content="和歌山県,,,有田市,,30204" xlink:title="和歌山県" d="M13511.7726,-3406.7765L13511.7713,-3406.7745L13511.7694,-3406.7745L13511.7679,-3406.7753L13511.7677,-3406.7768L13511.7689,-3406.7778L13511.7715,-3406.7774L13511.7726,-3406.7765Z"/>
<path content="和歌山県,,,有田市,,30204" xlink:title="和歌山県" d="M13511.4631,-3406.8127L13511.4632,-3406.8113L13511.4615,-3406.8113L13511.4595,-3406.8126L13511.4591,-3406.8135L13511.4594,-3406.8149L13511.4604,-3406.8154L13511.4624,-3406.8144L13511.4631,-3406.8127Z"/>
<path content="和歌山県,,,有田市,,30204" xlink:title="和歌山県" d="M13512.7616,-3406.5137L13512.7597,-3406.5132L13512.7586,-3406.514L13512.7581,-3406.5152L13512.7584,-3406.5168L13512.7594,-3406.5172L13512.7615,-3406.5169L13512.7616,-3406.5137Z"/>
<path content="和歌山県,,,有田市,,30204" xlink:title="和歌山県" d="M13512.5065,-3406.4563L13512.5047,-3406.4558L13512.5036,-3406.4565L13512.503,-3406.4576L13512.5033,-3406.459L13512.5041,-3406.4593L13512.5059,-3406.4588L13512.5071,-3406.458L13512.5076,-3406.4571L13512.5065,-3406.4563Z"/>
<path content="和歌山県,,,有田市,,30204" xlink:title="和歌山県" d="M13512.3838,-3406.5729L13512.3834,-3406.572L13512.3823,-3406.572L13512.3801,-3406.5731L13512.3799,-3406.5739L13512.3808,-3406.575L13512.3819,-3406.5757L13512.3832,-3406.5758L13512.3838,-3406.5729Z"/>
<path content="和歌山県,,,有田市,,30204" xlink:title="和歌山県" d="M13512.5825,-3406.4411L13512.5809,-3406.4411L13512.5802,-3406.4419L13512.5806,-3406.4435L13512.5807,-3406.4441L13512.5821,-3406.4443L13512.584,-3406.4431L13512.5844,-3406.4424L13512.5825,-3406.4411Z"/>
<path content="和歌山県,,,有田市,,30204" xlink:title="和歌山県" d="M13512.1558,-3406.7531L13512.1545,-3406.7521L13512.1523,-3406.7522L13512.1515,-3406.7527L13512.1515,-3406.7541L13512.1524,-3406.755L13512.153,-3406.7551L13512.1553,-3406.7541L13512.1558,-3406.7531Z"/>
<path content="和歌山県,,,有田市,,30204" xlink:title="和歌山県" d="M13512.527,-3406.4396L13512.5246,-3406.4387L13512.5241,-3406.4389L13512.524,-3406.4422L13512.5248,-3406.4427L13512.526,-3406.4424L13512.5268,-3406.4413L13512.527,-3406.4404L13512.527,-3406.4396Z"/>
<path content="和歌山県,,,有田市,,30204" xlink:title="和歌山県" d="M13511.7107,-3406.7762L13511.7097,-3406.7753L13511.7082,-3406.7757L13511.707,-3406.7774L13511.7066,-3406.7784L13511.707,-3406.7791L13511.7088,-3406.779L13511.7107,-3406.7762Z"/>
<path content="和歌山県,,,有田市,,30204" xlink:title="和歌山県" d="M13511.5264,-3406.8079L13511.5238,-3406.8075L13511.5211,-3406.8094L13511.522,-3406.8102L13511.5242,-3406.8103L13511.5257,-3406.8094L13511.5264,-3406.8079Z"/>
<path content="和歌山県,,,有田市,,30204" xlink:title="和歌山県" d="M13512.5449,-3406.4622L13512.5418,-3406.4612L13512.5409,-3406.4616L13512.5407,-3406.4628L13512.541,-3406.4634L13512.5433,-3406.4639L13512.5444,-3406.4639L13512.5452,-3406.4631L13512.5449,-3406.4622Z"/>
<path content="和歌山県,,,有田市,,30204" xlink:title="和歌山県" d="M13511.3614,-3406.8506L13511.3602,-3406.8503L13511.3592,-3406.8505L13511.3587,-3406.8512L13511.3598,-3406.8526L13511.3607,-3406.8532L13511.3624,-3406.8536L13511.3629,-3406.8527L13511.3626,-3406.8515L13511.3614,-3406.8506Z"/>
<path content="和歌山県,,,有田市,,30204" xlink:title="和歌山県" d="M13512.9616,-3406.4917L13512.9606,-3406.4913L13512.9599,-3406.4921L13512.9602,-3406.4941L13512.9614,-3406.4954L13512.9622,-3406.4956L13512.9633,-3406.4944L13512.9616,-3406.4917Z"/>
<path content="和歌山県,,,有田市,,30204" xlink:title="和歌山県" d="M13512.4583,-3406.5215L13512.4553,-3406.5203L13512.4541,-3406.5203L13512.4537,-3406.5206L13512.4544,-3406.5219L13512.4564,-3406.523L13512.4576,-3406.5231L13512.4584,-3406.5226L13512.4587,-3406.5216L13512.4583,-3406.5215Z"/>
<path content="和歌山県,,,有田市,,30204" xlink:title="和歌山県" d="M13512.4999,-3406.4672L13512.4981,-3406.4666L13512.4967,-3406.4666L13512.4962,-3406.4671L13512.4963,-3406.4682L13512.4967,-3406.4693L13512.4974,-3406.47L13512.4983,-3406.4701L13512.4999,-3406.4672Z"/>
<path content="和歌山県,,,有田市,,30204" xlink:title="和歌山県" d="M13512.7044,-3406.5302L13512.7026,-3406.5296L13512.7012,-3406.5303L13512.701,-3406.5314L13512.7022,-3406.5319L13512.7029,-3406.5322L13512.7044,-3406.532L13512.7053,-3406.5314L13512.7044,-3406.5302Z"/>
<path content="和歌山県,,,有田市,,30204" xlink:title="和歌山県" d="M13512.4982,-3406.4909L13512.4973,-3406.4902L13512.4964,-3406.4905L13512.4951,-3406.4915L13512.4959,-3406.4923L13512.4964,-3406.493L13512.4974,-3406.4933L13512.4977,-3406.4933L13512.4982,-3406.4929L13512.4987,-3406.4923L13512.4982,-3406.4909Z"/>
<path content="和歌山県,,,有田市,,30204" xlink:title="和歌山県" d="M13512.1792,-3406.7392L13512.1772,-3406.7381L13512.1748,-3406.7386L13512.1748,-3406.7392L13512.1758,-3406.7402L13512.1771,-3406.7404L13512.1782,-3406.7403L13512.1792,-3406.7392Z"/>
<path content="和歌山県,,,有田市,,30204" xlink:title="和歌山県" d="M13511.8292,-3406.742L13511.8272,-3406.7418L13511.8263,-3406.743L13511.8269,-3406.7439L13511.8285,-3406.7444L13511.8303,-3406.7431L13511.8292,-3406.742Z"/>
<path content="和歌山県,,,有田市,,30204" xlink:title="和歌山県" d="M13511.2119,-3406.87L13511.2105,-3406.8697L13511.2098,-3406.8699L13511.2092,-3406.871L13511.2099,-3406.8722L13511.2108,-3406.8723L13511.2123,-3406.872L13511.213,-3406.8714L13511.2119,-3406.87Z"/>
<path content="和歌山県,,,有田市,,30204" xlink:title="和歌山県" d="M13511.7359,-3406.7942L13511.7345,-3406.7928L13511.7328,-3406.793L13511.7324,-3406.7938L13511.7328,-3406.7954L13511.7342,-3406.7955L13511.7359,-3406.7942Z"/>
<path content="和歌山県,,,有田市,,30204" xlink:title="和歌山県" d="M13512.437,-3406.5219L13512.4361,-3406.5218L13512.4351,-3406.5234L13512.4355,-3406.5245L13512.4361,-3406.5248L13512.4371,-3406.5246L13512.4378,-3406.5244L13512.4379,-3406.5226L13512.437,-3406.5219Z"/>
<path content="和歌山県,,,有田市,,30204" xlink:title="和歌山県" d="M13512.4896,-3406.4476L13512.487,-3406.4455L13512.4857,-3406.4456L13512.4855,-3406.446L13512.488,-3406.4483L13512.4889,-3406.4486L13512.4898,-3406.4484L13512.4896,-3406.4476Z"/>
<path content="和歌山県,,,有田市,,30204" xlink:title="和歌山県" d="M13511.2405,-3406.867L13511.2397,-3406.866L13511.2368,-3406.8672L13511.2364,-3406.868L13511.2371,-3406.8689L13511.2399,-3406.8675L13511.2405,-3406.867Z"/>
<path content="和歌山県,,,有田市,,30204" xlink:title="和歌山県" d="M13512.2245,-3406.7213L13512.2236,-3406.7207L13512.2223,-3406.7207L13512.2218,-3406.7211L13512.2214,-3406.7219L13512.2215,-3406.7225L13512.2219,-3406.7228L13512.2229,-3406.7231L13512.2245,-3406.7221L13512.2245,-3406.7213Z"/>
<path content="和歌山県,,,有田市,,30204" xlink:title="和歌山県" d="M13512.4765,-3406.4982L13512.4767,-3406.4971L13512.4739,-3406.4973L13512.4729,-3406.4979L13512.4732,-3406.4988L13512.4742,-3406.4992L13512.4756,-3406.4988L13512.4765,-3406.4982Z"/>
<path content="和歌山県,,,有田市,,30204" xlink:title="和歌山県" d="M13512.4903,-3406.4798L13512.4905,-3406.4784L13512.4883,-3406.4788L13512.4872,-3406.4795L13512.4877,-3406.4802L13512.4888,-3406.4811L13512.4891,-3406.4811L13512.4903,-3406.4798Z"/>
<path content="和歌山県,,,有田市,,30204" xlink:title="和歌山県" d="M13511.251,-3406.9194L13511.2495,-3406.9188L13511.2476,-3406.919L13511.2473,-3406.9197L13511.2478,-3406.9207L13511.2493,-3406.9211L13511.251,-3406.9194Z"/>
<path content="和歌山県,,,有田市,,30204" xlink:title="和歌山県" d="M13511.2434,-3406.8636L13511.2425,-3406.8635L13511.2421,-3406.8648L13511.2429,-3406.8663L13511.2436,-3406.8667L13511.2446,-3406.8659L13511.2444,-3406.8644L13511.2434,-3406.8636Z"/>
<path content="和歌山県,,,有田市,,30204" xlink:title="和歌山県" d="M13511.7933,-3406.7546L13511.792,-3406.7528L13511.7907,-3406.7531L13511.7905,-3406.7541L13511.7911,-3406.755L13511.792,-3406.7556L13511.793,-3406.7552L13511.7933,-3406.7546Z"/>
<path content="和歌山県,,,有田市,,30204" xlink:title="和歌山県" d="M13511.2391,-3406.8627L13511.2381,-3406.8621L13511.2376,-3406.8625L13511.2379,-3406.8647L13511.2389,-3406.8655L13511.2392,-3406.8655L13511.24,-3406.8647L13511.2391,-3406.8627Z"/>
<path content="和歌山県,,,有田市,,30204" xlink:title="和歌山県" d="M13511.7811,-3406.7561L13511.7805,-3406.7552L13511.7785,-3406.7557L13511.7777,-3406.7567L13511.7786,-3406.7573L13511.7816,-3406.7568L13511.7811,-3406.7561Z"/>
<path content="和歌山県,,,有田市,,30204" xlink:title="和歌山県" d="M13512.735,-3406.5281L13512.7328,-3406.5272L13512.7316,-3406.5274L13512.7322,-3406.5287L13512.7339,-3406.5296L13512.7347,-3406.5293L13512.735,-3406.5281Z"/>
<path content="和歌山県,,,有田市,,30204" xlink:title="和歌山県" d="M13511.7855,-3406.7535L13511.7833,-3406.7533L13511.7822,-3406.7545L13511.7826,-3406.7558L13511.7842,-3406.7554L13511.7855,-3406.7535Z"/>
<path content="和歌山県,,,有田市,,30204" xlink:title="和歌山県" d="M13512.5273,-3406.4354L13512.5265,-3406.4348L13512.525,-3406.4351L13512.5244,-3406.4357L13512.5244,-3406.4365L13512.5255,-3406.4368L13512.5272,-3406.4368L13512.5273,-3406.4354Z"/>
<path content="和歌山県,,,有田市,,30204" xlink:title="和歌山県" d="M13512.2252,-3406.7256L13512.2246,-3406.7249L13512.223,-3406.7252L13512.222,-3406.7263L13512.2219,-3406.7268L13512.2226,-3406.7271L13512.2248,-3406.7267L13512.2252,-3406.7256Z"/>
<path content="和歌山県,,,有田市,,30204" xlink:title="和歌山県" d="M13512.7352,-3406.5252L13512.7337,-3406.525L13512.7342,-3406.5263L13512.7361,-3406.5274L13512.7372,-3406.5275L13512.7372,-3406.5265L13512.7352,-3406.5252Z"/>
<path content="和歌山県,,,有田市,,30204" xlink:title="和歌山県" d="M13512.2381,-3406.7208L13512.2369,-3406.72L13512.2358,-3406.7202L13512.2351,-3406.7208L13512.2349,-3406.7213L13512.2352,-3406.7216L13512.2361,-3406.7221L13512.2367,-3406.7221L13512.2377,-3406.7217L13512.2381,-3406.7208Z"/>
<path content="和歌山県,,,有田市,,30204" xlink:title="和歌山県" d="M13512.5491,-3406.4288L13512.5457,-3406.4273L13512.546,-3406.4283L13512.547,-3406.4296L13512.5481,-3406.43L13512.5491,-3406.4293L13512.5491,-3406.4288Z"/>
<path content="和歌山県,,,有田市,,30204" xlink:title="和歌山県" d="M13512.4858,-3406.4117L13512.4843,-3406.4109L13512.4831,-3406.411L13512.4828,-3406.4117L13512.4829,-3406.4125L13512.4845,-3406.413L13512.4858,-3406.4122L13512.4858,-3406.4117Z"/>
<path content="和歌山県,,,有田市,,30204" xlink:title="和歌山県" d="M13512.2337,-3406.7187L13512.233,-3406.7183L13512.2316,-3406.7184L13512.2314,-3406.7187L13512.2319,-3406.7195L13512.2326,-3406.7202L13512.234,-3406.7201L13512.2341,-3406.7193L13512.2337,-3406.7187Z"/>
<path content="和歌山県,,,有田市,,30204" xlink:title="和歌山県" d="M13511.366,-3406.8521L13511.3643,-3406.8515L13511.3634,-3406.8515L13511.3635,-3406.8519L13511.3643,-3406.853L13511.3652,-3406.8534L13511.3664,-3406.8531L13511.366,-3406.8521Z"/>
<path content="和歌山県,,,有田市,,30204" xlink:title="和歌山県" d="M13511.3877,-3406.8477L13511.3877,-3406.8471L13511.3858,-3406.8474L13511.385,-3406.8484L13511.3858,-3406.8491L13511.3869,-3406.8487L13511.3877,-3406.8477Z"/>
</g>
</svg>
