<?xml version="1.0" encoding="UTF-8"?>
<svg  xmlns="http://www.w3.org/2000/svg" xmlns:xlink="http://www.w3.org/1999/xlink" xmlns:go="http://purl.org/svgmap/profile" property="geometry,N03_001,N03_002,N03_003,N03_004,N03_005,N03_007" viewBox="13552.734375 -3392.578125 17.578125 17.578125" go:dataArea="13552.734375 -3392.578125 17.578125 17.578125" >
<metadata>
 <rdf:RDF xmlns:rdf="http://www.w3.org/1999/02/22-rdf-syntax-ns#" xmlns:crs="http://opengis.org/xmldtds/transformations.dtd" xmlns:svg="http://www.w3.org/svg" >
  <rdf:Description>
   <crs:CoordinateReferenceSystem rdf:resource="http://purl.org/crs/84" svg:transform="matrix(100.0,0.0,0.0,-100.0,0.0,0.0)" />
  </rdf:Description>
 </rdf:RDF>
</metadata>
<globalCoordinateSystem srsName="http://purl.org/crs/84" transform="matrix(100.0,0.0,0.0,-100.0,0.0,0.0)" />
<defs>
 <g id="p0" >
  <circle cx="0.0" cy="0.0" r="3" stroke="green" stroke-width="2.0" vector-effect="non-scaling-stroke" />
 </g>
</defs>
<g fill="#0000ff" fill-rule="evenodd" opacity="0.5" >
<path content="奈良県,,吉野郡,十津川村,,29449" xlink:title="奈良県" d="M13570.3125,-3392.5781L13570.3125,-3390.377L13570.2612,-3390.3785L13570.1045,-3390.3785L13570.0653,-3390.3759L13570,-3390.3581L13569.9932,-3390.3563L13569.8586,-3390.368L13569.8366,-3390.3676L13569.7974,-3390.3667L13569.7144,-3390.3471L13569.6799,-3390.3458L13569.6407,-3390.355L13569.6156,-3390.355L13569.5969,-3390.3513L13569.5686,-3390.3458L13569.4871,-3390.3393L13569.4495,-3390.3432L13569.4166,-3390.3497L13569.3956,-3390.3524L13569.2718,-3390.3458L13569.2311,-3390.338L13569.1887,-3390.3341L13569.1667,-3390.3344L13569.1119,-3390.3354L13569.0257,-3390.3524L13568.964,-3390.3665L13568.8998,-3390.3811L13568.7791,-3390.4046L13568.7491,-3390.4055L13568.6883,-3390.4072L13568.5958,-3390.3955L13568.5378,-3390.372L13568.519,-3390.3484L13568.4892,-3390.2974L13568.4641,-3390.2648L13568.3779,-3390.2243L13568.351,-3390.2029L13568.3463,-3390.1846L13568.3714,-3390.1271L13568.3698,-3390.1062L13568.3333,-3390.0669L13568.3322,-3390.0657L13568.2914,-3390.0356L13568.2663,-3390.0095L13568.2628,-3390L13568.2551,-3389.979L13568.2347,-3389.9568L13568.1923,-3389.9293L13568.1563,-3389.9149L13568.0403,-3389.8992L13568.0123,-3389.884L13568.0043,-3389.8796L13567.9526,-3389.8444L13567.8711,-3389.8169L13567.8109,-3389.8117L13567.7733,-3389.8144L13567.6887,-3389.8353L13567.6072,-3389.834L13567.5711,-3389.8366L13567.5,-3389.8601L13567.4567,-3389.8745L13567.3799,-3389.8797L13567.3345,-3389.8889L13567.2462,-3389.9349L13567.1913,-3389.9702L13567.1641,-3390L13567.1568,-3390.0081L13567.1176,-3390.0342L13567.0957,-3390.0407L13567.0129,-3390.028L13566.9515,-3390.0185L13566.7879,-3390.0028L13566.7472,-3390L13566.6667,-3389.9944L13566.5983,-3389.9897L13566.3898,-3389.9557L13566.335,-3389.9374L13566.2657,-3389.8886L13566.1639,-3389.8141L13566.0604,-3389.7566L13566.0612,-3389.7484L13566.062,-3389.7396L13566.0746,-3389.7213L13566.0877,-3389.7108L13566.1091,-3389.6938L13566.1639,-3389.6638L13566.1749,-3389.6494L13566.2126,-3389.5691L13566.2424,-3389.4462L13566.2596,-3389.3884L13566.2643,-3389.3518L13566.2581,-3389.2838L13566.2507,-3389.2503L13566.2324,-3389.1667L13566.2267,-3389.1409L13566.2142,-3389.0795L13566.2157,-3389.0416L13566.2251,-3388.9527L13566.2267,-3388.9266L13566.2204,-3388.9083L13566.1854,-3388.8658L13566.1747,-3388.8529L13566.0932,-3388.7574L13566.076,-3388.7287L13566.0395,-3388.6774L13565.9925,-3388.6434L13565.9643,-3388.6291L13565.9235,-3388.6277L13565.8749,-3388.6147L13565.8333,-3388.6003L13565.8107,-3388.5924L13565.737,-3388.5702L13565.7198,-3388.5611L13565.6947,-3388.4996L13565.6632,-3388.4404L13565.6601,-3388.4025L13565.6491,-3388.3737L13565.6162,-3388.3384L13565.6125,-3388.3333L13565.5974,-3388.3123L13565.5958,-3388.2407L13565.5939,-3388.1963L13565.5927,-3388.1689L13565.5911,-3388.1571L13565.5692,-3388.1506L13565.4637,-3388.1256L13565.3869,-3388.0981L13565.2725,-3388.0785L13565.1393,-3388.0654L13565.1126,-3388.0484L13565.0468,-3387.9831L13565.028,-3387.9517L13565.0139,-3387.8876L13565,-3387.8674L13564.9759,-3387.8322L13564.9414,-3387.7774L13564.8537,-3387.746L13564.8035,-3387.6937L13564.7988,-3387.6898L13564.7816,-3387.6885L13564.7439,-3387.6963L13564.6577,-3387.7264L13564.5459,-3387.7434L13564.4957,-3387.7434L13564.3656,-3387.7133L13564.3311,-3387.695L13564.2913,-3387.6602L13564.2653,-3387.6375L13564.2559,-3387.631L13564.2152,-3387.6466L13564.1667,-3387.6723L13564.1535,-3387.6793L13564.1164,-3387.6989L13564.0506,-3387.7447L13564.0234,-3387.7604L13563.9983,-3387.7617L13563.9043,-3387.7447L13563.8807,-3387.7447L13563.8071,-3387.7722L13563.7836,-3387.7682L13563.7679,-3387.7565L13563.7538,-3387.7513L13563.7193,-3387.7539L13563.7129,-3387.7524L13563.6691,-3387.7421L13563.6261,-3387.7235L13563.5985,-3387.7116L13563.5783,-3387.7029L13563.5547,-3387.6951L13563.5245,-3387.6684L13563.4289,-3387.5547L13563.3962,-3387.5147L13563.3842,-3387.5L13563.3819,-3387.4972L13563.3678,-3387.4881L13563.3365,-3387.4802L13563.3333,-3387.4806L13563.2597,-3387.4881L13563.2283,-3387.4789L13563.1795,-3387.4551L13563.1481,-3387.4433L13563.0447,-3387.4485L13563.0321,-3387.4459L13562.9647,-3387.3792L13562.935,-3387.3282L13562.9047,-3387.3099L13562.82,-3387.3034L13562.7714,-3387.306L13562.5803,-3387.3465L13562.5214,-3387.3481L13562.5,-3387.3455L13562.4579,-3387.3405L13562.4161,-3387.3263L13562.3676,-3387.3099L13562.3319,-3387.3003L13562.2891,-3387.2965L13562.2531,-3387.2988L13562.2397,-3387.3019L13562.2312,-3387.3066L13562.2193,-3387.3195L13562.1905,-3387.3132L13562.1523,-3387.2943L13562.116,-3387.2611L13562.0745,-3387.192L13562.0417,-3387.1804L13561.9739,-3387.1904L13561.9536,-3387.1934L13561.7964,-3387.2064L13561.786,-3387.2107L13561.786,-3387.2194L13561.7867,-3387.2228L13561.7877,-3387.228L13561.7999,-3387.2874L13561.8069,-3387.3436L13561.8017,-3387.4375L13561.8086,-3387.4605L13561.8276,-3387.4807L13561.8452,-3387.5L13561.8553,-3387.5109L13561.8846,-3387.5484L13561.9486,-3387.6252L13562.0212,-3387.6914L13562.0644,-3387.7101L13562.1301,-3387.7418L13562.2193,-3387.8163L13562.2369,-3387.8249L13562.2753,-3387.8572L13562.2891,-3387.8962L13562.3203,-3387.9135L13562.3307,-3387.9251L13562.3463,-3387.9584L13562.3567,-3388.0118L13562.3706,-3388.0378L13562.3758,-3388.0754L13562.3656,-3388.1149L13562.3361,-3388.1597L13562.3326,-3388.1829L13562.3465,-3388.2074L13562.3846,-3388.2508L13562.4227,-3388.2841L13562.4834,-3388.2985L13562.4955,-3388.3017L13562.5,-3388.303L13562.5372,-3388.313L13562.5718,-3388.3028L13562.6047,-3388.2971L13562.6498,-3388.3231L13562.6553,-3388.3333L13562.6567,-3388.3361L13562.6533,-3388.365L13562.6567,-3388.3896L13562.6741,-3388.4494L13562.6775,-3388.474L13562.6481,-3388.5478L13562.6238,-3388.6417L13562.629,-3388.7386L13562.6236,-3388.7449L13562.5941,-3388.7536L13562.5751,-3388.7681L13562.5664,-3388.7868L13562.5629,-3388.8591L13562.5456,-3388.8866L13562.5144,-3388.9097L13562.5,-3388.9179L13562.4711,-3388.9343L13562.452,-3388.9502L13562.4381,-3388.9762L13562.4333,-3389.0092L13562.4276,-3389.0489L13562.412,-3389.0836L13562.3739,-3389.1183L13562.3427,-3389.153L13562.3358,-3389.1667L13562.334,-3389.1703L13562.3305,-3389.1992L13562.2993,-3389.2749L13562.3028,-3389.2923L13562.2664,-3389.392L13562.2543,-3389.4787L13562.2543,-3389.5004L13562.2751,-3389.6267L13562.2907,-3389.66L13562.2924,-3389.6846L13562.2682,-3389.7207L13562.2699,-3389.7366L13562.2839,-3389.7844L13562.2872,-3389.7959L13562.2786,-3389.806L13562.2193,-3389.8399L13562.1614,-3389.8527L13562.0964,-3389.8743L13562.0505,-3389.8968L13562.0029,-3389.9201L13561.948,-3389.9429L13561.9093,-3389.9429L13561.8763,-3389.9385L13561.8593,-3389.9362L13561.8189,-3389.9268L13561.7898,-3389.9213L13561.7253,-3389.9093L13561.6667,-3389.9L13561.5974,-3389.8891L13561.549,-3389.8837L13561.5361,-3389.8864L13561.4813,-3389.9308L13561.4442,-3389.9551L13561.4199,-3389.9577L13561.3974,-3389.9564L13561.3712,-3389.9456L13561.2921,-3389.8998L13561.2534,-3389.8837L13561.2453,-3389.8823L13561.2232,-3389.8885L13561.1921,-3389.8971L13561.134,-3389.9308L13561.0804,-3389.9524L13561.0471,-3389.9557L13561.0256,-3389.9578L13560.9772,-3389.9592L13560.8771,-3389.9592L13560.8333,-3389.9459L13560.8238,-3389.943L13560.751,-3389.9374L13560.7138,-3389.926L13560.6719,-3389.9132L13560.6203,-3389.9119L13560.5993,-3389.9253L13560.5461,-3389.9644L13560.505,-3390L13560.4566,-3390.0421L13560.4017,-3390.1034L13560.3655,-3390.1248L13560.2879,-3390.1527L13560.2624,-3390.1672L13560.216,-3390.204L13560.1943,-3390.2212L13560.1113,-3390.2566L13560.1194,-3390.2704L13560.1358,-3390.3046L13560.1579,-3390.3507L13560.1801,-3390.4603L13560.1882,-3390.5209L13560.1831,-3390.5503L13560.174,-3390.5747L13560.1678,-3390.5849L13560.1477,-3390.6179L13560.0993,-3390.6684L13560.0609,-3390.7199L13560.0478,-3390.7612L13560.0246,-3390.7941L13560,-3390.8253L13559.9994,-3390.826L13559.9974,-3390.8333L13559.9974,-3390.8336L13560,-3390.8424L13560.0004,-3390.8438L13560.0186,-3390.8547L13560.1105,-3390.891L13560.1367,-3390.9162L13560.1731,-3390.9432L13560.2034,-3390.9625L13560.2338,-3390.9686L13560.2691,-3390.9719L13560.2933,-3390.982L13560.3226,-3390.9997L13560.3267,-3391.0007L13560.3458,-3391.0056L13560.4073,-3391.0157L13560.4587,-3391.0363L13560.5531,-3391.0752L13560.5642,-3391.0807L13560.6108,-3391.1362L13560.672,-3391.1902L13560.7687,-3391.2459L13560.7986,-3391.2589L13560.8231,-3391.2672L13560.8333,-3391.2653L13560.849,-3391.2624L13560.8641,-3391.2596L13560.8935,-3391.2575L13560.9564,-3391.2575L13560.9763,-3391.2662L13561.0234,-3391.2868L13561.0366,-3391.2993L13561.053,-3391.3328L13561.0611,-3391.3667L13561.0584,-3391.3937L13561.0124,-3391.4944L13561.0111,-3391.5063L13561.0107,-3391.5101L13561.0101,-3391.515L13561.0083,-3391.5316L13561.019,-3391.5569L13561.0441,-3391.6168L13561.0557,-3391.6444L13561.0622,-3391.6667L13561.072,-3391.6999L13561.0801,-3391.7518L13561.0774,-3391.8064L13561.0774,-3391.8707L13561.0869,-3391.8831L13561.1221,-3391.9034L13561.1329,-3391.9124L13561.141,-3391.9564L13561.1491,-3391.979L13561.1664,-3392.0009L13561.2013,-3392.0366L13561.2104,-3392.0669L13561.2617,-3392.1341L13561.2688,-3392.1474L13561.2706,-3392.1581L13561.2343,-3392.2312L13561.2325,-3392.2489L13561.2432,-3392.335L13561.2474,-3392.3688L13561.2476,-3392.3894L13561.2485,-3392.4012L13561.2499,-3392.4082L13561.2567,-3392.4174L13561.2652,-3392.4233L13561.2767,-3392.4308L13561.2983,-3392.444L13561.3399,-3392.4721L13561.3833,-3392.4971L13561.387,-3392.5L13561.4054,-3392.5141L13561.4116,-3392.5252L13561.4136,-3392.5353L13561.4055,-3392.5692L13561.404,-3392.5781Z"/>
<path content="和歌山県,,,田辺市,,30206" xlink:title="和歌山県" d="M13561.404,-3392.5781L13561.4055,-3392.5692L13561.4136,-3392.5353L13561.4116,-3392.5252L13561.4054,-3392.5141L13561.387,-3392.5L13561.3833,-3392.4971L13561.3399,-3392.4721L13561.2983,-3392.444L13561.2767,-3392.4308L13561.2652,-3392.4233L13561.2567,-3392.4174L13561.2499,-3392.4082L13561.2485,-3392.4012L13561.2476,-3392.3894L13561.2474,-3392.3688L13561.2432,-3392.335L13561.2325,-3392.2489L13561.2343,-3392.2312L13561.2706,-3392.1581L13561.2688,-3392.1474L13561.2617,-3392.1341L13561.2104,-3392.0669L13561.2013,-3392.0366L13561.1664,-3392.0009L13561.1491,-3391.979L13561.141,-3391.9564L13561.1329,-3391.9124L13561.1221,-3391.9034L13561.0869,-3391.8831L13561.0774,-3391.8707L13561.0774,-3391.8064L13561.0801,-3391.7518L13561.072,-3391.6999L13561.0622,-3391.6667L13561.0557,-3391.6444L13561.0441,-3391.6168L13561.019,-3391.5569L13561.0083,-3391.5316L13561.0101,-3391.515L13561.0107,-3391.5101L13561.0111,-3391.5063L13561.0124,-3391.4944L13561.0584,-3391.3937L13561.0611,-3391.3667L13561.053,-3391.3328L13561.0366,-3391.2993L13561.0234,-3391.2868L13560.9763,-3391.2662L13560.9564,-3391.2575L13560.8935,-3391.2575L13560.8641,-3391.2596L13560.849,-3391.2624L13560.8333,-3391.2653L13560.8231,-3391.2672L13560.7986,-3391.2589L13560.7687,-3391.2459L13560.672,-3391.1902L13560.6108,-3391.1362L13560.5642,-3391.0807L13560.5531,-3391.0752L13560.4587,-3391.0363L13560.4073,-3391.0157L13560.3458,-3391.0056L13560.3267,-3391.0007L13560.3226,-3390.9997L13560.2933,-3390.982L13560.2691,-3390.9719L13560.2338,-3390.9686L13560.2034,-3390.9625L13560.1731,-3390.9432L13560.1367,-3390.9162L13560.1105,-3390.891L13560.0186,-3390.8547L13560.0004,-3390.8438L13560,-3390.8424L13559.9974,-3390.8336L13559.9974,-3390.8333L13559.9994,-3390.826L13560,-3390.8253L13560.0246,-3390.7941L13560.0478,-3390.7612L13560.0609,-3390.7199L13560.0993,-3390.6684L13560.1477,-3390.6179L13560.1678,-3390.5849L13560.174,-3390.5747L13560.1831,-3390.5503L13560.1882,-3390.5209L13560.1801,-3390.4603L13560.1579,-3390.3507L13560.1358,-3390.3046L13560.1194,-3390.2704L13560.1113,-3390.2566L13560.1943,-3390.2212L13560.216,-3390.204L13560.2624,-3390.1672L13560.2879,-3390.1527L13560.3655,-3390.1248L13560.4017,-3390.1034L13560.4566,-3390.0421L13560.505,-3390L13560.5461,-3389.9644L13560.5993,-3389.9253L13560.6203,-3389.9119L13560.6719,-3389.9132L13560.7138,-3389.926L13560.751,-3389.9374L13560.8238,-3389.943L13560.8333,-3389.9459L13560.8771,-3389.9592L13560.9772,-3389.9592L13561.0256,-3389.9578L13561.0471,-3389.9557L13561.0804,-3389.9524L13561.134,-3389.9308L13561.1921,-3389.8971L13561.2232,-3389.8885L13561.2453,-3389.8823L13561.2534,-3389.8837L13561.2921,-3389.8998L13561.3712,-3389.9456L13561.3974,-3389.9564L13561.4199,-3389.9577L13561.4442,-3389.9551L13561.4813,-3389.9308L13561.5361,-3389.8864L13561.549,-3389.8837L13561.5974,-3389.8891L13561.6667,-3389.9L13561.7253,-3389.9093L13561.7898,-3389.9213L13561.8189,-3389.9268L13561.8593,-3389.9362L13561.8763,-3389.9385L13561.9093,-3389.9429L13561.948,-3389.9429L13562.0029,-3389.9201L13562.0505,-3389.8968L13562.0964,-3389.8743L13562.1614,-3389.8527L13562.2193,-3389.8399L13562.2786,-3389.806L13562.2872,-3389.7959L13562.2839,-3389.7844L13562.2699,-3389.7366L13562.2682,-3389.7207L13562.2924,-3389.6846L13562.2907,-3389.66L13562.2751,-3389.6267L13562.2543,-3389.5004L13562.2543,-3389.4787L13562.2664,-3389.392L13562.3028,-3389.2923L13562.2993,-3389.2749L13562.3305,-3389.1992L13562.334,-3389.1703L13562.3358,-3389.1667L13562.3427,-3389.153L13562.3739,-3389.1183L13562.412,-3389.0836L13562.4276,-3389.0489L13562.4333,-3389.0092L13562.4381,-3388.9762L13562.452,-3388.9502L13562.4711,-3388.9343L13562.5,-3388.9179L13562.5144,-3388.9097L13562.5456,-3388.8866L13562.5629,-3388.8591L13562.5664,-3388.7868L13562.5751,-3388.7681L13562.5941,-3388.7536L13562.6236,-3388.7449L13562.629,-3388.7386L13562.6238,-3388.6417L13562.6481,-3388.5478L13562.6775,-3388.474L13562.6741,-3388.4494L13562.6567,-3388.3896L13562.6533,-3388.365L13562.6567,-3388.3361L13562.6553,-3388.3333L13562.6498,-3388.3231L13562.6047,-3388.2971L13562.5718,-3388.3028L13562.5372,-3388.313L13562.5,-3388.303L13562.4955,-3388.3017L13562.4834,-3388.2985L13562.4227,-3388.2841L13562.3846,-3388.2508L13562.3465,-3388.2074L13562.3326,-3388.1829L13562.3361,-3388.1597L13562.3656,-3388.1149L13562.3758,-3388.0754L13562.3706,-3388.0378L13562.3567,-3388.0118L13562.3463,-3387.9584L13562.3307,-3387.9251L13562.3203,-3387.9135L13562.2891,-3387.8962L13562.2753,-3387.8572L13562.2369,-3387.8249L13562.2193,-3387.8163L13562.1301,-3387.7418L13562.0644,-3387.7101L13562.0212,-3387.6914L13561.9486,-3387.6252L13561.8846,-3387.5484L13561.8553,-3387.5109L13561.8452,-3387.5L13561.8276,-3387.4807L13561.8086,-3387.4605L13561.8017,-3387.4375L13561.8069,-3387.3436L13561.7999,-3387.2874L13561.7877,-3387.228L13561.7867,-3387.2228L13561.786,-3387.2194L13561.786,-3387.2107L13561.7964,-3387.2064L13561.9536,-3387.1934L13561.9739,-3387.1904L13562.0417,-3387.1804L13562.0745,-3387.192L13562.116,-3387.2611L13562.1523,-3387.2943L13562.1905,-3387.3132L13562.2193,-3387.3195L13562.2312,-3387.3066L13562.2397,-3387.3019L13562.2531,-3387.2988L13562.2891,-3387.2965L13562.3319,-3387.3003L13562.3676,-3387.3099L13562.4161,-3387.3263L13562.4579,-3387.3405L13562.5,-3387.3455L13562.5214,-3387.3481L13562.5803,-3387.3465L13562.7714,-3387.306L13562.82,-3387.3034L13562.9047,-3387.3099L13562.935,-3387.3282L13562.9647,-3387.3792L13563.0321,-3387.4459L13563.0447,-3387.4485L13563.1481,-3387.4433L13563.1795,-3387.4551L13563.2283,-3387.4789L13563.2597,-3387.4881L13563.3333,-3387.4806L13563.3365,-3387.4802L13563.3678,-3387.4881L13563.3819,-3387.4972L13563.3842,-3387.5L13563.3962,-3387.5147L13563.4289,-3387.5547L13563.5245,-3387.6684L13563.5547,-3387.6951L13563.5783,-3387.7029L13563.5985,-3387.7116L13563.6261,-3387.7235L13563.6691,-3387.7421L13563.7129,-3387.7524L13563.7193,-3387.7539L13563.7538,-3387.7513L13563.7679,-3387.7565L13563.7836,-3387.7682L13563.8071,-3387.7722L13563.8807,-3387.7447L13563.9043,-3387.7447L13563.9983,-3387.7617L13564.0234,-3387.7604L13564.0506,-3387.7447L13564.1164,-3387.6989L13564.1535,-3387.6793L13564.1667,-3387.6723L13564.2152,-3387.6466L13564.2559,-3387.631L13564.2653,-3387.6375L13564.2913,-3387.6602L13564.3311,-3387.695L13564.3656,-3387.7133L13564.4957,-3387.7434L13564.5459,-3387.7434L13564.6577,-3387.7264L13564.7439,-3387.6963L13564.7816,-3387.6885L13564.7988,-3387.6898L13564.8035,-3387.6937L13564.8537,-3387.746L13564.9414,-3387.7774L13564.9759,-3387.8322L13565,-3387.8674L13565.0139,-3387.8876L13565.028,-3387.9517L13565.0468,-3387.9831L13565.1126,-3388.0484L13565.1393,-3388.0654L13565.2725,-3388.0785L13565.3869,-3388.0981L13565.4637,-3388.1256L13565.5692,-3388.1506L13565.5911,-3388.1571L13565.5927,-3388.1689L13565.5939,-3388.1963L13565.5958,-3388.2407L13565.5974,-3388.3123L13565.6125,-3388.3333L13565.6162,-3388.3384L13565.6491,-3388.3737L13565.6601,-3388.4025L13565.6632,-3388.4404L13565.6947,-3388.4996L13565.7198,-3388.5611L13565.737,-3388.5702L13565.8107,-3388.5924L13565.8333,-3388.6003L13565.8749,-3388.6147L13565.9235,-3388.6277L13565.9643,-3388.6291L13565.9925,-3388.6434L13566.0395,-3388.6774L13566.076,-3388.7287L13566.0932,-3388.7574L13566.1747,-3388.8529L13566.1854,-3388.8658L13566.2204,-3388.9083L13566.2267,-3388.9266L13566.2251,-3388.9527L13566.2157,-3389.0416L13566.2142,-3389.0795L13566.2267,-3389.1409L13566.2324,-3389.1667L13566.2507,-3389.2503L13566.2581,-3389.2838L13566.2643,-3389.3518L13566.2596,-3389.3884L13566.2424,-3389.4462L13566.2126,-3389.5691L13566.1749,-3389.6494L13566.1639,-3389.6638L13566.1091,-3389.6938L13566.0877,-3389.7108L13566.0746,-3389.7213L13566.062,-3389.7396L13566.0612,-3389.7484L13566.0604,-3389.7566L13566.1639,-3389.8141L13566.2657,-3389.8886L13566.335,-3389.9374L13566.3898,-3389.9557L13566.5983,-3389.9897L13566.6667,-3389.9944L13566.7472,-3390L13566.7879,-3390.0028L13566.9515,-3390.0185L13567.0129,-3390.028L13567.0957,-3390.0407L13567.1176,-3390.0342L13567.1568,-3390.0081L13567.1641,-3390L13567.1913,-3389.9702L13567.2462,-3389.9349L13567.3345,-3389.8889L13567.3799,-3389.8797L13567.4567,-3389.8745L13567.5,-3389.8601L13567.5711,-3389.8366L13567.6072,-3389.834L13567.6887,-3389.8353L13567.7733,-3389.8144L13567.8109,-3389.8117L13567.8711,-3389.8169L13567.9526,-3389.8444L13568.0043,-3389.8796L13568.0123,-3389.884L13568.0403,-3389.8992L13568.1563,-3389.9149L13568.1923,-3389.9293L13568.2347,-3389.9568L13568.2551,-3389.979L13568.2628,-3390L13568.2663,-3390.0095L13568.2914,-3390.0356L13568.3322,-3390.0657L13568.3333,-3390.0669L13568.3698,-3390.1062L13568.3714,-3390.1271L13568.3463,-3390.1846L13568.351,-3390.2029L13568.3779,-3390.2243L13568.4641,-3390.2648L13568.4892,-3390.2974L13568.519,-3390.3484L13568.5378,-3390.372L13568.5958,-3390.3955L13568.6883,-3390.4072L13568.7491,-3390.4055L13568.7791,-3390.4046L13568.8998,-3390.3811L13568.964,-3390.3665L13569.0257,-3390.3524L13569.1119,-3390.3354L13569.1667,-3390.3344L13569.1887,-3390.3341L13569.2311,-3390.338L13569.2718,-3390.3458L13569.3956,-3390.3524L13569.4166,-3390.3497L13569.4495,-3390.3432L13569.4871,-3390.3393L13569.5686,-3390.3458L13569.5969,-3390.3513L13569.6156,-3390.355L13569.6407,-3390.355L13569.6799,-3390.3458L13569.7144,-3390.3471L13569.7974,-3390.3667L13569.8366,-3390.3676L13569.8586,-3390.368L13569.9932,-3390.3563L13570,-3390.3581L13570.0653,-3390.3759L13570.1045,-3390.3785L13570.2612,-3390.3785L13570.3125,-3390.377L13570.3125,-3375L13552.7344,-3375L13552.7344,-3392.5781Z"/>
</g>
</svg>
