<?xml version="1.0" encoding="UTF-8"?>
<svg  xmlns="http://www.w3.org/2000/svg" xmlns:xlink="http://www.w3.org/1999/xlink" xmlns:go="http://purl.org/svgmap/profile" property="geometry,N03_001,N03_002,N03_003,N03_004,N03_005,N03_007" viewBox="13587.890625 -3489.2578125 8.7890625 8.7890625" go:dataArea="13587.890625 -3489.2578125 8.7890625 8.7890625" >
<metadata>
 <rdf:RDF xmlns:rdf="http://www.w3.org/1999/02/22-rdf-syntax-ns#" xmlns:crs="http://opengis.org/xmldtds/transformations.dtd" xmlns:svg="http://www.w3.org/svg" >
  <rdf:Description>
   <crs:CoordinateReferenceSystem rdf:resource="http://purl.org/crs/84" svg:transform="matrix(100.0,0.0,0.0,-100.0,0.0,0.0)" />
  </rdf:Description>
 </rdf:RDF>
</metadata>
<globalCoordinateSystem srsName="http://purl.org/crs/84" transform="matrix(100.0,0.0,0.0,-100.0,0.0,0.0)" />
<defs>
 <g id="p0" >
  <circle cx="0.0" cy="0.0" r="3" stroke="green" stroke-width="2.0" vector-effect="non-scaling-stroke" />
 </g>
</defs>
<g fill="#0000ff" fill-rule="evenodd" opacity="0.5" >
<path content="滋賀県,,,大津市,,25201" xlink:title="滋賀県" d="M13596.6797,-3489.2578L13596.6797,-3488.4981L13596.6667,-3488.4341L13596.6601,-3488.4019L13596.6509,-3488.3649L13596.6431,-3488.3333L13596.6373,-3488.3101L13596.6259,-3488.2972L13596.6046,-3488.2801L13596.5988,-3488.2736L13596.5838,-3488.2095L13596.5746,-3488.1767L13596.5653,-3488.1644L13596.5311,-3488.1444L13596.5026,-3488.1291L13596.4876,-3488.123L13596.4726,-3488.1019L13596.4563,-3488.0462L13596.4306,-3488.0016L13596.4036,-3487.9811L13596.3914,-3487.9758L13596.3793,-3487.9758L13596.3359,-3487.9893L13596.2763,-3487.9918L13596.2669,-3487.9922L13596.2153,-3487.9969L13596.1811,-3487.9998L13596.1099,-3488.0227L13596.0729,-3488.0432L13596.0273,-3488.0549L13595.9639,-3488.0573L13595.9231,-3488.0614L13595.8598,-3488.0755L13595.8333,-3488.0769L13595.7921,-3488.0791L13595.7515,-3488.0802L13595.5889,-3488.0761L13595.5441,-3488.062L13595.4973,-3488.0057L13595.4861,-3487.9921L13595.4356,-3487.9261L13595.4035,-3487.9027L13595.3665,-3487.8845L13595.3561,-3487.8805L13595.3515,-3487.8787L13595.3488,-3487.8777L13595.3387,-3487.8739L13595.3088,-3487.8745L13595.2958,-3487.877L13595.2718,-3487.8817L13595.2424,-3487.8874L13595.1479,-3487.9112L13595.0907,-3487.9255L13595,-3487.9473L13594.9608,-3487.9567L13594.9459,-3487.9543L13594.9323,-3487.9367L13594.8989,-3487.8898L13594.871,-3487.8597L13594.8226,-3487.8151L13594.7634,-3487.7811L13594.7293,-3487.7664L13594.7179,-3487.7664L13594.6709,-3487.7823L13594.6193,-3487.7957L13594.4969,-3487.8016L13594.4129,-3487.7975L13594.3773,-3487.8016L13594.3701,-3487.8037L13594.3466,-3487.8109L13594.3235,-3487.8177L13594.3267,-3487.8219L13594.3247,-3487.8252L13594.3104,-3487.832L13594.2521,-3487.8707L13594.1949,-3487.9136L13594.1667,-3487.9444L13594.156,-3487.9561L13594.1396,-3487.967L13594.1018,-3487.9737L13594.0548,-3487.9864L13594.0293,-3488.0041L13594.0078,-3488.0276L13593.9976,-3488.0495L13593.9748,-3488.1133L13593.9659,-3488.1383L13593.9649,-3488.177L13593.9792,-3488.2023L13594.0129,-3488.2158L13594.0548,-3488.2242L13594.064,-3488.2292L13594.0681,-3488.241L13594.0732,-3488.2599L13594.0661,-3488.3079L13594.0719,-3488.3333L13594.0834,-3488.3829L13594.0916,-3488.4148L13594.1151,-3488.4392L13594.1192,-3488.4494L13594.1182,-3488.4733L13594.1136,-3488.4866L13594.0988,-3488.5297L13594.0599,-3488.5897L13594.0435,-3488.6428L13594.0414,-3488.686L13594.0486,-3488.7517L13594.0353,-3488.798L13593.9975,-3488.8275L13593.9577,-3488.8511L13593.9566,-3488.8637L13593.9975,-3488.9188L13594.0016,-3488.9542L13593.9975,-3489.0073L13594.0231,-3489.0469L13594.0353,-3489.0943L13594.0271,-3489.1575L13594.029,-3489.1667L13594.0292,-3489.1676L13594.0394,-3489.1786L13594.0404,-3489.1878L13594.0261,-3489.2173L13594.0271,-3489.2378L13594.0362,-3489.2578L13593.8186,-3489.2578L13593.8154,-3489.2553L13593.7867,-3489.2376L13593.7069,-3489.2154L13593.6079,-3489.1667L13593.6026,-3489.1641L13593.5484,-3489.1093L13593.5361,-3489.0879L13593.5146,-3489.0391L13593.4829,-3488.9608L13593.4656,-3488.922L13593.4564,-3488.9119L13593.4387,-3488.9041L13593.4244,-3488.8754L13593.3763,-3488.851L13593.3763,-3488.8508L13593.3722,-3488.8359L13593.371,-3488.8311L13593.363,-3488.7997L13593.3354,-3488.7879L13593.3333,-3488.7875L13593.2864,-3488.7794L13593.2465,-3488.7811L13593.2199,-3488.7921L13593.1756,-3488.8038L13593.1663,-3488.8148L13593.1398,-3488.8426L13593.1163,-3488.8527L13593.0846,-3488.8636L13593.0611,-3488.8611L13593.0455,-3488.8492L13593.0447,-3488.8486L13593.0325,-3488.8392L13592.9885,-3488.8282L13592.9537,-3488.8215L13592.9231,-3488.8215L13592.9006,-3488.8207L13592.871,-3488.8106L13592.8628,-3488.7971L13592.8472,-3488.7647L13592.8349,-3488.7437L13592.8074,-3488.7142L13592.7808,-3488.6872L13592.7573,-3488.6746L13592.7429,-3488.6737L13592.738,-3488.6877L13592.7374,-3488.6895L13592.7358,-3488.694L13592.7256,-3488.6973L13592.7091,-3488.6914L13592.7019,-3488.6855L13592.6927,-3488.6611L13592.6814,-3488.6341L13592.6508,-3488.6265L13592.6344,-3488.6139L13592.6231,-3488.5841L13592.5832,-3488.5622L13592.5804,-3488.5621L13592.5004,-3488.5597L13592.5,-3488.5594L13592.4626,-3488.5394L13592.4524,-3488.5302L13592.4442,-3488.5167L13592.4146,-3488.5066L13592.3951,-3488.4906L13592.3778,-3488.4443L13592.3696,-3488.3954L13592.3584,-3488.3761L13592.3543,-3488.3745L13592.3226,-3488.3617L13592.3201,-3488.3614L13592.297,-3488.3584L13592.2449,-3488.3651L13592.2046,-3488.3652L13592.176,-3488.3728L13592.1709,-3488.3852L13592.1668,-3488.3955L13592.1228,-3488.414L13592.086,-3488.4191L13592.0605,-3488.4266L13592.0237,-3488.4536L13592.0073,-3488.4561L13591.9716,-3488.4435L13591.9266,-3488.4637L13591.8847,-3488.478L13591.8571,-3488.4789L13591.8116,-3488.472L13591.7718,-3488.4577L13591.7043,-3488.408L13591.7041,-3488.4079L13591.6829,-3488.4012L13591.6667,-3488.397L13591.6018,-3488.3801L13591.5638,-3488.3471L13591.562,-3488.3455L13591.5436,-3488.3405L13591.4618,-3488.3817L13591.4495,-3488.3826L13591.3451,-3488.3336L13591.3447,-3488.3333L13591.3154,-3488.315L13591.2899,-3488.3234L13591.2808,-3488.3333L13591.2776,-3488.3369L13591.2735,-3488.3504L13591.2656,-3488.3516L13591.2535,-3488.3333L13591.2429,-3488.3173L13591.2251,-3488.2859L13591.2048,-3488.2515L13591.1905,-3488.2279L13591.1583,-3488.2132L13591.1476,-3488.2024L13591.1535,-3488.1638L13591.1368,-3488.1462L13591.0927,-3488.1246L13591.0773,-3488.1128L13591.0713,-3488.0863L13591.0617,-3488.0627L13591.0344,-3488.048L13591.0057,-3488.0471L13590.9879,-3488.0362L13590.9891,-3488.0274L13591.0057,-3487.9966L13591.0074,-3487.987L13591.0093,-3487.9769L13590.9831,-3487.9004L13590.9747,-3487.8866L13590.9426,-3487.8621L13590.9342,-3487.8522L13590.9295,-3487.7914L13590.9508,-3487.7596L13590.9616,-3487.7419L13590.9663,-3487.7154L13590.946,-3487.6897L13590.8638,-3487.6456L13590.8333,-3487.6398L13590.8328,-3487.6397L13590.8007,-3487.6426L13590.7669,-3487.6343L13590.722,-3487.5923L13590.6981,-3487.5677L13590.6791,-3487.5481L13590.6758,-3487.5372L13590.6743,-3487.5324L13590.6925,-3487.5L13590.7411,-3487.4136L13590.7423,-3487.4019L13590.7291,-3487.3979L13590.6918,-3487.4008L13590.6711,-3487.4024L13590.6529,-3487.4038L13590.5678,-3487.4063L13590.5224,-3487.4077L13590.4502,-3487.3898L13590.4152,-3487.3812L13590.277,-3487.3007L13590.1731,-3487.2347L13590.0718,-3487.1807L13590.0408,-3487.1758L13590.0015,-3487.1522L13590,-3487.1517L13589.9669,-3487.1404L13589.8618,-3487.1356L13589.7891,-3487.1267L13589.7296,-3487.1297L13589.7081,-3487.1572L13589.6404,-3487.249L13589.6378,-3487.2524L13589.5923,-3487.3068L13589.4922,-3487.3333L13589.4386,-3487.3558L13589.3385,-3487.4069L13589.3226,-3487.4122L13589.1967,-3487.455L13589.1667,-3487.4578L13589.1511,-3487.4593L13589.0105,-3487.474L13588.9771,-3487.4829L13588.953,-3487.5L13588.9163,-3487.526L13588.8723,-3487.5496L13588.8183,-3487.5497L13588.7883,-3487.5535L13588.6717,-3487.5684L13588.6463,-3487.5617L13588.6229,-3487.5556L13588.5669,-3487.5399L13588.5204,-3487.5419L13588.5002,-3487.5546L13588.5014,-3487.5644L13588.5204,-3487.6027L13588.5399,-3487.6404L13588.5443,-3487.6489L13588.5489,-3487.6616L13588.5514,-3487.6685L13588.5419,-3487.6852L13588.5335,-3487.7392L13588.5407,-3487.7759L13588.5538,-3487.823L13588.5729,-3487.8554L13588.5991,-3487.8829L13588.6336,-3487.9103L13588.6588,-3487.9242L13588.685,-3487.936L13588.7386,-3487.9458L13588.7922,-3487.9576L13588.8387,-3487.9703L13588.8402,-3487.9716L13588.8601,-3487.988L13588.8685,-3488.0257L13588.8707,-3488.0909L13588.8721,-3488.1287L13588.8601,-3488.1582L13588.8541,-3488.1653L13588.8232,-3488.2014L13588.7599,-3488.2627L13588.6931,-3488.3206L13588.6572,-3488.3333L13588.6157,-3488.3481L13588.5987,-3488.3571L13588.5454,-3488.3854L13588.4632,-3488.4354L13588.4179,-3488.4512L13588.387,-3488.4453L13588.3536,-3488.4286L13588.3333,-3488.4262L13588.3203,-3488.4246L13588.2935,-3488.4336L13588.2614,-3488.4287L13588.248,-3488.4163L13588.2411,-3488.41L13588.228,-3488.3933L13588.1768,-3488.3796L13588.141,-3488.3747L13588.122,-3488.3825L13588.061,-3488.4337L13587.9847,-3488.4749L13587.9601,-3488.4817L13587.8906,-3488.5008L13587.8906,-3489.2578Z"/>
<path content="滋賀県,,,甲賀市,,25209" xlink:title="滋賀県" d="M13596.6797,-3484.8998L13596.6667,-3484.9111L13596.6599,-3484.917L13596.615,-3484.9456L13596.5268,-3484.9717L13596.4951,-3484.9811L13596.4693,-3484.9886L13596.4298,-3485L13596.3499,-3485.0231L13596.2855,-3485.0366L13596.2733,-3485.0434L13596.2682,-3485.0956L13596.2753,-3485.1318L13596.2681,-3485.1625L13596.2671,-3485.192L13596.2732,-3485.2046L13596.2886,-3485.2307L13596.2906,-3485.2467L13596.2904,-3485.251L13596.2899,-3485.2624L13596.2884,-3485.2992L13596.2884,-3485.3127L13596.2741,-3485.3194L13596.2363,-3485.3278L13596.2066,-3485.3371L13596.1821,-3485.3699L13596.1667,-3485.3961L13596.1634,-3485.4171L13596.144,-3485.4601L13596.1399,-3485.466L13596.1297,-3485.4642L13596.1205,-3485.4626L13596.0756,-3485.4281L13595.9764,-3485.3876L13595.9416,-3485.3885L13595.9181,-3485.4003L13595.9038,-3485.4281L13595.8895,-3485.4441L13595.8742,-3485.4736L13595.8783,-3485.5005L13595.8742,-3485.5013L13595.8333,-3485.4929L13595.8329,-3485.4928L13595.789,-3485.481L13595.7389,-3485.4818L13595.7134,-3485.4776L13595.6878,-3485.4549L13595.6725,-3485.4313L13595.6357,-3485.4086L13595.5542,-3485.3668L13595.5434,-3485.3613L13595.5025,-3485.3385L13595.4565,-3485.3368L13595.4105,-3485.3402L13595.3614,-3485.3326L13595.338,-3485.3191L13595.3163,-3485.2894L13595.2795,-3485.2372L13595.2611,-3485.2288L13595.2181,-3485.2305L13595.1568,-3485.2439L13595.1221,-3485.2431L13595.0617,-3485.2161L13595.0025,-3485.1824L13595,-3485.1811L13594.9585,-3485.158L13594.9264,-3485.1555L13594.8824,-3485.1858L13594.8599,-3485.1942L13594.8221,-3485.1639L13594.771,-3485.1361L13594.7424,-3485.1302L13594.7107,-3485.1302L13594.6739,-3485.1404L13594.6351,-3485.1631L13594.6187,-3485.1782L13594.6228,-3485.1884L13594.6596,-3485.2347L13594.6759,-3485.2704L13594.7035,-3485.3521L13594.7039,-3485.3634L13594.7046,-3485.3832L13594.6727,-3485.4375L13594.6578,-3485.4699L13594.6026,-3485.5895L13594.5787,-3485.6413L13594.5459,-3485.6812L13594.5101,-3485.7191L13594.5132,-3485.7419L13594.5214,-3485.7663L13594.5316,-3485.8067L13594.5257,-3485.8333L13594.5218,-3485.8512L13594.5212,-3485.8541L13594.4803,-3485.9156L13594.4578,-3485.9501L13594.4364,-3485.9501L13594.4057,-3485.9392L13594.3781,-3485.9409L13594.3403,-3485.9594L13594.3178,-3485.9779L13594.3076,-3486.0041L13594.3096,-3486.0125L13594.3147,-3486.0302L13594.3167,-3486.0415L13594.3075,-3486.0617L13594.2912,-3486.0912L13594.2932,-3486.1164L13594.285,-3486.1223L13594.2544,-3486.1345L13594.2369,-3486.1521L13594.212,-3486.1898L13594.2052,-3486.2001L13594.2052,-3486.2211L13594.2114,-3486.2304L13594.2379,-3486.2531L13594.241,-3486.2666L13594.2267,-3486.2818L13594.1889,-3486.3003L13594.1667,-3486.3181L13594.1632,-3486.3209L13594.152,-3486.3304L13594.1295,-3486.3495L13594.0988,-3486.3739L13594.0927,-3486.3891L13594.1039,-3486.4152L13594.1172,-3486.4413L13594.1029,-3486.4719L13594.0896,-3486.5022L13594.0896,-3486.514L13594.1009,-3486.5671L13594.1183,-3486.6193L13594.1183,-3486.6667L13594.1183,-3486.6777L13594.1346,-3486.7663L13594.1377,-3486.8236L13594.1571,-3486.8556L13594.1667,-3486.8682L13594.1868,-3486.8946L13594.2531,-3486.9916L13594.2553,-3486.9949L13594.286,-3487.0601L13594.287,-3487.1274L13594.3167,-3487.2059L13594.3381,-3487.2362L13594.3494,-3487.2607L13594.3627,-3487.2794L13594.3606,-3487.3106L13594.3361,-3487.3283L13594.3218,-3487.3485L13594.3197,-3487.3932L13594.3218,-3487.4167L13594.3637,-3487.4709L13594.3749,-3487.4962L13594.374,-3487.5L13594.3647,-3487.5408L13594.3279,-3487.5779L13594.3075,-3487.5972L13594.3024,-3487.6213L13594.2982,-3487.6414L13594.2737,-3487.7551L13594.2819,-3487.7795L13594.3134,-3487.805L13594.3235,-3487.8177L13594.3466,-3487.8109L13594.3701,-3487.8037L13594.3773,-3487.8016L13594.4129,-3487.7975L13594.4969,-3487.8016L13594.6193,-3487.7957L13594.6709,-3487.7823L13594.7179,-3487.7664L13594.7293,-3487.7664L13594.7634,-3487.7811L13594.8226,-3487.8151L13594.871,-3487.8597L13594.8989,-3487.8898L13594.9323,-3487.9367L13594.9459,-3487.9543L13594.9608,-3487.9567L13595,-3487.9473L13595.0907,-3487.9255L13595.1479,-3487.9112L13595.2424,-3487.8874L13595.2718,-3487.8817L13595.2958,-3487.877L13595.3088,-3487.8745L13595.3387,-3487.8739L13595.3488,-3487.8777L13595.3515,-3487.8787L13595.3561,-3487.8805L13595.3665,-3487.8845L13595.4035,-3487.9027L13595.4356,-3487.9261L13595.4861,-3487.9921L13595.4973,-3488.0057L13595.5441,-3488.062L13595.5889,-3488.0761L13595.7515,-3488.0802L13595.7921,-3488.0791L13595.8333,-3488.0769L13595.8598,-3488.0755L13595.9231,-3488.0614L13595.9639,-3488.0573L13596.0273,-3488.0549L13596.0729,-3488.0432L13596.1099,-3488.0227L13596.1811,-3487.9998L13596.2153,-3487.9969L13596.2669,-3487.9922L13596.2763,-3487.9918L13596.3359,-3487.9893L13596.3793,-3487.9758L13596.3914,-3487.9758L13596.4036,-3487.9811L13596.4306,-3488.0016L13596.4563,-3488.0462L13596.4726,-3488.1019L13596.4876,-3488.123L13596.5026,-3488.1291L13596.5311,-3488.1444L13596.5653,-3488.1644L13596.5746,-3488.1767L13596.5838,-3488.2095L13596.5988,-3488.2736L13596.6046,-3488.2801L13596.6259,-3488.2972L13596.6373,-3488.3101L13596.6431,-3488.3333L13596.6509,-3488.3649L13596.6601,-3488.4019L13596.6667,-3488.4341L13596.6797,-3488.4981Z"/>
<path content="京都府,,綴喜郡,宇治田原町,,26344" xlink:title="京都府" d="M13594.0353,-3488.798L13594.0486,-3488.7517L13594.0414,-3488.686L13594.0435,-3488.6428L13594.0599,-3488.5897L13594.0988,-3488.5297L13594.1136,-3488.4866L13594.1182,-3488.4733L13594.1192,-3488.4494L13594.1151,-3488.4392L13594.0916,-3488.4148L13594.0834,-3488.3829L13594.0719,-3488.3333L13594.0661,-3488.3079L13594.0732,-3488.2599L13594.0681,-3488.241L13594.064,-3488.2292L13594.0548,-3488.2242L13594.0129,-3488.2158L13593.9792,-3488.2023L13593.9649,-3488.177L13593.9659,-3488.1383L13593.9748,-3488.1133L13593.9976,-3488.0495L13594.0078,-3488.0276L13594.0293,-3488.0041L13594.0548,-3487.9864L13594.1018,-3487.9737L13594.1396,-3487.967L13594.156,-3487.9561L13594.1667,-3487.9444L13594.1949,-3487.9136L13594.2521,-3487.8707L13594.3104,-3487.832L13594.3247,-3487.8252L13594.3267,-3487.8219L13594.3235,-3487.8177L13594.3134,-3487.805L13594.2819,-3487.7795L13594.2737,-3487.7551L13594.2982,-3487.6414L13594.3024,-3487.6213L13594.3075,-3487.5972L13594.3279,-3487.5779L13594.3647,-3487.5408L13594.374,-3487.5L13594.3749,-3487.4962L13594.3637,-3487.4709L13594.3218,-3487.4167L13594.3197,-3487.3932L13594.3218,-3487.3485L13594.3361,-3487.3283L13594.3606,-3487.3106L13594.3627,-3487.2794L13594.3494,-3487.2607L13594.3381,-3487.2362L13594.3167,-3487.2059L13594.287,-3487.1274L13594.286,-3487.0601L13594.2553,-3486.9949L13594.2531,-3486.9916L13594.1868,-3486.8946L13594.1667,-3486.8682L13594.1571,-3486.8556L13594.1377,-3486.8236L13594.1346,-3486.7663L13594.1183,-3486.6777L13594.1183,-3486.6667L13594.1183,-3486.6193L13594.1009,-3486.5671L13594.0896,-3486.514L13594.0896,-3486.5022L13594.1029,-3486.4719L13594.1172,-3486.4413L13594.1039,-3486.4152L13594.0927,-3486.3891L13594.0988,-3486.3739L13594.1295,-3486.3495L13594.152,-3486.3304L13594.1632,-3486.3209L13594.1667,-3486.3181L13594.1889,-3486.3003L13594.2267,-3486.2818L13594.241,-3486.2666L13594.2379,-3486.2531L13594.2114,-3486.2304L13594.2052,-3486.2211L13594.2052,-3486.2001L13594.212,-3486.1898L13594.2369,-3486.1521L13594.2544,-3486.1345L13594.285,-3486.1223L13594.2932,-3486.1164L13594.2912,-3486.0912L13594.3075,-3486.0617L13594.3167,-3486.0415L13594.3147,-3486.0302L13594.3096,-3486.0125L13594.3076,-3486.0041L13594.3178,-3485.9779L13594.3403,-3485.9594L13594.3781,-3485.9409L13594.4057,-3485.9392L13594.4364,-3485.9501L13594.4578,-3485.9501L13594.4803,-3485.9156L13594.5212,-3485.8541L13594.5218,-3485.8512L13594.5257,-3485.8333L13594.5316,-3485.8067L13594.5214,-3485.7663L13594.5132,-3485.7419L13594.5101,-3485.7191L13594.5459,-3485.6812L13594.5787,-3485.6413L13594.6026,-3485.5895L13594.6578,-3485.4699L13594.6727,-3485.4375L13594.7046,-3485.3832L13594.7039,-3485.3634L13594.7035,-3485.3521L13594.6759,-3485.2704L13594.6596,-3485.2347L13594.6228,-3485.1884L13594.6187,-3485.1782L13594.5839,-3485.1731L13594.4921,-3485.1464L13594.4621,-3485.135L13594.4451,-3485.1185L13594.4359,-3485.0924L13594.4225,-3485.0733L13594.4009,-3485.0612L13594.3023,-3485.0364L13594.2693,-3485.0302L13594.238,-3485.0242L13594.2079,-3485.0141L13594.1816,-3485L13594.1794,-3484.9988L13594.1667,-3484.9964L13594.1,-3484.9836L13594.0852,-3484.9759L13594.0707,-3484.9684L13594.0621,-3484.9447L13594.0035,-3484.9161L13593.9288,-3484.8799L13593.8846,-3484.8371L13593.843,-3484.7679L13593.8299,-3484.7374L13593.8043,-3484.718L13593.7943,-3484.718L13593.7883,-3484.7088L13593.7781,-3484.6926L13593.7741,-3484.687L13593.7588,-3484.6653L13593.7457,-3484.5974L13593.7295,-3484.5891L13593.7126,-3484.5891L13593.6879,-3484.591L13593.6761,-3484.5986L13593.6632,-3484.6069L13593.6401,-3484.6317L13593.6254,-3484.6367L13593.59,-3484.6425L13593.5488,-3484.6386L13593.5149,-3484.6347L13593.5003,-3484.6239L13593.4648,-3484.5858L13593.4502,-3484.5757L13593.4053,-3484.5603L13593.3837,-3484.5507L13593.3675,-3484.5387L13593.3521,-3484.5234L13593.3333,-3484.5015L13593.3173,-3484.4827L13593.298,-3484.4789L13593.271,-3484.477L13593.251,-3484.4706L13593.241,-3484.4585L13593.2325,-3484.3969L13593.227,-3484.3643L13593.2193,-3484.3414L13593.1985,-3484.3154L13593.1606,-3484.2789L13593.119,-3484.2408L13593.0836,-3484.1967L13593.0797,-3484.1919L13593.0645,-3484.1667L13593.0642,-3484.1662L13593.0326,-3484.064L13593.0264,-3484.0129L13593.0002,-3483.9424L13592.9955,-3483.922L13592.9971,-3483.8763L13592.9909,-3483.8642L13592.9793,-3483.858L13592.9623,-3483.8488L13592.849,-3483.8304L13592.8189,-3483.8215L13592.8081,-3483.812L13592.8012,-3483.7859L13592.8019,-3483.7624L13592.8119,-3483.7303L13592.8165,-3483.7023L13592.8096,-3483.6903L13592.7873,-3483.6807L13592.7726,-3483.6757L13592.7531,-3483.6747L13592.7356,-3483.6737L13592.719,-3483.6577L13592.7018,-3483.6484L13592.6884,-3483.6382L13592.6664,-3483.6253L13592.6347,-3483.5983L13592.6197,-3483.5806L13592.6207,-3483.569L13592.6218,-3483.5549L13592.6111,-3483.5452L13592.5971,-3483.5323L13592.58,-3483.5179L13592.544,-3483.4905L13592.529,-3483.4776L13592.5193,-3483.4643L13592.5,-3483.4418L13592.4941,-3483.4348L13592.4705,-3483.4069L13592.4376,-3483.3544L13592.4204,-3483.3377L13592.417,-3483.3333L13592.4054,-3483.3179L13592.4043,-3483.314L13592.4011,-3483.3018L13592.3849,-3483.2986L13592.3613,-3483.3088L13592.3463,-3483.3152L13592.3416,-3483.3169L13592.2945,-3483.3333L13592.2926,-3483.334L13592.2657,-3483.3426L13592.2497,-3483.3506L13592.2293,-3483.3587L13592.2131,-3483.3587L13592.2015,-3483.3522L13592.194,-3483.3447L13592.189,-3483.3356L13592.1877,-3483.3333L13592.1815,-3483.3222L13592.1718,-3483.3088L13592.1595,-3483.2932L13592.1483,-3483.2781L13592.1403,-3483.2758L13592.1315,-3483.2779L13592.1219,-3483.2849L13592.1186,-3483.2927L13592.1176,-3483.3029L13592.1224,-3483.3206L13592.1246,-3483.3333L13592.1251,-3483.3356L13592.1272,-3483.3506L13592.1444,-3483.4011L13592.1455,-3483.4086L13592.1426,-3483.4239L13592.1343,-3483.4328L13592.1299,-3483.4375L13592.1091,-3483.4439L13592.0864,-3483.4445L13592.0756,-3483.4431L13592.0703,-3483.4424L13592.0515,-3483.4381L13592.0307,-3483.4312L13592.0149,-3483.4224L13592.0005,-3483.4105L13591.9785,-3483.4005L13591.9621,-3483.3923L13591.9479,-3483.3895L13591.9414,-3483.3935L13591.935,-3483.4011L13591.9271,-3483.4145L13591.923,-3483.4231L13591.9165,-3483.4333L13591.9049,-3483.4429L13591.8845,-3483.4493L13591.8722,-3483.45L13591.8448,-3483.4482L13591.826,-3483.4444L13591.8106,-3483.4414L13591.7894,-3483.4381L13591.7531,-3483.4342L13591.7276,-3483.432L13591.7026,-3483.4312L13591.6827,-3483.4326L13591.6667,-3483.4323L13591.5679,-3483.431L13591.4839,-3483.4298L13591.4434,-3483.4269L13591.41,-3483.43L13591.3631,-3483.4399L13591.3424,-3483.4457L13591.3293,-3483.445L13591.3134,-3483.4479L13591.2983,-3483.458L13591.2606,-3483.4652L13591.2404,-3483.4623L13591.2223,-3483.4609L13591.1992,-3483.4587L13591.1828,-3483.4547L13591.1766,-3483.4532L13591.1601,-3483.45L13591.1533,-3483.4437L13591.1399,-3483.4399L13591.1276,-3483.432L13591.1109,-3483.4182L13591.095,-3483.411L13591.0674,-3483.4056L13591.0278,-3483.3908L13591.0155,-3483.3832L13591.0076,-3483.3785L13590.9902,-3483.3691L13590.9652,-3483.3499L13590.9526,-3483.3402L13590.9341,-3483.3333L13590.9114,-3483.3248L13590.8933,-3483.314L13590.8689,-3483.304L13590.8542,-3483.2981L13590.8383,-3483.2851L13590.8333,-3483.2763L13590.8264,-3483.2642L13590.8188,-3483.2467L13590.8127,-3483.2315L13590.8071,-3483.2147L13590.7957,-3483.1952L13590.7852,-3483.1834L13590.7631,-3483.1672L13590.7407,-3483.1571L13590.7219,-3483.1535L13590.6958,-3483.1456L13590.6342,-3483.1333L13590.6333,-3483.1332L13590.615,-3483.1304L13590.5953,-3483.1217L13590.5814,-3483.1077L13590.565,-3483.0904L13590.5499,-3483.0857L13590.5226,-3483.0874L13590.5041,-3483.0914L13590.4901,-3483.0938L13590.4738,-3483.0985L13590.4619,-3483.0966L13590.4512,-3483.095L13590.4413,-3483.0799L13590.441,-3483.0792L13590.4349,-3483.0596L13590.4314,-3483.0486L13590.4477,-3483.0399L13590.4553,-3483.0301L13590.4628,-3483.0172L13590.4695,-3482.9935L13590.4727,-3482.9854L13590.4895,-3482.9708L13590.5009,-3482.9556L13590.5099,-3482.9446L13590.5261,-3482.9342L13590.5428,-3482.9314L13590.572,-3482.9319L13590.5867,-3482.9193L13590.5906,-3482.9034L13590.5917,-3482.8912L13590.5923,-3482.8669L13590.5958,-3482.8442L13590.5998,-3482.8286L13590.6115,-3482.8197L13590.6231,-3482.8175L13590.6354,-3482.8207L13590.6464,-3482.8314L13590.6574,-3482.8442L13590.6644,-3482.8552L13590.6708,-3482.8663L13590.6754,-3482.8721L13590.683,-3482.8831L13590.6952,-3482.8907L13590.6973,-3482.8912L13590.7115,-3482.8953L13590.7173,-3482.8837L13590.7297,-3482.8671L13590.7359,-3482.8587L13590.7427,-3482.8494L13590.758,-3482.8245L13590.7644,-3482.8053L13590.7609,-3482.7908L13590.7481,-3482.7757L13590.7237,-3482.7542L13590.7121,-3482.738L13590.7004,-3482.7275L13590.6885,-3482.712L13590.6725,-3482.7037L13590.6603,-3482.702L13590.6464,-3482.7049L13590.634,-3482.7059L13590.6323,-3482.706L13590.6107,-3482.7007L13590.5933,-3482.6938L13590.5684,-3482.6816L13590.5515,-3482.6665L13590.5357,-3482.6481L13590.5281,-3482.6446L13590.5217,-3482.6465L13590.5114,-3482.6526L13590.5032,-3482.6636L13590.4998,-3482.6682L13590.4963,-3482.6758L13590.4893,-3482.6868L13590.4817,-3482.7013L13590.4748,-3482.7135L13590.4666,-3482.724L13590.451,-3482.7321L13590.4359,-3482.7339L13590.4126,-3482.7402L13590.3956,-3482.7464L13590.3865,-3482.7453L13590.3818,-3482.7281L13590.3685,-3482.6847L13590.3569,-3482.6632L13590.3417,-3482.6342L13590.329,-3482.6098L13590.3191,-3482.5958L13590.2999,-3482.5651L13590.2793,-3482.5435L13590.2786,-3482.5428L13590.254,-3482.525L13590.2354,-3482.5128L13590.2116,-3482.5076L13590.1784,-3482.5L13590.1686,-3482.4977L13590.1242,-3482.4851L13590.1086,-3482.481L13590.0696,-3482.4479L13590.0504,-3482.4311L13590.0295,-3482.4206L13590.0057,-3482.4125L13590,-3482.4103L13589.9859,-3482.4049L13589.965,-3482.3927L13589.9482,-3482.3806L13589.94,-3482.3643L13589.9214,-3482.3533L13589.878,-3482.3235L13589.8637,-3482.3137L13589.8463,-3482.3044L13589.8254,-3482.2911L13589.7655,-3482.2545L13589.7487,-3482.2464L13589.7388,-3482.2435L13589.719,-3482.2406L13589.6923,-3482.2382L13589.6656,-3482.2371L13589.6293,-3482.2388L13589.6049,-3482.2295L13589.5781,-3482.2295L13589.5554,-3482.2307L13589.5363,-3482.2353L13589.5241,-3482.2394L13589.4974,-3482.2499L13589.4631,-3482.2527L13589.4393,-3482.2621L13589.4177,-3482.2707L13589.4021,-3482.2806L13589.3835,-3482.2876L13589.3457,-3482.305L13589.3105,-3482.3166L13589.2931,-3482.323L13589.2704,-3482.3369L13589.2437,-3482.3534L13589.2141,-3482.3718L13589.1943,-3482.3845L13589.1667,-3482.4057L13589.1261,-3482.4368L13589.1087,-3482.4508L13589.0767,-3482.4767L13589.0558,-3482.495L13589.0504,-3482.5L13589.0395,-3482.51L13589.0273,-3482.5228L13589.0213,-3482.5371L13589.0067,-3482.5522L13588.9893,-3482.5667L13588.9629,-3482.5816L13588.9614,-3482.5824L13588.9394,-3482.5946L13588.9223,-3482.5997L13588.8719,-3482.6079L13588.8307,-3482.6126L13588.8174,-3482.6085L13588.7604,-3482.594L13588.7455,-3482.5919L13588.7279,-3482.5894L13588.707,-3482.5865L13588.6889,-3482.5876L13588.6605,-3482.5893L13588.6337,-3482.5928L13588.6099,-3482.5911L13588.5948,-3482.5864L13588.5982,-3482.5742L13588.604,-3482.5667L13588.6245,-3482.5539L13588.6435,-3482.5431L13588.6621,-3482.5303L13588.6702,-3482.5216L13588.6684,-3482.5089L13588.669,-3482.5007L13588.6701,-3482.5L13588.6737,-3482.4974L13588.683,-3482.4954L13588.7018,-3482.4946L13588.7213,-3482.4937L13588.7382,-3482.4885L13588.7539,-3482.4833L13588.7652,-3482.4721L13588.7704,-3482.4636L13588.7704,-3482.4522L13588.7648,-3482.4392L13588.7639,-3482.4218L13588.7661,-3482.4072L13588.7731,-3482.3927L13588.7719,-3482.3741L13588.7789,-3482.3422L13588.7853,-3482.326L13588.7951,-3482.3097L13588.8056,-3482.2981L13588.8172,-3482.2847L13588.8254,-3482.2714L13588.8289,-3482.2545L13588.8219,-3482.2313L13588.8103,-3482.215L13588.7992,-3482.2022L13588.7923,-3482.1918L13588.7975,-3482.1784L13588.8056,-3482.1639L13588.8335,-3482.1337L13588.8463,-3482.1197L13588.85,-3482.1165L13588.8591,-3482.1087L13588.8742,-3482.1023L13588.9003,-3482.1L13588.927,-3482.0982L13588.9404,-3482.0896L13588.9491,-3482.0809L13588.9353,-3482.0776L13588.9224,-3482.0745L13588.9015,-3482.0652L13588.8923,-3482.0616L13588.8736,-3482.0541L13588.8585,-3482.0495L13588.8428,-3482.0536L13588.8289,-3482.0629L13588.8196,-3482.0774L13588.8097,-3482.0913L13588.7992,-3482.1058L13588.7876,-3482.1052L13588.7731,-3482.1012L13588.7661,-3482.0861L13588.7551,-3482.0692L13588.7452,-3482.0588L13588.7312,-3482.0449L13588.7207,-3482.0315L13588.7115,-3482.0176L13588.7033,-3482.0077L13588.6969,-3481.992L13588.69,-3481.9711L13588.683,-3481.9572L13588.6612,-3481.9404L13588.6484,-3481.93L13588.6304,-3481.9166L13588.6095,-3481.9062L13588.5839,-3481.894L13588.563,-3481.8853L13588.5479,-3481.8783L13588.5264,-3481.8679L13588.5068,-3481.8618L13588.502,-3481.8603L13588.47,-3481.8574L13588.4543,-3481.8551L13588.4445,-3481.8545L13588.4257,-3481.8459L13588.3762,-3481.8125L13588.3673,-3481.8049L13588.3564,-3481.7956L13588.3442,-3481.7863L13588.3333,-3481.7764L13588.3314,-3481.7747L13588.3006,-3481.7649L13588.2751,-3481.7608L13588.2466,-3481.7602L13588.2419,-3481.7608L13588.2332,-3481.766L13588.2257,-3481.773L13588.2158,-3481.7881L13588.2084,-3481.7934L13588.2053,-3481.7956L13588.1937,-3481.8003L13588.1757,-3481.8067L13588.1468,-3481.8113L13588.1323,-3481.8125L13588.1108,-3481.8142L13588.1032,-3481.8096L13588.0893,-3481.798L13588.0666,-3481.7811L13588.0533,-3481.7718L13588.0381,-3481.7625L13588.0277,-3481.7585L13588.0149,-3481.7527L13587.9981,-3481.7457L13587.9824,-3481.737L13587.9723,-3481.7285L13587.9607,-3481.7169L13587.9496,-3481.7082L13587.9374,-3481.6978L13587.9183,-3481.6815L13587.9014,-3481.6667L13587.8933,-3481.6595L13587.8906,-3481.6581L13587.8906,-3488.5008L13587.9601,-3488.4817L13587.9847,-3488.4749L13588.061,-3488.4337L13588.122,-3488.3825L13588.141,-3488.3747L13588.1768,-3488.3796L13588.228,-3488.3933L13588.2411,-3488.41L13588.248,-3488.4163L13588.2614,-3488.4287L13588.2935,-3488.4336L13588.3203,-3488.4246L13588.3333,-3488.4262L13588.3536,-3488.4286L13588.387,-3488.4453L13588.4179,-3488.4512L13588.4632,-3488.4354L13588.5454,-3488.3854L13588.5987,-3488.3571L13588.6157,-3488.3481L13588.6572,-3488.3333L13588.6931,-3488.3206L13588.7599,-3488.2627L13588.8232,-3488.2014L13588.8541,-3488.1653L13588.8601,-3488.1582L13588.8721,-3488.1287L13588.8707,-3488.0909L13588.8685,-3488.0257L13588.8601,-3487.988L13588.8402,-3487.9716L13588.8387,-3487.9703L13588.7922,-3487.9576L13588.7386,-3487.9458L13588.685,-3487.936L13588.6588,-3487.9242L13588.6336,-3487.9103L13588.5991,-3487.8829L13588.5729,-3487.8554L13588.5538,-3487.823L13588.5407,-3487.7759L13588.5335,-3487.7392L13588.5419,-3487.6852L13588.5514,-3487.6685L13588.5489,-3487.6616L13588.5443,-3487.6489L13588.5399,-3487.6404L13588.5204,-3487.6027L13588.5014,-3487.5644L13588.5002,-3487.5546L13588.5204,-3487.5419L13588.5669,-3487.5399L13588.6229,-3487.5556L13588.6463,-3487.5617L13588.6717,-3487.5684L13588.7883,-3487.5535L13588.8183,-3487.5497L13588.8723,-3487.5496L13588.9163,-3487.526L13588.953,-3487.5L13588.9771,-3487.4829L13589.0105,-3487.474L13589.1511,-3487.4593L13589.1667,-3487.4578L13589.1967,-3487.455L13589.3226,-3487.4122L13589.3385,-3487.4069L13589.4386,-3487.3558L13589.4922,-3487.3333L13589.5923,-3487.3068L13589.6378,-3487.2524L13589.6404,-3487.249L13589.7081,-3487.1572L13589.7296,-3487.1297L13589.7891,-3487.1267L13589.8618,-3487.1356L13589.9669,-3487.1404L13590,-3487.1517L13590.0015,-3487.1522L13590.0408,-3487.1758L13590.0718,-3487.1807L13590.1731,-3487.2347L13590.277,-3487.3007L13590.4152,-3487.3812L13590.4502,-3487.3898L13590.5224,-3487.4077L13590.5678,-3487.4063L13590.6529,-3487.4038L13590.6711,-3487.4024L13590.6918,-3487.4008L13590.7291,-3487.3979L13590.7423,-3487.4019L13590.7411,-3487.4136L13590.6925,-3487.5L13590.6743,-3487.5324L13590.6758,-3487.5372L13590.6791,-3487.5481L13590.6981,-3487.5677L13590.722,-3487.5923L13590.7669,-3487.6343L13590.8007,-3487.6426L13590.8328,-3487.6397L13590.8333,-3487.6398L13590.8638,-3487.6456L13590.946,-3487.6897L13590.9663,-3487.7154L13590.9616,-3487.7419L13590.9508,-3487.7596L13590.9295,-3487.7914L13590.9342,-3487.8522L13590.9426,-3487.8621L13590.9747,-3487.8866L13590.9831,-3487.9004L13591.0093,-3487.9769L13591.0074,-3487.987L13591.0057,-3487.9966L13590.9891,-3488.0274L13590.9879,-3488.0362L13591.0057,-3488.0471L13591.0344,-3488.048L13591.0617,-3488.0627L13591.0713,-3488.0863L13591.0773,-3488.1128L13591.0927,-3488.1246L13591.1368,-3488.1462L13591.1535,-3488.1638L13591.1476,-3488.2024L13591.1583,-3488.2132L13591.1905,-3488.2279L13591.2048,-3488.2515L13591.2251,-3488.2859L13591.2429,-3488.3173L13591.2535,-3488.3333L13591.2656,-3488.3516L13591.2735,-3488.3504L13591.2776,-3488.3369L13591.2808,-3488.3333L13591.2899,-3488.3234L13591.3154,-3488.315L13591.3447,-3488.3333L13591.3451,-3488.3336L13591.4495,-3488.3826L13591.4618,-3488.3817L13591.5436,-3488.3405L13591.562,-3488.3455L13591.5638,-3488.3471L13591.6018,-3488.3801L13591.6667,-3488.397L13591.6829,-3488.4012L13591.7041,-3488.4079L13591.7043,-3488.408L13591.7718,-3488.4577L13591.8116,-3488.472L13591.8571,-3488.4789L13591.8847,-3488.478L13591.9266,-3488.4637L13591.9716,-3488.4435L13592.0073,-3488.4561L13592.0237,-3488.4536L13592.0605,-3488.4266L13592.086,-3488.4191L13592.1228,-3488.414L13592.1668,-3488.3955L13592.1709,-3488.3852L13592.176,-3488.3728L13592.2046,-3488.3652L13592.2449,-3488.3651L13592.297,-3488.3584L13592.3201,-3488.3614L13592.3226,-3488.3617L13592.3543,-3488.3745L13592.3584,-3488.3761L13592.3696,-3488.3954L13592.3778,-3488.4443L13592.3951,-3488.4906L13592.4146,-3488.5066L13592.4442,-3488.5167L13592.4524,-3488.5302L13592.4626,-3488.5394L13592.5,-3488.5594L13592.5004,-3488.5597L13592.5804,-3488.5621L13592.5832,-3488.5622L13592.6231,-3488.5841L13592.6344,-3488.6139L13592.6508,-3488.6265L13592.6814,-3488.6341L13592.6927,-3488.6611L13592.7019,-3488.6855L13592.7091,-3488.6914L13592.7256,-3488.6973L13592.7358,-3488.694L13592.7374,-3488.6895L13592.738,-3488.6877L13592.7429,-3488.6737L13592.7573,-3488.6746L13592.7808,-3488.6872L13592.8074,-3488.7142L13592.8349,-3488.7437L13592.8472,-3488.7647L13592.8628,-3488.7971L13592.871,-3488.8106L13592.9006,-3488.8207L13592.9231,-3488.8215L13592.9537,-3488.8215L13592.9885,-3488.8282L13593.0325,-3488.8392L13593.0447,-3488.8486L13593.0455,-3488.8492L13593.0611,-3488.8611L13593.0846,-3488.8636L13593.1163,-3488.8527L13593.1398,-3488.8426L13593.1663,-3488.8148L13593.1756,-3488.8038L13593.2199,-3488.7921L13593.2465,-3488.7811L13593.2864,-3488.7794L13593.3333,-3488.7875L13593.3354,-3488.7879L13593.363,-3488.7997L13593.371,-3488.8311L13593.3722,-3488.8359L13593.3763,-3488.8508L13593.3763,-3488.851L13593.4244,-3488.8754L13593.4387,-3488.9041L13593.4564,-3488.9119L13593.4656,-3488.922L13593.4829,-3488.9608L13593.5146,-3489.0391L13593.5361,-3489.0879L13593.5484,-3489.1093L13593.6026,-3489.1641L13593.6079,-3489.1667L13593.7069,-3489.2154L13593.7867,-3489.2376L13593.8154,-3489.2553L13593.8186,-3489.2578L13594.0362,-3489.2578L13594.0271,-3489.2378L13594.0261,-3489.2173L13594.0404,-3489.1878L13594.0394,-3489.1786L13594.0292,-3489.1676L13594.029,-3489.1667L13594.0271,-3489.1575L13594.0353,-3489.0943L13594.0231,-3489.0469L13593.9975,-3489.0073L13594.0016,-3488.9542L13593.9975,-3488.9188L13593.9566,-3488.8637L13593.9577,-3488.8511L13593.9975,-3488.8275L13594.0353,-3488.798Z"/>
<path content="京都府,,相楽郡,和束町,,26365" xlink:title="京都府" d="M13595.8783,-3485.5005L13595.8742,-3485.4736L13595.8895,-3485.4441L13595.9038,-3485.4281L13595.9181,-3485.4003L13595.9416,-3485.3885L13595.9764,-3485.3876L13596.0756,-3485.4281L13596.1205,-3485.4626L13596.1297,-3485.4642L13596.1399,-3485.466L13596.144,-3485.4601L13596.1634,-3485.4171L13596.1667,-3485.3961L13596.1821,-3485.3699L13596.2066,-3485.3371L13596.2363,-3485.3278L13596.2741,-3485.3194L13596.2884,-3485.3127L13596.2884,-3485.2992L13596.2899,-3485.2624L13596.2904,-3485.251L13596.2906,-3485.2467L13596.2886,-3485.2307L13596.2732,-3485.2046L13596.2671,-3485.192L13596.2681,-3485.1625L13596.2753,-3485.1318L13596.2682,-3485.0956L13596.2733,-3485.0434L13596.2855,-3485.0366L13596.3499,-3485.0231L13596.4298,-3485L13596.4693,-3484.9886L13596.4951,-3484.9811L13596.5268,-3484.9717L13596.615,-3484.9456L13596.6599,-3484.917L13596.6667,-3484.9111L13596.6797,-3484.8998L13596.6797,-3480.9281L13596.6686,-3480.9308L13596.6667,-3480.9313L13596.6325,-3480.9394L13596.5917,-3480.9527L13596.5643,-3480.9597L13596.5407,-3480.9633L13596.5253,-3480.968L13596.5167,-3480.9713L13596.5005,-3480.9763L13596.482,-3480.9812L13596.4484,-3480.9899L13596.4194,-3480.997L13596.4021,-3481.0021L13596.3848,-3481.0067L13596.3758,-3481.0091L13596.3671,-3481.0118L13596.3437,-3481.0176L13596.3431,-3481.0177L13596.3204,-3481.0228L13596.3117,-3481.0193L13596.2961,-3481.0119L13596.2816,-3481.0115L13596.2674,-3481.0158L13596.2408,-3481.0303L13596.2114,-3481.0334L13596.1988,-3481.0311L13596.1894,-3481.026L13596.1827,-3481.0173L13596.1745,-3481.0056L13596.1702,-3480.9981L13596.1619,-3480.995L13596.1516,-3480.9954L13596.1396,-3481.0005L13596.1276,-3481.0083L13596.1178,-3481.0154L13596.1068,-3481.0271L13596.0994,-3481.0346L13596.0927,-3481.0436L13596.0733,-3481.0613L13596.0623,-3481.0634L13596.059,-3481.0644L13596.0449,-3481.0687L13596.0241,-3481.0742L13596.0093,-3481.0806L13595.9928,-3481.0906L13595.9783,-3481.08L13595.9671,-3481.0718L13595.9385,-3481.0518L13595.9071,-3481.0369L13595.8745,-3481.0166L13595.8569,-3481.0099L13595.8333,-3480.9992L13595.8317,-3480.9985L13595.8066,-3480.986L13595.7977,-3480.9811L13595.7843,-3480.9739L13595.7618,-3480.9624L13595.7473,-3480.9562L13595.7335,-3480.9472L13595.7168,-3480.9389L13595.7057,-3480.9334L13595.6861,-3480.9241L13595.6653,-3480.91L13595.6413,-3480.9013L13595.5899,-3480.8751L13595.5709,-3480.8624L13595.5502,-3480.8557L13595.5069,-3480.8333L13595.5047,-3480.8322L13595.4788,-3480.8173L13595.4682,-3480.8126L13595.4478,-3480.8028L13595.4294,-3480.7934L13595.4129,-3480.7852L13595.3874,-3480.7691L13595.3674,-3480.7621L13595.3529,-3480.7558L13595.3521,-3480.7503L13595.3564,-3480.7476L13595.3717,-3480.7444L13595.3796,-3480.7378L13595.386,-3480.7291L13595.3866,-3480.7107L13595.3806,-3480.6972L13595.3753,-3480.692L13595.3689,-3480.6872L13595.3615,-3480.6771L13595.3615,-3480.6692L13595.3646,-3480.6602L13595.3697,-3480.6547L13595.3759,-3480.6463L13595.3772,-3480.6304L13595.3769,-3480.6187L13595.3764,-3480.6132L13595.3729,-3480.6034L13595.3713,-3480.5924L13595.379,-3480.5863L13595.3884,-3480.5772L13595.3945,-3480.5682L13595.3948,-3480.5677L13595.4046,-3480.5474L13595.4097,-3480.5301L13595.4101,-3480.5137L13595.4125,-3480.507L13595.4203,-3480.4859L13595.42,-3480.4688L13587.8906,-3480.4688L13587.8906,-3481.6581L13587.8933,-3481.6595L13587.9014,-3481.6667L13587.9183,-3481.6815L13587.9374,-3481.6978L13587.9496,-3481.7082L13587.9607,-3481.7169L13587.9723,-3481.7285L13587.9824,-3481.737L13587.9981,-3481.7457L13588.0149,-3481.7527L13588.0277,-3481.7585L13588.0381,-3481.7625L13588.0533,-3481.7718L13588.0666,-3481.7811L13588.0893,-3481.798L13588.1032,-3481.8096L13588.1108,-3481.8142L13588.1323,-3481.8125L13588.1468,-3481.8113L13588.1757,-3481.8067L13588.1937,-3481.8003L13588.2053,-3481.7956L13588.2084,-3481.7934L13588.2158,-3481.7881L13588.2257,-3481.773L13588.2332,-3481.766L13588.2419,-3481.7608L13588.2466,-3481.7602L13588.2751,-3481.7608L13588.3006,-3481.7649L13588.3314,-3481.7747L13588.3333,-3481.7764L13588.3442,-3481.7863L13588.3564,-3481.7956L13588.3673,-3481.8049L13588.3762,-3481.8125L13588.4257,-3481.8459L13588.4445,-3481.8545L13588.4543,-3481.8551L13588.47,-3481.8574L13588.502,-3481.8603L13588.5068,-3481.8618L13588.5264,-3481.8679L13588.5479,-3481.8783L13588.563,-3481.8853L13588.5839,-3481.894L13588.6095,-3481.9062L13588.6304,-3481.9166L13588.6484,-3481.93L13588.6612,-3481.9404L13588.683,-3481.9572L13588.69,-3481.9711L13588.6969,-3481.992L13588.7033,-3482.0077L13588.7115,-3482.0176L13588.7207,-3482.0315L13588.7312,-3482.0449L13588.7452,-3482.0588L13588.7551,-3482.0692L13588.7661,-3482.0861L13588.7731,-3482.1012L13588.7876,-3482.1052L13588.7992,-3482.1058L13588.8097,-3482.0913L13588.8196,-3482.0774L13588.8289,-3482.0629L13588.8428,-3482.0536L13588.8585,-3482.0495L13588.8736,-3482.0541L13588.8923,-3482.0616L13588.9015,-3482.0652L13588.9224,-3482.0745L13588.9353,-3482.0776L13588.9491,-3482.0809L13588.9404,-3482.0896L13588.927,-3482.0982L13588.9003,-3482.1L13588.8742,-3482.1023L13588.8591,-3482.1087L13588.85,-3482.1165L13588.8463,-3482.1197L13588.8335,-3482.1337L13588.8056,-3482.1639L13588.7975,-3482.1784L13588.7923,-3482.1918L13588.7992,-3482.2022L13588.8103,-3482.215L13588.8219,-3482.2313L13588.8289,-3482.2545L13588.8254,-3482.2714L13588.8172,-3482.2847L13588.8056,-3482.2981L13588.7951,-3482.3097L13588.7853,-3482.326L13588.7789,-3482.3422L13588.7719,-3482.3741L13588.7731,-3482.3927L13588.7661,-3482.4072L13588.7639,-3482.4218L13588.7648,-3482.4392L13588.7704,-3482.4522L13588.7704,-3482.4636L13588.7652,-3482.4721L13588.7539,-3482.4833L13588.7382,-3482.4885L13588.7213,-3482.4937L13588.7018,-3482.4946L13588.683,-3482.4954L13588.6737,-3482.4974L13588.6701,-3482.5L13588.669,-3482.5007L13588.6684,-3482.5089L13588.6702,-3482.5216L13588.6621,-3482.5303L13588.6435,-3482.5431L13588.6245,-3482.5539L13588.604,-3482.5667L13588.5982,-3482.5742L13588.5948,-3482.5864L13588.6099,-3482.5911L13588.6337,-3482.5928L13588.6605,-3482.5893L13588.6889,-3482.5876L13588.707,-3482.5865L13588.7279,-3482.5894L13588.7455,-3482.5919L13588.7604,-3482.594L13588.8174,-3482.6085L13588.8307,-3482.6126L13588.8719,-3482.6079L13588.9223,-3482.5997L13588.9394,-3482.5946L13588.9614,-3482.5824L13588.9629,-3482.5816L13588.9893,-3482.5667L13589.0067,-3482.5522L13589.0213,-3482.5371L13589.0273,-3482.5228L13589.0395,-3482.51L13589.0504,-3482.5L13589.0558,-3482.495L13589.0767,-3482.4767L13589.1087,-3482.4508L13589.1261,-3482.4368L13589.1667,-3482.4057L13589.1943,-3482.3845L13589.2141,-3482.3718L13589.2437,-3482.3534L13589.2704,-3482.3369L13589.2931,-3482.323L13589.3105,-3482.3166L13589.3457,-3482.305L13589.3835,-3482.2876L13589.4021,-3482.2806L13589.4177,-3482.2707L13589.4393,-3482.2621L13589.4631,-3482.2527L13589.4974,-3482.2499L13589.5241,-3482.2394L13589.5363,-3482.2353L13589.5554,-3482.2307L13589.5781,-3482.2295L13589.6049,-3482.2295L13589.6293,-3482.2388L13589.6656,-3482.2371L13589.6923,-3482.2382L13589.719,-3482.2406L13589.7388,-3482.2435L13589.7487,-3482.2464L13589.7655,-3482.2545L13589.8254,-3482.2911L13589.8463,-3482.3044L13589.8637,-3482.3137L13589.878,-3482.3235L13589.9214,-3482.3533L13589.94,-3482.3643L13589.9482,-3482.3806L13589.965,-3482.3927L13589.9859,-3482.4049L13590,-3482.4103L13590.0057,-3482.4125L13590.0295,-3482.4206L13590.0504,-3482.4311L13590.0696,-3482.4479L13590.1086,-3482.481L13590.1242,-3482.4851L13590.1686,-3482.4977L13590.1784,-3482.5L13590.2116,-3482.5076L13590.2354,-3482.5128L13590.254,-3482.525L13590.2786,-3482.5428L13590.2793,-3482.5435L13590.2999,-3482.5651L13590.3191,-3482.5958L13590.329,-3482.6098L13590.3417,-3482.6342L13590.3569,-3482.6632L13590.3685,-3482.6847L13590.3818,-3482.7281L13590.3865,-3482.7453L13590.3956,-3482.7464L13590.4126,-3482.7402L13590.4359,-3482.7339L13590.451,-3482.7321L13590.4666,-3482.724L13590.4748,-3482.7135L13590.4817,-3482.7013L13590.4893,-3482.6868L13590.4963,-3482.6758L13590.4998,-3482.6682L13590.5032,-3482.6636L13590.5114,-3482.6526L13590.5217,-3482.6465L13590.5281,-3482.6446L13590.5357,-3482.6481L13590.5515,-3482.6665L13590.5684,-3482.6816L13590.5933,-3482.6938L13590.6107,-3482.7007L13590.6323,-3482.706L13590.634,-3482.7059L13590.6464,-3482.7049L13590.6603,-3482.702L13590.6725,-3482.7037L13590.6885,-3482.712L13590.7004,-3482.7275L13590.7121,-3482.738L13590.7237,-3482.7542L13590.7481,-3482.7757L13590.7609,-3482.7908L13590.7644,-3482.8053L13590.758,-3482.8245L13590.7427,-3482.8494L13590.7359,-3482.8587L13590.7297,-3482.8671L13590.7173,-3482.8837L13590.7115,-3482.8953L13590.6973,-3482.8912L13590.6952,-3482.8907L13590.683,-3482.8831L13590.6754,-3482.8721L13590.6708,-3482.8663L13590.6644,-3482.8552L13590.6574,-3482.8442L13590.6464,-3482.8314L13590.6354,-3482.8207L13590.6231,-3482.8175L13590.6115,-3482.8197L13590.5998,-3482.8286L13590.5958,-3482.8442L13590.5923,-3482.8669L13590.5917,-3482.8912L13590.5906,-3482.9034L13590.5867,-3482.9193L13590.572,-3482.9319L13590.5428,-3482.9314L13590.5261,-3482.9342L13590.5099,-3482.9446L13590.5009,-3482.9556L13590.4895,-3482.9708L13590.4727,-3482.9854L13590.4695,-3482.9935L13590.4628,-3483.0172L13590.4553,-3483.0301L13590.4477,-3483.0399L13590.4314,-3483.0486L13590.4349,-3483.0596L13590.441,-3483.0792L13590.4413,-3483.0799L13590.4512,-3483.095L13590.4619,-3483.0966L13590.4738,-3483.0985L13590.4901,-3483.0938L13590.5041,-3483.0914L13590.5226,-3483.0874L13590.5499,-3483.0857L13590.565,-3483.0904L13590.5814,-3483.1077L13590.5953,-3483.1217L13590.615,-3483.1304L13590.6333,-3483.1332L13590.6342,-3483.1333L13590.6958,-3483.1456L13590.7219,-3483.1535L13590.7407,-3483.1571L13590.7631,-3483.1672L13590.7852,-3483.1834L13590.7957,-3483.1952L13590.8071,-3483.2147L13590.8127,-3483.2315L13590.8188,-3483.2467L13590.8264,-3483.2642L13590.8333,-3483.2763L13590.8383,-3483.2851L13590.8542,-3483.2981L13590.8689,-3483.304L13590.8933,-3483.314L13590.9114,-3483.3248L13590.9341,-3483.3333L13590.9526,-3483.3402L13590.9652,-3483.3499L13590.9902,-3483.3691L13591.0076,-3483.3785L13591.0155,-3483.3832L13591.0278,-3483.3908L13591.0674,-3483.4056L13591.095,-3483.411L13591.1109,-3483.4182L13591.1276,-3483.432L13591.1399,-3483.4399L13591.1533,-3483.4437L13591.1601,-3483.45L13591.1766,-3483.4532L13591.1828,-3483.4547L13591.1992,-3483.4587L13591.2223,-3483.4609L13591.2404,-3483.4623L13591.2606,-3483.4652L13591.2983,-3483.458L13591.3134,-3483.4479L13591.3293,-3483.445L13591.3424,-3483.4457L13591.3631,-3483.4399L13591.41,-3483.43L13591.4434,-3483.4269L13591.4839,-3483.4298L13591.5679,-3483.431L13591.6667,-3483.4323L13591.6827,-3483.4326L13591.7026,-3483.4312L13591.7276,-3483.432L13591.7531,-3483.4342L13591.7894,-3483.4381L13591.8106,-3483.4414L13591.826,-3483.4444L13591.8448,-3483.4482L13591.8722,-3483.45L13591.8845,-3483.4493L13591.9049,-3483.4429L13591.9165,-3483.4333L13591.923,-3483.4231L13591.9271,-3483.4145L13591.935,-3483.4011L13591.9414,-3483.3935L13591.9479,-3483.3895L13591.9621,-3483.3923L13591.9785,-3483.4005L13592.0005,-3483.4105L13592.0149,-3483.4224L13592.0307,-3483.4312L13592.0515,-3483.4381L13592.0703,-3483.4424L13592.0756,-3483.4431L13592.0864,-3483.4445L13592.1091,-3483.4439L13592.1299,-3483.4375L13592.1343,-3483.4328L13592.1426,-3483.4239L13592.1455,-3483.4086L13592.1444,-3483.4011L13592.1272,-3483.3506L13592.1251,-3483.3356L13592.1246,-3483.3333L13592.1224,-3483.3206L13592.1176,-3483.3029L13592.1186,-3483.2927L13592.1219,-3483.2849L13592.1315,-3483.2779L13592.1403,-3483.2758L13592.1483,-3483.2781L13592.1595,-3483.2932L13592.1718,-3483.3088L13592.1815,-3483.3222L13592.1877,-3483.3333L13592.189,-3483.3356L13592.194,-3483.3447L13592.2015,-3483.3522L13592.2131,-3483.3587L13592.2293,-3483.3587L13592.2497,-3483.3506L13592.2657,-3483.3426L13592.2926,-3483.334L13592.2945,-3483.3333L13592.3416,-3483.3169L13592.3463,-3483.3152L13592.3613,-3483.3088L13592.3849,-3483.2986L13592.4011,-3483.3018L13592.4043,-3483.314L13592.4054,-3483.3179L13592.417,-3483.3333L13592.4204,-3483.3377L13592.4376,-3483.3544L13592.4705,-3483.4069L13592.4941,-3483.4348L13592.5,-3483.4418L13592.5193,-3483.4643L13592.529,-3483.4776L13592.544,-3483.4905L13592.58,-3483.5179L13592.5971,-3483.5323L13592.6111,-3483.5452L13592.6218,-3483.5549L13592.6207,-3483.569L13592.6197,-3483.5806L13592.6347,-3483.5983L13592.6664,-3483.6253L13592.6884,-3483.6382L13592.7018,-3483.6484L13592.719,-3483.6577L13592.7356,-3483.6737L13592.7531,-3483.6747L13592.7726,-3483.6757L13592.7873,-3483.6807L13592.8096,-3483.6903L13592.8165,-3483.7023L13592.8119,-3483.7303L13592.8019,-3483.7624L13592.8012,-3483.7859L13592.8081,-3483.812L13592.8189,-3483.8215L13592.849,-3483.8304L13592.9623,-3483.8488L13592.9793,-3483.858L13592.9909,-3483.8642L13592.9971,-3483.8763L13592.9955,-3483.922L13593.0002,-3483.9424L13593.0264,-3484.0129L13593.0326,-3484.064L13593.0642,-3484.1662L13593.0645,-3484.1667L13593.0797,-3484.1919L13593.0836,-3484.1967L13593.119,-3484.2408L13593.1606,-3484.2789L13593.1985,-3484.3154L13593.2193,-3484.3414L13593.227,-3484.3643L13593.2325,-3484.3969L13593.241,-3484.4585L13593.251,-3484.4706L13593.271,-3484.477L13593.298,-3484.4789L13593.3173,-3484.4827L13593.3333,-3484.5015L13593.3521,-3484.5234L13593.3675,-3484.5387L13593.3837,-3484.5507L13593.4053,-3484.5603L13593.4502,-3484.5757L13593.4648,-3484.5858L13593.5003,-3484.6239L13593.5149,-3484.6347L13593.5488,-3484.6386L13593.59,-3484.6425L13593.6254,-3484.6367L13593.6401,-3484.6317L13593.6632,-3484.6069L13593.6761,-3484.5986L13593.6879,-3484.591L13593.7126,-3484.5891L13593.7295,-3484.5891L13593.7457,-3484.5974L13593.7588,-3484.6653L13593.7741,-3484.687L13593.7781,-3484.6926L13593.7883,-3484.7088L13593.7943,-3484.718L13593.8043,-3484.718L13593.8299,-3484.7374L13593.843,-3484.7679L13593.8846,-3484.8371L13593.9288,-3484.8799L13594.0035,-3484.9161L13594.0621,-3484.9447L13594.0707,-3484.9684L13594.0852,-3484.9759L13594.1,-3484.9836L13594.1667,-3484.9964L13594.1794,-3484.9988L13594.1816,-3485L13594.2079,-3485.0141L13594.238,-3485.0242L13594.2693,-3485.0302L13594.3023,-3485.0364L13594.4009,-3485.0612L13594.4225,-3485.0733L13594.4359,-3485.0924L13594.4451,-3485.1185L13594.4621,-3485.135L13594.4921,-3485.1464L13594.5839,-3485.1731L13594.6187,-3485.1782L13594.6351,-3485.1631L13594.6739,-3485.1404L13594.7107,-3485.1302L13594.7424,-3485.1302L13594.771,-3485.1361L13594.8221,-3485.1639L13594.8599,-3485.1942L13594.8824,-3485.1858L13594.9264,-3485.1555L13594.9585,-3485.158L13595,-3485.1811L13595.0025,-3485.1824L13595.0617,-3485.2161L13595.1221,-3485.2431L13595.1568,-3485.2439L13595.2181,-3485.2305L13595.2611,-3485.2288L13595.2795,-3485.2372L13595.3163,-3485.2894L13595.338,-3485.3191L13595.3614,-3485.3326L13595.4105,-3485.3402L13595.4565,-3485.3368L13595.5025,-3485.3385L13595.5434,-3485.3613L13595.5542,-3485.3668L13595.6357,-3485.4086L13595.6725,-3485.4313L13595.6878,-3485.4549L13595.7134,-3485.4776L13595.7389,-3485.4818L13595.789,-3485.481L13595.8329,-3485.4928L13595.8333,-3485.4929L13595.8742,-3485.5013L13595.8783,-3485.5005Z"/>
<path content="京都府,,相楽郡,南山城村,,26367" xlink:title="京都府" d="M13596.6797,-3480.4687L13595.42,-3480.4688L13595.4203,-3480.4859L13595.4125,-3480.507L13595.4101,-3480.5137L13595.4097,-3480.5301L13595.4046,-3480.5474L13595.3948,-3480.5677L13595.3945,-3480.5682L13595.3884,-3480.5772L13595.379,-3480.5863L13595.3713,-3480.5924L13595.3729,-3480.6034L13595.3764,-3480.6132L13595.3769,-3480.6187L13595.3772,-3480.6304L13595.3759,-3480.6463L13595.3697,-3480.6547L13595.3646,-3480.6602L13595.3615,-3480.6692L13595.3615,-3480.6771L13595.3689,-3480.6872L13595.3753,-3480.692L13595.3806,-3480.6972L13595.3866,-3480.7107L13595.386,-3480.7291L13595.3796,-3480.7378L13595.3717,-3480.7444L13595.3564,-3480.7476L13595.3521,-3480.7503L13595.3529,-3480.7558L13595.3674,-3480.7621L13595.3874,-3480.7691L13595.4129,-3480.7852L13595.4294,-3480.7934L13595.4478,-3480.8028L13595.4682,-3480.8126L13595.4788,-3480.8173L13595.5047,-3480.8322L13595.5069,-3480.8333L13595.5502,-3480.8557L13595.5709,-3480.8624L13595.5899,-3480.8751L13595.6413,-3480.9013L13595.6653,-3480.91L13595.6861,-3480.9241L13595.7057,-3480.9334L13595.7168,-3480.9389L13595.7335,-3480.9472L13595.7473,-3480.9562L13595.7618,-3480.9624L13595.7843,-3480.9739L13595.7977,-3480.9811L13595.8066,-3480.986L13595.8317,-3480.9985L13595.8333,-3480.9992L13595.8569,-3481.0099L13595.8745,-3481.0166L13595.9071,-3481.0369L13595.9385,-3481.0518L13595.9671,-3481.0718L13595.9783,-3481.08L13595.9928,-3481.0906L13596.0093,-3481.0806L13596.0241,-3481.0742L13596.0449,-3481.0687L13596.059,-3481.0644L13596.0623,-3481.0634L13596.0733,-3481.0613L13596.0927,-3481.0436L13596.0994,-3481.0346L13596.1068,-3481.0271L13596.1178,-3481.0154L13596.1276,-3481.0083L13596.1396,-3481.0005L13596.1516,-3480.9954L13596.1619,-3480.995L13596.1702,-3480.9981L13596.1745,-3481.0056L13596.1827,-3481.0173L13596.1894,-3481.026L13596.1988,-3481.0311L13596.2114,-3481.0334L13596.2408,-3481.0303L13596.2674,-3481.0158L13596.2816,-3481.0115L13596.2961,-3481.0119L13596.3117,-3481.0193L13596.3204,-3481.0228L13596.3431,-3481.0177L13596.3437,-3481.0176L13596.3671,-3481.0118L13596.3758,-3481.0091L13596.3848,-3481.0067L13596.4021,-3481.0021L13596.4194,-3480.997L13596.4484,-3480.9899L13596.482,-3480.9812L13596.5005,-3480.9763L13596.5167,-3480.9713L13596.5253,-3480.968L13596.5407,-3480.9633L13596.5643,-3480.9597L13596.5917,-3480.9527L13596.6325,-3480.9394L13596.6667,-3480.9313L13596.6686,-3480.9308L13596.6797,-3480.9281Z"/>
</g>
</svg>
