<?xml version="1.0" encoding="UTF-8"?>
<svg  xmlns="http://www.w3.org/2000/svg" xmlns:xlink="http://www.w3.org/1999/xlink" xmlns:go="http://purl.org/svgmap/profile" property="geometry,N03_001,N03_002,N03_003,N03_004,N03_005,N03_007" viewBox="13438.4765625 -3471.6796875 8.7890625 8.7890625" go:dataArea="13438.4765625 -3471.6796875 8.7890625 8.7890625" >
<metadata>
 <rdf:RDF xmlns:rdf="http://www.w3.org/1999/02/22-rdf-syntax-ns#" xmlns:crs="http://opengis.org/xmldtds/transformations.dtd" xmlns:svg="http://www.w3.org/svg" >
  <rdf:Description>
   <crs:CoordinateReferenceSystem rdf:resource="http://purl.org/crs/84" svg:transform="matrix(100.0,0.0,0.0,-100.0,0.0,0.0)" />
  </rdf:Description>
 </rdf:RDF>
</metadata>
<globalCoordinateSystem srsName="http://purl.org/crs/84" transform="matrix(100.0,0.0,0.0,-100.0,0.0,0.0)" />
<defs>
 <g id="p0" >
  <circle cx="0.0" cy="0.0" r="3" stroke="green" stroke-width="2.0" vector-effect="non-scaling-stroke" />
 </g>
</defs>
<g fill="#0000ff" fill-rule="evenodd" opacity="0.5" >
<path content="兵庫県,,,姫路市,,28201" xlink:title="兵庫県" d="M13447.2656,-3464.5268L13447.2627,-3464.5246L13447.2361,-3464.5055L13447.2334,-3464.5026L13447.2307,-3464.5015L13447.2082,-3464.4829L13447.1966,-3464.4733L13447.1912,-3464.4699L13447.1271,-3464.4147L13447.1277,-3464.4083L13447.1295,-3464.3942L13447.1265,-3464.3766L13447.1189,-3464.3702L13447.1156,-3464.3668L13447.1101,-3464.3651L13447.0965,-3464.3606L13447.0842,-3464.3482L13447.076,-3464.3375L13447.0631,-3464.3307L13447.0576,-3464.3302L13447.0447,-3464.3296L13447.0304,-3464.3324L13447.0227,-3464.3301L13447.0097,-3464.3221L13447.0083,-3464.3164L13447.0016,-3464.3116L13447.0003,-3464.3014L13446.9927,-3464.2975L13446.9862,-3464.2871L13446.9829,-3464.2858L13446.9771,-3464.2856L13446.9696,-3464.2776L13446.9636,-3464.2736L13446.9616,-3464.2696L13446.9546,-3464.266L13446.9475,-3464.2591L13446.9424,-3464.2575L13446.9332,-3464.248L13446.9336,-3464.2436L13446.9296,-3464.2373L13446.9205,-3464.2297L13446.9218,-3464.2236L13446.9166,-3464.2181L13446.9173,-3464.2134L13446.9117,-3464.2072L13446.91,-3464.1994L13446.9029,-3464.1927L13446.9047,-3464.1849L13446.8943,-3464.175L13446.8968,-3464.1693L13446.8968,-3464.1667L13446.8968,-3464.1656L13446.8933,-3464.1608L13446.8845,-3464.1572L13446.8839,-3464.1559L13446.8853,-3464.1475L13446.8769,-3464.1411L13446.8783,-3464.1386L13446.8782,-3464.1348L13446.8734,-3464.1318L13446.8744,-3464.1255L13446.8716,-3464.1217L13446.8662,-3464.1175L13446.8565,-3464.1115L13446.8555,-3464.1051L13446.8507,-3464.1039L13446.845,-3464.1002L13446.8455,-3464.0972L13446.8421,-3464.0929L13446.8343,-3464.0916L13446.8266,-3464.0874L13446.8215,-3464.0859L13446.8175,-3464.0791L13446.8103,-3464.0769L13446.8086,-3464.0773L13446.8027,-3464.0767L13446.7962,-3464.0728L13446.7803,-3464.0597L13446.7727,-3464.0495L13446.7694,-3464.0444L13446.7647,-3464.0362L13446.7583,-3464.0341L13446.75,-3464.0332L13446.7363,-3464.0341L13446.7124,-3464.0325L13446.7032,-3464.0331L13446.6898,-3464.0343L13446.6834,-3464.0349L13446.6725,-3464.0365L13446.6667,-3464.037L13446.6599,-3464.0377L13446.6485,-3464.0386L13446.6374,-3464.0404L13446.6209,-3464.0435L13446.6113,-3464.0478L13446.6059,-3464.0499L13446.5935,-3464.0551L13446.5847,-3464.0602L13446.581,-3464.0623L13446.579,-3464.06L13446.5745,-3464.0595L13446.5667,-3464.0614L13446.5627,-3464.0639L13446.5581,-3464.0697L13446.5497,-3464.0662L13446.5447,-3464.0672L13446.5387,-3464.0716L13446.5348,-3464.0777L13446.5244,-3464.0803L13446.518,-3464.0858L13446.5138,-3464.0914L13446.5023,-3464.0967L13446.5001,-3464.101L13446.4994,-3464.1061L13446.4969,-3464.1084L13446.4906,-3464.1096L13446.4864,-3464.1126L13446.4837,-3464.119L13446.4849,-3464.1283L13446.4787,-3464.1364L13446.4805,-3464.1479L13446.4747,-3464.1528L13446.4732,-3464.1578L13446.4744,-3464.1637L13446.4712,-3464.1667L13446.4672,-3464.1703L13446.4672,-3464.1735L13446.4721,-3464.1775L13446.4665,-3464.1843L13446.4673,-3464.1909L13446.4615,-3464.1957L13446.451,-3464.2046L13446.4502,-3464.2137L13446.4433,-3464.2208L13446.4367,-3464.2312L13446.4279,-3464.2315L13446.4222,-3464.2362L13446.4217,-3464.2433L13446.4134,-3464.2463L13446.4093,-3464.2492L13446.4053,-3464.2582L13446.4056,-3464.2621L13446.3991,-3464.2651L13446.3957,-3464.2709L13446.3933,-3464.2742L13446.3837,-3464.2775L13446.3795,-3464.2823L13446.3756,-3464.2953L13446.3675,-3464.2974L13446.363,-3464.3023L13446.3608,-3464.3103L13446.3562,-3464.3116L13446.3494,-3464.3184L13446.3485,-3464.3243L13446.3379,-3464.3255L13446.3309,-3464.3309L13446.3275,-3464.3364L13446.3173,-3464.3395L13446.311,-3464.344L13446.2976,-3464.3463L13446.2893,-3464.352L13446.2835,-3464.3566L13446.2724,-3464.3572L13446.2649,-3464.3621L13446.2542,-3464.3623L13446.2471,-3464.3666L13446.239,-3464.3681L13446.2289,-3464.377L13446.2201,-3464.3734L13446.2145,-3464.3741L13446.2102,-3464.3787L13446.206,-3464.3816L13446.2018,-3464.3807L13446.1976,-3464.3766L13446.1932,-3464.375L13446.1883,-3464.3763L13446.1798,-3464.3828L13446.1643,-3464.3835L13446.1554,-3464.3877L13446.1507,-3464.3925L13446.1366,-3464.3957L13446.1315,-3464.3995L13446.1267,-3464.4079L13446.1123,-3464.4111L13446.1089,-3464.4137L13446.1054,-3464.4184L13446.1032,-3464.4266L13446.0902,-3464.4308L13446.0857,-3464.4351L13446.0855,-3464.4411L13446.0797,-3464.4431L13446.074,-3464.4476L13446.0727,-3464.4523L13446.0681,-3464.4541L13446.0627,-3464.4592L13446.0615,-3464.4655L13446.0437,-3464.4684L13446.0315,-3464.4764L13446.0213,-3464.4753L13446.0125,-3464.4781L13445.9914,-3464.4737L13445.9816,-3464.4764L13445.9715,-3464.4753L13445.9599,-3464.4782L13445.9557,-3464.4784L13445.946,-3464.4753L13445.9334,-3464.4771L13445.9266,-3464.481L13445.9165,-3464.481L13445.9077,-3464.4864L13445.8964,-3464.489L13445.8882,-3464.4975L13445.8794,-3464.499L13445.8748,-3464.5025L13445.8735,-3464.5076L13445.8672,-3464.5091L13445.8648,-3464.5114L13445.8618,-3464.5181L13445.8547,-3464.52L13445.8498,-3464.525L13445.8502,-3464.5288L13445.8527,-3464.5347L13445.8463,-3464.5405L13445.8459,-3464.5445L13445.8511,-3464.5545L13445.8492,-3464.5651L13445.8511,-3464.5674L13445.8588,-3464.57L13445.8605,-3464.5714L13445.8574,-3464.5765L13445.8581,-3464.58L13445.8658,-3464.5866L13445.8662,-3464.5968L13445.8709,-3464.6016L13445.8775,-3464.6032L13445.8813,-3464.6077L13445.8934,-3464.6084L13445.9079,-3464.6147L13445.9154,-3464.6128L13445.9272,-3464.6196L13445.9379,-3464.6186L13445.9494,-3464.6218L13445.9597,-3464.6208L13445.9642,-3464.6259L13445.9703,-3464.6268L13445.9777,-3464.6271L13445.9868,-3464.6232L13446.0007,-3464.6254L13446.0045,-3464.6242L13446.0095,-3464.6229L13446.0171,-3464.626L13446.0223,-3464.6254L13446.0382,-3464.6208L13446.0538,-3464.6226L13446.0632,-3464.6197L13446.0646,-3464.6204L13446.0913,-3464.6241L13446.1144,-3464.6332L13446.1354,-3464.6473L13446.1513,-3464.6635L13446.1624,-3464.6814L13446.1671,-3464.6976L13446.1679,-3464.7216L13446.1688,-3464.7416L13446.1676,-3464.781L13446.1662,-3464.79L13446.1655,-3464.8064L13446.1639,-3464.8218L13446.1596,-3464.8402L13446.153,-3464.839L13446.1464,-3464.8391L13446.1396,-3464.8452L13446.1396,-3464.8469L13446.1396,-3464.8509L13446.1376,-3464.8554L13446.1369,-3464.8593L13446.1335,-3464.8638L13446.1315,-3464.8638L13446.124,-3464.8734L13446.124,-3464.8762L13446.1233,-3464.8785L13446.1219,-3464.8796L13446.1213,-3464.8813L13446.1185,-3464.8819L13446.1124,-3464.8892L13446.1083,-3464.896L13446.1079,-3464.8979L13446.1044,-3464.8993L13446.0974,-3464.9011L13446.0872,-3464.9157L13446.0851,-3464.9196L13446.0851,-3464.9225L13446.079,-3464.9292L13446.0749,-3464.9337L13446.0742,-3464.9461L13446.0654,-3464.9585L13446.0633,-3464.9631L13446.0599,-3464.9676L13446.0585,-3464.9676L13446.0544,-3464.976L13446.0435,-3464.9901L13446.0375,-3465L13446.0361,-3465.0025L13446.0333,-3465.0059L13446.032,-3465.0177L13446.0265,-3465.0261L13446.0251,-3465.0346L13446.019,-3465.0447L13446.0183,-3465.0487L13446.0197,-3465.0498L13446.0238,-3465.0639L13446.0258,-3465.069L13446.0258,-3465.0763L13446.0299,-3465.0864L13446.0354,-3465.0904L13446.0354,-3465.0932L13446.0388,-3465.0989L13446.0442,-3465.1034L13446.0497,-3465.1067L13446.0544,-3465.1129L13446.0599,-3465.1169L13446.0688,-3465.1259L13446.0797,-3465.1282L13446.0933,-3465.1344L13446.1028,-3465.1361L13446.1063,-3465.1372L13446.1226,-3465.1377L13446.1247,-3465.1389L13446.1247,-3465.1406L13446.1301,-3465.1445L13446.141,-3465.1484L13446.1471,-3465.1535L13446.1594,-3465.1603L13446.1621,-3465.1614L13446.1778,-3465.1597L13446.1819,-3465.1716L13446.1839,-3465.1817L13446.1853,-3465.1947L13446.1846,-3465.2212L13446.1797,-3465.2324L13446.1696,-3465.2381L13446.1662,-3465.2482L13446.1642,-3465.251L13446.1601,-3465.2561L13446.158,-3465.264L13446.1587,-3465.273L13446.1614,-3465.2871L13446.1683,-3465.3006L13446.1757,-3465.3119L13446.1785,-3465.3237L13446.1805,-3465.326L13446.1826,-3465.3294L13446.1826,-3465.3361L13446.1812,-3465.3417L13446.1839,-3465.3519L13446.1833,-3465.3553L13446.1805,-3465.3553L13446.1771,-3465.3592L13446.1764,-3465.3626L13446.1757,-3465.366L13446.1669,-3465.3818L13446.1655,-3465.3852L13446.1655,-3465.3897L13446.1607,-3465.4021L13446.1607,-3465.4088L13446.1553,-3465.4145L13446.1539,-3465.4167L13446.1533,-3465.419L13446.1519,-3465.4207L13446.1519,-3465.4224L13446.1464,-3465.4325L13446.1464,-3465.4359L13446.1457,-3465.4404L13446.1444,-3465.4415L13446.1437,-3465.4426L13446.141,-3465.4426L13446.1362,-3465.4466L13446.1287,-3465.4573L13446.128,-3465.4624L13446.1233,-3465.4725L13446.1239,-3465.4765L13446.1253,-3465.4776L13446.1253,-3465.4838L13446.1253,-3465.4861L13446.1239,-3465.4877L13446.1212,-3465.4889L13446.1157,-3465.4934L13446.1137,-3465.4984L13446.1137,-3465.4996L13446.1124,-3465.5018L13446.1117,-3465.5063L13446.1103,-3465.5074L13446.1083,-3465.5108L13446.1042,-3465.5114L13446.0953,-3465.5181L13446.0919,-3465.5243L13446.0912,-3465.526L13446.0837,-3465.5317L13446.0749,-3465.5373L13446.0715,-3465.5412L13446.0728,-3465.5429L13446.0715,-3465.5446L13446.0715,-3465.5457L13446.0708,-3465.5474L13446.0667,-3465.552L13446.0565,-3465.5565L13446.0544,-3465.5593L13446.0449,-3465.5706L13446.0435,-3465.5728L13446.0401,-3465.5784L13446.0353,-3465.5846L13446.0326,-3465.5971L13446.0372,-3465.6031L13446.0324,-3465.6123L13446.0327,-3465.6232L13446.0381,-3465.6334L13446.0468,-3465.6424L13446.0527,-3465.6471L13446.0568,-3465.6557L13446.0461,-3465.6667L13446.0957,-3465.6914L13446.0984,-3465.6849L13446.1083,-3465.6895L13446.1307,-3465.7005L13446.1444,-3465.7148L13446.1479,-3465.7289L13446.1254,-3465.7342L13446.1267,-3465.7407L13446.1495,-3465.7362L13446.1506,-3465.7402L13446.1524,-3465.7468L13446.1502,-3465.7579L13446.1455,-3465.768L13446.1372,-3465.7791L13446.1239,-3465.7911L13446.1165,-3465.8024L13446.114,-3465.8113L13446.1145,-3465.8206L13446.1151,-3465.8322L13446.1149,-3465.8333L13446.1129,-3465.8456L13446.1098,-3465.861L13446.1142,-3465.8666L13446.1271,-3465.8683L13446.1432,-3465.8646L13446.1607,-3465.8606L13446.1729,-3465.8588L13446.1946,-3465.864L13446.2026,-3465.8655L13446.2118,-3465.8649L13446.213,-3465.8614L13446.2089,-3465.8509L13446.2096,-3465.8417L13446.2112,-3465.8333L13446.2128,-3465.825L13446.2144,-3465.8137L13446.2198,-3465.7965L13446.2259,-3465.7872L13446.2432,-3465.7819L13446.2602,-3465.7813L13446.2782,-3465.781L13446.2955,-3465.7762L13446.3027,-3465.7682L13446.3106,-3465.7515L13446.3164,-3465.7366L13446.3238,-3465.712L13446.3251,-3465.7016L13446.3326,-3465.7016L13446.3418,-3465.6542L13446.372,-3465.6553L13446.3732,-3465.6805L13446.4356,-3465.6788L13446.4374,-3465.6681L13446.4545,-3465.6696L13446.4691,-3465.6671L13446.4749,-3465.6651L13446.4845,-3465.6654L13446.4919,-3465.6737L13446.4964,-3465.6822L13446.498,-3465.6885L13446.4991,-3465.6944L13446.4937,-3465.7005L13446.4902,-3465.7051L13446.4861,-3465.7153L13446.482,-3465.72L13446.4687,-3465.7265L13446.4649,-3465.7192L13446.4436,-3465.7289L13446.4473,-3465.7344L13446.4398,-3465.7389L13446.418,-3465.7427L13446.4105,-3465.7447L13446.407,-3465.7467L13446.4029,-3465.7507L13446.3908,-3465.7625L13446.3849,-3465.7716L13446.3786,-3465.785L13446.3741,-3465.7975L13446.3701,-3465.8038L13446.3654,-3465.8115L13446.3654,-3465.8174L13446.3676,-3465.8226L13446.3824,-3465.8322L13446.3835,-3465.8333L13446.3885,-3465.8383L13446.3932,-3465.8487L13446.3939,-3465.8592L13446.3885,-3465.8697L13446.3827,-3465.878L13446.3802,-3465.8872L13446.3829,-3465.8914L13446.3897,-3465.9003L13446.4015,-3465.9097L13446.4072,-3465.9155L13446.4097,-3465.9265L13446.4061,-3465.9378L13446.4005,-3465.9424L13446.3867,-3465.9482L13446.3692,-3465.953L13446.3476,-3465.9625L13446.3408,-3465.9725L13446.3432,-3465.9863L13446.3422,-3465.9965L13446.3425,-3466.0093L13446.3443,-3466.0253L13446.3497,-3466.0474L13446.349,-3466.0634L13446.3432,-3466.0771L13446.3367,-3466.0917L13446.3321,-3466.106L13446.3303,-3466.1173L13446.3285,-3466.1402L13446.3249,-3466.159L13446.3198,-3466.173L13446.3072,-3466.189L13446.3011,-3466.1997L13446.3,-3466.2102L13446.3003,-3466.2221L13446.3032,-3466.2378L13446.3011,-3466.2658L13446.2978,-3466.2828L13446.2989,-3466.298L13446.3025,-3466.3063L13446.3249,-3466.3283L13446.3371,-3466.345L13446.3447,-3466.3584L13446.3501,-3466.3664L13446.3587,-3466.3843L13446.3652,-3466.4087L13446.3717,-3466.4197L13446.3814,-3466.4247L13446.3926,-3466.4283L13446.407,-3466.4328L13446.4261,-3466.4402L13446.4463,-3466.4426L13446.4618,-3466.4521L13446.4889,-3466.4581L13446.5087,-3466.4649L13446.5303,-3466.4712L13446.5451,-3466.4774L13446.5584,-3466.4822L13446.5721,-3466.4861L13446.5801,-3466.4935L13446.584,-3466.5015L13446.584,-3466.5194L13446.5862,-3466.5432L13446.5884,-3466.5593L13446.592,-3466.5667L13446.6024,-3466.5709L13446.6132,-3466.5703L13446.6212,-3466.5676L13446.633,-3466.5647L13446.6452,-3466.5596L13446.663,-3466.5471L13446.6667,-3466.5443L13446.6738,-3466.539L13446.6776,-3466.5364L13446.6906,-3466.5513L13446.6968,-3466.5469L13446.6843,-3466.532L13446.69,-3466.5283L13446.7069,-3466.5218L13446.7253,-3466.5173L13446.7462,-3466.5119L13446.7661,-3466.5099L13446.7823,-3466.5143L13446.7963,-3466.5179L13446.8108,-3466.525L13446.8273,-3466.5381L13446.8596,-3466.5683L13446.8677,-3466.5781L13446.8753,-3466.5876L13446.8834,-3466.5999L13446.8889,-3466.6113L13446.8922,-3466.6236L13446.8956,-3466.6305L13446.8995,-3466.6397L13446.9073,-3466.6611L13446.9099,-3466.6667L13446.9137,-3466.6749L13446.9231,-3466.6932L13446.932,-3466.7069L13446.9414,-3466.7103L13446.9574,-3466.7101L13446.9689,-3466.713L13446.9839,-3466.709L13446.9914,-3466.7051L13446.9975,-3466.7011L13447.0105,-3466.6977L13447.0173,-3466.6921L13447.0289,-3466.687L13447.0391,-3466.6724L13447.0418,-3466.6667L13447.0439,-3466.6622L13447.0439,-3466.6532L13447.0459,-3466.6487L13447.0439,-3466.6386L13447.0432,-3466.6228L13447.0432,-3466.6171L13447.0459,-3466.6104L13447.0432,-3466.6059L13447.0377,-3466.5974L13447.0364,-3466.5969L13447.0364,-3466.5952L13447.0289,-3466.5878L13447.0261,-3466.5867L13447.0241,-3466.5822L13447.0175,-3466.5726L13447.013,-3466.5675L13447.0282,-3466.5574L13447.0239,-3466.5517L13447.0081,-3466.5619L13447.0071,-3466.5608L13446.9975,-3466.5444L13446.9941,-3466.5377L13446.9873,-3466.5247L13446.9764,-3466.5003L13446.9631,-3466.485L13446.9477,-3466.4737L13446.932,-3466.4566L13446.9199,-3466.4472L13446.881,-3466.4171L13446.8691,-3466.407L13446.8618,-3466.3974L13446.8584,-3466.3842L13446.8592,-3466.3481L13446.856,-3466.3442L13446.847,-3466.3399L13446.8389,-3466.3347L13446.8305,-3466.328L13446.8215,-3466.3251L13446.8067,-3466.3253L13446.7783,-3466.3234L13446.7615,-3466.3181L13446.7501,-3466.3102L13446.7406,-3466.3016L13446.7382,-3466.2889L13446.7313,-3466.2798L13446.7185,-3466.2774L13446.6917,-3466.2835L13446.687,-3466.2786L13446.6787,-3466.2639L13446.6721,-3466.2427L13446.671,-3466.2312L13446.6871,-3466.2306L13446.6867,-3466.2237L13446.6704,-3466.2243L13446.6704,-3466.2221L13446.6721,-3466.2094L13446.6766,-3466.1974L13446.6899,-3466.1793L13446.699,-3466.1687L13446.7069,-3466.1601L13446.72,-3466.1511L13446.7266,-3466.1528L13446.7294,-3466.1527L13446.7323,-3466.1523L13446.7338,-3466.1518L13446.7356,-3466.1509L13446.7481,-3466.1449L13446.7529,-3466.1432L13446.775,-3466.137L13446.8054,-3466.131L13446.8441,-3466.1273L13446.86,-3466.1245L13446.8607,-3466.1243L13446.879,-3466.1184L13446.8872,-3466.1139L13446.9062,-3466.1082L13446.9205,-3466.1009L13446.9499,-3466.0857L13446.956,-3466.0829L13446.9594,-3466.0801L13446.98,-3466.0644L13446.995,-3466.0556L13447.0087,-3466.0485L13447.0306,-3466.0415L13447.0541,-3466.0352L13447.0849,-3466.0218L13447.1304,-3466.0124L13447.1599,-3466.0088L13447.1979,-3466.0074L13447.2087,-3466.0076L13447.2187,-3466.0085L13447.2311,-3466.0124L13447.2391,-3466.0173L13447.2433,-3466.0251L13447.2476,-3466.0347L13447.2493,-3466.043L13447.2504,-3466.0626L13447.2531,-3466.08L13447.2556,-3466.0901L13447.2597,-3466.1089L13447.2607,-3466.1207L13447.2649,-3466.1247L13447.2656,-3466.1248Z"/>
<path content="兵庫県,,,姫路市,,28201" xlink:title="兵庫県" d="M13444.1109,-3465.3885L13444.1204,-3465.3767L13444.117,-3465.3682L13444.1184,-3465.3609L13444.1184,-3465.353L13444.1177,-3465.3513L13444.1177,-3465.3479L13444.1116,-3465.3389L13444.1102,-3465.3316L13444.1007,-3465.3186L13444.0973,-3465.3102L13444.0945,-3465.3085L13444.0918,-3465.3073L13444.0843,-3465.3L13444.0809,-3465.2949L13444.0823,-3465.2842L13444.0782,-3465.2684L13444.0816,-3465.2606L13444.0802,-3465.2549L13444.0775,-3465.2487L13444.0775,-3465.2448L13444.0795,-3465.2408L13444.0802,-3465.2256L13444.085,-3465.2166L13444.085,-3465.2048L13444.0884,-3465.1997L13444.0918,-3465.1952L13444.0904,-3465.1873L13444.1013,-3465.1744L13444.1075,-3465.1704L13444.1163,-3465.1653L13444.1211,-3465.1591L13444.1334,-3465.1524L13444.1361,-3465.1479L13444.1368,-3465.1428L13444.1388,-3465.1372L13444.1375,-3465.1191L13444.1375,-3465.1146L13444.1313,-3465.1056L13444.1286,-3465.0994L13444.1238,-3465.0881L13444.1225,-3465.087L13444.1211,-3465.0723L13444.1177,-3465.0695L13444.1157,-3465.0537L13444.1143,-3465.047L13444.1143,-3465.0419L13444.1157,-3465.0374L13444.1143,-3465.0329L13444.1177,-3465.0233L13444.1225,-3465.0199L13444.1313,-3465.0098L13444.1341,-3465.0052L13444.1341,-3465L13444.1341,-3464.9968L13444.1409,-3464.9861L13444.1429,-3464.9827L13444.1436,-3464.9749L13444.1504,-3464.9658L13444.1531,-3464.9568L13444.1593,-3464.9427L13444.1566,-3464.9331L13444.1572,-3464.923L13444.1613,-3464.9117L13444.162,-3464.9084L13444.162,-3464.9078L13444.1531,-3464.8988L13444.1463,-3464.8881L13444.1347,-3464.8819L13444.1191,-3464.8779L13444.1123,-3464.8762L13444.1008,-3464.8754L13444.0959,-3464.87L13444.0904,-3464.8672L13444.0768,-3464.8644L13444.0625,-3464.8706L13444.0454,-3464.8711L13444.038,-3464.8717L13444.0346,-3464.8734L13444.0155,-3464.874L13444.0087,-3464.8785L13444.0046,-3464.8819L13443.9971,-3464.8858L13443.9916,-3464.8926L13443.9896,-3464.8959L13443.9883,-3464.9L13443.9828,-3464.9082L13443.9806,-3464.9155L13443.9775,-3464.9189L13443.9674,-3464.9259L13443.9567,-3464.9315L13443.9442,-3464.936L13443.9324,-3464.9373L13443.9224,-3464.936L13443.9187,-3464.9314L13443.9092,-3464.9309L13443.9037,-3464.9252L13443.9003,-3464.9213L13443.8894,-3464.9207L13443.8819,-3464.9162L13443.8778,-3464.9146L13443.8676,-3464.9044L13443.8642,-3464.9004L13443.8485,-3464.9016L13443.8424,-3464.9016L13443.8281,-3464.9123L13443.8213,-3464.9129L13443.8172,-3464.9129L13443.8022,-3464.9067L13443.7974,-3464.905L13443.7934,-3464.9029L13443.7847,-3464.9012L13443.7757,-3464.9007L13443.7643,-3464.9015L13443.7565,-3464.9117L13443.7551,-3464.9157L13443.7436,-3464.9258L13443.7395,-3464.9303L13443.7374,-3464.9331L13443.7374,-3464.9382L13443.7347,-3464.9427L13443.732,-3464.9438L13443.7286,-3464.9495L13443.7272,-3464.9517L13443.7115,-3464.9495L13443.7061,-3464.9568L13443.6999,-3464.9607L13443.6931,-3464.9596L13443.6809,-3464.954L13443.6673,-3464.9466L13443.6564,-3464.9427L13443.655,-3464.9292L13443.6536,-3464.9275L13443.6516,-3464.9269L13443.6502,-3464.9241L13443.6509,-3464.8999L13443.6523,-3464.8965L13443.6543,-3464.8824L13443.6502,-3464.8774L13443.6482,-3464.8734L13443.6461,-3464.8661L13443.6475,-3464.8526L13443.6489,-3464.8486L13443.6448,-3464.8441L13443.6427,-3464.8368L13443.6414,-3464.8261L13443.6359,-3464.8216L13443.6352,-3464.8091L13443.623,-3464.8041L13443.6203,-3464.8035L13443.6114,-3464.7962L13443.6073,-3464.7951L13443.6059,-3464.7928L13443.593,-3464.7906L13443.578,-3464.7725L13443.5759,-3464.7691L13443.5766,-3464.7438L13443.5787,-3464.737L13443.5732,-3464.7286L13443.5705,-3464.7257L13443.5603,-3464.7257L13443.5569,-3464.7257L13443.5521,-3464.7235L13443.5357,-3464.7229L13443.5296,-3464.7156L13443.5282,-3464.7139L13443.5248,-3464.7156L13443.5173,-3464.7201L13443.5166,-3464.7218L13443.4983,-3464.7218L13443.4894,-3464.7302L13443.4866,-3464.7325L13443.4778,-3464.7336L13443.4689,-3464.7387L13443.456,-3464.7409L13443.4512,-3464.7471L13443.4499,-3464.7494L13443.4471,-3464.7517L13443.4335,-3464.7556L13443.4213,-3464.7641L13443.4117,-3464.7702L13443.4029,-3464.7742L13443.4001,-3464.7764L13443.3892,-3464.7832L13443.3865,-3464.7855L13443.3756,-3464.7973L13443.3647,-3464.8046L13443.3586,-3464.808L13443.3517,-3464.8154L13443.3449,-3464.8204L13443.3367,-3464.8283L13443.3356,-3464.8358L13443.334,-3464.8458L13443.3333,-3464.8475L13443.3313,-3464.8526L13443.3217,-3464.8689L13443.3286,-3464.8835L13443.3286,-3464.8841L13443.3286,-3464.8858L13443.3272,-3464.8875L13443.3217,-3464.9038L13443.3177,-3464.9117L13443.3149,-3464.9213L13443.317,-3464.9286L13443.317,-3464.9523L13443.3183,-3464.9557L13443.3197,-3464.9613L13443.3313,-3464.9771L13443.3333,-3464.9803L13443.336,-3464.9844L13443.3449,-3464.994L13443.3507,-3465L13443.3558,-3465.0052L13443.3633,-3465.0115L13443.381,-3465.0216L13443.3926,-3465.0278L13443.4001,-3465.0306L13443.409,-3465.0379L13443.4117,-3465.0402L13443.4335,-3465.0487L13443.4437,-3465.0594L13443.4437,-3465.0672L13443.4464,-3465.0706L13443.4471,-3465.0768L13443.4471,-3465.0932L13443.4417,-3465.1129L13443.4417,-3465.1146L13443.4471,-3465.1214L13443.4485,-3465.1231L13443.4471,-3465.1253L13443.4464,-3465.1372L13443.4492,-3465.1445L13443.449,-3465.1558L13443.4534,-3465.1588L13443.454,-3465.1638L13443.4532,-3465.1679L13443.4594,-3465.1698L13443.4594,-3465.1743L13443.458,-3465.1805L13443.4599,-3465.1836L13443.4639,-3465.1865L13443.4641,-3465.1935L13443.4709,-3465.1986L13443.473,-3465.2053L13443.4751,-3465.2076L13443.4863,-3465.2099L13443.4921,-3465.2177L13443.5024,-3465.2174L13443.5023,-3465.2262L13443.5134,-3465.2288L13443.516,-3465.2324L13443.5292,-3465.2336L13443.533,-3465.2369L13443.5357,-3465.2403L13443.5377,-3465.2408L13443.5425,-3465.242L13443.5446,-3465.242L13443.55,-3465.2453L13443.5541,-3465.2521L13443.5636,-3465.2521L13443.5684,-3465.251L13443.5711,-3465.2532L13443.5751,-3465.2585L13443.5821,-3465.26L13443.5841,-3465.26L13443.5889,-3465.2634L13443.5957,-3465.2634L13443.6025,-3465.2583L13443.6079,-3465.2628L13443.612,-3465.2617L13443.6147,-3465.26L13443.6147,-3465.2583L13443.6174,-3465.2554L13443.6261,-3465.2542L13443.6263,-3465.2507L13443.6275,-3465.2482L13443.6318,-3465.247L13443.6345,-3465.247L13443.6377,-3465.2431L13443.6399,-3465.2399L13443.6425,-3465.2396L13443.6502,-3465.2397L13443.6577,-3465.2359L13443.6655,-3465.2352L13443.6666,-3465.2312L13443.6709,-3465.23L13443.6788,-3465.2296L13443.6816,-3465.23L13443.6907,-3465.2358L13443.6981,-3465.2343L13443.7011,-3465.2356L13443.7036,-3465.2399L13443.7132,-3465.2409L13443.7155,-3465.2467L13443.716,-3465.2543L13443.723,-3465.2567L13443.7256,-3465.2596L13443.7259,-3465.266L13443.7291,-3465.2731L13443.7286,-3465.2837L13443.7286,-3465.2876L13443.7259,-3465.2921L13443.7245,-3465.2972L13443.7247,-3465.3007L13443.7274,-3465.3056L13443.734,-3465.309L13443.7327,-3465.3158L13443.7395,-3465.3231L13443.7524,-3465.3265L13443.7558,-3465.3276L13443.7572,-3465.3276L13443.766,-3465.3259L13443.7728,-3465.3182L13443.777,-3465.3085L13443.7797,-3465.3073L13443.7831,-3465.3L13443.7879,-3465.2904L13443.7879,-3465.2831L13443.7865,-3465.2792L13443.7872,-3465.2713L13443.8076,-3465.2544L13443.8213,-3465.2459L13443.8261,-3465.2418L13443.8389,-3465.2356L13443.8465,-3465.232L13443.8535,-3465.2312L13443.8612,-3465.2324L13443.8703,-3465.2354L13443.8817,-3465.2418L13443.8862,-3465.2478L13443.8887,-3465.2555L13443.8886,-3465.2704L13443.888,-3465.2752L13443.8887,-3465.2848L13443.8928,-3465.2927L13443.8935,-3465.2944L13443.8935,-3465.3028L13443.8962,-3465.309L13443.8942,-3465.3141L13443.8914,-3465.3186L13443.8901,-3465.3203L13443.8901,-3465.3242L13443.8914,-3465.3254L13443.8935,-3465.3265L13443.901,-3465.3271L13443.9023,-3465.3293L13443.9071,-3465.3372L13443.9105,-3465.3395L13443.9189,-3465.3389L13443.9226,-3465.3439L13443.9272,-3465.3471L13443.9346,-3465.3471L13443.9351,-3465.3539L13443.9378,-3465.3575L13443.9463,-3465.3596L13443.9547,-3465.3589L13443.9609,-3465.3671L13443.9671,-3465.3761L13443.9778,-3465.3788L13443.9882,-3465.3913L13443.9923,-3465.3907L13444.0046,-3465.3885L13444.0066,-3465.3924L13444.0093,-3465.397L13444.0141,-3465.397L13444.0264,-3465.402L13444.0305,-3465.4026L13444.0359,-3465.4049L13444.0448,-3465.4054L13444.0604,-3465.4111L13444.0693,-3465.4144L13444.0714,-3465.415L13444.0857,-3465.4139L13444.1041,-3465.402L13444.1054,-3465.3992L13444.1068,-3465.3953L13444.1075,-3465.3913L13444.1109,-3465.3885Z"/>
<path content="兵庫県,,,姫路市,,28201" xlink:title="兵庫県" d="M13443.345,-3463.2807L13443.3457,-3463.2796L13443.3477,-3463.2796L13443.3497,-3463.2768L13443.3491,-3463.2729L13443.3491,-3463.2717L13443.3511,-3463.2695L13443.3538,-3463.2644L13443.3579,-3463.2599L13443.36,-3463.2571L13443.3593,-3463.252L13443.3566,-3463.2481L13443.3566,-3463.2452L13443.3579,-3463.2407L13443.362,-3463.2289L13443.3613,-3463.2176L13443.3613,-3463.2148L13443.3627,-3463.2114L13443.3627,-3463.2092L13443.3641,-3463.2069L13443.3641,-3463.1883L13443.3613,-3463.1849L13443.3552,-3463.1844L13443.347,-3463.1838L13443.3423,-3463.1838L13443.3333,-3463.1859L13443.3327,-3463.1861L13443.3232,-3463.1832L13443.3109,-3463.1821L13443.2952,-3463.1866L13443.2891,-3463.1832L13443.2836,-3463.1821L13443.2734,-3463.1866L13443.2721,-3463.19L13443.2639,-3463.2024L13443.2646,-3463.2131L13443.2646,-3463.2182L13443.2625,-3463.2221L13443.2639,-3463.2356L13443.2639,-3463.239L13443.2653,-3463.2452L13443.2659,-3463.2604L13443.27,-3463.2689L13443.2727,-3463.2757L13443.2809,-3463.2779L13443.2973,-3463.2864L13443.3034,-3463.2897L13443.3123,-3463.2914L13443.3197,-3463.2976L13443.3197,-3463.2982L13443.33,-3463.2976L13443.3333,-3463.2949L13443.3361,-3463.2926L13443.345,-3463.2807Z"/>
<path content="兵庫県,,,姫路市,,28201" xlink:title="兵庫県" d="M13445.8943,-3465.703L13445.8916,-3465.7013L13445.8861,-3465.7019L13445.8738,-3465.6974L13445.8691,-3465.6968L13445.8684,-3465.6979L13445.8575,-3465.7007L13445.8534,-3465.7024L13445.8343,-3465.7047L13445.8333,-3465.7053L13445.8309,-3465.707L13445.8282,-3465.7154L13445.8254,-3465.7166L13445.82,-3465.7216L13445.8186,-3465.725L13445.8193,-3465.7312L13445.8261,-3465.7441L13445.8275,-3465.7537L13445.8323,-3465.7599L13445.8333,-3465.7611L13445.8343,-3465.7622L13445.8384,-3465.7639L13445.8418,-3465.7678L13445.8452,-3465.7701L13445.8527,-3465.7785L13445.8568,-3465.7864L13445.867,-3465.7853L13445.8732,-3465.7802L13445.8779,-3465.7746L13445.8902,-3465.7729L13445.8949,-3465.7695L13445.9052,-3465.7605L13445.912,-3465.7577L13445.9181,-3465.7503L13445.9181,-3465.7481L13445.9195,-3465.7464L13445.9202,-3465.7351L13445.9167,-3465.7267L13445.8977,-3465.7058L13445.8943,-3465.703Z"/>
<path content="兵庫県,,,姫路市,,28201" xlink:title="兵庫県" d="M13443.5944,-3464.0089L13443.5848,-3464.0072L13443.578,-3464.0145L13443.5726,-3464.0235L13443.5726,-3464.0246L13443.5698,-3464.0315L13443.5723,-3464.0383L13443.5813,-3464.0447L13443.5828,-3464.0534L13443.5848,-3464.0579L13443.592,-3464.0597L13443.5909,-3464.0658L13443.5924,-3464.0705L13443.5986,-3464.0743L13443.6019,-3464.0821L13443.6039,-3464.0844L13443.6056,-3464.0882L13443.6122,-3464.0931L13443.6141,-3464.0968L13443.6169,-3464.1024L13443.6175,-3464.1036L13443.6196,-3464.1041L13443.6237,-3464.1081L13443.6305,-3464.1193L13443.6353,-3464.1267L13443.6443,-3464.1262L13443.6505,-3464.1169L13443.6513,-3464.1109L13443.6497,-3464.105L13443.64,-3464.0985L13443.6395,-3464.0871L13443.6384,-3464.0792L13443.6337,-3464.0734L13443.6373,-3464.0662L13443.6387,-3464.0607L13443.6387,-3464.0579L13443.6366,-3464.0551L13443.6332,-3464.0523L13443.6312,-3464.0494L13443.6278,-3464.0432L13443.6209,-3464.0382L13443.6203,-3464.0309L13443.6134,-3464.0275L13443.6059,-3464.0221L13443.5944,-3464.0089Z"/>
<path content="兵庫県,,,姫路市,,28201" xlink:title="兵庫県" d="M13443.3225,-3463.3833L13443.3129,-3463.3833L13443.3109,-3463.3844L13443.3054,-3463.394L13443.3014,-3463.4058L13443.3014,-3463.425L13443.3,-3463.4312L13443.3041,-3463.438L13443.3048,-3463.4487L13443.3075,-3463.4571L13443.3136,-3463.4639L13443.3182,-3463.4649L13443.3232,-3463.4633L13443.3273,-3463.456L13443.3279,-3463.4504L13443.3279,-3463.4442L13443.3293,-3463.443L13443.3293,-3463.4346L13443.3307,-3463.4334L13443.3307,-3463.4289L13443.3286,-3463.4272L13443.3286,-3463.4222L13443.3266,-3463.4199L13443.3266,-3463.403L13443.33,-3463.3912L13443.3313,-3463.3901L13443.3239,-3463.3844L13443.3225,-3463.3833Z"/>
<path content="兵庫県,,,姫路市,,28201" xlink:title="兵庫県" d="M13444.0559,-3464.8292L13444.0501,-3464.8268L13444.0411,-3464.8279L13444.037,-3464.8316L13444.0357,-3464.8347L13444.0312,-3464.8376L13444.0217,-3464.841L13444.0171,-3464.8454L13444.0131,-3464.8493L13444.0138,-3464.8549L13444.0186,-3464.8595L13444.0223,-3464.8599L13444.025,-3464.8589L13444.031,-3464.8556L13444.0368,-3464.8519L13444.0414,-3464.8503L13444.049,-3464.8471L13444.0544,-3464.8423L13444.0565,-3464.8355L13444.0559,-3464.8292Z"/>
<path content="兵庫県,,,姫路市,,28201" xlink:title="兵庫県" d="M13443.9651,-3464.8942L13443.9657,-3464.8931L13443.9712,-3464.8937L13443.9753,-3464.8931L13443.978,-3464.8892L13443.9801,-3464.8869L13443.9814,-3464.8852L13443.9807,-3464.8744L13443.9746,-3464.8706L13443.963,-3464.8711L13443.9576,-3464.8881L13443.9569,-3464.892L13443.9651,-3464.8942Z"/>
</g>
</svg>
