<?xml version="1.0" encoding="UTF-8"?>
<svg  xmlns="http://www.w3.org/2000/svg" xmlns:xlink="http://www.w3.org/1999/xlink" xmlns:go="http://purl.org/svgmap/profile" property="geometry,N03_001,N03_002,N03_003,N03_004,N03_005,N03_007" viewBox="13565.91796875 -3454.1015625 4.39453125 4.39453125" go:dataArea="13565.91796875 -3454.1015625 4.39453125 4.39453125" >
<metadata>
 <rdf:RDF xmlns:rdf="http://www.w3.org/1999/02/22-rdf-syntax-ns#" xmlns:crs="http://opengis.org/xmldtds/transformations.dtd" xmlns:svg="http://www.w3.org/svg" >
  <rdf:Description>
   <crs:CoordinateReferenceSystem rdf:resource="http://purl.org/crs/84" svg:transform="matrix(100.0,0.0,0.0,-100.0,0.0,0.0)" />
  </rdf:Description>
 </rdf:RDF>
</metadata>
<globalCoordinateSystem srsName="http://purl.org/crs/84" transform="matrix(100.0,0.0,0.0,-100.0,0.0,0.0)" />
<defs>
 <g id="p0" >
  <circle cx="0.0" cy="0.0" r="3" stroke="green" stroke-width="2.0" vector-effect="non-scaling-stroke" />
 </g>
</defs>
<g fill="#0000ff" fill-rule="evenodd" opacity="0.5" >
<path content="大阪府,,,羽曳野市,,27222" xlink:title="大阪府" d="M13565.918,-3454.1016L13565.998,-3454.1016L13565.9949,-3454.1005L13565.9254,-3454.0705L13565.918,-3454.0673Z"/>
<path content="大阪府,,南河内郡,太子町,,27381" xlink:title="大阪府" d="M13566.1323,-3453.3143L13566.1389,-3453.2838L13566.149,-3453.2671L13566.153,-3453.2552L13566.1523,-3453.2266L13566.1465,-3453.1884L13566.1515,-3453.1771L13566.1652,-3453.1651L13566.1869,-3453.1413L13566.2114,-3453.1025L13566.2157,-3453.0882L13566.2128,-3453.0494L13566.2143,-3453.0315L13566.2193,-3453.0154L13566.2287,-3453.0041L13566.2474,-3452.9868L13566.2835,-3452.9629L13566.295,-3452.9606L13566.2967,-3452.9607L13566.3101,-3452.9623L13566.3209,-3452.9677L13566.3491,-3453.0017L13566.3728,-3453.0142L13566.3941,-3453.019L13566.4107,-3453.0196L13566.4474,-3453.016L13566.4734,-3453.0094L13566.5066,-3452.9939L13566.5707,-3452.9581L13566.6096,-3452.9427L13566.6255,-3452.9415L13566.6457,-3452.945L13566.6565,-3452.9522L13566.6667,-3452.9672L13566.6731,-3452.9766L13566.7026,-3453.0458L13566.7163,-3453.0625L13566.7466,-3453.0846L13566.7498,-3453.0862L13566.774,-3453.0983L13566.7949,-3453.1049L13566.8136,-3453.1072L13566.8316,-3453.1061L13566.8511,-3453.1001L13566.8684,-3453.0868L13566.8893,-3453.0709L13566.9146,-3453.0619L13566.9326,-3453.0619L13566.9729,-3453.0703L13566.9989,-3453.0649L13567.0105,-3453.0586L13567.0328,-3453.0464L13567.0987,-3453.0029L13567.1276,-3452.985L13567.1449,-3452.9808L13567.2198,-3452.9671L13567.2386,-3452.9576L13567.2555,-3452.9474L13567.2678,-3452.9325L13567.2779,-3452.9009L13567.2784,-3452.8999L13567.288,-3452.883L13567.3046,-3452.8633L13567.3449,-3452.8287L13567.3896,-3452.7923L13567.4451,-3452.7595L13567.4847,-3452.7327L13567.5,-3452.7219L13567.5075,-3452.7166L13567.5774,-3452.6587L13567.6171,-3452.6223L13567.6617,-3452.5788L13567.6927,-3452.5531L13567.7043,-3452.537L13567.7144,-3452.5162L13567.7178,-3452.5L13567.7187,-3452.4959L13567.7173,-3452.4881L13567.7079,-3452.4756L13567.687,-3452.4428L13567.6625,-3452.3987L13567.6293,-3452.3533L13567.6221,-3452.3414L13567.6192,-3452.3152L13567.6034,-3452.3021L13567.594,-3452.2913L13567.5911,-3452.2716L13567.5832,-3452.2507L13567.5811,-3452.2368L13567.5803,-3452.2317L13567.5825,-3452.2156L13567.5854,-3452.2066L13567.5887,-3452.2001L13567.5894,-3452.1987L13567.5948,-3452.1882L13567.6022,-3452.174L13567.6084,-3452.1619L13567.6153,-3452.1447L13567.6201,-3452.1325L13567.6229,-3452.1254L13567.6272,-3452.1148L13567.6304,-3452.0994L13567.6348,-3452.0778L13567.6394,-3452.0557L13567.6437,-3452.0372L13567.6596,-3451.9913L13567.6747,-3451.9734L13567.6856,-3451.9543L13567.6906,-3451.937L13567.7137,-3451.9018L13567.7166,-3451.8893L13567.7151,-3451.8738L13567.7151,-3451.8547L13567.7353,-3451.8189L13567.736,-3451.8088L13567.7331,-3451.7974L13567.7194,-3451.7736L13567.7108,-3451.7533L13567.7079,-3451.7396L13567.7079,-3451.7187L13567.7115,-3451.6949L13567.7156,-3451.6667L13567.7186,-3451.6466L13567.7194,-3451.6406L13567.7166,-3451.6197L13567.7108,-3451.6018L13567.6947,-3451.5648L13567.6877,-3451.5487L13567.6827,-3451.5254L13567.6834,-3451.5L13567.6856,-3451.4491L13567.6892,-3451.4252L13567.6971,-3451.3966L13567.7072,-3451.3489L13567.7086,-3451.3077L13567.7091,-3451.3043L13567.7166,-3451.2481L13567.7216,-3451.2159L13567.7274,-3451.1956L13567.7259,-3451.1461L13567.7266,-3451.0954L13567.7353,-3451.0489L13567.7484,-3450.9992L13567.7512,-3450.9886L13567.7526,-3450.9743L13567.7504,-3450.9642L13567.7425,-3450.9546L13567.7173,-3450.9373L13567.6928,-3450.9314L13567.6683,-3450.9296L13567.6488,-3450.9188L13567.6164,-3450.8986L13567.5991,-3450.8777L13567.594,-3450.8627L13567.5926,-3450.8502L13567.5933,-3450.8371L13567.5949,-3450.8333L13567.5991,-3450.8234L13567.6128,-3450.8073L13567.6366,-3450.7924L13567.6491,-3450.7868L13567.6712,-3450.7769L13567.6813,-3450.7554L13567.6863,-3450.7316L13567.6914,-3450.6928L13567.6892,-3450.6767L13567.6834,-3450.6659L13567.6665,-3450.651L13567.642,-3450.6373L13567.6232,-3450.623L13567.5994,-3450.6087L13567.5547,-3450.5907L13567.5317,-3450.5735L13567.5,-3450.5719L13567.4847,-3450.5712L13567.4566,-3450.5665L13567.3829,-3450.5503L13567.3425,-3450.5414L13567.3252,-3450.5409L13567.2942,-3450.5432L13567.2791,-3450.5426L13567.2274,-3450.5375L13567.2186,-3450.5367L13567.1998,-3450.5361L13567.1789,-3450.5444L13567.1421,-3450.5635L13567.127,-3450.5778L13567.1183,-3450.585L13567.1068,-3450.588L13567.0917,-3450.588L13567.0736,-3450.585L13567.0614,-3450.5802L13567.0405,-3450.5689L13567.031,-3450.5655L13567.0253,-3450.5635L13567.0051,-3450.5617L13566.9648,-3450.5593L13566.9244,-3450.5528L13566.8942,-3450.545L13566.8624,-3450.5313L13566.7932,-3450.486L13566.7842,-3450.4787L13566.7586,-3450.4579L13566.7525,-3450.4551L13566.7406,-3450.4496L13566.706,-3450.4412L13566.6667,-3450.4239L13566.6599,-3450.4209L13566.6161,-3450.4056L13566.5986,-3450.3995L13566.5669,-3450.3953L13566.5371,-3450.3956L13566.5145,-3450.3959L13566.5135,-3450.3959L13566.4818,-3450.3929L13566.4407,-3450.3846L13566.427,-3450.3786L13566.3931,-3450.3524L13566.3773,-3450.3369L13566.3714,-3450.3277L13566.3678,-3450.3215L13566.3592,-3450.3132L13566.3232,-3450.2982L13566.303,-3450.2911L13566.2483,-3450.2571L13566.2274,-3450.2439L13566.2058,-3450.2296L13566.19,-3450.2052L13566.1684,-3450.1747L13566.1475,-3450.136L13566.1345,-3450.1235L13566.0934,-3450.0895L13566.0704,-3450.0662L13566.0666,-3450.0509L13566.0636,-3450.0362L13566.0563,-3450L13566.0557,-3449.9972L13566.0428,-3449.9632L13566.0233,-3449.9471L13566.0039,-3449.9316L13565.9809,-3449.9161L13565.965,-3449.8958L13565.9607,-3449.8827L13565.9636,-3449.8666L13565.9693,-3449.8511L13565.9693,-3449.8433L13565.9607,-3449.8391L13565.9355,-3449.8308L13565.918,-3449.8293L13565.918,-3454.0673L13565.9254,-3454.0705L13565.9949,-3454.1005L13565.998,-3454.1016L13566.0141,-3454.1016L13566.0138,-3454.0932L13566.0037,-3454.0437L13566.0001,-3454.0241L13566.0001,-3454.005L13565.9951,-3453.9906L13565.9795,-3453.9682L13565.9648,-3453.9471L13565.9547,-3453.9268L13565.9536,-3453.9131L13565.9565,-3453.8851L13565.9623,-3453.8684L13565.9702,-3453.8576L13565.9875,-3453.8481L13566.0048,-3453.8427L13566.0058,-3453.842L13566.0597,-3453.802L13566.082,-3453.7855L13566.0993,-3453.7766L13566.1043,-3453.7741L13566.1223,-3453.7544L13566.1439,-3453.7222L13566.162,-3453.6775L13566.1728,-3453.6363L13566.1843,-3453.5701L13566.1894,-3453.5278L13566.1872,-3453.4992L13566.1807,-3453.4836L13566.1656,-3453.4622L13566.1616,-3453.4578L13566.1353,-3453.4287L13566.1281,-3453.4139L13566.1245,-3453.3996L13566.1259,-3453.3727L13566.1281,-3453.3333L13566.1323,-3453.3143Z"/>
<path content="大阪府,,南河内郡,河南町,,27382" xlink:title="大阪府" d="M13565.918,-3449.707L13565.918,-3449.8293L13565.9355,-3449.8308L13565.9607,-3449.8391L13565.9693,-3449.8433L13565.9693,-3449.8511L13565.9636,-3449.8666L13565.9607,-3449.8827L13565.965,-3449.8958L13565.9809,-3449.9161L13566.0039,-3449.9316L13566.0233,-3449.9471L13566.0428,-3449.9632L13566.0557,-3449.9972L13566.0563,-3450L13566.0636,-3450.0362L13566.0666,-3450.0509L13566.0704,-3450.0662L13566.0934,-3450.0895L13566.1345,-3450.1235L13566.1475,-3450.136L13566.1684,-3450.1747L13566.19,-3450.2052L13566.2058,-3450.2296L13566.2274,-3450.2439L13566.2483,-3450.2571L13566.303,-3450.2911L13566.3232,-3450.2982L13566.3592,-3450.3132L13566.3678,-3450.3215L13566.3714,-3450.3277L13566.3773,-3450.3369L13566.3931,-3450.3524L13566.427,-3450.3786L13566.4407,-3450.3846L13566.4818,-3450.3929L13566.5135,-3450.3959L13566.5145,-3450.3959L13566.5371,-3450.3956L13566.5669,-3450.3953L13566.5986,-3450.3995L13566.6161,-3450.4056L13566.6599,-3450.4209L13566.6667,-3450.4239L13566.706,-3450.4412L13566.7406,-3450.4496L13566.7525,-3450.4551L13566.7586,-3450.4579L13566.7842,-3450.4787L13566.7932,-3450.486L13566.8624,-3450.5313L13566.8942,-3450.545L13566.9244,-3450.5528L13566.9648,-3450.5593L13567.0051,-3450.5617L13567.0253,-3450.5635L13567.031,-3450.5655L13567.0405,-3450.5689L13567.0614,-3450.5802L13567.0736,-3450.585L13567.0917,-3450.588L13567.1068,-3450.588L13567.1183,-3450.585L13567.127,-3450.5778L13567.1421,-3450.5635L13567.1789,-3450.5444L13567.1998,-3450.5361L13567.2186,-3450.5367L13567.2274,-3450.5375L13567.2791,-3450.5426L13567.2942,-3450.5432L13567.3252,-3450.5409L13567.3425,-3450.5414L13567.3829,-3450.5503L13567.4566,-3450.5665L13567.4847,-3450.5712L13567.5,-3450.5719L13567.5317,-3450.5735L13567.5047,-3450.5442L13567.5,-3450.5372L13567.4686,-3450.49L13567.4513,-3450.4512L13567.4109,-3450.4053L13567.39,-3450.3772L13567.3475,-3450.3337L13567.3452,-3450.3277L13567.3329,-3450.3164L13567.3099,-3450.2991L13567.3013,-3450.2901L13567.302,-3450.2788L13567.3063,-3450.2645L13567.3221,-3450.243L13567.3546,-3450.2078L13567.4078,-3450.1714L13567.4518,-3450.1464L13567.4698,-3450.1392L13567.4914,-3450.1398L13567.5,-3450.1403L13567.5497,-3450.1428L13567.5627,-3450.1416L13567.585,-3450.1339L13567.6001,-3450.1219L13567.608,-3450.1154L13567.6246,-3450.0951L13567.6361,-3450.0862L13567.6707,-3450.0718L13567.7002,-3450.0629L13567.7225,-3450.0456L13567.7348,-3450.0354L13567.7441,-3450.0062L13567.7503,-3450L13567.7661,-3449.984L13567.7833,-3449.9738L13567.8172,-3449.9595L13567.8301,-3449.95L13567.8307,-3449.9321L13567.8294,-3449.9225L13567.8258,-3449.904L13567.8042,-3449.8551L13567.8038,-3449.8514L13567.8013,-3449.8289L13567.8057,-3449.8134L13567.8121,-3449.8021L13567.8409,-3449.7674L13567.8503,-3449.743L13567.8582,-3449.7251L13567.8601,-3449.707Z"/>
<path content="奈良県,,,香芝市,,29210" xlink:title="奈良県" d="M13570.3125,-3454.1016L13570.3125,-3452.5196L13570.2116,-3452.52L13570.0877,-3452.5236L13570.0098,-3452.5242L13570,-3452.5233L13569.9701,-3452.5206L13569.9607,-3452.5197L13569.9306,-3452.5167L13569.88,-3452.5117L13569.8022,-3452.5051L13569.7626,-3452.5039L13569.7219,-3452.5L13569.7006,-3452.4979L13569.6953,-3452.5L13569.689,-3452.5024L13569.6883,-3452.5027L13569.6789,-3452.5134L13569.6724,-3452.5444L13569.6566,-3452.6023L13569.6515,-3452.6536L13569.6371,-3452.7705L13569.6363,-3452.7839L13569.6358,-3452.7923L13569.6349,-3452.8057L13569.6321,-3452.8194L13569.6277,-3452.8266L13569.6191,-3452.8332L13569.6076,-3452.8528L13569.6068,-3452.8666L13569.609,-3452.8741L13569.6241,-3452.9258L13569.6313,-3452.9506L13569.6385,-3452.9954L13569.6637,-3452.9936L13569.6782,-3452.9966L13569.6947,-3453.0061L13569.7027,-3453.0246L13569.6803,-3453.03L13569.6796,-3453.0449L13569.6839,-3453.0497L13569.702,-3453.0485L13569.694,-3453.0741L13569.6901,-3453.0951L13569.6883,-3453.1045L13569.6839,-3453.1278L13569.6818,-3453.1367L13569.6753,-3453.1433L13569.6659,-3453.1421L13569.6508,-3453.1397L13569.6544,-3453.1522L13569.6436,-3453.1672L13569.6428,-3453.1821L13569.6429,-3453.1823L13569.6529,-3453.2077L13569.6666,-3453.2328L13569.6767,-3453.2453L13569.6566,-3453.2459L13569.6176,-3453.2304L13569.6169,-3453.2364L13569.6241,-3453.2805L13569.6248,-3453.3288L13569.5679,-3453.3228L13569.5246,-3453.3097L13569.5044,-3453.3061L13569.4943,-3453.3067L13569.4792,-3453.3115L13569.4734,-3453.3181L13569.4763,-3453.3288L13569.48,-3453.3333L13569.4907,-3453.3467L13569.503,-3453.3652L13569.503,-3453.3807L13569.508,-3453.3884L13569.5534,-3453.4087L13569.578,-3453.4219L13569.5837,-3453.4302L13569.5816,-3453.4424L13569.5816,-3453.4427L13569.5751,-3453.4582L13569.5657,-3453.4624L13569.5491,-3453.469L13569.5412,-3453.4767L13569.5412,-3453.4929L13569.5419,-3453.5012L13569.5428,-3453.5122L13569.5448,-3453.537L13569.5571,-3453.5477L13569.5592,-3453.5561L13569.5506,-3453.5716L13569.5369,-3453.5996L13569.5297,-3453.6044L13569.5224,-3453.6115L13569.5138,-3453.6223L13569.503,-3453.6223L13569.4878,-3453.6157L13569.4506,-3453.5963L13569.4489,-3453.5954L13569.439,-3453.5908L13569.426,-3453.5847L13569.4107,-3453.5775L13569.4042,-3453.5692L13569.383,-3453.563L13569.3653,-3453.5579L13569.3459,-3453.5501L13569.2997,-3453.5466L13569.2986,-3453.5465L13569.2799,-3453.5459L13569.2626,-3453.5513L13569.2374,-3453.5632L13569.1948,-3453.5805L13569.1703,-3453.5889L13569.1667,-3453.589L13569.1552,-3453.5894L13569.1541,-3453.5894L13569.1411,-3453.5829L13569.1324,-3453.5751L13569.0951,-3453.5429L13569.0832,-3453.5326L13569.069,-3453.5204L13569.0474,-3453.5017L13568.9956,-3453.4664L13568.9818,-3453.457L13568.914,-3453.4236L13568.8627,-3453.4065L13568.8513,-3453.4027L13568.8337,-3453.3982L13568.803,-3453.3902L13568.7576,-3453.3902L13568.7417,-3453.3854L13568.7316,-3453.3836L13568.6913,-3453.3974L13568.6805,-3453.3956L13568.6574,-3453.3866L13568.6415,-3453.386L13568.6271,-3453.3896L13568.6004,-3453.4015L13568.5658,-3453.4248L13568.5255,-3453.4385L13568.5038,-3453.4403L13568.4813,-3453.4414L13568.48,-3453.4415L13568.4671,-3453.4373L13568.4577,-3453.4301L13568.4563,-3453.423L13568.4577,-3453.4128L13568.4649,-3453.3919L13568.4829,-3453.3723L13568.4736,-3453.3663L13568.4577,-3453.3741L13568.4469,-3453.3848L13568.4346,-3453.4099L13568.4224,-3453.4242L13568.4116,-3453.4277L13568.4029,-3453.4288L13568.3863,-3453.4307L13568.3654,-3453.4301L13568.351,-3453.4283L13568.3359,-3453.426L13568.3333,-3453.426L13568.2962,-3453.4266L13568.2422,-3453.4218L13568.222,-3453.4176L13568.196,-3453.4111L13568.165,-3453.4045L13568.1304,-3453.4021L13568.1117,-3453.4003L13568.098,-3453.4039L13568.0792,-3453.4134L13568.0554,-3453.4349L13568.0474,-3453.442L13568.0439,-3453.4451L13568.036,-3453.4474L13568.0273,-3453.4486L13568.0165,-3453.4444L13568.0014,-3453.4319L13567.974,-3453.414L13567.9401,-3453.3967L13567.9178,-3453.3842L13567.8933,-3453.3735L13567.8579,-3453.3502L13567.8406,-3453.3472L13567.8204,-3453.3442L13567.8161,-3453.3478L13567.819,-3453.355L13567.85,-3453.4009L13567.8753,-3453.4558L13567.8954,-3453.4856L13567.9127,-3453.5047L13567.9194,-3453.5078L13567.9243,-3453.5101L13567.9553,-3453.519L13567.9668,-3453.5268L13567.9725,-3453.5333L13567.9711,-3453.5429L13567.9624,-3453.5524L13567.9495,-3453.5655L13567.9999,-3453.6019L13568.0244,-3453.6329L13568.0295,-3453.6514L13568.023,-3453.6962L13568.0213,-3453.71L13568.0201,-3453.7194L13568.0252,-3453.7379L13568.0417,-3453.7653L13568.0511,-3453.7904L13568.0641,-3453.8113L13568.0929,-3453.8417L13568.1073,-3453.856L13568.1116,-3453.8697L13568.1096,-3453.8923L13568.1095,-3453.8942L13568.1037,-3453.9192L13568.0972,-3453.9276L13568.0684,-3453.9484L13568.0345,-3453.9669L13568.0237,-3453.9771L13568.0331,-3454.0099L13568.0316,-3454.0218L13568.0251,-3454.0302L13568.0129,-3454.0391L13568.0074,-3454.0414L13568.0028,-3454.0433L13567.9898,-3454.0433L13567.9711,-3454.0379L13567.9249,-3454.0123L13567.9055,-3453.995L13567.8882,-3453.9807L13567.8651,-3453.9741L13567.8377,-3453.9705L13567.8197,-3453.9616L13567.7916,-3453.945L13567.7873,-3453.9425L13567.7606,-3453.9228L13567.7531,-3453.9158L13567.7375,-3453.9013L13567.7289,-3453.8954L13567.7087,-3453.8894L13567.6885,-3453.887L13567.6813,-3453.8888L13567.6741,-3453.8971L13567.6676,-3453.9091L13567.6583,-3453.9168L13567.6446,-3453.921L13567.6251,-3453.9329L13567.6207,-3453.9371L13567.6099,-3453.9472L13567.5984,-3453.9717L13567.5919,-3454.0009L13567.5876,-3454.0427L13567.5933,-3454.0809L13567.5968,-3454.1016L13567.4749,-3454.1016L13567.4492,-3454.0904L13567.4117,-3454.0821L13567.398,-3454.0791L13567.3857,-3454.0743L13567.3785,-3454.0689L13567.3742,-3454.0618L13567.3749,-3454.0552L13567.3778,-3454.0344L13567.3987,-3453.992L13567.4146,-3453.9616L13567.4273,-3453.9266L13567.4326,-3453.9121L13567.4384,-3453.8769L13567.442,-3453.8381L13567.4384,-3453.8131L13567.4319,-3453.7892L13567.4297,-3453.7617L13567.4297,-3453.7331L13567.4261,-3453.7224L13567.4151,-3453.7095L13567.4074,-3453.7003L13567.3497,-3453.6538L13567.3371,-3453.652L13567.336,-3453.6522L13567.3248,-3453.6538L13567.2859,-3453.6699L13567.2643,-3453.6789L13567.234,-3453.6956L13567.2196,-3453.6991L13567.2066,-3453.6991L13567.1958,-3453.6962L13567.1886,-3453.692L13567.1591,-3453.6556L13567.1475,-3453.6335L13567.1281,-3453.6049L13567.0992,-3453.5989L13567.0754,-3453.5971L13567.0423,-3453.5918L13567.0307,-3453.5912L13567.0199,-3453.5947L13566.9724,-3453.6294L13566.9392,-3453.6526L13566.9285,-3453.6595L13566.8815,-3453.6896L13566.8527,-3453.7045L13566.8433,-3453.7152L13566.8332,-3453.7171L13566.8224,-3453.7105L13566.8001,-3453.6753L13566.7813,-3453.6437L13566.7583,-3453.6246L13566.728,-3453.593L13566.6984,-3453.5787L13566.6667,-3453.5554L13566.6602,-3453.5506L13566.6242,-3453.5202L13566.6084,-3453.5071L13566.6034,-3453.4984L13566.6026,-3453.4969L13566.6055,-3453.488L13566.6156,-3453.4731L13566.6336,-3453.4445L13566.6559,-3453.42L13566.6667,-3453.4015L13566.6739,-3453.389L13566.6898,-3453.3592L13566.6997,-3453.3333L13566.6999,-3453.3329L13566.715,-3453.3013L13566.7229,-3453.2566L13566.728,-3453.2321L13566.7284,-3453.2281L13566.7324,-3453.1892L13566.7349,-3453.1456L13566.7352,-3453.1409L13566.7381,-3453.1182L13566.7498,-3453.0862L13566.7466,-3453.0846L13566.7163,-3453.0625L13566.7026,-3453.0458L13566.6731,-3452.9766L13566.6667,-3452.9672L13566.6565,-3452.9522L13566.6457,-3452.945L13566.6255,-3452.9415L13566.6096,-3452.9427L13566.5707,-3452.9581L13566.5066,-3452.9939L13566.4734,-3453.0094L13566.4474,-3453.016L13566.4107,-3453.0196L13566.3941,-3453.019L13566.3728,-3453.0142L13566.3491,-3453.0017L13566.3209,-3452.9677L13566.3101,-3452.9623L13566.2967,-3452.9607L13566.295,-3452.9606L13566.2835,-3452.9629L13566.2474,-3452.9868L13566.2287,-3453.0041L13566.2193,-3453.0154L13566.2143,-3453.0315L13566.2128,-3453.0494L13566.2157,-3453.0882L13566.2114,-3453.1025L13566.1869,-3453.1413L13566.1652,-3453.1651L13566.1515,-3453.1771L13566.1465,-3453.1884L13566.1523,-3453.2266L13566.153,-3453.2552L13566.149,-3453.2671L13566.1389,-3453.2838L13566.1323,-3453.3143L13566.1281,-3453.3333L13566.1259,-3453.3727L13566.1245,-3453.3996L13566.1281,-3453.4139L13566.1353,-3453.4287L13566.1616,-3453.4578L13566.1656,-3453.4622L13566.1807,-3453.4836L13566.1872,-3453.4992L13566.1894,-3453.5278L13566.1843,-3453.5701L13566.1728,-3453.6363L13566.162,-3453.6775L13566.1439,-3453.7222L13566.1223,-3453.7544L13566.1043,-3453.7741L13566.0993,-3453.7766L13566.082,-3453.7855L13566.0597,-3453.802L13566.0058,-3453.842L13566.0048,-3453.8427L13565.9875,-3453.8481L13565.9702,-3453.8576L13565.9623,-3453.8684L13565.9565,-3453.8851L13565.9536,-3453.9131L13565.9547,-3453.9268L13565.9648,-3453.9471L13565.9795,-3453.9682L13565.9951,-3453.9906L13566.0001,-3454.005L13566.0001,-3454.0241L13566.0037,-3454.0437L13566.0138,-3454.0932L13566.0141,-3454.1016Z"/>
<path content="奈良県,,,葛城市,,29211" xlink:title="奈良県" d="M13567.6813,-3453.8888L13567.6885,-3453.887L13567.7087,-3453.8894L13567.7289,-3453.8954L13567.7375,-3453.9013L13567.7531,-3453.9158L13567.7606,-3453.9228L13567.7873,-3453.9425L13567.7916,-3453.945L13567.8197,-3453.9616L13567.8377,-3453.9705L13567.8651,-3453.9741L13567.8882,-3453.9807L13567.9055,-3453.995L13567.9249,-3454.0123L13567.9711,-3454.0379L13567.9898,-3454.0433L13568.0028,-3454.0433L13568.0074,-3454.0414L13568.0129,-3454.0391L13568.0251,-3454.0302L13568.0316,-3454.0218L13568.0331,-3454.0099L13568.0237,-3453.9771L13568.0345,-3453.9669L13568.0684,-3453.9484L13568.0972,-3453.9276L13568.1037,-3453.9192L13568.1095,-3453.8942L13568.1096,-3453.8923L13568.1116,-3453.8697L13568.1073,-3453.856L13568.0929,-3453.8417L13568.0641,-3453.8113L13568.0511,-3453.7904L13568.0417,-3453.7653L13568.0252,-3453.7379L13568.0201,-3453.7194L13568.0213,-3453.71L13568.023,-3453.6962L13568.0295,-3453.6514L13568.0244,-3453.6329L13567.9999,-3453.6019L13567.9495,-3453.5655L13567.9624,-3453.5524L13567.9711,-3453.5429L13567.9725,-3453.5333L13567.9668,-3453.5268L13567.9553,-3453.519L13567.9243,-3453.5101L13567.9194,-3453.5078L13567.9127,-3453.5047L13567.8954,-3453.4856L13567.8753,-3453.4558L13567.85,-3453.4009L13567.819,-3453.355L13567.8161,-3453.3478L13567.8204,-3453.3442L13567.8406,-3453.3472L13567.8579,-3453.3502L13567.8933,-3453.3735L13567.9178,-3453.3842L13567.9401,-3453.3967L13567.974,-3453.414L13568.0014,-3453.4319L13568.0165,-3453.4444L13568.0273,-3453.4486L13568.036,-3453.4474L13568.0439,-3453.4451L13568.0474,-3453.442L13568.0554,-3453.4349L13568.0792,-3453.4134L13568.098,-3453.4039L13568.1117,-3453.4003L13568.1304,-3453.4021L13568.165,-3453.4045L13568.196,-3453.4111L13568.222,-3453.4176L13568.2422,-3453.4218L13568.2962,-3453.4266L13568.3333,-3453.426L13568.3359,-3453.426L13568.351,-3453.4283L13568.3654,-3453.4301L13568.3863,-3453.4307L13568.4029,-3453.4288L13568.4116,-3453.4277L13568.4224,-3453.4242L13568.4346,-3453.4099L13568.4469,-3453.3848L13568.4577,-3453.3741L13568.4736,-3453.3663L13568.4829,-3453.3723L13568.4649,-3453.3919L13568.4577,-3453.4128L13568.4563,-3453.423L13568.4577,-3453.4301L13568.4671,-3453.4373L13568.48,-3453.4415L13568.4813,-3453.4414L13568.5038,-3453.4403L13568.5255,-3453.4385L13568.5658,-3453.4248L13568.6004,-3453.4015L13568.6271,-3453.3896L13568.6415,-3453.386L13568.6574,-3453.3866L13568.6805,-3453.3956L13568.6913,-3453.3974L13568.7316,-3453.3836L13568.7417,-3453.3854L13568.7576,-3453.3902L13568.803,-3453.3902L13568.8337,-3453.3982L13568.8513,-3453.4027L13568.8627,-3453.4065L13568.914,-3453.4236L13568.9818,-3453.457L13568.9956,-3453.4664L13569.0474,-3453.5017L13569.069,-3453.5204L13569.0832,-3453.5326L13569.0951,-3453.5429L13569.1324,-3453.5751L13569.1411,-3453.5829L13569.1541,-3453.5894L13569.1552,-3453.5894L13569.1667,-3453.589L13569.1703,-3453.5889L13569.1948,-3453.5805L13569.2374,-3453.5632L13569.2626,-3453.5513L13569.2799,-3453.5459L13569.2986,-3453.5465L13569.2997,-3453.5466L13569.3459,-3453.5501L13569.3653,-3453.5579L13569.383,-3453.563L13569.4042,-3453.5692L13569.4107,-3453.5775L13569.426,-3453.5847L13569.439,-3453.5908L13569.4489,-3453.5954L13569.4506,-3453.5963L13569.4878,-3453.6157L13569.503,-3453.6223L13569.5138,-3453.6223L13569.5224,-3453.6115L13569.5297,-3453.6044L13569.5369,-3453.5996L13569.5506,-3453.5716L13569.5592,-3453.5561L13569.5571,-3453.5477L13569.5448,-3453.537L13569.5428,-3453.5122L13569.5419,-3453.5012L13569.5412,-3453.4929L13569.5412,-3453.4767L13569.5491,-3453.469L13569.5657,-3453.4624L13569.5751,-3453.4582L13569.5816,-3453.4427L13569.5816,-3453.4424L13569.5837,-3453.4302L13569.578,-3453.4219L13569.5534,-3453.4087L13569.508,-3453.3884L13569.503,-3453.3807L13569.503,-3453.3652L13569.4907,-3453.3467L13569.48,-3453.3333L13569.4763,-3453.3288L13569.4734,-3453.3181L13569.4792,-3453.3115L13569.4943,-3453.3067L13569.5044,-3453.3061L13569.5246,-3453.3097L13569.5679,-3453.3228L13569.6248,-3453.3288L13569.6241,-3453.2805L13569.6169,-3453.2364L13569.6176,-3453.2304L13569.6566,-3453.2459L13569.6767,-3453.2453L13569.6666,-3453.2328L13569.6529,-3453.2077L13569.6429,-3453.1823L13569.6428,-3453.1821L13569.6436,-3453.1672L13569.6544,-3453.1522L13569.6508,-3453.1397L13569.6659,-3453.1421L13569.6753,-3453.1433L13569.6818,-3453.1367L13569.6839,-3453.1278L13569.6883,-3453.1045L13569.6901,-3453.0951L13569.694,-3453.0741L13569.702,-3453.0485L13569.6839,-3453.0497L13569.6796,-3453.0449L13569.6803,-3453.03L13569.7027,-3453.0246L13569.6947,-3453.0061L13569.6782,-3452.9966L13569.6637,-3452.9936L13569.6385,-3452.9954L13569.6313,-3452.9506L13569.6241,-3452.9258L13569.609,-3452.8741L13569.6068,-3452.8666L13569.6076,-3452.8528L13569.6191,-3452.8332L13569.6277,-3452.8266L13569.6321,-3452.8194L13569.6349,-3452.8057L13569.6358,-3452.7923L13569.6363,-3452.7839L13569.6371,-3452.7705L13569.6515,-3452.6536L13569.6566,-3452.6023L13569.6724,-3452.5444L13569.6789,-3452.5134L13569.6883,-3452.5027L13569.689,-3452.5024L13569.6953,-3452.5L13569.7006,-3452.4979L13569.7219,-3452.5L13569.7626,-3452.5039L13569.8022,-3452.5051L13569.88,-3452.5117L13569.9306,-3452.5167L13569.9607,-3452.5197L13569.9701,-3452.5206L13570,-3452.5233L13570.0098,-3452.5242L13570.0877,-3452.5236L13570.2116,-3452.52L13570.3125,-3452.5196L13570.3125,-3449.707L13567.8601,-3449.707L13567.8582,-3449.7251L13567.8503,-3449.743L13567.8409,-3449.7674L13567.8121,-3449.8021L13567.8057,-3449.8134L13567.8013,-3449.8289L13567.8038,-3449.8514L13567.8042,-3449.8551L13567.8258,-3449.904L13567.8294,-3449.9225L13567.8307,-3449.9321L13567.8301,-3449.95L13567.8172,-3449.9595L13567.7833,-3449.9738L13567.7661,-3449.984L13567.7503,-3450L13567.7441,-3450.0062L13567.7348,-3450.0354L13567.7225,-3450.0456L13567.7002,-3450.0629L13567.6707,-3450.0718L13567.6361,-3450.0862L13567.6246,-3450.0951L13567.608,-3450.1154L13567.6001,-3450.1219L13567.585,-3450.1339L13567.5627,-3450.1416L13567.5497,-3450.1428L13567.5,-3450.1403L13567.4914,-3450.1398L13567.4698,-3450.1392L13567.4518,-3450.1464L13567.4078,-3450.1714L13567.3546,-3450.2078L13567.3221,-3450.243L13567.3063,-3450.2645L13567.302,-3450.2788L13567.3013,-3450.2901L13567.3099,-3450.2991L13567.3329,-3450.3164L13567.3452,-3450.3277L13567.3475,-3450.3337L13567.39,-3450.3772L13567.4109,-3450.4053L13567.4513,-3450.4512L13567.4686,-3450.49L13567.5,-3450.5372L13567.5047,-3450.5442L13567.5317,-3450.5735L13567.5547,-3450.5907L13567.5994,-3450.6087L13567.6232,-3450.623L13567.642,-3450.6373L13567.6665,-3450.651L13567.6834,-3450.6659L13567.6892,-3450.6767L13567.6914,-3450.6928L13567.6863,-3450.7316L13567.6813,-3450.7554L13567.6712,-3450.7769L13567.6491,-3450.7868L13567.6366,-3450.7924L13567.6128,-3450.8073L13567.5991,-3450.8234L13567.5949,-3450.8333L13567.5933,-3450.8371L13567.5926,-3450.8502L13567.594,-3450.8627L13567.5991,-3450.8777L13567.6164,-3450.8986L13567.6488,-3450.9188L13567.6683,-3450.9296L13567.6928,-3450.9314L13567.7173,-3450.9373L13567.7425,-3450.9546L13567.7504,-3450.9642L13567.7526,-3450.9743L13567.7512,-3450.9886L13567.7484,-3450.9992L13567.7353,-3451.0489L13567.7266,-3451.0954L13567.7259,-3451.1461L13567.7274,-3451.1956L13567.7216,-3451.2159L13567.7166,-3451.2481L13567.7091,-3451.3043L13567.7086,-3451.3077L13567.7072,-3451.3489L13567.6971,-3451.3966L13567.6892,-3451.4252L13567.6856,-3451.4491L13567.6834,-3451.5L13567.6827,-3451.5254L13567.6877,-3451.5487L13567.6947,-3451.5648L13567.7108,-3451.6018L13567.7166,-3451.6197L13567.7194,-3451.6406L13567.7186,-3451.6466L13567.7156,-3451.6667L13567.7115,-3451.6949L13567.7079,-3451.7187L13567.7079,-3451.7396L13567.7108,-3451.7533L13567.7194,-3451.7736L13567.7331,-3451.7974L13567.736,-3451.8088L13567.7353,-3451.8189L13567.7151,-3451.8547L13567.7151,-3451.8738L13567.7166,-3451.8893L13567.7137,-3451.9018L13567.6906,-3451.937L13567.6856,-3451.9543L13567.6747,-3451.9734L13567.6596,-3451.9913L13567.6437,-3452.0372L13567.6394,-3452.0557L13567.6348,-3452.0778L13567.6304,-3452.0994L13567.6272,-3452.1148L13567.6229,-3452.1254L13567.6201,-3452.1325L13567.6153,-3452.1447L13567.6084,-3452.1619L13567.6022,-3452.174L13567.5948,-3452.1882L13567.5894,-3452.1987L13567.5887,-3452.2001L13567.5854,-3452.2066L13567.5825,-3452.2156L13567.5803,-3452.2317L13567.5811,-3452.2368L13567.5832,-3452.2507L13567.5911,-3452.2716L13567.594,-3452.2913L13567.6034,-3452.3021L13567.6192,-3452.3152L13567.6221,-3452.3414L13567.6293,-3452.3533L13567.6625,-3452.3987L13567.687,-3452.4428L13567.7079,-3452.4756L13567.7173,-3452.4881L13567.7187,-3452.4959L13567.7178,-3452.5L13567.7144,-3452.5162L13567.7043,-3452.537L13567.6927,-3452.5531L13567.6617,-3452.5788L13567.6171,-3452.6223L13567.5774,-3452.6587L13567.5075,-3452.7166L13567.5,-3452.7219L13567.4847,-3452.7327L13567.4451,-3452.7595L13567.3896,-3452.7923L13567.3449,-3452.8287L13567.3046,-3452.8633L13567.288,-3452.883L13567.2784,-3452.8999L13567.2779,-3452.9009L13567.2678,-3452.9325L13567.2555,-3452.9474L13567.2386,-3452.9576L13567.2198,-3452.9671L13567.1449,-3452.9808L13567.1276,-3452.985L13567.0987,-3453.0029L13567.0328,-3453.0464L13567.0105,-3453.0586L13566.9989,-3453.0649L13566.9729,-3453.0703L13566.9326,-3453.0619L13566.9146,-3453.0619L13566.8893,-3453.0709L13566.8684,-3453.0868L13566.8511,-3453.1001L13566.8316,-3453.1061L13566.8136,-3453.1072L13566.7949,-3453.1049L13566.774,-3453.0983L13566.7498,-3453.0862L13566.7381,-3453.1182L13566.7352,-3453.1409L13566.7349,-3453.1456L13566.7324,-3453.1892L13566.7284,-3453.2281L13566.728,-3453.2321L13566.7229,-3453.2566L13566.715,-3453.3013L13566.6999,-3453.3329L13566.6997,-3453.3333L13566.6898,-3453.3592L13566.6739,-3453.389L13566.6667,-3453.4015L13566.6559,-3453.42L13566.6336,-3453.4445L13566.6156,-3453.4731L13566.6055,-3453.488L13566.6026,-3453.4969L13566.6034,-3453.4984L13566.6084,-3453.5071L13566.6242,-3453.5202L13566.6602,-3453.5506L13566.6667,-3453.5554L13566.6984,-3453.5787L13566.728,-3453.593L13566.7583,-3453.6246L13566.7813,-3453.6437L13566.8001,-3453.6753L13566.8224,-3453.7105L13566.8332,-3453.7171L13566.8433,-3453.7152L13566.8527,-3453.7045L13566.8815,-3453.6896L13566.9285,-3453.6595L13566.9392,-3453.6526L13566.9724,-3453.6294L13567.0199,-3453.5947L13567.0307,-3453.5912L13567.0423,-3453.5918L13567.0754,-3453.5971L13567.0992,-3453.5989L13567.1281,-3453.6049L13567.1475,-3453.6335L13567.1591,-3453.6556L13567.1886,-3453.692L13567.1958,-3453.6962L13567.2066,-3453.6991L13567.2196,-3453.6991L13567.234,-3453.6956L13567.2643,-3453.6789L13567.2859,-3453.6699L13567.3248,-3453.6538L13567.336,-3453.6522L13567.3371,-3453.652L13567.3497,-3453.6538L13567.4074,-3453.7003L13567.4151,-3453.7095L13567.4261,-3453.7224L13567.4297,-3453.7331L13567.4297,-3453.7617L13567.4319,-3453.7892L13567.4384,-3453.8131L13567.442,-3453.8381L13567.4384,-3453.8769L13567.4326,-3453.9121L13567.4273,-3453.9266L13567.4146,-3453.9616L13567.3987,-3453.992L13567.3778,-3454.0344L13567.3749,-3454.0552L13567.3742,-3454.0618L13567.3785,-3454.0689L13567.3857,-3454.0743L13567.398,-3454.0791L13567.4117,-3454.0821L13567.4492,-3454.0904L13567.4749,-3454.1016L13567.5968,-3454.1016L13567.5933,-3454.0809L13567.5876,-3454.0427L13567.5919,-3454.0009L13567.5984,-3453.9717L13567.6099,-3453.9472L13567.6207,-3453.9371L13567.6251,-3453.9329L13567.6446,-3453.921L13567.6583,-3453.9168L13567.6676,-3453.9091L13567.6741,-3453.8971L13567.6813,-3453.8888Z"/>
</g>
</svg>
