<?xml version="1.0" encoding="UTF-8"?>
<svg  xmlns="http://www.w3.org/2000/svg" xmlns:xlink="http://www.w3.org/1999/xlink" xmlns:go="http://purl.org/svgmap/profile" property="geometry,N03_001,N03_002,N03_003,N03_004,N03_005,N03_007" viewBox="13535.15625 -3418.9453125 8.7890625 8.7890625" go:dataArea="13535.15625 -3418.9453125 8.7890625 8.7890625" >
<metadata>
 <rdf:RDF xmlns:rdf="http://www.w3.org/1999/02/22-rdf-syntax-ns#" xmlns:crs="http://opengis.org/xmldtds/transformations.dtd" xmlns:svg="http://www.w3.org/svg" >
  <rdf:Description>
   <crs:CoordinateReferenceSystem rdf:resource="http://purl.org/crs/84" svg:transform="matrix(100.0,0.0,0.0,-100.0,0.0,0.0)" />
  </rdf:Description>
 </rdf:RDF>
</metadata>
<globalCoordinateSystem srsName="http://purl.org/crs/84" transform="matrix(100.0,0.0,0.0,-100.0,0.0,0.0)" />
<defs>
 <g id="p0" >
  <circle cx="0.0" cy="0.0" r="3" stroke="green" stroke-width="2.0" vector-effect="non-scaling-stroke" />
 </g>
</defs>
<g fill="#0000ff" fill-rule="evenodd" opacity="0.5" >
<path content="和歌山県,,,紀の川市,,30208" xlink:title="和歌山県" d="M13543.9453,-3418.9453L13543.9453,-3417.7343L13543.9451,-3417.7341L13543.932,-3417.7249L13543.9024,-3417.7039L13543.8185,-3417.6737L13543.7963,-3417.6697L13543.7425,-3417.6776L13543.7088,-3417.6816L13543.6708,-3417.6934L13543.6344,-3417.7L13543.5964,-3417.7L13543.5442,-3417.6803L13543.5173,-3417.6724L13543.4951,-3417.6711L13543.4476,-3417.6566L13543.4113,-3417.6448L13543.3701,-3417.65L13543.3353,-3417.6566L13543.3333,-3417.6566L13543.3115,-3417.6566L13543.2862,-3417.6474L13543.2478,-3417.6395L13543.2225,-3417.6435L13543.2003,-3417.6527L13543.1291,-3417.6869L13543.0481,-3417.7409L13543.0384,-3417.7486L13543.0306,-3417.7657L13543.027,-3417.7817L13543.027,-3417.7872L13543.03,-3417.8008L13543.0258,-3417.8148L13543.021,-3417.8273L13543.0156,-3417.8354L13543.0011,-3417.8404L13542.9927,-3417.8509L13542.9885,-3417.8614L13542.9867,-3417.8694L13542.9813,-3417.878L13542.9765,-3417.8865L13542.9668,-3417.8955L13542.9572,-3417.9055L13542.9446,-3417.9081L13542.935,-3417.9086L13542.9248,-3417.9076L13542.9103,-3417.906L13542.8965,-3417.9071L13542.8815,-3417.9121L13542.8694,-3417.9136L13542.8562,-3417.9146L13542.84,-3417.9151L13542.8225,-3417.9236L13542.8093,-3417.9286L13542.7973,-3417.9361L13542.7696,-3417.9477L13542.7576,-3417.9522L13542.7419,-3417.9617L13542.7275,-3417.9712L13542.7203,-3417.9782L13542.7053,-3417.9853L13542.6872,-3417.9913L13542.677,-3417.9998L13542.6686,-3418.0179L13542.662,-3418.0334L13542.6542,-3418.055L13542.6512,-3418.064L13542.6512,-3418.0855L13542.6481,-3418.1006L13542.6458,-3418.1151L13542.6449,-3418.1403L13542.6289,-3418.136L13542.6058,-3418.1207L13542.5912,-3418.1007L13542.5717,-3418.0752L13542.5536,-3418.0533L13542.5371,-3418.0238L13542.5206,-3417.9991L13542.5056,-3417.974L13542.5,-3417.9649L13542.4951,-3417.9568L13542.4806,-3417.9363L13542.4684,-3417.9202L13542.4515,-3417.9065L13542.4336,-3417.8994L13542.4119,-3417.8869L13542.3893,-3417.8724L13542.3903,-3417.901L13542.3865,-3417.9206L13542.3859,-3417.9421L13542.3782,-3417.9705L13542.3691,-3417.9865L13542.3543,-3418.0049L13542.3385,-3418.0281L13542.3338,-3418.0638L13542.3277,-3418.0799L13542.3188,-3418.1011L13542.3072,-3418.1186L13542.2966,-3418.1301L13542.2821,-3418.1325L13542.2552,-3418.1501L13542.234,-3418.1744L13542.2177,-3418.1913L13542.1967,-3418.2037L13542.1726,-3418.2247L13542.1525,-3418.2399L13542.1379,-3418.2509L13542.1371,-3418.2659L13542.1455,-3418.2721L13542.1569,-3418.2776L13542.1709,-3418.2821L13542.1863,-3418.2853L13542.2054,-3418.2887L13542.2279,-3418.2926L13542.2467,-3418.296L13542.2795,-3418.3058L13542.2946,-3418.3127L13542.3025,-3418.3192L13542.318,-3418.3307L13542.3202,-3418.3333L13542.3312,-3418.3468L13542.3409,-3418.3628L13542.3349,-3418.3788L13542.3216,-3418.3869L13542.3107,-3418.3846L13542.295,-3418.3727L13542.2771,-3418.3626L13542.2615,-3418.365L13542.2403,-3418.3702L13542.2208,-3418.3739L13542.1923,-3418.3827L13542.1706,-3418.3882L13542.1467,-3418.3947L13542.1263,-3418.4002L13542.1088,-3418.4059L13542.0997,-3418.3989L13542.0931,-3418.3904L13542.0847,-3418.3788L13542.0757,-3418.3663L13542.0661,-3418.3608L13542.0522,-3418.3653L13542.039,-3418.3693L13542.0306,-3418.3748L13542.0222,-3418.3849L13542.0089,-3418.3879L13541.9873,-3418.3864L13541.9674,-3418.3849L13541.941,-3418.3788L13541.9205,-3418.3753L13541.9031,-3418.3703L13541.8863,-3418.3653L13541.8688,-3418.3603L13541.8502,-3418.3568L13541.8315,-3418.3538L13541.8033,-3418.3503L13541.787,-3418.3508L13541.775,-3418.3508L13541.7468,-3418.3573L13541.7377,-3418.3553L13541.7209,-3418.3578L13541.7197,-3418.3513L13541.7287,-3418.3422L13541.7287,-3418.3333L13541.7287,-3418.3332L13541.7251,-3418.3217L13541.7113,-3418.3092L13541.6968,-3418.3021L13541.687,-3418.303L13541.6738,-3418.3119L13541.668,-3418.3232L13541.6667,-3418.3301L13541.666,-3418.3333L13541.6656,-3418.3357L13541.6602,-3418.3407L13541.6511,-3418.3362L13541.6493,-3418.3333L13541.6457,-3418.3277L13541.6331,-3418.3192L13541.6221,-3418.3178L13541.6086,-3418.3214L13541.599,-3418.3262L13541.5931,-3418.3333L13541.5928,-3418.3337L13541.5943,-3418.3493L13541.5982,-3418.3588L13541.6066,-3418.3653L13541.6097,-3418.3723L13541.6036,-3418.3743L13541.5814,-3418.3763L13541.5634,-3418.3758L13541.5435,-3418.3773L13541.5321,-3418.3798L13541.5243,-3418.3889L13541.5213,-3418.3954L13541.5189,-3418.4079L13541.5177,-3418.4154L13541.5189,-3418.423L13541.514,-3418.426L13541.5032,-3418.4225L13541.4888,-3418.42L13541.4786,-3418.419L13541.4707,-3418.422L13541.4611,-3418.4295L13541.4341,-3418.443L13541.4244,-3418.444L13541.416,-3418.4455L13541.3938,-3418.4533L13541.3772,-3418.4509L13541.3526,-3418.4527L13541.3374,-3418.4583L13541.3231,-3418.4655L13541.3048,-3418.4742L13541.2902,-3418.4802L13541.2825,-3418.4866L13541.2819,-3418.4977L13541.2819,-3418.5057L13541.2771,-3418.5142L13541.2735,-3418.5207L13541.2624,-3418.5363L13541.2508,-3418.5442L13541.2396,-3418.5481L13541.2314,-3418.5521L13541.2176,-3418.5528L13541.2065,-3418.5562L13541.1934,-3418.5551L13541.1787,-3418.5452L13541.1433,-3418.5354L13541.1224,-3418.5387L13541.1015,-3418.5491L13541.0596,-3418.561L13541.0439,-3418.5599L13541.0347,-3418.5556L13541.0177,-3418.5392L13541.002,-3418.5349L13540.9575,-3418.5338L13540.9379,-3418.5295L13540.9221,-3418.5186L13540.9077,-3418.5153L13540.8447,-3418.535L13540.8333,-3418.5357L13540.8263,-3418.5361L13540.7542,-3418.5421L13540.7491,-3418.5426L13540.7229,-3418.548L13540.7099,-3418.5578L13540.6967,-3418.5763L13540.6718,-3418.6244L13540.6561,-3418.6483L13540.6483,-3418.669L13540.6378,-3418.73L13540.6378,-3418.7681L13540.6418,-3418.7813L13540.6496,-3418.8062L13540.6483,-3418.8257L13540.6404,-3418.854L13540.6272,-3418.8759L13540.6207,-3418.9129L13540.6089,-3418.9368L13540.601,-3418.9453L13540.5255,-3418.9453L13540.5199,-3418.9433L13540.4989,-3418.94L13540.4688,-3418.9444L13540.4637,-3418.9453L13540.3823,-3418.9453L13540.3443,-3418.9345L13540.3089,-3418.9324L13540.2893,-3418.9334L13540.2579,-3418.9443L13540.2365,-3418.9453L13540.2154,-3418.9453L13540.183,-3418.9367L13540.1137,-3418.9084L13540.0967,-3418.9008L13540.0823,-3418.9019L13540.0613,-3418.9106L13540.0391,-3418.9247L13540.0155,-3418.9302L13540,-3418.9272L13539.9695,-3418.9214L13539.9473,-3418.9137L13539.9368,-3418.8996L13539.891,-3418.8507L13539.8595,-3418.8136L13539.8411,-3418.7749L13539.8346,-3418.7614L13539.8252,-3418.7436L13539.8096,-3418.7144L13539.7874,-3418.6742L13539.7782,-3418.6351L13539.7704,-3418.6252L13539.7466,-3418.6165L13539.7126,-3418.5991L13539.6995,-3418.5915L13539.6964,-3418.5918L13539.6877,-3418.5926L13539.676,-3418.6057L13539.6563,-3418.6513L13539.6433,-3418.6622L13539.6157,-3418.6644L13539.583,-3418.6622L13539.5726,-3418.6578L13539.5712,-3418.6534L13539.5608,-3418.6209L13539.5397,-3418.5961L13539.5385,-3418.5948L13539.4875,-3418.5719L13539.4689,-3418.5586L13539.4388,-3418.5249L13539.4087,-3418.4999L13539.3983,-3418.4988L13539.3826,-3418.5032L13539.3577,-3418.513L13539.3354,-3418.5151L13539.3197,-3418.5097L13539.2949,-3418.501L13539.2687,-3418.5032L13539.2412,-3418.4999L13539.2321,-3418.4934L13539.2163,-3418.4651L13539.2085,-3418.4423L13539.2082,-3418.4206L13539.1951,-3418.4032L13539.1813,-3418.3983L13539.1767,-3418.3967L13539.1667,-3418.4004L13539.1532,-3418.4054L13539.1401,-3418.4184L13539.1349,-3418.4246L13539.1139,-3418.4499L13539.0946,-3418.4801L13539.059,-3418.5358L13539.0119,-3418.5924L13538.987,-3418.6108L13538.9719,-3418.6166L13538.9274,-3418.6144L13538.8907,-3418.6057L13538.8684,-3418.6068L13538.8473,-3418.6144L13538.8251,-3418.622L13538.8094,-3418.6209L13538.7884,-3418.6122L13538.7479,-3418.5905L13538.7355,-3418.5855L13538.7126,-3418.5764L13538.6689,-3418.5758L13538.5952,-3418.5818L13538.5241,-3418.5782L13538.4505,-3418.5782L13538.3999,-3418.5938L13538.3595,-3418.6058L13538.3451,-3418.6154L13538.3335,-3418.6142L13538.3333,-3418.6142L13538.3032,-3418.6058L13538.2639,-3418.6034L13538.2177,-3418.6166L13538.209,-3418.6226L13538.1989,-3418.6226L13538.1945,-3418.6192L13538.1801,-3418.6082L13538.1541,-3418.6058L13538.1455,-3418.6082L13538.1209,-3418.6298L13538.0762,-3418.6657L13538.0502,-3418.6694L13538.0296,-3418.6645L13537.9892,-3418.6465L13537.969,-3418.6333L13537.956,-3418.6153L13537.9329,-3418.6024L13537.9234,-3418.5997L13537.8995,-3418.6064L13537.8692,-3418.6209L13537.8422,-3418.6286L13537.8269,-3418.628L13537.8016,-3418.6271L13537.7739,-3418.6163L13537.7553,-3418.6132L13537.735,-3418.6116L13537.7055,-3418.6193L13537.6482,-3418.6408L13537.6316,-3418.6408L13537.5724,-3418.6161L13537.5428,-3418.6146L13537.5225,-3418.6161L13537.5,-3418.6161L13537.4985,-3418.6161L13537.4801,-3418.6146L13537.4468,-3418.5823L13537.4136,-3418.5639L13537.3785,-3418.5501L13537.2991,-3418.5379L13537.2772,-3418.5328L13537.2437,-3418.5149L13537.221,-3418.5035L13537.1775,-3418.4746L13537.1504,-3418.4642L13537.1427,-3418.4682L13537.1337,-3418.4729L13537.1088,-3418.4677L13537.073,-3418.4729L13537.023,-3418.4884L13537.0105,-3418.4884L13536.948,-3418.4781L13536.8397,-3418.4607L13536.7551,-3418.4452L13536.7322,-3418.4365L13536.7114,-3418.4227L13536.6864,-3418.414L13536.6667,-3418.414L13536.626,-3418.414L13536.5684,-3418.4062L13536.5372,-3418.3993L13536.4768,-3418.3699L13536.4518,-3418.3509L13536.4143,-3418.3457L13536.3622,-3418.3544L13536.3363,-3418.3503L13536.3348,-3418.3501L13536.318,-3418.3333L13536.314,-3418.3293L13536.2911,-3418.3189L13536.2557,-3418.3172L13536.2223,-3418.3172L13536.1911,-3418.3206L13536.1619,-3418.3293L13536.1548,-3418.3333L13536.1224,-3418.3517L13536.1015,-3418.3725L13536.0786,-3418.3794L13535.9273,-3418.3873L13535.8564,-3418.3977L13535.8471,-3418.4006L13535.8333,-3418.4049L13535.8231,-3418.4081L13535.8086,-3418.4081L13535.7752,-3418.3977L13535.7315,-3418.3977L13535.6384,-3418.4248L13535.5926,-3418.4403L13535.5781,-3418.4559L13535.5176,-3418.5527L13535.4875,-3418.5913L13535.4668,-3418.6177L13535.4571,-3418.63L13535.4405,-3418.6784L13535.4334,-3418.6896L13535.4155,-3418.7182L13535.3759,-3418.7583L13535.3446,-3418.7756L13535.3143,-3418.8024L13535.2941,-3418.8204L13535.2821,-3418.8309L13535.2613,-3418.8569L13535.2404,-3418.8586L13535.2172,-3418.851L13535.1958,-3418.8447L13535.188,-3418.8424L13535.1755,-3418.8493L13535.1635,-3418.8717L13535.1562,-3418.8853L13535.1563,-3418.9453Z"/>
<path content="和歌山県,,海草郡,紀美野町,,30304" xlink:title="和歌山県" d="M13543.9453,-3412.1904L13543.9406,-3412.1879L13543.8547,-3412.1708L13543.8379,-3412.1631L13543.8258,-3412.1479L13543.8156,-3412.1262L13543.7971,-3412.0871L13543.7477,-3412.035L13543.6957,-3411.9723L13543.6559,-3411.9347L13543.5743,-3411.8416L13543.5718,-3411.8388L13543.5379,-3411.8222L13543.5355,-3411.8161L13543.5275,-3411.7951L13543.5002,-3411.766L13543.4658,-3411.713L13543.4371,-3411.6915L13543.4007,-3411.6886L13543.3737,-3411.6795L13543.3466,-3411.6683L13543.3447,-3411.6667L13543.3333,-3411.6571L13543.3187,-3411.6449L13543.2887,-3411.6339L13543.2361,-3411.6225L13543.2336,-3411.6213L13543.1892,-3411.5991L13543.1487,-3411.5668L13543.1061,-3411.5451L13543.0345,-3411.5331L13542.9702,-3411.5336L13542.9126,-3411.5623L13542.881,-3411.5647L13542.8493,-3411.5504L13542.8292,-3411.5504L13542.7601,-3411.6269L13542.7234,-3411.6588L13542.7158,-3411.6667L13542.7114,-3411.6712L13542.7025,-3411.6803L13542.6873,-3411.7075L13542.6683,-3411.7259L13542.5999,-3411.7778L13542.5422,-3411.8147L13542.5,-3411.8208L13542.4983,-3411.8211L13542.4246,-3411.8249L13542.3948,-3411.8242L13542.3429,-3411.8052L13542.3324,-3411.7981L13542.2659,-3411.7525L13542.1911,-3411.7357L13542.1319,-3411.7265L13542.055,-3411.726L13542.0229,-3411.7347L13542.0144,-3411.737L13541.9766,-3411.7549L13541.9666,-3411.7597L13541.9014,-3411.8267L13541.901,-3411.8412L13541.9003,-3411.8675L13541.9028,-3411.8797L13541.8737,-3411.8904L13541.8177,-3411.9248L13541.7771,-3411.9357L13541.7042,-3411.9873L13541.6736,-3411.9929L13541.6667,-3411.9901L13541.6397,-3411.979L13541.6161,-3411.9752L13541.5505,-3411.9896L13541.4995,-3412.0133L13541.4619,-3412.0116L13541.4298,-3411.9939L13541.409,-3411.9825L13541.3321,-3411.9705L13541.2584,-3411.9502L13541.2216,-3411.9506L13541.1373,-3411.9734L13540.9983,-3411.9934L13540.9657,-3411.9904L13540.9243,-3411.9697L13540.9105,-3411.9704L13540.8843,-3411.9796L13540.8682,-3411.9908L13540.8501,-3412.0034L13540.8344,-3412.0095L13540.8333,-3412.0097L13540.7994,-3412.0147L13540.7089,-3412.0356L13540.5754,-3412.0514L13540.5048,-3412.0663L13540.4374,-3412.0944L13540.3989,-3412.1329L13540.3917,-3412.1401L13540.3783,-3412.1679L13540.3708,-3412.1684L13540.3415,-3412.1386L13540.3154,-3412.1305L13540.2801,-3412.1285L13540.2593,-3412.1345L13540.2464,-3412.1325L13540.1681,-3412.0941L13540.1403,-3412.0866L13540.1199,-3412.0916L13540.0369,-3412.0971L13540,-3412.0944L13539.9815,-3412.0931L13539.9322,-3412.1025L13539.9083,-3412.0931L13539.8805,-3412.0776L13539.8531,-3412.0623L13539.8258,-3412.0594L13539.7798,-3412.0594L13539.7042,-3412.0692L13539.6036,-3412.0786L13539.5031,-3412.0916L13539.4174,-3412.0877L13539.3746,-3412.0924L13539.3671,-3412.0932L13539.3338,-3412.1096L13539.2477,-3412.1449L13539.212,-3412.1518L13539.1768,-3412.1562L13539.1667,-3412.1574L13539.1662,-3412.1575L13539.1123,-3412.1579L13539.0554,-3412.1584L13538.9175,-3412.1489L13538.8643,-3412.138L13538.7194,-3412.1201L13538.6444,-3412.0808L13538.6054,-3412.0693L13538.5329,-3412.0639L13538.4662,-3412.0741L13538.4288,-3412.0797L13538.362,-3412.0947L13538.3333,-3412.0955L13538.3255,-3412.0957L13538.3093,-3412.0927L13538.2927,-3412.0897L13538.1856,-3412.134L13538.1031,-3412.1415L13538.0852,-3412.138L13538.015,-3412.1009L13538.0023,-3412.0941L13537.9871,-3412.0912L13537.9466,-3412.0936L13537.8968,-3412.0749L13537.8709,-3412.0772L13537.8217,-3412.09L13537.7519,-3412.108L13537.6893,-3412.106L13537.5627,-3412.071L13537.5427,-3412.071L13537.5,-3412.0813L13537.4941,-3412.0827L13537.4544,-3412.0831L13537.4354,-3412.0734L13537.4161,-3412.0327L13537.396,-3412.0073L13537.3884,-3411.9903L13537.3939,-3411.9565L13537.4014,-3411.9373L13537.4029,-3411.9336L13537.4174,-3411.9171L13537.4191,-3411.9036L13537.3974,-3411.8528L13537.3974,-3411.8321L13537.4097,-3411.8072L13537.4105,-3411.8056L13537.4127,-3411.7461L13537.4178,-3411.7287L13537.4344,-3411.7066L13537.4348,-3411.679L13537.4328,-3411.6667L13537.4281,-3411.6389L13537.4099,-3411.6054L13537.3544,-3411.5377L13537.3496,-3411.5231L13537.3538,-3411.4714L13537.3666,-3411.4422L13537.4651,-3411.3169L13537.3889,-3411.2697L13537.3452,-3411.2478L13537.2643,-3411.2241L13537.2212,-3411.222L13537.1846,-3411.2226L13537.1755,-3411.225L13537.1671,-3411.2295L13537.1293,-3411.2609L13537.1069,-3411.2776L13537.0644,-3411.3286L13537.0342,-3411.359L13537.0114,-3411.3666L13536.9393,-3411.381L13536.8588,-3411.3996L13536.8235,-3411.4052L13536.7852,-3411.4073L13536.7643,-3411.4045L13536.7239,-3411.3991L13536.7029,-3411.3882L13536.6667,-3411.3724L13536.6486,-3411.3646L13536.6134,-3411.35L13536.5963,-3411.3457L13536.5754,-3411.3404L13536.547,-3411.3434L13536.5191,-3411.3652L13536.4451,-3411.4235L13536.4298,-3411.4402L13536.3973,-3411.4713L13536.3737,-3411.4781L13536.351,-3411.4801L13536.33,-3411.4775L13536.3234,-3411.4748L13536.2973,-3411.4541L13536.2914,-3411.4494L13536.2755,-3411.4398L13536.2552,-3411.4362L13536.2273,-3411.4427L13536.2066,-3411.4532L13536.1857,-3411.4679L13536.1717,-3411.4727L13536.133,-3411.4768L13536.0996,-3411.4812L13536.0721,-3411.4886L13536.0469,-3411.4894L13536.0387,-3411.4882L13536.0174,-3411.476L13536.002,-3411.4707L13535.9915,-3411.4699L13535.9819,-3411.4716L13535.9596,-3411.4805L13535.9018,-3411.5046L13535.8831,-3411.5119L13535.872,-3411.5094L13535.8599,-3411.5062L13535.8333,-3411.4916L13535.8044,-3411.4757L13535.7874,-3411.4641L13535.7797,-3411.4588L13535.7556,-3411.4407L13535.7426,-3411.4211L13535.716,-3411.4031L13535.6526,-3411.3668L13535.615,-3411.3443L13535.6024,-3411.3547L13535.5542,-3411.4217L13535.5377,-3411.437L13535.5266,-3411.4434L13535.4851,-3411.4514L13535.4599,-3411.4508L13535.4223,-3411.4456L13535.3924,-3411.4408L13535.3698,-3411.4426L13535.3281,-3411.4484L13535.2874,-3411.4416L13535.2574,-3411.4347L13535.2347,-3411.4367L13535.2145,-3411.4404L13535.1855,-3411.4488L13535.1778,-3411.4552L13535.1562,-3411.485L13535.1562,-3418.8853L13535.1635,-3418.8717L13535.1755,-3418.8493L13535.188,-3418.8424L13535.1958,-3418.8447L13535.2172,-3418.851L13535.2404,-3418.8586L13535.2613,-3418.8569L13535.2821,-3418.8309L13535.2941,-3418.8204L13535.3143,-3418.8024L13535.3446,-3418.7756L13535.3759,-3418.7583L13535.4155,-3418.7182L13535.4334,-3418.6896L13535.4405,-3418.6784L13535.4571,-3418.63L13535.4668,-3418.6177L13535.4875,-3418.5913L13535.5176,-3418.5527L13535.5781,-3418.4559L13535.5926,-3418.4403L13535.6384,-3418.4248L13535.7315,-3418.3977L13535.7752,-3418.3977L13535.8086,-3418.4081L13535.8231,-3418.4081L13535.8333,-3418.4049L13535.8471,-3418.4006L13535.8564,-3418.3977L13535.9273,-3418.3873L13536.0786,-3418.3794L13536.1015,-3418.3725L13536.1224,-3418.3517L13536.1548,-3418.3333L13536.1619,-3418.3293L13536.1911,-3418.3206L13536.2223,-3418.3172L13536.2557,-3418.3172L13536.2911,-3418.3189L13536.314,-3418.3293L13536.318,-3418.3333L13536.3348,-3418.3501L13536.3363,-3418.3503L13536.3622,-3418.3544L13536.4143,-3418.3457L13536.4518,-3418.3509L13536.4768,-3418.3699L13536.5372,-3418.3993L13536.5684,-3418.4062L13536.626,-3418.414L13536.6667,-3418.414L13536.6864,-3418.414L13536.7114,-3418.4227L13536.7322,-3418.4365L13536.7551,-3418.4452L13536.8397,-3418.4607L13536.948,-3418.4781L13537.0105,-3418.4884L13537.023,-3418.4884L13537.073,-3418.4729L13537.1088,-3418.4677L13537.1337,-3418.4729L13537.1427,-3418.4682L13537.1504,-3418.4642L13537.1775,-3418.4746L13537.221,-3418.5035L13537.2437,-3418.5149L13537.2772,-3418.5328L13537.2991,-3418.5379L13537.3785,-3418.5501L13537.4136,-3418.5639L13537.4468,-3418.5823L13537.4801,-3418.6146L13537.4985,-3418.6161L13537.5,-3418.6161L13537.5225,-3418.6161L13537.5428,-3418.6146L13537.5724,-3418.6161L13537.6316,-3418.6408L13537.6482,-3418.6408L13537.7055,-3418.6193L13537.735,-3418.6116L13537.7553,-3418.6132L13537.7739,-3418.6163L13537.8016,-3418.6271L13537.8269,-3418.628L13537.8422,-3418.6286L13537.8692,-3418.6209L13537.8995,-3418.6064L13537.9234,-3418.5997L13537.9329,-3418.6024L13537.956,-3418.6153L13537.969,-3418.6333L13537.9892,-3418.6465L13538.0296,-3418.6645L13538.0502,-3418.6694L13538.0762,-3418.6657L13538.1209,-3418.6298L13538.1455,-3418.6082L13538.1541,-3418.6058L13538.1801,-3418.6082L13538.1945,-3418.6192L13538.1989,-3418.6226L13538.209,-3418.6226L13538.2177,-3418.6166L13538.2639,-3418.6034L13538.3032,-3418.6058L13538.3333,-3418.6142L13538.3335,-3418.6142L13538.3451,-3418.6154L13538.3595,-3418.6058L13538.3999,-3418.5938L13538.4505,-3418.5782L13538.5241,-3418.5782L13538.5952,-3418.5818L13538.6689,-3418.5758L13538.7126,-3418.5764L13538.7355,-3418.5855L13538.7479,-3418.5905L13538.7884,-3418.6122L13538.8094,-3418.6209L13538.8251,-3418.622L13538.8473,-3418.6144L13538.8684,-3418.6068L13538.8907,-3418.6057L13538.9274,-3418.6144L13538.9719,-3418.6166L13538.987,-3418.6108L13539.0119,-3418.5924L13539.059,-3418.5358L13539.0946,-3418.4801L13539.1139,-3418.4499L13539.1349,-3418.4246L13539.1401,-3418.4184L13539.1532,-3418.4054L13539.1667,-3418.4004L13539.1767,-3418.3967L13539.1813,-3418.3983L13539.1951,-3418.4032L13539.2082,-3418.4206L13539.2085,-3418.4423L13539.2163,-3418.4651L13539.2321,-3418.4934L13539.2412,-3418.4999L13539.2687,-3418.5032L13539.2949,-3418.501L13539.3197,-3418.5097L13539.3354,-3418.5151L13539.3577,-3418.513L13539.3826,-3418.5032L13539.3983,-3418.4988L13539.4087,-3418.4999L13539.4388,-3418.5249L13539.4689,-3418.5586L13539.4875,-3418.5719L13539.5385,-3418.5948L13539.5397,-3418.5961L13539.5608,-3418.6209L13539.5712,-3418.6534L13539.5726,-3418.6578L13539.583,-3418.6622L13539.6157,-3418.6644L13539.6433,-3418.6622L13539.6563,-3418.6513L13539.676,-3418.6057L13539.6877,-3418.5926L13539.6964,-3418.5918L13539.6995,-3418.5915L13539.7126,-3418.5991L13539.7466,-3418.6165L13539.7704,-3418.6252L13539.7782,-3418.6351L13539.7874,-3418.6742L13539.8096,-3418.7144L13539.8252,-3418.7436L13539.8346,-3418.7614L13539.8411,-3418.7749L13539.8595,-3418.8136L13539.891,-3418.8507L13539.9368,-3418.8996L13539.9473,-3418.9137L13539.9695,-3418.9214L13540,-3418.9272L13540.0155,-3418.9302L13540.0391,-3418.9247L13540.0613,-3418.9106L13540.0823,-3418.9019L13540.0967,-3418.9008L13540.1137,-3418.9084L13540.183,-3418.9367L13540.2154,-3418.9453L13540.2365,-3418.9453L13540.2579,-3418.9443L13540.2893,-3418.9334L13540.3089,-3418.9324L13540.3443,-3418.9345L13540.3823,-3418.9453L13540.4637,-3418.9453L13540.4688,-3418.9444L13540.4989,-3418.94L13540.5199,-3418.9433L13540.5255,-3418.9453L13540.601,-3418.9453L13540.6089,-3418.9368L13540.6207,-3418.9129L13540.6272,-3418.8759L13540.6404,-3418.854L13540.6483,-3418.8257L13540.6496,-3418.8062L13540.6418,-3418.7813L13540.6378,-3418.7681L13540.6378,-3418.73L13540.6483,-3418.669L13540.6561,-3418.6483L13540.6718,-3418.6244L13540.6967,-3418.5763L13540.7099,-3418.5578L13540.7229,-3418.548L13540.7491,-3418.5426L13540.7542,-3418.5421L13540.8263,-3418.5361L13540.8333,-3418.5357L13540.8447,-3418.535L13540.9077,-3418.5153L13540.9221,-3418.5186L13540.9379,-3418.5295L13540.9575,-3418.5338L13541.002,-3418.5349L13541.0177,-3418.5392L13541.0347,-3418.5556L13541.0439,-3418.5599L13541.0596,-3418.561L13541.1015,-3418.5491L13541.1224,-3418.5387L13541.1433,-3418.5354L13541.1787,-3418.5452L13541.1934,-3418.5551L13541.2065,-3418.5562L13541.2176,-3418.5528L13541.2314,-3418.5521L13541.2396,-3418.5481L13541.2508,-3418.5442L13541.2624,-3418.5363L13541.2735,-3418.5207L13541.2771,-3418.5142L13541.2819,-3418.5057L13541.2819,-3418.4977L13541.2825,-3418.4866L13541.2902,-3418.4802L13541.3048,-3418.4742L13541.3231,-3418.4655L13541.3374,-3418.4583L13541.3526,-3418.4527L13541.3772,-3418.4509L13541.3938,-3418.4533L13541.416,-3418.4455L13541.4244,-3418.444L13541.4341,-3418.443L13541.4611,-3418.4295L13541.4707,-3418.422L13541.4786,-3418.419L13541.4888,-3418.42L13541.5032,-3418.4225L13541.514,-3418.426L13541.5189,-3418.423L13541.5177,-3418.4154L13541.5189,-3418.4079L13541.5213,-3418.3954L13541.5243,-3418.3889L13541.5321,-3418.3798L13541.5435,-3418.3773L13541.5634,-3418.3758L13541.5814,-3418.3763L13541.6036,-3418.3743L13541.6097,-3418.3723L13541.6066,-3418.3653L13541.5982,-3418.3588L13541.5943,-3418.3493L13541.5928,-3418.3337L13541.5931,-3418.3333L13541.599,-3418.3262L13541.6086,-3418.3214L13541.6221,-3418.3178L13541.6331,-3418.3192L13541.6457,-3418.3277L13541.6493,-3418.3333L13541.6511,-3418.3362L13541.6602,-3418.3407L13541.6656,-3418.3357L13541.666,-3418.3333L13541.6667,-3418.3301L13541.668,-3418.3232L13541.6738,-3418.3119L13541.687,-3418.303L13541.6968,-3418.3021L13541.7113,-3418.3092L13541.7251,-3418.3217L13541.7287,-3418.3332L13541.7287,-3418.3333L13541.7287,-3418.3422L13541.7197,-3418.3513L13541.7209,-3418.3578L13541.7377,-3418.3553L13541.7468,-3418.3573L13541.775,-3418.3508L13541.787,-3418.3508L13541.8033,-3418.3503L13541.8315,-3418.3538L13541.8502,-3418.3568L13541.8688,-3418.3603L13541.8863,-3418.3653L13541.9031,-3418.3703L13541.9205,-3418.3753L13541.941,-3418.3788L13541.9674,-3418.3849L13541.9873,-3418.3864L13542.0089,-3418.3879L13542.0222,-3418.3849L13542.0306,-3418.3748L13542.039,-3418.3693L13542.0522,-3418.3653L13542.0661,-3418.3608L13542.0757,-3418.3663L13542.0847,-3418.3788L13542.0931,-3418.3904L13542.0997,-3418.3989L13542.1088,-3418.4059L13542.1263,-3418.4002L13542.1467,-3418.3947L13542.1706,-3418.3882L13542.1923,-3418.3827L13542.2208,-3418.3739L13542.2403,-3418.3702L13542.2615,-3418.365L13542.2771,-3418.3626L13542.295,-3418.3727L13542.3107,-3418.3846L13542.3216,-3418.3869L13542.3349,-3418.3788L13542.3409,-3418.3628L13542.3312,-3418.3468L13542.3202,-3418.3333L13542.318,-3418.3307L13542.3025,-3418.3192L13542.2946,-3418.3127L13542.2795,-3418.3058L13542.2467,-3418.296L13542.2279,-3418.2926L13542.2054,-3418.2887L13542.1863,-3418.2853L13542.1709,-3418.2821L13542.1569,-3418.2776L13542.1455,-3418.2721L13542.1371,-3418.2659L13542.1379,-3418.2509L13542.1525,-3418.2399L13542.1726,-3418.2247L13542.1967,-3418.2037L13542.2177,-3418.1913L13542.234,-3418.1744L13542.2552,-3418.1501L13542.2821,-3418.1325L13542.2966,-3418.1301L13542.3072,-3418.1186L13542.3188,-3418.1011L13542.3277,-3418.0799L13542.3338,-3418.0638L13542.3385,-3418.0281L13542.3543,-3418.0049L13542.3691,-3417.9865L13542.3782,-3417.9705L13542.3859,-3417.9421L13542.3865,-3417.9206L13542.3903,-3417.901L13542.3893,-3417.8724L13542.4119,-3417.8869L13542.4336,-3417.8994L13542.4515,-3417.9065L13542.4684,-3417.9202L13542.4806,-3417.9363L13542.4951,-3417.9568L13542.5,-3417.9649L13542.5056,-3417.974L13542.5206,-3417.9991L13542.5371,-3418.0238L13542.5536,-3418.0533L13542.5717,-3418.0752L13542.5912,-3418.1007L13542.6058,-3418.1207L13542.6289,-3418.136L13542.6449,-3418.1403L13542.6458,-3418.1151L13542.6481,-3418.1006L13542.6512,-3418.0855L13542.6512,-3418.064L13542.6542,-3418.055L13542.662,-3418.0334L13542.6686,-3418.0179L13542.677,-3417.9998L13542.6872,-3417.9913L13542.7053,-3417.9853L13542.7203,-3417.9782L13542.7275,-3417.9712L13542.7419,-3417.9617L13542.7576,-3417.9522L13542.7696,-3417.9477L13542.7973,-3417.9361L13542.8093,-3417.9286L13542.8225,-3417.9236L13542.84,-3417.9151L13542.8562,-3417.9146L13542.8694,-3417.9136L13542.8815,-3417.9121L13542.8965,-3417.9071L13542.9103,-3417.906L13542.9248,-3417.9076L13542.935,-3417.9086L13542.9446,-3417.9081L13542.9572,-3417.9055L13542.9668,-3417.8955L13542.9765,-3417.8865L13542.9813,-3417.878L13542.9867,-3417.8694L13542.9885,-3417.8614L13542.9927,-3417.8509L13543.0011,-3417.8404L13543.0156,-3417.8354L13543.021,-3417.8273L13543.0258,-3417.8148L13543.03,-3417.8008L13543.027,-3417.7872L13543.027,-3417.7817L13543.0306,-3417.7657L13543.0384,-3417.7486L13543.0481,-3417.7409L13543.1291,-3417.6869L13543.2003,-3417.6527L13543.2225,-3417.6435L13543.2478,-3417.6395L13543.2862,-3417.6474L13543.3115,-3417.6566L13543.3333,-3417.6566L13543.3353,-3417.6566L13543.3701,-3417.65L13543.4113,-3417.6448L13543.4476,-3417.6566L13543.4951,-3417.6711L13543.5173,-3417.6724L13543.5442,-3417.6803L13543.5964,-3417.7L13543.6344,-3417.7L13543.6708,-3417.6934L13543.7088,-3417.6816L13543.7425,-3417.6776L13543.7963,-3417.6697L13543.8185,-3417.6737L13543.9024,-3417.7039L13543.932,-3417.7249L13543.9451,-3417.7341L13543.9453,-3417.7343Z"/>
<path content="和歌山県,,有田郡,有田川町,,30366" xlink:title="和歌山県" d="M13543.9453,-3410.1562L13535.1563,-3410.1563L13535.1562,-3411.485L13535.1778,-3411.4552L13535.1855,-3411.4488L13535.2145,-3411.4404L13535.2347,-3411.4367L13535.2574,-3411.4347L13535.2874,-3411.4416L13535.3281,-3411.4484L13535.3698,-3411.4426L13535.3924,-3411.4408L13535.4223,-3411.4456L13535.4599,-3411.4508L13535.4851,-3411.4514L13535.5266,-3411.4434L13535.5377,-3411.437L13535.5542,-3411.4217L13535.6024,-3411.3547L13535.615,-3411.3443L13535.6526,-3411.3668L13535.716,-3411.4031L13535.7426,-3411.4211L13535.7556,-3411.4407L13535.7797,-3411.4588L13535.7874,-3411.4641L13535.8044,-3411.4757L13535.8333,-3411.4916L13535.8599,-3411.5062L13535.872,-3411.5094L13535.8831,-3411.5119L13535.9018,-3411.5046L13535.9596,-3411.4805L13535.9819,-3411.4716L13535.9915,-3411.4699L13536.002,-3411.4707L13536.0174,-3411.476L13536.0387,-3411.4882L13536.0469,-3411.4894L13536.0721,-3411.4886L13536.0996,-3411.4812L13536.133,-3411.4768L13536.1717,-3411.4727L13536.1857,-3411.4679L13536.2066,-3411.4532L13536.2273,-3411.4427L13536.2552,-3411.4362L13536.2755,-3411.4398L13536.2914,-3411.4494L13536.2973,-3411.4541L13536.3234,-3411.4748L13536.33,-3411.4775L13536.351,-3411.4801L13536.3737,-3411.4781L13536.3973,-3411.4713L13536.4298,-3411.4402L13536.4451,-3411.4235L13536.5191,-3411.3652L13536.547,-3411.3434L13536.5754,-3411.3404L13536.5963,-3411.3457L13536.6134,-3411.35L13536.6486,-3411.3646L13536.6667,-3411.3724L13536.7029,-3411.3882L13536.7239,-3411.3991L13536.7643,-3411.4045L13536.7852,-3411.4073L13536.8235,-3411.4052L13536.8588,-3411.3996L13536.9393,-3411.381L13537.0114,-3411.3666L13537.0342,-3411.359L13537.0644,-3411.3286L13537.1069,-3411.2776L13537.1293,-3411.2609L13537.1671,-3411.2295L13537.1755,-3411.225L13537.1846,-3411.2226L13537.2212,-3411.222L13537.2643,-3411.2241L13537.3452,-3411.2478L13537.3889,-3411.2697L13537.4651,-3411.3169L13537.3666,-3411.4422L13537.3538,-3411.4714L13537.3496,-3411.5231L13537.3544,-3411.5377L13537.4099,-3411.6054L13537.4281,-3411.6389L13537.4328,-3411.6667L13537.4348,-3411.679L13537.4344,-3411.7066L13537.4178,-3411.7287L13537.4127,-3411.7461L13537.4105,-3411.8056L13537.4097,-3411.8072L13537.3974,-3411.8321L13537.3974,-3411.8528L13537.4191,-3411.9036L13537.4174,-3411.9171L13537.4029,-3411.9336L13537.4014,-3411.9373L13537.3939,-3411.9565L13537.3884,-3411.9903L13537.396,-3412.0073L13537.4161,-3412.0327L13537.4354,-3412.0734L13537.4544,-3412.0831L13537.4941,-3412.0827L13537.5,-3412.0813L13537.5427,-3412.071L13537.5627,-3412.071L13537.6893,-3412.106L13537.7519,-3412.108L13537.8217,-3412.09L13537.8709,-3412.0772L13537.8968,-3412.0749L13537.9466,-3412.0936L13537.9871,-3412.0912L13538.0023,-3412.0941L13538.015,-3412.1009L13538.0852,-3412.138L13538.1031,-3412.1415L13538.1856,-3412.134L13538.2927,-3412.0897L13538.3093,-3412.0927L13538.3255,-3412.0957L13538.3333,-3412.0955L13538.362,-3412.0947L13538.4288,-3412.0797L13538.4662,-3412.0741L13538.5329,-3412.0639L13538.6054,-3412.0693L13538.6444,-3412.0808L13538.7194,-3412.1201L13538.8643,-3412.138L13538.9175,-3412.1489L13539.0554,-3412.1584L13539.1123,-3412.1579L13539.1662,-3412.1575L13539.1667,-3412.1574L13539.1768,-3412.1562L13539.212,-3412.1518L13539.2477,-3412.1449L13539.3338,-3412.1096L13539.3671,-3412.0932L13539.3746,-3412.0924L13539.4174,-3412.0877L13539.5031,-3412.0916L13539.6036,-3412.0786L13539.7042,-3412.0692L13539.7798,-3412.0594L13539.8258,-3412.0594L13539.8531,-3412.0623L13539.8805,-3412.0776L13539.9083,-3412.0931L13539.9322,-3412.1025L13539.9815,-3412.0931L13540,-3412.0944L13540.0369,-3412.0971L13540.1199,-3412.0916L13540.1403,-3412.0866L13540.1681,-3412.0941L13540.2464,-3412.1325L13540.2593,-3412.1345L13540.2801,-3412.1285L13540.3154,-3412.1305L13540.3415,-3412.1386L13540.3708,-3412.1684L13540.3783,-3412.1679L13540.3917,-3412.1401L13540.3989,-3412.1329L13540.4374,-3412.0944L13540.5048,-3412.0663L13540.5754,-3412.0514L13540.7089,-3412.0356L13540.7994,-3412.0147L13540.8333,-3412.0097L13540.8344,-3412.0095L13540.8501,-3412.0034L13540.8682,-3411.9908L13540.8843,-3411.9796L13540.9105,-3411.9704L13540.9243,-3411.9697L13540.9657,-3411.9904L13540.9983,-3411.9934L13541.1373,-3411.9734L13541.2216,-3411.9506L13541.2584,-3411.9502L13541.3321,-3411.9705L13541.409,-3411.9825L13541.4298,-3411.9939L13541.4619,-3412.0116L13541.4995,-3412.0133L13541.5505,-3411.9896L13541.6161,-3411.9752L13541.6397,-3411.979L13541.6667,-3411.9901L13541.6736,-3411.9929L13541.7042,-3411.9873L13541.7771,-3411.9357L13541.8177,-3411.9248L13541.8737,-3411.8904L13541.9028,-3411.8797L13541.9003,-3411.8675L13541.901,-3411.8412L13541.9014,-3411.8267L13541.9666,-3411.7597L13541.9766,-3411.7549L13542.0144,-3411.737L13542.0229,-3411.7347L13542.055,-3411.726L13542.1319,-3411.7265L13542.1911,-3411.7357L13542.2659,-3411.7525L13542.3324,-3411.7981L13542.3429,-3411.8052L13542.3948,-3411.8242L13542.4246,-3411.8249L13542.4983,-3411.8211L13542.5,-3411.8208L13542.5422,-3411.8147L13542.5999,-3411.7778L13542.6683,-3411.7259L13542.6873,-3411.7075L13542.7025,-3411.6803L13542.7114,-3411.6712L13542.7158,-3411.6667L13542.7234,-3411.6588L13542.7601,-3411.6269L13542.8292,-3411.5504L13542.8493,-3411.5504L13542.881,-3411.5647L13542.9126,-3411.5623L13542.9702,-3411.5336L13543.0345,-3411.5331L13543.1061,-3411.5451L13543.1487,-3411.5668L13543.1892,-3411.5991L13543.2336,-3411.6213L13543.2361,-3411.6225L13543.2887,-3411.6339L13543.3187,-3411.6449L13543.3333,-3411.6571L13543.3447,-3411.6667L13543.3466,-3411.6683L13543.3737,-3411.6795L13543.4007,-3411.6886L13543.4371,-3411.6915L13543.4658,-3411.713L13543.5002,-3411.766L13543.5275,-3411.7951L13543.5355,-3411.8161L13543.5379,-3411.8222L13543.5718,-3411.8388L13543.5743,-3411.8416L13543.6559,-3411.9347L13543.6957,-3411.9723L13543.7477,-3412.035L13543.7971,-3412.0871L13543.8156,-3412.1262L13543.8258,-3412.1479L13543.8379,-3412.1631L13543.8547,-3412.1708L13543.9406,-3412.1879L13543.9453,-3412.1904Z"/>
</g>
</svg>
