<?xml version="1.0" encoding="UTF-8"?>
<svg  xmlns="http://www.w3.org/2000/svg" xmlns:xlink="http://www.w3.org/1999/xlink" xmlns:go="http://purl.org/svgmap/profile" property="geometry,N03_001,N03_002,N03_003,N03_004,N03_005,N03_007" viewBox="13429.6875 -3515.625 17.578125 17.578125" go:dataArea="13429.6875 -3515.625 17.578125 17.578125" >
<metadata>
 <rdf:RDF xmlns:rdf="http://www.w3.org/1999/02/22-rdf-syntax-ns#" xmlns:crs="http://opengis.org/xmldtds/transformations.dtd" xmlns:svg="http://www.w3.org/svg" >
  <rdf:Description>
   <crs:CoordinateReferenceSystem rdf:resource="http://purl.org/crs/84" svg:transform="matrix(100.0,0.0,0.0,-100.0,0.0,0.0)" />
  </rdf:Description>
 </rdf:RDF>
</metadata>
<globalCoordinateSystem srsName="http://purl.org/crs/84" transform="matrix(100.0,0.0,0.0,-100.0,0.0,0.0)" />
<defs>
 <g id="p0" >
  <circle cx="0.0" cy="0.0" r="3" stroke="green" stroke-width="2.0" vector-effect="non-scaling-stroke" />
 </g>
</defs>
<g fill="#0000ff" fill-rule="evenodd" opacity="0.5" >
<path content="兵庫県,,,宍粟市,,28227" xlink:title="兵庫県" d="M13447.2656,-3515.625L13447.2656,-3502.9949L13447.2608,-3502.9993L13447.2446,-3503.0098L13447.2272,-3503.0194L13447.2086,-3503.0261L13447.1894,-3503.0275L13447.1552,-3503.027L13447.1465,-3503.0294L13447.1401,-3503.0375L13447.1366,-3503.0533L13447.1362,-3503.0676L13447.1361,-3503.07L13447.1332,-3503.0843L13447.1262,-3503.0962L13447.1094,-3503.1134L13447.0926,-3503.1263L13447.0578,-3503.1468L13447.0467,-3503.1549L13447.0444,-3503.1649L13447.0479,-3503.1746L13447.0595,-3503.2056L13447.0595,-3503.2161L13447.0572,-3503.2294L13447.0514,-3503.2419L13447.038,-3503.2543L13447.0224,-3503.2657L13447.0061,-3503.2767L13446.987,-3503.2848L13446.9731,-3503.2881L13446.9562,-3503.2886L13446.9121,-3503.28L13446.8883,-3503.2772L13446.8738,-3503.2767L13446.864,-3503.28L13446.8616,-3503.2881L13446.8669,-3503.301L13446.8686,-3503.3168L13446.8697,-3503.3333L13446.8698,-3503.3339L13446.8657,-3503.3459L13446.8587,-3503.3528L13446.8466,-3503.3609L13446.8344,-3503.3704L13446.8274,-3503.3809L13446.8269,-3503.3895L13446.8367,-3503.3976L13446.85,-3503.4091L13446.868,-3503.4272L13446.8819,-3503.4439L13446.8866,-3503.4578L13446.8895,-3503.4726L13446.8872,-3503.4916L13446.8785,-3503.506L13446.8657,-3503.5174L13446.85,-3503.5241L13446.8286,-3503.5274L13446.806,-3503.5284L13446.7659,-3503.5251L13446.7375,-3503.5217L13446.7108,-3503.5155L13446.6986,-3503.5155L13446.6853,-3503.5193L13446.6783,-3503.5288L13446.669,-3503.5522L13446.6667,-3503.5566L13446.6606,-3503.568L13446.6507,-3503.5785L13446.6316,-3503.5918L13446.6197,-3503.5986L13446.6055,-3503.6066L13446.5875,-3503.6152L13446.5649,-3503.63L13446.5492,-3503.6362L13446.5365,-3503.6372L13446.5254,-3503.6353L13446.5209,-3503.633L13446.5109,-3503.6281L13446.5005,-3503.6176L13446.4924,-3503.598L13446.4843,-3503.5837L13446.4697,-3503.5613L13446.4616,-3503.5513L13446.4442,-3503.5408L13446.4187,-3503.5279L13446.4001,-3503.5198L13446.3816,-3503.5145L13446.3607,-3503.5059L13446.3398,-3503.4926L13446.3177,-3503.4687L13446.309,-3503.4422L13446.3015,-3503.4332L13446.2835,-3503.4217L13446.2603,-3503.4112L13446.2458,-3503.4026L13446.2377,-3503.3921L13446.2151,-3503.3616L13446.2063,-3503.3549L13446.1895,-3503.3463L13446.1783,-3503.3463L13446.1767,-3503.3463L13446.1611,-3503.3487L13446.1506,-3503.3626L13446.1408,-3503.3778L13446.1303,-3503.3878L13446.1123,-3503.4002L13446.0938,-3503.4074L13446.0642,-3503.4169L13446.0352,-3503.4289L13446.0009,-3503.4384L13445.9749,-3503.4475L13445.9604,-3503.4523L13445.9482,-3503.4523L13445.9343,-3503.4503L13445.9226,-3503.4441L13445.9093,-3503.4265L13445.889,-3503.3974L13445.8617,-3503.3688L13445.8356,-3503.3439L13445.8333,-3503.3423L13445.8213,-3503.3333L13445.8174,-3503.3304L13445.8066,-3503.3225L13445.7921,-3503.3082L13445.7883,-3503.2964L13445.7874,-3503.2938L13445.7869,-3503.2786L13445.7857,-3503.2671L13445.7799,-3503.2576L13445.7712,-3503.2538L13445.764,-3503.2541L13445.7613,-3503.2543L13445.7451,-3503.2662L13445.73,-3503.2829L13445.7174,-3503.2958L13445.7137,-3503.2996L13445.6905,-3503.3144L13445.6726,-3503.3224L13445.6494,-3503.3291L13445.6333,-3503.3333L13445.6221,-3503.3363L13445.5995,-3503.342L13445.5821,-3503.3434L13445.5763,-3503.3511L13445.5745,-3503.3649L13445.571,-3503.3783L13445.5658,-3503.3888L13445.5554,-3503.3983L13445.5414,-3503.4064L13445.5246,-3503.4117L13445.5159,-3503.4122L13445.5089,-3503.4126L13445.4869,-3503.4079L13445.457,-3503.3958L13445.4309,-3503.3906L13445.4031,-3503.3896L13445.363,-3503.3896L13445.3323,-3503.3891L13445.2969,-3503.392L13445.2539,-3503.3949L13445.218,-3503.3963L13445.1762,-3503.3992L13445.1257,-3503.402L13445.0773,-3503.402L13445.0552,-3503.3987L13445.0262,-3503.3882L13445.0013,-3503.3748L13445,-3503.3746L13444.9833,-3503.371L13444.963,-3503.3691L13444.9438,-3503.3705L13444.9183,-3503.3753L13444.9009,-3503.3796L13444.8869,-3503.3907L13444.8858,-3503.3915L13444.8719,-3503.4082L13444.8696,-3503.4101L13444.8591,-3503.4187L13444.8423,-3503.4259L13444.8261,-3503.4307L13444.7953,-3503.4349L13444.7437,-3503.4415L13444.7031,-3503.4468L13444.6868,-3503.4482L13444.6706,-3503.4444L13444.6549,-3503.4391L13444.6398,-3503.4372L13444.6189,-3503.4391L13444.598,-3503.4468L13444.5771,-3503.452L13444.5661,-3503.4587L13444.5371,-3503.4649L13444.5011,-3503.4716L13444.4739,-3503.4759L13444.4431,-3503.4878L13444.3982,-3503.5026L13444.3732,-3503.5093L13444.3599,-3503.5112L13444.3488,-3503.5102L13444.3337,-3503.5107L13444.314,-3503.5159L13444.2862,-3503.5269L13444.267,-3503.5355L13444.249,-3503.5484L13444.2311,-3503.5656L13444.2212,-3503.578L13444.2084,-3503.587L13444.1771,-3503.6004L13444.1667,-3503.6052L13444.1492,-3503.6133L13444.1162,-3503.6287L13444.0849,-3503.6473L13444.046,-3503.6668L13444.0141,-3503.685L13443.9572,-3503.7198L13443.9335,-3503.7353L13443.9149,-3503.7475L13443.9106,-3503.7503L13443.9064,-3503.753L13443.9003,-3503.757L13443.8614,-3503.7818L13443.8348,-3503.7985L13443.7976,-3503.8188L13443.7553,-3503.8408L13443.6984,-3503.8675L13443.6531,-3503.8866L13443.616,-3503.9023L13443.5574,-3503.9329L13443.5754,-3503.9453L13443.5913,-3503.9565L13443.5969,-3503.9605L13443.6189,-3503.9796L13443.6456,-3504.0044L13443.6781,-3504.0378L13443.705,-3504.0671L13443.7317,-3504.0952L13443.7543,-3504.1153L13443.7781,-3504.1363L13443.8031,-3504.1596L13443.8117,-3504.1667L13443.8246,-3504.1773L13443.842,-3504.1954L13443.8493,-3504.2057L13443.8576,-3504.2174L13443.8686,-3504.2345L13443.8705,-3504.2399L13443.8762,-3504.256L13443.8843,-3504.2946L13443.8947,-3504.3352L13443.8999,-3504.3612L13443.9057,-3504.3755L13443.9249,-3504.3975L13443.929,-3504.407L13443.9319,-3504.4223L13443.9284,-3504.4428L13443.9197,-3504.4657L13443.9145,-3504.4829L13443.9093,-3504.5043L13443.9087,-3504.5211L13443.9098,-3504.5354L13443.911,-3504.5498L13443.9104,-3504.577L13443.9098,-3504.6042L13443.9116,-3504.6281L13443.9156,-3504.6471L13443.9249,-3504.6663L13443.9342,-3504.6801L13443.9464,-3504.6925L13443.9499,-3504.703L13443.9493,-3504.7197L13443.9475,-3504.7402L13443.9469,-3504.7574L13443.947,-3504.7579L13443.9504,-3504.7788L13443.9493,-3504.796L13443.9539,-3504.8099L13443.9586,-3504.8318L13443.9632,-3504.8691L13443.9655,-3504.8983L13443.9649,-3504.9164L13443.9626,-3504.9278L13443.9527,-3504.9436L13443.929,-3504.9655L13443.9034,-3504.9875L13443.8913,-3505L13443.8872,-3505.0042L13443.8744,-3505.0233L13443.8663,-3505.0395L13443.857,-3505.0667L13443.8469,-3505.1021L13443.8393,-3505.1279L13443.8237,-3505.1599L13443.8121,-3505.1765L13443.7981,-3505.1908L13443.7801,-3505.1961L13443.7569,-3505.1994L13443.7186,-3505.1989L13443.6833,-3505.2013L13443.6711,-3505.2023L13443.6699,-3505.2085L13443.6792,-3505.2228L13443.6948,-3505.2367L13443.703,-3505.251L13443.7105,-3505.2701L13443.7128,-3505.2849L13443.7099,-3505.3059L13443.7012,-3505.3249L13443.6827,-3505.3464L13443.6566,-3505.3688L13443.6432,-3505.3793L13443.6391,-3505.3879L13443.6438,-3505.3952L13443.6803,-3505.4319L13443.707,-3505.4563L13443.7239,-3505.4733L13443.7395,-3505.4892L13443.759,-3505.5101L13443.7604,-3505.5116L13443.7813,-3505.5412L13443.8016,-3505.5736L13443.8184,-3505.6009L13443.8382,-3505.6311L13443.8393,-3505.6328L13443.8625,-3505.6755L13443.8643,-3505.6898L13443.8613,-3505.7003L13443.8544,-3505.7094L13443.8416,-3505.7218L13443.8358,-3505.7323L13443.8335,-3505.7428L13443.8352,-3505.7533L13443.8364,-3505.7638L13443.8317,-3505.7709L13443.8103,-3505.7886L13443.8033,-3505.7996L13443.8022,-3505.8084L13443.8056,-3505.8242L13443.8073,-3505.8333L13443.8097,-3505.8471L13443.8109,-3505.8638L13443.8086,-3505.8757L13443.7993,-3505.8853L13443.7807,-3505.9L13443.7697,-3505.9114L13443.7629,-3505.9262L13443.7627,-3505.9267L13443.7598,-3505.9368L13443.7598,-3505.9639L13443.7586,-3505.9759L13443.7546,-3505.9859L13443.7401,-3506.0064L13443.7366,-3506.0184L13443.7389,-3506.0303L13443.7476,-3506.0571L13443.7482,-3506.0671L13443.7459,-3506.08L13443.7389,-3506.0886L13443.7291,-3506.1015L13443.7099,-3506.132L13443.6971,-3506.1559L13443.6821,-3506.1807L13443.6716,-3506.1941L13443.6664,-3506.2069L13443.6641,-3506.2251L13443.6635,-3506.2461L13443.6687,-3506.2742L13443.6717,-3506.2924L13443.6812,-3506.3488L13443.6841,-3506.3745L13443.6829,-3506.3969L13443.6765,-3506.4218L13443.6632,-3506.4676L13443.6464,-3506.5263L13443.6423,-3506.5401L13443.6429,-3506.5487L13443.6464,-3506.5587L13443.6603,-3506.5764L13443.6638,-3506.5843L13443.6649,-3506.5976L13443.6632,-3506.6134L13443.6551,-3506.6372L13443.6446,-3506.6544L13443.6344,-3506.6667L13443.6232,-3506.6801L13443.6121,-3506.6954L13443.6023,-3506.7155L13443.5895,-3506.7469L13443.5825,-3506.7734L13443.5773,-3506.8102L13443.5634,-3506.8722L13443.5587,-3506.8923L13443.5582,-3506.9171L13443.5605,-3506.9672L13443.5593,-3506.9963L13443.5582,-3507.013L13443.5547,-3507.0249L13443.5471,-3507.0344L13443.5297,-3507.0488L13443.5204,-3507.0583L13443.5129,-3507.0736L13443.5071,-3507.0912L13443.5025,-3507.116L13443.4909,-3507.1552L13443.4845,-3507.1771L13443.4804,-3507.1993L13443.4793,-3507.2279L13443.4798,-3507.2499L13443.4839,-3507.2656L13443.4903,-3507.2828L13443.4984,-3507.3104L13443.5042,-3507.3253L13443.5152,-3507.3429L13443.5326,-3507.3668L13443.5506,-3507.3939L13443.5697,-3507.4164L13443.5819,-3507.4283L13443.5901,-3507.4354L13443.5924,-3507.4417L13443.5901,-3507.4494L13443.5819,-3507.4652L13443.5738,-3507.489L13443.572,-3507.5L13443.5692,-3507.5167L13443.5674,-3507.5344L13443.5639,-3507.5683L13443.5523,-3507.6107L13443.5448,-3507.6374L13443.5373,-3507.6594L13443.5245,-3507.6756L13443.5056,-3507.7005L13443.4975,-3507.7091L13443.4946,-3507.7182L13443.4952,-3507.7263L13443.4993,-3507.7311L13443.5149,-3507.7363L13443.5306,-3507.7459L13443.548,-3507.7616L13443.559,-3507.774L13443.5631,-3507.7907L13443.5631,-3507.8069L13443.5602,-3507.8279L13443.5602,-3507.8365L13443.5625,-3507.8442L13443.5683,-3507.8494L13443.5793,-3507.848L13443.595,-3507.8446L13443.6193,-3507.8437L13443.6396,-3507.8394L13443.6559,-3507.8399L13443.6721,-3507.847L13443.6855,-3507.8551L13443.7193,-3507.8838L13443.7209,-3507.8852L13443.7371,-3507.8948L13443.7592,-3507.9076L13443.7818,-3507.9181L13443.7975,-3507.9291L13443.8114,-3507.9429L13443.8224,-3507.9602L13443.8398,-3508.0003L13443.8532,-3508.0351L13443.8642,-3508.058L13443.8763,-3508.0819L13443.8943,-3508.1124L13443.9054,-3508.1272L13443.917,-3508.1377L13443.9332,-3508.1478L13443.957,-3508.1616L13443.9901,-3508.1745L13444.0214,-3508.1869L13444.0446,-3508.1983L13444.0556,-3508.215L13444.0603,-3508.2315L13444.0614,-3508.2434L13444.062,-3508.2663L13444.0643,-3508.2878L13444.0673,-3508.3002L13444.0754,-3508.3279L13444.0758,-3508.3333L13444.0765,-3508.3436L13444.0747,-3508.3627L13444.0649,-3508.3861L13444.051,-3508.4143L13444.0388,-3508.4396L13444.0277,-3508.463L13444.0104,-3508.4941L13444.0016,-3508.5179L13443.9953,-3508.5418L13443.9918,-3508.5647L13443.9889,-3508.6028L13443.9846,-3508.6529L13443.9828,-3508.6831L13443.9748,-3508.7095L13443.9677,-3508.7381L13443.9721,-3508.7586L13443.9811,-3508.774L13443.9953,-3508.8055L13444.0087,-3508.8494L13444.0102,-3508.8523L13444.0301,-3508.8919L13444.0471,-3508.9081L13444.0676,-3508.9183L13444.0854,-3508.9359L13444.1014,-3508.9469L13444.1202,-3508.963L13444.1532,-3508.9938L13444.1621,-3509.0172L13444.1656,-3509.0399L13444.1594,-3509.0861L13444.1514,-3509.1213L13444.1205,-3509.1667L13444.1175,-3509.1711L13444.0854,-3509.2121L13444.044,-3509.2689L13444.0363,-3509.2795L13443.9989,-3509.3455L13443.9766,-3509.3674L13443.9017,-3509.4283L13443.8803,-3509.4393L13443.8553,-3509.4429L13443.8294,-3509.4481L13443.8116,-3509.4546L13443.7982,-3509.4693L13443.7733,-3509.4935L13443.7563,-3509.5125L13443.7492,-3509.5301L13443.7563,-3509.5477L13443.7679,-3509.5623L13443.7741,-3509.5681L13443.8,-3509.5924L13443.8365,-3509.6195L13443.8713,-3509.6525L13443.8981,-3509.6752L13443.9186,-3509.7001L13443.9311,-3509.7206L13443.9444,-3509.7411L13443.9676,-3509.7756L13443.9873,-3509.7961L13443.9988,-3509.8166L13444.0015,-3509.8335L13444.0131,-3509.8489L13444.039,-3509.8767L13444.0693,-3509.9046L13444.0987,-3509.9221L13444.1397,-3509.9368L13444.1667,-3509.9447L13444.1968,-3509.9536L13444.2467,-3509.9653L13444.2655,-3509.9712L13444.2815,-3509.9903L13444.2861,-3510L13444.3065,-3510.0438L13444.3199,-3510.084L13444.3422,-3510.1273L13444.3582,-3510.1419L13444.3814,-3510.1559L13444.4109,-3510.1646L13444.467,-3510.1764L13444.4929,-3510.1886L13444.492,-3510.2191L13444.505,-3510.2494L13444.5492,-3510.3103L13444.5649,-3510.3487L13444.5634,-3510.3636L13444.5581,-3510.4152L13444.5494,-3510.4541L13444.5375,-3510.4862L13444.5158,-3510.5147L13444.4811,-3510.5423L13444.4541,-3510.5672L13444.4378,-3510.585L13444.4263,-3510.6054L13444.4269,-3510.634L13444.4204,-3510.6562L13444.4085,-3510.6758L13444.3934,-3510.6901L13444.3706,-3510.7052L13444.2948,-3510.7491L13444.219,-3510.7751L13444.2174,-3510.7758L13444.1886,-3510.7872L13444.1758,-3510.7922L13444.1667,-3510.7958L13444.1657,-3510.7962L13444.165,-3510.7964L13444.1555,-3510.8002L13444.1542,-3510.801L13444.1234,-3510.8194L13444.1103,-3510.8333L13444.0903,-3510.8548L13444.0627,-3510.8852L13444.048,-3510.9122L13444.0363,-3510.9349L13444.0348,-3510.9362L13443.9905,-3510.9777L13443.9616,-3510.9957L13443.9387,-3511.0063L13443.904,-3511.0174L13443.8841,-3511.0208L13443.857,-3511.0295L13443.8341,-3511.043L13443.7348,-3511.0908L13443.689,-3511.1058L13443.6584,-3511.1178L13443.6403,-3511.1313L13443.6326,-3511.141L13443.6057,-3511.1887L13443.584,-3511.245L13443.5809,-3511.2641L13443.583,-3511.2943L13443.583,-3511.2948L13443.5815,-3511.3481L13443.5309,-3511.4336L13443.497,-3511.4882L13443.4739,-3511.6222L13443.4478,-3511.6667L13443.4467,-3511.6685L13443.4236,-3511.7292L13443.4023,-3511.7874L13443.3811,-3511.8062L13443.3617,-3511.8231L13443.3517,-3511.8414L13443.3335,-3511.8704L13443.3333,-3511.8705L13443.3147,-3511.881L13443.2912,-3511.8902L13443.2777,-3511.9056L13443.2659,-3511.9201L13443.2313,-3511.9375L13443.2107,-3511.9481L13443.1978,-3511.9578L13443.1931,-3511.9703L13443.1931,-3511.994L13443.186,-3512.0326L13443.1702,-3512.0567L13443.1537,-3512.062L13443.1331,-3512.0644L13443.1303,-3512.064L13443.0773,-3512.0563L13443.0456,-3512.0567L13443.0127,-3512.0698L13442.9386,-3512.1166L13442.8505,-3512.1634L13442.8112,-3512.1711L13442.76,-3512.1711L13442.7183,-3512.1629L13442.6279,-3512.1378L13442.6003,-3512.1334L13442.5726,-3512.1368L13442.5,-3512.1564L13442.4974,-3512.1571L13442.4768,-3512.1566L13442.4563,-3512.1479L13442.4281,-3512.1354L13442.3899,-3512.1074L13442.3441,-3512.0784L13442.283,-3512.0591L13442.2471,-3512.0548L13442.206,-3512.0475L13442.1743,-3512.0306L13442.1347,-3512.0001L13442.0879,-3511.964L13442.0697,-3511.9553L13442.0521,-3511.9544L13442.0386,-3511.9626L13442.0186,-3511.9862L13441.968,-3512.0485L13441.9339,-3512.0717L13441.9081,-3512.0871L13441.896,-3512.0993L13441.8823,-3512.1132L13441.8711,-3512.1368L13441.8552,-3512.1909L13441.8476,-3512.2098L13441.8405,-3512.2232L13441.8299,-3512.2281L13441.8141,-3512.2305L13441.7959,-3512.2314L13441.7636,-3512.2329L13441.7359,-3512.2372L13441.6984,-3512.2406L13441.6743,-3512.2387L13441.6667,-3512.2395L13441.6566,-3512.2406L13441.6208,-3512.2474L13441.5844,-3512.2508L13441.5485,-3512.2589L13441.5268,-3512.2643L13441.4645,-3512.2884L13441.4474,-3512.2986L13441.4143,-3512.3147L13441.3776,-3512.3271L13441.2961,-3512.3406L13441.2747,-3512.3575L13441.2747,-3512.4114L13441.2701,-3512.4615L13441.2606,-3512.5L13441.2594,-3512.505L13441.2445,-3512.5452L13441.2435,-3512.5618L13441.2667,-3512.6049L13441.2687,-3512.6297L13441.2819,-3512.6431L13441.309,-3512.6703L13441.3261,-3512.696L13441.3332,-3512.7159L13441.3314,-3512.7336L13441.311,-3512.7685L13441.3009,-3512.7995L13441.2969,-3512.8334L13441.2868,-3512.8533L13441.2743,-3512.8889L13441.2594,-3512.9137L13441.1847,-3512.9531L13441.1588,-3512.9693L13441.1547,-3512.985L13441.1527,-3513.0082L13441.1608,-3513.0281L13441.1749,-3513.043L13441.2031,-3513.0628L13441.2062,-3513.0719L13441.2052,-3513.0803L13441.1225,-3513.1631L13441.1215,-3513.1738L13441.1396,-3513.2103L13441.1507,-3513.2202L13441.1729,-3513.2293L13441.1981,-3513.2476L13441.2173,-3513.274L13441.2314,-3513.3179L13441.2407,-3513.3333L13441.2737,-3513.3875L13441.2809,-3513.3958L13441.3059,-3513.4248L13441.3211,-3513.4438L13441.3291,-3513.4621L13441.3354,-3513.4801L13441.3395,-3513.5071L13441.2959,-3513.5576L13441.2968,-3513.5652L13441.3545,-3513.6141L13441.3839,-3513.6284L13441.4502,-3513.656L13441.4764,-3513.6698L13441.5006,-3513.6936L13441.5987,-3513.7496L13441.6061,-3513.7573L13441.6089,-3513.7729L13441.6126,-3513.7941L13441.6108,-3513.8224L13441.6024,-3513.8631L13441.5759,-3513.9316L13441.5501,-3513.9969L13441.5107,-3514.0859L13441.4939,-3514.131L13441.4807,-3514.1667L13441.4631,-3514.2143L13441.4287,-3514.3427L13441.4196,-3514.3764L13441.3992,-3514.4266L13441.3775,-3514.4665L13441.2918,-3514.5814L13441.2475,-3514.6387L13441.2366,-3514.6477L13441.1565,-3514.68L13441.1217,-3514.697L13441.092,-3514.7134L13441.0636,-3514.7288L13440.9919,-3514.7293L13440.9754,-3514.7322L13440.8686,-3514.787L13440.8609,-3514.811L13440.8622,-3514.8396L13440.9208,-3514.971L13440.9223,-3514.9743L13440.9378,-3515L13440.9549,-3515.0285L13440.9772,-3515.0557L13441.0012,-3515.0788L13441.0706,-3515.1249L13441.1632,-3515.1963L13441.2004,-3515.2648L13441.2343,-3515.3633L13441.2348,-3515.4078L13441.2253,-3515.445L13441.2334,-3515.5159L13441.2392,-3515.5423L13441.2484,-3515.5846L13441.25,-3515.625Z"/>
<path content="兵庫県,,佐用郡,佐用町,,28501" xlink:title="兵庫県" d="M13439.5441,-3515.2323L13439.5761,-3515.2259L13439.6766,-3515.2299L13439.7472,-3515.2141L13439.8016,-3515.1877L13439.8423,-3515.168L13439.9072,-3515.1332L13439.9116,-3515.1308L13439.9132,-3515.1299L13440,-3515.082L13440.1483,-3515L13440.2622,-3514.9371L13440.2964,-3514.9182L13440.3468,-3514.8903L13440.3613,-3514.8824L13440.3884,-3514.8673L13440.527,-3514.8043L13440.6262,-3514.7649L13440.7021,-3514.7331L13440.7712,-3514.7527L13440.8333,-3514.7746L13440.8686,-3514.787L13440.9754,-3514.7322L13440.9919,-3514.7293L13441.0636,-3514.7288L13441.092,-3514.7134L13441.1217,-3514.697L13441.1565,-3514.68L13441.2366,-3514.6477L13441.2475,-3514.6387L13441.2918,-3514.5814L13441.3775,-3514.4665L13441.3992,-3514.4266L13441.4196,-3514.3764L13441.4287,-3514.3427L13441.4631,-3514.2143L13441.4807,-3514.1667L13441.4939,-3514.131L13441.5107,-3514.0859L13441.5501,-3513.9969L13441.5759,-3513.9316L13441.6024,-3513.8631L13441.6108,-3513.8224L13441.6126,-3513.7941L13441.6089,-3513.7729L13441.6061,-3513.7573L13441.5987,-3513.7496L13441.5006,-3513.6936L13441.4764,-3513.6698L13441.4502,-3513.656L13441.3839,-3513.6284L13441.3545,-3513.6141L13441.2968,-3513.5652L13441.2959,-3513.5576L13441.3395,-3513.5071L13441.3354,-3513.4801L13441.3291,-3513.4621L13441.3211,-3513.4438L13441.3059,-3513.4248L13441.2809,-3513.3958L13441.2737,-3513.3875L13441.2407,-3513.3333L13441.2314,-3513.3179L13441.2173,-3513.274L13441.1981,-3513.2476L13441.1729,-3513.2293L13441.1507,-3513.2202L13441.1396,-3513.2103L13441.1215,-3513.1738L13441.1225,-3513.1631L13441.2052,-3513.0803L13441.2062,-3513.0719L13441.2031,-3513.0628L13441.1749,-3513.043L13441.1608,-3513.0281L13441.1527,-3513.0082L13441.1547,-3512.985L13441.1588,-3512.9693L13441.1847,-3512.9531L13441.2594,-3512.9137L13441.2743,-3512.8889L13441.2868,-3512.8533L13441.2969,-3512.8334L13441.3009,-3512.7995L13441.311,-3512.7685L13441.3314,-3512.7336L13441.3332,-3512.7159L13441.3261,-3512.696L13441.309,-3512.6703L13441.2819,-3512.6431L13441.2687,-3512.6297L13441.2667,-3512.6049L13441.2435,-3512.5618L13441.2445,-3512.5452L13441.2594,-3512.505L13441.2606,-3512.5L13441.2701,-3512.4615L13441.2747,-3512.4114L13441.2747,-3512.3575L13441.2961,-3512.3406L13441.3776,-3512.3271L13441.4143,-3512.3147L13441.4474,-3512.2986L13441.4645,-3512.2884L13441.5268,-3512.2643L13441.5485,-3512.2589L13441.5844,-3512.2508L13441.6208,-3512.2474L13441.6566,-3512.2406L13441.6667,-3512.2395L13441.6743,-3512.2387L13441.6984,-3512.2406L13441.7359,-3512.2372L13441.7636,-3512.2329L13441.7959,-3512.2314L13441.8141,-3512.2305L13441.8299,-3512.2281L13441.8405,-3512.2232L13441.8476,-3512.2098L13441.8552,-3512.1909L13441.8711,-3512.1368L13441.8823,-3512.1132L13441.896,-3512.0993L13441.9081,-3512.0871L13441.9339,-3512.0717L13441.968,-3512.0485L13442.0186,-3511.9862L13442.0386,-3511.9626L13442.0521,-3511.9544L13442.0697,-3511.9553L13442.0879,-3511.964L13442.1347,-3512.0001L13442.1743,-3512.0306L13442.206,-3512.0475L13442.2471,-3512.0548L13442.283,-3512.0591L13442.3441,-3512.0784L13442.3899,-3512.1074L13442.4281,-3512.1354L13442.4563,-3512.1479L13442.4768,-3512.1566L13442.4974,-3512.1571L13442.5,-3512.1564L13442.5726,-3512.1368L13442.6003,-3512.1334L13442.6279,-3512.1378L13442.7183,-3512.1629L13442.76,-3512.1711L13442.8112,-3512.1711L13442.8505,-3512.1634L13442.9386,-3512.1166L13443.0127,-3512.0698L13443.0456,-3512.0567L13443.0773,-3512.0563L13443.1303,-3512.064L13443.1331,-3512.0644L13443.1537,-3512.062L13443.1702,-3512.0567L13443.186,-3512.0326L13443.1931,-3511.994L13443.1931,-3511.9703L13443.1978,-3511.9578L13443.2107,-3511.9481L13443.2313,-3511.9375L13443.2659,-3511.9201L13443.2777,-3511.9056L13443.2912,-3511.8902L13443.3147,-3511.881L13443.3333,-3511.8705L13443.3335,-3511.8704L13443.3517,-3511.8414L13443.3617,-3511.8231L13443.3811,-3511.8062L13443.4023,-3511.7874L13443.4236,-3511.7292L13443.4467,-3511.6685L13443.4478,-3511.6667L13443.4739,-3511.6222L13443.497,-3511.4882L13443.5309,-3511.4336L13443.5815,-3511.3481L13443.583,-3511.2948L13443.583,-3511.2943L13443.5809,-3511.2641L13443.584,-3511.245L13443.6057,-3511.1887L13443.6326,-3511.141L13443.6403,-3511.1313L13443.6584,-3511.1178L13443.689,-3511.1058L13443.7348,-3511.0908L13443.8341,-3511.043L13443.857,-3511.0295L13443.8841,-3511.0208L13443.904,-3511.0174L13443.9387,-3511.0063L13443.9616,-3510.9957L13443.9905,-3510.9777L13444.0348,-3510.9362L13444.0363,-3510.9349L13444.048,-3510.9122L13444.0627,-3510.8852L13444.0903,-3510.8548L13444.1103,-3510.8333L13444.1234,-3510.8194L13444.1542,-3510.801L13444.1555,-3510.8002L13444.165,-3510.7964L13444.1657,-3510.7962L13444.1667,-3510.7958L13444.1758,-3510.7922L13444.1886,-3510.7872L13444.2174,-3510.7758L13444.219,-3510.7751L13444.2948,-3510.7491L13444.3706,-3510.7052L13444.3934,-3510.6901L13444.4085,-3510.6758L13444.4204,-3510.6562L13444.4269,-3510.634L13444.4263,-3510.6054L13444.4378,-3510.585L13444.4541,-3510.5672L13444.4811,-3510.5423L13444.5158,-3510.5147L13444.5375,-3510.4862L13444.5494,-3510.4541L13444.5581,-3510.4152L13444.5634,-3510.3636L13444.5649,-3510.3487L13444.5492,-3510.3103L13444.505,-3510.2494L13444.492,-3510.2191L13444.4929,-3510.1886L13444.467,-3510.1764L13444.4109,-3510.1646L13444.3814,-3510.1559L13444.3582,-3510.1419L13444.3422,-3510.1273L13444.3199,-3510.084L13444.3065,-3510.0438L13444.2861,-3510L13444.2815,-3509.9903L13444.2655,-3509.9712L13444.2467,-3509.9653L13444.1968,-3509.9536L13444.1667,-3509.9447L13444.1397,-3509.9368L13444.0987,-3509.9221L13444.0693,-3509.9046L13444.039,-3509.8767L13444.0131,-3509.8489L13444.0015,-3509.8335L13443.9988,-3509.8166L13443.9873,-3509.7961L13443.9676,-3509.7756L13443.9444,-3509.7411L13443.9311,-3509.7206L13443.9186,-3509.7001L13443.8981,-3509.6752L13443.8713,-3509.6525L13443.8365,-3509.6195L13443.8,-3509.5924L13443.7741,-3509.5681L13443.7679,-3509.5623L13443.7563,-3509.5477L13443.7492,-3509.5301L13443.7563,-3509.5125L13443.7733,-3509.4935L13443.7982,-3509.4693L13443.8116,-3509.4546L13443.8294,-3509.4481L13443.8553,-3509.4429L13443.8803,-3509.4393L13443.9017,-3509.4283L13443.9766,-3509.3674L13443.9989,-3509.3455L13444.0363,-3509.2795L13444.044,-3509.2689L13444.0854,-3509.2121L13444.1175,-3509.1711L13444.1205,-3509.1667L13444.1514,-3509.1213L13444.1594,-3509.0861L13444.1656,-3509.0399L13444.1621,-3509.0172L13444.1532,-3508.9938L13444.1202,-3508.963L13444.1014,-3508.9469L13444.0854,-3508.9359L13444.0676,-3508.9183L13444.0471,-3508.9081L13444.0301,-3508.8919L13444.0102,-3508.8523L13444.0087,-3508.8494L13443.9953,-3508.8055L13443.9811,-3508.774L13443.9721,-3508.7586L13443.9677,-3508.7381L13443.9748,-3508.7095L13443.9828,-3508.6831L13443.9846,-3508.6529L13443.9889,-3508.6028L13443.9918,-3508.5647L13443.9953,-3508.5418L13444.0016,-3508.5179L13444.0104,-3508.4941L13444.0277,-3508.463L13444.0388,-3508.4396L13444.051,-3508.4143L13444.0649,-3508.3861L13444.0747,-3508.3627L13444.0765,-3508.3436L13444.0758,-3508.3333L13444.0754,-3508.3279L13444.0673,-3508.3002L13444.0643,-3508.2878L13444.062,-3508.2663L13444.0614,-3508.2434L13444.0603,-3508.2315L13444.0556,-3508.215L13444.0446,-3508.1983L13444.0214,-3508.1869L13443.9901,-3508.1745L13443.957,-3508.1616L13443.9332,-3508.1478L13443.917,-3508.1377L13443.9054,-3508.1272L13443.8943,-3508.1124L13443.8763,-3508.0819L13443.8642,-3508.058L13443.8532,-3508.0351L13443.8398,-3508.0003L13443.8224,-3507.9602L13443.8114,-3507.9429L13443.7975,-3507.9291L13443.7818,-3507.9181L13443.7592,-3507.9076L13443.7371,-3507.8948L13443.7209,-3507.8852L13443.7193,-3507.8838L13443.6855,-3507.8551L13443.6721,-3507.847L13443.6559,-3507.8399L13443.6396,-3507.8394L13443.6193,-3507.8437L13443.595,-3507.8446L13443.5793,-3507.848L13443.5683,-3507.8494L13443.5625,-3507.8442L13443.5602,-3507.8365L13443.5602,-3507.8279L13443.5631,-3507.8069L13443.5631,-3507.7907L13443.559,-3507.774L13443.548,-3507.7616L13443.5306,-3507.7459L13443.5149,-3507.7363L13443.4993,-3507.7311L13443.4952,-3507.7263L13443.4946,-3507.7182L13443.4975,-3507.7091L13443.5056,-3507.7005L13443.5245,-3507.6756L13443.5373,-3507.6594L13443.5448,-3507.6374L13443.5523,-3507.6107L13443.5639,-3507.5683L13443.5674,-3507.5344L13443.5692,-3507.5167L13443.572,-3507.5L13443.5738,-3507.489L13443.5819,-3507.4652L13443.5901,-3507.4494L13443.5924,-3507.4417L13443.5901,-3507.4354L13443.5819,-3507.4283L13443.5697,-3507.4164L13443.5506,-3507.3939L13443.5326,-3507.3668L13443.5152,-3507.3429L13443.5042,-3507.3253L13443.4984,-3507.3104L13443.4903,-3507.2828L13443.4839,-3507.2656L13443.4798,-3507.2499L13443.4793,-3507.2279L13443.4804,-3507.1993L13443.4845,-3507.1771L13443.4909,-3507.1552L13443.5025,-3507.116L13443.5071,-3507.0912L13443.5129,-3507.0736L13443.5204,-3507.0583L13443.5297,-3507.0488L13443.5471,-3507.0344L13443.5547,-3507.0249L13443.5582,-3507.013L13443.5593,-3506.9963L13443.5605,-3506.9672L13443.5582,-3506.9171L13443.5587,-3506.8923L13443.5634,-3506.8722L13443.5773,-3506.8102L13443.5825,-3506.7734L13443.5895,-3506.7469L13443.6023,-3506.7155L13443.6121,-3506.6954L13443.6232,-3506.6801L13443.6344,-3506.6667L13443.6446,-3506.6544L13443.6551,-3506.6372L13443.6632,-3506.6134L13443.6649,-3506.5976L13443.6638,-3506.5843L13443.6603,-3506.5764L13443.6464,-3506.5587L13443.6429,-3506.5487L13443.6423,-3506.5401L13443.6464,-3506.5263L13443.6632,-3506.4676L13443.6765,-3506.4218L13443.6829,-3506.3969L13443.6841,-3506.3745L13443.6812,-3506.3488L13443.6717,-3506.2924L13443.6687,-3506.2742L13443.6635,-3506.2461L13443.6641,-3506.2251L13443.6664,-3506.2069L13443.6716,-3506.1941L13443.6821,-3506.1807L13443.6971,-3506.1559L13443.7099,-3506.132L13443.7291,-3506.1015L13443.7389,-3506.0886L13443.7459,-3506.08L13443.7482,-3506.0671L13443.7476,-3506.0571L13443.7389,-3506.0303L13443.7366,-3506.0184L13443.7401,-3506.0064L13443.7546,-3505.9859L13443.7586,-3505.9759L13443.7598,-3505.9639L13443.7598,-3505.9368L13443.7627,-3505.9267L13443.7629,-3505.9262L13443.7697,-3505.9114L13443.7807,-3505.9L13443.7993,-3505.8853L13443.8086,-3505.8757L13443.8109,-3505.8638L13443.8097,-3505.8471L13443.8073,-3505.8333L13443.8056,-3505.8242L13443.8022,-3505.8084L13443.8033,-3505.7996L13443.8103,-3505.7886L13443.8317,-3505.7709L13443.8364,-3505.7638L13443.8352,-3505.7533L13443.8335,-3505.7428L13443.8358,-3505.7323L13443.8416,-3505.7218L13443.8544,-3505.7094L13443.8613,-3505.7003L13443.8643,-3505.6898L13443.8625,-3505.6755L13443.8393,-3505.6328L13443.8382,-3505.6311L13443.8184,-3505.6009L13443.8016,-3505.5736L13443.7813,-3505.5412L13443.7604,-3505.5116L13443.759,-3505.5101L13443.7395,-3505.4892L13443.7239,-3505.4733L13443.707,-3505.4563L13443.6803,-3505.4319L13443.6438,-3505.3952L13443.6391,-3505.3879L13443.6432,-3505.3793L13443.6566,-3505.3688L13443.6827,-3505.3464L13443.7012,-3505.3249L13443.7099,-3505.3059L13443.7128,-3505.2849L13443.7105,-3505.2701L13443.703,-3505.251L13443.6948,-3505.2367L13443.6792,-3505.2228L13443.6699,-3505.2085L13443.6711,-3505.2023L13443.6833,-3505.2013L13443.7186,-3505.1989L13443.7569,-3505.1994L13443.7801,-3505.1961L13443.7981,-3505.1908L13443.8121,-3505.1765L13443.8237,-3505.1599L13443.8393,-3505.1279L13443.8469,-3505.1021L13443.857,-3505.0667L13443.8663,-3505.0395L13443.8744,-3505.0233L13443.8872,-3505.0042L13443.8913,-3505L13443.9034,-3504.9875L13443.929,-3504.9655L13443.9527,-3504.9436L13443.9626,-3504.9278L13443.9649,-3504.9164L13443.9655,-3504.8983L13443.9632,-3504.8691L13443.9586,-3504.8318L13443.9539,-3504.8099L13443.9493,-3504.796L13443.9504,-3504.7788L13443.947,-3504.7579L13443.9469,-3504.7574L13443.9475,-3504.7402L13443.9493,-3504.7197L13443.9499,-3504.703L13443.9464,-3504.6925L13443.9342,-3504.6801L13443.9249,-3504.6663L13443.9156,-3504.6471L13443.9116,-3504.6281L13443.9098,-3504.6042L13443.9104,-3504.577L13443.911,-3504.5498L13443.9098,-3504.5354L13443.9087,-3504.5211L13443.9093,-3504.5043L13443.9145,-3504.4829L13443.9197,-3504.4657L13443.9284,-3504.4428L13443.9319,-3504.4223L13443.929,-3504.407L13443.9249,-3504.3975L13443.9057,-3504.3755L13443.8999,-3504.3612L13443.8947,-3504.3352L13443.8843,-3504.2946L13443.8762,-3504.256L13443.8705,-3504.2399L13443.8686,-3504.2345L13443.8576,-3504.2174L13443.8493,-3504.2057L13443.842,-3504.1954L13443.8246,-3504.1773L13443.8117,-3504.1667L13443.8031,-3504.1596L13443.7781,-3504.1363L13443.7543,-3504.1153L13443.7317,-3504.0952L13443.705,-3504.0671L13443.6781,-3504.0378L13443.6456,-3504.0044L13443.6189,-3503.9796L13443.5969,-3503.9605L13443.5913,-3503.9565L13443.5754,-3503.9453L13443.5574,-3503.9329L13443.616,-3503.9023L13443.6531,-3503.8866L13443.6984,-3503.8675L13443.7553,-3503.8408L13443.7976,-3503.8188L13443.8348,-3503.7985L13443.8614,-3503.7818L13443.9003,-3503.757L13443.9064,-3503.753L13443.9106,-3503.7503L13443.9149,-3503.7475L13443.9335,-3503.7353L13443.9572,-3503.7198L13444.0141,-3503.685L13444.046,-3503.6668L13444.0849,-3503.6473L13444.1162,-3503.6287L13444.1492,-3503.6133L13444.1667,-3503.6052L13444.1771,-3503.6004L13444.2084,-3503.587L13444.2212,-3503.578L13444.2311,-3503.5656L13444.249,-3503.5484L13444.267,-3503.5355L13444.2862,-3503.5269L13444.314,-3503.5159L13444.3337,-3503.5107L13444.3488,-3503.5102L13444.3599,-3503.5112L13444.3732,-3503.5093L13444.3982,-3503.5026L13444.4431,-3503.4878L13444.4739,-3503.4759L13444.5011,-3503.4716L13444.5371,-3503.4649L13444.5661,-3503.4587L13444.5771,-3503.452L13444.598,-3503.4468L13444.6189,-3503.4391L13444.6398,-3503.4372L13444.6549,-3503.4391L13444.6706,-3503.4444L13444.6868,-3503.4482L13444.7031,-3503.4468L13444.7437,-3503.4415L13444.7953,-3503.4349L13444.8261,-3503.4307L13444.8423,-3503.4259L13444.8591,-3503.4187L13444.8696,-3503.4101L13444.8719,-3503.4082L13444.8858,-3503.3915L13444.8869,-3503.3907L13444.9009,-3503.3796L13444.9183,-3503.3753L13444.9438,-3503.3705L13444.963,-3503.3691L13444.9833,-3503.371L13445,-3503.3746L13445.0013,-3503.3748L13445.0262,-3503.3882L13445.0552,-3503.3987L13445.0773,-3503.402L13445.1257,-3503.402L13445.1762,-3503.3992L13445.218,-3503.3963L13445.2539,-3503.3949L13445.2969,-3503.392L13445.3323,-3503.3891L13445.363,-3503.3896L13445.4031,-3503.3896L13445.4309,-3503.3906L13445.457,-3503.3958L13445.4869,-3503.4079L13445.5089,-3503.4126L13445.5159,-3503.4122L13445.5246,-3503.4117L13445.5414,-3503.4064L13445.5554,-3503.3983L13445.5658,-3503.3888L13445.571,-3503.3783L13445.5745,-3503.3649L13445.5763,-3503.3511L13445.5821,-3503.3434L13445.5995,-3503.342L13445.6221,-3503.3363L13445.6333,-3503.3333L13445.6494,-3503.3291L13445.6726,-3503.3224L13445.6905,-3503.3144L13445.7137,-3503.2996L13445.7174,-3503.2958L13445.73,-3503.2829L13445.7451,-3503.2662L13445.7613,-3503.2543L13445.764,-3503.2541L13445.7712,-3503.2538L13445.7799,-3503.2576L13445.7857,-3503.2671L13445.7869,-3503.2786L13445.7874,-3503.2938L13445.7883,-3503.2964L13445.7921,-3503.3082L13445.8066,-3503.3225L13445.8174,-3503.3304L13445.8213,-3503.3333L13445.8333,-3503.3423L13445.8356,-3503.3439L13445.8617,-3503.3688L13445.889,-3503.3974L13445.9093,-3503.4265L13445.9226,-3503.4441L13445.9343,-3503.4503L13445.9482,-3503.4523L13445.9604,-3503.4523L13445.9749,-3503.4475L13446.0009,-3503.4384L13446.0352,-3503.4289L13446.0642,-3503.4169L13446.0938,-3503.4074L13446.1123,-3503.4002L13446.1303,-3503.3878L13446.1408,-3503.3778L13446.1506,-3503.3626L13446.1611,-3503.3487L13446.1767,-3503.3463L13446.1783,-3503.3463L13446.1895,-3503.3463L13446.2063,-3503.3549L13446.2151,-3503.3616L13446.2377,-3503.3921L13446.2458,-3503.4026L13446.2603,-3503.4112L13446.2835,-3503.4217L13446.3015,-3503.4332L13446.309,-3503.4422L13446.3177,-3503.4687L13446.3398,-3503.4926L13446.3607,-3503.5059L13446.3816,-3503.5145L13446.4001,-3503.5198L13446.4187,-3503.5279L13446.4442,-3503.5408L13446.4616,-3503.5513L13446.4697,-3503.5613L13446.4843,-3503.5837L13446.4924,-3503.598L13446.5005,-3503.6176L13446.5109,-3503.6281L13446.5209,-3503.633L13446.5254,-3503.6353L13446.5365,-3503.6372L13446.5492,-3503.6362L13446.5649,-3503.63L13446.5875,-3503.6152L13446.6055,-3503.6066L13446.6197,-3503.5986L13446.6316,-3503.5918L13446.6507,-3503.5785L13446.6606,-3503.568L13446.6667,-3503.5566L13446.669,-3503.5522L13446.6783,-3503.5288L13446.6853,-3503.5193L13446.6986,-3503.5155L13446.7108,-3503.5155L13446.7375,-3503.5217L13446.7659,-3503.5251L13446.806,-3503.5284L13446.8286,-3503.5274L13446.85,-3503.5241L13446.8657,-3503.5174L13446.8785,-3503.506L13446.8872,-3503.4916L13446.8895,-3503.4726L13446.8866,-3503.4578L13446.8819,-3503.4439L13446.868,-3503.4272L13446.85,-3503.4091L13446.8367,-3503.3976L13446.8269,-3503.3895L13446.8274,-3503.3809L13446.8344,-3503.3704L13446.8466,-3503.3609L13446.8587,-3503.3528L13446.8657,-3503.3459L13446.8698,-3503.3339L13446.8697,-3503.3333L13446.8686,-3503.3168L13446.8669,-3503.301L13446.8616,-3503.2881L13446.864,-3503.28L13446.8738,-3503.2767L13446.8883,-3503.2772L13446.9121,-3503.28L13446.9562,-3503.2886L13446.9731,-3503.2881L13446.987,-3503.2848L13447.0061,-3503.2767L13447.0224,-3503.2657L13447.038,-3503.2543L13447.0514,-3503.2419L13447.0572,-3503.2294L13447.0595,-3503.2161L13447.0595,-3503.2056L13447.0479,-3503.1746L13447.0444,-3503.1649L13447.0467,-3503.1549L13447.0578,-3503.1468L13447.0926,-3503.1263L13447.1094,-3503.1134L13447.1262,-3503.0962L13447.1332,-3503.0843L13447.1361,-3503.07L13447.1362,-3503.0676L13447.1366,-3503.0533L13447.1401,-3503.0375L13447.1465,-3503.0294L13447.1552,-3503.027L13447.1894,-3503.0275L13447.2086,-3503.0261L13447.2272,-3503.0194L13447.2446,-3503.0098L13447.2608,-3502.9993L13447.2656,-3502.9949L13447.2656,-3498.0469L13429.6875,-3498.0469L13429.6875,-3504.2755L13429.7001,-3504.3009L13429.7349,-3504.3104L13429.7787,-3504.3107L13429.8595,-3504.2877L13429.9529,-3504.2611L13429.9884,-3504.2605L13430,-3504.2637L13430.0444,-3504.2759L13430.0712,-3504.2694L13430.0989,-3504.2509L13430.1109,-3504.2354L13430.1178,-3504.1777L13430.1258,-3504.1667L13430.1366,-3504.1517L13430.1899,-3504.1043L13430.2081,-3504.088L13430.2458,-3504.0486L13430.2749,-3504.0444L13430.4221,-3504.0479L13430.5305,-3504.0169L13430.5746,-3504.0324L13430.6401,-3504.0984L13430.7421,-3504.1469L13430.7561,-3504.1615L13430.7572,-3504.1667L13430.7604,-3504.1805L13430.7449,-3504.2044L13430.6867,-3504.2586L13430.6816,-3504.2917L13430.7124,-3504.3269L13430.7064,-3504.3402L13430.6559,-3504.3578L13430.6379,-3504.3726L13430.6271,-3504.3911L13430.6529,-3504.4291L13430.6542,-3504.431L13430.6651,-3504.4407L13430.7141,-3504.4844L13430.7736,-3504.5502L13430.775,-3504.5913L13430.8333,-3504.5702L13430.8886,-3504.5502L13430.9392,-3504.5098L13430.9674,-3504.5032L13431.0589,-3504.5098L13431.158,-3504.5329L13431.1934,-3504.5282L13431.2079,-3504.5139L13431.2245,-3504.4747L13431.2452,-3504.4616L13431.2777,-3504.461L13431.3435,-3504.5086L13431.3897,-3504.4802L13431.4159,-3504.4396L13431.4723,-3504.4039L13431.4936,-3504.3968L13431.5294,-3504.3848L13431.5564,-3504.3698L13431.5847,-3504.3423L13431.6332,-3504.32L13431.6667,-3504.3403L13431.6874,-3504.3529L13431.7037,-3504.3859L13431.7139,-3504.4503L13431.7152,-3504.5059L13431.7144,-3504.5259L13431.7028,-3504.5354L13431.6979,-3504.5369L13431.6667,-3504.5462L13431.6463,-3504.5523L13431.6386,-3504.5629L13431.6437,-3504.5819L13431.6667,-3504.613L13431.7174,-3504.6818L13431.7154,-3504.6984L13431.7131,-3504.7176L13431.6771,-3504.7556L13431.6667,-3504.7586L13431.6104,-3504.7742L13431.5765,-3504.8123L13431.5465,-3504.8376L13431.5294,-3504.8668L13431.5106,-3504.9146L13431.5063,-3504.9568L13431.4986,-3504.9864L13431.496,-3504.9883L13431.4798,-3505L13431.4686,-3505.0082L13431.4309,-3505.0616L13431.4335,-3505.0792L13431.496,-3505.1647L13431.499,-3505.1693L13431.5174,-3505.1978L13431.5046,-3505.2224L13431.4632,-3505.2581L13431.4601,-3505.2783L13431.4737,-3505.3086L13431.4746,-3505.3367L13431.4583,-3505.3641L13431.4575,-3505.381L13431.5157,-3505.4552L13431.514,-3505.4806L13431.484,-3505.5375L13431.4703,-3505.6339L13431.4754,-3505.6599L13431.5114,-3505.7176L13431.5243,-3505.757L13431.5097,-3505.7732L13431.4833,-3505.7903L13431.4412,-3505.8175L13431.4325,-3505.8333L13431.4292,-3505.8393L13431.4549,-3505.8843L13431.4703,-3505.9301L13431.4652,-3505.9863L13431.4571,-3506.0616L13431.454,-3506.0904L13431.4652,-3506.0996L13431.5276,-3506.1159L13431.5525,-3506.1548L13431.5572,-3506.1786L13431.612,-3506.2248L13431.6308,-3506.2741L13431.6667,-3506.311L13431.6813,-3506.3261L13431.6865,-3506.3479L13431.6667,-3506.3706L13431.6539,-3506.3852L13431.6445,-3506.4049L13431.6548,-3506.4316L13431.6667,-3506.4555L13431.6746,-3506.4714L13431.6873,-3506.4971L13431.7177,-3506.5647L13431.8191,-3506.5924L13431.8856,-3506.6406L13431.9112,-3506.6667L13431.9554,-3506.7116L13432.019,-3506.7408L13432.0603,-3506.7503L13432.1159,-3506.7497L13432.1467,-3506.8176L13432.1567,-3506.8413L13432.1731,-3506.8803L13432.1702,-3506.9118L13432.1611,-3506.9292L13432.1254,-3506.9654L13432.1197,-3506.9913L13432.1287,-3507.0385L13432.0892,-3507.17L13432.0689,-3507.2039L13432.1654,-3507.2747L13432.1191,-3507.3386L13432.1062,-3507.4195L13432.0908,-3507.4518L13432.066,-3507.4771L13432.0383,-3507.5L13432.0043,-3507.5281L13431.9901,-3507.5578L13432.0103,-3507.5809L13432.0721,-3507.6056L13432.0761,-3507.6072L13432.0776,-3507.6245L13432.0053,-3507.6611L13431.9973,-3507.6783L13431.994,-3507.7743L13431.987,-3507.7892L13431.9846,-3507.7941L13431.9452,-3507.8583L13431.9412,-3507.9177L13431.9533,-3507.9422L13431.9879,-3508.012L13431.994,-3508.0564L13431.9937,-3508.0992L13432.0103,-3508.1491L13432.0074,-3508.1825L13431.9893,-3508.2074L13431.9478,-3508.2495L13431.9127,-3508.2729L13431.891,-3508.3091L13431.8924,-3508.3282L13431.8975,-3508.3333L13431.9083,-3508.3443L13431.9709,-3508.3684L13431.9867,-3508.3736L13432.0204,-3508.3844L13432.0899,-3508.4029L13432.2204,-3508.4207L13432.2927,-3508.454L13432.4783,-3508.573L13432.5,-3508.5769L13432.573,-3508.5902L13432.6186,-3508.5926L13432.6548,-3508.5861L13432.7318,-3508.5569L13432.7868,-3508.5539L13432.8207,-3508.5641L13432.9521,-3508.643L13432.9773,-3508.6528L13432.9997,-3508.666L13433.0184,-3508.6797L13433.0737,-3508.7138L13433.1319,-3508.7377L13433.1559,-3508.7433L13433.1801,-3508.744L13433.198,-3508.7391L13433.2147,-3508.7258L13433.2329,-3508.7033L13433.2477,-3508.6698L13433.2501,-3508.6528L13433.2553,-3508.6365L13433.2595,-3508.6211L13433.2655,-3508.6122L13433.2841,-3508.6153L13433.3333,-3508.6494L13433.3383,-3508.6528L13433.3551,-3508.6642L13433.3695,-3508.6726L13433.3855,-3508.679L13433.4005,-3508.6856L13433.4193,-3508.6927L13433.4407,-3508.7053L13433.4891,-3508.7398L13433.505,-3508.7507L13433.5208,-3508.763L13433.5224,-3508.7643L13433.5349,-3508.7752L13433.5523,-3508.7948L13433.5529,-3508.7956L13433.5769,-3508.835L13433.582,-3508.8455L13433.5961,-3508.8564L13433.621,-3508.8599L13433.6398,-3508.8663L13433.6539,-3508.8751L13433.6621,-3508.892L13433.6651,-3508.9057L13433.6655,-3508.9289L13433.6719,-3508.9489L13433.6888,-3508.9681L13433.7055,-3508.9885L13433.7119,-3509.0124L13433.7132,-3509.0581L13433.7175,-3509.0976L13433.7179,-3509.1225L13433.7179,-3509.1362L13433.7286,-3509.1322L13433.7393,-3509.1281L13433.7654,-3509.1102L13433.7819,-3509.0964L13433.7928,-3509.0905L13433.8053,-3509.0782L13433.8134,-3509.0592L13433.8282,-3509.0186L13433.838,-3509.0049L13433.8607,-3508.988L13433.8676,-3508.9749L13433.8718,-3508.9524L13433.8817,-3508.9359L13433.9055,-3508.9186L13433.9327,-3508.9152L13433.9599,-3508.914L13433.9748,-3508.9118L13433.9938,-3508.9005L13434.0217,-3508.8746L13434.0426,-3508.8714L13434.0672,-3508.8735L13434.0957,-3508.8791L13434.1094,-3508.8848L13434.1119,-3508.8866L13434.1206,-3508.8932L13434.133,-3508.9154L13434.1433,-3508.9399L13434.1541,-3508.9579L13434.1667,-3508.9692L13434.1685,-3508.9709L13434.1854,-3508.9827L13434.2139,-3508.9951L13434.2302,-3508.9988L13434.2438,-3509.0019L13434.2986,-3509.0128L13434.3522,-3509.0177L13434.3826,-3509.017L13434.438,-3509.0068L13434.4577,-3509.0064L13434.4761,-3509.011L13434.4988,-3509.0191L13434.5155,-3509.0293L13434.5347,-3509.0367L13434.5549,-3509.0363L13434.5831,-3509.0335L13434.6054,-3509.0283L13434.6247,-3509.0356L13434.6653,-3509.0715L13434.6794,-3509.0845L13434.6921,-3509.0964L13434.7064,-3509.1014L13434.7244,-3509.1021L13434.7398,-3509.0933L13434.7625,-3509.0817L13434.7779,-3509.0687L13434.7997,-3509.0529L13434.8171,-3509.0458L13434.8421,-3509.0391L13434.8721,-3509.0336L13434.8741,-3509.0333L13434.9359,-3509.0262L13434.9551,-3509.0223L13434.9723,-3509.0248L13434.9791,-3509.0325L13434.9783,-3509.0413L13434.9735,-3509.0527L13434.9723,-3509.0661L13434.9778,-3509.0766L13434.9928,-3509.0847L13435,-3509.0868L13435.003,-3509.0877L13435.0108,-3509.09L13435.0228,-3509.0935L13435.0347,-3509.1037L13435.036,-3509.1125L13435.0309,-3509.1231L13435.0193,-3509.1346L13435.0151,-3509.1431L13435.0128,-3509.1667L13435.0125,-3509.1693L13435.0103,-3509.1817L13435.0086,-3509.1915L13435.0048,-3509.2098L13435.0061,-3509.2231L13435.0168,-3509.2305L13435.0413,-3509.2406L13435.0527,-3509.2465L13435.0596,-3509.2553L13435.066,-3509.269L13435.0656,-3509.2845L13435.057,-3509.3088L13435.042,-3509.3464L13435.0283,-3509.3742L13435.0108,-3509.3876L13435,-3509.3983L13434.9988,-3509.3995L13434.9954,-3509.4108L13435,-3509.425L13435.0001,-3509.4252L13435.0095,-3509.4389L13435.0343,-3509.4678L13435.0715,-3509.5073L13435.0883,-3509.5362L13435.1039,-3509.5648L13435.115,-3509.5807L13435.1193,-3509.5937L13435.1197,-3509.6081L13435.1154,-3509.6197L13435.1171,-3509.6303L13435.1241,-3509.6381L13435.1364,-3509.6403L13435.1567,-3509.6403L13435.1839,-3509.6336L13435.207,-3509.6324L13435.221,-3509.6326L13435.2338,-3509.6371L13435.2535,-3509.648L13435.2847,-3509.6646L13435.3079,-3509.6772L13435.3164,-3509.6881L13435.3194,-3509.7124L13435.3211,-3509.7296L13435.3267,-3509.743L13435.3305,-3509.7655L13435.3356,-3509.7698L13435.3417,-3509.775L13435.3537,-3509.7811L13435.3863,-3509.7856L13435.3977,-3509.7884L13435.4166,-3509.7982L13435.423,-3509.8109L13435.4247,-3509.8271L13435.4273,-3509.8453L13435.4376,-3509.8559L13435.4915,-3509.8848L13435.5044,-3509.8999L13435.5078,-3509.9182L13435.5074,-3509.9315L13435.5031,-3509.9428L13435.4885,-3509.9526L13435.4337,-3509.985L13435.4123,-3510L13435.4102,-3510.0015L13435.3952,-3510.018L13435.3886,-3510.0349L13435.3894,-3510.0564L13435.3993,-3510.0817L13435.4018,-3510.0958L13435.4027,-3510.1137L13435.3924,-3510.1391L13435.3766,-3510.157L13435.3525,-3510.1811L13435.3496,-3510.1841L13435.3329,-3510.2055L13435.329,-3510.2245L13435.3295,-3510.2389L13435.3363,-3510.2608L13435.3449,-3510.2766L13435.3577,-3510.2907L13435.3731,-3510.3146L13435.3761,-3510.3311L13435.3697,-3510.3444L13435.3522,-3510.3671L13435.3487,-3510.3765L13435.347,-3510.3812L13435.3462,-3510.3953L13435.3462,-3510.4215L13435.3492,-3510.4524L13435.3526,-3510.4832L13435.35,-3510.504L13435.3456,-3510.5184L13435.3414,-3510.5325L13435.3292,-3510.5547L13435.3086,-3510.5771L13435.3075,-3510.5783L13435.2736,-3510.6019L13435.255,-3510.6211L13435.243,-3510.6397L13435.2396,-3510.6633L13435.2349,-3510.7463L13435.2437,-3510.7889L13435.2477,-3510.8159L13435.2488,-3510.8333L13435.2498,-3510.8506L13435.2494,-3510.8724L13435.2455,-3510.8974L13435.2361,-3510.9683L13435.2314,-3510.9893L13435.2288,-3511.0194L13435.2293,-3511.0847L13435.2284,-3511.11L13435.2318,-3511.1316L13435.2421,-3511.1612L13435.2537,-3511.1956L13435.2567,-3511.2192L13435.2601,-3511.2424L13435.2871,-3511.3052L13435.2892,-3511.326L13435.2952,-3511.3466L13435.3106,-3511.3779L13435.3114,-3511.3793L13435.3294,-3511.4101L13435.3457,-3511.4347L13435.3641,-3511.4512L13435.3812,-3511.4678L13435.4125,-3511.4867L13435.4338,-3511.496L13435.4583,-3511.5003L13435.5041,-3511.514L13435.5383,-3511.5266L13435.5634,-3511.5456L13435.5792,-3511.5793L13435.62,-3511.6244L13435.6391,-3511.6667L13435.6403,-3511.6694L13435.6512,-3511.6897L13435.6648,-3511.7066L13435.6811,-3511.7167L13435.7096,-3511.7212L13435.7436,-3511.7201L13435.7599,-3511.7246L13435.7694,-3511.7404L13435.7824,-3511.7606L13435.7898,-3511.7832L13435.8162,-3511.8207L13435.8286,-3511.8358L13435.8333,-3511.8397L13435.8767,-3511.8755L13435.9745,-3511.9464L13436.0017,-3511.9779L13436.0328,-3511.9967L13436.0368,-3511.9988L13436.0675,-3512.0145L13436.0747,-3512.0219L13436.073,-3512.0349L13436.0632,-3512.0525L13436.0616,-3512.055L13436.0506,-3512.0726L13436.0324,-3512.0999L13436.0272,-3512.1154L13436.0248,-3512.1266L13436.0332,-3512.1466L13436.0405,-3512.1628L13436.0425,-3512.1795L13436.0411,-3512.1953L13436.0262,-3512.2336L13436.0262,-3512.2583L13436.0221,-3512.2797L13436.0153,-3512.2955L13436.0044,-3512.309L13435.9827,-3512.3291L13435.9555,-3512.345L13435.9148,-3512.3694L13435.8577,-3512.3912L13435.8337,-3512.4012L13435.8333,-3512.4014L13435.7502,-3512.4311L13435.716,-3512.4359L13435.6847,-3512.4404L13435.6623,-3512.4389L13435.6458,-3512.4364L13435.6344,-3512.4336L13435.6252,-3512.4334L13435.6211,-3512.4366L13435.6209,-3512.4417L13435.6284,-3512.4612L13435.643,-3512.4824L13435.6536,-3512.4941L13435.6594,-3512.5L13435.6924,-3512.5339L13435.7014,-3512.5432L13435.7205,-3512.5713L13435.7327,-3512.586L13435.7472,-3512.5987L13435.7627,-3512.6051L13435.7669,-3512.6068L13435.787,-3512.6074L13435.8047,-3512.6198L13435.8264,-3512.6502L13435.8333,-3512.6569L13435.8495,-3512.6727L13435.8726,-3512.6896L13435.9025,-3512.7042L13435.9283,-3512.729L13435.946,-3512.7605L13435.9609,-3512.7977L13435.9718,-3512.8236L13435.9721,-3512.8241L13435.9867,-3512.8461L13436.0234,-3512.8821L13436.0424,-3512.908L13436.052,-3512.9305L13436.0584,-3512.9628L13436.0614,-3512.9846L13436.0601,-3513.0319L13436.0574,-3513.0814L13436.0533,-3513.1174L13436.0492,-3513.149L13436.0506,-3513.1636L13436.0642,-3513.1816L13436.0832,-3513.1997L13436.0941,-3513.2132L13436.1009,-3513.2278L13436.1009,-3513.2413L13436.1,-3513.2558L13436.0886,-3513.2729L13436.0169,-3513.3219L13436.0045,-3513.3328L13436.0043,-3513.3333L13436.0028,-3513.3388L13436.0113,-3513.3669L13436.0221,-3513.4023L13436.0302,-3513.4147L13436.0385,-3513.4198L13436.0487,-3513.4188L13436.0577,-3513.4093L13436.0624,-3513.3969L13436.071,-3513.3896L13436.0845,-3513.3888L13436.1053,-3513.3987L13436.1267,-3513.4125L13436.1715,-3513.4373L13436.2082,-3513.4463L13436.2421,-3513.4508L13436.2666,-3513.4744L13436.3046,-3513.5206L13436.3196,-3513.5363L13436.3237,-3513.5454L13436.3294,-3513.5526L13436.3298,-3513.5632L13436.3277,-3513.5791L13436.3168,-3513.6107L13436.3097,-3513.6261L13436.306,-3513.6343L13436.2463,-3513.6869L13436.2299,-3513.7064L13436.1973,-3513.7334L13436.1837,-3513.748L13436.1796,-3513.7672L13436.1868,-3513.7874L13436.1936,-3513.8071L13436.2056,-3513.8307L13436.2204,-3513.8584L13436.2473,-3513.8848L13436.2557,-3513.8922L13436.2693,-3513.9091L13436.272,-3513.9271L13436.2693,-3513.9383L13436.2532,-3513.9573L13436.2429,-3513.9819L13436.2421,-3513.9958L13436.2476,-3514.0093L13436.2808,-3514.048L13436.3047,-3514.0853L13436.3232,-3514.1061L13436.3364,-3514.1303L13436.3454,-3514.1399L13436.375,-3514.1667L13436.4038,-3514.1928L13436.4119,-3514.2108L13436.4228,-3514.2401L13436.4323,-3514.257L13436.4524,-3514.2742L13436.479,-3514.2851L13436.5017,-3514.3006L13436.5184,-3514.3174L13436.5274,-3514.3358L13436.541,-3514.3662L13436.5493,-3514.3792L13436.5532,-3514.3854L13436.5722,-3514.3944L13436.5967,-3514.3978L13436.613,-3514.4101L13436.632,-3514.4439L13436.6667,-3514.5079L13436.6741,-3514.5216L13436.685,-3514.5396L13436.6931,-3514.5948L13436.7013,-3514.6184L13436.7217,-3514.6714L13436.7298,-3514.6849L13436.7393,-3514.6961L13436.7556,-3514.7051L13436.7801,-3514.7108L13436.8426,-3514.7085L13436.8684,-3514.713L13436.9132,-3514.7266L13436.9349,-3514.7284L13436.9593,-3514.7221L13436.9854,-3514.7165L13437.0083,-3514.7175L13437.0254,-3514.7169L13437.0374,-3514.7221L13437.0464,-3514.7299L13437.0654,-3514.7389L13437.0939,-3514.7423L13437.1129,-3514.7502L13437.136,-3514.7739L13437.1483,-3514.7964L13437.1551,-3514.8223L13437.1537,-3514.8482L13437.1578,-3514.8673L13437.1673,-3514.8853L13437.1822,-3514.8999L13437.1982,-3514.9064L13437.2284,-3514.9247L13437.3579,-3514.9901L13437.3742,-3515L13437.3996,-3515.0156L13437.4326,-3515.0482L13437.4716,-3515.0869L13437.4936,-3515.0976L13437.5,-3515.0975L13437.5048,-3515.0974L13437.5343,-3515.0968L13437.5741,-3515.0809L13437.5925,-3515.0655L13437.64,-3515.0044L13437.6445,-3515L13437.7118,-3514.9335L13437.7293,-3514.92L13437.7564,-3514.912L13437.8175,-3514.9168L13437.8495,-3514.9168L13437.896,-3514.9072L13437.9261,-3514.9088L13437.9532,-3514.9152L13437.9745,-3514.9534L13437.9876,-3515L13437.9946,-3515.0249L13437.993,-3515.0287L13437.9824,-3515.0531L13437.9919,-3515.0756L13438.0354,-3515.1026L13438.1461,-3515.1661L13438.1617,-3515.173L13438.1777,-3515.1751L13438.1941,-3515.1749L13438.2169,-3515.1677L13438.2273,-3515.1843L13438.2374,-3515.1944L13438.3085,-3515.249L13438.3333,-3515.2531L13438.3356,-3515.2535L13438.4147,-3515.233L13438.5802,-3515.2096L13438.6793,-3515.186L13438.7541,-3515.1657L13438.7907,-3515.1342L13438.8257,-3515.1263L13438.8587,-3515.1414L13438.9016,-3515.1723L13438.9144,-3515.1815L13439.0122,-3515.186L13439.1087,-3515.2276L13439.1535,-3515.2558L13439.1667,-3515.2544L13439.2064,-3515.2502L13439.2273,-3515.2448L13439.2882,-3515.2291L13439.3173,-3515.2251L13439.3503,-3515.233L13439.4007,-3515.2626L13439.432,-3515.2738L13439.4673,-3515.2704L13439.5441,-3515.2323Z"/>
</g>
</svg>
