<?xml version="1.0" encoding="UTF-8"?>
<svg  xmlns="http://www.w3.org/2000/svg" xmlns:xlink="http://www.w3.org/1999/xlink" xmlns:go="http://purl.org/svgmap/profile" property="geometry,N03_001,N03_002,N03_003,N03_004,N03_005,N03_007" viewBox="13508.7890625 -3405.76171875 4.39453125 4.39453125" go:dataArea="13508.7890625 -3405.76171875 4.39453125 4.39453125" >
<metadata>
 <rdf:RDF xmlns:rdf="http://www.w3.org/1999/02/22-rdf-syntax-ns#" xmlns:crs="http://opengis.org/xmldtds/transformations.dtd" xmlns:svg="http://www.w3.org/svg" >
  <rdf:Description>
   <crs:CoordinateReferenceSystem rdf:resource="http://purl.org/crs/84" svg:transform="matrix(100.0,0.0,0.0,-100.0,0.0,0.0)" />
  </rdf:Description>
 </rdf:RDF>
</metadata>
<globalCoordinateSystem srsName="http://purl.org/crs/84" transform="matrix(100.0,0.0,0.0,-100.0,0.0,0.0)" />
<defs>
 <g id="p0" >
  <circle cx="0.0" cy="0.0" r="3" stroke="green" stroke-width="2.0" vector-effect="non-scaling-stroke" />
 </g>
</defs>
<g fill="#0000ff" fill-rule="evenodd" opacity="0.5" >
<path content="和歌山県,,有田郡,湯浅町,,30361" xlink:title="和歌山県" d="M13513.1836,-3403.0993L13513.1774,-3403.0976L13513.1696,-3403.0984L13513.1645,-3403.0953L13513.1613,-3403.0945L13513.1505,-3403.0967L13513.1446,-3403.0897L13513.137,-3403.0859L13513.1258,-3403.086L13513.1215,-3403.0812L13513.1124,-3403.0786L13513.0978,-3403.0826L13513.0883,-3403.0771L13513.0809,-3403.0763L13513.0738,-3403.078L13513.0671,-3403.0819L13513.0649,-3403.0825L13513.0565,-3403.081L13513.051,-3403.0825L13513.0496,-3403.0855L13513.0387,-3403.0881L13513.0333,-3403.0908L13513.0271,-3403.0997L13513.0171,-3403.0961L13513.0106,-3403.0978L13513.0079,-3403.0942L13512.9999,-3403.0882L13512.9925,-3403.0884L13512.9877,-3403.0941L13512.9807,-3403.0887L13512.9744,-3403.087L13512.9691,-3403.0899L13512.9634,-3403.0857L13512.958,-3403.0835L13512.9523,-3403.0843L13512.9477,-3403.0877L13512.9436,-3403.0931L13512.9399,-3403.0959L13512.9331,-3403.0937L13512.9239,-3403.0951L13512.9138,-3403.1045L13512.9021,-3403.1042L13512.8956,-3403.1107L13512.8843,-3403.1124L13512.88,-3403.1163L13512.877,-3403.1247L13512.8755,-3403.1265L13512.868,-3403.1265L13512.8624,-3403.1288L13512.8565,-3403.1348L13512.8562,-3403.1386L13512.8461,-3403.1456L13512.8431,-3403.151L13512.8437,-3403.1572L13512.8405,-3403.1634L13512.8452,-3403.1687L13512.8514,-3403.172L13512.8672,-3403.1702L13512.8741,-3403.1727L13512.8829,-3403.1717L13512.8865,-3403.1674L13512.9011,-3403.168L13512.9101,-3403.1651L13512.9161,-3403.1685L13512.9227,-3403.1692L13512.9355,-3403.1663L13512.9444,-3403.1702L13512.9581,-3403.1697L13512.967,-3403.1651L13512.9775,-3403.1648L13512.9816,-3403.1631L13512.9922,-3403.1525L13513.0016,-3403.1498L13513.009,-3403.1415L13513.0183,-3403.1434L13513.0237,-3403.141L13513.0254,-3403.1409L13513.0305,-3403.1478L13513.0357,-3403.1506L13513.0454,-3403.1495L13513.0531,-3403.1521L13513.0624,-3403.1523L13513.0657,-3403.1507L13513.0711,-3403.1462L13513.0769,-3403.1478L13513.0838,-3403.1472L13513.0927,-3403.14L13513.1017,-3403.1477L13513.1098,-3403.1483L13513.1104,-3403.1542L13513.1201,-3403.1701L13513.1244,-3403.1733L13513.1318,-3403.1747L13513.1418,-3403.1854L13513.1446,-3403.1861L13513.1548,-3403.1872L13513.1584,-3403.193L13513.1638,-3403.1967L13513.1753,-3403.1969L13513.1836,-3403.2009Z"/>
<path content="和歌山県,,有田郡,湯浅町,,30361" xlink:title="和歌山県" d="M13512.8803,-3403.2039L13512.8712,-3403.2004L13512.8667,-3403.2012L13512.86,-3403.2097L13512.856,-3403.2105L13512.8535,-3403.215L13512.8532,-3403.2197L13512.8607,-3403.2271L13512.8593,-3403.2317L13512.8641,-3403.2384L13512.8677,-3403.2404L13512.8763,-3403.2407L13512.8798,-3403.2431L13512.8871,-3403.2429L13512.8935,-3403.2397L13512.8951,-3403.2373L13512.8955,-3403.229L13512.893,-3403.2258L13512.8945,-3403.2164L13512.889,-3403.2097L13512.8803,-3403.2039Z"/>
<path content="和歌山県,,有田郡,湯浅町,,30361" xlink:title="和歌山県" d="M13512.8925,-3403.2825L13512.889,-3403.2825L13512.8865,-3403.2836L13512.8755,-3403.2926L13512.8735,-3403.2982L13512.8762,-3403.3024L13512.8742,-3403.3103L13512.8822,-3403.3175L13512.8875,-3403.3174L13512.8929,-3403.3143L13512.8967,-3403.31L13512.8964,-3403.2997L13512.9006,-3403.2914L13512.9005,-3403.2886L13512.896,-3403.2842L13512.8925,-3403.2825Z"/>
<path content="和歌山県,,有田郡,湯浅町,,30361" xlink:title="和歌山県" d="M13512.8502,-3403.3419L13512.8375,-3403.3411L13512.8328,-3403.3442L13512.8309,-3403.3489L13512.8312,-3403.3525L13512.8354,-3403.3564L13512.8417,-3403.3579L13512.8494,-3403.3637L13512.8545,-3403.3635L13512.8599,-3403.3591L13512.8606,-3403.357L13512.8606,-3403.3509L13512.8575,-3403.3481L13512.8539,-3403.3474L13512.8502,-3403.3419Z"/>
<path content="和歌山県,,有田郡,湯浅町,,30361" xlink:title="和歌山県" d="M13512.8293,-3403.366L13512.824,-3403.366L13512.8199,-3403.3697L13512.8206,-3403.3749L13512.8231,-3403.3782L13512.8327,-3403.3784L13512.8362,-3403.3795L13512.8401,-3403.3777L13512.841,-3403.3745L13512.8383,-3403.3726L13512.8361,-3403.3686L13512.8293,-3403.366Z"/>
<path content="和歌山県,,有田郡,広川町,,30362" xlink:title="和歌山県" d="M13512.1344,-3401.9643L13512.1473,-3401.9581L13512.1506,-3401.9581L13512.1601,-3401.9614L13512.1723,-3401.9541L13512.1899,-3401.953L13512.196,-3401.9558L13512.2041,-3401.9564L13512.2136,-3401.9496L13512.2163,-3401.9496L13512.2198,-3401.9514L13512.222,-3401.9513L13512.2298,-3401.9439L13512.2413,-3401.9411L13512.2501,-3401.9331L13512.263,-3401.9348L13512.2738,-3401.9303L13512.2826,-3401.9314L13512.2968,-3401.9275L13512.3023,-3401.9303L13512.3131,-3401.9303L13512.3198,-3401.9275L13512.3253,-3401.9224L13512.3374,-3401.9241L13512.3435,-3401.9213L13512.3517,-3401.914L13512.3604,-3401.914L13512.3713,-3401.905L13512.3794,-3401.9061L13512.3855,-3401.9044L13512.3923,-3401.8976L13512.4031,-3401.8954L13512.4092,-3401.8903L13512.4119,-3401.883L13512.4213,-3401.8807L13512.4308,-3401.8723L13512.4444,-3401.8728L13512.4538,-3401.8672L13512.464,-3401.8683L13512.4721,-3401.8661L13512.4769,-3401.8621L13512.4911,-3401.861L13512.4999,-3401.8542L13512.5,-3401.8539L13512.5033,-3401.8468L13512.5134,-3401.8458L13512.5236,-3401.8379L13512.5405,-3401.8401L13512.5499,-3401.8356L13512.554,-3401.8379L13512.5601,-3401.8384L13512.5696,-3401.8356L13512.5797,-3401.8412L13512.5953,-3401.8418L13512.6014,-3401.8396L13512.6109,-3401.8396L13512.6176,-3401.8345L13512.6204,-3401.83L13512.6332,-3401.8311L13512.6373,-3401.8306L13512.6481,-3401.8232L13512.6603,-3401.8272L13512.6724,-3401.8266L13512.6772,-3401.8322L13512.6813,-3401.8345L13512.6867,-3401.8356L13512.6948,-3401.8351L13512.7009,-3401.8412L13512.7063,-3401.8424L13512.7191,-3401.8412L13512.7259,-3401.8458L13512.7374,-3401.8463L13512.7462,-3401.8424L13512.751,-3401.8446L13512.7571,-3401.8446L13512.7645,-3401.8424L13512.7692,-3401.839L13512.7774,-3401.8401L13512.7821,-3401.8396L13512.7916,-3401.8328L13512.7929,-3401.8283L13512.8017,-3401.8249L13512.8058,-3401.8215L13512.8078,-3401.8125L13512.8105,-3401.8102L13512.818,-3401.8097L13512.8227,-3401.8063L13512.8261,-3401.799L13512.8363,-3401.7973L13512.8464,-3401.7894L13512.8579,-3401.7877L13512.8647,-3401.7827L13512.866,-3401.7747L13512.8728,-3401.7691L13512.8741,-3401.7652L13512.8741,-3401.7618L13512.8701,-3401.7573L13512.8654,-3401.7556L13512.8552,-3401.7556L13512.8491,-3401.7573L13512.8437,-3401.7516L13512.8342,-3401.7511L13512.8241,-3401.7545L13512.8193,-3401.75L13512.8139,-3401.7471L13512.8085,-3401.7466L13512.7997,-3401.75L13512.7977,-3401.75L13512.7909,-3401.7443L13512.7848,-3401.7426L13512.7814,-3401.7426L13512.7753,-3401.746L13512.7726,-3401.7454L13512.7665,-3401.7404L13512.7638,-3401.7392L13512.7611,-3401.7392L13512.7566,-3401.741L13512.751,-3401.7454L13512.7435,-3401.7426L13512.7394,-3401.7426L13512.732,-3401.7483L13512.7311,-3401.7521L13512.6912,-3401.7461L13512.6681,-3401.7421L13512.6559,-3401.7428L13512.6269,-3401.7454L13512.5877,-3401.7432L13512.5644,-3401.739L13512.5467,-3401.7322L13512.5247,-3401.7192L13512.5064,-3401.7053L13512.5,-3401.6978L13512.4953,-3401.6923L13512.4871,-3401.6778L13512.4822,-3401.6667L13512.4784,-3401.6579L13512.4773,-3401.642L13512.4773,-3401.6323L13512.4769,-3401.6265L13512.485,-3401.6203L13512.4958,-3401.6209L13512.5,-3401.6198L13512.5005,-3401.6197L13512.5121,-3401.6113L13512.5154,-3401.6068L13512.5242,-3401.6051L13512.531,-3401.6L13512.533,-3401.5955L13512.5411,-3401.5933L13512.5473,-3401.5882L13512.5499,-3401.5831L13512.5608,-3401.5758L13512.5628,-3401.5701L13512.5628,-3401.5668L13512.5601,-3401.5606L13512.5635,-3401.5538L13512.5621,-3401.5476L13512.5601,-3401.5442L13512.552,-3401.5391L13512.5513,-3401.5318L13512.5499,-3401.5301L13512.5425,-3401.5267L13512.5296,-3401.5245L13512.5249,-3401.5177L13512.5181,-3401.5149L13512.5053,-3401.5143L13512.5,-3401.5099L13512.4999,-3401.5098L13512.4965,-3401.5087L13512.4856,-3401.5093L13512.4782,-3401.5042L13512.4694,-3401.5042L13512.4606,-3401.5109L13512.4559,-3401.5121L13512.4511,-3401.5155L13512.4477,-3401.5222L13512.4389,-3401.5251L13512.4329,-3401.5312L13512.4308,-3401.5357L13512.4227,-3401.5357L13512.418,-3401.5374L13512.4126,-3401.542L13512.4099,-3401.542L13512.4038,-3401.5386L13512.3916,-3401.5414L13512.3869,-3401.538L13512.3781,-3401.5369L13512.3706,-3401.5397L13512.3679,-3401.5397L13512.3625,-3401.5363L13512.3544,-3401.5352L13512.3476,-3401.5397L13512.3395,-3401.5397L13512.3347,-3401.5408L13512.3246,-3401.5482L13512.3151,-3401.5442L13512.3124,-3401.5442L13512.3056,-3401.547L13512.3029,-3401.547L13512.2982,-3401.5425L13512.2934,-3401.5408L13512.2901,-3401.5408L13512.2799,-3401.5437L13512.2752,-3401.5408L13512.2711,-3401.5408L13512.2668,-3401.5421L13512.2603,-3401.5453L13512.2535,-3401.5437L13512.2481,-3401.5442L13512.2406,-3401.5504L13512.2291,-3401.5521L13512.2244,-3401.5566L13512.2237,-3401.5594L13512.2252,-3401.5652L13512.2216,-3401.5666L13512.2195,-3401.5706L13512.2192,-3401.5743L13512.2221,-3401.58L13512.2143,-3401.5815L13512.2082,-3401.5854L13512.2068,-3401.5917L13512.1987,-3401.5962L13512.1973,-3401.6001L13512.198,-3401.6048L13512.2082,-3401.6108L13512.2068,-3401.6181L13512.2115,-3401.6228L13512.1987,-3401.642L13512.177,-3401.664L13512.1722,-3401.6667L13512.1446,-3401.682L13512.108,-3401.6995L13512.0653,-3401.7141L13512.0633,-3401.7123L13512.0539,-3401.7128L13512.0491,-3401.7168L13512.0417,-3401.7174L13512.0356,-3401.7224L13512.0356,-3401.7258L13512.0214,-3401.7297L13512.0153,-3401.736L13512.0099,-3401.7467L13512.0099,-3401.7501L13511.9984,-3401.7517L13511.9896,-3401.7596L13511.9896,-3401.7624L13511.9923,-3401.7681L13511.9794,-3401.7715L13511.9726,-3401.7771L13511.9713,-3401.785L13511.9699,-3401.7861L13511.9659,-3401.7867L13511.9584,-3401.7917L13511.9516,-3401.7917L13511.9489,-3401.7957L13511.9415,-3401.7946L13511.932,-3401.7974L13511.9205,-3401.8081L13511.9083,-3401.8087L13511.9016,-3401.8154L13511.9016,-3401.8177L13511.9043,-3401.8211L13511.9043,-3401.8227L13511.9016,-3401.8267L13511.8988,-3401.8284L13511.8941,-3401.8284L13511.8806,-3401.834L13511.8731,-3401.8397L13511.8711,-3401.8447L13511.8704,-3401.8492L13511.8752,-3401.8537L13511.8853,-3401.8583L13511.884,-3401.8645L13511.886,-3401.8662L13511.8927,-3401.8679L13511.8874,-3401.8763L13511.8874,-3401.8808L13511.8901,-3401.8836L13511.8982,-3401.8836L13511.9002,-3401.8853L13511.8988,-3401.8882L13511.9002,-3401.8915L13511.9049,-3401.8955L13511.9171,-3401.8961L13511.9171,-3401.9017L13511.9212,-3401.9079L13511.9259,-3401.9118L13511.9388,-3401.9107L13511.9435,-3401.9175L13511.9469,-3401.9192L13511.9516,-3401.9192L13511.9631,-3401.9146L13511.9686,-3401.9197L13511.9801,-3401.9175L13511.9896,-3401.9231L13511.999,-3401.9197L13512.0037,-3401.9242L13512.0105,-3401.9254L13512.0214,-3401.922L13512.0241,-3401.9226L13512.0234,-3401.9276L13512.0274,-3401.9338L13512.0302,-3401.9361L13512.0369,-3401.9349L13512.0423,-3401.9406L13512.0471,-3401.9417L13512.0545,-3401.9389L13512.0606,-3401.9316L13512.062,-3401.9316L13512.0667,-3401.9361L13512.0721,-3401.9355L13512.0796,-3401.9457L13512.0836,-3401.9462L13512.0891,-3401.9457L13512.0924,-3401.9468L13512.1006,-3401.9519L13512.1039,-3401.9581L13512.1094,-3401.9603L13512.1243,-3401.9581L13512.1269,-3401.9597L13512.1276,-3401.9637L13512.1344,-3401.9643Z"/>
<path content="和歌山県,,有田郡,広川町,,30362" xlink:title="和歌山県" d="M13511.773,-3401.887L13511.7818,-3401.8808L13511.7831,-3401.8808L13511.7906,-3401.8861L13511.8027,-3401.8853L13511.8063,-3401.8797L13511.8007,-3401.8696L13511.7953,-3401.8647L13511.7879,-3401.8656L13511.7811,-3401.8656L13511.7764,-3401.8679L13511.7628,-3401.8679L13511.7594,-3401.8707L13511.7574,-3401.8752L13511.7527,-3401.8735L13511.7439,-3401.8741L13511.7418,-3401.8763L13511.7418,-3401.8797L13511.7432,-3401.8825L13511.7486,-3401.8865L13511.7513,-3401.8876L13511.7682,-3401.8882L13511.773,-3401.887Z"/>
<path content="和歌山県,,有田郡,広川町,,30362" xlink:title="和歌山県" d="M13512.8389,-3401.8153L13512.8349,-3401.8153L13512.8308,-3401.8176L13512.8288,-3401.821L13512.8329,-3401.8249L13512.8376,-3401.826L13512.841,-3401.8255L13512.843,-3401.8232L13512.8437,-3401.8204L13512.8389,-3401.8153Z"/>
<path content="和歌山県,,有田郡,広川町,,30362" xlink:title="和歌山県" d="M13512.7733,-3401.852L13512.7706,-3401.852L13512.7652,-3401.8554L13512.7652,-3401.8578L13512.7679,-3401.8599L13512.776,-3401.8599L13512.7781,-3401.8584L13512.778,-3401.8554L13512.776,-3401.8531L13512.7733,-3401.852Z"/>
<path content="和歌山県,,有田郡,広川町,,30362" xlink:title="和歌山県" d="M13512.6285,-3401.8587L13512.6224,-3401.8554L13512.6197,-3401.8559L13512.617,-3401.8582L13512.6176,-3401.861L13512.6204,-3401.8632L13512.6244,-3401.8638L13512.6291,-3401.8621L13512.6285,-3401.8587Z"/>
<path content="和歌山県,,有田郡,広川町,,30362" xlink:title="和歌山県" d="M13512.7422,-3401.8571L13512.7388,-3401.8565L13512.7361,-3401.8582L13512.7354,-3401.8621L13512.7401,-3401.8649L13512.7436,-3401.8646L13512.7456,-3401.8629L13512.7456,-3401.8599L13512.7422,-3401.8571Z"/>
</g>
</svg>
