<?xml version="1.0" encoding="UTF-8"?>
<svg  xmlns="http://www.w3.org/2000/svg" xmlns:xlink="http://www.w3.org/1999/xlink" xmlns:go="http://purl.org/svgmap/profile" property="geometry,N03_001,N03_002,N03_003,N03_004,N03_005,N03_007" viewBox="13543.9453125 -3462.890625 8.7890625 8.7890625" go:dataArea="13543.9453125 -3462.890625 8.7890625 8.7890625" >
<metadata>
 <rdf:RDF xmlns:rdf="http://www.w3.org/1999/02/22-rdf-syntax-ns#" xmlns:crs="http://opengis.org/xmldtds/transformations.dtd" xmlns:svg="http://www.w3.org/svg" >
  <rdf:Description>
   <crs:CoordinateReferenceSystem rdf:resource="http://purl.org/crs/84" svg:transform="matrix(100.0,0.0,0.0,-100.0,0.0,0.0)" />
  </rdf:Description>
 </rdf:RDF>
</metadata>
<globalCoordinateSystem srsName="http://purl.org/crs/84" transform="matrix(100.0,0.0,0.0,-100.0,0.0,0.0)" />
<defs>
 <g id="p0" >
  <circle cx="0.0" cy="0.0" r="3" stroke="green" stroke-width="2.0" vector-effect="non-scaling-stroke" />
 </g>
</defs>
<g fill="#0000ff" fill-rule="evenodd" opacity="0.5" >
<path content="大阪府,,,大阪市,大正区,27108" xlink:title="大阪府" d="M13547.3088,-3462.8906L13547.3022,-3462.8845L13547.2748,-3462.8602L13547.2672,-3462.8546L13547.2436,-3462.8372L13547.2268,-3462.8249L13547.2261,-3462.8244L13547.1884,-3462.8023L13547.1707,-3462.7933L13547.1572,-3462.7864L13547.1483,-3462.7819L13547.1379,-3462.7774L13547.1264,-3462.7723L13547.1208,-3462.7701L13547.0605,-3462.7462L13547.0106,-3462.7297L13546.968,-3462.7156L13546.9538,-3462.7136L13546.9481,-3462.7128L13546.8871,-3462.6964L13546.8082,-3462.6781L13546.7496,-3462.6646L13546.6667,-3462.6495L13546.6502,-3462.6465L13546.5433,-3462.6249L13546.4113,-3462.596L13546.3782,-3462.5899L13546.3256,-3462.5802L13546.3137,-3462.5778L13546.2453,-3462.564L13546.2385,-3462.5626L13546.2051,-3462.5558L13546.1988,-3462.5545L13546.0736,-3462.5291L13545.9619,-3462.5099L13545.9081,-3462.5L13545.8693,-3462.4929L13545.8333,-3462.4875L13545.7737,-3462.4787L13545.6804,-3462.4691L13545.5961,-3462.4611L13545.5934,-3462.4612L13545.5769,-3462.4617L13545.5549,-3462.4617L13545.5221,-3462.4636L13545.4881,-3462.4657L13545.4566,-3462.4668L13545.4134,-3462.4708L13545.4126,-3462.4709L13545.3928,-3462.4753L13545.3695,-3462.481L13545.3277,-3462.4906L13545.3071,-3462.4951L13545.2921,-3462.4993L13545.2894,-3462.5L13545.2845,-3462.5014L13545.2406,-3462.5127L13545.2066,-3462.5223L13545.1525,-3462.5376L13545.1326,-3462.5444L13545.0661,-3462.5648L13545.0442,-3462.5716L13545.009,-3462.5858L13545,-3462.5895L13544.9852,-3462.5954L13544.9657,-3462.6022L13544.9432,-3462.6105L13544.8759,-3462.6351L13544.8583,-3462.643L13544.8502,-3462.6466L13544.8569,-3462.8472L13544.8487,-3462.8906Z"/>
<path content="大阪府,,,大阪市,阿倍野区,27119" xlink:title="大阪府" d="M13552.2787,-3462.8906L13552.254,-3462.8354L13552.2527,-3462.8325L13552.2483,-3462.8226L13552.2339,-3462.7904L13552.2306,-3462.7831L13552.1993,-3462.7129L13552.1958,-3462.705L13552.166,-3462.6383L13552.1526,-3462.6062L13552.1509,-3462.6022L13552.1497,-3462.5993L13552.1119,-3462.5089L13552.106,-3462.5L13552.1047,-3462.498L13552.0971,-3462.4865L13552.0922,-3462.4792L13552.0751,-3462.4534L13552.066,-3462.4357L13552.032,-3462.3699L13552.0299,-3462.366L13552.0276,-3462.3614L13551.9852,-3462.2795L13551.982,-3462.2732L13551.9801,-3462.2696L13551.9777,-3462.2649L13551.9045,-3462.1232L13551.8983,-3462.1112L13551.8934,-3462.0985L13551.8804,-3462.0735L13551.8553,-3462.0233L13551.828,-3461.9691L13551.8024,-3461.9194L13551.7841,-3461.89L13551.7584,-3461.8463L13551.6667,-3461.6919L13551.6517,-3461.6667L13551.6243,-3461.6206L13551.6194,-3461.6127L13551.5956,-3461.6142L13551.5566,-3461.6168L13551.5112,-3461.6186L13551.4529,-3461.6231L13551.4521,-3461.6232L13551.429,-3461.625L13551.3772,-3461.629L13551.3706,-3461.6295L13551.3299,-3461.6327L13551.3196,-3461.6335L13551.314,-3461.6339L13551.2045,-3461.6424L13551.1956,-3461.6432L13551.1874,-3461.6439L13551.1841,-3461.6441L13551.1231,-3461.6492L13551.0628,-3461.6542L13551.0486,-3461.6554L13550.9928,-3461.66L13550.9862,-3461.6606L13550.9815,-3461.6609L13550.899,-3461.6667L13550.8697,-3461.6687L13550.8703,-3461.6756L13550.8711,-3461.6852L13550.8719,-3461.6949L13550.873,-3461.7334L13550.8746,-3461.7851L13550.8748,-3461.7921L13550.8757,-3461.8207L13550.8759,-3461.8264L13550.8769,-3461.8614L13550.8769,-3461.9031L13550.8574,-3461.9312L13550.8733,-3462.0474L13550.8751,-3462.0609L13550.8758,-3462.0661L13550.8842,-3462.1268L13550.8849,-3462.1318L13550.8854,-3462.1354L13550.8938,-3462.1971L13550.8955,-3462.2093L13550.8985,-3462.2312L13550.8949,-3462.2348L13550.8811,-3462.2358L13550.8778,-3462.2361L13550.8725,-3462.2365L13550.8632,-3462.2372L13550.8333,-3462.2401L13550.7593,-3462.2473L13550.7495,-3462.2505L13550.7476,-3462.2511L13550.7366,-3462.2548L13550.6488,-3462.2836L13550.6451,-3462.2848L13550.6413,-3462.2861L13550.5207,-3462.3257L13550.5175,-3462.3267L13550.5136,-3462.3281L13550.5053,-3462.3308L13550.4197,-3462.356L13550.4147,-3462.3575L13550.3031,-3462.3904L13550.3022,-3462.3907L13550.2329,-3462.4111L13550.2274,-3462.4128L13550.2227,-3462.4142L13550.1474,-3462.4364L13550.1033,-3462.4483L13550.0982,-3462.4497L13550.0932,-3462.451L13550.0767,-3462.4555L13550,-3462.4789L13549.9799,-3462.4851L13549.9747,-3462.4867L13549.9734,-3462.4871L13549.9489,-3462.4912L13549.9237,-3462.4895L13549.9103,-3462.4859L13549.9043,-3462.4843L13549.8739,-3462.4763L13549.8416,-3462.4636L13549.8336,-3462.4605L13549.7996,-3462.4471L13549.7886,-3462.4413L13549.7805,-3462.4369L13549.7688,-3462.4307L13549.7446,-3462.4177L13549.7399,-3462.4152L13549.7192,-3462.4042L13549.7127,-3462.4029L13549.7026,-3462.4011L13549.6974,-3462.4001L13549.6944,-3462.3995L13549.687,-3462.3961L13549.6845,-3462.3949L13549.6744,-3462.3902L13549.6361,-3462.3725L13549.6349,-3462.3738L13549.5882,-3462.4254L13549.5817,-3462.4326L13549.5969,-3462.4717L13549.5994,-3462.4846L13549.6,-3462.4876L13549.6013,-3462.4942L13549.6022,-3462.4984L13549.6025,-3462.5L13549.6051,-3462.513L13549.6133,-3462.5469L13549.6257,-3462.5509L13549.6563,-3462.5605L13549.6747,-3462.5668L13549.6812,-3462.5689L13549.6872,-3462.571L13549.6967,-3462.5982L13549.7192,-3462.6013L13549.7278,-3462.6244L13549.7295,-3462.6291L13549.7313,-3462.6339L13549.743,-3462.6653L13549.7493,-3462.6824L13549.777,-3462.7569L13549.7777,-3462.7652L13549.7788,-3462.7772L13549.7797,-3462.7869L13549.7806,-3462.7969L13549.7871,-3462.813L13549.8117,-3462.8463L13549.8142,-3462.8497L13549.8144,-3462.8499L13549.8278,-3462.8681L13549.829,-3462.8697L13549.848,-3462.8906Z"/>
<path content="大阪府,,,大阪市,住吉区,27120" xlink:title="大阪府" d="M13550.4197,-3462.356L13550.5053,-3462.3308L13550.5136,-3462.3281L13550.5175,-3462.3267L13550.5207,-3462.3257L13550.6413,-3462.2861L13550.6451,-3462.2848L13550.6488,-3462.2836L13550.7366,-3462.2548L13550.7476,-3462.2511L13550.7495,-3462.2505L13550.7593,-3462.2473L13550.8333,-3462.2401L13550.8632,-3462.2372L13550.8725,-3462.2365L13550.8778,-3462.2361L13550.8811,-3462.2358L13550.8949,-3462.2348L13550.8985,-3462.2312L13550.8955,-3462.2093L13550.8938,-3462.1971L13550.8854,-3462.1354L13550.8849,-3462.1318L13550.8842,-3462.1268L13550.8758,-3462.0661L13550.8751,-3462.0609L13550.8733,-3462.0474L13550.8574,-3461.9312L13550.8769,-3461.9031L13550.8769,-3461.8614L13550.8759,-3461.8264L13550.8757,-3461.8207L13550.8748,-3461.7921L13550.8746,-3461.7851L13550.873,-3461.7334L13550.8719,-3461.6949L13550.8711,-3461.6852L13550.8703,-3461.6756L13550.8697,-3461.6687L13550.899,-3461.6667L13550.9815,-3461.6609L13550.9862,-3461.6606L13550.9928,-3461.66L13551.0486,-3461.6554L13551.0628,-3461.6542L13551.1231,-3461.6492L13551.1841,-3461.6441L13551.1874,-3461.6439L13551.1956,-3461.6432L13551.2045,-3461.6424L13551.314,-3461.6339L13551.3196,-3461.6335L13551.3299,-3461.6327L13551.3706,-3461.6295L13551.3772,-3461.629L13551.429,-3461.625L13551.4521,-3461.6232L13551.4529,-3461.6231L13551.5112,-3461.6186L13551.5566,-3461.6168L13551.5956,-3461.6142L13551.6194,-3461.6127L13551.5577,-3461.513L13551.5222,-3461.4563L13551.4792,-3461.3883L13551.44,-3461.325L13551.439,-3461.3146L13551.4343,-3461.2678L13551.4245,-3461.1703L13551.4214,-3461.1393L13551.4034,-3460.9894L13551.4015,-3460.9736L13551.399,-3460.9526L13551.4207,-3460.9519L13551.4336,-3460.9514L13551.4349,-3460.9514L13551.469,-3460.9508L13551.6667,-3460.9502L13551.9375,-3460.9493L13552.0418,-3460.9487L13552.3639,-3460.9469L13552.3645,-3460.9296L13552.3649,-3460.9177L13552.3668,-3460.8575L13552.3271,-3460.8539L13552.2911,-3460.8527L13552.2908,-3460.8333L13552.2906,-3460.8194L13552.2906,-3460.8142L13552.2903,-3460.7948L13552.2939,-3460.7817L13552.304,-3460.7656L13552.3055,-3460.74L13552.2925,-3460.7149L13552.2795,-3460.7036L13552.2795,-3460.6779L13552.2781,-3460.601L13552.2488,-3460.5657L13552.2488,-3460.5656L13552.2406,-3460.5557L13552.241,-3460.5432L13552.2427,-3460.4918L13552.2449,-3460.4244L13552.273,-3460.4232L13552.2737,-3460.4113L13552.2741,-3460.4042L13552.2788,-3460.3202L13552.279,-3460.316L13552.2795,-3460.3069L13552.2796,-3460.3007L13552.2806,-3460.2354L13552.281,-3460.2139L13552.2842,-3460.1376L13552.2846,-3460.128L13552.2904,-3460.1017L13552.2929,-3460.0762L13552.294,-3460.0647L13552.2944,-3460L13552.2947,-3459.9461L13552.2945,-3459.9406L13552.2925,-3459.887L13552.2878,-3459.8471L13552.2873,-3459.8424L13552.2853,-3459.8256L13552.281,-3459.8114L13552.2718,-3459.7813L13552.2706,-3459.7774L13552.2644,-3459.757L13552.2594,-3459.7403L13552.2543,-3459.7134L13552.2539,-3459.7002L13552.2508,-3459.6107L13552.2507,-3459.574L13552.2506,-3459.5345L13552.2504,-3459.5066L13552.2503,-3459.4575L13552.199,-3459.4335L13552.1187,-3459.396L13551.9517,-3459.3249L13551.8854,-3459.2967L13551.853,-3459.2794L13551.8416,-3459.2725L13551.8054,-3459.2502L13551.7577,-3459.2162L13551.6874,-3459.1667L13551.6667,-3459.152L13551.6646,-3459.1506L13551.612,-3459.122L13551.5228,-3459.0776L13551.5088,-3459.0707L13551.4787,-3459.0576L13551.4784,-3459.0575L13551.4164,-3459.0307L13551.3803,-3459.0182L13551.3125,-3458.9991L13551.2678,-3458.974L13551.2565,-3458.9683L13551.1617,-3458.9203L13551.0802,-3458.8876L13550.9986,-3458.8571L13550.8839,-3458.8094L13550.8333,-3458.7899L13550.8081,-3458.7802L13550.7814,-3458.7688L13550.7316,-3458.7402L13550.6667,-3458.6943L13550.6306,-3458.6758L13550.5876,-3458.6599L13550.5151,-3458.6431L13550.4447,-3458.6301L13550.4078,-3458.6233L13550.3333,-3458.6154L13550.2869,-3458.6159L13550.2778,-3458.6161L13550.2564,-3458.6164L13550.2226,-3458.6171L13550.1851,-3458.6289L13550.1617,-3458.6349L13550.1427,-3458.6397L13550.1227,-3458.648L13550.1105,-3458.6551L13550.1051,-3458.6599L13550.0806,-3458.6766L13550.0373,-3458.7034L13550.0363,-3458.7041L13550.0091,-3458.7231L13550,-3458.7323L13549.9767,-3458.7559L13549.948,-3458.7878L13549.9348,-3458.8025L13549.9022,-3458.8486L13549.8771,-3458.8842L13549.8597,-3458.917L13549.8504,-3458.9414L13549.8361,-3458.9849L13549.8302,-3459.0029L13549.8085,-3459.0751L13549.7776,-3459.1667L13549.7733,-3459.1796L13549.7711,-3459.1862L13549.7667,-3459.1991L13549.7471,-3459.2468L13549.7393,-3459.2659L13549.7292,-3459.2792L13549.7193,-3459.2921L13549.7093,-3459.3009L13549.669,-3459.3361L13549.6367,-3459.3611L13549.6336,-3459.3634L13549.622,-3459.3719L13549.6141,-3459.3778L13549.6082,-3459.3818L13549.5823,-3459.3994L13549.5251,-3459.4311L13549.4487,-3459.4609L13549.444,-3459.4627L13549.4311,-3459.4657L13549.4288,-3459.4663L13549.3942,-3459.4744L13549.3665,-3459.4781L13549.3377,-3459.4815L13549.3356,-3459.4817L13549.2498,-3459.4927L13549.1904,-3459.504L13549.1724,-3459.5081L13549.1667,-3459.5094L13549.0937,-3459.526L13548.9931,-3459.5477L13548.966,-3459.5535L13548.8768,-3459.5685L13548.8516,-3459.5739L13548.7206,-3459.5971L13548.6962,-3459.6014L13548.6974,-3459.6047L13548.6978,-3459.606L13548.7017,-3459.617L13548.7219,-3459.6738L13548.7294,-3459.6952L13548.7387,-3459.7214L13548.7392,-3459.7227L13548.7407,-3459.7269L13548.7673,-3459.8021L13548.7688,-3459.8063L13548.7719,-3459.8151L13548.7754,-3459.8243L13548.793,-3459.8705L13548.8089,-3459.9125L13548.8109,-3459.9176L13548.8225,-3459.9481L13548.8239,-3459.9517L13548.8253,-3459.9554L13548.839,-3459.9916L13548.8417,-3460L13548.844,-3460.0074L13548.8458,-3460.013L13548.8473,-3460.0179L13548.8549,-3460.0418L13548.8567,-3460.0478L13548.8592,-3460.0554L13548.8641,-3460.0711L13548.8657,-3460.0762L13548.8668,-3460.0797L13548.8767,-3460.1109L13548.9,-3460.1994L13548.9373,-3460.3477L13548.9385,-3460.3526L13548.9397,-3460.3575L13548.9516,-3460.4048L13548.9686,-3460.478L13548.9733,-3460.4984L13548.9782,-3460.5193L13548.9854,-3460.5503L13548.9861,-3460.5534L13549.0063,-3460.6402L13549.0075,-3460.6449L13549.0089,-3460.6499L13549.0099,-3460.6538L13549.0392,-3460.7617L13549.0413,-3460.7693L13549.0587,-3460.8333L13549.0684,-3460.8691L13549.0688,-3460.8706L13549.0693,-3460.8727L13549.0702,-3460.8767L13549.0797,-3460.9183L13549.0815,-3460.9263L13549.0851,-3460.9418L13549.0937,-3460.974L13549.0987,-3460.9925L13549.0843,-3460.9952L13549.0574,-3461.0003L13549.0533,-3461.0011L13549.0471,-3461.0023L13549.0179,-3461.0079L13549.005,-3461.0119L13549.0005,-3461.0133L13548.9963,-3461.0146L13548.9788,-3461.0201L13548.9768,-3461.0207L13548.9315,-3461.0319L13548.9275,-3461.0329L13548.9328,-3461.052L13548.9368,-3461.0662L13548.9379,-3461.0698L13548.9453,-3461.0939L13548.9531,-3461.1195L13548.9534,-3461.1206L13548.9558,-3461.1297L13548.9579,-3461.1376L13548.9663,-3461.1696L13548.9818,-3461.2273L13548.9833,-3461.2309L13548.9864,-3461.2387L13548.9939,-3461.2574L13549.0117,-3461.3017L13549.0164,-3461.312L13549.0234,-3461.3364L13549.028,-3461.364L13549.0334,-3461.3813L13549.0451,-3461.4281L13549.0545,-3461.4606L13549.0866,-3461.5706L13549.091,-3461.5898L13549.0967,-3461.6148L13549.1091,-3461.6667L13549.1122,-3461.6797L13549.1196,-3461.7034L13549.1289,-3461.7342L13549.1304,-3461.7611L13549.1281,-3461.7855L13549.1304,-3461.808L13549.1374,-3461.8353L13549.1386,-3461.8396L13549.1394,-3461.8428L13549.1467,-3461.8715L13549.1516,-3461.8859L13549.1525,-3461.8887L13549.1623,-3461.9177L13549.1664,-3461.9316L13549.1667,-3461.9325L13549.1671,-3461.9338L13549.1685,-3461.9386L13549.1751,-3461.9607L13549.1789,-3461.9757L13549.18,-3461.9798L13549.1811,-3461.9838L13549.1837,-3461.9939L13549.1866,-3462.0054L13549.2038,-3462.0717L13549.2193,-3462.1275L13549.2222,-3462.1374L13549.2229,-3462.1398L13549.2239,-3462.1436L13549.2248,-3462.1464L13549.252,-3462.2405L13549.2541,-3462.2477L13549.2593,-3462.2654L13549.2785,-3462.3271L13549.2787,-3462.3277L13549.284,-3462.3448L13549.3084,-3462.343L13549.3499,-3462.3399L13549.3769,-3462.338L13549.4253,-3462.3312L13549.4513,-3462.3315L13549.4517,-3462.3315L13549.4707,-3462.3317L13549.4979,-3462.339L13549.5131,-3462.3463L13549.5296,-3462.35L13549.5701,-3462.3528L13549.5826,-3462.3537L13549.607,-3462.3552L13549.6361,-3462.3725L13549.6744,-3462.3902L13549.6845,-3462.3949L13549.687,-3462.3961L13549.6944,-3462.3995L13549.6974,-3462.4001L13549.7026,-3462.4011L13549.7127,-3462.4029L13549.7192,-3462.4042L13549.7399,-3462.4152L13549.7446,-3462.4177L13549.7688,-3462.4307L13549.7805,-3462.4369L13549.7886,-3462.4413L13549.7996,-3462.4471L13549.8336,-3462.4605L13549.8416,-3462.4636L13549.8739,-3462.4763L13549.9043,-3462.4843L13549.9103,-3462.4859L13549.9237,-3462.4895L13549.9489,-3462.4912L13549.9734,-3462.4871L13549.9747,-3462.4867L13549.9799,-3462.4851L13550,-3462.4789L13550.0767,-3462.4555L13550.0932,-3462.451L13550.0982,-3462.4497L13550.1033,-3462.4483L13550.1474,-3462.4364L13550.2227,-3462.4142L13550.2274,-3462.4128L13550.2329,-3462.4111L13550.3022,-3462.3907L13550.3031,-3462.3904L13550.4147,-3462.3575L13550.4197,-3462.356Z"/>
<path content="大阪府,,,大阪市,東住吉区,27121" xlink:title="大阪府" d="M13551.44,-3461.325L13551.4792,-3461.3883L13551.5222,-3461.4563L13551.5577,-3461.513L13551.6194,-3461.6127L13551.6243,-3461.6206L13551.6517,-3461.6667L13551.6667,-3461.6919L13551.7584,-3461.8463L13551.7841,-3461.89L13551.8024,-3461.9194L13551.828,-3461.9691L13551.8553,-3462.0233L13551.8804,-3462.0735L13551.8934,-3462.0985L13551.8983,-3462.1112L13551.9045,-3462.1232L13551.9777,-3462.2649L13551.9801,-3462.2696L13551.982,-3462.2732L13551.9852,-3462.2795L13552.0276,-3462.3614L13552.0299,-3462.366L13552.032,-3462.3699L13552.066,-3462.4357L13552.0751,-3462.4534L13552.0922,-3462.4792L13552.0971,-3462.4865L13552.1047,-3462.498L13552.106,-3462.5L13552.1119,-3462.5089L13552.1497,-3462.5993L13552.1509,-3462.6022L13552.1526,-3462.6062L13552.166,-3462.6383L13552.1958,-3462.705L13552.1993,-3462.7129L13552.2306,-3462.7831L13552.2339,-3462.7904L13552.2483,-3462.8226L13552.2527,-3462.8325L13552.254,-3462.8354L13552.2787,-3462.8906L13552.7344,-3462.8906L13552.7344,-3459.5001L13552.7205,-3459.5117L13552.7195,-3459.5132L13552.696,-3459.5463L13552.6626,-3459.5992L13552.6571,-3459.608L13552.6368,-3459.64L13552.5,-3459.5751L13552.3626,-3459.5099L13552.2503,-3459.4575L13552.2504,-3459.5066L13552.2506,-3459.5345L13552.2507,-3459.574L13552.2508,-3459.6107L13552.2539,-3459.7002L13552.2543,-3459.7134L13552.2594,-3459.7403L13552.2644,-3459.757L13552.2706,-3459.7774L13552.2718,-3459.7813L13552.281,-3459.8114L13552.2853,-3459.8256L13552.2873,-3459.8424L13552.2878,-3459.8471L13552.2925,-3459.887L13552.2945,-3459.9406L13552.2947,-3459.9461L13552.2944,-3460L13552.294,-3460.0647L13552.2929,-3460.0762L13552.2904,-3460.1017L13552.2846,-3460.128L13552.2842,-3460.1376L13552.281,-3460.2139L13552.2806,-3460.2354L13552.2796,-3460.3007L13552.2795,-3460.3069L13552.279,-3460.316L13552.2788,-3460.3202L13552.2741,-3460.4042L13552.2737,-3460.4113L13552.273,-3460.4232L13552.2449,-3460.4244L13552.2427,-3460.4918L13552.241,-3460.5432L13552.2406,-3460.5557L13552.2488,-3460.5656L13552.2488,-3460.5657L13552.2781,-3460.601L13552.2795,-3460.6779L13552.2795,-3460.7036L13552.2925,-3460.7149L13552.3055,-3460.74L13552.304,-3460.7656L13552.2939,-3460.7817L13552.2903,-3460.7948L13552.2906,-3460.8142L13552.2906,-3460.8194L13552.2908,-3460.8333L13552.2911,-3460.8527L13552.3271,-3460.8539L13552.3668,-3460.8575L13552.3649,-3460.9177L13552.3645,-3460.9296L13552.3639,-3460.9469L13552.0418,-3460.9487L13551.9375,-3460.9493L13551.6667,-3460.9502L13551.469,-3460.9508L13551.4349,-3460.9514L13551.4336,-3460.9514L13551.4207,-3460.9519L13551.399,-3460.9526L13551.4015,-3460.9736L13551.4034,-3460.9894L13551.4214,-3461.1393L13551.4245,-3461.1703L13551.4343,-3461.2678L13551.439,-3461.3146L13551.44,-3461.325Z"/>
<path content="大阪府,,,大阪市,西成区,27122" xlink:title="大阪府" d="M13549.848,-3462.8906L13549.829,-3462.8697L13549.8278,-3462.8681L13549.8144,-3462.8499L13549.8142,-3462.8497L13549.8117,-3462.8463L13549.7871,-3462.813L13549.7806,-3462.7969L13549.7797,-3462.7869L13549.7788,-3462.7772L13549.7777,-3462.7652L13549.777,-3462.7569L13549.7493,-3462.6824L13549.743,-3462.6653L13549.7313,-3462.6339L13549.7295,-3462.6291L13549.7278,-3462.6244L13549.7192,-3462.6013L13549.6967,-3462.5982L13549.6872,-3462.571L13549.6812,-3462.5689L13549.6747,-3462.5668L13549.6563,-3462.5605L13549.6257,-3462.5509L13549.6133,-3462.5469L13549.6051,-3462.513L13549.6025,-3462.5L13549.6022,-3462.4984L13549.6013,-3462.4942L13549.6,-3462.4876L13549.5994,-3462.4846L13549.5969,-3462.4717L13549.5817,-3462.4326L13549.5882,-3462.4254L13549.6349,-3462.3738L13549.6361,-3462.3725L13549.607,-3462.3552L13549.5826,-3462.3537L13549.5701,-3462.3528L13549.5296,-3462.35L13549.5131,-3462.3463L13549.4979,-3462.339L13549.4707,-3462.3317L13549.4517,-3462.3315L13549.4513,-3462.3315L13549.4253,-3462.3312L13549.3769,-3462.338L13549.3499,-3462.3399L13549.3084,-3462.343L13549.284,-3462.3448L13549.2483,-3462.3481L13549.2231,-3462.3505L13549.2174,-3462.351L13549.2006,-3462.3526L13549.1731,-3462.3552L13549.1667,-3462.3558L13549.1557,-3462.3568L13549.1459,-3462.3562L13549.0963,-3462.3531L13549.0558,-3462.3311L13549.05,-3462.328L13549.037,-3462.3209L13549.021,-3462.3122L13549.0202,-3462.3118L13548.9885,-3462.2946L13548.95,-3462.2873L13548.9326,-3462.2844L13548.9252,-3462.2832L13548.9064,-3462.28L13548.812,-3462.2642L13548.7847,-3462.2596L13548.7297,-3462.2523L13548.6759,-3462.2424L13548.6578,-3462.239L13548.6438,-3462.2365L13548.6362,-3462.2351L13548.6033,-3462.2286L13548.5372,-3462.2157L13548.5,-3462.2084L13548.4776,-3462.2046L13548.4688,-3462.2032L13548.4034,-3462.1922L13548.3826,-3462.1887L13548.3788,-3462.1881L13548.366,-3462.1859L13548.3333,-3462.1801L13548.3062,-3462.1752L13548.2756,-3462.1697L13548.2314,-3462.164L13548.2277,-3462.1811L13548.2263,-3462.1878L13548.2209,-3462.2126L13548.2156,-3462.2347L13548.208,-3462.266L13548.1929,-3462.328L13548.1921,-3462.3312L13548.1871,-3462.3516L13548.1857,-3462.3571L13548.1644,-3462.4388L13548.1583,-3462.4456L13548.1517,-3462.4529L13548.1264,-3462.466L13548.0936,-3462.4832L13548.0588,-3462.5L13548.0287,-3462.5145L13548.0123,-3462.5224L13547.9773,-3462.5392L13547.974,-3462.5408L13547.9691,-3462.5432L13547.9477,-3462.5535L13547.9421,-3462.5562L13547.9298,-3462.5621L13547.8897,-3462.5814L13547.7918,-3462.6279L13547.6401,-3462.7026L13547.6329,-3462.7112L13547.6208,-3462.7256L13547.5487,-3462.7892L13547.5343,-3462.8019L13547.5,-3462.8316L13547.4581,-3462.868L13547.432,-3462.8906Z"/>
<path content="大阪府,,,大阪市,住之江区,27125" xlink:title="大阪府" d="M13548.1264,-3462.466L13548.1517,-3462.4529L13548.1583,-3462.4456L13548.1644,-3462.4388L13548.1857,-3462.3571L13548.1871,-3462.3516L13548.1921,-3462.3312L13548.1929,-3462.328L13548.208,-3462.266L13548.2156,-3462.2347L13548.2209,-3462.2126L13548.2263,-3462.1878L13548.2277,-3462.1811L13548.2314,-3462.164L13548.2756,-3462.1697L13548.3062,-3462.1752L13548.3333,-3462.1801L13548.366,-3462.1859L13548.3788,-3462.1881L13548.3826,-3462.1887L13548.4034,-3462.1922L13548.4688,-3462.2032L13548.4776,-3462.2046L13548.5,-3462.2084L13548.5372,-3462.2157L13548.6033,-3462.2286L13548.6362,-3462.2351L13548.6438,-3462.2365L13548.6578,-3462.239L13548.6759,-3462.2424L13548.7297,-3462.2523L13548.7847,-3462.2596L13548.812,-3462.2642L13548.9064,-3462.28L13548.9252,-3462.2832L13548.9326,-3462.2844L13548.95,-3462.2873L13548.9885,-3462.2946L13549.0202,-3462.3118L13549.021,-3462.3122L13549.037,-3462.3209L13549.05,-3462.328L13549.0558,-3462.3311L13549.0963,-3462.3531L13549.1459,-3462.3562L13549.1557,-3462.3568L13549.1667,-3462.3558L13549.1731,-3462.3552L13549.2006,-3462.3526L13549.2174,-3462.351L13549.2231,-3462.3505L13549.2483,-3462.3481L13549.284,-3462.3448L13549.2787,-3462.3277L13549.2785,-3462.3271L13549.2593,-3462.2654L13549.2541,-3462.2477L13549.252,-3462.2405L13549.2248,-3462.1464L13549.2239,-3462.1436L13549.2229,-3462.1398L13549.2222,-3462.1374L13549.2193,-3462.1275L13549.2038,-3462.0717L13549.1866,-3462.0054L13549.1837,-3461.9939L13549.1811,-3461.9838L13549.18,-3461.9798L13549.1789,-3461.9757L13549.1751,-3461.9607L13549.1685,-3461.9386L13549.1671,-3461.9338L13549.1667,-3461.9325L13549.1664,-3461.9316L13549.1623,-3461.9177L13549.1525,-3461.8887L13549.1516,-3461.8859L13549.1467,-3461.8715L13549.1394,-3461.8428L13549.1386,-3461.8396L13549.1374,-3461.8353L13549.1304,-3461.808L13549.1281,-3461.7855L13549.1304,-3461.7611L13549.1289,-3461.7342L13549.1196,-3461.7034L13549.1122,-3461.6797L13549.1091,-3461.6667L13549.0967,-3461.6148L13549.091,-3461.5898L13549.0866,-3461.5706L13549.0545,-3461.4606L13549.0451,-3461.4281L13549.0334,-3461.3813L13549.028,-3461.364L13549.0234,-3461.3364L13549.0164,-3461.312L13549.0117,-3461.3017L13548.9939,-3461.2574L13548.9864,-3461.2387L13548.9833,-3461.2309L13548.9818,-3461.2273L13548.9663,-3461.1696L13548.9579,-3461.1376L13548.9558,-3461.1297L13548.9534,-3461.1206L13548.9531,-3461.1195L13548.9453,-3461.0939L13548.9379,-3461.0698L13548.9368,-3461.0662L13548.9328,-3461.052L13548.9275,-3461.0329L13548.9315,-3461.0319L13548.9768,-3461.0207L13548.9788,-3461.0201L13548.9963,-3461.0146L13549.0005,-3461.0133L13549.005,-3461.0119L13549.0179,-3461.0079L13549.0471,-3461.0023L13549.0533,-3461.0011L13549.0574,-3461.0003L13549.0843,-3460.9952L13549.0987,-3460.9925L13549.0937,-3460.974L13549.0851,-3460.9418L13549.0815,-3460.9263L13549.0797,-3460.9183L13549.0702,-3460.8767L13549.0693,-3460.8727L13549.0688,-3460.8706L13549.0684,-3460.8691L13549.0587,-3460.8333L13549.0413,-3460.7693L13549.0392,-3460.7617L13549.0099,-3460.6538L13549.0089,-3460.6499L13549.0075,-3460.6449L13549.0063,-3460.6402L13548.9861,-3460.5534L13548.9854,-3460.5503L13548.9782,-3460.5193L13548.9733,-3460.4984L13548.9686,-3460.478L13548.9516,-3460.4048L13548.9397,-3460.3575L13548.9385,-3460.3526L13548.9373,-3460.3477L13548.9,-3460.1994L13548.8767,-3460.1109L13548.8668,-3460.0797L13548.8657,-3460.0762L13548.8641,-3460.0711L13548.8592,-3460.0554L13548.8567,-3460.0478L13548.8549,-3460.0418L13548.8473,-3460.0179L13548.8458,-3460.013L13548.844,-3460.0074L13548.8417,-3460L13548.839,-3459.9916L13548.8253,-3459.9554L13548.8239,-3459.9517L13548.8225,-3459.9481L13548.8109,-3459.9176L13548.8089,-3459.9125L13548.793,-3459.8705L13548.7754,-3459.8243L13548.7719,-3459.8151L13548.7688,-3459.8063L13548.7673,-3459.8021L13548.7407,-3459.7269L13548.7392,-3459.7227L13548.7387,-3459.7214L13548.7294,-3459.6952L13548.7219,-3459.6738L13548.7017,-3459.617L13548.6978,-3459.606L13548.6974,-3459.6047L13548.6962,-3459.6014L13548.6337,-3459.6126L13548.5581,-3459.6259L13548.4718,-3459.6409L13548.4575,-3459.6437L13548.3856,-3459.6576L13548.3699,-3459.6613L13548.3379,-3459.6689L13548.3333,-3459.67L13548.3194,-3459.6733L13548.2748,-3459.6839L13548.2645,-3459.6863L13548.2493,-3459.6892L13548.2231,-3459.693L13548.1552,-3459.7122L13548.0397,-3459.7467L13548.0284,-3459.7501L13547.9766,-3459.7667L13547.8403,-3459.8117L13547.8156,-3459.82L13547.7466,-3459.8471L13547.6478,-3459.884L13547.6395,-3459.8871L13547.5992,-3459.9016L13547.5796,-3459.9095L13547.5,-3459.9422L13547.4202,-3459.9749L13547.4005,-3459.9824L13547.3829,-3459.9912L13547.3632,-3460L13547.3355,-3460.0124L13547.2463,-3460.0553L13547.1907,-3460.083L13547.1612,-3460.098L13547.1317,-3460.113L13547.1245,-3460.1157L13547.1168,-3460.1186L13547.0894,-3460.1288L13547.0049,-3460.1603L13546.9565,-3460.1766L13546.938,-3460.1846L13546.9364,-3460.1853L13546.884,-3460.2019L13546.8468,-3460.213L13546.8396,-3460.2151L13546.8064,-3460.2239L13546.7464,-3460.2397L13546.7253,-3460.2472L13546.6667,-3460.2641L13546.6532,-3460.268L13546.6492,-3460.2689L13546.6355,-3460.2721L13546.6169,-3460.2788L13546.5967,-3460.2846L13546.4763,-3460.3178L13546.4303,-3460.3304L13546.4096,-3460.3354L13546.3889,-3460.3421L13546.3723,-3460.3471L13546.2745,-3460.3744L13546.2005,-3460.3969L13546.1783,-3460.4044L13546.168,-3460.4079L13546.1612,-3460.4102L13546.1381,-3460.4172L13545.9794,-3460.465L13545.9092,-3460.4882L13545.9089,-3460.4883L13545.9087,-3460.4884L13545.858,-3460.5022L13545.8333,-3460.509L13545.8083,-3460.5158L13545.6406,-3460.5661L13545.6074,-3460.5759L13545.5086,-3460.6052L13545.4356,-3460.6261L13545.3567,-3460.6473L13545.26,-3460.6735L13545.0769,-3460.7218L13545.0149,-3460.7381L13545,-3460.7419L13544.9607,-3460.7521L13544.8071,-3460.7918L13544.7194,-3460.813L13544.6539,-3460.8329L13544.4672,-3460.8317L13544.2458,-3460.8276L13544.1667,-3460.8249L13544.1344,-3460.8238L13543.9453,-3460.8215L13543.9453,-3462.5436L13543.9607,-3462.5497L13544.0206,-3462.5739L13544.0609,-3462.5899L13544.1299,-3462.6176L13544.131,-3462.6169L13544.1443,-3462.5444L13544.1667,-3462.5422L13544.3044,-3462.5287L13544.3042,-3462.5246L13544.2079,-3462.5339L13544.2079,-3462.5325L13544.2016,-3462.5332L13544.2016,-3462.535L13544.1667,-3462.5384L13544.1443,-3462.5406L13544.1528,-3462.5L13544.1667,-3462.4341L13544.2018,-3462.2668L13544.2111,-3462.2218L13544.2091,-3462.2213L13544.2464,-3462.0367L13544.2503,-3462.0168L13544.2628,-3461.9543L13544.2633,-3461.9515L13544.2814,-3461.8615L13544.2914,-3461.8121L13544.4786,-3461.8391L13544.5295,-3461.8295L13544.6853,-3461.7998L13544.748,-3461.7884L13544.7483,-3461.7895L13544.7565,-3461.788L13544.7583,-3461.8008L13544.7591,-3461.8037L13544.7599,-3461.8055L13544.761,-3461.8069L13544.7626,-3461.8075L13544.7643,-3461.808L13544.7679,-3461.8474L13544.7714,-3461.8847L13544.7703,-3461.8853L13544.7695,-3461.8871L13544.7694,-3461.8889L13544.7773,-3461.9451L13544.7788,-3461.9567L13544.7851,-3462.0019L13544.7931,-3462.0644L13544.8014,-3462.126L13544.8095,-3462.1805L13544.7724,-3462.1819L13544.7563,-3462.1825L13544.7362,-3462.1825L13544.7244,-3462.1819L13544.7144,-3462.1815L13544.7149,-3462.1852L13544.7167,-3462.205L13544.7169,-3462.2078L13544.7379,-3462.2084L13544.7646,-3462.2085L13544.7826,-3462.2081L13544.8036,-3462.2073L13544.8112,-3462.2069L13544.8185,-3462.2696L13544.8242,-3462.3136L13544.8241,-3462.3188L13544.8327,-3462.3855L13544.8414,-3462.451L13544.8432,-3462.4677L13544.8342,-3462.4695L13544.8336,-3462.4678L13544.8145,-3462.4712L13544.7942,-3462.4746L13544.7702,-3462.4792L13544.7707,-3462.4811L13544.7687,-3462.4816L13544.7516,-3462.4829L13544.7517,-3462.4862L13544.7691,-3462.4847L13544.8403,-3462.4716L13544.8446,-3462.48L13544.8453,-3462.5L13544.8502,-3462.6466L13544.8583,-3462.643L13544.8759,-3462.6351L13544.9432,-3462.6105L13544.9657,-3462.6022L13544.9852,-3462.5954L13545,-3462.5895L13545.009,-3462.5858L13545.0442,-3462.5716L13545.0661,-3462.5648L13545.1326,-3462.5444L13545.1525,-3462.5376L13545.2066,-3462.5223L13545.2406,-3462.5127L13545.2845,-3462.5014L13545.2894,-3462.5L13545.2921,-3462.4993L13545.3071,-3462.4951L13545.3277,-3462.4906L13545.3695,-3462.481L13545.3928,-3462.4753L13545.4126,-3462.4709L13545.4134,-3462.4708L13545.4566,-3462.4668L13545.4881,-3462.4657L13545.5221,-3462.4636L13545.5549,-3462.4617L13545.5769,-3462.4617L13545.5934,-3462.4612L13545.5961,-3462.4611L13545.6804,-3462.4691L13545.7737,-3462.4787L13545.8333,-3462.4875L13545.8693,-3462.4929L13545.9081,-3462.5L13545.9619,-3462.5099L13546.0736,-3462.5291L13546.1988,-3462.5545L13546.2051,-3462.5558L13546.2385,-3462.5626L13546.2453,-3462.564L13546.3137,-3462.5778L13546.3256,-3462.5802L13546.3782,-3462.5899L13546.4113,-3462.596L13546.5433,-3462.6249L13546.6502,-3462.6465L13546.6667,-3462.6495L13546.7496,-3462.6646L13546.8082,-3462.6781L13546.8871,-3462.6964L13546.9481,-3462.7128L13546.9538,-3462.7136L13546.968,-3462.7156L13547.0106,-3462.7297L13547.0605,-3462.7462L13547.1208,-3462.7701L13547.1264,-3462.7723L13547.1379,-3462.7774L13547.1483,-3462.7819L13547.1572,-3462.7864L13547.1707,-3462.7933L13547.1884,-3462.8023L13547.2261,-3462.8244L13547.2268,-3462.8249L13547.2436,-3462.8372L13547.2672,-3462.8546L13547.2748,-3462.8602L13547.3022,-3462.8845L13547.3088,-3462.8906L13547.432,-3462.8906L13547.4581,-3462.868L13547.5,-3462.8316L13547.5343,-3462.8019L13547.5487,-3462.7892L13547.6208,-3462.7256L13547.6329,-3462.7112L13547.6401,-3462.7026L13547.7918,-3462.6279L13547.8897,-3462.5814L13547.9298,-3462.5621L13547.9421,-3462.5562L13547.9477,-3462.5535L13547.9691,-3462.5432L13547.974,-3462.5408L13547.9773,-3462.5392L13548.0123,-3462.5224L13548.0287,-3462.5145L13548.0588,-3462.5L13548.0936,-3462.4832L13548.1264,-3462.466Z"/>
<path content="大阪府,,,大阪市,住之江区,27125" xlink:title="大阪府" d="M13543.9453,-3462.8906L13544.1758,-3462.8906L13544.1862,-3462.8396L13544.1667,-3462.8316L13544.1661,-3462.8314L13544.1575,-3462.8736L13544.0641,-3462.8201L13544.0696,-3462.7936L13543.9453,-3462.7437Z"/>
<path content="大阪府,,,大阪市,住之江区,27125" xlink:title="大阪府" d="M13544.3865,-3462.5208L13544.3859,-3462.5165L13544.3465,-3462.5201L13544.3383,-3462.521L13544.3388,-3462.5255L13544.3865,-3462.5208Z"/>
<path content="大阪府,,,堺市,堺区,27141" xlink:title="大阪府" d="M13545.9092,-3460.4882L13545.9794,-3460.465L13546.1381,-3460.4172L13546.1612,-3460.4102L13546.168,-3460.4079L13546.1783,-3460.4044L13546.2005,-3460.3969L13546.2745,-3460.3744L13546.3723,-3460.3471L13546.3889,-3460.3421L13546.4096,-3460.3354L13546.4303,-3460.3304L13546.4763,-3460.3178L13546.5967,-3460.2846L13546.6169,-3460.2788L13546.6355,-3460.2721L13546.6492,-3460.2689L13546.6532,-3460.268L13546.6667,-3460.2641L13546.7253,-3460.2472L13546.7464,-3460.2397L13546.8064,-3460.2239L13546.8396,-3460.2151L13546.8468,-3460.213L13546.884,-3460.2019L13546.9364,-3460.1853L13546.938,-3460.1846L13546.9565,-3460.1766L13547.0049,-3460.1603L13547.0894,-3460.1288L13547.1168,-3460.1186L13547.1245,-3460.1157L13547.1317,-3460.113L13547.1612,-3460.098L13547.1907,-3460.083L13547.2463,-3460.0553L13547.3355,-3460.0124L13547.3632,-3460L13547.3829,-3459.9912L13547.4005,-3459.9824L13547.4202,-3459.9749L13547.5,-3459.9422L13547.5796,-3459.9095L13547.5992,-3459.9016L13547.6395,-3459.8871L13547.6478,-3459.884L13547.7466,-3459.8471L13547.8156,-3459.82L13547.8403,-3459.8117L13547.9766,-3459.7667L13548.0284,-3459.7501L13548.0397,-3459.7467L13548.1552,-3459.7122L13548.2231,-3459.693L13548.2493,-3459.6892L13548.2645,-3459.6863L13548.2748,-3459.6839L13548.3194,-3459.6733L13548.3333,-3459.67L13548.3379,-3459.6689L13548.3699,-3459.6613L13548.3856,-3459.6576L13548.4575,-3459.6437L13548.4718,-3459.6409L13548.5581,-3459.6259L13548.6337,-3459.6126L13548.6962,-3459.6014L13548.7206,-3459.5971L13548.8516,-3459.5739L13548.8768,-3459.5685L13548.966,-3459.5535L13548.9931,-3459.5477L13549.0937,-3459.526L13549.1667,-3459.5094L13549.1724,-3459.5081L13549.1904,-3459.504L13549.2498,-3459.4927L13549.3356,-3459.4817L13549.3377,-3459.4815L13549.3665,-3459.4781L13549.3942,-3459.4744L13549.4288,-3459.4663L13549.4311,-3459.4657L13549.444,-3459.4627L13549.4487,-3459.4609L13549.5251,-3459.4311L13549.5823,-3459.3994L13549.6082,-3459.3818L13549.6141,-3459.3778L13549.622,-3459.3719L13549.6336,-3459.3634L13549.6367,-3459.3611L13549.669,-3459.3361L13549.7093,-3459.3009L13549.7193,-3459.2921L13549.7292,-3459.2792L13549.7393,-3459.2659L13549.7471,-3459.2468L13549.7667,-3459.1991L13549.7711,-3459.1862L13549.7733,-3459.1796L13549.7776,-3459.1667L13549.8085,-3459.0751L13549.8302,-3459.0029L13549.8361,-3458.9849L13549.8504,-3458.9414L13549.8597,-3458.917L13549.8771,-3458.8842L13549.9022,-3458.8486L13549.9348,-3458.8025L13549.948,-3458.7878L13549.9767,-3458.7559L13550,-3458.7323L13550.0091,-3458.7231L13550.0363,-3458.7041L13550.0373,-3458.7034L13550.0806,-3458.6766L13550.1051,-3458.6599L13550.1105,-3458.6551L13550.1227,-3458.648L13550.1427,-3458.6397L13550.1617,-3458.6349L13550.1851,-3458.6289L13550.2226,-3458.6171L13550.2564,-3458.6164L13550.2778,-3458.6161L13550.2777,-3458.6098L13550.2779,-3458.576L13550.2746,-3458.5588L13550.2689,-3458.5278L13550.2631,-3458.4977L13550.2612,-3458.4788L13550.2581,-3458.461L13550.2549,-3458.4446L13550.2476,-3458.4191L13550.2377,-3458.4173L13550.2326,-3458.4086L13550.2361,-3458.3752L13550.2269,-3458.3667L13550.2021,-3458.3333L13550.1827,-3458.3073L13550.1681,-3458.2832L13550.1591,-3458.2675L13550.1268,-3458.2111L13550.118,-3458.1952L13550.0851,-3458.1387L13550.0771,-3458.1227L13550.0389,-3458.0494L13550.0141,-3458.0077L13550,-3457.9824L13549.9971,-3457.9772L13549.9575,-3457.9038L13549.9275,-3457.8467L13549.9198,-3457.8313L13549.8845,-3457.7586L13549.8608,-3457.7096L13549.8609,-3457.6983L13549.8606,-3457.6744L13549.8368,-3457.6747L13549.8338,-3457.6702L13549.7927,-3457.6006L13549.7355,-3457.5L13549.7347,-3457.4985L13549.7244,-3457.4823L13549.6852,-3457.41L13549.6676,-3457.3792L13549.6533,-3457.354L13549.6452,-3457.3372L13549.6013,-3457.2519L13549.5988,-3457.2258L13549.5788,-3457.188L13549.5346,-3457.1005L13549.5668,-3457.0395L13549.6056,-3456.9626L13549.6309,-3456.9535L13549.694,-3456.9316L13549.7618,-3456.9083L13549.8366,-3456.8842L13549.8329,-3456.8734L13549.8139,-3456.834L13549.7968,-3456.8004L13549.7916,-3456.7831L13549.7921,-3456.7587L13549.803,-3456.7369L13549.7911,-3456.7268L13549.7792,-3456.7171L13549.764,-3456.7087L13549.7828,-3456.6845L13549.7964,-3456.6667L13549.8352,-3456.6155L13549.8704,-3456.5661L13549.8794,-3456.5562L13549.893,-3456.5473L13549.9057,-3456.544L13549.9248,-3456.5188L13549.9349,-3456.507L13549.9407,-3456.4944L13549.9404,-3456.4861L13549.9357,-3456.4741L13549.9282,-3456.4651L13549.9427,-3456.4522L13550,-3456.3983L13550.0062,-3456.3924L13550.0704,-3456.3334L13550.0941,-3456.3115L13550.0798,-3456.2708L13550.1561,-3456.1975L13550.1638,-3456.1906L13550.1673,-3456.1864L13550.1672,-3456.1803L13550.1627,-3456.173L13550.1626,-3456.1653L13550.1659,-3456.1463L13550.172,-3456.1224L13550.1235,-3456.124L13550.1117,-3456.122L13550.107,-3456.1187L13550.1008,-3456.1009L13550.0949,-3456.0857L13550.0924,-3456.0798L13550.0855,-3456.074L13550.0763,-3456.0682L13550.0736,-3456.0589L13550.0733,-3456.0279L13550.0733,-3455.9897L13550.0706,-3455.977L13550.0683,-3455.9738L13550.0643,-3455.9713L13550.0545,-3455.9689L13550.0418,-3455.9633L13550.0113,-3455.9276L13550,-3455.936L13549.9961,-3455.9388L13549.9418,-3455.9789L13549.8847,-3456.0193L13549.8299,-3456.0596L13549.7788,-3456.0974L13549.7464,-3456.1215L13549.7087,-3456.1518L13549.6811,-3456.1732L13549.6011,-3456.2398L13549.5325,-3456.2944L13549.5183,-3456.3051L13549.4466,-3456.3597L13549.4145,-3456.3859L13549.3615,-3456.4298L13549.313,-3456.4637L13549.2876,-3456.4812L13549.2582,-3456.5077L13549.2466,-3456.492L13549.22,-3456.4305L13549.2037,-3456.3951L13549.1862,-3456.3548L13549.1699,-3456.3199L13549.1667,-3456.3132L13549.1441,-3456.2662L13549.1139,-3456.2037L13549.0719,-3456.1149L13549.0496,-3456.0743L13549.0164,-3456.0077L13549.0028,-3455.9786L13548.9801,-3455.9328L13548.9501,-3455.8768L13548.9419,-3455.8605L13548.9258,-3455.8333L13548.9089,-3455.8046L13548.8813,-3455.7616L13548.8578,-3455.7297L13548.8424,-3455.7116L13548.8204,-3455.6852L13548.804,-3455.67L13548.7899,-3455.6566L13548.7748,-3455.6448L13548.7525,-3455.6263L13548.7209,-3455.6012L13548.69,-3455.5753L13548.6504,-3455.5468L13548.6154,-3455.5219L13548.5532,-3455.4763L13548.505,-3455.4412L13548.4803,-3455.4241L13548.4314,-3455.3899L13548.376,-3455.3478L13548.3604,-3455.3354L13548.3367,-3455.3177L13548.3333,-3455.3151L13548.2898,-3455.281L13548.2341,-3455.2394L13548.2016,-3455.2115L13548.1672,-3455.2719L13548.1655,-3455.3068L13548.1623,-3455.3336L13548.1302,-3455.3388L13548.1228,-3455.3739L13548.1146,-3455.4079L13548.1125,-3455.4286L13548.115,-3455.4879L13548.1217,-3455.5858L13548.1561,-3455.6305L13548.0505,-3455.6323L13548.0007,-3455.6327L13547.9793,-3455.6321L13547.9584,-3455.6285L13547.8994,-3455.6153L13547.8863,-3455.6213L13547.8546,-3455.6307L13547.8351,-3455.6341L13547.8142,-3455.6343L13547.7919,-3455.6325L13547.7397,-3455.6287L13547.7172,-3455.6272L13547.6996,-3455.6209L13547.692,-3455.6162L13547.6475,-3455.5547L13547.5981,-3455.4859L13547.5484,-3455.4181L13547.5,-3455.3506L13547.4835,-3455.3276L13547.4516,-3455.2845L13547.3718,-3455.2854L13547.3729,-3455.2518L13547.3789,-3455.2429L13547.3603,-3455.1935L13547.3498,-3455.1637L13547.3501,-3455.1461L13547.3146,-3455.1463L13547.3149,-3455.136L13547.2786,-3455.1369L13547.2761,-3455.1564L13547.2631,-3455.17L13547.2547,-3455.1736L13547.2132,-3455.1666L13547.191,-3455.1666L13547.1691,-3455.1673L13547.1261,-3455.1709L13547.0996,-3455.1716L13547.0532,-3455.1734L13547.0495,-3455.1725L13547.034,-3455.1805L13547.0171,-3455.1622L13546.9969,-3455.1695L13546.971,-3455.1731L13546.9454,-3455.1731L13546.9235,-3455.1718L13546.9026,-3455.166L13546.8823,-3455.1519L13546.8651,-3455.1441L13546.8383,-3455.136L13546.8031,-3455.1262L13546.7975,-3455.1264L13546.7715,-3455.128L13546.7455,-3455.1353L13546.7261,-3455.1423L13546.6885,-3455.1564L13546.6667,-3455.1603L13546.6625,-3455.1611L13546.6536,-3455.1483L13546.6374,-3455.1058L13546.6174,-3455.1027L13546.6201,-3455.0804L13546.6104,-3455.0584L13546.6523,-3455.0477L13546.6667,-3455.0456L13546.6902,-3455.0421L13546.6793,-3455.0124L13546.7031,-3455.0059L13546.7029,-3455L13546.7004,-3454.927L13546.6786,-3454.9248L13546.694,-3454.9116L13546.707,-3454.8953L13546.713,-3454.8792L13546.7322,-3454.8662L13546.685,-3454.8559L13546.6985,-3454.8282L13546.6667,-3454.8207L13546.6549,-3454.8179L13546.6667,-3454.8075L13546.6817,-3454.7942L13546.7074,-3454.7994L13546.8133,-3454.8213L13546.8609,-3454.8345L13546.881,-3454.7989L13546.8815,-3454.7683L13546.8393,-3454.7719L13546.8233,-3454.8114L13546.7772,-3454.8029L13546.6911,-3454.7857L13546.7049,-3454.7345L13546.6667,-3454.7462L13546.6531,-3454.7504L13546.5729,-3454.7175L13546.5136,-3454.7055L13546.5206,-3454.6748L13546.5314,-3454.6335L13546.426,-3454.6096L13546.4355,-3454.5809L13546.4125,-3454.576L13546.3686,-3454.5671L13546.3698,-3454.5885L13546.3708,-3454.6608L13546.3685,-3454.7958L13546.3418,-3454.8552L13546.3086,-3454.9545L13546.2931,-3455L13546.288,-3455.0146L13546.2833,-3455.0495L13546.2626,-3455.1295L13546.2512,-3455.1767L13546.2355,-3455.2572L13546.2311,-3455.2576L13546.1948,-3455.2594L13546.1152,-3455.2681L13546.0763,-3455.2737L13546.0449,-3455.2854L13546.0257,-3455.2968L13546.1199,-3455.3191L13546.1142,-3455.3352L13546.0861,-3455.3307L13546.0712,-3455.3401L13546.071,-3455.3761L13546.0502,-3455.3842L13546.0469,-3455.3938L13546.0364,-3455.3933L13546.0353,-3455.4161L13546.0031,-3455.4139L13545.9895,-3455.447L13546.0215,-3455.4517L13546.0023,-3455.4895L13546.103,-3455.5033L13546.1732,-3455.51L13546.1789,-3455.5362L13546.1888,-3455.5686L13546.2201,-3455.6569L13546.25,-3455.7452L13546.2764,-3455.8223L13546.2804,-3455.8333L13546.3079,-3455.9093L13546.3207,-3455.9479L13546.3362,-3455.9958L13546.3544,-3456.0378L13546.2929,-3456.066L13546.2366,-3456.1004L13546.1845,-3456.129L13546.2156,-3456.1668L13546.1808,-3456.1678L13546.1119,-3456.1741L13546.0426,-3456.1796L13546.016,-3456.1819L13545.9963,-3456.1604L13545.9826,-3456.1615L13545.9669,-3456.1676L13545.8989,-3456.2051L13545.896,-3456.2011L13545.8333,-3456.2298L13545.8124,-3456.2393L13545.8333,-3456.2752L13545.8357,-3456.2794L13545.8333,-3456.2804L13545.7446,-3456.3191L13545.742,-3456.3203L13545.4727,-3456.4396L13545.5061,-3456.4978L13545.5437,-3456.5714L13545.3331,-3456.649L13545.2889,-3456.6667L13545.25,-3456.6823L13545.2241,-3456.6928L13545,-3456.7818L13544.9425,-3456.8047L13544.96,-3456.8611L13545,-3456.985L13545.024,-3457.0592L13545.0245,-3457.0608L13545.0657,-3457.1883L13545.0668,-3457.1916L13545.0812,-3457.2361L13545.0582,-3457.242L13545.14,-3457.4982L13545.1404,-3457.4986L13545.141,-3457.4986L13545.1548,-3457.4954L13545.1639,-3457.4932L13545.1658,-3457.4996L13545.1659,-3457.5L13545.1768,-3457.5363L13545.2184,-3457.5596L13545.2705,-3457.5888L13545.2733,-3457.5888L13545.5029,-3457.5835L13545.5341,-3457.5828L13545.5389,-3457.5825L13545.5458,-3457.5822L13545.5505,-3457.5819L13545.5454,-3457.5L13545.5436,-3457.4698L13545.543,-3457.4601L13545.5417,-3457.4379L13545.5411,-3457.427L13545.6053,-3457.4246L13545.605,-3457.4214L13545.5487,-3457.4242L13545.5448,-3457.3644L13545.5987,-3457.3258L13545.6015,-3457.3286L13545.6304,-3457.3081L13545.6278,-3457.3056L13545.6259,-3457.3037L13545.6406,-3457.2929L13545.6423,-3457.2916L13545.6684,-3457.2727L13545.6665,-3457.2706L13545.6692,-3457.2687L13545.6753,-3457.2764L13545.6763,-3457.2777L13545.6903,-3457.2953L13545.6913,-3457.2966L13545.7066,-3457.3158L13545.7076,-3457.3172L13545.7157,-3457.3273L13545.7086,-3457.3309L13545.7101,-3457.3328L13545.712,-3457.3361L13545.7208,-3457.3468L13545.7372,-3457.3667L13545.7429,-3457.3739L13545.748,-3457.3822L13545.678,-3457.3987L13545.6765,-3457.3991L13545.6674,-3457.4012L13545.6662,-3457.4015L13545.6663,-3457.4019L13545.6671,-3457.4046L13545.6759,-3457.4024L13545.6785,-3457.4018L13545.6916,-3457.3986L13545.6926,-3457.3984L13545.6929,-3457.3983L13545.7002,-3457.3965L13545.7011,-3457.3963L13545.7225,-3457.3911L13545.7546,-3457.3833L13545.7556,-3457.3839L13545.7567,-3457.404L13545.7564,-3457.4062L13545.7568,-3457.4144L13545.7568,-3457.4166L13545.7567,-3457.4212L13545.7568,-3457.4218L13545.7572,-3457.4297L13545.7573,-3457.4305L13545.7574,-3457.4364L13545.7576,-3457.4372L13545.7575,-3457.4479L13545.7577,-3457.4489L13545.7578,-3457.4592L13545.7578,-3457.4601L13545.7584,-3457.4672L13545.7584,-3457.4682L13545.7582,-3457.4748L13545.7582,-3457.4757L13545.7588,-3457.4862L13545.7588,-3457.4873L13545.7591,-3457.4969L13545.7591,-3457.4986L13545.7592,-3457.5L13545.7595,-3457.5052L13545.7596,-3457.507L13545.7598,-3457.5197L13545.7597,-3457.5215L13545.7604,-3457.5337L13545.7612,-3457.5625L13545.7612,-3457.5642L13545.7614,-3457.5717L13545.7491,-3457.5727L13545.7476,-3457.5726L13545.7054,-3457.5745L13545.7045,-3457.5746L13545.7019,-3457.5748L13545.688,-3457.5759L13545.6856,-3457.5761L13545.6845,-3457.5762L13545.6716,-3457.5771L13545.6699,-3457.5772L13545.6688,-3457.5773L13545.6599,-3457.5778L13545.6586,-3457.5777L13545.6354,-3457.5785L13545.6356,-3457.5803L13545.6583,-3457.5795L13545.6588,-3457.5795L13545.6596,-3457.5795L13545.6732,-3457.5788L13545.6746,-3457.6048L13545.6681,-3457.6051L13545.6689,-3457.6407L13545.6034,-3457.6417L13545.6035,-3457.6439L13545.5888,-3457.6441L13545.5888,-3457.6489L13545.5025,-3457.651L13545.4614,-3457.652L13545.4136,-3457.6532L13545.4136,-3457.652L13545.316,-3457.6543L13545.2702,-3457.6558L13545.267,-3457.6562L13545.265,-3457.657L13545.2621,-3457.6589L13545.2176,-3457.6883L13545.2042,-3457.6974L13545.2025,-3457.699L13545.201,-3457.7005L13545.1994,-3457.7016L13545.195,-3457.7038L13545.1772,-3457.7125L13545.176,-3457.7132L13545.1752,-3457.714L13545.1747,-3457.7151L13545.1198,-3457.9014L13545.1169,-3457.9111L13545.1168,-3457.9119L13545.1169,-3457.9125L13545.1174,-3457.9128L13545.1378,-3457.9172L13545.1155,-3457.9934L13545.1076,-3457.992L13545.1056,-3457.9958L13545.1071,-3457.9964L13545.1006,-3458.0192L13545.0995,-3458.0189L13545.0983,-3458.0224L13545.1025,-3458.0232L13545.1027,-3458.0222L13545.1071,-3458.0232L13545.1028,-3458.038L13545.1022,-3458.0379L13545.0969,-3458.0368L13545.0726,-3458.1201L13545.0723,-3458.1206L13545.0622,-3458.1186L13545.0617,-3458.1186L13545.0615,-3458.1188L13545.0564,-3458.1358L13545.0565,-3458.1364L13545.057,-3458.1367L13545.0672,-3458.1387L13545.0663,-3458.1412L13545.05,-3458.197L13545.0498,-3458.1975L13545.039,-3458.1955L13545.0399,-3458.1929L13545.0376,-3458.1923L13545.038,-3458.1906L13545.0363,-3458.1902L13545.0352,-3458.1888L13545.0337,-3458.1888L13545.0318,-3458.1901L13545.029,-3458.2003L13545.0298,-3458.2005L13545.0313,-3458.201L13545.0346,-3458.202L13545.0361,-3458.1985L13545.0492,-3458.201L13545.0492,-3458.2016L13545.046,-3458.2138L13545.0445,-3458.2206L13545.0118,-3458.3333L13545.0113,-3458.335L13545.0094,-3458.3414L13545.0095,-3458.3443L13545.0198,-3458.3667L13545.02,-3458.3672L13545.0098,-3458.3706L13545.0112,-3458.3735L13545.0463,-3458.3622L13545.0549,-3458.3797L13545.1912,-3458.3333L13545.1952,-3458.332L13545.187,-3458.3143L13545.1862,-3458.3126L13545.2093,-3458.3048L13545.2137,-3458.3034L13545.216,-3458.3027L13545.2239,-3458.3L13545.338,-3458.2621L13545.3435,-3458.2716L13545.4086,-3458.2598L13545.4087,-3458.2612L13545.4985,-3458.2609L13545.5011,-3458.2609L13545.501,-3458.2518L13545.5729,-3458.2513L13545.5724,-3458.2643L13545.6008,-3458.2644L13545.6013,-3458.2521L13545.6428,-3458.2521L13545.6424,-3458.2671L13545.651,-3458.2672L13545.6512,-3458.2656L13545.6659,-3458.2658L13545.6659,-3458.2674L13545.6732,-3458.2673L13545.6733,-3458.2658L13545.6878,-3458.2659L13545.6878,-3458.2678L13545.6958,-3458.2676L13545.6959,-3458.2655L13545.7087,-3458.2656L13545.709,-3458.2677L13545.7164,-3458.2676L13545.7167,-3458.2526L13545.7327,-3458.2528L13545.7351,-3458.2528L13545.7298,-3458.259L13545.8181,-3458.3141L13545.8147,-3458.318L13545.8333,-3458.3298L13545.8389,-3458.3333L13545.8567,-3458.3446L13545.8579,-3458.3453L13545.8592,-3458.3459L13545.8607,-3458.3464L13545.8622,-3458.3467L13545.8638,-3458.3468L13545.8653,-3458.3467L13545.8668,-3458.3465L13545.8682,-3458.3461L13545.8877,-3458.3395L13545.8922,-3458.3379L13545.8947,-3458.3375L13545.8963,-3458.3375L13545.898,-3458.3377L13545.8996,-3458.338L13545.9012,-3458.3386L13545.9027,-3458.3392L13545.904,-3458.34L13545.9052,-3458.3409L13545.9062,-3458.3419L13545.907,-3458.343L13545.9076,-3458.344L13545.9081,-3458.3451L13545.9108,-3458.3542L13545.9114,-3458.3557L13545.9124,-3458.3571L13545.9138,-3458.3584L13545.9154,-3458.3595L13545.9173,-3458.3602L13545.9193,-3458.3606L13545.9213,-3458.3607L13545.9232,-3458.3605L13545.9389,-3458.3575L13545.9632,-3458.3528L13545.9933,-3458.3471L13546.0148,-3458.343L13546.0642,-3458.3333L13546.144,-3458.3178L13546.2545,-3458.2863L13546.2584,-3458.2776L13546.3319,-3458.2668L13546.333,-3458.2659L13546.3332,-3458.2648L13546.3328,-3458.2625L13546.2649,-3458.2722L13546.2818,-3458.2359L13546.2822,-3458.2353L13546.2921,-3458.214L13546.2925,-3458.2132L13546.308,-3458.18L13546.3132,-3458.1714L13546.3139,-3458.1703L13546.3221,-3458.1567L13546.3638,-3458.1411L13546.4067,-3458.1488L13546.4472,-3458.1607L13546.4415,-3458.1706L13546.4338,-3458.1676L13546.4321,-3458.1708L13546.4311,-3458.1724L13546.4299,-3458.1745L13546.431,-3458.175L13546.4483,-3458.1817L13546.4499,-3458.1823L13546.4503,-3458.1814L13546.4513,-3458.1798L13546.4538,-3458.1754L13546.4435,-3458.1714L13546.4492,-3458.1613L13546.4512,-3458.1619L13546.4523,-3458.164L13546.4537,-3458.166L13546.4552,-3458.168L13546.457,-3458.17L13546.459,-3458.1718L13546.4612,-3458.1735L13546.4636,-3458.175L13546.4661,-3458.1764L13546.4688,-3458.1776L13546.4715,-3458.1786L13546.4744,-3458.1794L13546.4773,-3458.18L13546.4802,-3458.1804L13546.483,-3458.1806L13546.4859,-3458.1806L13546.4886,-3458.1805L13546.5211,-3458.2058L13546.5301,-3458.2235L13546.5309,-3458.2245L13546.5318,-3458.2254L13546.533,-3458.2262L13546.5343,-3458.2268L13546.5408,-3458.2418L13546.5472,-3458.2568L13546.547,-3458.2592L13546.5472,-3458.2605L13546.554,-3458.277L13546.5544,-3458.278L13546.555,-3458.2786L13546.5589,-3458.2807L13546.5604,-3458.2809L13546.5617,-3458.281L13546.5779,-3458.2792L13546.5781,-3458.2804L13546.5795,-3458.2854L13546.5819,-3458.2914L13546.5818,-3458.3286L13546.5813,-3458.3333L13546.5794,-3458.3537L13546.579,-3458.3577L13546.5624,-3458.3556L13546.5596,-3458.3891L13546.6183,-3458.4536L13546.6186,-3458.4548L13546.6183,-3458.4555L13546.618,-3458.4562L13546.6174,-3458.4569L13546.6168,-3458.4575L13546.6157,-3458.4581L13546.5596,-3458.4754L13546.4979,-3458.4945L13546.4568,-3458.5028L13546.4224,-3458.5021L13546.4004,-3458.4962L13546.3563,-3458.4659L13546.3538,-3458.4642L13546.3421,-3458.4467L13546.349,-3458.4315L13546.3555,-3458.4169L13546.3599,-3458.4074L13546.3623,-3458.4035L13546.3707,-3458.3917L13546.3759,-3458.3832L13546.3813,-3458.3754L13546.3858,-3458.3688L13546.3904,-3458.3616L13546.3931,-3458.357L13546.3948,-3458.3532L13546.3961,-3458.3488L13546.3972,-3458.3445L13546.3974,-3458.3404L13546.4222,-3458.3333L13546.4315,-3458.3307L13546.4376,-3458.3287L13546.4324,-3458.3167L13546.4314,-3458.316L13546.4301,-3458.3158L13546.4288,-3458.3158L13546.3599,-3458.3333L13546.3314,-3458.3406L13546.2805,-3458.3535L13546.2796,-3458.3539L13546.2793,-3458.3544L13546.2799,-3458.3563L13546.2753,-3458.3575L13546.2747,-3458.3558L13546.2744,-3458.3553L13546.2737,-3458.3552L13546.0724,-3458.4069L13546.0567,-3458.411L13546.0566,-3458.411L13546.0242,-3458.4195L13546.0064,-3458.4242L13546.0057,-3458.4243L13545.8856,-3458.4551L13545.884,-3458.4515L13545.8884,-3458.4502L13545.8864,-3458.4456L13545.8743,-3458.4486L13545.8778,-3458.4569L13545.852,-3458.4637L13545.8505,-3458.4594L13545.8527,-3458.4588L13545.8512,-3458.4542L13545.8427,-3458.4564L13545.8458,-3458.4654L13545.8333,-3458.4686L13545.7868,-3458.4805L13545.7767,-3458.483L13545.7733,-3458.4746L13545.7693,-3458.4757L13545.7722,-3458.4843L13545.6915,-3458.5048L13545.6881,-3458.4966L13545.6731,-3458.5005L13545.6759,-3458.5083L13545.5515,-3458.5398L13545.5462,-3458.5411L13545.5347,-3458.544L13545.5301,-3458.5452L13545.4966,-3458.5537L13545.4922,-3458.5548L13545.4915,-3458.553L13545.4866,-3458.5543L13545.4873,-3458.5563L13545.4754,-3458.5592L13545.4747,-3458.5576L13545.4586,-3458.5617L13545.4591,-3458.5633L13545.4175,-3458.5739L13545.4171,-3458.5727L13545.4096,-3458.5746L13545.4102,-3458.5765L13545.3798,-3458.584L13545.3784,-3458.5843L13545.3437,-3458.5928L13545.3431,-3458.5908L13545.2117,-3458.625L13545.2124,-3458.6265L13545.1883,-3458.6334L13545.1643,-3458.6399L13545.1389,-3458.6464L13545.0138,-3458.6782L13545,-3458.6817L13544.9444,-3458.6956L13544.939,-3458.6971L13544.9356,-3458.6987L13544.9331,-3458.7003L13544.9309,-3458.7021L13544.9295,-3458.7046L13544.9291,-3458.7078L13544.9297,-3458.7102L13544.9307,-3458.712L13545,-3458.7758L13545.0619,-3458.8329L13545.2092,-3458.9665L13545.2107,-3458.9679L13545.2376,-3458.9933L13545.2407,-3458.9953L13545.2435,-3458.9968L13545.2454,-3458.9974L13545.2468,-3458.9974L13545.2496,-3458.9975L13545.252,-3458.9976L13545.2554,-3458.9973L13545.2586,-3458.9968L13545.4941,-3458.9365L13545.8333,-3458.8497L13546.0613,-3458.7913L13546.0622,-3458.7902L13546.0633,-3458.7743L13546.158,-3458.754L13546.2332,-3458.7377L13546.2574,-3458.77L13546.2799,-3458.8L13546.2632,-3459.1572L13546.2334,-3459.1667L13546.095,-3459.2104L13546.0956,-3459.1929L13546.0911,-3459.1929L13546.0898,-3459.2342L13546.0941,-3459.2345L13546.0936,-3459.2403L13546.0718,-3459.2398L13546.0717,-3459.2425L13546.0939,-3459.243L13546.0932,-3459.2548L13546.0711,-3459.2542L13546.0709,-3459.2569L13546.0933,-3459.2575L13546.0933,-3459.258L13546.0924,-3459.272L13546.0687,-3459.2796L13546.0635,-3459.4069L13546.063,-3459.422L13546.0624,-3459.4383L13546.0597,-3459.4861L13545.9948,-3459.4857L13545.9948,-3459.4832L13545.9724,-3459.4829L13545.9789,-3459.3479L13545.9793,-3459.3474L13545.9799,-3459.3473L13545.9882,-3459.3474L13545.9885,-3459.3396L13545.9795,-3459.3392L13545.9791,-3459.3388L13545.9791,-3459.3381L13545.9829,-3459.2734L13545.9837,-3459.2575L13545.9883,-3459.1667L13545.9931,-3459.0714L13545.9469,-3459.0362L13545.9056,-3459.0058L13545.9042,-3459.006L13545.8333,-3459.0239L13545.8282,-3459.0252L13545.493,-3459.1102L13545.2706,-3459.1667L13545.2078,-3459.1826L13545.1775,-3459.1903L13545.156,-3459.1824L13545.111,-3459.1667L13545,-3459.1278L13544.979,-3459.1205L13544.7502,-3459.0403L13544.7491,-3459.0415L13544.7419,-3459.0392L13544.7318,-3459.0595L13544.7288,-3459.0587L13544.7384,-3459.0393L13544.7387,-3459.0388L13544.7346,-3459.0375L13544.732,-3459.0368L13544.7323,-3459.0359L13544.7015,-3459.0269L13544.7093,-3459.0097L13544.5765,-3458.969L13544.569,-3458.986L13544.5143,-3458.9692L13544.4298,-3458.9435L13544.4287,-3458.9461L13544.3993,-3458.9368L13544.4001,-3458.9345L13544.397,-3458.9336L13544.3943,-3458.9395L13544.3926,-3458.9398L13544.391,-3458.943L13544.3923,-3458.9435L13544.3814,-3458.964L13544.3548,-3459.0138L13544.3527,-3459.0136L13544.3472,-3459.0249L13544.3492,-3459.0259L13544.3394,-3459.0452L13544.3385,-3459.0469L13544.1667,-3458.9945L13544.1365,-3458.9854L13543.9453,-3458.9262L13543.9453,-3459.8958L13544.1152,-3459.845L13544.1155,-3459.8459L13544.1619,-3459.8321L13544.1614,-3459.8312L13544.1667,-3459.8297L13544.3389,-3459.7793L13544.3685,-3459.7702L13544.3828,-3459.7661L13544.3879,-3459.7678L13544.3938,-3459.7659L13544.4031,-3459.7699L13544.4683,-3459.7502L13544.4866,-3459.7923L13544.489,-3459.7915L13544.5091,-3459.7996L13544.5123,-3459.7987L13544.5143,-3459.8039L13544.5166,-3459.8031L13544.5249,-3459.823L13544.5401,-3459.8183L13544.5539,-3459.8507L13544.554,-3459.8527L13544.5632,-3459.8741L13544.5644,-3459.8997L13544.5624,-3459.9003L13544.5613,-3459.9012L13544.5609,-3459.9025L13544.5611,-3459.9043L13544.5706,-3459.926L13544.5683,-3459.9267L13544.6003,-3460L13544.6261,-3460.0592L13544.6275,-3460.0615L13544.6298,-3460.0631L13544.6329,-3460.0634L13544.6354,-3460.0629L13544.6465,-3460.0595L13544.6643,-3460.0958L13544.6378,-3460.1428L13544.6448,-3460.1591L13544.6466,-3460.1586L13544.6553,-3460.1789L13544.6538,-3460.1793L13544.6566,-3460.1861L13544.3905,-3460.2651L13544.3055,-3460.2903L13544.3037,-3460.2908L13544.1667,-3460.3314L13544.1039,-3460.35L13544.102,-3460.3505L13543.9453,-3460.3969L13543.9453,-3460.8215L13544.1344,-3460.8238L13544.1667,-3460.8249L13544.2458,-3460.8276L13544.4672,-3460.8317L13544.6539,-3460.8329L13544.7194,-3460.813L13544.8071,-3460.7918L13544.9607,-3460.7521L13545,-3460.7419L13545.0149,-3460.7381L13545.0769,-3460.7218L13545.26,-3460.6735L13545.3567,-3460.6473L13545.4356,-3460.6261L13545.5086,-3460.6052L13545.6074,-3460.5759L13545.6406,-3460.5661L13545.8083,-3460.5158L13545.8333,-3460.509L13545.858,-3460.5022L13545.9087,-3460.4884L13545.9089,-3460.4883L13545.9092,-3460.4882Z"/>
<path content="大阪府,,,堺市,堺区,27141" xlink:title="大阪府" d="M13543.9453,-3460.3835L13544.1667,-3460.3179L13544.3027,-3460.2776L13544.3008,-3460.2733L13544.2986,-3460.274L13544.2977,-3460.2719L13544.2941,-3460.273L13544.295,-3460.275L13544.2768,-3460.2804L13544.276,-3460.2786L13544.2723,-3460.2797L13544.273,-3460.2813L13544.2613,-3460.2848L13544.2604,-3460.2827L13544.2567,-3460.2838L13544.2576,-3460.2859L13544.2459,-3460.2894L13544.245,-3460.2873L13544.2412,-3460.2884L13544.2422,-3460.2906L13544.2307,-3460.294L13544.2299,-3460.292L13544.2261,-3460.2932L13544.2269,-3460.2952L13544.2099,-3460.3002L13544.209,-3460.298L13544.2054,-3460.299L13544.2064,-3460.3013L13544.1947,-3460.3047L13544.1938,-3460.3027L13544.1903,-3460.3038L13544.1911,-3460.3058L13544.1792,-3460.3093L13544.1783,-3460.3073L13544.1748,-3460.3084L13544.1757,-3460.3104L13544.1667,-3460.313L13544.1642,-3460.3138L13544.1633,-3460.3118L13544.1593,-3460.313L13544.1602,-3460.315L13544.1487,-3460.3184L13544.1478,-3460.3163L13544.144,-3460.3175L13544.145,-3460.3198L13544.128,-3460.3249L13544.1271,-3460.3229L13544.1237,-3460.3239L13544.1245,-3460.3258L13544.1126,-3460.3293L13544.1117,-3460.3272L13544.1083,-3460.3282L13544.1091,-3460.3301L13544.0966,-3460.3338L13544.0956,-3460.3316L13544.0926,-3460.3325L13544.0935,-3460.3346L13544.0817,-3460.3381L13544.0807,-3460.336L13544.0775,-3460.3369L13544.0785,-3460.3393L13544.0663,-3460.3429L13544.0655,-3460.341L13544.0621,-3460.342L13544.0629,-3460.3439L13544.0456,-3460.3491L13544.0446,-3460.3469L13544.0414,-3460.3479L13544.0423,-3460.3499L13544.0302,-3460.3535L13544.0293,-3460.3513L13544.0259,-3460.3523L13544.0269,-3460.3546L13544.0148,-3460.3581L13544.0139,-3460.3561L13544.0108,-3460.357L13544.0117,-3460.3591L13543.9996,-3460.3627L13543.9987,-3460.3606L13543.9954,-3460.3616L13543.9962,-3460.3636L13543.9842,-3460.3672L13543.9833,-3460.3653L13543.9799,-3460.3663L13543.9807,-3460.3682L13543.9637,-3460.3732L13543.9629,-3460.3713L13543.9597,-3460.3722L13543.9606,-3460.3742L13543.9482,-3460.3779L13543.9474,-3460.3761L13543.9453,-3460.3767Z"/>
<path content="大阪府,,,堺市,堺区,27141" xlink:title="大阪府" d="M13545.8996,-3458.3432L13545.8967,-3458.3426L13545.893,-3458.3436L13545.89,-3458.3449L13545.8887,-3458.3469L13545.8878,-3458.3508L13545.8898,-3458.3531L13545.8921,-3458.3537L13545.8961,-3458.3531L13545.9009,-3458.352L13545.9028,-3458.351L13545.9046,-3458.3481L13545.9043,-3458.347L13545.8996,-3458.3432Z"/>
<path content="大阪府,,,堺市,中区,27142" xlink:title="大阪府" d="M13550.8796,-3454.751L13550.91,-3454.7199L13550.9421,-3454.745L13550.9256,-3454.7616L13550.9176,-3454.7693L13550.9335,-3454.7735L13550.9431,-3454.7769L13550.9602,-3454.7761L13550.974,-3454.7665L13550.988,-3454.7396L13551.0416,-3454.6922L13551.0884,-3454.6497L13551.1137,-3454.6294L13551.1525,-3454.6037L13551.1566,-3454.5958L13551.1658,-3454.5769L13551.1852,-3454.536L13551.1941,-3454.5204L13551.203,-3454.509L13551.2404,-3454.4727L13551.269,-3454.4435L13551.2855,-3454.3978L13551.301,-3454.3737L13551.3179,-3454.3571L13551.3351,-3454.3445L13551.3433,-3454.3322L13551.3589,-3454.306L13551.369,-3454.2911L13551.3905,-3454.261L13551.4078,-3454.2408L13551.438,-3454.2025L13551.4615,-3454.1732L13551.4664,-3454.1667L13551.4867,-3454.1399L13551.4974,-3454.1241L13551.5058,-3454.1086L13551.5112,-3454.1016L13548.3369,-3454.1016L13548.3333,-3454.1077L13548.3314,-3454.1109L13548.3333,-3454.112L13548.3565,-3454.1246L13548.4307,-3454.1431L13548.4277,-3454.1536L13548.4603,-3454.1611L13548.4645,-3454.1536L13548.495,-3454.1638L13548.5049,-3454.1667L13548.5576,-3454.182L13548.573,-3454.1823L13548.5863,-3454.1855L13548.635,-3454.2055L13548.6713,-3454.192L13548.6967,-3454.1885L13548.7527,-3454.193L13548.7651,-3454.205L13548.7742,-3454.2064L13548.8044,-3454.2055L13548.8642,-3454.2067L13548.8796,-3454.2109L13548.9134,-3454.2349L13548.9711,-3454.2257L13549.0084,-3454.2326L13549.0248,-3454.1966L13549.0667,-3454.2095L13549.1583,-3454.2382L13549.1667,-3454.2408L13549.1837,-3454.246L13549.2389,-3454.2634L13549.2771,-3454.2757L13549.2981,-3454.2813L13549.4194,-3454.3243L13549.4513,-3454.3358L13549.4817,-3454.3492L13549.5058,-3454.3618L13549.5267,-3454.3747L13549.5759,-3454.4059L13549.6113,-3454.4274L13549.6654,-3454.4612L13549.6875,-3454.4755L13549.6924,-3454.5384L13549.6949,-3454.5634L13549.7407,-3454.5568L13549.783,-3454.5518L13549.8332,-3454.5501L13549.879,-3454.5487L13549.9358,-3454.5482L13549.9753,-3454.5529L13549.9965,-3454.5527L13550,-3454.5522L13550.0246,-3454.5483L13550.0404,-3454.5473L13550.0509,-3454.5502L13550.0665,-3454.5608L13550.1114,-3454.5688L13550.12,-3454.5695L13550.1302,-3454.592L13550.1518,-3454.634L13550.1574,-3454.6489L13550.1595,-3454.6631L13550.158,-3454.6763L13550.153,-3454.6977L13550.1724,-3454.7127L13550.2066,-3454.7364L13550.2482,-3454.7648L13550.2965,-3454.7996L13550.35,-3454.8356L13550.4639,-3454.9189L13550.5149,-3454.958L13550.551,-3454.9871L13550.5667,-3455L13550.5833,-3455.0136L13550.5998,-3455L13550.6215,-3454.9821L13550.704,-3454.9121L13550.7452,-3454.8767L13550.8154,-3454.813L13550.8333,-3454.7968L13550.8357,-3454.7946L13550.8796,-3454.751Z"/>
<path content="大阪府,,,堺市,東区,27143" xlink:title="大阪府" d="M13550.8154,-3454.813L13550.8333,-3454.8217L13550.8592,-3454.8342L13550.8794,-3454.8399L13550.8957,-3454.8434L13550.9247,-3454.8532L13550.9459,-3454.8654L13550.97,-3454.8754L13551.002,-3454.8756L13551.0174,-3454.8801L13551.0341,-3454.8906L13551.0838,-3454.9235L13551.1091,-3454.94L13551.1179,-3454.944L13551.1254,-3454.9445L13551.1369,-3454.9367L13551.1517,-3454.9255L13551.1665,-3454.9095L13551.1708,-3454.9048L13551.1777,-3454.9053L13551.1837,-3454.9083L13551.2173,-3454.9285L13551.1892,-3454.9662L13551.2269,-3454.9841L13551.2306,-3454.9861L13551.2352,-3455L13551.2369,-3455.0051L13551.2357,-3455.026L13551.2796,-3455L13551.3059,-3454.9844L13551.4056,-3454.9262L13551.4626,-3454.8936L13551.488,-3454.8751L13551.5082,-3454.8594L13551.6667,-3454.7681L13551.6875,-3454.7561L13551.8018,-3454.692L13551.8245,-3454.7235L13551.8317,-3454.7235L13551.8453,-3454.7197L13551.865,-3454.7092L13551.8728,-3454.717L13551.9104,-3454.7157L13551.9156,-3454.7175L13551.9228,-3454.7312L13551.931,-3454.7504L13551.9403,-3454.7841L13551.9427,-3454.7923L13551.943,-3454.801L13551.9391,-3454.8093L13551.9298,-3454.8197L13551.9171,-3454.8347L13551.9467,-3454.834L13551.969,-3454.8322L13551.9941,-3454.8312L13552.0004,-3454.832L13552.0026,-3454.8347L13552.006,-3454.8422L13552.0233,-3454.8611L13552.0311,-3454.8686L13551.9722,-3454.9168L13551.9569,-3454.9305L13551.9373,-3454.9587L13551.9358,-3455L13551.9355,-3455.0073L13551.9358,-3455.0347L13551.9775,-3455.0352L13551.9989,-3455.0362L13552.0088,-3455.0435L13552.0157,-3455.0522L13552.0625,-3455.0647L13552.0825,-3455.0699L13552.1063,-3455.0737L13552.1242,-3455.0724L13552.1426,-3455.0684L13552.1565,-3455.0697L13552.1968,-3455.0739L13552.2315,-3455.1076L13552.2602,-3455.1343L13552.2889,-3455.1151L13552.3285,-3455.1133L13552.3414,-3455.1173L13552.3694,-3455.1395L13552.3758,-3455.1467L13552.3746,-3455.1757L13552.3855,-3455.1941L13552.3995,-3455.2156L13552.4158,-3455.2218L13552.4348,-3455.229L13552.4599,-3455.2266L13552.485,-3455.2193L13552.5,-3455.2138L13552.5067,-3455.2113L13552.5252,-3455.2059L13552.5312,-3455.2041L13552.5357,-3455.2161L13552.5602,-3455.2046L13552.5823,-3455.2029L13552.6055,-3455.2064L13552.677,-3455.2136L13552.7153,-3455.238L13552.7344,-3455.2475L13552.7344,-3454.1016L13551.5112,-3454.1016L13551.5058,-3454.1086L13551.4974,-3454.1241L13551.4867,-3454.1399L13551.4664,-3454.1667L13551.4615,-3454.1732L13551.438,-3454.2025L13551.4078,-3454.2408L13551.3905,-3454.261L13551.369,-3454.2911L13551.3589,-3454.306L13551.3433,-3454.3322L13551.3351,-3454.3445L13551.3179,-3454.3571L13551.301,-3454.3737L13551.2855,-3454.3978L13551.269,-3454.4435L13551.2404,-3454.4727L13551.203,-3454.509L13551.1941,-3454.5204L13551.1852,-3454.536L13551.1658,-3454.5769L13551.1566,-3454.5958L13551.1525,-3454.6037L13551.1137,-3454.6294L13551.0884,-3454.6497L13551.0416,-3454.6922L13550.988,-3454.7396L13550.974,-3454.7665L13550.9602,-3454.7761L13550.9431,-3454.7769L13550.9335,-3454.7735L13550.9176,-3454.7693L13550.9256,-3454.7616L13550.9421,-3454.745L13550.91,-3454.7199L13550.8796,-3454.751L13550.8357,-3454.7946L13550.8333,-3454.7968L13550.8154,-3454.813Z"/>
<path content="大阪府,,,堺市,西区,27144" xlink:title="大阪府" d="M13543.9453,-3458.2878L13543.9568,-3458.2883L13544.0786,-3458.294L13544.1463,-3458.2968L13544.1476,-3458.2968L13544.1496,-3458.2958L13544.1509,-3458.2949L13544.1667,-3458.2386L13544.1747,-3458.2098L13544.1849,-3458.1748L13544.1854,-3458.1743L13544.1866,-3458.1739L13544.187,-3458.1733L13544.189,-3458.1664L13544.1887,-3458.1657L13544.1879,-3458.1647L13544.1879,-3458.164L13544.2385,-3457.9933L13544.2384,-3457.9919L13544.2378,-3457.9904L13544.238,-3457.9896L13544.2423,-3457.981L13544.2425,-3457.9795L13544.2436,-3457.9757L13544.2435,-3457.9748L13544.242,-3457.9736L13544.2418,-3457.9728L13544.2441,-3457.9623L13544.245,-3457.9582L13544.2478,-3457.945L13544.2485,-3457.9442L13544.2502,-3457.9431L13544.2521,-3457.9412L13544.2527,-3457.9393L13544.2531,-3457.9379L13544.2534,-3457.9377L13544.2549,-3457.9377L13544.2554,-3457.9372L13544.2554,-3457.9362L13544.255,-3457.9358L13544.2539,-3457.9354L13544.2535,-3457.9351L13544.2559,-3457.9256L13544.2565,-3457.9253L13544.2575,-3457.9252L13544.2581,-3457.9247L13544.2589,-3457.9228L13544.2591,-3457.9218L13544.2588,-3457.9204L13544.2559,-3457.9161L13544.2541,-3457.9157L13544.254,-3457.9164L13544.2371,-3457.914L13544.2399,-3457.8974L13544.2459,-3457.8622L13544.2693,-3457.864L13544.2711,-3457.8644L13544.2733,-3457.8648L13544.2741,-3457.8645L13544.2746,-3457.864L13544.2763,-3457.8602L13544.2821,-3457.8419L13544.3088,-3457.7418L13544.3092,-3457.7409L13544.3104,-3457.7399L13544.3117,-3457.7388L13544.3126,-3457.7341L13544.3122,-3457.7332L13544.3113,-3457.7326L13544.3113,-3457.7325L13544.3219,-3457.6764L13544.3228,-3457.6748L13544.3232,-3457.6746L13544.3281,-3457.6753L13544.3285,-3457.6752L13544.329,-3457.6747L13544.3388,-3457.645L13544.3389,-3457.6442L13544.3386,-3457.6437L13544.3369,-3457.6432L13544.3424,-3457.6297L13544.3426,-3457.6292L13544.3424,-3457.6285L13544.3417,-3457.6281L13544.3258,-3457.624L13544.3279,-3457.6192L13544.3287,-3457.6174L13544.3364,-3457.5922L13544.3454,-3457.5924L13544.3485,-3457.5728L13544.349,-3457.5692L13544.361,-3457.5L13544.3763,-3457.4113L13544.3803,-3457.3908L13544.3786,-3457.3903L13544.382,-3457.3715L13544.4236,-3457.3767L13544.4235,-3457.3775L13544.4316,-3457.3786L13544.433,-3457.3707L13544.4209,-3457.3691L13544.4152,-3457.3683L13544.3845,-3457.3642L13544.4391,-3457.0465L13544.4394,-3457.045L13544.4416,-3457.0322L13544.4418,-3457.0307L13544.4518,-3456.9726L13544.4548,-3456.973L13544.4654,-3456.9097L13544.4601,-3456.9091L13544.4625,-3456.8938L13544.4628,-3456.8923L13544.4632,-3456.8884L13544.4634,-3456.8876L13544.4637,-3456.8874L13544.464,-3456.8873L13544.4652,-3456.8879L13544.4657,-3456.888L13544.5025,-3456.8803L13544.5031,-3456.8801L13544.5035,-3456.8798L13544.5039,-3456.8794L13544.5043,-3456.8788L13544.5044,-3456.8784L13544.5045,-3456.8775L13544.508,-3456.8591L13544.5193,-3456.8038L13544.5297,-3456.7411L13544.4957,-3456.7247L13544.494,-3456.7238L13544.4934,-3456.7235L13544.4966,-3456.701L13544.547,-3456.686L13544.5492,-3456.6856L13544.5753,-3456.6777L13544.5785,-3456.6767L13544.5948,-3456.6718L13544.5982,-3456.6711L13544.6093,-3456.6678L13544.6107,-3456.6674L13544.6133,-3456.6667L13544.6149,-3456.6662L13544.6162,-3456.6667L13544.6194,-3456.6679L13544.6469,-3456.6784L13544.6474,-3456.68L13544.6939,-3456.6667L13544.7098,-3456.6621L13544.7095,-3456.6612L13544.7726,-3456.6426L13544.772,-3456.6406L13544.7837,-3456.637L13544.8652,-3456.612L13544.8593,-3456.5989L13544.8591,-3456.5982L13544.8586,-3456.5961L13544.8593,-3456.5939L13544.8613,-3456.5924L13544.9813,-3456.5568L13544.9842,-3456.556L13545,-3456.5511L13545.0056,-3456.5494L13545.006,-3456.5506L13545.0114,-3456.5491L13545.0112,-3456.5486L13545.0109,-3456.5477L13545.0276,-3456.5428L13545.0642,-3456.5321L13545.0647,-3456.532L13545.1492,-3456.5069L13545.2255,-3456.4832L13545.2368,-3456.4797L13545.2565,-3456.5158L13545.253,-3456.517L13545.2716,-3456.5497L13545.277,-3456.5478L13545.2783,-3456.5498L13545.2803,-3456.5527L13545.2873,-3456.5498L13545.3024,-3456.5437L13545.307,-3456.5499L13545.3154,-3456.5612L13545.2917,-3456.5703L13545.2981,-3456.5824L13545.2917,-3456.5848L13545.2922,-3456.5858L13545.2925,-3456.5863L13545.309,-3456.6158L13545.3094,-3456.6164L13545.3098,-3456.6171L13545.3163,-3456.6147L13545.3334,-3456.644L13545.3331,-3456.649L13545.5437,-3456.5714L13545.5061,-3456.4978L13545.4727,-3456.4396L13545.742,-3456.3203L13545.7446,-3456.3191L13545.8333,-3456.2804L13545.8357,-3456.2794L13545.8333,-3456.2752L13545.8124,-3456.2393L13545.8333,-3456.2298L13545.896,-3456.2011L13545.8989,-3456.2051L13545.9669,-3456.1676L13545.9826,-3456.1615L13545.9963,-3456.1604L13546.016,-3456.1819L13546.0426,-3456.1796L13546.1119,-3456.1741L13546.1808,-3456.1678L13546.2156,-3456.1668L13546.1845,-3456.129L13546.2366,-3456.1004L13546.2929,-3456.066L13546.3544,-3456.0378L13546.3362,-3455.9958L13546.3207,-3455.9479L13546.3079,-3455.9093L13546.2804,-3455.8333L13546.2764,-3455.8223L13546.25,-3455.7452L13546.2201,-3455.6569L13546.1888,-3455.5686L13546.1789,-3455.5362L13546.1732,-3455.51L13546.103,-3455.5033L13546.0023,-3455.4895L13546.0215,-3455.4517L13545.9895,-3455.447L13546.0031,-3455.4139L13546.0353,-3455.4161L13546.0364,-3455.3933L13546.0469,-3455.3938L13546.0502,-3455.3842L13546.071,-3455.3761L13546.0712,-3455.3401L13546.0861,-3455.3307L13546.1142,-3455.3352L13546.1199,-3455.3191L13546.0257,-3455.2968L13546.0449,-3455.2854L13546.0763,-3455.2737L13546.1152,-3455.2681L13546.1948,-3455.2594L13546.2311,-3455.2576L13546.2355,-3455.2572L13546.2512,-3455.1767L13546.2626,-3455.1295L13546.2833,-3455.0495L13546.288,-3455.0146L13546.2931,-3455L13546.3086,-3454.9545L13546.3418,-3454.8552L13546.3685,-3454.7958L13546.3708,-3454.6608L13546.3698,-3454.5885L13546.3686,-3454.5671L13546.4125,-3454.576L13546.4355,-3454.5809L13546.426,-3454.6096L13546.5314,-3454.6335L13546.5206,-3454.6748L13546.5136,-3454.7055L13546.5729,-3454.7175L13546.6531,-3454.7504L13546.6667,-3454.7462L13546.7049,-3454.7345L13546.6911,-3454.7857L13546.7772,-3454.8029L13546.8233,-3454.8114L13546.8393,-3454.7719L13546.8815,-3454.7683L13546.881,-3454.7989L13546.8609,-3454.8345L13546.8133,-3454.8213L13546.7074,-3454.7994L13546.6817,-3454.7942L13546.6667,-3454.8075L13546.6549,-3454.8179L13546.6667,-3454.8207L13546.6985,-3454.8282L13546.685,-3454.8559L13546.7322,-3454.8662L13546.713,-3454.8792L13546.707,-3454.8953L13546.694,-3454.9116L13546.6786,-3454.9248L13546.7004,-3454.927L13546.7029,-3455L13546.7031,-3455.0059L13546.6793,-3455.0124L13546.6902,-3455.0421L13546.6667,-3455.0456L13546.6523,-3455.0477L13546.6104,-3455.0584L13546.6201,-3455.0804L13546.6174,-3455.1027L13546.6374,-3455.1058L13546.6536,-3455.1483L13546.6625,-3455.1611L13546.6667,-3455.1603L13546.6885,-3455.1564L13546.7261,-3455.1423L13546.7455,-3455.1353L13546.7715,-3455.128L13546.7975,-3455.1264L13546.8031,-3455.1262L13546.8383,-3455.136L13546.8651,-3455.1441L13546.8823,-3455.1519L13546.9026,-3455.166L13546.9235,-3455.1718L13546.9454,-3455.1731L13546.971,-3455.1731L13546.9969,-3455.1695L13547.0171,-3455.1622L13547.034,-3455.1805L13547.0495,-3455.1725L13547.0532,-3455.1734L13547.0996,-3455.1716L13547.1261,-3455.1709L13547.1691,-3455.1673L13547.191,-3455.1666L13547.2132,-3455.1666L13547.2547,-3455.1736L13547.2631,-3455.17L13547.2761,-3455.1564L13547.2786,-3455.1369L13547.3149,-3455.136L13547.3146,-3455.1463L13547.3501,-3455.1461L13547.3498,-3455.1637L13547.3603,-3455.1935L13547.3789,-3455.2429L13547.3729,-3455.2518L13547.3718,-3455.2854L13547.4516,-3455.2845L13547.4835,-3455.3276L13547.5,-3455.3506L13547.5484,-3455.4181L13547.5981,-3455.4859L13547.6475,-3455.5547L13547.692,-3455.6162L13547.6996,-3455.6209L13547.7172,-3455.6272L13547.7397,-3455.6287L13547.7919,-3455.6325L13547.8142,-3455.6343L13547.8351,-3455.6341L13547.8546,-3455.6307L13547.8863,-3455.6213L13547.8994,-3455.6153L13547.9584,-3455.6285L13547.9793,-3455.6321L13548.0007,-3455.6327L13548.0505,-3455.6323L13548.1561,-3455.6305L13548.1217,-3455.5858L13548.115,-3455.4879L13548.1125,-3455.4286L13548.1146,-3455.4079L13548.1228,-3455.3739L13548.1302,-3455.3388L13548.1623,-3455.3336L13548.1655,-3455.3068L13548.1672,-3455.2719L13548.2016,-3455.2115L13548.256,-3455.1159L13548.2843,-3455.0666L13548.3241,-3455L13548.3272,-3454.9947L13548.3333,-3454.9838L13548.3661,-3454.9252L13548.41,-3454.9147L13548.4748,-3454.8913L13548.5394,-3454.8665L13548.5879,-3454.8433L13548.6284,-3454.8197L13548.6567,-3454.8012L13548.7007,-3454.7655L13548.7273,-3454.7378L13548.7643,-3454.6952L13548.7915,-3454.6597L13548.8192,-3454.6157L13548.8558,-3454.5567L13548.9099,-3454.4613L13548.9091,-3454.4459L13548.9356,-3454.3853L13548.9665,-3454.3212L13549,-3454.2509L13549.0084,-3454.2326L13548.9711,-3454.2257L13548.9134,-3454.2349L13548.8796,-3454.2109L13548.8642,-3454.2067L13548.8044,-3454.2055L13548.7742,-3454.2064L13548.7651,-3454.205L13548.7527,-3454.193L13548.6967,-3454.1885L13548.6713,-3454.192L13548.635,-3454.2055L13548.5863,-3454.1855L13548.573,-3454.1823L13548.5576,-3454.182L13548.5049,-3454.1667L13548.495,-3454.1638L13548.4645,-3454.1536L13548.4603,-3454.1611L13548.4277,-3454.1536L13548.4307,-3454.1431L13548.3565,-3454.1246L13548.3333,-3454.112L13548.3314,-3454.1109L13548.3333,-3454.1077L13548.3369,-3454.1016L13543.9453,-3454.1016L13543.9453,-3454.3722L13544.0522,-3454.5343L13544.1667,-3454.7123L13544.1782,-3454.7302L13544.1797,-3454.7324L13544.181,-3454.7342L13544.2076,-3454.775L13544.2119,-3454.7807L13544.215,-3454.7855L13544.2129,-3454.7859L13544.2142,-3454.7943L13544.212,-3454.7965L13544.212,-3454.8028L13544.212,-3454.8034L13544.2173,-3454.8185L13544.2201,-3454.8266L13544.2266,-3454.8449L13544.2268,-3454.8455L13544.2297,-3454.8538L13544.2306,-3454.8574L13544.2407,-3454.8628L13544.243,-3454.8632L13544.2526,-3454.891L13544.2528,-3454.8923L13544.2649,-3454.9278L13544.2649,-3454.9298L13544.265,-3454.9371L13544.261,-3454.937L13544.2626,-3455L13544.2628,-3455.0083L13544.266,-3455.0083L13544.2661,-3455.028L13544.2663,-3455.0414L13544.2663,-3455.0508L13544.3291,-3455.0879L13544.3181,-3455.1004L13544.3197,-3455.102L13544.3312,-3455.089L13544.338,-3455.093L13544.3711,-3455.1131L13544.3732,-3455.1182L13544.3663,-3455.1198L13544.3672,-3455.1214L13544.3706,-3455.1305L13544.373,-3455.1372L13544.3755,-3455.1439L13544.3783,-3455.1515L13544.3845,-3455.15L13544.4002,-3455.1935L13544.4196,-3455.2472L13544.4165,-3455.2479L13544.389,-3455.2547L13544.3597,-3455.2622L13544.3636,-3455.2744L13544.3685,-3455.2876L13544.3686,-3455.2885L13544.3722,-3455.2984L13544.3726,-3455.2993L13544.3766,-3455.3107L13544.3768,-3455.3115L13544.3811,-3455.3228L13544.3814,-3455.3237L13544.3854,-3455.3347L13544.3857,-3455.3359L13544.3926,-3455.3559L13544.393,-3455.3572L13544.4017,-3455.3815L13544.4034,-3455.3812L13544.4078,-3455.3938L13544.3474,-3455.4075L13544.3457,-3455.4079L13544.34,-3455.4092L13544.3379,-3455.4104L13544.2931,-3455.4205L13544.2899,-3455.4216L13544.2883,-3455.4225L13544.2863,-3455.4241L13544.2862,-3455.4252L13544.2852,-3455.4266L13544.2891,-3455.5058L13544.2929,-3455.5703L13544.2956,-3455.6192L13544.2997,-3455.6188L13544.297,-3455.5701L13544.2934,-3455.5058L13544.2902,-3455.4369L13544.3052,-3455.4333L13544.3353,-3455.4263L13544.3384,-3455.4254L13544.3407,-3455.425L13544.3607,-3455.4211L13544.362,-3455.4208L13544.3864,-3455.4152L13544.4225,-3455.5143L13544.4482,-3455.5079L13544.4516,-3455.5178L13544.4523,-3455.5194L13544.4533,-3455.5202L13544.4548,-3455.521L13544.4585,-3455.5307L13544.4069,-3455.5428L13544.4076,-3455.545L13544.4593,-3455.5329L13544.469,-3455.5587L13544.4696,-3455.5608L13544.4697,-3455.5616L13544.4697,-3455.5624L13544.4702,-3455.5638L13544.469,-3455.5658L13544.4243,-3455.5763L13544.4338,-3455.604L13544.4149,-3455.6083L13544.4179,-3455.6172L13544.4369,-3455.6126L13544.4457,-3455.6382L13544.4458,-3455.639L13544.3986,-3455.6392L13544.3739,-3455.625L13544.3724,-3455.6267L13544.3972,-3455.6415L13544.4498,-3455.6419L13544.4536,-3455.6444L13544.4661,-3455.6832L13544.4786,-3455.7221L13544.4696,-3455.7245L13544.462,-3455.7265L13544.4486,-3455.73L13544.4108,-3455.7398L13544.4103,-3455.7399L13544.3735,-3455.7492L13544.3514,-3455.7553L13544.3303,-3455.7607L13544.2881,-3455.7716L13544.2453,-3455.7828L13544.202,-3455.7941L13544.1803,-3455.7999L13544.1667,-3455.8033L13544.1591,-3455.8051L13544.1183,-3455.8157L13544.0719,-3455.8274L13544.0582,-3455.8311L13544.0501,-3455.8333L13544.0447,-3455.8348L13544.0441,-3455.8333L13544.0347,-3455.8086L13544.0411,-3455.804L13544.0796,-3455.7943L13544.0738,-3455.78L13544.0208,-3455.7939L13544.0268,-3455.8091L13544.0279,-3455.8095L13544.0363,-3455.8323L13544.0367,-3455.8333L13544.038,-3455.8367L13544.0033,-3455.8455L13543.9987,-3455.8333L13543.9972,-3455.8296L13543.9992,-3455.8292L13543.9969,-3455.8233L13543.99,-3455.825L13543.9923,-3455.8309L13543.9942,-3455.8303L13543.9949,-3455.8301L13543.9962,-3455.8333L13543.9996,-3455.8417L13544.0014,-3455.8461L13543.9632,-3455.8563L13543.956,-3455.8392L13543.9453,-3455.8421Z"/>
<path content="大阪府,,,堺市,西区,27144" xlink:title="大阪府" d="M13543.9453,-3455.4835L13544.0754,-3455.4493L13544.0751,-3455.426L13544.0959,-3455.4259L13544.0884,-3455.1921L13544.0883,-3455.1888L13544.0883,-3455.1868L13544.0852,-3455.0643L13544.0852,-3455.063L13544.0851,-3455.0612L13544.0845,-3455.0351L13544.0844,-3455.0332L13544.0836,-3455L13544.0826,-3454.9594L13544.0814,-3454.9258L13544.0616,-3454.9259L13544.0611,-3454.9127L13544.061,-3454.9089L13544.0595,-3454.883L13544.0594,-3454.8811L13544.059,-3454.8738L13544.0623,-3454.8732L13544.07,-3454.8718L13544.0759,-3454.8708L13544.0751,-3454.8681L13544.0708,-3454.8522L13544.0688,-3454.844L13544.065,-3454.8288L13544.065,-3454.8285L13544.065,-3454.8266L13544.0649,-3454.8246L13544.015,-3454.8331L13544.0142,-3454.8316L13544.0131,-3454.8292L13544.0074,-3454.8206L13544.0046,-3454.8158L13544.0022,-3454.8119L13544.0007,-3454.8102L13543.9453,-3454.7266Z"/>
<path content="大阪府,,,堺市,北区,27146" xlink:title="大阪府" d="M13552.2796,-3458.6252L13552.2799,-3458.5874L13552.2799,-3458.5701L13552.2658,-3458.5673L13552.2381,-3458.5618L13552.2309,-3458.5594L13552.2309,-3458.5534L13552.2325,-3458.5299L13552.2331,-3458.5213L13552.2338,-3458.5105L13552.2331,-3458.492L13552.2331,-3458.4568L13552.2345,-3458.4007L13552.2347,-3458.3899L13552.2353,-3458.359L13552.2335,-3458.3333L13552.2316,-3458.3065L13552.2287,-3458.2692L13552.231,-3458.2497L13552.2327,-3458.2343L13552.2338,-3458.2251L13552.2367,-3458.2084L13552.2353,-3458.1929L13552.2345,-3458.1344L13552.2343,-3458.1199L13552.2338,-3458.0875L13552.2331,-3458.0441L13552.2345,-3458.0226L13552.2316,-3458.0047L13552.236,-3457.985L13552.2367,-3457.9313L13552.2403,-3457.8946L13552.2374,-3457.8749L13552.2394,-3457.7904L13552.2403,-3457.7497L13552.2422,-3457.6757L13552.2425,-3457.6656L13552.2865,-3457.6623L13552.3542,-3457.6593L13552.3677,-3457.6599L13552.383,-3457.6605L13552.5,-3457.6605L13552.5611,-3457.6605L13552.5799,-3457.6623L13552.6055,-3457.6633L13552.6541,-3457.6653L13552.7107,-3457.6657L13552.7125,-3457.6657L13552.7267,-3457.6658L13552.7319,-3457.6659L13552.7344,-3457.6659L13552.7344,-3455.2475L13552.7153,-3455.238L13552.677,-3455.2136L13552.6055,-3455.2064L13552.5823,-3455.2029L13552.5602,-3455.2046L13552.5357,-3455.2161L13552.5312,-3455.2041L13552.5252,-3455.2059L13552.5067,-3455.2113L13552.5,-3455.2138L13552.485,-3455.2193L13552.4599,-3455.2266L13552.4348,-3455.229L13552.4158,-3455.2218L13552.3995,-3455.2156L13552.3855,-3455.1941L13552.3746,-3455.1757L13552.3758,-3455.1467L13552.3694,-3455.1395L13552.3414,-3455.1173L13552.3285,-3455.1133L13552.2889,-3455.1151L13552.2602,-3455.1343L13552.2315,-3455.1076L13552.1968,-3455.0739L13552.1565,-3455.0697L13552.1426,-3455.0684L13552.1242,-3455.0724L13552.1063,-3455.0737L13552.0825,-3455.0699L13552.0625,-3455.0647L13552.0157,-3455.0522L13552.0088,-3455.0435L13551.9989,-3455.0362L13551.9775,-3455.0352L13551.9358,-3455.0347L13551.9355,-3455.0073L13551.9358,-3455L13551.9373,-3454.9587L13551.9569,-3454.9305L13551.9722,-3454.9168L13552.0311,-3454.8686L13552.0233,-3454.8611L13552.006,-3454.8422L13552.0026,-3454.8347L13552.0004,-3454.832L13551.9941,-3454.8312L13551.969,-3454.8322L13551.9467,-3454.834L13551.9171,-3454.8347L13551.9298,-3454.8197L13551.9391,-3454.8093L13551.943,-3454.801L13551.9427,-3454.7923L13551.9403,-3454.7841L13551.931,-3454.7504L13551.9228,-3454.7312L13551.9156,-3454.7175L13551.9104,-3454.7157L13551.8728,-3454.717L13551.865,-3454.7092L13551.8453,-3454.7197L13551.8317,-3454.7235L13551.8245,-3454.7235L13551.8018,-3454.692L13551.6875,-3454.7561L13551.6667,-3454.7681L13551.5082,-3454.8594L13551.488,-3454.8751L13551.4626,-3454.8936L13551.4056,-3454.9262L13551.3059,-3454.9844L13551.2796,-3455L13551.2357,-3455.026L13551.2369,-3455.0051L13551.2352,-3455L13551.2306,-3454.9861L13551.2269,-3454.9841L13551.1892,-3454.9662L13551.2173,-3454.9285L13551.1837,-3454.9083L13551.1777,-3454.9053L13551.1708,-3454.9048L13551.1665,-3454.9095L13551.1517,-3454.9255L13551.1369,-3454.9367L13551.1254,-3454.9445L13551.1179,-3454.944L13551.1091,-3454.94L13551.0838,-3454.9235L13551.0341,-3454.8906L13551.0174,-3454.8801L13551.002,-3454.8756L13550.97,-3454.8754L13550.9459,-3454.8654L13550.9247,-3454.8532L13550.8957,-3454.8434L13550.8794,-3454.8399L13550.8592,-3454.8342L13550.8333,-3454.8217L13550.8154,-3454.813L13550.7452,-3454.8767L13550.704,-3454.9121L13550.6215,-3454.9821L13550.5998,-3455L13550.5833,-3455.0136L13550.5667,-3455L13550.551,-3454.9871L13550.5149,-3454.958L13550.4639,-3454.9189L13550.35,-3454.8356L13550.2965,-3454.7996L13550.2482,-3454.7648L13550.2066,-3454.7364L13550.1724,-3454.7127L13550.153,-3454.6977L13550.158,-3454.6763L13550.1595,-3454.6631L13550.1574,-3454.6489L13550.1518,-3454.634L13550.1302,-3454.592L13550.12,-3454.5695L13550.1114,-3454.5688L13550.0665,-3454.5608L13550.0509,-3454.5502L13550.0404,-3454.5473L13550.0246,-3454.5483L13550,-3454.5522L13549.9965,-3454.5527L13549.9753,-3454.5529L13549.9358,-3454.5482L13549.879,-3454.5487L13549.8332,-3454.5501L13549.783,-3454.5518L13549.7407,-3454.5568L13549.6949,-3454.5634L13549.6924,-3454.5384L13549.6875,-3454.4755L13549.6654,-3454.4612L13549.6113,-3454.4274L13549.5759,-3454.4059L13549.5267,-3454.3747L13549.5058,-3454.3618L13549.4817,-3454.3492L13549.4513,-3454.3358L13549.4194,-3454.3243L13549.2981,-3454.2813L13549.2771,-3454.2757L13549.2389,-3454.2634L13549.1837,-3454.246L13549.1667,-3454.2408L13549.1583,-3454.2382L13549.0667,-3454.2095L13549.0248,-3454.1966L13549.0084,-3454.2326L13549,-3454.2509L13548.9665,-3454.3212L13548.9356,-3454.3853L13548.9091,-3454.4459L13548.9099,-3454.4613L13548.8558,-3454.5567L13548.8192,-3454.6157L13548.7915,-3454.6597L13548.7643,-3454.6952L13548.7273,-3454.7378L13548.7007,-3454.7655L13548.6567,-3454.8012L13548.6284,-3454.8197L13548.5879,-3454.8433L13548.5394,-3454.8665L13548.4748,-3454.8913L13548.41,-3454.9147L13548.3661,-3454.9252L13548.3333,-3454.9838L13548.3272,-3454.9947L13548.3241,-3455L13548.2843,-3455.0666L13548.256,-3455.1159L13548.2016,-3455.2115L13548.2341,-3455.2394L13548.2898,-3455.281L13548.3333,-3455.3151L13548.3367,-3455.3177L13548.3604,-3455.3354L13548.376,-3455.3478L13548.4314,-3455.3899L13548.4803,-3455.4241L13548.505,-3455.4412L13548.5532,-3455.4763L13548.6154,-3455.5219L13548.6504,-3455.5468L13548.69,-3455.5753L13548.7209,-3455.6012L13548.7525,-3455.6263L13548.7748,-3455.6448L13548.7899,-3455.6566L13548.804,-3455.67L13548.8204,-3455.6852L13548.8424,-3455.7116L13548.8578,-3455.7297L13548.8813,-3455.7616L13548.9089,-3455.8046L13548.9258,-3455.8333L13548.9419,-3455.8605L13548.9501,-3455.8768L13548.9801,-3455.9328L13549.0028,-3455.9786L13549.0164,-3456.0077L13549.0496,-3456.0743L13549.0719,-3456.1149L13549.1139,-3456.2037L13549.1441,-3456.2662L13549.1667,-3456.3132L13549.1699,-3456.3199L13549.1862,-3456.3548L13549.2037,-3456.3951L13549.22,-3456.4305L13549.2466,-3456.492L13549.2582,-3456.5077L13549.2876,-3456.4812L13549.313,-3456.4637L13549.3615,-3456.4298L13549.4145,-3456.3859L13549.4466,-3456.3597L13549.5183,-3456.3051L13549.5325,-3456.2944L13549.6011,-3456.2398L13549.6811,-3456.1732L13549.7087,-3456.1518L13549.7464,-3456.1215L13549.7788,-3456.0974L13549.8299,-3456.0596L13549.8847,-3456.0193L13549.9418,-3455.9789L13549.9961,-3455.9388L13550,-3455.936L13550.0113,-3455.9276L13550.0418,-3455.9633L13550.0545,-3455.9689L13550.0643,-3455.9713L13550.0683,-3455.9738L13550.0706,-3455.977L13550.0733,-3455.9897L13550.0733,-3456.0279L13550.0736,-3456.0589L13550.0763,-3456.0682L13550.0855,-3456.074L13550.0924,-3456.0798L13550.0949,-3456.0857L13550.1008,-3456.1009L13550.107,-3456.1187L13550.1117,-3456.122L13550.1235,-3456.124L13550.172,-3456.1224L13550.1659,-3456.1463L13550.1626,-3456.1653L13550.1627,-3456.173L13550.1672,-3456.1803L13550.1673,-3456.1864L13550.1638,-3456.1906L13550.1561,-3456.1975L13550.0798,-3456.2708L13550.0941,-3456.3115L13550.0704,-3456.3334L13550.0062,-3456.3924L13550,-3456.3983L13549.9427,-3456.4522L13549.9282,-3456.4651L13549.9357,-3456.4741L13549.9404,-3456.4861L13549.9407,-3456.4944L13549.9349,-3456.507L13549.9248,-3456.5188L13549.9057,-3456.544L13549.893,-3456.5473L13549.8794,-3456.5562L13549.8704,-3456.5661L13549.8352,-3456.6155L13549.7964,-3456.6667L13549.7828,-3456.6845L13549.764,-3456.7087L13549.7792,-3456.7171L13549.7911,-3456.7268L13549.803,-3456.7369L13549.7921,-3456.7587L13549.7916,-3456.7831L13549.7968,-3456.8004L13549.8139,-3456.834L13549.8329,-3456.8734L13549.8366,-3456.8842L13549.7618,-3456.9083L13549.694,-3456.9316L13549.6309,-3456.9535L13549.6056,-3456.9626L13549.5668,-3457.0395L13549.5346,-3457.1005L13549.5788,-3457.188L13549.5988,-3457.2258L13549.6013,-3457.2519L13549.6452,-3457.3372L13549.6533,-3457.354L13549.6676,-3457.3792L13549.6852,-3457.41L13549.7244,-3457.4823L13549.7347,-3457.4985L13549.7355,-3457.5L13549.7927,-3457.6006L13549.8338,-3457.6702L13549.8368,-3457.6747L13549.8606,-3457.6744L13549.8609,-3457.6983L13549.8608,-3457.7096L13549.8845,-3457.7586L13549.9198,-3457.8313L13549.9275,-3457.8467L13549.9575,-3457.9038L13549.9971,-3457.9772L13550,-3457.9824L13550.0141,-3458.0077L13550.0389,-3458.0494L13550.0771,-3458.1227L13550.0851,-3458.1387L13550.118,-3458.1952L13550.1268,-3458.2111L13550.1591,-3458.2675L13550.1681,-3458.2832L13550.1827,-3458.3073L13550.2021,-3458.3333L13550.2269,-3458.3667L13550.2361,-3458.3752L13550.2326,-3458.4086L13550.2377,-3458.4173L13550.2476,-3458.4191L13550.2549,-3458.4446L13550.2581,-3458.461L13550.2612,-3458.4788L13550.2631,-3458.4977L13550.2689,-3458.5278L13550.2746,-3458.5588L13550.2779,-3458.576L13550.2777,-3458.6098L13550.2778,-3458.6161L13550.2869,-3458.6159L13550.3333,-3458.6154L13550.4078,-3458.6233L13550.4447,-3458.6301L13550.5151,-3458.6431L13550.5876,-3458.6599L13550.6306,-3458.6758L13550.6667,-3458.6943L13550.7316,-3458.7402L13550.7814,-3458.7688L13550.8081,-3458.7802L13550.8333,-3458.7899L13550.8839,-3458.8094L13550.9986,-3458.8571L13551.0802,-3458.8876L13551.1617,-3458.9203L13551.2565,-3458.9683L13551.2678,-3458.974L13551.3125,-3458.9991L13551.3803,-3459.0182L13551.4164,-3459.0307L13551.4784,-3459.0575L13551.4787,-3459.0576L13551.5088,-3459.0707L13551.5228,-3459.0776L13551.612,-3459.122L13551.6646,-3459.1506L13551.6667,-3459.152L13551.6874,-3459.1667L13551.7577,-3459.2162L13551.8054,-3459.2502L13551.8416,-3459.2725L13551.853,-3459.2794L13551.8854,-3459.2967L13551.9517,-3459.3249L13552.1187,-3459.396L13552.199,-3459.4335L13552.2295,-3459.3807L13552.2571,-3459.333L13552.2645,-3459.3202L13552.2627,-3459.2799L13552.2623,-3459.2701L13552.2623,-3459.2147L13552.2597,-3459.2002L13552.2565,-3459.1825L13552.2565,-3459.1667L13552.2565,-3459.1306L13552.2573,-3459.062L13552.2599,-3459.0387L13552.2616,-3459.0238L13552.2638,-3458.9961L13552.2645,-3458.988L13552.256,-3458.9878L13552.1007,-3458.9839L13552.1,-3458.9433L13552.1057,-3458.886L13552.1129,-3458.8282L13552.1129,-3458.7966L13552.1134,-3458.7827L13552.1135,-3458.7783L13552.1139,-3458.7647L13552.1143,-3458.7516L13552.1144,-3458.7488L13552.1198,-3458.7451L13552.1223,-3458.7435L13552.1971,-3458.7321L13552.217,-3458.7291L13552.2241,-3458.728L13552.2294,-3458.727L13552.2594,-3458.7214L13552.2654,-3458.7183L13552.2789,-3458.7112L13552.2811,-3458.6952L13552.2792,-3458.6599L13552.2794,-3458.6415L13552.2796,-3458.6252Z"/>
<path content="大阪府,,,松原市,,27217" xlink:title="大阪府" d="M13552.7344,-3457.6659L13552.7319,-3457.6659L13552.7267,-3457.6658L13552.7125,-3457.6657L13552.7107,-3457.6657L13552.6541,-3457.6653L13552.6055,-3457.6633L13552.5799,-3457.6623L13552.5611,-3457.6605L13552.5,-3457.6605L13552.383,-3457.6605L13552.3677,-3457.6599L13552.3542,-3457.6593L13552.2865,-3457.6623L13552.2425,-3457.6656L13552.2422,-3457.6757L13552.2403,-3457.7497L13552.2394,-3457.7904L13552.2374,-3457.8749L13552.2403,-3457.8946L13552.2367,-3457.9313L13552.236,-3457.985L13552.2316,-3458.0047L13552.2345,-3458.0226L13552.2331,-3458.0441L13552.2338,-3458.0875L13552.2343,-3458.1199L13552.2345,-3458.1344L13552.2353,-3458.1929L13552.2367,-3458.2084L13552.2338,-3458.2251L13552.2327,-3458.2343L13552.231,-3458.2497L13552.2287,-3458.2692L13552.2316,-3458.3065L13552.2335,-3458.3333L13552.2353,-3458.359L13552.2347,-3458.3899L13552.2345,-3458.4007L13552.2331,-3458.4568L13552.2331,-3458.492L13552.2338,-3458.5105L13552.2331,-3458.5213L13552.2325,-3458.5299L13552.2309,-3458.5534L13552.2309,-3458.5594L13552.2381,-3458.5618L13552.2658,-3458.5673L13552.2799,-3458.5701L13552.2799,-3458.5874L13552.2796,-3458.6252L13552.2794,-3458.6415L13552.2792,-3458.6599L13552.2811,-3458.6952L13552.2789,-3458.7112L13552.2654,-3458.7183L13552.2594,-3458.7214L13552.2294,-3458.727L13552.2241,-3458.728L13552.217,-3458.7291L13552.1971,-3458.7321L13552.1223,-3458.7435L13552.1198,-3458.7451L13552.1144,-3458.7488L13552.1143,-3458.7516L13552.1139,-3458.7647L13552.1135,-3458.7783L13552.1134,-3458.7827L13552.1129,-3458.7966L13552.1129,-3458.8282L13552.1057,-3458.886L13552.1,-3458.9433L13552.1007,-3458.9839L13552.256,-3458.9878L13552.2645,-3458.988L13552.2638,-3458.9961L13552.2616,-3459.0238L13552.2599,-3459.0387L13552.2573,-3459.062L13552.2565,-3459.1306L13552.2565,-3459.1667L13552.2565,-3459.1825L13552.2597,-3459.2002L13552.2623,-3459.2147L13552.2623,-3459.2701L13552.2627,-3459.2799L13552.2645,-3459.3202L13552.2571,-3459.333L13552.2295,-3459.3807L13552.199,-3459.4335L13552.2503,-3459.4575L13552.3626,-3459.5099L13552.5,-3459.5751L13552.6368,-3459.64L13552.6571,-3459.608L13552.6626,-3459.5992L13552.696,-3459.5463L13552.7195,-3459.5132L13552.7205,-3459.5117L13552.7344,-3459.5001Z"/>
</g>
</svg>
