<?xml version="1.0" encoding="UTF-8"?>
<svg  xmlns="http://www.w3.org/2000/svg" xmlns:xlink="http://www.w3.org/1999/xlink" xmlns:go="http://purl.org/svgmap/profile" property="geometry,N03_001,N03_002,N03_003,N03_004,N03_005,N03_007" viewBox="13543.9453125 -3489.2578125 8.7890625 8.7890625" go:dataArea="13543.9453125 -3489.2578125 8.7890625 8.7890625" >
<metadata>
 <rdf:RDF xmlns:rdf="http://www.w3.org/1999/02/22-rdf-syntax-ns#" xmlns:crs="http://opengis.org/xmldtds/transformations.dtd" xmlns:svg="http://www.w3.org/svg" >
  <rdf:Description>
   <crs:CoordinateReferenceSystem rdf:resource="http://purl.org/crs/84" svg:transform="matrix(100.0,0.0,0.0,-100.0,0.0,0.0)" />
  </rdf:Description>
 </rdf:RDF>
</metadata>
<globalCoordinateSystem srsName="http://purl.org/crs/84" transform="matrix(100.0,0.0,0.0,-100.0,0.0,0.0)" />
<defs>
 <g id="p0" >
  <circle cx="0.0" cy="0.0" r="3" stroke="green" stroke-width="2.0" vector-effect="non-scaling-stroke" />
 </g>
</defs>
<g fill="#0000ff" fill-rule="evenodd" opacity="0.5" >
<path content="大阪府,,,豊中市,,27203" xlink:title="大阪府" d="M13549.8983,-3482.2731L13549.9281,-3482.2164L13549.966,-3482.1521L13549.9795,-3482.1374L13549.9944,-3482.1235L13550,-3482.1182L13550.0107,-3482.1082L13550.0341,-3482.0918L13550.0447,-3482.0801L13550.1185,-3482.024L13550.1919,-3481.9701L13550.2096,-3481.9567L13550.2245,-3481.9421L13550.2349,-3481.9335L13550.2529,-3481.9187L13550.3096,-3481.8497L13550.3695,-3481.7742L13550.3799,-3481.7612L13550.3986,-3481.7379L13550.3981,-3481.7283L13550.3972,-3481.711L13550.4177,-3481.6853L13550.4331,-3481.6667L13550.4433,-3481.6543L13550.4596,-3481.6292L13550.4854,-3481.5882L13550.4947,-3481.5747L13550.5017,-3481.5574L13550.5096,-3481.5379L13550.5188,-3481.5145L13550.523,-3481.5011L13550.5294,-3481.4835L13550.5344,-3481.4642L13550.5386,-3481.4396L13550.5479,-3481.4308L13550.5638,-3481.4127L13550.6085,-3481.3771L13550.6319,-3481.3548L13550.6467,-3481.3414L13550.6588,-3481.3297L13550.6794,-3481.3226L13550.7084,-3481.3221L13550.7233,-3481.3221L13550.7233,-3481.3139L13550.7024,-3481.2384L13550.6967,-3481.2197L13550.6925,-3481.1992L13550.6889,-3481.1752L13550.6883,-3481.1577L13550.6897,-3481.1437L13550.701,-3481.1279L13550.7159,-3481.1167L13550.7811,-3481.0857L13550.796,-3481.0787L13550.8064,-3481.0743L13550.8166,-3481.07L13550.8294,-3481.0629L13550.8128,-3481.0423L13550.7992,-3481.0255L13550.7879,-3481.0156L13550.7709,-3481.0015L13550.7545,-3480.9886L13550.7141,-3480.9676L13550.6971,-3480.9576L13550.678,-3480.9465L13550.634,-3480.9249L13550.6229,-3480.9181L13550.5975,-3480.9027L13550.584,-3480.8904L13550.5663,-3480.8758L13550.5293,-3480.8333L13550.5209,-3480.8237L13550.5096,-3480.8138L13550.5004,-3480.7997L13550.4911,-3480.7787L13550.4826,-3480.7465L13550.4472,-3480.7494L13550.3795,-3480.7535L13550.379,-3480.7402L13550.3781,-3480.7124L13550.3769,-3480.6781L13550.3766,-3480.6704L13550.3823,-3480.6371L13550.3829,-3480.6262L13550.3837,-3480.6091L13550.3851,-3480.5927L13550.3866,-3480.5271L13550.3888,-3480.508L13550.3934,-3480.4688L13544.9665,-3480.4688L13544.9816,-3480.4941L13544.9932,-3480.5078L13545,-3480.5138L13545.0033,-3480.5167L13545.0235,-3480.5284L13545.0481,-3480.5361L13545.0575,-3480.5367L13545.0669,-3480.5254L13545.0836,-3480.5141L13545.1009,-3480.5135L13545.1154,-3480.5188L13545.1298,-3480.526L13545.1407,-3480.5278L13545.1508,-3480.526L13545.1681,-3480.523L13545.1898,-3480.5248L13545.2057,-3480.5284L13545.2122,-3480.5343L13545.2173,-3480.5528L13545.2216,-3480.566L13545.2238,-3480.5785L13545.231,-3480.5922L13545.2404,-3480.6036L13545.2412,-3480.6113L13545.2361,-3480.6179L13545.2122,-3480.6262L13545.2042,-3480.6249L13545.1905,-3480.6226L13545.1803,-3480.6179L13545.1725,-3480.6143L13545.158,-3480.6131L13545.1471,-3480.6155L13545.1139,-3480.6328L13545.1023,-3480.6381L13545.0901,-3480.6399L13545.077,-3480.6387L13545.0647,-3480.6352L13545.0503,-3480.625L13545.0163,-3480.5994L13545,-3480.5929L13544.9968,-3480.5916L13544.9729,-3480.5862L13544.9563,-3480.5839L13544.9447,-3480.5851L13544.907,-3480.6037L13544.8941,-3480.6101L13544.8914,-3480.611L13544.8818,-3480.6143L13544.8673,-3480.6155L13544.8471,-3480.6137L13544.8102,-3480.6077L13544.8069,-3480.6182L13544.7986,-3480.6453L13544.8077,-3480.6882L13544.8102,-3480.7002L13544.8079,-3480.7354L13544.8044,-3480.789L13544.8061,-3480.8032L13544.8072,-3480.8127L13544.809,-3480.8286L13544.8096,-3480.8333L13544.81,-3480.8368L13544.8107,-3480.8427L13544.8149,-3480.8417L13544.8493,-3480.8338L13544.8505,-3480.8333L13544.8731,-3480.8254L13544.8774,-3480.8111L13544.8919,-3480.7998L13544.9201,-3480.7944L13544.9353,-3480.7932L13544.9534,-3480.7819L13544.9671,-3480.7687L13544.9852,-3480.7544L13545,-3480.7502L13545.004,-3480.7491L13545.0344,-3480.7437L13545.0496,-3480.7395L13545.0784,-3480.7354L13545.1869,-3480.7332L13545.2023,-3480.7342L13545.2155,-3480.7351L13545.2278,-3480.7359L13545.23,-3480.7361L13545.2325,-3480.7362L13545.2455,-3480.7356L13545.2485,-3480.7351L13545.2651,-3480.7319L13545.2766,-3480.7297L13545.2947,-3480.7255L13545.3105,-3480.7237L13545.3206,-3480.7226L13545.3378,-3480.7207L13545.3424,-3480.7201L13545.3518,-3480.7219L13545.3648,-3480.7285L13545.3671,-3480.7336L13545.3711,-3480.7423L13545.3745,-3480.7497L13545.3783,-3480.758L13545.3816,-3480.7654L13545.3844,-3480.7716L13545.3857,-3480.7744L13545.3988,-3480.7876L13545.4111,-3480.8031L13545.4205,-3480.812L13545.4211,-3480.8126L13545.4268,-3480.818L13545.4338,-3480.8247L13545.44,-3480.8305L13545.4453,-3480.8333L13545.4533,-3480.8375L13545.4655,-3480.8441L13545.4805,-3480.852L13545.5043,-3480.8609L13545.5131,-3480.8644L13545.5132,-3480.8645L13545.5231,-3480.8684L13545.5321,-3480.872L13545.5377,-3480.8743L13545.549,-3480.8788L13545.5513,-3480.8797L13545.5547,-3480.8806L13545.5695,-3480.8846L13545.5791,-3480.8872L13545.5986,-3480.8925L13545.603,-3480.8937L13545.6123,-3480.8962L13545.6547,-3480.9077L13545.6692,-3480.9131L13545.6774,-3480.9266L13545.688,-3480.9441L13545.714,-3480.9799L13545.7386,-3481.0133L13545.7476,-3481.0217L13545.7502,-3481.0241L13545.7646,-3481.0282L13545.7755,-3481.028L13545.784,-3481.0279L13545.7975,-3481.0276L13545.8268,-3481.0271L13545.8333,-3481.0291L13545.8803,-3481.0437L13545.8969,-3481.047L13545.9237,-3481.0524L13545.9291,-3481.0544L13545.9401,-3481.0586L13545.9504,-3481.0625L13545.9671,-3481.0655L13545.9762,-3481.0684L13545.9938,-3481.0739L13546.0041,-3481.0771L13546.0253,-3481.0837L13546.0387,-3481.0879L13546.0513,-3481.0918L13546.0611,-3481.0949L13546.0874,-3481.1031L13546.1103,-3481.1102L13546.1291,-3481.1198L13546.145,-3481.1389L13546.1542,-3481.159L13546.1624,-3481.1772L13546.1681,-3481.1896L13546.1956,-3481.2498L13546.2158,-3481.2719L13546.2389,-3481.2829L13546.2492,-3481.2867L13546.2656,-3481.2928L13546.2664,-3481.2931L13546.2751,-3481.3002L13546.2802,-3481.3205L13546.2932,-3481.3402L13546.3113,-3481.3492L13546.3234,-3481.3561L13546.3351,-3481.3628L13546.3436,-3481.3676L13546.3601,-3481.377L13546.3746,-3481.3853L13546.3844,-3481.3909L13546.4125,-3481.407L13546.4293,-3481.4171L13546.4419,-3481.4246L13546.4909,-3481.4541L13546.5006,-3481.4599L13546.5101,-3481.4656L13546.5325,-3481.4829L13546.5477,-3481.4996L13546.5481,-3481.5009L13546.5527,-3481.5145L13546.5651,-3481.5306L13546.5712,-3481.5355L13546.5875,-3481.5485L13546.6055,-3481.5551L13546.6177,-3481.5574L13546.6224,-3481.5583L13546.6667,-3481.5669L13546.6829,-3481.57L13546.7053,-3481.5789L13546.7062,-3481.5797L13546.71,-3481.5833L13546.7248,-3481.5968L13546.75,-3481.6048L13546.7661,-3481.61L13546.7906,-3481.632L13546.827,-3481.661L13546.8342,-3481.6667L13546.8413,-3481.6723L13546.8839,-3481.7039L13546.888,-3481.7134L13546.894,-3481.7272L13546.9078,-3481.7379L13546.915,-3481.748L13546.9286,-3481.7567L13546.9663,-3481.7809L13547.0234,-3481.8172L13547.0408,-3481.8298L13547.0864,-3481.8554L13547.1016,-3481.8629L13547.124,-3481.876L13547.1616,-3481.9082L13547.177,-3481.9172L13547.184,-3481.9213L13547.1999,-3481.9315L13547.2303,-3481.9506L13547.2758,-3481.9726L13547.3221,-3481.9852L13547.353,-3481.9935L13547.3532,-3481.9935L13547.3806,-3482.0084L13547.3915,-3482.0221L13547.4117,-3482.0293L13547.4327,-3482.0367L13547.4594,-3482.0481L13547.4732,-3482.0523L13547.4863,-3482.0546L13547.5,-3482.0571L13547.5028,-3482.0576L13547.5159,-3482.0677L13547.5325,-3482.0749L13547.5527,-3482.088L13547.5773,-3482.1071L13547.6149,-3482.1155L13547.6163,-3482.0982L13547.6171,-3482.0868L13547.6338,-3482.0811L13547.6518,-3482.0749L13547.6629,-3482.0701L13547.6723,-3482.0659L13547.6782,-3482.0634L13547.6888,-3482.0587L13547.7057,-3482.0513L13547.7115,-3482.0488L13547.721,-3482.0446L13547.7321,-3482.0397L13547.7429,-3482.0314L13547.766,-3482.0209L13547.7807,-3482.0014L13547.7979,-3481.9786L13547.8101,-3481.9661L13547.8253,-3481.9572L13547.8374,-3481.9502L13547.8521,-3481.9416L13547.9164,-3481.9154L13547.9324,-3481.9104L13547.9547,-3481.9034L13547.9757,-3481.9022L13548.0191,-3481.9022L13548.0599,-3481.8696L13548.0683,-3481.8629L13548.0784,-3481.8539L13548.1066,-3481.8462L13548.1297,-3481.8468L13548.1471,-3481.8468L13548.1623,-3481.8426L13548.1963,-3481.8217L13548.2122,-3481.8077L13548.2303,-3481.7976L13548.2744,-3481.7672L13548.3076,-3481.7469L13548.3227,-3481.7344L13548.3333,-3481.7256L13548.3524,-3481.7099L13548.3756,-3481.7045L13548.424,-3481.7045L13548.4602,-3481.7075L13548.4949,-3481.7051L13548.5354,-3481.7003L13548.5477,-3481.6962L13548.5708,-3481.689L13548.6048,-3481.678L13548.6489,-3481.6708L13548.6569,-3481.6689L13548.6662,-3481.6667L13548.6671,-3481.6664L13548.6844,-3481.6623L13548.6864,-3481.6618L13548.7181,-3481.6542L13548.7356,-3481.65L13548.766,-3481.647L13548.787,-3481.6494L13548.8036,-3481.6619L13548.8081,-3481.6667L13548.8166,-3481.6756L13548.8289,-3481.6804L13548.8419,-3481.6798L13548.8622,-3481.6762L13548.8861,-3481.6706L13548.896,-3481.6667L13548.9656,-3481.6395L13548.9837,-3481.6383L13549.0141,-3481.6419L13549.0314,-3481.6473L13549.0632,-3481.6586L13549.0973,-3481.6667L13549.0986,-3481.667L13549.1196,-3481.6717L13549.1398,-3481.6783L13549.1565,-3481.6884L13549.1579,-3481.7141L13549.1615,-3481.7224L13549.1667,-3481.7244L13549.1926,-3481.7346L13549.2302,-3481.7493L13549.2433,-3481.7511L13549.2563,-3481.7478L13549.2707,-3481.7454L13549.283,-3481.749L13549.2953,-3481.7717L13549.2975,-3481.7937L13549.2974,-3481.8188L13549.2938,-3481.8319L13549.2657,-3481.8719L13549.2526,-3481.8915L13549.2469,-3481.9202L13549.2461,-3481.9822L13549.2432,-3482.0076L13549.2418,-3482.0261L13549.2512,-3482.0422L13549.2627,-3482.062L13549.2671,-3482.0696L13549.2714,-3482.0845L13549.2794,-3482.1006L13549.2946,-3482.1251L13549.33,-3482.1793L13549.3517,-3482.1925L13549.377,-3482.1865L13549.4139,-3482.1728L13549.4319,-3482.1692L13549.4443,-3482.1734L13549.4587,-3482.1871L13549.4703,-3482.2044L13549.4811,-3482.219L13549.4884,-3482.2262L13549.4999,-3482.2286L13549.5158,-3482.2256L13549.5411,-3482.2196L13549.5701,-3482.2202L13549.5954,-3482.2297L13549.6011,-3482.2423L13549.5997,-3482.2548L13549.5962,-3482.2608L13549.5903,-3482.2709L13549.5838,-3482.3007L13549.5859,-3482.3109L13549.5917,-3482.3246L13549.5975,-3482.3437L13549.6061,-3482.3542L13549.6185,-3482.3693L13549.6292,-3482.3766L13549.6431,-3482.386L13549.6532,-3482.392L13549.659,-3482.3985L13549.6604,-3482.4069L13549.6597,-3482.4182L13549.6616,-3482.4322L13549.6626,-3482.4394L13549.6706,-3482.4573L13549.6894,-3482.4716L13549.7188,-3482.4872L13549.7654,-3482.4884L13549.7654,-3482.4597L13549.7717,-3482.4474L13549.7883,-3482.4295L13549.7998,-3482.417L13549.8083,-3482.41L13549.8374,-3482.3948L13549.8461,-3482.3786L13549.8586,-3482.3556L13549.8983,-3482.2731Z"/>
<path content="大阪府,,,豊中市,,27203" xlink:title="大阪府" d="M13544.7803,-3480.9766L13544.7584,-3480.9723L13544.7085,-3480.9762L13544.7033,-3480.9821L13544.7027,-3480.9864L13544.7046,-3480.9939L13544.7084,-3480.9961L13544.7267,-3481.0069L13544.7293,-3481.0084L13544.7475,-3481.0154L13544.7547,-3481.0225L13544.7598,-3481.0277L13544.7623,-3481.0362L13544.7644,-3481.0432L13544.765,-3481.0454L13544.7684,-3481.05L13544.7742,-3481.0582L13544.7787,-3481.0643L13544.7865,-3481.0751L13544.7956,-3481.0877L13544.8068,-3481.0959L13544.8131,-3481.1005L13544.8209,-3481.1026L13544.8254,-3481.1038L13544.8319,-3481.1043L13544.8417,-3481.1034L13544.848,-3481.1027L13544.8696,-3481.0974L13544.9211,-3481.0962L13544.919,-3481.0842L13544.9147,-3481.0805L13544.8959,-3481.0637L13544.8776,-3481.0474L13544.8676,-3481.0386L13544.8632,-3481.0191L13544.8582,-3480.9974L13544.8563,-3480.9837L13544.8554,-3480.9792L13544.7803,-3480.9766Z"/>
<path content="大阪府,,,池田市,,27204" xlink:title="大阪府" d="M13543.9453,-3480.4688L13543.9453,-3487.3747L13543.97,-3487.3846L13543.9784,-3487.3962L13543.9838,-3487.4037L13543.9903,-3487.4162L13543.9914,-3487.4185L13543.9961,-3487.4282L13544.0395,-3487.4532L13544.075,-3487.4681L13544.1097,-3487.4926L13544.1225,-3487.5L13544.1314,-3487.5051L13544.1437,-3487.5069L13544.1667,-3487.5053L13544.1691,-3487.5051L13544.1787,-3487.5L13544.1835,-3487.4974L13544.1973,-3487.4819L13544.1987,-3487.4694L13544.2009,-3487.4473L13544.2074,-3487.4354L13544.2176,-3487.4282L13544.2494,-3487.4157L13544.2762,-3487.4163L13544.3124,-3487.4234L13544.329,-3487.4318L13544.3435,-3487.4396L13544.3544,-3487.4348L13544.354,-3487.4343L13544.3448,-3487.4211L13544.3435,-3487.4193L13544.3103,-3487.3706L13544.3088,-3487.3498L13544.3175,-3487.3319L13544.3602,-3487.271L13544.3761,-3487.2615L13544.4,-3487.2525L13544.4731,-3487.2233L13544.5332,-3487.212L13544.5687,-3487.212L13544.5788,-3487.1953L13544.5839,-3487.181L13544.5853,-3487.1745L13544.5904,-3487.1517L13544.5954,-3487.1356L13544.6396,-3487.0593L13544.6861,-3486.9954L13544.7049,-3486.9698L13544.7259,-3486.9466L13544.7419,-3486.9358L13544.7614,-3486.9317L13544.7867,-3486.9322L13544.7997,-3486.9251L13544.8504,-3486.8631L13544.8569,-3486.8452L13544.8584,-3486.8326L13544.8576,-3486.8165L13544.8576,-3486.8022L13544.8634,-3486.7879L13544.8664,-3486.7842L13544.8716,-3486.778L13544.8749,-3486.7741L13544.8807,-3486.767L13544.8941,-3486.7517L13544.8967,-3486.7488L13544.9068,-3486.7372L13544.9133,-3486.7229L13544.9249,-3486.7062L13544.9736,-3486.6667L13544.9741,-3486.6662L13544.9966,-3486.6567L13545,-3486.6534L13545.0067,-3486.6471L13545.0284,-3486.6364L13545.0979,-3486.5857L13545.1117,-3486.5785L13545.137,-3486.5702L13545.1681,-3486.5666L13545.2166,-3486.5499L13545.2339,-3486.5445L13545.2557,-3486.5362L13545.2861,-3486.5237L13545.3093,-3486.5177L13545.3541,-3486.5129L13545.3751,-3486.5135L13545.4146,-3486.5126L13545.4421,-3486.5067L13545.4739,-3486.4935L13545.4964,-3486.4846L13545.5076,-3486.4827L13545.5253,-3486.4798L13545.5535,-3486.4762L13545.6187,-3486.4762L13545.6273,-3486.4732L13545.631,-3486.4607L13545.6396,-3486.4327L13545.6548,-3486.4065L13545.6702,-3486.3921L13545.6731,-3486.3899L13545.6941,-3486.3737L13545.7201,-3486.3557L13545.7339,-3486.3474L13545.7455,-3486.3337L13545.7515,-3486.3271L13545.8193,-3486.2532L13545.8333,-3486.2385L13545.875,-3486.1947L13545.896,-3486.1691L13545.9199,-3486.1381L13545.9256,-3486.1304L13545.9337,-3486.1196L13545.9344,-3486.1088L13545.9301,-3486.0879L13545.9301,-3486.0724L13545.9373,-3486.0546L13545.9481,-3486.0342L13545.9518,-3486.0194L13545.9518,-3486.0068L13545.9361,-3485.9526L13545.9245,-3485.9066L13545.9259,-3485.8869L13545.9281,-3485.8738L13545.9266,-3485.8577L13545.9102,-3485.8333L13545.9013,-3485.8201L13545.897,-3485.8094L13545.8883,-3485.7981L13545.8844,-3485.7889L13545.8796,-3485.7778L13545.8766,-3485.7564L13545.8753,-3485.7474L13545.8803,-3485.7336L13545.8847,-3485.7122L13545.8811,-3485.6937L13545.8709,-3485.68L13545.8622,-3485.6639L13545.8572,-3485.6341L13545.8514,-3485.6003L13545.8477,-3485.5842L13545.8449,-3485.5681L13545.8383,-3485.5455L13545.8383,-3485.5347L13545.8572,-3485.5156L13545.8701,-3485.5047L13545.8839,-3485.493L13545.9027,-3485.4763L13545.9303,-3485.4375L13545.9382,-3485.4244L13545.9447,-3485.4083L13545.9534,-3485.3928L13545.9665,-3485.36L13545.9751,-3485.3254L13545.9795,-3485.3099L13545.9802,-3485.292L13545.9751,-3485.2419L13545.9737,-3485.2219L13545.9744,-3485.207L13545.9781,-3485.1903L13545.9867,-3485.1563L13545.9874,-3485.1426L13545.986,-3485.1336L13545.9824,-3485.1169L13545.9795,-3485.1026L13545.9831,-3485.0972L13545.9918,-3485.0996L13546.007,-3485.1133L13546.0157,-3485.1226L13546.0338,-3485.142L13546.0439,-3485.1539L13546.0569,-3485.1557L13546.0693,-3485.1551L13546.0787,-3485.1461L13546.0808,-3485.1324L13546.07,-3485.1109L13546.0562,-3485.096L13546.0352,-3485.0763L13546.0215,-3485.0626L13545.9874,-3485.0424L13545.9824,-3485.0382L13545.9824,-3485.0286L13545.9853,-3485.0173L13545.986,-3485.0006L13545.9858,-3485L13545.9817,-3484.9842L13545.9578,-3484.9335L13545.9476,-3484.9031L13545.9299,-3484.8249L13545.9231,-3484.7945L13545.91,-3484.7236L13545.9086,-3484.7057L13545.9079,-3484.6896L13545.9086,-3484.6711L13545.9071,-3484.6597L13545.8984,-3484.6448L13545.8825,-3484.6257L13545.8818,-3484.6108L13545.8956,-3484.5971L13545.9556,-3484.513L13545.9711,-3484.4984L13545.9928,-3484.4638L13545.995,-3484.4542L13545.9936,-3484.4459L13545.9856,-3484.4286L13545.974,-3484.4137L13545.9653,-3484.4012L13545.9472,-3484.3832L13545.9414,-3484.3831L13545.9291,-3484.3827L13545.9031,-3484.3844L13545.8835,-3484.3892L13545.8647,-3484.3952L13545.8459,-3484.4006L13545.8333,-3484.4064L13545.8242,-3484.4107L13545.7894,-3484.4364L13545.7561,-3484.4513L13545.7207,-3484.4614L13545.7062,-3484.4626L13545.6925,-3484.4578L13545.6657,-3484.4322L13545.6541,-3484.4274L13545.6411,-3484.4256L13545.6179,-3484.4292L13545.5976,-3484.4346L13545.5846,-3484.4334L13545.5658,-3484.4214L13545.56,-3484.4125L13545.5484,-3484.4029L13545.5412,-3484.4012L13545.5224,-3484.4006L13545.5021,-3484.4017L13545.4982,-3484.4021L13545.4797,-3484.4036L13545.4637,-3484.4024L13545.4522,-3484.3994L13545.4494,-3484.3868L13545.4494,-3484.3695L13545.4465,-3484.3558L13545.4356,-3484.3445L13545.4247,-3484.3403L13545.4117,-3484.3427L13545.4045,-3484.3421L13545.4023,-3484.3332L13545.3994,-3484.32L13545.3886,-3484.3081L13545.3799,-3484.2914L13545.3734,-3484.2777L13545.3753,-3484.258L13545.3804,-3484.2431L13545.3804,-3484.2323L13545.3724,-3484.2055L13545.3652,-3484.1882L13545.3659,-3484.1745L13545.3731,-3484.1667L13545.3796,-3484.1596L13545.4253,-3484.1304L13545.4325,-3484.122L13545.4376,-3484.1083L13545.439,-3484.094L13545.4397,-3484.0761L13545.4311,-3484.0409L13545.4303,-3484.0224L13545.4376,-3484.0087L13545.4427,-3483.9908L13545.4491,-3483.9687L13545.4549,-3483.9455L13545.452,-3483.9216L13545.4448,-3483.9097L13545.4361,-3483.8959L13545.4216,-3483.884L13545.4093,-3483.8745L13545.3594,-3483.8387L13545.3413,-3483.8256L13545.3312,-3483.8202L13545.3159,-3483.8077L13545.3051,-3483.779L13545.3037,-3483.7247L13545.3082,-3483.657L13545.3068,-3483.6503L13545.3071,-3483.6327L13545.3049,-3483.6202L13545.2977,-3483.6059L13545.2854,-3483.5856L13545.2781,-3483.5665L13545.2753,-3483.551L13545.2767,-3483.5349L13545.2822,-3483.5246L13545.2847,-3483.52L13545.3064,-3483.4997L13545.3237,-3483.4866L13545.3282,-3483.4823L13545.3331,-3483.4776L13545.3454,-3483.4589L13545.3714,-3483.4159L13545.3765,-3483.3974L13545.3823,-3483.3831L13545.3844,-3483.3682L13545.3837,-3483.3545L13545.3766,-3483.3333L13545.3707,-3483.3157L13545.3649,-3483.2847L13545.362,-3483.2709L13545.3534,-3483.259L13545.3353,-3483.2465L13545.3183,-3483.234L13545.3143,-3483.231L13545.3042,-3483.2194L13545.2991,-3483.1979L13545.289,-3483.1812L13545.2702,-3483.143L13545.2705,-3483.1392L13545.2716,-3483.1257L13545.2767,-3483.115L13545.2789,-3483.1072L13545.2767,-3483.0905L13545.2695,-3483.0691L13545.2594,-3483.0529L13545.242,-3483.0368L13545.2218,-3483.0273L13545.1899,-3483.0177L13545.1873,-3483.017L13545.1697,-3483.0124L13545.156,-3483.0064L13545.1364,-3482.9975L13545.1317,-3482.9923L13545.1253,-3482.9854L13545.1249,-3482.9849L13545.1193,-3482.971L13545.112,-3482.9528L13545.1119,-3482.9524L13545.1079,-3482.9389L13545.1039,-3482.9256L13545.0959,-3482.8928L13545.0945,-3482.8832L13545.0945,-3482.8648L13545.0967,-3482.8475L13545.0969,-3482.8409L13545.0988,-3482.7932L13545.0974,-3482.7842L13545.0844,-3482.7678L13545.0829,-3482.7577L13545.0844,-3482.7499L13545.085,-3482.7484L13545.0902,-3482.735L13545.0909,-3482.7249L13545.0894,-3482.7165L13545.0743,-3482.7028L13545.0714,-3482.6956L13545.075,-3482.6861L13545.0844,-3482.6754L13545.0866,-3482.6647L13545.0829,-3482.6539L13545.0735,-3482.6444L13545.0684,-3482.6313L13545.064,-3482.62L13545.0591,-3482.6074L13545.0555,-3482.5817L13545.0555,-3482.5468L13545.0504,-3482.5284L13545.0432,-3482.5087L13545.0405,-3482.5L13545.0381,-3482.4926L13545.0338,-3482.4794L13545.0331,-3482.4711L13545.0403,-3482.4466L13545.0389,-3482.4377L13545.036,-3482.4257L13545.0353,-3482.4156L13545.0425,-3482.4037L13545.0432,-3482.3971L13545.0423,-3482.3849L13545.0417,-3482.3786L13545.0367,-3482.3596L13545.0353,-3482.3458L13545.0358,-3482.3392L13545.0371,-3482.3242L13545.0381,-3482.3138L13545.0393,-3482.3001L13545.0397,-3482.2943L13545.041,-3482.2796L13545.0433,-3482.2704L13545.0468,-3482.2557L13545.0491,-3482.246L13545.0526,-3482.2316L13545.0613,-3482.2203L13545.0757,-3482.2107L13545.109,-3482.1821L13545.1225,-3482.1729L13545.1442,-3482.1581L13545.1494,-3482.1545L13545.1601,-3482.1472L13545.1676,-3482.1421L13545.1704,-3482.1338L13545.1842,-3482.0924L13545.1842,-3482.0682L13545.1808,-3482.0615L13545.1748,-3482.0492L13545.1567,-3482.0254L13545.1517,-3482.0087L13545.1557,-3481.9957L13545.1755,-3481.9323L13545.1849,-3481.9204L13545.1892,-3481.9148L13545.1987,-3481.9088L13545.1987,-3481.898L13545.1954,-3481.8958L13545.1885,-3481.8911L13545.182,-3481.8867L13545.1242,-3481.8753L13545.0945,-3481.8694L13545.0887,-3481.8652L13545.0873,-3481.8485L13545.0916,-3481.8282L13545.1003,-3481.808L13545.1126,-3481.7931L13545.1213,-3481.7793L13545.1256,-3481.762L13545.1278,-3481.7429L13545.1206,-3481.7313L13545.0873,-3481.7134L13545.0743,-3481.7116L13545.0649,-3481.714L13545.0543,-3481.7244L13545.0448,-3481.7335L13545.0394,-3481.7388L13545.0322,-3481.7458L13545.0287,-3481.7492L13545.0172,-3481.7486L13545,-3481.7489L13544.976,-3481.7492L13544.9564,-3481.748L13544.9398,-3481.7456L13544.921,-3481.7379L13544.9008,-3481.7224L13544.8885,-3481.7098L13544.8697,-3481.6985L13544.8646,-3481.6922L13544.85,-3481.6741L13544.8439,-3481.6667L13544.8439,-3481.6666L13544.8342,-3481.6546L13544.8263,-3481.6448L13544.814,-3481.6371L13544.7952,-3481.6129L13544.7893,-3481.6026L13544.7836,-3481.5926L13544.7836,-3481.5825L13544.7902,-3481.5736L13544.801,-3481.5664L13544.8118,-3481.5574L13544.8191,-3481.5425L13544.8277,-3481.5252L13544.8299,-3481.5037L13544.8285,-3481.4512L13544.8391,-3481.441L13544.8447,-3481.4357L13544.8594,-3481.4216L13544.8666,-3481.4148L13544.877,-3481.4048L13544.8848,-3481.3973L13544.887,-3481.3952L13544.8877,-3481.3902L13544.8889,-3481.3815L13544.8896,-3481.3759L13544.8907,-3481.3676L13544.8912,-3481.3643L13544.8919,-3481.3593L13544.8928,-3481.3526L13544.8989,-3481.3436L13544.9203,-3481.312L13544.9458,-3481.2949L13544.9586,-3481.2864L13544.955,-3481.2744L13544.955,-3481.2088L13544.9521,-3481.1945L13544.9557,-3481.1784L13544.9478,-3481.1456L13544.937,-3481.1255L13544.9347,-3481.1213L13544.9211,-3481.0962L13544.8696,-3481.0974L13544.848,-3481.1027L13544.8417,-3481.1034L13544.8319,-3481.1043L13544.8254,-3481.1038L13544.8209,-3481.1026L13544.8131,-3481.1005L13544.8068,-3481.0959L13544.7956,-3481.0877L13544.7865,-3481.0751L13544.7787,-3481.0643L13544.7742,-3481.0582L13544.7684,-3481.05L13544.765,-3481.0454L13544.7644,-3481.0432L13544.7623,-3481.0362L13544.7598,-3481.0277L13544.7547,-3481.0225L13544.7475,-3481.0154L13544.7293,-3481.0084L13544.7267,-3481.0069L13544.7084,-3480.9961L13544.7046,-3480.9939L13544.7027,-3480.9864L13544.7033,-3480.9821L13544.7085,-3480.9762L13544.7584,-3480.9723L13544.7803,-3480.9766L13544.8554,-3480.9792L13544.8544,-3480.974L13544.8517,-3480.9668L13544.8501,-3480.9626L13544.8413,-3480.9388L13544.8387,-3480.9318L13544.8199,-3480.9044L13544.8167,-3480.894L13544.8141,-3480.8714L13544.8119,-3480.8531L13544.8107,-3480.8427L13544.81,-3480.8368L13544.8096,-3480.8333L13544.809,-3480.8286L13544.8072,-3480.8127L13544.8061,-3480.8032L13544.8044,-3480.789L13544.8079,-3480.7354L13544.8102,-3480.7002L13544.8077,-3480.6882L13544.7986,-3480.6453L13544.8069,-3480.6182L13544.8102,-3480.6077L13544.8471,-3480.6137L13544.8673,-3480.6155L13544.8818,-3480.6143L13544.8914,-3480.611L13544.8941,-3480.6101L13544.907,-3480.6037L13544.9447,-3480.5851L13544.9563,-3480.5839L13544.9729,-3480.5862L13544.9968,-3480.5916L13545,-3480.5929L13545.0163,-3480.5994L13545.0503,-3480.625L13545.0647,-3480.6352L13545.077,-3480.6387L13545.0901,-3480.6399L13545.1023,-3480.6381L13545.1139,-3480.6328L13545.1471,-3480.6155L13545.158,-3480.6131L13545.1725,-3480.6143L13545.1803,-3480.6179L13545.1905,-3480.6226L13545.2042,-3480.6249L13545.2122,-3480.6262L13545.2361,-3480.6179L13545.2412,-3480.6113L13545.2404,-3480.6036L13545.231,-3480.5922L13545.2238,-3480.5785L13545.2216,-3480.566L13545.2173,-3480.5528L13545.2122,-3480.5343L13545.2057,-3480.5284L13545.1898,-3480.5248L13545.1681,-3480.523L13545.1508,-3480.526L13545.1407,-3480.5278L13545.1298,-3480.526L13545.1154,-3480.5188L13545.1009,-3480.5135L13545.0836,-3480.5141L13545.0669,-3480.5254L13545.0575,-3480.5367L13545.0481,-3480.5361L13545.0235,-3480.5284L13545.0033,-3480.5167L13545,-3480.5138L13544.9932,-3480.5078L13544.9816,-3480.4941L13544.9665,-3480.4688Z"/>
<path content="大阪府,,,吹田市,,27205" xlink:title="大阪府" d="M13550.6779,-3483.0026L13550.6943,-3482.9967L13550.7134,-3482.9914L13550.7446,-3482.9832L13550.7634,-3482.9727L13550.7634,-3482.9719L13550.7634,-3482.9604L13550.7641,-3482.9464L13550.7697,-3482.9376L13550.7903,-3482.93L13550.8144,-3482.9218L13550.8333,-3482.9195L13550.8336,-3482.9195L13550.8492,-3482.916L13550.8626,-3482.9066L13550.8754,-3482.8955L13550.8897,-3482.8921L13550.9073,-3482.8879L13550.9463,-3482.8844L13550.9669,-3482.8838L13550.9917,-3482.8832L13551.0052,-3482.882L13551.0207,-3482.8814L13551.0356,-3482.8738L13551.0474,-3482.8633L13551.0629,-3482.8458L13551.0771,-3482.8323L13551.0878,-3482.8183L13551.1019,-3482.7984L13551.1119,-3482.7727L13551.1183,-3482.7539L13551.136,-3482.7376L13551.1466,-3482.7212L13551.158,-3482.7083L13551.1778,-3482.6937L13551.2115,-3482.6773L13551.2264,-3482.6721L13551.242,-3482.668L13551.2725,-3482.6656L13551.2924,-3482.668L13551.3016,-3482.6931L13551.3157,-3482.7054L13551.3363,-3482.7165L13551.3519,-3482.7224L13551.3831,-3482.7271L13551.4114,-3482.7264L13551.4363,-3482.7276L13551.4561,-3482.7358L13551.4973,-3482.7557L13551.515,-3482.7621L13551.5263,-3482.7738L13551.5313,-3482.7826L13551.5487,-3482.8119L13551.5714,-3482.8113L13551.5856,-3482.8103L13551.5988,-3482.8095L13551.6153,-3482.8084L13551.6529,-3482.7978L13551.6667,-3482.7945L13551.6749,-3482.7926L13551.6983,-3482.7937L13551.7153,-3482.7943L13551.7458,-3482.7967L13551.7632,-3482.8001L13551.7812,-3482.8037L13551.8103,-3482.806L13551.8433,-3482.7985L13551.852,-3482.7965L13551.8745,-3482.7914L13551.8766,-3482.7639L13551.8757,-3482.7588L13551.8738,-3482.7469L13551.8624,-3482.7247L13551.8582,-3482.7071L13551.8596,-3482.6925L13551.8624,-3482.6709L13551.8702,-3482.6539L13551.8801,-3482.6425L13551.8936,-3482.627L13551.9071,-3482.6182L13551.9284,-3482.6194L13551.9504,-3482.6247L13551.9723,-3482.6294L13551.9961,-3482.6393L13552.0485,-3482.6522L13552.0768,-3482.6571L13552.0859,-3482.6586L13552.0884,-3482.6591L13552.0996,-3482.661L13552.1166,-3482.6592L13552.1336,-3482.6557L13552.1457,-3482.6493L13552.1624,-3482.6306L13552.1634,-3482.6294L13552.1797,-3482.6124L13552.1939,-3482.596L13552.2088,-3482.5896L13552.2273,-3482.5937L13552.2528,-3482.6031L13552.2783,-3482.6136L13552.2925,-3482.6259L13552.3123,-3482.6411L13552.3244,-3482.6621L13552.3336,-3482.6645L13552.3435,-3482.6616L13552.3513,-3482.6539L13552.3584,-3482.6452L13552.3683,-3482.6376L13552.3924,-3482.6294L13552.3986,-3482.624L13552.4052,-3482.6182L13552.4116,-3482.6054L13552.4158,-3482.5855L13552.4123,-3482.5779L13552.4031,-3482.5744L13552.391,-3482.5756L13552.3768,-3482.5785L13552.3549,-3482.5861L13552.334,-3482.5914L13552.3262,-3482.5767L13552.3254,-3482.565L13552.3269,-3482.551L13552.3251,-3482.5465L13552.3212,-3482.5364L13552.3154,-3482.5227L13552.3124,-3482.5156L13552.3099,-3482.5095L13552.3026,-3482.5L13552.2947,-3482.4898L13552.2864,-3482.4791L13552.2772,-3482.4644L13552.2751,-3482.458L13552.2779,-3482.4504L13552.2864,-3482.4434L13552.29,-3482.4418L13552.3021,-3482.4364L13552.3297,-3482.4264L13552.351,-3482.4211L13552.3687,-3482.4165L13552.3871,-3482.4089L13552.4138,-3482.3947L13552.4378,-3482.3819L13552.4551,-3482.3728L13552.4775,-3482.3609L13552.4807,-3482.3593L13552.4917,-3482.3539L13552.5,-3482.3492L13552.524,-3482.3355L13552.5421,-3482.3252L13552.5626,-3482.3118L13552.5711,-3482.3023L13552.5819,-3482.2904L13552.597,-3482.2737L13552.6048,-3482.265L13552.6297,-3482.2394L13552.6452,-3482.2234L13552.658,-3482.2112L13552.665,-3482.2045L13552.7041,-3482.1673L13552.7182,-3482.1546L13552.7197,-3482.1532L13552.7344,-3482.1438L13552.7344,-3480.4688L13550.3934,-3480.4688L13550.3888,-3480.508L13550.3866,-3480.5271L13550.3851,-3480.5927L13550.3837,-3480.6091L13550.3829,-3480.6262L13550.3823,-3480.6371L13550.3766,-3480.6704L13550.3769,-3480.6781L13550.3781,-3480.7124L13550.379,-3480.7402L13550.3795,-3480.7535L13550.4472,-3480.7494L13550.4826,-3480.7465L13550.4911,-3480.7787L13550.5004,-3480.7997L13550.5096,-3480.8138L13550.5209,-3480.8237L13550.5293,-3480.8333L13550.5663,-3480.8758L13550.584,-3480.8904L13550.5975,-3480.9027L13550.6229,-3480.9181L13550.634,-3480.9249L13550.678,-3480.9465L13550.6971,-3480.9576L13550.7141,-3480.9676L13550.7545,-3480.9886L13550.7709,-3481.0015L13550.7879,-3481.0156L13550.7992,-3481.0255L13550.8128,-3481.0423L13550.8294,-3481.0629L13550.8166,-3481.07L13550.8064,-3481.0743L13550.796,-3481.0787L13550.7811,-3481.0857L13550.7159,-3481.1167L13550.701,-3481.1279L13550.6897,-3481.1437L13550.6883,-3481.1577L13550.6889,-3481.1752L13550.6925,-3481.1992L13550.6967,-3481.2197L13550.7024,-3481.2384L13550.7233,-3481.3139L13550.7233,-3481.3221L13550.7084,-3481.3221L13550.6794,-3481.3226L13550.6588,-3481.3297L13550.6467,-3481.3414L13550.6319,-3481.3548L13550.6085,-3481.3771L13550.5638,-3481.4127L13550.5479,-3481.4308L13550.5386,-3481.4396L13550.5344,-3481.4642L13550.5294,-3481.4835L13550.523,-3481.5011L13550.5188,-3481.5145L13550.5096,-3481.5379L13550.5017,-3481.5574L13550.4947,-3481.5747L13550.4854,-3481.5882L13550.4596,-3481.6292L13550.4433,-3481.6543L13550.4331,-3481.6667L13550.4177,-3481.6853L13550.3972,-3481.711L13550.3981,-3481.7283L13550.3986,-3481.7379L13550.3799,-3481.7612L13550.3695,-3481.7742L13550.3096,-3481.8497L13550.2529,-3481.9187L13550.2349,-3481.9335L13550.2245,-3481.9421L13550.2096,-3481.9567L13550.1919,-3481.9701L13550.1185,-3482.024L13550.0447,-3482.0801L13550.0341,-3482.0918L13550.0107,-3482.1082L13550,-3482.1182L13549.9944,-3482.1235L13549.9795,-3482.1374L13549.966,-3482.1521L13549.9281,-3482.2164L13549.8983,-3482.2731L13549.8586,-3482.3556L13549.8461,-3482.3786L13549.8374,-3482.3948L13549.8083,-3482.41L13549.7998,-3482.417L13549.7883,-3482.4295L13549.7717,-3482.4474L13549.7654,-3482.4597L13549.7654,-3482.4884L13549.7632,-3482.5L13549.7611,-3482.5106L13549.7562,-3482.534L13549.7562,-3482.565L13549.7661,-3482.5738L13549.7845,-3482.5784L13549.8018,-3482.5821L13549.8065,-3482.5831L13549.8074,-3482.5862L13549.8098,-3482.5944L13549.8115,-3482.6001L13549.8138,-3482.6082L13549.8164,-3482.6171L13549.8497,-3482.62L13549.8877,-3482.6399L13549.899,-3482.6516L13549.9097,-3482.6668L13549.9189,-3482.6837L13549.9274,-3482.7048L13549.9373,-3482.7206L13549.9579,-3482.7364L13549.9728,-3482.7428L13550,-3482.7527L13550.0146,-3482.7581L13550.0337,-3482.7697L13550.0423,-3482.7803L13550.0494,-3482.7984L13550.0579,-3482.8142L13550.0713,-3482.8177L13550.0898,-3482.8177L13550.1039,-3482.8206L13550.1045,-3482.8219L13550.1114,-3482.8382L13550.1128,-3482.8528L13550.1099,-3482.8575L13550.1079,-3482.861L13550.0916,-3482.868L13550.0667,-3482.8756L13550.049,-3482.882L13550.0135,-3482.8896L13550.0072,-3482.9013L13550.0086,-3482.9107L13550.0121,-3482.9242L13550.0143,-3482.9411L13550.0221,-3482.9645L13550.0243,-3482.9878L13550.027,-3483.016L13550.0341,-3483.0242L13550.0462,-3483.0277L13550.0593,-3483.0219L13550.0649,-3483.0125L13550.0756,-3483.0119L13550.0919,-3483.0125L13550.1132,-3483.0172L13550.1323,-3483.0166L13550.155,-3483.0131L13550.1904,-3483.0026L13550.2181,-3483.002L13550.2351,-3483.0049L13550.2479,-3483.0131L13550.2557,-3483.033L13550.2599,-3483.0423L13550.2734,-3483.0476L13550.3025,-3483.0528L13550.328,-3483.0552L13550.3457,-3483.0587L13550.3599,-3483.061L13550.3755,-3483.0651L13550.4202,-3483.068L13550.4386,-3483.0692L13550.4599,-3483.071L13550.4805,-3483.0774L13550.5039,-3483.0873L13550.5372,-3483.0867L13550.5556,-3483.0844L13550.5701,-3483.0809L13550.5893,-3483.0704L13550.6191,-3483.0563L13550.6411,-3483.0306L13550.6481,-3483.0183L13550.6588,-3483.0107L13550.6779,-3483.0026Z"/>
<path content="大阪府,,,茨木市,,27211" xlink:title="大阪府" d="M13552.7344,-3489.2578L13552.7344,-3482.1438L13552.7197,-3482.1532L13552.7182,-3482.1546L13552.7041,-3482.1673L13552.665,-3482.2045L13552.658,-3482.2112L13552.6452,-3482.2234L13552.6297,-3482.2394L13552.6048,-3482.265L13552.597,-3482.2737L13552.5819,-3482.2904L13552.5711,-3482.3023L13552.5626,-3482.3118L13552.5421,-3482.3252L13552.524,-3482.3355L13552.5,-3482.3492L13552.4917,-3482.3539L13552.4807,-3482.3593L13552.4775,-3482.3609L13552.4551,-3482.3728L13552.4378,-3482.3819L13552.4138,-3482.3947L13552.3871,-3482.4089L13552.3687,-3482.4165L13552.351,-3482.4211L13552.3297,-3482.4264L13552.3021,-3482.4364L13552.29,-3482.4418L13552.2864,-3482.4434L13552.2779,-3482.4504L13552.2751,-3482.458L13552.2772,-3482.4644L13552.2864,-3482.4791L13552.2947,-3482.4898L13552.3026,-3482.5L13552.3099,-3482.5095L13552.3124,-3482.5156L13552.3154,-3482.5227L13552.3212,-3482.5364L13552.3251,-3482.5465L13552.3269,-3482.551L13552.3254,-3482.565L13552.3262,-3482.5767L13552.334,-3482.5914L13552.3549,-3482.5861L13552.3768,-3482.5785L13552.391,-3482.5756L13552.4031,-3482.5744L13552.4123,-3482.5779L13552.4158,-3482.5855L13552.4116,-3482.6054L13552.4052,-3482.6182L13552.3986,-3482.624L13552.4205,-3482.6317L13552.4434,-3482.6434L13552.4703,-3482.6669L13552.4822,-3482.6787L13552.5,-3482.7004L13552.5036,-3482.7048L13552.5139,-3482.7407L13552.5241,-3482.7589L13552.5265,-3482.7706L13552.5313,-3482.7882L13552.5435,-3482.832L13552.553,-3482.8529L13552.5617,-3482.8698L13552.568,-3482.8907L13552.5791,-3482.9338L13552.5878,-3482.9527L13552.5917,-3482.9677L13552.5965,-3482.9886L13552.6008,-3483.0042L13552.6056,-3483.0225L13552.6182,-3483.0603L13552.6222,-3483.0792L13552.6119,-3483.1086L13552.6064,-3483.1243L13552.5937,-3483.1471L13552.5866,-3483.1615L13552.5795,-3483.1739L13552.5771,-3483.1876L13552.5716,-3483.2091L13552.5637,-3483.2221L13552.5431,-3483.2319L13552.5194,-3483.2358L13552.5019,-3483.2411L13552.5,-3483.2419L13552.483,-3483.2496L13552.4679,-3483.2574L13552.4573,-3483.2691L13552.4486,-3483.2828L13552.4478,-3483.2985L13552.4581,-3483.3187L13552.4683,-3483.3305L13552.4708,-3483.3333L13552.4782,-3483.3421L13552.4889,-3483.3546L13552.4992,-3483.367L13552.5,-3483.3684L13552.5151,-3483.3937L13552.5174,-3483.3977L13552.5269,-3483.4068L13552.5395,-3483.4101L13552.5759,-3483.4114L13552.5941,-3483.4146L13552.6067,-3483.4199L13552.6171,-3483.4244L13552.621,-3483.429L13552.6107,-3483.4551L13552.6085,-3483.4694L13552.6079,-3483.4727L13552.5945,-3483.4583L13552.5676,-3483.4407L13552.5534,-3483.4342L13552.5423,-3483.4348L13552.5328,-3483.4446L13552.5257,-3483.4583L13552.5146,-3483.4772L13552.5027,-3483.4929L13552.5,-3483.4945L13552.4917,-3483.4994L13552.4774,-3483.5014L13552.4584,-3483.5007L13552.4395,-3483.4988L13552.4079,-3483.4857L13552.3833,-3483.4727L13552.3667,-3483.4636L13552.3469,-3483.4577L13552.3272,-3483.4564L13552.2837,-3483.4844L13552.2655,-3483.4962L13552.2374,-3483.5138L13552.2034,-3483.5321L13552.182,-3483.5386L13552.1686,-3483.5425L13552.1512,-3483.5438L13552.1235,-3483.5556L13552.1045,-3483.5582L13552.0776,-3483.5634L13552.0579,-3483.5686L13552.0583,-3483.5889L13552.0587,-3483.6116L13552.0626,-3483.6571L13552.068,-3483.6935L13552.0376,-3483.7358L13552.0362,-3483.7372L13552.0224,-3483.7507L13552.0137,-3483.7531L13551.9877,-3483.7579L13551.9804,-3483.7632L13551.9739,-3483.7722L13551.9732,-3483.7836L13551.9775,-3483.7979L13551.9833,-3483.8086L13551.9843,-3483.8099L13551.9898,-3483.8175L13551.9898,-3483.8229L13551.9865,-3483.8284L13551.9854,-3483.8302L13551.9783,-3483.842L13551.9783,-3483.8509L13551.9841,-3483.8611L13551.9956,-3483.8772L13552.0058,-3483.8921L13552.0043,-3483.8969L13551.9906,-3483.904L13551.9855,-3483.9028L13551.9428,-3483.8718L13551.9298,-3483.8658L13551.9167,-3483.8652L13551.9155,-3483.8654L13551.9037,-3483.867L13551.8878,-3483.8807L13551.8806,-3483.8825L13551.869,-3483.8831L13551.861,-3483.8861L13551.8574,-3483.8921L13551.8596,-3483.8986L13551.8661,-3483.9052L13551.8907,-3483.9207L13551.8965,-3483.9356L13551.9052,-3483.9523L13551.9103,-3483.9621L13551.9146,-3483.9702L13551.9159,-3483.977L13551.9225,-3484.0108L13551.9294,-3484.0334L13551.9359,-3484.0471L13551.9526,-3484.0591L13551.9743,-3484.071L13551.9829,-3484.0722L13551.9953,-3484.0704L13552.0582,-3484.0507L13552.0915,-3484.0341L13552.1067,-3484.0281L13552.1161,-3484.0167L13552.1234,-3484.0126L13552.1501,-3484.0048L13552.1936,-3483.9827L13552.2044,-3483.9822L13552.2189,-3483.9851L13552.2377,-3483.9923L13552.2913,-3484.0305L13552.3195,-3484.0561L13552.3333,-3484.0627L13552.355,-3484.0728L13552.3616,-3484.0749L13552.3759,-3484.0794L13552.3977,-3484.0812L13552.4454,-3484.074L13552.4643,-3484.0728L13552.4775,-3484.0773L13552.4838,-3484.0794L13552.4939,-3484.0859L13552.4997,-3484.0997L13552.5,-3484.1018L13552.5044,-3484.1354L13552.5038,-3484.1667L13552.5037,-3484.173L13552.5,-3484.1937L13552.4993,-3484.1975L13552.487,-3484.2291L13552.4805,-3484.2536L13552.4805,-3484.2732L13552.4841,-3484.2905L13552.4921,-3484.3162L13552.5,-3484.3265L13552.5031,-3484.3305L13552.5095,-3484.3389L13552.5206,-3484.3377L13552.5561,-3484.3339L13552.5833,-3484.3311L13552.5913,-3484.3353L13552.5922,-3484.3388L13552.5942,-3484.3472L13552.5971,-3484.3585L13552.5971,-3484.3752L13552.5927,-3484.3866L13552.5775,-3484.3961L13552.5232,-3484.4056L13552.5215,-3484.4065L13552.5066,-3484.414L13552.5,-3484.419L13552.4877,-3484.4283L13552.4747,-3484.4349L13552.4516,-3484.4402L13552.4385,-3484.4504L13552.4335,-3484.4629L13552.4291,-3484.4927L13552.427,-3484.516L13552.4291,-3484.5231L13552.4429,-3484.5351L13552.4798,-3484.5667L13552.491,-3484.5801L13552.5,-3484.5909L13552.5116,-3484.6048L13552.5168,-3484.6147L13552.5239,-3484.6281L13552.5269,-3484.6603L13552.5275,-3484.6789L13552.5276,-3484.6818L13552.5312,-3484.7176L13552.5283,-3484.7367L13552.5283,-3484.7528L13552.5286,-3484.7608L13552.5,-3484.7521L13552.4964,-3484.7509L13552.4752,-3484.7475L13552.4371,-3484.7456L13552.4155,-3484.7461L13552.3664,-3484.7485L13552.2886,-3484.7521L13552.2879,-3484.7901L13552.2923,-3484.8888L13552.2923,-3484.915L13552.2914,-3484.9518L13552.2909,-3484.9729L13552.288,-3484.9872L13552.2835,-3485L13552.2771,-3485.0182L13552.2749,-3485.0373L13552.2744,-3485.0696L13552.2735,-3485.1321L13552.2829,-3485.1941L13552.2822,-3485.2001L13552.2713,-3485.2013L13552.2473,-3485.2025L13552.2236,-3485.2037L13552.0571,-3485.2079L13552.0434,-3485.2097L13552.0376,-3485.2132L13552.0339,-3485.2216L13552.0325,-3485.2461L13552.0325,-3485.2466L13552.0339,-3485.2651L13552.0426,-3485.286L13552.0585,-3485.3164L13552.0643,-3485.3307L13552.0658,-3485.3456L13552.0621,-3485.3576L13552.0527,-3485.3779L13552.0426,-3485.3951L13552.0412,-3485.4011L13552.0469,-3485.4178L13552.0469,-3485.4238L13552.0325,-3485.4309L13552.0283,-3485.4326L13551.9949,-3485.4459L13551.992,-3485.4494L13551.9992,-3485.4644L13552.0364,-3485.5312L13552.0415,-3485.5478L13552.0415,-3485.5657L13552.0372,-3485.5812L13552.0186,-3485.6162L13552.0068,-3485.6385L13551.9843,-3485.6701L13551.972,-3485.6779L13551.9561,-3485.6838L13551.9293,-3485.691L13551.8374,-3485.7083L13551.823,-3485.7128L13551.8222,-3485.7131L13551.8092,-3485.7202L13551.6905,-3485.8139L13551.6667,-3485.8327L13551.6659,-3485.8333L13551.4466,-3486.0071L13551.4394,-3486.0157L13551.4386,-3486.0167L13551.4364,-3486.0232L13551.4407,-3486.0304L13551.4712,-3486.0477L13551.5218,-3486.0697L13551.5464,-3486.0864L13551.5582,-3486.0995L13551.5653,-3486.1073L13551.5725,-3486.121L13551.5797,-3486.1574L13551.5844,-3486.2046L13551.5844,-3486.2147L13551.5813,-3486.2267L13551.5779,-3486.2391L13551.5757,-3486.2666L13551.5736,-3486.297L13551.5743,-3486.3644L13551.5764,-3486.3759L13551.5772,-3486.3799L13551.5793,-3486.3884L13551.5815,-3486.3972L13551.5887,-3486.4056L13551.5873,-3486.4103L13551.5801,-3486.4127L13551.4961,-3486.4252L13551.4332,-3486.4318L13551.418,-3486.4354L13551.4057,-3486.4407L13551.3912,-3486.4521L13551.3695,-3486.4706L13551.3188,-3486.5004L13551.3,-3486.5153L13551.2884,-3486.5284L13551.2804,-3486.5445L13551.2703,-3486.5821L13551.2695,-3486.5844L13551.2609,-3486.6095L13551.2434,-3486.6667L13551.2428,-3486.6686L13551.2189,-3486.7235L13551.2008,-3486.7575L13551.1805,-3486.7867L13551.1755,-3486.8016L13551.1726,-3486.826L13551.1755,-3486.8594L13551.1813,-3486.8797L13551.1928,-3486.903L13551.2051,-3486.9191L13551.2166,-3486.9287L13551.2228,-3486.9339L13551.2308,-3486.9406L13551.2598,-3486.9602L13551.2772,-3486.9764L13551.2946,-3487.0008L13551.2996,-3487.0223L13551.3003,-3487.0515L13551.3046,-3487.0641L13551.3115,-3487.0778L13551.3253,-3487.0944L13551.3296,-3487.1141L13551.3289,-3487.1338L13551.3188,-3487.1815L13551.313,-3487.2048L13551.2876,-3487.2477L13551.2724,-3487.2715L13551.2674,-3487.2794L13551.2536,-3487.3044L13551.2453,-3487.3136L13551.2341,-3487.3259L13551.2066,-3487.3486L13551.1934,-3487.3627L13551.1834,-3487.3736L13551.1784,-3487.3837L13551.174,-3487.4016L13551.174,-3487.4243L13551.1726,-3487.4362L13551.1646,-3487.444L13551.148,-3487.4535L13551.1147,-3487.4661L13551.0734,-3487.4774L13551.0575,-3487.4839L13551.0353,-3487.5L13551.0336,-3487.5012L13551.0148,-3487.5221L13551.0003,-3487.5388L13550.9804,-3487.5513L13550.9793,-3487.5519L13550.9684,-3487.5573L13550.9619,-3487.5549L13550.9533,-3487.5424L13550.9352,-3487.5305L13550.9214,-3487.5156L13550.9026,-3487.5084L13550.8874,-3487.5084L13550.8838,-3487.5105L13550.8751,-3487.5156L13550.8642,-3487.5197L13550.8534,-3487.5186L13550.8483,-3487.5132L13550.8477,-3487.5122L13550.8392,-3487.5L13550.8333,-3487.4916L13550.8317,-3487.4893L13550.8288,-3487.4851L13550.8172,-3487.4765L13550.8103,-3487.4714L13550.7929,-3487.4649L13550.7531,-3487.4589L13550.7307,-3487.4494L13550.7213,-3487.4416L13550.7046,-3487.4106L13550.675,-3487.3837L13550.6598,-3487.3587L13550.6504,-3487.3384L13550.6373,-3487.3104L13550.6214,-3487.2871L13550.6062,-3487.2573L13550.5954,-3487.2215L13550.5845,-3487.206L13550.5707,-3487.1964L13550.5454,-3487.1857L13550.5404,-3487.1815L13550.5396,-3487.1654L13550.5346,-3487.1553L13550.5237,-3487.1469L13550.5063,-3487.141L13550.4513,-3487.107L13550.4246,-3487.0992L13550.402,-3487.0977L13550.3971,-3487.0974L13550.384,-3487.0944L13550.3775,-3487.0891L13550.3724,-3487.0819L13550.371,-3487.0706L13550.3724,-3487.0593L13550.3797,-3487.039L13550.3797,-3487.0294L13550.3724,-3487.0181L13550.3558,-3487.0068L13550.3478,-3486.999L13550.3384,-3486.999L13550.3254,-3487.0032L13550.3196,-3487.0098L13550.3138,-3487.0259L13550.2972,-3487.0521L13550.2805,-3487.0712L13550.2436,-3487.1302L13550.2296,-3487.1501L13550.2081,-3487.1803L13550.2007,-3487.1926L13550.1872,-3487.2149L13550.1828,-3487.2322L13550.1832,-3487.2758L13550.1796,-3487.2901L13550.1673,-3487.3122L13550.1412,-3487.3599L13550.1293,-3487.3773L13550.1014,-3487.4183L13550.071,-3487.4786L13550.0657,-3487.4877L13550.0586,-3487.5L13550.0507,-3487.5138L13550.0413,-3487.5221L13550.0058,-3487.5513L13550,-3487.5571L13549.9841,-3487.5728L13549.966,-3487.5996L13549.9599,-3487.6157L13549.957,-3487.6312L13549.9584,-3487.6784L13549.9591,-3487.7172L13549.9577,-3487.7368L13549.9526,-3487.7517L13549.9476,-3487.7687L13549.9338,-3487.8144L13549.9331,-3487.8322L13549.9302,-3487.8519L13549.9266,-3487.8657L13549.9273,-3487.8776L13549.932,-3487.9015L13549.9327,-3487.9211L13549.9298,-3487.9378L13549.9233,-3487.9522L13549.9052,-3487.9718L13549.8835,-3487.9873L13549.8531,-3488.004L13549.822,-3488.01L13549.7873,-3488.0201L13549.7619,-3488.0279L13549.7489,-3488.0368L13549.7373,-3488.0458L13549.7265,-3488.0506L13549.7187,-3488.0512L13549.7013,-3488.0505L13549.6692,-3488.0732L13549.6514,-3488.0844L13549.624,-3488.0965L13549.6002,-3488.107L13549.5901,-3488.1148L13549.5831,-3488.153L13549.5795,-3488.1723L13549.5794,-3488.1726L13549.5776,-3488.205L13549.5806,-3488.2461L13549.5967,-3488.2927L13549.6276,-3488.3236L13549.6394,-3488.3333L13549.6478,-3488.3402L13549.6775,-3488.351L13549.7037,-3488.3559L13549.7187,-3488.3559L13549.7572,-3488.3724L13549.8064,-3488.4016L13549.8332,-3488.4249L13549.8528,-3488.4475L13549.8593,-3488.469L13549.8597,-3488.5024L13549.8626,-3488.5304L13549.8712,-3488.5477L13549.885,-3488.5662L13549.9074,-3488.5871L13549.9389,-3488.6056L13549.9569,-3488.6265L13549.9584,-3488.6282L13549.9802,-3488.6563L13549.9831,-3488.67L13549.9823,-3488.6957L13549.9917,-3488.7297L13550,-3488.751L13550.0026,-3488.7577L13550.012,-3488.7702L13550.0279,-3488.7809L13550.0439,-3488.7875L13550.0627,-3488.7929L13550.0598,-3488.8186L13550.0591,-3488.8555L13550.0518,-3488.8895L13550.0497,-3488.9402L13550.046,-3488.9647L13550.046,-3488.9886L13550.0489,-3489.0041L13550.0605,-3489.0488L13550.0685,-3489.0661L13550.0743,-3489.0858L13550.0808,-3489.115L13550.0862,-3489.1351L13550.0947,-3489.1667L13550.096,-3489.1717L13550.1047,-3489.2099L13550.1006,-3489.2329L13550.1003,-3489.2343L13550.1011,-3489.2516L13550.1042,-3489.2578Z"/>
<path content="大阪府,,,箕面市,,27220" xlink:title="大阪府" d="M13547.9984,-3489.2578L13547.9994,-3489.2535L13548.0045,-3489.2327L13548.0047,-3489.2168L13547.9967,-3489.1935L13547.9887,-3489.181L13547.9786,-3489.1667L13547.9706,-3489.1559L13547.9618,-3489.1467L13547.9569,-3489.1416L13547.9055,-3489.1059L13547.8744,-3489.0886L13547.8056,-3489.0426L13547.7868,-3489.0271L13547.7774,-3489.0146L13547.7702,-3488.9955L13547.7788,-3488.9287L13547.7977,-3488.7944L13547.8027,-3488.7711L13547.8129,-3488.7407L13547.8259,-3488.7192L13547.8498,-3488.6942L13547.8867,-3488.6608L13547.9026,-3488.6375L13547.9091,-3488.6266L13547.9178,-3488.6119L13547.9214,-3488.591L13547.92,-3488.5714L13547.912,-3488.5493L13547.9048,-3488.5374L13547.8932,-3488.5261L13547.8809,-3488.5124L13547.8758,-3488.4944L13547.878,-3488.4795L13547.8932,-3488.4646L13547.9279,-3488.4467L13547.9743,-3488.4324L13548.0017,-3488.4235L13548.0114,-3488.4217L13548.0314,-3488.4181L13548.0521,-3488.4149L13548.0637,-3488.4065L13548.0695,-3488.3916L13548.0681,-3488.3797L13548.0579,-3488.3594L13548.055,-3488.3427L13548.0582,-3488.3333L13548.0652,-3488.3129L13548.0927,-3488.2598L13548.1093,-3488.2097L13548.1136,-3488.19L13548.1209,-3488.1464L13548.1491,-3488.1279L13548.1629,-3488.1142L13548.1716,-3488.0904L13548.1708,-3488.0742L13548.1571,-3488.045L13548.1462,-3488.0253L13548.1259,-3487.9879L13548.1129,-3487.9503L13548.1071,-3487.9294L13548.1064,-3487.9086L13548.1096,-3487.8927L13548.1151,-3487.8662L13548.1332,-3487.8286L13548.1397,-3487.8149L13548.1469,-3487.7964L13548.1477,-3487.7827L13548.1419,-3487.7576L13548.1296,-3487.7195L13548.1281,-3487.7034L13548.1354,-3487.6717L13548.1567,-3487.597L13548.171,-3487.5469L13548.1811,-3487.5147L13548.1883,-3487.5L13548.1985,-3487.4789L13548.2151,-3487.4706L13548.2347,-3487.4634L13548.2564,-3487.4581L13548.2803,-3487.4575L13548.3013,-3487.4539L13548.3333,-3487.4399L13548.3519,-3487.4318L13548.3932,-3487.4211L13548.4069,-3487.4133L13548.411,-3487.4066L13548.4127,-3487.4038L13548.4243,-3487.3722L13548.4337,-3487.3608L13548.4547,-3487.3465L13548.4793,-3487.3399L13548.5155,-3487.3435L13548.543,-3487.3459L13548.5676,-3487.3453L13548.5879,-3487.3471L13548.6067,-3487.3584L13548.6183,-3487.368L13548.6371,-3487.3716L13548.6624,-3487.371L13548.6848,-3487.3722L13548.7022,-3487.3763L13548.721,-3487.3847L13548.749,-3487.4038L13548.7678,-3487.4223L13548.7852,-3487.4467L13548.796,-3487.467L13548.8091,-3487.5L13548.8156,-3487.5165L13548.8199,-3487.5338L13548.8228,-3487.5439L13548.8351,-3487.5708L13548.8525,-3487.5952L13548.8677,-3487.6149L13548.8758,-3487.6351L13548.8763,-3487.6364L13548.878,-3487.6517L13548.8785,-3487.6567L13548.8771,-3487.6907L13548.8821,-3487.7074L13548.8981,-3487.7163L13548.9169,-3487.7187L13548.9422,-3487.7187L13549.0045,-3487.7295L13549.0269,-3487.7342L13549.0414,-3487.7414L13549.0497,-3487.7456L13549.0822,-3487.7621L13549.1162,-3487.7848L13549.1509,-3487.8075L13549.1604,-3487.8146L13549.1667,-3487.8162L13549.2139,-3487.8277L13549.2378,-3487.8343L13549.2588,-3487.8397L13549.2827,-3487.854L13549.3126,-3487.8747L13549.322,-3487.8867L13549.3263,-3487.8913L13549.3359,-3487.9019L13549.3597,-3487.9278L13549.3703,-3487.9369L13549.3799,-3487.9451L13549.4046,-3487.9523L13549.4264,-3487.9513L13549.4334,-3487.951L13549.4465,-3487.9505L13549.4487,-3487.9493L13549.4856,-3487.929L13549.5147,-3487.9131L13549.525,-3487.9074L13549.5539,-3487.8967L13549.5544,-3487.8944L13549.5648,-3487.8472L13549.5684,-3487.8382L13549.6176,-3487.8472L13549.6249,-3487.8412L13549.6466,-3487.8066L13549.6618,-3487.7893L13549.6729,-3487.7788L13549.6965,-3487.7565L13549.7106,-3487.7485L13549.7187,-3487.7481L13549.7413,-3487.7434L13549.7659,-3487.7404L13549.792,-3487.7404L13549.818,-3487.7428L13549.8303,-3487.747L13549.8513,-3487.7649L13549.8629,-3487.772L13549.8759,-3487.7774L13549.8853,-3487.7792L13549.8983,-3487.7774L13549.9172,-3487.7732L13549.9411,-3487.7619L13549.9526,-3487.7517L13549.9577,-3487.7368L13549.9591,-3487.7172L13549.9584,-3487.6784L13549.957,-3487.6312L13549.9599,-3487.6157L13549.966,-3487.5996L13549.9841,-3487.5728L13550,-3487.5571L13550.0058,-3487.5513L13550.0413,-3487.5221L13550.0507,-3487.5138L13550.0586,-3487.5L13550.0657,-3487.4877L13550.071,-3487.4786L13550.1014,-3487.4183L13550.1293,-3487.3773L13550.1412,-3487.3599L13550.1673,-3487.3122L13550.1796,-3487.2901L13550.1832,-3487.2758L13550.1828,-3487.2322L13550.1872,-3487.2149L13550.2007,-3487.1926L13550.2081,-3487.1803L13550.2296,-3487.1501L13550.2436,-3487.1302L13550.2805,-3487.0712L13550.2972,-3487.0521L13550.3138,-3487.0259L13550.3196,-3487.0098L13550.3254,-3487.0032L13550.3384,-3486.999L13550.3478,-3486.999L13550.3558,-3487.0068L13550.3724,-3487.0181L13550.3797,-3487.0294L13550.3797,-3487.039L13550.3724,-3487.0593L13550.371,-3487.0706L13550.3724,-3487.0819L13550.3775,-3487.0891L13550.384,-3487.0944L13550.3971,-3487.0974L13550.402,-3487.0977L13550.4246,-3487.0992L13550.4513,-3487.107L13550.5063,-3487.141L13550.5237,-3487.1469L13550.5346,-3487.1553L13550.5396,-3487.1654L13550.5404,-3487.1815L13550.5454,-3487.1857L13550.5707,-3487.1964L13550.5845,-3487.206L13550.5954,-3487.2215L13550.6062,-3487.2573L13550.6214,-3487.2871L13550.6373,-3487.3104L13550.6504,-3487.3384L13550.6598,-3487.3587L13550.675,-3487.3837L13550.7046,-3487.4106L13550.7213,-3487.4416L13550.7307,-3487.4494L13550.7531,-3487.4589L13550.7929,-3487.4649L13550.8103,-3487.4714L13550.8172,-3487.4765L13550.8288,-3487.4851L13550.8317,-3487.4893L13550.8333,-3487.4916L13550.8392,-3487.5L13550.8477,-3487.5122L13550.8483,-3487.5132L13550.8534,-3487.5186L13550.8642,-3487.5197L13550.8751,-3487.5156L13550.8838,-3487.5105L13550.8874,-3487.5084L13550.9026,-3487.5084L13550.9214,-3487.5156L13550.9352,-3487.5305L13550.9533,-3487.5424L13550.9619,-3487.5549L13550.9684,-3487.5573L13550.9793,-3487.5519L13550.9804,-3487.5513L13551.0003,-3487.5388L13551.0148,-3487.5221L13551.0336,-3487.5012L13551.0353,-3487.5L13551.0575,-3487.4839L13551.0734,-3487.4774L13551.1147,-3487.4661L13551.148,-3487.4535L13551.1646,-3487.444L13551.1726,-3487.4362L13551.174,-3487.4243L13551.174,-3487.4016L13551.1784,-3487.3837L13551.1834,-3487.3736L13551.1934,-3487.3627L13551.2066,-3487.3486L13551.2341,-3487.3259L13551.2453,-3487.3136L13551.2536,-3487.3044L13551.2674,-3487.2794L13551.2724,-3487.2715L13551.2876,-3487.2477L13551.313,-3487.2048L13551.3188,-3487.1815L13551.3289,-3487.1338L13551.3296,-3487.1141L13551.3253,-3487.0944L13551.3115,-3487.0778L13551.3046,-3487.0641L13551.3003,-3487.0515L13551.2996,-3487.0223L13551.2946,-3487.0008L13551.2772,-3486.9764L13551.2598,-3486.9602L13551.2308,-3486.9406L13551.2228,-3486.9339L13551.2166,-3486.9287L13551.2051,-3486.9191L13551.1928,-3486.903L13551.1813,-3486.8797L13551.1755,-3486.8594L13551.1726,-3486.826L13551.1755,-3486.8016L13551.1805,-3486.7867L13551.2008,-3486.7575L13551.2189,-3486.7235L13551.2428,-3486.6686L13551.2434,-3486.6667L13551.2609,-3486.6095L13551.2695,-3486.5844L13551.2703,-3486.5821L13551.2804,-3486.5445L13551.2884,-3486.5284L13551.3,-3486.5153L13551.3188,-3486.5004L13551.3695,-3486.4706L13551.3912,-3486.4521L13551.4057,-3486.4407L13551.418,-3486.4354L13551.4332,-3486.4318L13551.4961,-3486.4252L13551.5801,-3486.4127L13551.5873,-3486.4103L13551.5887,-3486.4056L13551.5815,-3486.3972L13551.5793,-3486.3884L13551.5772,-3486.3799L13551.5764,-3486.3759L13551.5743,-3486.3644L13551.5736,-3486.297L13551.5757,-3486.2666L13551.5779,-3486.2391L13551.5813,-3486.2267L13551.5844,-3486.2147L13551.5844,-3486.2046L13551.5797,-3486.1574L13551.5725,-3486.121L13551.5653,-3486.1073L13551.5582,-3486.0995L13551.5464,-3486.0864L13551.5218,-3486.0697L13551.4712,-3486.0477L13551.4407,-3486.0304L13551.4364,-3486.0232L13551.4386,-3486.0167L13551.4394,-3486.0157L13551.4466,-3486.0071L13551.6659,-3485.8333L13551.6667,-3485.8327L13551.6905,-3485.8139L13551.8092,-3485.7202L13551.8222,-3485.7131L13551.823,-3485.7128L13551.8374,-3485.7083L13551.9293,-3485.691L13551.9561,-3485.6838L13551.972,-3485.6779L13551.9843,-3485.6701L13552.0068,-3485.6385L13552.0186,-3485.6162L13552.0372,-3485.5812L13552.0415,-3485.5657L13552.0415,-3485.5478L13552.0364,-3485.5312L13551.9992,-3485.4644L13551.992,-3485.4494L13551.9949,-3485.4459L13552.0283,-3485.4326L13552.0325,-3485.4309L13552.0469,-3485.4238L13552.0469,-3485.4178L13552.0412,-3485.4011L13552.0426,-3485.3951L13552.0527,-3485.3779L13552.0621,-3485.3576L13552.0658,-3485.3456L13552.0643,-3485.3307L13552.0585,-3485.3164L13552.0426,-3485.286L13552.0339,-3485.2651L13552.0325,-3485.2466L13552.0325,-3485.2461L13552.0339,-3485.2216L13552.0376,-3485.2132L13552.0434,-3485.2097L13552.0571,-3485.2079L13552.2236,-3485.2037L13552.2473,-3485.2025L13552.2713,-3485.2013L13552.2822,-3485.2001L13552.2829,-3485.1941L13552.2735,-3485.1321L13552.2744,-3485.0696L13552.2749,-3485.0373L13552.2771,-3485.0182L13552.2835,-3485L13552.288,-3484.9872L13552.2909,-3484.9729L13552.2914,-3484.9518L13552.2923,-3484.915L13552.2923,-3484.8888L13552.2879,-3484.7901L13552.2886,-3484.7521L13552.3664,-3484.7485L13552.4155,-3484.7461L13552.4371,-3484.7456L13552.4752,-3484.7475L13552.4964,-3484.7509L13552.5,-3484.7521L13552.5286,-3484.7608L13552.5283,-3484.7528L13552.5283,-3484.7367L13552.5312,-3484.7176L13552.5276,-3484.6818L13552.5275,-3484.6789L13552.5269,-3484.6603L13552.5239,-3484.6281L13552.5168,-3484.6147L13552.5116,-3484.6048L13552.5,-3484.5909L13552.491,-3484.5801L13552.4798,-3484.5667L13552.4429,-3484.5351L13552.4291,-3484.5231L13552.427,-3484.516L13552.4291,-3484.4927L13552.4335,-3484.4629L13552.4385,-3484.4504L13552.4516,-3484.4402L13552.4747,-3484.4349L13552.4877,-3484.4283L13552.5,-3484.419L13552.5066,-3484.414L13552.5215,-3484.4065L13552.5232,-3484.4056L13552.5775,-3484.3961L13552.5927,-3484.3866L13552.5971,-3484.3752L13552.5971,-3484.3585L13552.5942,-3484.3472L13552.5922,-3484.3388L13552.5913,-3484.3353L13552.5833,-3484.3311L13552.5561,-3484.3339L13552.5206,-3484.3377L13552.5095,-3484.3389L13552.5031,-3484.3305L13552.5,-3484.3265L13552.4921,-3484.3162L13552.4841,-3484.2905L13552.4805,-3484.2732L13552.4805,-3484.2536L13552.487,-3484.2291L13552.4993,-3484.1975L13552.5,-3484.1937L13552.5037,-3484.173L13552.5038,-3484.1667L13552.5044,-3484.1354L13552.5,-3484.1018L13552.4997,-3484.0997L13552.4939,-3484.0859L13552.4838,-3484.0794L13552.4775,-3484.0773L13552.4643,-3484.0728L13552.4454,-3484.074L13552.3977,-3484.0812L13552.3759,-3484.0794L13552.3616,-3484.0749L13552.355,-3484.0728L13552.3333,-3484.0627L13552.3195,-3484.0561L13552.2913,-3484.0305L13552.2377,-3483.9923L13552.2189,-3483.9851L13552.2044,-3483.9822L13552.1936,-3483.9827L13552.1501,-3484.0048L13552.1234,-3484.0126L13552.1161,-3484.0167L13552.1067,-3484.0281L13552.0915,-3484.0341L13552.0582,-3484.0507L13551.9953,-3484.0704L13551.9829,-3484.0722L13551.9743,-3484.071L13551.9526,-3484.0591L13551.9359,-3484.0471L13551.9294,-3484.0334L13551.9225,-3484.0108L13551.9159,-3483.977L13551.9146,-3483.9702L13551.9103,-3483.9621L13551.9052,-3483.9523L13551.8965,-3483.9356L13551.8907,-3483.9207L13551.8661,-3483.9052L13551.8596,-3483.8986L13551.8574,-3483.8921L13551.861,-3483.8861L13551.869,-3483.8831L13551.8806,-3483.8825L13551.8878,-3483.8807L13551.9037,-3483.867L13551.9155,-3483.8654L13551.9167,-3483.8652L13551.9298,-3483.8658L13551.9428,-3483.8718L13551.9855,-3483.9028L13551.9906,-3483.904L13552.0043,-3483.8969L13552.0058,-3483.8921L13551.9956,-3483.8772L13551.9841,-3483.8611L13551.9783,-3483.8509L13551.9783,-3483.842L13551.9854,-3483.8302L13551.9865,-3483.8284L13551.9898,-3483.8229L13551.9898,-3483.8175L13551.9843,-3483.8099L13551.9833,-3483.8086L13551.9775,-3483.7979L13551.9732,-3483.7836L13551.9739,-3483.7722L13551.9804,-3483.7632L13551.9877,-3483.7579L13552.0137,-3483.7531L13552.0224,-3483.7507L13552.0362,-3483.7372L13552.0376,-3483.7358L13552.068,-3483.6935L13552.0626,-3483.6571L13552.0587,-3483.6116L13552.0583,-3483.5889L13552.0579,-3483.5686L13552.0776,-3483.5634L13552.1045,-3483.5582L13552.1235,-3483.5556L13552.1512,-3483.5438L13552.1686,-3483.5425L13552.182,-3483.5386L13552.2034,-3483.5321L13552.2374,-3483.5138L13552.2655,-3483.4962L13552.2837,-3483.4844L13552.3272,-3483.4564L13552.3469,-3483.4577L13552.3667,-3483.4636L13552.3833,-3483.4727L13552.4079,-3483.4857L13552.4395,-3483.4988L13552.4584,-3483.5007L13552.4774,-3483.5014L13552.4917,-3483.4994L13552.5,-3483.4945L13552.5027,-3483.4929L13552.5146,-3483.4772L13552.5257,-3483.4583L13552.5328,-3483.4446L13552.5423,-3483.4348L13552.5534,-3483.4342L13552.5676,-3483.4407L13552.5945,-3483.4583L13552.6079,-3483.4727L13552.6085,-3483.4694L13552.6107,-3483.4551L13552.621,-3483.429L13552.6171,-3483.4244L13552.6067,-3483.4199L13552.5941,-3483.4146L13552.5759,-3483.4114L13552.5395,-3483.4101L13552.5269,-3483.4068L13552.5174,-3483.3977L13552.5151,-3483.3937L13552.5,-3483.3684L13552.4992,-3483.367L13552.4889,-3483.3546L13552.4782,-3483.3421L13552.4708,-3483.3333L13552.4683,-3483.3305L13552.4581,-3483.3187L13552.4478,-3483.2985L13552.4486,-3483.2828L13552.4573,-3483.2691L13552.4679,-3483.2574L13552.483,-3483.2496L13552.5,-3483.2419L13552.5019,-3483.2411L13552.5194,-3483.2358L13552.5431,-3483.2319L13552.5637,-3483.2221L13552.5716,-3483.2091L13552.5771,-3483.1876L13552.5795,-3483.1739L13552.5866,-3483.1615L13552.5937,-3483.1471L13552.6064,-3483.1243L13552.6119,-3483.1086L13552.6222,-3483.0792L13552.6182,-3483.0603L13552.6056,-3483.0225L13552.6008,-3483.0042L13552.5965,-3482.9886L13552.5917,-3482.9677L13552.5878,-3482.9527L13552.5791,-3482.9338L13552.568,-3482.8907L13552.5617,-3482.8698L13552.553,-3482.8529L13552.5435,-3482.832L13552.5313,-3482.7882L13552.5265,-3482.7706L13552.5241,-3482.7589L13552.5139,-3482.7407L13552.5036,-3482.7048L13552.5,-3482.7004L13552.4822,-3482.6787L13552.4703,-3482.6669L13552.4434,-3482.6434L13552.4205,-3482.6317L13552.3986,-3482.624L13552.3924,-3482.6294L13552.3683,-3482.6376L13552.3584,-3482.6452L13552.3513,-3482.6539L13552.3435,-3482.6616L13552.3336,-3482.6645L13552.3244,-3482.6621L13552.3123,-3482.6411L13552.2925,-3482.6259L13552.2783,-3482.6136L13552.2528,-3482.6031L13552.2273,-3482.5937L13552.2088,-3482.5896L13552.1939,-3482.596L13552.1797,-3482.6124L13552.1634,-3482.6294L13552.1624,-3482.6306L13552.1457,-3482.6493L13552.1336,-3482.6557L13552.1166,-3482.6592L13552.0996,-3482.661L13552.0884,-3482.6591L13552.0859,-3482.6586L13552.0768,-3482.6571L13552.0485,-3482.6522L13551.9961,-3482.6393L13551.9723,-3482.6294L13551.9504,-3482.6247L13551.9284,-3482.6194L13551.9071,-3482.6182L13551.8936,-3482.627L13551.8801,-3482.6425L13551.8702,-3482.6539L13551.8624,-3482.6709L13551.8596,-3482.6925L13551.8582,-3482.7071L13551.8624,-3482.7247L13551.8738,-3482.7469L13551.8757,-3482.7588L13551.8766,-3482.7639L13551.8745,-3482.7914L13551.852,-3482.7965L13551.8433,-3482.7985L13551.8103,-3482.806L13551.7812,-3482.8037L13551.7632,-3482.8001L13551.7458,-3482.7967L13551.7153,-3482.7943L13551.6983,-3482.7937L13551.6749,-3482.7926L13551.6667,-3482.7945L13551.6529,-3482.7978L13551.6153,-3482.8084L13551.5988,-3482.8095L13551.5856,-3482.8103L13551.5714,-3482.8113L13551.5487,-3482.8119L13551.5313,-3482.7826L13551.5263,-3482.7738L13551.515,-3482.7621L13551.4973,-3482.7557L13551.4561,-3482.7358L13551.4363,-3482.7276L13551.4114,-3482.7264L13551.3831,-3482.7271L13551.3519,-3482.7224L13551.3363,-3482.7165L13551.3157,-3482.7054L13551.3016,-3482.6931L13551.2924,-3482.668L13551.2725,-3482.6656L13551.242,-3482.668L13551.2264,-3482.6721L13551.2115,-3482.6773L13551.1778,-3482.6937L13551.158,-3482.7083L13551.1466,-3482.7212L13551.136,-3482.7376L13551.1183,-3482.7539L13551.1119,-3482.7727L13551.1019,-3482.7984L13551.0878,-3482.8183L13551.0771,-3482.8323L13551.0629,-3482.8458L13551.0474,-3482.8633L13551.0356,-3482.8738L13551.0207,-3482.8814L13551.0052,-3482.882L13550.9917,-3482.8832L13550.9669,-3482.8838L13550.9463,-3482.8844L13550.9073,-3482.8879L13550.8897,-3482.8921L13550.8754,-3482.8955L13550.8626,-3482.9066L13550.8492,-3482.916L13550.8336,-3482.9195L13550.8333,-3482.9195L13550.8144,-3482.9218L13550.7903,-3482.93L13550.7697,-3482.9376L13550.7641,-3482.9464L13550.7634,-3482.9604L13550.7634,-3482.9719L13550.7634,-3482.9727L13550.7446,-3482.9832L13550.7134,-3482.9914L13550.6943,-3482.9967L13550.6779,-3483.0026L13550.6588,-3483.0107L13550.6481,-3483.0183L13550.6411,-3483.0306L13550.6191,-3483.0563L13550.5893,-3483.0704L13550.5701,-3483.0809L13550.5556,-3483.0844L13550.5372,-3483.0867L13550.5039,-3483.0873L13550.4805,-3483.0774L13550.4599,-3483.071L13550.4386,-3483.0692L13550.4202,-3483.068L13550.3755,-3483.0651L13550.3599,-3483.061L13550.3457,-3483.0587L13550.328,-3483.0552L13550.3025,-3483.0528L13550.2734,-3483.0476L13550.2599,-3483.0423L13550.2557,-3483.033L13550.2479,-3483.0131L13550.2351,-3483.0049L13550.2181,-3483.002L13550.1904,-3483.0026L13550.155,-3483.0131L13550.1323,-3483.0166L13550.1132,-3483.0172L13550.0919,-3483.0125L13550.0756,-3483.0119L13550.0649,-3483.0125L13550.0593,-3483.0219L13550.0462,-3483.0277L13550.0341,-3483.0242L13550.027,-3483.016L13550.0243,-3482.9878L13550.0221,-3482.9645L13550.0143,-3482.9411L13550.0121,-3482.9242L13550.0086,-3482.9107L13550.0072,-3482.9013L13550.0135,-3482.8896L13550.049,-3482.882L13550.0667,-3482.8756L13550.0916,-3482.868L13550.1079,-3482.861L13550.1099,-3482.8575L13550.1128,-3482.8528L13550.1114,-3482.8382L13550.1045,-3482.8219L13550.1039,-3482.8206L13550.0898,-3482.8177L13550.0713,-3482.8177L13550.0579,-3482.8142L13550.0494,-3482.7984L13550.0423,-3482.7803L13550.0337,-3482.7697L13550.0146,-3482.7581L13550,-3482.7527L13549.9728,-3482.7428L13549.9579,-3482.7364L13549.9373,-3482.7206L13549.9274,-3482.7048L13549.9189,-3482.6837L13549.9097,-3482.6668L13549.899,-3482.6516L13549.8877,-3482.6399L13549.8497,-3482.62L13549.8164,-3482.6171L13549.8138,-3482.6082L13549.8115,-3482.6001L13549.8098,-3482.5944L13549.8074,-3482.5862L13549.8065,-3482.5831L13549.8018,-3482.5821L13549.7845,-3482.5784L13549.7661,-3482.5738L13549.7562,-3482.565L13549.7562,-3482.534L13549.7611,-3482.5106L13549.7632,-3482.5L13549.7654,-3482.4884L13549.7188,-3482.4872L13549.6894,-3482.4716L13549.6706,-3482.4573L13549.6626,-3482.4394L13549.6616,-3482.4322L13549.6597,-3482.4182L13549.6604,-3482.4069L13549.659,-3482.3985L13549.6532,-3482.392L13549.6431,-3482.386L13549.6292,-3482.3766L13549.6185,-3482.3693L13549.6061,-3482.3542L13549.5975,-3482.3437L13549.5917,-3482.3246L13549.5859,-3482.3109L13549.5838,-3482.3007L13549.5903,-3482.2709L13549.5962,-3482.2608L13549.5997,-3482.2548L13549.6011,-3482.2423L13549.5954,-3482.2297L13549.5701,-3482.2202L13549.5411,-3482.2196L13549.5158,-3482.2256L13549.4999,-3482.2286L13549.4884,-3482.2262L13549.4811,-3482.219L13549.4703,-3482.2044L13549.4587,-3482.1871L13549.4443,-3482.1734L13549.4319,-3482.1692L13549.4139,-3482.1728L13549.377,-3482.1865L13549.3517,-3482.1925L13549.33,-3482.1793L13549.2946,-3482.1251L13549.2794,-3482.1006L13549.2714,-3482.0845L13549.2671,-3482.0696L13549.2627,-3482.062L13549.2512,-3482.0422L13549.2418,-3482.0261L13549.2432,-3482.0076L13549.2461,-3481.9822L13549.2469,-3481.9202L13549.2526,-3481.8915L13549.2657,-3481.8719L13549.2938,-3481.8319L13549.2974,-3481.8188L13549.2975,-3481.7937L13549.2953,-3481.7717L13549.283,-3481.749L13549.2707,-3481.7454L13549.2563,-3481.7478L13549.2433,-3481.7511L13549.2302,-3481.7493L13549.1926,-3481.7346L13549.1667,-3481.7244L13549.1615,-3481.7224L13549.1579,-3481.7141L13549.1565,-3481.6884L13549.1398,-3481.6783L13549.1196,-3481.6717L13549.0986,-3481.667L13549.0973,-3481.6667L13549.0632,-3481.6586L13549.0314,-3481.6473L13549.0141,-3481.6419L13548.9837,-3481.6383L13548.9656,-3481.6395L13548.896,-3481.6667L13548.8861,-3481.6706L13548.8622,-3481.6762L13548.8419,-3481.6798L13548.8289,-3481.6804L13548.8166,-3481.6756L13548.8081,-3481.6667L13548.8036,-3481.6619L13548.787,-3481.6494L13548.766,-3481.647L13548.7356,-3481.65L13548.7181,-3481.6542L13548.6864,-3481.6618L13548.6844,-3481.6623L13548.6671,-3481.6664L13548.6662,-3481.6667L13548.6569,-3481.6689L13548.6489,-3481.6708L13548.6048,-3481.678L13548.5708,-3481.689L13548.5477,-3481.6962L13548.5354,-3481.7003L13548.4949,-3481.7051L13548.4602,-3481.7075L13548.424,-3481.7045L13548.3756,-3481.7045L13548.3524,-3481.7099L13548.3333,-3481.7256L13548.3227,-3481.7344L13548.3076,-3481.7469L13548.2744,-3481.7672L13548.2303,-3481.7976L13548.2122,-3481.8077L13548.1963,-3481.8217L13548.1623,-3481.8426L13548.1471,-3481.8468L13548.1297,-3481.8468L13548.1066,-3481.8462L13548.0784,-3481.8539L13548.0683,-3481.8629L13548.0599,-3481.8696L13548.0191,-3481.9022L13547.9757,-3481.9022L13547.9547,-3481.9034L13547.9324,-3481.9104L13547.9164,-3481.9154L13547.8521,-3481.9416L13547.8374,-3481.9502L13547.8253,-3481.9572L13547.8101,-3481.9661L13547.7979,-3481.9786L13547.7807,-3482.0014L13547.766,-3482.0209L13547.7429,-3482.0314L13547.7321,-3482.0397L13547.721,-3482.0446L13547.7115,-3482.0488L13547.7057,-3482.0513L13547.6888,-3482.0587L13547.6782,-3482.0634L13547.6723,-3482.0659L13547.6629,-3482.0701L13547.6518,-3482.0749L13547.6338,-3482.0811L13547.6171,-3482.0868L13547.6163,-3482.0982L13547.6149,-3482.1155L13547.5773,-3482.1071L13547.5527,-3482.088L13547.5325,-3482.0749L13547.5159,-3482.0677L13547.5028,-3482.0576L13547.5,-3482.0571L13547.4863,-3482.0546L13547.4732,-3482.0523L13547.4594,-3482.0481L13547.4327,-3482.0367L13547.4117,-3482.0293L13547.3915,-3482.0221L13547.3806,-3482.0084L13547.3532,-3481.9935L13547.353,-3481.9935L13547.3221,-3481.9852L13547.2758,-3481.9726L13547.2303,-3481.9506L13547.1999,-3481.9315L13547.184,-3481.9213L13547.177,-3481.9172L13547.1616,-3481.9082L13547.124,-3481.876L13547.1016,-3481.8629L13547.0864,-3481.8554L13547.0408,-3481.8298L13547.0234,-3481.8172L13546.9663,-3481.7809L13546.9286,-3481.7567L13546.915,-3481.748L13546.9078,-3481.7379L13546.894,-3481.7272L13546.888,-3481.7134L13546.8839,-3481.7039L13546.8413,-3481.6723L13546.8342,-3481.6667L13546.827,-3481.661L13546.7906,-3481.632L13546.7661,-3481.61L13546.75,-3481.6048L13546.7248,-3481.5968L13546.71,-3481.5833L13546.7062,-3481.5797L13546.7053,-3481.5789L13546.6829,-3481.57L13546.6667,-3481.5669L13546.6224,-3481.5583L13546.6177,-3481.5574L13546.6055,-3481.5551L13546.5875,-3481.5485L13546.5712,-3481.5355L13546.5651,-3481.5306L13546.5527,-3481.5145L13546.5481,-3481.5009L13546.5477,-3481.4996L13546.5325,-3481.4829L13546.5101,-3481.4656L13546.5006,-3481.4599L13546.4909,-3481.4541L13546.4419,-3481.4246L13546.4293,-3481.4171L13546.4125,-3481.407L13546.3844,-3481.3909L13546.3746,-3481.3853L13546.3601,-3481.377L13546.3436,-3481.3676L13546.3351,-3481.3628L13546.3234,-3481.3561L13546.3113,-3481.3492L13546.2932,-3481.3402L13546.2802,-3481.3205L13546.2751,-3481.3002L13546.2664,-3481.2931L13546.2656,-3481.2928L13546.2492,-3481.2867L13546.2389,-3481.2829L13546.2158,-3481.2719L13546.1956,-3481.2498L13546.1681,-3481.1896L13546.1624,-3481.1772L13546.1542,-3481.159L13546.145,-3481.1389L13546.1291,-3481.1198L13546.1103,-3481.1102L13546.0874,-3481.1031L13546.0611,-3481.0949L13546.0513,-3481.0918L13546.0387,-3481.0879L13546.0253,-3481.0837L13546.0041,-3481.0771L13545.9938,-3481.0739L13545.9762,-3481.0684L13545.9671,-3481.0655L13545.9504,-3481.0625L13545.9401,-3481.0586L13545.9291,-3481.0544L13545.9237,-3481.0524L13545.8969,-3481.047L13545.8803,-3481.0437L13545.8333,-3481.0291L13545.8268,-3481.0271L13545.7975,-3481.0276L13545.784,-3481.0279L13545.7755,-3481.028L13545.7646,-3481.0282L13545.7502,-3481.0241L13545.7476,-3481.0217L13545.7386,-3481.0133L13545.714,-3480.9799L13545.688,-3480.9441L13545.6774,-3480.9266L13545.6692,-3480.9131L13545.6547,-3480.9077L13545.6123,-3480.8962L13545.603,-3480.8937L13545.5986,-3480.8925L13545.5791,-3480.8872L13545.5695,-3480.8846L13545.5547,-3480.8806L13545.5513,-3480.8797L13545.549,-3480.8788L13545.5377,-3480.8743L13545.5321,-3480.872L13545.5231,-3480.8684L13545.5132,-3480.8645L13545.5131,-3480.8644L13545.5043,-3480.8609L13545.4805,-3480.852L13545.4655,-3480.8441L13545.4533,-3480.8375L13545.4453,-3480.8333L13545.44,-3480.8305L13545.4338,-3480.8247L13545.4268,-3480.818L13545.4211,-3480.8126L13545.4205,-3480.812L13545.4111,-3480.8031L13545.3988,-3480.7876L13545.3857,-3480.7744L13545.3844,-3480.7716L13545.3816,-3480.7654L13545.3783,-3480.758L13545.3745,-3480.7497L13545.3711,-3480.7423L13545.3671,-3480.7336L13545.3648,-3480.7285L13545.3518,-3480.7219L13545.3424,-3480.7201L13545.3378,-3480.7207L13545.3206,-3480.7226L13545.3105,-3480.7237L13545.2947,-3480.7255L13545.2766,-3480.7297L13545.2651,-3480.7319L13545.2485,-3480.7351L13545.2455,-3480.7356L13545.2325,-3480.7362L13545.23,-3480.7361L13545.2278,-3480.7359L13545.2155,-3480.7351L13545.2023,-3480.7342L13545.1869,-3480.7332L13545.0784,-3480.7354L13545.0496,-3480.7395L13545.0344,-3480.7437L13545.004,-3480.7491L13545,-3480.7502L13544.9852,-3480.7544L13544.9671,-3480.7687L13544.9534,-3480.7819L13544.9353,-3480.7932L13544.9201,-3480.7944L13544.8919,-3480.7998L13544.8774,-3480.8111L13544.8731,-3480.8254L13544.8505,-3480.8333L13544.8493,-3480.8338L13544.8149,-3480.8417L13544.8107,-3480.8427L13544.8119,-3480.8531L13544.8141,-3480.8714L13544.8167,-3480.894L13544.8199,-3480.9044L13544.8387,-3480.9318L13544.8413,-3480.9388L13544.8501,-3480.9626L13544.8517,-3480.9668L13544.8544,-3480.974L13544.8554,-3480.9792L13544.8563,-3480.9837L13544.8582,-3480.9974L13544.8632,-3481.0191L13544.8676,-3481.0386L13544.8776,-3481.0474L13544.8959,-3481.0637L13544.9147,-3481.0805L13544.919,-3481.0842L13544.9211,-3481.0962L13544.9347,-3481.1213L13544.937,-3481.1255L13544.9478,-3481.1456L13544.9557,-3481.1784L13544.9521,-3481.1945L13544.955,-3481.2088L13544.955,-3481.2744L13544.9586,-3481.2864L13544.9458,-3481.2949L13544.9203,-3481.312L13544.8989,-3481.3436L13544.8928,-3481.3526L13544.8919,-3481.3593L13544.8912,-3481.3643L13544.8907,-3481.3676L13544.8896,-3481.3759L13544.8889,-3481.3815L13544.8877,-3481.3902L13544.887,-3481.3952L13544.8848,-3481.3973L13544.877,-3481.4048L13544.8666,-3481.4148L13544.8594,-3481.4216L13544.8447,-3481.4357L13544.8391,-3481.441L13544.8285,-3481.4512L13544.8299,-3481.5037L13544.8277,-3481.5252L13544.8191,-3481.5425L13544.8118,-3481.5574L13544.801,-3481.5664L13544.7902,-3481.5736L13544.7836,-3481.5825L13544.7836,-3481.5926L13544.7893,-3481.6026L13544.7952,-3481.6129L13544.814,-3481.6371L13544.8263,-3481.6448L13544.8342,-3481.6546L13544.8439,-3481.6666L13544.8439,-3481.6667L13544.85,-3481.6741L13544.8646,-3481.6922L13544.8697,-3481.6985L13544.8885,-3481.7098L13544.9008,-3481.7224L13544.921,-3481.7379L13544.9398,-3481.7456L13544.9564,-3481.748L13544.976,-3481.7492L13545,-3481.7489L13545.0172,-3481.7486L13545.0287,-3481.7492L13545.0322,-3481.7458L13545.0394,-3481.7388L13545.0448,-3481.7335L13545.0543,-3481.7244L13545.0649,-3481.714L13545.0743,-3481.7116L13545.0873,-3481.7134L13545.1206,-3481.7313L13545.1278,-3481.7429L13545.1256,-3481.762L13545.1213,-3481.7793L13545.1126,-3481.7931L13545.1003,-3481.808L13545.0916,-3481.8282L13545.0873,-3481.8485L13545.0887,-3481.8652L13545.0945,-3481.8694L13545.1242,-3481.8753L13545.182,-3481.8867L13545.1885,-3481.8911L13545.1954,-3481.8958L13545.1987,-3481.898L13545.1987,-3481.9088L13545.1892,-3481.9148L13545.1849,-3481.9204L13545.1755,-3481.9323L13545.1557,-3481.9957L13545.1517,-3482.0087L13545.1567,-3482.0254L13545.1748,-3482.0492L13545.1808,-3482.0615L13545.1842,-3482.0682L13545.1842,-3482.0924L13545.1704,-3482.1338L13545.1676,-3482.1421L13545.1601,-3482.1472L13545.1494,-3482.1545L13545.1442,-3482.1581L13545.1225,-3482.1729L13545.109,-3482.1821L13545.0757,-3482.2107L13545.0613,-3482.2203L13545.0526,-3482.2316L13545.0491,-3482.246L13545.0468,-3482.2557L13545.0433,-3482.2704L13545.041,-3482.2796L13545.0397,-3482.2943L13545.0393,-3482.3001L13545.0381,-3482.3138L13545.0371,-3482.3242L13545.0358,-3482.3392L13545.0353,-3482.3458L13545.0367,-3482.3596L13545.0417,-3482.3786L13545.0423,-3482.3849L13545.0432,-3482.3971L13545.0425,-3482.4037L13545.0353,-3482.4156L13545.036,-3482.4257L13545.0389,-3482.4377L13545.0403,-3482.4466L13545.0331,-3482.4711L13545.0338,-3482.4794L13545.0381,-3482.4926L13545.0405,-3482.5L13545.0432,-3482.5087L13545.0504,-3482.5284L13545.0555,-3482.5468L13545.0555,-3482.5817L13545.0591,-3482.6074L13545.064,-3482.62L13545.0684,-3482.6313L13545.0735,-3482.6444L13545.0829,-3482.6539L13545.0866,-3482.6647L13545.0844,-3482.6754L13545.075,-3482.6861L13545.0714,-3482.6956L13545.0743,-3482.7028L13545.0894,-3482.7165L13545.0909,-3482.7249L13545.0902,-3482.735L13545.085,-3482.7484L13545.0844,-3482.7499L13545.0829,-3482.7577L13545.0844,-3482.7678L13545.0974,-3482.7842L13545.0988,-3482.7932L13545.0969,-3482.8409L13545.0967,-3482.8475L13545.0945,-3482.8648L13545.0945,-3482.8832L13545.0959,-3482.8928L13545.1039,-3482.9256L13545.1079,-3482.9389L13545.1119,-3482.9524L13545.112,-3482.9528L13545.1193,-3482.971L13545.1249,-3482.9849L13545.1253,-3482.9854L13545.1317,-3482.9923L13545.1364,-3482.9975L13545.156,-3483.0064L13545.1697,-3483.0124L13545.1873,-3483.017L13545.1899,-3483.0177L13545.2218,-3483.0273L13545.242,-3483.0368L13545.2594,-3483.0529L13545.2695,-3483.0691L13545.2767,-3483.0905L13545.2789,-3483.1072L13545.2767,-3483.115L13545.2716,-3483.1257L13545.2705,-3483.1392L13545.2702,-3483.143L13545.289,-3483.1812L13545.2991,-3483.1979L13545.3042,-3483.2194L13545.3143,-3483.231L13545.3183,-3483.234L13545.3353,-3483.2465L13545.3534,-3483.259L13545.362,-3483.2709L13545.3649,-3483.2847L13545.3707,-3483.3157L13545.3766,-3483.3333L13545.3837,-3483.3545L13545.3844,-3483.3682L13545.3823,-3483.3831L13545.3765,-3483.3974L13545.3714,-3483.4159L13545.3454,-3483.4589L13545.3331,-3483.4776L13545.3282,-3483.4823L13545.3237,-3483.4866L13545.3064,-3483.4997L13545.2847,-3483.52L13545.2822,-3483.5246L13545.2767,-3483.5349L13545.2753,-3483.551L13545.2781,-3483.5665L13545.2854,-3483.5856L13545.2977,-3483.6059L13545.3049,-3483.6202L13545.3071,-3483.6327L13545.3068,-3483.6503L13545.3082,-3483.657L13545.3037,-3483.7247L13545.3051,-3483.779L13545.3159,-3483.8077L13545.3312,-3483.8202L13545.3413,-3483.8256L13545.3594,-3483.8387L13545.4093,-3483.8745L13545.4216,-3483.884L13545.4361,-3483.8959L13545.4448,-3483.9097L13545.452,-3483.9216L13545.4549,-3483.9455L13545.4491,-3483.9687L13545.4427,-3483.9908L13545.4376,-3484.0087L13545.4303,-3484.0224L13545.4311,-3484.0409L13545.4397,-3484.0761L13545.439,-3484.094L13545.4376,-3484.1083L13545.4325,-3484.122L13545.4253,-3484.1304L13545.3796,-3484.1596L13545.3731,-3484.1667L13545.3659,-3484.1745L13545.3652,-3484.1882L13545.3724,-3484.2055L13545.3804,-3484.2323L13545.3804,-3484.2431L13545.3753,-3484.258L13545.3734,-3484.2777L13545.3799,-3484.2914L13545.3886,-3484.3081L13545.3994,-3484.32L13545.4023,-3484.3332L13545.4045,-3484.3421L13545.4117,-3484.3427L13545.4247,-3484.3403L13545.4356,-3484.3445L13545.4465,-3484.3558L13545.4494,-3484.3695L13545.4494,-3484.3868L13545.4522,-3484.3994L13545.4637,-3484.4024L13545.4797,-3484.4036L13545.4982,-3484.4021L13545.5021,-3484.4017L13545.5224,-3484.4006L13545.5412,-3484.4012L13545.5484,-3484.4029L13545.56,-3484.4125L13545.5658,-3484.4214L13545.5846,-3484.4334L13545.5976,-3484.4346L13545.6179,-3484.4292L13545.6411,-3484.4256L13545.6541,-3484.4274L13545.6657,-3484.4322L13545.6925,-3484.4578L13545.7062,-3484.4626L13545.7207,-3484.4614L13545.7561,-3484.4513L13545.7894,-3484.4364L13545.8242,-3484.4107L13545.8333,-3484.4064L13545.8459,-3484.4006L13545.8647,-3484.3952L13545.8835,-3484.3892L13545.9031,-3484.3844L13545.9291,-3484.3827L13545.9414,-3484.3831L13545.9472,-3484.3832L13545.9653,-3484.4012L13545.974,-3484.4137L13545.9856,-3484.4286L13545.9936,-3484.4459L13545.995,-3484.4542L13545.9928,-3484.4638L13545.9711,-3484.4984L13545.9556,-3484.513L13545.8956,-3484.5971L13545.8818,-3484.6108L13545.8825,-3484.6257L13545.8984,-3484.6448L13545.9071,-3484.6597L13545.9086,-3484.6711L13545.9079,-3484.6896L13545.9086,-3484.7057L13545.91,-3484.7236L13545.9231,-3484.7945L13545.9299,-3484.8249L13545.9476,-3484.9031L13545.9578,-3484.9335L13545.9817,-3484.9842L13545.9858,-3485L13545.986,-3485.0006L13545.9853,-3485.0173L13545.9824,-3485.0286L13545.9824,-3485.0382L13545.9874,-3485.0424L13546.0215,-3485.0626L13546.0352,-3485.0763L13546.0562,-3485.096L13546.07,-3485.1109L13546.0808,-3485.1324L13546.0787,-3485.1461L13546.0693,-3485.1551L13546.0569,-3485.1557L13546.0439,-3485.1539L13546.0338,-3485.142L13546.0157,-3485.1226L13546.007,-3485.1133L13545.9918,-3485.0996L13545.9831,-3485.0972L13545.9795,-3485.1026L13545.9824,-3485.1169L13545.986,-3485.1336L13545.9874,-3485.1426L13545.9867,-3485.1563L13545.9781,-3485.1903L13545.9744,-3485.207L13545.9737,-3485.2219L13545.9751,-3485.2419L13545.9802,-3485.292L13545.9795,-3485.3099L13545.9751,-3485.3254L13545.9665,-3485.36L13545.9534,-3485.3928L13545.9447,-3485.4083L13545.9382,-3485.4244L13545.9303,-3485.4375L13545.9027,-3485.4763L13545.8839,-3485.493L13545.8701,-3485.5047L13545.8572,-3485.5156L13545.8383,-3485.5347L13545.8383,-3485.5455L13545.8449,-3485.5681L13545.8477,-3485.5842L13545.8514,-3485.6003L13545.8572,-3485.6341L13545.8622,-3485.6639L13545.8709,-3485.68L13545.8811,-3485.6937L13545.8847,-3485.7122L13545.8803,-3485.7336L13545.8753,-3485.7474L13545.8766,-3485.7564L13545.8796,-3485.7778L13545.8844,-3485.7889L13545.8883,-3485.7981L13545.897,-3485.8094L13545.9013,-3485.8201L13545.9102,-3485.8333L13545.9266,-3485.8577L13545.9281,-3485.8738L13545.9259,-3485.8869L13545.9245,-3485.9066L13545.9361,-3485.9526L13545.9518,-3486.0068L13545.9518,-3486.0194L13545.9481,-3486.0342L13545.9373,-3486.0546L13545.9301,-3486.0724L13545.9301,-3486.0879L13545.9344,-3486.1088L13545.9337,-3486.1196L13545.9256,-3486.1304L13545.9199,-3486.1381L13545.896,-3486.1691L13545.875,-3486.1947L13545.8333,-3486.2385L13545.8193,-3486.2532L13545.7515,-3486.3271L13545.7455,-3486.3337L13545.7339,-3486.3474L13545.7201,-3486.3557L13545.6941,-3486.3737L13545.6731,-3486.3899L13545.6702,-3486.3921L13545.6548,-3486.4065L13545.6396,-3486.4327L13545.631,-3486.4607L13545.6273,-3486.4732L13545.6187,-3486.4762L13545.5535,-3486.4762L13545.5253,-3486.4798L13545.5076,-3486.4827L13545.4964,-3486.4846L13545.4739,-3486.4935L13545.4421,-3486.5067L13545.4146,-3486.5126L13545.3751,-3486.5135L13545.3541,-3486.5129L13545.3093,-3486.5177L13545.2861,-3486.5237L13545.2557,-3486.5362L13545.2339,-3486.5445L13545.2166,-3486.5499L13545.1681,-3486.5666L13545.137,-3486.5702L13545.1117,-3486.5785L13545.0979,-3486.5857L13545.0284,-3486.6364L13545.0067,-3486.6471L13545,-3486.6534L13544.9966,-3486.6567L13544.9741,-3486.6662L13544.9736,-3486.6667L13544.9249,-3486.7062L13544.9133,-3486.7229L13544.9068,-3486.7372L13544.8967,-3486.7488L13544.8941,-3486.7517L13544.8807,-3486.767L13544.8749,-3486.7741L13544.8716,-3486.778L13544.8664,-3486.7842L13544.8634,-3486.7879L13544.8576,-3486.8022L13544.8576,-3486.8165L13544.8584,-3486.8326L13544.8569,-3486.8452L13544.8504,-3486.8631L13544.7997,-3486.9251L13544.7867,-3486.9322L13544.7614,-3486.9317L13544.7419,-3486.9358L13544.7259,-3486.9466L13544.7049,-3486.9698L13544.6861,-3486.9954L13544.6396,-3487.0593L13544.5954,-3487.1356L13544.5904,-3487.1517L13544.5853,-3487.1745L13544.5839,-3487.181L13544.5788,-3487.1953L13544.5687,-3487.212L13544.5332,-3487.212L13544.4731,-3487.2233L13544.4,-3487.2525L13544.3761,-3487.2615L13544.3602,-3487.271L13544.3175,-3487.3319L13544.3088,-3487.3498L13544.3103,-3487.3706L13544.3435,-3487.4193L13544.3448,-3487.4211L13544.354,-3487.4343L13544.3544,-3487.4348L13544.3435,-3487.4396L13544.329,-3487.4318L13544.3124,-3487.4234L13544.2762,-3487.4163L13544.2494,-3487.4157L13544.2176,-3487.4282L13544.2074,-3487.4354L13544.2009,-3487.4473L13544.1987,-3487.4694L13544.1973,-3487.4819L13544.1835,-3487.4974L13544.1787,-3487.5L13544.1691,-3487.5051L13544.1667,-3487.5053L13544.1437,-3487.5069L13544.1314,-3487.5051L13544.1225,-3487.5L13544.1097,-3487.4926L13544.075,-3487.4681L13544.0395,-3487.4532L13543.9961,-3487.4282L13543.9914,-3487.4185L13543.9903,-3487.4162L13543.9838,-3487.4037L13543.9784,-3487.3962L13543.97,-3487.3846L13543.9453,-3487.3747L13543.9453,-3488.5171L13543.9483,-3488.5192L13543.9656,-3488.529L13543.9736,-3488.5336L13543.9917,-3488.5521L13543.9903,-3488.5771L13543.9823,-3488.5968L13543.9823,-3488.6129L13543.9736,-3488.6356L13543.9838,-3488.6603L13543.991,-3488.6806L13544.0084,-3488.711L13544.0149,-3488.7372L13544.0156,-3488.7623L13544.0171,-3488.796L13544.0142,-3488.8175L13544.0272,-3488.844L13544.0359,-3488.8661L13544.0591,-3488.9192L13544.075,-3488.9419L13544.0872,-3488.9691L13544.0908,-3488.9775L13544.096,-3488.9936L13544.0902,-3489.0062L13544.0882,-3489.0233L13544.0938,-3489.0457L13544.0971,-3489.0481L13544.1019,-3489.0511L13544.1068,-3489.0546L13544.13,-3489.0606L13544.1667,-3489.0789L13544.1951,-3489.0931L13544.2234,-3489.1062L13544.2494,-3489.1134L13544.293,-3489.1134L13544.3169,-3489.1181L13544.3357,-3489.1223L13544.3509,-3489.1223L13544.3683,-3489.1205L13544.3762,-3489.1199L13544.3863,-3489.1241L13544.3943,-3489.139L13544.4017,-3489.1667L13544.4088,-3489.1933L13544.4167,-3489.2148L13544.4176,-3489.2167L13544.435,-3489.2578Z"/>
<path content="大阪府,,豊能郡,豊能町,,27321" xlink:title="大阪府" d="M13550.1042,-3489.2578L13550.1011,-3489.2516L13550.1003,-3489.2343L13550.1006,-3489.2329L13550.1047,-3489.2099L13550.096,-3489.1717L13550.0947,-3489.1667L13550.0862,-3489.1351L13550.0808,-3489.115L13550.0743,-3489.0858L13550.0685,-3489.0661L13550.0605,-3489.0488L13550.0489,-3489.0041L13550.046,-3488.9886L13550.046,-3488.9647L13550.0497,-3488.9402L13550.0518,-3488.8895L13550.0591,-3488.8555L13550.0598,-3488.8186L13550.0627,-3488.7929L13550.0439,-3488.7875L13550.0279,-3488.7809L13550.012,-3488.7702L13550.0026,-3488.7577L13550,-3488.751L13549.9917,-3488.7297L13549.9823,-3488.6957L13549.9831,-3488.67L13549.9802,-3488.6563L13549.9584,-3488.6282L13549.9569,-3488.6265L13549.9389,-3488.6056L13549.9074,-3488.5871L13549.885,-3488.5662L13549.8712,-3488.5477L13549.8626,-3488.5304L13549.8597,-3488.5024L13549.8593,-3488.469L13549.8528,-3488.4475L13549.8332,-3488.4249L13549.8064,-3488.4016L13549.7572,-3488.3724L13549.7187,-3488.3559L13549.7037,-3488.3559L13549.6775,-3488.351L13549.6478,-3488.3402L13549.6394,-3488.3333L13549.6276,-3488.3236L13549.5967,-3488.2927L13549.5806,-3488.2461L13549.5776,-3488.205L13549.5794,-3488.1726L13549.5795,-3488.1723L13549.5831,-3488.153L13549.5901,-3488.1148L13549.6002,-3488.107L13549.624,-3488.0965L13549.6514,-3488.0844L13549.6692,-3488.0732L13549.7013,-3488.0505L13549.7187,-3488.0512L13549.7265,-3488.0506L13549.7373,-3488.0458L13549.7489,-3488.0368L13549.7619,-3488.0279L13549.7873,-3488.0201L13549.822,-3488.01L13549.8531,-3488.004L13549.8835,-3487.9873L13549.9052,-3487.9718L13549.9233,-3487.9522L13549.9298,-3487.9378L13549.9327,-3487.9211L13549.932,-3487.9015L13549.9273,-3487.8776L13549.9266,-3487.8657L13549.9302,-3487.8519L13549.9331,-3487.8322L13549.9338,-3487.8144L13549.9476,-3487.7687L13549.9526,-3487.7517L13549.9411,-3487.7619L13549.9172,-3487.7732L13549.8983,-3487.7774L13549.8853,-3487.7792L13549.8759,-3487.7774L13549.8629,-3487.772L13549.8513,-3487.7649L13549.8303,-3487.747L13549.818,-3487.7428L13549.792,-3487.7404L13549.7659,-3487.7404L13549.7413,-3487.7434L13549.7187,-3487.7481L13549.7106,-3487.7485L13549.6965,-3487.7565L13549.6729,-3487.7788L13549.6618,-3487.7893L13549.6466,-3487.8066L13549.6249,-3487.8412L13549.6176,-3487.8472L13549.5684,-3487.8382L13549.5648,-3487.8472L13549.5544,-3487.8944L13549.5539,-3487.8967L13549.525,-3487.9074L13549.5147,-3487.9131L13549.4856,-3487.929L13549.4487,-3487.9493L13549.4465,-3487.9505L13549.4334,-3487.951L13549.4264,-3487.9513L13549.4046,-3487.9523L13549.3799,-3487.9451L13549.3703,-3487.9369L13549.3597,-3487.9278L13549.3359,-3487.9019L13549.3263,-3487.8913L13549.322,-3487.8867L13549.3126,-3487.8747L13549.2827,-3487.854L13549.2588,-3487.8397L13549.2378,-3487.8343L13549.2139,-3487.8277L13549.1667,-3487.8162L13549.1604,-3487.8146L13549.1509,-3487.8075L13549.1162,-3487.7848L13549.0822,-3487.7621L13549.0497,-3487.7456L13549.0414,-3487.7414L13549.0269,-3487.7342L13549.0045,-3487.7295L13548.9422,-3487.7187L13548.9169,-3487.7187L13548.8981,-3487.7163L13548.8821,-3487.7074L13548.8771,-3487.6907L13548.8785,-3487.6567L13548.878,-3487.6517L13548.8763,-3487.6364L13548.8758,-3487.6351L13548.8677,-3487.6149L13548.8525,-3487.5952L13548.8351,-3487.5708L13548.8228,-3487.5439L13548.8199,-3487.5338L13548.8156,-3487.5165L13548.8091,-3487.5L13548.796,-3487.467L13548.7852,-3487.4467L13548.7678,-3487.4223L13548.749,-3487.4038L13548.721,-3487.3847L13548.7022,-3487.3763L13548.6848,-3487.3722L13548.6624,-3487.371L13548.6371,-3487.3716L13548.6183,-3487.368L13548.6067,-3487.3584L13548.5879,-3487.3471L13548.5676,-3487.3453L13548.543,-3487.3459L13548.5155,-3487.3435L13548.4793,-3487.3399L13548.4547,-3487.3465L13548.4337,-3487.3608L13548.4243,-3487.3722L13548.4127,-3487.4038L13548.411,-3487.4066L13548.4069,-3487.4133L13548.3932,-3487.4211L13548.3519,-3487.4318L13548.3333,-3487.4399L13548.3013,-3487.4539L13548.2803,-3487.4575L13548.2564,-3487.4581L13548.2347,-3487.4634L13548.2151,-3487.4706L13548.1985,-3487.4789L13548.1883,-3487.5L13548.1811,-3487.5147L13548.171,-3487.5469L13548.1567,-3487.597L13548.1354,-3487.6717L13548.1281,-3487.7034L13548.1296,-3487.7195L13548.1419,-3487.7576L13548.1477,-3487.7827L13548.1469,-3487.7964L13548.1397,-3487.8149L13548.1332,-3487.8286L13548.1151,-3487.8662L13548.1096,-3487.8927L13548.1064,-3487.9086L13548.1071,-3487.9294L13548.1129,-3487.9503L13548.1259,-3487.9879L13548.1462,-3488.0253L13548.1571,-3488.045L13548.1708,-3488.0742L13548.1716,-3488.0904L13548.1629,-3488.1142L13548.1491,-3488.1279L13548.1209,-3488.1464L13548.1136,-3488.19L13548.1093,-3488.2097L13548.0927,-3488.2598L13548.0652,-3488.3129L13548.0582,-3488.3333L13548.055,-3488.3427L13548.0579,-3488.3594L13548.0681,-3488.3797L13548.0695,-3488.3916L13548.0637,-3488.4065L13548.0521,-3488.4149L13548.0314,-3488.4181L13548.0114,-3488.4217L13548.0017,-3488.4235L13547.9743,-3488.4324L13547.9279,-3488.4467L13547.8932,-3488.4646L13547.878,-3488.4795L13547.8758,-3488.4944L13547.8809,-3488.5124L13547.8932,-3488.5261L13547.9048,-3488.5374L13547.912,-3488.5493L13547.92,-3488.5714L13547.9214,-3488.591L13547.9178,-3488.6119L13547.9091,-3488.6266L13547.9026,-3488.6375L13547.8867,-3488.6608L13547.8498,-3488.6942L13547.8259,-3488.7192L13547.8129,-3488.7407L13547.8027,-3488.7711L13547.7977,-3488.7944L13547.7788,-3488.9287L13547.7702,-3488.9955L13547.7774,-3489.0146L13547.7868,-3489.0271L13547.8056,-3489.0426L13547.8744,-3489.0886L13547.9055,-3489.1059L13547.9569,-3489.1416L13547.9618,-3489.1467L13547.9706,-3489.1559L13547.9786,-3489.1667L13547.9887,-3489.181L13547.9967,-3489.1935L13548.0047,-3489.2168L13548.0045,-3489.2327L13547.9994,-3489.2535L13547.9984,-3489.2578Z"/>
<path content="兵庫県,,,川西市,,28217" xlink:title="兵庫県" d="M13544.435,-3489.2578L13544.4176,-3489.2167L13544.4167,-3489.2148L13544.4088,-3489.1933L13544.4017,-3489.1667L13544.3943,-3489.139L13544.3863,-3489.1241L13544.3762,-3489.1199L13544.3683,-3489.1205L13544.3509,-3489.1223L13544.3357,-3489.1223L13544.3169,-3489.1181L13544.293,-3489.1134L13544.2494,-3489.1134L13544.2234,-3489.1062L13544.1951,-3489.0931L13544.1667,-3489.0789L13544.13,-3489.0606L13544.1068,-3489.0546L13544.1019,-3489.0511L13544.0971,-3489.0481L13544.0938,-3489.0457L13544.0882,-3489.0233L13544.0902,-3489.0062L13544.096,-3488.9936L13544.0908,-3488.9775L13544.0872,-3488.9691L13544.075,-3488.9419L13544.0591,-3488.9192L13544.0359,-3488.8661L13544.0272,-3488.844L13544.0142,-3488.8175L13544.0171,-3488.796L13544.0156,-3488.7623L13544.0149,-3488.7372L13544.0084,-3488.711L13543.991,-3488.6806L13543.9838,-3488.6603L13543.9736,-3488.6356L13543.9823,-3488.6129L13543.9823,-3488.5968L13543.9903,-3488.5771L13543.9917,-3488.5521L13543.9736,-3488.5336L13543.9656,-3488.529L13543.9483,-3488.5192L13543.9453,-3488.5171L13543.9453,-3489.2578Z"/>
</g>
</svg>
