<?xml version="1.0" encoding="UTF-8"?>
<svg  xmlns="http://www.w3.org/2000/svg" xmlns:xlink="http://www.w3.org/1999/xlink" xmlns:go="http://purl.org/svgmap/profile" property="geometry,N03_001,N03_002,N03_003,N03_004,N03_005,N03_007" viewBox="13491.2109375 -3454.1015625 8.7890625 8.7890625" go:dataArea="13491.2109375 -3454.1015625 8.7890625 8.7890625" >
<metadata>
 <rdf:RDF xmlns:rdf="http://www.w3.org/1999/02/22-rdf-syntax-ns#" xmlns:crs="http://opengis.org/xmldtds/transformations.dtd" xmlns:svg="http://www.w3.org/svg" >
  <rdf:Description>
   <crs:CoordinateReferenceSystem rdf:resource="http://purl.org/crs/84" svg:transform="matrix(100.0,0.0,0.0,-100.0,0.0,0.0)" />
  </rdf:Description>
 </rdf:RDF>
</metadata>
<globalCoordinateSystem srsName="http://purl.org/crs/84" transform="matrix(100.0,0.0,0.0,-100.0,0.0,0.0)" />
<defs>
 <g id="p0" >
  <circle cx="0.0" cy="0.0" r="3" stroke="green" stroke-width="2.0" vector-effect="non-scaling-stroke" />
 </g>
</defs>
<g fill="#0000ff" fill-rule="evenodd" opacity="0.5" >
<path content="兵庫県,,,淡路市,,28226" xlink:title="兵庫県" d="M13499.5957,-3454.1016L13499.5923,-3454.0975L13499.5845,-3454.0874L13499.5207,-3454.0914L13499.461,-3454.0951L13499.4571,-3454.0863L13499.455,-3454.0816L13499.4544,-3454.0783L13499.4523,-3454.0691L13499.4514,-3454.0683L13499.4497,-3454.0627L13499.4515,-3454.0623L13499.4977,-3454.0528L13499.4965,-3454.0497L13499.4956,-3454.0258L13499.4899,-3454.026L13499.4812,-3454.0288L13499.4798,-3454.0291L13499.4785,-3454.0293L13499.475,-3454.0294L13499.4691,-3454.0275L13499.4625,-3454.0249L13499.4553,-3454.0201L13499.4487,-3454.0131L13499.4445,-3454.0044L13499.4429,-3453.9954L13499.4437,-3453.9733L13499.4462,-3453.9408L13499.4489,-3453.9267L13499.4563,-3453.9129L13499.4644,-3453.9051L13499.4718,-3453.9024L13499.4795,-3453.902L13499.484,-3453.9032L13499.4872,-3453.9054L13499.494,-3453.9052L13499.4939,-3453.9007L13499.4922,-3453.8298L13499.4921,-3453.8239L13499.4852,-3453.824L13499.4816,-3453.8267L13499.4777,-3453.8283L13499.4763,-3453.8284L13499.4736,-3453.8287L13499.4691,-3453.8284L13499.462,-3453.8269L13499.4572,-3453.825L13499.4518,-3453.8211L13499.4463,-3453.8158L13499.4427,-3453.8069L13499.4398,-3453.8006L13499.4383,-3453.7933L13499.4387,-3453.7889L13499.4387,-3453.7882L13499.4394,-3453.7805L13499.4411,-3453.7619L13499.4443,-3453.7487L13499.4493,-3453.7259L13499.4514,-3453.7208L13499.4549,-3453.713L13499.4584,-3453.7084L13499.4624,-3453.7044L13499.4664,-3453.7018L13499.4723,-3453.699L13499.4794,-3453.698L13499.4818,-3453.6978L13499.4832,-3453.6976L13499.4919,-3453.6943L13499.4952,-3453.6942L13499.4945,-3453.6899L13499.4927,-3453.6859L13499.4906,-3453.682L13499.4892,-3453.6806L13499.4878,-3453.6791L13499.4851,-3453.6767L13499.4821,-3453.6748L13499.4787,-3453.6737L13499.4729,-3453.6729L13499.4659,-3453.6721L13499.4639,-3453.6719L13499.4579,-3453.6715L13499.4515,-3453.6713L13499.4456,-3453.6716L13499.442,-3453.6726L13499.4402,-3453.6732L13499.4385,-3453.6737L13499.4365,-3453.6744L13499.4363,-3453.6711L13499.4388,-3453.664L13499.4419,-3453.6547L13499.4438,-3453.6534L13499.4448,-3453.6517L13499.4462,-3453.6493L13499.4472,-3453.6474L13499.4483,-3453.6434L13499.4489,-3453.6391L13499.4489,-3453.6313L13499.4471,-3453.62L13499.4464,-3453.6151L13499.4463,-3453.6117L13499.4448,-3453.6068L13499.4438,-3453.6047L13499.4428,-3453.6006L13499.4419,-3453.5968L13499.4411,-3453.5947L13499.4396,-3453.5922L13499.4378,-3453.5898L13499.4342,-3453.5855L13499.4251,-3453.5761L13499.4205,-3453.571L13499.4151,-3453.5644L13499.4078,-3453.555L13499.4037,-3453.5499L13499.3995,-3453.5441L13499.3963,-3453.5388L13499.3935,-3453.5334L13499.39,-3453.5261L13499.3873,-3453.5199L13499.3844,-3453.5124L13499.3818,-3453.504L13499.379,-3453.495L13499.3773,-3453.4885L13499.3758,-3453.4827L13499.3752,-3453.4792L13499.3744,-3453.4735L13499.3741,-3453.4676L13499.3739,-3453.4598L13499.3742,-3453.4479L13499.3744,-3453.437L13499.3745,-3453.4303L13499.3745,-3453.4263L13499.3744,-3453.4242L13499.3738,-3453.4225L13499.3737,-3453.4222L13499.3732,-3453.4192L13499.3725,-3453.4129L13499.3724,-3453.4022L13499.3728,-3453.3938L13499.3732,-3453.3864L13499.374,-3453.3805L13499.3746,-3453.3751L13499.3755,-3453.3706L13499.376,-3453.3667L13499.3765,-3453.3617L13499.3784,-3453.3482L13499.3793,-3453.3414L13499.3797,-3453.3379L13499.3802,-3453.3333L13499.3803,-3453.3328L13499.381,-3453.3263L13499.3811,-3453.3242L13499.3819,-3453.3168L13499.3822,-3453.315L13499.382,-3453.2928L13499.3811,-3453.248L13499.3812,-3453.2367L13499.383,-3453.2144L13499.3836,-3453.207L13499.3837,-3453.1979L13499.3836,-3453.1897L13499.3829,-3453.1781L13499.3819,-3453.1624L13499.3803,-3453.1467L13499.3787,-3453.139L13499.3726,-3453.1131L13499.3724,-3453.1124L13499.3656,-3453.0838L13499.3555,-3453.0375L13499.3483,-3453.0067L13499.3439,-3452.9936L13499.3429,-3452.9844L13499.3422,-3452.98L13499.3405,-3452.9741L13499.3378,-3452.9677L13499.3358,-3452.9578L13499.3279,-3452.927L13499.3257,-3452.9176L13499.325,-3452.9126L13499.3251,-3452.9065L13499.3243,-3452.9026L13499.3217,-3452.8961L13499.3208,-3452.8945L13499.3211,-3452.8924L13499.3224,-3452.8882L13499.3228,-3452.8854L13499.3225,-3452.8829L13499.322,-3452.8804L13499.321,-3452.8783L13499.3199,-3452.8755L13499.3189,-3452.872L13499.3186,-3452.8689L13499.3173,-3452.8503L13499.3165,-3452.8345L13499.3157,-3452.8145L13499.3144,-3452.8076L13499.3146,-3452.782L13499.314,-3452.7804L13499.3118,-3452.7784L13499.3079,-3452.7784L13499.3079,-3452.7771L13499.31,-3452.7771L13499.3115,-3452.7766L13499.3127,-3452.776L13499.3136,-3452.7747L13499.3144,-3452.7724L13499.3146,-3452.7665L13499.3155,-3452.7601L13499.316,-3452.7467L13499.3184,-3452.7117L13499.3238,-3452.6647L13499.3259,-3452.6518L13499.3291,-3452.6387L13499.3472,-3452.565L13499.3483,-3452.5593L13499.3498,-3452.5555L13499.3516,-3452.5526L13499.355,-3452.5498L13499.3548,-3452.5413L13499.356,-3452.5361L13499.357,-3452.5318L13499.359,-3452.53L13499.3599,-3452.5279L13499.3598,-3452.5235L13499.3595,-3452.5195L13499.3602,-3452.5176L13499.3616,-3452.5148L13499.3633,-3452.5121L13499.3684,-3452.506L13499.372,-3452.502L13499.3722,-3452.5013L13499.3724,-3452.5005L13499.3725,-3452.5L13499.3726,-3452.4998L13499.3726,-3452.499L13499.3727,-3452.4982L13499.3728,-3452.4974L13499.3731,-3452.4968L13499.3733,-3452.4964L13499.3753,-3452.4935L13499.3959,-3452.4896L13499.4024,-3452.4912L13499.4067,-3452.4904L13499.4137,-3452.489L13499.4407,-3452.4769L13499.4402,-3452.476L13499.4384,-3452.4729L13499.4336,-3452.4751L13499.4233,-3452.4367L13499.4231,-3452.436L13499.4217,-3452.4311L13499.4169,-3452.4319L13499.4172,-3452.4329L13499.418,-3452.436L13499.4182,-3452.4367L13499.4288,-3452.4768L13499.4218,-3452.4803L13499.3521,-3452.4936L13499.3374,-3452.4472L13499.3312,-3452.4442L13499.329,-3452.4372L13499.3288,-3452.4365L13499.327,-3452.4309L13499.3109,-3452.38L13499.369,-3452.3665L13499.3535,-3452.32L13499.3275,-3452.2404L13499.2651,-3452.2549L13499.2541,-3452.2263L13499.2533,-3452.2243L13499.2402,-3452.1922L13499.2394,-3452.1899L13499.2206,-3452.1412L13499.2498,-3452.1313L13499.252,-3452.1306L13499.2601,-3452.1278L13499.3066,-3452.1212L13499.3287,-3452.1908L13499.3289,-3452.1913L13499.3325,-3452.1905L13499.3104,-3452.1207L13499.3332,-3452.1175L13499.3345,-3452.1173L13499.3334,-3452.114L13499.3303,-3452.1145L13499.3222,-3452.1156L13499.2594,-3452.1245L13499.2575,-3452.1249L13499.2555,-3452.1255L13499.2523,-3452.1265L13499.2139,-3452.1392L13499.1842,-3452.149L13499.1786,-3452.1507L13499.1739,-3452.1523L13499.1737,-3452.152L13499.169,-3452.1535L13499.1683,-3452.1537L13499.1674,-3452.151L13499.1728,-3452.1498L13499.1748,-3452.1491L13499.1766,-3452.1484L13499.1778,-3452.1478L13499.1786,-3452.1473L13499.1794,-3452.1467L13499.1802,-3452.1458L13499.1806,-3452.145L13499.181,-3452.1443L13499.1812,-3452.1432L13499.1813,-3452.1424L13499.1813,-3452.1417L13499.181,-3452.1403L13499.1803,-3452.139L13499.1798,-3452.1381L13499.1789,-3452.1365L13499.223,-3452.1161L13499.248,-3452.1046L13499.2456,-3452.1013L13499.2134,-3452.1162L13499.1875,-3452.1281L13499.1768,-3452.1331L13499.1667,-3452.1176L13499.1659,-3452.1164L13499.1357,-3452.0715L13499.1339,-3452.0688L13499.1261,-3452.057L13499.0449,-3451.9368L13498.9771,-3451.836L13498.9747,-3451.8324L13498.9742,-3451.8318L13498.9733,-3451.8311L13498.9695,-3451.8254L13498.9648,-3451.8181L13498.9646,-3451.8175L13498.9641,-3451.8165L13498.963,-3451.8149L13498.9444,-3451.7857L13498.9296,-3451.7632L13498.9292,-3451.7625L13498.9256,-3451.7571L13498.9023,-3451.7207L13498.9057,-3451.7193L13498.9271,-3451.7098L13498.9555,-3451.6971L13499.0241,-3451.6667L13499.0587,-3451.6513L13499.0565,-3451.6478L13499.0556,-3451.6482L13499.014,-3451.6667L13499.0037,-3451.6712L13499.0007,-3451.6667L13498.9467,-3451.5851L13498.9147,-3451.5368L13498.9102,-3451.539L13498.896,-3451.5209L13498.924,-3451.506L13498.9215,-3451.5029L13498.8933,-3451.5175L13498.8466,-3451.458L13498.8464,-3451.4578L13498.8464,-3451.4577L13498.8459,-3451.4571L13498.8426,-3451.4587L13498.8465,-3451.4637L13498.8466,-3451.4638L13498.8725,-3451.4969L13498.8731,-3451.4965L13498.9031,-3451.5348L13498.84,-3451.5623L13498.8131,-3451.5209L13498.8008,-3451.5259L13498.7842,-3451.4975L13498.7951,-3451.4926L13498.7663,-3451.4491L13498.8235,-3451.4178L13498.807,-3451.3971L13498.7857,-3451.371L13498.7346,-3451.3975L13498.7302,-3451.3998L13498.728,-3451.3975L13498.7247,-3451.3937L13498.7209,-3451.3959L13498.7167,-3451.3976L13498.7083,-3451.4022L13498.7043,-3451.3977L13498.6813,-3451.3725L13498.6811,-3451.3722L13498.6528,-3451.3411L13498.6807,-3451.3233L13498.6809,-3451.3232L13498.7126,-3451.3031L13498.7213,-3451.2973L13498.7237,-3451.2956L13498.7467,-3451.2804L13498.7439,-3451.2776L13498.7096,-3451.2999L13498.6809,-3451.3185L13498.6807,-3451.3186L13498.6579,-3451.3334L13498.5986,-3451.2683L13498.6799,-3451.2185L13498.6801,-3451.2183L13498.6812,-3451.2176L13498.7178,-3451.2584L13498.7205,-3451.2568L13498.722,-3451.2558L13498.6818,-3451.2111L13498.6831,-3451.2072L13498.68,-3451.2038L13498.6798,-3451.2035L13498.6366,-3451.1552L13498.6793,-3451.1367L13498.6795,-3451.1366L13498.6985,-3451.1284L13498.7022,-3451.1269L13498.7054,-3451.126L13498.7088,-3451.1252L13498.7118,-3451.1247L13498.7146,-3451.1243L13498.7185,-3451.124L13498.7225,-3451.124L13498.7257,-3451.1242L13498.7292,-3451.1247L13498.7333,-3451.1254L13498.7369,-3451.1264L13498.7649,-3451.1368L13498.7929,-3451.1463L13498.8143,-3451.153L13498.8136,-3451.1546L13498.8232,-3451.1575L13498.8244,-3451.1548L13498.8686,-3451.1683L13498.8761,-3451.1707L13498.8784,-3451.1656L13498.8442,-3451.155L13498.8129,-3451.1455L13498.8127,-3451.1462L13498.8103,-3451.1456L13498.806,-3451.1443L13498.7929,-3451.1401L13498.7843,-3451.1372L13498.7759,-3451.1344L13498.7719,-3451.133L13498.765,-3451.1306L13498.7622,-3451.1296L13498.7509,-3451.1254L13498.7396,-3451.1212L13498.7354,-3451.12L13498.7308,-3451.119L13498.7267,-3451.1185L13498.7229,-3451.1183L13498.7185,-3451.1184L13498.714,-3451.1189L13498.7106,-3451.1194L13498.7072,-3451.1201L13498.7034,-3451.1212L13498.7001,-3451.1225L13498.6961,-3451.1242L13498.6794,-3451.1314L13498.6792,-3451.1315L13498.6536,-3451.1427L13498.6461,-3451.1407L13498.6437,-3451.1388L13498.6424,-3451.1377L13498.6229,-3451.1222L13498.5997,-3451.1037L13498.6006,-3451.1029L13498.5836,-3451.0889L13498.5827,-3451.0882L13498.5708,-3451.0784L13498.5654,-3451.0827L13498.5655,-3451.0841L13498.5667,-3451.085L13498.5707,-3451.0883L13498.5716,-3451.089L13498.6032,-3451.1142L13498.6027,-3451.1146L13498.6021,-3451.115L13498.6013,-3451.1155L13498.6005,-3451.1161L13498.5997,-3451.1168L13498.5988,-3451.1175L13498.5978,-3451.1182L13498.5969,-3451.119L13498.596,-3451.1198L13498.5951,-3451.1205L13498.5942,-3451.1213L13498.5934,-3451.1221L13498.5927,-3451.1228L13498.592,-3451.1236L13498.5912,-3451.1243L13498.5905,-3451.125L13498.5898,-3451.1257L13498.589,-3451.1263L13498.5882,-3451.127L13498.5874,-3451.1276L13498.5866,-3451.1282L13498.5858,-3451.1287L13498.5849,-3451.1293L13498.584,-3451.1298L13498.583,-3451.1304L13498.5819,-3451.1309L13498.5809,-3451.1314L13498.5798,-3451.1319L13498.5787,-3451.1324L13498.5777,-3451.1328L13498.5766,-3451.1333L13498.5755,-3451.1337L13498.5744,-3451.1341L13498.5734,-3451.1345L13498.5723,-3451.1349L13498.5712,-3451.1353L13498.5701,-3451.1357L13498.5691,-3451.136L13498.568,-3451.1363L13498.5669,-3451.1367L13498.5658,-3451.1369L13498.5648,-3451.1372L13498.5638,-3451.1374L13498.5627,-3451.1376L13498.5617,-3451.1378L13498.5606,-3451.138L13498.5596,-3451.1382L13498.5585,-3451.1384L13498.5573,-3451.1387L13498.5561,-3451.1389L13498.5549,-3451.1392L13498.5537,-3451.1394L13498.5525,-3451.1396L13498.5512,-3451.1399L13498.55,-3451.1401L13498.5488,-3451.1403L13498.5476,-3451.1405L13498.5464,-3451.1407L13498.5452,-3451.1409L13498.5441,-3451.1411L13498.5429,-3451.1412L13498.5417,-3451.1414L13498.5405,-3451.1415L13498.5392,-3451.1417L13498.538,-3451.1418L13498.5368,-3451.1419L13498.5358,-3451.142L13498.5347,-3451.1421L13498.5337,-3451.1421L13498.5327,-3451.1422L13498.5316,-3451.1423L13498.5306,-3451.1423L13498.5296,-3451.1424L13498.5286,-3451.1424L13498.5275,-3451.1425L13498.5264,-3451.1425L13498.5252,-3451.1425L13498.524,-3451.1424L13498.5227,-3451.1423L13498.5214,-3451.1422L13498.5201,-3451.142L13498.5189,-3451.1419L13498.518,-3451.1418L13498.5172,-3451.1417L13498.5166,-3451.1416L13498.5157,-3451.1415L13498.5146,-3451.1413L13498.5135,-3451.1412L13498.5121,-3451.1409L13498.5108,-3451.1407L13498.5096,-3451.1405L13498.5084,-3451.1402L13498.5075,-3451.1401L13498.5066,-3451.1398L13498.5056,-3451.1396L13498.5047,-3451.1394L13498.5038,-3451.1392L13498.5028,-3451.1389L13498.5019,-3451.1387L13498.501,-3451.1384L13498.5002,-3451.1382L13498.4993,-3451.1379L13498.4984,-3451.1376L13498.4975,-3451.1373L13498.4966,-3451.137L13498.4956,-3451.1366L13498.4946,-3451.1363L13498.4937,-3451.1359L13498.4927,-3451.1355L13498.4918,-3451.1352L13498.4908,-3451.1347L13498.4898,-3451.1343L13498.4888,-3451.1339L13498.4878,-3451.1335L13498.4868,-3451.133L13498.4858,-3451.1326L13498.4849,-3451.1322L13498.484,-3451.1317L13498.4831,-3451.1313L13498.4822,-3451.1308L13498.4813,-3451.1304L13498.4805,-3451.1299L13498.4797,-3451.1294L13498.4789,-3451.1289L13498.4781,-3451.1285L13498.4774,-3451.128L13498.4766,-3451.1275L13498.4759,-3451.127L13498.4752,-3451.1264L13498.4744,-3451.1258L13498.4737,-3451.1252L13498.4729,-3451.1247L13498.4722,-3451.1241L13498.4715,-3451.1235L13498.4707,-3451.1228L13498.4699,-3451.1221L13498.469,-3451.1214L13498.4682,-3451.1207L13498.4674,-3451.12L13498.4666,-3451.1193L13498.4658,-3451.1185L13498.4651,-3451.1178L13498.4643,-3451.1171L13498.4635,-3451.1164L13498.4626,-3451.1156L13498.4617,-3451.1148L13498.4609,-3451.1141L13498.46,-3451.1133L13498.4594,-3451.1126L13498.4588,-3451.112L13498.4582,-3451.1113L13498.4576,-3451.1106L13498.4571,-3451.1099L13498.4565,-3451.1093L13498.4559,-3451.1085L13498.4553,-3451.1078L13498.4548,-3451.107L13498.4542,-3451.1062L13498.4536,-3451.1055L13498.453,-3451.1047L13498.4525,-3451.104L13498.452,-3451.1033L13498.4514,-3451.1025L13498.4509,-3451.1018L13498.4504,-3451.1011L13498.4498,-3451.1003L13498.4493,-3451.0996L13498.4487,-3451.0989L13498.4482,-3451.0981L13498.4476,-3451.0974L13498.447,-3451.0966L13498.4465,-3451.0959L13498.446,-3451.0952L13498.4455,-3451.0946L13498.445,-3451.0939L13498.4444,-3451.0933L13498.4439,-3451.0927L13498.4433,-3451.092L13498.4427,-3451.0915L13498.4421,-3451.0909L13498.4415,-3451.0904L13498.4408,-3451.0898L13498.4406,-3451.0897L13498.4401,-3451.0893L13498.4397,-3451.089L13498.4395,-3451.0888L13498.4389,-3451.0883L13498.4383,-3451.0879L13498.4377,-3451.0874L13498.4371,-3451.0869L13498.4364,-3451.0865L13498.4358,-3451.0861L13498.4352,-3451.0856L13498.4345,-3451.0852L13498.4337,-3451.0848L13498.433,-3451.0844L13498.4322,-3451.084L13498.4314,-3451.0836L13498.4307,-3451.0833L13498.43,-3451.083L13498.4293,-3451.0827L13498.4285,-3451.0824L13498.4278,-3451.0822L13498.427,-3451.0821L13498.4262,-3451.0819L13498.4254,-3451.0818L13498.4242,-3451.0816L13498.423,-3451.0813L13498.4221,-3451.0812L13498.4212,-3451.081L13498.4203,-3451.0809L13498.4194,-3451.0807L13498.4184,-3451.0805L13498.4174,-3451.0804L13498.4164,-3451.0802L13498.4154,-3451.08L13498.4144,-3451.0798L13498.4133,-3451.0797L13498.4122,-3451.0795L13498.4111,-3451.0794L13498.41,-3451.0792L13498.4088,-3451.079L13498.4078,-3451.0789L13498.4077,-3451.0788L13498.4066,-3451.0787L13498.4057,-3451.0785L13498.4048,-3451.0784L13498.4039,-3451.0782L13498.403,-3451.0781L13498.402,-3451.0779L13498.4011,-3451.0777L13498.4,-3451.0775L13498.3988,-3451.0773L13498.3977,-3451.0771L13498.3965,-3451.0769L13498.3954,-3451.0766L13498.3943,-3451.0764L13498.3931,-3451.0761L13498.3919,-3451.0758L13498.3907,-3451.0755L13498.3896,-3451.0752L13498.3884,-3451.0749L13498.3872,-3451.0746L13498.3862,-3451.0744L13498.3851,-3451.0741L13498.3841,-3451.0738L13498.3831,-3451.0735L13498.3821,-3451.0732L13498.3811,-3451.0729L13498.3801,-3451.0727L13498.3792,-3451.0724L13498.3783,-3451.0721L13498.3774,-3451.0717L13498.3764,-3451.0714L13498.3755,-3451.0711L13498.3745,-3451.0707L13498.3735,-3451.0703L13498.3725,-3451.07L13498.3715,-3451.0696L13498.3707,-3451.0692L13498.3699,-3451.0689L13498.3691,-3451.0685L13498.3684,-3451.0681L13498.3677,-3451.0677L13498.367,-3451.0672L13498.3663,-3451.0667L13498.3656,-3451.0662L13498.3648,-3451.0656L13498.3639,-3451.065L13498.3631,-3451.0645L13498.3622,-3451.0639L13498.3615,-3451.0634L13498.3608,-3451.0629L13498.3601,-3451.0624L13498.3593,-3451.0619L13498.3586,-3451.0613L13498.3579,-3451.0608L13498.3572,-3451.0603L13498.3565,-3451.0597L13498.3558,-3451.0592L13498.355,-3451.0586L13498.3543,-3451.0581L13498.3536,-3451.0575L13498.353,-3451.057L13498.3523,-3451.0564L13498.3516,-3451.0558L13498.3509,-3451.0553L13498.3502,-3451.0547L13498.3496,-3451.0541L13498.3488,-3451.0535L13498.348,-3451.0528L13498.3473,-3451.0521L13498.3465,-3451.0514L13498.3412,-3451.0451L13498.3355,-3451.0383L13498.3349,-3451.0373L13498.3347,-3451.0371L13498.334,-3451.0364L13498.3333,-3451.0356L13498.3333,-3451.0355L13498.3326,-3451.0348L13498.332,-3451.034L13498.3315,-3451.0333L13498.3309,-3451.0325L13498.3303,-3451.0316L13498.3298,-3451.0308L13498.3293,-3451.0299L13498.3287,-3451.029L13498.3282,-3451.0281L13498.3276,-3451.0272L13498.327,-3451.0263L13498.3264,-3451.0253L13498.3259,-3451.0244L13498.3255,-3451.0234L13498.3251,-3451.0223L13498.3247,-3451.0213L13498.3245,-3451.0202L13498.3242,-3451.0192L13498.3239,-3451.0181L13498.3236,-3451.0173L13498.3234,-3451.0165L13498.3231,-3451.0157L13498.3228,-3451.0148L13498.3226,-3451.014L13498.3223,-3451.0132L13498.322,-3451.0123L13498.3218,-3451.0115L13498.3215,-3451.0106L13498.3213,-3451.0097L13498.321,-3451.0088L13498.3208,-3451.008L13498.3205,-3451.0069L13498.3203,-3451.0059L13498.3202,-3451.0054L13498.3197,-3451.0048L13498.3193,-3451.0045L13498.319,-3451.0043L13498.3184,-3451.0023L13498.3184,-3451.0018L13498.3184,-3451.001L13498.3181,-3451.0001L13498.3177,-3450.9992L13498.3174,-3450.9983L13498.3172,-3450.9974L13498.317,-3450.9965L13498.3169,-3450.9956L13498.3168,-3450.9947L13498.3168,-3450.9938L13498.3167,-3450.993L13498.3167,-3450.9921L13498.3167,-3450.9912L13498.3167,-3450.9903L13498.3167,-3450.9893L13498.3166,-3450.9884L13498.3165,-3450.9874L13498.3164,-3450.9865L13498.3163,-3450.9855L13498.3161,-3450.9846L13498.3159,-3450.9837L13498.3156,-3450.9828L13498.3153,-3450.9818L13498.3149,-3450.9809L13498.3146,-3450.9799L13498.3144,-3450.9792L13498.3142,-3450.9785L13498.3141,-3450.9778L13498.3139,-3450.9771L13498.3137,-3450.9764L13498.3135,-3450.9757L13498.3132,-3450.9747L13498.3128,-3450.9737L13498.3123,-3450.9727L13498.3117,-3450.9717L13498.3111,-3450.9708L13498.3104,-3450.9699L13498.3095,-3450.9692L13498.3086,-3450.9685L13498.3077,-3450.9681L13498.3068,-3450.9678L13498.3058,-3450.9676L13498.3048,-3450.9675L13498.3036,-3450.9674L13498.3024,-3450.9674L13498.3011,-3450.9675L13498.2999,-3450.9675L13498.2988,-3450.9674L13498.2977,-3450.9673L13498.2967,-3450.9672L13498.2956,-3450.967L13498.2946,-3450.9669L13498.2936,-3450.9668L13498.2927,-3450.9666L13498.2917,-3450.9665L13498.2907,-3450.9664L13498.2898,-3450.9664L13498.2887,-3450.9663L13498.2876,-3450.9663L13498.2866,-3450.9663L13498.2855,-3450.9662L13498.2844,-3450.9662L13498.2834,-3450.966L13498.2822,-3450.9658L13498.2809,-3450.9656L13498.2797,-3450.9653L13498.2785,-3450.9649L13498.2773,-3450.9645L13498.2761,-3450.9642L13498.2749,-3450.9639L13498.2738,-3450.9635L13498.2727,-3450.9632L13498.2716,-3450.9629L13498.2705,-3450.9626L13498.2693,-3450.9623L13498.2684,-3450.962L13498.2674,-3450.9617L13498.2664,-3450.9614L13498.2655,-3450.9611L13498.2645,-3450.9608L13498.2636,-3450.9604L13498.2626,-3450.9601L13498.2616,-3450.9598L13498.2606,-3450.9594L13498.2595,-3450.9591L13498.2584,-3450.9587L13498.2573,-3450.9583L13498.2562,-3450.9579L13498.2552,-3450.9575L13498.2541,-3450.9571L13498.253,-3450.9567L13498.252,-3450.9563L13498.251,-3450.9559L13498.25,-3450.9554L13498.2491,-3450.955L13498.2481,-3450.9545L13498.2471,-3450.954L13498.2462,-3450.9535L13498.2452,-3450.953L13498.2442,-3450.9525L13498.2432,-3450.9519L13498.2423,-3450.9513L13498.2413,-3450.9507L13498.2403,-3450.95L13498.2394,-3450.9494L13498.2385,-3450.9487L13498.2375,-3450.948L13498.2366,-3450.9473L13498.2357,-3450.9466L13498.2349,-3450.9459L13498.234,-3450.9451L13498.2333,-3450.9445L13498.2326,-3450.9438L13498.2319,-3450.9432L13498.2312,-3450.9425L13498.2305,-3450.9419L13498.2299,-3450.9412L13498.2292,-3450.9406L13498.2285,-3450.9399L13498.2277,-3450.9392L13498.2268,-3450.9384L13498.226,-3450.9377L13498.2252,-3450.9369L13498.2244,-3450.9362L13498.2236,-3450.9354L13498.2228,-3450.9346L13498.2221,-3450.9339L13498.2214,-3450.9332L13498.2208,-3450.9324L13498.2202,-3450.9317L13498.2196,-3450.931L13498.219,-3450.9303L13498.2185,-3450.9295L13498.2179,-3450.9288L13498.2173,-3450.928L13498.2167,-3450.9271L13498.216,-3450.9263L13498.2154,-3450.9254L13498.2148,-3450.9245L13498.2142,-3450.9237L13498.2137,-3450.9227L13498.2132,-3450.9219L13498.2128,-3450.921L13498.2124,-3450.9201L13498.212,-3450.9193L13498.2117,-3450.9184L13498.2113,-3450.9175L13498.2109,-3450.9165L13498.2105,-3450.9156L13498.2104,-3450.9151L13498.2098,-3450.9143L13498.209,-3450.9137L13498.208,-3450.9136L13498.2078,-3450.9136L13498.2064,-3450.9119L13498.2071,-3450.9113L13498.2077,-3450.9101L13498.2078,-3450.9091L13498.2077,-3450.9081L13498.2074,-3450.9072L13498.2071,-3450.9064L13498.2068,-3450.9055L13498.2065,-3450.9047L13498.2061,-3450.9038L13498.2058,-3450.903L13498.2055,-3450.9022L13498.2052,-3450.9014L13498.205,-3450.9007L13498.2047,-3450.8999L13498.2044,-3450.8992L13498.2042,-3450.8984L13498.204,-3450.8976L13498.2038,-3450.8967L13498.2036,-3450.8959L13498.2035,-3450.895L13498.2034,-3450.8942L13498.2032,-3450.8933L13498.2031,-3450.8923L13498.2029,-3450.8912L13498.2028,-3450.8902L13498.2026,-3450.8891L13498.2024,-3450.8881L13498.2022,-3450.887L13498.202,-3450.886L13498.2018,-3450.885L13498.2015,-3450.884L13498.2013,-3450.883L13498.201,-3450.882L13498.2007,-3450.881L13498.2005,-3450.8802L13498.2003,-3450.8794L13498.2,-3450.8785L13498.1998,-3450.8777L13498.1995,-3450.8768L13498.1992,-3450.876L13498.1988,-3450.8752L13498.1984,-3450.8744L13498.198,-3450.8736L13498.1975,-3450.8728L13498.1971,-3450.872L13498.1967,-3450.8712L13498.1963,-3450.8704L13498.1959,-3450.8696L13498.1954,-3450.8688L13498.195,-3450.8681L13498.1944,-3450.8673L13498.1938,-3450.8665L13498.1931,-3450.8657L13498.1924,-3450.865L13498.1916,-3450.8643L13498.1908,-3450.8636L13498.19,-3450.863L13498.1894,-3450.8624L13498.1888,-3450.862L13498.1884,-3450.8616L13498.188,-3450.8613L13498.1875,-3450.8609L13498.1869,-3450.8605L13498.1863,-3450.8601L13498.1855,-3450.8595L13498.1849,-3450.8591L13498.184,-3450.8585L13498.1829,-3450.8577L13498.1819,-3450.857L13498.1811,-3450.8564L13498.1804,-3450.8559L13498.1798,-3450.8554L13498.1791,-3450.855L13498.1785,-3450.8545L13498.1778,-3450.8541L13498.1771,-3450.8536L13498.1764,-3450.8531L13498.1756,-3450.8526L13498.1748,-3450.8521L13498.174,-3450.8516L13498.1732,-3450.8512L13498.1722,-3450.8507L13498.1713,-3450.8502L13498.1703,-3450.8497L13498.1693,-3450.8493L13498.1683,-3450.8489L13498.1673,-3450.8484L13498.1662,-3450.848L13498.1652,-3450.8475L13498.1641,-3450.847L13498.1631,-3450.8466L13498.162,-3450.8461L13498.161,-3450.8456L13498.1601,-3450.8452L13498.1592,-3450.8448L13498.1583,-3450.8444L13498.1574,-3450.8439L13498.1565,-3450.8435L13498.1557,-3450.843L13498.1548,-3450.8425L13498.154,-3450.842L13498.1531,-3450.8415L13498.1523,-3450.841L13498.1515,-3450.8404L13498.1507,-3450.8398L13498.1501,-3450.8393L13498.1494,-3450.8388L13498.1488,-3450.8382L13498.1482,-3450.8377L13498.1476,-3450.8371L13498.147,-3450.8366L13498.1463,-3450.836L13498.1457,-3450.8354L13498.1451,-3450.8348L13498.1445,-3450.8343L13498.144,-3450.8337L13498.1436,-3450.8333L13498.1434,-3450.8331L13498.1427,-3450.8323L13498.142,-3450.8315L13498.1413,-3450.8307L13498.1406,-3450.8298L13498.1399,-3450.829L13498.1392,-3450.8281L13498.1386,-3450.8272L13498.1381,-3450.8262L13498.1376,-3450.8254L13498.1372,-3450.8246L13498.1368,-3450.8237L13498.1363,-3450.8229L13498.1359,-3450.8223L13498.1355,-3450.8216L13498.135,-3450.821L13498.1346,-3450.8204L13498.1342,-3450.8198L13498.1338,-3450.8193L13498.1336,-3450.8187L13498.1335,-3450.818L13498.1335,-3450.8172L13498.1336,-3450.8164L13498.1338,-3450.8158L13498.1339,-3450.8154L13498.1336,-3450.8151L13498.1446,-3450.8113L13498.1547,-3450.8071L13498.1549,-3450.8068L13498.1544,-3450.8057L13498.1522,-3450.8023L13498.1511,-3450.8016L13498.15,-3450.8016L13498.1477,-3450.8026L13498.1274,-3450.8106L13498.1269,-3450.8104L13498.1264,-3450.8103L13498.1252,-3450.8091L13498.1256,-3450.8082L13498.1255,-3450.8072L13498.1251,-3450.8064L13498.1246,-3450.8056L13498.1242,-3450.805L13498.1239,-3450.8042L13498.1238,-3450.8035L13498.1238,-3450.8029L13498.1241,-3450.8024L13498.1449,-3450.7945L13498.1461,-3450.794L13498.1463,-3450.7932L13498.1444,-3450.7899L13498.1429,-3450.7904L13498.1339,-3450.7936L13498.1328,-3450.7914L13498.1314,-3450.7894L13498.122,-3450.7797L13498.12,-3450.7767L13498.1096,-3450.7586L13498.1056,-3450.7529L13498.0979,-3450.7449L13498.0799,-3450.7272L13498.0787,-3450.7249L13498.0776,-3450.7227L13498.0686,-3450.706L13498.0597,-3450.6894L13498.0595,-3450.689L13498.0715,-3450.6843L13498.0707,-3450.6829L13498.0595,-3450.6872L13498.0596,-3450.6856L13498.0594,-3450.6852L13498.0583,-3450.6833L13498.057,-3450.6816L13498.0557,-3450.6799L13498.0535,-3450.676L13498.0505,-3450.6714L13498.0478,-3450.6663L13498.0444,-3450.6603L13498.0415,-3450.6552L13498.0399,-3450.6522L13498.0384,-3450.649L13498.0364,-3450.6443L13498.0349,-3450.6399L13498.0338,-3450.6369L13498.0328,-3450.634L13498.032,-3450.6313L13498.0311,-3450.6285L13498.03,-3450.6244L13498.0155,-3450.5994L13498.0099,-3450.5916L13498.0069,-3450.5874L13498.0052,-3450.585L13498.0026,-3450.5818L13498.001,-3450.5795L13498,-3450.5778L13497.9993,-3450.5764L13497.9988,-3450.5753L13497.9983,-3450.5737L13497.9978,-3450.571L13497.9974,-3450.5685L13497.9968,-3450.5655L13497.9965,-3450.5626L13497.9965,-3450.5576L13497.9966,-3450.554L13497.9965,-3450.5507L13497.9963,-3450.5495L13497.9961,-3450.5482L13497.9955,-3450.5462L13497.995,-3450.5447L13497.9937,-3450.5421L13497.9914,-3450.5369L13497.9892,-3450.5323L13497.9874,-3450.5286L13497.9861,-3450.5261L13497.9836,-3450.5226L13497.9822,-3450.5181L13497.9804,-3450.5091L13497.9786,-3450.5L13497.9781,-3450.4977L13497.9767,-3450.4884L13497.9766,-3450.488L13497.9765,-3450.4833L13497.9765,-3450.4803L13497.9765,-3450.4773L13497.9767,-3450.4731L13497.9771,-3450.4705L13497.9773,-3450.4687L13497.9774,-3450.467L13497.9772,-3450.4637L13497.9769,-3450.4593L13497.9767,-3450.457L13497.9758,-3450.4501L13497.9751,-3450.4446L13497.9742,-3450.439L13497.9737,-3450.4359L13497.9731,-3450.4322L13497.9724,-3450.4311L13497.9711,-3450.4303L13497.9697,-3450.4238L13497.9703,-3450.4221L13497.9703,-3450.4208L13497.9698,-3450.4179L13497.9693,-3450.416L13497.9691,-3450.4153L13497.9659,-3450.4045L13497.9735,-3450.4032L13497.9732,-3450.4015L13497.9656,-3450.4026L13497.9648,-3450.4015L13497.9638,-3450.3996L13497.9628,-3450.3967L13497.9612,-3450.3922L13497.9603,-3450.3892L13497.96,-3450.3873L13497.9599,-3450.3855L13497.9597,-3450.3832L13497.9597,-3450.3805L13497.9598,-3450.3777L13497.9597,-3450.3757L13497.9595,-3450.3728L13497.9593,-3450.3702L13497.9586,-3450.3669L13497.9575,-3450.3634L13497.9551,-3450.3592L13497.9517,-3450.3549L13497.948,-3450.3509L13497.945,-3450.3478L13497.9472,-3450.347L13497.9473,-3450.3472L13497.9582,-3450.3426L13497.9573,-3450.3411L13497.9461,-3450.3455L13497.9461,-3450.3457L13497.9442,-3450.3465L13497.9414,-3450.3431L13497.9399,-3450.3411L13497.9374,-3450.3371L13497.9354,-3450.3336L13497.9337,-3450.3303L13497.9317,-3450.3275L13497.9298,-3450.3259L13497.9285,-3450.3249L13497.9272,-3450.324L13497.9258,-3450.3231L13497.9244,-3450.3219L13497.9228,-3450.32L13497.921,-3450.3177L13497.9192,-3450.3149L13497.9179,-3450.3124L13497.9159,-3450.3096L13497.9148,-3450.3079L13497.9133,-3450.306L13497.911,-3450.304L13497.9077,-3450.3016L13497.9027,-3450.2977L13497.8986,-3450.2945L13497.8958,-3450.292L13497.8941,-3450.2902L13497.8921,-3450.2874L13497.9041,-3450.2805L13497.9027,-3450.2791L13497.8905,-3450.286L13497.8883,-3450.2835L13497.887,-3450.2825L13497.8857,-3450.2816L13497.8835,-3450.2805L13497.8804,-3450.2791L13497.8773,-3450.2776L13497.8746,-3450.276L13497.8708,-3450.2736L13497.8668,-3450.2708L13497.8606,-3450.2662L13497.857,-3450.2635L13497.8565,-3450.263L13497.8387,-3450.2508L13497.8265,-3450.2431L13497.8211,-3450.2368L13497.8122,-3450.2302L13497.8106,-3450.2287L13497.8094,-3450.2277L13497.808,-3450.2269L13497.8072,-3450.2265L13497.8009,-3450.2239L13497.799,-3450.2231L13497.7979,-3450.2224L13497.7966,-3450.2217L13497.7947,-3450.2201L13497.7936,-3450.219L13497.7922,-3450.2174L13497.7904,-3450.2154L13497.789,-3450.2136L13497.7878,-3450.2118L13497.7832,-3450.2033L13497.7747,-3450.1875L13497.7655,-3450.1653L13497.7581,-3450.1525L13497.7507,-3450.1406L13497.7481,-3450.1402L13497.7383,-3450.1274L13497.724,-3450.1086L13497.7006,-3450.0854L13497.6645,-3450.0509L13497.6571,-3450.0438L13497.6371,-3450.0245L13497.6458,-3450.0155L13497.6438,-3450.0142L13497.635,-3450.0232L13497.6274,-3450.0179L13497.6179,-3450.012L13497.6104,-3450.0071L13497.5976,-3450L13497.5959,-3449.9991L13497.5936,-3449.9969L13497.5893,-3449.994L13497.5841,-3449.9906L13497.5816,-3449.989L13497.5814,-3449.9889L13497.5801,-3449.9881L13497.5767,-3449.9857L13497.5751,-3449.9845L13497.58,-3449.9765L13497.5781,-3449.9757L13497.5735,-3449.9832L13497.5632,-3449.9771L13497.5497,-3449.9696L13497.5294,-3449.957L13497.5179,-3449.9503L13497.5101,-3449.9455L13497.5031,-3449.9405L13497.5,-3449.9382L13497.4967,-3449.9357L13497.4911,-3449.9307L13497.4832,-3449.9226L13497.4679,-3449.9056L13497.456,-3449.8925L13497.4638,-3449.888L13497.4627,-3449.8867L13497.4546,-3449.8914L13497.4495,-3449.8858L13497.4452,-3449.8811L13497.4054,-3449.8375L13497.4036,-3449.8365L13497.4023,-3449.8356L13497.3998,-3449.8328L13497.3934,-3449.8245L13497.3912,-3449.8206L13497.3887,-3449.8147L13497.3839,-3449.8028L13497.3809,-3449.7969L13497.3763,-3449.7895L13497.3722,-3449.7842L13497.3667,-3449.7775L13497.3609,-3449.7709L13497.3543,-3449.7648L13497.3455,-3449.7576L13497.3354,-3449.7503L13497.3247,-3449.7433L13497.3236,-3449.7426L13497.3146,-3449.7367L13497.3085,-3449.7329L13497.3054,-3449.731L13497.302,-3449.729L13497.2817,-3449.7138L13497.26,-3449.7002L13497.2396,-3449.6901L13497.2202,-3449.682L13497.1991,-3449.6747L13497.176,-3449.6684L13497.1436,-3449.6604L13497.1265,-3449.6554L13497.1099,-3449.6497L13497.0973,-3449.6436L13497.0908,-3449.6463L13497.0338,-3449.6237L13496.9845,-3449.6037L13496.9533,-3449.5904L13496.9371,-3449.583L13496.9186,-3449.5736L13496.9071,-3449.5674L13496.8968,-3449.5609L13496.8816,-3449.5496L13496.8568,-3449.5312L13496.8477,-3449.5238L13496.8412,-3449.5177L13496.8396,-3449.5168L13496.838,-3449.5164L13496.8358,-3449.5136L13496.8362,-3449.5133L13496.8367,-3449.512L13496.8362,-3449.5107L13496.8103,-3449.4768L13496.8035,-3449.4672L13496.7992,-3449.4622L13496.7843,-3449.4474L13496.7673,-3449.4292L13496.7436,-3449.4052L13496.7337,-3449.3947L13496.7396,-3449.3888L13496.7378,-3449.3876L13496.7322,-3449.3933L13496.7289,-3449.3913L13496.7235,-3449.3884L13496.7211,-3449.387L13496.7168,-3449.3845L13496.7145,-3449.3836L13496.7125,-3449.3832L13496.7084,-3449.3814L13496.7037,-3449.3794L13496.7022,-3449.3783L13496.6963,-3449.3754L13496.6734,-3449.3658L13496.6667,-3449.3631L13496.6563,-3449.359L13496.6369,-3449.3518L13496.6165,-3449.3451L13496.5844,-3449.3348L13496.5655,-3449.329L13496.5468,-3449.3233L13496.5212,-3449.3162L13496.5004,-3449.3097L13496.4875,-3449.3052L13496.4873,-3449.3051L13496.479,-3449.3022L13496.459,-3449.2943L13496.4443,-3449.2878L13496.4244,-3449.2779L13496.4042,-3449.2679L13496.401,-3449.2655L13496.3963,-3449.2617L13496.3909,-3449.257L13496.3876,-3449.2539L13496.3828,-3449.2493L13496.395,-3449.23L13496.4079,-3449.2096L13496.4016,-3449.2068L13496.3887,-3449.2274L13496.3355,-3449.2046L13496.3484,-3449.184L13496.344,-3449.1822L13496.3313,-3449.2025L13496.2774,-3449.1794L13496.2718,-3449.1893L13496.271,-3449.1904L13496.2692,-3449.1895L13496.2586,-3449.2037L13496.2154,-3449.1809L13496.1889,-3449.1667L13496.183,-3449.1635L13496.2151,-3449.1402L13496.2213,-3449.1358L13496.2222,-3449.136L13496.2397,-3449.1249L13496.2431,-3449.1225L13496.2456,-3449.1227L13496.3732,-3449.161L13496.3864,-3449.1667L13496.3893,-3449.1679L13496.4274,-3449.1842L13496.4271,-3449.1846L13496.4343,-3449.1877L13496.4351,-3449.1865L13496.4584,-3449.1969L13496.4667,-3449.2042L13496.4688,-3449.2063L13496.4729,-3449.2032L13496.4622,-3449.1931L13496.4382,-3449.1827L13496.4316,-3449.1796L13496.4024,-3449.1667L13496.3764,-3449.1552L13496.3097,-3449.1354L13496.2429,-3449.1155L13496.2394,-3449.1181L13496.2222,-3449.1299L13496.2119,-3449.1277L13496.2065,-3449.1265L13496.1967,-3449.1245L13496.1933,-3449.1237L13496.1906,-3449.1228L13496.1882,-3449.1217L13496.1845,-3449.1201L13496.178,-3449.1172L13496.1762,-3449.1166L13496.1747,-3449.1165L13496.1733,-3449.1168L13496.1696,-3449.1145L13496.1688,-3449.1137L13496.1682,-3449.1132L13496.1672,-3449.1127L13496.1628,-3449.1108L13496.1566,-3449.108L13496.1443,-3449.1026L13496.1328,-3449.0973L13496.1248,-3449.0935L13496.1187,-3449.0908L13496.1053,-3449.0857L13496.0801,-3449.0751L13496.0766,-3449.0736L13496.075,-3449.0729L13496.0708,-3449.0711L13496.0642,-3449.0679L13496.0568,-3449.0639L13496.0521,-3449.0612L13496.0438,-3449.0562L13496.0245,-3449.0442L13496.0115,-3449.0363L13496.0028,-3449.0307L13495.9964,-3449.0263L13495.9933,-3449.0241L13495.9914,-3449.0224L13495.9861,-3449.0182L13495.9811,-3449.0147L13495.9763,-3449.0111L13495.9718,-3449.0074L13495.9692,-3449.0053L13495.9674,-3449.0034L13495.9637,-3448.9992L13495.9551,-3448.9889L13495.9509,-3448.984L13495.947,-3448.9794L13495.9439,-3448.9754L13495.9386,-3448.968L13495.9354,-3448.9637L13495.9348,-3448.9632L13495.9342,-3448.963L13495.9335,-3448.963L13495.933,-3448.9631L13495.9317,-3448.9621L13495.9318,-3448.9616L13495.9317,-3448.9608L13495.9311,-3448.96L13495.9302,-3448.9593L13495.9258,-3448.9561L13495.9019,-3448.9389L13495.8904,-3448.9306L13495.8859,-3448.9271L13495.8762,-3448.9179L13495.8573,-3448.8991L13495.8526,-3448.8943L13495.8484,-3448.8897L13495.8476,-3448.8886L13495.8458,-3448.8862L13495.8447,-3448.8848L13495.8425,-3448.8807L13495.8333,-3448.8642L13495.83,-3448.8582L13495.8073,-3448.8196L13495.8053,-3448.8156L13495.801,-3448.8074L13495.7941,-3448.7948L13495.7909,-3448.7899L13495.7882,-3448.7853L13495.7845,-3448.7786L13495.7819,-3448.7733L13495.7806,-3448.7704L13495.7783,-3448.7648L13495.7727,-3448.7486L13495.7681,-3448.7307L13495.7617,-3448.7085L13495.7601,-3448.7042L13495.758,-3448.7L13495.7553,-3448.6951L13495.7527,-3448.6915L13495.7479,-3448.6865L13495.7438,-3448.6827L13495.7401,-3448.6803L13495.7364,-3448.6782L13495.7334,-3448.6758L13495.73,-3448.6724L13495.7279,-3448.6713L13495.7258,-3448.6707L13495.7257,-3448.6707L13495.7215,-3448.6685L13495.7174,-3448.6662L13495.7151,-3448.664L13495.7093,-3448.6599L13495.6935,-3448.6505L13495.6774,-3448.6415L13495.6651,-3448.6355L13495.6484,-3448.6264L13495.6303,-3448.6164L13495.6241,-3448.6123L13495.6211,-3448.6108L13495.6191,-3448.6101L13495.6168,-3448.6103L13495.6127,-3448.6074L13495.6125,-3448.6059L13495.6108,-3448.6034L13495.607,-3448.5995L13495.5907,-3448.5864L13495.5721,-3448.5708L13495.5643,-3448.5636L13495.5608,-3448.5601L13495.559,-3448.5586L13495.5576,-3448.5582L13495.5557,-3448.5557L13495.556,-3448.5543L13495.5561,-3448.553L13495.5559,-3448.5516L13495.5542,-3448.5499L13495.5521,-3448.5482L13495.5483,-3448.5375L13495.5431,-3448.5222L13495.5377,-3448.5048L13495.5292,-3448.4784L13495.5259,-3448.4695L13495.5228,-3448.4625L13495.5192,-3448.4552L13495.5106,-3448.4409L13495.5081,-3448.4352L13495.5028,-3448.4264L13495.4953,-3448.416L13495.4898,-3448.4094L13495.4803,-3448.4005L13495.4672,-3448.3939L13495.4645,-3448.3928L13495.4632,-3448.3922L13495.4529,-3448.3878L13495.4427,-3448.3834L13495.4374,-3448.3806L13495.4365,-3448.3801L13495.4356,-3448.3796L13495.427,-3448.375L13495.4128,-3448.3664L13495.3997,-3448.3581L13495.3839,-3448.3473L13495.3704,-3448.3367L13495.3664,-3448.3333L13495.355,-3448.3238L13495.3426,-3448.313L13495.3289,-3448.3005L13495.3129,-3448.2851L13495.2983,-3448.2711L13495.2918,-3448.2645L13495.2855,-3448.2581L13495.2748,-3448.2467L13495.2618,-3448.2327L13495.2528,-3448.2225L13495.2423,-3448.2095L13495.232,-3448.1972L13495.224,-3448.1879L13495.212,-3448.1721L13495.2032,-3448.1612L13495.1999,-3448.1571L13495.1989,-3448.1559L13495.1856,-3448.1398L13495.1799,-3448.133L13495.1743,-3448.124L13495.1695,-3448.1146L13495.1632,-3448.1038L13495.1592,-3448.0982L13495.1525,-3448.0883L13495.1468,-3448.078L13495.139,-3448.0664L13495.1352,-3448.0611L13495.1321,-3448.0547L13495.129,-3448.0479L13495.125,-3448.0364L13495.1211,-3448.0242L13495.1198,-3448.0158L13495.1182,-3448.0051L13495.1164,-3447.9972L13495.1162,-3447.9955L13495.1156,-3447.9896L13495.1153,-3447.9836L13495.1163,-3447.9776L13495.1164,-3447.9771L13495.1191,-3447.9697L13495.1226,-3447.9618L13495.1242,-3447.9546L13495.1226,-3447.9483L13495.1209,-3447.9383L13495.118,-3447.9263L13495.1143,-3447.9167L13495.1105,-3447.9093L13495.1095,-3447.9075L13495.1054,-3447.8977L13495.1004,-3447.8836L13495.0969,-3447.8733L13495.0933,-3447.8654L13495.0896,-3447.8598L13495.0874,-3447.8573L13495.0859,-3447.8556L13495.0841,-3447.8536L13495.0792,-3447.8482L13495.0714,-3447.8414L13495.0594,-3447.8316L13495.0441,-3447.8206L13495.0312,-3447.8104L13495.0188,-3447.8012L13495.0093,-3447.7928L13495,-3447.7841L13494.9991,-3447.7833L13494.9891,-3447.7741L13494.9821,-3447.7661L13494.9766,-3447.7588L13494.9693,-3447.75L13494.9633,-3447.7412L13494.9557,-3447.7298L13494.9505,-3447.7219L13494.945,-3447.712L13494.94,-3447.7019L13494.9349,-3447.6901L13494.931,-3447.6786L13494.9274,-3447.6683L13494.924,-3447.6548L13494.9197,-3447.6449L13494.9168,-3447.6365L13494.9129,-3447.6284L13494.9055,-3447.6169L13494.8992,-3447.6073L13494.8816,-3447.5875L13494.8768,-3447.5838L13494.8732,-3447.5809L13494.8708,-3447.5789L13494.8687,-3447.5771L13494.8667,-3447.5754L13494.8653,-3447.574L13494.8638,-3447.5726L13494.8606,-3447.5695L13494.8534,-3447.5624L13494.8482,-3447.5573L13494.8445,-3447.5536L13494.8418,-3447.5508L13494.8405,-3447.5495L13494.8395,-3447.5483L13494.8385,-3447.5471L13494.8374,-3447.5459L13494.8352,-3447.5431L13494.8328,-3447.5402L13494.8284,-3447.5345L13494.8265,-3447.5321L13494.8249,-3447.53L13494.8229,-3447.5276L13494.8215,-3447.5261L13494.8209,-3447.5254L13494.8203,-3447.5248L13494.8197,-3447.5242L13494.819,-3447.5236L13494.8183,-3447.523L13494.8175,-3447.5224L13494.8158,-3447.5211L13494.8149,-3447.5205L13494.813,-3447.5192L13494.8067,-3447.515L13494.8051,-3447.514L13494.8044,-3447.5135L13494.8037,-3447.5129L13494.8022,-3447.5117L13494.8005,-3447.5104L13494.7988,-3447.5089L13494.7952,-3447.5059L13494.7889,-3447.5005L13494.7883,-3447.5L13494.7853,-3447.4974L13494.777,-3447.4901L13494.7734,-3447.4869L13494.7646,-3447.4795L13494.762,-3447.4773L13494.7588,-3447.4746L13494.7574,-3447.4733L13494.7561,-3447.4721L13494.7542,-3447.4703L13494.752,-3447.468L13494.749,-3447.4649L13494.7464,-3447.4622L13494.7454,-3447.461L13494.7437,-3447.4591L13494.7425,-3447.4577L13494.7407,-3447.4555L13494.7371,-3447.451L13494.7323,-3447.4451L13494.727,-3447.4383L13494.7241,-3447.4345L13494.7218,-3447.4317L13494.7207,-3447.4305L13494.7197,-3447.4294L13494.7185,-3447.428L13494.7163,-3447.4258L13494.7139,-3447.4234L13494.7112,-3447.4208L13494.7095,-3447.4191L13494.707,-3447.4167L13494.684,-3447.3908L13494.6817,-3447.3887L13494.6744,-3447.3819L13494.6731,-3447.3805L13494.6234,-3447.3116L13494.6222,-3447.3072L13494.6187,-3447.2984L13494.616,-3447.2927L13494.6146,-3447.2891L13494.6152,-3447.2868L13494.6153,-3447.2848L13494.6144,-3447.2812L13494.6139,-3447.2795L13494.615,-3447.2783L13494.6162,-3447.2767L13494.6153,-3447.2757L13494.6143,-3447.2752L13494.6132,-3447.2758L13494.6116,-3447.277L13494.6103,-3447.2774L13494.6093,-3447.2766L13494.6062,-3447.2687L13494.6052,-3447.2635L13494.606,-3447.2621L13494.6094,-3447.2602L13494.6105,-3447.2587L13494.6077,-3447.2521L13494.5996,-3447.2387L13494.5915,-3447.226L13494.583,-3447.2135L13494.5757,-3447.2055L13494.5699,-3447.1979L13494.561,-3447.1878L13494.5546,-3447.1813L13494.5504,-3447.1779L13494.5483,-3447.177L13494.5466,-3447.1771L13494.5448,-3447.1786L13494.5438,-3447.179L13494.5429,-3447.1792L13494.5407,-3447.1786L13494.5337,-3447.1724L13494.5306,-3447.1678L13494.5267,-3447.1621L13494.5187,-3447.1494L13494.5166,-3447.1456L13494.5167,-3447.1452L13494.522,-3447.1428L13494.5228,-3447.1418L13494.5219,-3447.1412L13494.521,-3447.141L13494.5151,-3447.1432L13494.5119,-3447.1444L13494.5114,-3447.1444L13494.51,-3447.1416L13494.5,-3447.1196L13494.4906,-3447.0994L13494.4907,-3447.0984L13494.493,-3447.0969L13494.4939,-3447.0948L13494.4853,-3447.0757L13494.4779,-3447.0555L13494.4725,-3447.0533L13494.4698,-3447.0473L13494.464,-3447.0351L13494.4439,-3446.9846L13494.442,-3446.9824L13494.4413,-3446.9823L13494.4404,-3446.9822L13494.4395,-3446.9821L13494.4358,-3446.9829L13494.4357,-3446.9829L13494.4355,-3446.9829L13494.4346,-3446.9812L13494.4349,-3446.9811L13494.435,-3446.9811L13494.4373,-3446.9804L13494.4431,-3446.9786L13494.4439,-3446.9778L13494.4427,-3446.9732L13494.4333,-3446.9457L13494.4311,-3446.9409L13494.4302,-3446.9396L13494.4269,-3446.9395L13494.4249,-3446.9402L13494.4232,-3446.9405L13494.4221,-3446.9405L13494.4218,-3446.9405L13494.4209,-3446.9407L13494.4156,-3446.9415L13494.4152,-3446.9404L13494.4204,-3446.9395L13494.4214,-3446.9393L13494.4219,-3446.9392L13494.4238,-3446.9394L13494.4256,-3446.9392L13494.4283,-3446.9365L13494.4278,-3446.9357L13494.4259,-3446.9301L13494.4252,-3446.9259L13494.4251,-3446.9193L13494.4252,-3446.9176L13494.424,-3446.9142L13494.4225,-3446.9103L13494.4208,-3446.9069L13494.4188,-3446.9034L13494.4175,-3446.8999L13494.4159,-3446.896L13494.4143,-3446.8934L13494.4128,-3446.8895L13494.4112,-3446.8851L13494.4089,-3446.8804L13494.4077,-3446.8774L13494.4032,-3446.8609L13494.4004,-3446.8518L13494.4002,-3446.8485L13494.3996,-3446.846L13494.399,-3446.8426L13494.3987,-3446.841L13494.3984,-3446.8389L13494.3974,-3446.8372L13494.3962,-3446.8356L13494.3956,-3446.8349L13494.3937,-3446.8318L13494.3921,-3446.8306L13494.3919,-3446.8298L13494.392,-3446.8281L13494.392,-3446.8264L13494.3916,-3446.8244L13494.3904,-3446.8224L13494.389,-3446.8211L13494.3874,-3446.821L13494.3864,-3446.8189L13494.3861,-3446.8154L13494.3861,-3446.8124L13494.3858,-3446.8066L13494.3844,-3446.7996L13494.3818,-3446.7935L13494.3809,-3446.7892L13494.3799,-3446.7856L13494.3782,-3446.7817L13494.3754,-3446.7793L13494.3703,-3446.7758L13494.3681,-3446.7736L13494.3653,-3446.7702L13494.3624,-3446.7655L13494.3593,-3446.761L13494.3559,-3446.754L13494.3491,-3446.7419L13494.3469,-3446.7375L13494.3453,-3446.7326L13494.3428,-3446.7239L13494.3398,-3446.7117L13494.3361,-3446.6995L13494.3328,-3446.6896L13494.328,-3446.6722L13494.3266,-3446.6667L13494.3242,-3446.6574L13494.3202,-3446.6438L13494.3169,-3446.6325L13494.3131,-3446.6217L13494.3105,-3446.613L13494.3075,-3446.6043L13494.3046,-3446.5973L13494.2995,-3446.5884L13494.2931,-3446.5815L13494.2897,-3446.5781L13494.2845,-3446.5728L13494.2707,-3446.5588L13494.2692,-3446.5572L13494.2676,-3446.5555L13494.266,-3446.5529L13494.2653,-3446.5508L13494.2641,-3446.5485L13494.257,-3446.5419L13494.2468,-3446.5346L13494.2378,-3446.5281L13494.2244,-3446.5194L13494.2135,-3446.5114L13494.2081,-3446.5078L13494.2007,-3446.5024L13494.1994,-3446.5014L13494.1968,-3446.4987L13494.1935,-3446.4948L13494.1918,-3446.4929L13494.1893,-3446.4905L13494.1874,-3446.4882L13494.1861,-3446.487L13494.1853,-3446.4868L13494.1834,-3446.4877L13494.1807,-3446.4903L13494.18,-3446.4908L13494.1794,-3446.4904L13494.1792,-3446.4901L13494.181,-3446.4879L13494.182,-3446.4862L13494.1822,-3446.4848L13494.1818,-3446.4832L13494.1797,-3446.4813L13494.1777,-3446.478L13494.1775,-3446.4747L13494.1758,-3446.4708L13494.1722,-3446.4688L13494.1687,-3446.466L13494.1671,-3446.4628L13494.1669,-3446.4586L13494.1668,-3446.4551L13494.1667,-3446.4549L13494.1656,-3446.4527L13494.1632,-3446.4504L13494.1585,-3446.4491L13494.1546,-3446.4487L13494.1499,-3446.448L13494.1441,-3446.4466L13494.138,-3446.4446L13494.1324,-3446.4416L13494.1278,-3446.438L13494.112,-3446.4247L13494.0967,-3446.4114L13494.0943,-3446.4078L13494.0941,-3446.4062L13494.0947,-3446.404L13494.0948,-3446.4018L13494.0939,-3446.4007L13494.0925,-3446.3996L13494.0914,-3446.3968L13494.0908,-3446.3947L13494.0915,-3446.3923L13494.0928,-3446.3896L13494.0925,-3446.3877L13494.0912,-3446.3856L13494.089,-3446.3838L13494.0874,-3446.3813L13494.0864,-3446.3782L13494.0863,-3446.3748L13494.0836,-3446.3705L13494.0825,-3446.3653L13494.0809,-3446.3619L13494.0805,-3446.3571L13494.0817,-3446.354L13494.0808,-3446.3517L13494.0803,-3446.3499L13494.0804,-3446.349L13494.0811,-3446.3481L13494.0816,-3446.3469L13494.0815,-3446.3461L13494.0811,-3446.3455L13494.08,-3446.3449L13494.0786,-3446.3446L13494.0758,-3446.3444L13494.0739,-3446.3441L13494.0729,-3446.3438L13494.0721,-3446.3434L13494.0696,-3446.3414L13494.0668,-3446.3395L13494.062,-3446.3366L13494.0579,-3446.3342L13494.0448,-3446.3269L13494.007,-3446.3078L13494.006,-3446.3068L13494.0035,-3446.3064L13494.0006,-3446.3065L13493.995,-3446.3057L13493.9932,-3446.3049L13493.9904,-3446.3009L13493.9865,-3446.2987L13493.9841,-3446.2982L13493.9817,-3446.2978L13493.9798,-3446.2977L13493.9772,-3446.2958L13493.9763,-3446.2942L13493.9755,-3446.2932L13493.9745,-3446.2932L13493.9726,-3446.2941L13493.9699,-3446.294L13493.9684,-3446.2934L13493.9667,-3446.2914L13493.9653,-3446.2888L13493.9631,-3446.2887L13493.9607,-3446.2885L13493.9574,-3446.287L13493.9548,-3446.286L13493.9522,-3446.2846L13493.9492,-3446.282L13493.9473,-3446.2814L13493.9447,-3446.2811L13493.9379,-3446.2773L13493.9364,-3446.2759L13493.9363,-3446.2748L13493.9366,-3446.2735L13493.9359,-3446.272L13493.9348,-3446.2718L13493.9325,-3446.2726L13493.9308,-3446.2727L13493.9293,-3446.272L13493.9271,-3446.2708L13493.9269,-3446.2697L13493.9266,-3446.2682L13493.9254,-3446.2671L13493.9226,-3446.2664L13493.92,-3446.2669L13493.9183,-3446.2665L13493.9177,-3446.2656L13493.9176,-3446.2639L13493.9167,-3446.2617L13493.9152,-3446.2604L13493.9121,-3446.2611L13493.9098,-3446.2609L13493.9083,-3446.2595L13493.9064,-3446.2582L13493.9047,-3446.2574L13493.9016,-3446.2556L13493.8989,-3446.2545L13493.8967,-3446.2542L13493.8943,-3446.2532L13493.8917,-3446.2517L13493.8897,-3446.2512L13493.8886,-3446.2507L13493.8881,-3446.2488L13493.886,-3446.2481L13493.8839,-3446.2481L13493.8828,-3446.2478L13493.8823,-3446.2469L13493.8819,-3446.2464L13493.8806,-3446.2457L13493.8748,-3446.2432L13493.8669,-3446.2385L13493.8657,-3446.2374L13493.8633,-3446.2355L13493.8561,-3446.2311L13493.8538,-3446.2311L13493.8501,-3446.2281L13493.8495,-3446.2271L13493.8437,-3446.2232L13493.8303,-3446.2135L13493.8188,-3446.2054L13493.7872,-3446.183L13493.7865,-3446.1823L13493.7825,-3446.1797L13493.7794,-3446.1777L13493.7773,-3446.1769L13493.777,-3446.1759L13493.7754,-3446.1747L13493.7537,-3446.1596L13493.7532,-3446.1589L13493.7532,-3446.1589L13493.7413,-3446.1502L13493.7399,-3446.1491L13493.7374,-3446.1467L13493.7349,-3446.1446L13493.7295,-3446.1407L13493.7223,-3446.1356L13493.7209,-3446.1346L13493.7201,-3446.1348L13493.7195,-3446.1348L13493.7189,-3446.1347L13493.7175,-3446.1343L13493.7169,-3446.1341L13493.7167,-3446.134L13493.7166,-3446.1337L13493.7167,-3446.1335L13493.7174,-3446.1333L13493.7177,-3446.1332L13493.7181,-3446.1331L13493.7183,-3446.1332L13493.7188,-3446.1333L13493.7192,-3446.1334L13493.7198,-3446.1334L13493.7213,-3446.1332L13493.7215,-3446.133L13493.7215,-3446.1326L13493.7214,-3446.1324L13493.7212,-3446.1319L13493.72,-3446.1302L13493.7174,-3446.1254L13493.7155,-3446.1216L13493.7139,-3446.1206L13493.7124,-3446.1206L13493.7122,-3446.1198L13493.713,-3446.1189L13493.7134,-3446.1176L13493.7127,-3446.1161L13493.7081,-3446.108L13493.7039,-3446.1011L13493.7001,-3446.096L13493.6969,-3446.0903L13493.6949,-3446.0842L13493.6941,-3446.0805L13493.692,-3446.0746L13493.6906,-3446.0704L13493.6894,-3446.0674L13493.6885,-3446.0631L13493.6871,-3446.0563L13493.6869,-3446.0531L13493.687,-3446.0505L13493.6866,-3446.0487L13493.6845,-3446.0423L13493.6814,-3446.0418L13493.6793,-3446.0402L13493.6922,-3446.0264L13493.7111,-3446.0062L13493.721,-3445.9958L13493.6458,-3445.9463L13493.6418,-3445.9506L13493.6718,-3445.9704L13493.6706,-3445.9716L13493.7104,-3445.9977L13493.706,-3446.0028L13493.6967,-3445.9971L13493.6436,-3446.0546L13493.6446,-3446.0588L13493.6364,-3446.0677L13493.6367,-3446.0674L13493.6363,-3446.0678L13493.63,-3446.0645L13493.6237,-3446.0611L13493.63,-3446.0528L13493.5907,-3446.0313L13493.5509,-3446.0099L13493.59,-3445.9751L13493.5855,-3445.9716L13493.5463,-3446.0068L13493.4475,-3445.9322L13493.4988,-3445.8855L13493.4957,-3445.8833L13493.496,-3445.8831L13493.4735,-3445.8662L13493.4727,-3445.8669L13493.4707,-3445.8653L13493.4714,-3445.8646L13493.4541,-3445.8517L13493.4386,-3445.8402L13493.4355,-3445.8378L13493.4345,-3445.8379L13493.4319,-3445.8381L13493.4383,-3445.8333L13493.4692,-3445.8102L13493.5272,-3445.8152L13493.5294,-3445.8154L13493.5294,-3445.8166L13493.5295,-3445.8188L13493.5345,-3445.8188L13493.5386,-3445.8193L13493.5404,-3445.8197L13493.5444,-3445.8208L13493.5487,-3445.8221L13493.5525,-3445.8236L13493.5569,-3445.8253L13493.5732,-3445.8333L13493.5907,-3445.8419L13493.5983,-3445.8456L13493.6475,-3445.8695L13493.6519,-3445.8717L13493.6586,-3445.8753L13493.6609,-3445.8765L13493.6687,-3445.8818L13493.6884,-3445.8962L13493.713,-3445.9155L13493.7492,-3445.9436L13493.7745,-3445.9634L13493.7752,-3445.9639L13493.7757,-3445.9642L13493.7745,-3445.9653L13493.779,-3445.9685L13493.7776,-3445.9699L13493.7976,-3445.9843L13493.8785,-3445.9768L13493.9297,-3445.9218L13493.9804,-3445.8664L13494.0362,-3445.9054L13494.0384,-3445.907L13494.0518,-3445.9165L13494.0476,-3445.9205L13494.056,-3445.9263L13494.0638,-3445.9183L13494.0593,-3445.9152L13493.9808,-3445.8602L13493.9803,-3445.8604L13493.9414,-3445.8333L13493.8186,-3445.748L13493.7563,-3445.7046L13493.5679,-3445.5733L13493.4309,-3445.4779L13493.3333,-3445.3814L13493.3307,-3445.3789L13493.2649,-3445.3145L13493.2629,-3445.3125L13491.2109,-3445.3125L13491.2109,-3453.6293L13491.2261,-3453.6359L13491.2109,-3453.6583L13491.2109,-3453.671L13491.2127,-3453.6684L13491.2307,-3453.6408L13491.2463,-3453.6171L13491.2595,-3453.597L13491.274,-3453.5873L13491.2762,-3453.5873L13491.2832,-3453.5878L13491.291,-3453.5884L13491.2974,-3453.5891L13491.3031,-3453.5898L13491.3102,-3453.5914L13491.316,-3453.593L13491.322,-3453.5947L13491.3281,-3453.5965L13491.3332,-3453.5983L13491.3381,-3453.6004L13491.3422,-3453.6018L13491.3454,-3453.6033L13491.3482,-3453.6053L13491.3517,-3453.6085L13491.3678,-3453.623L13491.3765,-3453.6284L13491.383,-3453.6323L13491.3925,-3453.6395L13491.4117,-3453.6593L13491.4136,-3453.6609L13491.4171,-3453.6638L13491.4205,-3453.6667L13491.4225,-3453.6685L13491.4281,-3453.6735L13491.4299,-3453.6751L13491.4317,-3453.6767L13491.4326,-3453.6774L13491.4335,-3453.6782L13491.4345,-3453.6789L13491.4354,-3453.6795L13491.4363,-3453.6801L13491.4371,-3453.6807L13491.438,-3453.6812L13491.4389,-3453.6816L13491.441,-3453.6827L13491.4416,-3453.683L13491.4422,-3453.6833L13491.4433,-3453.6839L13491.4443,-3453.6845L13491.4452,-3453.6852L13491.4458,-3453.6858L13491.4461,-3453.6865L13491.4462,-3453.6871L13491.4462,-3453.688L13491.446,-3453.6888L13491.4458,-3453.6896L13491.4455,-3453.6903L13491.4449,-3453.6911L13491.4443,-3453.6919L13491.4436,-3453.6926L13491.4429,-3453.6932L13491.4424,-3453.6936L13491.4417,-3453.6939L13491.4409,-3453.6942L13491.4401,-3453.6944L13491.4392,-3453.6946L13491.4382,-3453.6948L13491.4373,-3453.695L13491.4337,-3453.6955L13491.433,-3453.6957L13491.4305,-3453.6962L13491.4287,-3453.6966L13491.4278,-3453.6968L13491.4269,-3453.697L13491.4261,-3453.6973L13491.4254,-3453.6975L13491.4245,-3453.6979L13491.4236,-3453.6984L13491.4226,-3453.6989L13491.4216,-3453.6995L13491.4206,-3453.7002L13491.4197,-3453.7009L13491.4187,-3453.7016L13491.4149,-3453.7046L13491.4099,-3453.7083L13491.3947,-3453.7163L13491.3973,-3453.7197L13491.3986,-3453.721L13491.4001,-3453.7223L13491.4339,-3453.7047L13491.4374,-3453.7028L13491.4403,-3453.7012L13491.4421,-3453.7002L13491.443,-3453.6997L13491.4439,-3453.6993L13491.4448,-3453.6989L13491.4456,-3453.6985L13491.4464,-3453.6982L13491.4472,-3453.698L13491.448,-3453.6978L13491.4487,-3453.6977L13491.4494,-3453.6976L13491.4501,-3453.6977L13491.4509,-3453.6978L13491.4518,-3453.698L13491.4527,-3453.6982L13491.4536,-3453.6985L13491.4545,-3453.6987L13491.456,-3453.6992L13491.4569,-3453.6996L13491.4577,-3453.6999L13491.4586,-3453.7004L13491.4595,-3453.7009L13491.4605,-3453.7014L13491.4614,-3453.702L13491.4623,-3453.7026L13491.4632,-3453.7033L13491.4641,-3453.7039L13491.465,-3453.7046L13491.4667,-3453.706L13491.4675,-3453.7066L13491.469,-3453.708L13491.4697,-3453.7086L13491.4709,-3453.7097L13491.4715,-3453.7103L13491.472,-3453.7108L13491.4725,-3453.7114L13491.4737,-3453.7127L13491.4748,-3453.7141L13491.4754,-3453.7148L13491.4761,-3453.7158L13491.4802,-3453.7219L13491.481,-3453.723L13491.4821,-3453.7249L13491.4824,-3453.7255L13491.483,-3453.7268L13491.4851,-3453.7313L13491.4863,-3453.7337L13491.4871,-3453.7351L13491.4875,-3453.7358L13491.4879,-3453.7365L13491.4883,-3453.7371L13491.4887,-3453.7376L13491.4903,-3453.7396L13491.4909,-3453.7404L13491.4914,-3453.7411L13491.4918,-3453.7418L13491.4921,-3453.7425L13491.4922,-3453.7431L13491.4919,-3453.7439L13491.4915,-3453.7449L13491.4909,-3453.7457L13491.4903,-3453.7465L13491.4894,-3453.7473L13491.4885,-3453.7482L13491.4874,-3453.7489L13491.4864,-3453.7496L13491.4855,-3453.7501L13491.4849,-3453.7505L13491.4841,-3453.7508L13491.4833,-3453.7511L13491.4815,-3453.7517L13491.4789,-3453.7525L13491.4782,-3453.7527L13491.4762,-3453.7534L13491.4751,-3453.7538L13491.474,-3453.7543L13491.473,-3453.7548L13491.4721,-3453.7553L13491.4713,-3453.7559L13491.4708,-3453.7565L13491.4705,-3453.757L13491.4705,-3453.7577L13491.4708,-3453.7585L13491.4712,-3453.7594L13491.4717,-3453.7601L13491.4723,-3453.7607L13491.4729,-3453.761L13491.4737,-3453.7612L13491.4746,-3453.7612L13491.4756,-3453.7613L13491.4766,-3453.7613L13491.4774,-3453.7612L13491.4782,-3453.7611L13491.479,-3453.761L13491.4799,-3453.7607L13491.4808,-3453.7604L13491.4817,-3453.76L13491.4826,-3453.7596L13491.4835,-3453.7591L13491.4844,-3453.7586L13491.4878,-3453.7567L13491.4887,-3453.7563L13491.4895,-3453.7559L13491.4902,-3453.7555L13491.4909,-3453.7553L13491.4916,-3453.755L13491.4924,-3453.7548L13491.4933,-3453.7546L13491.4942,-3453.7544L13491.4952,-3453.7542L13491.4962,-3453.754L13491.4971,-3453.7539L13491.498,-3453.7538L13491.4988,-3453.7538L13491.4995,-3453.7538L13491.5003,-3453.754L13491.5012,-3453.7542L13491.5021,-3453.7546L13491.503,-3453.7551L13491.5039,-3453.7557L13491.5048,-3453.7563L13491.5057,-3453.757L13491.5065,-3453.7577L13491.5074,-3453.7584L13491.5082,-3453.7591L13491.5102,-3453.7609L13491.5108,-3453.7615L13491.5115,-3453.7622L13491.5122,-3453.763L13491.515,-3453.7661L13491.5162,-3453.7674L13491.5182,-3453.7695L13491.519,-3453.7702L13491.521,-3453.7715L13491.5219,-3453.7722L13491.5227,-3453.7728L13491.5246,-3453.7745L13491.5252,-3453.7752L13491.5258,-3453.7759L13491.5264,-3453.7767L13491.5269,-3453.7775L13491.5273,-3453.7782L13491.5276,-3453.7789L13491.5279,-3453.7796L13491.5279,-3453.7804L13491.5272,-3453.7812L13491.5261,-3453.7818L13491.5251,-3453.782L13491.5239,-3453.7821L13491.5229,-3453.7823L13491.5221,-3453.7825L13491.5211,-3453.783L13491.5199,-3453.7836L13491.519,-3453.7844L13491.5173,-3453.7856L13491.5164,-3453.7863L13491.5153,-3453.7871L13491.5145,-3453.7879L13491.514,-3453.7887L13491.5142,-3453.7894L13491.5148,-3453.7902L13491.5155,-3453.791L13491.5163,-3453.7916L13491.517,-3453.7918L13491.5179,-3453.792L13491.5189,-3453.7921L13491.5196,-3453.7921L13491.5206,-3453.7918L13491.5216,-3453.7911L13491.5226,-3453.7903L13491.5235,-3453.7897L13491.5242,-3453.7894L13491.525,-3453.789L13491.5277,-3453.788L13491.5284,-3453.7877L13491.5293,-3453.7873L13491.5302,-3453.7869L13491.5312,-3453.7866L13491.532,-3453.7865L13491.5327,-3453.7868L13491.5334,-3453.7875L13491.534,-3453.7885L13491.5346,-3453.7895L13491.535,-3453.7904L13491.5353,-3453.791L13491.5356,-3453.7917L13491.5359,-3453.7924L13491.5361,-3453.7932L13491.5369,-3453.7964L13491.5371,-3453.7971L13491.5374,-3453.7977L13491.5376,-3453.7983L13491.538,-3453.799L13491.5384,-3453.7997L13491.5389,-3453.8004L13491.5405,-3453.8028L13491.541,-3453.8035L13491.5415,-3453.8043L13491.5419,-3453.805L13491.5422,-3453.8056L13491.5424,-3453.8063L13491.5426,-3453.8072L13491.5428,-3453.808L13491.543,-3453.8088L13491.543,-3453.8095L13491.543,-3453.8101L13491.5429,-3453.8107L13491.5427,-3453.8114L13491.5425,-3453.8121L13491.5416,-3453.8148L13491.5252,-3453.8253L13491.5286,-3453.8292L13491.5302,-3453.831L13491.5334,-3453.8291L13491.5484,-3453.8202L13491.5497,-3453.8228L13491.5523,-3453.8253L13491.5556,-3453.8286L13491.5559,-3453.829L13491.5582,-3453.832L13491.5615,-3453.8365L13491.5646,-3453.842L13491.5664,-3453.8457L13491.5684,-3453.8484L13491.5721,-3453.8545L13491.5925,-3453.8734L13491.5932,-3453.8743L13491.5888,-3453.8847L13491.5912,-3453.8927L13491.6045,-3453.8872L13491.6063,-3453.8874L13491.6123,-3453.8918L13491.6228,-3453.902L13491.634,-3453.9144L13491.6378,-3453.9197L13491.64,-3453.9225L13491.6428,-3453.9267L13491.6448,-3453.9309L13491.6464,-3453.9357L13491.6474,-3453.9405L13491.6475,-3453.9457L13491.6471,-3453.9491L13491.6477,-3453.9525L13491.6529,-3453.958L13491.6577,-3453.9593L13491.6616,-3453.9603L13491.6665,-3453.9619L13491.6667,-3453.962L13491.6699,-3453.964L13491.6726,-3453.9667L13491.675,-3453.9696L13491.6773,-3453.9728L13491.6793,-3453.9778L13491.6809,-3453.9819L13491.6849,-3453.987L13491.6868,-3453.9942L13491.6892,-3454.0004L13491.6912,-3454.0071L13491.6949,-3454.0147L13491.6987,-3454.0222L13491.7028,-3454.0309L13491.7075,-3454.0404L13491.7118,-3454.0479L13491.7172,-3454.0572L13491.7212,-3454.0635L13491.7296,-3454.0761L13491.739,-3454.0893L13491.7479,-3454.1016Z"/>
<path content="兵庫県,,,淡路市,,28226" xlink:title="兵庫県" d="M13499.1667,-3451.6651L13499.0829,-3451.5759L13499.0266,-3451.5159L13498.9908,-3451.4701L13498.9643,-3451.4363L13498.9331,-3451.3964L13498.8451,-3451.2819L13498.8252,-3451.2564L13498.824,-3451.2547L13498.8228,-3451.253L13498.8219,-3451.2512L13498.8212,-3451.2493L13498.8206,-3451.2472L13498.8137,-3451.2168L13498.8136,-3451.2166L13498.8163,-3451.2163L13498.8156,-3451.2129L13498.8146,-3451.2087L13498.8047,-3451.2102L13498.8053,-3451.2131L13498.8057,-3451.213L13498.8064,-3451.216L13498.8072,-3451.2159L13498.8075,-3451.2168L13498.8101,-3451.2286L13498.8095,-3451.2286L13498.8115,-3451.2367L13498.8119,-3451.2367L13498.8146,-3451.2486L13498.8155,-3451.2513L13498.8163,-3451.2532L13498.8174,-3451.2551L13498.8187,-3451.257L13498.8202,-3451.2592L13498.8451,-3451.2915L13498.9263,-3451.3965L13498.9594,-3451.4388L13498.986,-3451.4729L13499.0181,-3451.5139L13499.0171,-3451.5144L13499.0206,-3451.5189L13499.0219,-3451.5183L13499.0761,-3451.576L13499.1439,-3451.6481L13499.1169,-3451.6651L13499.1186,-3451.6667L13499.1197,-3451.6677L13499.1214,-3451.6667L13499.1465,-3451.6509L13499.1613,-3451.6667L13499.1667,-3451.6724L13499.1722,-3451.6782L13499.1783,-3451.6847L13499.1762,-3451.686L13499.1822,-3451.6925L13499.1888,-3451.6884L13499.1824,-3451.6818L13499.1681,-3451.6667L13499.1667,-3451.6651Z"/>
<path content="兵庫県,,,淡路市,,28226" xlink:title="兵庫県" d="M13499.5067,-3452.4828L13499.5051,-3452.4771L13499.505,-3452.4766L13499.5016,-3452.4772L13499.4904,-3452.4363L13499.4902,-3452.4356L13499.4871,-3452.4245L13499.457,-3452.313L13499.4534,-3452.3013L13499.4513,-3452.2952L13499.3909,-3452.1152L13499.3796,-3452.0824L13499.3836,-3452.0814L13499.3821,-3452.0773L13499.3814,-3452.0752L13499.3774,-3452.0761L13499.3754,-3452.0702L13499.3647,-3452.0395L13499.3691,-3452.0384L13499.3666,-3452.0304L13499.3566,-3452.0329L13499.3692,-3452.0702L13499.3716,-3452.0775L13499.3737,-3452.0838L13499.3748,-3452.087L13499.3844,-3452.1152L13499.4147,-3452.2053L13499.4157,-3452.2083L13499.445,-3452.2952L13499.4474,-3452.3023L13499.451,-3452.3141L13499.4515,-3452.316L13499.4525,-3452.3196L13499.481,-3452.4256L13499.4838,-3452.4356L13499.484,-3452.4364L13499.4917,-3452.4649L13499.4926,-3452.4681L13499.4952,-3452.4783L13499.4968,-3452.4846L13499.5067,-3452.4828Z"/>
<path content="兵庫県,,,淡路市,,28226" xlink:title="兵庫県" d="M13491.2313,-3453.7537L13491.2313,-3453.7486L13491.2109,-3453.7487L13491.2109,-3453.754L13491.2313,-3453.7537Z"/>
<path content="兵庫県,,,淡路市,,28226" xlink:title="兵庫県" d="M13499.3478,-3451.9975L13499.3478,-3451.9909L13499.2929,-3451.9911L13499.2929,-3451.9977L13499.3478,-3451.9975Z"/>
<path content="兵庫県,,,淡路市,,28226" xlink:title="兵庫県" d="M13497.9768,-3450.4025L13497.9763,-3450.4008L13497.9743,-3450.4012L13497.9746,-3450.403L13497.9768,-3450.4025Z"/>
</g>
</svg>
