<?xml version="1.0" encoding="UTF-8"?>
<svg  xmlns="http://www.w3.org/2000/svg" xmlns:xlink="http://www.w3.org/1999/xlink" xmlns:go="http://purl.org/svgmap/profile" property="geometry,N03_001,N03_002,N03_003,N03_004,N03_005,N03_007" viewBox="13587.890625 -3355.224609375 2.197265625 2.197265625" go:dataArea="13587.890625 -3355.224609375 2.197265625 2.197265625" >
<metadata>
 <rdf:RDF xmlns:rdf="http://www.w3.org/1999/02/22-rdf-syntax-ns#" xmlns:crs="http://opengis.org/xmldtds/transformations.dtd" xmlns:svg="http://www.w3.org/svg" >
  <rdf:Description>
   <crs:CoordinateReferenceSystem rdf:resource="http://purl.org/crs/84" svg:transform="matrix(100.0,0.0,0.0,-100.0,0.0,0.0)" />
  </rdf:Description>
 </rdf:RDF>
</metadata>
<globalCoordinateSystem srsName="http://purl.org/crs/84" transform="matrix(100.0,0.0,0.0,-100.0,0.0,0.0)" />
<defs>
 <g id="p0" >
  <circle cx="0.0" cy="0.0" r="3" stroke="green" stroke-width="2.0" vector-effect="non-scaling-stroke" />
 </g>
</defs>
<g fill="#0000ff" fill-rule="evenodd" opacity="0.5" >
<path content="和歌山県,,東牟婁郡,那智勝浦町,,30421" xlink:title="和歌山県" d="M13590.0879,-3355.2246L13590.0879,-3354.5615L13590.082,-3354.5619L13590.0788,-3354.561L13590.0683,-3354.5584L13590.066,-3354.5571L13590.061,-3354.5544L13590.0563,-3354.5551L13590.0536,-3354.5577L13590.0536,-3354.5639L13590.0542,-3354.5667L13590.0539,-3354.5714L13590.0529,-3354.5729L13590.0489,-3354.5771L13590.0442,-3354.5808L13590.0426,-3354.5812L13590.0379,-3354.5812L13590.034,-3354.5834L13590.0319,-3354.5852L13590.029,-3354.5883L13590.0261,-3354.5931L13590.0216,-3354.5977L13590.0114,-3354.6006L13590,-3354.6004L13589.9943,-3354.5973L13589.9891,-3354.5934L13589.9838,-3354.5878L13589.9785,-3354.5842L13589.9745,-3354.5822L13589.9707,-3354.5822L13589.9673,-3354.5834L13589.9619,-3354.5846L13589.9536,-3354.5876L13589.9441,-3354.5955L13589.9417,-3354.5998L13589.9413,-3354.6025L13589.9417,-3354.6061L13589.941,-3354.6069L13589.9388,-3354.6078L13589.9365,-3354.6082L13589.934,-3354.6082L13589.9323,-3354.6075L13589.9298,-3354.6068L13589.9243,-3354.6066L13589.9214,-3354.6061L13589.9052,-3354.639L13589.8977,-3354.6484L13589.8815,-3354.6516L13589.8497,-3354.6578L13589.8285,-3354.6651L13589.8186,-3354.674L13589.8127,-3354.6862L13589.8071,-3354.7128L13589.7996,-3354.7191L13589.7703,-3354.7316L13589.751,-3354.741L13589.736,-3354.7629L13589.7023,-3354.7943L13589.6854,-3354.8032L13589.6711,-3354.8089L13589.6561,-3354.8105L13589.6331,-3354.8121L13589.6219,-3354.8225L13589.6032,-3354.8481L13589.5749,-3354.8973L13589.5761,-3354.9021L13589.5818,-3354.9245L13589.593,-3354.9558L13589.5861,-3354.9678L13589.5712,-3354.9761L13589.5544,-3354.9819L13589.5332,-3354.9871L13589.5165,-3354.9982L13589.5148,-3355L13589.5021,-3355.0134L13589.4866,-3355.0436L13589.4657,-3355.1096L13589.4583,-3355.132L13589.4551,-3355.1832L13589.4545,-3355.2067L13589.4545,-3355.2246L13589.4187,-3355.2246L13589.4175,-3355.2223L13589.4106,-3355.2145L13589.4013,-3355.2129L13589.3763,-3355.2134L13589.3757,-3355.2134L13589.3576,-3355.2134L13589.3464,-3355.2119L13589.3277,-3355.2019L13589.3153,-3355.1978L13589.2959,-3355.1941L13589.2791,-3355.1931L13589.2704,-3355.1983L13589.261,-3355.2066L13589.2442,-3355.2233L13589.24,-3355.2246L13589.2097,-3355.2246L13589.1934,-3355.2165L13589.1685,-3355.1914L13589.1667,-3355.1898L13589.1629,-3355.1862L13589.1516,-3355.1867L13589.146,-3355.1899L13589.1367,-3355.205L13589.1236,-3355.2087L13589.1049,-3355.2071L13589.0943,-3355.2081L13589.0481,-3355.2246L13588.949,-3355.2246L13588.9346,-3355.2228L13588.9226,-3355.2246L13588.695,-3355.2246L13588.6515,-3355.2019L13588.6163,-3355.1784L13588.5759,-3355.1435L13588.5652,-3355.1266L13588.55,-3355.1182L13588.5284,-3355.1146L13588.4997,-3355.1067L13588.4781,-3355.0947L13588.4464,-3355.0712L13588.4418,-3355.068L13588.4335,-3355.0621L13588.4198,-3355.0616L13588.3795,-3355.0634L13588.3428,-3355.0627L13588.3377,-3355.0634L13588.3399,-3355.0718L13588.3478,-3355.0814L13588.3608,-3355.1104L13588.3557,-3355.1336L13588.3499,-3355.2017L13588.3528,-3355.2156L13588.3605,-3355.2246Z"/>
<path content="和歌山県,,東牟婁郡,那智勝浦町,,30421" xlink:title="和歌山県" d="M13590.0516,-3354.5355L13590.0522,-3354.5342L13590.0541,-3354.5342L13590.0557,-3354.5346L13590.0573,-3354.534L13590.0587,-3354.5325L13590.0604,-3354.5327L13590.0618,-3354.5325L13590.0633,-3354.5312L13590.0655,-3354.5305L13590.066,-3354.5289L13590.066,-3354.5257L13590.0682,-3354.5244L13590.0686,-3354.5236L13590.0686,-3354.5219L13590.0683,-3354.5207L13590.066,-3354.5204L13590.0614,-3354.5185L13590.0587,-3354.5188L13590.0558,-3354.5207L13590.0534,-3354.5229L13590.0526,-3354.523L13590.0496,-3354.521L13590.0487,-3354.5207L13590.0468,-3354.5221L13590.0453,-3354.5249L13590.0428,-3354.5276L13590.0422,-3354.5311L13590.0395,-3354.5323L13590.0376,-3354.5328L13590.0351,-3354.5331L13590.034,-3354.5337L13590.0343,-3354.5348L13590.035,-3354.5362L13590.0376,-3354.5374L13590.0426,-3354.5388L13590.0458,-3354.5391L13590.0488,-3354.5381L13590.051,-3354.5368L13590.0516,-3354.5355Z"/>
<path content="和歌山県,,東牟婁郡,那智勝浦町,,30421" xlink:title="和歌山県" d="M13590.0299,-3354.5268L13590.032,-3354.5262L13590.0337,-3354.5268L13590.0352,-3354.5276L13590.036,-3354.5271L13590.0371,-3354.5262L13590.0383,-3354.5246L13590.04,-3354.5231L13590.0409,-3354.5218L13590.0416,-3354.5195L13590.0417,-3354.5179L13590.0428,-3354.5163L13590.0433,-3354.5144L13590.044,-3354.5136L13590.0374,-3354.5136L13590.0317,-3354.5135L13590.0287,-3354.5135L13590.027,-3354.5142L13590.024,-3354.5149L13590.0218,-3354.516L13590.0192,-3354.5175L13590.0177,-3354.5193L13590.0163,-3354.5216L13590.0157,-3354.5241L13590.0168,-3354.5279L13590.0196,-3354.5311L13590.0214,-3354.5332L13590.027,-3354.5332L13590.0299,-3354.5312L13590.0299,-3354.5268Z"/>
<path content="和歌山県,,東牟婁郡,那智勝浦町,,30421" xlink:title="和歌山県" d="M13590.0737,-3354.4878L13590.0708,-3354.4877L13590.068,-3354.4895L13590.066,-3354.4923L13590.0645,-3354.4951L13590.0614,-3354.5014L13590.0599,-3354.504L13590.0619,-3354.5057L13590.0643,-3354.5081L13590.0672,-3354.5081L13590.0703,-3354.5079L13590.0746,-3354.5049L13590.0788,-3354.5023L13590.0811,-3354.4977L13590.0796,-3354.4958L13590.0796,-3354.494L13590.0802,-3354.4925L13590.0803,-3354.4909L13590.0792,-3354.4892L13590.0773,-3354.4884L13590.0737,-3354.4878Z"/>
<path content="和歌山県,,東牟婁郡,那智勝浦町,,30421" xlink:title="和歌山県" d="M13590.0879,-3354.4007L13590.0859,-3354.4025L13590.0842,-3354.4056L13590.0828,-3354.4079L13590.0804,-3354.4093L13590.0796,-3354.4124L13590.081,-3354.4154L13590.0836,-3354.4164L13590.0865,-3354.4164L13590.0879,-3354.4163Z"/>
<path content="和歌山県,,東牟婁郡,那智勝浦町,,30421" xlink:title="和歌山県" d="M13590.08,-3354.4431L13590.0711,-3354.4425L13590.0671,-3354.4426L13590.0663,-3354.4438L13590.0663,-3354.4463L13590.0669,-3354.4486L13590.0692,-3354.451L13590.0712,-3354.452L13590.0708,-3354.4548L13590.0693,-3354.4563L13590.069,-3354.4574L13590.0717,-3354.4583L13590.0744,-3354.4583L13590.0766,-3354.4569L13590.0788,-3354.4542L13590.0807,-3354.4513L13590.0824,-3354.451L13590.0836,-3354.45L13590.085,-3354.4483L13590.0855,-3354.4463L13590.0826,-3354.4445L13590.08,-3354.4431Z"/>
<path content="和歌山県,,東牟婁郡,那智勝浦町,,30421" xlink:title="和歌山県" d="M13590.0571,-3354.4981L13590.0604,-3354.4923L13590.0576,-3354.4914L13590.0567,-3354.4924L13590.0548,-3354.494L13590.0525,-3354.4954L13590.0505,-3354.4958L13590.0491,-3354.4958L13590.0468,-3354.4985L13590.0467,-3354.4993L13590.0497,-3354.5006L13590.0529,-3354.5015L13590.0556,-3354.5004L13590.0571,-3354.4981Z"/>
<path content="和歌山県,,東牟婁郡,那智勝浦町,,30421" xlink:title="和歌山県" d="M13590.0746,-3354.5123L13590.0735,-3354.5121L13590.0687,-3354.5134L13590.066,-3354.5136L13590.0638,-3354.5147L13590.0646,-3354.5168L13590.0675,-3354.5178L13590.0702,-3354.5185L13590.0723,-3354.5184L13590.074,-3354.5173L13590.0753,-3354.5147L13590.0761,-3354.5132L13590.0746,-3354.5123Z"/>
<path content="和歌山県,,東牟婁郡,那智勝浦町,,30421" xlink:title="和歌山県" d="M13590.0879,-3354.459L13590.0864,-3354.46L13590.086,-3354.4611L13590.087,-3354.4621L13590.0879,-3354.4621Z"/>
<path content="和歌山県,,東牟婁郡,那智勝浦町,,30421" xlink:title="和歌山県" d="M13590.0591,-3354.479L13590.057,-3354.479L13590.0548,-3354.4801L13590.0543,-3354.4839L13590.054,-3354.4861L13590.0553,-3354.4864L13590.0576,-3354.4848L13590.0598,-3354.4832L13590.0609,-3354.4818L13590.0618,-3354.4808L13590.0618,-3354.4801L13590.0608,-3354.4796L13590.0591,-3354.479Z"/>
<path content="和歌山県,,東牟婁郡,串本町,,30428" xlink:title="和歌山県" d="M13587.8906,-3353.0273L13587.8906,-3355.2246L13588.3605,-3355.2246L13588.3528,-3355.2156L13588.3499,-3355.2017L13588.3557,-3355.1336L13588.3608,-3355.1104L13588.3478,-3355.0814L13588.3399,-3355.0718L13588.3377,-3355.0634L13588.3428,-3355.0627L13588.3795,-3355.0634L13588.4198,-3355.0616L13588.4335,-3355.0621L13588.4418,-3355.068L13588.4464,-3355.0712L13588.4781,-3355.0947L13588.4997,-3355.1067L13588.5284,-3355.1146L13588.55,-3355.1182L13588.5652,-3355.1266L13588.5759,-3355.1435L13588.6163,-3355.1784L13588.6515,-3355.2019L13588.695,-3355.2246L13588.9226,-3355.2246L13588.9346,-3355.2228L13588.949,-3355.2246L13589.0481,-3355.2246L13589.0943,-3355.2081L13589.1049,-3355.2071L13589.1236,-3355.2087L13589.1367,-3355.205L13589.146,-3355.1899L13589.1516,-3355.1867L13589.1629,-3355.1862L13589.1667,-3355.1898L13589.1685,-3355.1914L13589.1934,-3355.2165L13589.2097,-3355.2246L13589.24,-3355.2246L13589.2442,-3355.2233L13589.261,-3355.2066L13589.2704,-3355.1983L13589.2791,-3355.1931L13589.2959,-3355.1941L13589.3153,-3355.1978L13589.3277,-3355.2019L13589.3464,-3355.2119L13589.3576,-3355.2134L13589.3757,-3355.2134L13589.3763,-3355.2134L13589.4013,-3355.2129L13589.4106,-3355.2145L13589.4175,-3355.2223L13589.4187,-3355.2246L13589.4545,-3355.2246L13589.4545,-3355.2067L13589.4551,-3355.1832L13589.4583,-3355.132L13589.4657,-3355.1096L13589.4866,-3355.0436L13589.5021,-3355.0134L13589.5148,-3355L13589.5165,-3354.9982L13589.5332,-3354.9871L13589.5544,-3354.9819L13589.5712,-3354.9761L13589.5861,-3354.9678L13589.593,-3354.9558L13589.5818,-3354.9245L13589.5761,-3354.9021L13589.5749,-3354.8973L13589.6032,-3354.8481L13589.6219,-3354.8225L13589.6331,-3354.8121L13589.6561,-3354.8105L13589.6711,-3354.8089L13589.6854,-3354.8032L13589.7023,-3354.7943L13589.736,-3354.7629L13589.751,-3354.741L13589.7703,-3354.7316L13589.7996,-3354.7191L13589.8071,-3354.7128L13589.8127,-3354.6862L13589.8186,-3354.674L13589.8285,-3354.6651L13589.8497,-3354.6578L13589.8815,-3354.6516L13589.8977,-3354.6484L13589.9052,-3354.639L13589.9214,-3354.6061L13589.9128,-3354.6048L13589.9071,-3354.6035L13589.9009,-3354.6015L13589.8926,-3354.5976L13589.8867,-3354.5939L13589.8843,-3354.5911L13589.8839,-3354.5887L13589.8849,-3354.5848L13589.8865,-3354.5801L13589.8837,-3354.5703L13589.8821,-3354.5587L13589.8821,-3354.5454L13589.8832,-3354.5321L13589.8824,-3354.5265L13589.8763,-3354.5204L13589.8756,-3354.5162L13589.8781,-3354.5106L13589.8841,-3354.5077L13589.8855,-3354.5042L13589.8859,-3354.5004L13589.8816,-3354.4971L13589.8727,-3354.4948L13589.8611,-3354.4941L13589.8566,-3354.4915L13589.8429,-3354.4893L13589.8265,-3354.4889L13589.8185,-3354.4904L13589.8092,-3354.5003L13589.8042,-3354.5085L13589.8024,-3354.5165L13589.8008,-3354.5193L13589.7977,-3354.5202L13589.7927,-3354.5197L13589.7917,-3354.5183L13589.7915,-3354.5106L13589.7941,-3354.5023L13589.7925,-3354.5011L13589.7891,-3354.5006L13589.7839,-3354.5031L13589.7784,-3354.5051L13589.7763,-3354.5088L13589.773,-3354.5128L13589.7715,-3354.5135L13589.7566,-3354.5095L13589.7503,-3354.5098L13589.7448,-3354.5135L13589.7401,-3354.5158L13589.7376,-3354.5187L13589.7371,-3354.5211L13589.7359,-3354.5233L13589.7338,-3354.5246L13589.7274,-3354.5253L13589.7214,-3354.5251L13589.71,-3354.5224L13589.7032,-3354.5204L13589.6952,-3354.5166L13589.6892,-3354.5126L13589.6881,-3354.5108L13589.6885,-3354.509L13589.691,-3354.5074L13589.6924,-3354.5057L13589.6949,-3354.5001L13589.6992,-3354.4911L13589.7049,-3354.4832L13589.7051,-3354.4776L13589.7037,-3354.4758L13589.697,-3354.4718L13589.6915,-3354.4737L13589.6807,-3354.4878L13589.6779,-3354.4894L13589.6751,-3354.4879L13589.6758,-3354.4848L13589.6849,-3354.47L13589.6847,-3354.4666L13589.6807,-3354.4636L13589.677,-3354.4638L13589.6658,-3354.4717L13589.6622,-3354.4726L13589.6607,-3354.4708L13589.6613,-3354.467L13589.6656,-3354.4613L13589.6659,-3354.4579L13589.6626,-3354.4536L13589.6569,-3354.4504L13589.6478,-3354.4476L13589.6428,-3354.4468L13589.6367,-3354.4486L13589.6315,-3354.4518L13589.6261,-3354.452L13589.6211,-3354.4493L13589.6147,-3354.4459L13589.6105,-3354.4414L13589.6058,-3354.4361L13589.6039,-3354.4324L13589.6045,-3354.4285L13589.6101,-3354.4237L13589.6109,-3354.4209L13589.6096,-3354.4192L13589.6051,-3354.4204L13589.6024,-3354.4227L13589.5957,-3354.4258L13589.5915,-3354.4245L13589.5866,-3354.422L13589.5832,-3354.419L13589.577,-3354.4134L13589.5741,-3354.4083L13589.574,-3354.4014L13589.5757,-3354.3953L13589.5782,-3354.3925L13589.5798,-3354.3911L13589.5857,-3354.3866L13589.5882,-3354.3852L13589.5941,-3354.3852L13589.5994,-3354.3853L13589.6047,-3354.3855L13589.6104,-3354.3836L13589.612,-3354.3793L13589.6108,-3354.3757L13589.61,-3354.3743L13589.6039,-3354.3706L13589.5929,-3354.3619L13589.59,-3354.3569L13589.592,-3354.3472L13589.5911,-3354.343L13589.5877,-3354.3383L13589.5865,-3354.3337L13589.5858,-3354.3299L13589.5908,-3354.3227L13589.5937,-3354.3196L13589.5921,-3354.3178L13589.5844,-3354.3151L13589.5807,-3354.3154L13589.5738,-3354.3152L13589.563,-3354.3166L13589.5591,-3354.3221L13589.557,-3354.321L13589.5545,-3354.3149L13589.556,-3354.308L13589.5583,-3354.2993L13589.5546,-3354.295L13589.5481,-3354.2903L13589.5374,-3354.2904L13589.5321,-3354.2885L13589.5289,-3354.2845L13589.5251,-3354.2837L13589.5236,-3354.2854L13589.5215,-3354.2902L13589.5194,-3354.2902L13589.5186,-3354.286L13589.5177,-3354.2814L13589.5122,-3354.2781L13589.5078,-3354.2804L13589.5051,-3354.2848L13589.4997,-3354.2889L13589.4918,-3354.2903L13589.4743,-3354.2839L13589.4657,-3354.2777L13589.4593,-3354.2709L13589.4537,-3354.2686L13589.4436,-3354.2661L13589.433,-3354.2588L13589.4239,-3354.2568L13589.4147,-3354.2575L13589.4075,-3354.2562L13589.4023,-3354.2527L13589.3975,-3354.2481L13589.3946,-3354.242L13589.3953,-3354.239L13589.3984,-3354.2364L13589.4016,-3354.2308L13589.4007,-3354.2151L13589.3989,-3354.2077L13589.3939,-3354.2037L13589.3874,-3354.2003L13589.3796,-3354.1988L13589.3758,-3354.2007L13589.3746,-3354.2074L13589.3728,-3354.2137L13589.3734,-3354.2175L13589.3674,-3354.218L13589.3632,-3354.2145L13589.3562,-3354.2092L13589.3552,-3354.2018L13589.3543,-3354.1939L13589.3476,-3354.1905L13589.3408,-3354.1817L13589.3392,-3354.1782L13589.343,-3354.1763L13589.3554,-3354.175L13589.3624,-3354.1738L13589.3671,-3354.1708L13589.3688,-3354.1667L13589.3705,-3354.1625L13589.3721,-3354.1542L13589.37,-3354.1489L13589.3637,-3354.1438L13589.3611,-3354.1406L13589.3617,-3354.1371L13589.3644,-3354.1365L13589.3669,-3354.1324L13589.37,-3354.1234L13589.3722,-3354.1158L13589.3765,-3354.1054L13589.3772,-3354.0877L13589.3756,-3354.075L13589.3669,-3354.0684L13589.3635,-3354.0655L13589.3594,-3354.0627L13589.3576,-3354.0591L13589.358,-3354.0556L13589.3619,-3354.0516L13589.3689,-3354.0482L13589.3765,-3354.0418L13589.3822,-3354.0347L13589.3839,-3354.0235L13589.3841,-3354.0134L13589.3842,-3354.0009L13589.3834,-3353.9958L13589.3829,-3353.9928L13589.3761,-3353.9867L13589.3708,-3353.9853L13589.3707,-3353.9853L13589.3706,-3353.9853L13589.3647,-3353.9891L13589.3622,-3353.9966L13589.3602,-3354.0073L13589.3609,-3354.031L13589.3558,-3354.0343L13589.3482,-3354.0243L13589.3485,-3354.0055L13589.3473,-3353.9886L13589.3479,-3353.9804L13589.3492,-3353.9757L13589.3518,-3353.9739L13589.3526,-3353.9722L13589.3546,-3353.9712L13589.3608,-3353.9681L13589.364,-3353.9619L13589.3656,-3353.9578L13589.3662,-3353.9466L13589.3629,-3353.9354L13589.3598,-3353.928L13589.3527,-3353.9229L13589.3452,-3353.9219L13589.3426,-3353.925L13589.3427,-3353.9292L13589.346,-3353.939L13589.3506,-3353.9444L13589.3495,-3353.9454L13589.3427,-3353.948L13589.3351,-3353.9499L13589.3322,-3353.9495L13589.3301,-3353.9483L13589.3287,-3353.9465L13589.3273,-3353.9423L13589.3263,-3353.9395L13589.3214,-3353.9381L13589.3143,-3353.9376L13589.3077,-3353.9389L13589.3018,-3353.943L13589.2999,-3353.9473L13589.2975,-3353.9531L13589.2868,-3353.9578L13589.2711,-3353.9589L13589.2569,-3353.9624L13589.2459,-3353.9687L13589.2339,-3353.973L13589.2114,-3353.9774L13589.1993,-3353.9782L13589.1843,-3353.979L13589.1669,-3353.9737L13589.1667,-3353.9737L13589.1473,-3353.9757L13589.1303,-3353.9789L13589.1024,-3353.9862L13589.0963,-3353.9893L13589.0912,-3353.9935L13589.0837,-3354.0046L13589.0801,-3354.0076L13589.0688,-3354.0149L13589.0613,-3354.0195L13589.0527,-3354.0256L13589.0454,-3354.0295L13589.038,-3354.0292L13589.0316,-3354.0272L13589.0298,-3354.0267L13589.0263,-3354.0252L13589.0204,-3354.0196L13589.0141,-3354.0119L13589.0079,-3354.0049L13589.0022,-3353.9995L13588.9968,-3353.9942L13588.9889,-3353.9929L13588.9828,-3353.9904L13588.9772,-3353.9889L13588.9722,-3353.9857L13588.9677,-3353.9845L13588.963,-3353.9845L13588.9577,-3353.9818L13588.9496,-3353.9742L13588.943,-3353.9738L13588.9388,-3353.9769L13588.9347,-3353.9798L13588.9326,-3353.9819L13588.9288,-3353.9846L13588.9255,-3353.9869L13588.9223,-3353.9891L13588.9178,-3353.9907L13588.9127,-3353.9907L13588.9093,-3353.9906L13588.9051,-3353.9899L13588.8998,-3353.9886L13588.8975,-3353.9887L13588.8952,-3353.9884L13588.8895,-3353.9879L13588.8866,-3353.9872L13588.8833,-3353.987L13588.8807,-3353.9887L13588.879,-3353.9923L13588.8748,-3353.9929L13588.8698,-3353.9912L13588.8685,-3353.9905L13588.8628,-3353.9896L13588.8559,-3353.9877L13588.8481,-3353.9861L13588.8428,-3353.9848L13588.8336,-3353.9866L13588.8181,-3353.9917L13588.8125,-3353.9927L13588.8029,-3353.9911L13588.7978,-3353.9878L13588.7938,-3353.9849L13588.7846,-3353.9799L13588.7757,-3353.9756L13588.7683,-3353.9712L13588.7604,-3353.9683L13588.7503,-3353.9642L13588.7436,-3353.9594L13588.7358,-3353.9548L13588.7321,-3353.9503L13588.7245,-3353.9397L13588.7218,-3353.9349L13588.7211,-3353.9316L13588.7211,-3353.9287L13588.7229,-3353.9253L13588.7241,-3353.9212L13588.7267,-3353.9187L13588.7291,-3353.9173L13588.7411,-3353.9141L13588.7518,-3353.9075L13588.7589,-3353.9068L13588.761,-3353.9058L13588.7611,-3353.9011L13588.7597,-3353.899L13588.7579,-3353.8989L13588.7523,-3353.9014L13588.7379,-3353.9033L13588.7331,-3353.9052L13588.732,-3353.9068L13588.7307,-3353.9084L13588.7278,-3353.9096L13588.7251,-3353.9095L13588.7237,-3353.9093L13588.7227,-3353.9091L13588.721,-3353.9088L13588.7195,-3353.9075L13588.7184,-3353.9062L13588.7175,-3353.9047L13588.7164,-3353.903L13588.7162,-3353.9005L13588.7169,-3353.8978L13588.7179,-3353.8965L13588.7208,-3353.8956L13588.7254,-3353.895L13588.7295,-3353.8945L13588.7354,-3353.8926L13588.7467,-3353.8905L13588.7543,-3353.8862L13588.7599,-3353.8839L13588.7697,-3353.8818L13588.7878,-3353.8812L13588.7917,-3353.8797L13588.7928,-3353.8783L13588.7901,-3353.8759L13588.7748,-3353.8678L13588.7726,-3353.8638L13588.7723,-3353.8617L13588.7733,-3353.8596L13588.7749,-3353.8597L13588.7806,-3353.8634L13588.7826,-3353.8625L13588.7836,-3353.8597L13588.781,-3353.8564L13588.7325,-3353.8319L13588.7197,-3353.8278L13588.7163,-3353.8213L13588.716,-3353.8127L13588.7229,-3353.7967L13588.7455,-3353.7779L13588.756,-3353.7648L13588.7546,-3353.7456L13588.7461,-3353.7346L13588.7401,-3353.7216L13588.7404,-3353.7038L13588.7402,-3353.6909L13588.7422,-3353.6849L13588.7395,-3353.68L13588.7395,-3353.6772L13588.7423,-3353.6747L13588.7516,-3353.6717L13588.7523,-3353.6707L13588.7501,-3353.6676L13588.7392,-3353.6614L13588.7314,-3353.6607L13588.7309,-3353.6616L13588.7324,-3353.6652L13588.7314,-3353.667L13588.7211,-3353.6661L13588.7134,-3353.662L13588.7115,-3353.6591L13588.7121,-3353.6553L13588.7165,-3353.6526L13588.7166,-3353.6502L13588.7036,-3353.6391L13588.6963,-3353.6338L13588.6892,-3353.6335L13588.676,-3353.6422L13588.6703,-3353.6391L13588.6705,-3353.6362L13588.6703,-3353.632L13588.6831,-3353.6233L13588.687,-3353.6149L13588.6857,-3353.6092L13588.6824,-3353.6022L13588.6764,-3353.5964L13588.6674,-3353.5898L13588.6581,-3353.5841L13588.6569,-3353.5817L13588.6585,-3353.5809L13588.6605,-3353.5815L13588.662,-3353.5808L13588.6618,-3353.5792L13588.6601,-3353.5766L13588.6598,-3353.5747L13588.6571,-3353.5718L13588.6553,-3353.5714L13588.6532,-3353.573L13588.6521,-3353.5755L13588.6511,-3353.5756L13588.6474,-3353.5727L13588.641,-3353.5684L13588.6351,-3353.566L13588.6275,-3353.566L13588.6248,-3353.5666L13588.6207,-3353.57L13588.6149,-3353.5724L13588.6059,-3353.5743L13588.5924,-3353.5794L13588.5816,-3353.5824L13588.5728,-3353.5826L13588.563,-3353.5796L13588.5547,-3353.5751L13588.5474,-3353.5759L13588.5401,-3353.5775L13588.5316,-3353.5804L13588.5179,-3353.5792L13588.5077,-3353.5818L13588.5018,-3353.5823L13588.4969,-3353.5799L13588.4911,-3353.5751L13588.4839,-3353.572L13588.4753,-3353.5697L13588.464,-3353.5734L13588.457,-3353.5778L13588.4556,-3353.5798L13588.4534,-3353.5822L13588.4487,-3353.5868L13588.4438,-3353.5903L13588.4366,-3353.597L13588.4352,-3353.5995L13588.4282,-3353.602L13588.4191,-3353.6069L13588.4106,-3353.6069L13588.3984,-3353.6059L13588.3952,-3353.6037L13588.3957,-3353.6018L13588.3968,-3353.6003L13588.3969,-3353.5964L13588.3959,-3353.5949L13588.3956,-3353.5917L13588.396,-3353.5887L13588.3942,-3353.5871L13588.3913,-3353.5857L13588.3891,-3353.585L13588.383,-3353.5864L13588.3776,-3353.5877L13588.3726,-3353.5897L13588.3674,-3353.5941L13588.3656,-3353.5948L13588.3602,-3353.5946L13588.357,-3353.5931L13588.3534,-3353.5904L13588.3471,-3353.5879L13588.3398,-3353.5849L13588.3333,-3353.5815L13588.3322,-3353.5809L13588.3271,-3353.5775L13588.3206,-3353.5749L13588.317,-3353.5729L13588.3126,-3353.5724L13588.3102,-3353.5717L13588.3076,-3353.5693L13588.3052,-3353.5681L13588.296,-3353.5639L13588.2896,-3353.564L13588.2826,-3353.5594L13588.2795,-3353.559L13588.2757,-3353.5608L13588.2754,-3353.5625L13588.2757,-3353.5641L13588.2764,-3353.5686L13588.2753,-3353.5707L13588.2728,-3353.5719L13588.267,-3353.5716L13588.2647,-3353.5699L13588.2602,-3353.5669L13588.255,-3353.5668L13588.2516,-3353.5693L13588.2455,-3353.573L13588.2396,-3353.5754L13588.2347,-3353.5758L13588.2263,-3353.5751L13588.219,-3353.574L13588.2065,-3353.5701L13588.2025,-3353.5669L13588.1988,-3353.5624L13588.1955,-3353.5575L13588.1929,-3353.5508L13588.1921,-3353.5464L13588.1908,-3353.5408L13588.1888,-3353.5356L13588.1855,-3353.53L13588.1811,-3353.526L13588.1678,-3353.5231L13588.1661,-3353.5229L13588.1644,-3353.5224L13588.1631,-3353.522L13588.1614,-3353.5216L13588.1587,-3353.5214L13588.1556,-3353.5213L13588.1524,-3353.5207L13588.1502,-3353.5197L13588.1477,-3353.5178L13588.1451,-3353.5144L13588.1413,-3353.5122L13588.138,-3353.5083L13588.1345,-3353.5041L13588.1325,-3353.4996L13588.1292,-3353.493L13588.1305,-3353.4883L13588.1353,-3353.4869L13588.1393,-3353.4774L13588.1405,-3353.4705L13588.1435,-3353.4653L13588.1458,-3353.4614L13588.148,-3353.4555L13588.1508,-3353.4488L13588.1592,-3353.4349L13588.1655,-3353.4109L13588.1671,-3353.4007L13588.1664,-3353.397L13588.1622,-3353.3965L13588.1592,-3353.3984L13588.1571,-3353.397L13588.1563,-3353.3941L13588.1594,-3353.3901L13588.1709,-3353.3888L13588.1835,-3353.3841L13588.1933,-3353.3741L13588.1957,-3353.3695L13588.1976,-3353.3638L13588.1995,-3353.3557L13588.1998,-3353.3509L13588.1972,-3353.3477L13588.1938,-3353.3455L13588.1928,-3353.3456L13588.1918,-3353.3465L13588.1897,-3353.3491L13588.1885,-3353.3527L13588.1869,-3353.3536L13588.1853,-3353.3542L13588.1848,-3353.3533L13588.1842,-3353.3521L13588.1854,-3353.3509L13588.187,-3353.3485L13588.1886,-3353.3458L13588.1878,-3353.3446L13588.1826,-3353.3451L13588.1808,-3353.3465L13588.1792,-3353.3465L13588.1782,-3353.3458L13588.1775,-3353.3445L13588.1758,-3353.3433L13588.168,-3353.3409L13588.1586,-3353.3424L13588.142,-3353.3533L13588.133,-3353.3556L13588.1264,-3353.3562L13588.1234,-3353.3546L13588.1221,-3353.3484L13588.1257,-3353.3427L13588.1248,-3353.339L13588.1194,-3353.3371L13588.1117,-3353.3376L13588.1011,-3353.3359L13588.0987,-3353.3333L13588.0978,-3353.3307L13588.0958,-3353.3272L13588.0957,-3353.3241L13588.0957,-3353.3218L13588.0978,-3353.3189L13588.1005,-3353.3157L13588.1038,-3353.3114L13588.1056,-3353.3057L13588.1059,-3353.3009L13588.1083,-3353.2977L13588.1083,-3353.2962L13588.1058,-3353.2943L13588.1019,-3353.2943L13588.0975,-3353.2944L13588.095,-3353.2934L13588.095,-3353.2905L13588.0956,-3353.2887L13588.0969,-3353.2868L13588.098,-3353.2864L13588.1014,-3353.2868L13588.1061,-3353.2877L13588.1087,-3353.2877L13588.1098,-3353.2876L13588.1131,-3353.2864L13588.1139,-3353.2854L13588.1148,-3353.2831L13588.1159,-3353.2786L13588.1179,-3353.2691L13588.1176,-3353.2662L13588.1155,-3353.2615L13588.1154,-3353.2588L13588.1137,-3353.2568L13588.1091,-3353.2569L13588.1067,-3353.255L13588.103,-3353.2562L13588.1005,-3353.2577L13588.0979,-3353.2582L13588.0965,-3353.2575L13588.0937,-3353.2537L13588.0928,-3353.2521L13588.0911,-3353.2475L13588.0912,-3353.245L13588.0919,-3353.2434L13588.0927,-3353.2413L13588.0933,-3353.2372L13588.091,-3353.2343L13588.089,-3353.2342L13588.0862,-3353.2338L13588.0851,-3353.2312L13588.0861,-3353.2271L13588.0865,-3353.2238L13588.0877,-3353.2182L13588.0868,-3353.213L13588.0847,-3353.2085L13588.0826,-3353.206L13588.0784,-3353.2039L13588.0693,-3353.2008L13588.0597,-3353.201L13588.0534,-3353.2009L13588.0509,-3353.201L13588.0429,-3353.2018L13588.0386,-3353.1993L13588.0355,-3353.1979L13588.0375,-3353.1922L13588.042,-3353.187L13588.0438,-3353.1846L13588.0501,-3353.1758L13588.0508,-3353.1725L13588.0449,-3353.1672L13588.0394,-3353.1661L13588.0325,-3353.1664L13588.0247,-3353.1677L13588.0228,-3353.1666L13588.0202,-3353.1629L13588.0188,-3353.1584L13588.0208,-3353.1519L13588.0231,-3353.1494L13588.0306,-3353.1354L13588.0383,-3353.1229L13588.0418,-3353.1141L13588.0384,-3353.106L13588.0358,-3353.0948L13588.032,-3353.0922L13588.0265,-3353.0936L13588.0211,-3353.0937L13588.0183,-3353.0923L13588.017,-3353.0898L13588.017,-3353.0845L13588.0182,-3353.081L13588.0163,-3353.0743L13588.0123,-3353.0694L13588.0077,-3353.0675L13588.0016,-3353.0676L13587.9982,-3353.0679L13587.9955,-3353.0743L13587.9922,-3353.0824L13587.9897,-3353.0824L13587.9894,-3353.081L13587.99,-3353.0764L13587.9915,-3353.0711L13587.9908,-3353.0672L13587.988,-3353.0577L13587.9844,-3353.0524L13587.9793,-3353.0454L13587.9743,-3353.045L13587.9724,-3353.0467L13587.97,-3353.0537L13587.9683,-3353.0598L13587.9661,-3353.0656L13587.9602,-3353.0747L13587.9554,-3353.0819L13587.9549,-3353.0825L13587.9528,-3353.0824L13587.9526,-3353.0804L13587.9526,-3353.0755L13587.9559,-3353.0633L13587.9588,-3353.0539L13587.9577,-3353.0482L13587.9563,-3353.0453L13587.9507,-3353.0437L13587.9412,-3353.0388L13587.9395,-3353.0365L13587.9376,-3353.034L13587.934,-3353.0302L13587.93,-3353.0305L13587.9265,-3353.0367L13587.9265,-3353.0391L13587.9279,-3353.0409L13587.9277,-3353.0421L13587.9268,-3353.0422L13587.9247,-3353.0419L13587.9223,-3353.0421L13587.9189,-3353.0474L13587.9179,-3353.0482L13587.9165,-3353.0477L13587.9168,-3353.0435L13587.9186,-3353.0402L13587.9194,-3353.0369L13587.9211,-3353.0347L13587.9225,-3353.0317L13587.922,-3353.03L13587.9199,-3353.0299L13587.913,-3353.0302L13587.8962,-3353.0373L13587.8906,-3353.04L13587.8906,-3353.028L13587.8911,-3353.028L13587.8935,-3353.0285L13587.8955,-3353.0284L13587.8971,-3353.0273Z"/>
<path content="和歌山県,,東牟婁郡,串本町,,30428" xlink:title="和歌山県" d="M13588.7767,-3353.8285L13588.7802,-3353.8258L13588.7861,-3353.826L13588.7906,-3353.8241L13588.7948,-3353.8207L13588.7996,-3353.8184L13588.8001,-3353.8139L13588.8002,-3353.8114L13588.7998,-3353.8078L13588.7962,-3353.8052L13588.7854,-3353.7998L13588.7789,-3353.7924L13588.7712,-3353.7855L13588.7598,-3353.7815L13588.7496,-3353.7807L13588.7445,-3353.7835L13588.7366,-3353.7921L13588.7372,-3353.796L13588.74,-3353.7989L13588.7504,-3353.8047L13588.7542,-3353.8116L13588.7532,-3353.8137L13588.7505,-3353.8129L13588.746,-3353.8102L13588.7427,-3353.8058L13588.7381,-3353.802L13588.7314,-3353.8021L13588.7302,-3353.8049L13588.7298,-3353.8106L13588.7307,-3353.8166L13588.7344,-3353.8207L13588.7422,-3353.8246L13588.7535,-3353.8286L13588.762,-3353.8311L13588.7681,-3353.8313L13588.7767,-3353.8285Z"/>
<path content="和歌山県,,東牟婁郡,串本町,,30428" xlink:title="和歌山県" d="M13589.6958,-3354.3816L13589.6909,-3354.3785L13589.6863,-3354.3778L13589.6839,-3354.3806L13589.679,-3354.3801L13589.6729,-3354.3793L13589.6674,-3354.3793L13589.6638,-3354.3821L13589.6601,-3354.3847L13589.6571,-3354.3859L13589.6549,-3354.3885L13589.6549,-3354.3916L13589.6574,-3354.3951L13589.6595,-3354.3964L13589.6571,-3354.4002L13589.6577,-3354.4035L13589.6625,-3354.4048L13589.6625,-3354.4076L13589.6653,-3354.4099L13589.6677,-3354.4099L13589.6766,-3354.412L13589.6823,-3354.4135L13589.6845,-3354.4127L13589.6866,-3354.4115L13589.6878,-3354.4092L13589.6912,-3354.4035L13589.6958,-3354.3956L13589.7,-3354.39L13589.7022,-3354.3836L13589.6958,-3354.3816Z"/>
<path content="和歌山県,,東牟婁郡,串本町,,30428" xlink:title="和歌山県" d="M13589.361,-3353.9042L13589.3621,-3353.8993L13589.3625,-3353.893L13589.3578,-3353.8882L13589.3394,-3353.88L13589.3346,-3353.8808L13589.3313,-3353.8821L13589.3296,-3353.8834L13589.3298,-3353.8863L13589.3326,-3353.891L13589.3315,-3353.8931L13589.3283,-3353.8933L13589.3273,-3353.8961L13589.3292,-3353.8994L13589.3281,-3353.8997L13589.312,-3353.8923L13589.294,-3353.8816L13589.2911,-3353.8804L13589.2895,-3353.8821L13589.2913,-3353.8847L13589.3031,-3353.8926L13589.3218,-3353.9033L13589.3354,-3353.9099L13589.3447,-3353.9124L13589.3501,-3353.913L13589.3551,-3353.9107L13589.361,-3353.9042Z"/>
<path content="和歌山県,,東牟婁郡,串本町,,30428" xlink:title="和歌山県" d="M13589.7174,-3354.4137L13589.7204,-3354.4117L13589.7259,-3354.4074L13589.7299,-3354.4046L13589.7302,-3354.3997L13589.7314,-3354.3923L13589.7314,-3354.3849L13589.7293,-3354.3796L13589.7274,-3354.3757L13589.725,-3354.3765L13589.7223,-3354.3788L13589.7204,-3354.3788L13589.7186,-3354.3785L13589.7159,-3354.3816L13589.7149,-3354.3849L13589.7162,-3354.3867L13589.7131,-3354.3908L13589.7116,-3354.3913L13589.7107,-3354.3895L13589.7107,-3354.3864L13589.7085,-3354.3844L13589.7046,-3354.3928L13589.7012,-3354.3974L13589.6967,-3354.4028L13589.6939,-3354.4097L13589.6915,-3354.414L13589.6933,-3354.4168L13589.7015,-3354.4168L13589.7049,-3354.4158L13589.707,-3354.4135L13589.7092,-3354.4135L13589.7092,-3354.4166L13589.7085,-3354.4183L13589.7107,-3354.4183L13589.7134,-3354.4166L13589.7174,-3354.4137Z"/>
<path content="和歌山県,,東牟婁郡,串本町,,30428" xlink:title="和歌山県" d="M13589.8849,-3354.4881L13589.8833,-3354.486L13589.8791,-3354.4859L13589.8732,-3354.4871L13589.872,-3354.4867L13589.871,-3354.4856L13589.8731,-3354.4843L13589.879,-3354.4837L13589.8803,-3354.4813L13589.8787,-3354.4785L13589.8753,-3354.4763L13589.8599,-3354.4748L13589.8511,-3354.4749L13589.8487,-3354.4731L13589.8475,-3354.4706L13589.8419,-3354.4708L13589.8363,-3354.4741L13589.8335,-3354.4768L13589.8315,-3354.4799L13589.8313,-3354.4813L13589.8326,-3354.4845L13589.8357,-3354.4856L13589.8412,-3354.484L13589.8464,-3354.4852L13589.8644,-3354.49L13589.8739,-3354.4916L13589.8787,-3354.4921L13589.8846,-3354.4909L13589.8849,-3354.4881Z"/>
<path content="和歌山県,,東牟婁郡,串本町,,30428" xlink:title="和歌山県" d="M13589.3372,-3353.9138L13589.3147,-3353.9026L13589.3008,-3353.8968L13589.2974,-3353.897L13589.2969,-3353.8984L13589.2959,-3353.9008L13589.2945,-3353.9032L13589.2922,-3353.9035L13589.2929,-3353.9085L13589.297,-3353.909L13589.2996,-3353.9119L13589.2977,-3353.9126L13589.2928,-3353.9124L13589.2932,-3353.9138L13589.2983,-3353.9161L13589.304,-3353.9178L13589.3063,-3353.9214L13589.3102,-3353.9233L13589.3178,-3353.9222L13589.3239,-3353.9186L13589.3284,-3353.9174L13589.336,-3353.9163L13589.338,-3353.9153L13589.3372,-3353.9138Z"/>
<path content="和歌山県,,東牟婁郡,串本町,,30428" xlink:title="和歌山県" d="M13588.8084,-3353.5964L13588.8105,-3353.595L13588.8215,-3353.5997L13588.8318,-3353.6009L13588.8351,-3353.5998L13588.8372,-3353.5977L13588.8359,-3353.5953L13588.832,-3353.5925L13588.8244,-3353.5909L13588.8163,-3353.5878L13588.8094,-3353.5858L13588.8045,-3353.5852L13588.801,-3353.5877L13588.7972,-3353.586L13588.7924,-3353.5879L13588.7894,-3353.5918L13588.7882,-3353.5964L13588.7915,-3353.5998L13588.7964,-3353.6047L13588.8011,-3353.6067L13588.8076,-3353.6062L13588.8122,-3353.6062L13588.8174,-3353.6036L13588.8172,-3353.6029L13588.8091,-3353.5988L13588.8084,-3353.5964Z"/>
<path content="和歌山県,,東牟婁郡,串本町,,30428" xlink:title="和歌山県" d="M13589.5405,-3354.2748L13589.5421,-3354.2743L13589.5434,-3354.2743L13589.5447,-3354.274L13589.5469,-3354.2736L13589.5481,-3354.2721L13589.5488,-3354.2693L13589.5479,-3354.2669L13589.5462,-3354.2648L13589.5449,-3354.2632L13589.543,-3354.2613L13589.5406,-3354.2593L13589.5396,-3354.2583L13589.539,-3354.2561L13589.5382,-3354.2547L13589.5368,-3354.2532L13589.535,-3354.2517L13589.5333,-3354.2507L13589.5322,-3354.2498L13589.5322,-3354.2478L13589.5337,-3354.246L13589.5339,-3354.2448L13589.5338,-3354.2433L13589.5335,-3354.2416L13589.5321,-3354.2414L13589.5298,-3354.2429L13589.5282,-3354.244L13589.525,-3354.247L13589.5234,-3354.2492L13589.5228,-3354.2578L13589.5236,-3354.2588L13589.5258,-3354.2588L13589.5263,-3354.2596L13589.5258,-3354.2608L13589.5259,-3354.2623L13589.5258,-3354.2638L13589.5252,-3354.2651L13589.5237,-3354.2663L13589.5242,-3354.2678L13589.5321,-3354.2703L13589.5303,-3354.2733L13589.5285,-3354.273L13589.5262,-3354.2745L13589.5262,-3354.2764L13589.5277,-3354.278L13589.5301,-3354.2792L13589.5318,-3354.281L13589.5327,-3354.2822L13589.5339,-3354.2823L13589.5361,-3354.2817L13589.5365,-3354.2802L13589.5364,-3354.2788L13589.5375,-3354.2771L13589.5386,-3354.276L13589.5405,-3354.2748Z"/>
<path content="和歌山県,,東牟婁郡,串本町,,30428" xlink:title="和歌山県" d="M13588.832,-3353.577L13588.8372,-3353.5752L13588.8413,-3353.5776L13588.8491,-3353.581L13588.8516,-3353.5855L13588.8539,-3353.5865L13588.8566,-3353.5847L13588.858,-3353.5819L13588.8575,-3353.5784L13588.8533,-3353.5728L13588.8481,-3353.5676L13588.8386,-3353.5636L13588.8319,-3353.5647L13588.8218,-3353.5709L13588.8156,-3353.5752L13588.8155,-3353.5791L13588.8171,-3353.5829L13588.822,-3353.586L13588.826,-3353.5877L13588.8277,-3353.5873L13588.8278,-3353.5845L13588.8271,-3353.5824L13588.8277,-3353.5792L13588.832,-3353.577Z"/>
<path content="和歌山県,,東牟婁郡,串本町,,30428" xlink:title="和歌山県" d="M13588.2839,-3353.3212L13588.2908,-3353.3175L13588.294,-3353.3189L13588.2983,-3353.3181L13588.3026,-3353.3131L13588.3023,-3353.31L13588.2998,-3353.3089L13588.2999,-3353.3068L13588.3088,-3353.3004L13588.3139,-3353.2961L13588.3138,-3353.2925L13588.3166,-3353.289L13588.3158,-3353.2883L13588.3124,-3353.2894L13588.3093,-3353.288L13588.3032,-3353.2895L13588.2997,-3353.2928L13588.2955,-3353.2974L13588.2901,-3353.3014L13588.285,-3353.3053L13588.2834,-3353.3099L13588.282,-3353.3131L13588.2788,-3353.3181L13588.2804,-3353.3209L13588.2839,-3353.3212Z"/>
<path content="和歌山県,,東牟婁郡,串本町,,30428" xlink:title="和歌山県" d="M13588.7616,-3353.2024L13588.7557,-3353.2017L13588.7499,-3353.2064L13588.7486,-3353.2136L13588.7537,-3353.2219L13588.7626,-3353.2287L13588.7679,-3353.2262L13588.771,-3353.2232L13588.7733,-3353.2179L13588.775,-3353.2151L13588.775,-3353.2111L13588.7697,-3353.206L13588.7656,-3353.2028L13588.7616,-3353.2024Z"/>
<path content="和歌山県,,東牟婁郡,串本町,,30428" xlink:title="和歌山県" d="M13589.9506,-3354.3401L13589.9433,-3354.3388L13589.9364,-3354.3399L13589.9345,-3354.3449L13589.9338,-3354.3494L13589.9303,-3354.3547L13589.9281,-3354.3587L13589.9295,-3354.3626L13589.9346,-3354.3657L13589.935,-3354.3683L13589.9397,-3354.3689L13589.9425,-3354.3655L13589.9457,-3354.3603L13589.9478,-3354.3547L13589.9553,-3354.3485L13589.9554,-3354.3422L13589.9506,-3354.3401Z"/>
<path content="和歌山県,,東牟婁郡,串本町,,30428" xlink:title="和歌山県" d="M13588.4034,-3353.5547L13588.4012,-3353.5539L13588.3988,-3353.5544L13588.3968,-3353.5537L13588.3957,-3353.5512L13588.3957,-3353.5489L13588.3975,-3353.5474L13588.3996,-3353.5481L13588.4015,-3353.5482L13588.4036,-3353.5478L13588.4057,-3353.5465L13588.4064,-3353.5428L13588.4041,-3353.5402L13588.399,-3353.5377L13588.3949,-3353.536L13588.3901,-3353.5361L13588.3848,-3353.5383L13588.3791,-3353.5412L13588.3777,-3353.5438L13588.3766,-3353.5472L13588.3768,-3353.5496L13588.3798,-3353.5527L13588.3838,-3353.5545L13588.3887,-3353.554L13588.3925,-3353.5536L13588.3926,-3353.556L13588.3929,-3353.5591L13588.3963,-3353.5614L13588.3988,-3353.5605L13588.4023,-3353.5577L13588.4034,-3353.5566L13588.4034,-3353.5547Z"/>
<path content="和歌山県,,東牟婁郡,串本町,,30428" xlink:title="和歌山県" d="M13588.6999,-3353.4987L13588.7013,-3353.4977L13588.704,-3353.4977L13588.7054,-3353.4966L13588.7064,-3353.4941L13588.7076,-3353.4921L13588.7082,-3353.4906L13588.7082,-3353.4893L13588.7078,-3353.4874L13588.705,-3353.4869L13588.7021,-3353.4864L13588.7056,-3353.4851L13588.7068,-3353.4846L13588.707,-3353.4825L13588.7054,-3353.4815L13588.7035,-3353.48L13588.7019,-3353.48L13588.7009,-3353.4803L13588.7003,-3353.479L13588.6993,-3353.4776L13588.6977,-3353.476L13588.6959,-3353.4747L13588.6898,-3353.4747L13588.6866,-3353.477L13588.6848,-3353.4785L13588.6836,-3353.4831L13588.6858,-3353.4869L13588.6902,-3353.4927L13588.692,-3353.4929L13588.6927,-3353.4956L13588.6947,-3353.4987L13588.6979,-3353.5004L13588.6999,-3353.4987Z"/>
<path content="和歌山県,,東牟婁郡,串本町,,30428" xlink:title="和歌山県" d="M13589.3329,-3353.8268L13589.3273,-3353.8258L13589.3255,-3353.8291L13589.324,-3353.838L13589.3222,-3353.8445L13589.321,-3353.8455L13589.3187,-3353.8492L13589.3196,-3353.8525L13589.3225,-3353.8537L13589.3282,-3353.854L13589.3344,-3353.8515L13589.3383,-3353.8482L13589.3389,-3353.8438L13589.338,-3353.8418L13589.3371,-3353.84L13589.3371,-3353.8363L13589.3386,-3353.8343L13589.3392,-3353.8296L13589.3329,-3353.8268Z"/>
<path content="和歌山県,,東牟婁郡,串本町,,30428" xlink:title="和歌山県" d="M13588.2424,-3353.3527L13588.2426,-3353.3504L13588.2434,-3353.3481L13588.2442,-3353.3461L13588.2456,-3353.3441L13588.2448,-3353.3414L13588.2436,-3353.3394L13588.2366,-3353.3389L13588.2331,-3353.3411L13588.2305,-3353.3476L13588.2228,-3353.3481L13588.2216,-3353.3497L13588.2212,-3353.351L13588.2194,-3353.351L13588.2196,-3353.3569L13588.2214,-3353.3593L13588.2263,-3353.36L13588.2293,-3353.3612L13588.2307,-3353.3622L13588.2404,-3353.3598L13588.2422,-3353.3585L13588.2432,-3353.357L13588.241,-3353.3559L13588.2402,-3353.355L13588.2424,-3353.3527Z"/>
<path content="和歌山県,,東牟婁郡,串本町,,30428" xlink:title="和歌山県" d="M13588.0672,-3353.1142L13588.0632,-3353.1137L13588.0602,-3353.114L13588.0549,-3353.1161L13588.0527,-3353.1179L13588.0546,-3353.1187L13588.0554,-3353.1204L13588.0553,-3353.1214L13588.0527,-3353.1233L13588.05,-3353.1235L13588.0484,-3353.1254L13588.0486,-3353.1277L13588.0533,-3353.1311L13588.0612,-3353.1325L13588.0694,-3353.1325L13588.0742,-3353.1296L13588.0746,-3353.1263L13588.0737,-3353.1231L13588.0723,-3353.1191L13588.0706,-3353.1161L13588.0672,-3353.1142Z"/>
<path content="和歌山県,,東牟婁郡,串本町,,30428" xlink:title="和歌山県" d="M13588.7087,-3353.5614L13588.7094,-3353.5606L13588.71,-3353.5613L13588.7112,-3353.5623L13588.7129,-3353.5624L13588.7147,-3353.5633L13588.7161,-3353.5634L13588.7166,-3353.5619L13588.7168,-3353.561L13588.7191,-3353.5604L13588.7211,-3353.5601L13588.7193,-3353.5586L13588.7178,-3353.5575L13588.7165,-3353.556L13588.7162,-3353.5548L13588.7166,-3353.554L13588.7181,-3353.5542L13588.7198,-3353.554L13588.7197,-3353.5524L13588.717,-3353.5509L13588.7151,-3353.5505L13588.7123,-3353.5494L13588.7098,-3353.549L13588.7082,-3353.55L13588.7065,-3353.5517L13588.7042,-3353.5521L13588.7025,-3353.552L13588.7016,-3353.5519L13588.6991,-3353.553L13588.6974,-3353.5547L13588.6959,-3353.5559L13588.6935,-3353.5562L13588.6897,-3353.5562L13588.6888,-3353.5571L13588.6889,-3353.5583L13588.6896,-3353.5598L13588.6898,-3353.561L13588.69,-3353.5624L13588.6911,-3353.5639L13588.6927,-3353.5651L13588.6971,-3353.5656L13588.6997,-3353.5659L13588.7024,-3353.5659L13588.7049,-3353.5652L13588.7074,-3353.5638L13588.7086,-3353.5627L13588.7087,-3353.5614Z"/>
<path content="和歌山県,,東牟婁郡,串本町,,30428" xlink:title="和歌山県" d="M13588.5896,-3353.5263L13588.5835,-3353.5248L13588.5811,-3353.5271L13588.5807,-3353.5311L13588.5819,-3353.5337L13588.5864,-3353.5391L13588.5892,-3353.5419L13588.593,-3353.544L13588.5971,-3353.544L13588.5993,-3353.5417L13588.5999,-3353.5396L13588.5999,-3353.5346L13588.5987,-3353.5311L13588.5946,-3353.5281L13588.5896,-3353.5263Z"/>
<path content="和歌山県,,東牟婁郡,串本町,,30428" xlink:title="和歌山県" d="M13589.4859,-3354.2384L13589.4815,-3354.2355L13589.4768,-3354.2362L13589.4745,-3354.2385L13589.4739,-3354.2416L13589.4762,-3354.2448L13589.4798,-3354.2477L13589.4849,-3354.2516L13589.488,-3354.2552L13589.4924,-3354.2527L13589.4955,-3354.2494L13589.4959,-3354.2457L13589.493,-3354.2431L13589.4859,-3354.2384Z"/>
<path content="和歌山県,,東牟婁郡,串本町,,30428" xlink:title="和歌山県" d="M13588.6114,-3353.4641L13588.6148,-3353.464L13588.6178,-3353.464L13588.6201,-3353.4633L13588.6217,-3353.4615L13588.6247,-3353.461L13588.6259,-3353.461L13588.6273,-3353.4597L13588.6273,-3353.4578L13588.6275,-3353.4555L13588.6275,-3353.4535L13588.6259,-3353.4515L13588.616,-3353.4514L13588.6106,-3353.4517L13588.6075,-3353.4553L13588.6061,-3353.4583L13588.6061,-3353.4607L13588.6063,-3353.4633L13588.6085,-3353.4643L13588.6114,-3353.4641Z"/>
<path content="和歌山県,,東牟婁郡,串本町,,30428" xlink:title="和歌山県" d="M13589.5871,-3353.7455L13589.5826,-3353.7421L13589.5805,-3353.7434L13589.579,-3353.7468L13589.5838,-3353.7543L13589.5897,-3353.7589L13589.594,-3353.7611L13589.6001,-3353.7649L13589.6072,-3353.7698L13589.6107,-3353.7702L13589.612,-3353.7681L13589.6097,-3353.7647L13589.6052,-3353.7606L13589.5978,-3353.7577L13589.5935,-3353.7557L13589.5876,-3353.7498L13589.5871,-3353.7455Z"/>
<path content="和歌山県,,東牟婁郡,串本町,,30428" xlink:title="和歌山県" d="M13589.6318,-3353.7298L13589.6285,-3353.7283L13589.626,-3353.729L13589.6239,-3353.7305L13589.6222,-3353.7317L13589.6242,-3353.7368L13589.6295,-3353.74L13589.6379,-3353.7419L13589.645,-3353.7434L13589.6491,-3353.7426L13589.6506,-3353.7413L13589.6481,-3353.7394L13589.6435,-3353.7377L13589.6399,-3353.7349L13589.6369,-3353.7332L13589.6318,-3353.7298Z"/>
<path content="和歌山県,,東牟婁郡,串本町,,30428" xlink:title="和歌山県" d="M13588.1152,-3353.213L13588.111,-3353.2089L13588.1049,-3353.2125L13588.1011,-3353.2172L13588.1005,-3353.2198L13588.1001,-3353.2233L13588.1029,-3353.2256L13588.1073,-3353.2261L13588.1106,-3353.2259L13588.1142,-3353.2228L13588.1176,-3353.2195L13588.1176,-3353.2175L13588.1152,-3353.213Z"/>
<path content="和歌山県,,東牟婁郡,串本町,,30428" xlink:title="和歌山県" d="M13588.1172,-3353.1865L13588.121,-3353.185L13588.1236,-3353.185L13588.1265,-3353.183L13588.1289,-3353.1787L13588.1289,-3353.1764L13588.1281,-3353.1739L13588.1257,-3353.1726L13588.1224,-3353.1713L13588.1162,-3353.1711L13588.1119,-3353.1786L13588.1127,-3353.1825L13588.1148,-3353.1857L13588.1172,-3353.1865Z"/>
<path content="和歌山県,,東牟婁郡,串本町,,30428" xlink:title="和歌山県" d="M13588.4673,-3353.5499L13588.4645,-3353.5493L13588.4621,-3353.5508L13588.4608,-3353.5535L13588.4611,-3353.555L13588.4627,-3353.5556L13588.4654,-3353.5557L13588.4665,-3353.5559L13588.4666,-3353.5573L13588.4667,-3353.5586L13588.4695,-3353.5604L13588.4739,-3353.5625L13588.4776,-3353.5633L13588.48,-3353.5629L13588.4818,-3353.5614L13588.4825,-3353.5602L13588.4833,-3353.5598L13588.4847,-3353.5583L13588.4839,-3353.5555L13588.4811,-3353.5535L13588.4765,-3353.5529L13588.4715,-3353.5517L13588.4673,-3353.5499Z"/>
<path content="和歌山県,,東牟婁郡,串本町,,30428" xlink:title="和歌山県" d="M13589.4297,-3354.2176L13589.4267,-3354.2171L13589.4245,-3354.2191L13589.423,-3354.2205L13589.4238,-3354.2224L13589.425,-3354.2248L13589.4266,-3354.2271L13589.4271,-3354.2287L13589.4283,-3354.2304L13589.4305,-3354.2316L13589.4333,-3354.2314L13589.435,-3354.2304L13589.437,-3354.2283L13589.4393,-3354.2268L13589.441,-3354.2244L13589.442,-3354.2214L13589.4381,-3354.2181L13589.4336,-3354.2179L13589.4297,-3354.2176Z"/>
<path content="和歌山県,,東牟婁郡,串本町,,30428" xlink:title="和歌山県" d="M13589.5892,-3354.2809L13589.5856,-3354.278L13589.5832,-3354.2786L13589.5808,-3354.2806L13589.58,-3354.2829L13589.58,-3354.2843L13589.5776,-3354.2869L13589.5766,-3354.2882L13589.5764,-3354.2912L13589.5764,-3354.2938L13589.5793,-3354.2949L13589.5824,-3354.2949L13589.587,-3354.2945L13589.5904,-3354.2924L13589.591,-3354.2908L13589.5904,-3354.2873L13589.5892,-3354.2809Z"/>
<path content="和歌山県,,東牟婁郡,串本町,,30428" xlink:title="和歌山県" d="M13589.6201,-3353.6988L13589.6166,-3353.6973L13589.614,-3353.6979L13589.611,-3353.6998L13589.6092,-3353.702L13589.6135,-3353.7066L13589.6194,-3353.7096L13589.6227,-3353.7096L13589.627,-3353.709L13589.6305,-3353.7069L13589.6288,-3353.7052L13589.6247,-3353.7018L13589.6201,-3353.6988Z"/>
<path content="和歌山県,,東牟婁郡,串本町,,30428" xlink:title="和歌山県" d="M13589.3261,-3353.8789L13589.3145,-3353.8722L13589.3128,-3353.8757L13589.3125,-3353.8796L13589.3122,-3353.8826L13589.316,-3353.8861L13589.3217,-3353.8871L13589.3261,-3353.8849L13589.3287,-3353.8803L13589.3261,-3353.8789Z"/>
<path content="和歌山県,,東牟婁郡,串本町,,30428" xlink:title="和歌山県" d="M13588.2118,-3353.3683L13588.2097,-3353.3631L13588.2067,-3353.3654L13588.2045,-3353.3727L13588.2041,-3353.3794L13588.2045,-3353.381L13588.2079,-3353.3842L13588.2103,-3353.3853L13588.2126,-3353.3832L13588.2132,-3353.3814L13588.2136,-3353.3767L13588.2124,-3353.3751L13588.2113,-3353.3749L13588.2118,-3353.3722L13588.2118,-3353.3683Z"/>
<path content="和歌山県,,東牟婁郡,串本町,,30428" xlink:title="和歌山県" d="M13589.9839,-3354.3012L13589.9807,-3354.2994L13589.9764,-3354.3002L13589.9732,-3354.308L13589.9727,-3354.3109L13589.9738,-3354.3123L13589.9783,-3354.3135L13589.985,-3354.3087L13589.9876,-3354.3057L13589.9839,-3354.3012Z"/>
<path content="和歌山県,,東牟婁郡,串本町,,30428" xlink:title="和歌山県" d="M13589.7204,-3354.303L13589.718,-3354.3L13589.7122,-3354.3002L13589.7073,-3354.3033L13589.7052,-3354.3066L13589.7067,-3354.3117L13589.7107,-3354.3125L13589.7174,-3354.3071L13589.7204,-3354.303Z"/>
<path content="和歌山県,,東牟婁郡,串本町,,30428" xlink:title="和歌山県" d="M13589.2544,-3353.8794L13589.2521,-3353.8777L13589.2501,-3353.8779L13589.2491,-3353.8799L13589.2489,-3353.8829L13589.2497,-3353.8844L13589.2483,-3353.8865L13589.2483,-3353.8894L13589.2471,-3353.8925L13589.2489,-3353.8945L13589.2519,-3353.896L13589.255,-3353.8972L13589.2574,-3353.895L13589.256,-3353.8935L13589.2558,-3353.8917L13589.2558,-3353.8865L13589.2538,-3353.8855L13589.253,-3353.8847L13589.253,-3353.8831L13589.254,-3353.8811L13589.2544,-3353.8794Z"/>
<path content="和歌山県,,東牟婁郡,串本町,,30428" xlink:title="和歌山県" d="M13589.9525,-3354.4524L13589.9495,-3354.4519L13589.9427,-3354.4521L13589.9397,-3354.4544L13589.9376,-3354.4573L13589.9382,-3354.4613L13589.9443,-3354.4621L13589.9507,-3354.4585L13589.9525,-3354.4524Z"/>
<path content="和歌山県,,東牟婁郡,串本町,,30428" xlink:title="和歌山県" d="M13589.611,-3354.2404L13589.6064,-3354.2379L13589.6024,-3354.2381L13589.6011,-3354.2396L13589.6006,-3354.2419L13589.6034,-3354.2451L13589.609,-3354.2481L13589.6161,-3354.2491L13589.6194,-3354.2491L13589.6173,-3354.2474L13589.611,-3354.2404Z"/>
<path content="和歌山県,,東牟婁郡,串本町,,30428" xlink:title="和歌山県" d="M13589.4466,-3354.2299L13589.4428,-3354.2292L13589.4398,-3354.2307L13589.4365,-3354.233L13589.4351,-3354.2352L13589.435,-3354.2372L13589.437,-3354.2402L13589.4389,-3354.2412L13589.4423,-3354.2408L13589.4444,-3354.2391L13589.4459,-3354.2373L13589.4483,-3354.2333L13589.4466,-3354.2299Z"/>
<path content="和歌山県,,東牟婁郡,串本町,,30428" xlink:title="和歌山県" d="M13588.7359,-3353.5209L13588.7357,-3353.5197L13588.7333,-3353.5194L13588.7316,-3353.5195L13588.7288,-3353.5202L13588.7283,-3353.5197L13588.7291,-3353.5189L13588.7306,-3353.5184L13588.7308,-3353.5172L13588.7293,-3353.5164L13588.7256,-3353.5158L13588.7231,-3353.5171L13588.7213,-3353.5187L13588.7187,-3353.5202L13588.7231,-3353.5223L13588.7226,-3353.5233L13588.7223,-3353.5247L13588.7239,-3353.5258L13588.726,-3353.5258L13588.7289,-3353.5252L13588.7318,-3353.5249L13588.7339,-3353.5241L13588.7358,-3353.5227L13588.7359,-3353.5209Z"/>
<path content="和歌山県,,東牟婁郡,串本町,,30428" xlink:title="和歌山県" d="M13588.4634,-3353.5596L13588.4588,-3353.5567L13588.4567,-3353.5572L13588.4535,-3353.5602L13588.4531,-3353.5616L13588.4545,-3353.5629L13588.4645,-3353.567L13588.467,-3353.5669L13588.4691,-3353.5661L13588.47,-3353.565L13588.4695,-3353.5635L13588.4665,-3353.5617L13588.4634,-3353.5596Z"/>
<path content="和歌山県,,東牟婁郡,串本町,,30428" xlink:title="和歌山県" d="M13589.4665,-3353.8904L13589.4616,-3353.8889L13589.4606,-3353.8906L13589.4604,-3353.8944L13589.4616,-3353.898L13589.4654,-3353.9002L13589.468,-3353.9L13589.4705,-3353.898L13589.4713,-3353.8959L13589.4698,-3353.8927L13589.4665,-3353.8904Z"/>
<path content="和歌山県,,東牟婁郡,串本町,,30428" xlink:title="和歌山県" d="M13589.5964,-3354.2703L13589.5946,-3354.2703L13589.5937,-3354.2708L13589.5908,-3354.273L13589.5901,-3354.2751L13589.5915,-3354.2783L13589.5942,-3354.28L13589.5985,-3354.279L13589.6004,-3354.2773L13589.6011,-3354.275L13589.6019,-3354.2733L13589.5964,-3354.2703Z"/>
<path content="和歌山県,,東牟婁郡,串本町,,30428" xlink:title="和歌山県" d="M13589.4012,-3353.8001L13589.3897,-3353.7938L13589.3885,-3353.7953L13589.3885,-3353.7979L13589.3889,-3353.7997L13589.3901,-3353.8014L13589.3937,-3353.8036L13589.3963,-3353.8036L13589.399,-3353.8031L13589.4012,-3353.8001Z"/>
<path content="和歌山県,,東牟婁郡,串本町,,30428" xlink:title="和歌山県" d="M13589.5575,-3354.264L13589.5586,-3354.2622L13589.5587,-3354.2603L13589.5579,-3354.2586L13589.5534,-3354.2615L13589.5524,-3354.2626L13589.551,-3354.2625L13589.5491,-3354.2655L13589.5495,-3354.2689L13589.5512,-3354.2711L13589.5534,-3354.2712L13589.5548,-3354.2699L13589.5565,-3354.267L13589.5575,-3354.264Z"/>
<path content="和歌山県,,東牟婁郡,串本町,,30428" xlink:title="和歌山県" d="M13589.6293,-3354.2292L13589.6272,-3354.2292L13589.6255,-3354.2328L13589.6262,-3354.2349L13589.6295,-3354.2364L13589.6346,-3354.2364L13589.6374,-3354.2353L13589.6376,-3354.2338L13589.6348,-3354.2317L13589.6318,-3354.23L13589.6293,-3354.2292Z"/>
<path content="和歌山県,,東牟婁郡,串本町,,30428" xlink:title="和歌山県" d="M13588.4666,-3353.5439L13588.465,-3353.5439L13588.464,-3353.5449L13588.4641,-3353.5465L13588.4653,-3353.5479L13588.4685,-3353.549L13588.4723,-3353.5511L13588.4743,-3353.5512L13588.4767,-3353.5511L13588.4777,-3353.5504L13588.4774,-3353.549L13588.4774,-3353.5481L13588.4772,-3353.5471L13588.4759,-3353.5465L13588.4745,-3353.5463L13588.4728,-3353.5463L13588.4707,-3353.5458L13588.4666,-3353.5439Z"/>
<path content="和歌山県,,東牟婁郡,串本町,,30428" xlink:title="和歌山県" d="M13589.959,-3354.3555L13589.9587,-3354.3523L13589.9556,-3354.3545L13589.9539,-3354.3545L13589.9519,-3354.3546L13589.95,-3354.3556L13589.9493,-3354.3566L13589.9493,-3354.3576L13589.9506,-3354.3577L13589.951,-3354.3581L13589.951,-3354.3606L13589.9521,-3354.3623L13589.953,-3354.3639L13589.955,-3354.3619L13589.9554,-3354.3607L13589.9562,-3354.3605L13589.9583,-3354.3576L13589.959,-3354.3555Z"/>
<path content="和歌山県,,東牟婁郡,串本町,,30428" xlink:title="和歌山県" d="M13589.4514,-3354.2399L13589.4501,-3354.2386L13589.443,-3354.2424L13589.4411,-3354.2442L13589.4422,-3354.2467L13589.4435,-3354.2474L13589.4475,-3354.2472L13589.4506,-3354.2449L13589.4513,-3354.2428L13589.4514,-3354.2399Z"/>
<path content="和歌山県,,東牟婁郡,串本町,,30428" xlink:title="和歌山県" d="M13589.2635,-3353.8168L13589.2589,-3353.8147L13589.2571,-3353.8148L13589.2562,-3353.8162L13589.2562,-3353.8178L13589.2565,-3353.8194L13589.2574,-3353.8219L13589.2599,-3353.8226L13589.2624,-3353.8216L13589.2635,-3353.8211L13589.2627,-3353.8202L13589.263,-3353.8194L13589.2639,-3353.8187L13589.2635,-3353.8168Z"/>
<path content="和歌山県,,東牟婁郡,串本町,,30428" xlink:title="和歌山県" d="M13588.7217,-3353.5252L13588.7193,-3353.5242L13588.717,-3353.5258L13588.7156,-3353.5282L13588.7151,-3353.5297L13588.7151,-3353.531L13588.7158,-3353.5321L13588.717,-3353.5328L13588.7184,-3353.533L13588.7193,-3353.5322L13588.7203,-3353.5307L13588.7203,-3353.5292L13588.7207,-3353.5282L13588.7213,-3353.5272L13588.7221,-3353.5262L13588.7217,-3353.5252Z"/>
</g>
</svg>
