<?xml version="1.0" encoding="UTF-8"?>
<svg  xmlns="http://www.w3.org/2000/svg" xmlns:xlink="http://www.w3.org/1999/xlink" xmlns:go="http://purl.org/svgmap/profile" property="geometry,N03_001,N03_002,N03_003,N03_004,N03_005,N03_007" viewBox="13570.3125 -3533.203125 8.7890625 8.7890625" go:dataArea="13570.3125 -3533.203125 8.7890625 8.7890625" >
<metadata>
 <rdf:RDF xmlns:rdf="http://www.w3.org/1999/02/22-rdf-syntax-ns#" xmlns:crs="http://opengis.org/xmldtds/transformations.dtd" xmlns:svg="http://www.w3.org/svg" >
  <rdf:Description>
   <crs:CoordinateReferenceSystem rdf:resource="http://purl.org/crs/84" svg:transform="matrix(100.0,0.0,0.0,-100.0,0.0,0.0)" />
  </rdf:Description>
 </rdf:RDF>
</metadata>
<globalCoordinateSystem srsName="http://purl.org/crs/84" transform="matrix(100.0,0.0,0.0,-100.0,0.0,0.0)" />
<defs>
 <g id="p0" >
  <circle cx="0.0" cy="0.0" r="3" stroke="green" stroke-width="2.0" vector-effect="non-scaling-stroke" />
 </g>
</defs>
<g fill="#0000ff" fill-rule="evenodd" opacity="0.5" >
<path content="滋賀県,,,高島市,,25212" xlink:title="滋賀県" d="M13579.1016,-3533.2031L13579.1016,-3532.3653L13579.0871,-3532.3803L13579.0845,-3532.3903L13579.0868,-3532.4413L13579.0838,-3532.5L13579.0829,-3532.5164L13579.073,-3532.5622L13579.0376,-3532.6303L13579.0335,-3532.6476L13579.0394,-3532.6668L13579.0423,-3532.7012L13579.037,-3532.7263L13579.0235,-3532.7533L13579.0122,-3532.7959L13579.0034,-3532.8219L13578.9928,-3532.8329L13578.9582,-3532.8464L13578.8759,-3532.8662L13578.7605,-3532.9324L13578.7605,-3532.9324L13578.7123,-3532.981L13578.6729,-3533.0145L13578.6464,-3533.0284L13578.6141,-3533.0366L13578.5909,-3533.0483L13578.5733,-3533.0719L13578.5733,-3533.0823L13578.5789,-3533.1066L13578.5894,-3533.1334L13578.5883,-3533.1507L13578.5836,-3533.1642L13578.5613,-3533.1786L13578.5065,-3533.1972L13578.4993,-3533.2031Z"/>
<path content="京都府,,,京都市,左京区,26103" xlink:title="京都府" d="M13579.1016,-3524.4141L13575.5069,-3524.4141L13575.5004,-3524.4403L13575.4818,-3524.4767L13575.4679,-3524.4916L13575.4219,-3524.5205L13575.3927,-3524.533L13575.3826,-3524.5361L13575.3754,-3524.5361L13575.3508,-3524.5292L13575.3166,-3524.5271L13575.2955,-3524.5285L13575.2607,-3524.5348L13575.2291,-3524.5399L13575.2185,-3524.5399L13575.2046,-3524.5365L13575.2018,-3524.5345L13575.1983,-3524.532L13575.1767,-3524.506L13575.1361,-3524.442L13575.1087,-3524.4141L13574.9364,-3524.4141L13574.9244,-3524.4184L13574.8301,-3524.4469L13574.8221,-3524.4504L13574.8132,-3524.4587L13574.7942,-3524.4868L13574.7904,-3524.4878L13574.7739,-3524.4861L13574.7163,-3524.475L13574.6917,-3524.4735L13574.6698,-3524.4708L13574.6495,-3524.4695L13574.6403,-3524.4682L13574.6309,-3524.4685L13574.623,-3524.4715L13574.6153,-3524.4728L13574.6087,-3524.4745L13574.6014,-3524.4741L13574.5941,-3524.4702L13574.5785,-3524.4615L13574.5605,-3524.4519L13574.5403,-3524.4401L13574.5315,-3524.4345L13574.5249,-3524.4289L13574.5176,-3524.4232L13574.5106,-3524.4189L13574.5026,-3524.4143L13574.5024,-3524.4141L13573.8967,-3524.4141L13573.8899,-3524.4186L13573.8843,-3524.4226L13573.8763,-3524.4299L13573.8654,-3524.4444L13573.8356,-3524.469L13573.8287,-3524.4772L13573.8237,-3524.4786L13573.8148,-3524.4812L13573.8068,-3524.4812L13573.7992,-3524.4805L13573.7912,-3524.4805L13573.7842,-3524.4845L13573.7799,-3524.4908L13573.7729,-3524.4968L13573.7686,-3524.4998L13573.7517,-3524.5064L13573.7314,-3524.5111L13573.7024,-3524.5134L13573.6947,-3524.5134L13573.686,-3524.5128L13573.6765,-3524.512L13573.6642,-3524.5097L13573.6533,-3524.5084L13573.6442,-3524.5076L13573.6247,-3524.5064L13573.6035,-3524.5051L13573.5822,-3524.5031L13573.5759,-3524.5017L13573.5693,-3524.4994L13573.563,-3524.4958L13573.5563,-3524.4921L13573.55,-3524.4901L13573.5452,-3524.4885L13573.5381,-3524.4872L13573.5289,-3524.4878L13573.5133,-3524.4918L13573.4901,-3524.4968L13573.4768,-3524.5031L13573.4669,-3524.5064L13573.4526,-3524.5124L13573.4373,-3524.5193L13573.4144,-3524.5237L13573.3932,-3524.5273L13573.3756,-3524.5309L13573.3606,-3524.5364L13573.349,-3524.5419L13573.3404,-3524.5465L13573.3333,-3524.5518L13573.3307,-3524.5538L13573.3228,-3524.5594L13573.3148,-3524.5714L13573.3051,-3524.5922L13573.2968,-3524.6079L13573.2911,-3524.623L13573.2835,-3524.6356L13573.2759,-3524.6496L13573.2673,-3524.6608L13573.2618,-3524.6665L13573.2596,-3524.6688L13573.2467,-3524.683L13573.2351,-3524.697L13573.225,-3524.7191L13573.218,-3524.7334L13573.2081,-3524.7539L13573.1992,-3524.7704L13573.1858,-3524.7954L13573.1756,-3524.81L13573.1578,-3524.8348L13573.1522,-3524.8401L13573.1439,-3524.8464L13573.1296,-3524.8526L13573.1087,-3524.8629L13573.0898,-3524.8709L13573.0722,-3524.8769L13573.0599,-3524.8828L13573.0466,-3524.8861L13573.035,-3524.8871L13573.0272,-3524.8892L13573.0219,-3524.8909L13573.0136,-3524.8938L13572.9973,-3524.9051L13572.9804,-3524.9138L13572.9608,-3524.9234L13572.9492,-3524.9287L13572.9369,-3524.9343L13572.9244,-3524.9391L13572.9063,-3524.9449L13572.8904,-3524.9529L13572.8715,-3524.9622L13572.8526,-3524.9724L13572.8429,-3524.9804L13572.8228,-3524.9986L13572.8224,-3525L13572.8205,-3525.006L13572.8177,-3525.0195L13572.8207,-3525.03L13572.8346,-3525.0473L13572.8416,-3525.0609L13572.8469,-3525.0765L13572.8576,-3525.0977L13572.8655,-3525.1126L13572.8728,-3525.1206L13572.8918,-3525.1331L13572.9038,-3525.1427L13572.9171,-3525.1556L13572.9237,-3525.1613L13572.9298,-3525.1685L13572.9391,-3525.18L13572.9435,-3525.1874L13572.948,-3525.1949L13572.9531,-3525.2023L13572.9649,-3525.2149L13572.9758,-3525.2279L13572.9844,-3525.2365L13572.9922,-3525.2443L13572.9965,-3525.2516L13573.0018,-3525.2619L13573.0035,-3525.2672L13573.0041,-3525.2748L13573.0041,-3525.2881L13573.0051,-3525.2934L13573.0237,-3525.3027L13573.0406,-3525.309L13573.0533,-3525.3198L13573.0556,-3525.3224L13573.0591,-3525.3257L13573.0756,-3525.3346L13573.0858,-3525.343L13573.1012,-3525.3589L13573.1078,-3525.3682L13573.1126,-3525.3752L13573.1226,-3525.3906L13573.1266,-3525.393L13573.1353,-3525.3983L13573.1386,-3525.4009L13573.1407,-3525.4059L13573.1437,-3525.4129L13573.146,-3525.4161L13573.1537,-3525.4203L13573.158,-3525.4258L13573.1605,-3525.4289L13573.1686,-3525.4376L13573.1733,-3525.4421L13573.1807,-3525.4476L13573.1871,-3525.4515L13573.1964,-3525.4553L13573.2117,-3525.4616L13573.2263,-3525.4666L13573.2338,-3525.4706L13573.2386,-3525.4723L13573.2469,-3525.4753L13573.2606,-3525.4796L13573.2733,-3525.4866L13573.2788,-3525.4926L13573.2836,-3525.501L13573.2921,-3525.5195L13573.2971,-3525.5334L13573.2965,-3525.5396L13573.2899,-3525.549L13573.2843,-3525.5548L13573.2733,-3525.5613L13573.2665,-3525.5646L13573.2593,-3525.5694L13573.2518,-3525.5741L13573.2479,-3525.5781L13573.2368,-3525.593L13573.2252,-3525.6059L13573.218,-3525.6122L13573.2135,-3525.617L13573.2094,-3525.6211L13573.2051,-3525.6264L13573.1987,-3525.6314L13573.1903,-3525.6371L13573.1866,-3525.6413L13573.1837,-3525.6464L13573.1817,-3525.6516L13573.1816,-3525.6589L13573.1764,-3525.6745L13573.1751,-3525.6816L13573.1741,-3525.6902L13573.1731,-3525.7022L13573.1711,-3525.7098L13573.1692,-3525.7162L13573.1665,-3525.7206L13573.1639,-3525.7227L13573.1613,-3525.7248L13573.1556,-3525.7285L13573.1489,-3525.7325L13573.1425,-3525.7373L13573.1367,-3525.7432L13573.1286,-3525.7581L13573.1237,-3525.7704L13573.1169,-3525.7865L13573.1145,-3525.7913L13573.111,-3525.8007L13573.1081,-3525.8095L13573.1042,-3525.8205L13573.1031,-3525.8268L13573.1032,-3525.8333L13573.1034,-3525.8392L13573.1039,-3525.8484L13573.1048,-3525.8551L13573.1073,-3525.8665L13573.1093,-3525.8734L13573.1116,-3525.8799L13573.1168,-3525.8929L13573.1177,-3525.8977L13573.1192,-3525.9148L13573.1207,-3525.919L13573.1237,-3525.9269L13573.1291,-3525.9365L13573.1333,-3525.945L13573.1341,-3525.9578L13573.1345,-3525.9739L13573.1298,-3525.9909L13573.1204,-3526.0115L13573.1157,-3526.0172L13573.112,-3526.0228L13573.1086,-3526.0303L13573.1081,-3526.0378L13573.1087,-3526.0486L13573.1135,-3526.061L13573.1161,-3526.0709L13573.1183,-3526.0767L13573.1211,-3526.0844L13573.1223,-3526.0951L13573.1241,-3526.1075L13573.1253,-3526.1169L13573.1235,-3526.1298L13573.1234,-3526.1406L13573.1254,-3526.1513L13573.1331,-3526.169L13573.137,-3526.1832L13573.1406,-3526.1903L13573.1456,-3526.2025L13573.1465,-3526.2047L13573.1486,-3526.2101L13573.1508,-3526.2191L13573.1513,-3526.2284L13573.1545,-3526.2384L13573.1579,-3526.2454L13573.17,-3526.2597L13573.1796,-3526.2726L13573.1845,-3526.2817L13573.1871,-3526.2881L13573.1993,-3526.3176L13573.2038,-3526.3272L13573.2079,-3526.3395L13573.2097,-3526.3482L13573.2097,-3526.3594L13573.2136,-3526.3776L13573.2131,-3526.3919L13573.2141,-3526.3992L13573.2156,-3526.4064L13573.2154,-3526.4118L13573.2159,-3526.419L13573.2167,-3526.4262L13573.2195,-3526.4326L13573.2233,-3526.4425L13573.2261,-3526.4483L13573.2287,-3526.4548L13573.2308,-3526.4723L13573.2328,-3526.487L13573.2303,-3526.5026L13573.2278,-3526.5119L13573.2253,-3526.5164L13573.221,-3526.5225L13573.2176,-3526.5291L13573.2161,-3526.537L13573.2173,-3526.5445L13573.219,-3526.5522L13573.2183,-3526.5703L13573.2235,-3526.5846L13573.2293,-3526.6006L13573.2283,-3526.6069L13573.2239,-3526.6134L13573.2173,-3526.6154L13573.2127,-3526.6165L13573.2052,-3526.6166L13573.1993,-3526.6152L13573.1916,-3526.6139L13573.1822,-3526.6138L13573.1621,-3526.6116L13573.1446,-3526.6119L13573.1279,-3526.6159L13573.1215,-3526.6149L13573.1106,-3526.613L13573.0987,-3526.6056L13573.0906,-3526.6018L13573.081,-3526.5978L13573.068,-3526.5949L13573.0614,-3526.5954L13573.0545,-3526.5966L13573.049,-3526.5978L13573.0376,-3526.6077L13573.0261,-3526.6201L13573.0217,-3526.6234L13573.0173,-3526.6258L13573.0129,-3526.627L13573.0069,-3526.6278L13573.0016,-3526.6278L13572.9945,-3526.6276L13572.9889,-3526.6304L13572.9827,-3526.6359L13572.9794,-3526.6421L13572.9735,-3526.6469L13572.9615,-3526.6501L13572.9461,-3526.6583L13572.932,-3526.6667L13572.9303,-3526.6677L13572.9265,-3526.6687L13572.9208,-3526.6719L13572.9156,-3526.6737L13572.9102,-3526.6775L13572.9051,-3526.6828L13572.9008,-3526.6876L13572.8977,-3526.6943L13572.8948,-3526.6992L13572.8897,-3526.7034L13572.8828,-3526.708L13572.8762,-3526.7109L13572.8708,-3526.7144L13572.8645,-3526.7181L13572.8572,-3526.722L13572.8494,-3526.7265L13572.838,-3526.7273L13572.8313,-3526.7282L13572.8256,-3526.7309L13572.8208,-3526.7338L13572.816,-3526.7392L13572.8112,-3526.7443L13572.8066,-3526.7494L13572.8025,-3526.7524L13572.7971,-3526.7562L13572.7917,-3526.7595L13572.7845,-3526.7606L13572.7719,-3526.7614L13572.7671,-3526.7621L13572.7587,-3526.7643L13572.7522,-3526.7673L13572.7453,-3526.7704L13572.7349,-3526.7766L13572.7315,-3526.7801L13572.7282,-3526.784L13572.7268,-3526.7894L13572.7276,-3526.8011L13572.7278,-3526.8118L13572.7263,-3526.8234L13572.7235,-3526.8385L13572.7201,-3526.8516L13572.7191,-3526.8676L13572.7187,-3526.8711L13572.718,-3526.877L13572.7162,-3526.8858L13572.7127,-3526.8948L13572.7087,-3526.9076L13572.7074,-3526.9138L13572.6956,-3526.933L13572.6929,-3526.9456L13572.6934,-3526.9627L13572.692,-3526.9672L13572.6906,-3526.9738L13572.687,-3526.9868L13572.685,-3526.9921L13572.681,-3526.9984L13572.6757,-3527.0054L13572.6653,-3527.0191L13572.6604,-3527.0244L13572.6519,-3527.0354L13572.6442,-3527.0437L13572.6374,-3527.0496L13572.6299,-3527.0525L13572.6221,-3527.0576L13572.6167,-3527.0607L13572.6111,-3527.0678L13572.6061,-3527.0757L13572.5901,-3527.0872L13572.5799,-3527.0997L13572.5698,-3527.1179L13572.5663,-3527.1252L13572.5649,-3527.1332L13572.564,-3527.1416L13572.5645,-3527.1605L13572.5666,-3527.1709L13572.5696,-3527.177L13572.5754,-3527.1846L13572.5842,-3527.1931L13572.5965,-3527.2073L13572.6037,-3527.2146L13572.6116,-3527.2239L13572.6212,-3527.2376L13572.6283,-3527.2481L13572.6354,-3527.2647L13572.6426,-3527.2826L13572.6462,-3527.2952L13572.65,-3527.3036L13572.6556,-3527.3122L13572.6641,-3527.3212L13572.6741,-3527.3343L13572.6847,-3527.3459L13572.6989,-3527.3539L13572.7071,-3527.3567L13572.7196,-3527.3596L13572.7279,-3527.3606L13572.7365,-3527.3631L13572.7442,-3527.3651L13572.7524,-3527.3683L13572.7701,-3527.3691L13572.7861,-3527.3772L13572.7975,-3527.3899L13572.8027,-3527.3936L13572.8084,-3527.3977L13572.8136,-3527.4059L13572.8167,-3527.4121L13572.8206,-3527.4228L13572.8286,-3527.4309L13572.8376,-3527.4376L13572.8459,-3527.4414L13572.853,-3527.4446L13572.8614,-3527.4486L13572.8685,-3527.4527L13572.8764,-3527.4609L13572.8808,-3527.4646L13572.8863,-3527.4698L13572.8896,-3527.4749L13572.8926,-3527.4802L13572.8986,-3527.4949L13572.9028,-3527.5L13572.9042,-3527.5018L13572.9134,-3527.5144L13572.9182,-3527.5287L13572.9254,-3527.5427L13572.9282,-3527.556L13572.932,-3527.5629L13572.9382,-3527.5677L13572.9439,-3527.5702L13572.9551,-3527.5743L13572.9622,-3527.577L13572.9764,-3527.5868L13572.9772,-3527.5873L13572.9924,-3527.597L13573.0021,-3527.6104L13573.0035,-3527.6124L13573.0146,-3527.6279L13573.0279,-3527.643L13573.0349,-3527.6494L13573.0428,-3527.6574L13573.0466,-3527.6633L13573.054,-3527.6766L13573.0633,-3527.687L13573.0684,-3527.6971L13573.0742,-3527.7012L13573.0797,-3527.7065L13573.0888,-3527.7177L13573.1035,-3527.7343L13573.1206,-3527.7505L13573.1315,-3527.7611L13573.1469,-3527.773L13573.1509,-3527.7761L13573.1534,-3527.7779L13573.1557,-3527.7819L13573.1561,-3527.7863L13573.1543,-3527.7904L13573.1507,-3527.7946L13573.1419,-3527.8005L13573.1333,-3527.8079L13573.1293,-3527.8118L13573.1152,-3527.8292L13573.1051,-3527.8397L13573.0951,-3527.8453L13573.0893,-3527.8496L13573.0838,-3527.8538L13573.0769,-3527.8579L13573.0721,-3527.8619L13573.0683,-3527.8664L13573.0664,-3527.8703L13573.0649,-3527.8733L13573.0626,-3527.8784L13573.0577,-3527.8857L13573.0544,-3527.888L13573.0372,-3527.8968L13573.0236,-3527.9038L13573.011,-3527.9042L13573.0006,-3527.905L13572.9918,-3527.907L13572.9871,-3527.9092L13572.9827,-3527.9124L13572.9797,-3527.915L13572.9761,-3527.9183L13572.9724,-3527.923L13572.9694,-3527.9287L13572.9665,-3527.9349L13572.9646,-3527.9409L13572.9627,-3527.956L13572.9627,-3527.9714L13572.9647,-3527.983L13572.9665,-3527.9883L13572.9694,-3527.9957L13572.9729,-3528.0015L13572.9806,-3528.0097L13572.9879,-3528.0201L13572.9911,-3528.0266L13572.9966,-3528.0466L13572.9992,-3528.0601L13573.0003,-3528.0764L13573.0001,-3528.0866L13573.0001,-3528.0956L13572.9991,-3528.1075L13572.9954,-3528.1247L13572.9954,-3528.1428L13572.9887,-3528.1568L13572.9824,-3528.1713L13572.9794,-3528.1841L13572.9766,-3528.1941L13572.972,-3528.2054L13572.9681,-3528.2188L13572.9646,-3528.2346L13572.9613,-3528.2502L13572.9532,-3528.2636L13572.9513,-3528.2731L13572.9505,-3528.2829L13572.9501,-3528.2904L13572.9495,-3528.2931L13572.9453,-3528.3016L13572.9416,-3528.3108L13572.9368,-3528.3243L13572.9327,-3528.3333L13572.9309,-3528.3373L13572.9269,-3528.3459L13572.9236,-3528.3529L13572.9202,-3528.3586L13572.9192,-3528.3672L13572.9196,-3528.3729L13572.9207,-3528.3769L13572.9239,-3528.3817L13572.9327,-3528.3974L13572.9335,-3528.407L13572.9359,-3528.4173L13572.9386,-3528.423L13572.9426,-3528.427L13572.948,-3528.4309L13572.9669,-3528.4388L13572.9794,-3528.446L13572.9973,-3528.4493L13573.0053,-3528.4508L13573.0123,-3528.4523L13573.0163,-3528.4554L13573.0228,-3528.4611L13573.0273,-3528.4658L13573.0332,-3528.4711L13573.0429,-3528.4747L13573.0505,-3528.4764L13573.0678,-3528.478L13573.0848,-3528.4819L13573.1037,-3528.4835L13573.1136,-3528.4835L13573.1215,-3528.4824L13573.1359,-3528.4808L13573.1467,-3528.4804L13573.1593,-3528.4796L13573.1816,-3528.4769L13573.1975,-3528.4785L13573.2184,-3528.4815L13573.2333,-3528.4823L13573.2534,-3528.4842L13573.2608,-3528.486L13573.2781,-3528.4908L13573.3023,-3528.4995L13573.3171,-3528.5087L13573.3333,-3528.5191L13573.3336,-3528.5193L13573.344,-3528.5288L13573.3503,-3528.5364L13573.3551,-3528.5441L13573.3587,-3528.5558L13573.3625,-3528.5742L13573.3627,-3528.5889L13573.3582,-3528.6031L13573.3543,-3528.6109L13573.35,-3528.6231L13573.3485,-3528.6283L13573.3484,-3528.6344L13573.3495,-3528.642L13573.3528,-3528.6508L13573.3566,-3528.6654L13573.3626,-3528.6806L13573.3704,-3528.6919L13573.379,-3528.6995L13573.3897,-3528.7035L13573.4046,-3528.7061L13573.4117,-3528.7076L13573.4201,-3528.7099L13573.4264,-3528.7133L13573.4445,-3528.7161L13573.4606,-3528.7226L13573.4754,-3528.7349L13573.4823,-3528.7433L13573.4876,-3528.7513L13573.4951,-3528.7576L13573.5073,-3528.76L13573.5237,-3528.7614L13573.5429,-3528.763L13573.5605,-3528.7662L13573.5745,-3528.7693L13573.5833,-3528.7708L13573.6056,-3528.7731L13573.6146,-3528.7724L13573.6284,-3528.7705L13573.6379,-3528.7672L13573.6553,-3528.7587L13573.6707,-3528.7546L13573.6836,-3528.75L13573.6887,-3528.7483L13573.7011,-3528.7453L13573.7087,-3528.7443L13573.7204,-3528.7435L13573.7355,-3528.7438L13573.75,-3528.7433L13573.7723,-3528.7371L13573.7854,-3528.7278L13573.8011,-3528.7164L13573.8095,-3528.7115L13573.8281,-3528.7017L13573.8447,-3528.7026L13573.8859,-3528.702L13573.9111,-3528.7018L13573.9301,-3528.7003L13573.9474,-3528.6983L13573.9739,-3528.6954L13573.9963,-3528.6945L13574.0042,-3528.6938L13574.0263,-3528.6944L13574.0426,-3528.693L13574.0642,-3528.6938L13574.0777,-3528.6948L13574.0883,-3528.6965L13574.096,-3528.6996L13574.1097,-3528.7044L13574.1178,-3528.7071L13574.1385,-3528.7103L13574.1534,-3528.7144L13574.1667,-3528.7201L13574.1689,-3528.721L13574.1761,-3528.7223L13574.1814,-3528.7231L13574.1871,-3528.722L13574.1951,-3528.7192L13574.2017,-3528.7168L13574.2089,-3528.714L13574.2231,-3528.7105L13574.2398,-3528.7051L13574.2569,-3528.7022L13574.2744,-3528.6964L13574.2811,-3528.6924L13574.2909,-3528.6838L13574.2999,-3528.6753L13574.3105,-3528.6684L13574.3286,-3528.6563L13574.3425,-3528.6465L13574.3601,-3528.6415L13574.3645,-3528.6408L13574.3711,-3528.6401L13574.3784,-3528.6416L13574.386,-3528.6447L13574.3937,-3528.6495L13574.4017,-3528.6546L13574.4082,-3528.6589L13574.4238,-3528.6656L13574.4373,-3528.6717L13574.445,-3528.6741L13574.4555,-3528.6754L13574.4646,-3528.6751L13574.4685,-3528.6746L13574.4735,-3528.674L13574.4801,-3528.6726L13574.4876,-3528.6711L13574.4967,-3528.6693L13574.5137,-3528.6672L13574.532,-3528.6658L13574.5524,-3528.6659L13574.5607,-3528.6655L13574.569,-3528.6671L13574.576,-3528.6702L13574.5848,-3528.673L13574.5928,-3528.6754L13574.6003,-3528.6778L13574.6055,-3528.6782L13574.6134,-3528.6789L13574.6261,-3528.6767L13574.6447,-3528.6705L13574.662,-3528.6656L13574.6816,-3528.6633L13574.6929,-3528.6636L13574.7026,-3528.6654L13574.7161,-3528.6699L13574.75,-3528.6631L13574.782,-3528.6615L13574.8082,-3528.6633L13574.8205,-3528.6651L13574.833,-3528.6671L13574.8589,-3528.6904L13574.9029,-3528.7279L13574.9111,-3528.7332L13574.9179,-3528.736L13574.9248,-3528.7381L13574.9344,-3528.7388L13574.9666,-3528.7366L13575,-3528.7362L13575.0166,-3528.736L13575.0244,-3528.7371L13575.0474,-3528.7465L13575.0787,-3528.7563L13575.0833,-3528.7573L13575.0888,-3528.7573L13575.1007,-3528.7551L13575.1355,-3528.7428L13575.1437,-3528.7394L13575.1532,-3528.7383L13575.1584,-3528.7392L13575.1652,-3528.7414L13575.1769,-3528.7441L13575.2002,-3528.7462L13575.2382,-3528.7441L13575.3165,-3528.7435L13575.3433,-3528.7449L13575.4047,-3528.7394L13575.4371,-3528.7415L13575.5029,-3528.7538L13575.5751,-3528.7721L13575.5886,-3528.7738L13575.6156,-3528.7738L13575.64,-3528.7756L13575.6511,-3528.7801L13575.6616,-3528.7862L13575.6712,-3528.7926L13575.679,-3528.7981L13575.6961,-3528.8189L13575.7007,-3528.8239L13575.7147,-3528.8389L13575.7248,-3528.846L13575.7364,-3528.8511L13575.7453,-3528.8519L13575.7522,-3528.8491L13575.7556,-3528.8462L13575.778,-3528.8273L13575.7996,-3528.8137L13575.8278,-3528.8035L13575.8333,-3528.8029L13575.8477,-3528.8015L13575.8551,-3528.8015L13575.8721,-3528.8098L13575.8812,-3528.8125L13575.8869,-3528.8131L13575.8935,-3528.8129L13575.9027,-3528.8117L13575.9351,-3528.8056L13575.9575,-3528.8056L13576.0147,-3528.824L13576.03,-3528.8267L13576.0482,-3528.8293L13576.068,-3528.8293L13576.0853,-3528.826L13576.1162,-3528.8158L13576.1666,-3528.7962L13576.1814,-3528.7928L13576.1968,-3528.7896L13576.2789,-3528.7824L13576.3038,-3528.7865L13576.3102,-3528.7928L13576.3246,-3528.8069L13576.3373,-3528.8158L13576.3541,-3528.8219L13576.3713,-3528.8253L13576.3995,-3528.8321L13576.4106,-3528.836L13576.4186,-3528.8369L13576.4251,-3528.8368L13576.4566,-3528.8309L13576.4641,-3528.8304L13576.4707,-3528.8321L13576.4774,-3528.8355L13576.4832,-3528.8393L13576.4891,-3528.8478L13576.5007,-3528.8648L13576.5158,-3528.8771L13576.5307,-3528.886L13576.5457,-3528.8913L13576.5583,-3528.9L13576.5692,-3528.92L13576.58,-3528.938L13576.5906,-3528.9492L13576.5943,-3528.9513L13576.5989,-3528.9525L13576.6096,-3528.954L13576.6585,-3528.951L13576.6588,-3528.951L13576.6667,-3528.9518L13576.6677,-3528.9519L13576.6778,-3528.9546L13576.6915,-3528.9619L13576.7285,-3528.9771L13576.7484,-3528.9818L13576.7676,-3528.9832L13576.7862,-3528.9818L13576.7975,-3528.98L13576.8065,-3528.9773L13576.8257,-3528.9676L13576.8442,-3528.9593L13576.889,-3528.9572L13576.918,-3528.949L13576.9771,-3528.9169L13577.0111,-3528.8938L13577.0311,-3528.8898L13577.0634,-3528.8836L13577.0759,-3528.8795L13577.0908,-3528.8618L13577.1066,-3528.8435L13577.1332,-3528.8292L13577.1738,-3528.8129L13577.1954,-3528.7966L13577.2004,-3528.7807L13577.2038,-3528.7542L13577.2004,-3528.7297L13577.1968,-3528.7103L13577.1958,-3528.7044L13577.1968,-3528.6985L13577.1994,-3528.6916L13577.2061,-3528.6867L13577.2154,-3528.682L13577.2364,-3528.6775L13577.2441,-3528.6754L13577.2504,-3528.6738L13577.2529,-3528.6709L13577.2703,-3528.6471L13577.2773,-3528.6418L13577.296,-3528.6339L13577.306,-3528.6287L13577.3226,-3528.6158L13577.4057,-3528.5224L13577.4214,-3528.4788L13577.4223,-3528.4761L13577.423,-3528.4653L13577.4238,-3528.4539L13577.4221,-3528.4382L13577.4227,-3528.4274L13577.4242,-3528.4173L13577.4265,-3528.4111L13577.4306,-3528.4068L13577.4406,-3528.4033L13577.4531,-3528.4033L13577.4587,-3528.4036L13577.4641,-3528.4043L13577.4704,-3528.4061L13577.4756,-3528.4085L13577.4846,-3528.4156L13577.5,-3528.4264L13577.5013,-3528.4274L13577.5412,-3528.4376L13577.5586,-3528.4464L13577.5636,-3528.4566L13577.5669,-3528.4729L13577.5727,-3528.4818L13577.5808,-3528.4873L13577.5927,-3528.492L13577.6491,-3528.4981L13577.6619,-3528.4991L13577.6688,-3528.5013L13577.6733,-3528.5058L13577.6823,-3528.5206L13577.6924,-3528.5616L13577.6932,-3528.5766L13577.6807,-3528.5922L13577.6766,-3528.6011L13577.6791,-3528.6174L13577.6899,-3528.6296L13577.7139,-3528.6426L13577.7215,-3528.657L13577.7255,-3528.6636L13577.7298,-3528.6706L13577.7349,-3528.6773L13577.7407,-3528.6807L13577.7473,-3528.6835L13577.7946,-3528.6876L13577.8137,-3528.6897L13577.8369,-3528.7039L13577.8811,-3528.73L13577.8973,-3528.7367L13577.9051,-3528.7389L13577.9279,-3528.7401L13577.9616,-3528.7382L13577.9832,-3528.7429L13577.9909,-3528.7468L13577.9957,-3528.7513L13577.9985,-3528.7572L13577.9992,-3528.7644L13578.0014,-3528.7743L13578.0081,-3528.8001L13578.0122,-3528.837L13578.0127,-3528.8449L13578.0106,-3528.8642L13578.0125,-3528.8764L13578.0153,-3528.8833L13578.0184,-3528.8909L13578.0272,-3528.9037L13578.0286,-3528.9058L13578.0629,-3528.9481L13578.0714,-3528.9567L13578.0862,-3528.9699L13578.1343,-3528.9971L13578.1455,-3529.0036L13578.1493,-3529.0073L13578.1523,-3529.0163L13578.1537,-3529.0268L13578.1509,-3529.055L13578.1501,-3529.0797L13578.1476,-3529.1096L13578.1376,-3529.1409L13578.126,-3529.1606L13578.1213,-3529.1667L13578.1028,-3529.1906L13578.0919,-3529.2133L13578.0761,-3529.2548L13578.0728,-3529.2807L13578.0679,-3529.2936L13578.0571,-3529.3038L13578.0205,-3529.3126L13577.988,-3529.3202L13577.9324,-3529.3352L13577.8925,-3529.3467L13577.856,-3529.3638L13577.8294,-3529.3837L13577.792,-3529.4007L13577.7762,-3529.4164L13577.7696,-3529.4334L13577.7679,-3529.449L13577.7713,-3529.466L13577.7762,-3529.4851L13577.7887,-3529.5104L13577.7895,-3529.5397L13577.7862,-3529.5621L13577.7696,-3529.5798L13577.7614,-3529.5894L13577.753,-3529.5991L13577.7496,-3529.6174L13577.7488,-3529.6392L13577.7546,-3529.6603L13577.7987,-3529.7068L13577.8385,-3529.7456L13577.8385,-3529.751L13577.8336,-3529.7619L13577.8062,-3529.7939L13577.802,-3529.8061L13577.797,-3529.8272L13577.787,-3529.8472L13577.7804,-3529.8696L13577.7804,-3529.888L13577.7862,-3529.9138L13577.8078,-3529.9481L13577.8121,-3529.9565L13577.8203,-3529.9726L13577.8203,-3530L13577.8203,-3530.0018L13577.8095,-3530.0352L13577.7995,-3530.0776L13577.7995,-3530.0946L13577.807,-3530.1129L13577.8344,-3530.1539L13577.8386,-3530.1777L13577.8336,-3530.1906L13577.8119,-3530.2397L13577.7986,-3530.2594L13577.7837,-3530.2676L13577.7638,-3530.2764L13577.7596,-3530.2825L13577.7588,-3530.3029L13577.763,-3530.3175L13577.7621,-3530.3345L13577.7489,-3530.3692L13577.7422,-3530.3971L13577.7407,-3530.4118L13577.7397,-3530.4216L13577.7439,-3530.4647L13577.7397,-3530.4838L13577.7364,-3530.498L13577.7414,-3530.5096L13577.7483,-3530.5116L13577.8354,-3530.5069L13577.9143,-3530.5055L13577.9549,-3530.513L13577.9956,-3530.5246L13578.0166,-3530.5403L13578.0365,-3530.5443L13578.0581,-3530.5464L13578.1021,-3530.5341L13578.1569,-3530.5158L13578.1735,-3530.5171L13578.1893,-3530.528L13578.2034,-3530.5518L13578.2316,-3530.6022L13578.2549,-3530.6405L13578.2724,-3530.6821L13578.2848,-3530.7236L13578.289,-3530.7277L13578.2923,-3530.7277L13578.3333,-3530.7194L13578.3423,-3530.7175L13578.3722,-3530.7162L13578.393,-3530.7196L13578.4711,-3530.7386L13578.5068,-3530.7468L13578.5293,-3530.7475L13578.53,-3530.7474L13578.5683,-3530.7414L13578.5815,-3530.7393L13578.5998,-3530.7488L13578.6471,-3530.7727L13578.6905,-3530.7816L13578.7693,-3530.7973L13578.7793,-3530.8047L13578.7843,-3530.8218L13578.7876,-3530.8333L13578.7902,-3530.8423L13578.8018,-3530.862L13578.8317,-3530.8906L13578.8331,-3530.8928L13578.8416,-3530.9056L13578.8533,-3530.9412L13578.8732,-3530.9759L13578.8989,-3531.0079L13578.9413,-3531.0571L13578.9654,-3531.0897L13578.9704,-3531.1068L13578.9837,-3531.1326L13578.9969,-3531.2049L13578.9978,-3531.2315L13578.9928,-3531.2519L13578.9779,-3531.2744L13578.9754,-3531.2947L13578.9762,-3531.3235L13578.9837,-3531.3704L13578.9994,-3531.3848L13579.0243,-3531.3997L13579.0353,-3531.4142L13579.0394,-3531.4198L13579.0569,-3531.4435L13579.0768,-3531.47L13579.0968,-3531.496L13579.1016,-3531.4995Z"/>
<path content="京都府,,,京都市,右京区,26108" xlink:title="京都府" d="M13572.9889,-3526.6304L13572.9945,-3526.6276L13573.0016,-3526.6278L13573.0069,-3526.6278L13573.0129,-3526.627L13573.0173,-3526.6258L13573.0217,-3526.6234L13573.0261,-3526.6201L13573.0376,-3526.6077L13573.049,-3526.5978L13573.0545,-3526.5966L13573.0614,-3526.5954L13573.068,-3526.5949L13573.081,-3526.5978L13573.0906,-3526.6018L13573.0987,-3526.6056L13573.1106,-3526.613L13573.1215,-3526.6149L13573.1279,-3526.6159L13573.1446,-3526.6119L13573.1621,-3526.6116L13573.1822,-3526.6138L13573.1916,-3526.6139L13573.1993,-3526.6152L13573.2052,-3526.6166L13573.2127,-3526.6165L13573.2173,-3526.6154L13573.2239,-3526.6134L13573.2283,-3526.6069L13573.2293,-3526.6006L13573.2235,-3526.5846L13573.2183,-3526.5703L13573.219,-3526.5522L13573.2173,-3526.5445L13573.2161,-3526.537L13573.2176,-3526.5291L13573.221,-3526.5225L13573.2253,-3526.5164L13573.2278,-3526.5119L13573.2303,-3526.5026L13573.2328,-3526.487L13573.2308,-3526.4723L13573.2287,-3526.4548L13573.2261,-3526.4483L13573.2233,-3526.4425L13573.2195,-3526.4326L13573.2167,-3526.4262L13573.2159,-3526.419L13573.2154,-3526.4118L13573.2156,-3526.4064L13573.2141,-3526.3992L13573.2131,-3526.3919L13573.2136,-3526.3776L13573.2097,-3526.3594L13573.2097,-3526.3482L13573.2079,-3526.3395L13573.2038,-3526.3272L13573.1993,-3526.3176L13573.1871,-3526.2881L13573.1845,-3526.2817L13573.1796,-3526.2726L13573.17,-3526.2597L13573.1579,-3526.2454L13573.1545,-3526.2384L13573.1513,-3526.2284L13573.1508,-3526.2191L13573.1486,-3526.2101L13573.1465,-3526.2047L13573.1456,-3526.2025L13573.1406,-3526.1903L13573.137,-3526.1832L13573.1331,-3526.169L13573.1254,-3526.1513L13573.1234,-3526.1406L13573.1235,-3526.1298L13573.1253,-3526.1169L13573.1241,-3526.1075L13573.1223,-3526.0951L13573.1211,-3526.0844L13573.1183,-3526.0767L13573.1161,-3526.0709L13573.1135,-3526.061L13573.1087,-3526.0486L13573.1081,-3526.0378L13573.1086,-3526.0303L13573.112,-3526.0228L13573.1157,-3526.0172L13573.1204,-3526.0115L13573.1298,-3525.9909L13573.1345,-3525.9739L13573.1341,-3525.9578L13573.1333,-3525.945L13573.1291,-3525.9365L13573.1237,-3525.9269L13573.1207,-3525.919L13573.1192,-3525.9148L13573.1177,-3525.8977L13573.1168,-3525.8929L13573.1116,-3525.8799L13573.1093,-3525.8734L13573.1073,-3525.8665L13573.1048,-3525.8551L13573.1039,-3525.8484L13573.1034,-3525.8392L13573.1032,-3525.8333L13573.1031,-3525.8268L13573.1042,-3525.8205L13573.1081,-3525.8095L13573.111,-3525.8007L13573.1145,-3525.7913L13573.1169,-3525.7865L13573.1237,-3525.7704L13573.1286,-3525.7581L13573.1367,-3525.7432L13573.1425,-3525.7373L13573.1489,-3525.7325L13573.1556,-3525.7285L13573.1613,-3525.7248L13573.1639,-3525.7227L13573.1665,-3525.7206L13573.1692,-3525.7162L13573.1711,-3525.7098L13573.1731,-3525.7022L13573.1741,-3525.6902L13573.1751,-3525.6816L13573.1764,-3525.6745L13573.1816,-3525.6589L13573.1817,-3525.6516L13573.1837,-3525.6464L13573.1866,-3525.6413L13573.1903,-3525.6371L13573.1987,-3525.6314L13573.2051,-3525.6264L13573.2094,-3525.6211L13573.2135,-3525.617L13573.218,-3525.6122L13573.2252,-3525.6059L13573.2368,-3525.593L13573.2479,-3525.5781L13573.2518,-3525.5741L13573.2593,-3525.5694L13573.2665,-3525.5646L13573.2733,-3525.5613L13573.2843,-3525.5548L13573.2899,-3525.549L13573.2965,-3525.5396L13573.2971,-3525.5334L13573.2921,-3525.5195L13573.2836,-3525.501L13573.2788,-3525.4926L13573.2733,-3525.4866L13573.2606,-3525.4796L13573.2469,-3525.4753L13573.2386,-3525.4723L13573.2338,-3525.4706L13573.2263,-3525.4666L13573.2117,-3525.4616L13573.1964,-3525.4553L13573.1871,-3525.4515L13573.1807,-3525.4476L13573.1733,-3525.4421L13573.1686,-3525.4376L13573.1605,-3525.4289L13573.158,-3525.4258L13573.1537,-3525.4203L13573.146,-3525.4161L13573.1437,-3525.4129L13573.1407,-3525.4059L13573.1386,-3525.4009L13573.1353,-3525.3983L13573.1266,-3525.393L13573.1226,-3525.3906L13573.1126,-3525.3752L13573.1078,-3525.3682L13573.1012,-3525.3589L13573.0858,-3525.343L13573.0756,-3525.3346L13573.0591,-3525.3257L13573.0556,-3525.3224L13573.0533,-3525.3198L13573.0406,-3525.309L13573.0237,-3525.3027L13573.0051,-3525.2934L13573.0041,-3525.2881L13573.0041,-3525.2748L13573.0035,-3525.2672L13573.0018,-3525.2619L13572.9965,-3525.2516L13572.9922,-3525.2443L13572.9844,-3525.2365L13572.9758,-3525.2279L13572.9649,-3525.2149L13572.9531,-3525.2023L13572.948,-3525.1949L13572.9435,-3525.1874L13572.9391,-3525.18L13572.9298,-3525.1685L13572.9237,-3525.1613L13572.9171,-3525.1556L13572.9038,-3525.1427L13572.8918,-3525.1331L13572.8728,-3525.1206L13572.8655,-3525.1126L13572.8576,-3525.0977L13572.8469,-3525.0765L13572.8416,-3525.0609L13572.8346,-3525.0473L13572.8207,-3525.03L13572.8177,-3525.0195L13572.8205,-3525.006L13572.8224,-3525L13572.8228,-3524.9986L13572.8429,-3524.9804L13572.8526,-3524.9724L13572.8715,-3524.9622L13572.8904,-3524.9529L13572.9063,-3524.9449L13572.9244,-3524.9391L13572.9369,-3524.9343L13572.9492,-3524.9287L13572.9608,-3524.9234L13572.9804,-3524.9138L13572.9973,-3524.9051L13573.0136,-3524.8938L13573.0219,-3524.8909L13573.0272,-3524.8892L13573.035,-3524.8871L13573.0466,-3524.8861L13573.0599,-3524.8828L13573.0722,-3524.8769L13573.0898,-3524.8709L13573.1087,-3524.8629L13573.1296,-3524.8526L13573.1439,-3524.8464L13573.1522,-3524.8401L13573.1578,-3524.8348L13573.1756,-3524.81L13573.1858,-3524.7954L13573.1992,-3524.7704L13573.2081,-3524.7539L13573.218,-3524.7334L13573.225,-3524.7191L13573.2351,-3524.697L13573.2467,-3524.683L13573.2596,-3524.6688L13573.2618,-3524.6665L13573.2673,-3524.6608L13573.2759,-3524.6496L13573.2835,-3524.6356L13573.2911,-3524.623L13573.2968,-3524.6079L13573.3051,-3524.5922L13573.3148,-3524.5714L13573.3228,-3524.5594L13573.3307,-3524.5538L13573.3333,-3524.5518L13573.3404,-3524.5465L13573.349,-3524.5419L13573.3606,-3524.5364L13573.3756,-3524.5309L13573.3932,-3524.5273L13573.4144,-3524.5237L13573.4373,-3524.5193L13573.4526,-3524.5124L13573.4669,-3524.5064L13573.4768,-3524.5031L13573.4901,-3524.4968L13573.5133,-3524.4918L13573.5289,-3524.4878L13573.5381,-3524.4872L13573.5452,-3524.4885L13573.55,-3524.4901L13573.5563,-3524.4921L13573.563,-3524.4958L13573.5693,-3524.4994L13573.5759,-3524.5017L13573.5822,-3524.5031L13573.6035,-3524.5051L13573.6247,-3524.5064L13573.6442,-3524.5076L13573.6533,-3524.5084L13573.6642,-3524.5097L13573.6765,-3524.512L13573.686,-3524.5128L13573.6947,-3524.5134L13573.7024,-3524.5134L13573.7314,-3524.5111L13573.7517,-3524.5064L13573.7686,-3524.4998L13573.7729,-3524.4968L13573.7799,-3524.4908L13573.7842,-3524.4845L13573.7912,-3524.4805L13573.7992,-3524.4805L13573.8068,-3524.4812L13573.8148,-3524.4812L13573.8237,-3524.4786L13573.8287,-3524.4772L13573.8356,-3524.469L13573.8654,-3524.4444L13573.8763,-3524.4299L13573.8843,-3524.4226L13573.8899,-3524.4186L13573.8967,-3524.4141L13574.5024,-3524.4141L13574.5026,-3524.4143L13574.5106,-3524.4189L13574.5176,-3524.4232L13574.5249,-3524.4289L13574.5315,-3524.4345L13574.5403,-3524.4401L13574.5605,-3524.4519L13574.5785,-3524.4615L13574.5941,-3524.4702L13574.6014,-3524.4741L13574.6087,-3524.4745L13574.6153,-3524.4728L13574.623,-3524.4715L13574.6309,-3524.4685L13574.6403,-3524.4682L13574.6495,-3524.4695L13574.6698,-3524.4708L13574.6917,-3524.4735L13574.7163,-3524.475L13574.7739,-3524.4861L13574.7904,-3524.4878L13574.7942,-3524.4868L13574.8132,-3524.4587L13574.8221,-3524.4504L13574.8301,-3524.4469L13574.9244,-3524.4184L13574.9364,-3524.4141L13575.1087,-3524.4141L13575.1361,-3524.442L13575.1767,-3524.506L13575.1983,-3524.532L13575.2018,-3524.5345L13575.2046,-3524.5365L13575.2185,-3524.5399L13575.2291,-3524.5399L13575.2607,-3524.5348L13575.2955,-3524.5285L13575.3166,-3524.5271L13575.3508,-3524.5292L13575.3754,-3524.5361L13575.3826,-3524.5361L13575.3927,-3524.533L13575.4219,-3524.5205L13575.4679,-3524.4916L13575.4818,-3524.4767L13575.5004,-3524.4403L13575.5069,-3524.4141L13570.3125,-3524.4141L13570.3125,-3525.7432L13570.3197,-3525.7419L13570.3322,-3525.7405L13570.3419,-3525.7418L13570.3523,-3525.7445L13570.3609,-3525.7472L13570.3753,-3525.7554L13570.3791,-3525.7591L13570.3844,-3525.7639L13570.3878,-3525.7681L13570.3921,-3525.7751L13570.3961,-3525.7798L13570.4021,-3525.7869L13570.4072,-3525.7914L13570.4202,-3525.8041L13570.4259,-3525.8109L13570.4417,-3525.8179L13570.4474,-3525.8213L13570.4552,-3525.825L13570.4634,-3525.8292L13570.4696,-3525.8328L13570.4699,-3525.8333L13570.4719,-3525.8369L13570.4752,-3525.8437L13570.4783,-3525.8493L13570.4821,-3525.8541L13570.4937,-3525.8667L13570.4985,-3525.8731L13570.5112,-3525.8841L13570.5147,-3525.8899L13570.5191,-3525.8933L13570.5229,-3525.8964L13570.5279,-3525.8987L13570.5335,-3525.9009L13570.5396,-3525.9035L13570.547,-3525.9074L13570.5557,-3525.9153L13570.5644,-3525.9218L13570.5699,-3525.9286L13570.5727,-3525.9312L13570.5848,-3525.9432L13570.5897,-3525.9479L13570.5943,-3525.9556L13570.5969,-3525.96L13570.6051,-3525.9738L13570.6077,-3525.9788L13570.6175,-3525.9913L13570.6221,-3525.9996L13570.6315,-3526.0146L13570.6356,-3526.025L13570.6382,-3526.0323L13570.6418,-3526.0376L13570.6461,-3526.0427L13570.6515,-3526.0465L13570.6586,-3526.0507L13570.6643,-3526.0548L13570.6756,-3526.0651L13570.6839,-3526.0734L13570.694,-3526.0912L13570.6972,-3526.0961L13570.6999,-3526.1022L13570.7017,-3526.1063L13570.7045,-3526.1142L13570.7071,-3526.1202L13570.7094,-3526.1231L13570.7133,-3526.13L13570.7221,-3526.1375L13570.728,-3526.1391L13570.7377,-3526.1379L13570.7543,-3526.1335L13570.7619,-3526.1308L13570.766,-3526.1286L13570.7764,-3526.1148L13570.7836,-3526.1082L13570.7894,-3526.1018L13570.7953,-3526.0978L13570.8028,-3526.0961L13570.8098,-3526.0954L13570.8175,-3526.0939L13570.8326,-3526.0909L13570.8333,-3526.0906L13570.8469,-3526.0854L13570.8636,-3526.0771L13570.8757,-3526.0745L13570.8834,-3526.0722L13570.8927,-3526.0699L13570.8995,-3526.0685L13570.902,-3526.0688L13570.9097,-3526.0696L13570.9149,-3526.0701L13570.9307,-3526.0725L13570.9404,-3526.0736L13570.9536,-3526.0743L13570.9657,-3526.078L13570.9764,-3526.0806L13570.9846,-3526.0813L13570.9931,-3526.0801L13571.0063,-3526.0759L13571.0167,-3526.0728L13571.0264,-3526.0727L13571.0364,-3526.0731L13571.0542,-3526.0737L13571.0617,-3526.0762L13571.0716,-3526.0787L13571.0879,-3526.0842L13571.1073,-3526.0886L13571.1247,-3526.0917L13571.135,-3526.0935L13571.1548,-3526.0967L13571.1632,-3526.0982L13571.1749,-3526.0994L13571.1858,-3526.0995L13571.1929,-3526.1009L13571.201,-3526.1035L13571.2049,-3526.1055L13571.2222,-3526.1145L13571.236,-3526.1254L13571.2457,-3526.1358L13571.2533,-3526.1419L13571.2593,-3526.1455L13571.2636,-3526.1492L13571.2695,-3526.1576L13571.2821,-3526.1773L13571.2931,-3526.1908L13571.2996,-3526.1931L13571.3059,-3526.1943L13571.3126,-3526.1941L13571.3222,-3526.1923L13571.3316,-3526.1897L13571.3392,-3526.1876L13571.3467,-3526.1892L13571.3571,-3526.1976L13571.3611,-3526.202L13571.3702,-3526.2119L13571.3734,-3526.2185L13571.3772,-3526.2328L13571.3837,-3526.258L13571.3875,-3526.2622L13571.389,-3526.2677L13571.3943,-3526.277L13571.3971,-3526.2824L13571.4018,-3526.2873L13571.4067,-3526.2902L13571.4116,-3526.292L13571.4198,-3526.2922L13571.4422,-3526.2911L13571.466,-3526.289L13571.4855,-3526.2915L13571.4906,-3526.2933L13571.4963,-3526.2958L13571.5017,-3526.3029L13571.5075,-3526.3135L13571.5154,-3526.3239L13571.5261,-3526.3354L13571.5273,-3526.3367L13571.5356,-3526.3419L13571.5498,-3526.3517L13571.5696,-3526.3681L13571.5777,-3526.3736L13571.5827,-3526.3785L13571.5871,-3526.3862L13571.5887,-3526.3927L13571.5901,-3526.3979L13571.5946,-3526.4096L13571.5983,-3526.4155L13571.6011,-3526.4191L13571.6075,-3526.4279L13571.6141,-3526.4335L13571.6209,-3526.4354L13571.6252,-3526.4388L13571.631,-3526.4467L13571.6344,-3526.4501L13571.6399,-3526.4527L13571.6479,-3526.4547L13571.657,-3526.4555L13571.6667,-3526.4564L13571.6668,-3526.4564L13571.6751,-3526.4566L13571.6793,-3526.4578L13571.6857,-3526.4607L13571.6926,-3526.4677L13571.7018,-3526.4758L13571.7086,-3526.4829L13571.7145,-3526.4894L13571.7225,-3526.4971L13571.733,-3526.5087L13571.7373,-3526.5162L13571.7573,-3526.5325L13571.7705,-3526.5376L13571.7779,-3526.5393L13571.7887,-3526.5405L13571.8013,-3526.5405L13571.8139,-3526.5392L13571.8233,-3526.5362L13571.8359,-3526.5324L13571.8453,-3526.5299L13571.8667,-3526.5216L13571.8777,-3526.5169L13571.8852,-3526.514L13571.8947,-3526.5133L13571.9057,-3526.5129L13571.9264,-3526.5145L13571.9517,-3526.5158L13571.9594,-3526.5166L13571.9687,-3526.5179L13571.9738,-3526.5222L13571.9776,-3526.527L13571.9826,-3526.5311L13571.9833,-3526.5317L13571.9923,-3526.5355L13572.0023,-3526.5394L13572.0161,-3526.5432L13572.0354,-3526.549L13572.0419,-3526.5496L13572.0528,-3526.549L13572.0701,-3526.5461L13572.0812,-3526.545L13572.0919,-3526.5446L13572.1019,-3526.5455L13572.1112,-3526.5477L13572.1202,-3526.5565L13572.1232,-3526.5607L13572.1289,-3526.5665L13572.1343,-3526.5722L13572.1404,-3526.5768L13572.1463,-3526.5795L13572.1557,-3526.5819L13572.1729,-3526.5857L13572.1817,-3526.5888L13572.1945,-3526.5884L13572.2025,-3526.5886L13572.203,-3526.5885L13572.2093,-3526.5877L13572.2172,-3526.5847L13572.2259,-3526.5804L13572.2341,-3526.5749L13572.2456,-3526.5707L13572.2585,-3526.5676L13572.2651,-3526.5663L13572.2738,-3526.5661L13572.2884,-3526.5649L13572.2998,-3526.5639L13572.3069,-3526.5642L13572.314,-3526.5631L13572.3227,-3526.5597L13572.3306,-3526.5563L13572.3356,-3526.5555L13572.347,-3526.5561L13572.3595,-3526.5581L13572.3671,-3526.5594L13572.3816,-3526.5641L13572.3916,-3526.5647L13572.4013,-3526.5659L13572.4077,-3526.5665L13572.4159,-3526.5697L13572.4234,-3526.5711L13572.4301,-3526.5717L13572.4383,-3526.5707L13572.4522,-3526.567L13572.4615,-3526.5645L13572.4714,-3526.5625L13572.4789,-3526.5599L13572.486,-3526.5585L13572.4965,-3526.5574L13572.5,-3526.5578L13572.5039,-3526.5582L13572.5126,-3526.5613L13572.5169,-3526.5644L13572.5243,-3526.5669L13572.5341,-3526.5671L13572.5457,-3526.5684L13572.5544,-3526.571L13572.5621,-3526.5732L13572.5687,-3526.5754L13572.5704,-3526.5773L13572.572,-3526.5809L13572.5789,-3526.5908L13572.5836,-3526.595L13572.5879,-3526.5985L13572.5942,-3526.6004L13572.6058,-3526.6044L13572.614,-3526.606L13572.6297,-3526.6102L13572.636,-3526.6204L13572.6413,-3526.6349L13572.6518,-3526.6529L13572.6564,-3526.6647L13572.6573,-3526.6667L13572.6614,-3526.6752L13572.6642,-3526.6785L13572.6721,-3526.6829L13572.6807,-3526.6865L13572.6991,-3526.7042L13572.7077,-3526.7173L13572.7117,-3526.7242L13572.7124,-3526.7311L13572.7155,-3526.7418L13572.7175,-3526.7478L13572.7235,-3526.7572L13572.7349,-3526.7766L13572.7453,-3526.7704L13572.7522,-3526.7673L13572.7587,-3526.7643L13572.7671,-3526.7621L13572.7719,-3526.7614L13572.7845,-3526.7606L13572.7917,-3526.7595L13572.7971,-3526.7562L13572.8025,-3526.7524L13572.8066,-3526.7494L13572.8112,-3526.7443L13572.816,-3526.7392L13572.8208,-3526.7338L13572.8256,-3526.7309L13572.8313,-3526.7282L13572.838,-3526.7273L13572.8494,-3526.7265L13572.8572,-3526.722L13572.8645,-3526.7181L13572.8708,-3526.7144L13572.8762,-3526.7109L13572.8828,-3526.708L13572.8897,-3526.7034L13572.8948,-3526.6992L13572.8977,-3526.6943L13572.9008,-3526.6876L13572.9051,-3526.6828L13572.9102,-3526.6775L13572.9156,-3526.6737L13572.9208,-3526.6719L13572.9265,-3526.6687L13572.9303,-3526.6677L13572.932,-3526.6667L13572.9461,-3526.6583L13572.9615,-3526.6501L13572.9735,-3526.6469L13572.9794,-3526.6421L13572.9827,-3526.6359L13572.9889,-3526.6304Z"/>
<path content="京都府,,,南丹市,,26213" xlink:title="京都府" d="M13570.3125,-3533.2031L13578.4993,-3533.2031L13578.5065,-3533.1972L13578.5613,-3533.1786L13578.5836,-3533.1642L13578.5883,-3533.1507L13578.5894,-3533.1334L13578.5789,-3533.1066L13578.5733,-3533.0823L13578.5733,-3533.0719L13578.5909,-3533.0483L13578.6141,-3533.0366L13578.6464,-3533.0284L13578.6729,-3533.0145L13578.7123,-3532.981L13578.7605,-3532.9324L13578.7605,-3532.9324L13578.8759,-3532.8662L13578.9582,-3532.8464L13578.9928,-3532.8329L13579.0034,-3532.8219L13579.0122,-3532.7959L13579.0235,-3532.7533L13579.037,-3532.7263L13579.0423,-3532.7012L13579.0394,-3532.6668L13579.0335,-3532.6476L13579.0376,-3532.6303L13579.073,-3532.5622L13579.0829,-3532.5164L13579.0838,-3532.5L13579.0868,-3532.4413L13579.0845,-3532.3903L13579.0871,-3532.3803L13579.1016,-3532.3653L13579.1016,-3531.4995L13579.0968,-3531.496L13579.0768,-3531.47L13579.0569,-3531.4435L13579.0394,-3531.4198L13579.0353,-3531.4142L13579.0243,-3531.3997L13578.9994,-3531.3848L13578.9837,-3531.3704L13578.9762,-3531.3235L13578.9754,-3531.2947L13578.9779,-3531.2744L13578.9928,-3531.2519L13578.9978,-3531.2315L13578.9969,-3531.2049L13578.9837,-3531.1326L13578.9704,-3531.1068L13578.9654,-3531.0897L13578.9413,-3531.0571L13578.8989,-3531.0079L13578.8732,-3530.9759L13578.8533,-3530.9412L13578.8416,-3530.9056L13578.8331,-3530.8928L13578.8317,-3530.8906L13578.8018,-3530.862L13578.7902,-3530.8423L13578.7876,-3530.8333L13578.7843,-3530.8218L13578.7793,-3530.8047L13578.7693,-3530.7973L13578.6905,-3530.7816L13578.6471,-3530.7727L13578.5998,-3530.7488L13578.5815,-3530.7393L13578.5683,-3530.7414L13578.53,-3530.7474L13578.5293,-3530.7475L13578.5068,-3530.7468L13578.4711,-3530.7386L13578.393,-3530.7196L13578.3722,-3530.7162L13578.3423,-3530.7175L13578.3333,-3530.7194L13578.2923,-3530.7277L13578.289,-3530.7277L13578.2848,-3530.7236L13578.2724,-3530.6821L13578.2549,-3530.6405L13578.2316,-3530.6022L13578.2034,-3530.5518L13578.1893,-3530.528L13578.1735,-3530.5171L13578.1569,-3530.5158L13578.1021,-3530.5341L13578.0581,-3530.5464L13578.0365,-3530.5443L13578.0166,-3530.5403L13577.9956,-3530.5246L13577.9549,-3530.513L13577.9143,-3530.5055L13577.8354,-3530.5069L13577.7483,-3530.5116L13577.7414,-3530.5096L13577.7364,-3530.498L13577.7397,-3530.4838L13577.7439,-3530.4647L13577.7397,-3530.4216L13577.7407,-3530.4118L13577.7422,-3530.3971L13577.7489,-3530.3692L13577.7621,-3530.3345L13577.763,-3530.3175L13577.7588,-3530.3029L13577.7596,-3530.2825L13577.7638,-3530.2764L13577.7837,-3530.2676L13577.7986,-3530.2594L13577.8119,-3530.2397L13577.8336,-3530.1906L13577.8386,-3530.1777L13577.8344,-3530.1539L13577.807,-3530.1129L13577.7995,-3530.0946L13577.7995,-3530.0776L13577.8095,-3530.0352L13577.8203,-3530.0018L13577.8203,-3530L13577.8203,-3529.9726L13577.8121,-3529.9565L13577.8078,-3529.9481L13577.7862,-3529.9138L13577.7804,-3529.888L13577.7804,-3529.8696L13577.787,-3529.8472L13577.797,-3529.8272L13577.802,-3529.8061L13577.8062,-3529.7939L13577.8336,-3529.7619L13577.8385,-3529.751L13577.8385,-3529.7456L13577.7987,-3529.7068L13577.7546,-3529.6603L13577.7488,-3529.6392L13577.7496,-3529.6174L13577.753,-3529.5991L13577.7614,-3529.5894L13577.7696,-3529.5798L13577.7862,-3529.5621L13577.7895,-3529.5397L13577.7887,-3529.5104L13577.7762,-3529.4851L13577.7713,-3529.466L13577.7679,-3529.449L13577.7696,-3529.4334L13577.7762,-3529.4164L13577.792,-3529.4007L13577.8294,-3529.3837L13577.856,-3529.3638L13577.8925,-3529.3467L13577.9324,-3529.3352L13577.988,-3529.3202L13578.0205,-3529.3126L13578.0571,-3529.3038L13578.0679,-3529.2936L13578.0728,-3529.2807L13578.0761,-3529.2548L13578.0919,-3529.2133L13578.1028,-3529.1906L13578.1213,-3529.1667L13578.126,-3529.1606L13578.1376,-3529.1409L13578.1476,-3529.1096L13578.1501,-3529.0797L13578.1509,-3529.055L13578.1537,-3529.0268L13578.1523,-3529.0163L13578.1493,-3529.0073L13578.1455,-3529.0036L13578.1343,-3528.9971L13578.0862,-3528.9699L13578.0714,-3528.9567L13578.0629,-3528.9481L13578.0286,-3528.9058L13578.0272,-3528.9037L13578.0184,-3528.8909L13578.0153,-3528.8833L13578.0125,-3528.8764L13578.0106,-3528.8642L13578.0127,-3528.8449L13578.0122,-3528.837L13578.0081,-3528.8001L13578.0014,-3528.7743L13577.9992,-3528.7644L13577.9985,-3528.7572L13577.9957,-3528.7513L13577.9909,-3528.7468L13577.9832,-3528.7429L13577.9616,-3528.7382L13577.9279,-3528.7401L13577.9051,-3528.7389L13577.8973,-3528.7367L13577.8811,-3528.73L13577.8369,-3528.7039L13577.8137,-3528.6897L13577.7946,-3528.6876L13577.7473,-3528.6835L13577.7407,-3528.6807L13577.7349,-3528.6773L13577.7298,-3528.6706L13577.7255,-3528.6636L13577.7215,-3528.657L13577.7139,-3528.6426L13577.6899,-3528.6296L13577.6791,-3528.6174L13577.6766,-3528.6011L13577.6807,-3528.5922L13577.6932,-3528.5766L13577.6924,-3528.5616L13577.6823,-3528.5206L13577.6733,-3528.5058L13577.6688,-3528.5013L13577.6619,-3528.4991L13577.6491,-3528.4981L13577.5927,-3528.492L13577.5808,-3528.4873L13577.5727,-3528.4818L13577.5669,-3528.4729L13577.5636,-3528.4566L13577.5586,-3528.4464L13577.5412,-3528.4376L13577.5013,-3528.4274L13577.5,-3528.4264L13577.4846,-3528.4156L13577.4756,-3528.4085L13577.4704,-3528.4061L13577.4641,-3528.4043L13577.4587,-3528.4036L13577.4531,-3528.4033L13577.4406,-3528.4033L13577.4306,-3528.4068L13577.4265,-3528.4111L13577.4242,-3528.4173L13577.4227,-3528.4274L13577.4221,-3528.4382L13577.4238,-3528.4539L13577.423,-3528.4653L13577.4223,-3528.4761L13577.4214,-3528.4788L13577.4057,-3528.5224L13577.3226,-3528.6158L13577.306,-3528.6287L13577.296,-3528.6339L13577.2773,-3528.6418L13577.2703,-3528.6471L13577.2529,-3528.6709L13577.2504,-3528.6738L13577.2441,-3528.6754L13577.2364,-3528.6775L13577.2154,-3528.682L13577.2061,-3528.6867L13577.1994,-3528.6916L13577.1968,-3528.6985L13577.1958,-3528.7044L13577.1968,-3528.7103L13577.2004,-3528.7297L13577.2038,-3528.7542L13577.2004,-3528.7807L13577.1954,-3528.7966L13577.1738,-3528.8129L13577.1332,-3528.8292L13577.1066,-3528.8435L13577.0908,-3528.8618L13577.0759,-3528.8795L13577.0634,-3528.8836L13577.0311,-3528.8898L13577.0111,-3528.8938L13576.9771,-3528.9169L13576.918,-3528.949L13576.889,-3528.9572L13576.8442,-3528.9593L13576.8257,-3528.9676L13576.8065,-3528.9773L13576.7975,-3528.98L13576.7862,-3528.9818L13576.7676,-3528.9832L13576.7484,-3528.9818L13576.7285,-3528.9771L13576.6915,-3528.9619L13576.6778,-3528.9546L13576.6677,-3528.9519L13576.6667,-3528.9518L13576.6588,-3528.951L13576.6585,-3528.951L13576.6096,-3528.954L13576.5989,-3528.9525L13576.5943,-3528.9513L13576.5906,-3528.9492L13576.58,-3528.938L13576.5692,-3528.92L13576.5583,-3528.9L13576.5457,-3528.8913L13576.5307,-3528.886L13576.5158,-3528.8771L13576.5007,-3528.8648L13576.4891,-3528.8478L13576.4832,-3528.8393L13576.4774,-3528.8355L13576.4707,-3528.8321L13576.4641,-3528.8304L13576.4566,-3528.8309L13576.4251,-3528.8368L13576.4186,-3528.8369L13576.4106,-3528.836L13576.3995,-3528.8321L13576.3713,-3528.8253L13576.3541,-3528.8219L13576.3373,-3528.8158L13576.3246,-3528.8069L13576.3102,-3528.7928L13576.3038,-3528.7865L13576.2789,-3528.7824L13576.1968,-3528.7896L13576.1814,-3528.7928L13576.1666,-3528.7962L13576.1162,-3528.8158L13576.0853,-3528.826L13576.068,-3528.8293L13576.0482,-3528.8293L13576.03,-3528.8267L13576.0147,-3528.824L13575.9575,-3528.8056L13575.9351,-3528.8056L13575.9027,-3528.8117L13575.8935,-3528.8129L13575.8869,-3528.8131L13575.8812,-3528.8125L13575.8721,-3528.8098L13575.8551,-3528.8015L13575.8477,-3528.8015L13575.8333,-3528.8029L13575.8278,-3528.8035L13575.7996,-3528.8137L13575.778,-3528.8273L13575.7556,-3528.8462L13575.7522,-3528.8491L13575.7453,-3528.8519L13575.7364,-3528.8511L13575.7248,-3528.846L13575.7147,-3528.8389L13575.7007,-3528.8239L13575.6961,-3528.8189L13575.679,-3528.7981L13575.6712,-3528.7926L13575.6616,-3528.7862L13575.6511,-3528.7801L13575.64,-3528.7756L13575.6156,-3528.7738L13575.5886,-3528.7738L13575.5751,-3528.7721L13575.5029,-3528.7538L13575.4371,-3528.7415L13575.4047,-3528.7394L13575.3433,-3528.7449L13575.3165,-3528.7435L13575.2382,-3528.7441L13575.2002,-3528.7462L13575.1769,-3528.7441L13575.1652,-3528.7414L13575.1584,-3528.7392L13575.1532,-3528.7383L13575.1437,-3528.7394L13575.1355,-3528.7428L13575.1007,-3528.7551L13575.0888,-3528.7573L13575.0833,-3528.7573L13575.0787,-3528.7563L13575.0474,-3528.7465L13575.0244,-3528.7371L13575.0166,-3528.736L13575,-3528.7362L13574.9666,-3528.7366L13574.9344,-3528.7388L13574.9248,-3528.7381L13574.9179,-3528.736L13574.9111,-3528.7332L13574.9029,-3528.7279L13574.8589,-3528.6904L13574.833,-3528.6671L13574.8205,-3528.6651L13574.8082,-3528.6633L13574.782,-3528.6615L13574.75,-3528.6631L13574.7161,-3528.6699L13574.7026,-3528.6654L13574.6929,-3528.6636L13574.6816,-3528.6633L13574.662,-3528.6656L13574.6447,-3528.6705L13574.6261,-3528.6767L13574.6134,-3528.6789L13574.6055,-3528.6782L13574.6003,-3528.6778L13574.5928,-3528.6754L13574.5848,-3528.673L13574.576,-3528.6702L13574.569,-3528.6671L13574.5607,-3528.6655L13574.5524,-3528.6659L13574.532,-3528.6658L13574.5137,-3528.6672L13574.4967,-3528.6693L13574.4876,-3528.6711L13574.4801,-3528.6726L13574.4735,-3528.674L13574.4685,-3528.6746L13574.4646,-3528.6751L13574.4555,-3528.6754L13574.445,-3528.6741L13574.4373,-3528.6717L13574.4238,-3528.6656L13574.4082,-3528.6589L13574.4017,-3528.6546L13574.3937,-3528.6495L13574.386,-3528.6447L13574.3784,-3528.6416L13574.3711,-3528.6401L13574.3645,-3528.6408L13574.3601,-3528.6415L13574.3425,-3528.6465L13574.3286,-3528.6563L13574.3105,-3528.6684L13574.2999,-3528.6753L13574.2909,-3528.6838L13574.2811,-3528.6924L13574.2744,-3528.6964L13574.2569,-3528.7022L13574.2398,-3528.7051L13574.2231,-3528.7105L13574.2089,-3528.714L13574.2017,-3528.7168L13574.1951,-3528.7192L13574.1871,-3528.722L13574.1814,-3528.7231L13574.1761,-3528.7223L13574.1689,-3528.721L13574.1667,-3528.7201L13574.1534,-3528.7144L13574.1385,-3528.7103L13574.1178,-3528.7071L13574.1097,-3528.7044L13574.096,-3528.6996L13574.0883,-3528.6965L13574.0777,-3528.6948L13574.0642,-3528.6938L13574.0426,-3528.693L13574.0263,-3528.6944L13574.0042,-3528.6938L13573.9963,-3528.6945L13573.9739,-3528.6954L13573.9474,-3528.6983L13573.9301,-3528.7003L13573.9111,-3528.7018L13573.8859,-3528.702L13573.8447,-3528.7026L13573.8281,-3528.7017L13573.8095,-3528.7115L13573.8011,-3528.7164L13573.7854,-3528.7278L13573.7723,-3528.7371L13573.75,-3528.7433L13573.7355,-3528.7438L13573.7204,-3528.7435L13573.7087,-3528.7443L13573.7011,-3528.7453L13573.6887,-3528.7483L13573.6836,-3528.75L13573.6707,-3528.7546L13573.6553,-3528.7587L13573.6379,-3528.7672L13573.6284,-3528.7705L13573.6146,-3528.7724L13573.6056,-3528.7731L13573.5833,-3528.7708L13573.5745,-3528.7693L13573.5605,-3528.7662L13573.5429,-3528.763L13573.5237,-3528.7614L13573.5073,-3528.76L13573.4951,-3528.7576L13573.4876,-3528.7513L13573.4823,-3528.7433L13573.4754,-3528.7349L13573.4606,-3528.7226L13573.4445,-3528.7161L13573.4264,-3528.7133L13573.4201,-3528.7099L13573.4117,-3528.7076L13573.4046,-3528.7061L13573.3897,-3528.7035L13573.379,-3528.6995L13573.3704,-3528.6919L13573.3626,-3528.6806L13573.3566,-3528.6654L13573.3528,-3528.6508L13573.3495,-3528.642L13573.3484,-3528.6344L13573.3485,-3528.6283L13573.35,-3528.6231L13573.3543,-3528.6109L13573.3582,-3528.6031L13573.3627,-3528.5889L13573.3625,-3528.5742L13573.3587,-3528.5558L13573.3551,-3528.5441L13573.3503,-3528.5364L13573.344,-3528.5288L13573.3336,-3528.5193L13573.3333,-3528.5191L13573.3171,-3528.5087L13573.3023,-3528.4995L13573.2781,-3528.4908L13573.2608,-3528.486L13573.2534,-3528.4842L13573.2333,-3528.4823L13573.2184,-3528.4815L13573.1975,-3528.4785L13573.1816,-3528.4769L13573.1593,-3528.4796L13573.1467,-3528.4804L13573.1359,-3528.4808L13573.1215,-3528.4824L13573.1136,-3528.4835L13573.1037,-3528.4835L13573.0848,-3528.4819L13573.0678,-3528.478L13573.0505,-3528.4764L13573.0429,-3528.4747L13573.0332,-3528.4711L13573.0273,-3528.4658L13573.0228,-3528.4611L13573.0163,-3528.4554L13573.0123,-3528.4523L13573.0053,-3528.4508L13572.9973,-3528.4493L13572.9794,-3528.446L13572.9669,-3528.4388L13572.948,-3528.4309L13572.9426,-3528.427L13572.9386,-3528.423L13572.9359,-3528.4173L13572.9335,-3528.407L13572.9327,-3528.3974L13572.9239,-3528.3817L13572.9207,-3528.3769L13572.9196,-3528.3729L13572.9192,-3528.3672L13572.9202,-3528.3586L13572.9236,-3528.3529L13572.9269,-3528.3459L13572.9309,-3528.3373L13572.9327,-3528.3333L13572.9368,-3528.3243L13572.9416,-3528.3108L13572.9453,-3528.3016L13572.9495,-3528.2931L13572.9501,-3528.2904L13572.9505,-3528.2829L13572.9513,-3528.2731L13572.9532,-3528.2636L13572.9613,-3528.2502L13572.9646,-3528.2346L13572.9681,-3528.2188L13572.972,-3528.2054L13572.9766,-3528.1941L13572.9794,-3528.1841L13572.9824,-3528.1713L13572.9887,-3528.1568L13572.9954,-3528.1428L13572.9954,-3528.1247L13572.9991,-3528.1075L13573.0001,-3528.0956L13573.0001,-3528.0866L13573.0003,-3528.0764L13572.9992,-3528.0601L13572.9966,-3528.0466L13572.9911,-3528.0266L13572.9879,-3528.0201L13572.9806,-3528.0097L13572.9729,-3528.0015L13572.9694,-3527.9957L13572.9665,-3527.9883L13572.9647,-3527.983L13572.9627,-3527.9714L13572.9627,-3527.956L13572.9646,-3527.9409L13572.9665,-3527.9349L13572.9694,-3527.9287L13572.9724,-3527.923L13572.9761,-3527.9183L13572.9797,-3527.915L13572.9827,-3527.9124L13572.9871,-3527.9092L13572.9918,-3527.907L13573.0006,-3527.905L13573.011,-3527.9042L13573.0236,-3527.9038L13573.0372,-3527.8968L13573.0544,-3527.888L13573.0577,-3527.8857L13573.0626,-3527.8784L13573.0649,-3527.8733L13573.0664,-3527.8703L13573.0683,-3527.8664L13573.0721,-3527.8619L13573.0769,-3527.8579L13573.0838,-3527.8538L13573.0893,-3527.8496L13573.0951,-3527.8453L13573.1051,-3527.8397L13573.1152,-3527.8292L13573.1293,-3527.8118L13573.1333,-3527.8079L13573.1419,-3527.8005L13573.1507,-3527.7946L13573.1543,-3527.7904L13573.1561,-3527.7863L13573.1557,-3527.7819L13573.1534,-3527.7779L13573.1509,-3527.7761L13573.1469,-3527.773L13573.1315,-3527.7611L13573.1206,-3527.7505L13573.1035,-3527.7343L13573.0888,-3527.7177L13573.0797,-3527.7065L13573.0742,-3527.7012L13573.0684,-3527.6971L13573.0633,-3527.687L13573.054,-3527.6766L13573.0466,-3527.6633L13573.0428,-3527.6574L13573.0349,-3527.6494L13573.0279,-3527.643L13573.0146,-3527.6279L13573.0035,-3527.6124L13573.0021,-3527.6104L13572.9924,-3527.597L13572.9772,-3527.5873L13572.9764,-3527.5868L13572.9622,-3527.577L13572.9551,-3527.5743L13572.9439,-3527.5702L13572.9382,-3527.5677L13572.932,-3527.5629L13572.9282,-3527.556L13572.9254,-3527.5427L13572.9182,-3527.5287L13572.9134,-3527.5144L13572.9042,-3527.5018L13572.9028,-3527.5L13572.8986,-3527.4949L13572.8926,-3527.4802L13572.8896,-3527.4749L13572.8863,-3527.4698L13572.8808,-3527.4646L13572.8764,-3527.4609L13572.8685,-3527.4527L13572.8614,-3527.4486L13572.853,-3527.4446L13572.8459,-3527.4414L13572.8376,-3527.4376L13572.8286,-3527.4309L13572.8206,-3527.4228L13572.8167,-3527.4121L13572.8136,-3527.4059L13572.8084,-3527.3977L13572.8027,-3527.3936L13572.7975,-3527.3899L13572.7861,-3527.3772L13572.7701,-3527.3691L13572.7524,-3527.3683L13572.7442,-3527.3651L13572.7365,-3527.3631L13572.7279,-3527.3606L13572.7196,-3527.3596L13572.7071,-3527.3567L13572.6989,-3527.3539L13572.6847,-3527.3459L13572.6741,-3527.3343L13572.6641,-3527.3212L13572.6556,-3527.3122L13572.65,-3527.3036L13572.6462,-3527.2952L13572.6426,-3527.2826L13572.6354,-3527.2647L13572.6283,-3527.2481L13572.6212,-3527.2376L13572.6116,-3527.2239L13572.6037,-3527.2146L13572.5965,-3527.2073L13572.5842,-3527.1931L13572.5754,-3527.1846L13572.5696,-3527.177L13572.5666,-3527.1709L13572.5645,-3527.1605L13572.564,-3527.1416L13572.5649,-3527.1332L13572.5663,-3527.1252L13572.5698,-3527.1179L13572.5799,-3527.0997L13572.5901,-3527.0872L13572.6061,-3527.0757L13572.6111,-3527.0678L13572.6167,-3527.0607L13572.6221,-3527.0576L13572.6299,-3527.0525L13572.6374,-3527.0496L13572.6442,-3527.0437L13572.6519,-3527.0354L13572.6604,-3527.0244L13572.6653,-3527.0191L13572.6757,-3527.0054L13572.681,-3526.9984L13572.685,-3526.9921L13572.687,-3526.9868L13572.6906,-3526.9738L13572.692,-3526.9672L13572.6934,-3526.9627L13572.6929,-3526.9456L13572.6956,-3526.933L13572.7074,-3526.9138L13572.7087,-3526.9076L13572.7127,-3526.8948L13572.7162,-3526.8858L13572.718,-3526.877L13572.7187,-3526.8711L13572.7191,-3526.8676L13572.7201,-3526.8516L13572.7235,-3526.8385L13572.7263,-3526.8234L13572.7278,-3526.8118L13572.7276,-3526.8011L13572.7268,-3526.7894L13572.7282,-3526.784L13572.7315,-3526.7801L13572.7349,-3526.7766L13572.7235,-3526.7572L13572.7175,-3526.7478L13572.7155,-3526.7418L13572.7124,-3526.7311L13572.7117,-3526.7242L13572.7077,-3526.7173L13572.6991,-3526.7042L13572.6807,-3526.6865L13572.6721,-3526.6829L13572.6642,-3526.6785L13572.6614,-3526.6752L13572.6573,-3526.6667L13572.6564,-3526.6647L13572.6518,-3526.6529L13572.6413,-3526.6349L13572.636,-3526.6204L13572.6297,-3526.6102L13572.614,-3526.606L13572.6058,-3526.6044L13572.5942,-3526.6004L13572.5879,-3526.5985L13572.5836,-3526.595L13572.5789,-3526.5908L13572.572,-3526.5809L13572.5704,-3526.5773L13572.5687,-3526.5754L13572.5621,-3526.5732L13572.5544,-3526.571L13572.5457,-3526.5684L13572.5341,-3526.5671L13572.5243,-3526.5669L13572.5169,-3526.5644L13572.5126,-3526.5613L13572.5039,-3526.5582L13572.5,-3526.5578L13572.4965,-3526.5574L13572.486,-3526.5585L13572.4789,-3526.5599L13572.4714,-3526.5625L13572.4615,-3526.5645L13572.4522,-3526.567L13572.4383,-3526.5707L13572.4301,-3526.5717L13572.4234,-3526.5711L13572.4159,-3526.5697L13572.4077,-3526.5665L13572.4013,-3526.5659L13572.3916,-3526.5647L13572.3816,-3526.5641L13572.3671,-3526.5594L13572.3595,-3526.5581L13572.347,-3526.5561L13572.3356,-3526.5555L13572.3306,-3526.5563L13572.3227,-3526.5597L13572.314,-3526.5631L13572.3069,-3526.5642L13572.2998,-3526.5639L13572.2884,-3526.5649L13572.2738,-3526.5661L13572.2651,-3526.5663L13572.2585,-3526.5676L13572.2456,-3526.5707L13572.2341,-3526.5749L13572.2259,-3526.5804L13572.2172,-3526.5847L13572.2093,-3526.5877L13572.203,-3526.5885L13572.2025,-3526.5886L13572.1945,-3526.5884L13572.1817,-3526.5888L13572.1729,-3526.5857L13572.1557,-3526.5819L13572.1463,-3526.5795L13572.1404,-3526.5768L13572.1343,-3526.5722L13572.1289,-3526.5665L13572.1232,-3526.5607L13572.1202,-3526.5565L13572.1112,-3526.5477L13572.1019,-3526.5455L13572.0919,-3526.5446L13572.0812,-3526.545L13572.0701,-3526.5461L13572.0528,-3526.549L13572.0419,-3526.5496L13572.0354,-3526.549L13572.0161,-3526.5432L13572.0023,-3526.5394L13571.9923,-3526.5355L13571.9833,-3526.5317L13571.9826,-3526.5311L13571.9776,-3526.527L13571.9738,-3526.5222L13571.9687,-3526.5179L13571.9594,-3526.5166L13571.9517,-3526.5158L13571.9264,-3526.5145L13571.9057,-3526.5129L13571.8947,-3526.5133L13571.8852,-3526.514L13571.8777,-3526.5169L13571.8667,-3526.5216L13571.8453,-3526.5299L13571.8359,-3526.5324L13571.8233,-3526.5362L13571.8139,-3526.5392L13571.8013,-3526.5405L13571.7887,-3526.5405L13571.7779,-3526.5393L13571.7705,-3526.5376L13571.7573,-3526.5325L13571.7373,-3526.5162L13571.733,-3526.5087L13571.7225,-3526.4971L13571.7145,-3526.4894L13571.7086,-3526.4829L13571.7018,-3526.4758L13571.6926,-3526.4677L13571.6857,-3526.4607L13571.6793,-3526.4578L13571.6751,-3526.4566L13571.6668,-3526.4564L13571.6667,-3526.4564L13571.657,-3526.4555L13571.6479,-3526.4547L13571.6399,-3526.4527L13571.6344,-3526.4501L13571.631,-3526.4467L13571.6252,-3526.4388L13571.6209,-3526.4354L13571.6141,-3526.4335L13571.6075,-3526.4279L13571.6011,-3526.4191L13571.5983,-3526.4155L13571.5946,-3526.4096L13571.5901,-3526.3979L13571.5887,-3526.3927L13571.5871,-3526.3862L13571.5827,-3526.3785L13571.5777,-3526.3736L13571.5696,-3526.3681L13571.5498,-3526.3517L13571.5356,-3526.3419L13571.5273,-3526.3367L13571.5261,-3526.3354L13571.5154,-3526.3239L13571.5075,-3526.3135L13571.5017,-3526.3029L13571.4963,-3526.2958L13571.4906,-3526.2933L13571.4855,-3526.2915L13571.466,-3526.289L13571.4422,-3526.2911L13571.4198,-3526.2922L13571.4116,-3526.292L13571.4067,-3526.2902L13571.4018,-3526.2873L13571.3971,-3526.2824L13571.3943,-3526.277L13571.389,-3526.2677L13571.3875,-3526.2622L13571.3837,-3526.258L13571.3772,-3526.2328L13571.3734,-3526.2185L13571.3702,-3526.2119L13571.3611,-3526.202L13571.3571,-3526.1976L13571.3467,-3526.1892L13571.3392,-3526.1876L13571.3316,-3526.1897L13571.3222,-3526.1923L13571.3126,-3526.1941L13571.3059,-3526.1943L13571.2996,-3526.1931L13571.2931,-3526.1908L13571.2821,-3526.1773L13571.2695,-3526.1576L13571.2636,-3526.1492L13571.2593,-3526.1455L13571.2533,-3526.1419L13571.2457,-3526.1358L13571.236,-3526.1254L13571.2222,-3526.1145L13571.2049,-3526.1055L13571.201,-3526.1035L13571.1929,-3526.1009L13571.1858,-3526.0995L13571.1749,-3526.0994L13571.1632,-3526.0982L13571.1548,-3526.0967L13571.135,-3526.0935L13571.1247,-3526.0917L13571.1073,-3526.0886L13571.0879,-3526.0842L13571.0716,-3526.0787L13571.0617,-3526.0762L13571.0542,-3526.0737L13571.0364,-3526.0731L13571.0264,-3526.0727L13571.0167,-3526.0728L13571.0063,-3526.0759L13570.9931,-3526.0801L13570.9846,-3526.0813L13570.9764,-3526.0806L13570.9657,-3526.078L13570.9536,-3526.0743L13570.9404,-3526.0736L13570.9307,-3526.0725L13570.9149,-3526.0701L13570.9097,-3526.0696L13570.902,-3526.0688L13570.8995,-3526.0685L13570.8927,-3526.0699L13570.8834,-3526.0722L13570.8757,-3526.0745L13570.8636,-3526.0771L13570.8469,-3526.0854L13570.8333,-3526.0906L13570.8326,-3526.0909L13570.8175,-3526.0939L13570.8098,-3526.0954L13570.8028,-3526.0961L13570.7953,-3526.0978L13570.7894,-3526.1018L13570.7836,-3526.1082L13570.7764,-3526.1148L13570.766,-3526.1286L13570.7619,-3526.1308L13570.7543,-3526.1335L13570.7377,-3526.1379L13570.728,-3526.1391L13570.7221,-3526.1375L13570.7133,-3526.13L13570.7094,-3526.1231L13570.7071,-3526.1202L13570.7045,-3526.1142L13570.7017,-3526.1063L13570.6999,-3526.1022L13570.6972,-3526.0961L13570.694,-3526.0912L13570.6839,-3526.0734L13570.6756,-3526.0651L13570.6643,-3526.0548L13570.6586,-3526.0507L13570.6515,-3526.0465L13570.6461,-3526.0427L13570.6418,-3526.0376L13570.6382,-3526.0323L13570.6356,-3526.025L13570.6315,-3526.0146L13570.6221,-3525.9996L13570.6175,-3525.9913L13570.6077,-3525.9788L13570.6051,-3525.9738L13570.5969,-3525.96L13570.5943,-3525.9556L13570.5897,-3525.9479L13570.5848,-3525.9432L13570.5727,-3525.9312L13570.5699,-3525.9286L13570.5644,-3525.9218L13570.5557,-3525.9153L13570.547,-3525.9074L13570.5396,-3525.9035L13570.5335,-3525.9009L13570.5279,-3525.8987L13570.5229,-3525.8964L13570.5191,-3525.8933L13570.5147,-3525.8899L13570.5112,-3525.8841L13570.4985,-3525.8731L13570.4937,-3525.8667L13570.4821,-3525.8541L13570.4783,-3525.8493L13570.4752,-3525.8437L13570.4719,-3525.8369L13570.4699,-3525.8333L13570.4696,-3525.8328L13570.4634,-3525.8292L13570.4552,-3525.825L13570.4474,-3525.8213L13570.4417,-3525.8179L13570.4259,-3525.8109L13570.4202,-3525.8041L13570.4072,-3525.7914L13570.4021,-3525.7869L13570.3961,-3525.7798L13570.3921,-3525.7751L13570.3878,-3525.7681L13570.3844,-3525.7639L13570.3791,-3525.7591L13570.3753,-3525.7554L13570.3609,-3525.7472L13570.3523,-3525.7445L13570.3419,-3525.7418L13570.3322,-3525.7405L13570.3197,-3525.7419L13570.3125,-3525.7432Z"/>
</g>
</svg>
