<?xml version="1.0" encoding="UTF-8"?>
<svg  xmlns="http://www.w3.org/2000/svg" xmlns:xlink="http://www.w3.org/1999/xlink" xmlns:go="http://purl.org/svgmap/profile" property="geometry,N03_001,N03_002,N03_003,N03_004,N03_005,N03_007" viewBox="13491.2109375 -3515.625 8.7890625 8.7890625" go:dataArea="13491.2109375 -3515.625 8.7890625 8.7890625" >
<metadata>
 <rdf:RDF xmlns:rdf="http://www.w3.org/1999/02/22-rdf-syntax-ns#" xmlns:crs="http://opengis.org/xmldtds/transformations.dtd" xmlns:svg="http://www.w3.org/svg" >
  <rdf:Description>
   <crs:CoordinateReferenceSystem rdf:resource="http://purl.org/crs/84" svg:transform="matrix(100.0,0.0,0.0,-100.0,0.0,0.0)" />
  </rdf:Description>
 </rdf:RDF>
</metadata>
<globalCoordinateSystem srsName="http://purl.org/crs/84" transform="matrix(100.0,0.0,0.0,-100.0,0.0,0.0)" />
<defs>
 <g id="p0" >
  <circle cx="0.0" cy="0.0" r="3" stroke="green" stroke-width="2.0" vector-effect="non-scaling-stroke" />
 </g>
</defs>
<g fill="#0000ff" fill-rule="evenodd" opacity="0.5" >
<path content="兵庫県,,,西脇市,,28213" xlink:title="兵庫県" d="M13500,-3506.8359L13497.8555,-3506.8359L13497.8555,-3506.8388L13497.8604,-3506.8905L13497.8535,-3506.96L13497.8506,-3506.9932L13497.8604,-3507.0151L13497.8708,-3507.0148L13497.8962,-3507.0165L13497.9286,-3507.0248L13497.9967,-3507.0465L13498.0353,-3507.0549L13498.0809,-3507.0641L13498.1206,-3507.0666L13498.1723,-3507.0708L13498.1977,-3507.0783L13498.2475,-3507.0983L13498.2871,-3507.1083L13498.3226,-3507.1125L13498.3333,-3507.1129L13498.349,-3507.1134L13498.3612,-3507.11L13498.3724,-3507.0916L13498.3856,-3507.0791L13498.4018,-3507.0716L13498.4231,-3507.0716L13498.4647,-3507.0733L13498.4687,-3507.0725L13498.5013,-3507.0666L13498.5714,-3507.0516L13498.7044,-3507.0198L13498.8496,-3506.9873L13498.8501,-3506.9871L13498.8821,-3506.9789L13498.8963,-3506.9723L13498.9041,-3506.9663L13498.9105,-3506.9614L13498.9217,-3506.9522L13498.9471,-3506.9447L13498.9816,-3506.9413L13499.0313,-3506.9321L13499.0537,-3506.9313L13499.077,-3506.9247L13499.0953,-3506.9054L13499.1197,-3506.8871L13499.1441,-3506.8779L13499.1667,-3506.8779L13499.2314,-3506.8779L13499.2791,-3506.8804L13499.3207,-3506.8854L13499.3299,-3506.887L13499.3349,-3506.8879L13499.3461,-3506.8888L13499.3644,-3506.8813L13499.3897,-3506.8645L13499.4009,-3506.8629L13499.4212,-3506.8637L13499.4507,-3506.8687L13499.4619,-3506.8754L13499.469,-3506.8804L13499.4822,-3506.8838L13499.5136,-3506.8854L13499.603,-3506.8813L13499.6304,-3506.8821L13499.6468,-3506.8861L13499.6578,-3506.8888L13499.67,-3506.8971L13499.6883,-3506.9155L13499.7015,-3506.9347L13499.7229,-3506.9588L13499.7363,-3506.9571L13499.7559,-3506.9547L13499.774,-3506.9535L13499.7994,-3506.9493L13499.8226,-3506.9433L13499.8458,-3506.9362L13499.8777,-3506.9291L13499.8936,-3506.9231L13499.9147,-3506.9153L13499.943,-3506.9595L13499.9633,-3506.9845L13499.9674,-3506.9948L13499.9676,-3506.9953L13499.9705,-3507.0101L13499.9727,-3507.0245L13499.9916,-3507.0448L13500,-3507.0525Z"/>
<path content="兵庫県,,,丹波市,,28223" xlink:title="兵庫県" d="M13500,-3515.625L13500,-3507.0525L13499.9916,-3507.0448L13499.9727,-3507.0245L13499.9705,-3507.0101L13499.9676,-3506.9953L13499.9674,-3506.9948L13499.9633,-3506.9845L13499.943,-3506.9595L13499.9147,-3506.9153L13499.8936,-3506.9231L13499.8777,-3506.9291L13499.8458,-3506.9362L13499.8226,-3506.9433L13499.7994,-3506.9493L13499.774,-3506.9535L13499.7559,-3506.9547L13499.7363,-3506.9571L13499.7229,-3506.9588L13499.7015,-3506.9347L13499.6883,-3506.9155L13499.67,-3506.8971L13499.6578,-3506.8888L13499.6468,-3506.8861L13499.6304,-3506.8821L13499.603,-3506.8813L13499.5136,-3506.8854L13499.4822,-3506.8838L13499.469,-3506.8804L13499.4619,-3506.8754L13499.4507,-3506.8687L13499.4212,-3506.8637L13499.4009,-3506.8629L13499.3897,-3506.8645L13499.3644,-3506.8813L13499.3461,-3506.8888L13499.3349,-3506.8879L13499.3299,-3506.887L13499.3207,-3506.8854L13499.2791,-3506.8804L13499.2314,-3506.8779L13499.1667,-3506.8779L13499.1441,-3506.8779L13499.1197,-3506.8871L13499.0953,-3506.9054L13499.077,-3506.9247L13499.0537,-3506.9313L13499.0313,-3506.9321L13498.9816,-3506.9413L13498.9471,-3506.9447L13498.9217,-3506.9522L13498.9105,-3506.9614L13498.9041,-3506.9663L13498.8963,-3506.9723L13498.8821,-3506.9789L13498.8501,-3506.9871L13498.8496,-3506.9873L13498.7044,-3507.0198L13498.5714,-3507.0516L13498.5013,-3507.0666L13498.4687,-3507.0725L13498.4647,-3507.0733L13498.4231,-3507.0716L13498.4018,-3507.0716L13498.3856,-3507.0791L13498.3724,-3507.0916L13498.3612,-3507.11L13498.349,-3507.1134L13498.3333,-3507.1129L13498.3226,-3507.1125L13498.2871,-3507.1083L13498.2475,-3507.0983L13498.1977,-3507.0783L13498.1723,-3507.0708L13498.1206,-3507.0666L13498.0809,-3507.0641L13498.0353,-3507.0549L13497.9967,-3507.0465L13497.9286,-3507.0248L13497.8962,-3507.0165L13497.8708,-3507.0148L13497.8604,-3507.0151L13497.8383,-3507.0156L13497.82,-3507.0206L13497.7946,-3507.0357L13497.754,-3507.0541L13497.7042,-3507.0641L13497.6636,-3507.0633L13497.619,-3507.0549L13497.5865,-3507.0415L13497.5631,-3507.029L13497.5347,-3507.0273L13497.5073,-3507.0298L13497.5,-3507.033L13497.488,-3507.0382L13497.4341,-3507.0699L13497.3265,-3507.1401L13497.2778,-3507.1668L13497.2534,-3507.1785L13497.2219,-3507.1826L13497.1834,-3507.1851L13497.1488,-3507.1851L13497.1163,-3507.1776L13497.0899,-3507.1618L13497.0656,-3507.1501L13497.0588,-3507.1489L13497.0453,-3507.1467L13497.0219,-3507.1509L13496.9569,-3507.1643L13496.9224,-3507.1684L13496.9031,-3507.1643L13496.8838,-3507.1568L13496.8564,-3507.1375L13496.8188,-3507.1192L13496.7762,-3507.0833L13496.7082,-3507.0261L13496.6909,-3507.0077L13496.6757,-3506.9918L13496.6667,-3506.9838L13496.6551,-3506.9736L13496.6483,-3506.9676L13496.6158,-3506.9467L13496.5711,-3506.9258L13496.5508,-3506.9158L13496.5376,-3506.9008L13496.5163,-3506.8774L13496.4868,-3506.8365L13496.4864,-3506.8359L13496.022,-3506.8359L13496.0177,-3506.8482L13496.0055,-3506.8624L13495.9954,-3506.8682L13495.9669,-3506.8741L13495.9458,-3506.8805L13495.9314,-3506.8849L13495.8908,-3506.8974L13495.8664,-3506.8974L13495.8339,-3506.8891L13495.8333,-3506.8891L13495.8055,-3506.8874L13495.7873,-3506.8899L13495.7629,-3506.9033L13495.7243,-3506.9258L13495.6989,-3506.9425L13495.6583,-3506.9567L13495.6319,-3506.9592L13495.6136,-3506.9534L13495.5974,-3506.9408L13495.5791,-3506.9174L13495.5659,-3506.9099L13495.5557,-3506.9074L13495.5273,-3506.9066L13495.4979,-3506.9041L13495.4776,-3506.8983L13495.4349,-3506.8849L13495.4217,-3506.8807L13495.4044,-3506.8774L13495.3963,-3506.8816L13495.3862,-3506.8874L13495.3598,-3506.8983L13495.3324,-3506.9008L13495.2745,-3506.8932L13495.2603,-3506.8932L13495.2328,-3506.8991L13495.2136,-3506.9008L13495.2004,-3506.8949L13495.175,-3506.8966L13495.111,-3506.9074L13495.046,-3506.92L13495,-3506.9275L13494.9851,-3506.93L13494.9627,-3506.9425L13494.9465,-3506.9475L13494.9171,-3506.9433L13494.9008,-3506.9358L13494.8968,-3506.9266L13494.8846,-3506.9041L13494.8704,-3506.8924L13494.848,-3506.8866L13494.8237,-3506.8816L13494.781,-3506.864L13494.7384,-3506.8448L13494.716,-3506.8359L13494.6891,-3506.8359L13494.6846,-3506.844L13494.6541,-3506.9066L13494.65,-3506.9266L13494.651,-3506.9459L13494.6561,-3506.9718L13494.6703,-3506.9951L13494.6764,-3507.0135L13494.6724,-3507.0335L13494.6656,-3507.0584L13494.6642,-3507.0636L13494.648,-3507.0811L13494.6459,-3507.0928L13494.651,-3507.1045L13494.6724,-3507.1337L13494.6916,-3507.1596L13494.7018,-3507.1872L13494.7099,-3507.2189L13494.7109,-3507.2481L13494.7201,-3507.2744L13494.7303,-3507.2953L13494.7262,-3507.312L13494.7181,-3507.3287L13494.714,-3507.3546L13494.7069,-3507.3721L13494.6846,-3507.3938L13494.6764,-3507.4022L13494.6733,-3507.4171L13494.6724,-3507.4214L13494.6581,-3507.4807L13494.6571,-3507.4941L13494.6586,-3507.5L13494.6612,-3507.5108L13494.6744,-3507.5324L13494.6805,-3507.5533L13494.6774,-3507.5725L13494.6632,-3507.6143L13494.651,-3507.651L13494.6388,-3507.6661L13494.5739,-3507.7066L13494.5353,-3507.7216L13494.4997,-3507.7274L13494.4601,-3507.7433L13494.4266,-3507.7567L13494.4124,-3507.7692L13494.4043,-3507.7917L13494.402,-3507.8064L13494.3972,-3507.8377L13494.3891,-3507.9095L13494.3911,-3507.9345L13494.3921,-3507.9613L13494.385,-3507.9871L13494.3769,-3508.0072L13494.3779,-3508.0164L13494.388,-3508.0306L13494.4094,-3508.0548L13494.4479,-3508.0832L13494.4652,-3508.099L13494.4845,-3508.1358L13494.4967,-3508.1675L13494.4926,-3508.2114L13494.4918,-3508.2143L13494.4723,-3508.2873L13494.466,-3508.3199L13494.4634,-3508.3333L13494.4622,-3508.3399L13494.4618,-3508.3488L13494.4601,-3508.3934L13494.4672,-3508.4493L13494.4601,-3508.4961L13494.4449,-3508.532L13494.4246,-3508.5879L13494.4073,-3508.6197L13494.3744,-3508.6539L13494.3707,-3508.6646L13494.3465,-3508.7136L13494.3395,-3508.7308L13494.3379,-3508.7409L13494.3416,-3508.7978L13494.3427,-3508.8529L13494.3406,-3508.8811L13494.3416,-3508.9001L13494.3391,-3508.9459L13494.339,-3508.9473L13494.3416,-3508.9764L13494.3513,-3509.0046L13494.3621,-3509.0253L13494.3674,-3509.0385L13494.3706,-3509.0641L13494.3755,-3509.0778L13494.3964,-3509.1188L13494.4147,-3509.1554L13494.4224,-3509.1667L13494.4297,-3509.1775L13494.4469,-3509.1947L13494.4834,-3509.2237L13494.5103,-3509.2515L13494.5231,-3509.2709L13494.5349,-3509.2819L13494.5842,-3509.3159L13494.5881,-3509.3186L13494.5988,-3509.3309L13494.6004,-3509.3424L13494.5972,-3509.3543L13494.5838,-3509.3688L13494.5511,-3509.3918L13494.5387,-3509.4054L13494.5264,-3509.4279L13494.5199,-3509.4482L13494.5092,-3509.4703L13494.4963,-3509.4826L13494.47,-3509.4993L13494.4533,-3509.5134L13494.4292,-3509.5443L13494.3916,-3509.5941L13494.3636,-3509.6241L13494.3534,-3509.6396L13494.3384,-3509.6762L13494.3303,-3509.6925L13494.3202,-3509.7031L13494.3175,-3509.7045L13494.3078,-3509.7097L13494.2885,-3509.7154L13494.2154,-3509.7278L13494.1667,-3509.7335L13494.1596,-3509.7344L13494.1274,-3509.7339L13494.0565,-3509.7379L13494.0307,-3509.7361L13494.0077,-3509.7348L13493.9964,-3509.7379L13493.9792,-3509.7515L13493.9679,-3509.7674L13493.9593,-3509.7921L13493.9545,-3509.8168L13493.9497,-3509.8309L13493.9416,-3509.8429L13493.9137,-3509.8667L13493.8981,-3509.8834L13493.8836,-3509.9064L13493.8777,-3509.9257L13493.8718,-3509.9743L13493.869,-3510L13493.8675,-3510.0135L13493.8637,-3510.0329L13493.8509,-3510.0483L13493.8385,-3510.0581L13493.8235,-3510.0633L13493.7483,-3510.0739L13493.6871,-3510.0783L13493.6592,-3510.0849L13493.6399,-3510.0964L13493.6307,-3510.1065L13493.6232,-3510.1233L13493.6098,-3510.148L13493.5974,-3510.1625L13493.5668,-3510.1868L13493.5657,-3510.1877L13493.5518,-3510.2014L13493.5308,-3510.2366L13493.5276,-3510.2512L13493.5282,-3510.271L13493.5276,-3510.2855L13493.5212,-3510.2944L13493.5088,-3510.3005L13493.4831,-3510.3058L13493.4635,-3510.3121L13493.4417,-3510.3191L13493.4154,-3510.3319L13493.3848,-3510.3561L13493.3676,-3510.3791L13493.3472,-3510.4147L13493.3445,-3510.4279L13493.344,-3510.45L13493.3392,-3510.4782L13493.3333,-3510.4878L13493.3273,-3510.4976L13493.3166,-3510.5197L13493.3075,-3510.5334L13493.286,-3510.5493L13493.2613,-3510.566L13493.2119,-3510.6149L13493.2089,-3510.6181L13493.2017,-3510.6259L13493.1931,-3510.6409L13493.1775,-3510.678L13493.1609,-3510.7027L13493.1539,-3510.7098L13493.141,-3510.715L13493.126,-3510.7199L13493.1136,-3510.7287L13493.0906,-3510.7583L13493.0766,-3510.7852L13493.0686,-3510.7927L13493.0567,-3510.7975L13493.0428,-3510.8064L13493.0363,-3510.8143L13493.0317,-3510.8333L13493.0251,-3510.8602L13493.0229,-3510.8862L13493.0234,-3510.91L13493.0274,-3510.9561L13493.033,-3511.0034L13493.0386,-3511.0247L13493.0655,-3511.0766L13493.0733,-3511.0968L13493.0813,-3511.1205L13493.1007,-3511.1521L13493.1092,-3511.1749L13493.1184,-3511.2322L13493.1172,-3511.2435L13493.112,-3511.2536L13493.1116,-3511.2606L13493.1186,-3511.2757L13493.1551,-3511.3286L13493.1782,-3511.3558L13493.2014,-3511.3771L13493.2174,-3511.3965L13493.2377,-3511.4133L13493.2477,-3511.4236L13493.2515,-3511.4322L13493.2529,-3511.4427L13493.2519,-3511.4559L13493.2477,-3511.4776L13493.2359,-3511.5134L13493.2335,-3511.5308L13493.2354,-3511.5538L13493.2439,-3511.5728L13493.2576,-3511.5895L13493.2713,-3511.5991L13493.3058,-3511.6104L13493.3333,-3511.6198L13493.3716,-3511.633L13493.3725,-3511.6333L13493.3819,-3511.6363L13493.4133,-3511.6463L13493.4443,-3511.6562L13493.4528,-3511.6589L13493.4772,-3511.6667L13493.4968,-3511.6729L13493.5157,-3511.6818L13493.5327,-3511.697L13493.545,-3511.7152L13493.5497,-3511.7362L13493.5564,-3511.7502L13493.5696,-3511.7649L13493.5984,-3511.7813L13493.6164,-3511.7925L13493.632,-3511.7984L13493.6453,-3511.7976L13493.7001,-3511.7778L13493.7663,-3511.7579L13493.7795,-3511.7587L13493.788,-3511.7638L13493.797,-3511.7735L13493.8022,-3511.7871L13493.8055,-3511.803L13493.8145,-3511.8216L13493.84,-3511.8457L13493.8641,-3511.8593L13493.8759,-3511.8671L13493.8854,-3511.8795L13493.8892,-3511.895L13493.8925,-3511.9198L13493.8963,-3511.9354L13493.9033,-3511.949L13493.9161,-3511.9603L13493.9317,-3511.9703L13493.9501,-3511.9734L13493.9724,-3511.9777L13493.9851,-3511.9839L13493.9993,-3511.9968L13494.0059,-3512.0111L13494.0083,-3512.0243L13494.0083,-3512.0444L13494.0102,-3512.0673L13494.0201,-3512.0938L13494.0381,-3512.1229L13494.0384,-3512.1234L13494.0655,-3512.1578L13494.0886,-3512.1854L13494.0967,-3512.2025L13494.0987,-3512.2106L13494.1014,-3512.2219L13494.1094,-3512.2424L13494.1127,-3512.256L13494.1213,-3512.2762L13494.1406,-3512.3042L13494.1506,-3512.3131L13494.1629,-3512.3182L13494.1667,-3512.3194L13494.2135,-3512.3345L13494.2267,-3512.3415L13494.2456,-3512.3535L13494.2603,-3512.3601L13494.3056,-3512.3814L13494.3123,-3512.3873L13494.3184,-3512.3981L13494.3203,-3512.4129L13494.3198,-3512.4513L13494.3212,-3512.4708L13494.3255,-3512.4976L13494.3261,-3512.5L13494.3326,-3512.5244L13494.3538,-3512.5779L13494.3638,-3512.5961L13494.3799,-3512.6272L13494.3884,-3512.6463L13494.3903,-3512.6591L13494.3879,-3512.6828L13494.3893,-3512.6952L13494.403,-3512.7164L13494.4172,-3512.7382L13494.429,-3512.7603L13494.4446,-3512.7825L13494.4536,-3512.7918L13494.4673,-3512.8008L13494.4754,-3512.8093L13494.4787,-3512.8186L13494.4758,-3512.8287L13494.4621,-3512.838L13494.4522,-3512.8439L13494.4186,-3512.8753L13494.4144,-3512.8846L13494.4092,-3512.9024L13494.4068,-3512.9487L13494.4035,-3512.9646L13494.4032,-3512.9711L13494.4025,-3512.984L13494.4049,-3513.0081L13494.4044,-3513.0278L13494.404,-3513.0461L13494.3969,-3513.0663L13494.3879,-3513.0795L13494.3841,-3513.0888L13494.3841,-3513.102L13494.3851,-3513.1149L13494.3817,-3513.1273L13494.3732,-3513.142L13494.3586,-3513.1583L13494.3137,-3513.1971L13494.299,-3513.2107L13494.2801,-3513.2204L13494.256,-3513.2286L13494.2409,-3513.2386L13494.2324,-3513.2488L13494.2328,-3513.2565L13494.2376,-3513.2643L13494.2645,-3513.286L13494.2967,-3513.326L13494.3041,-3513.3333L13494.3061,-3513.3353L13494.3468,-3513.3714L13494.3543,-3513.3823L13494.3662,-3513.4056L13494.378,-3513.4239L13494.3959,-3513.4429L13494.4031,-3513.4472L13494.4097,-3513.4472L13494.4295,-3513.4413L13494.4531,-3513.4394L13494.4801,-3513.4444L13494.4919,-3513.4503L13494.507,-3513.4553L13494.5226,-3513.4553L13494.5467,-3513.4483L13494.5604,-3513.4479L13494.5784,-3513.4503L13494.5931,-3513.4545L13494.5987,-3513.4588L13494.6011,-3513.4646L13494.6016,-3513.4743L13494.6054,-3513.4844L13494.6167,-3513.5011L13494.6503,-3513.5457L13494.6583,-3513.5543L13494.6673,-3513.5702L13494.6734,-3513.5764L13494.6905,-3513.5896L13494.6907,-3513.5898L13494.7198,-3513.6059L13494.7377,-3513.6191L13494.751,-3513.6323L13494.759,-3513.6416L13494.7718,-3513.6505L13494.7902,-3513.6629L13494.803,-3513.6762L13494.8176,-3513.6975L13494.8276,-3513.7255L13494.8351,-3513.7371L13494.8483,-3513.7531L13494.8597,-3513.7659L13494.8639,-3513.7775L13494.8701,-3513.8086L13494.8743,-3513.8233L13494.8814,-3513.8354L13494.8918,-3513.8443L13494.9107,-3513.8525L13494.9363,-3513.8602L13494.9732,-3513.8688L13494.9954,-3513.8758L13495,-3513.8788L13495.0044,-3513.8816L13495.0162,-3513.8901L13495.0266,-3513.8936L13495.0497,-3513.901L13495.0578,-3513.9076L13495.0639,-3513.9193L13495.0653,-3513.9367L13495.071,-3513.9479L13495.0833,-3513.9573L13495.1022,-3513.9681L13495.1287,-3513.9879L13495.1434,-3514.0035L13495.1571,-3514.0244L13495.1703,-3514.0392L13495.1826,-3514.0473L13495.1977,-3514.0539L13495.2554,-3514.0811L13495.2625,-3514.0881L13495.2653,-3514.0967L13495.2663,-3514.1068L13495.2691,-3514.1153L13495.2828,-3514.1347L13495.2956,-3514.1525L13495.3026,-3514.1634L13495.3059,-3514.1667L13495.3093,-3514.17L13495.3201,-3514.1731L13495.3414,-3514.1731L13495.3509,-3514.1754L13495.3627,-3514.1813L13495.401,-3514.2116L13495.4018,-3514.2121L13495.4341,-3514.2336L13495.4506,-3514.2403L13495.4634,-3514.248L13495.4686,-3514.2573L13495.4696,-3514.2698L13495.4596,-3514.2954L13495.4573,-3514.3055L13495.4573,-3514.3152L13495.4629,-3514.3299L13495.4729,-3514.3478L13495.4842,-3514.375L13495.4894,-3514.4104L13495.4917,-3514.4372L13495.4937,-3514.4434L13495.5017,-3514.4519L13495.5669,-3514.4876L13495.5882,-3514.4961L13495.6119,-3514.5016L13495.6379,-3514.5039L13495.6525,-3514.5078L13495.6908,-3514.5159L13495.7121,-3514.5253L13495.7353,-3514.5428L13495.7532,-3514.5582L13495.7745,-3514.5703L13495.826,-3514.592L13495.8333,-3514.5935L13495.8534,-3514.5974L13495.8974,-3514.6013L13495.9451,-3514.6002L13495.9636,-3514.5951L13495.9896,-3514.5819L13496.0009,-3514.5769L13496.0113,-3514.5769L13496.026,-3514.5846L13496.0595,-3514.6122L13496.0879,-3514.6468L13496.0955,-3514.6631L13496.1043,-3514.6864L13496.1073,-3514.6944L13496.1075,-3514.695L13496.1144,-3514.6956L13496.1189,-3514.6984L13496.1233,-3514.7012L13496.126,-3514.7057L13496.1267,-3514.7187L13496.1247,-3514.7277L13496.1254,-3514.7412L13496.1291,-3514.7525L13496.1306,-3514.7721L13496.1331,-3514.7908L13496.1306,-3514.8118L13496.1301,-3514.8157L13496.1222,-3514.8229L13496.1046,-3514.8364L13496.0928,-3514.8533L13496.0893,-3514.8668L13496.0887,-3514.8905L13496.094,-3514.9204L13496.0934,-3514.9325L13496.0863,-3514.9667L13496.0857,-3514.9851L13496.0878,-3515L13496.0893,-3515.0102L13496.094,-3515.0348L13496.0969,-3515.0546L13496.0928,-3515.0884L13496.0904,-3515.1236L13496.0904,-3515.1564L13496.0852,-3515.1791L13496.0763,-3515.2066L13496.064,-3515.2235L13496.054,-3515.2279L13495.9855,-3515.2424L13495.9699,-3515.2457L13495.9447,-3515.2525L13495.9306,-3515.2592L13495.9094,-3515.2814L13495.8877,-3515.3065L13495.8748,-3515.3141L13495.8571,-3515.3244L13495.8371,-3515.3451L13495.8333,-3515.351L13495.8224,-3515.3678L13495.8125,-3515.3741L13495.7984,-3515.3775L13495.7854,-3515.3765L13495.7631,-3515.3688L13495.7296,-3515.3615L13495.7096,-3515.3606L13495.6814,-3515.3543L13495.6526,-3515.3514L13495.6256,-3515.3495L13495.5926,-3515.3442L13495.5668,-3515.3432L13495.5599,-3515.3429L13495.5439,-3515.3422L13495.5174,-3515.3369L13495.5016,-3515.3364L13495.4716,-3515.3413L13495.3652,-3515.3504L13495.3029,-3515.3601L13495.2717,-3515.3663L13495.2465,-3515.3736L13495.2112,-3515.3789L13495.1906,-3515.3784L13495.1272,-3515.3644L13495.086,-3515.3576L13495.0684,-3515.3596L13495.0396,-3515.3731L13495.0214,-3515.377L13495,-3515.3783L13494.9973,-3515.3784L13494.9167,-3515.375L13494.9038,-3515.3755L13494.895,-3515.3808L13494.885,-3515.3939L13494.8761,-3515.4016L13494.8656,-3515.4108L13494.8444,-3515.4311L13494.8368,-3515.446L13494.8327,-3515.4716L13494.8133,-3515.5078L13494.7933,-3515.5285L13494.7763,-3515.543L13494.7675,-3515.5546L13494.7675,-3515.5643L13494.7904,-3515.611L13494.7954,-3515.625Z"/>
<path content="兵庫県,,多可郡,多可町,,28365" xlink:title="兵庫県" d="M13494.7954,-3515.625L13494.7904,-3515.611L13494.7675,-3515.5643L13494.7675,-3515.5546L13494.7763,-3515.543L13494.7933,-3515.5285L13494.8133,-3515.5078L13494.8327,-3515.4716L13494.8368,-3515.446L13494.8444,-3515.4311L13494.8656,-3515.4108L13494.8761,-3515.4016L13494.885,-3515.3939L13494.895,-3515.3808L13494.9038,-3515.3755L13494.9167,-3515.375L13494.9973,-3515.3784L13495,-3515.3783L13495.0214,-3515.377L13495.0396,-3515.3731L13495.0684,-3515.3596L13495.086,-3515.3576L13495.1272,-3515.3644L13495.1906,-3515.3784L13495.2112,-3515.3789L13495.2465,-3515.3736L13495.2717,-3515.3663L13495.3029,-3515.3601L13495.3652,-3515.3504L13495.4716,-3515.3413L13495.5016,-3515.3364L13495.5174,-3515.3369L13495.5439,-3515.3422L13495.5599,-3515.3429L13495.5668,-3515.3432L13495.5926,-3515.3442L13495.6256,-3515.3495L13495.6526,-3515.3514L13495.6814,-3515.3543L13495.7096,-3515.3606L13495.7296,-3515.3615L13495.7631,-3515.3688L13495.7854,-3515.3765L13495.7984,-3515.3775L13495.8125,-3515.3741L13495.8224,-3515.3678L13495.8333,-3515.351L13495.8371,-3515.3451L13495.8571,-3515.3244L13495.8748,-3515.3141L13495.8877,-3515.3065L13495.9094,-3515.2814L13495.9306,-3515.2592L13495.9447,-3515.2525L13495.9699,-3515.2457L13495.9855,-3515.2424L13496.054,-3515.2279L13496.064,-3515.2235L13496.0763,-3515.2066L13496.0852,-3515.1791L13496.0904,-3515.1564L13496.0904,-3515.1236L13496.0928,-3515.0884L13496.0969,-3515.0546L13496.094,-3515.0348L13496.0893,-3515.0102L13496.0878,-3515L13496.0857,-3514.9851L13496.0863,-3514.9667L13496.0934,-3514.9325L13496.094,-3514.9204L13496.0887,-3514.8905L13496.0893,-3514.8668L13496.0928,-3514.8533L13496.1046,-3514.8364L13496.1222,-3514.8229L13496.1301,-3514.8157L13496.1306,-3514.8118L13496.1331,-3514.7908L13496.1306,-3514.7721L13496.1291,-3514.7525L13496.1254,-3514.7412L13496.1247,-3514.7277L13496.1267,-3514.7187L13496.126,-3514.7057L13496.1233,-3514.7012L13496.1189,-3514.6984L13496.1144,-3514.6956L13496.1075,-3514.695L13496.1073,-3514.6944L13496.1043,-3514.6864L13496.0955,-3514.6631L13496.0879,-3514.6468L13496.0595,-3514.6122L13496.026,-3514.5846L13496.0113,-3514.5769L13496.0009,-3514.5769L13495.9896,-3514.5819L13495.9636,-3514.5951L13495.9451,-3514.6002L13495.8974,-3514.6013L13495.8534,-3514.5974L13495.8333,-3514.5935L13495.826,-3514.592L13495.7745,-3514.5703L13495.7532,-3514.5582L13495.7353,-3514.5428L13495.7121,-3514.5253L13495.6908,-3514.5159L13495.6525,-3514.5078L13495.6379,-3514.5039L13495.6119,-3514.5016L13495.5882,-3514.4961L13495.5669,-3514.4876L13495.5017,-3514.4519L13495.4937,-3514.4434L13495.4917,-3514.4372L13495.4894,-3514.4104L13495.4842,-3514.375L13495.4729,-3514.3478L13495.4629,-3514.3299L13495.4573,-3514.3152L13495.4573,-3514.3055L13495.4596,-3514.2954L13495.4696,-3514.2698L13495.4686,-3514.2573L13495.4634,-3514.248L13495.4506,-3514.2403L13495.4341,-3514.2336L13495.4018,-3514.2121L13495.401,-3514.2116L13495.3627,-3514.1813L13495.3509,-3514.1754L13495.3414,-3514.1731L13495.3201,-3514.1731L13495.3093,-3514.17L13495.3059,-3514.1667L13495.3026,-3514.1634L13495.2956,-3514.1525L13495.2828,-3514.1347L13495.2691,-3514.1153L13495.2663,-3514.1068L13495.2653,-3514.0967L13495.2625,-3514.0881L13495.2554,-3514.0811L13495.1977,-3514.0539L13495.1826,-3514.0473L13495.1703,-3514.0392L13495.1571,-3514.0244L13495.1434,-3514.0035L13495.1287,-3513.9879L13495.1022,-3513.9681L13495.0833,-3513.9573L13495.071,-3513.9479L13495.0653,-3513.9367L13495.0639,-3513.9193L13495.0578,-3513.9076L13495.0497,-3513.901L13495.0266,-3513.8936L13495.0162,-3513.8901L13495.0044,-3513.8816L13495,-3513.8788L13494.9954,-3513.8758L13494.9732,-3513.8688L13494.9363,-3513.8602L13494.9107,-3513.8525L13494.8918,-3513.8443L13494.8814,-3513.8354L13494.8743,-3513.8233L13494.8701,-3513.8086L13494.8639,-3513.7775L13494.8597,-3513.7659L13494.8483,-3513.7531L13494.8351,-3513.7371L13494.8276,-3513.7255L13494.8176,-3513.6975L13494.803,-3513.6762L13494.7902,-3513.6629L13494.7718,-3513.6505L13494.759,-3513.6416L13494.751,-3513.6323L13494.7377,-3513.6191L13494.7198,-3513.6059L13494.6907,-3513.5898L13494.6905,-3513.5896L13494.6734,-3513.5764L13494.6673,-3513.5702L13494.6583,-3513.5543L13494.6503,-3513.5457L13494.6167,-3513.5011L13494.6054,-3513.4844L13494.6016,-3513.4743L13494.6011,-3513.4646L13494.5987,-3513.4588L13494.5931,-3513.4545L13494.5784,-3513.4503L13494.5604,-3513.4479L13494.5467,-3513.4483L13494.5226,-3513.4553L13494.507,-3513.4553L13494.4919,-3513.4503L13494.4801,-3513.4444L13494.4531,-3513.4394L13494.4295,-3513.4413L13494.4097,-3513.4472L13494.4031,-3513.4472L13494.3959,-3513.4429L13494.378,-3513.4239L13494.3662,-3513.4056L13494.3543,-3513.3823L13494.3468,-3513.3714L13494.3061,-3513.3353L13494.3041,-3513.3333L13494.2967,-3513.326L13494.2645,-3513.286L13494.2376,-3513.2643L13494.2328,-3513.2565L13494.2324,-3513.2488L13494.2409,-3513.2386L13494.256,-3513.2286L13494.2801,-3513.2204L13494.299,-3513.2107L13494.3137,-3513.1971L13494.3586,-3513.1583L13494.3732,-3513.142L13494.3817,-3513.1273L13494.3851,-3513.1149L13494.3841,-3513.102L13494.3841,-3513.0888L13494.3879,-3513.0795L13494.3969,-3513.0663L13494.404,-3513.0461L13494.4044,-3513.0278L13494.4049,-3513.0081L13494.4025,-3512.984L13494.4032,-3512.9711L13494.4035,-3512.9646L13494.4068,-3512.9487L13494.4092,-3512.9024L13494.4144,-3512.8846L13494.4186,-3512.8753L13494.4522,-3512.8439L13494.4621,-3512.838L13494.4758,-3512.8287L13494.4787,-3512.8186L13494.4754,-3512.8093L13494.4673,-3512.8008L13494.4536,-3512.7918L13494.4446,-3512.7825L13494.429,-3512.7603L13494.4172,-3512.7382L13494.403,-3512.7164L13494.3893,-3512.6952L13494.3879,-3512.6828L13494.3903,-3512.6591L13494.3884,-3512.6463L13494.3799,-3512.6272L13494.3638,-3512.5961L13494.3538,-3512.5779L13494.3326,-3512.5244L13494.3261,-3512.5L13494.3255,-3512.4976L13494.3212,-3512.4708L13494.3198,-3512.4513L13494.3203,-3512.4129L13494.3184,-3512.3981L13494.3123,-3512.3873L13494.3056,-3512.3814L13494.2603,-3512.3601L13494.2456,-3512.3535L13494.2267,-3512.3415L13494.2135,-3512.3345L13494.1667,-3512.3194L13494.1629,-3512.3182L13494.1506,-3512.3131L13494.1406,-3512.3042L13494.1213,-3512.2762L13494.1127,-3512.256L13494.1094,-3512.2424L13494.1014,-3512.2219L13494.0987,-3512.2106L13494.0967,-3512.2025L13494.0886,-3512.1854L13494.0655,-3512.1578L13494.0384,-3512.1234L13494.0381,-3512.1229L13494.0201,-3512.0938L13494.0102,-3512.0673L13494.0083,-3512.0444L13494.0083,-3512.0243L13494.0059,-3512.0111L13493.9993,-3511.9968L13493.9851,-3511.9839L13493.9724,-3511.9777L13493.9501,-3511.9734L13493.9317,-3511.9703L13493.9161,-3511.9603L13493.9033,-3511.949L13493.8963,-3511.9354L13493.8925,-3511.9198L13493.8892,-3511.895L13493.8854,-3511.8795L13493.8759,-3511.8671L13493.8641,-3511.8593L13493.84,-3511.8457L13493.8145,-3511.8216L13493.8055,-3511.803L13493.8022,-3511.7871L13493.797,-3511.7735L13493.788,-3511.7638L13493.7795,-3511.7587L13493.7663,-3511.7579L13493.7001,-3511.7778L13493.6453,-3511.7976L13493.632,-3511.7984L13493.6164,-3511.7925L13493.5984,-3511.7813L13493.5696,-3511.7649L13493.5564,-3511.7502L13493.5497,-3511.7362L13493.545,-3511.7152L13493.5327,-3511.697L13493.5157,-3511.6818L13493.4968,-3511.6729L13493.4772,-3511.6667L13493.4528,-3511.6589L13493.4443,-3511.6562L13493.4133,-3511.6463L13493.3819,-3511.6363L13493.3725,-3511.6333L13493.3716,-3511.633L13493.3333,-3511.6198L13493.3058,-3511.6104L13493.2713,-3511.5991L13493.2576,-3511.5895L13493.2439,-3511.5728L13493.2354,-3511.5538L13493.2335,-3511.5308L13493.2359,-3511.5134L13493.2477,-3511.4776L13493.2519,-3511.4559L13493.2529,-3511.4427L13493.2515,-3511.4322L13493.2477,-3511.4236L13493.2377,-3511.4133L13493.2174,-3511.3965L13493.2014,-3511.3771L13493.1782,-3511.3558L13493.1551,-3511.3286L13493.1186,-3511.2757L13493.1116,-3511.2606L13493.112,-3511.2536L13493.1172,-3511.2435L13493.1184,-3511.2322L13493.1092,-3511.1749L13493.1007,-3511.1521L13493.0813,-3511.1205L13493.0733,-3511.0968L13493.0655,-3511.0766L13493.0386,-3511.0247L13493.033,-3511.0034L13493.0274,-3510.9561L13493.0234,-3510.91L13493.0229,-3510.8862L13493.0251,-3510.8602L13493.0317,-3510.8333L13493.0363,-3510.8143L13493.0428,-3510.8064L13493.0567,-3510.7975L13493.0686,-3510.7927L13493.0766,-3510.7852L13493.0906,-3510.7583L13493.1136,-3510.7287L13493.126,-3510.7199L13493.141,-3510.715L13493.1539,-3510.7098L13493.1609,-3510.7027L13493.1775,-3510.678L13493.1931,-3510.6409L13493.2017,-3510.6259L13493.2089,-3510.6181L13493.2119,-3510.6149L13493.2613,-3510.566L13493.286,-3510.5493L13493.3075,-3510.5334L13493.3166,-3510.5197L13493.3273,-3510.4976L13493.3333,-3510.4878L13493.3392,-3510.4782L13493.344,-3510.45L13493.3445,-3510.4279L13493.3472,-3510.4147L13493.3676,-3510.3791L13493.3848,-3510.3561L13493.4154,-3510.3319L13493.4417,-3510.3191L13493.4635,-3510.3121L13493.4831,-3510.3058L13493.5088,-3510.3005L13493.5212,-3510.2944L13493.5276,-3510.2855L13493.5282,-3510.271L13493.5276,-3510.2512L13493.5308,-3510.2366L13493.5518,-3510.2014L13493.5657,-3510.1877L13493.5668,-3510.1868L13493.5974,-3510.1625L13493.6098,-3510.148L13493.6232,-3510.1233L13493.6307,-3510.1065L13493.6399,-3510.0964L13493.6592,-3510.0849L13493.6871,-3510.0783L13493.7483,-3510.0739L13493.8235,-3510.0633L13493.8385,-3510.0581L13493.8509,-3510.0483L13493.8637,-3510.0329L13493.8675,-3510.0135L13493.869,-3510L13493.8718,-3509.9743L13493.8777,-3509.9257L13493.8836,-3509.9064L13493.8981,-3509.8834L13493.9137,-3509.8667L13493.9416,-3509.8429L13493.9497,-3509.8309L13493.9545,-3509.8168L13493.9593,-3509.7921L13493.9679,-3509.7674L13493.9792,-3509.7515L13493.9964,-3509.7379L13494.0077,-3509.7348L13494.0307,-3509.7361L13494.0565,-3509.7379L13494.1274,-3509.7339L13494.1596,-3509.7344L13494.1667,-3509.7335L13494.2154,-3509.7278L13494.2885,-3509.7154L13494.3078,-3509.7097L13494.3175,-3509.7045L13494.3202,-3509.7031L13494.3303,-3509.6925L13494.3384,-3509.6762L13494.3534,-3509.6396L13494.3636,-3509.6241L13494.3916,-3509.5941L13494.4292,-3509.5443L13494.4533,-3509.5134L13494.47,-3509.4993L13494.4963,-3509.4826L13494.5092,-3509.4703L13494.5199,-3509.4482L13494.5264,-3509.4279L13494.5387,-3509.4054L13494.5511,-3509.3918L13494.5838,-3509.3688L13494.5972,-3509.3543L13494.6004,-3509.3424L13494.5988,-3509.3309L13494.5881,-3509.3186L13494.5842,-3509.3159L13494.5349,-3509.2819L13494.5231,-3509.2709L13494.5103,-3509.2515L13494.4834,-3509.2237L13494.4469,-3509.1947L13494.4297,-3509.1775L13494.4224,-3509.1667L13494.4147,-3509.1554L13494.3964,-3509.1188L13494.3755,-3509.0778L13494.3706,-3509.0641L13494.3674,-3509.0385L13494.3621,-3509.0253L13494.3513,-3509.0046L13494.3416,-3508.9764L13494.339,-3508.9473L13494.3391,-3508.9459L13494.3416,-3508.9001L13494.3406,-3508.8811L13494.3427,-3508.8529L13494.3416,-3508.7978L13494.3379,-3508.7409L13494.3395,-3508.7308L13494.3465,-3508.7136L13494.3707,-3508.6646L13494.3744,-3508.6539L13494.4073,-3508.6197L13494.4246,-3508.5879L13494.4449,-3508.532L13494.4601,-3508.4961L13494.4672,-3508.4493L13494.4601,-3508.3934L13494.4618,-3508.3488L13494.4622,-3508.3399L13494.4634,-3508.3333L13494.466,-3508.3199L13494.4723,-3508.2873L13494.4918,-3508.2143L13494.4926,-3508.2114L13494.4967,-3508.1675L13494.4845,-3508.1358L13494.4652,-3508.099L13494.4479,-3508.0832L13494.4094,-3508.0548L13494.388,-3508.0306L13494.3779,-3508.0164L13494.3769,-3508.0072L13494.385,-3507.9871L13494.3921,-3507.9613L13494.3911,-3507.9345L13494.3891,-3507.9095L13494.3972,-3507.8377L13494.402,-3507.8064L13494.4043,-3507.7917L13494.4124,-3507.7692L13494.4266,-3507.7567L13494.4601,-3507.7433L13494.4997,-3507.7274L13494.5353,-3507.7216L13494.5739,-3507.7066L13494.6388,-3507.6661L13494.651,-3507.651L13494.6632,-3507.6143L13494.6774,-3507.5725L13494.6805,-3507.5533L13494.6744,-3507.5324L13494.6612,-3507.5108L13494.6586,-3507.5L13494.6571,-3507.4941L13494.6581,-3507.4807L13494.6724,-3507.4214L13494.6733,-3507.4171L13494.6764,-3507.4022L13494.6846,-3507.3938L13494.7069,-3507.3721L13494.714,-3507.3546L13494.7181,-3507.3287L13494.7262,-3507.312L13494.7303,-3507.2953L13494.7201,-3507.2744L13494.7109,-3507.2481L13494.7099,-3507.2189L13494.7018,-3507.1872L13494.6916,-3507.1596L13494.6724,-3507.1337L13494.651,-3507.1045L13494.6459,-3507.0928L13494.648,-3507.0811L13494.6642,-3507.0636L13494.6656,-3507.0584L13494.6724,-3507.0335L13494.6764,-3507.0135L13494.6703,-3506.9951L13494.6561,-3506.9718L13494.651,-3506.9459L13494.65,-3506.9266L13494.6541,-3506.9066L13494.6846,-3506.844L13494.6891,-3506.8359L13494.716,-3506.8359L13494.7384,-3506.8448L13494.781,-3506.864L13494.8237,-3506.8816L13494.848,-3506.8866L13494.8704,-3506.8924L13494.8846,-3506.9041L13494.8968,-3506.9266L13494.9008,-3506.9358L13494.9171,-3506.9433L13494.9465,-3506.9475L13494.9627,-3506.9425L13494.9851,-3506.93L13495,-3506.9275L13495.046,-3506.92L13495.111,-3506.9074L13495.175,-3506.8966L13495.2004,-3506.8949L13495.2136,-3506.9008L13495.2328,-3506.8991L13495.2603,-3506.8932L13495.2745,-3506.8932L13495.3324,-3506.9008L13495.3598,-3506.8983L13495.3862,-3506.8874L13495.3963,-3506.8816L13495.4044,-3506.8774L13495.4217,-3506.8807L13495.4349,-3506.8849L13495.4776,-3506.8983L13495.4979,-3506.9041L13495.5273,-3506.9066L13495.5557,-3506.9074L13495.5659,-3506.9099L13495.5791,-3506.9174L13495.5974,-3506.9408L13495.6136,-3506.9534L13495.6319,-3506.9592L13495.6583,-3506.9567L13495.6989,-3506.9425L13495.7243,-3506.9258L13495.7629,-3506.9033L13495.7873,-3506.8899L13495.8055,-3506.8874L13495.8333,-3506.8891L13495.8339,-3506.8891L13495.8664,-3506.8974L13495.8908,-3506.8974L13495.9314,-3506.8849L13495.9458,-3506.8805L13495.9669,-3506.8741L13495.9954,-3506.8682L13496.0055,-3506.8624L13496.0177,-3506.8482L13496.022,-3506.8359L13496.4864,-3506.8359L13496.4868,-3506.8365L13496.5163,-3506.8774L13496.5376,-3506.9008L13496.5508,-3506.9158L13496.5711,-3506.9258L13496.6158,-3506.9467L13496.6483,-3506.9676L13496.6551,-3506.9736L13496.6667,-3506.9838L13496.6757,-3506.9918L13496.6909,-3507.0077L13496.7082,-3507.0261L13496.7762,-3507.0833L13496.8188,-3507.1192L13496.8564,-3507.1375L13496.8838,-3507.1568L13496.9031,-3507.1643L13496.9224,-3507.1684L13496.9569,-3507.1643L13497.0219,-3507.1509L13497.0453,-3507.1467L13497.0588,-3507.1489L13497.0656,-3507.1501L13497.0899,-3507.1618L13497.1163,-3507.1776L13497.1488,-3507.1851L13497.1834,-3507.1851L13497.2219,-3507.1826L13497.2534,-3507.1785L13497.2778,-3507.1668L13497.3265,-3507.1401L13497.4341,-3507.0699L13497.488,-3507.0382L13497.5,-3507.033L13497.5073,-3507.0298L13497.5347,-3507.0273L13497.5631,-3507.029L13497.5865,-3507.0415L13497.619,-3507.0549L13497.6636,-3507.0633L13497.7042,-3507.0641L13497.754,-3507.0541L13497.7946,-3507.0357L13497.82,-3507.0206L13497.8383,-3507.0156L13497.8604,-3507.0151L13497.8506,-3506.9932L13497.8535,-3506.96L13497.8604,-3506.8905L13497.8555,-3506.8388L13497.8555,-3506.8359L13491.2109,-3506.8359L13491.2109,-3515.625Z"/>
</g>
</svg>
