<?xml version="1.0" encoding="UTF-8"?>
<svg  xmlns="http://www.w3.org/2000/svg" xmlns:xlink="http://www.w3.org/1999/xlink" xmlns:go="http://purl.org/svgmap/profile" property="geometry,N03_001,N03_002,N03_003,N03_004,N03_005,N03_007" viewBox="13451.66015625 -3480.46875 4.39453125 4.39453125" go:dataArea="13451.66015625 -3480.46875 4.39453125 4.39453125" >
<metadata>
 <rdf:RDF xmlns:rdf="http://www.w3.org/1999/02/22-rdf-syntax-ns#" xmlns:crs="http://opengis.org/xmldtds/transformations.dtd" xmlns:svg="http://www.w3.org/svg" >
  <rdf:Description>
   <crs:CoordinateReferenceSystem rdf:resource="http://purl.org/crs/84" svg:transform="matrix(100.0,0.0,0.0,-100.0,0.0,0.0)" />
  </rdf:Description>
 </rdf:RDF>
</metadata>
<globalCoordinateSystem srsName="http://purl.org/crs/84" transform="matrix(100.0,0.0,0.0,-100.0,0.0,0.0)" />
<defs>
 <g id="p0" >
  <circle cx="0.0" cy="0.0" r="3" stroke="green" stroke-width="2.0" vector-effect="non-scaling-stroke" />
 </g>
</defs>
<g fill="#0000ff" fill-rule="evenodd" opacity="0.5" >
<path content="兵庫県,,,姫路市,,28201" xlink:title="兵庫県" d="M13456.0547,-3480.4688L13456.0547,-3480.4349L13456.0541,-3480.4356L13456.0223,-3480.4688Z"/>
<path content="兵庫県,,,たつの市,,28229" xlink:title="兵庫県" d="M13451.6602,-3480.4687L13456.0223,-3480.4688L13456.0541,-3480.4356L13456.0547,-3480.4349L13456.0547,-3476.3023L13455.9884,-3476.3316L13455.9835,-3476.3339L13455.9783,-3476.3369L13455.9442,-3476.3564L13455.9409,-3476.3584L13455.9373,-3476.3582L13455.8482,-3476.4094L13455.8366,-3476.4167L13455.8333,-3476.4189L13455.8323,-3476.4196L13455.8328,-3476.4206L13455.832,-3476.4216L13455.8305,-3476.4242L13455.8296,-3476.427L13455.8295,-3476.4305L13455.83,-3476.4341L13455.8318,-3476.4401L13455.8333,-3476.4454L13455.8345,-3476.4492L13455.8384,-3476.4634L13455.843,-3476.4802L13455.8441,-3476.486L13455.85,-3476.5077L13455.851,-3476.5131L13455.8595,-3476.5448L13455.8635,-3476.5613L13455.8652,-3476.5681L13455.8665,-3476.5679L13455.8688,-3476.5778L13455.8694,-3476.5813L13455.8715,-3476.5952L13455.8722,-3476.5986L13455.8758,-3476.6116L13455.8785,-3476.6118L13455.8792,-3476.6143L13455.8767,-3476.6153L13455.8901,-3476.6667L13455.8974,-3476.6949L13455.9036,-3476.7188L13455.9,-3476.7205L13455.8979,-3476.7214L13455.8956,-3476.7219L13455.8935,-3476.7225L13455.8913,-3476.7232L13455.8891,-3476.724L13455.8872,-3476.725L13455.8857,-3476.7264L13455.8847,-3476.728L13455.8838,-3476.7299L13455.8827,-3476.7317L13455.8807,-3476.7352L13455.8797,-3476.737L13455.8792,-3476.7389L13455.8792,-3476.7409L13455.8805,-3476.7426L13455.8821,-3476.744L13455.8838,-3476.7454L13455.8854,-3476.747L13455.8871,-3476.7484L13455.8889,-3476.7499L13455.8907,-3476.7512L13455.8924,-3476.7524L13455.8941,-3476.7537L13455.8963,-3476.7547L13455.9012,-3476.7561L13455.9036,-3476.7563L13455.9058,-3476.7565L13455.908,-3476.7573L13455.9098,-3476.7586L13455.911,-3476.7601L13455.912,-3476.7618L13455.9128,-3476.7637L13455.9135,-3476.7655L13455.9143,-3476.7674L13455.9149,-3476.7692L13455.9158,-3476.7709L13455.9167,-3476.7729L13455.9173,-3476.7747L13455.9182,-3476.7765L13455.9192,-3476.7781L13455.9406,-3476.8608L13455.939,-3476.891L13455.9403,-3476.9091L13455.9386,-3476.9096L13455.9385,-3476.9099L13455.9392,-3476.9159L13455.9395,-3476.9165L13455.94,-3476.9173L13455.9409,-3476.9177L13455.9442,-3476.9191L13455.9435,-3476.9205L13455.9453,-3476.9292L13455.9479,-3476.9394L13455.95,-3476.9464L13455.8892,-3476.9848L13455.8333,-3477.0201L13455.8189,-3477.0292L13455.8053,-3477.0256L13455.7885,-3477.0218L13455.7905,-3477.0164L13455.7875,-3477.0157L13455.7855,-3477.0211L13455.7807,-3477.02L13455.7749,-3477.0189L13455.7654,-3477.0177L13455.7602,-3477.0171L13455.7553,-3477.0171L13455.7496,-3477.0172L13455.7447,-3477.0179L13455.7404,-3477.0189L13455.7358,-3477.0207L13455.7291,-3477.0236L13455.6897,-3477.0412L13455.6639,-3477.0527L13455.6316,-3477.0668L13455.625,-3477.0695L13455.6229,-3477.0708L13455.6215,-3477.0719L13455.6133,-3477.0788L13455.5987,-3477.0916L13455.5855,-3477.1024L13455.5817,-3477.1057L13455.5805,-3477.1066L13455.5785,-3477.1084L13455.5713,-3477.1139L13455.5634,-3477.1199L13455.5604,-3477.122L13455.557,-3477.125L13455.5512,-3477.1315L13455.5382,-3477.1446L13455.537,-3477.1458L13455.5359,-3477.146L13455.5288,-3477.149L13455.5012,-3477.1639L13455.4781,-3477.1754L13455.4613,-3477.186L13455.4398,-3477.1979L13455.4302,-3477.2027L13455.423,-3477.2062L13455.4192,-3477.2089L13455.414,-3477.2145L13455.4113,-3477.2187L13455.4024,-3477.2203L13455.386,-3477.2232L13455.3809,-3477.2239L13455.3707,-3477.225L13455.356,-3477.226L13455.3331,-3477.2275L13455.3076,-3477.2289L13455.3059,-3477.229L13455.2827,-3477.2296L13455.2682,-3477.23L13455.2551,-3477.23L13455.2491,-3477.2298L13455.2429,-3477.2295L13455.2368,-3477.2287L13455.2264,-3477.2265L13455.2206,-3477.2238L13455.2156,-3477.2209L13455.2139,-3477.2199L13455.21,-3477.2176L13455.2089,-3477.2169L13455.2087,-3477.2167L13455.2151,-3477.2106L13455.2148,-3477.2098L13455.2144,-3477.2092L13455.2133,-3477.2074L13455.2127,-3477.2065L13455.2106,-3477.2063L13455.2055,-3477.2064L13455.2031,-3477.2055L13455.2015,-3477.2068L13455.2003,-3477.2051L13455.1995,-3477.2036L13455.199,-3477.2021L13455.1987,-3477.2003L13455.1988,-3477.1987L13455.1989,-3477.1972L13455.1979,-3477.1964L13455.1959,-3477.1956L13455.1946,-3477.1956L13455.1925,-3477.1964L13455.1913,-3477.1972L13455.1905,-3477.1983L13455.1902,-3477.1999L13455.1903,-3477.2004L13455.1914,-3477.2008L13455.1925,-3477.2012L13455.1925,-3477.2017L13455.1918,-3477.2031L13455.1911,-3477.2046L13455.19,-3477.2061L13455.1885,-3477.2074L13455.1872,-3477.2082L13455.1856,-3477.2089L13455.1837,-3477.2094L13455.1767,-3477.2106L13455.1705,-3477.2125L13455.167,-3477.2128L13455.1639,-3477.2136L13455.1603,-3477.2147L13455.1569,-3477.2158L13455.152,-3477.2169L13455.1476,-3477.2178L13455.1431,-3477.2187L13455.1392,-3477.2195L13455.1347,-3477.2202L13455.1283,-3477.2216L13455.1263,-3477.2225L13455.1243,-3477.2239L13455.1232,-3477.2259L13455.1227,-3477.2277L13455.1205,-3477.2284L13455.1185,-3477.2292L13455.115,-3477.2307L13455.1115,-3477.2326L13455.1081,-3477.2347L13455.1041,-3477.2368L13455.1002,-3477.2389L13455.0951,-3477.241L13455.0904,-3477.2432L13455.0853,-3477.2451L13455.0795,-3477.2473L13455.0757,-3477.2487L13455.0725,-3477.25L13455.0694,-3477.2511L13455.0679,-3477.2524L13455.0629,-3477.2443L13455.0601,-3477.2455L13455.0662,-3477.2555L13455.0657,-3477.257L13455.0516,-3477.263L13455.0123,-3477.2792L13455.0022,-3477.2814L13455,-3477.2822L13454.9886,-3477.2857L13454.9792,-3477.2876L13454.9713,-3477.29L13454.9614,-3477.2923L13454.9362,-3477.2981L13454.9067,-3477.3046L13454.8881,-3477.3078L13454.8641,-3477.3126L13454.8451,-3477.3156L13454.8239,-3477.3183L13454.8107,-3477.3206L13454.7974,-3477.3223L13454.7885,-3477.3227L13454.7863,-3477.3225L13454.7816,-3477.3198L13454.7772,-3477.3168L13454.7679,-3477.3107L13454.7641,-3477.3076L13454.7596,-3477.3034L13454.7544,-3477.2998L13454.7516,-3477.2959L13454.7499,-3477.2925L13454.7456,-3477.286L13454.7438,-3477.282L13454.744,-3477.2803L13454.7457,-3477.2783L13454.7478,-3477.2776L13454.7504,-3477.2769L13454.751,-3477.2757L13454.75,-3477.2732L13454.7478,-3477.2721L13454.7442,-3477.2705L13454.7409,-3477.2684L13454.7382,-3477.2652L13454.7375,-3477.2596L13454.7373,-3477.255L13454.7359,-3477.2513L13454.7352,-3477.2485L13454.7327,-3477.2476L13454.7288,-3477.2486L13454.7263,-3477.2505L13454.7249,-3477.2537L13454.7238,-3477.2575L13454.7224,-3477.261L13454.7205,-3477.2629L13454.7184,-3477.2632L13454.7156,-3477.2626L13454.714,-3477.2608L13454.7132,-3477.2578L13454.7117,-3477.254L13454.7096,-3477.2511L13454.7017,-3477.2461L13454.6985,-3477.2451L13454.6963,-3477.2455L13454.6948,-3477.2476L13454.6936,-3477.2525L13454.6927,-3477.2549L13454.688,-3477.2578L13454.6794,-3477.2611L13454.6706,-3477.2639L13454.6579,-3477.2657L13454.6483,-3477.2666L13454.6322,-3477.268L13454.6201,-3477.2682L13454.6091,-3477.2689L13454.5981,-3477.269L13454.5856,-3477.2685L13454.5764,-3477.2669L13454.5672,-3477.2644L13454.5609,-3477.2616L13454.5581,-3477.2599L13454.5561,-3477.2573L13454.555,-3477.2537L13454.5538,-3477.2491L13454.5507,-3477.2436L13454.5485,-3477.2411L13454.5462,-3477.2396L13454.5433,-3477.2383L13454.541,-3477.237L13454.5401,-3477.2304L13454.5477,-3477.2296L13454.5528,-3477.2266L13454.5515,-3477.2222L13454.5464,-3477.2205L13454.5341,-3477.2238L13454.5296,-3477.2232L13454.5203,-3477.2241L13454.5134,-3477.2196L13454.5112,-3477.2146L13454.5044,-3477.2111L13454.4985,-3477.2075L13454.4932,-3477.2023L13454.4926,-3477.1985L13454.4924,-3477.1919L13454.4914,-3477.1906L13454.4886,-3477.1969L13454.4861,-3477.1963L13454.4857,-3477.1875L13454.4821,-3477.1848L13454.4774,-3477.1882L13454.4754,-3477.19L13454.466,-3477.193L13454.4545,-3477.1975L13454.437,-3477.203L13454.4266,-3477.2064L13454.4195,-3477.2079L13454.4108,-3477.2086L13454.4018,-3477.2082L13454.393,-3477.2069L13454.3816,-3477.2043L13454.3743,-3477.2029L13454.3666,-3477.2023L13454.3568,-3477.2021L13454.3501,-3477.2011L13454.3459,-3477.1997L13454.3399,-3477.1966L13454.3364,-3477.1959L13454.3254,-3477.1961L13454.3186,-3477.197L13454.314,-3477.1977L13454.3097,-3477.1968L13454.3065,-3477.194L13454.3033,-3477.1919L13454.3002,-3477.1909L13454.2924,-3477.1912L13454.2835,-3477.1908L13454.2685,-3477.1882L13454.2582,-3477.1854L13454.2507,-3477.1826L13454.2437,-3477.179L13454.2334,-3477.1722L13454.2253,-3477.1655L13454.2174,-3477.1567L13454.2113,-3477.1476L13454.2089,-3477.146L13454.2058,-3477.1341L13454.1983,-3477.1207L13454.1926,-3477.1119L13454.1837,-3477.1085L13454.1778,-3477.1059L13454.1759,-3477.1031L13454.1783,-3477.0975L13454.1808,-3477.0906L13454.1785,-3477.0869L13454.1712,-3477.0849L13454.1667,-3477.0815L13454.1653,-3477.0805L13454.1566,-3477.0788L13454.1534,-3477.0752L13454.1529,-3477.0714L13454.1498,-3477.0679L13454.1441,-3477.0658L13454.1391,-3477.0618L13454.1344,-3477.0562L13454.1324,-3477.0509L13454.129,-3477.0492L13454.1239,-3477.0479L13454.12,-3477.0452L13454.119,-3477.044L13454.1208,-3477.0413L13454.1227,-3477.0387L13454.1225,-3477.0358L13454.1194,-3477.0352L13454.1172,-3477.0362L13454.1147,-3477.0406L13454.1126,-3477.042L13454.1095,-3477.0414L13454.1064,-3477.0399L13454.1108,-3477.036L13454.1112,-3477.0343L13454.1081,-3477.0329L13454.1014,-3477.0332L13454.0956,-3477.0343L13454.092,-3477.0342L13454.0893,-3477.0379L13454.0842,-3477.0387L13454.0778,-3477.0379L13454.0755,-3477.0364L13454.0761,-3477.0334L13454.0785,-3477.0298L13454.0835,-3477.0267L13454.0835,-3477.0234L13454.0817,-3477.0207L13454.077,-3477.0195L13454.073,-3477.0213L13454.0691,-3477.025L13454.0682,-3477.0301L13454.0668,-3477.0337L13454.0606,-3477.0347L13454.0533,-3477.0343L13454.0488,-3477.034L13454.0462,-3477.0359L13454.0427,-3477.0382L13454.0398,-3477.0399L13454.0374,-3477.0413L13454.0367,-3477.0425L13454.0367,-3477.0439L13454.0375,-3477.0455L13454.0383,-3477.0475L13454.0383,-3477.0495L13454.038,-3477.0515L13454.0369,-3477.0536L13454.0357,-3477.0557L13454.0342,-3477.0576L13454.0326,-3477.0591L13454.0262,-3477.0622L13454.0245,-3477.0632L13454.0237,-3477.0631L13454.0234,-3477.0617L13454.0231,-3477.0602L13454.0218,-3477.0596L13454.0199,-3477.0608L13454.0184,-3477.0631L13454.0169,-3477.065L13454.0155,-3477.0649L13454.0141,-3477.0641L13454.0125,-3477.0639L13454.012,-3477.0653L13454.0138,-3477.0685L13454.0134,-3477.0698L13454.0117,-3477.0718L13454.0097,-3477.0733L13454.0072,-3477.0744L13454.0052,-3477.0756L13454.003,-3477.077L13454.0011,-3477.0787L13453.9919,-3477.0855L13453.9884,-3477.089L13453.9859,-3477.0913L13453.9833,-3477.0923L13453.9797,-3477.0929L13453.9777,-3477.094L13453.976,-3477.097L13453.9735,-3477.1L13453.9715,-3477.1009L13453.9702,-3477.101L13453.9688,-3477.0999L13453.9656,-3477.0983L13453.9639,-3477.0967L13453.9624,-3477.0953L13453.9611,-3477.0949L13453.9592,-3477.0954L13453.9567,-3477.0964L13453.9551,-3477.0979L13453.9546,-3477.1003L13453.953,-3477.1034L13453.9523,-3477.1059L13453.9526,-3477.1084L13453.9539,-3477.1107L13453.9557,-3477.1114L13453.9585,-3477.1113L13453.9615,-3477.1122L13453.9629,-3477.1135L13453.964,-3477.116L13453.9651,-3477.1185L13453.9646,-3477.1199L13453.9632,-3477.122L13453.9624,-3477.1235L13453.9635,-3477.1242L13453.968,-3477.1246L13453.9681,-3477.1279L13453.9684,-3477.129L13453.9626,-3477.1325L13453.9596,-3477.1326L13453.9563,-3477.1333L13453.9565,-3477.1347L13453.9583,-3477.136L13453.961,-3477.1372L13453.9673,-3477.1388L13453.9708,-3477.1409L13453.9733,-3477.1426L13453.9759,-3477.1504L13453.9798,-3477.1581L13453.9816,-3477.1633L13453.9808,-3477.1655L13453.9795,-3477.1687L13453.9776,-3477.1722L13453.9769,-3477.1743L13453.9748,-3477.1786L13453.9725,-3477.1824L13453.9699,-3477.186L13453.9678,-3477.1896L13453.9649,-3477.1928L13453.9616,-3477.1962L13453.9587,-3477.2016L13453.9569,-3477.2058L13453.9569,-3477.2081L13453.9574,-3477.212L13453.958,-3477.2153L13453.9587,-3477.2171L13453.9603,-3477.2186L13453.9619,-3477.2211L13453.9636,-3477.2244L13453.965,-3477.228L13453.9653,-3477.2302L13453.9645,-3477.2319L13453.9627,-3477.234L13453.9609,-3477.2372L13453.9601,-3477.2402L13453.9602,-3477.2432L13453.9604,-3477.2458L13453.9596,-3477.2481L13453.9584,-3477.2502L13453.9585,-3477.2525L13453.9585,-3477.2543L13453.959,-3477.2555L13453.9601,-3477.2556L13453.9632,-3477.2556L13453.9641,-3477.2561L13453.9649,-3477.2576L13453.9648,-3477.2589L13453.9646,-3477.261L13453.9652,-3477.2627L13453.9639,-3477.2642L13453.9621,-3477.2655L13453.9617,-3477.2666L13453.963,-3477.269L13453.965,-3477.2721L13453.9671,-3477.2753L13453.9688,-3477.2777L13453.971,-3477.2789L13453.974,-3477.2793L13453.9763,-3477.2804L13453.9776,-3477.2829L13453.9778,-3477.2852L13453.9774,-3477.2885L13453.9766,-3477.292L13453.9751,-3477.2957L13453.9732,-3477.2996L13453.9712,-3477.3031L13453.9682,-3477.3068L13453.9648,-3477.3105L13453.9612,-3477.3142L13453.9569,-3477.3181L13453.9525,-3477.3217L13453.9481,-3477.3253L13453.944,-3477.3284L13453.9394,-3477.332L13453.9352,-3477.3354L13453.9306,-3477.3388L13453.9263,-3477.3421L13453.9215,-3477.3456L13453.9163,-3477.3488L13453.9113,-3477.3519L13453.9068,-3477.3546L13453.903,-3477.3569L13453.8992,-3477.3598L13453.8956,-3477.3621L13453.8924,-3477.3642L13453.8889,-3477.3657L13453.8851,-3477.3671L13453.8814,-3477.3687L13453.8777,-3477.3705L13453.8707,-3477.3747L13453.8614,-3477.3804L13453.8583,-3477.3816L13453.8503,-3477.3828L13453.8482,-3477.3857L13453.8487,-3477.389L13453.8438,-3477.3941L13453.8363,-3477.3992L13453.8286,-3477.404L13453.8176,-3477.4081L13453.8162,-3477.4105L13453.8162,-3477.4166L13453.8092,-3477.4188L13453.8073,-3477.4224L13453.8056,-3477.4255L13453.8051,-3477.4291L13453.8084,-3477.4293L13453.8089,-3477.4344L13453.8095,-3477.4355L13453.8077,-3477.4382L13453.8038,-3477.4422L13453.7937,-3477.4508L13453.7806,-3477.4622L13453.7709,-3477.4704L13453.7615,-3477.4771L13453.7461,-3477.4874L13453.7402,-3477.4924L13453.7368,-3477.4952L13453.727,-3477.4999L13453.7268,-3477.5L13453.7157,-3477.5048L13453.7062,-3477.5082L13453.6944,-3477.511L13453.6833,-3477.5127L13453.6724,-3477.514L13453.6639,-3477.5138L13453.6548,-3477.5128L13453.643,-3477.5098L13453.639,-3477.5073L13453.6341,-3477.5033L13453.6309,-3477.5031L13453.6272,-3477.5056L13453.6227,-3477.5053L13453.6175,-3477.5038L13453.6124,-3477.5016L13453.606,-3477.5006L13453.6048,-3477.5L13453.5994,-3477.4973L13453.5948,-3477.4959L13453.5913,-3477.4959L13453.5887,-3477.4982L13453.5889,-3477.5L13453.5891,-3477.5025L13453.5911,-3477.507L13453.5944,-3477.5102L13453.5914,-3477.5138L13453.591,-3477.5172L13453.5916,-3477.5235L13453.5911,-3477.5282L13453.5885,-3477.5327L13453.582,-3477.5401L13453.5801,-3477.5417L13453.5727,-3477.5408L13453.5646,-3477.542L13453.5597,-3477.5438L13453.5563,-3477.5469L13453.5523,-3477.5501L13453.5406,-3477.554L13453.5349,-3477.5564L13453.5287,-3477.5607L13453.5246,-3477.5626L13453.5072,-3477.5716L13453.4796,-3477.5872L13453.4673,-3477.593L13453.4601,-3477.5956L13453.4427,-3477.5926L13453.42,-3477.5893L13453.4011,-3477.5851L13453.3929,-3477.5824L13453.3754,-3477.5826L13453.3652,-3477.5812L13453.3563,-3477.5767L13453.3457,-3477.5769L13453.3333,-3477.5772L13453.3285,-3477.5773L13453.3215,-3477.576L13453.3042,-3477.5747L13453.2965,-3477.5754L13453.2874,-3477.5721L13453.2825,-3477.5693L13453.2797,-3477.5604L13453.276,-3477.5531L13453.2694,-3477.552L13453.2621,-3477.5472L13453.2597,-3477.5483L13453.2546,-3477.5539L13453.2471,-3477.5658L13453.2475,-3477.5715L13453.2503,-3477.5765L13453.2508,-3477.5794L13453.2474,-3477.5871L13453.2423,-3477.6043L13453.2409,-3477.6097L13453.2377,-3477.612L13453.2347,-3477.6128L13453.2307,-3477.6085L13453.227,-3477.6076L13453.2259,-3477.6116L13453.2277,-3477.6175L13453.2321,-3477.6227L13453.2343,-3477.6241L13453.232,-3477.6274L13453.2324,-3477.6321L13453.2299,-3477.6364L13453.2238,-3477.6404L13453.2203,-3477.6451L13453.2189,-3477.6546L13453.2169,-3477.659L13453.217,-3477.6654L13453.2209,-3477.671L13453.2273,-3477.6757L13453.2295,-3477.6829L13453.2313,-3477.6857L13453.2309,-3477.6928L13453.2279,-3477.7064L13453.2286,-3477.7156L13453.2315,-3477.7249L13453.2338,-3477.7337L13453.2359,-3477.7369L13453.2374,-3477.7394L13453.2388,-3477.7426L13453.2399,-3477.7462L13453.2399,-3477.7513L13453.2391,-3477.7611L13453.238,-3477.7655L13453.2347,-3477.7701L13453.2314,-3477.7745L13453.229,-3477.7789L13453.2278,-3477.7835L13453.2269,-3477.7867L13453.2224,-3477.7908L13453.2181,-3477.7959L13453.2143,-3477.8005L13453.2112,-3477.8038L13453.207,-3477.8073L13453.2033,-3477.8105L13453.2004,-3477.814L13453.1992,-3477.8179L13453.199,-3477.8203L13453.2054,-3477.819L13453.2071,-3477.8198L13453.2085,-3477.8222L13453.2094,-3477.8251L13453.2096,-3477.8277L13453.2089,-3477.829L13453.2063,-3477.8318L13453.2057,-3477.8338L13453.2063,-3477.8362L13453.2069,-3477.8389L13453.2068,-3477.8412L13453.2054,-3477.8437L13453.2027,-3477.8455L13453.2008,-3477.8479L13453.1981,-3477.85L13453.1957,-3477.8522L13453.1935,-3477.8551L13453.1922,-3477.8566L13453.1905,-3477.8562L13453.1886,-3477.8553L13453.1867,-3477.8545L13453.1847,-3477.8534L13453.182,-3477.8528L13453.1785,-3477.8536L13453.176,-3477.8556L13453.1752,-3477.8574L13453.1757,-3477.8594L13453.1773,-3477.8605L13453.1798,-3477.8607L13453.1825,-3477.8615L13453.1844,-3477.8634L13453.1853,-3477.8657L13453.1855,-3477.8681L13453.1853,-3477.8706L13453.1841,-3477.874L13453.1826,-3477.8769L13453.1802,-3477.8796L13453.177,-3477.8823L13453.1731,-3477.8849L13453.1695,-3477.8874L13453.1655,-3477.8892L13453.1624,-3477.8899L13453.159,-3477.8903L13453.158,-3477.8903L13453.1545,-3477.8911L13453.1521,-3477.8916L13453.1503,-3477.8913L13453.1477,-3477.8905L13453.1451,-3477.8894L13453.143,-3477.8876L13453.1411,-3477.8858L13453.1399,-3477.8848L13453.1391,-3477.885L13453.1393,-3477.8864L13453.146,-3477.8949L13453.1432,-3477.8975L13453.1403,-3477.8993L13453.1377,-3477.9003L13453.1352,-3477.9013L13453.1323,-3477.903L13453.129,-3477.9016L13453.1271,-3477.9012L13453.1249,-3477.901L13453.1199,-3477.9002L13453.1168,-3477.8982L13453.1149,-3477.8992L13453.1131,-3477.8978L13453.1092,-3477.9024L13453.1148,-3477.9066L13453.114,-3477.9074L13453.1195,-3477.9133L13453.1015,-3477.937L13453.0948,-3477.933L13453.0874,-3477.9399L13453.0805,-3477.95L13453.0551,-3477.9855L13453.0381,-3478.0132L13453.0312,-3478.019L13453.0259,-3478.0216L13453.0006,-3478.0265L13452.9919,-3478.0281L13452.9132,-3478.0514L13452.9137,-3478.0555L13452.7518,-3478.0808L13452.7513,-3478.0812L13452.7511,-3478.0819L13452.7516,-3478.0854L13452.7537,-3478.0959L13452.7631,-3478.0945L13452.7619,-3478.0898L13452.9161,-3478.0665L13452.9165,-3478.0675L13452.9207,-3478.0695L13452.9274,-3478.0705L13452.9336,-3478.0703L13452.9421,-3478.0688L13452.9463,-3478.0664L13452.9488,-3478.0627L13452.9499,-3478.0601L13452.9542,-3478.0589L13452.9654,-3478.0556L13452.9709,-3478.0539L13452.9738,-3478.0527L13452.9915,-3478.0462L13452.9994,-3478.0439L13453.0007,-3478.0436L13453.0027,-3478.0432L13453.0053,-3478.0431L13453.0087,-3478.0432L13453.0119,-3478.0437L13453.014,-3478.044L13453.0156,-3478.044L13453.0274,-3478.0443L13453.0328,-3478.0451L13453.0338,-3478.0452L13453.0353,-3478.0438L13453.0384,-3478.0449L13453.0407,-3478.0459L13453.0444,-3478.0472L13453.0455,-3478.0489L13453.0463,-3478.0512L13453.0468,-3478.0537L13453.0471,-3478.0563L13453.047,-3478.0598L13453.0468,-3478.0653L13453.0446,-3478.1196L13453.0259,-3478.1407L13453.0145,-3478.1523L13453.0188,-3478.1554L13453.0321,-3478.1454L13453.0527,-3478.1212L13453.0567,-3478.1212L13453.065,-3478.1098L13453.0754,-3478.1151L13453.0817,-3478.1233L13453.0838,-3478.1548L13453.0796,-3478.1778L13453.0438,-3478.1743L13453.0433,-3478.1765L13453.0193,-3478.1741L13453.0129,-3478.2162L13453.0137,-3478.2173L13452.9875,-3478.2388L13452.9581,-3478.2621L13452.9451,-3478.2714L13452.9076,-3478.2393L13452.8481,-3478.2463L13452.7949,-3478.2525L13452.7917,-3478.2688L13452.79,-3478.2775L13452.7877,-3478.2896L13452.7865,-3478.29L13452.7841,-3478.2904L13452.7817,-3478.2908L13452.7794,-3478.291L13452.777,-3478.2914L13452.7743,-3478.2917L13452.7718,-3478.292L13452.7692,-3478.2923L13452.7665,-3478.2924L13452.7642,-3478.2924L13452.7617,-3478.2925L13452.7593,-3478.2925L13452.7569,-3478.2925L13452.7543,-3478.2924L13452.7515,-3478.2923L13452.7489,-3478.292L13452.7462,-3478.2918L13452.7437,-3478.2916L13452.7413,-3478.2913L13452.739,-3478.291L13452.7367,-3478.2907L13452.7343,-3478.2904L13452.7319,-3478.2899L13452.7293,-3478.2895L13452.7266,-3478.2889L13452.7241,-3478.2883L13452.7216,-3478.2877L13452.7193,-3478.287L13452.7168,-3478.2864L13452.7146,-3478.2858L13452.7124,-3478.2852L13452.7104,-3478.2845L13452.7081,-3478.2838L13452.706,-3478.2831L13452.7038,-3478.2825L13452.7015,-3478.2817L13452.6994,-3478.2809L13452.6973,-3478.2802L13452.6951,-3478.2795L13452.693,-3478.2788L13452.6908,-3478.278L13452.6887,-3478.2773L13452.6863,-3478.2765L13452.6843,-3478.2758L13452.6822,-3478.2749L13452.6819,-3478.2731L13452.6818,-3478.2713L13452.6813,-3478.2695L13452.6805,-3478.2678L13452.6795,-3478.266L13452.6783,-3478.2642L13452.6771,-3478.2625L13452.6759,-3478.2607L13452.675,-3478.2587L13452.6743,-3478.2569L13452.6736,-3478.2551L13452.6732,-3478.2538L13452.6731,-3478.2533L13452.6726,-3478.2511L13452.6721,-3478.2493L13452.6715,-3478.2474L13452.671,-3478.2455L13452.6704,-3478.2435L13452.6696,-3478.2417L13452.6687,-3478.2398L13452.6676,-3478.2378L13452.6663,-3478.2359L13452.665,-3478.2343L13452.6636,-3478.2328L13452.662,-3478.2311L13452.6601,-3478.2292L13452.6586,-3478.2278L13452.6567,-3478.2264L13452.6546,-3478.2251L13452.6523,-3478.2241L13452.6504,-3478.2232L13452.6484,-3478.2218L13452.6464,-3478.2205L13452.6449,-3478.2191L13452.6431,-3478.2179L13452.6414,-3478.2167L13452.6397,-3478.2154L13452.6383,-3478.2137L13452.6373,-3478.2118L13452.637,-3478.2099L13452.6372,-3478.208L13452.637,-3478.2062L13452.6356,-3478.2047L13452.6349,-3478.2028L13452.6341,-3478.2009L13452.633,-3478.1991L13452.6319,-3478.1972L13452.6311,-3478.1953L13452.6305,-3478.1934L13452.6296,-3478.1915L13452.6286,-3478.1897L13452.6275,-3478.1878L13452.6265,-3478.1859L13452.6253,-3478.1839L13452.6244,-3478.1821L13452.6233,-3478.1805L13452.6219,-3478.179L13452.6205,-3478.1775L13452.6191,-3478.1761L13452.6184,-3478.1744L13452.6182,-3478.1724L13452.6184,-3478.1705L13452.6187,-3478.1685L13452.6187,-3478.1666L13452.6219,-3478.1654L13452.6318,-3478.1618L13452.6695,-3478.1471L13452.7084,-3478.1316L13452.707,-3478.1291L13452.7062,-3478.1278L13452.7062,-3478.127L13452.7029,-3478.1245L13452.7003,-3478.1236L13452.6982,-3478.1235L13452.6834,-3478.1294L13452.6346,-3478.1489L13452.6319,-3478.1485L13452.6292,-3478.1481L13452.6265,-3478.1474L13452.6249,-3478.1469L13452.6226,-3478.1456L13452.6205,-3478.1441L13452.6187,-3478.1424L13452.6182,-3478.1419L13452.6167,-3478.14L13452.6154,-3478.138L13452.6142,-3478.136L13452.6134,-3478.1345L13452.6123,-3478.1324L13452.6113,-3478.1303L13452.6112,-3478.1301L13452.6093,-3478.1258L13452.6083,-3478.1237L13452.6078,-3478.1229L13452.6064,-3478.121L13452.6048,-3478.1191L13452.6035,-3478.1172L13452.6025,-3478.1151L13452.6017,-3478.113L13452.6009,-3478.1108L13452.6008,-3478.1105L13452.5998,-3478.1084L13452.5988,-3478.1063L13452.5978,-3478.1042L13452.5969,-3478.1027L13452.5967,-3478.1022L13452.5955,-3478.1001L13452.5951,-3478.0994L13452.5941,-3478.0972L13452.594,-3478.0958L13452.595,-3478.0944L13452.5975,-3478.0933L13452.5987,-3478.0926L13452.5993,-3478.0907L13452.5986,-3478.0882L13452.5977,-3478.0869L13452.5955,-3478.085L13452.5933,-3478.0834L13452.5924,-3478.0818L13452.594,-3478.08L13452.5944,-3478.0798L13452.5964,-3478.0786L13452.5964,-3478.0764L13452.5941,-3478.0762L13452.591,-3478.0772L13452.5882,-3478.0776L13452.5855,-3478.0775L13452.5852,-3478.0774L13452.5829,-3478.0763L13452.5821,-3478.0757L13452.5804,-3478.074L13452.5803,-3478.0739L13452.58,-3478.0723L13452.581,-3478.0703L13452.5828,-3478.0685L13452.5842,-3478.0665L13452.5843,-3478.0664L13452.5844,-3478.0641L13452.5842,-3478.0637L13452.5827,-3478.0624L13452.5806,-3478.0625L13452.5784,-3478.0638L13452.5765,-3478.0655L13452.5747,-3478.0666L13452.5732,-3478.0669L13452.5714,-3478.0653L13452.571,-3478.0645L13452.5698,-3478.0623L13452.5692,-3478.0602L13452.5693,-3478.0593L13452.5701,-3478.0571L13452.5688,-3478.0548L13452.5666,-3478.0526L13452.565,-3478.0508L13452.5652,-3478.0502L13452.566,-3478.0501L13452.5679,-3478.0499L13452.5692,-3478.0497L13452.5698,-3478.0483L13452.5686,-3478.0461L13452.5667,-3478.0438L13452.5645,-3478.0416L13452.5641,-3478.0413L13452.562,-3478.0396L13452.5608,-3478.0382L13452.5607,-3478.036L13452.5609,-3478.0336L13452.5608,-3478.033L13452.5594,-3478.0312L13452.5586,-3478.0307L13452.5564,-3478.0296L13452.5564,-3478.032L13452.556,-3478.0332L13452.5549,-3478.033L13452.5525,-3478.0318L13452.5508,-3478.0307L13452.5485,-3478.0297L13452.546,-3478.029L13452.5433,-3478.0284L13452.5414,-3478.0282L13452.5394,-3478.0278L13452.5389,-3478.0263L13452.5382,-3478.024L13452.5379,-3478.0237L13452.5358,-3478.0225L13452.5331,-3478.0218L13452.5315,-3478.0216L13452.5286,-3478.0213L13452.5228,-3478.0207L13452.52,-3478.0204L13452.5173,-3478.02L13452.5149,-3478.0193L13452.5135,-3478.0184L13452.5125,-3478.0165L13452.512,-3478.0141L13452.5119,-3478.0133L13452.5113,-3478.011L13452.5107,-3478.0088L13452.5102,-3478.0071L13452.5088,-3478.0023L13452.5083,-3478.0004L13452.5082,-3478.0001L13452.5077,-3477.9979L13452.5068,-3477.996L13452.5048,-3477.9937L13452.5011,-3477.991L13452.5,-3477.9907L13452.4948,-3477.9892L13452.4878,-3477.9873L13452.4866,-3477.9859L13452.4877,-3477.9844L13452.4889,-3477.9844L13452.498,-3477.9841L13452.5,-3477.9846L13452.5056,-3477.9857L13452.5036,-3477.9601L13452.5,-3477.9602L13452.4956,-3477.9604L13452.489,-3477.8936L13452.4595,-3477.873L13452.4542,-3477.8786L13452.4804,-3477.8969L13452.4878,-3477.9662L13452.4854,-3477.9663L13452.4857,-3477.973L13452.4722,-3477.9731L13452.4695,-3477.9687L13452.4641,-3477.9608L13452.4599,-3477.9563L13452.4568,-3477.953L13452.4525,-3477.95L13452.45,-3477.9211L13452.4459,-3477.9213L13452.4481,-3477.9484L13452.4476,-3477.9486L13452.4468,-3477.9482L13452.4456,-3477.9436L13452.4442,-3477.9374L13452.442,-3477.9332L13452.439,-3477.9303L13452.4354,-3477.9277L13452.4303,-3477.9254L13452.4275,-3477.9237L13452.4243,-3477.9233L13452.4213,-3477.9234L13452.4164,-3477.9226L13452.4134,-3477.9224L13452.4091,-3477.923L13452.4039,-3477.9235L13452.3996,-3477.9236L13452.3963,-3477.9237L13452.3934,-3477.924L13452.3915,-3477.9255L13452.39,-3477.9291L13452.3893,-3477.932L13452.3878,-3477.9353L13452.3852,-3477.9383L13452.3808,-3477.9419L13452.3776,-3477.9457L13452.3758,-3477.949L13452.3701,-3477.9489L13452.3654,-3477.9486L13452.3606,-3477.9479L13452.354,-3477.9466L13452.3477,-3477.9453L13452.3408,-3477.9436L13452.3332,-3477.9411L13452.3269,-3477.9384L13452.3208,-3477.9356L13452.3152,-3477.9329L13452.3088,-3477.9299L13452.3036,-3477.9277L13452.2988,-3477.9254L13452.2946,-3477.9238L13452.2893,-3477.9226L13452.2902,-3477.9096L13452.2832,-3477.9095L13452.2826,-3477.908L13452.2809,-3477.9058L13452.2782,-3477.9034L13452.2752,-3477.9014L13452.2723,-3477.8988L13452.2703,-3477.8954L13452.2688,-3477.8923L13452.2676,-3477.8892L13452.2666,-3477.8861L13452.2657,-3477.8832L13452.2673,-3477.883L13452.2678,-3477.8811L13452.263,-3477.8775L13452.26,-3477.8737L13452.2593,-3477.8708L13452.2594,-3477.8666L13452.2588,-3477.8628L13452.2577,-3477.8594L13452.2555,-3477.8593L13452.2458,-3477.8268L13452.2407,-3477.8185L13452.2361,-3477.7991L13452.2305,-3477.7843L13452.2326,-3477.7818L13452.233,-3477.7774L13452.2293,-3477.7758L13452.2272,-3477.7755L13452.2271,-3477.7752L13452.2237,-3477.7682L13452.2234,-3477.7674L13452.2233,-3477.766L13452.2235,-3477.7645L13452.2238,-3477.7639L13452.2247,-3477.7632L13452.226,-3477.763L13452.2272,-3477.7617L13452.2273,-3477.7599L13452.2277,-3477.7588L13452.2275,-3477.7572L13452.2272,-3477.7562L13452.2272,-3477.7538L13452.2263,-3477.7525L13452.226,-3477.7516L13452.2261,-3477.7503L13452.2262,-3477.7488L13452.2259,-3477.7476L13452.2249,-3477.7463L13452.2245,-3477.7455L13452.2245,-3477.7438L13452.2242,-3477.7426L13452.2236,-3477.7418L13452.2231,-3477.7411L13452.2229,-3477.7401L13452.2227,-3477.7393L13452.2215,-3477.7384L13452.221,-3477.7377L13452.2207,-3477.7369L13452.2206,-3477.7355L13452.2201,-3477.7345L13452.2188,-3477.7336L13452.2181,-3477.7327L13452.2178,-3477.7317L13452.2175,-3477.73L13452.2166,-3477.729L13452.2159,-3477.7283L13452.2144,-3477.7284L13452.2136,-3477.7291L13452.2132,-3477.7296L13452.2122,-3477.7297L13452.2105,-3477.7296L13452.2092,-3477.7287L13452.2089,-3477.7278L13452.209,-3477.7272L13452.2098,-3477.7259L13452.2097,-3477.7247L13452.209,-3477.7241L13452.2074,-3477.7241L13452.2052,-3477.7255L13452.2036,-3477.7265L13452.2009,-3477.7268L13452.199,-3477.7265L13452.1953,-3477.7248L13452.1908,-3477.7223L13452.1875,-3477.7206L13452.1865,-3477.7198L13452.186,-3477.7195L13452.1842,-3477.7178L13452.184,-3477.7175L13452.1837,-3477.7159L13452.1846,-3477.7142L13452.1861,-3477.7124L13452.187,-3477.7102L13452.187,-3477.7102L13452.1874,-3477.7082L13452.1888,-3477.7064L13452.1893,-3477.7042L13452.1891,-3477.702L13452.1887,-3477.6997L13452.1883,-3477.6989L13452.1867,-3477.6974L13452.1859,-3477.6966L13452.1841,-3477.6952L13452.184,-3477.6951L13452.1832,-3477.6952L13452.1826,-3477.6956L13452.1816,-3477.6967L13452.181,-3477.6974L13452.1797,-3477.6978L13452.1768,-3477.6975L13452.1754,-3477.697L13452.1732,-3477.6954L13452.1725,-3477.6952L13452.171,-3477.6968L13452.1703,-3477.698L13452.1681,-3477.6974L13452.166,-3477.6952L13452.166,-3477.695L13452.1659,-3477.6927L13452.1657,-3477.692L13452.1638,-3477.6904L13452.1636,-3477.6902L13452.1614,-3477.6888L13452.1603,-3477.6884L13452.1576,-3477.6884L13452.1574,-3477.6884L13452.1555,-3477.69L13452.1554,-3477.6902L13452.1543,-3477.6923L13452.1537,-3477.693L13452.1512,-3477.6938L13452.1505,-3477.6939L13452.1477,-3477.6938L13452.1458,-3477.6934L13452.1435,-3477.6922L13452.1426,-3477.6912L13452.142,-3477.689L13452.142,-3477.6868L13452.1421,-3477.6859L13452.1425,-3477.6836L13452.1429,-3477.6814L13452.1433,-3477.6792L13452.1434,-3477.6782L13452.1433,-3477.6764L13452.1422,-3477.6742L13452.1419,-3477.6741L13452.1393,-3477.6748L13452.1391,-3477.6748L13452.1374,-3477.6735L13452.1384,-3477.6715L13452.1396,-3477.6702L13452.1401,-3477.668L13452.1398,-3477.6657L13452.1389,-3477.6639L13452.1369,-3477.6623L13452.1367,-3477.6622L13452.134,-3477.662L13452.1333,-3477.6619L13452.1315,-3477.6615L13452.13,-3477.6596L13452.13,-3477.6595L13452.1278,-3477.6582L13452.1251,-3477.6575L13452.1249,-3477.6575L13452.1222,-3477.6572L13452.121,-3477.6573L13452.1181,-3477.6577L13452.1154,-3477.6578L13452.1127,-3477.6579L13452.1101,-3477.6587L13452.1096,-3477.659L13452.1086,-3477.6593L13452.107,-3477.6593L13452.1059,-3477.6583L13452.105,-3477.656L13452.1043,-3477.6552L13452.1016,-3477.6552L13452.1013,-3477.6553L13452.0985,-3477.6553L13452.0974,-3477.6552L13452.0948,-3477.6544L13452.0936,-3477.6539L13452.0914,-3477.6527L13452.0892,-3477.6513L13452.0871,-3477.6498L13452.085,-3477.6483L13452.083,-3477.6469L13452.0809,-3477.6454L13452.0788,-3477.6439L13452.0767,-3477.6425L13452.0753,-3477.6414L13452.0733,-3477.6399L13452.0713,-3477.6383L13452.0705,-3477.6377L13452.069,-3477.6366L13452.0673,-3477.6352L13452.0654,-3477.6337L13452.0635,-3477.6321L13452.0632,-3477.6318L13452.0614,-3477.6302L13452.0596,-3477.6284L13452.0579,-3477.6267L13452.0561,-3477.625L13452.0544,-3477.6232L13452.0527,-3477.6215L13452.051,-3477.6197L13452.0494,-3477.6179L13452.0492,-3477.6177L13452.0479,-3477.6157L13452.0467,-3477.6137L13452.0443,-3477.6096L13452.0431,-3477.6076L13452.0428,-3477.607L13452.0415,-3477.605L13452.0408,-3477.6031L13452.0412,-3477.6009L13452.0419,-3477.5987L13452.0422,-3477.5978L13452.0424,-3477.5955L13452.0424,-3477.5933L13452.0423,-3477.591L13452.0422,-3477.5887L13452.0423,-3477.5865L13452.0425,-3477.5854L13452.0433,-3477.5833L13452.0445,-3477.5813L13452.0458,-3477.5793L13452.0471,-3477.5773L13452.0483,-3477.5753L13452.0495,-3477.5732L13452.0496,-3477.573L13452.0505,-3477.5708L13452.0509,-3477.5686L13452.0509,-3477.5686L13452.0503,-3477.5665L13452.0491,-3477.5645L13452.0477,-3477.5625L13452.0465,-3477.5611L13452.0446,-3477.5593L13452.0442,-3477.5584L13452.0457,-3477.5567L13452.0475,-3477.5558L13452.0502,-3477.5551L13452.0521,-3477.5545L13452.0536,-3477.5534L13452.0542,-3477.5511L13452.0536,-3477.5492L13452.0518,-3477.5473L13452.0506,-3477.5459L13452.0511,-3477.5439L13452.0523,-3477.5416L13452.0526,-3477.5403L13452.0516,-3477.5382L13452.0516,-3477.5381L13452.0497,-3477.5365L13452.048,-3477.5353L13452.0461,-3477.5337L13452.0452,-3477.5326L13452.0449,-3477.532L13452.0448,-3477.5279L13452.0425,-3477.5252L13452.037,-3477.5232L13452.0308,-3477.5218L13452.0276,-3477.524L13452.0223,-3477.5218L13452.017,-3477.521L13452.0149,-3477.5171L13452.0171,-3477.5133L13452.0183,-3477.507L13452.014,-3477.5023L13452.011,-3477.5036L13452.0121,-3477.5087L13452.0068,-3477.5125L13452.0037,-3477.5119L13452.004,-3477.5079L13452.0021,-3477.5044L13452.0052,-3477.5006L13452.0044,-3477.5L13452.0024,-3477.4985L13451.9984,-3477.497L13451.9966,-3477.4976L13451.9945,-3477.4994L13451.994,-3477.5L13451.9927,-3477.5016L13451.9934,-3477.5041L13451.9915,-3477.505L13451.9896,-3477.5051L13451.9874,-3477.505L13451.9844,-3477.5037L13451.9808,-3477.5L13451.972,-3477.491L13451.9671,-3477.4834L13451.9644,-3477.4803L13451.9638,-3477.479L13451.9634,-3477.4775L13451.9629,-3477.4751L13451.9628,-3477.4716L13451.9628,-3477.4636L13451.9623,-3477.4617L13451.9611,-3477.4607L13451.957,-3477.4584L13451.9525,-3477.4561L13451.9513,-3477.4551L13451.9502,-3477.4534L13451.9499,-3477.4516L13451.9487,-3477.4449L13451.9469,-3477.4415L13451.9446,-3477.4378L13451.9438,-3477.4359L13451.9432,-3477.4343L13451.9434,-3477.4327L13451.9443,-3477.4306L13451.9458,-3477.4257L13451.9473,-3477.4218L13451.9498,-3477.4155L13451.9499,-3477.4121L13451.9493,-3477.4088L13451.9485,-3477.4063L13451.9477,-3477.4041L13451.9476,-3477.4021L13451.9477,-3477.4L13451.9477,-3477.3987L13451.9476,-3477.3972L13451.9441,-3477.3911L13451.9414,-3477.3873L13451.9426,-3477.3836L13451.9435,-3477.3804L13451.9434,-3477.3755L13451.9418,-3477.371L13451.9392,-3477.3662L13451.9393,-3477.3654L13451.9401,-3477.3587L13451.941,-3477.3535L13451.9413,-3477.3482L13451.9399,-3477.3431L13451.9366,-3477.3349L13451.9341,-3477.3296L13451.9311,-3477.3227L13451.9299,-3477.3171L13451.9275,-3477.3107L13451.9247,-3477.3034L13451.9231,-3477.2969L13451.9214,-3477.2914L13451.9197,-3477.2875L13451.9173,-3477.2838L13451.9105,-3477.2779L13451.9091,-3477.2763L13451.9075,-3477.2742L13451.9042,-3477.2731L13451.9004,-3477.2713L13451.8981,-3477.2701L13451.8963,-3477.269L13451.8942,-3477.2699L13451.8925,-3477.2728L13451.8921,-3477.2752L13451.8927,-3477.277L13451.8938,-3477.2787L13451.8927,-3477.2796L13451.8895,-3477.2789L13451.8855,-3477.2774L13451.883,-3477.2757L13451.8802,-3477.2737L13451.8764,-3477.2724L13451.8691,-3477.27L13451.8662,-3477.2693L13451.8643,-3477.2684L13451.8623,-3477.267L13451.8581,-3477.2639L13451.8596,-3477.26L13451.8596,-3477.253L13451.8577,-3477.2479L13451.8552,-3477.2472L13451.8537,-3477.2483L13451.8512,-3477.254L13451.8497,-3477.2504L13451.8505,-3477.2454L13451.8503,-3477.2419L13451.847,-3477.2338L13451.8446,-3477.2308L13451.8398,-3477.2275L13451.8361,-3477.2245L13451.8314,-3477.2216L13451.8304,-3477.2159L13451.8285,-3477.2121L13451.8232,-3477.2044L13451.8253,-3477.2028L13451.8229,-3477.2013L13451.8233,-3477.201L13451.8245,-3477.2003L13451.8256,-3477.1997L13451.8241,-3477.198L13451.8209,-3477.196L13451.8189,-3477.1944L13451.817,-3477.1929L13451.8152,-3477.1913L13451.8134,-3477.1896L13451.8115,-3477.188L13451.8096,-3477.1862L13451.8093,-3477.1859L13451.8072,-3477.1838L13451.8051,-3477.1828L13451.8049,-3477.1828L13451.8032,-3477.1843L13451.802,-3477.1865L13451.8006,-3477.1884L13451.8,-3477.1887L13451.7988,-3477.1889L13451.7973,-3477.1887L13451.7973,-3477.1865L13451.7983,-3477.1842L13451.7994,-3477.1821L13451.8001,-3477.18L13451.8001,-3477.1792L13451.799,-3477.1772L13451.7975,-3477.1759L13451.7952,-3477.1747L13451.7929,-3477.174L13451.7902,-3477.1738L13451.7879,-3477.1737L13451.785,-3477.1731L13451.7822,-3477.1728L13451.7811,-3477.1732L13451.7804,-3477.1745L13451.7792,-3477.1748L13451.7781,-3477.1746L13451.7772,-3477.1737L13451.7757,-3477.1737L13451.7755,-3477.1741L13451.7744,-3477.1745L13451.7735,-3477.1744L13451.7734,-3477.1744L13451.7712,-3477.1733L13451.7687,-3477.1742L13451.7684,-3477.1743L13451.7661,-3477.1747L13451.7644,-3477.1747L13451.7629,-3477.1739L13451.761,-3477.1753L13451.7589,-3477.1755L13451.7573,-3477.1755L13451.756,-3477.1755L13451.7532,-3477.1755L13451.7531,-3477.1755L13451.752,-3477.1773L13451.7519,-3477.1784L13451.7515,-3477.179L13451.7511,-3477.1791L13451.7504,-3477.179L13451.7494,-3477.1789L13451.7484,-3477.1799L13451.7481,-3477.1801L13451.7476,-3477.1802L13451.7471,-3477.18L13451.7465,-3477.1795L13451.7461,-3477.1776L13451.7456,-3477.1774L13451.7444,-3477.1787L13451.7434,-3477.1797L13451.7428,-3477.1801L13451.7419,-3477.1801L13451.7412,-3477.1796L13451.7407,-3477.1789L13451.7404,-3477.1775L13451.7407,-3477.1752L13451.7407,-3477.1735L13451.7395,-3477.1719L13451.7373,-3477.1706L13451.7347,-3477.1697L13451.7332,-3477.1693L13451.7305,-3477.1689L13451.729,-3477.1688L13451.7263,-3477.169L13451.7261,-3477.1689L13451.7243,-3477.1677L13451.7221,-3477.1667L13451.7194,-3477.1663L13451.7188,-3477.1662L13451.716,-3477.1661L13451.7143,-3477.1664L13451.7123,-3477.1678L13451.7119,-3477.1697L13451.7117,-3477.1709L13451.7092,-3477.1714L13451.7079,-3477.1712L13451.7055,-3477.1701L13451.7051,-3477.1698L13451.7035,-3477.1678L13451.7031,-3477.1676L13451.701,-3477.1675L13451.6991,-3477.1678L13451.6969,-3477.1678L13451.6951,-3477.167L13451.6927,-3477.1673L13451.6914,-3477.1686L13451.6887,-3477.1686L13451.687,-3477.1685L13451.6848,-3477.1687L13451.6825,-3477.1699L13451.6822,-3477.17L13451.6798,-3477.1712L13451.6785,-3477.1718L13451.6759,-3477.1724L13451.6732,-3477.1728L13451.6706,-3477.173L13451.6676,-3477.173L13451.6667,-3477.1733L13451.6651,-3477.1737L13451.6649,-3477.1738L13451.6639,-3477.174L13451.6631,-3477.1738L13451.6625,-3477.1734L13451.6619,-3477.1725L13451.6605,-3477.1705L13451.6602,-3477.1703Z"/>
<path content="兵庫県,,,たつの市,,28229" xlink:title="兵庫県" d="M13455.7513,-3476.6094L13455.7484,-3476.6064L13455.7471,-3476.6056L13455.7451,-3476.6055L13455.7432,-3476.6061L13455.7404,-3476.6076L13455.7378,-3476.608L13455.7351,-3476.6077L13455.7337,-3476.607L13455.7331,-3476.6058L13455.7329,-3476.6038L13455.7342,-3476.5988L13455.7349,-3476.5957L13455.7347,-3476.5935L13455.7337,-3476.5915L13455.7331,-3476.5911L13455.7323,-3476.5914L13455.7301,-3476.5952L13455.7276,-3476.5993L13455.7257,-3476.6002L13455.7229,-3476.6002L13455.7203,-3476.5997L13455.7156,-3476.5968L13455.7132,-3476.5942L13455.7122,-3476.5922L13455.7122,-3476.5903L13455.713,-3476.5883L13455.7141,-3476.586L13455.7145,-3476.584L13455.7147,-3476.5823L13455.7155,-3476.5803L13455.7154,-3476.5775L13455.7167,-3476.577L13455.7145,-3476.5742L13455.7109,-3476.5729L13455.7081,-3476.5727L13455.706,-3476.5721L13455.7042,-3476.5713L13455.7015,-3476.5677L13455.6969,-3476.567L13455.6955,-3476.5686L13455.6954,-3476.5699L13455.6945,-3476.5714L13455.693,-3476.5726L13455.6933,-3476.5765L13455.69,-3476.5785L13455.6897,-3476.5824L13455.6918,-3476.5873L13455.6951,-3476.5926L13455.6952,-3476.5939L13455.6961,-3476.5943L13455.6967,-3476.5963L13455.6988,-3476.5998L13455.6991,-3476.6008L13455.698,-3476.6036L13455.6975,-3476.6067L13455.6976,-3476.6094L13455.6992,-3476.6135L13455.7013,-3476.6169L13455.7043,-3476.6201L13455.7126,-3476.6271L13455.7187,-3476.6317L13455.723,-3476.634L13455.7277,-3476.636L13455.7331,-3476.6379L13455.736,-3476.6391L13455.7382,-3476.6408L13455.7406,-3476.6435L13455.7447,-3476.649L13455.7489,-3476.653L13455.7556,-3476.6595L13455.7594,-3476.6635L13455.7619,-3476.6667L13455.7624,-3476.6672L13455.7661,-3476.6727L13455.7702,-3476.6768L13455.7735,-3476.6792L13455.7771,-3476.6819L13455.7794,-3476.6844L13455.7807,-3476.6853L13455.7823,-3476.6856L13455.7839,-3476.6852L13455.7841,-3476.6843L13455.7841,-3476.6821L13455.7827,-3476.679L13455.7811,-3476.6761L13455.7805,-3476.6737L13455.7807,-3476.671L13455.7814,-3476.6668L13455.7814,-3476.6667L13455.7817,-3476.6636L13455.7812,-3476.6608L13455.78,-3476.6587L13455.7769,-3476.6563L13455.7752,-3476.6544L13455.775,-3476.6528L13455.7751,-3476.6492L13455.7745,-3476.6454L13455.7724,-3476.6409L13455.7694,-3476.6369L13455.7659,-3476.6332L13455.7648,-3476.6316L13455.764,-3476.6292L13455.7628,-3476.6269L13455.7615,-3476.6257L13455.759,-3476.6247L13455.7564,-3476.6243L13455.7539,-3476.6234L13455.7534,-3476.6224L13455.7536,-3476.6209L13455.7549,-3476.6179L13455.755,-3476.6155L13455.7541,-3476.6136L13455.7513,-3476.6094Z"/>
<path content="兵庫県,,,たつの市,,28229" xlink:title="兵庫県" d="M13453.9764,-3476.9366L13453.9805,-3476.9338L13453.9859,-3476.9338L13453.988,-3476.9304L13453.9901,-3476.9264L13453.9901,-3476.9208L13453.988,-3476.9191L13453.9839,-3476.918L13453.9812,-3476.9152L13453.9784,-3476.9118L13453.975,-3476.9101L13453.9689,-3476.9101L13453.9621,-3476.9112L13453.9566,-3476.9169L13453.9552,-3476.9174L13453.9525,-3476.9186L13453.9457,-3476.9186L13453.9416,-3476.9247L13453.9429,-3476.9276L13453.9402,-3476.9321L13453.9409,-3476.9371L13453.945,-3476.9394L13453.9545,-3476.9399L13453.9552,-3476.9405L13453.9661,-3476.9399L13453.9764,-3476.9366Z"/>
<path content="兵庫県,,,たつの市,,28229" xlink:title="兵庫県" d="M13455.8008,-3476.856L13455.8002,-3476.8546L13455.799,-3476.8534L13455.7976,-3476.8529L13455.7963,-3476.853L13455.7934,-3476.8545L13455.791,-3476.8556L13455.7887,-3476.8557L13455.7868,-3476.8546L13455.7847,-3476.8521L13455.7832,-3476.8493L13455.7833,-3476.8445L13455.7819,-3476.8398L13455.7803,-3476.8383L13455.7784,-3476.8381L13455.7759,-3476.8379L13455.774,-3476.8372L13455.7715,-3476.8352L13455.769,-3476.8346L13455.7673,-3476.835L13455.7663,-3476.8363L13455.7656,-3476.8424L13455.7658,-3476.8461L13455.7667,-3476.8501L13455.7672,-3476.8529L13455.7671,-3476.8562L13455.7678,-3476.8583L13455.7698,-3476.8606L13455.774,-3476.8635L13455.7792,-3476.8664L13455.7815,-3476.8686L13455.7828,-3476.8722L13455.784,-3476.8766L13455.7853,-3476.8782L13455.7876,-3476.8795L13455.791,-3476.8806L13455.794,-3476.8813L13455.7983,-3476.8832L13455.8016,-3476.8839L13455.8038,-3476.8839L13455.8055,-3476.8833L13455.8079,-3476.8819L13455.8093,-3476.8797L13455.8086,-3476.8762L13455.8061,-3476.873L13455.8022,-3476.867L13455.8001,-3476.8627L13455.8,-3476.8609L13455.8006,-3476.8579L13455.8008,-3476.856Z"/>
<path content="兵庫県,,,たつの市,,28229" xlink:title="兵庫県" d="M13455.8179,-3476.6695L13455.8175,-3476.668L13455.8182,-3476.6667L13455.8184,-3476.6661L13455.8199,-3476.6636L13455.82,-3476.6619L13455.8194,-3476.6608L13455.8178,-3476.66L13455.816,-3476.6597L13455.8143,-3476.6604L13455.8129,-3476.6616L13455.8121,-3476.663L13455.8117,-3476.6649L13455.8117,-3476.6667L13455.8118,-3476.6681L13455.8113,-3476.6688L13455.8078,-3476.6683L13455.8066,-3476.6694L13455.8054,-3476.6718L13455.8036,-3476.6743L13455.8008,-3476.6774L13455.7994,-3476.6798L13455.7988,-3476.6815L13455.7988,-3476.6834L13455.7999,-3476.6867L13455.8004,-3476.6884L13455.8018,-3476.6913L13455.8053,-3476.6959L13455.8083,-3476.6987L13455.8108,-3476.6998L13455.8136,-3476.7002L13455.8156,-3476.7007L13455.8171,-3476.7017L13455.8197,-3476.705L13455.822,-3476.7081L13455.8256,-3476.7108L13455.83,-3476.7135L13455.8333,-3476.7152L13455.8355,-3476.7163L13455.8399,-3476.7181L13455.842,-3476.7186L13455.8431,-3476.7184L13455.8439,-3476.7179L13455.844,-3476.717L13455.8428,-3476.7159L13455.8394,-3476.7133L13455.8351,-3476.7099L13455.8342,-3476.7086L13455.834,-3476.7065L13455.8336,-3476.7047L13455.8333,-3476.7042L13455.8323,-3476.7024L13455.829,-3476.6979L13455.8255,-3476.6941L13455.8241,-3476.6912L13455.8233,-3476.6882L13455.8219,-3476.684L13455.8211,-3476.6825L13455.8198,-3476.6816L13455.8181,-3476.6812L13455.8161,-3476.6808L13455.8149,-3476.6797L13455.8146,-3476.678L13455.8151,-3476.677L13455.8207,-3476.6744L13455.8209,-3476.6737L13455.8205,-3476.6725L13455.8189,-3476.6708L13455.8179,-3476.6695Z"/>
<path content="兵庫県,,,たつの市,,28229" xlink:title="兵庫県" d="M13453.6228,-3477.475L13453.6135,-3477.4675L13453.6094,-3477.4742L13453.6102,-3477.4805L13453.6058,-3477.4828L13453.6043,-3477.4871L13453.6066,-3477.4913L13453.613,-3477.4934L13453.6157,-3477.4967L13453.6215,-3477.5L13453.6223,-3477.5004L13453.6253,-3477.5L13453.6258,-3477.4999L13453.6275,-3477.498L13453.6259,-3477.4942L13453.6274,-3477.4901L13453.6261,-3477.4862L13453.6224,-3477.4852L13453.6209,-3477.477L13453.6228,-3477.475Z"/>
<path content="兵庫県,,,たつの市,,28229" xlink:title="兵庫県" d="M13454.4967,-3477.1729L13454.4906,-3477.1729L13454.486,-3477.1752L13454.4867,-3477.1799L13454.4913,-3477.1824L13454.4959,-3477.1845L13454.4996,-3477.1804L13454.497,-3477.1748L13454.4967,-3477.1729Z"/>
<path content="兵庫県,,,たつの市,,28229" xlink:title="兵庫県" d="M13454.0848,-3477.0128L13454.0839,-3477.0097L13454.0749,-3477.0113L13454.0686,-3477.0133L13454.069,-3477.016L13454.0745,-3477.0169L13454.0811,-3477.0174L13454.0846,-3477.0155L13454.0848,-3477.0128Z"/>
<path content="兵庫県,,,たつの市,,28229" xlink:title="兵庫県" d="M13455.165,-3477.1885L13455.1621,-3477.1871L13455.1606,-3477.1882L13455.1602,-3477.1906L13455.1608,-3477.1926L13455.162,-3477.1943L13455.1631,-3477.1954L13455.1646,-3477.1955L13455.166,-3477.195L13455.1672,-3477.1933L13455.167,-3477.1908L13455.165,-3477.1885Z"/>
<path content="兵庫県,,,たつの市,,28229" xlink:title="兵庫県" d="M13455.1287,-3477.1971L13455.1271,-3477.1959L13455.1247,-3477.1963L13455.123,-3477.1978L13455.1228,-3477.1996L13455.1235,-3477.2012L13455.1247,-3477.2023L13455.1264,-3477.202L13455.1278,-3477.2011L13455.1281,-3477.2002L13455.1279,-3477.1989L13455.1287,-3477.1971Z"/>
<path content="兵庫県,,,たつの市,,28229" xlink:title="兵庫県" d="M13451.9473,-3477.3681L13451.9463,-3477.3669L13451.9453,-3477.3678L13451.9445,-3477.3698L13451.9445,-3477.3715L13451.9454,-3477.3732L13451.9467,-3477.3738L13451.9483,-3477.3737L13451.948,-3477.3708L13451.9473,-3477.3681Z"/>
</g>
</svg>
