<?xml version="1.0" encoding="UTF-8"?>
<svg  xmlns="http://www.w3.org/2000/svg" xmlns:xlink="http://www.w3.org/1999/xlink" xmlns:go="http://purl.org/svgmap/profile" property="geometry,N03_001,N03_002,N03_003,N03_004,N03_005,N03_007" viewBox="13579.1015625 -3489.2578125 8.7890625 8.7890625" go:dataArea="13579.1015625 -3489.2578125 8.7890625 8.7890625" >
<metadata>
 <rdf:RDF xmlns:rdf="http://www.w3.org/1999/02/22-rdf-syntax-ns#" xmlns:crs="http://opengis.org/xmldtds/transformations.dtd" xmlns:svg="http://www.w3.org/svg" >
  <rdf:Description>
   <crs:CoordinateReferenceSystem rdf:resource="http://purl.org/crs/84" svg:transform="matrix(100.0,0.0,0.0,-100.0,0.0,0.0)" />
  </rdf:Description>
 </rdf:RDF>
</metadata>
<globalCoordinateSystem srsName="http://purl.org/crs/84" transform="matrix(100.0,0.0,0.0,-100.0,0.0,0.0)" />
<defs>
 <g id="p0" >
  <circle cx="0.0" cy="0.0" r="3" stroke="green" stroke-width="2.0" vector-effect="non-scaling-stroke" />
 </g>
</defs>
<g fill="#0000ff" fill-rule="evenodd" opacity="0.5" >
<path content="滋賀県,,,大津市,,25201" xlink:title="滋賀県" d="M13587.8906,-3489.2578L13587.8906,-3488.5008L13587.8847,-3488.5024L13587.8621,-3488.5142L13587.8454,-3488.5397L13587.8201,-3488.6206L13587.7975,-3488.6559L13587.7749,-3488.6628L13587.7534,-3488.6598L13587.6295,-3488.6235L13587.5974,-3488.6215L13587.5865,-3488.6286L13587.5,-3488.7425L13587.4911,-3488.7542L13587.4542,-3488.8239L13587.4387,-3488.8867L13587.4233,-3488.8871L13587.4006,-3488.8877L13587.3839,-3488.8779L13587.3589,-3488.8661L13587.3279,-3488.871L13587.2636,-3488.87L13587.2374,-3488.873L13587.2153,-3488.8864L13587.128,-3488.9661L13587.0916,-3488.9992L13587.0836,-3489.0048L13587.0413,-3489.0337L13586.986,-3489.0679L13586.9014,-3489.1136L13586.7758,-3489.1667L13586.6912,-3489.2024L13586.6667,-3489.2128L13586.6637,-3489.214L13586.6667,-3489.2175L13586.7004,-3489.2578Z"/>
<path content="京都府,,,宇治市,,26204" xlink:title="京都府" d="M13586.7004,-3489.2578L13586.6667,-3489.2175L13586.6637,-3489.214L13586.6292,-3489.1897L13586.5934,-3489.1741L13586.5482,-3489.1672L13586.5373,-3489.1667L13586.3219,-3489.1567L13586.2682,-3489.1489L13586.2398,-3489.1377L13586.2328,-3489.1327L13586.2152,-3489.1201L13586.171,-3489.0785L13586.0997,-3488.9746L13586.0037,-3488.8347L13585.957,-3488.7492L13585.9327,-3488.6919L13585.9301,-3488.6674L13585.9286,-3488.6529L13585.9289,-3488.644L13585.9296,-3488.6216L13585.9622,-3488.5488L13585.9675,-3488.5232L13585.9612,-3488.485L13585.936,-3488.4347L13585.9086,-3488.3974L13585.8686,-3488.3714L13585.8402,-3488.3618L13585.8333,-3488.361L13585.8013,-3488.3575L13585.7465,-3488.3644L13585.6802,-3488.3835L13585.5397,-3488.4339L13585.4902,-3488.4373L13585.446,-3488.4261L13585.4071,-3488.4044L13585.3184,-3488.3373L13585.312,-3488.3333L13585.2452,-3488.2915L13585.2394,-3488.2879L13585.1868,-3488.2653L13585.1363,-3488.2514L13585,-3488.2326L13584.9536,-3488.2262L13584.9042,-3488.2045L13584.8652,-3488.1672L13584.722,-3487.9552L13584.6889,-3487.9077L13584.65,-3487.8642L13584.6416,-3487.8548L13584.55,-3487.7837L13584.4932,-3487.7169L13584.4853,-3487.7063L13584.4616,-3487.6744L13584.4289,-3487.5959L13584.41,-3487.5161L13584.4077,-3487.5L13584.3984,-3487.4363L13584.3921,-3487.35L13584.3889,-3487.2029L13584.3836,-3487.1621L13584.3678,-3487.1188L13584.3362,-3487.0867L13584.3015,-3487.0632L13584.2579,-3487.0494L13584.1667,-3487.0446L13584.1422,-3487.0433L13584.0318,-3487.0437L13583.9027,-3487.0441L13583.7837,-3487.0309L13583.7584,-3487.0153L13583.75,-3486.9936L13583.7504,-3486.9803L13583.7542,-3486.8714L13583.7458,-3486.8097L13583.7289,-3486.7737L13583.691,-3486.7356L13583.6184,-3486.6913L13583.5649,-3486.6667L13583.4675,-3486.6218L13583.4159,-3486.6087L13583.3333,-3486.5919L13583.2675,-3486.5784L13583.2452,-3486.5581L13583.2274,-3486.519L13583.2167,-3486.4957L13583.1863,-3486.4662L13583.1599,-3486.461L13583.1389,-3486.4627L13583.0726,-3486.4861L13583.04,-3486.4922L13583.0374,-3486.4921L13582.9437,-3486.4867L13582.931,-3486.486L13582.8963,-3486.4991L13582.8668,-3486.5268L13582.8563,-3486.5493L13582.8605,-3486.566L13582.8679,-3486.5953L13582.8594,-3486.6031L13582.8479,-3486.5988L13582.8338,-3486.5908L13582.791,-3486.5667L13582.7552,-3486.5537L13582.6833,-3486.5388L13582.6707,-3486.5232L13582.6654,-3486.4998L13582.6759,-3486.4677L13582.6707,-3486.4495L13582.5675,-3486.3037L13582.5675,-3486.2899L13582.6086,-3486.2491L13582.6361,-3486.2036L13582.6677,-3486.1654L13582.714,-3486.0631L13582.7435,-3486.0292L13582.7498,-3486.025L13582.7782,-3486.0058L13582.8217,-3485.9819L13582.8533,-3485.9681L13582.8764,-3485.9525L13582.8891,-3485.9534L13582.9133,-3485.9646L13582.9642,-3485.9885L13582.9557,-3485.9426L13582.9097,-3485.8773L13582.8926,-3485.8726L13582.8413,-3485.8726L13582.7942,-3485.8656L13582.7406,-3485.8673L13582.7269,-3485.8733L13582.7103,-3485.8804L13582.6943,-3485.8873L13582.6704,-3485.8925L13582.5983,-3485.8719L13582.5812,-3485.8625L13582.5726,-3485.8562L13582.5414,-3485.8333L13582.5,-3485.8031L13582.4856,-3485.7926L13582.4749,-3485.792L13582.4599,-3485.802L13582.4471,-3485.8049L13582.4136,-3485.8072L13582.3397,-3485.7967L13582.2613,-3485.8014L13582.217,-3485.8091L13582.1871,-3485.8332L13582.1868,-3485.8333L13582.1642,-3485.8437L13582.1393,-3485.8414L13582.1113,-3485.8333L13582.0964,-3485.8291L13582.0786,-3485.8302L13582.0659,-3485.8333L13582.0104,-3485.8469L13581.9576,-3485.8686L13581.8969,-3485.9133L13581.8434,-3485.9345L13581.8177,-3485.9521L13581.8049,-3486.0091L13581.7892,-3486.0174L13581.7557,-3486.0186L13581.7409,-3486.0241L13581.7195,-3486.047L13581.7009,-3486.0493L13581.6667,-3486.0415L13581.6438,-3486.0363L13581.6417,-3486.0358L13581.5954,-3486.0458L13581.5519,-3486.0511L13581.5055,-3486.0629L13581.4741,-3486.0629L13581.4191,-3486.0552L13581.3815,-3486.0688L13581.2966,-3486.0988L13581.2951,-3486.0993L13581.2774,-3486.1052L13581.2303,-3486.0952L13581.2067,-3486.097L13581.1618,-3486.1329L13581.1226,-3486.1629L13581.1066,-3486.195L13581.0246,-3486.2385L13580.9932,-3486.2679L13580.9624,-3486.3051L13580.9438,-3486.3451L13580.9274,-3486.3616L13580.9024,-3486.3704L13580.8333,-3486.364L13580.8325,-3486.3639L13580.8122,-3486.3669L13580.7223,-3486.3906L13580.7009,-3486.3963L13580.6831,-3486.3939L13580.6765,-3486.3572L13580.6752,-3486.3498L13580.6702,-3486.3381L13580.6669,-3486.3368L13580.6552,-3486.3322L13580.636,-3486.3304L13580.6124,-3486.3434L13580.5882,-3486.371L13580.5689,-3486.4081L13580.5489,-3486.4539L13580.5345,-3486.4747L13580.4917,-3486.4988L13580.4788,-3486.5188L13580.4596,-3486.5429L13580.4175,-3486.5712L13580.3954,-3486.577L13580.3764,-3486.5731L13580.3422,-3486.5725L13580.2901,-3486.5901L13580.2566,-3486.6078L13580.2152,-3486.6436L13580.1973,-3486.6587L13580.1878,-3486.6667L13580.1767,-3486.676L13580.1634,-3486.7037L13580.1534,-3486.7172L13580.1377,-3486.7113L13580.0907,-3486.7007L13580.0676,-3486.7014L13580.0001,-3486.7031L13580,-3486.7031L13579.9644,-3486.6925L13579.9312,-3486.6701L13579.9262,-3486.6667L13579.8835,-3486.6377L13579.8606,-3486.5966L13579.8178,-3486.5719L13579.7743,-3486.5384L13579.7522,-3486.5595L13579.7408,-3486.5683L13579.6766,-3486.5772L13579.6366,-3486.5942L13579.6224,-3486.5977L13579.5963,-3486.5948L13579.5663,-3486.5984L13579.525,-3486.6119L13579.5071,-3486.6125L13579.4843,-3486.6019L13579.4679,-3486.6019L13579.4372,-3486.6054L13579.4008,-3486.616L13579.3873,-3486.6295L13579.3842,-3486.6352L13579.3781,-3486.6667L13579.3768,-3486.6731L13579.3677,-3486.6902L13579.3634,-3486.6955L13579.3506,-3486.7052L13579.3434,-3486.7061L13579.2984,-3486.7064L13579.2449,-3486.7042L13579.2214,-3486.7014L13579.1741,-3486.6667L13579.1683,-3486.6625L13579.1667,-3486.6619L13579.1184,-3486.6448L13579.1016,-3486.6431L13579.1016,-3489.2578Z"/>
<path content="京都府,,,城陽市,,26207" xlink:title="京都府" d="M13579.1016,-3486.6431L13579.1184,-3486.6448L13579.1667,-3486.6619L13579.1683,-3486.6625L13579.1741,-3486.6667L13579.2214,-3486.7014L13579.2449,-3486.7042L13579.2984,-3486.7064L13579.3434,-3486.7061L13579.3506,-3486.7052L13579.3634,-3486.6955L13579.3677,-3486.6902L13579.3768,-3486.6731L13579.3781,-3486.6667L13579.3842,-3486.6352L13579.3873,-3486.6295L13579.4008,-3486.616L13579.4372,-3486.6054L13579.4679,-3486.6019L13579.4843,-3486.6019L13579.5071,-3486.6125L13579.525,-3486.6119L13579.5663,-3486.5984L13579.5963,-3486.5948L13579.6224,-3486.5977L13579.6366,-3486.5942L13579.6766,-3486.5772L13579.7408,-3486.5683L13579.7522,-3486.5595L13579.7743,-3486.5384L13579.8178,-3486.5719L13579.8606,-3486.5966L13579.8835,-3486.6377L13579.9262,-3486.6667L13579.9312,-3486.6701L13579.9644,-3486.6925L13580,-3486.7031L13580.0001,-3486.7031L13580.0676,-3486.7014L13580.0907,-3486.7007L13580.1377,-3486.7113L13580.1534,-3486.7172L13580.1634,-3486.7037L13580.1767,-3486.676L13580.1878,-3486.6667L13580.1973,-3486.6587L13580.2152,-3486.6436L13580.2566,-3486.6078L13580.2901,-3486.5901L13580.3422,-3486.5725L13580.3764,-3486.5731L13580.3954,-3486.577L13580.4175,-3486.5712L13580.4596,-3486.5429L13580.4788,-3486.5188L13580.4917,-3486.4988L13580.5345,-3486.4747L13580.5489,-3486.4539L13580.5689,-3486.4081L13580.5882,-3486.371L13580.6124,-3486.3434L13580.636,-3486.3304L13580.6552,-3486.3322L13580.6669,-3486.3368L13580.6702,-3486.3381L13580.6752,-3486.3498L13580.6765,-3486.3572L13580.6831,-3486.3939L13580.7009,-3486.3963L13580.7223,-3486.3906L13580.8122,-3486.3669L13580.8325,-3486.3639L13580.8333,-3486.364L13580.9024,-3486.3704L13580.9274,-3486.3616L13580.9438,-3486.3451L13580.9624,-3486.3051L13580.9932,-3486.2679L13581.0246,-3486.2385L13581.1066,-3486.195L13581.1226,-3486.1629L13581.1618,-3486.1329L13581.2067,-3486.097L13581.2303,-3486.0952L13581.2774,-3486.1052L13581.2951,-3486.0993L13581.2966,-3486.0988L13581.3815,-3486.0688L13581.4191,-3486.0552L13581.4741,-3486.0629L13581.5055,-3486.0629L13581.5519,-3486.0511L13581.5954,-3486.0458L13581.6417,-3486.0358L13581.6438,-3486.0363L13581.6667,-3486.0415L13581.7009,-3486.0493L13581.7195,-3486.047L13581.7409,-3486.0241L13581.7557,-3486.0186L13581.7892,-3486.0174L13581.8049,-3486.0091L13581.8177,-3485.9521L13581.8434,-3485.9345L13581.8969,-3485.9133L13581.9576,-3485.8686L13582.0104,-3485.8469L13582.0659,-3485.8333L13582.0786,-3485.8302L13582.0964,-3485.8291L13582.1113,-3485.8333L13582.1393,-3485.8414L13582.1642,-3485.8437L13582.1868,-3485.8333L13582.1871,-3485.8332L13582.217,-3485.8091L13582.2613,-3485.8014L13582.3397,-3485.7967L13582.4136,-3485.8072L13582.4471,-3485.8049L13582.4599,-3485.802L13582.4749,-3485.792L13582.4856,-3485.7926L13582.5,-3485.8031L13582.5414,-3485.8333L13582.5726,-3485.8562L13582.5812,-3485.8625L13582.5983,-3485.8719L13582.6704,-3485.8925L13582.6943,-3485.8873L13582.7103,-3485.8804L13582.7269,-3485.8733L13582.7406,-3485.8673L13582.7942,-3485.8656L13582.8413,-3485.8726L13582.8926,-3485.8726L13582.9097,-3485.8773L13582.9557,-3485.9426L13582.9642,-3485.9885L13582.9916,-3485.9992L13583.0092,-3486.0061L13583.0477,-3485.9526L13583.1136,-3485.9044L13583.1514,-3485.8902L13583.2092,-3485.8756L13583.2387,-3485.8731L13583.2648,-3485.8709L13583.3008,-3485.845L13583.3193,-3485.835L13583.3209,-3485.8333L13583.3333,-3485.8201L13583.3364,-3485.8168L13583.38,-3485.7939L13583.3966,-3485.7789L13583.4016,-3485.7577L13583.4016,-3485.7389L13583.3966,-3485.7148L13583.3875,-3485.6876L13583.3709,-3485.6386L13583.3759,-3485.6233L13583.3937,-3485.5998L13583.4444,-3485.5581L13583.4452,-3485.5547L13583.453,-3485.5204L13583.453,-3485.4793L13583.4344,-3485.4407L13583.4344,-3485.3978L13583.4316,-3485.3878L13583.4082,-3485.3768L13583.3731,-3485.3602L13583.3681,-3485.3378L13583.3724,-3485.3225L13583.4059,-3485.2667L13583.4044,-3485.2528L13583.3944,-3485.2087L13583.3973,-3485.1852L13583.4027,-3485.1525L13583.4051,-3485.1376L13583.4229,-3485.0832L13583.4258,-3485.058L13583.4194,-3485.0297L13583.4126,-3485L13583.3926,-3484.9119L13583.3923,-3484.9108L13583.373,-3484.8646L13583.3751,-3484.8475L13583.393,-3484.834L13583.4591,-3484.8188L13583.47,-3484.8164L13583.5178,-3484.7952L13583.5355,-3484.7875L13583.5437,-3484.788L13583.5574,-3484.7924L13583.5754,-3484.8028L13583.5915,-3484.8085L13583.6075,-3484.8075L13583.6501,-3484.7978L13583.6749,-3484.8021L13583.7144,-3484.7832L13583.7246,-3484.7799L13583.7428,-3484.7692L13583.7639,-3484.7703L13583.7745,-3484.7671L13583.8187,-3484.794L13583.8389,-3484.8155L13583.8641,-3484.8287L13583.8799,-3484.8198L13583.8837,-3484.8139L13583.889,-3484.8164L13583.8904,-3484.8102L13583.8938,-3484.8017L13583.9357,-3484.7809L13583.9375,-3484.7766L13583.9417,-3484.772L13583.9473,-3484.7708L13583.9595,-3484.7701L13583.9737,-3484.7484L13583.9846,-3484.7386L13583.999,-3484.7289L13584.0034,-3484.7266L13584.0074,-3484.7244L13584.0226,-3484.7139L13584.0282,-3484.7091L13584.0375,-3484.6981L13584.0605,-3484.6783L13584.0751,-3484.6662L13584.0786,-3484.6534L13584.0835,-3484.6517L13584.0898,-3484.6497L13584.1034,-3484.6468L13584.1083,-3484.6462L13584.1152,-3484.6479L13584.1382,-3484.6498L13584.1435,-3484.6491L13584.1474,-3484.6369L13584.1496,-3484.6161L13584.1525,-3484.6016L13584.1518,-3484.5903L13584.1528,-3484.5843L13584.1578,-3484.5653L13584.1564,-3484.5526L13584.1553,-3484.5164L13584.1624,-3484.4671L13584.1653,-3484.4165L13584.1624,-3484.3924L13584.1574,-3484.3513L13584.1531,-3484.2997L13584.1574,-3484.2397L13584.1538,-3484.218L13584.141,-3484.1667L13584.1381,-3484.1551L13584.1403,-3484.1227L13584.146,-3484.0919L13584.1596,-3484.0566L13584.1667,-3484.0519L13584.1746,-3484.0466L13584.2609,-3484.0307L13584.3282,-3484.026L13584.4003,-3484.0307L13584.4552,-3483.9936L13584.4773,-3483.9719L13584.4989,-3483.9215L13584.5041,-3483.9176L13584.5224,-3483.9038L13584.5481,-3483.8938L13584.633,-3483.8727L13584.6608,-3483.8533L13584.6765,-3483.8333L13584.6915,-3483.7893L13584.6926,-3483.7861L13584.724,-3483.7455L13584.7439,-3483.6949L13584.7582,-3483.6808L13584.7867,-3483.6626L13584.7925,-3483.6577L13584.8088,-3483.6411L13584.8151,-3483.6293L13584.8205,-3483.622L13584.8205,-3483.6162L13584.8147,-3483.6105L13584.8015,-3483.6018L13584.7853,-3483.5861L13584.7778,-3483.5751L13584.7628,-3483.5594L13584.7517,-3483.5507L13584.7426,-3483.5444L13584.7322,-3483.5388L13584.703,-3483.5255L13584.6995,-3483.5214L13584.6993,-3483.5168L13584.7115,-3483.5007L13584.7186,-3483.4864L13584.7224,-3483.4711L13584.7246,-3483.463L13584.7236,-3483.4587L13584.681,-3483.4356L13584.6729,-3483.4312L13584.6596,-3483.4243L13584.6449,-3483.4101L13584.6336,-3483.3998L13584.6278,-3483.3945L13584.5961,-3483.3509L13584.5951,-3483.3333L13584.5951,-3483.3329L13584.5924,-3483.31L13584.5917,-3483.2954L13584.5894,-3483.2721L13584.5854,-3483.2547L13584.5791,-3483.2243L13584.5749,-3483.1843L13584.5747,-3483.1704L13584.5787,-3483.1615L13584.585,-3483.1546L13584.5955,-3483.1495L13584.6113,-3483.1432L13584.6121,-3483.1355L13584.6109,-3483.1211L13584.6013,-3483.0799L13584.5963,-3483.0485L13584.589,-3482.9963L13584.589,-3482.9646L13584.5914,-3482.9514L13584.5902,-3482.9439L13584.5896,-3482.9401L13584.5886,-3482.9324L13584.5902,-3482.9221L13584.5925,-3482.916L13584.5994,-3482.9061L13584.6116,-3482.891L13584.6167,-3482.8796L13584.6183,-3482.8762L13584.623,-3482.8662L13584.6266,-3482.8561L13584.6311,-3482.8415L13584.6349,-3482.8049L13584.6373,-3482.7865L13584.6479,-3482.7466L13584.6501,-3482.7361L13584.658,-3482.7168L13584.6669,-3482.7054L13584.6797,-3482.6963L13584.6894,-3482.6949L13584.7015,-3482.6932L13584.7264,-3482.6912L13584.7374,-3482.6896L13584.7414,-3482.6862L13584.7449,-3482.6807L13584.7471,-3482.6614L13584.7496,-3482.6436L13584.7497,-3482.6294L13584.7497,-3482.6259L13584.7507,-3482.6186L13584.7519,-3482.6132L13584.7543,-3482.6077L13584.7576,-3482.6008L13584.7592,-3482.5913L13584.7557,-3482.5726L13584.7574,-3482.5605L13584.7584,-3482.5437L13584.7596,-3482.5296L13584.7642,-3482.5052L13584.7656,-3482.5L13584.7711,-3482.4799L13584.7697,-3482.4795L13584.7443,-3482.4724L13584.7278,-3482.4691L13584.6988,-3482.4699L13584.6457,-3482.4709L13584.5991,-3482.4712L13584.5424,-3482.4746L13584.5201,-3482.4764L13584.4462,-3482.4776L13584.3376,-3482.4839L13584.2748,-3482.4878L13584.1828,-3482.4924L13584.1667,-3482.4932L13584.1285,-3482.4953L13584.0937,-3482.4935L13584.0642,-3482.4958L13584.0626,-3482.4964L13584.0533,-3482.5L13584.0322,-3482.5082L13583.9533,-3482.5203L13583.9256,-3482.525L13583.8991,-3482.5312L13583.8679,-3482.5361L13583.8221,-3482.54L13583.8058,-3482.544L13583.7856,-3482.549L13583.767,-3482.5502L13583.7431,-3482.5536L13583.7183,-3482.5573L13583.6946,-3482.5589L13583.6747,-3482.5614L13583.674,-3482.5614L13583.6523,-3482.5666L13583.6387,-3482.5684L13583.5948,-3482.5755L13583.5684,-3482.5779L13583.5255,-3482.5854L13583.4597,-3482.5939L13583.4419,-3482.5967L13583.4181,-3482.6008L13583.3802,-3482.6063L13583.3345,-3482.6128L13583.3333,-3482.6129L13583.3203,-3482.6136L13583.3074,-3482.6164L13583.2907,-3482.62L13583.2785,-3482.623L13583.2594,-3482.6279L13583.238,-3482.6281L13583.214,-3482.6211L13583.1956,-3482.6144L13583.1751,-3482.6063L13583.1571,-3482.6026L13583.116,-3482.5923L13583.0939,-3482.587L13583.0793,-3482.5803L13583.0566,-3482.5756L13583.0384,-3482.5728L13583.0167,-3482.5662L13582.9884,-3482.5596L13582.9833,-3482.5584L13582.9577,-3482.5517L13582.9354,-3482.5464L13582.919,-3482.545L13582.8718,-3482.5383L13582.8495,-3482.5359L13582.8333,-3482.5336L13582.8279,-3482.5326L13582.8123,-3482.5334L13582.7903,-3482.5359L13582.7357,-3482.5353L13582.7265,-3482.5357L13582.7172,-3482.5369L13582.7087,-3482.5383L13582.6986,-3482.5387L13582.6818,-3482.5418L13582.6613,-3482.545L13582.6498,-3482.5444L13582.6323,-3482.541L13582.6189,-3482.5371L13582.6029,-3482.5302L13582.5991,-3482.5283L13582.593,-3482.5252L13582.5831,-3482.5173L13582.5768,-3482.51L13582.5721,-3482.5053L13582.5683,-3482.501L13582.5655,-3482.5L13582.5563,-3482.4968L13582.5492,-3482.4939L13582.5427,-3482.4923L13582.531,-3482.4919L13582.5178,-3482.4935L13582.5068,-3482.4978L13582.5,-3482.4997L13582.4991,-3482.5L13582.4943,-3482.5014L13582.487,-3482.5045L13582.4754,-3482.5071L13582.4651,-3482.5067L13582.4503,-3482.5033L13582.4433,-3482.5L13582.4408,-3482.4988L13582.4287,-3482.4903L13582.415,-3482.4848L13582.404,-3482.4836L13582.3941,-3482.4854L13582.3804,-3482.4883L13582.3678,-3482.4952L13582.3627,-3482.5L13582.3591,-3482.5033L13582.3416,-3482.5149L13582.3116,-3482.5459L13582.2758,-3482.5772L13582.2691,-3482.5786L13582.262,-3482.5774L13582.2517,-3482.5715L13582.2364,-3482.5619L13582.2126,-3482.5631L13582.1995,-3482.5716L13582.1367,-3482.6141L13582.108,-3482.6265L13582.0946,-3482.6305L13582.0788,-3482.6303L13582.0639,-3482.626L13582.0334,-3482.6154L13581.9998,-3482.6025L13581.9868,-3482.599L13581.9311,-3482.5846L13581.9001,-3482.5759L13581.8764,-3482.5697L13581.8579,-3482.5672L13581.8379,-3482.566L13581.8186,-3482.5694L13581.8024,-3482.5737L13581.7897,-3482.5735L13581.7311,-3482.5714L13581.7017,-3482.5708L13581.6667,-3482.5729L13581.6397,-3482.5745L13581.6149,-3482.5755L13581.5738,-3482.5745L13581.5475,-3482.5695L13581.5265,-3482.5667L13581.5136,-3482.5629L13581.4934,-3482.556L13581.4904,-3482.5553L13581.4797,-3482.5541L13581.4599,-3482.5506L13581.4469,-3482.5481L13581.4408,-3482.5462L13581.4408,-3482.5431L13581.4241,-3482.5135L13581.4199,-3482.5063L13581.4195,-3482.5057L13581.4126,-3482.5022L13581.4059,-3482.5L13581.3845,-3482.4931L13581.3719,-3482.4912L13581.362,-3482.4896L13581.3589,-3482.488L13581.346,-3482.4799L13581.3421,-3482.47L13581.3333,-3482.4562L13581.3205,-3482.4434L13581.3015,-3482.4311L13581.291,-3482.4251L13581.2702,-3482.4162L13581.2577,-3482.4126L13581.2118,-3482.4024L13581.1777,-3482.3952L13581.1609,-3482.3863L13581.1352,-3482.3674L13581.1216,-3482.3552L13581.1044,-3482.3408L13581.0926,-3482.3334L13581.0831,-3482.3295L13581.0704,-3482.3262L13581.0527,-3482.3229L13581.0324,-3482.3215L13581.0075,-3482.3159L13580.9865,-3482.3071L13580.9594,-3482.2967L13580.9401,-3482.2848L13580.9193,-3482.2662L13580.9013,-3482.2516L13580.8853,-3482.2367L13580.8631,-3482.2267L13580.8443,-3482.2203L13580.8333,-3482.2189L13580.8177,-3482.2167L13580.7856,-3482.2148L13580.7652,-3482.2142L13580.7416,-3482.2192L13580.7336,-3482.2242L13580.7269,-3482.2355L13580.7214,-3482.2496L13580.7189,-3482.2637L13580.7062,-3482.2767L13580.7008,-3482.2768L13580.6881,-3482.277L13580.6846,-3482.277L13580.6233,-3482.2611L13580.6063,-3482.2562L13580.5877,-3482.251L13580.563,-3482.2471L13580.4569,-3482.2304L13580.4397,-3482.2276L13580.4308,-3482.2261L13580.4064,-3482.2237L13580.3542,-3482.2187L13580.1975,-3482.2126L13580.0655,-3482.2079L13580,-3482.2059L13579.9035,-3482.2028L13579.8824,-3482.1993L13579.8498,-3482.1938L13579.7432,-3482.1923L13579.6888,-3482.1891L13579.5414,-3482.1842L13579.5084,-3482.1821L13579.4427,-3482.1779L13579.4269,-3482.1769L13579.3689,-3482.1755L13579.3007,-3482.1739L13579.2928,-3482.1737L13579.2682,-3482.1726L13579.1962,-3482.1674L13579.1754,-3482.1658L13579.1691,-3482.1654L13579.1667,-3482.1653L13579.1551,-3482.1646L13579.1016,-3482.1614Z"/>
<path content="京都府,,,京田辺市,,26211" xlink:title="京都府" d="M13579.1016,-3480.4688L13579.1016,-3482.1227L13579.1078,-3482.1146L13579.118,-3482.1022L13579.1506,-3482.0627L13579.1667,-3482.0386L13579.175,-3482.0261L13579.2084,-3481.9951L13579.2268,-3481.9797L13579.2823,-3481.9344L13579.3133,-3481.9111L13579.3604,-3481.8784L13579.4043,-3481.8457L13579.4369,-3481.8227L13579.4866,-3481.789L13579.4973,-3481.7817L13579.5384,-3481.7565L13579.5718,-3481.7361L13579.5973,-3481.7205L13579.618,-3481.7107L13579.6422,-3481.6967L13579.6817,-3481.674L13579.6941,-3481.6667L13579.71,-3481.6573L13579.7373,-3481.6354L13579.7711,-3481.604L13579.7991,-3481.5771L13579.8251,-3481.55L13579.8585,-3481.5095L13579.8737,-3481.4913L13579.9164,-3481.4406L13579.9585,-3481.3862L13580,-3481.3345L13580.0298,-3481.2973L13580.0514,-3481.2708L13580.096,-3481.2115L13580.1151,-3481.1846L13580.132,-3481.1606L13580.1415,-3481.1457L13580.1666,-3481.1074L13580.1846,-3481.077L13580.188,-3481.0702L13580.2009,-3481.0297L13580.2173,-3480.9823L13580.2271,-3480.947L13580.231,-3480.9327L13580.231,-3480.9299L13580.2378,-3480.8998L13580.2399,-3480.8837L13580.2418,-3480.8333L13580.2419,-3480.829L13580.2385,-3480.7822L13580.2365,-3480.7586L13580.231,-3480.7281L13580.2295,-3480.7208L13580.2217,-3480.6817L13580.2199,-3480.674L13580.2093,-3480.6257L13580.2068,-3480.6145L13580.1982,-3480.5844L13580.1975,-3480.5782L13580.1948,-3480.5692L13580.1818,-3480.5337L13580.162,-3480.4875L13580.1538,-3480.4688Z"/>
<path content="京都府,,久世郡,久御山町,,26322" xlink:title="京都府" d="M13582.8963,-3486.4991L13582.931,-3486.486L13582.9437,-3486.4867L13582.9869,-3486.4535L13583.1143,-3486.3346L13583.1734,-3486.3161L13583.2326,-3486.268L13583.2402,-3486.2587L13583.2691,-3486.2232L13583.28,-3486.2012L13583.3263,-3486.1074L13583.3333,-3486.0837L13583.3443,-3486.0467L13583.3724,-3486.0135L13583.3818,-3485.9888L13583.3865,-3485.9239L13583.3809,-3485.8992L13583.3505,-3485.864L13583.348,-3485.861L13583.3333,-3485.8477L13583.3193,-3485.835L13583.3008,-3485.845L13583.2648,-3485.8709L13583.2387,-3485.8731L13583.2092,-3485.8756L13583.1514,-3485.8902L13583.1136,-3485.9044L13583.0477,-3485.9526L13583.0092,-3486.0061L13582.9916,-3485.9992L13582.9642,-3485.9885L13582.9133,-3485.9646L13582.8891,-3485.9534L13582.8764,-3485.9525L13582.8533,-3485.9681L13582.8217,-3485.9819L13582.7782,-3486.0058L13582.7498,-3486.025L13582.7435,-3486.0292L13582.714,-3486.0631L13582.6677,-3486.1654L13582.6361,-3486.2036L13582.6086,-3486.2491L13582.5675,-3486.2899L13582.5675,-3486.3037L13582.6707,-3486.4495L13582.6759,-3486.4677L13582.6654,-3486.4998L13582.6707,-3486.5232L13582.6833,-3486.5388L13582.7552,-3486.5537L13582.791,-3486.5667L13582.8338,-3486.5908L13582.8479,-3486.5988L13582.8594,-3486.6031L13582.8679,-3486.5953L13582.8605,-3486.566L13582.8563,-3486.5493L13582.8668,-3486.5268L13582.8963,-3486.4991Z"/>
<path content="京都府,,綴喜郡,井手町,,26343" xlink:title="京都府" d="M13582.1995,-3482.5716L13582.2126,-3482.5631L13582.2364,-3482.5619L13582.2517,-3482.5715L13582.262,-3482.5774L13582.2691,-3482.5786L13582.2758,-3482.5772L13582.3116,-3482.5459L13582.3416,-3482.5149L13582.3591,-3482.5033L13582.3627,-3482.5L13582.3678,-3482.4952L13582.3804,-3482.4883L13582.3941,-3482.4854L13582.404,-3482.4836L13582.415,-3482.4848L13582.4287,-3482.4903L13582.4408,-3482.4988L13582.4433,-3482.5L13582.4503,-3482.5033L13582.4651,-3482.5067L13582.4754,-3482.5071L13582.487,-3482.5045L13582.4943,-3482.5014L13582.4991,-3482.5L13582.5,-3482.4997L13582.5068,-3482.4978L13582.5178,-3482.4935L13582.531,-3482.4919L13582.5427,-3482.4923L13582.5492,-3482.4939L13582.5563,-3482.4968L13582.5655,-3482.5L13582.5683,-3482.501L13582.5721,-3482.5053L13582.5768,-3482.51L13582.5831,-3482.5173L13582.593,-3482.5252L13582.5991,-3482.5283L13582.6029,-3482.5302L13582.6189,-3482.5371L13582.6323,-3482.541L13582.6498,-3482.5444L13582.6613,-3482.545L13582.6818,-3482.5418L13582.6986,-3482.5387L13582.7087,-3482.5383L13582.7172,-3482.5369L13582.7265,-3482.5357L13582.7357,-3482.5353L13582.7903,-3482.5359L13582.8123,-3482.5334L13582.8279,-3482.5326L13582.8333,-3482.5336L13582.8495,-3482.5359L13582.8718,-3482.5383L13582.919,-3482.545L13582.9354,-3482.5464L13582.9577,-3482.5517L13582.9833,-3482.5584L13582.9884,-3482.5596L13583.0167,-3482.5662L13583.0384,-3482.5728L13583.0566,-3482.5756L13583.0793,-3482.5803L13583.0939,-3482.587L13583.116,-3482.5923L13583.1571,-3482.6026L13583.1751,-3482.6063L13583.1956,-3482.6144L13583.214,-3482.6211L13583.238,-3482.6281L13583.2594,-3482.6279L13583.2785,-3482.623L13583.2907,-3482.62L13583.3074,-3482.6164L13583.3203,-3482.6136L13583.3333,-3482.6129L13583.3345,-3482.6128L13583.3802,-3482.6063L13583.4181,-3482.6008L13583.4419,-3482.5967L13583.4597,-3482.5939L13583.5255,-3482.5854L13583.5684,-3482.5779L13583.5948,-3482.5755L13583.6387,-3482.5684L13583.6523,-3482.5666L13583.674,-3482.5614L13583.6747,-3482.5614L13583.6946,-3482.5589L13583.7183,-3482.5573L13583.7431,-3482.5536L13583.767,-3482.5502L13583.7856,-3482.549L13583.8058,-3482.544L13583.8221,-3482.54L13583.8679,-3482.5361L13583.8991,-3482.5312L13583.9256,-3482.525L13583.9533,-3482.5203L13584.0322,-3482.5082L13584.0533,-3482.5L13584.0626,-3482.4964L13584.0642,-3482.4958L13584.0937,-3482.4935L13584.1285,-3482.4953L13584.1667,-3482.4932L13584.1828,-3482.4924L13584.2748,-3482.4878L13584.3376,-3482.4839L13584.4462,-3482.4776L13584.5201,-3482.4764L13584.5424,-3482.4746L13584.5991,-3482.4712L13584.6457,-3482.4709L13584.6988,-3482.4699L13584.7278,-3482.4691L13584.7443,-3482.4724L13584.7697,-3482.4795L13584.7711,-3482.4799L13584.8184,-3482.4836L13584.8448,-3482.4874L13584.8695,-3482.4878L13584.8857,-3482.4904L13584.9027,-3482.4955L13584.9116,-3482.5L13584.9249,-3482.5067L13584.9429,-3482.5212L13584.9653,-3482.5274L13584.9861,-3482.5353L13585,-3482.5392L13585.0101,-3482.5422L13585.0186,-3482.5422L13585.0461,-3482.5452L13585.067,-3482.5361L13585.0748,-3482.5326L13585.0864,-3482.5222L13585.0929,-3482.5137L13585.1038,-3482.5052L13585.1144,-3482.5L13585.1186,-3482.498L13585.1254,-3482.4946L13585.1493,-3482.492L13585.1665,-3482.4968L13585.1726,-3482.5L13585.177,-3482.5023L13585.1857,-3482.5092L13585.1991,-3482.5226L13585.2219,-3482.5561L13585.2354,-3482.5756L13585.2494,-3482.5873L13585.2753,-3482.5893L13585.2873,-3482.5893L13585.3091,-3482.5852L13585.3179,-3482.5806L13585.327,-3482.5743L13585.3436,-3482.552L13585.3536,-3482.5353L13585.3672,-3482.5182L13585.3816,-3482.5049L13585.3883,-3482.5L13585.3986,-3482.4923L13585.4104,-3482.4781L13585.4125,-3482.4537L13585.4103,-3482.4409L13585.4071,-3482.4273L13585.3946,-3482.3973L13585.3921,-3482.3914L13585.3921,-3482.38L13585.3909,-3482.3668L13585.3917,-3482.3542L13585.3935,-3482.344L13585.3981,-3482.3339L13585.4034,-3482.3229L13585.4121,-3482.3044L13585.4183,-3482.2853L13585.4254,-3482.2731L13585.4293,-3482.2677L13585.4431,-3482.2588L13585.4526,-3482.2579L13585.456,-3482.2607L13585.4789,-3482.2794L13585.4951,-3482.2894L13585.5343,-3482.3161L13585.5596,-3482.3277L13585.5859,-3482.3315L13585.6163,-3482.3404L13585.6277,-3482.3429L13585.6377,-3482.3428L13585.6413,-3482.3414L13585.6536,-3482.3302L13585.6644,-3482.3099L13585.6668,-3482.2977L13585.6652,-3482.2783L13585.6623,-3482.2675L13585.6591,-3482.2533L13585.6646,-3482.2345L13585.6688,-3482.2301L13585.6783,-3482.2229L13585.6893,-3482.2164L13585.6943,-3482.2138L13585.7125,-3482.2121L13585.7226,-3482.2107L13585.7253,-3482.2087L13585.7259,-3482.1927L13585.7251,-3482.1781L13585.7245,-3482.1496L13585.7285,-3482.1257L13585.7372,-3482.1217L13585.7455,-3482.1194L13585.7538,-3482.1205L13585.7627,-3482.1223L13585.7706,-3482.1227L13585.7769,-3482.1227L13585.7864,-3482.1219L13585.7937,-3482.1194L13585.7994,-3482.1166L13585.8118,-3482.1116L13585.8168,-3482.1107L13585.8207,-3482.1087L13585.8333,-3482.1057L13585.8467,-3482.1026L13585.8663,-3482.1054L13585.8951,-3482.1158L13585.9006,-3482.1181L13585.9137,-3482.1235L13585.9382,-3482.1286L13585.9541,-3482.1364L13585.9612,-3482.1411L13585.9728,-3482.1437L13585.9792,-3482.1385L13585.9886,-3482.1087L13585.9967,-3482.0654L13585.997,-3482.0281L13585.9859,-3482.0009L13585.983,-3481.9881L13585.9836,-3481.9756L13585.9855,-3481.946L13585.9827,-3481.9242L13585.9778,-3481.9133L13585.9591,-3481.8859L13585.9456,-3481.872L13585.9408,-3481.8546L13585.9426,-3481.8422L13585.9452,-3481.8279L13585.9544,-3481.8104L13585.9781,-3481.7685L13586.0019,-3481.7218L13586.0077,-3481.7105L13586.011,-3481.7037L13586.0118,-3481.6929L13586.0106,-3481.6857L13586.0041,-3481.6757L13586.0002,-3481.6678L13585.9996,-3481.6667L13585.9958,-3481.6585L13585.9936,-3481.6516L13585.9926,-3481.6456L13585.9921,-3481.6349L13585.9933,-3481.6136L13585.9911,-3481.5931L13585.9806,-3481.5788L13585.974,-3481.5649L13585.9681,-3481.5511L13585.964,-3481.5357L13585.9685,-3481.5112L13585.9754,-3481.4984L13585.9813,-3481.4906L13585.9898,-3481.4862L13586.0054,-3481.4815L13586.0256,-3481.4792L13586.0403,-3481.4739L13586.0456,-3481.4669L13586.0493,-3481.4507L13586.0497,-3481.4369L13586.0481,-3481.4264L13586.0488,-3481.4125L13586.0599,-3481.3946L13586.0922,-3481.3744L13586.1071,-3481.3652L13586.0976,-3481.3589L13586.0792,-3481.3422L13586.0656,-3481.3267L13586.0568,-3481.3091L13586.0533,-3481.2919L13586.051,-3481.2794L13586.047,-3481.2464L13586.0464,-3481.2271L13586.0433,-3481.1981L13586.0432,-3481.186L13586.0419,-3481.1638L13586.0407,-3481.1438L13586.0392,-3481.1067L13586.0377,-3481.0833L13586.0382,-3481.0782L13586.0414,-3481.0778L13586.046,-3481.0815L13586.076,-3481.1055L13586.0914,-3481.1167L13586.1049,-3481.1279L13586.1128,-3481.147L13586.1206,-3481.1628L13586.1498,-3481.184L13586.1705,-3481.1955L13586.1881,-3481.1998L13586.1989,-3481.2005L13586.2104,-3481.2046L13586.2228,-3481.2122L13586.2329,-3481.2219L13586.2423,-3481.2358L13586.2473,-3481.2526L13586.2557,-3481.2677L13586.27,-3481.2788L13586.2943,-3481.2877L13586.3207,-3481.2929L13586.3322,-3481.2937L13586.3574,-3481.2953L13586.3749,-3481.299L13586.3966,-3481.3037L13586.4163,-3481.3094L13586.4329,-3481.3108L13586.4483,-3481.3069L13586.4642,-3481.2977L13586.476,-3481.2885L13586.4954,-3481.2775L13586.5211,-3481.2709L13586.5372,-3481.2684L13586.5531,-3481.2681L13586.5694,-3481.2683L13586.5808,-3481.2717L13586.5987,-3481.2823L13586.614,-3481.292L13586.621,-3481.2948L13586.6339,-3481.2998L13586.6438,-3481.3004L13586.6583,-3481.2989L13586.6667,-3481.2969L13586.6749,-3481.2949L13586.7573,-3481.2643L13586.777,-3481.2548L13586.7892,-3481.2441L13586.8094,-3481.2249L13586.8432,-3481.1784L13586.8589,-3481.1462L13586.8685,-3481.1141L13586.8886,-3481.066L13586.8928,-3481.0571L13586.902,-3481.0512L13586.9398,-3481.0312L13586.9718,-3481.0101L13587.0003,-3480.9859L13587.0299,-3480.9594L13587.0526,-3480.9358L13587.072,-3480.9266L13587.1037,-3480.9191L13587.1686,-3480.9052L13587.1836,-3480.9038L13587.1989,-3480.9001L13587.2102,-3480.8956L13587.2155,-3480.8943L13587.2278,-3480.8873L13587.2432,-3480.8773L13587.2632,-3480.8642L13587.2802,-3480.8527L13587.2994,-3480.8357L13587.3023,-3480.8333L13587.3241,-3480.815L13587.3503,-3480.7957L13587.3696,-3480.7788L13587.3896,-3480.7757L13587.4012,-3480.7718L13587.4035,-3480.7526L13587.4112,-3480.7449L13587.442,-3480.7187L13587.4567,-3480.7064L13587.4667,-3480.7002L13587.4837,-3480.6902L13587.4913,-3480.6894L13587.4938,-3480.6886L13587.4961,-3480.6861L13587.4966,-3480.6788L13587.498,-3480.6621L13587.5,-3480.6596L13587.5071,-3480.6509L13587.5344,-3480.6301L13587.5539,-3480.6153L13587.5657,-3480.607L13587.5734,-3480.6L13587.5839,-3480.5946L13587.5963,-3480.5959L13587.6033,-3480.5914L13587.6078,-3480.5773L13587.6131,-3480.5656L13587.6201,-3480.5526L13587.6272,-3480.5422L13587.6419,-3480.5231L13587.6481,-3480.5159L13587.6597,-3480.5076L13587.6741,-3480.501L13587.6938,-3480.4911L13587.7048,-3480.4893L13587.7367,-3480.4971L13587.7394,-3480.4904L13587.7416,-3480.4848L13587.7367,-3480.4764L13587.7248,-3480.4723L13587.7123,-3480.4695L13587.7091,-3480.4688L13587.6689,-3480.4688L13587.6627,-3480.4702L13587.6509,-3480.4743L13587.6453,-3480.4709L13587.6442,-3480.4687L13587.6114,-3480.4688L13587.6118,-3480.4744L13587.6108,-3480.4833L13587.6069,-3480.4918L13587.5951,-3480.5057L13587.5678,-3480.5399L13587.5564,-3480.5564L13587.5564,-3480.5564L13587.5378,-3480.5727L13587.5176,-3480.5859L13587.5,-3480.6072L13587.4821,-3480.6288L13587.4485,-3480.6592L13587.4324,-3480.6745L13587.4199,-3480.6822L13587.4041,-3480.7003L13587.3899,-3480.7145L13587.3811,-3480.7213L13587.3668,-3480.7296L13587.3438,-3480.7394L13587.3305,-3480.7477L13587.3124,-3480.7659L13587.2873,-3480.7924L13587.2677,-3480.8112L13587.2482,-3480.8112L13587.2384,-3480.7986L13587.2335,-3480.7839L13587.2307,-3480.7721L13587.2263,-3480.7572L13587.2217,-3480.7491L13587.2155,-3480.7413L13587.2099,-3480.7324L13587.2014,-3480.7147L13587.1904,-3480.6795L13587.186,-3480.6624L13587.1836,-3480.6496L13587.1777,-3480.6351L13587.1672,-3480.6186L13587.157,-3480.6083L13587.1494,-3480.5999L13587.1429,-3480.5923L13587.1397,-3480.5828L13587.1403,-3480.5754L13587.1463,-3480.562L13587.1473,-3480.5606L13587.1568,-3480.5468L13587.16,-3480.5392L13587.1661,-3480.5237L13587.1705,-3480.5125L13587.1731,-3480.4987L13587.1704,-3480.4819L13587.1682,-3480.4688L13587.1257,-3480.4688L13587.1254,-3480.4806L13587.1276,-3480.4941L13587.1281,-3480.5145L13587.1224,-3480.53L13587.0973,-3480.5518L13587.0894,-3480.5624L13587.0883,-3480.5659L13587.0864,-3480.5719L13587.0873,-3480.5803L13587.0921,-3480.5883L13587.0983,-3480.5999L13587.1103,-3480.6129L13587.1139,-3480.6161L13587.1274,-3480.6261L13587.1394,-3480.6337L13587.1479,-3480.6448L13587.1537,-3480.6558L13587.1561,-3480.6724L13587.1551,-3480.6876L13587.1587,-3480.6997L13587.1646,-3480.7093L13587.1748,-3480.7236L13587.1905,-3480.7491L13587.1954,-3480.7636L13587.1998,-3480.7806L13587.2036,-3480.7998L13587.2062,-3480.8229L13587.2067,-3480.8333L13587.2068,-3480.8353L13587.205,-3480.842L13587.2004,-3480.8467L13587.1941,-3480.8512L13587.1827,-3480.853L13587.1723,-3480.8548L13587.1624,-3480.8556L13587.1502,-3480.8562L13587.1296,-3480.8626L13587.1217,-3480.8644L13587.1105,-3480.8662L13587.0982,-3480.8715L13587.0904,-3480.8737L13587.0787,-3480.8747L13587.0647,-3480.8741L13587.0492,-3480.8757L13587.0331,-3480.8862L13587.0178,-3480.8952L13587.0092,-3480.9035L13587.001,-3480.9163L13586.9911,-3480.9288L13586.9829,-3480.9414L13586.9755,-3480.9501L13586.9579,-3480.962L13586.9371,-3480.9742L13586.9212,-3480.9835L13586.9019,-3480.9933L13586.8808,-3481.0058L13586.8627,-3481.0249L13586.8536,-3481.0384L13586.8474,-3481.0486L13586.8358,-3481.0661L13586.8255,-3481.0812L13586.815,-3481.0967L13586.8038,-3481.1145L13586.7889,-3481.1334L13586.7694,-3481.1537L13586.7258,-3481.1919L13586.7037,-3481.2114L13586.6766,-3481.2351L13586.6667,-3481.245L13586.664,-3481.2476L13586.658,-3481.251L13586.6484,-3481.2518L13586.6317,-3481.2451L13586.6176,-3481.2385L13586.6058,-3481.2341L13586.5971,-3481.2313L13586.5819,-3481.2305L13586.5759,-3481.2287L13586.5574,-3481.2251L13586.5443,-3481.2241L13586.5235,-3481.2275L13586.5039,-3481.2339L13586.4957,-3481.2378L13586.482,-3481.2442L13586.4717,-3481.2474L13586.4625,-3481.2542L13586.4524,-3481.2619L13586.438,-3481.2683L13586.4276,-3481.2711L13586.4131,-3481.2691L13586.3942,-3481.2649L13586.3712,-3481.2584L13586.3587,-3481.2535L13586.3394,-3481.2499L13586.3091,-3481.2423L13586.3027,-3481.2399L13586.2975,-3481.2357L13586.2908,-3481.2236L13586.2888,-3481.2138L13586.286,-3481.1997L13586.2831,-3481.1908L13586.2757,-3481.1822L13586.2697,-3481.1764L13586.2536,-3481.1709L13586.2365,-3481.166L13586.2177,-3481.1603L13586.2087,-3481.1549L13586.1976,-3481.1434L13586.1918,-3481.1299L13586.1869,-3481.1177L13586.1801,-3481.1062L13586.1749,-3481.0984L13586.1649,-3481.0888L13586.1576,-3481.084L13586.1458,-3481.0775L13586.1391,-3481.0747L13586.1377,-3481.0727L13586.1405,-3481.0707L13586.1455,-3481.0675L13586.1554,-3481.0615L13586.171,-3481.0552L13586.1754,-3481.051L13586.1909,-3481.0364L13586.1996,-3481.0251L13586.205,-3481.0158L13586.2062,-3481.0059L13586.2093,-3480.9951L13586.2139,-3480.9863L13586.2215,-3480.9812L13586.2359,-3480.9768L13586.2556,-3480.9734L13586.2725,-3480.9718L13586.2829,-3480.9698L13586.3153,-3480.967L13586.3302,-3480.9626L13586.3529,-3480.9571L13586.3684,-3480.9533L13586.3887,-3480.9465L13586.3982,-3480.9395L13586.4048,-3480.9304L13586.4065,-3480.9215L13586.4101,-3480.9125L13586.4167,-3480.9051L13586.429,-3480.8968L13586.4446,-3480.889L13586.4605,-3480.8816L13586.4776,-3480.8771L13586.486,-3480.8731L13586.4958,-3480.8675L13586.5057,-3480.8587L13586.5143,-3480.8486L13586.5292,-3480.8333L13586.5292,-3480.8333L13586.5377,-3480.8261L13586.5503,-3480.8195L13586.5555,-3480.8181L13586.568,-3480.8157L13586.5771,-3480.8144L13586.5853,-3480.8156L13586.6136,-3480.8132L13586.6319,-3480.8071L13586.661,-3480.7997L13586.6667,-3480.7971L13586.6967,-3480.7832L13586.7045,-3480.7764L13586.7182,-3480.7613L13586.7234,-3480.7511L13586.7319,-3480.7257L13586.7333,-3480.7137L13586.7357,-3480.6853L13586.7334,-3480.6689L13586.7248,-3480.6456L13586.7134,-3480.6248L13586.709,-3480.6055L13586.7062,-3480.5903L13586.7064,-3480.5774L13586.7102,-3480.5505L13586.7164,-3480.5196L13586.7178,-3480.5006L13586.7128,-3480.4749L13586.7102,-3480.4688L13580.1538,-3480.4688L13580.162,-3480.4875L13580.1818,-3480.5337L13580.1948,-3480.5692L13580.1975,-3480.5782L13580.1982,-3480.5844L13580.2068,-3480.6145L13580.2093,-3480.6257L13580.2199,-3480.674L13580.2217,-3480.6817L13580.2295,-3480.7208L13580.231,-3480.7281L13580.2365,-3480.7586L13580.2385,-3480.7822L13580.2419,-3480.829L13580.2418,-3480.8333L13580.2399,-3480.8837L13580.2378,-3480.8998L13580.231,-3480.9299L13580.231,-3480.9327L13580.2271,-3480.947L13580.2173,-3480.9823L13580.2009,-3481.0297L13580.188,-3481.0702L13580.1846,-3481.077L13580.1666,-3481.1074L13580.1415,-3481.1457L13580.132,-3481.1606L13580.1151,-3481.1846L13580.096,-3481.2115L13580.0514,-3481.2708L13580.0298,-3481.2973L13580,-3481.3345L13579.9585,-3481.3862L13579.9164,-3481.4406L13579.8737,-3481.4913L13579.8585,-3481.5095L13579.8251,-3481.55L13579.7991,-3481.5771L13579.7711,-3481.604L13579.7373,-3481.6354L13579.71,-3481.6573L13579.6941,-3481.6667L13579.6817,-3481.674L13579.6422,-3481.6967L13579.618,-3481.7107L13579.5973,-3481.7205L13579.5718,-3481.7361L13579.5384,-3481.7565L13579.4973,-3481.7817L13579.4866,-3481.789L13579.4369,-3481.8227L13579.4043,-3481.8457L13579.3604,-3481.8784L13579.3133,-3481.9111L13579.2823,-3481.9344L13579.2268,-3481.9797L13579.2084,-3481.9951L13579.175,-3482.0261L13579.1667,-3482.0386L13579.1506,-3482.0627L13579.118,-3482.1022L13579.1078,-3482.1146L13579.1016,-3482.1227L13579.1016,-3482.1614L13579.1551,-3482.1646L13579.1667,-3482.1653L13579.1691,-3482.1654L13579.1754,-3482.1658L13579.1962,-3482.1674L13579.2682,-3482.1726L13579.2928,-3482.1737L13579.3007,-3482.1739L13579.3689,-3482.1755L13579.4269,-3482.1769L13579.4427,-3482.1779L13579.5084,-3482.1821L13579.5414,-3482.1842L13579.6888,-3482.1891L13579.7432,-3482.1923L13579.8498,-3482.1938L13579.8824,-3482.1993L13579.9035,-3482.2028L13580,-3482.2059L13580.0655,-3482.2079L13580.1975,-3482.2126L13580.3542,-3482.2187L13580.4064,-3482.2237L13580.4308,-3482.2261L13580.4397,-3482.2276L13580.4569,-3482.2304L13580.563,-3482.2471L13580.5877,-3482.251L13580.6063,-3482.2562L13580.6233,-3482.2611L13580.6846,-3482.277L13580.6881,-3482.277L13580.7008,-3482.2768L13580.7062,-3482.2767L13580.7189,-3482.2637L13580.7214,-3482.2496L13580.7269,-3482.2355L13580.7336,-3482.2242L13580.7416,-3482.2192L13580.7652,-3482.2142L13580.7856,-3482.2148L13580.8177,-3482.2167L13580.8333,-3482.2189L13580.8443,-3482.2203L13580.8631,-3482.2267L13580.8853,-3482.2367L13580.9013,-3482.2516L13580.9193,-3482.2662L13580.9401,-3482.2848L13580.9594,-3482.2967L13580.9865,-3482.3071L13581.0075,-3482.3159L13581.0324,-3482.3215L13581.0527,-3482.3229L13581.0704,-3482.3262L13581.0831,-3482.3295L13581.0926,-3482.3334L13581.1044,-3482.3408L13581.1216,-3482.3552L13581.1352,-3482.3674L13581.1609,-3482.3863L13581.1777,-3482.3952L13581.2118,-3482.4024L13581.2577,-3482.4126L13581.2702,-3482.4162L13581.291,-3482.4251L13581.3015,-3482.4311L13581.3205,-3482.4434L13581.3333,-3482.4562L13581.3421,-3482.47L13581.346,-3482.4799L13581.3589,-3482.488L13581.362,-3482.4896L13581.3719,-3482.4912L13581.3845,-3482.4931L13581.4059,-3482.5L13581.4126,-3482.5022L13581.4195,-3482.5057L13581.4199,-3482.5063L13581.4241,-3482.5135L13581.4408,-3482.5431L13581.4408,-3482.5462L13581.4469,-3482.5481L13581.4599,-3482.5506L13581.4797,-3482.5541L13581.4904,-3482.5553L13581.4934,-3482.556L13581.5136,-3482.5629L13581.5265,-3482.5667L13581.5475,-3482.5695L13581.5738,-3482.5745L13581.6149,-3482.5755L13581.6397,-3482.5745L13581.6667,-3482.5729L13581.7017,-3482.5708L13581.7311,-3482.5714L13581.7897,-3482.5735L13581.8024,-3482.5737L13581.8186,-3482.5694L13581.8379,-3482.566L13581.8579,-3482.5672L13581.8764,-3482.5697L13581.9001,-3482.5759L13581.9311,-3482.5846L13581.9868,-3482.599L13581.9998,-3482.6025L13582.0334,-3482.6154L13582.0639,-3482.626L13582.0788,-3482.6303L13582.0946,-3482.6305L13582.108,-3482.6265L13582.1367,-3482.6141L13582.1995,-3482.5716Z"/>
<path content="京都府,,綴喜郡,宇治田原町,,26344" xlink:title="京都府" d="M13587.8906,-3481.6581L13587.8718,-3481.6479L13587.8578,-3481.6415L13587.836,-3481.6395L13587.8026,-3481.6386L13587.7794,-3481.6403L13587.7494,-3481.6398L13587.7333,-3481.6365L13587.7177,-3481.6316L13587.7036,-3481.6241L13587.6838,-3481.6142L13587.6623,-3481.6073L13587.6373,-3481.6055L13587.6199,-3481.6055L13587.6024,-3481.6067L13587.5885,-3481.6084L13587.567,-3481.6096L13587.549,-3481.6131L13587.5275,-3481.6154L13587.5112,-3481.6171L13587.5,-3481.618L13587.4866,-3481.619L13587.4717,-3481.6195L13587.4432,-3481.6247L13587.4299,-3481.6282L13587.4211,-3481.6322L13587.4089,-3481.6398L13587.3979,-3481.6462L13587.3869,-3481.6491L13587.3723,-3481.6537L13587.3511,-3481.6537L13587.3348,-3481.6523L13587.3271,-3481.6519L13587.3093,-3481.6509L13587.2923,-3481.6509L13587.2745,-3481.6516L13587.2636,-3481.6512L13587.2487,-3481.6494L13587.2374,-3481.6418L13587.2314,-3481.6334L13587.2155,-3481.6342L13587.2052,-3481.6395L13587.1951,-3481.6479L13587.1823,-3481.6543L13587.1647,-3481.6434L13587.1532,-3481.6354L13587.133,-3481.6259L13587.1156,-3481.6213L13587.0955,-3481.6237L13587.0717,-3481.6288L13587.0451,-3481.6367L13587.0207,-3481.6337L13586.9979,-3481.6298L13586.9824,-3481.6247L13586.9673,-3481.6232L13586.9542,-3481.6219L13586.9382,-3481.6168L13586.9236,-3481.6009L13586.9117,-3481.5879L13586.8903,-3481.5623L13586.8746,-3481.547L13586.8626,-3481.532L13586.8399,-3481.5168L13586.8095,-3481.4938L13586.7893,-3481.481L13586.7764,-3481.4645L13586.7593,-3481.4433L13586.7529,-3481.4309L13586.7444,-3481.4283L13586.7361,-3481.4295L13586.7259,-3481.4323L13586.707,-3481.4376L13586.6848,-3481.4512L13586.6739,-3481.4622L13586.6667,-3481.4686L13586.6601,-3481.4744L13586.6414,-3481.4816L13586.6238,-3481.4839L13586.6061,-3481.4854L13586.5967,-3481.4849L13586.5825,-3481.4772L13586.5776,-3481.467L13586.5678,-3481.4483L13586.5489,-3481.4217L13586.5328,-3481.4072L13586.5188,-3481.4031L13586.4996,-3481.403L13586.4842,-3481.4121L13586.4745,-3481.4236L13586.4648,-3481.4324L13586.4585,-3481.4356L13586.448,-3481.4356L13586.4385,-3481.4341L13586.3461,-3481.4143L13586.303,-3481.4071L13586.2831,-3481.4019L13586.2627,-3481.3947L13586.2315,-3481.3812L13586.2197,-3481.3733L13586.2072,-3481.362L13586.2006,-3481.3562L13586.1962,-3481.3537L13586.186,-3481.3526L13586.1755,-3481.3529L13586.1636,-3481.3547L13586.1586,-3481.3566L13586.1466,-3481.3672L13586.1419,-3481.3736L13586.1352,-3481.3754L13586.1278,-3481.3761L13586.1199,-3481.3728L13586.1071,-3481.3652L13586.0922,-3481.3744L13586.0599,-3481.3946L13586.0488,-3481.4125L13586.0481,-3481.4264L13586.0497,-3481.4369L13586.0493,-3481.4507L13586.0456,-3481.4669L13586.0403,-3481.4739L13586.0256,-3481.4792L13586.0054,-3481.4815L13585.9898,-3481.4862L13585.9813,-3481.4906L13585.9754,-3481.4984L13585.9685,-3481.5112L13585.964,-3481.5357L13585.9681,-3481.5511L13585.974,-3481.5649L13585.9806,-3481.5788L13585.9911,-3481.5931L13585.9933,-3481.6136L13585.9921,-3481.6349L13585.9926,-3481.6456L13585.9936,-3481.6516L13585.9958,-3481.6585L13585.9996,-3481.6667L13586.0002,-3481.6678L13586.0041,-3481.6757L13586.0106,-3481.6857L13586.0118,-3481.6929L13586.011,-3481.7037L13586.0077,-3481.7105L13586.0019,-3481.7218L13585.9781,-3481.7685L13585.9544,-3481.8104L13585.9452,-3481.8279L13585.9426,-3481.8422L13585.9408,-3481.8546L13585.9456,-3481.872L13585.9591,-3481.8859L13585.9778,-3481.9133L13585.9827,-3481.9242L13585.9855,-3481.946L13585.9836,-3481.9756L13585.983,-3481.9881L13585.9859,-3482.0009L13585.997,-3482.0281L13585.9967,-3482.0654L13585.9886,-3482.1087L13585.9792,-3482.1385L13585.9728,-3482.1437L13585.9612,-3482.1411L13585.9541,-3482.1364L13585.9382,-3482.1286L13585.9137,-3482.1235L13585.9006,-3482.1181L13585.8951,-3482.1158L13585.8663,-3482.1054L13585.8467,-3482.1026L13585.8333,-3482.1057L13585.8207,-3482.1087L13585.8168,-3482.1107L13585.8118,-3482.1116L13585.7994,-3482.1166L13585.7937,-3482.1194L13585.7864,-3482.1219L13585.7769,-3482.1227L13585.7706,-3482.1227L13585.7627,-3482.1223L13585.7538,-3482.1205L13585.7455,-3482.1194L13585.7372,-3482.1217L13585.7285,-3482.1257L13585.7245,-3482.1496L13585.7251,-3482.1781L13585.7259,-3482.1927L13585.7253,-3482.2087L13585.7226,-3482.2107L13585.7125,-3482.2121L13585.6943,-3482.2138L13585.6893,-3482.2164L13585.6783,-3482.2229L13585.6688,-3482.2301L13585.6646,-3482.2345L13585.6591,-3482.2533L13585.6623,-3482.2675L13585.6652,-3482.2783L13585.6668,-3482.2977L13585.6644,-3482.3099L13585.6536,-3482.3302L13585.6413,-3482.3414L13585.6377,-3482.3428L13585.6277,-3482.3429L13585.6163,-3482.3404L13585.5859,-3482.3315L13585.5596,-3482.3277L13585.5343,-3482.3161L13585.4951,-3482.2894L13585.4789,-3482.2794L13585.456,-3482.2607L13585.4526,-3482.2579L13585.4431,-3482.2588L13585.4293,-3482.2677L13585.4254,-3482.2731L13585.4183,-3482.2853L13585.4121,-3482.3044L13585.4034,-3482.3229L13585.3981,-3482.3339L13585.3935,-3482.344L13585.3917,-3482.3542L13585.3909,-3482.3668L13585.3921,-3482.38L13585.3921,-3482.3914L13585.3946,-3482.3973L13585.4071,-3482.4273L13585.4103,-3482.4409L13585.4125,-3482.4537L13585.4104,-3482.4781L13585.3986,-3482.4923L13585.3883,-3482.5L13585.3816,-3482.5049L13585.3672,-3482.5182L13585.3536,-3482.5353L13585.3436,-3482.552L13585.327,-3482.5743L13585.3179,-3482.5806L13585.3091,-3482.5852L13585.2873,-3482.5893L13585.2753,-3482.5893L13585.2494,-3482.5873L13585.2354,-3482.5756L13585.2219,-3482.5561L13585.1991,-3482.5226L13585.1857,-3482.5092L13585.177,-3482.5023L13585.1726,-3482.5L13585.1665,-3482.4968L13585.1493,-3482.492L13585.1254,-3482.4946L13585.1186,-3482.498L13585.1144,-3482.5L13585.1038,-3482.5052L13585.0929,-3482.5137L13585.0864,-3482.5222L13585.0748,-3482.5326L13585.067,-3482.5361L13585.0461,-3482.5452L13585.0186,-3482.5422L13585.0101,-3482.5422L13585,-3482.5392L13584.9861,-3482.5353L13584.9653,-3482.5274L13584.9429,-3482.5212L13584.9249,-3482.5067L13584.9116,-3482.5L13584.9027,-3482.4955L13584.8857,-3482.4904L13584.8695,-3482.4878L13584.8448,-3482.4874L13584.8184,-3482.4836L13584.7711,-3482.4799L13584.7656,-3482.5L13584.7642,-3482.5052L13584.7596,-3482.5296L13584.7584,-3482.5437L13584.7574,-3482.5605L13584.7557,-3482.5726L13584.7592,-3482.5913L13584.7576,-3482.6008L13584.7543,-3482.6077L13584.7519,-3482.6132L13584.7507,-3482.6186L13584.7497,-3482.6259L13584.7497,-3482.6294L13584.7496,-3482.6436L13584.7471,-3482.6614L13584.7449,-3482.6807L13584.7414,-3482.6862L13584.7374,-3482.6896L13584.7264,-3482.6912L13584.7015,-3482.6932L13584.6894,-3482.6949L13584.6797,-3482.6963L13584.6669,-3482.7054L13584.658,-3482.7168L13584.6501,-3482.7361L13584.6479,-3482.7466L13584.6373,-3482.7865L13584.6349,-3482.8049L13584.6311,-3482.8415L13584.6266,-3482.8561L13584.623,-3482.8662L13584.6183,-3482.8762L13584.6167,-3482.8796L13584.6116,-3482.891L13584.5994,-3482.9061L13584.5925,-3482.916L13584.5902,-3482.9221L13584.5886,-3482.9324L13584.5896,-3482.9401L13584.5902,-3482.9439L13584.5914,-3482.9514L13584.589,-3482.9646L13584.589,-3482.9963L13584.5963,-3483.0485L13584.6013,-3483.0799L13584.6109,-3483.1211L13584.6121,-3483.1355L13584.6113,-3483.1432L13584.5955,-3483.1495L13584.585,-3483.1546L13584.5787,-3483.1615L13584.5747,-3483.1704L13584.5749,-3483.1843L13584.5791,-3483.2243L13584.5854,-3483.2547L13584.5894,-3483.2721L13584.5917,-3483.2954L13584.5924,-3483.31L13584.5951,-3483.3329L13584.5951,-3483.3333L13584.5961,-3483.3509L13584.6278,-3483.3945L13584.6336,-3483.3998L13584.6449,-3483.4101L13584.6596,-3483.4243L13584.6729,-3483.4312L13584.681,-3483.4356L13584.7236,-3483.4587L13584.7246,-3483.463L13584.7224,-3483.4711L13584.7186,-3483.4864L13584.7115,-3483.5007L13584.6993,-3483.5168L13584.6995,-3483.5214L13584.703,-3483.5255L13584.7322,-3483.5388L13584.7426,-3483.5444L13584.7517,-3483.5507L13584.7628,-3483.5594L13584.7778,-3483.5751L13584.7853,-3483.5861L13584.8015,-3483.6018L13584.8147,-3483.6105L13584.8205,-3483.6162L13584.8205,-3483.622L13584.8151,-3483.6293L13584.8088,-3483.6411L13584.7925,-3483.6577L13584.7867,-3483.6626L13584.7582,-3483.6808L13584.7439,-3483.6949L13584.724,-3483.7455L13584.6926,-3483.7861L13584.6915,-3483.7893L13584.6765,-3483.8333L13584.6608,-3483.8533L13584.633,-3483.8727L13584.5481,-3483.8938L13584.5224,-3483.9038L13584.5041,-3483.9176L13584.4989,-3483.9215L13584.4773,-3483.9719L13584.4552,-3483.9936L13584.4003,-3484.0307L13584.3282,-3484.026L13584.2609,-3484.0307L13584.1746,-3484.0466L13584.1667,-3484.0519L13584.1596,-3484.0566L13584.146,-3484.0919L13584.1403,-3484.1227L13584.1381,-3484.1551L13584.141,-3484.1667L13584.1538,-3484.218L13584.1574,-3484.2397L13584.1531,-3484.2997L13584.1574,-3484.3513L13584.1624,-3484.3924L13584.1653,-3484.4165L13584.1624,-3484.4671L13584.1553,-3484.5164L13584.1564,-3484.5526L13584.1578,-3484.5653L13584.1528,-3484.5843L13584.1518,-3484.5903L13584.1525,-3484.6016L13584.1496,-3484.6161L13584.1474,-3484.6369L13584.1435,-3484.6491L13584.1382,-3484.6498L13584.1152,-3484.6479L13584.1083,-3484.6462L13584.1034,-3484.6468L13584.0898,-3484.6497L13584.0835,-3484.6517L13584.0786,-3484.6534L13584.0751,-3484.6662L13584.0605,-3484.6783L13584.0375,-3484.6981L13584.0282,-3484.7091L13584.0226,-3484.7139L13584.0074,-3484.7244L13584.0034,-3484.7266L13583.999,-3484.7289L13583.9846,-3484.7386L13583.9737,-3484.7484L13583.9595,-3484.7701L13583.9473,-3484.7708L13583.9417,-3484.772L13583.9375,-3484.7766L13583.9357,-3484.7809L13583.8938,-3484.8017L13583.8904,-3484.8102L13583.889,-3484.8164L13583.8837,-3484.8139L13583.8799,-3484.8198L13583.8641,-3484.8287L13583.8389,-3484.8155L13583.8187,-3484.794L13583.7745,-3484.7671L13583.7639,-3484.7703L13583.7428,-3484.7692L13583.7246,-3484.7799L13583.7144,-3484.7832L13583.6749,-3484.8021L13583.6501,-3484.7978L13583.6075,-3484.8075L13583.5915,-3484.8085L13583.5754,-3484.8028L13583.5574,-3484.7924L13583.5437,-3484.788L13583.5355,-3484.7875L13583.5178,-3484.7952L13583.47,-3484.8164L13583.4591,-3484.8188L13583.393,-3484.834L13583.3751,-3484.8475L13583.373,-3484.8646L13583.3923,-3484.9108L13583.3926,-3484.9119L13583.4126,-3485L13583.4194,-3485.0297L13583.4258,-3485.058L13583.4229,-3485.0832L13583.4051,-3485.1376L13583.4027,-3485.1525L13583.3973,-3485.1852L13583.3944,-3485.2087L13583.4044,-3485.2528L13583.4059,-3485.2667L13583.3724,-3485.3225L13583.3681,-3485.3378L13583.3731,-3485.3602L13583.4082,-3485.3768L13583.4316,-3485.3878L13583.4344,-3485.3978L13583.4344,-3485.4407L13583.453,-3485.4793L13583.453,-3485.5204L13583.4452,-3485.5547L13583.4444,-3485.5581L13583.3937,-3485.5998L13583.3759,-3485.6233L13583.3709,-3485.6386L13583.3875,-3485.6876L13583.3966,-3485.7148L13583.4016,-3485.7389L13583.4016,-3485.7577L13583.3966,-3485.7789L13583.38,-3485.7939L13583.3364,-3485.8168L13583.3333,-3485.8201L13583.3209,-3485.8333L13583.3193,-3485.835L13583.3333,-3485.8477L13583.348,-3485.861L13583.3505,-3485.864L13583.3809,-3485.8992L13583.3865,-3485.9239L13583.3818,-3485.9888L13583.3724,-3486.0135L13583.3443,-3486.0467L13583.3333,-3486.0837L13583.3263,-3486.1074L13583.28,-3486.2012L13583.2691,-3486.2232L13583.2402,-3486.2587L13583.2326,-3486.268L13583.1734,-3486.3161L13583.1143,-3486.3346L13582.9869,-3486.4535L13582.9437,-3486.4867L13583.0374,-3486.4921L13583.04,-3486.4922L13583.0726,-3486.4861L13583.1389,-3486.4627L13583.1599,-3486.461L13583.1863,-3486.4662L13583.2167,-3486.4957L13583.2274,-3486.519L13583.2452,-3486.5581L13583.2675,-3486.5784L13583.3333,-3486.5919L13583.4159,-3486.6087L13583.4675,-3486.6218L13583.5649,-3486.6667L13583.6184,-3486.6913L13583.691,-3486.7356L13583.7289,-3486.7737L13583.7458,-3486.8097L13583.7542,-3486.8714L13583.7504,-3486.9803L13583.75,-3486.9936L13583.7584,-3487.0153L13583.7837,-3487.0309L13583.9027,-3487.0441L13584.0318,-3487.0437L13584.1422,-3487.0433L13584.1667,-3487.0446L13584.2579,-3487.0494L13584.3015,-3487.0632L13584.3362,-3487.0867L13584.3678,-3487.1188L13584.3836,-3487.1621L13584.3889,-3487.2029L13584.3921,-3487.35L13584.3984,-3487.4363L13584.4077,-3487.5L13584.41,-3487.5161L13584.4289,-3487.5959L13584.4616,-3487.6744L13584.4853,-3487.7063L13584.4932,-3487.7169L13584.55,-3487.7837L13584.6416,-3487.8548L13584.65,-3487.8642L13584.6889,-3487.9077L13584.722,-3487.9552L13584.8652,-3488.1672L13584.9042,-3488.2045L13584.9536,-3488.2262L13585,-3488.2326L13585.1363,-3488.2514L13585.1868,-3488.2653L13585.2394,-3488.2879L13585.2452,-3488.2915L13585.312,-3488.3333L13585.3184,-3488.3373L13585.4071,-3488.4044L13585.446,-3488.4261L13585.4902,-3488.4373L13585.5397,-3488.4339L13585.6802,-3488.3835L13585.7465,-3488.3644L13585.8013,-3488.3575L13585.8333,-3488.361L13585.8402,-3488.3618L13585.8686,-3488.3714L13585.9086,-3488.3974L13585.936,-3488.4347L13585.9612,-3488.485L13585.9675,-3488.5232L13585.9622,-3488.5488L13585.9296,-3488.6216L13585.9289,-3488.644L13585.9286,-3488.6529L13585.9301,-3488.6674L13585.9327,-3488.6919L13585.957,-3488.7492L13586.0037,-3488.8347L13586.0997,-3488.9746L13586.171,-3489.0785L13586.2152,-3489.1201L13586.2328,-3489.1327L13586.2398,-3489.1377L13586.2682,-3489.1489L13586.3219,-3489.1567L13586.5373,-3489.1667L13586.5482,-3489.1672L13586.5934,-3489.1741L13586.6292,-3489.1897L13586.6637,-3489.214L13586.6667,-3489.2128L13586.6912,-3489.2024L13586.7758,-3489.1667L13586.9014,-3489.1136L13586.986,-3489.0679L13587.0413,-3489.0337L13587.0836,-3489.0048L13587.0916,-3488.9992L13587.128,-3488.9661L13587.2153,-3488.8864L13587.2374,-3488.873L13587.2636,-3488.87L13587.3279,-3488.871L13587.3589,-3488.8661L13587.3839,-3488.8779L13587.4006,-3488.8877L13587.4233,-3488.8871L13587.4387,-3488.8867L13587.4542,-3488.8239L13587.4911,-3488.7542L13587.5,-3488.7425L13587.5865,-3488.6286L13587.5974,-3488.6215L13587.6295,-3488.6235L13587.7534,-3488.6598L13587.7749,-3488.6628L13587.7975,-3488.6559L13587.8201,-3488.6206L13587.8454,-3488.5397L13587.8621,-3488.5142L13587.8847,-3488.5024L13587.8906,-3488.5008Z"/>
<path content="京都府,,相楽郡,和束町,,26365" xlink:title="京都府" d="M13587.8906,-3480.4688L13586.7102,-3480.4688L13586.7128,-3480.4749L13586.7178,-3480.5006L13586.7164,-3480.5196L13586.7102,-3480.5505L13586.7064,-3480.5774L13586.7062,-3480.5903L13586.709,-3480.6055L13586.7134,-3480.6248L13586.7248,-3480.6456L13586.7334,-3480.6689L13586.7357,-3480.6853L13586.7333,-3480.7137L13586.7319,-3480.7257L13586.7234,-3480.7511L13586.7182,-3480.7613L13586.7045,-3480.7764L13586.6967,-3480.7832L13586.6667,-3480.7971L13586.661,-3480.7997L13586.6319,-3480.8071L13586.6136,-3480.8132L13586.5853,-3480.8156L13586.5771,-3480.8144L13586.568,-3480.8157L13586.5555,-3480.8181L13586.5503,-3480.8195L13586.5377,-3480.8261L13586.5292,-3480.8333L13586.5292,-3480.8333L13586.5143,-3480.8486L13586.5057,-3480.8587L13586.4958,-3480.8675L13586.486,-3480.8731L13586.4776,-3480.8771L13586.4605,-3480.8816L13586.4446,-3480.889L13586.429,-3480.8968L13586.4167,-3480.9051L13586.4101,-3480.9125L13586.4065,-3480.9215L13586.4048,-3480.9304L13586.3982,-3480.9395L13586.3887,-3480.9465L13586.3684,-3480.9533L13586.3529,-3480.9571L13586.3302,-3480.9626L13586.3153,-3480.967L13586.2829,-3480.9698L13586.2725,-3480.9718L13586.2556,-3480.9734L13586.2359,-3480.9768L13586.2215,-3480.9812L13586.2139,-3480.9863L13586.2093,-3480.9951L13586.2062,-3481.0059L13586.205,-3481.0158L13586.1996,-3481.0251L13586.1909,-3481.0364L13586.1754,-3481.051L13586.171,-3481.0552L13586.1554,-3481.0615L13586.1455,-3481.0675L13586.1405,-3481.0707L13586.1377,-3481.0727L13586.1391,-3481.0747L13586.1458,-3481.0775L13586.1576,-3481.084L13586.1649,-3481.0888L13586.1749,-3481.0984L13586.1801,-3481.1062L13586.1869,-3481.1177L13586.1918,-3481.1299L13586.1976,-3481.1434L13586.2087,-3481.1549L13586.2177,-3481.1603L13586.2365,-3481.166L13586.2536,-3481.1709L13586.2697,-3481.1764L13586.2757,-3481.1822L13586.2831,-3481.1908L13586.286,-3481.1997L13586.2888,-3481.2138L13586.2908,-3481.2236L13586.2975,-3481.2357L13586.3027,-3481.2399L13586.3091,-3481.2423L13586.3394,-3481.2499L13586.3587,-3481.2535L13586.3712,-3481.2584L13586.3942,-3481.2649L13586.4131,-3481.2691L13586.4276,-3481.2711L13586.438,-3481.2683L13586.4524,-3481.2619L13586.4625,-3481.2542L13586.4717,-3481.2474L13586.482,-3481.2442L13586.4957,-3481.2378L13586.5039,-3481.2339L13586.5235,-3481.2275L13586.5443,-3481.2241L13586.5574,-3481.2251L13586.5759,-3481.2287L13586.5819,-3481.2305L13586.5971,-3481.2313L13586.6058,-3481.2341L13586.6176,-3481.2385L13586.6317,-3481.2451L13586.6484,-3481.2518L13586.658,-3481.251L13586.664,-3481.2476L13586.6667,-3481.245L13586.6766,-3481.2351L13586.7037,-3481.2114L13586.7258,-3481.1919L13586.7694,-3481.1537L13586.7889,-3481.1334L13586.8038,-3481.1145L13586.815,-3481.0967L13586.8255,-3481.0812L13586.8358,-3481.0661L13586.8474,-3481.0486L13586.8536,-3481.0384L13586.8627,-3481.0249L13586.8808,-3481.0058L13586.9019,-3480.9933L13586.9212,-3480.9835L13586.9371,-3480.9742L13586.9579,-3480.962L13586.9755,-3480.9501L13586.9829,-3480.9414L13586.9911,-3480.9288L13587.001,-3480.9163L13587.0092,-3480.9035L13587.0178,-3480.8952L13587.0331,-3480.8862L13587.0492,-3480.8757L13587.0647,-3480.8741L13587.0787,-3480.8747L13587.0904,-3480.8737L13587.0982,-3480.8715L13587.1105,-3480.8662L13587.1217,-3480.8644L13587.1296,-3480.8626L13587.1502,-3480.8562L13587.1624,-3480.8556L13587.1723,-3480.8548L13587.1827,-3480.853L13587.1941,-3480.8512L13587.2004,-3480.8467L13587.205,-3480.842L13587.2068,-3480.8353L13587.2067,-3480.8333L13587.2062,-3480.8229L13587.2036,-3480.7998L13587.1998,-3480.7806L13587.1954,-3480.7636L13587.1905,-3480.7491L13587.1748,-3480.7236L13587.1646,-3480.7093L13587.1587,-3480.6997L13587.1551,-3480.6876L13587.1561,-3480.6724L13587.1537,-3480.6558L13587.1479,-3480.6448L13587.1394,-3480.6337L13587.1274,-3480.6261L13587.1139,-3480.6161L13587.1103,-3480.6129L13587.0983,-3480.5999L13587.0921,-3480.5883L13587.0873,-3480.5803L13587.0864,-3480.5719L13587.0883,-3480.5659L13587.0894,-3480.5624L13587.0973,-3480.5518L13587.1224,-3480.53L13587.1281,-3480.5145L13587.1276,-3480.4941L13587.1254,-3480.4806L13587.1257,-3480.4688L13587.1682,-3480.4688L13587.1704,-3480.4819L13587.1731,-3480.4987L13587.1705,-3480.5125L13587.1661,-3480.5237L13587.16,-3480.5392L13587.1568,-3480.5468L13587.1473,-3480.5606L13587.1463,-3480.562L13587.1403,-3480.5754L13587.1397,-3480.5828L13587.1429,-3480.5923L13587.1494,-3480.5999L13587.157,-3480.6083L13587.1672,-3480.6186L13587.1777,-3480.6351L13587.1836,-3480.6496L13587.186,-3480.6624L13587.1904,-3480.6795L13587.2014,-3480.7147L13587.2099,-3480.7324L13587.2155,-3480.7413L13587.2217,-3480.7491L13587.2263,-3480.7572L13587.2307,-3480.7721L13587.2335,-3480.7839L13587.2384,-3480.7986L13587.2482,-3480.8112L13587.2677,-3480.8112L13587.2873,-3480.7924L13587.3124,-3480.7659L13587.3305,-3480.7477L13587.3438,-3480.7394L13587.3668,-3480.7296L13587.3811,-3480.7213L13587.3899,-3480.7145L13587.4041,-3480.7003L13587.4199,-3480.6822L13587.4324,-3480.6745L13587.4485,-3480.6592L13587.4821,-3480.6288L13587.5,-3480.6072L13587.5176,-3480.5859L13587.5378,-3480.5727L13587.5564,-3480.5564L13587.5564,-3480.5564L13587.5678,-3480.5399L13587.5951,-3480.5057L13587.6069,-3480.4918L13587.6108,-3480.4833L13587.6118,-3480.4744L13587.6114,-3480.4688L13587.6442,-3480.4687L13587.6453,-3480.4709L13587.6509,-3480.4743L13587.6627,-3480.4702L13587.6689,-3480.4688L13587.7091,-3480.4688L13587.7123,-3480.4695L13587.7248,-3480.4723L13587.7367,-3480.4764L13587.7416,-3480.4848L13587.7394,-3480.4904L13587.7367,-3480.4971L13587.7048,-3480.4893L13587.6938,-3480.4911L13587.6741,-3480.501L13587.6597,-3480.5076L13587.6481,-3480.5159L13587.6419,-3480.5231L13587.6272,-3480.5422L13587.6201,-3480.5526L13587.6131,-3480.5656L13587.6078,-3480.5773L13587.6033,-3480.5914L13587.5963,-3480.5959L13587.5839,-3480.5946L13587.5734,-3480.6L13587.5657,-3480.607L13587.5539,-3480.6153L13587.5344,-3480.6301L13587.5071,-3480.6509L13587.5,-3480.6596L13587.498,-3480.6621L13587.4966,-3480.6788L13587.4961,-3480.6861L13587.4938,-3480.6886L13587.4913,-3480.6894L13587.4837,-3480.6902L13587.4667,-3480.7002L13587.4567,-3480.7064L13587.442,-3480.7187L13587.4112,-3480.7449L13587.4035,-3480.7526L13587.4012,-3480.7718L13587.3896,-3480.7757L13587.3696,-3480.7788L13587.3503,-3480.7957L13587.3241,-3480.815L13587.3023,-3480.8333L13587.2994,-3480.8357L13587.2802,-3480.8527L13587.2632,-3480.8642L13587.2432,-3480.8773L13587.2278,-3480.8873L13587.2155,-3480.8943L13587.2102,-3480.8956L13587.1989,-3480.9001L13587.1836,-3480.9038L13587.1686,-3480.9052L13587.1037,-3480.9191L13587.072,-3480.9266L13587.0526,-3480.9358L13587.0299,-3480.9594L13587.0003,-3480.9859L13586.9718,-3481.0101L13586.9398,-3481.0312L13586.902,-3481.0512L13586.8928,-3481.0571L13586.8886,-3481.066L13586.8685,-3481.1141L13586.8589,-3481.1462L13586.8432,-3481.1784L13586.8094,-3481.2249L13586.7892,-3481.2441L13586.777,-3481.2548L13586.7573,-3481.2643L13586.6749,-3481.2949L13586.6667,-3481.2969L13586.6583,-3481.2989L13586.6438,-3481.3004L13586.6339,-3481.2998L13586.621,-3481.2948L13586.614,-3481.292L13586.5987,-3481.2823L13586.5808,-3481.2717L13586.5694,-3481.2683L13586.5531,-3481.2681L13586.5372,-3481.2684L13586.5211,-3481.2709L13586.4954,-3481.2775L13586.476,-3481.2885L13586.4642,-3481.2977L13586.4483,-3481.3069L13586.4329,-3481.3108L13586.4163,-3481.3094L13586.3966,-3481.3037L13586.3749,-3481.299L13586.3574,-3481.2953L13586.3322,-3481.2937L13586.3207,-3481.2929L13586.2943,-3481.2877L13586.27,-3481.2788L13586.2557,-3481.2677L13586.2473,-3481.2526L13586.2423,-3481.2358L13586.2329,-3481.2219L13586.2228,-3481.2122L13586.2104,-3481.2046L13586.1989,-3481.2005L13586.1881,-3481.1998L13586.1705,-3481.1955L13586.1498,-3481.184L13586.1206,-3481.1628L13586.1128,-3481.147L13586.1049,-3481.1279L13586.0914,-3481.1167L13586.076,-3481.1055L13586.046,-3481.0815L13586.0414,-3481.0778L13586.0382,-3481.0782L13586.0377,-3481.0833L13586.0392,-3481.1067L13586.0407,-3481.1438L13586.0419,-3481.1638L13586.0432,-3481.186L13586.0433,-3481.1981L13586.0464,-3481.2271L13586.047,-3481.2464L13586.051,-3481.2794L13586.0533,-3481.2919L13586.0568,-3481.3091L13586.0656,-3481.3267L13586.0792,-3481.3422L13586.0976,-3481.3589L13586.1071,-3481.3652L13586.1199,-3481.3728L13586.1278,-3481.3761L13586.1352,-3481.3754L13586.1419,-3481.3736L13586.1466,-3481.3672L13586.1586,-3481.3566L13586.1636,-3481.3547L13586.1755,-3481.3529L13586.186,-3481.3526L13586.1962,-3481.3537L13586.2006,-3481.3562L13586.2072,-3481.362L13586.2197,-3481.3733L13586.2315,-3481.3812L13586.2627,-3481.3947L13586.2831,-3481.4019L13586.303,-3481.4071L13586.3461,-3481.4143L13586.4385,-3481.4341L13586.448,-3481.4356L13586.4585,-3481.4356L13586.4648,-3481.4324L13586.4745,-3481.4236L13586.4842,-3481.4121L13586.4996,-3481.403L13586.5188,-3481.4031L13586.5328,-3481.4072L13586.5489,-3481.4217L13586.5678,-3481.4483L13586.5776,-3481.467L13586.5825,-3481.4772L13586.5967,-3481.4849L13586.6061,-3481.4854L13586.6238,-3481.4839L13586.6414,-3481.4816L13586.6601,-3481.4744L13586.6667,-3481.4686L13586.6739,-3481.4622L13586.6848,-3481.4512L13586.707,-3481.4376L13586.7259,-3481.4323L13586.7361,-3481.4295L13586.7444,-3481.4283L13586.7529,-3481.4309L13586.7593,-3481.4433L13586.7764,-3481.4645L13586.7893,-3481.481L13586.8095,-3481.4938L13586.8399,-3481.5168L13586.8626,-3481.532L13586.8746,-3481.547L13586.8903,-3481.5623L13586.9117,-3481.5879L13586.9236,-3481.6009L13586.9382,-3481.6168L13586.9542,-3481.6219L13586.9673,-3481.6232L13586.9824,-3481.6247L13586.9979,-3481.6298L13587.0207,-3481.6337L13587.0451,-3481.6367L13587.0717,-3481.6288L13587.0955,-3481.6237L13587.1156,-3481.6213L13587.133,-3481.6259L13587.1532,-3481.6354L13587.1647,-3481.6434L13587.1823,-3481.6543L13587.1951,-3481.6479L13587.2052,-3481.6395L13587.2155,-3481.6342L13587.2314,-3481.6334L13587.2374,-3481.6418L13587.2487,-3481.6494L13587.2636,-3481.6512L13587.2745,-3481.6516L13587.2923,-3481.6509L13587.3093,-3481.6509L13587.3271,-3481.6519L13587.3348,-3481.6523L13587.3511,-3481.6537L13587.3723,-3481.6537L13587.3869,-3481.6491L13587.3979,-3481.6462L13587.4089,-3481.6398L13587.4211,-3481.6322L13587.4299,-3481.6282L13587.4432,-3481.6247L13587.4717,-3481.6195L13587.4866,-3481.619L13587.5,-3481.618L13587.5112,-3481.6171L13587.5275,-3481.6154L13587.549,-3481.6131L13587.567,-3481.6096L13587.5885,-3481.6084L13587.6024,-3481.6067L13587.6199,-3481.6055L13587.6373,-3481.6055L13587.6623,-3481.6073L13587.6838,-3481.6142L13587.7036,-3481.6241L13587.7177,-3481.6316L13587.7333,-3481.6365L13587.7494,-3481.6398L13587.7794,-3481.6403L13587.8026,-3481.6386L13587.836,-3481.6395L13587.8578,-3481.6415L13587.8718,-3481.6479L13587.8906,-3481.6581Z"/>
</g>
</svg>
