<?xml version="1.0" encoding="UTF-8"?>
<svg  xmlns="http://www.w3.org/2000/svg" xmlns:xlink="http://www.w3.org/1999/xlink" xmlns:go="http://purl.org/svgmap/profile" property="geometry,N03_001,N03_002,N03_003,N03_004,N03_005,N03_007" viewBox="13447.265625 -3467.28515625 4.39453125 4.39453125" go:dataArea="13447.265625 -3467.28515625 4.39453125 4.39453125" >
<metadata>
 <rdf:RDF xmlns:rdf="http://www.w3.org/1999/02/22-rdf-syntax-ns#" xmlns:crs="http://opengis.org/xmldtds/transformations.dtd" xmlns:svg="http://www.w3.org/svg" >
  <rdf:Description>
   <crs:CoordinateReferenceSystem rdf:resource="http://purl.org/crs/84" svg:transform="matrix(100.0,0.0,0.0,-100.0,0.0,0.0)" />
  </rdf:Description>
 </rdf:RDF>
</metadata>
<globalCoordinateSystem srsName="http://purl.org/crs/84" transform="matrix(100.0,0.0,0.0,-100.0,0.0,0.0)" />
<defs>
 <g id="p0" >
  <circle cx="0.0" cy="0.0" r="3" stroke="green" stroke-width="2.0" vector-effect="non-scaling-stroke" />
 </g>
</defs>
<g fill="#0000ff" fill-rule="evenodd" opacity="0.5" >
<path content="兵庫県,,,姫路市,,28201" xlink:title="兵庫県" d="M13448.7329,-3467.1605L13448.7309,-3467.1543L13448.7353,-3467.1508L13448.7389,-3467.1451L13448.7399,-3467.1401L13448.7348,-3467.1344L13448.7233,-3467.1305L13448.7302,-3467.1233L13448.733,-3467.1164L13448.726,-3467.1092L13448.7163,-3467.1063L13448.7227,-3467.1019L13448.7267,-3467.0929L13448.7223,-3467.0868L13448.7117,-3467.0825L13448.716,-3467.0816L13448.7231,-3467.0791L13448.7286,-3467.0736L13448.7281,-3467.0686L13448.725,-3467.0628L13448.7233,-3467.0594L13448.7259,-3467.0565L13448.7398,-3467.0478L13448.7521,-3467.0415L13448.7629,-3467.0387L13448.772,-3467.0375L13448.7839,-3467.0368L13448.8031,-3467.0359L13448.8252,-3467.0329L13448.836,-3467.0301L13448.8498,-3467.0254L13448.8606,-3467.0205L13448.866,-3467.0172L13448.873,-3467.0137L13448.8827,-3467.0093L13448.892,-3467.0062L13448.9036,-3467.0004L13448.9197,-3466.9883L13448.9319,-3466.9818L13448.9411,-3466.9779L13448.9536,-3466.9779L13448.9615,-3466.9821L13448.9676,-3466.9886L13448.9707,-3466.997L13448.9743,-3467.0005L13448.98,-3467.0035L13448.9915,-3467.0069L13449.001,-3467.0038L13449.017,-3466.9934L13449.0221,-3466.9873L13449.0166,-3466.9707L13449.0149,-3466.9548L13449.0206,-3466.9291L13449.0274,-3466.918L13449.0432,-3466.9127L13449.0677,-3466.9109L13449.0902,-3466.9146L13449.101,-3466.9183L13449.1084,-3466.9222L13449.1104,-3466.9275L13449.1022,-3466.9353L13449.096,-3466.9434L13449.0957,-3466.9512L13449.0971,-3466.9549L13449.1016,-3466.957L13449.109,-3466.9563L13449.1195,-3466.9561L13449.1351,-3466.9614L13449.1492,-3466.9668L13449.1634,-3466.9685L13449.1667,-3466.9679L13449.1758,-3466.9664L13449.1812,-3466.9659L13449.1916,-3466.9693L13449.1973,-3466.9764L13449.2015,-3466.9901L13449.2063,-3466.9957L13449.2126,-3466.9983L13449.2216,-3466.998L13449.2332,-3466.9962L13449.2448,-3466.9929L13449.265,-3466.991L13449.2862,-3466.9882L13449.3008,-3466.9806L13449.3048,-3466.9727L13449.3082,-3466.9547L13449.3142,-3466.9311L13449.319,-3466.9149L13449.3195,-3466.9023L13449.3173,-3466.8906L13449.3084,-3466.8804L13449.2957,-3466.8656L13449.2825,-3466.8556L13449.2538,-3466.8364L13449.2368,-3466.8237L13449.2199,-3466.8099L13449.2099,-3466.8011L13449.1978,-3466.7916L13449.1868,-3466.7848L13449.1823,-3466.7797L13449.1806,-3466.7762L13449.1817,-3466.7722L13449.1874,-3466.7696L13449.193,-3466.7696L13449.2007,-3466.7708L13449.2162,-3466.7778L13449.2349,-3466.7897L13449.2447,-3466.7999L13449.2567,-3466.8057L13449.2685,-3466.8046L13449.2797,-3466.7999L13449.2889,-3466.7887L13449.3002,-3466.7775L13449.3059,-3466.7737L13449.3137,-3466.7709L13449.3397,-3466.7758L13449.3693,-3466.7861L13449.4001,-3466.7937L13449.4329,-3466.8045L13449.4539,-3466.8154L13449.471,-3466.8251L13449.4796,-3466.8282L13449.4878,-3466.829L13449.4937,-3466.8266L13449.5045,-3466.8147L13449.5196,-3466.8014L13449.5298,-3466.7941L13449.5381,-3466.791L13449.5465,-3466.7927L13449.5736,-3466.8029L13449.5885,-3466.8037L13449.5998,-3466.8004L13449.6016,-3466.7936L13449.5999,-3466.7846L13449.5969,-3466.7645L13449.5915,-3466.7455L13449.5814,-3466.7293L13449.5604,-3466.7128L13449.5416,-3466.6994L13449.5252,-3466.689L13449.5143,-3466.671L13449.512,-3466.6667L13449.5044,-3466.6522L13449.4971,-3466.6329L13449.4897,-3466.6153L13449.4808,-3466.5949L13449.4734,-3466.5839L13449.4576,-3466.5713L13449.4393,-3466.5631L13449.425,-3466.557L13449.4047,-3466.5509L13449.3889,-3466.5464L13449.379,-3466.5411L13449.3754,-3466.5369L13449.3969,-3466.5209L13449.3921,-3466.5154L13449.3703,-3466.5308L13449.3637,-3466.5223L13449.3563,-3466.5125L13449.3464,-3466.5023L13449.3373,-3466.4927L13449.3308,-3466.4812L13449.3219,-3466.4617L13449.3155,-3466.4384L13449.3096,-3466.4176L13449.3002,-3466.3915L13449.2927,-3466.3715L13449.2818,-3466.3371L13449.2784,-3466.3287L13449.273,-3466.3134L13449.2655,-3466.296L13449.2621,-3466.2892L13449.2477,-3466.2673L13449.2329,-3466.2493L13449.2105,-3466.2246L13449.189,-3466.2089L13449.1756,-3466.1922L13449.1667,-3466.1782L13449.1647,-3466.1751L13449.1518,-3466.1649L13449.1301,-3466.1575L13449.1113,-3466.1498L13449.0901,-3466.1375L13449.0693,-3466.1249L13449.0496,-3466.1183L13449.0431,-3466.1118L13449.0412,-3466.0984L13449.0397,-3466.0824L13449.0407,-3466.0653L13449.0444,-3466.0151L13449.0464,-3465.9743L13449.0454,-3465.9392L13449.0322,-3465.9094L13449.0095,-3465.8771L13449.004,-3465.8592L13449.0045,-3465.8416L13449.0076,-3465.8333L13449.0095,-3465.8282L13449.0268,-3465.8159L13449.0391,-3465.8078L13449.0574,-3465.7996L13449.0747,-3465.7955L13449.0885,-3465.7964L13449.1027,-3465.7981L13449.1093,-3465.8037L13449.1216,-3465.8204L13449.1296,-3465.8302L13449.132,-3465.8333L13449.1454,-3465.8506L13449.1557,-3465.8616L13449.1651,-3465.878L13449.1667,-3465.8795L13449.1892,-3465.9026L13449.1967,-3465.9071L13449.2079,-3465.9136L13449.2267,-3465.9229L13449.2641,-3465.9325L13449.2941,-3465.9392L13449.2989,-3465.9398L13449.3299,-3465.9422L13449.3468,-3465.9456L13449.3676,-3465.9475L13449.4001,-3465.9494L13449.444,-3465.9456L13449.4658,-3465.9424L13449.487,-3465.9443L13449.5088,-3465.9443L13449.5136,-3465.9375L13449.515,-3465.9299L13449.5142,-3465.9222L13449.5071,-3465.9155L13449.5028,-3465.9097L13449.4996,-3465.9016L13449.4996,-3465.893L13449.5046,-3465.8849L13449.5127,-3465.8793L13449.5234,-3465.8719L13449.5307,-3465.8662L13449.5354,-3465.8574L13449.5373,-3465.8407L13449.5375,-3465.8333L13449.5379,-3465.816L13449.5409,-3465.8067L13449.5478,-3465.7961L13449.5551,-3465.7868L13449.5602,-3465.7781L13449.5608,-3465.7764L13449.5638,-3465.7681L13449.563,-3465.7542L13449.5615,-3465.7457L13449.5544,-3465.7385L13449.549,-3465.733L13449.5375,-3465.7222L13449.5309,-3465.7118L13449.527,-3465.7046L13449.5243,-3465.6916L13449.5217,-3465.6805L13449.517,-3465.6724L13449.5149,-3465.6654L13449.5142,-3465.6535L13449.519,-3465.6434L13449.5292,-3465.6299L13449.5379,-3465.6175L13449.5409,-3465.608L13449.5418,-3465.5971L13449.5414,-3465.5874L13449.5386,-3465.5778L13449.5334,-3465.5672L13449.5245,-3465.5605L13449.5102,-3465.5504L13449.5013,-3465.5425L13449.4891,-3465.5262L13449.4836,-3465.5036L13449.4863,-3465.4751L13449.4858,-3465.455L13449.4826,-3465.4364L13449.4764,-3465.4155L13449.4689,-3465.4016L13449.4634,-3465.3949L13449.4542,-3465.384L13449.4379,-3465.3723L13449.4107,-3465.3498L13449.4043,-3465.3476L13449.4188,-3465.3365L13449.4307,-3465.3468L13449.4359,-3465.3414L13449.4073,-3465.3166L13449.4025,-3465.3218L13449.4131,-3465.3312L13449.3955,-3465.3447L13449.3888,-3465.3424L13449.3718,-3465.3277L13449.349,-3465.3013L13449.3506,-3465.2666L13449.366,-3465.2632L13449.3712,-3465.2605L13449.3919,-3465.2759L13449.3967,-3465.2705L13449.3788,-3465.2567L13449.3792,-3465.2565L13449.3876,-3465.2486L13449.4069,-3465.2371L13449.42,-3465.2279L13449.4303,-3465.2239L13449.4413,-3465.2241L13449.4467,-3465.2245L13449.4554,-3465.2245L13449.4649,-3465.2265L13449.4957,-3465.2609L13449.5063,-3465.2678L13449.522,-3465.2723L13449.5614,-3465.2735L13449.6178,-3465.2752L13449.6336,-3465.2902L13449.6461,-3465.3009L13449.6893,-3465.3009L13449.7523,-3465.3161L13449.7896,-3465.3L13449.7932,-3465.2897L13449.8135,-3465.2807L13449.8201,-3465.2756L13449.8224,-3465.2664L13449.8247,-3465.2563L13449.8232,-3465.2445L13449.8114,-3465.2234L13449.8046,-3465.2153L13449.7981,-3465.2039L13449.7977,-3465.1998L13449.8,-3465.1934L13449.8062,-3465.1893L13449.8143,-3465.1865L13449.8197,-3465.1817L13449.8266,-3465.17L13449.8336,-3465.1487L13449.8386,-3465.1405L13449.8417,-3465.1344L13449.8498,-3465.1264L13449.8664,-3465.1114L13449.8761,-3465.1041L13449.8853,-3465.0972L13449.8888,-3465.0924L13449.8907,-3465.0854L13449.8931,-3465.0785L13449.895,-3465.0724L13449.8986,-3465.067L13449.8975,-3465.0618L13449.89,-3465.0544L13449.8873,-3465.0509L13449.8864,-3465.0497L13449.8574,-3465L13449.8555,-3464.9967L13449.8481,-3464.9767L13449.8564,-3464.9721L13449.8611,-3464.9727L13449.8664,-3464.9692L13449.8638,-3464.962L13449.8611,-3464.9572L13449.8657,-3464.9529L13449.8626,-3464.945L13449.8691,-3464.9431L13449.8741,-3464.9384L13449.8756,-3464.9331L13449.8841,-3464.9315L13449.8886,-3464.9264L13449.8867,-3464.9211L13449.8959,-3464.9217L13449.902,-3464.9189L13449.9036,-3464.9126L13449.9085,-3464.9111L13449.9158,-3464.9051L13449.9166,-3464.8988L13449.9116,-3464.8925L13449.9166,-3464.8875L13449.9177,-3464.8812L13449.9131,-3464.8768L13449.9016,-3464.8765L13449.9016,-3464.8724L13449.8955,-3464.868L13449.8848,-3464.8696L13449.8794,-3464.8617L13449.8749,-3464.8592L13449.8672,-3464.8617L13449.8642,-3464.852L13449.858,-3464.8482L13449.8496,-3464.8482L13449.8504,-3464.8419L13449.8481,-3464.8372L13449.8381,-3464.8369L13449.8412,-3464.8322L13449.8427,-3464.8265L13449.8389,-3464.8218L13449.8458,-3464.8184L13449.8492,-3464.8146L13449.8469,-3464.8074L13449.8546,-3464.8067L13449.8619,-3464.7982L13449.8634,-3464.7938L13449.8722,-3464.7923L13449.8779,-3464.7876L13449.8766,-3464.7821L13449.8858,-3464.7817L13449.8938,-3464.778L13449.8953,-3464.7723L13449.9037,-3464.7732L13449.9106,-3464.7711L13449.9144,-3464.7651L13449.9198,-3464.7673L13449.9301,-3464.766L13449.9382,-3464.7635L13449.942,-3464.7588L13449.9512,-3464.7597L13449.9581,-3464.7563L13449.9604,-3464.7525L13449.9696,-3464.7525L13449.9745,-3464.7503L13449.9772,-3464.7475L13449.9764,-3464.7428L13449.9714,-3464.7381L13449.9764,-3464.7343L13449.9772,-3464.7274L13449.973,-3464.7239L13449.9665,-3464.7236L13449.9745,-3464.717L13449.9753,-3464.7135L13449.9711,-3464.7091L13449.9768,-3464.7063L13449.9799,-3464.7006L13449.9764,-3464.6966L13449.9852,-3464.6947L13449.9898,-3464.69L13449.9906,-3464.6846L13449.9875,-3464.6812L13449.9944,-3464.6805L13449.9994,-3464.6777L13450,-3464.6759L13450.0008,-3464.6735L13450.0078,-3464.6722L13450.0689,-3464.6621L13450.0909,-3464.6596L13450.0921,-3464.6574L13450.0917,-3464.6552L13450.0867,-3464.651L13450.079,-3464.6447L13450.0743,-3464.6371L13450.0724,-3464.6279L13450.0728,-3464.6225L13450.0765,-3464.6188L13450.0776,-3464.6179L13450.078,-3464.6106L13450.0795,-3464.6075L13450.078,-3464.6006L13450.0826,-3464.5974L13450.0799,-3464.5918L13450.0841,-3464.5839L13450.0799,-3464.5814L13450.0834,-3464.5782L13450.0853,-3464.5739L13450.083,-3464.5688L13450.0856,-3464.5676L13450.0876,-3464.5641L13450.0876,-3464.56L13450.0853,-3464.555L13450.091,-3464.5512L13450.0918,-3464.5443L13450.0887,-3464.539L13450.0814,-3464.5374L13450.073,-3464.5383L13450.07,-3464.533L13450.0673,-3464.5308L13450.0619,-3464.527L13450.0531,-3464.5276L13450.0531,-3464.5214L13450.0493,-3464.5163L13450.0421,-3464.5147L13450.0374,-3464.5129L13450.0359,-3464.5088L13450.0302,-3464.5037L13450.0248,-3464.5031L13450.0191,-3464.4997L13450.0149,-3464.4981L13450.013,-3464.4931L13450.0099,-3464.489L13450.0042,-3464.4881L13450,-3464.485L13449.9999,-3464.4849L13449.9996,-3464.4777L13449.9973,-3464.4736L13449.9946,-3464.4707L13449.9946,-3464.4689L13449.9981,-3464.4632L13449.9973,-3464.4582L13449.9965,-3464.4532L13449.9957,-3464.44L13450,-3464.4383L13450.0023,-3464.4375L13450.0019,-3464.4315L13450.0095,-3464.4268L13450.0107,-3464.4214L13450.0076,-3464.4174L13450.0095,-3464.4098L13450.0057,-3464.4038L13450.0015,-3464.4016L13450,-3464.4019L13449.9965,-3464.4026L13449.9927,-3464.3963L13449.9885,-3464.3938L13449.9835,-3464.3935L13449.9782,-3464.3891L13449.9732,-3464.3869L13449.9686,-3464.3872L13449.9651,-3464.3922L13449.9579,-3464.3894L13449.9525,-3464.3887L13449.9472,-3464.3903L13449.9445,-3464.3954L13449.9349,-3464.3938L13449.9315,-3464.396L13449.9307,-3464.4004L13449.9219,-3464.3957L13449.9146,-3464.3966L13449.9108,-3464.3991L13449.9056,-3464.3985L13449.8967,-3464.3972L13449.8899,-3464.3938L13449.8769,-3464.3882L13449.8613,-3464.3792L13449.8611,-3464.3751L13449.8584,-3464.3679L13449.8504,-3464.3587L13449.8431,-3464.3581L13449.8332,-3464.3591L13449.8256,-3464.3515L13449.8198,-3464.3515L13449.8137,-3464.3534L13449.8099,-3464.3487L13449.803,-3464.3462L13449.7957,-3464.3462L13449.7923,-3464.343L13449.7857,-3464.3424L13449.7793,-3464.3436L13449.772,-3464.3433L13449.7666,-3464.3459L13449.7567,-3464.3537L13449.7548,-3464.3587L13449.7498,-3464.36L13449.7456,-3464.3628L13449.7441,-3464.3675L13449.7399,-3464.3694L13449.7345,-3464.3694L13449.7317,-3464.3716L13449.729,-3464.3778L13449.7222,-3464.3787L13449.716,-3464.3838L13449.6963,-3464.385L13449.6822,-3464.3841L13449.6633,-3464.3809L13449.6419,-3464.379L13449.6212,-3464.379L13449.6032,-3464.3802L13449.5907,-3464.3837L13449.5804,-3464.3878L13449.5654,-3464.3951L13449.5566,-3464.4007L13449.517,-3464.4334L13449.5027,-3464.4515L13449.4911,-3464.4734L13449.4761,-3464.4948L13449.4686,-3464.501L13449.4666,-3464.5027L13449.4591,-3464.5056L13449.4448,-3464.5106L13449.4298,-3464.5151L13449.423,-3464.5162L13449.4127,-3464.5191L13449.393,-3464.5236L13449.3562,-3464.5247L13449.3467,-3464.5236L13449.3228,-3464.523L13449.2826,-3464.5191L13449.2546,-3464.5095L13449.2519,-3464.5089L13449.2423,-3464.4941L13449.2346,-3464.4876L13449.2308,-3464.4841L13449.2322,-3464.4779L13449.2254,-3464.47L13449.2199,-3464.4638L13449.211,-3464.4599L13449.1947,-3464.4475L13449.1899,-3464.443L13449.1736,-3464.4345L13449.1668,-3464.4317L13449.1667,-3464.4316L13449.1572,-3464.4238L13449.1545,-3464.4013L13449.1579,-3464.3855L13449.1565,-3464.3765L13449.1586,-3464.3714L13449.149,-3464.3641L13449.1374,-3464.3421L13449.132,-3464.319L13449.1313,-3464.3162L13449.1279,-3464.3139L13449.1252,-3464.3145L13449.1238,-3464.3162L13449.1197,-3464.3156L13449.1136,-3464.31L13449.1082,-3464.3094L13449.1007,-3464.3027L13449.0966,-3464.3015L13449.0904,-3464.2965L13449.0877,-3464.2874L13449.0809,-3464.2818L13449.0809,-3464.2801L13449.0897,-3464.2722L13449.0843,-3464.2677L13449.0829,-3464.2638L13449.0679,-3464.2536L13449.057,-3464.2564L13449.0489,-3464.2502L13449.0448,-3464.2486L13449.0427,-3464.2469L13449.0414,-3464.2469L13449.042,-3464.2288L13449.0434,-3464.2243L13449.0393,-3464.2153L13449.0298,-3464.2119L13449.0243,-3464.2057L13449.0209,-3464.2012L13449.0189,-3464.1995L13449.0121,-3464.2006L13449.0087,-3464.1989L13449.0039,-3464.1927L13449.0005,-3464.1916L13448.9937,-3464.1922L13448.9923,-3464.1933L13448.9903,-3464.1899L13448.9855,-3464.1781L13448.9712,-3464.177L13448.9623,-3464.1753L13448.9514,-3464.1758L13448.9453,-3464.1809L13448.9419,-3464.1883L13448.9412,-3464.1899L13448.9269,-3464.195L13448.9194,-3464.1967L13448.9057,-3464.195L13448.8935,-3464.1916L13448.8819,-3464.1871L13448.8777,-3464.1858L13448.8376,-3464.173L13448.8315,-3464.1747L13448.8178,-3464.1747L13448.8124,-3464.1775L13448.8042,-3464.1763L13448.7886,-3464.1791L13448.7776,-3464.1781L13448.7586,-3464.1719L13448.7459,-3464.1667L13448.7408,-3464.1646L13448.7286,-3464.1617L13448.7006,-3464.1601L13448.6829,-3464.1629L13448.6577,-3464.164L13448.64,-3464.1606L13448.6243,-3464.1533L13448.6196,-3464.151L13448.6052,-3464.1414L13448.5984,-3464.1319L13448.5889,-3464.1195L13448.5855,-3464.1167L13448.5855,-3464.1082L13448.5739,-3464.1054L13448.5657,-3464.1042L13448.563,-3464.1003L13448.5432,-3464.0997L13448.5391,-3464.0986L13448.5296,-3464.0992L13448.5262,-3464.1026L13448.5119,-3464.0997L13448.5064,-3464.1042L13448.5037,-3464.1065L13448.4853,-3464.1065L13448.4798,-3464.1093L13448.4655,-3464.1076L13448.4383,-3464.1082L13448.4117,-3464.1161L13448.4117,-3464.1228L13448.4083,-3464.1251L13448.4056,-3464.1256L13448.4042,-3464.1307L13448.4069,-3464.1386L13448.4069,-3464.1631L13448.4092,-3464.1667L13448.4144,-3464.1747L13448.4369,-3464.1893L13448.4417,-3464.1933L13448.4444,-3464.1944L13448.4751,-3464.2147L13448.4894,-3464.2249L13448.5201,-3464.2519L13448.5412,-3464.2727L13448.5698,-3464.2992L13448.5759,-3464.3043L13448.578,-3464.3066L13448.578,-3464.31L13448.5827,-3464.3179L13448.5971,-3464.3263L13448.5977,-3464.328L13448.5984,-3464.3297L13448.5991,-3464.3381L13448.608,-3464.3483L13448.6154,-3464.3534L13448.6223,-3464.3601L13448.6311,-3464.3646L13448.6318,-3464.3657L13448.6495,-3464.3674L13448.6652,-3464.372L13448.6713,-3464.3731L13448.6816,-3464.377L13448.6918,-3464.3804L13448.702,-3464.3793L13448.7122,-3464.3816L13448.7293,-3464.381L13448.7423,-3464.3851L13448.7558,-3464.3881L13448.7706,-3464.39L13448.7894,-3464.3917L13448.8048,-3464.3961L13448.8149,-3464.4018L13448.8254,-3464.413L13448.8331,-3464.4261L13448.8294,-3464.4328L13448.8349,-3464.4446L13448.8349,-3464.4458L13448.8363,-3464.4508L13448.8363,-3464.4616L13448.8376,-3464.4666L13448.8376,-3464.4706L13448.8417,-3464.4768L13448.8478,-3464.4852L13448.8499,-3464.4875L13448.8513,-3464.4897L13448.8513,-3464.4903L13448.8526,-3464.4926L13448.8662,-3464.5021L13448.8805,-3464.5168L13448.8846,-3464.5236L13448.8846,-3464.5331L13448.8867,-3464.5365L13448.8867,-3464.5388L13448.8887,-3464.5438L13448.8887,-3464.545L13448.8928,-3464.5484L13448.9016,-3464.5529L13448.9044,-3464.5574L13448.9166,-3464.5613L13448.933,-3464.572L13448.9384,-3464.5788L13448.9419,-3464.5822L13448.9419,-3464.5861L13448.9487,-3464.5917L13448.9562,-3464.5951L13448.9596,-3464.5974L13448.9596,-3464.5979L13448.9609,-3464.6013L13448.9609,-3464.6036L13448.9623,-3464.6058L13448.9616,-3464.6081L13448.9575,-3464.6166L13448.9589,-3464.6227L13448.9623,-3464.6278L13448.9623,-3464.6504L13448.9589,-3464.656L13448.9616,-3464.6582L13448.9637,-3464.6588L13448.9671,-3464.6594L13448.9698,-3464.6622L13448.9746,-3464.6695L13448.9793,-3464.6735L13448.9889,-3464.678L13448.9943,-3464.6819L13449.0066,-3464.6876L13449.0441,-3464.7034L13449.0591,-3464.7112L13449.0604,-3464.7135L13449.0611,-3464.7146L13449.0625,-3464.7163L13449.0625,-3464.7174L13449.0706,-3464.7264L13449.072,-3464.7321L13449.0761,-3464.7377L13449.0769,-3464.7541L13449.0758,-3464.7684L13449.0655,-3464.7979L13449.0616,-3464.8054L13448.9948,-3464.7926L13448.9932,-3464.7992L13449.0582,-3464.8117L13449.0547,-3464.818L13449.0093,-3464.8796L13448.9898,-3464.9015L13448.9628,-3464.918L13448.9428,-3464.9287L13448.9201,-3464.9341L13448.8925,-3464.9372L13448.8855,-3464.9375L13448.893,-3464.8931L13448.9216,-3464.8717L13448.9167,-3464.8662L13448.8854,-3464.8901L13448.8771,-3464.9377L13448.8373,-3464.939L13448.811,-3464.931L13448.8056,-3464.9254L13448.7987,-3464.9158L13448.7933,-3464.9079L13448.7817,-3464.8944L13448.7783,-3464.891L13448.764,-3464.8786L13448.7497,-3464.8701L13448.7183,-3464.8611L13448.7006,-3464.856L13448.6931,-3464.8532L13448.6761,-3464.8493L13448.6502,-3464.8493L13448.6338,-3464.856L13448.6223,-3464.8617L13448.6052,-3464.8662L13448.5807,-3464.8701L13448.5568,-3464.8718L13448.5364,-3464.8701L13448.5268,-3464.8684L13448.5255,-3464.8667L13448.518,-3464.8572L13448.4996,-3464.8273L13448.4962,-3464.8217L13448.4887,-3464.8064L13448.4819,-3464.789L13448.4771,-3464.7777L13448.4757,-3464.7766L13448.4689,-3464.7608L13448.4634,-3464.7523L13448.4601,-3464.745L13448.4553,-3464.7399L13448.4396,-3464.7292L13448.4274,-3464.7225L13448.4199,-3464.7157L13448.4096,-3464.7033L13448.4049,-3464.6904L13448.4028,-3464.683L13448.3994,-3464.6611L13448.3953,-3464.6464L13448.394,-3464.6447L13448.3892,-3464.6424L13448.3824,-3464.6396L13448.3731,-3464.6384L13448.3687,-3464.6346L13448.3613,-3464.6323L13448.3415,-3464.6312L13448.3381,-3464.6289L13448.3353,-3464.6295L13448.3333,-3464.6309L13448.3299,-3464.6334L13448.3067,-3464.634L13448.302,-3464.6362L13448.2951,-3464.6351L13448.2897,-3464.6351L13448.2815,-3464.6379L13448.2747,-3464.6374L13448.2726,-3464.6374L13448.2638,-3464.6424L13448.2604,-3464.6436L13448.2536,-3464.6441L13448.2447,-3464.6509L13448.2304,-3464.6526L13448.229,-3464.6554L13448.2208,-3464.6633L13448.2188,-3464.665L13448.2154,-3464.6723L13448.2086,-3464.6813L13448.2059,-3464.6836L13448.2059,-3464.6864L13448.2045,-3464.6909L13448.2113,-3464.6988L13448.2093,-3464.7072L13448.2113,-3464.7095L13448.2127,-3464.7095L13448.214,-3464.7117L13448.2106,-3464.7174L13448.2093,-3464.7225L13448.2086,-3464.7292L13448.2079,-3464.7349L13448.2011,-3464.7394L13448.1991,-3464.7433L13448.2093,-3464.7518L13448.212,-3464.7529L13448.2154,-3464.7608L13448.2174,-3464.7698L13448.2195,-3464.7726L13448.2215,-3464.7771L13448.2277,-3464.7828L13448.2304,-3464.7918L13448.2345,-3464.7963L13448.2358,-3464.7997L13448.2399,-3464.8019L13448.2433,-3464.8053L13448.2433,-3464.8064L13448.2461,-3464.807L13448.2467,-3464.8121L13448.2556,-3464.8217L13448.257,-3464.8228L13448.257,-3464.8335L13448.2597,-3464.8374L13448.257,-3464.8476L13448.2645,-3464.8532L13448.2672,-3464.8555L13448.2638,-3464.8662L13448.2638,-3464.8724L13448.2686,-3464.8763L13448.2686,-3464.8791L13448.2672,-3464.8802L13448.2638,-3464.8808L13448.2624,-3464.8831L13448.2679,-3464.887L13448.2713,-3464.8881L13448.2658,-3464.8943L13448.2672,-3464.9079L13448.2604,-3464.9112L13448.2556,-3464.9124L13448.2543,-3464.9135L13448.2488,-3464.9248L13448.244,-3464.9299L13448.2406,-3464.9344L13448.2283,-3464.9422L13448.2263,-3464.9428L13448.2243,-3464.9445L13448.223,-3464.9516L13448.212,-3464.962L13448.1984,-3464.9716L13448.1742,-3464.9824L13448.149,-3464.9909L13448.1314,-3464.9931L13448.1141,-3464.9947L13448.0967,-3464.9931L13448.0839,-3464.9902L13448.0747,-3464.9837L13448.0722,-3464.9807L13448.0698,-3464.9772L13448.067,-3464.9729L13448.0562,-3464.9675L13448.0533,-3464.9649L13448.0523,-3464.9619L13448.0423,-3464.9607L13448.0403,-3464.9536L13448.0334,-3464.9479L13448.0231,-3464.9448L13448.0175,-3464.9383L13448.0065,-3464.9368L13448.0046,-3464.9316L13447.9993,-3464.9297L13447.9914,-3464.9302L13447.9831,-3464.9222L13447.9794,-3464.9212L13447.9715,-3464.9221L13447.9636,-3464.918L13447.9504,-3464.9183L13447.9448,-3464.9154L13447.9393,-3464.9159L13447.9339,-3464.9182L13447.9197,-3464.9156L13447.9094,-3464.9172L13447.8992,-3464.9161L13447.8866,-3464.9142L13447.8718,-3464.9071L13447.8581,-3464.8985L13447.8545,-3464.8942L13447.8525,-3464.8918L13447.8503,-3464.8823L13447.8473,-3464.8767L13447.8399,-3464.8736L13447.8404,-3464.8668L13447.8392,-3464.8627L13447.8326,-3464.8597L13447.8319,-3464.8523L13447.8249,-3464.8492L13447.823,-3464.8436L13447.8169,-3464.8411L13447.8066,-3464.841L13447.7969,-3464.8366L13447.7927,-3464.8369L13447.788,-3464.8355L13447.7783,-3464.8259L13447.7666,-3464.8264L13447.7525,-3464.8198L13447.7371,-3464.8207L13447.7002,-3464.8025L13447.6879,-3464.7957L13447.6784,-3464.7912L13447.6736,-3464.7901L13447.6586,-3464.7799L13447.6559,-3464.7788L13447.6226,-3464.7551L13447.6116,-3464.745L13447.6076,-3464.741L13447.5769,-3464.7202L13447.5742,-3464.7179L13447.5517,-3464.6959L13447.5442,-3464.6869L13447.5381,-3464.6824L13447.5319,-3464.6807L13447.5,-3464.6719L13447.4951,-3464.6706L13447.476,-3464.6638L13447.4467,-3464.6486L13447.4406,-3464.6458L13447.4283,-3464.6379L13447.4031,-3464.6232L13447.3983,-3464.621L13447.3806,-3464.6108L13447.3636,-3464.5979L13447.3479,-3464.5872L13447.3323,-3464.5753L13447.3179,-3464.5652L13447.2832,-3464.5398L13447.2656,-3464.5268L13447.2656,-3466.1248L13447.2696,-3466.1254L13447.2755,-3466.1242L13447.2839,-3466.1156L13447.2886,-3466.1061L13447.2963,-3466.0946L13447.3063,-3466.0817L13447.3127,-3466.0771L13447.3298,-3466.0646L13447.3461,-3466.0511L13447.3651,-3466.0328L13447.381,-3466.0122L13447.3891,-3465.9986L13447.3947,-3465.9851L13447.3989,-3465.9749L13447.4056,-3465.9508L13447.4086,-3465.9397L13447.4133,-3465.9204L13447.4154,-3465.8989L13447.418,-3465.8755L13447.4201,-3465.8608L13447.4283,-3465.8428L13447.4324,-3465.8349L13447.4333,-3465.8333L13447.4385,-3465.8247L13447.4439,-3465.8191L13447.4439,-3465.818L13447.4596,-3465.805L13447.4605,-3465.8047L13447.4713,-3465.8289L13447.4795,-3465.8261L13447.4682,-3465.8017L13447.4685,-3465.8016L13447.4862,-3465.7971L13447.4944,-3465.796L13447.5,-3465.7961L13447.5216,-3465.7966L13447.5414,-3465.8016L13447.5516,-3465.805L13447.5584,-3465.8202L13447.5605,-3465.8247L13447.5634,-3465.8333L13447.5646,-3465.8366L13447.5584,-3465.84L13447.5557,-3465.8411L13447.5523,-3465.8434L13447.5537,-3465.8456L13447.5577,-3465.8557L13447.5625,-3465.8659L13447.5741,-3465.8614L13447.5768,-3465.862L13447.5863,-3465.8834L13447.5973,-3465.9065L13447.5986,-3465.9104L13447.6,-3465.9116L13447.6034,-3465.9183L13447.6136,-3465.9409L13447.6095,-3465.9442L13447.6027,-3465.9487L13447.6075,-3465.9595L13447.6116,-3465.9589L13447.6259,-3465.955L13447.6272,-3465.96L13447.6286,-3465.9646L13447.63,-3465.9888L13447.63,-3465.9893L13447.6295,-3466.012L13447.6327,-3466.0231L13447.6416,-3466.0422L13447.6427,-3466.0454L13447.6354,-3466.0525L13447.6375,-3466.0592L13447.6375,-3466.0699L13447.6402,-3466.0761L13447.6422,-3466.0818L13447.6402,-3466.0852L13447.6388,-3466.0891L13447.6375,-3466.0987L13447.6161,-3466.123L13447.6082,-3466.1397L13447.6056,-3466.1487L13447.6048,-3466.1556L13447.6069,-3466.1615L13447.6092,-3466.166L13447.6117,-3466.1709L13447.613,-3466.1762L13447.613,-3466.1897L13447.6157,-3466.2013L13447.6044,-3466.2071L13447.6433,-3466.2629L13447.6547,-3466.2576L13447.665,-3466.2659L13447.6761,-3466.2765L13447.697,-3466.3038L13447.7052,-3466.3116L13447.7121,-3466.3176L13447.7294,-3466.3275L13447.7657,-3466.3457L13447.8009,-3466.3629L13447.8181,-3466.374L13447.8503,-3466.3806L13447.8654,-3466.3813L13447.8817,-3466.3775L13447.8934,-3466.3737L13447.9088,-3466.3678L13447.9212,-3466.3627L13447.9289,-3466.3591L13447.9407,-3466.3534L13447.9504,-3466.345L13447.9592,-3466.3377L13447.968,-3466.3253L13447.9793,-3466.308L13447.9856,-3466.299L13447.9919,-3466.2907L13448.0068,-3466.2785L13448.0441,-3466.2589L13448.0742,-3466.2477L13448.0813,-3466.2417L13448.0896,-3466.2259L13448.0974,-3466.2001L13448.0994,-3466.1895L13448.1003,-3466.1806L13448.0987,-3466.1728L13448.0968,-3466.1663L13448.0879,-3466.1556L13448.082,-3466.1449L13448.0758,-3466.1325L13448.0711,-3466.1237L13448.0546,-3466.1051L13448.0262,-3466.0821L13448.0157,-3466.075L13448.0139,-3466.0714L13448.0086,-3466.0605L13448.0048,-3466.0412L13448.0033,-3465.9712L13448.0007,-3465.9518L13448.0027,-3465.94L13448.0089,-3465.9277L13448.0239,-3465.9071L13448.03,-3465.9003L13448.0414,-3465.8904L13448.0495,-3465.8855L13448.0596,-3465.8802L13448.0677,-3465.8779L13448.0842,-3465.877L13448.1142,-3465.8767L13448.1255,-3465.8746L13448.1379,-3465.8693L13448.1431,-3465.8659L13448.1635,-3465.849L13448.1656,-3465.8473L13448.1854,-3465.8349L13448.1951,-3465.8333L13448.1956,-3465.8332L13448.2065,-3465.8332L13448.2187,-3465.8321L13448.2265,-3465.8333L13448.2331,-3465.8344L13448.2473,-3465.8438L13448.255,-3465.8533L13448.258,-3465.8673L13448.2563,-3465.9155L13448.2556,-3465.9223L13448.2556,-3465.9285L13448.2549,-3465.9341L13448.2535,-3465.9431L13448.2562,-3465.9606L13448.2576,-3465.9679L13448.2637,-3465.9747L13448.276,-3465.9882L13448.3012,-3466.0035L13448.3073,-3466.0068L13448.3277,-3466.0119L13448.3333,-3466.0132L13448.34,-3466.0147L13448.3707,-3466.0198L13448.383,-3466.0226L13448.3864,-3466.0237L13448.4027,-3466.026L13448.4048,-3466.026L13448.4123,-3466.0271L13448.4375,-3466.0395L13448.4456,-3466.0446L13448.4749,-3466.0581L13448.4876,-3466.0711L13448.494,-3466.0919L13448.4967,-3466.0942L13448.5595,-3466.1083L13448.5786,-3466.1173L13448.584,-3466.1201L13448.5935,-3466.1241L13448.5969,-3466.1258L13448.5983,-3466.1263L13448.6174,-3466.1353L13448.6337,-3466.1522L13448.6399,-3466.1601L13448.6426,-3466.1618L13448.6446,-3466.1641L13448.646,-3466.168L13448.6457,-3466.1727L13448.6511,-3466.178L13448.6531,-3466.1896L13448.6594,-3466.1985L13448.663,-3466.2014L13448.6671,-3466.2026L13448.6684,-3466.2018L13448.6753,-3466.2069L13448.6765,-3466.2108L13448.6753,-3466.2114L13448.6742,-3466.2148L13448.6826,-3466.226L13448.6845,-3466.2346L13448.6887,-3466.2422L13448.6964,-3466.2434L13448.6917,-3466.249L13448.6977,-3466.2611L13448.7005,-3466.2713L13448.7066,-3466.2768L13448.7155,-3466.2774L13448.7239,-3466.2858L13448.7261,-3466.2946L13448.7207,-3466.3054L13448.7168,-3466.3115L13448.7148,-3466.3201L13448.7128,-3466.3248L13448.7094,-3466.3271L13448.6989,-3466.3346L13448.6955,-3466.3435L13448.6964,-3466.3491L13448.7018,-3466.3543L13448.7077,-3466.3645L13448.712,-3466.376L13448.7156,-3466.3877L13448.7182,-3466.398L13448.7176,-3466.4099L13448.7154,-3466.4181L13448.7112,-3466.4249L13448.7035,-3466.4298L13448.6944,-3466.4344L13448.6797,-3466.4394L13448.6652,-3466.4459L13448.6491,-3466.4555L13448.6335,-3466.4651L13448.6279,-3466.4686L13448.62,-3466.4709L13448.6114,-3466.4721L13448.6036,-3466.4736L13448.5988,-3466.4769L13448.5994,-3466.4813L13448.6019,-3466.4862L13448.6061,-3466.4921L13448.609,-3466.501L13448.6095,-3466.5103L13448.6079,-3466.5151L13448.6059,-3466.5258L13448.6042,-3466.5333L13448.6008,-3466.5374L13448.5951,-3466.5447L13448.588,-3466.554L13448.5806,-3466.5652L13448.5767,-3466.5737L13448.5741,-3466.5811L13448.5733,-3466.5882L13448.5733,-3466.5975L13448.5764,-3466.6087L13448.5795,-3466.6179L13448.5826,-3466.6281L13448.5883,-3466.641L13448.5914,-3466.6524L13448.5946,-3466.6667L13448.5959,-3466.6726L13448.5988,-3466.6899L13448.5978,-3466.7038L13448.595,-3466.7101L13448.5862,-3466.7157L13448.5755,-3466.7217L13448.572,-3466.7231L13448.5687,-3466.721L13448.5612,-3466.7186L13448.554,-3466.7187L13448.5513,-3466.7202L13448.5478,-3466.7243L13448.5454,-3466.7297L13448.5449,-3466.7339L13448.5415,-3466.7318L13448.5339,-3466.7296L13448.5271,-3466.7296L13448.5245,-3466.7307L13448.5209,-3466.7348L13448.5185,-3466.7409L13448.5185,-3466.7455L13448.5127,-3466.7446L13448.505,-3466.7453L13448.5001,-3466.7472L13448.4975,-3466.7493L13448.496,-3466.7546L13448.4968,-3466.7607L13448.4988,-3466.7653L13448.4965,-3466.7665L13448.4938,-3466.7677L13448.4889,-3466.7722L13448.4865,-3466.7764L13448.4862,-3466.7793L13448.4891,-3466.7839L13448.4924,-3466.7864L13448.4951,-3466.7886L13448.5,-3466.7906L13448.4978,-3466.7945L13448.4971,-3466.8013L13448.4987,-3466.8066L13448.5009,-3466.8086L13448.5058,-3466.8105L13448.5137,-3466.8112L13448.5176,-3466.8105L13448.5166,-3466.8155L13448.5172,-3466.8223L13448.5192,-3466.8269L13448.5251,-3466.8293L13448.5288,-3466.8299L13448.5399,-3466.8294L13448.5464,-3466.8303L13448.5523,-3466.8347L13448.5596,-3466.8431L13448.5653,-3466.8534L13448.5687,-3466.8608L13448.5721,-3466.8702L13448.5794,-3466.894L13448.5845,-3466.9221L13448.5885,-3466.9464L13448.5891,-3466.9684L13448.5845,-3466.981L13448.5783,-3466.9885L13448.5667,-3466.9964L13448.5593,-3467.0001L13448.544,-3467.0071L13448.5301,-3467.013L13448.5196,-3467.0173L13448.5119,-3467.0176L13448.5062,-3467.0194L13448.5031,-3467.0285L13448.5052,-3467.037L13448.4955,-3467.035L13448.4859,-3467.0368L13448.4819,-3467.0431L13448.4837,-3467.0543L13448.4777,-3467.0532L13448.4671,-3467.0553L13448.4614,-3467.0625L13448.4646,-3467.0734L13448.4547,-3467.0733L13448.4458,-3467.0767L13448.4436,-3467.0836L13448.4483,-3467.0942L13448.4422,-3467.0941L13448.437,-3467.0959L13448.4275,-3467.1012L13448.4343,-3467.1161L13448.4354,-3467.1248L13448.4441,-3467.1317L13448.4528,-3467.1304L13448.4619,-3467.1257L13448.4748,-3467.1296L13448.4831,-3467.1278L13448.4862,-3467.1234L13448.4882,-3467.1142L13448.4979,-3467.1191L13448.5065,-3467.1195L13448.511,-3467.1161L13448.5164,-3467.1073L13448.5228,-3467.1109L13448.5361,-3467.1113L13448.5412,-3467.1058L13448.5443,-3467.0991L13448.5625,-3467.0951L13448.5828,-3467.0946L13448.6004,-3467.097L13448.6174,-3467.103L13448.6319,-3467.1114L13448.6367,-3467.1154L13448.6374,-3467.1271L13448.6424,-3467.1329L13448.6522,-3467.1333L13448.6615,-3467.1305L13448.6602,-3467.1355L13448.6636,-3467.1464L13448.6717,-3467.1488L13448.6794,-3467.1481L13448.6849,-3467.146L13448.6852,-3467.1533L13448.6933,-3467.1622L13448.7032,-3467.1613L13448.7118,-3467.1584L13448.715,-3467.1666L13448.7209,-3467.1682L13448.7281,-3467.1684L13448.7323,-3467.1661L13448.7329,-3467.1605Z"/>
<path content="兵庫県,,,姫路市,,28201" xlink:title="兵庫県" d="M13451.6602,-3467.2852L13451.6602,-3466.987L13451.6495,-3466.9977L13451.6441,-3467.0045L13451.6332,-3467.0152L13451.6318,-3467.0158L13451.6208,-3467.0214L13451.6154,-3467.031L13451.6119,-3467.0358L13451.6045,-3467.04L13451.5923,-3467.0479L13451.5895,-3467.049L13451.5643,-3467.0592L13451.5459,-3467.0648L13451.5445,-3467.0654L13451.52,-3467.0704L13451.4886,-3467.0699L13451.4675,-3467.0687L13451.4416,-3467.0654L13451.4382,-3467.0642L13451.4164,-3467.0608L13451.3952,-3467.0608L13451.3877,-3467.062L13451.3775,-3467.0654L13451.3625,-3467.0693L13451.357,-3467.0727L13451.3516,-3467.0777L13451.3488,-3467.0811L13451.3366,-3467.0935L13451.3352,-3467.0947L13451.3297,-3467.1014L13451.3188,-3467.1172L13451.3038,-3467.1403L13451.2943,-3467.1533L13451.2906,-3467.1635L13451.2818,-3467.1638L13451.2767,-3467.1719L13451.2697,-3467.1713L13451.2653,-3467.1728L13451.2627,-3467.1801L13451.2561,-3467.1822L13451.2524,-3467.1858L13451.2542,-3467.1912L13451.2686,-3467.1928L13451.2689,-3467.1961L13451.2741,-3467.2L13451.2947,-3467.1991L13451.2973,-3467.2048L13451.3027,-3467.2063L13451.3013,-3467.2136L13451.3042,-3467.2163L13451.3182,-3467.2166L13451.3189,-3467.2205L13451.3219,-3467.2232L13451.3391,-3467.222L13451.3406,-3467.2241L13451.3483,-3467.2239L13451.3486,-3467.2234L13451.3509,-3467.2192L13451.3536,-3467.2203L13451.3659,-3467.2316L13451.3727,-3467.2395L13451.3829,-3467.2525L13451.3911,-3467.2632L13451.3973,-3467.275L13451.4,-3467.2852Z"/>
<path content="兵庫県,,,姫路市,,28201" xlink:title="兵庫県" d="M13451.5591,-3465.9586L13451.561,-3465.9548L13451.5652,-3465.9548L13451.5728,-3465.952L13451.5736,-3465.9482L13451.577,-3465.9482L13451.5824,-3465.9457L13451.5816,-3465.941L13451.5866,-3465.9407L13451.5904,-3465.936L13451.59,-3465.9262L13451.595,-3465.9244L13451.5946,-3465.9168L13451.6042,-3465.9112L13451.6057,-3465.9074L13451.6034,-3465.9042L13451.595,-3465.8983L13451.5996,-3465.8867L13451.5973,-3465.8797L13451.5911,-3465.877L13451.5903,-3465.875L13451.5934,-3465.8696L13451.5922,-3465.8635L13451.6426,-3465.8619L13451.6602,-3465.8616L13451.6602,-3465.8548L13451.6424,-3465.8551L13451.6422,-3465.85L13451.5901,-3465.8511L13451.5865,-3465.8333L13451.5787,-3465.796L13451.5787,-3465.6996L13451.5683,-3465.6913L13451.5614,-3465.691L13451.5691,-3465.6755L13451.5876,-3465.6812L13451.6162,-3465.6411L13451.6181,-3465.5931L13451.6301,-3465.5636L13451.6373,-3465.5499L13451.6461,-3465.5486L13451.6538,-3465.5505L13451.6602,-3465.5551L13451.6602,-3465.0244L13451.6532,-3465.0245L13451.6531,-3465.0105L13451.6525,-3465.0105L13451.6525,-3465L13451.6525,-3464.9958L13451.5974,-3464.9959L13451.5974,-3464.9954L13451.5772,-3464.9955L13451.5772,-3464.9927L13451.5756,-3464.9927L13451.5756,-3464.9938L13451.5722,-3464.9939L13451.5722,-3464.9873L13451.5716,-3464.9873L13451.5711,-3464.8792L13451.5709,-3464.8521L13451.5709,-3464.8518L13451.5335,-3464.8519L13451.5335,-3464.8161L13451.5253,-3464.8161L13451.5255,-3464.8487L13451.5225,-3464.8487L13451.5225,-3464.8532L13451.5222,-3464.8713L13451.522,-3464.8889L13451.5217,-3464.9075L13451.5215,-3464.9256L13451.5212,-3464.9437L13451.5209,-3464.9618L13451.5187,-3464.9618L13451.5184,-3464.9822L13451.5182,-3464.998L13451.5182,-3465L13451.5182,-3465.0017L13451.5112,-3465.0026L13451.5078,-3465.0043L13451.5055,-3465L13451.4936,-3464.9782L13451.46,-3464.9896L13451.4698,-3465L13451.4828,-3465.0138L13451.4658,-3465.0246L13451.4488,-3465.0369L13451.4245,-3465.0515L13451.4009,-3465.0743L13451.3867,-3465.0915L13451.3774,-3465.1013L13451.3405,-3465.0942L13451.3181,-3465.0881L13451.3069,-3465.0856L13451.2946,-3465.0777L13451.2784,-3465.0666L13451.2703,-3465.0558L13451.2672,-3465.0472L13451.266,-3465.0364L13451.2668,-3465.0234L13451.2703,-3465.0114L13451.2761,-3465L13451.2809,-3464.9909L13451.3204,-3464.9347L13451.3212,-3464.9349L13451.4115,-3464.8375L13451.4055,-3464.8329L13451.3151,-3464.9303L13451.3135,-3464.9297L13451.2397,-3464.8813L13451.0682,-3464.9056L13451.0013,-3464.9013L13450.9718,-3464.7832L13450.9779,-3464.7854L13450.9836,-3464.7826L13450.9894,-3464.7898L13451.0066,-3464.7895L13451.0146,-3464.7964L13451.0211,-3464.7992L13451.0304,-3464.7964L13451.04,-3464.8011L13451.0526,-3464.7986L13451.0587,-3464.7904L13451.0653,-3464.7948L13451.0752,-3464.7936L13451.079,-3464.7867L13451.089,-3464.7867L13451.0955,-3464.7807L13451.0939,-3464.7719L13451.1016,-3464.764L13451.1008,-3464.7568L13451.1051,-3464.7556L13451.1093,-3464.7499L13451.107,-3464.7424L13451.1138,-3464.7439L13451.1219,-3464.7417L13451.1272,-3464.7364L13451.133,-3464.7408L13451.141,-3464.7436L13451.1517,-3464.742L13451.1563,-3464.7477L13451.1647,-3464.7505L13451.1747,-3464.7467L13451.1804,-3464.7534L13451.1896,-3464.7524L13451.1949,-3464.7574L13451.2125,-3464.7577L13451.2137,-3464.7625L13451.2221,-3464.7647L13451.2347,-3464.7625L13451.2427,-3464.7684L13451.2504,-3464.7697L13451.2592,-3464.7763L13451.2711,-3464.7769L13451.2783,-3464.7713L13451.2864,-3464.7719L13451.2917,-3464.765L13451.2891,-3464.7556L13451.2917,-3464.7471L13451.2887,-3464.7433L13451.2902,-3464.7326L13451.2829,-3464.7282L13451.2822,-3464.7219L13451.2749,-3464.7179L13451.2674,-3464.7167L13451.2539,-3464.7157L13451.2425,-3464.7121L13451.2351,-3464.7084L13451.2269,-3464.7039L13451.2194,-3464.6949L13451.2146,-3464.687L13451.2098,-3464.6746L13451.2097,-3464.658L13451.208,-3464.6468L13451.2149,-3464.6308L13451.2227,-3464.6233L13451.2469,-3464.6167L13451.2656,-3464.6122L13451.2803,-3464.6057L13451.2933,-3464.5961L13451.2972,-3464.5869L13451.2986,-3464.5804L13451.2993,-3464.5728L13451.2998,-3464.5589L13451.2998,-3464.5497L13451.2948,-3464.5373L13451.277,-3464.5228L13451.2467,-3464.5106L13451.2261,-3464.4984L13451.2178,-3464.4871L13451.2137,-3464.473L13451.2048,-3464.4577L13451.1934,-3464.4453L13451.1782,-3464.4348L13451.1535,-3464.4246L13451.1355,-3464.417L13451.1295,-3464.4113L13451.1309,-3464.4017L13451.1373,-3464.3921L13451.1419,-3464.3809L13451.1502,-3464.3762L13451.158,-3464.3717L13451.1741,-3464.3662L13451.1848,-3464.3653L13451.1911,-3464.3713L13451.2124,-3464.3944L13451.237,-3464.4211L13451.2552,-3464.4348L13451.2737,-3464.4444L13451.2873,-3464.4491L13451.3017,-3464.4491L13451.316,-3464.4434L13451.3262,-3464.4358L13451.3333,-3464.426L13451.3385,-3464.4148L13451.3435,-3464.4005L13451.3494,-3464.3929L13451.3608,-3464.3897L13451.3748,-3464.3927L13451.3907,-3464.4044L13451.4163,-3464.4158L13451.404,-3464.4511L13451.4244,-3464.4589L13451.4087,-3464.4816L13451.459,-3464.5008L13451.6199,-3464.4824L13451.6602,-3464.4971L13451.6602,-3464.2859L13451.6549,-3464.2871L13451.6481,-3464.2793L13451.6438,-3464.2758L13451.6341,-3464.2771L13451.6314,-3464.2724L13451.6268,-3464.267L13451.6196,-3464.2658L13451.6123,-3464.2667L13451.6115,-3464.2607L13451.6077,-3464.2582L13451.5993,-3464.2573L13451.5928,-3464.2579L13451.584,-3464.2526L13451.5763,-3464.2519L13451.5702,-3464.2529L13451.563,-3464.2447L13451.5553,-3464.2447L13451.5477,-3464.2469L13451.5419,-3464.2529L13451.5362,-3464.2491L13451.5285,-3464.2497L13451.5258,-3464.2519L13451.522,-3464.2573L13451.5106,-3464.2538L13451.5063,-3464.2548L13451.5021,-3464.2586L13451.4964,-3464.2564L13451.4914,-3464.2567L13451.4872,-3464.2488L13451.4849,-3464.2457L13451.4788,-3464.2431L13451.4711,-3464.2438L13451.4711,-3464.2362L13451.4688,-3464.2325L13451.4623,-3464.229L13451.4558,-3464.2287L13451.4558,-3464.2221L13451.4431,-3464.217L13451.4464,-3464.2044L13451.45,-3464.193L13451.4529,-3464.1846L13451.4583,-3464.1829L13451.4659,-3464.1852L13451.4842,-3464.1995L13451.5017,-3464.203L13451.5143,-3464.2036L13451.5231,-3464.2017L13451.5335,-3464.1956L13451.5421,-3464.1932L13451.5579,-3464.1948L13451.5722,-3464.1946L13451.5864,-3464.1919L13451.6016,-3464.1882L13451.6142,-3464.1846L13451.6322,-3464.1809L13451.6462,-3464.1762L13451.6562,-3464.1692L13451.6589,-3464.1667L13451.6602,-3464.1656L13451.6602,-3463.9653L13451.6406,-3463.9577L13451.6224,-3463.9492L13451.5913,-3463.9328L13451.5631,-3463.9137L13451.5474,-3463.8996L13451.5228,-3463.8686L13451.52,-3463.8604L13451.5211,-3463.8566L13451.5169,-3463.8538L13451.5188,-3463.8481L13451.5173,-3463.8412L13451.5059,-3463.8351L13451.4914,-3463.8005L13451.4943,-3463.7974L13451.5,-3463.7926L13451.5035,-3463.7863L13451.4989,-3463.7796L13451.5057,-3463.7724L13451.5046,-3463.767L13451.5081,-3463.7626L13451.5069,-3463.7541L13451.5027,-3463.7491L13451.5077,-3463.7463L13451.5138,-3463.7391L13451.5176,-3463.7293L13451.518,-3463.7202L13451.5306,-3463.7133L13451.536,-3463.7042L13451.5326,-3463.6941L13451.5413,-3463.6919L13451.5448,-3463.6866L13451.5444,-3463.6759L13451.5501,-3463.6749L13451.5486,-3463.6655L13451.5566,-3463.6649L13451.5685,-3463.6545L13451.5677,-3463.646L13451.5731,-3463.6369L13451.5811,-3463.6313L13451.5865,-3463.624L13451.5857,-3463.6171L13451.5911,-3463.6134L13451.5922,-3463.6074L13451.6003,-3463.5973L13451.6018,-3463.5879L13451.5995,-3463.5819L13451.5922,-3463.5781L13451.593,-3463.5687L13451.5911,-3463.5652L13451.5853,-3463.5634L13451.575,-3463.5634L13451.5746,-3463.5571L13451.5723,-3463.5505L13451.5658,-3463.5448L13451.5543,-3463.5454L13451.5513,-3463.5392L13451.5421,-3463.5379L13451.5341,-3463.5404L13451.5268,-3463.5395L13451.5176,-3463.5407L13451.513,-3463.5477L13451.5123,-3463.5546L13451.5173,-3463.5602L13451.5111,-3463.5599L13451.5019,-3463.5615L13451.4966,-3463.5652L13451.4958,-3463.5703L13451.4973,-3463.5759L13451.4924,-3463.5794L13451.4916,-3463.5832L13451.484,-3463.5841L13451.4786,-3463.5879L13451.4763,-3463.5957L13451.4775,-3463.6011L13451.4813,-3463.6074L13451.479,-3463.6093L13451.4771,-3463.6121L13451.4775,-3463.6165L13451.4717,-3463.6196L13451.4664,-3463.6244L13451.4637,-3463.6313L13451.4667,-3463.6388L13451.461,-3463.641L13451.4587,-3463.6441L13451.4555,-3463.6519L13451.4353,-3463.6558L13451.4172,-3463.6606L13451.4117,-3463.6629L13451.3986,-3463.6685L13451.3943,-3463.6663L13451.3889,-3463.6663L13451.3828,-3463.6701L13451.3782,-3463.6761L13451.3786,-3463.6917L13451.3702,-3463.6949L13451.361,-3463.6993L13451.3553,-3463.7046L13451.3545,-3463.7131L13451.3556,-3463.7197L13451.3442,-3463.7244L13451.3384,-3463.7276L13451.3346,-3463.7326L13451.3327,-3463.7392L13451.3373,-3463.7496L13451.3273,-3463.7474L13451.3197,-3463.7486L13451.3124,-3463.7546L13451.3124,-3463.7574L13451.3059,-3463.7562L13451.3017,-3463.759L13451.3013,-3463.7634L13451.2933,-3463.7631L13451.2887,-3463.7672L13451.2849,-3463.7769L13451.2856,-3463.7835L13451.2776,-3463.7826L13451.2688,-3463.7857L13451.2631,-3463.7936L13451.2623,-3463.8036L13451.2539,-3463.8042L13451.2416,-3463.8172L13451.2416,-3463.8266L13451.2317,-3463.8266L13451.2256,-3463.8304L13451.2259,-3463.8382L13451.2118,-3463.8376L13451.2064,-3463.8432L13451.2045,-3463.8599L13451.1957,-3463.8599L13451.19,-3463.8633L13451.1869,-3463.8794L13451.1723,-3463.8811L13451.1591,-3463.8797L13451.1392,-3463.8787L13451.1318,-3463.8795L13451.1219,-3463.8845L13451.0981,-3463.8964L13451.0869,-3463.8972L13451.0779,-3463.8951L13451.0661,-3463.8886L13451.0573,-3463.8877L13451.05,-3463.8896L13451.0446,-3463.8949L13451.0305,-3463.8871L13451.0229,-3463.8871L13451.019,-3463.8908L13451.0129,-3463.8877L13451.0041,-3463.8877L13450.998,-3463.8892L13450.9915,-3463.894L13450.9827,-3463.8889L13450.9781,-3463.8874L13450.9693,-3463.8892L13450.9616,-3463.8933L13450.9571,-3463.8981L13450.9517,-3463.8962L13450.9437,-3463.8959L13450.9368,-3463.8999L13450.9322,-3463.9053L13450.915,-3463.904L13450.9085,-3463.9056L13450.9008,-3463.91L13450.8973,-3463.9154L13450.8669,-3463.9154L13450.8555,-3463.9151L13450.8505,-3463.9094L13450.8394,-3463.9106L13450.8333,-3463.9146L13450.8303,-3463.9166L13450.8241,-3463.9134L13450.8184,-3463.9141L13450.813,-3463.9191L13450.8065,-3463.9153L13450.8012,-3463.9163L13450.7973,-3463.9197L13450.7908,-3463.9185L13450.7836,-3463.9185L13450.7797,-3463.9232L13450.7751,-3463.9213L13450.7671,-3463.9229L13450.7629,-3463.9269L13450.7625,-3463.9339L13450.7553,-3463.9357L13450.7526,-3463.9442L13450.7556,-3463.9502L13450.751,-3463.9565L13450.7514,-3463.9644L13450.7591,-3463.9681L13450.7541,-3463.9766L13450.7568,-3463.9845L13450.7656,-3463.9873L13450.7667,-3463.9933L13450.7717,-3463.997L13450.7799,-3463.9967L13450.7919,-3464.0061L13450.7933,-3464.01L13450.7926,-3464.0202L13450.7911,-3464.0294L13450.7858,-3464.0439L13450.7783,-3464.0606L13450.7727,-3464.058L13450.7677,-3464.0602L13450.7658,-3464.0665L13450.752,-3464.0668L13450.7447,-3464.0696L13450.7417,-3464.0747L13450.7359,-3464.0719L13450.726,-3464.0722L13450.7203,-3464.0747L13450.7122,-3464.0719L13450.7046,-3464.0725L13450.6984,-3464.075L13450.6893,-3464.0725L13450.6816,-3464.0734L13450.6766,-3464.0778L13450.6759,-3464.0837L13450.6709,-3464.0841L13450.6671,-3464.0869L13450.6667,-3464.0951L13450.6564,-3464.0954L13450.6503,-3464.0992L13450.6499,-3464.1042L13450.6441,-3464.1036L13450.6354,-3464.1045L13450.6288,-3464.1092L13450.6243,-3464.1086L13450.6208,-3464.1095L13450.6136,-3464.1108L13450.6116,-3464.1167L13450.6086,-3464.1164L13450.6065,-3464.1182L13450.5983,-3464.1205L13450.5915,-3464.1216L13450.5608,-3464.1295L13450.5192,-3464.1436L13450.4872,-3464.1566L13450.4503,-3464.1662L13450.4486,-3464.1667L13450.4306,-3464.1718L13450.4244,-3464.1724L13450.421,-3464.1741L13450.4169,-3464.1752L13450.3975,-3464.1703L13450.3973,-3464.1667L13450.3972,-3464.1644L13450.3915,-3464.1581L13450.3834,-3464.1581L13450.3766,-3464.1524L13450.3685,-3464.1521L13450.3597,-3464.1549L13450.3524,-3464.1587L13450.3511,-3464.1667L13450.3509,-3464.1678L13450.3536,-3464.1747L13450.3441,-3464.1779L13450.3406,-3464.182L13450.3425,-3464.1901L13450.3459,-3464.1977L13450.341,-3464.2017L13450.3394,-3464.2068L13450.3432,-3464.2098L13450.3422,-3464.2186L13450.3367,-3464.2271L13450.3342,-3464.2309L13450.3242,-3464.2422L13450.3133,-3464.2529L13450.3003,-3464.2604L13450.2886,-3464.2656L13450.2823,-3464.2676L13450.277,-3464.2681L13450.2746,-3464.2665L13450.2667,-3464.259L13450.2564,-3464.2599L13450.2526,-3464.2637L13450.2465,-3464.2593L13450.2393,-3464.259L13450.2324,-3464.2618L13450.2312,-3464.2665L13450.2251,-3464.2709L13450.2236,-3464.2784L13450.2236,-3464.2866L13450.2289,-3464.2926L13450.2236,-3464.2973L13450.2228,-3464.3008L13450.2247,-3464.3049L13450.2274,-3464.3086L13450.2228,-3464.3115L13450.2209,-3464.3146L13450.2216,-3464.3199L13450.2254,-3464.325L13450.2212,-3464.3296L13450.2151,-3464.3346L13450.2076,-3464.3369L13450.1987,-3464.3408L13450.1981,-3464.3408L13450.1906,-3464.3454L13450.181,-3464.3465L13450.1659,-3464.3462L13450.1434,-3464.3454L13450.1181,-3464.3444L13450.1026,-3464.3454L13450.0972,-3464.3476L13450.0931,-3464.3527L13450.0903,-3464.3555L13450.0866,-3464.3652L13450.086,-3464.3672L13450.0837,-3464.3744L13450.0837,-3464.3831L13450.0876,-3464.3904L13450.0902,-3464.3963L13450.1075,-3464.4045L13450.1565,-3464.4259L13450.1796,-3464.4395L13450.1873,-3464.4471L13450.1931,-3464.4552L13450.1983,-3464.4663L13450.2014,-3464.4913L13450.2035,-3464.5026L13450.2014,-3464.5169L13450.1994,-3464.5297L13450.1981,-3464.5319L13450.1967,-3464.5403L13450.1906,-3464.5578L13450.1796,-3464.5714L13450.1646,-3464.5837L13450.1585,-3464.5888L13450.1564,-3464.5928L13450.1537,-3464.6018L13450.1449,-3464.6114L13450.1414,-3464.6164L13450.1292,-3464.6277L13450.1217,-3464.6351L13450.1196,-3464.6367L13450.1203,-3464.6401L13450.1224,-3464.6418L13450.1367,-3464.6502L13450.1517,-3464.6606L13450.1757,-3464.6711L13450.2027,-3464.6836L13450.2155,-3464.6928L13450.2321,-3464.7038L13450.2394,-3464.7072L13450.2669,-3464.7219L13450.2714,-3464.7368L13450.2734,-3464.7412L13450.2788,-3464.7434L13450.2892,-3464.7441L13450.3,-3464.7409L13450.3112,-3464.7377L13450.322,-3464.7384L13450.3461,-3464.7415L13450.3537,-3464.741L13450.3626,-3464.739L13450.3757,-3464.7371L13450.3846,-3464.7418L13450.4046,-3464.772L13450.3999,-3464.776L13450.3828,-3464.7917L13450.378,-3464.7974L13450.3746,-3464.8002L13450.3705,-3464.8019L13450.3657,-3464.8047L13450.3623,-3464.8058L13450.3603,-3464.8075L13450.3494,-3464.8081L13450.3344,-3464.8087L13450.3092,-3464.8109L13450.3024,-3464.812L13450.2806,-3464.8182L13450.2683,-3464.8222L13450.2635,-3464.8239L13450.2553,-3464.8295L13450.2471,-3464.8374L13450.2458,-3464.8391L13450.2424,-3464.8486L13450.241,-3464.8526L13450.2389,-3464.8599L13450.2396,-3464.8684L13450.241,-3464.8847L13450.2424,-3464.8954L13450.2432,-3464.91L13450.243,-3464.9285L13450.2458,-3464.9394L13450.2533,-3464.9488L13450.2513,-3464.9543L13450.2596,-3464.9612L13450.265,-3464.9628L13450.26,-3464.9691L13450.2593,-3464.9744L13450.2619,-3464.9776L13450.2677,-3464.9813L13450.2658,-3464.9867L13450.2677,-3464.9914L13450.2704,-3464.9942L13450.2776,-3464.9967L13450.2771,-3465L13450.2761,-3465.0052L13450.2776,-3465.0081L13450.283,-3465.0115L13450.2895,-3465.0116L13450.2914,-3465.0166L13450.2976,-3465.0234L13450.3037,-3465.0268L13450.3214,-3465.0307L13450.3285,-3465.0291L13450.333,-3465.0307L13450.3354,-3465.0363L13450.3431,-3465.0401L13450.3557,-3465.0395L13450.3576,-3465.0445L13450.3645,-3465.0467L13450.3775,-3465.0467L13450.3783,-3465.0552L13450.3805,-3465.058L13450.3882,-3465.0609L13450.3802,-3465.0677L13450.3809,-3465.074L13450.3821,-3465.08L13450.3756,-3465.0844L13450.3759,-3465.0916L13450.3698,-3465.0932L13450.3683,-3465.0954L13450.371,-3465.1077L13450.3618,-3465.1127L13450.361,-3465.118L13450.3649,-3465.1234L13450.3649,-3465.1312L13450.3683,-3465.1328L13450.374,-3465.1341L13450.3786,-3465.1319L13450.3802,-3465.1256L13450.3878,-3465.1259L13450.392,-3465.1227L13450.3928,-3465.1174L13450.3924,-3465.1133L13450.3993,-3465.1136L13450.4039,-3465.1111L13450.4054,-3465.1029L13450.4071,-3465.1031L13450.4256,-3465.1078L13450.4276,-3465.1013L13450.4169,-3465.0985L13450.4161,-3465.0926L13450.4199,-3465.0888L13450.4169,-3465.0828L13450.4123,-3465.0759L13450.4115,-3465.0656L13450.4107,-3465.0595L13450.4199,-3465.0546L13450.4353,-3465.0569L13450.4601,-3465.0607L13450.4694,-3465.0634L13450.4783,-3465.0679L13450.495,-3465.0881L13450.5062,-3465.0935L13450.5189,-3465.0995L13450.5313,-3465.1043L13450.5463,-3465.1091L13450.5448,-3465.1154L13450.5498,-3465.1198L13450.554,-3465.1198L13450.5551,-3465.1245L13450.5571,-3465.1302L13450.5678,-3465.1355L13450.58,-3465.1336L13450.5835,-3465.1393L13450.5926,-3465.1396L13450.5972,-3465.1361L13450.6049,-3465.1434L13450.6083,-3465.1446L13450.6179,-3465.1421L13450.6171,-3465.1468L13450.6229,-3465.1522L13450.6339,-3465.1556L13450.6427,-3465.1544L13450.6416,-3465.1584L13450.65,-3465.1651L13450.6596,-3465.1669L13450.6634,-3465.1764L13450.673,-3465.1814L13450.6821,-3465.1804L13450.6841,-3465.1855L13450.6902,-3465.1905L13450.7055,-3465.1896L13450.7097,-3465.1933L13450.7181,-3465.1959L13450.725,-3465.1914L13450.7369,-3465.1924L13450.7449,-3465.1896L13450.7567,-3465.1936L13450.7709,-3465.1878L13450.7802,-3465.1874L13450.7741,-3465.2137L13450.7766,-3465.2152L13450.7626,-3465.2659L13450.8313,-3465.3052L13450.8333,-3465.3022L13450.8354,-3465.2993L13450.8333,-3465.2982L13450.7718,-3465.263L13450.7846,-3465.2167L13450.7871,-3465.2157L13450.8204,-3465.2207L13450.8333,-3465.1819L13450.8494,-3465.1337L13450.9376,-3465.1509L13450.9299,-3465.1808L13450.9537,-3465.2074L13450.9908,-3465.2448L13451.0094,-3465.2429L13451.0426,-3465.2658L13451.0929,-3465.2725L13451.1105,-3465.2787L13451.1302,-3465.294L13451.1411,-3465.3101L13451.1444,-3465.3187L13451.1432,-3465.3765L13451.2041,-3465.3984L13451.2073,-3465.3996L13451.2208,-3465.4039L13451.2324,-3465.406L13451.2409,-3465.4088L13451.2506,-3465.4117L13451.2606,-3465.4114L13451.2718,-3465.4049L13451.2885,-3465.3977L13451.3166,-3465.3936L13451.339,-3465.3961L13451.3892,-3465.4219L13451.3895,-3465.4517L13451.3347,-3465.5344L13451.2367,-3465.4808L13451.2617,-3465.4415L13451.193,-3465.4152L13451.1846,-3465.4163L13451.1769,-3465.421L13451.1754,-3465.4273L13451.1689,-3465.4292L13451.1659,-3465.4325L13451.1654,-3465.4323L13451.1267,-3465.4028L13451.1218,-3465.4082L13451.1604,-3465.4377L13451.1638,-3465.4406L13451.1639,-3465.444L13451.1578,-3465.4449L13451.1551,-3465.4493L13451.1567,-3465.4575L13451.1536,-3465.4616L13451.1555,-3465.471L13451.1636,-3465.4757L13451.1643,-3465.4829L13451.1716,-3465.4905L13451.1804,-3465.488L13451.1842,-3465.4946L13451.1926,-3465.4961L13451.2007,-3465.493L13451.2033,-3465.4958L13451.2133,-3465.4952L13451.2202,-3465.4886L13451.2282,-3465.4924L13451.2358,-3465.4892L13451.3465,-3465.5509L13451.3486,-3465.5521L13451.3525,-3465.5574L13451.3355,-3465.5609L13451.3386,-3465.6025L13451.3447,-3465.6196L13451.3548,-3465.6393L13451.3644,-3465.6628L13451.3664,-3465.6719L13451.3648,-3465.6846L13451.3436,-3465.7668L13451.3382,-3465.7773L13451.3293,-3465.7814L13451.3231,-3465.7879L13451.3142,-3465.7898L13451.3113,-3465.7882L13451.3094,-3465.7905L13451.2579,-3465.762L13451.2598,-3465.7597L13451.2583,-3465.7589L13451.2584,-3465.7588L13451.2556,-3465.7573L13451.3175,-3465.6808L13451.3204,-3465.6823L13451.3219,-3465.6804L13451.3209,-3465.6779L13451.3177,-3465.6788L13451.3168,-3465.6769L13451.3099,-3465.6611L13451.3131,-3465.6601L13451.3122,-3465.6581L13451.3068,-3465.6597L13451.3041,-3465.6536L13451.3095,-3465.652L13451.3086,-3465.6498L13451.306,-3465.6483L13451.3027,-3465.6523L13451.2819,-3465.6407L13451.2813,-3465.6403L13451.2044,-3465.7352L13451.205,-3465.7355L13451.2141,-3465.7405L13451.2359,-3465.7525L13451.2251,-3465.7659L13451.2313,-3465.7694L13451.2514,-3465.7805L13451.2895,-3465.8016L13451.3025,-3465.8082L13451.3043,-3465.8086L13451.3099,-3465.8118L13451.3104,-3465.812L13451.3104,-3465.813L13451.3115,-3465.8152L13451.3128,-3465.8162L13451.3127,-3465.8175L13451.3135,-3465.8263L13451.3097,-3465.8301L13451.31,-3465.8333L13451.31,-3465.8339L13451.3143,-3465.8376L13451.3215,-3465.8373L13451.3292,-3465.8423L13451.328,-3465.8486L13451.328,-3465.8543L13451.3326,-3465.8568L13451.333,-3465.8609L13451.3341,-3465.8665L13451.3399,-3465.8669L13451.3452,-3465.8731L13451.354,-3465.8744L13451.3594,-3465.8829L13451.3732,-3465.8813L13451.38,-3465.8848L13451.39,-3465.8841L13451.3946,-3465.8873L13451.4037,-3465.8848L13451.4183,-3465.8867L13451.4233,-3465.8942L13451.4271,-3465.8983L13451.4451,-3465.8986L13451.4481,-3465.9052L13451.4527,-3465.9115L13451.4577,-3465.9131L13451.46,-3465.9193L13451.4669,-3465.9231L13451.4784,-3465.9231L13451.4795,-3465.9297L13451.4837,-3465.9335L13451.4917,-3465.936L13451.4997,-3465.9463L13451.5066,-3465.9482L13451.5105,-3465.9526L13451.5246,-3465.952L13451.5357,-3465.9586L13451.5453,-3465.9577L13451.5591,-3465.9586Z"/>
<path content="兵庫県,,,姫路市,,28201" xlink:title="兵庫県" d="M13450.0968,-3463.6099L13450.099,-3463.6014L13450.0936,-3463.5964L13450.0864,-3463.5927L13450.0854,-3463.5899L13450.0902,-3463.5829L13450.0895,-3463.5761L13450.0857,-3463.5722L13450.0905,-3463.5683L13450.0936,-3463.5638L13450.0933,-3463.5586L13450.0886,-3463.5571L13450.0778,-3463.5573L13450.0781,-3463.5534L13450.073,-3463.5456L13450.0743,-3463.5409L13450.0759,-3463.5347L13450.0711,-3463.531L13450.0604,-3463.531L13450.0569,-3463.5336L13450.0524,-3463.5336L13450.0461,-3463.5297L13450.0341,-3463.5267L13450,-3463.5115L13449.9982,-3463.5107L13449.9837,-3463.4998L13449.9671,-3463.4822L13449.9601,-3463.4731L13449.9536,-3463.4642L13449.9487,-3463.45L13449.9489,-3463.4335L13449.9584,-3463.4323L13449.9619,-3463.4297L13449.9634,-3463.4276L13449.9647,-3463.4258L13449.9749,-3463.4229L13449.9806,-3463.4187L13449.9819,-3463.4148L13449.9876,-3463.4117L13449.9911,-3463.407L13449.9904,-3463.3982L13449.9974,-3463.3966L13450,-3463.3936L13450.0031,-3463.3901L13450.0022,-3463.3857L13450.0009,-3463.3812L13450.0063,-3463.3789L13450.013,-3463.3724L13450.0117,-3463.3654L13450.0193,-3463.3583L13450.0196,-3463.3502L13450.0167,-3463.3424L13450.0136,-3463.338L13450.0133,-3463.3333L13450.013,-3463.3276L13450.0079,-3463.32L13450.0003,-3463.3164L13450.0025,-3463.3096L13450,-3463.3047L13450,-3463.3047L13449.9971,-3463.2997L13449.9974,-3463.2956L13449.9949,-3463.2916L13450,-3463.2888L13450.0057,-3463.2857L13450.0126,-3463.2831L13450.0203,-3463.2765L13450.0196,-3463.27L13450.025,-3463.2674L13450.0253,-3463.2591L13450.0266,-3463.2549L13450.0345,-3463.251L13450.0348,-3463.2422L13450.032,-3463.2372L13450.0374,-3463.2328L13450.0396,-3463.2229L13450.0351,-3463.2171L13450.025,-3463.213L13450.0253,-3463.2083L13450.0237,-3463.1999L13450.0177,-3463.1966L13450.0174,-3463.194L13450.0253,-3463.1868L13450.0256,-3463.1743L13450.0193,-3463.1678L13450.0155,-3463.1613L13450.0079,-3463.1558L13450.0139,-3463.142L13450.0104,-3463.1384L13450.0104,-3463.1358L13450.0142,-3463.1264L13450.0095,-3463.1201L13450.0133,-3463.1178L13450.0139,-3463.1061L13450.0117,-3463.1009L13450.012,-3463.098L13450.0184,-3463.0931L13450.0263,-3463.0873L13450.0279,-3463.0842L13450.0269,-3463.0772L13450.0247,-3463.0701L13450.0216,-3463.0649L13450.0143,-3463.0587L13450.0073,-3463.0561L13450.0016,-3463.0553L13450,-3463.054L13449.9984,-3463.0527L13449.999,-3463.0449L13449.9977,-3463.0394L13449.9857,-3463.037L13449.9813,-3463.0356L13449.9794,-3463.0307L13449.9787,-3463.0267L13449.9772,-3463.0202L13449.973,-3463.0163L13449.9661,-3463.0114L13449.9664,-3463.0082L13449.9714,-3463.0044L13449.9717,-3462.9976L13449.968,-3462.9895L13449.9654,-3462.9864L13449.9657,-3462.9772L13449.9651,-3462.9736L13449.9581,-3462.9655L13449.9515,-3462.965L13449.9448,-3462.9658L13449.942,-3462.9624L13449.9375,-3462.9585L13449.9309,-3462.9595L13449.9258,-3462.9642L13449.9226,-3462.9687L13449.9179,-3462.9687L13449.916,-3462.9603L13449.909,-3462.9564L13449.9017,-3462.9556L13449.9043,-3462.9476L13449.9049,-3462.9418L13449.9026,-3462.9366L13449.8957,-3462.9319L13449.8919,-3462.9298L13449.8824,-3462.9335L13449.8798,-3462.9304L13449.8747,-3462.9296L13449.8687,-3462.9311L13449.8633,-3462.9343L13449.8602,-3462.9348L13449.8545,-3462.9324L13449.8494,-3462.9293L13449.8434,-3462.9291L13449.8351,-3462.9317L13449.8323,-3462.94L13449.8259,-3462.94L13449.8186,-3462.9449L13449.8123,-3462.9462L13449.8101,-3462.9517L13449.8145,-3462.9556L13449.8136,-3462.9601L13449.8072,-3462.9606L13449.8047,-3462.9645L13449.7952,-3462.9637L13449.7901,-3462.9666L13449.7885,-3462.9621L13449.7841,-3462.9603L13449.785,-3462.9536L13449.7806,-3462.9489L13449.7752,-3462.9462L13449.7663,-3462.9452L13449.759,-3462.9447L13449.7546,-3462.9499L13449.7565,-3462.9522L13449.7562,-3462.9577L13449.7603,-3462.9598L13449.7597,-3462.9684L13449.7631,-3462.9707L13449.766,-3462.9739L13449.7689,-3462.9817L13449.7609,-3462.9846L13449.7568,-3462.983L13449.7523,-3462.9836L13449.7476,-3462.9795L13449.7446,-3462.9776L13449.7411,-3462.9776L13449.729,-3462.9732L13449.7215,-3462.9654L13449.7161,-3462.9659L13449.7113,-3462.9699L13449.7106,-3462.9772L13449.7079,-3462.98L13449.7011,-3462.9901L13449.6997,-3463.0009L13449.6956,-3463.0082L13449.6967,-3463.0152L13449.6984,-3463.02L13449.7037,-3463.0224L13449.7004,-3463.0319L13449.6956,-3463.0482L13449.6943,-3463.0634L13449.6915,-3463.069L13449.6759,-3463.069L13449.6706,-3463.0692L13449.6663,-3463.0673L13449.6588,-3463.064L13449.6547,-3463.0651L13449.6493,-3463.0685L13449.6404,-3463.0758L13449.6363,-3463.0786L13449.635,-3463.0842L13449.6295,-3463.0921L13449.6282,-3463.095L13449.6295,-3463.1068L13449.6282,-3463.1113L13449.6329,-3463.1181L13449.6329,-3463.1243L13449.6316,-3463.1276L13449.6323,-3463.131L13449.6377,-3463.1366L13449.6411,-3463.1401L13449.6452,-3463.1468L13449.6527,-3463.1648L13449.6547,-3463.1817L13449.6568,-3463.2263L13449.6582,-3463.2325L13449.6588,-3463.2409L13449.6615,-3463.2505L13449.6663,-3463.2629L13449.669,-3463.2663L13449.6806,-3463.2787L13449.7017,-3463.3046L13449.7086,-3463.3142L13449.7126,-3463.3187L13449.7239,-3463.3333L13449.729,-3463.34L13449.7335,-3463.3421L13449.7373,-3463.3458L13449.7392,-3463.3477L13449.7447,-3463.3528L13449.759,-3463.3703L13449.7645,-3463.3782L13449.7706,-3463.3855L13449.7781,-3463.3951L13449.7822,-3463.3996L13449.787,-3463.4052L13449.7924,-3463.4131L13449.7986,-3463.4303L13449.8006,-3463.4436L13449.8006,-3463.4599L13449.7982,-3463.4664L13449.7944,-3463.4719L13449.7953,-3463.4807L13449.7903,-3463.481L13449.7833,-3463.4878L13449.7836,-3463.4948L13449.7795,-3463.4961L13449.7747,-3463.4987L13449.775,-3463.5096L13449.769,-3463.5154L13449.7684,-3463.5203L13449.7731,-3463.5279L13449.77,-3463.531L13449.7737,-3463.5401L13449.7814,-3463.5427L13449.782,-3463.5453L13449.7826,-3463.5505L13449.7915,-3463.5555L13449.8014,-3463.5557L13449.8064,-3463.5604L13449.8109,-3463.5615L13449.8201,-3463.5557L13449.8257,-3463.5615L13449.8302,-3463.562L13449.8419,-3463.5586L13449.848,-3463.563L13449.8543,-3463.5633L13449.8562,-3463.5656L13449.86,-3463.5693L13449.8644,-3463.5729L13449.8707,-3463.574L13449.8739,-3463.5792L13449.8809,-3463.5852L13449.8923,-3463.5834L13449.8939,-3463.5886L13449.898,-3463.5909L13449.9088,-3463.5891L13449.912,-3463.5943L13449.9177,-3463.5974L13449.9291,-3463.5979L13449.9281,-3463.6018L13449.9319,-3463.605L13449.9411,-3463.6044L13449.9434,-3463.6104L13449.9475,-3463.6125L13449.9545,-3463.6144L13449.9579,-3463.6224L13449.9622,-3463.6254L13449.9629,-3463.6374L13449.9683,-3463.6434L13449.9667,-3463.6507L13449.9736,-3463.6577L13449.9743,-3463.665L13449.9844,-3463.6726L13449.9892,-3463.6799L13449.9946,-3463.6799L13449.9987,-3463.6866L13450,-3463.6879L13450.0034,-3463.6913L13450.0136,-3463.6924L13450.0184,-3463.701L13450.0296,-3463.7032L13450.0315,-3463.7079L13450.0318,-3463.7133L13450.0388,-3463.7217L13450.0369,-3463.7237L13450.0366,-3463.7292L13450.041,-3463.7342L13450.0477,-3463.7373L13450.0639,-3463.7389L13450.0629,-3463.7451L13450.0642,-3463.7519L13450.0705,-3463.7571L13450.0797,-3463.7574L13450.0841,-3463.7594L13450.0924,-3463.7566L13450.0965,-3463.7488L13450.0946,-3463.7409L13450.0936,-3463.7355L13450.0848,-3463.7311L13450.0844,-3463.7222L13450.0816,-3463.7186L13450.073,-3463.7141L13450.0734,-3463.7084L13450.0708,-3463.6956L13450.0651,-3463.6901L13450.0648,-3463.6862L13450.0756,-3463.6792L13450.0749,-3463.6748L13450.0657,-3463.6667L13450.0635,-3463.6404L13450.0743,-3463.6373L13450.0803,-3463.6307L13450.0797,-3463.6224L13450.0864,-3463.6201L13450.0905,-3463.6183L13450.0968,-3463.6099Z"/>
<path content="兵庫県,,,姫路市,,28201" xlink:title="兵庫県" d="M13448.2263,-3464.0822L13448.225,-3464.08L13448.225,-3464.0777L13448.2134,-3464.067L13448.2059,-3464.0631L13448.2018,-3464.0597L13448.2032,-3464.0574L13448.2025,-3464.04L13448.2025,-3464.0389L13448.2011,-3464.0338L13448.1984,-3464.0247L13448.2032,-3464.0208L13448.2045,-3464.0191L13448.1977,-3464.0107L13448.1964,-3464.0096L13448.1889,-3464.0016L13448.1882,-3463.9971L13448.1861,-3463.9937L13448.1841,-3463.9881L13448.1841,-3463.9752L13448.1807,-3463.9684L13448.1698,-3463.9577L13448.1589,-3463.9481L13448.1534,-3463.9414L13448.1309,-3463.9295L13448.1132,-3463.9205L13448.1064,-3463.9166L13448.0976,-3463.9137L13448.0873,-3463.9143L13448.0635,-3463.9154L13448.056,-3463.9154L13448.0492,-3463.9177L13448.0308,-3463.9205L13448.0212,-3463.9211L13448.0001,-3463.9295L13448.0001,-3463.9363L13448.0042,-3463.9442L13448.0069,-3463.9526L13448.0069,-3463.9543L13448.0096,-3463.956L13448.0117,-3463.9571L13448.0137,-3463.9594L13448.0164,-3463.9605L13448.0219,-3463.9644L13448.0233,-3463.9735L13448.0308,-3463.9802L13448.0383,-3463.9859L13448.0383,-3463.9876L13448.0437,-3463.9921L13448.0519,-3463.9971L13448.058,-3464.0039L13448.0641,-3464.0096L13448.0662,-3464.0101L13448.0662,-3464.0124L13448.0716,-3464.0208L13448.0819,-3464.0298L13448.0791,-3464.0321L13448.0778,-3464.0394L13448.0791,-3464.0434L13448.0921,-3464.0659L13448.0989,-3464.0682L13448.103,-3464.0676L13448.1105,-3464.0642L13448.1139,-3464.0648L13448.1153,-3464.067L13448.12,-3464.071L13448.1241,-3464.0716L13448.135,-3464.0777L13448.1463,-3464.0731L13448.15,-3464.0783L13448.1582,-3464.0817L13448.1636,-3464.0828L13448.1762,-3464.0806L13448.1809,-3464.0864L13448.1875,-3464.0873L13448.1964,-3464.0941L13448.2086,-3464.1003L13448.2236,-3464.0963L13448.2263,-3464.0952L13448.2304,-3464.0884L13448.2284,-3464.0828L13448.2263,-3464.0822Z"/>
<path content="兵庫県,,,姫路市,,28201" xlink:title="兵庫県" d="M13451.6602,-3464.6298L13451.6073,-3464.603L13451.5599,-3464.5634L13451.5528,-3464.5694L13451.6036,-3464.6091L13451.6602,-3464.6376Z"/>
<path content="兵庫県,,,姫路市,,28201" xlink:title="兵庫県" d="M13451.4233,-3464.7333L13451.3607,-3464.6965L13451.3512,-3464.7083L13451.4131,-3464.7443L13451.4233,-3464.7333Z"/>
<path content="兵庫県,,,姫路市,,28201" xlink:title="兵庫県" d="M13451.4973,-3464.7737L13451.4335,-3464.7386L13451.4245,-3464.75L13451.4871,-3464.7851L13451.4973,-3464.7737Z"/>
<path content="兵庫県,,,姫路市,,28201" xlink:title="兵庫県" d="M13450.9379,-3465.4043L13450.879,-3465.3647L13450.8686,-3465.3753L13450.9279,-3465.4141L13450.9379,-3465.4043Z"/>
<path content="兵庫県,,,姫路市,,28201" xlink:title="兵庫県" d="M13451.006,-3465.4572L13450.9514,-3465.4137L13450.9399,-3465.4235L13450.995,-3465.4663L13451.006,-3465.4572Z"/>
<path content="兵庫県,,,姫路市,,28201" xlink:title="兵庫県" d="M13450.1041,-3463.525L13450.0981,-3463.525L13450.0943,-3463.5261L13450.0848,-3463.5276L13450.0822,-3463.5307L13450.0826,-3463.5373L13450.0873,-3463.5394L13450.0886,-3463.542L13450.086,-3463.5441L13450.0854,-3463.5453L13450.0879,-3463.549L13450.0927,-3463.5495L13450.1003,-3463.5477L13450.1038,-3463.5448L13450.1098,-3463.5432L13450.1117,-3463.5388L13450.1101,-3463.5318L13450.1041,-3463.525Z"/>
<path content="兵庫県,,,姫路市,,28201" xlink:title="兵庫県" d="M13450.0193,-3463.0025L13450.0127,-3463.0025L13450.0092,-3463.0049L13450.0038,-3463.0101L13450,-3463.0134L13449.9987,-3463.0145L13449.9987,-3463.02L13450,-3463.0206L13450.0038,-3463.0226L13450.0152,-3463.0241L13450.0234,-3463.0262L13450.0301,-3463.0202L13450.0285,-3463.0145L13450.0273,-3463.0085L13450.0237,-3463.0046L13450.0193,-3463.0025Z"/>
<path content="兵庫県,,,姫路市,,28201" xlink:title="兵庫県" d="M13451.122,-3465.4141L13451.0523,-3465.405L13451.0512,-3465.4117L13451.121,-3465.4208L13451.122,-3465.4141Z"/>
<path content="兵庫県,,,姫路市,,28201" xlink:title="兵庫県" d="M13450.4903,-3465.1185L13450.4362,-3465.1032L13450.434,-3465.1098L13450.4881,-3465.125L13450.4903,-3465.1185Z"/>
<path content="兵庫県,,,姫路市,,28201" xlink:title="兵庫県" d="M13448.535,-3464.8025L13448.5343,-3464.8025L13448.5262,-3464.8047L13448.5234,-3464.8087L13448.5214,-3464.8126L13448.5221,-3464.8149L13448.5275,-3464.8166L13448.5377,-3464.8183L13448.5432,-3464.8194L13448.5459,-3464.8188L13448.5486,-3464.8171L13448.5493,-3464.8143L13448.55,-3464.8109L13448.5486,-3464.8092L13448.5466,-3464.8064L13448.5411,-3464.8036L13448.535,-3464.8025Z"/>
<path content="兵庫県,,,姫路市,,28201" xlink:title="兵庫県" d="M13448.3836,-3467.1199L13448.3775,-3467.1188L13448.3693,-3467.1233L13448.3679,-3467.125L13448.3666,-3467.1323L13448.3693,-3467.1368L13448.3823,-3467.1357L13448.3891,-3467.1323L13448.3925,-3467.1261L13448.3898,-3467.125L13448.3911,-3467.1239L13448.3836,-3467.1199Z"/>
<path content="兵庫県,,,姫路市,,28201" xlink:title="兵庫県" d="M13450.5416,-3465.1326L13450.4989,-3465.1209L13450.4967,-3465.1274L13450.5394,-3465.1391L13450.5416,-3465.1326Z"/>
<path content="兵庫県,,,姫路市,,28201" xlink:title="兵庫県" d="M13448.5507,-3464.8414L13448.5452,-3464.8397L13448.5364,-3464.8442L13448.5357,-3464.8448L13448.5364,-3464.8465L13448.5418,-3464.86L13448.5439,-3464.8606L13448.5507,-3464.8594L13448.5554,-3464.856L13448.5554,-3464.8532L13448.5541,-3464.8481L13448.5507,-3464.8414Z"/>
<path content="兵庫県,,,姫路市,,28201" xlink:title="兵庫県" d="M13450.9794,-3465.2838L13450.9746,-3465.2804L13450.9691,-3465.281L13450.9651,-3465.2861L13450.963,-3465.2906L13450.963,-3465.2951L13450.9664,-3465.2979L13450.9746,-3465.2962L13450.9787,-3465.2928L13450.9801,-3465.29L13450.9794,-3465.2838Z"/>
<path content="兵庫県,,,姫路市,,28201" xlink:title="兵庫県" d="M13449.7207,-3463.9326L13449.7123,-3463.9326L13449.7095,-3463.9329L13449.7084,-3463.9337L13449.7086,-3463.938L13449.7184,-3463.9444L13449.7244,-3463.9489L13449.7272,-3463.9487L13449.7275,-3463.9446L13449.7274,-3463.9352L13449.7261,-3463.9328L13449.7207,-3463.9326Z"/>
<path content="兵庫県,,,姫路市,,28201" xlink:title="兵庫県" d="M13447.9865,-3463.9132L13447.9791,-3463.9116L13447.9742,-3463.9149L13447.9715,-3463.9166L13447.9709,-3463.921L13447.973,-3463.9247L13447.9796,-3463.9272L13447.9827,-3463.9228L13447.9853,-3463.9192L13447.9865,-3463.9132Z"/>
<path content="兵庫県,,,姫路市,,28201" xlink:title="兵庫県" d="M13447.9559,-3463.9227L13447.9515,-3463.9207L13447.9473,-3463.9251L13447.9471,-3463.9299L13447.9517,-3463.9323L13447.9537,-3463.9334L13447.9603,-3463.9302L13447.9632,-3463.9261L13447.9613,-3463.9227L13447.9559,-3463.9227Z"/>
<path content="兵庫県,,,姫路市,,28201" xlink:title="兵庫県" d="M13450.8461,-3463.889L13450.8424,-3463.8861L13450.8388,-3463.8872L13450.8351,-3463.8907L13450.8353,-3463.8943L13450.8394,-3463.8987L13450.8424,-3463.8982L13450.8455,-3463.894L13450.8461,-3463.889Z"/>
<path content="兵庫県,,,姫路市,,28201" xlink:title="兵庫県" d="M13448.4089,-3467.1137L13448.4062,-3467.1114L13448.4007,-3467.112L13448.4014,-3467.1188L13448.4082,-3467.1222L13448.4116,-3467.1193L13448.4089,-3467.1154L13448.4089,-3467.1137Z"/>
</g>
</svg>
