<?xml version="1.0" encoding="UTF-8"?>
<svg  xmlns="http://www.w3.org/2000/svg" xmlns:xlink="http://www.w3.org/1999/xlink" xmlns:go="http://purl.org/svgmap/profile" property="geometry,N03_001,N03_002,N03_003,N03_004,N03_005,N03_007" viewBox="13456.0546875 -3498.046875 8.7890625 8.7890625" go:dataArea="13456.0546875 -3498.046875 8.7890625 8.7890625" >
<metadata>
 <rdf:RDF xmlns:rdf="http://www.w3.org/1999/02/22-rdf-syntax-ns#" xmlns:crs="http://opengis.org/xmldtds/transformations.dtd" xmlns:svg="http://www.w3.org/svg" >
  <rdf:Description>
   <crs:CoordinateReferenceSystem rdf:resource="http://purl.org/crs/84" svg:transform="matrix(100.0,0.0,0.0,-100.0,0.0,0.0)" />
  </rdf:Description>
 </rdf:RDF>
</metadata>
<globalCoordinateSystem srsName="http://purl.org/crs/84" transform="matrix(100.0,0.0,0.0,-100.0,0.0,0.0)" />
<defs>
 <g id="p0" >
  <circle cx="0.0" cy="0.0" r="3" stroke="green" stroke-width="2.0" vector-effect="non-scaling-stroke" />
 </g>
</defs>
<g fill="#0000ff" fill-rule="evenodd" opacity="0.5" >
<path content="兵庫県,,,姫路市,,28201" xlink:title="兵庫県" d="M13464.8438,-3498.0469L13464.8438,-3489.2578L13459.7846,-3489.2578L13459.7843,-3489.2626L13459.7848,-3489.2855L13459.7849,-3489.2946L13459.7858,-3489.3054L13459.7894,-3489.3503L13459.8023,-3489.4449L13459.8017,-3489.4907L13459.7957,-3489.5029L13459.7861,-3489.5108L13459.734,-3489.5251L13459.7106,-3489.5369L13459.6961,-3489.5512L13459.6951,-3489.5522L13459.6857,-3489.5686L13459.6782,-3489.5961L13459.6726,-3489.6818L13459.6642,-3489.6936L13459.5513,-3489.7374L13459.5064,-3489.7541L13459.3395,-3489.8344L13459.3132,-3489.8402L13459.287,-3489.8377L13459.2132,-3489.8177L13459.1667,-3489.7968L13459.1647,-3489.7959L13459.0905,-3489.7625L13459.048,-3489.7364L13459.0205,-3489.7098L13459.0007,-3489.7044L13458.9395,-3489.7002L13458.9395,-3489.6802L13458.9257,-3489.6286L13458.9186,-3489.6136L13458.9007,-3489.5761L13458.8761,-3489.5325L13458.8576,-3489.5108L13458.8378,-3489.4946L13458.7983,-3489.4695L13458.757,-3489.499L13458.7348,-3489.4971L13458.692,-3489.5394L13458.689,-3489.5507L13458.6692,-3489.5674L13458.6608,-3489.5551L13458.5608,-3489.6427L13458.5318,-3489.6304L13458.4102,-3489.5906L13458.4036,-3489.5596L13458.3793,-3489.5533L13458.3711,-3489.5512L13458.3643,-3489.5495L13458.3446,-3489.5444L13458.3358,-3489.5361L13458.3333,-3489.5283L13458.3308,-3489.5203L13458.3195,-3489.5044L13458.3018,-3489.4928L13458.288,-3489.4837L13458.2841,-3489.4825L13458.2741,-3489.4791L13458.2418,-3489.4682L13458.2224,-3489.4663L13458.1898,-3489.463L13458.1662,-3489.5607L13458.1647,-3489.5669L13458.1591,-3489.567L13458.1054,-3489.5674L13458.1049,-3489.5746L13458.1038,-3489.5896L13458.1036,-3489.5925L13458.1048,-3489.6033L13458.1084,-3489.6333L13458.0613,-3489.635L13458.053,-3489.6353L13457.9793,-3489.5984L13457.9663,-3489.6015L13457.9564,-3489.6039L13457.9436,-3489.6069L13457.8983,-3489.6177L13457.8481,-3489.6207L13457.829,-3489.6219L13457.7889,-3489.6242L13457.8009,-3489.5647L13457.7464,-3489.5249L13457.6234,-3489.5278L13457.6235,-3489.537L13457.6239,-3489.5612L13457.6124,-3489.5607L13457.5,-3489.5557L13457.4721,-3489.5544L13457.4759,-3489.5161L13457.4351,-3489.5129L13457.4221,-3489.5119L13457.4176,-3489.4806L13457.4077,-3489.4343L13457.3634,-3489.4358L13457.3632,-3489.439L13457.3574,-3489.5315L13457.3275,-3489.5335L13457.3221,-3489.6286L13457.3222,-3489.6288L13457.3241,-3489.6393L13457.3259,-3489.6486L13457.3359,-3489.6677L13457.3401,-3489.6906L13457.3259,-3489.6944L13457.3087,-3489.6956L13457.3021,-3489.6961L13457.2634,-3489.6877L13457.2196,-3489.5586L13457.2071,-3489.5461L13457.199,-3489.5376L13457.1763,-3489.5273L13457.1391,-3489.5334L13457.1221,-3489.5361L13457.0871,-3489.5081L13457.0047,-3489.4728L13456.9721,-3489.4673L13456.9457,-3489.4732L13456.9409,-3489.4886L13456.9487,-3489.5071L13456.9797,-3489.5528L13457.0104,-3489.5809L13457.0457,-3489.6021L13457.1098,-3489.636L13457.0527,-3489.7788L13457.0496,-3489.7866L13457.0384,-3489.8061L13457.0116,-3489.8296L13456.9467,-3489.859L13456.9459,-3489.8594L13456.9104,-3489.8779L13456.8912,-3489.8951L13456.8732,-3489.9418L13456.8618,-3489.9576L13456.8197,-3489.9911L13456.805,-3490L13456.7671,-3490.0232L13456.7646,-3490.0247L13456.6705,-3490.0744L13456.6667,-3490.0756L13456.6526,-3490.0798L13456.5981,-3490.0872L13456.5376,-3490.1059L13456.5035,-3490.1472L13456.4047,-3490.2368L13456.3645,-3490.2651L13456.3471,-3490.2793L13456.3429,-3490.2961L13456.3406,-3490.3236L13456.4756,-3490.4752L13456.5772,-3490.5743L13456.5534,-3490.6343L13456.5534,-3490.6526L13456.5672,-3490.6684L13456.5789,-3490.6784L13456.5951,-3490.7113L13456.6022,-3490.7343L13456.6134,-3490.8318L13456.6135,-3490.8333L13456.6136,-3490.874L13456.6286,-3490.8976L13456.6663,-3490.9379L13456.6667,-3490.9382L13456.6959,-3490.9617L13456.7609,-3491.0142L13456.8508,-3491.0594L13456.8984,-3491.0834L13456.9333,-3491.097L13456.9671,-3491.1101L13457.0631,-3491.1273L13457.1888,-3491.1396L13457.1828,-3491.3492L13457.1771,-3491.375L13457.1301,-3491.4877L13457.1046,-3491.5275L13457.0509,-3491.575L13457.0253,-3491.5839L13456.9784,-3491.545L13456.9457,-3491.5598L13456.9096,-3491.5833L13456.9087,-3491.5848L13456.8959,-3491.6048L13456.8756,-3491.6462L13456.8694,-3491.6667L13456.8612,-3491.6939L13456.8786,-3491.7896L13456.8792,-3491.802L13456.8798,-3491.8147L13456.8834,-3491.8358L13456.8954,-3491.855L13456.9658,-3491.9209L13457.0016,-3491.9628L13457.0171,-3491.9777L13457.0221,-3491.9883L13457.0203,-3492.0074L13457.0247,-3492.048L13457.0254,-3492.0725L13457.0237,-3492.1014L13457.0169,-3492.1207L13457.0139,-3492.1485L13457.007,-3492.1664L13457.0002,-3492.1786L13456.9792,-3492.2236L13456.9719,-3492.2577L13456.9676,-3492.3166L13456.9672,-3492.3328L13456.9608,-3492.3554L13456.9284,-3492.3791L13456.8861,-3492.4117L13456.8763,-3492.4212L13456.8712,-3492.4263L13456.8496,-3492.4641L13456.8493,-3492.4849L13456.8532,-3492.5L13456.8536,-3492.5015L13456.8583,-3492.5191L13456.8604,-3492.5401L13456.8608,-3492.5441L13456.863,-3492.5641L13456.857,-3492.5869L13456.844,-3492.6245L13456.8386,-3492.656L13456.8416,-3492.6786L13456.8424,-3492.6989L13456.8411,-3492.712L13456.8331,-3492.7247L13456.8263,-3492.7315L13456.8046,-3492.7416L13456.7906,-3492.7487L13456.7855,-3492.7575L13456.7859,-3492.7684L13456.7885,-3492.7811L13456.7923,-3492.7955L13456.7959,-3492.8207L13456.799,-3492.8371L13456.8,-3492.8427L13456.8026,-3492.8565L13456.8064,-3492.8936L13456.8082,-3492.9168L13456.809,-3492.9909L13456.8032,-3493.013L13456.7951,-3493.0287L13456.791,-3493.0467L13456.7949,-3493.0684L13456.8021,-3493.079L13456.8082,-3493.0888L13456.8182,-3493.1008L13456.8339,-3493.1082L13456.8692,-3493.1277L13456.9154,-3493.1576L13456.9415,-3493.1706L13457.0107,-3493.194L13457.0259,-3493.1991L13457.0451,-3493.2104L13457.049,-3493.2181L13457.0541,-3493.2367L13457.0563,-3493.2533L13457.0618,-3493.2642L13457.0712,-3493.2684L13457.0914,-3493.273L13457.1153,-3493.2804L13457.132,-3493.2906L13457.1478,-3493.3092L13457.1653,-3493.3333L13457.1667,-3493.3352L13457.1778,-3493.3549L13457.1863,-3493.3857L13457.1896,-3493.4086L13457.1904,-3493.4284L13457.1969,-3493.4395L13457.2067,-3493.4472L13457.2285,-3493.4592L13457.2557,-3493.4661L13457.2797,-3493.4773L13457.3157,-3493.4967L13457.3276,-3493.5129L13457.3303,-3493.5298L13457.3469,-3493.5837L13457.352,-3493.6196L13457.3584,-3493.6498L13457.364,-3493.6743L13457.3722,-3493.7249L13457.3722,-3493.7397L13457.3709,-3493.7513L13457.3657,-3493.7682L13457.3546,-3493.7935L13457.3529,-3493.8059L13457.355,-3493.8245L13457.3593,-3493.834L13457.37,-3493.8491L13457.3726,-3493.8589L13457.3721,-3493.8664L13457.3722,-3493.8793L13457.3672,-3493.9291L13457.3657,-3493.9599L13457.3642,-3493.9881L13457.3737,-3494.0215L13457.3796,-3494.0456L13457.3796,-3494.0506L13457.3788,-3494.0578L13457.3715,-3494.0642L13457.3396,-3494.0906L13457.3222,-3494.1153L13457.3108,-3494.1439L13457.3033,-3494.1514L13457.2793,-3494.1667L13457.2771,-3494.1681L13457.2707,-3494.1709L13457.2643,-3494.1778L13457.2628,-3494.1854L13457.2645,-3494.1908L13457.2669,-3494.1943L13457.2722,-3494.2047L13457.2731,-3494.223L13457.2735,-3494.2392L13457.2693,-3494.2584L13457.2624,-3494.2903L13457.2594,-3494.3083L13457.2583,-3494.3455L13457.2435,-3494.396L13457.2393,-3494.4101L13457.2333,-3494.4447L13457.2341,-3494.4936L13457.2388,-3494.5539L13457.2375,-3494.5939L13457.2345,-3494.6164L13457.2285,-3494.634L13457.2204,-3494.6526L13457.2008,-3494.6805L13457.1971,-3494.6872L13457.1971,-3494.6922L13457.1983,-3494.7022L13457.205,-3494.7106L13457.2148,-3494.7286L13457.2384,-3494.7653L13457.2538,-3494.8026L13457.2375,-3494.8086L13457.2208,-3494.8184L13457.205,-3494.8311L13457.1673,-3494.8529L13457.1386,-3494.8642L13457.1208,-3494.8738L13457.1133,-3494.8838L13457.1016,-3494.9045L13457.0947,-3494.9233L13457.0947,-3494.9647L13457.0909,-3494.9816L13457.0875,-3495L13457.0847,-3495.0149L13457.0791,-3495.0237L13457.0714,-3495.0279L13457.0505,-3495.0353L13457.0389,-3495.0406L13457.0363,-3495.0522L13457.0321,-3495.0648L13457.0252,-3495.1262L13457.0248,-3495.1628L13457.0299,-3495.1828L13457.0372,-3495.1906L13457.0475,-3495.2004L13457.0586,-3495.212L13457.0663,-3495.2185L13457.0702,-3495.2294L13457.0702,-3495.24L13457.0668,-3495.2514L13457.056,-3495.2811L13457.0565,-3495.2987L13457.06,-3495.3122L13457.074,-3495.348L13457.0802,-3495.3582L13457.0821,-3495.3614L13457.082,-3495.3627L13457.0809,-3495.3772L13457.0808,-3495.3787L13457.0774,-3495.4011L13457.0607,-3495.4187L13457.0447,-3495.4321L13457.0558,-3495.441L13457.0622,-3495.4481L13457.0729,-3495.4629L13457.0834,-3495.4834L13457.0856,-3495.5007L13457.0838,-3495.5214L13457.0808,-3495.5471L13457.0646,-3495.5745L13457.0569,-3495.6065L13457.0577,-3495.6216L13457.0594,-3495.6361L13457.0659,-3495.6568L13457.0696,-3495.6729L13457.0771,-3495.6862L13457.0833,-3495.6945L13457.1033,-3495.7127L13457.1187,-3495.7233L13457.1282,-3495.7332L13457.1415,-3495.7514L13457.1474,-3495.7683L13457.1491,-3495.7842L13457.1557,-3495.8333L13457.1564,-3495.8385L13457.171,-3495.8708L13457.1762,-3495.8786L13457.1808,-3495.8853L13457.1847,-3495.8892L13457.1975,-3495.9017L13457.2061,-3495.9101L13457.2206,-3495.9354L13457.2274,-3495.9671L13457.236,-3495.9943L13457.245,-3496.0024L13457.257,-3496.0104L13457.2651,-3496.0182L13457.2801,-3496.0419L13457.2899,-3496.0706L13457.2962,-3496.0922L13457.3059,-3496.1376L13457.3313,-3496.1774L13457.3377,-3496.1904L13457.3398,-3496.2018L13457.3484,-3496.2357L13457.3527,-3496.2459L13457.3625,-3496.2526L13457.3736,-3496.2558L13457.422,-3496.2667L13457.452,-3496.2761L13457.4657,-3496.2811L13457.4738,-3496.2931L13457.4883,-3496.3328L13457.5,-3496.3493L13457.5038,-3496.3546L13457.5141,-3496.3764L13457.5153,-3496.387L13457.5089,-3496.3912L13457.5,-3496.3935L13457.4914,-3496.3958L13457.4553,-3496.4067L13457.4346,-3496.4171L13457.4208,-3496.4294L13457.4141,-3496.4452L13457.4098,-3496.4621L13457.4017,-3496.474L13457.3739,-3496.5384L13457.3747,-3496.5546L13457.3786,-3496.601L13457.3762,-3496.6186L13457.3756,-3496.6235L13457.361,-3496.6657L13457.3605,-3496.6667L13457.3295,-3496.7202L13457.3304,-3496.75L13457.3398,-3496.7816L13457.3371,-3496.803L13457.3017,-3496.8143L13457.2393,-3496.8492L13457.1985,-3496.8751L13457.1776,-3496.8892L13457.1683,-3496.8925L13457.1579,-3496.898L13457.1526,-3496.9026L13457.1478,-3496.9059L13457.1421,-3496.9077L13457.1351,-3496.9074L13457.1288,-3496.9047L13457.1202,-3496.8984L13457.0971,-3496.885L13457.0744,-3496.8731L13457.0348,-3496.8667L13457.0031,-3496.8688L13456.9893,-3496.8717L13456.9621,-3496.8785L13456.9237,-3496.8868L13456.9105,-3496.8942L13456.8839,-3496.9022L13456.8548,-3496.9058L13456.8141,-3496.9167L13456.7869,-3496.9269L13456.7683,-3496.9419L13456.7546,-3496.9502L13456.7033,-3496.9685L13456.6667,-3496.9906L13456.6659,-3496.9911L13456.632,-3497.0237L13456.6096,-3497.0585L13456.6032,-3497.0605L13456.5796,-3497.0677L13456.5491,-3497.0755L13456.5287,-3497.0856L13456.5125,-3497.1409L13456.4996,-3497.1643L13456.4909,-3497.1743L13456.4846,-3497.1801L13456.4517,-3497.2028L13456.4446,-3497.2093L13456.4396,-3497.2243L13456.4409,-3497.2443L13456.4471,-3497.2568L13456.4546,-3497.2643L13456.4723,-3497.2765L13456.5352,-3497.3043L13456.5468,-3497.3092L13456.5534,-3497.3201L13456.5534,-3497.3235L13456.5546,-3497.3293L13456.5459,-3497.3609L13456.545,-3497.3772L13456.5464,-3497.3953L13456.5504,-3497.4247L13456.5554,-3497.4405L13456.5577,-3497.4479L13456.5679,-3497.4667L13456.5688,-3497.478L13456.5662,-3497.4914L13456.5636,-3497.5L13456.5602,-3497.5114L13456.55,-3497.5266L13456.5371,-3497.5451L13456.5311,-3497.5782L13456.5246,-3497.5867L13456.5016,-3497.616L13456.4859,-3497.6287L13456.4581,-3497.6509L13456.4384,-3497.6751L13456.4222,-3497.6941L13456.4201,-3497.7068L13456.4205,-3497.7166L13456.4217,-3497.7269L13456.4307,-3497.7381L13456.453,-3497.7576L13456.4959,-3497.7835L13456.4967,-3497.784L13456.5684,-3497.8229L13456.5842,-3497.8411L13456.5936,-3497.8559L13456.6007,-3497.8862L13456.6034,-3497.9301L13456.6043,-3497.9506L13456.6005,-3497.9663L13456.5941,-3497.9772L13456.5744,-3498.0026L13456.5705,-3498.0226L13456.5709,-3498.0335L13456.5761,-3498.0469Z"/>
<path content="兵庫県,,,宍粟市,,28227" xlink:title="兵庫県" d="M13456.0547,-3498.0469L13456.5761,-3498.0469L13456.5709,-3498.0335L13456.5705,-3498.0226L13456.5744,-3498.0026L13456.5941,-3497.9772L13456.6005,-3497.9663L13456.6043,-3497.9506L13456.6034,-3497.9301L13456.6007,-3497.8862L13456.5936,-3497.8559L13456.5842,-3497.8411L13456.5684,-3497.8229L13456.4967,-3497.784L13456.4959,-3497.7835L13456.453,-3497.7576L13456.4307,-3497.7381L13456.4217,-3497.7269L13456.4205,-3497.7166L13456.4201,-3497.7068L13456.4222,-3497.6941L13456.4384,-3497.6751L13456.4581,-3497.6509L13456.4859,-3497.6287L13456.5016,-3497.616L13456.5246,-3497.5867L13456.5311,-3497.5782L13456.5371,-3497.5451L13456.55,-3497.5266L13456.5602,-3497.5114L13456.5636,-3497.5L13456.5662,-3497.4914L13456.5688,-3497.478L13456.5679,-3497.4667L13456.5577,-3497.4479L13456.5554,-3497.4405L13456.5504,-3497.4247L13456.5464,-3497.3953L13456.545,-3497.3772L13456.5459,-3497.3609L13456.5546,-3497.3293L13456.5534,-3497.3235L13456.5534,-3497.3201L13456.5468,-3497.3092L13456.5352,-3497.3043L13456.4723,-3497.2765L13456.4546,-3497.2643L13456.4471,-3497.2568L13456.4409,-3497.2443L13456.4396,-3497.2243L13456.4446,-3497.2093L13456.4517,-3497.2028L13456.4846,-3497.1801L13456.4909,-3497.1743L13456.4996,-3497.1643L13456.5125,-3497.1409L13456.5287,-3497.0856L13456.5491,-3497.0755L13456.5796,-3497.0677L13456.6032,-3497.0605L13456.6096,-3497.0585L13456.632,-3497.0237L13456.6659,-3496.9911L13456.6667,-3496.9906L13456.7033,-3496.9685L13456.7546,-3496.9502L13456.7683,-3496.9419L13456.7869,-3496.9269L13456.8141,-3496.9167L13456.8548,-3496.9058L13456.8839,-3496.9022L13456.9105,-3496.8942L13456.9237,-3496.8868L13456.9621,-3496.8785L13456.9893,-3496.8717L13457.0031,-3496.8688L13457.0348,-3496.8667L13457.0744,-3496.8731L13457.0971,-3496.885L13457.1202,-3496.8984L13457.1288,-3496.9047L13457.1351,-3496.9074L13457.1421,-3496.9077L13457.1478,-3496.9059L13457.1526,-3496.9026L13457.1579,-3496.898L13457.1683,-3496.8925L13457.1776,-3496.8892L13457.1985,-3496.8751L13457.2393,-3496.8492L13457.3017,-3496.8143L13457.3371,-3496.803L13457.3398,-3496.7816L13457.3304,-3496.75L13457.3295,-3496.7202L13457.3605,-3496.6667L13457.361,-3496.6657L13457.3756,-3496.6235L13457.3762,-3496.6186L13457.3786,-3496.601L13457.3747,-3496.5546L13457.3739,-3496.5384L13457.4017,-3496.474L13457.4098,-3496.4621L13457.4141,-3496.4452L13457.4208,-3496.4294L13457.4346,-3496.4171L13457.4553,-3496.4067L13457.4914,-3496.3958L13457.5,-3496.3935L13457.5089,-3496.3912L13457.5153,-3496.387L13457.5141,-3496.3764L13457.5038,-3496.3546L13457.5,-3496.3493L13457.4883,-3496.3328L13457.4738,-3496.2931L13457.4657,-3496.2811L13457.452,-3496.2761L13457.422,-3496.2667L13457.3736,-3496.2558L13457.3625,-3496.2526L13457.3527,-3496.2459L13457.3484,-3496.2357L13457.3398,-3496.2018L13457.3377,-3496.1904L13457.3313,-3496.1774L13457.3059,-3496.1376L13457.2962,-3496.0922L13457.2899,-3496.0706L13457.2801,-3496.0419L13457.2651,-3496.0182L13457.257,-3496.0104L13457.245,-3496.0024L13457.236,-3495.9943L13457.2274,-3495.9671L13457.2206,-3495.9354L13457.2061,-3495.9101L13457.1975,-3495.9017L13457.1847,-3495.8892L13457.1808,-3495.8853L13457.1762,-3495.8786L13457.171,-3495.8708L13457.1564,-3495.8385L13457.1557,-3495.8333L13457.1491,-3495.7842L13457.1474,-3495.7683L13457.1415,-3495.7514L13457.1282,-3495.7332L13457.1187,-3495.7233L13457.1033,-3495.7127L13457.0833,-3495.6945L13457.0771,-3495.6862L13457.0696,-3495.6729L13457.0659,-3495.6568L13457.0594,-3495.6361L13457.0577,-3495.6216L13457.0569,-3495.6065L13457.0646,-3495.5745L13457.0808,-3495.5471L13457.0838,-3495.5214L13457.0856,-3495.5007L13457.0834,-3495.4834L13457.0729,-3495.4629L13457.0622,-3495.4481L13457.0558,-3495.441L13457.0447,-3495.4321L13457.0321,-3495.4329L13457.0271,-3495.4321L13456.994,-3495.4199L13456.9749,-3495.4118L13456.8895,-3495.3983L13456.845,-3495.3863L13456.8189,-3495.3782L13456.795,-3495.3727L13456.7919,-3495.3719L13456.7658,-3495.3723L13456.7491,-3495.3775L13456.7366,-3495.3854L13456.6973,-3495.3944L13456.6667,-3495.3924L13456.6545,-3495.3916L13456.6185,-3495.3927L13456.5993,-3495.3965L13456.5886,-3495.4079L13456.5559,-3495.4519L13456.5252,-3495.4725L13456.4771,-3495.4969L13456.4583,-3495.5036L13456.4486,-3495.507L13456.4083,-3495.5293L13456.3959,-3495.5362L13456.349,-3495.5502L13456.2815,-3495.5734L13456.2508,-3495.5766L13456.2251,-3495.5721L13456.1956,-3495.5587L13456.1303,-3495.5384L13456.0956,-3495.5209L13456.0815,-3495.5124L13456.0661,-3495.5019L13456.0547,-3495.4864Z"/>
<path content="兵庫県,,,たつの市,,28229" xlink:title="兵庫県" d="M13456.0547,-3489.2578L13456.0547,-3495.4864L13456.0661,-3495.5019L13456.0815,-3495.5124L13456.0956,-3495.5209L13456.1303,-3495.5384L13456.1956,-3495.5587L13456.2251,-3495.5721L13456.2508,-3495.5766L13456.2815,-3495.5734L13456.349,-3495.5502L13456.3959,-3495.5362L13456.4083,-3495.5293L13456.4486,-3495.507L13456.4583,-3495.5036L13456.4771,-3495.4969L13456.5252,-3495.4725L13456.5559,-3495.4519L13456.5886,-3495.4079L13456.5993,-3495.3965L13456.6185,-3495.3927L13456.6545,-3495.3916L13456.6667,-3495.3924L13456.6973,-3495.3944L13456.7366,-3495.3854L13456.7491,-3495.3775L13456.7658,-3495.3723L13456.7919,-3495.3719L13456.795,-3495.3727L13456.8189,-3495.3782L13456.845,-3495.3863L13456.8895,-3495.3983L13456.9749,-3495.4118L13456.994,-3495.4199L13457.0271,-3495.4321L13457.0321,-3495.4329L13457.0447,-3495.4321L13457.0607,-3495.4187L13457.0774,-3495.4011L13457.0808,-3495.3787L13457.0809,-3495.3772L13457.082,-3495.3627L13457.0821,-3495.3614L13457.0802,-3495.3582L13457.074,-3495.348L13457.06,-3495.3122L13457.0565,-3495.2987L13457.056,-3495.2811L13457.0668,-3495.2514L13457.0702,-3495.24L13457.0702,-3495.2294L13457.0663,-3495.2185L13457.0586,-3495.212L13457.0475,-3495.2004L13457.0372,-3495.1906L13457.0299,-3495.1828L13457.0248,-3495.1628L13457.0252,-3495.1262L13457.0321,-3495.0648L13457.0363,-3495.0522L13457.0389,-3495.0406L13457.0505,-3495.0353L13457.0714,-3495.0279L13457.0791,-3495.0237L13457.0847,-3495.0149L13457.0875,-3495L13457.0909,-3494.9816L13457.0947,-3494.9647L13457.0947,-3494.9233L13457.1016,-3494.9045L13457.1133,-3494.8838L13457.1208,-3494.8738L13457.1386,-3494.8642L13457.1673,-3494.8529L13457.205,-3494.8311L13457.2208,-3494.8184L13457.2375,-3494.8086L13457.2538,-3494.8026L13457.2384,-3494.7653L13457.2148,-3494.7286L13457.205,-3494.7106L13457.1983,-3494.7022L13457.1971,-3494.6922L13457.1971,-3494.6872L13457.2008,-3494.6805L13457.2204,-3494.6526L13457.2285,-3494.634L13457.2345,-3494.6164L13457.2375,-3494.5939L13457.2388,-3494.5539L13457.2341,-3494.4936L13457.2333,-3494.4447L13457.2393,-3494.4101L13457.2435,-3494.396L13457.2583,-3494.3455L13457.2594,-3494.3083L13457.2624,-3494.2903L13457.2693,-3494.2584L13457.2735,-3494.2392L13457.2731,-3494.223L13457.2722,-3494.2047L13457.2669,-3494.1943L13457.2645,-3494.1908L13457.2628,-3494.1854L13457.2643,-3494.1778L13457.2707,-3494.1709L13457.2771,-3494.1681L13457.2793,-3494.1667L13457.3033,-3494.1514L13457.3108,-3494.1439L13457.3222,-3494.1153L13457.3396,-3494.0906L13457.3715,-3494.0642L13457.3788,-3494.0578L13457.3796,-3494.0506L13457.3796,-3494.0456L13457.3737,-3494.0215L13457.3642,-3493.9881L13457.3657,-3493.9599L13457.3672,-3493.9291L13457.3722,-3493.8793L13457.3721,-3493.8664L13457.3726,-3493.8589L13457.37,-3493.8491L13457.3593,-3493.834L13457.355,-3493.8245L13457.3529,-3493.8059L13457.3546,-3493.7935L13457.3657,-3493.7682L13457.3709,-3493.7513L13457.3722,-3493.7397L13457.3722,-3493.7249L13457.364,-3493.6743L13457.3584,-3493.6498L13457.352,-3493.6196L13457.3469,-3493.5837L13457.3303,-3493.5298L13457.3276,-3493.5129L13457.3157,-3493.4967L13457.2797,-3493.4773L13457.2557,-3493.4661L13457.2285,-3493.4592L13457.2067,-3493.4472L13457.1969,-3493.4395L13457.1904,-3493.4284L13457.1896,-3493.4086L13457.1863,-3493.3857L13457.1778,-3493.3549L13457.1667,-3493.3352L13457.1653,-3493.3333L13457.1478,-3493.3092L13457.132,-3493.2906L13457.1153,-3493.2804L13457.0914,-3493.273L13457.0712,-3493.2684L13457.0618,-3493.2642L13457.0563,-3493.2533L13457.0541,-3493.2367L13457.049,-3493.2181L13457.0451,-3493.2104L13457.0259,-3493.1991L13457.0107,-3493.194L13456.9415,-3493.1706L13456.9154,-3493.1576L13456.8692,-3493.1277L13456.8339,-3493.1082L13456.8182,-3493.1008L13456.8082,-3493.0888L13456.8021,-3493.079L13456.7949,-3493.0684L13456.791,-3493.0467L13456.7951,-3493.0287L13456.8032,-3493.013L13456.809,-3492.9909L13456.8082,-3492.9168L13456.8064,-3492.8936L13456.8026,-3492.8565L13456.8,-3492.8427L13456.799,-3492.8371L13456.7959,-3492.8207L13456.7923,-3492.7955L13456.7885,-3492.7811L13456.7859,-3492.7684L13456.7855,-3492.7575L13456.7906,-3492.7487L13456.8046,-3492.7416L13456.8263,-3492.7315L13456.8331,-3492.7247L13456.8411,-3492.712L13456.8424,-3492.6989L13456.8416,-3492.6786L13456.8386,-3492.656L13456.844,-3492.6245L13456.857,-3492.5869L13456.863,-3492.5641L13456.8608,-3492.5441L13456.8604,-3492.5401L13456.8583,-3492.5191L13456.8536,-3492.5015L13456.8532,-3492.5L13456.8493,-3492.4849L13456.8496,-3492.4641L13456.8712,-3492.4263L13456.8763,-3492.4212L13456.8861,-3492.4117L13456.9284,-3492.3791L13456.9608,-3492.3554L13456.9672,-3492.3328L13456.9676,-3492.3166L13456.9719,-3492.2577L13456.9792,-3492.2236L13457.0002,-3492.1786L13457.007,-3492.1664L13457.0139,-3492.1485L13457.0169,-3492.1207L13457.0237,-3492.1014L13457.0254,-3492.0725L13457.0247,-3492.048L13457.0203,-3492.0074L13457.0221,-3491.9883L13457.0171,-3491.9777L13457.0016,-3491.9628L13456.9658,-3491.9209L13456.8954,-3491.855L13456.8834,-3491.8358L13456.8798,-3491.8147L13456.8792,-3491.802L13456.8786,-3491.7896L13456.8612,-3491.6939L13456.8694,-3491.6667L13456.8756,-3491.6462L13456.8959,-3491.6048L13456.9087,-3491.5848L13456.9096,-3491.5833L13456.9457,-3491.5598L13456.9784,-3491.545L13457.0253,-3491.5839L13457.0509,-3491.575L13457.1046,-3491.5275L13457.1301,-3491.4877L13457.1771,-3491.375L13457.1828,-3491.3492L13457.1888,-3491.1396L13457.0631,-3491.1273L13456.9671,-3491.1101L13456.9333,-3491.097L13456.8984,-3491.0834L13456.8508,-3491.0594L13456.7609,-3491.0142L13456.6959,-3490.9617L13456.6667,-3490.9382L13456.6663,-3490.9379L13456.6286,-3490.8976L13456.6136,-3490.874L13456.6135,-3490.8333L13456.6134,-3490.8318L13456.6022,-3490.7343L13456.5951,-3490.7113L13456.5789,-3490.6784L13456.5672,-3490.6684L13456.5534,-3490.6526L13456.5534,-3490.6343L13456.5772,-3490.5743L13456.4756,-3490.4752L13456.3406,-3490.3236L13456.3429,-3490.2961L13456.3471,-3490.2793L13456.3645,-3490.2651L13456.4047,-3490.2368L13456.5035,-3490.1472L13456.5376,-3490.1059L13456.5981,-3490.0872L13456.6526,-3490.0798L13456.6667,-3490.0756L13456.6705,-3490.0744L13456.7646,-3490.0247L13456.7671,-3490.0232L13456.805,-3490L13456.8197,-3489.9911L13456.8618,-3489.9576L13456.8732,-3489.9418L13456.8912,-3489.8951L13456.9104,-3489.8779L13456.9459,-3489.8594L13456.9467,-3489.859L13457.0116,-3489.8296L13457.0384,-3489.8061L13457.0496,-3489.7866L13457.0527,-3489.7788L13457.1098,-3489.636L13457.0457,-3489.6021L13457.0104,-3489.5809L13456.9797,-3489.5528L13456.9487,-3489.5071L13456.9409,-3489.4886L13456.9457,-3489.4732L13456.9721,-3489.4673L13457.0047,-3489.4728L13457.0871,-3489.5081L13457.1221,-3489.5361L13457.1391,-3489.5334L13457.1763,-3489.5273L13457.199,-3489.5376L13457.2071,-3489.5461L13457.2196,-3489.5586L13457.2634,-3489.6877L13457.3021,-3489.6961L13457.3087,-3489.6956L13457.3259,-3489.6944L13457.3401,-3489.6906L13457.3359,-3489.6677L13457.3259,-3489.6486L13457.3241,-3489.6393L13457.3222,-3489.6288L13457.3221,-3489.6286L13457.3275,-3489.5335L13457.3574,-3489.5315L13457.3632,-3489.439L13457.3634,-3489.4358L13457.4077,-3489.4343L13457.4176,-3489.4806L13457.4221,-3489.5119L13457.4351,-3489.5129L13457.4759,-3489.5161L13457.4721,-3489.5544L13457.5,-3489.5557L13457.6124,-3489.5607L13457.6239,-3489.5612L13457.6235,-3489.537L13457.6234,-3489.5278L13457.7464,-3489.5249L13457.8009,-3489.5647L13457.7889,-3489.6242L13457.829,-3489.6219L13457.8481,-3489.6207L13457.8983,-3489.6177L13457.9436,-3489.6069L13457.9564,-3489.6039L13457.9663,-3489.6015L13457.9793,-3489.5984L13458.053,-3489.6353L13458.0613,-3489.635L13458.1084,-3489.6333L13458.1048,-3489.6033L13458.1036,-3489.5925L13458.1038,-3489.5896L13458.1049,-3489.5746L13458.1054,-3489.5674L13458.1591,-3489.567L13458.1647,-3489.5669L13458.1662,-3489.5607L13458.1898,-3489.463L13458.2224,-3489.4663L13458.2418,-3489.4682L13458.2741,-3489.4791L13458.2841,-3489.4825L13458.288,-3489.4837L13458.3018,-3489.4928L13458.3195,-3489.5044L13458.3308,-3489.5203L13458.3333,-3489.5283L13458.3358,-3489.5361L13458.3446,-3489.5444L13458.3643,-3489.5495L13458.3711,-3489.5512L13458.3793,-3489.5533L13458.4036,-3489.5596L13458.4102,-3489.5906L13458.5318,-3489.6304L13458.5608,-3489.6427L13458.6608,-3489.5551L13458.6692,-3489.5674L13458.689,-3489.5507L13458.692,-3489.5394L13458.7348,-3489.4971L13458.757,-3489.499L13458.7983,-3489.4695L13458.8378,-3489.4946L13458.8576,-3489.5108L13458.8761,-3489.5325L13458.9007,-3489.5761L13458.9186,-3489.6136L13458.9257,-3489.6286L13458.9395,-3489.6802L13458.9395,-3489.7002L13459.0007,-3489.7044L13459.0205,-3489.7098L13459.048,-3489.7364L13459.0905,-3489.7625L13459.1647,-3489.7959L13459.1667,-3489.7968L13459.2132,-3489.8177L13459.287,-3489.8377L13459.3132,-3489.8402L13459.3395,-3489.8344L13459.5064,-3489.7541L13459.5513,-3489.7374L13459.6642,-3489.6936L13459.6726,-3489.6818L13459.6782,-3489.5961L13459.6857,-3489.5686L13459.6951,-3489.5522L13459.6961,-3489.5512L13459.7106,-3489.5369L13459.734,-3489.5251L13459.7861,-3489.5108L13459.7957,-3489.5029L13459.8017,-3489.4907L13459.8023,-3489.4449L13459.7894,-3489.3503L13459.7858,-3489.3054L13459.7849,-3489.2946L13459.7848,-3489.2855L13459.7843,-3489.2626L13459.7846,-3489.2578Z"/>
</g>
</svg>
