<?xml version="1.0" encoding="UTF-8"?>
<svg  xmlns="http://www.w3.org/2000/svg" xmlns:xlink="http://www.w3.org/1999/xlink" xmlns:go="http://purl.org/svgmap/profile" viewBox="13425.2737782 -3577.9258252 220.23005579999904 234.66596210000006" go:dataArea="13425.2737782 -3577.9258252 220.23005579999904 234.66596210000006" >
<metadata>
 <rdf:RDF xmlns:rdf="http://www.w3.org/1999/02/22-rdf-syntax-ns#" xmlns:crs="http://opengis.org/xmldtds/transformations.dtd" xmlns:svg="http://www.w3.org/svg" >
  <rdf:Description>
   <crs:CoordinateReferenceSystem rdf:resource="http://purl.org/crs/84" svg:transform="matrix(100.0,0.0,0.0,-100.0,0.0,0.0)" />
  </rdf:Description>
 </rdf:RDF>
</metadata>
<globalCoordinateSystem srsName="http://purl.org/crs/84" transform="matrix(100.0,0.0,0.0,-100.0,0.0,0.0)" />
<g >
<image xlink:href="tile512_126.png" preserveAspectRatio="none" x="13500" y="-3392.578125" width="8.789062" height="8.789062"/>
<image xlink:href="tile512_125.png" preserveAspectRatio="none" x="13500" y="-3401.367188" width="8.789062" height="8.789062"/>
<image xlink:href="tile512_124.png" preserveAspectRatio="none" x="13500" y="-3410.15625" width="8.789062" height="8.789062"/>
<image xlink:href="tile512_123.png" preserveAspectRatio="none" x="13500" y="-3418.945312" width="8.789062" height="8.789062"/>
<image xlink:href="tile512_122.png" preserveAspectRatio="none" x="13500" y="-3427.734375" width="8.789062" height="8.789062"/>
<image xlink:href="tile512_121.png" preserveAspectRatio="none" x="13500" y="-3436.523438" width="8.789062" height="8.789062"/>
<image xlink:href="tile512_117.png" preserveAspectRatio="none" x="13500" y="-3471.679688" width="8.789062" height="8.789062"/>
<image xlink:href="tile512_116.png" preserveAspectRatio="none" x="13500" y="-3480.46875" width="8.789062" height="8.789062"/>
<image xlink:href="tile512_115.png" preserveAspectRatio="none" x="13500" y="-3489.257812" width="8.789062" height="8.789062"/>
<image xlink:href="tile512_114.png" preserveAspectRatio="none" x="13500" y="-3498.046875" width="8.789062" height="8.789062"/>
<image xlink:href="tile512_113.png" preserveAspectRatio="none" x="13500" y="-3506.835938" width="8.789062" height="8.789062"/>
<image xlink:href="tile512_112.png" preserveAspectRatio="none" x="13500" y="-3515.625" width="8.789062" height="8.789062"/>
<image xlink:href="tile513_127.png" preserveAspectRatio="none" x="13508.789062" y="-3383.789062" width="8.789062" height="8.789062"/>
<image xlink:href="tile513_126.png" preserveAspectRatio="none" x="13508.789062" y="-3392.578125" width="8.789062" height="8.789062"/>
<image xlink:href="tile513_125.png" preserveAspectRatio="none" x="13508.789062" y="-3401.367188" width="8.789062" height="8.789062"/>
<image xlink:href="tile513_124.png" preserveAspectRatio="none" x="13508.789062" y="-3410.15625" width="8.789062" height="8.789062"/>
<image xlink:href="tile513_123.png" preserveAspectRatio="none" x="13508.789062" y="-3418.945312" width="8.789062" height="8.789062"/>
<image xlink:href="tile513_122.png" preserveAspectRatio="none" x="13508.789062" y="-3427.734375" width="8.789062" height="8.789062"/>
<image xlink:href="tile513_121.png" preserveAspectRatio="none" x="13508.789062" y="-3436.523438" width="8.789062" height="8.789062"/>
<image xlink:href="tile513_117.png" preserveAspectRatio="none" x="13508.789062" y="-3471.679688" width="8.789062" height="8.789062"/>
<image xlink:href="tile513_116.png" preserveAspectRatio="none" x="13508.789062" y="-3480.46875" width="8.789062" height="8.789062"/>
<image xlink:href="tile513_115.png" preserveAspectRatio="none" x="13508.789062" y="-3489.257812" width="8.789062" height="8.789062"/>
<image xlink:href="tile513_114.png" preserveAspectRatio="none" x="13508.789062" y="-3498.046875" width="8.789062" height="8.789062"/>
<image xlink:href="tile513_113.png" preserveAspectRatio="none" x="13508.789062" y="-3506.835938" width="8.789062" height="8.789062"/>
<image xlink:href="tile513_112.png" preserveAspectRatio="none" x="13508.789062" y="-3515.625" width="8.789062" height="8.789062"/>
<image xlink:href="tile514_127.png" preserveAspectRatio="none" x="13517.578125" y="-3383.789062" width="8.789062" height="8.789062"/>
<image xlink:href="tile514_126.png" preserveAspectRatio="none" x="13517.578125" y="-3392.578125" width="8.789062" height="8.789062"/>
<image xlink:href="tile514_123.png" preserveAspectRatio="none" x="13517.578125" y="-3418.945312" width="8.789062" height="8.789062"/>
<image xlink:href="tile514_122.png" preserveAspectRatio="none" x="13517.578125" y="-3427.734375" width="8.789062" height="8.789062"/>
<image xlink:href="tile514_121.png" preserveAspectRatio="none" x="13517.578125" y="-3436.523438" width="8.789062" height="8.789062"/>
<image xlink:href="tile514_120.png" preserveAspectRatio="none" x="13517.578125" y="-3445.3125" width="8.789062" height="8.789062"/>
<image xlink:href="tile514_117.png" preserveAspectRatio="none" x="13517.578125" y="-3471.679688" width="8.789062" height="8.789062"/>
<image xlink:href="tile514_116.png" preserveAspectRatio="none" x="13517.578125" y="-3480.46875" width="8.789062" height="8.789062"/>
<image xlink:href="tile514_115.png" preserveAspectRatio="none" x="13517.578125" y="-3489.257812" width="8.789062" height="8.789062"/>
<image xlink:href="tile514_114.png" preserveAspectRatio="none" x="13517.578125" y="-3498.046875" width="8.789062" height="8.789062"/>
<image xlink:href="tile514_113.png" preserveAspectRatio="none" x="13517.578125" y="-3506.835938" width="8.789062" height="8.789062"/>
<image xlink:href="tile514_112.png" preserveAspectRatio="none" x="13517.578125" y="-3515.625" width="8.789062" height="8.789062"/>
<image xlink:href="tile515_127.png" preserveAspectRatio="none" x="13526.367188" y="-3383.789062" width="8.789062" height="8.789062"/>
<image xlink:href="tile515_126.png" preserveAspectRatio="none" x="13526.367188" y="-3392.578125" width="8.789062" height="8.789062"/>
<image xlink:href="tile515_123.png" preserveAspectRatio="none" x="13526.367188" y="-3418.945312" width="8.789062" height="8.789062"/>
<image xlink:href="tile515_122.png" preserveAspectRatio="none" x="13526.367188" y="-3427.734375" width="8.789062" height="8.789062"/>
<image xlink:href="tile515_121.png" preserveAspectRatio="none" x="13526.367188" y="-3436.523438" width="8.789062" height="8.789062"/>
<image xlink:href="tile515_120.png" preserveAspectRatio="none" x="13526.367188" y="-3445.3125" width="8.789062" height="8.789062"/>
<image xlink:href="tile515_117.png" preserveAspectRatio="none" x="13526.367188" y="-3471.679688" width="8.789062" height="8.789062"/>
<image xlink:href="tile515_116.png" preserveAspectRatio="none" x="13526.367188" y="-3480.46875" width="8.789062" height="8.789062"/>
<image xlink:href="tile515_115.png" preserveAspectRatio="none" x="13526.367188" y="-3489.257812" width="8.789062" height="8.789062"/>
<image xlink:href="tile515_114.png" preserveAspectRatio="none" x="13526.367188" y="-3498.046875" width="8.789062" height="8.789062"/>
<image xlink:href="tile515_113.png" preserveAspectRatio="none" x="13526.367188" y="-3506.835938" width="8.789062" height="8.789062"/>
<image xlink:href="tile515_112.png" preserveAspectRatio="none" x="13526.367188" y="-3515.625" width="8.789062" height="8.789062"/>
<image xlink:href="tile516_123.png" preserveAspectRatio="none" x="13535.15625" y="-3418.945312" width="8.789062" height="8.789062"/>
<image xlink:href="tile516_122.png" preserveAspectRatio="none" x="13535.15625" y="-3427.734375" width="8.789062" height="8.789062"/>
<image xlink:href="tile516_121.png" preserveAspectRatio="none" x="13535.15625" y="-3436.523438" width="8.789062" height="8.789062"/>
<image xlink:href="tile516_120.png" preserveAspectRatio="none" x="13535.15625" y="-3445.3125" width="8.789062" height="8.789062"/>
<image xlink:href="tile516_119.png" preserveAspectRatio="none" x="13535.15625" y="-3454.101562" width="8.789062" height="8.789062"/>
<image xlink:href="tile516_118.png" preserveAspectRatio="none" x="13535.15625" y="-3462.890625" width="8.789062" height="8.789062"/>
<image xlink:href="tile516_117.png" preserveAspectRatio="none" x="13535.15625" y="-3471.679688" width="8.789062" height="8.789062"/>
<image xlink:href="tile516_116.png" preserveAspectRatio="none" x="13535.15625" y="-3480.46875" width="8.789062" height="8.789062"/>
<image xlink:href="tile516_115.png" preserveAspectRatio="none" x="13535.15625" y="-3489.257812" width="8.789062" height="8.789062"/>
<image xlink:href="tile516_114.png" preserveAspectRatio="none" x="13535.15625" y="-3498.046875" width="8.789062" height="8.789062"/>
<image xlink:href="tile516_113.png" preserveAspectRatio="none" x="13535.15625" y="-3506.835938" width="8.789062" height="8.789062"/>
<image xlink:href="tile516_112.png" preserveAspectRatio="none" x="13535.15625" y="-3515.625" width="8.789062" height="8.789062"/>
<image xlink:href="tile517_123.png" preserveAspectRatio="none" x="13543.945312" y="-3418.945312" width="8.789062" height="8.789062"/>
<image xlink:href="tile517_122.png" preserveAspectRatio="none" x="13543.945312" y="-3427.734375" width="8.789062" height="8.789062"/>
<image xlink:href="tile517_121.png" preserveAspectRatio="none" x="13543.945312" y="-3436.523438" width="8.789062" height="8.789062"/>
<image xlink:href="tile517_120.png" preserveAspectRatio="none" x="13543.945312" y="-3445.3125" width="8.789062" height="8.789062"/>
<image xlink:href="tile517_119.png" preserveAspectRatio="none" x="13543.945312" y="-3454.101562" width="8.789062" height="8.789062"/>
<image xlink:href="tile517_118.png" preserveAspectRatio="none" x="13543.945312" y="-3462.890625" width="8.789062" height="8.789062"/>
<image xlink:href="tile517_117.png" preserveAspectRatio="none" x="13543.945312" y="-3471.679688" width="8.789062" height="8.789062"/>
<image xlink:href="tile517_116.png" preserveAspectRatio="none" x="13543.945312" y="-3480.46875" width="8.789062" height="8.789062"/>
<image xlink:href="tile517_115.png" preserveAspectRatio="none" x="13543.945312" y="-3489.257812" width="8.789062" height="8.789062"/>
<image xlink:href="tile517_114.png" preserveAspectRatio="none" x="13543.945312" y="-3498.046875" width="8.789062" height="8.789062"/>
<image xlink:href="tile517_113.png" preserveAspectRatio="none" x="13543.945312" y="-3506.835938" width="8.789062" height="8.789062"/>
<image xlink:href="tile517_112.png" preserveAspectRatio="none" x="13543.945312" y="-3515.625" width="8.789062" height="8.789062"/>
<image xlink:href="tile518_123.png" preserveAspectRatio="none" x="13552.734375" y="-3418.945312" width="8.789062" height="8.789062"/>
<image xlink:href="tile518_122.png" preserveAspectRatio="none" x="13552.734375" y="-3427.734375" width="8.789062" height="8.789062"/>
<image xlink:href="tile518_121.png" preserveAspectRatio="none" x="13552.734375" y="-3436.523438" width="8.789062" height="8.789062"/>
<image xlink:href="tile518_120.png" preserveAspectRatio="none" x="13552.734375" y="-3445.3125" width="8.789062" height="8.789062"/>
<image xlink:href="tile518_119.png" preserveAspectRatio="none" x="13552.734375" y="-3454.101562" width="8.789062" height="8.789062"/>
<image xlink:href="tile518_118.png" preserveAspectRatio="none" x="13552.734375" y="-3462.890625" width="8.789062" height="8.789062"/>
<image xlink:href="tile518_117.png" preserveAspectRatio="none" x="13552.734375" y="-3471.679688" width="8.789062" height="8.789062"/>
<image xlink:href="tile518_116.png" preserveAspectRatio="none" x="13552.734375" y="-3480.46875" width="8.789062" height="8.789062"/>
<image xlink:href="tile518_115.png" preserveAspectRatio="none" x="13552.734375" y="-3489.257812" width="8.789062" height="8.789062"/>
<image xlink:href="tile518_114.png" preserveAspectRatio="none" x="13552.734375" y="-3498.046875" width="8.789062" height="8.789062"/>
<image xlink:href="tile518_113.png" preserveAspectRatio="none" x="13552.734375" y="-3506.835938" width="8.789062" height="8.789062"/>
<image xlink:href="tile518_112.png" preserveAspectRatio="none" x="13552.734375" y="-3515.625" width="8.789062" height="8.789062"/>
<image xlink:href="tile519_123.png" preserveAspectRatio="none" x="13561.523438" y="-3418.945312" width="8.789062" height="8.789062"/>
<image xlink:href="tile519_122.png" preserveAspectRatio="none" x="13561.523438" y="-3427.734375" width="8.789062" height="8.789062"/>
<image xlink:href="tile519_121.png" preserveAspectRatio="none" x="13561.523438" y="-3436.523438" width="8.789062" height="8.789062"/>
<image xlink:href="tile519_120.png" preserveAspectRatio="none" x="13561.523438" y="-3445.3125" width="8.789062" height="8.789062"/>
<image xlink:href="tile519_119.png" preserveAspectRatio="none" x="13561.523438" y="-3454.101562" width="8.789062" height="8.789062"/>
<image xlink:href="tile519_118.png" preserveAspectRatio="none" x="13561.523438" y="-3462.890625" width="8.789062" height="8.789062"/>
<image xlink:href="tile519_117.png" preserveAspectRatio="none" x="13561.523438" y="-3471.679688" width="8.789062" height="8.789062"/>
<image xlink:href="tile519_116.png" preserveAspectRatio="none" x="13561.523438" y="-3480.46875" width="8.789062" height="8.789062"/>
<image xlink:href="tile519_115.png" preserveAspectRatio="none" x="13561.523438" y="-3489.257812" width="8.789062" height="8.789062"/>
<image xlink:href="tile519_114.png" preserveAspectRatio="none" x="13561.523438" y="-3498.046875" width="8.789062" height="8.789062"/>
<image xlink:href="tile519_113.png" preserveAspectRatio="none" x="13561.523438" y="-3506.835938" width="8.789062" height="8.789062"/>
<image xlink:href="tile519_112.png" preserveAspectRatio="none" x="13561.523438" y="-3515.625" width="8.789062" height="8.789062"/>
<image xlink:href="tile520_123.png" preserveAspectRatio="none" x="13570.3125" y="-3418.945312" width="8.789062" height="8.789062"/>
<image xlink:href="tile520_122.png" preserveAspectRatio="none" x="13570.3125" y="-3427.734375" width="8.789062" height="8.789062"/>
<image xlink:href="tile520_121.png" preserveAspectRatio="none" x="13570.3125" y="-3436.523438" width="8.789062" height="8.789062"/>
<image xlink:href="tile520_120.png" preserveAspectRatio="none" x="13570.3125" y="-3445.3125" width="8.789062" height="8.789062"/>
<image xlink:href="tile520_119.png" preserveAspectRatio="none" x="13570.3125" y="-3454.101562" width="8.789062" height="8.789062"/>
<image xlink:href="tile520_118.png" preserveAspectRatio="none" x="13570.3125" y="-3462.890625" width="8.789062" height="8.789062"/>
<image xlink:href="tile520_117.png" preserveAspectRatio="none" x="13570.3125" y="-3471.679688" width="8.789062" height="8.789062"/>
<image xlink:href="tile520_116.png" preserveAspectRatio="none" x="13570.3125" y="-3480.46875" width="8.789062" height="8.789062"/>
<image xlink:href="tile520_115.png" preserveAspectRatio="none" x="13570.3125" y="-3489.257812" width="8.789062" height="8.789062"/>
<image xlink:href="tile520_114.png" preserveAspectRatio="none" x="13570.3125" y="-3498.046875" width="8.789062" height="8.789062"/>
<image xlink:href="tile520_113.png" preserveAspectRatio="none" x="13570.3125" y="-3506.835938" width="8.789062" height="8.789062"/>
<image xlink:href="tile520_112.png" preserveAspectRatio="none" x="13570.3125" y="-3515.625" width="8.789062" height="8.789062"/>
<image xlink:href="tile521_123.png" preserveAspectRatio="none" x="13579.101562" y="-3418.945312" width="8.789062" height="8.789062"/>
<image xlink:href="tile521_122.png" preserveAspectRatio="none" x="13579.101562" y="-3427.734375" width="8.789062" height="8.789062"/>
<image xlink:href="tile521_121.png" preserveAspectRatio="none" x="13579.101562" y="-3436.523438" width="8.789062" height="8.789062"/>
<image xlink:href="tile521_120.png" preserveAspectRatio="none" x="13579.101562" y="-3445.3125" width="8.789062" height="8.789062"/>
<image xlink:href="tile521_119.png" preserveAspectRatio="none" x="13579.101562" y="-3454.101562" width="8.789062" height="8.789062"/>
<image xlink:href="tile521_118.png" preserveAspectRatio="none" x="13579.101562" y="-3462.890625" width="8.789062" height="8.789062"/>
<image xlink:href="tile521_117.png" preserveAspectRatio="none" x="13579.101562" y="-3471.679688" width="8.789062" height="8.789062"/>
<image xlink:href="tile521_116.png" preserveAspectRatio="none" x="13579.101562" y="-3480.46875" width="8.789062" height="8.789062"/>
<image xlink:href="tile521_115.png" preserveAspectRatio="none" x="13579.101562" y="-3489.257812" width="8.789062" height="8.789062"/>
<image xlink:href="tile521_114.png" preserveAspectRatio="none" x="13579.101562" y="-3498.046875" width="8.789062" height="8.789062"/>
<image xlink:href="tile521_113.png" preserveAspectRatio="none" x="13579.101562" y="-3506.835938" width="8.789062" height="8.789062"/>
<image xlink:href="tile521_112.png" preserveAspectRatio="none" x="13579.101562" y="-3515.625" width="8.789062" height="8.789062"/>
<image xlink:href="tile522_123.png" preserveAspectRatio="none" x="13587.890625" y="-3418.945312" width="8.789062" height="8.789062"/>
<image xlink:href="tile522_122.png" preserveAspectRatio="none" x="13587.890625" y="-3427.734375" width="8.789062" height="8.789062"/>
<image xlink:href="tile522_121.png" preserveAspectRatio="none" x="13587.890625" y="-3436.523438" width="8.789062" height="8.789062"/>
<image xlink:href="tile522_120.png" preserveAspectRatio="none" x="13587.890625" y="-3445.3125" width="8.789062" height="8.789062"/>
<image xlink:href="tile522_119.png" preserveAspectRatio="none" x="13587.890625" y="-3454.101562" width="8.789062" height="8.789062"/>
<image xlink:href="tile522_118.png" preserveAspectRatio="none" x="13587.890625" y="-3462.890625" width="8.789062" height="8.789062"/>
<image xlink:href="tile522_117.png" preserveAspectRatio="none" x="13587.890625" y="-3471.679688" width="8.789062" height="8.789062"/>
<image xlink:href="tile522_116.png" preserveAspectRatio="none" x="13587.890625" y="-3480.46875" width="8.789062" height="8.789062"/>
<image xlink:href="tile522_115.png" preserveAspectRatio="none" x="13587.890625" y="-3489.257812" width="8.789062" height="8.789062"/>
<image xlink:href="tile522_114.png" preserveAspectRatio="none" x="13587.890625" y="-3498.046875" width="8.789062" height="8.789062"/>
<image xlink:href="tile523_123.png" preserveAspectRatio="none" x="13596.679688" y="-3418.945312" width="8.789062" height="8.789062"/>
<image xlink:href="tile523_122.png" preserveAspectRatio="none" x="13596.679688" y="-3427.734375" width="8.789062" height="8.789062"/>
<image xlink:href="tile523_121.png" preserveAspectRatio="none" x="13596.679688" y="-3436.523438" width="8.789062" height="8.789062"/>
<image xlink:href="tile523_120.png" preserveAspectRatio="none" x="13596.679688" y="-3445.3125" width="8.789062" height="8.789062"/>
<image xlink:href="tile523_119.png" preserveAspectRatio="none" x="13596.679688" y="-3454.101562" width="8.789062" height="8.789062"/>
<image xlink:href="tile523_118.png" preserveAspectRatio="none" x="13596.679688" y="-3462.890625" width="8.789062" height="8.789062"/>
<image xlink:href="tile523_117.png" preserveAspectRatio="none" x="13596.679688" y="-3471.679688" width="8.789062" height="8.789062"/>
<image xlink:href="tile523_116.png" preserveAspectRatio="none" x="13596.679688" y="-3480.46875" width="8.789062" height="8.789062"/>
<image xlink:href="tile523_115.png" preserveAspectRatio="none" x="13596.679688" y="-3489.257812" width="8.789062" height="8.789062"/>
<image xlink:href="tile523_114.png" preserveAspectRatio="none" x="13596.679688" y="-3498.046875" width="8.789062" height="8.789062"/>
<image xlink:href="tile524_113.png" preserveAspectRatio="none" x="13605.46875" y="-3506.835938" width="8.789062" height="8.789062"/>
<image xlink:href="tile524_112.png" preserveAspectRatio="none" x="13605.46875" y="-3515.625" width="8.789062" height="8.789062"/>
<image xlink:href="tile525_113.png" preserveAspectRatio="none" x="13614.257812" y="-3506.835938" width="8.789062" height="8.789062"/>
<image xlink:href="tile525_112.png" preserveAspectRatio="none" x="13614.257812" y="-3515.625" width="8.789062" height="8.789062"/>
<image xlink:href="tile526_113.png" preserveAspectRatio="none" x="13623.046875" y="-3506.835938" width="8.789062" height="8.789062"/>
<image xlink:href="tile526_112.png" preserveAspectRatio="none" x="13623.046875" y="-3515.625" width="8.789062" height="8.789062"/>
<image xlink:href="tile527_113.png" preserveAspectRatio="none" x="13631.835938" y="-3506.835938" width="8.789062" height="8.789062"/>
<image xlink:href="tile527_112.png" preserveAspectRatio="none" x="13631.835938" y="-3515.625" width="8.789062" height="8.789062"/>
</g>
</svg>
