<?xml version="1.0" encoding="UTF-8"?>
<svg  xmlns="http://www.w3.org/2000/svg" xmlns:xlink="http://www.w3.org/1999/xlink" xmlns:go="http://purl.org/svgmap/profile" viewBox="13425.2737782 -3577.9258252 220.23005579999904 234.66596210000006" go:dataArea="13425.2737782 -3577.9258252 220.23005579999904 234.66596210000006" >
<metadata>
 <rdf:RDF xmlns:rdf="http://www.w3.org/1999/02/22-rdf-syntax-ns#" xmlns:crs="http://opengis.org/xmldtds/transformations.dtd" xmlns:svg="http://www.w3.org/svg" >
  <rdf:Description>
   <crs:CoordinateReferenceSystem rdf:resource="http://purl.org/crs/84" svg:transform="matrix(100.0,0.0,0.0,-100.0,0.0,0.0)" />
  </rdf:Description>
 </rdf:RDF>
</metadata>
<globalCoordinateSystem srsName="http://purl.org/crs/84" transform="matrix(100.0,0.0,0.0,-100.0,0.0,0.0)" />
<g >
<image xlink:href="tile256_63.png" preserveAspectRatio="none" x="13500" y="-3392.578125" width="17.578125" height="17.578125"/>
<image xlink:href="tile256_62.png" preserveAspectRatio="none" x="13500" y="-3410.15625" width="17.578125" height="17.578125"/>
<image xlink:href="tile256_61.png" preserveAspectRatio="none" x="13500" y="-3427.734375" width="17.578125" height="17.578125"/>
<image xlink:href="tile256_60.png" preserveAspectRatio="none" x="13500" y="-3445.3125" width="17.578125" height="17.578125"/>
<image xlink:href="tile256_59.png" preserveAspectRatio="none" x="13500" y="-3462.890625" width="17.578125" height="17.578125"/>
<image xlink:href="tile256_58.png" preserveAspectRatio="none" x="13500" y="-3480.46875" width="17.578125" height="17.578125"/>
<image xlink:href="tile256_57.png" preserveAspectRatio="none" x="13500" y="-3498.046875" width="17.578125" height="17.578125"/>
<image xlink:href="tile256_56.png" preserveAspectRatio="none" x="13500" y="-3515.625" width="17.578125" height="17.578125"/>
<image xlink:href="tile256_55.png" preserveAspectRatio="none" x="13500" y="-3533.203125" width="17.578125" height="17.578125"/>
<image xlink:href="tile256_54.png" preserveAspectRatio="none" x="13500" y="-3550.78125" width="17.578125" height="17.578125"/>
<image xlink:href="tile256_53.png" preserveAspectRatio="none" x="13500" y="-3568.359375" width="17.578125" height="17.578125"/>
<image xlink:href="tile256_52.png" preserveAspectRatio="none" x="13500" y="-3585.9375" width="17.578125" height="17.578125"/>
<image xlink:href="tile257_63.png" preserveAspectRatio="none" x="13517.578125" y="-3392.578125" width="17.578125" height="17.578125"/>
<image xlink:href="tile257_62.png" preserveAspectRatio="none" x="13517.578125" y="-3410.15625" width="17.578125" height="17.578125"/>
<image xlink:href="tile257_61.png" preserveAspectRatio="none" x="13517.578125" y="-3427.734375" width="17.578125" height="17.578125"/>
<image xlink:href="tile257_60.png" preserveAspectRatio="none" x="13517.578125" y="-3445.3125" width="17.578125" height="17.578125"/>
<image xlink:href="tile257_59.png" preserveAspectRatio="none" x="13517.578125" y="-3462.890625" width="17.578125" height="17.578125"/>
<image xlink:href="tile257_58.png" preserveAspectRatio="none" x="13517.578125" y="-3480.46875" width="17.578125" height="17.578125"/>
<image xlink:href="tile257_57.png" preserveAspectRatio="none" x="13517.578125" y="-3498.046875" width="17.578125" height="17.578125"/>
<image xlink:href="tile257_56.png" preserveAspectRatio="none" x="13517.578125" y="-3515.625" width="17.578125" height="17.578125"/>
<image xlink:href="tile257_55.png" preserveAspectRatio="none" x="13517.578125" y="-3533.203125" width="17.578125" height="17.578125"/>
<image xlink:href="tile257_54.png" preserveAspectRatio="none" x="13517.578125" y="-3550.78125" width="17.578125" height="17.578125"/>
<image xlink:href="tile257_53.png" preserveAspectRatio="none" x="13517.578125" y="-3568.359375" width="17.578125" height="17.578125"/>
<image xlink:href="tile257_52.png" preserveAspectRatio="none" x="13517.578125" y="-3585.9375" width="17.578125" height="17.578125"/>
<image xlink:href="tile258_63.png" preserveAspectRatio="none" x="13535.15625" y="-3392.578125" width="17.578125" height="17.578125"/>
<image xlink:href="tile258_62.png" preserveAspectRatio="none" x="13535.15625" y="-3410.15625" width="17.578125" height="17.578125"/>
<image xlink:href="tile258_61.png" preserveAspectRatio="none" x="13535.15625" y="-3427.734375" width="17.578125" height="17.578125"/>
<image xlink:href="tile258_60.png" preserveAspectRatio="none" x="13535.15625" y="-3445.3125" width="17.578125" height="17.578125"/>
<image xlink:href="tile258_59.png" preserveAspectRatio="none" x="13535.15625" y="-3462.890625" width="17.578125" height="17.578125"/>
<image xlink:href="tile258_58.png" preserveAspectRatio="none" x="13535.15625" y="-3480.46875" width="17.578125" height="17.578125"/>
<image xlink:href="tile258_57.png" preserveAspectRatio="none" x="13535.15625" y="-3498.046875" width="17.578125" height="17.578125"/>
<image xlink:href="tile258_56.png" preserveAspectRatio="none" x="13535.15625" y="-3515.625" width="17.578125" height="17.578125"/>
<image xlink:href="tile258_55.png" preserveAspectRatio="none" x="13535.15625" y="-3533.203125" width="17.578125" height="17.578125"/>
<image xlink:href="tile258_54.png" preserveAspectRatio="none" x="13535.15625" y="-3550.78125" width="17.578125" height="17.578125"/>
<image xlink:href="tile258_53.png" preserveAspectRatio="none" x="13535.15625" y="-3568.359375" width="17.578125" height="17.578125"/>
<image xlink:href="tile258_52.png" preserveAspectRatio="none" x="13535.15625" y="-3585.9375" width="17.578125" height="17.578125"/>
<image xlink:href="tile259_63.png" preserveAspectRatio="none" x="13552.734375" y="-3392.578125" width="17.578125" height="17.578125"/>
<image xlink:href="tile259_62.png" preserveAspectRatio="none" x="13552.734375" y="-3410.15625" width="17.578125" height="17.578125"/>
<image xlink:href="tile259_61.png" preserveAspectRatio="none" x="13552.734375" y="-3427.734375" width="17.578125" height="17.578125"/>
<image xlink:href="tile259_60.png" preserveAspectRatio="none" x="13552.734375" y="-3445.3125" width="17.578125" height="17.578125"/>
<image xlink:href="tile259_59.png" preserveAspectRatio="none" x="13552.734375" y="-3462.890625" width="17.578125" height="17.578125"/>
<image xlink:href="tile259_58.png" preserveAspectRatio="none" x="13552.734375" y="-3480.46875" width="17.578125" height="17.578125"/>
<image xlink:href="tile259_57.png" preserveAspectRatio="none" x="13552.734375" y="-3498.046875" width="17.578125" height="17.578125"/>
<image xlink:href="tile259_56.png" preserveAspectRatio="none" x="13552.734375" y="-3515.625" width="17.578125" height="17.578125"/>
<image xlink:href="tile259_55.png" preserveAspectRatio="none" x="13552.734375" y="-3533.203125" width="17.578125" height="17.578125"/>
<image xlink:href="tile259_54.png" preserveAspectRatio="none" x="13552.734375" y="-3550.78125" width="17.578125" height="17.578125"/>
<image xlink:href="tile260_63.png" preserveAspectRatio="none" x="13570.3125" y="-3392.578125" width="17.578125" height="17.578125"/>
<image xlink:href="tile260_62.png" preserveAspectRatio="none" x="13570.3125" y="-3410.15625" width="17.578125" height="17.578125"/>
<image xlink:href="tile260_61.png" preserveAspectRatio="none" x="13570.3125" y="-3427.734375" width="17.578125" height="17.578125"/>
<image xlink:href="tile260_60.png" preserveAspectRatio="none" x="13570.3125" y="-3445.3125" width="17.578125" height="17.578125"/>
<image xlink:href="tile260_59.png" preserveAspectRatio="none" x="13570.3125" y="-3462.890625" width="17.578125" height="17.578125"/>
<image xlink:href="tile260_58.png" preserveAspectRatio="none" x="13570.3125" y="-3480.46875" width="17.578125" height="17.578125"/>
<image xlink:href="tile260_57.png" preserveAspectRatio="none" x="13570.3125" y="-3498.046875" width="17.578125" height="17.578125"/>
<image xlink:href="tile260_56.png" preserveAspectRatio="none" x="13570.3125" y="-3515.625" width="17.578125" height="17.578125"/>
<image xlink:href="tile260_55.png" preserveAspectRatio="none" x="13570.3125" y="-3533.203125" width="17.578125" height="17.578125"/>
<image xlink:href="tile260_54.png" preserveAspectRatio="none" x="13570.3125" y="-3550.78125" width="17.578125" height="17.578125"/>
<image xlink:href="tile261_63.png" preserveAspectRatio="none" x="13587.890625" y="-3392.578125" width="17.578125" height="17.578125"/>
<image xlink:href="tile261_62.png" preserveAspectRatio="none" x="13587.890625" y="-3410.15625" width="17.578125" height="17.578125"/>
<image xlink:href="tile261_61.png" preserveAspectRatio="none" x="13587.890625" y="-3427.734375" width="17.578125" height="17.578125"/>
<image xlink:href="tile261_60.png" preserveAspectRatio="none" x="13587.890625" y="-3445.3125" width="17.578125" height="17.578125"/>
<image xlink:href="tile261_59.png" preserveAspectRatio="none" x="13587.890625" y="-3462.890625" width="17.578125" height="17.578125"/>
<image xlink:href="tile261_58.png" preserveAspectRatio="none" x="13587.890625" y="-3480.46875" width="17.578125" height="17.578125"/>
<image xlink:href="tile261_57.png" preserveAspectRatio="none" x="13587.890625" y="-3498.046875" width="17.578125" height="17.578125"/>
<image xlink:href="tile261_56.png" preserveAspectRatio="none" x="13587.890625" y="-3515.625" width="17.578125" height="17.578125"/>
<image xlink:href="tile261_55.png" preserveAspectRatio="none" x="13587.890625" y="-3533.203125" width="17.578125" height="17.578125"/>
<image xlink:href="tile261_54.png" preserveAspectRatio="none" x="13587.890625" y="-3550.78125" width="17.578125" height="17.578125"/>
<image xlink:href="tile262_57.png" preserveAspectRatio="none" x="13605.46875" y="-3498.046875" width="17.578125" height="17.578125"/>
<image xlink:href="tile262_56.png" preserveAspectRatio="none" x="13605.46875" y="-3515.625" width="17.578125" height="17.578125"/>
<image xlink:href="tile262_55.png" preserveAspectRatio="none" x="13605.46875" y="-3533.203125" width="17.578125" height="17.578125"/>
<image xlink:href="tile262_54.png" preserveAspectRatio="none" x="13605.46875" y="-3550.78125" width="17.578125" height="17.578125"/>
<image xlink:href="tile263_57.png" preserveAspectRatio="none" x="13623.046875" y="-3498.046875" width="17.578125" height="17.578125"/>
<image xlink:href="tile263_56.png" preserveAspectRatio="none" x="13623.046875" y="-3515.625" width="17.578125" height="17.578125"/>
<image xlink:href="tile263_55.png" preserveAspectRatio="none" x="13623.046875" y="-3533.203125" width="17.578125" height="17.578125"/>
<image xlink:href="tile263_54.png" preserveAspectRatio="none" x="13623.046875" y="-3550.78125" width="17.578125" height="17.578125"/>
</g>
</svg>
